<svg xmlns="http://www.w3.org/2000/svg" xmlns:xlink="http://www.w3.org/1999/xlink" version="1.1" style="background-color:#7DB6C1" width="1062" height="669" viewbox="0 0 1062 669"><defs>
</defs>
<line shape-type="limitline" x1="1393" y1="218" x2="114" y2="218" fill="#FFFFFF" stroke="#00FF00" stroke-width="1.00"/>
<line shape-type="limitline" x1="1393" y1="317" x2="114" y2="317" fill="#FFFFFF" stroke="#FF0000" stroke-width="1.00"/>
<line shape-type="limitline" x1="1393" y1="416" x2="114" y2="416" fill="#FFFFFF" stroke="#00FF00" stroke-width="1.00"/>
<g shape-type="group">
<line shape-type="limitline" x1="114" y1="226" x2="113" y2="209" fill="#FFFFFF" stroke="#00FF00" stroke-width="1.00"/>
<line shape-type="limitline" x1="109" y1="226" x2="108" y2="209" fill="#FFFFFF" stroke="#00FF00" stroke-width="1.00"/>
</g>
<g shape-type="group">
<line shape-type="limitline" x1="114" y1="424" x2="113" y2="407" fill="#FFFFFF" stroke="#00FF00" stroke-width="1.00"/>
<line shape-type="limitline" x1="108" y1="424" x2="107" y2="407" fill="#FFFFFF" stroke="#00FF00" stroke-width="1.00"/>
</g>
<line shape-type="limitline" x1="176" y1="458" x2="176" y2="417" fill="#FFFFFF" stroke="#00FF00" stroke-width="1.00"/>
<line shape-type="limitline" x1="345" y1="458" x2="176" y2="458" fill="#FFFFFF" stroke="#00FF00" stroke-width="1.00"/>
<g shape-type="group">
<line shape-type="limitline" x1="351" y1="468" x2="350" y2="451" fill="#FFFFFF" stroke="#00FF00" stroke-width="1.00"/>
<line shape-type="limitline" x1="346" y1="468" x2="345" y2="451" fill="#FFFFFF" stroke="#00FF00" stroke-width="1.00"/>
</g>
<line shape-type="limitline" x1="196" y1="519" x2="196" y2="459" fill="#FFFFFF" stroke="#00FF00" stroke-width="1.00"/>
<line shape-type="limitline" x1="236" y1="519" x2="236" y2="459" fill="#FFFFFF" stroke="#00FF00" stroke-width="1.00"/>
<line shape-type="limitline" x1="277" y1="519" x2="277" y2="459" fill="#FFFFFF" stroke="#00FF00" stroke-width="1.00"/>
<line shape-type="limitline" x1="318" y1="519" x2="318" y2="459" fill="#FFFFFF" stroke="#00FF00" stroke-width="1.00"/>
<line shape-type="limitline" x1="348" y1="520" x2="179" y2="520" fill="#FFFFFF" stroke="#00FF00" stroke-width="1.00"/>
<line shape-type="limitline" x1="348" y1="522" x2="348" y2="694" fill="#FFFFFF" stroke="#00FF00" stroke-width="1.00"/>
<line shape-type="limitline" x1="349" y1="695" x2="1410" y2="695" fill="#FFFFFF" stroke="#00FF00" stroke-width="1.00"/>
<g shape-type="group">
<line shape-type="limitline" x1="179" y1="527" x2="178" y2="510" fill="#FFFFFF" stroke="#00FF00" stroke-width="1.00"/>
<line shape-type="limitline" x1="174" y1="527" x2="173" y2="510" fill="#FFFFFF" stroke="#00FF00" stroke-width="1.00"/>
</g>
<line shape-type="limitline" x1="451" y1="458" x2="451" y2="417" fill="#FFFFFF" stroke="#00FF00" stroke-width="1.00"/>
<line shape-type="limitline" x1="620" y1="458" x2="451" y2="458" fill="#FFFFFF" stroke="#00FF00" stroke-width="1.00"/>
<g shape-type="group">
<line shape-type="limitline" x1="626" y1="468" x2="625" y2="451" fill="#FFFFFF" stroke="#00FF00" stroke-width="1.00"/>
<line shape-type="limitline" x1="621" y1="468" x2="620" y2="451" fill="#FFFFFF" stroke="#00FF00" stroke-width="1.00"/>
</g>
<line shape-type="limitline" x1="471" y1="519" x2="471" y2="459" fill="#FFFFFF" stroke="#00FF00" stroke-width="1.00"/>
<line shape-type="limitline" x1="511" y1="519" x2="511" y2="459" fill="#FFFFFF" stroke="#00FF00" stroke-width="1.00"/>
<line shape-type="limitline" x1="552" y1="519" x2="552" y2="459" fill="#FFFFFF" stroke="#00FF00" stroke-width="1.00"/>
<line shape-type="limitline" x1="593" y1="519" x2="593" y2="459" fill="#FFFFFF" stroke="#00FF00" stroke-width="1.00"/>
<line shape-type="limitline" x1="623" y1="520" x2="454" y2="520" fill="#FFFFFF" stroke="#00FF00" stroke-width="1.00"/>
<line shape-type="limitline" x1="623" y1="522" x2="623" y2="644" fill="#FFFFFF" stroke="#00FF00" stroke-width="1.00"/>
<g shape-type="group">
<line shape-type="limitline" x1="454" y1="527" x2="453" y2="510" fill="#FFFFFF" stroke="#00FF00" stroke-width="1.00"/>
<line shape-type="limitline" x1="449" y1="527" x2="448" y2="510" fill="#FFFFFF" stroke="#00FF00" stroke-width="1.00"/>
</g>
<line shape-type="limitline" x1="1129" y1="458" x2="1130" y2="417" fill="#FFFFFF" stroke="#00FF00" stroke-width="1.00"/>
<line shape-type="limitline" x1="1130" y1="458" x2="918" y2="458" fill="#FFFFFF" stroke="#00FF00" stroke-width="1.00"/>
<g shape-type="group">
<line shape-type="limitline" x1="912" y1="467" x2="913" y2="450" fill="#FFFFFF" stroke="#00FF00" stroke-width="1.00"/>
<line shape-type="limitline" x1="916" y1="467" x2="917" y2="450" fill="#FFFFFF" stroke="#00FF00" stroke-width="1.00"/>
</g>
<line shape-type="limitline" x1="1128" y1="563" x2="1129" y2="502" fill="#FFFFFF" stroke="#00FF00" stroke-width="1.00"/>
<line shape-type="limitline" x1="1104" y1="563" x2="1105" y2="502" fill="#FFFFFF" stroke="#00FF00" stroke-width="1.00"/>
<line shape-type="limitline" x1="1057" y1="563" x2="1058" y2="502" fill="#FFFFFF" stroke="#00FF00" stroke-width="1.00"/>
<line shape-type="limitline" x1="1010" y1="563" x2="1011" y2="502" fill="#FFFFFF" stroke="#00FF00" stroke-width="1.00"/>
<line shape-type="limitline" x1="1149" y1="564" x2="925" y2="564" fill="#FFFFFF" stroke="#00FF00" stroke-width="1.00"/>
<line shape-type="limitline" x1="623" y1="645" x2="1399" y2="645" fill="#FFFFFF" stroke="#00FF00" stroke-width="1.00"/>
<g shape-type="group">
<line shape-type="limitline" x1="1142" y1="510" x2="1143" y2="492" fill="#FFFFFF" stroke="#00FF00" stroke-width="1.00"/>
<line shape-type="limitline" x1="1147" y1="510" x2="1148" y2="492" fill="#FFFFFF" stroke="#00FF00" stroke-width="1.00"/>
</g>
<line shape-type="limitline" x1="990" y1="501" x2="990" y2="461" fill="#FFFFFF" stroke="#00FF00" stroke-width="1.00"/>
<line shape-type="limitline" x1="1142" y1="500" x2="990" y2="500" fill="#FFFFFF" stroke="#00FF00" stroke-width="1.00"/>
<g shape-type="group">
<line shape-type="limitline" x1="919" y1="572" x2="920" y2="555" fill="#FFFFFF" stroke="#00FF00" stroke-width="1.00"/>
<line shape-type="limitline" x1="924" y1="572" x2="925" y2="555" fill="#FFFFFF" stroke="#00FF00" stroke-width="1.00"/>
</g>
<line shape-type="limitline" x1="936" y1="459" x2="936" y2="564" fill="#FFFFFF" stroke="#00FF00" stroke-width="1.00"/>
<line shape-type="limitline" x1="962" y1="458" x2="962" y2="563" fill="#FFFFFF" stroke="#00FF00" stroke-width="1.00"/>
<line shape-type="limitline" x1="1034" y1="564" x2="1034" y2="502" fill="#FFFFFF" stroke="#00FF00" stroke-width="1.00"/>
<line shape-type="limitline" x1="1081" y1="563" x2="1081" y2="502" fill="#FFFFFF" stroke="#00FF00" stroke-width="1.00"/>
<line shape-type="limitline" x1="1149" y1="565" x2="1149" y2="593" fill="#FFFFFF" stroke="#00FF00" stroke-width="1.00"/>
<line shape-type="limitline" x1="1149" y1="594" x2="1394" y2="594" fill="#FFFFFF" stroke="#00FF00" stroke-width="1.00"/>
<line shape-type="limitline" x1="302" y1="155" x2="302" y2="51" fill="#FFFFFF" stroke="#FF0000" stroke-width="1.00"/>
<line shape-type="limitline" x1="372" y1="155" x2="372" y2="51" fill="#FFFFFF" stroke="#FF0000" stroke-width="1.00"/>
<line shape-type="limitline" x1="441" y1="155" x2="441" y2="51" fill="#FFFFFF" stroke="#FF0000" stroke-width="1.00"/>
<line shape-type="limitline" x1="509" y1="155" x2="509" y2="51" fill="#FFFFFF" stroke="#FF0000" stroke-width="1.00"/>
<line shape-type="limitline" x1="302" y1="156" x2="1390" y2="156" fill="#FFFFFF" stroke="#FF0000" stroke-width="1.00"/>
<line shape-type="limitline" x1="178" y1="217" x2="178" y2="39" fill="#FFFFFF" stroke="#00FF00" stroke-width="1.00"/>
<g shape-type="group">
<polygon shape-type="trapezium" points="186,48 170,48 178,59 178,59 186,48" stroke="#FFFFFF" stroke-width="1.00"/>
<rect shape-type="rectangle" x="175" y="26" width="7" height="23" stroke="#FFFFFF" stroke-width="1.00"/>
</g>
<g shape-type="group">
<polygon shape-type="trapezium" points="310,38 294,38 302,50 302,50 310,38" stroke="#FFFFFF" stroke-width="1.00"/>
<rect shape-type="rectangle" x="299" y="16" width="7" height="23" stroke="#FFFFFF" stroke-width="1.00"/>
</g>
<g shape-type="group">
<polygon shape-type="trapezium" points="378,27 364,27 371,16 371,16 378,27" stroke="#FFFFFF" stroke-width="1.00"/>
<rect shape-type="rectangle" x="368" y="26" width="6" height="23" stroke="#FFFFFF" stroke-width="1.00"/>
</g>
<g shape-type="group">
<polygon shape-type="trapezium" points="448,38 432,38 440,49 440,49 448,38" stroke="#FFFFFF" stroke-width="1.00"/>
<rect shape-type="rectangle" x="436" y="16" width="8" height="23" stroke="#FFFFFF" stroke-width="1.00"/>
</g>
<g shape-type="group">
<polygon shape-type="trapezium" points="517,28 501,28 509,17 509,17 517,28" stroke="#FFFFFF" stroke-width="1.00"/>
<rect shape-type="rectangle" x="505" y="27" width="8" height="23" stroke="#FFFFFF" stroke-width="1.00"/>
</g>
<g shape-type="group">
<polygon shape-type="trapezium" points="92,307 92,324 80,316 80,316 92,307" stroke="#FFFFFF" stroke-width="1.00"/>
<rect shape-type="rectangle" x="91" y="313" width="23" height="7" stroke="#FFFFFF" stroke-width="1.00"/>
</g>
<g shape-type="group">
<polygon shape-type="trapezium" points="1409,147 1409,164 1421,156 1421,156 1409,147" stroke="#FFFFFF" stroke-width="1.00"/>
<rect shape-type="rectangle" x="1388" y="152" width="22" height="7" stroke="#FFFFFF" stroke-width="1.00"/>
</g>
<g shape-type="group">
<polygon shape-type="trapezium" points="1409,210 1409,227 1421,219 1421,219 1409,210" stroke="#FFFFFF" stroke-width="1.00"/>
<rect shape-type="rectangle" x="1388" y="216" width="22" height="7" stroke="#FFFFFF" stroke-width="1.00"/>
</g>
<g shape-type="group">
<polygon shape-type="trapezium" points="1398,308 1398,325 1388,317 1388,317 1398,308" stroke="#FFFFFF" stroke-width="1.00"/>
<rect shape-type="rectangle" x="1397" y="314" width="23" height="7" stroke="#FFFFFF" stroke-width="1.00"/>
</g>
<g shape-type="group">
<polygon shape-type="trapezium" points="1399,408 1399,425 1388,417 1388,417 1399,408" stroke="#FFFFFF" stroke-width="1.00"/>
<rect shape-type="rectangle" x="1398" y="414" width="23" height="7" stroke="#FFFFFF" stroke-width="1.00"/>
</g>
<g shape-type="group">
<polygon shape-type="trapezium" points="1414,586 1414,603 1426,595 1426,595 1414,586" stroke="#FFFFFF" stroke-width="1.00"/>
<rect shape-type="rectangle" x="1392" y="592" width="23" height="7" stroke="#FFFFFF" stroke-width="1.00"/>
</g>
<g shape-type="group">
<polygon shape-type="trapezium" points="1415,639 1415,656 1426,648 1426,648 1415,639" stroke="#FFFFFF" stroke-width="1.00"/>
<rect shape-type="rectangle" x="1393" y="644" width="23" height="7" stroke="#FFFFFF" stroke-width="1.00"/>
</g>
<g shape-type="group">
<polygon shape-type="trapezium" points="1414,686 1414,703 1426,695 1426,695 1414,686" stroke="#FFFFFF" stroke-width="1.00"/>
<rect shape-type="rectangle" x="1392" y="692" width="23" height="7" stroke="#FFFFFF" stroke-width="1.00"/>
</g>
<text font-family="宋体" text-anchor="start" fill="#FFFFFF" shape-type="text" id="" font-size="9.500000" writing-mode="tb" glyph-orientation-vertical="0" x="192" y="18">1.0MPa蒸气凝液自再沸器E1106</text>
<text font-family="宋体" text-anchor="start" fill="#FFFFFF" shape-type="text" id="" font-size="9.500000" writing-mode="tb" glyph-orientation-vertical="0" x="317" y="24">1.0MPa蒸气蒸汽自C1101透平</text>
<text font-family="宋体" text-anchor="start" fill="#FFFFFF" shape-type="text" id="" font-size="9.500000" writing-mode="tb" glyph-orientation-vertical="0" x="390" y="24">1.0MPa蒸气去再沸器E1106</text>
<text font-family="宋体" text-anchor="start" fill="#FFFFFF" shape-type="text" id="" font-size="9.500000" writing-mode="tb" glyph-orientation-vertical="0" x="455" y="21">1.0MPa蒸气凝液自C1101透平</text>
<text font-family="宋体" text-anchor="start" fill="#FFFFFF" shape-type="text" id="" font-size="9.500000" writing-mode="tb" glyph-orientation-vertical="0" x="534" y="24">1.0MPa蒸气去脱水脱氢</text>
<text font-family="宋体" text-anchor="start" fill="#FFFFFF" shape-type="text" id="" font-size="12.500000" x="88" y="303">蒸汽去C_1101透平</text>
<text font-family="宋体" text-anchor="start" fill="#FFFFFF" shape-type="text" id="" font-size="12.500000" x="1323" y="144">1.0MPa蒸汽</text>
<text font-family="宋体" text-anchor="start" fill="#FFFFFF" shape-type="text" id="" font-size="12.500000" x="1313" y="206">1.0MPa蒸汽凝液</text>
<text font-family="宋体" text-anchor="start" fill="#FFFFFF" shape-type="text" id="" font-size="12.500000" x="1334" y="307">3.5MPa蒸汽</text>
<text font-family="宋体" text-anchor="start" fill="#FFFFFF" shape-type="text" id="" font-size="12.500000" x="1310" y="406">伴热凝液自管廊</text>
<text font-family="宋体" text-anchor="start" fill="#FFFFFF" shape-type="text" id="" font-size="12.500000" x="1321" y="454">0.5MPa 120</text>
<text font-family="宋体" text-anchor="start" fill="#FFFFFF" shape-type="text" id="" font-size="11.750000" x="1395" y="454">℃ </text>
<text font-family="宋体" text-anchor="start" fill="#FFFFFF" shape-type="text" id="" font-size="12.500000" x="1250" y="584">伴热凝液返回低压凝液总管</text>
<text font-family="宋体" text-anchor="start" fill="#FFFFFF" shape-type="text" id="" font-size="12.500000" x="1245" y="639">伴热凝液返回低压凝液总管</text>
<text font-family="宋体" text-anchor="start" fill="#FFFFFF" shape-type="text" id="" font-size="12.500000" x="1240" y="685">伴热凝液返回低压凝液总管</text>
<text font-family="宋体" text-anchor="start" fill="#FFFFFF" shape-type="text" id="" font-size="12.500000" x="1313" y="616">3591_10_G3_03</text>
<text font-family="宋体" text-anchor="start" fill="#FFFFFF" shape-type="text" id="" font-size="12.500000" x="1309" y="664">3591_10_G3_03</text>
<text font-family="宋体" text-anchor="start" fill="#FFFFFF" shape-type="text" id="" font-size="12.500000" x="1310" y="714">3591_10_G3_03</text>
<a xlink:href="..\丁烯异构化.svg">
<g shape-type="button">
<rect fill="#C0C0C0" stroke-width="0.3" stroke="#FFFFFF" x="1446" y="719" width="68" height="29" shape-type="buttonrect"/>
<text font-family="宋体" text-anchor="middle" dominant-baseline="middle" fill="#000000" font-size="13.500000" x="1480" y="739" shape-type="buttontext">返回</text>
</g>
</a>
<text font-family="宋体" text-anchor="start" fill="#FFFFFF" shape-type="text" id="" font-size="12.500000" x="331" y="512">伴热站</text>
<text font-family="宋体" text-anchor="start" fill="#FFFFFF" shape-type="text" id="" font-size="12.500000" x="329" y="495">框架10-1</text>
<text font-family="宋体" text-anchor="start" fill="#FFFFFF" shape-type="text" id="" font-size="12.500000" x="608" y="511">伴热站</text>
<text font-family="宋体" text-anchor="start" fill="#FFFFFF" shape-type="text" id="" font-size="12.500000" x="606" y="494">框架10-2</text>
<text font-family="宋体" text-anchor="start" fill="#FFFFFF" shape-type="text" id="" font-size="12.500000" x="918" y="515">仪表伴热</text>
<text font-family="宋体" text-anchor="start" fill="#FFFFFF" shape-type="text" id="" font-size="12.500000" x="1037" y="534">仪表伴热</text>
<rect shape-type="rectangle" x="876" y="107" width="75" height="16" fill="#FFFFFF" stroke="#000000" stroke-width="1.00"/>
<rect shape-type="rectangle" x="876" y="122" width="75" height="16" fill="#FFFFFF" stroke="#000000" stroke-width="1.00"/>
<rect shape-type="rectangle" x="991" y="107" width="75" height="16" fill="#FFFFFF" stroke="#000000" stroke-width="1.00"/>
<rect shape-type="rectangle" x="991" y="122" width="75" height="16" fill="#FFFFFF" stroke="#000000" stroke-width="1.00"/>
<rect shape-type="rectangle" x="1106" y="107" width="75" height="16" fill="#FFFFFF" stroke="#000000" stroke-width="1.00"/>
<rect shape-type="rectangle" x="1106" y="122" width="75" height="16" fill="#FFFFFF" stroke="#000000" stroke-width="1.00"/>
<rect shape-type="rectangle" x="883" y="180" width="75" height="16" fill="#FFFFFF" stroke="#000000" stroke-width="1.00"/>
<rect shape-type="rectangle" x="883" y="195" width="75" height="16" fill="#FFFFFF" stroke="#000000" stroke-width="1.00"/>
<rect shape-type="rectangle" x="998" y="180" width="75" height="16" fill="#FFFFFF" stroke="#000000" stroke-width="1.00"/>
<rect shape-type="rectangle" x="998" y="195" width="75" height="16" fill="#FFFFFF" stroke="#000000" stroke-width="1.00"/>
<rect shape-type="rectangle" x="1113" y="180" width="75" height="16" fill="#FFFFFF" stroke="#000000" stroke-width="1.00"/>
<rect shape-type="rectangle" x="1113" y="195" width="75" height="16" fill="#FFFFFF" stroke="#000000" stroke-width="1.00"/>
<rect shape-type="rectangle" x="882" y="274" width="75" height="16" fill="#FFFFFF" stroke="#000000" stroke-width="1.00"/>
<rect shape-type="rectangle" x="882" y="289" width="75" height="16" fill="#FFFFFF" stroke="#000000" stroke-width="1.00"/>
<rect shape-type="rectangle" x="997" y="274" width="75" height="16" fill="#FFFFFF" stroke="#000000" stroke-width="1.00"/>
<rect shape-type="rectangle" x="997" y="289" width="75" height="16" fill="#FFFFFF" stroke="#000000" stroke-width="1.00"/>
<rect shape-type="rectangle" x="1112" y="274" width="75" height="16" fill="#FFFFFF" stroke="#000000" stroke-width="1.00"/>
<rect shape-type="rectangle" x="1112" y="289" width="75" height="16" fill="#FFFFFF" stroke="#000000" stroke-width="1.00"/>
<text font-family="宋体" text-anchor="start" fill="#000000" shape-type="text" id="" font-size="12.500000" x="1163" y="209">℃ </text>
<text font-family="宋体" text-anchor="start" fill="#000000" shape-type="text" id="" font-size="12.500000" x="1158" y="135">℃ </text>
<text font-family="宋体" text-anchor="start" fill="#000000" shape-type="text" id="" font-size="12.500000" x="1165" y="302">℃ </text>
<text font-family="宋体" text-anchor="start" fill="#000000" shape-type="text" id="" font-size="12.500000" x="882" y="119">FI_13004</text>
<text font-family="宋体" text-anchor="start" fill="#000000" shape-type="text" id="" font-size="12.500000" x="889" y="192">FI_13005</text>
<text font-family="宋体" text-anchor="start" fill="#000000" shape-type="text" id="" font-size="12.500000" x="887" y="286">FI_13003</text>
<text font-family="宋体" text-anchor="start" fill="#000000" shape-type="text" id="" font-size="12.500000" x="996" y="119">PI_13004</text>
<text font-family="宋体" text-anchor="start" fill="#000000" shape-type="text" id="" font-size="12.500000" x="1004" y="192">PI_13005</text>
<text font-family="宋体" text-anchor="start" fill="#000000" shape-type="text" id="" font-size="12.500000" x="1002" y="286">PI_13003</text>
<text font-family="宋体" text-anchor="start" fill="#000000" shape-type="text" id="" font-size="12.500000" x="1110" y="119">TI_13004</text>
<text font-family="宋体" text-anchor="start" fill="#000000" shape-type="text" id="" font-size="12.500000" x="1118" y="192">TI_13005</text>
<text font-family="宋体" text-anchor="start" fill="#000000" shape-type="text" id="" font-size="12.500000" x="1116" y="286">TI_13003</text>
<text font-family="宋体" text-anchor="start" fill="#000000" shape-type="text" id="" font-size="12.500000" x="915" y="135">kg/h</text>
<text font-family="宋体" text-anchor="start" fill="#000000" shape-type="text" id="" font-size="12.500000" x="921" y="207">kg/h</text>
<text font-family="宋体" text-anchor="start" fill="#000000" shape-type="text" id="" font-size="12.500000" x="922" y="300">kg/h</text>
<text font-family="宋体" text-anchor="start" fill="#000000" shape-type="text" id="" font-size="12.500000" x="1031" y="135">MPa</text>
<text font-family="宋体" text-anchor="start" fill="#000000" shape-type="text" id="" font-size="12.500000" x="1040" y="208">MPa</text>
<text font-family="宋体" text-anchor="start" fill="#000000" shape-type="text" id="" font-size="12.500000" x="1041" y="302">MPa</text>
<line shape-type="limitline" x1="910" y1="157" x2="910" y2="136" fill="#FFFFFF" stroke="#FFFFFF" stroke-width="1.00" stroke-dasharray="5 10"/>
<line shape-type="limitline" x1="1033" y1="153" x2="1033" y2="139" fill="#FFFFFF" stroke="#FFFFFF" stroke-width="1.00" stroke-dasharray="5 10"/>
<line shape-type="limitline" x1="1147" y1="155" x2="1147" y2="135" fill="#FFFFFF" stroke="#FFFFFF" stroke-width="1.00" stroke-dasharray="5 10"/>
<line shape-type="limitline" x1="919" y1="318" x2="919" y2="302" fill="#FFFFFF" stroke="#FFFFFF" stroke-width="1.00" stroke-dasharray="5 10"/>
<line shape-type="limitline" x1="1034" y1="318" x2="1034" y2="303" fill="#FFFFFF" stroke="#FFFFFF" stroke-width="1.00" stroke-dasharray="5 10"/>
<line shape-type="limitline" x1="1156" y1="318" x2="1156" y2="301" fill="#FFFFFF" stroke="#FFFFFF" stroke-width="1.00" stroke-dasharray="5 10"/>
<line shape-type="limitline" x1="1153" y1="218" x2="1153" y2="209" fill="#FFFFFF" stroke="#FFFFFF" stroke-width="1.00" stroke-dasharray="5 10"/>
<line shape-type="limitline" x1="1029" y1="218" x2="1029" y2="210" fill="#FFFFFF" stroke="#FFFFFF" stroke-width="1.00" stroke-dasharray="5 10"/>
<line shape-type="limitline" x1="921" y1="218" x2="921" y2="210" fill="#FFFFFF" stroke="#FFFFFF" stroke-width="1.00" stroke-dasharray="5 10"/>
<text font-family="宋体" text-anchor="start" fill="#FF8000" shape-type="text" id="" font-size="24.500000" x="670" y="41">蒸气系统</text>
<text font-family="Arial" text-anchor="start" fill="#000000" shape-type="realdata" id="QH_MH_10TI_13003" font-size="12.500000" x="1091" y="301">XXXXXXXXXX</text>
<text font-family="Arial" text-anchor="start" fill="#000000" shape-type="realdata" id="QH_MH_10TI_13005" font-size="12.500000" x="1085" y="208">XXXXXXXXXX</text>
<text font-family="Arial" text-anchor="start" fill="#000000" shape-type="realdata" id="QH_MH_10TI_13004" font-size="12.500000" x="1083" y="135">XXXXXXXXXX</text>
</svg>