<?xml version="1.0"?>
<?xml-stylesheet type='text/javascript'?>
<!--Draw SVG: 2019-11-25 09:41:33 47-Monday-->
<svg xmlns="http://www.w3.org/2000/svg" xmlns:xlink="http://www.w3.org/1999/xlink" version="1.1" style="background-color:#000000" width="1064" height="800" viewbox="0 0 1064 800">
<defs>
<linearGradient x1="0.000000%" y1="50.000000%" x2="100.000000%" y2="50.000000%" id="lgradient26_0">
<stop offset="0" stop-color="#2C2C2C" stop-opacity="1"/>
<stop offset="0.5" stop-color="#FFFFFF" stop-opacity="1"/>
<stop offset="1" stop-color="#2C2C2C" stop-opacity="1"/>
</linearGradient>
<linearGradient x1="0.000000%" y1="50.000000%" x2="100.000000%" y2="50.000000%" id="lgradient26_1">
<stop offset="0" stop-color="#2C2C2C" stop-opacity="1"/>
<stop offset="0.5" stop-color="#FFFFFF" stop-opacity="1"/>
<stop offset="1" stop-color="#2C2C2C" stop-opacity="1"/>
</linearGradient>
<linearGradient x1="0.000000%" y1="50.000000%" x2="100.000000%" y2="50.000000%" id="lgradient26_2">
<stop offset="0" stop-color="#2C2C2C" stop-opacity="1"/>
<stop offset="0.5" stop-color="#FFFFFF" stop-opacity="1"/>
<stop offset="1" stop-color="#2C2C2C" stop-opacity="1"/>
</linearGradient>
<linearGradient x1="0.000000%" y1="50.000000%" x2="100.000000%" y2="50.000000%" id="lgradient27_0">
<stop offset="0" stop-color="#2C2C2C" stop-opacity="1"/>
<stop offset="0.5" stop-color="#FFFFFF" stop-opacity="1"/>
<stop offset="1" stop-color="#2C2C2C" stop-opacity="1"/>
</linearGradient>
<linearGradient x1="0.000000%" y1="50.000000%" x2="100.000000%" y2="50.000000%" id="lgradient27_1">
<stop offset="0" stop-color="#2C2C2C" stop-opacity="1"/>
<stop offset="0.5" stop-color="#FFFFFF" stop-opacity="1"/>
<stop offset="1" stop-color="#2C2C2C" stop-opacity="1"/>
</linearGradient>
<linearGradient x1="0.000000%" y1="50.000000%" x2="100.000000%" y2="50.000000%" id="lgradient28_0">
<stop offset="0" stop-color="#2C2C2C" stop-opacity="1"/>
<stop offset="0.5" stop-color="#FFFFFF" stop-opacity="1"/>
<stop offset="1" stop-color="#2C2C2C" stop-opacity="1"/>
</linearGradient>
<linearGradient x1="0.000000%" y1="50.000000%" x2="100.000000%" y2="50.000000%" id="lgradient28_1">
<stop offset="0" stop-color="#2C2C2C" stop-opacity="1"/>
<stop offset="0.5" stop-color="#FFFFFF" stop-opacity="1"/>
<stop offset="1" stop-color="#2C2C2C" stop-opacity="1"/>
</linearGradient>
<linearGradient x1="0.000000%" y1="50.000000%" x2="100.000000%" y2="50.000000%" id="lgradient29_0">
<stop offset="0" stop-color="#2C2C2C" stop-opacity="1"/>
<stop offset="0.5" stop-color="#FFFFFF" stop-opacity="1"/>
<stop offset="1" stop-color="#2C2C2C" stop-opacity="1"/>
</linearGradient>
<linearGradient x1="0.000000%" y1="50.000000%" x2="100.000000%" y2="50.000000%" id="lgradient29_1">
<stop offset="0" stop-color="#2C2C2C" stop-opacity="1"/>
<stop offset="0.5" stop-color="#FFFFFF" stop-opacity="1"/>
<stop offset="1" stop-color="#2C2C2C" stop-opacity="1"/>
</linearGradient>
<linearGradient x1="50.000000%" y1="0.000000%" x2="50.000000%" y2="100.000000%" id="lgradient29_2">
<stop offset="0" stop-color="#2C2C2C" stop-opacity="1"/>
<stop offset="0.5" stop-color="#FFFFFF" stop-opacity="1"/>
<stop offset="1" stop-color="#2C2C2C" stop-opacity="1"/>
</linearGradient>
<linearGradient x1="0.000000%" y1="50.000000%" x2="100.000000%" y2="50.000000%" id="lgradient30_0">
<stop offset="0" stop-color="#2C2C2C" stop-opacity="1"/>
<stop offset="0.5" stop-color="#FFFFFF" stop-opacity="1"/>
<stop offset="1" stop-color="#2C2C2C" stop-opacity="1"/>
</linearGradient>
<linearGradient x1="0.000000%" y1="50.000000%" x2="100.000000%" y2="50.000000%" id="lgradient30_1">
<stop offset="0" stop-color="#2C2C2C" stop-opacity="1"/>
<stop offset="0.5" stop-color="#FFFFFF" stop-opacity="1"/>
<stop offset="1" stop-color="#2C2C2C" stop-opacity="1"/>
</linearGradient>
<linearGradient x1="50.000000%" y1="0.000000%" x2="50.000000%" y2="100.000000%" id="lgradient30_2">
<stop offset="0" stop-color="#2C2C2C" stop-opacity="1"/>
<stop offset="0.5" stop-color="#FFFFFF" stop-opacity="1"/>
<stop offset="1" stop-color="#2C2C2C" stop-opacity="1"/>
</linearGradient>
<linearGradient x1="0.000000%" y1="50.000000%" x2="100.000000%" y2="50.000000%" id="lgradient31_0">
<stop offset="0" stop-color="#2C2C2C" stop-opacity="1"/>
<stop offset="0.5" stop-color="#FFFFFF" stop-opacity="1"/>
<stop offset="1" stop-color="#2C2C2C" stop-opacity="1"/>
</linearGradient>
<linearGradient x1="0.000000%" y1="50.000000%" x2="100.000000%" y2="50.000000%" id="lgradient31_1">
<stop offset="0" stop-color="#2C2C2C" stop-opacity="1"/>
<stop offset="0.5" stop-color="#FFFFFF" stop-opacity="1"/>
<stop offset="1" stop-color="#2C2C2C" stop-opacity="1"/>
</linearGradient>
<linearGradient x1="50.000000%" y1="0.000000%" x2="50.000000%" y2="100.000000%" id="lgradient31_2">
<stop offset="0" stop-color="#2C2C2C" stop-opacity="1"/>
<stop offset="0.5" stop-color="#FFFFFF" stop-opacity="1"/>
<stop offset="1" stop-color="#2C2C2C" stop-opacity="1"/>
</linearGradient>
<linearGradient x1="0.000000%" y1="50.000000%" x2="100.000000%" y2="50.000000%" id="lgradient32_0">
<stop offset="0" stop-color="#2C2C2C" stop-opacity="1"/>
<stop offset="0.5" stop-color="#FFFFFF" stop-opacity="1"/>
<stop offset="1" stop-color="#2C2C2C" stop-opacity="1"/>
</linearGradient>
<linearGradient x1="0.000000%" y1="50.000000%" x2="100.000000%" y2="50.000000%" id="lgradient32_1">
<stop offset="0" stop-color="#2C2C2C" stop-opacity="1"/>
<stop offset="0.5" stop-color="#FFFFFF" stop-opacity="1"/>
<stop offset="1" stop-color="#2C2C2C" stop-opacity="1"/>
</linearGradient>
<linearGradient x1="50.000000%" y1="0.000000%" x2="50.000000%" y2="100.000000%" id="lgradient32_2">
<stop offset="0" stop-color="#2C2C2C" stop-opacity="1"/>
<stop offset="0.5" stop-color="#FFFFFF" stop-opacity="1"/>
<stop offset="1" stop-color="#2C2C2C" stop-opacity="1"/>
</linearGradient>
<linearGradient x1="0.000000%" y1="50.000000%" x2="100.000000%" y2="50.000000%" id="lgradient33_0">
<stop offset="0" stop-color="#2C2C2C" stop-opacity="1"/>
<stop offset="0.5" stop-color="#FFFFFF" stop-opacity="1"/>
<stop offset="1" stop-color="#2C2C2C" stop-opacity="1"/>
</linearGradient>
<linearGradient x1="0.000000%" y1="50.000000%" x2="100.000000%" y2="50.000000%" id="lgradient33_1">
<stop offset="0" stop-color="#2C2C2C" stop-opacity="1"/>
<stop offset="0.5" stop-color="#FFFFFF" stop-opacity="1"/>
<stop offset="1" stop-color="#2C2C2C" stop-opacity="1"/>
</linearGradient>
<linearGradient x1="50.000000%" y1="0.000000%" x2="50.000000%" y2="100.000000%" id="lgradient33_2">
<stop offset="0" stop-color="#2C2C2C" stop-opacity="1"/>
<stop offset="0.5" stop-color="#FFFFFF" stop-opacity="1"/>
<stop offset="1" stop-color="#2C2C2C" stop-opacity="1"/>
</linearGradient>
<linearGradient x1="0.000000%" y1="50.000000%" x2="100.000000%" y2="50.000000%" id="lgradient34_0">
<stop offset="0" stop-color="#2C2C2C" stop-opacity="1"/>
<stop offset="0.5" stop-color="#FFFFFF" stop-opacity="1"/>
<stop offset="1" stop-color="#2C2C2C" stop-opacity="1"/>
</linearGradient>
<linearGradient x1="0.000000%" y1="50.000000%" x2="100.000000%" y2="50.000000%" id="lgradient34_1">
<stop offset="0" stop-color="#2C2C2C" stop-opacity="1"/>
<stop offset="0.5" stop-color="#FFFFFF" stop-opacity="1"/>
<stop offset="1" stop-color="#2C2C2C" stop-opacity="1"/>
</linearGradient>
<linearGradient x1="50.000000%" y1="0.000000%" x2="50.000000%" y2="100.000000%" id="lgradient34_2">
<stop offset="0" stop-color="#2C2C2C" stop-opacity="1"/>
<stop offset="0.5" stop-color="#FFFFFF" stop-opacity="1"/>
<stop offset="1" stop-color="#2C2C2C" stop-opacity="1"/>
</linearGradient>
<linearGradient x1="0.000000%" y1="50.000000%" x2="100.000000%" y2="50.000000%" id="lgradient35_0">
<stop offset="0" stop-color="#2C2C2C" stop-opacity="1"/>
<stop offset="0.5" stop-color="#FFFFFF" stop-opacity="1"/>
<stop offset="1" stop-color="#2C2C2C" stop-opacity="1"/>
</linearGradient>
<linearGradient x1="0.000000%" y1="50.000000%" x2="100.000000%" y2="50.000000%" id="lgradient35_1">
<stop offset="0" stop-color="#2C2C2C" stop-opacity="1"/>
<stop offset="0.5" stop-color="#FFFFFF" stop-opacity="1"/>
<stop offset="1" stop-color="#2C2C2C" stop-opacity="1"/>
</linearGradient>
<linearGradient x1="50.000000%" y1="0.000000%" x2="50.000000%" y2="100.000000%" id="lgradient35_2">
<stop offset="0" stop-color="#2C2C2C" stop-opacity="1"/>
<stop offset="0.5" stop-color="#FFFFFF" stop-opacity="1"/>
<stop offset="1" stop-color="#2C2C2C" stop-opacity="1"/>
</linearGradient>
<linearGradient x1="0.000000%" y1="50.000000%" x2="100.000000%" y2="50.000000%" id="lgradient35_3">
<stop offset="0" stop-color="#2C2C2C" stop-opacity="1"/>
<stop offset="0.5" stop-color="#FFFFFF" stop-opacity="1"/>
<stop offset="1" stop-color="#2C2C2C" stop-opacity="1"/>
</linearGradient>
<linearGradient x1="0.000000%" y1="50.000000%" x2="100.000000%" y2="50.000000%" id="lgradient36_0">
<stop offset="0" stop-color="#2C2C2C" stop-opacity="1"/>
<stop offset="0.5" stop-color="#FFFFFF" stop-opacity="1"/>
<stop offset="1" stop-color="#2C2C2C" stop-opacity="1"/>
</linearGradient>
<linearGradient x1="0.000000%" y1="50.000000%" x2="100.000000%" y2="50.000000%" id="lgradient36_1">
<stop offset="0" stop-color="#2C2C2C" stop-opacity="1"/>
<stop offset="0.5" stop-color="#FFFFFF" stop-opacity="1"/>
<stop offset="1" stop-color="#2C2C2C" stop-opacity="1"/>
</linearGradient>
<linearGradient x1="50.000000%" y1="0.000000%" x2="50.000000%" y2="100.000000%" id="lgradient36_2">
<stop offset="0" stop-color="#2C2C2C" stop-opacity="1"/>
<stop offset="0.5" stop-color="#FFFFFF" stop-opacity="1"/>
<stop offset="1" stop-color="#2C2C2C" stop-opacity="1"/>
</linearGradient>
<linearGradient x1="0.000000%" y1="50.000000%" x2="100.000000%" y2="50.000000%" id="lgradient36_3">
<stop offset="0" stop-color="#2C2C2C" stop-opacity="1"/>
<stop offset="0.5" stop-color="#FFFFFF" stop-opacity="1"/>
<stop offset="1" stop-color="#2C2C2C" stop-opacity="1"/>
</linearGradient>
<linearGradient x1="50.000000%" y1="0.000000%" x2="50.000000%" y2="100.000000%" id="lgradient39_1">
<stop offset="0" stop-color="#2C2C2C" stop-opacity="1"/>
<stop offset="0.5" stop-color="#FFFFFF" stop-opacity="1"/>
<stop offset="1" stop-color="#2C2C2C" stop-opacity="1"/>
</linearGradient>
<linearGradient x1="50.000000%" y1="0.000000%" x2="50.000000%" y2="100.000000%" id="lgradient39_2">
<stop offset="0" stop-color="#2C2C2C" stop-opacity="1"/>
<stop offset="0.5" stop-color="#FFFFFF" stop-opacity="1"/>
<stop offset="1" stop-color="#2C2C2C" stop-opacity="1"/>
</linearGradient>
<linearGradient x1="50.000000%" y1="0.000000%" x2="50.000000%" y2="100.000000%" id="lgradient40_1">
<stop offset="0" stop-color="#2C2C2C" stop-opacity="1"/>
<stop offset="0.5" stop-color="#FFFFFF" stop-opacity="1"/>
<stop offset="1" stop-color="#2C2C2C" stop-opacity="1"/>
</linearGradient>
<linearGradient x1="50.000000%" y1="0.000000%" x2="50.000000%" y2="100.000000%" id="lgradient40_2">
<stop offset="0" stop-color="#2C2C2C" stop-opacity="1"/>
<stop offset="0.5" stop-color="#FFFFFF" stop-opacity="1"/>
<stop offset="1" stop-color="#2C2C2C" stop-opacity="1"/>
</linearGradient>
<linearGradient x1="50.000000%" y1="0.000000%" x2="50.000000%" y2="100.000000%" id="lgradient41_1">
<stop offset="0" stop-color="#2C2C2C" stop-opacity="1"/>
<stop offset="0.5" stop-color="#FFFFFF" stop-opacity="1"/>
<stop offset="1" stop-color="#2C2C2C" stop-opacity="1"/>
</linearGradient>
<linearGradient x1="50.000000%" y1="0.000000%" x2="50.000000%" y2="100.000000%" id="lgradient41_2">
<stop offset="0" stop-color="#2C2C2C" stop-opacity="1"/>
<stop offset="0.5" stop-color="#FFFFFF" stop-opacity="1"/>
<stop offset="1" stop-color="#2C2C2C" stop-opacity="1"/>
</linearGradient>
<linearGradient x1="50.000000%" y1="0.000000%" x2="50.000000%" y2="100.000000%" id="lgradient42_1">
<stop offset="0" stop-color="#2C2C2C" stop-opacity="1"/>
<stop offset="0.5" stop-color="#FFFFFF" stop-opacity="1"/>
<stop offset="1" stop-color="#2C2C2C" stop-opacity="1"/>
</linearGradient>
<linearGradient x1="50.000000%" y1="0.000000%" x2="50.000000%" y2="100.000000%" id="lgradient42_2">
<stop offset="0" stop-color="#2C2C2C" stop-opacity="1"/>
<stop offset="0.5" stop-color="#FFFFFF" stop-opacity="1"/>
<stop offset="1" stop-color="#2C2C2C" stop-opacity="1"/>
</linearGradient>
</defs>
<line shape-type="line" x1="323" y1="218" x2="154" y2="217" fill="#00FFFF" stroke="#FFFFFF" stroke-width="3.00"/>
<line shape-type="line" x1="155" y1="225" x2="156" y2="218" fill="#00FFFF" stroke="#FFFFFF" stroke-width="3.00"/>
<line shape-type="line" x1="325" y1="228" x2="133" y2="229" fill="#00FFFF" stroke="#FFFFFF" stroke-width="3.00"/>
<line shape-type="line" x1="132" y1="292" x2="133" y2="230" fill="#00FFFF" stroke="#FFFFFF" stroke-width="3.00"/>
<line shape-type="line" x1="222" y1="242" x2="163" y2="241" fill="#00FFFF" stroke="#FFFFFF" stroke-width="3.00"/>
<line shape-type="line" x1="221" y1="293" x2="221" y2="242" fill="#00FFFF" stroke="#FFFFFF" stroke-width="3.00"/>
<line shape-type="line" x1="165" y1="293" x2="164" y2="243" fill="#00FFFF" stroke="#FFFFFF" stroke-width="3.00"/>
<line shape-type="line" x1="242" y1="292" x2="241" y2="240" fill="#00FFFF" stroke="#FFFFFF" stroke-width="3.00"/>
<line shape-type="line" x1="323" y1="239" x2="242" y2="239" fill="#00FFFF" stroke="#FFFFFF" stroke-width="3.00"/>
<line shape-type="line" x1="323" y1="295" x2="323" y2="239" fill="#00FFFF" stroke="#FFFFFF" stroke-width="3.00"/>
<line shape-type="line" x1="327" y1="293" x2="68" y2="294" fill="#00FFFF" stroke="#FFFFFF" stroke-width="3.00"/>
<line shape-type="line" x1="323" y1="242" x2="324" y2="229" fill="#00FFFF" stroke="#FFFFFF" stroke-width="3.00"/>
<line shape-type="line" x1="192" y1="365" x2="192" y2="279" fill="#00FFFF" stroke="#FFFFFF" stroke-width="3.00"/>
<line shape-type="line" x1="280" y1="356" x2="279" y2="279" fill="#00FFFF" stroke="#FFFFFF" stroke-width="3.00"/>
<line shape-type="line" x1="145" y1="454" x2="147" y2="420" fill="#00FFFF" stroke="#FFFFFF" stroke-width="3.00"/>
<line shape-type="line" x1="190" y1="493" x2="189" y2="473" fill="#00FFFF" stroke="#FFFFFF" stroke-width="3.00"/>
<line shape-type="line" x1="322" y1="453" x2="320" y2="424" fill="#00FFFF" stroke="#FFFFFF" stroke-width="3.00"/>
<line shape-type="line" x1="364" y1="489" x2="365" y2="470" fill="#00FFFF" stroke="#FFFFFF" stroke-width="3.00"/>
<line shape-type="line" x1="409" y1="580" x2="409" y2="516" fill="#00FFFF" stroke="#FFFFFF" stroke-width="3.00"/>
<line shape-type="line" x1="955" y1="580" x2="409" y2="580" fill="#00FFFF" stroke="#FFFFFF" stroke-width="3.00"/>
<line shape-type="line" x1="234" y1="650" x2="233" y2="520" fill="#00FFFF" stroke="#FFFFFF" stroke-width="3.00"/>
<line shape-type="line" x1="972" y1="649" x2="234" y2="650" fill="#00FFFF" stroke="#FFFFFF" stroke-width="3.00"/>
<line shape-type="line" x1="576" y1="385" x2="575" y2="261" fill="#00FFFF" stroke="#FFFFFF" stroke-width="3.00"/>
<line shape-type="line" x1="739" y1="389" x2="740" y2="259" fill="#00FFFF" stroke="#FFFFFF" stroke-width="3.00"/>
<line shape-type="line" x1="810" y1="581" x2="810" y2="431" fill="#00FFFF" stroke="#FFFFFF" stroke-width="3.00"/>
<g shape-type="group">
<rect shape-type="rectangle" x="141" y="118" width="187" height="100" fill="url(#lgradient26_0)" stroke-width="2.00"/>
<polygon shape-type="trapezium" points="231,217 141,217 186,289 186,289 231,217" fill="url(#lgradient26_1)" stroke-width="2.00"/>
<polygon shape-type="trapezium" points="328,217 236,217 282,284 282,284 328,217" fill="url(#lgradient26_2)" stroke-width="2.00"/>
</g>
<g shape-type="group">
<rect shape-type="rectangle" x="511" y="159" width="133" height="45" fill="url(#lgradient27_0)" stroke-width="2.00"/>
<polygon shape-type="trapezium" points="644,203 513,203 579,270 579,270 644,203" fill="url(#lgradient27_1)" stroke-width="2.00"/>
</g>
<g shape-type="group">
<rect shape-type="rectangle" x="670" y="164" width="133" height="44" fill="url(#lgradient28_0)" stroke-width="2.00"/>
<polygon shape-type="trapezium" points="803,207 671,207 737,275 737,275 803,207" fill="url(#lgradient28_1)" stroke-width="2.00"/>
</g>
<g shape-type="group">
<rect shape-type="rectangle" x="140" y="400" width="13" height="26" fill="url(#lgradient29_0)" stroke-width="2.00"/>
<rect shape-type="rectangle" x="189" y="355" width="12" height="25" fill="url(#lgradient29_1)" stroke-width="2.00"/>
<rect shape-type="rectangle" x="136" y="367" width="70" height="44" fill="url(#lgradient29_2)" stroke-width="2.00"/>
</g>
<g shape-type="group">
<rect shape-type="rectangle" x="313" y="399" width="13" height="26" fill="url(#lgradient30_0)" stroke-width="2.00"/>
<rect shape-type="rectangle" x="273" y="353" width="12" height="25" fill="url(#lgradient30_1)" stroke-width="2.00"/>
<rect shape-type="rectangle" x="266" y="366" width="70" height="45" fill="url(#lgradient30_2)" stroke-width="2.00"/>
</g>
<g shape-type="group">
<rect shape-type="rectangle" x="180" y="467" width="14" height="15" fill="url(#lgradient31_0)" stroke-width="2.00"/>
<rect shape-type="rectangle" x="141" y="441" width="12" height="13" fill="url(#lgradient31_1)" stroke-width="2.00"/>
<rect shape-type="rectangle" x="133" y="447" width="70" height="27" fill="url(#lgradient31_2)" stroke-width="2.00"/>
</g>
<g shape-type="group">
<rect shape-type="rectangle" x="355" y="465" width="14" height="13" fill="url(#lgradient32_0)" stroke-width="2.00"/>
<rect shape-type="rectangle" x="316" y="442" width="12" height="12" fill="url(#lgradient32_1)" stroke-width="2.00"/>
<rect shape-type="rectangle" x="308" y="448" width="70" height="23" fill="url(#lgradient32_2)" stroke-width="2.00"/>
</g>
<g shape-type="group">
<rect shape-type="rectangle" x="225" y="509" width="14" height="14" fill="url(#lgradient33_0)" stroke-width="2.00"/>
<rect shape-type="rectangle" x="185" y="487" width="13" height="12" fill="url(#lgradient33_1)" stroke-width="2.00"/>
<rect shape-type="rectangle" x="178" y="493" width="70" height="23" fill="url(#lgradient33_2)" stroke-width="2.00"/>
</g>
<g shape-type="group">
<rect shape-type="rectangle" x="400" y="510" width="14" height="14" fill="url(#lgradient34_0)" stroke-width="2.00"/>
<rect shape-type="rectangle" x="360" y="489" width="13" height="11" fill="url(#lgradient34_1)" stroke-width="2.00"/>
<rect shape-type="rectangle" x="353" y="494" width="70" height="23" fill="url(#lgradient34_2)" stroke-width="2.00"/>
</g>
<g shape-type="group">
<rect shape-type="rectangle" x="636" y="409" width="20" height="21" fill="url(#lgradient35_0)" stroke-width="2.00"/>
<rect shape-type="rectangle" x="570" y="385" width="16" height="21" fill="url(#lgradient35_1)" stroke-width="2.00"/>
<rect shape-type="rectangle" x="561" y="393" width="98" height="22" fill="url(#lgradient35_2)" stroke-width="2.00"/>
<rect shape-type="rectangle" x="631" y="428" width="32" height="9" fill="url(#lgradient35_3)" stroke-width="2.00"/>
</g>
<g shape-type="group">
<rect shape-type="rectangle" x="800" y="411" width="20" height="21" fill="url(#lgradient36_0)" stroke-width="2.00"/>
<rect shape-type="rectangle" x="733" y="389" width="17" height="19" fill="url(#lgradient36_1)" stroke-width="2.00"/>
<rect shape-type="rectangle" x="725" y="396" width="98" height="21" fill="url(#lgradient36_2)" stroke-width="2.00"/>
<rect shape-type="rectangle" x="795" y="430" width="31" height="10" fill="url(#lgradient36_3)" stroke-width="2.00"/>
</g>
<rect shape-type="rectangle" x="529" y="395" width="17" height="18" fill="#FF0000" stroke-width="2.00"/>
<rect shape-type="rectangle" x="699" y="396" width="17" height="18" fill="#FF0000" stroke-width="2.00"/>
<g shape-type="group">
<line shape-type="limitline" x1="184" y1="320" x2="194" y2="322" fill="#00FFFF" stroke="#808080" stroke-width="1.00"/>
<polygon shape-type="trapezium" points="198,334 186,334 192,320 192,320 198,334" fill="url(#lgradient39_1)" stroke="#808080" stroke-width="1.00"/>
<polygon shape-type="trapezium" points="198,306 186,306 192,322 192,322 198,306" fill="url(#lgradient39_2)" stroke="#808080" stroke-width="1.00"/>
<path shape-type="chord" d="M 186,305 A 28,18 0 1,0 186,334 z" fill="#808080" stroke="#000000" stroke-width="1.00"/>
</g>
<g shape-type="group">
<line shape-type="limitline" x1="570" y1="326" x2="578" y2="327" fill="#00FFFF" stroke="#808080" stroke-width="1.00"/>
<polygon shape-type="trapezium" points="582,338 572,338 577,326 577,326 582,338" fill="url(#lgradient40_1)" stroke="#808080" stroke-width="1.00"/>
<polygon shape-type="trapezium" points="582,314 572,314 577,327 577,327 582,314" fill="url(#lgradient40_2)" stroke="#808080" stroke-width="1.00"/>
<path shape-type="chord" d="M 571,313 A 28,15 0 1,0 571,337 z" fill="#808080" stroke="#000000" stroke-width="1.00"/>
</g>
<g shape-type="group">
<line shape-type="limitline" x1="280" y1="318" x2="291" y2="319" fill="#00FFFF" stroke="#808080" stroke-width="1.00"/>
<polygon shape-type="trapezium" points="284,329 273,329 279,318 279,318 284,329" fill="url(#lgradient41_1)" stroke="#808080" stroke-width="1.00"/>
<polygon shape-type="trapezium" points="284,304 274,304 279,318 279,318 284,304" fill="url(#lgradient41_2)" stroke="#808080" stroke-width="1.00"/>
<path shape-type="chord" d="M 294,333 A 27,16 0 0,0 291,304 z" fill="#C0C0C0" stroke="#000000" stroke-width="2.00"/>
</g>
<g shape-type="group">
<line shape-type="limitline" x1="740" y1="322" x2="750" y2="323" fill="#00FFFF" stroke="#808080" stroke-width="1.00"/>
<polygon shape-type="trapezium" points="744,333 732,333 738,322 738,322 744,333" fill="url(#lgradient42_1)" stroke="#808080" stroke-width="1.00"/>
<polygon shape-type="trapezium" points="744,308 733,308 739,322 739,322 744,308" fill="url(#lgradient42_2)" stroke="#808080" stroke-width="1.00"/>
<path shape-type="chord" d="M 753,338 A 27,16 0 0,0 750,309 z" fill="#C0C0C0" stroke="#000000" stroke-width="2.00"/>
</g>
<rect shape-type="rectangle" x="602" y="450" width="14" height="12" fill="#FFFFFF" stroke="#FFFFFF" stroke-width="2.00"/>
<rect shape-type="rectangle" x="602" y="425" width="14" height="12" fill="#808080" stroke-width="2.00"/>
<rect shape-type="rectangle" x="602" y="438" width="14" height="12" fill="#808080" stroke-width="2.00"/>
<rect shape-type="rectangle" x="603" y="462" width="14" height="12" fill="#808080" stroke-width="2.00"/>
<rect shape-type="rectangle" x="603" y="486" width="14" height="12" fill="#808080" stroke-width="2.00"/>
<rect shape-type="rectangle" x="604" y="500" width="14" height="12" fill="#808080" stroke-width="2.00"/>
<rect shape-type="rectangle" x="604" y="511" width="14" height="12" fill="#FFFFFF" stroke="#FFFFFF" stroke-width="2.00"/>
<rect shape-type="rectangle" x="604" y="525" width="14" height="12" fill="#808080" stroke-width="2.00"/>
<rect shape-type="rectangle" x="604" y="538" width="14" height="12" fill="#FFFFFF" stroke="#FFFFFF" stroke-width="2.00"/>
<rect shape-type="rectangle" x="604" y="552" width="14" height="12" fill="#808080" stroke-width="2.00"/>
<text font-family="宋体" text-anchor="start" fill="#FFFFFF" shape-type="text" id="" font-size="8.750000" x="526" y="422">W510A</text>
<rect shape-type="rectangle" x="502" y="358" width="51" height="24" fill="none" stroke="#FFFFFF" stroke-width="2.00"/>
<text font-family="宋体" text-anchor="start" fill="#FFFFFF" shape-type="text" id="" font-size="8.750000" x="511" y="368">FYW5101a</text>
<rect shape-type="rectangle" x="673" y="359" width="51" height="24" fill="none" stroke="#FFFFFF" stroke-width="2.00"/>
<text font-family="宋体" text-anchor="start" fill="#FFFFFF" shape-type="text" id="" font-size="8.750000" x="681" y="369">FYW5101B</text>
<text font-family="宋体" text-anchor="start" fill="#FFFFFF" shape-type="text" id="" font-size="8.750000" x="696" y="423">W510B</text>
<text font-family="宋体" text-anchor="start" fill="#FFFFFF" shape-type="text" id="" font-size="8.750000" x="521" y="435">远程控制方式</text>
<text font-family="宋体" text-anchor="start" fill="#FFFFFF" shape-type="text" id="" font-size="8.750000" x="521" y="447">清扫机运行</text>
<text font-family="宋体" text-anchor="start" fill="#FFFFFF" shape-type="text" id="" font-size="8.750000" x="521" y="458">煤流信号</text>
<text font-family="宋体" text-anchor="start" fill="#FFFFFF" shape-type="text" id="" font-size="8.750000" x="523" y="471">累积脉冲信号</text>
<text font-family="宋体" text-anchor="start" fill="#FFFFFF" shape-type="text" id="" font-size="8.750000" x="523" y="495">断链报警</text>
<text font-family="宋体" text-anchor="start" fill="#FFFFFF" shape-type="text" id="" font-size="8.750000" x="524" y="509">超温报警</text>
<text font-family="宋体" text-anchor="start" fill="#FFFFFF" shape-type="text" id="" font-size="8.750000" x="524" y="521">堵煤报警</text>
<text font-family="宋体" text-anchor="start" fill="#FFFFFF" shape-type="text" id="" font-size="8.750000" x="524" y="535">断煤报警</text>
<text font-family="宋体" text-anchor="start" fill="#FFFFFF" shape-type="text" id="" font-size="8.750000" x="526" y="547">变频器故障报警</text>
<text font-family="宋体" text-anchor="start" fill="#FFFFFF" shape-type="text" id="" font-size="8.750000" x="527" y="561">跑偏报警</text>
<rect shape-type="rectangle" x="847" y="508" width="106" height="49" fill="none" stroke="#FFFFFF" stroke-width="2.00"/>
<text font-family="宋体" text-anchor="start" fill="#FFFFFF" shape-type="text" id="" font-size="11.000000" x="862" y="524">FYW5101a</text>
<text font-family="宋体" text-anchor="start" fill="#00FF00" shape-type="text" id="" font-size="8.750000" x="926" y="545">M3/h</text>
<rect shape-type="rectangle" x="846" y="592" width="98" height="40" fill="none" stroke="#FFFFFF" stroke-width="2.00"/>
<text font-family="宋体" text-anchor="start" fill="#FFFFFF" shape-type="text" id="" font-size="11.000000" x="863" y="608">FYW5101b</text>
<text font-family="宋体" text-anchor="start" fill="#00FF00" shape-type="text" id="" font-size="8.750000" x="917" y="626">M3/h</text>
<g shape-type="group">
<rect shape-type="rectangle" x="909" y="564" width="53" height="25" fill="#FFFFFF" stroke="#C0C0C0" stroke-width="1.00"/>
<polygon shape-type="trapezium" points="961,564 961,588 973,576 973,576 961,564" fill="#FFFFFF" stroke-width="1.00"/>
</g>
<g shape-type="group">
<rect shape-type="rectangle" x="908" y="634" width="53" height="26" fill="#FFFFFF" stroke="#C0C0C0" stroke-width="1.00"/>
<polygon shape-type="trapezium" points="960,634 960,659 972,647 972,647 960,634" fill="#FFFFFF" stroke-width="1.00"/>
</g>
<text font-family="宋体" text-anchor="start" fill="#000000" shape-type="text" id="" font-size="8.750000" x="914" y="581">TO X5201A</text>
<text font-family="宋体" text-anchor="start" fill="#000000" shape-type="text" id="" font-size="8.750000" x="910" y="650">TO X5201A</text>
<text font-family="宋体" text-anchor="start" fill="#000000" shape-type="text" id="" font-size="8.750000" x="142" y="392">圆盘给料机</text>
<text font-family="宋体" text-anchor="start" fill="#000000" shape-type="text" id="" font-size="8.750000" x="268" y="390">圆盘给料机</text>
<text font-family="宋体" text-anchor="start" fill="#000000" shape-type="text" id="" font-size="8.750000" x="139" y="461">螺旋输送机</text>
<text font-family="宋体" text-anchor="start" fill="#000000" shape-type="text" id="" font-size="8.750000" x="312" y="463">螺旋输送机</text>
<text font-family="宋体" text-anchor="start" fill="#000000" shape-type="text" id="" font-size="8.750000" x="181" y="508">螺旋输送机</text>
<text font-family="宋体" text-anchor="start" fill="#000000" shape-type="text" id="" font-size="8.750000" x="360" y="509">螺旋输送机</text>
<text font-family="宋体" text-anchor="start" fill="#000000" shape-type="text" id="" font-size="11.000000" x="196" y="164">石灰石粉料仓</text>
<text font-family="宋体" text-anchor="start" fill="#000000" shape-type="text" id="" font-size="11.000000" x="542" y="187">磨煤机前仓</text>
<text font-family="宋体" text-anchor="start" fill="#000000" shape-type="text" id="" font-size="11.000000" x="703" y="190">磨煤机前仓</text>
<text font-family="宋体" text-anchor="start" fill="#000000" shape-type="text" id="" font-size="11.000000" x="534" y="411">M</text>
<text font-family="宋体" text-anchor="start" fill="#000000" shape-type="text" id="" font-size="11.000000" x="705" y="410">M</text>
<line shape-type="line" x1="564" y1="408" x2="545" y2="408" fill="#00FFFF" stroke="#FFFFFF" stroke-width="2.00"/>
<line shape-type="line" x1="726" y1="407" x2="713" y2="407" fill="#00FFFF" stroke="#FFFFFF" stroke-width="2.00"/>
<rect shape-type="rectangle" x="-1" y="1" width="1065" height="38" fill="#636563" stroke="#808080" stroke-width="1.00"/>
<rect shape-type="rectangle" x="279" y="3" width="500" height="33" stroke="#000000" stroke-width="1.00"/>
<a xlink:href="MM_ML.svg">
<g shape-type="button">
<rect fill="#C0C0C0" stroke-width="0.3" stroke="#FFFFFF" x="957" y="3" width="100" height="33" shape-type="buttonrect"/>
<text font-family="宋体" text-anchor="middle" dominant-baseline="middle" fill="#800000" font-size="13.500000" font-weight="bold" x="1007" y="26" shape-type="buttontext">返回上一级</text>
</g>
</a>
<text font-family="宋体" text-anchor="start" fill="#FFFFFF" shape-type="text" id="" font-size="26.750000" font-weight="bold" x="450" y="29">给料系统</text>
<text font-family="Arial" text-anchor="start" fill="#00FFFF" shape-type="realdata" id="HCAB_ZQ_MM_FIW5101a" font-size="12.500000" x="854" y="548">XXXX</text>
<text font-family="Arial" text-anchor="start" fill="#00FFFF" shape-type="realdata" id="HCAB_ZQ_MM_FIW5101b" font-size="12.500000" x="850" y="629">XXXX</text>
</svg>
