<?xml version="1.0" encoding="UTF-8"?>
<svg height="100%" width="100%" viewBox="0 0 64000 32000" version="1.1" xmlns="http://www.w3.org/2000/svg" xmlns:xlink="http://www.w3.org/1999/xlink" xmlns:PB="urn:osisoft-com-pb" xmlns:PBI="urn:osisoft-com-interface" xmlns:PBD="urn:osisoft-com-data" style="background-color:#C0C0C0">
  <title>Graphic7</title>
  <defs>
    <PBD:TagUses tag="\\\">
      <PBI:Symbol name="" PB:Type="12" />
      <PBI:Symbol name="" PB:Type="12" />
      <PBI:Symbol name="BARGRAPH4" PB:Type="12" />
    </PBD:TagUses>
    <PBD:TagUses tag="\\RTDBB\M560_LT_8311">
      <PBI:Symbol name="DATAPOINT53" PB:Type="7" />
    </PBD:TagUses>
    <PBD:TagUses tag="\\RTDBB\M560_LT_8312">
      <PBI:Symbol name="DATAPOINT54" PB:Type="7" />
    </PBD:TagUses>
    <PBD:TagUses tag="\\RTDBB\M560_LT_8313">
      <PBI:Symbol name="DATAPOINT55" PB:Type="7" />
    </PBD:TagUses>
    <PBD:TagUses tag="\\RTDBB\M560_PT_8311">
      <PBI:Symbol name="DATAPOINT56" PB:Type="7" />
    </PBD:TagUses>
    <PBD:TagUses tag="\\RTDBB\M560_FT_8311">
      <PBI:Symbol name="DATAPOINT57" PB:Type="7" />
    </PBD:TagUses>
  </defs>
  <path d="M 61080 3080 l 1260 0" stroke="#000000" stroke-width="40" fill="#000000" />
  <path d="M 61080 3320 l 1260 0" stroke="#000000" stroke-width="40" fill="#000000" />
  <path d="M 62340 2920 l 0 160" stroke="#000000" stroke-width="40" fill="#000000" />
  <path d="M 62340 3320 l 0 220" stroke="#000000" stroke-width="40" fill="#000000" />
  <path d="M 61080 3080 l 0 240" stroke="#000000" stroke-width="40" fill="#000000" />
  <path d="M 62380 2920 l 560 260" stroke="#000000" stroke-width="40" fill="#000000" />
  <path d="M 62380 3540 l 560 -360" stroke="#000000" stroke-width="40" fill="#000000" />
  <path id="POLYGON165" d="M 13500 3200 l 47480 0" stroke="#000000" stroke-width="40" fill="none" />
  <path id="POLYGON156" d="M 16640 8920 l 0 15420" stroke="#000000" stroke-width="40" fill="none" />
  <path id="POLYGON157" d="M 13500 3140 l 0 18860" stroke="#000000" stroke-width="40" fill="none" />
  <g name="PressureBlower">
    <path d="M 3614 8974 l -767 1 0 800 767 0 0 -801 0 0" stroke-width="0" fill="#B4B4B4" />
    <path d="M 3614 8974 l -767 1 0 800 767 0 0 -801" stroke="#000000" stroke-width="20" fill="none" />
    <path d="M 2847 8940 l -18 0 1 870 17 0 0 -870 0 0" stroke-width="0" fill="#CCCCCC" />
    <path d="M 3630 8940 l -16 0 -1 870 17 0 0 -870 0 0" stroke-width="0" fill="#CCCCCC" />
    <path d="M 3246 9378 l 1 285 -61 0 1 -285 59 0 0 0" stroke-width="0" fill="#CCCCCC" />
    <path d="M 2847 8940 l -18 0 1 870 17 0 0 -870" stroke="#000000" stroke-width="20" fill="none" />
    <path d="M 3630 8940 l -16 0 -1 870 17 0 0 -870" stroke="#000000" stroke-width="20" fill="none" />
    <path d="M 3246 9378 l 1 285 -61 0 1 -285 59 0" stroke="#000000" stroke-width="20" fill="none" />
    <path d="M 3218 8307 l 20 -176 -625 0 34 176 -1 241 0 355 0 30 3 28 3 30 6 30 6 28 6 27 11 29 9 26 13 27 12 25 13 26 17 23 16 23 14 24 18 20 21 21 20 18 20 18 22 19 23 17 23 13 23 14 26 15 27 12 24 11 26 8 27 8 30 7 26 5 29 5 29 1 28 1 29 0 30 -2 27 -5 28 -5 27 -7 28 -7 27 -10 26 -10 24 -12 26 -15 23 -13 23 -14 23 -16 22 -19 21 -19 17 -19 21 -21 17 -20 18 -24 15 -22 14 -24 16 -26 10 -24 12 -27 12 -26 8 -28 8 -29 6 -27 7 -31 2 -29 2 -27 0 -30 0 -16 0 -17 0 -13 -2 -17 0 -14 -2 -14 -3 -16 -4 -15 -2 -13 -3 -14 -4 -13 -4 -17 -5 -14 -4 -11 -5 -14 -4 -14 -7 -15 -7 -13 -4 -11 -7 -15 -7 -11 -6 -12 -9 -13 -7 -12 -9 -12 -7 -11 -9 -12 -10 -12 -8 -10 -8 -10 -10 -10 -8 -12 -12 -8 -8 -11 -12 -9 -9 -9 -11 -9 -11 -6 -11 -11 -11 -7 -12 -8 -13 -8 -11 -7 -12 -7 -13 -7 -11 -7 -13 -4 -14 -6 -11 -6 -13 -7 -14 -5 -13 -3 -14 -6 -13 -1 -13 -6 -14 -1 -15 -3 -14 -5 -13 0 -14 -1 -15 -4 -14 0 -15 -2 -14 0 0 0" stroke-width="0" fill="#CCCCCC" />
    <path d="M 3218 8307 l 20 -176 -625 0 34 176 -1 241 0 355 0 0 0 30 3 28 3 30 6 30 6 28 6 27 11 29 9 26 13 27 12 25 13 26 17 23 16 23 14 24 18 20 21 21 20 18 20 18 22 19 23 17 23 13 23 14 26 15 27 12 24 11 26 8 27 8 30 7 26 5 29 5 29 1 28 1 0 0 29 0 30 -2 27 -5 28 -5 27 -7 28 -7 27 -10 26 -10 24 -12 26 -15 23 -13 23 -14 23 -16 22 -19 21 -19 17 -19 21 -21 17 -20 18 -24 15 -22 14 -24 16 -26 10 -24 12 -27 12 -26 8 -28 8 -29 6 -27 7 -31 2 -29 2 -27 0 -30 0 0 0 -16 0 -17 0 -13 -2 -17 0 -14 -2 -14 -3 -16 -4 -15 -2 -13 -3 -14 -4 -13 -4 -17 -5 -14 -4 -11 -5 -14 -4 -14 -7 -15 -7 -13 -4 -11 -7 -15 -7 -11 -6 -12 -9 -13 -7 -12 -9 -12 -7 -11 -9 -12 -10 -12 -8 -10 -8 -10 -10 -10 -8 -12 0 0 -12 -8 -8 -11 -12 -9 -9 -9 -11 -9 -11 -6 -11 -11 -11 -7 -12 -8 -13 -8 -11 -7 -12 -7 -13 -7 -11 -7 -13 -4 -14 -6 -11 -6 -13 -7 -14 -5 -13 -3 -14 -6 -13 -1 -13 -6 -14 -1 -15 -3 -14 -5 -13 0 -14 -1 -15 -4 -14 0 -15 -2 -14 0" stroke="#000000" stroke-width="20" fill="none" />
    <path d="M 2532 8131 l 800 0 0 -61 -800 1 0 60 0 0" stroke-width="0" fill="#B4B4B4" />
    <path d="M 3683 9774 l -907 1 -1 34 908 1 0 -36 0 0" stroke-width="0" fill="#969696" />
    <path d="M 3683 9774 l -907 1 -1 34 908 1 0 -36" stroke="#000000" stroke-width="20" fill="none" />
    <path d="M 2633 8131 l 594 0 0 -61 -594 0 0 61 0 0" stroke-width="0" fill="#CCCCCC" />
    <path d="M 2741 8131 l 384 0 0 -61 -384 0 0 61 0 0" stroke-width="0" fill="#DEDEDE" />
    <path d="M 2881 8131 l 102 0 1 -61 -103 0 0 61 0 0" stroke-width="0" fill="#FFFFFF" />
    <path d="M 2532 8131 l 800 0 0 -61 -800 1 0 60" stroke="#000000" stroke-width="20" fill="none" />
    <path d="M 2726 8903 l -3 -749 402 0 0 243 5 0 6 0 5 0 7 -2 4 0 7 0 3 0 7 -2 4 0 7 0 7 0 7 1 4 -1 7 -3 6 0 7 0 25 3 24 2 25 3 25 4 22 5 24 7 23 9 22 10 20 9 23 12 20 12 20 14 18 13 20 16 18 17 15 16 18 15 14 19 15 22 14 18 12 20 12 23 12 22 9 22 9 25 8 22 7 26 5 23 4 25 2 27 3 25 2 27 -2 26 -3 24 -2 25 -4 26 -5 24 -7 26 -8 22 -9 24 -9 22 -12 21 -11 22 -13 21 -14 21 -15 17 -14 20 -18 15 -15 20 -18 15 -20 14 -19 15 -19 13 -21 12 -22 12 -21 9 -21 8 -23 7 -25 8 -21 6 -25 6 -25 2 -24 1 -25 1 -24 0 -28 -2 -21 -2 -24 -5 -25 -7 -23 -8 -24 -6 -22 -9 -20 -9 -23 -12 -20 -11 -20 -14 -21 -14 -18 -15 -17 -15 -19 -20 -14 -15 -16 -19 -13 -18 -17 -21 -11 -21 -13 -21 -12 -21 -8 -23 -10 -23 -6 -23 -7 -27 -7 -22 -4 -27 -3 -24 -2 -26 0 -25 0 0" stroke-width="0" fill="#DEDEDE" />
    <path d="M 2869 8541 l 0 0 -15 16 -15 21 -16 19 -13 21 -13 21 -13 20 -10 24 -9 23 -9 23 -10 24 -5 25 -6 23 -4 25 -3 26 -2 25 0 26 0 0 0 25 2 26 3 24 4 27 7 22 7 27 6 23 10 23 8 23 12 21 13 21 11 21 17 21 13 18 16 19 14 15 19 20 17 15 18 15 21 14 20 14 20 11 23 12 20 9 22 9 24 6 23 8 25 7 24 5 21 2 28 2 24 0 0 0 25 -1 22 -1 24 -2 23 -6 24 -6 22 -7 23 -8 23 -9 21 -8 22 -12 22 -11 19 -12 21 -14 18 -17 19 -13 16 -19" stroke="#808080" stroke-width="20" fill="none" />
    <path d="M 3246 9378 l 1 -955 -60 0 0 955 59 0 0 0" stroke-width="0" fill="#CCCCCC" />
    <path d="M 3681 8869 l -921 -1 0 65 921 1 0 -65 0 0" stroke-width="0" fill="#CCCCCC" />
    <path d="M 3246 9378 l 1 -955 -60 0 0 955 59 0" stroke="#000000" stroke-width="20" fill="none" />
    <path d="M 3681 8869 l -921 -1 0 65 921 1 0 -65" stroke="#000000" stroke-width="20" fill="none" />
    <path d="M 2874 8903 l 0 36 6 33 9 35 12 33 13 29 18 31 21 26 21 25 26 23 26 20 27 20 32 14 30 11 35 9 31 7 37 0 33 0 36 -8 32 -9 31 -11 31 -14 26 -18 28 -22 25 -23 22 -24 19 -26 17 -31 14 -29 13 -34 9 -34 4 -33 2 -35 -2 -37 -4 -37 -9 -34 -12 -34 -15 -30 -16 -30 -20 -28 -22 -26 -25 -23 -28 -21 -26 -15 -32 -18 -30 -10 -32 -11 -35 -4 -34 -2 -36 2 -32 4 -34 10 -31 11 -31 17 -27 16 -27 21 -26 23 -21 25 -20 28 -18 30 -13 30 -12 35 -10 33 -6 37 0 37 0 0" stroke-width="0" fill="#A3A3A3" />
    <path d="M 2874 8903 l 0 0 0 36 6 33 9 35 12 33 13 29 18 31 21 26 21 25 26 23 26 20 27 20 32 14 30 11 35 9 31 7 37 0 0 0 33 0 36 -8 32 -9 31 -11 31 -14 26 -18 28 -22 25 -23 22 -24 19 -26 17 -31 14 -29 13 -34 9 -34 4 -33 2 -35 0 0 -2 -37 -4 -37 -9 -34 -12 -34 -15 -30 -16 -30 -20 -28 -22 -26 -25 -23 -28 -21 -26 -15 -32 -18 -30 -10 -32 -11 -35 -4 -34 -2 0 0 -36 2 -32 4 -34 10 -31 11 -31 17 -27 16 -27 21 -26 23 -21 25 -20 28 -18 30 -13 30 -12 35 -10 33 -6 37 0 37" stroke="#000000" stroke-width="20" fill="none" />
    <path d="M 2997 8903 l 2 23 2 20 7 22 7 21 10 21 11 18 13 16 14 17 14 15 19 12 18 12 20 9 19 9 20 5 23 3 22 1 22 -1 23 -3 20 -5 20 -9 18 -10 17 -11 19 -12 15 -16 13 -16 14 -17 11 -18 9 -20 7 -21 5 -22 4 -19 0 -24 0 -23 -4 -22 -5 -24 -7 -22 -10 -17 -10 -19 -14 -19 -13 -15 -16 -18 -17 -10 -18 -13 -18 -10 -20 -8 -20 -4 -23 -6 -22 0 -22 1 -23 4 -19 5 -20 7 -20 11 -18 12 -18 11 -15 17 -14 16 -13 19 -11 18 -9 18 -7 21 -8 24 -2 23 -2 23 0 0" stroke-width="0" fill="#666666" />
    <path d="M 2997 8903 l 0 0 2 23 2 20 7 22 7 21 10 21 11 18 13 16 14 17 14 15 19 12 18 12 20 9 19 9 20 5 23 3 22 1 0 0 22 -1 23 -3 20 -5 20 -9 18 -10 17 -11 19 -12 15 -16 13 -16 14 -17 11 -18 9 -20 7 -21 5 -22 4 -19 0 -24 0 0 0 -23 -4 -22 -5 -24 -7 -22 -10 -17 -10 -19 -14 -19 -13 -15 -16 -18 -17 -10 -18 -13 -18 -10 -20 -8 -20 -4 -23 -6 -22 0 0 0 -22 1 -23 4 -19 5 -20 7 -20 11 -18 12 -18 11 -15 17 -14 16 -13 19 -11 18 -9 18 -7 21 -8 24 -2 23 -2 23" stroke="#000000" stroke-width="20" fill="none" />
    <path d="M 3278 9099 l -105 -402 -28 11 102 400 31 -9 0 0" stroke-width="0" fill="#969696" />
    <path d="M 3346 8746 l -283 294 20 20 282 -294 -19 -20 0 0" stroke-width="0" fill="#969696" />
    <path d="M 3413 8941 l -391 -105 -6 32 385 106 12 -33 0 0" stroke-width="0" fill="#969696" />
    <path d="M 3164 8903 l 0 9 5 9 4 11 7 7 7 6 9 4 10 3 12 1 9 -2 9 -3 9 -3 9 -6 4 -7 7 -10 2 -9 0 -10 0 -11 -2 -12 -7 -10 -4 -6 -9 -7 -9 -6 -9 -3 -9 -1 -11 1 -11 2 -9 7 -7 7 -7 7 -4 9 -5 11 0 12 0 0" stroke-width="0" fill="#666666" />
    <path d="M 3164 8903 l 0 0 0 9 5 9 4 11 7 7 7 6 9 4 10 3 12 1 0 0 9 -2 9 -3 9 -3 9 -6 4 -7 7 -10 2 -9 0 -10 0 0 0 -11 -2 -12 -7 -10 -4 -6 -9 -7 -9 -6 -9 -3 -9 -1 0 0 -11 1 -11 2 -9 7 -7 7 -7 7 -4 9 -5 11 0 12" stroke="#000000" stroke-width="20" fill="none" />
    <path d="M 3681 8611 l -27 17 16 28 27 -17 -16 -28" stroke="#808080" stroke-width="20" fill="none" />
    <path d="M 3480 8411 l -18 28 27 20 18 -34 -27 -14" stroke="#808080" stroke-width="20" fill="none" />
    <path d="M 3207 8342 l 0 36 31 -1 0 -34 -31 -1" stroke="#808080" stroke-width="20" fill="none" />
    <path d="M 3200 8200 l 0 -38 -33 -1 0 39 33 0" stroke="#808080" stroke-width="20" fill="none" />
    <path d="M 3502 9381 l -16 -29 -26 18 15 28 27 -17" stroke="#808080" stroke-width="20" fill="none" />
    <path d="M 3697 9171 l -29 -16 -14 27 27 17 16 -28" stroke="#808080" stroke-width="20" fill="none" />
    <path d="M 3762 8890 l -32 -1 0 36 32 0 0 -35" stroke="#808080" stroke-width="20" fill="none" />
    <path d="M 3234 9464 l 0 -31 -29 1 0 30 29 0" stroke="#808080" stroke-width="20" fill="none" />
    <path d="M 2964 9395 l 14 -28 -27 -14 -15 28 28 14" stroke="#808080" stroke-width="20" fill="none" />
    <path d="M 2760 9197 l 27 -19 -13 -27 -32 19 18 27" stroke="#808080" stroke-width="20" fill="none" />
    <path d="M 2680 8920 l 33 -1 0 -35 -34 0 1 36" stroke="#808080" stroke-width="20" fill="none" />
    <path d="M 2689 8161 l -34 0 1 35 32 0 1 -35" stroke="#808080" stroke-width="20" fill="none" />
    <path d="M 2706 8381 l -32 0 0 35 33 0 -1 -35" stroke="#808080" stroke-width="20" fill="none" />
    <path d="M 2707 8613 l -34 0 0 39 33 0 1 -39" stroke="#808080" stroke-width="20" fill="none" />
    <path d="M 3562 9259 l 0 0 18 -19 16 -18 13 -21 14 -18 12 -20 12 -25 12 -20 11 -24 7 -22 8 -23 7 -27 5 -23 4 -25 5 -23 0 -24 2 -24 0 0 -2 -27 -3 -25 -2 -27 -4 -25 -5 -23 -7 -26 -8 -22 -9 -25 -9 -22 -12 -22 -12 -23 -12 -20 -14 -18 -15 -22 -14 -19 -18 -15 -15 -16 -18 -17 -20 -16 -18 -13 -20 -14 -20 -12 -23 -12 -20 -9 -22 -10 -23 -9 -24 -7 -22 -5 -25 -4 -25 -3 -24 -2 -25 -3 0 0 -24 4 -25 -1 -24 4 -22 5 -25 5 -22 7 -25 9 -23 7 -21 11 -20 13 -23 12 -20 13 -18 13 -20 14 -18 17 -19 18" stroke="#FFFFFF" stroke-width="20" fill="none" />
    <path d="M 2969 9520 l 10 -7 8 -12 -7 -14 -11 -4 -14 4 -4 14 4 12 14 7 0 0" stroke-width="0" fill="#595959" />
    <path d="M 2968 9662 l 12 -3 4 -14 -4 -12 -11 -4 -15 4 -3 12 4 14 13 3 0 0" stroke-width="0" fill="#595959" />
  </g>
  <path d="M 12960 6160 l 440 260 -420 280 0 -540 -20 0" stroke="#000000" stroke-width="20" fill="#000000" />
  <path d="M 2940 7960 l 0 -1540" stroke="#000000" stroke-width="40" fill="none" />
  <path d="M 2980 6420 l 10420 0" stroke="#000000" stroke-width="40" fill="none" />
  <path d="M 3760 8920 l 12880 0" stroke="#000000" stroke-width="40" fill="none" />
  <path id="POLYGON158" d="M 12960 11980 l 440 280 -420 260 0 -540 -20 0" stroke="#000000" stroke-width="20" fill="#000000" />
  <path id="LINE158" d="M 2940 13800 l 0 -1540" stroke="#000000" stroke-width="40" fill="none" />
  <path id="LINE164" d="M 2980 12260 l 10420 0" stroke="#000000" stroke-width="40" fill="none" />
  <path id="LINE165" d="M 3760 14760 l 11740 0" stroke="#000000" stroke-width="40" fill="none" />
  <path id="LINE166" d="M 15500 14760 l 0 9360" stroke="#000000" stroke-width="40" fill="none" />
  <path id="POLYGON166" d="M 15240 15220 l 260 -460 260 440 -520 0 0 20" stroke="#000000" stroke-width="20" fill="#000000" />
  <path id="POLYGON168" d="M 16380 9380 l 260 -460 260 440 -520 0 0 20" stroke="#000000" stroke-width="20" fill="#000000" />
  <path d="M 13480 15980 l 420 -440 -420 -420 0 860 0 0" stroke="#000000" stroke-width="40" fill="#000000" />
  <path d="M 13900 15940 l 0 -820" stroke="#000000" stroke-width="40" fill="none" />
  <path id="POLYGON170" d="M 13220 16400 l 260 460 260 -440 -520 0 0 -20" stroke="#000000" stroke-width="20" fill="#000000" />
  <path id="LINE1" d="M 21540 8920 l 0 15420" stroke="#000000" stroke-width="40" fill="none" />
  <path id="LINE2" d="M 24680 3140 l 0 17380" stroke="#000000" stroke-width="40" fill="none" />
  <g name="PressureBlower">
    <path d="M 34566 8975 l 767 0 0 800 -767 0 0 -800 0 0" stroke-width="0" fill="#B4B4B4" />
    <path d="M 34566 8975 l 767 0 0 800 -767 0 0 -800" stroke="#000000" stroke-width="20" fill="none" />
    <path d="M 35333 8940 l 18 0 0 870 -18 0 0 -870 0 0" stroke-width="0" fill="#CCCCCC" />
    <path d="M 34550 8940 l 16 0 0 870 -16 0 0 -870 0 0" stroke-width="0" fill="#CCCCCC" />
    <path d="M 34933 9378 l 0 286 60 0 0 -286 -60 0 0 0" stroke-width="0" fill="#CCCCCC" />
    <path d="M 35333 8940 l 18 0 0 870 -18 0 0 -870" stroke="#000000" stroke-width="20" fill="none" />
    <path d="M 34550 8940 l 16 0 0 870 -16 0 0 -870" stroke="#000000" stroke-width="20" fill="none" />
    <path d="M 34933 9378 l 0 286 60 0 0 -286 -60 0" stroke="#000000" stroke-width="20" fill="none" />
    <path d="M 34962 8307 l -20 -176 626 0 -34 176 0 241 0 355 0 30 -2 28 -4 30 -5 30 -7 28 -6 28 -11 28 -9 27 -12 26 -13 25 -13 26 -16 23 -16 23 -15 24 -18 20 -20 21 -21 19 -20 18 -22 19 -22 16 -23 14 -24 14 -25 14 -27 12 -24 11 -27 9 -27 7 -29 7 -27 5 -29 5 -29 2 -29 0 -29 0 -29 -2 -27 -5 -29 -5 -27 -7 -27 -7 -27 -9 -27 -11 -24 -12 -25 -14 -24 -14 -23 -14 -22 -16 -22 -19 -21 -18 -17 -19 -21 -21 -17 -20 -18 -24 -16 -23 -13 -23 -16 -26 -11 -25 -11 -26 -12 -27 -8 -28 -9 -28 -5 -28 -7 -30 -2 -30 -2 -28 0 -30 0 -16 0 -17 0 -13 2 -17 0 -14 2 -14 3 -16 4 -14 2 -14 3 -14 4 -13 5 -17 4 -14 4 -11 5 -14 4 -14 7 -14 7 -14 4 -11 7 -14 7 -12 6 -12 9 -13 7 -12 9 -12 7 -11 9 -12 9 -11 9 -10 8 -11 9 -10 9 -11 12 -9 8 -10 12 -9 9 -9 11 -10 11 -6 11 -10 11 -7 12 -9 13 -7 11 -7 11 -7 14 -7 11 -7 13 -4 14 -7 11 -5 13 -7 14 -5 13 -4 14 -5 13 -2 13 -5 14 -2 15 -2 14 -5 13 0 14 -2 15 -3 14 0 15 -2 14 0 0 0" stroke-width="0" fill="#CCCCCC" />
    <path d="M 34962 8307 l -20 -176 626 0 -34 176 0 241 0 355 0 0 0 30 -2 28 -4 30 -5 30 -7 28 -6 28 -11 28 -9 27 -12 26 -13 25 -13 26 -16 23 -16 23 -15 24 -18 20 -20 21 -21 19 -20 18 -22 19 -22 16 -23 14 -24 14 -25 14 -27 12 -24 11 -27 9 -27 7 -29 7 -27 5 -29 5 -29 2 -29 0 0 0 -29 0 -29 -2 -27 -5 -29 -5 -27 -7 -27 -7 -27 -9 -27 -11 -24 -12 -25 -14 -24 -14 -23 -14 -22 -16 -22 -19 -21 -18 -17 -19 -21 -21 -17 -20 -18 -24 -16 -23 -13 -23 -16 -26 -11 -25 -11 -26 -12 -27 -8 -28 -9 -28 -5 -28 -7 -30 -2 -30 -2 -28 0 -30 0 0 0 -16 0 -17 0 -13 2 -17 0 -14 2 -14 3 -16 4 -14 2 -14 3 -14 4 -13 5 -17 4 -14 4 -11 5 -14 4 -14 7 -14 7 -14 4 -11 7 -14 7 -12 6 -12 9 -13 7 -12 9 -12 7 -11 9 -12 9 -11 9 -10 8 -11 9 -10 9 -11 0 0 12 -9 8 -10 12 -9 9 -9 11 -10 11 -6 11 -10 11 -7 12 -9 13 -7 11 -7 11 -7 14 -7 11 -7 13 -4 14 -7 11 -5 13 -7 14 -5 13 -4 14 -5 13 -2 13 -5 14 -2 15 -2 14 -5 13 0 14 -2 15 -3 14 0 15 -2 14 0" stroke="#000000" stroke-width="20" fill="none" />
    <path d="M 35648 8131 l -800 0 0 -61 800 0 0 61 0 0" stroke-width="0" fill="#B4B4B4" />
    <path d="M 34497 9775 l 908 0 0 35 -908 0 0 -35 0 0" stroke-width="0" fill="#969696" />
    <path d="M 34497 9775 l 908 0 0 35 -908 0 0 -35" stroke="#000000" stroke-width="20" fill="none" />
    <path d="M 35548 8131 l -595 0 0 -61 595 0 0 61 0 0" stroke-width="0" fill="#CCCCCC" />
    <path d="M 35440 8131 l -384 0 0 -61 384 0 0 61 0 0" stroke-width="0" fill="#DEDEDE" />
    <path d="M 35300 8131 l -103 0 0 -61 103 0 0 61 0 0" stroke-width="0" fill="#FFFFFF" />
    <path d="M 35648 8131 l -800 0 0 -61 800 0 0 61" stroke="#000000" stroke-width="20" fill="none" />
    <path d="M 35454 8903 l 4 -749 -402 0 0 243 -5 0 -6 0 -5 0 -7 -2 -4 0 -7 0 -4 0 -7 -2 -4 0 -7 0 -7 0 -7 0 -4 0 -7 -3 -6 0 -7 0 -25 3 -24 2 -25 2 -25 5 -22 5 -24 7 -23 9 -22 9 -20 9 -23 12 -20 12 -20 14 -18 13 -20 17 -18 16 -15 16 -18 16 -14 19 -15 21 -14 18 -13 21 -11 23 -12 21 -9 23 -9 24 -8 23 -7 25 -5 24 -4 25 -2 26 -3 25 -2 28 2 25 3 26 2 25 4 26 5 23 7 26 8 23 9 23 9 23 12 21 11 21 13 21 14 21 15 18 14 19 18 16 15 19 18 16 20 14 18 14 20 14 20 11 23 12 20 9 22 9 23 7 24 7 22 7 25 5 25 2 24 2 25 0 24 0 27 -2 23 -2 24 -5 25 -7 22 -7 25 -7 22 -9 20 -9 23 -12 20 -11 20 -14 20 -14 18 -14 18 -16 18 -19 15 -16 16 -19 13 -18 16 -21 11 -21 14 -21 11 -21 9 -23 9 -23 6 -23 7 -26 7 -23 4 -26 3 -25 2 -26 0 -25 0 0" stroke-width="0" fill="#DEDEDE" />
    <path d="M 35311 8541 l 0 0 15 16 16 21 16 19 13 21 13 21 12 20 11 24 9 23 9 23 9 23 6 26 5 23 4 25 3 26 2 25 0 26 0 0 0 25 -2 26 -3 25 -4 26 -7 23 -7 26 -6 23 -9 23 -9 23 -11 21 -14 21 -11 21 -16 21 -13 18 -16 19 -15 16 -18 19 -18 16 -18 14 -20 14 -20 14 -20 11 -23 12 -20 9 -22 9 -25 7 -22 7 -25 7 -24 5 -23 2 -27 2 -24 0 0 0 -25 0 -22 -2 -25 -2 -22 -5 -25 -7 -22 -7 -22 -7 -23 -9 -22 -9 -22 -12 -21 -11 -20 -12 -20 -14 -18 -16 -20 -14 -15 -19" stroke="#808080" stroke-width="20" fill="none" />
    <path d="M 34933 9378 l 0 -955 60 0 0 955 -60 0 0 0" stroke-width="0" fill="#CCCCCC" />
    <path d="M 34499 8868 l 921 0 0 65 -921 0 0 -65 0 0" stroke-width="0" fill="#CCCCCC" />
    <path d="M 34933 9378 l 0 -955 60 0 0 955 -60 0" stroke="#000000" stroke-width="20" fill="none" />
    <path d="M 34499 8868 l 921 0 0 65 -921 0 0 -65" stroke="#000000" stroke-width="20" fill="none" />
    <path d="M 35306 8903 l 0 35 -6 34 -9 35 -12 33 -13 30 -18 30 -20 26 -22 25 -25 23 -27 21 -27 19 -31 14 -31 11 -34 9 -33 7 -36 0 -34 0 -35 -7 -32 -9 -31 -11 -31 -14 -27 -19 -27 -21 -25 -23 -22 -25 -20 -26 -16 -30 -15 -30 -12 -33 -9 -35 -4 -34 -2 -35 2 -37 4 -37 9 -33 12 -35 15 -30 16 -30 20 -28 22 -25 25 -23 27 -21 27 -16 31 -17 31 -11 32 -10 35 -4 34 -3 36 3 33 4 34 10 31 11 31 17 27 16 27 21 25 23 22 25 20 28 18 30 13 30 12 35 9 33 6 37 0 37 0 0" stroke-width="0" fill="#A3A3A3" />
    <path d="M 35306 8903 l 0 0 0 35 -6 34 -9 35 -12 33 -13 30 -18 30 -20 26 -22 25 -25 23 -27 21 -27 19 -31 14 -31 11 -34 9 -33 7 -36 0 0 0 -34 0 -35 -7 -32 -9 -31 -11 -31 -14 -27 -19 -27 -21 -25 -23 -22 -25 -20 -26 -16 -30 -15 -30 -12 -33 -9 -35 -4 -34 -2 -35 0 0 2 -37 4 -37 9 -33 12 -35 15 -30 16 -30 20 -28 22 -25 25 -23 27 -21 27 -16 31 -17 31 -11 32 -10 35 -4 34 -3 0 0 36 3 33 4 34 10 31 11 31 17 27 16 27 21 25 23 22 25 20 28 18 30 13 30 12 35 9 33 6 37 0 37" stroke="#000000" stroke-width="20" fill="none" />
    <path d="M 35183 8903 l -2 23 -2 21 -7 21 -7 21 -9 21 -11 18 -13 16 -14 17 -15 16 -18 11 -18 12 -20 9 -20 10 -20 4 -23 3 -22 2 -22 -2 -23 -3 -20 -4 -20 -10 -18 -9 -18 -12 -18 -11 -15 -16 -14 -17 -13 -16 -11 -18 -9 -21 -7 -21 -5 -21 -4 -21 0 -23 0 -23 4 -23 5 -24 7 -21 9 -18 11 -19 13 -18 14 -16 15 -17 18 -11 18 -12 18 -11 20 -7 20 -5 23 -5 22 0 22 0 23 5 20 5 20 7 20 11 18 12 18 11 15 17 14 16 13 18 11 19 9 18 7 21 7 24 2 23 2 23 0 0" stroke-width="0" fill="#666666" />
    <path d="M 35183 8903 l 0 0 -2 23 -2 21 -7 21 -7 21 -9 21 -11 18 -13 16 -14 17 -15 16 -18 11 -18 12 -20 9 -20 10 -20 4 -23 3 -22 2 0 0 -22 -2 -23 -3 -20 -4 -20 -10 -18 -9 -18 -12 -18 -11 -15 -16 -14 -17 -13 -16 -11 -18 -9 -21 -7 -21 -5 -21 -4 -21 0 -23 0 0 0 -23 4 -23 5 -24 7 -21 9 -18 11 -19 13 -18 14 -16 15 -17 18 -11 18 -12 18 -11 20 -7 20 -5 23 -5 22 0 0 0 22 0 23 5 20 5 20 7 20 11 18 12 18 11 15 17 14 16 13 18 11 19 9 18 7 21 7 24 2 23 2 23" stroke="#000000" stroke-width="20" fill="none" />
    <path d="M 34901 9100 l 106 -403 29 11 -103 401 -32 -9 0 0" stroke-width="0" fill="#969696" />
    <path d="M 34834 8745 l 284 295 -20 21 -284 -295 20 -21 0 0" stroke-width="0" fill="#969696" />
    <path d="M 34767 8942 l 392 -106 6 32 -386 107 -12 -33 0 0" stroke-width="0" fill="#969696" />
    <path d="M 35016 8903 l 0 9 -5 9 -4 10 -7 7 -7 7 -9 4 -11 3 -11 2 -9 -2 -9 -3 -9 -4 -9 -7 -4 -7 -7 -10 -2 -9 0 -9 0 -12 2 -11 7 -10 4 -7 9 -6 9 -7 9 -3 9 0 11 0 11 3 9 7 7 6 7 7 4 10 5 11 0 12 0 0" stroke-width="0" fill="#666666" />
    <path d="M 35016 8903 l 0 0 0 9 -5 9 -4 10 -7 7 -7 7 -9 4 -11 3 -11 2 0 0 -9 -2 -9 -3 -9 -4 -9 -7 -4 -7 -7 -10 -2 -9 0 -9 0 0 0 -12 2 -11 7 -10 4 -7 9 -6 9 -7 9 -3 9 0 0 0 11 0 11 3 9 7 7 6 7 7 4 10 5 11 0 12" stroke="#000000" stroke-width="20" fill="none" />
    <path d="M 34499 8611 l 27 16 -16 28 -27 -16 16 -28" stroke="#808080" stroke-width="20" fill="none" />
    <path d="M 34700 8411 l 18 28 -27 19 -18 -33 27 -14" stroke="#808080" stroke-width="20" fill="none" />
    <path d="M 34973 8342 l 0 34 -31 0 0 -34 31 0" stroke="#808080" stroke-width="20" fill="none" />
    <path d="M 34980 8200 l 0 -39 33 0 0 39 -33 0" stroke="#808080" stroke-width="20" fill="none" />
    <path d="M 34678 9381 l 16 -28 26 18 -15 28 -27 -18" stroke="#808080" stroke-width="20" fill="none" />
    <path d="M 34483 9172 l 29 -16 14 27 -27 17 -16 -28" stroke="#808080" stroke-width="20" fill="none" />
    <path d="M 34419 8889 l 31 0 0 35 -31 0 0 -35" stroke="#808080" stroke-width="20" fill="none" />
    <path d="M 34946 9464 l 0 -30 29 0 0 30 -29 0" stroke="#808080" stroke-width="20" fill="none" />
    <path d="M 35217 9395 l -14 -28 27 -14 14 28 -27 14" stroke="#808080" stroke-width="20" fill="none" />
    <path d="M 35420 9197 l -27 -18 14 -28 31 19 -18 27" stroke="#808080" stroke-width="20" fill="none" />
    <path d="M 35501 8919 l -34 0 0 -35 34 0 0 35" stroke="#808080" stroke-width="20" fill="none" />
    <path d="M 35492 8161 l 33 0 0 35 -33 0 0 -35" stroke="#808080" stroke-width="20" fill="none" />
    <path d="M 35474 8381 l 33 0 0 35 -33 0 0 -35" stroke="#808080" stroke-width="20" fill="none" />
    <path d="M 35474 8613 l 33 0 0 39 -33 0 0 -39" stroke="#808080" stroke-width="20" fill="none" />
    <path d="M 34618 9260 l 0 0 -18 -19 -16 -18 -13 -21 -14 -19 -13 -20 -11 -24 -12 -20 -11 -24 -7 -23 -8 -23 -7 -26 -5 -23 -4 -25 -5 -23 0 -26 -2 -23 0 0 2 -28 3 -25 2 -26 4 -25 5 -24 7 -25 8 -23 9 -24 9 -23 12 -21 11 -23 13 -21 14 -18 15 -21 14 -19 18 -16 15 -16 18 -16 20 -17 18 -13 20 -14 20 -12 23 -12 20 -9 22 -9 23 -9 24 -7 22 -5 25 -5 25 -2 24 -2 25 -3 0 0 24 3 25 0 25 4 22 5 25 5 22 7 25 9 22 7 22 11 20 12 23 12 20 14 18 13 20 14 18 17 18 18" stroke="#FFFFFF" stroke-width="20" fill="none" />
    <path d="M 35212 9520 l -11 -7 -7 -12 7 -14 11 -4 14 4 4 14 -4 12 -14 7 0 0" stroke-width="0" fill="#595959" />
    <path d="M 35212 9664 l -11 -5 -4 -14 4 -12 11 -4 14 4 4 12 -4 14 -14 5 0 0" stroke-width="0" fill="#595959" />
  </g>
  <path d="M 25220 6160 l -440 260 420 280 0 -540 20 0" stroke="#000000" stroke-width="20" fill="#000000" />
  <path d="M 35240 7960 l 0 -1540" stroke="#000000" stroke-width="40" fill="none" />
  <path d="M 35220 6420 l -10440 0" stroke="#000000" stroke-width="40" fill="none" />
  <path d="M 34440 8920 l -12900 0" stroke="#000000" stroke-width="40" fill="none" />
  <path id="POLYGON6" d="M 25220 11980 l -440 280 420 260 0 -540 20 0" stroke="#000000" stroke-width="20" fill="#000000" />
  <path id="LINE7" d="M 35240 13800 l 0 -1540" stroke="#000000" stroke-width="40" fill="none" />
  <path id="LINE8" d="M 35220 12260 l -10440 0" stroke="#000000" stroke-width="40" fill="none" />
  <path id="LINE9" d="M 34440 14760 l -11760 0" stroke="#000000" stroke-width="40" fill="none" />
  <path id="LINE10" d="M 22700 14880 l 0 9360" stroke="#000000" stroke-width="40" fill="none" />
  <path id="POLYGON10" d="M 22940 15220 l -260 -460 -260 440 520 0 0 20" stroke="#000000" stroke-width="20" fill="#000000" />
  <path id="POLYGON11" d="M 21800 9380 l -260 -460 -260 440 520 0 0 20" stroke="#000000" stroke-width="20" fill="#000000" />
  <path d="M 21520 15980 l 420 -440 -420 -420 0 860 0 0" stroke="#000000" stroke-width="40" fill="#000000" />
  <path d="M 21940 15940 l 0 -820" stroke="#000000" stroke-width="40" fill="none" />
  <path id="POLYGON13" d="M 24980 16400 l -260 460 -260 -440 520 0 0 -20" stroke="#000000" stroke-width="20" fill="#000000" />
  <g name="PressureBlower">
    <path d="M 3614 14814 l -767 1 0 800 767 0 0 -801 0 0" stroke-width="0" fill="#B4B4B4" />
    <path d="M 3614 14814 l -767 1 0 800 767 0 0 -801" stroke="#000000" stroke-width="20" fill="none" />
    <path d="M 2847 14780 l -18 0 1 870 17 0 0 -870 0 0" stroke-width="0" fill="#CCCCCC" />
    <path d="M 3630 14780 l -16 0 -1 870 17 0 0 -870 0 0" stroke-width="0" fill="#CCCCCC" />
    <path d="M 3246 15218 l 1 285 -61 0 1 -285 59 0 0 0" stroke-width="0" fill="#CCCCCC" />
    <path d="M 2847 14780 l -18 0 1 870 17 0 0 -870" stroke="#000000" stroke-width="20" fill="none" />
    <path d="M 3630 14780 l -16 0 -1 870 17 0 0 -870" stroke="#000000" stroke-width="20" fill="none" />
    <path d="M 3246 15218 l 1 285 -61 0 1 -285 59 0" stroke="#000000" stroke-width="20" fill="none" />
    <path d="M 3218 14147 l 20 -176 -625 0 34 176 -1 241 0 355 0 30 3 28 3 30 6 30 6 28 6 27 11 29 9 26 13 27 12 25 13 26 17 23 16 23 14 24 18 20 21 21 20 18 20 18 22 19 23 17 23 13 23 14 26 15 27 12 24 11 26 8 27 8 30 7 26 5 29 5 29 1 28 1 29 0 30 -2 27 -5 28 -5 27 -7 28 -7 27 -10 26 -10 24 -12 26 -15 23 -13 23 -14 23 -16 22 -19 21 -19 17 -19 21 -21 17 -20 18 -24 15 -22 14 -24 16 -26 10 -24 12 -27 12 -26 8 -28 8 -29 6 -27 7 -31 2 -29 2 -27 0 -30 0 -16 0 -17 0 -13 -2 -17 0 -14 -2 -14 -3 -16 -4 -15 -2 -13 -3 -14 -4 -13 -4 -17 -5 -14 -4 -11 -5 -14 -4 -14 -7 -15 -7 -13 -4 -11 -7 -15 -7 -11 -6 -12 -9 -13 -7 -12 -9 -12 -7 -11 -9 -12 -10 -12 -8 -10 -8 -10 -10 -10 -8 -12 -12 -8 -8 -11 -12 -9 -9 -9 -11 -9 -11 -6 -11 -11 -11 -7 -12 -8 -13 -8 -11 -7 -12 -7 -13 -7 -11 -7 -13 -4 -14 -6 -11 -6 -13 -7 -14 -5 -13 -3 -14 -6 -13 -1 -13 -6 -14 -1 -15 -3 -14 -5 -13 0 -14 -1 -15 -4 -14 0 -15 -2 -14 0 0 0" stroke-width="0" fill="#CCCCCC" />
    <path d="M 3218 14147 l 20 -176 -625 0 34 176 -1 241 0 355 0 0 0 30 3 28 3 30 6 30 6 28 6 27 11 29 9 26 13 27 12 25 13 26 17 23 16 23 14 24 18 20 21 21 20 18 20 18 22 19 23 17 23 13 23 14 26 15 27 12 24 11 26 8 27 8 30 7 26 5 29 5 29 1 28 1 0 0 29 0 30 -2 27 -5 28 -5 27 -7 28 -7 27 -10 26 -10 24 -12 26 -15 23 -13 23 -14 23 -16 22 -19 21 -19 17 -19 21 -21 17 -20 18 -24 15 -22 14 -24 16 -26 10 -24 12 -27 12 -26 8 -28 8 -29 6 -27 7 -31 2 -29 2 -27 0 -30 0 0 0 -16 0 -17 0 -13 -2 -17 0 -14 -2 -14 -3 -16 -4 -15 -2 -13 -3 -14 -4 -13 -4 -17 -5 -14 -4 -11 -5 -14 -4 -14 -7 -15 -7 -13 -4 -11 -7 -15 -7 -11 -6 -12 -9 -13 -7 -12 -9 -12 -7 -11 -9 -12 -10 -12 -8 -10 -8 -10 -10 -10 -8 -12 0 0 -12 -8 -8 -11 -12 -9 -9 -9 -11 -9 -11 -6 -11 -11 -11 -7 -12 -8 -13 -8 -11 -7 -12 -7 -13 -7 -11 -7 -13 -4 -14 -6 -11 -6 -13 -7 -14 -5 -13 -3 -14 -6 -13 -1 -13 -6 -14 -1 -15 -3 -14 -5 -13 0 -14 -1 -15 -4 -14 0 -15 -2 -14 0" stroke="#000000" stroke-width="20" fill="none" />
    <path d="M 2532 13971 l 800 0 0 -61 -800 1 0 60 0 0" stroke-width="0" fill="#B4B4B4" />
    <path d="M 3683 15614 l -907 1 -1 34 908 1 0 -36 0 0" stroke-width="0" fill="#969696" />
    <path d="M 3683 15614 l -907 1 -1 34 908 1 0 -36" stroke="#000000" stroke-width="20" fill="none" />
    <path d="M 2633 13971 l 594 0 0 -61 -594 0 0 61 0 0" stroke-width="0" fill="#CCCCCC" />
    <path d="M 2741 13971 l 384 0 0 -61 -384 0 0 61 0 0" stroke-width="0" fill="#DEDEDE" />
    <path d="M 2881 13971 l 102 0 1 -61 -103 0 0 61 0 0" stroke-width="0" fill="#FFFFFF" />
    <path d="M 2532 13971 l 800 0 0 -61 -800 1 0 60" stroke="#000000" stroke-width="20" fill="none" />
    <path d="M 2726 14743 l -3 -749 402 0 0 243 5 0 6 0 5 0 7 -2 4 0 7 0 3 0 7 -2 4 0 7 0 7 0 7 1 4 -1 7 -3 6 0 7 0 25 3 24 2 25 3 25 4 22 5 24 7 23 9 22 10 20 9 23 12 20 12 20 14 18 13 20 16 18 17 15 16 18 15 14 19 15 22 14 18 12 20 12 23 12 22 9 22 9 25 8 22 7 26 5 23 4 25 2 27 3 25 2 27 -2 26 -3 24 -2 25 -4 26 -5 24 -7 26 -8 22 -9 24 -9 22 -12 21 -11 22 -13 21 -14 21 -15 17 -14 20 -18 15 -15 20 -18 15 -20 14 -19 15 -19 13 -21 12 -22 12 -21 9 -21 8 -23 7 -25 8 -21 6 -25 6 -25 2 -24 1 -25 1 -24 0 -28 -2 -21 -2 -24 -5 -25 -7 -23 -8 -24 -6 -22 -9 -20 -9 -23 -12 -20 -11 -20 -14 -21 -14 -18 -15 -17 -15 -19 -20 -14 -15 -16 -19 -13 -18 -17 -21 -11 -21 -13 -21 -12 -21 -8 -23 -10 -23 -6 -23 -7 -27 -7 -22 -4 -27 -3 -24 -2 -26 0 -25 0 0" stroke-width="0" fill="#DEDEDE" />
    <path d="M 2869 14381 l 0 0 -15 16 -15 21 -16 19 -13 21 -13 21 -13 20 -10 24 -9 23 -9 23 -10 24 -5 25 -6 23 -4 25 -3 26 -2 25 0 26 0 0 0 25 2 26 3 24 4 27 7 22 7 27 6 23 10 23 8 23 12 21 13 21 11 21 17 21 13 18 16 19 14 15 19 20 17 15 18 15 21 14 20 14 20 11 23 12 20 9 22 9 24 6 23 8 25 7 24 5 21 2 28 2 24 0 0 0 25 -1 22 -1 24 -2 23 -6 24 -6 22 -7 23 -8 23 -9 21 -8 22 -12 22 -11 19 -12 21 -14 18 -17 19 -13 16 -19" stroke="#808080" stroke-width="20" fill="none" />
    <path d="M 3246 15218 l 1 -955 -60 0 0 955 59 0 0 0" stroke-width="0" fill="#CCCCCC" />
    <path d="M 3681 14709 l -921 -1 0 65 921 1 0 -65 0 0" stroke-width="0" fill="#CCCCCC" />
    <path d="M 3246 15218 l 1 -955 -60 0 0 955 59 0" stroke="#000000" stroke-width="20" fill="none" />
    <path d="M 3681 14709 l -921 -1 0 65 921 1 0 -65" stroke="#000000" stroke-width="20" fill="none" />
    <path d="M 2874 14743 l 0 36 6 33 9 35 12 33 13 29 18 31 21 26 21 25 26 23 26 20 27 20 32 14 30 11 35 9 31 7 37 0 33 0 36 -8 32 -9 31 -11 31 -14 26 -18 28 -22 25 -23 22 -24 19 -26 17 -31 14 -29 13 -34 9 -34 4 -33 2 -35 -2 -37 -4 -37 -9 -34 -12 -34 -15 -30 -16 -30 -20 -28 -22 -26 -25 -23 -28 -21 -26 -15 -32 -18 -30 -10 -32 -11 -35 -4 -34 -2 -36 2 -32 4 -34 10 -31 11 -31 17 -27 16 -27 21 -26 23 -21 25 -20 28 -18 30 -13 30 -12 35 -10 33 -6 37 0 37 0 0" stroke-width="0" fill="#A3A3A3" />
    <path d="M 2874 14743 l 0 0 0 36 6 33 9 35 12 33 13 29 18 31 21 26 21 25 26 23 26 20 27 20 32 14 30 11 35 9 31 7 37 0 0 0 33 0 36 -8 32 -9 31 -11 31 -14 26 -18 28 -22 25 -23 22 -24 19 -26 17 -31 14 -29 13 -34 9 -34 4 -33 2 -35 0 0 -2 -37 -4 -37 -9 -34 -12 -34 -15 -30 -16 -30 -20 -28 -22 -26 -25 -23 -28 -21 -26 -15 -32 -18 -30 -10 -32 -11 -35 -4 -34 -2 0 0 -36 2 -32 4 -34 10 -31 11 -31 17 -27 16 -27 21 -26 23 -21 25 -20 28 -18 30 -13 30 -12 35 -10 33 -6 37 0 37" stroke="#000000" stroke-width="20" fill="none" />
    <path d="M 2997 14743 l 2 23 2 20 7 22 7 21 10 21 11 18 13 16 14 17 14 15 19 12 18 12 20 9 19 9 20 5 23 3 22 1 22 -1 23 -3 20 -5 20 -9 18 -10 17 -11 19 -12 15 -16 13 -16 14 -17 11 -18 9 -20 7 -21 5 -22 4 -19 0 -24 0 -23 -4 -22 -5 -24 -7 -22 -10 -17 -10 -19 -14 -19 -13 -15 -16 -18 -17 -10 -18 -13 -18 -10 -20 -8 -20 -4 -23 -6 -22 0 -22 1 -23 4 -19 5 -20 7 -20 11 -18 12 -18 11 -15 17 -14 16 -13 19 -11 18 -9 18 -7 21 -8 24 -2 23 -2 23 0 0" stroke-width="0" fill="#666666" />
    <path d="M 2997 14743 l 0 0 2 23 2 20 7 22 7 21 10 21 11 18 13 16 14 17 14 15 19 12 18 12 20 9 19 9 20 5 23 3 22 1 0 0 22 -1 23 -3 20 -5 20 -9 18 -10 17 -11 19 -12 15 -16 13 -16 14 -17 11 -18 9 -20 7 -21 5 -22 4 -19 0 -24 0 0 0 -23 -4 -22 -5 -24 -7 -22 -10 -17 -10 -19 -14 -19 -13 -15 -16 -18 -17 -10 -18 -13 -18 -10 -20 -8 -20 -4 -23 -6 -22 0 0 0 -22 1 -23 4 -19 5 -20 7 -20 11 -18 12 -18 11 -15 17 -14 16 -13 19 -11 18 -9 18 -7 21 -8 24 -2 23 -2 23" stroke="#000000" stroke-width="20" fill="none" />
    <path d="M 3278 14939 l -105 -402 -28 11 102 400 31 -9 0 0" stroke-width="0" fill="#969696" />
    <path d="M 3346 14586 l -283 294 20 20 282 -294 -19 -20 0 0" stroke-width="0" fill="#969696" />
    <path d="M 3413 14781 l -391 -105 -6 32 385 106 12 -33 0 0" stroke-width="0" fill="#969696" />
    <path d="M 3164 14743 l 0 9 5 9 4 11 7 7 7 6 9 4 10 3 12 1 9 -2 9 -3 9 -3 9 -6 4 -7 7 -10 2 -9 0 -10 0 -11 -2 -12 -7 -10 -4 -6 -9 -7 -9 -6 -9 -3 -9 -1 -11 1 -11 2 -9 7 -7 7 -7 7 -4 9 -5 11 0 12 0 0" stroke-width="0" fill="#666666" />
    <path d="M 3164 14743 l 0 0 0 9 5 9 4 11 7 7 7 6 9 4 10 3 12 1 0 0 9 -2 9 -3 9 -3 9 -6 4 -7 7 -10 2 -9 0 -10 0 0 0 -11 -2 -12 -7 -10 -4 -6 -9 -7 -9 -6 -9 -3 -9 -1 0 0 -11 1 -11 2 -9 7 -7 7 -7 7 -4 9 -5 11 0 12" stroke="#000000" stroke-width="20" fill="none" />
    <path d="M 3681 14451 l -27 17 16 28 27 -17 -16 -28" stroke="#808080" stroke-width="20" fill="none" />
    <path d="M 3480 14251 l -18 28 27 20 18 -34 -27 -14" stroke="#808080" stroke-width="20" fill="none" />
    <path d="M 3207 14182 l 0 36 31 -1 0 -34 -31 -1" stroke="#808080" stroke-width="20" fill="none" />
    <path d="M 3200 14040 l 0 -38 -33 -1 0 39 33 0" stroke="#808080" stroke-width="20" fill="none" />
    <path d="M 3502 15221 l -16 -29 -26 18 15 28 27 -17" stroke="#808080" stroke-width="20" fill="none" />
    <path d="M 3697 15011 l -29 -16 -14 27 27 17 16 -28" stroke="#808080" stroke-width="20" fill="none" />
    <path d="M 3762 14730 l -32 -1 0 36 32 0 0 -35" stroke="#808080" stroke-width="20" fill="none" />
    <path d="M 3234 15304 l 0 -31 -29 1 0 30 29 0" stroke="#808080" stroke-width="20" fill="none" />
    <path d="M 2964 15235 l 14 -28 -27 -14 -15 28 28 14" stroke="#808080" stroke-width="20" fill="none" />
    <path d="M 2760 15037 l 27 -19 -13 -27 -32 19 18 27" stroke="#808080" stroke-width="20" fill="none" />
    <path d="M 2680 14760 l 33 -1 0 -35 -34 0 1 36" stroke="#808080" stroke-width="20" fill="none" />
    <path d="M 2689 14001 l -34 0 1 35 32 0 1 -35" stroke="#808080" stroke-width="20" fill="none" />
    <path d="M 2706 14221 l -32 0 0 35 33 0 -1 -35" stroke="#808080" stroke-width="20" fill="none" />
    <path d="M 2707 14453 l -34 0 0 39 33 0 1 -39" stroke="#808080" stroke-width="20" fill="none" />
    <path d="M 3562 15099 l 0 0 18 -19 16 -18 13 -21 14 -18 12 -20 12 -25 12 -20 11 -24 7 -22 8 -23 7 -27 5 -23 4 -25 5 -23 0 -24 2 -24 0 0 -2 -27 -3 -25 -2 -27 -4 -25 -5 -23 -7 -26 -8 -22 -9 -25 -9 -22 -12 -22 -12 -23 -12 -20 -14 -18 -15 -22 -14 -19 -18 -15 -15 -16 -18 -17 -20 -16 -18 -13 -20 -14 -20 -12 -23 -12 -20 -9 -22 -10 -23 -9 -24 -7 -22 -5 -25 -4 -25 -3 -24 -2 -25 -3 0 0 -24 4 -25 -1 -24 4 -22 5 -25 5 -22 7 -25 9 -23 7 -21 11 -20 13 -23 12 -20 13 -18 13 -20 14 -18 17 -19 18" stroke="#FFFFFF" stroke-width="20" fill="none" />
    <path d="M 2969 15360 l 10 -7 8 -12 -7 -14 -11 -4 -14 4 -4 14 4 12 14 7 0 0" stroke-width="0" fill="#595959" />
    <path d="M 2968 15502 l 12 -3 4 -14 -4 -12 -11 -4 -15 4 -3 12 4 14 13 3 0 0" stroke-width="0" fill="#595959" />
  </g>
  <g name="PressureBlower">
    <path d="M 34566 14815 l 767 0 0 800 -767 0 0 -800 0 0" stroke-width="0" fill="#B4B4B4" />
    <path d="M 34566 14815 l 767 0 0 800 -767 0 0 -800" stroke="#000000" stroke-width="20" fill="none" />
    <path d="M 35333 14780 l 18 0 0 870 -18 0 0 -870 0 0" stroke-width="0" fill="#CCCCCC" />
    <path d="M 34550 14780 l 16 0 0 870 -16 0 0 -870 0 0" stroke-width="0" fill="#CCCCCC" />
    <path d="M 34933 15218 l 0 286 60 0 0 -286 -60 0 0 0" stroke-width="0" fill="#CCCCCC" />
    <path d="M 35333 14780 l 18 0 0 870 -18 0 0 -870" stroke="#000000" stroke-width="20" fill="none" />
    <path d="M 34550 14780 l 16 0 0 870 -16 0 0 -870" stroke="#000000" stroke-width="20" fill="none" />
    <path d="M 34933 15218 l 0 286 60 0 0 -286 -60 0" stroke="#000000" stroke-width="20" fill="none" />
    <path d="M 34962 14147 l -20 -176 626 0 -34 176 0 241 0 355 0 30 -2 28 -4 30 -5 30 -7 28 -6 28 -11 28 -9 27 -12 26 -13 25 -13 26 -16 23 -16 23 -15 24 -18 20 -20 21 -21 19 -20 18 -22 19 -22 16 -23 14 -24 14 -25 14 -27 12 -24 11 -27 9 -27 7 -29 7 -27 5 -29 5 -29 2 -29 0 -29 0 -29 -2 -27 -5 -29 -5 -27 -7 -27 -7 -27 -9 -27 -11 -24 -12 -25 -14 -24 -14 -23 -14 -22 -16 -22 -19 -21 -18 -17 -19 -21 -21 -17 -20 -18 -24 -16 -23 -13 -23 -16 -26 -11 -25 -11 -26 -12 -27 -8 -28 -9 -28 -5 -28 -7 -30 -2 -30 -2 -28 0 -30 0 -16 0 -17 0 -13 2 -17 0 -14 2 -14 3 -16 4 -14 2 -14 3 -14 4 -13 5 -17 4 -14 4 -11 5 -14 4 -14 7 -14 7 -14 4 -11 7 -14 7 -12 6 -12 9 -13 7 -12 9 -12 7 -11 9 -12 9 -11 9 -10 8 -11 9 -10 9 -11 12 -9 8 -10 12 -9 9 -9 11 -10 11 -6 11 -10 11 -7 12 -9 13 -7 11 -7 11 -7 14 -7 11 -7 13 -4 14 -7 11 -5 13 -7 14 -5 13 -4 14 -5 13 -2 13 -5 14 -2 15 -2 14 -5 13 0 14 -2 15 -3 14 0 15 -2 14 0 0 0" stroke-width="0" fill="#CCCCCC" />
    <path d="M 34962 14147 l -20 -176 626 0 -34 176 0 241 0 355 0 0 0 30 -2 28 -4 30 -5 30 -7 28 -6 28 -11 28 -9 27 -12 26 -13 25 -13 26 -16 23 -16 23 -15 24 -18 20 -20 21 -21 19 -20 18 -22 19 -22 16 -23 14 -24 14 -25 14 -27 12 -24 11 -27 9 -27 7 -29 7 -27 5 -29 5 -29 2 -29 0 0 0 -29 0 -29 -2 -27 -5 -29 -5 -27 -7 -27 -7 -27 -9 -27 -11 -24 -12 -25 -14 -24 -14 -23 -14 -22 -16 -22 -19 -21 -18 -17 -19 -21 -21 -17 -20 -18 -24 -16 -23 -13 -23 -16 -26 -11 -25 -11 -26 -12 -27 -8 -28 -9 -28 -5 -28 -7 -30 -2 -30 -2 -28 0 -30 0 0 0 -16 0 -17 0 -13 2 -17 0 -14 2 -14 3 -16 4 -14 2 -14 3 -14 4 -13 5 -17 4 -14 4 -11 5 -14 4 -14 7 -14 7 -14 4 -11 7 -14 7 -12 6 -12 9 -13 7 -12 9 -12 7 -11 9 -12 9 -11 9 -10 8 -11 9 -10 9 -11 0 0 12 -9 8 -10 12 -9 9 -9 11 -10 11 -6 11 -10 11 -7 12 -9 13 -7 11 -7 11 -7 14 -7 11 -7 13 -4 14 -7 11 -5 13 -7 14 -5 13 -4 14 -5 13 -2 13 -5 14 -2 15 -2 14 -5 13 0 14 -2 15 -3 14 0 15 -2 14 0" stroke="#000000" stroke-width="20" fill="none" />
    <path d="M 35648 13971 l -800 0 0 -61 800 0 0 61 0 0" stroke-width="0" fill="#B4B4B4" />
    <path d="M 34497 15615 l 908 0 0 35 -908 0 0 -35 0 0" stroke-width="0" fill="#969696" />
    <path d="M 34497 15615 l 908 0 0 35 -908 0 0 -35" stroke="#000000" stroke-width="20" fill="none" />
    <path d="M 35548 13971 l -595 0 0 -61 595 0 0 61 0 0" stroke-width="0" fill="#CCCCCC" />
    <path d="M 35440 13971 l -384 0 0 -61 384 0 0 61 0 0" stroke-width="0" fill="#DEDEDE" />
    <path d="M 35300 13971 l -103 0 0 -61 103 0 0 61 0 0" stroke-width="0" fill="#FFFFFF" />
    <path d="M 35648 13971 l -800 0 0 -61 800 0 0 61" stroke="#000000" stroke-width="20" fill="none" />
    <path d="M 35454 14743 l 4 -749 -402 0 0 243 -5 0 -6 0 -5 0 -7 -2 -4 0 -7 0 -4 0 -7 -2 -4 0 -7 0 -7 0 -7 0 -4 0 -7 -3 -6 0 -7 0 -25 3 -24 2 -25 2 -25 5 -22 5 -24 7 -23 9 -22 9 -20 9 -23 12 -20 12 -20 14 -18 13 -20 17 -18 16 -15 16 -18 16 -14 19 -15 21 -14 18 -13 21 -11 23 -12 21 -9 23 -9 24 -8 23 -7 25 -5 24 -4 25 -2 26 -3 25 -2 28 2 25 3 26 2 25 4 26 5 23 7 26 8 23 9 23 9 23 12 21 11 21 13 21 14 21 15 18 14 19 18 16 15 19 18 16 20 14 18 14 20 14 20 11 23 12 20 9 22 9 23 7 24 7 22 7 25 5 25 2 24 2 25 0 24 0 27 -2 23 -2 24 -5 25 -7 22 -7 25 -7 22 -9 20 -9 23 -12 20 -11 20 -14 20 -14 18 -14 18 -16 18 -19 15 -16 16 -19 13 -18 16 -21 11 -21 14 -21 11 -21 9 -23 9 -23 6 -23 7 -26 7 -23 4 -26 3 -25 2 -26 0 -25 0 0" stroke-width="0" fill="#DEDEDE" />
    <path d="M 35311 14381 l 0 0 15 16 16 21 16 19 13 21 13 21 12 20 11 24 9 23 9 23 9 23 6 26 5 23 4 25 3 26 2 25 0 26 0 0 0 25 -2 26 -3 25 -4 26 -7 23 -7 26 -6 23 -9 23 -9 23 -11 21 -14 21 -11 21 -16 21 -13 18 -16 19 -15 16 -18 19 -18 16 -18 14 -20 14 -20 14 -20 11 -23 12 -20 9 -22 9 -25 7 -22 7 -25 7 -24 5 -23 2 -27 2 -24 0 0 0 -25 0 -22 -2 -25 -2 -22 -5 -25 -7 -22 -7 -22 -7 -23 -9 -22 -9 -22 -12 -21 -11 -20 -12 -20 -14 -18 -16 -20 -14 -15 -19" stroke="#808080" stroke-width="20" fill="none" />
    <path d="M 34933 15218 l 0 -955 60 0 0 955 -60 0 0 0" stroke-width="0" fill="#CCCCCC" />
    <path d="M 34499 14708 l 921 0 0 65 -921 0 0 -65 0 0" stroke-width="0" fill="#CCCCCC" />
    <path d="M 34933 15218 l 0 -955 60 0 0 955 -60 0" stroke="#000000" stroke-width="20" fill="none" />
    <path d="M 34499 14708 l 921 0 0 65 -921 0 0 -65" stroke="#000000" stroke-width="20" fill="none" />
    <path d="M 35306 14743 l 0 35 -6 34 -9 35 -12 33 -13 30 -18 30 -20 26 -22 25 -25 23 -27 21 -27 19 -31 14 -31 11 -34 9 -33 7 -36 0 -34 0 -35 -7 -32 -9 -31 -11 -31 -14 -27 -19 -27 -21 -25 -23 -22 -25 -20 -26 -16 -30 -15 -30 -12 -33 -9 -35 -4 -34 -2 -35 2 -37 4 -37 9 -33 12 -35 15 -30 16 -30 20 -28 22 -25 25 -23 27 -21 27 -16 31 -17 31 -11 32 -10 35 -4 34 -3 36 3 33 4 34 10 31 11 31 17 27 16 27 21 25 23 22 25 20 28 18 30 13 30 12 35 9 33 6 37 0 37 0 0" stroke-width="0" fill="#A3A3A3" />
    <path d="M 35306 14743 l 0 0 0 35 -6 34 -9 35 -12 33 -13 30 -18 30 -20 26 -22 25 -25 23 -27 21 -27 19 -31 14 -31 11 -34 9 -33 7 -36 0 0 0 -34 0 -35 -7 -32 -9 -31 -11 -31 -14 -27 -19 -27 -21 -25 -23 -22 -25 -20 -26 -16 -30 -15 -30 -12 -33 -9 -35 -4 -34 -2 -35 0 0 2 -37 4 -37 9 -33 12 -35 15 -30 16 -30 20 -28 22 -25 25 -23 27 -21 27 -16 31 -17 31 -11 32 -10 35 -4 34 -3 0 0 36 3 33 4 34 10 31 11 31 17 27 16 27 21 25 23 22 25 20 28 18 30 13 30 12 35 9 33 6 37 0 37" stroke="#000000" stroke-width="20" fill="none" />
    <path d="M 35183 14743 l -2 23 -2 21 -7 21 -7 21 -9 21 -11 18 -13 16 -14 17 -15 16 -18 11 -18 12 -20 9 -20 10 -20 4 -23 3 -22 2 -22 -2 -23 -3 -20 -4 -20 -10 -18 -9 -18 -12 -18 -11 -15 -16 -14 -17 -13 -16 -11 -18 -9 -21 -7 -21 -5 -21 -4 -21 0 -23 0 -23 4 -23 5 -24 7 -21 9 -18 11 -19 13 -18 14 -16 15 -17 18 -11 18 -12 18 -11 20 -7 20 -5 23 -5 22 0 22 0 23 5 20 5 20 7 20 11 18 12 18 11 15 17 14 16 13 18 11 19 9 18 7 21 7 24 2 23 2 23 0 0" stroke-width="0" fill="#666666" />
    <path d="M 35183 14743 l 0 0 -2 23 -2 21 -7 21 -7 21 -9 21 -11 18 -13 16 -14 17 -15 16 -18 11 -18 12 -20 9 -20 10 -20 4 -23 3 -22 2 0 0 -22 -2 -23 -3 -20 -4 -20 -10 -18 -9 -18 -12 -18 -11 -15 -16 -14 -17 -13 -16 -11 -18 -9 -21 -7 -21 -5 -21 -4 -21 0 -23 0 0 0 -23 4 -23 5 -24 7 -21 9 -18 11 -19 13 -18 14 -16 15 -17 18 -11 18 -12 18 -11 20 -7 20 -5 23 -5 22 0 0 0 22 0 23 5 20 5 20 7 20 11 18 12 18 11 15 17 14 16 13 18 11 19 9 18 7 21 7 24 2 23 2 23" stroke="#000000" stroke-width="20" fill="none" />
    <path d="M 34901 14940 l 106 -403 29 11 -103 401 -32 -9 0 0" stroke-width="0" fill="#969696" />
    <path d="M 34834 14585 l 284 295 -20 21 -284 -295 20 -21 0 0" stroke-width="0" fill="#969696" />
    <path d="M 34767 14782 l 392 -106 6 32 -386 107 -12 -33 0 0" stroke-width="0" fill="#969696" />
    <path d="M 35016 14743 l 0 9 -5 9 -4 10 -7 7 -7 7 -9 4 -11 3 -11 2 -9 -2 -9 -3 -9 -4 -9 -7 -4 -7 -7 -10 -2 -9 0 -9 0 -12 2 -11 7 -10 4 -7 9 -6 9 -7 9 -3 9 0 11 0 11 3 9 7 7 6 7 7 4 10 5 11 0 12 0 0" stroke-width="0" fill="#666666" />
    <path d="M 35016 14743 l 0 0 0 9 -5 9 -4 10 -7 7 -7 7 -9 4 -11 3 -11 2 0 0 -9 -2 -9 -3 -9 -4 -9 -7 -4 -7 -7 -10 -2 -9 0 -9 0 0 0 -12 2 -11 7 -10 4 -7 9 -6 9 -7 9 -3 9 0 0 0 11 0 11 3 9 7 7 6 7 7 4 10 5 11 0 12" stroke="#000000" stroke-width="20" fill="none" />
    <path d="M 34499 14451 l 27 16 -16 28 -27 -16 16 -28" stroke="#808080" stroke-width="20" fill="none" />
    <path d="M 34700 14251 l 18 28 -27 19 -18 -33 27 -14" stroke="#808080" stroke-width="20" fill="none" />
    <path d="M 34973 14182 l 0 34 -31 0 0 -34 31 0" stroke="#808080" stroke-width="20" fill="none" />
    <path d="M 34980 14040 l 0 -39 33 0 0 39 -33 0" stroke="#808080" stroke-width="20" fill="none" />
    <path d="M 34678 15221 l 16 -28 26 18 -15 28 -27 -18" stroke="#808080" stroke-width="20" fill="none" />
    <path d="M 34483 15012 l 29 -16 14 27 -27 17 -16 -28" stroke="#808080" stroke-width="20" fill="none" />
    <path d="M 34419 14729 l 31 0 0 35 -31 0 0 -35" stroke="#808080" stroke-width="20" fill="none" />
    <path d="M 34946 15304 l 0 -30 29 0 0 30 -29 0" stroke="#808080" stroke-width="20" fill="none" />
    <path d="M 35217 15235 l -14 -28 27 -14 14 28 -27 14" stroke="#808080" stroke-width="20" fill="none" />
    <path d="M 35420 15037 l -27 -18 14 -28 31 19 -18 27" stroke="#808080" stroke-width="20" fill="none" />
    <path d="M 35501 14759 l -34 0 0 -35 34 0 0 35" stroke="#808080" stroke-width="20" fill="none" />
    <path d="M 35492 14001 l 33 0 0 35 -33 0 0 -35" stroke="#808080" stroke-width="20" fill="none" />
    <path d="M 35474 14221 l 33 0 0 35 -33 0 0 -35" stroke="#808080" stroke-width="20" fill="none" />
    <path d="M 35474 14453 l 33 0 0 39 -33 0 0 -39" stroke="#808080" stroke-width="20" fill="none" />
    <path d="M 34618 15100 l 0 0 -18 -19 -16 -18 -13 -21 -14 -19 -13 -20 -11 -24 -12 -20 -11 -24 -7 -23 -8 -23 -7 -26 -5 -23 -4 -25 -5 -23 0 -26 -2 -23 0 0 2 -28 3 -25 2 -26 4 -25 5 -24 7 -25 8 -23 9 -24 9 -23 12 -21 11 -23 13 -21 14 -18 15 -21 14 -19 18 -16 15 -16 18 -16 20 -17 18 -13 20 -14 20 -12 23 -12 20 -9 22 -9 23 -9 24 -7 22 -5 25 -5 25 -2 24 -2 25 -3 0 0 24 3 25 0 25 4 22 5 25 5 22 7 25 9 22 7 22 11 20 12 23 12 20 14 18 13 20 14 18 17 18 18" stroke="#FFFFFF" stroke-width="20" fill="none" />
    <path d="M 35212 15360 l -11 -7 -7 -12 7 -14 11 -4 14 4 4 14 -4 12 -14 7 0 0" stroke-width="0" fill="#595959" />
    <path d="M 35212 15504 l -11 -5 -4 -14 4 -12 11 -4 14 4 4 12 -4 14 -14 5 0 0" stroke-width="0" fill="#595959" />
  </g>
  <path id="RECTANGLE3" d="M 10540 27560 l 580 0 0 -8920 -580 0 0 8920 0 0" stroke="#000000" stroke-width="20" fill="none" />
  <rect x="11120" y="26980" width="12740" height="580" stroke="#000000" stroke-width="20" fill="none" id="RECTANGLE5" />
  <path id="RECTANGLE6" d="M 23840 27560 l 560 0 0 -1540 -560 0 0 1540 0 0" stroke="#000000" stroke-width="20" fill="none" />
  <path id="RECTANGLE8" d="M 25960 26600 l 0 -580 -1560 0 0 580 1560 0 0 0" stroke="#000000" stroke-width="20" fill="none" />
  <path id="RECTANGLE9" d="M 25960 26600 l 560 0 0 -7980 -560 0 0 7980 0 0" stroke="#000000" stroke-width="20" fill="none" />
  <path id="POLYGON151" d="M 25960 26040 l 0 560" stroke="#C0C0C0" stroke-width="20" fill="none" />
  <path id="LINE152" d="M 17480 26940 l 0 580" stroke="#C0C0C0" stroke-width="20" fill="none" />
  <path id="LINE153" d="M 24420 26060 l 0 580" stroke="#C0C0C0" stroke-width="40" fill="none" />
  <path id="LINE156" d="M 11120 26920 l 0 580" stroke="#C0C0C0" stroke-width="20" fill="none" />
  <rect x="9440" y="18080" width="19340" height="580" stroke="#000000" stroke-width="20" fill="#C0C0C0" id="RECTANGLE1" />
  <path id="LINE13" d="M 23860 26960 l 0 560" stroke="#C0C0C0" stroke-width="40" fill="none" />
  <g id="" PB:IsMultiState="False" PB:Lower="0" PB:Orientation="0" PB:CanonicalNumberFormat="General" PBD:PtTagName="\\\" PB:Start="0" PB:Upper="100" PB:Type="12">
    <rect x="18000" y="18960" width="1060" height="7740" stroke-width="0" fill="#C0C0C0" id="_pbBarBoundingRectEl" />
    <rect x="18000" y="18960" width="1060" height="7740" stroke-width="0" fill="#0000FF" id="_pbBarTagRectEl" stroke="none" PBD:Property="" />
  </g>
  <g id="" PB:IsMultiState="False" PB:Lower="0" PB:Orientation="0" PB:CanonicalNumberFormat="General" PBD:PtTagName="\\\" PB:Start="0" PB:Upper="100" PB:Type="12">
    <rect x="19140" y="18960" width="1060" height="7740" stroke-width="0" fill="#C0C0C0" id="_pbBarBoundingRectEl" />
    <rect x="19140" y="18960" width="1060" height="7740" stroke-width="0" fill="#0000FF" id="_pbBarTagRectEl" stroke="none" PBD:Property="" />
  </g>
  <path id="POLYGON14" d="M 58320 27520 l -560 0 0 -8820 560 0 0 8820 0 0" stroke="#000000" stroke-width="20" fill="none" />
  <rect x="44980" y="26940" width="12740" height="580" stroke="#000000" stroke-width="20" fill="none" id="RECTANGLE2" />
  <path id="POLYGON16" d="M 44960 27560 l -560 0 0 -1540 560 0 0 1540 0 0" stroke="#000000" stroke-width="20" fill="none" />
  <path id="POLYGON17" d="M 42840 26600 l 0 -580 1560 0 0 580 -1560 0 0 0" stroke="#000000" stroke-width="20" fill="none" />
  <path id="POLYGON18" d="M 42840 26600 l -560 0 0 -7980 560 0 0 7980 0 0" stroke="#000000" stroke-width="20" fill="none" />
  <path id="LINE19" d="M 42840 26040 l 0 560" stroke="#C0C0C0" stroke-width="20" fill="none" />
  <path id="LINE20" d="M 51320 26940 l 0 580" stroke="#C0C0C0" stroke-width="20" fill="none" />
  <path id="LINE21" d="M 44380 26040 l 0 580" stroke="#C0C0C0" stroke-width="60" fill="none" />
  <path id="LINE23" d="M 57740 26940 l 0 580" stroke="#C0C0C0" stroke-width="20" fill="none" />
  <rect x="40020" y="18120" width="19340" height="580" stroke="#000000" stroke-width="20" fill="#C0C0C0" id="RECTANGLE4" />
  <path d="M 61100 5640 l 1260 0" stroke="#000000" stroke-width="40" fill="#000000" />
  <path d="M 61100 5880 l 1260 0" stroke="#000000" stroke-width="40" fill="#000000" />
  <path d="M 62360 5500 l 0 140" stroke="#000000" stroke-width="40" fill="#000000" />
  <path d="M 62360 5880 l 0 220" stroke="#000000" stroke-width="40" fill="#000000" />
  <path d="M 61100 5640 l 0 240" stroke="#000000" stroke-width="40" fill="#000000" />
  <path d="M 62400 5500 l 580 240" stroke="#000000" stroke-width="40" fill="#000000" />
  <path d="M 62400 6100 l 580 -360" stroke="#000000" stroke-width="40" fill="#000000" />
  <path id="POLYGON33" d="M 46140 5820 l 15080 0" stroke="#000000" stroke-width="40" fill="none" />
  <path id="LINE25" d="M 48460 15140 l 0 9380" stroke="#000000" stroke-width="40" fill="none" />
  <path id="POLYGON25" d="M 48200 15600 l 260 -460 260 440 -520 0 0 20" stroke="#000000" stroke-width="20" fill="#000000" />
  <path id="POLYGON26" d="M 48400 15040 l -1380 0" stroke="#000000" stroke-width="40" fill="none" />
  <g name="PressureBlower">
    <path d="M 46814 14974 l -767 1 0 800 767 0 0 -801 0 0" stroke-width="0" fill="#B4B4B4" />
    <path d="M 46814 14974 l -767 1 0 800 767 0 0 -801" stroke="#000000" stroke-width="20" fill="none" />
    <path d="M 46047 14940 l -18 0 1 870 17 0 0 -870 0 0" stroke-width="0" fill="#CCCCCC" />
    <path d="M 46830 14940 l -16 0 -1 870 17 0 0 -870 0 0" stroke-width="0" fill="#CCCCCC" />
    <path d="M 46446 15378 l 1 285 -61 0 1 -285 59 0 0 0" stroke-width="0" fill="#CCCCCC" />
    <path d="M 46047 14940 l -18 0 1 870 17 0 0 -870" stroke="#000000" stroke-width="20" fill="none" />
    <path d="M 46830 14940 l -16 0 -1 870 17 0 0 -870" stroke="#000000" stroke-width="20" fill="none" />
    <path d="M 46446 15378 l 1 285 -61 0 1 -285 59 0" stroke="#000000" stroke-width="20" fill="none" />
    <path d="M 46418 14307 l 20 -176 -625 0 34 176 -1 241 0 355 0 30 3 28 3 30 6 30 6 28 6 27 11 29 9 26 13 27 12 25 13 26 17 23 16 23 14 24 18 20 21 21 20 18 20 18 22 19 23 17 23 13 23 14 26 15 27 12 24 11 26 8 27 8 30 7 26 5 29 5 29 1 28 1 29 0 30 -2 27 -5 28 -5 27 -7 28 -7 27 -10 26 -10 24 -12 26 -15 23 -13 23 -14 23 -16 22 -19 21 -19 17 -19 21 -21 17 -20 18 -24 15 -22 14 -24 16 -26 10 -24 12 -27 12 -26 8 -28 8 -29 6 -27 7 -31 2 -29 2 -27 0 -30 0 -16 0 -17 0 -13 -2 -17 0 -14 -2 -14 -3 -16 -4 -15 -2 -13 -3 -14 -4 -13 -4 -17 -5 -14 -4 -11 -5 -14 -4 -14 -7 -15 -7 -13 -4 -11 -7 -15 -7 -11 -6 -12 -9 -13 -7 -12 -9 -12 -7 -11 -9 -12 -10 -12 -8 -10 -8 -10 -10 -10 -8 -12 -12 -8 -8 -11 -12 -9 -9 -9 -11 -9 -11 -6 -11 -11 -11 -7 -12 -8 -13 -8 -11 -7 -12 -7 -13 -7 -11 -7 -13 -4 -14 -6 -11 -6 -13 -7 -14 -5 -13 -3 -14 -6 -13 -1 -13 -6 -14 -1 -15 -3 -14 -5 -13 0 -14 -1 -15 -4 -14 0 -15 -2 -14 0 0 0" stroke-width="0" fill="#CCCCCC" />
    <path d="M 46418 14307 l 20 -176 -625 0 34 176 -1 241 0 355 0 0 0 30 3 28 3 30 6 30 6 28 6 27 11 29 9 26 13 27 12 25 13 26 17 23 16 23 14 24 18 20 21 21 20 18 20 18 22 19 23 17 23 13 23 14 26 15 27 12 24 11 26 8 27 8 30 7 26 5 29 5 29 1 28 1 0 0 29 0 30 -2 27 -5 28 -5 27 -7 28 -7 27 -10 26 -10 24 -12 26 -15 23 -13 23 -14 23 -16 22 -19 21 -19 17 -19 21 -21 17 -20 18 -24 15 -22 14 -24 16 -26 10 -24 12 -27 12 -26 8 -28 8 -29 6 -27 7 -31 2 -29 2 -27 0 -30 0 0 0 -16 0 -17 0 -13 -2 -17 0 -14 -2 -14 -3 -16 -4 -15 -2 -13 -3 -14 -4 -13 -4 -17 -5 -14 -4 -11 -5 -14 -4 -14 -7 -15 -7 -13 -4 -11 -7 -15 -7 -11 -6 -12 -9 -13 -7 -12 -9 -12 -7 -11 -9 -12 -10 -12 -8 -10 -8 -10 -10 -10 -8 -12 0 0 -12 -8 -8 -11 -12 -9 -9 -9 -11 -9 -11 -6 -11 -11 -11 -7 -12 -8 -13 -8 -11 -7 -12 -7 -13 -7 -11 -7 -13 -4 -14 -6 -11 -6 -13 -7 -14 -5 -13 -3 -14 -6 -13 -1 -13 -6 -14 -1 -15 -3 -14 -5 -13 0 -14 -1 -15 -4 -14 0 -15 -2 -14 0" stroke="#000000" stroke-width="20" fill="none" />
    <path d="M 45732 14131 l 800 0 0 -61 -800 1 0 60 0 0" stroke-width="0" fill="#B4B4B4" />
    <path d="M 46883 15774 l -907 1 -1 34 908 1 0 -36 0 0" stroke-width="0" fill="#969696" />
    <path d="M 46883 15774 l -907 1 -1 34 908 1 0 -36" stroke="#000000" stroke-width="20" fill="none" />
    <path d="M 45833 14131 l 594 0 0 -61 -594 0 0 61 0 0" stroke-width="0" fill="#CCCCCC" />
    <path d="M 45941 14131 l 384 0 0 -61 -384 0 0 61 0 0" stroke-width="0" fill="#DEDEDE" />
    <path d="M 46081 14131 l 102 0 1 -61 -103 0 0 61 0 0" stroke-width="0" fill="#FFFFFF" />
    <path d="M 45732 14131 l 800 0 0 -61 -800 1 0 60" stroke="#000000" stroke-width="20" fill="none" />
    <path d="M 45926 14903 l -3 -749 402 0 0 243 5 0 6 0 5 0 7 -2 4 0 7 0 3 0 7 -2 4 0 7 0 7 0 7 1 4 -1 7 -3 6 0 7 0 25 3 24 2 25 3 25 4 22 5 24 7 23 9 22 10 20 9 23 12 20 12 20 14 18 13 20 16 18 17 15 16 18 15 14 19 15 22 14 18 12 20 12 23 12 22 9 22 9 25 8 22 7 26 5 23 4 25 2 27 3 25 2 27 -2 26 -3 24 -2 25 -4 26 -5 24 -7 26 -8 22 -9 24 -9 22 -12 21 -11 22 -13 21 -14 21 -15 17 -14 20 -18 15 -15 20 -18 15 -20 14 -19 15 -19 13 -21 12 -22 12 -21 9 -21 8 -23 7 -25 8 -21 6 -25 6 -25 2 -24 1 -25 1 -24 0 -28 -2 -21 -2 -24 -5 -25 -7 -23 -8 -24 -6 -22 -9 -20 -9 -23 -12 -20 -11 -20 -14 -21 -14 -18 -15 -17 -15 -19 -20 -14 -15 -16 -19 -13 -18 -17 -21 -11 -21 -13 -21 -12 -21 -8 -23 -10 -23 -6 -23 -7 -27 -7 -22 -4 -27 -3 -24 -2 -26 0 -25 0 0" stroke-width="0" fill="#DEDEDE" />
    <path d="M 46069 14541 l 0 0 -15 16 -15 21 -16 19 -13 21 -13 21 -13 20 -10 24 -9 23 -9 23 -10 24 -5 25 -6 23 -4 25 -3 26 -2 25 0 26 0 0 0 25 2 26 3 24 4 27 7 22 7 27 6 23 10 23 8 23 12 21 13 21 11 21 17 21 13 18 16 19 14 15 19 20 17 15 18 15 21 14 20 14 20 11 23 12 20 9 22 9 24 6 23 8 25 7 24 5 21 2 28 2 24 0 0 0 25 -1 22 -1 24 -2 23 -6 24 -6 22 -7 23 -8 23 -9 21 -8 22 -12 22 -11 19 -12 21 -14 18 -17 19 -13 16 -19" stroke="#808080" stroke-width="20" fill="none" />
    <path d="M 46446 15378 l 1 -955 -60 0 0 955 59 0 0 0" stroke-width="0" fill="#CCCCCC" />
    <path d="M 46881 14869 l -921 -1 0 65 921 1 0 -65 0 0" stroke-width="0" fill="#CCCCCC" />
    <path d="M 46446 15378 l 1 -955 -60 0 0 955 59 0" stroke="#000000" stroke-width="20" fill="none" />
    <path d="M 46881 14869 l -921 -1 0 65 921 1 0 -65" stroke="#000000" stroke-width="20" fill="none" />
    <path d="M 46074 14903 l 0 36 6 33 9 35 12 33 13 29 18 31 21 26 21 25 26 23 26 20 27 20 32 14 30 11 35 9 31 7 37 0 33 0 36 -8 32 -9 31 -11 31 -14 26 -18 28 -22 25 -23 22 -24 19 -26 17 -31 14 -29 13 -34 9 -34 4 -33 2 -35 -2 -37 -4 -37 -9 -34 -12 -34 -15 -30 -16 -30 -20 -28 -22 -26 -25 -23 -28 -21 -26 -15 -32 -18 -30 -10 -32 -11 -35 -4 -34 -2 -36 2 -32 4 -34 10 -31 11 -31 17 -27 16 -27 21 -26 23 -21 25 -20 28 -18 30 -13 30 -12 35 -10 33 -6 37 0 37 0 0" stroke-width="0" fill="#A3A3A3" />
    <path d="M 46074 14903 l 0 0 0 36 6 33 9 35 12 33 13 29 18 31 21 26 21 25 26 23 26 20 27 20 32 14 30 11 35 9 31 7 37 0 0 0 33 0 36 -8 32 -9 31 -11 31 -14 26 -18 28 -22 25 -23 22 -24 19 -26 17 -31 14 -29 13 -34 9 -34 4 -33 2 -35 0 0 -2 -37 -4 -37 -9 -34 -12 -34 -15 -30 -16 -30 -20 -28 -22 -26 -25 -23 -28 -21 -26 -15 -32 -18 -30 -10 -32 -11 -35 -4 -34 -2 0 0 -36 2 -32 4 -34 10 -31 11 -31 17 -27 16 -27 21 -26 23 -21 25 -20 28 -18 30 -13 30 -12 35 -10 33 -6 37 0 37" stroke="#000000" stroke-width="20" fill="none" />
    <path d="M 46197 14903 l 2 23 2 20 7 22 7 21 10 21 11 18 13 16 14 17 14 15 19 12 18 12 20 9 19 9 20 5 23 3 22 1 22 -1 23 -3 20 -5 20 -9 18 -10 17 -11 19 -12 15 -16 13 -16 14 -17 11 -18 9 -20 7 -21 5 -22 4 -19 0 -24 0 -23 -4 -22 -5 -24 -7 -22 -10 -17 -10 -19 -14 -19 -13 -15 -16 -18 -17 -10 -18 -13 -18 -10 -20 -8 -20 -4 -23 -6 -22 0 -22 1 -23 4 -19 5 -20 7 -20 11 -18 12 -18 11 -15 17 -14 16 -13 19 -11 18 -9 18 -7 21 -8 24 -2 23 -2 23 0 0" stroke-width="0" fill="#666666" />
    <path d="M 46197 14903 l 0 0 2 23 2 20 7 22 7 21 10 21 11 18 13 16 14 17 14 15 19 12 18 12 20 9 19 9 20 5 23 3 22 1 0 0 22 -1 23 -3 20 -5 20 -9 18 -10 17 -11 19 -12 15 -16 13 -16 14 -17 11 -18 9 -20 7 -21 5 -22 4 -19 0 -24 0 0 0 -23 -4 -22 -5 -24 -7 -22 -10 -17 -10 -19 -14 -19 -13 -15 -16 -18 -17 -10 -18 -13 -18 -10 -20 -8 -20 -4 -23 -6 -22 0 0 0 -22 1 -23 4 -19 5 -20 7 -20 11 -18 12 -18 11 -15 17 -14 16 -13 19 -11 18 -9 18 -7 21 -8 24 -2 23 -2 23" stroke="#000000" stroke-width="20" fill="none" />
    <path d="M 46478 15099 l -105 -402 -28 11 102 400 31 -9 0 0" stroke-width="0" fill="#969696" />
    <path d="M 46546 14746 l -283 294 20 20 282 -294 -19 -20 0 0" stroke-width="0" fill="#969696" />
    <path d="M 46613 14941 l -391 -105 -6 32 385 106 12 -33 0 0" stroke-width="0" fill="#969696" />
    <path d="M 46364 14903 l 0 9 5 9 4 11 7 7 7 6 9 4 10 3 12 1 9 -2 9 -3 9 -3 9 -6 4 -7 7 -10 2 -9 0 -10 0 -11 -2 -12 -7 -10 -4 -6 -9 -7 -9 -6 -9 -3 -9 -1 -11 1 -11 2 -9 7 -7 7 -7 7 -4 9 -5 11 0 12 0 0" stroke-width="0" fill="#666666" />
    <path d="M 46364 14903 l 0 0 0 9 5 9 4 11 7 7 7 6 9 4 10 3 12 1 0 0 9 -2 9 -3 9 -3 9 -6 4 -7 7 -10 2 -9 0 -10 0 0 0 -11 -2 -12 -7 -10 -4 -6 -9 -7 -9 -6 -9 -3 -9 -1 0 0 -11 1 -11 2 -9 7 -7 7 -7 7 -4 9 -5 11 0 12" stroke="#000000" stroke-width="20" fill="none" />
    <path d="M 46881 14611 l -27 17 16 28 27 -17 -16 -28" stroke="#808080" stroke-width="20" fill="none" />
    <path d="M 46680 14411 l -18 28 27 20 18 -34 -27 -14" stroke="#808080" stroke-width="20" fill="none" />
    <path d="M 46407 14342 l 0 36 31 -1 0 -34 -31 -1" stroke="#808080" stroke-width="20" fill="none" />
    <path d="M 46400 14200 l 0 -38 -33 -1 0 39 33 0" stroke="#808080" stroke-width="20" fill="none" />
    <path d="M 46702 15381 l -16 -29 -26 18 15 28 27 -17" stroke="#808080" stroke-width="20" fill="none" />
    <path d="M 46897 15171 l -29 -16 -14 27 27 17 16 -28" stroke="#808080" stroke-width="20" fill="none" />
    <path d="M 46962 14890 l -32 -1 0 36 32 0 0 -35" stroke="#808080" stroke-width="20" fill="none" />
    <path d="M 46434 15464 l 0 -31 -29 1 0 30 29 0" stroke="#808080" stroke-width="20" fill="none" />
    <path d="M 46164 15395 l 14 -28 -27 -14 -15 28 28 14" stroke="#808080" stroke-width="20" fill="none" />
    <path d="M 45960 15197 l 27 -19 -13 -27 -32 19 18 27" stroke="#808080" stroke-width="20" fill="none" />
    <path d="M 45880 14920 l 33 -1 0 -35 -34 0 1 36" stroke="#808080" stroke-width="20" fill="none" />
    <path d="M 45889 14161 l -34 0 1 35 32 0 1 -35" stroke="#808080" stroke-width="20" fill="none" />
    <path d="M 45906 14381 l -32 0 0 35 33 0 -1 -35" stroke="#808080" stroke-width="20" fill="none" />
    <path d="M 45907 14613 l -34 0 0 39 33 0 1 -39" stroke="#808080" stroke-width="20" fill="none" />
    <path d="M 46762 15259 l 0 0 18 -19 16 -18 13 -21 14 -18 12 -20 12 -25 12 -20 11 -24 7 -22 8 -23 7 -27 5 -23 4 -25 5 -23 0 -24 2 -24 0 0 -2 -27 -3 -25 -2 -27 -4 -25 -5 -23 -7 -26 -8 -22 -9 -25 -9 -22 -12 -22 -12 -23 -12 -20 -14 -18 -15 -22 -14 -19 -18 -15 -15 -16 -18 -17 -20 -16 -18 -13 -20 -14 -20 -12 -23 -12 -20 -9 -22 -10 -23 -9 -24 -7 -22 -5 -25 -4 -25 -3 -24 -2 -25 -3 0 0 -24 4 -25 -1 -24 4 -22 5 -25 5 -22 7 -25 9 -23 7 -21 11 -20 13 -23 12 -20 13 -18 13 -20 14 -18 17 -19 18" stroke="#FFFFFF" stroke-width="20" fill="none" />
    <path d="M 46169 15520 l 10 -7 8 -12 -7 -14 -11 -4 -14 4 -4 14 4 12 14 7 0 0" stroke-width="0" fill="#595959" />
    <path d="M 46168 15662 l 12 -3 4 -14 -4 -12 -11 -4 -15 4 -3 12 4 14 13 3 0 0" stroke-width="0" fill="#595959" />
  </g>
  <path id="POLYGON27" d="M 46100 14020 l 0 -8200" stroke="#000000" stroke-width="40" fill="none" />
  <g id="TEXT1">
    <rect x="43740" y="16220" width="4340" height="640" stroke-width="0" fill="none" id="TEXT1_pbTextBoundingRectEl" />
    <text fill="#000000" font-family="Helvetica" font-size="560" text-anchor="middle" x="45910" y="16820" id="TEXT1_pbTextEl">430-P-8303A</text>
  </g>
  <g id="TEXT2">
    <rect x="51260" y="16220" width="4340" height="640" stroke-width="0" fill="none" id="TEXT2_pbTextBoundingRectEl" />
    <text fill="#000000" font-family="Helvetica" font-size="560" text-anchor="middle" x="53430" y="16820" id="TEXT2_pbTextEl">430-P-8303B</text>
  </g>
  <path d="M 50660 15140 l 0 9380" stroke="#000000" stroke-width="40" fill="none" />
  <path d="M 50920 15600 l -260 -460 -260 440 520 0 0 20" stroke="#000000" stroke-width="20" fill="#000000" />
  <path d="M 50700 15040 l 1400 0" stroke="#000000" stroke-width="40" fill="none" />
  <g name="PressureBlower">
    <path d="M 52306 14975 l 767 0 0 800 -767 0 0 -800 0 0" stroke-width="0" fill="#B4B4B4" />
    <path d="M 52306 14975 l 767 0 0 800 -767 0 0 -800" stroke="#000000" stroke-width="20" fill="none" />
    <path d="M 53073 14940 l 18 0 0 870 -18 0 0 -870 0 0" stroke-width="0" fill="#CCCCCC" />
    <path d="M 52290 14940 l 16 0 0 870 -16 0 0 -870 0 0" stroke-width="0" fill="#CCCCCC" />
    <path d="M 52673 15378 l 0 286 60 0 0 -286 -60 0 0 0" stroke-width="0" fill="#CCCCCC" />
    <path d="M 53073 14940 l 18 0 0 870 -18 0 0 -870" stroke="#000000" stroke-width="20" fill="none" />
    <path d="M 52290 14940 l 16 0 0 870 -16 0 0 -870" stroke="#000000" stroke-width="20" fill="none" />
    <path d="M 52673 15378 l 0 286 60 0 0 -286 -60 0" stroke="#000000" stroke-width="20" fill="none" />
    <path d="M 52702 14307 l -20 -176 626 0 -34 176 0 241 0 355 0 30 -2 28 -4 30 -5 30 -7 28 -6 28 -11 28 -9 27 -12 26 -13 25 -13 26 -16 23 -16 23 -15 24 -18 20 -20 21 -21 19 -20 18 -22 19 -22 16 -23 14 -24 14 -25 14 -27 12 -24 11 -27 9 -27 7 -29 7 -27 5 -29 5 -29 2 -29 0 -29 0 -29 -2 -27 -5 -29 -5 -27 -7 -27 -7 -27 -9 -27 -11 -24 -12 -25 -14 -24 -14 -23 -14 -22 -16 -22 -19 -21 -18 -17 -19 -21 -21 -17 -20 -18 -24 -16 -23 -13 -23 -16 -26 -11 -25 -11 -26 -12 -27 -8 -28 -9 -28 -5 -28 -7 -30 -2 -30 -2 -28 0 -30 0 -16 0 -17 0 -13 2 -17 0 -14 2 -14 3 -16 4 -14 2 -14 3 -14 4 -13 5 -17 4 -14 4 -11 5 -14 4 -14 7 -14 7 -14 4 -11 7 -14 7 -12 6 -12 9 -13 7 -12 9 -12 7 -11 9 -12 9 -11 9 -10 8 -11 9 -10 9 -11 12 -9 8 -10 12 -9 9 -9 11 -10 11 -6 11 -10 11 -7 12 -9 13 -7 11 -7 11 -7 14 -7 11 -7 13 -4 14 -7 11 -5 13 -7 14 -5 13 -4 14 -5 13 -2 13 -5 14 -2 15 -2 14 -5 13 0 14 -2 15 -3 14 0 15 -2 14 0 0 0" stroke-width="0" fill="#CCCCCC" />
    <path d="M 52702 14307 l -20 -176 626 0 -34 176 0 241 0 355 0 0 0 30 -2 28 -4 30 -5 30 -7 28 -6 28 -11 28 -9 27 -12 26 -13 25 -13 26 -16 23 -16 23 -15 24 -18 20 -20 21 -21 19 -20 18 -22 19 -22 16 -23 14 -24 14 -25 14 -27 12 -24 11 -27 9 -27 7 -29 7 -27 5 -29 5 -29 2 -29 0 0 0 -29 0 -29 -2 -27 -5 -29 -5 -27 -7 -27 -7 -27 -9 -27 -11 -24 -12 -25 -14 -24 -14 -23 -14 -22 -16 -22 -19 -21 -18 -17 -19 -21 -21 -17 -20 -18 -24 -16 -23 -13 -23 -16 -26 -11 -25 -11 -26 -12 -27 -8 -28 -9 -28 -5 -28 -7 -30 -2 -30 -2 -28 0 -30 0 0 0 -16 0 -17 0 -13 2 -17 0 -14 2 -14 3 -16 4 -14 2 -14 3 -14 4 -13 5 -17 4 -14 4 -11 5 -14 4 -14 7 -14 7 -14 4 -11 7 -14 7 -12 6 -12 9 -13 7 -12 9 -12 7 -11 9 -12 9 -11 9 -10 8 -11 9 -10 9 -11 0 0 12 -9 8 -10 12 -9 9 -9 11 -10 11 -6 11 -10 11 -7 12 -9 13 -7 11 -7 11 -7 14 -7 11 -7 13 -4 14 -7 11 -5 13 -7 14 -5 13 -4 14 -5 13 -2 13 -5 14 -2 15 -2 14 -5 13 0 14 -2 15 -3 14 0 15 -2 14 0" stroke="#000000" stroke-width="20" fill="none" />
    <path d="M 53388 14131 l -800 0 0 -61 800 0 0 61 0 0" stroke-width="0" fill="#B4B4B4" />
    <path d="M 52237 15775 l 908 0 0 35 -908 0 0 -35 0 0" stroke-width="0" fill="#969696" />
    <path d="M 52237 15775 l 908 0 0 35 -908 0 0 -35" stroke="#000000" stroke-width="20" fill="none" />
    <path d="M 53288 14131 l -595 0 0 -61 595 0 0 61 0 0" stroke-width="0" fill="#CCCCCC" />
    <path d="M 53180 14131 l -384 0 0 -61 384 0 0 61 0 0" stroke-width="0" fill="#DEDEDE" />
    <path d="M 53040 14131 l -103 0 0 -61 103 0 0 61 0 0" stroke-width="0" fill="#FFFFFF" />
    <path d="M 53388 14131 l -800 0 0 -61 800 0 0 61" stroke="#000000" stroke-width="20" fill="none" />
    <path d="M 53194 14903 l 4 -749 -402 0 0 243 -5 0 -6 0 -5 0 -7 -2 -4 0 -7 0 -4 0 -7 -2 -4 0 -7 0 -7 0 -7 0 -4 0 -7 -3 -6 0 -7 0 -25 3 -24 2 -25 2 -25 5 -22 5 -24 7 -23 9 -22 9 -20 9 -23 12 -20 12 -20 14 -18 13 -20 17 -18 16 -15 16 -18 16 -14 19 -15 21 -14 18 -13 21 -11 23 -12 21 -9 23 -9 24 -8 23 -7 25 -5 24 -4 25 -2 26 -3 25 -2 28 2 25 3 26 2 25 4 26 5 23 7 26 8 23 9 23 9 23 12 21 11 21 13 21 14 21 15 18 14 19 18 16 15 19 18 16 20 14 18 14 20 14 20 11 23 12 20 9 22 9 23 7 24 7 22 7 25 5 25 2 24 2 25 0 24 0 27 -2 23 -2 24 -5 25 -7 22 -7 25 -7 22 -9 20 -9 23 -12 20 -11 20 -14 20 -14 18 -14 18 -16 18 -19 15 -16 16 -19 13 -18 16 -21 11 -21 14 -21 11 -21 9 -23 9 -23 6 -23 7 -26 7 -23 4 -26 3 -25 2 -26 0 -25 0 0" stroke-width="0" fill="#DEDEDE" />
    <path d="M 53051 14541 l 0 0 15 16 16 21 16 19 13 21 13 21 12 20 11 24 9 23 9 23 9 23 6 26 5 23 4 25 3 26 2 25 0 26 0 0 0 25 -2 26 -3 25 -4 26 -7 23 -7 26 -6 23 -9 23 -9 23 -11 21 -14 21 -11 21 -16 21 -13 18 -16 19 -15 16 -18 19 -18 16 -18 14 -20 14 -20 14 -20 11 -23 12 -20 9 -22 9 -25 7 -22 7 -25 7 -24 5 -23 2 -27 2 -24 0 0 0 -25 0 -22 -2 -25 -2 -22 -5 -25 -7 -22 -7 -22 -7 -23 -9 -22 -9 -22 -12 -21 -11 -20 -12 -20 -14 -18 -16 -20 -14 -15 -19" stroke="#808080" stroke-width="20" fill="none" />
    <path d="M 52673 15378 l 0 -955 60 0 0 955 -60 0 0 0" stroke-width="0" fill="#CCCCCC" />
    <path d="M 52239 14868 l 921 0 0 65 -921 0 0 -65 0 0" stroke-width="0" fill="#CCCCCC" />
    <path d="M 52673 15378 l 0 -955 60 0 0 955 -60 0" stroke="#000000" stroke-width="20" fill="none" />
    <path d="M 52239 14868 l 921 0 0 65 -921 0 0 -65" stroke="#000000" stroke-width="20" fill="none" />
    <path d="M 53046 14903 l 0 35 -6 34 -9 35 -12 33 -13 30 -18 30 -20 26 -22 25 -25 23 -27 21 -27 19 -31 14 -31 11 -34 9 -33 7 -36 0 -34 0 -35 -7 -32 -9 -31 -11 -31 -14 -27 -19 -27 -21 -25 -23 -22 -25 -20 -26 -16 -30 -15 -30 -12 -33 -9 -35 -4 -34 -2 -35 2 -37 4 -37 9 -33 12 -35 15 -30 16 -30 20 -28 22 -25 25 -23 27 -21 27 -16 31 -17 31 -11 32 -10 35 -4 34 -3 36 3 33 4 34 10 31 11 31 17 27 16 27 21 25 23 22 25 20 28 18 30 13 30 12 35 9 33 6 37 0 37 0 0" stroke-width="0" fill="#A3A3A3" />
    <path d="M 53046 14903 l 0 0 0 35 -6 34 -9 35 -12 33 -13 30 -18 30 -20 26 -22 25 -25 23 -27 21 -27 19 -31 14 -31 11 -34 9 -33 7 -36 0 0 0 -34 0 -35 -7 -32 -9 -31 -11 -31 -14 -27 -19 -27 -21 -25 -23 -22 -25 -20 -26 -16 -30 -15 -30 -12 -33 -9 -35 -4 -34 -2 -35 0 0 2 -37 4 -37 9 -33 12 -35 15 -30 16 -30 20 -28 22 -25 25 -23 27 -21 27 -16 31 -17 31 -11 32 -10 35 -4 34 -3 0 0 36 3 33 4 34 10 31 11 31 17 27 16 27 21 25 23 22 25 20 28 18 30 13 30 12 35 9 33 6 37 0 37" stroke="#000000" stroke-width="20" fill="none" />
    <path d="M 52923 14903 l -2 23 -2 21 -7 21 -7 21 -9 21 -11 18 -13 16 -14 17 -15 16 -18 11 -18 12 -20 9 -20 10 -20 4 -23 3 -22 2 -22 -2 -23 -3 -20 -4 -20 -10 -18 -9 -18 -12 -18 -11 -15 -16 -14 -17 -13 -16 -11 -18 -9 -21 -7 -21 -5 -21 -4 -21 0 -23 0 -23 4 -23 5 -24 7 -21 9 -18 11 -19 13 -18 14 -16 15 -17 18 -11 18 -12 18 -11 20 -7 20 -5 23 -5 22 0 22 0 23 5 20 5 20 7 20 11 18 12 18 11 15 17 14 16 13 18 11 19 9 18 7 21 7 24 2 23 2 23 0 0" stroke-width="0" fill="#666666" />
    <path d="M 52923 14903 l 0 0 -2 23 -2 21 -7 21 -7 21 -9 21 -11 18 -13 16 -14 17 -15 16 -18 11 -18 12 -20 9 -20 10 -20 4 -23 3 -22 2 0 0 -22 -2 -23 -3 -20 -4 -20 -10 -18 -9 -18 -12 -18 -11 -15 -16 -14 -17 -13 -16 -11 -18 -9 -21 -7 -21 -5 -21 -4 -21 0 -23 0 0 0 -23 4 -23 5 -24 7 -21 9 -18 11 -19 13 -18 14 -16 15 -17 18 -11 18 -12 18 -11 20 -7 20 -5 23 -5 22 0 0 0 22 0 23 5 20 5 20 7 20 11 18 12 18 11 15 17 14 16 13 18 11 19 9 18 7 21 7 24 2 23 2 23" stroke="#000000" stroke-width="20" fill="none" />
    <path d="M 52641 15100 l 106 -403 29 11 -103 401 -32 -9 0 0" stroke-width="0" fill="#969696" />
    <path d="M 52574 14745 l 284 295 -20 21 -284 -295 20 -21 0 0" stroke-width="0" fill="#969696" />
    <path d="M 52507 14942 l 392 -106 6 32 -386 107 -12 -33 0 0" stroke-width="0" fill="#969696" />
    <path d="M 52756 14903 l 0 9 -5 9 -4 10 -7 7 -7 7 -9 4 -11 3 -11 2 -9 -2 -9 -3 -9 -4 -9 -7 -4 -7 -7 -10 -2 -9 0 -9 0 -12 2 -11 7 -10 4 -7 9 -6 9 -7 9 -3 9 0 11 0 11 3 9 7 7 6 7 7 4 10 5 11 0 12 0 0" stroke-width="0" fill="#666666" />
    <path d="M 52756 14903 l 0 0 0 9 -5 9 -4 10 -7 7 -7 7 -9 4 -11 3 -11 2 0 0 -9 -2 -9 -3 -9 -4 -9 -7 -4 -7 -7 -10 -2 -9 0 -9 0 0 0 -12 2 -11 7 -10 4 -7 9 -6 9 -7 9 -3 9 0 0 0 11 0 11 3 9 7 7 6 7 7 4 10 5 11 0 12" stroke="#000000" stroke-width="20" fill="none" />
    <path d="M 52239 14611 l 27 16 -16 28 -27 -16 16 -28" stroke="#808080" stroke-width="20" fill="none" />
    <path d="M 52440 14411 l 18 28 -27 19 -18 -33 27 -14" stroke="#808080" stroke-width="20" fill="none" />
    <path d="M 52713 14342 l 0 34 -31 0 0 -34 31 0" stroke="#808080" stroke-width="20" fill="none" />
    <path d="M 52720 14200 l 0 -39 33 0 0 39 -33 0" stroke="#808080" stroke-width="20" fill="none" />
    <path d="M 52418 15381 l 16 -28 26 18 -15 28 -27 -18" stroke="#808080" stroke-width="20" fill="none" />
    <path d="M 52223 15172 l 29 -16 14 27 -27 17 -16 -28" stroke="#808080" stroke-width="20" fill="none" />
    <path d="M 52159 14889 l 31 0 0 35 -31 0 0 -35" stroke="#808080" stroke-width="20" fill="none" />
    <path d="M 52686 15464 l 0 -30 29 0 0 30 -29 0" stroke="#808080" stroke-width="20" fill="none" />
    <path d="M 52957 15395 l -14 -28 27 -14 14 28 -27 14" stroke="#808080" stroke-width="20" fill="none" />
    <path d="M 53160 15197 l -27 -18 14 -28 31 19 -18 27" stroke="#808080" stroke-width="20" fill="none" />
    <path d="M 53241 14919 l -34 0 0 -35 34 0 0 35" stroke="#808080" stroke-width="20" fill="none" />
    <path d="M 53232 14161 l 33 0 0 35 -33 0 0 -35" stroke="#808080" stroke-width="20" fill="none" />
    <path d="M 53214 14381 l 33 0 0 35 -33 0 0 -35" stroke="#808080" stroke-width="20" fill="none" />
    <path d="M 53214 14613 l 33 0 0 39 -33 0 0 -39" stroke="#808080" stroke-width="20" fill="none" />
    <path d="M 52358 15260 l 0 0 -18 -19 -16 -18 -13 -21 -14 -19 -13 -20 -11 -24 -12 -20 -11 -24 -7 -23 -8 -23 -7 -26 -5 -23 -4 -25 -5 -23 0 -26 -2 -23 0 0 2 -28 3 -25 2 -26 4 -25 5 -24 7 -25 8 -23 9 -24 9 -23 12 -21 11 -23 13 -21 14 -18 15 -21 14 -19 18 -16 15 -16 18 -16 20 -17 18 -13 20 -14 20 -12 23 -12 20 -9 22 -9 23 -9 24 -7 22 -5 25 -5 25 -2 24 -2 25 -3 0 0 24 3 25 0 25 4 22 5 25 5 22 7 25 9 22 7 22 11 20 12 23 12 20 14 18 13 20 14 18 17 18 18" stroke="#FFFFFF" stroke-width="20" fill="none" />
    <path d="M 52952 15520 l -11 -7 -7 -12 7 -14 11 -4 14 4 4 14 -4 12 -14 7 0 0" stroke-width="0" fill="#595959" />
    <path d="M 52952 15664 l -11 -5 -4 -14 4 -12 11 -4 14 4 4 12 -4 14 -14 5 0 0" stroke-width="0" fill="#595959" />
  </g>
  <path d="M 53020 14020 l 0 -8200" stroke="#000000" stroke-width="40" fill="none" />
  <path id="POLYGON36" d="M 55780 6020 l 0 15980" stroke="#000000" stroke-width="40" fill="none" />
  <g id="BARGRAPH4" PB:IsMultiState="False" PB:Lower="0" PB:Orientation="0" PB:CanonicalNumberFormat="General" PBD:PtTagName="\\\" PB:Start="0" PB:Upper="100" PB:Type="12">
    <rect x="56620" y="18900" width="1060" height="8000" stroke-width="0" fill="#C0C0C0" id="BARGRAPH4_pbBarBoundingRectEl" />
    <rect x="56620" y="18900" width="1060" height="8000" stroke-width="0" fill="#0000FF" id="BARGRAPH4_pbBarTagRectEl" stroke="none" PBD:Property="" />
  </g>
  <path id="POLYGON37" d="M 56040 16400 l -260 460 -260 -440 520 0 0 -20" stroke="#000000" stroke-width="20" fill="#000000" />
  <path d="M 55900 12000 l 420 -440 -420 -400 0 840 0 0" stroke="#000000" stroke-width="40" fill="#000000" />
  <path d="M 56320 11980 l 0 -820" stroke="#000000" stroke-width="40" fill="none" />
  <path d="M 57400 5760 l -420 -440 -400 440 820 0 0 0" stroke="#000000" stroke-width="40" fill="#000000" />
  <path d="M 57380 5320 l -800 0" stroke="#000000" stroke-width="40" fill="none" />
  <g id="TEXT3">
    <rect x="54560" y="3600" width="8640" height="900" stroke-width="0" fill="none" id="TEXT3_pbTextBoundingRectEl" />
    <text fill="#000000" font-family="Helvetica" font-size="560" text-anchor="middle" x="58880" y="4330" id="TEXT3_pbTextEl">排至全厂生活污水管道</text>
  </g>
  <g id="TEXT4">
    <rect x="58660" y="6480" width="4340" height="960" stroke-width="0" fill="none" id="TEXT4_pbTextBoundingRectEl" />
    <text fill="#000000" font-family="Helvetica" font-size="560" text-anchor="middle" x="60830" y="7240" id="TEXT4_pbTextEl">厂外排洪渠</text>
  </g>
  <path id="LINE24" d="M 44980 26960 l 0 560" stroke="#C0C0C0" stroke-width="40" fill="none" />
  <g id="TEXT5">
    <rect x="52300" y="24920" width="4340" height="700" stroke-width="0" fill="none" id="TEXT5_pbTextBoundingRectEl" />
    <text fill="#000000" font-family="Helvetica" font-size="560" text-anchor="middle" x="54470" y="25550" id="TEXT5_pbTextEl">LISA_8313</text>
  </g>
  <g id="TEXT6">
    <rect x="47220" y="27600" width="4340" height="640" stroke-width="0" fill="none" id="TEXT6_pbTextBoundingRectEl" />
    <text fill="#000000" font-family="Helvetica" font-size="560" text-anchor="middle" x="49390" y="28200" id="TEXT6_pbTextEl">430-B-8302</text>
  </g>
  <path id="POLYGON40" d="M 26560 22120 l 7460 0" stroke="#000000" stroke-width="40" fill="none" />
  <path id="POLYGON41" d="M 34060 22120 l 0 1020" stroke="#000000" stroke-width="40" fill="none" />
  <rect x="31600" y="23160" width="3060" height="2700" stroke="#000000" stroke-width="40" fill="none" id="RECTANGLE7" />
  <path id="LINE42" d="M 34740 25340 l 7540 0" stroke="#000000" stroke-width="40" fill="none" />
  <g id="TEXT7">
    <rect x="30900" y="26080" width="4340" height="860" stroke-width="0" fill="none" id="TEXT7_pbTextBoundingRectEl" />
    <text fill="#000000" font-family="Helvetica" font-size="560" text-anchor="middle" x="33070" y="26790" id="TEXT7_pbTextEl">隔栅井</text>
  </g>
  <path id="ELLIPSE1" d="M 28529 22580 l -76 -20 -46 -20 -36 -20 -29 -20 -25 -20 -22 -20 -19 -20 -17 -20 -16 -20 -13 -20 -12 -20 -11 -20 -10 -20 -8 -20 -8 -20 -6 -20 -6 -20 -5 -20 -3 -20 -3 -20 -2 -20 -2 -20 0 -20 0 0 0 -20 2 -20 2 -20 3 -20 3 -20 5 -20 6 -20 6 -20 8 -20 8 -20 10 -20 11 -20 12 -20 13 -20 16 -20 17 -20 19 -20 22 -20 25 -20 29 -20 36 -20 46 -20 76 -20 142 0 76 20 46 20 36 20 29 20 25 20 22 20 19 20 17 20 16 20 13 20 12 20 11 20 10 20 8 20 8 20 6 20 6 20 5 20 3 20 3 20 2 20 2 20 0 20 0 0 0 20 -2 20 -2 20 -3 20 -3 20 -5 20 -6 20 -6 20 -8 20 -8 20 -10 20 -11 20 -12 20 -13 20 -16 20 -17 20 -19 20 -22 20 -25 20 -29 20 -36 20 -46 20 -76 20 -142 0" stroke="#808080" stroke-width="40" fill="#808080" />
  <path id="POLYGON43" d="M 28580 22600 l 0 6220" stroke="#000000" stroke-width="40" fill="none" />
  <path id="POLYGON44" d="M 28580 28820 l -25820 0" stroke="#000000" stroke-width="40" fill="none" />
  <path id="POLYGON45" d="M 31620 24500 l -1400 0" stroke="#000000" stroke-width="40" fill="none" />
  <path id="POLYGON46" d="M 30220 24500 l 0 5460" stroke="#000000" stroke-width="40" fill="none" />
  <path id="POLYGON47" d="M 30220 29960 l -27380 0" stroke="#000000" stroke-width="40" fill="none" />
  <path d="M 820 29800 l 1260 0" stroke="#000000" stroke-width="40" fill="#000000" />
  <path d="M 820 30040 l 1260 0" stroke="#000000" stroke-width="40" fill="#000000" />
  <path d="M 2080 29660 l 0 140" stroke="#000000" stroke-width="40" fill="#000000" />
  <path d="M 2080 30040 l 0 220" stroke="#000000" stroke-width="40" fill="#000000" />
  <path d="M 820 29800 l 0 240" stroke="#000000" stroke-width="40" fill="#000000" />
  <path d="M 2120 29660 l 560 240" stroke="#000000" stroke-width="40" fill="#000000" />
  <path d="M 2120 30260 l 560 -360" stroke="#000000" stroke-width="40" fill="#000000" />
  <path d="M 820 28680 l 1260 0" stroke="#000000" stroke-width="40" fill="#000000" />
  <path d="M 820 28920 l 1260 0" stroke="#000000" stroke-width="40" fill="#000000" />
  <path d="M 2080 28540 l 0 140" stroke="#000000" stroke-width="40" fill="#000000" />
  <path d="M 2080 28920 l 0 220" stroke="#000000" stroke-width="40" fill="#000000" />
  <path d="M 820 28680 l 0 240" stroke="#000000" stroke-width="40" fill="#000000" />
  <path d="M 2120 28540 l 560 240" stroke="#000000" stroke-width="40" fill="#000000" />
  <path d="M 2120 29140 l 560 -360" stroke="#000000" stroke-width="40" fill="#000000" />
  <path id="POLYGON61" d="M 12160 20840 l -9520 0" stroke="#000000" stroke-width="40" fill="none" />
  <path d="M 820 20720 l 1260 0" stroke="#000000" stroke-width="40" fill="#000000" />
  <path d="M 820 20960 l 1260 0" stroke="#000000" stroke-width="40" fill="#000000" />
  <path d="M 2080 20580 l 0 140" stroke="#000000" stroke-width="40" fill="#000000" />
  <path d="M 2080 20960 l 0 220" stroke="#000000" stroke-width="40" fill="#000000" />
  <path d="M 820 20720 l 0 240" stroke="#000000" stroke-width="40" fill="#000000" />
  <path d="M 2120 20580 l 560 240" stroke="#000000" stroke-width="40" fill="#000000" />
  <path d="M 2120 21180 l 560 -360" stroke="#000000" stroke-width="40" fill="#000000" />
  <path d="M 5740 19360 l -280 760" stroke="#000000" stroke-width="20" fill="none" />
  <path d="M 6420 19360 l -280 760" stroke="#000000" stroke-width="20" fill="none" />
  <path d="M 7140 19360 l -280 760" stroke="#000000" stroke-width="20" fill="none" />
  <path d="M 7980 19360 l -280 760" stroke="#000000" stroke-width="20" fill="none" />
  <path d="M 8660 19360 l -300 760" stroke="#000000" stroke-width="20" fill="none" />
  <path d="M 9440 19360 l -300 760" stroke="#000000" stroke-width="20" fill="none" />
  <path d="M 5260 19260 l 5240 0" stroke="#000000" stroke-width="40" fill="none" />
  <path d="M 31280 19360 l 300 760" stroke="#000000" stroke-width="20" fill="none" />
  <path d="M 30580 19360 l 320 760" stroke="#000000" stroke-width="20" fill="none" />
  <path d="M 29860 19360 l 300 760" stroke="#000000" stroke-width="20" fill="none" />
  <path d="M 29020 19360 l 320 760" stroke="#000000" stroke-width="20" fill="none" />
  <path d="M 28360 19360 l 300 760" stroke="#000000" stroke-width="20" fill="none" />
  <path d="M 27600 19360 l 280 760" stroke="#000000" stroke-width="20" fill="none" />
  <path d="M 31760 19260 l -5260 0" stroke="#000000" stroke-width="40" fill="none" />
  <path d="M 63080 19360 l 300 760" stroke="#000000" stroke-width="20" fill="none" />
  <path d="M 62400 19360 l 280 760" stroke="#000000" stroke-width="20" fill="none" />
  <path d="M 61680 19360 l 280 760" stroke="#000000" stroke-width="20" fill="none" />
  <path d="M 60840 19360 l 300 760" stroke="#000000" stroke-width="20" fill="none" />
  <path d="M 60160 19360 l 300 760" stroke="#000000" stroke-width="20" fill="none" />
  <path d="M 59380 19360 l 320 760" stroke="#000000" stroke-width="20" fill="none" />
  <path d="M 63560 19260 l -5240 0" stroke="#000000" stroke-width="40" fill="none" />
  <path d="M 37560 19360 l -320 760" stroke="#000000" stroke-width="20" fill="none" />
  <path d="M 38240 19360 l -320 760" stroke="#000000" stroke-width="20" fill="none" />
  <path d="M 38960 19360 l -300 760" stroke="#000000" stroke-width="20" fill="none" />
  <path d="M 39800 19360 l -320 760" stroke="#000000" stroke-width="20" fill="none" />
  <path d="M 40460 19360 l -280 760" stroke="#000000" stroke-width="20" fill="none" />
  <path d="M 41260 19360 l -320 760" stroke="#000000" stroke-width="20" fill="none" />
  <path d="M 37080 19260 l 5240 0" stroke="#000000" stroke-width="40" fill="none" />
  <g id="TEXT8">
    <rect x="300" y="30860" width="4340" height="800" stroke-width="0" fill="none" id="TEXT8_pbTextBoundingRectEl" />
    <text fill="#000000" font-family="Helvetica" font-size="560" text-anchor="middle" x="2470" y="31540" id="TEXT8_pbTextEl">火炬区域雨水</text>
  </g>
  <g id="TEXT9">
    <rect x="300" y="26740" width="4340" height="980" stroke-width="0" fill="none" id="TEXT9_pbTextBoundingRectEl" />
    <text fill="#000000" font-family="Helvetica" font-size="560" text-anchor="middle" x="2470" y="27510" id="TEXT9_pbTextEl">初期雨水</text>
  </g>
  <g id="TEXT10">
    <rect x="300" y="21340" width="4340" height="860" stroke-width="0" fill="none" id="TEXT10_pbTextBoundingRectEl" />
    <text fill="#000000" font-family="Helvetica" font-size="560" text-anchor="middle" x="2470" y="22050" id="TEXT10_pbTextEl">生活污水</text>
  </g>
  <g id="TEXT11">
    <rect x="1100" y="15900" width="4340" height="640" stroke-width="0" fill="none" id="TEXT11_pbTextBoundingRectEl" />
    <text fill="#000000" font-family="Helvetica" font-size="560" text-anchor="middle" x="3270" y="16500" id="TEXT11_pbTextEl">430-P-8301A</text>
  </g>
  <g id="TEXT12">
    <rect x="1100" y="10340" width="4340" height="640" stroke-width="0" fill="none" id="TEXT12_pbTextBoundingRectEl" />
    <text fill="#000000" font-family="Helvetica" font-size="560" text-anchor="middle" x="3270" y="10940" id="TEXT12_pbTextEl">430-P-8301B</text>
  </g>
  <g id="TEXT13">
    <rect x="32800" y="10220" width="4340" height="640" stroke-width="0" fill="none" id="TEXT13_pbTextBoundingRectEl" />
    <text fill="#000000" font-family="Helvetica" font-size="560" text-anchor="middle" x="34970" y="10820" id="TEXT13_pbTextEl">430-P-8302B</text>
  </g>
  <g id="TEXT14">
    <rect x="32880" y="15780" width="4340" height="640" stroke-width="0" fill="none" id="TEXT14_pbTextBoundingRectEl" />
    <text fill="#000000" font-family="Helvetica" font-size="560" text-anchor="middle" x="35050" y="16380" id="TEXT14_pbTextEl">430-P-8302A</text>
  </g>
  <g id="TEXT15">
    <rect x="27640" y="20300" width="4340" height="940" stroke-width="0" fill="none" id="TEXT15_pbTextBoundingRectEl" />
    <text fill="#000000" font-family="Helvetica" font-size="560" text-anchor="middle" x="29810" y="21050" id="TEXT15_pbTextEl">溢流切换井</text>
  </g>
  <g id="TEXT16">
    <rect x="20680" y="27740" width="4340" height="640" stroke-width="0" fill="none" id="TEXT16_pbTextBoundingRectEl" />
    <text fill="#000000" font-family="Helvetica" font-size="560" text-anchor="middle" x="22850" y="28340" id="TEXT16_pbTextEl">430-B-8301B</text>
  </g>
  <g id="TEXT17">
    <rect x="13080" y="27740" width="4340" height="640" stroke-width="0" fill="none" id="TEXT17_pbTextBoundingRectEl" />
    <text fill="#000000" font-family="Helvetica" font-size="560" text-anchor="middle" x="15250" y="28340" id="TEXT17_pbTextEl">430-B-8301A</text>
  </g>
  <g id="TEXT18">
    <rect x="13160" y="24740" width="4340" height="640" stroke-width="0" fill="none" id="TEXT18_pbTextBoundingRectEl" />
    <text fill="#000000" font-family="Helvetica" font-size="560" text-anchor="middle" x="15330" y="25340" id="TEXT18_pbTextEl">LISA_8311</text>
  </g>
  <g id="TEXT19">
    <rect x="20880" y="24740" width="4340" height="640" stroke-width="0" fill="none" id="TEXT19_pbTextBoundingRectEl" />
    <text fill="#000000" font-family="Helvetica" font-size="560" text-anchor="middle" x="23050" y="25340" id="TEXT19_pbTextEl">LISA_8312</text>
  </g>
  <g id="TEXT20">
    <rect x="24680" y="340" width="6420" height="1740" stroke-width="0" fill="none" id="TEXT20_pbTextBoundingRectEl" />
    <text fill="#000000" font-family="Helvetica" font-size="800" text-anchor="middle" x="27890" y="1610" id="TEXT20_pbTextEl">污水雨水</text>
  </g>
  <path d="M 23020 3100 l -440 -440 -400 440 840 0 0 0" stroke="#000000" stroke-width="40" fill="#000000" />
  <path d="M 22980 2660 l -800 0" stroke="#000000" stroke-width="40" fill="none" />
  <path d="M 24720 5260 l 420 -440 -420 -420 0 860 0 0" stroke="#000000" stroke-width="40" fill="#000000" />
  <path d="M 25140 5220 l 0 -820" stroke="#000000" stroke-width="40" fill="none" />
  <path id="POLYGON15" d="M 33040 23120 l 0 2580" stroke="#000000" stroke-width="20" fill="none" />
  <path id="POLYGON19" d="M 32640 23300 l -480 2400" stroke="#000000" stroke-width="20" fill="none" />
  <g id="DATAPOINT53" PB:IsMultiState="False" PBD:PtTagName="\\RTDBB\M560_LT_8311" PB:Type="7" PB:NumberFormat="0.00">
    <rect x="14640" y="25720" width="1260" height="560" stroke-width="0" fill="none" id="DATAPOINT53_pbTextBoundingRectEl" />
    <text fill="#000000" font-family="Helvetica" font-size="560" text-anchor="middle" x="15270" y="26280" id="DATAPOINT53_pbTextEl" PBD:Property="VAL">#.##</text>
  </g>
  <g id="DATAPOINT54" PB:IsMultiState="False" PBD:PtTagName="\\RTDBB\M560_LT_8312" PB:Type="7" PB:NumberFormat="0.00">
    <rect x="22260" y="25580" width="1260" height="560" stroke-width="0" fill="none" id="DATAPOINT54_pbTextBoundingRectEl" />
    <text fill="#000000" font-family="Helvetica" font-size="560" text-anchor="middle" x="22890" y="26140" id="DATAPOINT54_pbTextEl" PBD:Property="VAL">#.##</text>
  </g>
  <g id="DATAPOINT55" PB:IsMultiState="False" PBD:PtTagName="\\RTDBB\M560_LT_8313" PB:Type="7" PB:NumberFormat="0.00">
    <rect x="54360" y="25900" width="1260" height="560" stroke-width="0" fill="none" id="DATAPOINT55_pbTextBoundingRectEl" />
    <text fill="#000000" font-family="Helvetica" font-size="560" text-anchor="middle" x="54990" y="26460" id="DATAPOINT55_pbTextEl" PBD:Property="VAL">#.##</text>
  </g>
  <g id="DATAPOINT56" PB:IsMultiState="False" PBD:PtTagName="\\RTDBB\M560_PT_8311" PB:Type="7" PB:NumberFormat="0.00">
    <rect x="34480" y="2180" width="1260" height="560" stroke-width="0" fill="none" id="DATAPOINT56_pbTextBoundingRectEl" />
    <text fill="#000000" font-family="Helvetica" font-size="560" text-anchor="middle" x="35110" y="2740" id="DATAPOINT56_pbTextEl" PBD:Property="VAL">#.##</text>
  </g>
  <g id="DATAPOINT57" PB:IsMultiState="False" PBD:PtTagName="\\RTDBB\M560_FT_8311" PB:Type="7" PB:NumberFormat="0.00">
    <rect x="39200" y="2240" width="1260" height="560" stroke-width="0" fill="none" id="DATAPOINT57_pbTextBoundingRectEl" />
    <text fill="#000000" font-family="Helvetica" font-size="560" text-anchor="middle" x="39830" y="2800" id="DATAPOINT57_pbTextEl" PBD:Property="VAL">#.##</text>
  </g>
  <g id="TEXT332">
    <rect x="32600" y="1240" width="4340" height="640" stroke-width="0" fill="none" id="TEXT332_pbTextBoundingRectEl" />
    <text fill="#000000" font-family="Helvetica" font-size="560" text-anchor="middle" x="34770" y="1840" id="TEXT332_pbTextEl">PT_8311</text>
  </g>
  <g id="TEXT335">
    <rect x="37720" y="1240" width="4340" height="640" stroke-width="0" fill="none" id="TEXT335_pbTextBoundingRectEl" />
    <text fill="#000000" font-family="Helvetica" font-size="560" text-anchor="middle" x="39890" y="1840" id="TEXT335_pbTextEl">FIQ_8311</text>
  </g>
</svg>