<svg xmlns="http://www.w3.org/2000/svg" xmlns:xlink="http://www.w3.org/1999/xlink" version="1.1" style="background-color:#7DB6C1" width="1062" height="669" viewbox="0 0 1062 669"><defs>
<marker id="Arrow1" markerUnits="strokeWidth" markerWidth="6" markerHeight="6" viewBox="0 0 6 6" refX="3" refY="3" orient="auto"><polygon points="1,1 5,3 1,5" style="fill: #000000;"/></marker>
<marker id="Arrow2" markerUnits="strokeWidth" markerWidth="6" markerHeight="6" viewBox="0 0 6 6" refX="3" refY="3" orient="auto"><polygon points="5,1 1,3 5,5" style="fill: #000000;"/></marker>
<radialGradient cx="50.000000%" cy="50.000000%" r="50.000000%" fx="50.000000%" fy="50.000000%" id="rgradient113_0">
<stop offset="0%" stop-color="#FFFFFF" stop-opacity="1"/>
<stop offset="100%" stop-color="#2C2C2C" stop-opacity="1"/>
</radialGradient>
<linearGradient x1="50.000000%" y1="0.000000%" x2="50.000000%" y2="100.000000%" id="lgradient113_1">
<stop offset="0" stop-color="#2C2C2C" stop-opacity="1"/>
<stop offset="0.5" stop-color="#FFFFFF" stop-opacity="1"/>
<stop offset="1" stop-color="#2C2C2C" stop-opacity="1"/>
</linearGradient>
<linearGradient x1="0.000000%" y1="50.000000%" x2="100.000000%" y2="50.000000%" id="lgradient113_2">
<stop offset="0" stop-color="#2C2C2C" stop-opacity="1"/>
<stop offset="0.5" stop-color="#FFFFFF" stop-opacity="1"/>
<stop offset="1" stop-color="#2C2C2C" stop-opacity="1"/>
</linearGradient>
<linearGradient x1="50.000000%" y1="0.000000%" x2="50.000000%" y2="100.000000%" id="lgradient113_3">
<stop offset="0" stop-color="#2C2C2C" stop-opacity="1"/>
<stop offset="0.5" stop-color="#FFFFFF" stop-opacity="1"/>
<stop offset="1" stop-color="#2C2C2C" stop-opacity="1"/>
</linearGradient>
<linearGradient x1="0.000000%" y1="50.000000%" x2="100.000000%" y2="50.000000%" id="lgradient113_4">
<stop offset="0" stop-color="#2C2C2C" stop-opacity="1"/>
<stop offset="0.5" stop-color="#FFFFFF" stop-opacity="1"/>
<stop offset="1" stop-color="#2C2C2C" stop-opacity="1"/>
</linearGradient>
<radialGradient cx="50.000000%" cy="50.000000%" r="50.000000%" fx="50.000000%" fy="50.000000%" id="rgradient137_0_0">
<stop offset="0%" stop-color="#FFFFFF" stop-opacity="1"/>
<stop offset="100%" stop-color="#2C2C2C" stop-opacity="1"/>
</radialGradient>
<linearGradient x1="50.000000%" y1="0.000000%" x2="50.000000%" y2="100.000000%" id="lgradient137_0_1">
<stop offset="0" stop-color="#2C2C2C" stop-opacity="1"/>
<stop offset="0.5" stop-color="#FFFFFF" stop-opacity="1"/>
<stop offset="1" stop-color="#2C2C2C" stop-opacity="1"/>
</linearGradient>
<linearGradient x1="0.000000%" y1="50.000000%" x2="100.000000%" y2="50.000000%" id="lgradient137_0_2">
<stop offset="0" stop-color="#2C2C2C" stop-opacity="1"/>
<stop offset="0.5" stop-color="#FFFFFF" stop-opacity="1"/>
<stop offset="1" stop-color="#2C2C2C" stop-opacity="1"/>
</linearGradient>
<linearGradient x1="50.000000%" y1="0.000000%" x2="50.000000%" y2="100.000000%" id="lgradient137_0_3">
<stop offset="0" stop-color="#2C2C2C" stop-opacity="1"/>
<stop offset="0.5" stop-color="#FFFFFF" stop-opacity="1"/>
<stop offset="1" stop-color="#2C2C2C" stop-opacity="1"/>
</linearGradient>
<linearGradient x1="0.000000%" y1="50.000000%" x2="100.000000%" y2="50.000000%" id="lgradient137_0_4">
<stop offset="0" stop-color="#2C2C2C" stop-opacity="1"/>
<stop offset="0.5" stop-color="#FFFFFF" stop-opacity="1"/>
<stop offset="1" stop-color="#2C2C2C" stop-opacity="1"/>
</linearGradient>
</defs>
<line shape-type="line" x1="183" y1="580" x2="183" y2="266" fill="#00FFFF" stroke="#FFFFFF" stroke-width="1.00" stroke-dasharray="10 2"/>
<text font-family="宋体" text-anchor="start" fill="#FFFF00" shape-type="text" id="" font-size="22.250000" x="436" y="55">气化单元</text>
<line shape-type="line" x1="1040" y1="74" x2="56" y2="74" fill="#00FFFF" stroke="#FFFFFF" stroke-width="1.00"/>
<line shape-type="line" x1="54" y1="645" x2="54" y2="75" marker-end="url(#Arrow1)" fill="#00FFFF" stroke="#FFFFFF" stroke-width="1.00"/>
<line shape-type="line" x1="105" y1="645" x2="105" y2="76" marker-end="url(#Arrow1)" fill="#00FFFF" stroke="#FFFFFF" stroke-width="1.00"/>
<line shape-type="line" x1="520" y1="645" x2="23" y2="645" fill="#00FFFF" stroke="#FFFFFF" stroke-width="1.00"/>
<g shape-type="group">
<rect shape-type="rectangle" x="539" y="541" width="62" height="83" stroke="#FFFFFF" stroke-width="1.00" stroke-dasharray="10 2"/>
<line shape-type="line" x1="538" y1="579" x2="519" y2="579" marker-start="url(#Arrow2)" fill="#00FFFF" stroke="#FFFFFF" stroke-width="1.00"/>
<line shape-type="line" x1="519" y1="643" x2="519" y2="579" fill="#00FFFF" stroke="#FFFFFF" stroke-width="1.00"/>
<g shape-type="group">
<rect shape-type="rectangle" x="545" y="551" width="11" height="66" fill="#FFFFFF" stroke="#FFFFFF" stroke-width="1.00"/>
<rect shape-type="rectangle" x="557" y="551" width="12" height="66" fill="#FFFFFF" stroke="#FFFFFF" stroke-width="1.00"/>
<rect shape-type="rectangle" x="570" y="551" width="11" height="66" fill="#FFFFFF" stroke="#FFFFFF" stroke-width="1.00"/>
<rect shape-type="rectangle" x="583" y="551" width="12" height="66" fill="#FFFFFF" stroke="#FFFFFF" stroke-width="1.00"/>
</g>
<path shape-type="arc" d="M 560,550 A 3,5 0 0,0 555,550" fill="none" stroke="#FFFFFF" stroke-width="1.00"/>
<path shape-type="arc" d="M 588,551 A 5,9 0 0,0 580,551" fill="none" stroke="#FFFFFF" stroke-width="1.00"/>
<path shape-type="arc" d="M 567,619 A 4,9 0 0,0 575,619" fill="none" stroke="#FFFFFF" stroke-width="1.00"/>
<line shape-type="line" x1="613" y1="609" x2="601" y2="609" fill="#00FFFF" stroke="#FFFFFF" stroke-width="1.00"/>
<line shape-type="line" x1="613" y1="609" x2="613" y2="521" marker-end="url(#Arrow1)" fill="#00FFFF" stroke="#FFFFFF" stroke-width="1.00"/>
</g>
<g shape-type="group">
<rect shape-type="rectangle" x="431" y="539" width="62" height="83" stroke="#FFFFFF" stroke-width="1.00" stroke-dasharray="10 2"/>
<line shape-type="line" x1="430" y1="577" x2="411" y2="577" marker-start="url(#Arrow2)" fill="#00FFFF" stroke="#FFFFFF" stroke-width="1.00"/>
<line shape-type="line" x1="411" y1="641" x2="411" y2="577" fill="#00FFFF" stroke="#FFFFFF" stroke-width="1.00"/>
<g shape-type="group">
<rect shape-type="rectangle" x="438" y="549" width="11" height="66" fill="#FFFFFF" stroke="#FFFFFF" stroke-width="1.00"/>
<rect shape-type="rectangle" x="450" y="549" width="11" height="66" fill="#FFFFFF" stroke="#FFFFFF" stroke-width="1.00"/>
<rect shape-type="rectangle" x="463" y="549" width="11" height="66" fill="#FFFFFF" stroke="#FFFFFF" stroke-width="1.00"/>
<rect shape-type="rectangle" x="475" y="549" width="11" height="66" fill="#FFFFFF" stroke="#FFFFFF" stroke-width="1.00"/>
</g>
<path shape-type="arc" d="M 452,548 A 2,5 0 0,0 448,548" fill="none" stroke="#FFFFFF" stroke-width="1.00"/>
<path shape-type="arc" d="M 479,549 A 5,9 0 0,0 471,549" fill="none" stroke="#FFFFFF" stroke-width="1.00"/>
<path shape-type="arc" d="M 459,617 A 5,9 0 0,0 467,617" fill="none" stroke="#FFFFFF" stroke-width="1.00"/>
<line shape-type="line" x1="504" y1="607" x2="493" y2="607" fill="#00FFFF" stroke="#FFFFFF" stroke-width="1.00"/>
<line shape-type="line" x1="504" y1="607" x2="504" y2="519" marker-end="url(#Arrow1)" fill="#00FFFF" stroke="#FFFFFF" stroke-width="1.00"/>
</g>
<rect shape-type="rectangle" x="145" y="584" width="68" height="13" fill="#FFFFFF" stroke="#FFFFFF" stroke-width="1.00"/>
<rect shape-type="rectangle" x="236" y="584" width="68" height="13" fill="#FFFFFF" stroke="#FFFFFF" stroke-width="1.00"/>
<line shape-type="line" x1="221" y1="623" x2="175" y2="596" fill="#00FFFF" stroke="#FFFFFF" stroke-width="1.00" stroke-dasharray="10 2"/>
<line shape-type="line" x1="272" y1="598" x2="221" y2="623" fill="#00FFFF" stroke="#FFFFFF" stroke-width="1.00" stroke-dasharray="10 2"/>
<rect shape-type="rectangle" x="150" y="549" width="68" height="13" fill="#FFFFFF" stroke="#FFFFFF" stroke-width="1.00"/>
<rect shape-type="rectangle" x="153" y="487" width="68" height="13" fill="#FFFFFF" stroke="#FFFFFF" stroke-width="1.00"/>
<g shape-type="group">
<rect shape-type="rectangle" x="136" y="388" width="68" height="13" fill="#FFFF00" stroke="#FFFFFF" stroke-width="1.00"/>
<rect shape-type="rectangle" x="136" y="402" width="68" height="13" fill="#FFFFFF" stroke="#FFFFFF" stroke-width="1.00"/>
</g>
<line shape-type="line" x1="139" y1="641" x2="139" y2="417" fill="#00FFFF" stroke="#FFFFFF" stroke-width="1.00" stroke-dasharray="10 2"/>
<line shape-type="line" x1="516" y1="264" x2="183" y2="264" fill="#00FFFF" stroke="#FFFFFF" stroke-width="1.00" stroke-dasharray="10 2"/>
<rect shape-type="rectangle" x="161" y="272" width="41" height="18" fill="#FFFFFF" stroke="#FFFFFF" stroke-width="1.00"/>
<rect shape-type="rectangle" x="316" y="540" width="61" height="83" stroke="#FFFFFF" stroke-width="1.00" stroke-dasharray="10 2"/>
<line shape-type="line" x1="315" y1="578" x2="296" y2="578" marker-start="url(#Arrow2)" fill="#00FFFF" stroke="#FFFFFF" stroke-width="1.00"/>
<line shape-type="line" x1="296" y1="642" x2="296" y2="578" fill="#00FFFF" stroke="#FFFFFF" stroke-width="1.00"/>
<g shape-type="group">
<rect shape-type="rectangle" x="322" y="550" width="11" height="66" fill="#FFFFFF" stroke="#FFFFFF" stroke-width="1.00"/>
<rect shape-type="rectangle" x="334" y="550" width="12" height="66" fill="#FFFFFF" stroke="#FFFFFF" stroke-width="1.00"/>
<rect shape-type="rectangle" x="347" y="550" width="11" height="66" fill="#FFFFFF" stroke="#FFFFFF" stroke-width="1.00"/>
<rect shape-type="rectangle" x="359" y="550" width="12" height="66" fill="#FFFFFF" stroke="#FFFFFF" stroke-width="1.00"/>
</g>
<path shape-type="arc" d="M 336,549 A 2,5 0 0,0 332,549" fill="none" stroke="#FFFFFF" stroke-width="1.00"/>
<path shape-type="arc" d="M 364,550 A 5,9 0 0,0 356,550" fill="none" stroke="#FFFFFF" stroke-width="1.00"/>
<path shape-type="arc" d="M 343,618 A 4,9 0 0,0 351,618" fill="none" stroke="#FFFFFF" stroke-width="1.00"/>
<line shape-type="line" x1="389" y1="608" x2="377" y2="608" fill="#00FFFF" stroke="#FFFFFF" stroke-width="1.00"/>
<line shape-type="line" x1="389" y1="608" x2="389" y2="360" marker-end="url(#Arrow1)" fill="#00FFFF" stroke="#FFFFFF" stroke-width="1.00"/>
<line shape-type="line" x1="614" y1="516" x2="390" y2="516" marker-end="url(#Arrow1)" fill="#00FFFF" stroke="#FFFFFF" stroke-width="1.00"/>
<line shape-type="line" x1="247" y1="529" x2="204" y2="548" fill="#00FFFF" stroke="#FFFFFF" stroke-width="1.00" stroke-dasharray="10 2"/>
<line shape-type="line" x1="400" y1="529" x2="247" y2="529" fill="#00FFFF" stroke="#FFFFFF" stroke-width="1.00" stroke-dasharray="10 2"/>
<line shape-type="line" x1="398" y1="714" x2="398" y2="530" fill="#00FFFF" stroke="#FFFFFF" stroke-width="1.00" stroke-dasharray="10 2"/>
<line shape-type="line" x1="227" y1="469" x2="195" y2="483" fill="#00FFFF" stroke="#FFFFFF" stroke-width="1.00" stroke-dasharray="10 2"/>
<rect shape-type="rectangle" x="227" y="462" width="68" height="13" fill="#FFFFFF" stroke="#FFFFFF" stroke-width="1.00"/>
<rect shape-type="rectangle" x="309" y="425" width="68" height="13" fill="#FFFFFF" stroke="#FFFFFF" stroke-width="1.00"/>
<rect shape-type="rectangle" x="309" y="440" width="68" height="13" fill="#FFFFFF" stroke="#FFFFFF" stroke-width="1.00"/>
<rect shape-type="rectangle" x="304" y="490" width="83" height="13" fill="#FFFFFF" stroke="#FFFFFF" stroke-width="1.00"/>
<line shape-type="line" x1="307" y1="447" x2="297" y2="465" fill="#00FFFF" stroke="#FFFFFF" stroke-width="1.00" stroke-dasharray="10 2"/>
<line shape-type="line" x1="306" y1="490" x2="294" y2="468" fill="#00FFFF" stroke="#FFFFFF" stroke-width="1.00" stroke-dasharray="10 2"/>
<line shape-type="line" x1="391" y1="439" x2="378" y2="439" fill="#00FFFF" stroke="#FFFFFF" stroke-width="1.00" stroke-dasharray="10 2"/>
<line shape-type="line" x1="644" y1="357" x2="391" y2="357" fill="#00FFFF" stroke="#FFFFFF" stroke-width="1.00"/>
<line shape-type="line" x1="644" y1="729" x2="644" y2="356" fill="#00FFFF" stroke="#FFFFFF" stroke-width="1.00"/>
<line shape-type="line" x1="945" y1="715" x2="399" y2="716" fill="#00FFFF" stroke="#FFFFFF" stroke-width="1.00" stroke-dasharray="10 2"/>
<line shape-type="line" x1="836" y1="730" x2="644" y2="730" fill="#00FFFF" stroke="#FFFFFF" stroke-width="1.00"/>
<line shape-type="line" x1="835" y1="730" x2="835" y2="593" fill="#00FFFF" stroke="#FFFFFF" stroke-width="1.00"/>
<g shape-type="group">
<g shape-type="group">
<polygon shape-type="trapezium" points="382,380 397,380 389,390 389,390 382,380" fill="#C0C0C0" stroke="#FFFFFF" stroke-width="1.00"/>
<polygon shape-type="trapezium" points="396,400 382,400 389,390 389,390 396,400" fill="#C0C0C0" stroke="#FFFFFF" stroke-width="1.00"/>
</g>
<line shape-type="line" x1="390" y1="390" x2="379" y2="390" fill="#C0C0C0" stroke="#FFFFFF" stroke-width="1.00"/>
<rect shape-type="rectangle" x="373" y="382" width="6" height="14" fill="#C0C0C0" stroke="#FFFFFF" stroke-width="1.00"/>
</g>
<line shape-type="line" x1="389" y1="412" x2="263" y2="412" fill="#00FFFF" stroke="#FFFFFF" stroke-width="1.00"/>
<line shape-type="line" x1="260" y1="411" x2="260" y2="76" fill="#00FFFF" stroke="#FFFFFF" stroke-width="1.00"/>
<line shape-type="line" x1="446" y1="355" x2="446" y2="74" fill="#00FFFF" stroke="#FFFFFF" stroke-width="1.00"/>
<g shape-type="group">
<rect shape-type="rectangle" x="370" y="307" width="68" height="13" fill="#FFFF00" stroke="#FFFFFF" stroke-width="1.00"/>
<rect shape-type="rectangle" x="370" y="321" width="68" height="13" fill="#FFFFFF" stroke="#FFFFFF" stroke-width="1.00"/>
</g>
<line shape-type="line" x1="413" y1="356" x2="414" y2="334" fill="#00FFFF" stroke="#FFFFFF" stroke-width="1.00" stroke-dasharray="10 2"/>
<g shape-type="group">
<rect shape-type="rectangle" x="410" y="252" width="68" height="14" fill="#FFFFFF" stroke="#FFFFFF" stroke-width="1.00"/>
<rect shape-type="rectangle" x="410" y="267" width="68" height="12" fill="#FFFFFF" stroke="#FFFFFF" stroke-width="1.00"/>
</g>
<rect shape-type="rectangle" x="516" y="254" width="41" height="18" fill="#FFFFFF" stroke="#FFFFFF" stroke-width="1.00"/>
<g shape-type="group">
<rect shape-type="rectangle" x="577" y="327" width="68" height="14" fill="#FFFF00" stroke="#FFFFFF" stroke-width="1.00"/>
<rect shape-type="rectangle" x="577" y="342" width="68" height="12" fill="#FFFFFF" stroke="#FFFFFF" stroke-width="1.00"/>
</g>
<g shape-type="group">
<rect shape-type="rectangle" x="577" y="291" width="68" height="13" fill="#FFFF00" stroke="#FFFFFF" stroke-width="1.00"/>
<rect shape-type="rectangle" x="577" y="304" width="68" height="14" fill="#FFFFFF" stroke="#FFFFFF" stroke-width="1.00"/>
</g>
<g shape-type="group">
<rect shape-type="rectangle" x="576" y="254" width="68" height="13" fill="#FFFF00" stroke="#FFFFFF" stroke-width="1.00"/>
<rect shape-type="rectangle" x="576" y="268" width="68" height="13" fill="#FFFFFF" stroke="#FFFFFF" stroke-width="1.00"/>
</g>
<line shape-type="line" x1="575" y1="261" x2="559" y2="261" fill="#00FFFF" stroke="#FFFFFF" stroke-width="1.00" stroke-dasharray="10 2"/>
<line shape-type="line" x1="575" y1="304" x2="558" y2="264" fill="#00FFFF" stroke="#FFFFFF" stroke-width="1.00" stroke-dasharray="10 2"/>
<line shape-type="line" x1="575" y1="339" x2="555" y2="271" fill="#00FFFF" stroke="#FFFFFF" stroke-width="1.00" stroke-dasharray="10 2"/>
<text font-family="宋体" text-anchor="start" fill="#FFFF00" shape-type="text" id="" font-size="8.750000" x="645" y="265">L</text>
<text font-family="宋体" text-anchor="start" fill="#FFFF00" shape-type="text" id="" font-size="8.750000" x="648" y="300">L</text>
<text font-family="宋体" text-anchor="start" fill="#FFFF00" shape-type="text" id="" font-size="8.750000" x="647" y="337">L</text>
<text font-family="宋体" text-anchor="start" fill="#FFFF00" shape-type="text" id="" font-size="8.750000" x="439" y="318">L</text>
<text font-family="宋体" text-anchor="start" fill="#FFFF00" shape-type="text" id="" font-size="8.750000" x="206" y="396">L</text>
<rect shape-type="rectangle" x="864" y="709" width="48" height="13" fill="#FFFFFF" stroke="#FFFFFF" stroke-width="1.00"/>
<rect shape-type="rectangle" x="941" y="708" width="73" height="13" fill="#FFFFFF" stroke="#FFFFFF" stroke-width="1.00"/>
<line shape-type="line" x1="725" y1="568" x2="644" y2="568" fill="#00FFFF" stroke="#FFFFFF" stroke-width="1.00"/>
<line shape-type="line" x1="729" y1="644" x2="729" y2="463" fill="#00FFFF" stroke="#FFFFFF" stroke-width="1.00"/>
<line shape-type="line" x1="744" y1="643" x2="744" y2="465" fill="#00FFFF" stroke="#FFFFFF" stroke-width="1.00"/>
<line shape-type="line" x1="989" y1="592" x2="748" y2="592" fill="#00FFFF" stroke="#FFFFFF" stroke-width="1.00"/>
<line shape-type="line" x1="990" y1="592" x2="990" y2="369" fill="#00FFFF" stroke="#FFFFFF" stroke-width="1.00"/>
<line shape-type="line" x1="991" y1="371" x2="659" y2="371" fill="#00FFFF" stroke="#FFFFFF" stroke-width="1.00"/>
<line shape-type="line" x1="959" y1="591" x2="959" y2="539" fill="#00FFFF" stroke="#FFFFFF" stroke-width="1.00"/>
<line shape-type="line" x1="1029" y1="540" x2="959" y2="540" fill="#00FFFF" stroke="#FFFFFF" stroke-width="1.00"/>
<line shape-type="line" x1="1029" y1="539" x2="1029" y2="74" fill="#00FFFF" stroke="#FFFFFF" stroke-width="1.00"/>
<line shape-type="line" x1="1038" y1="129" x2="554" y2="129" fill="#00FFFF" stroke="#FFFFFF" stroke-width="1.00"/>
<rect shape-type="rectangle" x="496" y="114" width="56" height="27" fill="#FFFFFF" stroke="#FFFFFF" stroke-width="1.00"/>
<line shape-type="line" x1="1033" y1="271" x2="873" y2="271" fill="#00FFFF" stroke="#FFFFFF" stroke-width="1.00"/>
<g shape-type="group">
<g shape-type="group">
<rect shape-type="rectangle" x="875" y="217" width="68" height="13" fill="#FFFF00" stroke="#FFFFFF" stroke-width="1.00"/>
<rect shape-type="rectangle" x="875" y="231" width="68" height="13" fill="#FFFFFF" stroke="#FFFFFF" stroke-width="1.00"/>
</g>
<line shape-type="line" x1="919" y1="268" x2="919" y2="245" fill="#00FFFF" stroke="#FFFFFF" stroke-width="1.00" stroke-dasharray="10 2"/>
<text font-family="宋体" text-anchor="start" fill="#FFFF00" shape-type="text" id="" font-size="8.750000" x="944" y="228">L</text>
</g>
<g shape-type="group">
<line shape-type="line" x1="659" y1="351" x2="659" y2="267" fill="#00FFFF" stroke="#FFFFFF" stroke-width="1.00"/>
<rect shape-type="rectangle" x="667" y="177" width="207" height="155" stroke="#FFFFFF" stroke-width="1.00" stroke-dasharray="10 2"/>
<line shape-type="line" x1="691" y1="266" x2="659" y2="266" marker-start="url(#Arrow2)" fill="#00FFFF" stroke="#FFFFFF" stroke-width="1.00"/>
<line shape-type="line" x1="692" y1="313" x2="692" y2="215" fill="#00FFFF" stroke="#FFFFFF" stroke-width="1.00"/>
<line shape-type="line" x1="847" y1="313" x2="847" y2="215" fill="#00FFFF" stroke="#FFFFFF" stroke-width="1.00"/>
<line shape-type="line" x1="846" y1="235" x2="695" y2="235" fill="#00FFFF" stroke="#FFFFFF" stroke-width="1.00"/>
<line shape-type="line" x1="846" y1="282" x2="695" y2="282" fill="#00FFFF" stroke="#FFFFFF" stroke-width="1.00"/>
</g>
<line shape-type="line" x1="953" y1="270" x2="953" y2="132" fill="#00FFFF" stroke="#FFFFFF" stroke-width="1.00"/>
<g shape-type="group">
<g shape-type="group">
<polygon shape-type="trapezium" points="996,277 996,264 986,270 986,270 996,277" fill="#C0C0C0" stroke="#FFFFFF" stroke-width="1.00"/>
<polygon shape-type="trapezium" points="978,264 978,276 986,270 986,270 978,264" fill="#C0C0C0" stroke="#FFFFFF" stroke-width="1.00"/>
</g>
<line shape-type="line" x1="986" y1="270" x2="986" y2="260" fill="#C0C0C0" stroke="#FFFFFF" stroke-width="1.00"/>
<rect shape-type="rectangle" x="981" y="254" width="12" height="6" fill="#C0C0C0" stroke="#FFFFFF" stroke-width="1.00"/>
</g>
<rect shape-type="rectangle" x="738" y="183" width="80" height="34" fill="#FFFFFF" stroke="#FFFFFF" stroke-width="1.00"/>
<rect shape-type="rectangle" x="739" y="229" width="32" height="13" fill="#FFFFFF" stroke="#FFFFFF" stroke-width="1.00"/>
<rect shape-type="rectangle" x="744" y="276" width="32" height="13" fill="#FFFFFF" stroke="#FFFFFF" stroke-width="1.00"/>
<g shape-type="group">
<text font-family="宋体" text-anchor="start" fill="#FF0000" shape-type="text" id="" font-size="8.750000" x="718" y="491">LL</text>
<line shape-type="line" x1="729" y1="496" x2="711" y2="496" fill="#00FFFF" stroke="#FFFFFF" stroke-width="1.00" stroke-dasharray="10 2"/>
<rect shape-type="rectangle" x="649" y="481" width="68" height="14" fill="#DD4722" stroke="#FFFFFF" stroke-width="1.00"/>
<rect shape-type="rectangle" x="649" y="496" width="68" height="12" fill="#FFFFFF" stroke="#FFFFFF" stroke-width="1.00"/>
</g>
<g shape-type="group">
<text font-family="宋体" text-anchor="start" fill="#FF0000" shape-type="text" id="" font-size="8.000000" x="718" y="526">LL</text>
<line shape-type="line" x1="729" y1="530" x2="711" y2="530" fill="#FFFFFF" stroke="#FFFFFF" stroke-width="1.00" stroke-dasharray="10 2"/>
<rect shape-type="rectangle" x="649" y="516" width="68" height="13" fill="#FFFFFF" stroke="#FFFFFF" stroke-width="1.00"/>
<rect shape-type="rectangle" x="649" y="530" width="68" height="13" fill="#FFFFFF" stroke="#FFFFFF" stroke-width="1.00"/>
</g>
<g shape-type="group">
<text font-family="宋体" text-anchor="start" fill="#FF0000" shape-type="text" id="" font-size="8.000000" x="716" y="610">LL</text>
<line shape-type="line" x1="727" y1="615" x2="709" y2="615" fill="#00FFFF" stroke="#FFFFFF" stroke-width="1.00" stroke-dasharray="10 2"/>
<rect shape-type="rectangle" x="647" y="600" width="68" height="14" fill="#DD4722" stroke="#FFFFFF" stroke-width="1.00"/>
<rect shape-type="rectangle" x="647" y="615" width="68" height="12" fill="#FFFFFF" stroke="#FFFFFF" stroke-width="1.00"/>
</g>
<g shape-type="group">
<text font-family="宋体" text-anchor="start" fill="#FF0000" shape-type="text" id="" font-size="8.000000" x="825" y="606">LL</text>
<line shape-type="line" x1="763" y1="608" x2="745" y2="608" fill="#00FFFF" stroke="#FFFFFF" stroke-width="1.00" stroke-dasharray="10 2"/>
<rect shape-type="rectangle" x="757" y="596" width="67" height="13" fill="#DD4722" stroke="#FFFFFF" stroke-width="1.00"/>
<rect shape-type="rectangle" x="757" y="610" width="67" height="13" fill="#FFFFFF" stroke="#FFFFFF" stroke-width="1.00"/>
</g>
<g shape-type="group">
<text font-family="宋体" text-anchor="start" fill="#FF0000" shape-type="text" id="" font-size="8.750000" x="827" y="562">LL</text>
<line shape-type="line" x1="765" y1="565" x2="747" y2="565" fill="#00FFFF" stroke="#FFFFFF" stroke-width="1.00" stroke-dasharray="10 2"/>
<rect shape-type="rectangle" x="759" y="552" width="67" height="14" fill="#DD4722" stroke="#FFFFFF" stroke-width="1.00"/>
<rect shape-type="rectangle" x="759" y="567" width="67" height="12" fill="#FFFFFF" stroke="#FFFFFF" stroke-width="1.00"/>
</g>
<g shape-type="group">
<g shape-type="group">
<polygon shape-type="trapezium" points="902,599 902,585 893,592 893,592 902,599" fill="#C0C0C0" stroke="#FFFFFF" stroke-width="1.00"/>
<polygon shape-type="trapezium" points="884,585 884,598 893,592 893,592 884,585" fill="#C0C0C0" stroke="#FFFFFF" stroke-width="1.00"/>
</g>
<line shape-type="line" x1="893" y1="592" x2="893" y2="582" fill="#C0C0C0" stroke="#FFFFFF" stroke-width="1.00"/>
<rect shape-type="rectangle" x="888" y="576" width="11" height="6" fill="#C0C0C0" stroke="#FFFFFF" stroke-width="1.00"/>
</g>
<g shape-type="group">
<line shape-type="line" x1="190" y1="676" x2="190" y2="645" fill="#00FFFF" stroke="#FFFFFF" stroke-width="1.00"/>
<line shape-type="line" x1="251" y1="676" x2="190" y2="676" marker-start="url(#Arrow2)" fill="#00FFFF" stroke="#FFFFFF" stroke-width="1.00"/>
</g>
<line shape-type="line" x1="249" y1="744" x2="249" y2="648" marker-start="url(#Arrow2)" fill="#00FFFF" stroke="#FFFFFF" stroke-width="1.00"/>
<rect shape-type="rectangle" x="252" y="620" width="41" height="18" fill="#FFFFFF" stroke="#FFFFFF" stroke-width="1.00"/>
<g shape-type="group">
<line shape-type="line" x1="222" y1="644" x2="222" y2="622" fill="#00FFFF" stroke="#FFFFFF" stroke-width="1.00" stroke-dasharray="10 2"/>
<g shape-type="group">
<polygon shape-type="trapezium" points="232,652 232,638 223,645 223,645 232,652" fill="#FF0000" stroke="#FF0000" stroke-width="1.00"/>
<polygon shape-type="trapezium" points="214,638 214,651 222,645 222,645 214,638" fill="#FF0000" stroke="#FF0000" stroke-width="1.00"/>
</g>
<line shape-type="line" x1="223" y1="644" x2="223" y2="636" fill="#FF0000" stroke="#FFFFFF" stroke-width="1.00"/>
<path shape-type="chord" d="M 235,636 A 13,13 0 0,0 214,636 z" fill="#FFFFFF" stroke="#FFFFFF" stroke-width="1.00"/>
</g>
<line shape-type="line" x1="250" y1="741" x2="9" y2="741" fill="#00FFFF" stroke="#FFFFFF" stroke-width="1.00"/>
<g shape-type="group">
<rect shape-type="rectangle" x="255" y="662" width="68" height="13" fill="#FFFFFF" stroke="#FFFFFF" stroke-width="1.00"/>
<rect shape-type="rectangle" x="255" y="676" width="68" height="13" fill="#FFFFFF" stroke="#FFFFFF" stroke-width="1.00"/>
</g>
<line shape-type="line" x1="276" y1="660" x2="276" y2="646" fill="#00FFFF" stroke="#FFFFFF" stroke-width="1.00" stroke-dasharray="10 2"/>
<g shape-type="group">
<rect shape-type="rectangle" x="60" y="701" width="68" height="14" fill="#FFFFFF" stroke="#FFFFFF" stroke-width="1.00"/>
<rect shape-type="rectangle" x="60" y="716" width="68" height="12" fill="#FFFFFF" stroke="#FFFFFF" stroke-width="1.00"/>
</g>
<g shape-type="group">
<rect shape-type="rectangle" x="136" y="702" width="68" height="14" fill="#FFFFFF" stroke="#FFFFFF" stroke-width="1.00"/>
<rect shape-type="rectangle" x="136" y="717" width="68" height="12" fill="#FFFFFF" stroke="#FFFFFF" stroke-width="1.00"/>
</g>
<line shape-type="line" x1="91" y1="742" x2="91" y2="728" fill="#00FFFF" stroke="#FFFFFF" stroke-width="1.00" stroke-dasharray="10 2"/>
<line shape-type="line" x1="167" y1="743" x2="167" y2="729" fill="#00FFFF" stroke="#FFFFFF" stroke-width="1.00" stroke-dasharray="10 2"/>
<line shape-type="line" x1="286" y1="739" x2="252" y2="739" marker-end="url(#Arrow1)" fill="#00FFFF" stroke="#FFFF00" stroke-width="1.00"/>
<g shape-type="group">
<rect shape-type="rectangle" x="2" y="642" width="16" height="7" stroke="#FFFFFF" stroke-width="1.00"/>
<polygon shape-type="trapezium" points="18,636 18,655 29,646 29,646 18,636" stroke="#FFFFFF" stroke-width="1.00"/>
</g>
<g shape-type="group">
<rect shape-type="rectangle" x="14" y="736" width="16" height="9" stroke="#FFFFFF" stroke-width="1.00"/>
<polygon shape-type="trapezium" points="14,750 14,732 3,741 3,741 14,750" stroke="#FFFFFF" stroke-width="1.00"/>
</g>
<g shape-type="group">
<rect shape-type="rectangle" x="1039" y="70" width="15" height="8" stroke="#FFFFFF" stroke-width="1.00"/>
<polygon shape-type="trapezium" points="1054,65 1054,84 1066,75 1066,75 1054,65" stroke="#FFFFFF" stroke-width="1.00"/>
</g>
<g shape-type="group">
<rect shape-type="rectangle" x="1039" y="125" width="15" height="7" stroke="#FFFFFF" stroke-width="1.00"/>
<polygon shape-type="trapezium" points="1054,120 1054,139 1066,130 1066,130 1054,120" stroke="#FFFFFF" stroke-width="1.00"/>
</g>
<g shape-type="group">
<rect shape-type="rectangle" x="1036" y="267" width="16" height="7" stroke="#FFFFFF" stroke-width="1.00"/>
<polygon shape-type="trapezium" points="1052,261 1052,280 1063,271 1063,271 1052,261" stroke="#FFFFFF" stroke-width="1.00"/>
</g>
<g shape-type="group">
<g shape-type="group">
<rect shape-type="rectangle" x="891" y="295" width="67" height="12" fill="#FFFF00" stroke="#FFFFFF" stroke-width="1.00"/>
<rect shape-type="rectangle" x="891" y="308" width="67" height="13" fill="#FFFFFF" stroke="#FFFFFF" stroke-width="1.00"/>
</g>
<line shape-type="line" x1="926" y1="289" x2="926" y2="274" fill="#00FFFF" stroke="#FFFFFF" stroke-width="1.00" stroke-dasharray="10 2"/>
<text font-family="宋体" text-anchor="start" fill="#FFFF00" shape-type="text" id="" font-size="8.750000" x="959" y="303">L</text>
</g>
<g shape-type="group">
<g shape-type="group">
<rect shape-type="rectangle" x="920" y="616" width="68" height="12" fill="#FFFF00" stroke="#FFFFFF" stroke-width="1.00"/>
<rect shape-type="rectangle" x="920" y="629" width="68" height="13" fill="#FFFFFF" stroke="#FFFFFF" stroke-width="1.00"/>
</g>
<line shape-type="line" x1="955" y1="609" x2="955" y2="595" fill="#00FFFF" stroke="#FFFFFF" stroke-width="1.00" stroke-dasharray="10 2"/>
<text font-family="宋体" text-anchor="start" fill="#FFFF00" shape-type="text" id="" font-size="8.750000" x="989" y="624">L</text>
</g>
<g shape-type="group">
<rect shape-type="rectangle" x="847" y="615" width="68" height="13" fill="#FFFFFF" stroke="#FFFFFF" stroke-width="1.00"/>
<rect shape-type="rectangle" x="847" y="629" width="68" height="13" fill="#FFFFFF" stroke="#FFFFFF" stroke-width="1.00"/>
</g>
<line shape-type="line" x1="910" y1="614" x2="910" y2="593" fill="#00FFFF" stroke="#FFFFFF" stroke-width="1.00" stroke-dasharray="10 2"/>
<line shape-type="line" x1="892" y1="706" x2="892" y2="643" fill="#00FFFF" stroke="#FFFFFF" stroke-width="1.00" stroke-dasharray="10 2"/>
<g shape-type="group">
<ellipse shape-type="ellipse" cx="695" cy="451" rx="5" ry="12" fill="url(#rgradient113_0)" stroke="#000000" stroke-width="1.00"/>
<rect shape-type="rectangle" x="697" y="440" width="64" height="23" fill="url(#lgradient113_1)" stroke="#000000" stroke-width="1.00"/>
<rect shape-type="rectangle" x="759" y="434" width="10" height="34" fill="url(#lgradient113_2)" stroke="#000000" stroke-width="1.00"/>
<rect shape-type="rectangle" x="767" y="444" width="15" height="14" fill="url(#lgradient113_3)" stroke="#000000" stroke-width="1.00"/>
<rect shape-type="rectangle" x="781" y="439" width="28" height="27" fill="url(#lgradient113_4)" stroke="#000000" stroke-width="1.00"/>
</g>
<ellipse shape-type="ellipse" cx="837" cy="451" rx="14" ry="13" fill="#C0C0C0" stroke="#000000" stroke-width="1.00"/>
<text font-family="宋体" text-anchor="start" fill="#000000" shape-type="text" id="" font-size="12.500000" x="832" y="457">M</text>
<ellipse shape-type="ellipse" cx="908" cy="419" rx="14" ry="13" fill="#C0C0C0" stroke="#000000" stroke-width="1.00"/>
<text font-family="宋体" text-anchor="start" fill="#FFFFFF" shape-type="text" id="" font-size="12.500000" x="893" y="403">调功</text>
<g shape-type="group">
<rect shape-type="rectangle" x="790" y="388" width="68" height="13" fill="#FFFFFF" stroke="#FFFFFF" stroke-width="1.00"/>
<rect shape-type="rectangle" x="790" y="402" width="68" height="13" fill="#FFFFFF" stroke="#FFFFFF" stroke-width="1.00"/>
</g>
<text font-family="宋体" text-anchor="start" fill="#00FF00" shape-type="text" id="" font-size="12.500000" x="470" y="249">M</text>
<g shape-type="group">
<g shape-type="group">
<polygon shape-type="trapezium" points="90,652 90,639 80,645 80,645 90,652" fill="#C0C0C0" stroke="#FFFFFF" stroke-width="1.00"/>
<polygon shape-type="trapezium" points="72,639 72,651 80,645 80,645 72,639" fill="#C0C0C0" stroke="#FFFFFF" stroke-width="1.00"/>
</g>
<line shape-type="line" x1="80" y1="645" x2="80" y2="635" fill="#C0C0C0" stroke="#FFFFFF" stroke-width="1.00"/>
<rect shape-type="rectangle" x="75" y="629" width="11" height="6" fill="#C0C0C0" stroke="#FFFFFF" stroke-width="1.00"/>
</g>
<text font-family="宋体" text-anchor="start" fill="#00FF00" shape-type="text" id="" font-size="12.500000" x="211" y="663">0.0</text>
<text font-family="宋体" text-anchor="start" fill="#FFFFFF" shape-type="text" id="" font-size="9.500000" x="992" y="58">去BOG总管</text>
<text font-family="宋体" text-anchor="start" fill="#FFFFFF" shape-type="text" id="" font-size="9.500000" x="978" y="114">去冷火炬总管</text>
<text font-family="宋体" text-anchor="start" fill="#FFFFFF" shape-type="text" id="" font-size="9.500000" x="991" y="249">去外输管线</text>
<ellipse shape-type="ellipse" cx="863" cy="684" rx="14" ry="13" fill="#C0C0C0" stroke="#000000" stroke-width="1.00"/>
<text font-family="宋体" text-anchor="start" fill="#FFFFFF" shape-type="text" id="" font-size="12.500000" x="848" y="668">调功</text>
<g shape-type="group">
<polygon shape-type="trapezium" points="838,288 838,273 828,280 828,280 838,288" fill="#C0C0C0" stroke="#FFFFFF" stroke-width="1.00"/>
<polygon shape-type="trapezium" points="819,273 819,286 827,280 827,280 819,273" fill="#C0C0C0" stroke="#FFFFFF" stroke-width="1.00"/>
</g>
<line shape-type="line" x1="828" y1="280" x2="828" y2="270" fill="#C0C0C0" stroke="#FFFFFF" stroke-width="1.00"/>
<rect shape-type="rectangle" x="822" y="264" width="12" height="6" fill="#FF8000" stroke="#FF8000" stroke-width="1.00"/>
<g shape-type="group">
<polygon shape-type="trapezium" points="836,241 836,227 827,234 827,234 836,241" fill="#C0C0C0" stroke="#FFFFFF" stroke-width="1.00"/>
<polygon shape-type="trapezium" points="818,227 818,240 826,234 826,234 818,227" fill="#C0C0C0" stroke="#FFFFFF" stroke-width="1.00"/>
</g>
<line shape-type="line" x1="827" y1="233" x2="827" y2="224" fill="#C0C0C0" stroke="#FFFFFF" stroke-width="1.00"/>
<rect shape-type="rectangle" x="821" y="218" width="12" height="6" fill="#FF8000" stroke="#FF8000" stroke-width="1.00"/>
<text font-family="宋体" text-anchor="start" fill="#FFFFFF" shape-type="text" id="" font-size="8.000000" x="-9" y="631">来自外输泵</text>
<text font-family="宋体" text-anchor="start" fill="#FFFFFF" shape-type="text" id="" font-size="8.000000" x="-1" y="724">排净总管</text>
<text font-family="宋体" text-anchor="start" fill="#FFFFFF" shape-type="text" id="" font-size="8.000000" x="283" y="742">氮气吹扫</text>
<text font-family="宋体" text-anchor="start" fill="#FFFFFF" shape-type="text" id="" font-size="8.000000">
<tspan x="320" y="632"> E-5001A</tspan>
<tspan x="320" y="641">空温式气化部</tspan>
</text>
<g shape-type="group">
<g shape-type="group">
<ellipse shape-type="ellipse" cx="696" cy="655" rx="4" ry="12" fill="url(#rgradient137_0_0)" stroke="#000000" stroke-width="1.00"/>
<rect shape-type="rectangle" x="697" y="644" width="55" height="23" fill="url(#lgradient137_0_1)" stroke="#000000" stroke-width="1.00"/>
<rect shape-type="rectangle" x="751" y="638" width="7" height="35" fill="url(#lgradient137_0_2)" stroke="#000000" stroke-width="1.00"/>
<rect shape-type="rectangle" x="756" y="648" width="14" height="15" fill="url(#lgradient137_0_3)" stroke="#000000" stroke-width="1.00"/>
<rect shape-type="rectangle" x="769" y="643" width="24" height="27" fill="url(#lgradient137_0_4)" stroke="#000000" stroke-width="1.00"/>
</g>
<ellipse shape-type="ellipse" cx="816" cy="655" rx="12" ry="14" fill="#C0C0C0" stroke="#000000" stroke-width="1.00"/>
<text font-family="宋体" text-anchor="start" fill="#000000" shape-type="text" id="" font-size="13.250000" x="811" y="661">M</text>
</g>
<text font-family="宋体" text-anchor="start" fill="#FFFFFF" shape-type="text" id="" font-size="8.000000" x="48" y="617">XV-500201</text>
<text font-family="宋体" text-anchor="start" fill="#FFFFFF" shape-type="text" id="" font-size="8.000000">
<tspan x="435" y="633"> E-5001B</tspan>
<tspan x="435" y="642">空温式气化器</tspan>
</text>
<text font-family="宋体" text-anchor="start" fill="#FFFFFF" shape-type="text" id="" font-size="8.000000">
<tspan x="538" y="635"> E-5001C</tspan>
<tspan x="538" y="644">空温式气化器</tspan>
</text>
<text font-family="宋体" text-anchor="start" fill="#FFFFFF" shape-type="text" id="" font-size="8.000000" x="308" y="392">XV-500202</text>
<g shape-type="group">
<g shape-type="group">
<polygon shape-type="trapezium" points="665,576 665,563 655,569 655,569 665,576" fill="#C0C0C0" stroke="#FFFFFF" stroke-width="1.00"/>
<polygon shape-type="trapezium" points="647,563 647,575 655,569 655,569 647,563" fill="#C0C0C0" stroke="#FFFFFF" stroke-width="1.00"/>
</g>
<line shape-type="line" x1="655" y1="569" x2="655" y2="559" fill="#C0C0C0" stroke="#FFFFFF" stroke-width="1.00"/>
<rect shape-type="rectangle" x="650" y="553" width="11" height="6" fill="#C0C0C0" stroke="#FFFFFF" stroke-width="1.00"/>
</g>
<text font-family="宋体" text-anchor="start" fill="#FFFFFF" shape-type="text" id="" font-size="8.000000" x="638" y="587">XV-500301</text>
<text font-family="宋体" text-anchor="start" fill="#FFFFFF" shape-type="text" id="" font-size="8.000000" x="847" y="610">XV-500302</text>
<text font-family="宋体" text-anchor="start" fill="#00FF00" shape-type="text" id="" font-size="12.500000" x="911" y="614">M</text>
<text font-family="宋体" text-anchor="start" fill="#FFFFFF" shape-type="text" id="" font-size="8.000000">
<tspan x="673" y="198"> E-5001</tspan>
<tspan x="673" y="207">外输气计量站</tspan>
</text>
<text font-family="宋体" text-anchor="start" fill="#FFFFFF" shape-type="text" id="" font-size="8.000000" x="782" y="256">XV-500401A</text>
<text font-family="宋体" text-anchor="start" fill="#FFFFFF" shape-type="text" id="" font-size="8.000000" x="780" y="301">XV-500401B</text>
<text font-family="宋体" text-anchor="start" fill="#FFFFFF" shape-type="text" id="" font-size="8.000000" x="955" y="291">XV-500402</text>
<a xlink:href="..\LNG总貌.svg">
<g shape-type="button">
<rect fill="#C0C0C0" stroke-width="0.3" stroke="#FFFFFF" x="995" y="736" width="51" height="29" shape-type="buttonrect"/>
<text font-family="宋体" text-anchor="middle" dominant-baseline="middle" fill="#000000" font-size="13.500000" x="1020" y="756" shape-type="buttontext">返回</text>
</g>
</a>
</svg>