<?xml version="1.0" encoding="UTF-8"?>
<svg height="100%" width="100%" viewBox="0 0 64000 32000" version="1.1" xmlns="http://www.w3.org/2000/svg" xmlns:xlink="http://www.w3.org/1999/xlink" xmlns:PB="urn:osisoft-com-pb" xmlns:PBI="urn:osisoft-com-interface" xmlns:PBD="urn:osisoft-com-data" style="background-color:#C0C0C0">
  <title>Graphic160</title>
  <defs>
    <PBD:TagUses tag="\\RTDBB\170_SE_903">
      <PBI:Symbol name="DATAPOINT155" PB:Type="7" />
    </PBD:TagUses>
    <PBD:TagUses tag="\\RTDBB\170_SE_902">
      <PBI:Symbol name="DATAPOINT156" PB:Type="7" />
    </PBD:TagUses>
    <PBD:TagUses tag="\\RTDBB\170_SE_906">
      <PBI:Symbol name="DATAPOINT157" PB:Type="7" />
    </PBD:TagUses>
  </defs>
  <rect x="21700" y="10580" width="1620" height="1120" stroke="#000000" stroke-width="20" fill="#808080" />
  <rect x="22140" y="9480" width="740" height="160" stroke="#000000" stroke-width="20" fill="#808080" />
  <path d="M 22520 9860 l -820 740 1640 0 -820 -740 0 0" stroke="#000000" stroke-width="20" fill="#808080" />
  <rect x="22240" y="9640" width="540" height="500" stroke="#000000" stroke-width="20" fill="#808080" />
  <path d="M 22540 6040 l 919 -1116 -21 -15 -21 -14 -22 -15 -21 -14 -21 -14 -23 -13 -22 -13 -23 -13 -23 -12 -23 -12 -22 -12 -24 -11 -24 -10 -24 -11 -23 -10 -25 -9 -24 -9 -25 -9 -25 -8 -24 -8 -26 -8 -25 -7 -25 -6 -25 -7 -26 -6 -25 -5 -26 -6 -26 -4 -26 -4 -26 -4 -26 -3 -25 -3 -26 -3 -26 -1 -26 -3 -27 0 -26 -1 -26 -1 -26 1 -26 1 -26 0 -27 2 -26 1 -26 3 -26 3 -26 3 -25 4 -27 4 -25 4 -26 5 -26 6 -25 5 -25 6 -26 7 -25 6 -24 8 -25 8 -25 8 -25 8 -23 10 -25 9 -23 10 -25 10 -24 11 -22 11 -24 11 -22 12 -23 12 -23 12 -22 13 -22 14 -22 13 -22 15 -20 14 -22 14 907 1136" stroke="#000000" stroke-width="20" fill="#808080" />
  <path d="M 22560 7620 l -900 -640 1780 0 -880 640 0 0" stroke="#000000" stroke-width="20" fill="#808080" />
  <rect x="21680" y="4900" width="1760" height="2080" stroke="#000000" stroke-width="20" fill="#808080" />
  <path id="POLYGON47" d="M 14400 5840 l 7320 0" stroke="#000000" stroke-width="40" fill="none" />
  <path id="LINE47" d="M 22540 9500 l 0 -1900" stroke="#000000" stroke-width="40" fill="none" />
  <path id="LINE52" d="M 14260 11960 l 0 -2640" stroke="#000000" stroke-width="40" fill="none" />
  <path id="LINE57" d="M 13080 12020 l 13560 0" stroke="#000000" stroke-width="40" fill="none" />
  <path id="LINE58" d="M 13100 15000 l 0 -3000" stroke="#000000" stroke-width="40" fill="none" />
  <path id="LINE59" d="M 13060 15000 l 5080 0" stroke="#000000" stroke-width="40" fill="none" />
  <g name="Tank20">
    <path d="M 19594 15701 l 0 -1310 -4 -16 -10 -14 -22 -17 -21 -11 -31 -13 -41 -11 -41 -11 -47 -9 -53 -11 -53 -5 -62 -8 -67 -6 -64 -5 -72 0 -72 -6 -74 0 -74 0 -77 6 -67 0 -69 5 -62 6 -62 8 -58 5 -48 11 -47 9 -46 11 -36 11 -31 13 -26 11 -15 17 -9 14 -5 16 0 1310 0 0 0 0 0 0 0 0 5 17 9 13 15 17 26 11 31 14 36 11 46 11 47 8 48 11 58 5 62 11 62 3 69 6 67 0 77 5 74 0 74 0 72 -5 72 0 64 -6 67 -3 62 -11 53 -5 53 -11 47 -8 41 -11 41 -11 31 -14 21 -11 22 -17 10 -13 4 -17 0 0 0 0 0 0 0 0 0 0" stroke-width="0" fill="#808080" />
    <path d="M 19594 15701 l 0 -1310 0 0 -4 -16 -10 -14 -22 -17 -21 -11 -31 -13 -41 -11 -41 -11 -47 -9 -53 -11 -53 -5 -62 -8 -67 -6 -64 -5 -72 0 -72 -6 -74 0 0 0 -74 0 -77 6 -67 0 -69 5 -62 6 -62 8 -58 5 -48 11 -47 9 -46 11 -36 11 -31 13 -26 11 -15 17 -9 14 -5 16 0 1310 0 0 0 0 0 0 0 0 0 0 0 0 5 17 9 13 15 17 26 11 31 14 36 11 46 11 47 8 48 11 58 5 62 11 62 3 69 6 67 0 77 5 74 0 0 0 74 0 72 -5 72 0 64 -6 67 -3 62 -11 53 -5 53 -11 47 -8 41 -11 41 -11 31 -14 21 -11 22 -17 10 -13 4 -17 0 0 0 0 0 0 0 0 0 0" stroke="#000000" stroke-width="20" fill="none" />
    <path d="M 19594 15723 l 0 -11 0 -11 0 0 0 0 -4 17 -10 13 -22 17 -21 11 -31 14 -41 11 -41 11 -47 8 -53 11 -53 5 -62 11 -67 3 -64 6 -72 0 -72 5 -74 0 -74 0 -77 -5 -67 0 -69 -6 -62 -3 -62 -11 -58 -5 -48 -11 -47 -8 -46 -11 -36 -11 -31 -14 -26 -11 -15 -17 -9 -13 -5 -17 0 0 0 0 0 11 0 11 10 61 12 60 21 61 26 52 32 55 38 47 40 44 48 41 55 36 53 36 62 30 60 19 62 22 72 14 69 5 72 6 72 -6 69 -5 67 -14 67 -22 60 -19 57 -30 58 -36 55 -36 48 -41 40 -44 38 -47 32 -55 26 -52 21 -61 15 -60 9 -61 0 0" stroke-width="0" fill="#808080" />
    <path d="M 19594 15723 l 0 0 0 -11 0 -11 0 0 0 0 0 0 -4 17 -10 13 -22 17 -21 11 -31 14 -41 11 -41 11 -47 8 -53 11 -53 5 -62 11 -67 3 -64 6 -72 0 -72 5 -74 0 0 0 -74 0 -77 -5 -67 0 -69 -6 -62 -3 -62 -11 -58 -5 -48 -11 -47 -8 -46 -11 -36 -11 -31 -14 -26 -11 -15 -17 -9 -13 -5 -17 0 0 0 0 0 0 0 11 0 11 0 0 10 61 12 60 21 61 26 52 32 55 38 47 40 44 48 41 55 36 53 36 62 30 60 19 62 22 72 14 69 5 72 6 0 0 72 -6 69 -5 67 -14 67 -22 60 -19 57 -30 58 -36 55 -36 48 -41 40 -44 38 -47 32 -55 26 -52 21 -61 15 -60 9 -61" stroke="#000000" stroke-width="20" fill="none" />
    <path d="M 19470 15701 l 0 -1310 -14 -30 -34 -28 -57 -24 -72 -20 -93 -16 -101 -14 -115 -5 -124 -6 -124 6 -115 5 -105 14 -89 16 -74 20 -57 24 -36 28 -15 30 0 1310 0 0 0 0 0 0 0 0 15 30 36 28 57 25 74 19 89 16 105 14 115 6 124 5 124 -5 115 -6 101 -14 93 -16 72 -19 57 -25 34 -28 14 -30 0 0 0 0 0 0 0 0 0 0" stroke-width="0" fill="#969696" />
    <path d="M 19470 15723 l 0 -11 0 -11 0 0 0 0 -14 30 -34 28 -57 25 -72 19 -93 16 -101 14 -115 6 -124 5 -124 -5 -115 -6 -105 -14 -89 -16 -74 -19 -57 -25 -36 -28 -15 -30 0 0 0 0 0 11 0 11 19 121 39 113 57 102 81 85 87 72 102 49 110 36 120 11 120 -11 110 -36 102 -49 87 -72 76 -85 58 -102 40 -113 17 -121 0 0" stroke-width="0" fill="#969696" />
    <path d="M 19267 15701 l 0 -1310 -10 -30 -21 -28 -41 -24 -48 -20 -57 -16 -70 -14 -76 -5 -84 -6 -84 6 -76 5 -70 14 -62 16 -48 20 -40 24 -22 28 -9 30 0 1310 0 0 0 0 0 0 0 0 9 30 22 28 40 25 48 19 62 16 70 14 76 6 84 5 84 -5 76 -6 70 -14 57 -16 48 -19 41 -25 21 -28 10 -30 0 0 0 0 0 0 0 0 0 0" stroke-width="0" fill="#B4B4B4" />
    <path d="M 19267 15723 l 0 -11 0 -11 0 0 0 0 -10 30 -21 28 -41 25 -48 19 -57 16 -70 14 -76 6 -84 5 -84 -5 -76 -6 -70 -14 -62 -16 -48 -19 -40 -25 -22 -28 -9 -30 0 0 0 0 0 11 0 11 14 121 26 113 39 102 50 85 62 72 65 49 76 36 79 11 79 -11 72 -36 69 -49 57 -72 55 -85 39 -102 21 -113 15 -121 0 0" stroke-width="0" fill="#B4B4B4" />
    <path d="M 19063 15701 l 0 -1310 -4 -30 -12 -28 -20 -24 -26 -20 -26 -16 -36 -14 -38 -5 -41 -6 -41 6 -38 5 -36 14 -31 16 -21 20 -20 24 -12 28 -4 30 0 1310 0 0 0 0 0 0 0 0 4 30 12 28 20 25 21 19 31 16 36 14 38 6 41 5 41 -5 38 -6 36 -14 26 -16 26 -19 20 -25 12 -28 4 -30 0 0 0 0 0 0 0 0 0 0" stroke-width="0" fill="#CCCCCC" />
    <path d="M 19063 15723 l 0 -11 0 -11 0 0 0 0 -4 30 -12 28 -20 25 -26 19 -26 16 -36 14 -38 6 -41 5 -41 -5 -38 -6 -36 -14 -31 -16 -21 -19 -20 -25 -12 -28 -4 -30 0 0 0 0 0 11 0 11 4 121 12 113 20 102 26 85 31 72 31 49 38 36 41 11 41 -11 33 -36 36 -49 31 -72 22 -85 24 -102 12 -113 4 -121 0 0" stroke-width="0" fill="#CCCCCC" />
    <path d="M 18860 14248 l 0 0 74 0 72 6 72 0 64 5 67 6 62 8 53 5 53 11 47 9 41 11 41 11 31 13 21 11 22 17 10 14 4 16 0 0 -4 14 -10 11 -22 14 -21 16 -31 11 -41 8 -41 11 -47 11 -53 11 -53 3 -62 11 -67 6 -64 5 -72 0 -72 6 -74 0 0 0 -74 0 -77 -6 -67 0 -69 -5 -62 -6 -62 -11 -58 -3 -48 -11 -47 -11 -46 -11 -36 -8 -31 -11 -26 -16 -15 -14 -9 -11 -5 -14 0 0 5 -16 9 -14 15 -17 26 -11 31 -13 36 -11 46 -11 47 -9 48 -11 58 -5 62 -8 62 -6 69 -5 67 0 77 -6 74 0" stroke="#000000" stroke-width="20" fill="none" />
    <path d="M 19594 15701 l 0 0 0 0 0 0 0 0 0 0 0 0 -4 17 -10 13 -22 17 -21 11 -31 14 -41 11 -41 11 -47 8 -53 11 -53 5 -62 11 -67 3 -64 6 -72 0 -72 5 -74 0 0 0 -74 0 -77 -5 -67 0 -69 -6 -62 -3 -62 -11 -58 -5 -48 -11 -47 -8 -46 -11 -36 -11 -31 -14 -26 -11 -15 -17 -9 -13 -5 -17 0 0 0 0 0 0 0 0 0 0" stroke="#000000" stroke-width="20" fill="none" />
    <path d="M 18860 14248 l 74 0 72 6 72 0 64 5 67 6 62 8 53 5 53 11 47 9 41 11 41 11 31 13 21 11 22 17 10 14 4 16 -4 14 -10 11 -22 14 -21 16 -31 11 -41 8 -41 11 -47 11 -53 11 -53 3 -62 11 -67 6 -64 5 -72 0 -72 6 -74 0 -74 0 -77 -6 -67 0 -69 -5 -62 -6 -62 -11 -58 -3 -48 -11 -47 -11 -46 -11 -36 -8 -31 -11 -26 -16 -15 -14 -9 -11 -5 -14 5 -16 9 -14 15 -17 26 -11 31 -13 36 -11 46 -11 47 -9 48 -11 58 -5 62 -8 62 -6 69 -5 67 0 77 -6 74 0 0 0" stroke-width="0" fill="#808080" />
    <path d="M 18860 14248 l 0 0 74 0 72 6 72 0 64 5 67 6 62 8 53 5 53 11 47 9 41 11 41 11 31 13 21 11 22 17 10 14 4 16 0 0 -4 14 -10 11 -22 14 -21 16 -31 11 -41 8 -41 11 -47 11 -53 11 -53 3 -62 11 -67 6 -64 5 -72 0 -72 6 -74 0 0 0 -74 0 -77 -6 -67 0 -69 -5 -62 -6 -62 -11 -58 -3 -48 -11 -47 -11 -46 -11 -36 -8 -31 -11 -26 -16 -15 -14 -9 -11 -5 -14 0 0 5 -16 9 -14 15 -17 26 -11 31 -13 36 -11 46 -11 47 -9 48 -11 58 -5 62 -8 62 -6 69 -5 67 0 77 -6 74 0" stroke="#000000" stroke-width="20" fill="none" />
  </g>
  <rect x="17740" y="14260" width="2220" height="260" stroke="#000000" stroke-width="20" fill="#808080" />
  <path id="LINE60" d="M 19580 15000 l 2920 0" stroke="#000000" stroke-width="40" fill="none" />
  <path id="LINE61" d="M 22520 18700 l 0 -3720" stroke="#000000" stroke-width="40" fill="none" />
  <path id="LINE62" d="M 26340 28540 l 0 -7340" stroke="#000000" stroke-width="40" fill="none" />
  <path id="LINE63" d="M 10300 22920 l 16000 0" stroke="#000000" stroke-width="40" fill="none" />
  <path id="LINE64" d="M 10340 28540 l 15940 0" stroke="#000000" stroke-width="40" fill="none" />
  <g name="SimpleFan2">
    <path d="M 9226 22236 l 14 -11 14 -12 14 -11 11 -11 14 -12 12 -13 11 -13 12 -12 12 -13 10 -15 9 -13 10 -13 10 -16 10 -15 8 -15 7 -15 8 -15 8 -15 6 -16 6 -17 6 -15 6 -17 3 -17 6 -17 4 -15 2 -17 4 -17 2 -17 2 -17 2 -17 0 -17 0 -17 244 0 0 -594 -854 0 -32 2 -31 2 -29 4 -31 6 -30 5 -29 8 -28 9 -27 12 -27 11 -26 13 -25 16 -26 15 -23 17 -24 17 -23 19 -20 19 -21 21 -20 20 -17 23 -18 23 -15 25 -14 24 -14 27 -12 24 -11 27 -10 28 -8 29 -8 28 -6 29 -4 30 -1 30 0 31 0 17 0 17 1 17 2 17 2 17 4 17 4 17 4 17 4 15 4 17 6 17 6 15 6 17 7 16 6 15 8 17 10 15 8 15 9 13 8 16 10 13 12 15 10 13 11 13 12 14 12 13 12 11 13 12 12 11 14 11 13 12 14 11 -184 355 1099 0 -182 -355 0 0" stroke-width="0" fill="#FF0000" />
    <path d="M 9226 22236 l 0 0 14 -11 14 -12 14 -11 11 -11 14 -12 12 -13 11 -13 12 -12 12 -13 10 -15 9 -13 10 -13 10 -16 10 -15 8 -15 7 -15 8 -15 8 -15 6 -16 6 -17 6 -15 6 -17 3 -17 6 -17 4 -15 2 -17 4 -17 2 -17 2 -17 2 -17 0 -17 0 -17 244 0 0 -594 -854 0 0 0 -32 2 -31 2 -29 4 -31 6 -30 5 -29 8 -28 9 -27 12 -27 11 -26 13 -25 16 -26 15 -23 17 -24 17 -23 19 -20 19 -21 21 -20 20 -17 23 -18 23 -15 25 -14 24 -14 27 -12 24 -11 27 -10 28 -8 29 -8 28 -6 29 -4 30 -1 30 0 31 0 0 0 17 0 17 1 17 2 17 2 17 4 17 4 17 4 17 4 15 4 17 6 17 6 15 6 17 7 16 6 15 8 17 10 15 8 15 9 13 8 16 10 13 12 15 10 13 11 13 12 14 12 13 12 11 13 12 12 11 14 11 13 12 14 11 -184 355 1099 0 -182 -355" stroke="#000000" stroke-width="20" fill="none" />
    <path d="M 9226 22236 l 0 0 -9 6 -10 7 -12 6 -10 8 -9 5 -12 6 -10 6 -12 5 -9 6 -12 6 -12 4 -10 5 -11 4 -12 4 -12 6 -12 3 -11 4 -12 2 -12 4 -12 4 -11 2 -12 1 -12 2 -13 4 -12 2 -12 0 -12 2 -13 2 -12 0 -12 0 -14 2 -11 0 0 0 -12 0 -12 -2 -13 0 -12 0 -12 -2 -12 -2 -13 -2 -12 -2 -12 -2 -12 -2 -11 -1 -12 -4 -12 -2 -11 -4 -12 -4 -12 -4 -12 -3 -11 -4 -12 -4 -12 -6 -10 -3 -11 -6 -10 -6 -12 -4 -10 -5 -11 -6 -10 -7 -12 -6 -10 -6 -9 -6 -10 -7 -10 -6" stroke="#000000" stroke-width="20" fill="none" />
    <path d="M 8859 21467 l 31 0 31 6 28 7 29 10 25 13 26 13 23 17 22 19 19 21 18 23 16 24 13 27 10 26 8 29 4 30 2 31 -2 30 -4 28 -8 29 -10 26 -13 27 -16 24 -18 23 -19 21 -22 19 -23 17 -26 15 -25 11 -29 12 -28 6 -31 5 -31 2 -32 -2 -29 -5 -29 -6 -30 -12 -25 -11 -25 -15 -24 -17 -21 -19 -20 -21 -18 -23 -15 -24 -14 -27 -10 -26 -7 -29 -4 -28 -2 -30 2 -31 4 -30 7 -29 10 -26 14 -27 15 -24 18 -23 20 -21 21 -19 24 -17 25 -13 25 -13 30 -10 29 -7 29 -6 32 0 0 0" stroke-width="0" fill="#FF0000" />
    <path d="M 8859 21467 l 0 0 31 0 31 6 28 7 29 10 25 13 26 13 23 17 22 19 19 21 18 23 16 24 13 27 10 26 8 29 4 30 2 31 0 0 -2 30 -4 28 -8 29 -10 26 -13 27 -16 24 -18 23 -19 21 -22 19 -23 17 -26 15 -25 11 -29 12 -28 6 -31 5 -31 2 0 0 -32 -2 -29 -5 -29 -6 -30 -12 -25 -11 -25 -15 -24 -17 -21 -19 -20 -21 -18 -23 -15 -24 -14 -27 -10 -26 -7 -29 -4 -28 -2 -30 0 0 2 -31 4 -30 7 -29 10 -26 14 -27 15 -24 18 -23 20 -21 21 -19 24 -17 25 -13 25 -13 30 -10 29 -7 29 -6 32 0" stroke="#000000" stroke-width="20" fill="none" />
  </g>
  <g name="SimpleFan2">
    <path d="M 9226 24996 l 14 -11 14 -12 14 -11 11 -11 14 -12 12 -13 11 -13 12 -12 12 -13 10 -15 9 -13 10 -13 10 -16 10 -15 8 -15 7 -15 8 -15 8 -15 6 -16 6 -17 6 -15 6 -17 3 -17 6 -17 4 -15 2 -17 4 -17 2 -17 2 -17 2 -17 0 -17 0 -17 244 0 0 -594 -854 0 -32 2 -31 2 -29 4 -31 6 -30 5 -29 8 -28 9 -27 12 -27 11 -26 13 -25 16 -26 15 -23 17 -24 17 -23 19 -20 19 -21 21 -20 20 -17 23 -18 23 -15 25 -14 24 -14 27 -12 24 -11 27 -10 28 -8 29 -8 28 -6 29 -4 30 -1 30 0 31 0 17 0 17 1 17 2 17 2 17 4 17 4 17 4 17 4 15 4 17 6 17 6 15 6 17 7 16 6 15 8 17 10 15 8 15 9 13 8 16 10 13 12 15 10 13 11 13 12 14 12 13 12 11 13 12 12 11 14 11 13 12 14 11 -184 355 1099 0 -182 -355 0 0" stroke-width="0" fill="#FF0000" />
    <path d="M 9226 24996 l 0 0 14 -11 14 -12 14 -11 11 -11 14 -12 12 -13 11 -13 12 -12 12 -13 10 -15 9 -13 10 -13 10 -16 10 -15 8 -15 7 -15 8 -15 8 -15 6 -16 6 -17 6 -15 6 -17 3 -17 6 -17 4 -15 2 -17 4 -17 2 -17 2 -17 2 -17 0 -17 0 -17 244 0 0 -594 -854 0 0 0 -32 2 -31 2 -29 4 -31 6 -30 5 -29 8 -28 9 -27 12 -27 11 -26 13 -25 16 -26 15 -23 17 -24 17 -23 19 -20 19 -21 21 -20 20 -17 23 -18 23 -15 25 -14 24 -14 27 -12 24 -11 27 -10 28 -8 29 -8 28 -6 29 -4 30 -1 30 0 31 0 0 0 17 0 17 1 17 2 17 2 17 4 17 4 17 4 17 4 15 4 17 6 17 6 15 6 17 7 16 6 15 8 17 10 15 8 15 9 13 8 16 10 13 12 15 10 13 11 13 12 14 12 13 12 11 13 12 12 11 14 11 13 12 14 11 -184 355 1099 0 -182 -355" stroke="#000000" stroke-width="20" fill="none" />
    <path d="M 9226 24996 l 0 0 -9 6 -10 7 -12 6 -10 8 -9 5 -12 6 -10 6 -12 5 -9 6 -12 6 -12 4 -10 5 -11 4 -12 4 -12 6 -12 3 -11 4 -12 2 -12 4 -12 4 -11 2 -12 1 -12 2 -13 4 -12 2 -12 0 -12 2 -13 2 -12 0 -12 0 -14 2 -11 0 0 0 -12 0 -12 -2 -13 0 -12 0 -12 -2 -12 -2 -13 -2 -12 -2 -12 -2 -12 -2 -11 -1 -12 -4 -12 -2 -11 -4 -12 -4 -12 -4 -12 -3 -11 -4 -12 -4 -12 -6 -10 -3 -11 -6 -10 -6 -12 -4 -10 -5 -11 -6 -10 -7 -12 -6 -10 -6 -9 -6 -10 -7 -10 -6" stroke="#000000" stroke-width="20" fill="none" />
    <path d="M 8859 24227 l 31 0 31 6 28 7 29 10 25 13 26 13 23 17 22 19 19 21 18 23 16 24 13 27 10 26 8 29 4 30 2 31 -2 30 -4 28 -8 29 -10 26 -13 27 -16 24 -18 23 -19 21 -22 19 -23 17 -26 15 -25 11 -29 12 -28 6 -31 5 -31 2 -32 -2 -29 -5 -29 -6 -30 -12 -25 -11 -25 -15 -24 -17 -21 -19 -20 -21 -18 -23 -15 -24 -14 -27 -10 -26 -7 -29 -4 -28 -2 -30 2 -31 4 -30 7 -29 10 -26 14 -27 15 -24 18 -23 20 -21 21 -19 24 -17 25 -13 25 -13 30 -10 29 -7 29 -6 32 0 0 0" stroke-width="0" fill="#FF0000" />
    <path d="M 8859 24227 l 0 0 31 0 31 6 28 7 29 10 25 13 26 13 23 17 22 19 19 21 18 23 16 24 13 27 10 26 8 29 4 30 2 31 0 0 -2 30 -4 28 -8 29 -10 26 -13 27 -16 24 -18 23 -19 21 -22 19 -23 17 -26 15 -25 11 -29 12 -28 6 -31 5 -31 2 0 0 -32 -2 -29 -5 -29 -6 -30 -12 -25 -11 -25 -15 -24 -17 -21 -19 -20 -21 -18 -23 -15 -24 -14 -27 -10 -26 -7 -29 -4 -28 -2 -30 0 0 2 -31 4 -30 7 -29 10 -26 14 -27 15 -24 18 -23 20 -21 21 -19 24 -17 25 -13 25 -13 30 -10 29 -7 29 -6 32 0" stroke="#000000" stroke-width="20" fill="none" />
  </g>
  <g id="TEXT1">
    <rect x="7740" y="20480" width="2520" height="740" stroke-width="0" fill="none" id="TEXT1_pbTextBoundingRectEl" />
    <text fill="#000000" font-family="Helvetica" font-size="560" text-anchor="start" x="7740" y="21130" id="TEXT1_pbTextEl">C905AF</text>
  </g>
  <g id="TEXT2">
    <rect x="7740" y="23040" width="2260" height="740" stroke-width="0" fill="none" id="TEXT2_pbTextBoundingRectEl" />
    <text fill="#000000" font-family="Helvetica" font-size="560" text-anchor="start" x="7740" y="23690" id="TEXT2_pbTextEl">C905A</text>
  </g>
  <g name="SimpleFan2">
    <path d="M 9126 27976 l 14 -11 14 -12 14 -11 11 -11 14 -12 12 -13 11 -13 12 -12 12 -13 10 -15 9 -13 10 -13 10 -16 10 -15 8 -15 7 -15 8 -15 8 -15 6 -16 6 -17 6 -15 6 -17 3 -17 6 -17 4 -15 2 -17 4 -17 2 -17 2 -17 2 -17 0 -17 0 -17 244 0 0 -594 -854 0 -32 2 -31 2 -29 4 -31 6 -30 5 -29 8 -28 9 -27 12 -27 11 -26 13 -25 16 -26 15 -23 17 -24 17 -23 19 -20 19 -21 21 -20 20 -17 23 -18 23 -15 25 -14 24 -14 27 -12 24 -11 27 -10 28 -8 29 -8 28 -6 29 -4 30 -1 30 0 31 0 17 0 17 1 17 2 17 2 17 4 17 4 17 4 17 4 15 4 17 6 17 6 15 6 17 7 16 6 15 8 17 10 15 8 15 9 13 8 16 10 13 12 15 10 13 11 13 12 14 12 13 12 11 13 12 12 11 14 11 13 12 14 11 -184 355 1099 0 -182 -355 0 0" stroke-width="0" fill="#FF0000" />
    <path d="M 9126 27976 l 0 0 14 -11 14 -12 14 -11 11 -11 14 -12 12 -13 11 -13 12 -12 12 -13 10 -15 9 -13 10 -13 10 -16 10 -15 8 -15 7 -15 8 -15 8 -15 6 -16 6 -17 6 -15 6 -17 3 -17 6 -17 4 -15 2 -17 4 -17 2 -17 2 -17 2 -17 0 -17 0 -17 244 0 0 -594 -854 0 0 0 -32 2 -31 2 -29 4 -31 6 -30 5 -29 8 -28 9 -27 12 -27 11 -26 13 -25 16 -26 15 -23 17 -24 17 -23 19 -20 19 -21 21 -20 20 -17 23 -18 23 -15 25 -14 24 -14 27 -12 24 -11 27 -10 28 -8 29 -8 28 -6 29 -4 30 -1 30 0 31 0 0 0 17 0 17 1 17 2 17 2 17 4 17 4 17 4 17 4 15 4 17 6 17 6 15 6 17 7 16 6 15 8 17 10 15 8 15 9 13 8 16 10 13 12 15 10 13 11 13 12 14 12 13 12 11 13 12 12 11 14 11 13 12 14 11 -184 355 1099 0 -182 -355" stroke="#000000" stroke-width="20" fill="none" />
    <path d="M 9126 27976 l 0 0 -9 6 -10 7 -12 6 -10 8 -9 5 -12 6 -10 6 -12 5 -9 6 -12 6 -12 4 -10 5 -11 4 -12 4 -12 6 -12 3 -11 4 -12 2 -12 4 -12 4 -11 2 -12 1 -12 2 -13 4 -12 2 -12 0 -12 2 -13 2 -12 0 -12 0 -14 2 -11 0 0 0 -12 0 -12 -2 -13 0 -12 0 -12 -2 -12 -2 -13 -2 -12 -2 -12 -2 -12 -2 -11 -1 -12 -4 -12 -2 -11 -4 -12 -4 -12 -4 -12 -3 -11 -4 -12 -4 -12 -6 -10 -3 -11 -6 -10 -6 -12 -4 -10 -5 -11 -6 -10 -7 -12 -6 -10 -6 -9 -6 -10 -7 -10 -6" stroke="#000000" stroke-width="20" fill="none" />
    <path d="M 8759 27207 l 31 0 31 6 28 7 29 10 25 13 26 13 23 17 22 19 19 21 18 23 16 24 13 27 10 26 8 29 4 30 2 31 -2 30 -4 28 -8 29 -10 26 -13 27 -16 24 -18 23 -19 21 -22 19 -23 17 -26 15 -25 11 -29 12 -28 6 -31 5 -31 2 -32 -2 -29 -5 -29 -6 -30 -12 -25 -11 -25 -15 -24 -17 -21 -19 -20 -21 -18 -23 -15 -24 -14 -27 -10 -26 -7 -29 -4 -28 -2 -30 2 -31 4 -30 7 -29 10 -26 14 -27 15 -24 18 -23 20 -21 21 -19 24 -17 25 -13 25 -13 30 -10 29 -7 29 -6 32 0 0 0" stroke-width="0" fill="#FF0000" />
    <path d="M 8759 27207 l 0 0 31 0 31 6 28 7 29 10 25 13 26 13 23 17 22 19 19 21 18 23 16 24 13 27 10 26 8 29 4 30 2 31 0 0 -2 30 -4 28 -8 29 -10 26 -13 27 -16 24 -18 23 -19 21 -22 19 -23 17 -26 15 -25 11 -29 12 -28 6 -31 5 -31 2 0 0 -32 -2 -29 -5 -29 -6 -30 -12 -25 -11 -25 -15 -24 -17 -21 -19 -20 -21 -18 -23 -15 -24 -14 -27 -10 -26 -7 -29 -4 -28 -2 -30 0 0 2 -31 4 -30 7 -29 10 -26 14 -27 15 -24 18 -23 20 -21 21 -19 24 -17 25 -13 25 -13 30 -10 29 -7 29 -6 32 0" stroke="#000000" stroke-width="20" fill="none" />
  </g>
  <g name="SimpleFan2">
    <path d="M 9126 30736 l 14 -11 14 -12 14 -11 11 -11 14 -12 12 -13 11 -13 12 -12 12 -13 10 -15 9 -13 10 -13 10 -16 10 -15 8 -15 7 -15 8 -15 8 -15 6 -16 6 -17 6 -15 6 -17 3 -17 6 -17 4 -15 2 -17 4 -17 2 -17 2 -17 2 -17 0 -17 0 -17 244 0 0 -594 -854 0 -32 2 -31 2 -29 4 -31 6 -30 5 -29 8 -28 9 -27 12 -27 11 -26 13 -25 16 -26 15 -23 17 -24 17 -23 19 -20 19 -21 21 -20 20 -17 23 -18 23 -15 25 -14 24 -14 27 -12 24 -11 27 -10 28 -8 29 -8 28 -6 29 -4 30 -1 30 0 31 0 17 0 17 1 17 2 17 2 17 4 17 4 17 4 17 4 15 4 17 6 17 6 15 6 17 7 16 6 15 8 17 10 15 8 15 9 13 8 16 10 13 12 15 10 13 11 13 12 14 12 13 12 11 13 12 12 11 14 11 13 12 14 11 -184 355 1099 0 -182 -355 0 0" stroke-width="0" fill="#FF0000" />
    <path d="M 9126 30736 l 0 0 14 -11 14 -12 14 -11 11 -11 14 -12 12 -13 11 -13 12 -12 12 -13 10 -15 9 -13 10 -13 10 -16 10 -15 8 -15 7 -15 8 -15 8 -15 6 -16 6 -17 6 -15 6 -17 3 -17 6 -17 4 -15 2 -17 4 -17 2 -17 2 -17 2 -17 0 -17 0 -17 244 0 0 -594 -854 0 0 0 -32 2 -31 2 -29 4 -31 6 -30 5 -29 8 -28 9 -27 12 -27 11 -26 13 -25 16 -26 15 -23 17 -24 17 -23 19 -20 19 -21 21 -20 20 -17 23 -18 23 -15 25 -14 24 -14 27 -12 24 -11 27 -10 28 -8 29 -8 28 -6 29 -4 30 -1 30 0 31 0 0 0 17 0 17 1 17 2 17 2 17 4 17 4 17 4 17 4 15 4 17 6 17 6 15 6 17 7 16 6 15 8 17 10 15 8 15 9 13 8 16 10 13 12 15 10 13 11 13 12 14 12 13 12 11 13 12 12 11 14 11 13 12 14 11 -184 355 1099 0 -182 -355" stroke="#000000" stroke-width="20" fill="none" />
    <path d="M 9126 30736 l 0 0 -9 6 -10 7 -12 6 -10 8 -9 5 -12 6 -10 6 -12 5 -9 6 -12 6 -12 4 -10 5 -11 4 -12 4 -12 6 -12 3 -11 4 -12 2 -12 4 -12 4 -11 2 -12 1 -12 2 -13 4 -12 2 -12 0 -12 2 -13 2 -12 0 -12 0 -14 2 -11 0 0 0 -12 0 -12 -2 -13 0 -12 0 -12 -2 -12 -2 -13 -2 -12 -2 -12 -2 -12 -2 -11 -1 -12 -4 -12 -2 -11 -4 -12 -4 -12 -4 -12 -3 -11 -4 -12 -4 -12 -6 -10 -3 -11 -6 -10 -6 -12 -4 -10 -5 -11 -6 -10 -7 -12 -6 -10 -6 -9 -6 -10 -7 -10 -6" stroke="#000000" stroke-width="20" fill="none" />
    <path d="M 8759 29967 l 31 0 31 6 28 7 29 10 25 13 26 13 23 17 22 19 19 21 18 23 16 24 13 27 10 26 8 29 4 30 2 31 -2 30 -4 28 -8 29 -10 26 -13 27 -16 24 -18 23 -19 21 -22 19 -23 17 -26 15 -25 11 -29 12 -28 6 -31 5 -31 2 -32 -2 -29 -5 -29 -6 -30 -12 -25 -11 -25 -15 -24 -17 -21 -19 -20 -21 -18 -23 -15 -24 -14 -27 -10 -26 -7 -29 -4 -28 -2 -30 2 -31 4 -30 7 -29 10 -26 14 -27 15 -24 18 -23 20 -21 21 -19 24 -17 25 -13 25 -13 30 -10 29 -7 29 -6 32 0 0 0" stroke-width="0" fill="#FF0000" />
    <path d="M 8759 29967 l 0 0 31 0 31 6 28 7 29 10 25 13 26 13 23 17 22 19 19 21 18 23 16 24 13 27 10 26 8 29 4 30 2 31 0 0 -2 30 -4 28 -8 29 -10 26 -13 27 -16 24 -18 23 -19 21 -22 19 -23 17 -26 15 -25 11 -29 12 -28 6 -31 5 -31 2 0 0 -32 -2 -29 -5 -29 -6 -30 -12 -25 -11 -25 -15 -24 -17 -21 -19 -20 -21 -18 -23 -15 -24 -14 -27 -10 -26 -7 -29 -4 -28 -2 -30 0 0 2 -31 4 -30 7 -29 10 -26 14 -27 15 -24 18 -23 20 -21 21 -19 24 -17 25 -13 25 -13 30 -10 29 -7 29 -6 32 0" stroke="#000000" stroke-width="20" fill="none" />
  </g>
  <g id="TEXT3">
    <rect x="7640" y="26220" width="2520" height="740" stroke-width="0" fill="none" id="TEXT3_pbTextBoundingRectEl" />
    <text fill="#000000" font-family="Helvetica" font-size="560" text-anchor="start" x="7640" y="26870" id="TEXT3_pbTextEl">C902BF</text>
  </g>
  <g id="TEXT4">
    <rect x="7800" y="28780" width="2100" height="740" stroke-width="0" fill="none" id="TEXT4_pbTextBoundingRectEl" />
    <text fill="#000000" font-family="Helvetica" font-size="560" text-anchor="start" x="7800" y="29430" id="TEXT4_pbTextEl">C905B</text>
  </g>
  <rect x="5760" y="20060" width="4620" height="5680" stroke="#000000" stroke-width="20" stroke-dasharray="60,60" fill="none" id="RECTANGLE41" />
  <rect x="5760" y="25920" width="4620" height="5680" stroke="#000000" stroke-width="20" stroke-dasharray="60,60" fill="none" id="RECTANGLE42" />
  <path id="LINE65" d="M 26680 12000 l 0 -8000" stroke="#000000" stroke-width="40" fill="none" />
  <path id="LINE66" d="M 33720 4040 l -7020 0" stroke="#000000" stroke-width="40" fill="none" />
  <path id="LINE67" d="M 61440 28620 l -26940 0" stroke="#000000" stroke-width="40" fill="none" />
  <path id="POLYGON82" d="M 33660 3740 l 1720 0 0 500 -820 0 320 420 -260 260 -340 -660 -620 40 0 -580 0 20" stroke="#000000" stroke-width="40" fill="#808080" />
  <path id="LINE83" d="M 34760 6480 l 0 -1700" stroke="#000000" stroke-width="40" fill="none" />
  <path id="LINE84" d="M 42680 6460 l 0 -1620" stroke="#000000" stroke-width="40" fill="none" />
  <path id="LINE85" d="M 50860 6380 l 0 -1760" stroke="#000000" stroke-width="40" fill="none" />
  <path id="POLYGON85" d="M 41600 3720 l 1740 0 0 500 -820 0 300 420 -240 260 -340 -660 -640 40 0 -580 0 20" stroke="#000000" stroke-width="40" fill="#808080" />
  <path id="POLYGON86" d="M 49780 3680 l 1740 0 0 500 -840 0 320 420 -260 260 -320 -660 -640 40 0 -580 0 20" stroke="#000000" stroke-width="40" fill="#808080" />
  <path id="LINE86" d="M 41580 4040 l -6260 0" stroke="#000000" stroke-width="40" fill="none" />
  <path id="LINE87" d="M 49720 3980 l -6400 0" stroke="#000000" stroke-width="40" fill="none" />
  <path id="LINE88" d="M 58520 4000 l -7040 0" stroke="#000000" stroke-width="40" fill="none" />
  <path id="LINE89" d="M 58520 6440 l 0 -2500" stroke="#000000" stroke-width="40" fill="none" />
  <path d="M 34540 20460 l -2000 -3260 3980 0 -1980 3260 0 0" stroke="#000000" stroke-width="20" fill="#808080" />
  <rect x="32560" y="9780" width="3960" height="7400" stroke="#000000" stroke-width="20" fill="#808080" />
  <rect x="33700" y="6380" width="1800" height="460" stroke="#000000" stroke-width="20" fill="#808080" />
  <rect x="33940" y="6840" width="1340" height="1540" stroke="#000000" stroke-width="20" fill="#808080" />
  <path d="M 34560 7540 l -2000 2260 3980 0 -1980 -2260 0 0" stroke="#000000" stroke-width="20" fill="#808080" />
  <path d="M 42620 20460 l -2000 -3260 4000 0 -2000 3260 0 0" stroke="#000000" stroke-width="20" fill="#808080" />
  <rect x="40660" y="9780" width="3960" height="7400" stroke="#000000" stroke-width="20" fill="#808080" />
  <rect x="41780" y="6380" width="1800" height="460" stroke="#000000" stroke-width="20" fill="#808080" />
  <rect x="42020" y="6840" width="1340" height="1540" stroke="#000000" stroke-width="20" fill="#808080" />
  <path d="M 42640 7540 l -2000 2260 3980 0 -1980 -2260 0 0" stroke="#000000" stroke-width="20" fill="#808080" />
  <path d="M 50780 20460 l -2000 -3260 3980 0 -1980 3260 0 0" stroke="#000000" stroke-width="20" fill="#808080" />
  <rect x="48800" y="9780" width="3960" height="7400" stroke="#000000" stroke-width="20" fill="#808080" />
  <rect x="49940" y="6380" width="1800" height="460" stroke="#000000" stroke-width="20" fill="#808080" />
  <rect x="50180" y="6840" width="1340" height="1540" stroke="#000000" stroke-width="20" fill="#808080" />
  <path d="M 50800 7520 l -2000 2280 3980 0 -1980 -2280 0 0" stroke="#000000" stroke-width="20" fill="#808080" />
  <path d="M 58460 20520 l -2000 -3280 4000 0 -2000 3280 0 0" stroke="#000000" stroke-width="20" fill="#808080" />
  <rect x="56500" y="9820" width="3960" height="7400" stroke="#000000" stroke-width="20" fill="#808080" />
  <rect x="57620" y="6420" width="1800" height="460" stroke="#000000" stroke-width="20" fill="#808080" />
  <rect x="57860" y="6900" width="1340" height="1540" stroke="#000000" stroke-width="20" fill="#808080" />
  <path d="M 58480 7580 l -2000 2260 3980 0 -1980 -2260 0 0" stroke="#000000" stroke-width="20" fill="#808080" />
  <path id="LINE90" d="M 62720 22160 l -4260 0" stroke="#000000" stroke-width="40" fill="none" />
  <path id="LINE91" d="M 58500 20440 l 0 1680" stroke="#000000" stroke-width="40" fill="none" />
  <path id="LINE92" d="M 62600 24140 l -11820 0" stroke="#000000" stroke-width="40" fill="none" />
  <path id="LINE93" d="M 50820 20360 l 0 3760" stroke="#000000" stroke-width="40" fill="none" />
  <path id="LINE94" d="M 62440 26400 l -19840 0" stroke="#000000" stroke-width="40" fill="none" />
  <path id="LINE95" d="M 42660 20360 l 0 6040" stroke="#000000" stroke-width="40" fill="none" />
  <path id="LINE96" d="M 34540 28580 l 0 -8140" stroke="#000000" stroke-width="40" fill="none" />
  <path d="M 24380 19620 l 2874 1590 41 -27 38 -26 39 -27 37 -27 37 -28 36 -29 35 -29 33 -29 33 -29 32 -30 31 -31 30 -30 29 -32 27 -32 27 -32 26 -32 25 -32 24 -34 22 -33 22 -34 21 -34 19 -33 18 -35 18 -35 16 -35 15 -35 14 -36 13 -35 12 -36 10 -36 10 -36 8 -38 8 -36 6 -37 6 -36 3 -38 3 -37 1 -37 1 -38 0 -38 -2 -37 -2 -38 -5 -37 -4 -38 -6 -38 -8 -39 -8 -37 -10 -38 -10 -38 -12 -37 -13 -38 -14 -38 -15 -39 -16 -37 -17 -37 -19 -38 -18 -37 -21 -38 -22 -37 -22 -37 -24 -37 -25 -36 -25 -37 -27 -36 -28 -36 -29 -37 -30 -36 -31 -35 -31 -35 -33 -35 -34 -34 -35 -35 -35 -34 -37 -34 -37 -34 -2995 1018" stroke="#000000" stroke-width="20" fill="#808080" />
  <path d="M 21380 18620 l 5940 0 0 2560 -5940 0 0 -2560 0 0" stroke="#000000" stroke-width="20" fill="#808080" />
  <path d="M 21080 20680 l -1240 0 0 -1560 1240 0 0 1560 0 0" stroke="#000000" stroke-width="20" fill="#808080" />
  <path d="M 21420 21480 l -340 0 0 -3160 340 0 0 3160 0 0" stroke="#000000" stroke-width="20" fill="#808080" />
  <path d="M 19840 21420 l -340 0 0 -3120 340 0 0 3120 0 0" stroke="#000000" stroke-width="20" fill="#808080" />
  <path id="LINE97" d="M 11500 5860 l -3720 0" stroke="#000000" stroke-width="40" fill="none" />
  <rect x="12600" y="3180" width="1140" height="260" stroke="#000000" stroke-width="20" fill="#808080" />
  <rect x="12760" y="3440" width="840" height="860" stroke="#000000" stroke-width="20" fill="#808080" />
  <path d="M 13160 3820 l -1280 1280 2540 0 -1260 -1280 0 0" stroke="#000000" stroke-width="20" fill="#808080" />
  <path d="M 12600 9520 l -440 -2160 880 0 -440 2160 0 0" stroke="#000000" stroke-width="20" fill="#808080" />
  <path d="M 11880 5080 l 0 2180 2520 2200 0 -4380 -2520 0 0 0" stroke="#000000" stroke-width="20" fill="#808080" />
  <path d="M 11880 6140 l -280 0 0 -580 280 0 0 580 0 0" stroke="#000000" stroke-width="20" fill="#808080" />
  <path d="M 11600 6360 l -120 0 0 -1060 120 0 0 1060 0 0" stroke="#000000" stroke-width="20" fill="#808080" />
  <path id="LINE98" d="M 12440 8760 l -9820 0" stroke="#000000" stroke-width="40" fill="none" />
  <g name="SimpleFan2">
    <path d="M 7306 6656 l 14 -11 14 -12 14 -11 11 -11 14 -12 12 -13 11 -13 12 -12 12 -13 10 -15 9 -13 10 -13 10 -16 10 -15 8 -15 7 -15 8 -15 8 -15 6 -16 6 -17 6 -15 6 -17 3 -17 6 -17 4 -15 2 -17 4 -17 2 -17 2 -17 2 -17 0 -17 0 -17 244 0 0 -594 -854 0 -32 2 -31 2 -29 4 -31 6 -30 5 -29 8 -28 9 -27 12 -27 11 -26 13 -25 16 -26 15 -23 17 -24 17 -23 19 -20 19 -21 21 -20 20 -17 23 -18 23 -15 25 -14 24 -14 27 -12 24 -11 27 -10 28 -8 29 -8 28 -6 29 -4 30 -1 30 0 31 0 17 0 17 1 17 2 17 2 17 4 17 4 17 4 17 4 15 4 17 6 17 6 15 6 17 7 16 6 15 8 17 10 15 8 15 9 13 8 16 10 13 12 15 10 13 11 13 12 14 12 13 12 11 13 12 12 11 14 11 13 12 14 11 -184 355 1099 0 -182 -355 0 0" stroke-width="0" fill="#FF0000" />
    <path d="M 7306 6656 l 0 0 14 -11 14 -12 14 -11 11 -11 14 -12 12 -13 11 -13 12 -12 12 -13 10 -15 9 -13 10 -13 10 -16 10 -15 8 -15 7 -15 8 -15 8 -15 6 -16 6 -17 6 -15 6 -17 3 -17 6 -17 4 -15 2 -17 4 -17 2 -17 2 -17 2 -17 0 -17 0 -17 244 0 0 -594 -854 0 0 0 -32 2 -31 2 -29 4 -31 6 -30 5 -29 8 -28 9 -27 12 -27 11 -26 13 -25 16 -26 15 -23 17 -24 17 -23 19 -20 19 -21 21 -20 20 -17 23 -18 23 -15 25 -14 24 -14 27 -12 24 -11 27 -10 28 -8 29 -8 28 -6 29 -4 30 -1 30 0 31 0 0 0 17 0 17 1 17 2 17 2 17 4 17 4 17 4 17 4 15 4 17 6 17 6 15 6 17 7 16 6 15 8 17 10 15 8 15 9 13 8 16 10 13 12 15 10 13 11 13 12 14 12 13 12 11 13 12 12 11 14 11 13 12 14 11 -184 355 1099 0 -182 -355" stroke="#000000" stroke-width="20" fill="none" />
    <path d="M 7306 6656 l 0 0 -9 6 -10 7 -12 6 -10 8 -9 5 -12 6 -10 6 -12 5 -9 6 -12 6 -12 4 -10 5 -11 4 -12 4 -12 6 -12 3 -11 4 -12 2 -12 4 -12 4 -11 2 -12 1 -12 2 -13 4 -12 2 -12 0 -12 2 -13 2 -12 0 -12 0 -14 2 -11 0 0 0 -12 0 -12 -2 -13 0 -12 0 -12 -2 -12 -2 -13 -2 -12 -2 -12 -2 -12 -2 -11 -1 -12 -4 -12 -2 -11 -4 -12 -4 -12 -4 -12 -3 -11 -4 -12 -4 -12 -6 -10 -3 -11 -6 -10 -6 -12 -4 -10 -5 -11 -6 -10 -7 -12 -6 -10 -6 -9 -6 -10 -7 -10 -6" stroke="#000000" stroke-width="20" fill="none" />
    <path d="M 6939 5887 l 31 0 31 6 28 7 29 10 25 13 26 13 23 17 22 19 19 21 18 23 16 24 13 27 10 26 8 29 4 30 2 31 -2 30 -4 28 -8 29 -10 26 -13 27 -16 24 -18 23 -19 21 -22 19 -23 17 -26 15 -25 11 -29 12 -28 6 -31 5 -31 2 -32 -2 -29 -5 -29 -6 -30 -12 -25 -11 -25 -15 -24 -17 -21 -19 -20 -21 -18 -23 -15 -24 -14 -27 -10 -26 -7 -29 -4 -28 -2 -30 2 -31 4 -30 7 -29 10 -26 14 -27 15 -24 18 -23 20 -21 21 -19 24 -17 25 -13 25 -13 30 -10 29 -7 29 -6 32 0 0 0" stroke-width="0" fill="#FF0000" />
    <path d="M 6939 5887 l 0 0 31 0 31 6 28 7 29 10 25 13 26 13 23 17 22 19 19 21 18 23 16 24 13 27 10 26 8 29 4 30 2 31 0 0 -2 30 -4 28 -8 29 -10 26 -13 27 -16 24 -18 23 -19 21 -22 19 -23 17 -26 15 -25 11 -29 12 -28 6 -31 5 -31 2 0 0 -32 -2 -29 -5 -29 -6 -30 -12 -25 -11 -25 -15 -24 -17 -21 -19 -20 -21 -18 -23 -15 -24 -14 -27 -10 -26 -7 -29 -4 -28 -2 -30 0 0 2 -31 4 -30 7 -29 10 -26 14 -27 15 -24 18 -23 20 -21 21 -19 24 -17 25 -13 25 -13 30 -10 29 -7 29 -6 32 0" stroke="#000000" stroke-width="20" fill="none" />
  </g>
  <g id="TEXT5">
    <rect x="6240" y="7000" width="1800" height="740" stroke-width="0" fill="none" id="TEXT5_pbTextBoundingRectEl" />
    <text fill="#000000" font-family="Helvetica" font-size="560" text-anchor="start" x="6240" y="7650" id="TEXT5_pbTextEl">C904</text>
  </g>
  <path id="LINE99" d="M 13880 17940 l 6600 0" stroke="#00FF00" stroke-width="40" fill="none" />
  <path id="LINE100" d="M 20500 19060 l 0 -1120" stroke="#00FF00" stroke-width="40" fill="none" />
  <path id="LINE101" d="M 13860 21840 l 6660 0" stroke="#00FF00" stroke-width="40" fill="none" />
  <path id="LINE102" d="M 20520 20720 l 0 1120" stroke="#00FF00" stroke-width="40" fill="none" />
  <g name="Valve3">
    <path d="M 9192 6128 l 0 -466 1153 466 0 -466 -1153 466" stroke="#000000" stroke-width="20" fill="#808080" />
    <path d="M 9763 5893 l 66 -24 0 -408 -127 0 0 408 67 24 -6 0" stroke="#000000" stroke-width="20" fill="#808080" />
    <rect x="9587" y="5241" width="346" height="314" stroke="#000000" stroke-width="20" fill="#808080" />
  </g>
  <g name="Valve3">
    <path d="M 13092 23168 l 0 -466 1153 466 0 -466 -1153 466" stroke="#000000" stroke-width="20" fill="#808080" />
    <path d="M 13663 22933 l 66 -24 0 -408 -127 0 0 408 67 24 -6 0" stroke="#000000" stroke-width="20" fill="#808080" />
    <rect x="13487" y="22281" width="346" height="314" stroke="#000000" stroke-width="20" fill="#808080" />
  </g>
  <g name="Valve3">
    <path d="M 13092 28808 l 0 -466 1153 466 0 -466 -1153 466" stroke="#000000" stroke-width="20" fill="#808080" />
    <path d="M 13663 28573 l 66 -24 0 -408 -127 0 0 408 67 24 -6 0" stroke="#000000" stroke-width="20" fill="#808080" />
    <rect x="13487" y="27921" width="346" height="314" stroke="#000000" stroke-width="20" fill="#808080" />
  </g>
  <g id="TEXT8">
    <rect x="8820" y="6300" width="2180" height="740" stroke-width="0" fill="none" id="TEXT8_pbTextBoundingRectEl" />
    <text fill="#000000" font-family="Helvetica" font-size="560" text-anchor="start" x="8820" y="6950" id="TEXT8_pbTextEl">HV928</text>
  </g>
  <g id="TEXT9">
    <rect x="12540" y="23460" width="2600" height="740" stroke-width="0" fill="none" id="TEXT9_pbTextBoundingRectEl" />
    <text fill="#000000" font-family="Helvetica" font-size="560" text-anchor="start" x="12540" y="24110" id="TEXT9_pbTextEl">HV920A</text>
  </g>
  <g id="TEXT10">
    <rect x="12660" y="29080" width="2680" height="740" stroke-width="0" fill="none" id="TEXT10_pbTextBoundingRectEl" />
    <text fill="#000000" font-family="Helvetica" font-size="560" text-anchor="start" x="12660" y="29730" id="TEXT10_pbTextEl">HV920B</text>
  </g>
  <path d="M 22451 9200 l -155 -40 -84 -40 -63 -40 -51 -40 -42 -40 -36 -40 -31 -40 -27 -40 -23 -40 -20 -40 -17 -40 -14 -40 -11 -40 -9 -40 -7 -40 -5 -40 -2 -40 0 -40 2 -40 5 -40 7 -40 9 -40 11 -40 14 -40 17 -40 20 -40 23 -40 27 -40 31 -40 36 -40 42 -40 51 -40 63 -40 84 -40 155 -40 178 0 155 40 84 40 63 40 51 40 42 40 36 40 31 40 27 40 23 40 20 40 17 40 14 40 11 40 9 40 7 40 5 40 2 40 0 40 -2 40 -5 40 -7 40 -9 40 -11 40 -14 40 -17 40 -20 40 -23 40 -27 40 -31 40 -36 40 -42 40 -51 40 -63 40 -84 40 -155 40 -178 0" stroke="#000000" stroke-width="20" fill="#FF0000" />
  <path d="M 23220 8540 l -1340 0" stroke="#000000" stroke-width="20" fill="none" />
  <path d="M 23000 8960 l -980 -900" stroke="#000000" stroke-width="20" fill="none" />
  <path d="M 23060 8060 l -1040 960" stroke="#000000" stroke-width="20" fill="none" />
  <path d="M 22540 9200 l 0 -1420" stroke="#000000" stroke-width="20" fill="none" />
  <path id="LINE113" d="M 21200 8540 l 640 0" stroke="#000000" stroke-width="40" fill="none" />
  <path id="ELLIPSE5" d="M 20602 9020 l -82 -20 -51 -20 -39 -20 -32 -20 -28 -20 -24 -20 -22 -20 -19 -20 -17 -20 -15 -20 -14 -20 -13 -20 -11 -20 -11 -20 -9 -20 -8 -20 -7 -20 -6 -20 -6 -20 -4 -20 -4 -20 -2 -20 -2 -20 -2 -20 0 -20 0 0 0 -20 2 -20 2 -20 2 -20 4 -20 4 -20 6 -20 6 -20 7 -20 8 -20 9 -20 11 -20 11 -20 13 -20 14 -20 15 -20 17 -20 19 -20 22 -20 24 -20 28 -20 32 -20 39 -20 51 -20 82 -20 156 0 82 20 51 20 39 20 32 20 28 20 24 20 22 20 19 20 17 20 15 20 14 20 13 20 11 20 11 20 9 20 8 20 7 20 6 20 6 20 4 20 4 20 2 20 2 20 2 20 0 20 0 0 0 20 -2 20 -2 20 -2 20 -4 20 -4 20 -6 20 -6 20 -7 20 -8 20 -9 20 -11 20 -11 20 -13 20 -14 20 -15 20 -17 20 -19 20 -22 20 -24 20 -28 20 -32 20 -39 20 -51 20 -82 20 -156 0" stroke="#000000" stroke-width="20" stroke-dasharray="60,60" fill="#FF0000" />
  <g id="TEXT16">
    <rect x="20400" y="8140" width="740" height="700" stroke-width="0" fill="none" id="TEXT16_pbTextBoundingRectEl" />
    <text fill="#000000" font-family="Helvetica" font-size="560" text-anchor="start" x="20400" y="8770" id="TEXT16_pbTextEl">M</text>
  </g>
  <path d="M 14131 11420 l -155 -40 -84 -40 -63 -40 -51 -40 -42 -40 -36 -40 -31 -40 -27 -40 -23 -40 -20 -40 -17 -40 -14 -40 -11 -40 -9 -40 -7 -40 -5 -40 -2 -40 0 -40 2 -40 5 -40 7 -40 9 -40 11 -40 14 -40 17 -40 20 -40 23 -40 27 -40 31 -40 36 -40 42 -40 51 -40 63 -40 84 -40 155 -40 178 0 155 40 84 40 63 40 51 40 42 40 36 40 31 40 27 40 23 40 20 40 17 40 14 40 11 40 9 40 7 40 5 40 2 40 0 40 -2 40 -5 40 -7 40 -9 40 -11 40 -14 40 -17 40 -20 40 -23 40 -27 40 -31 40 -36 40 -42 40 -51 40 -63 40 -84 40 -155 40 -178 0" stroke="#000000" stroke-width="20" fill="#FF0000" />
  <path d="M 14900 10760 l -1340 0" stroke="#000000" stroke-width="20" fill="none" />
  <path d="M 14680 11180 l -980 -900" stroke="#000000" stroke-width="20" fill="none" />
  <path d="M 14740 10280 l -1040 960" stroke="#000000" stroke-width="20" fill="none" />
  <path d="M 14220 11420 l 0 -1420" stroke="#000000" stroke-width="20" fill="none" />
  <path id="LINE118" d="M 12860 10760 l 660 0" stroke="#000000" stroke-width="40" fill="none" />
  <path id="ELLIPSE7" d="M 12282 11240 l -82 -20 -51 -20 -39 -20 -32 -20 -28 -20 -24 -20 -22 -20 -19 -20 -17 -20 -15 -20 -14 -20 -13 -20 -11 -20 -11 -20 -9 -20 -8 -20 -7 -20 -6 -20 -6 -20 -4 -20 -4 -20 -2 -20 -2 -20 -2 -20 0 -20 0 0 0 -20 2 -20 2 -20 2 -20 4 -20 4 -20 6 -20 6 -20 7 -20 8 -20 9 -20 11 -20 11 -20 13 -20 14 -20 15 -20 17 -20 19 -20 22 -20 24 -20 28 -20 32 -20 39 -20 51 -20 82 -20 156 0 82 20 51 20 39 20 32 20 28 20 24 20 22 20 19 20 17 20 15 20 14 20 13 20 11 20 11 20 9 20 8 20 7 20 6 20 6 20 4 20 4 20 2 20 2 20 2 20 0 20 0 0 0 20 -2 20 -2 20 -2 20 -4 20 -4 20 -6 20 -6 20 -7 20 -8 20 -9 20 -11 20 -11 20 -13 20 -14 20 -15 20 -17 20 -19 20 -22 20 -24 20 -28 20 -32 20 -39 20 -51 20 -82 20 -156 0" stroke="#000000" stroke-width="20" stroke-dasharray="60,60" fill="#FF0000" />
  <g id="TEXT17">
    <rect x="12080" y="10360" width="740" height="700" stroke-width="0" fill="none" id="TEXT17_pbTextBoundingRectEl" />
    <text fill="#000000" font-family="Helvetica" font-size="560" text-anchor="start" x="12080" y="10990" id="TEXT17_pbTextEl">M</text>
  </g>
  <g id="TEXT18">
    <rect x="12240" y="6420" width="2000" height="700" stroke-width="0" fill="none" id="TEXT18_pbTextBoundingRectEl" />
    <text fill="#000000" font-family="Helvetica" font-size="640" font-weight="bold" text-anchor="start" x="12240" y="7090" id="TEXT18_pbTextEl">D904</text>
  </g>
  <g id="TEXT19">
    <rect x="21700" y="5700" width="2000" height="700" stroke-width="0" fill="none" id="TEXT19_pbTextBoundingRectEl" />
    <text fill="#000000" font-family="Helvetica" font-size="640" font-weight="bold" text-anchor="start" x="21700" y="6370" id="TEXT19_pbTextEl">F903</text>
  </g>
  <g id="TEXT20">
    <rect x="19520" y="9640" width="2580" height="700" stroke-width="0" fill="none" id="TEXT20_pbTextBoundingRectEl" />
    <text fill="#000000" font-family="Helvetica" font-size="640" font-weight="bold" text-anchor="start" x="19520" y="10310" id="TEXT20_pbTextEl">RF902</text>
  </g>
  <g id="TEXT21">
    <rect x="19900" y="15200" width="2160" height="700" stroke-width="0" fill="none" id="TEXT21_pbTextBoundingRectEl" />
    <text fill="#000000" font-family="Helvetica" font-size="640" font-weight="bold" text-anchor="start" x="19900" y="15870" id="TEXT21_pbTextEl">F-906</text>
  </g>
  <g id="TEXT22">
    <rect x="23340" y="19520" width="2160" height="700" stroke-width="0" fill="none" id="TEXT22_pbTextBoundingRectEl" />
    <text fill="#000000" font-family="Helvetica" font-size="640" font-weight="bold" text-anchor="start" x="23340" y="20190" id="TEXT22_pbTextEl">E-921</text>
  </g>
  <g id="TEXT23">
    <rect x="11200" y="11280" width="2580" height="700" stroke-width="0" fill="none" id="TEXT23_pbTextBoundingRectEl" />
    <text fill="#000000" font-family="Helvetica" font-size="640" font-weight="bold" text-anchor="start" x="11200" y="11950" id="TEXT23_pbTextEl">RF903</text>
  </g>
  <g id="TEXT24">
    <rect x="33300" y="13420" width="2700" height="700" stroke-width="0" fill="none" id="TEXT24_pbTextBoundingRectEl" />
    <text fill="#000000" font-family="Helvetica" font-size="640" font-weight="bold" text-anchor="start" x="33300" y="14090" id="TEXT24_pbTextEl">D902D</text>
  </g>
  <g id="TEXT25">
    <rect x="41460" y="13420" width="2700" height="700" stroke-width="0" fill="none" id="TEXT25_pbTextBoundingRectEl" />
    <text fill="#000000" font-family="Helvetica" font-size="640" font-weight="bold" text-anchor="start" x="41460" y="14090" id="TEXT25_pbTextEl">D902C</text>
  </g>
  <g id="TEXT26">
    <rect x="49620" y="13400" width="2700" height="700" stroke-width="0" fill="none" id="TEXT26_pbTextBoundingRectEl" />
    <text fill="#000000" font-family="Helvetica" font-size="640" font-weight="bold" text-anchor="start" x="49620" y="14070" id="TEXT26_pbTextEl">D902B</text>
  </g>
  <g id="TEXT27">
    <rect x="57340" y="13360" width="2700" height="700" stroke-width="0" fill="none" id="TEXT27_pbTextBoundingRectEl" />
    <text fill="#000000" font-family="Helvetica" font-size="640" font-weight="bold" text-anchor="start" x="57340" y="14030" id="TEXT27_pbTextEl">D902A</text>
  </g>
  <g id="TEXT28">
    <rect x="15980" y="10480" width="2180" height="740" stroke-width="0" fill="none" id="TEXT28_pbTextBoundingRectEl" />
    <text fill="#000000" font-family="Helvetica" font-size="560" text-anchor="start" x="15980" y="11130" id="TEXT28_pbTextEl">SE903</text>
  </g>
  <g id="TEXT29">
    <rect x="17140" y="11000" width="1340" height="740" stroke-width="0" fill="none" id="TEXT29_pbTextBoundingRectEl" />
    <text fill="#000000" font-family="Helvetica" font-size="560" text-anchor="start" x="17140" y="11650" id="TEXT29_pbTextEl">rpm</text>
  </g>
  <g id="TEXT30">
    <rect x="23780" y="8940" width="2180" height="740" stroke-width="0" fill="none" id="TEXT30_pbTextBoundingRectEl" />
    <text fill="#000000" font-family="Helvetica" font-size="560" text-anchor="start" x="23780" y="9590" id="TEXT30_pbTextEl">SE902</text>
  </g>
  <g id="TEXT31">
    <rect x="24940" y="9460" width="1340" height="740" stroke-width="0" fill="none" id="TEXT31_pbTextBoundingRectEl" />
    <text fill="#000000" font-family="Helvetica" font-size="560" text-anchor="start" x="24940" y="10110" id="TEXT31_pbTextEl">rpm</text>
  </g>
  <g id="TEXT32">
    <rect x="33520" y="2620" width="2100" height="740" stroke-width="0" fill="none" id="TEXT32_pbTextBoundingRectEl" />
    <text fill="#000000" font-family="Helvetica" font-size="560" text-anchor="start" x="33520" y="3270" id="TEXT32_pbTextEl">HV937</text>
  </g>
  <g id="TEXT33">
    <rect x="41620" y="2740" width="2100" height="740" stroke-width="0" fill="none" id="TEXT33_pbTextBoundingRectEl" />
    <text fill="#000000" font-family="Helvetica" font-size="560" text-anchor="start" x="41620" y="3390" id="TEXT33_pbTextEl">HV938</text>
  </g>
  <g id="TEXT34">
    <rect x="49720" y="2660" width="2100" height="740" stroke-width="0" fill="none" id="TEXT34_pbTextBoundingRectEl" />
    <text fill="#000000" font-family="Helvetica" font-size="560" text-anchor="start" x="49720" y="3310" id="TEXT34_pbTextEl">HV939</text>
  </g>
  <g id="TEXT35">
    <rect x="11960" y="17620" width="1680" height="740" stroke-width="0" fill="none" id="TEXT35_pbTextBoundingRectEl" />
    <text fill="#000000" font-family="Helvetica" font-size="560" text-anchor="start" x="11960" y="18270" id="TEXT35_pbTextEl">CWR</text>
  </g>
  <g id="TEXT36">
    <rect x="11980" y="21480" width="1680" height="740" stroke-width="0" fill="none" id="TEXT36_pbTextBoundingRectEl" />
    <text fill="#000000" font-family="Helvetica" font-size="560" text-anchor="start" x="11980" y="22130" id="TEXT36_pbTextEl">CWS</text>
  </g>
  <g id="TEXT37">
    <rect x="36580" y="10680" width="3620" height="740" stroke-width="0" fill="none" id="TEXT37_pbTextBoundingRectEl" />
    <text fill="#000000" font-family="Helvetica" font-size="560" text-anchor="start" x="36580" y="11330" id="TEXT37_pbTextEl">LAHH922D</text>
  </g>
  <g id="TEXT38">
    <rect x="36680" y="11980" width="3060" height="740" stroke-width="0" fill="none" id="TEXT38_pbTextBoundingRectEl" />
    <text fill="#000000" font-family="Helvetica" font-size="560" text-anchor="start" x="36680" y="12630" id="TEXT38_pbTextEl">LAH921D</text>
  </g>
  <g id="TEXT40">
    <rect x="36960" y="14800" width="2800" height="740" stroke-width="0" fill="none" id="TEXT40_pbTextBoundingRectEl" />
    <text fill="#000000" font-family="Helvetica" font-size="560" text-anchor="start" x="36960" y="15450" id="TEXT40_pbTextEl">LAL920D</text>
  </g>
  <g id="TEXT41">
    <rect x="14840" y="15180" width="2380" height="740" stroke-width="0" fill="none" id="TEXT41_pbTextBoundingRectEl" />
    <text fill="#000000" font-family="Helvetica" font-size="560" text-anchor="start" x="14840" y="15830" id="TEXT41_pbTextEl">LAH921</text>
  </g>
  <path id="ELLIPSE9" d="M 17390 15920 l -73 -20 -45 -20 -34 -20 -28 -20 -24 -20 -20 -20 -18 -20 -15 -20 -14 -20 -12 -20 -11 -20 -9 -20 -8 -20 -7 -20 -5 -20 -5 -20 -4 -20 -2 -20 -2 -20 0 -20 0 0 0 -20 2 -20 2 -20 4 -20 5 -20 5 -20 7 -20 8 -20 9 -20 11 -20 12 -20 14 -20 15 -20 18 -20 20 -20 24 -20 28 -20 34 -20 45 -20 73 -20 140 0 73 20 45 20 34 20 28 20 24 20 20 20 18 20 15 20 14 20 12 20 11 20 9 20 8 20 7 20 5 20 5 20 4 20 2 20 2 20 0 20 0 0 0 20 -2 20 -2 20 -4 20 -5 20 -5 20 -7 20 -8 20 -9 20 -11 20 -12 20 -14 20 -15 20 -18 20 -20 20 -24 20 -28 20 -34 20 -45 20 -73 20 -140 0" stroke="#000000" stroke-width="20" fill="#00FF00" />
  <path id="ELLIPSE13" d="M 35870 11460 l -73 -20 -45 -20 -34 -20 -28 -20 -24 -20 -20 -20 -18 -20 -15 -20 -14 -20 -12 -20 -11 -20 -9 -20 -8 -20 -7 -20 -5 -20 -5 -20 -4 -20 -2 -20 -2 -20 0 -20 0 0 0 -20 2 -20 2 -20 4 -20 5 -20 5 -20 7 -20 8 -20 9 -20 11 -20 12 -20 14 -20 15 -20 18 -20 20 -20 24 -20 28 -20 34 -20 45 -20 73 -20 140 0 73 20 45 20 34 20 28 20 24 20 20 20 18 20 15 20 14 20 12 20 11 20 9 20 8 20 7 20 5 20 5 20 4 20 2 20 2 20 0 20 0 0 0 20 -2 20 -2 20 -4 20 -5 20 -5 20 -7 20 -8 20 -9 20 -11 20 -12 20 -14 20 -15 20 -18 20 -20 20 -24 20 -28 20 -34 20 -45 20 -73 20 -140 0" stroke="#000000" stroke-width="20" fill="#00FF00" />
  <path id="ELLIPSE14" d="M 35910 12780 l -73 -20 -45 -20 -34 -20 -28 -20 -24 -20 -20 -20 -18 -20 -15 -20 -14 -20 -12 -20 -11 -20 -9 -20 -8 -20 -7 -20 -5 -20 -5 -20 -4 -20 -2 -20 -2 -20 0 -20 0 0 0 -20 2 -20 2 -20 4 -20 5 -20 5 -20 7 -20 8 -20 9 -20 11 -20 12 -20 14 -20 15 -20 18 -20 20 -20 24 -20 28 -20 34 -20 45 -20 73 -20 140 0 73 20 45 20 34 20 28 20 24 20 20 20 18 20 15 20 14 20 12 20 11 20 9 20 8 20 7 20 5 20 5 20 4 20 2 20 2 20 0 20 0 0 0 20 -2 20 -2 20 -4 20 -5 20 -5 20 -7 20 -8 20 -9 20 -11 20 -12 20 -14 20 -15 20 -18 20 -20 20 -24 20 -28 20 -34 20 -45 20 -73 20 -140 0" stroke="#000000" stroke-width="20" fill="#00FF00" />
  <path id="ELLIPSE16" d="M 35930 15620 l -73 -20 -45 -20 -34 -20 -28 -20 -24 -20 -20 -20 -18 -20 -15 -20 -14 -20 -12 -20 -11 -20 -9 -20 -8 -20 -7 -20 -5 -20 -5 -20 -4 -20 -2 -20 -2 -20 0 -20 0 0 0 -20 2 -20 2 -20 4 -20 5 -20 5 -20 7 -20 8 -20 9 -20 11 -20 12 -20 14 -20 15 -20 18 -20 20 -20 24 -20 28 -20 34 -20 45 -20 73 -20 140 0 73 20 45 20 34 20 28 20 24 20 20 20 18 20 15 20 14 20 12 20 11 20 9 20 8 20 7 20 5 20 5 20 4 20 2 20 2 20 0 20 0 0 0 20 -2 20 -2 20 -4 20 -5 20 -5 20 -7 20 -8 20 -9 20 -11 20 -12 20 -14 20 -15 20 -18 20 -20 20 -24 20 -28 20 -34 20 -45 20 -73 20 -140 0" stroke="#000000" stroke-width="20" fill="#00FF00" />
  <g id="TEXT42">
    <rect x="44860" y="11980" width="3060" height="740" stroke-width="0" fill="none" id="TEXT42_pbTextBoundingRectEl" />
    <text fill="#000000" font-family="Helvetica" font-size="560" text-anchor="start" x="44860" y="12630" id="TEXT42_pbTextEl">LAH921C</text>
  </g>
  <g id="TEXT43">
    <rect x="44980" y="14800" width="2800" height="740" stroke-width="0" fill="none" id="TEXT43_pbTextBoundingRectEl" />
    <text fill="#000000" font-family="Helvetica" font-size="560" text-anchor="start" x="44980" y="15450" id="TEXT43_pbTextEl">LAL920C</text>
  </g>
  <path id="ELLIPSE17" d="M 44050 11460 l -73 -20 -45 -20 -34 -20 -28 -20 -24 -20 -20 -20 -18 -20 -15 -20 -14 -20 -12 -20 -11 -20 -9 -20 -8 -20 -7 -20 -5 -20 -5 -20 -4 -20 -2 -20 -2 -20 0 -20 0 0 0 -20 2 -20 2 -20 4 -20 5 -20 5 -20 7 -20 8 -20 9 -20 11 -20 12 -20 14 -20 15 -20 18 -20 20 -20 24 -20 28 -20 34 -20 45 -20 73 -20 140 0 73 20 45 20 34 20 28 20 24 20 20 20 18 20 15 20 14 20 12 20 11 20 9 20 8 20 7 20 5 20 5 20 4 20 2 20 2 20 0 20 0 0 0 20 -2 20 -2 20 -4 20 -5 20 -5 20 -7 20 -8 20 -9 20 -11 20 -12 20 -14 20 -15 20 -18 20 -20 20 -24 20 -28 20 -34 20 -45 20 -73 20 -140 0" stroke="#000000" stroke-width="20" fill="#00FF00" />
  <path id="ELLIPSE18" d="M 44090 12800 l -73 -20 -45 -20 -34 -20 -28 -20 -24 -20 -20 -20 -18 -20 -15 -20 -14 -20 -12 -20 -11 -20 -9 -20 -8 -20 -7 -20 -5 -20 -5 -20 -4 -20 -2 -20 -2 -20 0 -20 0 0 0 -20 2 -20 2 -20 4 -20 5 -20 5 -20 7 -20 8 -20 9 -20 11 -20 12 -20 14 -20 15 -20 18 -20 20 -20 24 -20 28 -20 34 -20 45 -20 73 -20 140 0 73 20 45 20 34 20 28 20 24 20 20 20 18 20 15 20 14 20 12 20 11 20 9 20 8 20 7 20 5 20 5 20 4 20 2 20 2 20 0 20 0 0 0 20 -2 20 -2 20 -4 20 -5 20 -5 20 -7 20 -8 20 -9 20 -11 20 -12 20 -14 20 -15 20 -18 20 -20 20 -24 20 -28 20 -34 20 -45 20 -73 20 -140 0" stroke="#000000" stroke-width="20" fill="#00FF00" />
  <path id="ELLIPSE19" d="M 44110 15640 l -73 -20 -45 -20 -34 -20 -28 -20 -24 -20 -20 -20 -18 -20 -15 -20 -14 -20 -12 -20 -11 -20 -9 -20 -8 -20 -7 -20 -5 -20 -5 -20 -4 -20 -2 -20 -2 -20 0 -20 0 0 0 -20 2 -20 2 -20 4 -20 5 -20 5 -20 7 -20 8 -20 9 -20 11 -20 12 -20 14 -20 15 -20 18 -20 20 -20 24 -20 28 -20 34 -20 45 -20 73 -20 140 0 73 20 45 20 34 20 28 20 24 20 20 20 18 20 15 20 14 20 12 20 11 20 9 20 8 20 7 20 5 20 5 20 4 20 2 20 2 20 0 20 0 0 0 20 -2 20 -2 20 -4 20 -5 20 -5 20 -7 20 -8 20 -9 20 -11 20 -12 20 -14 20 -15 20 -18 20 -20 20 -24 20 -28 20 -34 20 -45 20 -73 20 -140 0" stroke="#000000" stroke-width="20" fill="#00FF00" />
  <g id="TEXT44">
    <rect x="52920" y="12040" width="3060" height="740" stroke-width="0" fill="none" id="TEXT44_pbTextBoundingRectEl" />
    <text fill="#000000" font-family="Helvetica" font-size="560" text-anchor="start" x="52920" y="12690" id="TEXT44_pbTextEl">LAH921B</text>
  </g>
  <g id="TEXT45">
    <rect x="52900" y="14860" width="2800" height="740" stroke-width="0" fill="none" id="TEXT45_pbTextBoundingRectEl" />
    <text fill="#000000" font-family="Helvetica" font-size="560" text-anchor="start" x="52900" y="15510" id="TEXT45_pbTextEl">LAL920B</text>
  </g>
  <path id="ELLIPSE20" d="M 52130 11500 l -73 -20 -45 -20 -34 -20 -28 -20 -24 -20 -20 -20 -18 -20 -15 -20 -14 -20 -12 -20 -11 -20 -9 -20 -8 -20 -7 -20 -5 -20 -5 -20 -4 -20 -2 -20 -2 -20 0 -20 0 0 0 -20 2 -20 2 -20 4 -20 5 -20 5 -20 7 -20 8 -20 9 -20 11 -20 12 -20 14 -20 15 -20 18 -20 20 -20 24 -20 28 -20 34 -20 45 -20 73 -20 140 0 73 20 45 20 34 20 28 20 24 20 20 20 18 20 15 20 14 20 12 20 11 20 9 20 8 20 7 20 5 20 5 20 4 20 2 20 2 20 0 20 0 0 0 20 -2 20 -2 20 -4 20 -5 20 -5 20 -7 20 -8 20 -9 20 -11 20 -12 20 -14 20 -15 20 -18 20 -20 20 -24 20 -28 20 -34 20 -45 20 -73 20 -140 0" stroke="#000000" stroke-width="20" fill="#00FF00" />
  <path id="ELLIPSE21" d="M 52150 12820 l -73 -20 -45 -20 -34 -20 -28 -20 -24 -20 -20 -20 -18 -20 -15 -20 -14 -20 -12 -20 -11 -20 -9 -20 -8 -20 -7 -20 -5 -20 -5 -20 -4 -20 -2 -20 -2 -20 0 -20 0 0 0 -20 2 -20 2 -20 4 -20 5 -20 5 -20 7 -20 8 -20 9 -20 11 -20 12 -20 14 -20 15 -20 18 -20 20 -20 24 -20 28 -20 34 -20 45 -20 73 -20 140 0 73 20 45 20 34 20 28 20 24 20 20 20 18 20 15 20 14 20 12 20 11 20 9 20 8 20 7 20 5 20 5 20 4 20 2 20 2 20 0 20 0 0 0 20 -2 20 -2 20 -4 20 -5 20 -5 20 -7 20 -8 20 -9 20 -11 20 -12 20 -14 20 -15 20 -18 20 -20 20 -24 20 -28 20 -34 20 -45 20 -73 20 -140 0" stroke="#000000" stroke-width="20" fill="#00FF00" />
  <path id="ELLIPSE22" d="M 52190 15680 l -73 -20 -45 -20 -34 -20 -28 -20 -24 -20 -20 -20 -18 -20 -15 -20 -14 -20 -12 -20 -11 -20 -9 -20 -8 -20 -7 -20 -5 -20 -5 -20 -4 -20 -2 -20 -2 -20 0 -20 0 0 0 -20 2 -20 2 -20 4 -20 5 -20 5 -20 7 -20 8 -20 9 -20 11 -20 12 -20 14 -20 15 -20 18 -20 20 -20 24 -20 28 -20 34 -20 45 -20 73 -20 140 0 73 20 45 20 34 20 28 20 24 20 20 20 18 20 15 20 14 20 12 20 11 20 9 20 8 20 7 20 5 20 5 20 4 20 2 20 2 20 0 20 0 0 0 20 -2 20 -2 20 -4 20 -5 20 -5 20 -7 20 -8 20 -9 20 -11 20 -12 20 -14 20 -15 20 -18 20 -20 20 -24 20 -28 20 -34 20 -45 20 -73 20 -140 0" stroke="#000000" stroke-width="20" fill="#00FF00" />
  <g id="TEXT46">
    <rect x="60740" y="12060" width="3060" height="740" stroke-width="0" fill="none" id="TEXT46_pbTextBoundingRectEl" />
    <text fill="#000000" font-family="Helvetica" font-size="560" text-anchor="start" x="60740" y="12710" id="TEXT46_pbTextEl">LAH921A</text>
  </g>
  <g id="TEXT47">
    <rect x="60620" y="14760" width="2800" height="740" stroke-width="0" fill="none" id="TEXT47_pbTextBoundingRectEl" />
    <text fill="#000000" font-family="Helvetica" font-size="560" text-anchor="start" x="60620" y="15410" id="TEXT47_pbTextEl">LAL920A</text>
  </g>
  <path id="ELLIPSE23" d="M 59850 11440 l -73 -20 -45 -20 -34 -20 -28 -20 -24 -20 -20 -20 -18 -20 -15 -20 -14 -20 -12 -20 -11 -20 -9 -20 -8 -20 -7 -20 -5 -20 -5 -20 -4 -20 -2 -20 -2 -20 0 -20 0 0 0 -20 2 -20 2 -20 4 -20 5 -20 5 -20 7 -20 8 -20 9 -20 11 -20 12 -20 14 -20 15 -20 18 -20 20 -20 24 -20 28 -20 34 -20 45 -20 73 -20 140 0 73 20 45 20 34 20 28 20 24 20 20 20 18 20 15 20 14 20 12 20 11 20 9 20 8 20 7 20 5 20 5 20 4 20 2 20 2 20 0 20 0 0 0 20 -2 20 -2 20 -4 20 -5 20 -5 20 -7 20 -8 20 -9 20 -11 20 -12 20 -14 20 -15 20 -18 20 -20 20 -24 20 -28 20 -34 20 -45 20 -73 20 -140 0" stroke="#000000" stroke-width="20" fill="#00FF00" />
  <path id="ELLIPSE24" d="M 59890 12760 l -73 -20 -45 -20 -34 -20 -28 -20 -24 -20 -20 -20 -18 -20 -15 -20 -14 -20 -12 -20 -11 -20 -9 -20 -8 -20 -7 -20 -5 -20 -5 -20 -4 -20 -2 -20 -2 -20 0 -20 0 0 0 -20 2 -20 2 -20 4 -20 5 -20 5 -20 7 -20 8 -20 9 -20 11 -20 12 -20 14 -20 15 -20 18 -20 20 -20 24 -20 28 -20 34 -20 45 -20 73 -20 140 0 73 20 45 20 34 20 28 20 24 20 20 20 18 20 15 20 14 20 12 20 11 20 9 20 8 20 7 20 5 20 5 20 4 20 2 20 2 20 0 20 0 0 0 20 -2 20 -2 20 -4 20 -5 20 -5 20 -7 20 -8 20 -9 20 -11 20 -12 20 -14 20 -15 20 -18 20 -20 20 -24 20 -28 20 -34 20 -45 20 -73 20 -140 0" stroke="#000000" stroke-width="20" fill="#00FF00" />
  <path id="ELLIPSE25" d="M 59910 15600 l -73 -20 -45 -20 -34 -20 -28 -20 -24 -20 -20 -20 -18 -20 -15 -20 -14 -20 -12 -20 -11 -20 -9 -20 -8 -20 -7 -20 -5 -20 -5 -20 -4 -20 -2 -20 -2 -20 0 -20 0 0 0 -20 2 -20 2 -20 4 -20 5 -20 5 -20 7 -20 8 -20 9 -20 11 -20 12 -20 14 -20 15 -20 18 -20 20 -20 24 -20 28 -20 34 -20 45 -20 73 -20 140 0 73 20 45 20 34 20 28 20 24 20 20 20 18 20 15 20 14 20 12 20 11 20 9 20 8 20 7 20 5 20 5 20 4 20 2 20 2 20 0 20 0 0 0 20 -2 20 -2 20 -4 20 -5 20 -5 20 -7 20 -8 20 -9 20 -11 20 -12 20 -14 20 -15 20 -18 20 -20 20 -24 20 -28 20 -34 20 -45 20 -73 20 -140 0" stroke="#000000" stroke-width="20" fill="#00FF00" />
  <g id="TEXT48">
    <rect x="44860" y="10760" width="3620" height="740" stroke-width="0" fill="none" id="TEXT48_pbTextBoundingRectEl" />
    <text fill="#000000" font-family="Helvetica" font-size="560" text-anchor="start" x="44860" y="11410" id="TEXT48_pbTextEl">LAHH922C</text>
  </g>
  <g id="TEXT49">
    <rect x="52940" y="10760" width="3620" height="740" stroke-width="0" fill="none" id="TEXT49_pbTextBoundingRectEl" />
    <text fill="#000000" font-family="Helvetica" font-size="560" text-anchor="start" x="52940" y="11410" id="TEXT49_pbTextEl">LAHH922B</text>
  </g>
  <g id="TEXT50">
    <rect x="60720" y="10740" width="3620" height="740" stroke-width="0" fill="none" id="TEXT50_pbTextBoundingRectEl" />
    <text fill="#000000" font-family="Helvetica" font-size="560" text-anchor="start" x="60720" y="11390" id="TEXT50_pbTextEl">LAHH922A</text>
  </g>
  <g name="StraightArrow1">
    <path d="M 2995 8757 l -868 -387 0 258 -1362 0 0 264 1362 0 0 258 868 -393 0 0" stroke-width="0" fill="#000000" />
    <path d="M 2995 8757 l -868 -387 0 258 -1362 0 0 264 1362 0 0 258 868 -393" stroke="#000000" stroke-width="20" fill="none" />
  </g>
  <g id="TEXT51">
    <rect x="1000" y="7580" width="2120" height="740" stroke-width="0" fill="none" id="TEXT51_pbTextBoundingRectEl" />
    <text fill="#000000" font-family="Helvetica" font-size="560" text-anchor="start" x="1000" y="8230" id="TEXT51_pbTextEl">HV910</text>
  </g>
  <g name="StraightArrow1">
    <path d="M 63375 22097 l -868 -387 0 258 -1362 0 0 264 1362 0 0 258 868 -393 0 0" stroke-width="0" fill="#000000" />
    <path d="M 63375 22097 l -868 -387 0 258 -1362 0 0 264 1362 0 0 258 868 -393" stroke="#000000" stroke-width="20" fill="none" />
  </g>
  <g id="TEXT52">
    <rect x="60840" y="20920" width="2760" height="740" stroke-width="0" fill="none" id="TEXT52_pbTextBoundingRectEl" />
    <text fill="#000000" font-family="Helvetica" font-size="560" text-anchor="start" x="60840" y="21570" id="TEXT52_pbTextEl">PK-902A</text>
  </g>
  <g name="StraightArrow1">
    <path d="M 63395 24077 l -868 -387 0 258 -1362 0 0 264 1362 0 0 258 868 -393 0 0" stroke-width="0" fill="#000000" />
    <path d="M 63395 24077 l -868 -387 0 258 -1362 0 0 264 1362 0 0 258 868 -393" stroke="#000000" stroke-width="20" fill="none" />
  </g>
  <g name="StraightArrow1">
    <path d="M 63315 26377 l -868 -387 0 258 -1362 0 0 264 1362 0 0 258 868 -393 0 0" stroke-width="0" fill="#000000" />
    <path d="M 63315 26377 l -868 -387 0 258 -1362 0 0 264 1362 0 0 258 868 -393" stroke="#000000" stroke-width="20" fill="none" />
  </g>
  <g name="StraightArrow1">
    <path d="M 63335 28617 l -868 -387 0 258 -1362 0 0 264 1362 0 0 258 868 -393 0 0" stroke-width="0" fill="#000000" />
    <path d="M 63335 28617 l -868 -387 0 258 -1362 0 0 264 1362 0 0 258 868 -393" stroke="#000000" stroke-width="20" fill="none" />
  </g>
  <g id="TEXT56">
    <rect x="60820" y="22900" width="2760" height="740" stroke-width="0" fill="none" id="TEXT56_pbTextBoundingRectEl" />
    <text fill="#000000" font-family="Helvetica" font-size="560" text-anchor="start" x="60820" y="23550" id="TEXT56_pbTextEl">PK-902B</text>
  </g>
  <g id="TEXT57">
    <rect x="60740" y="25000" width="2760" height="740" stroke-width="0" fill="none" id="TEXT57_pbTextBoundingRectEl" />
    <text fill="#000000" font-family="Helvetica" font-size="560" text-anchor="start" x="60740" y="25650" id="TEXT57_pbTextEl">PK-902C</text>
  </g>
  <g id="TEXT58">
    <rect x="60780" y="27260" width="2760" height="740" stroke-width="0" fill="none" id="TEXT58_pbTextBoundingRectEl" />
    <text fill="#000000" font-family="Helvetica" font-size="560" text-anchor="start" x="60780" y="27910" id="TEXT58_pbTextEl">PK-902D</text>
  </g>
  <g id="TEXT60">
    <rect x="26000" y="0" width="12000" height="2000" stroke-width="0" fill="none" id="TEXT60_pbTextBoundingRectEl" />
    <text fill="#000000" font-family="Helvetica" font-size="960" font-weight="bold" text-anchor="middle" x="32000" y="1480" id="TEXT60_pbTextEl">C092淘淅系统包装料仓</text>
  </g>
  <g name="NoCrescentArrow">
    <path d="M 14168 21855 l -413 -134 0 277 -1 1 414 -144 0 0" stroke-width="0" fill="#00FF00" />
    <path d="M 14168 21855 l -413 -134 0 277 -1 1 414 -144" stroke="#000000" stroke-width="20" fill="none" />
  </g>
  <g name="NoCrescentArrow">
    <path d="M 13812 17955 l 412 -134 1 276 0 2 -413 -144 0 0" stroke-width="0" fill="#00FF00" />
    <path d="M 13812 17955 l 412 -134 1 276 0 2 -413 -144" stroke="#000000" stroke-width="20" fill="none" />
  </g>
  <g id="DATAPOINT155" PB:IsMultiState="False" PBD:PtTagName="\\RTDBB\170_SE_903" PB:Type="7" PB:NumberFormat="0.00">
    <rect x="15680" y="11320" width="1140" height="520" stroke-width="0" fill="none" id="DATAPOINT155_pbTextBoundingRectEl" />
    <text fill="#000000" font-family="Helvetica" font-size="560" text-anchor="middle" x="16250" y="11860" id="DATAPOINT155_pbTextEl" PBD:Property="VAL">#.##</text>
  </g>
  <g id="DATAPOINT156" PB:IsMultiState="False" PBD:PtTagName="\\RTDBB\170_SE_902" PB:Type="7" PB:NumberFormat="0.00">
    <rect x="23440" y="9720" width="1140" height="520" stroke-width="0" fill="none" id="DATAPOINT156_pbTextBoundingRectEl" />
    <text fill="#000000" font-family="Helvetica" font-size="560" text-anchor="middle" x="24010" y="10260" id="DATAPOINT156_pbTextEl" PBD:Property="VAL">#.##</text>
  </g>
  <g id="TEXT216">
    <rect x="2300" y="1680" width="2180" height="740" stroke-width="0" fill="none" id="TEXT216_pbTextBoundingRectEl" />
    <text fill="#000000" font-family="Helvetica" font-size="560" text-anchor="start" x="2300" y="2330" id="TEXT216_pbTextEl">SE906</text>
  </g>
  <g id="TEXT217">
    <rect x="3460" y="2200" width="1340" height="740" stroke-width="0" fill="none" id="TEXT217_pbTextBoundingRectEl" />
    <text fill="#000000" font-family="Helvetica" font-size="560" text-anchor="start" x="3460" y="2850" id="TEXT217_pbTextEl">rpm</text>
  </g>
  <g id="DATAPOINT157" PB:IsMultiState="False" PBD:PtTagName="\\RTDBB\170_SE_906" PB:Type="7" PB:NumberFormat="0.00">
    <rect x="2000" y="2440" width="1140" height="520" stroke-width="0" fill="none" id="DATAPOINT157_pbTextBoundingRectEl" />
    <text fill="#000000" font-family="Helvetica" font-size="560" text-anchor="middle" x="2570" y="2980" id="DATAPOINT157_pbTextEl" PBD:Property="VAL">#.##</text>
  </g>
</svg>