<?xml version="1.0" encoding="UTF-8"?>
<svg height="100%" width="100%" viewBox="0 0 64000 32000" version="1.1" xmlns="http://www.w3.org/2000/svg" xmlns:xlink="http://www.w3.org/1999/xlink" xmlns:PB="urn:osisoft-com-pb" xmlns:PBI="urn:osisoft-com-interface" xmlns:PBD="urn:osisoft-com-data" style="background-color:#C0C0C0">
  <title>Graphic124</title>
  <defs />
  <g id="TEXT430">
    <rect x="23900" y="100" width="12820" height="1900" stroke-width="0" fill="none" id="TEXT430_pbTextBoundingRectEl" />
    <text fill="#000000" font-family="Helvetica" font-size="960" font-weight="bold" text-anchor="start" x="23900" y="1530" id="TEXT430_pbTextEl">C035B、PK301冷却系统</text>
  </g>
  <rect x="35100" y="13360" width="2740" height="6500" stroke="#000000" stroke-width="20" fill="#969696" id="RECTANGLE82" />
  <path id="POLYGON636" d="M 34440 13360 l 4200 0" stroke="#000000" stroke-width="20" fill="none" />
  <path id="LINE636" d="M 34440 13040 l 4200 0" stroke="#000000" stroke-width="20" fill="none" />
  <path id="ARC23" d="M 36520 13040 l 2060 0 -1 -15 -1 -15 -1 -16 -3 -15 -2 -15 -4 -15 -4 -16 -5 -15 -5 -15 -6 -15 -6 -15 -8 -15 -7 -15 -9 -15 -9 -15 -9 -15 -11 -15 -10 -14 -12 -15 -12 -14 -12 -15 -14 -14 -13 -14 -15 -14 -15 -14 -15 -14 -16 -14 -17 -14 -17 -13 -17 -14 -19 -13 -19 -13 -19 -13 -20 -13 -20 -12 -21 -13 -21 -12 -22 -12 -23 -12 -22 -12 -24 -12 -24 -11 -24 -12 -25 -11 -25 -11 -26 -11 -26 -10 -26 -10 -27 -11 -27 -10 -28 -9 -28 -10 -29 -9 -29 -9 -29 -9 -30 -9 -30 -9 -30 -8 -31 -8 -30 -8 -32 -7 -31 -7 -32 -8 -32 -6 -33 -7 -33 -6 -33 -7 -33 -5 -33 -6 -34 -5 -34 -6 -34 -4 -34 -5 -35 -4 -34 -5 -35 -3 -35 -4 -35 -3 -35 -3 -36 -3 -35 -3 -36 -2 -35 -2 -36 -2 -36 -1 -36 -1 -36 -1 -36 -1 -36 0 -35 -1 -36 1 -36 0 -36 1 -36 1 -36 1 -36 1 -36 2 -35 2 -36 2 -35 3 -36 3 -35 3 -35 3 -35 4 -35 3 -34 5 -35 4 -34 5 -34 4 -34 6 -34 5 -33 6 -33 5 -33 7 -33 6 -33 7 -32 6 -32 8 -31 7 -31 7 -31 8 -31 8 -30 8 -30 9 -30 9 -29 9 -29 9 -29 9 -28 10 -28 9 -27 10 -27 11 -26 10 -26 10 -26 11 -25 11 -25 11 -24 12 -24 11 -24 12 -22 12 -23 12 -22 12 -21 12 -21 13 -20 12 -20 13 -19 13 -19 13 -19 13 -17 14 -17 13 -17 14 -16 14 -15 14 -15 14 -15 14 -13 14 -14 14 -12 15 -12 14 -12 15 -10 14 -11 15 -9 15 -9 15 -9 15 -7 15 -8 15 -6 15 -6 15 -5 15 -5 15 -4 16 -4 15 -2 15 -3 15 -1 16 -1 15 0 15 2060 0" stroke="#000000" stroke-width="20" fill="#969696" />
  <path id="LINE637" d="M 38660 19880 l -4200 0" stroke="#000000" stroke-width="20" fill="none" />
  <path id="LINE638" d="M 38660 20220 l -4200 0" stroke="#000000" stroke-width="20" fill="none" />
  <path id="ARC25" d="M 36580 20220 l -2060 0 1 15 1 15 1 16 3 15 2 15 4 15 4 16 5 15 5 15 6 15 6 15 8 15 7 15 9 15 9 15 9 15 11 15 10 14 12 15 12 14 12 15 14 14 13 14 15 14 15 14 15 14 16 14 17 14 17 13 17 14 19 13 19 13 19 13 20 13 20 12 21 13 21 12 22 12 23 12 22 12 24 12 24 11 24 12 25 11 25 11 26 11 26 10 26 10 27 11 27 10 28 9 28 10 29 9 29 9 29 9 30 9 30 9 30 8 31 8 30 8 32 7 31 7 32 8 32 6 33 7 33 6 33 7 33 5 33 6 34 5 34 6 34 4 34 5 35 4 34 5 35 3 35 4 35 3 35 3 36 3 35 3 36 2 35 2 36 2 36 1 36 1 36 1 36 1 36 0 35 1 36 -1 36 0 36 -1 36 -1 36 -1 36 -1 36 -2 35 -2 36 -2 35 -3 36 -3 35 -3 35 -3 35 -4 35 -3 34 -5 35 -4 34 -5 34 -4 34 -6 34 -5 33 -6 33 -5 33 -7 33 -6 33 -7 32 -6 32 -8 31 -7 31 -7 31 -8 31 -8 30 -8 30 -9 30 -9 29 -9 29 -9 29 -9 28 -10 28 -9 27 -10 27 -11 26 -10 26 -10 26 -11 25 -11 25 -11 24 -12 24 -11 24 -12 22 -12 23 -12 22 -12 21 -12 21 -13 20 -12 20 -13 19 -13 19 -13 19 -13 17 -14 17 -13 17 -14 16 -14 15 -14 15 -14 15 -14 13 -14 14 -14 12 -15 12 -14 12 -15 10 -14 11 -15 9 -15 9 -15 9 -15 7 -15 8 -15 6 -15 6 -15 5 -15 5 -15 4 -16 4 -15 2 -15 3 -14 1 -17 1 -15 0 -15 -2060 0" stroke="#000000" stroke-width="20" fill="#969696" />
  <path id="POLYGON638" d="M 35100 14140 l -900 0" stroke="#000000" stroke-width="20" fill="none" />
  <path id="POLYGON639" d="M 34180 14640 l 0 -1080" stroke="#000000" stroke-width="20" fill="none" />
  <path id="LINE639" d="M 37840 18940 l 900 0" stroke="#000000" stroke-width="20" fill="none" />
  <path id="LINE640" d="M 38740 19460 l 0 -1100" stroke="#000000" stroke-width="20" fill="none" />
  <rect x="41440" y="13360" width="2740" height="6500" stroke="#000000" stroke-width="20" fill="#969696" id="RECTANGLE83" />
  <path id="LINE641" d="M 40780 13360 l 4180 0" stroke="#000000" stroke-width="20" fill="none" />
  <path id="LINE642" d="M 40780 13020 l 4180 0" stroke="#000000" stroke-width="20" fill="none" />
  <path id="ARC26" d="M 42840 13020 l 2060 0 -1 -15 -1 -15 -1 -16 -3 -15 -2 -15 -4 -15 -4 -16 -5 -15 -5 -15 -6 -15 -6 -15 -8 -15 -7 -15 -9 -15 -9 -15 -9 -15 -11 -15 -10 -14 -12 -15 -12 -14 -12 -15 -14 -14 -13 -14 -15 -14 -15 -14 -15 -14 -16 -14 -17 -14 -17 -13 -17 -14 -19 -13 -19 -13 -19 -13 -20 -13 -20 -12 -21 -13 -21 -12 -22 -12 -23 -12 -22 -12 -24 -12 -24 -11 -24 -12 -25 -11 -25 -11 -26 -11 -26 -10 -26 -10 -27 -11 -27 -10 -28 -9 -28 -10 -29 -9 -29 -9 -29 -9 -30 -9 -30 -9 -30 -8 -31 -8 -30 -8 -32 -7 -31 -7 -32 -8 -32 -6 -33 -7 -33 -6 -33 -7 -33 -5 -33 -6 -34 -5 -34 -6 -34 -4 -34 -5 -35 -4 -34 -5 -35 -3 -35 -4 -35 -3 -35 -3 -36 -3 -35 -3 -36 -2 -35 -2 -36 -2 -36 -1 -36 -1 -36 -1 -36 -1 -36 0 -35 -1 -36 1 -36 0 -36 1 -36 1 -36 1 -36 1 -36 2 -35 2 -36 2 -35 3 -36 3 -35 3 -35 3 -35 4 -35 3 -34 5 -35 4 -34 5 -34 4 -34 6 -34 5 -33 6 -33 5 -33 7 -33 6 -33 7 -32 6 -32 8 -31 7 -31 7 -31 8 -31 8 -30 8 -30 9 -30 9 -29 9 -29 9 -29 9 -28 10 -28 9 -27 10 -27 11 -26 10 -26 10 -26 11 -25 11 -25 11 -24 12 -24 11 -24 12 -22 12 -23 12 -22 12 -21 12 -21 13 -20 12 -20 13 -19 13 -19 13 -19 13 -17 14 -17 13 -17 14 -16 14 -15 14 -15 14 -15 14 -13 14 -14 14 -12 15 -12 14 -12 15 -10 14 -11 15 -9 15 -9 15 -9 15 -7 15 -8 15 -6 15 -6 15 -5 15 -5 15 -4 16 -4 15 -2 15 -3 15 -1 16 -1 15 0 15 2060 0" stroke="#000000" stroke-width="20" fill="#969696" />
  <path id="LINE643" d="M 44980 19880 l -4180 0" stroke="#000000" stroke-width="20" fill="none" />
  <path id="LINE644" d="M 44980 20220 l -4180 0" stroke="#000000" stroke-width="20" fill="none" />
  <path id="ARC27" d="M 42920 20220 l -2060 0 1 15 1 15 1 16 3 15 2 15 4 15 4 16 5 15 5 15 6 15 6 15 8 15 7 15 9 15 9 15 9 15 11 15 10 14 12 15 12 14 12 15 14 14 13 14 15 14 15 14 15 14 16 14 17 14 17 13 17 14 19 13 19 13 19 13 20 13 20 12 21 13 21 12 22 12 23 12 22 12 24 12 24 11 24 12 25 11 25 11 26 11 26 10 26 10 27 11 27 10 28 9 28 10 29 9 29 9 29 9 30 9 30 9 30 8 31 8 30 8 32 7 31 7 32 8 32 6 33 7 33 6 33 7 33 5 33 6 34 5 34 6 34 4 34 5 35 4 34 5 35 3 35 4 35 3 35 3 36 3 35 3 36 2 35 2 36 2 36 1 36 1 36 1 36 1 36 0 35 1 36 -1 36 0 36 -1 36 -1 36 -1 36 -1 36 -2 35 -2 36 -2 35 -3 36 -3 35 -3 35 -3 35 -4 35 -3 34 -5 35 -4 34 -5 34 -4 34 -6 34 -5 33 -6 33 -5 33 -7 33 -6 33 -7 32 -6 32 -8 31 -7 31 -7 31 -8 31 -8 30 -8 30 -9 30 -9 29 -9 29 -9 29 -9 28 -10 28 -9 27 -10 27 -11 26 -10 26 -10 26 -11 25 -11 25 -11 24 -12 24 -11 24 -12 22 -12 23 -12 22 -12 21 -12 21 -13 20 -12 20 -13 19 -13 19 -13 19 -13 17 -14 17 -13 17 -14 16 -14 15 -14 15 -14 15 -14 13 -14 14 -14 12 -15 12 -14 12 -15 10 -14 11 -15 9 -15 9 -15 9 -15 7 -15 8 -15 6 -15 6 -15 5 -15 5 -15 4 -16 4 -15 2 -15 3 -14 1 -17 1 -15 0 -15 -2060 0" stroke="#000000" stroke-width="20" fill="#969696" />
  <path id="LINE645" d="M 41420 14140 l -900 0" stroke="#000000" stroke-width="20" fill="none" />
  <path id="LINE646" d="M 40520 14640 l 0 -1080" stroke="#000000" stroke-width="20" fill="none" />
  <path id="LINE647" d="M 44180 18940 l 900 0" stroke="#000000" stroke-width="20" fill="none" />
  <path id="LINE648" d="M 45080 19460 l 0 -1100" stroke="#000000" stroke-width="20" fill="none" />
  <rect x="49100" y="13440" width="2740" height="6500" stroke="#000000" stroke-width="20" fill="#969696" id="RECTANGLE84" />
  <path id="LINE649" d="M 48440 13420 l 4200 0" stroke="#000000" stroke-width="20" fill="none" />
  <path id="LINE650" d="M 48440 13100 l 4180 0" stroke="#000000" stroke-width="20" fill="none" />
  <path id="ARC28" d="M 50520 13100 l 2060 0 -1 -15 -1 -15 -1 -16 -3 -15 -2 -15 -4 -15 -4 -16 -5 -15 -5 -15 -6 -15 -6 -15 -8 -15 -7 -15 -9 -15 -9 -15 -9 -15 -11 -15 -10 -14 -12 -15 -12 -14 -12 -15 -14 -14 -13 -14 -15 -14 -15 -14 -15 -14 -16 -14 -17 -14 -17 -13 -17 -14 -19 -13 -19 -13 -19 -13 -20 -13 -20 -12 -21 -13 -21 -12 -22 -12 -23 -12 -22 -12 -24 -12 -24 -11 -24 -12 -25 -11 -25 -11 -26 -11 -26 -10 -26 -10 -27 -11 -27 -10 -28 -9 -28 -10 -29 -9 -29 -9 -29 -9 -30 -9 -30 -9 -30 -8 -31 -8 -30 -8 -32 -7 -31 -7 -32 -8 -32 -6 -33 -7 -33 -6 -33 -7 -33 -5 -33 -6 -34 -5 -34 -6 -34 -4 -34 -5 -35 -4 -34 -5 -35 -3 -35 -4 -35 -3 -35 -3 -36 -3 -35 -3 -36 -2 -35 -2 -36 -2 -36 -1 -36 -1 -36 -1 -36 -1 -36 0 -35 -1 -36 1 -36 0 -36 1 -36 1 -36 1 -36 1 -36 2 -35 2 -36 2 -35 3 -36 3 -35 3 -35 3 -35 4 -35 3 -34 5 -35 4 -34 5 -34 4 -34 6 -34 5 -33 6 -33 5 -33 7 -33 6 -33 7 -32 6 -32 8 -31 7 -31 7 -31 8 -31 8 -30 8 -30 9 -30 9 -29 9 -29 9 -29 9 -28 10 -28 9 -27 10 -27 11 -26 10 -26 10 -26 11 -25 11 -25 11 -24 12 -24 11 -24 12 -22 12 -23 12 -22 12 -21 12 -21 13 -20 12 -20 13 -19 13 -19 13 -19 13 -17 14 -17 13 -17 14 -16 14 -15 14 -15 14 -15 14 -13 14 -14 14 -12 15 -12 14 -12 15 -10 14 -11 15 -9 15 -9 15 -9 15 -7 15 -8 15 -6 15 -6 15 -5 15 -5 15 -4 16 -4 15 -2 15 -3 15 -1 16 -1 15 0 15 2060 0" stroke="#000000" stroke-width="20" fill="#969696" />
  <path id="LINE651" d="M 52660 19940 l -4200 0" stroke="#000000" stroke-width="20" fill="none" />
  <path id="LINE652" d="M 52660 20280 l -4200 0" stroke="#000000" stroke-width="20" fill="none" />
  <path id="ARC29" d="M 50580 20280 l -2060 0 1 15 1 15 1 16 3 15 2 15 4 15 4 16 5 15 5 15 6 15 6 15 8 15 7 15 9 15 9 15 9 15 11 15 10 14 12 15 12 14 12 15 14 14 13 14 15 14 15 14 15 14 16 14 17 14 17 13 17 14 19 13 19 13 19 13 20 13 20 12 21 13 21 12 22 12 23 12 22 12 24 12 24 11 24 12 25 11 25 11 26 11 26 10 26 10 27 11 27 10 28 9 28 10 29 9 29 9 29 9 30 9 30 9 30 8 31 8 30 8 32 7 31 7 32 8 32 6 33 7 33 6 33 7 33 5 33 6 34 5 34 6 34 4 34 5 35 4 34 5 35 3 35 4 35 3 35 3 36 3 35 3 36 2 35 2 36 2 36 1 36 1 36 1 36 1 36 0 35 1 36 -1 36 0 36 -1 36 -1 36 -1 36 -1 36 -2 35 -2 36 -2 35 -3 36 -3 35 -3 35 -3 35 -4 35 -3 34 -5 35 -4 34 -5 34 -4 34 -6 34 -5 33 -6 33 -5 33 -7 33 -6 33 -7 32 -6 32 -8 31 -7 31 -7 31 -8 31 -8 30 -8 30 -9 30 -9 29 -9 29 -9 29 -9 28 -10 28 -9 27 -10 27 -11 26 -10 26 -10 26 -11 25 -11 25 -11 24 -12 24 -11 24 -12 22 -12 23 -12 22 -12 21 -12 21 -13 20 -12 20 -13 19 -13 19 -13 19 -13 17 -14 17 -13 17 -14 16 -14 15 -14 15 -14 15 -14 13 -14 14 -14 12 -15 12 -14 12 -15 10 -14 11 -15 9 -15 9 -15 9 -15 7 -15 8 -15 6 -15 6 -15 5 -15 5 -15 4 -16 4 -15 2 -15 3 -14 1 -17 1 -15 0 -15 -2060 0" stroke="#000000" stroke-width="20" fill="#969696" />
  <path id="LINE653" d="M 49080 14200 l -900 0" stroke="#000000" stroke-width="20" fill="none" />
  <path id="LINE654" d="M 48180 14720 l 0 -1100" stroke="#000000" stroke-width="20" fill="none" />
  <path id="LINE655" d="M 51840 19000 l 900 0" stroke="#000000" stroke-width="20" fill="none" />
  <path id="LINE656" d="M 52740 19520 l 0 -1100" stroke="#000000" stroke-width="20" fill="none" />
  <rect x="55440" y="13440" width="2740" height="6500" stroke="#000000" stroke-width="20" fill="#969696" id="RECTANGLE85" />
  <path id="LINE657" d="M 54780 13420 l 4180 0" stroke="#000000" stroke-width="20" fill="none" />
  <path id="LINE658" d="M 54780 13100 l 4180 0" stroke="#000000" stroke-width="20" fill="none" />
  <path id="ARC30" d="M 56840 13100 l 2060 0 -1 -15 -1 -15 -1 -16 -3 -15 -2 -15 -4 -15 -4 -16 -5 -15 -5 -15 -6 -15 -6 -15 -8 -15 -7 -15 -9 -15 -9 -15 -9 -15 -11 -15 -10 -14 -12 -15 -12 -14 -12 -15 -14 -14 -13 -14 -15 -14 -15 -14 -15 -14 -16 -14 -17 -14 -17 -13 -17 -14 -19 -13 -19 -13 -19 -13 -20 -13 -20 -12 -21 -13 -21 -12 -22 -12 -23 -12 -22 -12 -24 -12 -24 -11 -24 -12 -25 -11 -25 -11 -26 -11 -26 -10 -26 -10 -27 -11 -27 -10 -28 -9 -28 -10 -29 -9 -29 -9 -29 -9 -30 -9 -30 -9 -30 -8 -31 -8 -30 -8 -32 -7 -31 -7 -32 -8 -32 -6 -33 -7 -33 -6 -33 -7 -33 -5 -33 -6 -34 -5 -34 -6 -34 -4 -34 -5 -35 -4 -34 -5 -35 -3 -35 -4 -35 -3 -35 -3 -36 -3 -35 -3 -36 -2 -35 -2 -36 -2 -36 -1 -36 -1 -36 -1 -36 -1 -36 0 -35 -1 -36 1 -36 0 -36 1 -36 1 -36 1 -36 1 -36 2 -35 2 -36 2 -35 3 -36 3 -35 3 -35 3 -35 4 -35 3 -34 5 -35 4 -34 5 -34 4 -34 6 -34 5 -33 6 -33 5 -33 7 -33 6 -33 7 -32 6 -32 8 -31 7 -31 7 -31 8 -31 8 -30 8 -30 9 -30 9 -29 9 -29 9 -29 9 -28 10 -28 9 -27 10 -27 11 -26 10 -26 10 -26 11 -25 11 -25 11 -24 12 -24 11 -24 12 -22 12 -23 12 -22 12 -21 12 -21 13 -20 12 -20 13 -19 13 -19 13 -19 13 -17 14 -17 13 -17 14 -16 14 -15 14 -15 14 -15 14 -13 14 -14 14 -12 15 -12 14 -12 15 -10 14 -11 15 -9 15 -9 15 -9 15 -7 15 -8 15 -6 15 -6 15 -5 15 -5 15 -4 16 -4 15 -2 15 -3 15 -1 16 -1 15 0 15 2060 0" stroke="#000000" stroke-width="20" fill="#969696" />
  <path id="LINE659" d="M 58980 19940 l -4180 0" stroke="#000000" stroke-width="20" fill="none" />
  <path id="LINE660" d="M 58980 20280 l -4180 0" stroke="#000000" stroke-width="20" fill="none" />
  <path id="ARC31" d="M 56900 20280 l -2060 0 1 15 1 15 1 16 3 15 2 15 4 15 4 16 5 15 5 15 6 15 6 15 8 15 7 15 9 15 9 15 9 15 11 15 10 14 12 15 12 14 12 15 14 14 13 14 15 14 15 14 15 14 16 14 17 14 17 13 17 14 19 13 19 13 19 13 20 13 20 12 21 13 21 12 22 12 23 12 22 12 24 12 24 11 24 12 25 11 25 11 26 11 26 10 26 10 27 11 27 10 28 9 28 10 29 9 29 9 29 9 30 9 30 9 30 8 31 8 30 8 32 7 31 7 32 8 32 6 33 7 33 6 33 7 33 5 33 6 34 5 34 6 34 4 34 5 35 4 34 5 35 3 35 4 35 3 35 3 36 3 35 3 36 2 35 2 36 2 36 1 36 1 36 1 36 1 36 0 35 1 36 -1 36 0 36 -1 36 -1 36 -1 36 -1 36 -2 35 -2 36 -2 35 -3 36 -3 35 -3 35 -3 35 -4 35 -3 34 -5 35 -4 34 -5 34 -4 34 -6 34 -5 33 -6 33 -5 33 -7 33 -6 33 -7 32 -6 32 -8 31 -7 31 -7 31 -8 31 -8 30 -8 30 -9 30 -9 29 -9 29 -9 29 -9 28 -10 28 -9 27 -10 27 -11 26 -10 26 -10 26 -11 25 -11 25 -11 24 -12 24 -11 24 -12 22 -12 23 -12 22 -12 21 -12 21 -13 20 -12 20 -13 19 -13 19 -13 19 -13 17 -14 17 -13 17 -14 16 -14 15 -14 15 -14 15 -14 13 -14 14 -14 12 -15 12 -14 12 -15 10 -14 11 -15 9 -15 9 -15 9 -15 7 -15 8 -15 6 -15 6 -15 5 -15 5 -15 4 -16 4 -15 2 -15 3 -14 1 -17 1 -15 0 -15 -2060 0" stroke="#000000" stroke-width="20" fill="#969696" />
  <path id="LINE661" d="M 55420 14200 l -900 0" stroke="#000000" stroke-width="20" fill="none" />
  <path id="LINE662" d="M 54520 14720 l 0 -1100" stroke="#000000" stroke-width="20" fill="none" />
  <path id="LINE663" d="M 58180 19000 l 900 0" stroke="#000000" stroke-width="20" fill="none" />
  <path id="LINE664" d="M 59080 19520 l 0 -1100" stroke="#000000" stroke-width="20" fill="none" />
  <rect x="24660" y="20280" width="920" height="4320" stroke="#000000" stroke-width="20" fill="none" id="RECTANGLE87" />
  <rect x="3000" y="20140" width="920" height="4320" stroke="#000000" stroke-width="20" fill="none" id="RECTANGLE88" />
  <path id="POLYGON668" d="M 4620 10140 l 0 4780 -720 0" stroke="#000000" stroke-width="20" fill="none" />
  <path id="POLYGON669" d="M 4620 14920 l 20100 0" stroke="#000000" stroke-width="20" fill="none" />
  <path id="POLYGON672" d="M 7680 10140 l 0 4840" stroke="#000000" stroke-width="20" fill="none" />
  <path id="POLYGON673" d="M 8400 10140 l 0 4780" stroke="#000000" stroke-width="20" fill="none" />
  <path id="POLYGON674" d="M 9060 10140 l 0 4780" stroke="#000000" stroke-width="20" fill="none" />
  <rect x="5920" y="14000" width="460" height="5240" stroke="#000000" stroke-width="20" fill="#969696" id="RECTANGLE90" />
  <rect x="5200" y="11600" width="1960" height="2740" stroke="#000000" stroke-width="20" fill="#969696" id="RECTANGLE91" />
  <path id="POLYGON677" d="M 5540 14320 l 0 680" stroke="#000000" stroke-width="20" fill="none" />
  <path id="POLYGON678" d="M 6900 14320 l 0 600" stroke="#000000" stroke-width="20" fill="none" />
  <rect x="5400" y="14920" width="520" height="460" stroke="#000000" stroke-width="20" fill="#969696" id="RECTANGLE92" />
  <rect x="6380" y="14880" width="660" height="460" stroke="#000000" stroke-width="20" fill="#969696" id="RECTANGLE93" />
  <path id="POLYGON681" d="M 3900 18000 l 1760 0" stroke="#000000" stroke-width="20" fill="none" />
  <path id="POLYGON682" d="M 5600 17400 l 0 1380" stroke="#000000" stroke-width="20" fill="none" />
  <path id="POLYGON683" d="M 3900 26120 l 0 -15980" stroke="#000000" stroke-width="20" fill="none" />
  <path id="POLYGON684" d="M 3960 26100 l 20700 0" stroke="#000000" stroke-width="20" fill="none" />
  <path id="POLYGON685" d="M 3900 10140 l 8680 0" stroke="#000000" stroke-width="20" fill="none" />
  <path id="POLYGON686" d="M 24660 26100 l 0 -15960" stroke="#000000" stroke-width="20" fill="none" />
  <path id="LINE686" d="M 6720 17400 l 0 1380" stroke="#000000" stroke-width="20" fill="none" />
  <path id="LINE687" d="M 12060 10180 l 0 4700" stroke="#000000" stroke-width="20" fill="none" />
  <rect x="10300" y="14040" width="460" height="5240" stroke="#000000" stroke-width="20" fill="#969696" id="RECTANGLE94" />
  <rect x="9580" y="11620" width="1960" height="2740" stroke="#000000" stroke-width="20" fill="#969696" id="RECTANGLE95" />
  <path id="LINE688" d="M 9920 14360 l 0 680" stroke="#000000" stroke-width="20" fill="none" />
  <path id="LINE689" d="M 11280 14360 l 0 600" stroke="#000000" stroke-width="20" fill="none" />
  <rect x="9780" y="14960" width="520" height="460" stroke="#000000" stroke-width="20" fill="#969696" id="RECTANGLE96" />
  <rect x="10760" y="14920" width="660" height="460" stroke="#000000" stroke-width="20" fill="#969696" id="RECTANGLE97" />
  <path id="LINE690" d="M 9980 17440 l 0 1380" stroke="#000000" stroke-width="20" fill="none" />
  <path id="LINE691" d="M 11100 17440 l 0 1380" stroke="#000000" stroke-width="20" fill="none" />
  <path id="POLYGON691" d="M 12640 10140 l 0 4800" stroke="#000000" stroke-width="20" fill="none" />
  <path id="LINE692" d="M 16640 10160 l 0 4780 -720 0" stroke="#000000" stroke-width="20" fill="none" />
  <path id="LINE693" d="M 19700 10160 l 0 4840" stroke="#000000" stroke-width="20" fill="none" />
  <path id="LINE694" d="M 20420 10160 l 0 4780" stroke="#000000" stroke-width="20" fill="none" />
  <path id="LINE695" d="M 21080 10160 l 0 4780" stroke="#000000" stroke-width="20" fill="none" />
  <rect x="17940" y="14020" width="460" height="5240" stroke="#000000" stroke-width="20" fill="#969696" id="RECTANGLE98" />
  <rect x="17220" y="11620" width="1960" height="2740" stroke="#000000" stroke-width="20" fill="#969696" id="RECTANGLE99" />
  <path id="LINE696" d="M 17560 14340 l 0 680" stroke="#000000" stroke-width="20" fill="none" />
  <path id="LINE697" d="M 18920 14340 l 0 600" stroke="#000000" stroke-width="20" fill="none" />
  <rect x="17420" y="14940" width="520" height="460" stroke="#000000" stroke-width="20" fill="#969696" id="RECTANGLE100" />
  <rect x="18400" y="14900" width="660" height="460" stroke="#000000" stroke-width="20" fill="#969696" id="RECTANGLE101" />
  <path id="LINE698" d="M 11080 18000 l 6600 0" stroke="#000000" stroke-width="20" fill="none" />
  <path id="LINE699" d="M 17620 17420 l 0 1380" stroke="#000000" stroke-width="20" fill="none" />
  <path id="LINE700" d="M 18740 17420 l 0 1380" stroke="#000000" stroke-width="20" fill="none" />
  <path id="LINE701" d="M 24060 10200 l 0 4760" stroke="#000000" stroke-width="20" fill="none" />
  <rect x="22320" y="14060" width="460" height="5240" stroke="#000000" stroke-width="20" fill="#969696" id="RECTANGLE102" />
  <rect x="21600" y="11640" width="1960" height="2740" stroke="#000000" stroke-width="20" fill="#969696" id="RECTANGLE103" />
  <path id="LINE702" d="M 21940 14380 l 0 680" stroke="#000000" stroke-width="20" fill="none" />
  <path id="LINE703" d="M 23300 14380 l 0 600" stroke="#000000" stroke-width="20" fill="none" />
  <rect x="21800" y="14980" width="520" height="460" stroke="#000000" stroke-width="20" fill="#969696" id="RECTANGLE104" />
  <rect x="22780" y="14940" width="660" height="460" stroke="#000000" stroke-width="20" fill="#969696" id="RECTANGLE105" />
  <path id="LINE704" d="M 22000 17460 l 0 1380" stroke="#000000" stroke-width="20" fill="none" />
  <path id="LINE705" d="M 23100 17460 l 0 1380" stroke="#000000" stroke-width="20" fill="none" />
  <path id="LINE706" d="M 24660 10160 l 0 4780" stroke="#000000" stroke-width="20" fill="none" />
  <path id="POLYGON706" d="M 18720 18000 l 3200 0" stroke="#000000" stroke-width="20" fill="none" />
  <path id="POLYGON707" d="M 6780 18000 l 3200 0" stroke="#000000" stroke-width="20" fill="none" />
  <path id="POLYGON708" d="M 23160 18000 l 1560 0" stroke="#000000" stroke-width="20" fill="none" />
  <path id="POLYGON709" d="M 4300 10140 l 0 -7960" stroke="#00FF00" stroke-width="20" fill="none" />
  <path id="POLYGON710" d="M 4300 2180 l 58260 0" stroke="#00FF00" stroke-width="40" fill="none" />
  <g name="RightArrow">
    <path d="M 4080 2994 l 480 0 -240 -886 -240 886 0 0" stroke="#000000" stroke-width="20" fill="#00FF00" />
  </g>
  <path id="POLYGON711" d="M 15940 10140 l 0 4780" stroke="#000000" stroke-width="20" fill="none" />
  <path id="POLYGON712" d="M 16000 10140 l 8680 0" stroke="#000000" stroke-width="20" fill="none" />
  <path id="POLYGON713" d="M 16320 10140 l 0 -7960" stroke="#00FF00" stroke-width="20" fill="none" />
  <g name="RightArrow">
    <path d="M 16160 3134 l 480 0 -240 -886 -240 886 0 0" stroke="#000000" stroke-width="20" fill="#00FF00" />
  </g>
  <path id="POLYGON714" d="M 12680 13680 l 1700 0" stroke="#00FF00" stroke-width="20" fill="none" />
  <path id="POLYGON715" d="M 14380 13680 l 0 16340" stroke="#00FF00" stroke-width="20" fill="none" />
  <path id="POLYGON716" d="M 14380 30020 l 17020 0" stroke="#00FF00" stroke-width="20" fill="none" />
  <path id="POLYGON717" d="M 31400 30020 l 0 -25160" stroke="#00FF00" stroke-width="20" fill="none" />
  <path id="POLYGON718" d="M 24740 13800 l 3920 0 0 16300" stroke="#00FF00" stroke-width="20" fill="none" />
  <g name="RightArrow">
    <path d="M 14140 14714 l 480 0 -240 -886 -240 886 0 0" stroke="#000000" stroke-width="20" fill="#00FF00" />
  </g>
  <g name="RightArrow">
    <path d="M 28420 14834 l 480 0 -240 -886 -240 886 0 0" stroke="#000000" stroke-width="20" fill="#00FF00" />
  </g>
  <path id="POLYGON719" d="M 36360 12120 l 0 -4000 6200 0 0 4000" stroke="#00FF00" stroke-width="20" fill="none" />
  <path id="POLYGON720" d="M 39360 8120 l 0 -3340" stroke="#00FF00" stroke-width="20" fill="none" />
  <path id="POLYGON721" d="M 39360 4860 l -7960 0" stroke="#00FF00" stroke-width="20" fill="none" />
  <g name="RightArrow">
    <path d="M 39060 5814 l 480 0 -240 -886 -240 886 0 0" stroke="#000000" stroke-width="20" fill="#00FF00" />
  </g>
  <path id="POLYGON722" d="M 50320 12180 l 0 -10000" stroke="#00FF00" stroke-width="20" fill="none" />
  <path id="POLYGON723" d="M 56720 12100 l 0 -9920" stroke="#00FF00" stroke-width="20" fill="none" />
  <path id="POLYGON724" d="M 36500 21120 l 0 8900" stroke="#00FF00" stroke-width="20" fill="none" />
  <path id="POLYGON725" d="M 36500 30020 l 26420 0" stroke="#00FF00" stroke-width="40" fill="none" />
  <g name="StraightArrow1">
    <path d="M 62820 2096 l -779 -529 0 353 -1221 0 0 360 1221 0 0 353 779 -537 0 0" stroke-width="0" fill="#00FF00" />
    <path d="M 62820 2096 l -779 -529 0 353 -1221 0 0 360 1221 0 0 353 779 -537" stroke="#000000" stroke-width="20" fill="none" />
  </g>
  <g name="StraightArrow1">
    <path d="M 61200 29956 l 779 -529 0 353 1221 0 0 360 -1221 0 0 353 -779 -537 0 0" stroke-width="0" fill="#00FF00" />
    <path d="M 61200 29956 l 779 -529 0 353 1221 0 0 360 -1221 0 0 353 -779 -537" stroke="#000000" stroke-width="20" fill="none" />
  </g>
  <path id="POLYGON726" d="M 42880 21120 l 0 8900" stroke="#00FF00" stroke-width="20" fill="none" />
  <path id="POLYGON727" d="M 50520 21120 l 0 8900" stroke="#00FF00" stroke-width="20" fill="none" />
  <path id="POLYGON728" d="M 56860 21180 l 0 8840" stroke="#00FF00" stroke-width="20" fill="none" />
  <g name="RightArrow">
    <path d="M 50280 21974 l 480 0 -240 -886 -240 886 0 0" stroke="#000000" stroke-width="20" fill="#00FF00" />
  </g>
  <g name="RightArrow">
    <path d="M 56540 22154 l 480 0 -240 -886 -240 886 0 0" stroke="#000000" stroke-width="20" fill="#00FF00" />
  </g>
  <g id="TEXT431">
    <rect x="61100" y="100" width="1860" height="1900" stroke-width="0" fill="none" id="TEXT431_pbTextBoundingRectEl" />
    <text fill="#000000" font-family="Helvetica" font-size="560" text-anchor="start" x="61100" y="1330" id="TEXT431_pbTextEl">CWR</text>
  </g>
  <g id="TEXT432">
    <rect x="61620" y="27880" width="1860" height="1900" stroke-width="0" fill="none" id="TEXT432_pbTextBoundingRectEl" />
    <text fill="#000000" font-family="Helvetica" font-size="560" text-anchor="start" x="61620" y="29110" id="TEXT432_pbTextEl">CWS</text>
  </g>
  <g id="TEXT433">
    <rect x="35820" y="15280" width="2120" height="1900" stroke-width="0" fill="none" id="TEXT433_pbTextBoundingRectEl" />
    <text fill="#000000" font-family="Helvetica" font-size="640" font-weight="bold" text-anchor="start" x="35820" y="16550" id="TEXT433_pbTextEl">E352</text>
  </g>
  <g id="TEXT434">
    <rect x="42080" y="15280" width="2120" height="1900" stroke-width="0" fill="none" id="TEXT434_pbTextBoundingRectEl" />
    <text fill="#000000" font-family="Helvetica" font-size="640" font-weight="bold" text-anchor="start" x="42080" y="16550" id="TEXT434_pbTextEl">E353</text>
  </g>
  <g id="TEXT435">
    <rect x="49800" y="15280" width="2120" height="1900" stroke-width="0" fill="none" id="TEXT435_pbTextBoundingRectEl" />
    <text fill="#000000" font-family="Helvetica" font-size="640" font-weight="bold" text-anchor="start" x="49800" y="16550" id="TEXT435_pbTextEl">E351</text>
  </g>
  <g id="TEXT436">
    <rect x="56120" y="15280" width="2120" height="1900" stroke-width="0" fill="none" id="TEXT436_pbTextBoundingRectEl" />
    <text fill="#000000" font-family="Helvetica" font-size="640" font-weight="bold" text-anchor="start" x="56120" y="16550" id="TEXT436_pbTextEl">E354</text>
  </g>
</svg>