<?xml version="1.0" encoding="UTF-8"?>
<svg height="100%" width="100%" viewBox="0 0 64000 36000" version="1.1" xmlns="http://www.w3.org/2000/svg" xmlns:xlink="http://www.w3.org/1999/xlink" xmlns:PB="urn:osisoft-com-pb" xmlns:PBI="urn:osisoft-com-interface" xmlns:PBD="urn:osisoft-com-data" style="background-color:#C0C0C0">
  <title>ssxt</title>
  <defs>
    <PBD:TagUses tag="\\\">
      <PBI:Symbol name="BARGRAPH2" PB:Type="12" />
      <PBI:Symbol name="BARGRAPH4" PB:Type="12" />
      <PBI:Symbol name="" PB:Type="12" />
    </PBD:TagUses>
  </defs>
  <path id="POLYGON14" d="M 1040 27640 l 40140 0" stroke="#00D200" stroke-width="40" fill="none" />
  <g name="TankWithRivets3">
    <path d="M 22294 24398 l 0 -5516 -5261 0 0 5516 0 16 14 16 14 8 28 16 28 8 36 17 42 8 42 16 56 8 56 8 63 16 71 8 77 8 77 8 84 8 85 8 91 16 98 0 99 8 98 8 112 8 106 8 112 8 120 0 119 8 119 0 127 8 126 0 134 0 126 0 134 8 140 0 133 0 134 -8 126 0 134 0 126 0 127 -8 119 0 119 -8 120 0 112 -8 106 -8 112 -8 98 -8 99 -8 98 0 91 -16 85 -8 84 -8 77 -8 77 -8 71 -8 63 -16 56 -8 56 -8 42 -16 42 -8 36 -17 28 -8 28 -16 14 -8 14 -16 0 -16 0 0" stroke-width="0" fill="#969696" />
    <path d="M 21929 24398 l 0 -169 0 -177 0 -169 0 -176 0 -169 0 -177 7 -169 0 -177 0 -169 0 -177 0 -169 0 -177 0 -168 0 -177 0 -169 0 -177 0 -169 0 -169 0 -177 0 -169 0 -176 0 -169 0 -177 0 -169 0 -169 -7 -177 0 -169 0 -177 0 -168 0 -177 0 -169 0 -177 -141 0 -140 0 -141 0 -140 0 -148 0 -140 0 -141 0 -140 0 -141 0 -140 0 -141 0 -147 0 -141 0 -140 0 -141 0 -140 0 -140 0 -141 0 -147 0 -141 0 -140 0 -141 0 -140 0 -148 0 -140 0 -141 0 -140 0 -141 0 -140 0 -141 0 -147 0 -141 0 0 177 0 169 0 177 0 168 0 177 0 169 0 177 0 169 0 169 0 177 0 169 0 176 0 169 0 177 0 169 0 169 0 177 0 169 0 177 0 168 0 177 0 169 0 177 0 169 0 177 0 169 0 177 0 169 0 176 0 169 0 177 0 169 7 16 7 8 14 16 22 8 21 16 35 8 35 17 42 8 42 16 49 8 56 8 57 16 63 8 70 8 70 8 78 8 77 8 84 8 84 8 92 8 91 8 91 8 99 0 98 8 105 0 106 8 105 0 112 8 113 0 112 0 113 0 119 0 112 0 120 0 112 0 113 0 105 -8 105 0 106 -8 105 0 98 -8 99 0 98 -8 91 -8 85 -8 91 -8 77 -8 84 -8 71 -8 70 -8 70 -8 63 -8 57 -16 56 -8 49 -8 49 -16 42 -8 35 -17 28 -8 29 -16 21 -8 14 -16 7 -8 0 -16 0 0" stroke-width="0" fill="#A3A3A3" />
    <path d="M 21563 24398 l 0 -169 0 -177 0 -169 0 -176 0 -169 0 -177 0 -169 0 -177 0 -169 0 -177 0 -169 0 -177 0 -168 0 -177 0 -169 0 -177 0 -169 0 -169 0 -177 0 -169 0 -176 0 -169 0 -177 0 -169 0 -169 0 -177 0 -169 0 -177 0 -168 0 -177 0 -169 0 -177 -119 0 -119 0 -120 0 -112 0 -120 0 -119 0 -119 0 -120 0 -119 0 -120 0 -119 0 -119 0 -113 0 -119 0 -120 0 -119 0 -119 0 -120 0 -119 0 -120 0 -119 0 -112 0 -120 0 -119 0 -120 0 -119 0 -119 0 -120 0 -119 0 -120 0 -119 0 -119 0 0 177 0 169 0 177 0 168 0 177 0 169 7 177 0 169 0 169 0 177 0 169 0 176 0 169 0 177 0 169 0 169 0 177 0 169 0 177 0 168 0 177 0 169 0 177 0 169 0 177 -7 169 0 177 0 169 0 176 0 169 0 177 0 169 7 16 7 8 14 16 14 8 21 16 28 8 28 17 35 8 35 16 42 8 50 8 49 16 49 8 56 8 63 8 63 8 64 8 70 8 70 8 77 8 78 8 77 8 84 0 85 8 84 0 84 8 91 0 92 8 98 0 91 0 99 0 98 0 98 0 92 0 98 0 91 0 92 -8 91 0 91 -8 85 0 84 -8 84 0 77 -8 78 -8 70 -8 77 -8 70 -8 64 -8 63 -8 56 -8 56 -8 56 -8 50 -16 42 -8 42 -8 42 -16 35 -8 28 -17 28 -8 21 -16 14 -8 14 -16 7 -8 0 -16 0 0" stroke-width="0" fill="#B4B4B4" />
    <path d="M 21198 24398 l 0 -169 0 -177 0 -169 0 -176 0 -169 0 -177 0 -169 0 -177 0 -169 0 -177 0 -169 0 -177 0 -168 0 -177 0 -169 0 -177 0 -169 0 -169 0 -177 0 -169 0 -176 0 -169 0 -177 0 -169 0 -169 0 -177 0 -169 0 -177 0 -168 0 -177 0 -169 0 -177 -98 0 -91 0 -99 0 -91 0 -98 0 -99 0 -91 0 -98 0 -99 0 -91 0 -98 0 -99 0 -91 0 -98 0 -99 0 -91 0 -98 0 -92 0 -98 0 -98 0 -92 0 -98 0 -98 0 -92 0 -98 0 -98 0 -92 0 -98 0 -98 0 -92 0 -98 0 -98 0 0 177 0 169 0 177 0 168 0 177 0 169 7 177 0 169 0 169 0 177 0 169 0 176 0 169 0 177 0 169 0 169 0 177 0 169 0 177 0 168 0 177 0 169 0 177 0 169 0 177 -7 169 0 177 0 169 0 176 0 169 0 177 0 169 7 16 7 8 7 16 14 8 14 16 21 8 28 17 28 8 28 16 35 8 36 8 42 16 42 8 42 8 49 8 49 8 57 8 56 8 56 8 63 8 63 8 64 8 63 0 70 8 70 0 70 8 71 0 77 8 77 0 78 0 77 0 77 0 77 0 78 0 77 0 77 0 70 -8 78 0 70 -8 70 0 63 -8 70 0 64 -8 63 -8 56 -8 63 -8 57 -8 49 -8 49 -8 49 -8 49 -8 42 -8 42 -16 36 -8 35 -8 28 -16 28 -8 21 -17 21 -8 21 -16 14 -8 7 -16 7 -8 0 -16 0 0" stroke-width="0" fill="#C2C2C2" />
    <path d="M 20833 24398 l 0 -169 0 -177 0 -169 0 -176 0 -169 0 -177 7 -169 0 -177 0 -169 0 -177 0 -169 0 -177 0 -168 0 -177 0 -169 0 -177 0 -169 0 -169 0 -177 0 -169 0 -176 0 -169 0 -177 0 -169 0 -169 -7 -177 0 -169 0 -177 0 -168 0 -177 0 -169 0 -177 -70 0 -71 0 -77 0 -70 0 -77 0 -71 0 -70 0 -77 0 -70 0 -78 0 -70 0 -77 0 -70 0 -70 0 -78 0 -70 0 -70 0 -77 0 -71 0 -77 0 -70 0 -70 0 -78 0 -70 0 -77 0 -70 0 -78 0 -70 0 -77 0 -70 0 -71 0 -77 0 0 177 0 169 0 177 0 168 0 177 0 169 0 177 0 169 0 169 0 177 0 169 0 176 0 169 0 177 0 169 0 169 0 177 0 169 0 177 0 168 0 177 0 169 0 177 0 169 0 177 0 169 0 177 0 169 0 176 0 169 0 177 0 169 0 16 7 8 7 16 14 8 7 16 21 8 14 17 21 8 28 16 22 8 28 8 35 16 28 8 35 8 42 8 35 8 42 8 43 8 42 8 49 8 49 8 49 8 49 0 49 8 57 0 49 8 56 0 56 8 63 0 57 0 56 0 63 0 56 0 63 0 57 0 56 0 56 -8 56 0 56 -8 50 0 56 -8 49 0 49 -8 49 -8 42 -8 50 -8 42 -8 35 -8 42 -8 35 -8 35 -8 35 -8 28 -16 28 -8 29 -8 21 -16 21 -8 21 -17 14 -8 14 -16 7 -8 14 -16 0 -8 0 -16 0 0" stroke-width="0" fill="#D2D2D2" />
    <path d="M 20468 24398 l 0 -169 0 -177 0 -169 0 -176 0 -169 0 -177 0 -169 0 -177 0 -169 0 -177 0 -169 0 -177 0 -168 0 -177 0 -169 0 -177 0 -169 0 -169 0 -177 0 -169 0 -176 0 -169 0 -177 0 -169 0 -169 0 -177 0 -169 0 -177 0 -168 0 -177 0 -169 0 -177 -49 0 -50 0 -49 0 -49 0 -56 0 -49 0 -49 0 -50 0 -49 0 -49 0 -56 0 -49 0 -49 0 -50 0 -49 0 -49 0 -49 0 -49 0 -49 0 -57 0 -49 0 -49 0 -49 0 -49 0 -49 0 -57 0 -49 0 -49 0 -49 0 -49 0 -50 0 -56 0 0 177 0 169 0 177 0 168 0 177 0 169 7 177 0 169 0 169 0 177 0 169 0 176 0 169 0 177 0 169 0 169 0 177 0 169 0 177 0 168 0 177 0 169 0 177 0 169 0 177 -7 169 0 177 0 169 0 176 0 169 0 177 0 169 7 24 14 24 21 24 22 25 35 24 42 24 49 16 49 16 56 16 64 16 63 16 70 8 77 8 77 8 78 0 84 0 77 0 85 0 77 -8 70 -8 70 -8 71 -16 56 -16 63 -16 49 -16 49 -16 35 -24 36 -24 28 -25 21 -24 14 -24 0 -24 0 0" stroke-width="0" fill="#DEDEDE" />
    <path d="M 20102 24398 l 0 -5516 -877 0 0 5516 0 32 7 24 14 25 14 24 21 16 21 24 21 16 28 16 35 16 35 16 35 16 35 8 43 8 42 8 42 0 49 8 42 -8 42 0 42 -8 43 -8 35 -8 35 -16 35 -16 35 -16 28 -16 21 -16 21 -24 21 -16 14 -24 14 -25 7 -24 0 -32 0 0" stroke-width="0" fill="#F0F0F0" />
    <path d="M 22294 24398 l 0 -5516 -5261 0 0 5516 0 0 0 16 14 16 14 8 28 16 28 8 36 17 42 8 42 16 56 8 56 8 63 16 71 8 77 8 77 8 84 8 85 8 91 16 98 0 99 8 98 8 112 8 106 8 112 8 120 0 119 8 119 0 127 8 126 0 134 0 126 0 134 8 140 0 0 0 133 0 134 -8 126 0 134 0 126 0 127 -8 119 0 119 -8 120 0 112 -8 106 -8 112 -8 98 -8 99 -8 98 0 91 -16 85 -8 84 -8 77 -8 77 -8 71 -8 63 -16 56 -8 56 -8 42 -16 42 -8 36 -17 28 -8 28 -16 14 -8 14 -16 0 -16" stroke="#000000" stroke-width="20" fill="none" />
    <path d="M 19667 18625 l 133 0 134 8 126 0 134 0 126 0 127 8 119 0 119 8 120 0 112 8 106 8 112 8 98 8 99 8 98 0 91 16 85 8 84 8 77 8 77 8 71 8 63 16 56 8 56 8 42 16 42 8 36 17 28 8 28 16 14 8 14 16 0 16 0 8 -14 16 -14 8 -28 16 -28 8 -36 16 -42 8 -42 16 -56 8 -56 17 -63 8 -71 8 -77 8 -77 8 -84 16 -85 8 -91 8 -98 8 -99 8 -98 8 -112 0 -106 8 -112 8 -120 0 -119 8 -119 0 -127 8 -126 0 -134 8 -126 0 -134 0 -133 0 -140 0 -134 0 -126 0 -134 -8 -126 0 -127 -8 -119 0 -119 -8 -120 0 -112 -8 -106 -8 -112 0 -98 -8 -99 -8 -98 -8 -91 -8 -85 -8 -84 -16 -77 -8 -77 -8 -71 -8 -63 -8 -56 -17 -56 -8 -42 -16 -42 -8 -36 -16 -28 -8 -28 -16 -14 -8 -14 -16 0 -8 0 -16 14 -16 14 -8 28 -16 28 -8 36 -17 42 -8 42 -16 56 -8 56 -8 63 -16 71 -8 77 -8 77 -8 84 -8 85 -8 91 -16 98 0 99 -8 98 -8 112 -8 106 -8 112 -8 120 0 119 -8 119 0 127 -8 126 0 134 0 126 0 134 -8 140 0 0 0" stroke-width="0" fill="#C0C0C0" />
    <path d="M 19667 18625 l 0 0 133 0 134 8 126 0 134 0 126 0 127 8 119 0 119 8 120 0 112 8 106 8 112 8 98 8 99 8 98 0 91 16 85 8 84 8 77 8 77 8 71 8 63 16 56 8 56 8 42 16 42 8 36 17 28 8 28 16 14 8 14 16 0 16 0 0 0 8 -14 16 -14 8 -28 16 -28 8 -36 16 -42 8 -42 16 -56 8 -56 17 -63 8 -71 8 -77 8 -77 8 -84 16 -85 8 -91 8 -98 8 -99 8 -98 8 -112 0 -106 8 -112 8 -120 0 -119 8 -119 0 -127 8 -126 0 -134 8 -126 0 -134 0 -133 0 0 0 -140 0 -134 0 -126 0 -134 -8 -126 0 -127 -8 -119 0 -119 -8 -120 0 -112 -8 -106 -8 -112 0 -98 -8 -99 -8 -98 -8 -91 -8 -85 -8 -84 -16 -77 -8 -77 -8 -71 -8 -63 -8 -56 -17 -56 -8 -42 -16 -42 -8 -36 -16 -28 -8 -28 -16 -14 -8 -14 -16 0 -8 0 0 0 -16 14 -16 14 -8 28 -16 28 -8 36 -17 42 -8 42 -16 56 -8 56 -8 63 -16 71 -8 77 -8 77 -8 84 -8 85 -8 91 -16 98 0 99 -8 98 -8 112 -8 106 -8 112 -8 120 0 119 -8 119 0 127 -8 126 0 134 0 126 0 134 -8 140 0" stroke="#000000" stroke-width="20" fill="none" />
    <path d="M 18347 19099 l 0 5524" stroke="#000000" stroke-width="20" fill="none" />
    <path d="M 18129 19252 l 112 0 0 128 -112 0 0 -128 0 0" stroke-width="0" fill="#808080" />
    <path d="M 18129 19758 l 112 0 0 129 -112 0 0 -129 0 0" stroke-width="0" fill="#808080" />
    <path d="M 18129 20257 l 112 0 0 129 -112 0 0 -129 0 0" stroke-width="0" fill="#808080" />
    <path d="M 18129 20764 l 112 0 0 120 -112 0 0 -120 0 0" stroke-width="0" fill="#808080" />
    <path d="M 18129 21262 l 112 0 0 129 -112 0 0 -129 0 0" stroke-width="0" fill="#808080" />
    <path d="M 18129 21761 l 112 0 0 128 -112 0 0 -128 0 0" stroke-width="0" fill="#808080" />
    <path d="M 18129 22267 l 112 0 0 129 -112 0 0 -129 0 0" stroke-width="0" fill="#808080" />
    <path d="M 18129 22766 l 112 0 0 128 -112 0 0 -128 0 0" stroke-width="0" fill="#808080" />
    <path d="M 18129 23272 l 112 0 0 121 -112 0 0 -121 0 0" stroke-width="0" fill="#808080" />
    <path d="M 18129 23771 l 112 0 0 129 -112 0 0 -129 0 0" stroke-width="0" fill="#808080" />
    <path d="M 18129 24277 l 112 0 0 121 -112 0 0 -121 0 0" stroke-width="0" fill="#808080" />
    <path d="M 20538 19099 l 0 5524" stroke="#000000" stroke-width="20" fill="none" />
    <path d="M 20320 19252 l 113 0 0 128 -113 0 0 -128 0 0" stroke-width="0" fill="#969696" />
    <path d="M 20320 19758 l 113 0 0 129 -113 0 0 -129 0 0" stroke-width="0" fill="#969696" />
    <path d="M 20320 20257 l 113 0 0 129 -113 0 0 -129 0 0" stroke-width="0" fill="#969696" />
    <path d="M 20320 20764 l 113 0 0 120 -113 0 0 -120 0 0" stroke-width="0" fill="#969696" />
    <path d="M 20320 21262 l 113 0 0 129 -113 0 0 -129 0 0" stroke-width="0" fill="#969696" />
    <path d="M 20320 21761 l 113 0 0 128 -113 0 0 -128 0 0" stroke-width="0" fill="#969696" />
    <path d="M 20320 22267 l 113 0 0 129 -113 0 0 -129 0 0" stroke-width="0" fill="#969696" />
    <path d="M 20320 22766 l 113 0 0 128 -113 0 0 -128 0 0" stroke-width="0" fill="#969696" />
    <path d="M 20320 23272 l 113 0 0 121 -113 0 0 -121 0 0" stroke-width="0" fill="#969696" />
    <path d="M 20320 23771 l 113 0 0 129 -113 0 0 -129 0 0" stroke-width="0" fill="#969696" />
    <path d="M 20320 24277 l 113 0 0 121 -113 0 0 -121 0 0" stroke-width="0" fill="#969696" />
  </g>
  <g id="BARGRAPH2" PB:IsMultiState="False" PB:Lower="0" PB:Orientation="0" PB:CanonicalNumberFormat="General" PBD:PtTagName="\\\" PB:Start="0" PB:Upper="100" PB:Type="12">
    <rect x="18660" y="19380" width="1560" height="4980" stroke-width="0" fill="#C0C0C0" id="BARGRAPH2_pbBarBoundingRectEl" />
    <rect x="18660" y="19380" width="1560" height="4980" stroke-width="0" fill="#00D200" id="BARGRAPH2_pbBarTagRectEl" stroke="none" PBD:Property="" />
  </g>
  <g id="TEXT1">
    <rect x="15300" y="21400" width="7940" height="2080" stroke-width="0" fill="none" id="TEXT1_pbTextBoundingRectEl" />
    <text fill="#000000" font-family="Helvetica" font-size="800" text-anchor="middle" x="19270" y="22840" id="TEXT1_pbTextEl">2#疏水箱</text>
  </g>
  <g name="VerySmoothTank2">
    <path d="M 38867 10796 l 5786 0 101 -73 93 -223 51 -352 25 -388 -25 -388 -51 -352 -93 -223 -101 -73 -5786 0 -101 73 -85 223 -59 352 -16 388 16 388 59 352 85 223 101 73 0 0" stroke-width="0" fill="#666666" />
    <path d="M 38850 10733 l 5820 0 93 -70 84 -209 51 -329 16 -365 -16 -365 -51 -332 -84 -206 -93 -73 -5820 0 -93 70 -84 209 -51 332 -25 365 25 365 51 329 84 209 93 70 0 0" stroke-width="0" fill="#666666" />
    <path d="M 38833 10670 l 5854 0 84 -63 76 -196 51 -309 16 -342 -16 -342 -51 -309 -76 -196 -84 -66 -5854 0 -84 66 -84 196 -51 309 -17 342 17 342 51 309 84 196 84 63 0 0" stroke-width="0" fill="#787878" />
    <path d="M 38816 10610 l 5888 0 76 -63 75 -179 43 -289 16 -319 -16 -319 -43 -289 -75 -182 -76 -60 -5888 0 -84 60 -67 182 -51 289 -17 319 17 319 51 289 67 179 84 63 0 0" stroke-width="0" fill="#7A7A7A" />
    <path d="M 38800 10547 l 5920 0 76 -57 59 -169 51 -265 8 -296 -8 -296 -51 -268 -59 -166 -76 -57 -5920 0 -76 57 -68 166 -42 268 -17 296 17 296 42 265 68 169 76 57 0 0" stroke-width="0" fill="#858585" />
    <path d="M 38783 10484 l 5954 0 68 -50 59 -156 42 -246 8 -272 -8 -272 -42 -246 -59 -156 -68 -53 -5954 0 -68 53 -59 156 -42 246 -17 272 17 272 42 246 59 153 68 53 0 0" stroke-width="0" fill="#969696" />
    <path d="M 38766 10421 l 5980 0 67 -47 51 -139 42 -226 8 -249 -8 -249 -42 -226 -51 -143 -67 -46 -5980 0 -59 46 -59 143 -34 226 -17 249 17 249 34 226 59 139 59 47 0 0" stroke-width="0" fill="#969696" />
    <path d="M 38749 10361 l 6014 0 59 -43 50 -130 34 -202 8 -226 -8 -226 -34 -206 -50 -126 -59 -43 -6014 0 -51 40 -50 129 -34 206 -17 226 17 226 34 202 50 130 51 43 0 0" stroke-width="0" fill="#A3A3A3" />
    <path d="M 38732 10298 l 6048 0 50 -37 51 -116 25 -182 8 -203 -8 -203 -25 -182 -51 -116 -50 -40 -6048 0 -51 40 -42 116 -25 182 -17 203 17 203 25 182 42 116 51 37 0 0" stroke-width="0" fill="#A3A3A3" />
    <path d="M 38715 10238 l 6081 0 43 -36 42 -103 25 -160 8 -179 -8 -179 -25 -163 -42 -103 -43 -33 -6081 0 -42 33 -34 103 -25 163 -17 179 17 179 25 160 34 103 42 36 0 0" stroke-width="0" fill="#ADADAD" />
    <path d="M 38698 10175 l 6115 0 34 -30 42 -89 17 -140 8 -156 -8 -156 -17 -140 -42 -89 -34 -30 -6115 0 -33 30 -34 89 -25 140 -9 156 9 156 25 140 34 89 33 30 0 0" stroke-width="0" fill="#B4B4B4" />
    <path d="M 38681 10112 l 6149 0 34 -27 25 -73 17 -119 8 -133 -8 -133 -17 -119 -25 -77 -34 -26 -6149 0 -25 26 -25 77 -25 119 -9 133 9 133 25 119 25 73 25 27 0 0" stroke-width="0" fill="#C0C0C0" />
    <path d="M 38673 10049 l 6174 0 25 -20 26 -63 8 -96 8 -110 -8 -110 -8 -99 -26 -60 -25 -23 -6174 0 -25 23 -26 60 -16 99 -9 110 9 110 16 96 26 63 25 20 0 0" stroke-width="0" fill="#C2C2C2" />
    <path d="M 38656 9989 l 6208 0 17 -16 17 -50 16 -80 0 -83 0 -86 -16 -77 -17 -50 -17 -16 -6208 0 -25 16 -17 50 -8 77 -9 86 9 83 8 80 17 50 25 16 0 0" stroke-width="0" fill="#D2D2D2" />
    <path d="M 38639 9926 l 6242 0 8 -13 17 -37 8 -56 0 -60 0 -63 -8 -57 -17 -36 -8 -10 -6242 0 -17 10 -8 36 -8 57 -9 63 9 60 8 56 8 37 17 13 0 0" stroke-width="0" fill="#D2D2D2" />
    <path d="M 38622 9863 l 6276 0 0 -7 8 -23 8 -36 0 -37 0 -40 -8 -36 -8 -20 0 -10 -6276 0 -8 10 -8 20 0 36 -9 40 9 37 0 36 8 23 8 7 0 0" stroke-width="0" fill="#DEDEDE" />
    <path d="M 38606 9803 l 6308 0 0 -3 0 -10 0 -13 9 -17 -9 -17 0 -13 0 -10 0 -3 -6308 0 0 3 0 10 0 13 0 17 0 17 0 13 0 10 0 3 0 0" stroke-width="0" fill="#DEDEDE" />
    <path d="M 38867 10796 l 5786 0 101 -73 93 -223 51 -352 25 -388 -25 -388 -51 -352 -93 -223 -101 -73 -5786 0 -101 73 -85 223 -59 352 -16 388 16 388 59 352 85 223 101 73" stroke="#000000" stroke-width="20" fill="none" />
  </g>
  <g name="SoftwareAnalogPoint">
    <path d="M 21246 402 l 371 612 -743 1224 -371 -612 743 -1224 0 0" stroke-width="0" fill="#FF0000" />
    <path d="M 21246 402 l 371 612 -743 1224 -371 -612 743 -1224" stroke="#000000" stroke-width="20" fill="none" />
  </g>
  <g name="TankWithRivets3">
    <path d="M 45594 24478 l 0 -5516 -5261 0 0 5516 0 16 14 16 14 8 28 16 28 8 36 17 42 8 42 16 56 8 56 8 63 16 71 8 77 8 77 8 84 8 85 8 91 16 98 0 99 8 98 8 112 8 106 8 112 8 120 0 119 8 119 0 127 8 126 0 134 0 126 0 134 8 140 0 133 0 134 -8 126 0 134 0 126 0 127 -8 119 0 119 -8 120 0 112 -8 106 -8 112 -8 98 -8 99 -8 98 0 91 -16 85 -8 84 -8 77 -8 77 -8 71 -8 63 -16 56 -8 56 -8 42 -16 42 -8 36 -17 28 -8 28 -16 14 -8 14 -16 0 -16 0 0" stroke-width="0" fill="#969696" />
    <path d="M 45229 24478 l 0 -169 0 -177 0 -169 0 -176 0 -169 0 -177 7 -169 0 -177 0 -169 0 -177 0 -169 0 -177 0 -168 0 -177 0 -169 0 -177 0 -169 0 -169 0 -177 0 -169 0 -176 0 -169 0 -177 0 -169 0 -169 -7 -177 0 -169 0 -177 0 -168 0 -177 0 -169 0 -177 -141 0 -140 0 -141 0 -140 0 -148 0 -140 0 -141 0 -140 0 -141 0 -140 0 -141 0 -147 0 -141 0 -140 0 -141 0 -140 0 -140 0 -141 0 -147 0 -141 0 -140 0 -141 0 -140 0 -148 0 -140 0 -141 0 -140 0 -141 0 -140 0 -141 0 -147 0 -141 0 0 177 0 169 0 177 0 168 0 177 0 169 0 177 0 169 0 169 0 177 0 169 0 176 0 169 0 177 0 169 0 169 0 177 0 169 0 177 0 168 0 177 0 169 0 177 0 169 0 177 0 169 0 177 0 169 0 176 0 169 0 177 0 169 7 16 7 8 14 16 22 8 21 16 35 8 35 17 42 8 42 16 49 8 56 8 57 16 63 8 70 8 70 8 78 8 77 8 84 8 84 8 92 8 91 8 91 8 99 0 98 8 105 0 106 8 105 0 112 8 113 0 112 0 113 0 119 0 112 0 120 0 112 0 113 0 105 -8 105 0 106 -8 105 0 98 -8 99 0 98 -8 91 -8 85 -8 91 -8 77 -8 84 -8 71 -8 70 -8 70 -8 63 -8 57 -16 56 -8 49 -8 49 -16 42 -8 35 -17 28 -8 29 -16 21 -8 14 -16 7 -8 0 -16 0 0" stroke-width="0" fill="#A3A3A3" />
    <path d="M 44863 24478 l 0 -169 0 -177 0 -169 0 -176 0 -169 0 -177 0 -169 0 -177 0 -169 0 -177 0 -169 0 -177 0 -168 0 -177 0 -169 0 -177 0 -169 0 -169 0 -177 0 -169 0 -176 0 -169 0 -177 0 -169 0 -169 0 -177 0 -169 0 -177 0 -168 0 -177 0 -169 0 -177 -119 0 -119 0 -120 0 -112 0 -120 0 -119 0 -119 0 -120 0 -119 0 -120 0 -119 0 -119 0 -113 0 -119 0 -120 0 -119 0 -119 0 -120 0 -119 0 -120 0 -119 0 -112 0 -120 0 -119 0 -120 0 -119 0 -119 0 -120 0 -119 0 -120 0 -119 0 -119 0 0 177 0 169 0 177 0 168 0 177 0 169 7 177 0 169 0 169 0 177 0 169 0 176 0 169 0 177 0 169 0 169 0 177 0 169 0 177 0 168 0 177 0 169 0 177 0 169 0 177 -7 169 0 177 0 169 0 176 0 169 0 177 0 169 7 16 7 8 14 16 14 8 21 16 28 8 28 17 35 8 35 16 42 8 50 8 49 16 49 8 56 8 63 8 63 8 64 8 70 8 70 8 77 8 78 8 77 8 84 0 85 8 84 0 84 8 91 0 92 8 98 0 91 0 99 0 98 0 98 0 92 0 98 0 91 0 92 -8 91 0 91 -8 85 0 84 -8 84 0 77 -8 78 -8 70 -8 77 -8 70 -8 64 -8 63 -8 56 -8 56 -8 56 -8 50 -16 42 -8 42 -8 42 -16 35 -8 28 -17 28 -8 21 -16 14 -8 14 -16 7 -8 0 -16 0 0" stroke-width="0" fill="#B4B4B4" />
    <path d="M 44498 24478 l 0 -169 0 -177 0 -169 0 -176 0 -169 0 -177 0 -169 0 -177 0 -169 0 -177 0 -169 0 -177 0 -168 0 -177 0 -169 0 -177 0 -169 0 -169 0 -177 0 -169 0 -176 0 -169 0 -177 0 -169 0 -169 0 -177 0 -169 0 -177 0 -168 0 -177 0 -169 0 -177 -98 0 -91 0 -99 0 -91 0 -98 0 -99 0 -91 0 -98 0 -99 0 -91 0 -98 0 -99 0 -91 0 -98 0 -99 0 -91 0 -98 0 -92 0 -98 0 -98 0 -92 0 -98 0 -98 0 -92 0 -98 0 -98 0 -92 0 -98 0 -98 0 -92 0 -98 0 -98 0 0 177 0 169 0 177 0 168 0 177 0 169 7 177 0 169 0 169 0 177 0 169 0 176 0 169 0 177 0 169 0 169 0 177 0 169 0 177 0 168 0 177 0 169 0 177 0 169 0 177 -7 169 0 177 0 169 0 176 0 169 0 177 0 169 7 16 7 8 7 16 14 8 14 16 21 8 28 17 28 8 28 16 35 8 36 8 42 16 42 8 42 8 49 8 49 8 57 8 56 8 56 8 63 8 63 8 64 8 63 0 70 8 70 0 70 8 71 0 77 8 77 0 78 0 77 0 77 0 77 0 78 0 77 0 77 0 70 -8 78 0 70 -8 70 0 63 -8 70 0 64 -8 63 -8 56 -8 63 -8 57 -8 49 -8 49 -8 49 -8 49 -8 42 -8 42 -16 36 -8 35 -8 28 -16 28 -8 21 -17 21 -8 21 -16 14 -8 7 -16 7 -8 0 -16 0 0" stroke-width="0" fill="#C2C2C2" />
    <path d="M 44133 24478 l 0 -169 0 -177 0 -169 0 -176 0 -169 0 -177 7 -169 0 -177 0 -169 0 -177 0 -169 0 -177 0 -168 0 -177 0 -169 0 -177 0 -169 0 -169 0 -177 0 -169 0 -176 0 -169 0 -177 0 -169 0 -169 -7 -177 0 -169 0 -177 0 -168 0 -177 0 -169 0 -177 -70 0 -71 0 -77 0 -70 0 -77 0 -71 0 -70 0 -77 0 -70 0 -78 0 -70 0 -77 0 -70 0 -70 0 -78 0 -70 0 -70 0 -77 0 -71 0 -77 0 -70 0 -70 0 -78 0 -70 0 -77 0 -70 0 -78 0 -70 0 -77 0 -70 0 -71 0 -77 0 0 177 0 169 0 177 0 168 0 177 0 169 0 177 0 169 0 169 0 177 0 169 0 176 0 169 0 177 0 169 0 169 0 177 0 169 0 177 0 168 0 177 0 169 0 177 0 169 0 177 0 169 0 177 0 169 0 176 0 169 0 177 0 169 0 16 7 8 7 16 14 8 7 16 21 8 14 17 21 8 28 16 22 8 28 8 35 16 28 8 35 8 42 8 35 8 42 8 43 8 42 8 49 8 49 8 49 8 49 0 49 8 57 0 49 8 56 0 56 8 63 0 57 0 56 0 63 0 56 0 63 0 57 0 56 0 56 -8 56 0 56 -8 50 0 56 -8 49 0 49 -8 49 -8 42 -8 50 -8 42 -8 35 -8 42 -8 35 -8 35 -8 35 -8 28 -16 28 -8 29 -8 21 -16 21 -8 21 -17 14 -8 14 -16 7 -8 14 -16 0 -8 0 -16 0 0" stroke-width="0" fill="#D2D2D2" />
    <path d="M 43768 24478 l 0 -169 0 -177 0 -169 0 -176 0 -169 0 -177 0 -169 0 -177 0 -169 0 -177 0 -169 0 -177 0 -168 0 -177 0 -169 0 -177 0 -169 0 -169 0 -177 0 -169 0 -176 0 -169 0 -177 0 -169 0 -169 0 -177 0 -169 0 -177 0 -168 0 -177 0 -169 0 -177 -49 0 -50 0 -49 0 -49 0 -56 0 -49 0 -49 0 -50 0 -49 0 -49 0 -56 0 -49 0 -49 0 -50 0 -49 0 -49 0 -49 0 -49 0 -49 0 -57 0 -49 0 -49 0 -49 0 -49 0 -49 0 -57 0 -49 0 -49 0 -49 0 -49 0 -50 0 -56 0 0 177 0 169 0 177 0 168 0 177 0 169 7 177 0 169 0 169 0 177 0 169 0 176 0 169 0 177 0 169 0 169 0 177 0 169 0 177 0 168 0 177 0 169 0 177 0 169 0 177 -7 169 0 177 0 169 0 176 0 169 0 177 0 169 7 24 14 24 21 24 22 25 35 24 42 24 49 16 49 16 56 16 64 16 63 16 70 8 77 8 77 8 78 0 84 0 77 0 85 0 77 -8 70 -8 70 -8 71 -16 56 -16 63 -16 49 -16 49 -16 35 -24 36 -24 28 -25 21 -24 14 -24 0 -24 0 0" stroke-width="0" fill="#DEDEDE" />
    <path d="M 43402 24478 l 0 -5516 -877 0 0 5516 0 32 7 24 14 25 14 24 21 16 21 24 21 16 28 16 35 16 35 16 35 16 35 8 43 8 42 8 42 0 49 8 42 -8 42 0 42 -8 43 -8 35 -8 35 -16 35 -16 35 -16 28 -16 21 -16 21 -24 21 -16 14 -24 14 -25 7 -24 0 -32 0 0" stroke-width="0" fill="#F0F0F0" />
    <path d="M 45594 24478 l 0 -5516 -5261 0 0 5516 0 0 0 16 14 16 14 8 28 16 28 8 36 17 42 8 42 16 56 8 56 8 63 16 71 8 77 8 77 8 84 8 85 8 91 16 98 0 99 8 98 8 112 8 106 8 112 8 120 0 119 8 119 0 127 8 126 0 134 0 126 0 134 8 140 0 0 0 133 0 134 -8 126 0 134 0 126 0 127 -8 119 0 119 -8 120 0 112 -8 106 -8 112 -8 98 -8 99 -8 98 0 91 -16 85 -8 84 -8 77 -8 77 -8 71 -8 63 -16 56 -8 56 -8 42 -16 42 -8 36 -17 28 -8 28 -16 14 -8 14 -16 0 -16" stroke="#000000" stroke-width="20" fill="none" />
    <path d="M 42967 18705 l 133 0 134 8 126 0 134 0 126 0 127 8 119 0 119 8 120 0 112 8 106 8 112 8 98 8 99 8 98 0 91 16 85 8 84 8 77 8 77 8 71 8 63 16 56 8 56 8 42 16 42 8 36 17 28 8 28 16 14 8 14 16 0 16 0 8 -14 16 -14 8 -28 16 -28 8 -36 16 -42 8 -42 16 -56 8 -56 17 -63 8 -71 8 -77 8 -77 8 -84 16 -85 8 -91 8 -98 8 -99 8 -98 8 -112 0 -106 8 -112 8 -120 0 -119 8 -119 0 -127 8 -126 0 -134 8 -126 0 -134 0 -133 0 -140 0 -134 0 -126 0 -134 -8 -126 0 -127 -8 -119 0 -119 -8 -120 0 -112 -8 -106 -8 -112 0 -98 -8 -99 -8 -98 -8 -91 -8 -85 -8 -84 -16 -77 -8 -77 -8 -71 -8 -63 -8 -56 -17 -56 -8 -42 -16 -42 -8 -36 -16 -28 -8 -28 -16 -14 -8 -14 -16 0 -8 0 -16 14 -16 14 -8 28 -16 28 -8 36 -17 42 -8 42 -16 56 -8 56 -8 63 -16 71 -8 77 -8 77 -8 84 -8 85 -8 91 -16 98 0 99 -8 98 -8 112 -8 106 -8 112 -8 120 0 119 -8 119 0 127 -8 126 0 134 0 126 0 134 -8 140 0 0 0" stroke-width="0" fill="#C0C0C0" />
    <path d="M 42967 18705 l 0 0 133 0 134 8 126 0 134 0 126 0 127 8 119 0 119 8 120 0 112 8 106 8 112 8 98 8 99 8 98 0 91 16 85 8 84 8 77 8 77 8 71 8 63 16 56 8 56 8 42 16 42 8 36 17 28 8 28 16 14 8 14 16 0 16 0 0 0 8 -14 16 -14 8 -28 16 -28 8 -36 16 -42 8 -42 16 -56 8 -56 17 -63 8 -71 8 -77 8 -77 8 -84 16 -85 8 -91 8 -98 8 -99 8 -98 8 -112 0 -106 8 -112 8 -120 0 -119 8 -119 0 -127 8 -126 0 -134 8 -126 0 -134 0 -133 0 0 0 -140 0 -134 0 -126 0 -134 -8 -126 0 -127 -8 -119 0 -119 -8 -120 0 -112 -8 -106 -8 -112 0 -98 -8 -99 -8 -98 -8 -91 -8 -85 -8 -84 -16 -77 -8 -77 -8 -71 -8 -63 -8 -56 -17 -56 -8 -42 -16 -42 -8 -36 -16 -28 -8 -28 -16 -14 -8 -14 -16 0 -8 0 0 0 -16 14 -16 14 -8 28 -16 28 -8 36 -17 42 -8 42 -16 56 -8 56 -8 63 -16 71 -8 77 -8 77 -8 84 -8 85 -8 91 -16 98 0 99 -8 98 -8 112 -8 106 -8 112 -8 120 0 119 -8 119 0 127 -8 126 0 134 0 126 0 134 -8 140 0" stroke="#000000" stroke-width="20" fill="none" />
    <path d="M 41647 19179 l 0 5524" stroke="#000000" stroke-width="20" fill="none" />
    <path d="M 41429 19332 l 112 0 0 128 -112 0 0 -128 0 0" stroke-width="0" fill="#808080" />
    <path d="M 41429 19838 l 112 0 0 129 -112 0 0 -129 0 0" stroke-width="0" fill="#808080" />
    <path d="M 41429 20337 l 112 0 0 129 -112 0 0 -129 0 0" stroke-width="0" fill="#808080" />
    <path d="M 41429 20844 l 112 0 0 120 -112 0 0 -120 0 0" stroke-width="0" fill="#808080" />
    <path d="M 41429 21342 l 112 0 0 129 -112 0 0 -129 0 0" stroke-width="0" fill="#808080" />
    <path d="M 41429 21841 l 112 0 0 128 -112 0 0 -128 0 0" stroke-width="0" fill="#808080" />
    <path d="M 41429 22347 l 112 0 0 129 -112 0 0 -129 0 0" stroke-width="0" fill="#808080" />
    <path d="M 41429 22846 l 112 0 0 128 -112 0 0 -128 0 0" stroke-width="0" fill="#808080" />
    <path d="M 41429 23352 l 112 0 0 121 -112 0 0 -121 0 0" stroke-width="0" fill="#808080" />
    <path d="M 41429 23851 l 112 0 0 129 -112 0 0 -129 0 0" stroke-width="0" fill="#808080" />
    <path d="M 41429 24357 l 112 0 0 121 -112 0 0 -121 0 0" stroke-width="0" fill="#808080" />
    <path d="M 43838 19179 l 0 5524" stroke="#000000" stroke-width="20" fill="none" />
    <path d="M 43620 19332 l 113 0 0 128 -113 0 0 -128 0 0" stroke-width="0" fill="#969696" />
    <path d="M 43620 19838 l 113 0 0 129 -113 0 0 -129 0 0" stroke-width="0" fill="#969696" />
    <path d="M 43620 20337 l 113 0 0 129 -113 0 0 -129 0 0" stroke-width="0" fill="#969696" />
    <path d="M 43620 20844 l 113 0 0 120 -113 0 0 -120 0 0" stroke-width="0" fill="#969696" />
    <path d="M 43620 21342 l 113 0 0 129 -113 0 0 -129 0 0" stroke-width="0" fill="#969696" />
    <path d="M 43620 21841 l 113 0 0 128 -113 0 0 -128 0 0" stroke-width="0" fill="#969696" />
    <path d="M 43620 22347 l 113 0 0 129 -113 0 0 -129 0 0" stroke-width="0" fill="#969696" />
    <path d="M 43620 22846 l 113 0 0 128 -113 0 0 -128 0 0" stroke-width="0" fill="#969696" />
    <path d="M 43620 23352 l 113 0 0 121 -113 0 0 -121 0 0" stroke-width="0" fill="#969696" />
    <path d="M 43620 23851 l 113 0 0 129 -113 0 0 -129 0 0" stroke-width="0" fill="#969696" />
    <path d="M 43620 24357 l 113 0 0 121 -113 0 0 -121 0 0" stroke-width="0" fill="#969696" />
  </g>
  <g id="BARGRAPH4" PB:IsMultiState="False" PB:Lower="0" PB:Orientation="0" PB:CanonicalNumberFormat="General" PBD:PtTagName="\\\" PB:Start="0" PB:Upper="100" PB:Type="12">
    <rect x="41960" y="19460" width="1560" height="4980" stroke-width="0" fill="#C0C0C0" id="BARGRAPH4_pbBarBoundingRectEl" />
    <rect x="41960" y="19460" width="1560" height="4980" stroke-width="0" fill="#00D200" id="BARGRAPH4_pbBarTagRectEl" stroke="none" PBD:Property="" />
  </g>
  <path id="POLYGON15" d="M 1040 28420 l 0 -1700" stroke="#00D200" stroke-width="40" fill="none" />
  <path id="LINE15" d="M 920 32680 l 57900 0" stroke="#00D200" stroke-width="40" fill="none" />
  <path id="LINE16" d="M 920 33320 l 0 -1700" stroke="#00D200" stroke-width="40" fill="none" />
  <g name="StraightArrow1">
    <path d="M 13986 30276 l 1226 -541 0 361 1922 0 0 368 -1922 0 0 361 -1226 -549 0 0" stroke-width="0" fill="#00D200" />
    <path d="M 13986 30276 l 1226 -541 0 361 1922 0 0 368 -1922 0 0 361 -1226 -549" stroke="#000000" stroke-width="20" fill="none" />
  </g>
  <path id="POLYGON16" d="M 8120 32600 l 0 -2220" stroke="#00D200" stroke-width="40" fill="none" />
  <path id="POLYGON17" d="M 14060 30320 l -6020 0" stroke="#00D200" stroke-width="40" fill="none" />
  <g id="TEXT3">
    <rect x="8060" y="28220" width="9840" height="2080" stroke-width="0" fill="none" id="TEXT3_pbTextBoundingRectEl" />
    <text fill="#000000" font-family="Helvetica" font-size="800" text-anchor="middle" x="12980" y="29660" id="TEXT3_pbTextEl">来自水平衡母管放水</text>
  </g>
  <g name="StraightArrow1">
    <path d="M 25506 30236 l 1226 -541 0 361 1922 0 0 368 -1922 0 0 361 -1226 -549 0 0" stroke-width="0" fill="#00D200" />
    <path d="M 25506 30236 l 1226 -541 0 361 1922 0 0 368 -1922 0 0 361 -1226 -549" stroke="#000000" stroke-width="20" fill="none" />
  </g>
  <path id="LINE17" d="M 19660 32560 l 0 -2200" stroke="#00D200" stroke-width="40" fill="none" />
  <path id="LINE18" d="M 25600 30280 l -6020 0" stroke="#00D200" stroke-width="40" fill="none" />
  <g id="TEXT4">
    <rect x="19580" y="28180" width="9840" height="2080" stroke-width="0" fill="none" id="TEXT4_pbTextBoundingRectEl" />
    <text fill="#000000" font-family="Helvetica" font-size="800" text-anchor="middle" x="24500" y="29620" id="TEXT4_pbTextEl">来自溢放水母管放水</text>
  </g>
  <g name="StraightArrow1">
    <path d="M 35946 30176 l 1226 -541 0 361 1922 0 0 368 -1922 0 0 361 -1226 -549 0 0" stroke-width="0" fill="#00D200" />
    <path d="M 35946 30176 l 1226 -541 0 361 1922 0 0 368 -1922 0 0 361 -1226 -549" stroke="#000000" stroke-width="20" fill="none" />
  </g>
  <path id="LINE19" d="M 30100 32580 l 0 -2300" stroke="#00D200" stroke-width="40" fill="none" />
  <path id="LINE20" d="M 36040 30220 l -6020 0" stroke="#00D200" stroke-width="40" fill="none" />
  <g id="TEXT5">
    <rect x="30020" y="28120" width="9840" height="2080" stroke-width="0" fill="none" id="TEXT5_pbTextBoundingRectEl" />
    <text fill="#000000" font-family="Helvetica" font-size="800" text-anchor="middle" x="34940" y="29560" id="TEXT5_pbTextEl">来自水平衡母管放水</text>
  </g>
  <g name="StraightArrow1">
    <path d="M 46066 30176 l 1226 -541 0 361 1922 0 0 368 -1922 0 0 361 -1226 -549 0 0" stroke-width="0" fill="#00D200" />
    <path d="M 46066 30176 l 1226 -541 0 361 1922 0 0 368 -1922 0 0 361 -1226 -549" stroke="#000000" stroke-width="20" fill="none" />
  </g>
  <path id="LINE21" d="M 40220 32640 l 0 -2360" stroke="#00D200" stroke-width="40" fill="none" />
  <path id="LINE22" d="M 46160 30220 l -6020 0" stroke="#00D200" stroke-width="40" fill="none" />
  <g id="TEXT7">
    <rect x="40140" y="28100" width="9840" height="2080" stroke-width="0" fill="none" id="TEXT7_pbTextBoundingRectEl" />
    <text fill="#000000" font-family="Helvetica" font-size="800" text-anchor="middle" x="45060" y="29540" id="TEXT7_pbTextEl">来自溢放水母管放水</text>
  </g>
  <path id="LINE24" d="M 58520 33580 l 0 1120" stroke="#000000" stroke-width="20" fill="none" />
  <path id="LINE25" d="M 58520 34640 l 1180 0" stroke="#000000" stroke-width="20" fill="none" />
  <path id="LINE26" d="M 59700 34640 l 0 -1300" stroke="#000000" stroke-width="20" fill="none" />
  <path id="LINE27" d="M 59700 33380 l 980 0" stroke="#000000" stroke-width="20" fill="none" />
  <path id="POLYGON27" d="M 58420 33580 l -840 0" stroke="#000000" stroke-width="20" fill="none" />
  <path id="POLYGON28" d="M 58960 32600 l 0 1060" stroke="#00D200" stroke-width="40" fill="none" />
  <g id="TEXT8">
    <rect x="120" y="25820" width="9840" height="2080" stroke-width="0" fill="none" id="TEXT8_pbTextBoundingRectEl" />
    <text fill="#000000" font-family="Helvetica" font-size="800" text-anchor="middle" x="5040" y="27260" id="TEXT8_pbTextEl">疏水泵进口母管</text>
  </g>
  <g id="TEXT9">
    <rect x="-540" y="30520" width="9840" height="2080" stroke-width="0" fill="none" id="TEXT9_pbTextBoundingRectEl" />
    <text fill="#000000" font-family="Helvetica" font-size="800" text-anchor="middle" x="4380" y="31960" id="TEXT9_pbTextEl">无压放水母管</text>
  </g>
  <g name="a3DGateValve">
    <path d="M 10067 23227 l 666 0 -666 1268 666 0 -666 -1268 0 0" stroke-width="0" fill="#808080" />
    <path d="M 10101 23227 l 598 0 -598 1268 598 0 -598 -1268 0 0" stroke-width="0" fill="#969696" />
    <path d="M 10171 23227 l 461 0 -461 1268 461 0 -461 -1268 0 0" stroke-width="0" fill="#B4B4B4" />
    <path d="M 10237 23227 l 326 0 -326 1268 326 0 -326 -1268 0 0" stroke-width="0" fill="#CCCCCC" />
    <path d="M 10291 23227 l 221 0 -221 1268 221 0 -221 -1268 0 0" stroke-width="0" fill="#DEDEDE" />
    <path d="M 10357 23227 l 86 0 -86 1268 86 0 -86 -1268 0 0" stroke-width="0" fill="#FFFFFF" />
    <path d="M 10067 23227 l 666 0 -666 1268 666 0 -666 -1268" stroke="#000000" stroke-width="20" fill="none" />
  </g>
  <g name="Heating15">
    <path d="M 10411 21021 l 110 10 106 28 93 48 80 61 71 78 51 86 33 95 14 104 -11 103 -29 101 -47 87 -69 77 -78 68 -91 47 -106 32 -109 13 -110 -10 -106 -28 -93 -43 -80 -66 -71 -74 -51 -86 -33 -99 -14 -104 11 -103 29 -97 48 -87 68 -81 78 -63 91 -52 106 -32 109 -13 0 0" stroke-width="0" fill="#00D200" />
    <path d="M 10411 21021 l 0 0 110 10 106 28 93 48 80 61 71 78 51 86 33 95 14 104 0 0 -11 103 -29 101 -47 87 -69 77 -78 68 -91 47 -106 32 -109 13 0 0 -110 -10 -106 -28 -93 -43 -80 -66 -71 -74 -51 -86 -33 -99 -14 -104 0 0 11 -103 29 -97 48 -87 68 -81 78 -63 91 -52 106 -32 109 -13" stroke="#000000" stroke-width="20" fill="none" />
    <path d="M 10493 21996 l -12 -715 141 -2 -209 -191 -204 198 137 -2 13 715 134 -3 0 0" stroke-width="0" fill="#000000" />
    <path d="M 10493 21996 l -12 -715 141 -2 -209 -191 -204 198 137 -2 13 715 134 -3" stroke="#000000" stroke-width="20" fill="none" />
  </g>
  <path id="POLYGON1" d="M 10340 22140 l 80 -40" stroke-width="0" fill="none" />
  <path id="POLYGON2" d="M 10440 22180 l 0 1000" stroke="#00D200" stroke-width="40" fill="none" />
  <path id="POLYGON4" d="M 10440 20900 l 0 -960" stroke="#00D200" stroke-width="40" fill="none" />
  <g name="a3DGateValve">
    <path d="M 10107 18827 l 666 0 -666 1268 666 0 -666 -1268 0 0" stroke-width="0" fill="#808080" />
    <path d="M 10141 18827 l 598 0 -598 1268 598 0 -598 -1268 0 0" stroke-width="0" fill="#969696" />
    <path d="M 10211 18827 l 461 0 -461 1268 461 0 -461 -1268 0 0" stroke-width="0" fill="#B4B4B4" />
    <path d="M 10277 18827 l 326 0 -326 1268 326 0 -326 -1268 0 0" stroke-width="0" fill="#CCCCCC" />
    <path d="M 10331 18827 l 221 0 -221 1268 221 0 -221 -1268 0 0" stroke-width="0" fill="#DEDEDE" />
    <path d="M 10397 18827 l 86 0 -86 1268 86 0 -86 -1268 0 0" stroke-width="0" fill="#FFFFFF" />
    <path d="M 10107 18827 l 666 0 -666 1268 666 0 -666 -1268" stroke="#000000" stroke-width="20" fill="none" />
  </g>
  <path id="POLYGON5" d="M 10480 18780 l 0 -840" stroke="#00D200" stroke-width="40" fill="none" />
  <g name="a3DGateValve">
    <path d="M 10087 16707 l 666 0 -666 1268 666 0 -666 -1268 0 0" stroke-width="0" fill="#808080" />
    <path d="M 10121 16707 l 598 0 -598 1268 598 0 -598 -1268 0 0" stroke-width="0" fill="#969696" />
    <path d="M 10191 16707 l 461 0 -461 1268 461 0 -461 -1268 0 0" stroke-width="0" fill="#B4B4B4" />
    <path d="M 10257 16707 l 326 0 -326 1268 326 0 -326 -1268 0 0" stroke-width="0" fill="#CCCCCC" />
    <path d="M 10311 16707 l 221 0 -221 1268 221 0 -221 -1268 0 0" stroke-width="0" fill="#DEDEDE" />
    <path d="M 10377 16707 l 86 0 -86 1268 86 0 -86 -1268 0 0" stroke-width="0" fill="#FFFFFF" />
    <path d="M 10087 16707 l 666 0 -666 1268 666 0 -666 -1268" stroke="#000000" stroke-width="20" fill="none" />
  </g>
  <path id="POLYGON6" d="M 10420 24540 l 0 1000" stroke="#00D200" stroke-width="40" fill="none" />
  <g name="a3DGateValve">
    <path d="M 12567 23167 l 666 0 -666 1268 666 0 -666 -1268 0 0" stroke-width="0" fill="#808080" />
    <path d="M 12601 23167 l 598 0 -598 1268 598 0 -598 -1268 0 0" stroke-width="0" fill="#969696" />
    <path d="M 12671 23167 l 461 0 -461 1268 461 0 -461 -1268 0 0" stroke-width="0" fill="#B4B4B4" />
    <path d="M 12737 23167 l 326 0 -326 1268 326 0 -326 -1268 0 0" stroke-width="0" fill="#CCCCCC" />
    <path d="M 12791 23167 l 221 0 -221 1268 221 0 -221 -1268 0 0" stroke-width="0" fill="#DEDEDE" />
    <path d="M 12857 23167 l 86 0 -86 1268 86 0 -86 -1268 0 0" stroke-width="0" fill="#FFFFFF" />
    <path d="M 12567 23167 l 666 0 -666 1268 666 0 -666 -1268" stroke="#000000" stroke-width="20" fill="none" />
  </g>
  <g name="Heating15">
    <path d="M 12911 20961 l 110 10 106 28 93 48 80 61 71 78 51 86 33 95 14 104 -11 103 -29 101 -47 87 -69 77 -78 68 -91 47 -106 32 -109 13 -110 -10 -106 -28 -93 -43 -80 -66 -71 -74 -51 -86 -33 -99 -14 -104 11 -103 29 -97 48 -87 68 -81 78 -63 91 -52 106 -32 109 -13 0 0" stroke-width="0" fill="#00D200" />
    <path d="M 12911 20961 l 0 0 110 10 106 28 93 48 80 61 71 78 51 86 33 95 14 104 0 0 -11 103 -29 101 -47 87 -69 77 -78 68 -91 47 -106 32 -109 13 0 0 -110 -10 -106 -28 -93 -43 -80 -66 -71 -74 -51 -86 -33 -99 -14 -104 0 0 11 -103 29 -97 48 -87 68 -81 78 -63 91 -52 106 -32 109 -13" stroke="#000000" stroke-width="20" fill="none" />
    <path d="M 12993 21936 l -12 -715 141 -2 -209 -191 -204 198 137 -2 13 715 134 -3 0 0" stroke-width="0" fill="#000000" />
    <path d="M 12993 21936 l -12 -715 141 -2 -209 -191 -204 198 137 -2 13 715 134 -3" stroke="#000000" stroke-width="20" fill="none" />
  </g>
  <path id="LINE6" d="M 12840 22080 l 80 -40" stroke-width="0" fill="none" />
  <path id="LINE7" d="M 12960 22120 l 0 1000" stroke="#00D200" stroke-width="40" fill="none" />
  <path id="LINE8" d="M 12960 20840 l 0 -960" stroke="#00D200" stroke-width="40" fill="none" />
  <g name="a3DGateValve">
    <path d="M 12627 18767 l 666 0 -666 1268 666 0 -666 -1268 0 0" stroke-width="0" fill="#808080" />
    <path d="M 12661 18767 l 598 0 -598 1268 598 0 -598 -1268 0 0" stroke-width="0" fill="#969696" />
    <path d="M 12731 18767 l 461 0 -461 1268 461 0 -461 -1268 0 0" stroke-width="0" fill="#B4B4B4" />
    <path d="M 12797 18767 l 326 0 -326 1268 326 0 -326 -1268 0 0" stroke-width="0" fill="#CCCCCC" />
    <path d="M 12851 18767 l 221 0 -221 1268 221 0 -221 -1268 0 0" stroke-width="0" fill="#DEDEDE" />
    <path d="M 12917 18767 l 86 0 -86 1268 86 0 -86 -1268 0 0" stroke-width="0" fill="#FFFFFF" />
    <path d="M 12627 18767 l 666 0 -666 1268 666 0 -666 -1268" stroke="#000000" stroke-width="20" fill="none" />
  </g>
  <path id="LINE9" d="M 13000 18720 l 0 -840" stroke="#00D200" stroke-width="40" fill="none" />
  <g name="a3DGateValve">
    <path d="M 12587 16627 l 666 0 -666 1268 666 0 -666 -1268 0 0" stroke-width="0" fill="#808080" />
    <path d="M 12621 16627 l 598 0 -598 1268 598 0 -598 -1268 0 0" stroke-width="0" fill="#969696" />
    <path d="M 12691 16627 l 461 0 -461 1268 461 0 -461 -1268 0 0" stroke-width="0" fill="#B4B4B4" />
    <path d="M 12757 16627 l 326 0 -326 1268 326 0 -326 -1268 0 0" stroke-width="0" fill="#CCCCCC" />
    <path d="M 12811 16627 l 221 0 -221 1268 221 0 -221 -1268 0 0" stroke-width="0" fill="#DEDEDE" />
    <path d="M 12877 16627 l 86 0 -86 1268 86 0 -86 -1268 0 0" stroke-width="0" fill="#FFFFFF" />
    <path d="M 12587 16627 l 666 0 -666 1268 666 0 -666 -1268" stroke="#000000" stroke-width="20" fill="none" />
  </g>
  <path id="LINE10" d="M 12920 24480 l 0 1000" stroke="#00D200" stroke-width="40" fill="none" />
  <path id="POLYGON10" d="M 10420 25540 l 2500 0" stroke="#00D200" stroke-width="40" fill="none" />
  <path id="POLYGON11" d="M 10460 16640 l 0 -1040" stroke="#00D200" stroke-width="40" fill="none" />
  <path id="POLYGON12" d="M 12920 16620 l 0 -980" stroke="#00D200" stroke-width="40" fill="none" />
  <path id="POLYGON13" d="M 10420 15600 l 2500 0" stroke="#00D200" stroke-width="40" fill="none" />
  <g id="TEXT10">
    <rect x="39180" y="21240" width="7940" height="2080" stroke-width="0" fill="none" id="TEXT10_pbTextBoundingRectEl" />
    <text fill="#000000" font-family="Helvetica" font-size="800" text-anchor="middle" x="43150" y="22680" id="TEXT10_pbTextEl">1#疏水箱</text>
  </g>
  <path id="POLYGON29" d="M 11560 25540 l 0 1960" stroke="#00D200" stroke-width="40" fill="none" />
  <path id="POLYGON30" d="M 11760 15480 l 0 -2760" stroke="#00D200" stroke-width="40" fill="none" />
  <path id="POLYGON31" d="M 11760 12800 l -7760 0" stroke="#00D200" stroke-width="40" fill="none" />
  <g name="StraightArrow1">
    <path d="M 982 12796 l 1151 -541 0 361 1805 0 0 368 -1805 0 0 361 -1151 -549 0 0" stroke-width="0" fill="#00D200" />
    <path d="M 982 12796 l 1151 -541 0 361 1805 0 0 368 -1805 0 0 361 -1151 -549" stroke="#000000" stroke-width="20" fill="none" />
  </g>
  <path id="POLYGON33" d="M 11700 14380 l -7960 0" stroke="#00D200" stroke-width="40" fill="none" />
  <g name="StraightArrow1">
    <path d="M 922 14376 l 1151 -541 0 361 1805 0 0 368 -1805 0 0 361 -1151 -549 0 0" stroke-width="0" fill="#00D200" />
    <path d="M 922 14376 l 1151 -541 0 361 1805 0 0 368 -1805 0 0 361 -1151 -549" stroke="#000000" stroke-width="20" fill="none" />
  </g>
  <path id="POLYGON34" d="M 18160 24440 l 0 3200" stroke="#00D200" stroke-width="40" fill="none" />
  <path id="POLYGON35" d="M 20900 24640 l 0 1620" stroke="#00D200" stroke-width="40" fill="none" />
  <path id="POLYGON36" d="M 20840 26280 l 19580 0" stroke="#00D200" stroke-width="40" fill="none" />
  <path id="POLYGON39" d="M 41200 27640 l 0 -2940" stroke="#00D200" stroke-width="40" fill="none" />
  <path id="POLYGON40" d="M 41580 26200 l 17560 0" stroke="#00D200" stroke-width="40" fill="none" />
  <path id="LINE42" d="M 58600 28540 l 0 1120" stroke="#000000" stroke-width="20" fill="none" />
  <path id="LINE43" d="M 58600 29600 l 1180 0" stroke="#000000" stroke-width="20" fill="none" />
  <path id="LINE44" d="M 59780 29600 l 0 -1300" stroke="#000000" stroke-width="20" fill="none" />
  <path id="LINE45" d="M 59780 28340 l 980 0" stroke="#000000" stroke-width="20" fill="none" />
  <path id="LINE46" d="M 58640 28540 l -980 0" stroke="#000000" stroke-width="20" fill="none" />
  <path id="POLYGON47" d="M 59140 26140 l 0 1960" stroke="#00D200" stroke-width="40" fill="none" />
  <path id="POLYGON48" d="M 45040 24560 l 0 1500" stroke="#00D200" stroke-width="40" fill="none" />
  <path id="POLYGON49" d="M 45580 22540 l 1420 0" stroke="#00D200" stroke-width="40" fill="none" />
  <path id="POLYGON50" d="M 47000 22460 l 0 3680" stroke="#00D200" stroke-width="40" fill="none" />
  <path id="POLYGON51" d="M 22200 22660 l 1500 0" stroke="#00D200" stroke-width="40" fill="none" />
  <path id="POLYGON52" d="M 23780 22600 l 0 3660" stroke="#00D200" stroke-width="40" fill="none" />
  <path id="POLYGON53" d="M 19460 18540 l 0 -2420" stroke="#00D200" stroke-width="40" fill="none" />
  <path id="POLYGON54" d="M 19460 16120 l 23040 0" stroke="#00D200" stroke-width="40" fill="none" />
  <path id="POLYGON55" d="M 42500 16060 l 0 2620" stroke="#00D200" stroke-width="40" fill="none" />
  <path id="POLYGON57" d="M 33500 13720 l -2220 0" stroke="#00D200" stroke-width="40" fill="none" />
  <path id="POLYGON58" d="M 31340 13720 l 0 2360" stroke="#00D200" stroke-width="40" fill="none" />
  <path id="POLYGON59" d="M 39820 13780 l 2160 0" stroke="#00D200" stroke-width="40" fill="none" />
  <path id="POLYGON60" d="M 41920 13780 l 0 -3000" stroke="#00D200" stroke-width="40" fill="none" />
  <path id="POLYGON61" d="M 43480 8760 l 0 2020" stroke="#000000" stroke-width="20" fill="none" />
  <path id="POLYGON62" d="M 44080 8760 l 0 2080" stroke="#000000" stroke-width="20" fill="none" />
  <g name="a3DAngleBlowdownValve">
    <path d="M 18952 3392 l 0 -90 337 0 0 90 -337 0 0 0" stroke-width="0" fill="#808080" />
    <path d="M 18952 3384 l 0 -74 337 0 0 74 -337 0 0 0" stroke-width="0" fill="#B4B4B4" />
    <path d="M 18952 3373 l 0 -51 337 0 0 51 -337 0 0 0" stroke-width="0" fill="#DEDEDE" />
    <path d="M 18952 3357 l 0 -18 337 0 0 18 -337 0 0 0" stroke-width="0" fill="#FFFFFF" />
    <path d="M 18952 3302 l 337 0" stroke="#000000" stroke-width="20" fill="none" />
    <path d="M 18952 3392 l 337 0" stroke="#000000" stroke-width="20" fill="none" />
    <path d="M 19037 3392 l 0 -90 166 0 0 90 -39 0 0 93 -85 0 0 -93 -42 0 0 0" stroke-width="0" fill="#808080" />
    <path d="M 19037 3384 l 0 -74 118 0 48 0 0 74 -48 0 0 101 -70 0 0 -101 -48 0 0 0" stroke-width="0" fill="#B4B4B4" />
    <path d="M 19037 3373 l 0 -51 108 0 58 0 0 51 -61 0 3 112 -47 0 0 -112 -61 0 0 0" stroke-width="0" fill="#DEDEDE" />
    <path d="M 19037 3357 l 0 -18 92 0 74 0 0 18 -74 0 0 128 -18 0 0 -128 -74 0 0 0" stroke-width="0" fill="#FFFFFF" />
    <path d="M 19037 3392 l 42 0 0 93" stroke="#000000" stroke-width="20" fill="none" />
    <path d="M 19164 3485 l 0 -93 39 0" stroke="#000000" stroke-width="20" fill="none" />
    <path d="M 19203 3302 l -39 0 -127 0" stroke="#000000" stroke-width="20" fill="none" />
    <path d="M 19164 4226 l -85 0 0 -738 85 0 0 738 0 0" stroke-width="0" fill="#808080" />
    <path d="M 19155 4226 l -67 0 0 -738 67 0 0 738 0 0" stroke-width="0" fill="#B4B4B4" />
    <path d="M 19145 4226 l -47 0 0 -738 47 0 0 738 0 0" stroke-width="0" fill="#DEDEDE" />
    <path d="M 19129 4226 l -18 0 0 -738 18 0 0 738 0 0" stroke-width="0" fill="#FFFFFF" />
    <path d="M 19079 4226 l 0 -738" stroke="#000000" stroke-width="20" fill="none" />
    <path d="M 19164 4226 l 0 -738" stroke="#000000" stroke-width="20" fill="none" />
    <path d="M 18572 4779 l 548 -600 548 600 -1096 0 0 0" stroke-width="0" fill="#808080" />
    <path d="M 18623 4779 l 497 -600 497 600 -994 0 0 0" stroke-width="0" fill="#969696" />
    <path d="M 18744 4779 l 376 -600 378 600 -754 0 0 0" stroke-width="0" fill="#B4B4B4" />
    <path d="M 18847 4779 l 273 -600 275 600 -548 0 0 0" stroke-width="0" fill="#CCCCCC" />
    <path d="M 18932 4779 l 188 -600 188 600 -376 0 0 0" stroke-width="0" fill="#DEDEDE" />
    <path d="M 19053 4779 l 67 -600 67 600 -134 0 0 0" stroke-width="0" fill="#FFFFFF" />
    <path d="M 18572 4779 l 548 -600 548 600 -1096 0" stroke="#000000" stroke-width="20" fill="none" />
    <path d="M 19668 3579 l -548 600 548 600 0 -1200 0 0" stroke-width="0" fill="#808080" />
    <path d="M 19668 3635 l -548 544 548 544 0 -1088 0 0" stroke-width="0" fill="#969696" />
    <path d="M 19668 3765 l -548 414 548 413 0 -827 0 0" stroke-width="0" fill="#B4B4B4" />
    <path d="M 19668 3877 l -548 302 548 298 0 -600 0 0" stroke-width="0" fill="#CCCCCC" />
    <path d="M 19668 3973 l -548 206 548 207 0 -413 0 0" stroke-width="0" fill="#DEDEDE" />
    <path d="M 19668 4106 l -548 73 548 74 0 -147 0 0" stroke-width="0" fill="#FFFFFF" />
    <path d="M 19668 3579 l -548 600 548 600 0 -1200" stroke="#000000" stroke-width="20" fill="none" />
  </g>
  <g name="VerySmoothTank2">
    <path d="M 15687 6361 l 0 5398 73 95 222 86 351 48 387 23 387 -23 351 -48 222 -86 73 -95 0 -5398 -73 -95 -222 -79 -351 -55 -387 -15 -387 15 -351 55 -222 79 -73 95 0 0" stroke-width="0" fill="#666666" />
    <path d="M 15750 6345 l 0 5430 69 87 209 78 328 48 364 15 364 -15 331 -48 206 -78 72 -87 0 -5430 -69 -87 -209 -78 -331 -48 -364 -23 -364 23 -328 48 -209 78 -69 87 0 0" stroke-width="0" fill="#666666" />
    <path d="M 15813 6329 l 0 5462 63 79 195 70 308 48 341 15 341 -15 308 -48 195 -70 67 -79 0 -5462 -67 -79 -195 -78 -308 -47 -341 -16 -341 16 -308 47 -195 78 -63 79 0 0" stroke-width="0" fill="#787878" />
    <path d="M 15872 6313 l 0 5494 63 70 179 71 288 40 318 15 318 -15 288 -40 182 -71 60 -70 0 -5494 -60 -78 -182 -63 -288 -47 -318 -16 -318 16 -288 47 -179 63 -63 78 0 0" stroke-width="0" fill="#7A7A7A" />
    <path d="M 15935 6298 l 0 5524 57 71 168 55 265 47 295 8 295 -8 268 -47 165 -55 57 -71 0 -5524 -57 -71 -165 -63 -268 -39 -295 -16 -295 16 -265 39 -168 63 -57 71 0 0" stroke-width="0" fill="#858585" />
    <path d="M 15998 6282 l 0 5556 50 63 155 55 245 39 272 8 272 -8 245 -39 155 -55 53 -63 0 -5556 -53 -63 -155 -55 -245 -39 -272 -16 -272 16 -245 39 -152 55 -53 63 0 0" stroke-width="0" fill="#969696" />
    <path d="M 16061 6266 l 0 5580 46 63 140 47 225 39 248 8 248 -8 225 -39 143 -47 46 -63 0 -5580 -46 -55 -143 -55 -225 -31 -248 -16 -248 16 -225 31 -140 55 -46 55 0 0" stroke-width="0" fill="#969696" />
    <path d="M 16121 6250 l 0 5612 43 55 129 47 202 31 225 8 225 -8 205 -31 126 -47 43 -55 0 -5612 -39 -47 -130 -47 -205 -31 -225 -16 -225 16 -202 31 -129 47 -43 47 0 0" stroke-width="0" fill="#A3A3A3" />
    <path d="M 16184 6235 l 0 5642 36 48 116 47 182 23 202 8 202 -8 182 -23 116 -47 40 -48 0 -5642 -40 -48 -116 -39 -182 -23 -202 -16 -202 16 -182 23 -116 39 -36 48 0 0" stroke-width="0" fill="#A3A3A3" />
    <path d="M 16243 6219 l 0 5674 37 40 102 39 159 23 179 8 179 -8 162 -23 103 -39 33 -40 0 -5674 -33 -39 -103 -32 -162 -23 -179 -16 -179 16 -159 23 -102 32 -37 39 0 0" stroke-width="0" fill="#ADADAD" />
    <path d="M 16306 6203 l 0 5706 30 31 89 40 139 15 156 8 156 -8 139 -15 89 -40 30 -31 0 -5706 -30 -31 -89 -32 -139 -23 -156 -8 -156 8 -139 23 -89 32 -30 31 0 0" stroke-width="0" fill="#B4B4B4" />
    <path d="M 16369 6187 l 0 5738 27 31 72 24 120 15 132 8 132 -8 120 -15 76 -24 26 -31 0 -5738 -26 -23 -76 -24 -120 -23 -132 -8 -132 8 -120 23 -72 24 -27 23 0 0" stroke-width="0" fill="#C0C0C0" />
    <path d="M 16432 6180 l 0 5760 20 24 63 24 96 7 109 8 109 -8 100 -7 59 -24 23 -24 0 -5760 -23 -24 -59 -24 -100 -15 -109 -8 -109 8 -96 15 -63 24 -20 24 0 0" stroke-width="0" fill="#C2C2C2" />
    <path d="M 16492 6164 l 0 5792 16 16 50 16 79 15 83 0 86 0 76 -15 50 -16 16 -16 0 -5792 -16 -24 -50 -15 -76 -8 -86 -8 -83 8 -79 8 -50 15 -16 24 0 0" stroke-width="0" fill="#D2D2D2" />
    <path d="M 16554 6148 l 0 5824 14 8 36 15 56 8 60 0 63 0 56 -8 37 -15 10 -8 0 -5824 -10 -16 -37 -7 -56 -8 -63 -8 -60 8 -56 8 -36 7 -14 16 0 0" stroke-width="0" fill="#D2D2D2" />
    <path d="M 16617 6132 l 0 5856 7 0 23 7 37 8 36 0 40 0 36 -8 20 -7 10 0 0 -5856 -10 -7 -20 -8 -36 0 -40 -8 -36 8 -37 0 -23 8 -7 7 0 0" stroke-width="0" fill="#DEDEDE" />
    <path d="M 16677 6117 l 0 5886 3 0 10 0 13 0 17 8 17 -8 13 0 10 0 3 0 0 -5886 -3 0 -10 0 -13 0 -17 0 -17 0 -13 0 -10 0 -3 0 0 0" stroke-width="0" fill="#DEDEDE" />
    <path d="M 15687 6361 l 0 5398 73 95 222 86 351 48 387 23 387 -23 351 -48 222 -86 73 -95 0 -5398 -73 -95 -222 -79 -351 -55 -387 -15 -387 15 -351 55 -222 79 -73 95" stroke="#000000" stroke-width="20" fill="none" />
  </g>
  <g id="" PB:IsMultiState="False" PB:Lower="0" PB:Orientation="0" PB:CanonicalNumberFormat="General" PBD:PtTagName="\\\" PB:Start="0" PB:Upper="100" PB:Type="12">
    <rect x="16440" y="6240" width="720" height="5760" stroke-width="0" fill="#C0C0C0" id="_pbBarBoundingRectEl" />
    <rect x="16440" y="6240" width="720" height="5760" stroke-width="0" fill="#00D200" id="_pbBarTagRectEl" stroke="none" PBD:Property="" />
  </g>
  <path id="POLYGON63" d="M 17700 6920 l 1400 0" stroke="#FF0000" stroke-width="40" fill="none" />
  <path id="POLYGON64" d="M 19100 6880 l 0 -2080" stroke="#FF0000" stroke-width="40" fill="none" />
  <path id="POLYGON65" d="M 19660 4040 l 1300 0" stroke="#FF0000" stroke-width="40" fill="none" />
  <path id="POLYGON66" d="M 20900 4040 l 0 -1820" stroke="#FF0000" stroke-width="40" fill="none" />
  <g name="SoftwareAnalogPoint">
    <path d="M 42106 1882 l 371 612 -743 1224 -371 -612 743 -1224 0 0" stroke-width="0" fill="#FF0000" />
    <path d="M 42106 1882 l 371 612 -743 1224 -371 -612 743 -1224" stroke="#000000" stroke-width="20" fill="none" />
  </g>
  <g name="Valve3">
    <path d="M 24306 14453 l 0 -709 1937 709 0 -709 -1937 709" stroke="#000000" stroke-width="20" fill="#5A5A5A" />
    <path d="M 25265 14095 l 111 -36 0 -622 -213 0 0 622 112 36 -10 0" stroke="#000000" stroke-width="20" fill="#5A5A5A" />
    <rect x="24969" y="13103" width="582" height="478" stroke="#000000" stroke-width="20" fill="#5A5A5A" />
  </g>
  <path id="LINE66" d="M 24320 14120 l -1000 0" stroke="#00D200" stroke-width="40" fill="none" />
  <path id="LINE67" d="M 27260 14180 l -940 0" stroke="#00D200" stroke-width="40" fill="none" />
  <g name="a3DGateValve">
    <path d="M 28544 14400 l 0 -560 -1331 560 0 -560 1331 560 0 0" stroke-width="0" fill="#808080" />
    <path d="M 28544 14371 l 0 -502 -1331 502 0 -502 1331 502 0 0" stroke-width="0" fill="#969696" />
    <path d="M 28544 14313 l 0 -388 -1331 388 0 -388 1331 388 0 0" stroke-width="0" fill="#B4B4B4" />
    <path d="M 28544 14257 l 0 -274 -1331 274 0 -274 1331 274 0 0" stroke-width="0" fill="#CCCCCC" />
    <path d="M 28544 14212 l 0 -186 -1331 186 0 -186 1331 186 0 0" stroke-width="0" fill="#DEDEDE" />
    <path d="M 28544 14156 l 0 -72 -1331 72 0 -72 1331 72 0 0" stroke-width="0" fill="#FFFFFF" />
    <path d="M 28544 14400 l 0 -560 -1331 560 0 -560 1331 560" stroke="#000000" stroke-width="20" fill="none" />
  </g>
  <g name="a3DGateValve">
    <path d="M 23244 14340 l 0 -560 -1331 560 0 -560 1331 560 0 0" stroke-width="0" fill="#808080" />
    <path d="M 23244 14311 l 0 -502 -1331 502 0 -502 1331 502 0 0" stroke-width="0" fill="#969696" />
    <path d="M 23244 14253 l 0 -388 -1331 388 0 -388 1331 388 0 0" stroke-width="0" fill="#B4B4B4" />
    <path d="M 23244 14197 l 0 -274 -1331 274 0 -274 1331 274 0 0" stroke-width="0" fill="#CCCCCC" />
    <path d="M 23244 14152 l 0 -186 -1331 186 0 -186 1331 186 0 0" stroke-width="0" fill="#DEDEDE" />
    <path d="M 23244 14096 l 0 -72 -1331 72 0 -72 1331 72 0 0" stroke-width="0" fill="#FFFFFF" />
    <path d="M 23244 14340 l 0 -560 -1331 560 0 -560 1331 560" stroke="#000000" stroke-width="20" fill="none" />
  </g>
  <path id="POLYGON68" d="M 21960 14100 l -5240 0" stroke="#00D200" stroke-width="40" fill="none" />
  <path id="POLYGON69" d="M 20720 14100 l 0 -2760" stroke="#00D200" stroke-width="40" fill="none" />
  <path id="POLYGON70" d="M 20720 11340 l 2940 0" stroke="#00D200" stroke-width="40" fill="none" />
  <path id="POLYGON71" d="M 29800 11280 l 0 2900" stroke="#00D200" stroke-width="40" fill="none" />
  <g name="a3DGateValve">
    <path d="M 25064 11560 l 0 -560 -1331 560 0 -560 1331 560 0 0" stroke-width="0" fill="#808080" />
    <path d="M 25064 11531 l 0 -502 -1331 502 0 -502 1331 502 0 0" stroke-width="0" fill="#969696" />
    <path d="M 25064 11473 l 0 -388 -1331 388 0 -388 1331 388 0 0" stroke-width="0" fill="#B4B4B4" />
    <path d="M 25064 11417 l 0 -274 -1331 274 0 -274 1331 274 0 0" stroke-width="0" fill="#CCCCCC" />
    <path d="M 25064 11372 l 0 -186 -1331 186 0 -186 1331 186 0 0" stroke-width="0" fill="#DEDEDE" />
    <path d="M 25064 11316 l 0 -72 -1331 72 0 -72 1331 72 0 0" stroke-width="0" fill="#FFFFFF" />
    <path d="M 25064 11560 l 0 -560 -1331 560 0 -560 1331 560" stroke="#000000" stroke-width="20" fill="none" />
  </g>
  <path id="POLYGON72" d="M 25120 11280 l 4680 0" stroke="#00D200" stroke-width="40" fill="none" />
  <g name="Valve3">
    <path d="M 35674 14148 l 0 -883 1839 883 0 -883 -1839 883" stroke="#000000" stroke-width="20" fill="#5A5A5A" />
    <path d="M 36585 13702 l 105 -45 0 -773 -202 0 0 773 106 45 -9 0" stroke="#000000" stroke-width="20" fill="#5A5A5A" />
    <rect x="36304" y="12467" width="552" height="595" stroke="#000000" stroke-width="20" fill="#5A5A5A" />
  </g>
  <path id="POLYGON56" d="M 35700 13740 l -960 0" stroke="#00D200" stroke-width="40" fill="none" />
  <path id="LINE56" d="M 38480 13800 l -900 0" stroke="#00D200" stroke-width="40" fill="none" />
  <g name="a3DGateValve">
    <path d="M 39690 14089 l 0 -698 -1263 698 0 -698 1263 698 0 0" stroke-width="0" fill="#808080" />
    <path d="M 39690 14053 l 0 -626 -1263 626 0 -626 1263 626 0 0" stroke-width="0" fill="#969696" />
    <path d="M 39690 13980 l 0 -483 -1263 483 0 -483 1263 483 0 0" stroke-width="0" fill="#B4B4B4" />
    <path d="M 39690 13910 l 0 -340 -1263 340 0 -340 1263 340 0 0" stroke-width="0" fill="#CCCCCC" />
    <path d="M 39690 13854 l 0 -231 -1263 231 0 -231 1263 231 0 0" stroke-width="0" fill="#DEDEDE" />
    <path d="M 39690 13785 l 0 -90 -1263 90 0 -90 1263 90 0 0" stroke-width="0" fill="#FFFFFF" />
    <path d="M 39690 14089 l 0 -698 -1263 698 0 -698 1263 698" stroke="#000000" stroke-width="20" fill="none" />
  </g>
  <g name="a3DGateValve">
    <path d="M 34670 14029 l 0 -698 -1263 698 0 -698 1263 698 0 0" stroke-width="0" fill="#808080" />
    <path d="M 34670 13993 l 0 -626 -1263 626 0 -626 1263 626 0 0" stroke-width="0" fill="#969696" />
    <path d="M 34670 13920 l 0 -483 -1263 483 0 -483 1263 483 0 0" stroke-width="0" fill="#B4B4B4" />
    <path d="M 34670 13850 l 0 -340 -1263 340 0 -340 1263 340 0 0" stroke-width="0" fill="#CCCCCC" />
    <path d="M 34670 13794 l 0 -231 -1263 231 0 -231 1263 231 0 0" stroke-width="0" fill="#DEDEDE" />
    <path d="M 34670 13725 l 0 -90 -1263 90 0 -90 1263 90 0 0" stroke-width="0" fill="#FFFFFF" />
    <path d="M 34670 14029 l 0 -698 -1263 698 0 -698 1263 698" stroke="#000000" stroke-width="20" fill="none" />
  </g>
  <path id="POLYGON67" d="M 28660 14260 l 1760 0" stroke="#00D200" stroke-width="40" fill="none" />
  <path id="POLYGON73" d="M 16720 12020 l 0 2020" stroke="#00D200" stroke-width="40" fill="none" />
  <path id="POLYGON74" d="M 30420 14240 l 0 -7180" stroke="#00D200" stroke-width="40" fill="none" />
  <path id="POLYGON75" d="M 30420 7120 l 9020 0" stroke="#00D200" stroke-width="40" fill="none" />
  <path id="POLYGON76" d="M 39500 7120 l 0 1500" stroke="#00D200" stroke-width="40" fill="none" />
  <path id="POLYGON77" d="M 43800 8680 l 0 -1820" stroke="#00D200" stroke-width="40" stroke-dasharray="300,100" fill="none" />
  <path id="POLYGON78" d="M 43800 6720 l 12020 0" stroke="#00D200" stroke-width="40" stroke-dasharray="300,100" fill="none" />
  <g name="StraightArrow1">
    <path d="M 55346 6656 l 1226 -541 0 361 1922 0 0 368 -1922 0 0 361 -1226 -549 0 0" stroke-width="0" fill="#00D200" />
    <path d="M 55346 6656 l 1226 -541 0 361 1922 0 0 368 -1922 0 0 361 -1226 -549" stroke="#000000" stroke-width="20" fill="none" />
  </g>
  <g id="TEXT11">
    <rect x="51100" y="4380" width="9840" height="2080" stroke-width="0" fill="none" id="TEXT11_pbTextBoundingRectEl" />
    <text fill="#000000" font-family="Helvetica" font-size="800" text-anchor="middle" x="56020" y="5820" id="TEXT11_pbTextEl">中压疏水母管</text>
  </g>
  <path id="POLYGON79" d="M 41780 8620 l 0 -4960" stroke="#FF0000" stroke-width="40" fill="none" />
  <path id="POLYGON80" d="M 16840 6200 l 0 -3980" stroke="#00D200" stroke-width="40" fill="none" />
  <path id="POLYGON81" d="M 16760 2220 l -13300 0" stroke="#00D200" stroke-width="40" fill="none" />
  <g name="StraightArrow1">
    <path d="M 894 2136 l 1126 -541 0 361 1766 0 0 368 -1766 0 0 361 -1126 -549 0 0" stroke-width="0" fill="#00D200" />
    <path d="M 894 2136 l 1126 -541 0 361 1766 0 0 368 -1766 0 0 361 -1126 -549" stroke="#000000" stroke-width="20" fill="none" />
  </g>
  <path id="POLYGON82" d="M 15660 8880 l -8100 0" stroke="#00D200" stroke-width="40" fill="none" />
  <path id="LINE82" d="M 7440 9540 l 0 -1320" stroke="#00D200" stroke-width="40" fill="none" />
  <path id="POLYGON83" d="M 14360 8820 l 0 -4520" stroke="#00D200" stroke-width="40" stroke-dasharray="300,100" fill="none" />
  <path id="POLYGON84" d="M 14280 4360 l -10380 0" stroke="#00D200" stroke-width="40" stroke-dasharray="300,100" fill="none" />
  <path id="POLYGON85" d="M 11220 8820 l 0 -1960" stroke="#00D200" stroke-width="40" stroke-dasharray="300,100" fill="none" />
  <path id="POLYGON86" d="M 11100 6920 l -7460 0" stroke="#00D200" stroke-width="40" stroke-dasharray="300,100" fill="none" />
  <g name="StraightArrow1">
    <path d="M 966 4436 l 1226 -541 0 361 1922 0 0 368 -1922 0 0 361 -1226 -549 0 0" stroke-width="0" fill="#00D200" />
    <path d="M 966 4436 l 1226 -541 0 361 1922 0 0 368 -1922 0 0 361 -1226 -549" stroke="#000000" stroke-width="20" fill="none" />
  </g>
  <g name="StraightArrow1">
    <path d="M 1086 6856 l 1226 -541 0 361 1922 0 0 368 -1922 0 0 361 -1226 -549 0 0" stroke-width="0" fill="#00D200" />
    <path d="M 1086 6856 l 1226 -541 0 361 1922 0 0 368 -1922 0 0 361 -1226 -549" stroke="#000000" stroke-width="20" fill="none" />
  </g>
  <g id="TEXT12">
    <rect x="560" y="-80" width="9840" height="2080" stroke-width="0" fill="none" id="TEXT12_pbTextBoundingRectEl" />
    <text fill="#000000" font-family="Helvetica" font-size="800" text-anchor="middle" x="5480" y="1360" id="TEXT12_pbTextEl">至高压除氧器汽平衡</text>
  </g>
  <g id="TEXT13">
    <rect x="-40" y="2340" width="9840" height="2080" stroke-width="0" fill="none" id="TEXT13_pbTextBoundingRectEl" />
    <text fill="#000000" font-family="Helvetica" font-size="800" text-anchor="middle" x="4880" y="3780" id="TEXT13_pbTextEl">超高压疏水母管</text>
  </g>
  <g id="TEXT14">
    <rect x="-560" y="4640" width="9840" height="2080" stroke-width="0" fill="none" id="TEXT14_pbTextBoundingRectEl" />
    <text fill="#000000" font-family="Helvetica" font-size="800" text-anchor="middle" x="4360" y="6080" id="TEXT14_pbTextEl">高压疏水母管</text>
  </g>
  <path id="POLYGON87" d="M 15600 10320 l -11300 0" stroke="#00D200" stroke-width="40" fill="none" />
  <g name="StraightArrow1">
    <path d="M 1166 10236 l 1226 -541 0 361 1922 0 0 368 -1922 0 0 361 -1226 -549 0 0" stroke-width="0" fill="#00D200" />
    <path d="M 1166 10236 l 1226 -541 0 361 1922 0 0 368 -1922 0 0 361 -1226 -549" stroke="#000000" stroke-width="20" fill="none" />
  </g>
  <g id="TEXT15">
    <rect x="-680" y="7900" width="9840" height="2080" stroke-width="0" fill="none" id="TEXT15_pbTextBoundingRectEl" />
    <text fill="#000000" font-family="Helvetica" font-size="800" text-anchor="middle" x="4240" y="9340" id="TEXT15_pbTextEl">有压放水母管</text>
  </g>
  <g id="TEXT16">
    <rect x="-760" y="10520" width="9840" height="2080" stroke-width="0" fill="none" id="TEXT16_pbTextBoundingRectEl" />
    <text fill="#000000" font-family="Helvetica" font-size="800" text-anchor="middle" x="4160" y="11960" id="TEXT16_pbTextEl">去1#-4#锅炉</text>
  </g>
  <g id="TEXT17">
    <rect x="-420" y="14640" width="9840" height="2080" stroke-width="0" fill="none" id="TEXT17_pbTextBoundingRectEl" />
    <text fill="#000000" font-family="Helvetica" font-size="800" text-anchor="middle" x="4500" y="16080" id="TEXT17_pbTextEl">去1#-4#除氧器</text>
  </g>
  <g id="TEXT18">
    <rect x="2700" y="20660" width="9840" height="2080" stroke-width="0" fill="none" id="TEXT18_pbTextBoundingRectEl" />
    <text fill="#000000" font-family="Helvetica" font-size="800" text-anchor="middle" x="7620" y="22100" id="TEXT18_pbTextEl">1#疏水泵</text>
  </g>
  <g id="TEXT19">
    <rect x="10860" y="20520" width="9840" height="2080" stroke-width="0" fill="none" id="TEXT19_pbTextBoundingRectEl" />
    <text fill="#000000" font-family="Helvetica" font-size="800" text-anchor="middle" x="15780" y="21960" id="TEXT19_pbTextEl">2#疏水泵</text>
  </g>
  <g id="TEXT20">
    <rect x="52440" y="30780" width="9840" height="2080" stroke-width="0" fill="none" id="TEXT20_pbTextBoundingRectEl" />
    <text fill="#000000" font-family="Helvetica" font-size="800" text-anchor="middle" x="57360" y="32220" id="TEXT20_pbTextEl">排地沟</text>
  </g>
  <g id="TEXT21">
    <rect x="34280" y="10660" width="4480" height="2080" stroke-width="0" fill="none" id="TEXT21_pbTextBoundingRectEl" />
    <text fill="#000000" font-family="Helvetica" font-size="800" text-anchor="middle" x="36520" y="12100" id="TEXT21_pbTextEl">低扩调阀</text>
  </g>
  <g id="TEXT22">
    <rect x="22860" y="11500" width="4480" height="2080" stroke-width="0" fill="none" id="TEXT22_pbTextBoundingRectEl" />
    <text fill="#000000" font-family="Helvetica" font-size="800" text-anchor="middle" x="25100" y="12940" id="TEXT22_pbTextEl">高扩调阀</text>
  </g>
  <g id="TEXT23">
    <rect x="17980" y="7720" width="3900" height="2600" stroke-width="0" fill="none" id="TEXT23_pbTextBoundingRectEl" />
    <text fill="#000000" font-family="Helvetica" font-size="800" text-anchor="middle" x="19930" y="9020" id="TEXT23_pbTextEl">高压疏水<tspan x="19930" dy="800">扩容器</tspan></text>
  </g>
  <g id="TEXT24">
    <rect x="38240" y="8500" width="7100" height="2600" stroke-width="0" fill="none" id="TEXT24_pbTextBoundingRectEl" />
    <text fill="#000000" font-family="Helvetica" font-size="800" text-anchor="middle" x="41790" y="10200" id="TEXT24_pbTextEl">低压疏水扩容器</text>
  </g>
  <g name="DownArrow">
    <path d="M 59499 27498 l -718 0 359 1306 359 -1306 0 0" stroke="#000000" stroke-width="20" fill="#00D200" />
  </g>
  <g id="TEXT25">
    <rect x="23100" y="520" width="11020" height="2080" stroke-width="0" fill="none" id="TEXT25_pbTextBoundingRectEl" />
    <text fill="#000000" font-family="Helvetica" font-size="1280" text-anchor="middle" x="28610" y="2200" id="TEXT25_pbTextEl">疏水系统</text>
  </g>
</svg>