<?xml version="1.0" encoding="UTF-8"?>
<svg height="100%" width="100%" viewBox="0 0 60000 30000" version="1.1" xmlns="http://www.w3.org/2000/svg" xmlns:xlink="http://www.w3.org/1999/xlink" xmlns:PB="urn:osisoft-com-pb" xmlns:PBI="urn:osisoft-com-interface" xmlns:PBD="urn:osisoft-com-data" style="background-color:#C0C0C0">
  <title>Graphic25</title>
  <defs>
    <PBD:TagUses tag="\\RTDBB\590_PDT_AM001A">
      <PBI:Symbol name="DATAPOINT295" PB:Type="7" />
    </PBD:TagUses>
    <PBD:TagUses tag="\\RTDBB\590_TI1003A">
      <PBI:Symbol name="DATAPOINT296" PB:Type="7" />
    </PBD:TagUses>
    <PBD:TagUses tag="\\RTDBB\590_EI1001A">
      <PBI:Symbol name="DATAPOINT297" PB:Type="7" />
    </PBD:TagUses>
    <PBD:TagUses tag="\\RTDBB\590_TI1001A">
      <PBI:Symbol name="DATAPOINT298" PB:Type="7" />
    </PBD:TagUses>
    <PBD:TagUses tag="\\RTDBB\590_TI1002A">
      <PBI:Symbol name="DATAPOINT299" PB:Type="7" />
    </PBD:TagUses>
    <PBD:TagUses tag="\\RTDBB\590_IGV1001A">
      <PBI:Symbol name="DATAPOINT300" PB:Type="7" />
    </PBD:TagUses>
    <PBD:TagUses tag="\\RTDBB\590_VI1001A">
      <PBI:Symbol name="DATAPOINT301" PB:Type="7" />
    </PBD:TagUses>
    <PBD:TagUses tag="\\RTDBB\590_PI1001A">
      <PBI:Symbol name="DATAPOINT302" PB:Type="7" />
    </PBD:TagUses>
    <PBD:TagUses tag="\\RTDBB\590_TI1004A">
      <PBI:Symbol name="DATAPOINT303" PB:Type="7" />
    </PBD:TagUses>
    <PBD:TagUses tag="\\RTDBB\590_PI1002A">
      <PBI:Symbol name="DATAPOINT304" PB:Type="7" />
    </PBD:TagUses>
    <PBD:TagUses tag="\\RTDBB\590_VI1002A">
      <PBI:Symbol name="DATAPOINT305" PB:Type="7" />
    </PBD:TagUses>
    <PBD:TagUses tag="\\RTDBB\590_TI1005A">
      <PBI:Symbol name="DATAPOINT306" PB:Type="7" />
    </PBD:TagUses>
    <PBD:TagUses tag="\\RTDBB\590_TI1007A">
      <PBI:Symbol name="DATAPOINT307" PB:Type="7" />
    </PBD:TagUses>
    <PBD:TagUses tag="\\RTDBB\590_PI1005A">
      <PBI:Symbol name="DATAPOINT308" PB:Type="7" />
    </PBD:TagUses>
    <PBD:TagUses tag="\\RTDBB\590_PI1003A">
      <PBI:Symbol name="DATAPOINT309" PB:Type="7" />
    </PBD:TagUses>
    <PBD:TagUses tag="\\RTDBB\590_TI1006A">
      <PBI:Symbol name="DATAPOINT310" PB:Type="7" />
    </PBD:TagUses>
    <PBD:TagUses tag="\\RTDBB\590_PV1002A">
      <PBI:Symbol name="DATAPOINT311" PB:Type="7" />
    </PBD:TagUses>
    <PBD:TagUses tag="\\RTDBB\590_PI1004A">
      <PBI:Symbol name="DATAPOINT312" PB:Type="7" />
    </PBD:TagUses>
  </defs>
  <rect x="15640" y="24440" width="7320" height="4760" stroke="#000000" stroke-width="40" fill="none" id="RECTANGLE131" />
  <rect x="45320" y="18480" width="3100" height="4260" stroke="#000000" stroke-width="40" fill="none" id="RECTANGLE111" />
  <rect x="9260" y="9860" width="26200" height="4140" stroke="#000000" stroke-width="40" stroke-dasharray="60,60" fill="none" id="RECTANGLE119" />
  <rect x="4360" y="11760" width="31100" height="340" stroke="#000000" stroke-width="60" fill="#FFFFFF" id="RECTANGLE120" />
  <rect x="4220" y="4720" width="1280" height="1420" stroke="#000000" stroke-width="20" fill="none" />
  <path d="M 4220 6120 l 520 600" stroke="#000000" stroke-width="20" fill="none" />
  <path d="M 5500 6120 l -520 600" stroke="#000000" stroke-width="20" fill="none" />
  <path d="M 4680 6700 l 360 0" stroke="#000000" stroke-width="20" fill="none" />
  <path d="M 4260 5100 l 240 0" stroke="#000000" stroke-width="20" fill="none" />
  <path d="M 4500 5880 l 240 0" stroke="#000000" stroke-width="20" fill="none" />
  <path d="M 4740 5100 l 240 0" stroke="#000000" stroke-width="20" fill="none" />
  <path d="M 4980 5880 l 240 0" stroke="#000000" stroke-width="20" fill="none" />
  <path d="M 5220 5100 l 240 0" stroke="#000000" stroke-width="20" fill="none" />
  <path d="M 4500 5100 l 0 780" stroke="#000000" stroke-width="20" fill="none" />
  <path d="M 4740 5100 l 0 780" stroke="#000000" stroke-width="20" fill="none" />
  <path d="M 4980 5100 l 0 780" stroke="#000000" stroke-width="20" fill="none" />
  <path d="M 5220 5100 l 0 780" stroke="#000000" stroke-width="20" fill="none" />
  <path d="M 17720 28640 l 6 0 7 0 6 0 7 0 7 0 6 -1 7 0 6 -1 7 0 6 -1 7 -1 7 -1 6 -1 6 -1 7 -1 6 -1 7 -1 6 -1 6 -2 6 -1 7 -1 6 -2 6 -2 6 -1 6 -2 6 -2 6 -2 6 -2 6 -2 6 -2 5 -2 6 -2 5 -2 6 -3 5 -2 6 -2 5 -3 5 -2 6 -3 5 -3 5 -2 5 -3 5 -3 4 -3 5 -3 5 -3 4 -3 5 -3 4 -3 5 -3 4 -3 4 -4 4 -3 4 -3 4 -4 4 -3 3 -4 4 -3 3 -4 4 -4 3 -3 3 -4 3 -4 3 -3 3 -4 3 -4 2 -4 3 -4 2 -3 3 -4 2 -4 2 -4 2 -4 2 -4 2 -4 1 -4 2 -5 1 -4 2 -4 1 -4 1 -4 1 -4 1 -4 0 -4 1 -5 1 -4 0 -4 0 -4 0 -4 1 -5 -1 -4 0 -4 0 -4 0 -4 -1 -4 -1 -5 0 -4 -1 -4 -1 -4 -1 -4 -1 -4 -2 -4 -1 -4 -2 -5 -1 -4 -2 -4 -2 -4 -2 -4 -2 -4 -2 -4 -3 -4 -2 -3 -3 -4 -2 -4 -3 -4 -3 -4 -3 -3 -3 -4 -3 -4 -3 -4 -4 -3 -3 -4 -4 -3 -3 -4 -4 -3 -4 -4 -4 -3 -4 -3 -4 -4 -4 -3 -5 -3 -4 -3 -5 -3 -4 -3 -5 -3 -5 -3 -4 -3 -5 -3 -5 -3 -5 -2 -5 -3 -6 -3 -5 -2 -5 -3 -6 -2 -5 -2 -6 -3 -5 -2 -6 -2 -5 -2 -6 -2 -6 -2 -6 -2 -6 -2 -6 -2 -6 -2 -6 -1 -6 -2 -6 -2 -7 -1 -6 -1 -6 -2 -6 -1 -7 -1 -6 -1 -7 -1 -6 -1 -6 -1 -7 -1 -7 -1 -6 -1 -7 0 -6 -1 -7 0 -6 -1 -7 0 -7 0 -6 0 -7 0 -6 -1 -7 1" stroke="#000000" stroke-width="20" fill="none" />
  <path d="M 17720 28160 l -2520 0" stroke="#000000" stroke-width="20" fill="none" />
  <path d="M 17720 28660 l -2520 0" stroke="#000000" stroke-width="20" fill="none" />
  <path d="M 15200 28160 l 0 500" stroke="#000000" stroke-width="20" fill="none" />
  <path d="M 16540 28260 l 720 300" stroke="#000000" stroke-width="20" fill="none" />
  <path d="M 17140 28260 l 740 300" stroke="#000000" stroke-width="20" fill="none" />
  <path d="M 17120 28260 l 140 300" stroke="#000000" stroke-width="20" fill="none" />
  <path d="M 17760 28440 l 100 120" stroke="#000000" stroke-width="20" fill="none" />
  <path d="M 17700 28560 l 140 0" stroke="#000000" stroke-width="20" fill="none" />
  <g name="Valve4">
    <path d="M 46457 22495 l 0 442 895 -442 0 442 -895 -442" stroke="#000000" stroke-width="20" fill="#000000" />
  </g>
  <g name="DownArrow">
    <path d="M 47143 23245 l -486 0 243 -462 243 462 0 0" stroke="#000000" stroke-width="20" fill="#000000" />
  </g>
  <g name="Valve4">
    <path d="M 46437 18685 l 0 -442 895 442 0 -442 -895 442" stroke="#000000" stroke-width="20" fill="#000000" />
  </g>
  <g name="DownArrow">
    <path d="M 47123 17935 l -486 0 243 462 243 -462 0 0" stroke="#000000" stroke-width="20" fill="#000000" />
  </g>
  <g name="Valve1">
    <path d="M 44458 24551 l -354 0 0 0 2 -31 7 -31 6 -30 11 -31 16 -26 17 -26 22 -25 24 -21 24 -20 28 -18 29 -15 30 -15 33 -11 33 -7 35 -4 37 -2 0 0 37 2 35 4 33 7 32 11 31 15 31 15 26 18 26 20 24 21 17 25 20 26 13 26 16 31 6 30 7 31 2 31 -356 0" stroke="#000000" stroke-width="20" fill="#000000" />
    <path d="M 44028 25114 l 0 -392 867 392 0 -392 -867 392" stroke="#000000" stroke-width="20" fill="#000000" />
    <path d="M 44458 24917 l 50 -22 0 -342 -96 0 0 342 50 22 -4 0" stroke="#000000" stroke-width="20" fill="#000000" />
  </g>
  <g name="DownArrow">
    <path d="M 44613 25305 l -346 0 173 -362 173 362 0 0" stroke="#000000" stroke-width="20" fill="#000000" />
  </g>
  <path id="LINE458" d="M 44500 24880 l 780 -760" stroke="#000000" stroke-width="20" fill="none" />
  <path id="LINE459" d="M 45260 24140 l 0 -340" stroke="#000000" stroke-width="20" fill="none" />
  <path id="LINE460" d="M 44460 24220 l 0 -420" stroke="#000000" stroke-width="20" fill="none" />
  <path id="LINE477" d="M 45260 23800 l -800 0" stroke="#000000" stroke-width="20" fill="none" />
  <path id="ELLIPSE54" d="M 21726 28700 l -42 -13 -26 -14 -21 -13 -17 -13 -15 -14 -12 -13 -10 -13 -10 -14 -8 -13 -7 -13 -6 -14 -5 -13 -4 -13 -3 -14 -3 -13 -2 -13 -1 -14 0 -13 0 0 0 -13 1 -14 2 -13 3 -13 3 -14 4 -13 5 -13 6 -14 7 -13 8 -13 10 -14 10 -13 12 -13 15 -14 17 -13 21 -13 26 -14 42 -13 108 0 42 13 26 14 21 13 17 13 15 14 12 13 10 13 10 14 8 13 7 13 6 14 5 13 4 13 3 14 3 13 2 13 1 14 0 13 0 0 0 13 -1 14 -2 13 -3 13 -3 14 -4 13 -5 13 -6 14 -7 13 -8 13 -10 14 -10 13 -12 13 -15 14 -17 13 -21 13 -26 14 -42 13 -108 0" stroke="#000000" stroke-width="20" fill="none" />
  <path d="M 1160 3580 l 1060 0" stroke="#80FFFF" stroke-width="40" fill="#FF8000" />
  <path d="M 1160 3780 l 1060 0" stroke="#80FFFF" stroke-width="40" fill="#FF8000" />
  <path d="M 2220 3460 l 0 120" stroke="#80FFFF" stroke-width="40" fill="#FF8000" />
  <path d="M 2220 3780 l 0 180" stroke="#80FFFF" stroke-width="40" fill="#FF8000" />
  <path d="M 1160 3580 l 0 200" stroke="#80FFFF" stroke-width="40" fill="#FF8000" />
  <path d="M 2260 3460 l 480 200" stroke="#80FFFF" stroke-width="40" fill="#FF8000" />
  <path d="M 2260 3960 l 480 -300" stroke="#80FFFF" stroke-width="40" fill="#FF8000" />
  <g id="TEXT90">
    <rect x="18380" y="28140" width="3400" height="560" stroke-width="0" fill="none" id="TEXT90_pbTextBoundingRectEl" />
    <text fill="#000000" font-family="Helvetica" font-size="352" text-anchor="middle" x="20080" y="28596" id="TEXT90_pbTextEl">低油位开关</text>
  </g>
  <rect x="5660" y="4720" width="3000" height="400" stroke="#0000FF" stroke-width="20" fill="none" />
  <rect x="5660" y="5120" width="3000" height="400" stroke="#0000FF" stroke-width="20" fill="none" />
  <g>
    <rect x="5460" y="4660" width="3400" height="560" stroke-width="0" fill="none" />
    <text fill="#000000" font-family="Helvetica" font-size="352" text-anchor="middle" x="7160" y="5116">590-PDT001A</text>
  </g>
  <path id="POLYGON585" d="M 2800 3640 l 29680 0" stroke="#80FFFF" stroke-width="20" fill="none" />
  <path d="M 1160 5100 l 1060 0" stroke="#80FFFF" stroke-width="40" fill="#FF8000" />
  <path d="M 1160 5300 l 1060 0" stroke="#80FFFF" stroke-width="40" fill="#FF8000" />
  <path d="M 2220 4980 l 0 120" stroke="#80FFFF" stroke-width="40" fill="#FF8000" />
  <path d="M 2220 5300 l 0 180" stroke="#80FFFF" stroke-width="40" fill="#FF8000" />
  <path d="M 1160 5100 l 0 200" stroke="#80FFFF" stroke-width="40" fill="#FF8000" />
  <path d="M 2260 4980 l 480 200" stroke="#80FFFF" stroke-width="40" fill="#FF8000" />
  <path d="M 2260 5480 l 480 -300" stroke="#80FFFF" stroke-width="40" fill="#FF8000" />
  <path id="POLYGON592" d="M 2760 5200 l 1340 0" stroke="#80FFFF" stroke-width="40" fill="none" />
  <path id="POLYGON593" d="M 5540 5720 l 5440 0" stroke="#80FFFF" stroke-width="40" fill="none" />
  <path id="POLYGON594" d="M 10980 5720 l 0 4740" stroke="#80FFFF" stroke-width="40" fill="none" />
  <path id="LINE594" d="M 13200 11080 l 0 -2140" stroke="#000000" stroke-width="80" fill="none" />
  <path id="ELLIPSE55" d="M 13144 8960 l -44 -13 -28 -14 -22 -13 -17 -13 -16 -14 -13 -13 -11 -13 -10 -14 -9 -13 -8 -13 -7 -14 -5 -13 -5 -13 -5 -14 -3 -13 -3 -13 -2 -14 -1 -13 -1 -13 0 -14 1 -13 1 -13 2 -14 3 -13 3 -13 5 -14 5 -13 5 -13 7 -14 8 -13 9 -13 10 -14 11 -13 13 -13 16 -14 17 -13 22 -13 28 -14 44 -13 112 0 44 13 28 14 22 13 17 13 16 14 13 13 11 13 10 14 9 13 8 13 7 14 5 13 5 13 5 14 3 13 3 13 2 14 1 13 1 13 0 14 -1 13 -1 13 -2 14 -3 13 -3 13 -5 14 -5 13 -5 13 -7 14 -8 13 -9 13 -10 14 -11 13 -13 13 -16 14 -17 13 -22 13 -28 14 -44 13 -112 0" stroke="#000000" stroke-width="40" fill="none" />
  <path id="LINE595" d="M 13080 10100 l 200 -240" stroke="#000000" stroke-width="40" fill="none" />
  <path id="LINE596" d="M 13080 10300 l 200 -240" stroke="#000000" stroke-width="40" fill="none" />
  <path id="LINE600" d="M 13080 10520 l 200 -220" stroke="#000000" stroke-width="40" fill="none" />
  <rect x="13000" y="6740" width="3000" height="400" stroke="#0000FF" stroke-width="20" fill="none" id="RECTANGLE117" />
  <rect x="13000" y="7140" width="3000" height="400" stroke="#0000FF" stroke-width="20" fill="none" id="RECTANGLE118" />
  <g id="TEXT91">
    <rect x="12800" y="6680" width="3400" height="560" stroke-width="0" fill="none" id="TEXT91_pbTextBoundingRectEl" />
    <text fill="#000000" font-family="Helvetica" font-size="352" text-anchor="middle" x="14500" y="7136" id="TEXT91_pbTextEl">590-IGC1001A</text>
  </g>
  <path d="M 6076 12880 l -181 -40 -100 -40 -76 -40 -62 -40 -52 -40 -46 -40 -40 -40 -35 -40 -31 -40 -29 -40 -25 -40 -22 -40 -19 -40 -18 -40 -15 -40 -13 -40 -11 -40 -9 -40 -7 -40 -5 -40 -4 -40 -2 -40 0 -40 2 -40 4 -40 5 -40 7 -40 9 -40 11 -40 13 -40 15 -40 18 -40 19 -40 22 -40 25 -40 29 -40 31 -40 35 -40 40 -40 46 -40 52 -40 62 -40 76 -40 100 -40 181 -40 208 0 181 40 100 40 76 40 62 40 52 40 46 40 40 40 35 40 31 40 29 40 25 40 22 40 19 40 18 40 15 40 13 40 11 40 9 40 7 40 5 40 4 40 2 40 0 40 -2 40 -4 40 -5 40 -7 40 -9 40 -11 40 -13 40 -15 40 -18 40 -19 40 -22 40 -25 40 -29 40 -31 40 -35 40 -40 40 -46 40 -52 40 -62 40 -76 40 -100 40 -181 40 -208 0" stroke="#000000" stroke-width="20" fill="#00FF00" />
  <g>
    <rect x="5680" y="11580" width="1000" height="820" stroke-width="0" fill="none" />
    <text fill="#000000" font-family="Helvetica" font-size="800" text-anchor="middle" x="6180" y="12390">M</text>
  </g>
  <path id="POLYGON604" d="M 20560 10460 l 3580 840 0 1280 -3580 840 0 -3000 0 40" stroke="#000000" stroke-width="20" fill="#808080" />
  <path id="POLYGON603" d="M 30740 10460 l 3580 840 0 1280 -3580 840 0 -3000 0 40" stroke="#000000" stroke-width="20" fill="#808080" />
  <path id="POLYGON477" d="M 10400 10460 l 3580 840 0 1280 -3580 840 0 -3000 0 40" stroke="#000000" stroke-width="20" fill="#808080" />
  <rect x="15320" y="10180" width="3000" height="400" stroke="#0000FF" stroke-width="20" fill="none" id="RECTANGLE121" />
  <rect x="15320" y="10580" width="3000" height="400" stroke="#0000FF" stroke-width="20" fill="none" id="RECTANGLE122" />
  <g id="TEXT92">
    <rect x="15120" y="10120" width="3400" height="560" stroke-width="0" fill="none" id="TEXT92_pbTextBoundingRectEl" />
    <text fill="#000000" font-family="Helvetica" font-size="352" text-anchor="middle" x="16820" y="10576" id="TEXT92_pbTextEl">590-VI1001A</text>
  </g>
  <rect x="26080" y="10220" width="3000" height="400" stroke="#0000FF" stroke-width="20" fill="none" id="RECTANGLE123" />
  <rect x="26080" y="10620" width="3000" height="400" stroke="#0000FF" stroke-width="20" fill="none" id="RECTANGLE124" />
  <g id="TEXT93">
    <rect x="25880" y="10160" width="3400" height="560" stroke-width="0" fill="none" id="TEXT93_pbTextBoundingRectEl" />
    <text fill="#000000" font-family="Helvetica" font-size="352" text-anchor="middle" x="27580" y="10616" id="TEXT93_pbTextEl">590-VI1002A</text>
  </g>
  <path id="POLYGON610" d="M 13680 9680 l 0 -880" stroke="#000000" stroke-width="40" fill="none" />
  <path id="POLYGON611" d="M 13680 8800 l 33180 0" stroke="#000000" stroke-width="40" fill="none" />
  <path id="POLYGON612" d="M 46860 8800 l 0 9140" stroke="#000000" stroke-width="40" fill="none" />
  <rect x="38880" y="11000" width="3000" height="400" stroke="#0000FF" stroke-width="20" fill="none" id="RECTANGLE125" />
  <rect x="38880" y="11400" width="3000" height="400" stroke="#0000FF" stroke-width="20" fill="none" id="RECTANGLE126" />
  <g id="TEXT94">
    <rect x="38680" y="10900" width="3400" height="560" stroke-width="0" fill="none" id="TEXT94_pbTextBoundingRectEl" />
    <text fill="#000000" font-family="Helvetica" font-size="352" text-anchor="middle" x="40380" y="11356" id="TEXT94_pbTextEl">590-TI1007A</text>
  </g>
  <rect x="38880" y="13840" width="3000" height="400" stroke="#0000FF" stroke-width="20" fill="none" id="RECTANGLE127" />
  <rect x="38880" y="14240" width="3000" height="400" stroke="#0000FF" stroke-width="20" fill="none" id="RECTANGLE128" />
  <g id="TEXT95">
    <rect x="38680" y="13760" width="3400" height="560" stroke-width="0" fill="none" id="TEXT95_pbTextBoundingRectEl" />
    <text fill="#000000" font-family="Helvetica" font-size="352" text-anchor="middle" x="40380" y="14216" id="TEXT95_pbTextEl">590-PI1005A</text>
  </g>
  <rect x="48100" y="20060" width="540" height="1120" stroke="#000000" stroke-width="20" fill="#C0C0C0" />
  <path d="M 48380 20060 l -280 1120" stroke="#000000" stroke-width="20" stroke-dasharray="60,60" fill="none" />
  <path d="M 48360 20040 l 280 1120" stroke="#000000" stroke-width="20" stroke-dasharray="60,60" fill="none" />
  <rect x="45000" y="20060" width="540" height="1120" stroke="#000000" stroke-width="20" fill="#C0C0C0" />
  <path d="M 45300 20060 l -280 1120" stroke="#000000" stroke-width="20" stroke-dasharray="60,60" fill="none" />
  <path d="M 45280 20040 l 280 1120" stroke="#000000" stroke-width="20" stroke-dasharray="60,60" fill="none" />
  <path id="POLYGON619" d="M 46920 23300 l 0 1660" stroke="#000000" stroke-width="40" fill="none" />
  <path id="POLYGON620" d="M 46880 24960 l -19480 0" stroke="#000000" stroke-width="40" fill="none" />
  <path d="M 41622 25780 l -170 -40 -94 -40 -71 -40 -57 -40 -48 -40 -42 -40 -36 -40 -31 -40 -28 -40 -25 -40 -21 -40 -19 -40 -16 -40 -13 -40 -12 -40 -9 -40 -7 -40 -5 -40 -3 -40 -1 -40 0 0 1 -40 3 -40 5 -40 7 -40 9 -40 12 -40 13 -40 16 -40 19 -40 21 -40 25 -40 28 -40 31 -40 36 -40 42 -40 48 -40 57 -40 71 -40 94 -40 170 -40 196 0 170 40 94 40 71 40 57 40 48 40 42 40 36 40 31 40 28 40 25 40 21 40 19 40 16 40 13 40 12 40 9 40 7 40 5 40 3 40 1 40 0 0 -1 40 -3 40 -5 40 -7 40 -9 40 -12 40 -13 40 -16 40 -19 40 -21 40 -25 40 -28 40 -31 40 -36 40 -42 40 -48 40 -57 40 -71 40 -94 40 -170 40 -196 0" stroke="#000000" stroke-width="20" fill="#C0C0C0" />
  <path d="M 41340 25340 l 380 -980" stroke="#000000" stroke-width="20" fill="none" />
  <path d="M 41720 24360 l 380 980" stroke="#000000" stroke-width="20" fill="none" />
  <path d="M 41340 25340 l 0 -1640" stroke="#000000" stroke-width="20" fill="none" />
  <path d="M 42100 25340 l 0 -1640" stroke="#000000" stroke-width="20" fill="none" />
  <path id="POLYGON621" d="M 44440 25220 l 0 1580" stroke="#000000" stroke-width="40" fill="none" />
  <path id="POLYGON622" d="M 44440 26800 l -5280 0" stroke="#000000" stroke-width="40" fill="none" />
  <path id="POLYGON623" d="M 39160 26700 l 0 -1820" stroke="#000000" stroke-width="40" fill="none" />
  <path id="POLYGON625" d="M 27460 24920 l 0 1780" stroke="#000000" stroke-width="40" fill="none" />
  <path d="M 26940 27720 l 300 -520 440 0 300 520 -1040 0 0 0" stroke="#000000" stroke-width="20" fill="#808080" />
  <path d="M 28040 26996 l -20 79 -20 50 -20 38 -20 32 -20 27 -20 24 -20 22 -20 19 -20 18 -20 16 -20 15 -20 13 -20 12 -20 11 -20 11 -20 9 -20 8 -20 8 -20 7 -20 6 -20 6 -20 4 -20 4 -20 4 -20 3 -20 2 -20 1 -20 1 -20 0 0 0 -20 0 -20 -1 -20 -1 -20 -2 -20 -3 -20 -4 -20 -4 -20 -4 -20 -6 -20 -6 -20 -7 -20 -8 -20 -8 -20 -9 -20 -11 -20 -11 -20 -12 -20 -13 -20 -15 -20 -16 -20 -18 -20 -19 -20 -22 -20 -24 -20 -27 -20 -32 -20 -38 -20 -50 -20 -79 0 -151 20 -79 20 -50 20 -38 20 -32 20 -27 20 -24 20 -22 20 -19 20 -18 20 -16 20 -15 20 -13 20 -12 20 -11 20 -11 20 -9 20 -8 20 -8 20 -7 20 -6 20 -6 20 -4 20 -4 20 -4 20 -3 20 -2 20 -1 20 -1 20 -1 0 0 20 1 20 1 20 1 20 2 20 3 20 4 20 4 20 4 20 6 20 6 20 7 20 8 20 8 20 9 20 11 20 11 20 12 20 13 20 15 20 16 20 18 20 19 20 22 20 24 20 27 20 32 20 38 20 50 20 79 0 151" stroke="#000000" stroke-width="20" fill="#C0C0C0" />
  <path id="POLYGON627" d="M 26840 26920 l -1300 0" stroke="#000000" stroke-width="40" fill="none" />
  <path id="POLYGON628" d="M 25540 26920 l 0 1780" stroke="#000000" stroke-width="40" fill="none" />
  <path id="LINE628" d="M 31300 24980 l 0 1780" stroke="#000000" stroke-width="40" fill="none" />
  <path d="M 30800 27780 l 280 -520 440 0 300 520 -1040 0 20 0" stroke="#000000" stroke-width="20" fill="#808080" />
  <path d="M 31880 27056 l -20 79 -20 50 -20 38 -20 32 -20 27 -20 24 -20 22 -20 19 -20 18 -20 16 -20 15 -20 13 -20 12 -20 11 -20 11 -20 9 -20 8 -20 8 -20 7 -20 6 -20 6 -20 4 -20 4 -20 4 -20 3 -20 2 -20 1 -20 1 -20 0 0 0 -20 0 -20 -1 -20 -1 -20 -2 -20 -3 -20 -4 -20 -4 -20 -4 -20 -6 -20 -6 -20 -7 -20 -8 -20 -8 -20 -9 -20 -11 -20 -11 -20 -12 -20 -13 -20 -15 -20 -16 -20 -18 -20 -19 -20 -22 -20 -24 -20 -27 -20 -32 -20 -38 -20 -50 -20 -79 0 -151 20 -79 20 -50 20 -38 20 -32 20 -27 20 -24 20 -22 20 -19 20 -18 20 -16 20 -15 20 -13 20 -12 20 -11 20 -11 20 -9 20 -8 20 -8 20 -7 20 -6 20 -6 20 -4 20 -4 20 -4 20 -3 20 -2 20 -1 20 -1 20 -1 0 0 20 1 20 1 20 1 20 2 20 3 20 4 20 4 20 4 20 6 20 6 20 7 20 8 20 8 20 9 20 11 20 11 20 12 20 13 20 15 20 16 20 18 20 19 20 22 20 24 20 27 20 32 20 38 20 50 20 79 0 151" stroke="#000000" stroke-width="20" fill="#C0C0C0" />
  <path id="LINE629" d="M 30680 26980 l -1300 0" stroke="#000000" stroke-width="40" fill="none" />
  <path id="LINE630" d="M 29380 26980 l 0 1780" stroke="#000000" stroke-width="40" fill="none" />
  <path id="POLYGON630" d="M 29280 28760 l -6280 0" stroke="#000000" stroke-width="40" fill="none" />
  <path id="ELLIPSE58" d="M 9926 3340 l -42 -13 -26 -14 -21 -13 -17 -13 -15 -14 -12 -13 -10 -13 -10 -14 -8 -13 -7 -13 -6 -14 -5 -13 -4 -13 -3 -14 -3 -13 -2 -13 -1 -14 0 -13 0 0 0 -13 1 -14 2 -13 3 -13 3 -14 4 -13 5 -13 6 -14 7 -13 8 -13 10 -14 10 -13 12 -13 15 -14 17 -13 21 -13 26 -14 42 -13 108 0 42 13 26 14 21 13 17 13 15 14 12 13 10 13 10 14 8 13 7 13 6 14 5 13 4 13 3 14 3 13 2 13 1 14 0 13 0 0 0 13 -1 14 -2 13 -3 13 -3 14 -4 13 -5 13 -6 14 -7 13 -8 13 -10 14 -10 13 -12 13 -15 14 -17 13 -21 13 -26 14 -42 13 -108 0" stroke="#000000" stroke-width="20" fill="none" />
  <g id="TEXT97">
    <rect x="10520" y="2740" width="3400" height="560" stroke-width="0" fill="none" id="TEXT97_pbTextBoundingRectEl" />
    <text fill="#000000" font-family="Helvetica" font-size="352" text-anchor="middle" x="12220" y="3196" id="TEXT97_pbTextEl">密封气压力开关</text>
  </g>
  <path id="ELLIPSE59" d="M 13426 26900 l -42 -13 -26 -14 -21 -13 -17 -13 -15 -14 -12 -13 -10 -13 -10 -14 -8 -13 -7 -13 -6 -14 -5 -13 -4 -13 -3 -14 -3 -13 -2 -13 -1 -14 0 -13 0 0 0 -13 1 -14 2 -13 3 -13 3 -14 4 -13 5 -13 6 -14 7 -13 8 -13 10 -14 10 -13 12 -13 15 -14 17 -13 21 -13 26 -14 42 -13 108 0 42 13 26 14 21 13 17 13 15 14 12 13 10 13 10 14 8 13 7 13 6 14 5 13 4 13 3 14 3 13 2 13 1 14 0 13 0 0 0 13 -1 14 -2 13 -3 13 -3 14 -4 13 -5 13 -6 14 -7 13 -8 13 -10 14 -10 13 -12 13 -15 14 -17 13 -21 13 -26 14 -42 13 -108 0" stroke="#000000" stroke-width="20" fill="none" />
  <g id="TEXT99">
    <rect x="10060" y="26340" width="3400" height="560" stroke-width="0" fill="none" id="TEXT99_pbTextBoundingRectEl" />
    <text fill="#000000" font-family="Helvetica" font-size="352" text-anchor="middle" x="11760" y="26796" id="TEXT99_pbTextEl">1#空压机报警</text>
  </g>
  <path id="POLYGON631" d="M 42120 23780 l 0 -3840" stroke="#009600" stroke-width="40" fill="none" />
  <path id="POLYGON632" d="M 42120 19940 l -38120 0" stroke="#009600" stroke-width="40" fill="none" />
  <path id="POLYGON633" d="M 41340 23780 l 0 -5280" stroke="#009600" stroke-width="40" fill="none" />
  <path id="POLYGON637" d="M 41340 18500 l -37340 0" stroke="#009600" stroke-width="40" fill="none" />
  <path d="M 2420 18380 l 1060 0" stroke="#009600" stroke-width="40" fill="#FF8000" />
  <path d="M 2420 18580 l 1060 0" stroke="#009600" stroke-width="40" fill="#FF8000" />
  <path d="M 3480 18240 l 0 140" stroke="#009600" stroke-width="40" fill="#FF8000" />
  <path d="M 3480 18580 l 0 160" stroke="#009600" stroke-width="40" fill="#FF8000" />
  <path d="M 2420 18380 l 0 200" stroke="#009600" stroke-width="40" fill="#FF8000" />
  <path d="M 3520 18240 l 480 200" stroke="#009600" stroke-width="40" fill="#FF8000" />
  <path d="M 3520 18740 l 480 -300" stroke="#009600" stroke-width="40" fill="#FF8000" />
  <path d="M 4000 19820 l -1060 0" stroke="#009600" stroke-width="40" fill="#FF8000" />
  <path d="M 4000 20020 l -1060 0" stroke="#009600" stroke-width="40" fill="#FF8000" />
  <path d="M 2940 19680 l 0 140" stroke="#009600" stroke-width="40" fill="#FF8000" />
  <path d="M 2940 20020 l 0 160" stroke="#009600" stroke-width="40" fill="#FF8000" />
  <path d="M 4000 19820 l 0 200" stroke="#009600" stroke-width="40" fill="#FF8000" />
  <path d="M 2900 19680 l -480 200" stroke="#009600" stroke-width="40" fill="#FF8000" />
  <path d="M 2900 20180 l -480 -300" stroke="#009600" stroke-width="40" fill="#FF8000" />
  <path id="POLYGON664" d="M 7760 18420 l 0 -1280" stroke="#009600" stroke-width="40" fill="none" />
  <path id="POLYGON665" d="M 7760 17180 l -3760 0" stroke="#009600" stroke-width="40" fill="none" />
  <path d="M 2420 17060 l 1060 0" stroke="#009600" stroke-width="40" fill="#FF8000" />
  <path d="M 2420 17260 l 1060 0" stroke="#009600" stroke-width="40" fill="#FF8000" />
  <path d="M 3480 16940 l 0 120" stroke="#009600" stroke-width="40" fill="#FF8000" />
  <path d="M 3480 17260 l 0 180" stroke="#009600" stroke-width="40" fill="#FF8000" />
  <path d="M 2420 17060 l 0 200" stroke="#009600" stroke-width="40" fill="#FF8000" />
  <path d="M 3520 16940 l 480 200" stroke="#009600" stroke-width="40" fill="#FF8000" />
  <path d="M 3520 17440 l 480 -300" stroke="#009600" stroke-width="40" fill="#FF8000" />
  <path id="POLYGON671" d="M 12600 3700 l 0 5920" stroke="#80FFFF" stroke-width="20" fill="none" />
  <path id="POLYGON672" d="M 22460 3720 l 0 6040" stroke="#80FFFF" stroke-width="20" fill="none" />
  <path id="LINE672" d="M 32480 3640 l 0 6040" stroke="#80FFFF" stroke-width="20" fill="none" />
  <path id="POLYGON673" d="M 23120 8820 l 0 780" stroke="#000000" stroke-width="40" fill="none" />
  <path id="POLYGON674" d="M 33160 8900 l 0 840" stroke="#000000" stroke-width="40" fill="none" />
  <path id="POLYGON679" d="M 13800 16360 l 6920 0" stroke="#80FFFF" stroke-width="40" fill="none" />
  <path d="M 16922 17000 l -170 -40 -94 -40 -71 -40 -57 -40 -48 -40 -42 -40 -36 -40 -31 -40 -28 -40 -25 -40 -21 -40 -19 -40 -16 -40 -13 -40 -12 -40 -9 -40 -7 -40 -5 -40 -3 -40 -1 -40 0 0 1 -40 3 -40 5 -40 7 -40 9 -40 12 -40 13 -40 16 -40 19 -40 21 -40 25 -40 28 -40 31 -40 36 -40 42 -40 48 -40 57 -40 71 -40 94 -40 170 -40 196 0 170 40 94 40 71 40 57 40 48 40 42 40 36 40 31 40 28 40 25 40 21 40 19 40 16 40 13 40 12 40 9 40 7 40 5 40 3 40 1 40 0 0 -1 40 -3 40 -5 40 -7 40 -9 40 -12 40 -13 40 -16 40 -19 40 -21 40 -25 40 -28 40 -31 40 -36 40 -42 40 -48 40 -57 40 -71 40 -94 40 -170 40 -196 0" stroke="#000000" stroke-width="20" fill="#C0C0C0" />
  <path d="M 16640 15840 l 380 980" stroke="#000000" stroke-width="20" fill="none" />
  <path d="M 17020 16820 l 380 -980" stroke="#000000" stroke-width="20" fill="none" />
  <path d="M 16640 15840 l 0 1640" stroke="#000000" stroke-width="20" fill="none" />
  <path d="M 17400 15840 l 0 1640" stroke="#000000" stroke-width="20" fill="none" />
  <path id="POLYGON677" d="M 16640 17040 l 0 1380" stroke="#009600" stroke-width="40" fill="none" />
  <path id="LINE678" d="M 17400 17040 l 0 2840" stroke="#009600" stroke-width="40" fill="none" />
  <path id="POLYGON678" d="M 13800 12620 l 0 3740" stroke="#80FFFF" stroke-width="40" fill="none" />
  <path id="POLYGON680" d="M 20720 13440 l 0 2920" stroke="#80FFFF" stroke-width="40" fill="none" />
  <rect x="13040" y="17340" width="3000" height="400" stroke="#0000FF" stroke-width="20" fill="none" id="RECTANGLE132" />
  <rect x="13040" y="17740" width="3000" height="400" stroke="#0000FF" stroke-width="20" fill="none" id="RECTANGLE133" />
  <g id="TEXT100">
    <rect x="12840" y="17280" width="3400" height="560" stroke-width="0" fill="none" id="TEXT100_pbTextBoundingRectEl" />
    <text fill="#000000" font-family="Helvetica" font-size="352" text-anchor="middle" x="14540" y="17736" id="TEXT100_pbTextEl">590-PI1001A</text>
  </g>
  <rect x="18420" y="17340" width="3000" height="400" stroke="#0000FF" stroke-width="20" fill="none" id="RECTANGLE134" />
  <rect x="18420" y="17740" width="3000" height="400" stroke="#0000FF" stroke-width="20" fill="none" id="RECTANGLE135" />
  <g id="TEXT101">
    <rect x="18220" y="17280" width="3400" height="560" stroke-width="0" fill="none" id="TEXT101_pbTextBoundingRectEl" />
    <text fill="#000000" font-family="Helvetica" font-size="352" text-anchor="middle" x="19920" y="17736" id="TEXT101_pbTextEl">590-TI1004A</text>
  </g>
  <path id="LINE684" d="M 23940 16360 l 6920 0" stroke="#80FFFF" stroke-width="40" fill="none" />
  <path d="M 27062 17000 l -170 -40 -94 -40 -71 -40 -57 -40 -48 -40 -42 -40 -36 -40 -31 -40 -28 -40 -25 -40 -21 -40 -19 -40 -16 -40 -13 -40 -12 -40 -9 -40 -7 -40 -5 -40 -3 -40 -1 -40 0 0 1 -40 3 -40 5 -40 7 -40 9 -40 12 -40 13 -40 16 -40 19 -40 21 -40 25 -40 28 -40 31 -40 36 -40 42 -40 48 -40 57 -40 71 -40 94 -40 170 -40 196 0 170 40 94 40 71 40 57 40 48 40 42 40 36 40 31 40 28 40 25 40 21 40 19 40 16 40 13 40 12 40 9 40 7 40 5 40 3 40 1 40 0 0 -1 40 -3 40 -5 40 -7 40 -9 40 -12 40 -13 40 -16 40 -19 40 -21 40 -25 40 -28 40 -31 40 -36 40 -42 40 -48 40 -57 40 -71 40 -94 40 -170 40 -196 0" stroke="#000000" stroke-width="20" fill="#C0C0C0" />
  <path d="M 26780 15840 l 380 980" stroke="#000000" stroke-width="20" fill="none" />
  <path d="M 27160 16820 l 380 -980" stroke="#000000" stroke-width="20" fill="none" />
  <path d="M 26780 15840 l 0 1640" stroke="#000000" stroke-width="20" fill="none" />
  <path d="M 27540 15840 l 0 1640" stroke="#000000" stroke-width="20" fill="none" />
  <path id="LINE689" d="M 26780 17040 l 0 1380" stroke="#009600" stroke-width="40" fill="none" />
  <path id="LINE690" d="M 27540 17040 l 0 2840" stroke="#009600" stroke-width="40" fill="none" />
  <path id="LINE691" d="M 23940 12620 l 0 3740" stroke="#80FFFF" stroke-width="40" fill="none" />
  <path id="LINE692" d="M 30860 13440 l 0 2920" stroke="#80FFFF" stroke-width="40" fill="none" />
  <rect x="23180" y="17340" width="3000" height="400" stroke="#0000FF" stroke-width="20" fill="none" id="RECTANGLE136" />
  <rect x="23180" y="17740" width="3000" height="400" stroke="#0000FF" stroke-width="20" fill="none" id="RECTANGLE137" />
  <g id="TEXT102">
    <rect x="22980" y="17280" width="3400" height="560" stroke-width="0" fill="none" id="TEXT102_pbTextBoundingRectEl" />
    <text fill="#000000" font-family="Helvetica" font-size="352" text-anchor="middle" x="24680" y="17736" id="TEXT102_pbTextEl">590-PI1002A</text>
  </g>
  <rect x="28560" y="17340" width="3000" height="400" stroke="#0000FF" stroke-width="20" fill="none" id="RECTANGLE138" />
  <rect x="28560" y="17740" width="3000" height="400" stroke="#0000FF" stroke-width="20" fill="none" id="RECTANGLE139" />
  <g id="TEXT103">
    <rect x="28360" y="17280" width="3400" height="560" stroke-width="0" fill="none" id="TEXT103_pbTextBoundingRectEl" />
    <text fill="#000000" font-family="Helvetica" font-size="352" text-anchor="middle" x="30060" y="17736" id="TEXT103_pbTextEl">590-TI1005A</text>
  </g>
  <path id="LINE695" d="M 34260 16360 l 21740 0" stroke="#80FFFF" stroke-width="40" fill="none" />
  <path d="M 37382 17000 l -170 -40 -94 -40 -71 -40 -57 -40 -48 -40 -42 -40 -36 -40 -31 -40 -28 -40 -25 -40 -21 -40 -19 -40 -16 -40 -13 -40 -12 -40 -9 -40 -7 -40 -5 -40 -3 -40 -1 -40 0 0 1 -40 3 -40 5 -40 7 -40 9 -40 12 -40 13 -40 16 -40 19 -40 21 -40 25 -40 28 -40 31 -40 36 -40 42 -40 48 -40 57 -40 71 -40 94 -40 170 -40 196 0 170 40 94 40 71 40 57 40 48 40 42 40 36 40 31 40 28 40 25 40 21 40 19 40 16 40 13 40 12 40 9 40 7 40 5 40 3 40 1 40 0 0 -1 40 -3 40 -5 40 -7 40 -9 40 -12 40 -13 40 -16 40 -19 40 -21 40 -25 40 -28 40 -31 40 -36 40 -42 40 -48 40 -57 40 -71 40 -94 40 -170 40 -196 0" stroke="#000000" stroke-width="20" fill="#C0C0C0" />
  <path d="M 37100 15840 l 380 980" stroke="#000000" stroke-width="20" fill="none" />
  <path d="M 37480 16820 l 380 -980" stroke="#000000" stroke-width="20" fill="none" />
  <path d="M 37100 15840 l 0 1640" stroke="#000000" stroke-width="20" fill="none" />
  <path d="M 37860 15840 l 0 1640" stroke="#000000" stroke-width="20" fill="none" />
  <path id="LINE700" d="M 37100 17040 l 0 1380" stroke="#009600" stroke-width="40" fill="none" />
  <path id="LINE701" d="M 37860 17040 l 0 2840" stroke="#009600" stroke-width="40" fill="none" />
  <path id="LINE702" d="M 34260 12620 l 0 3740" stroke="#80FFFF" stroke-width="40" fill="none" />
  <rect x="33500" y="17340" width="3000" height="400" stroke="#0000FF" stroke-width="20" fill="none" id="RECTANGLE140" />
  <rect x="33500" y="17740" width="3000" height="400" stroke="#0000FF" stroke-width="20" fill="none" id="RECTANGLE141" />
  <g id="TEXT104">
    <rect x="33300" y="17280" width="3400" height="560" stroke-width="0" fill="none" id="TEXT104_pbTextBoundingRectEl" />
    <text fill="#000000" font-family="Helvetica" font-size="352" text-anchor="middle" x="35000" y="17736" id="TEXT104_pbTextEl">590-PI1003A</text>
  </g>
  <rect x="38880" y="17340" width="3000" height="400" stroke="#0000FF" stroke-width="20" fill="none" id="RECTANGLE142" />
  <rect x="38880" y="17740" width="3000" height="400" stroke="#0000FF" stroke-width="20" fill="none" id="RECTANGLE143" />
  <g id="TEXT105">
    <rect x="38680" y="17280" width="3400" height="560" stroke-width="0" fill="none" id="TEXT105_pbTextBoundingRectEl" />
    <text fill="#000000" font-family="Helvetica" font-size="352" text-anchor="middle" x="40380" y="17736" id="TEXT105_pbTextEl">590-TI1006A</text>
  </g>
  <path d="M 56020 16200 l 1060 0" stroke="#80FFFF" stroke-width="40" fill="#FF8000" />
  <path d="M 56020 16400 l 1060 0" stroke="#80FFFF" stroke-width="40" fill="#FF8000" />
  <path d="M 57080 16080 l 0 120" stroke="#80FFFF" stroke-width="40" fill="#FF8000" />
  <path d="M 57080 16400 l 0 180" stroke="#80FFFF" stroke-width="40" fill="#FF8000" />
  <path d="M 56020 16200 l 0 200" stroke="#80FFFF" stroke-width="40" fill="#FF8000" />
  <path d="M 57120 16080 l 480 200" stroke="#80FFFF" stroke-width="40" fill="#FF8000" />
  <path d="M 57120 16580 l 480 -300" stroke="#80FFFF" stroke-width="40" fill="#FF8000" />
  <g name="Vessel3">
    <path d="M 21952 22131 l -6 -24 -6 -9 -6 -7 -6 -5 -6 -5 -6 -5 -6 -2 -6 -5 -6 -2 -6 -5 -6 -3 -6 -2 -5 -2 -7 -3 -5 -2 -6 -2 -7 -2 -5 -3 -7 0 -5 -3 -6 -2 -6 0 -6 -2 -6 -2 -6 0 -6 -3 -6 0 -6 -2 -6 0 -6 -2 -6 0 -6 0 -6 -2 -6 0 -5 0 -7 -2 -5 0 -6 0 -6 0 -6 -3 -6 0 -6 0 -6 0 -6 0 -6 0 -6 0 -6 0 -6 0 -6 0 -12 0 -5 0 -7 0 -5 0 -6 0 -7 0 -5 0 -6 0 -6 0 -6 0 -6 3 -6 0 -6 0 -6 0 -6 2 -6 0 -6 0 -6 2 -6 0 -6 0 -6 2 -5 0 -7 2 -5 0 -6 3 -6 0 -6 2 -6 2 -6 0 -6 2 -6 3 -6 0 -6 3 -6 2 -6 2 -6 2 -6 3 -6 2 -5 2 -7 3 -5 5 -6 2 -6 5 -6 2 -6 5 -6 5 -6 5 -6 7 -6 9 -5 24 5 20 6 10 6 7 6 5 6 5 6 5 6 2 6 5 6 2 5 4 7 4 5 2 6 2 6 2 6 3 6 2 6 2 6 3 6 0 6 2 6 3 6 0 6 2 6 2 6 0 6 3 5 0 7 2 5 0 6 2 6 0 6 0 6 2 6 0 6 0 6 2 6 0 6 0 6 0 6 3 6 0 6 0 6 0 5 0 7 0 6 0 5 0 7 0 5 0 12 0 6 0 6 0 6 0 6 0 6 0 6 0 6 0 6 0 6 0 6 -3 6 0 6 0 5 0 7 -2 5 0 6 0 6 -2 6 0 6 0 6 -2 6 0 6 -2 6 0 6 -3 6 0 6 -2 6 -2 6 0 6 -3 5 -2 7 0 5 -3 7 -2 6 -2 5 -3 7 -2 5 -2 6 -2 6 -4 6 -4 6 -2 6 -5 6 -2 6 -5 6 -5 6 -5 6 -7 6 -10 6 -20 0 0" stroke="#000000" stroke-width="20" fill="#000000" />
    <path d="M 21922 22131 l -5 -24 -6 -9 -5 -8 -5 -4 -6 -5 -5 -5 -6 -2 -5 -5 -5 -2 -6 -5 -5 -3 -5 -2 -6 -2 -5 -3 -5 -2 -6 -2 -5 -3 -5 -2 -6 0 -5 -3 -5 -2 -6 0 -5 -3 -6 -2 -5 0 -5 -2 -6 0 -5 -2 -5 0 -6 -3 -5 0 -5 0 -5 -2 -6 0 -5 0 -6 -2 -5 0 -6 0 -5 0 -5 -2 -6 0 -5 0 -5 0 -6 0 -5 0 -5 0 -5 0 -6 0 -5 0 -11 0 -5 0 -6 0 -5 0 -6 0 -5 0 -5 0 -6 0 -5 0 -5 0 -5 2 -6 0 -5 0 -5 0 -6 2 -5 0 -6 0 -6 2 -5 0 -5 0 -6 3 -5 0 -5 2 -6 0 -4 2 -6 0 -5 2 -5 3 -6 0 -5 2 -6 3 -5 0 -5 2 -6 3 -6 2 -5 2 -5 3 -5 2 -6 2 -5 3 -6 5 -5 2 -5 5 -6 2 -5 5 -6 5 -5 4 -5 8 -6 9 -4 24 4 20 6 10 5 7 5 5 6 5 5 4 6 3 5 4 5 2 6 5 5 3 6 2 5 3 5 2 5 2 6 2 6 3 5 2 5 0 6 2 5 3 6 0 5 3 5 2 6 0 4 2 6 0 5 2 5 0 6 3 5 0 5 0 6 2 6 0 5 0 6 2 5 0 5 0 6 0 5 3 5 0 5 0 6 0 5 0 5 0 6 0 5 0 6 0 5 0 11 0 5 0 6 0 5 0 5 0 5 0 6 0 5 0 5 0 6 0 5 -3 5 0 6 0 5 0 6 -2 5 0 6 0 5 -2 5 0 5 0 6 -3 5 0 5 -2 6 0 5 -2 5 0 6 -2 5 -3 6 0 5 -3 5 -2 6 0 5 -2 5 -3 6 -2 5 -2 5 -2 6 -3 5 -2 5 -3 6 -5 5 -2 5 -4 6 -3 5 -4 6 -5 5 -5 5 -7 6 -10 5 -20 0 0" stroke="#3C3C3C" stroke-width="20" fill="#3C3C3C" />
    <path d="M 21893 22131 l -5 -24 -5 -9 -5 -7 -4 -5 -5 -5 -5 -5 -5 -2 -4 -5 -5 -2 -5 -5 -5 -3 -4 -2 -5 -2 -5 -3 -5 -2 -4 -2 -5 -2 -5 -3 -5 0 -4 -3 -5 -2 -5 0 -5 -2 -4 -2 -5 0 -5 -3 -4 0 -5 -2 -5 0 -5 -2 -4 0 -5 0 -5 -2 -5 0 -5 0 -5 -2 -4 0 -5 0 -5 0 -5 -3 -4 0 -5 0 -5 0 -5 0 -4 0 -5 0 -5 0 -5 0 -4 0 -10 0 -5 0 -5 0 -4 0 -5 0 -5 0 -5 0 -5 0 -5 0 -4 0 -5 3 -5 0 -5 0 -4 0 -5 2 -5 0 -5 0 -4 2 -5 0 -5 0 -5 2 -4 0 -5 2 -5 0 -5 3 -4 0 -5 2 -5 2 -5 0 -4 2 -5 3 -5 0 -5 3 -4 2 -5 2 -5 2 -4 3 -6 2 -4 2 -5 3 -5 5 -5 2 -4 5 -5 2 -5 5 -5 5 -4 5 -5 7 -5 9 -5 24 5 20 5 10 5 7 4 5 5 5 5 5 5 2 4 5 5 2 5 4 5 4 4 2 6 2 4 2 5 3 5 2 4 2 5 3 5 0 5 2 4 3 5 0 5 2 5 2 4 0 5 3 5 0 5 2 4 0 5 2 5 0 5 0 4 2 5 0 5 0 5 2 4 0 5 0 5 0 5 3 4 0 5 0 5 0 5 0 5 0 5 0 4 0 5 0 5 0 10 0 4 0 5 0 5 0 5 0 4 0 5 0 5 0 5 0 4 0 5 -3 5 0 5 0 4 0 5 -2 5 0 5 0 5 -2 5 0 4 0 5 -2 5 0 5 -2 4 0 5 -3 5 0 4 -2 5 -2 5 0 5 -3 4 -2 5 0 5 -3 5 -2 4 -2 5 -3 5 -2 5 -2 4 -2 5 -4 5 -4 5 -2 4 -5 5 -2 5 -5 5 -5 4 -5 5 -7 5 -10 5 -20 0 0" stroke="#5A5A5A" stroke-width="20" fill="#5A5A5A" />
    <path d="M 21861 22131 l -4 -24 -4 -9 -4 -7 -4 -5 -5 -5 -4 -5 -4 -2 -4 -5 -4 -2 -4 -5 -4 -3 -5 -2 -4 -2 -4 -3 -4 -2 -4 -2 -4 -2 -5 -3 -4 0 -4 -3 -4 -2 -4 0 -5 -2 -4 -2 -4 0 -4 -3 -4 0 -4 -2 -4 0 -4 -2 -5 0 -4 0 -4 -2 -4 0 -4 0 -5 -2 -4 0 -4 0 -4 0 -4 -3 -4 0 -5 0 -4 0 -4 0 -4 0 -4 0 -4 0 -4 0 -5 0 -7 0 -5 0 -4 0 -4 0 -4 0 -4 0 -4 0 -5 0 -4 0 -4 0 -4 3 -4 0 -5 0 -3 0 -5 2 -4 0 -4 0 -4 2 -4 0 -4 0 -5 2 -4 0 -4 2 -4 0 -4 3 -5 0 -4 2 -4 2 -4 0 -4 2 -4 3 -4 0 -5 3 -4 2 -4 2 -4 2 -4 3 -4 2 -5 2 -4 3 -4 5 -4 2 -4 5 -5 2 -4 5 -4 5 -4 5 -4 7 -4 9 -4 24 4 20 4 10 4 7 4 5 4 5 4 5 5 2 4 5 4 2 4 4 4 4 5 2 4 2 4 2 4 3 4 2 4 2 5 3 4 0 4 2 4 3 4 0 4 2 4 2 5 0 4 3 4 0 4 2 4 0 5 2 4 0 4 0 4 2 4 0 4 0 5 2 3 0 5 0 4 0 4 3 4 0 4 0 5 0 4 0 4 0 4 0 4 0 4 0 5 0 7 0 5 0 4 0 4 0 4 0 4 0 4 0 4 0 5 0 4 0 4 -3 4 0 4 0 4 0 5 -2 4 0 4 0 4 -2 4 0 5 0 4 -2 4 0 4 -2 4 0 4 -3 4 0 4 -2 5 -2 4 0 4 -3 4 -2 4 0 5 -3 4 -2 4 -2 4 -3 4 -2 4 -2 5 -2 4 -4 4 -4 4 -2 4 -5 4 -2 4 -5 5 -5 4 -5 4 -7 4 -10 4 -20 0 0" stroke="#808080" stroke-width="20" fill="#808080" />
    <path d="M 21832 22131 l -4 -24 -4 -9 -3 -7 -4 -5 -3 -5 -4 -5 -3 -2 -4 -5 -3 -2 -4 -5 -4 -3 -3 -2 -4 -2 -3 -3 -4 -2 -4 -2 -2 -2 -4 -3 -3 0 -4 -3 -4 -2 -3 0 -4 -2 -4 -2 -3 0 -4 -3 -3 0 -4 -2 -4 0 -3 -2 -4 0 -3 0 -4 -2 -3 0 -4 0 -3 -2 -4 0 -3 0 -4 0 -3 -3 -4 0 -4 0 -3 0 -4 0 -3 0 -4 0 -4 0 -3 0 -4 0 -7 0 -4 0 -3 0 -4 0 -3 0 -4 0 -3 0 -4 0 -3 0 -4 0 -3 3 -4 0 -3 0 -4 0 -4 2 -3 0 -4 0 -3 2 -4 0 -4 0 -3 2 -4 0 -4 2 -3 0 -4 3 -3 0 -4 2 -3 2 -4 0 -3 2 -4 3 -3 0 -4 3 -3 2 -4 2 -4 2 -3 3 -4 2 -3 2 -4 3 -4 5 -3 2 -4 5 -3 2 -4 5 -4 5 -3 5 -4 7 -3 9 -3 24 3 20 3 10 4 7 3 5 4 5 4 5 3 2 4 5 3 2 4 4 4 4 3 2 4 2 3 2 4 3 4 2 3 2 4 3 3 0 4 2 3 3 4 0 3 2 4 2 3 0 4 3 3 0 4 2 4 0 3 2 4 0 4 0 3 2 4 0 3 0 4 2 4 0 3 0 4 0 3 3 4 0 3 0 4 0 3 0 4 0 3 0 4 0 3 0 4 0 7 0 4 0 3 0 4 0 4 0 3 0 4 0 3 0 4 0 4 0 3 -3 4 0 3 0 4 0 3 -2 4 0 3 0 4 -2 3 0 4 0 3 -2 4 0 4 -2 3 0 4 -3 3 0 4 -2 4 -2 3 0 4 -3 4 -2 3 0 4 -3 2 -2 4 -2 4 -3 3 -2 4 -2 3 -2 4 -4 4 -4 3 -2 4 -5 3 -2 4 -5 3 -5 4 -5 3 -7 4 -10 4 -20 0 0" stroke="#969696" stroke-width="20" fill="#969696" />
    <path d="M 21803 22131 l -3 -24 -3 -9 -3 -7 -3 -5 -3 -5 -3 -5 -3 -2 -3 -5 -3 -2 -3 -5 -3 -3 -3 -2 -2 -2 -4 -3 -3 -2 -3 -2 -2 -2 -4 -3 -3 0 -2 -3 -3 -2 -4 0 -2 -2 -3 -2 -4 0 -2 -3 -3 0 -3 -2 -3 0 -3 -2 -3 0 -3 0 -3 -2 -3 0 -3 0 -3 -2 -3 0 -3 0 -3 0 -3 -3 -3 0 -3 0 -3 0 -3 0 -3 0 -3 0 -3 0 -3 0 -3 0 -6 0 -3 0 -3 0 -2 0 -4 0 -3 0 -2 0 -3 0 -4 0 -2 0 -3 3 -4 0 -2 0 -3 0 -3 2 -3 0 -3 0 -3 2 -3 0 -3 0 -3 2 -3 0 -3 2 -3 0 -3 3 -3 0 -3 2 -3 2 -3 0 -3 2 -3 3 -3 0 -3 3 -3 2 -3 2 -3 2 -3 3 -3 2 -3 2 -3 3 -2 5 -4 2 -3 5 -2 2 -3 5 -4 5 -2 5 -3 7 -4 9 -2 24 2 20 4 10 3 7 2 5 4 5 3 5 2 2 3 5 4 2 2 4 3 4 3 2 3 2 3 2 3 3 3 2 3 2 3 3 3 0 3 2 3 3 3 0 3 2 3 2 3 0 3 3 3 0 3 2 3 0 3 2 3 0 3 0 3 2 3 0 3 0 3 2 3 0 2 0 4 0 3 3 2 0 4 0 3 0 2 0 3 0 4 0 2 0 3 0 3 0 6 0 3 0 3 0 3 0 3 0 3 0 3 0 3 0 3 0 3 0 3 -3 3 0 3 0 3 0 3 -2 3 0 3 0 3 -2 3 0 3 0 3 -2 3 0 3 -2 3 0 2 -3 4 0 3 -2 2 -2 4 0 3 -3 2 -2 3 0 4 -3 2 -2 3 -2 3 -3 4 -2 2 -2 3 -2 3 -4 3 -4 3 -2 3 -5 3 -2 3 -5 3 -5 3 -5 3 -7 3 -10 3 -20 0 0" stroke="#C0C0C0" stroke-width="20" fill="#C0C0C0" />
    <path d="M 21774 22131 l -3 -24 -3 -9 -2 -7 -2 -5 -3 -5 -2 -5 -3 -2 -2 -5 -2 -2 -3 -5 -2 -3 -2 -2 -3 -2 -2 -3 -3 -2 -2 -2 -2 -2 -3 -3 -2 0 -2 -3 -3 -2 -2 0 -3 -2 -2 -2 -2 0 -3 -3 -2 0 -2 -2 -3 0 -2 -2 -2 0 -3 0 -2 -2 -3 0 -2 0 -2 -2 -3 0 -2 0 -2 0 -3 -3 -2 0 -3 0 -2 0 -2 0 -3 0 -2 0 -2 0 -3 0 -2 0 -5 0 -2 0 -3 0 -2 0 -2 0 -3 0 -2 0 -2 0 -3 0 -2 0 -3 3 -2 0 -3 0 -2 0 -3 2 -2 0 -2 0 -3 2 -3 0 -2 0 -2 2 -3 0 -2 2 -2 0 -2 3 -3 0 -2 2 -2 2 -3 0 -2 2 -3 3 -2 0 -2 3 -3 2 -2 2 -3 2 -2 3 -3 2 -2 2 -2 3 -3 5 -2 2 -2 5 -3 2 -2 5 -3 5 -2 5 -2 7 -3 9 -2 24 2 20 3 10 2 7 2 5 3 5 2 5 3 2 2 5 2 2 3 4 2 4 2 2 3 2 2 2 3 3 2 2 3 2 2 3 2 0 3 2 2 3 3 0 2 2 2 2 3 0 2 3 2 0 2 2 3 0 2 2 2 0 3 0 3 2 2 0 2 0 3 2 2 0 3 0 2 0 3 3 2 0 3 0 2 0 2 0 3 0 2 0 2 0 3 0 2 0 5 0 2 0 3 0 2 0 2 0 3 0 2 0 2 0 3 0 2 0 3 -3 2 0 2 0 3 0 2 -2 2 0 3 0 2 -2 3 0 2 0 2 -2 3 0 2 -2 2 0 3 -3 2 0 2 -2 3 -2 2 0 3 -3 2 -2 2 0 3 -3 2 -2 2 -2 3 -3 2 -2 3 -2 2 -2 2 -4 3 -4 2 -2 2 -5 3 -2 2 -5 3 -5 2 -5 2 -7 3 -10 3 -20 0 0" stroke="#D2D2D2" stroke-width="20" fill="#D2D2D2" />
    <path d="M 21745 22131 l -3 -24 -1 -9 -2 -7 -2 -5 -2 -5 -2 -5 -1 -2 -2 -5 -2 -2 -2 -5 -1 -3 -2 -2 -2 -2 -2 -3 -1 -2 -2 -2 -2 -2 -3 -3 -2 0 -1 -3 -2 -2 -2 0 -2 -2 -2 -2 0 0 -2 -3 -2 0 -2 -2 -2 0 -1 -2 -2 0 -2 0 -2 -2 -2 0 -2 0 -2 -2 -1 0 -2 0 -2 0 -2 -3 -1 0 -2 0 -2 0 -2 0 -2 0 -1 0 -2 0 -2 0 -2 0 -3 0 -2 0 -2 0 -2 0 -2 0 -1 0 -2 0 -2 0 -2 0 -2 0 -1 3 -2 0 -2 0 -2 0 -2 2 -1 0 -2 0 -2 2 -2 0 -2 0 -2 2 -1 0 -2 2 -2 0 -1 3 -2 0 -2 2 -2 2 -1 0 -2 2 -2 3 -2 0 -1 3 -3 2 -2 2 -1 2 -2 3 -2 2 -2 2 -2 3 -2 5 -1 2 -2 5 -2 2 -2 5 -2 5 -1 5 -2 7 -2 9 -1 24 1 20 2 10 2 7 1 5 2 5 2 5 2 2 2 5 1 2 2 4 2 4 2 2 2 2 2 2 1 3 2 2 3 2 1 3 2 0 2 2 2 3 1 0 2 2 2 2 2 0 1 3 2 0 2 2 1 0 2 2 2 0 2 0 2 2 2 0 1 0 2 2 2 0 2 0 2 0 1 3 2 0 2 0 2 0 2 0 1 0 2 0 2 0 2 0 2 0 3 0 2 0 2 0 2 0 1 0 2 0 2 0 2 0 2 0 1 0 2 -3 2 0 2 0 1 0 2 -2 2 0 2 0 2 -2 2 0 2 0 1 -2 2 0 2 -2 2 0 2 -3 0 0 2 -2 2 -2 2 0 2 -3 1 -2 2 0 3 -3 2 -2 2 -2 1 -3 2 -2 2 -2 2 -2 1 -4 2 -4 2 -2 2 -5 1 -2 2 -5 2 -5 2 -5 2 -7 1 -10 3 -20 0 0" stroke="#DEDEDE" stroke-width="20" fill="#DEDEDE" />
    <path d="M 21714 22130 l -2 -24 -1 -9 -2 -7 0 -5 -2 -4 -1 -6 -1 -2 -1 -4 -2 -3 -1 -5 -1 -2 -1 -2 -1 -3 -1 -2 -2 -2 -1 -2 -1 -3 -1 -2 -1 0 -1 -3 -2 -2 -1 0 -1 -3 -1 -2 -1 0 -1 -2 -1 0 -1 -2 -2 0 -1 -3 -1 0 -1 0 -2 -2 -1 0 -1 0 -1 -2 -2 0 -1 0 -1 0 -1 -2 -1 0 -1 0 -1 0 -1 0 -2 0 -1 0 -1 0 -1 0 -2 0 -2 0 -1 0 -1 0 -1 0 -2 0 -1 0 -1 0 -1 0 -1 0 -1 0 -2 2 -1 0 -1 0 -1 0 -2 2 0 0 -2 0 -1 2 -1 0 -1 0 -2 3 -1 0 -1 2 -1 0 -1 2 -1 0 -1 2 -1 3 -2 0 -1 2 -1 3 -1 0 -1 2 -2 3 -1 2 -2 2 -1 2 -1 3 -1 2 0 2 -2 5 -1 3 -1 4 -1 2 -2 6 -1 4 -1 5 -1 7 -1 9 -1 24 1 21 1 10 1 7 1 4 1 6 2 4 1 3 1 4 1 2 2 5 0 3 1 2 1 3 1 2 2 2 1 2 2 2 1 3 1 0 1 2 1 3 2 0 1 2 1 2 1 0 1 3 1 0 1 2 1 0 2 2 1 0 1 0 1 2 2 0 0 0 2 3 1 0 1 0 1 0 2 2 1 0 1 0 1 0 1 0 1 0 2 0 1 0 1 0 1 0 2 0 2 0 1 0 1 0 1 0 2 0 1 0 1 0 1 0 1 0 1 -2 1 0 1 0 2 0 1 -3 1 0 1 0 2 -2 1 0 1 0 1 -2 2 0 1 -2 1 0 1 -3 1 0 1 -2 1 -2 1 0 2 -3 1 -2 1 0 1 -3 1 -2 1 -2 2 -2 1 -2 1 -3 1 -2 1 -3 1 -5 2 -2 1 -4 1 -3 1 -4 2 -6 0 -4 2 -7 1 -10 2 -21 0 0" stroke="#F0F0F0" stroke-width="20" fill="#F0F0F0" />
    <path d="M 21683 22130 l -1 -24 -1 -9 0 -7 -1 -5 -1 -4 0 -6 -1 -2 0 -4 -1 -3 -1 -5 0 -2 -1 -2 -1 -3 0 -2 -1 -2 0 -2 -1 -3 0 -2 -1 0 0 -3 -1 -2 -1 0 0 -3 -1 -2 -1 -2 0 0 -1 -2 0 0 -1 -3 -1 0 0 0 -1 -2 0 0 -1 0 -1 -2 -1 0 0 0 -1 0 0 -2 -1 0 0 0 -1 0 0 0 -1 0 -1 0 0 0 -1 0 0 0 -1 0 -1 0 -1 0 0 0 -1 0 0 0 -1 0 -1 0 0 0 -1 0 -1 2 0 0 -1 0 0 0 -1 2 0 0 -1 0 0 2 -1 0 -1 0 0 3 -1 0 -1 2 0 0 -1 2 0 0 -1 2 -1 3 0 0 0 2 -1 3 -1 0 0 2 -1 3 -1 2 0 2 -1 2 0 3 -1 2 -1 2 0 5 -1 3 -1 4 0 2 -1 6 0 4 -1 5 0 7 -1 9 0 24 0 21 1 10 0 7 1 4 0 6 1 4 0 3 1 4 1 2 0 5 1 3 1 2 0 3 1 2 0 2 1 2 1 2 0 3 1 0 1 2 0 3 0 0 1 2 1 2 0 0 1 3 0 0 1 2 1 0 0 2 1 0 1 0 0 2 1 0 0 0 1 3 0 0 1 0 0 0 1 2 1 0 0 0 1 0 1 0 0 0 1 0 0 0 1 0 1 0 1 0 0 0 1 0 0 0 1 0 1 0 0 0 1 0 0 0 1 0 0 -2 1 0 0 0 1 0 1 -3 1 0 0 0 1 -2 0 0 1 0 1 -2 0 0 1 -2 0 0 1 -3 1 -2 0 -2 1 0 1 -3 0 -2 1 0 0 -3 1 -2 0 -2 1 -2 0 -2 1 -3 1 -2 0 -3 1 -5 1 -2 0 -4 1 -3 0 -4 1 -6 1 -4 0 -7 1 -10 1 -21 0 0" stroke="#FFFFFF" stroke-width="20" fill="#FFFFFF" />
    <path d="M 21952 23291 l -6 -24 -6 -9 -6 -7 -6 -6 -6 -4 -6 -5 -6 -2 -6 -4 -6 -3 -6 -5 -6 -2 -6 -3 -5 -2 -7 -2 -5 -2 -6 -3 -7 -2 -5 -3 -7 0 -5 -2 -6 -3 -6 0 -6 -2 -6 -2 -6 0 -6 -3 -6 0 -6 -2 -6 0 -6 -2 -6 0 -6 0 -6 -2 -6 0 -5 0 -7 -2 -5 0 -6 0 -6 0 -6 -2 -6 0 -6 0 -6 0 -6 0 -6 0 -6 0 -6 0 -6 0 -6 0 -12 0 -5 0 -7 0 -5 0 -6 0 -7 0 -5 0 -6 0 -6 0 -6 0 -6 2 -6 0 -6 0 -6 0 -6 2 -6 0 -6 0 -6 2 -6 0 -6 0 -6 2 -5 0 -7 2 -5 0 -6 3 -6 0 -6 2 -6 2 -6 0 -6 3 -6 2 -6 0 -6 3 -6 2 -6 3 -6 2 -6 2 -6 2 -5 3 -7 2 -5 5 -6 3 -6 4 -6 2 -6 5 -6 4 -6 6 -6 7 -6 9 -5 24 5 20 6 10 6 8 6 4 6 6 6 4 6 2 6 5 6 2 5 4 7 4 5 2 6 2 6 2 6 3 6 2 6 2 6 3 6 0 6 2 6 3 6 0 6 2 6 2 6 0 6 3 5 0 7 2 5 0 6 2 6 0 6 0 6 2 6 0 6 0 6 3 6 0 6 0 6 0 6 2 6 0 6 0 6 0 5 0 7 0 6 0 5 0 7 0 5 0 12 0 6 0 6 0 6 0 6 0 6 0 6 0 6 0 6 0 6 0 6 -2 6 0 6 0 5 0 7 -3 5 0 6 0 6 -2 6 0 6 0 6 -2 6 0 6 -2 6 0 6 -3 6 0 6 -2 6 -2 6 0 6 -3 5 -2 7 0 5 -3 7 -2 6 -2 5 -3 7 -2 5 -2 6 -2 6 -4 6 -4 6 -2 6 -5 6 -2 6 -4 6 -6 6 -4 6 -8 6 -10 6 -20 0 0" stroke="#000000" stroke-width="20" fill="#000000" />
    <path d="M 21922 23291 l -5 -24 -6 -9 -5 -8 -5 -5 -6 -4 -5 -5 -6 -2 -5 -4 -5 -3 -6 -5 -5 -2 -5 -3 -6 -2 -5 -2 -5 -3 -6 -2 -5 -2 -5 -3 -6 0 -5 -3 -5 -2 -6 0 -5 -2 -6 -2 -5 0 -5 -3 -6 0 -5 -2 -5 0 -6 -2 -5 0 -5 0 -5 -3 -6 0 -5 0 -6 -2 -5 0 -6 0 -5 0 -5 -1 -6 0 -5 0 -5 0 -6 0 -5 0 -5 0 -5 0 -6 0 -5 0 -11 0 -5 0 -6 0 -5 0 -6 0 -5 0 -5 0 -6 0 -5 0 -5 0 -5 1 -6 0 -5 0 -5 0 -6 2 -5 0 -6 0 -6 3 -5 0 -5 0 -6 2 -5 0 -5 2 -6 0 -4 3 -6 0 -5 2 -5 2 -6 0 -5 2 -6 3 -5 0 -5 3 -6 2 -6 2 -5 3 -5 2 -5 2 -6 3 -5 2 -6 5 -5 3 -5 4 -6 2 -5 5 -6 4 -5 5 -5 8 -6 9 -4 24 4 20 6 10 5 7 5 4 6 6 5 4 6 3 5 4 5 2 6 5 5 3 6 2 5 2 5 3 5 2 6 2 6 3 5 2 5 0 6 3 5 2 6 0 5 3 5 2 6 0 4 2 6 0 5 3 5 0 6 2 5 0 5 0 6 2 6 0 5 0 6 2 5 0 5 0 6 0 5 3 5 0 5 0 6 0 5 0 5 0 6 0 5 0 6 0 5 0 11 0 5 0 6 0 5 0 5 0 5 0 6 0 5 0 5 0 6 0 5 -3 5 0 6 0 5 0 6 -2 5 0 6 0 5 -2 5 0 5 0 6 -2 5 0 5 -3 6 0 5 -2 5 0 6 -2 5 -3 6 0 5 -2 5 -3 6 0 5 -2 5 -3 6 -2 5 -2 5 -3 6 -2 5 -2 5 -3 6 -5 5 -2 5 -4 6 -3 5 -4 6 -6 5 -4 5 -7 6 -10 5 -20 0 0" stroke="#3C3C3C" stroke-width="20" fill="#3C3C3C" />
    <path d="M 21893 23291 l -5 -24 -5 -9 -5 -7 -4 -6 -5 -4 -5 -5 -5 -2 -4 -4 -5 -3 -5 -5 -5 -2 -4 -3 -5 -2 -5 -2 -5 -2 -4 -3 -5 -2 -5 -3 -5 0 -4 -2 -5 -3 -5 0 -5 -2 -4 -2 -5 0 -5 -3 -4 0 -5 -2 -5 0 -5 -2 -4 0 -5 0 -5 -2 -5 0 -5 0 -5 -2 -4 0 -5 0 -5 0 -5 -2 -4 0 -5 0 -5 0 -5 0 -4 0 -5 0 -5 0 -5 0 -4 0 -10 0 -5 0 -5 0 -4 0 -5 0 -5 0 -5 0 -5 0 -5 0 -4 0 -5 2 -5 0 -5 0 -4 0 -5 2 -5 0 -5 0 -4 2 -5 0 -5 0 -5 2 -4 0 -5 2 -5 0 -5 3 -4 0 -5 2 -5 2 -5 0 -4 3 -5 2 -5 0 -5 3 -4 2 -5 3 -5 2 -4 2 -6 2 -4 3 -5 2 -5 5 -5 3 -4 4 -5 2 -5 5 -5 4 -4 6 -5 7 -5 9 -5 24 5 20 5 10 5 8 4 4 5 6 5 4 5 2 4 5 5 2 5 4 5 4 4 2 6 2 4 2 5 3 5 2 4 2 5 3 5 0 5 2 4 3 5 0 5 2 5 2 4 0 5 3 5 0 5 2 4 0 5 2 5 0 5 0 4 2 5 0 5 0 5 3 4 0 5 0 5 0 5 2 4 0 5 0 5 0 5 0 5 0 5 0 4 0 5 0 5 0 10 0 4 0 5 0 5 0 5 0 4 0 5 0 5 0 5 0 4 0 5 -2 5 0 5 0 4 0 5 -3 5 0 5 0 5 -2 5 0 4 0 5 -2 5 0 5 -2 4 0 5 -3 5 0 4 -2 5 -2 5 0 5 -3 4 -2 5 0 5 -3 5 -2 4 -2 5 -3 5 -2 5 -2 4 -2 5 -4 5 -4 5 -2 4 -5 5 -2 5 -4 5 -6 4 -4 5 -8 5 -10 5 -20 0 0" stroke="#5A5A5A" stroke-width="20" fill="#5A5A5A" />
    <path d="M 21861 23291 l -4 -24 -4 -9 -4 -7 -4 -6 -5 -4 -4 -5 -4 -2 -4 -4 -4 -3 -4 -5 -4 -2 -5 -3 -4 -2 -4 -2 -4 -2 -4 -3 -4 -2 -5 -3 -4 0 -4 -2 -4 -3 -4 0 -5 -2 -4 -2 -4 0 -4 -3 -4 0 -4 -2 -4 0 -4 -2 -5 0 -4 0 -4 -2 -4 0 -4 0 -5 -2 -4 0 -4 0 -4 0 -4 -2 -4 0 -5 0 -4 0 -4 0 -4 0 -4 0 -4 0 -4 0 -5 0 -7 0 -5 0 -4 0 -4 0 -4 0 -4 0 -4 0 -5 0 -4 0 -4 0 -4 2 -4 0 -5 0 -3 0 -5 2 -4 0 -4 0 -4 2 -4 0 -4 0 -5 2 -4 0 -4 2 -4 0 -4 3 -5 0 -4 2 -4 2 -4 0 -4 3 -4 2 -4 0 -5 3 -4 2 -4 3 -4 2 -4 2 -4 2 -5 3 -4 2 -4 5 -4 3 -4 4 -5 2 -4 5 -4 4 -4 6 -4 7 -4 9 -4 24 4 20 4 10 4 8 4 4 4 6 4 4 5 2 4 5 4 2 4 4 4 4 5 2 4 2 4 2 4 3 4 2 4 2 5 3 4 0 4 2 4 3 4 0 4 2 4 2 5 0 4 3 4 0 4 2 4 0 5 2 4 0 4 0 4 2 4 0 4 0 5 3 3 0 5 0 4 0 4 2 4 0 4 0 5 0 4 0 4 0 4 0 4 0 4 0 5 0 7 0 5 0 4 0 4 0 4 0 4 0 4 0 4 0 5 0 4 0 4 -2 4 0 4 0 4 0 5 -3 4 0 4 0 4 -2 4 0 5 0 4 -2 4 0 4 -2 4 0 4 -3 4 0 4 -2 5 -2 4 0 4 -3 4 -2 4 0 5 -3 4 -2 4 -2 4 -3 4 -2 4 -2 5 -2 4 -4 4 -4 4 -2 4 -5 4 -2 4 -4 5 -6 4 -4 4 -8 4 -10 4 -20 0 0" stroke="#808080" stroke-width="20" fill="#808080" />
    <path d="M 21832 23291 l -4 -24 -4 -9 -3 -7 -4 -6 -3 -4 -4 -5 -3 -2 -4 -4 -3 -3 -4 -5 -4 -2 -3 -3 -4 -2 -3 -2 -4 -2 -4 -3 -2 -2 -4 -3 -3 0 -4 -2 -4 -3 -3 0 -4 -2 -4 -2 -3 0 -4 -3 -3 0 -4 -2 -4 0 -3 -2 -4 0 -3 0 -4 -2 -3 0 -4 0 -3 -2 -4 0 -3 0 -4 0 -3 -2 -4 0 -4 0 -3 0 -4 0 -3 0 -4 0 -4 0 -3 0 -4 0 -7 0 -4 0 -3 0 -4 0 -3 0 -4 0 -3 0 -4 0 -3 0 -4 0 -3 2 -4 0 -3 0 -4 0 -4 2 -3 0 -4 0 -3 2 -4 0 -4 0 -3 2 -4 0 -4 2 -3 0 -4 3 -3 0 -4 2 -3 2 -4 0 -3 3 -4 2 -3 0 -4 3 -3 2 -4 3 -4 2 -3 2 -4 2 -3 3 -4 2 -4 5 -3 3 -4 4 -3 2 -4 5 -4 4 -3 6 -4 7 -3 9 -3 24 3 20 3 10 4 8 3 4 4 6 4 4 3 2 4 5 3 2 4 4 4 4 3 2 4 2 3 2 4 3 4 2 3 2 4 3 3 0 4 2 3 3 4 0 3 2 4 2 3 0 4 3 3 0 4 2 4 0 3 2 4 0 4 0 3 2 4 0 3 0 4 3 4 0 3 0 4 0 3 2 4 0 3 0 4 0 3 0 4 0 3 0 4 0 3 0 4 0 7 0 4 0 3 0 4 0 4 0 3 0 4 0 3 0 4 0 4 0 3 -2 4 0 3 0 4 0 3 -3 4 0 3 0 4 -2 3 0 4 0 3 -2 4 0 4 -2 3 0 4 -3 3 0 4 -2 4 -2 3 0 4 -3 4 -2 3 0 4 -3 2 -2 4 -2 4 -3 3 -2 4 -2 3 -2 4 -4 4 -4 3 -2 4 -5 3 -2 4 -4 3 -6 4 -4 3 -8 4 -10 4 -20 0 0" stroke="#969696" stroke-width="20" fill="#969696" />
    <path d="M 21803 23291 l -3 -24 -3 -9 -3 -7 -3 -6 -3 -4 -3 -5 -3 -2 -3 -4 -3 -3 -3 -5 -3 -2 -3 -3 -2 -2 -4 -2 -3 -2 -3 -3 -2 -2 -4 -3 -3 0 -2 -2 -3 -3 -4 0 -2 -2 -3 -2 -4 0 -2 -3 -3 0 -3 -2 -3 0 -3 -2 -3 0 -3 0 -3 -2 -3 0 -3 0 -3 -2 -3 0 -3 0 -3 0 -3 -2 -3 0 -3 0 -3 0 -3 0 -3 0 -3 0 -3 0 -3 0 -3 0 -6 0 -3 0 -3 0 -2 0 -4 0 -3 0 -2 0 -3 0 -4 0 -2 0 -3 2 -4 0 -2 0 -3 0 -3 2 -3 0 -3 0 -3 2 -3 0 -3 0 -3 2 -3 0 -3 2 -3 0 -3 3 -3 0 -3 2 -3 2 -3 0 -3 3 -3 2 -3 0 -3 3 -3 2 -3 3 -3 2 -3 2 -3 2 -3 3 -3 2 -2 5 -4 3 -3 4 -2 2 -3 5 -4 4 -2 6 -3 7 -4 9 -2 24 2 20 4 10 3 8 2 4 4 6 3 4 2 2 3 5 4 2 2 4 3 4 3 2 3 2 3 2 3 3 3 2 3 2 3 3 3 0 3 2 3 3 3 0 3 2 3 2 3 0 3 3 3 0 3 2 3 0 3 2 3 0 3 0 3 2 3 0 3 0 3 3 3 0 2 0 4 0 3 2 2 0 4 0 3 0 2 0 3 0 4 0 2 0 3 0 3 0 6 0 3 0 3 0 3 0 3 0 3 0 3 0 3 0 3 0 3 0 3 -2 3 0 3 0 3 0 3 -3 3 0 3 0 3 -2 3 0 3 0 3 -2 3 0 3 -2 3 0 2 -3 4 0 3 -2 2 -2 4 0 3 -3 2 -2 3 0 4 -3 2 -2 3 -2 3 -3 4 -2 2 -2 3 -2 3 -4 3 -4 3 -2 3 -5 3 -2 3 -4 3 -6 3 -4 3 -8 3 -10 3 -20 0 0" stroke="#C0C0C0" stroke-width="20" fill="#C0C0C0" />
    <path d="M 21774 23291 l -3 -24 -3 -9 -2 -7 -2 -6 -3 -4 -2 -5 -3 -2 -2 -4 -2 -3 -3 -5 -2 -2 -2 -3 -3 -2 -2 -2 -3 -2 -2 -3 -2 -2 -3 -3 -2 0 -2 -2 -3 -3 -2 0 -3 -2 -2 -2 -2 0 -3 -3 -2 0 -2 -2 -3 0 -2 -2 -2 0 -3 0 -2 -2 -3 0 -2 0 -2 -2 -3 0 -2 0 -2 0 -3 -2 -2 0 -3 0 -2 0 -2 0 -3 0 -2 0 -2 0 -3 0 -2 0 -5 0 -2 0 -3 0 -2 0 -2 0 -3 0 -2 0 -2 0 -3 0 -2 0 -3 2 -2 0 -3 0 -2 0 -3 2 -2 0 -2 0 -3 2 -3 0 -2 0 -2 2 -3 0 -2 2 -2 0 -2 3 -3 0 -2 2 -2 2 -3 0 -2 3 -3 2 -2 0 -2 3 -3 2 -2 3 -3 2 -2 2 -3 2 -2 3 -2 2 -3 5 -2 3 -2 4 -3 2 -2 5 -3 4 -2 6 -2 7 -3 9 -2 24 2 20 3 10 2 8 2 4 3 6 2 4 3 2 2 5 2 2 3 4 2 4 2 2 3 2 2 2 3 3 2 2 3 2 2 3 2 0 3 2 2 3 3 0 2 2 2 2 3 0 2 3 2 0 2 2 3 0 2 2 2 0 3 0 3 2 2 0 2 0 3 3 2 0 3 0 2 0 3 2 2 0 3 0 2 0 2 0 3 0 2 0 2 0 3 0 2 0 5 0 2 0 3 0 2 0 2 0 3 0 2 0 2 0 3 0 2 0 3 -2 2 0 2 0 3 0 2 -3 2 0 3 0 2 -2 3 0 2 0 2 -2 3 0 2 -2 2 0 3 -3 2 0 2 -2 3 -2 2 0 3 -3 2 -2 2 0 3 -3 2 -2 2 -2 3 -3 2 -2 3 -2 2 -2 2 -4 3 -4 2 -2 2 -5 3 -2 2 -4 3 -6 2 -4 2 -8 3 -10 3 -20 0 0" stroke="#D2D2D2" stroke-width="20" fill="#D2D2D2" />
    <path d="M 21745 23291 l -3 -24 -1 -9 -2 -7 -2 -6 -2 -4 -2 -5 -1 -2 -2 -4 -2 -3 -2 -5 -1 -2 -2 -3 -2 -2 -2 -2 -1 -2 -2 -3 -2 -2 -3 -3 -2 0 -1 -2 -2 -3 -2 0 -2 -2 -2 -2 0 0 -2 -3 -2 0 -2 -2 -2 0 -1 -2 -2 0 -2 0 -2 -2 -2 0 -2 0 -2 -2 -1 0 -2 0 -2 0 -2 -2 -1 0 -2 0 -2 0 -2 0 -2 0 -1 0 -2 0 -2 0 -2 0 -3 0 -2 0 -2 0 -2 0 -2 0 -1 0 -2 0 -2 0 -2 0 -2 0 -1 2 -2 0 -2 0 -2 0 -2 2 -1 0 -2 0 -2 2 -2 0 -2 0 -2 2 -1 0 -2 2 -2 0 -1 3 -2 0 -2 2 -2 2 -1 0 -2 3 -2 2 -2 0 -1 3 -3 2 -2 3 -1 2 -2 2 -2 2 -2 3 -2 2 -2 5 -1 3 -2 4 -2 2 -2 5 -2 4 -1 6 -2 7 -2 9 -1 24 1 20 2 10 2 8 1 4 2 6 2 4 2 2 2 5 1 2 2 4 2 4 2 2 2 2 2 2 1 3 2 2 3 2 1 3 2 0 2 2 2 3 1 0 2 2 2 2 2 0 1 3 2 0 2 2 1 0 2 2 2 0 2 0 2 2 2 0 1 0 2 3 2 0 2 0 2 0 1 2 2 0 2 0 2 0 2 0 1 0 2 0 2 0 2 0 2 0 3 0 2 0 2 0 2 0 1 0 2 0 2 0 2 0 2 0 1 0 2 -2 2 0 2 0 1 0 2 -3 2 0 2 0 2 -2 2 0 2 0 1 -2 2 0 2 -2 2 0 2 -3 0 0 2 -2 2 -2 2 0 2 -3 1 -2 2 0 3 -3 2 -2 2 -2 1 -3 2 -2 2 -2 2 -2 1 -4 2 -4 2 -2 2 -5 1 -2 2 -4 2 -6 2 -4 2 -8 1 -10 3 -20 0 0" stroke="#DEDEDE" stroke-width="20" fill="#DEDEDE" />
    <path d="M 21714 23291 l -2 -25 -1 -9 -2 -7 0 -5 -2 -4 -1 -6 -1 -2 -1 -4 -2 -3 -1 -5 -1 -2 -1 -2 -1 -3 -1 -2 -2 -2 -1 -2 -1 -2 -1 -3 -1 0 -1 -3 -2 -2 -1 0 -1 -2 -1 -2 -1 0 -1 -3 -1 0 -1 -2 -2 0 -1 -2 -1 0 -1 0 -2 -3 -1 0 -1 0 -1 -2 -2 0 -1 0 -1 0 -1 -2 -1 0 -1 0 -1 0 -1 0 -2 0 -1 0 -1 0 -1 0 -2 0 -2 0 -1 0 -1 0 -1 0 -2 0 -1 0 -1 0 -1 0 -1 0 -1 0 -2 2 -1 0 -1 0 -1 0 -2 2 0 0 -2 0 -1 3 -1 0 -1 0 -2 2 -1 0 -1 2 -1 0 -1 3 -1 0 -1 2 -1 2 -2 0 -1 2 -1 3 -1 0 -1 3 -2 2 -1 2 -2 2 -1 2 -1 3 -1 2 0 2 -2 5 -1 3 -1 4 -1 2 -2 6 -1 4 -1 5 -1 7 -1 9 -1 25 1 20 1 10 1 7 1 4 1 6 2 4 1 3 1 4 1 2 2 5 0 3 1 2 1 2 1 3 2 2 1 2 2 2 1 3 1 0 1 2 1 3 2 0 1 2 1 3 1 0 1 2 1 0 1 2 1 0 2 2 1 0 1 0 1 3 2 0 0 0 2 2 1 0 1 0 1 0 2 3 1 0 1 0 1 0 1 0 1 0 2 0 1 0 1 0 1 0 2 0 2 0 1 0 1 0 1 0 2 0 1 0 1 0 1 0 1 0 1 -3 1 0 1 0 2 0 1 -2 1 0 1 0 2 -3 1 0 1 0 1 -2 2 0 1 -2 1 0 1 -2 1 0 1 -3 1 -2 1 0 2 -3 1 -2 1 0 1 -3 1 -2 1 -2 2 -2 1 -3 1 -2 1 -2 1 -3 1 -5 2 -2 1 -4 1 -3 1 -4 2 -6 0 -4 2 -7 1 -10 2 -20 0 0" stroke="#F0F0F0" stroke-width="20" fill="#F0F0F0" />
    <path d="M 21683 23291 l -1 -25 -1 -9 0 -7 -1 -5 -1 -4 0 -6 -1 -2 0 -4 -1 -3 -1 -5 0 -2 -1 -2 -1 -3 0 -2 -1 -2 0 -2 -1 -2 0 -3 -1 0 0 -3 -1 -2 -1 0 0 -2 -1 -2 -1 -3 0 0 -1 -2 0 0 -1 -2 -1 0 0 0 -1 -3 0 0 -1 0 -1 -2 -1 0 0 0 -1 0 0 -2 -1 0 0 0 -1 0 0 0 -1 0 -1 0 0 0 -1 0 0 0 -1 0 -1 0 -1 0 0 0 -1 0 0 0 -1 0 -1 0 0 0 -1 0 -1 2 0 0 -1 0 0 0 -1 2 0 0 -1 0 0 3 -1 0 -1 0 0 2 -1 0 -1 2 0 0 -1 3 0 0 -1 2 -1 2 0 0 0 2 -1 3 -1 0 0 3 -1 2 -1 2 0 2 -1 2 0 3 -1 2 -1 2 0 5 -1 3 -1 4 0 2 -1 6 0 4 -1 5 0 7 -1 9 0 25 0 20 1 10 0 7 1 4 0 6 1 4 0 3 1 4 1 2 0 5 1 3 1 2 0 2 1 3 0 2 1 2 1 2 0 3 1 0 1 2 0 3 0 0 1 2 1 3 0 0 1 2 0 0 1 2 1 0 0 2 1 0 1 0 0 3 1 0 0 0 1 2 0 0 1 0 0 0 1 3 1 0 0 0 1 0 1 0 0 0 1 0 0 0 1 0 1 0 1 0 0 0 1 0 0 0 1 0 1 0 0 0 1 0 0 0 1 0 0 -3 1 0 0 0 1 0 1 -2 1 0 0 0 1 -3 0 0 1 0 1 -2 0 0 1 -2 0 0 1 -2 1 -3 0 -2 1 0 1 -3 0 -2 1 0 0 -3 1 -2 0 -2 1 -2 0 -3 1 -2 1 -2 0 -3 1 -5 1 -2 0 -4 1 -3 0 -4 1 -6 1 -4 0 -7 1 -10 1 -20 0 0" stroke="#FFFFFF" stroke-width="20" fill="#FFFFFF" />
    <path d="M 21952 22131 l -6 -24 -6 -9 -6 -8 -6 -4 -6 -5 -6 -5 -6 -2 -6 -5 -6 -2 -6 -5 -6 -3 -6 -2 -5 -2 -7 -3 -5 -2 -6 -2 -7 -2 -5 -3 -7 0 -5 -3 -6 -2 -6 0 -6 -2 -6 -2 -6 0 -6 -3 -6 0 -6 -2 -6 0 -6 -2 -6 0 -6 0 -6 -2 -6 0 -5 0 -7 -2 -5 0 -6 0 -6 0 -6 -3 -6 0 -6 0 -6 0 -6 0 -6 0 -6 0 -6 0 -6 0 -6 0 -12 0 -5 0 -7 0 -5 0 -6 0 -7 0 -5 0 -6 0 -6 0 -6 0 -6 3 -6 0 -6 0 -6 0 -6 2 -6 0 -6 0 -6 2 -6 0 -6 0 -6 2 -5 0 -7 2 -5 0 -6 3 -6 0 -6 2 -6 2 -6 0 -6 2 -6 3 -6 0 -6 3 -6 2 -6 2 -6 2 -6 3 -6 2 -5 2 -7 3 -5 5 -6 2 -6 5 -6 2 -6 5 -6 5 -6 4 -6 8 -6 9 -5 24 5 20 6 10 6 7 6 5 6 5 6 4 6 3 6 4 6 2 5 5 7 3 5 2 6 3 6 2 6 2 6 2 6 3 6 2 6 0 6 2 6 3 6 0 6 3 6 2 6 0 6 2 5 0 7 2 5 0 6 3 6 0 6 0 6 2 6 0 6 0 6 2 6 0 6 0 6 0 6 3 6 0 6 0 6 0 5 0 7 0 6 0 5 0 7 0 5 0 12 0 6 0 6 0 6 0 6 0 6 0 6 0 6 0 6 0 6 0 6 -3 6 0 6 0 5 0 7 -2 5 0 6 0 6 -2 6 0 6 0 6 -3 6 0 6 -2 6 0 6 -2 6 0 6 -2 6 -3 6 0 6 -3 5 -2 7 0 5 -2 7 -3 6 -2 5 -2 7 -2 5 -3 6 -2 6 -3 6 -5 6 -2 6 -4 6 -3 6 -4 6 -5 6 -5 6 -7 6 -10 6 -20 0 0" stroke="#000000" stroke-width="20" fill="#000000" />
    <path d="M 21922 22130 l -5 -24 -6 -9 -5 -7 -5 -5 -6 -4 -5 -5 -6 -3 -5 -4 -5 -2 -6 -6 -5 -2 -5 -2 -6 -2 -5 -3 -5 -2 -6 -2 -5 -3 -5 -2 -6 0 -5 -3 -5 -2 -6 0 -5 -3 -6 -2 -5 0 -5 -2 -6 0 -5 -2 -5 0 -6 -3 -5 0 -5 0 -5 -2 -6 0 -5 0 -6 -2 -5 0 -6 0 -5 0 -5 -2 -6 0 -5 0 -5 0 -6 0 -5 0 -5 0 -5 0 -6 0 -5 0 -11 0 -5 0 -6 0 -5 0 -6 0 -5 0 -5 0 -6 0 -5 0 -5 0 -5 2 -6 0 -5 0 -5 0 -6 2 -5 0 -6 0 -6 2 -5 0 -5 0 -6 3 -5 0 -5 2 -6 0 -4 2 -6 0 -5 2 -5 3 -6 0 -5 2 -6 3 -5 0 -5 2 -6 3 -6 2 -5 2 -5 3 -5 2 -6 2 -5 2 -6 6 -5 2 -5 4 -6 3 -5 5 -6 4 -5 5 -5 7 -6 9 -4 24 4 21 6 10 5 7 5 5 6 5 5 4 6 3 5 4 5 2 6 5 5 3 6 2 5 3 5 2 5 2 6 2 6 2 5 3 5 0 6 2 5 3 6 0 5 2 5 2 6 0 4 3 6 0 5 2 5 0 6 2 5 0 5 0 6 2 6 0 5 0 6 3 5 0 5 0 6 0 5 2 5 0 5 0 6 0 5 0 5 0 6 0 5 0 6 0 5 0 11 0 5 0 6 0 5 0 5 0 5 0 6 0 5 0 5 0 6 0 5 -2 5 0 6 0 5 0 6 -3 5 0 6 0 5 -2 5 0 5 0 6 -2 5 0 5 -2 6 0 5 -3 5 0 6 -2 5 -2 6 0 5 -3 5 -2 6 0 5 -3 5 -2 6 -2 5 -2 5 -2 6 -3 5 -2 5 -3 6 -5 5 -2 5 -4 6 -3 5 -4 6 -5 5 -5 5 -7 6 -10 5 -21 0 0" stroke="#3C3C3C" stroke-width="20" fill="#3C3C3C" />
    <path d="M 21893 22131 l -5 -24 -5 -9 -5 -8 -4 -4 -5 -5 -5 -5 -5 -2 -4 -5 -5 -2 -5 -5 -5 -3 -4 -2 -5 -2 -5 -3 -5 -2 -4 -2 -5 -2 -5 -3 -5 0 -4 -3 -5 -2 -5 0 -5 -2 -4 -2 -5 0 -5 -3 -4 0 -5 -2 -5 0 -5 -2 -4 0 -5 0 -5 -2 -5 0 -5 0 -5 -2 -4 0 -5 0 -5 0 -5 -3 -4 0 -5 0 -5 0 -5 0 -4 0 -5 0 -5 0 -5 0 -4 0 -10 0 -5 0 -5 0 -4 0 -5 0 -5 0 -5 0 -5 0 -5 0 -4 0 -5 3 -5 0 -5 0 -4 0 -5 2 -5 0 -5 0 -4 2 -5 0 -5 0 -5 2 -4 0 -5 2 -5 0 -5 3 -4 0 -5 2 -5 2 -5 0 -4 2 -5 3 -5 0 -5 3 -4 2 -5 2 -5 2 -4 3 -6 2 -4 2 -5 3 -5 5 -5 2 -4 5 -5 2 -5 5 -5 5 -4 4 -5 8 -5 9 -5 24 5 20 5 10 5 7 4 5 5 5 5 4 5 3 4 4 5 2 5 5 5 3 4 2 6 3 4 2 5 2 5 2 4 3 5 2 5 0 5 2 4 3 5 0 5 3 5 2 4 0 5 2 5 0 5 2 4 0 5 3 5 0 5 0 4 2 5 0 5 0 5 2 4 0 5 0 5 0 5 3 4 0 5 0 5 0 5 0 5 0 5 0 4 0 5 0 5 0 10 0 4 0 5 0 5 0 5 0 4 0 5 0 5 0 5 0 4 0 5 -3 5 0 5 0 4 0 5 -2 5 0 5 0 5 -2 5 0 4 0 5 -3 5 0 5 -2 4 0 5 -2 5 0 4 -2 5 -3 5 0 5 -3 4 -2 5 0 5 -2 5 -3 4 -2 5 -2 5 -2 5 -3 4 -2 5 -3 5 -5 5 -2 4 -4 5 -3 5 -4 5 -5 4 -5 5 -7 5 -10 5 -20 0 0" stroke="#5A5A5A" stroke-width="20" fill="#5A5A5A" />
    <path d="M 21861 22131 l -4 -24 -4 -9 -4 -8 -4 -4 -5 -5 -4 -5 -4 -2 -4 -5 -4 -2 -4 -5 -4 -3 -5 -2 -4 -2 -4 -3 -4 -2 -4 -2 -4 -2 -5 -3 -4 0 -4 -3 -4 -2 -4 0 -5 -2 -4 -2 -4 0 -4 -3 -4 0 -4 -2 -4 0 -4 -2 -5 0 -4 0 -4 -2 -4 0 -4 0 -5 -2 -4 0 -4 0 -4 0 -4 -3 -4 0 -5 0 -4 0 -4 0 -4 0 -4 0 -4 0 -4 0 -5 0 -7 0 -5 0 -4 0 -4 0 -4 0 -4 0 -4 0 -5 0 -4 0 -4 0 -4 3 -4 0 -5 0 -3 0 -5 2 -4 0 -4 0 -4 2 -4 0 -4 0 -5 2 -4 0 -4 2 -4 0 -4 3 -5 0 -4 2 -4 2 -4 0 -4 2 -4 3 -4 0 -5 3 -4 2 -4 2 -4 2 -4 3 -4 2 -5 2 -4 3 -4 5 -4 2 -4 5 -5 2 -4 5 -4 5 -4 4 -4 8 -4 9 -4 24 4 20 4 10 4 7 4 5 4 5 4 4 5 3 4 4 4 2 4 5 4 3 5 2 4 3 4 2 4 2 4 2 4 3 5 2 4 0 4 2 4 3 4 0 4 3 4 2 5 0 4 2 4 0 4 2 4 0 5 3 4 0 4 0 4 2 4 0 4 0 5 2 3 0 5 0 4 0 4 3 4 0 4 0 5 0 4 0 4 0 4 0 4 0 4 0 5 0 7 0 5 0 4 0 4 0 4 0 4 0 4 0 4 0 5 0 4 0 4 -3 4 0 4 0 4 0 5 -2 4 0 4 0 4 -2 4 0 5 0 4 -3 4 0 4 -2 4 0 4 -2 4 0 4 -2 5 -3 4 0 4 -3 4 -2 4 0 5 -2 4 -3 4 -2 4 -2 4 -2 4 -3 5 -2 4 -3 4 -5 4 -2 4 -4 4 -3 4 -4 5 -5 4 -5 4 -7 4 -10 4 -20 0 0" stroke="#808080" stroke-width="20" fill="#808080" />
    <path d="M 21832 22131 l -4 -24 -4 -9 -3 -8 -4 -4 -3 -5 -4 -5 -3 -2 -4 -5 -3 -2 -4 -5 -4 -3 -3 -2 -4 -2 -3 -3 -4 -2 -4 -2 -2 -2 -4 -3 -3 0 -4 -3 -4 -2 -3 0 -4 -2 -4 -2 -3 0 -4 -3 -3 0 -4 -2 -4 0 -3 -2 -4 0 -3 0 -4 -2 -3 0 -4 0 -3 -2 -4 0 -3 0 -4 0 -3 -3 -4 0 -4 0 -3 0 -4 0 -3 0 -4 0 -4 0 -3 0 -4 0 -7 0 -4 0 -3 0 -4 0 -3 0 -4 0 -3 0 -4 0 -3 0 -4 0 -3 3 -4 0 -3 0 -4 0 -4 2 -3 0 -4 0 -3 2 -4 0 -4 0 -3 2 -4 0 -4 2 -3 0 -4 3 -3 0 -4 2 -3 2 -4 0 -3 2 -4 3 -3 0 -4 3 -3 2 -4 2 -4 2 -3 3 -4 2 -3 2 -4 3 -4 5 -3 2 -4 5 -3 2 -4 5 -4 5 -3 4 -4 8 -3 9 -3 24 3 20 3 10 4 7 3 5 4 5 4 4 3 3 4 4 3 2 4 5 4 3 3 2 4 3 3 2 4 2 4 2 3 3 4 2 3 0 4 2 3 3 4 0 3 3 4 2 3 0 4 2 3 0 4 2 4 0 3 3 4 0 4 0 3 2 4 0 3 0 4 2 4 0 3 0 4 0 3 3 4 0 3 0 4 0 3 0 4 0 3 0 4 0 3 0 4 0 7 0 4 0 3 0 4 0 4 0 3 0 4 0 3 0 4 0 4 0 3 -3 4 0 3 0 4 0 3 -2 4 0 3 0 4 -2 3 0 4 0 3 -3 4 0 4 -2 3 0 4 -2 3 0 4 -2 4 -3 3 0 4 -3 4 -2 3 0 4 -2 2 -3 4 -2 4 -2 3 -2 4 -3 3 -2 4 -3 4 -5 3 -2 4 -4 3 -3 4 -4 3 -5 4 -5 3 -7 4 -10 4 -20 0 0" stroke="#969696" stroke-width="20" fill="#969696" />
    <path d="M 21803 22131 l -3 -24 -3 -9 -3 -8 -3 -4 -3 -5 -3 -5 -3 -2 -3 -5 -3 -2 -3 -5 -3 -3 -3 -2 -2 -2 -4 -3 -3 -2 -3 -2 -2 -2 -4 -3 -3 0 -2 -3 -3 -2 -4 0 -2 -2 -3 -2 -4 0 -2 -3 -3 0 -3 -2 -3 0 -3 -2 -3 0 -3 0 -3 -2 -3 0 -3 0 -3 -2 -3 0 -3 0 -3 0 -3 -3 -3 0 -3 0 -3 0 -3 0 -3 0 -3 0 -3 0 -3 0 -3 0 -6 0 -3 0 -3 0 -2 0 -4 0 -3 0 -2 0 -3 0 -4 0 -2 0 -3 3 -4 0 -2 0 -3 0 -3 2 -3 0 -3 0 -3 2 -3 0 -3 0 -3 2 -3 0 -3 2 -3 0 -3 3 -3 0 -3 2 -3 2 -3 0 -3 2 -3 3 -3 0 -3 3 -3 2 -3 2 -3 2 -3 3 -3 2 -3 2 -3 3 -2 5 -4 2 -3 5 -2 2 -3 5 -4 5 -2 4 -3 8 -4 9 -2 24 2 20 4 10 3 7 2 5 4 5 3 4 2 3 3 4 4 2 2 5 3 3 3 2 3 3 3 2 3 2 3 2 3 3 3 2 3 0 3 2 3 3 3 0 3 3 3 2 3 0 3 2 3 0 3 2 3 0 3 3 3 0 3 0 3 2 3 0 3 0 3 2 3 0 2 0 4 0 3 3 2 0 4 0 3 0 2 0 3 0 4 0 2 0 3 0 3 0 6 0 3 0 3 0 3 0 3 0 3 0 3 0 3 0 3 0 3 0 3 -3 3 0 3 0 3 0 3 -2 3 0 3 0 3 -2 3 0 3 0 3 -3 3 0 3 -2 3 0 2 -2 4 0 3 -2 2 -3 4 0 3 -3 2 -2 3 0 4 -2 2 -3 3 -2 3 -2 4 -2 2 -3 3 -2 3 -3 3 -5 3 -2 3 -4 3 -3 3 -4 3 -5 3 -5 3 -7 3 -10 3 -20 0 0" stroke="#C0C0C0" stroke-width="20" fill="#C0C0C0" />
    <path d="M 21774 22131 l -3 -24 -3 -9 -2 -8 -2 -4 -3 -5 -2 -5 -3 -2 -2 -5 -2 -2 -3 -5 -2 -3 -2 -2 -3 -2 -2 -3 -3 -2 -2 -2 -2 -2 -3 -3 -2 0 -2 -3 -3 -2 -2 0 -3 -2 -2 -2 -2 0 -3 -3 -2 0 -2 -2 -3 0 -2 -2 -2 0 -3 0 -2 -2 -3 0 -2 0 -2 -2 -3 0 -2 0 -2 0 -3 -3 -2 0 -3 0 -2 0 -2 0 -3 0 -2 0 -2 0 -3 0 -2 0 -5 0 -2 0 -3 0 -2 0 -2 0 -3 0 -2 0 -2 0 -3 0 -2 0 -3 3 -2 0 -3 0 -2 0 -3 2 -2 0 -2 0 -3 2 -3 0 -2 0 -2 2 -3 0 -2 2 -2 0 -2 3 -3 0 -2 2 -2 2 -3 0 -2 2 -3 3 -2 0 -2 3 -3 2 -2 2 -3 2 -2 3 -3 2 -2 2 -2 3 -3 5 -2 2 -2 5 -3 2 -2 5 -3 5 -2 4 -2 8 -3 9 -2 24 2 20 3 10 2 7 2 5 3 5 2 4 3 3 2 4 2 2 3 5 2 3 2 2 3 3 2 2 3 2 2 2 3 3 2 2 2 0 3 2 2 3 3 0 2 3 2 2 3 0 2 2 2 0 2 2 3 0 2 3 2 0 3 0 3 2 2 0 2 0 3 2 2 0 3 0 2 0 3 3 2 0 3 0 2 0 2 0 3 0 2 0 2 0 3 0 2 0 5 0 2 0 3 0 2 0 2 0 3 0 2 0 2 0 3 0 2 0 3 -3 2 0 2 0 3 0 2 -2 2 0 3 0 2 -2 3 0 2 0 2 -3 3 0 2 -2 2 0 3 -2 2 0 2 -2 3 -3 2 0 3 -3 2 -2 2 0 3 -2 2 -3 2 -2 3 -2 2 -2 3 -3 2 -2 2 -3 3 -5 2 -2 2 -4 3 -3 2 -4 3 -5 2 -5 2 -7 3 -10 3 -20 0 0" stroke="#D2D2D2" stroke-width="20" fill="#D2D2D2" />
    <path d="M 21745 22131 l -3 -24 -1 -9 -2 -8 -2 -4 -2 -5 -2 -5 -1 -2 -2 -5 -2 -2 -2 -5 -1 -3 -2 -2 -2 -2 -2 -3 -1 -2 -2 -2 -2 -2 -3 -3 -2 0 -1 -3 -2 -2 -2 0 -2 -2 -2 -2 0 0 -2 -3 -2 0 -2 -2 -2 0 -1 -2 -2 0 -2 0 -2 -2 -2 0 -2 0 -2 -2 -1 0 -2 0 -2 0 -2 -3 -1 0 -2 0 -2 0 -2 0 -2 0 -1 0 -2 0 -2 0 -2 0 -3 0 -2 0 -2 0 -2 0 -2 0 -1 0 -2 0 -2 0 -2 0 -2 0 -1 3 -2 0 -2 0 -2 0 -2 2 -1 0 -2 0 -2 2 -2 0 -2 0 -2 2 -1 0 -2 2 -2 0 -1 3 -2 0 -2 2 -2 2 -1 0 -2 2 -2 3 -2 0 -1 3 -3 2 -2 2 -1 2 -2 3 -2 2 -2 2 -2 3 -2 5 -1 2 -2 5 -2 2 -2 5 -2 5 -1 4 -2 8 -2 9 -1 24 1 20 2 10 2 7 1 5 2 5 2 4 2 3 2 4 1 2 2 5 2 3 2 2 2 3 2 2 1 2 2 2 3 3 1 2 2 0 2 2 2 3 1 0 2 3 2 2 2 0 1 2 2 0 2 2 1 0 2 3 2 0 2 0 2 2 2 0 1 0 2 2 2 0 2 0 2 0 1 3 2 0 2 0 2 0 2 0 1 0 2 0 2 0 2 0 2 0 3 0 2 0 2 0 2 0 1 0 2 0 2 0 2 0 2 0 1 0 2 -3 2 0 2 0 1 0 2 -2 2 0 2 0 2 -2 2 0 2 0 1 -3 2 0 2 -2 2 0 2 -2 0 0 2 -2 2 -3 2 0 2 -3 1 -2 2 0 3 -2 2 -3 2 -2 1 -2 2 -2 2 -3 2 -2 1 -3 2 -5 2 -2 2 -4 1 -3 2 -4 2 -5 2 -5 2 -7 1 -10 3 -20 0 0" stroke="#DEDEDE" stroke-width="20" fill="#DEDEDE" />
    <path d="M 21714 22130 l -2 -24 -1 -9 -2 -7 0 -5 -2 -4 -1 -6 -1 -2 -1 -4 -2 -3 -1 -5 -1 -2 -1 -2 -1 -3 -1 -2 -2 -2 -1 -2 -1 -3 -1 -2 -1 0 -1 -3 -2 -2 -1 0 -1 -3 -1 -2 -1 0 -1 -2 -1 0 -1 -2 -2 0 -1 -3 -1 0 -1 0 -2 -2 -1 0 -1 0 -1 -2 -2 0 -1 0 -1 0 -1 -2 -1 0 -1 0 -1 0 -1 0 -2 0 -1 0 -1 0 -1 0 -2 0 -2 0 -1 0 -1 0 -1 0 -2 0 -1 0 -1 0 -1 0 -1 0 -1 0 -2 2 -1 0 -1 0 -1 0 -2 2 0 0 -2 0 -1 2 -1 0 -1 0 -2 3 -1 0 -1 2 -1 0 -1 2 -1 0 -1 2 -1 3 -2 0 -1 2 -1 3 -1 0 -1 2 -2 3 -1 2 -2 2 -1 2 -1 3 -1 2 0 2 -2 5 -1 3 -1 4 -1 2 -2 6 -1 4 -1 5 -1 7 -1 9 -1 24 1 20 1 10 1 8 1 4 1 6 2 4 1 2 1 4 1 3 2 4 0 3 1 2 1 3 1 2 2 2 1 2 2 3 1 2 1 0 1 3 1 2 2 0 1 3 1 2 1 0 1 2 1 0 1 3 1 0 2 2 1 0 1 0 1 2 2 0 0 0 2 2 1 0 1 0 1 0 2 3 1 0 1 0 1 0 1 0 1 0 2 0 1 0 1 0 1 0 2 0 2 0 1 0 1 0 1 0 2 0 1 0 1 0 1 0 1 0 1 -3 1 0 1 0 2 0 1 -2 1 0 1 0 2 -2 1 0 1 0 1 -2 2 0 1 -3 1 0 1 -2 1 0 1 -2 1 -3 1 0 2 -2 1 -3 1 0 1 -2 1 -3 1 -2 2 -2 1 -2 1 -3 1 -2 1 -3 1 -4 2 -3 1 -4 1 -2 1 -4 2 -6 0 -4 2 -8 1 -10 2 -20 0 0" stroke="#F0F0F0" stroke-width="20" fill="#F0F0F0" />
    <path d="M 21683 22130 l -1 -24 -1 -9 0 -7 -1 -5 -1 -4 0 -6 -1 -2 0 -4 -1 -3 -1 -5 0 -2 -1 -2 -1 -3 0 -2 -1 -2 0 -2 -1 -3 0 -2 -1 0 0 -3 -1 -2 -1 0 0 -3 -1 -2 -1 -2 0 0 -1 -2 0 0 -1 -3 -1 0 0 0 -1 -2 0 0 -1 0 -1 -2 -1 0 0 0 -1 0 0 -2 -1 0 0 0 -1 0 0 0 -1 0 -1 0 0 0 -1 0 0 0 -1 0 -1 0 -1 0 0 0 -1 0 0 0 -1 0 -1 0 0 0 -1 0 -1 2 0 0 -1 0 0 0 -1 2 0 0 -1 0 0 2 -1 0 -1 0 0 3 -1 0 -1 2 0 0 -1 2 0 0 -1 2 -1 3 0 0 0 2 -1 3 -1 0 0 2 -1 3 -1 2 0 2 -1 2 0 3 -1 2 -1 2 0 5 -1 3 -1 4 0 2 -1 6 0 4 -1 5 0 7 -1 9 0 24 0 20 1 10 0 8 1 4 0 6 1 4 0 2 1 4 1 3 0 4 1 3 1 2 0 3 1 2 0 2 1 2 1 3 0 2 1 0 1 3 0 2 0 0 1 3 1 2 0 0 1 2 0 0 1 3 1 0 0 2 1 0 1 0 0 2 1 0 0 0 1 2 0 0 1 0 0 0 1 3 1 0 0 0 1 0 1 0 0 0 1 0 0 0 1 0 1 0 1 0 0 0 1 0 0 0 1 0 1 0 0 0 1 0 0 0 1 0 0 -3 1 0 0 0 1 0 1 -2 1 0 0 0 1 -2 0 0 1 0 1 -2 0 0 1 -3 0 0 1 -2 1 -2 0 -3 1 0 1 -2 0 -3 1 0 0 -2 1 -3 0 -2 1 -2 0 -2 1 -3 1 -2 0 -3 1 -4 1 -3 0 -4 1 -2 0 -4 1 -6 1 -4 0 -8 1 -10 1 -20 0 0" stroke="#FFFFFF" stroke-width="20" fill="#FFFFFF" />
    <path d="M 21952 23291 l -6 -24 -6 -9 -6 -7 -6 -6 -6 -4 -6 -5 -6 -2 -6 -4 -6 -3 -6 -5 -6 -2 -6 -3 -5 -2 -7 -2 -5 -2 -6 -3 -7 -2 -5 -3 -7 0 -5 -2 -6 -3 -6 0 -6 -2 -6 -2 -6 0 -6 -3 -6 0 -6 -2 -6 0 -6 -2 -6 0 -6 0 -6 -2 -6 0 -5 0 -7 -2 -5 0 -6 0 -6 0 -6 -2 -6 0 -6 0 -6 0 -6 0 -6 0 -6 0 -6 0 -6 0 -6 0 -12 0 -5 0 -7 0 -5 0 -6 0 -7 0 -5 0 -6 0 -6 0 -6 0 -6 2 -6 0 -6 0 -6 0 -6 2 -6 0 -6 0 -6 2 -6 0 -6 0 -6 2 -5 0 -7 2 -5 0 -6 3 -6 0 -6 2 -6 2 -6 0 -6 3 -6 2 -6 0 -6 3 -6 2 -6 3 -6 2 -6 2 -6 2 -5 3 -7 2 -5 5 -6 3 -6 4 -6 2 -6 5 -6 4 -6 6 -6 7 -6 9 -5 24 5 20 6 10 6 8 6 4 6 6 6 4 6 2 6 5 6 2 5 4 7 4 5 2 6 2 6 2 6 3 6 2 6 2 6 3 6 0 6 2 6 3 6 0 6 2 6 2 6 0 6 3 5 0 7 2 5 0 6 2 6 0 6 0 6 2 6 0 6 0 6 3 6 0 6 0 6 0 6 2 6 0 6 0 6 0 5 0 7 0 6 0 5 0 7 0 5 0 12 0 6 0 6 0 6 0 6 0 6 0 6 0 6 0 6 0 6 0 6 -2 6 0 6 0 5 0 7 -3 5 0 6 0 6 -2 6 0 6 0 6 -2 6 0 6 -2 6 0 6 -3 6 0 6 -2 6 -2 6 0 6 -3 5 -2 7 0 5 -3 7 -2 6 -2 5 -3 7 -2 5 -2 6 -2 6 -4 6 -4 6 -2 6 -5 6 -2 6 -4 6 -6 6 -4 6 -8 6 -10 6 -20 0 0" stroke="#000000" stroke-width="20" fill="#000000" />
    <path d="M 21922 23291 l -5 -24 -6 -9 -5 -8 -5 -5 -6 -4 -5 -5 -6 -2 -5 -4 -5 -3 -6 -5 -5 -2 -5 -3 -6 -2 -5 -2 -5 -3 -6 -2 -5 -2 -5 -3 -6 0 -5 -3 -5 -2 -6 0 -5 -2 -6 -2 -5 0 -5 -3 -6 0 -5 -2 -5 0 -6 -2 -5 0 -5 0 -5 -3 -6 0 -5 0 -6 -2 -5 0 -6 0 -5 0 -5 -1 -6 0 -5 0 -5 0 -6 0 -5 0 -5 0 -5 0 -6 0 -5 0 -11 0 -5 0 -6 0 -5 0 -6 0 -5 0 -5 0 -6 0 -5 0 -5 0 -5 1 -6 0 -5 0 -5 0 -6 2 -5 0 -6 0 -6 3 -5 0 -5 0 -6 2 -5 0 -5 2 -6 0 -4 3 -6 0 -5 2 -5 2 -6 0 -5 2 -6 3 -5 0 -5 3 -6 2 -6 2 -5 3 -5 2 -5 2 -6 3 -5 2 -6 5 -5 3 -5 4 -6 2 -5 5 -6 4 -5 5 -5 8 -6 9 -4 24 4 20 6 10 5 7 5 4 6 6 5 4 6 3 5 4 5 2 6 5 5 3 6 2 5 2 5 3 5 2 6 2 6 3 5 2 5 0 6 3 5 2 6 0 5 3 5 2 6 0 4 2 6 0 5 3 5 0 6 2 5 0 5 0 6 2 6 0 5 0 6 2 5 0 5 0 6 0 5 3 5 0 5 0 6 0 5 0 5 0 6 0 5 0 6 0 5 0 11 0 5 0 6 0 5 0 5 0 5 0 6 0 5 0 5 0 6 0 5 -3 5 0 6 0 5 0 6 -2 5 0 6 0 5 -2 5 0 5 0 6 -2 5 0 5 -3 6 0 5 -2 5 0 6 -2 5 -3 6 0 5 -2 5 -3 6 0 5 -2 5 -3 6 -2 5 -2 5 -3 6 -2 5 -2 5 -3 6 -5 5 -2 5 -4 6 -3 5 -4 6 -6 5 -4 5 -7 6 -10 5 -20 0 0" stroke="#3C3C3C" stroke-width="20" fill="#3C3C3C" />
    <path d="M 21893 23291 l -5 -24 -5 -9 -5 -7 -4 -6 -5 -4 -5 -5 -5 -2 -4 -4 -5 -3 -5 -5 -5 -2 -4 -3 -5 -2 -5 -2 -5 -2 -4 -3 -5 -2 -5 -3 -5 0 -4 -2 -5 -3 -5 0 -5 -2 -4 -2 -5 0 -5 -3 -4 0 -5 -2 -5 0 -5 -2 -4 0 -5 0 -5 -2 -5 0 -5 0 -5 -2 -4 0 -5 0 -5 0 -5 -2 -4 0 -5 0 -5 0 -5 0 -4 0 -5 0 -5 0 -5 0 -4 0 -10 0 -5 0 -5 0 -4 0 -5 0 -5 0 -5 0 -5 0 -5 0 -4 0 -5 2 -5 0 -5 0 -4 0 -5 2 -5 0 -5 0 -4 2 -5 0 -5 0 -5 2 -4 0 -5 2 -5 0 -5 3 -4 0 -5 2 -5 2 -5 0 -4 3 -5 2 -5 0 -5 3 -4 2 -5 3 -5 2 -4 2 -6 2 -4 3 -5 2 -5 5 -5 3 -4 4 -5 2 -5 5 -5 4 -4 6 -5 7 -5 9 -5 24 5 20 5 10 5 8 4 4 5 6 5 4 5 2 4 5 5 2 5 4 5 4 4 2 6 2 4 2 5 3 5 2 4 2 5 3 5 0 5 2 4 3 5 0 5 2 5 2 4 0 5 3 5 0 5 2 4 0 5 2 5 0 5 0 4 2 5 0 5 0 5 3 4 0 5 0 5 0 5 2 4 0 5 0 5 0 5 0 5 0 5 0 4 0 5 0 5 0 10 0 4 0 5 0 5 0 5 0 4 0 5 0 5 0 5 0 4 0 5 -2 5 0 5 0 4 0 5 -3 5 0 5 0 5 -2 5 0 4 0 5 -2 5 0 5 -2 4 0 5 -3 5 0 4 -2 5 -2 5 0 5 -3 4 -2 5 0 5 -3 5 -2 4 -2 5 -3 5 -2 5 -2 4 -2 5 -4 5 -4 5 -2 4 -5 5 -2 5 -4 5 -6 4 -4 5 -8 5 -10 5 -20 0 0" stroke="#5A5A5A" stroke-width="20" fill="#5A5A5A" />
    <path d="M 21861 23291 l -4 -24 -4 -9 -4 -7 -4 -6 -5 -4 -4 -5 -4 -2 -4 -4 -4 -3 -4 -5 -4 -2 -5 -3 -4 -2 -4 -2 -4 -2 -4 -3 -4 -2 -5 -3 -4 0 -4 -2 -4 -3 -4 0 -5 -2 -4 -2 -4 0 -4 -3 -4 0 -4 -2 -4 0 -4 -2 -5 0 -4 0 -4 -2 -4 0 -4 0 -5 -2 -4 0 -4 0 -4 0 -4 -2 -4 0 -5 0 -4 0 -4 0 -4 0 -4 0 -4 0 -4 0 -5 0 -7 0 -5 0 -4 0 -4 0 -4 0 -4 0 -4 0 -5 0 -4 0 -4 0 -4 2 -4 0 -5 0 -3 0 -5 2 -4 0 -4 0 -4 2 -4 0 -4 0 -5 2 -4 0 -4 2 -4 0 -4 3 -5 0 -4 2 -4 2 -4 0 -4 3 -4 2 -4 0 -5 3 -4 2 -4 3 -4 2 -4 2 -4 2 -5 3 -4 2 -4 5 -4 3 -4 4 -5 2 -4 5 -4 4 -4 6 -4 7 -4 9 -4 24 4 20 4 10 4 8 4 4 4 6 4 4 5 2 4 5 4 2 4 4 4 4 5 2 4 2 4 2 4 3 4 2 4 2 5 3 4 0 4 2 4 3 4 0 4 2 4 2 5 0 4 3 4 0 4 2 4 0 5 2 4 0 4 0 4 2 4 0 4 0 5 3 3 0 5 0 4 0 4 2 4 0 4 0 5 0 4 0 4 0 4 0 4 0 4 0 5 0 7 0 5 0 4 0 4 0 4 0 4 0 4 0 4 0 5 0 4 0 4 -2 4 0 4 0 4 0 5 -3 4 0 4 0 4 -2 4 0 5 0 4 -2 4 0 4 -2 4 0 4 -3 4 0 4 -2 5 -2 4 0 4 -3 4 -2 4 0 5 -3 4 -2 4 -2 4 -3 4 -2 4 -2 5 -2 4 -4 4 -4 4 -2 4 -5 4 -2 4 -4 5 -6 4 -4 4 -8 4 -10 4 -20 0 0" stroke="#808080" stroke-width="20" fill="#808080" />
    <path d="M 21832 23291 l -4 -24 -4 -9 -3 -7 -4 -6 -3 -4 -4 -5 -3 -2 -4 -4 -3 -3 -4 -5 -4 -2 -3 -3 -4 -2 -3 -2 -4 -2 -4 -3 -2 -2 -4 -3 -3 0 -4 -2 -4 -3 -3 0 -4 -2 -4 -2 -3 0 -4 -3 -3 0 -4 -2 -4 0 -3 -2 -4 0 -3 0 -4 -2 -3 0 -4 0 -3 -2 -4 0 -3 0 -4 0 -3 -2 -4 0 -4 0 -3 0 -4 0 -3 0 -4 0 -4 0 -3 0 -4 0 -7 0 -4 0 -3 0 -4 0 -3 0 -4 0 -3 0 -4 0 -3 0 -4 0 -3 2 -4 0 -3 0 -4 0 -4 2 -3 0 -4 0 -3 2 -4 0 -4 0 -3 2 -4 0 -4 2 -3 0 -4 3 -3 0 -4 2 -3 2 -4 0 -3 3 -4 2 -3 0 -4 3 -3 2 -4 3 -4 2 -3 2 -4 2 -3 3 -4 2 -4 5 -3 3 -4 4 -3 2 -4 5 -4 4 -3 6 -4 7 -3 9 -3 24 3 20 3 10 4 8 3 4 4 6 4 4 3 2 4 5 3 2 4 4 4 4 3 2 4 2 3 2 4 3 4 2 3 2 4 3 3 0 4 2 3 3 4 0 3 2 4 2 3 0 4 3 3 0 4 2 4 0 3 2 4 0 4 0 3 2 4 0 3 0 4 3 4 0 3 0 4 0 3 2 4 0 3 0 4 0 3 0 4 0 3 0 4 0 3 0 4 0 7 0 4 0 3 0 4 0 4 0 3 0 4 0 3 0 4 0 4 0 3 -2 4 0 3 0 4 0 3 -3 4 0 3 0 4 -2 3 0 4 0 3 -2 4 0 4 -2 3 0 4 -3 3 0 4 -2 4 -2 3 0 4 -3 4 -2 3 0 4 -3 2 -2 4 -2 4 -3 3 -2 4 -2 3 -2 4 -4 4 -4 3 -2 4 -5 3 -2 4 -4 3 -6 4 -4 3 -8 4 -10 4 -20 0 0" stroke="#969696" stroke-width="20" fill="#969696" />
    <path d="M 21803 23291 l -3 -24 -3 -9 -3 -7 -3 -6 -3 -4 -3 -5 -3 -2 -3 -4 -3 -3 -3 -5 -3 -2 -3 -3 -2 -2 -4 -2 -3 -2 -3 -3 -2 -2 -4 -3 -3 0 -2 -2 -3 -3 -4 0 -2 -2 -3 -2 -4 0 -2 -3 -3 0 -3 -2 -3 0 -3 -2 -3 0 -3 0 -3 -2 -3 0 -3 0 -3 -2 -3 0 -3 0 -3 0 -3 -2 -3 0 -3 0 -3 0 -3 0 -3 0 -3 0 -3 0 -3 0 -3 0 -6 0 -3 0 -3 0 -2 0 -4 0 -3 0 -2 0 -3 0 -4 0 -2 0 -3 2 -4 0 -2 0 -3 0 -3 2 -3 0 -3 0 -3 2 -3 0 -3 0 -3 2 -3 0 -3 2 -3 0 -3 3 -3 0 -3 2 -3 2 -3 0 -3 3 -3 2 -3 0 -3 3 -3 2 -3 3 -3 2 -3 2 -3 2 -3 3 -3 2 -2 5 -4 3 -3 4 -2 2 -3 5 -4 4 -2 6 -3 7 -4 9 -2 24 2 20 4 10 3 8 2 4 4 6 3 4 2 2 3 5 4 2 2 4 3 4 3 2 3 2 3 2 3 3 3 2 3 2 3 3 3 0 3 2 3 3 3 0 3 2 3 2 3 0 3 3 3 0 3 2 3 0 3 2 3 0 3 0 3 2 3 0 3 0 3 3 3 0 2 0 4 0 3 2 2 0 4 0 3 0 2 0 3 0 4 0 2 0 3 0 3 0 6 0 3 0 3 0 3 0 3 0 3 0 3 0 3 0 3 0 3 0 3 -2 3 0 3 0 3 0 3 -3 3 0 3 0 3 -2 3 0 3 0 3 -2 3 0 3 -2 3 0 2 -3 4 0 3 -2 2 -2 4 0 3 -3 2 -2 3 0 4 -3 2 -2 3 -2 3 -3 4 -2 2 -2 3 -2 3 -4 3 -4 3 -2 3 -5 3 -2 3 -4 3 -6 3 -4 3 -8 3 -10 3 -20 0 0" stroke="#C0C0C0" stroke-width="20" fill="#C0C0C0" />
    <path d="M 21774 23291 l -3 -24 -3 -9 -2 -7 -2 -6 -3 -4 -2 -5 -3 -2 -2 -4 -2 -3 -3 -5 -2 -2 -2 -3 -3 -2 -2 -2 -3 -2 -2 -3 -2 -2 -3 -3 -2 0 -2 -2 -3 -3 -2 0 -3 -2 -2 -2 -2 0 -3 -3 -2 0 -2 -2 -3 0 -2 -2 -2 0 -3 0 -2 -2 -3 0 -2 0 -2 -2 -3 0 -2 0 -2 0 -3 -2 -2 0 -3 0 -2 0 -2 0 -3 0 -2 0 -2 0 -3 0 -2 0 -5 0 -2 0 -3 0 -2 0 -2 0 -3 0 -2 0 -2 0 -3 0 -2 0 -3 2 -2 0 -3 0 -2 0 -3 2 -2 0 -2 0 -3 2 -3 0 -2 0 -2 2 -3 0 -2 2 -2 0 -2 3 -3 0 -2 2 -2 2 -3 0 -2 3 -3 2 -2 0 -2 3 -3 2 -2 3 -3 2 -2 2 -3 2 -2 3 -2 2 -3 5 -2 3 -2 4 -3 2 -2 5 -3 4 -2 6 -2 7 -3 9 -2 24 2 20 3 10 2 8 2 4 3 6 2 4 3 2 2 5 2 2 3 4 2 4 2 2 3 2 2 2 3 3 2 2 3 2 2 3 2 0 3 2 2 3 3 0 2 2 2 2 3 0 2 3 2 0 2 2 3 0 2 2 2 0 3 0 3 2 2 0 2 0 3 3 2 0 3 0 2 0 3 2 2 0 3 0 2 0 2 0 3 0 2 0 2 0 3 0 2 0 5 0 2 0 3 0 2 0 2 0 3 0 2 0 2 0 3 0 2 0 3 -2 2 0 2 0 3 0 2 -3 2 0 3 0 2 -2 3 0 2 0 2 -2 3 0 2 -2 2 0 3 -3 2 0 2 -2 3 -2 2 0 3 -3 2 -2 2 0 3 -3 2 -2 2 -2 3 -3 2 -2 3 -2 2 -2 2 -4 3 -4 2 -2 2 -5 3 -2 2 -4 3 -6 2 -4 2 -8 3 -10 3 -20 0 0" stroke="#D2D2D2" stroke-width="20" fill="#D2D2D2" />
    <path d="M 21745 23291 l -3 -24 -1 -9 -2 -7 -2 -6 -2 -4 -2 -5 -1 -2 -2 -4 -2 -3 -2 -5 -1 -2 -2 -3 -2 -2 -2 -2 -1 -2 -2 -3 -2 -2 -3 -3 -2 0 -1 -2 -2 -3 -2 0 -2 -2 -2 -2 0 0 -2 -3 -2 0 -2 -2 -2 0 -1 -2 -2 0 -2 0 -2 -2 -2 0 -2 0 -2 -2 -1 0 -2 0 -2 0 -2 -2 -1 0 -2 0 -2 0 -2 0 -2 0 -1 0 -2 0 -2 0 -2 0 -3 0 -2 0 -2 0 -2 0 -2 0 -1 0 -2 0 -2 0 -2 0 -2 0 -1 2 -2 0 -2 0 -2 0 -2 2 -1 0 -2 0 -2 2 -2 0 -2 0 -2 2 -1 0 -2 2 -2 0 -1 3 -2 0 -2 2 -2 2 -1 0 -2 3 -2 2 -2 0 -1 3 -3 2 -2 3 -1 2 -2 2 -2 2 -2 3 -2 2 -2 5 -1 3 -2 4 -2 2 -2 5 -2 4 -1 6 -2 7 -2 9 -1 24 1 20 2 10 2 8 1 4 2 6 2 4 2 2 2 5 1 2 2 4 2 4 2 2 2 2 2 2 1 3 2 2 3 2 1 3 2 0 2 2 2 3 1 0 2 2 2 2 2 0 1 3 2 0 2 2 1 0 2 2 2 0 2 0 2 2 2 0 1 0 2 3 2 0 2 0 2 0 1 2 2 0 2 0 2 0 2 0 1 0 2 0 2 0 2 0 2 0 3 0 2 0 2 0 2 0 1 0 2 0 2 0 2 0 2 0 1 0 2 -2 2 0 2 0 1 0 2 -3 2 0 2 0 2 -2 2 0 2 0 1 -2 2 0 2 -2 2 0 2 -3 0 0 2 -2 2 -2 2 0 2 -3 1 -2 2 0 3 -3 2 -2 2 -2 1 -3 2 -2 2 -2 2 -2 1 -4 2 -4 2 -2 2 -5 1 -2 2 -4 2 -6 2 -4 2 -8 1 -10 3 -20 0 0" stroke="#DEDEDE" stroke-width="20" fill="#DEDEDE" />
    <path d="M 21714 23291 l -2 -25 -1 -9 -2 -7 0 -5 -2 -4 -1 -6 -1 -2 -1 -4 -2 -3 -1 -5 -1 -2 -1 -2 -1 -3 -1 -2 -2 -2 -1 -2 -1 -2 -1 -3 -1 0 -1 -3 -2 -2 -1 0 -1 -2 -1 -2 -1 0 -1 -3 -1 0 -1 -2 -2 0 -1 -2 -1 0 -1 0 -2 -3 -1 0 -1 0 -1 -2 -2 0 -1 0 -1 0 -1 -2 -1 0 -1 0 -1 0 -1 0 -2 0 -1 0 -1 0 -1 0 -2 0 -2 0 -1 0 -1 0 -1 0 -2 0 -1 0 -1 0 -1 0 -1 0 -1 0 -2 2 -1 0 -1 0 -1 0 -2 2 0 0 -2 0 -1 3 -1 0 -1 0 -2 2 -1 0 -1 2 -1 0 -1 3 -1 0 -1 2 -1 2 -2 0 -1 2 -1 3 -1 0 -1 3 -2 2 -1 2 -2 2 -1 2 -1 3 -1 2 0 2 -2 5 -1 3 -1 4 -1 2 -2 6 -1 4 -1 5 -1 7 -1 9 -1 25 1 20 1 10 1 7 1 4 1 6 2 4 1 3 1 4 1 2 2 5 0 3 1 2 1 2 1 3 2 2 1 2 2 2 1 3 1 0 1 2 1 3 2 0 1 2 1 3 1 0 1 2 1 0 1 2 1 0 2 2 1 0 1 0 1 3 2 0 0 0 2 2 1 0 1 0 1 0 2 3 1 0 1 0 1 0 1 0 1 0 2 0 1 0 1 0 1 0 2 0 2 0 1 0 1 0 1 0 2 0 1 0 1 0 1 0 1 0 1 -3 1 0 1 0 2 0 1 -2 1 0 1 0 2 -3 1 0 1 0 1 -2 2 0 1 -2 1 0 1 -2 1 0 1 -3 1 -2 1 0 2 -3 1 -2 1 0 1 -3 1 -2 1 -2 2 -2 1 -3 1 -2 1 -2 1 -3 1 -5 2 -2 1 -4 1 -3 1 -4 2 -6 0 -4 2 -7 1 -10 2 -20 0 0" stroke="#F0F0F0" stroke-width="20" fill="#F0F0F0" />
    <path d="M 21683 23291 l -1 -25 -1 -9 0 -7 -1 -5 -1 -4 0 -6 -1 -2 0 -4 -1 -3 -1 -5 0 -2 -1 -2 -1 -3 0 -2 -1 -2 0 -2 -1 -2 0 -3 -1 0 0 -3 -1 -2 -1 0 0 -2 -1 -2 -1 -3 0 0 -1 -2 0 0 -1 -2 -1 0 0 0 -1 -3 0 0 -1 0 -1 -2 -1 0 0 0 -1 0 0 -2 -1 0 0 0 -1 0 0 0 -1 0 -1 0 0 0 -1 0 0 0 -1 0 -1 0 -1 0 0 0 -1 0 0 0 -1 0 -1 0 0 0 -1 0 -1 2 0 0 -1 0 0 0 -1 2 0 0 -1 0 0 3 -1 0 -1 0 0 2 -1 0 -1 2 0 0 -1 3 0 0 -1 2 -1 2 0 0 0 2 -1 3 -1 0 0 3 -1 2 -1 2 0 2 -1 2 0 3 -1 2 -1 2 0 5 -1 3 -1 4 0 2 -1 6 0 4 -1 5 0 7 -1 9 0 25 0 20 1 10 0 7 1 4 0 6 1 4 0 3 1 4 1 2 0 5 1 3 1 2 0 2 1 3 0 2 1 2 1 2 0 3 1 0 1 2 0 3 0 0 1 2 1 3 0 0 1 2 0 0 1 2 1 0 0 2 1 0 1 0 0 3 1 0 0 0 1 2 0 0 1 0 0 0 1 3 1 0 0 0 1 0 1 0 0 0 1 0 0 0 1 0 1 0 1 0 0 0 1 0 0 0 1 0 1 0 0 0 1 0 0 0 1 0 0 -3 1 0 0 0 1 0 1 -2 1 0 0 0 1 -3 0 0 1 0 1 -2 0 0 1 -2 0 0 1 -2 1 -3 0 -2 1 0 1 -3 0 -2 1 0 0 -3 1 -2 0 -2 1 -2 0 -3 1 -2 1 -2 0 -3 1 -5 1 -2 0 -4 1 -3 0 -4 1 -6 1 -4 0 -7 1 -10 1 -20 0 0" stroke="#FFFFFF" stroke-width="20" fill="#FFFFFF" />
    <path d="M 21533 22130 l 31 0 0 1157 -31 0 0 -1157 0 0" stroke="#D2D2D2" stroke-width="20" fill="#D2D2D2" />
    <path d="M 21594 22131 l 31 0 0 1158 -31 0 0 -1158 0 0" stroke="#F0F0F0" stroke-width="20" fill="#F0F0F0" />
    <path d="M 21564 22131 l 31 0 0 1158 -31 0 0 -1158 0 0" stroke="#DEDEDE" stroke-width="20" fill="#DEDEDE" />
    <path d="M 21623 22131 l 31 0 0 1158 -31 0 0 -1158 0 0" stroke="#FFFFFF" stroke-width="20" fill="#FFFFFF" />
    <path d="M 21358 22131 l 29 0 0 1158 -29 0 0 -1158 0 0" stroke="#000000" stroke-width="20" fill="#000000" />
    <path d="M 21386 22131 l 31 0 0 1158 -31 0 0 -1158 0 0" stroke="#3C3C3C" stroke-width="20" fill="#3C3C3C" />
    <path d="M 21416 22131 l 31 0 0 1158 -31 0 0 -1158 0 0" stroke="#5A5A5A" stroke-width="20" fill="#5A5A5A" />
    <path d="M 21446 22131 l 30 0 0 1158 -30 0 0 -1158 0 0" stroke="#808080" stroke-width="20" fill="#808080" />
    <path d="M 21475 22131 l 31 0 0 1158 -31 0 0 -1158 0 0" stroke="#969696" stroke-width="20" fill="#969696" />
    <path d="M 21505 22131 l 30 0 0 1158 -30 0 0 -1158 0 0" stroke="#C0C0C0" stroke-width="20" fill="#C0C0C0" />
    <path d="M 21774 22131 l -30 0 0 1158 30 0 0 -1158 0 0" stroke="#D2D2D2" stroke-width="20" fill="#D2D2D2" />
    <path d="M 21714 22132 l -31 0 0 1159 31 0 0 -1159 0 0" stroke="#F0F0F0" stroke-width="20" fill="#F0F0F0" />
    <path d="M 21744 22132 l -31 0 0 1159 31 0 0 -1159 0 0" stroke="#DEDEDE" stroke-width="20" fill="#DEDEDE" />
    <path d="M 21684 22132 l -30 0 0 1159 30 0 0 -1159 0 0" stroke="#FFFFFF" stroke-width="20" fill="#FFFFFF" />
    <path d="M 21952 22132 l -31 0 0 1159 31 0 0 -1159 0 0" stroke="#000000" stroke-width="20" fill="#000000" />
    <path d="M 21922 22132 l -31 0 0 1159 31 0 0 -1159 0 0" stroke="#3C3C3C" stroke-width="20" fill="#3C3C3C" />
    <path d="M 21892 22132 l -31 0 0 1159 31 0 0 -1159 0 0" stroke="#5A5A5A" stroke-width="20" fill="#5A5A5A" />
    <path d="M 21863 22132 l -32 0 0 1159 32 0 0 -1159 0 0" stroke="#808080" stroke-width="20" fill="#808080" />
    <path d="M 21833 22132 l -31 0 0 1159 31 0 0 -1159 0 0" stroke="#969696" stroke-width="20" fill="#969696" />
    <path d="M 21803 22132 l -31 0 0 1159 31 0 0 -1159 0 0" stroke="#C0C0C0" stroke-width="20" fill="#C0C0C0" />
  </g>
  <rect x="21340" y="22260" width="600" height="900" stroke="#000000" stroke-width="20" fill="none" />
  <path d="M 21340 22720 l 320 0" stroke="#000000" stroke-width="20" fill="none" />
  <path d="M 21600 22500 l 320 0" stroke="#000000" stroke-width="20" fill="none" />
  <path d="M 21600 22940 l 320 0" stroke="#000000" stroke-width="20" fill="none" />
  <path id="POLYGON712" d="M 21640 23440 l 0 860" stroke="#000000" stroke-width="80" fill="none" />
  <path id="POLYGON713" d="M 18260 16500 l 0 7840" stroke="#000000" stroke-width="40" fill="none" />
  <g id="TEXT106">
    <rect x="2420" y="16440" width="1460" height="560" stroke-width="0" fill="none" id="TEXT106_pbTextBoundingRectEl" />
    <text fill="#000000" font-family="Helvetica" font-size="352" text-anchor="middle" x="3150" y="16896" id="TEXT106_pbTextEl">生产水</text>
  </g>
  <g id="TEXT107">
    <rect x="2420" y="17700" width="1460" height="560" stroke-width="0" fill="none" id="TEXT107_pbTextBoundingRectEl" />
    <text fill="#000000" font-family="Helvetica" font-size="352" text-anchor="middle" x="3150" y="18156" id="TEXT107_pbTextEl">循环水</text>
  </g>
  <g id="TEXT108">
    <rect x="2420" y="19140" width="1460" height="560" stroke-width="0" fill="none" id="TEXT108_pbTextBoundingRectEl" />
    <text fill="#000000" font-family="Helvetica" font-size="352" text-anchor="middle" x="3150" y="19596" id="TEXT108_pbTextEl">循环水</text>
  </g>
  <path id="POLYGON716" d="M 50440 16260 l 0 -11040" stroke="#80FFFF" stroke-width="40" fill="none" />
  <rect x="49840" y="7180" width="1220" height="1940" stroke="#000000" stroke-width="20" fill="#C0C0C0" />
  <path d="M 49840 8180 l 600 0" stroke="#000000" stroke-width="20" fill="none" />
  <path d="M 50320 7700 l 640 0" stroke="#000000" stroke-width="20" fill="none" />
  <path d="M 50320 8660 l 640 0" stroke="#000000" stroke-width="20" fill="none" />
  <rect x="52440" y="11300" width="3000" height="400" stroke="#0000FF" stroke-width="20" fill="none" id="RECTANGLE145" />
  <rect x="52440" y="11700" width="3000" height="400" stroke="#0000FF" stroke-width="20" fill="none" id="RECTANGLE146" />
  <g id="TEXT109">
    <rect x="52240" y="11240" width="3400" height="560" stroke-width="0" fill="none" id="TEXT109_pbTextBoundingRectEl" />
    <text fill="#000000" font-family="Helvetica" font-size="352" text-anchor="middle" x="53940" y="11696" id="TEXT109_pbTextEl">590-UVT1002A</text>
  </g>
  <g name="Valve1">
    <path d="M 50680 11718 l 0 -282 0 0 23 2 24 5 24 5 24 9 20 12 20 14 19 18 17 19 15 19 13 22 12 23 12 25 9 26 5 26 3 28 2 29 0 0 -2 30 -3 28 -5 26 -9 26 -12 24 -12 25 -13 21 -15 21 -17 19 -19 14 -20 15 -20 11 -24 12 -24 5 -24 5 -23 2 0 -284" stroke="#000000" stroke-width="20" fill="#000000" />
    <path d="M 50245 11375 l 303 0 -303 692 303 0 -303 -692" stroke="#000000" stroke-width="20" fill="#000000" />
    <path d="M 50397 11718 l 17 40 264 0 0 -76 -264 0 -17 40 0 -4" stroke="#000000" stroke-width="20" fill="#000000" />
  </g>
  <rect x="52880" y="18120" width="3000" height="400" stroke="#0000FF" stroke-width="20" fill="none" id="RECTANGLE147" />
  <rect x="52880" y="18520" width="3000" height="400" stroke="#0000FF" stroke-width="20" fill="none" id="RECTANGLE148" />
  <g id="TEXT110">
    <rect x="52680" y="18060" width="3400" height="560" stroke-width="0" fill="none" id="TEXT110_pbTextBoundingRectEl" />
    <text fill="#000000" font-family="Helvetica" font-size="352" text-anchor="middle" x="54380" y="18516" id="TEXT110_pbTextEl">590-PI1004A</text>
  </g>
  <g id="TEXT111">
    <rect x="51280" y="7820" width="3400" height="560" stroke-width="0" fill="none" id="TEXT111_pbTextBoundingRectEl" />
    <text fill="#000000" font-family="Helvetica" font-size="352" text-anchor="middle" x="52980" y="8276" id="TEXT111_pbTextEl">5900-SIL-001A</text>
  </g>
  <g id="TEXT112">
    <rect x="54420" y="15500" width="3400" height="560" stroke-width="0" fill="none" id="TEXT112_pbTextBoundingRectEl" />
    <text fill="#000000" font-family="Helvetica" font-size="352" text-anchor="middle" x="56120" y="15956" id="TEXT112_pbTextEl">装置空气缓冲罐</text>
  </g>
  <g id="TEXT113">
    <rect x="32140" y="26240" width="1620" height="560" stroke-width="0" fill="none" id="TEXT113_pbTextBoundingRectEl" />
    <text fill="#000000" font-family="Helvetica" font-size="352" text-anchor="middle" x="32950" y="26696" id="TEXT113_pbTextEl">辅油泵</text>
  </g>
  <g id="TEXT114">
    <rect x="28120" y="26240" width="1620" height="560" stroke-width="0" fill="none" id="TEXT114_pbTextBoundingRectEl" />
    <text fill="#000000" font-family="Helvetica" font-size="352" text-anchor="middle" x="28930" y="26696" id="TEXT114_pbTextEl">轴头泵</text>
  </g>
  <path id="ELLIPSE63" d="M 13426 25500 l -42 -13 -26 -14 -21 -13 -17 -13 -15 -14 -12 -13 -10 -13 -10 -14 -8 -13 -7 -13 -6 -14 -5 -13 -4 -13 -3 -14 -3 -13 -2 -13 -1 -14 0 -13 0 0 0 -13 1 -14 2 -13 3 -13 3 -14 4 -13 5 -13 6 -14 7 -13 8 -13 10 -14 10 -13 12 -13 15 -14 17 -13 21 -13 26 -14 42 -13 108 0 42 13 26 14 21 13 17 13 15 14 12 13 10 13 10 14 8 13 7 13 6 14 5 13 4 13 3 14 3 13 2 13 1 14 0 13 0 0 0 13 -1 14 -2 13 -3 13 -3 14 -4 13 -5 13 -6 14 -7 13 -8 13 -10 14 -10 13 -12 13 -15 14 -17 13 -21 13 -26 14 -42 13 -108 0" stroke="#000000" stroke-width="20" fill="none" />
  <g id="TEXT115">
    <rect x="9680" y="24940" width="3400" height="560" stroke-width="0" fill="none" id="TEXT115_pbTextBoundingRectEl" />
    <text fill="#000000" font-family="Helvetica" font-size="352" text-anchor="middle" x="11380" y="25396" id="TEXT115_pbTextEl">1#空压机紧急停机</text>
  </g>
  <g id="TEXT116">
    <rect x="1160" y="2900" width="1460" height="560" stroke-width="0" fill="none" id="TEXT116_pbTextBoundingRectEl" />
    <text fill="#000000" font-family="Helvetica" font-size="352" text-anchor="middle" x="1890" y="3356" id="TEXT116_pbTextEl">密封气</text>
  </g>
  <g id="TEXT117">
    <rect x="1160" y="4340" width="1460" height="560" stroke-width="0" fill="none" id="TEXT117_pbTextBoundingRectEl" />
    <text fill="#000000" font-family="Helvetica" font-size="352" text-anchor="middle" x="1890" y="4796" id="TEXT117_pbTextEl">吹扫气</text>
  </g>
  <g id="TEXT118">
    <rect x="3240" y="6740" width="3400" height="560" stroke-width="0" fill="none" id="TEXT118_pbTextBoundingRectEl" />
    <text fill="#000000" font-family="Helvetica" font-size="352" text-anchor="middle" x="4940" y="7196" id="TEXT118_pbTextEl">5900-AF-001A</text>
  </g>
  <rect x="4680" y="9340" width="3000" height="400" stroke="#0000FF" stroke-width="20" fill="none" id="RECTANGLE149" />
  <rect x="4680" y="9740" width="3000" height="400" stroke="#0000FF" stroke-width="20" fill="none" id="RECTANGLE150" />
  <g id="TEXT119">
    <rect x="4480" y="9280" width="3400" height="560" stroke-width="0" fill="none" id="TEXT119_pbTextBoundingRectEl" />
    <text fill="#000000" font-family="Helvetica" font-size="352" text-anchor="middle" x="6180" y="9736" id="TEXT119_pbTextEl">590-TI1003A</text>
  </g>
  <rect x="1360" y="11540" width="3000" height="400" stroke="#0000FF" stroke-width="20" fill="none" id="RECTANGLE151" />
  <rect x="1360" y="11940" width="3000" height="400" stroke="#0000FF" stroke-width="20" fill="none" id="RECTANGLE152" />
  <g id="TEXT120">
    <rect x="1160" y="11480" width="3400" height="560" stroke-width="0" fill="none" id="TEXT120_pbTextBoundingRectEl" />
    <text fill="#000000" font-family="Helvetica" font-size="352" text-anchor="middle" x="2860" y="11936" id="TEXT120_pbTextEl">590-EI1001A</text>
  </g>
  <rect x="3540" y="14260" width="3000" height="400" stroke="#0000FF" stroke-width="20" fill="none" id="RECTANGLE153" />
  <rect x="3540" y="14660" width="3000" height="400" stroke="#0000FF" stroke-width="20" fill="none" id="RECTANGLE154" />
  <g id="TEXT121">
    <rect x="3340" y="14200" width="3400" height="560" stroke-width="0" fill="none" id="TEXT121_pbTextBoundingRectEl" />
    <text fill="#000000" font-family="Helvetica" font-size="352" text-anchor="middle" x="5040" y="14656" id="TEXT121_pbTextEl">590-TI1001A</text>
  </g>
  <rect x="7360" y="14260" width="3000" height="400" stroke="#0000FF" stroke-width="20" fill="none" id="RECTANGLE155" />
  <rect x="7360" y="14660" width="3000" height="400" stroke="#0000FF" stroke-width="20" fill="none" id="RECTANGLE156" />
  <g id="TEXT122">
    <rect x="7160" y="14200" width="3400" height="560" stroke-width="0" fill="none" id="TEXT122_pbTextBoundingRectEl" />
    <text fill="#000000" font-family="Helvetica" font-size="352" text-anchor="middle" x="8860" y="14656" id="TEXT122_pbTextEl">590-TI1002A</text>
  </g>
  <path id="POLYGON729" d="M 6160 10180 l 0 820" stroke="#000000" stroke-width="20" stroke-dasharray="60,60" fill="none" />
  <path id="POLYGON730" d="M 5000 12140 l 0 2060" stroke="#000000" stroke-width="20" stroke-dasharray="60,60" fill="none" />
  <path id="POLYGON731" d="M 8480 12160 l 0 2100" stroke="#000000" stroke-width="20" stroke-dasharray="60,60" fill="none" />
  <path id="POLYGON732" d="M 42180 11380 l 4520 0" stroke="#000000" stroke-width="20" stroke-dasharray="60,60" fill="none" />
  <path id="LINE732" d="M 42120 14280 l 4520 0" stroke="#000000" stroke-width="20" stroke-dasharray="60,60" fill="none" />
  <path id="POLYGON733" d="M 50980 11700 l 1460 0" stroke="#000000" stroke-width="20" stroke-dasharray="60,60" fill="none" />
  <path id="POLYGON734" d="M 54340 16400 l 0 1640" stroke="#000000" stroke-width="20" stroke-dasharray="60,60" fill="none" />
  <g name="DownArrow">
    <path d="M 50643 5225 l -486 0 243 -412 243 412 0 0" stroke="#000000" stroke-width="20" fill="#80FFFF" />
  </g>
  <g id="TEXT123">
    <rect x="25220" y="1220" width="6380" height="1720" stroke-width="0" fill="none" id="TEXT123_pbTextBoundingRectEl" />
    <text fill="#000000" font-family="Helvetica" font-size="800" text-anchor="middle" x="28410" y="2480" id="TEXT123_pbTextEl">空压机A</text>
  </g>
  <g id="DATAPOINT295" PB:IsMultiState="False" PBD:PtTagName="\\RTDBB\590_PDT_AM001A" PB:Type="7" PB:NumberFormat="0.00">
    <rect x="6560" y="5160" width="1060" height="260" stroke-width="0" fill="none" id="DATAPOINT295_pbTextBoundingRectEl" />
    <text fill="#000000" font-family="Helvetica" font-size="352" text-anchor="middle" x="7090" y="5466" id="DATAPOINT295_pbTextEl" PBD:Property="VAL">#.##</text>
  </g>
  <g id="DATAPOINT296" PB:IsMultiState="False" PBD:PtTagName="\\RTDBB\590_TI1003A" PB:Type="7" PB:NumberFormat="0.00">
    <rect x="5680" y="9760" width="1060" height="260" stroke-width="0" fill="none" id="DATAPOINT296_pbTextBoundingRectEl" />
    <text fill="#000000" font-family="Helvetica" font-size="352" text-anchor="middle" x="6210" y="10066" id="DATAPOINT296_pbTextEl" PBD:Property="VAL">#.##</text>
  </g>
  <g id="DATAPOINT297" PB:IsMultiState="False" PBD:PtTagName="\\RTDBB\590_EI1001A" PB:Type="7" PB:NumberFormat="0.00">
    <rect x="2520" y="11980" width="1060" height="260" stroke-width="0" fill="none" id="DATAPOINT297_pbTextBoundingRectEl" />
    <text fill="#000000" font-family="Helvetica" font-size="352" text-anchor="middle" x="3050" y="12286" id="DATAPOINT297_pbTextEl" PBD:Property="VAL">#.##</text>
  </g>
  <g id="DATAPOINT298" PB:IsMultiState="False" PBD:PtTagName="\\RTDBB\590_TI1001A" PB:Type="7" PB:NumberFormat="0.00">
    <rect x="4640" y="14740" width="1060" height="260" stroke-width="0" fill="none" id="DATAPOINT298_pbTextBoundingRectEl" />
    <text fill="#000000" font-family="Helvetica" font-size="352" text-anchor="middle" x="5170" y="15046" id="DATAPOINT298_pbTextEl" PBD:Property="VAL">#.##</text>
  </g>
  <g id="DATAPOINT299" PB:IsMultiState="False" PBD:PtTagName="\\RTDBB\590_TI1002A" PB:Type="7" PB:NumberFormat="0.00">
    <rect x="8520" y="14720" width="1060" height="260" stroke-width="0" fill="none" id="DATAPOINT299_pbTextBoundingRectEl" />
    <text fill="#000000" font-family="Helvetica" font-size="352" text-anchor="middle" x="9050" y="15026" id="DATAPOINT299_pbTextEl" PBD:Property="VAL">#.##</text>
  </g>
  <g id="DATAPOINT300" PB:IsMultiState="False" PBD:PtTagName="\\RTDBB\590_IGV1001A" PB:Type="7" PB:NumberFormat="0.00">
    <rect x="13980" y="7160" width="1060" height="260" stroke-width="0" fill="none" id="DATAPOINT300_pbTextBoundingRectEl" />
    <text fill="#000000" font-family="Helvetica" font-size="352" text-anchor="middle" x="14510" y="7466" id="DATAPOINT300_pbTextEl" PBD:Property="VAL">#.##</text>
  </g>
  <g id="DATAPOINT301" PB:IsMultiState="False" PBD:PtTagName="\\RTDBB\590_VI1001A" PB:Type="7" PB:NumberFormat="0.00">
    <rect x="16300" y="10660" width="1060" height="260" stroke-width="0" fill="none" id="DATAPOINT301_pbTextBoundingRectEl" />
    <text fill="#000000" font-family="Helvetica" font-size="352" text-anchor="middle" x="16830" y="10966" id="DATAPOINT301_pbTextEl" PBD:Property="VAL">#.##</text>
  </g>
  <g id="DATAPOINT302" PB:IsMultiState="False" PBD:PtTagName="\\RTDBB\590_PI1001A" PB:Type="7" PB:NumberFormat="0.00">
    <rect x="14100" y="17720" width="1060" height="260" stroke-width="0" fill="none" id="DATAPOINT302_pbTextBoundingRectEl" />
    <text fill="#000000" font-family="Helvetica" font-size="352" text-anchor="middle" x="14630" y="18026" id="DATAPOINT302_pbTextEl" PBD:Property="VAL">#.##</text>
  </g>
  <g id="DATAPOINT303" PB:IsMultiState="False" PBD:PtTagName="\\RTDBB\590_TI1004A" PB:Type="7" PB:NumberFormat="0.00">
    <rect x="19360" y="17760" width="1060" height="260" stroke-width="0" fill="none" id="DATAPOINT303_pbTextBoundingRectEl" />
    <text fill="#000000" font-family="Helvetica" font-size="352" text-anchor="middle" x="19890" y="18066" id="DATAPOINT303_pbTextEl" PBD:Property="VAL">#.##</text>
  </g>
  <g id="DATAPOINT304" PB:IsMultiState="False" PBD:PtTagName="\\RTDBB\590_PI1002A" PB:Type="7" PB:NumberFormat="0.00">
    <rect x="24080" y="17760" width="1060" height="260" stroke-width="0" fill="none" id="DATAPOINT304_pbTextBoundingRectEl" />
    <text fill="#000000" font-family="Helvetica" font-size="352" text-anchor="middle" x="24610" y="18066" id="DATAPOINT304_pbTextEl" PBD:Property="VAL">#.##</text>
  </g>
  <g id="DATAPOINT305" PB:IsMultiState="False" PBD:PtTagName="\\RTDBB\590_VI1002A" PB:Type="7" PB:NumberFormat="0.00">
    <rect x="27000" y="10700" width="1060" height="260" stroke-width="0" fill="none" id="DATAPOINT305_pbTextBoundingRectEl" />
    <text fill="#000000" font-family="Helvetica" font-size="352" text-anchor="middle" x="27530" y="11006" id="DATAPOINT305_pbTextEl" PBD:Property="VAL">#.##</text>
  </g>
  <g id="DATAPOINT306" PB:IsMultiState="False" PBD:PtTagName="\\RTDBB\590_TI1005A" PB:Type="7" PB:NumberFormat="0.00">
    <rect x="29400" y="17740" width="1060" height="260" stroke-width="0" fill="none" id="DATAPOINT306_pbTextBoundingRectEl" />
    <text fill="#000000" font-family="Helvetica" font-size="352" text-anchor="middle" x="29930" y="18046" id="DATAPOINT306_pbTextEl" PBD:Property="VAL">#.##</text>
  </g>
  <g id="DATAPOINT307" PB:IsMultiState="False" PBD:PtTagName="\\RTDBB\590_TI1007A" PB:Type="7" PB:NumberFormat="0.00">
    <rect x="39840" y="11440" width="1060" height="260" stroke-width="0" fill="none" id="DATAPOINT307_pbTextBoundingRectEl" />
    <text fill="#000000" font-family="Helvetica" font-size="352" text-anchor="middle" x="40370" y="11746" id="DATAPOINT307_pbTextEl" PBD:Property="VAL">#.##</text>
  </g>
  <g id="DATAPOINT308" PB:IsMultiState="False" PBD:PtTagName="\\RTDBB\590_PI1005A" PB:Type="7" PB:NumberFormat="0.00">
    <rect x="39760" y="14320" width="1060" height="260" stroke-width="0" fill="none" id="DATAPOINT308_pbTextBoundingRectEl" />
    <text fill="#000000" font-family="Helvetica" font-size="352" text-anchor="middle" x="40290" y="14626" id="DATAPOINT308_pbTextEl" PBD:Property="VAL">#.##</text>
  </g>
  <g id="DATAPOINT309" PB:IsMultiState="False" PBD:PtTagName="\\RTDBB\590_PI1003A" PB:Type="7" PB:NumberFormat="0.00">
    <rect x="34440" y="17760" width="1060" height="260" stroke-width="0" fill="none" id="DATAPOINT309_pbTextBoundingRectEl" />
    <text fill="#000000" font-family="Helvetica" font-size="352" text-anchor="middle" x="34970" y="18066" id="DATAPOINT309_pbTextEl" PBD:Property="VAL">#.##</text>
  </g>
  <g id="DATAPOINT310" PB:IsMultiState="False" PBD:PtTagName="\\RTDBB\590_TI1006A" PB:Type="7" PB:NumberFormat="0.00">
    <rect x="39880" y="17820" width="1060" height="260" stroke-width="0" fill="none" id="DATAPOINT310_pbTextBoundingRectEl" />
    <text fill="#000000" font-family="Helvetica" font-size="352" text-anchor="middle" x="40410" y="18126" id="DATAPOINT310_pbTextEl" PBD:Property="VAL">#.##</text>
  </g>
  <g id="DATAPOINT311" PB:IsMultiState="False" PBD:PtTagName="\\RTDBB\590_PV1002A" PB:Type="7" PB:NumberFormat="0.00">
    <rect x="53340" y="11820" width="1060" height="260" stroke-width="0" fill="none" id="DATAPOINT311_pbTextBoundingRectEl" />
    <text fill="#000000" font-family="Helvetica" font-size="352" text-anchor="middle" x="53870" y="12126" id="DATAPOINT311_pbTextEl" PBD:Property="VAL">#.##</text>
  </g>
  <g id="DATAPOINT312" PB:IsMultiState="False" PBD:PtTagName="\\RTDBB\590_PI1004A" PB:Type="7" PB:NumberFormat="0.00">
    <rect x="53900" y="18600" width="1060" height="260" stroke-width="0" fill="none" id="DATAPOINT312_pbTextBoundingRectEl" />
    <text fill="#000000" font-family="Helvetica" font-size="352" text-anchor="middle" x="54430" y="18906" id="DATAPOINT312_pbTextEl" PBD:Property="VAL">#.##</text>
  </g>
</svg>