<?xml version="1.0" encoding="UTF-8"?>
<svg height="100%" width="100%" viewBox="0 0 60000 30000" version="1.1" xmlns="http://www.w3.org/2000/svg" xmlns:xlink="http://www.w3.org/1999/xlink" xmlns:PB="urn:osisoft-com-pb" xmlns:PBI="urn:osisoft-com-interface" xmlns:PBD="urn:osisoft-com-data" style="background-color:#C0C0C0">
  <title>Graphic26</title>
  <defs>
    <PBD:TagUses tag="\\WIN-A79O8OG50DN\590_PDT_AM001B">
      <PBI:Symbol name="DATAPOINT313" PB:Type="7" />
    </PBD:TagUses>
    <PBD:TagUses tag="\\WIN-A79O8OG50DN\590_EI1001B">
      <PBI:Symbol name="DATAPOINT314" PB:Type="7" />
    </PBD:TagUses>
    <PBD:TagUses tag="\\WIN-A79O8OG50DN\590_TI1003B">
      <PBI:Symbol name="DATAPOINT315" PB:Type="7" />
    </PBD:TagUses>
    <PBD:TagUses tag="\\WIN-A79O8OG50DN\590_TI1001B">
      <PBI:Symbol name="DATAPOINT316" PB:Type="7" />
    </PBD:TagUses>
    <PBD:TagUses tag="\\WIN-A79O8OG50DN\590_TI1002B">
      <PBI:Symbol name="DATAPOINT317" PB:Type="7" />
    </PBD:TagUses>
    <PBD:TagUses tag="\\WIN-A79O8OG50DN\590_IGV1001B">
      <PBI:Symbol name="DATAPOINT318" PB:Type="7" />
    </PBD:TagUses>
    <PBD:TagUses tag="\\WIN-A79O8OG50DN\590_VI1001B">
      <PBI:Symbol name="DATAPOINT319" PB:Type="7" />
    </PBD:TagUses>
    <PBD:TagUses tag="\\WIN-A79O8OG50DN\590_VI1002B">
      <PBI:Symbol name="DATAPOINT320" PB:Type="7" />
    </PBD:TagUses>
    <PBD:TagUses tag="\\WIN-A79O8OG50DN\590_TI1007B">
      <PBI:Symbol name="DATAPOINT321" PB:Type="7" />
    </PBD:TagUses>
    <PBD:TagUses tag="\\WIN-A79O8OG50DN\590_PI1005B">
      <PBI:Symbol name="DATAPOINT322" PB:Type="7" />
    </PBD:TagUses>
    <PBD:TagUses tag="\\WIN-A79O8OG50DN\590_PV1002B">
      <PBI:Symbol name="DATAPOINT323" PB:Type="7" />
    </PBD:TagUses>
    <PBD:TagUses tag="\\WIN-A79O8OG50DN\590_PI1004B">
      <PBI:Symbol name="DATAPOINT324" PB:Type="7" />
    </PBD:TagUses>
    <PBD:TagUses tag="\\WIN-A79O8OG50DN\590_TI1006B">
      <PBI:Symbol name="DATAPOINT325" PB:Type="7" />
    </PBD:TagUses>
    <PBD:TagUses tag="\\WIN-A79O8OG50DN\590_PI1003B">
      <PBI:Symbol name="DATAPOINT326" PB:Type="7" />
    </PBD:TagUses>
    <PBD:TagUses tag="\\WIN-A79O8OG50DN\590_TI1005B">
      <PBI:Symbol name="DATAPOINT327" PB:Type="7" />
    </PBD:TagUses>
    <PBD:TagUses tag="\\WIN-A79O8OG50DN\590_PI1002A">
      <PBI:Symbol name="DATAPOINT328" PB:Type="7" />
    </PBD:TagUses>
    <PBD:TagUses tag="\\WIN-A79O8OG50DN\590_TI1004B">
      <PBI:Symbol name="DATAPOINT329" PB:Type="7" />
    </PBD:TagUses>
    <PBD:TagUses tag="\\WIN-A79O8OG50DN\590_PI1001B">
      <PBI:Symbol name="DATAPOINT330" PB:Type="7" />
    </PBD:TagUses>
  </defs>
  <rect x="14860" y="24780" width="7320" height="4760" stroke="#000000" stroke-width="40" fill="none" id="RECTANGLE157" />
  <rect x="44540" y="18820" width="3100" height="4260" stroke="#000000" stroke-width="40" fill="none" id="RECTANGLE158" />
  <rect x="8480" y="10200" width="26200" height="4140" stroke="#000000" stroke-width="40" stroke-dasharray="60,60" fill="none" id="RECTANGLE159" />
  <rect x="3580" y="12100" width="31100" height="340" stroke="#000000" stroke-width="60" fill="#FFFFFF" id="RECTANGLE160" />
  <rect x="3440" y="5060" width="1280" height="1420" stroke="#000000" stroke-width="20" fill="none" />
  <path d="M 3440 6460 l 520 600" stroke="#000000" stroke-width="20" fill="none" />
  <path d="M 4720 6460 l -520 600" stroke="#000000" stroke-width="20" fill="none" />
  <path d="M 3900 7040 l 360 0" stroke="#000000" stroke-width="20" fill="none" />
  <path d="M 3480 5440 l 240 0" stroke="#000000" stroke-width="20" fill="none" />
  <path d="M 3720 6220 l 240 0" stroke="#000000" stroke-width="20" fill="none" />
  <path d="M 3960 5440 l 240 0" stroke="#000000" stroke-width="20" fill="none" />
  <path d="M 4200 6220 l 240 0" stroke="#000000" stroke-width="20" fill="none" />
  <path d="M 4440 5440 l 240 0" stroke="#000000" stroke-width="20" fill="none" />
  <path d="M 3720 5440 l 0 780" stroke="#000000" stroke-width="20" fill="none" />
  <path d="M 3960 5440 l 0 780" stroke="#000000" stroke-width="20" fill="none" />
  <path d="M 4200 5440 l 0 780" stroke="#000000" stroke-width="20" fill="none" />
  <path d="M 4440 5440 l 0 780" stroke="#000000" stroke-width="20" fill="none" />
  <path d="M 16940 28980 l 6 0 7 0 6 0 7 0 7 0 6 -1 7 0 6 -1 7 0 6 -1 7 -1 7 -1 6 -1 6 -1 7 -1 6 -1 7 -1 6 -1 6 -2 6 -1 7 -1 6 -2 6 -2 6 -1 6 -2 6 -2 6 -2 6 -2 6 -2 6 -2 5 -2 6 -2 5 -2 6 -3 5 -2 6 -2 5 -3 5 -2 6 -3 5 -3 5 -2 5 -3 5 -3 4 -3 5 -3 5 -3 4 -3 5 -3 4 -3 5 -3 4 -3 4 -4 4 -3 4 -3 4 -4 4 -3 3 -4 4 -3 3 -4 4 -4 3 -3 3 -4 3 -4 3 -3 3 -4 3 -4 2 -4 3 -4 2 -3 3 -4 2 -4 2 -4 2 -4 2 -4 2 -4 1 -4 2 -5 1 -4 2 -4 1 -4 1 -4 1 -4 1 -4 0 -4 1 -5 1 -4 0 -4 0 -4 0 -4 1 -5 -1 -4 0 -4 0 -4 0 -4 -1 -4 -1 -5 0 -4 -1 -4 -1 -4 -1 -4 -1 -4 -2 -4 -1 -4 -2 -5 -1 -4 -2 -4 -2 -4 -2 -4 -2 -4 -2 -4 -3 -4 -2 -3 -3 -4 -2 -4 -3 -4 -3 -4 -3 -3 -3 -4 -3 -4 -3 -4 -4 -3 -3 -4 -4 -3 -3 -4 -4 -3 -4 -4 -4 -3 -4 -3 -4 -4 -4 -3 -5 -3 -4 -3 -5 -3 -4 -3 -5 -3 -5 -3 -4 -3 -5 -3 -5 -3 -5 -2 -5 -3 -6 -3 -5 -2 -5 -3 -6 -2 -5 -2 -6 -3 -5 -2 -6 -2 -5 -2 -6 -2 -6 -2 -6 -2 -6 -2 -6 -2 -6 -2 -6 -1 -6 -2 -6 -2 -7 -1 -6 -1 -6 -2 -6 -1 -7 -1 -6 -1 -7 -1 -6 -1 -6 -1 -7 -1 -7 -1 -6 -1 -7 0 -6 -1 -7 0 -6 -1 -7 0 -7 0 -6 0 -7 0 -6 -1 -7 1" stroke="#000000" stroke-width="20" fill="none" />
  <path d="M 16940 28500 l -2520 0" stroke="#000000" stroke-width="20" fill="none" />
  <path d="M 16940 29000 l -2520 0" stroke="#000000" stroke-width="20" fill="none" />
  <path d="M 14420 28500 l 0 500" stroke="#000000" stroke-width="20" fill="none" />
  <path d="M 15760 28600 l 720 300" stroke="#000000" stroke-width="20" fill="none" />
  <path d="M 16360 28600 l 740 300" stroke="#000000" stroke-width="20" fill="none" />
  <path d="M 16340 28600 l 140 300" stroke="#000000" stroke-width="20" fill="none" />
  <path d="M 16980 28780 l 100 120" stroke="#000000" stroke-width="20" fill="none" />
  <path d="M 16920 28900 l 140 0" stroke="#000000" stroke-width="20" fill="none" />
  <g name="Valve4">
    <path d="M 45677 22835 l 0 442 895 -442 0 442 -895 -442" stroke="#000000" stroke-width="20" fill="#000000" />
  </g>
  <g name="DownArrow">
    <path d="M 46363 23585 l -486 0 243 -462 243 462 0 0" stroke="#000000" stroke-width="20" fill="#000000" />
  </g>
  <g name="Valve4">
    <path d="M 45657 19025 l 0 -442 895 442 0 -442 -895 442" stroke="#000000" stroke-width="20" fill="#000000" />
  </g>
  <g name="DownArrow">
    <path d="M 46343 18275 l -486 0 243 462 243 -462 0 0" stroke="#000000" stroke-width="20" fill="#000000" />
  </g>
  <g name="Valve1">
    <path d="M 43678 24891 l -354 0 0 0 2 -31 7 -31 6 -30 11 -31 16 -26 17 -26 22 -25 24 -21 24 -20 28 -18 29 -15 30 -15 33 -11 33 -7 35 -4 37 -2 0 0 37 2 35 4 33 7 32 11 31 15 31 15 26 18 26 20 24 21 17 25 20 26 13 26 16 31 6 30 7 31 2 31 -356 0" stroke="#000000" stroke-width="20" fill="#000000" />
    <path d="M 43248 25454 l 0 -392 867 392 0 -392 -867 392" stroke="#000000" stroke-width="20" fill="#000000" />
    <path d="M 43678 25257 l 50 -22 0 -342 -96 0 0 342 50 22 -4 0" stroke="#000000" stroke-width="20" fill="#000000" />
  </g>
  <g name="DownArrow">
    <path d="M 43833 25645 l -346 0 173 -362 173 362 0 0" stroke="#000000" stroke-width="20" fill="#000000" />
  </g>
  <path id="LINE759" d="M 43720 25220 l 780 -760" stroke="#000000" stroke-width="20" fill="none" />
  <path id="LINE760" d="M 44480 24480 l 0 -340" stroke="#000000" stroke-width="20" fill="none" />
  <path id="LINE761" d="M 43680 24560 l 0 -420" stroke="#000000" stroke-width="20" fill="none" />
  <path id="LINE762" d="M 44480 24140 l -800 0" stroke="#000000" stroke-width="20" fill="none" />
  <path id="ELLIPSE64" d="M 20946 29040 l -42 -13 -26 -14 -21 -13 -17 -13 -15 -14 -12 -13 -10 -13 -10 -14 -8 -13 -7 -13 -6 -14 -5 -13 -4 -13 -3 -14 -3 -13 -2 -13 -1 -14 0 -13 0 0 0 -13 1 -14 2 -13 3 -13 3 -14 4 -13 5 -13 6 -14 7 -13 8 -13 10 -14 10 -13 12 -13 15 -14 17 -13 21 -13 26 -14 42 -13 108 0 42 13 26 14 21 13 17 13 15 14 12 13 10 13 10 14 8 13 7 13 6 14 5 13 4 13 3 14 3 13 2 13 1 14 0 13 0 0 0 13 -1 14 -2 13 -3 13 -3 14 -4 13 -5 13 -6 14 -7 13 -8 13 -10 14 -10 13 -12 13 -15 14 -17 13 -21 13 -26 14 -42 13 -108 0" stroke="#000000" stroke-width="20" fill="none" />
  <path d="M 380 3920 l 1060 0" stroke="#80FFFF" stroke-width="40" fill="#FF8000" />
  <path d="M 380 4120 l 1060 0" stroke="#80FFFF" stroke-width="40" fill="#FF8000" />
  <path d="M 1440 3800 l 0 120" stroke="#80FFFF" stroke-width="40" fill="#FF8000" />
  <path d="M 1440 4120 l 0 180" stroke="#80FFFF" stroke-width="40" fill="#FF8000" />
  <path d="M 380 3920 l 0 200" stroke="#80FFFF" stroke-width="40" fill="#FF8000" />
  <path d="M 1480 3800 l 480 200" stroke="#80FFFF" stroke-width="40" fill="#FF8000" />
  <path d="M 1480 4300 l 480 -300" stroke="#80FFFF" stroke-width="40" fill="#FF8000" />
  <g id="TEXT124">
    <rect x="17600" y="28480" width="3400" height="560" stroke-width="0" fill="none" id="TEXT124_pbTextBoundingRectEl" />
    <text fill="#000000" font-family="Helvetica" font-size="352" text-anchor="middle" x="19300" y="28936" id="TEXT124_pbTextEl">低油位开关</text>
  </g>
  <rect x="4880" y="5060" width="3000" height="400" stroke="#0000FF" stroke-width="20" fill="none" id="RECTANGLE162" />
  <rect x="4880" y="5460" width="3000" height="400" stroke="#0000FF" stroke-width="20" fill="none" id="RECTANGLE163" />
  <g id="TEXT125">
    <rect x="4680" y="5000" width="3400" height="560" stroke-width="0" fill="none" id="TEXT125_pbTextBoundingRectEl" />
    <text fill="#000000" font-family="Helvetica" font-size="352" text-anchor="middle" x="6380" y="5456" id="TEXT125_pbTextEl">590-PDT001B</text>
  </g>
  <path id="LINE770" d="M 2020 3980 l 29680 0" stroke="#80FFFF" stroke-width="20" fill="none" />
  <path d="M 380 5440 l 1060 0" stroke="#80FFFF" stroke-width="40" fill="#FF8000" />
  <path d="M 380 5640 l 1060 0" stroke="#80FFFF" stroke-width="40" fill="#FF8000" />
  <path d="M 1440 5320 l 0 120" stroke="#80FFFF" stroke-width="40" fill="#FF8000" />
  <path d="M 1440 5640 l 0 180" stroke="#80FFFF" stroke-width="40" fill="#FF8000" />
  <path d="M 380 5440 l 0 200" stroke="#80FFFF" stroke-width="40" fill="#FF8000" />
  <path d="M 1480 5320 l 480 200" stroke="#80FFFF" stroke-width="40" fill="#FF8000" />
  <path d="M 1480 5820 l 480 -300" stroke="#80FFFF" stroke-width="40" fill="#FF8000" />
  <path id="LINE778" d="M 1980 5540 l 1340 0" stroke="#80FFFF" stroke-width="40" fill="none" />
  <path id="LINE779" d="M 4760 6060 l 5440 0" stroke="#80FFFF" stroke-width="40" fill="none" />
  <path id="LINE780" d="M 10200 6060 l 0 4740" stroke="#80FFFF" stroke-width="40" fill="none" />
  <path id="LINE781" d="M 12420 11420 l 0 -2140" stroke="#000000" stroke-width="80" fill="none" />
  <path id="ELLIPSE65" d="M 12364 9300 l -44 -13 -28 -14 -22 -13 -17 -13 -16 -14 -13 -13 -11 -13 -10 -14 -9 -13 -8 -13 -7 -14 -5 -13 -5 -13 -5 -14 -3 -13 -3 -13 -2 -14 -1 -13 -1 -13 0 -14 1 -13 1 -13 2 -14 3 -13 3 -13 5 -14 5 -13 5 -13 7 -14 8 -13 9 -13 10 -14 11 -13 13 -13 16 -14 17 -13 22 -13 28 -14 44 -13 112 0 44 13 28 14 22 13 17 13 16 14 13 13 11 13 10 14 9 13 8 13 7 14 5 13 5 13 5 14 3 13 3 13 2 14 1 13 1 13 0 14 -1 13 -1 13 -2 14 -3 13 -3 13 -5 14 -5 13 -5 13 -7 14 -8 13 -9 13 -10 14 -11 13 -13 13 -16 14 -17 13 -22 13 -28 14 -44 13 -112 0" stroke="#000000" stroke-width="40" fill="none" />
  <path id="LINE782" d="M 12300 10440 l 200 -240" stroke="#000000" stroke-width="40" fill="none" />
  <path id="LINE783" d="M 12300 10640 l 200 -240" stroke="#000000" stroke-width="40" fill="none" />
  <path id="LINE784" d="M 12300 10860 l 200 -220" stroke="#000000" stroke-width="40" fill="none" />
  <rect x="12220" y="7080" width="3000" height="400" stroke="#0000FF" stroke-width="20" fill="none" id="RECTANGLE164" />
  <rect x="12220" y="7480" width="3000" height="400" stroke="#0000FF" stroke-width="20" fill="none" id="RECTANGLE165" />
  <g id="TEXT126">
    <rect x="12020" y="7020" width="3400" height="560" stroke-width="0" fill="none" id="TEXT126_pbTextBoundingRectEl" />
    <text fill="#000000" font-family="Helvetica" font-size="352" text-anchor="middle" x="13720" y="7476" id="TEXT126_pbTextEl">590-IGC1001B</text>
  </g>
  <path d="M 5296 13220 l -181 -40 -100 -40 -76 -40 -62 -40 -52 -40 -46 -40 -40 -40 -35 -40 -31 -40 -29 -40 -25 -40 -22 -40 -19 -40 -18 -40 -15 -40 -13 -40 -11 -40 -9 -40 -7 -40 -5 -40 -4 -40 -2 -40 0 -40 2 -40 4 -40 5 -40 7 -40 9 -40 11 -40 13 -40 15 -40 18 -40 19 -40 22 -40 25 -40 29 -40 31 -40 35 -40 40 -40 46 -40 52 -40 62 -40 76 -40 100 -40 181 -40 208 0 181 40 100 40 76 40 62 40 52 40 46 40 40 40 35 40 31 40 29 40 25 40 22 40 19 40 18 40 15 40 13 40 11 40 9 40 7 40 5 40 4 40 2 40 0 40 -2 40 -4 40 -5 40 -7 40 -9 40 -11 40 -13 40 -15 40 -18 40 -19 40 -22 40 -25 40 -29 40 -31 40 -35 40 -40 40 -46 40 -52 40 -62 40 -76 40 -100 40 -181 40 -208 0" stroke="#000000" stroke-width="20" fill="#00FF00" />
  <g>
    <rect x="4900" y="11920" width="1000" height="820" stroke-width="0" fill="none" />
    <text fill="#000000" font-family="Helvetica" font-size="800" text-anchor="middle" x="5400" y="12730">M</text>
  </g>
  <path id="POLYGON786" d="M 19780 10800 l 3580 840 0 1280 -3580 840 0 -3000 0 40" stroke="#000000" stroke-width="20" fill="#808080" />
  <path id="POLYGON787" d="M 29960 10800 l 3580 840 0 1280 -3580 840 0 -3000 0 40" stroke="#000000" stroke-width="20" fill="#808080" />
  <path id="POLYGON788" d="M 9620 10800 l 3580 840 0 1280 -3580 840 0 -3000 0 40" stroke="#000000" stroke-width="20" fill="#808080" />
  <rect x="14540" y="10520" width="3000" height="400" stroke="#0000FF" stroke-width="20" fill="none" id="RECTANGLE166" />
  <rect x="14540" y="10920" width="3000" height="400" stroke="#0000FF" stroke-width="20" fill="none" id="RECTANGLE167" />
  <g id="TEXT128">
    <rect x="14340" y="10460" width="3400" height="560" stroke-width="0" fill="none" id="TEXT128_pbTextBoundingRectEl" />
    <text fill="#000000" font-family="Helvetica" font-size="352" text-anchor="middle" x="16040" y="10916" id="TEXT128_pbTextEl">590-VI1001B</text>
  </g>
  <rect x="25300" y="10560" width="3000" height="400" stroke="#0000FF" stroke-width="20" fill="none" id="RECTANGLE168" />
  <rect x="25300" y="10960" width="3000" height="400" stroke="#0000FF" stroke-width="20" fill="none" id="RECTANGLE169" />
  <g id="TEXT129">
    <rect x="25100" y="10500" width="3400" height="560" stroke-width="0" fill="none" id="TEXT129_pbTextBoundingRectEl" />
    <text fill="#000000" font-family="Helvetica" font-size="352" text-anchor="middle" x="26800" y="10956" id="TEXT129_pbTextEl">590-VI1002B</text>
  </g>
  <path id="LINE796" d="M 12900 10020 l 0 -880" stroke="#000000" stroke-width="40" fill="none" />
  <path id="LINE797" d="M 12900 9140 l 33180 0" stroke="#000000" stroke-width="40" fill="none" />
  <path id="LINE798" d="M 46080 9140 l 0 9140" stroke="#000000" stroke-width="40" fill="none" />
  <rect x="38100" y="11340" width="3000" height="400" stroke="#0000FF" stroke-width="20" fill="none" id="RECTANGLE170" />
  <rect x="38100" y="11740" width="3000" height="400" stroke="#0000FF" stroke-width="20" fill="none" id="RECTANGLE171" />
  <g id="TEXT130">
    <rect x="37900" y="11240" width="3400" height="560" stroke-width="0" fill="none" id="TEXT130_pbTextBoundingRectEl" />
    <text fill="#000000" font-family="Helvetica" font-size="352" text-anchor="middle" x="39600" y="11696" id="TEXT130_pbTextEl">590-TI1007B</text>
  </g>
  <rect x="38100" y="14180" width="3000" height="400" stroke="#0000FF" stroke-width="20" fill="none" id="RECTANGLE172" />
  <rect x="38100" y="14580" width="3000" height="400" stroke="#0000FF" stroke-width="20" fill="none" id="RECTANGLE173" />
  <g id="TEXT131">
    <rect x="37900" y="14100" width="3400" height="560" stroke-width="0" fill="none" id="TEXT131_pbTextBoundingRectEl" />
    <text fill="#000000" font-family="Helvetica" font-size="352" text-anchor="middle" x="39600" y="14556" id="TEXT131_pbTextEl">590-PI1005B</text>
  </g>
  <rect x="47320" y="20400" width="540" height="1120" stroke="#000000" stroke-width="20" fill="#C0C0C0" />
  <path d="M 47600 20400 l -280 1120" stroke="#000000" stroke-width="20" stroke-dasharray="60,60" fill="none" />
  <path d="M 47580 20380 l 280 1120" stroke="#000000" stroke-width="20" stroke-dasharray="60,60" fill="none" />
  <rect x="44220" y="20400" width="540" height="1120" stroke="#000000" stroke-width="20" fill="#C0C0C0" />
  <path d="M 44520 20400 l -280 1120" stroke="#000000" stroke-width="20" stroke-dasharray="60,60" fill="none" />
  <path d="M 44500 20380 l 280 1120" stroke="#000000" stroke-width="20" stroke-dasharray="60,60" fill="none" />
  <path id="LINE806" d="M 46140 23640 l 0 1660" stroke="#000000" stroke-width="40" fill="none" />
  <path id="LINE807" d="M 46100 25300 l -19480 0" stroke="#000000" stroke-width="40" fill="none" />
  <path d="M 40842 26120 l -170 -40 -94 -40 -71 -40 -57 -40 -48 -40 -42 -40 -36 -40 -31 -40 -28 -40 -25 -40 -21 -40 -19 -40 -16 -40 -13 -40 -12 -40 -9 -40 -7 -40 -5 -40 -3 -40 -1 -40 0 0 1 -40 3 -40 5 -40 7 -40 9 -40 12 -40 13 -40 16 -40 19 -40 21 -40 25 -40 28 -40 31 -40 36 -40 42 -40 48 -40 57 -40 71 -40 94 -40 170 -40 196 0 170 40 94 40 71 40 57 40 48 40 42 40 36 40 31 40 28 40 25 40 21 40 19 40 16 40 13 40 12 40 9 40 7 40 5 40 3 40 1 40 0 0 -1 40 -3 40 -5 40 -7 40 -9 40 -12 40 -13 40 -16 40 -19 40 -21 40 -25 40 -28 40 -31 40 -36 40 -42 40 -48 40 -57 40 -71 40 -94 40 -170 40 -196 0" stroke="#000000" stroke-width="20" fill="#C0C0C0" />
  <path d="M 40560 25680 l 380 -980" stroke="#000000" stroke-width="20" fill="none" />
  <path d="M 40940 24700 l 380 980" stroke="#000000" stroke-width="20" fill="none" />
  <path d="M 40560 25680 l 0 -1640" stroke="#000000" stroke-width="20" fill="none" />
  <path d="M 41320 25680 l 0 -1640" stroke="#000000" stroke-width="20" fill="none" />
  <path id="LINE812" d="M 43660 25560 l 0 1580" stroke="#000000" stroke-width="40" fill="none" />
  <path id="LINE813" d="M 43660 27140 l -5280 0" stroke="#000000" stroke-width="40" fill="none" />
  <path id="LINE814" d="M 38380 27040 l 0 -1820" stroke="#000000" stroke-width="40" fill="none" />
  <path id="LINE815" d="M 26680 25260 l 0 1780" stroke="#000000" stroke-width="40" fill="none" />
  <path d="M 26160 28060 l 300 -520 440 0 300 520 -1040 0 0 0" stroke="#000000" stroke-width="20" fill="#808080" />
  <path d="M 27260 27336 l -20 79 -20 50 -20 38 -20 32 -20 27 -20 24 -20 22 -20 19 -20 18 -20 16 -20 15 -20 13 -20 12 -20 11 -20 11 -20 9 -20 8 -20 8 -20 7 -20 6 -20 6 -20 4 -20 4 -20 4 -20 3 -20 2 -20 1 -20 1 -20 0 0 0 -20 0 -20 -1 -20 -1 -20 -2 -20 -3 -20 -4 -20 -4 -20 -4 -20 -6 -20 -6 -20 -7 -20 -8 -20 -8 -20 -9 -20 -11 -20 -11 -20 -12 -20 -13 -20 -15 -20 -16 -20 -18 -20 -19 -20 -22 -20 -24 -20 -27 -20 -32 -20 -38 -20 -50 -20 -79 0 -151 20 -79 20 -50 20 -38 20 -32 20 -27 20 -24 20 -22 20 -19 20 -18 20 -16 20 -15 20 -13 20 -12 20 -11 20 -11 20 -9 20 -8 20 -8 20 -7 20 -6 20 -6 20 -4 20 -4 20 -4 20 -3 20 -2 20 -1 20 -1 20 -1 0 0 20 1 20 1 20 1 20 2 20 3 20 4 20 4 20 4 20 6 20 6 20 7 20 8 20 8 20 9 20 11 20 11 20 12 20 13 20 15 20 16 20 18 20 19 20 22 20 24 20 27 20 32 20 38 20 50 20 79 0 151" stroke="#000000" stroke-width="20" fill="#C0C0C0" />
  <path id="LINE816" d="M 26060 27260 l -1300 0" stroke="#000000" stroke-width="40" fill="none" />
  <path id="LINE817" d="M 24760 27260 l 0 1780" stroke="#000000" stroke-width="40" fill="none" />
  <path id="LINE818" d="M 30520 25320 l 0 1780" stroke="#000000" stroke-width="40" fill="none" />
  <path d="M 30020 28120 l 280 -520 440 0 300 520 -1040 0 20 0" stroke="#000000" stroke-width="20" fill="#808080" />
  <path d="M 31100 27396 l -20 79 -20 50 -20 38 -20 32 -20 27 -20 24 -20 22 -20 19 -20 18 -20 16 -20 15 -20 13 -20 12 -20 11 -20 11 -20 9 -20 8 -20 8 -20 7 -20 6 -20 6 -20 4 -20 4 -20 4 -20 3 -20 2 -20 1 -20 1 -20 0 0 0 -20 0 -20 -1 -20 -1 -20 -2 -20 -3 -20 -4 -20 -4 -20 -4 -20 -6 -20 -6 -20 -7 -20 -8 -20 -8 -20 -9 -20 -11 -20 -11 -20 -12 -20 -13 -20 -15 -20 -16 -20 -18 -20 -19 -20 -22 -20 -24 -20 -27 -20 -32 -20 -38 -20 -50 -20 -79 0 -151 20 -79 20 -50 20 -38 20 -32 20 -27 20 -24 20 -22 20 -19 20 -18 20 -16 20 -15 20 -13 20 -12 20 -11 20 -11 20 -9 20 -8 20 -8 20 -7 20 -6 20 -6 20 -4 20 -4 20 -4 20 -3 20 -2 20 -1 20 -1 20 -1 0 0 20 1 20 1 20 1 20 2 20 3 20 4 20 4 20 4 20 6 20 6 20 7 20 8 20 8 20 9 20 11 20 11 20 12 20 13 20 15 20 16 20 18 20 19 20 22 20 24 20 27 20 32 20 38 20 50 20 79 0 151" stroke="#000000" stroke-width="20" fill="#C0C0C0" />
  <path id="LINE819" d="M 29900 27320 l -1300 0" stroke="#000000" stroke-width="40" fill="none" />
  <path id="LINE820" d="M 28600 27320 l 0 1780" stroke="#000000" stroke-width="40" fill="none" />
  <path id="LINE821" d="M 28500 29100 l -6280 0" stroke="#000000" stroke-width="40" fill="none" />
  <path id="ELLIPSE70" d="M 9146 3680 l -42 -13 -26 -14 -21 -13 -17 -13 -15 -14 -12 -13 -10 -13 -10 -14 -8 -13 -7 -13 -6 -14 -5 -13 -4 -13 -3 -14 -3 -13 -2 -13 -1 -14 0 -13 0 0 0 -13 1 -14 2 -13 3 -13 3 -14 4 -13 5 -13 6 -14 7 -13 8 -13 10 -14 10 -13 12 -13 15 -14 17 -13 21 -13 26 -14 42 -13 108 0 42 13 26 14 21 13 17 13 15 14 12 13 10 13 10 14 8 13 7 13 6 14 5 13 4 13 3 14 3 13 2 13 1 14 0 13 0 0 0 13 -1 14 -2 13 -3 13 -3 14 -4 13 -5 13 -6 14 -7 13 -8 13 -10 14 -10 13 -12 13 -15 14 -17 13 -21 13 -26 14 -42 13 -108 0" stroke="#000000" stroke-width="20" fill="none" />
  <g id="TEXT132">
    <rect x="9740" y="3080" width="3400" height="560" stroke-width="0" fill="none" id="TEXT132_pbTextBoundingRectEl" />
    <text fill="#000000" font-family="Helvetica" font-size="352" text-anchor="middle" x="11440" y="3536" id="TEXT132_pbTextEl">密封气压力开关</text>
  </g>
  <path id="ELLIPSE71" d="M 12646 27240 l -42 -13 -26 -14 -21 -13 -17 -13 -15 -14 -12 -13 -10 -13 -10 -14 -8 -13 -7 -13 -6 -14 -5 -13 -4 -13 -3 -14 -3 -13 -2 -13 -1 -14 0 -13 0 0 0 -13 1 -14 2 -13 3 -13 3 -14 4 -13 5 -13 6 -14 7 -13 8 -13 10 -14 10 -13 12 -13 15 -14 17 -13 21 -13 26 -14 42 -13 108 0 42 13 26 14 21 13 17 13 15 14 12 13 10 13 10 14 8 13 7 13 6 14 5 13 4 13 3 14 3 13 2 13 1 14 0 13 0 0 0 13 -1 14 -2 13 -3 13 -3 14 -4 13 -5 13 -6 14 -7 13 -8 13 -10 14 -10 13 -12 13 -15 14 -17 13 -21 13 -26 14 -42 13 -108 0" stroke="#000000" stroke-width="20" fill="none" />
  <g id="TEXT133">
    <rect x="9280" y="26680" width="3400" height="560" stroke-width="0" fill="none" id="TEXT133_pbTextBoundingRectEl" />
    <text fill="#000000" font-family="Helvetica" font-size="352" text-anchor="middle" x="10980" y="27136" id="TEXT133_pbTextEl">2#空压机报警</text>
  </g>
  <path id="LINE822" d="M 41340 24120 l 0 -3840" stroke="#009600" stroke-width="40" fill="none" />
  <path id="LINE823" d="M 41340 20280 l -38120 0" stroke="#009600" stroke-width="40" fill="none" />
  <path id="LINE824" d="M 40560 24120 l 0 -5280" stroke="#009600" stroke-width="40" fill="none" />
  <path id="LINE825" d="M 40560 18840 l -37340 0" stroke="#009600" stroke-width="40" fill="none" />
  <path d="M 1640 18720 l 1060 0" stroke="#009600" stroke-width="40" fill="#FF8000" />
  <path d="M 1640 18920 l 1060 0" stroke="#009600" stroke-width="40" fill="#FF8000" />
  <path d="M 2700 18580 l 0 140" stroke="#009600" stroke-width="40" fill="#FF8000" />
  <path d="M 2700 18920 l 0 160" stroke="#009600" stroke-width="40" fill="#FF8000" />
  <path d="M 1640 18720 l 0 200" stroke="#009600" stroke-width="40" fill="#FF8000" />
  <path d="M 2740 18580 l 480 200" stroke="#009600" stroke-width="40" fill="#FF8000" />
  <path d="M 2740 19080 l 480 -300" stroke="#009600" stroke-width="40" fill="#FF8000" />
  <path d="M 3220 20160 l -1060 0" stroke="#009600" stroke-width="40" fill="#FF8000" />
  <path d="M 3220 20360 l -1060 0" stroke="#009600" stroke-width="40" fill="#FF8000" />
  <path d="M 2160 20020 l 0 140" stroke="#009600" stroke-width="40" fill="#FF8000" />
  <path d="M 2160 20360 l 0 160" stroke="#009600" stroke-width="40" fill="#FF8000" />
  <path d="M 3220 20160 l 0 200" stroke="#009600" stroke-width="40" fill="#FF8000" />
  <path d="M 2120 20020 l -480 200" stroke="#009600" stroke-width="40" fill="#FF8000" />
  <path d="M 2120 20520 l -480 -300" stroke="#009600" stroke-width="40" fill="#FF8000" />
  <path id="LINE840" d="M 6980 18760 l 0 -1280" stroke="#009600" stroke-width="40" fill="none" />
  <path id="LINE841" d="M 6980 17520 l -3760 0" stroke="#009600" stroke-width="40" fill="none" />
  <path d="M 1640 17400 l 1060 0" stroke="#009600" stroke-width="40" fill="#FF8000" />
  <path d="M 1640 17600 l 1060 0" stroke="#009600" stroke-width="40" fill="#FF8000" />
  <path d="M 2700 17280 l 0 120" stroke="#009600" stroke-width="40" fill="#FF8000" />
  <path d="M 2700 17600 l 0 180" stroke="#009600" stroke-width="40" fill="#FF8000" />
  <path d="M 1640 17400 l 0 200" stroke="#009600" stroke-width="40" fill="#FF8000" />
  <path d="M 2740 17280 l 480 200" stroke="#009600" stroke-width="40" fill="#FF8000" />
  <path d="M 2740 17780 l 480 -300" stroke="#009600" stroke-width="40" fill="#FF8000" />
  <path id="LINE849" d="M 11820 4040 l 0 5920" stroke="#80FFFF" stroke-width="20" fill="none" />
  <path id="LINE850" d="M 21680 4060 l 0 6040" stroke="#80FFFF" stroke-width="20" fill="none" />
  <path id="LINE851" d="M 31700 3980 l 0 6040" stroke="#80FFFF" stroke-width="20" fill="none" />
  <path id="LINE852" d="M 22340 9160 l 0 780" stroke="#000000" stroke-width="40" fill="none" />
  <path id="LINE853" d="M 32380 9240 l 0 840" stroke="#000000" stroke-width="40" fill="none" />
  <path id="LINE854" d="M 13020 16700 l 6920 0" stroke="#80FFFF" stroke-width="40" fill="none" />
  <path d="M 16142 17340 l -170 -40 -94 -40 -71 -40 -57 -40 -48 -40 -42 -40 -36 -40 -31 -40 -28 -40 -25 -40 -21 -40 -19 -40 -16 -40 -13 -40 -12 -40 -9 -40 -7 -40 -5 -40 -3 -40 -1 -40 0 0 1 -40 3 -40 5 -40 7 -40 9 -40 12 -40 13 -40 16 -40 19 -40 21 -40 25 -40 28 -40 31 -40 36 -40 42 -40 48 -40 57 -40 71 -40 94 -40 170 -40 196 0 170 40 94 40 71 40 57 40 48 40 42 40 36 40 31 40 28 40 25 40 21 40 19 40 16 40 13 40 12 40 9 40 7 40 5 40 3 40 1 40 0 0 -1 40 -3 40 -5 40 -7 40 -9 40 -12 40 -13 40 -16 40 -19 40 -21 40 -25 40 -28 40 -31 40 -36 40 -42 40 -48 40 -57 40 -71 40 -94 40 -170 40 -196 0" stroke="#000000" stroke-width="20" fill="#C0C0C0" />
  <path d="M 15860 16180 l 380 980" stroke="#000000" stroke-width="20" fill="none" />
  <path d="M 16240 17160 l 380 -980" stroke="#000000" stroke-width="20" fill="none" />
  <path d="M 15860 16180 l 0 1640" stroke="#000000" stroke-width="20" fill="none" />
  <path d="M 16620 16180 l 0 1640" stroke="#000000" stroke-width="20" fill="none" />
  <path id="LINE859" d="M 15860 17380 l 0 1380" stroke="#009600" stroke-width="40" fill="none" />
  <path id="LINE860" d="M 16620 17380 l 0 2840" stroke="#009600" stroke-width="40" fill="none" />
  <path id="LINE861" d="M 13020 12960 l 0 3740" stroke="#80FFFF" stroke-width="40" fill="none" />
  <path id="LINE862" d="M 19940 13780 l 0 2920" stroke="#80FFFF" stroke-width="40" fill="none" />
  <rect x="12260" y="17680" width="3000" height="400" stroke="#0000FF" stroke-width="20" fill="none" id="RECTANGLE176" />
  <rect x="12260" y="18080" width="3000" height="400" stroke="#0000FF" stroke-width="20" fill="none" id="RECTANGLE177" />
  <g id="TEXT134">
    <rect x="12060" y="17620" width="3400" height="560" stroke-width="0" fill="none" id="TEXT134_pbTextBoundingRectEl" />
    <text fill="#000000" font-family="Helvetica" font-size="352" text-anchor="middle" x="13760" y="18076" id="TEXT134_pbTextEl">590-PI1001B</text>
  </g>
  <rect x="17640" y="17680" width="3000" height="400" stroke="#0000FF" stroke-width="20" fill="none" id="RECTANGLE178" />
  <rect x="17640" y="18080" width="3000" height="400" stroke="#0000FF" stroke-width="20" fill="none" id="RECTANGLE179" />
  <g id="TEXT135">
    <rect x="17440" y="17620" width="3400" height="560" stroke-width="0" fill="none" id="TEXT135_pbTextBoundingRectEl" />
    <text fill="#000000" font-family="Helvetica" font-size="352" text-anchor="middle" x="19140" y="18076" id="TEXT135_pbTextEl">590-TI1004B</text>
  </g>
  <path id="LINE865" d="M 23160 16700 l 6920 0" stroke="#80FFFF" stroke-width="40" fill="none" />
  <path d="M 26282 17340 l -170 -40 -94 -40 -71 -40 -57 -40 -48 -40 -42 -40 -36 -40 -31 -40 -28 -40 -25 -40 -21 -40 -19 -40 -16 -40 -13 -40 -12 -40 -9 -40 -7 -40 -5 -40 -3 -40 -1 -40 0 0 1 -40 3 -40 5 -40 7 -40 9 -40 12 -40 13 -40 16 -40 19 -40 21 -40 25 -40 28 -40 31 -40 36 -40 42 -40 48 -40 57 -40 71 -40 94 -40 170 -40 196 0 170 40 94 40 71 40 57 40 48 40 42 40 36 40 31 40 28 40 25 40 21 40 19 40 16 40 13 40 12 40 9 40 7 40 5 40 3 40 1 40 0 0 -1 40 -3 40 -5 40 -7 40 -9 40 -12 40 -13 40 -16 40 -19 40 -21 40 -25 40 -28 40 -31 40 -36 40 -42 40 -48 40 -57 40 -71 40 -94 40 -170 40 -196 0" stroke="#000000" stroke-width="20" fill="#C0C0C0" />
  <path d="M 26000 16180 l 380 980" stroke="#000000" stroke-width="20" fill="none" />
  <path d="M 26380 17160 l 380 -980" stroke="#000000" stroke-width="20" fill="none" />
  <path d="M 26000 16180 l 0 1640" stroke="#000000" stroke-width="20" fill="none" />
  <path d="M 26760 16180 l 0 1640" stroke="#000000" stroke-width="20" fill="none" />
  <path id="LINE890" d="M 26000 17380 l 0 1380" stroke="#009600" stroke-width="40" fill="none" />
  <path id="LINE891" d="M 26760 17380 l 0 2840" stroke="#009600" stroke-width="40" fill="none" />
  <path id="LINE892" d="M 23160 12960 l 0 3740" stroke="#80FFFF" stroke-width="40" fill="none" />
  <path id="LINE893" d="M 30080 13780 l 0 2920" stroke="#80FFFF" stroke-width="40" fill="none" />
  <rect x="22400" y="17680" width="3000" height="400" stroke="#0000FF" stroke-width="20" fill="none" id="RECTANGLE180" />
  <rect x="22400" y="18080" width="3000" height="400" stroke="#0000FF" stroke-width="20" fill="none" id="RECTANGLE181" />
  <g id="TEXT136">
    <rect x="22200" y="17620" width="3400" height="560" stroke-width="0" fill="none" id="TEXT136_pbTextBoundingRectEl" />
    <text fill="#000000" font-family="Helvetica" font-size="352" text-anchor="middle" x="23900" y="18076" id="TEXT136_pbTextEl">590-PI1002B</text>
  </g>
  <rect x="27780" y="17680" width="3000" height="400" stroke="#0000FF" stroke-width="20" fill="none" id="RECTANGLE182" />
  <rect x="27780" y="18080" width="3000" height="400" stroke="#0000FF" stroke-width="20" fill="none" id="RECTANGLE183" />
  <g id="TEXT137">
    <rect x="27580" y="17620" width="3400" height="560" stroke-width="0" fill="none" id="TEXT137_pbTextBoundingRectEl" />
    <text fill="#000000" font-family="Helvetica" font-size="352" text-anchor="middle" x="29280" y="18076" id="TEXT137_pbTextEl">590-TI1005B</text>
  </g>
  <path id="LINE897" d="M 33480 16700 l 21740 0" stroke="#80FFFF" stroke-width="40" fill="none" />
  <path d="M 36602 17340 l -170 -40 -94 -40 -71 -40 -57 -40 -48 -40 -42 -40 -36 -40 -31 -40 -28 -40 -25 -40 -21 -40 -19 -40 -16 -40 -13 -40 -12 -40 -9 -40 -7 -40 -5 -40 -3 -40 -1 -40 0 0 1 -40 3 -40 5 -40 7 -40 9 -40 12 -40 13 -40 16 -40 19 -40 21 -40 25 -40 28 -40 31 -40 36 -40 42 -40 48 -40 57 -40 71 -40 94 -40 170 -40 196 0 170 40 94 40 71 40 57 40 48 40 42 40 36 40 31 40 28 40 25 40 21 40 19 40 16 40 13 40 12 40 9 40 7 40 5 40 3 40 1 40 0 0 -1 40 -3 40 -5 40 -7 40 -9 40 -12 40 -13 40 -16 40 -19 40 -21 40 -25 40 -28 40 -31 40 -36 40 -42 40 -48 40 -57 40 -71 40 -94 40 -170 40 -196 0" stroke="#000000" stroke-width="20" fill="#C0C0C0" />
  <path d="M 36320 16180 l 380 980" stroke="#000000" stroke-width="20" fill="none" />
  <path d="M 36700 17160 l 380 -980" stroke="#000000" stroke-width="20" fill="none" />
  <path d="M 36320 16180 l 0 1640" stroke="#000000" stroke-width="20" fill="none" />
  <path d="M 37080 16180 l 0 1640" stroke="#000000" stroke-width="20" fill="none" />
  <path id="LINE907" d="M 36320 17380 l 0 1380" stroke="#009600" stroke-width="40" fill="none" />
  <path id="LINE908" d="M 37080 17380 l 0 2840" stroke="#009600" stroke-width="40" fill="none" />
  <path id="LINE909" d="M 33480 12960 l 0 3740" stroke="#80FFFF" stroke-width="40" fill="none" />
  <rect x="32720" y="17680" width="3000" height="400" stroke="#0000FF" stroke-width="20" fill="none" id="RECTANGLE184" />
  <rect x="32720" y="18080" width="3000" height="400" stroke="#0000FF" stroke-width="20" fill="none" id="RECTANGLE185" />
  <g id="TEXT139">
    <rect x="32520" y="17620" width="3400" height="560" stroke-width="0" fill="none" id="TEXT139_pbTextBoundingRectEl" />
    <text fill="#000000" font-family="Helvetica" font-size="352" text-anchor="middle" x="34220" y="18076" id="TEXT139_pbTextEl">590-PI1003B</text>
  </g>
  <rect x="38100" y="17680" width="3000" height="400" stroke="#0000FF" stroke-width="20" fill="none" id="RECTANGLE186" />
  <rect x="38100" y="18080" width="3000" height="400" stroke="#0000FF" stroke-width="20" fill="none" id="RECTANGLE187" />
  <g id="TEXT140">
    <rect x="37900" y="17620" width="3400" height="560" stroke-width="0" fill="none" id="TEXT140_pbTextBoundingRectEl" />
    <text fill="#000000" font-family="Helvetica" font-size="352" text-anchor="middle" x="39600" y="18076" id="TEXT140_pbTextEl">590-TI1006B</text>
  </g>
  <g name="Vessel3">
    <path d="M 21172 22471 l -6 -24 -6 -9 -6 -7 -6 -5 -6 -5 -6 -5 -6 -2 -6 -5 -6 -2 -6 -5 -6 -3 -6 -2 -5 -2 -7 -3 -5 -2 -6 -2 -7 -2 -5 -3 -7 0 -5 -3 -6 -2 -6 0 -6 -2 -6 -2 -6 0 -6 -3 -6 0 -6 -2 -6 0 -6 -2 -6 0 -6 0 -6 -2 -6 0 -5 0 -7 -2 -5 0 -6 0 -6 0 -6 -3 -6 0 -6 0 -6 0 -6 0 -6 0 -6 0 -6 0 -6 0 -6 0 -12 0 -5 0 -7 0 -5 0 -6 0 -7 0 -5 0 -6 0 -6 0 -6 0 -6 3 -6 0 -6 0 -6 0 -6 2 -6 0 -6 0 -6 2 -6 0 -6 0 -6 2 -5 0 -7 2 -5 0 -6 3 -6 0 -6 2 -6 2 -6 0 -6 2 -6 3 -6 0 -6 3 -6 2 -6 2 -6 2 -6 3 -6 2 -5 2 -7 3 -5 5 -6 2 -6 5 -6 2 -6 5 -6 5 -6 5 -6 7 -6 9 -5 24 5 20 6 10 6 7 6 5 6 5 6 5 6 2 6 5 6 2 5 4 7 4 5 2 6 2 6 2 6 3 6 2 6 2 6 3 6 0 6 2 6 3 6 0 6 2 6 2 6 0 6 3 5 0 7 2 5 0 6 2 6 0 6 0 6 2 6 0 6 0 6 2 6 0 6 0 6 0 6 3 6 0 6 0 6 0 5 0 7 0 6 0 5 0 7 0 5 0 12 0 6 0 6 0 6 0 6 0 6 0 6 0 6 0 6 0 6 0 6 -3 6 0 6 0 5 0 7 -2 5 0 6 0 6 -2 6 0 6 0 6 -2 6 0 6 -2 6 0 6 -3 6 0 6 -2 6 -2 6 0 6 -3 5 -2 7 0 5 -3 7 -2 6 -2 5 -3 7 -2 5 -2 6 -2 6 -4 6 -4 6 -2 6 -5 6 -2 6 -5 6 -5 6 -5 6 -7 6 -10 6 -20 0 0" stroke="#000000" stroke-width="20" fill="#000000" />
    <path d="M 21142 22471 l -5 -24 -6 -9 -5 -8 -5 -4 -6 -5 -5 -5 -6 -2 -5 -5 -5 -2 -6 -5 -5 -3 -5 -2 -6 -2 -5 -3 -5 -2 -6 -2 -5 -3 -5 -2 -6 0 -5 -3 -5 -2 -6 0 -5 -3 -6 -2 -5 0 -5 -2 -6 0 -5 -2 -5 0 -6 -3 -5 0 -5 0 -5 -2 -6 0 -5 0 -6 -2 -5 0 -6 0 -5 0 -5 -2 -6 0 -5 0 -5 0 -6 0 -5 0 -5 0 -5 0 -6 0 -5 0 -11 0 -5 0 -6 0 -5 0 -6 0 -5 0 -5 0 -6 0 -5 0 -5 0 -5 2 -6 0 -5 0 -5 0 -6 2 -5 0 -6 0 -6 2 -5 0 -5 0 -6 3 -5 0 -5 2 -6 0 -4 2 -6 0 -5 2 -5 3 -6 0 -5 2 -6 3 -5 0 -5 2 -6 3 -6 2 -5 2 -5 3 -5 2 -6 2 -5 3 -6 5 -5 2 -5 5 -6 2 -5 5 -6 5 -5 4 -5 8 -6 9 -4 24 4 20 6 10 5 7 5 5 6 5 5 4 6 3 5 4 5 2 6 5 5 3 6 2 5 3 5 2 5 2 6 2 6 3 5 2 5 0 6 2 5 3 6 0 5 3 5 2 6 0 4 2 6 0 5 2 5 0 6 3 5 0 5 0 6 2 6 0 5 0 6 2 5 0 5 0 6 0 5 3 5 0 5 0 6 0 5 0 5 0 6 0 5 0 6 0 5 0 11 0 5 0 6 0 5 0 5 0 5 0 6 0 5 0 5 0 6 0 5 -3 5 0 6 0 5 0 6 -2 5 0 6 0 5 -2 5 0 5 0 6 -3 5 0 5 -2 6 0 5 -2 5 0 6 -2 5 -3 6 0 5 -3 5 -2 6 0 5 -2 5 -3 6 -2 5 -2 5 -2 6 -3 5 -2 5 -3 6 -5 5 -2 5 -4 6 -3 5 -4 6 -5 5 -5 5 -7 6 -10 5 -20 0 0" stroke="#3C3C3C" stroke-width="20" fill="#3C3C3C" />
    <path d="M 21113 22471 l -5 -24 -5 -9 -5 -7 -4 -5 -5 -5 -5 -5 -5 -2 -4 -5 -5 -2 -5 -5 -5 -3 -4 -2 -5 -2 -5 -3 -5 -2 -4 -2 -5 -2 -5 -3 -5 0 -4 -3 -5 -2 -5 0 -5 -2 -4 -2 -5 0 -5 -3 -4 0 -5 -2 -5 0 -5 -2 -4 0 -5 0 -5 -2 -5 0 -5 0 -5 -2 -4 0 -5 0 -5 0 -5 -3 -4 0 -5 0 -5 0 -5 0 -4 0 -5 0 -5 0 -5 0 -4 0 -10 0 -5 0 -5 0 -4 0 -5 0 -5 0 -5 0 -5 0 -5 0 -4 0 -5 3 -5 0 -5 0 -4 0 -5 2 -5 0 -5 0 -4 2 -5 0 -5 0 -5 2 -4 0 -5 2 -5 0 -5 3 -4 0 -5 2 -5 2 -5 0 -4 2 -5 3 -5 0 -5 3 -4 2 -5 2 -5 2 -4 3 -6 2 -4 2 -5 3 -5 5 -5 2 -4 5 -5 2 -5 5 -5 5 -4 5 -5 7 -5 9 -5 24 5 20 5 10 5 7 4 5 5 5 5 5 5 2 4 5 5 2 5 4 5 4 4 2 6 2 4 2 5 3 5 2 4 2 5 3 5 0 5 2 4 3 5 0 5 2 5 2 4 0 5 3 5 0 5 2 4 0 5 2 5 0 5 0 4 2 5 0 5 0 5 2 4 0 5 0 5 0 5 3 4 0 5 0 5 0 5 0 5 0 5 0 4 0 5 0 5 0 10 0 4 0 5 0 5 0 5 0 4 0 5 0 5 0 5 0 4 0 5 -3 5 0 5 0 4 0 5 -2 5 0 5 0 5 -2 5 0 4 0 5 -2 5 0 5 -2 4 0 5 -3 5 0 4 -2 5 -2 5 0 5 -3 4 -2 5 0 5 -3 5 -2 4 -2 5 -3 5 -2 5 -2 4 -2 5 -4 5 -4 5 -2 4 -5 5 -2 5 -5 5 -5 4 -5 5 -7 5 -10 5 -20 0 0" stroke="#5A5A5A" stroke-width="20" fill="#5A5A5A" />
    <path d="M 21081 22471 l -4 -24 -4 -9 -4 -7 -4 -5 -5 -5 -4 -5 -4 -2 -4 -5 -4 -2 -4 -5 -4 -3 -5 -2 -4 -2 -4 -3 -4 -2 -4 -2 -4 -2 -5 -3 -4 0 -4 -3 -4 -2 -4 0 -5 -2 -4 -2 -4 0 -4 -3 -4 0 -4 -2 -4 0 -4 -2 -5 0 -4 0 -4 -2 -4 0 -4 0 -5 -2 -4 0 -4 0 -4 0 -4 -3 -4 0 -5 0 -4 0 -4 0 -4 0 -4 0 -4 0 -4 0 -5 0 -7 0 -5 0 -4 0 -4 0 -4 0 -4 0 -4 0 -5 0 -4 0 -4 0 -4 3 -4 0 -5 0 -3 0 -5 2 -4 0 -4 0 -4 2 -4 0 -4 0 -5 2 -4 0 -4 2 -4 0 -4 3 -5 0 -4 2 -4 2 -4 0 -4 2 -4 3 -4 0 -5 3 -4 2 -4 2 -4 2 -4 3 -4 2 -5 2 -4 3 -4 5 -4 2 -4 5 -5 2 -4 5 -4 5 -4 5 -4 7 -4 9 -4 24 4 20 4 10 4 7 4 5 4 5 4 5 5 2 4 5 4 2 4 4 4 4 5 2 4 2 4 2 4 3 4 2 4 2 5 3 4 0 4 2 4 3 4 0 4 2 4 2 5 0 4 3 4 0 4 2 4 0 5 2 4 0 4 0 4 2 4 0 4 0 5 2 3 0 5 0 4 0 4 3 4 0 4 0 5 0 4 0 4 0 4 0 4 0 4 0 5 0 7 0 5 0 4 0 4 0 4 0 4 0 4 0 4 0 5 0 4 0 4 -3 4 0 4 0 4 0 5 -2 4 0 4 0 4 -2 4 0 5 0 4 -2 4 0 4 -2 4 0 4 -3 4 0 4 -2 5 -2 4 0 4 -3 4 -2 4 0 5 -3 4 -2 4 -2 4 -3 4 -2 4 -2 5 -2 4 -4 4 -4 4 -2 4 -5 4 -2 4 -5 5 -5 4 -5 4 -7 4 -10 4 -20 0 0" stroke="#808080" stroke-width="20" fill="#808080" />
    <path d="M 21052 22471 l -4 -24 -4 -9 -3 -7 -4 -5 -3 -5 -4 -5 -3 -2 -4 -5 -3 -2 -4 -5 -4 -3 -3 -2 -4 -2 -3 -3 -4 -2 -4 -2 -2 -2 -4 -3 -3 0 -4 -3 -4 -2 -3 0 -4 -2 -4 -2 -3 0 -4 -3 -3 0 -4 -2 -4 0 -3 -2 -4 0 -3 0 -4 -2 -3 0 -4 0 -3 -2 -4 0 -3 0 -4 0 -3 -3 -4 0 -4 0 -3 0 -4 0 -3 0 -4 0 -4 0 -3 0 -4 0 -7 0 -4 0 -3 0 -4 0 -3 0 -4 0 -3 0 -4 0 -3 0 -4 0 -3 3 -4 0 -3 0 -4 0 -4 2 -3 0 -4 0 -3 2 -4 0 -4 0 -3 2 -4 0 -4 2 -3 0 -4 3 -3 0 -4 2 -3 2 -4 0 -3 2 -4 3 -3 0 -4 3 -3 2 -4 2 -4 2 -3 3 -4 2 -3 2 -4 3 -4 5 -3 2 -4 5 -3 2 -4 5 -4 5 -3 5 -4 7 -3 9 -3 24 3 20 3 10 4 7 3 5 4 5 4 5 3 2 4 5 3 2 4 4 4 4 3 2 4 2 3 2 4 3 4 2 3 2 4 3 3 0 4 2 3 3 4 0 3 2 4 2 3 0 4 3 3 0 4 2 4 0 3 2 4 0 4 0 3 2 4 0 3 0 4 2 4 0 3 0 4 0 3 3 4 0 3 0 4 0 3 0 4 0 3 0 4 0 3 0 4 0 7 0 4 0 3 0 4 0 4 0 3 0 4 0 3 0 4 0 4 0 3 -3 4 0 3 0 4 0 3 -2 4 0 3 0 4 -2 3 0 4 0 3 -2 4 0 4 -2 3 0 4 -3 3 0 4 -2 4 -2 3 0 4 -3 4 -2 3 0 4 -3 2 -2 4 -2 4 -3 3 -2 4 -2 3 -2 4 -4 4 -4 3 -2 4 -5 3 -2 4 -5 3 -5 4 -5 3 -7 4 -10 4 -20 0 0" stroke="#969696" stroke-width="20" fill="#969696" />
    <path d="M 21023 22471 l -3 -24 -3 -9 -3 -7 -3 -5 -3 -5 -3 -5 -3 -2 -3 -5 -3 -2 -3 -5 -3 -3 -3 -2 -2 -2 -4 -3 -3 -2 -3 -2 -2 -2 -4 -3 -3 0 -2 -3 -3 -2 -4 0 -2 -2 -3 -2 -4 0 -2 -3 -3 0 -3 -2 -3 0 -3 -2 -3 0 -3 0 -3 -2 -3 0 -3 0 -3 -2 -3 0 -3 0 -3 0 -3 -3 -3 0 -3 0 -3 0 -3 0 -3 0 -3 0 -3 0 -3 0 -3 0 -6 0 -3 0 -3 0 -2 0 -4 0 -3 0 -2 0 -3 0 -4 0 -2 0 -3 3 -4 0 -2 0 -3 0 -3 2 -3 0 -3 0 -3 2 -3 0 -3 0 -3 2 -3 0 -3 2 -3 0 -3 3 -3 0 -3 2 -3 2 -3 0 -3 2 -3 3 -3 0 -3 3 -3 2 -3 2 -3 2 -3 3 -3 2 -3 2 -3 3 -2 5 -4 2 -3 5 -2 2 -3 5 -4 5 -2 5 -3 7 -4 9 -2 24 2 20 4 10 3 7 2 5 4 5 3 5 2 2 3 5 4 2 2 4 3 4 3 2 3 2 3 2 3 3 3 2 3 2 3 3 3 0 3 2 3 3 3 0 3 2 3 2 3 0 3 3 3 0 3 2 3 0 3 2 3 0 3 0 3 2 3 0 3 0 3 2 3 0 2 0 4 0 3 3 2 0 4 0 3 0 2 0 3 0 4 0 2 0 3 0 3 0 6 0 3 0 3 0 3 0 3 0 3 0 3 0 3 0 3 0 3 0 3 -3 3 0 3 0 3 0 3 -2 3 0 3 0 3 -2 3 0 3 0 3 -2 3 0 3 -2 3 0 2 -3 4 0 3 -2 2 -2 4 0 3 -3 2 -2 3 0 4 -3 2 -2 3 -2 3 -3 4 -2 2 -2 3 -2 3 -4 3 -4 3 -2 3 -5 3 -2 3 -5 3 -5 3 -5 3 -7 3 -10 3 -20 0 0" stroke="#C0C0C0" stroke-width="20" fill="#C0C0C0" />
    <path d="M 20994 22471 l -3 -24 -3 -9 -2 -7 -2 -5 -3 -5 -2 -5 -3 -2 -2 -5 -2 -2 -3 -5 -2 -3 -2 -2 -3 -2 -2 -3 -3 -2 -2 -2 -2 -2 -3 -3 -2 0 -2 -3 -3 -2 -2 0 -3 -2 -2 -2 -2 0 -3 -3 -2 0 -2 -2 -3 0 -2 -2 -2 0 -3 0 -2 -2 -3 0 -2 0 -2 -2 -3 0 -2 0 -2 0 -3 -3 -2 0 -3 0 -2 0 -2 0 -3 0 -2 0 -2 0 -3 0 -2 0 -5 0 -2 0 -3 0 -2 0 -2 0 -3 0 -2 0 -2 0 -3 0 -2 0 -3 3 -2 0 -3 0 -2 0 -3 2 -2 0 -2 0 -3 2 -3 0 -2 0 -2 2 -3 0 -2 2 -2 0 -2 3 -3 0 -2 2 -2 2 -3 0 -2 2 -3 3 -2 0 -2 3 -3 2 -2 2 -3 2 -2 3 -3 2 -2 2 -2 3 -3 5 -2 2 -2 5 -3 2 -2 5 -3 5 -2 5 -2 7 -3 9 -2 24 2 20 3 10 2 7 2 5 3 5 2 5 3 2 2 5 2 2 3 4 2 4 2 2 3 2 2 2 3 3 2 2 3 2 2 3 2 0 3 2 2 3 3 0 2 2 2 2 3 0 2 3 2 0 2 2 3 0 2 2 2 0 3 0 3 2 2 0 2 0 3 2 2 0 3 0 2 0 3 3 2 0 3 0 2 0 2 0 3 0 2 0 2 0 3 0 2 0 5 0 2 0 3 0 2 0 2 0 3 0 2 0 2 0 3 0 2 0 3 -3 2 0 2 0 3 0 2 -2 2 0 3 0 2 -2 3 0 2 0 2 -2 3 0 2 -2 2 0 3 -3 2 0 2 -2 3 -2 2 0 3 -3 2 -2 2 0 3 -3 2 -2 2 -2 3 -3 2 -2 3 -2 2 -2 2 -4 3 -4 2 -2 2 -5 3 -2 2 -5 3 -5 2 -5 2 -7 3 -10 3 -20 0 0" stroke="#D2D2D2" stroke-width="20" fill="#D2D2D2" />
    <path d="M 20965 22471 l -3 -24 -1 -9 -2 -7 -2 -5 -2 -5 -2 -5 -1 -2 -2 -5 -2 -2 -2 -5 -1 -3 -2 -2 -2 -2 -2 -3 -1 -2 -2 -2 -2 -2 -3 -3 -2 0 -1 -3 -2 -2 -2 0 -2 -2 -2 -2 0 0 -2 -3 -2 0 -2 -2 -2 0 -1 -2 -2 0 -2 0 -2 -2 -2 0 -2 0 -2 -2 -1 0 -2 0 -2 0 -2 -3 -1 0 -2 0 -2 0 -2 0 -2 0 -1 0 -2 0 -2 0 -2 0 -3 0 -2 0 -2 0 -2 0 -2 0 -1 0 -2 0 -2 0 -2 0 -2 0 -1 3 -2 0 -2 0 -2 0 -2 2 -1 0 -2 0 -2 2 -2 0 -2 0 -2 2 -1 0 -2 2 -2 0 -1 3 -2 0 -2 2 -2 2 -1 0 -2 2 -2 3 -2 0 -1 3 -3 2 -2 2 -1 2 -2 3 -2 2 -2 2 -2 3 -2 5 -1 2 -2 5 -2 2 -2 5 -2 5 -1 5 -2 7 -2 9 -1 24 1 20 2 10 2 7 1 5 2 5 2 5 2 2 2 5 1 2 2 4 2 4 2 2 2 2 2 2 1 3 2 2 3 2 1 3 2 0 2 2 2 3 1 0 2 2 2 2 2 0 1 3 2 0 2 2 1 0 2 2 2 0 2 0 2 2 2 0 1 0 2 2 2 0 2 0 2 0 1 3 2 0 2 0 2 0 2 0 1 0 2 0 2 0 2 0 2 0 3 0 2 0 2 0 2 0 1 0 2 0 2 0 2 0 2 0 1 0 2 -3 2 0 2 0 1 0 2 -2 2 0 2 0 2 -2 2 0 2 0 1 -2 2 0 2 -2 2 0 2 -3 0 0 2 -2 2 -2 2 0 2 -3 1 -2 2 0 3 -3 2 -2 2 -2 1 -3 2 -2 2 -2 2 -2 1 -4 2 -4 2 -2 2 -5 1 -2 2 -5 2 -5 2 -5 2 -7 1 -10 3 -20 0 0" stroke="#DEDEDE" stroke-width="20" fill="#DEDEDE" />
    <path d="M 20934 22470 l -2 -24 -1 -9 -2 -7 0 -5 -2 -4 -1 -6 -1 -2 -1 -4 -2 -3 -1 -5 -1 -2 -1 -2 -1 -3 -1 -2 -2 -2 -1 -2 -1 -3 -1 -2 -1 0 -1 -3 -2 -2 -1 0 -1 -3 -1 -2 -1 0 -1 -2 -1 0 -1 -2 -2 0 -1 -3 -1 0 -1 0 -2 -2 -1 0 -1 0 -1 -2 -2 0 -1 0 -1 0 -1 -2 -1 0 -1 0 -1 0 -1 0 -2 0 -1 0 -1 0 -1 0 -2 0 -2 0 -1 0 -1 0 -1 0 -2 0 -1 0 -1 0 -1 0 -1 0 -1 0 -2 2 -1 0 -1 0 -1 0 -2 2 0 0 -2 0 -1 2 -1 0 -1 0 -2 3 -1 0 -1 2 -1 0 -1 2 -1 0 -1 2 -1 3 -2 0 -1 2 -1 3 -1 0 -1 2 -2 3 -1 2 -2 2 -1 2 -1 3 -1 2 0 2 -2 5 -1 3 -1 4 -1 2 -2 6 -1 4 -1 5 -1 7 -1 9 -1 24 1 21 1 10 1 7 1 4 1 6 2 4 1 3 1 4 1 2 2 5 0 3 1 2 1 3 1 2 2 2 1 2 2 2 1 3 1 0 1 2 1 3 2 0 1 2 1 2 1 0 1 3 1 0 1 2 1 0 2 2 1 0 1 0 1 2 2 0 0 0 2 3 1 0 1 0 1 0 2 2 1 0 1 0 1 0 1 0 1 0 2 0 1 0 1 0 1 0 2 0 2 0 1 0 1 0 1 0 2 0 1 0 1 0 1 0 1 0 1 -2 1 0 1 0 2 0 1 -3 1 0 1 0 2 -2 1 0 1 0 1 -2 2 0 1 -2 1 0 1 -3 1 0 1 -2 1 -2 1 0 2 -3 1 -2 1 0 1 -3 1 -2 1 -2 2 -2 1 -2 1 -3 1 -2 1 -3 1 -5 2 -2 1 -4 1 -3 1 -4 2 -6 0 -4 2 -7 1 -10 2 -21 0 0" stroke="#F0F0F0" stroke-width="20" fill="#F0F0F0" />
    <path d="M 20903 22470 l -1 -24 -1 -9 0 -7 -1 -5 -1 -4 0 -6 -1 -2 0 -4 -1 -3 -1 -5 0 -2 -1 -2 -1 -3 0 -2 -1 -2 0 -2 -1 -3 0 -2 -1 0 0 -3 -1 -2 -1 0 0 -3 -1 -2 -1 -2 0 0 -1 -2 0 0 -1 -3 -1 0 0 0 -1 -2 0 0 -1 0 -1 -2 -1 0 0 0 -1 0 0 -2 -1 0 0 0 -1 0 0 0 -1 0 -1 0 0 0 -1 0 0 0 -1 0 -1 0 -1 0 0 0 -1 0 0 0 -1 0 -1 0 0 0 -1 0 -1 2 0 0 -1 0 0 0 -1 2 0 0 -1 0 0 2 -1 0 -1 0 0 3 -1 0 -1 2 0 0 -1 2 0 0 -1 2 -1 3 0 0 0 2 -1 3 -1 0 0 2 -1 3 -1 2 0 2 -1 2 0 3 -1 2 -1 2 0 5 -1 3 -1 4 0 2 -1 6 0 4 -1 5 0 7 -1 9 0 24 0 21 1 10 0 7 1 4 0 6 1 4 0 3 1 4 1 2 0 5 1 3 1 2 0 3 1 2 0 2 1 2 1 2 0 3 1 0 1 2 0 3 0 0 1 2 1 2 0 0 1 3 0 0 1 2 1 0 0 2 1 0 1 0 0 2 1 0 0 0 1 3 0 0 1 0 0 0 1 2 1 0 0 0 1 0 1 0 0 0 1 0 0 0 1 0 1 0 1 0 0 0 1 0 0 0 1 0 1 0 0 0 1 0 0 0 1 0 0 -2 1 0 0 0 1 0 1 -3 1 0 0 0 1 -2 0 0 1 0 1 -2 0 0 1 -2 0 0 1 -3 1 -2 0 -2 1 0 1 -3 0 -2 1 0 0 -3 1 -2 0 -2 1 -2 0 -2 1 -3 1 -2 0 -3 1 -5 1 -2 0 -4 1 -3 0 -4 1 -6 1 -4 0 -7 1 -10 1 -21 0 0" stroke="#FFFFFF" stroke-width="20" fill="#FFFFFF" />
    <path d="M 21172 23631 l -6 -24 -6 -9 -6 -7 -6 -6 -6 -4 -6 -5 -6 -2 -6 -4 -6 -3 -6 -5 -6 -2 -6 -3 -5 -2 -7 -2 -5 -2 -6 -3 -7 -2 -5 -3 -7 0 -5 -2 -6 -3 -6 0 -6 -2 -6 -2 -6 0 -6 -3 -6 0 -6 -2 -6 0 -6 -2 -6 0 -6 0 -6 -2 -6 0 -5 0 -7 -2 -5 0 -6 0 -6 0 -6 -2 -6 0 -6 0 -6 0 -6 0 -6 0 -6 0 -6 0 -6 0 -6 0 -12 0 -5 0 -7 0 -5 0 -6 0 -7 0 -5 0 -6 0 -6 0 -6 0 -6 2 -6 0 -6 0 -6 0 -6 2 -6 0 -6 0 -6 2 -6 0 -6 0 -6 2 -5 0 -7 2 -5 0 -6 3 -6 0 -6 2 -6 2 -6 0 -6 3 -6 2 -6 0 -6 3 -6 2 -6 3 -6 2 -6 2 -6 2 -5 3 -7 2 -5 5 -6 3 -6 4 -6 2 -6 5 -6 4 -6 6 -6 7 -6 9 -5 24 5 20 6 10 6 8 6 4 6 6 6 4 6 2 6 5 6 2 5 4 7 4 5 2 6 2 6 2 6 3 6 2 6 2 6 3 6 0 6 2 6 3 6 0 6 2 6 2 6 0 6 3 5 0 7 2 5 0 6 2 6 0 6 0 6 2 6 0 6 0 6 3 6 0 6 0 6 0 6 2 6 0 6 0 6 0 5 0 7 0 6 0 5 0 7 0 5 0 12 0 6 0 6 0 6 0 6 0 6 0 6 0 6 0 6 0 6 0 6 -2 6 0 6 0 5 0 7 -3 5 0 6 0 6 -2 6 0 6 0 6 -2 6 0 6 -2 6 0 6 -3 6 0 6 -2 6 -2 6 0 6 -3 5 -2 7 0 5 -3 7 -2 6 -2 5 -3 7 -2 5 -2 6 -2 6 -4 6 -4 6 -2 6 -5 6 -2 6 -4 6 -6 6 -4 6 -8 6 -10 6 -20 0 0" stroke="#000000" stroke-width="20" fill="#000000" />
    <path d="M 21142 23631 l -5 -24 -6 -9 -5 -8 -5 -5 -6 -4 -5 -5 -6 -2 -5 -4 -5 -3 -6 -5 -5 -2 -5 -3 -6 -2 -5 -2 -5 -3 -6 -2 -5 -2 -5 -3 -6 0 -5 -3 -5 -2 -6 0 -5 -2 -6 -2 -5 0 -5 -3 -6 0 -5 -2 -5 0 -6 -2 -5 0 -5 0 -5 -3 -6 0 -5 0 -6 -2 -5 0 -6 0 -5 0 -5 -1 -6 0 -5 0 -5 0 -6 0 -5 0 -5 0 -5 0 -6 0 -5 0 -11 0 -5 0 -6 0 -5 0 -6 0 -5 0 -5 0 -6 0 -5 0 -5 0 -5 1 -6 0 -5 0 -5 0 -6 2 -5 0 -6 0 -6 3 -5 0 -5 0 -6 2 -5 0 -5 2 -6 0 -4 3 -6 0 -5 2 -5 2 -6 0 -5 2 -6 3 -5 0 -5 3 -6 2 -6 2 -5 3 -5 2 -5 2 -6 3 -5 2 -6 5 -5 3 -5 4 -6 2 -5 5 -6 4 -5 5 -5 8 -6 9 -4 24 4 20 6 10 5 7 5 4 6 6 5 4 6 3 5 4 5 2 6 5 5 3 6 2 5 2 5 3 5 2 6 2 6 3 5 2 5 0 6 3 5 2 6 0 5 3 5 2 6 0 4 2 6 0 5 3 5 0 6 2 5 0 5 0 6 2 6 0 5 0 6 2 5 0 5 0 6 0 5 3 5 0 5 0 6 0 5 0 5 0 6 0 5 0 6 0 5 0 11 0 5 0 6 0 5 0 5 0 5 0 6 0 5 0 5 0 6 0 5 -3 5 0 6 0 5 0 6 -2 5 0 6 0 5 -2 5 0 5 0 6 -2 5 0 5 -3 6 0 5 -2 5 0 6 -2 5 -3 6 0 5 -2 5 -3 6 0 5 -2 5 -3 6 -2 5 -2 5 -3 6 -2 5 -2 5 -3 6 -5 5 -2 5 -4 6 -3 5 -4 6 -6 5 -4 5 -7 6 -10 5 -20 0 0" stroke="#3C3C3C" stroke-width="20" fill="#3C3C3C" />
    <path d="M 21113 23631 l -5 -24 -5 -9 -5 -7 -4 -6 -5 -4 -5 -5 -5 -2 -4 -4 -5 -3 -5 -5 -5 -2 -4 -3 -5 -2 -5 -2 -5 -2 -4 -3 -5 -2 -5 -3 -5 0 -4 -2 -5 -3 -5 0 -5 -2 -4 -2 -5 0 -5 -3 -4 0 -5 -2 -5 0 -5 -2 -4 0 -5 0 -5 -2 -5 0 -5 0 -5 -2 -4 0 -5 0 -5 0 -5 -2 -4 0 -5 0 -5 0 -5 0 -4 0 -5 0 -5 0 -5 0 -4 0 -10 0 -5 0 -5 0 -4 0 -5 0 -5 0 -5 0 -5 0 -5 0 -4 0 -5 2 -5 0 -5 0 -4 0 -5 2 -5 0 -5 0 -4 2 -5 0 -5 0 -5 2 -4 0 -5 2 -5 0 -5 3 -4 0 -5 2 -5 2 -5 0 -4 3 -5 2 -5 0 -5 3 -4 2 -5 3 -5 2 -4 2 -6 2 -4 3 -5 2 -5 5 -5 3 -4 4 -5 2 -5 5 -5 4 -4 6 -5 7 -5 9 -5 24 5 20 5 10 5 8 4 4 5 6 5 4 5 2 4 5 5 2 5 4 5 4 4 2 6 2 4 2 5 3 5 2 4 2 5 3 5 0 5 2 4 3 5 0 5 2 5 2 4 0 5 3 5 0 5 2 4 0 5 2 5 0 5 0 4 2 5 0 5 0 5 3 4 0 5 0 5 0 5 2 4 0 5 0 5 0 5 0 5 0 5 0 4 0 5 0 5 0 10 0 4 0 5 0 5 0 5 0 4 0 5 0 5 0 5 0 4 0 5 -2 5 0 5 0 4 0 5 -3 5 0 5 0 5 -2 5 0 4 0 5 -2 5 0 5 -2 4 0 5 -3 5 0 4 -2 5 -2 5 0 5 -3 4 -2 5 0 5 -3 5 -2 4 -2 5 -3 5 -2 5 -2 4 -2 5 -4 5 -4 5 -2 4 -5 5 -2 5 -4 5 -6 4 -4 5 -8 5 -10 5 -20 0 0" stroke="#5A5A5A" stroke-width="20" fill="#5A5A5A" />
    <path d="M 21081 23631 l -4 -24 -4 -9 -4 -7 -4 -6 -5 -4 -4 -5 -4 -2 -4 -4 -4 -3 -4 -5 -4 -2 -5 -3 -4 -2 -4 -2 -4 -2 -4 -3 -4 -2 -5 -3 -4 0 -4 -2 -4 -3 -4 0 -5 -2 -4 -2 -4 0 -4 -3 -4 0 -4 -2 -4 0 -4 -2 -5 0 -4 0 -4 -2 -4 0 -4 0 -5 -2 -4 0 -4 0 -4 0 -4 -2 -4 0 -5 0 -4 0 -4 0 -4 0 -4 0 -4 0 -4 0 -5 0 -7 0 -5 0 -4 0 -4 0 -4 0 -4 0 -4 0 -5 0 -4 0 -4 0 -4 2 -4 0 -5 0 -3 0 -5 2 -4 0 -4 0 -4 2 -4 0 -4 0 -5 2 -4 0 -4 2 -4 0 -4 3 -5 0 -4 2 -4 2 -4 0 -4 3 -4 2 -4 0 -5 3 -4 2 -4 3 -4 2 -4 2 -4 2 -5 3 -4 2 -4 5 -4 3 -4 4 -5 2 -4 5 -4 4 -4 6 -4 7 -4 9 -4 24 4 20 4 10 4 8 4 4 4 6 4 4 5 2 4 5 4 2 4 4 4 4 5 2 4 2 4 2 4 3 4 2 4 2 5 3 4 0 4 2 4 3 4 0 4 2 4 2 5 0 4 3 4 0 4 2 4 0 5 2 4 0 4 0 4 2 4 0 4 0 5 3 3 0 5 0 4 0 4 2 4 0 4 0 5 0 4 0 4 0 4 0 4 0 4 0 5 0 7 0 5 0 4 0 4 0 4 0 4 0 4 0 4 0 5 0 4 0 4 -2 4 0 4 0 4 0 5 -3 4 0 4 0 4 -2 4 0 5 0 4 -2 4 0 4 -2 4 0 4 -3 4 0 4 -2 5 -2 4 0 4 -3 4 -2 4 0 5 -3 4 -2 4 -2 4 -3 4 -2 4 -2 5 -2 4 -4 4 -4 4 -2 4 -5 4 -2 4 -4 5 -6 4 -4 4 -8 4 -10 4 -20 0 0" stroke="#808080" stroke-width="20" fill="#808080" />
    <path d="M 21052 23631 l -4 -24 -4 -9 -3 -7 -4 -6 -3 -4 -4 -5 -3 -2 -4 -4 -3 -3 -4 -5 -4 -2 -3 -3 -4 -2 -3 -2 -4 -2 -4 -3 -2 -2 -4 -3 -3 0 -4 -2 -4 -3 -3 0 -4 -2 -4 -2 -3 0 -4 -3 -3 0 -4 -2 -4 0 -3 -2 -4 0 -3 0 -4 -2 -3 0 -4 0 -3 -2 -4 0 -3 0 -4 0 -3 -2 -4 0 -4 0 -3 0 -4 0 -3 0 -4 0 -4 0 -3 0 -4 0 -7 0 -4 0 -3 0 -4 0 -3 0 -4 0 -3 0 -4 0 -3 0 -4 0 -3 2 -4 0 -3 0 -4 0 -4 2 -3 0 -4 0 -3 2 -4 0 -4 0 -3 2 -4 0 -4 2 -3 0 -4 3 -3 0 -4 2 -3 2 -4 0 -3 3 -4 2 -3 0 -4 3 -3 2 -4 3 -4 2 -3 2 -4 2 -3 3 -4 2 -4 5 -3 3 -4 4 -3 2 -4 5 -4 4 -3 6 -4 7 -3 9 -3 24 3 20 3 10 4 8 3 4 4 6 4 4 3 2 4 5 3 2 4 4 4 4 3 2 4 2 3 2 4 3 4 2 3 2 4 3 3 0 4 2 3 3 4 0 3 2 4 2 3 0 4 3 3 0 4 2 4 0 3 2 4 0 4 0 3 2 4 0 3 0 4 3 4 0 3 0 4 0 3 2 4 0 3 0 4 0 3 0 4 0 3 0 4 0 3 0 4 0 7 0 4 0 3 0 4 0 4 0 3 0 4 0 3 0 4 0 4 0 3 -2 4 0 3 0 4 0 3 -3 4 0 3 0 4 -2 3 0 4 0 3 -2 4 0 4 -2 3 0 4 -3 3 0 4 -2 4 -2 3 0 4 -3 4 -2 3 0 4 -3 2 -2 4 -2 4 -3 3 -2 4 -2 3 -2 4 -4 4 -4 3 -2 4 -5 3 -2 4 -4 3 -6 4 -4 3 -8 4 -10 4 -20 0 0" stroke="#969696" stroke-width="20" fill="#969696" />
    <path d="M 21023 23631 l -3 -24 -3 -9 -3 -7 -3 -6 -3 -4 -3 -5 -3 -2 -3 -4 -3 -3 -3 -5 -3 -2 -3 -3 -2 -2 -4 -2 -3 -2 -3 -3 -2 -2 -4 -3 -3 0 -2 -2 -3 -3 -4 0 -2 -2 -3 -2 -4 0 -2 -3 -3 0 -3 -2 -3 0 -3 -2 -3 0 -3 0 -3 -2 -3 0 -3 0 -3 -2 -3 0 -3 0 -3 0 -3 -2 -3 0 -3 0 -3 0 -3 0 -3 0 -3 0 -3 0 -3 0 -3 0 -6 0 -3 0 -3 0 -2 0 -4 0 -3 0 -2 0 -3 0 -4 0 -2 0 -3 2 -4 0 -2 0 -3 0 -3 2 -3 0 -3 0 -3 2 -3 0 -3 0 -3 2 -3 0 -3 2 -3 0 -3 3 -3 0 -3 2 -3 2 -3 0 -3 3 -3 2 -3 0 -3 3 -3 2 -3 3 -3 2 -3 2 -3 2 -3 3 -3 2 -2 5 -4 3 -3 4 -2 2 -3 5 -4 4 -2 6 -3 7 -4 9 -2 24 2 20 4 10 3 8 2 4 4 6 3 4 2 2 3 5 4 2 2 4 3 4 3 2 3 2 3 2 3 3 3 2 3 2 3 3 3 0 3 2 3 3 3 0 3 2 3 2 3 0 3 3 3 0 3 2 3 0 3 2 3 0 3 0 3 2 3 0 3 0 3 3 3 0 2 0 4 0 3 2 2 0 4 0 3 0 2 0 3 0 4 0 2 0 3 0 3 0 6 0 3 0 3 0 3 0 3 0 3 0 3 0 3 0 3 0 3 0 3 -2 3 0 3 0 3 0 3 -3 3 0 3 0 3 -2 3 0 3 0 3 -2 3 0 3 -2 3 0 2 -3 4 0 3 -2 2 -2 4 0 3 -3 2 -2 3 0 4 -3 2 -2 3 -2 3 -3 4 -2 2 -2 3 -2 3 -4 3 -4 3 -2 3 -5 3 -2 3 -4 3 -6 3 -4 3 -8 3 -10 3 -20 0 0" stroke="#C0C0C0" stroke-width="20" fill="#C0C0C0" />
    <path d="M 20994 23631 l -3 -24 -3 -9 -2 -7 -2 -6 -3 -4 -2 -5 -3 -2 -2 -4 -2 -3 -3 -5 -2 -2 -2 -3 -3 -2 -2 -2 -3 -2 -2 -3 -2 -2 -3 -3 -2 0 -2 -2 -3 -3 -2 0 -3 -2 -2 -2 -2 0 -3 -3 -2 0 -2 -2 -3 0 -2 -2 -2 0 -3 0 -2 -2 -3 0 -2 0 -2 -2 -3 0 -2 0 -2 0 -3 -2 -2 0 -3 0 -2 0 -2 0 -3 0 -2 0 -2 0 -3 0 -2 0 -5 0 -2 0 -3 0 -2 0 -2 0 -3 0 -2 0 -2 0 -3 0 -2 0 -3 2 -2 0 -3 0 -2 0 -3 2 -2 0 -2 0 -3 2 -3 0 -2 0 -2 2 -3 0 -2 2 -2 0 -2 3 -3 0 -2 2 -2 2 -3 0 -2 3 -3 2 -2 0 -2 3 -3 2 -2 3 -3 2 -2 2 -3 2 -2 3 -2 2 -3 5 -2 3 -2 4 -3 2 -2 5 -3 4 -2 6 -2 7 -3 9 -2 24 2 20 3 10 2 8 2 4 3 6 2 4 3 2 2 5 2 2 3 4 2 4 2 2 3 2 2 2 3 3 2 2 3 2 2 3 2 0 3 2 2 3 3 0 2 2 2 2 3 0 2 3 2 0 2 2 3 0 2 2 2 0 3 0 3 2 2 0 2 0 3 3 2 0 3 0 2 0 3 2 2 0 3 0 2 0 2 0 3 0 2 0 2 0 3 0 2 0 5 0 2 0 3 0 2 0 2 0 3 0 2 0 2 0 3 0 2 0 3 -2 2 0 2 0 3 0 2 -3 2 0 3 0 2 -2 3 0 2 0 2 -2 3 0 2 -2 2 0 3 -3 2 0 2 -2 3 -2 2 0 3 -3 2 -2 2 0 3 -3 2 -2 2 -2 3 -3 2 -2 3 -2 2 -2 2 -4 3 -4 2 -2 2 -5 3 -2 2 -4 3 -6 2 -4 2 -8 3 -10 3 -20 0 0" stroke="#D2D2D2" stroke-width="20" fill="#D2D2D2" />
    <path d="M 20965 23631 l -3 -24 -1 -9 -2 -7 -2 -6 -2 -4 -2 -5 -1 -2 -2 -4 -2 -3 -2 -5 -1 -2 -2 -3 -2 -2 -2 -2 -1 -2 -2 -3 -2 -2 -3 -3 -2 0 -1 -2 -2 -3 -2 0 -2 -2 -2 -2 0 0 -2 -3 -2 0 -2 -2 -2 0 -1 -2 -2 0 -2 0 -2 -2 -2 0 -2 0 -2 -2 -1 0 -2 0 -2 0 -2 -2 -1 0 -2 0 -2 0 -2 0 -2 0 -1 0 -2 0 -2 0 -2 0 -3 0 -2 0 -2 0 -2 0 -2 0 -1 0 -2 0 -2 0 -2 0 -2 0 -1 2 -2 0 -2 0 -2 0 -2 2 -1 0 -2 0 -2 2 -2 0 -2 0 -2 2 -1 0 -2 2 -2 0 -1 3 -2 0 -2 2 -2 2 -1 0 -2 3 -2 2 -2 0 -1 3 -3 2 -2 3 -1 2 -2 2 -2 2 -2 3 -2 2 -2 5 -1 3 -2 4 -2 2 -2 5 -2 4 -1 6 -2 7 -2 9 -1 24 1 20 2 10 2 8 1 4 2 6 2 4 2 2 2 5 1 2 2 4 2 4 2 2 2 2 2 2 1 3 2 2 3 2 1 3 2 0 2 2 2 3 1 0 2 2 2 2 2 0 1 3 2 0 2 2 1 0 2 2 2 0 2 0 2 2 2 0 1 0 2 3 2 0 2 0 2 0 1 2 2 0 2 0 2 0 2 0 1 0 2 0 2 0 2 0 2 0 3 0 2 0 2 0 2 0 1 0 2 0 2 0 2 0 2 0 1 0 2 -2 2 0 2 0 1 0 2 -3 2 0 2 0 2 -2 2 0 2 0 1 -2 2 0 2 -2 2 0 2 -3 0 0 2 -2 2 -2 2 0 2 -3 1 -2 2 0 3 -3 2 -2 2 -2 1 -3 2 -2 2 -2 2 -2 1 -4 2 -4 2 -2 2 -5 1 -2 2 -4 2 -6 2 -4 2 -8 1 -10 3 -20 0 0" stroke="#DEDEDE" stroke-width="20" fill="#DEDEDE" />
    <path d="M 20934 23631 l -2 -25 -1 -9 -2 -7 0 -5 -2 -4 -1 -6 -1 -2 -1 -4 -2 -3 -1 -5 -1 -2 -1 -2 -1 -3 -1 -2 -2 -2 -1 -2 -1 -2 -1 -3 -1 0 -1 -3 -2 -2 -1 0 -1 -2 -1 -2 -1 0 -1 -3 -1 0 -1 -2 -2 0 -1 -2 -1 0 -1 0 -2 -3 -1 0 -1 0 -1 -2 -2 0 -1 0 -1 0 -1 -2 -1 0 -1 0 -1 0 -1 0 -2 0 -1 0 -1 0 -1 0 -2 0 -2 0 -1 0 -1 0 -1 0 -2 0 -1 0 -1 0 -1 0 -1 0 -1 0 -2 2 -1 0 -1 0 -1 0 -2 2 0 0 -2 0 -1 3 -1 0 -1 0 -2 2 -1 0 -1 2 -1 0 -1 3 -1 0 -1 2 -1 2 -2 0 -1 2 -1 3 -1 0 -1 3 -2 2 -1 2 -2 2 -1 2 -1 3 -1 2 0 2 -2 5 -1 3 -1 4 -1 2 -2 6 -1 4 -1 5 -1 7 -1 9 -1 25 1 20 1 10 1 7 1 4 1 6 2 4 1 3 1 4 1 2 2 5 0 3 1 2 1 2 1 3 2 2 1 2 2 2 1 3 1 0 1 2 1 3 2 0 1 2 1 3 1 0 1 2 1 0 1 2 1 0 2 2 1 0 1 0 1 3 2 0 0 0 2 2 1 0 1 0 1 0 2 3 1 0 1 0 1 0 1 0 1 0 2 0 1 0 1 0 1 0 2 0 2 0 1 0 1 0 1 0 2 0 1 0 1 0 1 0 1 0 1 -3 1 0 1 0 2 0 1 -2 1 0 1 0 2 -3 1 0 1 0 1 -2 2 0 1 -2 1 0 1 -2 1 0 1 -3 1 -2 1 0 2 -3 1 -2 1 0 1 -3 1 -2 1 -2 2 -2 1 -3 1 -2 1 -2 1 -3 1 -5 2 -2 1 -4 1 -3 1 -4 2 -6 0 -4 2 -7 1 -10 2 -20 0 0" stroke="#F0F0F0" stroke-width="20" fill="#F0F0F0" />
    <path d="M 20903 23631 l -1 -25 -1 -9 0 -7 -1 -5 -1 -4 0 -6 -1 -2 0 -4 -1 -3 -1 -5 0 -2 -1 -2 -1 -3 0 -2 -1 -2 0 -2 -1 -2 0 -3 -1 0 0 -3 -1 -2 -1 0 0 -2 -1 -2 -1 -3 0 0 -1 -2 0 0 -1 -2 -1 0 0 0 -1 -3 0 0 -1 0 -1 -2 -1 0 0 0 -1 0 0 -2 -1 0 0 0 -1 0 0 0 -1 0 -1 0 0 0 -1 0 0 0 -1 0 -1 0 -1 0 0 0 -1 0 0 0 -1 0 -1 0 0 0 -1 0 -1 2 0 0 -1 0 0 0 -1 2 0 0 -1 0 0 3 -1 0 -1 0 0 2 -1 0 -1 2 0 0 -1 3 0 0 -1 2 -1 2 0 0 0 2 -1 3 -1 0 0 3 -1 2 -1 2 0 2 -1 2 0 3 -1 2 -1 2 0 5 -1 3 -1 4 0 2 -1 6 0 4 -1 5 0 7 -1 9 0 25 0 20 1 10 0 7 1 4 0 6 1 4 0 3 1 4 1 2 0 5 1 3 1 2 0 2 1 3 0 2 1 2 1 2 0 3 1 0 1 2 0 3 0 0 1 2 1 3 0 0 1 2 0 0 1 2 1 0 0 2 1 0 1 0 0 3 1 0 0 0 1 2 0 0 1 0 0 0 1 3 1 0 0 0 1 0 1 0 0 0 1 0 0 0 1 0 1 0 1 0 0 0 1 0 0 0 1 0 1 0 0 0 1 0 0 0 1 0 0 -3 1 0 0 0 1 0 1 -2 1 0 0 0 1 -3 0 0 1 0 1 -2 0 0 1 -2 0 0 1 -2 1 -3 0 -2 1 0 1 -3 0 -2 1 0 0 -3 1 -2 0 -2 1 -2 0 -3 1 -2 1 -2 0 -3 1 -5 1 -2 0 -4 1 -3 0 -4 1 -6 1 -4 0 -7 1 -10 1 -20 0 0" stroke="#FFFFFF" stroke-width="20" fill="#FFFFFF" />
    <path d="M 21172 22471 l -6 -24 -6 -9 -6 -8 -6 -4 -6 -5 -6 -5 -6 -2 -6 -5 -6 -2 -6 -5 -6 -3 -6 -2 -5 -2 -7 -3 -5 -2 -6 -2 -7 -2 -5 -3 -7 0 -5 -3 -6 -2 -6 0 -6 -2 -6 -2 -6 0 -6 -3 -6 0 -6 -2 -6 0 -6 -2 -6 0 -6 0 -6 -2 -6 0 -5 0 -7 -2 -5 0 -6 0 -6 0 -6 -3 -6 0 -6 0 -6 0 -6 0 -6 0 -6 0 -6 0 -6 0 -6 0 -12 0 -5 0 -7 0 -5 0 -6 0 -7 0 -5 0 -6 0 -6 0 -6 0 -6 3 -6 0 -6 0 -6 0 -6 2 -6 0 -6 0 -6 2 -6 0 -6 0 -6 2 -5 0 -7 2 -5 0 -6 3 -6 0 -6 2 -6 2 -6 0 -6 2 -6 3 -6 0 -6 3 -6 2 -6 2 -6 2 -6 3 -6 2 -5 2 -7 3 -5 5 -6 2 -6 5 -6 2 -6 5 -6 5 -6 4 -6 8 -6 9 -5 24 5 20 6 10 6 7 6 5 6 5 6 4 6 3 6 4 6 2 5 5 7 3 5 2 6 3 6 2 6 2 6 2 6 3 6 2 6 0 6 2 6 3 6 0 6 3 6 2 6 0 6 2 5 0 7 2 5 0 6 3 6 0 6 0 6 2 6 0 6 0 6 2 6 0 6 0 6 0 6 3 6 0 6 0 6 0 5 0 7 0 6 0 5 0 7 0 5 0 12 0 6 0 6 0 6 0 6 0 6 0 6 0 6 0 6 0 6 0 6 -3 6 0 6 0 5 0 7 -2 5 0 6 0 6 -2 6 0 6 0 6 -3 6 0 6 -2 6 0 6 -2 6 0 6 -2 6 -3 6 0 6 -3 5 -2 7 0 5 -2 7 -3 6 -2 5 -2 7 -2 5 -3 6 -2 6 -3 6 -5 6 -2 6 -4 6 -3 6 -4 6 -5 6 -5 6 -7 6 -10 6 -20 0 0" stroke="#000000" stroke-width="20" fill="#000000" />
    <path d="M 21142 22470 l -5 -24 -6 -9 -5 -7 -5 -5 -6 -4 -5 -5 -6 -3 -5 -4 -5 -2 -6 -6 -5 -2 -5 -2 -6 -2 -5 -3 -5 -2 -6 -2 -5 -3 -5 -2 -6 0 -5 -3 -5 -2 -6 0 -5 -3 -6 -2 -5 0 -5 -2 -6 0 -5 -2 -5 0 -6 -3 -5 0 -5 0 -5 -2 -6 0 -5 0 -6 -2 -5 0 -6 0 -5 0 -5 -2 -6 0 -5 0 -5 0 -6 0 -5 0 -5 0 -5 0 -6 0 -5 0 -11 0 -5 0 -6 0 -5 0 -6 0 -5 0 -5 0 -6 0 -5 0 -5 0 -5 2 -6 0 -5 0 -5 0 -6 2 -5 0 -6 0 -6 2 -5 0 -5 0 -6 3 -5 0 -5 2 -6 0 -4 2 -6 0 -5 2 -5 3 -6 0 -5 2 -6 3 -5 0 -5 2 -6 3 -6 2 -5 2 -5 3 -5 2 -6 2 -5 2 -6 6 -5 2 -5 4 -6 3 -5 5 -6 4 -5 5 -5 7 -6 9 -4 24 4 21 6 10 5 7 5 5 6 5 5 4 6 3 5 4 5 2 6 5 5 3 6 2 5 3 5 2 5 2 6 2 6 2 5 3 5 0 6 2 5 3 6 0 5 2 5 2 6 0 4 3 6 0 5 2 5 0 6 2 5 0 5 0 6 2 6 0 5 0 6 3 5 0 5 0 6 0 5 2 5 0 5 0 6 0 5 0 5 0 6 0 5 0 6 0 5 0 11 0 5 0 6 0 5 0 5 0 5 0 6 0 5 0 5 0 6 0 5 -2 5 0 6 0 5 0 6 -3 5 0 6 0 5 -2 5 0 5 0 6 -2 5 0 5 -2 6 0 5 -3 5 0 6 -2 5 -2 6 0 5 -3 5 -2 6 0 5 -3 5 -2 6 -2 5 -2 5 -2 6 -3 5 -2 5 -3 6 -5 5 -2 5 -4 6 -3 5 -4 6 -5 5 -5 5 -7 6 -10 5 -21 0 0" stroke="#3C3C3C" stroke-width="20" fill="#3C3C3C" />
    <path d="M 21113 22471 l -5 -24 -5 -9 -5 -8 -4 -4 -5 -5 -5 -5 -5 -2 -4 -5 -5 -2 -5 -5 -5 -3 -4 -2 -5 -2 -5 -3 -5 -2 -4 -2 -5 -2 -5 -3 -5 0 -4 -3 -5 -2 -5 0 -5 -2 -4 -2 -5 0 -5 -3 -4 0 -5 -2 -5 0 -5 -2 -4 0 -5 0 -5 -2 -5 0 -5 0 -5 -2 -4 0 -5 0 -5 0 -5 -3 -4 0 -5 0 -5 0 -5 0 -4 0 -5 0 -5 0 -5 0 -4 0 -10 0 -5 0 -5 0 -4 0 -5 0 -5 0 -5 0 -5 0 -5 0 -4 0 -5 3 -5 0 -5 0 -4 0 -5 2 -5 0 -5 0 -4 2 -5 0 -5 0 -5 2 -4 0 -5 2 -5 0 -5 3 -4 0 -5 2 -5 2 -5 0 -4 2 -5 3 -5 0 -5 3 -4 2 -5 2 -5 2 -4 3 -6 2 -4 2 -5 3 -5 5 -5 2 -4 5 -5 2 -5 5 -5 5 -4 4 -5 8 -5 9 -5 24 5 20 5 10 5 7 4 5 5 5 5 4 5 3 4 4 5 2 5 5 5 3 4 2 6 3 4 2 5 2 5 2 4 3 5 2 5 0 5 2 4 3 5 0 5 3 5 2 4 0 5 2 5 0 5 2 4 0 5 3 5 0 5 0 4 2 5 0 5 0 5 2 4 0 5 0 5 0 5 3 4 0 5 0 5 0 5 0 5 0 5 0 4 0 5 0 5 0 10 0 4 0 5 0 5 0 5 0 4 0 5 0 5 0 5 0 4 0 5 -3 5 0 5 0 4 0 5 -2 5 0 5 0 5 -2 5 0 4 0 5 -3 5 0 5 -2 4 0 5 -2 5 0 4 -2 5 -3 5 0 5 -3 4 -2 5 0 5 -2 5 -3 4 -2 5 -2 5 -2 5 -3 4 -2 5 -3 5 -5 5 -2 4 -4 5 -3 5 -4 5 -5 4 -5 5 -7 5 -10 5 -20 0 0" stroke="#5A5A5A" stroke-width="20" fill="#5A5A5A" />
    <path d="M 21081 22471 l -4 -24 -4 -9 -4 -8 -4 -4 -5 -5 -4 -5 -4 -2 -4 -5 -4 -2 -4 -5 -4 -3 -5 -2 -4 -2 -4 -3 -4 -2 -4 -2 -4 -2 -5 -3 -4 0 -4 -3 -4 -2 -4 0 -5 -2 -4 -2 -4 0 -4 -3 -4 0 -4 -2 -4 0 -4 -2 -5 0 -4 0 -4 -2 -4 0 -4 0 -5 -2 -4 0 -4 0 -4 0 -4 -3 -4 0 -5 0 -4 0 -4 0 -4 0 -4 0 -4 0 -4 0 -5 0 -7 0 -5 0 -4 0 -4 0 -4 0 -4 0 -4 0 -5 0 -4 0 -4 0 -4 3 -4 0 -5 0 -3 0 -5 2 -4 0 -4 0 -4 2 -4 0 -4 0 -5 2 -4 0 -4 2 -4 0 -4 3 -5 0 -4 2 -4 2 -4 0 -4 2 -4 3 -4 0 -5 3 -4 2 -4 2 -4 2 -4 3 -4 2 -5 2 -4 3 -4 5 -4 2 -4 5 -5 2 -4 5 -4 5 -4 4 -4 8 -4 9 -4 24 4 20 4 10 4 7 4 5 4 5 4 4 5 3 4 4 4 2 4 5 4 3 5 2 4 3 4 2 4 2 4 2 4 3 5 2 4 0 4 2 4 3 4 0 4 3 4 2 5 0 4 2 4 0 4 2 4 0 5 3 4 0 4 0 4 2 4 0 4 0 5 2 3 0 5 0 4 0 4 3 4 0 4 0 5 0 4 0 4 0 4 0 4 0 4 0 5 0 7 0 5 0 4 0 4 0 4 0 4 0 4 0 4 0 5 0 4 0 4 -3 4 0 4 0 4 0 5 -2 4 0 4 0 4 -2 4 0 5 0 4 -3 4 0 4 -2 4 0 4 -2 4 0 4 -2 5 -3 4 0 4 -3 4 -2 4 0 5 -2 4 -3 4 -2 4 -2 4 -2 4 -3 5 -2 4 -3 4 -5 4 -2 4 -4 4 -3 4 -4 5 -5 4 -5 4 -7 4 -10 4 -20 0 0" stroke="#808080" stroke-width="20" fill="#808080" />
    <path d="M 21052 22471 l -4 -24 -4 -9 -3 -8 -4 -4 -3 -5 -4 -5 -3 -2 -4 -5 -3 -2 -4 -5 -4 -3 -3 -2 -4 -2 -3 -3 -4 -2 -4 -2 -2 -2 -4 -3 -3 0 -4 -3 -4 -2 -3 0 -4 -2 -4 -2 -3 0 -4 -3 -3 0 -4 -2 -4 0 -3 -2 -4 0 -3 0 -4 -2 -3 0 -4 0 -3 -2 -4 0 -3 0 -4 0 -3 -3 -4 0 -4 0 -3 0 -4 0 -3 0 -4 0 -4 0 -3 0 -4 0 -7 0 -4 0 -3 0 -4 0 -3 0 -4 0 -3 0 -4 0 -3 0 -4 0 -3 3 -4 0 -3 0 -4 0 -4 2 -3 0 -4 0 -3 2 -4 0 -4 0 -3 2 -4 0 -4 2 -3 0 -4 3 -3 0 -4 2 -3 2 -4 0 -3 2 -4 3 -3 0 -4 3 -3 2 -4 2 -4 2 -3 3 -4 2 -3 2 -4 3 -4 5 -3 2 -4 5 -3 2 -4 5 -4 5 -3 4 -4 8 -3 9 -3 24 3 20 3 10 4 7 3 5 4 5 4 4 3 3 4 4 3 2 4 5 4 3 3 2 4 3 3 2 4 2 4 2 3 3 4 2 3 0 4 2 3 3 4 0 3 3 4 2 3 0 4 2 3 0 4 2 4 0 3 3 4 0 4 0 3 2 4 0 3 0 4 2 4 0 3 0 4 0 3 3 4 0 3 0 4 0 3 0 4 0 3 0 4 0 3 0 4 0 7 0 4 0 3 0 4 0 4 0 3 0 4 0 3 0 4 0 4 0 3 -3 4 0 3 0 4 0 3 -2 4 0 3 0 4 -2 3 0 4 0 3 -3 4 0 4 -2 3 0 4 -2 3 0 4 -2 4 -3 3 0 4 -3 4 -2 3 0 4 -2 2 -3 4 -2 4 -2 3 -2 4 -3 3 -2 4 -3 4 -5 3 -2 4 -4 3 -3 4 -4 3 -5 4 -5 3 -7 4 -10 4 -20 0 0" stroke="#969696" stroke-width="20" fill="#969696" />
    <path d="M 21023 22471 l -3 -24 -3 -9 -3 -8 -3 -4 -3 -5 -3 -5 -3 -2 -3 -5 -3 -2 -3 -5 -3 -3 -3 -2 -2 -2 -4 -3 -3 -2 -3 -2 -2 -2 -4 -3 -3 0 -2 -3 -3 -2 -4 0 -2 -2 -3 -2 -4 0 -2 -3 -3 0 -3 -2 -3 0 -3 -2 -3 0 -3 0 -3 -2 -3 0 -3 0 -3 -2 -3 0 -3 0 -3 0 -3 -3 -3 0 -3 0 -3 0 -3 0 -3 0 -3 0 -3 0 -3 0 -3 0 -6 0 -3 0 -3 0 -2 0 -4 0 -3 0 -2 0 -3 0 -4 0 -2 0 -3 3 -4 0 -2 0 -3 0 -3 2 -3 0 -3 0 -3 2 -3 0 -3 0 -3 2 -3 0 -3 2 -3 0 -3 3 -3 0 -3 2 -3 2 -3 0 -3 2 -3 3 -3 0 -3 3 -3 2 -3 2 -3 2 -3 3 -3 2 -3 2 -3 3 -2 5 -4 2 -3 5 -2 2 -3 5 -4 5 -2 4 -3 8 -4 9 -2 24 2 20 4 10 3 7 2 5 4 5 3 4 2 3 3 4 4 2 2 5 3 3 3 2 3 3 3 2 3 2 3 2 3 3 3 2 3 0 3 2 3 3 3 0 3 3 3 2 3 0 3 2 3 0 3 2 3 0 3 3 3 0 3 0 3 2 3 0 3 0 3 2 3 0 2 0 4 0 3 3 2 0 4 0 3 0 2 0 3 0 4 0 2 0 3 0 3 0 6 0 3 0 3 0 3 0 3 0 3 0 3 0 3 0 3 0 3 0 3 -3 3 0 3 0 3 0 3 -2 3 0 3 0 3 -2 3 0 3 0 3 -3 3 0 3 -2 3 0 2 -2 4 0 3 -2 2 -3 4 0 3 -3 2 -2 3 0 4 -2 2 -3 3 -2 3 -2 4 -2 2 -3 3 -2 3 -3 3 -5 3 -2 3 -4 3 -3 3 -4 3 -5 3 -5 3 -7 3 -10 3 -20 0 0" stroke="#C0C0C0" stroke-width="20" fill="#C0C0C0" />
    <path d="M 20994 22471 l -3 -24 -3 -9 -2 -8 -2 -4 -3 -5 -2 -5 -3 -2 -2 -5 -2 -2 -3 -5 -2 -3 -2 -2 -3 -2 -2 -3 -3 -2 -2 -2 -2 -2 -3 -3 -2 0 -2 -3 -3 -2 -2 0 -3 -2 -2 -2 -2 0 -3 -3 -2 0 -2 -2 -3 0 -2 -2 -2 0 -3 0 -2 -2 -3 0 -2 0 -2 -2 -3 0 -2 0 -2 0 -3 -3 -2 0 -3 0 -2 0 -2 0 -3 0 -2 0 -2 0 -3 0 -2 0 -5 0 -2 0 -3 0 -2 0 -2 0 -3 0 -2 0 -2 0 -3 0 -2 0 -3 3 -2 0 -3 0 -2 0 -3 2 -2 0 -2 0 -3 2 -3 0 -2 0 -2 2 -3 0 -2 2 -2 0 -2 3 -3 0 -2 2 -2 2 -3 0 -2 2 -3 3 -2 0 -2 3 -3 2 -2 2 -3 2 -2 3 -3 2 -2 2 -2 3 -3 5 -2 2 -2 5 -3 2 -2 5 -3 5 -2 4 -2 8 -3 9 -2 24 2 20 3 10 2 7 2 5 3 5 2 4 3 3 2 4 2 2 3 5 2 3 2 2 3 3 2 2 3 2 2 2 3 3 2 2 2 0 3 2 2 3 3 0 2 3 2 2 3 0 2 2 2 0 2 2 3 0 2 3 2 0 3 0 3 2 2 0 2 0 3 2 2 0 3 0 2 0 3 3 2 0 3 0 2 0 2 0 3 0 2 0 2 0 3 0 2 0 5 0 2 0 3 0 2 0 2 0 3 0 2 0 2 0 3 0 2 0 3 -3 2 0 2 0 3 0 2 -2 2 0 3 0 2 -2 3 0 2 0 2 -3 3 0 2 -2 2 0 3 -2 2 0 2 -2 3 -3 2 0 3 -3 2 -2 2 0 3 -2 2 -3 2 -2 3 -2 2 -2 3 -3 2 -2 2 -3 3 -5 2 -2 2 -4 3 -3 2 -4 3 -5 2 -5 2 -7 3 -10 3 -20 0 0" stroke="#D2D2D2" stroke-width="20" fill="#D2D2D2" />
    <path d="M 20965 22471 l -3 -24 -1 -9 -2 -8 -2 -4 -2 -5 -2 -5 -1 -2 -2 -5 -2 -2 -2 -5 -1 -3 -2 -2 -2 -2 -2 -3 -1 -2 -2 -2 -2 -2 -3 -3 -2 0 -1 -3 -2 -2 -2 0 -2 -2 -2 -2 0 0 -2 -3 -2 0 -2 -2 -2 0 -1 -2 -2 0 -2 0 -2 -2 -2 0 -2 0 -2 -2 -1 0 -2 0 -2 0 -2 -3 -1 0 -2 0 -2 0 -2 0 -2 0 -1 0 -2 0 -2 0 -2 0 -3 0 -2 0 -2 0 -2 0 -2 0 -1 0 -2 0 -2 0 -2 0 -2 0 -1 3 -2 0 -2 0 -2 0 -2 2 -1 0 -2 0 -2 2 -2 0 -2 0 -2 2 -1 0 -2 2 -2 0 -1 3 -2 0 -2 2 -2 2 -1 0 -2 2 -2 3 -2 0 -1 3 -3 2 -2 2 -1 2 -2 3 -2 2 -2 2 -2 3 -2 5 -1 2 -2 5 -2 2 -2 5 -2 5 -1 4 -2 8 -2 9 -1 24 1 20 2 10 2 7 1 5 2 5 2 4 2 3 2 4 1 2 2 5 2 3 2 2 2 3 2 2 1 2 2 2 3 3 1 2 2 0 2 2 2 3 1 0 2 3 2 2 2 0 1 2 2 0 2 2 1 0 2 3 2 0 2 0 2 2 2 0 1 0 2 2 2 0 2 0 2 0 1 3 2 0 2 0 2 0 2 0 1 0 2 0 2 0 2 0 2 0 3 0 2 0 2 0 2 0 1 0 2 0 2 0 2 0 2 0 1 0 2 -3 2 0 2 0 1 0 2 -2 2 0 2 0 2 -2 2 0 2 0 1 -3 2 0 2 -2 2 0 2 -2 0 0 2 -2 2 -3 2 0 2 -3 1 -2 2 0 3 -2 2 -3 2 -2 1 -2 2 -2 2 -3 2 -2 1 -3 2 -5 2 -2 2 -4 1 -3 2 -4 2 -5 2 -5 2 -7 1 -10 3 -20 0 0" stroke="#DEDEDE" stroke-width="20" fill="#DEDEDE" />
    <path d="M 20934 22470 l -2 -24 -1 -9 -2 -7 0 -5 -2 -4 -1 -6 -1 -2 -1 -4 -2 -3 -1 -5 -1 -2 -1 -2 -1 -3 -1 -2 -2 -2 -1 -2 -1 -3 -1 -2 -1 0 -1 -3 -2 -2 -1 0 -1 -3 -1 -2 -1 0 -1 -2 -1 0 -1 -2 -2 0 -1 -3 -1 0 -1 0 -2 -2 -1 0 -1 0 -1 -2 -2 0 -1 0 -1 0 -1 -2 -1 0 -1 0 -1 0 -1 0 -2 0 -1 0 -1 0 -1 0 -2 0 -2 0 -1 0 -1 0 -1 0 -2 0 -1 0 -1 0 -1 0 -1 0 -1 0 -2 2 -1 0 -1 0 -1 0 -2 2 0 0 -2 0 -1 2 -1 0 -1 0 -2 3 -1 0 -1 2 -1 0 -1 2 -1 0 -1 2 -1 3 -2 0 -1 2 -1 3 -1 0 -1 2 -2 3 -1 2 -2 2 -1 2 -1 3 -1 2 0 2 -2 5 -1 3 -1 4 -1 2 -2 6 -1 4 -1 5 -1 7 -1 9 -1 24 1 20 1 10 1 8 1 4 1 6 2 4 1 2 1 4 1 3 2 4 0 3 1 2 1 3 1 2 2 2 1 2 2 3 1 2 1 0 1 3 1 2 2 0 1 3 1 2 1 0 1 2 1 0 1 3 1 0 2 2 1 0 1 0 1 2 2 0 0 0 2 2 1 0 1 0 1 0 2 3 1 0 1 0 1 0 1 0 1 0 2 0 1 0 1 0 1 0 2 0 2 0 1 0 1 0 1 0 2 0 1 0 1 0 1 0 1 0 1 -3 1 0 1 0 2 0 1 -2 1 0 1 0 2 -2 1 0 1 0 1 -2 2 0 1 -3 1 0 1 -2 1 0 1 -2 1 -3 1 0 2 -2 1 -3 1 0 1 -2 1 -3 1 -2 2 -2 1 -2 1 -3 1 -2 1 -3 1 -4 2 -3 1 -4 1 -2 1 -4 2 -6 0 -4 2 -8 1 -10 2 -20 0 0" stroke="#F0F0F0" stroke-width="20" fill="#F0F0F0" />
    <path d="M 20903 22470 l -1 -24 -1 -9 0 -7 -1 -5 -1 -4 0 -6 -1 -2 0 -4 -1 -3 -1 -5 0 -2 -1 -2 -1 -3 0 -2 -1 -2 0 -2 -1 -3 0 -2 -1 0 0 -3 -1 -2 -1 0 0 -3 -1 -2 -1 -2 0 0 -1 -2 0 0 -1 -3 -1 0 0 0 -1 -2 0 0 -1 0 -1 -2 -1 0 0 0 -1 0 0 -2 -1 0 0 0 -1 0 0 0 -1 0 -1 0 0 0 -1 0 0 0 -1 0 -1 0 -1 0 0 0 -1 0 0 0 -1 0 -1 0 0 0 -1 0 -1 2 0 0 -1 0 0 0 -1 2 0 0 -1 0 0 2 -1 0 -1 0 0 3 -1 0 -1 2 0 0 -1 2 0 0 -1 2 -1 3 0 0 0 2 -1 3 -1 0 0 2 -1 3 -1 2 0 2 -1 2 0 3 -1 2 -1 2 0 5 -1 3 -1 4 0 2 -1 6 0 4 -1 5 0 7 -1 9 0 24 0 20 1 10 0 8 1 4 0 6 1 4 0 2 1 4 1 3 0 4 1 3 1 2 0 3 1 2 0 2 1 2 1 3 0 2 1 0 1 3 0 2 0 0 1 3 1 2 0 0 1 2 0 0 1 3 1 0 0 2 1 0 1 0 0 2 1 0 0 0 1 2 0 0 1 0 0 0 1 3 1 0 0 0 1 0 1 0 0 0 1 0 0 0 1 0 1 0 1 0 0 0 1 0 0 0 1 0 1 0 0 0 1 0 0 0 1 0 0 -3 1 0 0 0 1 0 1 -2 1 0 0 0 1 -2 0 0 1 0 1 -2 0 0 1 -3 0 0 1 -2 1 -2 0 -3 1 0 1 -2 0 -3 1 0 0 -2 1 -3 0 -2 1 -2 0 -2 1 -3 1 -2 0 -3 1 -4 1 -3 0 -4 1 -2 0 -4 1 -6 1 -4 0 -8 1 -10 1 -20 0 0" stroke="#FFFFFF" stroke-width="20" fill="#FFFFFF" />
    <path d="M 21172 23631 l -6 -24 -6 -9 -6 -7 -6 -6 -6 -4 -6 -5 -6 -2 -6 -4 -6 -3 -6 -5 -6 -2 -6 -3 -5 -2 -7 -2 -5 -2 -6 -3 -7 -2 -5 -3 -7 0 -5 -2 -6 -3 -6 0 -6 -2 -6 -2 -6 0 -6 -3 -6 0 -6 -2 -6 0 -6 -2 -6 0 -6 0 -6 -2 -6 0 -5 0 -7 -2 -5 0 -6 0 -6 0 -6 -2 -6 0 -6 0 -6 0 -6 0 -6 0 -6 0 -6 0 -6 0 -6 0 -12 0 -5 0 -7 0 -5 0 -6 0 -7 0 -5 0 -6 0 -6 0 -6 0 -6 2 -6 0 -6 0 -6 0 -6 2 -6 0 -6 0 -6 2 -6 0 -6 0 -6 2 -5 0 -7 2 -5 0 -6 3 -6 0 -6 2 -6 2 -6 0 -6 3 -6 2 -6 0 -6 3 -6 2 -6 3 -6 2 -6 2 -6 2 -5 3 -7 2 -5 5 -6 3 -6 4 -6 2 -6 5 -6 4 -6 6 -6 7 -6 9 -5 24 5 20 6 10 6 8 6 4 6 6 6 4 6 2 6 5 6 2 5 4 7 4 5 2 6 2 6 2 6 3 6 2 6 2 6 3 6 0 6 2 6 3 6 0 6 2 6 2 6 0 6 3 5 0 7 2 5 0 6 2 6 0 6 0 6 2 6 0 6 0 6 3 6 0 6 0 6 0 6 2 6 0 6 0 6 0 5 0 7 0 6 0 5 0 7 0 5 0 12 0 6 0 6 0 6 0 6 0 6 0 6 0 6 0 6 0 6 0 6 -2 6 0 6 0 5 0 7 -3 5 0 6 0 6 -2 6 0 6 0 6 -2 6 0 6 -2 6 0 6 -3 6 0 6 -2 6 -2 6 0 6 -3 5 -2 7 0 5 -3 7 -2 6 -2 5 -3 7 -2 5 -2 6 -2 6 -4 6 -4 6 -2 6 -5 6 -2 6 -4 6 -6 6 -4 6 -8 6 -10 6 -20 0 0" stroke="#000000" stroke-width="20" fill="#000000" />
    <path d="M 21142 23631 l -5 -24 -6 -9 -5 -8 -5 -5 -6 -4 -5 -5 -6 -2 -5 -4 -5 -3 -6 -5 -5 -2 -5 -3 -6 -2 -5 -2 -5 -3 -6 -2 -5 -2 -5 -3 -6 0 -5 -3 -5 -2 -6 0 -5 -2 -6 -2 -5 0 -5 -3 -6 0 -5 -2 -5 0 -6 -2 -5 0 -5 0 -5 -3 -6 0 -5 0 -6 -2 -5 0 -6 0 -5 0 -5 -1 -6 0 -5 0 -5 0 -6 0 -5 0 -5 0 -5 0 -6 0 -5 0 -11 0 -5 0 -6 0 -5 0 -6 0 -5 0 -5 0 -6 0 -5 0 -5 0 -5 1 -6 0 -5 0 -5 0 -6 2 -5 0 -6 0 -6 3 -5 0 -5 0 -6 2 -5 0 -5 2 -6 0 -4 3 -6 0 -5 2 -5 2 -6 0 -5 2 -6 3 -5 0 -5 3 -6 2 -6 2 -5 3 -5 2 -5 2 -6 3 -5 2 -6 5 -5 3 -5 4 -6 2 -5 5 -6 4 -5 5 -5 8 -6 9 -4 24 4 20 6 10 5 7 5 4 6 6 5 4 6 3 5 4 5 2 6 5 5 3 6 2 5 2 5 3 5 2 6 2 6 3 5 2 5 0 6 3 5 2 6 0 5 3 5 2 6 0 4 2 6 0 5 3 5 0 6 2 5 0 5 0 6 2 6 0 5 0 6 2 5 0 5 0 6 0 5 3 5 0 5 0 6 0 5 0 5 0 6 0 5 0 6 0 5 0 11 0 5 0 6 0 5 0 5 0 5 0 6 0 5 0 5 0 6 0 5 -3 5 0 6 0 5 0 6 -2 5 0 6 0 5 -2 5 0 5 0 6 -2 5 0 5 -3 6 0 5 -2 5 0 6 -2 5 -3 6 0 5 -2 5 -3 6 0 5 -2 5 -3 6 -2 5 -2 5 -3 6 -2 5 -2 5 -3 6 -5 5 -2 5 -4 6 -3 5 -4 6 -6 5 -4 5 -7 6 -10 5 -20 0 0" stroke="#3C3C3C" stroke-width="20" fill="#3C3C3C" />
    <path d="M 21113 23631 l -5 -24 -5 -9 -5 -7 -4 -6 -5 -4 -5 -5 -5 -2 -4 -4 -5 -3 -5 -5 -5 -2 -4 -3 -5 -2 -5 -2 -5 -2 -4 -3 -5 -2 -5 -3 -5 0 -4 -2 -5 -3 -5 0 -5 -2 -4 -2 -5 0 -5 -3 -4 0 -5 -2 -5 0 -5 -2 -4 0 -5 0 -5 -2 -5 0 -5 0 -5 -2 -4 0 -5 0 -5 0 -5 -2 -4 0 -5 0 -5 0 -5 0 -4 0 -5 0 -5 0 -5 0 -4 0 -10 0 -5 0 -5 0 -4 0 -5 0 -5 0 -5 0 -5 0 -5 0 -4 0 -5 2 -5 0 -5 0 -4 0 -5 2 -5 0 -5 0 -4 2 -5 0 -5 0 -5 2 -4 0 -5 2 -5 0 -5 3 -4 0 -5 2 -5 2 -5 0 -4 3 -5 2 -5 0 -5 3 -4 2 -5 3 -5 2 -4 2 -6 2 -4 3 -5 2 -5 5 -5 3 -4 4 -5 2 -5 5 -5 4 -4 6 -5 7 -5 9 -5 24 5 20 5 10 5 8 4 4 5 6 5 4 5 2 4 5 5 2 5 4 5 4 4 2 6 2 4 2 5 3 5 2 4 2 5 3 5 0 5 2 4 3 5 0 5 2 5 2 4 0 5 3 5 0 5 2 4 0 5 2 5 0 5 0 4 2 5 0 5 0 5 3 4 0 5 0 5 0 5 2 4 0 5 0 5 0 5 0 5 0 5 0 4 0 5 0 5 0 10 0 4 0 5 0 5 0 5 0 4 0 5 0 5 0 5 0 4 0 5 -2 5 0 5 0 4 0 5 -3 5 0 5 0 5 -2 5 0 4 0 5 -2 5 0 5 -2 4 0 5 -3 5 0 4 -2 5 -2 5 0 5 -3 4 -2 5 0 5 -3 5 -2 4 -2 5 -3 5 -2 5 -2 4 -2 5 -4 5 -4 5 -2 4 -5 5 -2 5 -4 5 -6 4 -4 5 -8 5 -10 5 -20 0 0" stroke="#5A5A5A" stroke-width="20" fill="#5A5A5A" />
    <path d="M 21081 23631 l -4 -24 -4 -9 -4 -7 -4 -6 -5 -4 -4 -5 -4 -2 -4 -4 -4 -3 -4 -5 -4 -2 -5 -3 -4 -2 -4 -2 -4 -2 -4 -3 -4 -2 -5 -3 -4 0 -4 -2 -4 -3 -4 0 -5 -2 -4 -2 -4 0 -4 -3 -4 0 -4 -2 -4 0 -4 -2 -5 0 -4 0 -4 -2 -4 0 -4 0 -5 -2 -4 0 -4 0 -4 0 -4 -2 -4 0 -5 0 -4 0 -4 0 -4 0 -4 0 -4 0 -4 0 -5 0 -7 0 -5 0 -4 0 -4 0 -4 0 -4 0 -4 0 -5 0 -4 0 -4 0 -4 2 -4 0 -5 0 -3 0 -5 2 -4 0 -4 0 -4 2 -4 0 -4 0 -5 2 -4 0 -4 2 -4 0 -4 3 -5 0 -4 2 -4 2 -4 0 -4 3 -4 2 -4 0 -5 3 -4 2 -4 3 -4 2 -4 2 -4 2 -5 3 -4 2 -4 5 -4 3 -4 4 -5 2 -4 5 -4 4 -4 6 -4 7 -4 9 -4 24 4 20 4 10 4 8 4 4 4 6 4 4 5 2 4 5 4 2 4 4 4 4 5 2 4 2 4 2 4 3 4 2 4 2 5 3 4 0 4 2 4 3 4 0 4 2 4 2 5 0 4 3 4 0 4 2 4 0 5 2 4 0 4 0 4 2 4 0 4 0 5 3 3 0 5 0 4 0 4 2 4 0 4 0 5 0 4 0 4 0 4 0 4 0 4 0 5 0 7 0 5 0 4 0 4 0 4 0 4 0 4 0 4 0 5 0 4 0 4 -2 4 0 4 0 4 0 5 -3 4 0 4 0 4 -2 4 0 5 0 4 -2 4 0 4 -2 4 0 4 -3 4 0 4 -2 5 -2 4 0 4 -3 4 -2 4 0 5 -3 4 -2 4 -2 4 -3 4 -2 4 -2 5 -2 4 -4 4 -4 4 -2 4 -5 4 -2 4 -4 5 -6 4 -4 4 -8 4 -10 4 -20 0 0" stroke="#808080" stroke-width="20" fill="#808080" />
    <path d="M 21052 23631 l -4 -24 -4 -9 -3 -7 -4 -6 -3 -4 -4 -5 -3 -2 -4 -4 -3 -3 -4 -5 -4 -2 -3 -3 -4 -2 -3 -2 -4 -2 -4 -3 -2 -2 -4 -3 -3 0 -4 -2 -4 -3 -3 0 -4 -2 -4 -2 -3 0 -4 -3 -3 0 -4 -2 -4 0 -3 -2 -4 0 -3 0 -4 -2 -3 0 -4 0 -3 -2 -4 0 -3 0 -4 0 -3 -2 -4 0 -4 0 -3 0 -4 0 -3 0 -4 0 -4 0 -3 0 -4 0 -7 0 -4 0 -3 0 -4 0 -3 0 -4 0 -3 0 -4 0 -3 0 -4 0 -3 2 -4 0 -3 0 -4 0 -4 2 -3 0 -4 0 -3 2 -4 0 -4 0 -3 2 -4 0 -4 2 -3 0 -4 3 -3 0 -4 2 -3 2 -4 0 -3 3 -4 2 -3 0 -4 3 -3 2 -4 3 -4 2 -3 2 -4 2 -3 3 -4 2 -4 5 -3 3 -4 4 -3 2 -4 5 -4 4 -3 6 -4 7 -3 9 -3 24 3 20 3 10 4 8 3 4 4 6 4 4 3 2 4 5 3 2 4 4 4 4 3 2 4 2 3 2 4 3 4 2 3 2 4 3 3 0 4 2 3 3 4 0 3 2 4 2 3 0 4 3 3 0 4 2 4 0 3 2 4 0 4 0 3 2 4 0 3 0 4 3 4 0 3 0 4 0 3 2 4 0 3 0 4 0 3 0 4 0 3 0 4 0 3 0 4 0 7 0 4 0 3 0 4 0 4 0 3 0 4 0 3 0 4 0 4 0 3 -2 4 0 3 0 4 0 3 -3 4 0 3 0 4 -2 3 0 4 0 3 -2 4 0 4 -2 3 0 4 -3 3 0 4 -2 4 -2 3 0 4 -3 4 -2 3 0 4 -3 2 -2 4 -2 4 -3 3 -2 4 -2 3 -2 4 -4 4 -4 3 -2 4 -5 3 -2 4 -4 3 -6 4 -4 3 -8 4 -10 4 -20 0 0" stroke="#969696" stroke-width="20" fill="#969696" />
    <path d="M 21023 23631 l -3 -24 -3 -9 -3 -7 -3 -6 -3 -4 -3 -5 -3 -2 -3 -4 -3 -3 -3 -5 -3 -2 -3 -3 -2 -2 -4 -2 -3 -2 -3 -3 -2 -2 -4 -3 -3 0 -2 -2 -3 -3 -4 0 -2 -2 -3 -2 -4 0 -2 -3 -3 0 -3 -2 -3 0 -3 -2 -3 0 -3 0 -3 -2 -3 0 -3 0 -3 -2 -3 0 -3 0 -3 0 -3 -2 -3 0 -3 0 -3 0 -3 0 -3 0 -3 0 -3 0 -3 0 -3 0 -6 0 -3 0 -3 0 -2 0 -4 0 -3 0 -2 0 -3 0 -4 0 -2 0 -3 2 -4 0 -2 0 -3 0 -3 2 -3 0 -3 0 -3 2 -3 0 -3 0 -3 2 -3 0 -3 2 -3 0 -3 3 -3 0 -3 2 -3 2 -3 0 -3 3 -3 2 -3 0 -3 3 -3 2 -3 3 -3 2 -3 2 -3 2 -3 3 -3 2 -2 5 -4 3 -3 4 -2 2 -3 5 -4 4 -2 6 -3 7 -4 9 -2 24 2 20 4 10 3 8 2 4 4 6 3 4 2 2 3 5 4 2 2 4 3 4 3 2 3 2 3 2 3 3 3 2 3 2 3 3 3 0 3 2 3 3 3 0 3 2 3 2 3 0 3 3 3 0 3 2 3 0 3 2 3 0 3 0 3 2 3 0 3 0 3 3 3 0 2 0 4 0 3 2 2 0 4 0 3 0 2 0 3 0 4 0 2 0 3 0 3 0 6 0 3 0 3 0 3 0 3 0 3 0 3 0 3 0 3 0 3 0 3 -2 3 0 3 0 3 0 3 -3 3 0 3 0 3 -2 3 0 3 0 3 -2 3 0 3 -2 3 0 2 -3 4 0 3 -2 2 -2 4 0 3 -3 2 -2 3 0 4 -3 2 -2 3 -2 3 -3 4 -2 2 -2 3 -2 3 -4 3 -4 3 -2 3 -5 3 -2 3 -4 3 -6 3 -4 3 -8 3 -10 3 -20 0 0" stroke="#C0C0C0" stroke-width="20" fill="#C0C0C0" />
    <path d="M 20994 23631 l -3 -24 -3 -9 -2 -7 -2 -6 -3 -4 -2 -5 -3 -2 -2 -4 -2 -3 -3 -5 -2 -2 -2 -3 -3 -2 -2 -2 -3 -2 -2 -3 -2 -2 -3 -3 -2 0 -2 -2 -3 -3 -2 0 -3 -2 -2 -2 -2 0 -3 -3 -2 0 -2 -2 -3 0 -2 -2 -2 0 -3 0 -2 -2 -3 0 -2 0 -2 -2 -3 0 -2 0 -2 0 -3 -2 -2 0 -3 0 -2 0 -2 0 -3 0 -2 0 -2 0 -3 0 -2 0 -5 0 -2 0 -3 0 -2 0 -2 0 -3 0 -2 0 -2 0 -3 0 -2 0 -3 2 -2 0 -3 0 -2 0 -3 2 -2 0 -2 0 -3 2 -3 0 -2 0 -2 2 -3 0 -2 2 -2 0 -2 3 -3 0 -2 2 -2 2 -3 0 -2 3 -3 2 -2 0 -2 3 -3 2 -2 3 -3 2 -2 2 -3 2 -2 3 -2 2 -3 5 -2 3 -2 4 -3 2 -2 5 -3 4 -2 6 -2 7 -3 9 -2 24 2 20 3 10 2 8 2 4 3 6 2 4 3 2 2 5 2 2 3 4 2 4 2 2 3 2 2 2 3 3 2 2 3 2 2 3 2 0 3 2 2 3 3 0 2 2 2 2 3 0 2 3 2 0 2 2 3 0 2 2 2 0 3 0 3 2 2 0 2 0 3 3 2 0 3 0 2 0 3 2 2 0 3 0 2 0 2 0 3 0 2 0 2 0 3 0 2 0 5 0 2 0 3 0 2 0 2 0 3 0 2 0 2 0 3 0 2 0 3 -2 2 0 2 0 3 0 2 -3 2 0 3 0 2 -2 3 0 2 0 2 -2 3 0 2 -2 2 0 3 -3 2 0 2 -2 3 -2 2 0 3 -3 2 -2 2 0 3 -3 2 -2 2 -2 3 -3 2 -2 3 -2 2 -2 2 -4 3 -4 2 -2 2 -5 3 -2 2 -4 3 -6 2 -4 2 -8 3 -10 3 -20 0 0" stroke="#D2D2D2" stroke-width="20" fill="#D2D2D2" />
    <path d="M 20965 23631 l -3 -24 -1 -9 -2 -7 -2 -6 -2 -4 -2 -5 -1 -2 -2 -4 -2 -3 -2 -5 -1 -2 -2 -3 -2 -2 -2 -2 -1 -2 -2 -3 -2 -2 -3 -3 -2 0 -1 -2 -2 -3 -2 0 -2 -2 -2 -2 0 0 -2 -3 -2 0 -2 -2 -2 0 -1 -2 -2 0 -2 0 -2 -2 -2 0 -2 0 -2 -2 -1 0 -2 0 -2 0 -2 -2 -1 0 -2 0 -2 0 -2 0 -2 0 -1 0 -2 0 -2 0 -2 0 -3 0 -2 0 -2 0 -2 0 -2 0 -1 0 -2 0 -2 0 -2 0 -2 0 -1 2 -2 0 -2 0 -2 0 -2 2 -1 0 -2 0 -2 2 -2 0 -2 0 -2 2 -1 0 -2 2 -2 0 -1 3 -2 0 -2 2 -2 2 -1 0 -2 3 -2 2 -2 0 -1 3 -3 2 -2 3 -1 2 -2 2 -2 2 -2 3 -2 2 -2 5 -1 3 -2 4 -2 2 -2 5 -2 4 -1 6 -2 7 -2 9 -1 24 1 20 2 10 2 8 1 4 2 6 2 4 2 2 2 5 1 2 2 4 2 4 2 2 2 2 2 2 1 3 2 2 3 2 1 3 2 0 2 2 2 3 1 0 2 2 2 2 2 0 1 3 2 0 2 2 1 0 2 2 2 0 2 0 2 2 2 0 1 0 2 3 2 0 2 0 2 0 1 2 2 0 2 0 2 0 2 0 1 0 2 0 2 0 2 0 2 0 3 0 2 0 2 0 2 0 1 0 2 0 2 0 2 0 2 0 1 0 2 -2 2 0 2 0 1 0 2 -3 2 0 2 0 2 -2 2 0 2 0 1 -2 2 0 2 -2 2 0 2 -3 0 0 2 -2 2 -2 2 0 2 -3 1 -2 2 0 3 -3 2 -2 2 -2 1 -3 2 -2 2 -2 2 -2 1 -4 2 -4 2 -2 2 -5 1 -2 2 -4 2 -6 2 -4 2 -8 1 -10 3 -20 0 0" stroke="#DEDEDE" stroke-width="20" fill="#DEDEDE" />
    <path d="M 20934 23631 l -2 -25 -1 -9 -2 -7 0 -5 -2 -4 -1 -6 -1 -2 -1 -4 -2 -3 -1 -5 -1 -2 -1 -2 -1 -3 -1 -2 -2 -2 -1 -2 -1 -2 -1 -3 -1 0 -1 -3 -2 -2 -1 0 -1 -2 -1 -2 -1 0 -1 -3 -1 0 -1 -2 -2 0 -1 -2 -1 0 -1 0 -2 -3 -1 0 -1 0 -1 -2 -2 0 -1 0 -1 0 -1 -2 -1 0 -1 0 -1 0 -1 0 -2 0 -1 0 -1 0 -1 0 -2 0 -2 0 -1 0 -1 0 -1 0 -2 0 -1 0 -1 0 -1 0 -1 0 -1 0 -2 2 -1 0 -1 0 -1 0 -2 2 0 0 -2 0 -1 3 -1 0 -1 0 -2 2 -1 0 -1 2 -1 0 -1 3 -1 0 -1 2 -1 2 -2 0 -1 2 -1 3 -1 0 -1 3 -2 2 -1 2 -2 2 -1 2 -1 3 -1 2 0 2 -2 5 -1 3 -1 4 -1 2 -2 6 -1 4 -1 5 -1 7 -1 9 -1 25 1 20 1 10 1 7 1 4 1 6 2 4 1 3 1 4 1 2 2 5 0 3 1 2 1 2 1 3 2 2 1 2 2 2 1 3 1 0 1 2 1 3 2 0 1 2 1 3 1 0 1 2 1 0 1 2 1 0 2 2 1 0 1 0 1 3 2 0 0 0 2 2 1 0 1 0 1 0 2 3 1 0 1 0 1 0 1 0 1 0 2 0 1 0 1 0 1 0 2 0 2 0 1 0 1 0 1 0 2 0 1 0 1 0 1 0 1 0 1 -3 1 0 1 0 2 0 1 -2 1 0 1 0 2 -3 1 0 1 0 1 -2 2 0 1 -2 1 0 1 -2 1 0 1 -3 1 -2 1 0 2 -3 1 -2 1 0 1 -3 1 -2 1 -2 2 -2 1 -3 1 -2 1 -2 1 -3 1 -5 2 -2 1 -4 1 -3 1 -4 2 -6 0 -4 2 -7 1 -10 2 -20 0 0" stroke="#F0F0F0" stroke-width="20" fill="#F0F0F0" />
    <path d="M 20903 23631 l -1 -25 -1 -9 0 -7 -1 -5 -1 -4 0 -6 -1 -2 0 -4 -1 -3 -1 -5 0 -2 -1 -2 -1 -3 0 -2 -1 -2 0 -2 -1 -2 0 -3 -1 0 0 -3 -1 -2 -1 0 0 -2 -1 -2 -1 -3 0 0 -1 -2 0 0 -1 -2 -1 0 0 0 -1 -3 0 0 -1 0 -1 -2 -1 0 0 0 -1 0 0 -2 -1 0 0 0 -1 0 0 0 -1 0 -1 0 0 0 -1 0 0 0 -1 0 -1 0 -1 0 0 0 -1 0 0 0 -1 0 -1 0 0 0 -1 0 -1 2 0 0 -1 0 0 0 -1 2 0 0 -1 0 0 3 -1 0 -1 0 0 2 -1 0 -1 2 0 0 -1 3 0 0 -1 2 -1 2 0 0 0 2 -1 3 -1 0 0 3 -1 2 -1 2 0 2 -1 2 0 3 -1 2 -1 2 0 5 -1 3 -1 4 0 2 -1 6 0 4 -1 5 0 7 -1 9 0 25 0 20 1 10 0 7 1 4 0 6 1 4 0 3 1 4 1 2 0 5 1 3 1 2 0 2 1 3 0 2 1 2 1 2 0 3 1 0 1 2 0 3 0 0 1 2 1 3 0 0 1 2 0 0 1 2 1 0 0 2 1 0 1 0 0 3 1 0 0 0 1 2 0 0 1 0 0 0 1 3 1 0 0 0 1 0 1 0 0 0 1 0 0 0 1 0 1 0 1 0 0 0 1 0 0 0 1 0 1 0 0 0 1 0 0 0 1 0 0 -3 1 0 0 0 1 0 1 -2 1 0 0 0 1 -3 0 0 1 0 1 -2 0 0 1 -2 0 0 1 -2 1 -3 0 -2 1 0 1 -3 0 -2 1 0 0 -3 1 -2 0 -2 1 -2 0 -3 1 -2 1 -2 0 -3 1 -5 1 -2 0 -4 1 -3 0 -4 1 -6 1 -4 0 -7 1 -10 1 -20 0 0" stroke="#FFFFFF" stroke-width="20" fill="#FFFFFF" />
    <path d="M 20753 22470 l 31 0 0 1157 -31 0 0 -1157 0 0" stroke="#D2D2D2" stroke-width="20" fill="#D2D2D2" />
    <path d="M 20814 22471 l 31 0 0 1158 -31 0 0 -1158 0 0" stroke="#F0F0F0" stroke-width="20" fill="#F0F0F0" />
    <path d="M 20784 22471 l 31 0 0 1158 -31 0 0 -1158 0 0" stroke="#DEDEDE" stroke-width="20" fill="#DEDEDE" />
    <path d="M 20843 22471 l 31 0 0 1158 -31 0 0 -1158 0 0" stroke="#FFFFFF" stroke-width="20" fill="#FFFFFF" />
    <path d="M 20578 22471 l 29 0 0 1158 -29 0 0 -1158 0 0" stroke="#000000" stroke-width="20" fill="#000000" />
    <path d="M 20606 22471 l 31 0 0 1158 -31 0 0 -1158 0 0" stroke="#3C3C3C" stroke-width="20" fill="#3C3C3C" />
    <path d="M 20636 22471 l 31 0 0 1158 -31 0 0 -1158 0 0" stroke="#5A5A5A" stroke-width="20" fill="#5A5A5A" />
    <path d="M 20666 22471 l 30 0 0 1158 -30 0 0 -1158 0 0" stroke="#808080" stroke-width="20" fill="#808080" />
    <path d="M 20695 22471 l 31 0 0 1158 -31 0 0 -1158 0 0" stroke="#969696" stroke-width="20" fill="#969696" />
    <path d="M 20725 22471 l 30 0 0 1158 -30 0 0 -1158 0 0" stroke="#C0C0C0" stroke-width="20" fill="#C0C0C0" />
    <path d="M 20994 22471 l -30 0 0 1158 30 0 0 -1158 0 0" stroke="#D2D2D2" stroke-width="20" fill="#D2D2D2" />
    <path d="M 20934 22472 l -31 0 0 1159 31 0 0 -1159 0 0" stroke="#F0F0F0" stroke-width="20" fill="#F0F0F0" />
    <path d="M 20964 22472 l -31 0 0 1159 31 0 0 -1159 0 0" stroke="#DEDEDE" stroke-width="20" fill="#DEDEDE" />
    <path d="M 20904 22472 l -30 0 0 1159 30 0 0 -1159 0 0" stroke="#FFFFFF" stroke-width="20" fill="#FFFFFF" />
    <path d="M 21172 22472 l -31 0 0 1159 31 0 0 -1159 0 0" stroke="#000000" stroke-width="20" fill="#000000" />
    <path d="M 21142 22472 l -31 0 0 1159 31 0 0 -1159 0 0" stroke="#3C3C3C" stroke-width="20" fill="#3C3C3C" />
    <path d="M 21112 22472 l -31 0 0 1159 31 0 0 -1159 0 0" stroke="#5A5A5A" stroke-width="20" fill="#5A5A5A" />
    <path d="M 21083 22472 l -32 0 0 1159 32 0 0 -1159 0 0" stroke="#808080" stroke-width="20" fill="#808080" />
    <path d="M 21053 22472 l -31 0 0 1159 31 0 0 -1159 0 0" stroke="#969696" stroke-width="20" fill="#969696" />
    <path d="M 21023 22472 l -31 0 0 1159 31 0 0 -1159 0 0" stroke="#C0C0C0" stroke-width="20" fill="#C0C0C0" />
  </g>
  <rect x="20560" y="22600" width="600" height="900" stroke="#000000" stroke-width="20" fill="none" />
  <path d="M 20560 23060 l 320 0" stroke="#000000" stroke-width="20" fill="none" />
  <path d="M 20820 22840 l 320 0" stroke="#000000" stroke-width="20" fill="none" />
  <path d="M 20820 23280 l 320 0" stroke="#000000" stroke-width="20" fill="none" />
  <path id="LINE929" d="M 20860 23780 l 0 860" stroke="#000000" stroke-width="80" fill="none" />
  <path id="LINE930" d="M 17480 16840 l 0 7840" stroke="#000000" stroke-width="40" fill="none" />
  <g id="TEXT141">
    <rect x="1640" y="16780" width="1460" height="560" stroke-width="0" fill="none" id="TEXT141_pbTextBoundingRectEl" />
    <text fill="#000000" font-family="Helvetica" font-size="352" text-anchor="middle" x="2370" y="17236" id="TEXT141_pbTextEl">生产水</text>
  </g>
  <g id="TEXT142">
    <rect x="1640" y="18040" width="1460" height="560" stroke-width="0" fill="none" id="TEXT142_pbTextBoundingRectEl" />
    <text fill="#000000" font-family="Helvetica" font-size="352" text-anchor="middle" x="2370" y="18496" id="TEXT142_pbTextEl">循环水</text>
  </g>
  <g id="TEXT143">
    <rect x="1640" y="19480" width="1460" height="560" stroke-width="0" fill="none" id="TEXT143_pbTextBoundingRectEl" />
    <text fill="#000000" font-family="Helvetica" font-size="352" text-anchor="middle" x="2370" y="19936" id="TEXT143_pbTextEl">循环水</text>
  </g>
  <path id="LINE931" d="M 49660 16600 l 0 -11040" stroke="#80FFFF" stroke-width="40" fill="none" />
  <rect x="49060" y="7520" width="1220" height="1940" stroke="#000000" stroke-width="20" fill="#C0C0C0" />
  <path d="M 49060 8520 l 600 0" stroke="#000000" stroke-width="20" fill="none" />
  <path d="M 49540 8040 l 640 0" stroke="#000000" stroke-width="20" fill="none" />
  <path d="M 49540 9000 l 640 0" stroke="#000000" stroke-width="20" fill="none" />
  <rect x="51660" y="11640" width="3000" height="400" stroke="#0000FF" stroke-width="20" fill="none" id="RECTANGLE190" />
  <rect x="51660" y="12040" width="3000" height="400" stroke="#0000FF" stroke-width="20" fill="none" id="RECTANGLE191" />
  <g id="TEXT144">
    <rect x="51460" y="11580" width="3400" height="560" stroke-width="0" fill="none" id="TEXT144_pbTextBoundingRectEl" />
    <text fill="#000000" font-family="Helvetica" font-size="352" text-anchor="middle" x="53160" y="12036" id="TEXT144_pbTextEl">590-UVT1002B</text>
  </g>
  <g name="Valve1">
    <path d="M 49900 12058 l 0 -282 0 0 23 2 24 5 24 5 24 9 20 12 20 14 19 18 17 19 15 19 13 22 12 23 12 25 9 26 5 26 3 28 2 29 0 0 -2 30 -3 28 -5 26 -9 26 -12 24 -12 25 -13 21 -15 21 -17 19 -19 14 -20 15 -20 11 -24 12 -24 5 -24 5 -23 2 0 -284" stroke="#000000" stroke-width="20" fill="#000000" />
    <path d="M 49465 11715 l 303 0 -303 692 303 0 -303 -692" stroke="#000000" stroke-width="20" fill="#000000" />
    <path d="M 49617 12058 l 17 40 264 0 0 -76 -264 0 -17 40 0 -4" stroke="#000000" stroke-width="20" fill="#000000" />
  </g>
  <rect x="52100" y="18460" width="3000" height="400" stroke="#0000FF" stroke-width="20" fill="none" id="RECTANGLE192" />
  <rect x="52100" y="18860" width="3000" height="400" stroke="#0000FF" stroke-width="20" fill="none" id="RECTANGLE193" />
  <g id="TEXT145">
    <rect x="51900" y="18400" width="3400" height="560" stroke-width="0" fill="none" id="TEXT145_pbTextBoundingRectEl" />
    <text fill="#000000" font-family="Helvetica" font-size="352" text-anchor="middle" x="53600" y="18856" id="TEXT145_pbTextEl">590-PI1004B</text>
  </g>
  <g id="TEXT146">
    <rect x="50500" y="8160" width="3400" height="560" stroke-width="0" fill="none" id="TEXT146_pbTextBoundingRectEl" />
    <text fill="#000000" font-family="Helvetica" font-size="352" text-anchor="middle" x="52200" y="8616" id="TEXT146_pbTextEl">5900-SIL-001B</text>
  </g>
  <g id="TEXT148">
    <rect x="31360" y="26580" width="1620" height="560" stroke-width="0" fill="none" id="TEXT148_pbTextBoundingRectEl" />
    <text fill="#000000" font-family="Helvetica" font-size="352" text-anchor="middle" x="32170" y="27036" id="TEXT148_pbTextEl">辅油泵</text>
  </g>
  <g id="TEXT149">
    <rect x="27340" y="26580" width="1620" height="560" stroke-width="0" fill="none" id="TEXT149_pbTextBoundingRectEl" />
    <text fill="#000000" font-family="Helvetica" font-size="352" text-anchor="middle" x="28150" y="27036" id="TEXT149_pbTextEl">轴头泵</text>
  </g>
  <path id="ELLIPSE77" d="M 12646 25840 l -42 -13 -26 -14 -21 -13 -17 -13 -15 -14 -12 -13 -10 -13 -10 -14 -8 -13 -7 -13 -6 -14 -5 -13 -4 -13 -3 -14 -3 -13 -2 -13 -1 -14 0 -13 0 0 0 -13 1 -14 2 -13 3 -13 3 -14 4 -13 5 -13 6 -14 7 -13 8 -13 10 -14 10 -13 12 -13 15 -14 17 -13 21 -13 26 -14 42 -13 108 0 42 13 26 14 21 13 17 13 15 14 12 13 10 13 10 14 8 13 7 13 6 14 5 13 4 13 3 14 3 13 2 13 1 14 0 13 0 0 0 13 -1 14 -2 13 -3 13 -3 14 -4 13 -5 13 -6 14 -7 13 -8 13 -10 14 -10 13 -12 13 -15 14 -17 13 -21 13 -26 14 -42 13 -108 0" stroke="#000000" stroke-width="20" fill="none" />
  <g id="TEXT150">
    <rect x="8900" y="25280" width="3400" height="560" stroke-width="0" fill="none" id="TEXT150_pbTextBoundingRectEl" />
    <text fill="#000000" font-family="Helvetica" font-size="352" text-anchor="middle" x="10600" y="25736" id="TEXT150_pbTextEl">2#空压机紧急停机</text>
  </g>
  <g id="TEXT151">
    <rect x="380" y="3240" width="1460" height="560" stroke-width="0" fill="none" id="TEXT151_pbTextBoundingRectEl" />
    <text fill="#000000" font-family="Helvetica" font-size="352" text-anchor="middle" x="1110" y="3696" id="TEXT151_pbTextEl">密封气</text>
  </g>
  <g id="TEXT152">
    <rect x="380" y="4680" width="1460" height="560" stroke-width="0" fill="none" id="TEXT152_pbTextBoundingRectEl" />
    <text fill="#000000" font-family="Helvetica" font-size="352" text-anchor="middle" x="1110" y="5136" id="TEXT152_pbTextEl">吹扫气</text>
  </g>
  <g id="TEXT153">
    <rect x="2460" y="7080" width="3400" height="560" stroke-width="0" fill="none" id="TEXT153_pbTextBoundingRectEl" />
    <text fill="#000000" font-family="Helvetica" font-size="352" text-anchor="middle" x="4160" y="7536" id="TEXT153_pbTextEl">5900-AF-001B</text>
  </g>
  <rect x="3900" y="9680" width="3000" height="400" stroke="#0000FF" stroke-width="20" fill="none" id="RECTANGLE194" />
  <rect x="3900" y="10080" width="3000" height="400" stroke="#0000FF" stroke-width="20" fill="none" id="RECTANGLE195" />
  <g id="TEXT154">
    <rect x="3700" y="9620" width="3400" height="560" stroke-width="0" fill="none" id="TEXT154_pbTextBoundingRectEl" />
    <text fill="#000000" font-family="Helvetica" font-size="352" text-anchor="middle" x="5400" y="10076" id="TEXT154_pbTextEl">590-TI1003A</text>
  </g>
  <rect x="580" y="11880" width="3000" height="400" stroke="#0000FF" stroke-width="20" fill="none" id="RECTANGLE196" />
  <rect x="580" y="12280" width="3000" height="400" stroke="#0000FF" stroke-width="20" fill="none" id="RECTANGLE197" />
  <g id="TEXT155">
    <rect x="380" y="11820" width="3400" height="560" stroke-width="0" fill="none" id="TEXT155_pbTextBoundingRectEl" />
    <text fill="#000000" font-family="Helvetica" font-size="352" text-anchor="middle" x="2080" y="12276" id="TEXT155_pbTextEl">590-EI1001B</text>
  </g>
  <rect x="2760" y="14600" width="3000" height="400" stroke="#0000FF" stroke-width="20" fill="none" id="RECTANGLE198" />
  <rect x="2760" y="15000" width="3000" height="400" stroke="#0000FF" stroke-width="20" fill="none" id="RECTANGLE199" />
  <g id="TEXT156">
    <rect x="2560" y="14540" width="3400" height="560" stroke-width="0" fill="none" id="TEXT156_pbTextBoundingRectEl" />
    <text fill="#000000" font-family="Helvetica" font-size="352" text-anchor="middle" x="4260" y="14996" id="TEXT156_pbTextEl">590-TI1001B</text>
  </g>
  <rect x="6580" y="14600" width="3000" height="400" stroke="#0000FF" stroke-width="20" fill="none" id="RECTANGLE200" />
  <rect x="6580" y="15000" width="3000" height="400" stroke="#0000FF" stroke-width="20" fill="none" id="RECTANGLE201" />
  <g id="TEXT157">
    <rect x="6380" y="14540" width="3400" height="560" stroke-width="0" fill="none" id="TEXT157_pbTextBoundingRectEl" />
    <text fill="#000000" font-family="Helvetica" font-size="352" text-anchor="middle" x="8080" y="14996" id="TEXT157_pbTextEl">590-TI1002B</text>
  </g>
  <path id="LINE945" d="M 5380 10520 l 0 820" stroke="#000000" stroke-width="20" stroke-dasharray="60,60" fill="none" />
  <path id="LINE946" d="M 4220 12480 l 0 2060" stroke="#000000" stroke-width="20" stroke-dasharray="60,60" fill="none" />
  <path id="LINE947" d="M 7700 12500 l 0 2100" stroke="#000000" stroke-width="20" stroke-dasharray="60,60" fill="none" />
  <path id="LINE948" d="M 41400 11720 l 4520 0" stroke="#000000" stroke-width="20" stroke-dasharray="60,60" fill="none" />
  <path id="LINE949" d="M 41340 14620 l 4520 0" stroke="#000000" stroke-width="20" stroke-dasharray="60,60" fill="none" />
  <path id="LINE950" d="M 50200 12040 l 1460 0" stroke="#000000" stroke-width="20" stroke-dasharray="60,60" fill="none" />
  <path id="LINE951" d="M 53560 16740 l 0 1640" stroke="#000000" stroke-width="20" stroke-dasharray="60,60" fill="none" />
  <g name="DownArrow">
    <path d="M 49863 5565 l -486 0 243 -412 243 412 0 0" stroke="#000000" stroke-width="20" fill="#80FFFF" />
  </g>
  <g id="TEXT158">
    <rect x="24440" y="520" width="6380" height="1720" stroke-width="0" fill="none" id="TEXT158_pbTextBoundingRectEl" />
    <text fill="#000000" font-family="Helvetica" font-size="800" text-anchor="middle" x="27630" y="1780" id="TEXT158_pbTextEl">空压机B</text>
  </g>
  <path id="POLYGON951" d="M 55220 16700 l 0 -13840" stroke="#80FFFF" stroke-width="40" fill="none" />
  <path d="M 380 2780 l 1060 0" stroke="#80FFFF" stroke-width="40" fill="#FF8000" />
  <path d="M 380 2980 l 1060 0" stroke="#80FFFF" stroke-width="40" fill="#FF8000" />
  <path d="M 1440 2660 l 0 120" stroke="#80FFFF" stroke-width="40" fill="#FF8000" />
  <path d="M 1440 2980 l 0 180" stroke="#80FFFF" stroke-width="40" fill="#FF8000" />
  <path d="M 380 2780 l 0 200" stroke="#80FFFF" stroke-width="40" fill="#FF8000" />
  <path d="M 1480 2660 l 480 200" stroke="#80FFFF" stroke-width="40" fill="#FF8000" />
  <path d="M 1480 3160 l 480 -300" stroke="#80FFFF" stroke-width="40" fill="#FF8000" />
  <g id="TEXT159">
    <rect x="440" y="2100" width="2600" height="560" stroke-width="0" fill="none" id="TEXT159_pbTextBoundingRectEl" />
    <text fill="#000000" font-family="Helvetica" font-size="352" text-anchor="middle" x="1740" y="2556" id="TEXT159_pbTextEl">来自1#空压机</text>
  </g>
  <path id="POLYGON958" d="M 2020 2900 l 53980 0" stroke="#80FFFF" stroke-width="40" fill="none" />
  <path d="M 56140 2820 l 1060 0" stroke="#80FFFF" stroke-width="40" fill="#FF8000" />
  <path d="M 56140 3020 l 1060 0" stroke="#80FFFF" stroke-width="40" fill="#FF8000" />
  <path d="M 57200 2700 l 0 120" stroke="#80FFFF" stroke-width="40" fill="#FF8000" />
  <path d="M 57200 3020 l 0 180" stroke="#80FFFF" stroke-width="40" fill="#FF8000" />
  <path d="M 56140 2820 l 0 200" stroke="#80FFFF" stroke-width="40" fill="#FF8000" />
  <path d="M 57240 2700 l 480 200" stroke="#80FFFF" stroke-width="40" fill="#FF8000" />
  <path d="M 57240 3200 l 480 -300" stroke="#80FFFF" stroke-width="40" fill="#FF8000" />
  <g id="TEXT160">
    <rect x="54600" y="2040" width="3140" height="560" stroke-width="0" fill="none" id="TEXT160_pbTextBoundingRectEl" />
    <text fill="#000000" font-family="Helvetica" font-size="352" text-anchor="middle" x="56170" y="2496" id="TEXT160_pbTextEl">装置空气缓冲罐</text>
  </g>
  <g id="DATAPOINT313" PB:IsMultiState="False" PBD:PtTagName="\\WIN-A79O8OG50DN\590_PDT_AM001B" PB:Type="7" PB:NumberFormat="0.00">
    <rect x="5760" y="5520" width="1060" height="260" stroke-width="0" fill="none" id="DATAPOINT313_pbTextBoundingRectEl" />
    <text fill="#000000" font-family="Helvetica" font-size="352" text-anchor="middle" x="6290" y="5826" id="DATAPOINT313_pbTextEl" PBD:Property="VAL">#.##</text>
  </g>
  <g id="DATAPOINT314" PB:IsMultiState="False" PBD:PtTagName="\\WIN-A79O8OG50DN\590_EI1001B" PB:Type="7" PB:NumberFormat="0.00">
    <rect x="1720" y="12340" width="1060" height="260" stroke-width="0" fill="none" id="DATAPOINT314_pbTextBoundingRectEl" />
    <text fill="#000000" font-family="Helvetica" font-size="352" text-anchor="middle" x="2250" y="12646" id="DATAPOINT314_pbTextEl" PBD:Property="VAL">#.##</text>
  </g>
  <g id="DATAPOINT315" PB:IsMultiState="False" PBD:PtTagName="\\WIN-A79O8OG50DN\590_TI1003B" PB:Type="7" PB:NumberFormat="0.00">
    <rect x="4880" y="10120" width="1060" height="260" stroke-width="0" fill="none" id="DATAPOINT315_pbTextBoundingRectEl" />
    <text fill="#000000" font-family="Helvetica" font-size="352" text-anchor="middle" x="5410" y="10426" id="DATAPOINT315_pbTextEl" PBD:Property="VAL">#.##</text>
  </g>
  <g id="DATAPOINT316" PB:IsMultiState="False" PBD:PtTagName="\\WIN-A79O8OG50DN\590_TI1001B" PB:Type="7" PB:NumberFormat="0.00">
    <rect x="3840" y="15100" width="1060" height="260" stroke-width="0" fill="none" id="DATAPOINT316_pbTextBoundingRectEl" />
    <text fill="#000000" font-family="Helvetica" font-size="352" text-anchor="middle" x="4370" y="15406" id="DATAPOINT316_pbTextEl" PBD:Property="VAL">#.##</text>
  </g>
  <g id="DATAPOINT317" PB:IsMultiState="False" PBD:PtTagName="\\WIN-A79O8OG50DN\590_TI1002B" PB:Type="7" PB:NumberFormat="0.00">
    <rect x="7720" y="15080" width="1060" height="260" stroke-width="0" fill="none" id="DATAPOINT317_pbTextBoundingRectEl" />
    <text fill="#000000" font-family="Helvetica" font-size="352" text-anchor="middle" x="8250" y="15386" id="DATAPOINT317_pbTextEl" PBD:Property="VAL">#.##</text>
  </g>
  <g id="DATAPOINT318" PB:IsMultiState="False" PBD:PtTagName="\\WIN-A79O8OG50DN\590_IGV1001B" PB:Type="7" PB:NumberFormat="0.00">
    <rect x="13180" y="7520" width="1060" height="260" stroke-width="0" fill="none" id="DATAPOINT318_pbTextBoundingRectEl" />
    <text fill="#000000" font-family="Helvetica" font-size="352" text-anchor="middle" x="13710" y="7826" id="DATAPOINT318_pbTextEl" PBD:Property="VAL">#.##</text>
  </g>
  <g id="DATAPOINT319" PB:IsMultiState="False" PBD:PtTagName="\\WIN-A79O8OG50DN\590_VI1001B" PB:Type="7" PB:NumberFormat="0.00">
    <rect x="15500" y="11020" width="1060" height="260" stroke-width="0" fill="none" id="DATAPOINT319_pbTextBoundingRectEl" />
    <text fill="#000000" font-family="Helvetica" font-size="352" text-anchor="middle" x="16030" y="11326" id="DATAPOINT319_pbTextEl" PBD:Property="VAL">#.##</text>
  </g>
  <g id="DATAPOINT320" PB:IsMultiState="False" PBD:PtTagName="\\WIN-A79O8OG50DN\590_VI1002B" PB:Type="7" PB:NumberFormat="0.00">
    <rect x="26200" y="11060" width="1060" height="260" stroke-width="0" fill="none" id="DATAPOINT320_pbTextBoundingRectEl" />
    <text fill="#000000" font-family="Helvetica" font-size="352" text-anchor="middle" x="26730" y="11366" id="DATAPOINT320_pbTextEl" PBD:Property="VAL">#.##</text>
  </g>
  <g id="DATAPOINT321" PB:IsMultiState="False" PBD:PtTagName="\\WIN-A79O8OG50DN\590_TI1007B" PB:Type="7" PB:NumberFormat="0.00">
    <rect x="39040" y="11800" width="1060" height="260" stroke-width="0" fill="none" id="DATAPOINT321_pbTextBoundingRectEl" />
    <text fill="#000000" font-family="Helvetica" font-size="352" text-anchor="middle" x="39570" y="12106" id="DATAPOINT321_pbTextEl" PBD:Property="VAL">#.##</text>
  </g>
  <g id="DATAPOINT322" PB:IsMultiState="False" PBD:PtTagName="\\WIN-A79O8OG50DN\590_PI1005B" PB:Type="7" PB:NumberFormat="0.00">
    <rect x="38960" y="14680" width="1060" height="260" stroke-width="0" fill="none" id="DATAPOINT322_pbTextBoundingRectEl" />
    <text fill="#000000" font-family="Helvetica" font-size="352" text-anchor="middle" x="39490" y="14986" id="DATAPOINT322_pbTextEl" PBD:Property="VAL">#.##</text>
  </g>
  <g id="DATAPOINT323" PB:IsMultiState="False" PBD:PtTagName="\\WIN-A79O8OG50DN\590_PV1002B" PB:Type="7" PB:NumberFormat="0.00">
    <rect x="52540" y="12180" width="1060" height="260" stroke-width="0" fill="none" id="DATAPOINT323_pbTextBoundingRectEl" />
    <text fill="#000000" font-family="Helvetica" font-size="352" text-anchor="middle" x="53070" y="12486" id="DATAPOINT323_pbTextEl" PBD:Property="VAL">#.##</text>
  </g>
  <g id="DATAPOINT324" PB:IsMultiState="False" PBD:PtTagName="\\WIN-A79O8OG50DN\590_PI1004B" PB:Type="7" PB:NumberFormat="0.00">
    <rect x="53100" y="18960" width="1060" height="260" stroke-width="0" fill="none" id="DATAPOINT324_pbTextBoundingRectEl" />
    <text fill="#000000" font-family="Helvetica" font-size="352" text-anchor="middle" x="53630" y="19266" id="DATAPOINT324_pbTextEl" PBD:Property="VAL">#.##</text>
  </g>
  <g id="DATAPOINT325" PB:IsMultiState="False" PBD:PtTagName="\\WIN-A79O8OG50DN\590_TI1006B" PB:Type="7" PB:NumberFormat="0.00">
    <rect x="39080" y="18180" width="1060" height="260" stroke-width="0" fill="none" id="DATAPOINT325_pbTextBoundingRectEl" />
    <text fill="#000000" font-family="Helvetica" font-size="352" text-anchor="middle" x="39610" y="18486" id="DATAPOINT325_pbTextEl" PBD:Property="VAL">#.##</text>
  </g>
  <g id="DATAPOINT326" PB:IsMultiState="False" PBD:PtTagName="\\WIN-A79O8OG50DN\590_PI1003B" PB:Type="7" PB:NumberFormat="0.00">
    <rect x="33640" y="18120" width="1060" height="260" stroke-width="0" fill="none" id="DATAPOINT326_pbTextBoundingRectEl" />
    <text fill="#000000" font-family="Helvetica" font-size="352" text-anchor="middle" x="34170" y="18426" id="DATAPOINT326_pbTextEl" PBD:Property="VAL">#.##</text>
  </g>
  <g id="DATAPOINT327" PB:IsMultiState="False" PBD:PtTagName="\\WIN-A79O8OG50DN\590_TI1005B" PB:Type="7" PB:NumberFormat="0.00">
    <rect x="28600" y="18100" width="1060" height="260" stroke-width="0" fill="none" id="DATAPOINT327_pbTextBoundingRectEl" />
    <text fill="#000000" font-family="Helvetica" font-size="352" text-anchor="middle" x="29130" y="18406" id="DATAPOINT327_pbTextEl" PBD:Property="VAL">#.##</text>
  </g>
  <g id="DATAPOINT328" PB:IsMultiState="False" PBD:PtTagName="\\WIN-A79O8OG50DN\590_PI1002A" PB:Type="7" PB:NumberFormat="0.00">
    <rect x="23280" y="18120" width="1060" height="260" stroke-width="0" fill="none" id="DATAPOINT328_pbTextBoundingRectEl" />
    <text fill="#000000" font-family="Helvetica" font-size="352" text-anchor="middle" x="23810" y="18426" id="DATAPOINT328_pbTextEl" PBD:Property="VAL">#.##</text>
  </g>
  <g id="DATAPOINT329" PB:IsMultiState="False" PBD:PtTagName="\\WIN-A79O8OG50DN\590_TI1004B" PB:Type="7" PB:NumberFormat="0.00">
    <rect x="18560" y="18120" width="1060" height="260" stroke-width="0" fill="none" id="DATAPOINT329_pbTextBoundingRectEl" />
    <text fill="#000000" font-family="Helvetica" font-size="352" text-anchor="middle" x="19090" y="18426" id="DATAPOINT329_pbTextEl" PBD:Property="VAL">#.##</text>
  </g>
  <g id="DATAPOINT330" PB:IsMultiState="False" PBD:PtTagName="\\WIN-A79O8OG50DN\590_PI1001B" PB:Type="7" PB:NumberFormat="0.00">
    <rect x="13300" y="18080" width="1060" height="260" stroke-width="0" fill="none" id="DATAPOINT330_pbTextBoundingRectEl" />
    <text fill="#000000" font-family="Helvetica" font-size="352" text-anchor="middle" x="13830" y="18386" id="DATAPOINT330_pbTextEl" PBD:Property="VAL">#.##</text>
  </g>
</svg>