<?xml version="1.0" encoding="UTF-8"?>
<svg height="100%" width="100%" viewBox="0 0 64000 32000" version="1.1" xmlns="http://www.w3.org/2000/svg" xmlns:xlink="http://www.w3.org/1999/xlink" xmlns:PB="urn:osisoft-com-pb" xmlns:PBI="urn:osisoft-com-interface" xmlns:PBD="urn:osisoft-com-data" style="background-color:#C0C0C0">
  <title>KYJA</title>
  <defs>
    <PBD:TagUses tag="\\RTDBB\590_PDT_AM001A">
      <PBI:Symbol name="DATAPOINT295" PB:Type="7" />
    </PBD:TagUses>
    <PBD:TagUses tag="\\RTDBB\590_TI1003A">
      <PBI:Symbol name="DATAPOINT296" PB:Type="7" />
    </PBD:TagUses>
    <PBD:TagUses tag="\\RTDBB\590_EI1001A">
      <PBI:Symbol name="DATAPOINT297" PB:Type="7" />
    </PBD:TagUses>
    <PBD:TagUses tag="\\RTDBB\590_TI1001A">
      <PBI:Symbol name="DATAPOINT298" PB:Type="7" />
    </PBD:TagUses>
    <PBD:TagUses tag="\\RTDBB\590_TI1002A">
      <PBI:Symbol name="DATAPOINT299" PB:Type="7" />
    </PBD:TagUses>
    <PBD:TagUses tag="\\RTDBB\590_IGV1001A">
      <PBI:Symbol name="DATAPOINT300" PB:Type="7" />
    </PBD:TagUses>
    <PBD:TagUses tag="\\RTDBB\590_VI1001A">
      <PBI:Symbol name="DATAPOINT301" PB:Type="7" />
    </PBD:TagUses>
    <PBD:TagUses tag="\\RTDBB\590_PI1001A">
      <PBI:Symbol name="DATAPOINT302" PB:Type="7" />
    </PBD:TagUses>
    <PBD:TagUses tag="\\RTDBB\590_TI1004A">
      <PBI:Symbol name="DATAPOINT303" PB:Type="7" />
    </PBD:TagUses>
    <PBD:TagUses tag="\\RTDBB\590_PI1002A">
      <PBI:Symbol name="DATAPOINT304" PB:Type="7" />
    </PBD:TagUses>
    <PBD:TagUses tag="\\RTDBB\590_VI1002A">
      <PBI:Symbol name="DATAPOINT305" PB:Type="7" />
    </PBD:TagUses>
    <PBD:TagUses tag="\\RTDBB\590_TI1005A">
      <PBI:Symbol name="DATAPOINT306" PB:Type="7" />
    </PBD:TagUses>
    <PBD:TagUses tag="\\RTDBB\590_TI1007A">
      <PBI:Symbol name="DATAPOINT307" PB:Type="7" />
    </PBD:TagUses>
    <PBD:TagUses tag="\\RTDBB\590_PI1005A">
      <PBI:Symbol name="DATAPOINT308" PB:Type="7" />
    </PBD:TagUses>
    <PBD:TagUses tag="\\RTDBB\590_PI1003A">
      <PBI:Symbol name="DATAPOINT309" PB:Type="7" />
    </PBD:TagUses>
    <PBD:TagUses tag="\\RTDBB\590_TI1006A">
      <PBI:Symbol name="DATAPOINT310" PB:Type="7" />
    </PBD:TagUses>
    <PBD:TagUses tag="\\RTDBB\590_PV1002A">
      <PBI:Symbol name="DATAPOINT311" PB:Type="7" />
    </PBD:TagUses>
    <PBD:TagUses tag="\\RTDBB\590_PI1004A">
      <PBI:Symbol name="DATAPOINT312" PB:Type="7" />
    </PBD:TagUses>
  </defs>
  <rect x="17080" y="25980" width="8060" height="5220" stroke="#000000" stroke-width="40" fill="none" id="RECTANGLE131" />
  <rect x="49740" y="19420" width="3420" height="4680" stroke="#000000" stroke-width="40" fill="none" id="RECTANGLE111" />
  <rect x="10080" y="9960" width="28820" height="4540" stroke="#000000" stroke-width="40" stroke-dasharray="60,60" fill="none" id="RECTANGLE119" />
  <rect x="4680" y="12040" width="34220" height="380" stroke="#000000" stroke-width="60" fill="#FFFFFF" id="RECTANGLE120" />
  <rect x="4520" y="4300" width="1400" height="1560" stroke="#000000" stroke-width="20" fill="none" />
  <path d="M 4520 5840 l 580 660" stroke="#000000" stroke-width="20" fill="none" />
  <path d="M 5940 5840 l -580 660" stroke="#000000" stroke-width="20" fill="none" />
  <path d="M 5040 6480 l 380 0" stroke="#000000" stroke-width="20" fill="none" />
  <path d="M 4580 4720 l 260 0" stroke="#000000" stroke-width="20" fill="none" />
  <path d="M 4840 5580 l 260 0" stroke="#000000" stroke-width="20" fill="none" />
  <path d="M 5100 4720 l 260 0" stroke="#000000" stroke-width="20" fill="none" />
  <path d="M 5360 5580 l 260 0" stroke="#000000" stroke-width="20" fill="none" />
  <path d="M 5620 4720 l 280 0" stroke="#000000" stroke-width="20" fill="none" />
  <path d="M 4840 4720 l 0 860" stroke="#000000" stroke-width="20" fill="none" />
  <path d="M 5100 4720 l 0 860" stroke="#000000" stroke-width="20" fill="none" />
  <path d="M 5360 4720 l 0 860" stroke="#000000" stroke-width="20" fill="none" />
  <path d="M 5620 4720 l 0 860" stroke="#000000" stroke-width="20" fill="none" />
  <path d="M 19380 30580 l 7 0 7 0 7 0 8 0 7 0 7 -1 8 0 7 -1 7 -1 7 0 8 -1 7 -1 7 -1 7 -1 7 -1 7 -2 7 -1 7 -1 7 -2 7 -1 7 -2 7 -1 7 -2 6 -2 7 -2 7 -2 6 -2 7 -2 6 -2 7 -2 6 -3 6 -2 6 -2 6 -3 6 -3 6 -2 6 -3 6 -3 6 -2 5 -3 6 -3 6 -3 5 -3 5 -3 5 -4 6 -3 5 -3 5 -4 4 -3 5 -3 5 -4 4 -3 5 -4 4 -4 5 -3 4 -4 4 -4 4 -4 4 -4 3 -4 4 -3 3 -4 4 -4 3 -5 3 -4 3 -4 3 -4 3 -4 3 -4 2 -5 3 -4 2 -4 2 -4 2 -5 2 -4 2 -5 2 -4 1 -4 2 -5 1 -4 1 -5 1 -4 1 -5 1 -4 1 -5 0 -4 1 -5 0 -4 0 -5 1 -5 -1 -4 0 -5 0 -4 -1 -5 0 -4 -1 -5 -1 -4 -1 -5 -1 -4 -1 -5 -1 -4 -2 -5 -1 -4 -2 -4 -2 -5 -2 -4 -2 -5 -2 -4 -2 -4 -3 -4 -2 -5 -3 -4 -3 -4 -3 -4 -3 -4 -3 -4 -3 -5 -4 -4 -3 -4 -4 -4 -3 -3 -4 -4 -4 -4 -4 -4 -4 -4 -5 -3 -4 -4 -5 -4 -4 -3 -5 -4 -5 -3 -4 -3 -5 -4 -5 -3 -6 -3 -5 -4 -5 -3 -5 -3 -6 -3 -6 -3 -5 -3 -6 -2 -6 -3 -6 -3 -6 -2 -6 -3 -6 -3 -6 -2 -6 -2 -6 -3 -7 -2 -6 -2 -7 -2 -6 -2 -7 -2 -7 -2 -6 -2 -7 -2 -7 -1 -7 -2 -7 -1 -7 -2 -7 -1 -7 -1 -7 -2 -7 -1 -7 -1 -7 -1 -7 -1 -8 -1 -7 0 -7 -1 -7 -1 -8 0 -7 -1 -7 0 -8 0 -7 0 -7 0 -7 -1 -8 1" stroke="#000000" stroke-width="20" fill="none" />
  <path d="M 19380 30060 l -2780 0" stroke="#000000" stroke-width="20" fill="none" />
  <path d="M 19380 30600 l -2780 0" stroke="#000000" stroke-width="20" fill="none" />
  <path d="M 16600 30060 l 0 540" stroke="#000000" stroke-width="20" fill="none" />
  <path d="M 18080 30160 l 800 340" stroke="#000000" stroke-width="20" fill="none" />
  <path d="M 18740 30160 l 820 340" stroke="#000000" stroke-width="20" fill="none" />
  <path d="M 18720 30160 l 160 340" stroke="#000000" stroke-width="20" fill="none" />
  <path d="M 19420 30360 l 120 140" stroke="#000000" stroke-width="20" fill="none" />
  <path d="M 19360 30500 l 140 0" stroke="#000000" stroke-width="20" fill="none" />
  <g name="Valve4">
    <path d="M 50992 23831 l 0 486 985 -486 0 486 -985 -486" stroke="#000000" stroke-width="20" fill="#000000" />
  </g>
  <g name="DownArrow">
    <path d="M 51747 24663 l -534 0 267 -508 267 508 0 0" stroke="#000000" stroke-width="20" fill="#000000" />
  </g>
  <g name="Valve4">
    <path d="M 50972 19649 l 0 -486 985 486 0 -486 -985 486" stroke="#000000" stroke-width="20" fill="#000000" />
  </g>
  <g name="DownArrow">
    <path d="M 51727 18817 l -534 0 267 508 267 -508 0 0" stroke="#000000" stroke-width="20" fill="#000000" />
  </g>
  <g name="Valve1">
    <path d="M 48798 26098 l -390 0 0 0 3 -34 7 -33 7 -34 12 -34 17 -29 19 -28 24 -27 27 -24 26 -22 31 -19 32 -17 33 -17 36 -12 36 -7 39 -5 41 -2 0 0 40 2 39 5 36 7 36 12 34 17 33 17 29 19 29 22 26 24 20 27 21 28 15 29 16 34 8 34 7 33 2 34 -391 0" stroke="#000000" stroke-width="20" fill="#000000" />
    <path d="M 48324 26716 l 0 -430 954 430 0 -430 -954 430" stroke="#000000" stroke-width="20" fill="#000000" />
    <path d="M 48798 26500 l 55 -24 0 -376 -106 0 0 376 55 24 -4 0" stroke="#000000" stroke-width="20" fill="#000000" />
  </g>
  <g name="DownArrow">
    <path d="M 48970 26918 l -380 0 190 -396 190 396 0 0" stroke="#000000" stroke-width="20" fill="#000000" />
  </g>
  <path id="LINE458" d="M 48840 26460 l 860 -840" stroke="#000000" stroke-width="20" fill="none" />
  <path id="LINE459" d="M 49680 25640 l 0 -380" stroke="#000000" stroke-width="20" fill="none" />
  <path id="LINE460" d="M 48800 25720 l 0 -460" stroke="#000000" stroke-width="20" fill="none" />
  <path id="LINE477" d="M 49680 25260 l -880 0" stroke="#000000" stroke-width="20" fill="none" />
  <path id="ELLIPSE54" d="M 23784 30640 l -44 -13 -28 -14 -22 -13 -17 -13 -16 -14 -13 -13 -11 -13 -10 -14 -9 -13 -8 -13 -7 -14 -5 -13 -5 -13 -5 -14 -3 -13 -3 -13 -2 -14 -1 -13 -1 -13 0 -14 1 -13 1 -13 2 -14 3 -13 3 -13 5 -14 5 -13 5 -13 7 -14 8 -13 9 -13 10 -14 11 -13 13 -13 16 -14 17 -13 22 -13 28 -14 44 -13 112 0 44 13 28 14 22 13 17 13 16 14 13 13 11 13 10 14 9 13 8 13 7 14 5 13 5 13 5 14 3 13 3 13 2 14 1 13 1 13 0 14 -1 13 -1 13 -2 14 -3 13 -3 13 -5 14 -5 13 -5 13 -7 14 -8 13 -9 13 -10 14 -11 13 -13 13 -16 14 -17 13 -22 13 -28 14 -44 13 -112 0" stroke="#FF0000" stroke-width="20" fill="#FF0000" />
  <path d="M 1160 3060 l 1160 0" stroke="#80FFFF" stroke-width="40" fill="#FF8000" />
  <path d="M 1160 3280 l 1160 0" stroke="#80FFFF" stroke-width="40" fill="#FF8000" />
  <path d="M 2320 2920 l 0 140" stroke="#80FFFF" stroke-width="40" fill="#FF8000" />
  <path d="M 2320 3280 l 0 180" stroke="#80FFFF" stroke-width="40" fill="#FF8000" />
  <path d="M 1160 3060 l 0 220" stroke="#80FFFF" stroke-width="40" fill="#FF8000" />
  <path d="M 2380 2920 l 520 220" stroke="#80FFFF" stroke-width="40" fill="#FF8000" />
  <path d="M 2380 3460 l 520 -320" stroke="#80FFFF" stroke-width="40" fill="#FF8000" />
  <g id="TEXT90">
    <rect x="20100" y="30040" width="3740" height="620" stroke-width="0" fill="none" id="TEXT90_pbTextBoundingRectEl" />
    <text fill="#000000" font-family="Helvetica" font-size="560" text-anchor="middle" x="21970" y="30630" id="TEXT90_pbTextEl">低油位开关</text>
  </g>
  <g id="TEXT89">
    <rect x="6360" y="3860" width="3740" height="620" stroke-width="0" fill="none" id="TEXT89_pbTextBoundingRectEl" />
    <text fill="#000000" font-family="Helvetica" font-size="560" text-anchor="middle" x="8230" y="4450" id="TEXT89_pbTextEl">590-PDT001A</text>
  </g>
  <path id="POLYGON585" d="M 2960 3120 l 32660 0" stroke="#80FFFF" stroke-width="20" fill="none" />
  <path d="M 1160 4720 l 1160 0" stroke="#80FFFF" stroke-width="40" fill="#FF8000" />
  <path d="M 1160 4940 l 1160 0" stroke="#80FFFF" stroke-width="40" fill="#FF8000" />
  <path d="M 2320 4600 l 0 120" stroke="#80FFFF" stroke-width="40" fill="#FF8000" />
  <path d="M 2320 4940 l 0 200" stroke="#80FFFF" stroke-width="40" fill="#FF8000" />
  <path d="M 1160 4720 l 0 220" stroke="#80FFFF" stroke-width="40" fill="#FF8000" />
  <path d="M 2380 4600 l 520 220" stroke="#80FFFF" stroke-width="40" fill="#FF8000" />
  <path d="M 2380 5140 l 520 -320" stroke="#80FFFF" stroke-width="40" fill="#FF8000" />
  <path id="POLYGON592" d="M 2920 4840 l 1480 0" stroke="#80FFFF" stroke-width="40" fill="none" />
  <path id="POLYGON593" d="M 5980 5400 l 5980 0" stroke="#80FFFF" stroke-width="40" fill="none" />
  <path id="POLYGON594" d="M 11960 5400 l 0 5220" stroke="#80FFFF" stroke-width="40" fill="none" />
  <path id="LINE594" d="M 14400 11300 l 0 -2360" stroke="#000000" stroke-width="80" fill="none" />
  <path id="ELLIPSE55" d="M 14342 8960 l -45 -13 -30 -14 -23 -13 -18 -13 -16 -14 -14 -13 -13 -13 -10 -14 -10 -13 -9 -13 -7 -14 -7 -13 -5 -13 -5 -14 -5 -13 -3 -13 -3 -14 -2 -13 -2 -13 -1 -14 0 -13 0 0 0 -13 1 -14 2 -13 2 -13 3 -14 3 -13 5 -13 5 -14 5 -13 7 -13 7 -14 9 -13 10 -13 10 -14 13 -13 14 -13 16 -14 18 -13 23 -13 30 -14 45 -13 116 0 45 13 30 14 23 13 18 13 16 14 14 13 13 13 10 14 10 13 9 13 7 14 7 13 5 13 5 14 5 13 3 13 3 14 2 13 2 13 1 14 0 13 0 0 0 13 -1 14 -2 13 -2 13 -3 14 -3 13 -5 13 -5 14 -5 13 -7 13 -7 14 -9 13 -10 13 -10 14 -13 13 -14 13 -16 14 -18 13 -23 13 -30 14 -45 13 -116 0" stroke="#000000" stroke-width="40" fill="none" />
  <path id="LINE595" d="M 14280 10220 l 220 -260" stroke="#000000" stroke-width="40" fill="none" />
  <path id="LINE596" d="M 14280 10440 l 220 -260" stroke="#000000" stroke-width="40" fill="none" />
  <path id="LINE600" d="M 14280 10680 l 220 -240" stroke="#000000" stroke-width="40" fill="none" />
  <g id="TEXT91">
    <rect x="14340" y="6220" width="4020" height="620" stroke-width="0" fill="none" id="TEXT91_pbTextBoundingRectEl" />
    <text fill="#000000" font-family="Helvetica" font-size="560" text-anchor="middle" x="16350" y="6810" id="TEXT91_pbTextEl">590-IGC1001A</text>
  </g>
  <path d="M 7680 12388 l -40 187 -40 104 -40 79 -40 65 -40 55 -40 49 -40 42 -40 38 -40 34 -40 31 -40 28 -40 25 -40 22 -40 20 -40 18 -40 16 -40 14 -40 13 -40 10 -40 9 -40 7 -40 5 -40 4 -40 3 -40 0 0 0 -40 0 -40 -3 -40 -4 -40 -5 -40 -7 -40 -9 -40 -10 -40 -13 -40 -14 -40 -16 -40 -18 -40 -20 -40 -22 -40 -25 -40 -28 -40 -31 -40 -34 -40 -38 -40 -42 -40 -49 -40 -55 -40 -65 -40 -79 -40 -104 -40 -187 0 -215 40 -187 40 -104 40 -79 40 -65 40 -55 40 -49 40 -42 40 -38 40 -34 40 -31 40 -28 40 -25 40 -22 40 -20 40 -18 40 -16 40 -14 40 -13 40 -10 40 -9 40 -7 40 -5 40 -4 40 -3 40 -1 0 0 40 1 40 3 40 4 40 5 40 7 40 9 40 10 40 13 40 14 40 16 40 18 40 20 40 22 40 25 40 28 40 31 40 34 40 38 40 42 40 49 40 55 40 65 40 79 40 104 40 187 0 215" stroke="#000000" stroke-width="20" fill="#00FF00" />
  <g>
    <rect x="6140" y="11840" width="1100" height="900" stroke-width="0" fill="none" />
    <text fill="#000000" font-family="Helvetica" font-size="800" text-anchor="middle" x="6690" y="12690">M</text>
  </g>
  <path id="POLYGON604" d="M 22500 10620 l 3940 920 0 1400 -3940 920 0 -3300 0 60" stroke="#000000" stroke-width="20" fill="#808080" />
  <path id="POLYGON603" d="M 33700 10620 l 3940 920 0 1400 -3940 920 0 -3300 0 60" stroke="#000000" stroke-width="20" fill="#808080" />
  <path id="POLYGON477" d="M 11320 10620 l 3940 920 0 1400 -3940 920 0 -3300 0 60" stroke="#000000" stroke-width="20" fill="#808080" />
  <g id="TEXT92">
    <rect x="17120" y="10140" width="3740" height="620" stroke-width="0" fill="none" id="TEXT92_pbTextBoundingRectEl" />
    <text fill="#000000" font-family="Helvetica" font-size="560" text-anchor="middle" x="18990" y="10730" id="TEXT92_pbTextEl">590-VI1001A</text>
  </g>
  <g id="TEXT93">
    <rect x="28180" y="10120" width="3740" height="620" stroke-width="0" fill="none" id="TEXT93_pbTextBoundingRectEl" />
    <text fill="#000000" font-family="Helvetica" font-size="560" text-anchor="middle" x="30050" y="10710" id="TEXT93_pbTextEl">590-VI1002A</text>
  </g>
  <path id="POLYGON610" d="M 14940 9760 l 0 -980" stroke="#000000" stroke-width="40" fill="none" />
  <path id="POLYGON611" d="M 14940 8780 l 36500 0" stroke="#000000" stroke-width="40" fill="none" />
  <path id="POLYGON612" d="M 51440 8780 l 0 10040" stroke="#000000" stroke-width="40" fill="none" />
  <g id="TEXT94">
    <rect x="42400" y="10760" width="3740" height="620" stroke-width="0" fill="none" id="TEXT94_pbTextBoundingRectEl" />
    <text fill="#000000" font-family="Helvetica" font-size="560" text-anchor="middle" x="44270" y="11350" id="TEXT94_pbTextEl">590-TI1007A</text>
  </g>
  <g id="TEXT95">
    <rect x="42500" y="14080" width="3740" height="620" stroke-width="0" fill="none" id="TEXT95_pbTextBoundingRectEl" />
    <text fill="#000000" font-family="Helvetica" font-size="560" text-anchor="middle" x="44370" y="14670" id="TEXT95_pbTextEl">590-PI1005A</text>
  </g>
  <rect x="52800" y="21140" width="600" height="1240" stroke="#000000" stroke-width="20" fill="#C0C0C0" />
  <path d="M 53100 21160 l -300 1220" stroke="#000000" stroke-width="20" stroke-dasharray="60,60" fill="none" />
  <path d="M 53080 21140 l 320 1220" stroke="#000000" stroke-width="20" stroke-dasharray="60,60" fill="none" />
  <rect x="49380" y="21140" width="600" height="1240" stroke="#000000" stroke-width="20" fill="#C0C0C0" />
  <path d="M 49720 21160 l -300 1220" stroke="#000000" stroke-width="20" stroke-dasharray="60,60" fill="none" />
  <path d="M 49700 21140 l 300 1220" stroke="#000000" stroke-width="20" stroke-dasharray="60,60" fill="none" />
  <path id="POLYGON619" d="M 51500 24720 l 0 1820" stroke="#000000" stroke-width="40" fill="none" />
  <path id="POLYGON620" d="M 51460 26540 l -21440 0" stroke="#000000" stroke-width="40" fill="none" />
  <path d="M 45677 27440 l -179 -40 -99 -40 -74 -40 -61 -40 -52 -40 -45 -40 -39 -40 -35 -40 -30 -40 -28 -40 -24 -40 -22 -40 -19 -40 -16 -40 -15 -40 -12 -40 -10 -40 -8 -40 -7 -40 -4 -40 -3 -40 -1 -40 0 0 1 -40 3 -40 4 -40 7 -40 8 -40 10 -40 12 -40 15 -40 16 -40 19 -40 22 -40 24 -40 28 -40 30 -40 35 -40 39 -40 45 -40 52 -40 61 -40 74 -40 99 -40 179 -40 206 0 179 40 99 40 74 40 61 40 52 40 45 40 39 40 35 40 30 40 28 40 24 40 22 40 19 40 16 40 15 40 12 40 10 40 8 40 7 40 4 40 3 40 1 40 0 0 -1 40 -3 40 -4 40 -7 40 -8 40 -10 40 -12 40 -15 40 -16 40 -19 40 -22 40 -24 40 -28 40 -30 40 -35 40 -39 40 -45 40 -52 40 -61 40 -74 40 -99 40 -179 40 -206 0" stroke="#000000" stroke-width="20" fill="#C0C0C0" />
  <path d="M 45360 26960 l 420 -1080" stroke="#000000" stroke-width="20" fill="none" />
  <path d="M 45780 25880 l 420 1080" stroke="#000000" stroke-width="20" fill="none" />
  <path d="M 45360 26960 l 0 -1800" stroke="#000000" stroke-width="20" fill="none" />
  <path d="M 46200 26960 l 0 -1800" stroke="#000000" stroke-width="20" fill="none" />
  <path id="POLYGON621" d="M 48780 26820 l 0 1740" stroke="#000000" stroke-width="40" fill="none" />
  <path id="POLYGON622" d="M 48780 28560 l -5820 0" stroke="#000000" stroke-width="40" fill="none" />
  <path id="POLYGON623" d="M 42960 28460 l 0 -2000" stroke="#000000" stroke-width="40" fill="none" />
  <path id="POLYGON625" d="M 30100 26500 l 0 1960" stroke="#000000" stroke-width="40" fill="none" />
  <path d="M 29520 29580 l 340 -580 480 0 320 580 -1140 0 0 0" stroke="#000000" stroke-width="20" fill="#808080" />
  <path d="M 30740 28780 l -40 138 -40 75 -40 55 -40 45 -40 37 -40 31 -40 26 -40 23 -40 19 -40 16 -40 13 -40 10 -40 8 -40 6 -40 3 -40 1 0 0 -40 -1 -40 -3 -40 -6 -40 -8 -40 -10 -40 -13 -40 -16 -40 -19 -40 -23 -40 -26 -40 -31 -40 -37 -40 -45 -40 -55 -40 -75 -40 -138 0 -159 40 -138 40 -75 40 -55 40 -45 40 -37 40 -31 40 -26 40 -23 40 -19 40 -16 40 -13 40 -10 40 -8 40 -6 40 -3 40 -2 0 0 40 2 40 3 40 6 40 8 40 10 40 13 40 16 40 19 40 23 40 26 40 31 40 37 40 45 40 55 40 75 40 138 0 159" stroke="#000000" stroke-width="20" fill="#C0C0C0" />
  <path id="POLYGON627" d="M 29420 28700 l -1440 0" stroke="#000000" stroke-width="40" fill="none" />
  <path id="POLYGON628" d="M 27980 28700 l 0 1960" stroke="#000000" stroke-width="40" fill="none" />
  <path id="LINE628" d="M 34320 26560 l 0 1960" stroke="#000000" stroke-width="40" fill="none" />
  <path id="POLYGON629" d="M 33760 29640 l 320 -580 480 0 320 580 -1140 0 20 0" stroke="#000000" stroke-width="20" fill="#808080" />
  <path id="ELLIPSE57" d="M 34960 28840 l -40 138 -40 75 -40 55 -40 45 -40 37 -40 31 -40 26 -40 23 -40 19 -40 16 -40 13 -40 10 -40 8 -40 6 -40 3 -40 1 0 0 -40 -1 -40 -3 -40 -6 -40 -8 -40 -10 -40 -13 -40 -16 -40 -19 -40 -23 -40 -26 -40 -31 -40 -37 -40 -45 -40 -55 -40 -75 -40 -138 0 -159 40 -138 40 -75 40 -55 40 -45 40 -37 40 -31 40 -26 40 -23 40 -19 40 -16 40 -13 40 -10 40 -8 40 -6 40 -3 40 -2 0 0 40 2 40 3 40 6 40 8 40 10 40 13 40 16 40 19 40 23 40 26 40 31 40 37 40 45 40 55 40 75 40 138 0 159" stroke="#FF0000" stroke-width="20" fill="#FF0000" />
  <path id="LINE629" d="M 33640 28760 l -1440 0" stroke="#000000" stroke-width="40" fill="none" />
  <path id="LINE630" d="M 32200 28760 l 0 1960" stroke="#000000" stroke-width="40" fill="none" />
  <path id="POLYGON630" d="M 32100 30720 l -6920 0" stroke="#000000" stroke-width="40" fill="none" />
  <path id="ELLIPSE58" d="M 10804 2780 l -44 -13 -28 -14 -22 -13 -17 -13 -16 -14 -13 -13 -11 -13 -10 -14 -9 -13 -8 -13 -7 -14 -5 -13 -5 -13 -5 -14 -3 -13 -3 -13 -2 -14 -1 -13 -1 -13 0 -14 1 -13 1 -13 2 -14 3 -13 3 -13 5 -14 5 -13 5 -13 7 -14 8 -13 9 -13 10 -14 11 -13 13 -13 16 -14 17 -13 22 -13 28 -14 44 -13 112 0 44 13 28 14 22 13 17 13 16 14 13 13 11 13 10 14 9 13 8 13 7 14 5 13 5 13 5 14 3 13 3 13 2 14 1 13 1 13 0 14 -1 13 -1 13 -2 14 -3 13 -3 13 -5 14 -5 13 -5 13 -7 14 -8 13 -9 13 -10 14 -11 13 -13 13 -16 14 -17 13 -22 13 -28 14 -44 13 -112 0" stroke="#FF0000" stroke-width="20" fill="#FF0000" />
  <g id="TEXT97">
    <rect x="11460" y="2120" width="6020" height="760" stroke-width="0" fill="none" id="TEXT97_pbTextBoundingRectEl" />
    <text fill="#000000" font-family="Helvetica" font-size="560" text-anchor="middle" x="14470" y="2780" id="TEXT97_pbTextEl">密封气压力开关</text>
  </g>
  <path id="ELLIPSE59" d="M 14664 28660 l -44 -13 -28 -14 -22 -13 -17 -13 -16 -14 -13 -13 -11 -13 -10 -14 -9 -13 -8 -13 -7 -14 -5 -13 -5 -13 -5 -14 -3 -13 -3 -13 -2 -14 -1 -13 -1 -13 0 -14 1 -13 1 -13 2 -14 3 -13 3 -13 5 -14 5 -13 5 -13 7 -14 8 -13 9 -13 10 -14 11 -13 13 -13 16 -14 17 -13 22 -13 28 -14 44 -13 112 0 44 13 28 14 22 13 17 13 16 14 13 13 11 13 10 14 9 13 8 13 7 14 5 13 5 13 5 14 3 13 3 13 2 14 1 13 1 13 0 14 -1 13 -1 13 -2 14 -3 13 -3 13 -5 14 -5 13 -5 13 -7 14 -8 13 -9 13 -10 14 -11 13 -13 13 -16 14 -17 13 -22 13 -28 14 -44 13 -112 0" stroke="#FF0000" stroke-width="20" fill="#FF0000" />
  <g id="TEXT99">
    <rect x="10440" y="28060" width="4260" height="660" stroke-width="0" fill="none" id="TEXT99_pbTextBoundingRectEl" />
    <text fill="#000000" font-family="Helvetica" font-size="560" text-anchor="middle" x="12570" y="28670" id="TEXT99_pbTextEl">1#空压机报警</text>
  </g>
  <path id="POLYGON631" d="M 46220 25240 l 0 -4220" stroke="#009600" stroke-width="40" fill="none" />
  <path id="POLYGON632" d="M 46220 21020 l -41940 0" stroke="#009600" stroke-width="40" fill="none" />
  <path id="POLYGON633" d="M 45360 25240 l 0 -5800" stroke="#009600" stroke-width="40" fill="none" />
  <path id="POLYGON637" d="M 45360 19440 l -41080 0" stroke="#009600" stroke-width="40" fill="none" />
  <path d="M 2540 19320 l 1180 0" stroke="#009600" stroke-width="40" fill="#FF8000" />
  <path d="M 2540 19540 l 1180 0" stroke="#009600" stroke-width="40" fill="#FF8000" />
  <path d="M 3720 19160 l 0 160" stroke="#009600" stroke-width="40" fill="#FF8000" />
  <path d="M 3720 19540 l 0 160" stroke="#009600" stroke-width="40" fill="#FF8000" />
  <path d="M 2540 19320 l 0 220" stroke="#009600" stroke-width="40" fill="#FF8000" />
  <path d="M 3760 19160 l 520 220" stroke="#009600" stroke-width="40" fill="#FF8000" />
  <path d="M 3760 19700 l 520 -320" stroke="#009600" stroke-width="40" fill="#FF8000" />
  <path d="M 4280 20900 l -1160 0" stroke="#009600" stroke-width="40" fill="#FF8000" />
  <path d="M 4280 21120 l -1160 0" stroke="#009600" stroke-width="40" fill="#FF8000" />
  <path d="M 3120 20740 l 0 160" stroke="#009600" stroke-width="40" fill="#FF8000" />
  <path d="M 3120 21120 l 0 180" stroke="#009600" stroke-width="40" fill="#FF8000" />
  <path d="M 4280 20900 l 0 220" stroke="#009600" stroke-width="40" fill="#FF8000" />
  <path d="M 3080 20740 l -540 220" stroke="#009600" stroke-width="40" fill="#FF8000" />
  <path d="M 3080 21300 l -540 -340" stroke="#009600" stroke-width="40" fill="#FF8000" />
  <path id="POLYGON664" d="M 8420 19360 l 0 -1400" stroke="#009600" stroke-width="40" fill="none" />
  <path id="POLYGON665" d="M 8420 18000 l -4140 0" stroke="#009600" stroke-width="40" fill="none" />
  <path d="M 2540 17860 l 1180 0" stroke="#009600" stroke-width="40" fill="#FF8000" />
  <path d="M 2540 18080 l 1180 0" stroke="#009600" stroke-width="40" fill="#FF8000" />
  <path d="M 3720 17740 l 0 120" stroke="#009600" stroke-width="40" fill="#FF8000" />
  <path d="M 3720 18080 l 0 200" stroke="#009600" stroke-width="40" fill="#FF8000" />
  <path d="M 2540 17860 l 0 220" stroke="#009600" stroke-width="40" fill="#FF8000" />
  <path d="M 3760 17740 l 520 220" stroke="#009600" stroke-width="40" fill="#FF8000" />
  <path d="M 3760 18280 l 520 -320" stroke="#009600" stroke-width="40" fill="#FF8000" />
  <path id="POLYGON671" d="M 13740 3180 l 0 6500" stroke="#80FFFF" stroke-width="20" fill="none" />
  <path id="POLYGON672" d="M 24600 3200 l 0 6640" stroke="#80FFFF" stroke-width="20" fill="none" />
  <path id="LINE672" d="M 35620 3120 l 0 6640" stroke="#80FFFF" stroke-width="20" fill="none" />
  <path id="POLYGON673" d="M 25320 8800 l 0 860" stroke="#000000" stroke-width="40" fill="none" />
  <path id="POLYGON674" d="M 36360 8900 l 0 920" stroke="#000000" stroke-width="40" fill="none" />
  <path id="POLYGON679" d="M 15060 17100 l 7620 0" stroke="#80FFFF" stroke-width="40" fill="none" />
  <path d="M 18497 17800 l -179 -40 -99 -40 -74 -40 -61 -40 -52 -40 -45 -40 -39 -40 -35 -40 -30 -40 -28 -40 -24 -40 -22 -40 -19 -40 -16 -40 -15 -40 -12 -40 -10 -40 -8 -40 -7 -40 -4 -40 -3 -40 -1 -40 0 0 1 -40 3 -40 4 -40 7 -40 8 -40 10 -40 12 -40 15 -40 16 -40 19 -40 22 -40 24 -40 28 -40 30 -40 35 -40 39 -40 45 -40 52 -40 61 -40 74 -40 99 -40 179 -40 206 0 179 40 99 40 74 40 61 40 52 40 45 40 39 40 35 40 30 40 28 40 24 40 22 40 19 40 16 40 15 40 12 40 10 40 8 40 7 40 4 40 3 40 1 40 0 0 -1 40 -3 40 -4 40 -7 40 -8 40 -10 40 -12 40 -15 40 -16 40 -19 40 -22 40 -24 40 -28 40 -30 40 -35 40 -39 40 -45 40 -52 40 -61 40 -74 40 -99 40 -179 40 -206 0" stroke="#000000" stroke-width="20" fill="#C0C0C0" />
  <path d="M 18180 16520 l 420 1080" stroke="#000000" stroke-width="20" fill="none" />
  <path d="M 18600 17600 l 420 -1080" stroke="#000000" stroke-width="20" fill="none" />
  <path d="M 18180 16520 l 0 1800" stroke="#000000" stroke-width="20" fill="none" />
  <path d="M 19020 16520 l 0 1800" stroke="#000000" stroke-width="20" fill="none" />
  <path id="POLYGON677" d="M 18180 17840 l 0 1520" stroke="#009600" stroke-width="40" fill="none" />
  <path id="LINE678" d="M 19020 17840 l 0 3120" stroke="#009600" stroke-width="40" fill="none" />
  <path id="POLYGON678" d="M 15060 12980 l 0 4120" stroke="#80FFFF" stroke-width="40" fill="none" />
  <path id="POLYGON680" d="M 22680 13880 l 0 3220" stroke="#80FFFF" stroke-width="40" fill="none" />
  <g id="TEXT100">
    <rect x="14100" y="18000" width="3740" height="620" stroke-width="0" fill="none" id="TEXT100_pbTextBoundingRectEl" />
    <text fill="#000000" font-family="Helvetica" font-size="560" text-anchor="middle" x="15970" y="18590" id="TEXT100_pbTextEl">590-PI1001A</text>
  </g>
  <g id="TEXT101">
    <rect x="20300" y="17920" width="3740" height="620" stroke-width="0" fill="none" id="TEXT101_pbTextBoundingRectEl" />
    <text fill="#000000" font-family="Helvetica" font-size="560" text-anchor="middle" x="22170" y="18510" id="TEXT101_pbTextEl">590-TI1004A</text>
  </g>
  <path id="LINE684" d="M 26220 17100 l 7620 0" stroke="#80FFFF" stroke-width="40" fill="none" />
  <path d="M 29657 17800 l -179 -40 -99 -40 -74 -40 -61 -40 -52 -40 -45 -40 -39 -40 -35 -40 -30 -40 -28 -40 -24 -40 -22 -40 -19 -40 -16 -40 -15 -40 -12 -40 -10 -40 -8 -40 -7 -40 -4 -40 -3 -40 -1 -40 0 0 1 -40 3 -40 4 -40 7 -40 8 -40 10 -40 12 -40 15 -40 16 -40 19 -40 22 -40 24 -40 28 -40 30 -40 35 -40 39 -40 45 -40 52 -40 61 -40 74 -40 99 -40 179 -40 206 0 179 40 99 40 74 40 61 40 52 40 45 40 39 40 35 40 30 40 28 40 24 40 22 40 19 40 16 40 15 40 12 40 10 40 8 40 7 40 4 40 3 40 1 40 0 0 -1 40 -3 40 -4 40 -7 40 -8 40 -10 40 -12 40 -15 40 -16 40 -19 40 -22 40 -24 40 -28 40 -30 40 -35 40 -39 40 -45 40 -52 40 -61 40 -74 40 -99 40 -179 40 -206 0" stroke="#000000" stroke-width="20" fill="#C0C0C0" />
  <path d="M 29340 16520 l 420 1080" stroke="#000000" stroke-width="20" fill="none" />
  <path d="M 29760 17600 l 420 -1080" stroke="#000000" stroke-width="20" fill="none" />
  <path d="M 29340 16520 l 0 1800" stroke="#000000" stroke-width="20" fill="none" />
  <path d="M 30180 16520 l 0 1800" stroke="#000000" stroke-width="20" fill="none" />
  <path id="LINE689" d="M 29340 17840 l 0 1520" stroke="#009600" stroke-width="40" fill="none" />
  <path id="LINE690" d="M 30180 17840 l 0 3120" stroke="#009600" stroke-width="40" fill="none" />
  <path id="LINE691" d="M 26220 12980 l 0 4120" stroke="#80FFFF" stroke-width="40" fill="none" />
  <path id="LINE692" d="M 33840 13880 l 0 3220" stroke="#80FFFF" stroke-width="40" fill="none" />
  <g id="TEXT102">
    <rect x="25020" y="17920" width="3740" height="620" stroke-width="0" fill="none" id="TEXT102_pbTextBoundingRectEl" />
    <text fill="#000000" font-family="Helvetica" font-size="560" text-anchor="middle" x="26890" y="18510" id="TEXT102_pbTextEl">590-PI1002A</text>
  </g>
  <g id="TEXT103">
    <rect x="31260" y="17860" width="3740" height="620" stroke-width="0" fill="none" id="TEXT103_pbTextBoundingRectEl" />
    <text fill="#000000" font-family="Helvetica" font-size="560" text-anchor="middle" x="33130" y="18450" id="TEXT103_pbTextEl">590-TI1005A</text>
  </g>
  <path id="LINE695" d="M 37580 17100 l 23900 0" stroke="#80FFFF" stroke-width="40" fill="none" />
  <path d="M 41017 17800 l -179 -40 -99 -40 -74 -40 -61 -40 -52 -40 -45 -40 -39 -40 -35 -40 -30 -40 -28 -40 -24 -40 -22 -40 -19 -40 -16 -40 -15 -40 -12 -40 -10 -40 -8 -40 -7 -40 -4 -40 -3 -40 -1 -40 0 0 1 -40 3 -40 4 -40 7 -40 8 -40 10 -40 12 -40 15 -40 16 -40 19 -40 22 -40 24 -40 28 -40 30 -40 35 -40 39 -40 45 -40 52 -40 61 -40 74 -40 99 -40 179 -40 206 0 179 40 99 40 74 40 61 40 52 40 45 40 39 40 35 40 30 40 28 40 24 40 22 40 19 40 16 40 15 40 12 40 10 40 8 40 7 40 4 40 3 40 1 40 0 0 -1 40 -3 40 -4 40 -7 40 -8 40 -10 40 -12 40 -15 40 -16 40 -19 40 -22 40 -24 40 -28 40 -30 40 -35 40 -39 40 -45 40 -52 40 -61 40 -74 40 -99 40 -179 40 -206 0" stroke="#000000" stroke-width="20" fill="#C0C0C0" />
  <path d="M 40700 16520 l 420 1080" stroke="#000000" stroke-width="20" fill="none" />
  <path d="M 41120 17600 l 420 -1080" stroke="#000000" stroke-width="20" fill="none" />
  <path d="M 40700 16520 l 0 1800" stroke="#000000" stroke-width="20" fill="none" />
  <path d="M 41540 16520 l 0 1800" stroke="#000000" stroke-width="20" fill="none" />
  <path id="LINE700" d="M 40700 17840 l 0 1520" stroke="#009600" stroke-width="40" fill="none" />
  <path id="LINE701" d="M 41540 17840 l 0 3120" stroke="#009600" stroke-width="40" fill="none" />
  <path id="LINE702" d="M 37580 12980 l 0 4120" stroke="#80FFFF" stroke-width="40" fill="none" />
  <g id="TEXT104">
    <rect x="36620" y="17960" width="3740" height="620" stroke-width="0" fill="none" id="TEXT104_pbTextBoundingRectEl" />
    <text fill="#000000" font-family="Helvetica" font-size="560" text-anchor="middle" x="38490" y="18550" id="TEXT104_pbTextEl">590-PI1003A</text>
  </g>
  <g id="TEXT105">
    <rect x="42760" y="17940" width="3740" height="620" stroke-width="0" fill="none" id="TEXT105_pbTextBoundingRectEl" />
    <text fill="#000000" font-family="Helvetica" font-size="560" text-anchor="middle" x="44630" y="18530" id="TEXT105_pbTextEl">590-TI1006A</text>
  </g>
  <path d="M 61520 16920 l 1160 0" stroke="#80FFFF" stroke-width="40" fill="#FF8000" />
  <path d="M 61520 17140 l 1160 0" stroke="#80FFFF" stroke-width="40" fill="#FF8000" />
  <path d="M 62680 16780 l 0 140" stroke="#80FFFF" stroke-width="40" fill="#FF8000" />
  <path d="M 62680 17140 l 0 200" stroke="#80FFFF" stroke-width="40" fill="#FF8000" />
  <path d="M 61520 16920 l 0 220" stroke="#80FFFF" stroke-width="40" fill="#FF8000" />
  <path d="M 62720 16780 l 520 220" stroke="#80FFFF" stroke-width="40" fill="#FF8000" />
  <path d="M 62720 17340 l 520 -340" stroke="#80FFFF" stroke-width="40" fill="#FF8000" />
  <g name="Vessel3">
    <path d="M 24031 23425 l -7 -27 -6 -10 -7 -7 -7 -6 -6 -5 -7 -5 -6 -3 -7 -5 -6 -3 -7 -5 -6 -3 -7 -2 -6 -3 -7 -3 -6 -2 -7 -2 -7 -3 -6 -2 -7 0 -6 -4 -7 -2 -6 0 -7 -2 -6 -3 -7 0 -6 -3 -7 0 -6 -2 -7 0 -7 -3 -6 0 -7 0 -6 -2 -7 0 -6 0 -7 -2 -6 0 -7 0 -6 0 -7 -3 -7 0 -6 0 -7 0 -6 0 -7 0 -6 0 -7 0 -6 0 -7 0 -13 0 -7 0 -6 0 -7 0 -6 0 -7 0 -6 0 -7 0 -6 0 -7 0 -6 3 -7 0 -7 0 -6 0 -7 2 -6 0 -7 0 -6 2 -7 0 -6 0 -7 3 -6 0 -7 2 -7 0 -6 3 -7 0 -6 3 -7 2 -6 0 -7 2 -6 4 -7 0 -6 2 -7 3 -7 2 -6 2 -7 3 -6 3 -7 2 -6 3 -7 5 -6 3 -7 5 -6 3 -7 5 -7 5 -6 6 -7 7 -6 10 -6 27 6 22 6 11 7 8 6 5 7 6 7 5 6 2 7 5 6 3 7 5 6 3 7 3 6 2 7 2 6 3 7 3 7 2 6 3 7 0 6 2 7 4 6 0 7 2 6 3 7 0 6 2 7 0 7 2 6 0 7 3 6 0 7 0 6 2 7 0 6 0 7 3 6 0 7 0 7 0 6 3 7 0 6 0 7 0 6 0 7 0 6 0 7 0 6 0 7 0 13 0 7 0 6 0 7 0 6 0 7 0 6 0 7 0 6 0 7 0 7 -3 6 0 7 0 6 0 7 -3 6 0 7 0 6 -2 7 0 6 0 7 -3 7 0 6 -2 7 0 6 -2 7 0 6 -3 7 -2 6 0 7 -4 6 -2 7 0 6 -3 7 -2 7 -3 6 -3 7 -2 6 -2 7 -3 6 -3 7 -5 6 -3 7 -5 6 -2 7 -5 6 -6 7 -5 7 -8 6 -11 7 -22 0 0" stroke="#000000" stroke-width="20" fill="#000000" />
    <path d="M 23998 23425 l -6 -27 -6 -10 -6 -8 -6 -5 -5 -5 -7 -6 -5 -2 -6 -5 -6 -3 -6 -5 -6 -3 -6 -3 -6 -2 -6 -3 -5 -2 -7 -2 -5 -3 -6 -3 -6 0 -6 -3 -6 -2 -6 0 -6 -3 -6 -2 -5 0 -6 -3 -6 0 -6 -3 -6 0 -6 -2 -6 0 -6 0 -5 -2 -7 0 -5 0 -6 -3 -6 0 -6 0 -6 0 -6 -2 -6 0 -6 0 -5 0 -7 0 -5 0 -6 0 -6 0 -6 0 -6 0 -12 0 -5 0 -6 0 -6 0 -6 0 -6 0 -6 0 -6 0 -6 0 -5 0 -6 2 -6 0 -6 0 -6 0 -6 3 -6 0 -6 0 -6 2 -6 0 -6 0 -6 2 -6 0 -6 3 -5 0 -6 3 -6 0 -6 2 -5 3 -7 0 -5 2 -6 3 -6 0 -6 3 -6 3 -7 2 -5 2 -6 3 -6 2 -6 3 -6 3 -6 5 -6 3 -6 5 -5 2 -6 6 -6 5 -6 5 -6 8 -6 10 -5 27 5 22 6 11 6 8 6 4 6 7 6 4 5 3 6 5 6 2 6 6 6 3 6 2 6 3 6 2 5 3 7 2 6 2 6 4 6 0 6 2 5 3 7 0 5 2 6 3 6 0 6 3 5 0 6 2 6 0 6 2 6 0 6 0 6 3 6 0 6 0 6 2 6 0 6 0 6 0 6 4 5 0 6 0 6 0 6 0 6 0 6 0 6 0 6 0 5 0 12 0 6 0 6 0 6 0 6 0 5 0 7 0 5 0 6 0 6 0 6 -4 6 0 6 0 6 0 6 -2 5 0 7 0 5 -3 6 0 6 0 6 -2 6 0 6 -2 6 0 6 -3 5 0 6 -3 6 -2 6 0 6 -3 6 -2 6 0 6 -4 5 -2 7 -2 5 -3 6 -2 6 -3 6 -2 6 -3 6 -6 6 -2 6 -5 5 -3 7 -4 5 -7 6 -4 6 -8 6 -11 6 -22 0 0" stroke="#3C3C3C" stroke-width="20" fill="#3C3C3C" />
    <path d="M 23966 23425 l -6 -27 -5 -10 -5 -7 -5 -6 -6 -5 -5 -5 -5 -3 -5 -5 -6 -3 -5 -5 -5 -3 -5 -2 -5 -3 -6 -3 -5 -2 -5 -2 -5 -3 -5 -2 -6 0 -5 -4 -5 -2 -5 0 -6 -2 -5 -3 -5 0 -5 -3 -5 0 -6 -2 -5 0 -5 -3 -5 0 -6 0 -5 -2 -5 0 -6 0 -5 -2 -5 0 -5 0 -6 0 -5 -3 -5 0 -5 0 -5 0 -6 0 -5 0 -5 0 -5 0 -6 0 -5 0 -11 0 -5 0 -5 0 -5 0 -6 0 -5 0 -6 0 -5 0 -5 0 -5 0 -5 3 -6 0 -5 0 -5 0 -5 2 -5 0 -6 0 -5 2 -5 0 -5 0 -6 3 -5 0 -5 2 -5 0 -5 3 -6 0 -5 3 -5 2 -5 0 -6 2 -5 4 -5 0 -5 2 -5 3 -6 2 -5 2 -5 3 -6 3 -5 2 -5 3 -5 5 -6 3 -5 5 -5 3 -5 5 -6 5 -5 6 -5 7 -5 10 -5 27 5 22 5 11 5 8 5 5 6 6 5 5 5 2 5 5 6 3 5 5 5 3 5 3 6 2 5 2 5 3 6 3 5 2 5 3 5 0 5 2 6 4 5 0 5 2 5 3 6 0 5 2 5 0 5 2 5 0 6 3 5 0 5 0 5 2 6 0 5 0 5 3 5 0 5 0 6 0 5 3 5 0 5 0 5 0 6 0 5 0 6 0 5 0 5 0 5 0 11 0 5 0 6 0 5 0 5 0 5 0 6 0 5 0 5 0 5 0 5 -3 6 0 5 0 5 0 5 -3 6 0 5 0 5 -2 6 0 5 0 5 -3 5 0 6 -2 5 0 5 -2 5 0 5 -3 6 -2 5 0 5 -4 5 -2 6 0 5 -3 5 -2 5 -3 5 -3 6 -2 5 -2 5 -3 5 -3 5 -5 6 -3 5 -5 5 -2 5 -5 6 -6 5 -5 5 -8 5 -11 6 -22 0 0" stroke="#5A5A5A" stroke-width="20" fill="#5A5A5A" />
    <path d="M 23931 23425 l -5 -27 -4 -10 -5 -7 -4 -6 -5 -5 -5 -5 -4 -3 -5 -5 -4 -3 -5 -5 -4 -3 -5 -2 -4 -3 -5 -3 -5 -2 -4 -2 -5 -3 -4 -2 -5 0 -4 -4 -5 -2 -5 0 -4 -2 -5 -3 -4 0 -5 -3 -5 0 -4 -2 -5 0 -4 -3 -5 0 -5 0 -4 -2 -4 0 -5 0 -5 -2 -5 0 -4 0 -4 0 -5 -3 -5 0 -5 0 -4 0 -4 0 -5 0 -5 0 -4 0 -5 0 -4 0 -9 0 -4 0 -5 0 -5 0 -4 0 -5 0 -4 0 -5 0 -5 0 -4 0 -5 3 -4 0 -5 0 -4 0 -5 2 -5 0 -4 0 -5 2 -4 0 -5 0 -5 3 -4 0 -4 2 -5 0 -5 3 -4 0 -5 3 -4 2 -5 0 -5 2 -4 4 -5 0 -4 2 -5 3 -5 2 -4 2 -5 3 -4 3 -5 2 -5 3 -4 5 -5 3 -4 5 -5 3 -5 5 -4 5 -4 6 -5 7 -5 10 -4 27 4 22 5 11 5 8 4 5 4 6 5 5 5 2 4 5 5 3 4 5 5 3 5 3 4 2 5 2 4 3 5 3 5 2 4 3 5 0 4 2 5 4 5 0 4 2 5 3 4 0 5 2 5 0 4 2 4 0 5 3 5 0 4 0 5 2 4 0 5 0 5 3 4 0 5 0 4 0 5 3 4 0 5 0 5 0 4 0 5 0 4 0 5 0 5 0 4 0 9 0 4 0 5 0 4 0 5 0 5 0 4 0 4 0 5 0 5 0 5 -3 4 0 4 0 5 0 5 -3 5 0 4 0 4 -2 5 0 5 0 4 -3 5 0 4 -2 5 0 5 -2 4 0 5 -3 4 -2 5 0 5 -4 4 -2 5 0 4 -3 5 -2 4 -3 5 -3 5 -2 4 -2 5 -3 4 -3 5 -5 4 -3 5 -5 4 -2 5 -5 5 -6 4 -5 5 -8 4 -11 5 -22 0 0" stroke="#808080" stroke-width="20" fill="#808080" />
    <path d="M 23899 23425 l -5 -27 -4 -10 -3 -7 -5 -6 -3 -5 -4 -5 -4 -3 -4 -5 -4 -3 -4 -5 -4 -3 -4 -2 -3 -3 -5 -3 -3 -2 -4 -2 -4 -3 -4 -2 -3 0 -5 -4 -3 -2 -4 0 -4 -2 -4 -3 -4 0 -4 -3 -4 0 -4 -2 -4 0 -4 -3 -4 0 -4 0 -4 -2 -3 0 -5 0 -3 -2 -4 0 -4 0 -4 0 -4 -3 -4 0 -4 0 -4 0 -4 0 -4 0 -3 0 -5 0 -4 0 -3 0 -8 0 -4 0 -4 0 -4 0 -4 0 -4 0 -4 0 -4 0 -3 0 -5 0 -3 3 -4 0 -4 0 -4 0 -4 2 -4 0 -4 0 -4 2 -4 0 -4 0 -4 3 -4 0 -4 2 -3 0 -5 3 -3 0 -4 3 -4 2 -4 0 -4 2 -4 4 -4 0 -4 2 -4 3 -4 2 -3 2 -5 3 -3 3 -4 2 -5 3 -3 5 -4 3 -4 5 -4 3 -4 5 -4 5 -4 6 -4 7 -4 10 -3 27 3 22 4 11 4 8 4 5 4 6 4 5 4 2 4 5 4 3 3 5 5 3 4 3 3 2 5 2 3 3 4 3 4 2 4 3 4 0 4 2 4 4 4 0 4 2 4 3 3 0 5 2 3 0 4 2 4 0 4 3 4 0 4 0 4 2 4 0 4 0 4 3 4 0 4 0 4 0 3 3 5 0 3 0 4 0 4 0 4 0 4 0 4 0 4 0 4 0 8 0 3 0 4 0 5 0 3 0 4 0 4 0 4 0 4 0 4 0 4 -3 4 0 4 0 4 0 3 -3 5 0 3 0 4 -2 4 0 4 0 4 -3 4 0 4 -2 4 0 4 -2 4 0 4 -3 4 -2 4 0 3 -4 5 -2 3 0 4 -3 4 -2 4 -3 3 -3 5 -2 3 -2 4 -3 4 -3 4 -5 4 -3 4 -5 4 -2 4 -5 3 -6 5 -5 3 -8 4 -11 5 -22 0 0" stroke="#969696" stroke-width="20" fill="#969696" />
    <path d="M 23867 23425 l -3 -27 -3 -10 -4 -7 -3 -6 -3 -5 -3 -5 -4 -3 -3 -5 -3 -3 -4 -5 -3 -3 -3 -2 -3 -3 -4 -3 -3 -2 -3 -2 -3 -3 -4 -2 -3 0 -3 -4 -4 -2 -3 0 -3 -2 -3 -3 -4 0 -3 -3 -3 0 -3 -2 -4 0 -3 -3 -3 0 -4 0 -3 -2 -3 0 -3 0 -4 -2 -3 0 -3 0 -3 0 -4 -3 -3 0 -3 0 -4 0 -3 0 -3 0 -3 0 -4 0 -3 0 -3 0 -7 0 -3 0 -3 0 -4 0 -3 0 -3 0 -3 0 -4 0 -3 0 -3 0 -3 3 -4 0 -3 0 -3 0 -4 2 -3 0 -3 0 -3 2 -4 0 -3 0 -3 3 -3 0 -4 2 -3 0 -3 3 -4 0 -3 3 -3 2 -3 0 -4 2 -3 4 -3 0 -3 2 -4 3 -3 2 -3 2 -4 3 -3 3 -3 2 -3 3 -4 5 -3 3 -3 5 -3 3 -4 5 -3 5 -3 6 -4 7 -3 10 -3 27 3 22 3 11 4 8 3 5 3 6 4 5 3 2 3 5 3 3 4 5 3 3 3 3 3 2 4 2 3 3 3 3 4 2 3 3 3 0 3 2 4 4 3 0 3 2 3 3 4 0 3 2 3 0 4 2 3 0 3 3 3 0 4 0 3 2 3 0 3 0 4 3 3 0 3 0 4 0 3 3 3 0 3 0 4 0 3 0 3 0 3 0 4 0 3 0 3 0 7 0 3 0 3 0 4 0 3 0 3 0 3 0 4 0 3 0 3 0 4 -3 3 0 3 0 3 0 4 -3 3 0 3 0 3 -2 4 0 3 0 3 -3 4 0 3 -2 3 0 3 -2 4 0 3 -3 3 -2 3 0 4 -4 3 -2 3 0 4 -3 3 -2 3 -3 3 -3 4 -2 3 -2 3 -3 3 -3 4 -5 3 -3 3 -5 4 -2 3 -5 3 -6 3 -5 4 -8 3 -11 3 -22 0 0" stroke="#C0C0C0" stroke-width="20" fill="#C0C0C0" />
    <path d="M 23835 23425 l -4 -27 -2 -10 -3 -7 -2 -6 -3 -5 -3 -5 -2 -3 -3 -5 -3 -3 -2 -5 -3 -3 -2 -2 -3 -3 -3 -3 -2 -2 -3 -2 -2 -3 -3 -2 -3 0 -2 -4 -3 -2 -2 0 -3 -2 -3 -3 -2 0 -3 -3 -2 0 -3 -2 -3 0 -2 -3 -3 0 -3 0 -2 -2 -3 0 -2 0 -3 -2 -3 0 -2 0 -3 0 -2 -3 -3 0 -3 0 -2 0 -3 0 -2 0 -3 0 -3 0 -2 0 -3 0 -5 0 -3 0 -2 0 -3 0 -3 0 -2 0 -3 0 -2 0 -3 0 -3 0 -2 3 -3 0 -3 0 -3 0 -2 2 -3 0 -2 0 -3 2 -3 0 -3 0 -2 3 -3 0 -3 2 -2 0 -2 3 -3 0 -2 3 -3 2 -3 0 -2 2 -3 4 -2 0 -3 2 -3 3 -3 2 -2 2 -3 3 -3 3 -2 2 -3 3 -2 5 -3 3 -3 5 -2 3 -3 5 -3 5 -2 6 -3 7 -2 10 -2 27 2 22 2 11 3 8 2 5 3 6 3 5 2 2 3 5 3 3 2 5 3 3 2 3 3 2 3 2 2 3 3 3 3 2 3 3 2 0 3 2 2 4 3 0 3 2 2 3 3 0 2 2 2 0 3 2 3 0 2 3 3 0 3 0 3 2 2 0 3 0 2 3 3 0 3 0 3 0 2 3 3 0 3 0 2 0 3 0 2 0 3 0 3 0 2 0 3 0 5 0 3 0 2 0 3 0 3 0 2 0 3 0 2 0 3 0 3 0 2 -3 3 0 2 0 3 0 3 -3 2 0 3 0 2 -2 3 0 3 0 2 -3 3 0 3 -2 2 0 3 -2 2 0 3 -3 3 -2 2 0 3 -4 2 -2 3 0 3 -3 2 -2 3 -3 2 -3 3 -2 3 -2 2 -3 3 -3 2 -5 3 -3 3 -5 2 -2 3 -5 3 -6 2 -5 3 -8 2 -11 4 -22 0 0" stroke="#D2D2D2" stroke-width="20" fill="#D2D2D2" />
    <path d="M 23803 23425 l -3 -27 -2 -10 -2 -7 -2 -6 -2 -5 -2 -5 -1 -3 -3 -5 -2 -3 -2 -5 -1 -3 -2 -2 -2 -3 -3 -3 -1 -2 -2 -2 -2 -3 -3 -2 -2 0 -2 -4 -2 -2 -2 0 -2 -2 -2 -3 -1 0 -2 -3 -2 0 -2 -2 -2 0 -2 -3 -2 0 -1 0 -3 -2 -2 0 -2 0 -2 -2 -2 0 -2 0 -2 0 -2 -3 -2 0 -2 0 -2 0 -2 0 -2 0 -2 0 -2 0 -2 0 -2 0 -4 0 -2 0 -2 0 -1 0 -2 0 -2 0 -3 0 -1 0 -2 0 -2 0 -2 3 -2 0 -2 0 -2 0 -2 2 -2 0 -2 0 -2 2 -3 0 -2 0 -2 3 -1 0 -2 2 -2 0 -2 3 -2 0 -2 3 -2 2 -1 0 -2 2 -3 4 -2 0 -1 2 -3 3 -2 2 -2 2 -2 3 -2 3 -2 2 -2 3 -2 5 -2 3 -2 5 -2 3 -2 5 -2 5 -1 6 -2 7 -3 10 -1 27 1 22 3 11 2 8 1 5 2 6 2 5 2 2 2 5 2 3 2 5 2 3 2 3 2 2 2 2 2 3 2 3 3 2 1 3 2 0 3 2 2 4 1 0 2 2 2 3 2 0 2 2 2 0 2 2 1 0 2 3 2 0 3 0 2 2 2 0 2 0 2 3 2 0 2 0 2 0 2 3 2 0 2 0 1 0 3 0 2 0 2 0 1 0 2 0 2 0 4 0 2 0 2 0 2 0 2 0 2 0 2 0 2 0 2 0 2 0 2 -3 2 0 2 0 2 0 2 -3 2 0 2 0 3 -2 1 0 2 0 2 -3 2 0 2 -2 2 0 2 -2 1 0 2 -3 2 -2 2 0 2 -4 2 -2 2 0 3 -3 2 -2 2 -3 1 -3 3 -2 2 -2 2 -3 1 -3 2 -5 2 -3 3 -5 1 -2 2 -5 2 -6 2 -5 2 -8 2 -11 3 -22 0 0" stroke="#DEDEDE" stroke-width="20" fill="#DEDEDE" />
    <path d="M 23769 23424 l -2 -26 -1 -11 -2 -8 -1 -5 -2 -4 -1 -6 -1 -3 -1 -4 -2 -3 -1 -6 -1 -2 -1 -3 -2 -3 -1 -2 -2 -2 -1 -2 -1 -3 -1 -3 -2 0 -1 -3 -1 -2 -1 0 -2 -3 -1 -2 -1 0 -1 -3 -2 0 -1 -3 -1 0 -1 -2 -2 0 -1 0 -2 -2 -1 0 -2 0 -1 -3 -1 0 -1 0 -2 0 0 -2 -2 0 -1 0 -2 0 -1 0 -1 0 -1 0 -2 0 -1 0 -1 0 -3 0 -1 0 -2 0 -1 0 -1 0 -1 0 -2 0 -1 0 -1 0 -2 0 -1 2 -1 0 -2 0 -1 0 -1 3 -1 0 -2 0 -1 2 -2 0 -1 0 -1 2 -1 0 -2 3 -1 0 -1 3 -1 0 -1 2 -1 3 -2 0 -1 2 -2 3 -1 0 -1 3 -2 3 -1 2 -2 2 -1 2 -2 3 -1 3 0 2 -2 6 -1 3 -1 4 -1 3 -2 6 -1 4 -2 5 -1 8 -1 11 -1 26 1 23 1 11 1 7 2 5 1 6 2 5 1 3 1 4 1 3 2 5 0 3 1 3 2 3 1 2 2 2 1 3 2 2 1 3 1 0 2 2 1 4 2 0 1 2 1 2 1 0 1 3 1 0 2 3 1 0 1 2 1 0 2 0 1 2 2 0 1 0 1 3 1 0 2 0 1 0 1 3 2 0 1 0 1 0 2 0 1 0 1 0 1 0 2 0 1 0 3 0 1 0 1 0 2 0 1 0 1 0 1 0 2 0 1 0 2 0 0 -3 2 0 1 0 1 0 1 -3 2 0 1 0 2 -2 1 0 2 0 1 -2 1 0 1 -3 2 0 1 -3 1 0 1 -2 2 -2 1 0 1 -4 1 -2 2 0 1 -3 1 -2 1 -3 2 -2 1 -2 2 -3 1 -3 1 -3 1 -5 2 -3 1 -4 1 -3 1 -5 2 -6 1 -5 2 -7 1 -11 2 -23 0 0" stroke="#F0F0F0" stroke-width="20" fill="#F0F0F0" />
    <path d="M 23735 23424 l -2 -26 0 -11 -1 -8 0 -5 -1 -4 -1 -6 0 -3 -1 -4 -1 -3 0 -6 -1 -2 -1 -3 -1 -3 0 -2 -1 -2 0 -2 -1 -3 -1 -3 0 0 -1 -3 -1 -2 0 0 -1 -3 0 -2 -1 -3 -1 0 0 -3 -1 0 -1 -2 -1 0 0 0 -1 -2 -1 0 0 0 -2 -3 0 0 -1 0 0 0 0 -2 -1 0 -1 0 0 0 -1 0 -1 0 0 0 -1 0 0 0 -2 0 -1 0 0 0 -1 0 -1 0 0 0 -1 0 -1 0 0 0 -1 0 0 0 -1 2 -1 0 0 0 -1 0 -1 3 0 0 -1 0 -1 2 -1 0 0 0 -1 2 0 0 -1 3 -1 0 0 3 -1 0 -1 2 0 3 -1 0 0 2 -1 3 -1 0 0 3 -1 3 -1 2 -1 2 0 2 -1 3 -1 3 0 2 -1 6 0 3 -1 4 -1 3 0 6 -1 4 -1 5 0 8 -1 11 0 26 0 23 1 11 0 7 1 5 1 6 0 5 1 3 1 4 0 3 1 5 0 3 1 3 1 3 0 2 1 2 1 3 1 2 0 3 1 0 1 2 0 4 1 0 0 2 1 2 1 0 0 3 1 0 1 3 0 0 1 2 0 0 1 0 1 2 1 0 0 0 1 3 1 0 0 0 1 0 1 3 0 0 1 0 0 0 1 0 1 0 0 0 1 0 1 0 0 0 1 0 2 0 0 0 1 0 0 0 1 0 1 0 0 0 1 0 1 0 0 -3 0 0 1 0 0 0 2 -3 0 0 1 0 1 -2 0 0 1 0 1 -2 1 0 0 -3 1 0 1 -3 0 -2 1 -2 0 0 1 -4 1 -2 0 0 1 -3 1 -2 0 -3 1 -2 0 -2 1 -3 1 -3 1 -3 0 -5 1 -3 1 -4 0 -3 1 -5 1 -6 0 -5 1 -7 0 -11 2 -23 0 0" stroke="#FFFFFF" stroke-width="20" fill="#FFFFFF" />
    <path d="M 24031 24700 l -7 -27 -6 -10 -7 -8 -7 -6 -6 -4 -7 -6 -6 -3 -7 -4 -6 -3 -7 -6 -6 -2 -7 -2 -6 -4 -7 -2 -6 -2 -7 -3 -7 -2 -6 -3 -7 0 -6 -3 -7 -3 -6 0 -7 -2 -6 -2 -7 0 -6 -3 -7 0 -6 -3 -7 0 -7 -2 -6 0 -7 0 -6 -2 -7 0 -6 0 -7 -3 -6 0 -7 0 -6 0 -7 -2 -7 0 -6 0 -7 0 -6 0 -7 0 -6 0 -7 0 -6 0 -7 0 -13 0 -7 0 -6 0 -7 0 -6 0 -7 0 -6 0 -7 0 -6 0 -7 0 -6 2 -7 0 -7 0 -6 0 -7 3 -6 0 -7 0 -6 2 -7 0 -6 0 -7 2 -6 0 -7 3 -7 0 -6 3 -7 0 -6 2 -7 2 -6 0 -7 3 -6 3 -7 0 -6 3 -7 2 -7 3 -6 2 -7 2 -6 4 -7 2 -6 2 -7 6 -6 3 -7 4 -6 3 -7 6 -7 4 -6 6 -7 8 -6 10 -6 27 6 22 6 11 7 8 6 4 7 7 7 4 6 2 7 6 6 2 7 5 6 4 7 2 6 3 7 2 6 3 7 2 7 3 6 3 7 0 6 2 7 3 6 0 7 3 6 2 7 0 6 3 7 0 7 2 6 0 7 2 6 0 7 0 6 3 7 0 6 0 7 2 6 0 7 0 7 0 6 3 7 0 6 0 7 0 6 0 7 0 6 0 7 0 6 0 7 0 13 0 7 0 6 0 7 0 6 0 7 0 6 0 7 0 6 0 7 0 7 -3 6 0 7 0 6 0 7 -2 6 0 7 0 6 -3 7 0 6 0 7 -2 7 0 6 -2 7 0 6 -3 7 0 6 -2 7 -3 6 0 7 -3 6 -2 7 0 6 -3 7 -3 7 -2 6 -3 7 -2 6 -3 7 -2 6 -4 7 -5 6 -2 7 -6 6 -2 7 -4 6 -7 7 -4 7 -8 6 -11 7 -22 0 0" stroke="#000000" stroke-width="20" fill="#000000" />
    <path d="M 23998 24699 l -6 -26 -6 -10 -6 -8 -6 -6 -5 -5 -7 -5 -5 -3 -6 -4 -6 -3 -6 -6 -6 -2 -6 -3 -6 -3 -6 -2 -5 -3 -7 -2 -5 -2 -6 -3 -6 0 -6 -4 -6 -2 -6 0 -6 -2 -6 -3 -5 0 -6 -3 -6 0 -6 -2 -6 0 -6 -2 -6 0 -6 0 -5 -3 -7 0 -5 0 -6 -2 -6 0 -6 0 -6 0 -6 -2 -6 0 -6 0 -5 0 -7 0 -5 0 -6 0 -6 0 -6 0 -6 0 -12 0 -5 0 -6 0 -6 0 -6 0 -6 0 -6 0 -6 0 -6 0 -5 0 -6 2 -6 0 -6 0 -6 0 -6 2 -6 0 -6 0 -6 3 -6 0 -6 0 -6 2 -6 0 -6 2 -5 0 -6 3 -6 0 -6 3 -5 2 -7 0 -5 2 -6 4 -6 0 -6 3 -6 2 -7 2 -5 3 -6 2 -6 3 -6 3 -6 2 -6 6 -6 3 -6 4 -5 3 -6 5 -6 5 -6 6 -6 8 -6 10 -5 26 5 22 6 11 6 8 6 5 6 6 6 5 5 2 6 5 6 3 6 5 6 3 6 3 6 2 6 3 5 2 7 3 6 2 6 3 6 0 6 3 5 3 7 0 5 2 6 2 6 0 6 3 5 0 6 3 6 0 6 2 6 0 6 0 6 2 6 0 6 0 6 3 6 0 6 0 6 0 6 3 5 0 6 0 6 0 6 0 6 0 6 0 6 0 6 0 5 0 12 0 6 0 6 0 6 0 6 0 5 0 7 0 5 0 6 0 6 0 6 -3 6 0 6 0 6 0 6 -3 5 0 7 0 5 -2 6 0 6 0 6 -2 6 0 6 -3 6 0 6 -3 5 0 6 -2 6 -2 6 0 6 -3 6 -3 6 0 6 -3 5 -2 7 -3 5 -2 6 -3 6 -2 6 -3 6 -3 6 -5 6 -3 6 -5 5 -2 7 -5 5 -6 6 -5 6 -8 6 -11 6 -22 0 0" stroke="#3C3C3C" stroke-width="20" fill="#3C3C3C" />
    <path d="M 23966 24700 l -6 -27 -5 -10 -5 -8 -5 -6 -6 -4 -5 -6 -5 -3 -5 -4 -6 -3 -5 -6 -5 -2 -5 -2 -5 -4 -6 -2 -5 -2 -5 -3 -5 -2 -5 -3 -6 0 -5 -3 -5 -3 -5 0 -6 -2 -5 -2 -5 0 -5 -3 -5 0 -6 -3 -5 0 -5 -2 -5 0 -6 0 -5 -2 -5 0 -6 0 -5 -3 -5 0 -5 0 -6 0 -5 -2 -5 0 -5 0 -5 0 -6 0 -5 0 -5 0 -5 0 -6 0 -5 0 -11 0 -5 0 -5 0 -5 0 -6 0 -5 0 -6 0 -5 0 -5 0 -5 0 -5 2 -6 0 -5 0 -5 0 -5 3 -5 0 -6 0 -5 2 -5 0 -5 0 -6 2 -5 0 -5 3 -5 0 -5 3 -6 0 -5 2 -5 2 -5 0 -6 3 -5 3 -5 0 -5 3 -5 2 -6 3 -5 2 -5 2 -6 4 -5 2 -5 2 -5 6 -6 3 -5 4 -5 3 -5 6 -6 4 -5 6 -5 8 -5 10 -5 27 5 22 5 11 5 8 5 4 6 7 5 4 5 2 5 6 6 2 5 5 5 4 5 2 6 3 5 2 5 3 6 2 5 3 5 3 5 0 5 2 6 3 5 0 5 3 5 2 6 0 5 3 5 0 5 2 5 0 6 2 5 0 5 0 5 3 6 0 5 0 5 2 5 0 5 0 6 0 5 3 5 0 5 0 5 0 6 0 5 0 6 0 5 0 5 0 5 0 11 0 5 0 6 0 5 0 5 0 5 0 6 0 5 0 5 0 5 0 5 -3 6 0 5 0 5 0 5 -2 6 0 5 0 5 -3 6 0 5 0 5 -2 5 0 6 -2 5 0 5 -3 5 0 5 -2 6 -3 5 0 5 -3 5 -2 6 0 5 -3 5 -3 5 -2 5 -3 6 -2 5 -3 5 -2 5 -4 5 -5 6 -2 5 -6 5 -2 5 -4 6 -7 5 -4 5 -8 5 -11 6 -22 0 0" stroke="#5A5A5A" stroke-width="20" fill="#5A5A5A" />
    <path d="M 23931 24700 l -5 -27 -4 -10 -5 -8 -4 -6 -5 -4 -5 -6 -4 -3 -5 -4 -4 -3 -5 -6 -4 -2 -5 -2 -4 -4 -5 -2 -5 -2 -4 -3 -5 -2 -4 -3 -5 0 -4 -3 -5 -3 -5 0 -4 -2 -5 -2 -4 0 -5 -3 -5 0 -4 -3 -5 0 -4 -2 -5 0 -5 0 -4 -2 -4 0 -5 0 -5 -3 -5 0 -4 0 -4 0 -5 -2 -5 0 -5 0 -4 0 -4 0 -5 0 -5 0 -4 0 -5 0 -4 0 -9 0 -4 0 -5 0 -5 0 -4 0 -5 0 -4 0 -5 0 -5 0 -4 0 -5 2 -4 0 -5 0 -4 0 -5 3 -5 0 -4 0 -5 2 -4 0 -5 0 -5 2 -4 0 -4 3 -5 0 -5 3 -4 0 -5 2 -4 2 -5 0 -5 3 -4 3 -5 0 -4 3 -5 2 -5 3 -4 2 -5 2 -4 4 -5 2 -5 2 -4 6 -5 3 -4 4 -5 3 -5 6 -4 4 -4 6 -5 8 -5 10 -4 27 4 22 5 11 5 8 4 4 4 7 5 4 5 2 4 6 5 2 4 5 5 4 5 2 4 3 5 2 4 3 5 2 5 3 4 3 5 0 4 2 5 3 5 0 4 3 5 2 4 0 5 3 5 0 4 2 4 0 5 2 5 0 4 0 5 3 4 0 5 0 5 2 4 0 5 0 4 0 5 3 4 0 5 0 5 0 4 0 5 0 4 0 5 0 5 0 4 0 9 0 4 0 5 0 4 0 5 0 5 0 4 0 4 0 5 0 5 0 5 -3 4 0 4 0 5 0 5 -2 5 0 4 0 4 -3 5 0 5 0 4 -2 5 0 4 -2 5 0 5 -3 4 0 5 -2 4 -3 5 0 5 -3 4 -2 5 0 4 -3 5 -3 4 -2 5 -3 5 -2 4 -3 5 -2 4 -4 5 -5 4 -2 5 -6 4 -2 5 -4 5 -7 4 -4 5 -8 4 -11 5 -22 0 0" stroke="#808080" stroke-width="20" fill="#808080" />
    <path d="M 23899 24700 l -5 -27 -4 -10 -3 -8 -5 -6 -3 -4 -4 -6 -4 -3 -4 -4 -4 -3 -4 -6 -4 -2 -4 -2 -3 -4 -5 -2 -3 -2 -4 -3 -4 -2 -4 -3 -3 0 -5 -3 -3 -3 -4 0 -4 -2 -4 -2 -4 0 -4 -3 -4 0 -4 -3 -4 0 -4 -2 -4 0 -4 0 -4 -2 -3 0 -5 0 -3 -3 -4 0 -4 0 -4 0 -4 -2 -4 0 -4 0 -4 0 -4 0 -4 0 -3 0 -5 0 -4 0 -3 0 -8 0 -4 0 -4 0 -4 0 -4 0 -4 0 -4 0 -4 0 -3 0 -5 0 -3 2 -4 0 -4 0 -4 0 -4 3 -4 0 -4 0 -4 2 -4 0 -4 0 -4 2 -4 0 -4 3 -3 0 -5 3 -3 0 -4 2 -4 2 -4 0 -4 3 -4 3 -4 0 -4 3 -4 2 -4 3 -3 2 -5 2 -3 4 -4 2 -5 2 -3 6 -4 3 -4 4 -4 3 -4 6 -4 4 -4 6 -4 8 -4 10 -3 27 3 22 4 11 4 8 4 4 4 7 4 4 4 2 4 6 4 2 3 5 5 4 4 2 3 3 5 2 3 3 4 2 4 3 4 3 4 0 4 2 4 3 4 0 4 3 4 2 3 0 5 3 3 0 4 2 4 0 4 2 4 0 4 0 4 3 4 0 4 0 4 2 4 0 4 0 4 0 3 3 5 0 3 0 4 0 4 0 4 0 4 0 4 0 4 0 4 0 8 0 3 0 4 0 5 0 3 0 4 0 4 0 4 0 4 0 4 0 4 -3 4 0 4 0 4 0 3 -2 5 0 3 0 4 -3 4 0 4 0 4 -2 4 0 4 -2 4 0 4 -3 4 0 4 -2 4 -3 4 0 3 -3 5 -2 3 0 4 -3 4 -3 4 -2 3 -3 5 -2 3 -3 4 -2 4 -4 4 -5 4 -2 4 -6 4 -2 4 -4 3 -7 5 -4 3 -8 4 -11 5 -22 0 0" stroke="#969696" stroke-width="20" fill="#969696" />
    <path d="M 23867 24700 l -3 -27 -3 -10 -4 -8 -3 -6 -3 -4 -3 -6 -4 -3 -3 -4 -3 -3 -4 -6 -3 -2 -3 -2 -3 -4 -4 -2 -3 -2 -3 -3 -3 -2 -4 -3 -3 0 -3 -3 -4 -3 -3 0 -3 -2 -3 -2 -4 0 -3 -3 -3 0 -3 -3 -4 0 -3 -2 -3 0 -4 0 -3 -2 -3 0 -3 0 -4 -3 -3 0 -3 0 -3 0 -4 -2 -3 0 -3 0 -4 0 -3 0 -3 0 -3 0 -4 0 -3 0 -3 0 -7 0 -3 0 -3 0 -4 0 -3 0 -3 0 -3 0 -4 0 -3 0 -3 0 -3 2 -4 0 -3 0 -3 0 -4 3 -3 0 -3 0 -3 2 -4 0 -3 0 -3 2 -3 0 -4 3 -3 0 -3 3 -4 0 -3 2 -3 2 -3 0 -4 3 -3 3 -3 0 -3 3 -4 2 -3 3 -3 2 -4 2 -3 4 -3 2 -3 2 -4 6 -3 3 -3 4 -3 3 -4 6 -3 4 -3 6 -4 8 -3 10 -3 27 3 22 3 11 4 8 3 4 3 7 4 4 3 2 3 6 3 2 4 5 3 4 3 2 3 3 4 2 3 3 3 2 4 3 3 3 3 0 3 2 4 3 3 0 3 3 3 2 4 0 3 3 3 0 4 2 3 0 3 2 3 0 4 0 3 3 3 0 3 0 4 2 3 0 3 0 4 0 3 3 3 0 3 0 4 0 3 0 3 0 3 0 4 0 3 0 3 0 7 0 3 0 3 0 4 0 3 0 3 0 3 0 4 0 3 0 3 0 4 -3 3 0 3 0 3 0 4 -2 3 0 3 0 3 -3 4 0 3 0 3 -2 4 0 3 -2 3 0 3 -3 4 0 3 -2 3 -3 3 0 4 -3 3 -2 3 0 4 -3 3 -3 3 -2 3 -3 4 -2 3 -3 3 -2 3 -4 4 -5 3 -2 3 -6 4 -2 3 -4 3 -7 3 -4 4 -8 3 -11 3 -22 0 0" stroke="#C0C0C0" stroke-width="20" fill="#C0C0C0" />
    <path d="M 23835 24700 l -4 -27 -2 -10 -3 -8 -2 -6 -3 -4 -3 -6 -2 -3 -3 -4 -3 -3 -2 -6 -3 -2 -2 -2 -3 -4 -3 -2 -2 -2 -3 -3 -2 -2 -3 -3 -3 0 -2 -3 -3 -3 -2 0 -3 -2 -3 -2 -2 0 -3 -3 -2 0 -3 -3 -3 0 -2 -2 -3 0 -3 0 -2 -2 -3 0 -2 0 -3 -3 -3 0 -2 0 -3 0 -2 -2 -3 0 -3 0 -2 0 -3 0 -2 0 -3 0 -3 0 -2 0 -3 0 -5 0 -3 0 -2 0 -3 0 -3 0 -2 0 -3 0 -2 0 -3 0 -3 0 -2 2 -3 0 -3 0 -3 0 -2 3 -3 0 -2 0 -3 2 -3 0 -3 0 -2 2 -3 0 -3 3 -2 0 -2 3 -3 0 -2 2 -3 2 -3 0 -2 3 -3 3 -2 0 -3 3 -3 2 -3 3 -2 2 -3 2 -3 4 -2 2 -3 2 -2 6 -3 3 -3 4 -2 3 -3 6 -3 4 -2 6 -3 8 -2 10 -2 27 2 22 2 11 3 8 2 4 3 7 3 4 2 2 3 6 3 2 2 5 3 4 2 2 3 3 3 2 2 3 3 2 3 3 3 3 2 0 3 2 2 3 3 0 3 3 2 2 3 0 2 3 2 0 3 2 3 0 2 2 3 0 3 0 3 3 2 0 3 0 2 2 3 0 3 0 3 0 2 3 3 0 3 0 2 0 3 0 2 0 3 0 3 0 2 0 3 0 5 0 3 0 2 0 3 0 3 0 2 0 3 0 2 0 3 0 3 0 2 -3 3 0 2 0 3 0 3 -2 2 0 3 0 2 -3 3 0 3 0 2 -2 3 0 3 -2 2 0 3 -3 2 0 3 -2 3 -3 2 0 3 -3 2 -2 3 0 3 -3 2 -3 3 -2 2 -3 3 -2 3 -3 2 -2 3 -4 2 -5 3 -2 3 -6 2 -2 3 -4 3 -7 2 -4 3 -8 2 -11 4 -22 0 0" stroke="#D2D2D2" stroke-width="20" fill="#D2D2D2" />
    <path d="M 23803 24700 l -3 -27 -2 -10 -2 -8 -2 -6 -2 -4 -2 -6 -1 -3 -3 -4 -2 -3 -2 -6 -1 -2 -2 -2 -2 -4 -3 -2 -1 -2 -2 -3 -2 -2 -3 -3 -2 0 -2 -3 -2 -3 -2 0 -2 -2 -2 -2 -1 0 -2 -3 -2 0 -2 -3 -2 0 -2 -2 -2 0 -1 0 -3 -2 -2 0 -2 0 -2 -3 -2 0 -2 0 -2 0 -2 -2 -2 0 -2 0 -2 0 -2 0 -2 0 -2 0 -2 0 -2 0 -2 0 -4 0 -2 0 -2 0 -1 0 -2 0 -2 0 -3 0 -1 0 -2 0 -2 0 -2 2 -2 0 -2 0 -2 0 -2 3 -2 0 -2 0 -2 2 -3 0 -2 0 -2 2 -1 0 -2 3 -2 0 -2 3 -2 0 -2 2 -2 2 -1 0 -2 3 -3 3 -2 0 -1 3 -3 2 -2 3 -2 2 -2 2 -2 4 -2 2 -2 2 -2 6 -2 3 -2 4 -2 3 -2 6 -2 4 -1 6 -2 8 -3 10 -1 27 1 22 3 11 2 8 1 4 2 7 2 4 2 2 2 6 2 2 2 5 2 4 2 2 2 3 2 2 2 3 2 2 3 3 1 3 2 0 3 2 2 3 1 0 2 3 2 2 2 0 2 3 2 0 2 2 1 0 2 2 2 0 3 0 2 3 2 0 2 0 2 2 2 0 2 0 2 0 2 3 2 0 2 0 1 0 3 0 2 0 2 0 1 0 2 0 2 0 4 0 2 0 2 0 2 0 2 0 2 0 2 0 2 0 2 0 2 0 2 -3 2 0 2 0 2 0 2 -2 2 0 2 0 3 -3 1 0 2 0 2 -2 2 0 2 -2 2 0 2 -3 1 0 2 -2 2 -3 2 0 2 -3 2 -2 2 0 3 -3 2 -3 2 -2 1 -3 3 -2 2 -3 2 -2 1 -4 2 -5 2 -2 3 -6 1 -2 2 -4 2 -7 2 -4 2 -8 2 -11 3 -22 0 0" stroke="#DEDEDE" stroke-width="20" fill="#DEDEDE" />
    <path d="M 23769 24699 l -2 -27 -1 -10 -2 -8 -1 -5 -2 -5 -1 -6 -1 -2 -1 -5 -2 -3 -1 -5 -1 -3 -1 -2 -2 -3 -1 -2 -2 -3 -1 -2 -1 -2 -1 -3 -2 0 -1 -4 -1 -2 -1 0 -2 -2 -1 -3 -1 0 -1 -3 -2 0 -1 -2 -1 0 -1 -2 -2 0 -1 0 -2 -3 -1 0 -2 0 -1 -2 -1 0 -1 0 -2 0 0 -2 -2 0 -1 0 -2 0 -1 0 -1 0 -1 0 -2 0 -1 0 -1 0 -3 0 -1 0 -2 0 -1 0 -1 0 -1 0 -2 0 -1 0 -1 0 -2 0 -1 2 -1 0 -2 0 -1 0 -1 2 -1 0 -2 0 -1 3 -2 0 -1 0 -1 2 -1 0 -2 2 -1 0 -1 3 -1 0 -1 3 -1 2 -2 0 -1 2 -2 4 -1 0 -1 3 -2 2 -1 2 -2 3 -1 2 -2 3 -1 2 0 3 -2 5 -1 3 -1 5 -1 2 -2 6 -1 5 -2 5 -1 8 -1 10 -1 27 1 22 1 11 1 8 2 4 1 7 2 4 1 3 1 5 1 2 2 6 0 3 1 2 2 3 1 3 2 2 1 2 2 2 1 3 1 0 2 3 1 3 2 0 1 2 1 3 1 0 1 3 1 0 2 2 1 0 1 3 1 0 2 0 1 2 2 0 1 0 1 2 1 0 2 0 1 0 1 4 2 0 1 0 1 0 2 0 1 0 1 0 1 0 2 0 1 0 3 0 1 0 1 0 2 0 1 0 1 0 1 0 2 0 1 0 2 0 0 -4 2 0 1 0 1 0 1 -2 2 0 1 0 2 -2 1 0 2 0 1 -3 1 0 1 -2 2 0 1 -3 1 0 1 -3 2 -2 1 0 1 -3 1 -3 2 0 1 -3 1 -2 1 -2 2 -2 1 -3 2 -3 1 -2 1 -3 1 -6 2 -2 1 -5 1 -3 1 -4 2 -7 1 -4 2 -8 1 -11 2 -22 0 0" stroke="#F0F0F0" stroke-width="20" fill="#F0F0F0" />
    <path d="M 23735 24699 l -2 -27 0 -10 -1 -8 0 -5 -1 -5 -1 -6 0 -2 -1 -5 -1 -3 0 -5 -1 -3 -1 -2 -1 -3 0 -2 -1 -3 0 -2 -1 -2 -1 -3 0 0 -1 -4 -1 -2 0 0 -1 -2 0 -3 -1 -3 -1 0 0 -2 -1 0 -1 -2 -1 0 0 0 -1 -3 -1 0 0 0 -2 -2 0 0 -1 0 0 0 0 -2 -1 0 -1 0 0 0 -1 0 -1 0 0 0 -1 0 0 0 -2 0 -1 0 0 0 -1 0 -1 0 0 0 -1 0 -1 0 0 0 -1 0 0 0 -1 2 -1 0 0 0 -1 0 -1 2 0 0 -1 0 -1 3 -1 0 0 0 -1 2 0 0 -1 2 -1 0 0 3 -1 0 -1 3 0 2 -1 0 0 2 -1 4 -1 0 0 3 -1 2 -1 2 -1 3 0 2 -1 3 -1 2 0 3 -1 5 0 3 -1 5 -1 2 0 6 -1 5 -1 5 0 8 -1 10 0 27 0 22 1 11 0 8 1 4 1 7 0 4 1 3 1 5 0 2 1 6 0 3 1 2 1 3 0 3 1 2 1 2 1 2 0 3 1 0 1 3 0 3 1 0 0 2 1 3 1 0 0 3 1 0 1 2 0 0 1 3 0 0 1 0 1 2 1 0 0 0 1 2 1 0 0 0 1 0 1 4 0 0 1 0 0 0 1 0 1 0 0 0 1 0 1 0 0 0 1 0 2 0 0 0 1 0 0 0 1 0 1 0 0 0 1 0 1 0 0 -4 0 0 1 0 0 0 2 -2 0 0 1 0 1 -2 0 0 1 0 1 -3 1 0 0 -2 1 0 1 -3 0 -3 1 -2 0 0 1 -3 1 -3 0 0 1 -3 1 -2 0 -2 1 -2 0 -3 1 -3 1 -2 1 -3 0 -6 1 -2 1 -5 0 -3 1 -4 1 -7 0 -4 1 -8 0 -11 2 -22 0 0" stroke="#FFFFFF" stroke-width="20" fill="#FFFFFF" />
    <path d="M 24031 23425 l -7 -27 -6 -10 -7 -8 -7 -5 -6 -5 -7 -6 -6 -2 -7 -5 -6 -3 -7 -5 -6 -3 -7 -2 -6 -3 -7 -3 -6 -2 -7 -2 -7 -3 -6 -2 -7 0 -6 -4 -7 -2 -6 0 -7 -2 -6 -3 -7 0 -6 -3 -7 0 -6 -2 -7 0 -7 -3 -6 0 -7 0 -6 -2 -7 0 -6 0 -7 -2 -6 0 -7 0 -6 0 -7 -3 -7 0 -6 0 -7 0 -6 0 -7 0 -6 0 -7 0 -6 0 -7 0 -13 0 -7 0 -6 0 -7 0 -6 0 -7 0 -6 0 -7 0 -6 0 -7 0 -6 3 -7 0 -7 0 -6 0 -7 2 -6 0 -7 0 -6 2 -7 0 -6 0 -7 3 -6 0 -7 2 -7 0 -6 3 -7 0 -6 3 -7 2 -6 0 -7 2 -6 4 -7 0 -6 2 -7 3 -7 2 -6 2 -7 3 -6 3 -7 2 -6 3 -7 5 -6 3 -7 5 -6 2 -7 6 -7 5 -6 5 -7 8 -6 10 -6 27 6 22 6 11 7 8 6 4 7 7 7 4 6 3 7 5 6 2 7 6 6 3 7 2 6 3 7 2 6 3 7 2 7 2 6 4 7 0 6 2 7 3 6 0 7 2 6 3 7 0 6 3 7 0 7 2 6 0 7 2 6 0 7 0 6 3 7 0 6 0 7 2 6 0 7 0 7 0 6 4 7 0 6 0 7 0 6 0 7 0 6 0 7 0 6 0 7 0 13 0 7 0 6 0 7 0 6 0 7 0 6 0 7 0 6 0 7 0 7 -4 6 0 7 0 6 0 7 -2 6 0 7 0 6 -3 7 0 6 0 7 -2 7 0 6 -2 7 0 6 -3 7 0 6 -3 7 -2 6 0 7 -3 6 -2 7 0 6 -4 7 -2 7 -2 6 -3 7 -2 6 -3 7 -2 6 -3 7 -6 6 -2 7 -5 6 -3 7 -4 6 -7 7 -4 7 -8 6 -11 7 -22 0 0" stroke="#000000" stroke-width="20" fill="#000000" />
    <path d="M 23998 23424 l -6 -26 -6 -11 -6 -7 -6 -6 -5 -4 -7 -6 -5 -3 -6 -4 -6 -3 -6 -6 -6 -2 -6 -3 -6 -2 -6 -3 -5 -2 -7 -2 -5 -3 -6 -3 -6 0 -6 -3 -6 -2 -6 0 -6 -3 -6 -2 -5 0 -6 -3 -6 0 -6 -3 -6 0 -6 -2 -6 0 -6 0 -5 -2 -7 0 -5 0 -6 -3 -6 0 -6 0 -6 0 -6 -2 -6 0 -6 0 -5 0 -7 0 -5 0 -6 0 -6 0 -6 0 -6 0 -12 0 -5 0 -6 0 -6 0 -6 0 -6 0 -6 0 -6 0 -6 0 -5 0 -6 2 -6 0 -6 0 -6 0 -6 3 -6 0 -6 0 -6 2 -6 0 -6 0 -6 2 -6 0 -6 3 -5 0 -6 3 -6 0 -6 2 -5 3 -7 0 -5 2 -6 3 -6 0 -6 3 -6 3 -7 2 -5 2 -6 3 -6 2 -6 3 -6 2 -6 6 -6 3 -6 4 -5 3 -6 6 -6 4 -6 6 -6 7 -6 11 -5 26 5 23 6 11 6 7 6 5 6 6 6 5 5 3 6 4 6 3 6 5 6 3 6 3 6 3 6 2 5 2 7 3 6 2 6 3 6 0 6 2 5 4 7 0 5 2 6 2 6 0 6 3 5 0 6 3 6 0 6 2 6 0 6 0 6 2 6 0 6 0 6 3 6 0 6 0 6 0 6 3 5 0 6 0 6 0 6 0 6 0 6 0 6 0 6 0 5 0 12 0 6 0 6 0 6 0 6 0 5 0 7 0 5 0 6 0 6 0 6 -3 6 0 6 0 6 0 6 -3 5 0 7 0 5 -2 6 0 6 0 6 -2 6 0 6 -3 6 0 6 -3 5 0 6 -2 6 -2 6 0 6 -4 6 -2 6 0 6 -3 5 -2 7 -3 5 -2 6 -2 6 -3 6 -3 6 -3 6 -5 6 -3 6 -4 5 -3 7 -5 5 -6 6 -5 6 -7 6 -11 6 -23 0 0" stroke="#3C3C3C" stroke-width="20" fill="#3C3C3C" />
    <path d="M 23966 23425 l -6 -27 -5 -10 -5 -8 -5 -5 -6 -5 -5 -6 -5 -2 -5 -5 -6 -3 -5 -5 -5 -3 -5 -2 -5 -3 -6 -3 -5 -2 -5 -2 -5 -3 -5 -2 -6 0 -5 -4 -5 -2 -5 0 -6 -2 -5 -3 -5 0 -5 -3 -5 0 -6 -2 -5 0 -5 -3 -5 0 -6 0 -5 -2 -5 0 -6 0 -5 -2 -5 0 -5 0 -6 0 -5 -3 -5 0 -5 0 -5 0 -6 0 -5 0 -5 0 -5 0 -6 0 -5 0 -11 0 -5 0 -5 0 -5 0 -6 0 -5 0 -6 0 -5 0 -5 0 -5 0 -5 3 -6 0 -5 0 -5 0 -5 2 -5 0 -6 0 -5 2 -5 0 -5 0 -6 3 -5 0 -5 2 -5 0 -5 3 -6 0 -5 3 -5 2 -5 0 -6 2 -5 4 -5 0 -5 2 -5 3 -6 2 -5 2 -5 3 -6 3 -5 2 -5 3 -5 5 -6 3 -5 5 -5 2 -5 6 -6 5 -5 5 -5 8 -5 10 -5 27 5 22 5 11 5 8 5 4 6 7 5 4 5 3 5 5 6 2 5 6 5 3 5 2 6 3 5 2 5 3 6 2 5 2 5 4 5 0 5 2 6 3 5 0 5 2 5 3 6 0 5 3 5 0 5 2 5 0 6 2 5 0 5 0 5 3 6 0 5 0 5 2 5 0 5 0 6 0 5 4 5 0 5 0 5 0 6 0 5 0 6 0 5 0 5 0 5 0 11 0 5 0 6 0 5 0 5 0 5 0 6 0 5 0 5 0 5 0 5 -4 6 0 5 0 5 0 5 -2 6 0 5 0 5 -3 6 0 5 0 5 -2 5 0 6 -2 5 0 5 -3 5 0 5 -3 6 -2 5 0 5 -3 5 -2 6 0 5 -4 5 -2 5 -2 5 -3 6 -2 5 -3 5 -2 5 -3 5 -6 6 -2 5 -5 5 -3 5 -4 6 -7 5 -4 5 -8 5 -11 6 -22 0 0" stroke="#5A5A5A" stroke-width="20" fill="#5A5A5A" />
    <path d="M 23931 23425 l -5 -27 -4 -10 -5 -8 -4 -5 -5 -5 -5 -6 -4 -2 -5 -5 -4 -3 -5 -5 -4 -3 -5 -2 -4 -3 -5 -3 -5 -2 -4 -2 -5 -3 -4 -2 -5 0 -4 -4 -5 -2 -5 0 -4 -2 -5 -3 -4 0 -5 -3 -5 0 -4 -2 -5 0 -4 -3 -5 0 -5 0 -4 -2 -4 0 -5 0 -5 -2 -5 0 -4 0 -4 0 -5 -3 -5 0 -5 0 -4 0 -4 0 -5 0 -5 0 -4 0 -5 0 -4 0 -9 0 -4 0 -5 0 -5 0 -4 0 -5 0 -4 0 -5 0 -5 0 -4 0 -5 3 -4 0 -5 0 -4 0 -5 2 -5 0 -4 0 -5 2 -4 0 -5 0 -5 3 -4 0 -4 2 -5 0 -5 3 -4 0 -5 3 -4 2 -5 0 -5 2 -4 4 -5 0 -4 2 -5 3 -5 2 -4 2 -5 3 -4 3 -5 2 -5 3 -4 5 -5 3 -4 5 -5 2 -5 6 -4 5 -4 5 -5 8 -5 10 -4 27 4 22 5 11 5 8 4 4 4 7 5 4 5 3 4 5 5 2 4 6 5 3 5 2 4 3 5 2 4 3 5 2 5 2 4 4 5 0 4 2 5 3 5 0 4 2 5 3 4 0 5 3 5 0 4 2 4 0 5 2 5 0 4 0 5 3 4 0 5 0 5 2 4 0 5 0 4 0 5 4 4 0 5 0 5 0 4 0 5 0 4 0 5 0 5 0 4 0 9 0 4 0 5 0 4 0 5 0 5 0 4 0 4 0 5 0 5 0 5 -4 4 0 4 0 5 0 5 -2 5 0 4 0 4 -3 5 0 5 0 4 -2 5 0 4 -2 5 0 5 -3 4 0 5 -3 4 -2 5 0 5 -3 4 -2 5 0 4 -4 5 -2 4 -2 5 -3 5 -2 4 -3 5 -2 4 -3 5 -6 4 -2 5 -5 4 -3 5 -4 5 -7 4 -4 5 -8 4 -11 5 -22 0 0" stroke="#808080" stroke-width="20" fill="#808080" />
    <path d="M 23899 23425 l -5 -27 -4 -10 -3 -8 -5 -5 -3 -5 -4 -6 -4 -2 -4 -5 -4 -3 -4 -5 -4 -3 -4 -2 -3 -3 -5 -3 -3 -2 -4 -2 -4 -3 -4 -2 -3 0 -5 -4 -3 -2 -4 0 -4 -2 -4 -3 -4 0 -4 -3 -4 0 -4 -2 -4 0 -4 -3 -4 0 -4 0 -4 -2 -3 0 -5 0 -3 -2 -4 0 -4 0 -4 0 -4 -3 -4 0 -4 0 -4 0 -4 0 -4 0 -3 0 -5 0 -4 0 -3 0 -8 0 -4 0 -4 0 -4 0 -4 0 -4 0 -4 0 -4 0 -3 0 -5 0 -3 3 -4 0 -4 0 -4 0 -4 2 -4 0 -4 0 -4 2 -4 0 -4 0 -4 3 -4 0 -4 2 -3 0 -5 3 -3 0 -4 3 -4 2 -4 0 -4 2 -4 4 -4 0 -4 2 -4 3 -4 2 -3 2 -5 3 -3 3 -4 2 -5 3 -3 5 -4 3 -4 5 -4 2 -4 6 -4 5 -4 5 -4 8 -4 10 -3 27 3 22 4 11 4 8 4 4 4 7 4 4 4 3 4 5 4 2 3 6 5 3 4 2 3 3 5 2 3 3 4 2 4 2 4 4 4 0 4 2 4 3 4 0 4 2 4 3 3 0 5 3 3 0 4 2 4 0 4 2 4 0 4 0 4 3 4 0 4 0 4 2 4 0 4 0 4 0 3 4 5 0 3 0 4 0 4 0 4 0 4 0 4 0 4 0 4 0 8 0 3 0 4 0 5 0 3 0 4 0 4 0 4 0 4 0 4 0 4 -4 4 0 4 0 4 0 3 -2 5 0 3 0 4 -3 4 0 4 0 4 -2 4 0 4 -2 4 0 4 -3 4 0 4 -3 4 -2 4 0 3 -3 5 -2 3 0 4 -4 4 -2 4 -2 3 -3 5 -2 3 -3 4 -2 4 -3 4 -6 4 -2 4 -5 4 -3 4 -4 3 -7 5 -4 3 -8 4 -11 5 -22 0 0" stroke="#969696" stroke-width="20" fill="#969696" />
    <path d="M 23867 23425 l -3 -27 -3 -10 -4 -8 -3 -5 -3 -5 -3 -6 -4 -2 -3 -5 -3 -3 -4 -5 -3 -3 -3 -2 -3 -3 -4 -3 -3 -2 -3 -2 -3 -3 -4 -2 -3 0 -3 -4 -4 -2 -3 0 -3 -2 -3 -3 -4 0 -3 -3 -3 0 -3 -2 -4 0 -3 -3 -3 0 -4 0 -3 -2 -3 0 -3 0 -4 -2 -3 0 -3 0 -3 0 -4 -3 -3 0 -3 0 -4 0 -3 0 -3 0 -3 0 -4 0 -3 0 -3 0 -7 0 -3 0 -3 0 -4 0 -3 0 -3 0 -3 0 -4 0 -3 0 -3 0 -3 3 -4 0 -3 0 -3 0 -4 2 -3 0 -3 0 -3 2 -4 0 -3 0 -3 3 -3 0 -4 2 -3 0 -3 3 -4 0 -3 3 -3 2 -3 0 -4 2 -3 4 -3 0 -3 2 -4 3 -3 2 -3 2 -4 3 -3 3 -3 2 -3 3 -4 5 -3 3 -3 5 -3 2 -4 6 -3 5 -3 5 -4 8 -3 10 -3 27 3 22 3 11 4 8 3 4 3 7 4 4 3 3 3 5 3 2 4 6 3 3 3 2 3 3 4 2 3 3 3 2 4 2 3 4 3 0 3 2 4 3 3 0 3 2 3 3 4 0 3 3 3 0 4 2 3 0 3 2 3 0 4 0 3 3 3 0 3 0 4 2 3 0 3 0 4 0 3 4 3 0 3 0 4 0 3 0 3 0 3 0 4 0 3 0 3 0 7 0 3 0 3 0 4 0 3 0 3 0 3 0 4 0 3 0 3 0 4 -4 3 0 3 0 3 0 4 -2 3 0 3 0 3 -3 4 0 3 0 3 -2 4 0 3 -2 3 0 3 -3 4 0 3 -3 3 -2 3 0 4 -3 3 -2 3 0 4 -4 3 -2 3 -2 3 -3 4 -2 3 -3 3 -2 3 -3 4 -6 3 -2 3 -5 4 -3 3 -4 3 -7 3 -4 4 -8 3 -11 3 -22 0 0" stroke="#C0C0C0" stroke-width="20" fill="#C0C0C0" />
    <path d="M 23835 23425 l -4 -27 -2 -10 -3 -8 -2 -5 -3 -5 -3 -6 -2 -2 -3 -5 -3 -3 -2 -5 -3 -3 -2 -2 -3 -3 -3 -3 -2 -2 -3 -2 -2 -3 -3 -2 -3 0 -2 -4 -3 -2 -2 0 -3 -2 -3 -3 -2 0 -3 -3 -2 0 -3 -2 -3 0 -2 -3 -3 0 -3 0 -2 -2 -3 0 -2 0 -3 -2 -3 0 -2 0 -3 0 -2 -3 -3 0 -3 0 -2 0 -3 0 -2 0 -3 0 -3 0 -2 0 -3 0 -5 0 -3 0 -2 0 -3 0 -3 0 -2 0 -3 0 -2 0 -3 0 -3 0 -2 3 -3 0 -3 0 -3 0 -2 2 -3 0 -2 0 -3 2 -3 0 -3 0 -2 3 -3 0 -3 2 -2 0 -2 3 -3 0 -2 3 -3 2 -3 0 -2 2 -3 4 -2 0 -3 2 -3 3 -3 2 -2 2 -3 3 -3 3 -2 2 -3 3 -2 5 -3 3 -3 5 -2 2 -3 6 -3 5 -2 5 -3 8 -2 10 -2 27 2 22 2 11 3 8 2 4 3 7 3 4 2 3 3 5 3 2 2 6 3 3 2 2 3 3 3 2 2 3 3 2 3 2 3 4 2 0 3 2 2 3 3 0 3 2 2 3 3 0 2 3 2 0 3 2 3 0 2 2 3 0 3 0 3 3 2 0 3 0 2 2 3 0 3 0 3 0 2 4 3 0 3 0 2 0 3 0 2 0 3 0 3 0 2 0 3 0 5 0 3 0 2 0 3 0 3 0 2 0 3 0 2 0 3 0 3 0 2 -4 3 0 2 0 3 0 3 -2 2 0 3 0 2 -3 3 0 3 0 2 -2 3 0 3 -2 2 0 3 -3 2 0 3 -3 3 -2 2 0 3 -3 2 -2 3 0 3 -4 2 -2 3 -2 2 -3 3 -2 3 -3 2 -2 3 -3 2 -6 3 -2 3 -5 2 -3 3 -4 3 -7 2 -4 3 -8 2 -11 4 -22 0 0" stroke="#D2D2D2" stroke-width="20" fill="#D2D2D2" />
    <path d="M 23803 23425 l -3 -27 -2 -10 -2 -8 -2 -5 -2 -5 -2 -6 -1 -2 -3 -5 -2 -3 -2 -5 -1 -3 -2 -2 -2 -3 -3 -3 -1 -2 -2 -2 -2 -3 -3 -2 -2 0 -2 -4 -2 -2 -2 0 -2 -2 -2 -3 -1 0 -2 -3 -2 0 -2 -2 -2 0 -2 -3 -2 0 -1 0 -3 -2 -2 0 -2 0 -2 -2 -2 0 -2 0 -2 0 -2 -3 -2 0 -2 0 -2 0 -2 0 -2 0 -2 0 -2 0 -2 0 -2 0 -4 0 -2 0 -2 0 -1 0 -2 0 -2 0 -3 0 -1 0 -2 0 -2 0 -2 3 -2 0 -2 0 -2 0 -2 2 -2 0 -2 0 -2 2 -3 0 -2 0 -2 3 -1 0 -2 2 -2 0 -2 3 -2 0 -2 3 -2 2 -1 0 -2 2 -3 4 -2 0 -1 2 -3 3 -2 2 -2 2 -2 3 -2 3 -2 2 -2 3 -2 5 -2 3 -2 5 -2 2 -2 6 -2 5 -1 5 -2 8 -3 10 -1 27 1 22 3 11 2 8 1 4 2 7 2 4 2 3 2 5 2 2 2 6 2 3 2 2 2 3 2 2 2 3 2 2 3 2 1 4 2 0 3 2 2 3 1 0 2 2 2 3 2 0 2 3 2 0 2 2 1 0 2 2 2 0 3 0 2 3 2 0 2 0 2 2 2 0 2 0 2 0 2 4 2 0 2 0 1 0 3 0 2 0 2 0 1 0 2 0 2 0 4 0 2 0 2 0 2 0 2 0 2 0 2 0 2 0 2 0 2 0 2 -4 2 0 2 0 2 0 2 -2 2 0 2 0 3 -3 1 0 2 0 2 -2 2 0 2 -2 2 0 2 -3 1 0 2 -3 2 -2 2 0 2 -3 2 -2 2 0 3 -4 2 -2 2 -2 1 -3 3 -2 2 -3 2 -2 1 -3 2 -6 2 -2 3 -5 1 -3 2 -4 2 -7 2 -4 2 -8 2 -11 3 -22 0 0" stroke="#DEDEDE" stroke-width="20" fill="#DEDEDE" />
    <path d="M 23769 23424 l -2 -26 -1 -11 -2 -8 -1 -5 -2 -4 -1 -6 -1 -3 -1 -4 -2 -3 -1 -6 -1 -2 -1 -3 -2 -3 -1 -2 -2 -2 -1 -2 -1 -3 -1 -3 -2 0 -1 -3 -1 -2 -1 0 -2 -3 -1 -2 -1 0 -1 -3 -2 0 -1 -3 -1 0 -1 -2 -2 0 -1 0 -2 -2 -1 0 -2 0 -1 -3 -1 0 -1 0 -2 0 0 -2 -2 0 -1 0 -2 0 -1 0 -1 0 -1 0 -2 0 -1 0 -1 0 -3 0 -1 0 -2 0 -1 0 -1 0 -1 0 -2 0 -1 0 -1 0 -2 0 -1 2 -1 0 -2 0 -1 0 -1 3 -1 0 -2 0 -1 2 -2 0 -1 0 -1 2 -1 0 -2 3 -1 0 -1 3 -1 0 -1 2 -1 3 -2 0 -1 2 -2 3 -1 0 -1 3 -2 3 -1 2 -2 2 -1 2 -2 3 -1 3 0 2 -2 6 -1 3 -1 4 -1 3 -2 6 -1 4 -2 5 -1 8 -1 11 -1 26 1 22 1 11 1 8 2 5 1 6 2 5 1 2 1 5 1 3 2 5 0 3 1 2 2 3 1 3 2 2 1 2 2 3 1 2 1 0 2 3 1 3 2 0 1 3 1 2 1 0 1 3 1 0 2 2 1 0 1 3 1 0 2 0 1 2 2 0 1 0 1 2 1 0 2 0 1 0 1 4 2 0 1 0 1 0 2 0 1 0 1 0 1 0 2 0 1 0 3 0 1 0 1 0 2 0 1 0 1 0 1 0 2 0 1 0 2 0 0 -4 2 0 1 0 1 0 1 -2 2 0 1 0 2 -2 1 0 2 0 1 -3 1 0 1 -2 2 0 1 -3 1 0 1 -2 2 -3 1 0 1 -3 1 -3 2 0 1 -2 1 -3 1 -2 2 -2 1 -3 2 -3 1 -2 1 -3 1 -5 2 -3 1 -5 1 -2 1 -5 2 -6 1 -5 2 -8 1 -11 2 -22 0 0" stroke="#F0F0F0" stroke-width="20" fill="#F0F0F0" />
    <path d="M 23735 23424 l -2 -26 0 -11 -1 -8 0 -5 -1 -4 -1 -6 0 -3 -1 -4 -1 -3 0 -6 -1 -2 -1 -3 -1 -3 0 -2 -1 -2 0 -2 -1 -3 -1 -3 0 0 -1 -3 -1 -2 0 0 -1 -3 0 -2 -1 -3 -1 0 0 -3 -1 0 -1 -2 -1 0 0 0 -1 -2 -1 0 0 0 -2 -3 0 0 -1 0 0 0 0 -2 -1 0 -1 0 0 0 -1 0 -1 0 0 0 -1 0 0 0 -2 0 -1 0 0 0 -1 0 -1 0 0 0 -1 0 -1 0 0 0 -1 0 0 0 -1 2 -1 0 0 0 -1 0 -1 3 0 0 -1 0 -1 2 -1 0 0 0 -1 2 0 0 -1 3 -1 0 0 3 -1 0 -1 2 0 3 -1 0 0 2 -1 3 -1 0 0 3 -1 3 -1 2 -1 2 0 2 -1 3 -1 3 0 2 -1 6 0 3 -1 4 -1 3 0 6 -1 4 -1 5 0 8 -1 11 0 26 0 22 1 11 0 8 1 5 1 6 0 5 1 2 1 5 0 3 1 5 0 3 1 2 1 3 0 3 1 2 1 2 1 3 0 2 1 0 1 3 0 3 1 0 0 3 1 2 1 0 0 3 1 0 1 2 0 0 1 3 0 0 1 0 1 2 1 0 0 0 1 2 1 0 0 0 1 0 1 4 0 0 1 0 0 0 1 0 1 0 0 0 1 0 1 0 0 0 1 0 2 0 0 0 1 0 0 0 1 0 1 0 0 0 1 0 1 0 0 -4 0 0 1 0 0 0 2 -2 0 0 1 0 1 -2 0 0 1 0 1 -3 1 0 0 -2 1 0 1 -3 0 -2 1 -3 0 0 1 -3 1 -3 0 0 1 -2 1 -3 0 -2 1 -2 0 -3 1 -3 1 -2 1 -3 0 -5 1 -3 1 -5 0 -2 1 -5 1 -6 0 -5 1 -8 0 -11 2 -22 0 0" stroke="#FFFFFF" stroke-width="20" fill="#FFFFFF" />
    <path d="M 24031 24700 l -7 -27 -6 -10 -7 -8 -7 -6 -6 -4 -7 -6 -6 -3 -7 -4 -6 -3 -7 -6 -6 -2 -7 -2 -6 -4 -7 -2 -6 -2 -7 -3 -7 -2 -6 -3 -7 0 -6 -3 -7 -3 -6 0 -7 -2 -6 -2 -7 0 -6 -3 -7 0 -6 -3 -7 0 -7 -2 -6 0 -7 0 -6 -2 -7 0 -6 0 -7 -3 -6 0 -7 0 -6 0 -7 -2 -7 0 -6 0 -7 0 -6 0 -7 0 -6 0 -7 0 -6 0 -7 0 -13 0 -7 0 -6 0 -7 0 -6 0 -7 0 -6 0 -7 0 -6 0 -7 0 -6 2 -7 0 -7 0 -6 0 -7 3 -6 0 -7 0 -6 2 -7 0 -6 0 -7 2 -6 0 -7 3 -7 0 -6 3 -7 0 -6 2 -7 2 -6 0 -7 3 -6 3 -7 0 -6 3 -7 2 -7 3 -6 2 -7 2 -6 4 -7 2 -6 2 -7 6 -6 3 -7 4 -6 3 -7 6 -7 4 -6 6 -7 8 -6 10 -6 27 6 22 6 11 7 8 6 4 7 7 7 4 6 2 7 6 6 2 7 5 6 4 7 2 6 3 7 2 6 3 7 2 7 3 6 3 7 0 6 2 7 3 6 0 7 3 6 2 7 0 6 3 7 0 7 2 6 0 7 2 6 0 7 0 6 3 7 0 6 0 7 2 6 0 7 0 7 0 6 3 7 0 6 0 7 0 6 0 7 0 6 0 7 0 6 0 7 0 13 0 7 0 6 0 7 0 6 0 7 0 6 0 7 0 6 0 7 0 7 -3 6 0 7 0 6 0 7 -2 6 0 7 0 6 -3 7 0 6 0 7 -2 7 0 6 -2 7 0 6 -3 7 0 6 -2 7 -3 6 0 7 -3 6 -2 7 0 6 -3 7 -3 7 -2 6 -3 7 -2 6 -3 7 -2 6 -4 7 -5 6 -2 7 -6 6 -2 7 -4 6 -7 7 -4 7 -8 6 -11 7 -22 0 0" stroke="#000000" stroke-width="20" fill="#000000" />
    <path d="M 23998 24699 l -6 -26 -6 -10 -6 -8 -6 -6 -5 -5 -7 -5 -5 -3 -6 -4 -6 -3 -6 -6 -6 -2 -6 -3 -6 -3 -6 -2 -5 -3 -7 -2 -5 -2 -6 -3 -6 0 -6 -4 -6 -2 -6 0 -6 -2 -6 -3 -5 0 -6 -3 -6 0 -6 -2 -6 0 -6 -2 -6 0 -6 0 -5 -3 -7 0 -5 0 -6 -2 -6 0 -6 0 -6 0 -6 -2 -6 0 -6 0 -5 0 -7 0 -5 0 -6 0 -6 0 -6 0 -6 0 -12 0 -5 0 -6 0 -6 0 -6 0 -6 0 -6 0 -6 0 -6 0 -5 0 -6 2 -6 0 -6 0 -6 0 -6 2 -6 0 -6 0 -6 3 -6 0 -6 0 -6 2 -6 0 -6 2 -5 0 -6 3 -6 0 -6 3 -5 2 -7 0 -5 2 -6 4 -6 0 -6 3 -6 2 -7 2 -5 3 -6 2 -6 3 -6 3 -6 2 -6 6 -6 3 -6 4 -5 3 -6 5 -6 5 -6 6 -6 8 -6 10 -5 26 5 22 6 11 6 8 6 5 6 6 6 5 5 2 6 5 6 3 6 5 6 3 6 3 6 2 6 3 5 2 7 3 6 2 6 3 6 0 6 3 5 3 7 0 5 2 6 2 6 0 6 3 5 0 6 3 6 0 6 2 6 0 6 0 6 2 6 0 6 0 6 3 6 0 6 0 6 0 6 3 5 0 6 0 6 0 6 0 6 0 6 0 6 0 6 0 5 0 12 0 6 0 6 0 6 0 6 0 5 0 7 0 5 0 6 0 6 0 6 -3 6 0 6 0 6 0 6 -3 5 0 7 0 5 -2 6 0 6 0 6 -2 6 0 6 -3 6 0 6 -3 5 0 6 -2 6 -2 6 0 6 -3 6 -3 6 0 6 -3 5 -2 7 -3 5 -2 6 -3 6 -2 6 -3 6 -3 6 -5 6 -3 6 -5 5 -2 7 -5 5 -6 6 -5 6 -8 6 -11 6 -22 0 0" stroke="#3C3C3C" stroke-width="20" fill="#3C3C3C" />
    <path d="M 23966 24700 l -6 -27 -5 -10 -5 -8 -5 -6 -6 -4 -5 -6 -5 -3 -5 -4 -6 -3 -5 -6 -5 -2 -5 -2 -5 -4 -6 -2 -5 -2 -5 -3 -5 -2 -5 -3 -6 0 -5 -3 -5 -3 -5 0 -6 -2 -5 -2 -5 0 -5 -3 -5 0 -6 -3 -5 0 -5 -2 -5 0 -6 0 -5 -2 -5 0 -6 0 -5 -3 -5 0 -5 0 -6 0 -5 -2 -5 0 -5 0 -5 0 -6 0 -5 0 -5 0 -5 0 -6 0 -5 0 -11 0 -5 0 -5 0 -5 0 -6 0 -5 0 -6 0 -5 0 -5 0 -5 0 -5 2 -6 0 -5 0 -5 0 -5 3 -5 0 -6 0 -5 2 -5 0 -5 0 -6 2 -5 0 -5 3 -5 0 -5 3 -6 0 -5 2 -5 2 -5 0 -6 3 -5 3 -5 0 -5 3 -5 2 -6 3 -5 2 -5 2 -6 4 -5 2 -5 2 -5 6 -6 3 -5 4 -5 3 -5 6 -6 4 -5 6 -5 8 -5 10 -5 27 5 22 5 11 5 8 5 4 6 7 5 4 5 2 5 6 6 2 5 5 5 4 5 2 6 3 5 2 5 3 6 2 5 3 5 3 5 0 5 2 6 3 5 0 5 3 5 2 6 0 5 3 5 0 5 2 5 0 6 2 5 0 5 0 5 3 6 0 5 0 5 2 5 0 5 0 6 0 5 3 5 0 5 0 5 0 6 0 5 0 6 0 5 0 5 0 5 0 11 0 5 0 6 0 5 0 5 0 5 0 6 0 5 0 5 0 5 0 5 -3 6 0 5 0 5 0 5 -2 6 0 5 0 5 -3 6 0 5 0 5 -2 5 0 6 -2 5 0 5 -3 5 0 5 -2 6 -3 5 0 5 -3 5 -2 6 0 5 -3 5 -3 5 -2 5 -3 6 -2 5 -3 5 -2 5 -4 5 -5 6 -2 5 -6 5 -2 5 -4 6 -7 5 -4 5 -8 5 -11 6 -22 0 0" stroke="#5A5A5A" stroke-width="20" fill="#5A5A5A" />
    <path d="M 23931 24700 l -5 -27 -4 -10 -5 -8 -4 -6 -5 -4 -5 -6 -4 -3 -5 -4 -4 -3 -5 -6 -4 -2 -5 -2 -4 -4 -5 -2 -5 -2 -4 -3 -5 -2 -4 -3 -5 0 -4 -3 -5 -3 -5 0 -4 -2 -5 -2 -4 0 -5 -3 -5 0 -4 -3 -5 0 -4 -2 -5 0 -5 0 -4 -2 -4 0 -5 0 -5 -3 -5 0 -4 0 -4 0 -5 -2 -5 0 -5 0 -4 0 -4 0 -5 0 -5 0 -4 0 -5 0 -4 0 -9 0 -4 0 -5 0 -5 0 -4 0 -5 0 -4 0 -5 0 -5 0 -4 0 -5 2 -4 0 -5 0 -4 0 -5 3 -5 0 -4 0 -5 2 -4 0 -5 0 -5 2 -4 0 -4 3 -5 0 -5 3 -4 0 -5 2 -4 2 -5 0 -5 3 -4 3 -5 0 -4 3 -5 2 -5 3 -4 2 -5 2 -4 4 -5 2 -5 2 -4 6 -5 3 -4 4 -5 3 -5 6 -4 4 -4 6 -5 8 -5 10 -4 27 4 22 5 11 5 8 4 4 4 7 5 4 5 2 4 6 5 2 4 5 5 4 5 2 4 3 5 2 4 3 5 2 5 3 4 3 5 0 4 2 5 3 5 0 4 3 5 2 4 0 5 3 5 0 4 2 4 0 5 2 5 0 4 0 5 3 4 0 5 0 5 2 4 0 5 0 4 0 5 3 4 0 5 0 5 0 4 0 5 0 4 0 5 0 5 0 4 0 9 0 4 0 5 0 4 0 5 0 5 0 4 0 4 0 5 0 5 0 5 -3 4 0 4 0 5 0 5 -2 5 0 4 0 4 -3 5 0 5 0 4 -2 5 0 4 -2 5 0 5 -3 4 0 5 -2 4 -3 5 0 5 -3 4 -2 5 0 4 -3 5 -3 4 -2 5 -3 5 -2 4 -3 5 -2 4 -4 5 -5 4 -2 5 -6 4 -2 5 -4 5 -7 4 -4 5 -8 4 -11 5 -22 0 0" stroke="#808080" stroke-width="20" fill="#808080" />
    <path d="M 23899 24700 l -5 -27 -4 -10 -3 -8 -5 -6 -3 -4 -4 -6 -4 -3 -4 -4 -4 -3 -4 -6 -4 -2 -4 -2 -3 -4 -5 -2 -3 -2 -4 -3 -4 -2 -4 -3 -3 0 -5 -3 -3 -3 -4 0 -4 -2 -4 -2 -4 0 -4 -3 -4 0 -4 -3 -4 0 -4 -2 -4 0 -4 0 -4 -2 -3 0 -5 0 -3 -3 -4 0 -4 0 -4 0 -4 -2 -4 0 -4 0 -4 0 -4 0 -4 0 -3 0 -5 0 -4 0 -3 0 -8 0 -4 0 -4 0 -4 0 -4 0 -4 0 -4 0 -4 0 -3 0 -5 0 -3 2 -4 0 -4 0 -4 0 -4 3 -4 0 -4 0 -4 2 -4 0 -4 0 -4 2 -4 0 -4 3 -3 0 -5 3 -3 0 -4 2 -4 2 -4 0 -4 3 -4 3 -4 0 -4 3 -4 2 -4 3 -3 2 -5 2 -3 4 -4 2 -5 2 -3 6 -4 3 -4 4 -4 3 -4 6 -4 4 -4 6 -4 8 -4 10 -3 27 3 22 4 11 4 8 4 4 4 7 4 4 4 2 4 6 4 2 3 5 5 4 4 2 3 3 5 2 3 3 4 2 4 3 4 3 4 0 4 2 4 3 4 0 4 3 4 2 3 0 5 3 3 0 4 2 4 0 4 2 4 0 4 0 4 3 4 0 4 0 4 2 4 0 4 0 4 0 3 3 5 0 3 0 4 0 4 0 4 0 4 0 4 0 4 0 4 0 8 0 3 0 4 0 5 0 3 0 4 0 4 0 4 0 4 0 4 0 4 -3 4 0 4 0 4 0 3 -2 5 0 3 0 4 -3 4 0 4 0 4 -2 4 0 4 -2 4 0 4 -3 4 0 4 -2 4 -3 4 0 3 -3 5 -2 3 0 4 -3 4 -3 4 -2 3 -3 5 -2 3 -3 4 -2 4 -4 4 -5 4 -2 4 -6 4 -2 4 -4 3 -7 5 -4 3 -8 4 -11 5 -22 0 0" stroke="#969696" stroke-width="20" fill="#969696" />
    <path d="M 23867 24700 l -3 -27 -3 -10 -4 -8 -3 -6 -3 -4 -3 -6 -4 -3 -3 -4 -3 -3 -4 -6 -3 -2 -3 -2 -3 -4 -4 -2 -3 -2 -3 -3 -3 -2 -4 -3 -3 0 -3 -3 -4 -3 -3 0 -3 -2 -3 -2 -4 0 -3 -3 -3 0 -3 -3 -4 0 -3 -2 -3 0 -4 0 -3 -2 -3 0 -3 0 -4 -3 -3 0 -3 0 -3 0 -4 -2 -3 0 -3 0 -4 0 -3 0 -3 0 -3 0 -4 0 -3 0 -3 0 -7 0 -3 0 -3 0 -4 0 -3 0 -3 0 -3 0 -4 0 -3 0 -3 0 -3 2 -4 0 -3 0 -3 0 -4 3 -3 0 -3 0 -3 2 -4 0 -3 0 -3 2 -3 0 -4 3 -3 0 -3 3 -4 0 -3 2 -3 2 -3 0 -4 3 -3 3 -3 0 -3 3 -4 2 -3 3 -3 2 -4 2 -3 4 -3 2 -3 2 -4 6 -3 3 -3 4 -3 3 -4 6 -3 4 -3 6 -4 8 -3 10 -3 27 3 22 3 11 4 8 3 4 3 7 4 4 3 2 3 6 3 2 4 5 3 4 3 2 3 3 4 2 3 3 3 2 4 3 3 3 3 0 3 2 4 3 3 0 3 3 3 2 4 0 3 3 3 0 4 2 3 0 3 2 3 0 4 0 3 3 3 0 3 0 4 2 3 0 3 0 4 0 3 3 3 0 3 0 4 0 3 0 3 0 3 0 4 0 3 0 3 0 7 0 3 0 3 0 4 0 3 0 3 0 3 0 4 0 3 0 3 0 4 -3 3 0 3 0 3 0 4 -2 3 0 3 0 3 -3 4 0 3 0 3 -2 4 0 3 -2 3 0 3 -3 4 0 3 -2 3 -3 3 0 4 -3 3 -2 3 0 4 -3 3 -3 3 -2 3 -3 4 -2 3 -3 3 -2 3 -4 4 -5 3 -2 3 -6 4 -2 3 -4 3 -7 3 -4 4 -8 3 -11 3 -22 0 0" stroke="#C0C0C0" stroke-width="20" fill="#C0C0C0" />
    <path d="M 23835 24700 l -4 -27 -2 -10 -3 -8 -2 -6 -3 -4 -3 -6 -2 -3 -3 -4 -3 -3 -2 -6 -3 -2 -2 -2 -3 -4 -3 -2 -2 -2 -3 -3 -2 -2 -3 -3 -3 0 -2 -3 -3 -3 -2 0 -3 -2 -3 -2 -2 0 -3 -3 -2 0 -3 -3 -3 0 -2 -2 -3 0 -3 0 -2 -2 -3 0 -2 0 -3 -3 -3 0 -2 0 -3 0 -2 -2 -3 0 -3 0 -2 0 -3 0 -2 0 -3 0 -3 0 -2 0 -3 0 -5 0 -3 0 -2 0 -3 0 -3 0 -2 0 -3 0 -2 0 -3 0 -3 0 -2 2 -3 0 -3 0 -3 0 -2 3 -3 0 -2 0 -3 2 -3 0 -3 0 -2 2 -3 0 -3 3 -2 0 -2 3 -3 0 -2 2 -3 2 -3 0 -2 3 -3 3 -2 0 -3 3 -3 2 -3 3 -2 2 -3 2 -3 4 -2 2 -3 2 -2 6 -3 3 -3 4 -2 3 -3 6 -3 4 -2 6 -3 8 -2 10 -2 27 2 22 2 11 3 8 2 4 3 7 3 4 2 2 3 6 3 2 2 5 3 4 2 2 3 3 3 2 2 3 3 2 3 3 3 3 2 0 3 2 2 3 3 0 3 3 2 2 3 0 2 3 2 0 3 2 3 0 2 2 3 0 3 0 3 3 2 0 3 0 2 2 3 0 3 0 3 0 2 3 3 0 3 0 2 0 3 0 2 0 3 0 3 0 2 0 3 0 5 0 3 0 2 0 3 0 3 0 2 0 3 0 2 0 3 0 3 0 2 -3 3 0 2 0 3 0 3 -2 2 0 3 0 2 -3 3 0 3 0 2 -2 3 0 3 -2 2 0 3 -3 2 0 3 -2 3 -3 2 0 3 -3 2 -2 3 0 3 -3 2 -3 3 -2 2 -3 3 -2 3 -3 2 -2 3 -4 2 -5 3 -2 3 -6 2 -2 3 -4 3 -7 2 -4 3 -8 2 -11 4 -22 0 0" stroke="#D2D2D2" stroke-width="20" fill="#D2D2D2" />
    <path d="M 23803 24700 l -3 -27 -2 -10 -2 -8 -2 -6 -2 -4 -2 -6 -1 -3 -3 -4 -2 -3 -2 -6 -1 -2 -2 -2 -2 -4 -3 -2 -1 -2 -2 -3 -2 -2 -3 -3 -2 0 -2 -3 -2 -3 -2 0 -2 -2 -2 -2 -1 0 -2 -3 -2 0 -2 -3 -2 0 -2 -2 -2 0 -1 0 -3 -2 -2 0 -2 0 -2 -3 -2 0 -2 0 -2 0 -2 -2 -2 0 -2 0 -2 0 -2 0 -2 0 -2 0 -2 0 -2 0 -2 0 -4 0 -2 0 -2 0 -1 0 -2 0 -2 0 -3 0 -1 0 -2 0 -2 0 -2 2 -2 0 -2 0 -2 0 -2 3 -2 0 -2 0 -2 2 -3 0 -2 0 -2 2 -1 0 -2 3 -2 0 -2 3 -2 0 -2 2 -2 2 -1 0 -2 3 -3 3 -2 0 -1 3 -3 2 -2 3 -2 2 -2 2 -2 4 -2 2 -2 2 -2 6 -2 3 -2 4 -2 3 -2 6 -2 4 -1 6 -2 8 -3 10 -1 27 1 22 3 11 2 8 1 4 2 7 2 4 2 2 2 6 2 2 2 5 2 4 2 2 2 3 2 2 2 3 2 2 3 3 1 3 2 0 3 2 2 3 1 0 2 3 2 2 2 0 2 3 2 0 2 2 1 0 2 2 2 0 3 0 2 3 2 0 2 0 2 2 2 0 2 0 2 0 2 3 2 0 2 0 1 0 3 0 2 0 2 0 1 0 2 0 2 0 4 0 2 0 2 0 2 0 2 0 2 0 2 0 2 0 2 0 2 0 2 -3 2 0 2 0 2 0 2 -2 2 0 2 0 3 -3 1 0 2 0 2 -2 2 0 2 -2 2 0 2 -3 1 0 2 -2 2 -3 2 0 2 -3 2 -2 2 0 3 -3 2 -3 2 -2 1 -3 3 -2 2 -3 2 -2 1 -4 2 -5 2 -2 3 -6 1 -2 2 -4 2 -7 2 -4 2 -8 2 -11 3 -22 0 0" stroke="#DEDEDE" stroke-width="20" fill="#DEDEDE" />
    <path d="M 23769 24699 l -2 -27 -1 -10 -2 -8 -1 -5 -2 -5 -1 -6 -1 -2 -1 -5 -2 -3 -1 -5 -1 -3 -1 -2 -2 -3 -1 -2 -2 -3 -1 -2 -1 -2 -1 -3 -2 0 -1 -4 -1 -2 -1 0 -2 -2 -1 -3 -1 0 -1 -3 -2 0 -1 -2 -1 0 -1 -2 -2 0 -1 0 -2 -3 -1 0 -2 0 -1 -2 -1 0 -1 0 -2 0 0 -2 -2 0 -1 0 -2 0 -1 0 -1 0 -1 0 -2 0 -1 0 -1 0 -3 0 -1 0 -2 0 -1 0 -1 0 -1 0 -2 0 -1 0 -1 0 -2 0 -1 2 -1 0 -2 0 -1 0 -1 2 -1 0 -2 0 -1 3 -2 0 -1 0 -1 2 -1 0 -2 2 -1 0 -1 3 -1 0 -1 3 -1 2 -2 0 -1 2 -2 4 -1 0 -1 3 -2 2 -1 2 -2 3 -1 2 -2 3 -1 2 0 3 -2 5 -1 3 -1 5 -1 2 -2 6 -1 5 -2 5 -1 8 -1 10 -1 27 1 22 1 11 1 8 2 4 1 7 2 4 1 3 1 5 1 2 2 6 0 3 1 2 2 3 1 3 2 2 1 2 2 2 1 3 1 0 2 3 1 3 2 0 1 2 1 3 1 0 1 3 1 0 2 2 1 0 1 3 1 0 2 0 1 2 2 0 1 0 1 2 1 0 2 0 1 0 1 4 2 0 1 0 1 0 2 0 1 0 1 0 1 0 2 0 1 0 3 0 1 0 1 0 2 0 1 0 1 0 1 0 2 0 1 0 2 0 0 -4 2 0 1 0 1 0 1 -2 2 0 1 0 2 -2 1 0 2 0 1 -3 1 0 1 -2 2 0 1 -3 1 0 1 -3 2 -2 1 0 1 -3 1 -3 2 0 1 -3 1 -2 1 -2 2 -2 1 -3 2 -3 1 -2 1 -3 1 -6 2 -2 1 -5 1 -3 1 -4 2 -7 1 -4 2 -8 1 -11 2 -22 0 0" stroke="#F0F0F0" stroke-width="20" fill="#F0F0F0" />
    <path d="M 23735 24699 l -2 -27 0 -10 -1 -8 0 -5 -1 -5 -1 -6 0 -2 -1 -5 -1 -3 0 -5 -1 -3 -1 -2 -1 -3 0 -2 -1 -3 0 -2 -1 -2 -1 -3 0 0 -1 -4 -1 -2 0 0 -1 -2 0 -3 -1 -3 -1 0 0 -2 -1 0 -1 -2 -1 0 0 0 -1 -3 -1 0 0 0 -2 -2 0 0 -1 0 0 0 0 -2 -1 0 -1 0 0 0 -1 0 -1 0 0 0 -1 0 0 0 -2 0 -1 0 0 0 -1 0 -1 0 0 0 -1 0 -1 0 0 0 -1 0 0 0 -1 2 -1 0 0 0 -1 0 -1 2 0 0 -1 0 -1 3 -1 0 0 0 -1 2 0 0 -1 2 -1 0 0 3 -1 0 -1 3 0 2 -1 0 0 2 -1 4 -1 0 0 3 -1 2 -1 2 -1 3 0 2 -1 3 -1 2 0 3 -1 5 0 3 -1 5 -1 2 0 6 -1 5 -1 5 0 8 -1 10 0 27 0 22 1 11 0 8 1 4 1 7 0 4 1 3 1 5 0 2 1 6 0 3 1 2 1 3 0 3 1 2 1 2 1 2 0 3 1 0 1 3 0 3 1 0 0 2 1 3 1 0 0 3 1 0 1 2 0 0 1 3 0 0 1 0 1 2 1 0 0 0 1 2 1 0 0 0 1 0 1 4 0 0 1 0 0 0 1 0 1 0 0 0 1 0 1 0 0 0 1 0 2 0 0 0 1 0 0 0 1 0 1 0 0 0 1 0 1 0 0 -4 0 0 1 0 0 0 2 -2 0 0 1 0 1 -2 0 0 1 0 1 -3 1 0 0 -2 1 0 1 -3 0 -3 1 -2 0 0 1 -3 1 -3 0 0 1 -3 1 -2 0 -2 1 -2 0 -3 1 -3 1 -2 1 -3 0 -6 1 -2 1 -5 0 -3 1 -4 1 -7 0 -4 1 -8 0 -11 2 -22 0 0" stroke="#FFFFFF" stroke-width="20" fill="#FFFFFF" />
    <path d="M 23570 23424 l 34 0 0 1271 -34 0 0 -1271 0 0" stroke="#D2D2D2" stroke-width="20" fill="#D2D2D2" />
    <path d="M 23637 23425 l 34 0 0 1272 -34 0 0 -1272 0 0" stroke="#F0F0F0" stroke-width="20" fill="#F0F0F0" />
    <path d="M 23604 23425 l 34 0 0 1272 -34 0 0 -1272 0 0" stroke="#DEDEDE" stroke-width="20" fill="#DEDEDE" />
    <path d="M 23669 23425 l 35 0 0 1272 -35 0 0 -1272 0 0" stroke="#FFFFFF" stroke-width="20" fill="#FFFFFF" />
    <path d="M 23377 23425 l 33 0 0 1272 -33 0 0 -1272 0 0" stroke="#000000" stroke-width="20" fill="#000000" />
    <path d="M 23408 23425 l 34 0 0 1272 -34 0 0 -1272 0 0" stroke="#3C3C3C" stroke-width="20" fill="#3C3C3C" />
    <path d="M 23441 23425 l 34 0 0 1272 -34 0 0 -1272 0 0" stroke="#5A5A5A" stroke-width="20" fill="#5A5A5A" />
    <path d="M 23474 23425 l 33 0 0 1272 -33 0 0 -1272 0 0" stroke="#808080" stroke-width="20" fill="#808080" />
    <path d="M 23506 23425 l 34 0 0 1272 -34 0 0 -1272 0 0" stroke="#969696" stroke-width="20" fill="#969696" />
    <path d="M 23539 23425 l 34 0 0 1272 -34 0 0 -1272 0 0" stroke="#C0C0C0" stroke-width="20" fill="#C0C0C0" />
    <path d="M 23836 23425 l -34 0 0 1272 34 0 0 -1272 0 0" stroke="#D2D2D2" stroke-width="20" fill="#D2D2D2" />
    <path d="M 23769 23426 l -34 0 0 1273 34 0 0 -1273 0 0" stroke="#F0F0F0" stroke-width="20" fill="#F0F0F0" />
    <path d="M 23802 23426 l -34 0 0 1273 34 0 0 -1273 0 0" stroke="#DEDEDE" stroke-width="20" fill="#DEDEDE" />
    <path d="M 23736 23426 l -34 0 0 1273 34 0 0 -1273 0 0" stroke="#FFFFFF" stroke-width="20" fill="#FFFFFF" />
    <path d="M 24031 23426 l -35 0 0 1273 35 0 0 -1273 0 0" stroke="#000000" stroke-width="20" fill="#000000" />
    <path d="M 23998 23426 l -34 0 0 1273 34 0 0 -1273 0 0" stroke="#3C3C3C" stroke-width="20" fill="#3C3C3C" />
    <path d="M 23965 23426 l -34 0 0 1273 34 0 0 -1273 0 0" stroke="#5A5A5A" stroke-width="20" fill="#5A5A5A" />
    <path d="M 23933 23426 l -35 0 0 1273 35 0 0 -1273 0 0" stroke="#808080" stroke-width="20" fill="#808080" />
    <path d="M 23900 23426 l -34 0 0 1273 34 0 0 -1273 0 0" stroke="#969696" stroke-width="20" fill="#969696" />
    <path d="M 23867 23426 l -34 0 0 1273 34 0 0 -1273 0 0" stroke="#C0C0C0" stroke-width="20" fill="#C0C0C0" />
  </g>
  <rect x="23360" y="23580" width="660" height="980" stroke="#000000" stroke-width="20" fill="none" />
  <path d="M 23360 24080 l 360 0" stroke="#000000" stroke-width="20" fill="none" />
  <path d="M 23640 23840 l 360 0" stroke="#000000" stroke-width="20" fill="none" />
  <path d="M 23640 24320 l 360 0" stroke="#000000" stroke-width="20" fill="none" />
  <path id="POLYGON712" d="M 23680 24880 l 0 940" stroke="#000000" stroke-width="80" fill="none" />
  <path id="POLYGON713" d="M 19980 17240 l 0 8620" stroke="#000000" stroke-width="40" fill="none" />
  <g id="TEXT106">
    <rect x="2540" y="17180" width="1600" height="620" stroke-width="0" fill="none" id="TEXT106_pbTextBoundingRectEl" />
    <text fill="#000000" font-family="Helvetica" font-size="560" text-anchor="middle" x="3340" y="17770" id="TEXT106_pbTextEl">生产水</text>
  </g>
  <g id="TEXT107">
    <rect x="2540" y="18560" width="1600" height="620" stroke-width="0" fill="none" id="TEXT107_pbTextBoundingRectEl" />
    <text fill="#000000" font-family="Helvetica" font-size="560" text-anchor="middle" x="3340" y="19150" id="TEXT107_pbTextEl">循环水</text>
  </g>
  <g id="TEXT108">
    <rect x="2540" y="20140" width="1600" height="620" stroke-width="0" fill="none" id="TEXT108_pbTextBoundingRectEl" />
    <text fill="#000000" font-family="Helvetica" font-size="560" text-anchor="middle" x="3340" y="20730" id="TEXT108_pbTextEl">循环水</text>
  </g>
  <path id="POLYGON716" d="M 55380 16980 l 0 -12120" stroke="#80FFFF" stroke-width="40" fill="none" />
  <rect x="54720" y="7000" width="1340" height="2140" stroke="#000000" stroke-width="20" fill="#C0C0C0" />
  <path d="M 54720 8100 l 660 0" stroke="#000000" stroke-width="20" fill="none" />
  <path d="M 55240 7580 l 700 0" stroke="#000000" stroke-width="20" fill="none" />
  <path d="M 55240 8640 l 700 0" stroke="#000000" stroke-width="20" fill="none" />
  <g id="TEXT109">
    <rect x="57360" y="11420" width="4120" height="620" stroke-width="0" fill="none" id="TEXT109_pbTextBoundingRectEl" />
    <text fill="#000000" font-family="Helvetica" font-size="560" text-anchor="middle" x="59420" y="12010" id="TEXT109_pbTextEl">590-UVT1002A</text>
  </g>
  <g id="TEXT110">
    <rect x="57840" y="18820" width="3740" height="620" stroke-width="0" fill="none" id="TEXT110_pbTextBoundingRectEl" />
    <text fill="#000000" font-family="Helvetica" font-size="560" text-anchor="middle" x="59710" y="19410" id="TEXT110_pbTextEl">590-PI1004A</text>
  </g>
  <g id="TEXT111">
    <rect x="56300" y="7700" width="4060" height="620" stroke-width="0" fill="none" id="TEXT111_pbTextBoundingRectEl" />
    <text fill="#000000" font-family="Helvetica" font-size="560" text-anchor="middle" x="58330" y="8290" id="TEXT111_pbTextEl">5900-SIL-001A</text>
  </g>
  <g id="TEXT112">
    <rect x="59340" y="16140" width="4160" height="620" stroke-width="0" fill="none" id="TEXT112_pbTextBoundingRectEl" />
    <text fill="#000000" font-family="Helvetica" font-size="560" text-anchor="middle" x="61420" y="16730" id="TEXT112_pbTextEl">装置空气缓冲罐</text>
  </g>
  <g id="TEXT113">
    <rect x="35240" y="27940" width="1780" height="620" stroke-width="0" fill="none" id="TEXT113_pbTextBoundingRectEl" />
    <text fill="#000000" font-family="Helvetica" font-size="560" text-anchor="middle" x="36130" y="28530" id="TEXT113_pbTextEl">辅油泵</text>
  </g>
  <g id="TEXT114">
    <rect x="30820" y="27940" width="1780" height="620" stroke-width="0" fill="none" id="TEXT114_pbTextBoundingRectEl" />
    <text fill="#000000" font-family="Helvetica" font-size="560" text-anchor="middle" x="31710" y="28530" id="TEXT114_pbTextEl">轴头泵</text>
  </g>
  <path id="ELLIPSE63" d="M 14664 27140 l -44 -13 -28 -14 -22 -13 -17 -13 -16 -14 -13 -13 -11 -13 -10 -14 -9 -13 -8 -13 -7 -14 -5 -13 -5 -13 -5 -14 -3 -13 -3 -13 -2 -14 -1 -13 -1 -13 0 -14 1 -13 1 -13 2 -14 3 -13 3 -13 5 -14 5 -13 5 -13 7 -14 8 -13 9 -13 10 -14 11 -13 13 -13 16 -14 17 -13 22 -13 28 -14 44 -13 112 0 44 13 28 14 22 13 17 13 16 14 13 13 11 13 10 14 9 13 8 13 7 14 5 13 5 13 5 14 3 13 3 13 2 14 1 13 1 13 0 14 -1 13 -1 13 -2 14 -3 13 -3 13 -5 14 -5 13 -5 13 -7 14 -8 13 -9 13 -10 14 -11 13 -13 13 -16 14 -17 13 -22 13 -28 14 -44 13 -112 0" stroke="#FF0000" stroke-width="20" fill="#FF0000" />
  <g id="TEXT115">
    <rect x="9560" y="26520" width="4720" height="620" stroke-width="0" fill="none" id="TEXT115_pbTextBoundingRectEl" />
    <text fill="#000000" font-family="Helvetica" font-size="560" text-anchor="middle" x="11920" y="27110" id="TEXT115_pbTextEl">1#空压机紧急停机</text>
  </g>
  <g id="TEXT116">
    <rect x="1160" y="2300" width="1600" height="620" stroke-width="0" fill="none" id="TEXT116_pbTextBoundingRectEl" />
    <text fill="#000000" font-family="Helvetica" font-size="560" text-anchor="middle" x="1960" y="2890" id="TEXT116_pbTextEl">密封气</text>
  </g>
  <g id="TEXT117">
    <rect x="1160" y="3880" width="1600" height="620" stroke-width="0" fill="none" id="TEXT117_pbTextBoundingRectEl" />
    <text fill="#000000" font-family="Helvetica" font-size="560" text-anchor="middle" x="1960" y="4470" id="TEXT117_pbTextEl">吹扫气</text>
  </g>
  <g id="TEXT118">
    <rect x="3440" y="6520" width="3740" height="620" stroke-width="0" fill="none" id="TEXT118_pbTextBoundingRectEl" />
    <text fill="#000000" font-family="Helvetica" font-size="560" text-anchor="middle" x="5310" y="7110" id="TEXT118_pbTextEl">5900-AF-001A</text>
  </g>
  <g id="TEXT119">
    <rect x="5240" y="9260" width="3740" height="620" stroke-width="0" fill="none" id="TEXT119_pbTextBoundingRectEl" />
    <text fill="#000000" font-family="Helvetica" font-size="560" text-anchor="middle" x="7110" y="9850" id="TEXT119_pbTextEl">590-TI1003A</text>
  </g>
  <g id="TEXT120">
    <rect x="980" y="11720" width="3740" height="620" stroke-width="0" fill="none" id="TEXT120_pbTextBoundingRectEl" />
    <text fill="#000000" font-family="Helvetica" font-size="560" text-anchor="middle" x="2850" y="12310" id="TEXT120_pbTextEl">590-EI1001A</text>
  </g>
  <g id="TEXT121">
    <rect x="3740" y="14480" width="3740" height="620" stroke-width="0" fill="none" id="TEXT121_pbTextBoundingRectEl" />
    <text fill="#000000" font-family="Helvetica" font-size="560" text-anchor="middle" x="5610" y="15070" id="TEXT121_pbTextEl">590-TI1001A</text>
  </g>
  <g id="TEXT122">
    <rect x="7720" y="14540" width="3740" height="620" stroke-width="0" fill="none" id="TEXT122_pbTextBoundingRectEl" />
    <text fill="#000000" font-family="Helvetica" font-size="560" text-anchor="middle" x="9590" y="15130" id="TEXT122_pbTextEl">590-TI1002A</text>
  </g>
  <path id="POLYGON729" d="M 6660 10300 l 0 900" stroke="#000000" stroke-width="20" stroke-dasharray="60,60" fill="none" />
  <path id="POLYGON730" d="M 5380 12440 l 0 2260" stroke="#000000" stroke-width="20" stroke-dasharray="60,60" fill="none" />
  <path id="POLYGON731" d="M 9220 12480 l 0 2300" stroke="#000000" stroke-width="20" stroke-dasharray="60,60" fill="none" />
  <path id="POLYGON732" d="M 46280 11620 l 4980 0" stroke="#000000" stroke-width="20" stroke-dasharray="60,60" fill="none" />
  <path id="LINE732" d="M 46220 14800 l 4980 0" stroke="#000000" stroke-width="20" stroke-dasharray="60,60" fill="none" />
  <path id="POLYGON733" d="M 55960 11980 l 1620 0" stroke="#000000" stroke-width="20" stroke-dasharray="60,60" fill="none" />
  <path id="POLYGON734" d="M 59660 17140 l 0 1800" stroke="#000000" stroke-width="20" stroke-dasharray="60,60" fill="none" />
  <g name="DownArrow">
    <path d="M 55587 4862 l -534 0 267 -454 267 454 0 0" stroke="#000000" stroke-width="20" fill="#80FFFF" />
  </g>
  <g id="TEXT123">
    <rect x="29240" y="220" width="7020" height="1880" stroke-width="0" fill="none" id="TEXT123_pbTextBoundingRectEl" />
    <text fill="#000000" font-family="Helvetica" font-size="800" text-anchor="middle" x="32750" y="1560" id="TEXT123_pbTextEl">空压机A</text>
  </g>
  <g id="DATAPOINT295" PB:IsMultiState="False" PBD:PtTagName="\\RTDBB\590_PDT_AM001A" PB:Type="7" PB:NumberFormat="0.00">
    <rect x="7420" y="4620" width="1160" height="420" stroke-width="0" fill="none" id="DATAPOINT295_pbTextBoundingRectEl" />
    <text fill="#000000" font-family="Helvetica" font-size="560" text-anchor="middle" x="8000" y="5110" id="DATAPOINT295_pbTextEl" PBD:Property="VAL">#.##</text>
  </g>
  <g id="DATAPOINT296" PB:IsMultiState="False" PBD:PtTagName="\\RTDBB\590_TI1003A" PB:Type="7" PB:NumberFormat="0.00">
    <rect x="6140" y="10000" width="1160" height="420" stroke-width="0" fill="none" id="DATAPOINT296_pbTextBoundingRectEl" />
    <text fill="#000000" font-family="Helvetica" font-size="560" text-anchor="middle" x="6720" y="10490" id="DATAPOINT296_pbTextEl" PBD:Property="VAL">#.##</text>
  </g>
  <g id="DATAPOINT297" PB:IsMultiState="False" PBD:PtTagName="\\RTDBB\590_EI1001A" PB:Type="7" PB:NumberFormat="0.00">
    <rect x="2220" y="12440" width="1160" height="420" stroke-width="0" fill="none" id="DATAPOINT297_pbTextBoundingRectEl" />
    <text fill="#000000" font-family="Helvetica" font-size="560" text-anchor="middle" x="2800" y="12930" id="DATAPOINT297_pbTextEl" PBD:Property="VAL">#.##</text>
  </g>
  <g id="DATAPOINT298" PB:IsMultiState="False" PBD:PtTagName="\\RTDBB\590_TI1001A" PB:Type="7" PB:NumberFormat="0.00">
    <rect x="4980" y="15180" width="1160" height="420" stroke-width="0" fill="none" id="DATAPOINT298_pbTextBoundingRectEl" />
    <text fill="#000000" font-family="Helvetica" font-size="560" text-anchor="middle" x="5560" y="15670" id="DATAPOINT298_pbTextEl" PBD:Property="VAL">#.##</text>
  </g>
  <g id="DATAPOINT299" PB:IsMultiState="False" PBD:PtTagName="\\RTDBB\590_TI1002A" PB:Type="7" PB:NumberFormat="0.00">
    <rect x="8960" y="15240" width="1160" height="520" stroke-width="0" fill="none" id="DATAPOINT299_pbTextBoundingRectEl" />
    <text fill="#000000" font-family="Helvetica" font-size="560" text-anchor="middle" x="9540" y="15780" id="DATAPOINT299_pbTextEl" PBD:Property="VAL">#.##</text>
  </g>
  <g id="DATAPOINT300" PB:IsMultiState="False" PBD:PtTagName="\\RTDBB\590_IGV1001A" PB:Type="7" PB:NumberFormat="0.00">
    <rect x="15260" y="6980" width="1160" height="420" stroke-width="0" fill="none" id="DATAPOINT300_pbTextBoundingRectEl" />
    <text fill="#000000" font-family="Helvetica" font-size="560" text-anchor="middle" x="15840" y="7470" id="DATAPOINT300_pbTextEl" PBD:Property="VAL">#.##</text>
  </g>
  <g id="DATAPOINT301" PB:IsMultiState="False" PBD:PtTagName="\\RTDBB\590_VI1001A" PB:Type="7" PB:NumberFormat="0.00">
    <rect x="17820" y="10820" width="1160" height="420" stroke-width="0" fill="none" id="DATAPOINT301_pbTextBoundingRectEl" />
    <text fill="#000000" font-family="Helvetica" font-size="560" text-anchor="middle" x="18400" y="11310" id="DATAPOINT301_pbTextEl" PBD:Property="VAL">#.##</text>
  </g>
  <g id="DATAPOINT302" PB:IsMultiState="False" PBD:PtTagName="\\RTDBB\590_PI1001A" PB:Type="7" PB:NumberFormat="0.00">
    <rect x="15380" y="18660" width="1160" height="420" stroke-width="0" fill="none" id="DATAPOINT302_pbTextBoundingRectEl" />
    <text fill="#000000" font-family="Helvetica" font-size="560" text-anchor="middle" x="15960" y="19150" id="DATAPOINT302_pbTextEl" PBD:Property="VAL">#.##</text>
  </g>
  <g id="DATAPOINT303" PB:IsMultiState="False" PBD:PtTagName="\\RTDBB\590_TI1004A" PB:Type="7" PB:NumberFormat="0.00">
    <rect x="21180" y="18680" width="1160" height="420" stroke-width="0" fill="none" id="DATAPOINT303_pbTextBoundingRectEl" />
    <text fill="#000000" font-family="Helvetica" font-size="560" text-anchor="middle" x="21760" y="19170" id="DATAPOINT303_pbTextEl" PBD:Property="VAL">#.##</text>
  </g>
  <g id="DATAPOINT304" PB:IsMultiState="False" PBD:PtTagName="\\RTDBB\590_PI1002A" PB:Type="7" PB:NumberFormat="0.00">
    <rect x="26400" y="18640" width="1160" height="420" stroke-width="0" fill="none" id="DATAPOINT304_pbTextBoundingRectEl" />
    <text fill="#000000" font-family="Helvetica" font-size="560" text-anchor="middle" x="26980" y="19130" id="DATAPOINT304_pbTextEl" PBD:Property="VAL">#.##</text>
  </g>
  <g id="DATAPOINT305" PB:IsMultiState="False" PBD:PtTagName="\\RTDBB\590_VI1002A" PB:Type="7" PB:NumberFormat="0.00">
    <rect x="29580" y="10800" width="1160" height="420" stroke-width="0" fill="none" id="DATAPOINT305_pbTextBoundingRectEl" />
    <text fill="#000000" font-family="Helvetica" font-size="560" text-anchor="middle" x="30160" y="11290" id="DATAPOINT305_pbTextEl" PBD:Property="VAL">#.##</text>
  </g>
  <g id="DATAPOINT306" PB:IsMultiState="False" PBD:PtTagName="\\RTDBB\590_TI1005A" PB:Type="7" PB:NumberFormat="0.00">
    <rect x="32280" y="18700" width="1160" height="420" stroke-width="0" fill="none" id="DATAPOINT306_pbTextBoundingRectEl" />
    <text fill="#000000" font-family="Helvetica" font-size="560" text-anchor="middle" x="32860" y="19190" id="DATAPOINT306_pbTextEl" PBD:Property="VAL">#.##</text>
  </g>
  <g id="DATAPOINT307" PB:IsMultiState="False" PBD:PtTagName="\\RTDBB\590_TI1007A" PB:Type="7" PB:NumberFormat="0.00">
    <rect x="43720" y="11620" width="1160" height="420" stroke-width="0" fill="none" id="DATAPOINT307_pbTextBoundingRectEl" />
    <text fill="#000000" font-family="Helvetica" font-size="560" text-anchor="middle" x="44300" y="12110" id="DATAPOINT307_pbTextEl" PBD:Property="VAL">#.##</text>
  </g>
  <g id="DATAPOINT308" PB:IsMultiState="False" PBD:PtTagName="\\RTDBB\590_PI1005A" PB:Type="7" PB:NumberFormat="0.00">
    <rect x="43620" y="14780" width="1160" height="420" stroke-width="0" fill="none" id="DATAPOINT308_pbTextBoundingRectEl" />
    <text fill="#000000" font-family="Helvetica" font-size="560" text-anchor="middle" x="44200" y="15270" id="DATAPOINT308_pbTextEl" PBD:Property="VAL">#.##</text>
  </g>
  <g id="DATAPOINT309" PB:IsMultiState="False" PBD:PtTagName="\\RTDBB\590_PI1003A" PB:Type="7" PB:NumberFormat="0.00">
    <rect x="37780" y="18700" width="1160" height="420" stroke-width="0" fill="none" id="DATAPOINT309_pbTextBoundingRectEl" />
    <text fill="#000000" font-family="Helvetica" font-size="560" text-anchor="middle" x="38360" y="19190" id="DATAPOINT309_pbTextEl" PBD:Property="VAL">#.##</text>
  </g>
  <g id="DATAPOINT310" PB:IsMultiState="False" PBD:PtTagName="\\RTDBB\590_TI1006A" PB:Type="7" PB:NumberFormat="0.00">
    <rect x="43760" y="18620" width="1160" height="420" stroke-width="0" fill="none" id="DATAPOINT310_pbTextBoundingRectEl" />
    <text fill="#000000" font-family="Helvetica" font-size="560" text-anchor="middle" x="44340" y="19110" id="DATAPOINT310_pbTextEl" PBD:Property="VAL">#.##</text>
  </g>
  <g id="DATAPOINT311" PB:IsMultiState="False" PBD:PtTagName="\\RTDBB\590_PV1002A" PB:Type="7" PB:NumberFormat="0.00">
    <rect x="58560" y="12040" width="1160" height="420" stroke-width="0" fill="none" id="DATAPOINT311_pbTextBoundingRectEl" />
    <text fill="#000000" font-family="Helvetica" font-size="560" text-anchor="middle" x="59140" y="12530" id="DATAPOINT311_pbTextEl" PBD:Property="VAL">#.##</text>
  </g>
  <g id="DATAPOINT312" PB:IsMultiState="False" PBD:PtTagName="\\RTDBB\590_PI1004A" PB:Type="7" PB:NumberFormat="0.00">
    <rect x="59180" y="19480" width="1160" height="420" stroke-width="0" fill="none" id="DATAPOINT312_pbTextBoundingRectEl" />
    <text fill="#000000" font-family="Helvetica" font-size="560" text-anchor="middle" x="59760" y="19970" id="DATAPOINT312_pbTextEl" PBD:Property="VAL">#.##</text>
  </g>
  <g name="Valve1">
    <path d="M 55630 11998 l 0 -310 0 0 26 2 26 6 26 5 26 10 22 13 23 16 20 19 19 21 16 21 15 25 13 25 13 27 10 28 5 29 4 31 2 32 0 0 -2 33 -4 30 -5 29 -10 29 -13 26 -13 27 -15 23 -16 23 -19 21 -20 16 -23 17 -22 11 -26 14 -26 5 -26 6 -26 2 0 -312" stroke="#000000" stroke-width="20" fill="#FF0000" />
    <path d="M 55152 11621 l 333 0 -333 760 333 0 -333 -760" stroke="#000000" stroke-width="20" fill="#FF0000" />
    <path d="M 55319 11998 l 19 44 290 0 0 -84 -290 0 -19 44 0 -4" stroke="#000000" stroke-width="20" fill="#FF0000" />
  </g>
  <g id="TEXT273">
    <rect x="9240" y="4540" width="1300" height="580" stroke-width="0" fill="none" id="TEXT273_pbTextBoundingRectEl" />
    <text fill="#000000" font-family="Helvetica" font-size="560" text-anchor="middle" x="9890" y="5110" id="TEXT273_pbTextEl">Pa</text>
  </g>
  <g id="TEXT274">
    <rect x="7940" y="9900" width="660" height="720" stroke-width="0" fill="none" id="TEXT274_pbTextBoundingRectEl" />
    <text fill="#000000" font-family="Helvetica" font-size="560" text-anchor="middle" x="8270" y="10540" id="TEXT274_pbTextEl">℃</text>
  </g>
  <g id="TEXT275">
    <rect x="3840" y="12480" width="580" height="540" stroke-width="0" fill="none" id="TEXT275_pbTextBoundingRectEl" />
    <text fill="#000000" font-family="Helvetica" font-size="560" text-anchor="middle" x="4130" y="13030" id="TEXT275_pbTextEl">A</text>
  </g>
  <g id="TEXT276">
    <rect x="6460" y="15120" width="660" height="720" stroke-width="0" fill="none" id="TEXT276_pbTextBoundingRectEl" />
    <text fill="#000000" font-family="Helvetica" font-size="560" text-anchor="middle" x="6790" y="15760" id="TEXT276_pbTextEl">℃</text>
  </g>
  <g id="TEXT277">
    <rect x="10680" y="15120" width="660" height="720" stroke-width="0" fill="none" id="TEXT277_pbTextBoundingRectEl" />
    <text fill="#000000" font-family="Helvetica" font-size="560" text-anchor="middle" x="11010" y="15760" id="TEXT277_pbTextEl">℃</text>
  </g>
  <g id="TEXT278">
    <rect x="17360" y="6900" width="580" height="540" stroke-width="0" fill="none" id="TEXT278_pbTextBoundingRectEl" />
    <text fill="#000000" font-family="Helvetica" font-size="560" text-anchor="middle" x="17650" y="7450" id="TEXT278_pbTextEl">%</text>
  </g>
  <g id="TEXT279">
    <rect x="19120" y="10680" width="1880" height="640" stroke-width="0" fill="none" id="TEXT279_pbTextBoundingRectEl" />
    <text fill="#000000" font-family="Helvetica" font-size="560" text-anchor="middle" x="20060" y="11280" id="TEXT279_pbTextEl">μm</text>
  </g>
  <g id="TEXT280">
    <rect x="31000" y="10620" width="1880" height="640" stroke-width="0" fill="none" id="TEXT280_pbTextBoundingRectEl" />
    <text fill="#000000" font-family="Helvetica" font-size="560" text-anchor="middle" x="31940" y="11220" id="TEXT280_pbTextEl">μm</text>
  </g>
  <g id="TEXT281">
    <rect x="45320" y="11400" width="660" height="720" stroke-width="0" fill="none" id="TEXT281_pbTextBoundingRectEl" />
    <text fill="#000000" font-family="Helvetica" font-size="560" text-anchor="middle" x="45650" y="12040" id="TEXT281_pbTextEl">℃</text>
  </g>
  <g id="TEXT282">
    <rect x="45240" y="14780" width="1300" height="580" stroke-width="0" fill="none" id="TEXT282_pbTextBoundingRectEl" />
    <text fill="#000000" font-family="Helvetica" font-size="560" text-anchor="middle" x="45890" y="15350" id="TEXT282_pbTextEl">KPa</text>
  </g>
  <g id="TEXT283">
    <rect x="60260" y="12080" width="580" height="540" stroke-width="0" fill="none" id="TEXT283_pbTextBoundingRectEl" />
    <text fill="#000000" font-family="Helvetica" font-size="560" text-anchor="middle" x="60550" y="12630" id="TEXT283_pbTextEl">%</text>
  </g>
  <g id="TEXT284">
    <rect x="17040" y="18580" width="1300" height="580" stroke-width="0" fill="none" id="TEXT284_pbTextBoundingRectEl" />
    <text fill="#000000" font-family="Helvetica" font-size="560" text-anchor="middle" x="17690" y="19150" id="TEXT284_pbTextEl">KPa</text>
  </g>
  <g id="TEXT285">
    <rect x="22840" y="18560" width="660" height="720" stroke-width="0" fill="none" id="TEXT285_pbTextBoundingRectEl" />
    <text fill="#000000" font-family="Helvetica" font-size="560" text-anchor="middle" x="23170" y="19200" id="TEXT285_pbTextEl">℃</text>
  </g>
  <g id="TEXT286">
    <rect x="27780" y="18620" width="1300" height="580" stroke-width="0" fill="none" id="TEXT286_pbTextBoundingRectEl" />
    <text fill="#000000" font-family="Helvetica" font-size="560" text-anchor="middle" x="28430" y="19190" id="TEXT286_pbTextEl">KPa</text>
  </g>
  <g id="TEXT287">
    <rect x="33800" y="18520" width="660" height="720" stroke-width="0" fill="none" id="TEXT287_pbTextBoundingRectEl" />
    <text fill="#000000" font-family="Helvetica" font-size="560" text-anchor="middle" x="34130" y="19160" id="TEXT287_pbTextEl">℃</text>
  </g>
  <g id="TEXT288">
    <rect x="39200" y="18580" width="1300" height="580" stroke-width="0" fill="none" id="TEXT288_pbTextBoundingRectEl" />
    <text fill="#000000" font-family="Helvetica" font-size="560" text-anchor="middle" x="39850" y="19150" id="TEXT288_pbTextEl">KPa</text>
  </g>
  <g id="TEXT289">
    <rect x="45280" y="18560" width="660" height="720" stroke-width="0" fill="none" id="TEXT289_pbTextBoundingRectEl" />
    <text fill="#000000" font-family="Helvetica" font-size="560" text-anchor="middle" x="45610" y="19200" id="TEXT289_pbTextEl">℃</text>
  </g>
  <g id="TEXT290">
    <rect x="60740" y="19520" width="1300" height="580" stroke-width="0" fill="none" id="TEXT290_pbTextBoundingRectEl" />
    <text fill="#000000" font-family="Helvetica" font-size="560" text-anchor="middle" x="61390" y="20090" id="TEXT290_pbTextEl">KPa</text>
  </g>
  <path id="POLYGON169" d="M 15940 7480 l 0 1020" stroke="#000000" stroke-width="20" stroke-dasharray="60,60" fill="none" />
  <path id="POLYGON170" d="M 16260 17200 l 0 700" stroke="#000000" stroke-width="20" stroke-dasharray="60,60" fill="none" />
  <path id="POLYGON171" d="M 21900 17160 l 0 600" stroke="#000000" stroke-width="20" stroke-dasharray="60,60" fill="none" />
  <path id="POLYGON172" d="M 27520 17300 l 0 460" stroke="#000000" stroke-width="20" stroke-dasharray="60,60" fill="none" />
  <path id="POLYGON173" d="M 32920 17100 l 0 560" stroke="#000000" stroke-width="20" stroke-dasharray="60,60" fill="none" />
  <path id="POLYGON174" d="M 38800 17100 l 0 620" stroke="#000000" stroke-width="20" stroke-dasharray="60,60" fill="none" />
  <path id="POLYGON175" d="M 44760 17160 l 0 640" stroke="#000000" stroke-width="20" stroke-dasharray="60,60" fill="none" />
</svg>