<?xml version="1.0" encoding="UTF-8"?>
<svg height="100%" width="100%" viewBox="0 0 64000 32000" version="1.1" xmlns="http://www.w3.org/2000/svg" xmlns:xlink="http://www.w3.org/1999/xlink" xmlns:PB="urn:osisoft-com-pb" xmlns:PBI="urn:osisoft-com-interface" xmlns:PBD="urn:osisoft-com-data" style="background-color:#C0C0C0">
  <title>KYJYXT3</title>
  <defs>
    <PBD:TagUses tag="\\RTDBB\590_TE152">
      <PBI:Symbol name="DATAPOINT13" PB:Type="7" />
    </PBD:TagUses>
    <PBD:TagUses tag="\\RTDBB\590_TE150R">
      <PBI:Symbol name="DATAPOINT14" PB:Type="7" />
    </PBD:TagUses>
    <PBD:TagUses tag="\\RTDBB\590_TE151">
      <PBI:Symbol name="DATAPOINT15" PB:Type="7" />
    </PBD:TagUses>
    <PBD:TagUses tag="\\RTDBB\590_CD150">
      <PBI:Symbol name="DATAPOINT16" PB:Type="7" />
      <PBI:Symbol name="DATAPOINT23" PB:Type="7" />
    </PBD:TagUses>
    <PBD:TagUses tag="\\RTDBB\590_VT132X">
      <PBI:Symbol name="DATAPOINT18" PB:Type="7" />
    </PBD:TagUses>
    <PBD:TagUses tag="\\RTDBB\590_VT131X">
      <PBI:Symbol name="DATAPOINT19" PB:Type="7" />
    </PBD:TagUses>
    <PBD:TagUses tag="\\RTDBB\590_PT130B">
      <PBI:Symbol name="DATAPOINT20" PB:Type="7" />
    </PBD:TagUses>
    <PBD:TagUses tag="\\RTDBB\590_PT130C">
      <PBI:Symbol name="DATAPOINT22" PB:Type="7" />
    </PBD:TagUses>
    <PBD:TagUses tag="\\RTDBB\590_TE130">
      <PBI:Symbol name="DATAPOINT24" PB:Type="7" />
    </PBD:TagUses>
    <PBD:TagUses tag="\\RTDBB\590_PT130">
      <PBI:Symbol name="DATAPOINT25" PB:Type="7" />
    </PBD:TagUses>
    <PBD:TagUses tag="\\RTDBB\590_TE101">
      <PBI:Symbol name="DATAPOINT26" PB:Type="7" />
    </PBD:TagUses>
    <PBD:TagUses tag="\\RTDBB\590_VT133X">
      <PBI:Symbol name="DATAPOINT27" PB:Type="7" />
    </PBD:TagUses>
  </defs>
  <path id="POLYGON949" d="M 36040 7200 l 10940 0 0 19260 -10940 0 0 -19260 0 0" stroke="#000000" stroke-width="40" fill="none" />
  <path id="RECTANGLE4" d="M 26160 23840 l 4060 0 0 4060 -4060 0 0 -4060 0 0" stroke="#000000" stroke-width="40" fill="#C0C0C0" />
  <path id="LINE444" d="M 11380 24780 l 5220 0" stroke="#000000" stroke-width="40" fill="none" />
  <path id="POLYGON444" d="M 11380 27520 l 5220 0" stroke="#000000" stroke-width="40" fill="none" />
  <path id="LINE127" d="M 17960 27520 l 0 -4460" stroke="#000000" stroke-width="40" fill="none" />
  <rect x="16080" y="12960" width="4420" height="2840" stroke="#000000" stroke-width="40" fill="#00FF00" id="RECTANGLE2" />
  <path d="M 14085 23140 l -78 -20 -49 -20 -37 -20 -31 -20 -26 -20 -23 -20 -20 -20 -18 -20 -15 -20 -15 -20 -12 -20 -12 -20 -10 -20 -9 -20 -8 -20 -6 -20 -6 -20 -5 -20 -4 -20 -3 -20 -2 -20 -2 -20 0 -20 0 0 0 -20 2 -20 2 -20 3 -20 4 -20 5 -20 6 -20 6 -20 8 -20 9 -20 10 -20 12 -20 12 -20 15 -20 15 -20 18 -20 20 -20 23 -20 26 -20 31 -20 37 -20 49 -20 78 -20 150 0 78 20 49 20 37 20 31 20 26 20 23 20 20 20 18 20 15 20 15 20 12 20 12 20 10 20 9 20 8 20 6 20 6 20 5 20 4 20 3 20 2 20 2 20 0 20 0 0 0 20 -2 20 -2 20 -3 20 -4 20 -5 20 -6 20 -6 20 -8 20 -9 20 -10 20 -12 20 -12 20 -15 20 -15 20 -18 20 -20 20 -23 20 -26 20 -31 20 -37 20 -49 20 -78 20 -150 0" stroke="#000000" stroke-width="20" fill="#808080" />
  <g>
    <rect x="13400" y="21880" width="1520" height="1680" stroke-width="0" fill="none" />
    <text fill="#000000" font-family="Helvetica" font-size="320" text-anchor="middle" x="14160" y="22880">M</text>
  </g>
  <path id="ELLIPSE20" d="M 14070 25420 l -154 -40 -85 -40 -63 -40 -50 -40 -43 -40 -36 -40 -31 -40 -27 -40 -23 -40 -19 -40 -17 -40 -14 -40 -12 -40 -9 -40 -7 -40 -4 -40 -2 -40 0 -40 2 -40 4 -40 7 -40 9 -40 12 -40 14 -40 17 -40 19 -40 23 -40 27 -40 31 -40 36 -40 43 -40 50 -40 63 -40 85 -40 154 -40 179 0 154 40 85 40 63 40 50 40 43 40 36 40 31 40 27 40 23 40 19 40 17 40 14 40 12 40 9 40 7 40 4 40 2 40 0 40 -2 40 -4 40 -7 40 -9 40 -12 40 -14 40 -17 40 -19 40 -23 40 -27 40 -31 40 -36 40 -43 40 -50 40 -63 40 -85 40 -154 40 -179 0" stroke="#000000" stroke-width="20" fill="#808080" />
  <path id="LINE169" d="M 14840 24720 l -700 680" stroke="#000000" stroke-width="40" fill="none" />
  <path id="LINE173" d="M 14840 24720 l -700 -700" stroke="#000000" stroke-width="40" fill="none" />
  <path id="LINE175" d="M 14140 24020 l 0 -820" stroke="#000000" stroke-width="40" fill="none" />
  <path id="ELLIPSE22" d="M 1220 14130 l 40 -154 40 -85 40 -63 40 -50 40 -43 40 -36 40 -31 40 -27 40 -23 40 -19 40 -17 40 -14 40 -12 40 -9 40 -7 40 -4 40 -2 40 0 40 2 40 4 40 7 40 9 40 12 40 14 40 17 40 19 40 23 40 27 40 31 40 36 40 43 40 50 40 63 40 85 40 154 0 179 -40 154 -40 85 -40 63 -40 50 -40 43 -40 36 -40 31 -40 27 -40 23 -40 19 -40 17 -40 14 -40 12 -40 9 -40 7 -41 4 -39 2 -40 0 -40 -2 -40 -4 -41 -7 -40 -9 -39 -12 -40 -14 -40 -17 -40 -19 -40 -23 -40 -27 -40 -31 -40 -36 -40 -43 -40 -50 -40 -63 -40 -85 -40 -154 0 -179" stroke="#000000" stroke-width="20" fill="#808080" />
  <path id="LINE176" d="M 1920 13540 l -680 700" stroke="#000000" stroke-width="40" fill="none" />
  <path id="LINE177" d="M 1920 13540 l 680 700" stroke="#000000" stroke-width="40" fill="none" />
  <path id="LINE181" d="M 2600 14320 l 840 0" stroke="#000000" stroke-width="40" fill="none" />
  <path d="M 17460 24480 l 0 720" stroke="#000000" stroke-width="40" fill="none" />
  <path d="M 16660 24480 l 0 720" stroke="#000000" stroke-width="40" fill="none" />
  <path d="M 17460 25140 l -800 -660" stroke="#000000" stroke-width="40" fill="none" />
  <path d="M 16648 24665 l -17 -5 -9 -5 -8 -5 -6 -5 -5 -5 -5 -5 -4 -5 -4 -5 -4 -5 -3 -5 -3 -5 -3 -5 -2 -5 -2 -5 -3 -5 -2 -5 -1 -5 -2 -5 -2 -5 -1 -5 -1 -5 -2 -5 -1 -5 -1 -5 0 -5 -1 -5 -1 -5 0 -5 -1 -5 0 -5 0 -5 0 -5 0 -5 0 0 0 -5 0 -5 0 -5 0 -5 1 -5 0 -5 1 -5 1 -5 0 -5 1 -5 1 -5 2 -5 1 -5 1 -5 2 -5 2 -5 1 -5 2 -5 3 -5 2 -5 2 -5 3 -5 3 -5 3 -5 4 -5 4 -5 4 -5 5 -5 5 -5 6 -5 8 -5 9 -5 17 -5 23 0 17 5 9 5 8 5 6 5 5 5 5 5 4 5 4 5 4 5 3 5 3 5 3 5 2 5 2 5 3 5 2 5 1 5 2 5 2 5 1 5 1 5 2 5 1 5 1 5 0 5 1 5 1 5 0 5 1 5 0 5 0 5 0 5 1 5 0 0 -1 5 0 5 0 5 0 5 -1 5 0 5 -1 5 -1 5 0 5 -1 5 -1 5 -2 5 -1 5 -1 5 -2 5 -2 5 -1 5 -2 5 -3 5 -2 5 -2 5 -3 5 -3 5 -3 5 -4 5 -4 5 -4 5 -5 5 -5 5 -6 5 -8 5 -9 5 -17 5 -23 0" stroke="#000000" stroke-width="40" fill="#000000" />
  <path d="M 17460 27080 l 0 720" stroke="#000000" stroke-width="40" fill="none" />
  <path d="M 16660 27080 l 0 720" stroke="#000000" stroke-width="40" fill="none" />
  <path d="M 17460 27780 l -800 -700" stroke="#000000" stroke-width="40" fill="none" />
  <path d="M 16648 27285 l -17 -5 -9 -5 -8 -5 -6 -5 -5 -5 -5 -5 -4 -5 -4 -5 -4 -5 -3 -5 -3 -5 -3 -5 -2 -5 -2 -5 -3 -5 -2 -5 -1 -5 -2 -5 -2 -5 -1 -5 -1 -5 -2 -5 -1 -5 -1 -5 0 -5 -1 -5 -1 -5 0 -5 -1 -5 0 -5 0 -5 0 -5 0 -5 0 0 0 -5 0 -5 0 -5 0 -5 1 -5 0 -5 1 -5 1 -5 0 -5 1 -5 1 -5 2 -5 1 -5 1 -5 2 -5 2 -5 1 -5 2 -5 3 -5 2 -5 2 -5 3 -5 3 -5 3 -5 4 -5 4 -5 4 -5 5 -5 5 -5 6 -5 8 -5 9 -5 17 -5 23 0 17 5 9 5 8 5 6 5 5 5 5 5 4 5 4 5 4 5 3 5 3 5 3 5 2 5 2 5 3 5 2 5 1 5 2 5 2 5 1 5 1 5 2 5 1 5 1 5 0 5 1 5 1 5 0 5 1 5 0 5 0 5 0 5 1 5 0 0 -1 5 0 5 0 5 0 5 -1 5 0 5 -1 5 -1 5 0 5 -1 5 -1 5 -2 5 -1 5 -1 5 -2 5 -2 5 -1 5 -2 5 -3 5 -2 5 -2 5 -3 5 -3 5 -3 5 -4 5 -4 5 -4 5 -5 5 -5 5 -6 5 -8 5 -9 5 -17 5 -23 0" stroke="#000000" stroke-width="40" fill="#000000" />
  <g name="Valve4">
    <path d="M 29935 25373 l 492 0 -492 1281 492 0 -492 -1281" stroke="#000000" stroke-width="20" fill="#000000" />
  </g>
  <g name="DownArrow">
    <path d="M 30746 26327 l 0 -694 -516 347 516 347 0 0" stroke="#000000" stroke-width="20" fill="#000000" />
  </g>
  <path id="ELLIPSE36" d="M 20713 24820 l 162 40 90 40 69 40 56 40 49 40 42 40 38 40 34 40 31 40 28 40 26 40 23 40 21 40 20 40 18 40 16 40 14 40 13 40 12 40 11 40 9 40 8 40 7 40 5 40 5 40 3 40 2 40 1 40 0 40 -1 40 -2 40 -3 40 -5 40 -5 40 -7 40 -8 40 -9 40 -11 40 -12 40 -13 40 -14 40 -16 40 -18 40 -20 40 -21 40 -23 40 -26 40 -28 40 -31 40 -34 40 -38 40 -42 40 -49 40 -56 40 -69 40 -90 40 -162 40 -185 0 -162 -40 -90 -40 -69 -40 -56 -40 -49 -40 -42 -40 -38 -40 -34 -40 -31 -40 -28 -40 -26 -40 -23 -40 -21 -40 -20 -40 -18 -40 -16 -40 -14 -40 -13 -40 -12 -40 -11 -40 -9 -40 -8 -40 -7 -40 -5 -40 -5 -40 -3 -40 -2 -40 -1 -40 0 -40 1 -40 2 -40 3 -40 5 -40 5 -40 7 -40 8 -40 9 -40 11 -40 12 -40 13 -40 14 -40 16 -40 18 -40 20 -40 21 -40 23 -40 26 -40 28 -40 31 -40 34 -40 38 -40 42 -40 49 -40 56 -40 69 -40 90 -40 162 -40 185 0" stroke="#000000" stroke-width="20" fill="#C0C0C0" />
  <path d="M 20200 25440 l 420 1400" stroke="#007800" stroke-width="20" fill="none" />
  <path d="M 20620 26840 l 440 -1400" stroke="#007800" stroke-width="20" fill="none" />
  <path d="M 20200 25440 l 0 2340" stroke="#007800" stroke-width="20" fill="none" />
  <path d="M 21060 25440 l 0 2340" stroke="#007800" stroke-width="20" fill="none" />
  <g name="Valve4">
    <path d="M 26385 25319 l -492 0 492 1281 -492 0 492 -1281" stroke="#000000" stroke-width="20" fill="#000000" />
  </g>
  <g name="DownArrow">
    <path d="M 25574 26327 l 0 -694 516 347 -516 347 0 0" stroke="#000000" stroke-width="20" fill="#000000" />
  </g>
  <g name="Valve4">
    <path d="M 22706 26212 l 0 -492 1281 492 0 -492 -1281 492" stroke="#000000" stroke-width="20" fill="#000000" />
  </g>
  <g name="DownArrow">
    <path d="M 23687 25374 l -694 0 347 516 347 -516 0 0" stroke="#000000" stroke-width="20" fill="#000000" />
  </g>
  <path id="RECTANGLE5" d="M 27560 27500 l 1260 0 0 700 -1260 0 0 -700 0 0" stroke="#000000" stroke-width="20" fill="#C0C0C0" />
  <path id="LINE225" d="M 28820 27860 l -1260 -360" stroke="#000000" stroke-width="20" stroke-dasharray="60,60" fill="none" />
  <path id="LINE230" d="M 28820 27840 l -1260 360" stroke="#000000" stroke-width="20" stroke-dasharray="60,60" fill="none" />
  <path id="RECTANGLE6" d="M 27560 23440 l 1260 0 0 720 -1260 0 0 -720 0 0" stroke="#000000" stroke-width="20" fill="#C0C0C0" />
  <path id="LINE231" d="M 28820 23820 l -1260 -380" stroke="#000000" stroke-width="20" stroke-dasharray="60,60" fill="none" />
  <path id="LINE232" d="M 28820 23780 l -1260 360" stroke="#000000" stroke-width="20" stroke-dasharray="60,60" fill="none" />
  <g name="Pipe1">
    <path d="M 5098 11926 l 165 0 0 4708 -165 0 0 -4708 0 0" stroke="#FFFFFF" stroke-width="20" fill="#FFFFFF" />
    <path d="M 3588 11926 l 124 0 0 4708 -124 0 0 -4708 0 0" stroke="#000000" stroke-width="20" fill="#000000" />
    <path d="M 3712 11926 l 145 0 0 4708 -145 0 0 -4708 0 0" stroke="#3C3C3C" stroke-width="20" fill="#3C3C3C" />
    <path d="M 3857 11926 l 207 0 0 4714 -207 0 0 -4714 0 0" stroke="#5A5A5A" stroke-width="20" fill="#5A5A5A" />
    <path d="M 4064 11926 l 145 0 0 4708 -145 0 0 -4708 0 0" stroke="#808080" stroke-width="20" fill="#808080" />
    <path d="M 4209 11926 l 186 0 0 4708 -186 0 0 -4708 0 0" stroke="#969696" stroke-width="20" fill="#969696" />
    <path d="M 4395 11926 l 145 0 0 4708 -145 0 0 -4708 0 0" stroke="#C0C0C0" stroke-width="20" fill="#C0C0C0" />
    <path d="M 4540 11926 l 206 0 0 4708 -206 0 0 -4708 0 0" stroke="#D2D2D2" stroke-width="20" fill="#D2D2D2" />
    <path d="M 4746 11926 l 166 0 0 4708 -166 0 0 -4708 0 0" stroke="#DEDEDE" stroke-width="20" fill="#DEDEDE" />
    <path d="M 4912 11926 l 186 0 0 4708 -186 0 0 -4708 0 0" stroke="#F0F0F0" stroke-width="20" fill="#F0F0F0" />
    <path d="M 6815 11926 l -249 0 0 4708 249 0 0 -4708 0 0" stroke="#000000" stroke-width="20" fill="#000000" />
    <path d="M 6566 11926 l -165 0 0 4708 165 0 0 -4708 0 0" stroke="#3C3C3C" stroke-width="20" fill="#3C3C3C" />
    <path d="M 6401 11926 l -145 0 0 4714 145 0 0 -4714 0 0" stroke="#5A5A5A" stroke-width="20" fill="#5A5A5A" />
    <path d="M 6256 11926 l -165 0 0 4708 165 0 0 -4708 0 0" stroke="#808080" stroke-width="20" fill="#808080" />
    <path d="M 6091 11926 l -207 0 0 4708 207 0 0 -4708 0 0" stroke="#969696" stroke-width="20" fill="#969696" />
    <path d="M 5884 11926 l -145 0 0 4708 145 0 0 -4708 0 0" stroke="#C0C0C0" stroke-width="20" fill="#C0C0C0" />
    <path d="M 5739 11926 l -165 0 0 4708 165 0 0 -4708 0 0" stroke="#D2D2D2" stroke-width="20" fill="#D2D2D2" />
    <path d="M 5574 11926 l -186 0 0 4708 186 0 0 -4708 0 0" stroke="#DEDEDE" stroke-width="20" fill="#DEDEDE" />
    <path d="M 5388 11926 l -125 0 0 4708 125 0 0 -4708 0 0" stroke="#F0F0F0" stroke-width="20" fill="#F0F0F0" />
  </g>
  <g name="Pipe1">
    <path d="M 2819 26312 l 1 -244 9268 -1 -1 245 -9268 0 0 0" stroke="#FFFFFF" stroke-width="20" fill="#FFFFFF" />
    <path d="M 2819 28534 l 1 -183 9268 0 -1 183 -9268 0 0 0" stroke="#000000" stroke-width="20" fill="#000000" />
    <path d="M 2820 28351 l 0 -213 9268 -1 0 214 -9268 0 0 0" stroke="#3C3C3C" stroke-width="20" fill="#3C3C3C" />
    <path d="M 2820 28138 l -1 -304 9281 -1 0 304 -9280 1 0 0" stroke="#5A5A5A" stroke-width="20" fill="#5A5A5A" />
    <path d="M 2819 27834 l 1 -213 9268 -1 -1 214 -9268 0 0 0" stroke="#808080" stroke-width="20" fill="#808080" />
    <path d="M 2820 27621 l 0 -274 9268 0 0 273 -9268 1 0 0" stroke="#969696" stroke-width="20" fill="#969696" />
    <path d="M 2820 27347 l -1 -214 9269 -1 0 215 -9268 0 0 0" stroke="#C0C0C0" stroke-width="20" fill="#C0C0C0" />
    <path d="M 2819 27133 l 0 -305 9269 0 0 304 -9269 1 0 0" stroke="#D2D2D2" stroke-width="20" fill="#D2D2D2" />
    <path d="M 2819 26828 l 1 -243 9268 0 0 243 -9269 0 0 0" stroke="#DEDEDE" stroke-width="20" fill="#DEDEDE" />
    <path d="M 2820 26585 l -1 -273 9268 0 1 273 -9268 0 0 0" stroke="#F0F0F0" stroke-width="20" fill="#F0F0F0" />
    <path d="M 2820 23785 l -1 366 9269 -1 0 -364 -9268 -1 0 0" stroke="#000000" stroke-width="20" fill="#000000" />
    <path d="M 2819 24151 l 0 243 9269 -1 0 -243 -9269 1 0 0" stroke="#3C3C3C" stroke-width="20" fill="#3C3C3C" />
    <path d="M 2819 24394 l 0 212 9281 0 0 -212 -9281 0 0 0" stroke="#5A5A5A" stroke-width="20" fill="#5A5A5A" />
    <path d="M 2819 24606 l 0 243 9269 0 0 -243 -9269 0 0 0" stroke="#808080" stroke-width="20" fill="#808080" />
    <path d="M 2819 24849 l 0 306 9269 -1 0 -305 -9269 0 0 0" stroke="#969696" stroke-width="20" fill="#969696" />
    <path d="M 2819 25155 l 0 213 9269 -1 0 -213 -9269 1 0 0" stroke="#C0C0C0" stroke-width="20" fill="#C0C0C0" />
    <path d="M 2819 25368 l 0 243 9269 -1 0 -243 -9269 1 0 0" stroke="#D2D2D2" stroke-width="20" fill="#D2D2D2" />
    <path d="M 2819 25611 l 1 274 9268 0 0 -275 -9269 1 0 0" stroke="#DEDEDE" stroke-width="20" fill="#DEDEDE" />
    <path d="M 2820 25885 l 0 183 9268 -1 0 -182 -9268 0 0 0" stroke="#F0F0F0" stroke-width="20" fill="#F0F0F0" />
  </g>
  <path d="M 6620 27440 l 11 0 12 0 12 0 12 0 12 0 12 -1 11 0 12 -1 12 -1 12 0 11 -1 12 -1 11 -1 12 -1 11 -1 12 -2 11 -1 12 -1 11 -2 11 -1 11 -2 11 -1 11 -2 11 -2 11 -2 11 -2 10 -2 11 -2 10 -2 11 -2 10 -3 10 -2 10 -2 10 -3 10 -3 9 -2 10 -3 9 -3 9 -2 10 -3 9 -3 9 -3 8 -3 9 -3 8 -4 9 -3 8 -3 8 -4 8 -3 7 -3 8 -4 7 -3 8 -4 7 -4 7 -3 6 -4 7 -4 6 -4 6 -4 6 -4 6 -3 6 -4 5 -4 6 -5 5 -4 5 -4 4 -4 5 -4 4 -4 4 -5 4 -4 4 -4 4 -4 3 -5 3 -4 3 -5 3 -4 3 -4 2 -5 2 -4 2 -5 2 -4 1 -5 2 -4 1 -5 1 -4 1 -5 0 -4 0 -5 1 -5 -1 -4 0 -5 0 -4 -1 -5 -1 -4 -1 -5 -2 -4 -1 -5 -2 -4 -2 -5 -2 -4 -2 -5 -3 -4 -3 -4 -3 -5 -3 -4 -3 -5 -4 -4 -4 -4 -4 -4 -4 -5 -4 -4 -5 -4 -4 -4 -5 -4 -5 -4 -6 -5 -5 -4 -6 -4 -6 -4 -6 -3 -6 -4 -6 -4 -7 -4 -6 -4 -7 -3 -7 -4 -8 -4 -7 -3 -8 -4 -7 -3 -8 -3 -8 -4 -8 -3 -9 -3 -8 -4 -9 -3 -8 -3 -9 -3 -9 -3 -10 -3 -9 -2 -9 -3 -10 -3 -9 -2 -10 -3 -10 -3 -10 -2 -10 -2 -11 -3 -10 -2 -10 -2 -11 -2 -10 -2 -11 -2 -11 -2 -11 -2 -11 -2 -11 -1 -11 -2 -11 -1 -11 -2 -12 -1 -11 -1 -12 -2 -11 -1 -12 -1 -11 -1 -12 -1 -11 -1 -12 0 -12 -1 -12 -1 -11 0 -12 -1 -12 0 -12 0 -12 0 -12 0 -12 -1 -11 1" stroke="#000000" stroke-width="20" fill="none" />
  <path d="M 6620 26920 l -4560 0" stroke="#000000" stroke-width="20" fill="none" />
  <path d="M 6620 27460 l -4560 0" stroke="#000000" stroke-width="20" fill="none" />
  <path d="M 2060 26920 l 0 540" stroke="#000000" stroke-width="20" fill="none" />
  <path d="M 4480 27020 l 1320 340" stroke="#000000" stroke-width="20" fill="none" />
  <path d="M 5560 27020 l 1320 340" stroke="#000000" stroke-width="20" fill="none" />
  <path d="M 5540 27020 l 260 340" stroke="#000000" stroke-width="20" fill="none" />
  <path d="M 6700 27220 l 160 140" stroke="#000000" stroke-width="20" fill="none" />
  <path d="M 6600 27360 l 240 0" stroke="#000000" stroke-width="20" fill="none" />
  <g name="Vessel3">
    <path d="M 3773 21832 l -5 -20 -4 -7 -5 -6 -5 -4 -5 -3 -5 -4 -4 -2 -5 -4 -5 -2 -5 -4 -4 -2 -5 -2 -5 -2 -5 -2 -4 -1 -5 -2 -5 -2 -5 -2 -4 0 -5 -2 -5 -2 -4 0 -5 -2 -5 -2 -5 0 -4 -2 -5 0 -5 -1 -5 0 -5 -2 -4 0 -5 0 -5 -2 -5 0 -4 0 -5 -2 -5 0 -5 0 -4 0 -5 -2 -5 0 -5 0 -5 0 -4 0 -5 0 -5 0 -5 0 -4 0 -5 0 -10 0 -4 0 -5 0 -5 0 -5 0 -4 0 -5 0 -5 0 -4 0 -5 0 -5 2 -5 0 -4 0 -5 0 -5 2 -5 0 -4 0 -5 2 -5 0 -5 0 -5 2 -4 0 -5 1 -5 0 -5 2 -4 0 -5 2 -5 2 -5 0 -4 2 -5 2 -5 0 -5 2 -5 2 -4 2 -5 1 -5 2 -5 2 -4 2 -5 2 -5 4 -5 2 -4 4 -5 2 -5 4 -4 3 -5 4 -5 6 -5 7 -4 20 4 16 5 8 5 6 5 4 4 4 5 4 5 2 4 4 5 1 5 4 5 3 4 1 5 2 5 2 5 2 4 2 5 2 5 2 5 0 5 1 4 3 5 0 5 1 5 2 4 0 5 2 5 0 5 2 4 0 5 2 5 0 5 0 5 2 4 0 5 0 5 1 5 0 4 0 5 0 5 3 5 0 4 0 5 0 5 0 4 0 5 0 5 0 5 0 4 0 10 0 5 0 4 0 5 0 5 0 5 0 4 0 5 0 5 0 5 0 5 -3 4 0 5 0 5 0 5 -1 4 0 5 0 5 -2 5 0 4 0 5 -2 5 0 5 -2 5 0 4 -2 5 0 5 -2 5 -1 4 0 5 -3 5 -1 4 0 5 -2 5 -2 5 -2 4 -2 5 -2 5 -2 5 -1 4 -3 5 -4 5 -1 5 -4 4 -2 5 -4 5 -4 5 -4 5 -6 4 -8 5 -16 0 0" stroke="#000000" stroke-width="20" fill="#000000" />
    <path d="M 3750 21832 l -5 -20 -4 -7 -5 -6 -4 -4 -4 -4 -4 -4 -5 -1 -4 -4 -4 -2 -5 -4 -4 -2 -4 -2 -4 -2 -5 -2 -4 -2 -4 -1 -5 -2 -4 -2 -4 0 -4 -3 -5 -1 -4 0 -4 -2 -4 -2 -5 0 -4 -2 -4 0 -5 -2 -4 0 -4 -2 -4 0 -5 0 -4 -1 -4 0 -5 0 -4 -2 -4 0 -4 0 -5 0 -4 -2 -4 0 -4 0 -5 0 -4 0 -4 0 -5 0 -4 0 -4 0 -4 0 -9 0 -4 0 -5 0 -4 0 -4 0 -4 0 -5 0 -4 0 -4 0 -4 0 -5 2 -4 0 -4 0 -5 0 -4 2 -4 0 -4 0 -5 1 -5 0 -4 0 -4 2 -4 0 -5 2 -4 0 -4 2 -4 0 -4 2 -4 2 -5 0 -4 1 -4 3 -5 0 -4 2 -5 2 -4 1 -4 2 -5 2 -4 2 -4 2 -4 2 -5 4 -4 2 -4 4 -5 1 -4 4 -4 4 -4 4 -5 6 -4 7 -4 20 4 16 4 8 5 6 4 4 4 4 4 4 5 1 4 4 4 2 5 4 4 2 4 2 4 2 5 2 4 2 4 1 5 2 4 2 5 0 4 2 4 3 5 0 4 1 4 2 4 0 4 2 4 0 5 2 4 0 4 1 4 0 5 0 5 2 4 0 4 0 4 2 5 0 4 0 4 0 5 3 4 0 4 0 4 0 5 0 4 0 4 0 4 0 5 0 4 0 9 0 4 0 4 0 4 0 5 0 4 0 4 0 5 0 4 0 4 0 4 -3 5 0 4 0 4 0 4 -2 5 0 4 0 4 -2 5 0 4 0 4 -1 4 0 5 -2 4 0 4 -2 5 0 4 -2 4 -1 4 0 5 -3 4 -2 4 0 4 -2 5 -2 4 -1 4 -2 5 -2 4 -2 4 -2 4 -2 5 -4 4 -2 4 -4 5 -1 4 -4 4 -4 4 -4 5 -6 4 -8 5 -16 0 0" stroke="#3C3C3C" stroke-width="20" fill="#3C3C3C" />
    <path d="M 3727 21832 l -5 -20 -4 -7 -4 -6 -3 -4 -4 -3 -4 -4 -4 -2 -4 -4 -3 -2 -4 -4 -4 -2 -4 -2 -4 -2 -3 -2 -4 -1 -4 -2 -4 -2 -3 -2 -4 0 -4 -2 -4 -2 -4 0 -3 -2 -4 -2 -4 0 -4 -2 -4 0 -3 -1 -4 0 -4 -2 -4 0 -4 0 -4 -2 -4 0 -3 0 -4 -2 -4 0 -4 0 -4 0 -3 -2 -4 0 -4 0 -4 0 -3 0 -4 0 -4 0 -4 0 -4 0 -3 0 -8 0 -4 0 -4 0 -4 0 -4 0 -3 0 -5 0 -3 0 -4 0 -4 0 -4 2 -4 0 -3 0 -4 0 -4 2 -4 0 -3 0 -4 2 -4 0 -4 0 -4 2 -3 0 -4 1 -4 0 -4 2 -4 0 -3 2 -4 2 -4 0 -4 2 -4 2 -3 0 -4 2 -4 2 -4 2 -4 1 -3 2 -5 2 -3 2 -4 2 -4 4 -4 2 -3 4 -4 2 -4 4 -4 3 -4 4 -3 6 -4 7 -4 20 4 16 4 8 3 6 4 4 4 4 4 4 4 2 3 4 4 1 4 4 4 3 3 1 5 2 3 2 4 2 4 2 4 2 4 2 3 0 4 1 4 3 4 0 4 1 3 2 4 0 4 2 4 0 4 2 3 0 4 2 4 0 4 0 4 2 3 0 4 0 4 1 4 0 3 0 4 0 4 3 4 0 4 0 3 0 5 0 3 0 4 0 4 0 4 0 4 0 8 0 3 0 4 0 4 0 4 0 4 0 3 0 4 0 4 0 4 0 3 -3 4 0 4 0 4 0 4 -1 3 0 4 0 4 -2 4 0 4 0 4 -2 4 0 3 -2 4 0 4 -2 4 0 4 -2 3 -1 4 0 4 -3 4 -1 4 0 3 -2 4 -2 4 -2 4 -2 3 -2 4 -2 4 -1 4 -3 4 -4 3 -1 4 -4 4 -2 4 -4 4 -4 3 -4 4 -6 4 -8 5 -16 0 0" stroke="#5A5A5A" stroke-width="20" fill="#5A5A5A" />
    <path d="M 3701 21832 l -4 -20 -3 -7 -3 -6 -4 -4 -3 -3 -3 -4 -3 -2 -4 -4 -3 -2 -4 -4 -3 -2 -3 -2 -3 -2 -4 -2 -3 -1 -3 -2 -4 -2 -3 -2 -4 0 -3 -2 -3 -2 -3 0 -4 -2 -3 -2 -3 0 -4 -2 -3 0 -4 -1 -3 0 -3 -2 -3 0 -4 0 -3 -2 -3 0 -4 0 -3 -2 -4 0 -3 0 -3 0 -3 -2 -4 0 -3 0 -3 0 -4 0 -3 0 -3 0 -4 0 -3 0 -3 0 -6 0 -4 0 -3 0 -4 0 -3 0 -3 0 -4 0 -3 0 -3 0 -3 0 -4 2 -3 0 -4 0 -3 0 -3 2 -3 0 -4 0 -3 2 -3 0 -4 0 -3 2 -4 0 -3 1 -3 0 -3 2 -4 0 -3 2 -3 2 -4 0 -3 2 -4 2 -3 0 -3 2 -3 2 -4 2 -3 1 -3 2 -4 2 -3 2 -4 2 -3 4 -3 2 -3 4 -4 2 -3 4 -3 3 -4 4 -3 6 -3 7 -3 20 3 16 3 8 3 6 4 4 3 4 3 4 4 2 3 4 3 1 3 4 4 3 3 1 4 2 3 2 3 2 4 2 3 2 3 2 3 0 4 1 3 3 4 0 3 1 3 2 4 0 3 2 3 0 3 2 4 0 3 2 4 0 3 0 3 2 4 0 3 0 3 1 3 0 4 0 3 0 4 3 3 0 3 0 3 0 4 0 3 0 3 0 4 0 3 0 4 0 6 0 3 0 3 0 4 0 3 0 3 0 4 0 3 0 3 0 4 0 3 -3 3 0 3 0 4 0 3 -1 4 0 3 0 3 -2 4 0 3 0 3 -2 3 0 4 -2 3 0 4 -2 3 0 3 -2 4 -1 3 0 3 -3 3 -1 4 0 3 -2 4 -2 3 -2 3 -2 4 -2 3 -2 3 -1 3 -3 4 -4 3 -1 4 -4 3 -2 3 -4 3 -4 4 -4 3 -6 3 -8 4 -16 0 0" stroke="#808080" stroke-width="20" fill="#808080" />
    <path d="M 3678 21832 l -4 -20 -3 -7 -2 -6 -4 -4 -2 -3 -3 -4 -3 -2 -3 -4 -3 -2 -3 -4 -2 -2 -3 -2 -3 -2 -3 -2 -3 -1 -3 -2 -2 -2 -3 -2 -3 0 -3 -2 -2 -2 -3 0 -3 -2 -3 -2 -3 0 -3 -2 -3 0 -2 -1 -3 0 -3 -2 -4 0 -2 0 -3 -2 -2 0 -4 0 -2 -2 -3 0 -3 0 -3 0 -3 -2 -3 0 -2 0 -3 0 -3 0 -3 0 -3 0 -3 0 -3 0 -2 0 -6 0 -3 0 -3 0 -3 0 -2 0 -3 0 -3 0 -3 0 -3 0 -3 0 -2 2 -4 0 -2 0 -3 0 -3 2 -3 0 -3 0 -3 2 -3 0 -2 0 -3 2 -3 0 -3 1 -3 0 -3 2 -2 0 -3 2 -3 2 -3 0 -3 2 -3 2 -2 0 -3 2 -3 2 -3 2 -3 1 -3 2 -2 2 -4 2 -3 2 -2 4 -3 2 -3 4 -3 2 -3 4 -3 3 -2 4 -3 6 -3 7 -2 20 2 16 3 8 3 6 2 4 3 4 3 4 3 2 3 4 3 1 2 4 3 3 4 1 2 2 3 2 3 2 3 2 3 2 3 2 2 0 3 1 3 3 3 0 3 1 3 2 2 0 3 2 3 0 3 2 3 0 3 2 2 0 3 0 3 2 3 0 3 0 3 1 3 0 2 0 4 0 2 3 3 0 3 0 3 0 3 0 3 0 2 0 3 0 3 0 3 0 6 0 2 0 3 0 3 0 3 0 3 0 3 0 3 0 2 0 3 0 3 -3 3 0 3 0 3 0 2 -1 4 0 2 0 3 -2 2 0 4 0 3 -2 3 0 2 -2 3 0 3 -2 3 0 3 -2 3 -1 3 0 2 -3 3 -1 3 0 3 -2 2 -2 3 -2 3 -2 3 -2 3 -2 3 -1 2 -3 3 -4 3 -1 3 -4 3 -2 3 -4 2 -4 4 -4 2 -6 3 -8 4 -16 0 0" stroke="#969696" stroke-width="20" fill="#969696" />
    <path d="M 3654 21832 l -2 -20 -2 -7 -3 -6 -2 -4 -3 -3 -2 -4 -3 -2 -2 -4 -2 -2 -3 -4 -2 -2 -2 -2 -3 -2 -2 -2 -3 -1 -2 -2 -2 -2 -3 -2 -2 0 -2 -2 -3 -2 -2 0 -3 -2 -2 -2 -2 0 -3 -2 -2 0 -2 -1 -3 0 -2 -2 -2 0 -3 0 -2 -2 -3 0 -2 0 -3 -2 -2 0 -2 0 -2 0 -3 -2 -2 0 -3 0 -2 0 -3 0 -2 0 -2 0 -3 0 -2 0 -2 0 -5 0 -3 0 -2 0 -2 0 -3 0 -2 0 -2 0 -3 0 -2 0 -3 0 -2 2 -2 0 -3 0 -2 0 -2 2 -3 0 -2 0 -2 2 -3 0 -2 0 -3 2 -2 0 -3 1 -2 0 -2 2 -2 0 -3 2 -2 2 -3 0 -2 2 -3 2 -2 0 -2 2 -2 2 -3 2 -2 1 -3 2 -2 2 -3 2 -2 2 -2 4 -3 2 -2 4 -2 2 -3 4 -2 3 -3 4 -2 6 -2 7 -3 20 3 16 2 8 2 6 3 4 2 4 3 4 2 2 2 4 3 1 2 4 2 3 3 1 2 2 3 2 2 2 3 2 2 2 2 2 2 0 3 1 2 3 3 0 2 1 3 2 2 0 2 2 2 0 3 2 2 0 3 2 2 0 3 0 2 2 2 0 3 0 2 1 2 0 3 0 2 0 2 3 3 0 2 0 3 0 2 0 2 0 3 0 2 0 2 0 3 0 5 0 2 0 2 0 3 0 2 0 2 0 3 0 2 0 3 0 2 0 3 -3 2 0 2 0 2 0 3 -1 2 0 3 0 2 -2 3 0 2 0 2 -2 3 0 2 -2 2 0 3 -2 2 0 2 -2 3 -1 2 0 3 -3 2 -1 2 0 3 -2 2 -2 2 -2 3 -2 2 -2 3 -2 2 -1 2 -3 3 -4 2 -1 2 -4 3 -2 2 -4 3 -4 2 -4 3 -6 2 -8 2 -16 0 0" stroke="#C0C0C0" stroke-width="20" fill="#C0C0C0" />
    <path d="M 3631 21832 l -3 -20 -2 -7 -1 -6 -2 -4 -2 -3 -2 -4 -2 -2 -2 -4 -2 -2 -2 -4 -2 -2 -2 -2 -1 -2 -2 -2 -2 -1 -2 -2 -2 -2 -2 -2 -2 0 -2 -2 -2 -2 -2 0 -1 -2 -2 -2 -2 0 -2 -2 -2 0 -2 -1 -2 0 -2 -2 -2 0 -1 0 -2 -2 -2 0 -2 0 -2 -2 -2 0 -2 0 -2 0 -2 -2 -2 0 -1 0 -2 0 -2 0 -2 0 -2 0 -2 0 -2 0 -2 0 -4 0 -1 0 -2 0 -2 0 -2 0 -2 0 -2 0 -2 0 -2 0 -2 0 -1 2 -2 0 -3 0 -2 0 -1 2 -2 0 -2 0 -3 2 -1 0 -2 0 -2 2 -2 0 -2 1 -2 0 -1 2 -2 0 -2 2 -2 2 -2 0 -2 2 -2 2 -2 0 -2 2 -2 2 -2 2 -2 1 -2 2 -1 2 -2 2 -2 2 -2 4 -2 2 -2 4 -2 2 -2 4 -2 3 -2 4 -1 6 -2 7 -2 20 2 16 2 8 1 6 2 4 2 4 2 4 2 2 2 4 2 1 2 4 2 3 2 1 1 2 2 2 2 2 2 2 2 2 2 2 2 0 2 1 2 3 2 0 2 1 2 2 2 0 1 2 2 0 2 2 2 0 2 2 2 0 1 0 3 2 2 0 2 0 1 1 2 0 3 0 2 0 1 3 2 0 2 0 2 0 2 0 2 0 2 0 2 0 2 0 1 0 4 0 2 0 2 0 2 0 2 0 2 0 2 0 2 0 1 0 2 0 2 -3 2 0 2 0 2 0 2 -1 2 0 2 0 2 -2 1 0 2 0 2 -2 2 0 2 -2 2 0 2 -2 2 0 2 -2 1 -1 2 0 2 -3 2 -1 2 0 2 -2 2 -2 2 -2 2 -2 2 -2 1 -2 2 -1 2 -3 2 -4 2 -1 2 -4 2 -2 2 -4 2 -4 2 -4 1 -6 2 -8 3 -16 0 0" stroke="#D2D2D2" stroke-width="20" fill="#D2D2D2" />
    <path d="M 3607 21832 l -1 -20 -2 -7 -1 -6 -2 -4 -1 -3 -2 -4 -1 -2 -1 -4 -2 -2 -1 -4 -1 -2 -2 -2 -2 -2 -1 -2 -1 -1 -2 -2 -1 -2 -2 -2 -2 0 -1 -2 -1 -2 -2 0 -1 -2 -2 -2 -1 0 -1 -2 -2 0 -1 -1 -1 0 -2 -2 -1 0 -1 0 -2 -2 -2 0 -1 0 -2 -2 -1 0 -2 0 -1 0 -2 -2 -1 0 -1 0 -2 0 -1 0 -2 0 -1 0 -1 0 -2 0 -1 0 -3 0 -2 0 -1 0 -1 0 -2 0 -1 0 -2 0 -1 0 -2 0 -1 0 -2 2 -1 0 -1 0 -2 0 -1 2 -1 0 -2 0 -2 2 -1 0 -2 0 -1 2 -1 0 -2 1 -2 0 0 2 -2 0 -1 2 -2 2 -1 0 -1 2 -2 2 -2 0 -1 2 -2 2 -1 2 -2 1 -1 2 -2 2 -1 2 -1 2 -2 4 -1 2 -1 4 -2 2 -1 4 -2 3 -1 4 -2 6 -1 7 -1 20 1 16 1 8 2 6 1 4 2 4 1 4 2 2 1 4 1 1 2 4 1 3 1 1 2 2 1 2 2 2 1 2 2 2 1 2 2 0 2 1 1 3 1 0 2 1 1 2 2 0 0 2 2 0 2 2 1 0 1 2 2 0 1 0 2 2 2 0 1 0 1 1 2 0 1 0 1 0 2 3 1 0 2 0 1 0 2 0 1 0 2 0 1 0 1 0 2 0 3 0 1 0 2 0 1 0 1 0 2 0 1 0 2 0 1 0 1 0 2 -3 1 0 2 0 1 0 2 -1 1 0 2 0 2 -2 1 0 1 0 2 -2 1 0 1 -2 2 0 1 -2 1 0 2 -2 1 -1 2 0 1 -3 1 -1 2 0 2 -2 1 -2 2 -2 1 -2 1 -2 2 -2 2 -1 1 -3 1 -4 2 -1 1 -4 1 -2 2 -4 1 -4 2 -4 1 -6 2 -8 1 -16 0 0" stroke="#DEDEDE" stroke-width="20" fill="#DEDEDE" />
    <path d="M 3583 21832 l -2 -20 0 -8 -2 -5 0 -4 -2 -4 0 -4 -1 -2 -1 -3 -1 -2 -1 -5 -1 -1 -1 -2 -1 -2 -1 -2 -1 -2 -1 -1 -1 -2 -1 -2 -1 0 -1 -3 -1 -1 0 0 -2 -2 0 -2 -1 0 -1 -2 -1 0 -1 -2 -1 0 -1 -2 -1 0 -1 0 -1 -1 -1 0 -1 0 -1 -2 -1 0 -1 0 -1 0 0 -2 -1 0 -1 0 -1 0 -1 0 -1 0 -1 0 -1 0 -1 0 -1 0 -2 0 -1 0 -1 0 0 0 -2 0 0 0 -1 0 -1 0 -1 0 -1 0 -1 2 -1 0 -1 0 -1 0 -1 2 -1 0 -1 0 -1 1 -1 0 -1 0 -1 2 0 0 -2 2 0 0 -1 2 -1 0 -1 2 -1 2 -1 0 -1 1 -1 3 -1 0 -1 2 -1 2 -1 1 -1 2 -1 2 -1 2 -1 2 0 1 -1 5 -1 2 -1 3 -1 2 -1 4 -1 4 -1 4 -1 5 -1 8 0 20 0 16 1 8 1 6 1 3 1 5 1 3 1 2 1 4 1 2 1 3 0 3 1 2 1 2 1 2 1 1 1 2 1 2 1 2 1 0 1 2 1 2 1 0 1 2 1 2 1 0 1 2 0 0 2 2 0 0 1 1 1 0 1 0 1 2 1 0 1 0 1 2 1 0 1 0 1 0 1 2 1 0 1 0 1 0 1 0 0 0 2 0 0 0 1 0 1 0 2 0 1 0 1 0 1 0 1 0 1 0 1 0 1 0 1 0 1 0 0 -2 1 0 1 0 1 0 1 -2 1 0 1 0 1 -2 1 0 1 0 1 -1 1 0 1 -2 1 0 1 -2 1 0 0 -2 2 -2 0 0 1 -2 1 -2 1 0 1 -2 1 -2 1 -2 1 -1 1 -2 1 -2 1 -2 1 -3 1 -3 1 -2 1 -4 1 -2 0 -3 2 -5 0 -3 2 -6 0 -8 2 -16 0 0" stroke="#F0F0F0" stroke-width="20" fill="#F0F0F0" />
    <path d="M 3558 21832 l -1 -20 0 -8 -1 -5 0 -4 -1 -4 0 -4 -1 -2 0 -3 -1 -2 0 -5 -1 -1 0 -2 -1 -2 0 -2 0 -2 -1 -1 -1 -2 0 -2 0 0 -1 -3 0 -1 -1 0 0 -2 -1 -2 0 -2 -1 0 0 -2 -1 0 0 -2 -1 0 0 0 -1 -1 0 0 -1 0 -1 -2 0 0 0 0 -1 0 0 -2 -1 0 0 0 0 0 -1 0 0 0 -1 0 0 0 -1 0 0 0 -1 0 -1 0 0 0 -1 0 0 0 0 0 -1 0 -1 0 0 0 0 0 -1 2 0 0 -1 0 0 0 -1 2 0 0 -1 0 0 1 -1 0 0 0 -1 2 0 0 -1 2 0 0 -1 2 0 0 -1 2 0 2 0 0 -1 1 -1 3 0 0 0 2 -1 2 0 1 -1 2 0 2 -1 2 0 2 -1 1 0 5 0 2 -1 3 -1 2 0 4 0 4 -1 4 -1 5 0 8 0 20 0 16 0 8 1 6 1 3 0 5 0 3 1 2 1 4 0 2 0 3 1 3 0 2 1 2 0 2 1 1 0 2 1 2 0 2 0 0 1 2 1 2 0 0 0 2 1 2 0 0 1 2 0 0 1 2 0 0 1 1 0 0 1 0 0 2 1 0 0 0 1 2 0 0 1 0 0 0 1 2 0 0 0 0 1 0 1 0 0 0 0 0 1 0 0 0 1 0 1 0 0 0 1 0 0 0 1 0 0 0 1 0 0 0 0 0 1 0 0 -2 1 0 0 0 0 0 1 -2 1 0 0 0 1 -2 0 0 1 0 0 -1 1 0 0 -2 1 0 0 -2 1 -2 0 -2 1 0 0 -2 1 -2 0 0 0 -2 1 -2 1 -2 0 -1 0 -2 1 -2 0 -2 1 -3 0 -3 1 -2 0 -4 1 -2 0 -3 1 -5 0 -3 1 -6 0 -8 1 -16 0 0" stroke="#FFFFFF" stroke-width="20" fill="#FFFFFF" />
    <path d="M 3773 22772 l -5 -20 -4 -8 -5 -5 -5 -4 -5 -4 -5 -4 -4 -2 -5 -3 -5 -2 -5 -5 -4 -1 -5 -2 -5 -2 -5 -2 -4 -2 -5 -2 -5 -1 -5 -2 -4 0 -5 -3 -5 -2 -4 0 -5 -1 -5 -2 -5 0 -4 -2 -5 0 -5 -2 -5 0 -5 -2 -4 0 -5 0 -5 -1 -5 0 -4 0 -5 -2 -5 0 -5 0 -4 0 -5 -2 -5 0 -5 0 -5 0 -4 0 -5 0 -5 0 -5 0 -4 0 -5 0 -10 0 -4 0 -5 0 -5 0 -5 0 -4 0 -5 0 -5 0 -4 0 -5 0 -5 2 -5 0 -4 0 -5 0 -5 2 -5 0 -4 0 -5 1 -5 0 -5 0 -5 2 -4 0 -5 2 -5 0 -5 2 -4 0 -5 2 -5 1 -5 0 -4 2 -5 3 -5 0 -5 2 -5 1 -4 2 -5 2 -5 2 -5 2 -4 2 -5 1 -5 5 -5 2 -4 3 -5 2 -5 4 -4 4 -5 4 -5 5 -5 8 -4 20 4 16 5 8 5 6 5 3 4 5 5 3 5 2 4 4 5 2 5 3 5 3 4 2 5 2 5 2 5 1 4 2 5 2 5 2 5 0 5 2 4 3 5 0 5 1 5 2 4 0 5 2 5 0 5 2 4 0 5 1 5 0 5 0 5 2 4 0 5 0 5 2 5 0 4 0 5 0 5 2 5 0 4 0 5 0 5 0 4 0 5 0 5 0 5 0 4 0 10 0 5 0 4 0 5 0 5 0 5 0 4 0 5 0 5 0 5 0 5 -2 4 0 5 0 5 0 5 -2 4 0 5 0 5 -2 5 0 4 0 5 -1 5 0 5 -2 5 0 4 -2 5 0 5 -2 5 -1 4 0 5 -3 5 -2 4 0 5 -2 5 -2 5 -2 4 -1 5 -2 5 -2 5 -2 4 -3 5 -3 5 -2 5 -4 4 -2 5 -3 5 -5 5 -3 5 -6 4 -8 5 -16 0 0" stroke="#000000" stroke-width="20" fill="#000000" />
    <path d="M 3750 22772 l -5 -20 -4 -8 -5 -5 -4 -4 -4 -4 -4 -4 -5 -2 -4 -3 -4 -2 -5 -5 -4 -1 -4 -3 -4 -1 -5 -2 -4 -2 -4 -2 -5 -2 -4 -2 -4 0 -4 -2 -5 -2 -4 0 -4 -2 -4 -1 -5 0 -4 -3 -4 0 -5 -1 -4 0 -4 -2 -4 0 -5 0 -4 -2 -4 0 -5 0 -4 -2 -4 0 -4 0 -5 0 -4 -1 -4 0 -4 0 -5 0 -4 0 -4 0 -5 0 -4 0 -4 0 -4 0 -9 0 -4 0 -5 0 -4 0 -4 0 -4 0 -5 0 -4 0 -4 0 -4 0 -5 1 -4 0 -4 0 -5 0 -4 2 -4 0 -4 0 -5 2 -5 0 -4 0 -4 2 -4 0 -5 1 -4 0 -4 3 -4 0 -4 1 -4 2 -5 0 -4 2 -4 2 -5 0 -4 2 -5 2 -4 2 -4 2 -5 2 -4 1 -4 3 -4 1 -5 5 -4 2 -4 3 -5 2 -4 4 -4 4 -4 4 -5 5 -4 8 -4 20 4 15 4 9 5 6 4 3 4 5 4 3 5 2 4 4 4 1 5 4 4 3 4 2 4 1 5 3 4 1 4 2 5 2 4 2 5 0 4 2 4 2 5 0 4 2 4 2 4 0 4 2 4 0 5 2 4 0 4 1 4 0 5 0 5 2 4 0 4 0 4 2 5 0 4 0 4 0 5 2 4 0 4 0 4 0 5 0 4 0 4 0 4 0 5 0 4 0 9 0 4 0 4 0 4 0 5 0 4 0 4 0 5 0 4 0 4 0 4 -2 5 0 4 0 4 0 4 -2 5 0 4 0 4 -2 5 0 4 0 4 -1 4 0 5 -2 4 0 4 -2 5 0 4 -2 4 -2 4 0 5 -2 4 -2 4 0 4 -2 5 -2 4 -2 4 -1 5 -3 4 -1 4 -2 4 -3 5 -4 4 -1 4 -4 5 -2 4 -3 4 -5 4 -3 5 -6 4 -9 5 -15 0 0" stroke="#3C3C3C" stroke-width="20" fill="#3C3C3C" />
    <path d="M 3727 22772 l -5 -20 -4 -8 -4 -5 -3 -4 -4 -4 -4 -4 -4 -2 -4 -3 -3 -2 -4 -5 -4 -1 -4 -2 -4 -2 -3 -2 -4 -2 -4 -2 -4 -1 -3 -2 -4 0 -4 -3 -4 -2 -4 0 -3 -1 -4 -2 -4 0 -4 -2 -4 0 -3 -2 -4 0 -4 -2 -4 0 -4 0 -4 -1 -4 0 -3 0 -4 -2 -4 0 -4 0 -4 0 -3 -2 -4 0 -4 0 -4 0 -3 0 -4 0 -4 0 -4 0 -4 0 -3 0 -8 0 -4 0 -4 0 -4 0 -4 0 -3 0 -5 0 -3 0 -4 0 -4 0 -4 2 -4 0 -3 0 -4 0 -4 2 -4 0 -3 0 -4 1 -4 0 -4 0 -4 2 -3 0 -4 2 -4 0 -4 2 -4 0 -3 2 -4 1 -4 0 -4 2 -4 3 -3 0 -4 2 -4 1 -4 2 -4 2 -3 2 -5 2 -3 2 -4 1 -4 5 -4 2 -3 3 -4 2 -4 4 -4 4 -4 4 -3 5 -4 8 -4 20 4 16 4 8 3 6 4 3 4 5 4 3 4 2 3 4 4 2 4 3 4 3 3 2 5 2 3 2 4 1 4 2 4 2 4 2 3 0 4 2 4 3 4 0 4 1 3 2 4 0 4 2 4 0 4 2 3 0 4 1 4 0 4 0 4 2 3 0 4 0 4 2 4 0 3 0 4 0 4 2 4 0 4 0 3 0 5 0 3 0 4 0 4 0 4 0 4 0 8 0 3 0 4 0 4 0 4 0 4 0 3 0 4 0 4 0 4 0 3 -2 4 0 4 0 4 0 4 -2 3 0 4 0 4 -2 4 0 4 0 4 -1 4 0 3 -2 4 0 4 -2 4 0 4 -2 3 -1 4 0 4 -3 4 -2 4 0 3 -2 4 -2 4 -2 4 -1 3 -2 4 -2 4 -2 4 -3 4 -3 3 -2 4 -4 4 -2 4 -3 4 -5 3 -3 4 -6 4 -8 5 -16 0 0" stroke="#5A5A5A" stroke-width="20" fill="#5A5A5A" />
    <path d="M 3701 22772 l -4 -20 -3 -8 -3 -5 -4 -4 -3 -4 -3 -4 -3 -2 -4 -3 -3 -2 -4 -5 -3 -1 -3 -2 -3 -2 -4 -2 -3 -2 -3 -2 -4 -1 -3 -2 -4 0 -3 -3 -3 -2 -3 0 -4 -1 -3 -2 -3 0 -4 -2 -3 0 -4 -2 -3 0 -3 -2 -3 0 -4 0 -3 -1 -3 0 -4 0 -3 -2 -4 0 -3 0 -3 0 -3 -2 -4 0 -3 0 -3 0 -4 0 -3 0 -3 0 -4 0 -3 0 -3 0 -6 0 -4 0 -3 0 -4 0 -3 0 -3 0 -4 0 -3 0 -3 0 -3 0 -4 2 -3 0 -4 0 -3 0 -3 2 -3 0 -4 0 -3 1 -3 0 -4 0 -3 2 -4 0 -3 2 -3 0 -3 2 -4 0 -3 2 -3 1 -4 0 -3 2 -4 3 -3 0 -3 2 -3 1 -4 2 -3 2 -3 2 -4 2 -3 2 -4 1 -3 5 -3 2 -3 3 -4 2 -3 4 -3 4 -4 4 -3 5 -3 8 -3 20 3 16 3 8 3 6 4 3 3 5 3 3 4 2 3 4 3 2 3 3 4 3 3 2 4 2 3 2 3 1 4 2 3 2 3 2 3 0 4 2 3 3 4 0 3 1 3 2 4 0 3 2 3 0 3 2 4 0 3 1 4 0 3 0 3 2 4 0 3 0 3 2 3 0 4 0 3 0 4 2 3 0 3 0 3 0 4 0 3 0 3 0 4 0 3 0 4 0 6 0 3 0 3 0 4 0 3 0 3 0 4 0 3 0 3 0 4 0 3 -2 3 0 3 0 4 0 3 -2 4 0 3 0 3 -2 4 0 3 0 3 -1 3 0 4 -2 3 0 4 -2 3 0 3 -2 4 -1 3 0 3 -3 3 -2 4 0 3 -2 4 -2 3 -2 3 -1 4 -2 3 -2 3 -2 3 -3 4 -3 3 -2 4 -4 3 -2 3 -3 3 -5 4 -3 3 -6 3 -8 4 -16 0 0" stroke="#808080" stroke-width="20" fill="#808080" />
    <path d="M 3678 22772 l -4 -20 -3 -8 -2 -5 -4 -4 -2 -4 -3 -4 -3 -2 -3 -3 -3 -2 -3 -5 -2 -1 -3 -2 -3 -2 -3 -2 -3 -2 -3 -2 -2 -1 -3 -2 -3 0 -3 -3 -2 -2 -3 0 -3 -1 -3 -2 -3 0 -3 -2 -3 0 -2 -2 -3 0 -3 -2 -4 0 -2 0 -3 -1 -2 0 -4 0 -2 -2 -3 0 -3 0 -3 0 -3 -2 -3 0 -2 0 -3 0 -3 0 -3 0 -3 0 -3 0 -3 0 -2 0 -6 0 -3 0 -3 0 -3 0 -2 0 -3 0 -3 0 -3 0 -3 0 -3 0 -2 2 -4 0 -2 0 -3 0 -3 2 -3 0 -3 0 -3 1 -3 0 -2 0 -3 2 -3 0 -3 2 -3 0 -3 2 -2 0 -3 2 -3 1 -3 0 -3 2 -3 3 -2 0 -3 2 -3 1 -3 2 -3 2 -3 2 -2 2 -4 2 -3 1 -2 5 -3 2 -3 3 -3 2 -3 4 -3 4 -2 4 -3 5 -3 8 -2 20 2 16 3 8 3 6 2 3 3 5 3 3 3 2 3 4 3 2 2 3 3 3 4 2 2 2 3 2 3 1 3 2 3 2 3 2 2 0 3 2 3 3 3 0 3 1 3 2 2 0 3 2 3 0 3 2 3 0 3 1 2 0 3 0 3 2 3 0 3 0 3 2 3 0 2 0 4 0 2 2 3 0 3 0 3 0 3 0 3 0 2 0 3 0 3 0 3 0 6 0 2 0 3 0 3 0 3 0 3 0 3 0 3 0 2 0 3 0 3 -2 3 0 3 0 3 0 2 -2 4 0 2 0 3 -2 2 0 4 0 3 -1 3 0 2 -2 3 0 3 -2 3 0 3 -2 3 -1 3 0 2 -3 3 -2 3 0 3 -2 2 -2 3 -2 3 -1 3 -2 3 -2 3 -2 2 -3 3 -3 3 -2 3 -4 3 -2 3 -3 2 -5 4 -3 2 -6 3 -8 4 -16 0 0" stroke="#969696" stroke-width="20" fill="#969696" />
    <path d="M 3654 22772 l -2 -20 -2 -8 -3 -5 -2 -4 -3 -4 -2 -4 -3 -2 -2 -3 -2 -2 -3 -5 -2 -1 -2 -2 -3 -2 -2 -2 -3 -2 -2 -2 -2 -1 -3 -2 -2 0 -2 -3 -3 -2 -2 0 -3 -1 -2 -2 -2 0 -3 -2 -2 0 -2 -2 -3 0 -2 -2 -2 0 -3 0 -2 -1 -3 0 -2 0 -3 -2 -2 0 -2 0 -2 0 -3 -2 -2 0 -3 0 -2 0 -3 0 -2 0 -2 0 -3 0 -2 0 -2 0 -5 0 -3 0 -2 0 -2 0 -3 0 -2 0 -2 0 -3 0 -2 0 -3 0 -2 2 -2 0 -3 0 -2 0 -2 2 -3 0 -2 0 -2 1 -3 0 -2 0 -3 2 -2 0 -3 2 -2 0 -2 2 -2 0 -3 2 -2 1 -3 0 -2 2 -3 3 -2 0 -2 2 -2 1 -3 2 -2 2 -3 2 -2 2 -3 2 -2 1 -2 5 -3 2 -2 3 -2 2 -3 4 -2 4 -3 4 -2 5 -2 8 -3 20 3 16 2 8 2 6 3 3 2 5 3 3 2 2 2 4 3 2 2 3 2 3 3 2 2 2 3 2 2 1 3 2 2 2 2 2 2 0 3 2 2 3 3 0 2 1 3 2 2 0 2 2 2 0 3 2 2 0 3 1 2 0 3 0 2 2 2 0 3 0 2 2 2 0 3 0 2 0 2 2 3 0 2 0 3 0 2 0 2 0 3 0 2 0 2 0 3 0 5 0 2 0 2 0 3 0 2 0 2 0 3 0 2 0 3 0 2 0 3 -2 2 0 2 0 2 0 3 -2 2 0 3 0 2 -2 3 0 2 0 2 -1 3 0 2 -2 2 0 3 -2 2 0 2 -2 3 -1 2 0 3 -3 2 -2 2 0 3 -2 2 -2 2 -2 3 -1 2 -2 3 -2 2 -2 2 -3 3 -3 2 -2 2 -4 3 -2 2 -3 3 -5 2 -3 3 -6 2 -8 2 -16 0 0" stroke="#C0C0C0" stroke-width="20" fill="#C0C0C0" />
    <path d="M 3631 22772 l -3 -20 -2 -8 -1 -5 -2 -4 -2 -4 -2 -4 -2 -2 -2 -3 -2 -2 -2 -5 -2 -1 -2 -2 -1 -2 -2 -2 -2 -2 -2 -2 -2 -1 -2 -2 -2 0 -2 -3 -2 -2 -2 0 -1 -1 -2 -2 -2 0 -2 -2 -2 0 -2 -2 -2 0 -2 -2 -2 0 -1 0 -2 -1 -2 0 -2 0 -2 -2 -2 0 -2 0 -2 0 -2 -2 -2 0 -1 0 -2 0 -2 0 -2 0 -2 0 -2 0 -2 0 -2 0 -4 0 -1 0 -2 0 -2 0 -2 0 -2 0 -2 0 -2 0 -2 0 -2 0 -1 2 -2 0 -3 0 -2 0 -1 2 -2 0 -2 0 -3 1 -1 0 -2 0 -2 2 -2 0 -2 2 -2 0 -1 2 -2 0 -2 2 -2 1 -2 0 -2 2 -2 3 -2 0 -2 2 -2 1 -2 2 -2 2 -2 2 -1 2 -2 2 -2 1 -2 5 -2 2 -2 3 -2 2 -2 4 -2 4 -2 4 -1 5 -2 8 -2 20 2 16 2 8 1 6 2 3 2 5 2 3 2 2 2 4 2 2 2 3 2 3 2 2 1 2 2 2 2 1 2 2 2 2 2 2 2 0 2 2 2 3 2 0 2 1 2 2 2 0 1 2 2 0 2 2 2 0 2 1 2 0 1 0 3 2 2 0 2 0 1 2 2 0 3 0 2 0 1 2 2 0 2 0 2 0 2 0 2 0 2 0 2 0 2 0 1 0 4 0 2 0 2 0 2 0 2 0 2 0 2 0 2 0 1 0 2 0 2 -2 2 0 2 0 2 0 2 -2 2 0 2 0 2 -2 1 0 2 0 2 -1 2 0 2 -2 2 0 2 -2 2 0 2 -2 1 -1 2 0 2 -3 2 -2 2 0 2 -2 2 -2 2 -2 2 -1 2 -2 1 -2 2 -2 2 -3 2 -3 2 -2 2 -4 2 -2 2 -3 2 -5 2 -3 1 -6 2 -8 3 -16 0 0" stroke="#D2D2D2" stroke-width="20" fill="#D2D2D2" />
    <path d="M 3607 22772 l -1 -20 -2 -8 -1 -5 -2 -4 -1 -4 -2 -4 -1 -2 -1 -3 -2 -2 -1 -5 -1 -1 -2 -2 -2 -2 -1 -2 -1 -2 -2 -2 -1 -1 -2 -2 -2 0 -1 -3 -1 -2 -2 0 -1 -1 -2 -2 -1 0 -1 -2 -2 0 -1 -2 -1 0 -2 -2 -1 0 -1 0 -2 -1 -2 0 -1 0 -2 -2 -1 0 -2 0 -1 0 -2 -2 -1 0 -1 0 -2 0 -1 0 -2 0 -1 0 -1 0 -2 0 -1 0 -3 0 -2 0 -1 0 -1 0 -2 0 -1 0 -2 0 -1 0 -2 0 -1 0 -2 2 -1 0 -1 0 -2 0 -1 2 -1 0 -2 0 -2 1 -1 0 -2 0 -1 2 -1 0 -2 2 -2 0 0 2 -2 0 -1 2 -2 1 -1 0 -1 2 -2 3 -2 0 -1 2 -2 1 -1 2 -2 2 -1 2 -2 2 -1 2 -1 1 -2 5 -1 2 -1 3 -2 2 -1 4 -2 4 -1 4 -2 5 -1 8 -1 20 1 16 1 8 2 6 1 3 2 5 1 3 2 2 1 4 1 2 2 3 1 3 1 2 2 2 1 2 2 1 1 2 2 2 1 2 2 0 2 2 1 3 1 0 2 1 1 2 2 0 0 2 2 0 2 2 1 0 1 1 2 0 1 0 2 2 2 0 1 0 1 2 2 0 1 0 1 0 2 2 1 0 2 0 1 0 2 0 1 0 2 0 1 0 1 0 2 0 3 0 1 0 2 0 1 0 1 0 2 0 1 0 2 0 1 0 1 0 2 -2 1 0 2 0 1 0 2 -2 1 0 2 0 2 -2 1 0 1 0 2 -1 1 0 1 -2 2 0 1 -2 1 0 2 -2 1 -1 2 0 1 -3 1 -2 2 0 2 -2 1 -2 2 -2 1 -1 1 -2 2 -2 2 -2 1 -3 1 -3 2 -2 1 -4 1 -2 2 -3 1 -5 2 -3 1 -6 2 -8 1 -16 0 0" stroke="#DEDEDE" stroke-width="20" fill="#DEDEDE" />
    <path d="M 3583 22771 l -2 -20 0 -7 -2 -6 0 -4 -2 -3 0 -4 -1 -2 -1 -4 -1 -2 -1 -4 -1 -2 -1 -2 -1 -2 -1 -1 -1 -2 -1 -2 -1 -2 -1 -2 -1 0 -1 -2 -1 -2 0 0 -2 -2 0 -1 -1 0 -1 -3 -1 0 -1 -1 -1 0 -1 -2 -1 0 -1 0 -1 -2 -1 0 -1 0 -1 -2 -1 0 -1 0 -1 0 0 -1 -1 0 -1 0 -1 0 -1 0 -1 0 -1 0 -1 0 -1 0 -1 0 -2 0 -1 0 -1 0 0 0 -2 0 0 0 -1 0 -1 0 -1 0 -1 0 -1 1 -1 0 -1 0 -1 0 -1 2 -1 0 -1 0 -1 2 -1 0 -1 0 -1 2 0 0 -2 1 0 0 -1 3 -1 0 -1 1 -1 2 -1 0 -1 2 -1 2 -1 0 -1 2 -1 2 -1 2 -1 2 -1 1 -1 2 -1 2 0 2 -1 4 -1 2 -1 4 -1 2 -1 4 -1 3 -1 4 -1 6 -1 7 0 20 0 16 1 9 1 5 1 4 1 4 1 4 1 2 1 4 1 1 1 4 0 3 1 1 1 2 1 2 1 2 1 2 1 1 1 2 1 0 1 2 1 3 1 0 1 1 1 2 1 0 1 2 0 0 2 2 0 0 1 2 1 0 1 0 1 2 1 0 1 0 1 1 1 0 1 0 1 0 1 3 1 0 1 0 1 0 1 0 0 0 2 0 0 0 1 0 1 0 2 0 1 0 1 0 1 0 1 0 1 0 1 0 1 0 1 0 1 0 0 -3 1 0 1 0 1 0 1 -1 1 0 1 0 1 -2 1 0 1 0 1 -2 1 0 1 -2 1 0 1 -2 1 0 0 -2 2 -1 0 0 1 -3 1 -2 1 0 1 -2 1 -1 1 -2 1 -2 1 -2 1 -2 1 -1 1 -3 1 -4 1 -1 1 -4 1 -2 0 -4 2 -4 0 -4 2 -5 0 -9 2 -16 0 0" stroke="#F0F0F0" stroke-width="20" fill="#F0F0F0" />
    <path d="M 3558 22771 l -1 -20 0 -7 -1 -6 0 -4 -1 -3 0 -4 -1 -2 0 -4 -1 -2 0 -4 -1 -2 0 -2 -1 -2 0 -1 0 -2 -1 -2 -1 -2 0 -2 0 0 -1 -2 0 -2 -1 0 0 -2 -1 -1 0 -3 -1 0 0 -1 -1 0 0 -2 -1 0 0 0 -1 -2 0 0 -1 0 -1 -2 0 0 0 0 -1 0 0 -1 -1 0 0 0 0 0 -1 0 0 0 -1 0 0 0 -1 0 0 0 -1 0 -1 0 0 0 -1 0 0 0 0 0 -1 0 -1 0 0 0 0 0 -1 1 0 0 -1 0 0 0 -1 2 0 0 -1 0 0 2 -1 0 0 0 -1 2 0 0 -1 1 0 0 -1 3 0 0 -1 1 0 2 0 0 -1 2 -1 2 0 0 0 2 -1 2 0 2 -1 2 0 1 -1 2 0 2 -1 2 0 4 0 2 -1 4 -1 2 0 4 0 3 -1 4 -1 6 0 7 0 20 0 16 0 9 1 5 1 4 0 4 0 4 1 2 1 4 0 1 0 4 1 3 0 1 1 2 0 2 1 2 0 2 1 1 0 2 0 0 1 2 1 3 0 0 0 1 1 2 0 0 1 2 0 0 1 2 0 0 1 2 0 0 1 0 0 2 1 0 0 0 1 1 0 0 1 0 0 0 1 3 0 0 0 0 1 0 1 0 0 0 0 0 1 0 0 0 1 0 1 0 0 0 1 0 0 0 1 0 0 0 1 0 0 0 0 0 1 0 0 -3 1 0 0 0 0 0 1 -1 1 0 0 0 1 -2 0 0 1 0 0 -2 1 0 0 -2 1 0 0 -2 1 -2 0 -1 1 0 0 -3 1 -2 0 0 0 -2 1 -1 1 -2 0 -2 0 -2 1 -2 0 -1 1 -3 0 -4 1 -1 0 -4 1 -2 0 -4 1 -4 0 -4 1 -5 0 -9 1 -16 0 0" stroke="#FFFFFF" stroke-width="20" fill="#FFFFFF" />
    <path d="M 3773 21832 l -5 -20 -4 -7 -5 -6 -5 -4 -5 -3 -5 -5 -4 -1 -5 -4 -5 -2 -5 -4 -4 -2 -5 -2 -5 -2 -5 -2 -4 -1 -5 -2 -5 -2 -5 -2 -4 0 -5 -2 -5 -2 -4 0 -5 -2 -5 -2 -5 0 -4 -2 -5 0 -5 -1 -5 0 -5 -2 -4 0 -5 0 -5 -2 -5 0 -4 0 -5 -2 -5 0 -5 0 -4 0 -5 -2 -5 0 -5 0 -5 0 -4 0 -5 0 -5 0 -5 0 -4 0 -5 0 -10 0 -4 0 -5 0 -5 0 -5 0 -4 0 -5 0 -5 0 -4 0 -5 0 -5 2 -5 0 -4 0 -5 0 -5 2 -5 0 -4 0 -5 2 -5 0 -5 0 -5 2 -4 0 -5 1 -5 0 -5 2 -4 0 -5 2 -5 2 -5 0 -4 2 -5 2 -5 0 -5 2 -5 2 -4 2 -5 1 -5 2 -5 2 -4 2 -5 2 -5 4 -5 2 -4 4 -5 1 -5 5 -4 3 -5 4 -5 6 -5 7 -4 20 4 16 5 8 5 6 5 4 4 4 5 4 5 2 4 3 5 2 5 4 5 2 4 2 5 2 5 2 5 2 4 1 5 2 5 2 5 0 5 2 4 3 5 0 5 1 5 2 4 0 5 2 5 0 5 2 4 0 5 1 5 0 5 0 5 2 4 0 5 0 5 2 5 0 4 0 5 0 5 3 5 0 4 0 5 0 5 0 4 0 5 0 5 0 5 0 4 0 10 0 5 0 4 0 5 0 5 0 5 0 4 0 5 0 5 0 5 0 5 -3 4 0 5 0 5 0 5 -2 4 0 5 0 5 -2 5 0 4 0 5 -1 5 0 5 -2 5 0 4 -2 5 0 5 -2 5 -1 4 0 5 -3 5 -2 4 0 5 -2 5 -2 5 -1 4 -2 5 -2 5 -2 5 -2 4 -2 5 -4 5 -2 5 -3 4 -2 5 -4 5 -4 5 -4 5 -6 4 -8 5 -16 0 0" stroke="#000000" stroke-width="20" fill="#000000" />
    <path d="M 3750 21832 l -5 -20 -4 -8 -5 -5 -4 -4 -4 -4 -4 -4 -5 -2 -4 -3 -4 -2 -5 -5 -4 -1 -4 -2 -4 -2 -5 -2 -4 -2 -4 -1 -5 -2 -4 -2 -4 0 -4 -3 -5 -1 -4 0 -4 -2 -4 -2 -5 0 -4 -2 -4 0 -5 -2 -4 0 -4 -2 -4 0 -5 0 -4 -1 -4 0 -5 0 -4 -2 -4 0 -4 0 -5 0 -4 -2 -4 0 -4 0 -5 0 -4 0 -4 0 -5 0 -4 0 -4 0 -4 0 -9 0 -4 0 -5 0 -4 0 -4 0 -4 0 -5 0 -4 0 -4 0 -4 0 -5 2 -4 0 -4 0 -5 0 -4 2 -4 0 -4 0 -5 1 -5 0 -4 0 -4 2 -4 0 -5 2 -4 0 -4 2 -4 0 -4 2 -4 2 -5 0 -4 1 -4 3 -5 0 -4 2 -5 2 -4 1 -4 2 -5 2 -4 2 -4 2 -4 1 -5 5 -4 2 -4 3 -5 2 -4 4 -4 4 -4 4 -5 5 -4 8 -4 20 4 16 4 8 5 6 4 4 4 4 4 4 5 1 4 4 4 2 5 3 4 3 4 2 4 2 5 2 4 1 4 2 5 2 4 2 5 0 4 2 4 2 5 0 4 2 4 2 4 0 4 2 4 0 5 2 4 0 4 1 4 0 5 0 5 2 4 0 4 0 4 2 5 0 4 0 4 0 5 2 4 0 4 0 4 0 5 0 4 0 4 0 4 0 5 0 4 0 9 0 4 0 4 0 4 0 5 0 4 0 4 0 5 0 4 0 4 0 4 -2 5 0 4 0 4 0 4 -2 5 0 4 0 4 -2 5 0 4 0 4 -1 4 0 5 -2 4 0 4 -2 5 0 4 -2 4 -2 4 0 5 -2 4 -2 4 0 4 -2 5 -2 4 -2 4 -1 5 -2 4 -2 4 -2 4 -3 5 -3 4 -2 4 -4 5 -1 4 -4 4 -4 4 -4 5 -6 4 -8 5 -16 0 0" stroke="#3C3C3C" stroke-width="20" fill="#3C3C3C" />
    <path d="M 3727 21832 l -5 -20 -4 -7 -4 -6 -3 -4 -4 -3 -4 -5 -4 -1 -4 -4 -3 -2 -4 -4 -4 -2 -4 -2 -4 -2 -3 -2 -4 -1 -4 -2 -4 -2 -3 -2 -4 0 -4 -2 -4 -2 -4 0 -3 -2 -4 -2 -4 0 -4 -2 -4 0 -3 -1 -4 0 -4 -2 -4 0 -4 0 -4 -2 -4 0 -3 0 -4 -2 -4 0 -4 0 -4 0 -3 -2 -4 0 -4 0 -4 0 -3 0 -4 0 -4 0 -4 0 -4 0 -3 0 -8 0 -4 0 -4 0 -4 0 -4 0 -3 0 -5 0 -3 0 -4 0 -4 0 -4 2 -4 0 -3 0 -4 0 -4 2 -4 0 -3 0 -4 2 -4 0 -4 0 -4 2 -3 0 -4 1 -4 0 -4 2 -4 0 -3 2 -4 2 -4 0 -4 2 -4 2 -3 0 -4 2 -4 2 -4 2 -4 1 -3 2 -5 2 -3 2 -4 2 -4 4 -4 2 -3 4 -4 1 -4 5 -4 3 -4 4 -3 6 -4 7 -4 20 4 16 4 8 3 6 4 4 4 4 4 4 4 2 3 3 4 2 4 4 4 2 3 2 5 2 3 2 4 2 4 1 4 2 4 2 3 0 4 2 4 3 4 0 4 1 3 2 4 0 4 2 4 0 4 2 3 0 4 1 4 0 4 0 4 2 3 0 4 0 4 2 4 0 3 0 4 0 4 3 4 0 4 0 3 0 5 0 3 0 4 0 4 0 4 0 4 0 8 0 3 0 4 0 4 0 4 0 4 0 3 0 4 0 4 0 4 0 3 -3 4 0 4 0 4 0 4 -2 3 0 4 0 4 -2 4 0 4 0 4 -1 4 0 3 -2 4 0 4 -2 4 0 4 -2 3 -1 4 0 4 -3 4 -2 4 0 3 -2 4 -2 4 -1 4 -2 3 -2 4 -2 4 -2 4 -2 4 -4 3 -2 4 -3 4 -2 4 -4 4 -4 3 -4 4 -6 4 -8 5 -16 0 0" stroke="#5A5A5A" stroke-width="20" fill="#5A5A5A" />
    <path d="M 3701 21832 l -4 -20 -3 -7 -3 -6 -4 -4 -3 -3 -3 -5 -3 -1 -4 -4 -3 -2 -4 -4 -3 -2 -3 -2 -3 -2 -4 -2 -3 -1 -3 -2 -4 -2 -3 -2 -4 0 -3 -2 -3 -2 -3 0 -4 -2 -3 -2 -3 0 -4 -2 -3 0 -4 -1 -3 0 -3 -2 -3 0 -4 0 -3 -2 -3 0 -4 0 -3 -2 -4 0 -3 0 -3 0 -3 -2 -4 0 -3 0 -3 0 -4 0 -3 0 -3 0 -4 0 -3 0 -3 0 -6 0 -4 0 -3 0 -4 0 -3 0 -3 0 -4 0 -3 0 -3 0 -3 0 -4 2 -3 0 -4 0 -3 0 -3 2 -3 0 -4 0 -3 2 -3 0 -4 0 -3 2 -4 0 -3 1 -3 0 -3 2 -4 0 -3 2 -3 2 -4 0 -3 2 -4 2 -3 0 -3 2 -3 2 -4 2 -3 1 -3 2 -4 2 -3 2 -4 2 -3 4 -3 2 -3 4 -4 1 -3 5 -3 3 -4 4 -3 6 -3 7 -3 20 3 16 3 8 3 6 4 4 3 4 3 4 4 2 3 3 3 2 3 4 4 2 3 2 4 2 3 2 3 2 4 1 3 2 3 2 3 0 4 2 3 3 4 0 3 1 3 2 4 0 3 2 3 0 3 2 4 0 3 1 4 0 3 0 3 2 4 0 3 0 3 2 3 0 4 0 3 0 4 3 3 0 3 0 3 0 4 0 3 0 3 0 4 0 3 0 4 0 6 0 3 0 3 0 4 0 3 0 3 0 4 0 3 0 3 0 4 0 3 -3 3 0 3 0 4 0 3 -2 4 0 3 0 3 -2 4 0 3 0 3 -1 3 0 4 -2 3 0 4 -2 3 0 3 -2 4 -1 3 0 3 -3 3 -2 4 0 3 -2 4 -2 3 -1 3 -2 4 -2 3 -2 3 -2 3 -2 4 -4 3 -2 4 -3 3 -2 3 -4 3 -4 4 -4 3 -6 3 -8 4 -16 0 0" stroke="#808080" stroke-width="20" fill="#808080" />
    <path d="M 3678 21832 l -4 -20 -3 -7 -2 -6 -4 -4 -2 -3 -3 -5 -3 -1 -3 -4 -3 -2 -3 -4 -2 -2 -3 -2 -3 -2 -3 -2 -3 -1 -3 -2 -2 -2 -3 -2 -3 0 -3 -2 -2 -2 -3 0 -3 -2 -3 -2 -3 0 -3 -2 -3 0 -2 -1 -3 0 -3 -2 -4 0 -2 0 -3 -2 -2 0 -4 0 -2 -2 -3 0 -3 0 -3 0 -3 -2 -3 0 -2 0 -3 0 -3 0 -3 0 -3 0 -3 0 -3 0 -2 0 -6 0 -3 0 -3 0 -3 0 -2 0 -3 0 -3 0 -3 0 -3 0 -3 0 -2 2 -4 0 -2 0 -3 0 -3 2 -3 0 -3 0 -3 2 -3 0 -2 0 -3 2 -3 0 -3 1 -3 0 -3 2 -2 0 -3 2 -3 2 -3 0 -3 2 -3 2 -2 0 -3 2 -3 2 -3 2 -3 1 -3 2 -2 2 -4 2 -3 2 -2 4 -3 2 -3 4 -3 1 -3 5 -3 3 -2 4 -3 6 -3 7 -2 20 2 16 3 8 3 6 2 4 3 4 3 4 3 2 3 3 3 2 2 4 3 2 4 2 2 2 3 2 3 2 3 1 3 2 3 2 2 0 3 2 3 3 3 0 3 1 3 2 2 0 3 2 3 0 3 2 3 0 3 1 2 0 3 0 3 2 3 0 3 0 3 2 3 0 2 0 4 0 2 3 3 0 3 0 3 0 3 0 3 0 2 0 3 0 3 0 3 0 6 0 2 0 3 0 3 0 3 0 3 0 3 0 3 0 2 0 3 0 3 -3 3 0 3 0 3 0 2 -2 4 0 2 0 3 -2 2 0 4 0 3 -1 3 0 2 -2 3 0 3 -2 3 0 3 -2 3 -1 3 0 2 -3 3 -2 3 0 3 -2 2 -2 3 -1 3 -2 3 -2 3 -2 3 -2 2 -2 3 -4 3 -2 3 -3 3 -2 3 -4 2 -4 4 -4 2 -6 3 -8 4 -16 0 0" stroke="#969696" stroke-width="20" fill="#969696" />
    <path d="M 3654 21832 l -2 -20 -2 -7 -3 -6 -2 -4 -3 -3 -2 -5 -3 -1 -2 -4 -2 -2 -3 -4 -2 -2 -2 -2 -3 -2 -2 -2 -3 -1 -2 -2 -2 -2 -3 -2 -2 0 -2 -2 -3 -2 -2 0 -3 -2 -2 -2 -2 0 -3 -2 -2 0 -2 -1 -3 0 -2 -2 -2 0 -3 0 -2 -2 -3 0 -2 0 -3 -2 -2 0 -2 0 -2 0 -3 -2 -2 0 -3 0 -2 0 -3 0 -2 0 -2 0 -3 0 -2 0 -2 0 -5 0 -3 0 -2 0 -2 0 -3 0 -2 0 -2 0 -3 0 -2 0 -3 0 -2 2 -2 0 -3 0 -2 0 -2 2 -3 0 -2 0 -2 2 -3 0 -2 0 -3 2 -2 0 -3 1 -2 0 -2 2 -2 0 -3 2 -2 2 -3 0 -2 2 -3 2 -2 0 -2 2 -2 2 -3 2 -2 1 -3 2 -2 2 -3 2 -2 2 -2 4 -3 2 -2 4 -2 1 -3 5 -2 3 -3 4 -2 6 -2 7 -3 20 3 16 2 8 2 6 3 4 2 4 3 4 2 2 2 3 3 2 2 4 2 2 3 2 2 2 3 2 2 2 3 1 2 2 2 2 2 0 3 2 2 3 3 0 2 1 3 2 2 0 2 2 2 0 3 2 2 0 3 1 2 0 3 0 2 2 2 0 3 0 2 2 2 0 3 0 2 0 2 3 3 0 2 0 3 0 2 0 2 0 3 0 2 0 2 0 3 0 5 0 2 0 2 0 3 0 2 0 2 0 3 0 2 0 3 0 2 0 3 -3 2 0 2 0 2 0 3 -2 2 0 3 0 2 -2 3 0 2 0 2 -1 3 0 2 -2 2 0 3 -2 2 0 2 -2 3 -1 2 0 3 -3 2 -2 2 0 3 -2 2 -2 2 -1 3 -2 2 -2 3 -2 2 -2 2 -2 3 -4 2 -2 2 -3 3 -2 2 -4 3 -4 2 -4 3 -6 2 -8 2 -16 0 0" stroke="#C0C0C0" stroke-width="20" fill="#C0C0C0" />
    <path d="M 3631 21832 l -3 -20 -2 -7 -1 -6 -2 -4 -2 -3 -2 -5 -2 -1 -2 -4 -2 -2 -2 -4 -2 -2 -2 -2 -1 -2 -2 -2 -2 -1 -2 -2 -2 -2 -2 -2 -2 0 -2 -2 -2 -2 -2 0 -1 -2 -2 -2 -2 0 -2 -2 -2 0 -2 -1 -2 0 -2 -2 -2 0 -1 0 -2 -2 -2 0 -2 0 -2 -2 -2 0 -2 0 -2 0 -2 -2 -2 0 -1 0 -2 0 -2 0 -2 0 -2 0 -2 0 -2 0 -2 0 -4 0 -1 0 -2 0 -2 0 -2 0 -2 0 -2 0 -2 0 -2 0 -2 0 -1 2 -2 0 -3 0 -2 0 -1 2 -2 0 -2 0 -3 2 -1 0 -2 0 -2 2 -2 0 -2 1 -2 0 -1 2 -2 0 -2 2 -2 2 -2 0 -2 2 -2 2 -2 0 -2 2 -2 2 -2 2 -2 1 -2 2 -1 2 -2 2 -2 2 -2 4 -2 2 -2 4 -2 1 -2 5 -2 3 -2 4 -1 6 -2 7 -2 20 2 16 2 8 1 6 2 4 2 4 2 4 2 2 2 3 2 2 2 4 2 2 2 2 1 2 2 2 2 2 2 1 2 2 2 2 2 0 2 2 2 3 2 0 2 1 2 2 2 0 1 2 2 0 2 2 2 0 2 1 2 0 1 0 3 2 2 0 2 0 1 2 2 0 3 0 2 0 1 3 2 0 2 0 2 0 2 0 2 0 2 0 2 0 2 0 1 0 4 0 2 0 2 0 2 0 2 0 2 0 2 0 2 0 1 0 2 0 2 -3 2 0 2 0 2 0 2 -2 2 0 2 0 2 -2 1 0 2 0 2 -1 2 0 2 -2 2 0 2 -2 2 0 2 -2 1 -1 2 0 2 -3 2 -2 2 0 2 -2 2 -2 2 -1 2 -2 2 -2 1 -2 2 -2 2 -2 2 -4 2 -2 2 -3 2 -2 2 -4 2 -4 2 -4 1 -6 2 -8 3 -16 0 0" stroke="#D2D2D2" stroke-width="20" fill="#D2D2D2" />
    <path d="M 3607 21832 l -1 -20 -2 -7 -1 -6 -2 -4 -1 -3 -2 -5 -1 -1 -1 -4 -2 -2 -1 -4 -1 -2 -2 -2 -2 -2 -1 -2 -1 -1 -2 -2 -1 -2 -2 -2 -2 0 -1 -2 -1 -2 -2 0 -1 -2 -2 -2 -1 0 -1 -2 -2 0 -1 -1 -1 0 -2 -2 -1 0 -1 0 -2 -2 -2 0 -1 0 -2 -2 -1 0 -2 0 -1 0 -2 -2 -1 0 -1 0 -2 0 -1 0 -2 0 -1 0 -1 0 -2 0 -1 0 -3 0 -2 0 -1 0 -1 0 -2 0 -1 0 -2 0 -1 0 -2 0 -1 0 -2 2 -1 0 -1 0 -2 0 -1 2 -1 0 -2 0 -2 2 -1 0 -2 0 -1 2 -1 0 -2 1 -2 0 0 2 -2 0 -1 2 -2 2 -1 0 -1 2 -2 2 -2 0 -1 2 -2 2 -1 2 -2 1 -1 2 -2 2 -1 2 -1 2 -2 4 -1 2 -1 4 -2 1 -1 5 -2 3 -1 4 -2 6 -1 7 -1 20 1 16 1 8 2 6 1 4 2 4 1 4 2 2 1 3 1 2 2 4 1 2 1 2 2 2 1 2 2 2 1 1 2 2 1 2 2 0 2 2 1 3 1 0 2 1 1 2 2 0 0 2 2 0 2 2 1 0 1 1 2 0 1 0 2 2 2 0 1 0 1 2 2 0 1 0 1 0 2 3 1 0 2 0 1 0 2 0 1 0 2 0 1 0 1 0 2 0 3 0 1 0 2 0 1 0 1 0 2 0 1 0 2 0 1 0 1 0 2 -3 1 0 2 0 1 0 2 -2 1 0 2 0 2 -2 1 0 1 0 2 -1 1 0 1 -2 2 0 1 -2 1 0 2 -2 1 -1 2 0 1 -3 1 -2 2 0 2 -2 1 -2 2 -1 1 -2 1 -2 2 -2 2 -2 1 -2 1 -4 2 -2 1 -3 1 -2 2 -4 1 -4 2 -4 1 -6 2 -8 1 -16 0 0" stroke="#DEDEDE" stroke-width="20" fill="#DEDEDE" />
    <path d="M 3583 21832 l -2 -20 0 -8 -2 -5 0 -4 -2 -4 0 -4 -1 -2 -1 -3 -1 -2 -1 -5 -1 -1 -1 -2 -1 -2 -1 -2 -1 -2 -1 -1 -1 -2 -1 -2 -1 0 -1 -3 -1 -1 0 0 -2 -2 0 -2 -1 0 -1 -2 -1 0 -1 -2 -1 0 -1 -2 -1 0 -1 0 -1 -1 -1 0 -1 0 -1 -2 -1 0 -1 0 -1 0 0 -2 -1 0 -1 0 -1 0 -1 0 -1 0 -1 0 -1 0 -1 0 -1 0 -2 0 -1 0 -1 0 0 0 -2 0 0 0 -1 0 -1 0 -1 0 -1 0 -1 2 -1 0 -1 0 -1 0 -1 2 -1 0 -1 0 -1 1 -1 0 -1 0 -1 2 0 0 -2 2 0 0 -1 2 -1 0 -1 2 -1 2 -1 0 -1 1 -1 3 -1 0 -1 2 -1 2 -1 1 -1 2 -1 2 -1 2 -1 2 0 1 -1 5 -1 2 -1 3 -1 2 -1 4 -1 4 -1 4 -1 5 -1 8 0 20 0 16 1 8 1 6 1 3 1 5 1 3 1 2 1 4 1 2 1 3 0 3 1 1 1 3 1 1 1 2 1 2 1 2 1 2 1 0 1 1 1 3 1 0 1 2 1 1 1 0 1 2 0 0 2 2 0 0 1 2 1 0 1 0 1 2 1 0 1 0 1 1 1 0 1 0 1 0 1 3 1 0 1 0 1 0 1 0 0 0 2 0 0 0 1 0 1 0 2 0 1 0 1 0 1 0 1 0 1 0 1 0 1 0 1 0 1 0 0 -3 1 0 1 0 1 0 1 -1 1 0 1 0 1 -2 1 0 1 0 1 -2 1 0 1 -2 1 0 1 -2 1 0 0 -1 2 -2 0 0 1 -3 1 -1 1 0 1 -2 1 -2 1 -2 1 -2 1 -1 1 -3 1 -1 1 -3 1 -3 1 -2 1 -4 1 -2 0 -3 2 -5 0 -3 2 -6 0 -8 2 -16 0 0" stroke="#F0F0F0" stroke-width="20" fill="#F0F0F0" />
    <path d="M 3558 21832 l -1 -20 0 -8 -1 -5 0 -4 -1 -4 0 -4 -1 -2 0 -3 -1 -2 0 -5 -1 -1 0 -2 -1 -2 0 -2 0 -2 -1 -1 -1 -2 0 -2 0 0 -1 -3 0 -1 -1 0 0 -2 -1 -2 0 -2 -1 0 0 -2 -1 0 0 -2 -1 0 0 0 -1 -1 0 0 -1 0 -1 -2 0 0 0 0 -1 0 0 -2 -1 0 0 0 0 0 -1 0 0 0 -1 0 0 0 -1 0 0 0 -1 0 -1 0 0 0 -1 0 0 0 0 0 -1 0 -1 0 0 0 0 0 -1 2 0 0 -1 0 0 0 -1 2 0 0 -1 0 0 1 -1 0 0 0 -1 2 0 0 -1 2 0 0 -1 2 0 0 -1 2 0 2 0 0 -1 1 -1 3 0 0 0 2 -1 2 0 1 -1 2 0 2 -1 2 0 2 -1 1 0 5 0 2 -1 3 -1 2 0 4 0 4 -1 4 -1 5 0 8 0 20 0 16 0 8 1 6 1 3 0 5 0 3 1 2 1 4 0 2 0 3 1 3 0 1 1 3 0 1 1 2 0 2 1 2 0 2 0 0 1 1 1 3 0 0 0 2 1 1 0 0 1 2 0 0 1 2 0 0 1 2 0 0 1 0 0 2 1 0 0 0 1 1 0 0 1 0 0 0 1 3 0 0 0 0 1 0 1 0 0 0 0 0 1 0 0 0 1 0 1 0 0 0 1 0 0 0 1 0 0 0 1 0 0 0 0 0 1 0 0 -3 1 0 0 0 0 0 1 -1 1 0 0 0 1 -2 0 0 1 0 0 -2 1 0 0 -2 1 0 0 -2 1 -1 0 -2 1 0 0 -3 1 -1 0 0 0 -2 1 -2 1 -2 0 -2 0 -1 1 -3 0 -1 1 -3 0 -3 1 -2 0 -4 1 -2 0 -3 1 -5 0 -3 1 -6 0 -8 1 -16 0 0" stroke="#FFFFFF" stroke-width="20" fill="#FFFFFF" />
    <path d="M 3773 22772 l -5 -20 -4 -8 -5 -5 -5 -4 -5 -4 -5 -4 -4 -2 -5 -3 -5 -2 -5 -5 -4 -1 -5 -2 -5 -2 -5 -2 -4 -2 -5 -2 -5 -1 -5 -2 -4 0 -5 -3 -5 -2 -4 0 -5 -1 -5 -2 -5 0 -4 -2 -5 0 -5 -2 -5 0 -5 -2 -4 0 -5 0 -5 -1 -5 0 -4 0 -5 -2 -5 0 -5 0 -4 0 -5 -2 -5 0 -5 0 -5 0 -4 0 -5 0 -5 0 -5 0 -4 0 -5 0 -10 0 -4 0 -5 0 -5 0 -5 0 -4 0 -5 0 -5 0 -4 0 -5 0 -5 2 -5 0 -4 0 -5 0 -5 2 -5 0 -4 0 -5 1 -5 0 -5 0 -5 2 -4 0 -5 2 -5 0 -5 2 -4 0 -5 2 -5 1 -5 0 -4 2 -5 3 -5 0 -5 2 -5 1 -4 2 -5 2 -5 2 -5 2 -4 2 -5 1 -5 5 -5 2 -4 3 -5 2 -5 4 -4 4 -5 4 -5 5 -5 8 -4 20 4 16 5 8 5 6 5 3 4 5 5 3 5 2 4 4 5 2 5 3 5 3 4 2 5 2 5 2 5 1 4 2 5 2 5 2 5 0 5 2 4 3 5 0 5 1 5 2 4 0 5 2 5 0 5 2 4 0 5 1 5 0 5 0 5 2 4 0 5 0 5 2 5 0 4 0 5 0 5 2 5 0 4 0 5 0 5 0 4 0 5 0 5 0 5 0 4 0 10 0 5 0 4 0 5 0 5 0 5 0 4 0 5 0 5 0 5 0 5 -2 4 0 5 0 5 0 5 -2 4 0 5 0 5 -2 5 0 4 0 5 -1 5 0 5 -2 5 0 4 -2 5 0 5 -2 5 -1 4 0 5 -3 5 -2 4 0 5 -2 5 -2 5 -2 4 -1 5 -2 5 -2 5 -2 4 -3 5 -3 5 -2 5 -4 4 -2 5 -3 5 -5 5 -3 5 -6 4 -8 5 -16 0 0" stroke="#000000" stroke-width="20" fill="#000000" />
    <path d="M 3750 22772 l -5 -20 -4 -8 -5 -5 -4 -4 -4 -4 -4 -4 -5 -2 -4 -3 -4 -2 -5 -5 -4 -1 -4 -3 -4 -1 -5 -2 -4 -2 -4 -2 -5 -2 -4 -2 -4 0 -4 -2 -5 -2 -4 0 -4 -2 -4 -1 -5 0 -4 -3 -4 0 -5 -1 -4 0 -4 -2 -4 0 -5 0 -4 -2 -4 0 -5 0 -4 -2 -4 0 -4 0 -5 0 -4 -1 -4 0 -4 0 -5 0 -4 0 -4 0 -5 0 -4 0 -4 0 -4 0 -9 0 -4 0 -5 0 -4 0 -4 0 -4 0 -5 0 -4 0 -4 0 -4 0 -5 1 -4 0 -4 0 -5 0 -4 2 -4 0 -4 0 -5 2 -5 0 -4 0 -4 2 -4 0 -5 1 -4 0 -4 3 -4 0 -4 1 -4 2 -5 0 -4 2 -4 2 -5 0 -4 2 -5 2 -4 2 -4 2 -5 2 -4 1 -4 3 -4 1 -5 5 -4 2 -4 3 -5 2 -4 4 -4 4 -4 4 -5 5 -4 8 -4 20 4 15 4 9 5 6 4 3 4 5 4 3 5 2 4 4 4 1 5 4 4 3 4 2 4 1 5 3 4 1 4 2 5 2 4 2 5 0 4 2 4 2 5 0 4 2 4 2 4 0 4 2 4 0 5 2 4 0 4 1 4 0 5 0 5 2 4 0 4 0 4 2 5 0 4 0 4 0 5 2 4 0 4 0 4 0 5 0 4 0 4 0 4 0 5 0 4 0 9 0 4 0 4 0 4 0 5 0 4 0 4 0 5 0 4 0 4 0 4 -2 5 0 4 0 4 0 4 -2 5 0 4 0 4 -2 5 0 4 0 4 -1 4 0 5 -2 4 0 4 -2 5 0 4 -2 4 -2 4 0 5 -2 4 -2 4 0 4 -2 5 -2 4 -2 4 -1 5 -3 4 -1 4 -2 4 -3 5 -4 4 -1 4 -4 5 -2 4 -3 4 -5 4 -3 5 -6 4 -9 5 -15 0 0" stroke="#3C3C3C" stroke-width="20" fill="#3C3C3C" />
    <path d="M 3727 22772 l -5 -20 -4 -8 -4 -5 -3 -4 -4 -4 -4 -4 -4 -2 -4 -3 -3 -2 -4 -5 -4 -1 -4 -2 -4 -2 -3 -2 -4 -2 -4 -2 -4 -1 -3 -2 -4 0 -4 -3 -4 -2 -4 0 -3 -1 -4 -2 -4 0 -4 -2 -4 0 -3 -2 -4 0 -4 -2 -4 0 -4 0 -4 -1 -4 0 -3 0 -4 -2 -4 0 -4 0 -4 0 -3 -2 -4 0 -4 0 -4 0 -3 0 -4 0 -4 0 -4 0 -4 0 -3 0 -8 0 -4 0 -4 0 -4 0 -4 0 -3 0 -5 0 -3 0 -4 0 -4 0 -4 2 -4 0 -3 0 -4 0 -4 2 -4 0 -3 0 -4 1 -4 0 -4 0 -4 2 -3 0 -4 2 -4 0 -4 2 -4 0 -3 2 -4 1 -4 0 -4 2 -4 3 -3 0 -4 2 -4 1 -4 2 -4 2 -3 2 -5 2 -3 2 -4 1 -4 5 -4 2 -3 3 -4 2 -4 4 -4 4 -4 4 -3 5 -4 8 -4 20 4 16 4 8 3 6 4 3 4 5 4 3 4 2 3 4 4 2 4 3 4 3 3 2 5 2 3 2 4 1 4 2 4 2 4 2 3 0 4 2 4 3 4 0 4 1 3 2 4 0 4 2 4 0 4 2 3 0 4 1 4 0 4 0 4 2 3 0 4 0 4 2 4 0 3 0 4 0 4 2 4 0 4 0 3 0 5 0 3 0 4 0 4 0 4 0 4 0 8 0 3 0 4 0 4 0 4 0 4 0 3 0 4 0 4 0 4 0 3 -2 4 0 4 0 4 0 4 -2 3 0 4 0 4 -2 4 0 4 0 4 -1 4 0 3 -2 4 0 4 -2 4 0 4 -2 3 -1 4 0 4 -3 4 -2 4 0 3 -2 4 -2 4 -2 4 -1 3 -2 4 -2 4 -2 4 -3 4 -3 3 -2 4 -4 4 -2 4 -3 4 -5 3 -3 4 -6 4 -8 5 -16 0 0" stroke="#5A5A5A" stroke-width="20" fill="#5A5A5A" />
    <path d="M 3701 22772 l -4 -20 -3 -8 -3 -5 -4 -4 -3 -4 -3 -4 -3 -2 -4 -3 -3 -2 -4 -5 -3 -1 -3 -2 -3 -2 -4 -2 -3 -2 -3 -2 -4 -1 -3 -2 -4 0 -3 -3 -3 -2 -3 0 -4 -1 -3 -2 -3 0 -4 -2 -3 0 -4 -2 -3 0 -3 -2 -3 0 -4 0 -3 -1 -3 0 -4 0 -3 -2 -4 0 -3 0 -3 0 -3 -2 -4 0 -3 0 -3 0 -4 0 -3 0 -3 0 -4 0 -3 0 -3 0 -6 0 -4 0 -3 0 -4 0 -3 0 -3 0 -4 0 -3 0 -3 0 -3 0 -4 2 -3 0 -4 0 -3 0 -3 2 -3 0 -4 0 -3 1 -3 0 -4 0 -3 2 -4 0 -3 2 -3 0 -3 2 -4 0 -3 2 -3 1 -4 0 -3 2 -4 3 -3 0 -3 2 -3 1 -4 2 -3 2 -3 2 -4 2 -3 2 -4 1 -3 5 -3 2 -3 3 -4 2 -3 4 -3 4 -4 4 -3 5 -3 8 -3 20 3 16 3 8 3 6 4 3 3 5 3 3 4 2 3 4 3 2 3 3 4 3 3 2 4 2 3 2 3 1 4 2 3 2 3 2 3 0 4 2 3 3 4 0 3 1 3 2 4 0 3 2 3 0 3 2 4 0 3 1 4 0 3 0 3 2 4 0 3 0 3 2 3 0 4 0 3 0 4 2 3 0 3 0 3 0 4 0 3 0 3 0 4 0 3 0 4 0 6 0 3 0 3 0 4 0 3 0 3 0 4 0 3 0 3 0 4 0 3 -2 3 0 3 0 4 0 3 -2 4 0 3 0 3 -2 4 0 3 0 3 -1 3 0 4 -2 3 0 4 -2 3 0 3 -2 4 -1 3 0 3 -3 3 -2 4 0 3 -2 4 -2 3 -2 3 -1 4 -2 3 -2 3 -2 3 -3 4 -3 3 -2 4 -4 3 -2 3 -3 3 -5 4 -3 3 -6 3 -8 4 -16 0 0" stroke="#808080" stroke-width="20" fill="#808080" />
    <path d="M 3678 22772 l -4 -20 -3 -8 -2 -5 -4 -4 -2 -4 -3 -4 -3 -2 -3 -3 -3 -2 -3 -5 -2 -1 -3 -2 -3 -2 -3 -2 -3 -2 -3 -2 -2 -1 -3 -2 -3 0 -3 -3 -2 -2 -3 0 -3 -1 -3 -2 -3 0 -3 -2 -3 0 -2 -2 -3 0 -3 -2 -4 0 -2 0 -3 -1 -2 0 -4 0 -2 -2 -3 0 -3 0 -3 0 -3 -2 -3 0 -2 0 -3 0 -3 0 -3 0 -3 0 -3 0 -3 0 -2 0 -6 0 -3 0 -3 0 -3 0 -2 0 -3 0 -3 0 -3 0 -3 0 -3 0 -2 2 -4 0 -2 0 -3 0 -3 2 -3 0 -3 0 -3 1 -3 0 -2 0 -3 2 -3 0 -3 2 -3 0 -3 2 -2 0 -3 2 -3 1 -3 0 -3 2 -3 3 -2 0 -3 2 -3 1 -3 2 -3 2 -3 2 -2 2 -4 2 -3 1 -2 5 -3 2 -3 3 -3 2 -3 4 -3 4 -2 4 -3 5 -3 8 -2 20 2 16 3 8 3 6 2 3 3 5 3 3 3 2 3 4 3 2 2 3 3 3 4 2 2 2 3 2 3 1 3 2 3 2 3 2 2 0 3 2 3 3 3 0 3 1 3 2 2 0 3 2 3 0 3 2 3 0 3 1 2 0 3 0 3 2 3 0 3 0 3 2 3 0 2 0 4 0 2 2 3 0 3 0 3 0 3 0 3 0 2 0 3 0 3 0 3 0 6 0 2 0 3 0 3 0 3 0 3 0 3 0 3 0 2 0 3 0 3 -2 3 0 3 0 3 0 2 -2 4 0 2 0 3 -2 2 0 4 0 3 -1 3 0 2 -2 3 0 3 -2 3 0 3 -2 3 -1 3 0 2 -3 3 -2 3 0 3 -2 2 -2 3 -2 3 -1 3 -2 3 -2 3 -2 2 -3 3 -3 3 -2 3 -4 3 -2 3 -3 2 -5 4 -3 2 -6 3 -8 4 -16 0 0" stroke="#969696" stroke-width="20" fill="#969696" />
    <path d="M 3654 22772 l -2 -20 -2 -8 -3 -5 -2 -4 -3 -4 -2 -4 -3 -2 -2 -3 -2 -2 -3 -5 -2 -1 -2 -2 -3 -2 -2 -2 -3 -2 -2 -2 -2 -1 -3 -2 -2 0 -2 -3 -3 -2 -2 0 -3 -1 -2 -2 -2 0 -3 -2 -2 0 -2 -2 -3 0 -2 -2 -2 0 -3 0 -2 -1 -3 0 -2 0 -3 -2 -2 0 -2 0 -2 0 -3 -2 -2 0 -3 0 -2 0 -3 0 -2 0 -2 0 -3 0 -2 0 -2 0 -5 0 -3 0 -2 0 -2 0 -3 0 -2 0 -2 0 -3 0 -2 0 -3 0 -2 2 -2 0 -3 0 -2 0 -2 2 -3 0 -2 0 -2 1 -3 0 -2 0 -3 2 -2 0 -3 2 -2 0 -2 2 -2 0 -3 2 -2 1 -3 0 -2 2 -3 3 -2 0 -2 2 -2 1 -3 2 -2 2 -3 2 -2 2 -3 2 -2 1 -2 5 -3 2 -2 3 -2 2 -3 4 -2 4 -3 4 -2 5 -2 8 -3 20 3 16 2 8 2 6 3 3 2 5 3 3 2 2 2 4 3 2 2 3 2 3 3 2 2 2 3 2 2 1 3 2 2 2 2 2 2 0 3 2 2 3 3 0 2 1 3 2 2 0 2 2 2 0 3 2 2 0 3 1 2 0 3 0 2 2 2 0 3 0 2 2 2 0 3 0 2 0 2 2 3 0 2 0 3 0 2 0 2 0 3 0 2 0 2 0 3 0 5 0 2 0 2 0 3 0 2 0 2 0 3 0 2 0 3 0 2 0 3 -2 2 0 2 0 2 0 3 -2 2 0 3 0 2 -2 3 0 2 0 2 -1 3 0 2 -2 2 0 3 -2 2 0 2 -2 3 -1 2 0 3 -3 2 -2 2 0 3 -2 2 -2 2 -2 3 -1 2 -2 3 -2 2 -2 2 -3 3 -3 2 -2 2 -4 3 -2 2 -3 3 -5 2 -3 3 -6 2 -8 2 -16 0 0" stroke="#C0C0C0" stroke-width="20" fill="#C0C0C0" />
    <path d="M 3631 22772 l -3 -20 -2 -8 -1 -5 -2 -4 -2 -4 -2 -4 -2 -2 -2 -3 -2 -2 -2 -5 -2 -1 -2 -2 -1 -2 -2 -2 -2 -2 -2 -2 -2 -1 -2 -2 -2 0 -2 -3 -2 -2 -2 0 -1 -1 -2 -2 -2 0 -2 -2 -2 0 -2 -2 -2 0 -2 -2 -2 0 -1 0 -2 -1 -2 0 -2 0 -2 -2 -2 0 -2 0 -2 0 -2 -2 -2 0 -1 0 -2 0 -2 0 -2 0 -2 0 -2 0 -2 0 -2 0 -4 0 -1 0 -2 0 -2 0 -2 0 -2 0 -2 0 -2 0 -2 0 -2 0 -1 2 -2 0 -3 0 -2 0 -1 2 -2 0 -2 0 -3 1 -1 0 -2 0 -2 2 -2 0 -2 2 -2 0 -1 2 -2 0 -2 2 -2 1 -2 0 -2 2 -2 3 -2 0 -2 2 -2 1 -2 2 -2 2 -2 2 -1 2 -2 2 -2 1 -2 5 -2 2 -2 3 -2 2 -2 4 -2 4 -2 4 -1 5 -2 8 -2 20 2 16 2 8 1 6 2 3 2 5 2 3 2 2 2 4 2 2 2 3 2 3 2 2 1 2 2 2 2 1 2 2 2 2 2 2 2 0 2 2 2 3 2 0 2 1 2 2 2 0 1 2 2 0 2 2 2 0 2 1 2 0 1 0 3 2 2 0 2 0 1 2 2 0 3 0 2 0 1 2 2 0 2 0 2 0 2 0 2 0 2 0 2 0 2 0 1 0 4 0 2 0 2 0 2 0 2 0 2 0 2 0 2 0 1 0 2 0 2 -2 2 0 2 0 2 0 2 -2 2 0 2 0 2 -2 1 0 2 0 2 -1 2 0 2 -2 2 0 2 -2 2 0 2 -2 1 -1 2 0 2 -3 2 -2 2 0 2 -2 2 -2 2 -2 2 -1 2 -2 1 -2 2 -2 2 -3 2 -3 2 -2 2 -4 2 -2 2 -3 2 -5 2 -3 1 -6 2 -8 3 -16 0 0" stroke="#D2D2D2" stroke-width="20" fill="#D2D2D2" />
    <path d="M 3607 22772 l -1 -20 -2 -8 -1 -5 -2 -4 -1 -4 -2 -4 -1 -2 -1 -3 -2 -2 -1 -5 -1 -1 -2 -2 -2 -2 -1 -2 -1 -2 -2 -2 -1 -1 -2 -2 -2 0 -1 -3 -1 -2 -2 0 -1 -1 -2 -2 -1 0 -1 -2 -2 0 -1 -2 -1 0 -2 -2 -1 0 -1 0 -2 -1 -2 0 -1 0 -2 -2 -1 0 -2 0 -1 0 -2 -2 -1 0 -1 0 -2 0 -1 0 -2 0 -1 0 -1 0 -2 0 -1 0 -3 0 -2 0 -1 0 -1 0 -2 0 -1 0 -2 0 -1 0 -2 0 -1 0 -2 2 -1 0 -1 0 -2 0 -1 2 -1 0 -2 0 -2 1 -1 0 -2 0 -1 2 -1 0 -2 2 -2 0 0 2 -2 0 -1 2 -2 1 -1 0 -1 2 -2 3 -2 0 -1 2 -2 1 -1 2 -2 2 -1 2 -2 2 -1 2 -1 1 -2 5 -1 2 -1 3 -2 2 -1 4 -2 4 -1 4 -2 5 -1 8 -1 20 1 16 1 8 2 6 1 3 2 5 1 3 2 2 1 4 1 2 2 3 1 3 1 2 2 2 1 2 2 1 1 2 2 2 1 2 2 0 2 2 1 3 1 0 2 1 1 2 2 0 0 2 2 0 2 2 1 0 1 1 2 0 1 0 2 2 2 0 1 0 1 2 2 0 1 0 1 0 2 2 1 0 2 0 1 0 2 0 1 0 2 0 1 0 1 0 2 0 3 0 1 0 2 0 1 0 1 0 2 0 1 0 2 0 1 0 1 0 2 -2 1 0 2 0 1 0 2 -2 1 0 2 0 2 -2 1 0 1 0 2 -1 1 0 1 -2 2 0 1 -2 1 0 2 -2 1 -1 2 0 1 -3 1 -2 2 0 2 -2 1 -2 2 -2 1 -1 1 -2 2 -2 2 -2 1 -3 1 -3 2 -2 1 -4 1 -2 2 -3 1 -5 2 -3 1 -6 2 -8 1 -16 0 0" stroke="#DEDEDE" stroke-width="20" fill="#DEDEDE" />
    <path d="M 3583 22771 l -2 -20 0 -7 -2 -6 0 -4 -2 -3 0 -4 -1 -2 -1 -4 -1 -2 -1 -4 -1 -2 -1 -2 -1 -2 -1 -1 -1 -2 -1 -2 -1 -2 -1 -2 -1 0 -1 -2 -1 -2 0 0 -2 -2 0 -1 -1 0 -1 -3 -1 0 -1 -1 -1 0 -1 -2 -1 0 -1 0 -1 -2 -1 0 -1 0 -1 -2 -1 0 -1 0 -1 0 0 -1 -1 0 -1 0 -1 0 -1 0 -1 0 -1 0 -1 0 -1 0 -1 0 -2 0 -1 0 -1 0 0 0 -2 0 0 0 -1 0 -1 0 -1 0 -1 0 -1 1 -1 0 -1 0 -1 0 -1 2 -1 0 -1 0 -1 2 -1 0 -1 0 -1 2 0 0 -2 1 0 0 -1 3 -1 0 -1 1 -1 2 -1 0 -1 2 -1 2 -1 0 -1 2 -1 2 -1 2 -1 2 -1 1 -1 2 -1 2 0 2 -1 4 -1 2 -1 4 -1 2 -1 4 -1 3 -1 4 -1 6 -1 7 0 20 0 16 1 9 1 5 1 4 1 4 1 4 1 2 1 4 1 1 1 4 0 3 1 1 1 2 1 2 1 2 1 2 1 1 1 2 1 0 1 2 1 3 1 0 1 1 1 2 1 0 1 2 0 0 2 2 0 0 1 2 1 0 1 0 1 2 1 0 1 0 1 1 1 0 1 0 1 0 1 3 1 0 1 0 1 0 1 0 0 0 2 0 0 0 1 0 1 0 2 0 1 0 1 0 1 0 1 0 1 0 1 0 1 0 1 0 1 0 0 -3 1 0 1 0 1 0 1 -1 1 0 1 0 1 -2 1 0 1 0 1 -2 1 0 1 -2 1 0 1 -2 1 0 0 -2 2 -1 0 0 1 -3 1 -2 1 0 1 -2 1 -1 1 -2 1 -2 1 -2 1 -2 1 -1 1 -3 1 -4 1 -1 1 -4 1 -2 0 -4 2 -4 0 -4 2 -5 0 -9 2 -16 0 0" stroke="#F0F0F0" stroke-width="20" fill="#F0F0F0" />
    <path d="M 3558 22771 l -1 -20 0 -7 -1 -6 0 -4 -1 -3 0 -4 -1 -2 0 -4 -1 -2 0 -4 -1 -2 0 -2 -1 -2 0 -1 0 -2 -1 -2 -1 -2 0 -2 0 0 -1 -2 0 -2 -1 0 0 -2 -1 -1 0 -3 -1 0 0 -1 -1 0 0 -2 -1 0 0 0 -1 -2 0 0 -1 0 -1 -2 0 0 0 0 -1 0 0 -1 -1 0 0 0 0 0 -1 0 0 0 -1 0 0 0 -1 0 0 0 -1 0 -1 0 0 0 -1 0 0 0 0 0 -1 0 -1 0 0 0 0 0 -1 1 0 0 -1 0 0 0 -1 2 0 0 -1 0 0 2 -1 0 0 0 -1 2 0 0 -1 1 0 0 -1 3 0 0 -1 1 0 2 0 0 -1 2 -1 2 0 0 0 2 -1 2 0 2 -1 2 0 1 -1 2 0 2 -1 2 0 4 0 2 -1 4 -1 2 0 4 0 3 -1 4 -1 6 0 7 0 20 0 16 0 9 1 5 1 4 0 4 0 4 1 2 1 4 0 1 0 4 1 3 0 1 1 2 0 2 1 2 0 2 1 1 0 2 0 0 1 2 1 3 0 0 0 1 1 2 0 0 1 2 0 0 1 2 0 0 1 2 0 0 1 0 0 2 1 0 0 0 1 1 0 0 1 0 0 0 1 3 0 0 0 0 1 0 1 0 0 0 0 0 1 0 0 0 1 0 1 0 0 0 1 0 0 0 1 0 0 0 1 0 0 0 0 0 1 0 0 -3 1 0 0 0 0 0 1 -1 1 0 0 0 1 -2 0 0 1 0 0 -2 1 0 0 -2 1 0 0 -2 1 -2 0 -1 1 0 0 -3 1 -2 0 0 0 -2 1 -1 1 -2 0 -2 0 -2 1 -2 0 -1 1 -3 0 -4 1 -1 0 -4 1 -2 0 -4 1 -4 0 -4 1 -5 0 -9 1 -16 0 0" stroke="#FFFFFF" stroke-width="20" fill="#FFFFFF" />
    <path d="M 3438 21832 l 25 0 0 936 -25 0 0 -936 0 0" stroke="#D2D2D2" stroke-width="20" fill="#D2D2D2" />
    <path d="M 3487 21832 l 24 0 0 938 -24 0 0 -938 0 0" stroke="#F0F0F0" stroke-width="20" fill="#F0F0F0" />
    <path d="M 3463 21832 l 25 0 0 938 -25 0 0 -938 0 0" stroke="#DEDEDE" stroke-width="20" fill="#DEDEDE" />
    <path d="M 3510 21832 l 25 0 0 938 -25 0 0 -938 0 0" stroke="#FFFFFF" stroke-width="20" fill="#FFFFFF" />
    <path d="M 3298 21832 l 24 0 0 938 -24 0 0 -938 0 0" stroke="#000000" stroke-width="20" fill="#000000" />
    <path d="M 3321 21832 l 24 0 0 938 -24 0 0 -938 0 0" stroke="#3C3C3C" stroke-width="20" fill="#3C3C3C" />
    <path d="M 3345 21832 l 24 0 0 938 -24 0 0 -938 0 0" stroke="#5A5A5A" stroke-width="20" fill="#5A5A5A" />
    <path d="M 3368 21832 l 25 0 0 938 -25 0 0 -938 0 0" stroke="#808080" stroke-width="20" fill="#808080" />
    <path d="M 3392 21832 l 24 0 0 938 -24 0 0 -938 0 0" stroke="#969696" stroke-width="20" fill="#969696" />
    <path d="M 3416 21832 l 24 0 0 938 -24 0 0 -938 0 0" stroke="#C0C0C0" stroke-width="20" fill="#C0C0C0" />
    <path d="M 3631 21832 l -24 0 0 938 24 0 0 -938 0 0" stroke="#D2D2D2" stroke-width="20" fill="#D2D2D2" />
    <path d="M 3583 21833 l -25 0 0 938 25 0 0 -938 0 0" stroke="#F0F0F0" stroke-width="20" fill="#F0F0F0" />
    <path d="M 3607 21833 l -25 0 0 938 25 0 0 -938 0 0" stroke="#DEDEDE" stroke-width="20" fill="#DEDEDE" />
    <path d="M 3559 21833 l -24 0 0 938 24 0 0 -938 0 0" stroke="#FFFFFF" stroke-width="20" fill="#FFFFFF" />
    <path d="M 3773 21833 l -25 0 0 938 25 0 0 -938 0 0" stroke="#000000" stroke-width="20" fill="#000000" />
    <path d="M 3749 21833 l -24 0 0 938 24 0 0 -938 0 0" stroke="#3C3C3C" stroke-width="20" fill="#3C3C3C" />
    <path d="M 3725 21833 l -24 0 0 938 24 0 0 -938 0 0" stroke="#5A5A5A" stroke-width="20" fill="#5A5A5A" />
    <path d="M 3702 21833 l -25 0 0 938 25 0 0 -938 0 0" stroke="#808080" stroke-width="20" fill="#808080" />
    <path d="M 3678 21833 l -25 0 0 938 25 0 0 -938 0 0" stroke="#969696" stroke-width="20" fill="#969696" />
    <path d="M 3654 21833 l -25 0 0 938 25 0 0 -938 0 0" stroke="#C0C0C0" stroke-width="20" fill="#C0C0C0" />
  </g>
  <path id="POLYGON442" d="M 3540 22960 l 0 840" stroke="#000000" stroke-width="40" fill="none" />
  <path id="POLYGON443" d="M 5160 16720 l 0 7020" stroke="#000000" stroke-width="40" fill="none" />
  <path d="M 14229 29100 l 72 20 44 20 34 20 28 20 24 20 21 20 18 20 16 20 15 20 13 20 12 20 10 20 9 20 8 20 8 20 6 20 5 20 5 20 3 20 3 20 2 20 1 20 0 20 0 0 0 20 -1 20 -2 20 -3 20 -3 20 -5 20 -5 20 -6 20 -8 20 -8 20 -9 20 -10 20 -12 20 -13 20 -15 20 -16 20 -18 20 -21 20 -24 20 -28 20 -34 20 -44 20 -72 20 -137 0 -72 -20 -44 -20 -34 -20 -28 -20 -24 -20 -21 -20 -18 -20 -16 -20 -15 -20 -13 -20 -12 -20 -10 -20 -9 -20 -8 -20 -8 -20 -6 -20 -5 -20 -5 -20 -3 -20 -3 -20 -2 -20 -1 -20 -1 -20 0 0 1 -20 1 -20 2 -20 3 -20 3 -20 5 -20 5 -20 6 -20 8 -20 8 -20 9 -20 10 -20 12 -20 13 -20 15 -20 16 -20 18 -20 21 -20 24 -20 28 -20 34 -20 44 -20 72 -20 137 0" stroke="#000000" stroke-width="20" fill="#808080" />
  <g>
    <rect x="13460" y="28720" width="1380" height="1680" stroke-width="0" fill="none" />
    <text fill="#000000" font-family="Helvetica" font-size="320" text-anchor="middle" x="14150" y="29720">M</text>
  </g>
  <path d="M 14242 26820 l 141 40 77 40 57 40 47 40 38 40 33 40 29 40 24 40 21 40 18 40 16 40 12 40 11 40 8 40 6 40 4 40 2 40 0 40 -2 40 -4 40 -6 40 -8 40 -11 40 -12 40 -16 40 -18 40 -21 40 -24 40 -29 40 -33 40 -38 40 -47 40 -57 40 -77 40 -141 40 -163 0 -141 -40 -77 -40 -57 -40 -47 -40 -38 -40 -33 -40 -29 -40 -24 -40 -21 -40 -18 -40 -16 -40 -12 -40 -11 -40 -8 -40 -6 -40 -4 -40 -2 -40 0 -40 2 -40 4 -40 6 -40 8 -40 11 -40 12 -40 16 -40 18 -40 21 -40 24 -40 29 -40 33 -40 38 -40 47 -40 57 -40 77 -40 141 -40 163 0" stroke="#000000" stroke-width="20" fill="#808080" />
  <path d="M 14780 27520 l -640 -680" stroke="#000000" stroke-width="40" fill="none" />
  <path d="M 14780 27520 l -640 700" stroke="#000000" stroke-width="40" fill="none" />
  <path d="M 14140 28220 l 0 820" stroke="#000000" stroke-width="40" fill="none" />
  <path id="LINE449" d="M 17440 27520 l 520 0" stroke="#000000" stroke-width="40" fill="none" />
  <path id="LINE450" d="M 17440 24780 l 520 0" stroke="#000000" stroke-width="40" fill="none" />
  <path id="POLYGON450" d="M 21540 25980 l 4420 0" stroke="#000000" stroke-width="40" fill="none" />
  <path id="POLYGON451" d="M 17960 23060 l 5360 0" stroke="#000000" stroke-width="40" fill="none" />
  <path id="POLYGON452" d="M 23320 23020 l 0 2920" stroke="#000000" stroke-width="40" fill="none" />
  <path id="LINE459" d="M 17940 25980 l 1680 0" stroke="#000000" stroke-width="40" fill="none" />
  <path id="LINE487" d="M 30300 25980 l 2700 0" stroke="#000000" stroke-width="40" fill="none" />
  <path id="LINE490" d="M 33000 7320 l 0 18660" stroke="#000000" stroke-width="40" fill="none" />
  <path id="LINE491" d="M 5160 11800 l 0 -4460" stroke="#000000" stroke-width="40" fill="none" />
  <path id="LINE499" d="M 5160 7340 l 27820 0" stroke="#000000" stroke-width="40" fill="none" />
  <g name="Pipe1">
    <path d="M 16009 14371 l 0 34 -9057 0 0 -34 9057 0 0 0" stroke="#FFFFFF" stroke-width="20" fill="#FFFFFF" />
    <path d="M 16009 14053 l 0 26 -9057 0 0 -26 9057 0 0 0" stroke="#000000" stroke-width="20" fill="#000000" />
    <path d="M 16009 14079 l 0 30 -9057 0 0 -30 9057 0 0 0" stroke="#3C3C3C" stroke-width="20" fill="#3C3C3C" />
    <path d="M 16009 14109 l 0 44 -9069 0 0 -44 9069 0 0 0" stroke="#5A5A5A" stroke-width="20" fill="#5A5A5A" />
    <path d="M 16009 14153 l 0 30 -9057 0 0 -30 9057 0 0 0" stroke="#808080" stroke-width="20" fill="#808080" />
    <path d="M 16009 14183 l 0 40 -9057 0 0 -40 9057 0 0 0" stroke="#969696" stroke-width="20" fill="#969696" />
    <path d="M 16009 14223 l 0 30 -9057 0 0 -30 9057 0 0 0" stroke="#C0C0C0" stroke-width="20" fill="#C0C0C0" />
    <path d="M 16009 14253 l 0 44 -9057 0 0 -44 9057 0 0 0" stroke="#D2D2D2" stroke-width="20" fill="#D2D2D2" />
    <path d="M 16009 14297 l 0 34 -9057 0 0 -34 9057 0 0 0" stroke="#DEDEDE" stroke-width="20" fill="#DEDEDE" />
    <path d="M 16009 14331 l 0 40 -9057 0 0 -40 9057 0 0 0" stroke="#F0F0F0" stroke-width="20" fill="#F0F0F0" />
    <path d="M 16009 14732 l 0 -52 -9057 0 0 52 9057 0 0 0" stroke="#000000" stroke-width="20" fill="#000000" />
    <path d="M 16009 14680 l 0 -35 -9057 0 0 35 9057 0 0 0" stroke="#3C3C3C" stroke-width="20" fill="#3C3C3C" />
    <path d="M 16009 14645 l 0 -31 -9069 0 0 31 9069 0 0 0" stroke="#5A5A5A" stroke-width="20" fill="#5A5A5A" />
    <path d="M 16009 14614 l 0 -34 -9057 0 0 34 9057 0 0 0" stroke="#808080" stroke-width="20" fill="#808080" />
    <path d="M 16009 14580 l 0 -44 -9057 0 0 44 9057 0 0 0" stroke="#969696" stroke-width="20" fill="#969696" />
    <path d="M 16009 14536 l 0 -30 -9057 0 0 30 9057 0 0 0" stroke="#C0C0C0" stroke-width="20" fill="#C0C0C0" />
    <path d="M 16009 14506 l 0 -35 -9057 0 0 35 9057 0 0 0" stroke="#D2D2D2" stroke-width="20" fill="#D2D2D2" />
    <path d="M 16009 14471 l 0 -39 -9057 0 0 39 9057 0 0 0" stroke="#DEDEDE" stroke-width="20" fill="#DEDEDE" />
    <path d="M 16009 14432 l 0 -27 -9057 0 0 27 9057 0 0 0" stroke="#F0F0F0" stroke-width="20" fill="#F0F0F0" />
  </g>
  <g id="TEXT4253">
    <rect x="16700" y="13540" width="3160" height="1700" stroke-width="0" fill="none" id="TEXT4253_pbTextBoundingRectEl" />
    <text fill="#000000" font-family="Helvetica" font-size="1280" text-anchor="middle" x="18280" y="15030" id="TEXT4253_pbTextEl">M</text>
  </g>
  <path d="M 17200 12900 l 0 -5580" stroke="#000000" stroke-width="40" fill="none" />
  <g name="DownArrow">
    <path d="M 17547 12374 l -694 0 347 516 347 -516 0 0" stroke="#000000" stroke-width="20" fill="#000000" />
  </g>
  <path d="M 19380 12880 l 0 -5560" stroke="#000000" stroke-width="40" fill="none" />
  <g name="DownArrow">
    <path d="M 19727 12374 l -694 0 347 516 347 -516 0 0" stroke="#000000" stroke-width="20" fill="#000000" />
  </g>
  <path id="LINE574" d="M 17200 18700 l 0 -2880" stroke="#000000" stroke-width="40" fill="none" />
  <g name="DownArrow">
    <path d="M 17547 18174 l -694 0 347 516 347 -516 0 0" stroke="#000000" stroke-width="20" fill="#000000" />
  </g>
  <path id="LINE575" d="M 19380 19440 l 0 -3620" stroke="#000000" stroke-width="40" fill="none" />
  <g name="DownArrow">
    <path d="M 19727 18914 l -694 0 347 516 347 -516 0 0" stroke="#000000" stroke-width="20" fill="#000000" />
  </g>
  <path id="POLYGON575" d="M 17200 18680 l -8700 0" stroke="#000000" stroke-width="40" fill="none" />
  <path id="LINE576" d="M 19320 19520 l -8700 0" stroke="#000000" stroke-width="40" fill="none" />
  <path id="LINE577" d="M 10560 23640 l 0 -4180" stroke="#000000" stroke-width="40" fill="none" />
  <g name="DownArrow">
    <path d="M 10213 23254 l 694 0 -347 516 -347 -516 0 0" stroke="#000000" stroke-width="20" fill="#000000" />
  </g>
  <path id="LINE585" d="M 8560 23760 l 0 -5060" stroke="#000000" stroke-width="40" fill="none" />
  <g name="DownArrow">
    <path d="M 8213 23254 l 694 0 -347 516 -347 -516 0 0" stroke="#000000" stroke-width="20" fill="#000000" />
  </g>
  <rect x="38320" y="16040" width="20500" height="260" stroke="#000000" stroke-width="20" fill="none" id="RECTANGLE10" />
  <path d="M 40560 15160 l 0 500" stroke="#000000" stroke-width="60" fill="none" />
  <path d="M 40540 15660 l -860 0" stroke="#000000" stroke-width="60" fill="none" />
  <path d="M 39680 15160 l 0 500" stroke="#000000" stroke-width="60" fill="none" />
  <path d="M 40560 17180 l 0 -520" stroke="#000000" stroke-width="60" fill="none" />
  <path d="M 40540 16660 l -860 0" stroke="#000000" stroke-width="60" fill="none" />
  <path d="M 39680 17180 l 0 -520" stroke="#000000" stroke-width="60" fill="none" />
  <path id="LINE941" d="M 43660 15660 l -820 0" stroke="#000000" stroke-width="60" fill="none" />
  <path id="LINE942" d="M 43660 16660 l -820 0" stroke="#000000" stroke-width="60" fill="none" />
  <rect x="39000" y="15380" width="160" height="1540" stroke="#000000" stroke-width="20" fill="#808080" id="RECTANGLE11" />
  <rect x="40940" y="15380" width="160" height="1540" stroke="#000000" stroke-width="20" fill="#808080" id="RECTANGLE12" />
  <rect x="41680" y="15380" width="160" height="1540" stroke="#000000" stroke-width="20" fill="#808080" id="RECTANGLE13" />
  <path id="LINE592" d="M 37640 8440 l 60 260" stroke="#000000" stroke-width="20" fill="none" />
  <path d="M 40040 8340 l 0 220" stroke="#000000" stroke-width="60" fill="none" />
  <path d="M 40020 8560 l -780 0" stroke="#000000" stroke-width="60" fill="none" />
  <path d="M 40040 8340 l 0 220" stroke="#000000" stroke-width="60" fill="none" />
  <path d="M 40020 8560 l -780 0" stroke="#000000" stroke-width="60" fill="none" />
  <path d="M 36440 8440 l 60 260" stroke="#000000" stroke-width="20" fill="none" />
  <path d="M 36580 8440 l 60 260" stroke="#000000" stroke-width="20" fill="none" />
  <path d="M 36680 8440 l -40 260" stroke="#000000" stroke-width="20" fill="none" />
  <path d="M 36560 8440 l -20 260" stroke="#000000" stroke-width="20" fill="none" />
  <path d="M 37000 8440 l 40 260" stroke="#000000" stroke-width="20" fill="none" />
  <path d="M 37140 8440 l 60 260" stroke="#000000" stroke-width="20" fill="none" />
  <path d="M 37240 8440 l -40 260" stroke="#000000" stroke-width="20" fill="none" />
  <path d="M 37120 8440 l -20 260" stroke="#000000" stroke-width="20" fill="none" />
  <path d="M 37520 8440 l 40 260" stroke="#000000" stroke-width="20" fill="none" />
  <path d="M 37640 8440 l 60 260" stroke="#000000" stroke-width="20" fill="none" />
  <path d="M 37760 8440 l -40 260" stroke="#000000" stroke-width="20" fill="none" />
  <path d="M 37640 8440 l -80 260" stroke="#000000" stroke-width="20" fill="none" />
  <path d="M 38260 8220 l 40 520" stroke="#000000" stroke-width="20" fill="none" />
  <path d="M 38420 8220 l 60 520" stroke="#000000" stroke-width="20" fill="none" />
  <path d="M 38540 8220 l -60 520" stroke="#000000" stroke-width="20" fill="none" />
  <path d="M 38400 8220 l -60 520" stroke="#000000" stroke-width="20" fill="none" />
  <path d="M 40040 9160 l 0 -220" stroke="#000000" stroke-width="60" fill="none" />
  <path d="M 40000 8940 l -760 0" stroke="#000000" stroke-width="60" fill="none" />
  <path d="M 36440 9040 l 60 -200" stroke="#FFFFFF" stroke-width="20" fill="none" />
  <path d="M 36580 9040 l 20 -200" stroke="#FFFFFF" stroke-width="20" fill="none" />
  <path d="M 36660 9040 l -20 -200" stroke="#FFFFFF" stroke-width="20" fill="none" />
  <path d="M 36560 9040 l -60 -200" stroke="#FFFFFF" stroke-width="20" fill="none" />
  <path d="M 36980 9040 l 60 -200" stroke="#FFFFFF" stroke-width="20" fill="none" />
  <path d="M 37140 9040 l 20 -200" stroke="#FFFFFF" stroke-width="20" fill="none" />
  <path d="M 37240 9040 l -40 -200" stroke="#FFFFFF" stroke-width="20" fill="none" />
  <path d="M 37120 9040 l -80 -200" stroke="#FFFFFF" stroke-width="20" fill="none" />
  <path d="M 37520 9040 l 20 -200" stroke="#FFFFFF" stroke-width="20" fill="none" />
  <path d="M 37640 9040 l 60 -200" stroke="#FFFFFF" stroke-width="20" fill="none" />
  <path d="M 37760 9040 l -60 -200" stroke="#FFFFFF" stroke-width="20" fill="none" />
  <path d="M 37640 9040 l -80 -200" stroke="#FFFFFF" stroke-width="20" fill="none" />
  <path d="M 38240 9300 l 60 -560" stroke="#FFFFFF" stroke-width="20" fill="none" />
  <path d="M 38400 9300 l 40 -560" stroke="#FFFFFF" stroke-width="20" fill="none" />
  <path d="M 38540 9300 l -60 -560" stroke="#FFFFFF" stroke-width="20" fill="none" />
  <path d="M 38400 9300 l -60 -560" stroke="#FFFFFF" stroke-width="20" fill="none" />
  <path id="LINE733" d="M 35980 8720 l 5220 0" stroke="#000000" stroke-width="20" fill="none" />
  <path id="LINE734" d="M 35200 8440 l 0 640" stroke="#000000" stroke-width="20" fill="none" />
  <path id="LINE735" d="M 35980 8040 l 0 1440" stroke="#000000" stroke-width="20" fill="none" />
  <path id="LINE781" d="M 35980 8040 l -780 400" stroke="#000000" stroke-width="20" fill="none" />
  <path id="LINE782" d="M 45220 8440 l -40 260" stroke="#000000" stroke-width="20" fill="none" />
  <path d="M 42840 8340 l 0 220" stroke="#000000" stroke-width="60" fill="none" />
  <path d="M 42860 8560 l 760 0" stroke="#000000" stroke-width="60" fill="none" />
  <path d="M 42840 8340 l 0 220" stroke="#000000" stroke-width="60" fill="none" />
  <path d="M 42860 8560 l 760 0" stroke="#000000" stroke-width="60" fill="none" />
  <path d="M 46440 8440 l -60 260" stroke="#000000" stroke-width="20" fill="none" />
  <path d="M 46300 8440 l -80 260" stroke="#000000" stroke-width="20" fill="none" />
  <path d="M 46180 8440 l 40 260" stroke="#000000" stroke-width="20" fill="none" />
  <path d="M 46320 8440 l 20 260" stroke="#000000" stroke-width="20" fill="none" />
  <path d="M 45860 8440 l -40 260" stroke="#000000" stroke-width="20" fill="none" />
  <path d="M 45740 8440 l -60 260" stroke="#000000" stroke-width="20" fill="none" />
  <path d="M 45620 8440 l 60 260" stroke="#000000" stroke-width="20" fill="none" />
  <path d="M 45760 8440 l 20 260" stroke="#000000" stroke-width="20" fill="none" />
  <path d="M 45360 8440 l -60 260" stroke="#000000" stroke-width="20" fill="none" />
  <path d="M 45220 8440 l -40 260" stroke="#000000" stroke-width="20" fill="none" />
  <path d="M 45120 8440 l 40 260" stroke="#000000" stroke-width="20" fill="none" />
  <path d="M 45220 8440 l 80 260" stroke="#000000" stroke-width="20" fill="none" />
  <path d="M 44580 8220 l -20 520" stroke="#000000" stroke-width="20" fill="none" />
  <path d="M 44460 8220 l -60 520" stroke="#000000" stroke-width="20" fill="none" />
  <path d="M 44320 8220 l 80 520" stroke="#000000" stroke-width="20" fill="none" />
  <path d="M 44500 8220 l 40 520" stroke="#000000" stroke-width="20" fill="none" />
  <path d="M 42840 9160 l 0 -220" stroke="#000000" stroke-width="60" fill="none" />
  <path d="M 42880 8940 l 740 0" stroke="#000000" stroke-width="60" fill="none" />
  <path d="M 46440 9040 l -60 -200" stroke="#FFFFFF" stroke-width="20" fill="none" />
  <path d="M 46300 9040 l -20 -200" stroke="#FFFFFF" stroke-width="20" fill="none" />
  <path d="M 46200 9040 l 20 -200" stroke="#FFFFFF" stroke-width="20" fill="none" />
  <path d="M 46320 9040 l 60 -200" stroke="#FFFFFF" stroke-width="20" fill="none" />
  <path d="M 45880 9040 l -60 -200" stroke="#FFFFFF" stroke-width="20" fill="none" />
  <path d="M 45740 9040 l -20 -200" stroke="#FFFFFF" stroke-width="20" fill="none" />
  <path d="M 45620 9040 l 60 -200" stroke="#FFFFFF" stroke-width="20" fill="none" />
  <path d="M 45760 9040 l 60 -200" stroke="#FFFFFF" stroke-width="20" fill="none" />
  <path d="M 45360 9040 l -20 -200" stroke="#FFFFFF" stroke-width="20" fill="none" />
  <path d="M 45220 9040 l -40 -200" stroke="#FFFFFF" stroke-width="20" fill="none" />
  <path d="M 45120 9040 l 60 -200" stroke="#FFFFFF" stroke-width="20" fill="none" />
  <path d="M 45220 9040 l 80 -200" stroke="#FFFFFF" stroke-width="20" fill="none" />
  <path d="M 44620 9300 l -60 -560" stroke="#FFFFFF" stroke-width="20" fill="none" />
  <path d="M 44500 9300 l -60 -560" stroke="#FFFFFF" stroke-width="20" fill="none" />
  <path d="M 44320 9300 l 80 -560" stroke="#FFFFFF" stroke-width="20" fill="none" />
  <path d="M 44500 9300 l 40 -560" stroke="#FFFFFF" stroke-width="20" fill="none" />
  <path id="LINE867" d="M 46940 8720 l -5240 0" stroke="#000000" stroke-width="20" fill="none" />
  <path id="LINE868" d="M 47760 8440 l 0 640" stroke="#000000" stroke-width="20" fill="none" />
  <path id="LINE889" d="M 46940 8040 l 0 1440" stroke="#000000" stroke-width="20" fill="none" />
  <path id="LINE897" d="M 46940 8040 l 820 400" stroke="#000000" stroke-width="20" fill="none" />
  <path id="LINE907" d="M 47760 9020 l -820 400" stroke="#000000" stroke-width="20" fill="none" />
  <path id="LINE908" d="M 35220 9040 l 780 400" stroke="#000000" stroke-width="20" fill="none" />
  <path id="LINE909" d="M 46940 8780 l -5240 0" stroke="#000000" stroke-width="20" fill="none" />
  <path id="LINE910" d="M 35980 8780 l 5220 0" stroke="#000000" stroke-width="20" fill="none" />
  <rect x="42300" y="8420" width="120" height="740" stroke="#000000" stroke-width="20" fill="#808080" id="RECTANGLE8" />
  <rect x="40420" y="8420" width="120" height="740" stroke="#000000" stroke-width="20" fill="#808080" id="RECTANGLE9" />
  <g id="TEXT4345">
    <rect x="35120" y="8340" width="940" height="660" stroke-width="0" fill="none" id="TEXT4345_pbTextBoundingRectEl" />
    <text fill="#000000" font-family="Helvetica" font-size="560" text-anchor="middle" x="35590" y="8950" id="TEXT4345_pbTextEl">#1</text>
  </g>
  <g id="TEXT4346">
    <rect x="46940" y="8360" width="980" height="660" stroke-width="0" fill="none" id="TEXT4346_pbTextBoundingRectEl" />
    <text fill="#000000" font-family="Helvetica" font-size="560" text-anchor="middle" x="47430" y="8970" id="TEXT4346_pbTextEl">#2</text>
  </g>
  <path id="LINE950" d="M 37640 24100 l 60 260" stroke="#000000" stroke-width="20" fill="none" />
  <path d="M 40040 24000 l 0 220" stroke="#000000" stroke-width="60" fill="none" />
  <path d="M 40020 24220 l -780 0" stroke="#000000" stroke-width="60" fill="none" />
  <path d="M 40040 24000 l 0 220" stroke="#000000" stroke-width="60" fill="none" />
  <path d="M 40020 24220 l -780 0" stroke="#000000" stroke-width="60" fill="none" />
  <path d="M 36440 24100 l 60 260" stroke="#000000" stroke-width="20" fill="none" />
  <path d="M 36580 24100 l 60 260" stroke="#000000" stroke-width="20" fill="none" />
  <path d="M 36680 24100 l -40 260" stroke="#000000" stroke-width="20" fill="none" />
  <path d="M 36560 24100 l -20 260" stroke="#000000" stroke-width="20" fill="none" />
  <path d="M 37000 24100 l 40 260" stroke="#000000" stroke-width="20" fill="none" />
  <path d="M 37140 24100 l 60 260" stroke="#000000" stroke-width="20" fill="none" />
  <path d="M 37240 24100 l -40 260" stroke="#000000" stroke-width="20" fill="none" />
  <path d="M 37120 24100 l -20 260" stroke="#000000" stroke-width="20" fill="none" />
  <path d="M 37520 24100 l 40 260" stroke="#000000" stroke-width="20" fill="none" />
  <path d="M 37640 24100 l 60 260" stroke="#000000" stroke-width="20" fill="none" />
  <path d="M 37760 24100 l -40 260" stroke="#000000" stroke-width="20" fill="none" />
  <path d="M 37640 24100 l -80 260" stroke="#000000" stroke-width="20" fill="none" />
  <path d="M 38260 23880 l 40 520" stroke="#000000" stroke-width="20" fill="none" />
  <path d="M 38420 23880 l 60 520" stroke="#000000" stroke-width="20" fill="none" />
  <path d="M 38540 23880 l -60 520" stroke="#000000" stroke-width="20" fill="none" />
  <path d="M 38400 23880 l -60 520" stroke="#000000" stroke-width="20" fill="none" />
  <path d="M 40040 24820 l 0 -220" stroke="#000000" stroke-width="60" fill="none" />
  <path d="M 40000 24600 l -760 0" stroke="#000000" stroke-width="60" fill="none" />
  <path d="M 36440 24700 l 60 -200" stroke="#FFFFFF" stroke-width="20" fill="none" />
  <path d="M 36580 24700 l 20 -200" stroke="#FFFFFF" stroke-width="20" fill="none" />
  <path d="M 36660 24700 l -20 -200" stroke="#FFFFFF" stroke-width="20" fill="none" />
  <path d="M 36560 24700 l -60 -200" stroke="#FFFFFF" stroke-width="20" fill="none" />
  <path d="M 36980 24700 l 60 -200" stroke="#FFFFFF" stroke-width="20" fill="none" />
  <path d="M 37140 24700 l 20 -200" stroke="#FFFFFF" stroke-width="20" fill="none" />
  <path d="M 37240 24700 l -40 -200" stroke="#FFFFFF" stroke-width="20" fill="none" />
  <path d="M 37120 24700 l -80 -200" stroke="#FFFFFF" stroke-width="20" fill="none" />
  <path d="M 37520 24700 l 20 -200" stroke="#FFFFFF" stroke-width="20" fill="none" />
  <path d="M 37640 24700 l 60 -200" stroke="#FFFFFF" stroke-width="20" fill="none" />
  <path d="M 37760 24700 l -60 -200" stroke="#FFFFFF" stroke-width="20" fill="none" />
  <path d="M 37640 24700 l -80 -200" stroke="#FFFFFF" stroke-width="20" fill="none" />
  <path d="M 38240 24960 l 60 -560" stroke="#FFFFFF" stroke-width="20" fill="none" />
  <path d="M 38400 24960 l 40 -560" stroke="#FFFFFF" stroke-width="20" fill="none" />
  <path d="M 38540 24960 l -60 -560" stroke="#FFFFFF" stroke-width="20" fill="none" />
  <path d="M 38400 24960 l -60 -560" stroke="#FFFFFF" stroke-width="20" fill="none" />
  <path id="LINE1012" d="M 35980 24380 l 5220 0" stroke="#000000" stroke-width="20" fill="none" />
  <path id="LINE1013" d="M 35200 24100 l 0 640" stroke="#000000" stroke-width="20" fill="none" />
  <path id="LINE1014" d="M 35980 23700 l 0 1440" stroke="#000000" stroke-width="20" fill="none" />
  <path id="LINE1015" d="M 35980 23700 l -780 400" stroke="#000000" stroke-width="20" fill="none" />
  <path d="M 42840 24000 l 0 220" stroke="#000000" stroke-width="60" fill="none" />
  <path d="M 42860 24220 l 760 0" stroke="#000000" stroke-width="60" fill="none" />
  <path d="M 42840 24000 l 0 220" stroke="#000000" stroke-width="60" fill="none" />
  <path d="M 42860 24220 l 760 0" stroke="#000000" stroke-width="60" fill="none" />
  <path d="M 42840 24820 l 0 -220" stroke="#000000" stroke-width="60" fill="none" />
  <path d="M 42880 24600 l 740 0" stroke="#000000" stroke-width="60" fill="none" />
  <path id="LINE1070" d="M 45640 24380 l -3940 0" stroke="#000000" stroke-width="40" fill="none" />
  <path id="LINE1089" d="M 35220 24700 l 760 400" stroke="#000000" stroke-width="20" fill="none" />
  <path id="LINE1091" d="M 35980 24440 l 5220 0" stroke="#000000" stroke-width="20" fill="none" />
  <rect x="42300" y="24080" width="120" height="740" stroke="#000000" stroke-width="20" fill="#808080" id="RECTANGLE16" />
  <rect x="40420" y="24080" width="120" height="740" stroke="#000000" stroke-width="20" fill="#808080" id="RECTANGLE20" />
  <g id="TEXT4351">
    <rect x="35120" y="24020" width="940" height="660" stroke-width="0" fill="none" id="TEXT4351_pbTextBoundingRectEl" />
    <text fill="#000000" font-family="Helvetica" font-size="560" text-anchor="middle" x="35590" y="24630" id="TEXT4351_pbTextEl">#3</text>
  </g>
  <g name="Pipe1">
    <path d="M 41374 8005 l 27 0 0 17134 -27 0 0 -17134 0 0" stroke="#FFFFFF" stroke-width="20" fill="#FFFFFF" />
    <path d="M 41129 8005 l 20 0 0 17134 -20 0 0 -17134 0 0" stroke="#000000" stroke-width="20" fill="#000000" />
    <path d="M 41149 8005 l 23 0 0 17134 -23 0 0 -17134 0 0" stroke="#3C3C3C" stroke-width="20" fill="#3C3C3C" />
    <path d="M 41172 8005 l 34 0 0 17155 -34 0 0 -17155 0 0" stroke="#5A5A5A" stroke-width="20" fill="#5A5A5A" />
    <path d="M 41206 8005 l 24 0 0 17134 -24 0 0 -17134 0 0" stroke="#808080" stroke-width="20" fill="#808080" />
    <path d="M 41230 8005 l 30 0 0 17134 -30 0 0 -17134 0 0" stroke="#969696" stroke-width="20" fill="#969696" />
    <path d="M 41260 8005 l 23 0 0 17134 -23 0 0 -17134 0 0" stroke="#C0C0C0" stroke-width="20" fill="#C0C0C0" />
    <path d="M 41283 8005 l 34 0 0 17134 -34 0 0 -17134 0 0" stroke="#D2D2D2" stroke-width="20" fill="#D2D2D2" />
    <path d="M 41317 8005 l 27 0 0 17134 -27 0 0 -17134 0 0" stroke="#DEDEDE" stroke-width="20" fill="#DEDEDE" />
    <path d="M 41344 8005 l 30 0 0 17134 -30 0 0 -17134 0 0" stroke="#F0F0F0" stroke-width="20" fill="#F0F0F0" />
    <path d="M 41653 8005 l -40 0 0 17134 40 0 0 -17134 0 0" stroke="#000000" stroke-width="20" fill="#000000" />
    <path d="M 41613 8005 l -27 0 0 17134 27 0 0 -17134 0 0" stroke="#3C3C3C" stroke-width="20" fill="#3C3C3C" />
    <path d="M 41586 8005 l -24 0 0 17155 24 0 0 -17155 0 0" stroke="#5A5A5A" stroke-width="20" fill="#5A5A5A" />
    <path d="M 41562 8005 l -27 0 0 17134 27 0 0 -17134 0 0" stroke="#808080" stroke-width="20" fill="#808080" />
    <path d="M 41535 8005 l -33 0 0 17134 33 0 0 -17134 0 0" stroke="#969696" stroke-width="20" fill="#969696" />
    <path d="M 41502 8005 l -24 0 0 17134 24 0 0 -17134 0 0" stroke="#C0C0C0" stroke-width="20" fill="#C0C0C0" />
    <path d="M 41478 8005 l -27 0 0 17134 27 0 0 -17134 0 0" stroke="#D2D2D2" stroke-width="20" fill="#D2D2D2" />
    <path d="M 41451 8005 l -30 0 0 17134 30 0 0 -17134 0 0" stroke="#DEDEDE" stroke-width="20" fill="#DEDEDE" />
    <path d="M 41421 8005 l -20 0 0 17134 20 0 0 -17134 0 0" stroke="#F0F0F0" stroke-width="20" fill="#F0F0F0" />
  </g>
  <path id="POLYGON1093" d="M 52580 14320 l 6820 0 0 3680 -6820 0 0 -3680 0 0" stroke="#000000" stroke-width="40" fill="none" />
  <g id="TEXT4344">
    <rect x="49740" y="11760" width="4980" height="660" stroke-width="0" fill="none" id="TEXT4344_pbTextBoundingRectEl" />
    <text fill="#000000" font-family="Helvetica" font-size="560" text-anchor="middle" x="52230" y="12370" id="TEXT4344_pbTextEl">590-TE152</text>
  </g>
  <g id="DATAPOINT13" PB:IsMultiState="False" PBD:PtTagName="\\RTDBB\590_TE152" PB:Type="7" PB:NumberFormat="0.00">
    <rect x="50380" y="12480" width="2380" height="520" stroke-width="0" fill="none" id="DATAPOINT13_pbTextBoundingRectEl" />
    <text fill="#000000" font-family="Helvetica" font-size="560" text-anchor="middle" x="51570" y="13020" id="DATAPOINT13_pbTextEl" PBD:Property="VAL">#.##</text>
  </g>
  <g id="TEXT4350">
    <rect x="52640" y="12500" width="1300" height="560" stroke-width="0" fill="none" id="TEXT4350_pbTextBoundingRectEl" />
    <text fill="#000000" font-family="Helvetica" font-size="560" text-anchor="middle" x="53290" y="13060" id="TEXT4350_pbTextEl">°C</text>
  </g>
  <g id="TEXT4353">
    <rect x="53500" y="11760" width="4980" height="660" stroke-width="0" fill="none" id="TEXT4353_pbTextBoundingRectEl" />
    <text fill="#000000" font-family="Helvetica" font-size="560" text-anchor="middle" x="55990" y="12370" id="TEXT4353_pbTextEl">590-TE150R</text>
  </g>
  <g id="DATAPOINT14" PB:IsMultiState="False" PBD:PtTagName="\\RTDBB\590_TE150R" PB:Type="7" PB:NumberFormat="0.00">
    <rect x="54140" y="12480" width="2380" height="520" stroke-width="0" fill="none" id="DATAPOINT14_pbTextBoundingRectEl" />
    <text fill="#000000" font-family="Helvetica" font-size="560" text-anchor="middle" x="55330" y="13020" id="DATAPOINT14_pbTextEl" PBD:Property="VAL">#.##</text>
  </g>
  <g id="TEXT4355">
    <rect x="56400" y="12500" width="1300" height="560" stroke-width="0" fill="none" id="TEXT4355_pbTextBoundingRectEl" />
    <text fill="#000000" font-family="Helvetica" font-size="560" text-anchor="middle" x="57050" y="13060" id="TEXT4355_pbTextEl">°C</text>
  </g>
  <g id="TEXT4356">
    <rect x="57480" y="11760" width="4980" height="660" stroke-width="0" fill="none" id="TEXT4356_pbTextBoundingRectEl" />
    <text fill="#000000" font-family="Helvetica" font-size="560" text-anchor="middle" x="59970" y="12370" id="TEXT4356_pbTextEl">590-TE151</text>
  </g>
  <g id="DATAPOINT15" PB:IsMultiState="False" PBD:PtTagName="\\RTDBB\590_TE151" PB:Type="7" PB:NumberFormat="0.00">
    <rect x="58120" y="12480" width="2380" height="520" stroke-width="0" fill="none" id="DATAPOINT15_pbTextBoundingRectEl" />
    <text fill="#000000" font-family="Helvetica" font-size="560" text-anchor="middle" x="59310" y="13020" id="DATAPOINT15_pbTextEl" PBD:Property="VAL">#.##</text>
  </g>
  <g id="TEXT4358">
    <rect x="60380" y="12500" width="1300" height="560" stroke-width="0" fill="none" id="TEXT4358_pbTextBoundingRectEl" />
    <text fill="#000000" font-family="Helvetica" font-size="560" text-anchor="middle" x="61030" y="13060" id="TEXT4358_pbTextEl">°C</text>
  </g>
  <g id="TEXT4359">
    <rect x="53500" y="16540" width="4980" height="660" stroke-width="0" fill="none" id="TEXT4359_pbTextBoundingRectEl" />
    <text fill="#000000" font-family="Helvetica" font-size="560" text-anchor="middle" x="55990" y="17150" id="TEXT4359_pbTextEl">590-CD150</text>
  </g>
  <g id="DATAPOINT16" PB:IsMultiState="False" PBD:PtTagName="\\RTDBB\590_CD150" PB:Type="7" PB:NumberFormat="0.00">
    <rect x="54140" y="17260" width="2380" height="520" stroke-width="0" fill="none" id="DATAPOINT16_pbTextBoundingRectEl" />
    <text fill="#000000" font-family="Helvetica" font-size="560" text-anchor="middle" x="55330" y="17800" id="DATAPOINT16_pbTextEl" PBD:Property="VAL">#.##</text>
  </g>
  <g id="TEXT4361">
    <rect x="56400" y="17280" width="1300" height="560" stroke-width="0" fill="none" id="TEXT4361_pbTextBoundingRectEl" />
    <text fill="#000000" font-family="Helvetica" font-size="560" text-anchor="middle" x="57050" y="17840" id="TEXT4361_pbTextEl">A</text>
  </g>
  <path d="M 54280 16660 l -840 0" stroke="#000000" stroke-width="60" fill="none" />
  <path d="M 54280 15660 l -840 0" stroke="#000000" stroke-width="60" fill="none" />
  <path d="M 58540 16660 l -820 0" stroke="#000000" stroke-width="60" fill="none" />
  <path d="M 58540 15660 l -820 0" stroke="#000000" stroke-width="60" fill="none" />
  <g id="TEXT4362">
    <rect x="41880" y="9720" width="4980" height="660" stroke-width="0" fill="none" id="TEXT4362_pbTextBoundingRectEl" />
    <text fill="#000000" font-family="Helvetica" font-size="560" text-anchor="middle" x="44370" y="10330" id="TEXT4362_pbTextEl">590-VT132X</text>
  </g>
  <g id="DATAPOINT18" PB:IsMultiState="False" PBD:PtTagName="\\RTDBB\590_VT132X" PB:Type="7" PB:NumberFormat="0.00">
    <rect x="42520" y="10440" width="2380" height="520" stroke-width="0" fill="none" id="DATAPOINT18_pbTextBoundingRectEl" />
    <text fill="#000000" font-family="Helvetica" font-size="560" text-anchor="middle" x="43710" y="10980" id="DATAPOINT18_pbTextEl" PBD:Property="VAL">#.##</text>
  </g>
  <g id="TEXT4364">
    <rect x="44780" y="10460" width="1300" height="560" stroke-width="0" fill="none" id="TEXT4364_pbTextBoundingRectEl" />
    <text fill="#000000" font-family="Helvetica" font-size="560" text-anchor="middle" x="45430" y="11020" id="TEXT4364_pbTextEl">µm</text>
  </g>
  <g id="TEXT4365">
    <rect x="35880" y="9720" width="4980" height="660" stroke-width="0" fill="none" id="TEXT4365_pbTextBoundingRectEl" />
    <text fill="#000000" font-family="Helvetica" font-size="560" text-anchor="middle" x="38370" y="10330" id="TEXT4365_pbTextEl">590-VT131X</text>
  </g>
  <g id="DATAPOINT19" PB:IsMultiState="False" PBD:PtTagName="\\RTDBB\590_VT131X" PB:Type="7" PB:NumberFormat="0.00">
    <rect x="36520" y="10440" width="2380" height="520" stroke-width="0" fill="none" id="DATAPOINT19_pbTextBoundingRectEl" />
    <text fill="#000000" font-family="Helvetica" font-size="560" text-anchor="middle" x="37710" y="10980" id="DATAPOINT19_pbTextEl" PBD:Property="VAL">#.##</text>
  </g>
  <g id="TEXT4367">
    <rect x="38780" y="10460" width="1300" height="560" stroke-width="0" fill="none" id="TEXT4367_pbTextBoundingRectEl" />
    <text fill="#000000" font-family="Helvetica" font-size="560" text-anchor="middle" x="39430" y="11020" id="TEXT4367_pbTextEl">µm</text>
  </g>
  <rect x="45600" y="23660" width="160" height="1540" stroke="#000000" stroke-width="20" fill="#808080" id="RECTANGLE21" />
  <g id="TEXT4368">
    <rect x="21080" y="4940" width="4980" height="660" stroke-width="0" fill="none" id="TEXT4368_pbTextBoundingRectEl" />
    <text fill="#000000" font-family="Helvetica" font-size="560" text-anchor="middle" x="23570" y="5550" id="TEXT4368_pbTextEl">590-PT130B</text>
  </g>
  <g id="DATAPOINT20" PB:IsMultiState="False" PBD:PtTagName="\\RTDBB\590_PT130B" PB:Type="7" PB:NumberFormat="0.00">
    <rect x="21720" y="5660" width="2380" height="520" stroke-width="0" fill="none" id="DATAPOINT20_pbTextBoundingRectEl" />
    <text fill="#000000" font-family="Helvetica" font-size="560" text-anchor="middle" x="22910" y="6200" id="DATAPOINT20_pbTextEl" PBD:Property="VAL">#.##</text>
  </g>
  <g id="TEXT4370">
    <rect x="23980" y="5680" width="1300" height="560" stroke-width="0" fill="none" id="TEXT4370_pbTextBoundingRectEl" />
    <text fill="#000000" font-family="Helvetica" font-size="560" text-anchor="middle" x="24630" y="6240" id="TEXT4370_pbTextEl">Bar</text>
  </g>
  <g id="TEXT4371">
    <rect x="25960" y="4940" width="4980" height="660" stroke-width="0" fill="none" id="TEXT4371_pbTextBoundingRectEl" />
    <text fill="#000000" font-family="Helvetica" font-size="560" text-anchor="middle" x="28450" y="5550" id="TEXT4371_pbTextEl">590-PT130C</text>
  </g>
  <g id="DATAPOINT22" PB:IsMultiState="False" PBD:PtTagName="\\RTDBB\590_PT130C" PB:Type="7" PB:NumberFormat="0.00">
    <rect x="26600" y="5660" width="2380" height="520" stroke-width="0" fill="none" id="DATAPOINT22_pbTextBoundingRectEl" />
    <text fill="#000000" font-family="Helvetica" font-size="560" text-anchor="middle" x="27790" y="6200" id="DATAPOINT22_pbTextEl" PBD:Property="VAL">#.##</text>
  </g>
  <g id="TEXT4373">
    <rect x="28860" y="5680" width="1300" height="560" stroke-width="0" fill="none" id="TEXT4373_pbTextBoundingRectEl" />
    <text fill="#000000" font-family="Helvetica" font-size="560" text-anchor="middle" x="29510" y="6240" id="TEXT4373_pbTextEl">Bar</text>
  </g>
  <g id="TEXT4374">
    <rect x="20940" y="13620" width="4980" height="660" stroke-width="0" fill="none" id="TEXT4374_pbTextBoundingRectEl" />
    <text fill="#000000" font-family="Helvetica" font-size="560" text-anchor="middle" x="23430" y="14230" id="TEXT4374_pbTextEl">590-CD150</text>
  </g>
  <g id="DATAPOINT23" PB:IsMultiState="False" PBD:PtTagName="\\RTDBB\590_CD150" PB:Type="7" PB:NumberFormat="0.00">
    <rect x="21580" y="14340" width="2380" height="520" stroke-width="0" fill="none" id="DATAPOINT23_pbTextBoundingRectEl" />
    <text fill="#000000" font-family="Helvetica" font-size="560" text-anchor="middle" x="22770" y="14880" id="DATAPOINT23_pbTextEl" PBD:Property="VAL">#.##</text>
  </g>
  <g id="TEXT4376">
    <rect x="23840" y="14360" width="1300" height="560" stroke-width="0" fill="none" id="TEXT4376_pbTextBoundingRectEl" />
    <text fill="#000000" font-family="Helvetica" font-size="560" text-anchor="middle" x="24490" y="14920" id="TEXT4376_pbTextEl">A</text>
  </g>
  <g id="TEXT4377">
    <rect x="7360" y="12080" width="4980" height="660" stroke-width="0" fill="none" id="TEXT4377_pbTextBoundingRectEl" />
    <text fill="#000000" font-family="Helvetica" font-size="560" text-anchor="middle" x="9850" y="12690" id="TEXT4377_pbTextEl">590-TE130</text>
  </g>
  <g id="DATAPOINT24" PB:IsMultiState="False" PBD:PtTagName="\\RTDBB\590_TE130" PB:Type="7" PB:NumberFormat="0.00">
    <rect x="8000" y="12800" width="2380" height="520" stroke-width="0" fill="none" id="DATAPOINT24_pbTextBoundingRectEl" />
    <text fill="#000000" font-family="Helvetica" font-size="560" text-anchor="middle" x="9190" y="13340" id="DATAPOINT24_pbTextEl" PBD:Property="VAL">#.##</text>
  </g>
  <g id="TEXT4379">
    <rect x="10260" y="12820" width="1300" height="560" stroke-width="0" fill="none" id="TEXT4379_pbTextBoundingRectEl" />
    <text fill="#000000" font-family="Helvetica" font-size="560" text-anchor="middle" x="10910" y="13380" id="TEXT4379_pbTextEl">°C</text>
  </g>
  <g id="TEXT4380">
    <rect x="7360" y="15220" width="4980" height="660" stroke-width="0" fill="none" id="TEXT4380_pbTextBoundingRectEl" />
    <text fill="#000000" font-family="Helvetica" font-size="560" text-anchor="middle" x="9850" y="15830" id="TEXT4380_pbTextEl">590-PT130A</text>
  </g>
  <g id="DATAPOINT25" PB:IsMultiState="False" PBD:PtTagName="\\RTDBB\590_PT130" PB:Type="7" PB:NumberFormat="0.00">
    <rect x="8000" y="15940" width="2380" height="520" stroke-width="0" fill="none" id="DATAPOINT25_pbTextBoundingRectEl" />
    <text fill="#000000" font-family="Helvetica" font-size="560" text-anchor="middle" x="9190" y="16480" id="DATAPOINT25_pbTextEl" PBD:Property="VAL">#.##</text>
  </g>
  <g id="TEXT4382">
    <rect x="10260" y="15960" width="1300" height="560" stroke-width="0" fill="none" id="TEXT4382_pbTextBoundingRectEl" />
    <text fill="#000000" font-family="Helvetica" font-size="560" text-anchor="middle" x="10910" y="16520" id="TEXT4382_pbTextEl">Bar</text>
  </g>
  <g id="TEXT4383">
    <rect x="7740" y="25520" width="4980" height="660" stroke-width="0" fill="none" id="TEXT4383_pbTextBoundingRectEl" />
    <text fill="#000000" font-family="Helvetica" font-size="560" text-anchor="middle" x="10230" y="26130" id="TEXT4383_pbTextEl">590-TE101</text>
  </g>
  <g id="DATAPOINT26" PB:IsMultiState="False" PBD:PtTagName="\\RTDBB\590_TE101" PB:Type="7" PB:NumberFormat="0.00">
    <rect x="8380" y="26240" width="2380" height="520" stroke-width="0" fill="none" id="DATAPOINT26_pbTextBoundingRectEl" />
    <text fill="#000000" font-family="Helvetica" font-size="560" text-anchor="middle" x="9570" y="26780" id="DATAPOINT26_pbTextEl" PBD:Property="VAL">#.##</text>
  </g>
  <g id="TEXT4385">
    <rect x="10640" y="26260" width="1300" height="560" stroke-width="0" fill="none" id="TEXT4385_pbTextBoundingRectEl" />
    <text fill="#000000" font-family="Helvetica" font-size="560" text-anchor="middle" x="11290" y="26820" id="TEXT4385_pbTextEl">°C</text>
  </g>
  <path id="ELLIPSE41" d="M 7464 26020 l -44 -13 -28 -14 -22 -13 -17 -13 -16 -14 -13 -13 -11 -13 -10 -14 -9 -13 -8 -13 -7 -14 -5 -13 -5 -13 -5 -14 -3 -13 -3 -13 -2 -14 -1 -13 -1 -13 0 -14 1 -13 1 -13 2 -14 3 -13 3 -13 5 -14 5 -13 5 -13 7 -14 8 -13 9 -13 10 -14 11 -13 13 -13 16 -14 17 -13 22 -13 28 -14 44 -13 112 0 44 13 28 14 22 13 17 13 16 14 13 13 11 13 10 14 9 13 8 13 7 14 5 13 5 13 5 14 3 13 3 13 2 14 1 13 1 13 0 14 -1 13 -1 13 -2 14 -3 13 -3 13 -5 14 -5 13 -5 13 -7 14 -8 13 -9 13 -10 14 -11 13 -13 13 -16 14 -17 13 -22 13 -28 14 -44 13 -112 0" stroke="#FF0000" stroke-width="20" fill="#FF0000" />
  <path id="ELLIPSE42" d="M 7464 26900 l -44 -13 -28 -14 -22 -13 -17 -13 -16 -14 -13 -13 -11 -13 -10 -14 -9 -13 -8 -13 -7 -14 -5 -13 -5 -13 -5 -14 -3 -13 -3 -13 -2 -14 -1 -13 -1 -13 0 -14 1 -13 1 -13 2 -14 3 -13 3 -13 5 -14 5 -13 5 -13 7 -14 8 -13 9 -13 10 -14 11 -13 13 -13 16 -14 17 -13 22 -13 28 -14 44 -13 112 0 44 13 28 14 22 13 17 13 16 14 13 13 11 13 10 14 9 13 8 13 7 14 5 13 5 13 5 14 3 13 3 13 2 14 1 13 1 13 0 14 -1 13 -1 13 -2 14 -3 13 -3 13 -5 14 -5 13 -5 13 -7 14 -8 13 -9 13 -10 14 -11 13 -13 13 -16 14 -17 13 -22 13 -28 14 -44 13 -112 0" stroke="#FF0000" stroke-width="20" fill="#FF0000" />
  <g id="TEXT4499">
    <rect x="36080" y="22040" width="4980" height="660" stroke-width="0" fill="none" id="TEXT4499_pbTextBoundingRectEl" />
    <text fill="#000000" font-family="Helvetica" font-size="560" text-anchor="middle" x="38570" y="22650" id="TEXT4499_pbTextEl">590-VT133X</text>
  </g>
  <g id="DATAPOINT27" PB:IsMultiState="False" PBD:PtTagName="\\RTDBB\590_VT133X" PB:Type="7" PB:NumberFormat="0.00">
    <rect x="36720" y="22760" width="2380" height="520" stroke-width="0" fill="none" id="DATAPOINT27_pbTextBoundingRectEl" />
    <text fill="#000000" font-family="Helvetica" font-size="560" text-anchor="middle" x="37910" y="23300" id="DATAPOINT27_pbTextEl" PBD:Property="VAL">#.##</text>
  </g>
  <g id="TEXT4501">
    <rect x="38980" y="22780" width="1300" height="560" stroke-width="0" fill="none" id="TEXT4501_pbTextBoundingRectEl" />
    <text fill="#000000" font-family="Helvetica" font-size="560" text-anchor="middle" x="39630" y="23340" id="TEXT4501_pbTextEl">µm</text>
  </g>
  <g id="TEXT4502">
    <rect x="19820" y="1380" width="15580" height="2060" stroke-width="0" fill="none" id="TEXT4502_pbTextBoundingRectEl" />
    <text fill="#000000" font-family="Helvetica" font-size="960" text-anchor="middle" x="27610" y="2890" id="TEXT4502_pbTextEl">#3空压机油系统</text>
  </g>
</svg>