<?xml version="1.0" encoding="UTF-8"?>
<svg height="100%" width="100%" viewBox="0 0 64000 32000" version="1.1" xmlns="http://www.w3.org/2000/svg" xmlns:xlink="http://www.w3.org/1999/xlink" xmlns:PB="urn:osisoft-com-pb" xmlns:PBI="urn:osisoft-com-interface" xmlns:PBD="urn:osisoft-com-data" style="background-color:#C0C0C0">
  <title>KYZB</title>
  <defs>
    <PBD:TagUses tag="\\RTDBB\590_PDT_AM001B">
      <PBI:Symbol name="DATAPOINT313" PB:Type="7" />
    </PBD:TagUses>
    <PBD:TagUses tag="\\RTDBB\590_EI1001B">
      <PBI:Symbol name="DATAPOINT314" PB:Type="7" />
    </PBD:TagUses>
    <PBD:TagUses tag="\\RTDBB\590_TI1003B">
      <PBI:Symbol name="DATAPOINT315" PB:Type="7" />
    </PBD:TagUses>
    <PBD:TagUses tag="\\RTDBB\590_TI1001B">
      <PBI:Symbol name="DATAPOINT316" PB:Type="7" />
    </PBD:TagUses>
    <PBD:TagUses tag="\\RTDBB\590_TI1002B">
      <PBI:Symbol name="DATAPOINT317" PB:Type="7" />
    </PBD:TagUses>
    <PBD:TagUses tag="\\RTDBB\590_IGV1001B">
      <PBI:Symbol name="DATAPOINT318" PB:Type="7" />
    </PBD:TagUses>
    <PBD:TagUses tag="\\RTDBB\590_VI1001B">
      <PBI:Symbol name="DATAPOINT319" PB:Type="7" />
    </PBD:TagUses>
    <PBD:TagUses tag="\\RTDBB\590_VI1002B">
      <PBI:Symbol name="DATAPOINT320" PB:Type="7" />
    </PBD:TagUses>
    <PBD:TagUses tag="\\RTDBB\590_TI1007B">
      <PBI:Symbol name="DATAPOINT321" PB:Type="7" />
    </PBD:TagUses>
    <PBD:TagUses tag="\\RTDBB\590_PI1005B">
      <PBI:Symbol name="DATAPOINT322" PB:Type="7" />
    </PBD:TagUses>
    <PBD:TagUses tag="\\RTDBB\590_PV1002B">
      <PBI:Symbol name="DATAPOINT323" PB:Type="7" />
    </PBD:TagUses>
    <PBD:TagUses tag="\\RTDBB\590_PI1004B">
      <PBI:Symbol name="DATAPOINT324" PB:Type="7" />
    </PBD:TagUses>
    <PBD:TagUses tag="\\RTDBB\590_TI1006B">
      <PBI:Symbol name="DATAPOINT325" PB:Type="7" />
    </PBD:TagUses>
    <PBD:TagUses tag="\\RTDBB\590_PI1003B">
      <PBI:Symbol name="DATAPOINT326" PB:Type="7" />
    </PBD:TagUses>
    <PBD:TagUses tag="\\RTDBB\590_TI1005B">
      <PBI:Symbol name="DATAPOINT327" PB:Type="7" />
    </PBD:TagUses>
    <PBD:TagUses tag="\\RTDBB\590_PI1002A">
      <PBI:Symbol name="DATAPOINT328" PB:Type="7" />
    </PBD:TagUses>
    <PBD:TagUses tag="\\RTDBB\590_TI1004B">
      <PBI:Symbol name="DATAPOINT329" PB:Type="7" />
    </PBD:TagUses>
    <PBD:TagUses tag="\\RTDBB\590_PI1001B">
      <PBI:Symbol name="DATAPOINT330" PB:Type="7" />
    </PBD:TagUses>
  </defs>
  <rect x="16240" y="26500" width="8020" height="5040" stroke="#000000" stroke-width="40" fill="none" id="RECTANGLE157" />
  <rect x="48720" y="20220" width="3400" height="4500" stroke="#000000" stroke-width="40" fill="none" id="RECTANGLE158" />
  <rect x="9240" y="11100" width="28680" height="4380" stroke="#000000" stroke-width="40" stroke-dasharray="60,60" fill="none" id="RECTANGLE159" />
  <rect x="3880" y="13100" width="34040" height="360" stroke="#000000" stroke-width="60" fill="#FFFFFF" id="RECTANGLE160" />
  <rect x="3720" y="5660" width="1400" height="1500" stroke="#000000" stroke-width="20" fill="none" />
  <path d="M 3720 7140 l 580 640" stroke="#000000" stroke-width="20" fill="none" />
  <path d="M 5140 7140 l -580 640" stroke="#000000" stroke-width="20" fill="none" />
  <path d="M 4240 7760 l 380 0" stroke="#000000" stroke-width="20" fill="none" />
  <path d="M 3780 6060 l 260 0" stroke="#000000" stroke-width="20" fill="none" />
  <path d="M 4040 6880 l 260 0" stroke="#000000" stroke-width="20" fill="none" />
  <path d="M 4300 6060 l 260 0" stroke="#000000" stroke-width="20" fill="none" />
  <path d="M 4560 6880 l 260 0" stroke="#000000" stroke-width="20" fill="none" />
  <path d="M 4820 6060 l 260 0" stroke="#000000" stroke-width="20" fill="none" />
  <path d="M 4040 6060 l 0 820" stroke="#000000" stroke-width="20" fill="none" />
  <path d="M 4300 6060 l 0 820" stroke="#000000" stroke-width="20" fill="none" />
  <path d="M 4560 6060 l 0 820" stroke="#000000" stroke-width="20" fill="none" />
  <path d="M 4820 6060 l 0 820" stroke="#000000" stroke-width="20" fill="none" />
  <path d="M 18500 30960 l 7 0 7 0 7 0 8 0 7 0 7 -1 8 0 7 -1 7 -1 7 0 8 -1 7 -1 7 -1 7 -1 7 -1 7 -2 7 -1 7 -1 7 -2 7 -1 7 -2 7 -1 7 -2 6 -2 7 -2 7 -2 6 -2 7 -2 6 -2 7 -2 6 -3 6 -2 6 -2 6 -3 6 -3 6 -2 6 -3 6 -3 6 -2 5 -3 6 -3 6 -3 5 -3 5 -3 5 -4 6 -3 5 -3 5 -4 4 -3 5 -3 5 -4 4 -3 5 -4 4 -4 5 -3 4 -4 4 -4 4 -4 4 -4 3 -4 4 -3 3 -4 4 -4 3 -5 3 -4 3 -4 3 -4 3 -4 3 -4 2 -5 3 -4 2 -4 2 -4 2 -5 2 -4 2 -5 2 -4 1 -4 2 -5 1 -4 1 -5 1 -4 1 -5 1 -4 1 -5 0 -4 1 -5 0 -4 0 -5 1 -5 -1 -4 0 -5 0 -4 -1 -5 0 -4 -1 -5 -1 -4 -1 -5 -1 -4 -1 -5 -1 -4 -2 -5 -1 -4 -2 -4 -2 -5 -2 -4 -2 -5 -2 -4 -2 -4 -3 -4 -2 -5 -3 -4 -3 -4 -3 -4 -3 -4 -3 -4 -3 -5 -4 -4 -3 -4 -4 -4 -3 -3 -4 -4 -4 -4 -4 -4 -4 -4 -5 -3 -4 -4 -5 -4 -4 -3 -5 -4 -5 -3 -4 -3 -5 -4 -5 -3 -6 -3 -5 -4 -5 -3 -5 -3 -6 -3 -6 -3 -5 -3 -6 -2 -6 -3 -6 -3 -6 -2 -6 -3 -6 -3 -6 -2 -6 -2 -6 -3 -7 -2 -6 -2 -7 -2 -6 -2 -7 -2 -7 -2 -6 -2 -7 -2 -7 -1 -7 -2 -7 -1 -7 -2 -7 -1 -7 -1 -7 -2 -7 -1 -7 -1 -7 -1 -7 -1 -8 -1 -7 0 -7 -1 -7 -1 -8 0 -7 -1 -7 0 -8 0 -7 0 -7 0 -7 -1 -8 1" stroke="#000000" stroke-width="20" fill="none" />
  <path d="M 18500 30440 l -2740 0" stroke="#000000" stroke-width="20" fill="none" />
  <path d="M 18500 30960 l -2740 0" stroke="#000000" stroke-width="20" fill="none" />
  <path d="M 15760 30440 l 0 520" stroke="#000000" stroke-width="20" fill="none" />
  <path d="M 17220 30540 l 780 320" stroke="#000000" stroke-width="20" fill="none" />
  <path d="M 17880 30540 l 800 320" stroke="#000000" stroke-width="20" fill="none" />
  <path d="M 17860 30540 l 140 320" stroke="#000000" stroke-width="20" fill="none" />
  <path d="M 18560 30740 l 100 120" stroke="#000000" stroke-width="20" fill="none" />
  <path d="M 18480 30860 l 160 0" stroke="#000000" stroke-width="20" fill="none" />
  <g name="Valve4">
    <path d="M 49975 24462 l 0 467 980 -467 0 467 -980 -467" stroke="#000000" stroke-width="20" fill="#000000" />
  </g>
  <g name="DownArrow">
    <path d="M 50726 25236 l -532 0 266 -490 266 490 0 0" stroke="#000000" stroke-width="20" fill="#000000" />
  </g>
  <g name="Valve4">
    <path d="M 49955 20418 l 0 -467 980 467 0 -467 -980 467" stroke="#000000" stroke-width="20" fill="#000000" />
  </g>
  <g name="DownArrow">
    <path d="M 50706 19624 l -532 0 266 490 266 -490 0 0" stroke="#000000" stroke-width="20" fill="#000000" />
  </g>
  <g name="Valve1">
    <path d="M 47778 26623 l -388 0 0 0 3 -32 7 -32 7 -33 12 -32 17 -28 19 -28 24 -25 26 -23 26 -21 31 -19 32 -16 33 -16 36 -12 36 -7 38 -4 41 -3 0 0 40 3 39 4 35 7 36 12 34 16 33 16 29 19 29 21 26 23 19 25 21 28 15 28 17 32 7 33 7 32 2 32 -389 0" stroke="#000000" stroke-width="20" fill="#000000" />
    <path d="M 47307 27218 l 0 -414 949 414 0 -414 -949 414" stroke="#000000" stroke-width="20" fill="#000000" />
    <path d="M 47778 27010 l 55 -23 0 -361 -106 0 0 361 55 23 -4 0" stroke="#000000" stroke-width="20" fill="#000000" />
  </g>
  <g name="DownArrow">
    <path d="M 47949 27413 l -378 0 189 -382 189 382 0 0" stroke="#000000" stroke-width="20" fill="#000000" />
  </g>
  <path id="LINE759" d="M 47820 26980 l 860 -800" stroke="#000000" stroke-width="20" fill="none" />
  <path id="LINE760" d="M 48660 26200 l 0 -360" stroke="#000000" stroke-width="20" fill="none" />
  <path id="LINE761" d="M 47780 26280 l 0 -440" stroke="#000000" stroke-width="20" fill="none" />
  <path id="LINE762" d="M 48660 25840 l -880 0" stroke="#000000" stroke-width="20" fill="none" />
  <path d="M 380 4460 l 1160 0" stroke="#80FFFF" stroke-width="40" fill="#FF8000" />
  <path d="M 380 4660 l 1160 0" stroke="#80FFFF" stroke-width="40" fill="#FF8000" />
  <path d="M 1540 4340 l 0 120" stroke="#80FFFF" stroke-width="40" fill="#FF8000" />
  <path d="M 1540 4660 l 0 200" stroke="#80FFFF" stroke-width="40" fill="#FF8000" />
  <path d="M 380 4460 l 0 200" stroke="#80FFFF" stroke-width="40" fill="#FF8000" />
  <path d="M 1580 4340 l 520 200" stroke="#80FFFF" stroke-width="40" fill="#FF8000" />
  <path d="M 1580 4860 l 520 -320" stroke="#80FFFF" stroke-width="40" fill="#FF8000" />
  <g id="TEXT124">
    <rect x="19240" y="30420" width="3720" height="600" stroke-width="0" fill="none" id="TEXT124_pbTextBoundingRectEl" />
    <text fill="#000000" font-family="Helvetica" font-size="560" text-anchor="middle" x="21100" y="31000" id="TEXT124_pbTextEl">低油位开关</text>
  </g>
  <g id="TEXT125">
    <rect x="5540" y="5420" width="3720" height="600" stroke-width="0" fill="none" id="TEXT125_pbTextBoundingRectEl" />
    <text fill="#000000" font-family="Helvetica" font-size="560" text-anchor="middle" x="7400" y="6000" id="TEXT125_pbTextEl">590-PDT001B</text>
  </g>
  <path id="LINE770" d="M 2180 4520 l 32480 0" stroke="#80FFFF" stroke-width="20" fill="none" />
  <path d="M 380 6060 l 1160 0" stroke="#80FFFF" stroke-width="40" fill="#FF8000" />
  <path d="M 380 6280 l 1160 0" stroke="#80FFFF" stroke-width="40" fill="#FF8000" />
  <path d="M 1540 5940 l 0 120" stroke="#80FFFF" stroke-width="40" fill="#FF8000" />
  <path d="M 1540 6280 l 0 180" stroke="#80FFFF" stroke-width="40" fill="#FF8000" />
  <path d="M 380 6060 l 0 220" stroke="#80FFFF" stroke-width="40" fill="#FF8000" />
  <path d="M 1580 5940 l 520 200" stroke="#80FFFF" stroke-width="40" fill="#FF8000" />
  <path d="M 1580 6460 l 520 -320" stroke="#80FFFF" stroke-width="40" fill="#FF8000" />
  <path id="LINE778" d="M 2140 6180 l 1460 0" stroke="#80FFFF" stroke-width="40" fill="none" />
  <path id="LINE779" d="M 5180 6720 l 5960 0" stroke="#80FFFF" stroke-width="40" fill="none" />
  <path id="LINE780" d="M 11140 6720 l 0 5020" stroke="#80FFFF" stroke-width="40" fill="none" />
  <path id="LINE781" d="M 13560 12380 l 0 -2260" stroke="#000000" stroke-width="80" fill="none" />
  <path id="ELLIPSE65" d="M 13502 10140 l -45 -13 -30 -14 -23 -13 -18 -13 -16 -14 -14 -13 -13 -13 -10 -14 -10 -13 -9 -13 -7 -14 -7 -13 -5 -13 -5 -14 -5 -13 -3 -13 -3 -14 -2 -13 -2 -13 -1 -14 0 -13 0 0 0 -13 1 -14 2 -13 2 -13 3 -14 3 -13 5 -13 5 -14 5 -13 7 -13 7 -14 9 -13 10 -13 10 -14 13 -13 14 -13 16 -14 18 -13 23 -13 30 -14 45 -13 116 0 45 13 30 14 23 13 18 13 16 14 14 13 13 13 10 14 10 13 9 13 7 14 7 13 5 13 5 14 5 13 3 13 3 14 2 13 2 13 1 14 0 13 0 0 0 13 -1 14 -2 13 -2 13 -3 14 -3 13 -5 13 -5 14 -5 13 -7 13 -7 14 -9 13 -10 13 -10 14 -13 13 -14 13 -16 14 -18 13 -23 13 -30 14 -45 13 -116 0" stroke="#000000" stroke-width="40" fill="none" />
  <path id="LINE782" d="M 13420 11340 l 220 -240" stroke="#000000" stroke-width="40" fill="none" />
  <path id="LINE783" d="M 13420 11560 l 220 -260" stroke="#000000" stroke-width="40" fill="none" />
  <path id="LINE784" d="M 13420 11800 l 220 -240" stroke="#000000" stroke-width="40" fill="none" />
  <g id="TEXT126">
    <rect x="13360" y="7500" width="3720" height="600" stroke-width="0" fill="none" id="TEXT126_pbTextBoundingRectEl" />
    <text fill="#000000" font-family="Helvetica" font-size="560" text-anchor="middle" x="15220" y="8080" id="TEXT126_pbTextEl">590-IGC1001B</text>
  </g>
  <path d="M 6860 13447 l -40 185 -40 103 -40 78 -40 64 -40 54 -40 48 -40 42 -40 37 -40 34 -40 30 -40 27 -40 24 -40 22 -40 19 -40 18 -40 15 -40 14 -40 11 -40 10 -40 8 -40 7 -40 5 -40 3 -40 1 -40 0 -40 -1 -40 -3 -40 -5 -40 -7 -40 -8 -40 -10 -40 -11 -40 -14 -40 -15 -40 -18 -40 -19 -40 -22 -40 -24 -40 -27 -40 -30 -40 -34 -40 -37 -40 -42 -40 -48 -40 -54 -40 -64 -40 -78 -40 -103 -40 -185 0 -213 40 -185 40 -103 40 -78 40 -64 40 -54 40 -48 40 -42 40 -37 40 -34 40 -30 40 -27 40 -24 40 -22 40 -19 40 -18 40 -15 40 -14 40 -11 40 -10 40 -8 40 -7 40 -5 40 -3 40 -1 40 0 40 1 40 3 40 5 40 7 40 8 40 10 40 11 40 14 40 15 40 18 40 19 40 22 40 24 40 27 40 30 40 34 40 37 40 42 40 48 40 54 40 64 40 78 40 103 40 185 0 213" stroke="#000000" stroke-width="20" fill="#00FF00" />
  <g>
    <rect x="5320" y="12920" width="1100" height="860" stroke-width="0" fill="none" />
    <text fill="#000000" font-family="Helvetica" font-size="800" text-anchor="middle" x="5870" y="13750">M</text>
  </g>
  <path id="POLYGON786" d="M 21620 11740 l 3920 880 0 1360 -3920 880 0 -3180 0 60" stroke="#000000" stroke-width="20" fill="#808080" />
  <path id="POLYGON787" d="M 32760 11740 l 3920 880 0 1360 -3920 880 0 -3180 0 60" stroke="#000000" stroke-width="20" fill="#808080" />
  <path id="POLYGON788" d="M 10500 11740 l 3920 880 0 1360 -3920 880 0 -3180 0 60" stroke="#000000" stroke-width="20" fill="#808080" />
  <g id="TEXT128">
    <rect x="15520" y="11320" width="3720" height="600" stroke-width="0" fill="none" id="TEXT128_pbTextBoundingRectEl" />
    <text fill="#000000" font-family="Helvetica" font-size="560" text-anchor="middle" x="17380" y="11900" id="TEXT128_pbTextEl">590-VI1001B</text>
  </g>
  <g id="TEXT129">
    <rect x="27340" y="11220" width="3720" height="600" stroke-width="0" fill="none" id="TEXT129_pbTextBoundingRectEl" />
    <text fill="#000000" font-family="Helvetica" font-size="560" text-anchor="middle" x="29200" y="11800" id="TEXT129_pbTextEl">590-VI1002B</text>
  </g>
  <path id="LINE796" d="M 14080 10900 l 0 -920" stroke="#000000" stroke-width="40" fill="none" />
  <path id="LINE797" d="M 14080 9980 l 36340 0" stroke="#000000" stroke-width="40" fill="none" />
  <path id="LINE798" d="M 50420 9980 l 0 9660" stroke="#000000" stroke-width="40" fill="none" />
  <g id="TEXT130">
    <rect x="41380" y="12000" width="3720" height="600" stroke-width="0" fill="none" id="TEXT130_pbTextBoundingRectEl" />
    <text fill="#000000" font-family="Helvetica" font-size="560" text-anchor="middle" x="43240" y="12580" id="TEXT130_pbTextEl">590-TI1007B</text>
  </g>
  <g id="TEXT131">
    <rect x="41440" y="15080" width="3720" height="600" stroke-width="0" fill="none" id="TEXT131_pbTextBoundingRectEl" />
    <text fill="#000000" font-family="Helvetica" font-size="560" text-anchor="middle" x="43300" y="15660" id="TEXT131_pbTextEl">590-PI1005B</text>
  </g>
  <rect x="51760" y="21880" width="600" height="1180" stroke="#000000" stroke-width="20" fill="#C0C0C0" />
  <path d="M 52080 21880 l -320 1180" stroke="#000000" stroke-width="20" stroke-dasharray="60,60" fill="none" />
  <path d="M 52060 21860 l 300 1180" stroke="#000000" stroke-width="20" stroke-dasharray="60,60" fill="none" />
  <rect x="48380" y="21880" width="600" height="1180" stroke="#000000" stroke-width="20" fill="#C0C0C0" />
  <path d="M 48700 21880 l -300 1180" stroke="#000000" stroke-width="20" stroke-dasharray="60,60" fill="none" />
  <path d="M 48680 21860 l 300 1180" stroke="#000000" stroke-width="20" stroke-dasharray="60,60" fill="none" />
  <path id="LINE806" d="M 50480 25300 l 0 1760" stroke="#000000" stroke-width="40" fill="none" />
  <path id="LINE807" d="M 50440 27060 l -21340 0" stroke="#000000" stroke-width="40" fill="none" />
  <path d="M 45660 27179 l -40 171 -40 94 -40 71 -40 59 -40 49 -40 43 -40 37 -40 33 -40 29 -40 27 -40 23 -40 20 -40 19 -40 15 -40 14 -40 12 -40 10 -40 8 -40 6 -40 4 -40 3 -40 0 0 0 -40 0 -40 -3 -40 -4 -40 -6 -40 -8 -40 -10 -40 -12 -40 -14 -40 -15 -40 -19 -40 -20 -40 -23 -40 -27 -40 -29 -40 -33 -40 -37 -40 -43 -40 -49 -40 -59 -40 -71 -40 -94 -40 -171 0 -197 40 -171 40 -94 40 -71 40 -59 40 -49 40 -43 40 -37 40 -33 40 -29 40 -27 40 -23 40 -20 40 -19 40 -15 40 -14 40 -12 40 -10 40 -8 40 -6 40 -4 40 -3 40 -1 0 0 40 1 40 3 40 4 40 6 40 8 40 10 40 12 40 14 40 15 40 19 40 20 40 23 40 27 40 29 40 33 40 37 40 43 40 49 40 59 40 71 40 94 40 171 0 197" stroke="#000000" stroke-width="20" fill="#C0C0C0" />
  <path d="M 44360 27460 l 420 -1040" stroke="#000000" stroke-width="20" fill="none" />
  <path d="M 44780 26420 l 420 1040" stroke="#000000" stroke-width="20" fill="none" />
  <path d="M 44360 27460 l 0 -1740" stroke="#000000" stroke-width="20" fill="none" />
  <path d="M 45200 27460 l 0 -1740" stroke="#000000" stroke-width="20" fill="none" />
  <path id="LINE812" d="M 47760 27340 l 0 1660" stroke="#000000" stroke-width="40" fill="none" />
  <path id="LINE813" d="M 47760 29000 l -5780 0" stroke="#000000" stroke-width="40" fill="none" />
  <path id="LINE814" d="M 41980 28900 l 0 -1920" stroke="#000000" stroke-width="40" fill="none" />
  <path id="LINE815" d="M 29180 27020 l 0 1880" stroke="#000000" stroke-width="40" fill="none" />
  <path d="M 28600 29980 l 340 -560 480 0 320 560 -1140 0 0 0" stroke="#000000" stroke-width="20" fill="#808080" />
  <path d="M 29820 29195 l -40 128 -40 70 -40 51 -40 42 -40 34 -40 29 -40 25 -40 21 -40 18 -40 14 -40 13 -40 9 -40 8 -40 5 -40 3 -40 1 0 0 -40 -1 -40 -3 -40 -5 -40 -8 -40 -9 -40 -13 -40 -14 -40 -18 -40 -21 -40 -25 -40 -29 -40 -34 -40 -42 -40 -51 -40 -70 -40 -128 0 -149 40 -128 40 -70 40 -51 40 -42 40 -34 40 -29 40 -25 40 -21 40 -18 40 -14 40 -13 40 -9 40 -8 40 -5 40 -3 40 -2 0 0 40 2 40 3 40 5 40 8 40 9 40 13 40 14 40 18 40 21 40 25 40 29 40 34 40 42 40 51 40 70 40 128 0 149" stroke="#000000" stroke-width="20" fill="#C0C0C0" />
  <path id="LINE816" d="M 28500 29120 l -1420 0" stroke="#000000" stroke-width="40" fill="none" />
  <path id="LINE817" d="M 27080 29120 l 0 1900" stroke="#000000" stroke-width="40" fill="none" />
  <path id="LINE818" d="M 33380 27080 l 0 1880" stroke="#000000" stroke-width="40" fill="none" />
  <path id="POLYGON818" d="M 32820 30040 l 320 -560 480 0 320 560 -1140 0 20 0" stroke="#000000" stroke-width="20" fill="#808080" />
  <path id="LINE819" d="M 32700 29200 l -1420 0" stroke="#000000" stroke-width="40" fill="none" />
  <path id="LINE820" d="M 31280 29200 l 0 1880" stroke="#000000" stroke-width="40" fill="none" />
  <path id="LINE821" d="M 31160 31080 l -6880 0" stroke="#000000" stroke-width="40" fill="none" />
  <g id="TEXT132">
    <rect x="10620" y="3560" width="3720" height="600" stroke-width="0" fill="none" id="TEXT132_pbTextBoundingRectEl" />
    <text fill="#000000" font-family="Helvetica" font-size="560" text-anchor="middle" x="12480" y="4140" id="TEXT132_pbTextEl">密封气压力开关</text>
  </g>
  <g id="TEXT133">
    <rect x="8900" y="28500" width="4940" height="840" stroke-width="0" fill="none" id="TEXT133_pbTextBoundingRectEl" />
    <text fill="#000000" font-family="Helvetica" font-size="560" text-anchor="middle" x="11370" y="29200" id="TEXT133_pbTextEl">2#空压机报警</text>
  </g>
  <path id="LINE822" d="M 45220 25820 l 0 -4060" stroke="#009600" stroke-width="40" fill="none" />
  <path id="LINE823" d="M 45220 21760 l -41740 0" stroke="#009600" stroke-width="40" fill="none" />
  <path id="LINE824" d="M 44360 25820 l 0 -5600" stroke="#009600" stroke-width="40" fill="none" />
  <path id="LINE825" d="M 44360 20220 l -40880 0" stroke="#009600" stroke-width="40" fill="none" />
  <path d="M 1760 20100 l 1160 0" stroke="#009600" stroke-width="40" fill="#FF8000" />
  <path d="M 1760 20320 l 1160 0" stroke="#009600" stroke-width="40" fill="#FF8000" />
  <path d="M 2920 19960 l 0 140" stroke="#009600" stroke-width="40" fill="#FF8000" />
  <path d="M 2920 20320 l 0 160" stroke="#009600" stroke-width="40" fill="#FF8000" />
  <path d="M 1760 20100 l 0 220" stroke="#009600" stroke-width="40" fill="#FF8000" />
  <path d="M 2960 19960 l 520 200" stroke="#009600" stroke-width="40" fill="#FF8000" />
  <path d="M 2960 20480 l 520 -320" stroke="#009600" stroke-width="40" fill="#FF8000" />
  <path d="M 3480 21620 l -1160 0" stroke="#009600" stroke-width="40" fill="#FF8000" />
  <path d="M 3480 21840 l -1160 0" stroke="#009600" stroke-width="40" fill="#FF8000" />
  <path d="M 2320 21480 l 0 140" stroke="#009600" stroke-width="40" fill="#FF8000" />
  <path d="M 2320 21840 l 0 160" stroke="#009600" stroke-width="40" fill="#FF8000" />
  <path d="M 3480 21620 l 0 220" stroke="#009600" stroke-width="40" fill="#FF8000" />
  <path d="M 2280 21480 l -520 200" stroke="#009600" stroke-width="40" fill="#FF8000" />
  <path d="M 2280 22000 l -520 -320" stroke="#009600" stroke-width="40" fill="#FF8000" />
  <path id="LINE840" d="M 7600 20140 l 0 -1340" stroke="#009600" stroke-width="40" fill="none" />
  <path id="LINE841" d="M 7600 18840 l -4120 0" stroke="#009600" stroke-width="40" fill="none" />
  <path d="M 1760 18700 l 1160 0" stroke="#009600" stroke-width="40" fill="#FF8000" />
  <path d="M 1760 18920 l 1160 0" stroke="#009600" stroke-width="40" fill="#FF8000" />
  <path d="M 2920 18580 l 0 120" stroke="#009600" stroke-width="40" fill="#FF8000" />
  <path d="M 2920 18920 l 0 180" stroke="#009600" stroke-width="40" fill="#FF8000" />
  <path d="M 1760 18700 l 0 220" stroke="#009600" stroke-width="40" fill="#FF8000" />
  <path d="M 2960 18580 l 520 220" stroke="#009600" stroke-width="40" fill="#FF8000" />
  <path d="M 2960 19100 l 520 -300" stroke="#009600" stroke-width="40" fill="#FF8000" />
  <path id="LINE849" d="M 12900 4580 l 0 6260" stroke="#80FFFF" stroke-width="20" fill="none" />
  <path id="LINE850" d="M 23700 4600 l 0 6400" stroke="#80FFFF" stroke-width="20" fill="none" />
  <path id="LINE851" d="M 34660 4520 l 0 6380" stroke="#80FFFF" stroke-width="20" fill="none" />
  <path id="LINE852" d="M 24420 10000 l 0 820" stroke="#000000" stroke-width="40" fill="none" />
  <path id="LINE853" d="M 35420 10080 l 0 880" stroke="#000000" stroke-width="40" fill="none" />
  <path id="LINE854" d="M 14220 17960 l 7580 0" stroke="#80FFFF" stroke-width="40" fill="none" />
  <path d="M 18620 17899 l -40 171 -40 94 -40 71 -40 59 -40 49 -40 43 -40 37 -40 33 -40 29 -40 27 -40 23 -40 20 -40 19 -40 15 -40 14 -40 12 -40 10 -40 8 -40 6 -40 4 -40 3 -40 0 0 0 -40 0 -40 -3 -40 -4 -40 -6 -40 -8 -40 -10 -40 -12 -40 -14 -40 -15 -40 -19 -40 -20 -40 -23 -40 -27 -40 -29 -40 -33 -40 -37 -40 -43 -40 -49 -40 -59 -40 -71 -40 -94 -40 -171 0 -197 40 -171 40 -94 40 -71 40 -59 40 -49 40 -43 40 -37 40 -33 40 -29 40 -27 40 -23 40 -20 40 -19 40 -15 40 -14 40 -12 40 -10 40 -8 40 -6 40 -4 40 -3 40 -1 0 0 40 1 40 3 40 4 40 6 40 8 40 10 40 12 40 14 40 15 40 19 40 20 40 23 40 27 40 29 40 33 40 37 40 43 40 49 40 59 40 71 40 94 40 171 0 197" stroke="#000000" stroke-width="20" fill="#C0C0C0" />
  <path d="M 17320 17420 l 420 1040" stroke="#000000" stroke-width="20" fill="none" />
  <path d="M 17740 18460 l 420 -1040" stroke="#000000" stroke-width="20" fill="none" />
  <path d="M 17320 17420 l 0 1740" stroke="#000000" stroke-width="20" fill="none" />
  <path d="M 18160 17420 l 0 1740" stroke="#000000" stroke-width="20" fill="none" />
  <path id="LINE859" d="M 17320 18680 l 0 1460" stroke="#009600" stroke-width="40" fill="none" />
  <path id="LINE860" d="M 18160 18680 l 0 3000" stroke="#009600" stroke-width="40" fill="none" />
  <path id="LINE861" d="M 14220 14020 l 0 3940" stroke="#80FFFF" stroke-width="40" fill="none" />
  <path id="LINE862" d="M 21800 14880 l 0 3080" stroke="#80FFFF" stroke-width="40" fill="none" />
  <g id="TEXT134">
    <rect x="13300" y="18800" width="3720" height="600" stroke-width="0" fill="none" id="TEXT134_pbTextBoundingRectEl" />
    <text fill="#000000" font-family="Helvetica" font-size="560" text-anchor="middle" x="15160" y="19380" id="TEXT134_pbTextEl">590-PI1001B</text>
  </g>
  <g id="TEXT135">
    <rect x="19320" y="18900" width="3720" height="600" stroke-width="0" fill="none" id="TEXT135_pbTextBoundingRectEl" />
    <text fill="#000000" font-family="Helvetica" font-size="560" text-anchor="middle" x="21180" y="19480" id="TEXT135_pbTextEl">590-TI1004B</text>
  </g>
  <path id="LINE865" d="M 25320 17960 l 7580 0" stroke="#80FFFF" stroke-width="40" fill="none" />
  <path d="M 29720 17899 l -40 171 -40 94 -40 71 -40 59 -40 49 -40 43 -40 37 -40 33 -40 29 -40 27 -40 23 -40 20 -40 19 -40 15 -40 14 -40 12 -40 10 -40 8 -40 6 -40 4 -40 3 -40 0 0 0 -40 0 -40 -3 -40 -4 -40 -6 -40 -8 -40 -10 -40 -12 -40 -14 -40 -15 -40 -19 -40 -20 -40 -23 -40 -27 -40 -29 -40 -33 -40 -37 -40 -43 -40 -49 -40 -59 -40 -71 -40 -94 -40 -171 0 -197 40 -171 40 -94 40 -71 40 -59 40 -49 40 -43 40 -37 40 -33 40 -29 40 -27 40 -23 40 -20 40 -19 40 -15 40 -14 40 -12 40 -10 40 -8 40 -6 40 -4 40 -3 40 -1 0 0 40 1 40 3 40 4 40 6 40 8 40 10 40 12 40 14 40 15 40 19 40 20 40 23 40 27 40 29 40 33 40 37 40 43 40 49 40 59 40 71 40 94 40 171 0 197" stroke="#000000" stroke-width="20" fill="#C0C0C0" />
  <path d="M 28420 17420 l 420 1040" stroke="#000000" stroke-width="20" fill="none" />
  <path d="M 28840 18460 l 420 -1040" stroke="#000000" stroke-width="20" fill="none" />
  <path d="M 28420 17420 l 0 1740" stroke="#000000" stroke-width="20" fill="none" />
  <path d="M 29260 17420 l 0 1740" stroke="#000000" stroke-width="20" fill="none" />
  <path id="LINE890" d="M 28420 18680 l 0 1460" stroke="#009600" stroke-width="40" fill="none" />
  <path id="LINE891" d="M 29260 18680 l 0 3000" stroke="#009600" stroke-width="40" fill="none" />
  <path id="LINE892" d="M 25320 14020 l 0 3940" stroke="#80FFFF" stroke-width="40" fill="none" />
  <path id="LINE893" d="M 32900 14880 l 0 3080" stroke="#80FFFF" stroke-width="40" fill="none" />
  <g id="TEXT136">
    <rect x="24300" y="18820" width="3720" height="600" stroke-width="0" fill="none" id="TEXT136_pbTextBoundingRectEl" />
    <text fill="#000000" font-family="Helvetica" font-size="560" text-anchor="middle" x="26160" y="19400" id="TEXT136_pbTextEl">590-PI1002B</text>
  </g>
  <g id="TEXT137">
    <rect x="30260" y="18800" width="3720" height="600" stroke-width="0" fill="none" id="TEXT137_pbTextBoundingRectEl" />
    <text fill="#000000" font-family="Helvetica" font-size="560" text-anchor="middle" x="32120" y="19380" id="TEXT137_pbTextEl">590-TI1005B</text>
  </g>
  <path id="LINE897" d="M 36620 17960 l 23800 0" stroke="#80FFFF" stroke-width="40" fill="none" />
  <path d="M 41020 17899 l -40 171 -40 94 -40 71 -40 59 -40 49 -40 43 -40 37 -40 33 -40 29 -40 27 -40 23 -40 20 -40 19 -40 15 -40 14 -40 12 -40 10 -40 8 -40 6 -40 4 -40 3 -40 0 0 0 -40 0 -40 -3 -40 -4 -40 -6 -40 -8 -40 -10 -40 -12 -40 -14 -40 -15 -40 -19 -40 -20 -40 -23 -40 -27 -40 -29 -40 -33 -40 -37 -40 -43 -40 -49 -40 -59 -40 -71 -40 -94 -40 -171 0 -197 40 -171 40 -94 40 -71 40 -59 40 -49 40 -43 40 -37 40 -33 40 -29 40 -27 40 -23 40 -20 40 -19 40 -15 40 -14 40 -12 40 -10 40 -8 40 -6 40 -4 40 -3 40 -1 0 0 40 1 40 3 40 4 40 6 40 8 40 10 40 12 40 14 40 15 40 19 40 20 40 23 40 27 40 29 40 33 40 37 40 43 40 49 40 59 40 71 40 94 40 171 0 197" stroke="#000000" stroke-width="20" fill="#C0C0C0" />
  <path d="M 39720 17420 l 420 1040" stroke="#000000" stroke-width="20" fill="none" />
  <path d="M 40140 18460 l 420 -1040" stroke="#000000" stroke-width="20" fill="none" />
  <path d="M 39720 17420 l 0 1740" stroke="#000000" stroke-width="20" fill="none" />
  <path d="M 40560 17420 l 0 1740" stroke="#000000" stroke-width="20" fill="none" />
  <path id="LINE907" d="M 39720 18680 l 0 1460" stroke="#009600" stroke-width="40" fill="none" />
  <path id="LINE908" d="M 40560 18680 l 0 3000" stroke="#009600" stroke-width="40" fill="none" />
  <path id="LINE909" d="M 36620 14020 l 0 3940" stroke="#80FFFF" stroke-width="40" fill="none" />
  <g id="TEXT139">
    <rect x="35380" y="18700" width="3720" height="600" stroke-width="0" fill="none" id="TEXT139_pbTextBoundingRectEl" />
    <text fill="#000000" font-family="Helvetica" font-size="560" text-anchor="middle" x="37240" y="19280" id="TEXT139_pbTextEl">590-PI1003B</text>
  </g>
  <g id="TEXT140">
    <rect x="41640" y="18760" width="3720" height="600" stroke-width="0" fill="none" id="TEXT140_pbTextBoundingRectEl" />
    <text fill="#000000" font-family="Helvetica" font-size="560" text-anchor="middle" x="43500" y="19340" id="TEXT140_pbTextEl">590-TI1006B</text>
  </g>
  <g name="Vessel3">
    <path d="M 23148 24058 l -7 -26 -6 -9 -7 -8 -6 -5 -7 -5 -6 -5 -7 -3 -6 -4 -7 -3 -6 -5 -7 -3 -6 -2 -7 -3 -6 -2 -7 -2 -6 -3 -7 -2 -6 -3 -7 0 -6 -3 -7 -2 -6 0 -7 -2 -6 -3 -7 0 -6 -2 -7 0 -6 -3 -7 0 -7 -2 -6 0 -7 0 -6 -2 -7 0 -6 0 -7 -3 -6 0 -7 0 -6 0 -7 -2 -6 0 -7 0 -6 0 -7 0 -6 0 -7 0 -6 0 -7 0 -6 0 -13 0 -6 0 -7 0 -6 0 -7 0 -7 0 -6 0 -7 0 -6 0 -7 0 -6 2 -7 0 -6 0 -7 0 -6 3 -7 0 -6 0 -7 2 -7 0 -6 0 -7 2 -6 0 -7 3 -6 0 -7 2 -6 0 -6 3 -7 2 -6 0 -7 2 -6 3 -7 0 -6 3 -7 2 -6 3 -7 2 -6 2 -7 3 -6 2 -7 3 -6 5 -7 3 -6 4 -7 3 -7 5 -6 5 -7 5 -6 8 -7 9 -5 26 5 21 7 11 6 7 7 5 6 6 7 5 7 2 6 5 7 2 6 5 7 4 6 2 7 2 6 2 7 3 6 2 7 3 6 2 7 0 6 3 7 3 6 0 7 2 6 3 6 0 7 2 6 0 7 2 6 0 7 3 6 0 7 0 7 2 6 0 7 0 6 2 7 0 6 0 7 0 6 4 7 0 6 0 7 0 6 0 7 0 7 0 6 0 7 0 6 0 13 0 6 0 7 0 6 0 7 0 6 0 7 0 6 0 7 0 6 0 7 -4 6 0 7 0 6 0 7 -2 6 0 7 0 6 -2 7 0 6 0 7 -3 7 0 6 -2 7 0 6 -2 7 0 6 -3 7 -2 6 0 7 -3 6 -3 7 0 6 -2 7 -3 6 -2 7 -3 6 -2 7 -2 6 -2 7 -4 6 -5 7 -2 6 -5 7 -2 6 -5 7 -6 6 -5 7 -7 6 -11 7 -21 0 0" stroke="#000000" stroke-width="20" fill="#000000" />
    <path d="M 23116 24058 l -6 -26 -7 -9 -5 -8 -6 -5 -6 -5 -6 -5 -6 -3 -5 -4 -7 -3 -5 -5 -6 -3 -6 -2 -6 -3 -6 -2 -5 -3 -7 -2 -5 -2 -6 -3 -6 0 -6 -3 -6 -2 -5 0 -7 -3 -5 -2 -6 0 -6 -3 -6 0 -6 -2 -5 0 -7 -3 -5 0 -6 0 -6 -2 -6 0 -6 0 -5 -2 -7 0 -5 0 -6 0 -6 -2 -6 0 -6 0 -5 0 -7 0 -5 0 -6 0 -6 0 -6 0 -6 0 -12 0 -5 0 -6 0 -6 0 -6 0 -6 0 -5 0 -7 0 -5 0 -6 0 -6 2 -6 0 -6 0 -6 0 -6 2 -5 0 -6 0 -7 2 -6 0 -5 0 -7 3 -5 0 -6 2 -6 0 -5 3 -6 0 -6 2 -6 3 -6 0 -5 2 -6 3 -6 0 -6 3 -6 2 -7 2 -5 3 -6 2 -6 3 -6 2 -6 3 -5 5 -7 3 -5 4 -6 3 -6 5 -6 5 -6 5 -5 8 -7 9 -5 26 5 21 7 10 5 8 6 5 6 6 6 4 6 3 5 5 7 2 5 5 6 3 6 2 6 3 6 2 5 3 7 2 6 2 6 3 6 0 6 2 5 4 6 0 6 2 6 2 6 0 5 3 6 0 6 2 5 0 7 2 5 0 6 0 7 3 6 0 5 0 6 2 6 0 6 0 6 0 6 3 6 0 5 0 7 0 5 0 6 0 6 0 6 0 6 0 5 0 12 0 6 0 6 0 6 0 6 0 5 0 7 0 5 0 6 0 6 0 6 -3 6 0 5 0 7 0 5 -2 6 0 6 0 6 -3 6 0 5 0 7 -2 5 0 6 -2 6 0 6 -3 6 0 5 -2 7 -2 5 0 6 -4 6 -2 6 0 6 -3 5 -2 7 -2 5 -3 6 -2 6 -3 6 -2 6 -3 5 -5 7 -2 5 -5 6 -3 6 -4 6 -6 6 -5 5 -8 7 -10 6 -21 0 0" stroke="#3C3C3C" stroke-width="20" fill="#3C3C3C" />
    <path d="M 23084 24058 l -6 -26 -5 -9 -5 -8 -6 -5 -5 -5 -5 -5 -5 -3 -5 -4 -6 -3 -5 -5 -5 -3 -5 -2 -5 -3 -6 -2 -5 -2 -5 -3 -5 -2 -5 -3 -5 0 -6 -3 -5 -2 -5 0 -5 -2 -5 -3 -6 0 -5 -2 -5 0 -5 -3 -5 0 -6 -2 -5 0 -5 0 -6 -2 -5 0 -5 0 -5 -3 -5 0 -6 0 -5 0 -5 -2 -5 0 -5 0 -6 0 -5 0 -5 0 -5 0 -5 0 -6 0 -5 0 -11 0 -5 0 -5 0 -5 0 -5 0 -6 0 -5 0 -6 0 -5 0 -5 0 -5 2 -5 0 -5 0 -6 0 -5 3 -5 0 -5 0 -5 2 -6 0 -5 0 -5 2 -5 0 -5 3 -6 0 -5 2 -5 0 -5 3 -5 2 -6 0 -5 2 -5 3 -5 0 -5 3 -6 2 -5 3 -5 2 -5 2 -6 3 -5 2 -5 3 -5 5 -6 3 -5 4 -5 3 -5 5 -5 5 -6 5 -5 8 -5 9 -5 26 5 21 5 11 5 7 6 5 5 6 5 5 5 2 5 5 6 2 5 5 5 4 5 2 6 2 5 2 5 3 5 2 6 3 5 2 5 0 5 3 5 3 6 0 5 2 5 3 5 0 5 2 6 0 5 2 5 0 5 3 5 0 6 0 5 2 5 0 5 0 5 2 6 0 5 0 5 0 5 4 5 0 5 0 6 0 5 0 6 0 5 0 5 0 5 0 5 0 11 0 5 0 6 0 5 0 5 0 5 0 5 0 6 0 5 0 5 0 5 -4 5 0 6 0 5 0 5 -2 5 0 5 0 6 -2 5 0 5 0 6 -3 5 0 5 -2 5 0 5 -2 6 0 5 -3 5 -2 5 0 5 -3 6 -3 5 0 5 -2 5 -3 5 -2 5 -3 6 -2 5 -2 5 -2 5 -4 5 -5 6 -2 5 -5 5 -2 5 -5 5 -6 6 -5 5 -7 5 -11 6 -21 0 0" stroke="#5A5A5A" stroke-width="20" fill="#5A5A5A" />
    <path d="M 23049 24058 l -5 -26 -4 -9 -5 -8 -4 -5 -5 -5 -5 -5 -4 -3 -4 -4 -5 -3 -5 -5 -4 -3 -5 -2 -4 -3 -5 -2 -5 -2 -4 -3 -4 -2 -5 -3 -5 0 -4 -3 -5 -2 -4 0 -5 -2 -5 -3 -4 0 -4 -2 -5 0 -5 -3 -4 0 -5 -2 -4 0 -5 0 -5 -2 -4 0 -5 0 -4 -3 -5 0 -4 0 -5 0 -4 -2 -5 0 -5 0 -4 0 -5 0 -4 0 -5 0 -4 0 -5 0 -4 0 -9 0 -4 0 -5 0 -5 0 -4 0 -5 0 -4 0 -5 0 -5 0 -4 0 -4 2 -5 0 -5 0 -4 0 -5 3 -4 0 -5 0 -5 2 -4 0 -4 0 -5 2 -5 0 -4 3 -5 0 -4 2 -5 0 -5 3 -4 2 -4 0 -5 2 -5 3 -4 0 -5 3 -4 2 -5 3 -5 2 -4 2 -4 3 -5 2 -5 3 -4 5 -5 3 -4 4 -5 3 -5 5 -4 5 -4 5 -5 8 -5 9 -3 26 3 21 5 11 5 7 4 5 4 6 5 5 5 2 4 5 5 2 4 5 5 4 5 2 4 2 4 2 5 3 5 2 4 3 5 2 4 0 5 3 5 3 4 0 4 2 5 3 5 0 4 2 5 0 4 2 5 0 5 3 4 0 4 0 5 2 5 0 4 0 5 2 4 0 5 0 5 0 4 4 4 0 5 0 5 0 4 0 5 0 4 0 5 0 5 0 4 0 9 0 4 0 5 0 4 0 5 0 4 0 5 0 4 0 5 0 5 0 4 -4 5 0 4 0 5 0 4 -2 5 0 4 0 5 -2 5 0 4 0 5 -3 4 0 5 -2 5 0 4 -2 4 0 5 -3 5 -2 4 0 5 -3 4 -3 5 0 5 -2 4 -3 4 -2 5 -3 5 -2 4 -2 5 -2 4 -4 5 -5 5 -2 4 -5 4 -2 5 -5 5 -6 4 -5 5 -7 4 -11 5 -21 0 0" stroke="#808080" stroke-width="20" fill="#808080" />
    <path d="M 23017 24058 l -4 -26 -5 -9 -3 -8 -4 -5 -4 -5 -4 -5 -4 -3 -4 -4 -4 -3 -4 -5 -3 -3 -5 -2 -3 -3 -4 -2 -4 -2 -4 -3 -3 -2 -4 -3 -4 0 -4 -3 -4 -2 -4 0 -4 -2 -4 -3 -3 0 -5 -2 -4 0 -3 -3 -4 0 -5 -2 -4 0 -3 0 -5 -2 -3 0 -4 0 -3 -3 -5 0 -3 0 -4 0 -4 -2 -4 0 -4 0 -4 0 -4 0 -4 0 -3 0 -5 0 -4 0 -3 0 -8 0 -4 0 -4 0 -4 0 -4 0 -4 0 -4 0 -4 0 -3 0 -4 0 -4 2 -4 0 -4 0 -4 0 -4 3 -4 0 -3 0 -5 2 -4 0 -3 0 -5 2 -3 0 -4 3 -4 0 -4 2 -4 0 -4 3 -4 2 -4 0 -3 2 -4 3 -4 0 -4 3 -4 2 -4 3 -4 2 -4 2 -3 3 -5 2 -4 3 -3 5 -5 3 -3 4 -4 3 -4 5 -4 5 -4 5 -4 8 -4 9 -3 26 3 21 4 11 4 7 4 5 4 6 4 5 4 2 3 5 5 2 3 5 4 4 5 2 3 2 4 2 4 3 4 2 4 3 4 2 4 0 4 3 3 3 4 0 4 2 4 3 4 0 4 2 4 0 4 2 3 0 5 3 3 0 4 0 5 2 3 0 4 0 4 2 4 0 4 0 4 0 4 4 4 0 3 0 4 0 4 0 4 0 4 0 4 0 4 0 4 0 8 0 3 0 4 0 5 0 3 0 4 0 4 0 4 0 4 0 4 0 4 -4 4 0 3 0 5 0 3 -2 4 0 3 0 5 -2 3 0 4 0 5 -3 4 0 3 -2 4 0 5 -2 3 0 4 -3 4 -2 4 0 4 -3 4 -3 4 0 4 -2 3 -3 4 -2 4 -3 4 -2 3 -2 5 -2 3 -4 4 -5 4 -2 4 -5 4 -2 4 -5 4 -6 4 -5 3 -7 5 -11 4 -21 0 0" stroke="#969696" stroke-width="20" fill="#969696" />
    <path d="M 22985 24058 l -3 -26 -3 -9 -4 -8 -3 -5 -3 -5 -3 -5 -4 -3 -3 -4 -3 -3 -4 -5 -3 -3 -3 -2 -3 -3 -4 -2 -3 -2 -3 -3 -3 -2 -4 -3 -3 0 -3 -3 -3 -2 -4 0 -3 -2 -3 -3 -3 0 -4 -2 -3 0 -3 -3 -3 0 -4 -2 -3 0 -3 0 -3 -2 -4 0 -3 0 -3 -3 -3 0 -4 0 -3 0 -3 -2 -3 0 -4 0 -3 0 -3 0 -3 0 -4 0 -3 0 -3 0 -3 0 -7 0 -3 0 -3 0 -3 0 -4 0 -3 0 -3 0 -3 0 -4 0 -3 0 -3 2 -4 0 -3 0 -3 0 -3 3 -4 0 -3 0 -3 2 -3 0 -4 0 -3 2 -3 0 -4 3 -3 0 -3 2 -3 0 -4 3 -3 2 -3 0 -3 2 -4 3 -3 0 -3 3 -3 2 -4 3 -3 2 -3 2 -4 3 -3 2 -3 3 -3 5 -4 3 -3 4 -3 3 -3 5 -4 5 -3 5 -3 8 -3 9 -4 26 4 21 3 11 3 7 3 5 4 6 3 5 3 2 3 5 4 2 3 5 3 4 3 2 4 2 3 2 3 3 4 2 3 3 3 2 3 0 4 3 3 3 3 0 3 2 4 3 3 0 3 2 3 0 4 2 3 0 3 3 4 0 3 0 3 2 3 0 4 0 3 2 3 0 3 0 4 0 3 4 3 0 4 0 3 0 3 0 3 0 4 0 3 0 3 0 3 0 7 0 3 0 3 0 3 0 4 0 3 0 3 0 3 0 4 0 3 0 3 -4 3 0 4 0 3 0 3 -2 3 0 4 0 3 -2 3 0 3 0 4 -3 3 0 3 -2 3 0 4 -2 3 0 3 -3 3 -2 4 0 3 -3 3 -3 3 0 4 -2 3 -3 3 -2 3 -3 4 -2 3 -2 3 -2 3 -4 4 -5 3 -2 3 -5 4 -2 3 -5 3 -6 3 -5 4 -7 3 -11 3 -21 0 0" stroke="#C0C0C0" stroke-width="20" fill="#C0C0C0" />
    <path d="M 22953 24058 l -3 -26 -3 -9 -2 -8 -3 -5 -3 -5 -2 -5 -3 -3 -2 -4 -3 -3 -3 -5 -2 -3 -3 -2 -2 -3 -3 -2 -3 -2 -2 -3 -3 -2 -2 -3 -3 0 -3 -3 -2 -2 -3 0 -2 -2 -3 -3 -3 0 -2 -2 -3 0 -2 -3 -3 0 -3 -2 -2 0 -3 0 -2 -2 -3 0 -3 0 -2 -3 -3 0 -2 0 -3 0 -3 -2 -2 0 -3 0 -2 0 -3 0 -3 0 -2 0 -3 0 -2 0 -3 0 -5 0 -3 0 -2 0 -3 0 -2 0 -3 0 -3 0 -2 0 -3 0 -2 0 -3 2 -3 0 -3 0 -2 0 -3 3 -3 0 -2 0 -3 2 -3 0 -2 0 -3 2 -3 0 -2 3 -3 0 -2 2 -2 0 -3 3 -3 2 -2 0 -3 2 -2 3 -3 0 -3 3 -3 2 -2 3 -3 2 -3 2 -2 3 -3 2 -2 3 -3 5 -3 3 -2 4 -3 3 -2 5 -3 5 -3 5 -2 8 -3 9 -2 26 2 21 3 11 2 7 3 5 3 6 2 5 3 2 2 5 3 2 3 5 2 4 3 2 2 2 3 2 3 3 2 2 3 3 3 2 3 0 2 3 3 3 2 0 3 2 3 3 2 0 2 2 3 0 2 2 3 0 3 3 2 0 3 0 3 2 2 0 3 0 3 2 2 0 3 0 3 0 3 4 2 0 3 0 2 0 3 0 3 0 2 0 3 0 2 0 3 0 5 0 3 0 2 0 3 0 2 0 3 0 3 0 2 0 3 0 2 0 3 -4 3 0 2 0 3 0 2 -2 3 0 3 0 2 -2 3 0 2 0 3 -3 3 0 2 -2 3 0 2 -2 3 0 3 -3 2 -2 3 0 2 -3 3 -3 3 0 2 -2 3 -3 2 -2 3 -3 3 -2 2 -2 3 -2 2 -4 3 -5 3 -2 2 -5 3 -2 2 -5 3 -6 3 -5 2 -7 3 -11 3 -21 0 0" stroke="#D2D2D2" stroke-width="20" fill="#D2D2D2" />
    <path d="M 22921 24058 l -2 -26 -2 -9 -2 -8 -2 -5 -2 -5 -2 -5 -2 -3 -2 -4 -2 -3 -2 -5 -2 -3 -2 -2 -2 -3 -2 -2 -1 -2 -3 -3 -2 -2 -2 -3 -2 0 -2 -3 -2 -2 -2 0 -2 -2 -2 -3 -1 0 -2 -2 -2 0 -2 -3 -2 0 -2 -2 -2 0 -2 0 -2 -2 -2 0 -2 0 -2 -3 -2 0 -2 0 -2 0 -2 -2 -2 0 -2 0 -2 0 -2 0 -2 0 -2 0 -2 0 -2 0 -2 0 -4 0 -2 0 -2 0 -1 0 -2 0 -2 0 -2 0 -2 0 -2 0 -2 0 -2 2 -2 0 -2 0 -2 0 -2 3 -2 0 -2 0 -2 2 -2 0 -2 0 -3 2 -1 0 -2 3 -2 0 -1 2 -2 0 -2 3 -3 2 -1 0 -2 2 -2 3 -2 0 -2 3 -2 2 -3 3 -2 2 -2 2 -2 3 -1 2 -2 3 -2 5 -3 3 -1 4 -2 3 -2 5 -2 5 -2 5 -2 8 -2 9 -1 26 1 21 2 11 2 7 2 5 2 6 2 5 2 2 1 5 3 2 2 5 2 4 1 2 2 2 2 2 2 3 3 2 2 3 2 2 2 0 2 3 2 3 1 0 3 2 2 3 2 0 1 2 2 0 2 2 1 0 3 3 2 0 2 0 2 2 2 0 2 0 2 2 2 0 2 0 2 0 2 4 2 0 2 0 2 0 2 0 2 0 2 0 1 0 2 0 2 0 4 0 2 0 2 0 2 0 2 0 2 0 2 0 2 0 2 0 2 0 2 -4 2 0 2 0 2 0 2 -2 2 0 2 0 2 -2 2 0 2 0 2 -3 2 0 2 -2 2 0 2 -2 1 0 2 -3 2 -2 2 0 2 -3 2 -3 2 0 2 -2 2 -3 3 -2 1 -3 2 -2 2 -2 2 -2 2 -4 2 -5 2 -2 2 -5 2 -2 2 -5 2 -6 2 -5 2 -7 2 -11 2 -21 0 0" stroke="#DEDEDE" stroke-width="20" fill="#DEDEDE" />
    <path d="M 22887 24057 l -2 -25 -1 -10 -1 -8 -1 -5 -2 -4 -1 -6 -1 -2 -1 -5 -2 -3 -1 -5 -2 -2 -1 -2 -1 -3 -1 -3 -2 -2 -1 -2 -1 -2 -1 -3 -2 0 -1 -3 -2 -2 -1 0 -1 -3 -1 -2 -1 0 -1 -3 -2 0 -1 -2 -1 0 -2 -3 -1 0 -1 0 -2 -2 -1 0 -2 0 -1 -2 -1 0 -1 0 -2 0 -1 -2 -1 0 -1 0 -2 0 -1 0 -1 0 -1 0 -2 0 -1 0 -1 0 -3 0 -1 0 -2 0 -1 0 -1 0 -1 0 -2 0 -1 0 -1 0 -1 0 -2 2 -1 0 -2 0 -1 0 -1 2 -1 0 -2 0 -1 2 -1 0 -1 0 -2 3 -1 0 -2 2 -1 0 -1 3 -1 0 -1 2 -1 3 -2 0 -1 2 -1 3 -1 0 -2 3 -2 2 -1 2 -2 2 -1 3 -1 3 -1 2 -1 2 -1 5 -1 3 -2 5 -1 2 -2 6 -1 4 -1 5 -1 8 -2 10 0 25 0 22 2 10 1 8 1 4 1 6 2 5 1 3 2 4 1 3 1 4 1 4 1 2 1 3 1 2 2 2 1 3 2 2 2 3 1 0 1 2 1 3 2 0 1 2 1 3 1 0 1 2 1 0 2 3 1 0 2 2 1 0 1 0 1 2 2 0 1 0 1 3 1 0 2 0 1 0 2 3 1 0 1 0 1 0 2 0 1 0 1 0 1 0 2 0 1 0 3 0 1 0 1 0 2 0 1 0 1 0 1 0 2 0 1 0 1 0 1 -3 2 0 1 0 1 0 1 -3 2 0 1 0 2 -2 1 0 1 0 2 -2 1 0 1 -3 2 0 1 -2 1 0 1 -3 1 -2 1 0 2 -3 1 -2 2 0 1 -3 1 -2 1 -3 2 -2 1 -2 1 -3 1 -2 2 -4 1 -4 2 -3 1 -4 1 -3 1 -5 2 -6 1 -4 1 -8 1 -10 2 -22 0 0" stroke="#F0F0F0" stroke-width="20" fill="#F0F0F0" />
    <path d="M 22854 24057 l -2 -25 0 -10 -1 -8 0 -5 -1 -4 -1 -6 -1 -2 0 -5 -1 -3 -1 -5 0 -2 -1 -2 -1 -3 0 -3 -1 -2 0 -2 -1 -2 -1 -3 0 0 -1 -3 -1 -2 0 0 -1 -3 0 -2 -1 -3 -1 0 -1 -2 0 0 -1 -3 -1 0 0 0 -1 -2 -1 0 0 0 -2 -2 0 0 -1 0 0 0 0 -2 -1 0 -1 0 0 0 -1 0 -1 0 0 0 -1 0 0 0 -2 0 -1 0 0 0 -1 0 -1 0 0 0 -1 0 -1 0 0 0 -1 0 0 0 -1 2 -1 0 0 0 -1 0 -1 2 0 0 -1 0 0 2 -1 0 -1 0 -1 3 0 0 -1 2 -1 0 0 3 -1 0 -1 2 0 3 -1 0 0 2 -1 3 -1 0 0 3 -1 2 -1 2 0 2 -1 3 0 3 -1 2 -1 2 -1 5 0 3 -1 5 -1 2 0 6 -1 4 -1 5 0 8 -1 10 0 25 0 22 1 10 0 8 1 4 1 6 0 5 1 3 1 4 0 3 1 4 1 4 1 2 0 3 1 2 0 2 1 3 1 2 0 3 1 0 1 2 0 3 1 0 0 2 1 3 1 0 0 2 1 0 1 3 0 0 1 2 1 0 1 0 0 2 1 0 0 0 1 3 1 0 0 0 1 0 1 3 0 0 1 0 0 0 1 0 1 0 0 0 1 0 1 0 0 0 1 0 2 0 0 0 1 0 0 0 1 0 1 0 0 0 1 0 1 0 0 -3 0 0 1 0 0 0 2 -3 0 0 1 0 1 -2 0 0 1 0 1 -2 0 0 1 -3 1 0 1 -2 0 -3 1 -2 0 0 1 -3 1 -2 0 0 1 -3 1 -2 0 -3 1 -2 0 -2 1 -3 1 -2 0 -4 1 -4 1 -3 0 -4 1 -3 1 -5 1 -6 0 -4 1 -8 0 -10 2 -22 0 0" stroke="#FFFFFF" stroke-width="20" fill="#FFFFFF" />
    <path d="M 23148 25285 l -7 -26 -6 -10 -7 -8 -6 -5 -7 -4 -6 -6 -7 -2 -6 -5 -7 -3 -6 -5 -7 -2 -6 -3 -7 -2 -6 -3 -7 -2 -6 -2 -7 -3 -6 -3 -7 0 -6 -2 -7 -3 -6 0 -7 -2 -6 -2 -7 0 -6 -3 -7 0 -6 -2 -7 0 -7 -3 -6 0 -7 0 -6 -2 -7 0 -6 0 -7 -2 -6 0 -7 0 -6 0 -7 -3 -6 0 -7 0 -6 0 -7 0 -6 0 -7 0 -6 0 -7 0 -6 0 -13 0 -6 0 -7 0 -6 0 -7 0 -7 0 -6 0 -7 0 -6 0 -7 0 -6 3 -7 0 -6 0 -7 0 -6 2 -7 0 -6 0 -7 2 -7 0 -6 0 -7 3 -6 0 -7 2 -6 0 -7 3 -6 0 -6 2 -7 2 -6 0 -7 3 -6 2 -7 0 -6 3 -7 3 -6 2 -7 2 -6 3 -7 2 -6 3 -7 2 -6 5 -7 3 -6 5 -7 2 -7 6 -6 4 -7 5 -6 8 -7 10 -5 26 5 21 7 10 6 8 7 4 6 7 7 4 7 2 6 5 7 3 6 4 7 4 6 2 7 3 6 2 7 2 6 3 7 2 6 3 7 0 6 2 7 3 6 0 7 3 6 2 6 0 7 3 6 0 7 2 6 0 7 2 6 0 7 0 7 2 6 0 7 0 6 3 7 0 6 0 7 0 6 3 7 0 6 0 7 0 6 0 7 0 7 0 6 0 7 0 6 0 13 0 6 0 7 0 6 0 7 0 6 0 7 0 6 0 7 0 6 0 7 -3 6 0 7 0 6 0 7 -3 6 0 7 0 6 -2 7 0 6 0 7 -2 7 0 6 -2 7 0 6 -3 7 0 6 -2 7 -3 6 0 7 -3 6 -2 7 0 6 -3 7 -2 6 -3 7 -2 6 -2 7 -3 6 -2 7 -4 6 -4 7 -3 6 -5 7 -2 6 -4 7 -7 6 -4 7 -8 6 -10 7 -21 0 0" stroke="#000000" stroke-width="20" fill="#000000" />
    <path d="M 23116 25284 l -6 -25 -7 -10 -5 -8 -6 -5 -6 -5 -6 -5 -6 -2 -5 -5 -7 -3 -5 -5 -6 -2 -6 -3 -6 -2 -6 -3 -5 -3 -7 -2 -5 -2 -6 -3 -6 0 -6 -3 -6 -2 -5 0 -7 -3 -5 -2 -6 0 -6 -3 -6 0 -6 -2 -5 0 -7 -2 -5 0 -6 0 -6 -3 -6 0 -6 0 -5 -2 -7 0 -5 0 -6 0 -6 -2 -6 0 -6 0 -5 0 -7 0 -5 0 -6 0 -6 0 -6 0 -6 0 -12 0 -5 0 -6 0 -6 0 -6 0 -6 0 -5 0 -7 0 -5 0 -6 0 -6 2 -6 0 -6 0 -6 0 -6 2 -5 0 -6 0 -7 3 -6 0 -5 0 -7 2 -5 0 -6 2 -6 0 -5 3 -6 0 -6 2 -6 3 -6 0 -5 2 -6 3 -6 0 -6 3 -6 2 -7 2 -5 3 -6 3 -6 2 -6 3 -6 2 -5 5 -7 3 -5 5 -6 2 -6 5 -6 5 -6 5 -5 8 -7 10 -5 25 5 21 7 11 5 8 6 4 6 6 6 5 6 2 5 5 7 2 5 5 6 3 6 3 6 2 6 3 5 2 7 2 6 3 6 2 6 0 6 3 5 3 6 0 6 2 6 2 6 0 5 3 6 0 6 3 5 0 7 2 5 0 6 0 7 2 6 0 5 0 6 2 6 0 6 0 6 0 6 3 6 0 5 0 7 0 5 0 6 0 6 0 6 0 6 0 5 0 12 0 6 0 6 0 6 0 6 0 5 0 7 0 5 0 6 0 6 0 6 -3 6 0 5 0 7 0 5 -2 6 0 6 0 6 -2 6 0 5 0 7 -2 5 0 6 -3 6 0 6 -3 6 0 5 -2 7 -2 5 0 6 -3 6 -3 6 0 6 -2 5 -3 7 -2 5 -2 6 -3 6 -2 6 -3 6 -3 5 -5 7 -2 5 -5 6 -2 6 -5 6 -6 6 -4 5 -8 7 -11 6 -21 0 0" stroke="#3C3C3C" stroke-width="20" fill="#3C3C3C" />
    <path d="M 23084 25285 l -6 -26 -5 -10 -5 -8 -6 -5 -5 -4 -5 -6 -5 -2 -5 -5 -6 -3 -5 -5 -5 -2 -5 -3 -5 -2 -6 -3 -5 -2 -5 -2 -5 -3 -5 -3 -5 0 -6 -2 -5 -3 -5 0 -5 -2 -5 -2 -6 0 -5 -3 -5 0 -5 -2 -5 0 -6 -3 -5 0 -5 0 -6 -2 -5 0 -5 0 -5 -2 -5 0 -6 0 -5 0 -5 -3 -5 0 -5 0 -6 0 -5 0 -5 0 -5 0 -5 0 -6 0 -5 0 -11 0 -5 0 -5 0 -5 0 -5 0 -6 0 -5 0 -6 0 -5 0 -5 0 -5 3 -5 0 -5 0 -6 0 -5 2 -5 0 -5 0 -5 2 -6 0 -5 0 -5 3 -5 0 -5 2 -6 0 -5 3 -5 0 -5 2 -5 2 -6 0 -5 3 -5 2 -5 0 -5 3 -6 3 -5 2 -5 2 -5 3 -6 2 -5 3 -5 2 -5 5 -6 3 -5 5 -5 2 -5 6 -5 4 -6 5 -5 8 -5 10 -5 26 5 21 5 10 5 8 6 4 5 7 5 4 5 2 5 5 6 3 5 4 5 4 5 2 6 3 5 2 5 2 5 3 6 2 5 3 5 0 5 2 5 3 6 0 5 3 5 2 5 0 5 3 6 0 5 2 5 0 5 2 5 0 6 0 5 2 5 0 5 0 5 3 6 0 5 0 5 0 5 3 5 0 5 0 6 0 5 0 6 0 5 0 5 0 5 0 5 0 11 0 5 0 6 0 5 0 5 0 5 0 5 0 6 0 5 0 5 0 5 -3 5 0 6 0 5 0 5 -3 5 0 5 0 6 -2 5 0 5 0 6 -2 5 0 5 -2 5 0 5 -3 6 0 5 -2 5 -3 5 0 5 -3 6 -2 5 0 5 -3 5 -2 5 -3 5 -2 6 -2 5 -3 5 -2 5 -4 5 -4 6 -3 5 -5 5 -2 5 -4 5 -7 6 -4 5 -8 5 -10 6 -21 0 0" stroke="#5A5A5A" stroke-width="20" fill="#5A5A5A" />
    <path d="M 23049 25285 l -5 -26 -4 -10 -5 -8 -4 -5 -5 -4 -5 -6 -4 -2 -4 -5 -5 -3 -5 -5 -4 -2 -5 -3 -4 -2 -5 -3 -5 -2 -4 -2 -4 -3 -5 -3 -5 0 -4 -2 -5 -3 -4 0 -5 -2 -5 -2 -4 0 -4 -3 -5 0 -5 -2 -4 0 -5 -3 -4 0 -5 0 -5 -2 -4 0 -5 0 -4 -2 -5 0 -4 0 -5 0 -4 -3 -5 0 -5 0 -4 0 -5 0 -4 0 -5 0 -4 0 -5 0 -4 0 -9 0 -4 0 -5 0 -5 0 -4 0 -5 0 -4 0 -5 0 -5 0 -4 0 -4 3 -5 0 -5 0 -4 0 -5 2 -4 0 -5 0 -5 2 -4 0 -4 0 -5 3 -5 0 -4 2 -5 0 -4 3 -5 0 -5 2 -4 2 -4 0 -5 3 -5 2 -4 0 -5 3 -4 3 -5 2 -5 2 -4 3 -4 2 -5 3 -5 2 -4 5 -5 3 -4 5 -5 2 -5 6 -4 4 -4 5 -5 8 -5 10 -3 26 3 21 5 10 5 8 4 4 4 7 5 4 5 2 4 5 5 3 4 4 5 4 5 2 4 3 4 2 5 2 5 3 4 2 5 3 4 0 5 2 5 3 4 0 4 3 5 2 5 0 4 3 5 0 4 2 5 0 5 2 4 0 4 0 5 2 5 0 4 0 5 3 4 0 5 0 5 0 4 3 4 0 5 0 5 0 4 0 5 0 4 0 5 0 5 0 4 0 9 0 4 0 5 0 4 0 5 0 4 0 5 0 4 0 5 0 5 0 4 -3 5 0 4 0 5 0 4 -3 5 0 4 0 5 -2 5 0 4 0 5 -2 4 0 5 -2 5 0 4 -3 4 0 5 -2 5 -3 4 0 5 -3 4 -2 5 0 5 -3 4 -2 4 -3 5 -2 5 -2 4 -3 5 -2 4 -4 5 -4 5 -3 4 -5 4 -2 5 -4 5 -7 4 -4 5 -8 4 -10 5 -21 0 0" stroke="#808080" stroke-width="20" fill="#808080" />
    <path d="M 23017 25285 l -4 -26 -5 -10 -3 -8 -4 -5 -4 -4 -4 -6 -4 -2 -4 -5 -4 -3 -4 -5 -3 -2 -5 -3 -3 -2 -4 -3 -4 -2 -4 -2 -3 -3 -4 -3 -4 0 -4 -2 -4 -3 -4 0 -4 -2 -4 -2 -3 0 -5 -3 -4 0 -3 -2 -4 0 -5 -3 -4 0 -3 0 -5 -2 -3 0 -4 0 -3 -2 -5 0 -3 0 -4 0 -4 -3 -4 0 -4 0 -4 0 -4 0 -4 0 -3 0 -5 0 -4 0 -3 0 -8 0 -4 0 -4 0 -4 0 -4 0 -4 0 -4 0 -4 0 -3 0 -4 0 -4 3 -4 0 -4 0 -4 0 -4 2 -4 0 -3 0 -5 2 -4 0 -3 0 -5 3 -3 0 -4 2 -4 0 -4 3 -4 0 -4 2 -4 2 -4 0 -3 3 -4 2 -4 0 -4 3 -4 3 -4 2 -4 2 -4 3 -3 2 -5 3 -4 2 -3 5 -5 3 -3 5 -4 2 -4 6 -4 4 -4 5 -4 8 -4 10 -3 26 3 21 4 10 4 8 4 4 4 7 4 4 4 2 3 5 5 3 3 4 4 4 5 2 3 3 4 2 4 2 4 3 4 2 4 3 4 0 4 2 3 3 4 0 4 3 4 2 4 0 4 3 4 0 4 2 3 0 5 2 3 0 4 0 5 2 3 0 4 0 4 3 4 0 4 0 4 0 4 3 4 0 3 0 4 0 4 0 4 0 4 0 4 0 4 0 4 0 8 0 3 0 4 0 5 0 3 0 4 0 4 0 4 0 4 0 4 0 4 -3 4 0 3 0 5 0 3 -3 4 0 3 0 5 -2 3 0 4 0 5 -2 4 0 3 -2 4 0 5 -3 3 0 4 -2 4 -3 4 0 4 -3 4 -2 4 0 4 -3 3 -2 4 -3 4 -2 4 -2 3 -3 5 -2 3 -4 4 -4 4 -3 4 -5 4 -2 4 -4 4 -7 4 -4 3 -8 5 -10 4 -21 0 0" stroke="#969696" stroke-width="20" fill="#969696" />
    <path d="M 22985 25285 l -3 -26 -3 -10 -4 -8 -3 -5 -3 -4 -3 -6 -4 -2 -3 -5 -3 -3 -4 -5 -3 -2 -3 -3 -3 -2 -4 -3 -3 -2 -3 -2 -3 -3 -4 -3 -3 0 -3 -2 -3 -3 -4 0 -3 -2 -3 -2 -3 0 -4 -3 -3 0 -3 -2 -3 0 -4 -3 -3 0 -3 0 -3 -2 -4 0 -3 0 -3 -2 -3 0 -4 0 -3 0 -3 -3 -3 0 -4 0 -3 0 -3 0 -3 0 -4 0 -3 0 -3 0 -3 0 -7 0 -3 0 -3 0 -3 0 -4 0 -3 0 -3 0 -3 0 -4 0 -3 0 -3 3 -4 0 -3 0 -3 0 -3 2 -4 0 -3 0 -3 2 -3 0 -4 0 -3 3 -3 0 -4 2 -3 0 -3 3 -3 0 -4 2 -3 2 -3 0 -3 3 -4 2 -3 0 -3 3 -3 3 -4 2 -3 2 -3 3 -4 2 -3 3 -3 2 -3 5 -4 3 -3 5 -3 2 -3 6 -4 4 -3 5 -3 8 -3 10 -4 26 4 21 3 10 3 8 3 4 4 7 3 4 3 2 3 5 4 3 3 4 3 4 3 2 4 3 3 2 3 2 4 3 3 2 3 3 3 0 4 2 3 3 3 0 3 3 4 2 3 0 3 3 3 0 4 2 3 0 3 2 4 0 3 0 3 2 3 0 4 0 3 3 3 0 3 0 4 0 3 3 3 0 4 0 3 0 3 0 3 0 4 0 3 0 3 0 3 0 7 0 3 0 3 0 3 0 4 0 3 0 3 0 3 0 4 0 3 0 3 -3 3 0 4 0 3 0 3 -3 3 0 4 0 3 -2 3 0 3 0 4 -2 3 0 3 -2 3 0 4 -3 3 0 3 -2 3 -3 4 0 3 -3 3 -2 3 0 4 -3 3 -2 3 -3 3 -2 4 -2 3 -3 3 -2 3 -4 4 -4 3 -3 3 -5 4 -2 3 -4 3 -7 3 -4 4 -8 3 -10 3 -21 0 0" stroke="#C0C0C0" stroke-width="20" fill="#C0C0C0" />
    <path d="M 22953 25285 l -3 -26 -3 -10 -2 -8 -3 -5 -3 -4 -2 -6 -3 -2 -2 -5 -3 -3 -3 -5 -2 -2 -3 -3 -2 -2 -3 -3 -3 -2 -2 -2 -3 -3 -2 -3 -3 0 -3 -2 -2 -3 -3 0 -2 -2 -3 -2 -3 0 -2 -3 -3 0 -2 -2 -3 0 -3 -3 -2 0 -3 0 -2 -2 -3 0 -3 0 -2 -2 -3 0 -2 0 -3 0 -3 -3 -2 0 -3 0 -2 0 -3 0 -3 0 -2 0 -3 0 -2 0 -3 0 -5 0 -3 0 -2 0 -3 0 -2 0 -3 0 -3 0 -2 0 -3 0 -2 0 -3 3 -3 0 -3 0 -2 0 -3 2 -3 0 -2 0 -3 2 -3 0 -2 0 -3 3 -3 0 -2 2 -3 0 -2 3 -2 0 -3 2 -3 2 -2 0 -3 3 -2 2 -3 0 -3 3 -3 3 -2 2 -3 2 -3 3 -2 2 -3 3 -2 2 -3 5 -3 3 -2 5 -3 2 -2 6 -3 4 -3 5 -2 8 -3 10 -2 26 2 21 3 10 2 8 3 4 3 7 2 4 3 2 2 5 3 3 3 4 2 4 3 2 2 3 3 2 3 2 2 3 3 2 3 3 3 0 2 2 3 3 2 0 3 3 3 2 2 0 2 3 3 0 2 2 3 0 3 2 2 0 3 0 3 2 2 0 3 0 3 3 2 0 3 0 3 0 3 3 2 0 3 0 2 0 3 0 3 0 2 0 3 0 2 0 3 0 5 0 3 0 2 0 3 0 2 0 3 0 3 0 2 0 3 0 2 0 3 -3 3 0 2 0 3 0 2 -3 3 0 3 0 2 -2 3 0 2 0 3 -2 3 0 2 -2 3 0 2 -3 3 0 3 -2 2 -3 3 0 2 -3 3 -2 3 0 2 -3 3 -2 2 -3 3 -2 3 -2 2 -3 3 -2 2 -4 3 -4 3 -3 2 -5 3 -2 2 -4 3 -7 3 -4 2 -8 3 -10 3 -21 0 0" stroke="#D2D2D2" stroke-width="20" fill="#D2D2D2" />
    <path d="M 22921 25285 l -2 -26 -2 -10 -2 -8 -2 -5 -2 -4 -2 -6 -2 -2 -2 -5 -2 -3 -2 -5 -2 -2 -2 -3 -2 -2 -2 -3 -1 -2 -3 -2 -2 -3 -2 -3 -2 0 -2 -2 -2 -3 -2 0 -2 -2 -2 -2 -1 0 -2 -3 -2 0 -2 -2 -2 0 -2 -3 -2 0 -2 0 -2 -2 -2 0 -2 0 -2 -2 -2 0 -2 0 -2 0 -2 -3 -2 0 -2 0 -2 0 -2 0 -2 0 -2 0 -2 0 -2 0 -2 0 -4 0 -2 0 -2 0 -1 0 -2 0 -2 0 -2 0 -2 0 -2 0 -2 0 -2 3 -2 0 -2 0 -2 0 -2 2 -2 0 -2 0 -2 2 -2 0 -2 0 -3 3 -1 0 -2 2 -2 0 -1 3 -2 0 -2 2 -3 2 -1 0 -2 3 -2 2 -2 0 -2 3 -2 3 -3 2 -2 2 -2 3 -2 2 -1 3 -2 2 -2 5 -3 3 -1 5 -2 2 -2 6 -2 4 -2 5 -2 8 -2 10 -1 26 1 21 2 10 2 8 2 4 2 7 2 4 2 2 1 5 3 3 2 4 2 4 1 2 2 3 2 2 2 2 3 3 2 2 2 3 2 0 2 2 2 3 1 0 3 3 2 2 2 0 1 3 2 0 2 2 1 0 3 2 2 0 2 0 2 2 2 0 2 0 2 3 2 0 2 0 2 0 2 3 2 0 2 0 2 0 2 0 2 0 2 0 1 0 2 0 2 0 4 0 2 0 2 0 2 0 2 0 2 0 2 0 2 0 2 0 2 0 2 -3 2 0 2 0 2 0 2 -3 2 0 2 0 2 -2 2 0 2 0 2 -2 2 0 2 -2 2 0 2 -3 1 0 2 -2 2 -3 2 0 2 -3 2 -2 2 0 2 -3 2 -2 3 -3 1 -2 2 -2 2 -3 2 -2 2 -4 2 -4 2 -3 2 -5 2 -2 2 -4 2 -7 2 -4 2 -8 2 -10 2 -21 0 0" stroke="#DEDEDE" stroke-width="20" fill="#DEDEDE" />
    <path d="M 22887 25284 l -2 -26 -1 -10 -1 -7 -1 -5 -2 -5 -1 -6 -1 -2 -1 -5 -2 -2 -1 -6 -2 -2 -1 -2 -1 -3 -1 -2 -2 -3 -1 -2 -1 -2 -1 -3 -2 0 -1 -3 -2 -2 -1 0 -1 -3 -1 -2 -1 0 -1 -3 -2 0 -1 -2 -1 0 -2 -2 -1 0 -1 0 -2 -3 -1 0 -2 0 -1 -2 -1 0 -1 0 -2 0 -1 -2 -1 0 -1 0 -2 0 -1 0 -1 0 -1 0 -2 0 -1 0 -1 0 -3 0 -1 0 -2 0 -1 0 -1 0 -1 0 -2 0 -1 0 -1 0 -1 0 -2 2 -1 0 -2 0 -1 0 -1 2 -1 0 -2 0 -1 3 -1 0 -1 0 -2 2 -1 0 -2 2 -1 0 -1 3 -1 0 -1 2 -1 3 -2 0 -1 2 -1 3 -1 0 -2 3 -2 2 -1 2 -2 3 -1 2 -1 3 -1 2 -1 2 -1 6 -1 2 -2 5 -1 2 -2 6 -1 5 -1 5 -1 7 -2 10 0 26 0 21 2 11 1 7 1 5 1 5 2 5 1 3 2 4 1 3 1 5 1 3 1 2 1 3 1 2 2 3 1 2 2 2 2 3 1 0 1 2 1 3 2 0 1 2 1 3 1 0 1 3 1 0 2 2 1 0 2 2 1 0 1 0 1 3 2 0 1 0 1 2 1 0 2 0 1 0 2 3 1 0 1 0 1 0 2 0 1 0 1 0 1 0 2 0 1 0 3 0 1 0 1 0 2 0 1 0 1 0 1 0 2 0 1 0 1 0 1 -3 2 0 1 0 1 0 1 -2 2 0 1 0 2 -3 1 0 1 0 2 -2 1 0 1 -2 2 0 1 -3 1 0 1 -3 1 -2 1 0 2 -3 1 -2 2 0 1 -3 1 -2 1 -2 2 -3 1 -2 1 -3 1 -2 2 -3 1 -5 2 -3 1 -4 1 -3 1 -5 2 -5 1 -5 1 -7 1 -11 2 -21 0 0" stroke="#F0F0F0" stroke-width="20" fill="#F0F0F0" />
    <path d="M 22854 25284 l -2 -26 0 -10 -1 -7 0 -5 -1 -5 -1 -6 -1 -2 0 -5 -1 -2 -1 -6 0 -2 -1 -2 -1 -3 0 -2 -1 -3 0 -2 -1 -2 -1 -3 0 0 -1 -3 -1 -2 0 0 -1 -3 0 -2 -1 -3 -1 0 -1 -2 0 0 -1 -2 -1 0 0 0 -1 -3 -1 0 0 0 -2 -2 0 0 -1 0 0 0 0 -2 -1 0 -1 0 0 0 -1 0 -1 0 0 0 -1 0 0 0 -2 0 -1 0 0 0 -1 0 -1 0 0 0 -1 0 -1 0 0 0 -1 0 0 0 -1 2 -1 0 0 0 -1 0 -1 2 0 0 -1 0 0 3 -1 0 -1 0 -1 2 0 0 -1 2 -1 0 0 3 -1 0 -1 2 0 3 -1 0 0 2 -1 3 -1 0 0 3 -1 2 -1 2 0 3 -1 2 0 3 -1 2 -1 2 -1 6 0 2 -1 5 -1 2 0 6 -1 5 -1 5 0 7 -1 10 0 26 0 21 1 11 0 7 1 5 1 5 0 5 1 3 1 4 0 3 1 5 1 3 1 2 0 3 1 2 0 3 1 2 1 2 0 3 1 0 1 2 0 3 1 0 0 2 1 3 1 0 0 3 1 0 1 2 0 0 1 2 1 0 1 0 0 3 1 0 0 0 1 2 1 0 0 0 1 0 1 3 0 0 1 0 0 0 1 0 1 0 0 0 1 0 1 0 0 0 1 0 2 0 0 0 1 0 0 0 1 0 1 0 0 0 1 0 1 0 0 -3 0 0 1 0 0 0 2 -2 0 0 1 0 1 -3 0 0 1 0 1 -2 0 0 1 -2 1 0 1 -3 0 -3 1 -2 0 0 1 -3 1 -2 0 0 1 -3 1 -2 0 -2 1 -3 0 -2 1 -3 1 -2 0 -3 1 -5 1 -3 0 -4 1 -3 1 -5 1 -5 0 -5 1 -7 0 -11 2 -21 0 0" stroke="#FFFFFF" stroke-width="20" fill="#FFFFFF" />
    <path d="M 23148 24058 l -7 -26 -6 -9 -7 -8 -6 -5 -7 -5 -6 -5 -7 -3 -6 -4 -7 -3 -6 -5 -7 -3 -6 -2 -7 -3 -6 -2 -7 -2 -6 -3 -7 -2 -6 -3 -7 0 -6 -3 -7 -2 -6 0 -7 -2 -6 -3 -7 0 -6 -2 -7 0 -6 -3 -7 0 -7 -2 -6 0 -7 0 -6 -2 -7 0 -6 0 -7 -3 -6 0 -7 0 -6 0 -7 -2 -6 0 -7 0 -6 0 -7 0 -6 0 -7 0 -6 0 -7 0 -6 0 -13 0 -6 0 -7 0 -6 0 -7 0 -7 0 -6 0 -7 0 -6 0 -7 0 -6 2 -7 0 -6 0 -7 0 -6 3 -7 0 -6 0 -7 2 -7 0 -6 0 -7 2 -6 0 -7 3 -6 0 -7 2 -6 0 -6 3 -7 2 -6 0 -7 2 -6 3 -7 0 -6 3 -7 2 -6 3 -7 2 -6 2 -7 3 -6 2 -7 3 -6 5 -7 3 -6 4 -7 3 -7 5 -6 5 -7 5 -6 8 -7 9 -5 26 5 21 7 11 6 7 7 5 6 6 7 4 7 3 6 5 7 2 6 5 7 3 6 2 7 3 6 2 7 3 6 2 7 2 6 3 7 0 6 2 7 4 6 0 7 2 6 2 6 0 7 3 6 0 7 2 6 0 7 2 6 0 7 0 7 3 6 0 7 0 6 2 7 0 6 0 7 0 6 3 7 0 6 0 7 0 6 0 7 0 7 0 6 0 7 0 6 0 13 0 6 0 7 0 6 0 7 0 6 0 7 0 6 0 7 0 6 0 7 -3 6 0 7 0 6 0 7 -2 6 0 7 0 6 -3 7 0 6 0 7 -2 7 0 6 -2 7 0 6 -3 7 0 6 -2 7 -2 6 0 7 -4 6 -2 7 0 6 -3 7 -2 6 -2 7 -3 6 -2 7 -3 6 -2 7 -3 6 -5 7 -2 6 -5 7 -3 6 -4 7 -6 6 -5 7 -7 6 -11 7 -21 0 0" stroke="#000000" stroke-width="20" fill="#000000" />
    <path d="M 23116 24057 l -6 -25 -7 -10 -5 -7 -6 -6 -6 -4 -6 -5 -6 -3 -5 -5 -7 -2 -5 -6 -6 -2 -6 -2 -6 -3 -6 -3 -5 -2 -7 -2 -5 -2 -6 -3 -6 0 -6 -3 -6 -2 -5 0 -7 -3 -5 -2 -6 0 -6 -3 -6 0 -6 -2 -5 0 -7 -3 -5 0 -6 0 -6 -2 -6 0 -6 0 -5 -2 -7 0 -5 0 -6 0 -6 -2 -6 0 -6 0 -5 0 -7 0 -5 0 -6 0 -6 0 -6 0 -6 0 -12 0 -5 0 -6 0 -6 0 -6 0 -6 0 -5 0 -7 0 -5 0 -6 0 -6 2 -6 0 -6 0 -6 0 -6 2 -5 0 -6 0 -7 2 -6 0 -5 0 -7 3 -5 0 -6 2 -6 0 -5 3 -6 0 -6 2 -6 3 -6 0 -5 2 -6 3 -6 0 -6 3 -6 2 -7 2 -5 2 -6 3 -6 3 -6 2 -6 2 -5 6 -7 2 -5 5 -6 3 -6 5 -6 4 -6 6 -5 7 -7 10 -5 25 5 22 7 10 5 8 6 5 6 5 6 5 6 3 5 4 7 3 5 4 6 4 6 2 6 3 6 2 5 2 7 3 6 2 6 3 6 0 6 2 5 3 6 0 6 2 6 3 6 0 5 2 6 0 6 3 5 0 7 2 5 0 6 0 7 2 6 0 5 0 6 3 6 0 6 0 6 0 6 3 6 0 5 0 7 0 5 0 6 0 6 0 6 0 6 0 5 0 12 0 6 0 6 0 6 0 6 0 5 0 7 0 5 0 6 0 6 0 6 -3 6 0 5 0 7 0 5 -3 6 0 6 0 6 -2 6 0 5 0 7 -2 5 0 6 -3 6 0 6 -2 6 0 5 -3 7 -2 5 0 6 -3 6 -2 6 0 6 -3 5 -2 7 -3 5 -2 6 -2 6 -3 6 -2 6 -4 5 -4 7 -3 5 -4 6 -3 6 -5 6 -5 6 -5 5 -8 7 -10 6 -22 0 0" stroke="#3C3C3C" stroke-width="20" fill="#3C3C3C" />
    <path d="M 23084 24058 l -6 -26 -5 -9 -5 -8 -6 -5 -5 -5 -5 -5 -5 -3 -5 -4 -6 -3 -5 -5 -5 -3 -5 -2 -5 -3 -6 -2 -5 -2 -5 -3 -5 -2 -5 -3 -5 0 -6 -3 -5 -2 -5 0 -5 -2 -5 -3 -6 0 -5 -2 -5 0 -5 -3 -5 0 -6 -2 -5 0 -5 0 -6 -2 -5 0 -5 0 -5 -3 -5 0 -6 0 -5 0 -5 -2 -5 0 -5 0 -6 0 -5 0 -5 0 -5 0 -5 0 -6 0 -5 0 -11 0 -5 0 -5 0 -5 0 -5 0 -6 0 -5 0 -6 0 -5 0 -5 0 -5 2 -5 0 -5 0 -6 0 -5 3 -5 0 -5 0 -5 2 -6 0 -5 0 -5 2 -5 0 -5 3 -6 0 -5 2 -5 0 -5 3 -5 2 -6 0 -5 2 -5 3 -5 0 -5 3 -6 2 -5 3 -5 2 -5 2 -6 3 -5 2 -5 3 -5 5 -6 3 -5 4 -5 3 -5 5 -5 5 -6 5 -5 8 -5 9 -5 26 5 21 5 11 5 7 6 5 5 6 5 4 5 3 5 5 6 2 5 5 5 3 5 2 6 3 5 2 5 3 5 2 6 2 5 3 5 0 5 2 5 4 6 0 5 2 5 2 5 0 5 3 6 0 5 2 5 0 5 2 5 0 6 0 5 3 5 0 5 0 5 2 6 0 5 0 5 0 5 3 5 0 5 0 6 0 5 0 6 0 5 0 5 0 5 0 5 0 11 0 5 0 6 0 5 0 5 0 5 0 5 0 6 0 5 0 5 0 5 -3 5 0 6 0 5 0 5 -2 5 0 5 0 6 -3 5 0 5 0 6 -2 5 0 5 -2 5 0 5 -3 6 0 5 -2 5 -2 5 0 5 -4 6 -2 5 0 5 -3 5 -2 5 -2 5 -3 6 -2 5 -3 5 -2 5 -3 5 -5 6 -2 5 -5 5 -3 5 -4 5 -6 6 -5 5 -7 5 -11 6 -21 0 0" stroke="#5A5A5A" stroke-width="20" fill="#5A5A5A" />
    <path d="M 23049 24058 l -5 -26 -4 -9 -5 -8 -4 -5 -5 -5 -5 -5 -4 -3 -4 -4 -5 -3 -5 -5 -4 -3 -5 -2 -4 -3 -5 -2 -5 -2 -4 -3 -4 -2 -5 -3 -5 0 -4 -3 -5 -2 -4 0 -5 -2 -5 -3 -4 0 -4 -2 -5 0 -5 -3 -4 0 -5 -2 -4 0 -5 0 -5 -2 -4 0 -5 0 -4 -3 -5 0 -4 0 -5 0 -4 -2 -5 0 -5 0 -4 0 -5 0 -4 0 -5 0 -4 0 -5 0 -4 0 -9 0 -4 0 -5 0 -5 0 -4 0 -5 0 -4 0 -5 0 -5 0 -4 0 -4 2 -5 0 -5 0 -4 0 -5 3 -4 0 -5 0 -5 2 -4 0 -4 0 -5 2 -5 0 -4 3 -5 0 -4 2 -5 0 -5 3 -4 2 -4 0 -5 2 -5 3 -4 0 -5 3 -4 2 -5 3 -5 2 -4 2 -4 3 -5 2 -5 3 -4 5 -5 3 -4 4 -5 3 -5 5 -4 5 -4 5 -5 8 -5 9 -3 26 3 21 5 11 5 7 4 5 4 6 5 4 5 3 4 5 5 2 4 5 5 3 5 2 4 3 4 2 5 3 5 2 4 2 5 3 4 0 5 2 5 4 4 0 4 2 5 2 5 0 4 3 5 0 4 2 5 0 5 2 4 0 4 0 5 3 5 0 4 0 5 2 4 0 5 0 5 0 4 3 4 0 5 0 5 0 4 0 5 0 4 0 5 0 5 0 4 0 9 0 4 0 5 0 4 0 5 0 4 0 5 0 4 0 5 0 5 0 4 -3 5 0 4 0 5 0 4 -2 5 0 4 0 5 -3 5 0 4 0 5 -2 4 0 5 -2 5 0 4 -3 4 0 5 -2 5 -2 4 0 5 -4 4 -2 5 0 5 -3 4 -2 4 -2 5 -3 5 -2 4 -3 5 -2 4 -3 5 -5 5 -2 4 -5 4 -3 5 -4 5 -6 4 -5 5 -7 4 -11 5 -21 0 0" stroke="#808080" stroke-width="20" fill="#808080" />
    <path d="M 23017 24058 l -4 -26 -5 -9 -3 -8 -4 -5 -4 -5 -4 -5 -4 -3 -4 -4 -4 -3 -4 -5 -3 -3 -5 -2 -3 -3 -4 -2 -4 -2 -4 -3 -3 -2 -4 -3 -4 0 -4 -3 -4 -2 -4 0 -4 -2 -4 -3 -3 0 -5 -2 -4 0 -3 -3 -4 0 -5 -2 -4 0 -3 0 -5 -2 -3 0 -4 0 -3 -3 -5 0 -3 0 -4 0 -4 -2 -4 0 -4 0 -4 0 -4 0 -4 0 -3 0 -5 0 -4 0 -3 0 -8 0 -4 0 -4 0 -4 0 -4 0 -4 0 -4 0 -4 0 -3 0 -4 0 -4 2 -4 0 -4 0 -4 0 -4 3 -4 0 -3 0 -5 2 -4 0 -3 0 -5 2 -3 0 -4 3 -4 0 -4 2 -4 0 -4 3 -4 2 -4 0 -3 2 -4 3 -4 0 -4 3 -4 2 -4 3 -4 2 -4 2 -3 3 -5 2 -4 3 -3 5 -5 3 -3 4 -4 3 -4 5 -4 5 -4 5 -4 8 -4 9 -3 26 3 21 4 11 4 7 4 5 4 6 4 4 4 3 3 5 5 2 3 5 4 3 5 2 3 3 4 2 4 3 4 2 4 2 4 3 4 0 4 2 3 4 4 0 4 2 4 2 4 0 4 3 4 0 4 2 3 0 5 2 3 0 4 0 5 3 3 0 4 0 4 2 4 0 4 0 4 0 4 3 4 0 3 0 4 0 4 0 4 0 4 0 4 0 4 0 4 0 8 0 3 0 4 0 5 0 3 0 4 0 4 0 4 0 4 0 4 0 4 -3 4 0 3 0 5 0 3 -2 4 0 3 0 5 -3 3 0 4 0 5 -2 4 0 3 -2 4 0 5 -3 3 0 4 -2 4 -2 4 0 4 -4 4 -2 4 0 4 -3 3 -2 4 -2 4 -3 4 -2 3 -3 5 -2 3 -3 4 -5 4 -2 4 -5 4 -3 4 -4 4 -6 4 -5 3 -7 5 -11 4 -21 0 0" stroke="#969696" stroke-width="20" fill="#969696" />
    <path d="M 22985 24058 l -3 -26 -3 -9 -4 -8 -3 -5 -3 -5 -3 -5 -4 -3 -3 -4 -3 -3 -4 -5 -3 -3 -3 -2 -3 -3 -4 -2 -3 -2 -3 -3 -3 -2 -4 -3 -3 0 -3 -3 -3 -2 -4 0 -3 -2 -3 -3 -3 0 -4 -2 -3 0 -3 -3 -3 0 -4 -2 -3 0 -3 0 -3 -2 -4 0 -3 0 -3 -3 -3 0 -4 0 -3 0 -3 -2 -3 0 -4 0 -3 0 -3 0 -3 0 -4 0 -3 0 -3 0 -3 0 -7 0 -3 0 -3 0 -3 0 -4 0 -3 0 -3 0 -3 0 -4 0 -3 0 -3 2 -4 0 -3 0 -3 0 -3 3 -4 0 -3 0 -3 2 -3 0 -4 0 -3 2 -3 0 -4 3 -3 0 -3 2 -3 0 -4 3 -3 2 -3 0 -3 2 -4 3 -3 0 -3 3 -3 2 -4 3 -3 2 -3 2 -4 3 -3 2 -3 3 -3 5 -4 3 -3 4 -3 3 -3 5 -4 5 -3 5 -3 8 -3 9 -4 26 4 21 3 11 3 7 3 5 4 6 3 4 3 3 3 5 4 2 3 5 3 3 3 2 4 3 3 2 3 3 4 2 3 2 3 3 3 0 4 2 3 4 3 0 3 2 4 2 3 0 3 3 3 0 4 2 3 0 3 2 4 0 3 0 3 3 3 0 4 0 3 2 3 0 3 0 4 0 3 3 3 0 4 0 3 0 3 0 3 0 4 0 3 0 3 0 3 0 7 0 3 0 3 0 3 0 4 0 3 0 3 0 3 0 4 0 3 0 3 -3 3 0 4 0 3 0 3 -2 3 0 4 0 3 -3 3 0 3 0 4 -2 3 0 3 -2 3 0 4 -3 3 0 3 -2 3 -2 4 0 3 -4 3 -2 3 0 4 -3 3 -2 3 -2 3 -3 4 -2 3 -3 3 -2 3 -3 4 -5 3 -2 3 -5 4 -3 3 -4 3 -6 3 -5 4 -7 3 -11 3 -21 0 0" stroke="#C0C0C0" stroke-width="20" fill="#C0C0C0" />
    <path d="M 22953 24058 l -3 -26 -3 -9 -2 -8 -3 -5 -3 -5 -2 -5 -3 -3 -2 -4 -3 -3 -3 -5 -2 -3 -3 -2 -2 -3 -3 -2 -3 -2 -2 -3 -3 -2 -2 -3 -3 0 -3 -3 -2 -2 -3 0 -2 -2 -3 -3 -3 0 -2 -2 -3 0 -2 -3 -3 0 -3 -2 -2 0 -3 0 -2 -2 -3 0 -3 0 -2 -3 -3 0 -2 0 -3 0 -3 -2 -2 0 -3 0 -2 0 -3 0 -3 0 -2 0 -3 0 -2 0 -3 0 -5 0 -3 0 -2 0 -3 0 -2 0 -3 0 -3 0 -2 0 -3 0 -2 0 -3 2 -3 0 -3 0 -2 0 -3 3 -3 0 -2 0 -3 2 -3 0 -2 0 -3 2 -3 0 -2 3 -3 0 -2 2 -2 0 -3 3 -3 2 -2 0 -3 2 -2 3 -3 0 -3 3 -3 2 -2 3 -3 2 -3 2 -2 3 -3 2 -2 3 -3 5 -3 3 -2 4 -3 3 -2 5 -3 5 -3 5 -2 8 -3 9 -2 26 2 21 3 11 2 7 3 5 3 6 2 4 3 3 2 5 3 2 3 5 2 3 3 2 2 3 3 2 3 3 2 2 3 2 3 3 3 0 2 2 3 4 2 0 3 2 3 2 2 0 2 3 3 0 2 2 3 0 3 2 2 0 3 0 3 3 2 0 3 0 3 2 2 0 3 0 3 0 3 3 2 0 3 0 2 0 3 0 3 0 2 0 3 0 2 0 3 0 5 0 3 0 2 0 3 0 2 0 3 0 3 0 2 0 3 0 2 0 3 -3 3 0 2 0 3 0 2 -2 3 0 3 0 2 -3 3 0 2 0 3 -2 3 0 2 -2 3 0 2 -3 3 0 3 -2 2 -2 3 0 2 -4 3 -2 3 0 2 -3 3 -2 2 -2 3 -3 3 -2 2 -3 3 -2 2 -3 3 -5 3 -2 2 -5 3 -3 2 -4 3 -6 3 -5 2 -7 3 -11 3 -21 0 0" stroke="#D2D2D2" stroke-width="20" fill="#D2D2D2" />
    <path d="M 22921 24058 l -2 -26 -2 -9 -2 -8 -2 -5 -2 -5 -2 -5 -2 -3 -2 -4 -2 -3 -2 -5 -2 -3 -2 -2 -2 -3 -2 -2 -1 -2 -3 -3 -2 -2 -2 -3 -2 0 -2 -3 -2 -2 -2 0 -2 -2 -2 -3 -1 0 -2 -2 -2 0 -2 -3 -2 0 -2 -2 -2 0 -2 0 -2 -2 -2 0 -2 0 -2 -3 -2 0 -2 0 -2 0 -2 -2 -2 0 -2 0 -2 0 -2 0 -2 0 -2 0 -2 0 -2 0 -2 0 -4 0 -2 0 -2 0 -1 0 -2 0 -2 0 -2 0 -2 0 -2 0 -2 0 -2 2 -2 0 -2 0 -2 0 -2 3 -2 0 -2 0 -2 2 -2 0 -2 0 -3 2 -1 0 -2 3 -2 0 -1 2 -2 0 -2 3 -3 2 -1 0 -2 2 -2 3 -2 0 -2 3 -2 2 -3 3 -2 2 -2 2 -2 3 -1 2 -2 3 -2 5 -3 3 -1 4 -2 3 -2 5 -2 5 -2 5 -2 8 -2 9 -1 26 1 21 2 11 2 7 2 5 2 6 2 4 2 3 1 5 3 2 2 5 2 3 1 2 2 3 2 2 2 3 3 2 2 2 2 3 2 0 2 2 2 4 1 0 3 2 2 2 2 0 1 3 2 0 2 2 1 0 3 2 2 0 2 0 2 3 2 0 2 0 2 2 2 0 2 0 2 0 2 3 2 0 2 0 2 0 2 0 2 0 2 0 1 0 2 0 2 0 4 0 2 0 2 0 2 0 2 0 2 0 2 0 2 0 2 0 2 0 2 -3 2 0 2 0 2 0 2 -2 2 0 2 0 2 -3 2 0 2 0 2 -2 2 0 2 -2 2 0 2 -3 1 0 2 -2 2 -2 2 0 2 -4 2 -2 2 0 2 -3 2 -2 3 -2 1 -3 2 -2 2 -3 2 -2 2 -3 2 -5 2 -2 2 -5 2 -3 2 -4 2 -6 2 -5 2 -7 2 -11 2 -21 0 0" stroke="#DEDEDE" stroke-width="20" fill="#DEDEDE" />
    <path d="M 22887 24057 l -2 -25 -1 -10 -1 -8 -1 -5 -2 -4 -1 -6 -1 -2 -1 -5 -2 -3 -1 -5 -2 -2 -1 -2 -1 -3 -1 -3 -2 -2 -1 -2 -1 -2 -1 -3 -2 0 -1 -3 -2 -2 -1 0 -1 -3 -1 -2 -1 0 -1 -3 -2 0 -1 -2 -1 0 -2 -3 -1 0 -1 0 -2 -2 -1 0 -2 0 -1 -2 -1 0 -1 0 -2 0 -1 -2 -1 0 -1 0 -2 0 -1 0 -1 0 -1 0 -2 0 -1 0 -1 0 -3 0 -1 0 -2 0 -1 0 -1 0 -1 0 -2 0 -1 0 -1 0 -1 0 -2 2 -1 0 -2 0 -1 0 -1 2 -1 0 -2 0 -1 2 -1 0 -1 0 -2 3 -1 0 -2 2 -1 0 -1 3 -1 0 -1 2 -1 3 -2 0 -1 2 -1 3 -1 0 -2 3 -2 2 -1 2 -2 2 -1 3 -1 3 -1 2 -1 2 -1 5 -1 3 -2 5 -1 2 -2 6 -1 4 -1 5 -1 8 -2 10 0 25 0 21 2 11 1 8 1 4 1 6 2 5 1 2 2 5 1 3 1 4 1 3 1 2 1 3 1 2 2 3 1 2 2 2 2 3 1 0 1 3 1 2 2 0 1 3 1 2 1 0 1 3 1 0 2 2 1 0 2 2 1 0 1 0 1 3 2 0 1 0 1 2 1 0 2 0 1 0 2 3 1 0 1 0 1 0 2 0 1 0 1 0 1 0 2 0 1 0 3 0 1 0 1 0 2 0 1 0 1 0 1 0 2 0 1 0 1 0 1 -3 2 0 1 0 1 0 1 -2 2 0 1 0 2 -3 1 0 1 0 2 -2 1 0 1 -2 2 0 1 -3 1 0 1 -2 1 -3 1 0 2 -2 1 -3 2 0 1 -3 1 -2 1 -2 2 -3 1 -2 1 -3 1 -2 2 -3 1 -4 2 -3 1 -5 1 -2 1 -5 2 -6 1 -4 1 -8 1 -11 2 -21 0 0" stroke="#F0F0F0" stroke-width="20" fill="#F0F0F0" />
    <path d="M 22854 24057 l -2 -25 0 -10 -1 -8 0 -5 -1 -4 -1 -6 -1 -2 0 -5 -1 -3 -1 -5 0 -2 -1 -2 -1 -3 0 -3 -1 -2 0 -2 -1 -2 -1 -3 0 0 -1 -3 -1 -2 0 0 -1 -3 0 -2 -1 -3 -1 0 -1 -2 0 0 -1 -3 -1 0 0 0 -1 -2 -1 0 0 0 -2 -2 0 0 -1 0 0 0 0 -2 -1 0 -1 0 0 0 -1 0 -1 0 0 0 -1 0 0 0 -2 0 -1 0 0 0 -1 0 -1 0 0 0 -1 0 -1 0 0 0 -1 0 0 0 -1 2 -1 0 0 0 -1 0 -1 2 0 0 -1 0 0 2 -1 0 -1 0 -1 3 0 0 -1 2 -1 0 0 3 -1 0 -1 2 0 3 -1 0 0 2 -1 3 -1 0 0 3 -1 2 -1 2 0 2 -1 3 0 3 -1 2 -1 2 -1 5 0 3 -1 5 -1 2 0 6 -1 4 -1 5 0 8 -1 10 0 25 0 21 1 11 0 8 1 4 1 6 0 5 1 2 1 5 0 3 1 4 1 3 1 2 0 3 1 2 0 3 1 2 1 2 0 3 1 0 1 3 0 2 1 0 0 3 1 2 1 0 0 3 1 0 1 2 0 0 1 2 1 0 1 0 0 3 1 0 0 0 1 2 1 0 0 0 1 0 1 3 0 0 1 0 0 0 1 0 1 0 0 0 1 0 1 0 0 0 1 0 2 0 0 0 1 0 0 0 1 0 1 0 0 0 1 0 1 0 0 -3 0 0 1 0 0 0 2 -2 0 0 1 0 1 -3 0 0 1 0 1 -2 0 0 1 -2 1 0 1 -3 0 -2 1 -3 0 0 1 -2 1 -3 0 0 1 -3 1 -2 0 -2 1 -3 0 -2 1 -3 1 -2 0 -3 1 -4 1 -3 0 -5 1 -2 1 -5 1 -6 0 -4 1 -8 0 -11 2 -21 0 0" stroke="#FFFFFF" stroke-width="20" fill="#FFFFFF" />
    <path d="M 23148 25285 l -7 -26 -6 -10 -7 -8 -6 -5 -7 -4 -6 -6 -7 -2 -6 -5 -7 -3 -6 -5 -7 -2 -6 -3 -7 -2 -6 -3 -7 -2 -6 -2 -7 -3 -6 -3 -7 0 -6 -2 -7 -3 -6 0 -7 -2 -6 -2 -7 0 -6 -3 -7 0 -6 -2 -7 0 -7 -3 -6 0 -7 0 -6 -2 -7 0 -6 0 -7 -2 -6 0 -7 0 -6 0 -7 -3 -6 0 -7 0 -6 0 -7 0 -6 0 -7 0 -6 0 -7 0 -6 0 -13 0 -6 0 -7 0 -6 0 -7 0 -7 0 -6 0 -7 0 -6 0 -7 0 -6 3 -7 0 -6 0 -7 0 -6 2 -7 0 -6 0 -7 2 -7 0 -6 0 -7 3 -6 0 -7 2 -6 0 -7 3 -6 0 -6 2 -7 2 -6 0 -7 3 -6 2 -7 0 -6 3 -7 3 -6 2 -7 2 -6 3 -7 2 -6 3 -7 2 -6 5 -7 3 -6 5 -7 2 -7 6 -6 4 -7 5 -6 8 -7 10 -5 26 5 21 7 10 6 8 7 4 6 7 7 4 7 2 6 5 7 3 6 4 7 4 6 2 7 3 6 2 7 2 6 3 7 2 6 3 7 0 6 2 7 3 6 0 7 3 6 2 6 0 7 3 6 0 7 2 6 0 7 2 6 0 7 0 7 2 6 0 7 0 6 3 7 0 6 0 7 0 6 3 7 0 6 0 7 0 6 0 7 0 7 0 6 0 7 0 6 0 13 0 6 0 7 0 6 0 7 0 6 0 7 0 6 0 7 0 6 0 7 -3 6 0 7 0 6 0 7 -3 6 0 7 0 6 -2 7 0 6 0 7 -2 7 0 6 -2 7 0 6 -3 7 0 6 -2 7 -3 6 0 7 -3 6 -2 7 0 6 -3 7 -2 6 -3 7 -2 6 -2 7 -3 6 -2 7 -4 6 -4 7 -3 6 -5 7 -2 6 -4 7 -7 6 -4 7 -8 6 -10 7 -21 0 0" stroke="#000000" stroke-width="20" fill="#000000" />
    <path d="M 23116 25284 l -6 -25 -7 -10 -5 -8 -6 -5 -6 -5 -6 -5 -6 -2 -5 -5 -7 -3 -5 -5 -6 -2 -6 -3 -6 -2 -6 -3 -5 -3 -7 -2 -5 -2 -6 -3 -6 0 -6 -3 -6 -2 -5 0 -7 -3 -5 -2 -6 0 -6 -3 -6 0 -6 -2 -5 0 -7 -2 -5 0 -6 0 -6 -3 -6 0 -6 0 -5 -2 -7 0 -5 0 -6 0 -6 -2 -6 0 -6 0 -5 0 -7 0 -5 0 -6 0 -6 0 -6 0 -6 0 -12 0 -5 0 -6 0 -6 0 -6 0 -6 0 -5 0 -7 0 -5 0 -6 0 -6 2 -6 0 -6 0 -6 0 -6 2 -5 0 -6 0 -7 3 -6 0 -5 0 -7 2 -5 0 -6 2 -6 0 -5 3 -6 0 -6 2 -6 3 -6 0 -5 2 -6 3 -6 0 -6 3 -6 2 -7 2 -5 3 -6 3 -6 2 -6 3 -6 2 -5 5 -7 3 -5 5 -6 2 -6 5 -6 5 -6 5 -5 8 -7 10 -5 25 5 21 7 11 5 8 6 4 6 6 6 5 6 2 5 5 7 2 5 5 6 3 6 3 6 2 6 3 5 2 7 2 6 3 6 2 6 0 6 3 5 3 6 0 6 2 6 2 6 0 5 3 6 0 6 3 5 0 7 2 5 0 6 0 7 2 6 0 5 0 6 2 6 0 6 0 6 0 6 3 6 0 5 0 7 0 5 0 6 0 6 0 6 0 6 0 5 0 12 0 6 0 6 0 6 0 6 0 5 0 7 0 5 0 6 0 6 0 6 -3 6 0 5 0 7 0 5 -2 6 0 6 0 6 -2 6 0 5 0 7 -2 5 0 6 -3 6 0 6 -3 6 0 5 -2 7 -2 5 0 6 -3 6 -3 6 0 6 -2 5 -3 7 -2 5 -2 6 -3 6 -2 6 -3 6 -3 5 -5 7 -2 5 -5 6 -2 6 -5 6 -6 6 -4 5 -8 7 -11 6 -21 0 0" stroke="#3C3C3C" stroke-width="20" fill="#3C3C3C" />
    <path d="M 23084 25285 l -6 -26 -5 -10 -5 -8 -6 -5 -5 -4 -5 -6 -5 -2 -5 -5 -6 -3 -5 -5 -5 -2 -5 -3 -5 -2 -6 -3 -5 -2 -5 -2 -5 -3 -5 -3 -5 0 -6 -2 -5 -3 -5 0 -5 -2 -5 -2 -6 0 -5 -3 -5 0 -5 -2 -5 0 -6 -3 -5 0 -5 0 -6 -2 -5 0 -5 0 -5 -2 -5 0 -6 0 -5 0 -5 -3 -5 0 -5 0 -6 0 -5 0 -5 0 -5 0 -5 0 -6 0 -5 0 -11 0 -5 0 -5 0 -5 0 -5 0 -6 0 -5 0 -6 0 -5 0 -5 0 -5 3 -5 0 -5 0 -6 0 -5 2 -5 0 -5 0 -5 2 -6 0 -5 0 -5 3 -5 0 -5 2 -6 0 -5 3 -5 0 -5 2 -5 2 -6 0 -5 3 -5 2 -5 0 -5 3 -6 3 -5 2 -5 2 -5 3 -6 2 -5 3 -5 2 -5 5 -6 3 -5 5 -5 2 -5 6 -5 4 -6 5 -5 8 -5 10 -5 26 5 21 5 10 5 8 6 4 5 7 5 4 5 2 5 5 6 3 5 4 5 4 5 2 6 3 5 2 5 2 5 3 6 2 5 3 5 0 5 2 5 3 6 0 5 3 5 2 5 0 5 3 6 0 5 2 5 0 5 2 5 0 6 0 5 2 5 0 5 0 5 3 6 0 5 0 5 0 5 3 5 0 5 0 6 0 5 0 6 0 5 0 5 0 5 0 5 0 11 0 5 0 6 0 5 0 5 0 5 0 5 0 6 0 5 0 5 0 5 -3 5 0 6 0 5 0 5 -3 5 0 5 0 6 -2 5 0 5 0 6 -2 5 0 5 -2 5 0 5 -3 6 0 5 -2 5 -3 5 0 5 -3 6 -2 5 0 5 -3 5 -2 5 -3 5 -2 6 -2 5 -3 5 -2 5 -4 5 -4 6 -3 5 -5 5 -2 5 -4 5 -7 6 -4 5 -8 5 -10 6 -21 0 0" stroke="#5A5A5A" stroke-width="20" fill="#5A5A5A" />
    <path d="M 23049 25285 l -5 -26 -4 -10 -5 -8 -4 -5 -5 -4 -5 -6 -4 -2 -4 -5 -5 -3 -5 -5 -4 -2 -5 -3 -4 -2 -5 -3 -5 -2 -4 -2 -4 -3 -5 -3 -5 0 -4 -2 -5 -3 -4 0 -5 -2 -5 -2 -4 0 -4 -3 -5 0 -5 -2 -4 0 -5 -3 -4 0 -5 0 -5 -2 -4 0 -5 0 -4 -2 -5 0 -4 0 -5 0 -4 -3 -5 0 -5 0 -4 0 -5 0 -4 0 -5 0 -4 0 -5 0 -4 0 -9 0 -4 0 -5 0 -5 0 -4 0 -5 0 -4 0 -5 0 -5 0 -4 0 -4 3 -5 0 -5 0 -4 0 -5 2 -4 0 -5 0 -5 2 -4 0 -4 0 -5 3 -5 0 -4 2 -5 0 -4 3 -5 0 -5 2 -4 2 -4 0 -5 3 -5 2 -4 0 -5 3 -4 3 -5 2 -5 2 -4 3 -4 2 -5 3 -5 2 -4 5 -5 3 -4 5 -5 2 -5 6 -4 4 -4 5 -5 8 -5 10 -3 26 3 21 5 10 5 8 4 4 4 7 5 4 5 2 4 5 5 3 4 4 5 4 5 2 4 3 4 2 5 2 5 3 4 2 5 3 4 0 5 2 5 3 4 0 4 3 5 2 5 0 4 3 5 0 4 2 5 0 5 2 4 0 4 0 5 2 5 0 4 0 5 3 4 0 5 0 5 0 4 3 4 0 5 0 5 0 4 0 5 0 4 0 5 0 5 0 4 0 9 0 4 0 5 0 4 0 5 0 4 0 5 0 4 0 5 0 5 0 4 -3 5 0 4 0 5 0 4 -3 5 0 4 0 5 -2 5 0 4 0 5 -2 4 0 5 -2 5 0 4 -3 4 0 5 -2 5 -3 4 0 5 -3 4 -2 5 0 5 -3 4 -2 4 -3 5 -2 5 -2 4 -3 5 -2 4 -4 5 -4 5 -3 4 -5 4 -2 5 -4 5 -7 4 -4 5 -8 4 -10 5 -21 0 0" stroke="#808080" stroke-width="20" fill="#808080" />
    <path d="M 23017 25285 l -4 -26 -5 -10 -3 -8 -4 -5 -4 -4 -4 -6 -4 -2 -4 -5 -4 -3 -4 -5 -3 -2 -5 -3 -3 -2 -4 -3 -4 -2 -4 -2 -3 -3 -4 -3 -4 0 -4 -2 -4 -3 -4 0 -4 -2 -4 -2 -3 0 -5 -3 -4 0 -3 -2 -4 0 -5 -3 -4 0 -3 0 -5 -2 -3 0 -4 0 -3 -2 -5 0 -3 0 -4 0 -4 -3 -4 0 -4 0 -4 0 -4 0 -4 0 -3 0 -5 0 -4 0 -3 0 -8 0 -4 0 -4 0 -4 0 -4 0 -4 0 -4 0 -4 0 -3 0 -4 0 -4 3 -4 0 -4 0 -4 0 -4 2 -4 0 -3 0 -5 2 -4 0 -3 0 -5 3 -3 0 -4 2 -4 0 -4 3 -4 0 -4 2 -4 2 -4 0 -3 3 -4 2 -4 0 -4 3 -4 3 -4 2 -4 2 -4 3 -3 2 -5 3 -4 2 -3 5 -5 3 -3 5 -4 2 -4 6 -4 4 -4 5 -4 8 -4 10 -3 26 3 21 4 10 4 8 4 4 4 7 4 4 4 2 3 5 5 3 3 4 4 4 5 2 3 3 4 2 4 2 4 3 4 2 4 3 4 0 4 2 3 3 4 0 4 3 4 2 4 0 4 3 4 0 4 2 3 0 5 2 3 0 4 0 5 2 3 0 4 0 4 3 4 0 4 0 4 0 4 3 4 0 3 0 4 0 4 0 4 0 4 0 4 0 4 0 4 0 8 0 3 0 4 0 5 0 3 0 4 0 4 0 4 0 4 0 4 0 4 -3 4 0 3 0 5 0 3 -3 4 0 3 0 5 -2 3 0 4 0 5 -2 4 0 3 -2 4 0 5 -3 3 0 4 -2 4 -3 4 0 4 -3 4 -2 4 0 4 -3 3 -2 4 -3 4 -2 4 -2 3 -3 5 -2 3 -4 4 -4 4 -3 4 -5 4 -2 4 -4 4 -7 4 -4 3 -8 5 -10 4 -21 0 0" stroke="#969696" stroke-width="20" fill="#969696" />
    <path d="M 22985 25285 l -3 -26 -3 -10 -4 -8 -3 -5 -3 -4 -3 -6 -4 -2 -3 -5 -3 -3 -4 -5 -3 -2 -3 -3 -3 -2 -4 -3 -3 -2 -3 -2 -3 -3 -4 -3 -3 0 -3 -2 -3 -3 -4 0 -3 -2 -3 -2 -3 0 -4 -3 -3 0 -3 -2 -3 0 -4 -3 -3 0 -3 0 -3 -2 -4 0 -3 0 -3 -2 -3 0 -4 0 -3 0 -3 -3 -3 0 -4 0 -3 0 -3 0 -3 0 -4 0 -3 0 -3 0 -3 0 -7 0 -3 0 -3 0 -3 0 -4 0 -3 0 -3 0 -3 0 -4 0 -3 0 -3 3 -4 0 -3 0 -3 0 -3 2 -4 0 -3 0 -3 2 -3 0 -4 0 -3 3 -3 0 -4 2 -3 0 -3 3 -3 0 -4 2 -3 2 -3 0 -3 3 -4 2 -3 0 -3 3 -3 3 -4 2 -3 2 -3 3 -4 2 -3 3 -3 2 -3 5 -4 3 -3 5 -3 2 -3 6 -4 4 -3 5 -3 8 -3 10 -4 26 4 21 3 10 3 8 3 4 4 7 3 4 3 2 3 5 4 3 3 4 3 4 3 2 4 3 3 2 3 2 4 3 3 2 3 3 3 0 4 2 3 3 3 0 3 3 4 2 3 0 3 3 3 0 4 2 3 0 3 2 4 0 3 0 3 2 3 0 4 0 3 3 3 0 3 0 4 0 3 3 3 0 4 0 3 0 3 0 3 0 4 0 3 0 3 0 3 0 7 0 3 0 3 0 3 0 4 0 3 0 3 0 3 0 4 0 3 0 3 -3 3 0 4 0 3 0 3 -3 3 0 4 0 3 -2 3 0 3 0 4 -2 3 0 3 -2 3 0 4 -3 3 0 3 -2 3 -3 4 0 3 -3 3 -2 3 0 4 -3 3 -2 3 -3 3 -2 4 -2 3 -3 3 -2 3 -4 4 -4 3 -3 3 -5 4 -2 3 -4 3 -7 3 -4 4 -8 3 -10 3 -21 0 0" stroke="#C0C0C0" stroke-width="20" fill="#C0C0C0" />
    <path d="M 22953 25285 l -3 -26 -3 -10 -2 -8 -3 -5 -3 -4 -2 -6 -3 -2 -2 -5 -3 -3 -3 -5 -2 -2 -3 -3 -2 -2 -3 -3 -3 -2 -2 -2 -3 -3 -2 -3 -3 0 -3 -2 -2 -3 -3 0 -2 -2 -3 -2 -3 0 -2 -3 -3 0 -2 -2 -3 0 -3 -3 -2 0 -3 0 -2 -2 -3 0 -3 0 -2 -2 -3 0 -2 0 -3 0 -3 -3 -2 0 -3 0 -2 0 -3 0 -3 0 -2 0 -3 0 -2 0 -3 0 -5 0 -3 0 -2 0 -3 0 -2 0 -3 0 -3 0 -2 0 -3 0 -2 0 -3 3 -3 0 -3 0 -2 0 -3 2 -3 0 -2 0 -3 2 -3 0 -2 0 -3 3 -3 0 -2 2 -3 0 -2 3 -2 0 -3 2 -3 2 -2 0 -3 3 -2 2 -3 0 -3 3 -3 3 -2 2 -3 2 -3 3 -2 2 -3 3 -2 2 -3 5 -3 3 -2 5 -3 2 -2 6 -3 4 -3 5 -2 8 -3 10 -2 26 2 21 3 10 2 8 3 4 3 7 2 4 3 2 2 5 3 3 3 4 2 4 3 2 2 3 3 2 3 2 2 3 3 2 3 3 3 0 2 2 3 3 2 0 3 3 3 2 2 0 2 3 3 0 2 2 3 0 3 2 2 0 3 0 3 2 2 0 3 0 3 3 2 0 3 0 3 0 3 3 2 0 3 0 2 0 3 0 3 0 2 0 3 0 2 0 3 0 5 0 3 0 2 0 3 0 2 0 3 0 3 0 2 0 3 0 2 0 3 -3 3 0 2 0 3 0 2 -3 3 0 3 0 2 -2 3 0 2 0 3 -2 3 0 2 -2 3 0 2 -3 3 0 3 -2 2 -3 3 0 2 -3 3 -2 3 0 2 -3 3 -2 2 -3 3 -2 3 -2 2 -3 3 -2 2 -4 3 -4 3 -3 2 -5 3 -2 2 -4 3 -7 3 -4 2 -8 3 -10 3 -21 0 0" stroke="#D2D2D2" stroke-width="20" fill="#D2D2D2" />
    <path d="M 22921 25285 l -2 -26 -2 -10 -2 -8 -2 -5 -2 -4 -2 -6 -2 -2 -2 -5 -2 -3 -2 -5 -2 -2 -2 -3 -2 -2 -2 -3 -1 -2 -3 -2 -2 -3 -2 -3 -2 0 -2 -2 -2 -3 -2 0 -2 -2 -2 -2 -1 0 -2 -3 -2 0 -2 -2 -2 0 -2 -3 -2 0 -2 0 -2 -2 -2 0 -2 0 -2 -2 -2 0 -2 0 -2 0 -2 -3 -2 0 -2 0 -2 0 -2 0 -2 0 -2 0 -2 0 -2 0 -2 0 -4 0 -2 0 -2 0 -1 0 -2 0 -2 0 -2 0 -2 0 -2 0 -2 0 -2 3 -2 0 -2 0 -2 0 -2 2 -2 0 -2 0 -2 2 -2 0 -2 0 -3 3 -1 0 -2 2 -2 0 -1 3 -2 0 -2 2 -3 2 -1 0 -2 3 -2 2 -2 0 -2 3 -2 3 -3 2 -2 2 -2 3 -2 2 -1 3 -2 2 -2 5 -3 3 -1 5 -2 2 -2 6 -2 4 -2 5 -2 8 -2 10 -1 26 1 21 2 10 2 8 2 4 2 7 2 4 2 2 1 5 3 3 2 4 2 4 1 2 2 3 2 2 2 2 3 3 2 2 2 3 2 0 2 2 2 3 1 0 3 3 2 2 2 0 1 3 2 0 2 2 1 0 3 2 2 0 2 0 2 2 2 0 2 0 2 3 2 0 2 0 2 0 2 3 2 0 2 0 2 0 2 0 2 0 2 0 1 0 2 0 2 0 4 0 2 0 2 0 2 0 2 0 2 0 2 0 2 0 2 0 2 0 2 -3 2 0 2 0 2 0 2 -3 2 0 2 0 2 -2 2 0 2 0 2 -2 2 0 2 -2 2 0 2 -3 1 0 2 -2 2 -3 2 0 2 -3 2 -2 2 0 2 -3 2 -2 3 -3 1 -2 2 -2 2 -3 2 -2 2 -4 2 -4 2 -3 2 -5 2 -2 2 -4 2 -7 2 -4 2 -8 2 -10 2 -21 0 0" stroke="#DEDEDE" stroke-width="20" fill="#DEDEDE" />
    <path d="M 22887 25284 l -2 -26 -1 -10 -1 -7 -1 -5 -2 -5 -1 -6 -1 -2 -1 -5 -2 -2 -1 -6 -2 -2 -1 -2 -1 -3 -1 -2 -2 -3 -1 -2 -1 -2 -1 -3 -2 0 -1 -3 -2 -2 -1 0 -1 -3 -1 -2 -1 0 -1 -3 -2 0 -1 -2 -1 0 -2 -2 -1 0 -1 0 -2 -3 -1 0 -2 0 -1 -2 -1 0 -1 0 -2 0 -1 -2 -1 0 -1 0 -2 0 -1 0 -1 0 -1 0 -2 0 -1 0 -1 0 -3 0 -1 0 -2 0 -1 0 -1 0 -1 0 -2 0 -1 0 -1 0 -1 0 -2 2 -1 0 -2 0 -1 0 -1 2 -1 0 -2 0 -1 3 -1 0 -1 0 -2 2 -1 0 -2 2 -1 0 -1 3 -1 0 -1 2 -1 3 -2 0 -1 2 -1 3 -1 0 -2 3 -2 2 -1 2 -2 3 -1 2 -1 3 -1 2 -1 2 -1 6 -1 2 -2 5 -1 2 -2 6 -1 5 -1 5 -1 7 -2 10 0 26 0 21 2 11 1 7 1 5 1 5 2 5 1 3 2 4 1 3 1 5 1 3 1 2 1 3 1 2 2 3 1 2 2 2 2 3 1 0 1 2 1 3 2 0 1 2 1 3 1 0 1 3 1 0 2 2 1 0 2 2 1 0 1 0 1 3 2 0 1 0 1 2 1 0 2 0 1 0 2 3 1 0 1 0 1 0 2 0 1 0 1 0 1 0 2 0 1 0 3 0 1 0 1 0 2 0 1 0 1 0 1 0 2 0 1 0 1 0 1 -3 2 0 1 0 1 0 1 -2 2 0 1 0 2 -3 1 0 1 0 2 -2 1 0 1 -2 2 0 1 -3 1 0 1 -3 1 -2 1 0 2 -3 1 -2 2 0 1 -3 1 -2 1 -2 2 -3 1 -2 1 -3 1 -2 2 -3 1 -5 2 -3 1 -4 1 -3 1 -5 2 -5 1 -5 1 -7 1 -11 2 -21 0 0" stroke="#F0F0F0" stroke-width="20" fill="#F0F0F0" />
    <path d="M 22854 25284 l -2 -26 0 -10 -1 -7 0 -5 -1 -5 -1 -6 -1 -2 0 -5 -1 -2 -1 -6 0 -2 -1 -2 -1 -3 0 -2 -1 -3 0 -2 -1 -2 -1 -3 0 0 -1 -3 -1 -2 0 0 -1 -3 0 -2 -1 -3 -1 0 -1 -2 0 0 -1 -2 -1 0 0 0 -1 -3 -1 0 0 0 -2 -2 0 0 -1 0 0 0 0 -2 -1 0 -1 0 0 0 -1 0 -1 0 0 0 -1 0 0 0 -2 0 -1 0 0 0 -1 0 -1 0 0 0 -1 0 -1 0 0 0 -1 0 0 0 -1 2 -1 0 0 0 -1 0 -1 2 0 0 -1 0 0 3 -1 0 -1 0 -1 2 0 0 -1 2 -1 0 0 3 -1 0 -1 2 0 3 -1 0 0 2 -1 3 -1 0 0 3 -1 2 -1 2 0 3 -1 2 0 3 -1 2 -1 2 -1 6 0 2 -1 5 -1 2 0 6 -1 5 -1 5 0 7 -1 10 0 26 0 21 1 11 0 7 1 5 1 5 0 5 1 3 1 4 0 3 1 5 1 3 1 2 0 3 1 2 0 3 1 2 1 2 0 3 1 0 1 2 0 3 1 0 0 2 1 3 1 0 0 3 1 0 1 2 0 0 1 2 1 0 1 0 0 3 1 0 0 0 1 2 1 0 0 0 1 0 1 3 0 0 1 0 0 0 1 0 1 0 0 0 1 0 1 0 0 0 1 0 2 0 0 0 1 0 0 0 1 0 1 0 0 0 1 0 1 0 0 -3 0 0 1 0 0 0 2 -2 0 0 1 0 1 -3 0 0 1 0 1 -2 0 0 1 -2 1 0 1 -3 0 -3 1 -2 0 0 1 -3 1 -2 0 0 1 -3 1 -2 0 -2 1 -3 0 -2 1 -3 1 -2 0 -3 1 -5 1 -3 0 -4 1 -3 1 -5 1 -5 0 -5 1 -7 0 -11 2 -21 0 0" stroke="#FFFFFF" stroke-width="20" fill="#FFFFFF" />
    <path d="M 22690 24057 l 33 0 0 1223 -33 0 0 -1223 0 0" stroke="#D2D2D2" stroke-width="20" fill="#D2D2D2" />
    <path d="M 22756 24058 l 34 0 0 1224 -34 0 0 -1224 0 0" stroke="#F0F0F0" stroke-width="20" fill="#F0F0F0" />
    <path d="M 22723 24058 l 34 0 0 1224 -34 0 0 -1224 0 0" stroke="#DEDEDE" stroke-width="20" fill="#DEDEDE" />
    <path d="M 22788 24058 l 35 0 0 1224 -35 0 0 -1224 0 0" stroke="#FFFFFF" stroke-width="20" fill="#FFFFFF" />
    <path d="M 22498 24058 l 32 0 0 1224 -32 0 0 -1224 0 0" stroke="#000000" stroke-width="20" fill="#000000" />
    <path d="M 22529 24058 l 33 0 0 1224 -33 0 0 -1224 0 0" stroke="#3C3C3C" stroke-width="20" fill="#3C3C3C" />
    <path d="M 22561 24058 l 34 0 0 1224 -34 0 0 -1224 0 0" stroke="#5A5A5A" stroke-width="20" fill="#5A5A5A" />
    <path d="M 22594 24058 l 33 0 0 1224 -33 0 0 -1224 0 0" stroke="#808080" stroke-width="20" fill="#808080" />
    <path d="M 22626 24058 l 33 0 0 1224 -33 0 0 -1224 0 0" stroke="#969696" stroke-width="20" fill="#969696" />
    <path d="M 22658 24058 l 34 0 0 1224 -34 0 0 -1224 0 0" stroke="#C0C0C0" stroke-width="20" fill="#C0C0C0" />
    <path d="M 22954 24058 l -34 0 0 1224 34 0 0 -1224 0 0" stroke="#D2D2D2" stroke-width="20" fill="#D2D2D2" />
    <path d="M 22887 24059 l -33 0 0 1225 33 0 0 -1225 0 0" stroke="#F0F0F0" stroke-width="20" fill="#F0F0F0" />
    <path d="M 22920 24059 l -34 0 0 1225 34 0 0 -1225 0 0" stroke="#DEDEDE" stroke-width="20" fill="#DEDEDE" />
    <path d="M 22855 24059 l -34 0 0 1225 34 0 0 -1225 0 0" stroke="#FFFFFF" stroke-width="20" fill="#FFFFFF" />
    <path d="M 23148 24059 l -34 0 0 1225 34 0 0 -1225 0 0" stroke="#000000" stroke-width="20" fill="#000000" />
    <path d="M 23115 24059 l -33 0 0 1225 33 0 0 -1225 0 0" stroke="#3C3C3C" stroke-width="20" fill="#3C3C3C" />
    <path d="M 23083 24059 l -34 0 0 1225 34 0 0 -1225 0 0" stroke="#5A5A5A" stroke-width="20" fill="#5A5A5A" />
    <path d="M 23050 24059 l -34 0 0 1225 34 0 0 -1225 0 0" stroke="#808080" stroke-width="20" fill="#808080" />
    <path d="M 23018 24059 l -34 0 0 1225 34 0 0 -1225 0 0" stroke="#969696" stroke-width="20" fill="#969696" />
    <path d="M 22985 24059 l -34 0 0 1225 34 0 0 -1225 0 0" stroke="#C0C0C0" stroke-width="20" fill="#C0C0C0" />
  </g>
  <rect x="22480" y="24200" width="660" height="960" stroke="#000000" stroke-width="20" fill="none" />
  <path d="M 22480 24700 l 340 0" stroke="#000000" stroke-width="20" fill="none" />
  <path d="M 22760 24460 l 340 0" stroke="#000000" stroke-width="20" fill="none" />
  <path d="M 22760 24920 l 340 0" stroke="#000000" stroke-width="20" fill="none" />
  <path id="LINE929" d="M 22800 25460 l 0 900" stroke="#000000" stroke-width="80" fill="none" />
  <path id="LINE930" d="M 19100 18120 l 0 8280" stroke="#000000" stroke-width="40" fill="none" />
  <g id="TEXT141">
    <rect x="1760" y="18040" width="1600" height="600" stroke-width="0" fill="none" id="TEXT141_pbTextBoundingRectEl" />
    <text fill="#000000" font-family="Helvetica" font-size="560" text-anchor="middle" x="2560" y="18620" id="TEXT141_pbTextEl">生产水</text>
  </g>
  <g id="TEXT142">
    <rect x="1760" y="19380" width="1600" height="600" stroke-width="0" fill="none" id="TEXT142_pbTextBoundingRectEl" />
    <text fill="#000000" font-family="Helvetica" font-size="560" text-anchor="middle" x="2560" y="19960" id="TEXT142_pbTextEl">循环水</text>
  </g>
  <g id="TEXT143">
    <rect x="1760" y="20900" width="1600" height="600" stroke-width="0" fill="none" id="TEXT143_pbTextBoundingRectEl" />
    <text fill="#000000" font-family="Helvetica" font-size="560" text-anchor="middle" x="2560" y="21480" id="TEXT143_pbTextEl">循环水</text>
  </g>
  <path id="LINE931" d="M 54320 17860 l 0 -11660" stroke="#80FFFF" stroke-width="40" fill="none" />
  <rect x="53680" y="8260" width="1340" height="2060" stroke="#000000" stroke-width="20" fill="#C0C0C0" />
  <path d="M 53680 9320 l 640 0" stroke="#000000" stroke-width="20" fill="none" />
  <path d="M 54200 8820 l 700 0" stroke="#000000" stroke-width="20" fill="none" />
  <path d="M 54200 9820 l 700 0" stroke="#000000" stroke-width="20" fill="none" />
  <g id="TEXT144">
    <rect x="55880" y="11780" width="3960" height="600" stroke-width="0" fill="none" id="TEXT144_pbTextBoundingRectEl" />
    <text fill="#000000" font-family="Helvetica" font-size="560" text-anchor="middle" x="57860" y="12360" id="TEXT144_pbTextEl">590-UVT1002B</text>
  </g>
  <g id="TEXT145">
    <rect x="56740" y="19640" width="3720" height="600" stroke-width="0" fill="none" id="TEXT145_pbTextBoundingRectEl" />
    <text fill="#000000" font-family="Helvetica" font-size="560" text-anchor="middle" x="58600" y="20220" id="TEXT145_pbTextEl">590-PI1004B</text>
  </g>
  <g id="TEXT146">
    <rect x="55240" y="8940" width="3720" height="600" stroke-width="0" fill="none" id="TEXT146_pbTextBoundingRectEl" />
    <text fill="#000000" font-family="Helvetica" font-size="560" text-anchor="middle" x="57100" y="9520" id="TEXT146_pbTextEl">5900-SIL-001B</text>
  </g>
  <g id="TEXT148">
    <rect x="34300" y="28400" width="1780" height="600" stroke-width="0" fill="none" id="TEXT148_pbTextBoundingRectEl" />
    <text fill="#000000" font-family="Helvetica" font-size="560" text-anchor="middle" x="35190" y="28980" id="TEXT148_pbTextEl">辅油泵</text>
  </g>
  <g id="TEXT149">
    <rect x="29900" y="28400" width="1780" height="600" stroke-width="0" fill="none" id="TEXT149_pbTextBoundingRectEl" />
    <text fill="#000000" font-family="Helvetica" font-size="560" text-anchor="middle" x="30790" y="28980" id="TEXT149_pbTextEl">轴头泵</text>
  </g>
  <g id="TEXT150">
    <rect x="8360" y="27020" width="4940" height="600" stroke-width="0" fill="none" id="TEXT150_pbTextBoundingRectEl" />
    <text fill="#000000" font-family="Helvetica" font-size="560" text-anchor="middle" x="10830" y="27600" id="TEXT150_pbTextEl">2#空压机紧急停机</text>
  </g>
  <g id="TEXT151">
    <rect x="380" y="3740" width="1600" height="600" stroke-width="0" fill="none" id="TEXT151_pbTextBoundingRectEl" />
    <text fill="#000000" font-family="Helvetica" font-size="560" text-anchor="middle" x="1180" y="4320" id="TEXT151_pbTextEl">密封气</text>
  </g>
  <g id="TEXT152">
    <rect x="380" y="5260" width="1600" height="600" stroke-width="0" fill="none" id="TEXT152_pbTextBoundingRectEl" />
    <text fill="#000000" font-family="Helvetica" font-size="560" text-anchor="middle" x="1180" y="5840" id="TEXT152_pbTextEl">吹扫气</text>
  </g>
  <g id="TEXT153">
    <rect x="2660" y="7800" width="3720" height="600" stroke-width="0" fill="none" id="TEXT153_pbTextBoundingRectEl" />
    <text fill="#000000" font-family="Helvetica" font-size="560" text-anchor="middle" x="4520" y="8380" id="TEXT153_pbTextEl">5900-AF-001B</text>
  </g>
  <g id="TEXT154">
    <rect x="4080" y="10280" width="3720" height="600" stroke-width="0" fill="none" id="TEXT154_pbTextBoundingRectEl" />
    <text fill="#000000" font-family="Helvetica" font-size="560" text-anchor="middle" x="5940" y="10860" id="TEXT154_pbTextEl">590-TI1003A</text>
  </g>
  <g id="TEXT155">
    <rect x="240" y="12760" width="3720" height="600" stroke-width="0" fill="none" id="TEXT155_pbTextBoundingRectEl" />
    <text fill="#000000" font-family="Helvetica" font-size="560" text-anchor="middle" x="2100" y="13340" id="TEXT155_pbTextEl">590-EI1001B</text>
  </g>
  <g id="TEXT156">
    <rect x="2740" y="15580" width="3720" height="600" stroke-width="0" fill="none" id="TEXT156_pbTextBoundingRectEl" />
    <text fill="#000000" font-family="Helvetica" font-size="560" text-anchor="middle" x="4600" y="16160" id="TEXT156_pbTextEl">590-TI1001B</text>
  </g>
  <g id="TEXT157">
    <rect x="7040" y="15540" width="3720" height="600" stroke-width="0" fill="none" id="TEXT157_pbTextBoundingRectEl" />
    <text fill="#000000" font-family="Helvetica" font-size="560" text-anchor="middle" x="8900" y="16120" id="TEXT157_pbTextEl">590-TI1002B</text>
  </g>
  <path id="LINE945" d="M 5860 11440 l 0 860" stroke="#000000" stroke-width="20" stroke-dasharray="60,60" fill="none" />
  <path id="LINE946" d="M 4580 13500 l 0 2180" stroke="#000000" stroke-width="20" stroke-dasharray="60,60" fill="none" />
  <path id="LINE947" d="M 8400 13520 l 0 2220" stroke="#000000" stroke-width="20" stroke-dasharray="60,60" fill="none" />
  <path id="LINE948" d="M 45280 12700 l 4960 0" stroke="#000000" stroke-width="20" stroke-dasharray="60,60" fill="none" />
  <path id="LINE949" d="M 45220 15760 l 4940 0" stroke="#000000" stroke-width="20" stroke-dasharray="60,60" fill="none" />
  <path id="LINE950" d="M 54920 12380 l 1600 0" stroke="#000000" stroke-width="20" stroke-dasharray="60,60" fill="none" />
  <path id="LINE951" d="M 58600 18000 l 0 1740" stroke="#000000" stroke-width="20" stroke-dasharray="60,60" fill="none" />
  <g name="DownArrow">
    <path d="M 54546 6194 l -532 0 266 -436 266 436 0 0" stroke="#000000" stroke-width="20" fill="#80FFFF" />
  </g>
  <g id="TEXT158">
    <rect x="26720" y="860" width="6980" height="1820" stroke-width="0" fill="none" id="TEXT158_pbTextBoundingRectEl" />
    <text fill="#000000" font-family="Helvetica" font-size="800" text-anchor="middle" x="30210" y="2170" id="TEXT158_pbTextEl">空压机B</text>
  </g>
  <path id="POLYGON951" d="M 60420 17960 l 0 -14620" stroke="#80FFFF" stroke-width="40" fill="none" />
  <path d="M 380 3260 l 1160 0" stroke="#80FFFF" stroke-width="40" fill="#FF8000" />
  <path d="M 380 3460 l 1160 0" stroke="#80FFFF" stroke-width="40" fill="#FF8000" />
  <path d="M 1540 3120 l 0 140" stroke="#80FFFF" stroke-width="40" fill="#FF8000" />
  <path d="M 1540 3460 l 0 200" stroke="#80FFFF" stroke-width="40" fill="#FF8000" />
  <path d="M 380 3260 l 0 200" stroke="#80FFFF" stroke-width="40" fill="#FF8000" />
  <path d="M 1580 3120 l 520 220" stroke="#80FFFF" stroke-width="40" fill="#FF8000" />
  <path d="M 1580 3660 l 520 -320" stroke="#80FFFF" stroke-width="40" fill="#FF8000" />
  <g id="TEXT159">
    <rect x="440" y="2520" width="3360" height="600" stroke-width="0" fill="none" id="TEXT159_pbTextBoundingRectEl" />
    <text fill="#000000" font-family="Helvetica" font-size="560" text-anchor="middle" x="2120" y="3100" id="TEXT159_pbTextEl">来自1#空压机</text>
  </g>
  <path id="POLYGON958" d="M 2180 3380 l 59100 0" stroke="#80FFFF" stroke-width="40" fill="none" />
  <path d="M 61420 3300 l 1160 0" stroke="#80FFFF" stroke-width="40" fill="#FF8000" />
  <path d="M 61420 3500 l 1160 0" stroke="#80FFFF" stroke-width="40" fill="#FF8000" />
  <path d="M 62580 3160 l 0 140" stroke="#80FFFF" stroke-width="40" fill="#FF8000" />
  <path d="M 62580 3500 l 0 200" stroke="#80FFFF" stroke-width="40" fill="#FF8000" />
  <path d="M 61420 3300 l 0 200" stroke="#80FFFF" stroke-width="40" fill="#FF8000" />
  <path d="M 62620 3160 l 540 220" stroke="#80FFFF" stroke-width="40" fill="#FF8000" />
  <path d="M 62620 3700 l 540 -320" stroke="#80FFFF" stroke-width="40" fill="#FF8000" />
  <g id="TEXT160">
    <rect x="58780" y="2460" width="4400" height="600" stroke-width="0" fill="none" id="TEXT160_pbTextBoundingRectEl" />
    <text fill="#000000" font-family="Helvetica" font-size="560" text-anchor="middle" x="60980" y="3040" id="TEXT160_pbTextEl">装置空气缓冲罐</text>
  </g>
  <g id="DATAPOINT313" PB:IsMultiState="False" PBD:PtTagName="\\RTDBB\590_PDT_AM001B" PB:Type="7" PB:NumberFormat="0.00">
    <rect x="6380" y="6060" width="1160" height="420" stroke-width="0" fill="none" id="DATAPOINT313_pbTextBoundingRectEl" />
    <text fill="#000000" font-family="Helvetica" font-size="560" text-anchor="middle" x="6960" y="6550" id="DATAPOINT313_pbTextEl" PBD:Property="VAL">#.##</text>
  </g>
  <g id="DATAPOINT314" PB:IsMultiState="False" PBD:PtTagName="\\RTDBB\590_EI1001B" PB:Type="7" PB:NumberFormat="0.00">
    <rect x="1820" y="13300" width="1160" height="660" stroke-width="0" fill="none" id="DATAPOINT314_pbTextBoundingRectEl" />
    <text fill="#000000" font-family="Helvetica" font-size="560" text-anchor="middle" x="2400" y="13910" id="DATAPOINT314_pbTextEl" PBD:Property="VAL">#.##</text>
  </g>
  <g id="DATAPOINT315" PB:IsMultiState="False" PBD:PtTagName="\\RTDBB\590_TI1003B" PB:Type="7" PB:NumberFormat="0.00">
    <rect x="5300" y="10960" width="1200" height="520" stroke-width="0" fill="none" id="DATAPOINT315_pbTextBoundingRectEl" />
    <text fill="#000000" font-family="Helvetica" font-size="560" text-anchor="middle" x="5900" y="11500" id="DATAPOINT315_pbTextEl" PBD:Property="VAL">#.##</text>
  </g>
  <g id="DATAPOINT316" PB:IsMultiState="False" PBD:PtTagName="\\RTDBB\590_TI1001B" PB:Type="7" PB:NumberFormat="0.00">
    <rect x="4160" y="16240" width="1160" height="600" stroke-width="0" fill="none" id="DATAPOINT316_pbTextBoundingRectEl" />
    <text fill="#000000" font-family="Helvetica" font-size="560" text-anchor="middle" x="4740" y="16820" id="DATAPOINT316_pbTextEl" PBD:Property="VAL">#.##</text>
  </g>
  <g id="DATAPOINT317" PB:IsMultiState="False" PBD:PtTagName="\\RTDBB\590_TI1002B" PB:Type="7" PB:NumberFormat="0.00">
    <rect x="8420" y="16180" width="1160" height="560" stroke-width="0" fill="none" id="DATAPOINT317_pbTextBoundingRectEl" />
    <text fill="#000000" font-family="Helvetica" font-size="560" text-anchor="middle" x="9000" y="16740" id="DATAPOINT317_pbTextEl" PBD:Property="VAL">#.##</text>
  </g>
  <g id="DATAPOINT318" PB:IsMultiState="False" PBD:PtTagName="\\RTDBB\590_IGV1001B" PB:Type="7" PB:NumberFormat="0.00">
    <rect x="14400" y="8220" width="1260" height="600" stroke-width="0" fill="none" id="DATAPOINT318_pbTextBoundingRectEl" />
    <text fill="#000000" font-family="Helvetica" font-size="560" text-anchor="middle" x="15030" y="8800" id="DATAPOINT318_pbTextEl" PBD:Property="VAL">#.##</text>
  </g>
  <g id="DATAPOINT319" PB:IsMultiState="False" PBD:PtTagName="\\RTDBB\590_VI1001B" PB:Type="7" PB:NumberFormat="0.00">
    <rect x="16700" y="11920" width="1300" height="560" stroke-width="0" fill="none" id="DATAPOINT319_pbTextBoundingRectEl" />
    <text fill="#000000" font-family="Helvetica" font-size="560" text-anchor="middle" x="17350" y="12480" id="DATAPOINT319_pbTextEl" PBD:Property="VAL">#.##</text>
  </g>
  <g id="DATAPOINT320" PB:IsMultiState="False" PBD:PtTagName="\\RTDBB\590_VI1002B" PB:Type="7" PB:NumberFormat="0.00">
    <rect x="28640" y="11860" width="1300" height="520" stroke-width="0" fill="none" id="DATAPOINT320_pbTextBoundingRectEl" />
    <text fill="#000000" font-family="Helvetica" font-size="560" text-anchor="middle" x="29290" y="12400" id="DATAPOINT320_pbTextEl" PBD:Property="VAL">#.##</text>
  </g>
  <g id="DATAPOINT321" PB:IsMultiState="False" PBD:PtTagName="\\RTDBB\590_TI1007B" PB:Type="7" PB:NumberFormat="0.00">
    <rect x="42700" y="12700" width="1160" height="420" stroke-width="0" fill="none" id="DATAPOINT321_pbTextBoundingRectEl" />
    <text fill="#000000" font-family="Helvetica" font-size="560" text-anchor="middle" x="43280" y="13190" id="DATAPOINT321_pbTextEl" PBD:Property="VAL">#.##</text>
  </g>
  <g id="DATAPOINT322" PB:IsMultiState="False" PBD:PtTagName="\\RTDBB\590_PI1005B" PB:Type="7" PB:NumberFormat="0.00">
    <rect x="42620" y="15720" width="1160" height="420" stroke-width="0" fill="none" id="DATAPOINT322_pbTextBoundingRectEl" />
    <text fill="#000000" font-family="Helvetica" font-size="560" text-anchor="middle" x="43200" y="16210" id="DATAPOINT322_pbTextEl" PBD:Property="VAL">#.##</text>
  </g>
  <g id="DATAPOINT323" PB:IsMultiState="False" PBD:PtTagName="\\RTDBB\590_PV1002B" PB:Type="7" PB:NumberFormat="0.00">
    <rect x="57480" y="12400" width="1160" height="600" stroke-width="0" fill="none" id="DATAPOINT323_pbTextBoundingRectEl" />
    <text fill="#000000" font-family="Helvetica" font-size="560" text-anchor="middle" x="58060" y="12980" id="DATAPOINT323_pbTextEl" PBD:Property="VAL">#.##</text>
  </g>
  <g id="DATAPOINT324" PB:IsMultiState="False" PBD:PtTagName="\\RTDBB\590_PI1004B" PB:Type="7" PB:NumberFormat="0.00">
    <rect x="58100" y="20300" width="1160" height="420" stroke-width="0" fill="none" id="DATAPOINT324_pbTextBoundingRectEl" />
    <text fill="#000000" font-family="Helvetica" font-size="560" text-anchor="middle" x="58680" y="20790" id="DATAPOINT324_pbTextEl" PBD:Property="VAL">#.##</text>
  </g>
  <g id="DATAPOINT325" PB:IsMultiState="False" PBD:PtTagName="\\RTDBB\590_TI1006B" PB:Type="7" PB:NumberFormat="0.00">
    <rect x="42740" y="19440" width="1160" height="420" stroke-width="0" fill="none" id="DATAPOINT325_pbTextBoundingRectEl" />
    <text fill="#000000" font-family="Helvetica" font-size="560" text-anchor="middle" x="43320" y="19930" id="DATAPOINT325_pbTextEl" PBD:Property="VAL">#.##</text>
  </g>
  <g id="DATAPOINT326" PB:IsMultiState="False" PBD:PtTagName="\\RTDBB\590_PI1003B" PB:Type="7" PB:NumberFormat="0.00">
    <rect x="36800" y="19400" width="1160" height="420" stroke-width="0" fill="none" id="DATAPOINT326_pbTextBoundingRectEl" />
    <text fill="#000000" font-family="Helvetica" font-size="560" text-anchor="middle" x="37380" y="19890" id="DATAPOINT326_pbTextEl" PBD:Property="VAL">#.##</text>
  </g>
  <g id="DATAPOINT327" PB:IsMultiState="False" PBD:PtTagName="\\RTDBB\590_TI1005B" PB:Type="7" PB:NumberFormat="0.00">
    <rect x="31280" y="19420" width="1160" height="420" stroke-width="0" fill="none" id="DATAPOINT327_pbTextBoundingRectEl" />
    <text fill="#000000" font-family="Helvetica" font-size="560" text-anchor="middle" x="31860" y="19910" id="DATAPOINT327_pbTextEl" PBD:Property="VAL">#.##</text>
  </g>
  <g id="DATAPOINT328" PB:IsMultiState="False" PBD:PtTagName="\\RTDBB\590_PI1002A" PB:Type="7" PB:NumberFormat="0.00">
    <rect x="25440" y="19520" width="1160" height="420" stroke-width="0" fill="none" id="DATAPOINT328_pbTextBoundingRectEl" />
    <text fill="#000000" font-family="Helvetica" font-size="560" text-anchor="middle" x="26020" y="20010" id="DATAPOINT328_pbTextEl" PBD:Property="VAL">#.##</text>
  </g>
  <g id="DATAPOINT329" PB:IsMultiState="False" PBD:PtTagName="\\RTDBB\590_TI1004B" PB:Type="7" PB:NumberFormat="0.00">
    <rect x="20280" y="19420" width="1160" height="660" stroke-width="0" fill="none" id="DATAPOINT329_pbTextBoundingRectEl" />
    <text fill="#000000" font-family="Helvetica" font-size="560" text-anchor="middle" x="20860" y="20030" id="DATAPOINT329_pbTextEl" PBD:Property="VAL">#.##</text>
  </g>
  <g id="DATAPOINT330" PB:IsMultiState="False" PBD:PtTagName="\\RTDBB\590_PI1001B" PB:Type="7" PB:NumberFormat="0.00">
    <rect x="14520" y="19400" width="1160" height="420" stroke-width="0" fill="none" id="DATAPOINT330_pbTextBoundingRectEl" />
    <text fill="#000000" font-family="Helvetica" font-size="560" text-anchor="middle" x="15100" y="19890" id="DATAPOINT330_pbTextEl" PBD:Property="VAL">#.##</text>
  </g>
  <g name="Valve1">
    <path d="M 54690 12338 l 0 -310 0 0 26 2 26 6 26 5 26 10 22 13 23 16 20 19 19 21 16 21 15 25 13 25 13 27 10 28 5 29 4 31 2 32 0 0 -2 33 -4 30 -5 29 -10 29 -13 26 -13 27 -15 23 -16 23 -19 21 -20 16 -23 17 -22 11 -26 14 -26 5 -26 6 -26 2 0 -312" stroke="#000000" stroke-width="20" fill="#FF0000" />
    <path d="M 54212 11961 l 333 0 -333 760 333 0 -333 -760" stroke="#000000" stroke-width="20" fill="#FF0000" />
    <path d="M 54379 12338 l 19 44 290 0 0 -84 -290 0 -19 44 0 -4" stroke="#000000" stroke-width="20" fill="#FF0000" />
  </g>
  <path id="ELLIPSE2" d="M 9864 4180 l -44 -13 -28 -14 -22 -13 -17 -13 -16 -14 -13 -13 -11 -13 -10 -14 -9 -13 -8 -13 -7 -14 -5 -13 -5 -13 -5 -14 -3 -13 -3 -13 -2 -14 -1 -13 -1 -13 0 -14 1 -13 1 -13 2 -14 3 -13 3 -13 5 -14 5 -13 5 -13 7 -14 8 -13 9 -13 10 -14 11 -13 13 -13 16 -14 17 -13 22 -13 28 -14 44 -13 112 0 44 13 28 14 22 13 17 13 16 14 13 13 11 13 10 14 9 13 8 13 7 14 5 13 5 13 5 14 3 13 3 13 2 14 1 13 1 13 0 14 -1 13 -1 13 -2 14 -3 13 -3 13 -5 14 -5 13 -5 13 -7 14 -8 13 -9 13 -10 14 -11 13 -13 13 -16 14 -17 13 -22 13 -28 14 -44 13 -112 0" stroke="#FF0000" stroke-width="20" fill="#FF0000" />
  <path id="ELLIPSE3" d="M 13724 27480 l -44 -13 -28 -14 -22 -13 -17 -13 -16 -14 -13 -13 -11 -13 -10 -14 -9 -13 -8 -13 -7 -14 -5 -13 -5 -13 -5 -14 -3 -13 -3 -13 -2 -14 -1 -13 -1 -13 0 -14 1 -13 1 -13 2 -14 3 -13 3 -13 5 -14 5 -13 5 -13 7 -14 8 -13 9 -13 10 -14 11 -13 13 -13 16 -14 17 -13 22 -13 28 -14 44 -13 112 0 44 13 28 14 22 13 17 13 16 14 13 13 11 13 10 14 9 13 8 13 7 14 5 13 5 13 5 14 3 13 3 13 2 14 1 13 1 13 0 14 -1 13 -1 13 -2 14 -3 13 -3 13 -5 14 -5 13 -5 13 -7 14 -8 13 -9 13 -10 14 -11 13 -13 13 -16 14 -17 13 -22 13 -28 14 -44 13 -112 0" stroke="#FF0000" stroke-width="20" fill="#FF0000" />
  <path id="ELLIPSE6" d="M 13724 29000 l -44 -13 -28 -14 -22 -13 -17 -13 -16 -14 -13 -13 -11 -13 -10 -14 -9 -13 -8 -13 -7 -14 -5 -13 -5 -13 -5 -14 -3 -13 -3 -13 -2 -14 -1 -13 -1 -13 0 -14 1 -13 1 -13 2 -14 3 -13 3 -13 5 -14 5 -13 5 -13 7 -14 8 -13 9 -13 10 -14 11 -13 13 -13 16 -14 17 -13 22 -13 28 -14 44 -13 112 0 44 13 28 14 22 13 17 13 16 14 13 13 11 13 10 14 9 13 8 13 7 14 5 13 5 13 5 14 3 13 3 13 2 14 1 13 1 13 0 14 -1 13 -1 13 -2 14 -3 13 -3 13 -5 14 -5 13 -5 13 -7 14 -8 13 -9 13 -10 14 -11 13 -13 13 -16 14 -17 13 -22 13 -28 14 -44 13 -112 0" stroke="#FF0000" stroke-width="20" fill="#FF0000" />
  <path id="ELLIPSE12" d="M 34020 29180 l -40 138 -40 75 -40 55 -40 45 -40 37 -40 31 -40 26 -40 23 -40 19 -40 16 -40 13 -40 10 -40 8 -40 6 -40 3 -40 1 0 0 -40 -1 -40 -3 -40 -6 -40 -8 -40 -10 -40 -13 -40 -16 -40 -19 -40 -23 -40 -26 -40 -31 -40 -37 -40 -45 -40 -55 -40 -75 -40 -138 0 -159 40 -138 40 -75 40 -55 40 -45 40 -37 40 -31 40 -26 40 -23 40 -19 40 -16 40 -13 40 -10 40 -8 40 -6 40 -3 40 -2 0 0 40 2 40 3 40 6 40 8 40 10 40 13 40 16 40 19 40 23 40 26 40 31 40 37 40 45 40 55 40 75 40 138 0 159" stroke="#FF0000" stroke-width="20" fill="#FF0000" />
  <path id="ELLIPSE13" d="M 22844 30980 l -44 -13 -28 -14 -22 -13 -17 -13 -16 -14 -13 -13 -11 -13 -10 -14 -9 -13 -8 -13 -7 -14 -5 -13 -5 -13 -5 -14 -3 -13 -3 -13 -2 -14 -1 -13 -1 -13 0 -14 1 -13 1 -13 2 -14 3 -13 3 -13 5 -14 5 -13 5 -13 7 -14 8 -13 9 -13 10 -14 11 -13 13 -13 16 -14 17 -13 22 -13 28 -14 44 -13 112 0 44 13 28 14 22 13 17 13 16 14 13 13 11 13 10 14 9 13 8 13 7 14 5 13 5 13 5 14 3 13 3 13 2 14 1 13 1 13 0 14 -1 13 -1 13 -2 14 -3 13 -3 13 -5 14 -5 13 -5 13 -7 14 -8 13 -9 13 -10 14 -11 13 -13 13 -16 14 -17 13 -22 13 -28 14 -44 13 -112 0" stroke="#FF0000" stroke-width="20" fill="#FF0000" />
  <g id="TEXT181">
    <rect x="7980" y="6000" width="1300" height="560" stroke-width="0" fill="none" id="TEXT181_pbTextBoundingRectEl" />
    <text fill="#000000" font-family="Helvetica" font-size="560" text-anchor="middle" x="8630" y="6560" id="TEXT181_pbTextEl">Pa</text>
  </g>
  <g id="TEXT182">
    <rect x="43980" y="15720" width="1300" height="560" stroke-width="0" fill="none" id="TEXT182_pbTextBoundingRectEl" />
    <text fill="#000000" font-family="Helvetica" font-size="560" text-anchor="middle" x="44630" y="16280" id="TEXT182_pbTextEl">KPa</text>
  </g>
  <g id="TEXT183">
    <rect x="59480" y="20220" width="1300" height="560" stroke-width="0" fill="none" id="TEXT183_pbTextBoundingRectEl" />
    <text fill="#000000" font-family="Helvetica" font-size="560" text-anchor="middle" x="60130" y="20780" id="TEXT183_pbTextEl">KPa</text>
  </g>
  <g id="TEXT184">
    <rect x="37940" y="19340" width="1300" height="560" stroke-width="0" fill="none" id="TEXT184_pbTextBoundingRectEl" />
    <text fill="#000000" font-family="Helvetica" font-size="560" text-anchor="middle" x="38590" y="19900" id="TEXT184_pbTextEl">KPa</text>
  </g>
  <g id="TEXT185">
    <rect x="26520" y="19380" width="1300" height="560" stroke-width="0" fill="none" id="TEXT185_pbTextBoundingRectEl" />
    <text fill="#000000" font-family="Helvetica" font-size="560" text-anchor="middle" x="27170" y="19940" id="TEXT185_pbTextEl">KPa</text>
  </g>
  <g id="TEXT186">
    <rect x="15780" y="19340" width="1300" height="560" stroke-width="0" fill="none" id="TEXT186_pbTextBoundingRectEl" />
    <text fill="#000000" font-family="Helvetica" font-size="560" text-anchor="middle" x="16430" y="19900" id="TEXT186_pbTextEl">KPa</text>
  </g>
  <g id="TEXT187">
    <rect x="6680" y="10860" width="660" height="680" stroke-width="0" fill="none" id="TEXT187_pbTextBoundingRectEl" />
    <text fill="#000000" font-family="Helvetica" font-size="560" text-anchor="middle" x="7010" y="11480" id="TEXT187_pbTextEl">℃</text>
  </g>
  <g id="TEXT188">
    <rect x="5520" y="16260" width="660" height="680" stroke-width="0" fill="none" id="TEXT188_pbTextBoundingRectEl" />
    <text fill="#000000" font-family="Helvetica" font-size="560" text-anchor="middle" x="5850" y="16880" id="TEXT188_pbTextEl">℃</text>
  </g>
  <g id="TEXT189">
    <rect x="9740" y="16260" width="660" height="680" stroke-width="0" fill="none" id="TEXT189_pbTextBoundingRectEl" />
    <text fill="#000000" font-family="Helvetica" font-size="560" text-anchor="middle" x="10070" y="16880" id="TEXT189_pbTextEl">℃</text>
  </g>
  <g id="TEXT190">
    <rect x="21580" y="19460" width="660" height="680" stroke-width="0" fill="none" id="TEXT190_pbTextBoundingRectEl" />
    <text fill="#000000" font-family="Helvetica" font-size="560" text-anchor="middle" x="21910" y="20080" id="TEXT190_pbTextEl">℃</text>
  </g>
  <g id="TEXT191">
    <rect x="32540" y="19420" width="660" height="680" stroke-width="0" fill="none" id="TEXT191_pbTextBoundingRectEl" />
    <text fill="#000000" font-family="Helvetica" font-size="560" text-anchor="middle" x="32870" y="20040" id="TEXT191_pbTextEl">℃</text>
  </g>
  <g id="TEXT192">
    <rect x="44020" y="19320" width="660" height="680" stroke-width="0" fill="none" id="TEXT192_pbTextBoundingRectEl" />
    <text fill="#000000" font-family="Helvetica" font-size="560" text-anchor="middle" x="44350" y="19940" id="TEXT192_pbTextEl">℃</text>
  </g>
  <g id="TEXT193">
    <rect x="44060" y="12540" width="660" height="680" stroke-width="0" fill="none" id="TEXT193_pbTextBoundingRectEl" />
    <text fill="#000000" font-family="Helvetica" font-size="560" text-anchor="middle" x="44390" y="13160" id="TEXT193_pbTextEl">℃</text>
  </g>
  <g id="TEXT194">
    <rect x="59000" y="12480" width="580" height="520" stroke-width="0" fill="none" id="TEXT194_pbTextBoundingRectEl" />
    <text fill="#000000" font-family="Helvetica" font-size="560" text-anchor="middle" x="59290" y="13020" id="TEXT194_pbTextEl">%</text>
  </g>
  <g id="TEXT195">
    <rect x="16100" y="8240" width="580" height="520" stroke-width="0" fill="none" id="TEXT195_pbTextBoundingRectEl" />
    <text fill="#000000" font-family="Helvetica" font-size="560" text-anchor="middle" x="16390" y="8780" id="TEXT195_pbTextEl">%</text>
  </g>
  <g id="TEXT196">
    <rect x="3140" y="13540" width="580" height="520" stroke-width="0" fill="none" id="TEXT196_pbTextBoundingRectEl" />
    <text fill="#000000" font-family="Helvetica" font-size="560" text-anchor="middle" x="3430" y="14080" id="TEXT196_pbTextEl">A</text>
  </g>
  <g id="TEXT197">
    <rect x="17860" y="11860" width="1880" height="600" stroke-width="0" fill="none" id="TEXT197_pbTextBoundingRectEl" />
    <text fill="#000000" font-family="Helvetica" font-size="560" text-anchor="middle" x="18800" y="12440" id="TEXT197_pbTextEl">μm</text>
  </g>
  <g id="TEXT198">
    <rect x="29740" y="11800" width="1880" height="600" stroke-width="0" fill="none" id="TEXT198_pbTextBoundingRectEl" />
    <text fill="#000000" font-family="Helvetica" font-size="560" text-anchor="middle" x="30680" y="12380" id="TEXT198_pbTextEl">μm</text>
  </g>
  <path id="LINE178" d="M 15400 18220 l 0 700" stroke="#000000" stroke-width="20" stroke-dasharray="60,60" fill="none" />
  <path id="LINE179" d="M 21040 18180 l 0 600" stroke="#000000" stroke-width="20" stroke-dasharray="60,60" fill="none" />
  <path id="LINE180" d="M 26660 18320 l 0 460" stroke="#000000" stroke-width="20" stroke-dasharray="60,60" fill="none" />
  <path id="LINE181" d="M 32060 18120 l 0 560" stroke="#000000" stroke-width="20" stroke-dasharray="60,60" fill="none" />
  <path id="LINE183" d="M 37940 18120 l 0 620" stroke="#000000" stroke-width="20" stroke-dasharray="60,60" fill="none" />
  <path id="LINE184" d="M 43900 18180 l 0 640" stroke="#000000" stroke-width="20" stroke-dasharray="60,60" fill="none" />
</svg>