<?xml version="1.0" encoding="UTF-8"?>
<svg height="100%" width="100%" viewBox="0 0 64000 32000" version="1.1" xmlns="http://www.w3.org/2000/svg" xmlns:xlink="http://www.w3.org/1999/xlink" xmlns:PB="urn:osisoft-com-pb" xmlns:PBI="urn:osisoft-com-interface" xmlns:PBD="urn:osisoft-com-data" style="background-color:#C0C0C0">
  <title>QLJ_81</title>
  <defs>
    <PBD:TagUses tag="\\RTDBB\81_1102_01_F02">
      <PBI:Symbol name="DATAPOINT407" PB:Type="7" />
    </PBD:TagUses>
    <PBD:TagUses tag="\\RTDBB\TT_81_1102_01_T01">
      <PBI:Symbol name="DATAPOINT408" PB:Type="7" />
    </PBD:TagUses>
    <PBD:TagUses tag="\\RTDBB\PT_81_1102_01_P01">
      <PBI:Symbol name="DATAPOINT409" PB:Type="7" />
    </PBD:TagUses>
    <PBD:TagUses tag="\\RTDBB\C_81_1102_01_T02">
      <PBI:Symbol name="DATAPOINT410" PB:Type="7" />
    </PBD:TagUses>
    <PBD:TagUses tag="\\RTDBB\C_81_1102_01_P02">
      <PBI:Symbol name="DATAPOINT411" PB:Type="7" />
    </PBD:TagUses>
    <PBD:TagUses tag="\\RTDBB\C_81_1102_20_P05">
      <PBI:Symbol name="DATAPOINT412" PB:Type="7" />
    </PBD:TagUses>
    <PBD:TagUses tag="\\RTDBB\C_81_1102_20_P06">
      <PBI:Symbol name="DATAPOINT413" PB:Type="7" />
    </PBD:TagUses>
    <PBD:TagUses tag="\\RTDBB\C_81_1102_75_P11">
      <PBI:Symbol name="DATAPOINT414" PB:Type="7" />
    </PBD:TagUses>
    <PBD:TagUses tag="\\RTDBB\C_81_1102_30_S01">
      <PBI:Symbol name="DATAPOINT415" PB:Type="7" />
    </PBD:TagUses>
    <PBD:TagUses tag="\\RTDBB\C_81_1102_30_S02">
      <PBI:Symbol name="DATAPOINT416" PB:Type="7" />
    </PBD:TagUses>
    <PBD:TagUses tag="\\RTDBB\C_81_1102_30_S03">
      <PBI:Symbol name="DATAPOINT417" PB:Type="7" />
    </PBD:TagUses>
    <PBD:TagUses tag="\\RTDBB\C_81_1102_19_P02">
      <PBI:Symbol name="DATAPOINT418" PB:Type="7" />
    </PBD:TagUses>
    <PBD:TagUses tag="\\RTDBB\C_81_1102_19_P03">
      <PBI:Symbol name="DATAPOINT419" PB:Type="7" />
    </PBD:TagUses>
    <PBD:TagUses tag="\\RTDBB\C_81_1102_19_P04">
      <PBI:Symbol name="DATAPOINT420" PB:Type="7" />
    </PBD:TagUses>
    <PBD:TagUses tag="\\RTDBB\C_81_1102_19_T04">
      <PBI:Symbol name="DATAPOINT421" PB:Type="7" />
    </PBD:TagUses>
    <PBD:TagUses tag="\\RTDBB\C_81_1102_19_T03">
      <PBI:Symbol name="DATAPOINT422" PB:Type="7" />
    </PBD:TagUses>
    <PBD:TagUses tag="\\RTDBB\C_81_1102_19_T02">
      <PBI:Symbol name="DATAPOINT423" PB:Type="7" />
    </PBD:TagUses>
    <PBD:TagUses tag="\\RTDBB\C_81_1102_75_Y01">
      <PBI:Symbol name="DATAPOINT32" PB:Type="7" />
    </PBD:TagUses>
  </defs>
  <path id="POLYGON32" d="M 3880 9600 l 18660 0" stroke="#FF0000" stroke-width="40" fill="none" />
  <path d="M 2220 9680 l 1120 0" stroke="#FF0000" stroke-width="40" fill="#FF8000" />
  <path d="M 2220 9440 l 1120 0" stroke="#FF0000" stroke-width="40" fill="#FF8000" />
  <path d="M 3340 9820 l 0 -140" stroke="#FF0000" stroke-width="40" fill="#FF8000" />
  <path d="M 3340 9440 l 0 -240" stroke="#FF0000" stroke-width="40" fill="#FF8000" />
  <path d="M 2220 9680 l 0 -240" stroke="#FF0000" stroke-width="40" fill="#FF8000" />
  <path d="M 3380 9820 l 500 -240" stroke="#FF0000" stroke-width="40" fill="#FF8000" />
  <path d="M 3380 9200 l 500 380" stroke="#FF0000" stroke-width="40" fill="#FF8000" />
  <g id="TEXT3">
    <rect x="420" y="8180" width="5000" height="960" stroke-width="0" fill="none" id="TEXT3_pbTextBoundingRectEl" />
    <text fill="#000000" font-family="Helvetica" font-size="560" text-anchor="middle" x="2920" y="8940" id="TEXT3_pbTextEl">高压蒸汽</text>
  </g>
  <path id="POLYGON45" d="M 5200 8520 l 0 1100" stroke="#000000" stroke-width="20" stroke-dasharray="60,60" fill="none" />
  <g id="TEXT4">
    <rect x="2120" y="7040" width="5420" height="960" stroke-width="0" fill="none" id="TEXT4_pbTextBoundingRectEl" />
    <text fill="#000000" font-family="Helvetica" font-size="560" text-anchor="middle" x="4830" y="7800" id="TEXT4_pbTextEl">81-1102.01F02</text>
  </g>
  <path id="POLYGON46" d="M 9320 9560 l 0 -1100" stroke="#000000" stroke-width="20" stroke-dasharray="60,60" fill="none" />
  <g id="TEXT5">
    <rect x="6820" y="7040" width="5000" height="960" stroke-width="0" fill="none" id="TEXT5_pbTextBoundingRectEl" />
    <text fill="#000000" font-family="Helvetica" font-size="560" text-anchor="middle" x="9320" y="7800" id="TEXT5_pbTextEl">81-1102.01.T01</text>
  </g>
  <path id="LINE46" d="M 13500 9460 l 0 -1100" stroke="#000000" stroke-width="20" stroke-dasharray="60,60" fill="none" />
  <g id="TEXT6">
    <rect x="11280" y="7040" width="4960" height="960" stroke-width="0" fill="none" id="TEXT6_pbTextBoundingRectEl" />
    <text fill="#000000" font-family="Helvetica" font-size="560" text-anchor="middle" x="13760" y="7800" id="TEXT6_pbTextEl">81-1102.01.P01</text>
  </g>
  <path id="LINE48" d="M 17240 9500 l 0 -1100" stroke="#000000" stroke-width="20" stroke-dasharray="60,60" fill="none" />
  <g id="TEXT13">
    <rect x="15820" y="7180" width="4320" height="700" stroke-width="0" fill="none" id="TEXT13_pbTextBoundingRectEl" />
    <text fill="#000000" font-family="Helvetica" font-size="560" text-anchor="middle" x="17980" y="7810" id="TEXT13_pbTextEl">81-1102.01.T02</text>
  </g>
  <g id="TEXT14">
    <rect x="20180" y="7180" width="4600" height="700" stroke-width="0" fill="none" id="TEXT14_pbTextBoundingRectEl" />
    <text fill="#000000" font-family="Helvetica" font-size="560" text-anchor="middle" x="22480" y="7810" id="TEXT14_pbTextEl">81-1102.01.P02</text>
  </g>
  <path id="LINE53" d="M 20600 9520 l 0 -1100" stroke="#000000" stroke-width="20" stroke-dasharray="60,60" fill="none" />
  <path d="M 22460 9260 l 420 300 -400 260 0 -560 -20 0" stroke="#FF0000" stroke-width="20" fill="#FF0000" />
  <path d="M 23360 9260 l -380 300 380 260 0 -560 0 0" stroke="#FF0000" stroke-width="20" fill="#FF0000" />
  <path id="POLYGON56" d="M 22920 9600 l 0 -960" stroke="#000000" stroke-width="20" fill="none" />
  <path d="M 22760 8220 l 500 -40" stroke="#000000" stroke-width="20" fill="none" />
  <path d="M 22760 8000 l 500 -100" stroke="#000000" stroke-width="20" fill="none" />
  <path d="M 22760 7820 l 500 80" stroke="#000000" stroke-width="20" fill="none" />
  <path d="M 22760 8040 l 500 100" stroke="#000000" stroke-width="20" fill="none" />
  <rect x="22740" y="7820" width="460" height="1260" stroke="#000000" stroke-width="20" fill="none" id="RECTANGLE26" />
  <path d="M 22740 8640 l 500 -20" stroke="#000000" stroke-width="20" fill="none" />
  <path d="M 22740 8400 l 500 -100" stroke="#000000" stroke-width="20" fill="none" />
  <path d="M 22740 8240 l 500 60" stroke="#000000" stroke-width="20" fill="none" />
  <path d="M 22740 8460 l 500 80" stroke="#000000" stroke-width="20" fill="none" />
  <path id="POLYGON71" d="M 22920 12020 l 0 -2540" stroke="#000000" stroke-width="20" stroke-dasharray="60,60" fill="none" />
  <g id="TEXT15">
    <rect x="20280" y="10240" width="4240" height="640" stroke-width="0" fill="none" id="TEXT15_pbTextBoundingRectEl" />
    <text fill="#000000" font-family="Helvetica" font-size="560" text-anchor="middle" x="22400" y="10840" id="TEXT15_pbTextEl">81-1102.02.Y01</text>
  </g>
  <g id="TEXT16">
    <rect x="20560" y="12060" width="4100" height="700" stroke-width="0" fill="none" id="TEXT16_pbTextBoundingRectEl" />
    <text fill="#000000" font-family="Helvetica" font-size="560" text-anchor="middle" x="22610" y="12690" id="TEXT16_pbTextEl">81-1102.20.P05</text>
  </g>
  <g id="TEXT19">
    <rect x="20580" y="13260" width="4100" height="700" stroke-width="0" fill="none" id="TEXT19_pbTextBoundingRectEl" />
    <text fill="#000000" font-family="Helvetica" font-size="560" text-anchor="middle" x="22630" y="13890" id="TEXT19_pbTextEl">81-1102.20.P06</text>
  </g>
  <path d="M 25780 9260 l 400 300 -380 260 0 -560 -20 0" stroke="#FF0000" stroke-width="20" fill="#FF0000" />
  <path d="M 26660 9260 l -360 300 360 260 0 -560 0 0" stroke="#FF0000" stroke-width="20" fill="#FF0000" />
  <path id="POLYGON78" d="M 23360 9600 l 1720 0" stroke="#FF0000" stroke-width="40" fill="none" />
  <path id="POLYGON92" d="M 25920 9600 l 500 0" stroke="#FF0000" stroke-width="40" fill="none" />
  <g id="TEXT20">
    <rect x="24460" y="10220" width="3500" height="620" stroke-width="0" fill="none" id="TEXT20_pbTextBoundingRectEl" />
    <text fill="#000000" font-family="Helvetica" font-size="560" text-anchor="middle" x="26210" y="10810" id="TEXT20_pbTextEl">81-1102.03.Y01</text>
  </g>
  <path id="POLYGON93" d="M 25060 9600 l 980 0" stroke="#FF0000" stroke-width="40" fill="none" />
  <path d="M 26240 9580 l 0 -1180" stroke="#000000" stroke-width="20" fill="none" />
  <path d="M 26280 8420 l 400 500" stroke="#000000" stroke-width="20" fill="none" />
  <path d="M 26240 8460 l -440 500" stroke="#000000" stroke-width="20" fill="none" />
  <path d="M 26684 9004 l -16 -4 -9 -4 -7 -5 -6 -4 -5 -5 -5 -4 -3 -5 -4 -4 -3 -5 -2 -4 -2 -4 -2 -5 -2 -4 -1 -5 -1 -4 -1 -5 -1 -4 0 -5 0 -4 0 0 0 -4 0 -5 1 -4 1 -5 1 -4 1 -5 2 -4 2 -5 2 -4 2 -4 3 -5 4 -4 3 -5 5 -4 5 -5 6 -4 7 -5 9 -4 16 -4 32 0 16 4 9 4 7 5 6 4 5 5 5 4 3 5 4 4 3 5 2 4 2 4 2 5 2 4 1 5 1 4 1 5 1 4 0 5 0 4 0 0 0 4 0 5 -1 4 -1 5 -1 4 -1 5 -2 4 -2 5 -2 4 -2 4 -3 5 -4 4 -3 5 -5 4 -5 5 -6 4 -7 5 -9 4 -16 4 -32 0" stroke="#000000" stroke-width="20" fill="#FFFFFF" />
  <path d="M 25804 9004 l -16 -4 -9 -4 -7 -5 -6 -4 -5 -5 -5 -4 -3 -5 -4 -4 -3 -5 -2 -4 -2 -4 -2 -5 -2 -4 -1 -5 -1 -4 -1 -5 -1 -4 0 -5 0 -4 0 0 0 -4 0 -5 1 -4 1 -5 1 -4 1 -5 2 -4 2 -5 2 -4 2 -4 3 -5 4 -4 3 -5 5 -4 5 -5 6 -4 7 -5 9 -4 16 -4 32 0 16 4 9 4 7 5 6 4 5 5 5 4 3 5 4 4 3 5 2 4 2 4 2 5 2 4 1 5 1 4 1 5 1 4 0 5 0 4 0 0 0 4 0 5 -1 4 -1 5 -1 4 -1 5 -2 4 -2 5 -2 4 -2 4 -3 5 -4 4 -3 5 -5 4 -5 5 -6 4 -7 5 -9 4 -16 4 -32 0" stroke="#000000" stroke-width="20" fill="#FFFFFF" />
  <path id="POLYGON95" d="M 26680 9600 l 1160 0" stroke="#FF0000" stroke-width="40" fill="none" />
  <path id="POLYGON96" d="M 27880 9580 l 20 2340" stroke="#FF0000" stroke-width="40" fill="none" />
  <rect x="24860" y="12800" width="2000" height="620" stroke="#000000" stroke-width="20" fill="none" id="RECTANGLE33" />
  <path d="M 25340 12240 l 20 580" stroke="#000000" stroke-width="20" fill="none" />
  <path d="M 25520 12240 l 100 580" stroke="#000000" stroke-width="20" fill="none" />
  <path d="M 25680 12240 l -60 580" stroke="#000000" stroke-width="20" fill="none" />
  <path d="M 25480 12240 l -80 580" stroke="#000000" stroke-width="20" fill="none" />
  <path d="M 25860 12240 l 40 580" stroke="#000000" stroke-width="20" fill="none" />
  <path d="M 26060 12240 l 80 580" stroke="#000000" stroke-width="20" fill="none" />
  <path d="M 26200 12240 l -60 580" stroke="#000000" stroke-width="20" fill="none" />
  <path d="M 26020 12240 l -80 580" stroke="#000000" stroke-width="20" fill="none" />
  <path d="M 26340 12260 l 20 580" stroke="#000000" stroke-width="20" fill="none" />
  <path d="M 26500 12260 l 100 580" stroke="#000000" stroke-width="20" fill="none" />
  <path d="M 26660 12260 l -60 580" stroke="#000000" stroke-width="20" fill="none" />
  <path d="M 26460 12260 l -80 580" stroke="#000000" stroke-width="20" fill="none" />
  <path d="M 24900 12240 l 20 580" stroke="#000000" stroke-width="20" fill="none" />
  <path d="M 25060 12240 l 80 580" stroke="#000000" stroke-width="20" fill="none" />
  <path d="M 25200 12240 l -60 580" stroke="#000000" stroke-width="20" fill="none" />
  <path d="M 25020 12240 l -80 580" stroke="#000000" stroke-width="20" fill="none" />
  <path d="M 25240 14000 l -40 -580" stroke="#000000" stroke-width="20" fill="none" />
  <path d="M 25040 14000 l -80 -580" stroke="#000000" stroke-width="20" fill="none" />
  <path d="M 24920 14000 l 40 -580" stroke="#000000" stroke-width="20" fill="none" />
  <path d="M 25080 14000 l 80 -580" stroke="#000000" stroke-width="20" fill="none" />
  <path d="M 25340 14000 l 20 -580" stroke="#000000" stroke-width="20" fill="none" />
  <path d="M 25520 14000 l 100 -580" stroke="#000000" stroke-width="20" fill="none" />
  <path d="M 25680 14000 l -60 -580" stroke="#000000" stroke-width="20" fill="none" />
  <path d="M 25480 14000 l -80 -580" stroke="#000000" stroke-width="20" fill="none" />
  <path d="M 26180 14000 l -20 -580" stroke="#000000" stroke-width="20" fill="none" />
  <path d="M 25980 14000 l -80 -580" stroke="#000000" stroke-width="20" fill="none" />
  <path d="M 25820 14000 l 80 -580" stroke="#000000" stroke-width="20" fill="none" />
  <path d="M 26040 14000 l 80 -580" stroke="#000000" stroke-width="20" fill="none" />
  <path d="M 26680 14020 l -20 -580" stroke="#000000" stroke-width="20" fill="none" />
  <path d="M 26480 14020 l -80 -580" stroke="#000000" stroke-width="20" fill="none" />
  <path d="M 26360 14020 l 40 -580" stroke="#000000" stroke-width="20" fill="none" />
  <path d="M 26520 14020 l 100 -580" stroke="#000000" stroke-width="20" fill="none" />
  <path d="M 26920 11980 l 20 540" stroke="#000000" stroke-width="20" fill="none" />
  <path d="M 27100 11980 l 80 540" stroke="#000000" stroke-width="20" fill="none" />
  <path d="M 27260 11980 l -80 540" stroke="#000000" stroke-width="20" fill="none" />
  <path d="M 27060 11980 l -80 540" stroke="#000000" stroke-width="20" fill="none" />
  <path d="M 27380 11980 l 20 540" stroke="#000000" stroke-width="20" fill="none" />
  <path d="M 27560 11980 l 100 540" stroke="#000000" stroke-width="20" fill="none" />
  <path d="M 27720 11980 l -60 540" stroke="#000000" stroke-width="20" fill="none" />
  <path d="M 27520 11980 l -80 540" stroke="#000000" stroke-width="20" fill="none" />
  <path d="M 27220 14260 l -20 -560" stroke="#000000" stroke-width="20" fill="none" />
  <path d="M 27040 14260 l -80 -560" stroke="#000000" stroke-width="20" fill="none" />
  <path d="M 26880 14260 l 80 -560" stroke="#000000" stroke-width="20" fill="none" />
  <path d="M 27080 14260 l 80 -560" stroke="#000000" stroke-width="20" fill="none" />
  <path d="M 27720 14260 l -20 -560" stroke="#000000" stroke-width="20" fill="none" />
  <path d="M 27520 14260 l -80 -560" stroke="#000000" stroke-width="20" fill="none" />
  <path d="M 27380 14260 l 60 -560" stroke="#000000" stroke-width="20" fill="none" />
  <path d="M 27560 14260 l 100 -560" stroke="#000000" stroke-width="20" fill="none" />
  <rect x="26840" y="12580" width="1020" height="1120" stroke="#000000" stroke-width="20" fill="#C0C0C0" id="RECTANGLE32" />
  <path id="POLYGON97" d="M 44020 17220 l -16200 -2180 0 -3240 16200 -2160 0 7680 0 -100" stroke="#000000" stroke-width="20" fill="#808080" />
  <g id="TEXT21">
    <rect x="29940" y="13180" width="3700" height="640" stroke-width="0" fill="none" id="TEXT21_pbTextBoundingRectEl" />
    <text fill="#000000" font-family="Helvetica" font-size="560" text-anchor="middle" x="31790" y="13780" id="TEXT21_pbTextEl">汽轮机转速</text>
  </g>
  <g id="TEXT23">
    <rect x="33880" y="13000" width="4040" height="700" stroke-width="0" fill="none" id="TEXT23_pbTextBoundingRectEl" />
    <text fill="#000000" font-family="Helvetica" font-size="560" text-anchor="middle" x="35900" y="13630" id="TEXT23_pbTextEl">81-1102.30.S02</text>
  </g>
  <g id="TEXT24">
    <rect x="33900" y="14260" width="4040" height="700" stroke-width="0" fill="none" id="TEXT24_pbTextBoundingRectEl" />
    <text fill="#000000" font-family="Helvetica" font-size="560" text-anchor="middle" x="35920" y="14890" id="TEXT24_pbTextEl">81-1102.30.S03</text>
  </g>
  <path id="POLYGON224" d="M 15260 9500 l 0 15520" stroke="#FF0000" stroke-width="20" fill="none" />
  <path id="POLYGON227" d="M 17540 19900 l 0 4660" stroke="#000000" stroke-width="20" stroke-dasharray="60,60" fill="none" />
  <path id="POLYGON228" d="M 15260 25000 l 24360 0" stroke="#FF0000" stroke-width="20" fill="none" />
  <g id="TEXT26">
    <rect x="15660" y="25980" width="4440" height="640" stroke-width="0" fill="none" id="TEXT26_pbTextBoundingRectEl" />
    <text fill="#000000" font-family="Helvetica" font-size="560" text-anchor="middle" x="17880" y="26580" id="TEXT26_pbTextEl">81-1102.75.Y01</text>
  </g>
  <path id="POLYGON230" d="M 20720 21080 l 28360 0" stroke="#D20000" stroke-width="20" fill="none" />
  <path id="POLYGON231" d="M 44160 10840 l 9140 0" stroke="#000000" stroke-width="20" stroke-dasharray="60,60" fill="none" />
  <g id="TEXT31">
    <rect x="51820" y="6820" width="4060" height="700" stroke-width="0" fill="none" id="TEXT31_pbTextBoundingRectEl" />
    <text fill="#000000" font-family="Helvetica" font-size="560" text-anchor="middle" x="53850" y="7450" id="TEXT31_pbTextEl">81-1102.19.T03</text>
  </g>
  <g id="TEXT29">
    <rect x="46780" y="5300" width="4000" height="700" stroke-width="0" fill="none" id="TEXT29_pbTextBoundingRectEl" />
    <text fill="#000000" font-family="Helvetica" font-size="560" text-anchor="middle" x="48780" y="5930" id="TEXT29_pbTextEl">81-1102.19.P02</text>
  </g>
  <g id="TEXT28">
    <rect x="46780" y="6820" width="4060" height="700" stroke-width="0" fill="none" id="TEXT28_pbTextBoundingRectEl" />
    <text fill="#000000" font-family="Helvetica" font-size="560" text-anchor="middle" x="48810" y="7450" id="TEXT28_pbTextEl">81-1102.19.P03</text>
  </g>
  <g id="TEXT27">
    <rect x="46780" y="8400" width="4060" height="700" stroke-width="0" fill="none" id="TEXT27_pbTextBoundingRectEl" />
    <text fill="#000000" font-family="Helvetica" font-size="560" text-anchor="middle" x="48810" y="9030" id="TEXT27_pbTextEl">81-1102.19.P04</text>
  </g>
  <g id="TEXT32">
    <rect x="51740" y="5300" width="4000" height="700" stroke-width="0" fill="none" id="TEXT32_pbTextBoundingRectEl" />
    <text fill="#000000" font-family="Helvetica" font-size="560" text-anchor="middle" x="53740" y="5930" id="TEXT32_pbTextEl">81-1102.19.T02</text>
  </g>
  <g id="TEXT30">
    <rect x="51820" y="8400" width="4060" height="700" stroke-width="0" fill="none" id="TEXT30_pbTextBoundingRectEl" />
    <text fill="#000000" font-family="Helvetica" font-size="560" text-anchor="middle" x="53850" y="9030" id="TEXT30_pbTextEl">81-1102.19.T04</text>
  </g>
  <path id="POLYGON246" d="M 48620 9580 l 0 1260" stroke="#000000" stroke-width="20" stroke-dasharray="60,60" fill="none" />
  <path id="POLYGON247" d="M 53300 9560 l 0 1320" stroke="#000000" stroke-width="20" stroke-dasharray="60,60" fill="none" />
  <path id="POLYGON248" d="M 54620 5940 l 1660 0" stroke="#000000" stroke-width="20" stroke-dasharray="60,60" fill="none" />
  <path id="LINE248" d="M 54640 7500 l 1680 0" stroke="#000000" stroke-width="20" stroke-dasharray="60,60" fill="none" />
  <path id="LINE249" d="M 54660 9020 l 1680 0" stroke="#000000" stroke-width="20" stroke-dasharray="60,60" fill="none" />
  <path id="POLYGON249" d="M 43740 11760 l 3300 0" stroke="#00B400" stroke-width="40" fill="none" />
  <path id="POLYGON250" d="M 44180 11740 l -340 -240" stroke="#00B400" stroke-width="40" fill="none" />
  <path id="LINE251" d="M 43860 12140 l 300 -420" stroke="#00B400" stroke-width="40" fill="none" />
  <path id="POLYGON251" d="M 43740 12680 l 2120 0" stroke="#00B400" stroke-width="40" fill="none" />
  <path id="LINE252" d="M 44220 12700 l -380 -320" stroke="#00B400" stroke-width="40" fill="none" />
  <path id="LINE253" d="M 43900 13100 l 240 -420" stroke="#00B400" stroke-width="40" fill="none" />
  <path id="LINE254" d="M 43800 16220 l 16200 0" stroke="#00B400" stroke-width="40" fill="none" />
  <path id="LINE255" d="M 44180 15300 l -340 -260" stroke="#00B400" stroke-width="40" fill="none" />
  <path id="POLYGON264" d="M 45860 11760 l 0 920" stroke="#00B400" stroke-width="40" fill="none" />
  <path id="POLYGON266" d="M 47040 11780 l 0 4400" stroke="#00B400" stroke-width="40" fill="none" />
  <rect x="44120" y="13580" width="2080" height="680" stroke="#000000" stroke-width="20" fill="#C0C0C0" id="RECTANGLE59" />
  <path d="M 44280 13040 l 20 560" stroke="#000000" stroke-width="20" fill="none" />
  <path d="M 44480 13040 l 80 560" stroke="#000000" stroke-width="20" fill="none" />
  <path d="M 44620 13040 l -60 560" stroke="#000000" stroke-width="20" fill="none" />
  <path d="M 44420 13040 l -80 560" stroke="#000000" stroke-width="20" fill="none" />
  <path d="M 44800 13000 l 20 580" stroke="#000000" stroke-width="20" fill="none" />
  <path d="M 44980 13000 l 80 580" stroke="#000000" stroke-width="20" fill="none" />
  <path d="M 45140 13000 l -80 580" stroke="#000000" stroke-width="20" fill="none" />
  <path d="M 44940 13000 l -80 580" stroke="#000000" stroke-width="20" fill="none" />
  <path d="M 45280 13040 l 20 560" stroke="#000000" stroke-width="20" fill="none" />
  <path d="M 45460 13040 l 80 560" stroke="#000000" stroke-width="20" fill="none" />
  <path d="M 45600 13040 l -60 560" stroke="#000000" stroke-width="20" fill="none" />
  <path d="M 45400 13040 l -80 560" stroke="#000000" stroke-width="20" fill="none" />
  <path d="M 45800 13040 l 20 560" stroke="#000000" stroke-width="20" fill="none" />
  <path d="M 45980 13040 l 80 560" stroke="#000000" stroke-width="20" fill="none" />
  <path d="M 46140 13040 l -80 560" stroke="#000000" stroke-width="20" fill="none" />
  <path d="M 45940 13040 l -80 560" stroke="#000000" stroke-width="20" fill="none" />
  <path d="M 46100 14840 l -20 -580" stroke="#000000" stroke-width="20" fill="none" />
  <path d="M 45920 14840 l -80 -580" stroke="#000000" stroke-width="20" fill="none" />
  <path d="M 45760 14840 l 80 -580" stroke="#000000" stroke-width="20" fill="none" />
  <path d="M 45960 14840 l 80 -580" stroke="#000000" stroke-width="20" fill="none" />
  <path d="M 45580 14840 l -20 -580" stroke="#000000" stroke-width="20" fill="none" />
  <path d="M 45380 14840 l -60 -580" stroke="#000000" stroke-width="20" fill="none" />
  <path d="M 45260 14840 l 60 -580" stroke="#000000" stroke-width="20" fill="none" />
  <path d="M 45420 14840 l 100 -580" stroke="#000000" stroke-width="20" fill="none" />
  <path d="M 45100 14840 l -20 -580" stroke="#000000" stroke-width="20" fill="none" />
  <path d="M 44920 14840 l -80 -580" stroke="#000000" stroke-width="20" fill="none" />
  <path d="M 44760 14840 l 80 -580" stroke="#000000" stroke-width="20" fill="none" />
  <path d="M 44960 14840 l 80 -580" stroke="#000000" stroke-width="20" fill="none" />
  <path d="M 44580 14840 l -20 -580" stroke="#000000" stroke-width="20" fill="none" />
  <path d="M 44380 14840 l -80 -580" stroke="#000000" stroke-width="20" fill="none" />
  <path d="M 44240 14840 l 60 -580" stroke="#000000" stroke-width="20" fill="none" />
  <path d="M 44420 14840 l 100 -580" stroke="#000000" stroke-width="20" fill="none" />
  <path id="POLYGON301" d="M 46080 14920 l 0 1080" stroke="#D20000" stroke-width="20" fill="none" />
  <path id="POLYGON303" d="M 56260 5960 l 0 9420" stroke="#000000" stroke-width="20" stroke-dasharray="60,60" fill="none" />
  <path d="M 61680 16080 l -1120 0" stroke="#00B400" stroke-width="40" fill="#FF8000" />
  <path d="M 61680 16320 l -1120 0" stroke="#00B400" stroke-width="40" fill="#FF8000" />
  <path d="M 60560 15920 l 0 160" stroke="#00B400" stroke-width="40" fill="#FF8000" />
  <path d="M 60560 16320 l 0 220" stroke="#00B400" stroke-width="40" fill="#FF8000" />
  <path d="M 61680 16080 l 0 240" stroke="#00B400" stroke-width="40" fill="#FF8000" />
  <path d="M 60520 15920 l -500 260" stroke="#00B400" stroke-width="40" fill="#FF8000" />
  <path d="M 60520 16540 l -500 -360" stroke="#00B400" stroke-width="40" fill="#FF8000" />
  <g id="TEXT34">
    <rect x="58520" y="15040" width="5000" height="960" stroke-width="0" fill="none" id="TEXT34_pbTextBoundingRectEl" />
    <text fill="#000000" font-family="Helvetica" font-size="560" text-anchor="middle" x="61020" y="15800" id="TEXT34_pbTextEl">喷淋水</text>
  </g>
  <path id="POLYGON310" d="M 20360 18660 l 1900 0" stroke="#000000" stroke-width="20" stroke-dasharray="60,60" fill="none" />
  <path id="POLYGON311" d="M 22100 18700 l 0 2440" stroke="#000000" stroke-width="20" stroke-dasharray="60,60" fill="none" />
  <path id="POLYGON312" d="M 46080 16440 l 0 4680" stroke="#D20000" stroke-width="20" fill="none" />
  <path id="POLYGON313" d="M 44060 17300 l 0 3560" stroke="#FF0000" stroke-width="40" fill="none" />
  <path id="POLYGON314" d="M 44060 21300 l 0 6540" stroke="#FF0000" stroke-width="40" fill="none" />
  <path id="POLYGON315" d="M 44040 27860 l 16040 0" stroke="#FF0000" stroke-width="40" fill="none" />
  <path id="LINE316" d="M 43860 15680 l 280 -420" stroke="#00B400" stroke-width="40" fill="none" />
  <path id="LINE317" d="M 43740 15280 l 2120 0" stroke="#00B400" stroke-width="40" fill="none" />
  <path id="LINE318" d="M 44180 16180 l -380 -320" stroke="#00B400" stroke-width="40" fill="none" />
  <path id="LINE319" d="M 45860 15280 l 0 900" stroke="#00B400" stroke-width="40" fill="none" />
  <path id="LINE320" d="M 43940 16640 l 220 -420" stroke="#00B400" stroke-width="40" fill="none" />
  <path id="POLYGON321" d="M 42000 17060 l 0 3640" stroke="#00B400" stroke-width="40" fill="none" />
  <path id="POLYGON322" d="M 42000 21140 l 0 9800" stroke="#00B400" stroke-width="40" fill="none" />
  <path id="POLYGON323" d="M 27880 15040 l 0 3600" stroke="#00B400" stroke-width="40" fill="none" />
  <path id="POLYGON324" d="M 25620 14120 l 0 7020" stroke="#FF0000" stroke-width="20" fill="none" />
  <path id="POLYGON325" d="M 27180 14300 l 0 4520" stroke="#00B400" stroke-width="40" fill="none" />
  <g id="TEXT25">
    <rect x="15720" y="18400" width="4500" height="700" stroke-width="0" fill="none" id="TEXT25_pbTextBoundingRectEl" />
    <text fill="#000000" font-family="Helvetica" font-size="560" text-anchor="middle" x="17970" y="19030" id="TEXT25_pbTextEl">81-1102.75.P11</text>
  </g>
  <path id="POLYGON326" d="M 27120 18900 l 10260 0" stroke="#00B400" stroke-width="40" fill="none" />
  <path id="POLYGON327" d="M 37380 18860 l 0 -2440" stroke="#00B400" stroke-width="40" fill="none" />
  <path id="POLYGON328" d="M 27940 19480 l 0 1440" stroke="#00B400" stroke-width="40" fill="none" />
  <path id="POLYGON329" d="M 27940 21300 l 0 3620" stroke="#00B400" stroke-width="40" fill="none" />
  <path id="POLYGON330" d="M 27940 25280 l 0 5660" stroke="#00B400" stroke-width="40" fill="none" />
  <path d="M 20600 20560 l 0 1040" stroke="#000000" stroke-width="40" fill="none" />
  <path d="M 20720 20580 l 0 1020" stroke="#000000" stroke-width="20" fill="none" />
  <path id="POLYGON333" d="M 31740 18940 l 0 1940" stroke="#00B400" stroke-width="40" fill="none" />
  <path id="POLYGON334" d="M 31740 21140 l 0 3600" stroke="#00B400" stroke-width="40" fill="none" />
  <path id="POLYGON335" d="M 31740 25280 l 0 5660" stroke="#00B400" stroke-width="40" fill="none" />
  <path d="M 49120 20460 l 0 1040" stroke="#000000" stroke-width="40" fill="none" />
  <path d="M 49260 20500 l 0 1000" stroke="#000000" stroke-width="20" fill="none" />
  <g id="TEXT35">
    <rect x="53800" y="16740" width="5000" height="960" stroke-width="0" fill="none" id="TEXT35_pbTextBoundingRectEl" />
    <text fill="#000000" font-family="Helvetica" font-size="560" text-anchor="middle" x="56300" y="17500" id="TEXT35_pbTextEl">81-1102.19.Y01</text>
  </g>
  <g id="TEXT36">
    <rect x="33880" y="11560" width="4040" height="700" stroke-width="0" fill="none" id="TEXT36_pbTextBoundingRectEl" />
    <text fill="#000000" font-family="Helvetica" font-size="560" text-anchor="middle" x="35900" y="12190" id="TEXT36_pbTextEl">81-1102.30.S01</text>
  </g>
  <path id="POLYGON339" d="M 39640 21120 l 0 3940" stroke="#FF0000" stroke-width="20" fill="none" />
  <path d="M 18940 30260 l 0 1020" stroke="#000000" stroke-width="40" fill="none" />
  <path d="M 19060 30280 l 0 1000" stroke="#000000" stroke-width="20" fill="none" />
  <path id="POLYGON340" d="M 19060 30940 l 41020 0" stroke="#00B400" stroke-width="40" fill="none" />
  <path d="M 60060 27960 l 1120 0" stroke="#FF0000" stroke-width="40" fill="#FF8000" />
  <path d="M 60060 27700 l 1120 0" stroke="#FF0000" stroke-width="40" fill="#FF8000" />
  <path d="M 61180 28100 l 0 -140" stroke="#FF0000" stroke-width="40" fill="#FF8000" />
  <path d="M 61180 27700 l 0 -220" stroke="#FF0000" stroke-width="40" fill="#FF8000" />
  <path d="M 60060 27960 l 0 -260" stroke="#FF0000" stroke-width="40" fill="#FF8000" />
  <path d="M 61220 28100 l 500 -240" stroke="#FF0000" stroke-width="40" fill="#FF8000" />
  <path d="M 61220 27480 l 500 380" stroke="#FF0000" stroke-width="40" fill="#FF8000" />
  <path d="M 60060 31060 l 1120 0" stroke="#00B400" stroke-width="40" fill="#FF8000" />
  <path d="M 60060 30800 l 1120 0" stroke="#00B400" stroke-width="40" fill="#FF8000" />
  <path d="M 61180 31220 l 0 -160" stroke="#00B400" stroke-width="40" fill="#FF8000" />
  <path d="M 61180 30800 l 0 -220" stroke="#00B400" stroke-width="40" fill="#FF8000" />
  <path d="M 60060 31060 l 0 -260" stroke="#00B400" stroke-width="40" fill="#FF8000" />
  <path d="M 61220 31220 l 500 -240" stroke="#00B400" stroke-width="40" fill="#FF8000" />
  <path d="M 61220 30580 l 500 400" stroke="#00B400" stroke-width="40" fill="#FF8000" />
  <g id="TEXT37">
    <rect x="58020" y="26060" width="5000" height="960" stroke-width="0" fill="none" id="TEXT37_pbTextBoundingRectEl" />
    <text fill="#000000" font-family="Helvetica" font-size="560" text-anchor="middle" x="60520" y="26820" id="TEXT37_pbTextEl">81-1110.10.BE1</text>
  </g>
  <g id="TEXT38">
    <rect x="58020" y="29340" width="5000" height="960" stroke-width="0" fill="none" id="TEXT38_pbTextBoundingRectEl" />
    <text fill="#000000" font-family="Helvetica" font-size="560" text-anchor="middle" x="60520" y="30100" id="TEXT38_pbTextEl">81-1110.10.BE1</text>
  </g>
  <rect x="28220" y="2720" width="18060" height="6040" stroke="#000000" stroke-width="20" stroke-dasharray="60,60" fill="none" id="RECTANGLE63" />
  <g id="TEXT39">
    <rect x="28340" y="3980" width="5140" height="660" stroke-width="0" fill="none" id="TEXT39_pbTextBoundingRectEl" />
    <text fill="#000000" font-family="Helvetica" font-size="560" text-anchor="middle" x="30910" y="4590" id="TEXT39_pbTextEl">工艺允许启动汽轮机</text>
  </g>
  <g id="TEXT40">
    <rect x="28340" y="5980" width="5140" height="660" stroke-width="0" fill="none" id="TEXT40_pbTextBoundingRectEl" />
    <text fill="#000000" font-family="Helvetica" font-size="560" text-anchor="middle" x="30910" y="6590" id="TEXT40_pbTextEl">工艺允许启动空压机</text>
  </g>
  <g id="TEXT41">
    <rect x="28340" y="4900" width="5140" height="660" stroke-width="0" fill="none" id="TEXT41_pbTextBoundingRectEl" />
    <text fill="#000000" font-family="Helvetica" font-size="560" text-anchor="middle" x="30910" y="5510" id="TEXT41_pbTextEl">81-1101.00.X36</text>
  </g>
  <g id="TEXT42">
    <rect x="28340" y="6960" width="5140" height="660" stroke-width="0" fill="none" id="TEXT42_pbTextBoundingRectEl" />
    <text fill="#000000" font-family="Helvetica" font-size="560" text-anchor="middle" x="30910" y="7570" id="TEXT42_pbTextEl">81-1201.00.X36</text>
  </g>
  <g id="TEXT43">
    <rect x="28340" y="3080" width="5140" height="660" stroke-width="0" fill="none" id="TEXT43_pbTextBoundingRectEl" />
    <text fill="#000000" font-family="Helvetica" font-size="560" text-anchor="middle" x="30910" y="3690" id="TEXT43_pbTextEl">81-1102.00.X36</text>
  </g>
  <g id="TEXT44">
    <rect x="28340" y="7840" width="5140" height="660" stroke-width="0" fill="none" id="TEXT44_pbTextBoundingRectEl" />
    <text fill="#000000" font-family="Helvetica" font-size="560" text-anchor="middle" x="30910" y="8450" id="TEXT44_pbTextEl">工艺允许启动增压机</text>
  </g>
  <g id="TEXT45">
    <rect x="34600" y="4160" width="4960" height="680" stroke-width="0" fill="none" id="TEXT45_pbTextBoundingRectEl" />
    <text fill="#000000" font-family="Helvetica" font-size="560" text-anchor="middle" x="37080" y="4780" id="TEXT45_pbTextEl">主汽门电磁阀得电</text>
  </g>
  <g id="TEXT46">
    <rect x="34600" y="5100" width="4960" height="640" stroke-width="0" fill="none" id="TEXT46_pbTextBoundingRectEl" />
    <text fill="#000000" font-family="Helvetica" font-size="560" text-anchor="middle" x="37080" y="5700" id="TEXT46_pbTextEl">81=1102.71.X01.Q</text>
  </g>
  <g id="TEXT47">
    <rect x="34600" y="6140" width="5140" height="640" stroke-width="0" fill="none" id="TEXT47_pbTextBoundingRectEl" />
    <text fill="#000000" font-family="Helvetica" font-size="560" text-anchor="middle" x="37170" y="6740" id="TEXT47_pbTextEl">汽轮机额定转速到达</text>
  </g>
  <g id="TEXT48">
    <rect x="34600" y="7080" width="4960" height="640" stroke-width="0" fill="none" id="TEXT48_pbTextBoundingRectEl" />
    <text fill="#000000" font-family="Helvetica" font-size="560" text-anchor="middle" x="37080" y="7680" id="TEXT48_pbTextEl">81-9396.00.CCS</text>
  </g>
  <g id="TEXT53">
    <rect x="34600" y="3460" width="4960" height="640" stroke-width="0" fill="none" id="TEXT53_pbTextBoundingRectEl" />
    <text fill="#000000" font-family="Helvetica" font-size="560" text-anchor="middle" x="37080" y="4060" id="TEXT53_pbTextEl">81-1102.02.H01.Q</text>
  </g>
  <g id="TEXT54">
    <rect x="34600" y="7940" width="4960" height="640" stroke-width="0" fill="none" id="TEXT54_pbTextBoundingRectEl" />
    <text fill="#000000" font-family="Helvetica" font-size="560" text-anchor="middle" x="37080" y="8540" id="TEXT54_pbTextEl">CCS报警指示灯</text>
  </g>
  <g id="TEXT55">
    <rect x="40560" y="3460" width="4580" height="640" stroke-width="0" fill="none" id="TEXT55_pbTextBoundingRectEl" />
    <text fill="#000000" font-family="Helvetica" font-size="560" text-anchor="middle" x="42850" y="4060" id="TEXT55_pbTextEl">81-1102.00.X35</text>
  </g>
  <g id="TEXT56">
    <rect x="41440" y="4060" width="3700" height="740" stroke-width="0" fill="none" id="TEXT56_pbTextBoundingRectEl" />
    <text fill="#000000" font-family="Helvetica" font-size="560" text-anchor="middle" x="43290" y="4710" id="TEXT56_pbTextEl">工艺跳车</text>
  </g>
  <g id="TEXT57">
    <rect x="40560" y="5020" width="4580" height="640" stroke-width="0" fill="none" id="TEXT57_pbTextBoundingRectEl" />
    <text fill="#000000" font-family="Helvetica" font-size="560" text-anchor="middle" x="42850" y="5620" id="TEXT57_pbTextEl">81-1101.UNLOAD</text>
  </g>
  <g id="TEXT58">
    <rect x="40560" y="6020" width="4580" height="680" stroke-width="0" fill="none" id="TEXT58_pbTextBoundingRectEl" />
    <text fill="#000000" font-family="Helvetica" font-size="560" text-anchor="middle" x="42850" y="6640" id="TEXT58_pbTextEl">空压机卸载</text>
  </g>
  <g id="TEXT59">
    <rect x="40560" y="7000" width="4580" height="640" stroke-width="0" fill="none" id="TEXT59_pbTextBoundingRectEl" />
    <text fill="#000000" font-family="Helvetica" font-size="560" text-anchor="middle" x="42850" y="7600" id="TEXT59_pbTextEl">81-1201.UNLOAD</text>
  </g>
  <g id="TEXT60">
    <rect x="40560" y="7820" width="4580" height="680" stroke-width="0" fill="none" id="TEXT60_pbTextBoundingRectEl" />
    <text fill="#000000" font-family="Helvetica" font-size="560" text-anchor="middle" x="42850" y="8440" id="TEXT60_pbTextEl">增压机卸载</text>
  </g>
  <path id="ELLIPSE15" d="M 33101 4520 l -136 -40 -75 -40 -56 -40 -44 -40 -38 -40 -32 -40 -27 -40 -24 -40 -20 -40 -18 -40 -14 -40 -13 -40 -10 -40 -8 -40 -6 -40 -4 -40 -2 -40 0 -40 2 -40 4 -40 6 -40 8 -40 10 -40 13 -40 14 -40 18 -40 20 -40 24 -40 27 -40 32 -40 38 -40 44 -40 56 -40 75 -40 136 -40 158 0 136 40 75 40 56 40 44 40 38 40 32 40 27 40 24 40 20 40 18 40 14 40 13 40 10 40 8 40 6 40 4 40 2 40 0 40 -2 40 -4 40 -6 40 -8 40 -10 40 -13 40 -14 40 -18 40 -20 40 -24 40 -27 40 -32 40 -38 40 -44 40 -56 40 -75 40 -136 40 -158 0" stroke-width="0" fill="none" />
  <path id="ELLIPSE17" d="M 33843 4720 l -44 -13 -29 -14 -22 -13 -19 -13 -17 -14 -14 -13 -13 -13 -11 -14 -10 -13 -9 -13 -9 -14 -7 -13 -7 -13 -6 -14 -6 -13 -5 -13 -4 -14 -4 -13 -3 -13 -3 -14 -2 -13 -2 -13 -2 -14 0 -13 -1 -13 0 -14 1 -13 0 -13 2 -14 2 -13 2 -13 3 -14 3 -13 4 -13 4 -14 5 -13 6 -13 6 -14 7 -13 7 -13 9 -14 9 -13 10 -13 11 -14 13 -13 14 -13 17 -14 19 -13 22 -13 29 -14 44 -13 114 0 44 13 29 14 22 13 19 13 17 14 14 13 13 13 11 14 10 13 9 13 9 14 7 13 7 13 6 14 6 13 5 13 4 14 4 13 3 13 3 14 2 13 2 13 2 14 0 13 1 13 0 14 -1 13 0 13 -2 14 -2 13 -2 13 -3 14 -3 13 -4 13 -4 14 -5 13 -6 13 -6 14 -7 13 -7 13 -9 14 -9 13 -10 13 -11 14 -13 13 -14 13 -17 14 -19 13 -22 13 -29 14 -44 13 -114 0" stroke="#FF0000" stroke-width="20" fill="#FF0000" />
  <path id="ELLIPSE20" d="M 33836 6740 l -68 -20 -40 -20 -31 -20 -25 -20 -21 -20 -18 -20 -15 -20 -13 -20 -12 -20 -9 -20 -9 -20 -6 -20 -6 -20 -4 -20 -3 -20 -1 -20 -1 -20 0 0 1 -20 1 -20 3 -20 4 -20 6 -20 6 -20 9 -20 9 -20 12 -20 13 -20 15 -20 18 -20 21 -20 25 -20 31 -20 40 -20 68 -20 128 0 68 20 40 20 31 20 25 20 21 20 18 20 15 20 13 20 12 20 9 20 9 20 6 20 6 20 4 20 3 20 1 20 1 20 0 0 -1 20 -1 20 -3 20 -4 20 -6 20 -6 20 -9 20 -9 20 -12 20 -13 20 -15 20 -18 20 -21 20 -25 20 -31 20 -40 20 -68 20 -128 0" stroke="#FF0000" stroke-width="20" fill="#FF0000" />
  <path id="ELLIPSE21" d="M 33836 8680 l -68 -20 -40 -20 -31 -20 -25 -20 -21 -20 -18 -20 -15 -20 -13 -20 -12 -20 -9 -20 -9 -20 -6 -20 -6 -20 -4 -20 -3 -20 -1 -20 -1 -20 0 0 1 -20 1 -20 3 -20 4 -20 6 -20 6 -20 9 -20 9 -20 12 -20 13 -20 15 -20 18 -20 21 -20 25 -20 31 -20 40 -20 68 -20 128 0 68 20 40 20 31 20 25 20 21 20 18 20 15 20 13 20 12 20 9 20 9 20 6 20 6 20 4 20 3 20 1 20 1 20 0 0 -1 20 -1 20 -3 20 -4 20 -6 20 -6 20 -9 20 -9 20 -12 20 -13 20 -15 20 -18 20 -21 20 -25 20 -31 20 -40 20 -68 20 -128 0" stroke="#FF0000" stroke-width="20" fill="#FF0000" />
  <path id="ELLIPSE25" d="M 40056 4540 l -68 -20 -40 -20 -31 -20 -25 -20 -21 -20 -18 -20 -15 -20 -13 -20 -12 -20 -9 -20 -9 -20 -6 -20 -6 -20 -4 -20 -3 -20 -1 -20 -1 -20 0 0 1 -20 1 -20 3 -20 4 -20 6 -20 6 -20 9 -20 9 -20 12 -20 13 -20 15 -20 18 -20 21 -20 25 -20 31 -20 40 -20 68 -20 128 0 68 20 40 20 31 20 25 20 21 20 18 20 15 20 13 20 12 20 9 20 9 20 6 20 6 20 4 20 3 20 1 20 1 20 0 0 -1 20 -1 20 -3 20 -4 20 -6 20 -6 20 -9 20 -9 20 -12 20 -13 20 -15 20 -18 20 -21 20 -25 20 -31 20 -40 20 -68 20 -128 0" stroke="#FF0000" stroke-width="20" fill="#FF0000" />
  <path id="ELLIPSE26" d="M 40056 6720 l -68 -20 -40 -20 -31 -20 -25 -20 -21 -20 -18 -20 -15 -20 -13 -20 -12 -20 -9 -20 -9 -20 -6 -20 -6 -20 -4 -20 -3 -20 -1 -20 -1 -20 0 0 1 -20 1 -20 3 -20 4 -20 6 -20 6 -20 9 -20 9 -20 12 -20 13 -20 15 -20 18 -20 21 -20 25 -20 31 -20 40 -20 68 -20 128 0 68 20 40 20 31 20 25 20 21 20 18 20 15 20 13 20 12 20 9 20 9 20 6 20 6 20 4 20 3 20 1 20 1 20 0 0 -1 20 -1 20 -3 20 -4 20 -6 20 -6 20 -9 20 -9 20 -12 20 -13 20 -15 20 -18 20 -21 20 -25 20 -31 20 -40 20 -68 20 -128 0" stroke="#FF0000" stroke-width="20" fill="#FF0000" />
  <path id="ELLIPSE27" d="M 40056 8620 l -68 -20 -40 -20 -31 -20 -25 -20 -21 -20 -18 -20 -15 -20 -13 -20 -12 -20 -9 -20 -9 -20 -6 -20 -6 -20 -4 -20 -3 -20 -1 -20 -1 -20 0 0 1 -20 1 -20 3 -20 4 -20 6 -20 6 -20 9 -20 9 -20 12 -20 13 -20 15 -20 18 -20 21 -20 25 -20 31 -20 40 -20 68 -20 128 0 68 20 40 20 31 20 25 20 21 20 18 20 15 20 13 20 12 20 9 20 9 20 6 20 6 20 4 20 3 20 1 20 1 20 0 0 -1 20 -1 20 -3 20 -4 20 -6 20 -6 20 -9 20 -9 20 -12 20 -13 20 -15 20 -18 20 -21 20 -25 20 -31 20 -40 20 -68 20 -128 0" stroke="#FF0000" stroke-width="20" fill="#FF0000" />
  <path id="ELLIPSE28" d="M 45496 4400 l -68 -20 -40 -20 -31 -20 -25 -20 -21 -20 -18 -20 -15 -20 -13 -20 -12 -20 -9 -20 -9 -20 -6 -20 -6 -20 -4 -20 -3 -20 -1 -20 -1 -20 0 0 1 -20 1 -20 3 -20 4 -20 6 -20 6 -20 9 -20 9 -20 12 -20 13 -20 15 -20 18 -20 21 -20 25 -20 31 -20 40 -20 68 -20 128 0 68 20 40 20 31 20 25 20 21 20 18 20 15 20 13 20 12 20 9 20 9 20 6 20 6 20 4 20 3 20 1 20 1 20 0 0 -1 20 -1 20 -3 20 -4 20 -6 20 -6 20 -9 20 -9 20 -12 20 -13 20 -15 20 -18 20 -21 20 -25 20 -31 20 -40 20 -68 20 -128 0" stroke="#FF0000" stroke-width="20" fill="#FF0000" />
  <path id="ELLIPSE29" d="M 45496 6620 l -68 -20 -40 -20 -31 -20 -25 -20 -21 -20 -18 -20 -15 -20 -13 -20 -12 -20 -9 -20 -9 -20 -6 -20 -6 -20 -4 -20 -3 -20 -1 -20 -1 -20 0 0 1 -20 1 -20 3 -20 4 -20 6 -20 6 -20 9 -20 9 -20 12 -20 13 -20 15 -20 18 -20 21 -20 25 -20 31 -20 40 -20 68 -20 128 0 68 20 40 20 31 20 25 20 21 20 18 20 15 20 13 20 12 20 9 20 9 20 6 20 6 20 4 20 3 20 1 20 1 20 0 0 -1 20 -1 20 -3 20 -4 20 -6 20 -6 20 -9 20 -9 20 -12 20 -13 20 -15 20 -18 20 -21 20 -25 20 -31 20 -40 20 -68 20 -128 0" stroke="#FF0000" stroke-width="20" fill="#FF0000" />
  <path id="ELLIPSE30" d="M 45496 8660 l -68 -20 -40 -20 -31 -20 -25 -20 -21 -20 -18 -20 -15 -20 -13 -20 -12 -20 -9 -20 -9 -20 -6 -20 -6 -20 -4 -20 -3 -20 -1 -20 -1 -20 0 0 1 -20 1 -20 3 -20 4 -20 6 -20 6 -20 9 -20 9 -20 12 -20 13 -20 15 -20 18 -20 21 -20 25 -20 31 -20 40 -20 68 -20 128 0 68 20 40 20 31 20 25 20 21 20 18 20 15 20 13 20 12 20 9 20 9 20 6 20 6 20 4 20 3 20 1 20 1 20 0 0 -1 20 -1 20 -3 20 -4 20 -6 20 -6 20 -9 20 -9 20 -12 20 -13 20 -15 20 -18 20 -21 20 -25 20 -31 20 -40 20 -68 20 -128 0" stroke="#FF0000" stroke-width="20" fill="#FF0000" />
  <g id="TEXT62">
    <rect x="32680" y="600" width="8620" height="1160" stroke-width="0" fill="none" id="TEXT62_pbTextBoundingRectEl" />
    <text fill="#000000" font-family="Helvetica" font-size="800" text-anchor="middle" x="36990" y="1580" id="TEXT62_pbTextEl">81-汽轮机</text>
  </g>
  <g id="DATAPOINT407" PB:IsMultiState="False" PBD:PtTagName="\\RTDBB\81_1102_01_F02" PB:Type="7" PB:NumberFormat="0.00">
    <rect x="4540" y="8200" width="1800" height="440" stroke-width="0" fill="none" id="DATAPOINT407_pbTextBoundingRectEl" />
    <text fill="#000000" font-family="Helvetica" font-size="560" text-anchor="middle" x="5440" y="8700" id="DATAPOINT407_pbTextEl" PBD:Property="VAL">#.##</text>
  </g>
  <g id="DATAPOINT408" PB:IsMultiState="False" PBD:PtTagName="\\RTDBB\TT_81_1102_01_T01" PB:Type="7" PB:NumberFormat="0.00">
    <rect x="8860" y="8200" width="1800" height="440" stroke-width="0" fill="none" id="DATAPOINT408_pbTextBoundingRectEl" />
    <text fill="#000000" font-family="Helvetica" font-size="560" text-anchor="middle" x="9760" y="8700" id="DATAPOINT408_pbTextEl" PBD:Property="VAL">#.##</text>
  </g>
  <g id="DATAPOINT409" PB:IsMultiState="False" PBD:PtTagName="\\RTDBB\PT_81_1102_01_P01" PB:Type="7" PB:NumberFormat="0.00">
    <rect x="12920" y="8200" width="1800" height="440" stroke-width="0" fill="none" id="DATAPOINT409_pbTextBoundingRectEl" />
    <text fill="#000000" font-family="Helvetica" font-size="560" text-anchor="middle" x="13820" y="8700" id="DATAPOINT409_pbTextEl" PBD:Property="VAL">#.##</text>
  </g>
  <g id="DATAPOINT410" PB:IsMultiState="False" PBD:PtTagName="\\RTDBB\C_81_1102_01_T02" PB:Type="7" PB:NumberFormat="0.00">
    <rect x="16620" y="8200" width="1800" height="440" stroke-width="0" fill="none" id="DATAPOINT410_pbTextBoundingRectEl" />
    <text fill="#000000" font-family="Helvetica" font-size="560" text-anchor="middle" x="17520" y="8700" id="DATAPOINT410_pbTextEl" PBD:Property="VAL">#.##</text>
  </g>
  <g id="DATAPOINT411" PB:IsMultiState="False" PBD:PtTagName="\\RTDBB\C_81_1102_01_P02" PB:Type="7" PB:NumberFormat="0.00">
    <rect x="20040" y="8200" width="1800" height="440" stroke-width="0" fill="none" id="DATAPOINT411_pbTextBoundingRectEl" />
    <text fill="#000000" font-family="Helvetica" font-size="560" text-anchor="middle" x="20940" y="8700" id="DATAPOINT411_pbTextEl" PBD:Property="VAL">#.##</text>
  </g>
  <g id="DATAPOINT412" PB:IsMultiState="False" PBD:PtTagName="\\RTDBB\C_81_1102_20_P05" PB:Type="7" PB:NumberFormat="0.00">
    <rect x="22200" y="12840" width="1800" height="440" stroke-width="0" fill="none" id="DATAPOINT412_pbTextBoundingRectEl" />
    <text fill="#000000" font-family="Helvetica" font-size="560" text-anchor="middle" x="23100" y="13340" id="DATAPOINT412_pbTextEl" PBD:Property="VAL">#.##</text>
  </g>
  <g id="DATAPOINT413" PB:IsMultiState="False" PBD:PtTagName="\\RTDBB\C_81_1102_20_P06" PB:Type="7" PB:NumberFormat="0.00">
    <rect x="22060" y="14200" width="1800" height="440" stroke-width="0" fill="none" id="DATAPOINT413_pbTextBoundingRectEl" />
    <text fill="#000000" font-family="Helvetica" font-size="560" text-anchor="middle" x="22960" y="14700" id="DATAPOINT413_pbTextEl" PBD:Property="VAL">#.##</text>
  </g>
  <g id="DATAPOINT414" PB:IsMultiState="False" PBD:PtTagName="\\RTDBB\C_81_1102_75_P11" PB:Type="7" PB:NumberFormat="0.00">
    <rect x="16940" y="19160" width="1240" height="760" stroke-width="0" fill="none" id="DATAPOINT414_pbTextBoundingRectEl" />
    <text fill="#000000" font-family="Helvetica" font-size="560" text-anchor="middle" x="17560" y="19820" id="DATAPOINT414_pbTextEl" PBD:Property="VAL">#.##</text>
  </g>
  <g id="DATAPOINT415" PB:IsMultiState="False" PBD:PtTagName="\\RTDBB\C_81_1102_30_S01" PB:Type="7" PB:NumberFormat="0.00">
    <rect x="34880" y="12340" width="2660" height="620" stroke-width="0" fill="none" id="DATAPOINT415_pbTextBoundingRectEl" />
    <text fill="#000000" font-family="Helvetica" font-size="560" text-anchor="middle" x="36210" y="12930" id="DATAPOINT415_pbTextEl" PBD:Property="VAL">#.##</text>
  </g>
  <g id="DATAPOINT416" PB:IsMultiState="False" PBD:PtTagName="\\RTDBB\C_81_1102_30_S02" PB:Type="7" PB:NumberFormat="0.00">
    <rect x="34620" y="13700" width="2480" height="620" stroke-width="0" fill="none" id="DATAPOINT416_pbTextBoundingRectEl" />
    <text fill="#000000" font-family="Helvetica" font-size="560" text-anchor="middle" x="35860" y="14290" id="DATAPOINT416_pbTextEl" PBD:Property="VAL">#.##</text>
  </g>
  <g id="DATAPOINT417" PB:IsMultiState="False" PBD:PtTagName="\\RTDBB\C_81_1102_30_S03" PB:Type="7" PB:NumberFormat="0.00">
    <rect x="34780" y="14960" width="2480" height="620" stroke-width="0" fill="none" id="DATAPOINT417_pbTextBoundingRectEl" />
    <text fill="#000000" font-family="Helvetica" font-size="560" text-anchor="middle" x="36020" y="15550" id="DATAPOINT417_pbTextEl" PBD:Property="VAL">#.##</text>
  </g>
  <g id="DATAPOINT418" PB:IsMultiState="False" PBD:PtTagName="\\RTDBB\C_81_1102_19_P02" PB:Type="7" PB:NumberFormat="0.00">
    <rect x="48100" y="6080" width="1140" height="560" stroke-width="0" fill="none" id="DATAPOINT418_pbTextBoundingRectEl" />
    <text fill="#000000" font-family="Helvetica" font-size="560" text-anchor="middle" x="48670" y="6640" id="DATAPOINT418_pbTextEl" PBD:Property="VAL">#.##</text>
  </g>
  <g id="DATAPOINT419" PB:IsMultiState="False" PBD:PtTagName="\\RTDBB\C_81_1102_19_P03" PB:Type="7" PB:NumberFormat="0.00">
    <rect x="48000" y="7640" width="1800" height="660" stroke-width="0" fill="none" id="DATAPOINT419_pbTextBoundingRectEl" />
    <text fill="#000000" font-family="Helvetica" font-size="560" text-anchor="middle" x="48900" y="8250" id="DATAPOINT419_pbTextEl" PBD:Property="VAL">#.##</text>
  </g>
  <g id="DATAPOINT420" PB:IsMultiState="False" PBD:PtTagName="\\RTDBB\C_81_1102_19_P04" PB:Type="7" PB:NumberFormat="0.00">
    <rect x="48000" y="9220" width="1800" height="440" stroke-width="0" fill="none" id="DATAPOINT420_pbTextBoundingRectEl" />
    <text fill="#000000" font-family="Helvetica" font-size="560" text-anchor="middle" x="48900" y="9720" id="DATAPOINT420_pbTextEl" PBD:Property="VAL">#.##</text>
  </g>
  <g id="DATAPOINT421" PB:IsMultiState="False" PBD:PtTagName="\\RTDBB\C_81_1102_19_T04" PB:Type="7" PB:NumberFormat="0.00">
    <rect x="52320" y="9220" width="1800" height="440" stroke-width="0" fill="none" id="DATAPOINT421_pbTextBoundingRectEl" />
    <text fill="#000000" font-family="Helvetica" font-size="560" text-anchor="middle" x="53220" y="9720" id="DATAPOINT421_pbTextEl" PBD:Property="VAL">#.##</text>
  </g>
  <g id="DATAPOINT422" PB:IsMultiState="False" PBD:PtTagName="\\RTDBB\C_81_1102_19_T03" PB:Type="7" PB:NumberFormat="0.00">
    <rect x="52320" y="7600" width="1800" height="660" stroke-width="0" fill="none" id="DATAPOINT422_pbTextBoundingRectEl" />
    <text fill="#000000" font-family="Helvetica" font-size="560" text-anchor="middle" x="53220" y="8210" id="DATAPOINT422_pbTextEl" PBD:Property="VAL">#.##</text>
  </g>
  <g id="DATAPOINT423" PB:IsMultiState="False" PBD:PtTagName="\\RTDBB\C_81_1102_19_T02" PB:Type="7" PB:NumberFormat="0.00">
    <rect x="52500" y="6080" width="1140" height="560" stroke-width="0" fill="none" id="DATAPOINT423_pbTextBoundingRectEl" />
    <text fill="#000000" font-family="Helvetica" font-size="560" text-anchor="middle" x="53070" y="6640" id="DATAPOINT423_pbTextEl" PBD:Property="VAL">#.##</text>
  </g>
  <g name="Valve1">
    <path d="M 17538 24654 l -281 0 0 0 2 -30 5 -30 5 -30 9 -30 12 -26 14 -25 17 -24 19 -21 19 -20 23 -17 22 -15 25 -15 26 -10 26 -7 28 -4 29 -2 0 0 30 2 28 4 26 7 26 10 24 15 24 15 21 17 21 20 19 21 14 24 16 25 10 26 12 30 6 30 5 30 1 30 -283 0" stroke="#000000" stroke-width="20" fill="#FF0000" />
    <path d="M 17196 25204 l 0 -383 690 383 0 -383 -690 383" stroke="#000000" stroke-width="20" fill="#FF0000" />
    <path d="M 17538 25011 l 40 -21 0 -334 -76 0 0 334 40 21 -4 0" stroke="#000000" stroke-width="20" fill="#FF0000" />
  </g>
  <g id="DATAPOINT32" PB:IsMultiState="False" PBD:PtTagName="\\RTDBB\C_81_1102_75_Y01" PB:Type="7" PB:NumberFormat="0.00">
    <rect x="16920" y="25280" width="1240" height="760" stroke-width="0" fill="none" id="DATAPOINT32_pbTextBoundingRectEl" />
    <text fill="#000000" font-family="Helvetica" font-size="560" text-anchor="middle" x="17540" y="25940" id="DATAPOINT32_pbTextEl" PBD:Property="VAL">#.##</text>
  </g>
  <g name="Valve2">
    <path d="M 55676 16502 l 0 -494 1261 494 0 -494 -1261 494" stroke="#000000" stroke-width="20" fill="#FF0000" />
    <path d="M 56300 16253 l 73 -25 0 -433 -140 0 0 433 73 25 -6 0" stroke="#000000" stroke-width="20" fill="#FF0000" />
    <rect x="55791" y="15618" width="1018" height="221" stroke="#000000" stroke-width="20" fill="#FF0000" />
  </g>
</svg>