<svg xmlns="http://www.w3.org/2000/svg" xmlns:xlink="http://www.w3.org/1999/xlink" version="1.1" style="background-color:#7DB6C1" width="1062" height="669" viewbox="0 0 1062 669"><defs>
<linearGradient x1="0.000000%" y1="50.000000%" x2="100.000000%" y2="50.000000%" id="lgradient7_0">
<stop offset="0" stop-color="#2C2C2C" stop-opacity="1"/>
<stop offset="0.5" stop-color="#FFFFFF" stop-opacity="1"/>
<stop offset="1" stop-color="#2C2C2C" stop-opacity="1"/>
</linearGradient>
<linearGradient x1="0.000000%" y1="50.000000%" x2="100.000000%" y2="50.000000%" id="lgradient7_1">
<stop offset="0" stop-color="#2C2C2C" stop-opacity="1"/>
<stop offset="0.5" stop-color="#FFFFFF" stop-opacity="1"/>
<stop offset="1" stop-color="#2C2C2C" stop-opacity="1"/>
</linearGradient>
<radialGradient cx="50.000000%" cy="50.000000%" r="50.000000%" fx="50.000000%" fy="50.000000%" id="rgradient8">
<stop offset="0%" stop-color="#FFFFFF" stop-opacity="1"/>
<stop offset="100%" stop-color="#2C2C2C" stop-opacity="1"/>
</radialGradient>
<linearGradient x1="0.000000%" y1="50.000000%" x2="100.000000%" y2="50.000000%" id="lgradient9">
<stop offset="0" stop-color="#2C2C2C" stop-opacity="1"/>
<stop offset="0.5" stop-color="#FFFFFF" stop-opacity="1"/>
<stop offset="1" stop-color="#2C2C2C" stop-opacity="1"/>
</linearGradient>
<linearGradient x1="0.000000%" y1="50.000000%" x2="100.000000%" y2="50.000000%" id="lgradient29_0">
<stop offset="0" stop-color="#2C2C2C" stop-opacity="1"/>
<stop offset="0.5" stop-color="#FFFFFF" stop-opacity="1"/>
<stop offset="1" stop-color="#2C2C2C" stop-opacity="1"/>
</linearGradient>
<linearGradient x1="0.000000%" y1="50.000000%" x2="100.000000%" y2="50.000000%" id="lgradient29_1">
<stop offset="0" stop-color="#2C2C2C" stop-opacity="1"/>
<stop offset="0.5" stop-color="#FFFFFF" stop-opacity="1"/>
<stop offset="1" stop-color="#2C2C2C" stop-opacity="1"/>
</linearGradient>
<radialGradient cx="50.000000%" cy="50.000000%" r="50.000000%" fx="50.000000%" fy="50.000000%" id="rgradient30">
<stop offset="0%" stop-color="#FFFFFF" stop-opacity="1"/>
<stop offset="100%" stop-color="#2C2C2C" stop-opacity="1"/>
</radialGradient>
<linearGradient x1="0.000000%" y1="50.000000%" x2="100.000000%" y2="50.000000%" id="lgradient31">
<stop offset="0" stop-color="#2C2C2C" stop-opacity="1"/>
<stop offset="0.5" stop-color="#FFFFFF" stop-opacity="1"/>
<stop offset="1" stop-color="#2C2C2C" stop-opacity="1"/>
</linearGradient>
<linearGradient x1="0.000000%" y1="50.000000%" x2="100.000000%" y2="50.000000%" id="lgradient47_0">
<stop offset="0" stop-color="#2C2C2C" stop-opacity="1"/>
<stop offset="0.5" stop-color="#FFFFFF" stop-opacity="1"/>
<stop offset="1" stop-color="#2C2C2C" stop-opacity="1"/>
</linearGradient>
<linearGradient x1="0.000000%" y1="50.000000%" x2="100.000000%" y2="50.000000%" id="lgradient47_1">
<stop offset="0" stop-color="#2C2C2C" stop-opacity="1"/>
<stop offset="0.5" stop-color="#FFFFFF" stop-opacity="1"/>
<stop offset="1" stop-color="#2C2C2C" stop-opacity="1"/>
</linearGradient>
<radialGradient cx="50.000000%" cy="50.000000%" r="50.000000%" fx="50.000000%" fy="50.000000%" id="rgradient48">
<stop offset="0%" stop-color="#FFFFFF" stop-opacity="1"/>
<stop offset="100%" stop-color="#2C2C2C" stop-opacity="1"/>
</radialGradient>
<linearGradient x1="0.000000%" y1="50.000000%" x2="100.000000%" y2="50.000000%" id="lgradient49">
<stop offset="0" stop-color="#2C2C2C" stop-opacity="1"/>
<stop offset="0.5" stop-color="#FFFFFF" stop-opacity="1"/>
<stop offset="1" stop-color="#2C2C2C" stop-opacity="1"/>
</linearGradient>
<linearGradient x1="0.000000%" y1="50.000000%" x2="100.000000%" y2="50.000000%" id="lgradient89_0">
<stop offset="0" stop-color="#2C2C2C" stop-opacity="1"/>
<stop offset="0.5" stop-color="#FFFFFF" stop-opacity="1"/>
<stop offset="1" stop-color="#2C2C2C" stop-opacity="1"/>
</linearGradient>
<linearGradient x1="0.000000%" y1="50.000000%" x2="100.000000%" y2="50.000000%" id="lgradient89_1">
<stop offset="0" stop-color="#2C2C2C" stop-opacity="1"/>
<stop offset="0.5" stop-color="#FFFFFF" stop-opacity="1"/>
<stop offset="1" stop-color="#2C2C2C" stop-opacity="1"/>
</linearGradient>
<radialGradient cx="50.000000%" cy="50.000000%" r="50.000000%" fx="50.000000%" fy="50.000000%" id="rgradient90">
<stop offset="0%" stop-color="#FFFFFF" stop-opacity="1"/>
<stop offset="100%" stop-color="#2C2C2C" stop-opacity="1"/>
</radialGradient>
<linearGradient x1="0.000000%" y1="50.000000%" x2="100.000000%" y2="50.000000%" id="lgradient91">
<stop offset="0" stop-color="#2C2C2C" stop-opacity="1"/>
<stop offset="0.5" stop-color="#FFFFFF" stop-opacity="1"/>
<stop offset="1" stop-color="#2C2C2C" stop-opacity="1"/>
</linearGradient>
</defs>
<line shape-type="limitline" x1="78" y1="411" x2="1146" y2="411" fill="#FFFFFF" stroke="#FFFFFF" stroke-width="1.00"/>
<line shape-type="limitline" x1="76" y1="479" x2="1165" y2="479" fill="#FFFFFF" stroke="#FFFFFF" stroke-width="1.00"/>
<g shape-type="group">
<polygon shape-type="trapezium" points="70,405 70,419 83,412 83,412 70,405" fill="#808080" stroke="#FFFFFF" stroke-width="1.00"/>
<rect shape-type="rectangle" x="42" y="408" width="28" height="8" fill="#808080" stroke="#FFFFFF" stroke-width="1.00"/>
</g>
<g shape-type="group">
<polygon shape-type="trapezium" points="66,472 66,486 79,479 79,479 66,472" fill="#808080" stroke="#FFFFFF" stroke-width="1.00"/>
<rect shape-type="rectangle" x="38" y="476" width="28" height="7" fill="#808080" stroke="#FFFFFF" stroke-width="1.00"/>
</g>
<line shape-type="limitline" x1="166" y1="555" x2="1193" y2="555" fill="#FFFFFF" stroke="#FFFFFF" stroke-width="1.00"/>
<line shape-type="limitline" x1="196" y1="531" x2="1224" y2="531" fill="#FFFFFF" stroke="#FFFFFF" stroke-width="1.00"/>
<g shape-type="group">
<rect shape-type="rectangle" x="991" y="117" width="18" height="26" fill="url(#lgradient7_0)" stroke="#000000" stroke-width="1.00"/>
<rect shape-type="rectangle" x="984" y="111" width="34" height="10" fill="url(#lgradient7_1)" stroke="#000000" stroke-width="1.00"/>
</g>
<ellipse shape-type="ellipse" cx="973" cy="149" rx="52" ry="23" fill="url(#rgradient8)" stroke="#000000" stroke-width="1.00"/>
<rect shape-type="rectangle" x="920" y="145" width="106" height="140" fill="url(#lgradient9)" stroke="#000000" stroke-width="1.00"/>
<line shape-type="limitline" x1="934" y1="284" x2="933" y2="130" fill="#FFFFFF" stroke="#000000" stroke-width="1.00"/>
<rect shape-type="rectangle" x="939" y="222" width="14" height="63" fill="#FFFFFF" stroke="#000000" stroke-width="1.00"/>
<rect shape-type="rectangle" x="1007" y="222" width="15" height="63" fill="#FFFFFF" stroke="#000000" stroke-width="1.00"/>
<ellipse shape-type="ellipse" cx="980" cy="253" rx="10" ry="10" fill="#808080" stroke="#000000" stroke-width="1.00"/>
<g shape-type="group">
<rect shape-type="rectangle" x="939" y="180" width="81" height="19" fill="#FFFFFF" stroke="#000000" stroke-width="1.00"/>
<rect shape-type="rectangle" x="939" y="198" width="81" height="19" fill="#FFFFFF" stroke="#000000" stroke-width="1.00"/>
</g>
<rect shape-type="rectangle" x="926" y="156" width="96" height="17" fill="#FFFFFF" stroke="#000000" stroke-width="1.00"/>
<text font-family="宋体" text-anchor="start" fill="#000000" shape-type="text" id="" font-size="12.500000" x="932" y="195">20LI_01202C</text>
<text font-family="宋体" text-anchor="start" fill="#000000" shape-type="text" id="" font-size="12.500000" x="1000" y="210">m</text>
<line shape-type="limitline" x1="807" y1="191" x2="920" y2="192" fill="#FFFFFF" stroke="#FFFFFF" stroke-width="1.00"/>
<line shape-type="limitline" x1="807" y1="409" x2="806" y2="191" fill="#FFFFFF" stroke="#FFFFFF" stroke-width="1.00"/>
<line shape-type="limitline" x1="828" y1="403" x2="827" y2="192" fill="#FFFFFF" stroke="#FFFFFF" stroke-width="1.00"/>
<line shape-type="limitline" x1="827" y1="477" x2="826" y2="418" fill="#FFFFFF" stroke="#FFFFFF" stroke-width="1.00"/>
<line shape-type="limitline" x1="854" y1="405" x2="853" y2="194" fill="#FFFFFF" stroke="#FFFFFF" stroke-width="1.00"/>
<line shape-type="limitline" x1="853" y1="476" x2="852" y2="417" fill="#FFFFFF" stroke="#FFFFFF" stroke-width="1.00"/>
<line shape-type="limitline" x1="855" y1="488" x2="855" y2="523" fill="#FFFFFF" stroke="#FFFFFF" stroke-width="1.00"/>
<line shape-type="limitline" x1="890" y1="210" x2="917" y2="211" fill="#FFFFFF" stroke="#FFFFFF" stroke-width="1.00"/>
<line shape-type="limitline" x1="885" y1="399" x2="884" y2="210" fill="#FFFFFF" stroke="#FFFFFF" stroke-width="1.00"/>
<line shape-type="limitline" x1="885" y1="470" x2="884" y2="416" fill="#FFFFFF" stroke="#FFFFFF" stroke-width="1.00"/>
<line shape-type="limitline" x1="886" y1="482" x2="885" y2="529" fill="#FFFFFF" stroke="#FFFFFF" stroke-width="1.00"/>
<g shape-type="group">
<rect shape-type="rectangle" x="1328" y="117" width="19" height="26" fill="url(#lgradient29_0)" stroke="#000000" stroke-width="1.00"/>
<rect shape-type="rectangle" x="1322" y="111" width="33" height="10" fill="url(#lgradient29_1)" stroke="#000000" stroke-width="1.00"/>
</g>
<ellipse shape-type="ellipse" cx="1310" cy="149" rx="52" ry="23" fill="url(#rgradient30)" stroke="#000000" stroke-width="1.00"/>
<rect shape-type="rectangle" x="1257" y="145" width="107" height="140" fill="url(#lgradient31)" stroke="#000000" stroke-width="1.00"/>
<line shape-type="limitline" x1="1272" y1="284" x2="1271" y2="130" fill="#FFFFFF" stroke="#000000" stroke-width="1.00"/>
<rect shape-type="rectangle" x="1276" y="222" width="15" height="63" fill="#FFFFFF" stroke="#000000" stroke-width="1.00"/>
<rect shape-type="rectangle" x="1345" y="222" width="14" height="63" fill="#FFFFFF" stroke="#000000" stroke-width="1.00"/>
<ellipse shape-type="ellipse" cx="1317" cy="253" rx="10" ry="10" fill="#808080" stroke="#000000" stroke-width="1.00"/>
<g shape-type="group">
<rect shape-type="rectangle" x="1276" y="180" width="81" height="19" fill="#FFFFFF" stroke="#000000" stroke-width="1.00"/>
<rect shape-type="rectangle" x="1276" y="198" width="81" height="19" fill="#FFFFFF" stroke="#000000" stroke-width="1.00"/>
</g>
<rect shape-type="rectangle" x="1264" y="156" width="95" height="17" fill="#FFFFFF" stroke="#000000" stroke-width="1.00"/>
<text font-family="宋体" text-anchor="start" fill="#000000" shape-type="text" id="" font-size="12.500000" x="1270" y="195">20LI_01202D</text>
<text font-family="宋体" text-anchor="start" fill="#000000" shape-type="text" id="" font-size="12.500000" x="1338" y="210">m</text>
<line shape-type="limitline" x1="1145" y1="191" x2="1257" y2="192" fill="#FFFFFF" stroke="#FFFFFF" stroke-width="1.00"/>
<line shape-type="limitline" x1="1145" y1="409" x2="1144" y2="191" fill="#FFFFFF" stroke="#FFFFFF" stroke-width="1.00"/>
<line shape-type="limitline" x1="1166" y1="192" x2="1166" y2="478" fill="#FFFFFF" stroke="#FFFFFF" stroke-width="1.00"/>
<line shape-type="limitline" x1="1193" y1="194" x2="1193" y2="525" fill="#FFFFFF" stroke="#FFFFFF" stroke-width="1.00"/>
<line shape-type="limitline" x1="1193" y1="553" x2="1193" y2="536" fill="#FFFFFF" stroke="#FFFFFF" stroke-width="1.00"/>
<line shape-type="limitline" x1="1257" y1="210" x2="1223" y2="210" fill="#FFFFFF" stroke="#FFFFFF" stroke-width="1.00"/>
<line shape-type="limitline" x1="1223" y1="210" x2="1223" y2="530" fill="#FFFFFF" stroke="#FFFFFF" stroke-width="1.00"/>
<g shape-type="group">
<rect shape-type="rectangle" x="646" y="118" width="19" height="27" fill="url(#lgradient47_0)" stroke="#000000" stroke-width="1.00"/>
<rect shape-type="rectangle" x="640" y="113" width="33" height="9" fill="url(#lgradient47_1)" stroke="#000000" stroke-width="1.00"/>
</g>
<ellipse shape-type="ellipse" cx="628" cy="151" rx="52" ry="23" fill="url(#rgradient48)" stroke="#000000" stroke-width="1.00"/>
<rect shape-type="rectangle" x="575" y="147" width="106" height="141" fill="url(#lgradient49)" stroke="#000000" stroke-width="1.00"/>
<line shape-type="limitline" x1="590" y1="286" x2="589" y2="132" fill="#FFFFFF" stroke="#000000" stroke-width="1.00"/>
<rect shape-type="rectangle" x="594" y="224" width="14" height="64" fill="#FFFFFF" stroke="#000000" stroke-width="1.00"/>
<rect shape-type="rectangle" x="663" y="224" width="14" height="64" fill="#FFFFFF" stroke="#000000" stroke-width="1.00"/>
<ellipse shape-type="ellipse" cx="636" cy="255" rx="10" ry="10" fill="#808080" stroke="#000000" stroke-width="1.00"/>
<g shape-type="group">
<rect shape-type="rectangle" x="594" y="182" width="81" height="19" fill="#FFFFFF" stroke="#000000" stroke-width="1.00"/>
<rect shape-type="rectangle" x="594" y="200" width="81" height="19" fill="#FFFFFF" stroke="#000000" stroke-width="1.00"/>
</g>
<rect shape-type="rectangle" x="581" y="158" width="96" height="17" fill="#FFFFFF" stroke="#000000" stroke-width="1.00"/>
<text font-family="宋体" text-anchor="start" fill="#000000" shape-type="text" id="" font-size="12.500000" x="588" y="197">20LI_01202B</text>
<text font-family="宋体" text-anchor="start" fill="#000000" shape-type="text" id="" font-size="12.500000" x="655" y="212">m</text>
<g shape-type="group">
<rect shape-type="rectangle" x="701" y="250" width="81" height="20" fill="#FFFFFF" stroke="#000000" stroke-width="1.00"/>
<rect shape-type="rectangle" x="701" y="269" width="81" height="19" fill="#FFFFFF" stroke="#000000" stroke-width="1.00"/>
</g>
<line shape-type="limitline" x1="463" y1="193" x2="575" y2="193" fill="#FFFFFF" stroke="#FFFFFF" stroke-width="1.00"/>
<line shape-type="limitline" x1="463" y1="411" x2="462" y2="193" fill="#FFFFFF" stroke="#FFFFFF" stroke-width="1.00"/>
<line shape-type="limitline" x1="483" y1="405" x2="482" y2="194" fill="#FFFFFF" stroke="#FFFFFF" stroke-width="1.00"/>
<line shape-type="limitline" x1="482" y1="479" x2="481" y2="420" fill="#FFFFFF" stroke="#FFFFFF" stroke-width="1.00"/>
<line shape-type="limitline" x1="509" y1="407" x2="508" y2="196" fill="#FFFFFF" stroke="#FFFFFF" stroke-width="1.00"/>
<line shape-type="limitline" x1="508" y1="478" x2="507" y2="419" fill="#FFFFFF" stroke="#FFFFFF" stroke-width="1.00"/>
<line shape-type="limitline" x1="510" y1="490" x2="510" y2="525" fill="#FFFFFF" stroke="#FFFFFF" stroke-width="1.00"/>
<line shape-type="limitline" x1="545" y1="213" x2="572" y2="214" fill="#FFFFFF" stroke="#FFFFFF" stroke-width="1.00"/>
<line shape-type="limitline" x1="541" y1="401" x2="540" y2="213" fill="#FFFFFF" stroke="#FFFFFF" stroke-width="1.00"/>
<line shape-type="limitline" x1="541" y1="472" x2="540" y2="418" fill="#FFFFFF" stroke="#FFFFFF" stroke-width="1.00"/>
<line shape-type="limitline" x1="542" y1="484" x2="541" y2="531" fill="#FFFFFF" stroke="#FFFFFF" stroke-width="1.00"/>
<line shape-type="limitline" x1="510" y1="536" x2="510" y2="551" fill="#FFFFFF" stroke="#FFFFFF" stroke-width="1.00"/>
<line shape-type="limitline" x1="855" y1="537" x2="855" y2="552" fill="#FFFFFF" stroke="#FFFFFF" stroke-width="1.00"/>
<g shape-type="group">
<polygon shape-type="trapezium" points="535,688 492,688 514,667 514,667 535,688" fill="#C0C0C0" stroke="#FFFFFF" stroke-width="1.00"/>
<ellipse shape-type="ellipse" cx="513" cy="669" rx="15" ry="15" fill="#C0C0C0" stroke="#FFFFFF" stroke-width="1.00"/>
<ellipse shape-type="ellipse" cx="513" cy="667" rx="10" ry="10" fill="#FF0000" stroke="#FFFFFF" stroke-width="1.00"/>
<ellipse shape-type="ellipse" cx="479" cy="654" rx="10" ry="9" fill="#FFFFFF" stroke="#FFFFFF" stroke-width="1.00"/>
</g>
<line shape-type="limitline" x1="417" y1="551" x2="417" y2="533" fill="#FFFFFF" stroke="#FFFFFF" stroke-width="1.00"/>
<line shape-type="limitline" x1="416" y1="561" x2="416" y2="668" fill="#FFFFFF" stroke="#FFFFFF" stroke-width="1.00"/>
<line shape-type="limitline" x1="497" y1="669" x2="416" y2="669" fill="#FFFFFF" stroke="#FFFFFF" stroke-width="1.00"/>
<line shape-type="limitline" x1="515" y1="598" x2="515" y2="656" fill="#FFFFFF" stroke="#FFFFFF" stroke-width="1.00"/>
<line shape-type="limitline" x1="1489" y1="597" x2="515" y2="597" fill="#FFFFFF" stroke="#FFFFFF" stroke-width="1.00"/>
<line shape-type="limitline" x1="484" y1="620" x2="484" y2="555" fill="#FFFFFF" stroke="#FFFFFF" stroke-width="1.00"/>
<line shape-type="limitline" x1="516" y1="621" x2="484" y2="621" fill="#FFFFFF" stroke="#FFFFFF" stroke-width="1.00"/>
<g shape-type="group">
<g shape-type="group">
<polygon shape-type="trapezium" points="703,689 660,689 682,668 682,668 703,689" fill="#C0C0C0" stroke="#FFFFFF" stroke-width="1.00"/>
<ellipse shape-type="ellipse" cx="682" cy="670" rx="15" ry="15" fill="#C0C0C0" stroke="#FFFFFF" stroke-width="1.00"/>
<ellipse shape-type="ellipse" cx="682" cy="668" rx="10" ry="10" fill="#FF0000" stroke="#FFFFFF" stroke-width="1.00"/>
<ellipse shape-type="ellipse" cx="648" cy="655" rx="9" ry="9" fill="#FFFFFF" stroke="#FFFFFF" stroke-width="1.00"/>
</g>
<line shape-type="limitline" x1="610" y1="553" x2="609" y2="533" fill="#FFFFFF" stroke="#FFFFFF" stroke-width="1.00"/>
<line shape-type="limitline" x1="610" y1="595" x2="609" y2="561" fill="#FFFFFF" stroke="#FFFFFF" stroke-width="1.00"/>
<line shape-type="limitline" x1="610" y1="602" x2="609" y2="666" fill="#FFFFFF" stroke="#FFFFFF" stroke-width="1.00"/>
<line shape-type="limitline" x1="666" y1="667" x2="610" y2="668" fill="#FFFFFF" stroke="#FFFFFF" stroke-width="1.00"/>
<line shape-type="limitline" x1="688" y1="656" x2="687" y2="597" fill="#FFFFFF" stroke="#FFFFFF" stroke-width="1.00"/>
<line shape-type="limitline" x1="665" y1="590" x2="664" y2="558" fill="#FFFFFF" stroke="#FFFFFF" stroke-width="1.00"/>
<line shape-type="limitline" x1="665" y1="630" x2="664" y2="602" fill="#FFFFFF" stroke="#FFFFFF" stroke-width="1.00"/>
<line shape-type="limitline" x1="689" y1="631" x2="665" y2="632" fill="#FFFFFF" stroke="#FFFFFF" stroke-width="1.00"/>
</g>
<g shape-type="group">
<g shape-type="group">
<polygon shape-type="trapezium" points="857,690 814,690 836,669 836,669 857,690" fill="#C0C0C0" stroke="#FFFFFF" stroke-width="1.00"/>
<ellipse shape-type="ellipse" cx="834" cy="671" rx="15" ry="15" fill="#C0C0C0" stroke="#FFFFFF" stroke-width="1.00"/>
<ellipse shape-type="ellipse" cx="834" cy="670" rx="10" ry="10" fill="#FF0000" stroke="#FFFFFF" stroke-width="1.00"/>
<ellipse shape-type="ellipse" cx="800" cy="656" rx="9" ry="9" fill="#FFFFFF" stroke="#FFFFFF" stroke-width="1.00"/>
</g>
<line shape-type="limitline" x1="764" y1="554" x2="763" y2="535" fill="#FFFFFF" stroke="#FFFFFF" stroke-width="1.00"/>
<line shape-type="limitline" x1="764" y1="596" x2="763" y2="562" fill="#FFFFFF" stroke="#FFFFFF" stroke-width="1.00"/>
<line shape-type="limitline" x1="764" y1="603" x2="763" y2="667" fill="#FFFFFF" stroke="#FFFFFF" stroke-width="1.00"/>
<line shape-type="limitline" x1="819" y1="668" x2="764" y2="669" fill="#FFFFFF" stroke="#FFFFFF" stroke-width="1.00"/>
<line shape-type="limitline" x1="841" y1="657" x2="840" y2="598" fill="#FFFFFF" stroke="#FFFFFF" stroke-width="1.00"/>
<line shape-type="limitline" x1="818" y1="591" x2="817" y2="560" fill="#FFFFFF" stroke="#FFFFFF" stroke-width="1.00"/>
<line shape-type="limitline" x1="818" y1="631" x2="817" y2="603" fill="#FFFFFF" stroke="#FFFFFF" stroke-width="1.00"/>
<line shape-type="limitline" x1="842" y1="632" x2="818" y2="633" fill="#FFFFFF" stroke="#FFFFFF" stroke-width="1.00"/>
</g>
<g shape-type="group">
<g shape-type="group">
<polygon shape-type="trapezium" points="1015,690 972,690 994,669 994,669 1015,690" fill="#C0C0C0" stroke="#FFFFFF" stroke-width="1.00"/>
<ellipse shape-type="ellipse" cx="992" cy="671" rx="15" ry="15" fill="#C0C0C0" stroke="#FFFFFF" stroke-width="1.00"/>
<ellipse shape-type="ellipse" cx="992" cy="670" rx="10" ry="10" fill="#FF0000" stroke="#FFFFFF" stroke-width="1.00"/>
<ellipse shape-type="ellipse" cx="959" cy="656" rx="10" ry="9" fill="#FFFFFF" stroke="#FFFFFF" stroke-width="1.00"/>
</g>
<line shape-type="limitline" x1="922" y1="554" x2="921" y2="535" fill="#FFFFFF" stroke="#FFFFFF" stroke-width="1.00"/>
<line shape-type="limitline" x1="922" y1="596" x2="921" y2="562" fill="#FFFFFF" stroke="#FFFFFF" stroke-width="1.00"/>
<line shape-type="limitline" x1="922" y1="603" x2="921" y2="667" fill="#FFFFFF" stroke="#FFFFFF" stroke-width="1.00"/>
<line shape-type="limitline" x1="977" y1="668" x2="922" y2="669" fill="#FFFFFF" stroke="#FFFFFF" stroke-width="1.00"/>
<line shape-type="limitline" x1="999" y1="657" x2="998" y2="598" fill="#FFFFFF" stroke="#FFFFFF" stroke-width="1.00"/>
<line shape-type="limitline" x1="976" y1="591" x2="975" y2="560" fill="#FFFFFF" stroke="#FFFFFF" stroke-width="1.00"/>
<line shape-type="limitline" x1="976" y1="631" x2="975" y2="603" fill="#FFFFFF" stroke="#FFFFFF" stroke-width="1.00"/>
<line shape-type="limitline" x1="1000" y1="632" x2="976" y2="633" fill="#FFFFFF" stroke="#FFFFFF" stroke-width="1.00"/>
</g>
<line shape-type="limitline" x1="1200" y1="701" x2="1200" y2="599" fill="#FFFFFF" stroke="#FFFFFF" stroke-width="1.00"/>
<line shape-type="limitline" x1="1504" y1="701" x2="1200" y2="701" fill="#FFFFFF" stroke="#FFFFFF" stroke-width="1.00"/>
<line shape-type="limitline" x1="1504" y1="647" x2="1200" y2="647" fill="#FFFFFF" stroke="#FFFFFF" stroke-width="1.00"/>
<g shape-type="group">
<polygon shape-type="trapezium" points="1498,589 1498,603 1511,596 1511,596 1498,589" fill="#808080" stroke="#FFFFFF" stroke-width="1.00"/>
<rect shape-type="rectangle" x="1470" y="593" width="28" height="7" fill="#808080" stroke="#FFFFFF" stroke-width="1.00"/>
</g>
<g shape-type="group">
<polygon shape-type="trapezium" points="1502,640 1502,654 1516,647 1516,647 1502,640" fill="#808080" stroke="#FFFFFF" stroke-width="1.00"/>
<rect shape-type="rectangle" x="1475" y="644" width="27" height="7" fill="#808080" stroke="#FFFFFF" stroke-width="1.00"/>
</g>
<g shape-type="group">
<polygon shape-type="trapezium" points="1505,694 1505,708 1519,701 1519,701 1505,694" fill="#808080" stroke="#FFFFFF" stroke-width="1.00"/>
<rect shape-type="rectangle" x="1478" y="698" width="27" height="7" fill="#808080" stroke="#FFFFFF" stroke-width="1.00"/>
</g>
<g shape-type="group">
<rect shape-type="rectangle" x="300" y="118" width="19" height="27" fill="url(#lgradient89_0)" stroke="#000000" stroke-width="1.00"/>
<rect shape-type="rectangle" x="294" y="113" width="33" height="9" fill="url(#lgradient89_1)" stroke="#000000" stroke-width="1.00"/>
</g>
<ellipse shape-type="ellipse" cx="282" cy="151" rx="52" ry="23" fill="url(#rgradient90)" stroke="#000000" stroke-width="1.00"/>
<rect shape-type="rectangle" x="229" y="147" width="106" height="141" fill="url(#lgradient91)" stroke="#000000" stroke-width="1.00"/>
<line shape-type="limitline" x1="244" y1="287" x2="243" y2="132" fill="#FFFFFF" stroke="#000000" stroke-width="1.00"/>
<rect shape-type="rectangle" x="248" y="224" width="15" height="64" fill="#FFFFFF" stroke="#000000" stroke-width="1.00"/>
<rect shape-type="rectangle" x="317" y="224" width="14" height="64" fill="#FFFFFF" stroke="#000000" stroke-width="1.00"/>
<ellipse shape-type="ellipse" cx="290" cy="255" rx="10" ry="10" fill="#808080" stroke="#000000" stroke-width="1.00"/>
<g shape-type="group">
<rect shape-type="rectangle" x="248" y="182" width="81" height="19" fill="#FFFFFF" stroke="#000000" stroke-width="1.00"/>
<rect shape-type="rectangle" x="248" y="200" width="81" height="19" fill="#FFFFFF" stroke="#000000" stroke-width="1.00"/>
</g>
<rect shape-type="rectangle" x="235" y="158" width="96" height="17" fill="#FFFFFF" stroke="#000000" stroke-width="1.00"/>
<text font-family="宋体" text-anchor="start" fill="#000000" shape-type="text" id="" font-size="11.750000" x="242" y="197">20LI_01202A</text>
<text font-family="宋体" text-anchor="start" fill="#000000" shape-type="text" id="" font-size="12.500000" x="309" y="212">m</text>
<line shape-type="limitline" x1="116" y1="193" x2="229" y2="194" fill="#FFFFFF" stroke="#FFFFFF" stroke-width="1.00"/>
<line shape-type="limitline" x1="116" y1="412" x2="115" y2="193" fill="#FFFFFF" stroke="#FFFFFF" stroke-width="1.00"/>
<line shape-type="limitline" x1="138" y1="405" x2="137" y2="194" fill="#FFFFFF" stroke="#FFFFFF" stroke-width="1.00"/>
<line shape-type="limitline" x1="136" y1="479" x2="135" y2="420" fill="#FFFFFF" stroke="#FFFFFF" stroke-width="1.00"/>
<line shape-type="limitline" x1="164" y1="407" x2="163" y2="196" fill="#FFFFFF" stroke="#FFFFFF" stroke-width="1.00"/>
<line shape-type="limitline" x1="163" y1="478" x2="162" y2="419" fill="#FFFFFF" stroke="#FFFFFF" stroke-width="1.00"/>
<line shape-type="limitline" x1="165" y1="490" x2="164" y2="555" fill="#FFFFFF" stroke="#FFFFFF" stroke-width="1.00"/>
<line shape-type="limitline" x1="199" y1="213" x2="226" y2="214" fill="#FFFFFF" stroke="#FFFFFF" stroke-width="1.00"/>
<line shape-type="limitline" x1="195" y1="401" x2="194" y2="213" fill="#FFFFFF" stroke="#FFFFFF" stroke-width="1.00"/>
<line shape-type="limitline" x1="195" y1="472" x2="194" y2="418" fill="#FFFFFF" stroke="#FFFFFF" stroke-width="1.00"/>
<line shape-type="limitline" x1="196" y1="485" x2="195" y2="531" fill="#FFFFFF" stroke="#FFFFFF" stroke-width="1.00"/>
<g shape-type="group">
<polygon shape-type="trapezium" points="516,189 516,199 531,194 531,194 516,189" fill="#00FF00" stroke="#FFFFFF" stroke-width="1.00"/>
<polygon shape-type="trapezium" points="547,189 547,199 532,194 532,194 547,189" fill="#00FF00" stroke="#FFFFFF" stroke-width="1.00"/>
<line shape-type="limitline" x1="531" y1="195" x2="530" y2="178" fill="#00FF00" stroke="#FFFFFF" stroke-width="1.00"/>
<rect shape-type="rectangle" x="518" y="173" width="29" height="12" fill="#00FF00" stroke="#FFFFFF" stroke-width="1.00"/>
</g>
<g shape-type="group">
<polygon shape-type="trapezium" points="175,188 175,198 191,193 191,193 175,188" fill="#00FF00" stroke="#FFFFFF" stroke-width="1.00"/>
<polygon shape-type="trapezium" points="206,188 206,198 192,193 192,193 206,188" fill="#00FF00" stroke="#FFFFFF" stroke-width="1.00"/>
<line shape-type="limitline" x1="191" y1="194" x2="190" y2="177" fill="#00FF00" stroke="#FFFFFF" stroke-width="1.00"/>
<rect shape-type="rectangle" x="177" y="172" width="29" height="11" fill="#00FF00" stroke="#FFFFFF" stroke-width="1.00"/>
</g>
<g shape-type="group">
<polygon shape-type="trapezium" points="863,185 863,195 877,190 877,190 863,185" fill="#00FF00" stroke="#FFFFFF" stroke-width="1.00"/>
<polygon shape-type="trapezium" points="893,185 893,195 878,190 878,190 893,185" fill="#00FF00" stroke="#FFFFFF" stroke-width="1.00"/>
<line shape-type="limitline" x1="877" y1="191" x2="876" y2="174" fill="#00FF00" stroke="#FFFFFF" stroke-width="1.00"/>
<rect shape-type="rectangle" x="864" y="169" width="29" height="11" fill="#00FF00" stroke="#FFFFFF" stroke-width="1.00"/>
</g>
<g shape-type="group">
<polygon shape-type="trapezium" points="1199,186 1199,196 1215,191 1215,191 1199,186" fill="#00FF00" stroke="#FFFFFF" stroke-width="1.00"/>
<polygon shape-type="trapezium" points="1230,186 1230,196 1216,191 1216,191 1230,186" fill="#00FF00" stroke="#FFFFFF" stroke-width="1.00"/>
<line shape-type="limitline" x1="1215" y1="192" x2="1214" y2="175" fill="#00FF00" stroke="#FFFFFF" stroke-width="1.00"/>
<rect shape-type="rectangle" x="1201" y="170" width="29" height="11" fill="#00FF00" stroke="#FFFFFF" stroke-width="1.00"/>
</g>
<polygon shape-type="trapezium" points="218,187 218,199 228,193 228,193 218,187" fill="#FFFFFF" stroke="#FFFFFF" stroke-width="1.00"/>
<polygon shape-type="trapezium" points="566,187 566,199 576,193 576,193 566,187" fill="#FFFFFF" stroke="#FFFFFF" stroke-width="1.00"/>
<polygon shape-type="trapezium" points="913,184 913,196 923,190 923,190 913,184" fill="#FFFFFF" stroke="#FFFFFF" stroke-width="1.00"/>
<polygon shape-type="trapezium" points="1248,185 1248,197 1258,191 1258,191 1248,185" fill="#FFFFFF" stroke="#FFFFFF" stroke-width="1.00"/>
<rect shape-type="rectangle" x="355" y="250" width="81" height="20" fill="#FFFF00" stroke="#000000" stroke-width="1.00"/>
<rect shape-type="rectangle" x="355" y="269" width="81" height="19" fill="#FFFFFF" stroke="#000000" stroke-width="1.00"/>
<rect shape-type="rectangle" x="1046" y="248" width="81" height="20" fill="#FFFF00" stroke="#000000" stroke-width="1.00"/>
<rect shape-type="rectangle" x="1046" y="267" width="81" height="19" fill="#FFFFFF" stroke="#000000" stroke-width="1.00"/>
<rect shape-type="rectangle" x="1383" y="248" width="82" height="20" fill="#FFFF00" stroke="#000000" stroke-width="1.00"/>
<rect shape-type="rectangle" x="1383" y="267" width="82" height="18" fill="#FFFFFF" stroke="#000000" stroke-width="1.00"/>
<g shape-type="group">
<rect shape-type="rectangle" x="81" y="122" width="82" height="20" fill="#FFFFFF" stroke="#000000" stroke-width="1.00"/>
<rect shape-type="rectangle" x="81" y="141" width="82" height="20" fill="#FFFFFF" stroke="#000000" stroke-width="1.00"/>
</g>
<g shape-type="group">
<rect shape-type="rectangle" x="469" y="114" width="81" height="19" fill="#FFFFFF" stroke="#000000" stroke-width="1.00"/>
<rect shape-type="rectangle" x="469" y="132" width="81" height="20" fill="#FFFFFF" stroke="#000000" stroke-width="1.00"/>
</g>
<g shape-type="group">
<rect shape-type="rectangle" x="822" y="117" width="81" height="19" fill="#FFFFFF" stroke="#000000" stroke-width="1.00"/>
<rect shape-type="rectangle" x="822" y="135" width="81" height="20" fill="#FFFFFF" stroke="#000000" stroke-width="1.00"/>
</g>
<g shape-type="group">
<rect shape-type="rectangle" x="1165" y="117" width="81" height="20" fill="#FFFFFF" stroke="#000000" stroke-width="1.00"/>
<rect shape-type="rectangle" x="1165" y="136" width="81" height="19" fill="#FFFFFF" stroke="#000000" stroke-width="1.00"/>
</g>
<line shape-type="limitline" x1="99" y1="36" x2="1271" y2="36" fill="#FFFFFF" stroke="#FFFF00" stroke-width="1.00"/>
<line shape-type="limitline" x1="1271" y1="88" x2="1271" y2="36" fill="#FFFFFF" stroke="#FFFF00" stroke-width="1.00"/>
<line shape-type="limitline" x1="1314" y1="88" x2="1271" y2="88" fill="#FFFFFF" stroke="#FFFF00" stroke-width="1.00"/>
<line shape-type="limitline" x1="1314" y1="126" x2="1314" y2="88" fill="#FFFFFF" stroke="#FFFF00" stroke-width="1.00"/>
<line shape-type="limitline" x1="934" y1="88" x2="934" y2="36" fill="#FFFFFF" stroke="#FFFF00" stroke-width="1.00"/>
<line shape-type="limitline" x1="977" y1="88" x2="934" y2="88" fill="#FFFFFF" stroke="#FFFF00" stroke-width="1.00"/>
<line shape-type="limitline" x1="977" y1="126" x2="977" y2="88" fill="#FFFFFF" stroke="#FFFF00" stroke-width="1.00"/>
<line shape-type="limitline" x1="585" y1="92" x2="585" y2="40" fill="#FFFFFF" stroke="#FFFF00" stroke-width="1.00"/>
<line shape-type="limitline" x1="628" y1="92" x2="585" y2="92" fill="#FFFFFF" stroke="#FFFF00" stroke-width="1.00"/>
<line shape-type="limitline" x1="628" y1="130" x2="628" y2="92" fill="#FFFFFF" stroke="#FFFF00" stroke-width="1.00"/>
<line shape-type="limitline" x1="242" y1="89" x2="242" y2="37" fill="#FFFFFF" stroke="#FFFF00" stroke-width="1.00"/>
<line shape-type="limitline" x1="285" y1="89" x2="242" y2="89" fill="#FFFFFF" stroke="#FFFF00" stroke-width="1.00"/>
<line shape-type="limitline" x1="285" y1="127" x2="285" y2="89" fill="#FFFFFF" stroke="#FFFF00" stroke-width="1.00"/>
<g shape-type="group">
<polygon shape-type="trapezium" points="85,29 85,43 99,36 99,36 85,29" fill="#808080" stroke="#FFFFFF" stroke-width="1.00"/>
<rect shape-type="rectangle" x="58" y="32" width="27" height="8" fill="#808080" stroke="#FFFFFF" stroke-width="1.00"/>
</g>
<text font-family="宋体" text-anchor="start" fill="#FFFFFF" shape-type="text" id="" font-size="12.500000" x="160" y="210">20XV01201A</text>
<text font-family="宋体" text-anchor="start" fill="#FFFFFF" shape-type="text" id="" font-size="12.500000" x="497" y="209">20XV01201B</text>
<text font-family="宋体" text-anchor="start" fill="#FFFFFF" shape-type="text" id="" font-size="12.500000" x="842" y="207">20XV01201C</text>
<text font-family="宋体" text-anchor="start" fill="#FFFFFF" shape-type="text" id="" font-size="12.500000" x="1177" y="209">20XV01201D</text>
<text font-family="宋体" text-anchor="start" fill="#FFFFFF" shape-type="text" id="" font-size="12.500000" x="35" y="399">来自MTBE1</text>
<text font-family="宋体" text-anchor="start" fill="#FFFFFF" shape-type="text" id="" font-size="12.500000" x="38" y="464">来自MTBE2</text>
<text font-family="宋体" text-anchor="start" fill="#FFFFFF" shape-type="text" id="" font-size="12.500000" x="1448" y="584">去润泽</text>
<text font-family="宋体" text-anchor="start" fill="#FFFFFF" shape-type="text" id="" font-size="12.500000" x="1451" y="640">去装车</text>
<text font-family="宋体" text-anchor="start" fill="#FFFFFF" shape-type="text" id="" font-size="12.500000" x="1461" y="691">去装车</text>
<g shape-type="group">
<rect shape-type="rectangle" x="1285" y="529" width="81" height="20" fill="#FFFFFF" stroke="#000000" stroke-width="1.00"/>
<rect shape-type="rectangle" x="1285" y="548" width="81" height="19" fill="#FFFFFF" stroke="#000000" stroke-width="1.00"/>
</g>
<text font-family="宋体" text-anchor="start" fill="#FFFF00" shape-type="text" id="" font-size="12.500000" x="439" y="266">L</text>
<text font-family="宋体" text-anchor="start" fill="#FFFF00" shape-type="text" id="" font-size="12.500000" x="1132" y="260">L</text>
<text font-family="宋体" text-anchor="start" fill="#FFFF00" shape-type="text" id="" font-size="12.500000" x="1474" y="261">L</text>
<text font-family="宋体" text-anchor="start" fill="#000000" shape-type="text" id="" font-size="11.750000" x="76" y="136">20TI_01201A</text>
<text font-family="宋体" text-anchor="start" fill="#000000" shape-type="text" id="" font-size="11.750000" x="464" y="129">20TI_01201B</text>
<text font-family="宋体" text-anchor="start" fill="#000000" shape-type="text" id="" font-size="11.750000" x="816" y="131">20TI_01201C</text>
<text font-family="宋体" text-anchor="start" fill="#000000" shape-type="text" id="" font-size="11.750000" x="1159" y="132">20TI_01201D</text>
<text font-family="宋体" text-anchor="start" fill="#FFFFFF" shape-type="text" id="" font-size="11.750000" x="236" y="310">20-TK-1002A</text>
<text font-family="宋体" text-anchor="start" fill="#FFFFFF" shape-type="text" id="" font-size="11.750000" x="588" y="307">20-TK-1002B</text>
<text font-family="宋体" text-anchor="start" fill="#FFFFFF" shape-type="text" id="" font-size="11.750000" x="930" y="305">20-TK-1002C</text>
<text font-family="宋体" text-anchor="start" fill="#FFFFFF" shape-type="text" id="" font-size="11.750000" x="1263" y="305">20-TK-1002D</text>
<text font-family="宋体" text-anchor="start" fill="#000000" shape-type="text" id="" font-size="11.750000" x="353" y="265">20LIA_01203A</text>
<text font-family="宋体" text-anchor="start" fill="#000000" shape-type="text" id="" font-size="11.750000" x="700" y="264">20LIA_01203B</text>
<text font-family="宋体" text-anchor="start" fill="#000000" shape-type="text" id="" font-size="11.750000" x="1045" y="262">20LIA_01203C</text>
<text font-family="宋体" text-anchor="start" fill="#000000" shape-type="text" id="" font-size="11.750000" x="1381" y="262">20LIA_01203D</text>
<text font-family="宋体" text-anchor="start" fill="#000000" shape-type="text" id="" font-size="11.750000" x="1283" y="543">20FI_01201</text>
<text font-family="宋体" text-anchor="start" fill="#000000" shape-type="text" id="" font-size="11.750000" x="1330" y="561">kg/h</text>
<text font-family="宋体" text-anchor="start" fill="#FFFFFF" shape-type="text" id="" font-size="11.750000" x="474" y="706">20-P-1002A</text>
<text font-family="宋体" text-anchor="start" fill="#FFFFFF" shape-type="text" id="" font-size="11.750000" x="640" y="708">20-P-1002B</text>
<text font-family="宋体" text-anchor="start" fill="#FFFFFF" shape-type="text" id="" font-size="11.750000" x="790" y="706">20-P-1002C</text>
<text font-family="宋体" text-anchor="start" fill="#FFFFFF" shape-type="text" id="" font-size="11.750000" x="954" y="705">20-P-1002D</text>
<polygon shape-type="trapezium" points="485,664 485,676 495,670 495,670 485,664" fill="#FFFFFF" stroke="#FFFFFF" stroke-width="1.00"/>
<polygon shape-type="trapezium" points="656,660 656,672 666,666 666,666 656,660" fill="#FFFFFF" stroke="#FFFFFF" stroke-width="1.00"/>
<polygon shape-type="trapezium" points="810,661 810,673 820,667 820,667 810,661" fill="#FFFFFF" stroke="#FFFFFF" stroke-width="1.00"/>
<polygon shape-type="trapezium" points="967,661 967,673 977,667 977,667 967,661" fill="#FFFFFF" stroke="#FFFFFF" stroke-width="1.00"/>
<text font-family="宋体" text-anchor="start" fill="#FFFFFF" shape-type="text" id="" font-size="12.500000" x="47" y="21">来自N2管网</text>
<text font-family="宋体" text-anchor="start" fill="#FF8040" shape-type="text" id="" font-size="22.250000" x="673" y="28">MTBE</text>
<line shape-type="limitline" x1="229" y1="148" x2="160" y2="148" fill="#FFFFFF" stroke="#FFFFFF" stroke-width="1.00" stroke-dasharray="5 10"/>
<line shape-type="limitline" x1="583" y1="141" x2="547" y2="141" fill="#FFFFFF" stroke="#FFFFFF" stroke-width="1.00" stroke-dasharray="5 10"/>
<line shape-type="limitline" x1="926" y1="141" x2="900" y2="141" fill="#FFFFFF" stroke="#FFFFFF" stroke-width="1.00" stroke-dasharray="5 10"/>
<line shape-type="limitline" x1="1264" y1="140" x2="1245" y2="140" fill="#FFFFFF" stroke="#FFFFFF" stroke-width="1.00" stroke-dasharray="5 10"/>
<line shape-type="limitline" x1="1050" y1="270" x2="1022" y2="270" fill="#FFFFFF" stroke="#FFFFFF" stroke-width="1.00" stroke-dasharray="5 10"/>
<line shape-type="limitline" x1="354" y1="269" x2="333" y2="269" fill="#FFFFFF" stroke="#FFFFFF" stroke-width="1.00" stroke-dasharray="5 10"/>
<line shape-type="limitline" x1="703" y1="268" x2="681" y2="268" fill="#FFFFFF" stroke="#FFFFFF" stroke-width="1.00" stroke-dasharray="5 10"/>
<line shape-type="limitline" x1="1385" y1="270" x2="1358" y2="270" fill="#FFFFFF" stroke="#FFFFFF" stroke-width="1.00" stroke-dasharray="5 10"/>
<line shape-type="limitline" x1="1324" y1="597" x2="1324" y2="566" fill="#FFFFFF" stroke="#FFFFFF" stroke-width="1.00" stroke-dasharray="5 10"/>
<text font-family="Arial" text-anchor="start" fill="#000000" shape-type="realdata" id="QH_CY_20TI_01201A" font-size="12.500000" x="53" y="156">XXXXXXXXXX</text>
<text font-family="Arial" text-anchor="start" fill="#000000" shape-type="realdata" id="QH_CY_20TI_01201B" font-size="12.500000" x="443" y="147">XXXXXXXXXX</text>
<text font-family="Arial" text-anchor="start" fill="#000000" shape-type="realdata" id="QH_CY_20TI_01201C" font-size="12.500000" x="796" y="149">XXXXXXXXXX</text>
<text font-family="Arial" text-anchor="start" fill="#000000" shape-type="realdata" id="QH_CY_20TI_01201D" font-size="12.500000" x="1135" y="152">XXXXXXXXXX</text>
<text font-family="Arial" text-anchor="start" fill="#000000" shape-type="realdata" id="QH_CY_20LIA_01203A" font-size="12.500000" x="322" y="284">XXXXXXXXXX</text>
<text font-family="Arial" text-anchor="start" fill="#000000" shape-type="realdata" id="QH_CY_20LIA_01203B" font-size="12.500000" x="672" y="283">XXXXXXXXXX</text>
<text font-family="Arial" text-anchor="start" fill="#000000" shape-type="realdata" id="QH_CY_20LIA_01203C" font-size="12.500000" x="1022" y="283">XXXXXXXXXX</text>
<text font-family="Arial" text-anchor="start" fill="#000000" shape-type="realdata" id="QH_CY_20LIA_01203D" font-size="12.500000" x="1347" y="280">XXXXXXXXXX</text>
<text font-family="Arial" text-anchor="start" fill="#000000" shape-type="realdata" id="QH_CY_20FI_01201" font-size="12.500000" x="1249" y="562">XXXXXXXXXX</text>
<a xlink:href="..\储运总图.svg">
<g shape-type="button">
<rect fill="#C0C0C0" stroke-width="0.3" stroke="#FFFFFF" x="1458" y="732" width="52" height="30" shape-type="buttonrect"/>
<text font-family="宋体" text-anchor="middle" dominant-baseline="middle" fill="#000000" font-size="13.500000" x="1484" y="753" shape-type="buttontext">返回</text>
</g>
</a>
</svg>