<?xml version="1.0"?>
<?xml-stylesheet type='text/javascript'?>
<!--Draw SVG: 2019-11-25 09:41:02 47-Monday-->
<svg xmlns="http://www.w3.org/2000/svg" xmlns:xlink="http://www.w3.org/1999/xlink" version="1.1" style="background-color:#000000" width="1066" height="800" viewbox="0 0 1066 800">
<defs>
<linearGradient x1="0.000000%" y1="50.000000%" x2="100.000000%" y2="50.000000%" id="lgradient5">
<stop offset="0" stop-color="#111111" stop-opacity="1"/>
<stop offset="0.5" stop-color="#636563" stop-opacity="1"/>
<stop offset="1" stop-color="#111111" stop-opacity="1"/>
</linearGradient>
<linearGradient x1="0.000000%" y1="50.000000%" x2="100.000000%" y2="50.000000%" id="lgradient23_0_0">
<stop offset="0" stop-color="#2C2C2C" stop-opacity="1"/>
<stop offset="0.5" stop-color="#FFFFFF" stop-opacity="1"/>
<stop offset="1" stop-color="#2C2C2C" stop-opacity="1"/>
</linearGradient>
<linearGradient x1="0.000000%" y1="50.000000%" x2="100.000000%" y2="50.000000%" id="lgradient23_0_1">
<stop offset="0" stop-color="#2C2C2C" stop-opacity="1"/>
<stop offset="0.5" stop-color="#FFFFFF" stop-opacity="1"/>
<stop offset="1" stop-color="#2C2C2C" stop-opacity="1"/>
</linearGradient>
<linearGradient x1="50.000000%" y1="0.000000%" x2="50.000000%" y2="100.000000%" id="lgradient24_0_0">
<stop offset="0" stop-color="#2C2C2C" stop-opacity="1"/>
<stop offset="0.5" stop-color="#FFFFFF" stop-opacity="1"/>
<stop offset="1" stop-color="#2C2C2C" stop-opacity="1"/>
</linearGradient>
<linearGradient x1="50.000000%" y1="0.000000%" x2="50.000000%" y2="100.000000%" id="lgradient24_0_1">
<stop offset="0" stop-color="#2C2C2C" stop-opacity="1"/>
<stop offset="0.5" stop-color="#FFFFFF" stop-opacity="1"/>
<stop offset="1" stop-color="#2C2C2C" stop-opacity="1"/>
</linearGradient>
<linearGradient x1="50.000000%" y1="0.000000%" x2="50.000000%" y2="100.000000%" id="lgradient25_0_0">
<stop offset="0" stop-color="#2C2C2C" stop-opacity="1"/>
<stop offset="0.5" stop-color="#FFFFFF" stop-opacity="1"/>
<stop offset="1" stop-color="#2C2C2C" stop-opacity="1"/>
</linearGradient>
<linearGradient x1="50.000000%" y1="0.000000%" x2="50.000000%" y2="100.000000%" id="lgradient25_0_1">
<stop offset="0" stop-color="#2C2C2C" stop-opacity="1"/>
<stop offset="0.5" stop-color="#FFFFFF" stop-opacity="1"/>
<stop offset="1" stop-color="#2C2C2C" stop-opacity="1"/>
</linearGradient>
<linearGradient x1="0.000000%" y1="50.000000%" x2="100.000000%" y2="50.000000%" id="lgradient26_0_0">
<stop offset="0" stop-color="#2C2C2C" stop-opacity="1"/>
<stop offset="0.5" stop-color="#FFFFFF" stop-opacity="1"/>
<stop offset="1" stop-color="#2C2C2C" stop-opacity="1"/>
</linearGradient>
<linearGradient x1="0.000000%" y1="50.000000%" x2="100.000000%" y2="50.000000%" id="lgradient26_0_1">
<stop offset="0" stop-color="#2C2C2C" stop-opacity="1"/>
<stop offset="0.5" stop-color="#FFFFFF" stop-opacity="1"/>
<stop offset="1" stop-color="#2C2C2C" stop-opacity="1"/>
</linearGradient>
<linearGradient x1="0.000000%" y1="50.000000%" x2="100.000000%" y2="50.000000%" id="lgradient27_0_0">
<stop offset="0" stop-color="#2C2C2C" stop-opacity="1"/>
<stop offset="0.5" stop-color="#FFFFFF" stop-opacity="1"/>
<stop offset="1" stop-color="#2C2C2C" stop-opacity="1"/>
</linearGradient>
<linearGradient x1="0.000000%" y1="50.000000%" x2="100.000000%" y2="50.000000%" id="lgradient27_0_1">
<stop offset="0" stop-color="#2C2C2C" stop-opacity="1"/>
<stop offset="0.5" stop-color="#FFFFFF" stop-opacity="1"/>
<stop offset="1" stop-color="#2C2C2C" stop-opacity="1"/>
</linearGradient>
<linearGradient x1="0.000000%" y1="50.000000%" x2="100.000000%" y2="50.000000%" id="lgradient28_0_0">
<stop offset="0" stop-color="#2C2C2C" stop-opacity="1"/>
<stop offset="0.5" stop-color="#FFFFFF" stop-opacity="1"/>
<stop offset="1" stop-color="#2C2C2C" stop-opacity="1"/>
</linearGradient>
<linearGradient x1="0.000000%" y1="50.000000%" x2="100.000000%" y2="50.000000%" id="lgradient28_0_1">
<stop offset="0" stop-color="#2C2C2C" stop-opacity="1"/>
<stop offset="0.5" stop-color="#FFFFFF" stop-opacity="1"/>
<stop offset="1" stop-color="#2C2C2C" stop-opacity="1"/>
</linearGradient>
<linearGradient x1="50.000000%" y1="0.000000%" x2="50.000000%" y2="100.000000%" id="lgradient29_0_0">
<stop offset="0" stop-color="#2C2C2C" stop-opacity="1"/>
<stop offset="0.5" stop-color="#FFFFFF" stop-opacity="1"/>
<stop offset="1" stop-color="#2C2C2C" stop-opacity="1"/>
</linearGradient>
<linearGradient x1="50.000000%" y1="0.000000%" x2="50.000000%" y2="100.000000%" id="lgradient29_0_1">
<stop offset="0" stop-color="#2C2C2C" stop-opacity="1"/>
<stop offset="0.5" stop-color="#FFFFFF" stop-opacity="1"/>
<stop offset="1" stop-color="#2C2C2C" stop-opacity="1"/>
</linearGradient>
<linearGradient x1="50.000000%" y1="0.000000%" x2="50.000000%" y2="100.000000%" id="lgradient48_0_0">
<stop offset="0" stop-color="#2C2C2C" stop-opacity="1"/>
<stop offset="0.5" stop-color="#FFFFFF" stop-opacity="1"/>
<stop offset="1" stop-color="#2C2C2C" stop-opacity="1"/>
</linearGradient>
<linearGradient x1="50.000000%" y1="0.000000%" x2="50.000000%" y2="100.000000%" id="lgradient48_0_1">
<stop offset="0" stop-color="#2C2C2C" stop-opacity="1"/>
<stop offset="0.5" stop-color="#FFFFFF" stop-opacity="1"/>
<stop offset="1" stop-color="#2C2C2C" stop-opacity="1"/>
</linearGradient>
<linearGradient x1="0.000000%" y1="50.000000%" x2="100.000000%" y2="50.000000%" id="lgradient69">
<stop offset="0" stop-color="#2C2C2C" stop-opacity="1"/>
<stop offset="0.5" stop-color="#FFFFFF" stop-opacity="1"/>
<stop offset="1" stop-color="#2C2C2C" stop-opacity="1"/>
</linearGradient>
<linearGradient x1="50.000000%" y1="0.000000%" x2="50.000000%" y2="100.000000%" id="lgradient70">
<stop offset="0" stop-color="#2C2C2C" stop-opacity="1"/>
<stop offset="0.5" stop-color="#FFFFFF" stop-opacity="1"/>
<stop offset="1" stop-color="#2C2C2C" stop-opacity="1"/>
</linearGradient>
</defs>
<rect shape-type="rectangle" x="0" y="1" width="1065" height="38" fill="#636563" stroke="#808080" stroke-width="1.00"/>
<rect shape-type="rectangle" x="282" y="3" width="500" height="33" stroke="#000000" stroke-width="1.00"/>
<text font-family="宋体" text-anchor="start" fill="#FFFFFF" shape-type="text" id="" font-size="28.250000" font-weight="bold" x="386" y="31">3#除氧器热控系统</text>
<a xlink:href="\动力部\动力站区\公用工程\GYGC_ML.svg">
<g shape-type="button">
<rect fill="#C0C0C0" stroke-width="0.3" stroke="#FFFFFF" x="960" y="3" width="100" height="33" shape-type="buttonrect"/>
<text font-family="宋体" text-anchor="middle" dominant-baseline="middle" fill="#800000" font-size="13.500000" font-weight="bold" x="1010" y="26" shape-type="buttontext">返回上一级</text>
</g>
</a>
<rect shape-type="rectangle" x="0" y="756" width="1066" height="44" fill="url(#lgradient5)" stroke="#636563" stroke-width="1.00"/>
<a xlink:href="1#除氧器热控系统.svg">
<g shape-type="button">
<rect fill="#C0C0C0" stroke-width="0.3" stroke="#FFFFFF" x="15" y="760" width="118" height="32" shape-type="buttonrect"/>
<text font-family="宋体" text-anchor="middle" dominant-baseline="middle" fill="#000000" font-size="12.000000" x="74" y="782" shape-type="buttontext">1#除氧器热控系统</text>
</g>
</a>
<a xlink:href="1#定速给水泵系统.svg">
<g shape-type="button">
<rect fill="#C0C0C0" stroke-width="0.3" stroke="#FFFFFF" x="400" y="763" width="117" height="32" shape-type="buttonrect"/>
<text font-family="宋体" text-anchor="middle" dominant-baseline="middle" fill="#000000" font-size="12.000000" x="459" y="785" shape-type="buttontext">1#定速给水泵系统</text>
</g>
</a>
<a xlink:href="2#除氧器热控系统.svg">
<g shape-type="button">
<rect fill="#C0C0C0" stroke-width="0.3" stroke="#FFFFFF" x="147" y="761" width="121" height="32" shape-type="buttonrect"/>
<text font-family="宋体" text-anchor="middle" dominant-baseline="middle" fill="#000000" font-size="12.000000" x="208" y="783" shape-type="buttontext">2#除氧器热控系统</text>
</g>
</a>
<a xlink:href="2#调速给水泵系统.svg">
<g shape-type="button">
<rect fill="#C0C0C0" stroke-width="0.3" stroke="#FFFFFF" x="533" y="762" width="121" height="32" shape-type="buttonrect"/>
<text font-family="宋体" text-anchor="middle" dominant-baseline="middle" fill="#000000" font-size="12.000000" x="593" y="784" shape-type="buttontext">2#调速给水泵系统</text>
</g>
</a>
<a xlink:href="调速给水泵系统.svg">
<g shape-type="button">
<rect fill="#C0C0C0" stroke-width="0.3" stroke="#FFFFFF" x="278" y="763" width="116" height="32" shape-type="buttonrect"/>
<text font-family="宋体" text-anchor="middle" dominant-baseline="middle" fill="#000000" font-size="12.000000" x="336" y="785" shape-type="buttontext">调速给水泵系统</text>
</g>
</a>
<a xlink:href="3#定速给水泵系统.svg">
<g shape-type="button">
<rect fill="#C0C0C0" stroke-width="0.3" stroke="#FFFFFF" x="668" y="763" width="121" height="32" shape-type="buttonrect"/>
<text font-family="宋体" text-anchor="middle" dominant-baseline="middle" fill="#000000" font-size="12.000000" x="728" y="785" shape-type="buttontext">3#定速给水泵系统</text>
</g>
</a>
<line shape-type="limitline" x1="558" y1="453" x2="491" y2="453" fill="#00FFFF" stroke="#46DE00" stroke-width="3.00"/>
<line shape-type="limitline" x1="976" y1="301" x2="976" y2="473" fill="#00FFFF" stroke="#46DE00" stroke-width="3.00"/>
<line shape-type="limitline" x1="818" y1="451" x2="818" y2="241" fill="#00FFFF" stroke="#46DE00" stroke-width="3.00"/>
<line shape-type="limitline" x1="365" y1="475" x2="439" y2="475" fill="#00FFFF" stroke="#46DE00" stroke-width="3.00"/>
<line shape-type="limitline" x1="531" y1="309" x2="531" y2="181" fill="#00FFFF" stroke="#46DE00" stroke-width="3.00"/>
<line shape-type="limitline" x1="531" y1="282" x2="464" y2="282" fill="#00FFFF" stroke="#46DE00" stroke-width="3.00"/>
<line shape-type="limitline" x1="591" y1="335" x2="224" y2="335" fill="#00FFFF" stroke="#46DE00" stroke-width="3.00"/>
<g shape-type="group">
<path shape-type="chord" d="M 871,458 A 10,25 0 0,0 855,458 z" fill="none" stroke="#FFFFFF" stroke-width="1.00"/>
<line shape-type="limitline" x1="863" y1="468" x2="862" y2="458" fill="#00FFFF" stroke="#FFFFFF" stroke-width="1.00"/>
<rect shape-type="rectangle" x="853" y="468" width="21" height="12" fill="none" stroke="#FFFFFF" stroke-width="1.00"/>
<line shape-type="line" x1="854" y1="479" x2="873" y2="468" fill="#00FFFF" stroke="#FFFFFF" stroke-width="1.00"/>
<line shape-type="line" x1="854" y1="469" x2="874" y2="479" fill="#00FFFF" stroke="#FFFFFF" stroke-width="1.00"/>
</g>
<g shape-type="group">
<path shape-type="chord" d="M 768,435 A 10,25 0 0,0 752,435 z" fill="none" stroke="#FFFFFF" stroke-width="1.00"/>
<line shape-type="limitline" x1="759" y1="445" x2="758" y2="435" fill="#00FFFF" stroke="#FFFFFF" stroke-width="1.00"/>
<rect shape-type="rectangle" x="750" y="445" width="21" height="12" fill="none" stroke="#FFFFFF" stroke-width="1.00"/>
<line shape-type="line" x1="751" y1="456" x2="770" y2="445" fill="#00FFFF" stroke="#FFFFFF" stroke-width="1.00"/>
<line shape-type="line" x1="751" y1="446" x2="771" y2="456" fill="#00FFFF" stroke="#FFFFFF" stroke-width="1.00"/>
</g>
<g shape-type="group">
<path shape-type="chord" d="M 401,402 A 10,25 0 0,0 385,402 z" fill="none" stroke="#FFFFFF" stroke-width="1.00"/>
<line shape-type="limitline" x1="393" y1="411" x2="392" y2="402" fill="#00FFFF" stroke="#FFFFFF" stroke-width="1.00"/>
<rect shape-type="rectangle" x="383" y="411" width="21" height="13" fill="none" stroke="#FFFFFF" stroke-width="1.00"/>
<line shape-type="line" x1="384" y1="423" x2="403" y2="411" fill="#00FFFF" stroke="#FFFFFF" stroke-width="1.00"/>
<line shape-type="line" x1="384" y1="413" x2="404" y2="423" fill="#00FFFF" stroke="#FFFFFF" stroke-width="1.00"/>
</g>
<g shape-type="group">
<path shape-type="chord" d="M 402,250 A 10,25 0 0,0 386,250 z" fill="none" stroke="#FFFFFF" stroke-width="1.00"/>
<line shape-type="limitline" x1="394" y1="259" x2="393" y2="250" fill="#00FFFF" stroke="#FFFFFF" stroke-width="1.00"/>
<rect shape-type="rectangle" x="384" y="259" width="21" height="13" fill="none" stroke="#FFFFFF" stroke-width="1.00"/>
<line shape-type="line" x1="385" y1="271" x2="404" y2="259" fill="#00FFFF" stroke="#FFFFFF" stroke-width="1.00"/>
<line shape-type="line" x1="385" y1="260" x2="405" y2="271" fill="#00FFFF" stroke="#FFFFFF" stroke-width="1.00"/>
</g>
<g shape-type="group">
<g shape-type="group">
<polygon shape-type="trapezium" points="484,329 484,340 494,335 494,335 484,329" fill="url(#lgradient23_0_0)" stroke="#808080" stroke-width="1.00"/>
<polygon shape-type="trapezium" points="505,329 505,340 494,335 494,335 505,329" fill="url(#lgradient23_0_1)" stroke="#808080" stroke-width="1.00"/>
</g>
<line shape-type="limitline" x1="495" y1="324" x2="494" y2="331" fill="#FFFFFF" stroke="#FFFFFF" stroke-width="2.00"/>
<g shape-type="group">
<ellipse shape-type="ellipse" cx="495" cy="316" rx="10" ry="8" fill="none" stroke="#FFFFFF" stroke-width="1.00"/>
<text font-family="宋体" text-anchor="start" fill="#FFFFFF" shape-type="text" id="" font-size="11.000000" x="493" y="319">M</text>
</g>
</g>
<g shape-type="group">
<g shape-type="group">
<polygon shape-type="trapezium" points="813,341 823,341 818,331 818,331 813,341" fill="url(#lgradient24_0_0)" stroke="#808080" stroke-width="1.00"/>
<polygon shape-type="trapezium" points="813,321 823,321 818,331 818,331 813,321" fill="url(#lgradient24_0_1)" stroke="#808080" stroke-width="1.00"/>
</g>
<line shape-type="limitline" x1="826" y1="331" x2="820" y2="332" fill="#FFFFFF" stroke="#FFFFFF" stroke-width="2.00"/>
<g shape-type="group">
<ellipse shape-type="ellipse" cx="836" cy="332" rx="10" ry="9" fill="none" stroke="#FFFFFF" stroke-width="1.00"/>
<text font-family="宋体" text-anchor="start" fill="#FFFFFF" shape-type="text" id="" font-size="11.000000" x="832" y="336">M</text>
</g>
</g>
<g shape-type="group">
<g shape-type="group">
<polygon shape-type="trapezium" points="526,254 536,254 531,245 531,245 526,254" fill="url(#lgradient25_0_0)" stroke="#808080" stroke-width="1.00"/>
<polygon shape-type="trapezium" points="526,234 536,234 531,245 531,245 526,234" fill="url(#lgradient25_0_1)" stroke="#808080" stroke-width="1.00"/>
</g>
<line shape-type="limitline" x1="540" y1="245" x2="533" y2="246" fill="#FFFFFF" stroke="#FFFFFF" stroke-width="2.00"/>
<g shape-type="group">
<ellipse shape-type="ellipse" cx="549" cy="245" rx="9" ry="9" fill="none" stroke="#FFFFFF" stroke-width="1.00"/>
<text font-family="宋体" text-anchor="start" fill="#FFFFFF" shape-type="text" id="" font-size="10.250000" x="546" y="249">M</text>
</g>
</g>
<g shape-type="group">
<g shape-type="group">
<polygon shape-type="trapezium" points="481,277 481,288 491,283 491,283 481,277" fill="url(#lgradient26_0_0)" stroke="#808080" stroke-width="1.00"/>
<polygon shape-type="trapezium" points="502,277 502,288 491,283 491,283 502,277" fill="url(#lgradient26_0_1)" stroke="#808080" stroke-width="1.00"/>
</g>
<line shape-type="limitline" x1="492" y1="272" x2="491" y2="279" fill="#FFFFFF" stroke="#FFFFFF" stroke-width="2.00"/>
<g shape-type="group">
<ellipse shape-type="ellipse" cx="492" cy="263" rx="10" ry="9" fill="none" stroke="#FFFFFF" stroke-width="1.00"/>
<text font-family="宋体" text-anchor="start" fill="#FFFFFF" shape-type="text" id="" font-size="11.000000" x="490" y="267">M</text>
</g>
</g>
<g shape-type="group">
<g shape-type="group">
<polygon shape-type="trapezium" points="382,329 382,340 392,335 392,335 382,329" fill="url(#lgradient27_0_0)" stroke="#808080" stroke-width="1.00"/>
<polygon shape-type="trapezium" points="403,329 403,340 392,335 392,335 403,329" fill="url(#lgradient27_0_1)" stroke="#808080" stroke-width="1.00"/>
</g>
<line shape-type="limitline" x1="393" y1="324" x2="392" y2="331" fill="#FFFFFF" stroke="#FFFFFF" stroke-width="2.00"/>
<g shape-type="group">
<ellipse shape-type="ellipse" cx="393" cy="316" rx="10" ry="8" fill="none" stroke="#FFFFFF" stroke-width="1.00"/>
<text font-family="宋体" text-anchor="start" fill="#FFFFFF" shape-type="text" id="" font-size="11.000000" x="391" y="319">M</text>
</g>
</g>
<g shape-type="group">
<g shape-type="group">
<polygon shape-type="trapezium" points="385,470 385,480 395,475 395,475 385,470" fill="url(#lgradient28_0_0)" stroke="#808080" stroke-width="1.00"/>
<polygon shape-type="trapezium" points="406,470 406,480 395,475 395,475 406,470" fill="url(#lgradient28_0_1)" stroke="#808080" stroke-width="1.00"/>
</g>
<line shape-type="limitline" x1="396" y1="465" x2="395" y2="472" fill="#FFFFFF" stroke="#FFFFFF" stroke-width="2.00"/>
<g shape-type="group">
<ellipse shape-type="ellipse" cx="396" cy="456" rx="10" ry="9" fill="none" stroke="#FFFFFF" stroke-width="1.00"/>
<text font-family="宋体" text-anchor="start" fill="#FFFFFF" shape-type="text" id="" font-size="10.250000" x="394" y="459">M</text>
</g>
</g>
<g shape-type="group">
<g shape-type="group">
<polygon shape-type="trapezium" points="971,352 981,352 976,343 976,343 971,352" fill="url(#lgradient29_0_0)" stroke="#808080" stroke-width="1.00"/>
<polygon shape-type="trapezium" points="971,332 981,332 976,343 976,343 971,332" fill="url(#lgradient29_0_1)" stroke="#808080" stroke-width="1.00"/>
</g>
<line shape-type="limitline" x1="984" y1="343" x2="978" y2="344" fill="#FFFFFF" stroke="#FFFFFF" stroke-width="2.00"/>
<g shape-type="group">
<ellipse shape-type="ellipse" cx="994" cy="343" rx="10" ry="9" fill="none" stroke="#FFFFFF" stroke-width="1.00"/>
<text font-family="宋体" text-anchor="start" fill="#FFFFFF" shape-type="text" id="" font-size="11.000000" x="991" y="347">M</text>
</g>
</g>
<line shape-type="limitline" x1="224" y1="335" x2="224" y2="221" fill="#00FFFF" stroke="#46DE00" stroke-width="3.00"/>
<line shape-type="limitline" x1="367" y1="264" x2="367" y2="334" fill="#00FFFF" stroke="#46DE00" stroke-width="3.00"/>
<line shape-type="limitline" x1="384" y1="265" x2="368" y2="265" fill="#00FFFF" stroke="#46DE00" stroke-width="3.00"/>
<line shape-type="limitline" x1="422" y1="265" x2="405" y2="265" fill="#00FFFF" stroke="#46DE00" stroke-width="3.00"/>
<line shape-type="limitline" x1="422" y1="264" x2="422" y2="334" fill="#00FFFF" stroke="#46DE00" stroke-width="3.00"/>
<line shape-type="limitline" x1="464" y1="282" x2="464" y2="333" fill="#00FFFF" stroke="#46DE00" stroke-width="3.00"/>
<line shape-type="limitline" x1="612" y1="309" x2="531" y2="309" fill="#00FFFF" stroke="#46DE00" stroke-width="3.00"/>
<line shape-type="limitline" x1="441" y1="475" x2="441" y2="369" fill="#00FFFF" stroke="#46DE00" stroke-width="3.00"/>
<line shape-type="limitline" x1="365" y1="420" x2="365" y2="475" fill="#00FFFF" stroke="#46DE00" stroke-width="3.00"/>
<line shape-type="limitline" x1="382" y1="419" x2="284" y2="419" fill="#00FFFF" stroke="#46DE00" stroke-width="3.00"/>
<line shape-type="limitline" x1="441" y1="419" x2="404" y2="419" fill="#00FFFF" stroke="#46DE00" stroke-width="3.00"/>
<line shape-type="limitline" x1="597" y1="371" x2="441" y2="371" fill="#00FFFF" stroke="#46DE00" stroke-width="3.00"/>
<line shape-type="limitline" x1="558" y1="486" x2="558" y2="452" fill="#00FFFF" stroke="#46DE00" stroke-width="3.00"/>
<line shape-type="limitline" x1="510" y1="658" x2="510" y2="537" fill="#00FFFF" stroke="#46DE00" stroke-width="3.00"/>
<line shape-type="limitline" x1="582" y1="658" x2="582" y2="537" fill="#00FFFF" stroke="#46DE00" stroke-width="3.00"/>
<line shape-type="limitline" x1="653" y1="658" x2="653" y2="531" fill="#00FFFF" stroke="#46DE00" stroke-width="3.00"/>
<line shape-type="limitline" x1="785" y1="493" x2="746" y2="493" fill="#00FFFF" stroke="#46DE00" stroke-width="3.00"/>
<line shape-type="limitline" x1="785" y1="655" x2="785" y2="492" fill="#00FFFF" stroke="#46DE00" stroke-width="3.00"/>
<g shape-type="group">
<g shape-type="group">
<polygon shape-type="trapezium" points="780,627 790,627 785,618 785,618 780,627" fill="url(#lgradient48_0_0)" stroke="#808080" stroke-width="1.00"/>
<polygon shape-type="trapezium" points="780,607 790,607 785,618 785,618 780,607" fill="url(#lgradient48_0_1)" stroke="#808080" stroke-width="1.00"/>
</g>
<line shape-type="limitline" x1="793" y1="618" x2="786" y2="619" fill="#FFFFFF" stroke="#FFFFFF" stroke-width="2.00"/>
<g shape-type="group">
<ellipse shape-type="ellipse" cx="803" cy="618" rx="10" ry="9" fill="none" stroke="#FFFFFF" stroke-width="1.00"/>
<text font-family="宋体" text-anchor="start" fill="#FFFFFF" shape-type="text" id="" font-size="11.000000" x="799" y="622">M</text>
</g>
</g>
<line shape-type="limitline" x1="768" y1="451" x2="818" y2="451" fill="#00FFFF" stroke="#46DE00" stroke-width="3.00"/>
<line shape-type="limitline" x1="721" y1="452" x2="747" y2="452" fill="#00FFFF" stroke="#46DE00" stroke-width="3.00"/>
<line shape-type="limitline" x1="722" y1="487" x2="722" y2="451" fill="#00FFFF" stroke="#46DE00" stroke-width="3.00"/>
<line shape-type="limitline" x1="741" y1="474" x2="741" y2="452" fill="#00FFFF" stroke="#46DE00" stroke-width="3.00"/>
<line shape-type="limitline" x1="852" y1="474" x2="741" y2="474" fill="#00FFFF" stroke="#46DE00" stroke-width="3.00"/>
<line shape-type="limitline" x1="976" y1="474" x2="874" y2="474" fill="#00FFFF" stroke="#46DE00" stroke-width="3.00"/>
<line shape-type="limitline" x1="820" y1="300" x2="976" y2="300" fill="#00FFFF" stroke="#46DE00" stroke-width="3.00"/>
<g shape-type="group">
<rect shape-type="rectangle" x="222" y="209" width="5" height="12" fill="#808080" stroke="#C0C0C0" stroke-width="1.00"/>
<polygon shape-type="trapezium" points="219,221 229,221 224,228 224,228 219,221" fill="#808080" stroke="#C0C0C0" stroke-width="1.00"/>
</g>
<g shape-type="group">
<rect shape-type="rectangle" x="817" y="230" width="5" height="12" fill="#808080" stroke="#C0C0C0" stroke-width="1.00"/>
<polygon shape-type="trapezium" points="814,242 824,242 819,249 819,249 814,242" fill="#808080" stroke="#C0C0C0" stroke-width="1.00"/>
</g>
<g shape-type="group">
<rect shape-type="rectangle" x="506" y="650" width="5" height="11" fill="#808080" stroke="#C0C0C0" stroke-width="1.00"/>
<polygon shape-type="trapezium" points="504,661 514,661 509,670 509,670 504,661" fill="#808080" stroke="#C0C0C0" stroke-width="1.00"/>
</g>
<g shape-type="group">
<rect shape-type="rectangle" x="579" y="650" width="5" height="11" fill="#808080" stroke="#C0C0C0" stroke-width="1.00"/>
<polygon shape-type="trapezium" points="576,661 586,661 581,670 581,670 576,661" fill="#808080" stroke="#C0C0C0" stroke-width="1.00"/>
</g>
<g shape-type="group">
<rect shape-type="rectangle" x="650" y="650" width="5" height="11" fill="#808080" stroke="#C0C0C0" stroke-width="1.00"/>
<polygon shape-type="trapezium" points="647,661 657,661 652,669 652,669 647,661" fill="#808080" stroke="#C0C0C0" stroke-width="1.00"/>
</g>
<g shape-type="group">
<rect shape-type="rectangle" x="781" y="650" width="5" height="11" fill="#808080" stroke="#C0C0C0" stroke-width="1.00"/>
<polygon shape-type="trapezium" points="779,661 789,661 784,669 784,669 779,661" fill="#808080" stroke="#C0C0C0" stroke-width="1.00"/>
</g>
<g shape-type="group">
<rect shape-type="rectangle" x="481" y="450" width="12" height="5" fill="#808080" stroke="#C0C0C0" stroke-width="1.00"/>
<polygon shape-type="trapezium" points="493,448 493,457 500,453 500,453 493,448" fill="#808080" stroke="#C0C0C0" stroke-width="1.00"/>
</g>
<text font-family="宋体" text-anchor="start" fill="#FFFFFF" shape-type="text" id="" font-size="10.250000" font-weight="bold" x="187" y="199">除盐水母管来</text>
<text font-family="宋体" text-anchor="start" fill="#FFFFFF" shape-type="text" id="" font-size="10.250000" font-weight="bold" x="492" y="156">凝结水母管来</text>
<text font-family="宋体" text-anchor="start" fill="#FFFFFF" shape-type="text" id="" font-size="10.250000" font-weight="bold" x="777" y="219">厂用蒸汽母管来</text>
<text font-family="宋体" text-anchor="start" fill="#FFFFFF" shape-type="text" id="" font-size="10.250000" font-weight="bold" x="178" y="423">化工回水母管来</text>
<g shape-type="group">
<rect shape-type="rectangle" x="274" y="417" width="10" height="5" fill="#808080" stroke="#C0C0C0" stroke-width="1.00"/>
<polygon shape-type="trapezium" points="283,414 283,424 292,419 292,419 283,414" fill="#808080" stroke="#C0C0C0" stroke-width="1.00"/>
</g>
<text font-family="宋体" text-anchor="start" fill="#FFFFFF" shape-type="text" id="" font-size="10.250000" font-weight="bold" x="462" y="443">给水泵再循环</text>
<rect shape-type="roundRectangle" rx="20" ry="20" x="584" y="293" width="60" height="210" fill="url(#lgradient69)" stroke="#000000" stroke-width="2.00"/>
<rect shape-type="roundRectangle" rx="20" ry="20" x="455" y="483" width="317" height="56" fill="url(#lgradient70)" stroke="#000000" stroke-width="2.00"/>
<text font-family="宋体" text-anchor="start" fill="#000000" shape-type="text" id="" font-size="14.750000" font-weight="bold" writing-mode="tb" glyph-orientation-vertical="0" x="604" y="375">除氧器</text>
<text font-family="宋体" text-anchor="start" fill="#FFFFFF" shape-type="text" id="" font-size="10.250000" font-weight="bold" x="512" y="689">事故放水门</text>
<text font-family="宋体" text-anchor="start" fill="#FFFFFF" shape-type="text" id="" font-size="9.500000" font-weight="bold" writing-mode="tb" glyph-orientation-vertical="0" x="487" y="591">至低压给水母管</text>
<text font-family="宋体" text-anchor="start" fill="#FFFFFF" shape-type="text" id="" font-size="9.500000" font-weight="bold" writing-mode="tb" glyph-orientation-vertical="0" x="560" y="592">至溢放水母管</text>
<text font-family="宋体" text-anchor="start" fill="#FFFFFF" shape-type="text" id="" font-size="9.500000" font-weight="bold" writing-mode="tb" glyph-orientation-vertical="0" x="629" y="590">至低压给水母管</text>
<text font-family="宋体" text-anchor="start" fill="#FFFFFF" shape-type="text" id="" font-size="9.500000" font-weight="bold" writing-mode="tb" glyph-orientation-vertical="0" x="761" y="617">至溢放水母管</text>
<text font-family="宋体" text-anchor="start" fill="#FFFFFF" shape-type="text" id="" font-size="10.250000" font-weight="bold" x="794" y="580">溢流放水门</text>
<g shape-type="group">
<rect shape-type="rectangle" x="529" y="163" width="5" height="11" fill="#808080" stroke="#C0C0C0" stroke-width="1.00"/>
<polygon shape-type="trapezium" points="526,174 536,174 531,182 531,182 526,174" fill="#808080" stroke="#C0C0C0" stroke-width="1.00"/>
</g>
<rect shape-type="rectangle" x="667" y="568" width="63" height="26" fill="#4A494A" stroke="#C0C0C0" stroke-width="3.00"/>
<rect shape-type="rectangle" x="730" y="568" width="36" height="26" fill="#4A494A" stroke="#C0C0C0" stroke-width="3.00"/>
<text font-family="宋体" text-anchor="start" fill="#00FF42" shape-type="text" id="" font-size="9.500000" font-weight="bold" x="730" y="585">μg/L</text>
<rect shape-type="rectangle" x="669" y="289" width="62" height="26" fill="#4A494A" stroke="#C0C0C0" stroke-width="3.00"/>
<rect shape-type="rectangle" x="731" y="289" width="38" height="26" fill="#4A494A" stroke="#C0C0C0" stroke-width="3.00"/>
<text font-family="宋体" text-anchor="start" fill="#00FF42" shape-type="text" id="" font-size="9.500000" font-weight="bold" x="742" y="304">MPa</text>
<line shape-type="limitline" x1="224" y1="251" x2="186" y2="251" fill="#00FFFF" stroke="#FFFFFF" stroke-width="3.00" stroke-dasharray="5 10"/>
<line shape-type="limitline" x1="457" y1="514" x2="429" y2="514" fill="#00FFFF" stroke="#FFFFFF" stroke-width="3.00" stroke-dasharray="5 10"/>
<line shape-type="line" x1="461" y1="527" x2="431" y2="556" fill="#00FFFF" stroke="#FFFFFF" stroke-width="3.00" stroke-dasharray="5 10"/>
<line shape-type="limitline" x1="700" y1="537" x2="700" y2="567" fill="#00FFFF" stroke="#FFFFFF" stroke-width="3.00" stroke-dasharray="5 10"/>
<rect shape-type="rectangle" x="91" y="238" width="63" height="26" fill="#4A494A" stroke="#C0C0C0" stroke-width="3.00"/>
<rect shape-type="rectangle" x="154" y="238" width="36" height="26" fill="#4A494A" stroke="#C0C0C0" stroke-width="3.00"/>
<text font-family="宋体" text-anchor="start" fill="#00FF42" shape-type="text" id="" font-size="9.500000" font-weight="bold" x="163" y="253">MPa</text>
<text font-family="宋体" text-anchor="start" fill="#FFFFFF" shape-type="text" id="" font-size="10.250000" font-weight="bold" x="96" y="224">除盐水母管压力</text>
<rect shape-type="rectangle" x="902" y="200" width="63" height="26" fill="#4A494A" stroke="#C0C0C0" stroke-width="3.00"/>
<rect shape-type="rectangle" x="965" y="200" width="36" height="26" fill="#4A494A" stroke="#C0C0C0" stroke-width="3.00"/>
<text font-family="宋体" text-anchor="start" fill="#00FF42" shape-type="text" id="" font-size="9.500000" font-weight="bold" x="974" y="215">MPa</text>
<text font-family="宋体" text-anchor="start" fill="#FFFFFF" shape-type="text" id="" font-size="10.250000" font-weight="bold" x="900" y="186">厂用蒸汽母管压力</text>
<polygon shape-type="trapezium" points="554,473 563,473 558,485 558,485 554,473" fill="#FFFFFF" stroke="#FFFFFF" stroke-width="1.00"/>
<rect shape-type="rectangle" x="131" y="499" width="62" height="26" fill="#4A494A" stroke="#C0C0C0" stroke-width="3.00"/>
<rect shape-type="rectangle" x="193" y="499" width="37" height="26" fill="#4A494A" stroke="#C0C0C0" stroke-width="3.00"/>
<rect shape-type="rectangle" x="131" y="549" width="62" height="26" fill="#4A494A" stroke="#C0C0C0" stroke-width="3.00"/>
<rect shape-type="rectangle" x="193" y="549" width="37" height="26" fill="#4A494A" stroke="#C0C0C0" stroke-width="3.00"/>
<rect shape-type="rectangle" x="131" y="599" width="62" height="26" fill="#4A494A" stroke="#C0C0C0" stroke-width="3.00"/>
<rect shape-type="rectangle" x="193" y="599" width="37" height="26" fill="#4A494A" stroke="#C0C0C0" stroke-width="3.00"/>
<rect shape-type="rectangle" x="131" y="649" width="62" height="26" fill="#4A494A" stroke="#C0C0C0" stroke-width="3.00"/>
<rect shape-type="rectangle" x="193" y="649" width="37" height="26" fill="#4A494A" stroke="#C0C0C0" stroke-width="3.00"/>
<text font-family="宋体" text-anchor="start" fill="#00FF42" shape-type="text" id="" font-size="9.500000" font-weight="bold" x="201" y="515">MPa</text>
<text font-family="宋体" text-anchor="start" fill="#00FF42" shape-type="text" id="" font-size="9.500000" font-weight="bold" x="201" y="565">t/h</text>
<text font-family="宋体" text-anchor="start" fill="#00FF42" shape-type="text" id="" font-size="9.500000" font-weight="bold" x="201" y="616">t/h</text>
<text font-family="宋体" text-anchor="start" fill="#00FF42" shape-type="text" id="" font-size="9.500000" font-weight="bold" x="202" y="665">t/h</text>
<text font-family="宋体" text-anchor="start" fill="#FFFFFF" shape-type="text" id="" font-size="10.250000" font-weight="bold" x="128" y="490">化工回水母管压力</text>
<text font-family="宋体" text-anchor="start" fill="#FFFFFF" shape-type="text" id="" font-size="10.250000" font-weight="bold" x="135" y="540">凝结水母管流量</text>
<text font-family="宋体" text-anchor="start" fill="#FFFFFF" shape-type="text" id="" font-size="10.250000" font-weight="bold" x="128" y="590">化工回水母管流量</text>
<text font-family="宋体" text-anchor="start" fill="#FFFFFF" shape-type="text" id="" font-size="10.250000" font-weight="bold" x="135" y="640">除氧器补水流量</text>
<text font-family="Arial" text-anchor="start" fill="#00FFFF" shape-type="realdata" id="DLB_QJ_30PT08" font-size="10.250000" x="135" y="515">XXXX</text>
<text font-family="Arial" text-anchor="start" fill="#00FFFF" shape-type="realdata" id="DLB_QJ_30FT50" font-size="10.250000" x="135" y="566">XXXX</text>
<text font-family="Arial" text-anchor="start" fill="#00FFFF" shape-type="realdata" id="DLB_QJ_30FT51" font-size="10.250000" x="135" y="615">XXXX</text>
<text font-family="Arial" text-anchor="start" fill="#00FFFF" shape-type="realdata" id="DLB_QJ_30FT01" font-size="10.250000" x="135" y="664">XXXX</text>
<text font-family="宋体" text-anchor="start" fill="#FFFFFF" shape-type="text" id="" font-size="10.250000" font-weight="bold" x="688" y="271">除氧器压力</text>
<rect shape-type="rectangle" x="333" y="541" width="63" height="26" fill="#4A494A" stroke="#C0C0C0" stroke-width="3.00"/>
<rect shape-type="rectangle" x="396" y="541" width="36" height="26" fill="#4A494A" stroke="#C0C0C0" stroke-width="3.00"/>
<text font-family="宋体" text-anchor="start" fill="#00FF42" shape-type="text" id="" font-size="9.500000" font-weight="bold" x="409" y="559">℃</text>
<rect shape-type="rectangle" x="333" y="502" width="63" height="26" fill="#4A494A" stroke="#C0C0C0" stroke-width="3.00"/>
<rect shape-type="rectangle" x="396" y="502" width="36" height="26" fill="#4A494A" stroke="#C0C0C0" stroke-width="3.00"/>
<text font-family="宋体" text-anchor="start" fill="#00FF42" shape-type="text" id="" font-size="11.000000" font-weight="bold" x="407" y="517">mm</text>
<text font-family="Arial" text-anchor="start" fill="#00FFFF" shape-type="realdata" id="DLB_QJ_C30LT02" font-size="10.250000" x="337" y="519">XXXX</text>
<text font-family="Arial" text-anchor="start" fill="#00FFFF" shape-type="realdata" id="DLB_QJ_C30TE01" font-size="10.250000" x="337" y="557">XXXX</text>
<text font-family="Arial" text-anchor="start" fill="#00FFFF" shape-type="realdata" id="DLB_QJ_30PT07" font-size="10.250000" x="95" y="254">XXXX</text>
<text font-family="Arial" text-anchor="start" fill="#00FFFF" shape-type="realdata" id="DLB_QJ_30PT06" font-size="10.250000" x="907" y="216">XXXX</text>
<text font-family="Arial" text-anchor="start" fill="#00FFFF" shape-type="realdata" id="DLB_QJ_C30PT01" font-size="10.250000" x="673" y="304">XXXX</text>
<text font-family="Arial" text-anchor="start" fill="#00FFFF" shape-type="realdata" id="DLB_QJ_C30AT01" font-size="10.250000" x="671" y="584">XXXX</text>
</svg>
