<svg xmlns="http://www.w3.org/2000/svg" xmlns:xlink="http://www.w3.org/1999/xlink" version="1.1" style="background-color:#7DB6C1" width="1062" height="669" viewbox="0 0 1062 669"><defs>
<linearGradient x1="50.000000%" y1="0.000000%" x2="50.000000%" y2="100.000000%" id="lgradient16_0">
<stop offset="0" stop-color="#424242" stop-opacity="1"/>
<stop offset="0.5" stop-color="#FFFFFF" stop-opacity="1"/>
<stop offset="1" stop-color="#424242" stop-opacity="1"/>
</linearGradient>
<linearGradient x1="50.000000%" y1="0.000000%" x2="50.000000%" y2="100.000000%" id="lgradient16_1_0">
<stop offset="0" stop-color="#353535" stop-opacity="1"/>
<stop offset="0.5" stop-color="#FFFFFF" stop-opacity="1"/>
<stop offset="1" stop-color="#353535" stop-opacity="1"/>
</linearGradient>
<linearGradient x1="50.000000%" y1="0.000000%" x2="50.000000%" y2="100.000000%" id="lgradient16_1_1">
<stop offset="0" stop-color="#353535" stop-opacity="1"/>
<stop offset="0.5" stop-color="#FFFFFF" stop-opacity="1"/>
<stop offset="1" stop-color="#353535" stop-opacity="1"/>
</linearGradient>
<linearGradient x1="50.000000%" y1="0.000000%" x2="50.000000%" y2="100.000000%" id="lgradient16_2_0">
<stop offset="0" stop-color="#353535" stop-opacity="1"/>
<stop offset="0.5" stop-color="#FFFFFF" stop-opacity="1"/>
<stop offset="1" stop-color="#353535" stop-opacity="1"/>
</linearGradient>
<linearGradient x1="50.000000%" y1="0.000000%" x2="50.000000%" y2="100.000000%" id="lgradient16_2_1">
<stop offset="0" stop-color="#353535" stop-opacity="1"/>
<stop offset="0.5" stop-color="#FFFFFF" stop-opacity="1"/>
<stop offset="1" stop-color="#353535" stop-opacity="1"/>
</linearGradient>
<linearGradient x1="0.000000%" y1="50.000000%" x2="100.000000%" y2="50.000000%" id="lgradient23_0_0_0">
<stop offset="0" stop-color="#545454" stop-opacity="1"/>
<stop offset="0.5" stop-color="#D8D8D8" stop-opacity="1"/>
<stop offset="1" stop-color="#545454" stop-opacity="1"/>
</linearGradient>
<linearGradient x1="0.000000%" y1="50.000000%" x2="100.000000%" y2="50.000000%" id="lgradient23_0_0_1_0">
<stop offset="0" stop-color="#696969" stop-opacity="1"/>
<stop offset="0.5" stop-color="#D8D8D8" stop-opacity="1"/>
<stop offset="1" stop-color="#696969" stop-opacity="1"/>
</linearGradient>
<linearGradient x1="0.000000%" y1="50.000000%" x2="100.000000%" y2="50.000000%" id="lgradient24">
<stop offset="0" stop-color="#575757" stop-opacity="1"/>
<stop offset="0.5" stop-color="#FFFFFF" stop-opacity="1"/>
<stop offset="1" stop-color="#575757" stop-opacity="1"/>
</linearGradient>
<linearGradient x1="50.000000%" y1="0.000000%" x2="50.000000%" y2="100.000000%" id="lgradient25_0">
<stop offset="0" stop-color="#424242" stop-opacity="1"/>
<stop offset="0.5" stop-color="#FFFFFF" stop-opacity="1"/>
<stop offset="1" stop-color="#424242" stop-opacity="1"/>
</linearGradient>
<linearGradient x1="50.000000%" y1="0.000000%" x2="50.000000%" y2="100.000000%" id="lgradient25_1_0">
<stop offset="0" stop-color="#353535" stop-opacity="1"/>
<stop offset="0.5" stop-color="#FFFFFF" stop-opacity="1"/>
<stop offset="1" stop-color="#353535" stop-opacity="1"/>
</linearGradient>
<linearGradient x1="50.000000%" y1="0.000000%" x2="50.000000%" y2="100.000000%" id="lgradient25_1_1">
<stop offset="0" stop-color="#353535" stop-opacity="1"/>
<stop offset="0.5" stop-color="#FFFFFF" stop-opacity="1"/>
<stop offset="1" stop-color="#353535" stop-opacity="1"/>
</linearGradient>
<linearGradient x1="50.000000%" y1="0.000000%" x2="50.000000%" y2="100.000000%" id="lgradient25_2_0">
<stop offset="0" stop-color="#353535" stop-opacity="1"/>
<stop offset="0.5" stop-color="#FFFFFF" stop-opacity="1"/>
<stop offset="1" stop-color="#353535" stop-opacity="1"/>
</linearGradient>
<linearGradient x1="50.000000%" y1="0.000000%" x2="50.000000%" y2="100.000000%" id="lgradient25_2_1">
<stop offset="0" stop-color="#353535" stop-opacity="1"/>
<stop offset="0.5" stop-color="#FFFFFF" stop-opacity="1"/>
<stop offset="1" stop-color="#353535" stop-opacity="1"/>
</linearGradient>
<linearGradient x1="50.000000%" y1="0.000000%" x2="50.000000%" y2="100.000000%" id="lgradient26_0">
<stop offset="0" stop-color="#424242" stop-opacity="1"/>
<stop offset="0.5" stop-color="#FFFFFF" stop-opacity="1"/>
<stop offset="1" stop-color="#424242" stop-opacity="1"/>
</linearGradient>
<linearGradient x1="50.000000%" y1="0.000000%" x2="50.000000%" y2="100.000000%" id="lgradient26_1_0">
<stop offset="0" stop-color="#353535" stop-opacity="1"/>
<stop offset="0.5" stop-color="#FFFFFF" stop-opacity="1"/>
<stop offset="1" stop-color="#353535" stop-opacity="1"/>
</linearGradient>
<linearGradient x1="50.000000%" y1="0.000000%" x2="50.000000%" y2="100.000000%" id="lgradient26_1_1">
<stop offset="0" stop-color="#353535" stop-opacity="1"/>
<stop offset="0.5" stop-color="#FFFFFF" stop-opacity="1"/>
<stop offset="1" stop-color="#353535" stop-opacity="1"/>
</linearGradient>
<linearGradient x1="50.000000%" y1="0.000000%" x2="50.000000%" y2="100.000000%" id="lgradient26_2_0">
<stop offset="0" stop-color="#353535" stop-opacity="1"/>
<stop offset="0.5" stop-color="#FFFFFF" stop-opacity="1"/>
<stop offset="1" stop-color="#353535" stop-opacity="1"/>
</linearGradient>
<linearGradient x1="50.000000%" y1="0.000000%" x2="50.000000%" y2="100.000000%" id="lgradient26_2_1">
<stop offset="0" stop-color="#353535" stop-opacity="1"/>
<stop offset="0.5" stop-color="#FFFFFF" stop-opacity="1"/>
<stop offset="1" stop-color="#353535" stop-opacity="1"/>
</linearGradient>
<linearGradient x1="0.000000%" y1="50.000000%" x2="100.000000%" y2="50.000000%" id="lgradient27_0_0_0">
<stop offset="0" stop-color="#545454" stop-opacity="1"/>
<stop offset="0.5" stop-color="#D8D8D8" stop-opacity="1"/>
<stop offset="1" stop-color="#545454" stop-opacity="1"/>
</linearGradient>
<linearGradient x1="0.000000%" y1="50.000000%" x2="100.000000%" y2="50.000000%" id="lgradient27_0_0_1_0">
<stop offset="0" stop-color="#696969" stop-opacity="1"/>
<stop offset="0.5" stop-color="#D8D8D8" stop-opacity="1"/>
<stop offset="1" stop-color="#696969" stop-opacity="1"/>
</linearGradient>
<linearGradient x1="0.000000%" y1="50.000000%" x2="100.000000%" y2="50.000000%" id="lgradient56_0_0_0">
<stop offset="0" stop-color="#545454" stop-opacity="1"/>
<stop offset="0.5" stop-color="#D8D8D8" stop-opacity="1"/>
<stop offset="1" stop-color="#545454" stop-opacity="1"/>
</linearGradient>
<linearGradient x1="0.000000%" y1="50.000000%" x2="100.000000%" y2="50.000000%" id="lgradient56_0_0_1_0">
<stop offset="0" stop-color="#696969" stop-opacity="1"/>
<stop offset="0.5" stop-color="#D8D8D8" stop-opacity="1"/>
<stop offset="1" stop-color="#696969" stop-opacity="1"/>
</linearGradient>
<linearGradient x1="0.000000%" y1="50.000000%" x2="100.000000%" y2="50.000000%" id="lgradient64_2">
<stop offset="0" stop-color="#2C2C2C" stop-opacity="1"/>
<stop offset="0.5" stop-color="#FFFFFF" stop-opacity="1"/>
<stop offset="1" stop-color="#2C2C2C" stop-opacity="1"/>
</linearGradient>
<linearGradient x1="0.000000%" y1="50.000000%" x2="100.000000%" y2="50.000000%" id="lgradient64_3">
<stop offset="0" stop-color="#2C2C2C" stop-opacity="1"/>
<stop offset="0.5" stop-color="#FFFFFF" stop-opacity="1"/>
<stop offset="1" stop-color="#2C2C2C" stop-opacity="1"/>
</linearGradient>
<linearGradient x1="0.000000%" y1="50.000000%" x2="100.000000%" y2="50.000000%" id="lgradient65_2">
<stop offset="0" stop-color="#2C2C2C" stop-opacity="1"/>
<stop offset="0.5" stop-color="#FFFFFF" stop-opacity="1"/>
<stop offset="1" stop-color="#2C2C2C" stop-opacity="1"/>
</linearGradient>
<linearGradient x1="0.000000%" y1="50.000000%" x2="100.000000%" y2="50.000000%" id="lgradient65_3">
<stop offset="0" stop-color="#2C2C2C" stop-opacity="1"/>
<stop offset="0.5" stop-color="#FFFFFF" stop-opacity="1"/>
<stop offset="1" stop-color="#2C2C2C" stop-opacity="1"/>
</linearGradient>
<linearGradient x1="50.000000%" y1="0.000000%" x2="50.000000%" y2="100.000000%" id="lgradient67_2">
<stop offset="0" stop-color="#2C2C2C" stop-opacity="1"/>
<stop offset="0.5" stop-color="#FFFFFF" stop-opacity="1"/>
<stop offset="1" stop-color="#2C2C2C" stop-opacity="1"/>
</linearGradient>
<linearGradient x1="50.000000%" y1="0.000000%" x2="50.000000%" y2="100.000000%" id="lgradient67_3">
<stop offset="0" stop-color="#2C2C2C" stop-opacity="1"/>
<stop offset="0.5" stop-color="#FFFFFF" stop-opacity="1"/>
<stop offset="1" stop-color="#2C2C2C" stop-opacity="1"/>
</linearGradient>
<linearGradient x1="50.000000%" y1="0.000000%" x2="50.000000%" y2="100.000000%" id="lgradient68_2">
<stop offset="0" stop-color="#2C2C2C" stop-opacity="1"/>
<stop offset="0.5" stop-color="#FFFFFF" stop-opacity="1"/>
<stop offset="1" stop-color="#2C2C2C" stop-opacity="1"/>
</linearGradient>
<linearGradient x1="50.000000%" y1="0.000000%" x2="50.000000%" y2="100.000000%" id="lgradient68_3">
<stop offset="0" stop-color="#2C2C2C" stop-opacity="1"/>
<stop offset="0.5" stop-color="#FFFFFF" stop-opacity="1"/>
<stop offset="1" stop-color="#2C2C2C" stop-opacity="1"/>
</linearGradient>
<linearGradient x1="50.000000%" y1="0.000000%" x2="50.000000%" y2="100.000000%" id="lgradient69_2">
<stop offset="0" stop-color="#2C2C2C" stop-opacity="1"/>
<stop offset="0.5" stop-color="#FFFFFF" stop-opacity="1"/>
<stop offset="1" stop-color="#2C2C2C" stop-opacity="1"/>
</linearGradient>
<linearGradient x1="50.000000%" y1="0.000000%" x2="50.000000%" y2="100.000000%" id="lgradient69_3">
<stop offset="0" stop-color="#2C2C2C" stop-opacity="1"/>
<stop offset="0.5" stop-color="#FFFFFF" stop-opacity="1"/>
<stop offset="1" stop-color="#2C2C2C" stop-opacity="1"/>
</linearGradient>
<linearGradient x1="50.000000%" y1="0.000000%" x2="50.000000%" y2="100.000000%" id="lgradient70_2">
<stop offset="0" stop-color="#2C2C2C" stop-opacity="1"/>
<stop offset="0.5" stop-color="#FFFFFF" stop-opacity="1"/>
<stop offset="1" stop-color="#2C2C2C" stop-opacity="1"/>
</linearGradient>
<linearGradient x1="50.000000%" y1="0.000000%" x2="50.000000%" y2="100.000000%" id="lgradient70_3">
<stop offset="0" stop-color="#2C2C2C" stop-opacity="1"/>
<stop offset="0.5" stop-color="#FFFFFF" stop-opacity="1"/>
<stop offset="1" stop-color="#2C2C2C" stop-opacity="1"/>
</linearGradient>
<linearGradient x1="50.000000%" y1="0.000000%" x2="50.000000%" y2="100.000000%" id="lgradient72_2">
<stop offset="0" stop-color="#2C2C2C" stop-opacity="1"/>
<stop offset="0.5" stop-color="#FFFFFF" stop-opacity="1"/>
<stop offset="1" stop-color="#2C2C2C" stop-opacity="1"/>
</linearGradient>
<linearGradient x1="50.000000%" y1="0.000000%" x2="50.000000%" y2="100.000000%" id="lgradient72_3">
<stop offset="0" stop-color="#2C2C2C" stop-opacity="1"/>
<stop offset="0.5" stop-color="#FFFFFF" stop-opacity="1"/>
<stop offset="1" stop-color="#2C2C2C" stop-opacity="1"/>
</linearGradient>
<linearGradient x1="0.000000%" y1="50.000000%" x2="100.000000%" y2="50.000000%" id="lgradient148">
<stop offset="0" stop-color="#424242" stop-opacity="1"/>
<stop offset="0.5" stop-color="#FFFFFF" stop-opacity="1"/>
<stop offset="1" stop-color="#424242" stop-opacity="1"/>
</linearGradient>
<linearGradient x1="50.000000%" y1="0.000000%" x2="50.000000%" y2="100.000000%" id="lgradient149">
<stop offset="0" stop-color="#424242" stop-opacity="1"/>
<stop offset="0.5" stop-color="#FFFFFF" stop-opacity="1"/>
<stop offset="1" stop-color="#424242" stop-opacity="1"/>
</linearGradient>
</defs>
<line shape-type="limitline" x1="333" y1="136" x2="301" y2="136" fill="#C0C0C0" stroke="#0000A0" stroke-width="2"/>
<line shape-type="limitline" x1="485" y1="131" x2="485" y2="208" fill="#C0C0C0" stroke="#008000" stroke-width="2"/>
<line shape-type="limitline" x1="333" y1="323" x2="256" y2="323" fill="#C0C0C0" stroke="#0000A0" stroke-width="2"/>
<line shape-type="limitline" x1="689" y1="198" x2="689" y2="226" fill="#C0C0C0" stroke="#0000A0" stroke-width="2"/>
<line shape-type="limitline" x1="549" y1="99" x2="549" y2="197" fill="#C0C0C0" stroke="#0000A0" stroke-width="2"/>
<line shape-type="limitline" x1="508" y1="90" x2="508" y2="136" fill="#C0C0C0" stroke="#0000A0" stroke-width="2"/>
<line shape-type="limitline" x1="531" y1="49" x2="531" y2="95" fill="#C0C0C0" stroke="#0000A0" stroke-width="2"/>
<line shape-type="limitline" x1="351" y1="50" x2="351" y2="95" fill="#C0C0C0" stroke="#0000A0" stroke-width="2"/>
<line shape-type="limitline" x1="726" y1="424" x2="726" y2="38" fill="#C0C0C0" stroke="#0000A0" stroke-width="2"/>
<line shape-type="limitline" x1="350" y1="419" x2="350" y2="353" fill="#C0C0C0" stroke="#0000A0" stroke-width="2"/>
<line shape-type="limitline" x1="279" y1="373" x2="279" y2="419" fill="#C0C0C0" stroke="#0000A0" stroke-width="2"/>
<line shape-type="limitline" x1="204" y1="397" x2="204" y2="369" fill="#C0C0C0" stroke="#FF8000" stroke-width="2"/>
<line shape-type="limitline" x1="127" y1="483" x2="146" y2="483" fill="#C0C0C0" stroke="#0000A0" stroke-width="2"/>
<line shape-type="limitline" x1="72" y1="481" x2="93" y2="481" fill="#C0C0C0" stroke="#0000A0" stroke-width="2"/>
<text font-family="宋体" text-anchor="start" fill="#FFFF00" shape-type="text" id="" font-size="17.000000" font-weight="bold" x="266" y="23">气分分馏工艺流程图(二)</text>
<g shape-type="group">
<rect shape-type="roundRectangle" rx="20" ry="20" x="471" y="86" width="118" height="18" fill="url(#lgradient16_0)" stroke="#000000" stroke-width="0"/>
<g shape-type="group">
<rect shape-type="rectangle" x="493" y="82" width="7" height="26" fill="url(#lgradient16_1_0)" stroke="#000000" stroke-width="0"/>
<rect shape-type="rectangle" x="491" y="82" width="3" height="26" fill="url(#lgradient16_1_1)" stroke="#000000" stroke-width="0"/>
</g>
<g shape-type="group">
<rect shape-type="rectangle" x="472" y="82" width="7" height="26" fill="url(#lgradient16_2_0)" stroke="#000000" stroke-width="0"/>
<rect shape-type="rectangle" x="470" y="82" width="3" height="26" fill="url(#lgradient16_2_1)" stroke="#000000" stroke-width="0"/>
</g>
</g>
<g shape-type="group">
<rect shape-type="rectangle" x="26" y="29" width="44" height="14" fill="#004080" stroke="#000000" stroke-width="0"/>
<polygon shape-type="trapezium" points="66,20 66,51 81,36 81,36 66,20" fill="#004080" stroke-width="0"/>
</g>
<line shape-type="limitline" x1="133" y1="449" x2="133" y2="159" fill="#C0C0C0" stroke="#0000A0" stroke-width="2"/>
<line shape-type="limitline" x1="333" y1="158" x2="132" y2="158" fill="#C0C0C0" stroke="#0000A0" stroke-width="2"/>
<line shape-type="limitline" x1="157" y1="423" x2="157" y2="369" fill="#C0C0C0" stroke="#FF8000" stroke-width="2"/>
<line shape-type="limitline" x1="205" y1="370" x2="158" y2="370" fill="#C0C0C0" stroke="#FF8000" stroke-width="2"/>
<g shape-type="group">
<path shape-type="arc" d="M 147,426 A 5,10 0 0,0 155,426" fill="none" stroke="#FF8000" stroke-width="2"/>
<path shape-type="arc" d="M 165,427 A 6,10 0 0,0 156,427" fill="none" stroke="#FF8000" stroke-width="2"/>
</g>
<g shape-type="group">
<g shape-type="group">
<g shape-type="group">
<rect shape-type="roundRectangle" rx="20" ry="20" x="104" y="464" width="10" height="18" fill="url(#lgradient23_0_0_0)" stroke="#000000" stroke-width="0"/>
<g shape-type="group">
<rect shape-type="rectangle" x="103" y="464" width="13" height="2" fill="url(#lgradient23_0_0_1_0)" stroke="#000000" stroke-width="0"/>
<rect shape-type="rectangle" x="103" y="464" width="13" height="2" fill="none" stroke="#000000" stroke-width="0"/>
</g>
</g>
<ellipse shape-type="ellipse" cx="102" cy="479" rx="12" ry="11" fill="#D8D8D8" stroke="#000000" stroke-width="0"/>
<ellipse shape-type="ellipse" cx="93" cy="475" rx="1" ry="1" fill="#FFFFFF" stroke="#000000" stroke-width="0"/>
<ellipse shape-type="ellipse" cx="101" cy="479" rx="5" ry="5" fill="#C0C0C0" stroke="#000000" stroke-width="0"/>
<ellipse shape-type="ellipse" cx="93" cy="480" rx="1" ry="1" fill="#FFFFFF" stroke="#000000" stroke-width="0"/>
<ellipse shape-type="ellipse" cx="96" cy="484" rx="1" ry="1" fill="#FFFFFF" stroke="#000000" stroke-width="0"/>
<ellipse shape-type="ellipse" cx="101" cy="488" rx="1" ry="2" fill="#FFFFFF" stroke="#000000" stroke-width="0"/>
<ellipse shape-type="ellipse" cx="108" cy="485" rx="1" ry="1" fill="#FFFFFF" stroke="#000000" stroke-width="0"/>
<ellipse shape-type="ellipse" cx="111" cy="481" rx="2" ry="1" fill="#FFFFFF" stroke="#000000" stroke-width="0"/>
<ellipse shape-type="ellipse" cx="109" cy="475" rx="1" ry="1" fill="#FFFFFF" stroke="#000000" stroke-width="0"/>
<ellipse shape-type="ellipse" cx="104" cy="471" rx="1" ry="1" fill="#FFFFFF" stroke="#000000" stroke-width="0"/>
<ellipse shape-type="ellipse" cx="98" cy="472" rx="1" ry="1" fill="#FFFFFF" stroke="#000000" stroke-width="0"/>
</g>
<g shape-type="group">
<rect shape-type="rectangle" x="89" y="490" width="28" height="3" fill="#008000" stroke="#000000" stroke-width="1"/>
<polygon shape-type="trapezium" points="117,490 89,490 103,484 103,484 117,490" fill="#008000" stroke-width="0"/>
<rect shape-type="rectangle" x="100" y="484" width="4" height="6" fill="#008000" stroke="#000000" stroke-width="1"/>
<ellipse shape-type="ellipse" cx="102" cy="487" rx="2" ry="1" fill="#008000" stroke="#000000" stroke-width="1"/>
</g>
</g>
<rect shape-type="roundRectangle" rx="20" ry="20" x="331" y="70" width="38" height="308" fill="url(#lgradient24)" stroke="#000000" stroke-width="0"/>
<g shape-type="group">
<rect shape-type="roundRectangle" rx="20" ry="20" x="471" y="124" width="118" height="18" fill="url(#lgradient25_0)" stroke="#000000" stroke-width="0"/>
<g shape-type="group">
<rect shape-type="rectangle" x="493" y="120" width="7" height="26" fill="url(#lgradient25_1_0)" stroke="#000000" stroke-width="0"/>
<rect shape-type="rectangle" x="491" y="120" width="3" height="26" fill="url(#lgradient25_1_1)" stroke="#000000" stroke-width="0"/>
</g>
<g shape-type="group">
<rect shape-type="rectangle" x="472" y="120" width="7" height="26" fill="url(#lgradient25_2_0)" stroke="#000000" stroke-width="0"/>
<rect shape-type="rectangle" x="470" y="120" width="3" height="26" fill="url(#lgradient25_2_1)" stroke="#000000" stroke-width="0"/>
</g>
</g>
<g shape-type="group">
<rect shape-type="roundRectangle" rx="20" ry="20" x="188" y="385" width="116" height="21" fill="url(#lgradient26_0)" stroke="#000000" stroke-width="0"/>
<g shape-type="group">
<rect shape-type="rectangle" x="209" y="380" width="8" height="31" fill="url(#lgradient26_1_0)" stroke="#000000" stroke-width="0"/>
<rect shape-type="rectangle" x="207" y="380" width="3" height="31" fill="url(#lgradient26_1_1)" stroke="#000000" stroke-width="0"/>
</g>
<g shape-type="group">
<rect shape-type="rectangle" x="189" y="380" width="6" height="31" fill="url(#lgradient26_2_0)" stroke="#000000" stroke-width="0"/>
<rect shape-type="rectangle" x="186" y="380" width="4" height="31" fill="url(#lgradient26_2_1)" stroke="#000000" stroke-width="0"/>
</g>
</g>
<g shape-type="group">
<g shape-type="group">
<g shape-type="group">
<rect shape-type="roundRectangle" rx="20" ry="20" x="155" y="464" width="10" height="18" fill="url(#lgradient27_0_0_0)" stroke="#000000" stroke-width="0"/>
<g shape-type="group">
<rect shape-type="rectangle" x="154" y="464" width="13" height="2" fill="url(#lgradient27_0_0_1_0)" stroke="#000000" stroke-width="0"/>
<rect shape-type="rectangle" x="154" y="464" width="13" height="2" fill="none" stroke="#000000" stroke-width="0"/>
</g>
</g>
<ellipse shape-type="ellipse" cx="153" cy="479" rx="12" ry="11" fill="#D8D8D8" stroke="#000000" stroke-width="0"/>
<ellipse shape-type="ellipse" cx="144" cy="475" rx="1" ry="1" fill="#FFFFFF" stroke="#000000" stroke-width="0"/>
<ellipse shape-type="ellipse" cx="152" cy="479" rx="5" ry="5" fill="#C0C0C0" stroke="#000000" stroke-width="0"/>
<ellipse shape-type="ellipse" cx="144" cy="480" rx="1" ry="1" fill="#FFFFFF" stroke="#000000" stroke-width="0"/>
<ellipse shape-type="ellipse" cx="147" cy="484" rx="1" ry="1" fill="#FFFFFF" stroke="#000000" stroke-width="0"/>
<ellipse shape-type="ellipse" cx="152" cy="488" rx="1" ry="2" fill="#FFFFFF" stroke="#000000" stroke-width="0"/>
<ellipse shape-type="ellipse" cx="159" cy="485" rx="1" ry="1" fill="#FFFFFF" stroke="#000000" stroke-width="0"/>
<ellipse shape-type="ellipse" cx="162" cy="481" rx="2" ry="1" fill="#FFFFFF" stroke="#000000" stroke-width="0"/>
<ellipse shape-type="ellipse" cx="160" cy="475" rx="1" ry="1" fill="#FFFFFF" stroke="#000000" stroke-width="0"/>
<ellipse shape-type="ellipse" cx="155" cy="471" rx="1" ry="1" fill="#FFFFFF" stroke="#000000" stroke-width="0"/>
<ellipse shape-type="ellipse" cx="149" cy="472" rx="1" ry="1" fill="#FFFFFF" stroke="#000000" stroke-width="0"/>
</g>
<g shape-type="group">
<rect shape-type="rectangle" x="140" y="490" width="28" height="3" fill="#008000" stroke="#000000" stroke-width="1"/>
<polygon shape-type="trapezium" points="168,490 140,490 154,484 154,484 168,490" fill="#008000" stroke-width="0"/>
<rect shape-type="rectangle" x="151" y="484" width="4" height="6" fill="#008000" stroke="#000000" stroke-width="1"/>
<ellipse shape-type="ellipse" cx="153" cy="487" rx="2" ry="1" fill="#008000" stroke="#000000" stroke-width="1"/>
</g>
</g>
<g shape-type="group">
<rect shape-type="rectangle" x="754" y="433" width="35" height="14" fill="#004080" stroke="#000000" stroke-width="0"/>
<polygon shape-type="trapezium" points="785,424 785,455 797,440 797,440 785,424" fill="#004080" stroke-width="0"/>
</g>
<line shape-type="limitline" x1="82" y1="37" x2="756" y2="37" fill="#C0C0C0" stroke="#0000A0" stroke-width="2"/>
<g shape-type="group">
<rect shape-type="rectangle" x="743" y="30" width="42" height="14" fill="#004080" stroke="#000000" stroke-width="0"/>
<polygon shape-type="trapezium" points="782,21 782,52 797,37 797,37 782,21" fill="#004080" stroke-width="0"/>
</g>
<line shape-type="limitline" x1="368" y1="92" x2="332" y2="92" fill="#00FFFF" stroke="#000000" stroke-width="0"/>
<line shape-type="limitline" x1="368" y1="142" x2="332" y2="142" fill="#00FFFF" stroke="#000000" stroke-width="0"/>
<line shape-type="limitline" x1="368" y1="165" x2="332" y2="165" fill="#00FFFF" stroke="#000000" stroke-width="0"/>
<line shape-type="limitline" x1="368" y1="188" x2="332" y2="188" fill="#00FFFF" stroke="#000000" stroke-width="0"/>
<line shape-type="limitline" x1="368" y1="299" x2="332" y2="299" fill="#00FFFF" stroke="#000000" stroke-width="0"/>
<rect shape-type="rectangle" x="353" y="306" width="15" height="57" fill="#C0C0C0" stroke="#000000" stroke-width="0"/>
<line shape-type="limitline" x1="332" y1="180" x2="300" y2="180" fill="#C0C0C0" stroke="#0000A0" stroke-width="2"/>
<line shape-type="limitline" x1="300" y1="135" x2="300" y2="180" fill="#C0C0C0" stroke="#0000A0" stroke-width="2"/>
<line shape-type="limitline" x1="108" y1="450" x2="160" y2="450" fill="#C0C0C0" stroke="#0000A0" stroke-width="2"/>
<line shape-type="limitline" x1="110" y1="465" x2="110" y2="450" fill="#C0C0C0" stroke="#0000A0" stroke-width="2"/>
<line shape-type="limitline" x1="161" y1="466" x2="161" y2="451" fill="#C0C0C0" stroke="#0000A0" stroke-width="2"/>
<g shape-type="group">
<rect shape-type="rectangle" x="30" y="473" width="35" height="13" fill="#004080" stroke="#000000" stroke-width="0"/>
<polygon shape-type="trapezium" points="61,464 61,495 73,480 73,480 61,464" fill="#004080" stroke-width="0"/>
</g>
<line shape-type="limitline" x1="77" y1="482" x2="77" y2="509" fill="#C0C0C0" stroke="#0000A0" stroke-width="2"/>
<line shape-type="limitline" x1="127" y1="482" x2="127" y2="508" fill="#C0C0C0" stroke="#0000A0" stroke-width="2"/>
<line shape-type="limitline" x1="181" y1="157" x2="181" y2="363" fill="#C0C0C0" stroke="#0000A0" stroke-width="2"/>
<line shape-type="limitline" x1="181" y1="440" x2="181" y2="374" fill="#C0C0C0" stroke="#0000A0" stroke-width="2"/>
<line shape-type="limitline" x1="181" y1="441" x2="757" y2="441" fill="#C0C0C0" stroke="#0000A0" stroke-width="2"/>
<line shape-type="limitline" x1="235" y1="373" x2="278" y2="373" fill="#C0C0C0" stroke="#0000A0" stroke-width="2"/>
<line shape-type="limitline" x1="236" y1="387" x2="236" y2="372" fill="#C0C0C0" stroke="#0000A0" stroke-width="2"/>
<line shape-type="limitline" x1="279" y1="420" x2="350" y2="420" fill="#C0C0C0" stroke="#0000A0" stroke-width="2"/>
<line shape-type="limitline" x1="350" y1="385" x2="405" y2="385" fill="#C0C0C0" stroke="#0000A0" stroke-width="2"/>
<line shape-type="limitline" x1="406" y1="440" x2="406" y2="384" fill="#C0C0C0" stroke="#0000A0" stroke-width="2"/>
<line shape-type="limitline" x1="368" y1="110" x2="413" y2="110" fill="#C0C0C0" stroke="#0000A0" stroke-width="2"/>
<line shape-type="limitline" x1="414" y1="109" x2="414" y2="298" fill="#C0C0C0" stroke="#0000A0" stroke-width="2"/>
<line shape-type="limitline" x1="413" y1="299" x2="485" y2="299" fill="#C0C0C0" stroke="#0000A0" stroke-width="2"/>
<g shape-type="group">
<g shape-type="group">
<g shape-type="group">
<rect shape-type="roundRectangle" rx="20" ry="20" x="479" y="464" width="9" height="18" fill="url(#lgradient56_0_0_0)" stroke="#000000" stroke-width="0"/>
<g shape-type="group">
<rect shape-type="rectangle" x="478" y="464" width="12" height="2" fill="url(#lgradient56_0_0_1_0)" stroke="#000000" stroke-width="0"/>
<rect shape-type="rectangle" x="478" y="464" width="12" height="2" fill="none" stroke="#000000" stroke-width="0"/>
</g>
</g>
<ellipse shape-type="ellipse" cx="492" cy="479" rx="13" ry="11" fill="#D8D8D8" stroke="#000000" stroke-width="0"/>
<ellipse shape-type="ellipse" cx="500" cy="475" rx="1" ry="1" fill="#FFFFFF" stroke="#000000" stroke-width="0"/>
<ellipse shape-type="ellipse" cx="492" cy="479" rx="6" ry="5" fill="#C0C0C0" stroke="#000000" stroke-width="0"/>
<ellipse shape-type="ellipse" cx="500" cy="480" rx="1" ry="1" fill="#FFFFFF" stroke="#000000" stroke-width="0"/>
<ellipse shape-type="ellipse" cx="497" cy="484" rx="1" ry="1" fill="#FFFFFF" stroke="#000000" stroke-width="0"/>
<ellipse shape-type="ellipse" cx="492" cy="488" rx="1" ry="2" fill="#FFFFFF" stroke="#000000" stroke-width="0"/>
<ellipse shape-type="ellipse" cx="484" cy="485" rx="1" ry="1" fill="#FFFFFF" stroke="#000000" stroke-width="0"/>
<ellipse shape-type="ellipse" cx="481" cy="481" rx="1" ry="1" fill="#FFFFFF" stroke="#000000" stroke-width="0"/>
<ellipse shape-type="ellipse" cx="483" cy="475" rx="1" ry="1" fill="#FFFFFF" stroke="#000000" stroke-width="0"/>
<ellipse shape-type="ellipse" cx="489" cy="471" rx="1" ry="1" fill="#FFFFFF" stroke="#000000" stroke-width="0"/>
<ellipse shape-type="ellipse" cx="495" cy="472" rx="1" ry="1" fill="#FFFFFF" stroke="#000000" stroke-width="0"/>
</g>
<g shape-type="group">
<rect shape-type="rectangle" x="478" y="490" width="27" height="3" fill="#008000" stroke="#000000" stroke-width="1"/>
<polygon shape-type="trapezium" points="478,490 506,490 492,484 492,484 478,490" fill="#008000" stroke-width="0"/>
<rect shape-type="rectangle" x="490" y="484" width="4" height="6" fill="#008000" stroke="#000000" stroke-width="1"/>
<ellipse shape-type="ellipse" cx="492" cy="487" rx="2" ry="1" fill="#008000" stroke="#000000" stroke-width="1"/>
</g>
</g>
<line shape-type="limitline" x1="485" y1="463" x2="485" y2="300" fill="#C0C0C0" stroke="#0000A0" stroke-width="2"/>
<line shape-type="limitline" x1="504" y1="481" x2="558" y2="481" fill="#C0C0C0" stroke="#0000A0" stroke-width="2"/>
<line shape-type="limitline" x1="559" y1="481" x2="559" y2="425" fill="#C0C0C0" stroke="#0000A0" stroke-width="2"/>
<line shape-type="limitline" x1="559" y1="426" x2="724" y2="426" fill="#C0C0C0" stroke="#0000A0" stroke-width="2"/>
<line shape-type="limitline" x1="351" y1="49" x2="632" y2="49" fill="#C0C0C0" stroke="#0000A0" stroke-width="2"/>
<line shape-type="limitline" x1="634" y1="48" x2="634" y2="197" fill="#C0C0C0" stroke="#0000A0" stroke-width="2"/>
<line shape-type="limitline" x1="688" y1="198" x2="548" y2="198" fill="#C0C0C0" stroke="#0000A0" stroke-width="2"/>
<g shape-type="group">
<line shape-type="limitline" x1="221" y1="150" x2="220" y2="157" fill="#00FF40" stroke="#000000" stroke-width="0"/>
<line shape-type="limitline" x1="223" y1="150" x2="222" y2="157" fill="#00FF40" stroke="#000000" stroke-width="0"/>
<polygon shape-type="trapezium" points="214,153 214,161 222,157 222,157 214,153" fill="url(#lgradient64_2)" stroke="#000000" stroke-width="0"/>
<polygon shape-type="trapezium" points="232,161 232,154 222,157 222,157 232,161" fill="url(#lgradient64_3)" stroke="#000000" stroke-width="0"/>
<g shape-type="group">
<path shape-type="pie" d="M 228,149 A 6,5 0 0,0 216,149 L 223,149 z" fill="#00FF40" stroke="#000000" stroke-width="0"/>
<rect shape-type="rectangle" x="216" y="148" width="13" height="3" fill="#FFFFFF" stroke="#000000" stroke-width="0"/>
</g>
</g>
<g shape-type="group">
<line shape-type="limitline" x1="168" y1="361" x2="167" y2="369" fill="#00FF40" stroke="#000000" stroke-width="0"/>
<line shape-type="limitline" x1="169" y1="361" x2="168" y2="369" fill="#00FF40" stroke="#000000" stroke-width="0"/>
<polygon shape-type="trapezium" points="160,366 160,373 169,370 169,370 160,366" fill="url(#lgradient65_2)" stroke="#000000" stroke-width="0"/>
<polygon shape-type="trapezium" points="178,373 178,367 169,370 169,370 178,373" fill="url(#lgradient65_3)" stroke="#000000" stroke-width="0"/>
<g shape-type="group">
<path shape-type="pie" d="M 174,362 A 5,5 0 0,0 164,362 L 170,361 z" fill="#00FF40" stroke="#000000" stroke-width="0"/>
<rect shape-type="rectangle" x="164" y="360" width="11" height="4" fill="#FFFFFF" stroke="#000000" stroke-width="0"/>
</g>
</g>
<line shape-type="limitline" x1="257" y1="371" x2="257" y2="323" fill="#C0C0C0" stroke="#0000A0" stroke-width="2"/>
<g shape-type="group">
<line shape-type="limitline" x1="627" y1="110" x2="634" y2="111" fill="#00FF40" stroke="#000000" stroke-width="0"/>
<line shape-type="limitline" x1="627" y1="113" x2="634" y2="114" fill="#00FF40" stroke="#000000" stroke-width="0"/>
<polygon shape-type="trapezium" points="639,104 630,104 635,113 635,113 639,104" fill="url(#lgradient67_2)" stroke="#000000" stroke-width="0"/>
<polygon shape-type="trapezium" points="631,123 639,123 635,113 635,113 631,123" fill="url(#lgradient67_3)" stroke="#000000" stroke-width="0"/>
<g shape-type="group">
<path shape-type="pie" d="M 626,106 A 5,7 0 1,0 626,119 L 626,113 z" fill="#00FF40" stroke="#000000" stroke-width="0"/>
<rect shape-type="rectangle" x="625" y="106" width="3" height="14" fill="#FFFFFF" stroke="#000000" stroke-width="0"/>
</g>
</g>
<g shape-type="group">
<line shape-type="limitline" x1="719" y1="110" x2="725" y2="111" fill="#00FF40" stroke="#000000" stroke-width="0"/>
<line shape-type="limitline" x1="719" y1="113" x2="725" y2="114" fill="#00FF40" stroke="#000000" stroke-width="0"/>
<polygon shape-type="trapezium" points="729,104 722,104 726,113 726,113 729,104" fill="url(#lgradient68_2)" stroke="#000000" stroke-width="0"/>
<polygon shape-type="trapezium" points="723,123 729,123 726,113 726,113 723,123" fill="url(#lgradient68_3)" stroke="#000000" stroke-width="0"/>
<g shape-type="group">
<path shape-type="pie" d="M 719,106 A 4,7 0 1,0 719,119 L 718,113 z" fill="#00FF40" stroke="#000000" stroke-width="0"/>
<rect shape-type="rectangle" x="718" y="106" width="2" height="14" fill="#FFFFFF" stroke="#000000" stroke-width="0"/>
</g>
</g>
<g shape-type="group">
<line shape-type="limitline" x1="493" y1="178" x2="485" y2="179" fill="#00FF40" stroke="#000000" stroke-width="0"/>
<line shape-type="limitline" x1="493" y1="180" x2="485" y2="181" fill="#00FF40" stroke="#000000" stroke-width="0"/>
<polygon shape-type="trapezium" points="482,172 489,172 485,180 485,180 482,172" fill="url(#lgradient69_2)" stroke="#000000" stroke-width="0"/>
<polygon shape-type="trapezium" points="488,191 482,191 485,180 485,180 488,191" fill="url(#lgradient69_3)" stroke="#000000" stroke-width="0"/>
<g shape-type="group">
<path shape-type="pie" d="M 494,188 A 5,7 0 1,0 494,174 L 494,182 z" fill="#00FF40" stroke="#000000" stroke-width="0"/>
<rect shape-type="rectangle" x="491" y="174" width="3" height="15" fill="#FFFFFF" stroke="#000000" stroke-width="0"/>
</g>
</g>
<g shape-type="group">
<line shape-type="limitline" x1="421" y1="203" x2="414" y2="204" fill="#00FF40" stroke="#000000" stroke-width="0"/>
<line shape-type="limitline" x1="421" y1="205" x2="414" y2="206" fill="#00FF40" stroke="#000000" stroke-width="0"/>
<polygon shape-type="trapezium" points="410,197 418,197 414,205 414,205 410,197" fill="url(#lgradient70_2)" stroke="#000000" stroke-width="0"/>
<polygon shape-type="trapezium" points="417,216 410,216 414,205 414,205 417,216" fill="url(#lgradient70_3)" stroke="#000000" stroke-width="0"/>
<g shape-type="group">
<path shape-type="pie" d="M 422,213 A 5,7 0 1,0 422,199 L 422,207 z" fill="#00FF40" stroke="#000000" stroke-width="0"/>
<rect shape-type="rectangle" x="420" y="199" width="2" height="15" fill="#FFFFFF" stroke="#000000" stroke-width="0"/>
</g>
</g>
<g shape-type="group">
<path shape-type="arc" d="M 476,210 A 5,11 0 0,0 484,210" fill="none" stroke="#008000" stroke-width="2"/>
<path shape-type="arc" d="M 494,209 A 6,11 0 0,0 485,209" fill="none" stroke="#008000" stroke-width="2"/>
</g>
<g shape-type="group">
<line shape-type="limitline" x1="414" y1="413" x2="406" y2="414" fill="#00FF40" stroke="#000000" stroke-width="0"/>
<line shape-type="limitline" x1="414" y1="415" x2="406" y2="416" fill="#00FF40" stroke="#000000" stroke-width="0"/>
<polygon shape-type="trapezium" points="403,406 410,406 406,415 406,415 403,406" fill="url(#lgradient72_2)" stroke="#000000" stroke-width="0"/>
<polygon shape-type="trapezium" points="409,425 403,425 406,415 406,415 409,425" fill="url(#lgradient72_3)" stroke="#000000" stroke-width="0"/>
<g shape-type="group">
<path shape-type="pie" d="M 415,421 A 6,7 0 1,0 415,408 L 415,415 z" fill="#00FF40" stroke="#000000" stroke-width="0"/>
<rect shape-type="rectangle" x="413" y="408" width="2" height="14" fill="#FFFFFF" stroke="#000000" stroke-width="0"/>
</g>
</g>
<text font-family="宋体" text-anchor="start" fill="#000000" shape-type="text" id="" font-size="11.750000" x="344" y="89">1</text>
<text font-family="宋体" text-anchor="start" fill="#000000" shape-type="text" id="" font-size="11.750000" x="341" y="137">15</text>
<text font-family="宋体" text-anchor="start" fill="#000000" shape-type="text" id="" font-size="11.750000" x="341" y="161">17</text>
<text font-family="宋体" text-anchor="start" fill="#000000" shape-type="text" id="" font-size="12.500000" x="341" y="185">19</text>
<text font-family="宋体" text-anchor="start" fill="#000000" shape-type="text" id="" font-size="11.750000" x="341" y="294">45</text>
<text font-family="宋体" text-anchor="start" fill="#FFFFFF" shape-type="text" id="" font-size="11.000000" x="24" y="40">高压瓦斯</text>
<text font-family="宋体" text-anchor="start" fill="#FFFFFF" shape-type="text" id="" font-size="11.000000" x="740" y="40">高压瓦斯</text>
<text font-family="宋体" text-anchor="start" fill="#FFFFFF" shape-type="text" id="" font-size="11.000000" x="749" y="443">去T-203</text>
<text font-family="宋体" text-anchor="start" fill="#FFFFFF" shape-type="text" id="" font-size="11.000000" x="25" y="484">自V-202</text>
<text font-family="宋体" text-anchor="start" fill="#000080" shape-type="text" id="" font-size="11.000000" x="166" y="486">脱乙烷塔进料泵</text>
<text font-family="宋体" text-anchor="start" fill="#000080" shape-type="text" id="" font-size="11.000000" x="535" y="497">脱乙烷塔回流泵</text>
<text font-family="宋体" text-anchor="start" fill="#000080" shape-type="text" id="" font-size="11.000000" text-decoration="underline" x="234" y="401">E-202</text>
<text font-family="宋体" text-anchor="start" fill="#FF0000" shape-type="text" id="" font-size="11.750000" writing-mode="tb" glyph-orientation-vertical="0" x="159" y="394">蒸汽</text>
<text font-family="宋体" text-anchor="start" fill="#000080" shape-type="text" id="" font-size="11.000000" x="76" y="505">P-203/1</text>
<text font-family="宋体" text-anchor="start" fill="#000080" shape-type="text" id="" font-size="11.000000" x="129" y="505">P-203/2</text>
<text font-family="宋体" text-anchor="start" fill="#000080" shape-type="text" id="" font-size="11.000000" x="474" y="507">P-204</text>
<text font-family="宋体" text-anchor="start" fill="#000080" shape-type="text" id="" font-size="11.750000" writing-mode="tb" glyph-orientation-vertical="0" x="345" y="231">脱乙烷塔</text>
<text font-family="宋体" text-anchor="start" fill="#000080" shape-type="text" id="" font-size="11.000000" text-decoration="underline" x="333" y="208">C-202</text>
<text font-family="宋体" text-anchor="start" fill="#000080" shape-type="text" id="" font-size="11.000000" x="511" y="99">E-207/1</text>
<text font-family="宋体" text-anchor="start" fill="#000080" shape-type="text" id="" font-size="11.000000" x="511" y="137">E-207/2</text>
<polygon shape-type="trapezium" points="126,302 139,302 132,292 132,292 126,302" fill="#0000A0" stroke-width="0"/>
<polygon shape-type="trapezium" points="174,242 187,242 180,252 180,252 174,242" fill="#0000A0" stroke-width="0"/>
<polygon shape-type="trapezium" points="250,348 263,348 256,338 256,338 250,348" fill="#0000A0" stroke-width="0"/>
<polygon shape-type="trapezium" points="479,366 492,366 485,356 485,356 479,366" fill="#0000A0" stroke-width="0"/>
<polygon shape-type="trapezium" points="399,390 412,390 405,400 405,400 399,390" fill="#0000A0" stroke-width="0"/>
<polygon shape-type="trapezium" points="326,425 326,413 315,419 315,419 326,425" fill="#0000A0" stroke-width="0"/>
<polygon shape-type="trapezium" points="316,446 316,434 327,440 327,440 316,446" fill="#0000A0" stroke-width="0"/>
<polygon shape-type="trapezium" points="719,315 732,315 725,325 725,325 719,315" fill="#0000A0" stroke-width="0"/>
<polygon shape-type="trapezium" points="587,204 587,192 598,198 598,198 587,204" fill="#0000A0" stroke-width="0"/>
<polygon shape-type="trapezium" points="409,54 409,42 420,48 420,48 409,54" fill="#0000A0" stroke-width="0"/>
<text font-family="宋体" text-anchor="start" fill="#000000" shape-type="text" id="" font-size="14.000000" x="303" y="282">MPa</text>
<text font-family="宋体" text-anchor="start" fill="#000000" shape-type="text" id="" font-size="12.500000" x="247" y="175">%</text>
<text font-family="宋体" text-anchor="start" fill="#000000" shape-type="text" id="" font-size="12.500000" x="162" y="145">kg/h</text>
<text font-family="宋体" text-anchor="start" fill="#000000" shape-type="text" id="" font-size="12.500000" x="305" y="316">℃</text>
<text font-family="宋体" text-anchor="start" fill="#000000" shape-type="text" id="" font-size="12.500000" x="305" y="348">℃</text>
<text font-family="宋体" text-anchor="start" fill="#000000" shape-type="text" id="" font-size="12.500000" x="144" y="365">%</text>
<text font-family="宋体" text-anchor="start" fill="#000000" shape-type="text" id="" font-size="12.500000" x="458" y="274">kg/h</text>
<text font-family="宋体" text-anchor="start" fill="#000000" shape-type="text" id="" font-size="12.500000" x="474" y="434">%</text>
<text font-family="宋体" text-anchor="start" fill="#000000" shape-type="text" id="" font-size="12.500000" x="452" y="396">kg/h</text>
<text font-family="宋体" text-anchor="start" fill="#000000" shape-type="text" id="" font-size="12.500000" x="404" y="345">%</text>
<text font-family="宋体" text-anchor="start" fill="#000000" shape-type="text" id="" font-size="12.500000" x="600" y="250">%</text>
<text font-family="宋体" text-anchor="start" fill="#000000" shape-type="text" id="" font-size="14.000000" x="700" y="183">MPa</text>
<text font-family="宋体" text-anchor="start" fill="#000000" shape-type="text" id="" font-size="12.500000" x="784" y="115">%</text>
<text font-family="宋体" text-anchor="start" fill="#000000" shape-type="text" id="" font-size="12.500000" x="692" y="119">%</text>
<text font-family="宋体" text-anchor="start" fill="#000000" shape-type="text" id="" font-size="12.500000" x="530" y="184">℃</text>
<text font-family="宋体" text-anchor="start" fill="#000000" shape-type="text" id="" font-size="12.500000" x="471" y="174">%</text>
<text font-family="宋体" text-anchor="start" fill="#000000" shape-type="text" id="" font-size="12.500000" x="467" y="207">%</text>
<text font-family="宋体" text-anchor="start" fill="#000000" shape-type="text" id="" font-size="12.500000" x="447" y="137">℃</text>
<text font-family="宋体" text-anchor="start" fill="#000000" shape-type="text" id="" font-size="12.500000" x="401" y="83">℃</text>
<text font-family="Times New Roman" text-anchor="start" fill="#000080" shape-type="text" id="" font-size="11.750000" x="76" y="125">LIC203</text>
<text font-family="Times New Roman" text-anchor="start" fill="#000080" shape-type="text" id="" font-size="11.750000" x="124" y="125">FIC204</text>
<text font-family="Times New Roman" text-anchor="start" fill="#000080" shape-type="text" id="" font-size="11.750000" x="374" y="69">TI211</text>
<text font-family="Times New Roman" text-anchor="start" fill="#000080" shape-type="text" id="" font-size="11.750000" x="416" y="121">TI212</text>
<text font-family="Times New Roman" text-anchor="start" fill="#000080" shape-type="text" id="" font-size="11.750000" x="423" y="260">FIC206</text>
<text font-family="Times New Roman" text-anchor="start" fill="#000080" shape-type="text" id="" font-size="11.750000" x="372" y="325">LIC204</text>
<text font-family="Times New Roman" text-anchor="start" fill="#000080" shape-type="text" id="" font-size="11.750000" x="420" y="384">FIC205</text>
<text font-family="Times New Roman" text-anchor="start" fill="#000080" shape-type="text" id="" font-size="11.750000" x="565" y="234">LIC205</text>
<text font-family="Times New Roman" text-anchor="start" fill="#000080" shape-type="text" id="" font-size="11.750000" x="671" y="166">PIC206</text>
<text font-family="Times New Roman" text-anchor="start" fill="#000080" shape-type="text" id="" font-size="11.750000" x="503" y="167">TIC215</text>
<text font-family="Times New Roman" text-anchor="start" fill="#000080" shape-type="text" id="" font-size="11.750000" x="278" y="301">TI213</text>
<text font-family="Times New Roman" text-anchor="start" fill="#000080" shape-type="text" id="" font-size="11.750000" x="281" y="335">TI214</text>
<text font-family="Times New Roman" text-anchor="start" fill="#000080" shape-type="text" id="" font-size="11.750000" x="274" y="266">PIC205</text>
<text font-family="Arial" text-anchor="start" fill="#000000" shape-type="realdata" id="QF_TE214" font-size="12.500000" x="240" y="348">XXXXXXXX</text>
<text font-family="Arial" text-anchor="start" fill="#000000" shape-type="realdata" id="QF_TE213" font-size="12.500000" x="236" y="314">XXXXXXXX</text>
<text font-family="Arial" text-anchor="start" fill="#000000" shape-type="realdata" id="QF_PT205" font-size="12.500000" x="234" y="281">XXXXXXXX</text>
<text font-family="Arial" text-anchor="start" fill="#000000" shape-type="realdata" id="QF_FT206" font-size="12.500000" x="391" y="275">XXXXXXXX</text>
<text font-family="Arial" text-anchor="start" fill="#000000" shape-type="realdata" id="QF_TE211" font-size="12.500000" x="342" y="82">XXXXXXXX</text>
<text font-family="Arial" text-anchor="start" fill="#000000" shape-type="realdata" id="QF_TE212" font-size="12.500000" x="385" y="137">XXXXXXXX</text>
<text font-family="Arial" text-anchor="start" fill="#000000" shape-type="realdata" id="QF_FT204" font-size="12.500000" x="103" y="145">XXXXXXXX</text>
<text font-family="Arial" text-anchor="start" fill="#000000" shape-type="realdata" id="QF_LT203" font-size="12.500000" x="44" y="140">XXXXXXXX</text>
<text font-family="Arial" text-anchor="start" fill="#000000" shape-type="realdata" id="QF_FT205" font-size="12.500000" x="385" y="397">XXXXXXXX</text>
<text font-family="Arial" text-anchor="start" fill="#000000" shape-type="realdata" id="QF_LT204" font-size="12.500000" x="342" y="344">XXXXXXXX</text>
<text font-family="Arial" text-anchor="start" fill="#000000" shape-type="realdata" id="QF_LT205" font-size="12.500000" x="532" y="249">XXXXXXXX</text>
<text font-family="Arial" text-anchor="start" fill="#000000" shape-type="realdata" id="QF_PT206" font-size="12.500000" x="636" y="182">XXXXXXXX</text>
<text font-family="Arial" text-anchor="start" fill="#000000" shape-type="realdata" id="QF_TE215" font-size="12.500000" x="471" y="184">XXXXXXXX</text>
<rect shape-type="roundRectangle" rx="20" ry="20" x="664" y="258" width="24" height="44" fill="url(#lgradient148)" stroke="#000000" stroke-width="0"/>
<rect shape-type="roundRectangle" rx="20" ry="20" x="628" y="218" width="156" height="49" fill="url(#lgradient149)" stroke="#000000" stroke-width="0"/>
<rect shape-type="rectangle" x="647" y="219" width="16" height="45" fill="#C0C0C0" stroke="#000000" stroke-width="0"/>
<text font-family="宋体" text-anchor="start" fill="#000080" shape-type="text" id="" font-size="11.000000" x="669" y="238">脱乙烷塔回流罐</text>
<text font-family="宋体" text-anchor="start" fill="#000080" shape-type="text" id="" font-size="11.000000" text-decoration="underline" x="697" y="255">V-203</text>
<text font-family="Arial" text-anchor="start" fill="#000000" shape-type="realdata" id="QF_PIC206.MV" font-size="12.500000" x="713" y="115">XXXXXXXX</text>
<text font-family="Arial" text-anchor="start" fill="#000000" shape-type="realdata" id="QF_FIC204.MV" font-size="12.500000" x="178" y="177">XXXXXXXX</text>
<text font-family="Arial" text-anchor="start" fill="#000000" shape-type="realdata" id="QF_FIC206.MV" font-size="12.500000" x="395" y="207">XXXXXXXX</text>
<text font-family="Arial" text-anchor="start" fill="#000000" shape-type="realdata" id="QF_TIC215.MV" font-size="12.500000" x="402" y="173">XXXXXXXX</text>
<text font-family="Arial" text-anchor="start" fill="#000000" shape-type="realdata" id="QF_PIC205.MV" font-size="12.500000" x="624" y="118">XXXXXXXX</text>
<text font-family="Arial" text-anchor="start" fill="#000000" shape-type="realdata" id="QF_FIC205.MV" font-size="12.500000" x="407" y="434">XXXXXXXX</text>
<text font-family="Arial" text-anchor="start" fill="#000000" shape-type="realdata" id="QF_TIC213.MV" font-size="12.500000" x="73" y="365">XXXXXXXX</text>
<a xlink:href="7">
<g shape-type="button">
<rect fill="#C0C0C0" stroke-width="0.3" stroke="#FFFFFF" x="501" y="525" width="68" height="21" shape-type="buttonrect"/>
<text font-family="宋体" text-anchor="middle" dominant-baseline="middle" fill="#FFFF00" font-size="10.500000" x="535" y="540" shape-type="buttontext">脱硫(一)</text>
</g>
</a>
<a xlink:href="8">
<g shape-type="button">
<rect fill="#C0C0C0" stroke-width="0.3" stroke="#FFFFFF" x="572" y="525" width="68" height="21" shape-type="buttonrect"/>
<text font-family="宋体" text-anchor="middle" dominant-baseline="middle" fill="#FFFF00" font-size="10.500000" x="606" y="540" shape-type="buttontext">脱硫(二)</text>
</g>
</a>
<a xlink:href="9">
<g shape-type="button">
<rect fill="#C0C0C0" stroke-width="0.3" stroke="#FFFFFF" x="643" y="525" width="68" height="21" shape-type="buttonrect"/>
<text font-family="宋体" text-anchor="middle" dominant-baseline="middle" fill="#FFFF00" font-size="10.500000" x="677" y="540" shape-type="buttontext">液态烃脱硫醇</text>
</g>
</a>
<a xlink:href="2">
<g shape-type="button">
<rect fill="#C0C0C0" stroke-width="0.3" stroke="#FFFFFF" x="147" y="525" width="68" height="21" shape-type="buttonrect"/>
<text font-family="宋体" text-anchor="middle" dominant-baseline="middle" fill="#FFFF00" font-size="10.500000" x="181" y="540" shape-type="buttontext">分馏(一)</text>
</g>
</a>
<a xlink:href="3">
<g shape-type="button">
<rect fill="#C0C0C0" stroke-width="0.3" stroke="#FFFFFF" x="218" y="525" width="68" height="21" shape-type="buttonrect"/>
<text font-family="宋体" text-anchor="middle" dominant-baseline="middle" fill="#FFFF00" font-size="10.500000" x="252" y="540" shape-type="buttontext">分馏(二)</text>
</g>
</a>
<a xlink:href="4">
<g shape-type="button">
<rect fill="#C0C0C0" stroke-width="0.3" stroke="#FFFFFF" x="289" y="525" width="68" height="21" shape-type="buttonrect"/>
<text font-family="宋体" text-anchor="middle" dominant-baseline="middle" fill="#FFFF00" font-size="10.500000" x="323" y="540" shape-type="buttontext">分馏(三)</text>
</g>
</a>
<a xlink:href="5">
<g shape-type="button">
<rect fill="#C0C0C0" stroke-width="0.3" stroke="#FFFFFF" x="360" y="525" width="67" height="21" shape-type="buttonrect"/>
<text font-family="宋体" text-anchor="middle" dominant-baseline="middle" fill="#FFFF00" font-size="10.500000" x="394" y="540" shape-type="buttontext">公用</text>
</g>
</a>
<a xlink:href="6">
<g shape-type="button">
<rect fill="#C0C0C0" stroke-width="0.3" stroke="#FFFFFF" x="431" y="525" width="67" height="21" shape-type="buttonrect"/>
<text font-family="宋体" text-anchor="middle" dominant-baseline="middle" fill="#FFFF00" font-size="10.500000" x="464" y="540" shape-type="buttontext">空压站</text>
</g>
</a>
<a xlink:href="..\shihua">
<g shape-type="button">
<rect fill="#C0C0C0" stroke-width="0.3" stroke="#FFFFFF" x="714" y="525" width="69" height="21" shape-type="buttonrect"/>
<text font-family="宋体" text-anchor="middle" dominant-baseline="middle" fill="#FFFF00" font-size="12.000000" x="748" y="541" shape-type="buttontext">返回</text>
</g>
</a>
<a xlink:href="1">
<g shape-type="button">
<rect fill="#C0C0C0" stroke-width="0.3" stroke="#FFFFFF" x="76" y="525" width="68" height="21" shape-type="buttonrect"/>
<text font-family="宋体" text-anchor="middle" dominant-baseline="middle" fill="#FFFF00" font-size="10.500000" x="110" y="540" shape-type="buttontext">报警</text>
</g>
</a>
</svg>