<?xml version="1.0"?>
<?xml-stylesheet type='text/javascript'?>
<!--Draw SVG: 2019-11-11 16:19:00 45-Monday-->
<svg xmlns="http://www.w3.org/2000/svg" xmlns:xlink="http://www.w3.org/1999/xlink" version="1.1" style="background-color:#000000" width="1066" height="800" viewbox="0 0 1066 800">
<defs>
<marker id="Arrow1" markerUnits="strokeWidth" markerWidth="6" markerHeight="6" viewBox="0 0 6 6" refX="3" refY="3" orient="auto"><path d="M1,1 L5,3 L1,5 L3,3 L1,1" style="fill: #000000;"/></marker>
<marker id="Arrow2" markerUnits="strokeWidth" markerWidth="6" markerHeight="6" viewBox="0 0 6 6" refX="3" refY="3" orient="auto"><path d="M5,1 L1,3 L5,5 L3,3 L5,1" style="fill: #000000;"/></marker>
<linearGradient x1="50.000000%" y1="0.000000%" x2="50.000000%" y2="100.000000%" id="lgradient37_0">
<stop offset="0" stop-color="#2B2B2B" stop-opacity="1"/>
<stop offset="0.5" stop-color="#F9F9F9" stop-opacity="1"/>
<stop offset="1" stop-color="#2B2B2B" stop-opacity="1"/>
</linearGradient>
<linearGradient x1="0.000000%" y1="50.000000%" x2="100.000000%" y2="50.000000%" id="lgradient40_0_0">
<stop offset="0" stop-color="#212121" stop-opacity="1"/>
<stop offset="0.5" stop-color="#C0C0C0" stop-opacity="1"/>
<stop offset="1" stop-color="#212121" stop-opacity="1"/>
</linearGradient>
<linearGradient x1="0.000000%" y1="50.000000%" x2="100.000000%" y2="50.000000%" id="lgradient40_0_1_0">
<stop offset="0" stop-color="#212121" stop-opacity="1"/>
<stop offset="0.5" stop-color="#C0C0C0" stop-opacity="1"/>
<stop offset="1" stop-color="#212121" stop-opacity="1"/>
</linearGradient>
<linearGradient x1="0.000000%" y1="50.000000%" x2="100.000000%" y2="50.000000%" id="lgradient40_0_1_1">
<stop offset="0" stop-color="#212121" stop-opacity="1"/>
<stop offset="0.5" stop-color="#C0C0C0" stop-opacity="1"/>
<stop offset="1" stop-color="#212121" stop-opacity="1"/>
</linearGradient>
<linearGradient x1="50.000000%" y1="0.000000%" x2="50.000000%" y2="100.000000%" id="lgradient40_0_2">
<stop offset="0" stop-color="#212121" stop-opacity="1"/>
<stop offset="0.5" stop-color="#C0C0C0" stop-opacity="1"/>
<stop offset="1" stop-color="#212121" stop-opacity="1"/>
</linearGradient>
</defs>
<rect shape-type="rectangle" x="1" y="0" width="1065" height="38" fill="#636563" stroke="#808080" stroke-width="1.00"/>
<line shape-type="limitline" x1="28" y1="145" x2="176" y2="145" marker-end="url(#Arrow1)" fill="#00FFFF" stroke="#FFFFFF" stroke-width="3.00"/>
<line shape-type="limitline" x1="25" y1="238" x2="173" y2="238" marker-end="url(#Arrow1)" fill="#00FFFF" stroke="#FFFFFF" stroke-width="3.00"/>
<line shape-type="limitline" x1="107" y1="450" x2="185" y2="450" marker-end="url(#Arrow1)" fill="#00FFFF" stroke="#FFFFFF" stroke-width="3.00"/>
<line shape-type="limitline" x1="183" y1="617" x2="369" y2="617" marker-end="url(#Arrow1)" fill="#00FFFF" stroke="#FFFFFF" stroke-width="3.00"/>
<line shape-type="limitline" x1="220" y1="363" x2="374" y2="363" marker-end="url(#Arrow1)" fill="#00FFFF" stroke="#FFFFFF" stroke-width="3.00"/>
<line shape-type="limitline" x1="181" y1="317" x2="614" y2="317" marker-end="url(#Arrow1)" fill="#00FFFF" stroke="#FFFFFF" stroke-width="3.00"/>
<line shape-type="limitline" x1="183" y1="258" x2="503" y2="258" marker-end="url(#Arrow1)" fill="#00FFFF" stroke="#FFFFFF" stroke-width="3.00"/>
<line shape-type="limitline" x1="183" y1="207" x2="651" y2="207" marker-end="url(#Arrow1)" fill="#00FFFF" stroke="#FFFFFF" stroke-width="3.00"/>
<line shape-type="limitline" x1="505" y1="215" x2="559" y2="215" fill="#00FFFF" stroke="#FFFFFF" stroke-width="3.00"/>
<line shape-type="limitline" x1="618" y1="212" x2="672" y2="212" fill="#00FFFF" stroke="#FFFFFF" stroke-width="3.00"/>
<line shape-type="limitline" x1="508" y1="412" x2="725" y2="412" fill="#00FFFF" stroke="#FFFFFF" stroke-width="3.00"/>
<line shape-type="limitline" x1="508" y1="449" x2="701" y2="449" fill="#00FFFF" stroke="#FFFFFF" stroke-width="3.00"/>
<line shape-type="limitline" x1="179" y1="141" x2="179" y2="320" fill="#00FFFF" stroke="#FFFFFF" stroke-width="3.00"/>
<line shape-type="limitline" x1="182" y1="448" x2="182" y2="616" marker-start="url(#Arrow2)" fill="#00FFFF" stroke="#FFFFFF" stroke-width="3.00"/>
<line shape-type="limitline" x1="373" y1="363" x2="373" y2="481" marker-start="url(#Arrow2)" fill="#00FFFF" stroke="#FFFFFF" stroke-width="3.00"/>
<line shape-type="limitline" x1="364" y1="621" x2="364" y2="581" marker-start="url(#Arrow2)" fill="#00FFFF" stroke="#FFFFFF" stroke-width="3.00"/>
<line shape-type="limitline" x1="508" y1="412" x2="508" y2="481" fill="#00FFFF" stroke="#FFFFFF" stroke-width="3.00"/>
<line shape-type="limitline" x1="502" y1="195" x2="502" y2="263" fill="#00FFFF" stroke="#FFFFFF" stroke-width="3.00"/>
<line shape-type="limitline" x1="615" y1="197" x2="615" y2="317" fill="#00FFFF" stroke="#FFFFFF" stroke-width="3.00"/>
<line shape-type="limitline" x1="538" y1="186" x2="538" y2="207" fill="#00FFFF" stroke="#FFFFFF" stroke-width="3.00"/>
<line shape-type="limitline" x1="560" y1="191" x2="560" y2="215" fill="#00FFFF" stroke="#FFFFFF" stroke-width="3.00"/>
<line shape-type="limitline" x1="594" y1="188" x2="594" y2="207" fill="#00FFFF" stroke="#FFFFFF" stroke-width="3.00"/>
<line shape-type="limitline" x1="481" y1="187" x2="481" y2="208" fill="#00FFFF" stroke="#FFFFFF" stroke-width="3.00"/>
<line shape-type="limitline" x1="48" y1="125" x2="48" y2="148" fill="#00FFFF" stroke="#FFFFFF" stroke-width="3.00" stroke-dasharray="5 10"/>
<line shape-type="limitline" x1="102" y1="126" x2="102" y2="149" fill="#00FFFF" stroke="#FFFFFF" stroke-width="3.00" stroke-dasharray="5 10"/>
<line shape-type="limitline" x1="69" y1="221" x2="69" y2="244" fill="#00FFFF" stroke="#FFFFFF" stroke-width="3.00" stroke-dasharray="5 10"/>
<line shape-type="limitline" x1="538" y1="107" x2="538" y2="130" fill="#00FFFF" stroke="#FFFFFF" stroke-width="3.00" stroke-dasharray="5 10"/>
<line shape-type="limitline" x1="593" y1="107" x2="593" y2="130" fill="#00FFFF" stroke="#FFFFFF" stroke-width="3.00" stroke-dasharray="5 10"/>
<line shape-type="limitline" x1="650" y1="107" x2="650" y2="130" fill="#00FFFF" stroke="#FFFFFF" stroke-width="3.00" stroke-dasharray="5 10"/>
<line shape-type="limitline" x1="651" y1="187" x2="651" y2="206" fill="#00FFFF" stroke="#FFFFFF" stroke-width="3.00"/>
<line shape-type="limitline" x1="402" y1="438" x2="402" y2="480" fill="#00FFFF" stroke="#FFFFFF" stroke-width="3.00" stroke-dasharray="5 10"/>
<line shape-type="limitline" x1="452" y1="440" x2="452" y2="482" fill="#00FFFF" stroke="#FFFFFF" stroke-width="3.00" stroke-dasharray="5 10"/>
<line shape-type="limitline" x1="239" y1="543" x2="239" y2="621" fill="#00FFFF" stroke="#FFFFFF" stroke-width="3.00" stroke-dasharray="5 10"/>
<line shape-type="limitline" x1="334" y1="563" x2="334" y2="591" fill="#00FFFF" stroke="#FFFFFF" stroke-width="3.00" stroke-dasharray="5 10"/>
<line shape-type="limitline" x1="341" y1="407" x2="375" y2="407" fill="#00FFFF" stroke="#FFFFFF" stroke-width="3.00" stroke-dasharray="5 10"/>
<g shape-type="group">
<rect shape-type="roundRectangle" rx="20" ry="20" x="331" y="481" width="216" height="99" fill="url(#lgradient37_0)" stroke-width="1.00"/>
<text font-family="宋体" text-anchor="start" fill="#000000" shape-type="text" id="" font-size="14.000000" font-weight="bold" x="431" y="515">V6901</text>
<rect shape-type="rectangle" x="357" y="496" width="11" height="73" fill="#C0C0C0" stroke="#000000" stroke-width="1.00"/>
<rect shape-type="rectangle" x="389" y="522" width="117" height="47" stroke="#000000" stroke-width="1.00"/>
</g>
<line shape-type="limitline" x1="278" y1="525" x2="357" y2="525" fill="#00FFFF" stroke="#FFFFFF" stroke-width="3.00" stroke-dasharray="5 10"/>
<text font-family="宋体" text-anchor="start" fill="#FFFFFF" shape-type="text" id="" font-size="11.000000" font-weight="bold" x="773" y="383">S6901</text>
<g shape-type="group">
<g shape-type="group">
<rect shape-type="rectangle" x="750" y="136" width="22" height="466" fill="url(#lgradient40_0_0)" stroke="#000000" stroke-width="1.00"/>
<g shape-type="group">
<rect shape-type="rectangle" x="733" y="51" width="57" height="52" fill="url(#lgradient40_0_1_0)" stroke="#000000" stroke-width="1.00"/>
<polygon shape-type="trapezium" points="788,103 734,103 748,136 774,136 788,103" fill="url(#lgradient40_0_1_1)" stroke="#000000" stroke-width="1.00"/>
</g>
<rect shape-type="rectangle" x="747" y="598" width="31" height="24" fill="url(#lgradient40_0_2)" stroke="#000000" stroke-width="1.00"/>
</g>
<text font-family="宋体" text-anchor="start" fill="#FFFFFF" shape-type="text" id="" font-size="8.000000" font-weight="bold" x="743" y="81">ST6901</text>
</g>
<polyline shape-type="polyline" points="729,400 729,400" fill="none" stroke="#000000" stroke-width="1.00"/>
<polyline shape-type="polyline" points="727,400 727,418 749,412 749,383 727,402" fill="none" stroke="#FFFFFF" stroke-width="1.00"/>
<line shape-type="limitline" x1="481" y1="105" x2="481" y2="128" fill="#00FFFF" stroke="#FFFFFF" stroke-width="3.00" stroke-dasharray="5 10"/>
<g shape-type="group">
<g shape-type="group">
<polygon shape-type="trapezium" points="262,255 262,262 268,259 268,259 262,255" fill="#FF0000" stroke="#FF0000" stroke-width="1.00"/>
<polygon shape-type="trapezium" points="275,255 275,262 268,259 268,259 275,255" fill="#FF0000" stroke="#FF0000" stroke-width="1.00"/>
</g>
<line shape-type="limitline" x1="268" y1="249" x2="267" y2="255" fill="#FF0000" stroke="#FF0000" stroke-width="1.00"/>
<polygon shape-type="trapezium" points="270,252 266,252 268,258 268,258 270,252" fill="#FF0000" stroke="#FF0000" stroke-width="1.00"/>
<rect shape-type="rectangle" x="263" y="246" width="12" height="6" fill="#FF0000" stroke="#FF0000" stroke-width="2.00"/>
</g>
<g shape-type="group">
<g shape-type="group">
<polygon shape-type="trapezium" points="261,317 261,324 267,321 267,321 261,317" fill="#FF0000" stroke="#FF0000" stroke-width="1.00"/>
<polygon shape-type="trapezium" points="274,317 274,324 267,321 267,321 274,317" fill="#FF0000" stroke="#FF0000" stroke-width="1.00"/>
</g>
<line shape-type="limitline" x1="267" y1="311" x2="266" y2="317" fill="#FF0000" stroke="#FF0000" stroke-width="1.00"/>
<polygon shape-type="trapezium" points="269,314 265,314 267,320 267,320 269,314" fill="#FF0000" stroke="#FF0000" stroke-width="1.00"/>
<rect shape-type="rectangle" x="261" y="308" width="13" height="6" fill="#FF0000" stroke="#FF0000" stroke-width="2.00"/>
</g>
<g shape-type="group">
<g shape-type="group">
<polygon shape-type="trapezium" points="141,140 141,147 147,144 147,144 141,140" fill="#FF0000" stroke="#FF0000" stroke-width="1.00"/>
<polygon shape-type="trapezium" points="154,140 154,147 147,144 147,144 154,140" fill="#FF0000" stroke="#FF0000" stroke-width="1.00"/>
</g>
<line shape-type="limitline" x1="147" y1="135" x2="146" y2="141" fill="#FF0000" stroke="#FF0000" stroke-width="1.00"/>
<polygon shape-type="trapezium" points="149,138 145,138 147,144 147,144 149,138" fill="#FF0000" stroke="#FF0000" stroke-width="1.00"/>
<rect shape-type="rectangle" x="142" y="131" width="12" height="7" fill="#FF0000" stroke="#FF0000" stroke-width="2.00"/>
</g>
<g shape-type="group">
<g shape-type="group">
<g shape-type="group">
<polygon shape-type="trapezium" points="233,616 233,623 239,620 239,620 233,616" fill="#FF0000" stroke="#FF0000" stroke-width="1.00"/>
<polygon shape-type="trapezium" points="246,616 246,623 239,620 239,620 246,616" fill="#FF0000" stroke="#FF0000" stroke-width="1.00"/>
</g>
<line shape-type="limitline" x1="239" y1="611" x2="238" y2="617" fill="#FF0000" stroke="#FF0000" stroke-width="1.00"/>
<polygon shape-type="trapezium" points="241,614 237,614 239,620 239,620 241,614" fill="#FF0000" stroke="#FF0000" stroke-width="1.00"/>
<rect shape-type="rectangle" x="233" y="608" width="13" height="6" fill="#FF0000" stroke="#FF0000" stroke-width="2.00"/>
</g>
<path shape-type="chord" d="M 249,614 A 11,21 0 0,0 231,614 z" fill="#FF0000" stroke="#FF0000" stroke-width="1.00"/>
</g>
<g shape-type="group">
<g shape-type="group">
<polygon shape-type="trapezium" points="603,448 603,455 609,452 609,452 603,448" fill="#00FF00" stroke="#00FF00" stroke-width="1.00"/>
<polygon shape-type="trapezium" points="616,448 616,455 609,452 609,452 616,448" fill="#00FF00" stroke="#00FF00" stroke-width="1.00"/>
</g>
<line shape-type="limitline" x1="609" y1="443" x2="608" y2="448" fill="#00FF00" stroke="#00FF00" stroke-width="1.00"/>
<polygon shape-type="trapezium" points="611,445 607,445 609,452 609,452 611,445" fill="#00FF00" stroke="#00FF00" stroke-width="1.00"/>
<rect shape-type="rectangle" x="604" y="439" width="12" height="6" fill="#00FF00" stroke="#00FF00" stroke-width="2.00"/>
</g>
<text font-family="宋体" text-anchor="start" fill="#FFFFFF" shape-type="text" id="" font-size="7.250000" font-weight="bold" x="110" y="446">HRW</text>
<text font-family="宋体" text-anchor="start" fill="#FFFFFF" shape-type="text" id="" font-size="7.250000" font-weight="bold" x="19" y="254">天然气总管</text>
<text font-family="宋体" text-anchor="start" fill="#FFFFFF" shape-type="text" id="" font-size="7.250000" font-weight="bold" x="12" y="162">液氨洗尾气</text>
<text font-family="宋体" text-anchor="start" fill="#FFFFFF" shape-type="text" id="" font-size="7.250000" font-weight="bold" x="157" y="126">XV89411</text>
<text font-family="宋体" text-anchor="start" fill="#FFFFFF" shape-type="text" id="" font-size="7.250000" font-weight="bold" x="188" y="249">Natural Gas</text>
<text font-family="宋体" text-anchor="start" fill="#FFFFFF" shape-type="text" id="" font-size="7.250000" font-weight="bold" x="188" y="303">Natural Gas</text>
<text font-family="宋体" text-anchor="start" fill="#FFFFFF" shape-type="text" id="" font-size="7.250000" font-weight="bold" x="254" y="241">XV89401</text>
<text font-family="宋体" text-anchor="start" fill="#FFFFFF" shape-type="text" id="" font-size="7.250000" font-weight="bold" x="256" y="304">XV89402</text>
<line shape-type="limitline" x1="670" y1="193" x2="670" y2="212" fill="#00FFFF" stroke="#FFFFFF" stroke-width="3.00"/>
<g shape-type="group">
<g shape-type="group">
<rect shape-type="rectangle" x="152" y="357" width="58" height="17" fill="#C0C0C0" stroke="#FFFFFF" stroke-width="1.00"/>
<polygon shape-type="trapezium" points="210,357 210,372 222,365 222,365 210,357" fill="#C0C0C0" stroke="#FFFFFF" stroke-width="1.00"/>
</g>
<text font-family="宋体" text-anchor="start" fill="#000000" shape-type="text" id="" font-size="5.750000" font-weight="bold" x="158" y="367">制氢火炬气</text>
</g>
<text font-family="宋体" text-anchor="start" fill="#FFFFFF" shape-type="text" id="" font-size="8.000000" font-weight="bold" x="591" y="434">XV89406</text>
<text font-family="宋体" text-anchor="start" fill="#FFFFFF" shape-type="text" id="" font-size="6.500000" font-weight="bold" x="683" y="442">LN</text>
<g shape-type="group">
<text font-family="宋体" text-anchor="start" fill="#FFFFFF" shape-type="text" id="" font-size="11.750000" font-weight="bold" x="269" y="109">点火器</text>
<rect shape-type="rectangle" x="231" y="119" width="97" height="40" fill="#C0C0C0" stroke="#FFFFFF" stroke-width="1.00"/>
<text font-family="宋体" text-anchor="start" fill="#000000" shape-type="text" id="" font-size="7.250000" font-weight="bold" x="238" y="130">AIG6901</text>
<text font-family="宋体" text-anchor="start" fill="#000000" shape-type="text" id="" font-size="7.250000" font-weight="bold" x="286" y="130">AIG6902</text>
<g shape-type="button">
<rect fill="#C0C0C0" stroke-width="0.3" stroke="#FFFFFF" x="237" y="139" width="39" height="16" shape-type="buttonrect"/>
<text font-family="宋体" text-anchor="middle" dominant-baseline="middle" fill="#FF0000" font-size="6.750000" x="257" y="150" shape-type="buttontext">自动点火</text>
</g>
<g shape-type="button">
<rect fill="#C0C0C0" stroke-width="0.3" stroke="#FFFFFF" x="282" y="139" width="39" height="16" shape-type="buttonrect"/>
<text font-family="宋体" text-anchor="middle" dominant-baseline="middle" fill="#FF0000" font-size="6.750000" x="302" y="150" shape-type="buttontext">OFF</text>
</g>
</g>
<g shape-type="group">
<text font-family="宋体" text-anchor="start" fill="#FFFFFF" shape-type="text" id="" font-size="11.000000" font-weight="bold" x="372" y="106">点火器</text>
<rect shape-type="rectangle" x="334" y="115" width="97" height="41" fill="#C0C0C0" stroke="#FFFFFF" stroke-width="1.00"/>
<text font-family="宋体" text-anchor="start" fill="#000000" shape-type="text" id="" font-size="6.500000" font-weight="bold" x="341" y="126">AIG6903</text>
<text font-family="宋体" text-anchor="start" fill="#000000" shape-type="text" id="" font-size="6.500000" font-weight="bold" x="390" y="126">AIG6904</text>
<g shape-type="button">
<rect fill="#C0C0C0" stroke-width="0.3" stroke="#FFFFFF" x="340" y="135" width="39" height="17" shape-type="buttonrect"/>
<text font-family="宋体" text-anchor="middle" dominant-baseline="middle" fill="#FF0000" font-size="6.750000" x="360" y="147" shape-type="buttontext">自动点火</text>
</g>
<g shape-type="button">
<rect fill="#C0C0C0" stroke-width="0.3" stroke="#FFFFFF" x="385" y="135" width="39" height="17" shape-type="buttonrect"/>
<text font-family="宋体" text-anchor="middle" dominant-baseline="middle" fill="#FF0000" font-size="6.750000" x="405" y="147" shape-type="buttontext">OFF</text>
</g>
</g>
<text font-family="宋体" text-anchor="start" fill="#FFFFFF" shape-type="text" id="" font-size="6.500000" font-weight="bold" x="504" y="196">AIG6901</text>
<g shape-type="button">
<rect fill="#C0C0C0" stroke-width="0.3" stroke="#FFFFFF" x="446" y="45" width="48" height="16" shape-type="buttonrect"/>
<text font-family="宋体" text-anchor="middle" dominant-baseline="middle" fill="#FF0000" font-size="8.250000" x="470" y="57" shape-type="buttontext">不旁路</text>
</g>
<g shape-type="button">
<rect fill="#C0C0C0" stroke-width="0.3" stroke="#FFFFFF" x="519" y="47" width="48" height="16" shape-type="buttonrect"/>
<text font-family="宋体" text-anchor="middle" dominant-baseline="middle" fill="#FF0000" font-size="8.250000" x="543" y="59" shape-type="buttontext">不旁路</text>
</g>
<g shape-type="button">
<rect fill="#C0C0C0" stroke-width="0.3" stroke="#FFFFFF" x="576" y="47" width="48" height="16" shape-type="buttonrect"/>
<text font-family="宋体" text-anchor="middle" dominant-baseline="middle" fill="#FF0000" font-size="8.250000" x="600" y="59" shape-type="buttontext">不旁路</text>
</g>
<rect shape-type="rectangle" x="477" y="125" width="7" height="29" fill="#FF0000" stroke="#000000" stroke-width="1.00"/>
<rect shape-type="rectangle" x="534" y="127" width="7" height="29" fill="#FF0000" stroke="#000000" stroke-width="1.00"/>
<rect shape-type="rectangle" x="591" y="125" width="7" height="29" fill="#FF0000" stroke="#000000" stroke-width="1.00"/>
<rect shape-type="rectangle" x="498" y="160" width="7" height="16" fill="#FF0000" stroke="#000000" stroke-width="1.00"/>
<rect shape-type="rectangle" x="556" y="160" width="7" height="16" fill="#FF0000" stroke="#000000" stroke-width="1.00"/>
<rect shape-type="rectangle" x="668" y="160" width="7" height="16" fill="#FF0000" stroke="#000000" stroke-width="1.00"/>
<g shape-type="group">
<polygon shape-type="trapezium" points="484,186 477,186 480,174 482,174 484,186" fill="#FF0000" stroke="#000000" stroke-width="1.00"/>
<polygon shape-type="trapezium" points="484,162 477,162 480,174 482,174 484,162" fill="#FF0000" stroke="#000000" stroke-width="1.00"/>
</g>
<g shape-type="group">
<polygon shape-type="trapezium" points="504,196 498,196 500,189 502,189 504,196" fill="#FF0000" stroke="#000000" stroke-width="1.00"/>
<polygon shape-type="trapezium" points="504,181 498,181 500,189 502,189 504,181" fill="#FF0000" stroke="#000000" stroke-width="1.00"/>
</g>
<g shape-type="group">
<polygon shape-type="trapezium" points="562,195 556,195 558,188 560,188 562,195" fill="#FF0000" stroke="#000000" stroke-width="1.00"/>
<polygon shape-type="trapezium" points="562,180 556,180 558,188 560,188 562,180" fill="#FF0000" stroke="#000000" stroke-width="1.00"/>
</g>
<g shape-type="group">
<polygon shape-type="trapezium" points="619,196 613,196 615,189 617,189 619,196" fill="#FF0000" stroke="#000000" stroke-width="1.00"/>
<polygon shape-type="trapezium" points="619,181 613,181 615,189 617,189 619,181" fill="#FF0000" stroke="#000000" stroke-width="1.00"/>
</g>
<g shape-type="group">
<polygon shape-type="trapezium" points="542,187 535,187 538,175 540,175 542,187" fill="#FF0000" stroke="#000000" stroke-width="1.00"/>
<polygon shape-type="trapezium" points="542,163 535,163 538,175 540,175 542,163" fill="#FF0000" stroke="#000000" stroke-width="1.00"/>
</g>
<g shape-type="group">
<polygon shape-type="trapezium" points="597,187 590,187 593,175 595,175 597,187" fill="#FF0000" stroke="#000000" stroke-width="1.00"/>
<polygon shape-type="trapezium" points="597,163 590,163 593,175 595,175 597,163" fill="#FF0000" stroke="#000000" stroke-width="1.00"/>
</g>
<line shape-type="limitline" x1="539" y1="156" x2="539" y2="163" fill="#00FFFF" stroke="#FFFFFF" stroke-width="3.00"/>
<line shape-type="limitline" x1="480" y1="156" x2="480" y2="163" fill="#00FFFF" stroke="#FFFFFF" stroke-width="3.00"/>
<line shape-type="limitline" x1="594" y1="157" x2="594" y2="164" fill="#00FFFF" stroke="#FFFFFF" stroke-width="3.00"/>
<line shape-type="limitline" x1="616" y1="177" x2="612" y2="181" fill="#00FFFF" stroke="#FFFFFF" stroke-width="3.00"/>
<line shape-type="limitline" x1="560" y1="176" x2="556" y2="180" fill="#00FFFF" stroke="#FFFFFF" stroke-width="3.00"/>
<line shape-type="limitline" x1="502" y1="177" x2="498" y2="181" fill="#00FFFF" stroke="#FFFFFF" stroke-width="3.00"/>
<g shape-type="button">
<rect fill="#C0C0C0" stroke-width="0.3" stroke="#FFFFFF" x="634" y="45" width="48" height="16" shape-type="buttonrect"/>
<text font-family="宋体" text-anchor="middle" dominant-baseline="middle" fill="#FF0000" font-size="8.250000" x="658" y="57" shape-type="buttontext">不旁路</text>
</g>
<text font-family="宋体" text-anchor="start" fill="#FFFFFF" shape-type="text" id="" font-size="6.500000" font-weight="bold" x="547" y="131">PIL6902</text>
<text font-family="宋体" text-anchor="start" fill="#FFFFFF" shape-type="text" id="" font-size="6.500000" font-weight="bold" x="600" y="131">PIL6903</text>
<text font-family="宋体" text-anchor="start" fill="#FFFFFF" shape-type="text" id="" font-size="6.500000" font-weight="bold" x="657" y="131">PIL6904</text>
<rect shape-type="rectangle" x="647" y="126" width="7" height="29" fill="#FF0000" stroke="#000000" stroke-width="1.00"/>
<rect shape-type="rectangle" x="647" y="126" width="7" height="29" fill="#FF0000" stroke="#000000" stroke-width="1.00"/>
<line shape-type="limitline" x1="651" y1="157" x2="651" y2="164" fill="#00FFFF" stroke="#FFFFFF" stroke-width="3.00"/>
<g shape-type="group">
<polygon shape-type="trapezium" points="653,187 646,187 649,175 651,175 653,187" fill="#FF0000" stroke="#000000" stroke-width="1.00"/>
<polygon shape-type="trapezium" points="653,163 646,163 649,175 651,175 653,163" fill="#FF0000" stroke="#000000" stroke-width="1.00"/>
</g>
<rect shape-type="rectangle" x="611" y="158" width="7" height="16" fill="#FF0000" stroke="#000000" stroke-width="1.00"/>
<line shape-type="limitline" x1="671" y1="175" x2="667" y2="179" fill="#00FFFF" stroke="#FFFFFF" stroke-width="3.00"/>
<g shape-type="group">
<polygon shape-type="trapezium" points="673,195 667,195 669,188 671,188 673,195" fill="#FF0000" stroke="#000000" stroke-width="1.00"/>
<polygon shape-type="trapezium" points="673,180 667,180 669,188 671,188 673,180" fill="#FF0000" stroke="#000000" stroke-width="1.00"/>
</g>
<text font-family="宋体" text-anchor="start" fill="#FFFFFF" shape-type="text" id="" font-size="6.500000" font-weight="bold" x="564" y="195">AIG6902</text>
<text font-family="宋体" text-anchor="start" fill="#FFFFFF" shape-type="text" id="" font-size="6.500000" font-weight="bold" x="619" y="195">AIG6903</text>
<text font-family="宋体" text-anchor="start" fill="#FFFFFF" shape-type="text" id="" font-size="6.500000" font-weight="bold" x="678" y="195">AIG6904</text>
<g shape-type="button">
<rect fill="#C0C0C0" stroke-width="0.3" stroke="#FFFFFF" x="290" y="376" width="48" height="16" shape-type="buttonrect"/>
<text font-family="宋体" text-anchor="middle" dominant-baseline="middle" fill="#FF0000" font-size="8.250000" x="314" y="388" shape-type="buttontext">不旁路</text>
</g>
<g shape-type="button">
<rect fill="#C0C0C0" stroke-width="0.3" stroke="#FFFFFF" x="595" y="467" width="26" height="16" shape-type="buttonrect"/>
<text font-family="宋体" text-anchor="middle" dominant-baseline="middle" fill="#008000" font-size="8.250000" x="608" y="479" shape-type="buttontext">旁路</text>
</g>
<g shape-type="button">
<rect fill="#C0C0C0" stroke-width="0.3" stroke="#FFFFFF" x="622" y="466" width="37" height="16" shape-type="buttonrect"/>
<text font-family="宋体" text-anchor="middle" dominant-baseline="middle" fill="#FF0000" font-size="8.250000" x="640" y="478" shape-type="buttontext">不旁路</text>
</g>
<g shape-type="button">
<rect fill="#C0C0C0" stroke-width="0.3" stroke="#FFFFFF" x="664" y="466" width="26" height="16" shape-type="buttonrect"/>
<text font-family="宋体" text-anchor="middle" dominant-baseline="middle" fill="#008000" font-size="8.250000" x="677" y="478" shape-type="buttontext">手动</text>
</g>
<rect shape-type="rectangle" x="6" y="95" width="67" height="33" fill="none" stroke="#FFFFFF" stroke-width="2.00"/>
<text font-family="宋体" text-anchor="start" fill="#FFFFFF" shape-type="text" id="" font-size="7.250000" font-weight="bold" x="19" y="107">FI89404</text>
<text font-family="宋体" text-anchor="start" fill="#00FF00" shape-type="text" id="" font-size="7.250000" font-weight="bold" x="45" y="125">Nm3/h</text>
<text font-family="Arial" text-anchor="start" fill="#00FFFF" shape-type="realdata" id="HCAB_ZQ_GY_FI89404" font-size="11.000000" x="6" y="123">XXXX</text>
<rect shape-type="rectangle" x="81" y="90" width="67" height="33" fill="none" stroke="#FFFFFF" stroke-width="2.00"/>
<text font-family="宋体" text-anchor="start" fill="#FFFFFF" shape-type="text" id="" font-size="7.250000" font-weight="bold" x="94" y="102">PI89406</text>
<text font-family="宋体" text-anchor="start" fill="#00FF00" shape-type="text" id="" font-size="7.250000" font-weight="bold" x="120" y="120">Nm3/h</text>
<rect shape-type="rectangle" x="435" y="73" width="67" height="33" fill="none" stroke="#FFFFFF" stroke-width="2.00"/>
<text font-family="宋体" text-anchor="start" fill="#FFFFFF" shape-type="text" id="" font-size="7.250000" font-weight="bold" x="447" y="86">TI_89401</text>
<text font-family="Arial" text-anchor="start" fill="#00FFFF" shape-type="realdata" id="HCAB_ZQ_QH_TI_89401" font-size="11.000000" x="438" y="100">XXXX</text>
<text font-family="宋体" text-anchor="start" fill="#00FF00" shape-type="text" id="" font-size="8.000000" font-weight="bold" x="485" y="100">℃</text>
<line shape-type="limitline" x1="501" y1="125" x2="501" y2="148" fill="#00FFFF" stroke="#FFFFFF" stroke-width="3.00" stroke-dasharray="5 10"/>
<line shape-type="limitline" x1="501" y1="125" x2="501" y2="148" fill="#00FFFF" stroke="#FFFFFF" stroke-width="3.00" stroke-dasharray="5 10"/>
<rect shape-type="rectangle" x="507" y="74" width="67" height="33" fill="none" stroke="#FFFFFF" stroke-width="2.00"/>
<text font-family="宋体" text-anchor="start" fill="#FFFFFF" shape-type="text" id="" font-size="7.250000" font-weight="bold" x="520" y="85">TI_89402</text>
<text font-family="宋体" text-anchor="start" fill="#00FF00" shape-type="text" id="" font-size="8.000000" font-weight="bold" x="554" y="100">℃</text>
<text font-family="Arial" text-anchor="start" fill="#00FFFF" shape-type="realdata" id="HCAB_ZQ_QH_TI_89402" font-size="11.000000" x="512" y="102">XXXX</text>
<text font-family="Arial" text-anchor="start" fill="#00FFFF" shape-type="realdata" id="HCAB_ZQ_QH_TI_89403" font-size="11.000000" x="582" y="101">XXXX</text>
<rect shape-type="rectangle" x="579" y="74" width="67" height="33" fill="none" stroke="#FFFFFF" stroke-width="2.00"/>
<text font-family="宋体" text-anchor="start" fill="#FFFFFF" shape-type="text" id="" font-size="7.250000" font-weight="bold" x="589" y="84">TI_89403</text>
<text font-family="宋体" text-anchor="start" fill="#00FF00" shape-type="text" id="" font-size="8.000000" font-weight="bold" x="626" y="101">℃</text>
<text font-family="Arial" text-anchor="start" fill="#00FFFF" shape-type="realdata" id="HCAB_ZQ_QH_TI_89404" font-size="11.000000" x="657" y="98">XXXX</text>
<text font-family="宋体" text-anchor="start" fill="#FFFFFF" shape-type="text" id="" font-size="7.250000" font-weight="bold" x="656" y="83">TI_89404</text>
<rect shape-type="rectangle" x="652" y="72" width="67" height="33" fill="none" stroke="#FFFFFF" stroke-width="2.00"/>
<text font-family="宋体" text-anchor="start" fill="#00FF00" shape-type="text" id="" font-size="8.000000" font-weight="bold" x="702" y="99">℃</text>
<text font-family="宋体" text-anchor="start" fill="#FFFFFF" shape-type="text" id="" font-size="6.500000" font-weight="bold" x="490" y="124">PIL6901</text>
<rect shape-type="rectangle" x="191" y="505" width="87" height="41" fill="none" stroke="#FFFFFF" stroke-width="2.00"/>
<text font-family="宋体" text-anchor="start" fill="#FFFFFF" shape-type="text" id="" font-size="12.500000" font-weight="bold" x="200" y="519">LIC89401</text>
<text font-family="宋体" text-anchor="start" fill="#00FF00" shape-type="text" id="" font-size="8.000000" font-weight="bold" x="265" y="539">%</text>
<rect shape-type="rectangle" x="293" y="584" width="63" height="28" fill="none" stroke="#FFFFFF" stroke-width="2.00"/>
<text font-family="宋体" text-anchor="start" fill="#FFFFFF" shape-type="text" id="" font-size="8.000000" font-weight="bold" x="307" y="597">TI89414</text>
<text font-family="宋体" text-anchor="start" fill="#00FF00" shape-type="text" id="" font-size="7.250000" font-weight="bold" x="343" y="610">℃</text>
<text font-family="宋体" text-anchor="start" fill="#FFFFFF" shape-type="text" id="" font-size="8.000000" font-weight="bold" x="280" y="411">PT_89401</text>
<text font-family="宋体" text-anchor="start" fill="#00FF00" shape-type="text" id="" font-size="8.000000" font-weight="bold" x="322" y="427">KPa</text>
<rect shape-type="rectangle" x="261" y="398" width="83" height="35" fill="none" stroke="#FFFFFF" stroke-width="2.00"/>
<rect shape-type="rectangle" x="375" y="405" width="53" height="34" fill="none" stroke="#FFFFFF" stroke-width="2.00"/>
<text font-family="宋体" text-anchor="start" fill="#FFFFFF" shape-type="text" id="" font-size="8.000000" font-weight="bold" x="380" y="419">TI894112</text>
<text font-family="宋体" text-anchor="start" fill="#00FF00" shape-type="text" id="" font-size="6.500000" font-weight="bold" x="417" y="431">℃</text>
<rect shape-type="rectangle" x="431" y="405" width="66" height="34" fill="none" stroke="#FFFFFF" stroke-width="2.00"/>
<text font-family="宋体" text-anchor="start" fill="#FFFFFF" shape-type="text" id="" font-size="8.000000" font-weight="bold" x="446" y="417">FI89406</text>
<text font-family="宋体" text-anchor="start" fill="#00FF00" shape-type="text" id="" font-size="8.000000" font-weight="bold" x="476" y="434">MPa</text>
<rect shape-type="rectangle" x="300" y="2" width="500" height="33" stroke="#000000" stroke-width="1.00"/>
<text font-family="宋体" text-anchor="start" fill="#FFFFFF" shape-type="text" id="" font-size="26.750000" font-weight="bold" x="456" y="28">制氢火炬</text>
<a xlink:href="QH_ML.svg">
<g shape-type="button">
<rect fill="#C0C0C0" stroke-width="0.3" stroke="#FFFFFF" x="961" y="2" width="100" height="33" shape-type="buttonrect"/>
<text font-family="宋体" text-anchor="middle" dominant-baseline="middle" fill="#800000" font-size="13.500000" font-weight="bold" x="1011" y="25" shape-type="buttontext">返回上一级</text>
</g>
</a>
<rect shape-type="rectangle" x="42" y="197" width="58" height="24" fill="none" stroke="#FFFFFF" stroke-width="2.00"/>
<text font-family="宋体" text-anchor="start" fill="#FFFFFF" shape-type="text" id="" font-size="6.500000" font-weight="bold" x="45" y="206">FI89401</text>
<text font-family="宋体" text-anchor="start" fill="#0000FF" shape-type="text" id="" font-size="8.750000" font-weight="bold" x="46" y="217">XXXX</text>
<text font-family="宋体" text-anchor="start" fill="#FFFFFF" shape-type="text" id="" font-size="7.250000" font-weight="bold" x="78" y="216">Nm3/h</text>
</svg>
