<?xml version="1.0"?>
<?xml-stylesheet type='text/javascript'?>
<!--Draw SVG: 2019-11-25 09:41:22 47-Monday-->
<svg xmlns="http://www.w3.org/2000/svg" xmlns:xlink="http://www.w3.org/1999/xlink" version="1.1" style="background-color:#000000" width="1066" height="800" viewbox="0 0 1066 800">
<defs>
<linearGradient x1="50.000000%" y1="0.000000%" x2="50.000000%" y2="100.000000%" id="lgradient1">
<stop offset="0" stop-color="#2C2C2C" stop-opacity="1"/>
<stop offset="0.5" stop-color="#FFFFFF" stop-opacity="1"/>
<stop offset="1" stop-color="#2C2C2C" stop-opacity="1"/>
</linearGradient>
<linearGradient x1="0.000000%" y1="50.000000%" x2="100.000000%" y2="50.000000%" id="lgradient3">
<stop offset="0" stop-color="#2C2C2C" stop-opacity="1"/>
<stop offset="0.5" stop-color="#FFFFFF" stop-opacity="1"/>
<stop offset="1" stop-color="#2C2C2C" stop-opacity="1"/>
</linearGradient>
<linearGradient x1="0.000000%" y1="50.000000%" x2="100.000000%" y2="50.000000%" id="lgradient4">
<stop offset="0" stop-color="#2C2C2C" stop-opacity="1"/>
<stop offset="0.5" stop-color="#FFFFFF" stop-opacity="1"/>
<stop offset="1" stop-color="#2C2C2C" stop-opacity="1"/>
</linearGradient>
<linearGradient x1="0.000000%" y1="50.000000%" x2="100.000000%" y2="50.000000%" id="lgradient85">
<stop offset="0" stop-color="#2C2C2C" stop-opacity="1"/>
<stop offset="0.5" stop-color="#FFFFFF" stop-opacity="1"/>
<stop offset="1" stop-color="#2C2C2C" stop-opacity="1"/>
</linearGradient>
<linearGradient x1="0.000000%" y1="50.000000%" x2="100.000000%" y2="50.000000%" id="lgradient86">
<stop offset="0" stop-color="#2C2C2C" stop-opacity="1"/>
<stop offset="0.5" stop-color="#FFFFFF" stop-opacity="1"/>
<stop offset="1" stop-color="#2C2C2C" stop-opacity="1"/>
</linearGradient>
</defs>
<rect shape-type="rectangle" x="522" y="286" width="127" height="63" fill="url(#lgradient1)" stroke="#C0C0C0" stroke-width="2.00"/>
<polygon shape-type="parallel" points="830,297 757,297 782,277 855,277 830,297" fill="#C0C0C0" stroke="#000000" stroke-width="2.00"/>
<rect shape-type="roundRectangle" rx="20" ry="20" x="307" y="124" width="59" height="190" fill="url(#lgradient3)" stroke="#C0C0C0" stroke-width="2.00"/>
<rect shape-type="roundRectangle" rx="20" ry="20" x="285" y="329" width="102" height="336" fill="url(#lgradient4)" stroke="#C0C0C0" stroke-width="2.00"/>
<rect shape-type="rectangle" x="3" y="3" width="1055" height="46" fill="#9C9A9C" stroke="#C0C0C0" stroke-width="1.00"/>
<rect shape-type="rectangle" x="10" y="9" width="73" height="31" fill="#E7E3E7" stroke="#E7E3E7" stroke-width="1.00"/>
<rect shape-type="rectangle" x="347" y="9" width="473" height="33" fill="#E7E3E7" stroke="#E7E3E7" stroke-width="1.00"/>
<text font-family="宋体" text-anchor="start" fill="#000000" shape-type="text" id="" font-size="12.500000" font-weight="bold" x="28" y="29">M402</text>
<text font-family="宋体" text-anchor="start" fill="#000000" shape-type="text" id="" font-size="26.000000" font-weight="bold" x="532" y="36">C401</text>
<line shape-type="limitline" x1="973" y1="96" x2="58" y2="96" fill="#00FFFF" stroke="#00FFFF" stroke-width="3.00"/>
<line shape-type="limitline" x1="282" y1="239" x2="282" y2="99" fill="#00FFFF" stroke="#00FFFF" stroke-width="3.00"/>
<line shape-type="limitline" x1="173" y1="238" x2="173" y2="96" fill="#00FFFF" stroke="#00FFFF" stroke-width="3.00"/>
<line shape-type="limitline" x1="283" y1="242" x2="59" y2="242" fill="#00FFFF" stroke="#00FFFF" stroke-width="3.00"/>
<line shape-type="limitline" x1="549" y1="246" x2="356" y2="246" fill="#E700FF" stroke="#E700FF" stroke-width="3.00"/>
<line shape-type="limitline" x1="549" y1="298" x2="549" y2="246" fill="#E700FF" stroke="#E700FF" stroke-width="3.00"/>
<line shape-type="limitline" x1="622" y1="298" x2="622" y2="223" fill="#E700FF" stroke="#E700FF" stroke-width="3.00"/>
<line shape-type="limitline" x1="680" y1="297" x2="651" y2="297" fill="#E700FF" stroke="#E700FF" stroke-width="3.00"/>
<line shape-type="limitline" x1="680" y1="336" x2="650" y2="336" fill="#E700FF" stroke="#E700FF" stroke-width="3.00"/>
<line shape-type="limitline" x1="678" y1="396" x2="678" y2="336" fill="#E700FF" stroke="#E700FF" stroke-width="3.00"/>
<line shape-type="limitline" x1="679" y1="447" x2="679" y2="408" fill="#E700FF" stroke="#E700FF" stroke-width="3.00"/>
<line shape-type="limitline" x1="980" y1="448" x2="679" y2="448" fill="#E700FF" stroke="#E700FF" stroke-width="3.00"/>
<line shape-type="limitline" x1="733" y1="403" x2="627" y2="403" fill="#E700FF" stroke="#E700FF" stroke-width="3.00"/>
<line shape-type="limitline" x1="732" y1="402" x2="732" y2="362" fill="#E700FF" stroke="#E700FF" stroke-width="3.00"/>
<line shape-type="limitline" x1="617" y1="403" x2="366" y2="403" fill="#E700FF" stroke="#E700FF" stroke-width="3.00"/>
<line shape-type="limitline" x1="367" y1="404" x2="367" y2="376" fill="#E700FF" stroke="#E700FF" stroke-width="3.00"/>
<line shape-type="limitline" x1="622" y1="327" x2="622" y2="410" fill="#E700FF" stroke="#E700FF" stroke-width="3.00"/>
<line shape-type="limitline" x1="507" y1="264" x2="507" y2="368" fill="#E700FF" stroke="#E700FF" stroke-width="3.00"/>
<line shape-type="limitline" x1="547" y1="369" x2="507" y2="369" fill="#E700FF" stroke="#E700FF" stroke-width="3.00"/>
<line shape-type="limitline" x1="549" y1="368" x2="549" y2="326" fill="#E700FF" stroke="#E700FF" stroke-width="3.00"/>
<g shape-type="group">
<line shape-type="line" x1="538" y1="306" x2="549" y2="299" fill="#E700FF" stroke="#E700FF" stroke-width="3.00"/>
<line shape-type="line" x1="539" y1="315" x2="558" y2="310" fill="#E700FF" stroke="#E700FF" stroke-width="3.00"/>
<line shape-type="line" x1="558" y1="310" x2="538" y2="306" fill="#E700FF" stroke="#E700FF" stroke-width="3.00"/>
<line shape-type="line" x1="556" y1="322" x2="539" y2="315" fill="#E700FF" stroke="#E700FF" stroke-width="3.00"/>
<line shape-type="line" x1="549" y1="326" x2="558" y2="322" fill="#E700FF" stroke="#E700FF" stroke-width="3.00"/>
</g>
<g shape-type="group">
<line shape-type="line" x1="611" y1="306" x2="622" y2="299" fill="#E700FF" stroke="#E700FF" stroke-width="3.00"/>
<line shape-type="line" x1="611" y1="315" x2="631" y2="310" fill="#E700FF" stroke="#E700FF" stroke-width="3.00"/>
<line shape-type="line" x1="631" y1="310" x2="611" y2="306" fill="#E700FF" stroke="#E700FF" stroke-width="3.00"/>
<line shape-type="line" x1="629" y1="322" x2="611" y2="315" fill="#E700FF" stroke="#E700FF" stroke-width="3.00"/>
<line shape-type="line" x1="622" y1="326" x2="631" y2="322" fill="#E700FF" stroke="#E700FF" stroke-width="3.00"/>
</g>
<line shape-type="limitline" x1="507" y1="263" x2="371" y2="263" fill="#E700FF" stroke="#E700FF" stroke-width="3.00"/>
<line shape-type="limitline" x1="357" y1="246" x2="357" y2="228" fill="#E700FF" stroke="#E700FF" stroke-width="3.00"/>
<line shape-type="limitline" x1="988" y1="184" x2="364" y2="184" fill="#E700FF" stroke="#E700FF" stroke-width="3.00"/>
<line shape-type="limitline" x1="184" y1="461" x2="73" y2="461" fill="#00FFFF" stroke="#FFFFFF" stroke-width="3.00" stroke-dasharray="5 10"/>
<line shape-type="limitline" x1="244" y1="505" x2="64" y2="505" fill="#00FFFF" stroke="#00FFFF" stroke-width="3.00"/>
<line shape-type="limitline" x1="244" y1="568" x2="244" y2="506" fill="#00FFFF" stroke="#00FFFF" stroke-width="3.00"/>
<line shape-type="limitline" x1="286" y1="570" x2="245" y2="570" fill="#00FFFF" stroke="#00FFFF" stroke-width="3.00"/>
<line shape-type="limitline" x1="219" y1="570" x2="64" y2="570" fill="#00FFFF" stroke="#00FFFF" stroke-width="3.00"/>
<line shape-type="limitline" x1="219" y1="584" x2="219" y2="569" fill="#00FFFF" stroke="#00FFFF" stroke-width="3.00"/>
<line shape-type="limitline" x1="191" y1="602" x2="59" y2="602" fill="#00FFFF" stroke="#00FFFF" stroke-width="3.00"/>
<line shape-type="limitline" x1="214" y1="696" x2="59" y2="696" fill="#E700FF" stroke="#E700FF" stroke-width="3.00"/>
<line shape-type="limitline" x1="214" y1="696" x2="214" y2="680" fill="#E700FF" stroke="#E700FF" stroke-width="3.00"/>
<line shape-type="limitline" x1="115" y1="535" x2="60" y2="535" fill="#00FFFF" stroke="#FFFFFF" stroke-width="3.00" stroke-dasharray="5 10"/>
<line shape-type="limitline" x1="89" y1="643" x2="66" y2="643" fill="#00FFFF" stroke="#FFFFFF" stroke-width="3.00" stroke-dasharray="5 10"/>
<line shape-type="limitline" x1="905" y1="612" x2="493" y2="612" fill="#00FFFF" stroke="#FFFFFF" stroke-width="3.00" stroke-dasharray="5 10"/>
<line shape-type="limitline" x1="679" y1="645" x2="679" y2="615" fill="#00FFFF" stroke="#FFFFFF" stroke-width="3.00" stroke-dasharray="5 10"/>
<line shape-type="limitline" x1="905" y1="644" x2="677" y2="644" fill="#00FFFF" stroke="#FFFFFF" stroke-width="3.00" stroke-dasharray="5 10"/>
<line shape-type="limitline" x1="747" y1="674" x2="747" y2="644" fill="#00FFFF" stroke="#FFFFFF" stroke-width="3.00" stroke-dasharray="5 10"/>
<line shape-type="limitline" x1="911" y1="674" x2="747" y2="674" fill="#00FFFF" stroke="#FFFFFF" stroke-width="3.00" stroke-dasharray="5 10"/>
<line shape-type="limitline" x1="978" y1="722" x2="341" y2="722" fill="#E700FF" stroke="#E700FF" stroke-width="3.00"/>
<line shape-type="limitline" x1="339" y1="722" x2="339" y2="666" fill="#E700FF" stroke="#E700FF" stroke-width="3.00"/>
<line shape-type="limitline" x1="613" y1="522" x2="389" y2="522" fill="#E700FF" stroke="#E700FF" stroke-width="3.00"/>
<line shape-type="limitline" x1="668" y1="522" x2="623" y2="522" fill="#E700FF" stroke="#E700FF" stroke-width="3.00"/>
<line shape-type="limitline" x1="980" y1="498" x2="351" y2="498" fill="#E700FF" stroke="#E700FF" stroke-width="3.00"/>
<line shape-type="limitline" x1="351" y1="498" x2="351" y2="471" fill="#E700FF" stroke="#E700FF" stroke-width="3.00"/>
<line shape-type="limitline" x1="668" y1="522" x2="668" y2="498" fill="#E700FF" stroke="#E700FF" stroke-width="3.00"/>
<line shape-type="limitline" x1="716" y1="535" x2="584" y2="535" fill="#00FFFF" stroke="#FFFFFF" stroke-width="3.00" stroke-dasharray="5 10"/>
<line shape-type="limitline" x1="717" y1="549" x2="717" y2="535" fill="#00FFFF" stroke="#FFFFFF" stroke-width="3.00" stroke-dasharray="5 10"/>
<line shape-type="limitline" x1="584" y1="548" x2="584" y2="535" fill="#00FFFF" stroke="#FFFFFF" stroke-width="3.00" stroke-dasharray="5 10"/>
<line shape-type="limitline" x1="519" y1="574" x2="519" y2="542" fill="#00FFFF" stroke="#FFFFFF" stroke-width="3.00" stroke-dasharray="5 10"/>
<line shape-type="limitline" x1="538" y1="575" x2="519" y2="575" fill="#00FFFF" stroke="#FFFFFF" stroke-width="3.00" stroke-dasharray="5 10"/>
<line shape-type="limitline" x1="668" y1="575" x2="632" y2="575" fill="#00FFFF" stroke="#FFFFFF" stroke-width="3.00" stroke-dasharray="5 10"/>
<line shape-type="limitline" x1="990" y1="576" x2="767" y2="576" fill="#00FFFF" stroke="#FFFFFF" stroke-width="3.00" stroke-dasharray="5 10"/>
<line shape-type="limitline" x1="814" y1="246" x2="814" y2="193" fill="#00FFFF" stroke="#00FFFF" stroke-width="3.00"/>
<line shape-type="limitline" x1="814" y1="276" x2="814" y2="258" fill="#00FFFF" stroke="#00FFFF" stroke-width="3.00"/>
<line shape-type="limitline" x1="813" y1="180" x2="813" y2="146" fill="#00FFFF" stroke="#00FFFF" stroke-width="3.00"/>
<line shape-type="limitline" x1="990" y1="147" x2="815" y2="147" fill="#00FFFF" stroke="#00FFFF" stroke-width="3.00"/>
<line shape-type="limitline" x1="813" y1="399" x2="813" y2="355" fill="#00FFFF" stroke="#00FFFF" stroke-width="3.00"/>
<line shape-type="limitline" x1="984" y1="398" x2="813" y2="398" fill="#00FFFF" stroke="#00FFFF" stroke-width="3.00"/>
<line shape-type="limitline" x1="970" y1="694" x2="705" y2="694" fill="#E700FF" stroke="#E700FF" stroke-width="3.00"/>
<line shape-type="limitline" x1="707" y1="722" x2="707" y2="695" fill="#E700FF" stroke="#E700FF" stroke-width="3.00"/>
<line shape-type="limitline" x1="983" y1="252" x2="683" y2="252" fill="#E700FF" stroke="#E700FF" stroke-width="3.00"/>
<line shape-type="limitline" x1="681" y1="297" x2="681" y2="252" fill="#E700FF" stroke="#E700FF" stroke-width="3.00"/>
<line shape-type="limitline" x1="728" y1="223" x2="623" y2="223" fill="#E700FF" stroke="#E700FF" stroke-width="3.00"/>
<line shape-type="limitline" x1="731" y1="295" x2="731" y2="223" fill="#E700FF" stroke="#E700FF" stroke-width="3.00"/>
<line shape-type="limitline" x1="622" y1="420" x2="392" y2="420" fill="#E700FF" stroke="#E700FF" stroke-width="3.00"/>
<line shape-type="limitline" x1="334" y1="124" x2="334" y2="96" fill="#00FFFF" stroke="#00FFFF" stroke-width="3.00"/>
<line shape-type="limitline" x1="376" y1="116" x2="335" y2="116" fill="#00FFFF" stroke="#FFFFFF" stroke-width="3.00" stroke-dasharray="5 10"/>
<line shape-type="limitline" x1="423" y1="403" x2="423" y2="380" fill="#00FFFF" stroke="#FFFFFF" stroke-width="3.00" stroke-dasharray="5 10"/>
<line shape-type="limitline" x1="918" y1="375" x2="918" y2="339" fill="#00FFFF" stroke="#FFFFFF" stroke-width="3.00" stroke-dasharray="5 10"/>
<line shape-type="limitline" x1="617" y1="535" x2="617" y2="521" fill="#00FFFF" stroke="#FFFFFF" stroke-width="3.00" stroke-dasharray="5 10"/>
<g shape-type="group">
<line shape-type="limitline" x1="614" y1="526" x2="613" y2="517" fill="#E700FF" stroke="#E700FF" stroke-width="3.00"/>
<line shape-type="limitline" x1="620" y1="526" x2="619" y2="517" fill="#E700FF" stroke="#E700FF" stroke-width="3.00"/>
</g>
<line shape-type="limitline" x1="533" y1="433" x2="533" y2="419" fill="#00FFFF" stroke="#FFFFFF" stroke-width="3.00" stroke-dasharray="5 10"/>
<polygon shape-type="trapezium" points="386,358 285,358 308,283 364,283 386,358" fill="url(#lgradient85)" stroke="#C0C0C0" stroke-width="2.00"/>
<rect shape-type="roundRectangle" rx="20" ry="20" x="190" y="585" width="48" height="94" fill="url(#lgradient86)" stroke="#C0C0C0" stroke-width="2.00"/>
<rect shape-type="roundRectangle" rx="20" ry="20" x="798" y="278" width="68" height="75" fill="#C0C0C0" stroke="#C0C0C0" stroke-width="2.00"/>
<rect shape-type="roundRectangle" rx="20" ry="20" x="708" y="297" width="159" height="56" fill="#C0C0C0" stroke="#C0C0C0" stroke-width="2.00"/>
<polygon shape-type="trapezium" points="77,467 77,456 66,461 66,461 77,467" fill="#C0C0C0" stroke="#C0C0C0" stroke-width="2.00"/>
<g shape-type="group">
<path shape-type="chord" d="M 122,229 A 14,22 0 0,0 99,229 z" fill="#C0C0C0" stroke="#C0C0C0" stroke-width="2.00"/>
<g shape-type="group">
<polygon shape-type="trapezium" points="98,235 98,247 109,241 109,241 98,235" fill="#C0C0C0" stroke="#C0C0C0" stroke-width="1.00"/>
<polygon shape-type="trapezium" points="121,235 121,247 108,241 108,241 121,235" fill="#C0C0C0" stroke="#C0C0C0" stroke-width="1.00"/>
</g>
<line shape-type="limitline" x1="109" y1="228" x2="108" y2="236" fill="#00FFFF" stroke="#C0C0C0" stroke-width="1.00"/>
<polygon shape-type="trapezium" points="114,231 105,231 110,242 110,242 114,231" fill="#C0C0C0" stroke="#C0C0C0" stroke-width="1.00"/>
</g>
<g shape-type="group">
<path shape-type="chord" d="M 245,228 A 14,22 0 0,0 222,228 z" fill="#C0C0C0" stroke="#C0C0C0" stroke-width="2.00"/>
<g shape-type="group">
<polygon shape-type="trapezium" points="221,234 221,246 232,240 232,240 221,234" fill="#C0C0C0" stroke="#C0C0C0" stroke-width="1.00"/>
<polygon shape-type="trapezium" points="244,234 244,246 231,240 231,240 244,234" fill="#C0C0C0" stroke="#C0C0C0" stroke-width="1.00"/>
</g>
<line shape-type="limitline" x1="232" y1="227" x2="231" y2="235" fill="#00FFFF" stroke="#C0C0C0" stroke-width="1.00"/>
<polygon shape-type="trapezium" points="236,230 228,230 232,241 232,241 236,230" fill="#C0C0C0" stroke="#C0C0C0" stroke-width="1.00"/>
</g>
<g shape-type="group">
<path shape-type="chord" d="M 244,82 A 14,22 0 0,0 221,82 z" fill="#C0C0C0" stroke="#C0C0C0" stroke-width="2.00"/>
<g shape-type="group">
<polygon shape-type="trapezium" points="220,89 220,100 231,95 231,95 220,89" fill="#C0C0C0" stroke="#C0C0C0" stroke-width="1.00"/>
<polygon shape-type="trapezium" points="243,89 243,100 230,95 230,95 243,89" fill="#C0C0C0" stroke="#C0C0C0" stroke-width="1.00"/>
</g>
<line shape-type="limitline" x1="231" y1="81" x2="230" y2="90" fill="#00FFFF" stroke="#C0C0C0" stroke-width="1.00"/>
<polygon shape-type="trapezium" points="235,84 227,84 231,95 231,95 235,84" fill="#C0C0C0" stroke="#C0C0C0" stroke-width="1.00"/>
</g>
<g shape-type="group">
<path shape-type="chord" d="M 124,83 A 14,22 0 0,0 101,83 z" fill="#C0C0C0" stroke="#C0C0C0" stroke-width="2.00"/>
<g shape-type="group">
<polygon shape-type="trapezium" points="100,90 100,101 111,96 111,96 100,90" fill="#C0C0C0" stroke="#C0C0C0" stroke-width="1.00"/>
<polygon shape-type="trapezium" points="123,90 123,101 110,96 110,96 123,90" fill="#C0C0C0" stroke="#C0C0C0" stroke-width="1.00"/>
</g>
<line shape-type="limitline" x1="111" y1="82" x2="110" y2="91" fill="#00FFFF" stroke="#C0C0C0" stroke-width="1.00"/>
<polygon shape-type="trapezium" points="116,85 107,85 112,96 112,96 116,85" fill="#C0C0C0" stroke="#C0C0C0" stroke-width="1.00"/>
</g>
<g shape-type="group">
<polygon shape-type="trapezium" points="54,249 54,232 39,240 39,240 54,249" fill="#808080" stroke="#808080" stroke-width="2.00"/>
<rect shape-type="rectangle" x="53" y="236" width="12" height="9" fill="#808080" stroke="#808080" stroke-width="2.00"/>
</g>
<g shape-type="group">
<polygon shape-type="trapezium" points="55,578 55,561 40,569 40,569 55,578" fill="#808080" stroke="#808080" stroke-width="2.00"/>
<rect shape-type="rectangle" x="54" y="566" width="12" height="8" fill="#808080" stroke="#808080" stroke-width="2.00"/>
</g>
<g shape-type="group">
<polygon shape-type="trapezium" points="52,705 52,688 38,696 38,696 52,705" fill="#808080" stroke="#808080" stroke-width="2.00"/>
<rect shape-type="rectangle" x="51" y="692" width="12" height="8" fill="#808080" stroke="#808080" stroke-width="2.00"/>
</g>
<g shape-type="group">
<polygon shape-type="trapezium" points="991,404 991,388 975,396 975,396 991,404" fill="#808080" stroke="#808080" stroke-width="2.00"/>
<rect shape-type="rectangle" x="990" y="392" width="11" height="8" fill="#808080" stroke="#808080" stroke-width="2.00"/>
</g>
<g shape-type="group">
<polygon shape-type="trapezium" points="993,457 993,440 977,448 977,448 993,457" fill="#808080" stroke="#808080" stroke-width="2.00"/>
<rect shape-type="rectangle" x="992" y="444" width="11" height="8" fill="#808080" stroke="#808080" stroke-width="2.00"/>
</g>
<g shape-type="group">
<polygon shape-type="trapezium" points="993,194 993,177 977,185 977,185 993,194" fill="#808080" stroke="#808080" stroke-width="2.00"/>
<rect shape-type="rectangle" x="992" y="181" width="11" height="9" fill="#808080" stroke="#808080" stroke-width="2.00"/>
</g>
<g shape-type="group">
<polygon shape-type="trapezium" points="926,684 926,666 910,675 910,675 926,684" fill="#808080" stroke="#808080" stroke-width="2.00"/>
<rect shape-type="rectangle" x="925" y="670" width="11" height="9" fill="#808080" stroke="#808080" stroke-width="2.00"/>
</g>
<g shape-type="group">
<polygon shape-type="trapezium" points="52,514 52,497 68,505 68,505 52,514" fill="#808080" stroke="#808080" stroke-width="2.00"/>
<rect shape-type="rectangle" x="42" y="502" width="11" height="8" fill="#808080" stroke="#808080" stroke-width="2.00"/>
</g>
<g shape-type="group">
<polygon shape-type="trapezium" points="51,611 51,593 67,602 67,602 51,611" fill="#808080" stroke="#808080" stroke-width="2.00"/>
<rect shape-type="rectangle" x="41" y="597" width="11" height="9" fill="#808080" stroke="#808080" stroke-width="2.00"/>
</g>
<g shape-type="group">
<polygon shape-type="trapezium" points="972,104 972,87 988,95 988,95 972,104" fill="#808080" stroke="#808080" stroke-width="2.00"/>
<rect shape-type="rectangle" x="961" y="91" width="12" height="9" fill="#808080" stroke="#808080" stroke-width="2.00"/>
</g>
<g shape-type="group">
<polygon shape-type="trapezium" points="994,155 994,137 1009,146 1009,146 994,155" fill="#808080" stroke="#808080" stroke-width="2.00"/>
<rect shape-type="rectangle" x="983" y="141" width="12" height="9" fill="#808080" stroke="#808080" stroke-width="2.00"/>
</g>
<g shape-type="group">
<polygon shape-type="trapezium" points="992,262 992,244 1007,253 1007,253 992,262" fill="#808080" stroke="#808080" stroke-width="2.00"/>
<rect shape-type="rectangle" x="981" y="249" width="12" height="8" fill="#808080" stroke="#808080" stroke-width="2.00"/>
</g>
<g shape-type="group">
<polygon shape-type="trapezium" points="986,508 986,490 1002,499 1002,499 986,508" fill="#808080" stroke="#808080" stroke-width="2.00"/>
<rect shape-type="rectangle" x="976" y="494" width="12" height="9" fill="#808080" stroke="#808080" stroke-width="2.00"/>
</g>
<g shape-type="group">
<polygon shape-type="trapezium" points="919,619 919,603 934,611 934,611 919,619" fill="#808080" stroke="#808080" stroke-width="2.00"/>
<rect shape-type="rectangle" x="908" y="607" width="12" height="8" fill="#808080" stroke="#808080" stroke-width="2.00"/>
</g>
<g shape-type="group">
<polygon shape-type="trapezium" points="920,652 920,635 935,643 935,643 920,652" fill="#808080" stroke="#808080" stroke-width="2.00"/>
<rect shape-type="rectangle" x="909" y="639" width="12" height="8" fill="#808080" stroke="#808080" stroke-width="2.00"/>
</g>
<g shape-type="group">
<polygon shape-type="trapezium" points="975,701 975,684 991,692 991,692 975,701" fill="#808080" stroke="#808080" stroke-width="2.00"/>
<rect shape-type="rectangle" x="965" y="688" width="11" height="8" fill="#808080" stroke="#808080" stroke-width="2.00"/>
</g>
<g shape-type="group">
<polygon shape-type="trapezium" points="978,731 978,713 994,722 994,722 978,731" fill="#808080" stroke="#808080" stroke-width="2.00"/>
<rect shape-type="rectangle" x="968" y="717" width="11" height="9" fill="#808080" stroke="#808080" stroke-width="2.00"/>
</g>
<polygon shape-type="trapezium" points="57,540 57,529 46,534 46,534 57,540" fill="#C0C0C0" stroke="#C0C0C0" stroke-width="2.00"/>
<polygon shape-type="trapezium" points="72,648 72,637 61,642 61,642 72,648" fill="#C0C0C0" stroke="#C0C0C0" stroke-width="2.00"/>
<polygon shape-type="trapezium" points="69,102 69,91 58,96 58,96 69,102" fill="#00FFFF" stroke="#00FFFF" stroke-width="2.00"/>
<polygon shape-type="trapezium" points="277,576 277,565 288,570 288,570 277,576" fill="#00FFFF" stroke="#00FFFF" stroke-width="2.00"/>
<polygon shape-type="trapezium" points="719,648 719,637 730,642 730,642 719,648" fill="#C0C0C0" stroke="#C0C0C0" stroke-width="2.00"/>
<polygon shape-type="trapezium" points="787,618 787,607 798,612 798,612 787,618" fill="#C0C0C0" stroke="#C0C0C0" stroke-width="2.00"/>
<polygon shape-type="trapezium" points="895,617 895,606 906,611 906,611 895,617" fill="#C0C0C0" stroke="#C0C0C0" stroke-width="2.00"/>
<polygon shape-type="trapezium" points="899,649 899,638 910,643 910,643 899,649" fill="#C0C0C0" stroke="#C0C0C0" stroke-width="2.00"/>
<polygon shape-type="trapezium" points="537,252 537,241 548,246 548,246 537,252" fill="#E700FF" stroke="#E700FF" stroke-width="2.00"/>
<polygon shape-type="trapezium" points="328,108 338,108 333,98 333,98 328,108" fill="#00FFFF" stroke="#00FFFF" stroke-width="2.00"/>
<polygon shape-type="trapezium" points="376,268 376,257 365,262 365,262 376,268" fill="#E700FF" stroke="#E700FF" stroke-width="2.00"/>
<polygon shape-type="trapezium" points="660,341 660,330 649,335 649,335 660,341" fill="#E700FF" stroke="#E700FF" stroke-width="2.00"/>
<polygon shape-type="trapezium" points="399,425 399,414 388,419 388,419 399,425" fill="#E700FF" stroke="#E700FF" stroke-width="2.00"/>
<polygon shape-type="trapezium" points="399,528 399,517 388,522 388,522 399,528" fill="#E700FF" stroke="#E700FF" stroke-width="2.00"/>
<polygon shape-type="trapezium" points="726,365 736,365 731,355 731,355 726,365" fill="#E700FF" stroke="#E700FF" stroke-width="2.00"/>
<polygon shape-type="trapezium" points="742,672 752,672 747,662 747,662 742,672" fill="#C0C0C0" stroke="#C0C0C0" stroke-width="2.00"/>
<polygon shape-type="trapezium" points="168,230 178,230 173,240 173,240 168,230" fill="#00FFFF" stroke="#00FFFF" stroke-width="2.00"/>
<polygon shape-type="trapezium" points="276,230 286,230 281,240 281,240 276,230" fill="#00FFFF" stroke="#00FFFF" stroke-width="2.00"/>
<polygon shape-type="trapezium" points="616,274 626,274 621,284 621,284 616,274" fill="#E700FF" stroke="#E700FF" stroke-width="2.00"/>
<polygon shape-type="trapezium" points="616,409 626,409 621,419 621,419 616,409" fill="#E700FF" stroke="#E700FF" stroke-width="2.00"/>
<polygon shape-type="trapezium" points="663,510 673,510 668,520 668,520 663,510" fill="#E700FF" stroke="#E700FF" stroke-width="2.00"/>
<polygon shape-type="trapezium" points="711,538 721,538 716,548 716,548 711,538" fill="#C0C0C0" stroke="#C0C0C0" stroke-width="2.00"/>
<polygon shape-type="trapezium" points="577,538 587,538 582,548 582,548 577,538" fill="#C0C0C0" stroke="#C0C0C0" stroke-width="2.00"/>
<polygon shape-type="trapezium" points="645,580 645,569 634,574 634,574 645,580" fill="#C0C0C0" stroke="#C0C0C0" stroke-width="2.00"/>
<polygon shape-type="trapezium" points="777,581 777,570 766,575 766,575 777,581" fill="#C0C0C0" stroke="#C0C0C0" stroke-width="2.00"/>
<g shape-type="group">
<path shape-type="chord" d="M 508,535 A 14,22 0 0,0 531,535 z" fill="#C0C0C0" stroke="#C0C0C0" stroke-width="2.00"/>
<g shape-type="group">
<polygon shape-type="trapezium" points="507,527 507,516 519,521 519,521 507,527" fill="#C0C0C0" stroke="#C0C0C0" stroke-width="1.00"/>
<polygon shape-type="trapezium" points="530,527 530,516 518,521 518,521 530,527" fill="#C0C0C0" stroke="#C0C0C0" stroke-width="1.00"/>
</g>
<line shape-type="limitline" x1="519" y1="534" x2="518" y2="526" fill="#00FFFF" stroke="#C0C0C0" stroke-width="1.00"/>
<polygon shape-type="trapezium" points="523,531 515,531 519,521 519,521 523,531" fill="#C0C0C0" stroke="#C0C0C0" stroke-width="1.00"/>
</g>
<polygon shape-type="trapezium" points="208,684 218,684 213,694 213,694 208,684" fill="#E700FF" stroke="#E700FF" stroke-width="2.00"/>
<polygon shape-type="trapezium" points="333,711 343,711 338,721 338,721 333,711" fill="#E700FF" stroke="#E700FF" stroke-width="2.00"/>
<g shape-type="group">
<path shape-type="chord" d="M 929,385 A 14,22 0 0,0 906,385 z" fill="#C0C0C0" stroke="#C0C0C0" stroke-width="2.00"/>
<g shape-type="group">
<polygon shape-type="trapezium" points="905,392 905,403 917,398 917,398 905,392" fill="#C0C0C0" stroke="#C0C0C0" stroke-width="1.00"/>
<polygon shape-type="trapezium" points="928,392 928,403 916,398 916,398 928,392" fill="#C0C0C0" stroke="#C0C0C0" stroke-width="1.00"/>
</g>
<line shape-type="limitline" x1="917" y1="384" x2="916" y2="393" fill="#00FFFF" stroke="#C0C0C0" stroke-width="1.00"/>
<polygon shape-type="trapezium" points="921,387 913,387 917,398 917,398 921,387" fill="#C0C0C0" stroke="#C0C0C0" stroke-width="1.00"/>
</g>
<rect shape-type="rectangle" x="378" y="101" width="61" height="25" fill="#4A494A" stroke="#C0C0C0" stroke-width="3.00"/>
<rect shape-type="rectangle" x="439" y="101" width="36" height="25" fill="#4A494A" stroke="#C0C0C0" stroke-width="3.00"/>
<text font-family="宋体" text-anchor="start" fill="#00FF42" shape-type="text" id="" font-size="10.250000" font-weight="bold" x="446" y="117">PPM</text>
<rect shape-type="rectangle" x="378" y="130" width="61" height="25" fill="#4A494A" stroke="#C0C0C0" stroke-width="3.00"/>
<rect shape-type="rectangle" x="439" y="130" width="36" height="25" fill="#4A494A" stroke="#C0C0C0" stroke-width="3.00"/>
<text font-family="宋体" text-anchor="start" fill="#00FF42" shape-type="text" id="" font-size="10.250000" font-weight="bold" x="441" y="145">DEG_C</text>
<rect shape-type="rectangle" x="397" y="214" width="61" height="25" fill="#4A494A" stroke="#C0C0C0" stroke-width="3.00"/>
<rect shape-type="rectangle" x="458" y="214" width="36" height="25" fill="#4A494A" stroke="#C0C0C0" stroke-width="3.00"/>
<text font-family="宋体" text-anchor="start" fill="#00FF42" shape-type="text" id="" font-size="10.250000" font-weight="bold" x="459" y="229">DEG_C</text>
<rect shape-type="rectangle" x="396" y="272" width="61" height="25" fill="#4A494A" stroke="#C0C0C0" stroke-width="3.00"/>
<rect shape-type="rectangle" x="457" y="272" width="36" height="25" fill="#4A494A" stroke="#C0C0C0" stroke-width="3.00"/>
<text font-family="宋体" text-anchor="start" fill="#00FF42" shape-type="text" id="" font-size="10.250000" font-weight="bold" x="458" y="287">DEG_C</text>
<rect shape-type="rectangle" x="396" y="356" width="61" height="25" fill="#4A494A" stroke="#C0C0C0" stroke-width="3.00"/>
<rect shape-type="rectangle" x="457" y="356" width="36" height="25" fill="#4A494A" stroke="#C0C0C0" stroke-width="3.00"/>
<text font-family="宋体" text-anchor="start" fill="#00FF42" shape-type="text" id="" font-size="10.250000" font-weight="bold" x="458" y="371">DEG_C</text>
<rect shape-type="rectangle" x="869" y="220" width="61" height="25" fill="#4A494A" stroke="#C0C0C0" stroke-width="3.00"/>
<rect shape-type="rectangle" x="930" y="220" width="36" height="25" fill="#4A494A" stroke="#C0C0C0" stroke-width="3.00"/>
<text font-family="宋体" text-anchor="start" fill="#00FF42" shape-type="text" id="" font-size="10.250000" font-weight="bold" x="931" y="235">DEG_C</text>
<rect shape-type="rectangle" x="694" y="465" width="61" height="25" fill="#4A494A" stroke="#C0C0C0" stroke-width="3.00"/>
<rect shape-type="rectangle" x="755" y="465" width="36" height="25" fill="#4A494A" stroke="#C0C0C0" stroke-width="3.00"/>
<text font-family="宋体" text-anchor="start" fill="#00FF42" shape-type="text" id="" font-size="10.250000" font-weight="bold" x="756" y="480">DEG_C</text>
<rect shape-type="rectangle" x="485" y="431" width="61" height="25" fill="#4A494A" stroke="#C0C0C0" stroke-width="3.00"/>
<rect shape-type="rectangle" x="546" y="431" width="36" height="25" fill="#4A494A" stroke="#C0C0C0" stroke-width="3.00"/>
<text font-family="宋体" text-anchor="start" fill="#00FF42" shape-type="text" id="" font-size="10.250000" font-weight="bold" x="547" y="446">DEG_C</text>
<rect shape-type="rectangle" x="398" y="691" width="61" height="25" fill="#4A494A" stroke="#C0C0C0" stroke-width="3.00"/>
<rect shape-type="rectangle" x="459" y="691" width="36" height="25" fill="#4A494A" stroke="#C0C0C0" stroke-width="3.00"/>
<text font-family="宋体" text-anchor="start" fill="#00FF42" shape-type="text" id="" font-size="10.250000" font-weight="bold" x="460" y="706">DEG_C</text>
<rect shape-type="rectangle" x="183" y="393" width="49" height="25" fill="#4A494A" stroke="#C0C0C0" stroke-width="3.00"/>
<rect shape-type="rectangle" x="231" y="393" width="48" height="25" fill="#4A494A" stroke="#C0C0C0" stroke-width="3.00"/>
<text font-family="宋体" text-anchor="start" fill="#00FF42" shape-type="text" id="" font-size="10.250000" font-weight="bold" x="237" y="408">KPa(g)</text>
<rect shape-type="rectangle" x="869" y="292" width="97" height="25" fill="#7B7D7B" stroke="#C0C0C0" stroke-width="3.00"/>
<rect shape-type="rectangle" x="869" y="317" width="62" height="24" fill="#4A494A" stroke="#C0C0C0" stroke-width="3.00"/>
<text font-family="宋体" text-anchor="start" fill="#FFFFFF" shape-type="text" id="" font-size="11.000000" font-weight="bold" x="891" y="309">LC24004</text>
<rect shape-type="rectangle" x="931" y="317" width="35" height="24" fill="#4A494A" stroke="#C0C0C0" stroke-width="3.00"/>
<text font-family="宋体" text-anchor="start" fill="#00FF42" shape-type="text" id="" font-size="10.250000" font-weight="bold" x="946" y="332">%</text>
<rect shape-type="rectangle" x="187" y="437" width="97" height="25" fill="#7B7D7B" stroke="#C0C0C0" stroke-width="3.00"/>
<rect shape-type="rectangle" x="187" y="462" width="62" height="24" fill="#4A494A" stroke="#C0C0C0" stroke-width="3.00"/>
<text font-family="宋体" text-anchor="start" fill="#FFFFFF" shape-type="text" id="" font-size="11.000000" font-weight="bold" x="209" y="454">LC24002</text>
<rect shape-type="rectangle" x="249" y="462" width="35" height="24" fill="#4A494A" stroke="#C0C0C0" stroke-width="3.00"/>
<text font-family="宋体" text-anchor="start" fill="#00FF42" shape-type="text" id="" font-size="10.250000" font-weight="bold" x="264" y="477">%</text>
<rect shape-type="rectangle" x="116" y="509" width="97" height="25" fill="#7B7D7B" stroke="#C0C0C0" stroke-width="3.00"/>
<rect shape-type="rectangle" x="116" y="534" width="62" height="24" fill="#4A494A" stroke="#C0C0C0" stroke-width="3.00"/>
<text font-family="宋体" text-anchor="start" fill="#FFFFFF" shape-type="text" id="" font-size="11.000000" font-weight="bold" x="138" y="526">TC24005</text>
<rect shape-type="rectangle" x="178" y="534" width="35" height="24" fill="#4A494A" stroke="#C0C0C0" stroke-width="3.00"/>
<text font-family="宋体" text-anchor="start" fill="#00FF42" shape-type="text" id="" font-size="10.250000" font-weight="bold" x="179" y="549">DEG_C</text>
<rect shape-type="rectangle" x="391" y="587" width="97" height="25" fill="#7B7D7B" stroke="#C0C0C0" stroke-width="3.00"/>
<rect shape-type="rectangle" x="391" y="612" width="62" height="24" fill="#4A494A" stroke="#C0C0C0" stroke-width="3.00"/>
<text font-family="宋体" text-anchor="start" fill="#FFFFFF" shape-type="text" id="" font-size="11.000000" font-weight="bold" x="413" y="604">LC24003</text>
<rect shape-type="rectangle" x="453" y="612" width="35" height="24" fill="#4A494A" stroke="#C0C0C0" stroke-width="3.00"/>
<text font-family="宋体" text-anchor="start" fill="#00FF42" shape-type="text" id="" font-size="10.250000" font-weight="bold" x="468" y="627">%</text>
<rect shape-type="rectangle" x="89" y="618" width="97" height="25" fill="#7B7D7B" stroke="#C0C0C0" stroke-width="3.00"/>
<rect shape-type="rectangle" x="89" y="643" width="62" height="24" fill="#4A494A" stroke="#C0C0C0" stroke-width="3.00"/>
<text font-family="宋体" text-anchor="start" fill="#FFFFFF" shape-type="text" id="" font-size="11.000000" font-weight="bold" x="111" y="635">LC24001</text>
<rect shape-type="rectangle" x="151" y="643" width="35" height="24" fill="#4A494A" stroke="#C0C0C0" stroke-width="3.00"/>
<text font-family="宋体" text-anchor="start" fill="#00FF42" shape-type="text" id="" font-size="10.250000" font-weight="bold" x="166" y="658">%</text>
<rect shape-type="rectangle" x="535" y="551" width="97" height="25" fill="#7B7D7B" stroke="#C0C0C0" stroke-width="3.00"/>
<rect shape-type="rectangle" x="535" y="576" width="62" height="24" fill="#4A494A" stroke="#C0C0C0" stroke-width="3.00"/>
<text font-family="宋体" text-anchor="start" fill="#FFFFFF" shape-type="text" id="" font-size="11.000000" font-weight="bold" x="557" y="568">FC24003</text>
<rect shape-type="rectangle" x="597" y="576" width="35" height="24" fill="#4A494A" stroke="#C0C0C0" stroke-width="3.00"/>
<text font-family="宋体" text-anchor="start" fill="#00FF42" shape-type="text" id="" font-size="10.250000" font-weight="bold" x="607" y="591">t/h</text>
<rect shape-type="rectangle" x="670" y="551" width="97" height="25" fill="#7B7D7B" stroke="#C0C0C0" stroke-width="3.00"/>
<rect shape-type="rectangle" x="670" y="576" width="62" height="24" fill="#4A494A" stroke="#C0C0C0" stroke-width="3.00"/>
<text font-family="宋体" text-anchor="start" fill="#FFFFFF" shape-type="text" id="" font-size="11.000000" font-weight="bold" x="688" y="568">FFC24003</text>
<rect shape-type="rectangle" x="732" y="576" width="35" height="24" fill="#4A494A" stroke="#C0C0C0" stroke-width="3.00"/>
<text font-family="宋体" text-anchor="start" fill="#00FF42" shape-type="text" id="" font-size="10.250000" font-weight="bold" x="742" y="591">t/h</text>
<text font-family="宋体" text-anchor="start" fill="#000000" shape-type="text" id="" font-size="12.500000" font-weight="bold" x="319" y="339">C401</text>
<text font-family="宋体" text-anchor="start" fill="#000000" shape-type="text" id="" font-size="12.500000" font-weight="bold" x="567" y="321">E403</text>
<text font-family="宋体" text-anchor="start" fill="#000000" shape-type="text" id="" font-size="12.500000" font-weight="bold" x="793" y="306">E402</text>
<text font-family="宋体" text-anchor="start" fill="#FFFFFF" shape-type="text" id="" font-size="12.500000" x="6" y="99">FLARE</text>
<text font-family="宋体" text-anchor="start" fill="#FFFFFF" shape-type="text" id="" font-size="12.500000" x="80" y="116">HV24002D</text>
<text font-family="宋体" text-anchor="start" fill="#FFFFFF" shape-type="text" id="" font-size="12.500000" x="200" y="116">HV24002B</text>
<text font-family="宋体" text-anchor="start" fill="#FFFFFF" shape-type="text" id="" font-size="12.500000" x="201" y="262">HV24002C</text>
<text font-family="宋体" text-anchor="start" fill="#FFFFFF" shape-type="text" id="" font-size="12.500000" x="5" y="246">E418</text>
<text font-family="宋体" text-anchor="start" fill="#FFFFFF" shape-type="text" id="" font-size="12.500000" x="10" y="455">LV24002</text>
<text font-family="宋体" text-anchor="start" fill="#FFFFFF" shape-type="text" id="" font-size="12.500000" x="3" y="510">C3401</text>
<text font-family="宋体" text-anchor="start" fill="#FFFFFF" shape-type="text" id="" font-size="12.500000" x="10" y="553">TV24005</text>
<text font-family="宋体" text-anchor="start" fill="#FFFFFF" shape-type="text" id="" font-size="12.500000" x="6" y="573">C3401</text>
<text font-family="宋体" text-anchor="start" fill="#FFFFFF" shape-type="text" id="" font-size="12.500000" x="7" y="606">E401</text>
<text font-family="宋体" text-anchor="start" fill="#FFFFFF" shape-type="text" id="" font-size="12.500000" x="6" y="635">LV24001</text>
<text font-family="宋体" text-anchor="start" fill="#FFFFFF" shape-type="text" id="" font-size="12.500000" x="6" y="702">S403</text>
<text font-family="宋体" text-anchor="start" fill="#FFFFFF" shape-type="text" id="" font-size="12.500000" x="244" y="601">V401</text>
<text font-family="宋体" text-anchor="start" fill="#FFFFFF" shape-type="text" id="" font-size="12.500000" x="483" y="120">CO2</text>
<text font-family="宋体" text-anchor="start" fill="#FFFFFF" shape-type="text" id="" font-size="12.500000" x="991" y="98">SYNGAS</text>
<text font-family="宋体" text-anchor="start" fill="#FFFFFF" shape-type="text" id="" font-size="12.500000" x="1011" y="148">E406</text>
<text font-family="宋体" text-anchor="start" fill="#FFFFFF" shape-type="text" id="" font-size="12.500000" x="1011" y="188">E407</text>
<text font-family="宋体" text-anchor="start" fill="#FFFFFF" shape-type="text" id="" font-size="12.500000" x="1011" y="253">V402</text>
<text font-family="宋体" text-anchor="start" fill="#FFFFFF" shape-type="text" id="" font-size="12.500000" x="1007" y="399">E408</text>
<text font-family="宋体" text-anchor="start" fill="#FFFFFF" shape-type="text" id="" font-size="12.500000" x="1006" y="450">E407</text>
<text font-family="宋体" text-anchor="start" fill="#FFFFFF" shape-type="text" id="" font-size="12.500000" x="1007" y="501">E405</text>
<text font-family="宋体" text-anchor="start" fill="#FFFFFF" shape-type="text" id="" font-size="12.500000" x="992" y="579">FI24001</text>
<text font-family="宋体" text-anchor="start" fill="#FFFFFF" shape-type="text" id="" font-size="12.500000" x="942" y="619">LV24003B</text>
<text font-family="宋体" text-anchor="start" fill="#FFFFFF" shape-type="text" id="" font-size="12.500000" x="949" y="649">LV24003</text>
<text font-family="宋体" text-anchor="start" fill="#FFFFFF" shape-type="text" id="" font-size="12.500000" x="944" y="676">LC24003A</text>
<text font-family="宋体" text-anchor="start" fill="#FFFFFF" shape-type="text" id="" font-size="12.500000" x="997" y="693">P3401</text>
<text font-family="宋体" text-anchor="start" fill="#FFFFFF" shape-type="text" id="" font-size="12.500000" x="999" y="725">E408</text>
<rect shape-type="rectangle" x="-1" y="741" width="1069" height="63" fill="#BDBABD" stroke="#BDBABD" stroke-width="1.00"/>
<g shape-type="group">
<rect shape-type="rectangle" x="996" y="753" width="48" height="43" fill="#C6C3C6" stroke="#C6C3C6" stroke-width="1.00"/>
<polygon shape-type="trapezium" points="1013,784 1013,764 1031,774 1031,774 1013,784" fill="#4A494A" stroke="#C6C3C6" stroke-width="2.00"/>
</g>
<g shape-type="group">
<rect shape-type="rectangle" x="11" y="753" width="48" height="40" fill="#C6C3C6" stroke="#C6C3C6" stroke-width="1.00"/>
<polygon shape-type="trapezium" points="40,781 40,761 21,771 21,771 40,781" fill="#4A494A" stroke="#C6C3C6" stroke-width="2.00"/>
</g>
<a xlink:href="M403.svg">
<g shape-type="button">
<rect fill="#C0C0C0" stroke-width="0.3" stroke="#FFFFFF" x="77" y="750" width="92" height="43" shape-type="buttonrect"/>
<text font-family="宋体" text-anchor="middle" dominant-baseline="middle" fill="#000000" font-size="10.500000" x="123" y="776" shape-type="buttontext">MEOH COOLING</text>
</g>
</a>
<a xlink:href="M404.svg">
<g shape-type="button">
<rect fill="#C0C0C0" stroke-width="0.3" stroke="#FFFFFF" x="181" y="750" width="92" height="43" shape-type="buttonrect"/>
<text font-family="宋体" text-anchor="middle" dominant-baseline="middle" fill="#000000" font-size="13.500000" x="227" y="777" shape-type="buttontext">C402</text>
</g>
</a>
<a xlink:href="m405.svg">
<g shape-type="button">
<rect fill="#C0C0C0" stroke-width="0.3" stroke="#FFFFFF" x="288" y="748" width="92" height="43" shape-type="buttonrect"/>
<text font-family="宋体" text-anchor="middle" dominant-baseline="middle" fill="#000000" font-size="13.500000" x="334" y="775" shape-type="buttontext">K401</text>
</g>
</a>
<a xlink:href="M406.svg">
<g shape-type="button">
<rect fill="#C0C0C0" stroke-width="0.3" stroke="#FFFFFF" x="395" y="750" width="91" height="43" shape-type="buttonrect"/>
<text font-family="宋体" text-anchor="middle" dominant-baseline="middle" fill="#000000" font-size="13.500000" x="441" y="777" shape-type="buttontext">C403</text>
</g>
</a>
<a xlink:href="M407.svg">
<g shape-type="button">
<rect fill="#C0C0C0" stroke-width="0.3" stroke="#FFFFFF" x="503" y="750" width="92" height="43" shape-type="buttonrect"/>
<text font-family="宋体" text-anchor="middle" dominant-baseline="middle" fill="#000000" font-size="13.500000" x="549" y="777" shape-type="buttontext">C404</text>
</g>
</a>
<a xlink:href="m408.svg">
<g shape-type="button">
<rect fill="#C0C0C0" stroke-width="0.3" stroke="#FFFFFF" x="610" y="750" width="92" height="43" shape-type="buttonrect"/>
<text font-family="宋体" text-anchor="middle" dominant-baseline="middle" fill="#000000" font-size="13.500000" x="656" y="777" shape-type="buttontext">V404</text>
</g>
</a>
<a xlink:href="M409.svg">
<g shape-type="button">
<rect fill="#C0C0C0" stroke-width="0.3" stroke="#FFFFFF" x="717" y="750" width="92" height="43" shape-type="buttonrect"/>
<text font-family="宋体" text-anchor="middle" dominant-baseline="middle" fill="#000000" font-size="13.500000" x="763" y="777" shape-type="buttontext">V406</text>
</g>
</a>
<a xlink:href="C405">
<g shape-type="button">
<rect fill="#C0C0C0" stroke-width="0.3" stroke="#FFFFFF" x="830" y="750" width="92" height="43" shape-type="buttonrect"/>
<text font-family="宋体" text-anchor="middle" dominant-baseline="middle" fill="#000000" font-size="13.500000" x="876" y="777" shape-type="buttontext">C405</text>
</g>
</a>
<text font-family="Arial" text-anchor="start" fill="#00FFFF" shape-type="realdata" id="HCAB_JH_AI24001" font-size="12.500000" x="383" y="114">XXXX</text>
<text font-family="Arial" text-anchor="start" fill="#00FFFF" shape-type="realdata" id="HCAB_JH_TI24007" font-size="12.500000" x="384" y="146">XXXX</text>
<text font-family="Arial" text-anchor="start" fill="#00FFFF" shape-type="realdata" id="HCAB_JH_TI24009" font-size="12.500000" x="402" y="228">XXXX</text>
<text font-family="Arial" text-anchor="start" fill="#00FFFF" shape-type="realdata" id="HCAB_JH_TI24011" font-size="12.500000" x="402" y="286">XXXX</text>
<text font-family="Arial" text-anchor="start" fill="#00FFFF" shape-type="realdata" id="HCAB_JH_TI24013" font-size="12.500000" x="402" y="371">XXX</text>
<text font-family="Arial" text-anchor="start" fill="#00FFFF" shape-type="realdata" id="HCAB_JH_TI24012" font-size="12.500000" x="491" y="446">XXXX</text>
<text font-family="Arial" text-anchor="start" fill="#00FFFF" shape-type="realdata" id="HCAB_JH_TI24008" font-size="12.500000" x="700" y="480">XXXX</text>
<text font-family="Arial" text-anchor="start" fill="#00FFFF" shape-type="realdata" id="HCAB_JH_FC24003" font-size="12.500000" x="540" y="592">XXXX</text>
<text font-family="Arial" text-anchor="start" fill="#00FFFF" shape-type="realdata" id="HCAB_JH_FFC24003" font-size="12.500000" x="673" y="591">XXX</text>
<text font-family="Arial" text-anchor="start" fill="#00FFFF" shape-type="realdata" id="HCAB_JH_PDI24005" font-size="12.500000" x="188" y="409">XXXX</text>
<text font-family="Arial" text-anchor="start" fill="#00FFFF" shape-type="realdata" id="HCAB_JH_LC24002" font-size="12.500000" x="194" y="478">XXXX</text>
<text font-family="Arial" text-anchor="start" fill="#00FFFF" shape-type="realdata" id="HCAB_JH_TC24005" font-size="12.500000" x="121" y="549">XXXX</text>
<text font-family="Arial" text-anchor="start" fill="#00FFFF" shape-type="realdata" id="HCAB_JH_LC24001" font-size="12.500000" x="95" y="658">XXXX</text>
<text font-family="Arial" text-anchor="start" fill="#00FFFF" shape-type="realdata" id="HCAB_JH_LC24003" font-size="12.500000" x="396" y="629">XXXX</text>
<text font-family="Arial" text-anchor="start" fill="#00FFFF" shape-type="realdata" id="HCAB_JH_TI24010" font-size="12.500000" x="875" y="237">XXXX</text>
<text font-family="Arial" text-anchor="start" fill="#00FFFF" shape-type="realdata" id="HCAB_JH_LC24004" font-size="12.500000" x="875" y="333">XXXX</text>
<text font-family="Arial" text-anchor="start" fill="#00FFFF" shape-type="realdata" id="HCAB_JH_TI24006" font-size="12.500000" x="405" y="706">XXXX</text>
<a xlink:href="400_ML.svg">
<g shape-type="button">
<rect fill="#C0C0C0" stroke-width="0.3" stroke="#FFFFFF" x="953" y="11" width="98" height="31" shape-type="buttonrect"/>
<text font-family="宋体" text-anchor="middle" dominant-baseline="middle" fill="#800000" font-size="13.500000" font-weight="bold" x="1002" y="33" shape-type="buttontext">返回上一级</text>
</g>
</a>
</svg>
