<?xml version="1.0"?>
<?xml-stylesheet type='text/javascript'?>
<!--Draw SVG: 2019-11-25 09:41:22 47-Monday-->
<svg xmlns="http://www.w3.org/2000/svg" xmlns:xlink="http://www.w3.org/1999/xlink" version="1.1" style="background-color:#000000" width="1066" height="800" viewbox="0 0 1066 800">
<defs>
<linearGradient x1="0.000000%" y1="50.000000%" x2="100.000000%" y2="50.000000%" id="lgradient1">
<stop offset="0" stop-color="#2C2C2C" stop-opacity="1"/>
<stop offset="0.5" stop-color="#FFFFFF" stop-opacity="1"/>
<stop offset="1" stop-color="#2C2C2C" stop-opacity="1"/>
</linearGradient>
<linearGradient x1="0.000000%" y1="50.000000%" x2="100.000000%" y2="50.000000%" id="lgradient2">
<stop offset="0" stop-color="#2C2C2C" stop-opacity="1"/>
<stop offset="0.5" stop-color="#FFFFFF" stop-opacity="1"/>
<stop offset="1" stop-color="#2C2C2C" stop-opacity="1"/>
</linearGradient>
<linearGradient x1="50.000000%" y1="0.000000%" x2="50.000000%" y2="100.000000%" id="lgradient77">
<stop offset="0" stop-color="#2C2C2C" stop-opacity="1"/>
<stop offset="0.5" stop-color="#FFFFFF" stop-opacity="1"/>
<stop offset="1" stop-color="#2C2C2C" stop-opacity="1"/>
</linearGradient>
<linearGradient x1="0.000000%" y1="50.000000%" x2="100.000000%" y2="50.000000%" id="lgradient78">
<stop offset="0" stop-color="#2C2C2C" stop-opacity="1"/>
<stop offset="0.5" stop-color="#FFFFFF" stop-opacity="1"/>
<stop offset="1" stop-color="#2C2C2C" stop-opacity="1"/>
</linearGradient>
<linearGradient x1="0.000000%" y1="50.000000%" x2="100.000000%" y2="50.000000%" id="lgradient79">
<stop offset="0" stop-color="#2C2C2C" stop-opacity="1"/>
<stop offset="0.5" stop-color="#FFFFFF" stop-opacity="1"/>
<stop offset="1" stop-color="#2C2C2C" stop-opacity="1"/>
</linearGradient>
<linearGradient x1="0.000000%" y1="50.000000%" x2="100.000000%" y2="50.000000%" id="lgradient80">
<stop offset="0" stop-color="#2C2C2C" stop-opacity="1"/>
<stop offset="0.5" stop-color="#FFFFFF" stop-opacity="1"/>
<stop offset="1" stop-color="#2C2C2C" stop-opacity="1"/>
</linearGradient>
<radialGradient cx="50.000000%" cy="50.000000%" r="50.000000%" fx="50.000000%" fy="50.000000%" id="rgradient83_2_1">
<stop offset="0%" stop-color="#FFFFFF" stop-opacity="1"/>
<stop offset="100%" stop-color="#2C2C2C" stop-opacity="1"/>
</radialGradient>
<radialGradient cx="50.000000%" cy="50.000000%" r="50.000000%" fx="50.000000%" fy="50.000000%" id="rgradient84_2_1">
<stop offset="0%" stop-color="#FFFFFF" stop-opacity="1"/>
<stop offset="100%" stop-color="#2C2C2C" stop-opacity="1"/>
</radialGradient>
<radialGradient cx="50.000000%" cy="50.000000%" r="50.000000%" fx="50.000000%" fy="50.000000%" id="rgradient85_2_1">
<stop offset="0%" stop-color="#FFFFFF" stop-opacity="1"/>
<stop offset="100%" stop-color="#2C2C2C" stop-opacity="1"/>
</radialGradient>
<radialGradient cx="50.000000%" cy="50.000000%" r="50.000000%" fx="50.000000%" fy="50.000000%" id="rgradient86_2_1">
<stop offset="0%" stop-color="#FFFFFF" stop-opacity="1"/>
<stop offset="100%" stop-color="#2C2C2C" stop-opacity="1"/>
</radialGradient>
<linearGradient x1="0.000000%" y1="50.000000%" x2="100.000000%" y2="50.000000%" id="lgradient116">
<stop offset="0" stop-color="#2C2C2C" stop-opacity="1"/>
<stop offset="0.5" stop-color="#FFFFFF" stop-opacity="1"/>
<stop offset="1" stop-color="#2C2C2C" stop-opacity="1"/>
</linearGradient>
</defs>
<rect shape-type="rectangle" x="723" y="497" width="49" height="51" fill="url(#lgradient1)" stroke="#C0C0C0" stroke-width="2.00"/>
<rect shape-type="rectangle" x="389" y="99" width="49" height="51" fill="url(#lgradient2)" stroke="#C0C0C0" stroke-width="2.00"/>
<rect shape-type="rectangle" x="4" y="2" width="1054" height="47" fill="#9C9A9C" stroke="#C0C0C0" stroke-width="1.00"/>
<rect shape-type="rectangle" x="347" y="8" width="472" height="36" fill="#E7E3E7" stroke="#E7E3E7" stroke-width="1.00"/>
<rect shape-type="rectangle" x="12" y="8" width="72" height="33" fill="#E7E3E7" stroke="#E7E3E7" stroke-width="1.00"/>
<text font-family="宋体" text-anchor="start" fill="#000000" shape-type="text" id="" font-size="12.500000" font-weight="bold" x="32" y="30">M406</text>
<text font-family="宋体" text-anchor="start" fill="#000000" shape-type="text" id="" font-size="26.000000" font-weight="bold" x="527" y="36">C403</text>
<line shape-type="limitline" x1="206" y1="121" x2="73" y2="121" fill="#E700FF" stroke="#E700FF" stroke-width="3.00"/>
<line shape-type="limitline" x1="205" y1="165" x2="205" y2="121" fill="#E700FF" stroke="#E700FF" stroke-width="3.00"/>
<line shape-type="limitline" x1="155" y1="213" x2="92" y2="213" fill="#E700FF" stroke="#E700FF" stroke-width="3.00"/>
<line shape-type="limitline" x1="153" y1="246" x2="92" y2="246" fill="#E700FF" stroke="#E700FF" stroke-width="3.00"/>
<line shape-type="limitline" x1="158" y1="280" x2="93" y2="280" fill="#00FFFF" stroke="#00FFFF" stroke-width="3.00"/>
<line shape-type="limitline" x1="155" y1="380" x2="93" y2="380" fill="#E700FF" stroke="#E700FF" stroke-width="3.00"/>
<line shape-type="limitline" x1="158" y1="414" x2="90" y2="414" fill="#E700FF" stroke="#E700FF" stroke-width="3.00"/>
<line shape-type="limitline" x1="155" y1="448" x2="92" y2="448" fill="#00FFFF" stroke="#00FFFF" stroke-width="3.00"/>
<line shape-type="limitline" x1="157" y1="480" x2="94" y2="480" fill="#00FFFF" stroke="#00FFFF" stroke-width="3.00"/>
<line shape-type="limitline" x1="157" y1="588" x2="66" y2="588" fill="#E700FF" stroke="#E700FF" stroke-width="3.00"/>
<line shape-type="limitline" x1="154" y1="644" x2="80" y2="644" fill="#E700FF" stroke="#E700FF" stroke-width="3.00"/>
<line shape-type="limitline" x1="205" y1="719" x2="205" y2="665" fill="#E700FF" stroke="#E700FF" stroke-width="3.00"/>
<line shape-type="limitline" x1="565" y1="721" x2="204" y2="721" fill="#E700FF" stroke="#E700FF" stroke-width="3.00"/>
<line shape-type="limitline" x1="563" y1="720" x2="563" y2="640" fill="#E700FF" stroke="#E700FF" stroke-width="3.00"/>
<line shape-type="limitline" x1="465" y1="719" x2="465" y2="637" fill="#E700FF" stroke="#E700FF" stroke-width="3.00"/>
<line shape-type="limitline" x1="474" y1="619" x2="474" y2="584" fill="#E700FF" stroke="#E700FF" stroke-width="3.00"/>
<line shape-type="limitline" x1="572" y1="585" x2="476" y2="585" fill="#E700FF" stroke="#E700FF" stroke-width="3.00"/>
<line shape-type="limitline" x1="574" y1="620" x2="574" y2="531" fill="#E700FF" stroke="#E700FF" stroke-width="3.00"/>
<line shape-type="limitline" x1="722" y1="531" x2="571" y2="531" fill="#E700FF" stroke="#E700FF" stroke-width="3.00"/>
<line shape-type="limitline" x1="747" y1="718" x2="747" y2="536" fill="#E700FF" stroke="#E700FF" stroke-width="3.00"/>
<line shape-type="limitline" x1="993" y1="721" x2="748" y2="721" fill="#E700FF" stroke="#E700FF" stroke-width="3.00"/>
<line shape-type="limitline" x1="809" y1="540" x2="809" y2="252" fill="#E700FF" stroke="#E700FF" stroke-width="3.00"/>
<line shape-type="limitline" x1="910" y1="542" x2="808" y2="542" fill="#E700FF" stroke="#E700FF" stroke-width="3.00"/>
<line shape-type="limitline" x1="909" y1="541" x2="909" y2="509" fill="#E700FF" stroke="#E700FF" stroke-width="3.00"/>
<line shape-type="limitline" x1="703" y1="504" x2="703" y2="208" fill="#E700FF" stroke="#E700FF" stroke-width="3.00"/>
<line shape-type="limitline" x1="724" y1="504" x2="703" y2="504" fill="#E700FF" stroke="#E700FF" stroke-width="3.00"/>
<line shape-type="limitline" x1="993" y1="208" x2="704" y2="208" fill="#E700FF" stroke="#E700FF" stroke-width="3.00"/>
<line shape-type="limitline" x1="993" y1="248" x2="748" y2="248" fill="#E700FF" stroke="#E700FF" stroke-width="3.00"/>
<line shape-type="limitline" x1="747" y1="507" x2="747" y2="248" fill="#E700FF" stroke="#E700FF" stroke-width="3.00"/>
<line shape-type="limitline" x1="995" y1="285" x2="810" y2="285" fill="#E700FF" stroke="#E700FF" stroke-width="3.00"/>
<line shape-type="limitline" x1="547" y1="141" x2="442" y2="141" fill="#E700FF" stroke="#E700FF" stroke-width="3.00"/>
<line shape-type="limitline" x1="547" y1="163" x2="547" y2="141" fill="#E700FF" stroke="#E700FF" stroke-width="3.00"/>
<line shape-type="limitline" x1="992" y1="170" x2="413" y2="170" fill="#E700FF" stroke="#E700FF" stroke-width="3.00"/>
<line shape-type="limitline" x1="414" y1="171" x2="414" y2="140" fill="#E700FF" stroke="#E700FF" stroke-width="3.00"/>
<line shape-type="limitline" x1="414" y1="106" x2="414" y2="73" fill="#E700FF" stroke="#E700FF" stroke-width="3.00"/>
<line shape-type="limitline" x1="992" y1="73" x2="415" y2="73" fill="#E700FF" stroke="#E700FF" stroke-width="3.00"/>
<line shape-type="limitline" x1="993" y1="107" x2="443" y2="107" fill="#E700FF" stroke="#E700FF" stroke-width="3.00"/>
<line shape-type="limitline" x1="548" y1="497" x2="548" y2="174" fill="#E700FF" stroke="#E700FF" stroke-width="3.00"/>
<line shape-type="limitline" x1="548" y1="494" x2="469" y2="494" fill="#E700FF" stroke="#E700FF" stroke-width="3.00"/>
<line shape-type="limitline" x1="448" y1="505" x2="369" y2="505" fill="#E700FF" stroke="#E700FF" stroke-width="3.00"/>
<line shape-type="limitline" x1="370" y1="504" x2="370" y2="426" fill="#E700FF" stroke="#E700FF" stroke-width="3.00"/>
<line shape-type="limitline" x1="221" y1="425" x2="221" y2="398" fill="#00FFFF" stroke="#FFFF00" stroke-width="3.00"/>
<line shape-type="limitline" x1="456" y1="426" x2="219" y2="426" fill="#E700FF" stroke="#E700FF" stroke-width="3.00"/>
<line shape-type="limitline" x1="546" y1="415" x2="466" y2="415" fill="#E700FF" stroke="#E700FF" stroke-width="3.00"/>
<line shape-type="limitline" x1="548" y1="285" x2="260" y2="285" fill="#E700FF" stroke="#E700FF" stroke-width="3.00"/>
<line shape-type="limitline" x1="996" y1="392" x2="958" y2="392" fill="#E700FF" stroke="#E700FF" stroke-width="3.00"/>
<line shape-type="limitline" x1="958" y1="458" x2="958" y2="392" fill="#E700FF" stroke="#E700FF" stroke-width="3.00"/>
<line shape-type="limitline" x1="1019" y1="430" x2="982" y2="430" fill="#E700FF" stroke="#E700FF" stroke-width="3.00"/>
<line shape-type="limitline" x1="981" y1="542" x2="981" y2="429" fill="#E700FF" stroke="#E700FF" stroke-width="3.00"/>
<line shape-type="limitline" x1="1022" y1="543" x2="981" y2="543" fill="#E700FF" stroke="#E700FF" stroke-width="3.00"/>
<g shape-type="group">
<line shape-type="line" x1="403" y1="117" x2="414" y2="107" fill="#E700FF" stroke="#E700FF" stroke-width="3.00"/>
<line shape-type="line" x1="422" y1="120" x2="403" y2="117" fill="#E700FF" stroke="#E700FF" stroke-width="3.00"/>
<line shape-type="line" x1="420" y1="133" x2="405" y2="126" fill="#E700FF" stroke="#E700FF" stroke-width="3.00"/>
<line shape-type="line" x1="405" y1="126" x2="422" y2="120" fill="#E700FF" stroke="#E700FF" stroke-width="3.00"/>
<line shape-type="line" x1="413" y1="141" x2="420" y2="133" fill="#E700FF" stroke="#E700FF" stroke-width="3.00"/>
</g>
<g shape-type="group">
<line shape-type="line" x1="736" y1="516" x2="747" y2="506" fill="#E700FF" stroke="#E700FF" stroke-width="3.00"/>
<line shape-type="line" x1="755" y1="519" x2="736" y2="516" fill="#E700FF" stroke="#E700FF" stroke-width="3.00"/>
<line shape-type="line" x1="753" y1="532" x2="739" y2="525" fill="#E700FF" stroke="#E700FF" stroke-width="3.00"/>
<line shape-type="line" x1="739" y1="525" x2="755" y2="519" fill="#E700FF" stroke="#E700FF" stroke-width="3.00"/>
<line shape-type="line" x1="746" y1="540" x2="753" y2="532" fill="#E700FF" stroke="#E700FF" stroke-width="3.00"/>
</g>
<line shape-type="limitline" x1="90" y1="122" x2="90" y2="101" fill="#00FFFF" stroke="#FFFFFF" stroke-width="3.00" stroke-dasharray="5 10"/>
<line shape-type="limitline" x1="185" y1="119" x2="185" y2="88" fill="#00FFFF" stroke="#FFFFFF" stroke-width="3.00" stroke-dasharray="5 10"/>
<line shape-type="limitline" x1="204" y1="152" x2="106" y2="152" fill="#00FFFF" stroke="#FFFFFF" stroke-width="3.00" stroke-dasharray="5 10"/>
<line shape-type="limitline" x1="105" y1="321" x2="105" y2="151" fill="#00FFFF" stroke="#FFFFFF" stroke-width="3.00" stroke-dasharray="5 10"/>
<line shape-type="limitline" x1="105" y1="530" x2="105" y2="347" fill="#00FFFF" stroke="#FFFFFF" stroke-width="3.00" stroke-dasharray="5 10"/>
<line shape-type="limitline" x1="156" y1="530" x2="105" y2="530" fill="#00FFFF" stroke="#FFFFFF" stroke-width="3.00" stroke-dasharray="5 10"/>
<line shape-type="limitline" x1="126" y1="588" x2="126" y2="567" fill="#00FFFF" stroke="#FFFFFF" stroke-width="3.00" stroke-dasharray="5 10"/>
<line shape-type="limitline" x1="89" y1="606" x2="89" y2="588" fill="#00FFFF" stroke="#FFFFFF" stroke-width="3.00" stroke-dasharray="5 10"/>
<line shape-type="limitline" x1="988" y1="578" x2="366" y2="578" fill="#00FFFF" stroke="#FFFFFF" stroke-width="3.00" stroke-dasharray="5 10"/>
<line shape-type="limitline" x1="314" y1="450" x2="314" y2="425" fill="#00FFFF" stroke="#FFFFFF" stroke-width="3.00" stroke-dasharray="5 10"/>
<line shape-type="limitline" x1="450" y1="362" x2="365" y2="362" fill="#00FFFF" stroke="#FFFFFF" stroke-width="3.00" stroke-dasharray="5 10"/>
<line shape-type="limitline" x1="449" y1="362" x2="449" y2="245" fill="#00FFFF" stroke="#FFFFFF" stroke-width="3.00" stroke-dasharray="5 10"/>
<line shape-type="limitline" x1="527" y1="246" x2="450" y2="246" fill="#00FFFF" stroke="#FFFFFF" stroke-width="3.00" stroke-dasharray="5 10"/>
<line shape-type="limitline" x1="570" y1="202" x2="549" y2="202" fill="#00FFFF" stroke="#FFFFFF" stroke-width="3.00" stroke-dasharray="5 10"/>
<line shape-type="limitline" x1="606" y1="129" x2="606" y2="106" fill="#00FFFF" stroke="#FFFFFF" stroke-width="3.00" stroke-dasharray="5 10"/>
<line shape-type="limitline" x1="838" y1="419" x2="810" y2="419" fill="#00FFFF" stroke="#FFFFFF" stroke-width="3.00" stroke-dasharray="5 10"/>
<line shape-type="limitline" x1="704" y1="419" x2="674" y2="419" fill="#00FFFF" stroke="#FFFFFF" stroke-width="3.00" stroke-dasharray="5 10"/>
<rect shape-type="roundRectangle" rx="20" ry="20" x="871" y="457" width="121" height="54" fill="url(#lgradient77)" stroke="#C0C0C0" stroke-width="2.00"/>
<rect shape-type="roundRectangle" rx="20" ry="20" x="620" y="503" width="24" height="54" fill="url(#lgradient78)" stroke="#C0C0C0" stroke-width="2.00"/>
<rect shape-type="rectangle" x="616" y="510" width="33" height="7" fill="url(#lgradient79)" stroke="#C0C0C0" stroke-width="2.00"/>
<rect shape-type="rectangle" x="616" y="501" width="33" height="7" fill="url(#lgradient80)" stroke="#C0C0C0" stroke-width="2.00"/>
<polygon shape-type="trapezium" points="448,145 448,134 436,139 436,139 448,145" fill="#E700FF" stroke="#E700FF" stroke-width="2.00"/>
<g shape-type="group">
<path shape-type="chord" d="M 536,235 A 20,13 0 1,0 536,257 z" fill="#C0C0C0" stroke="#C0C0C0" stroke-width="2.00"/>
<g shape-type="group">
<polygon shape-type="trapezium" points="551,257 541,257 546,246 546,246 551,257" fill="#C0C0C0" stroke="#C0C0C0" stroke-width="1.00"/>
<polygon shape-type="trapezium" points="551,235 541,235 546,246 546,246 551,235" fill="#C0C0C0" stroke="#C0C0C0" stroke-width="1.00"/>
</g>
<line shape-type="limitline" x1="534" y1="247" x2="543" y2="248" fill="#00FFFF" stroke="#C0C0C0" stroke-width="1.00"/>
<polygon shape-type="trapezium" points="538,250 538,243 547,246 547,246 538,250" fill="#C0C0C0" stroke="#C0C0C0" stroke-width="1.00"/>
</g>
<g shape-type="group">
<rect shape-type="rectangle" x="451" y="650" width="6" height="6" fill="#808080" stroke="#FFFFFF" stroke-width="2.00"/>
<rect shape-type="rectangle" x="470" y="650" width="6" height="6" fill="#808080" stroke="#FFFFFF" stroke-width="2.00"/>
<g shape-type="group">
<rect shape-type="rectangle" x="471" y="620" width="5" height="21" fill="#808080" stroke="#000000" stroke-width="1.00"/>
<ellipse shape-type="ellipse" cx="465" cy="639" rx="16" ry="16" fill="url(#rgradient83_2_1)" stroke="#000000" stroke-width="1.00"/>
</g>
</g>
<g shape-type="group">
<rect shape-type="rectangle" x="552" y="650" width="6" height="6" fill="#808080" stroke="#FFFFFF" stroke-width="2.00"/>
<rect shape-type="rectangle" x="571" y="650" width="6" height="6" fill="#808080" stroke="#FFFFFF" stroke-width="2.00"/>
<g shape-type="group">
<rect shape-type="rectangle" x="572" y="620" width="5" height="21" fill="#808080" stroke="#000000" stroke-width="1.00"/>
<ellipse shape-type="ellipse" cx="565" cy="639" rx="16" ry="16" fill="url(#rgradient84_2_1)" stroke="#000000" stroke-width="1.00"/>
</g>
</g>
<g shape-type="group">
<rect shape-type="rectangle" x="440" y="435" width="6" height="7" fill="#808080" stroke="#FFFFFF" stroke-width="2.00"/>
<rect shape-type="rectangle" x="458" y="435" width="7" height="7" fill="#808080" stroke="#FFFFFF" stroke-width="2.00"/>
<g shape-type="group">
<rect shape-type="rectangle" x="451" y="411" width="20" height="6" fill="#808080" stroke="#000000" stroke-width="1.00"/>
<ellipse shape-type="ellipse" cx="453" cy="423" rx="15" ry="16" fill="url(#rgradient85_2_1)" stroke="#000000" stroke-width="1.00"/>
</g>
</g>
<g shape-type="group">
<rect shape-type="rectangle" x="438" y="517" width="6" height="7" fill="#808080" stroke="#FFFFFF" stroke-width="2.00"/>
<rect shape-type="rectangle" x="456" y="517" width="7" height="7" fill="#808080" stroke="#FFFFFF" stroke-width="2.00"/>
<g shape-type="group">
<rect shape-type="rectangle" x="449" y="493" width="20" height="5" fill="#808080" stroke="#000000" stroke-width="1.00"/>
<ellipse shape-type="ellipse" cx="451" cy="505" rx="15" ry="16" fill="url(#rgradient86_2_1)" stroke="#000000" stroke-width="1.00"/>
</g>
</g>
<g shape-type="group">
<path shape-type="chord" d="M 871,297 A 13,22 0 0,0 893,297 z" fill="#C0C0C0" stroke="#C0C0C0" stroke-width="2.00"/>
<g shape-type="group">
<polygon shape-type="trapezium" points="893,289 893,279 881,284 881,284 893,289" fill="#C0C0C0" stroke="#C0C0C0" stroke-width="1.00"/>
<polygon shape-type="trapezium" points="871,289 871,279 881,284 881,284 871,289" fill="#C0C0C0" stroke="#C0C0C0" stroke-width="1.00"/>
</g>
<line shape-type="limitline" x1="882" y1="297" x2="881" y2="288" fill="#00FFFF" stroke="#C0C0C0" stroke-width="1.00"/>
<polygon shape-type="trapezium" points="878,294 885,294 881,284 881,284 878,294" fill="#C0C0C0" stroke="#C0C0C0" stroke-width="1.00"/>
</g>
<rect shape-type="rectangle" x="1020" y="419" width="26" height="24" fill="none" stroke="#E700FF" stroke-width="3.00"/>
<rect shape-type="rectangle" x="1022" y="531" width="26" height="24" fill="none" stroke="#E700FF" stroke-width="3.00"/>
<g shape-type="group">
<polygon shape-type="trapezium" points="65,130 65,111 49,120 49,120 65,130" fill="#808080" stroke="#808080" stroke-width="2.00"/>
<rect shape-type="rectangle" x="64" y="116" width="11" height="10" fill="#808080" stroke="#808080" stroke-width="2.00"/>
</g>
<g shape-type="group">
<polygon shape-type="trapezium" points="1002,83 1002,63 988,73 988,73 1002,83" fill="#808080" stroke="#808080" stroke-width="2.00"/>
<rect shape-type="rectangle" x="1001" y="68" width="12" height="10" fill="#808080" stroke="#808080" stroke-width="2.00"/>
</g>
<g shape-type="group">
<polygon shape-type="trapezium" points="82,221 82,203 98,212 98,212 82,221" fill="#808080" stroke="#808080" stroke-width="2.00"/>
<rect shape-type="rectangle" x="72" y="208" width="11" height="9" fill="#808080" stroke="#808080" stroke-width="2.00"/>
</g>
<g shape-type="group">
<polygon shape-type="trapezium" points="82,256 82,237 98,246 98,246 82,256" fill="#808080" stroke="#808080" stroke-width="2.00"/>
<rect shape-type="rectangle" x="72" y="242" width="11" height="10" fill="#808080" stroke="#808080" stroke-width="2.00"/>
</g>
<g shape-type="group">
<polygon shape-type="trapezium" points="82,289 82,270 98,279 98,279 82,289" fill="#808080" stroke="#808080" stroke-width="2.00"/>
<rect shape-type="rectangle" x="72" y="276" width="11" height="9" fill="#808080" stroke="#808080" stroke-width="2.00"/>
</g>
<g shape-type="group">
<polygon shape-type="trapezium" points="82,388 82,369 98,378 98,378 82,388" fill="#808080" stroke="#808080" stroke-width="2.00"/>
<rect shape-type="rectangle" x="72" y="375" width="11" height="9" fill="#808080" stroke="#808080" stroke-width="2.00"/>
</g>
<g shape-type="group">
<polygon shape-type="trapezium" points="82,422 82,404 98,413 98,413 82,422" fill="#808080" stroke="#808080" stroke-width="2.00"/>
<rect shape-type="rectangle" x="72" y="409" width="11" height="9" fill="#808080" stroke="#808080" stroke-width="2.00"/>
</g>
<g shape-type="group">
<polygon shape-type="trapezium" points="82,456 82,437 98,446 98,446 82,456" fill="#808080" stroke="#808080" stroke-width="2.00"/>
<rect shape-type="rectangle" x="72" y="442" width="11" height="10" fill="#808080" stroke="#808080" stroke-width="2.00"/>
</g>
<g shape-type="group">
<polygon shape-type="trapezium" points="81,489 81,470 97,479 97,479 81,489" fill="#808080" stroke="#808080" stroke-width="2.00"/>
<rect shape-type="rectangle" x="71" y="476" width="11" height="9" fill="#808080" stroke="#808080" stroke-width="2.00"/>
</g>
<g shape-type="group">
<polygon shape-type="trapezium" points="58,595 58,577 74,586 74,586 58,595" fill="#808080" stroke="#808080" stroke-width="2.00"/>
<rect shape-type="rectangle" x="48" y="582" width="11" height="9" fill="#808080" stroke="#808080" stroke-width="2.00"/>
</g>
<g shape-type="group">
<polygon shape-type="trapezium" points="68,655 68,636 83,645 83,645 68,655" fill="#808080" stroke="#808080" stroke-width="2.00"/>
<rect shape-type="rectangle" x="57" y="641" width="12" height="10" fill="#808080" stroke="#808080" stroke-width="2.00"/>
</g>
<g shape-type="group">
<polygon shape-type="trapezium" points="998,115 998,96 1014,105 1014,105 998,115" fill="#808080" stroke="#808080" stroke-width="2.00"/>
<rect shape-type="rectangle" x="988" y="102" width="11" height="9" fill="#808080" stroke="#808080" stroke-width="2.00"/>
</g>
<g shape-type="group">
<polygon shape-type="trapezium" points="999,179 999,160 1015,169 1015,169 999,179" fill="#808080" stroke="#808080" stroke-width="2.00"/>
<rect shape-type="rectangle" x="989" y="165" width="11" height="10" fill="#808080" stroke="#808080" stroke-width="2.00"/>
</g>
<g shape-type="group">
<polygon shape-type="trapezium" points="998,215 998,196 1014,205 1014,205 998,215" fill="#808080" stroke="#808080" stroke-width="2.00"/>
<rect shape-type="rectangle" x="988" y="202" width="11" height="9" fill="#808080" stroke="#808080" stroke-width="2.00"/>
</g>
<g shape-type="group">
<polygon shape-type="trapezium" points="999,255 999,236 1015,245 1015,245 999,255" fill="#808080" stroke="#808080" stroke-width="2.00"/>
<rect shape-type="rectangle" x="989" y="241" width="11" height="10" fill="#808080" stroke="#808080" stroke-width="2.00"/>
</g>
<g shape-type="group">
<polygon shape-type="trapezium" points="998,292 998,274 1014,283 1014,283 998,292" fill="#808080" stroke="#808080" stroke-width="2.00"/>
<rect shape-type="rectangle" x="988" y="279" width="11" height="9" fill="#808080" stroke="#808080" stroke-width="2.00"/>
</g>
<g shape-type="group">
<polygon shape-type="trapezium" points="997,731 997,712 1013,721 1013,721 997,731" fill="#808080" stroke="#808080" stroke-width="2.00"/>
<rect shape-type="rectangle" x="986" y="717" width="12" height="9" fill="#808080" stroke="#808080" stroke-width="2.00"/>
</g>
<polygon shape-type="trapezium" points="714,509 714,498 702,503 702,503 714,509" fill="#E700FF" stroke="#E700FF" stroke-width="2.00"/>
<polygon shape-type="trapezium" points="267,291 267,280 255,285 255,285 267,291" fill="#E700FF" stroke="#E700FF" stroke-width="2.00"/>
<polygon shape-type="trapezium" points="146,218 146,207 158,212 158,212 146,218" fill="#E700FF" stroke="#E700FF" stroke-width="2.00"/>
<polygon shape-type="trapezium" points="145,251 145,240 157,245 157,245 145,251" fill="#E700FF" stroke="#E700FF" stroke-width="2.00"/>
<polygon shape-type="trapezium" points="146,285 146,274 158,279 158,279 146,285" fill="#00FFFF" stroke="#00FFFF" stroke-width="2.00"/>
<polygon shape-type="trapezium" points="145,384 145,373 157,378 157,378 145,384" fill="#E700FF" stroke="#E700FF" stroke-width="2.00"/>
<polygon shape-type="trapezium" points="146,419 146,408 158,413 158,413 146,419" fill="#E700FF" stroke="#E700FF" stroke-width="2.00"/>
<polygon shape-type="trapezium" points="146,452 146,441 158,446 158,446 146,452" fill="#00FFFF" stroke="#00FFFF" stroke-width="2.00"/>
<polygon shape-type="trapezium" points="145,486 145,475 157,480 157,480 145,486" fill="#00FFFF" stroke="#00FFFF" stroke-width="2.00"/>
<rect shape-type="roundRectangle" rx="20" ry="20" x="155" y="166" width="100" height="507" fill="url(#lgradient116)" stroke="#C0C0C0" stroke-width="2.00"/>
<polygon shape-type="trapezium" points="145,593 145,582 157,587 157,587 145,593" fill="#E700FF" stroke="#E700FF" stroke-width="2.00"/>
<polygon shape-type="trapezium" points="145,649 145,638 157,643 157,643 145,649" fill="#E700FF" stroke="#E700FF" stroke-width="2.00"/>
<polygon shape-type="trapezium" points="357,430 357,419 369,424 369,424 357,430" fill="#E700FF" stroke="#E700FF" stroke-width="2.00"/>
<polygon shape-type="trapezium" points="452,725 452,714 464,719 464,719 452,725" fill="#E700FF" stroke="#E700FF" stroke-width="2.00"/>
<polygon shape-type="trapezium" points="711,536 711,525 723,530 723,530 711,536" fill="#E700FF" stroke="#E700FF" stroke-width="2.00"/>
<polygon shape-type="trapezium" points="697,218 707,218 702,208 702,208 697,218" fill="#E700FF" stroke="#E700FF" stroke-width="2.00"/>
<polygon shape-type="trapezium" points="803,258 813,258 808,248 808,248 803,258" fill="#E700FF" stroke="#E700FF" stroke-width="2.00"/>
<polygon shape-type="trapezium" points="975,442 985,442 980,432 980,432 975,442" fill="#E700FF" stroke="#E700FF" stroke-width="2.00"/>
<polygon shape-type="trapezium" points="976,524 986,524 981,514 981,514 976,524" fill="#E700FF" stroke="#E700FF" stroke-width="2.00"/>
<polygon shape-type="trapezium" points="568,542 578,542 573,532 573,532 568,542" fill="#E700FF" stroke="#E700FF" stroke-width="2.00"/>
<polygon shape-type="trapezium" points="742,482 752,482 747,492 747,492 742,482" fill="#E700FF" stroke="#E700FF" stroke-width="2.00"/>
<polygon shape-type="trapezium" points="904,530 914,530 909,540 909,540 904,530" fill="#E700FF" stroke="#E700FF" stroke-width="2.00"/>
<polygon shape-type="trapezium" points="199,709 209,709 204,719 204,719 199,709" fill="#E700FF" stroke="#E700FF" stroke-width="2.00"/>
<polygon shape-type="trapezium" points="979,583 979,572 991,577 991,577 979,583" fill="#00FFFF" stroke="#00FFFF" stroke-width="2.00"/>
<rect shape-type="rectangle" x="578" y="405" width="60" height="26" fill="#4A494A" stroke="#C0C0C0" stroke-width="3.00"/>
<rect shape-type="rectangle" x="638" y="405" width="37" height="26" fill="#4A494A" stroke="#C0C0C0" stroke-width="3.00"/>
<text font-family="宋体" text-anchor="start" fill="#00FF42" shape-type="text" id="" font-size="9.500000" font-weight="bold" x="641" y="421">DEG_C</text>
<rect shape-type="rectangle" x="147" y="65" width="60" height="26" fill="#4A494A" stroke="#C0C0C0" stroke-width="3.00"/>
<rect shape-type="rectangle" x="207" y="65" width="37" height="26" fill="#4A494A" stroke="#C0C0C0" stroke-width="3.00"/>
<text font-family="宋体" text-anchor="start" fill="#00FF42" shape-type="text" id="" font-size="9.500000" font-weight="bold" x="210" y="81">DEG_C</text>
<rect shape-type="rectangle" x="297" y="66" width="60" height="26" fill="#4A494A" stroke="#C0C0C0" stroke-width="3.00"/>
<rect shape-type="rectangle" x="357" y="66" width="37" height="26" fill="#4A494A" stroke="#C0C0C0" stroke-width="3.00"/>
<text font-family="宋体" text-anchor="start" fill="#00FF42" shape-type="text" id="" font-size="9.500000" font-weight="bold" x="360" y="82">DEG_C</text>
<rect shape-type="rectangle" x="295" y="158" width="60" height="26" fill="#4A494A" stroke="#C0C0C0" stroke-width="3.00"/>
<rect shape-type="rectangle" x="355" y="158" width="37" height="26" fill="#4A494A" stroke="#C0C0C0" stroke-width="3.00"/>
<text font-family="宋体" text-anchor="start" fill="#00FF42" shape-type="text" id="" font-size="9.500000" font-weight="bold" x="358" y="174">DEG_C</text>
<rect shape-type="rectangle" x="569" y="128" width="60" height="26" fill="#4A494A" stroke="#C0C0C0" stroke-width="3.00"/>
<rect shape-type="rectangle" x="629" y="128" width="37" height="26" fill="#4A494A" stroke="#C0C0C0" stroke-width="3.00"/>
<text font-family="宋体" text-anchor="start" fill="#00FF42" shape-type="text" id="" font-size="9.500000" font-weight="bold" x="632" y="144">DEG_C</text>
<rect shape-type="rectangle" x="567" y="190" width="60" height="26" fill="#4A494A" stroke="#C0C0C0" stroke-width="3.00"/>
<rect shape-type="rectangle" x="628" y="190" width="37" height="26" fill="#4A494A" stroke="#C0C0C0" stroke-width="3.00"/>
<text font-family="宋体" text-anchor="start" fill="#00FF42" shape-type="text" id="" font-size="9.500000" font-weight="bold" x="631" y="206">DEG_C</text>
<rect shape-type="rectangle" x="45" y="604" width="60" height="26" fill="#4A494A" stroke="#C0C0C0" stroke-width="3.00"/>
<rect shape-type="rectangle" x="105" y="604" width="37" height="26" fill="#4A494A" stroke="#C0C0C0" stroke-width="3.00"/>
<text font-family="宋体" text-anchor="start" fill="#00FF42" shape-type="text" id="" font-size="9.500000" font-weight="bold" x="108" y="620">DEG_C</text>
<rect shape-type="rectangle" x="836" y="405" width="60" height="26" fill="#4A494A" stroke="#C0C0C0" stroke-width="3.00"/>
<rect shape-type="rectangle" x="896" y="405" width="37" height="26" fill="#4A494A" stroke="#C0C0C0" stroke-width="3.00"/>
<text font-family="宋体" text-anchor="start" fill="#00FF42" shape-type="text" id="" font-size="9.500000" font-weight="bold" x="899" y="421">DEG_C</text>
<rect shape-type="rectangle" x="265" y="450" width="60" height="26" fill="#4A494A" stroke="#C0C0C0" stroke-width="3.00"/>
<rect shape-type="rectangle" x="325" y="450" width="37" height="26" fill="#4A494A" stroke="#C0C0C0" stroke-width="3.00"/>
<text font-family="宋体" text-anchor="start" fill="#00FF42" shape-type="text" id="" font-size="9.500000" font-weight="bold" x="328" y="466">DEG_C</text>
<rect shape-type="rectangle" x="250" y="686" width="60" height="26" fill="#4A494A" stroke="#C0C0C0" stroke-width="3.00"/>
<rect shape-type="rectangle" x="310" y="686" width="37" height="26" fill="#4A494A" stroke="#C0C0C0" stroke-width="3.00"/>
<text font-family="宋体" text-anchor="start" fill="#00FF42" shape-type="text" id="" font-size="9.500000" font-weight="bold" x="313" y="702">DEG_C</text>
<rect shape-type="rectangle" x="51" y="543" width="60" height="26" fill="#4A494A" stroke="#C0C0C0" stroke-width="3.00"/>
<rect shape-type="rectangle" x="111" y="543" width="37" height="26" fill="#4A494A" stroke="#C0C0C0" stroke-width="3.00"/>
<text font-family="宋体" text-anchor="start" fill="#00FF42" shape-type="text" id="" font-size="9.500000" font-weight="bold" x="114" y="559">DEG_C</text>
<rect shape-type="rectangle" x="767" y="686" width="60" height="26" fill="#4A494A" stroke="#C0C0C0" stroke-width="3.00"/>
<rect shape-type="rectangle" x="827" y="686" width="37" height="26" fill="#4A494A" stroke="#C0C0C0" stroke-width="3.00"/>
<text font-family="宋体" text-anchor="start" fill="#00FF42" shape-type="text" id="" font-size="9.500000" font-weight="bold" x="830" y="702">DEG_C</text>
<g shape-type="group">
<polygon shape-type="trapezium" points="1001,400 1001,382 985,391 985,391 1001,400" fill="#808080" stroke="#808080" stroke-width="2.00"/>
<rect shape-type="rectangle" x="1000" y="387" width="11" height="9" fill="#808080" stroke="#808080" stroke-width="2.00"/>
</g>
<rect shape-type="rectangle" x="268" y="336" width="98" height="24" fill="#7B7D7B" stroke="#C0C0C0" stroke-width="3.00"/>
<rect shape-type="rectangle" x="268" y="361" width="61" height="25" fill="#4A494A" stroke="#C0C0C0" stroke-width="3.00"/>
<text font-family="宋体" text-anchor="start" fill="#FFFFFF" shape-type="text" id="" font-size="11.000000" font-weight="bold" x="289" y="352">LC24017</text>
<rect shape-type="rectangle" x="328" y="361" width="38" height="25" fill="#4A494A" stroke="#C0C0C0" stroke-width="3.00"/>
<text font-family="宋体" text-anchor="start" fill="#00FF42" shape-type="text" id="" font-size="9.500000" font-weight="bold" x="344" y="377">%</text>
<rect shape-type="rectangle" x="267" y="553" width="98" height="24" fill="#7B7D7B" stroke="#C0C0C0" stroke-width="3.00"/>
<rect shape-type="rectangle" x="267" y="578" width="61" height="25" fill="#4A494A" stroke="#C0C0C0" stroke-width="3.00"/>
<text font-family="宋体" text-anchor="start" fill="#FFFFFF" shape-type="text" id="" font-size="11.000000" font-weight="bold" x="285" y="568">LC24015</text>
<rect shape-type="rectangle" x="327" y="578" width="38" height="25" fill="#4A494A" stroke="#C0C0C0" stroke-width="3.00"/>
<text font-family="宋体" text-anchor="start" fill="#00FF42" shape-type="text" id="" font-size="9.500000" font-weight="bold" x="343" y="594">%</text>
<rect shape-type="rectangle" x="33" y="53" width="98" height="24" fill="#7B7D7B" stroke="#C0C0C0" stroke-width="3.00"/>
<rect shape-type="rectangle" x="33" y="78" width="56" height="25" fill="#4A494A" stroke="#C0C0C0" stroke-width="3.00"/>
<text font-family="宋体" text-anchor="start" fill="#FFFFFF" shape-type="text" id="" font-size="11.000000" font-weight="bold" x="54" y="69">PC24002</text>
<rect shape-type="rectangle" x="86" y="78" width="46" height="25" fill="#4A494A" stroke="#C0C0C0" stroke-width="3.00"/>
<text font-family="宋体" text-anchor="start" fill="#00FF42" shape-type="text" id="" font-size="9.500000" font-weight="bold" x="93" y="94">KPa(g)</text>
<rect shape-type="rectangle" x="377" y="395" width="58" height="22" fill="#7B7D7B" stroke="#C0C0C0" stroke-width="3.00"/>
<rect shape-type="rectangle" x="376" y="475" width="58" height="22" fill="#7B7D7B" stroke="#C0C0C0" stroke-width="3.00"/>
<rect shape-type="rectangle" x="406" y="595" width="58" height="22" fill="#7B7D7B" stroke="#C0C0C0" stroke-width="3.00"/>
<rect shape-type="rectangle" x="506" y="595" width="58" height="22" fill="#7B7D7B" stroke="#C0C0C0" stroke-width="3.00"/>
<text font-family="宋体" text-anchor="start" fill="#FFFFFF" shape-type="text" id="" font-size="11.000000" x="390" y="410">P402A</text>
<text font-family="宋体" text-anchor="start" fill="#FFFFFF" shape-type="text" id="" font-size="11.000000" x="389" y="490">P402B</text>
<text font-family="宋体" text-anchor="start" fill="#FFFFFF" shape-type="text" id="" font-size="11.000000" x="417" y="610">P403A</text>
<text font-family="宋体" text-anchor="start" fill="#FFFFFF" shape-type="text" id="" font-size="11.000000" x="519" y="610">P403B</text>
<text font-family="宋体" text-anchor="start" fill="#000000" shape-type="text" id="" font-size="12.500000" font-weight="bold" x="186" y="283">C403</text>
<text font-family="宋体" text-anchor="start" fill="#000000" shape-type="text" id="" font-size="12.500000" font-weight="bold" x="899" y="488">E411</text>
<text font-family="宋体" text-anchor="start" fill="#FFFFFF" shape-type="text" id="" font-size="12.500000" x="16" y="126">E401</text>
<text font-family="宋体" text-anchor="start" fill="#FFFFFF" shape-type="text" id="" font-size="12.500000" x="14" y="219">C402(A)</text>
<text font-family="宋体" text-anchor="start" fill="#FFFFFF" shape-type="text" id="" font-size="12.500000" x="14" y="251">C402(B)</text>
<text font-family="宋体" text-anchor="start" fill="#FFFFFF" shape-type="text" id="" font-size="12.500000" x="31" y="276">V405</text>
<text font-family="宋体" text-anchor="start" fill="#FFFFFF" shape-type="text" id="" font-size="12.500000" x="27" y="294">(H2S)</text>
<text font-family="宋体" text-anchor="start" fill="#FFFFFF" shape-type="text" id="" font-size="12.500000" x="16" y="385">C402(C)</text>
<text font-family="宋体" text-anchor="start" fill="#FFFFFF" shape-type="text" id="" font-size="12.500000" x="15" y="418">C402(D)</text>
<text font-family="宋体" text-anchor="start" fill="#FFFFFF" shape-type="text" id="" font-size="12.500000" x="35" y="452">V407</text>
<text font-family="宋体" text-anchor="start" fill="#FFFFFF" shape-type="text" id="" font-size="12.500000" x="34" y="486">P408</text>
<text font-family="宋体" text-anchor="start" fill="#FFFFFF" shape-type="text" id="" font-size="12.500000" x="14" y="592">E505</text>
<text font-family="宋体" text-anchor="start" fill="#FFFFFF" shape-type="text" id="" font-size="12.500000" x="16" y="652">V407</text>
<text font-family="宋体" text-anchor="start" fill="#FFFFFF" shape-type="text" id="" font-size="12.500000" font-weight="bold" x="351" y="125">E407</text>
<text font-family="宋体" text-anchor="start" fill="#FFFFFF" shape-type="text" id="" font-size="12.500000" font-weight="bold" x="615" y="494">S402</text>
<text font-family="宋体" text-anchor="start" fill="#FFFFFF" shape-type="text" id="" font-size="12.500000" font-weight="bold" x="756" y="567">E410</text>
<text font-family="宋体" text-anchor="start" fill="#FFFFFF" shape-type="text" id="" font-size="12.500000" x="1021" y="77">E418</text>
<text font-family="宋体" text-anchor="start" fill="#FFFFFF" shape-type="text" id="" font-size="12.500000" x="1018" y="111">E403</text>
<text font-family="宋体" text-anchor="start" fill="#FFFFFF" shape-type="text" id="" font-size="12.500000" x="1022" y="172">C401</text>
<text font-family="宋体" text-anchor="start" fill="#FFFFFF" shape-type="text" id="" font-size="12.500000" x="1019" y="212">E412</text>
<text font-family="宋体" text-anchor="start" fill="#FFFFFF" shape-type="text" id="" font-size="12.500000" x="1019" y="253">E401</text>
<text font-family="宋体" text-anchor="start" fill="#FFFFFF" shape-type="text" id="" font-size="12.500000" x="1018" y="289">T401</text>
<text font-family="宋体" text-anchor="start" fill="#FFFFFF" shape-type="text" id="" font-size="12.500000" x="1016" y="396">P404</text>
<text font-family="宋体" text-anchor="start" fill="#FFFFFF" shape-type="text" id="" font-size="12.500000" x="1000" y="596">LV24015</text>
<text font-family="宋体" text-anchor="start" fill="#FFFFFF" shape-type="text" id="" font-size="12.500000" x="1016" y="724">E418</text>
<rect shape-type="rectangle" x="0" y="746" width="1069" height="63" fill="#BDBABD" stroke="#BDBABD" stroke-width="1.00"/>
<g shape-type="group">
<rect shape-type="rectangle" x="997" y="758" width="48" height="43" fill="#C6C3C6" stroke="#C6C3C6" stroke-width="1.00"/>
<polygon shape-type="trapezium" points="1014,789 1014,770 1032,779 1032,779 1014,789" fill="#4A494A" stroke="#C6C3C6" stroke-width="2.00"/>
</g>
<g shape-type="group">
<rect shape-type="rectangle" x="13" y="758" width="47" height="40" fill="#C6C3C6" stroke="#C6C3C6" stroke-width="1.00"/>
<polygon shape-type="trapezium" points="41,786 41,767 22,776 22,776 41,786" fill="#4A494A" stroke="#C6C3C6" stroke-width="2.00"/>
</g>
<a xlink:href="M407.svg">
<g shape-type="button">
<rect fill="#C0C0C0" stroke-width="0.3" stroke="#FFFFFF" x="77" y="755" width="92" height="43" shape-type="buttonrect"/>
<text font-family="宋体" text-anchor="middle" dominant-baseline="middle" fill="#000000" font-size="13.500000" x="123" y="782" shape-type="buttontext">C404</text>
</g>
</a>
<a xlink:href="m408.svg">
<g shape-type="button">
<rect fill="#C0C0C0" stroke-width="0.3" stroke="#FFFFFF" x="183" y="755" width="92" height="43" shape-type="buttonrect"/>
<text font-family="宋体" text-anchor="middle" dominant-baseline="middle" fill="#000000" font-size="13.500000" x="229" y="782" shape-type="buttontext">V404</text>
</g>
</a>
<a xlink:href="M409.svg">
<g shape-type="button">
<rect fill="#C0C0C0" stroke-width="0.3" stroke="#FFFFFF" x="289" y="756" width="92" height="43" shape-type="buttonrect"/>
<text font-family="宋体" text-anchor="middle" dominant-baseline="middle" fill="#000000" font-size="13.500000" x="335" y="783" shape-type="buttontext">V406</text>
</g>
</a>
<a xlink:href="M410.svg">
<g shape-type="button">
<rect fill="#C0C0C0" stroke-width="0.3" stroke="#FFFFFF" x="396" y="755" width="92" height="43" shape-type="buttonrect"/>
<text font-family="宋体" text-anchor="middle" dominant-baseline="middle" fill="#000000" font-size="13.500000" x="442" y="782" shape-type="buttontext">C405</text>
</g>
</a>
<a xlink:href="m411.svg">
<g shape-type="button">
<rect fill="#C0C0C0" stroke-width="0.3" stroke="#FFFFFF" x="504" y="755" width="92" height="43" shape-type="buttonrect"/>
<text font-family="宋体" text-anchor="middle" dominant-baseline="middle" fill="#000000" font-size="13.500000" x="550" y="782" shape-type="buttontext">T401</text>
</g>
</a>
<a xlink:href="M3401.svg">
<g shape-type="button">
<rect fill="#C0C0C0" stroke-width="0.3" stroke="#FFFFFF" x="610" y="755" width="130" height="43" shape-type="buttonrect"/>
<text font-family="宋体" text-anchor="middle" dominant-baseline="middle" fill="#000000" font-size="10.500000" x="675" y="781" shape-type="buttontext">NEW CH3OH ABSORBER</text>
</g>
</a>
<rect shape-type="rectangle" x="51" y="320" width="53" height="26" fill="#4A494A" stroke="#C0C0C0" stroke-width="3.00"/>
<rect shape-type="rectangle" x="104" y="320" width="44" height="26" fill="#4A494A" stroke="#C0C0C0" stroke-width="3.00"/>
<text font-family="宋体" text-anchor="start" fill="#00FF42" shape-type="text" id="" font-size="9.500000" font-weight="bold" x="108" y="336">KPa(g)</text>
<text font-family="宋体" text-anchor="start" fill="#FFFFFF" shape-type="text" id="" font-size="12.500000" x="1026" y="435">CW</text>
<text font-family="宋体" text-anchor="start" fill="#FFFFFF" shape-type="text" id="" font-size="12.500000" x="1027" y="547">CW</text>
<text font-family="Arial" text-anchor="start" fill="#00FFFF" shape-type="realdata" id="HCAB_JH_PC24002" font-size="12.500000" x="39" y="93">XXXX</text>
<text font-family="Arial" text-anchor="start" fill="#00FFFF" shape-type="realdata" id="HCAB_JH_TI24032" font-size="12.500000" x="153" y="81">XXXX</text>
<text font-family="Arial" text-anchor="start" fill="#00FFFF" shape-type="realdata" id="HCAB_JH_PDI24008" font-size="12.500000" x="56" y="336">XXXX</text>
<text font-family="Arial" text-anchor="start" fill="#00FFFF" shape-type="realdata" id="HCAB_JH_LC24017" font-size="12.500000" x="274" y="378">XXXX</text>
<text font-family="Arial" text-anchor="start" fill="#00FFFF" shape-type="realdata" id="HCAB_JH_TI24058" font-size="12.500000" x="270" y="467">XXXX</text>
<text font-family="Arial" text-anchor="start" fill="#00FFFF" shape-type="realdata" id="HCAB_JH_TI24033" font-size="12.500000" x="55" y="560">XXXX</text>
<text font-family="Arial" text-anchor="start" fill="#00FFFF" shape-type="realdata" id="HCAB_JH_LC24015" font-size="12.500000" x="272" y="595">XXXX</text>
<text font-family="Arial" text-anchor="start" fill="#00FFFF" shape-type="realdata" id="HCAB_JH_TI24036" font-size="12.500000" x="584" y="422">XXXX</text>
<text font-family="Arial" text-anchor="start" fill="#00FFFF" shape-type="realdata" id="HCAB_JH_TI24023" font-size="12.500000" x="304" y="81">XXXX</text>
<text font-family="Arial" text-anchor="start" fill="#00FFFF" shape-type="realdata" id="HCAB_JH_TI24024" font-size="12.500000" x="302" y="173">XXXX</text>
<text font-family="Arial" text-anchor="start" fill="#00FFFF" shape-type="realdata" id="HCAB_JH_TI24026" font-size="12.500000" x="574" y="145">XXXX</text>
<text font-family="Arial" text-anchor="start" fill="#00FFFF" shape-type="realdata" id="HCAB_JH_TI24025" font-size="12.500000" x="574" y="206">XXXX</text>
<text font-family="Arial" text-anchor="start" fill="#00FFFF" shape-type="realdata" id="HCAB_JH_TI24037" font-size="12.500000" x="844" y="421">XXXX</text>
<text font-family="Arial" text-anchor="start" fill="#00FFFF" shape-type="realdata" id="HCAB_JH_TI24035" font-size="12.500000" x="773" y="702">XXXX</text>
<text font-family="Arial" text-anchor="start" fill="#00FFFF" shape-type="realdata" id="HCAB_JH_TI24031" font-size="12.500000" x="255" y="703">XXXX</text>
<text font-family="Arial" text-anchor="start" fill="#00FFFF" shape-type="realdata" id="HCAB_JH_TI24062" font-size="12.500000" x="50" y="620">XXXX</text>
<a xlink:href="400_ML.svg">
<g shape-type="button">
<rect fill="#C0C0C0" stroke-width="0.3" stroke="#FFFFFF" x="950" y="11" width="98" height="30" shape-type="buttonrect"/>
<text font-family="宋体" text-anchor="middle" dominant-baseline="middle" fill="#800000" font-size="13.500000" font-weight="bold" x="999" y="32" shape-type="buttontext">返回上一级</text>
</g>
</a>
</svg>
