<?xml version="1.0"?>
<?xml-stylesheet type='text/javascript'?>
<!--Draw SVG: 2019-11-25 09:41:23 47-Monday-->
<svg xmlns="http://www.w3.org/2000/svg" xmlns:xlink="http://www.w3.org/1999/xlink" version="1.1" style="background-color:#000000" width="1064" height="800" viewbox="0 0 1064 800">
<defs>
<radialGradient cx="50.000000%" cy="50.000000%" r="50.000000%" fx="50.000000%" fy="50.000000%" id="rgradient32_2_1">
<stop offset="0%" stop-color="#FFFFFF" stop-opacity="1"/>
<stop offset="100%" stop-color="#2C2C2C" stop-opacity="1"/>
</radialGradient>
<radialGradient cx="50.000000%" cy="50.000000%" r="50.000000%" fx="50.000000%" fy="50.000000%" id="rgradient33_2_1">
<stop offset="0%" stop-color="#FFFFFF" stop-opacity="1"/>
<stop offset="100%" stop-color="#2C2C2C" stop-opacity="1"/>
</radialGradient>
<linearGradient x1="50.000000%" y1="0.000000%" x2="50.000000%" y2="100.000000%" id="lgradient86">
<stop offset="0" stop-color="#2C2C2C" stop-opacity="1"/>
<stop offset="0.5" stop-color="#FFFFFF" stop-opacity="1"/>
<stop offset="1" stop-color="#2C2C2C" stop-opacity="1"/>
</linearGradient>
<radialGradient cx="50.000000%" cy="50.000000%" r="50.000000%" fx="50.000000%" fy="50.000000%" id="rgradient108_2_1">
<stop offset="0%" stop-color="#FFFFFF" stop-opacity="1"/>
<stop offset="100%" stop-color="#2C2C2C" stop-opacity="1"/>
</radialGradient>
</defs>
<rect shape-type="rectangle" x="2" y="3" width="1055" height="47" fill="#9C9A9C" stroke="#C0C0C0" stroke-width="1.00"/>
<rect shape-type="rectangle" x="11" y="9" width="70" height="31" fill="#E7E3E7" stroke="#E7E3E7" stroke-width="1.00"/>
<rect shape-type="rectangle" x="345" y="9" width="473" height="35" fill="#E7E3E7" stroke="#E7E3E7" stroke-width="1.00"/>
<text font-family="宋体" text-anchor="start" fill="#000000" shape-type="text" id="" font-size="12.500000" font-weight="bold" x="31" y="30">M409</text>
<text font-family="宋体" text-anchor="start" fill="#000000" shape-type="text" id="" font-size="26.000000" font-weight="bold" x="536" y="36">V406</text>
<line shape-type="limitline" x1="967" y1="73" x2="464" y2="73" fill="#E700FF" stroke="#E700FF" stroke-width="3.00"/>
<line shape-type="limitline" x1="464" y1="314" x2="464" y2="73" fill="#E700FF" stroke="#E700FF" stroke-width="3.00"/>
<line shape-type="limitline" x1="565" y1="315" x2="565" y2="150" fill="#E700FF" stroke="#E700FF" stroke-width="3.00"/>
<line shape-type="limitline" x1="972" y1="109" x2="468" y2="109" fill="#E700FF" stroke="#E700FF" stroke-width="3.00"/>
<line shape-type="limitline" x1="923" y1="147" x2="466" y2="147" fill="#E700FF" stroke="#E700FF" stroke-width="3.00"/>
<line shape-type="limitline" x1="944" y1="276" x2="570" y2="276" fill="#E700FF" stroke="#E700FF" stroke-width="3.00"/>
<line shape-type="limitline" x1="530" y1="466" x2="530" y2="384" fill="#E700FF" stroke="#E700FF" stroke-width="3.00"/>
<line shape-type="limitline" x1="529" y1="467" x2="389" y2="467" fill="#E700FF" stroke="#E700FF" stroke-width="3.00"/>
<line shape-type="limitline" x1="506" y1="467" x2="506" y2="682" fill="#E700FF" stroke="#E700FF" stroke-width="3.00"/>
<line shape-type="limitline" x1="507" y1="586" x2="388" y2="586" fill="#E700FF" stroke="#E700FF" stroke-width="3.00"/>
<line shape-type="limitline" x1="365" y1="457" x2="273" y2="457" fill="#E700FF" stroke="#E700FF" stroke-width="3.00"/>
<line shape-type="limitline" x1="271" y1="455" x2="271" y2="686" fill="#E700FF" stroke="#E700FF" stroke-width="3.00"/>
<line shape-type="limitline" x1="359" y1="575" x2="248" y2="575" fill="#E700FF" stroke="#E700FF" stroke-width="3.00"/>
<line shape-type="limitline" x1="240" y1="575" x2="65" y2="575" fill="#8400FF" stroke="#E700FF" stroke-width="3.00"/>
<g shape-type="group">
<line shape-type="limitline" x1="242" y1="580" x2="241" y2="570" fill="#E700FF" stroke="#E700FF" stroke-width="3.00"/>
<line shape-type="limitline" x1="248" y1="580" x2="247" y2="570" fill="#E700FF" stroke="#E700FF" stroke-width="3.00"/>
</g>
<line shape-type="limitline" x1="244" y1="423" x2="69" y2="423" fill="#00FFFF" stroke="#FFFFFF" stroke-width="3.00" stroke-dasharray="5 10"/>
<line shape-type="limitline" x1="245" y1="569" x2="245" y2="423" fill="#00FFFF" stroke="#FFFFFF" stroke-width="3.00" stroke-dasharray="5 10"/>
<line shape-type="limitline" x1="246" y1="500" x2="100" y2="500" fill="#00FFFF" stroke="#FFFFFF" stroke-width="3.00" stroke-dasharray="5 10"/>
<line shape-type="limitline" x1="97" y1="551" x2="97" y2="501" fill="#00FFFF" stroke="#FFFFFF" stroke-width="3.00" stroke-dasharray="5 10"/>
<line shape-type="limitline" x1="712" y1="185" x2="712" y2="169" fill="#00FFFF" stroke="#FFFFFF" stroke-width="3.00" stroke-dasharray="5 10"/>
<line shape-type="limitline" x1="663" y1="212" x2="565" y2="212" fill="#00FFFF" stroke="#FFFFFF" stroke-width="3.00" stroke-dasharray="5 10"/>
<line shape-type="limitline" x1="712" y1="254" x2="712" y2="235" fill="#00FFFF" stroke="#FFFFFF" stroke-width="3.00" stroke-dasharray="5 10"/>
<polygon shape-type="trapezium" points="230,427 230,418 217,422 217,422 230,427" fill="#C0C0C0" stroke="#C0C0C0" stroke-width="2.00"/>
<g shape-type="group">
<path shape-type="chord" d="M 110,565 A 15,23 0 0,0 86,565 z" fill="#C0C0C0" stroke="#C0C0C0" stroke-width="2.00"/>
<g shape-type="group">
<polygon shape-type="trapezium" points="85,571 85,583 97,577 97,577 85,571" fill="#C0C0C0" stroke="#C0C0C0" stroke-width="1.00"/>
<polygon shape-type="trapezium" points="109,571 109,583 97,577 97,577 109,571" fill="#C0C0C0" stroke="#C0C0C0" stroke-width="1.00"/>
</g>
<line shape-type="limitline" x1="98" y1="564" x2="97" y2="573" fill="#00FFFF" stroke="#C0C0C0" stroke-width="1.00"/>
<polygon shape-type="trapezium" points="102,568 93,568 98,578 98,578 102,568" fill="#C0C0C0" stroke="#C0C0C0" stroke-width="1.00"/>
</g>
<g shape-type="group">
<path shape-type="chord" d="M 725,264 A 14,23 0 0,0 701,264 z" fill="#C0C0C0" stroke="#C0C0C0" stroke-width="2.00"/>
<g shape-type="group">
<polygon shape-type="trapezium" points="700,270 700,282 711,276 711,276 700,270" fill="#C0C0C0" stroke="#C0C0C0" stroke-width="1.00"/>
<polygon shape-type="trapezium" points="724,270 724,282 711,276 711,276 724,270" fill="#C0C0C0" stroke="#C0C0C0" stroke-width="1.00"/>
</g>
<line shape-type="limitline" x1="713" y1="263" x2="711" y2="272" fill="#00FFFF" stroke="#C0C0C0" stroke-width="1.00"/>
<polygon shape-type="trapezium" points="717,267 707,267 712,277 712,277 717,267" fill="#C0C0C0" stroke="#C0C0C0" stroke-width="1.00"/>
</g>
<g shape-type="group">
<path shape-type="chord" d="M 701,160 A 14,23 0 0,0 725,160 z" fill="#C0C0C0" stroke="#C0C0C0" stroke-width="2.00"/>
<g shape-type="group">
<polygon shape-type="trapezium" points="700,153 700,141 711,147 711,147 700,153" fill="#C0C0C0" stroke="#C0C0C0" stroke-width="1.00"/>
<polygon shape-type="trapezium" points="724,153 724,141 711,147 711,147 724,153" fill="#C0C0C0" stroke="#C0C0C0" stroke-width="1.00"/>
</g>
<line shape-type="limitline" x1="713" y1="160" x2="711" y2="151" fill="#00FFFF" stroke="#C0C0C0" stroke-width="1.00"/>
<polygon shape-type="trapezium" points="717,156 707,156 712,146 712,146 717,156" fill="#C0C0C0" stroke="#C0C0C0" stroke-width="1.00"/>
</g>
<g shape-type="group">
<rect shape-type="rectangle" x="364" y="478" width="6" height="6" fill="#808080" stroke="#FFFFFF" stroke-width="2.00"/>
<rect shape-type="rectangle" x="382" y="478" width="7" height="6" fill="#808080" stroke="#FFFFFF" stroke-width="2.00"/>
<g shape-type="group">
<rect shape-type="rectangle" x="359" y="455" width="18" height="5" fill="#808080" stroke="#000000" stroke-width="1.00"/>
<ellipse shape-type="ellipse" cx="376" cy="467" rx="16" ry="15" fill="url(#rgradient32_2_1)" stroke="#000000" stroke-width="1.00"/>
</g>
</g>
<g shape-type="group">
<rect shape-type="rectangle" x="363" y="595" width="6" height="6" fill="#808080" stroke="#FFFFFF" stroke-width="2.00"/>
<rect shape-type="rectangle" x="381" y="595" width="7" height="6" fill="#808080" stroke="#FFFFFF" stroke-width="2.00"/>
<g shape-type="group">
<rect shape-type="rectangle" x="358" y="572" width="18" height="5" fill="#808080" stroke="#000000" stroke-width="1.00"/>
<ellipse shape-type="ellipse" cx="375" cy="584" rx="16" ry="15" fill="url(#rgradient33_2_1)" stroke="#000000" stroke-width="1.00"/>
</g>
</g>
<g shape-type="group">
<polygon shape-type="trapezium" points="61,585 61,568 46,576 46,576 61,585" fill="#808080" stroke="#808080" stroke-width="2.00"/>
<rect shape-type="rectangle" x="60" y="573" width="12" height="8" fill="#808080" stroke="#808080" stroke-width="2.00"/>
</g>
<g shape-type="group">
<polygon shape-type="trapezium" points="974,81 974,64 958,72 958,72 974,81" fill="#808080" stroke="#808080" stroke-width="2.00"/>
<rect shape-type="rectangle" x="973" y="69" width="11" height="8" fill="#808080" stroke="#808080" stroke-width="2.00"/>
</g>
<g shape-type="group">
<polygon shape-type="trapezium" points="974,118 974,101 958,109 958,109 974,118" fill="#808080" stroke="#808080" stroke-width="2.00"/>
<rect shape-type="rectangle" x="973" y="105" width="11" height="9" fill="#808080" stroke="#808080" stroke-width="2.00"/>
</g>
<polygon shape-type="trapezium" points="231,505 231,496 218,500 218,500 231,505" fill="#C0C0C0" stroke="#C0C0C0" stroke-width="2.00"/>
<polygon shape-type="trapezium" points="284,461 284,452 271,456 271,456 284,461" fill="#E700FF" stroke="#E700FF" stroke-width="2.00"/>
<polygon shape-type="trapezium" points="282,579 282,570 269,574 269,574 282,579" fill="#E700FF" stroke="#E700FF" stroke-width="2.00"/>
<polygon shape-type="trapezium" points="577,281 577,272 564,276 564,276 577,281" fill="#E700FF" stroke="#E700FF" stroke-width="2.00"/>
<polygon shape-type="trapezium" points="477,113 477,104 464,108 464,108 477,113" fill="#E700FF" stroke="#E700FF" stroke-width="2.00"/>
<polygon shape-type="trapezium" points="477,77 477,68 464,72 464,72 477,77" fill="#E700FF" stroke="#E700FF" stroke-width="2.00"/>
<polygon shape-type="trapezium" points="104,427 104,418 117,422 117,422 104,427" fill="#C0C0C0" stroke="#C0C0C0" stroke-width="2.00"/>
<polygon shape-type="trapezium" points="916,151 916,142 929,146 929,146 916,151" fill="#E700FF" stroke="#E700FF" stroke-width="2.00"/>
<polygon shape-type="trapezium" points="468,287 460,287 464,300 464,300 468,287" fill="#E700FF" stroke="#E700FF" stroke-width="2.00"/>
<polygon shape-type="trapezium" points="509,574 501,574 505,587 505,587 509,574" fill="#E700FF" stroke="#E700FF" stroke-width="2.00"/>
<polygon shape-type="trapezium" points="534,454 526,454 530,467 530,467 534,454" fill="#E700FF" stroke="#E700FF" stroke-width="2.00"/>
<polygon shape-type="trapezium" points="569,159 561,159 565,146 565,146 569,159" fill="#E700FF" stroke="#E700FF" stroke-width="2.00"/>
<rect shape-type="rectangle" x="537" y="393" width="60" height="26" fill="#4A494A" stroke="#C0C0C0" stroke-width="3.00"/>
<rect shape-type="rectangle" x="597" y="393" width="37" height="26" fill="#4A494A" stroke="#C0C0C0" stroke-width="3.00"/>
<text font-family="宋体" text-anchor="start" fill="#00FF42" shape-type="text" id="" font-size="9.500000" font-weight="bold" x="599" y="408">DEG_C</text>
<rect shape-type="rectangle" x="286" y="417" width="54" height="26" fill="#4A494A" stroke="#C0C0C0" stroke-width="3.00"/>
<rect shape-type="rectangle" x="340" y="417" width="15" height="26" fill="#4A494A" stroke="#C0C0C0" stroke-width="3.00"/>
<text font-family="宋体" text-anchor="start" fill="#00FF42" shape-type="text" id="" font-size="9.500000" font-weight="bold" x="343" y="432">A</text>
<rect shape-type="rectangle" x="287" y="538" width="54" height="26" fill="#4A494A" stroke="#C0C0C0" stroke-width="3.00"/>
<rect shape-type="rectangle" x="341" y="538" width="17" height="26" fill="#4A494A" stroke="#C0C0C0" stroke-width="3.00"/>
<text font-family="宋体" text-anchor="start" fill="#00FF42" shape-type="text" id="" font-size="9.500000" font-weight="bold" x="345" y="553">A</text>
<rect shape-type="rectangle" x="119" y="399" width="97" height="24" fill="#7B7D7B" stroke="#C0C0C0" stroke-width="3.00"/>
<rect shape-type="rectangle" x="120" y="423" width="62" height="25" fill="#4A494A" stroke="#C0C0C0" stroke-width="3.00"/>
<text font-family="宋体" text-anchor="start" fill="#FFFFFF" shape-type="text" id="" font-size="11.000000" font-weight="bold" x="137" y="415">FFC24006</text>
<rect shape-type="rectangle" x="181" y="424" width="35" height="25" fill="#4A494A" stroke="#C0C0C0" stroke-width="3.00"/>
<text font-family="宋体" text-anchor="start" fill="#80FF00" shape-type="text" id="" font-size="9.500000" font-weight="bold" x="189" y="440">t/h</text>
<rect shape-type="rectangle" x="119" y="475" width="97" height="24" fill="#7B7D7B" stroke="#C0C0C0" stroke-width="3.00"/>
<rect shape-type="rectangle" x="119" y="500" width="62" height="25" fill="#4A494A" stroke="#C0C0C0" stroke-width="3.00"/>
<text font-family="宋体" text-anchor="start" fill="#FFFFFF" shape-type="text" id="" font-size="11.000000" font-weight="bold" x="141" y="491">FC24006</text>
<rect shape-type="rectangle" x="181" y="500" width="35" height="25" fill="#4A494A" stroke="#C0C0C0" stroke-width="3.00"/>
<text font-family="宋体" text-anchor="start" fill="#00FF42" shape-type="text" id="" font-size="9.500000" font-weight="bold" x="188" y="516">t/h</text>
<rect shape-type="rectangle" x="663" y="186" width="97" height="24" fill="#7B7D7B" stroke="#C0C0C0" stroke-width="3.00"/>
<rect shape-type="rectangle" x="663" y="211" width="57" height="25" fill="#4A494A" stroke="#C0C0C0" stroke-width="3.00"/>
<text font-family="宋体" text-anchor="start" fill="#FFFFFF" shape-type="text" id="" font-size="11.000000" font-weight="bold" x="683" y="202">PC24009</text>
<rect shape-type="rectangle" x="719" y="211" width="41" height="25" fill="#4A494A" stroke="#C0C0C0" stroke-width="3.00"/>
<text font-family="宋体" text-anchor="start" fill="#00FF42" shape-type="text" id="" font-size="9.500000" font-weight="bold" x="721" y="227">kPa(g)</text>
<rect shape-type="rectangle" x="384" y="435" width="58" height="23" fill="#4A494A" stroke="#C0C0C0" stroke-width="3.00"/>
<rect shape-type="rectangle" x="384" y="554" width="58" height="23" fill="#4A494A" stroke="#C0C0C0" stroke-width="3.00"/>
<text font-family="宋体" text-anchor="start" fill="#FFFFFF" shape-type="text" id="" font-size="11.000000" x="397" y="451">P404C</text>
<text font-family="宋体" text-anchor="start" fill="#FFFFFF" shape-type="text" id="" font-size="11.000000" x="396" y="568">P404D</text>
<rect shape-type="rectangle" x="664" y="328" width="60" height="26" fill="#4A494A" stroke="#C0C0C0" stroke-width="3.00"/>
<rect shape-type="rectangle" x="724" y="328" width="37" height="26" fill="#4A494A" stroke="#C0C0C0" stroke-width="3.00"/>
<text font-family="宋体" text-anchor="start" fill="#00FF42" shape-type="text" id="" font-size="9.500000" font-weight="bold" x="739" y="344">%</text>
<text font-family="宋体" text-anchor="start" fill="#FFFFFF" shape-type="text" id="" font-size="12.500000" x="15" y="431">FI24001</text>
<text font-family="宋体" text-anchor="start" fill="#FFFFFF" shape-type="text" id="" font-size="12.500000" x="15" y="581">E411</text>
<text font-family="宋体" text-anchor="start" fill="#FFFFFF" shape-type="text" id="" font-size="12.500000" x="991" y="81">E412</text>
<text font-family="宋体" text-anchor="start" fill="#FFFFFF" shape-type="text" id="" font-size="12.500000" x="991" y="113">P408</text>
<text font-family="宋体" text-anchor="start" fill="#FFFFFF" shape-type="text" id="" font-size="12.500000" x="937" y="155">FLARE HEAD</text>
<text font-family="宋体" text-anchor="start" fill="#FFFFFF" shape-type="text" id="" font-size="12.500000" x="944" y="280">LP N2 HEAD</text>
<rect shape-type="roundRectangle" rx="20" ry="20" x="430" y="299" width="228" height="86" fill="url(#lgradient86)" stroke="#808080" stroke-width="2.00"/>
<text font-family="宋体" text-anchor="start" fill="#000000" shape-type="text" id="" font-size="12.500000" font-weight="bold" x="526" y="345">V406</text>
<rect shape-type="rectangle" x="-6" y="736" width="1069" height="64" fill="#BDBABD" stroke="#BDBABD" stroke-width="1.00"/>
<g shape-type="group">
<rect shape-type="rectangle" x="996" y="748" width="48" height="43" fill="#C6C3C6" stroke="#C6C3C6" stroke-width="1.00"/>
<polygon shape-type="trapezium" points="1013,779 1013,759 1031,769 1031,769 1013,779" fill="#4A494A" stroke="#C6C3C6" stroke-width="2.00"/>
</g>
<g shape-type="group">
<rect shape-type="rectangle" x="12" y="748" width="47" height="39" fill="#C6C3C6" stroke="#C6C3C6" stroke-width="1.00"/>
<polygon shape-type="trapezium" points="40,776 40,756 21,766 21,766 40,776" fill="#4A494A" stroke="#C6C3C6" stroke-width="2.00"/>
</g>
<a xlink:href="M410.svg">
<g shape-type="button">
<rect fill="#C0C0C0" stroke-width="0.3" stroke="#FFFFFF" x="77" y="745" width="92" height="42" shape-type="buttonrect"/>
<text font-family="宋体" text-anchor="middle" dominant-baseline="middle" fill="#000000" font-size="13.500000" x="123" y="772" shape-type="buttontext">C405</text>
</g>
</a>
<a xlink:href="m411.svg">
<g shape-type="button">
<rect fill="#C0C0C0" stroke-width="0.3" stroke="#FFFFFF" x="182" y="745" width="92" height="42" shape-type="buttonrect"/>
<text font-family="宋体" text-anchor="middle" dominant-baseline="middle" fill="#000000" font-size="13.500000" x="228" y="772" shape-type="buttontext">T401</text>
</g>
</a>
<a xlink:href="m411.svg">
<g shape-type="button">
<rect fill="#C0C0C0" stroke-width="0.3" stroke="#FFFFFF" x="289" y="745" width="133" height="42" shape-type="buttonrect"/>
<text font-family="宋体" text-anchor="middle" dominant-baseline="middle" fill="#000000" font-size="10.500000" x="356" y="771" shape-type="buttontext">NEW CH3OH ABSORBER</text>
</g>
</a>
<a xlink:href="m401.svg">
<g shape-type="button">
<rect fill="#C0C0C0" stroke-width="0.3" stroke="#FFFFFF" x="433" y="746" width="92" height="42" shape-type="buttonrect"/>
<text font-family="宋体" text-anchor="middle" dominant-baseline="middle" fill="#000000" font-size="13.500000" x="479" y="773" shape-type="buttontext">E401</text>
</g>
</a>
<a xlink:href="C401">
<g shape-type="button">
<rect fill="#C0C0C0" stroke-width="0.3" stroke="#FFFFFF" x="539" y="746" width="92" height="42" shape-type="buttonrect"/>
<text font-family="宋体" text-anchor="middle" dominant-baseline="middle" fill="#000000" font-size="13.500000" x="585" y="773" shape-type="buttontext">C401</text>
</g>
</a>
<a xlink:href="M403.svg">
<g shape-type="button">
<rect fill="#C0C0C0" stroke-width="0.3" stroke="#FFFFFF" x="645" y="745" width="92" height="42" shape-type="buttonrect"/>
<text font-family="宋体" text-anchor="middle" dominant-baseline="middle" fill="#000000" font-size="10.500000" x="691" y="771" shape-type="buttontext">MEOH COOLING</text>
</g>
</a>
<a xlink:href="M404.svg">
<g shape-type="button">
<rect fill="#C0C0C0" stroke-width="0.3" stroke="#FFFFFF" x="750" y="746" width="92" height="42" shape-type="buttonrect"/>
<text font-family="宋体" text-anchor="middle" dominant-baseline="middle" fill="#000000" font-size="13.500000" x="796" y="773" shape-type="buttontext">C402</text>
</g>
</a>
<a xlink:href="m405.svg">
<g shape-type="button">
<rect fill="#C0C0C0" stroke-width="0.3" stroke="#FFFFFF" x="853" y="744" width="92" height="42" shape-type="buttonrect"/>
<text font-family="宋体" text-anchor="middle" dominant-baseline="middle" fill="#000000" font-size="13.500000" x="899" y="771" shape-type="buttontext">K401</text>
</g>
</a>
<text font-family="Arial" text-anchor="start" fill="#00FFFF" shape-type="realdata" id="HCAB_JH_FC24006" font-size="12.500000" x="124" y="515">XXXX</text>
<text font-family="Arial" text-anchor="start" fill="#00FFFF" shape-type="realdata" id="HCAB_JH_IIP404C" font-size="12.500000" x="292" y="435">XXX</text>
<text font-family="Arial" text-anchor="start" fill="#00FFFF" shape-type="realdata" id="HCAB_JH_IIMP404D" font-size="12.500000" x="293" y="556">XXX</text>
<text font-family="Arial" text-anchor="start" fill="#00FFFF" shape-type="realdata" id="HCAB_JH_PC24009" font-size="12.500000" x="670" y="227">XXXX</text>
<text font-family="Arial" text-anchor="start" fill="#00FFFF" shape-type="realdata" id="HCAB_JH_LI24020" font-size="12.500000" x="670" y="345">XXXX</text>
<text font-family="Arial" text-anchor="start" fill="#00FFFF" shape-type="realdata" id="HCAB_JH_TI24038" font-size="12.500000" x="543" y="410">XXXX</text>
<text font-family="Arial" text-anchor="start" fill="#00FFFF" shape-type="realdata" id="HCAB_JH_FFC24006" font-size="12.500000" x="125" y="442">XXX</text>
<a xlink:href="400_ML.svg">
<g shape-type="button">
<rect fill="#C0C0C0" stroke-width="0.3" stroke="#FFFFFF" x="950" y="12" width="98" height="30" shape-type="buttonrect"/>
<text font-family="宋体" text-anchor="middle" dominant-baseline="middle" fill="#800000" font-size="13.500000" font-weight="bold" x="999" y="33" shape-type="buttontext">返回上一级</text>
</g>
</a>
<line shape-type="limitline" x1="506" y1="696" x2="387" y2="696" fill="#E700FF" stroke="#E700FF" stroke-width="3.00"/>
<g shape-type="group">
<rect shape-type="rectangle" x="361" y="705" width="7" height="6" fill="#808080" stroke="#FFFFFF" stroke-width="2.00"/>
<rect shape-type="rectangle" x="380" y="705" width="6" height="6" fill="#808080" stroke="#FFFFFF" stroke-width="2.00"/>
<g shape-type="group">
<rect shape-type="rectangle" x="357" y="682" width="18" height="6" fill="#808080" stroke="#000000" stroke-width="1.00"/>
<ellipse shape-type="ellipse" cx="374" cy="694" rx="16" ry="15" fill="url(#rgradient108_2_1)" stroke="#000000" stroke-width="1.00"/>
</g>
</g>
<polygon shape-type="trapezium" points="283,690 283,681 270,685 270,685 283,690" fill="#E700FF" stroke="#E700FF" stroke-width="2.00"/>
<polygon shape-type="trapezium" points="509,684 501,684 505,697 505,697 509,684" fill="#E700FF" stroke="#E700FF" stroke-width="2.00"/>
<line shape-type="limitline" x1="361" y1="686" x2="271" y2="686" fill="#E700FF" stroke="#E700FF" stroke-width="3.00"/>
<rect shape-type="rectangle" x="404" y="706" width="50" height="26" fill="#4A494A" stroke="#C0C0C0" stroke-width="3.00"/>
<rect shape-type="rectangle" x="454" y="706" width="37" height="26" fill="#4A494A" stroke="#C0C0C0" stroke-width="3.00"/>
<text font-family="宋体" text-anchor="start" fill="#00FF42" shape-type="text" id="" font-size="9.500000" font-weight="bold" x="462" y="722">kPa</text>
<rect shape-type="rectangle" x="280" y="704" width="40" height="26" fill="#4A494A" stroke="#C0C0C0" stroke-width="3.00"/>
<rect shape-type="rectangle" x="320" y="704" width="37" height="26" fill="#4A494A" stroke="#C0C0C0" stroke-width="3.00"/>
<text font-family="宋体" text-anchor="start" fill="#00FF42" shape-type="text" id="" font-size="9.500000" font-weight="bold" x="328" y="720">MPa</text>
<line shape-type="limitline" x1="306" y1="686" x2="306" y2="701" fill="#00FFFF" stroke="#FFFFFF" stroke-width="3.00" stroke-dasharray="5 10"/>
<line shape-type="limitline" x1="438" y1="696" x2="438" y2="707" fill="#00FFFF" stroke="#FFFFFF" stroke-width="3.00" stroke-dasharray="5 10"/>
<text font-family="Arial" text-anchor="start" fill="#00FFFF" shape-type="realdata" id="HCAB_JH_PT24086E" font-size="12.500000" x="408" y="723">XXX</text>
<text font-family="Arial" text-anchor="start" fill="#00FFFF" shape-type="realdata" id="HCAB_JH_PT24087E" font-size="12.500000" x="286" y="721">XXX</text>
<rect shape-type="rectangle" x="383" y="665" width="58" height="23" fill="#4A494A" stroke="#C0C0C0" stroke-width="3.00"/>
<text font-family="宋体" text-anchor="start" fill="#FFFFFF" shape-type="text" id="" font-size="11.000000" x="395" y="680">P404E</text>
<rect shape-type="rectangle" x="286" y="646" width="54" height="26" fill="#4A494A" stroke="#C0C0C0" stroke-width="3.00"/>
<rect shape-type="rectangle" x="340" y="646" width="17" height="26" fill="#4A494A" stroke="#C0C0C0" stroke-width="3.00"/>
<text font-family="宋体" text-anchor="start" fill="#00FF42" shape-type="text" id="" font-size="9.500000" font-weight="bold" x="344" y="661">A</text>
<text font-family="Arial" text-anchor="start" fill="#00FFFF" shape-type="realdata" id="HCAB_JH_ITMP404E" font-size="12.500000" x="292" y="664">XXX</text>
<line shape-type="limitline" x1="103" y1="99" x2="342" y2="99" fill="#E700FF" stroke="#00FF40" stroke-width="3.00"/>
<line shape-type="limitline" x1="103" y1="367" x2="342" y2="367" fill="#E700FF" stroke="#00FF40" stroke-width="3.00"/>
<line shape-type="limitline" x1="103" y1="345" x2="342" y2="345" fill="#E700FF" stroke="#00FF40" stroke-width="3.00"/>
<line shape-type="limitline" x1="103" y1="323" x2="342" y2="323" fill="#E700FF" stroke="#00FF40" stroke-width="3.00"/>
<line shape-type="limitline" x1="103" y1="301" x2="342" y2="301" fill="#E700FF" stroke="#00FF40" stroke-width="3.00"/>
<line shape-type="limitline" x1="103" y1="279" x2="342" y2="279" fill="#E700FF" stroke="#00FF40" stroke-width="3.00"/>
<line shape-type="limitline" x1="103" y1="98" x2="103" y2="367" fill="#E700FF" stroke="#00FF40" stroke-width="3.00"/>
<line shape-type="limitline" x1="103" y1="257" x2="342" y2="257" fill="#E700FF" stroke="#00FF40" stroke-width="3.00"/>
<line shape-type="limitline" x1="103" y1="235" x2="342" y2="235" fill="#E700FF" stroke="#00FF40" stroke-width="3.00"/>
<line shape-type="limitline" x1="189" y1="98" x2="189" y2="366" fill="#E700FF" stroke="#00FF40" stroke-width="3.00"/>
<line shape-type="limitline" x1="269" y1="98" x2="269" y2="367" fill="#E700FF" stroke="#00FF40" stroke-width="3.00"/>
<line shape-type="limitline" x1="342" y1="98" x2="342" y2="366" fill="#E700FF" stroke="#00FF40" stroke-width="3.00"/>
<text font-family="宋体" text-anchor="start" fill="#00FF80" shape-type="text" id="" font-size="12.500000" x="130" y="121">位号</text>
<text font-family="仿宋_GB2312" text-anchor="start" fill="#000000" shape-type="text" id="" font-size="160.250000" x="241" y="341"></text>
<text font-family="宋体" text-anchor="start" fill="#00FF80" shape-type="text" id="" font-size="12.500000" x="209" y="120">测量值</text>
<text font-family="宋体" text-anchor="start" fill="#00FF80" shape-type="text" id="" font-size="160.250000" x="321" y="141"></text>
<text font-family="宋体" text-anchor="start" fill="#00FF80" shape-type="text" id="" font-size="12.500000" x="291" y="120">单位</text>
<rect shape-type="rectangle" x="170" y="71" width="104" height="23" fill="#4A494A" stroke="#C0C0C0" stroke-width="3.00"/>
<text font-family="宋体" text-anchor="start" fill="#FFFFFF" shape-type="text" id="" font-size="14.750000" x="198" y="87">P404C</text>
<text font-family="仿宋_GB2312" text-anchor="start" fill="#000000" shape-type="text" id="" font-size="160.250000" x="701" y="681"></text>
<text font-family="宋体" text-anchor="start" fill="#00FF80" shape-type="text" id="" font-size="160.250000" x="781" y="681"></text>
<line shape-type="limitline" x1="103" y1="214" x2="342" y2="214" fill="#E700FF" stroke="#00FF40" stroke-width="3.00"/>
<line shape-type="limitline" x1="103" y1="192" x2="342" y2="192" fill="#E700FF" stroke="#00FF40" stroke-width="3.00"/>
<line shape-type="limitline" x1="103" y1="170" x2="342" y2="170" fill="#E700FF" stroke="#00FF40" stroke-width="3.00"/>
<line shape-type="limitline" x1="103" y1="148" x2="342" y2="148" fill="#E700FF" stroke="#00FF40" stroke-width="3.00"/>
<line shape-type="limitline" x1="103" y1="127" x2="342" y2="127" fill="#E700FF" stroke="#00FF40" stroke-width="3.00"/>
<line shape-type="limitline" x1="779" y1="432" x2="1018" y2="432" fill="#E700FF" stroke="#00FF40" stroke-width="3.00"/>
<line shape-type="limitline" x1="779" y1="700" x2="1018" y2="700" fill="#E700FF" stroke="#00FF40" stroke-width="3.00"/>
<line shape-type="limitline" x1="779" y1="678" x2="1018" y2="678" fill="#E700FF" stroke="#00FF40" stroke-width="3.00"/>
<line shape-type="limitline" x1="779" y1="656" x2="1018" y2="656" fill="#E700FF" stroke="#00FF40" stroke-width="3.00"/>
<line shape-type="limitline" x1="779" y1="634" x2="1018" y2="634" fill="#E700FF" stroke="#00FF40" stroke-width="3.00"/>
<line shape-type="limitline" x1="779" y1="612" x2="1018" y2="612" fill="#E700FF" stroke="#00FF40" stroke-width="3.00"/>
<line shape-type="limitline" x1="779" y1="431" x2="779" y2="700" fill="#E700FF" stroke="#00FF40" stroke-width="3.00"/>
<line shape-type="limitline" x1="779" y1="590" x2="1018" y2="590" fill="#E700FF" stroke="#00FF40" stroke-width="3.00"/>
<line shape-type="limitline" x1="779" y1="568" x2="1018" y2="568" fill="#E700FF" stroke="#00FF40" stroke-width="3.00"/>
<line shape-type="limitline" x1="865" y1="431" x2="865" y2="699" fill="#E700FF" stroke="#00FF40" stroke-width="3.00"/>
<line shape-type="limitline" x1="945" y1="431" x2="945" y2="700" fill="#E700FF" stroke="#00FF40" stroke-width="3.00"/>
<line shape-type="limitline" x1="1018" y1="431" x2="1018" y2="699" fill="#E700FF" stroke="#00FF40" stroke-width="3.00"/>
<text font-family="宋体" text-anchor="start" fill="#00FF80" shape-type="text" id="" font-size="12.500000" x="806" y="454">位号</text>
<text font-family="宋体" text-anchor="start" fill="#00FF80" shape-type="text" id="" font-size="12.500000" x="885" y="453">测量值</text>
<text font-family="宋体" text-anchor="start" fill="#00FF80" shape-type="text" id="" font-size="12.500000" x="967" y="453">单位</text>
<rect shape-type="rectangle" x="846" y="404" width="104" height="23" fill="#4A494A" stroke="#C0C0C0" stroke-width="3.00"/>
<text font-family="宋体" text-anchor="start" fill="#FFFFFF" shape-type="text" id="" font-size="14.750000" x="874" y="420">P404E</text>
<line shape-type="limitline" x1="779" y1="547" x2="1018" y2="547" fill="#E700FF" stroke="#00FF40" stroke-width="3.00"/>
<line shape-type="limitline" x1="779" y1="525" x2="1018" y2="525" fill="#E700FF" stroke="#00FF40" stroke-width="3.00"/>
<line shape-type="limitline" x1="779" y1="503" x2="1018" y2="503" fill="#E700FF" stroke="#00FF40" stroke-width="3.00"/>
<line shape-type="limitline" x1="779" y1="481" x2="1018" y2="481" fill="#E700FF" stroke="#00FF40" stroke-width="3.00"/>
<line shape-type="limitline" x1="779" y1="459" x2="1018" y2="459" fill="#E700FF" stroke="#00FF40" stroke-width="3.00"/>
<rect shape-type="rectangle" x="404" y="598" width="49" height="26" fill="#4A494A" stroke="#C0C0C0" stroke-width="3.00"/>
<rect shape-type="rectangle" x="453" y="598" width="37" height="26" fill="#4A494A" stroke="#C0C0C0" stroke-width="3.00"/>
<text font-family="宋体" text-anchor="start" fill="#00FF42" shape-type="text" id="" font-size="9.500000" font-weight="bold" x="461" y="614">kPa</text>
<line shape-type="limitline" x1="437" y1="588" x2="437" y2="599" fill="#00FFFF" stroke="#FFFFFF" stroke-width="3.00" stroke-dasharray="5 10"/>
<rect shape-type="rectangle" x="279" y="596" width="40" height="26" fill="#4A494A" stroke="#C0C0C0" stroke-width="3.00"/>
<rect shape-type="rectangle" x="319" y="596" width="37" height="26" fill="#4A494A" stroke="#C0C0C0" stroke-width="3.00"/>
<text font-family="宋体" text-anchor="start" fill="#00FF42" shape-type="text" id="" font-size="9.500000" font-weight="bold" x="327" y="612">MPa</text>
<line shape-type="limitline" x1="305" y1="578" x2="305" y2="593" fill="#00FFFF" stroke="#FFFFFF" stroke-width="3.00" stroke-dasharray="5 10"/>
<text font-family="Arial" text-anchor="start" fill="#00FFFF" shape-type="realdata" id="HCAB_JH_PI24020d" font-size="12.500000" x="287" y="611">XXX</text>
<text font-family="Arial" text-anchor="start" fill="#00FFFF" shape-type="realdata" id="HCAB_JH_PI24022d" font-size="12.500000" x="408" y="614">XXX</text>
<rect shape-type="rectangle" x="279" y="475" width="47" height="26" fill="#4A494A" stroke="#C0C0C0" stroke-width="3.00"/>
<rect shape-type="rectangle" x="326" y="475" width="30" height="26" fill="#4A494A" stroke="#C0C0C0" stroke-width="3.00"/>
<text font-family="宋体" text-anchor="start" fill="#00FF42" shape-type="text" id="" font-size="9.500000" font-weight="bold" x="332" y="491">MPa</text>
<line shape-type="limitline" x1="304" y1="457" x2="304" y2="472" fill="#00FFFF" stroke="#FFFFFF" stroke-width="3.00" stroke-dasharray="5 10"/>
<rect shape-type="rectangle" x="402" y="478" width="50" height="26" fill="#4A494A" stroke="#C0C0C0" stroke-width="3.00"/>
<rect shape-type="rectangle" x="452" y="478" width="37" height="26" fill="#4A494A" stroke="#C0C0C0" stroke-width="3.00"/>
<text font-family="宋体" text-anchor="start" fill="#00FF42" shape-type="text" id="" font-size="9.500000" font-weight="bold" x="460" y="494">kPa</text>
<line shape-type="limitline" x1="436" y1="468" x2="436" y2="479" fill="#00FFFF" stroke="#FFFFFF" stroke-width="3.00" stroke-dasharray="5 10"/>
<text font-family="Arial" text-anchor="start" fill="#00FFFF" shape-type="realdata" id="HCAB_JH_PI24020" font-size="12.500000" x="285" y="490">XXX</text>
<text font-family="Arial" text-anchor="start" fill="#00FFFF" shape-type="realdata" id="HCAB_JH_PI24022" font-size="12.500000" x="407" y="494">XXX</text>
<line shape-type="limitline" x1="316" y1="673" x2="316" y2="686" fill="#00FFFF" stroke="#FFFFFF" stroke-width="3.00" stroke-dasharray="5 10"/>
<line shape-type="limitline" x1="323" y1="563" x2="323" y2="576" fill="#00FFFF" stroke="#FFFFFF" stroke-width="3.00" stroke-dasharray="5 10"/>
<line shape-type="limitline" x1="356" y1="713" x2="356" y2="726" fill="#00FFFF" stroke="#FFFFFF" stroke-width="3.00" stroke-dasharray="5 10"/>
<line shape-type="limitline" x1="320" y1="443" x2="320" y2="456" fill="#00FFFF" stroke="#FFFFFF" stroke-width="3.00" stroke-dasharray="5 10"/>
<rect shape-type="rectangle" x="416" y="634" width="45" height="26" fill="#4A494A" stroke="#C0C0C0" stroke-width="3.00"/>
<rect shape-type="rectangle" x="461" y="634" width="37" height="26" fill="#4A494A" stroke="#C0C0C0" stroke-width="3.00"/>
<text font-family="宋体" text-anchor="start" fill="#00FF42" shape-type="text" id="" font-size="9.500000" font-weight="bold" x="469" y="650">MPa</text>
<text font-family="Arial" text-anchor="start" fill="#00FFFF" shape-type="realdata" id="HCAB_JH_PDT24090E" font-size="12.500000" x="420" y="649">XXX</text>
<line shape-type="limitline" x1="454" y1="661" x2="454" y2="695" fill="#00FFFF" stroke="#FFFFFF" stroke-width="3.00" stroke-dasharray="5 10"/>
<rect shape-type="rectangle" x="416" y="523" width="45" height="26" fill="#4A494A" stroke="#C0C0C0" stroke-width="3.00"/>
<text font-family="宋体" text-anchor="start" fill="#00FF42" shape-type="text" id="" font-size="9.500000" font-weight="bold" x="469" y="539">MPa</text>
<rect shape-type="rectangle" x="461" y="523" width="37" height="26" fill="#4A494A" stroke="#C0C0C0" stroke-width="3.00"/>
<line shape-type="limitline" x1="454" y1="550" x2="454" y2="584" fill="#00FFFF" stroke="#FFFFFF" stroke-width="3.00" stroke-dasharray="5 10"/>
<text font-family="Arial" text-anchor="start" fill="#00FFFF" shape-type="realdata" id="HCAB_JH_PI24533" font-size="12.500000" x="422" y="540">XXX</text>
<text font-family="宋体" text-anchor="start" fill="#00FF42" shape-type="text" id="" font-size="9.500000" font-weight="bold" x="469" y="540">MPa</text>
<rect shape-type="rectangle" x="424" y="404" width="45" height="26" fill="#4A494A" stroke="#C0C0C0" stroke-width="3.00"/>
<text font-family="宋体" text-anchor="start" fill="#00FF42" shape-type="text" id="" font-size="9.500000" font-weight="bold" x="477" y="420">MPa</text>
<rect shape-type="rectangle" x="469" y="404" width="37" height="26" fill="#4A494A" stroke="#C0C0C0" stroke-width="3.00"/>
<text font-family="宋体" text-anchor="start" fill="#00FF42" shape-type="text" id="" font-size="9.500000" font-weight="bold" x="477" y="421">MPa</text>
<text font-family="Arial" text-anchor="start" fill="#00FFFF" shape-type="realdata" id="HCAB_JH_PDI24533" font-size="12.500000" x="430" y="421">XXX</text>
<line shape-type="limitline" x1="462" y1="431" x2="462" y2="465" fill="#00FFFF" stroke="#FFFFFF" stroke-width="3.00" stroke-dasharray="5 10"/>
<text font-family="宋体" text-anchor="start" fill="#00FF42" shape-type="text" id="" font-size="9.500000" font-weight="bold" x="122" y="141">TI24076A</text>
<text font-family="宋体" text-anchor="start" fill="#00FF42" shape-type="text" id="" font-size="9.500000" font-weight="bold" x="123" y="163">TI24076B</text>
<text font-family="宋体" text-anchor="start" fill="#00FF42" shape-type="text" id="" font-size="9.500000" font-weight="bold" x="123" y="184">TI24076C</text>
<text font-family="宋体" text-anchor="start" fill="#00FF42" shape-type="text" id="" font-size="9.500000" font-weight="bold" x="124" y="206">TI24076D</text>
<text font-family="宋体" text-anchor="start" fill="#00FF42" shape-type="text" id="" font-size="9.500000" font-weight="bold" x="123" y="227">TI24076E</text>
<text font-family="宋体" text-anchor="start" fill="#00FF42" shape-type="text" id="" font-size="9.500000" font-weight="bold" x="127" y="250">TI24063</text>
<text font-family="宋体" text-anchor="start" fill="#00FF42" shape-type="text" id="" font-size="9.500000" font-weight="bold" x="296" y="140">DEGC</text>
<text font-family="宋体" text-anchor="start" fill="#00FF42" shape-type="text" id="" font-size="9.500000" font-weight="bold" x="295" y="161">DEGC</text>
<text font-family="宋体" text-anchor="start" fill="#00FF42" shape-type="text" id="" font-size="9.500000" font-weight="bold" x="294" y="183">DEGC</text>
<text font-family="宋体" text-anchor="start" fill="#00FF42" shape-type="text" id="" font-size="9.500000" font-weight="bold" x="295" y="205">DEGC</text>
<text font-family="宋体" text-anchor="start" fill="#00FF42" shape-type="text" id="" font-size="9.500000" font-weight="bold" x="296" y="227">DEGC</text>
<text font-family="宋体" text-anchor="start" fill="#00FF42" shape-type="text" id="" font-size="9.500000" font-weight="bold" x="127" y="271">TI24062</text>
<text font-family="宋体" text-anchor="start" fill="#00FF42" shape-type="text" id="" font-size="9.500000" font-weight="bold" x="126" y="293">TI24064</text>
<text font-family="宋体" text-anchor="start" fill="#00FF42" shape-type="text" id="" font-size="9.500000" font-weight="bold" x="127" y="315">PI24024</text>
<text font-family="宋体" text-anchor="start" fill="#00FF42" shape-type="text" id="" font-size="9.500000" font-weight="bold" x="126" y="337">PDI24023</text>
<text font-family="宋体" text-anchor="start" fill="#00FF42" shape-type="text" id="" font-size="9.500000" font-weight="bold" x="127" y="358">TI24067</text>
<text font-family="宋体" text-anchor="start" fill="#00FF42" shape-type="text" id="" font-size="9.500000" font-weight="bold" x="295" y="248">DEGC</text>
<text font-family="宋体" text-anchor="start" fill="#00FF42" shape-type="text" id="" font-size="9.500000" font-weight="bold" x="297" y="273">DEGC</text>
<text font-family="宋体" text-anchor="start" fill="#00FF42" shape-type="text" id="" font-size="9.500000" font-weight="bold" x="293" y="359">DEGC</text>
<text font-family="宋体" text-anchor="start" fill="#00FF42" shape-type="text" id="" font-size="9.500000" font-weight="bold" x="295" y="294">DEGC</text>
<text font-family="宋体" text-anchor="start" fill="#00FF42" shape-type="text" id="" font-size="9.500000" font-weight="bold" x="298" y="316">kPa</text>
<text font-family="宋体" text-anchor="start" fill="#00FF42" shape-type="text" id="" font-size="9.500000" font-weight="bold" x="296" y="338">kPa</text>
<text font-family="Arial" text-anchor="start" fill="#00FFFF" shape-type="realdata" id="HCAB_JH_TI24076A" font-size="12.500000" x="194" y="142">XXX</text>
<text font-family="Arial" text-anchor="start" fill="#00FFFF" shape-type="realdata" id="HCAB_JH_IIMP404C" font-size="12.500000" x="194" y="164">XXX</text>
<text font-family="宋体" text-anchor="start" fill="#00FF42" shape-type="text" id="" font-size="9.500000" font-weight="bold" x="792" y="475">TI24083E</text>
<text font-family="宋体" text-anchor="start" fill="#00FF42" shape-type="text" id="" font-size="9.500000" font-weight="bold" x="793" y="497">TI24084E</text>
<text font-family="宋体" text-anchor="start" fill="#00FF42" shape-type="text" id="" font-size="9.500000" font-weight="bold" x="793" y="518">TI24091E</text>
<text font-family="宋体" text-anchor="start" fill="#00FF42" shape-type="text" id="" font-size="9.500000" font-weight="bold" x="794" y="540">TI24092E</text>
<text font-family="宋体" text-anchor="start" fill="#00FF42" shape-type="text" id="" font-size="9.500000" font-weight="bold" x="793" y="561">TI24093E</text>
<text font-family="宋体" text-anchor="start" fill="#00FF42" shape-type="text" id="" font-size="9.500000" font-weight="bold" x="797" y="584">TI24094E</text>
<text font-family="宋体" text-anchor="start" fill="#00FF42" shape-type="text" id="" font-size="9.500000" font-weight="bold" x="966" y="474">DEGC</text>
<text font-family="宋体" text-anchor="start" fill="#00FF42" shape-type="text" id="" font-size="9.500000" font-weight="bold" x="965" y="495">DEGC</text>
<text font-family="宋体" text-anchor="start" fill="#00FF42" shape-type="text" id="" font-size="9.500000" font-weight="bold" x="964" y="517">DEGC</text>
<text font-family="宋体" text-anchor="start" fill="#00FF42" shape-type="text" id="" font-size="9.500000" font-weight="bold" x="965" y="539">DEGC</text>
<text font-family="宋体" text-anchor="start" fill="#00FF42" shape-type="text" id="" font-size="9.500000" font-weight="bold" x="966" y="561">DEGC</text>
<text font-family="宋体" text-anchor="start" fill="#00FF42" shape-type="text" id="" font-size="9.500000" font-weight="bold" x="797" y="605">TT24082E</text>
<text font-family="宋体" text-anchor="start" fill="#00FF42" shape-type="text" id="" font-size="9.500000" font-weight="bold" x="794" y="627">PDT24081E</text>
<text font-family="宋体" text-anchor="start" fill="#00FF42" shape-type="text" id="" font-size="9.500000" font-weight="bold" x="797" y="649">PT24083E</text>
<text font-family="宋体" text-anchor="start" fill="#00FF42" shape-type="text" id="" font-size="9.500000" font-weight="bold" x="796" y="671">PT24084E</text>
<text font-family="宋体" text-anchor="start" fill="#00FF42" shape-type="text" id="" font-size="9.500000" font-weight="bold" x="797" y="692">PT24085E</text>
<text font-family="宋体" text-anchor="start" fill="#00FF42" shape-type="text" id="" font-size="9.500000" font-weight="bold" x="965" y="582">DEGC</text>
<text font-family="宋体" text-anchor="start" fill="#00FF42" shape-type="text" id="" font-size="9.500000" font-weight="bold" x="967" y="607">DEGC</text>
<text font-family="宋体" text-anchor="start" fill="#00FF42" shape-type="text" id="" font-size="9.500000" font-weight="bold" x="967" y="693">MPa</text>
<text font-family="宋体" text-anchor="start" fill="#00FF42" shape-type="text" id="" font-size="9.500000" font-weight="bold" x="968" y="628">MPa</text>
<text font-family="宋体" text-anchor="start" fill="#00FF42" shape-type="text" id="" font-size="9.500000" font-weight="bold" x="968" y="650">MPa</text>
<text font-family="宋体" text-anchor="start" fill="#00FF42" shape-type="text" id="" font-size="9.500000" font-weight="bold" x="968" y="672">MPa</text>
<text font-family="Arial" text-anchor="start" fill="#00FFFF" shape-type="realdata" id="HCAB_JH_TI24084E" font-size="12.500000" x="869" y="498">XXX</text>
<text font-family="Arial" text-anchor="start" fill="#00FFFF" shape-type="realdata" id="HCAB_JH_IIMP404C" font-size="12.500000" x="195" y="186">XXX</text>
<text font-family="Arial" text-anchor="start" fill="#00FFFF" shape-type="realdata" id="HCAB_JH_IIMP404C" font-size="12.500000" x="194" y="208">XXX</text>
<text font-family="Arial" text-anchor="start" fill="#00FFFF" shape-type="realdata" id="HCAB_JH_IIMP404C" font-size="12.500000" x="194" y="229">XXX</text>
<text font-family="Arial" text-anchor="start" fill="#00FFFF" shape-type="realdata" id="HCAB_JH_TI24063" font-size="12.500000" x="194" y="252">XXX</text>
<text font-family="Arial" text-anchor="start" fill="#00FFFF" shape-type="realdata" id="HCAB_JH_IIMP404C" font-size="12.500000" x="191" y="340">XXX</text>
<text font-family="Arial" text-anchor="start" fill="#00FFFF" shape-type="realdata" id="HCAB_JH_IIMP404C" font-size="12.500000" x="191" y="361">XXX</text>
<text font-family="Arial" text-anchor="start" fill="#00FFFF" shape-type="realdata" id="HCAB_JH_IIMP404C" font-size="12.500000" x="191" y="317">XXX</text>
<text font-family="Arial" text-anchor="start" fill="#00FFFF" shape-type="realdata" id="HCAB_JH_TI24064" font-size="12.500000" x="192" y="295">XXX</text>
<text font-family="Arial" text-anchor="start" fill="#00FFFF" shape-type="realdata" id="HCAB_JH_TI24062" font-size="12.500000" x="192" y="275">XXX</text>
<text font-family="Arial" text-anchor="start" fill="#00FFFF" shape-type="realdata" id="HCAB_JH_TI24083E" font-size="12.500000" x="869" y="473">XXX</text>
<text font-family="Arial" text-anchor="start" fill="#00FFFF" shape-type="realdata" id="HCAB_JH_TI24091E" font-size="12.500000" x="868" y="518">XXX</text>
<text font-family="Arial" text-anchor="start" fill="#00FFFF" shape-type="realdata" id="HCAB_JH_TI24092E" font-size="12.500000" x="868" y="539">XXX</text>
<text font-family="Arial" text-anchor="start" fill="#00FFFF" shape-type="realdata" id="HCAB_JH_TI24093E" font-size="12.500000" x="868" y="562">XXX</text>
<text font-family="Arial" text-anchor="start" fill="#00FFFF" shape-type="realdata" id="HCAB_JH_TI24094E" font-size="12.500000" x="869" y="583">XXX</text>
<text font-family="Arial" text-anchor="start" fill="#00FFFF" shape-type="realdata" id="HCAB_JH_TT24082E" font-size="12.500000" x="870" y="606">XXX</text>
<text font-family="Arial" text-anchor="start" fill="#00FFFF" shape-type="realdata" id="HCAB_JH_PDT24081E" font-size="12.500000" x="870" y="626">XXX</text>
<text font-family="Arial" text-anchor="start" fill="#00FFFF" shape-type="realdata" id="HCAB_JH_PT24083E" font-size="12.500000" x="870" y="648">XXX</text>
<text font-family="Arial" text-anchor="start" fill="#00FFFF" shape-type="realdata" id="HCAB_JH_PT24084E" font-size="12.500000" x="870" y="671">XXX</text>
<text font-family="Arial" text-anchor="start" fill="#00FFFF" shape-type="realdata" id="HCAB_JH_PT24085E" font-size="12.500000" x="870" y="692">XXX</text>
</svg>
