<?xml version="1.0"?>
<?xml-stylesheet type='text/javascript'?>
<!--Draw SVG: 2019-11-25 09:41:23 47-Monday-->
<svg xmlns="http://www.w3.org/2000/svg" xmlns:xlink="http://www.w3.org/1999/xlink" version="1.1" style="background-color:#000000" width="1066" height="800" viewbox="0 0 1066 800">
<defs>
<linearGradient x1="0.000000%" y1="50.000000%" x2="100.000000%" y2="50.000000%" id="lgradient2">
<stop offset="0" stop-color="#2C2C2C" stop-opacity="1"/>
<stop offset="0.5" stop-color="#FFFFFF" stop-opacity="1"/>
<stop offset="1" stop-color="#2C2C2C" stop-opacity="1"/>
</linearGradient>
<linearGradient x1="0.000000%" y1="50.000000%" x2="100.000000%" y2="50.000000%" id="lgradient40">
<stop offset="0" stop-color="#2C2C2C" stop-opacity="1"/>
<stop offset="0.5" stop-color="#FFFFFF" stop-opacity="1"/>
<stop offset="1" stop-color="#2C2C2C" stop-opacity="1"/>
</linearGradient>
<linearGradient x1="0.000000%" y1="50.000000%" x2="100.000000%" y2="50.000000%" id="lgradient41">
<stop offset="0" stop-color="#2C2C2C" stop-opacity="1"/>
<stop offset="0.5" stop-color="#FFFFFF" stop-opacity="1"/>
<stop offset="1" stop-color="#2C2C2C" stop-opacity="1"/>
</linearGradient>
<linearGradient x1="0.000000%" y1="50.000000%" x2="100.000000%" y2="50.000000%" id="lgradient42_0">
<stop offset="0" stop-color="#2C2C2C" stop-opacity="1"/>
<stop offset="0.5" stop-color="#FFFFFF" stop-opacity="1"/>
<stop offset="1" stop-color="#2C2C2C" stop-opacity="1"/>
</linearGradient>
<linearGradient x1="0.000000%" y1="50.000000%" x2="100.000000%" y2="50.000000%" id="lgradient43_0">
<stop offset="0" stop-color="#2C2C2C" stop-opacity="1"/>
<stop offset="0.5" stop-color="#FFFFFF" stop-opacity="1"/>
<stop offset="1" stop-color="#2C2C2C" stop-opacity="1"/>
</linearGradient>
<linearGradient x1="50.000000%" y1="0.000000%" x2="50.000000%" y2="100.000000%" id="lgradient44">
<stop offset="0" stop-color="#2C2C2C" stop-opacity="1"/>
<stop offset="0.5" stop-color="#FFFFFF" stop-opacity="1"/>
<stop offset="1" stop-color="#2C2C2C" stop-opacity="1"/>
</linearGradient>
<radialGradient cx="50.000000%" cy="50.000000%" r="50.000000%" fx="50.000000%" fy="50.000000%" id="rgradient47_2_1">
<stop offset="0%" stop-color="#FFFFFF" stop-opacity="1"/>
<stop offset="100%" stop-color="#2C2C2C" stop-opacity="1"/>
</radialGradient>
</defs>
<line shape-type="limitline" x1="489" y1="507" x2="489" y2="490" fill="#00FFFF" stroke="#E700FF" stroke-width="3.00"/>
<rect shape-type="roundRectangle" rx="20" ry="20" x="473" y="538" width="35" height="85" fill="url(#lgradient2)" stroke="#C0C0C0" stroke-width="2.00"/>
<rect shape-type="rectangle" x="3" y="3" width="1055" height="47" fill="#9C9A9C" stroke="#C0C0C0" stroke-width="1.00"/>
<rect shape-type="rectangle" x="348" y="8" width="470" height="36" fill="#E7E3E7" stroke="#E7E3E7" stroke-width="1.00"/>
<rect shape-type="rectangle" x="11" y="9" width="72" height="32" fill="#E7E3E7" stroke="#E7E3E7" stroke-width="1.00"/>
<text font-family="宋体" text-anchor="start" fill="#000000" shape-type="text" id="" font-size="11.750000" font-weight="bold" x="30" y="29">M411</text>
<text font-family="宋体" text-anchor="start" fill="#000000" shape-type="text" id="" font-size="26.750000" font-weight="bold" x="532" y="37">T401</text>
<line shape-type="limitline" x1="230" y1="102" x2="104" y2="102" fill="#00FFFF" stroke="#FFFFFF" stroke-width="3.00"/>
<line shape-type="limitline" x1="232" y1="102" x2="232" y2="450" fill="#FFFFFF" stroke="#FFFFFF" stroke-width="3.00"/>
<line shape-type="limitline" x1="59" y1="323" x2="59" y2="182" fill="#FFFFFF" stroke="#FFFFFF" stroke-width="3.00"/>
<line shape-type="limitline" x1="231" y1="324" x2="59" y2="324" fill="#FFFFFF" stroke="#FFFFFF" stroke-width="3.00"/>
<line shape-type="limitline" x1="211" y1="239" x2="78" y2="239" fill="#00FFFF" stroke="#FFFFFF" stroke-width="3.00" stroke-dasharray="5 10"/>
<line shape-type="line" x1="45" y1="183" x2="58" y2="170" fill="#FFFFFF" stroke="#FFFFFF" stroke-width="3.00"/>
<line shape-type="line" x1="71" y1="185" x2="58" y2="172" fill="#FFFFFF" stroke="#FFFFFF" stroke-width="3.00"/>
<line shape-type="limitline" x1="139" y1="536" x2="71" y2="536" fill="#E700FF" stroke="#E700FF" stroke-width="3.00"/>
<line shape-type="limitline" x1="361" y1="612" x2="327" y2="612" fill="#E700FF" stroke="#E700FF" stroke-width="3.00"/>
<line shape-type="limitline" x1="398" y1="601" x2="376" y2="601" fill="#E700FF" stroke="#E700FF" stroke-width="3.00"/>
<line shape-type="limitline" x1="400" y1="600" x2="400" y2="72" fill="#E700FF" stroke="#E700FF" stroke-width="3.00"/>
<line shape-type="limitline" x1="978" y1="72" x2="399" y2="72" fill="#E700FF" stroke="#E700FF" stroke-width="3.00"/>
<line shape-type="limitline" x1="978" y1="110" x2="399" y2="110" fill="#E700FF" stroke="#E700FF" stroke-width="3.00"/>
<line shape-type="limitline" x1="978" y1="150" x2="399" y2="150" fill="#E700FF" stroke="#E700FF" stroke-width="3.00"/>
<line shape-type="limitline" x1="949" y1="192" x2="559" y2="192" fill="#E700FF" stroke="#E700FF" stroke-width="3.00"/>
<line shape-type="limitline" x1="422" y1="494" x2="422" y2="151" fill="#E700FF" stroke="#E700FF" stroke-width="3.00"/>
<line shape-type="limitline" x1="490" y1="492" x2="422" y2="492" fill="#E700FF" stroke="#E700FF" stroke-width="3.00"/>
<line shape-type="limitline" x1="554" y1="488" x2="554" y2="191" fill="#E700FF" stroke="#E700FF" stroke-width="3.00"/>
<line shape-type="limitline" x1="533" y1="508" x2="533" y2="416" fill="#218200" stroke="#218200" stroke-width="3.00"/>
<line shape-type="limitline" x1="714" y1="413" x2="531" y2="413" fill="#218200" stroke="#218200" stroke-width="3.00"/>
<line shape-type="limitline" x1="715" y1="683" x2="715" y2="413" fill="#218200" stroke="#218200" stroke-width="3.00"/>
<line shape-type="limitline" x1="977" y1="692" x2="104" y2="692" fill="#218200" stroke="#218200" stroke-width="3.00"/>
<line shape-type="limitline" x1="734" y1="687" x2="734" y2="254" fill="#00FFFF" stroke="#00FFFF" stroke-width="3.00"/>
<line shape-type="limitline" x1="949" y1="254" x2="734" y2="254" fill="#00FFFF" stroke="#00FFFF" stroke-width="3.00"/>
<line shape-type="limitline" x1="956" y1="324" x2="795" y2="324" fill="#00FFFF" stroke="#FFFF00" stroke-width="3.00"/>
<line shape-type="limitline" x1="794" y1="688" x2="794" y2="322" fill="#00FFFF" stroke="#FFFF00" stroke-width="3.00"/>
<line shape-type="limitline" x1="947" y1="528" x2="795" y2="528" fill="#00FFFF" stroke="#FFFF00" stroke-width="3.00"/>
<line shape-type="limitline" x1="946" y1="528" x2="946" y2="371" fill="#00FFFF" stroke="#FFFF00" stroke-width="3.00"/>
<line shape-type="limitline" x1="967" y1="372" x2="946" y2="372" fill="#00FFFF" stroke="#FFFF00" stroke-width="3.00"/>
<line shape-type="limitline" x1="852" y1="454" x2="813" y2="454" fill="#00FFFF" stroke="#FFFFFF" stroke-width="3.00" stroke-dasharray="5 10"/>
<line shape-type="limitline" x1="853" y1="555" x2="853" y2="454" fill="#00FFFF" stroke="#FFFFFF" stroke-width="3.00" stroke-dasharray="5 10"/>
<line shape-type="limitline" x1="843" y1="688" x2="843" y2="608" fill="#00FFFF" stroke="#FFFFFF" stroke-width="3.00" stroke-dasharray="5 10"/>
<polygon shape-type="trapezium" points="328,504 137,504 233,449 233,449 328,504" fill="url(#lgradient40)" stroke="#C0C0C0" stroke-width="2.00"/>
<rect shape-type="rectangle" x="136" y="504" width="193" height="135" fill="url(#lgradient41)" stroke="#C0C0C0" stroke-width="2.00"/>
<g shape-type="group">
<rect shape-type="rectangle" x="478" y="502" width="22" height="20" fill="url(#lgradient42_0)" stroke="#C0C0C0" stroke-width="2.00"/>
<g shape-type="group">
<line shape-type="limitline" x1="473" y1="499" x2="503" y2="500" fill="#00FFFF" stroke="#C0C0C0" stroke-width="3.00"/>
<line shape-type="limitline" x1="474" y1="502" x2="505" y2="503" fill="#00FFFF" stroke="#C0C0C0" stroke-width="3.00"/>
</g>
</g>
<g shape-type="group">
<rect shape-type="rectangle" x="545" y="502" width="16" height="21" fill="url(#lgradient43_0)" stroke="#C0C0C0" stroke-width="2.00"/>
<g shape-type="group">
<line shape-type="limitline" x1="542" y1="499" x2="564" y2="500" fill="#00FFFF" stroke="#C0C0C0" stroke-width="3.00"/>
<line shape-type="limitline" x1="542" y1="502" x2="565" y2="503" fill="#00FFFF" stroke="#C0C0C0" stroke-width="3.00"/>
</g>
</g>
<rect shape-type="roundRectangle" rx="20" ry="20" x="423" y="510" width="174" height="67" fill="url(#lgradient44)" stroke="#C0C0C0" stroke-width="2.00"/>
<polygon shape-type="trapezium" points="70,328 70,320 58,324 58,324 70,328" fill="#FFFFFF" stroke="#FFFFFF" stroke-width="2.00"/>
<g shape-type="group">
<path shape-type="chord" d="M 70,249 A 20,13 0 1,0 70,227 z" fill="#C0C0C0" stroke="#C0C0C0" stroke-width="2.00"/>
<g shape-type="group">
<polygon shape-type="trapezium" points="53,226 64,226 58,236 58,236 53,226" fill="#C0C0C0" stroke="#C0C0C0" stroke-width="1.00"/>
<polygon shape-type="trapezium" points="53,248 64,248 58,236 58,236 53,248" fill="#C0C0C0" stroke="#C0C0C0" stroke-width="1.00"/>
</g>
<line shape-type="limitline" x1="71" y1="236" x2="63" y2="237" fill="#00FFFF" stroke="#C0C0C0" stroke-width="1.00"/>
<polygon shape-type="trapezium" points="68,233 68,241 58,237 58,237 68,233" fill="#C0C0C0" stroke="#C0C0C0" stroke-width="1.00"/>
</g>
<g shape-type="group">
<rect shape-type="rectangle" x="348" y="621" width="6" height="8" fill="#808080" stroke="#FFFFFF" stroke-width="2.00"/>
<rect shape-type="rectangle" x="367" y="621" width="6" height="8" fill="#808080" stroke="#FFFFFF" stroke-width="2.00"/>
<g shape-type="group">
<rect shape-type="rectangle" x="359" y="599" width="21" height="5" fill="#808080" stroke="#000000" stroke-width="1.00"/>
<ellipse shape-type="ellipse" cx="361" cy="610" rx="16" ry="16" fill="url(#rgradient47_2_1)" stroke="#000000" stroke-width="1.00"/>
</g>
</g>
<g shape-type="group">
<path shape-type="chord" d="M 805,466 A 21,13 0 1,0 805,444 z" fill="#C0C0C0" stroke="#C0C0C0" stroke-width="2.00"/>
<g shape-type="group">
<polygon shape-type="trapezium" points="788,443 798,443 793,453 793,453 788,443" fill="#C0C0C0" stroke="#C0C0C0" stroke-width="1.00"/>
<polygon shape-type="trapezium" points="788,463 798,463 793,452 793,452 788,463" fill="#C0C0C0" stroke="#C0C0C0" stroke-width="1.00"/>
</g>
<line shape-type="limitline" x1="805" y1="453" x2="797" y2="454" fill="#00FFFF" stroke="#C0C0C0" stroke-width="1.00"/>
<polygon shape-type="trapezium" points="802,450 802,457 793,454 793,454 802,450" fill="#C0C0C0" stroke="#C0C0C0" stroke-width="1.00"/>
</g>
<g shape-type="group">
<path shape-type="chord" d="M 219,227 A 21,13 0 1,0 219,249 z" fill="#C0C0C0" stroke="#C0C0C0" stroke-width="2.00"/>
<g shape-type="group">
<polygon shape-type="trapezium" points="235,226 225,226 230,236 230,236 235,226" fill="#C0C0C0" stroke="#C0C0C0" stroke-width="1.00"/>
<polygon shape-type="trapezium" points="235,248 225,248 230,236 230,236 235,248" fill="#C0C0C0" stroke="#C0C0C0" stroke-width="1.00"/>
</g>
<line shape-type="limitline" x1="218" y1="236" x2="226" y2="237" fill="#00FFFF" stroke="#C0C0C0" stroke-width="1.00"/>
<polygon shape-type="trapezium" points="221,233 221,241 230,237 230,237 221,233" fill="#C0C0C0" stroke="#C0C0C0" stroke-width="1.00"/>
</g>
<g shape-type="group">
<polygon shape-type="trapezium" points="957,262 957,246 942,254 942,254 957,262" fill="#808080" stroke="#808080" stroke-width="2.00"/>
<rect shape-type="rectangle" x="956" y="250" width="10" height="8" fill="#808080" stroke="#808080" stroke-width="2.00"/>
</g>
<g shape-type="group">
<polygon shape-type="trapezium" points="63,543 63,528 78,535 78,535 63,543" fill="#808080" stroke="#808080" stroke-width="2.00"/>
<rect shape-type="rectangle" x="54" y="531" width="10" height="8" fill="#808080" stroke="#808080" stroke-width="2.00"/>
</g>
<g shape-type="group">
<polygon shape-type="trapezium" points="982,81 982,65 998,73 998,73 982,81" fill="#808080" stroke="#808080" stroke-width="2.00"/>
<rect shape-type="rectangle" x="974" y="69" width="9" height="8" fill="#808080" stroke="#808080" stroke-width="2.00"/>
</g>
<g shape-type="group">
<polygon shape-type="trapezium" points="983,118 983,102 999,110 999,110 983,118" fill="#808080" stroke="#808080" stroke-width="2.00"/>
<rect shape-type="rectangle" x="975" y="105" width="9" height="9" fill="#808080" stroke="#808080" stroke-width="2.00"/>
</g>
<g shape-type="group">
<polygon shape-type="trapezium" points="983,158 983,142 999,150 999,150 983,158" fill="#808080" stroke="#808080" stroke-width="2.00"/>
<rect shape-type="rectangle" x="975" y="146" width="9" height="8" fill="#808080" stroke="#808080" stroke-width="2.00"/>
</g>
<polygon shape-type="trapezium" points="433,496 433,486 421,491 421,491 433,496" fill="#E700FF" stroke="#E700FF" stroke-width="2.00"/>
<polygon shape-type="trapezium" points="805,532 805,524 793,528 793,528 805,532" fill="#FFFF00" stroke="#FFFF00" stroke-width="2.00"/>
<polygon shape-type="trapezium" points="807,328 807,320 795,324 795,324 807,328" fill="#FFFF00" stroke="#FFFF00" stroke-width="2.00"/>
<polygon shape-type="trapezium" points="219,106 219,98 231,102 231,102 219,106" fill="#FFFFFF" stroke="#FFFFFF" stroke-width="2.00"/>
<polygon shape-type="trapezium" points="384,606 384,595 399,600 399,600 384,606" fill="#E700FF" stroke="#E700FF" stroke-width="2.00"/>
<polygon shape-type="trapezium" points="969,696 969,685 984,690 984,690 969,696" fill="#218200" stroke="#218200" stroke-width="2.00"/>
<polygon shape-type="trapezium" points="565,195 565,187 553,191 553,191 565,195" fill="#E700FF" stroke="#E700FF" stroke-width="2.00"/>
<polygon shape-type="trapezium" points="416,164 426,164 421,150 421,150 416,164" fill="#E700FF" stroke="#E700FF" stroke-width="2.00"/>
<polygon shape-type="trapezium" points="394,164 404,164 399,150 399,150 394,164" fill="#E700FF" stroke="#E700FF" stroke-width="2.00"/>
<polygon shape-type="trapezium" points="394,123 404,123 399,109 399,109 394,123" fill="#E700FF" stroke="#E700FF" stroke-width="2.00"/>
<polygon shape-type="trapezium" points="394,86 404,86 399,72 399,72 394,86" fill="#E700FF" stroke="#E700FF" stroke-width="2.00"/>
<polygon shape-type="trapezium" points="527,427 537,427 532,413 532,413 527,427" fill="#218200" stroke="#218200" stroke-width="2.00"/>
<polygon shape-type="trapezium" points="549,485 559,485 554,499 554,499 549,485" fill="#E700FF" stroke="#E700FF" stroke-width="2.00"/>
<polygon shape-type="trapezium" points="709,678 719,678 714,692 714,692 709,678" fill="#218200" stroke="#218200" stroke-width="2.00"/>
<polygon shape-type="trapezium" points="729,678 739,678 734,692 734,692 729,678" fill="#00FFFF" stroke="#00FFFF" stroke-width="2.00"/>
<polygon shape-type="trapezium" points="788,677 798,677 793,691 793,691 788,677" fill="#FFFF00" stroke="#FFFF00" stroke-width="2.00"/>
<polygon shape-type="trapezium" points="123,542 123,531 138,536 138,536 123,542" fill="#E700FF" stroke="#E700FF" stroke-width="2.00"/>
<rect shape-type="rectangle" x="99" y="212" width="97" height="25" fill="#7B7D7B" stroke="#C0C0C0" stroke-width="3.00"/>
<rect shape-type="rectangle" x="99" y="237" width="56" height="25" fill="#4A494A" stroke="#C0C0C0" stroke-width="3.00"/>
<text font-family="宋体" text-anchor="start" fill="#FFFFFF" shape-type="text" id="" font-size="11.000000" font-weight="bold" x="119" y="229">PC24016</text>
<rect shape-type="rectangle" x="155" y="237" width="41" height="25" fill="#4A494A" stroke="#C0C0C0" stroke-width="3.00"/>
<rect shape-type="rectangle" x="443" y="210" width="60" height="26" fill="#4A494A" stroke="#C0C0C0" stroke-width="3.00"/>
<rect shape-type="rectangle" x="503" y="210" width="36" height="26" fill="#4A494A" stroke="#C0C0C0" stroke-width="3.00"/>
<text font-family="宋体" text-anchor="start" fill="#00FF42" shape-type="text" id="" font-size="10.250000" font-weight="bold" x="504" y="226">DEG_C</text>
<text font-family="宋体" text-anchor="start" fill="#00FF42" shape-type="text" id="" font-size="10.250000" font-weight="bold" x="158" y="252">KPa(g)</text>
<rect shape-type="rectangle" x="810" y="556" width="97" height="25" fill="#7B7D7B" stroke="#C0C0C0" stroke-width="3.00"/>
<rect shape-type="rectangle" x="810" y="581" width="56" height="25" fill="#4A494A" stroke="#C0C0C0" stroke-width="3.00"/>
<text font-family="宋体" text-anchor="start" fill="#FFFFFF" shape-type="text" id="" font-size="11.000000" font-weight="bold" x="830" y="573">TC24059</text>
<rect shape-type="rectangle" x="866" y="581" width="41" height="25" fill="#4A494A" stroke="#C0C0C0" stroke-width="3.00"/>
<text font-family="宋体" text-anchor="start" fill="#00FF42" shape-type="text" id="" font-size="10.250000" font-weight="bold" x="869" y="597">DEG_C</text>
<rect shape-type="rectangle" x="36" y="573" width="60" height="26" fill="#4A494A" stroke="#C0C0C0" stroke-width="3.00"/>
<rect shape-type="rectangle" x="96" y="573" width="36" height="26" fill="#4A494A" stroke="#C0C0C0" stroke-width="3.00"/>
<text font-family="宋体" text-anchor="start" fill="#00FF42" shape-type="text" id="" font-size="10.250000" font-weight="bold" x="111" y="589">%</text>
<rect shape-type="rectangle" x="441" y="369" width="55" height="26" fill="#4A494A" stroke="#C0C0C0" stroke-width="3.00"/>
<rect shape-type="rectangle" x="495" y="369" width="42" height="26" fill="#4A494A" stroke="#C0C0C0" stroke-width="3.00"/>
<text font-family="宋体" text-anchor="start" fill="#00FF42" shape-type="text" id="" font-size="10.250000" font-weight="bold" x="500" y="385">MPa(g)</text>
<rect shape-type="rectangle" x="936" y="589" width="55" height="26" fill="#4A494A" stroke="#C0C0C0" stroke-width="3.00"/>
<rect shape-type="rectangle" x="990" y="589" width="42" height="26" fill="#4A494A" stroke="#C0C0C0" stroke-width="3.00"/>
<text font-family="宋体" text-anchor="start" fill="#00FF42" shape-type="text" id="" font-size="10.250000" font-weight="bold" x="1007" y="605">%</text>
<rect shape-type="rectangle" x="604" y="519" width="55" height="26" fill="#4A494A" stroke="#C0C0C0" stroke-width="3.00"/>
<rect shape-type="rectangle" x="658" y="519" width="42" height="26" fill="#4A494A" stroke="#C0C0C0" stroke-width="3.00"/>
<text font-family="宋体" text-anchor="start" fill="#00FF42" shape-type="text" id="" font-size="10.250000" font-weight="bold" x="675" y="535">%</text>
<g shape-type="group">
<path shape-type="chord" d="M 936,411 A 21,14 0 1,0 936,434 z" fill="#C0C0C0" stroke="#C0C0C0" stroke-width="2.00"/>
<g shape-type="group">
<polygon shape-type="trapezium" points="952,412 942,412 947,422 947,422 952,412" fill="#C0C0C0" stroke="#C0C0C0" stroke-width="1.00"/>
<polygon shape-type="trapezium" points="952,432 942,432 947,421 947,421 952,432" fill="#C0C0C0" stroke="#C0C0C0" stroke-width="1.00"/>
</g>
<line shape-type="limitline" x1="934" y1="421" x2="943" y2="422" fill="#00FFFF" stroke="#C0C0C0" stroke-width="1.00"/>
<polygon shape-type="trapezium" points="938,418 938,425 947,422 947,422 938,418" fill="#C0C0C0" stroke="#C0C0C0" stroke-width="1.00"/>
</g>
<text font-family="宋体" text-anchor="start" fill="#FFFFFF" shape-type="text" id="" font-size="12.500000" x="20" y="97">LP N2 HEAD</text>
<text font-family="宋体" text-anchor="start" fill="#FFFFFF" shape-type="text" id="" font-size="12.500000" x="48" y="114">B.L.</text>
<text font-family="宋体" text-anchor="start" fill="#FFFFFF" shape-type="text" id="" font-size="12.500000" x="46" y="164">ATM</text>
<text font-family="宋体" text-anchor="start" fill="#FFFFFF" shape-type="text" id="" font-size="12.500000" x="17" y="540">E411</text>
<text font-family="宋体" text-anchor="start" fill="#FFFFFF" shape-type="text" id="" font-size="12.500000" x="45" y="686">COLD</text>
<text font-family="宋体" text-anchor="start" fill="#FFFFFF" shape-type="text" id="" font-size="12.500000" x="18" y="703">FLARE HEAD.</text>
<text font-family="宋体" text-anchor="start" fill="#FFFFFF" shape-type="text" id="" font-size="12.500000" x="519" y="595">V408</text>
<text font-family="宋体" text-anchor="start" fill="#FFFFFF" shape-type="text" id="" font-size="12.500000" x="1003" y="78">C403</text>
<text font-family="宋体" text-anchor="start" fill="#FFFFFF" shape-type="text" id="" font-size="12.500000" x="1005" y="116">V408</text>
<text font-family="宋体" text-anchor="start" fill="#FFFFFF" shape-type="text" id="" font-size="12.500000" x="1004" y="156">C405</text>
<text font-family="宋体" text-anchor="start" fill="#FFFFFF" shape-type="text" id="" font-size="12.500000" x="958" y="194">DRAIN HEAD.</text>
<text font-family="宋体" text-anchor="start" fill="#FFFFFF" shape-type="text" id="" font-size="12.500000" x="971" y="258">SUC. K401</text>
<text font-family="宋体" text-anchor="start" fill="#FFFFFF" shape-type="text" id="" font-size="12.500000" x="964" y="326">LLP STEAM</text>
<text font-family="宋体" text-anchor="start" fill="#FFFFFF" shape-type="text" id="" font-size="12.500000" x="972" y="373">LP STEAM</text>
<text font-family="宋体" text-anchor="start" fill="#FFFFFF" shape-type="text" id="" font-size="12.500000" x="988" y="678">BD AND</text>
<text font-family="宋体" text-anchor="start" fill="#FFFFFF" shape-type="text" id="" font-size="12.500000" x="992" y="694">FLARE</text>
<text font-family="宋体" text-anchor="start" fill="#FFFFFF" shape-type="text" id="" font-size="12.500000" x="988" y="712">SYSTEM</text>
<text font-family="宋体" text-anchor="start" fill="#FFFFFF" shape-type="text" id="" font-size="12.500000" x="940" y="563">FLARE DRUM</text>
<text font-family="宋体" text-anchor="start" fill="#FFFFFF" shape-type="text" id="" font-size="12.500000" x="962" y="578">LEVEL</text>
<text font-family="宋体" text-anchor="start" fill="#FFFFFF" shape-type="text" id="" font-size="12.500000" x="959" y="426">TV24060</text>
<text font-family="宋体" text-anchor="start" fill="#000000" shape-type="text" id="" font-size="12.500000" font-weight="bold" x="503" y="538">P407</text>
<text font-family="宋体" text-anchor="start" fill="#000000" shape-type="text" id="" font-size="12.500000" font-weight="bold" x="215" y="578">T401</text>
<text font-family="宋体" text-anchor="start" fill="#FFFFFF" shape-type="text" id="" font-size="12.500000" x="347" y="647">P408</text>
<rect shape-type="rectangle" x="1" y="738" width="1069" height="65" fill="#BDBABD" stroke="#BDBABD" stroke-width="1.00"/>
<g shape-type="group">
<rect shape-type="rectangle" x="998" y="751" width="48" height="43" fill="#C6C3C6" stroke="#C6C3C6" stroke-width="1.00"/>
<polygon shape-type="trapezium" points="1015,782 1015,762 1033,772 1033,772 1015,782" fill="#4A494A" stroke="#C6C3C6" stroke-width="2.00"/>
</g>
<g shape-type="group">
<rect shape-type="rectangle" x="14" y="751" width="47" height="40" fill="#C6C3C6" stroke="#C6C3C6" stroke-width="1.00"/>
<polygon shape-type="trapezium" points="42,779 42,759 23,769 23,769 42,779" fill="#4A494A" stroke="#C6C3C6" stroke-width="2.00"/>
</g>
<a xlink:href="M3401.svg">
<g shape-type="button">
<rect fill="#C0C0C0" stroke-width="0.3" stroke="#FFFFFF" x="96" y="749" width="120" height="43" shape-type="buttonrect"/>
<text font-family="宋体" text-anchor="middle" dominant-baseline="middle" fill="#000000" font-size="10.500000" x="156" y="775" shape-type="buttontext">NEW CH3OH ABSORBER</text>
</g>
</a>
<a xlink:href="m401.svg">
<g shape-type="button">
<rect fill="#C0C0C0" stroke-width="0.3" stroke="#FFFFFF" x="228" y="749" width="92" height="43" shape-type="buttonrect"/>
<text font-family="宋体" text-anchor="middle" dominant-baseline="middle" fill="#000000" font-size="13.500000" x="274" y="776" shape-type="buttontext">E401</text>
</g>
</a>
<a xlink:href="M402.svg">
<g shape-type="button">
<rect fill="#C0C0C0" stroke-width="0.3" stroke="#FFFFFF" x="334" y="748" width="92" height="43" shape-type="buttonrect"/>
<text font-family="宋体" text-anchor="middle" dominant-baseline="middle" fill="#000000" font-size="13.500000" x="380" y="775" shape-type="buttontext">C401</text>
</g>
</a>
<a xlink:href="M403.svg">
<g shape-type="button">
<rect fill="#C0C0C0" stroke-width="0.3" stroke="#FFFFFF" x="441" y="748" width="92" height="43" shape-type="buttonrect"/>
<text font-family="宋体" text-anchor="middle" dominant-baseline="middle" fill="#000000" font-size="10.500000" x="487" y="774" shape-type="buttontext">MEOH COOLING</text>
</g>
</a>
<a xlink:href="M404.svg">
<g shape-type="button">
<rect fill="#C0C0C0" stroke-width="0.3" stroke="#FFFFFF" x="546" y="749" width="92" height="43" shape-type="buttonrect"/>
<text font-family="宋体" text-anchor="middle" dominant-baseline="middle" fill="#000000" font-size="13.500000" x="592" y="776" shape-type="buttontext">C402</text>
</g>
</a>
<a xlink:href="m405.svg">
<g shape-type="button">
<rect fill="#C0C0C0" stroke-width="0.3" stroke="#FFFFFF" x="652" y="749" width="92" height="43" shape-type="buttonrect"/>
<text font-family="宋体" text-anchor="middle" dominant-baseline="middle" fill="#000000" font-size="13.500000" x="698" y="776" shape-type="buttontext">K401</text>
</g>
</a>
<a xlink:href="M406.svg">
<g shape-type="button">
<rect fill="#C0C0C0" stroke-width="0.3" stroke="#FFFFFF" x="756" y="749" width="92" height="43" shape-type="buttonrect"/>
<text font-family="宋体" text-anchor="middle" dominant-baseline="middle" fill="#000000" font-size="13.500000" x="802" y="776" shape-type="buttontext">C403</text>
</g>
</a>
<a xlink:href="M407.svg">
<g shape-type="button">
<rect fill="#C0C0C0" stroke-width="0.3" stroke="#FFFFFF" x="857" y="748" width="92" height="43" shape-type="buttonrect"/>
<text font-family="宋体" text-anchor="middle" dominant-baseline="middle" fill="#000000" font-size="13.500000" x="903" y="775" shape-type="buttontext">C404</text>
</g>
</a>
<text font-family="Arial" text-anchor="start" fill="#00FFFF" shape-type="realdata" id="HCAB_JH_PC24016" font-size="12.500000" x="103" y="254">XXX</text>
<text font-family="Arial" text-anchor="start" fill="#00FFFF" shape-type="realdata" id="HCAB_JH_LI24030" font-size="12.500000" x="44" y="589">XXXX</text>
<text font-family="Arial" text-anchor="start" fill="#00FFFF" shape-type="realdata" id="HCAB_JH_TI24056" font-size="12.500000" x="449" y="226">XXXX</text>
<text font-family="Arial" text-anchor="start" fill="#00FFFF" shape-type="realdata" id="HCAB_JH_PI24018" font-size="12.500000" x="446" y="385">XXXX</text>
<text font-family="Arial" text-anchor="start" fill="#00FFFF" shape-type="realdata" id="HCAB_JH_LI24031" font-size="12.500000" x="610" y="535">XXXX</text>
<text font-family="Arial" text-anchor="start" fill="#00FFFF" shape-type="realdata" id="HCAB_JH_TC24059" font-size="12.500000" x="816" y="597">XXXX</text>
<text font-family="Arial" text-anchor="start" fill="#00FFFF" shape-type="realdata" id="HCAB_JH_LT24034" font-size="12.500000" x="942" y="605">XXXX</text>
<a xlink:href="400_ML.svg">
<g shape-type="button">
<rect fill="#C0C0C0" stroke-width="0.3" stroke="#FFFFFF" x="951" y="11" width="98" height="30" shape-type="buttonrect"/>
<text font-family="宋体" text-anchor="middle" dominant-baseline="middle" fill="#800000" font-size="13.500000" font-weight="bold" x="1000" y="32" shape-type="buttontext">返回上一级</text>
</g>
</a>
</svg>
