<?xml version="1.0"?>
<?xml-stylesheet type='text/javascript'?>
<!--Draw SVG: 2019-11-25 09:41:42 47-Monday-->
<svg xmlns="http://www.w3.org/2000/svg" xmlns:xlink="http://www.w3.org/1999/xlink" version="1.1" style="background-color:#000000" width="1066" height="800" viewbox="0 0 1066 800">
<defs>
<marker id="Arrow2" markerUnits="strokeWidth" markerWidth="6" markerHeight="6" viewBox="0 0 6 6" refX="3" refY="3" orient="auto"><path d="M5,1 L1,3 L5,5 L3,3 L5,1" style="fill: #000000;"/></marker>
<marker id="Arrow1" markerUnits="strokeWidth" markerWidth="6" markerHeight="6" viewBox="0 0 6 6" refX="3" refY="3" orient="auto"><path d="M1,1 L5,3 L1,5 L3,3 L1,1" style="fill: #000000;"/></marker>
<linearGradient x1="0.000000%" y1="50.000000%" x2="100.000000%" y2="50.000000%" id="lgradient13">
<stop offset="0" stop-color="#2C2C2C" stop-opacity="1"/>
<stop offset="0.5" stop-color="#FFFFFF" stop-opacity="1"/>
<stop offset="1" stop-color="#2C2C2C" stop-opacity="1"/>
</linearGradient>
<linearGradient x1="0.000000%" y1="50.000000%" x2="100.000000%" y2="50.000000%" id="lgradient14">
<stop offset="0" stop-color="#2C2C2C" stop-opacity="1"/>
<stop offset="0.5" stop-color="#FFFFFF" stop-opacity="1"/>
<stop offset="1" stop-color="#2C2C2C" stop-opacity="1"/>
</linearGradient>
<linearGradient x1="0.000000%" y1="50.000000%" x2="100.000000%" y2="50.000000%" id="lgradient15">
<stop offset="0" stop-color="#2C2C2C" stop-opacity="1"/>
<stop offset="0.5" stop-color="#FFFFFF" stop-opacity="1"/>
<stop offset="1" stop-color="#2C2C2C" stop-opacity="1"/>
</linearGradient>
<linearGradient x1="0.000000%" y1="50.000000%" x2="100.000000%" y2="50.000000%" id="lgradient16">
<stop offset="0" stop-color="#2C2C2C" stop-opacity="1"/>
<stop offset="0.5" stop-color="#FFFFFF" stop-opacity="1"/>
<stop offset="1" stop-color="#2C2C2C" stop-opacity="1"/>
</linearGradient>
<linearGradient x1="0.000000%" y1="50.000000%" x2="100.000000%" y2="50.000000%" id="lgradient17">
<stop offset="0" stop-color="#2C2C2C" stop-opacity="1"/>
<stop offset="0.5" stop-color="#FFFFFF" stop-opacity="1"/>
<stop offset="1" stop-color="#2C2C2C" stop-opacity="1"/>
</linearGradient>
<linearGradient x1="0.000000%" y1="50.000000%" x2="100.000000%" y2="50.000000%" id="lgradient103_0">
<stop offset="0" stop-color="#626262" stop-opacity="1"/>
<stop offset="0.5" stop-color="#C0C0C0" stop-opacity="1"/>
<stop offset="1" stop-color="#626262" stop-opacity="1"/>
</linearGradient>
<linearGradient x1="0.000000%" y1="50.000000%" x2="100.000000%" y2="50.000000%" id="lgradient103_1_0">
<stop offset="0" stop-color="#2C2C2C" stop-opacity="1"/>
<stop offset="0.5" stop-color="#FFFFFF" stop-opacity="1"/>
<stop offset="1" stop-color="#2C2C2C" stop-opacity="1"/>
</linearGradient>
<linearGradient x1="0.000000%" y1="50.000000%" x2="100.000000%" y2="50.000000%" id="lgradient103_1_1">
<stop offset="0" stop-color="#2C2C2C" stop-opacity="1"/>
<stop offset="0.5" stop-color="#FFFFFF" stop-opacity="1"/>
<stop offset="1" stop-color="#2C2C2C" stop-opacity="1"/>
</linearGradient>
<linearGradient x1="0.000000%" y1="50.000000%" x2="100.000000%" y2="50.000000%" id="lgradient104_2_2">
<stop offset="0" stop-color="#545454" stop-opacity="1"/>
<stop offset="0.5" stop-color="#D8D8D8" stop-opacity="1"/>
<stop offset="1" stop-color="#545454" stop-opacity="1"/>
</linearGradient>
<linearGradient x1="0.000000%" y1="50.000000%" x2="100.000000%" y2="50.000000%" id="lgradient104_2_3_0">
<stop offset="0" stop-color="#696969" stop-opacity="1"/>
<stop offset="0.5" stop-color="#D8D8D8" stop-opacity="1"/>
<stop offset="1" stop-color="#696969" stop-opacity="1"/>
</linearGradient>
<linearGradient x1="0.000000%" y1="50.000000%" x2="100.000000%" y2="50.000000%" id="lgradient105_2_2">
<stop offset="0" stop-color="#545454" stop-opacity="1"/>
<stop offset="0.5" stop-color="#D8D8D8" stop-opacity="1"/>
<stop offset="1" stop-color="#545454" stop-opacity="1"/>
</linearGradient>
<linearGradient x1="0.000000%" y1="50.000000%" x2="100.000000%" y2="50.000000%" id="lgradient105_2_3_0">
<stop offset="0" stop-color="#696969" stop-opacity="1"/>
<stop offset="0.5" stop-color="#D8D8D8" stop-opacity="1"/>
<stop offset="1" stop-color="#696969" stop-opacity="1"/>
</linearGradient>
<linearGradient x1="0.000000%" y1="50.000000%" x2="100.000000%" y2="50.000000%" id="lgradient107_2_2">
<stop offset="0" stop-color="#545454" stop-opacity="1"/>
<stop offset="0.5" stop-color="#D8D8D8" stop-opacity="1"/>
<stop offset="1" stop-color="#545454" stop-opacity="1"/>
</linearGradient>
<linearGradient x1="0.000000%" y1="50.000000%" x2="100.000000%" y2="50.000000%" id="lgradient107_2_3_0">
<stop offset="0" stop-color="#696969" stop-opacity="1"/>
<stop offset="0.5" stop-color="#D8D8D8" stop-opacity="1"/>
<stop offset="1" stop-color="#696969" stop-opacity="1"/>
</linearGradient>
<linearGradient x1="0.000000%" y1="50.000000%" x2="100.000000%" y2="50.000000%" id="lgradient108_2_2">
<stop offset="0" stop-color="#545454" stop-opacity="1"/>
<stop offset="0.5" stop-color="#D8D8D8" stop-opacity="1"/>
<stop offset="1" stop-color="#545454" stop-opacity="1"/>
</linearGradient>
<linearGradient x1="0.000000%" y1="50.000000%" x2="100.000000%" y2="50.000000%" id="lgradient108_2_3_0">
<stop offset="0" stop-color="#696969" stop-opacity="1"/>
<stop offset="0.5" stop-color="#D8D8D8" stop-opacity="1"/>
<stop offset="1" stop-color="#696969" stop-opacity="1"/>
</linearGradient>
<linearGradient x1="0.000000%" y1="50.000000%" x2="100.000000%" y2="50.000000%" id="lgradient109_0">
<stop offset="0" stop-color="#626262" stop-opacity="1"/>
<stop offset="0.5" stop-color="#C0C0C0" stop-opacity="1"/>
<stop offset="1" stop-color="#626262" stop-opacity="1"/>
</linearGradient>
<linearGradient x1="0.000000%" y1="50.000000%" x2="100.000000%" y2="50.000000%" id="lgradient109_1_0">
<stop offset="0" stop-color="#2C2C2C" stop-opacity="1"/>
<stop offset="0.5" stop-color="#FFFFFF" stop-opacity="1"/>
<stop offset="1" stop-color="#2C2C2C" stop-opacity="1"/>
</linearGradient>
<linearGradient x1="0.000000%" y1="50.000000%" x2="100.000000%" y2="50.000000%" id="lgradient109_1_1">
<stop offset="0" stop-color="#2C2C2C" stop-opacity="1"/>
<stop offset="0.5" stop-color="#FFFFFF" stop-opacity="1"/>
<stop offset="1" stop-color="#2C2C2C" stop-opacity="1"/>
</linearGradient>
<linearGradient x1="0.000000%" y1="50.000000%" x2="100.000000%" y2="50.000000%" id="lgradient110_2_2">
<stop offset="0" stop-color="#545454" stop-opacity="1"/>
<stop offset="0.5" stop-color="#D8D8D8" stop-opacity="1"/>
<stop offset="1" stop-color="#545454" stop-opacity="1"/>
</linearGradient>
<linearGradient x1="0.000000%" y1="50.000000%" x2="100.000000%" y2="50.000000%" id="lgradient110_2_3_0">
<stop offset="0" stop-color="#696969" stop-opacity="1"/>
<stop offset="0.5" stop-color="#D8D8D8" stop-opacity="1"/>
<stop offset="1" stop-color="#696969" stop-opacity="1"/>
</linearGradient>
<linearGradient x1="0.000000%" y1="50.000000%" x2="100.000000%" y2="50.000000%" id="lgradient133">
<stop offset="0" stop-color="#111111" stop-opacity="1"/>
<stop offset="0.5" stop-color="#636563" stop-opacity="1"/>
<stop offset="1" stop-color="#111111" stop-opacity="1"/>
</linearGradient>
</defs>
<line shape-type="limitline" x1="531" y1="71" x2="531" y2="128" fill="#00FFFF" stroke="#FFFFFF" stroke-width="3.00" stroke-dasharray="5 10"/>
<line shape-type="limitline" x1="787" y1="325" x2="727" y2="325" marker-start="url(#Arrow2)" fill="#00FFFF" stroke="#00FF00" stroke-width="2.00"/>
<line shape-type="limitline" x1="340" y1="649" x2="131" y2="649" fill="#00FFFF" stroke="#FFFF00" stroke-width="2.00"/>
<line shape-type="limitline" x1="204" y1="576" x2="204" y2="507" fill="#00FFFF" stroke="#FFFF00" stroke-width="2.00"/>
<rect shape-type="rectangle" x="0" y="1" width="1065" height="38" fill="#636563" stroke="#808080" stroke-width="1.00"/>
<rect shape-type="rectangle" x="282" y="3" width="500" height="33" stroke="#000000" stroke-width="1.00"/>
<text font-family="宋体" text-anchor="start" fill="#FFFFFF" shape-type="text" id="" font-size="26.750000" font-weight="bold" x="423" y="30">废碱储存输送</text>
<a xlink:href="\环己酮\废碱焚烧\FJFS_ML.svg">
<g shape-type="button">
<rect fill="#C0C0C0" stroke-width="0.3" stroke="#FFFFFF" x="960" y="3" width="100" height="33" shape-type="buttonrect"/>
<text font-family="宋体" text-anchor="middle" dominant-baseline="middle" fill="#800000" font-size="13.500000" font-weight="bold" x="1010" y="26" shape-type="buttontext">返回上一级</text>
</g>
</a>
<line shape-type="limitline" x1="259" y1="135" x2="54" y2="135" fill="#00FFFF" stroke="#FFFF00" stroke-width="2.00"/>
<line shape-type="limitline" x1="202" y1="170" x2="57" y2="170" fill="#00FFFF" stroke="#FFFF00" stroke-width="2.00"/>
<line shape-type="limitline" x1="203" y1="243" x2="203" y2="170" fill="#00FFFF" stroke="#FFFF00" stroke-width="2.00"/>
<line shape-type="limitline" x1="460" y1="197" x2="263" y2="197" marker-end="url(#Arrow1)" fill="#00FFFF" stroke="#FFFF00" stroke-width="2.00"/>
<polygon shape-type="trapezium" points="279,250 177,250 228,221 228,221 279,250" fill="url(#lgradient13)" stroke="#000000" stroke-width="2.00"/>
<rect shape-type="rectangle" x="179" y="250" width="99" height="90" fill="url(#lgradient14)" stroke="#000000" stroke-width="2.00"/>
<polygon shape-type="trapezium" points="280,577 178,577 229,548 229,548 280,577" fill="url(#lgradient15)" stroke="#000000" stroke-width="2.00"/>
<rect shape-type="rectangle" x="180" y="577" width="99" height="90" fill="url(#lgradient16)" stroke="#000000" stroke-width="2.00"/>
<rect shape-type="rectangle" x="641" y="292" width="88" height="51" fill="url(#lgradient17)" stroke="#000000" stroke-width="2.00"/>
<line shape-type="limitline" x1="321" y1="320" x2="277" y2="320" marker-start="url(#Arrow2)" fill="#00FFFF" stroke="#FFFF00" stroke-width="2.00"/>
<line shape-type="limitline" x1="372" y1="320" x2="319" y2="320" fill="#00FFFF" stroke="#FFFF00" stroke-width="2.00"/>
<line shape-type="limitline" x1="320" y1="361" x2="320" y2="320" fill="#00FFFF" stroke="#FFFF00" stroke-width="2.00"/>
<line shape-type="limitline" x1="419" y1="362" x2="320" y2="362" fill="#00FFFF" stroke="#FFFF00" stroke-width="2.00"/>
<line shape-type="limitline" x1="419" y1="318" x2="419" y2="362" fill="#00FFFF" stroke="#FFFF00" stroke-width="2.00"/>
<line shape-type="limitline" x1="452" y1="318" x2="419" y2="318" fill="#00FFFF" stroke="#FFFF00" stroke-width="2.00"/>
<line shape-type="limitline" x1="381" y1="278" x2="381" y2="310" fill="#00FFFF" stroke="#FFFF00" stroke-width="2.00"/>
<line shape-type="limitline" x1="460" y1="278" x2="381" y2="278" fill="#00FFFF" stroke="#FFFF00" stroke-width="2.00"/>
<line shape-type="limitline" x1="461" y1="131" x2="461" y2="306" fill="#00FFFF" stroke="#FFFF00" stroke-width="2.00"/>
<line shape-type="limitline" x1="997" y1="131" x2="461" y2="131" fill="#00FFFF" stroke="#FFFF00" stroke-width="2.00"/>
<line shape-type="limitline" x1="1000" y1="173" x2="461" y2="173" fill="#00FFFF" stroke="#FFFF00" stroke-width="2.00"/>
<line shape-type="limitline" x1="812" y1="267" x2="812" y2="323" fill="#00FFFF" stroke="#00FF00" stroke-width="2.00"/>
<line shape-type="limitline" x1="996" y1="267" x2="813" y2="267" fill="#00FFFF" stroke="#00FF00" stroke-width="2.00"/>
<line shape-type="limitline" x1="203" y1="507" x2="58" y2="507" fill="#00FFFF" stroke="#FFFF00" stroke-width="2.00"/>
<line shape-type="limitline" x1="266" y1="508" x2="266" y2="575" marker-start="url(#Arrow2)" fill="#00FFFF" stroke="#FFFF00" stroke-width="2.00"/>
<line shape-type="limitline" x1="266" y1="508" x2="592" y2="508" fill="#00FFFF" stroke="#FFFF00" stroke-width="2.00"/>
<line shape-type="limitline" x1="592" y1="514" x2="592" y2="632" marker-end="url(#Arrow1)" fill="#00FFFF" stroke="#FFFF00" stroke-width="2.00"/>
<line shape-type="limitline" x1="592" y1="460" x2="592" y2="517" fill="#00FFFF" stroke="#FFFF00" stroke-width="2.00"/>
<line shape-type="limitline" x1="995" y1="460" x2="592" y2="460" fill="#00FFFF" stroke="#FFFF00" stroke-width="2.00"/>
<line shape-type="limitline" x1="341" y1="649" x2="341" y2="687" fill="#00FFFF" stroke="#FFFF00" stroke-width="2.00"/>
<line shape-type="limitline" x1="131" y1="686" x2="131" y2="649" fill="#00FFFF" stroke="#FFFF00" stroke-width="2.00"/>
<line shape-type="limitline" x1="471" y1="687" x2="131" y2="687" marker-start="url(#Arrow2)" fill="#00FFFF" stroke="#FFFF00" stroke-width="2.00"/>
<line shape-type="limitline" x1="546" y1="687" x2="469" y2="687" fill="#00FFFF" stroke="#FFFF00" stroke-width="2.00"/>
<line shape-type="limitline" x1="547" y1="647" x2="547" y2="687" fill="#00FFFF" stroke="#FFFF00" stroke-width="2.00"/>
<line shape-type="limitline" x1="578" y1="647" x2="548" y2="647" fill="#00FFFF" stroke="#FFFF00" stroke-width="2.00"/>
<line shape-type="limitline" x1="467" y1="649" x2="467" y2="689" fill="#00FFFF" stroke="#FFFF00" stroke-width="2.00"/>
<line shape-type="limitline" x1="509" y1="648" x2="467" y2="648" fill="#00FFFF" stroke="#FFFF00" stroke-width="2.00"/>
<line shape-type="limitline" x1="510" y1="606" x2="510" y2="636" fill="#00FFFF" stroke="#FFFF00" stroke-width="2.00"/>
<line shape-type="limitline" x1="592" y1="606" x2="510" y2="606" fill="#00FFFF" stroke="#FFFF00" stroke-width="2.00"/>
<g shape-type="group">
<rect shape-type="rectangle" x="35" y="132" width="12" height="6" fill="#808080" stroke="#C0C0C0" stroke-width="1.00"/>
<polygon shape-type="trapezium" points="46,130 46,140 54,135 54,135 46,130" fill="#808080" stroke="#C0C0C0" stroke-width="1.00"/>
</g>
<g shape-type="group">
<rect shape-type="rectangle" x="36" y="165" width="12" height="5" fill="#808080" stroke="#C0C0C0" stroke-width="1.00"/>
<polygon shape-type="trapezium" points="47,163 47,173 55,168 55,168 47,163" fill="#808080" stroke="#C0C0C0" stroke-width="1.00"/>
</g>
<g shape-type="group">
<rect shape-type="rectangle" x="40" y="505" width="12" height="5" fill="#808080" stroke="#C0C0C0" stroke-width="1.00"/>
<polygon shape-type="trapezium" points="51,503 51,513 59,508 59,508 51,503" fill="#808080" stroke="#C0C0C0" stroke-width="1.00"/>
</g>
<g shape-type="group">
<rect shape-type="rectangle" x="991" y="458" width="12" height="6" fill="#808080" stroke="#C0C0C0" stroke-width="1.00"/>
<polygon shape-type="trapezium" points="1002,456 1002,466 1010,461 1010,461 1002,456" fill="#808080" stroke="#C0C0C0" stroke-width="1.00"/>
</g>
<g shape-type="group">
<rect shape-type="rectangle" x="992" y="264" width="12" height="5" fill="#808080" stroke="#C0C0C0" stroke-width="1.00"/>
<polygon shape-type="trapezium" points="1003,262 1003,272 1011,267 1011,267 1003,262" fill="#808080" stroke="#C0C0C0" stroke-width="1.00"/>
</g>
<g shape-type="group">
<rect shape-type="rectangle" x="993" y="170" width="12" height="5" fill="#808080" stroke="#C0C0C0" stroke-width="1.00"/>
<polygon shape-type="trapezium" points="1004,168 1004,178 1013,173 1013,173 1004,168" fill="#808080" stroke="#C0C0C0" stroke-width="1.00"/>
</g>
<g shape-type="group">
<rect shape-type="rectangle" x="988" y="129" width="12" height="5" fill="#808080" stroke="#C0C0C0" stroke-width="1.00"/>
<polygon shape-type="trapezium" points="999,127 999,138 1007,133 1007,133 999,127" fill="#808080" stroke="#C0C0C0" stroke-width="1.00"/>
</g>
<text font-family="宋体" text-anchor="start" fill="#FFFFFF" shape-type="text" id="" font-size="9.500000" font-weight="bold" x="22" y="125">废碱来自WNL1019</text>
<text font-family="宋体" text-anchor="start" fill="#FFFFFF" shape-type="text" id="" font-size="9.500000" font-weight="bold" x="22" y="159">废碱来自环己酮装置</text>
<text font-family="宋体" text-anchor="start" fill="#FFFFFF" shape-type="text" id="" font-size="9.500000" font-weight="bold" x="25" y="498">废碱来自P1004ab</text>
<text font-family="宋体" text-anchor="start" fill="#FFFFFF" shape-type="text" id="" font-size="9.500000" font-weight="bold" x="486" y="679">P1008a</text>
<text font-family="宋体" text-anchor="start" fill="#FFFFFF" shape-type="text" id="" font-size="9.500000" font-weight="bold" x="561" y="679">P1008b</text>
<text font-family="宋体" text-anchor="start" fill="#FFFFFF" shape-type="text" id="" font-size="9.500000" font-weight="bold" x="524" y="711">废碱入炉泵</text>
<text font-family="宋体" text-anchor="start" fill="#FFFFFF" shape-type="text" id="" font-size="9.500000" font-weight="bold" x="350" y="352">P0001a</text>
<text font-family="宋体" text-anchor="start" fill="#FFFFFF" shape-type="text" id="" font-size="9.500000" font-weight="bold" x="437" y="350">P1009</text>
<text font-family="宋体" text-anchor="start" fill="#FFFFFF" shape-type="text" id="" font-size="9.500000" font-weight="bold" x="319" y="380">碱液出厂输送泵</text>
<text font-family="宋体" text-anchor="start" fill="#FFFFFF" shape-type="text" id="" font-size="9.500000" font-weight="bold" x="428" y="364">稀碱液泵</text>
<text font-family="宋体" text-anchor="start" fill="#FFFFFF" shape-type="text" id="" font-size="9.500000" font-weight="bold" x="792" y="360">P1007</text>
<text font-family="宋体" text-anchor="start" fill="#FFFFFF" shape-type="text" id="" font-size="9.500000" font-weight="bold" x="791" y="375">污水泵</text>
<text font-family="宋体" text-anchor="start" fill="#FFFFFF" shape-type="text" id="" font-size="9.500000" font-weight="bold" x="963" y="450">废碱去H2001</text>
<text font-family="宋体" text-anchor="start" fill="#FFFFFF" shape-type="text" id="" font-size="9.500000" font-weight="bold" x="961" y="257">去废水处理</text>
<text font-family="宋体" text-anchor="start" fill="#FFFFFF" shape-type="text" id="" font-size="9.500000" font-weight="bold" x="990" y="160">去码头</text>
<text font-family="宋体" text-anchor="start" fill="#FFFFFF" shape-type="text" id="" font-size="9.500000" font-weight="bold" x="933" y="119">稀碱去Ⅱ效蒸发器</text>
<text font-family="宋体" text-anchor="start" fill="#000000" shape-type="text" id="" font-size="12.500000" font-weight="bold" x="206" y="287">V0615</text>
<text font-family="宋体" text-anchor="start" fill="#000000" shape-type="text" id="" font-size="12.500000" font-weight="bold" x="193" y="315">稀废碱罐</text>
<text font-family="宋体" text-anchor="start" fill="#000000" shape-type="text" id="" font-size="12.500000" font-weight="bold" x="209" y="610">V1006</text>
<text font-family="宋体" text-anchor="start" fill="#000000" shape-type="text" id="" font-size="12.500000" font-weight="bold" x="187" y="636">浓废碱贮罐</text>
<text font-family="宋体" text-anchor="start" fill="#000000" shape-type="text" id="" font-size="12.500000" font-weight="bold" x="665" y="315">V1009</text>
<text font-family="宋体" text-anchor="start" fill="#000000" shape-type="text" id="" font-size="12.500000" font-weight="bold" x="660" y="335">污水池</text>
<rect shape-type="rectangle" x="59" y="276" width="63" height="25" fill="#4A494A" stroke="#C0C0C0" stroke-width="3.00"/>
<rect shape-type="rectangle" x="122" y="276" width="36" height="25" fill="#4A494A" stroke="#C0C0C0" stroke-width="3.00"/>
<text font-family="宋体" text-anchor="start" fill="#00FF42" shape-type="text" id="" font-size="9.500000" font-weight="bold" x="136" y="289">mm</text>
<rect shape-type="rectangle" x="280" y="210" width="63" height="25" fill="#4A494A" stroke="#C0C0C0" stroke-width="3.00"/>
<rect shape-type="rectangle" x="343" y="210" width="36" height="25" fill="#4A494A" stroke="#C0C0C0" stroke-width="3.00"/>
<text font-family="宋体" text-anchor="start" fill="#00FF42" shape-type="text" id="" font-size="9.500000" font-weight="bold" x="355" y="225">℃</text>
<rect shape-type="rectangle" x="482" y="88" width="63" height="25" fill="#4A494A" stroke="#C0C0C0" stroke-width="3.00"/>
<rect shape-type="rectangle" x="545" y="88" width="36" height="25" fill="#4A494A" stroke="#C0C0C0" stroke-width="3.00"/>
<rect shape-type="rectangle" x="613" y="90" width="62" height="25" fill="#4A494A" stroke="#C0C0C0" stroke-width="3.00"/>
<rect shape-type="rectangle" x="675" y="90" width="38" height="25" fill="#4A494A" stroke="#C0C0C0" stroke-width="3.00"/>
<text font-family="宋体" text-anchor="start" fill="#00FF42" shape-type="text" id="" font-size="9.500000" font-weight="bold" x="690" y="105">℃</text>
<rect shape-type="rectangle" x="828" y="415" width="63" height="25" fill="#4A494A" stroke="#C0C0C0" stroke-width="3.00"/>
<rect shape-type="rectangle" x="891" y="415" width="36" height="25" fill="#4A494A" stroke="#C0C0C0" stroke-width="3.00"/>
<text font-family="宋体" text-anchor="start" fill="#00FF42" shape-type="text" id="" font-size="9.500000" font-weight="bold" x="903" y="431">℃</text>
<rect shape-type="rectangle" x="737" y="485" width="63" height="25" fill="#4A494A" stroke="#C0C0C0" stroke-width="3.00"/>
<rect shape-type="rectangle" x="801" y="485" width="36" height="25" fill="#4A494A" stroke="#C0C0C0" stroke-width="3.00"/>
<text font-family="宋体" text-anchor="start" fill="#00FF42" shape-type="text" id="" font-size="9.500000" font-weight="bold" x="810" y="501">MPa</text>
<rect shape-type="rectangle" x="645" y="418" width="62" height="25" fill="#4A494A" stroke="#C0C0C0" stroke-width="3.00"/>
<rect shape-type="rectangle" x="707" y="418" width="37" height="25" fill="#4A494A" stroke="#C0C0C0" stroke-width="3.00"/>
<text font-family="宋体" text-anchor="start" fill="#00FF42" shape-type="text" id="" font-size="9.500000" font-weight="bold" x="711" y="433">m3/h</text>
<rect shape-type="rectangle" x="290" y="600" width="62" height="25" fill="#4A494A" stroke="#C0C0C0" stroke-width="3.00"/>
<rect shape-type="rectangle" x="352" y="600" width="37" height="25" fill="#4A494A" stroke="#C0C0C0" stroke-width="3.00"/>
<text font-family="宋体" text-anchor="start" fill="#00FF42" shape-type="text" id="" font-size="9.500000" font-weight="bold" x="365" y="616">℃</text>
<rect shape-type="rectangle" x="66" y="601" width="62" height="25" fill="#4A494A" stroke="#C0C0C0" stroke-width="3.00"/>
<rect shape-type="rectangle" x="128" y="601" width="37" height="25" fill="#4A494A" stroke="#C0C0C0" stroke-width="3.00"/>
<text font-family="宋体" text-anchor="start" fill="#00FF42" shape-type="text" id="" font-size="9.500000" font-weight="bold" x="142" y="615">mm</text>
<text font-family="宋体" text-anchor="start" fill="#00FF42" shape-type="text" id="" font-size="9.500000" font-weight="bold" x="549" y="104">m3/h</text>
<g shape-type="group">
<rect shape-type="rectangle" x="478" y="497" width="3" height="11" fill="url(#lgradient103_0)" stroke-width="1.00"/>
<g shape-type="group">
<polygon shape-type="trapezium" points="469,502 469,515 478,509 478,509 469,502" fill="url(#lgradient103_1_0)" stroke="#808080" stroke-width="1.00"/>
<polygon shape-type="trapezium" points="492,502 492,515 478,509 478,509 492,502" fill="url(#lgradient103_1_1)" stroke="#808080" stroke-width="1.00"/>
</g>
<path shape-type="chord" d="M 490,500 A 12,27 0 0,0 471,500 z" fill="#C0C0C0" stroke="#808080" stroke-width="1.00"/>
</g>
<g shape-type="group">
<g shape-type="group">
<polygon shape-type="parallel" points="496,660 490,660 493,654 499,654 496,660" fill="#808080" stroke="#000000" stroke-width="1.00"/>
<rect shape-type="rectangle" x="486" y="660" width="11" height="5" fill="#808080" stroke="#000000" stroke-width="1.00"/>
</g>
<g shape-type="group">
<polygon shape-type="parallel" points="508,661 514,661 511,654 505,654 508,661" fill="#808080" stroke="#000000" stroke-width="1.00"/>
<rect shape-type="rectangle" x="506" y="660" width="12" height="5" fill="#808080" stroke="#000000" stroke-width="1.00"/>
</g>
<g shape-type="group">
<path shape-type="arc" d="M 507,645 A 7,6 0 0,0 518,647" fill="none" stroke="#000000" stroke-width="1.00"/>
<line shape-type="limitline" x1="517" y1="646" x2="516" y2="627" fill="#00FFFF" stroke="#000000" stroke-width="1.00"/>
<rect shape-type="roundRectangle" rx="20" ry="20" x="507" y="625" width="10" height="23" fill="url(#lgradient104_2_2)" stroke="#000000" stroke-width="1.00"/>
<g shape-type="group">
<rect shape-type="rectangle" x="506" y="624" width="13" height="3" fill="url(#lgradient104_2_3_0)" stroke="#000000" stroke-width="1.00"/>
<rect shape-type="rectangle" x="506" y="624" width="13" height="3" fill="none" stroke="#000000" stroke-width="1.00"/>
</g>
<line shape-type="limitline" x1="507" y1="646" x2="506" y2="627" fill="#00FFFF" stroke="#000000" stroke-width="1.00"/>
</g>
<g shape-type="group">
<ellipse shape-type="ellipse" cx="503" cy="645" rx="14" ry="15" stroke="#000000" stroke-width="1.00"/>
<ellipse shape-type="ellipse" cx="503" cy="644" rx="14" ry="14" fill="#D8D8D8" stroke="#000000" stroke-width="1.00"/>
<path shape-type="arc" d="M 497,657 A 13,13 0 1,0 506,632" fill="none" stroke="#000000" stroke-width="1.00"/>
</g>
<g shape-type="group">
<g shape-type="group">
<ellipse shape-type="ellipse" cx="502" cy="645" rx="6" ry="5" fill="#A2A2A2" stroke="#000000" stroke-width="1.00"/>
<ellipse shape-type="ellipse" cx="502" cy="645" rx="4" ry="4" stroke="#000000" stroke-width="1.00"/>
</g>
<line shape-type="line" x1="499" y1="648" x2="504" y2="640" fill="#00FFFF" stroke="#C0C0C0" stroke-width="1.00"/>
<line shape-type="line" x1="504" y1="648" x2="498" y2="642" fill="#00FFFF" stroke="#C0C0C0" stroke-width="1.00"/>
<line shape-type="line" x1="506" y1="645" x2="496" y2="645" fill="#00FFFF" stroke="#C0C0C0" stroke-width="1.00"/>
<ellipse shape-type="ellipse" cx="502" cy="645" rx="1" ry="1" fill="#FFFFFF" stroke="#000000" stroke-width="1.00"/>
</g>
</g>
<g shape-type="group">
<g shape-type="group">
<polygon shape-type="parallel" points="575,665 569,665 572,659 578,659 575,665" fill="#808080" stroke="#000000" stroke-width="1.00"/>
<rect shape-type="rectangle" x="566" y="665" width="10" height="3" fill="#808080" stroke="#000000" stroke-width="1.00"/>
</g>
<g shape-type="group">
<polygon shape-type="parallel" points="587,665 594,665 591,659 584,659 587,665" fill="#808080" stroke="#000000" stroke-width="1.00"/>
<rect shape-type="rectangle" x="585" y="665" width="13" height="3" fill="#808080" stroke="#000000" stroke-width="1.00"/>
</g>
<g shape-type="group">
<path shape-type="arc" d="M 586,648 A 7,6 0 0,0 598,650" fill="none" stroke="#000000" stroke-width="1.00"/>
<line shape-type="limitline" x1="597" y1="649" x2="596" y2="631" fill="#00FFFF" stroke="#000000" stroke-width="1.00"/>
<rect shape-type="roundRectangle" rx="20" ry="20" x="588" y="629" width="9" height="22" fill="url(#lgradient105_2_2)" stroke="#000000" stroke-width="1.00"/>
<g shape-type="group">
<rect shape-type="rectangle" x="585" y="627" width="14" height="5" fill="url(#lgradient105_2_3_0)" stroke="#000000" stroke-width="1.00"/>
<rect shape-type="rectangle" x="585" y="627" width="14" height="5" fill="none" stroke="#000000" stroke-width="1.00"/>
</g>
<line shape-type="limitline" x1="588" y1="649" x2="586" y2="631" fill="#00FFFF" stroke="#000000" stroke-width="1.00"/>
</g>
<g shape-type="group">
<ellipse shape-type="ellipse" cx="582" cy="649" rx="15" ry="14" stroke="#000000" stroke-width="1.00"/>
<ellipse shape-type="ellipse" cx="582" cy="649" rx="15" ry="14" fill="#D8D8D8" stroke="#000000" stroke-width="1.00"/>
<path shape-type="arc" d="M 577,661 A 14,13 0 1,0 586,637" fill="none" stroke="#000000" stroke-width="1.00"/>
</g>
<g shape-type="group">
<g shape-type="group">
<ellipse shape-type="ellipse" cx="582" cy="650" rx="6" ry="7" fill="#A2A2A2" stroke="#000000" stroke-width="1.00"/>
<ellipse shape-type="ellipse" cx="581" cy="649" rx="4" ry="5" stroke="#000000" stroke-width="1.00"/>
</g>
<line shape-type="line" x1="579" y1="652" x2="584" y2="643" fill="#00FFFF" stroke="#C0C0C0" stroke-width="1.00"/>
<line shape-type="line" x1="584" y1="651" x2="578" y2="645" fill="#00FFFF" stroke="#C0C0C0" stroke-width="1.00"/>
<line shape-type="line" x1="586" y1="648" x2="576" y2="648" fill="#00FFFF" stroke="#C0C0C0" stroke-width="1.00"/>
<ellipse shape-type="ellipse" cx="581" cy="648" rx="1" ry="1" fill="#FFFFFF" stroke="#000000" stroke-width="1.00"/>
</g>
</g>
<line shape-type="limitline" x1="259" y1="135" x2="259" y2="238" marker-start="url(#Arrow2)" fill="#00FFFF" stroke="#FFFF00" stroke-width="2.00"/>
<g shape-type="group">
<g shape-type="group">
<polygon shape-type="parallel" points="366,331 359,331 362,324 369,324 366,331" fill="#808080" stroke="#000000" stroke-width="1.00"/>
<rect shape-type="rectangle" x="356" y="331" width="11" height="4" fill="#808080" stroke="#000000" stroke-width="1.00"/>
</g>
<g shape-type="group">
<polygon shape-type="parallel" points="377,332 383,332 381,325 375,325 377,332" fill="#808080" stroke="#000000" stroke-width="1.00"/>
<rect shape-type="rectangle" x="376" y="331" width="12" height="4" fill="#808080" stroke="#000000" stroke-width="1.00"/>
</g>
<g shape-type="group">
<path shape-type="arc" d="M 377,316 A 7,6 0 0,0 388,318" fill="none" stroke="#000000" stroke-width="1.00"/>
<line shape-type="limitline" x1="386" y1="317" x2="385" y2="298" fill="#00FFFF" stroke="#000000" stroke-width="1.00"/>
<rect shape-type="roundRectangle" rx="20" ry="20" x="377" y="295" width="9" height="24" fill="url(#lgradient107_2_2)" stroke="#000000" stroke-width="1.00"/>
<g shape-type="group">
<rect shape-type="rectangle" x="376" y="294" width="13" height="4" fill="url(#lgradient107_2_3_0)" stroke="#000000" stroke-width="1.00"/>
<rect shape-type="rectangle" x="376" y="294" width="13" height="4" fill="none" stroke="#000000" stroke-width="1.00"/>
</g>
<line shape-type="limitline" x1="377" y1="317" x2="376" y2="297" fill="#00FFFF" stroke="#000000" stroke-width="1.00"/>
</g>
<g shape-type="group">
<ellipse shape-type="ellipse" cx="372" cy="316" rx="14" ry="15" stroke="#000000" stroke-width="1.00"/>
<ellipse shape-type="ellipse" cx="372" cy="315" rx="14" ry="15" fill="#D8D8D8" stroke="#000000" stroke-width="1.00"/>
<path shape-type="arc" d="M 366,328 A 13,14 0 1,0 375,302" fill="none" stroke="#000000" stroke-width="1.00"/>
</g>
<g shape-type="group">
<g shape-type="group">
<ellipse shape-type="ellipse" cx="372" cy="315" rx="6" ry="6" fill="#A2A2A2" stroke="#000000" stroke-width="1.00"/>
<ellipse shape-type="ellipse" cx="372" cy="315" rx="4" ry="4" stroke="#000000" stroke-width="1.00"/>
</g>
<line shape-type="line" x1="369" y1="318" x2="374" y2="309" fill="#00FFFF" stroke="#C0C0C0" stroke-width="1.00"/>
<line shape-type="line" x1="374" y1="318" x2="368" y2="311" fill="#00FFFF" stroke="#C0C0C0" stroke-width="1.00"/>
<line shape-type="line" x1="376" y1="315" x2="366" y2="315" fill="#00FFFF" stroke="#C0C0C0" stroke-width="1.00"/>
<ellipse shape-type="ellipse" cx="372" cy="315" rx="1" ry="1" fill="#FFFFFF" stroke="#000000" stroke-width="1.00"/>
</g>
</g>
<g shape-type="group">
<g shape-type="group">
<polygon shape-type="parallel" points="446,334 440,334 443,328 449,328 446,334" fill="#808080" stroke="#000000" stroke-width="1.00"/>
<rect shape-type="rectangle" x="436" y="334" width="11" height="5" fill="#808080" stroke="#000000" stroke-width="1.00"/>
</g>
<g shape-type="group">
<polygon shape-type="parallel" points="458,335 464,335 461,328 455,328 458,335" fill="#808080" stroke="#000000" stroke-width="1.00"/>
<rect shape-type="rectangle" x="456" y="334" width="12" height="5" fill="#808080" stroke="#000000" stroke-width="1.00"/>
</g>
<g shape-type="group">
<path shape-type="arc" d="M 457,319 A 7,6 0 0,0 468,321" fill="none" stroke="#000000" stroke-width="1.00"/>
<line shape-type="limitline" x1="467" y1="320" x2="466" y2="301" fill="#00FFFF" stroke="#000000" stroke-width="1.00"/>
<rect shape-type="roundRectangle" rx="20" ry="20" x="457" y="299" width="10" height="23" fill="url(#lgradient108_2_2)" stroke="#000000" stroke-width="1.00"/>
<g shape-type="group">
<rect shape-type="rectangle" x="456" y="298" width="13" height="3" fill="url(#lgradient108_2_3_0)" stroke="#000000" stroke-width="1.00"/>
<rect shape-type="rectangle" x="456" y="298" width="13" height="3" fill="none" stroke="#000000" stroke-width="1.00"/>
</g>
<line shape-type="limitline" x1="457" y1="320" x2="456" y2="301" fill="#00FFFF" stroke="#000000" stroke-width="1.00"/>
</g>
<g shape-type="group">
<ellipse shape-type="ellipse" cx="453" cy="319" rx="14" ry="15" stroke="#000000" stroke-width="1.00"/>
<ellipse shape-type="ellipse" cx="453" cy="319" rx="14" ry="14" fill="#D8D8D8" stroke="#000000" stroke-width="1.00"/>
<path shape-type="arc" d="M 447,331 A 13,13 0 1,0 456,306" fill="none" stroke="#000000" stroke-width="1.00"/>
</g>
<g shape-type="group">
<g shape-type="group">
<ellipse shape-type="ellipse" cx="452" cy="320" rx="6" ry="5" fill="#A2A2A2" stroke="#000000" stroke-width="1.00"/>
<ellipse shape-type="ellipse" cx="452" cy="319" rx="4" ry="4" stroke="#000000" stroke-width="1.00"/>
</g>
<line shape-type="line" x1="449" y1="322" x2="454" y2="314" fill="#00FFFF" stroke="#C0C0C0" stroke-width="1.00"/>
<line shape-type="line" x1="454" y1="322" x2="448" y2="316" fill="#00FFFF" stroke="#C0C0C0" stroke-width="1.00"/>
<line shape-type="line" x1="456" y1="319" x2="446" y2="319" fill="#00FFFF" stroke="#C0C0C0" stroke-width="1.00"/>
<ellipse shape-type="ellipse" cx="452" cy="319" rx="1" ry="1" fill="#FFFFFF" stroke="#000000" stroke-width="1.00"/>
</g>
</g>
<g shape-type="group">
<rect shape-type="rectangle" x="788" y="119" width="3" height="11" fill="url(#lgradient109_0)" stroke-width="1.00"/>
<g shape-type="group">
<polygon shape-type="trapezium" points="778,124 778,136 788,130 788,130 778,124" fill="url(#lgradient109_1_0)" stroke="#808080" stroke-width="1.00"/>
<polygon shape-type="trapezium" points="801,124 801,136 788,130 788,130 801,124" fill="url(#lgradient109_1_1)" stroke="#808080" stroke-width="1.00"/>
</g>
<path shape-type="chord" d="M 799,122 A 12,27 0 0,0 780,122 z" fill="#C0C0C0" stroke="#808080" stroke-width="1.00"/>
</g>
<g shape-type="group">
<g shape-type="group">
<polygon shape-type="parallel" points="797,340 791,340 794,334 800,334 797,340" fill="#808080" stroke="#000000" stroke-width="1.00"/>
<rect shape-type="rectangle" x="788" y="340" width="10" height="3" fill="#808080" stroke="#000000" stroke-width="1.00"/>
</g>
<g shape-type="group">
<polygon shape-type="parallel" points="809,340 815,340 812,334 806,334 809,340" fill="#808080" stroke="#000000" stroke-width="1.00"/>
<rect shape-type="rectangle" x="807" y="340" width="12" height="3" fill="#808080" stroke="#000000" stroke-width="1.00"/>
</g>
<g shape-type="group">
<path shape-type="arc" d="M 808,325 A 7,6 0 0,0 819,327" fill="none" stroke="#000000" stroke-width="1.00"/>
<line shape-type="limitline" x1="818" y1="326" x2="817" y2="307" fill="#00FFFF" stroke="#000000" stroke-width="1.00"/>
<rect shape-type="roundRectangle" rx="20" ry="20" x="808" y="305" width="10" height="23" fill="url(#lgradient110_2_2)" stroke="#000000" stroke-width="1.00"/>
<g shape-type="group">
<rect shape-type="rectangle" x="807" y="304" width="13" height="3" fill="url(#lgradient110_2_3_0)" stroke="#000000" stroke-width="1.00"/>
<rect shape-type="rectangle" x="807" y="304" width="13" height="3" fill="none" stroke="#000000" stroke-width="1.00"/>
</g>
<line shape-type="limitline" x1="808" y1="326" x2="807" y2="307" fill="#00FFFF" stroke="#000000" stroke-width="1.00"/>
</g>
<g shape-type="group">
<ellipse shape-type="ellipse" cx="803" cy="325" rx="14" ry="14" stroke="#000000" stroke-width="1.00"/>
<ellipse shape-type="ellipse" cx="803" cy="324" rx="14" ry="14" fill="#D8D8D8" stroke="#000000" stroke-width="1.00"/>
<path shape-type="arc" d="M 798,336 A 13,13 0 1,0 807,312" fill="none" stroke="#000000" stroke-width="1.00"/>
</g>
<g shape-type="group">
<g shape-type="group">
<ellipse shape-type="ellipse" cx="803" cy="324" rx="6" ry="7" fill="#A2A2A2" stroke="#000000" stroke-width="1.00"/>
<ellipse shape-type="ellipse" cx="802" cy="324" rx="4" ry="5" stroke="#000000" stroke-width="1.00"/>
</g>
<line shape-type="line" x1="800" y1="328" x2="805" y2="318" fill="#00FFFF" stroke="#C0C0C0" stroke-width="1.00"/>
<line shape-type="line" x1="805" y1="327" x2="799" y2="320" fill="#00FFFF" stroke="#C0C0C0" stroke-width="1.00"/>
<line shape-type="line" x1="807" y1="323" x2="797" y2="323" fill="#00FFFF" stroke="#C0C0C0" stroke-width="1.00"/>
<ellipse shape-type="ellipse" cx="802" cy="324" rx="1" ry="2" fill="#FFFFFF" stroke="#000000" stroke-width="1.00"/>
</g>
</g>
<line shape-type="limitline" x1="184" y1="289" x2="157" y2="289" fill="#00FFFF" stroke="#FFFFFF" stroke-width="3.00" stroke-dasharray="5 10"/>
<line shape-type="limitline" x1="301" y1="286" x2="301" y2="237" fill="#00FFFF" stroke="#FFFFFF" stroke-width="3.00" stroke-dasharray="5 10"/>
<line shape-type="limitline" x1="279" y1="287" x2="302" y2="287" fill="#00FFFF" stroke="#FFFFFF" stroke-width="3.00" stroke-dasharray="5 10"/>
<line shape-type="limitline" x1="788" y1="70" x2="532" y2="70" fill="#00FFFF" stroke="#FFFFFF" stroke-width="3.00" stroke-dasharray="5 10"/>
<line shape-type="limitline" x1="788" y1="114" x2="788" y2="69" fill="#00FFFF" stroke="#FFFFFF" stroke-width="3.00" stroke-dasharray="5 10"/>
<line shape-type="limitline" x1="655" y1="128" x2="655" y2="113" fill="#00FFFF" stroke="#FFFFFF" stroke-width="3.00" stroke-dasharray="5 10"/>
<line shape-type="limitline" x1="481" y1="488" x2="481" y2="427" fill="#00FFFF" stroke="#FFFFFF" stroke-width="3.00" stroke-dasharray="5 10"/>
<line shape-type="limitline" x1="644" y1="428" x2="480" y2="428" fill="#00FFFF" stroke="#FFFFFF" stroke-width="3.00" stroke-dasharray="5 10"/>
<line shape-type="limitline" x1="685" y1="458" x2="685" y2="443" fill="#00FFFF" stroke="#FFFFFF" stroke-width="3.00" stroke-dasharray="5 10"/>
<line shape-type="limitline" x1="855" y1="457" x2="855" y2="439" fill="#00FFFF" stroke="#FFFFFF" stroke-width="3.00" stroke-dasharray="5 10"/>
<line shape-type="limitline" x1="769" y1="483" x2="769" y2="461" fill="#00FFFF" stroke="#FFFFFF" stroke-width="3.00" stroke-dasharray="5 10"/>
<line shape-type="limitline" x1="290" y1="612" x2="277" y2="612" fill="#00FFFF" stroke="#FFFFFF" stroke-width="3.00" stroke-dasharray="5 10"/>
<line shape-type="limitline" x1="180" y1="614" x2="166" y2="614" fill="#00FFFF" stroke="#FFFFFF" stroke-width="3.00" stroke-dasharray="5 10"/>
<text font-family="Arial" text-anchor="start" fill="#00FFFF" shape-type="realdata" id="BHGB_FJFS_FIQC_1005" font-size="12.500000" x="488" y="105">XXXX</text>
<text font-family="Arial" text-anchor="start" fill="#00FFFF" shape-type="realdata" id="BHGB_FJFS_TIA_1009" font-size="12.500000" x="290" y="227">XXXX</text>
<text font-family="Arial" text-anchor="start" fill="#00FFFF" shape-type="realdata" id="BHGB_FJFS_LIA_1005" font-size="12.500000" x="68" y="292">XXXX</text>
<text font-family="Arial" text-anchor="start" fill="#00FFFF" shape-type="realdata" id="BHGB_FJFS_TIA_1010" font-size="12.500000" x="620" y="106">XXXX</text>
<text font-family="Arial" text-anchor="start" fill="#00FFFF" shape-type="realdata" id="BHGB_FJFS_LIA_1006" font-size="12.500000" x="74" y="617">XXXX</text>
<text font-family="Arial" text-anchor="start" fill="#00FFFF" shape-type="realdata" id="BHGB_FJFS_TIA_1011" font-size="12.500000" x="297" y="616">XXXX</text>
<text font-family="Arial" text-anchor="start" fill="#00FFFF" shape-type="realdata" id="BHGB_FJFS_FIQC_1006" font-size="12.500000" x="651" y="433">XXXX</text>
<text font-family="Arial" text-anchor="start" fill="#00FFFF" shape-type="realdata" id="BHGB_FJFS_TIA_1012" font-size="12.500000" x="833" y="431">XXXX</text>
<text font-family="Arial" text-anchor="start" fill="#00FFFF" shape-type="realdata" id="BHGB_FJFS_PIA_1010" font-size="12.500000" x="745" y="503">XXXX</text>
<rect shape-type="rectangle" x="0" y="757" width="1066" height="42" fill="url(#lgradient133)" stroke="#636563" stroke-width="1.00"/>
<a xlink:href="废碱储存输送.svg">
<g shape-type="button">
<rect fill="#C0C0C0" stroke-width="0.3" stroke="#FFFFFF" x="3" y="762" width="101" height="33" shape-type="buttonrect"/>
<text font-family="宋体" text-anchor="middle" dominant-baseline="middle" fill="#000000" font-size="12.000000" x="54" y="784" shape-type="buttontext">废碱储存输送</text>
</g>
</a>
<a xlink:href="废碱浓缩.svg">
<g shape-type="button">
<rect fill="#C0C0C0" stroke-width="0.3" stroke="#FFFFFF" x="108" y="762" width="102" height="33" shape-type="buttonrect"/>
<text font-family="宋体" text-anchor="middle" dominant-baseline="middle" fill="#000000" font-size="12.000000" x="159" y="784" shape-type="buttontext">废碱浓缩</text>
</g>
</a>
<a xlink:href="空气及燃料.svg">
<g shape-type="button">
<rect fill="#C0C0C0" stroke-width="0.3" stroke="#FFFFFF" x="215" y="762" width="102" height="33" shape-type="buttonrect"/>
<text font-family="宋体" text-anchor="middle" dominant-baseline="middle" fill="#000000" font-size="12.000000" x="266" y="784" shape-type="buttontext">空气及燃料</text>
</g>
</a>
<a xlink:href="软水系统.svg">
<g shape-type="button">
<rect fill="#C0C0C0" stroke-width="0.3" stroke="#FFFFFF" x="321" y="762" width="101" height="33" shape-type="buttonrect"/>
<text font-family="宋体" text-anchor="middle" dominant-baseline="middle" fill="#000000" font-size="12.000000" x="372" y="784" shape-type="buttontext">软水系统</text>
</g>
</a>
<a xlink:href="废碱焚烧收尘.svg">
<g shape-type="button">
<rect fill="#C0C0C0" stroke-width="0.3" stroke="#FFFFFF" x="427" y="762" width="102" height="33" shape-type="buttonrect"/>
<text font-family="宋体" text-anchor="middle" dominant-baseline="middle" fill="#000000" font-size="12.000000" x="478" y="784" shape-type="buttontext">废碱焚烧收尘</text>
</g>
</a>
<a xlink:href="锅炉汽水.svg">
<g shape-type="button">
<rect fill="#C0C0C0" stroke-width="0.3" stroke="#FFFFFF" x="534" y="762" width="101" height="33" shape-type="buttonrect"/>
<text font-family="宋体" text-anchor="middle" dominant-baseline="middle" fill="#000000" font-size="12.000000" x="584" y="784" shape-type="buttontext">锅炉汽水</text>
</g>
</a>
<a xlink:href="熔融碱回收.svg">
<g shape-type="button">
<rect fill="#C0C0C0" stroke-width="0.3" stroke="#FFFFFF" x="641" y="762" width="101" height="33" shape-type="buttonrect"/>
<text font-family="宋体" text-anchor="middle" dominant-baseline="middle" fill="#000000" font-size="12.000000" x="691" y="784" shape-type="buttontext">熔融碱回收</text>
</g>
</a>
<a xlink:href="蒸汽及冷凝水.svg">
<g shape-type="button">
<rect fill="#C0C0C0" stroke-width="0.3" stroke="#FFFFFF" x="746" y="762" width="102" height="33" shape-type="buttonrect"/>
<text font-family="宋体" text-anchor="middle" dominant-baseline="middle" fill="#000000" font-size="12.000000" x="797" y="784" shape-type="buttontext">蒸汽及冷凝水</text>
</g>
</a>
<a xlink:href="重要参数.svg">
<g shape-type="button">
<rect fill="#C0C0C0" stroke-width="0.3" stroke="#FFFFFF" x="957" y="762" width="103" height="33" shape-type="buttonrect"/>
<text font-family="宋体" text-anchor="middle" dominant-baseline="middle" fill="#000000" font-size="12.000000" x="1008" y="784" shape-type="buttontext">重要参数</text>
</g>
</a>
<a xlink:href="锅炉参数.svg">
<g shape-type="button">
<rect fill="#C0C0C0" stroke-width="0.3" stroke="#FFFFFF" x="852" y="762" width="103" height="33" shape-type="buttonrect"/>
<text font-family="宋体" text-anchor="middle" dominant-baseline="middle" fill="#000000" font-size="12.000000" x="903" y="784" shape-type="buttontext">锅炉参数</text>
</g>
</a>
<rect shape-type="rectangle" x="412" y="698" width="63" height="25" fill="#4A494A" stroke="#C0C0C0" stroke-width="3.00"/>
<rect shape-type="rectangle" x="475" y="698" width="36" height="25" fill="#4A494A" stroke="#C0C0C0" stroke-width="3.00"/>
<text font-family="宋体" text-anchor="start" fill="#00FF42" shape-type="text" id="" font-size="9.500000" font-weight="bold" x="487" y="714">A</text>
<text font-family="Arial" text-anchor="start" fill="#00FFFF" shape-type="realdata" id="BHGB_FJFS_II_P1008a" font-size="12.500000" x="418" y="714">XXXX</text>
<rect shape-type="rectangle" x="604" y="696" width="63" height="25" fill="#4A494A" stroke="#C0C0C0" stroke-width="3.00"/>
<rect shape-type="rectangle" x="667" y="696" width="36" height="25" fill="#4A494A" stroke="#C0C0C0" stroke-width="3.00"/>
<text font-family="宋体" text-anchor="start" fill="#00FF42" shape-type="text" id="" font-size="9.500000" font-weight="bold" x="679" y="712">A</text>
<text font-family="Arial" text-anchor="start" fill="#00FFFF" shape-type="realdata" id="BHGB_FJFS_II_P1008b" font-size="12.500000" x="610" y="712">XXXX</text>
</svg>
