<?xml version="1.0"?>
<?xml-stylesheet type='text/javascript'?>
<!--Draw SVG: 2019-11-25 09:41:43 47-Monday-->
<svg xmlns="http://www.w3.org/2000/svg" xmlns:xlink="http://www.w3.org/1999/xlink" version="1.1" style="background-color:#000000" width="1066" height="800" viewbox="0 0 1066 800">
<defs>
<linearGradient x1="50.000000%" y1="0.000000%" x2="50.000000%" y2="100.000000%" id="lgradient6_0">
<stop offset="0" stop-color="#2C2C2C" stop-opacity="1"/>
<stop offset="0.5" stop-color="#FFFFFF" stop-opacity="1"/>
<stop offset="1" stop-color="#2C2C2C" stop-opacity="1"/>
</linearGradient>
<radialGradient cx="50.000000%" cy="50.000000%" r="50.000000%" fx="50.000000%" fy="50.000000%" id="rgradient6_1">
<stop offset="0%" stop-color="#FFFFFF" stop-opacity="1"/>
<stop offset="100%" stop-color="#2C2C2C" stop-opacity="1"/>
</radialGradient>
<linearGradient x1="0.000000%" y1="50.000000%" x2="100.000000%" y2="50.000000%" id="lgradient6_2">
<stop offset="0" stop-color="#2C2C2C" stop-opacity="1"/>
<stop offset="0.5" stop-color="#FFFFFF" stop-opacity="1"/>
<stop offset="1" stop-color="#2C2C2C" stop-opacity="1"/>
</linearGradient>
<linearGradient x1="50.000000%" y1="0.000000%" x2="50.000000%" y2="100.000000%" id="lgradient6_3">
<stop offset="0" stop-color="#2C2C2C" stop-opacity="1"/>
<stop offset="0.5" stop-color="#FFFFFF" stop-opacity="1"/>
<stop offset="1" stop-color="#2C2C2C" stop-opacity="1"/>
</linearGradient>
<linearGradient x1="50.000000%" y1="0.000000%" x2="50.000000%" y2="100.000000%" id="lgradient6_4">
<stop offset="0" stop-color="#2C2C2C" stop-opacity="1"/>
<stop offset="0.5" stop-color="#FFFFFF" stop-opacity="1"/>
<stop offset="1" stop-color="#2C2C2C" stop-opacity="1"/>
</linearGradient>
<linearGradient x1="0.000000%" y1="50.000000%" x2="100.000000%" y2="50.000000%" id="lgradient6_5">
<stop offset="0" stop-color="#2C2C2C" stop-opacity="1"/>
<stop offset="0.5" stop-color="#FFFFFF" stop-opacity="1"/>
<stop offset="1" stop-color="#2C2C2C" stop-opacity="1"/>
</linearGradient>
<linearGradient x1="0.000000%" y1="50.000000%" x2="100.000000%" y2="50.000000%" id="lgradient6_7">
<stop offset="0" stop-color="#2C2C2C" stop-opacity="1"/>
<stop offset="0.5" stop-color="#FFFFFF" stop-opacity="1"/>
<stop offset="1" stop-color="#2C2C2C" stop-opacity="1"/>
</linearGradient>
<linearGradient x1="0.000000%" y1="50.000000%" x2="100.000000%" y2="50.000000%" id="lgradient6_8">
<stop offset="0" stop-color="#2C2C2C" stop-opacity="1"/>
<stop offset="0.5" stop-color="#FFFFFF" stop-opacity="1"/>
<stop offset="1" stop-color="#2C2C2C" stop-opacity="1"/>
</linearGradient>
<linearGradient x1="0.000000%" y1="50.000000%" x2="100.000000%" y2="50.000000%" id="lgradient6_9">
<stop offset="0" stop-color="#2C2C2C" stop-opacity="1"/>
<stop offset="0.5" stop-color="#FFFFFF" stop-opacity="1"/>
<stop offset="1" stop-color="#2C2C2C" stop-opacity="1"/>
</linearGradient>
<linearGradient x1="0.000000%" y1="50.000000%" x2="100.000000%" y2="50.000000%" id="lgradient6_10">
<stop offset="0" stop-color="#2C2C2C" stop-opacity="1"/>
<stop offset="0.5" stop-color="#FFFFFF" stop-opacity="1"/>
<stop offset="1" stop-color="#2C2C2C" stop-opacity="1"/>
</linearGradient>
<linearGradient x1="50.000000%" y1="0.000000%" x2="50.000000%" y2="100.000000%" id="lgradient7_0_0_0">
<stop offset="0" stop-color="#4F4F4F" stop-opacity="1"/>
<stop offset="0.5" stop-color="#C1C1C1" stop-opacity="1"/>
<stop offset="1" stop-color="#4F4F4F" stop-opacity="1"/>
</linearGradient>
<linearGradient x1="50.000000%" y1="0.000000%" x2="50.000000%" y2="100.000000%" id="lgradient7_0_0_1">
<stop offset="0" stop-color="#4F4F4F" stop-opacity="1"/>
<stop offset="0.5" stop-color="#C1C1C1" stop-opacity="1"/>
<stop offset="1" stop-color="#4F4F4F" stop-opacity="1"/>
</linearGradient>
<linearGradient x1="50.000000%" y1="0.000000%" x2="50.000000%" y2="100.000000%" id="lgradient7_0_0_2">
<stop offset="0" stop-color="#494949" stop-opacity="1"/>
<stop offset="0.5" stop-color="#D5D5D5" stop-opacity="1"/>
<stop offset="1" stop-color="#494949" stop-opacity="1"/>
</linearGradient>
<linearGradient x1="50.000000%" y1="0.000000%" x2="50.000000%" y2="100.000000%" id="lgradient7_1_0">
<stop offset="0" stop-color="#494949" stop-opacity="1"/>
<stop offset="0.5" stop-color="#D5D5D5" stop-opacity="1"/>
<stop offset="1" stop-color="#494949" stop-opacity="1"/>
</linearGradient>
<linearGradient x1="0.000000%" y1="50.000000%" x2="100.000000%" y2="50.000000%" id="lgradient11_0_0">
<stop offset="0" stop-color="#2C2C2C" stop-opacity="1"/>
<stop offset="0.5" stop-color="#FFFFFF" stop-opacity="1"/>
<stop offset="1" stop-color="#2C2C2C" stop-opacity="1"/>
</linearGradient>
<linearGradient x1="0.000000%" y1="50.000000%" x2="100.000000%" y2="50.000000%" id="lgradient11_0_1">
<stop offset="0" stop-color="#2C2C2C" stop-opacity="1"/>
<stop offset="0.5" stop-color="#FFFFFF" stop-opacity="1"/>
<stop offset="1" stop-color="#2C2C2C" stop-opacity="1"/>
</linearGradient>
<linearGradient x1="0.000000%" y1="50.000000%" x2="100.000000%" y2="50.000000%" id="lgradient11_1">
<stop offset="0" stop-color="#626262" stop-opacity="1"/>
<stop offset="0.5" stop-color="#C0C0C0" stop-opacity="1"/>
<stop offset="1" stop-color="#626262" stop-opacity="1"/>
</linearGradient>
<linearGradient x1="0.000000%" y1="50.000000%" x2="100.000000%" y2="50.000000%" id="lgradient11_2">
<stop offset="0" stop-color="#2C2C2C" stop-opacity="1"/>
<stop offset="0.5" stop-color="#FFFFFF" stop-opacity="1"/>
<stop offset="1" stop-color="#2C2C2C" stop-opacity="1"/>
</linearGradient>
<linearGradient x1="0.000000%" y1="50.000000%" x2="100.000000%" y2="50.000000%" id="lgradient80">
<stop offset="0" stop-color="#111111" stop-opacity="1"/>
<stop offset="0.5" stop-color="#636563" stop-opacity="1"/>
<stop offset="1" stop-color="#111111" stop-opacity="1"/>
</linearGradient>
</defs>
<line shape-type="limitline" x1="324" y1="340" x2="492" y2="340" fill="#00FFFF" stroke="#FFFFFF" stroke-width="3.00"/>
<rect shape-type="rectangle" x="0" y="1" width="1065" height="38" fill="#636563" stroke="#808080" stroke-width="1.00"/>
<rect shape-type="rectangle" x="282" y="3" width="500" height="33" stroke="#000000" stroke-width="1.00"/>
<text font-family="宋体" text-anchor="start" fill="#FFFFFF" shape-type="text" id="" font-size="26.750000" font-weight="bold" x="423" y="30">2#系统鼓风机</text>
<a xlink:href="2#LS_ML.svg">
<g shape-type="button">
<rect fill="#C0C0C0" stroke-width="0.3" stroke="#FFFFFF" x="960" y="3" width="100" height="33" shape-type="buttonrect"/>
<text font-family="宋体" text-anchor="middle" dominant-baseline="middle" fill="#800000" font-size="13.500000" font-weight="bold" x="1010" y="26" shape-type="buttontext">返回上一级</text>
</g>
</a>
<g shape-type="group">
<rect shape-type="rectangle" x="477" y="327" width="76" height="32" fill="url(#lgradient6_0)" stroke="#000000" stroke-width="1.00"/>
<ellipse shape-type="ellipse" cx="513" cy="376" rx="29" ry="29" fill="url(#rgradient6_1)" stroke="#000000" stroke-width="1.00"/>
<rect shape-type="rectangle" x="469" y="401" width="91" height="14" fill="url(#lgradient6_2)" stroke="#000000" stroke-width="1.00"/>
<rect shape-type="rectangle" x="483" y="319" width="9" height="82" fill="url(#lgradient6_3)" stroke="#000000" stroke-width="1.00"/>
<rect shape-type="rectangle" x="535" y="319" width="10" height="82" fill="url(#lgradient6_4)" stroke="#000000" stroke-width="1.00"/>
<rect shape-type="rectangle" x="496" y="304" width="36" height="42" fill="url(#lgradient6_5)" stroke="#000000" stroke-width="1.00"/>
<ellipse shape-type="ellipse" cx="513" cy="376" rx="13" ry="13" fill="#FFFFFF" stroke="#000000" stroke-width="1.00"/>
<rect shape-type="rectangle" x="499" y="294" width="30" height="10" fill="url(#lgradient6_7)" stroke="#000000" stroke-width="1.00"/>
<rect shape-type="rectangle" x="504" y="285" width="19" height="9" fill="url(#lgradient6_8)" stroke="#000000" stroke-width="1.00"/>
<rect shape-type="rectangle" x="471" y="387" width="12" height="14" fill="url(#lgradient6_9)" stroke="#000000" stroke-width="1.00"/>
<rect shape-type="rectangle" x="545" y="387" width="12" height="14" fill="url(#lgradient6_10)" stroke="#000000" stroke-width="1.00"/>
</g>
<g shape-type="group">
<g shape-type="group">
<g shape-type="group">
<rect shape-type="roundRectangle" rx="20" ry="20" x="584" y="286" width="58" height="126" fill="url(#lgradient7_0_0_0)" stroke="#808080" stroke-width="2.00"/>
<rect shape-type="roundRectangle" rx="20" ry="20" x="629" y="286" width="59" height="126" fill="url(#lgradient7_0_0_1)" stroke="#808080" stroke-width="2.00"/>
<rect shape-type="roundRectangle" rx="20" ry="20" x="598" y="286" width="69" height="126" fill="url(#lgradient7_0_0_2)" stroke="#808080" stroke-width="2.00"/>
<line shape-type="limitline" x1="667" y1="286" x2="668" y2="412" fill="#00FFFF" stroke="#808080" stroke-width="2.00"/>
<polygon shape-type="parallel" points="663,300 601,300 606,289 668,289 663,300" fill="#DFDFDF" stroke="#808080" stroke-width="2.00"/>
<polygon shape-type="parallel" points="663,318 601,318 606,306 668,306 663,318" fill="#DFDFDF" stroke="#808080" stroke-width="2.00"/>
<polygon shape-type="parallel" points="663,332 601,332 606,323 668,323 663,332" fill="#DFDFDF" stroke="#808080" stroke-width="2.00"/>
<polygon shape-type="parallel" points="662,346 600,346 605,334 667,334 662,346" fill="#DFDFDF" stroke="#808080" stroke-width="2.00"/>
<polygon shape-type="parallel" points="663,369 601,369 606,357 668,357 663,369" fill="#DFDFDF" stroke="#808080" stroke-width="2.00"/>
<polygon shape-type="parallel" points="663,380 601,380 606,369 668,369 663,380" fill="#DFDFDF" stroke="#808080" stroke-width="2.00"/>
<polygon shape-type="parallel" points="663,401 601,401 606,392 668,392 663,401" fill="#DFDFDF" stroke="#808080" stroke-width="2.00"/>
<line shape-type="limitline" x1="599" y1="286" x2="600" y2="412" fill="#00FFFF" stroke="#808080" stroke-width="2.00"/>
</g>
<g shape-type="group">
<polygon shape-type="parallel" points="631,347 663,347 663,412 631,412 631,347" fill="#808080" stroke="#808080" stroke-width="2.00"/>
<ellipse shape-type="ellipse" cx="642" cy="378" rx="6" ry="14" fill="#408080" stroke="#808080" stroke-width="2.00"/>
<line shape-type="limitline" x1="640" y1="357" x2="657" y2="358" fill="#FFFFFF" stroke="#808080" stroke-width="2.00"/>
</g>
<line shape-type="limitline" x1="666" y1="412" x2="598" y2="416" fill="#00FFFF" stroke="#808080" stroke-width="2.00"/>
</g>
<g shape-type="group">
<rect shape-type="roundRectangle" rx="20" ry="20" x="558" y="324" width="23" height="38" fill="url(#lgradient7_1_0)" stroke="#808080" stroke-width="2.00"/>
<rect shape-type="rectangle" x="561" y="316" width="8" height="59" fill="#B2B2B2" stroke="#808080" stroke-width="2.00"/>
<polygon shape-type="parallel" points="573,324 581,324 581,368 573,368 573,324" stroke="#808080" stroke-width="2.00"/>
<g shape-type="group">
<rect shape-type="rectangle" x="571" y="317" width="2" height="58" fill="#D2D2D2" stroke="#808080" stroke-width="2.00"/>
<rect shape-type="rectangle" x="571" y="318" width="1" height="13" fill="#A8A8A8" stroke="#808080" stroke-width="2.00"/>
<rect shape-type="rectangle" x="571" y="359" width="1" height="16" fill="#A8A8A8" stroke="#808080" stroke-width="2.00"/>
<rect shape-type="rectangle" x="571" y="351" width="1" height="11" fill="#C2C2C2" stroke="#808080" stroke-width="2.00"/>
<rect shape-type="rectangle" x="571" y="327" width="1" height="13" fill="#C2C2C2" stroke="#808080" stroke-width="2.00"/>
</g>
<polygon shape-type="parallel" points="574,324 581,324 581,368 574,368 574,324" stroke="#808080" stroke-width="2.00"/>
<rect shape-type="rectangle" x="573" y="329" width="8" height="6" fill="#DBDBDB" stroke="#808080" stroke-width="2.00"/>
<rect shape-type="rectangle" x="573" y="356" width="8" height="8" fill="#DBDBDB" stroke="#808080" stroke-width="2.00"/>
<rect shape-type="rectangle" x="573" y="342" width="8" height="7" fill="#DBDBDB" stroke="#808080" stroke-width="2.00"/>
<g shape-type="group">
<rect shape-type="rectangle" x="561" y="319" width="7" height="55" fill="#D2D2D2" stroke="#808080" stroke-width="2.00"/>
<rect shape-type="rectangle" x="561" y="319" width="6" height="13" fill="#A8A8A8" stroke="#808080" stroke-width="2.00"/>
<rect shape-type="rectangle" x="561" y="359" width="6" height="15" fill="#A8A8A8" stroke="#808080" stroke-width="2.00"/>
<rect shape-type="rectangle" x="561" y="351" width="6" height="11" fill="#C2C2C2" stroke="#808080" stroke-width="2.00"/>
<rect shape-type="rectangle" x="561" y="328" width="6" height="13" fill="#C2C2C2" stroke="#808080" stroke-width="2.00"/>
</g>
<g shape-type="group">
<rect shape-type="rectangle" x="569" y="324" width="2" height="43" fill="#D2D2D2" stroke="#808080" stroke-width="2.00"/>
<rect shape-type="rectangle" x="569" y="324" width="1" height="9" fill="#A8A8A8" stroke="#808080" stroke-width="2.00"/>
<rect shape-type="rectangle" x="569" y="355" width="1" height="12" fill="#A8A8A8" stroke="#808080" stroke-width="2.00"/>
<rect shape-type="rectangle" x="569" y="348" width="1" height="9" fill="#C2C2C2" stroke="#808080" stroke-width="2.00"/>
<rect shape-type="rectangle" x="569" y="332" width="1" height="9" fill="#C2C2C2" stroke="#808080" stroke-width="2.00"/>
</g>
<g shape-type="group">
<rect shape-type="rectangle" x="555" y="328" width="3" height="28" fill="#D2D2D2" stroke="#808080" stroke-width="2.00"/>
<rect shape-type="rectangle" x="555" y="328" width="2" height="6" fill="#A8A8A8" stroke="#808080" stroke-width="2.00"/>
<rect shape-type="rectangle" x="555" y="348" width="2" height="8" fill="#A8A8A8" stroke="#808080" stroke-width="2.00"/>
<rect shape-type="rectangle" x="555" y="344" width="2" height="6" fill="#C2C2C2" stroke="#808080" stroke-width="2.00"/>
<rect shape-type="rectangle" x="555" y="333" width="2" height="6" fill="#C2C2C2" stroke="#808080" stroke-width="2.00"/>
</g>
<g shape-type="group">
<rect shape-type="rectangle" x="571" y="317" width="2" height="58" fill="#D2D2D2" stroke="#808080" stroke-width="2.00"/>
<rect shape-type="rectangle" x="571" y="318" width="1" height="13" fill="#A8A8A8" stroke="#808080" stroke-width="2.00"/>
<rect shape-type="rectangle" x="571" y="359" width="1" height="16" fill="#A8A8A8" stroke="#808080" stroke-width="2.00"/>
<rect shape-type="rectangle" x="571" y="351" width="1" height="11" fill="#C2C2C2" stroke="#808080" stroke-width="2.00"/>
<rect shape-type="rectangle" x="571" y="327" width="1" height="13" fill="#C2C2C2" stroke="#808080" stroke-width="2.00"/>
</g>
<g shape-type="group">
<rect shape-type="rectangle" x="553" y="317" width="2" height="58" fill="#D2D2D2" stroke="#808080" stroke-width="2.00"/>
<rect shape-type="rectangle" x="553" y="318" width="1" height="13" fill="#A8A8A8" stroke="#808080" stroke-width="2.00"/>
<rect shape-type="rectangle" x="553" y="359" width="1" height="16" fill="#A8A8A8" stroke="#808080" stroke-width="2.00"/>
<rect shape-type="rectangle" x="553" y="351" width="1" height="11" fill="#C2C2C2" stroke="#808080" stroke-width="2.00"/>
<rect shape-type="rectangle" x="553" y="327" width="1" height="13" fill="#C2C2C2" stroke="#808080" stroke-width="2.00"/>
</g>
</g>
</g>
<line shape-type="limitline" x1="512" y1="502" x2="512" y2="405" fill="#00FFFF" stroke="#FFFFFF" stroke-width="3.00"/>
<line shape-type="limitline" x1="900" y1="505" x2="512" y2="505" fill="#00FFFF" stroke="#FFFFFF" stroke-width="3.00"/>
<rect shape-type="rectangle" x="473" y="414" width="190" height="21" fill="#808080" stroke="#C0C0C0" stroke-width="2.00"/>
<g shape-type="group">
<g shape-type="group">
<polygon shape-type="trapezium" points="396,335 396,345 404,340 404,340 396,335" fill="url(#lgradient11_0_0)" stroke="#808080" stroke-width="1.00"/>
<polygon shape-type="trapezium" points="416,335 416,345 404,340 404,340 416,335" fill="url(#lgradient11_0_1)" stroke="#808080" stroke-width="1.00"/>
</g>
<rect shape-type="rectangle" x="404" y="328" width="4" height="11" fill="url(#lgradient11_1)" stroke-width="1.00"/>
<rect shape-type="rectangle" x="396" y="321" width="20" height="11" fill="url(#lgradient11_2)" stroke="#000000" stroke-width="2.00"/>
</g>
<g shape-type="group">
<rect shape-type="rectangle" x="305" y="337" width="12" height="6" fill="#808080" stroke="#C0C0C0" stroke-width="1.00"/>
<polygon shape-type="trapezium" points="316,334 316,346 324,340 324,340 316,334" fill="#808080" stroke="#C0C0C0" stroke-width="1.00"/>
</g>
<g shape-type="group">
<rect shape-type="rectangle" x="902" y="501" width="12" height="7" fill="#808080" stroke="#C0C0C0" stroke-width="1.00"/>
<polygon shape-type="trapezium" points="913,498 913,511 921,505 921,505 913,498" fill="#808080" stroke="#C0C0C0" stroke-width="1.00"/>
</g>
<text font-family="宋体" text-anchor="start" fill="#FFFFFF" shape-type="text" id="" font-size="9.500000" font-weight="bold" x="301" y="326">干燥吸收</text>
<text font-family="宋体" text-anchor="start" fill="#FFFFFF" shape-type="text" id="" font-size="9.500000" font-weight="bold" x="892" y="491">焚硫</text>
<rect shape-type="rectangle" x="32" y="416" width="323" height="28" fill="#008284" stroke="#00FFFF" stroke-width="3.00"/>
<rect shape-type="rectangle" x="32" y="443" width="99" height="171" fill="#008284" stroke="#00FFFF" stroke-width="3.00"/>
<line shape-type="limitline" x1="33" y1="470" x2="352" y2="470" fill="#00FFFF" stroke="#00FFFF" stroke-width="3.00"/>
<line shape-type="limitline" x1="34" y1="516" x2="353" y2="516" fill="#00FFFF" stroke="#00FFFF" stroke-width="3.00"/>
<line shape-type="limitline" x1="32" y1="542" x2="351" y2="543" fill="#00FFFF" stroke="#00FFFF" stroke-width="3.00"/>
<line shape-type="limitline" x1="33" y1="565" x2="353" y2="566" fill="#00FFFF" stroke="#00FFFF" stroke-width="3.00"/>
<line shape-type="limitline" x1="33" y1="589" x2="351" y2="589" fill="#00FFFF" stroke="#00FFFF" stroke-width="3.00"/>
<line shape-type="limitline" x1="33" y1="493" x2="353" y2="494" fill="#00FFFF" stroke="#00FFFF" stroke-width="3.00"/>
<line shape-type="limitline" x1="354" y1="415" x2="354" y2="611" fill="#00FFFF" stroke="#00FFFF" stroke-width="3.00"/>
<line shape-type="limitline" x1="240" y1="416" x2="240" y2="612" fill="#00FFFF" stroke="#00FFFF" stroke-width="3.00"/>
<line shape-type="limitline" x1="130" y1="416" x2="130" y2="611" fill="#00FFFF" stroke="#00FFFF" stroke-width="3.00"/>
<text font-family="宋体" text-anchor="start" fill="#FFFFFF" shape-type="text" id="" font-size="12.500000" x="55" y="436">位号</text>
<text font-family="宋体" text-anchor="start" fill="#FFFFFF" shape-type="text" id="" font-size="14.750000" x="148" y="434">实时值</text>
<text font-family="宋体" text-anchor="start" fill="#FFFFFF" shape-type="text" id="" font-size="14.000000" x="269" y="436">单位</text>
<line shape-type="limitline" x1="33" y1="612" x2="353" y2="612" fill="#00FFFF" stroke="#00FFFF" stroke-width="3.00"/>
<text font-family="宋体" text-anchor="start" fill="#FFFFFF" shape-type="text" id="" font-size="12.500000" x="57" y="461">TIA981</text>
<text font-family="宋体" text-anchor="start" fill="#FFFFFF" shape-type="text" id="" font-size="12.500000" x="57" y="485">TIA982</text>
<text font-family="宋体" text-anchor="start" fill="#FFFFFF" shape-type="text" id="" font-size="12.500000" x="57" y="509">TIA983</text>
<text font-family="宋体" text-anchor="start" fill="#FFFFFF" shape-type="text" id="" font-size="12.500000" x="57" y="533">TIA984</text>
<text font-family="宋体" text-anchor="start" fill="#FFFFFF" shape-type="text" id="" font-size="12.500000" x="62" y="558">TI985</text>
<text font-family="宋体" text-anchor="start" fill="#FFFFFF" shape-type="text" id="" font-size="12.500000" x="61" y="581">PI902</text>
<text font-family="宋体" text-anchor="start" fill="#FFFFFF" shape-type="text" id="" font-size="12.500000" x="57" y="605">PIA921</text>
<rect shape-type="rectangle" x="733" y="187" width="323" height="28" fill="#008284" stroke="#00FFFF" stroke-width="3.00"/>
<rect shape-type="rectangle" x="733" y="214" width="99" height="124" fill="#008284" stroke="#00FFFF" stroke-width="3.00"/>
<line shape-type="limitline" x1="734" y1="241" x2="1053" y2="241" fill="#00FFFF" stroke="#00FFFF" stroke-width="3.00"/>
<line shape-type="limitline" x1="734" y1="287" x2="1053" y2="287" fill="#00FFFF" stroke="#00FFFF" stroke-width="3.00"/>
<line shape-type="limitline" x1="733" y1="313" x2="1052" y2="314" fill="#00FFFF" stroke="#00FFFF" stroke-width="3.00"/>
<line shape-type="limitline" x1="734" y1="337" x2="1055" y2="337" fill="#00FFFF" stroke="#00FFFF" stroke-width="3.00"/>
<line shape-type="limitline" x1="734" y1="264" x2="1054" y2="265" fill="#00FFFF" stroke="#00FFFF" stroke-width="3.00"/>
<line shape-type="limitline" x1="1055" y1="187" x2="1055" y2="336" fill="#00FFFF" stroke="#00FFFF" stroke-width="3.00"/>
<line shape-type="limitline" x1="941" y1="187" x2="941" y2="336" fill="#00FFFF" stroke="#00FFFF" stroke-width="3.00"/>
<line shape-type="limitline" x1="831" y1="187" x2="831" y2="334" fill="#00FFFF" stroke="#00FFFF" stroke-width="3.00"/>
<text font-family="宋体" text-anchor="start" fill="#FFFFFF" shape-type="text" id="" font-size="12.500000" x="756" y="207">位号</text>
<text font-family="宋体" text-anchor="start" fill="#FFFFFF" shape-type="text" id="" font-size="14.750000" x="849" y="205">实时值</text>
<text font-family="宋体" text-anchor="start" fill="#FFFFFF" shape-type="text" id="" font-size="14.000000" x="970" y="207">单位</text>
<text font-family="宋体" text-anchor="start" fill="#FFFFFF" shape-type="text" id="" font-size="12.500000" x="759" y="231">VRA901</text>
<text font-family="宋体" text-anchor="start" fill="#FFFFFF" shape-type="text" id="" font-size="12.500000" x="765" y="330">II901</text>
<text font-family="宋体" text-anchor="start" fill="#FFFFFF" shape-type="text" id="" font-size="12.500000" x="759" y="255">VRA902</text>
<text font-family="宋体" text-anchor="start" fill="#FFFFFF" shape-type="text" id="" font-size="12.500000" x="759" y="279">VRA903</text>
<text font-family="宋体" text-anchor="start" fill="#FFFFFF" shape-type="text" id="" font-size="12.500000" x="759" y="305">VRA904</text>
<text font-family="Arial" text-anchor="start" fill="#00FFFF" shape-type="realdata" id="LLB_LS1_TI981" font-size="12.500000" x="143" y="461">XXXX</text>
<text font-family="Arial" text-anchor="start" fill="#00FFFF" shape-type="realdata" id="LLB_LS1_TI982" font-size="13.250000" x="143" y="486">XXXX</text>
<text font-family="Arial" text-anchor="start" fill="#00FFFF" shape-type="realdata" id="LLB_LS1_TI983" font-size="13.250000" x="143" y="509">XXXX</text>
<text font-family="Arial" text-anchor="start" fill="#00FFFF" shape-type="realdata" id="LLB_LS1_TI984" font-size="13.250000" x="143" y="534">XXXX</text>
<text font-family="Arial" text-anchor="start" fill="#00FFFF" shape-type="realdata" id="LLB_LS1_TI985" font-size="13.250000" x="143" y="558">XXXX</text>
<text font-family="Arial" text-anchor="start" fill="#00FFFF" shape-type="realdata" id="LLB_LS1_PI902" font-size="13.250000" x="143" y="584">XXXX</text>
<text font-family="Arial" text-anchor="start" fill="#00FFFF" shape-type="realdata" id="LLB_LS1_PI921" font-size="12.500000" x="143" y="606">XXXX</text>
<text font-family="Arial" text-anchor="start" fill="#00FFFF" shape-type="realdata" id="LLB_LS1_VI901" font-size="12.500000" x="842" y="231">XXXX</text>
<text font-family="Arial" text-anchor="start" fill="#00FFFF" shape-type="realdata" id="LLB_LS1_VI902" font-size="12.500000" x="842" y="256">XXXX</text>
<text font-family="Arial" text-anchor="start" fill="#00FFFF" shape-type="realdata" id="LLB_LS1_VI903" font-size="12.500000" x="842" y="281">XXXX</text>
<text font-family="Arial" text-anchor="start" fill="#00FFFF" shape-type="realdata" id="LLB_LS1_VI904" font-size="12.500000" x="842" y="305">XXXX</text>
<text font-family="Arial" text-anchor="start" fill="#00FFFF" shape-type="realdata" id="LLB_LS1_II901" font-size="12.500000" x="842" y="331">XXXX</text>
<text font-family="宋体" text-anchor="start" fill="#00FF42" shape-type="text" id="" font-size="9.500000" font-weight="bold" x="291" y="461">℃</text>
<text font-family="宋体" text-anchor="start" fill="#00FF42" shape-type="text" id="" font-size="9.500000" font-weight="bold" x="291" y="487">℃</text>
<text font-family="宋体" text-anchor="start" fill="#00FF42" shape-type="text" id="" font-size="9.500000" font-weight="bold" x="291" y="509">℃</text>
<text font-family="宋体" text-anchor="start" fill="#00FF42" shape-type="text" id="" font-size="9.500000" font-weight="bold" x="291" y="534">℃</text>
<text font-family="宋体" text-anchor="start" fill="#00FF42" shape-type="text" id="" font-size="9.500000" font-weight="bold" x="291" y="559">℃</text>
<text font-family="宋体" text-anchor="start" fill="#00FF42" shape-type="text" id="" font-size="9.500000" font-weight="bold" x="291" y="581">KPa</text>
<text font-family="宋体" text-anchor="start" fill="#00FF42" shape-type="text" id="" font-size="9.500000" font-weight="bold" x="291" y="602">MPa</text>
<text font-family="宋体" text-anchor="start" fill="#00FF00" shape-type="text" id="" font-size="11.000000" font-weight="bold" x="988" y="233">μm</text>
<text font-family="宋体" text-anchor="start" fill="#00FF00" shape-type="text" id="" font-size="11.000000" font-weight="bold" x="988" y="257">μm</text>
<text font-family="宋体" text-anchor="start" fill="#00FF00" shape-type="text" id="" font-size="11.000000" font-weight="bold" x="988" y="280">μm</text>
<text font-family="宋体" text-anchor="start" fill="#00FF00" shape-type="text" id="" font-size="11.000000" font-weight="bold" x="988" y="304">μm</text>
<text font-family="宋体" text-anchor="start" fill="#00FF00" shape-type="text" id="" font-size="11.000000" font-weight="bold" x="993" y="331">A</text>
<rect shape-type="rectangle" x="1" y="756" width="1063" height="44" fill="url(#lgradient80)" stroke="#636563" stroke-width="1.00"/>
<a xlink:href="2#系统焚硫.svg">
<g shape-type="button">
<rect fill="#C0C0C0" stroke-width="0.3" stroke="#FFFFFF" x="10" y="763" width="118" height="32" shape-type="buttonrect"/>
<text font-family="宋体" text-anchor="middle" dominant-baseline="middle" fill="#000000" font-size="12.000000" x="69" y="785" shape-type="buttontext">2#系统焚硫</text>
</g>
</a>
<a xlink:href="2#系统鼓风机.svg">
<g shape-type="button">
<rect fill="#C0C0C0" stroke-width="0.3" stroke="#FFFFFF" x="142" y="763" width="117" height="32" shape-type="buttonrect"/>
<text font-family="宋体" text-anchor="middle" dominant-baseline="middle" fill="#000000" font-size="12.000000" x="201" y="785" shape-type="buttontext">2#系统鼓风机</text>
</g>
</a>
<a xlink:href="2#系统热力系统.svg">
<g shape-type="button">
<rect fill="#C0C0C0" stroke-width="0.3" stroke="#FFFFFF" x="272" y="763" width="121" height="32" shape-type="buttonrect"/>
<text font-family="宋体" text-anchor="middle" dominant-baseline="middle" fill="#000000" font-size="12.000000" x="333" y="785" shape-type="buttontext">2#系统热力系统</text>
</g>
</a>
<a xlink:href="2#系统吸收.svg">
<g shape-type="button">
<rect fill="#C0C0C0" stroke-width="0.3" stroke="#FFFFFF" x="406" y="763" width="121" height="32" shape-type="buttonrect"/>
<text font-family="宋体" text-anchor="middle" dominant-baseline="middle" fill="#000000" font-size="12.000000" x="467" y="785" shape-type="buttontext">2#系统吸收</text>
</g>
</a>
<a xlink:href="2#系统转化器.svg">
<g shape-type="button">
<rect fill="#C0C0C0" stroke-width="0.3" stroke="#FFFFFF" x="541" y="763" width="117" height="32" shape-type="buttonrect"/>
<text font-family="宋体" text-anchor="middle" dominant-baseline="middle" fill="#000000" font-size="12.000000" x="599" y="785" shape-type="buttontext">2#系统转化器</text>
</g>
</a>
<a xlink:href="转化B.svg">
<g shape-type="button">
<rect fill="#C0C0C0" stroke-width="0.3" stroke="#FFFFFF" x="800" y="763" width="117" height="32" shape-type="buttonrect"/>
<text font-family="宋体" text-anchor="middle" dominant-baseline="middle" fill="#000000" font-size="12.000000" x="858" y="785" shape-type="buttontext">转化B</text>
</g>
</a>
<a xlink:href="尾气2.svg">
<g shape-type="button">
<rect fill="#C0C0C0" stroke-width="0.3" stroke="#FFFFFF" x="930" y="763" width="117" height="32" shape-type="buttonrect"/>
<text font-family="宋体" text-anchor="middle" dominant-baseline="middle" fill="#000000" font-size="12.000000" x="988" y="785" shape-type="buttontext">尾气2</text>
</g>
</a>
<a xlink:href="2#系统烟酸.svg">
<g shape-type="button">
<rect fill="#C0C0C0" stroke-width="0.3" stroke="#FFFFFF" x="672" y="763" width="116" height="32" shape-type="buttonrect"/>
<text font-family="宋体" text-anchor="middle" dominant-baseline="middle" fill="#000000" font-size="12.000000" x="730" y="785" shape-type="buttontext">2#系统烟酸</text>
</g>
</a>
</svg>
