<?xml version="1.0"?>
<?xml-stylesheet type='text/javascript'?>
<!--Draw SVG: 2019-11-25 09:40:59 47-Monday-->
<svg xmlns="http://www.w3.org/2000/svg" xmlns:xlink="http://www.w3.org/1999/xlink" version="1.1" style="background-color:#000000" width="1066" height="800" viewbox="0 0 1066 800">
<defs>
<linearGradient x1="0.000000%" y1="50.000000%" x2="100.000000%" y2="50.000000%" id="lgradient1">
<stop offset="0" stop-color="#2C2C2C" stop-opacity="1"/>
<stop offset="0.5" stop-color="#FFFFFF" stop-opacity="1"/>
<stop offset="1" stop-color="#2C2C2C" stop-opacity="1"/>
</linearGradient>
<radialGradient cx="50.000000%" cy="50.000000%" r="50.000000%" fx="50.000000%" fy="50.000000%" id="rgradient2">
<stop offset="0%" stop-color="#FFFFFF" stop-opacity="1"/>
<stop offset="100%" stop-color="#2C2C2C" stop-opacity="1"/>
</radialGradient>
<linearGradient x1="0.000000%" y1="50.000000%" x2="100.000000%" y2="50.000000%" id="lgradient14">
<stop offset="0" stop-color="#2C2C2C" stop-opacity="1"/>
<stop offset="0.5" stop-color="#FFFFFF" stop-opacity="1"/>
<stop offset="1" stop-color="#2C2C2C" stop-opacity="1"/>
</linearGradient>
<linearGradient x1="0.000000%" y1="50.000000%" x2="100.000000%" y2="50.000000%" id="lgradient15">
<stop offset="0" stop-color="#2C2C2C" stop-opacity="1"/>
<stop offset="0.5" stop-color="#FFFFFF" stop-opacity="1"/>
<stop offset="1" stop-color="#2C2C2C" stop-opacity="1"/>
</linearGradient>
<radialGradient cx="50.000000%" cy="50.000000%" r="50.000000%" fx="50.000000%" fy="50.000000%" id="rgradient23">
<stop offset="0%" stop-color="#FFFFFF" stop-opacity="1"/>
<stop offset="100%" stop-color="#2C2C2C" stop-opacity="1"/>
</radialGradient>
<linearGradient x1="0.000000%" y1="50.000000%" x2="100.000000%" y2="50.000000%" id="lgradient24">
<stop offset="0" stop-color="#2C2C2C" stop-opacity="1"/>
<stop offset="0.5" stop-color="#FFFFFF" stop-opacity="1"/>
<stop offset="1" stop-color="#2C2C2C" stop-opacity="1"/>
</linearGradient>
<linearGradient x1="0.000000%" y1="50.000000%" x2="100.000000%" y2="50.000000%" id="lgradient25">
<stop offset="0" stop-color="#2C2C2C" stop-opacity="1"/>
<stop offset="0.5" stop-color="#FFFFFF" stop-opacity="1"/>
<stop offset="1" stop-color="#2C2C2C" stop-opacity="1"/>
</linearGradient>
<radialGradient cx="50.000000%" cy="50.000000%" r="50.000000%" fx="50.000000%" fy="50.000000%" id="rgradient26">
<stop offset="0%" stop-color="#FFFFFF" stop-opacity="1"/>
<stop offset="100%" stop-color="#2C2C2C" stop-opacity="1"/>
</radialGradient>
<linearGradient x1="0.000000%" y1="50.000000%" x2="100.000000%" y2="50.000000%" id="lgradient27">
<stop offset="0" stop-color="#2C2C2C" stop-opacity="1"/>
<stop offset="0.5" stop-color="#FFFFFF" stop-opacity="1"/>
<stop offset="1" stop-color="#2C2C2C" stop-opacity="1"/>
</linearGradient>
<linearGradient x1="0.000000%" y1="50.000000%" x2="100.000000%" y2="50.000000%" id="lgradient28">
<stop offset="0" stop-color="#2C2C2C" stop-opacity="1"/>
<stop offset="0.5" stop-color="#FFFFFF" stop-opacity="1"/>
<stop offset="1" stop-color="#2C2C2C" stop-opacity="1"/>
</linearGradient>
<radialGradient cx="50.000000%" cy="50.000000%" r="50.000000%" fx="50.000000%" fy="50.000000%" id="rgradient29">
<stop offset="0%" stop-color="#FFFFFF" stop-opacity="1"/>
<stop offset="100%" stop-color="#2C2C2C" stop-opacity="1"/>
</radialGradient>
<linearGradient x1="0.000000%" y1="50.000000%" x2="100.000000%" y2="50.000000%" id="lgradient30">
<stop offset="0" stop-color="#2C2C2C" stop-opacity="1"/>
<stop offset="0.5" stop-color="#FFFFFF" stop-opacity="1"/>
<stop offset="1" stop-color="#2C2C2C" stop-opacity="1"/>
</linearGradient>
<linearGradient x1="0.000000%" y1="50.000000%" x2="100.000000%" y2="50.000000%" id="lgradient31">
<stop offset="0" stop-color="#2C2C2C" stop-opacity="1"/>
<stop offset="0.5" stop-color="#FFFFFF" stop-opacity="1"/>
<stop offset="1" stop-color="#2C2C2C" stop-opacity="1"/>
</linearGradient>
</defs>
<rect shape-type="rectangle" x="906" y="404" width="109" height="88" fill="url(#lgradient1)" stroke="#000000" stroke-width="1.00"/>
<ellipse shape-type="ellipse" cx="233" cy="279" rx="47" ry="24" fill="url(#rgradient2)" stroke="#000000" stroke-width="1.00"/>
<rect shape-type="rectangle" x="0" y="1" width="1065" height="38" fill="#636563" stroke="#808080" stroke-width="1.00"/>
<rect shape-type="rectangle" x="292" y="3" width="500" height="34" stroke="#000000" stroke-width="1.00"/>
<text font-family="宋体" text-anchor="start" fill="#FFFFFF" shape-type="text" id="" font-size="26.750000" font-weight="bold" x="456" y="28">对邻硝尾气</text>
<a xlink:href="\橡胶化学品部\RT\水解工序\SJGX_ML.svg">
<g shape-type="button">
<rect fill="#C0C0C0" stroke-width="0.3" stroke="#FFFFFF" x="962" y="1" width="100" height="36" shape-type="buttonrect"/>
<text font-family="宋体" text-anchor="middle" dominant-baseline="middle" fill="#800000" font-size="13.500000" font-weight="bold" x="1012" y="25" shape-type="buttontext">返回上一级</text>
</g>
</a>
<g shape-type="group">
<g shape-type="group">
<polygon shape-type="parallel" points="798,547 786,547 791,534 803,534 798,547" fill="#808080" stroke="#000000" stroke-width="1.00"/>
<rect shape-type="rectangle" x="779" y="547" width="21" height="6" fill="#808080" stroke="#000000" stroke-width="1.00"/>
</g>
<g shape-type="group">
<polygon shape-type="parallel" points="819,548 831,548 827,535 815,535 819,548" fill="#808080" stroke="#000000" stroke-width="1.00"/>
<rect shape-type="rectangle" x="818" y="547" width="22" height="6" fill="#808080" stroke="#000000" stroke-width="1.00"/>
</g>
<g shape-type="group">
<ellipse shape-type="ellipse" cx="809" cy="519" rx="28" ry="25" stroke="#000000" stroke-width="1.00"/>
<ellipse shape-type="ellipse" cx="809" cy="519" rx="28" ry="25" fill="#D8D8D8" stroke="#000000" stroke-width="1.00"/>
<path shape-type="arc" d="M 799,540 A 26,23 0 1,0 816,497" fill="none" stroke="#000000" stroke-width="1.00"/>
</g>
<g shape-type="group">
<g shape-type="group">
<ellipse shape-type="ellipse" cx="809" cy="518" rx="11" ry="10" fill="#A2A2A2" stroke="#000000" stroke-width="1.00"/>
<ellipse shape-type="ellipse" cx="808" cy="518" rx="8" ry="8" stroke="#000000" stroke-width="1.00"/>
</g>
<line shape-type="line" x1="804" y1="524" x2="815" y2="509" fill="#00FFFF" stroke="#C0C0C0" stroke-width="1.00"/>
<line shape-type="line" x1="815" y1="523" x2="802" y2="511" fill="#00FFFF" stroke="#C0C0C0" stroke-width="1.00"/>
<line shape-type="line" x1="818" y1="518" x2="799" y2="518" fill="#00FFFF" stroke="#C0C0C0" stroke-width="1.00"/>
<ellipse shape-type="ellipse" cx="808" cy="519" rx="2" ry="2" fill="#FFFFFF" stroke="#000000" stroke-width="1.00"/>
</g>
</g>
<g shape-type="group">
<g shape-type="group">
<polygon shape-type="parallel" points="704,547 692,547 696,534 708,534 704,547" fill="#808080" stroke="#000000" stroke-width="1.00"/>
<rect shape-type="rectangle" x="685" y="547" width="20" height="6" fill="#808080" stroke="#000000" stroke-width="1.00"/>
</g>
<g shape-type="group">
<polygon shape-type="parallel" points="726,548 738,548 733,535 721,535 726,548" fill="#808080" stroke="#000000" stroke-width="1.00"/>
<rect shape-type="rectangle" x="724" y="547" width="21" height="6" fill="#808080" stroke="#000000" stroke-width="1.00"/>
</g>
<g shape-type="group">
<ellipse shape-type="ellipse" cx="715" cy="519" rx="27" ry="25" stroke="#000000" stroke-width="1.00"/>
<ellipse shape-type="ellipse" cx="715" cy="519" rx="27" ry="25" fill="#D8D8D8" stroke="#000000" stroke-width="1.00"/>
<path shape-type="arc" d="M 706,540 A 26,23 0 1,0 722,497" fill="none" stroke="#000000" stroke-width="1.00"/>
</g>
<g shape-type="group">
<g shape-type="group">
<ellipse shape-type="ellipse" cx="714" cy="518" rx="11" ry="10" fill="#A2A2A2" stroke="#000000" stroke-width="1.00"/>
<ellipse shape-type="ellipse" cx="713" cy="518" rx="8" ry="8" stroke="#000000" stroke-width="1.00"/>
</g>
<line shape-type="line" x1="709" y1="524" x2="720" y2="509" fill="#00FFFF" stroke="#C0C0C0" stroke-width="1.00"/>
<line shape-type="line" x1="720" y1="523" x2="707" y2="511" fill="#00FFFF" stroke="#C0C0C0" stroke-width="1.00"/>
<line shape-type="line" x1="723" y1="518" x2="704" y2="518" fill="#00FFFF" stroke="#C0C0C0" stroke-width="1.00"/>
<ellipse shape-type="ellipse" cx="714" cy="519" rx="3" ry="2" fill="#FFFFFF" stroke="#000000" stroke-width="1.00"/>
</g>
</g>
<line shape-type="limitline" x1="667" y1="518" x2="689" y2="518" fill="#FFFFFF" stroke="#FF0000" stroke-width="1.00"/>
<line shape-type="limitline" x1="760" y1="518" x2="782" y2="518" fill="#FFFFFF" stroke="#FF0000" stroke-width="1.00"/>
<line shape-type="limitline" x1="49" y1="220" x2="355" y2="220" fill="#FFFFFF" stroke="#FF0000" stroke-width="1.00"/>
<line shape-type="limitline" x1="666" y1="518" x2="666" y2="596" fill="#FFFFFF" stroke="#FF0000" stroke-width="1.00"/>
<line shape-type="limitline" x1="759" y1="519" x2="759" y2="597" fill="#FFFFFF" stroke="#FF0000" stroke-width="1.00"/>
<rect shape-type="rectangle" x="212" y="317" width="39" height="79" fill="url(#lgradient14)" stroke="#000000" stroke-width="1.00"/>
<rect shape-type="rectangle" x="183" y="275" width="98" height="50" fill="url(#lgradient15)" stroke="#000000" stroke-width="1.00"/>
<text font-family="宋体" text-anchor="start" fill="#FFFFFF" shape-type="text" id="" font-size="12.500000" font-weight="bold" x="924" y="442">制冷机组</text>
<rect shape-type="rectangle" x="688" y="359" width="63" height="19" fill="#4A494A" stroke="#C0C0C0" stroke-width="3.00"/>
<text font-family="Arial" text-anchor="start" fill="#00FFFF" shape-type="realdata" id="CYB_YTCY_LT_0001" font-size="12.500000" x="693" y="371">XXXX</text>
<rect shape-type="rectangle" x="752" y="359" width="36" height="19" fill="#4A494A" stroke="#C0C0C0" stroke-width="3.00"/>
<text font-family="宋体" text-anchor="start" fill="#00FF42" shape-type="text" id="" font-size="9.500000" font-weight="bold" x="761" y="372">cm</text>
<rect shape-type="rectangle" x="687" y="338" width="63" height="19" fill="#4A494A" stroke="#C0C0C0" stroke-width="3.00"/>
<text font-family="宋体" text-anchor="start" fill="#FFFFFF" shape-type="text" id="" font-size="12.500000" font-weight="bold" x="691" y="351">LT_0001</text>
<ellipse shape-type="ellipse" cx="605" cy="278" rx="47" ry="24" fill="url(#rgradient23)" stroke="#000000" stroke-width="1.00"/>
<rect shape-type="rectangle" x="585" y="316" width="39" height="79" fill="url(#lgradient24)" stroke="#000000" stroke-width="1.00"/>
<rect shape-type="rectangle" x="556" y="274" width="98" height="50" fill="url(#lgradient25)" stroke="#000000" stroke-width="1.00"/>
<ellipse shape-type="ellipse" cx="428" cy="279" rx="47" ry="24" fill="url(#rgradient26)" stroke="#000000" stroke-width="1.00"/>
<rect shape-type="rectangle" x="407" y="317" width="39" height="79" fill="url(#lgradient27)" stroke="#000000" stroke-width="1.00"/>
<rect shape-type="rectangle" x="378" y="275" width="98" height="50" fill="url(#lgradient28)" stroke="#000000" stroke-width="1.00"/>
<ellipse shape-type="ellipse" cx="317" cy="485" rx="47" ry="24" fill="url(#rgradient29)" stroke="#000000" stroke-width="1.00"/>
<rect shape-type="rectangle" x="296" y="524" width="39" height="79" fill="url(#lgradient30)" stroke="#000000" stroke-width="1.00"/>
<rect shape-type="rectangle" x="267" y="482" width="98" height="50" fill="url(#lgradient31)" stroke="#000000" stroke-width="1.00"/>
<line shape-type="limitline" x1="353" y1="220" x2="353" y2="365" fill="#FFFFFF" stroke="#FF0000" stroke-width="1.00"/>
<line shape-type="limitline" x1="152" y1="221" x2="152" y2="366" fill="#FFFFFF" stroke="#FF0000" stroke-width="1.00"/>
<line shape-type="limitline" x1="153" y1="365" x2="214" y2="365" fill="#FFFFFF" stroke="#FF0000" stroke-width="1.00"/>
<line shape-type="limitline" x1="353" y1="363" x2="414" y2="363" fill="#FFFFFF" stroke="#FF0000" stroke-width="1.00"/>
<line shape-type="limitline" x1="246" y1="384" x2="307" y2="384" fill="#FFFFFF" stroke="#FF0000" stroke-width="1.00"/>
<line shape-type="limitline" x1="413" y1="384" x2="336" y2="384" fill="#FFFFFF" stroke="#FF0000" stroke-width="1.00"/>
<line shape-type="limitline" x1="309" y1="381" x2="309" y2="466" fill="#FFFFFF" stroke="#FF0000" stroke-width="1.00"/>
<line shape-type="limitline" x1="336" y1="384" x2="336" y2="469" fill="#FFFFFF" stroke="#FF0000" stroke-width="1.00"/>
<line shape-type="limitline" x1="246" y1="384" x2="308" y2="384" fill="#FFFFFF" stroke="#FF0000" stroke-width="1.00"/>
<line shape-type="limitline" x1="41" y1="447" x2="281" y2="447" fill="#FFFFFF" stroke="#FF0000" stroke-width="1.00"/>
<line shape-type="limitline" x1="282" y1="448" x2="282" y2="468" fill="#FFFFFF" stroke="#FF0000" stroke-width="1.00"/>
<line shape-type="limitline" x1="352" y1="448" x2="352" y2="468" fill="#FFFFFF" stroke="#FF0000" stroke-width="1.00"/>
<line shape-type="limitline" x1="352" y1="448" x2="545" y2="448" fill="#FFFFFF" stroke="#FF0000" stroke-width="1.00"/>
<line shape-type="limitline" x1="547" y1="448" x2="547" y2="385" fill="#FFFFFF" stroke="#FF0000" stroke-width="1.00"/>
<line shape-type="limitline" x1="547" y1="385" x2="589" y2="385" fill="#FFFFFF" stroke="#FF0000" stroke-width="1.00"/>
<line shape-type="limitline" x1="276" y1="292" x2="299" y2="292" fill="#FFFFFF" stroke="#FF0000" stroke-width="1.00"/>
<line shape-type="limitline" x1="300" y1="292" x2="300" y2="235" fill="#FFFFFF" stroke="#FF0000" stroke-width="1.00"/>
<line shape-type="limitline" x1="300" y1="234" x2="345" y2="234" fill="#FFFFFF" stroke="#FF0000" stroke-width="1.00"/>
<line shape-type="limitline" x1="360" y1="235" x2="419" y2="235" fill="#FFFFFF" stroke="#FF0000" stroke-width="1.00"/>
<line shape-type="limitline" x1="433" y1="235" x2="492" y2="235" fill="#FFFFFF" stroke="#FF0000" stroke-width="1.00"/>
<line shape-type="limitline" x1="509" y1="234" x2="601" y2="234" fill="#FFFFFF" stroke="#FF0000" stroke-width="1.00"/>
<line shape-type="limitline" x1="230" y1="258" x2="230" y2="186" fill="#FFFFFF" stroke="#FF0000" stroke-width="1.00"/>
<line shape-type="limitline" x1="230" y1="186" x2="503" y2="186" fill="#FFFFFF" stroke="#FF0000" stroke-width="1.00"/>
<line shape-type="limitline" x1="425" y1="257" x2="425" y2="185" fill="#FFFFFF" stroke="#FF0000" stroke-width="1.00"/>
<line shape-type="limitline" x1="502" y1="186" x2="502" y2="358" fill="#FFFFFF" stroke="#FF0000" stroke-width="1.00"/>
<line shape-type="limitline" x1="504" y1="359" x2="586" y2="359" fill="#FFFFFF" stroke="#FF0000" stroke-width="1.00"/>
<line shape-type="limitline" x1="362" y1="515" x2="404" y2="515" fill="#FFFFFF" stroke="#FF0000" stroke-width="1.00"/>
<line shape-type="limitline" x1="405" y1="514" x2="405" y2="599" fill="#FFFFFF" stroke="#FF0000" stroke-width="1.00"/>
<line shape-type="limitline" x1="404" y1="598" x2="758" y2="598" fill="#FFFFFF" stroke="#FF0000" stroke-width="1.00"/>
<line shape-type="limitline" x1="715" y1="461" x2="715" y2="495" fill="#FFFFFF" stroke="#FF0000" stroke-width="1.00"/>
<line shape-type="limitline" x1="809" y1="460" x2="809" y2="494" fill="#FFFFFF" stroke="#FF0000" stroke-width="1.00"/>
<line shape-type="limitline" x1="714" y1="459" x2="907" y2="459" fill="#FFFFFF" stroke="#FF0000" stroke-width="1.00"/>
<line shape-type="limitline" x1="652" y1="310" x2="675" y2="310" fill="#FFFFFF" stroke="#FF0000" stroke-width="1.00"/>
<line shape-type="limitline" x1="673" y1="309" x2="673" y2="440" fill="#FFFFFF" stroke="#FF0000" stroke-width="1.00"/>
<line shape-type="limitline" x1="673" y1="442" x2="906" y2="442" fill="#FFFFFF" stroke="#FF0000" stroke-width="1.00"/>
<line shape-type="limitline" x1="827" y1="275" x2="827" y2="442" fill="#FFFFFF" stroke="#FF0000" stroke-width="1.00"/>
<line shape-type="limitline" x1="607" y1="253" x2="607" y2="211" fill="#FFFFFF" stroke="#FF0000" stroke-width="1.00"/>
<line shape-type="limitline" x1="681" y1="275" x2="829" y2="275" fill="#FFFFFF" stroke="#FF0000" stroke-width="1.00"/>
<line shape-type="limitline" x1="613" y1="234" x2="678" y2="234" fill="#FFFFFF" stroke="#FF0000" stroke-width="1.00"/>
<line shape-type="limitline" x1="679" y1="276" x2="679" y2="234" fill="#FFFFFF" stroke="#FF0000" stroke-width="1.00"/>
<line shape-type="limitline" x1="606" y1="211" x2="712" y2="211" fill="#FFFFFF" stroke="#FF0000" stroke-width="1.00"/>
<line shape-type="limitline" x1="712" y1="253" x2="712" y2="211" fill="#FFFFFF" stroke="#FF0000" stroke-width="1.00"/>
<line shape-type="limitline" x1="713" y1="250" x2="877" y2="250" fill="#FFFFFF" stroke="#FF0000" stroke-width="1.00"/>
<g shape-type="group">
<g shape-type="group">
<polygon shape-type="parallel" points="888,275 879,275 883,266 892,266 888,275" fill="#808080" stroke="#000000" stroke-width="1.00"/>
<rect shape-type="rectangle" x="874" y="275" width="16" height="5" fill="#808080" stroke="#000000" stroke-width="1.00"/>
</g>
<g shape-type="group">
<polygon shape-type="parallel" points="906,276 915,276 911,267 902,267 906,276" fill="#808080" stroke="#000000" stroke-width="1.00"/>
<rect shape-type="rectangle" x="904" y="275" width="17" height="5" fill="#808080" stroke="#000000" stroke-width="1.00"/>
</g>
<g shape-type="group">
<ellipse shape-type="ellipse" cx="897" cy="254" rx="22" ry="20" stroke="#000000" stroke-width="1.00"/>
<ellipse shape-type="ellipse" cx="897" cy="253" rx="22" ry="20" fill="#D8D8D8" stroke="#000000" stroke-width="1.00"/>
<path shape-type="arc" d="M 889,270 A 21,18 0 1,0 903,236" fill="none" stroke="#000000" stroke-width="1.00"/>
</g>
<g shape-type="group">
<g shape-type="group">
<ellipse shape-type="ellipse" cx="897" cy="253" rx="8" ry="7" fill="#A2A2A2" stroke="#000000" stroke-width="1.00"/>
<ellipse shape-type="ellipse" cx="896" cy="252" rx="6" ry="6" stroke="#000000" stroke-width="1.00"/>
</g>
<line shape-type="line" x1="894" y1="256" x2="901" y2="246" fill="#00FFFF" stroke="#C0C0C0" stroke-width="1.00"/>
<line shape-type="line" x1="901" y1="256" x2="892" y2="247" fill="#00FFFF" stroke="#C0C0C0" stroke-width="1.00"/>
<line shape-type="line" x1="904" y1="252" x2="890" y2="252" fill="#00FFFF" stroke="#C0C0C0" stroke-width="1.00"/>
<ellipse shape-type="ellipse" cx="897" cy="253" rx="2" ry="1" fill="#FFFFFF" stroke="#000000" stroke-width="1.00"/>
</g>
</g>
<line shape-type="limitline" x1="913" y1="242" x2="913" y2="214" fill="#FFFFFF" stroke="#FF0000" stroke-width="1.00"/>
<line shape-type="limitline" x1="914" y1="213" x2="960" y2="213" fill="#FFFFFF" stroke="#FF0000" stroke-width="1.00"/>
<line shape-type="limitline" x1="963" y1="213" x2="963" y2="171" fill="#FFFFFF" stroke="#FF0000" stroke-width="1.00"/>
<text font-family="宋体" text-anchor="start" fill="#FFFFFF" shape-type="text" id="" font-size="12.500000" font-weight="bold" x="930" y="462">004x001</text>
<text font-family="宋体" text-anchor="start" fill="#FFFFFF" shape-type="text" id="" font-size="12.500000" font-weight="bold" x="872" y="296">004K001</text>
<text font-family="宋体" text-anchor="start" fill="#FFFFFF" shape-type="text" id="" font-size="12.500000" font-weight="bold" x="682" y="568">004P001a</text>
<text font-family="宋体" text-anchor="start" fill="#FFFFFF" shape-type="text" id="" font-size="12.500000" font-weight="bold" x="779" y="571">004P001b</text>
<text font-family="宋体" text-anchor="start" fill="#FFFFFF" shape-type="text" id="" font-size="12.500000" font-weight="bold" x="195" y="416">004V001a</text>
<text font-family="宋体" text-anchor="start" fill="#FFFFFF" shape-type="text" id="" font-size="12.500000" font-weight="bold" x="390" y="416">004V001b</text>
<text font-family="宋体" text-anchor="start" fill="#FFFFFF" shape-type="text" id="" font-size="12.500000" font-weight="bold" x="572" y="415">004V002</text>
<text font-family="宋体" text-anchor="start" fill="#FFFFFF" shape-type="text" id="" font-size="12.500000" font-weight="bold" x="284" y="627">004V003</text>
<rect shape-type="rectangle" x="64" y="176" width="63" height="19" fill="#4A494A" stroke="#C0C0C0" stroke-width="3.00"/>
<text font-family="Arial" text-anchor="start" fill="#00FFFF" shape-type="realdata" id="CYB_YTCY_LT_0001" font-size="12.500000" x="69" y="189">XXXX</text>
<rect shape-type="rectangle" x="128" y="176" width="36" height="19" fill="#4A494A" stroke="#C0C0C0" stroke-width="3.00"/>
<text font-family="宋体" text-anchor="start" fill="#00FF42" shape-type="text" id="" font-size="9.500000" font-weight="bold" x="137" y="189">cm</text>
<rect shape-type="rectangle" x="63" y="155" width="101" height="19" fill="#4A494A" stroke="#C0C0C0" stroke-width="3.00"/>
<text font-family="宋体" text-anchor="start" fill="#FFFFFF" shape-type="text" id="" font-size="12.500000" font-weight="bold" x="67" y="168">SICX0001</text>
<rect shape-type="rectangle" x="754" y="210" width="63" height="19" fill="#4A494A" stroke="#C0C0C0" stroke-width="3.00"/>
<text font-family="Arial" text-anchor="start" fill="#00FFFF" shape-type="realdata" id="CYB_YTCY_LT_0001" font-size="12.500000" x="759" y="222">XXXX</text>
<rect shape-type="rectangle" x="818" y="210" width="36" height="19" fill="#4A494A" stroke="#C0C0C0" stroke-width="3.00"/>
<text font-family="宋体" text-anchor="start" fill="#00FF42" shape-type="text" id="" font-size="9.500000" font-weight="bold" x="827" y="223">cm</text>
<rect shape-type="rectangle" x="753" y="189" width="63" height="19" fill="#4A494A" stroke="#C0C0C0" stroke-width="3.00"/>
<text font-family="宋体" text-anchor="start" fill="#FFFFFF" shape-type="text" id="" font-size="12.500000" font-weight="bold" x="757" y="202">LT_0001</text>
<rect shape-type="rectangle" x="840" y="329" width="63" height="19" fill="#4A494A" stroke="#C0C0C0" stroke-width="3.00"/>
<text font-family="Arial" text-anchor="start" fill="#00FFFF" shape-type="realdata" id="CYB_YTCY_LT_0001" font-size="12.500000" x="845" y="341">XXXX</text>
<rect shape-type="rectangle" x="904" y="329" width="36" height="19" fill="#4A494A" stroke="#C0C0C0" stroke-width="3.00"/>
<text font-family="宋体" text-anchor="start" fill="#00FF42" shape-type="text" id="" font-size="9.500000" font-weight="bold" x="913" y="342">cm</text>
<rect shape-type="rectangle" x="839" y="308" width="63" height="19" fill="#4A494A" stroke="#C0C0C0" stroke-width="3.00"/>
<text font-family="宋体" text-anchor="start" fill="#FFFFFF" shape-type="text" id="" font-size="12.500000" font-weight="bold" x="843" y="321">LT_0001</text>
<rect shape-type="rectangle" x="840" y="381" width="63" height="19" fill="#4A494A" stroke="#C0C0C0" stroke-width="3.00"/>
<text font-family="Arial" text-anchor="start" fill="#00FFFF" shape-type="realdata" id="CYB_YTCY_LT_0001" font-size="12.500000" x="845" y="393">XXXX</text>
<rect shape-type="rectangle" x="904" y="381" width="36" height="19" fill="#4A494A" stroke="#C0C0C0" stroke-width="3.00"/>
<text font-family="宋体" text-anchor="start" fill="#00FF42" shape-type="text" id="" font-size="9.500000" font-weight="bold" x="913" y="394">cm</text>
<rect shape-type="rectangle" x="839" y="360" width="63" height="19" fill="#4A494A" stroke="#C0C0C0" stroke-width="3.00"/>
<text font-family="宋体" text-anchor="start" fill="#FFFFFF" shape-type="text" id="" font-size="12.500000" font-weight="bold" x="843" y="373">LT_0001</text>
<rect shape-type="rectangle" x="942" y="244" width="63" height="19" fill="#4A494A" stroke="#C0C0C0" stroke-width="3.00"/>
<rect shape-type="rectangle" x="1006" y="244" width="36" height="19" fill="#4A494A" stroke="#C0C0C0" stroke-width="3.00"/>
<text font-family="宋体" text-anchor="start" fill="#00FF42" shape-type="text" id="" font-size="9.500000" font-weight="bold" x="1015" y="257">cm</text>
<rect shape-type="rectangle" x="941" y="223" width="63" height="19" fill="#4A494A" stroke="#C0C0C0" stroke-width="3.00"/>
<text font-family="宋体" text-anchor="start" fill="#FFFFFF" shape-type="text" id="" font-size="12.500000" font-weight="bold" x="945" y="236">LT_0001</text>
<rect shape-type="rectangle" x="378" y="480" width="63" height="19" fill="#4A494A" stroke="#C0C0C0" stroke-width="3.00"/>
<rect shape-type="rectangle" x="442" y="480" width="36" height="19" fill="#4A494A" stroke="#C0C0C0" stroke-width="3.00"/>
<text font-family="宋体" text-anchor="start" fill="#00FF42" shape-type="text" id="" font-size="9.500000" font-weight="bold" x="451" y="493">cm</text>
<rect shape-type="rectangle" x="377" y="459" width="63" height="19" fill="#4A494A" stroke="#C0C0C0" stroke-width="3.00"/>
<text font-family="宋体" text-anchor="start" fill="#FFFFFF" shape-type="text" id="" font-size="12.500000" font-weight="bold" x="381" y="472">LT_0001</text>
<rect shape-type="rectangle" x="64" y="408" width="63" height="19" fill="#4A494A" stroke="#C0C0C0" stroke-width="3.00"/>
<rect shape-type="rectangle" x="128" y="408" width="36" height="19" fill="#4A494A" stroke="#C0C0C0" stroke-width="3.00"/>
<text font-family="宋体" text-anchor="start" fill="#00FF42" shape-type="text" id="" font-size="9.500000" font-weight="bold" x="137" y="421">cm</text>
<rect shape-type="rectangle" x="63" y="387" width="63" height="19" fill="#4A494A" stroke="#C0C0C0" stroke-width="3.00"/>
<text font-family="宋体" text-anchor="start" fill="#FFFFFF" shape-type="text" id="" font-size="12.500000" font-weight="bold" x="67" y="400">LT_0001</text>
</svg>
