<?xml version="1.0"?>
<?xml-stylesheet type='text/javascript'?>
<!--Draw SVG: 2019-11-25 09:41:00 47-Monday-->
<svg xmlns="http://www.w3.org/2000/svg" xmlns:xlink="http://www.w3.org/1999/xlink" version="1.1" style="background-color:#000000" width="1066" height="800" viewbox="0 0 1066 800">
<defs>
<radialGradient cx="50.000000%" cy="50.000000%" r="50.000000%" fx="50.000000%" fy="50.000000%" id="rgradient6">
<stop offset="0%" stop-color="#FFFFFF" stop-opacity="1"/>
<stop offset="100%" stop-color="#2C2C2C" stop-opacity="1"/>
</radialGradient>
<radialGradient cx="50.000000%" cy="50.000000%" r="50.000000%" fx="50.000000%" fy="50.000000%" id="rgradient37">
<stop offset="0%" stop-color="#FFFFFF" stop-opacity="1"/>
<stop offset="100%" stop-color="#2C2C2C" stop-opacity="1"/>
</radialGradient>
</defs>
<g shape-type="group">
<rect shape-type="rectangle" x="449" y="323" width="234" height="111" fill="#FFFF00" stroke="#000000" stroke-width="1.00"/>
<rect shape-type="rectangle" x="449" y="275" width="234" height="60" fill="#FFFFFF" stroke="#000000" stroke-width="1.00"/>
</g>
<rect shape-type="rectangle" x="0" y="1" width="1065" height="38" fill="#636563" stroke="#808080" stroke-width="1.00"/>
<rect shape-type="rectangle" x="292" y="3" width="500" height="34" stroke="#000000" stroke-width="1.00"/>
<text font-family="宋体" text-anchor="start" fill="#FFFFFF" shape-type="text" id="" font-size="26.750000" font-weight="bold" x="456" y="28">雨水提升泵站</text>
<a xlink:href="\橡胶化学品部\RT\水解工序\SJGX_ML.svg">
<g shape-type="button">
<rect fill="#C0C0C0" stroke-width="0.3" stroke="#FFFFFF" x="962" y="1" width="100" height="36" shape-type="buttonrect"/>
<text font-family="宋体" text-anchor="middle" dominant-baseline="middle" fill="#800000" font-size="13.500000" font-weight="bold" x="1012" y="25" shape-type="buttontext">返回上一级</text>
</g>
</a>
<ellipse shape-type="ellipse" cx="421" cy="308" rx="9" ry="9" fill="url(#rgradient6)" stroke="#000000" stroke-width="1.00"/>
<g shape-type="group">
<g shape-type="group">
<polygon shape-type="parallel" points="638,565 629,565 633,555 642,555 638,565" fill="#808080" stroke="#000000" stroke-width="1.00"/>
<rect shape-type="rectangle" x="624" y="565" width="16" height="5" fill="#808080" stroke="#000000" stroke-width="1.00"/>
</g>
<g shape-type="group">
<polygon shape-type="parallel" points="656,566 665,566 661,556 652,556 656,566" fill="#808080" stroke="#000000" stroke-width="1.00"/>
<rect shape-type="rectangle" x="654" y="565" width="17" height="5" fill="#808080" stroke="#000000" stroke-width="1.00"/>
</g>
<g shape-type="group">
<ellipse shape-type="ellipse" cx="647" cy="543" rx="22" ry="20" stroke="#000000" stroke-width="1.00"/>
<ellipse shape-type="ellipse" cx="647" cy="543" rx="22" ry="20" fill="#D8D8D8" stroke="#000000" stroke-width="1.00"/>
<path shape-type="arc" d="M 639,559 A 21,17 0 1,0 653,526" fill="none" stroke="#000000" stroke-width="1.00"/>
</g>
<g shape-type="group">
<g shape-type="group">
<ellipse shape-type="ellipse" cx="647" cy="542" rx="8" ry="8" fill="#A2A2A2" stroke="#000000" stroke-width="1.00"/>
<ellipse shape-type="ellipse" cx="646" cy="541" rx="6" ry="6" stroke="#000000" stroke-width="1.00"/>
</g>
<line shape-type="line" x1="644" y1="546" x2="651" y2="535" fill="#00FFFF" stroke="#C0C0C0" stroke-width="1.00"/>
<line shape-type="line" x1="651" y1="546" x2="642" y2="536" fill="#00FFFF" stroke="#C0C0C0" stroke-width="1.00"/>
<line shape-type="line" x1="654" y1="542" x2="640" y2="542" fill="#00FFFF" stroke="#C0C0C0" stroke-width="1.00"/>
<ellipse shape-type="ellipse" cx="647" cy="542" rx="2" ry="1" fill="#FFFFFF" stroke="#000000" stroke-width="1.00"/>
</g>
</g>
<text font-family="宋体" text-anchor="start" fill="#FFFFFF" shape-type="text" id="" font-size="12.500000" font-weight="bold" x="621" y="590">P00101B</text>
<text font-family="宋体" text-anchor="start" fill="#FFFFFF" shape-type="text" id="" font-size="12.500000" font-weight="bold" x="343" y="293">起停液位信号</text>
<rect shape-type="rectangle" x="236" y="210" width="63" height="19" fill="#4A494A" stroke="#C0C0C0" stroke-width="3.00"/>
<text font-family="Arial" text-anchor="start" fill="#00FFFF" shape-type="realdata" id="CYB_YTCY_LT_0001" font-size="12.500000" x="242" y="224">XXXX</text>
<rect shape-type="rectangle" x="300" y="210" width="36" height="19" fill="#4A494A" stroke="#C0C0C0" stroke-width="3.00"/>
<text font-family="宋体" text-anchor="start" fill="#00FF42" shape-type="text" id="" font-size="9.500000" font-weight="bold" x="309" y="222">MPa</text>
<rect shape-type="rectangle" x="235" y="189" width="101" height="19" fill="#4A494A" stroke="#C0C0C0" stroke-width="3.00"/>
<text font-family="宋体" text-anchor="start" fill="#FFFFFF" shape-type="text" id="" font-size="12.500000" font-weight="bold" x="239" y="202">PT00101</text>
<rect shape-type="rectangle" x="583" y="151" width="63" height="19" fill="#4A494A" stroke="#C0C0C0" stroke-width="3.00"/>
<rect shape-type="rectangle" x="647" y="151" width="36" height="19" fill="#4A494A" stroke="#C0C0C0" stroke-width="3.00"/>
<text font-family="宋体" text-anchor="start" fill="#00FF42" shape-type="text" id="" font-size="9.500000" font-weight="bold" x="656" y="164">A</text>
<rect shape-type="rectangle" x="584" y="129" width="99" height="19" fill="#4A494A" stroke="#C0C0C0" stroke-width="3.00"/>
<text font-family="宋体" text-anchor="start" fill="#FFFFFF" shape-type="text" id="" font-size="12.500000" font-weight="bold" x="593" y="143">IIP606</text>
<rect shape-type="rectangle" x="711" y="302" width="63" height="19" fill="#4A494A" stroke="#C0C0C0" stroke-width="3.00"/>
<rect shape-type="rectangle" x="775" y="302" width="36" height="19" fill="#4A494A" stroke="#C0C0C0" stroke-width="3.00"/>
<text font-family="宋体" text-anchor="start" fill="#00FF42" shape-type="text" id="" font-size="9.500000" font-weight="bold" x="784" y="315">mm</text>
<rect shape-type="rectangle" x="711" y="281" width="100" height="19" fill="#4A494A" stroke="#C0C0C0" stroke-width="3.00"/>
<text font-family="宋体" text-anchor="start" fill="#FFFFFF" shape-type="text" id="" font-size="12.500000" font-weight="bold" x="723" y="296">LT00101</text>
<text font-family="Arial" text-anchor="start" fill="#00FFFF" shape-type="realdata" id="CYB_YTCY_LT_0001" font-size="12.500000" x="717" y="316">XXXX</text>
<text font-family="Arial" text-anchor="start" fill="#00FFFF" shape-type="realdata" id="CYB_YTCY_LT_0001" font-size="12.500000" x="587" y="165">XXXX</text>
<g shape-type="group">
<g shape-type="group">
<polygon shape-type="parallel" points="516,566 507,566 511,556 520,556 516,566" fill="#808080" stroke="#000000" stroke-width="1.00"/>
<rect shape-type="rectangle" x="502" y="566" width="16" height="5" fill="#808080" stroke="#000000" stroke-width="1.00"/>
</g>
<g shape-type="group">
<polygon shape-type="parallel" points="534,567 543,567 539,557 530,557 534,567" fill="#808080" stroke="#000000" stroke-width="1.00"/>
<rect shape-type="rectangle" x="532" y="566" width="17" height="5" fill="#808080" stroke="#000000" stroke-width="1.00"/>
</g>
<g shape-type="group">
<ellipse shape-type="ellipse" cx="525" cy="544" rx="22" ry="20" stroke="#000000" stroke-width="1.00"/>
<ellipse shape-type="ellipse" cx="525" cy="544" rx="22" ry="20" fill="#D8D8D8" stroke="#000000" stroke-width="1.00"/>
<path shape-type="arc" d="M 517,560 A 21,17 0 1,0 531,527" fill="none" stroke="#000000" stroke-width="1.00"/>
</g>
<g shape-type="group">
<g shape-type="group">
<ellipse shape-type="ellipse" cx="526" cy="543" rx="8" ry="8" fill="#A2A2A2" stroke="#000000" stroke-width="1.00"/>
<ellipse shape-type="ellipse" cx="525" cy="542" rx="6" ry="6" stroke="#000000" stroke-width="1.00"/>
</g>
<line shape-type="line" x1="522" y1="547" x2="529" y2="536" fill="#00FFFF" stroke="#C0C0C0" stroke-width="1.00"/>
<line shape-type="line" x1="529" y1="547" x2="520" y2="538" fill="#00FFFF" stroke="#C0C0C0" stroke-width="1.00"/>
<line shape-type="line" x1="532" y1="543" x2="518" y2="543" fill="#00FFFF" stroke="#C0C0C0" stroke-width="1.00"/>
<ellipse shape-type="ellipse" cx="525" cy="543" rx="2" ry="1" fill="#FFFFFF" stroke="#000000" stroke-width="1.00"/>
</g>
</g>
<text font-family="宋体" text-anchor="start" fill="#FFFFFF" shape-type="text" id="" font-size="12.500000" font-weight="bold" x="494" y="591">P00101A</text>
<line shape-type="limitline" x1="572" y1="634" x2="254" y2="634" fill="#FFFFFF" stroke="#FF0000" stroke-width="1.00"/>
<line shape-type="limitline" x1="647" y1="524" x2="647" y2="435" fill="#FFFFFF" stroke="#FF0000" stroke-width="1.00"/>
<line shape-type="limitline" x1="525" y1="523" x2="525" y2="435" fill="#FFFFFF" stroke="#FF0000" stroke-width="1.00"/>
<line shape-type="limitline" x1="645" y1="281" x2="645" y2="193" fill="#FFFFFF" stroke="#FF0000" stroke-width="1.00"/>
<line shape-type="limitline" x1="572" y1="634" x2="572" y2="546" fill="#FFFFFF" stroke="#FF0000" stroke-width="1.00"/>
<line shape-type="limitline" x1="573" y1="546" x2="628" y2="546" fill="#FFFFFF" stroke="#FF0000" stroke-width="1.00"/>
<line shape-type="limitline" x1="456" y1="545" x2="506" y2="545" fill="#FFFFFF" stroke="#FF0000" stroke-width="1.00"/>
<ellipse shape-type="ellipse" cx="467" cy="309" rx="9" ry="9" fill="url(#rgradient37)" stroke="#000000" stroke-width="1.00"/>
<line shape-type="limitline" x1="572" y1="634" x2="203" y2="634" fill="#FFFFFF" stroke="#FF0000" stroke-width="1.00"/>
<line shape-type="limitline" x1="205" y1="635" x2="205" y2="174" fill="#FFFFFF" stroke="#FF0000" stroke-width="1.00"/>
<text font-family="宋体" text-anchor="start" fill="#FFFFFF" shape-type="text" id="" font-size="12.500000" font-weight="bold" x="90" y="229">至雨水排水沟</text>
<line shape-type="limitline" x1="208" y1="210" x2="235" y2="210" fill="#C0C0C0" stroke="#FFFFFF" stroke-width="1.00" stroke-dasharray="5 10"/>
<g shape-type="group">
<g shape-type="group">
<polygon shape-type="parallel" points="705,214 696,214 699,204 708,204 705,214" fill="#808080" stroke="#000000" stroke-width="1.00"/>
<rect shape-type="rectangle" x="691" y="214" width="15" height="5" fill="#808080" stroke="#000000" stroke-width="1.00"/>
</g>
<g shape-type="group">
<polygon shape-type="parallel" points="722,215 731,215 728,205 719,205 722,215" fill="#808080" stroke="#000000" stroke-width="1.00"/>
<rect shape-type="rectangle" x="721" y="214" width="17" height="5" fill="#808080" stroke="#000000" stroke-width="1.00"/>
</g>
<g shape-type="group">
<ellipse shape-type="ellipse" cx="713" cy="193" rx="21" ry="20" stroke="#000000" stroke-width="1.00"/>
<ellipse shape-type="ellipse" cx="713" cy="192" rx="21" ry="19" fill="#D8D8D8" stroke="#000000" stroke-width="1.00"/>
<path shape-type="arc" d="M 706,208 A 20,17 0 1,0 719,175" fill="none" stroke="#000000" stroke-width="1.00"/>
</g>
<g shape-type="group">
<g shape-type="group">
<ellipse shape-type="ellipse" cx="714" cy="191" rx="9" ry="8" fill="#A2A2A2" stroke="#000000" stroke-width="1.00"/>
<ellipse shape-type="ellipse" cx="713" cy="191" rx="7" ry="6" stroke="#000000" stroke-width="1.00"/>
</g>
<line shape-type="line" x1="710" y1="195" x2="718" y2="184" fill="#00FFFF" stroke="#C0C0C0" stroke-width="1.00"/>
<line shape-type="line" x1="718" y1="195" x2="708" y2="185" fill="#00FFFF" stroke="#C0C0C0" stroke-width="1.00"/>
<line shape-type="line" x1="721" y1="191" x2="706" y2="191" fill="#00FFFF" stroke="#C0C0C0" stroke-width="1.00"/>
<ellipse shape-type="ellipse" cx="713" cy="192" rx="2" ry="1" fill="#FFFFFF" stroke="#000000" stroke-width="1.00"/>
</g>
</g>
<line shape-type="limitline" x1="457" y1="631" x2="457" y2="543" fill="#FFFFFF" stroke="#FF0000" stroke-width="1.00"/>
<line shape-type="limitline" x1="644" y1="193" x2="694" y2="193" fill="#FFFFFF" stroke="#FF0000" stroke-width="1.00"/>
<line shape-type="limitline" x1="686" y1="298" x2="713" y2="298" fill="#C0C0C0" stroke="#FFFFFF" stroke-width="1.00" stroke-dasharray="5 10"/>
<text font-family="宋体" text-anchor="start" fill="#FFFFFF" shape-type="text" id="" font-size="12.500000" font-weight="bold" x="686" y="232">P00101C</text>
<line shape-type="limitline" x1="712" y1="150" x2="822" y2="150" fill="#FFFFFF" stroke="#FF0000" stroke-width="1.00"/>
<line shape-type="limitline" x1="712" y1="149" x2="712" y2="175" fill="#FFFFFF" stroke="#FF0000" stroke-width="1.00"/>
<text font-family="宋体" text-anchor="start" fill="#FFFFFF" shape-type="text" id="" font-size="12.500000" font-weight="bold" x="832" y="156">动力部污水处理（大生化）</text>
</svg>
