<?xml version="1.0"?>
<?xml-stylesheet type='text/javascript'?>
<!--Draw SVG: 2019-11-25 09:41:17 47-Monday-->
<svg xmlns="http://www.w3.org/2000/svg" xmlns:xlink="http://www.w3.org/1999/xlink" version="1.1" style="background-color:#000000" width="1066" height="800" viewbox="0 0 1066 800">
<defs>
<marker id="Arrow1" markerUnits="strokeWidth" markerWidth="6" markerHeight="6" viewBox="0 0 6 6" refX="3" refY="3" orient="auto"><polygon points="1,1 5,3 1,5" style="fill: #000000;"/></marker>
<marker id="Arrow2" markerUnits="strokeWidth" markerWidth="6" markerHeight="6" viewBox="0 0 6 6" refX="3" refY="3" orient="auto"><polygon points="5,1 1,3 5,5" style="fill: #000000;"/></marker>
<linearGradient x1="0.000000%" y1="50.000000%" x2="100.000000%" y2="50.000000%" id="lgradient22">
<stop offset="0" stop-color="#161616" stop-opacity="1"/>
<stop offset="0.5" stop-color="#808080" stop-opacity="1"/>
<stop offset="1" stop-color="#161616" stop-opacity="1"/>
</linearGradient>
<linearGradient x1="50.000000%" y1="0.000000%" x2="50.000000%" y2="100.000000%" id="lgradient23">
<stop offset="0" stop-color="#161616" stop-opacity="1"/>
<stop offset="0.5" stop-color="#808080" stop-opacity="1"/>
<stop offset="1" stop-color="#161616" stop-opacity="1"/>
</linearGradient>
<linearGradient x1="0.000000%" y1="50.000000%" x2="100.000000%" y2="50.000000%" id="lgradient24">
<stop offset="0" stop-color="#161616" stop-opacity="1"/>
<stop offset="0.5" stop-color="#808080" stop-opacity="1"/>
<stop offset="1" stop-color="#161616" stop-opacity="1"/>
</linearGradient>
<linearGradient x1="50.000000%" y1="0.000000%" x2="50.000000%" y2="100.000000%" id="lgradient25">
<stop offset="0" stop-color="#161616" stop-opacity="1"/>
<stop offset="0.5" stop-color="#808080" stop-opacity="1"/>
<stop offset="1" stop-color="#161616" stop-opacity="1"/>
</linearGradient>
<linearGradient x1="50.000000%" y1="0.000000%" x2="50.000000%" y2="100.000000%" id="lgradient70_0">
<stop offset="0" stop-color="#212121" stop-opacity="1"/>
<stop offset="0.5" stop-color="#C0C0C0" stop-opacity="1"/>
<stop offset="1" stop-color="#212121" stop-opacity="1"/>
</linearGradient>
<radialGradient cx="50.000000%" cy="50.000000%" r="50.000000%" fx="50.000000%" fy="50.000000%" id="rgradient70_2">
<stop offset="0%" stop-color="#C0C0C0" stop-opacity="1"/>
<stop offset="100%" stop-color="#212121" stop-opacity="1"/>
</radialGradient>
<pattern id="BRH_DIAGCROSS141" patternUnits="userSpaceOnUse" x="0" y="0" width="10" height="10"><line x1="0" y1="0" x2="10" y2="10" stroke="#FFFFFF" stroke-width="0.5"/><line x1="0" y1="10" x2="10" y2="0" stroke="#FFFFFF" stroke-width="0.5"/></pattern>
<linearGradient x1="0.000000%" y1="50.000000%" x2="100.000000%" y2="50.000000%" id="lgradient151">
<stop offset="0" stop-color="#111111" stop-opacity="1"/>
<stop offset="0.5" stop-color="#636563" stop-opacity="1"/>
<stop offset="1" stop-color="#111111" stop-opacity="1"/>
</linearGradient>
</defs>
<rect shape-type="rectangle" x="1" y="1" width="1065" height="38" fill="#636563" stroke="#808080" stroke-width="1.00"/>
<line shape-type="line" x1="947" y1="204" x2="824" y2="204" fill="#00FFFF" stroke="#0080C0" stroke-width="3.00"/>
<line shape-type="line" x1="133" y1="356" x2="104" y2="358" fill="#00FFFF" stroke="#0080FF" stroke-width="3.00"/>
<line shape-type="line" x1="133" y1="327" x2="131" y2="357" fill="#00FFFF" stroke="#0080FF" stroke-width="3.00"/>
<line shape-type="line" x1="133" y1="387" x2="132" y2="352" fill="#00FFFF" stroke="#0080FF" stroke-width="3.00"/>
<line shape-type="line" x1="751" y1="386" x2="752" y2="117" fill="#00FFFF" stroke="#0080FF" stroke-width="3.00"/>
<line shape-type="line" x1="824" y1="204" x2="824" y2="115" fill="#00FFFF" stroke="#0080FF" stroke-width="3.00"/>
<line shape-type="line" x1="952" y1="354" x2="752" y2="355" fill="#00FFFF" stroke="#0080C0" stroke-width="3.00"/>
<line shape-type="line" x1="201" y1="646" x2="200" y2="520" marker-end="url(#Arrow1)" fill="#00FFFF" stroke="#00FF00" stroke-width="3.00"/>
<line shape-type="line" x1="303" y1="646" x2="202" y2="646" fill="#00FFFF" stroke="#00FF00" stroke-width="3.00"/>
<line shape-type="line" x1="302" y1="659" x2="303" y2="429" marker-end="url(#Arrow1)" fill="#00FFFF" stroke="#00FF00" stroke-width="3.00"/>
<line shape-type="line" x1="963" y1="660" x2="303" y2="659" marker-end="url(#Arrow1)" fill="#00FFFF" stroke="#00FF00" stroke-width="3.00"/>
<line shape-type="line" x1="371" y1="534" x2="371" y2="429" marker-end="url(#Arrow1)" fill="#00FFFF" stroke="#00FF00" stroke-width="3.00"/>
<line shape-type="line" x1="578" y1="532" x2="371" y2="534" fill="#00FFFF" stroke="#00FF00" stroke-width="3.00"/>
<line shape-type="line" x1="443" y1="531" x2="443" y2="429" marker-end="url(#Arrow1)" fill="#00FFFF" stroke="#00FF00" stroke-width="3.00"/>
<line shape-type="line" x1="508" y1="533" x2="508" y2="430" marker-end="url(#Arrow1)" fill="#00FFFF" stroke="#00FF00" stroke-width="3.00"/>
<line shape-type="line" x1="575" y1="659" x2="576" y2="432" marker-end="url(#Arrow1)" fill="#00FFFF" stroke="#00FF00" stroke-width="2.00"/>
<line shape-type="line" x1="349" y1="566" x2="306" y2="566" fill="#00FFFF" stroke="#00FF00" stroke-width="3.00"/>
<line shape-type="line" x1="326" y1="543" x2="326" y2="567" marker-start="url(#Arrow2)" fill="#00FFFF" stroke="#00FF00" stroke-width="3.00"/>
<line shape-type="line" x1="338" y1="546" x2="338" y2="566" marker-start="url(#Arrow2)" fill="#00FFFF" stroke="#00FF00" stroke-width="3.00"/>
<line shape-type="line" x1="349" y1="546" x2="349" y2="566" marker-start="url(#Arrow2)" fill="#00FFFF" stroke="#00FF00" stroke-width="3.00"/>
<polygon shape-type="trapezium" points="547,159 359,159 453,118 453,118 547,159" fill="url(#lgradient22)" stroke="#808080" stroke-width="5.00"/>
<rect shape-type="rectangle" x="368" y="160" width="168" height="98" fill="url(#lgradient23)" stroke="#808080" stroke-width="5.00"/>
<polygon shape-type="trapezium" points="615,296 287,296 369,260 533,260 615,296" fill="url(#lgradient24)" stroke="#808080" stroke-width="5.00"/>
<rect shape-type="rectangle" x="286" y="298" width="335" height="130" fill="url(#lgradient25)" stroke="#808080" stroke-width="5.00"/>
<g shape-type="group">
<line shape-type="line" x1="430" y1="381" x2="425" y2="388" fill="#00FFFF" stroke="#0080FF" stroke-width="3.00"/>
<line shape-type="line" x1="435" y1="390" x2="430" y2="381" fill="#00FFFF" stroke="#0080FF" stroke-width="3.00"/>
<line shape-type="line" x1="442" y1="384" x2="435" y2="392" fill="#00FFFF" stroke="#0080FF" stroke-width="3.00"/>
<line shape-type="line" x1="449" y1="392" x2="442" y2="384" fill="#00FFFF" stroke="#0080FF" stroke-width="3.00"/>
<line shape-type="line" x1="455" y1="381" x2="449" y2="392" fill="#00FFFF" stroke="#0080FF" stroke-width="3.00"/>
<line shape-type="line" x1="460" y1="390" x2="455" y2="381" fill="#00FFFF" stroke="#0080FF" stroke-width="3.00"/>
<line shape-type="line" x1="466" y1="384" x2="460" y2="390" fill="#00FFFF" stroke="#0080FF" stroke-width="3.00"/>
<line shape-type="line" x1="474" y1="392" x2="466" y2="384" fill="#00FFFF" stroke="#0080FF" stroke-width="3.00"/>
<line shape-type="line" x1="475" y1="381" x2="474" y2="392" fill="#00FFFF" stroke="#0080FF" stroke-width="3.00"/>
<line shape-type="line" x1="481" y1="384" x2="475" y2="381" fill="#00FFFF" stroke="#0080FF" stroke-width="3.00"/>
<line shape-type="line" x1="427" y1="388" x2="135" y2="388" fill="#00FFFF" stroke="#0080FF" stroke-width="3.00"/>
<line shape-type="line" x1="751" y1="384" x2="481" y2="384" fill="#00FFFF" stroke="#0080FF" stroke-width="3.00"/>
</g>
<g shape-type="group">
<line shape-type="line" x1="429" y1="320" x2="425" y2="327" fill="#00FFFF" stroke="#0080FF" stroke-width="3.00"/>
<line shape-type="line" x1="435" y1="330" x2="429" y2="320" fill="#00FFFF" stroke="#0080FF" stroke-width="3.00"/>
<line shape-type="line" x1="442" y1="319" x2="435" y2="330" fill="#00FFFF" stroke="#0080FF" stroke-width="3.00"/>
<line shape-type="line" x1="448" y1="327" x2="441" y2="319" fill="#00FFFF" stroke="#0080FF" stroke-width="3.00"/>
<line shape-type="line" x1="454" y1="319" x2="447" y2="328" fill="#00FFFF" stroke="#0080FF" stroke-width="3.00"/>
<line shape-type="line" x1="459" y1="330" x2="454" y2="319" fill="#00FFFF" stroke="#0080FF" stroke-width="3.00"/>
<line shape-type="line" x1="466" y1="322" x2="459" y2="330" fill="#00FFFF" stroke="#0080FF" stroke-width="3.00"/>
<line shape-type="line" x1="471" y1="330" x2="466" y2="322" fill="#00FFFF" stroke="#0080FF" stroke-width="3.00"/>
<line shape-type="line" x1="476" y1="322" x2="471" y2="330" fill="#00FFFF" stroke="#0080FF" stroke-width="3.00"/>
<line shape-type="line" x1="483" y1="326" x2="476" y2="322" fill="#00FFFF" stroke="#0080FF" stroke-width="3.00"/>
<line shape-type="line" x1="426" y1="327" x2="137" y2="327" fill="#00FFFF" stroke="#0080FF" stroke-width="3.00"/>
<line shape-type="line" x1="753" y1="327" x2="482" y2="328" fill="#00FFFF" stroke="#0080FF" stroke-width="3.00"/>
</g>
<text font-family="宋体" text-anchor="start" fill="#FFFFFF" shape-type="text" id="" font-size="12.500000" font-weight="bold" x="451" y="446">主烧嘴</text>
<text font-family="宋体" text-anchor="start" fill="#FFFFFF" shape-type="text" id="" font-size="12.500000" font-weight="bold" x="310" y="586">点火烧嘴</text>
<text font-family="宋体" text-anchor="start" fill="#FFFFFF" shape-type="text" id="" font-size="12.500000" font-weight="bold">
<tspan x="9" y="378">热油循环泵</tspan>
<tspan x="9" y="392">P42302A/B/C</tspan>
</text>
<text font-family="宋体" text-anchor="start" fill="#FFFFFF" shape-type="text" id="" font-size="12.500000" font-weight="bold">
<tspan x="114" y="508">U42301</tspan>
<tspan x="114" y="522">吹扫风机</tspan>
</text>
<text font-family="宋体" text-anchor="start" fill="#FFFFFF" shape-type="text" id="" font-size="12.500000" font-weight="bold" x="970" y="667">燃料气</text>
<text font-family="宋体" text-anchor="start" fill="#FFFFFF" shape-type="text" id="" font-size="12.500000" font-weight="bold" x="961" y="360">V42302</text>
<text font-family="宋体" text-anchor="start" fill="#FFFFFF" shape-type="text" id="" font-size="12.500000" font-weight="bold" x="952" y="208">P42303A/B/C</text>
<text font-family="宋体" text-anchor="start" fill="#FFFFFF" shape-type="text" id="" font-size="12.500000" font-weight="bold">
<tspan x="992" y="113">DISTR</tspan>
<tspan x="992" y="127">HEADER</tspan>
</text>
<text font-family="宋体" text-anchor="start" fill="#FFFFFF" shape-type="text" id="" font-size="8.000000" font-weight="bold" x="437" y="317">盘管A</text>
<text font-family="宋体" text-anchor="start" fill="#FFFFFF" shape-type="text" id="" font-size="8.000000" font-weight="bold" x="443" y="375">盘管B</text>
<text font-family="宋体" text-anchor="start" fill="#FFFFFF" shape-type="text" id="" font-size="8.000000" font-weight="bold" x="439" y="409">42303A</text>
<text font-family="宋体" text-anchor="start" fill="#FFFFFF" shape-type="text" id="" font-size="8.000000" font-weight="bold" x="423" y="283">导热油加热炉</text>
<g shape-type="group">
<g shape-type="group">
<polygon shape-type="polygon" points="83,357 91,358 91,348 101,357 91,364 92,358" fill="#808080" stroke="#000000" stroke-width="2.00"/>
</g>
<line shape-type="limitline" x1="94" y1="355" x2="83" y2="356" fill="#808080" stroke="#808080" stroke-width="7.00"/>
</g>
<g shape-type="group">
<g shape-type="group">
<g shape-type="group">
<polygon shape-type="trapezium" points="474,658 474,666 482,662 482,662 474,658" fill="#C0C0C0" stroke="#C0C0C0" stroke-width="1.00"/>
<polygon shape-type="trapezium" points="491,658 491,666 481,662 481,662 491,658" fill="#C0C0C0" stroke="#C0C0C0" stroke-width="1.00"/>
</g>
<line shape-type="limitline" x1="481" y1="650" x2="480" y2="658" fill="#C0C0C0" stroke="#C0C0C0" stroke-width="1.00"/>
<polygon shape-type="trapezium" points="484,654 479,654 482,662 482,662 484,654" fill="#C0C0C0" stroke="#C0C0C0" stroke-width="1.00"/>
<rect shape-type="rectangle" x="474" y="645" width="17" height="9" fill="#C0C0C0" stroke="#C0C0C0" stroke-width="2.00"/>
</g>
<path shape-type="chord" d="M 495,654 A 14,28 0 0,0 471,654 z" fill="#C0C0C0" stroke="#C0C0C0" stroke-width="1.00"/>
</g>
<g shape-type="group">
<g shape-type="group">
<g shape-type="group">
<polygon shape-type="trapezium" points="891,200 891,209 899,205 899,205 891,200" fill="#C0C0C0" stroke="#C0C0C0" stroke-width="1.00"/>
<polygon shape-type="trapezium" points="907,200 907,209 898,205 898,205 907,200" fill="#C0C0C0" stroke="#C0C0C0" stroke-width="1.00"/>
</g>
<line shape-type="limitline" x1="898" y1="194" x2="897" y2="201" fill="#C0C0C0" stroke="#C0C0C0" stroke-width="1.00"/>
<polygon shape-type="trapezium" points="901,197 896,197 899,205 899,205 901,197" fill="#C0C0C0" stroke="#C0C0C0" stroke-width="1.00"/>
<rect shape-type="rectangle" x="891" y="190" width="16" height="7" fill="#C0C0C0" stroke="#C0C0C0" stroke-width="2.00"/>
</g>
<path shape-type="chord" d="M 912,197 A 14,29 0 0,0 888,197 z" fill="#C0C0C0" stroke="#C0C0C0" stroke-width="1.00"/>
</g>
<line shape-type="limitline" x1="843" y1="160" x2="843" y2="118" fill="#00FFFF" stroke="#FFFFFF" stroke-width="2.00" stroke-dasharray="5 10"/>
<line shape-type="limitline" x1="881" y1="160" x2="845" y2="160" fill="#00FFFF" stroke="#FFFFFF" stroke-width="2.00" stroke-dasharray="5 10"/>
<line shape-type="limitline" x1="773" y1="314" x2="754" y2="314" fill="#00FFFF" stroke="#FFFFFF" stroke-width="2.00" stroke-dasharray="5 10"/>
<line shape-type="limitline" x1="771" y1="314" x2="771" y2="463" fill="#00FFFF" stroke="#FFFFFF" stroke-width="2.00" stroke-dasharray="5 10"/>
<line shape-type="limitline" x1="772" y1="617" x2="772" y2="486" fill="#00FFFF" stroke="#FFFFFF" stroke-width="2.00" stroke-dasharray="5 10"/>
<line shape-type="limitline" x1="698" y1="616" x2="772" y2="616" fill="#00FFFF" stroke="#FFFFFF" stroke-width="2.00" stroke-dasharray="5 10"/>
<line shape-type="limitline" x1="186" y1="326" x2="186" y2="306" fill="#00FFFF" stroke="#FFFFFF" stroke-width="2.00" stroke-dasharray="5 10"/>
<line shape-type="limitline" x1="187" y1="385" x2="187" y2="370" fill="#00FFFF" stroke="#FFFFFF" stroke-width="2.00" stroke-dasharray="5 10"/>
<line shape-type="limitline" x1="362" y1="199" x2="348" y2="199" fill="#00FFFF" stroke="#FFFFFF" stroke-width="2.00" stroke-dasharray="5 10"/>
<line shape-type="limitline" x1="553" y1="221" x2="541" y2="221" fill="#00FFFF" stroke="#FFFFFF" stroke-width="2.00" stroke-dasharray="5 10"/>
<line shape-type="limitline" x1="588" y1="270" x2="560" y2="270" fill="#00FFFF" stroke="#FFFFFF" stroke-width="2.00" stroke-dasharray="5 10"/>
<line shape-type="limitline" x1="614" y1="616" x2="596" y2="616" fill="#00FFFF" stroke="#FFFFFF" stroke-width="2.00" stroke-dasharray="5 10"/>
<line shape-type="limitline" x1="668" y1="328" x2="668" y2="314" fill="#00FFFF" stroke="#FFFFFF" stroke-width="2.00" stroke-dasharray="5 10"/>
<line shape-type="limitline" x1="671" y1="384" x2="671" y2="374" fill="#00FFFF" stroke="#FFFFFF" stroke-width="2.00" stroke-dasharray="5 10"/>
<text font-family="宋体" text-anchor="start" fill="#FFFFFF" shape-type="text" id="" font-size="12.500000" font-weight="bold" x="191" y="517">ATM</text>
<g shape-type="group">
<path shape-type="chord" d="M 583,618 A 10,8 0 1,0 583,611 z" fill="#C0C0C0" stroke="#C0C0C0" stroke-width="2.00"/>
<g shape-type="group">
<polygon shape-type="polygon" points="572,607 578,607 576,614" fill="#C0C0C0" stroke="#C0C0C0" stroke-width="2.00"/>
<polygon shape-type="polygon" points="575,614 572,621 579,621" fill="#C0C0C0" stroke="#C0C0C0" stroke-width="2.00"/>
</g>
<polygon shape-type="polygon" points="576,615 588,613 577,611" fill="#C0C0C0" stroke="#C0C0C0" stroke-width="2.00"/>
</g>
<g shape-type="group">
<path shape-type="chord" d="M 362,477 A 6,9 0 1,0 362,490 z" fill="#C0C0C0" stroke="#C0C0C0" stroke-width="2.00"/>
<polygon shape-type="polygon" points="361,485 372,483 362,479" fill="#C0C0C0" stroke="#C0C0C0" stroke-width="2.00"/>
<g shape-type="group">
<polygon shape-type="polygon" points="366,473 376,473 371,485" fill="#C0C0C0" stroke="#C0C0C0" stroke-width="2.00"/>
<polygon shape-type="polygon" points="371,483 366,493 376,493" fill="#C0C0C0" stroke="#C0C0C0" stroke-width="2.00"/>
</g>
</g>
<g shape-type="group">
<path shape-type="chord" d="M 434,476 A 6,9 0 1,0 434,489 z" fill="#C0C0C0" stroke="#C0C0C0" stroke-width="2.00"/>
<polygon shape-type="polygon" points="432,484 444,481 433,477" fill="#C0C0C0" stroke="#C0C0C0" stroke-width="2.00"/>
<g shape-type="group">
<polygon shape-type="polygon" points="437,472 448,472 442,484" fill="#C0C0C0" stroke="#C0C0C0" stroke-width="2.00"/>
<polygon shape-type="polygon" points="442,482 437,492 448,492" fill="#C0C0C0" stroke="#C0C0C0" stroke-width="2.00"/>
</g>
</g>
<g shape-type="group">
<path shape-type="chord" d="M 501,477 A 5,9 0 1,0 501,490 z" fill="#C0C0C0" stroke="#C0C0C0" stroke-width="2.00"/>
<polygon shape-type="polygon" points="499,485 510,482 500,478" fill="#C0C0C0" stroke="#C0C0C0" stroke-width="2.00"/>
<g shape-type="group">
<polygon shape-type="polygon" points="504,473 515,473 509,485" fill="#C0C0C0" stroke="#C0C0C0" stroke-width="2.00"/>
<polygon shape-type="polygon" points="509,483 504,493 515,493" fill="#C0C0C0" stroke="#C0C0C0" stroke-width="2.00"/>
</g>
</g>
<g shape-type="group">
<path shape-type="chord" d="M 569,476 A 5,9 0 1,0 569,489 z" fill="#C0C0C0" stroke="#C0C0C0" stroke-width="2.00"/>
<polygon shape-type="polygon" points="567,484 578,481 567,477" fill="#C0C0C0" stroke="#C0C0C0" stroke-width="2.00"/>
<g shape-type="group">
<polygon shape-type="polygon" points="572,472 582,472 576,484" fill="#C0C0C0" stroke="#C0C0C0" stroke-width="2.00"/>
<polygon shape-type="polygon" points="576,482 572,492 582,492" fill="#C0C0C0" stroke="#C0C0C0" stroke-width="2.00"/>
</g>
</g>
<g shape-type="group">
<path shape-type="chord" d="M 296,596 A 6,9 0 1,0 296,609 z" fill="#C0C0C0" stroke="#C0C0C0" stroke-width="2.00"/>
<polygon shape-type="polygon" points="294,605 305,602 295,597" fill="#C0C0C0" stroke="#C0C0C0" stroke-width="2.00"/>
<g shape-type="group">
<polygon shape-type="polygon" points="300,592 310,592 305,605" fill="#C0C0C0" stroke="#C0C0C0" stroke-width="2.00"/>
<polygon shape-type="polygon" points="305,602 300,614 310,614" fill="#C0C0C0" stroke="#C0C0C0" stroke-width="2.00"/>
</g>
</g>
<g shape-type="group">
<path shape-type="chord" d="M 190,602 A 6,9 0 1,0 190,615 z" fill="#C0C0C0" stroke="#C0C0C0" stroke-width="2.00"/>
<polygon shape-type="polygon" points="189,610 200,608 190,604" fill="#C0C0C0" stroke="#C0C0C0" stroke-width="2.00"/>
<g shape-type="group">
<polygon shape-type="polygon" points="195,598 205,598 200,610" fill="#C0C0C0" stroke="#C0C0C0" stroke-width="2.00"/>
<polygon shape-type="polygon" points="200,608 195,618 205,618" fill="#C0C0C0" stroke="#C0C0C0" stroke-width="2.00"/>
</g>
</g>
<g shape-type="group">
<path shape-type="chord" d="M 685,479 A 6,8 0 1,0 685,490 z" fill="#C0C0C0" stroke="#C0C0C0" stroke-width="2.00"/>
<polygon shape-type="polygon" points="684,486 696,484 685,481" fill="#C0C0C0" stroke="#C0C0C0" stroke-width="2.00"/>
<g shape-type="group">
<polygon shape-type="polygon" points="690,476 701,476 695,486" fill="#C0C0C0" stroke="#C0C0C0" stroke-width="2.00"/>
<polygon shape-type="polygon" points="695,485 690,493 701,493" fill="#C0C0C0" stroke="#C0C0C0" stroke-width="2.00"/>
</g>
</g>
<line shape-type="limitline" x1="72" y1="474" x2="72" y2="441" marker-end="url(#Arrow1)" fill="#FF80FF" stroke="#FFFFFF" stroke-width="3.00"/>
<line shape-type="limitline" x1="133" y1="476" x2="71" y2="476" fill="#FF80FF" stroke="#FFFFFF" stroke-width="3.00"/>
<line shape-type="limitline" x1="291" y1="466" x2="152" y2="466" fill="#FF80FF" stroke="#FFFFFF" stroke-width="3.00"/>
<line shape-type="limitline" x1="291" y1="429" x2="291" y2="466" marker-end="url(#Arrow1)" fill="#FF80FF" stroke="#FFFFFF" stroke-width="3.00"/>
<g shape-type="group">
<rect shape-type="rectangle" x="135" y="465" width="13" height="6" fill="url(#lgradient70_0)" stroke="#C0C0C0" stroke-width="1.00" stroke-dasharray="5 10"/>
<path shape-type="pie" d="M 144,491 A 11,8 0 1,0 127,491 L 135,486 z" fill="#C0C0C0" stroke="#C0C0C0" stroke-width="2.00"/>
<ellipse shape-type="ellipse" cx="135" cy="474" rx="11" ry="10" fill="url(#rgradient70_2)" stroke-width="1.00"/>
</g>
<g shape-type="group">
<path shape-type="chord" d="M 583,562 A 10,8 0 1,0 583,556 z" fill="#C0C0C0" stroke="#C0C0C0" stroke-width="2.00"/>
<g shape-type="group">
<polygon shape-type="polygon" points="572,550 578,550 576,559" fill="#C0C0C0" stroke="#C0C0C0" stroke-width="2.00"/>
<polygon shape-type="polygon" points="575,558 572,566 579,566" fill="#C0C0C0" stroke="#C0C0C0" stroke-width="2.00"/>
</g>
<polygon shape-type="polygon" points="576,560 588,558 577,556" fill="#C0C0C0" stroke="#C0C0C0" stroke-width="2.00"/>
</g>
<rect shape-type="rectangle" x="5" y="6" width="67" height="30" stroke="#000000" stroke-width="1.00"/>
<text font-family="宋体" text-anchor="start" fill="#FFFFFF" shape-type="text" id="" font-size="11.750000" font-weight="bold" x="16" y="27">M4201</text>
<text font-family="宋体" text-anchor="start" fill="#FFFFFF" shape-type="text" id="" font-size="12.500000" font-weight="bold" x="684" y="431">ATM</text>
<line shape-type="line" x1="692" y1="514" x2="693" y2="435" marker-end="url(#Arrow1)" fill="#00FFFF" stroke="#00FF00" stroke-width="3.00"/>
<line shape-type="line" x1="696" y1="516" x2="578" y2="515" fill="#00FFFF" stroke="#00FF00" stroke-width="3.00"/>
<polygon shape-type="trapezium" points="110,353 110,361 119,357 119,357 110,353" fill="#8080FF" stroke="#8080FF" stroke-width="1.00"/>
<polygon shape-type="trapezium" points="110,353 110,361 119,357 119,357 110,353" fill="#8080FF" stroke="#8080FF" stroke-width="1.00"/>
<polygon shape-type="trapezium" points="702,381 702,389 711,385 711,385 702,381" fill="#8080FF" stroke="#8080FF" stroke-width="1.00"/>
<polygon shape-type="trapezium" points="695,322 695,330 704,326 704,326 695,322" fill="#8080FF" stroke="#8080FF" stroke-width="1.00"/>
<polygon shape-type="trapezium" points="945,351 945,359 954,355 954,355 945,351" fill="#8080FF" stroke="#8080FF" stroke-width="1.00"/>
<polygon shape-type="trapezium" points="951,111 951,119 960,115 960,115 951,111" fill="#8080FF" stroke="#8080FF" stroke-width="1.00"/>
<text font-family="宋体" text-anchor="start" fill="#FFFFFF" shape-type="text" id="" font-size="8.000000" font-weight="bold" x="425" y="180">F42301</text>
<rect shape-type="rectangle" x="252" y="192" width="63" height="20" fill="#4A494A" stroke="#C0C0C0" stroke-width="3.00"/>
<rect shape-type="rectangle" x="312" y="192" width="36" height="20" fill="#4A494A" stroke="#C0C0C0" stroke-width="3.00"/>
<text font-family="宋体" text-anchor="start" fill="#00FF42" shape-type="text" id="" font-size="9.500000" font-weight="bold" x="317" y="205">DEGC</text>
<text font-family="Arial" text-anchor="start" fill="#00FFFF" shape-type="realdata" id="XHB_RT_TE42008" font-size="12.500000" x="257" y="206">XXXX</text>
<rect shape-type="rectangle" x="571" y="213" width="63" height="20" fill="#4A494A" stroke="#C0C0C0" stroke-width="3.00"/>
<rect shape-type="rectangle" x="631" y="213" width="36" height="20" fill="#4A494A" stroke="#C0C0C0" stroke-width="3.00"/>
<text font-family="宋体" text-anchor="start" fill="#00FF42" shape-type="text" id="" font-size="9.500000" font-weight="bold" x="636" y="226">DEGC</text>
<text font-family="Arial" text-anchor="start" fill="#00FFFF" shape-type="realdata" id="XHB_RT_TE42007" font-size="12.500000" x="576" y="227">XXXX</text>
<rect shape-type="rectangle" x="599" y="257" width="63" height="20" fill="#4A494A" stroke="#C0C0C0" stroke-width="3.00"/>
<rect shape-type="rectangle" x="659" y="257" width="36" height="20" fill="#4A494A" stroke="#C0C0C0" stroke-width="3.00"/>
<text font-family="宋体" text-anchor="start" fill="#00FF42" shape-type="text" id="" font-size="9.500000" font-weight="bold" x="664" y="270">DEGC</text>
<text font-family="Arial" text-anchor="start" fill="#00FFFF" shape-type="realdata" id="XHB_RT_TE42006" font-size="12.500000" x="604" y="271">XXXX</text>
<rect shape-type="rectangle" x="637" y="294" width="63" height="20" fill="#4A494A" stroke="#C0C0C0" stroke-width="3.00"/>
<rect shape-type="rectangle" x="697" y="294" width="36" height="20" fill="#4A494A" stroke="#C0C0C0" stroke-width="3.00"/>
<text font-family="宋体" text-anchor="start" fill="#00FF42" shape-type="text" id="" font-size="9.500000" font-weight="bold" x="702" y="307">DEGC</text>
<text font-family="Arial" text-anchor="start" fill="#00FFFF" shape-type="realdata" id="XHB_RT_TT42005A" font-size="12.500000" x="641" y="308">XXXX</text>
<rect shape-type="rectangle" x="725" y="465" width="63" height="20" fill="#4A494A" stroke="#C0C0C0" stroke-width="3.00"/>
<rect shape-type="rectangle" x="785" y="465" width="36" height="20" fill="#4A494A" stroke="#C0C0C0" stroke-width="3.00"/>
<text font-family="宋体" text-anchor="start" fill="#00FF42" shape-type="text" id="" font-size="9.500000" font-weight="bold" x="790" y="478">DEGC</text>
<text font-family="Arial" text-anchor="start" fill="#00FFFF" shape-type="realdata" id="XHB_RT_TC42004" font-size="12.500000" x="728" y="479">XXXX</text>
<rect shape-type="rectangle" x="926" y="432" width="63" height="20" fill="#4A494A" stroke="#C0C0C0" stroke-width="3.00"/>
<rect shape-type="rectangle" x="986" y="432" width="36" height="20" fill="#4A494A" stroke="#C0C0C0" stroke-width="3.00"/>
<text font-family="宋体" text-anchor="start" fill="#00FF42" shape-type="text" id="" font-size="9.500000" font-weight="bold" x="991" y="445">m3/h</text>
<text font-family="Arial" text-anchor="start" fill="#00FFFF" shape-type="realdata" id="XHB_RT_FT42003" font-size="12.500000" x="930" y="446">XXXX</text>
<rect shape-type="rectangle" x="926" y="453" width="63" height="20" fill="#4A494A" stroke="#C0C0C0" stroke-width="3.00"/>
<rect shape-type="rectangle" x="986" y="453" width="36" height="20" fill="#4A494A" stroke="#C0C0C0" stroke-width="3.00"/>
<text font-family="宋体" text-anchor="start" fill="#00FF42" shape-type="text" id="" font-size="9.500000" font-weight="bold" x="991" y="466">m3/h</text>
<text font-family="Arial" text-anchor="start" fill="#00FFFF" shape-type="realdata" id="XHB_RT_FT42004" font-size="12.500000" x="930" y="467">XXXX</text>
<rect shape-type="rectangle" x="926" y="474" width="63" height="20" fill="#4A494A" stroke="#C0C0C0" stroke-width="3.00"/>
<rect shape-type="rectangle" x="986" y="474" width="36" height="20" fill="#4A494A" stroke="#C0C0C0" stroke-width="3.00"/>
<text font-family="宋体" text-anchor="start" fill="#00FF42" shape-type="text" id="" font-size="9.500000" font-weight="bold" x="991" y="487">m3/h</text>
<text font-family="Arial" text-anchor="start" fill="#00FFFF" shape-type="realdata" id="XHB_RT_FT42005" font-size="12.500000" x="930" y="488">XXXX</text>
<rect shape-type="rectangle" x="36" y="323" width="63" height="20" fill="#4A494A" stroke="#C0C0C0" stroke-width="3.00"/>
<rect shape-type="rectangle" x="96" y="323" width="36" height="20" fill="#4A494A" stroke="#C0C0C0" stroke-width="3.00"/>
<text font-family="宋体" text-anchor="start" fill="#00FF42" shape-type="text" id="" font-size="9.500000" font-weight="bold" x="101" y="336">m3/h</text>
<text font-family="Arial" text-anchor="start" fill="#00FFFF" shape-type="realdata" id="XHB_RT_FY42001" font-size="12.500000" x="41" y="337">XXXX</text>
<rect shape-type="rectangle" x="148" y="287" width="63" height="20" fill="#4A494A" stroke="#C0C0C0" stroke-width="3.00"/>
<rect shape-type="rectangle" x="208" y="287" width="36" height="20" fill="#4A494A" stroke="#C0C0C0" stroke-width="3.00"/>
<text font-family="宋体" text-anchor="start" fill="#00FF42" shape-type="text" id="" font-size="9.500000" font-weight="bold" x="213" y="300">m3/h</text>
<text font-family="Arial" text-anchor="start" fill="#00FFFF" shape-type="realdata" id="XHB_RT_FT42001A" font-size="12.500000" x="153" y="301">XXXX</text>
<rect shape-type="rectangle" x="157" y="348" width="63" height="20" fill="#4A494A" stroke="#C0C0C0" stroke-width="3.00"/>
<rect shape-type="rectangle" x="217" y="348" width="36" height="20" fill="#4A494A" stroke="#C0C0C0" stroke-width="3.00"/>
<text font-family="宋体" text-anchor="start" fill="#00FF42" shape-type="text" id="" font-size="9.500000" font-weight="bold" x="222" y="361">m3/h</text>
<text font-family="Arial" text-anchor="start" fill="#00FFFF" shape-type="realdata" id="XHB_RT_FT42001B" font-size="12.500000" x="162" y="362">XXXX</text>
<rect shape-type="rectangle" x="889" y="149" width="63" height="20" fill="#4A494A" stroke="#C0C0C0" stroke-width="3.00"/>
<rect shape-type="rectangle" x="949" y="149" width="36" height="20" fill="#4A494A" stroke="#C0C0C0" stroke-width="3.00"/>
<text font-family="宋体" text-anchor="start" fill="#00FF42" shape-type="text" id="" font-size="9.500000" font-weight="bold" x="954" y="162">m3/h</text>
<text font-family="Arial" text-anchor="start" fill="#00FFFF" shape-type="realdata" id="XHB_RT_FC42001" font-size="12.500000" x="892" y="163">XXXX</text>
<rect shape-type="rectangle" x="616" y="604" width="63" height="20" fill="#4A494A" stroke="#C0C0C0" stroke-width="3.00"/>
<rect shape-type="rectangle" x="676" y="604" width="50" height="20" fill="#4A494A" stroke="#C0C0C0" stroke-width="3.00"/>
<text font-family="宋体" text-anchor="start" fill="#00FF42" shape-type="text" id="" font-size="9.500000" font-weight="bold" x="681" y="617">MPa(g)</text>
<text font-family="Arial" text-anchor="start" fill="#00FFFF" shape-type="realdata" id="XHB_RT_PC42007" font-size="12.500000" x="619" y="618">XXXX</text>
<rect shape-type="rectangle" x="833" y="614" width="63" height="20" fill="#4A494A" stroke="#C0C0C0" stroke-width="3.00"/>
<rect shape-type="rectangle" x="893" y="614" width="36" height="20" fill="#4A494A" stroke="#C0C0C0" stroke-width="3.00"/>
<text font-family="宋体" text-anchor="start" fill="#00FF42" shape-type="text" id="" font-size="9.500000" font-weight="bold" x="893" y="627">Nm3/h</text>
<text font-family="Arial" text-anchor="start" fill="#00FFFF" shape-type="realdata" id="XHB_RT_FT42301" font-size="12.500000" x="837" y="628">XXXX</text>
<line shape-type="limitline" x1="881" y1="657" x2="881" y2="633" fill="#00FFFF" stroke="#FFFFFF" stroke-width="2.00" stroke-dasharray="5 10"/>
<rect shape-type="rectangle" x="56" y="419" width="33" height="26" fill="url(#BRH_DIAGCROSS141)" stroke="#FFFFFF" stroke-width="1.00"/>
<polygon shape-type="trapezium" points="941,199 941,207 950,203 950,203 941,199" fill="#8080FF" stroke="#8080FF" stroke-width="1.00"/>
<line shape-type="line" x1="951" y1="115" x2="751" y2="116" fill="#00FFFF" stroke="#0080C0" stroke-width="3.00"/>
<rect shape-type="rectangle" x="293" y="3" width="500" height="34" stroke="#000000" stroke-width="1.00"/>
<text font-family="宋体" text-anchor="start" fill="#FFFFFF" shape-type="text" id="" font-size="26.750000" font-weight="bold" x="464" y="29">导热油炉</text>
<rect shape-type="rectangle" x="638" y="347" width="63" height="20" fill="#4A494A" stroke="#C0C0C0" stroke-width="3.00"/>
<rect shape-type="rectangle" x="698" y="347" width="36" height="20" fill="#4A494A" stroke="#C0C0C0" stroke-width="3.00"/>
<text font-family="宋体" text-anchor="start" fill="#00FF42" shape-type="text" id="" font-size="9.500000" font-weight="bold" x="703" y="360">DEGC</text>
<text font-family="Arial" text-anchor="start" fill="#00FFFF" shape-type="realdata" id="XHB_RT_TT42005B" font-size="12.500000" x="643" y="361">XXXX</text>
<a xlink:href="\橡胶化学品部\RT\RT2\RT2_ML.svg">
<g shape-type="button">
<rect fill="#C0C0C0" stroke-width="0.3" stroke="#FFFFFF" x="967" y="0" width="100" height="36" shape-type="buttonrect"/>
<text font-family="宋体" text-anchor="middle" dominant-baseline="middle" fill="#800000" font-size="13.500000" font-weight="bold" x="1017" y="24" shape-type="buttontext">返回上一级</text>
</g>
</a>
<rect shape-type="rectangle" x="0" y="760" width="1063" height="40" fill="url(#lgradient151)" stroke="#636563" stroke-width="1.00"/>
<a xlink:href="M4200.svg">
<g shape-type="button">
<rect fill="#C0C0C0" stroke-width="0.3" stroke="#FFFFFF" x="82" y="765" width="100" height="31" shape-type="buttonrect"/>
<text font-family="宋体" text-anchor="middle" dominant-baseline="middle" fill="#000000" font-size="13.500000" font-weight="bold" x="132" y="786" shape-type="buttontext">导热油系统</text>
</g>
</a>
<a xlink:href="M4201.svg">
<g shape-type="button">
<rect fill="#C0C0C0" stroke-width="0.3" stroke="#FFFFFF" x="242" y="765" width="100" height="31" shape-type="buttonrect"/>
<text font-family="宋体" text-anchor="middle" dominant-baseline="middle" fill="#000000" font-size="13.500000" font-weight="bold" x="292" y="786" shape-type="buttontext">导热油炉</text>
</g>
</a>
<a xlink:href="M31127.svg">
<g shape-type="button">
<rect fill="#C0C0C0" stroke-width="0.3" stroke="#FFFFFF" x="401" y="765" width="100" height="31" shape-type="buttonrect"/>
<text font-family="宋体" text-anchor="middle" dominant-baseline="middle" fill="#000000" font-size="13.500000" font-weight="bold" x="451" y="786" shape-type="buttontext">软水系统</text>
</g>
</a>
<a xlink:href="M31128.svg">
<g shape-type="button">
<rect fill="#C0C0C0" stroke-width="0.3" stroke="#FFFFFF" x="561" y="764" width="100" height="31" shape-type="buttonrect"/>
<text font-family="宋体" text-anchor="middle" dominant-baseline="middle" fill="#000000" font-size="13.500000" font-weight="bold" x="611" y="785" shape-type="buttontext">原料罐泵区</text>
</g>
</a>
<a xlink:href="M31122.svg">
<g shape-type="button">
<rect fill="#C0C0C0" stroke-width="0.3" stroke="#FFFFFF" x="720" y="764" width="100" height="31" shape-type="buttonrect"/>
<text font-family="宋体" text-anchor="middle" dominant-baseline="middle" fill="#000000" font-size="13.500000" font-weight="bold" x="770" y="785" shape-type="buttontext">灌区参数</text>
</g>
</a>
<a xlink:href="M31123.svg">
<g shape-type="button">
<rect fill="#C0C0C0" stroke-width="0.3" stroke="#FFFFFF" x="879" y="765" width="100" height="30" shape-type="buttonrect"/>
<text font-family="宋体" text-anchor="middle" dominant-baseline="middle" fill="#000000" font-size="13.500000" font-weight="bold" x="929" y="786" shape-type="buttontext">RT累计量</text>
</g>
</a>
</svg>
