<?xml version="1.0"?>
<?xml-stylesheet type='text/javascript'?>
<!--Draw SVG: 2019-11-25 09:41:25 47-Monday-->
<svg xmlns="http://www.w3.org/2000/svg" xmlns:xlink="http://www.w3.org/1999/xlink" version="1.1" style="background-color:#000000" width="1066" height="800" viewbox="0 0 1066 800">
<defs>
<linearGradient x1="0.000000%" y1="50.000000%" x2="100.000000%" y2="50.000000%" id="lgradient24_0">
<stop offset="0" stop-color="#2C2C2C" stop-opacity="1"/>
<stop offset="0.5" stop-color="#FFFFFF" stop-opacity="1"/>
<stop offset="1" stop-color="#2C2C2C" stop-opacity="1"/>
</linearGradient>
<linearGradient x1="0.000000%" y1="50.000000%" x2="100.000000%" y2="50.000000%" id="lgradient25_0">
<stop offset="0" stop-color="#2C2C2C" stop-opacity="1"/>
<stop offset="0.5" stop-color="#FFFFFF" stop-opacity="1"/>
<stop offset="1" stop-color="#2C2C2C" stop-opacity="1"/>
</linearGradient>
<linearGradient x1="0.000000%" y1="50.000000%" x2="100.000000%" y2="50.000000%" id="lgradient26_0">
<stop offset="0" stop-color="#2C2C2C" stop-opacity="1"/>
<stop offset="0.5" stop-color="#FFFFFF" stop-opacity="1"/>
<stop offset="1" stop-color="#2C2C2C" stop-opacity="1"/>
</linearGradient>
<linearGradient x1="0.000000%" y1="50.000000%" x2="100.000000%" y2="50.000000%" id="lgradient27_0">
<stop offset="0" stop-color="#2C2C2C" stop-opacity="1"/>
<stop offset="0.5" stop-color="#FFFFFF" stop-opacity="1"/>
<stop offset="1" stop-color="#2C2C2C" stop-opacity="1"/>
</linearGradient>
</defs>
<rect shape-type="rectangle" x="3" y="3" width="1055" height="46" fill="#9C9A9C" stroke="#C0C0C0" stroke-width="1.00"/>
<rect shape-type="rectangle" x="10" y="10" width="74" height="29" fill="#E7E3E7" stroke="#E7E3E7" stroke-width="1.00"/>
<rect shape-type="rectangle" x="348" y="9" width="473" height="33" fill="#E7E3E7" stroke="#E7E3E7" stroke-width="1.00"/>
<text font-family="宋体" text-anchor="start" fill="#000000" shape-type="text" id="" font-size="11.750000" font-weight="bold" x="29" y="29">M906</text>
<text font-family="宋体" text-anchor="start" fill="#000000" shape-type="text" id="" font-size="26.750000" font-weight="bold" x="408" y="35">HIGH PRESSURE STEAM</text>
<line shape-type="limitline" x1="687" y1="382" x2="687" y2="150" fill="#00FFFF" stroke="#FFFF00" stroke-width="3.00"/>
<line shape-type="limitline" x1="889" y1="383" x2="889" y2="155" fill="#00FFFF" stroke="#FFFF00" stroke-width="3.00"/>
<line shape-type="limitline" x1="740" y1="384" x2="740" y2="322" fill="#00FFFF" stroke="#FFFF00" stroke-width="3.00"/>
<line shape-type="limitline" x1="1010" y1="386" x2="93" y2="386" fill="#00FFFF" stroke="#FFFF00" stroke-width="3.00"/>
<line shape-type="limitline" x1="889" y1="510" x2="889" y2="400" fill="#00FFFF" stroke="#FFFF00" stroke-width="3.00"/>
<line shape-type="limitline" x1="812" y1="511" x2="812" y2="444" fill="#00FFFF" stroke="#FFFF00" stroke-width="3.00"/>
<line shape-type="limitline" x1="1011" y1="512" x2="97" y2="512" fill="#00FFFF" stroke="#FFFF00" stroke-width="3.00"/>
<g shape-type="group">
<line shape-type="limitline" x1="88" y1="390" x2="87" y2="381" fill="#00FFFF" stroke="#FFFF00" stroke-width="1.00"/>
<line shape-type="limitline" x1="93" y1="390" x2="92" y2="381" fill="#00FFFF" stroke="#FFFF00" stroke-width="1.00"/>
</g>
<g shape-type="group">
<line shape-type="limitline" x1="91" y1="517" x2="90" y2="507" fill="#00FFFF" stroke="#FFFF00" stroke-width="1.00"/>
<line shape-type="limitline" x1="97" y1="517" x2="96" y2="507" fill="#00FFFF" stroke="#FFFF00" stroke-width="1.00"/>
</g>
<g shape-type="group">
<line shape-type="limitline" x1="1014" y1="390" x2="1013" y2="381" fill="#00FFFF" stroke="#FFFF00" stroke-width="1.00"/>
<line shape-type="limitline" x1="1020" y1="390" x2="1019" y2="381" fill="#00FFFF" stroke="#FFFF00" stroke-width="1.00"/>
</g>
<g shape-type="group">
<line shape-type="limitline" x1="1013" y1="517" x2="1012" y2="507" fill="#00FFFF" stroke="#FFFF00" stroke-width="1.00"/>
<line shape-type="limitline" x1="1018" y1="517" x2="1017" y2="507" fill="#00FFFF" stroke="#FFFF00" stroke-width="1.00"/>
</g>
<line shape-type="limitline" x1="326" y1="384" x2="326" y2="278" fill="#00FFFF" stroke="#FFFFFF" stroke-width="3.00" stroke-dasharray="5 10"/>
<line shape-type="limitline" x1="535" y1="279" x2="325" y2="279" fill="#00FFFF" stroke="#FFFFFF" stroke-width="3.00" stroke-dasharray="5 10"/>
<line shape-type="limitline" x1="669" y1="289" x2="633" y2="289" fill="#00FFFF" stroke="#FFFFFF" stroke-width="3.00" stroke-dasharray="5 10"/>
<line shape-type="limitline" x1="931" y1="295" x2="913" y2="295" fill="#00FFFF" stroke="#FFFFFF" stroke-width="3.00" stroke-dasharray="5 10"/>
<line shape-type="limitline" x1="560" y1="252" x2="560" y2="95" fill="#00FFFF" stroke="#FFFFFF" stroke-width="3.00" stroke-dasharray="5 10"/>
<line shape-type="limitline" x1="995" y1="96" x2="559" y2="96" fill="#00FFFF" stroke="#FFFFFF" stroke-width="3.00" stroke-dasharray="5 10"/>
<line shape-type="limitline" x1="995" y1="253" x2="995" y2="96" fill="#00FFFF" stroke="#FFFFFF" stroke-width="3.00" stroke-dasharray="5 10"/>
<g shape-type="group">
<polygon shape-type="trapezium" points="703,144 672,144 681,114 695,114 703,144" fill="url(#lgradient24_0)" stroke="#808080" stroke-width="2.00"/>
<path shape-type="chord" d="M 673,145 A 21,14 0 0,0 706,145 z" fill="#808080" stroke="#808080" stroke-width="3.00" stroke-dasharray="5 10"/>
</g>
<g shape-type="group">
<polygon shape-type="trapezium" points="903,146 872,146 881,117 895,117 903,146" fill="url(#lgradient25_0)" stroke="#808080" stroke-width="2.00"/>
<path shape-type="chord" d="M 873,147 A 21,14 0 0,0 906,147 z" fill="#808080" stroke="#808080" stroke-width="3.00" stroke-dasharray="5 10"/>
</g>
<g shape-type="group">
<polygon shape-type="trapezium" points="753,318 727,318 734,294 746,294 753,318" fill="url(#lgradient26_0)" stroke="#808080" stroke-width="2.00"/>
<path shape-type="chord" d="M 728,319 A 17,11 0 0,0 756,319 z" fill="#808080" stroke="#808080" stroke-width="3.00" stroke-dasharray="5 10"/>
</g>
<g shape-type="group">
<polygon shape-type="trapezium" points="825,442 799,442 806,418 818,418 825,442" fill="url(#lgradient27_0)" stroke="#808080" stroke-width="2.00"/>
<path shape-type="chord" d="M 800,443 A 17,11 0 0,0 828,443 z" fill="#808080" stroke="#808080" stroke-width="3.00" stroke-dasharray="5 10"/>
</g>
<g shape-type="group">
<path shape-type="chord" d="M 900,307 A 21,14 0 1,0 900,283 z" fill="#C0C0C0" stroke="#C0C0C0" stroke-width="2.00"/>
<g shape-type="group">
<polygon shape-type="trapezium" points="883,282 894,282 888,294 888,294 883,282" fill="#C0C0C0" stroke="#C0C0C0" stroke-width="1.00"/>
<polygon shape-type="trapezium" points="883,306 894,306 888,294 888,294 883,306" fill="#C0C0C0" stroke="#C0C0C0" stroke-width="1.00"/>
</g>
<line shape-type="limitline" x1="900" y1="294" x2="892" y2="295" fill="#00FFFF" stroke="#C0C0C0" stroke-width="1.00"/>
<polygon shape-type="trapezium" points="897,289 897,299 888,294 888,294 897,289" fill="#C0C0C0" stroke="#C0C0C0" stroke-width="1.00"/>
</g>
<g shape-type="group">
<path shape-type="chord" d="M 676,277 A 21,14 0 1,0 676,301 z" fill="#C0C0C0" stroke="#C0C0C0" stroke-width="2.00"/>
<g shape-type="group">
<polygon shape-type="trapezium" points="692,276 681,276 687,287 687,287 692,276" fill="#C0C0C0" stroke="#C0C0C0" stroke-width="1.00"/>
<polygon shape-type="trapezium" points="692,300 681,300 687,287 687,287 692,300" fill="#C0C0C0" stroke="#C0C0C0" stroke-width="1.00"/>
</g>
<line shape-type="limitline" x1="675" y1="287" x2="683" y2="288" fill="#00FFFF" stroke="#C0C0C0" stroke-width="1.00"/>
<polygon shape-type="trapezium" points="678,283 678,293 688,288 688,288 678,283" fill="#C0C0C0" stroke="#C0C0C0" stroke-width="1.00"/>
</g>
<g shape-type="group">
<rect shape-type="rectangle" x="821" y="471" width="13" height="15" fill="#C0C0C0" stroke="#C0C0C0" stroke-width="1.00"/>
<text font-family="宋体" text-anchor="start" fill="#000000" shape-type="text" id="" font-size="6.500000" x="820" y="482">M</text>
<g shape-type="group">
<polygon shape-type="trapezium" points="806,467 820,467 813,478 813,478 806,467" fill="#C0C0C0" stroke="#C0C0C0" stroke-width="1.00"/>
<polygon shape-type="trapezium" points="806,488 820,488 813,477 813,477 806,488" fill="#C0C0C0" stroke="#C0C0C0" stroke-width="1.00"/>
</g>
<line shape-type="limitline" x1="823" y1="477" x2="811" y2="478" fill="#C0C0C0" stroke="#C0C0C0" stroke-width="1.00"/>
</g>
<g shape-type="group">
<rect shape-type="rectangle" x="718" y="347" width="13" height="15" fill="#C0C0C0" stroke="#C0C0C0" stroke-width="1.00"/>
<text font-family="宋体" text-anchor="start" fill="#000000" shape-type="text" id="" font-size="6.500000" x="717" y="358">M</text>
<g shape-type="group">
<polygon shape-type="trapezium" points="746,343 732,343 739,355 739,355 746,343" fill="#C0C0C0" stroke="#C0C0C0" stroke-width="1.00"/>
<polygon shape-type="trapezium" points="746,366 732,366 739,354 739,354 746,366" fill="#C0C0C0" stroke="#C0C0C0" stroke-width="1.00"/>
</g>
<line shape-type="limitline" x1="729" y1="353" x2="741" y2="354" fill="#C0C0C0" stroke="#C0C0C0" stroke-width="1.00"/>
</g>
<g shape-type="group">
<rect shape-type="rectangle" x="158" y="363" width="16" height="14" fill="#C0C0C0" stroke="#C0C0C0" stroke-width="1.00"/>
<text font-family="宋体" text-anchor="start" fill="#000000" shape-type="text" id="" font-size="12.500000" x="163" y="375">M</text>
<g shape-type="group">
<polygon shape-type="trapezium" points="154,378 154,392 167,385 167,385 154,378" fill="#C0C0C0" stroke="#C0C0C0" stroke-width="1.00"/>
<polygon shape-type="trapezium" points="177,378 177,392 166,385 166,385 177,378" fill="#C0C0C0" stroke="#C0C0C0" stroke-width="1.00"/>
</g>
<line shape-type="limitline" x1="166" y1="375" x2="165" y2="386" fill="#C0C0C0" stroke="#C0C0C0" stroke-width="1.00"/>
</g>
<g shape-type="group">
<rect shape-type="rectangle" x="157" y="488" width="16" height="14" fill="#C0C0C0" stroke="#C0C0C0" stroke-width="1.00"/>
<text font-family="宋体" text-anchor="start" fill="#000000" shape-type="text" id="" font-size="12.500000" x="161" y="500">M</text>
<g shape-type="group">
<polygon shape-type="trapezium" points="153,503 153,517 166,510 166,510 153,503" fill="#C0C0C0" stroke="#C0C0C0" stroke-width="1.00"/>
<polygon shape-type="trapezium" points="176,503 176,517 165,510 165,510 176,503" fill="#C0C0C0" stroke="#C0C0C0" stroke-width="1.00"/>
</g>
<line shape-type="limitline" x1="165" y1="500" x2="164" y2="511" fill="#C0C0C0" stroke="#C0C0C0" stroke-width="1.00"/>
</g>
<rect shape-type="rectangle" x="537" y="253" width="98" height="26" fill="#7B7D7B" stroke="#C0C0C0" stroke-width="3.00"/>
<rect shape-type="rectangle" x="537" y="279" width="56" height="25" fill="#4A494A" stroke="#C0C0C0" stroke-width="3.00"/>
<text font-family="宋体" text-anchor="start" fill="#FFFFFF" shape-type="text" id="" font-size="11.000000" font-weight="bold" x="556" y="271">PC29101A</text>
<rect shape-type="rectangle" x="592" y="279" width="43" height="25" fill="#4A494A" stroke="#C0C0C0" stroke-width="3.00"/>
<text font-family="宋体" text-anchor="start" fill="#00FF42" shape-type="text" id="" font-size="9.500000" font-weight="bold" x="602" y="294">MPa</text>
<rect shape-type="rectangle" x="928" y="256" width="98" height="26" fill="#7B7D7B" stroke="#C0C0C0" stroke-width="3.00"/>
<rect shape-type="rectangle" x="928" y="282" width="56" height="25" fill="#4A494A" stroke="#C0C0C0" stroke-width="3.00"/>
<text font-family="宋体" text-anchor="start" fill="#FFFFFF" shape-type="text" id="" font-size="11.000000" font-weight="bold" x="947" y="274">PC29101B</text>
<rect shape-type="rectangle" x="983" y="282" width="43" height="25" fill="#4A494A" stroke="#C0C0C0" stroke-width="3.00"/>
<text font-family="宋体" text-anchor="start" fill="#00FF42" shape-type="text" id="" font-size="9.500000" font-weight="bold" x="996" y="299">MPa</text>
<text font-family="宋体" text-anchor="start" fill="#FFFFFF" shape-type="text" id="" font-size="12.500000" x="2" y="392">高压蒸汽(A)</text>
<text font-family="宋体" text-anchor="start" fill="#FFFFFF" shape-type="text" id="" font-size="12.500000" x="3" y="519">高压蒸汽(b)</text>
<text font-family="宋体" text-anchor="start" fill="#FFFFFF" shape-type="text" id="" font-size="12.500000" x="141" y="407">HV29002A</text>
<text font-family="宋体" text-anchor="start" fill="#FFFFFF" shape-type="text" id="" font-size="12.500000" x="138" y="532">HV29002B</text>
<text font-family="宋体" text-anchor="start" fill="#FFFFFF" shape-type="text" id="" font-size="12.500000" x="755" y="336">HY29003A</text>
<text font-family="宋体" text-anchor="start" fill="#FFFFFF" shape-type="text" id="" font-size="12.500000" x="731" y="461">HY29003B</text>
<rect shape-type="rectangle" x="0" y="736" width="1069" height="63" fill="#BDBABD" stroke="#BDBABD" stroke-width="1.00"/>
<g shape-type="group">
<rect shape-type="rectangle" x="997" y="748" width="48" height="43" fill="#C6C3C6" stroke="#C6C3C6" stroke-width="1.00"/>
<polygon shape-type="trapezium" points="1014,779 1014,759 1032,769 1032,769 1014,779" fill="#4A494A" stroke="#C6C3C6" stroke-width="2.00"/>
</g>
<g shape-type="group">
<rect shape-type="rectangle" x="13" y="748" width="47" height="39" fill="#C6C3C6" stroke="#C6C3C6" stroke-width="1.00"/>
<polygon shape-type="trapezium" points="41,776 41,756 22,766 22,766 41,776" fill="#4A494A" stroke="#C6C3C6" stroke-width="2.00"/>
</g>
<a xlink:href="m901.svg">
<g shape-type="button">
<rect fill="#C0C0C0" stroke-width="0.3" stroke="#FFFFFF" x="78" y="745" width="283" height="42" shape-type="buttonrect"/>
<text font-family="宋体" text-anchor="middle" dominant-baseline="middle" fill="#000000" font-size="13.500000" x="220" y="772" shape-type="buttontext">CONDENSATE RECOVERY AND DEAREATOR</text>
</g>
</a>
<a xlink:href="M902.svg">
<g shape-type="button">
<rect fill="#C0C0C0" stroke-width="0.3" stroke="#FFFFFF" x="376" y="745" width="108" height="42" shape-type="buttonrect"/>
<text font-family="宋体" text-anchor="middle" dominant-baseline="middle" fill="#000000" font-size="13.500000" x="430" y="772" shape-type="buttontext">B.F.W.SYSTEM</text>
</g>
</a>
<a xlink:href="M903.svg">
<g shape-type="button">
<rect fill="#C0C0C0" stroke-width="0.3" stroke="#FFFFFF" x="502" y="745" width="194" height="42" shape-type="buttonrect"/>
<text font-family="宋体" text-anchor="middle" dominant-baseline="middle" fill="#000000" font-size="13.500000" x="599" y="772" shape-type="buttontext">STEAM LET DOWN STATION</text>
</g>
</a>
<a xlink:href="P902E.svg">
<g shape-type="button">
<rect fill="#C0C0C0" stroke-width="0.3" stroke="#FFFFFF" x="713" y="745" width="92" height="42" shape-type="buttonrect"/>
<text font-family="宋体" text-anchor="middle" dominant-baseline="middle" fill="#000000" font-size="13.500000" x="759" y="772" shape-type="buttontext">P902E</text>
</g>
</a>
<text font-family="Arial" text-anchor="start" fill="#00FFFF" shape-type="realdata" id="HCAB_HC_PC29101A" font-size="12.500000" x="544" y="296">XXXX</text>
<text font-family="Arial" text-anchor="start" fill="#00FFFF" shape-type="realdata" id="HCAB_HC_PC29101B" font-size="12.500000" x="933" y="298">XXXX</text>
<a xlink:href="900_ML.svg">
<g shape-type="button">
<rect fill="#C0C0C0" stroke-width="0.3" stroke="#FFFFFF" x="951" y="11" width="98" height="31" shape-type="buttonrect"/>
<text font-family="宋体" text-anchor="middle" dominant-baseline="middle" fill="#800000" font-size="13.500000" font-weight="bold" x="1000" y="33" shape-type="buttontext">返回上一级</text>
</g>
</a>
</svg>
