<?xml version="1.0" encoding="UTF-8"?>
<svg height="100%" width="100%" viewBox="0 0 64000 32000" version="1.1" xmlns="http://www.w3.org/2000/svg" xmlns:xlink="http://www.w3.org/1999/xlink" xmlns:PB="urn:osisoft-com-pb" xmlns:PBI="urn:osisoft-com-interface" xmlns:PBD="urn:osisoft-com-data" style="background-color:#C0C0C0">
  <title>Graphic65</title>
  <defs>
    <PBD:TagUses tag="\\RTDBB\430_PT_1207">
      <PBI:Symbol name="DATAPOINT136" PB:Type="7" />
    </PBD:TagUses>
    <PBD:TagUses tag="\\RTDBB\430_FT_2205">
      <PBI:Symbol name="DATAPOINT137" PB:Type="7" />
    </PBD:TagUses>
    <PBD:TagUses tag="\\RTDBB\430_FT_2204">
      <PBI:Symbol name="DATAPOINT139" PB:Type="7" />
    </PBD:TagUses>
    <PBD:TagUses tag="\\RTDBB\425_FT_2006">
      <PBI:Symbol name="DATAPOINT141" PB:Type="7" />
    </PBD:TagUses>
    <PBD:TagUses tag="\\RTDBB\430_FT_1205">
      <PBI:Symbol name="DATAPOINT143" PB:Type="7" />
    </PBD:TagUses>
    <PBD:TagUses tag="\\RTDBB\430_PT_2209">
      <PBI:Symbol name="DATAPOINT145" PB:Type="7" />
    </PBD:TagUses>
    <PBD:TagUses tag="\\RTDBB\425_FT_2008">
      <PBI:Symbol name="DATAPOINT146" PB:Type="7" />
    </PBD:TagUses>
    <PBD:TagUses tag="\\RTDBB\430_FT_1204">
      <PBI:Symbol name="DATAPOINT148" PB:Type="7" />
    </PBD:TagUses>
    <PBD:TagUses tag="\\RTDBB\430_FT_2206">
      <PBI:Symbol name="DATAPOINT149" PB:Type="7" />
    </PBD:TagUses>
  </defs>
  <g id="TEXT152">
    <rect x="25280" y="300" width="14040" height="2540" stroke-width="0" fill="none" id="TEXT152_pbTextBoundingRectEl" />
    <text fill="#000000" font-family="Courier" font-size="800" font-weight="bold" text-anchor="middle" x="32300" y="1970" id="TEXT152_pbTextEl">公用工程</text>
  </g>
  <path id="POLYGON384" d="M 3680 11020 l 57140 0" stroke="#FF0000" stroke-width="40" fill="none" />
  <path id="POLYGON385" d="M 10080 9040 l 0 4080" stroke="#FF0000" stroke-width="40" fill="none" />
  <path id="POLYGON386" d="M 10080 9040 l 50600 0" stroke="#FF0000" stroke-width="40" fill="none" />
  <path id="LINE386" d="M 9960 13120 l 50640 0" stroke="#FF0000" stroke-width="40" fill="none" />
  <path id="LINE387" d="M 3560 17340 l 57760 0" stroke="#FFFFFF" stroke-width="40" fill="none" />
  <path id="LINE388" d="M 9940 15380 l 0 4080" stroke="#FFFFFF" stroke-width="40" fill="none" />
  <path id="LINE389" d="M 9940 15380 l 51020 0" stroke="#FFFFFF" stroke-width="40" fill="none" />
  <path id="LINE390" d="M 9840 19480 l 51240 0" stroke="#FFFFFF" stroke-width="40" fill="none" />
  <path id="LINE391" d="M 3520 23500 l 57140 0" stroke="#FFFFFF" stroke-width="40" fill="none" />
  <path id="LINE392" d="M 9900 21540 l 0 4080" stroke="#FFFFFF" stroke-width="40" fill="none" />
  <path id="LINE393" d="M 9900 21540 l 50620 0" stroke="#FFFFFF" stroke-width="40" fill="none" />
  <path id="LINE394" d="M 9800 25620 l 50620 0" stroke="#FFFFFF" stroke-width="40" fill="none" />
  <path id="LINE395" d="M 3460 29300 l 57520 0" stroke="#00FF00" stroke-width="40" fill="none" />
  <path id="LINE396" d="M 9840 27340 l 0 4080" stroke="#00FF00" stroke-width="40" fill="none" />
  <path id="LINE397" d="M 9840 27340 l 51140 0" stroke="#00FF00" stroke-width="40" fill="none" />
  <path id="LINE398" d="M 9740 31420 l 51160 0" stroke="#00FF00" stroke-width="40" fill="none" />
  <path id="LINE399" d="M 3740 5520 l 6280 0" stroke="#FFFF00" stroke-width="40" fill="none" />
  <path id="LINE400" d="M 10100 3980 l 0 3080" stroke="#FFFF00" stroke-width="40" fill="none" />
  <path id="LINE401" d="M 10100 3980 l 50620 0" stroke="#FFFF00" stroke-width="40" fill="none" />
  <path id="LINE402" d="M 10040 7060 l 50620 0" stroke="#FFFF00" stroke-width="40" fill="none" />
  <g name="StraightArrow2">
    <path d="M 3675 5459 l -834 -191 117 128 -1433 0 0 128 1433 0 -117 128 834 -193 0 0" stroke-width="0" fill="#FFFF00" />
    <path d="M 3675 5459 l -834 -191 117 128 -1433 0 0 128 1433 0 -117 128 834 -193" stroke="#000000" stroke-width="20" fill="none" />
  </g>
  <g name="StraightArrow2">
    <path d="M 3635 10959 l -834 -191 117 128 -1433 0 0 128 1433 0 -117 128 834 -193 0 0" stroke-width="0" fill="#B40000" />
    <path d="M 3635 10959 l -834 -191 117 128 -1433 0 0 128 1433 0 -117 128 834 -193" stroke="#000000" stroke-width="20" fill="none" />
  </g>
  <g name="StraightArrow2">
    <path d="M 3495 17299 l -834 -191 117 128 -1433 0 0 128 1433 0 -117 128 834 -193 0 0" stroke-width="0" fill="#FFFFFF" />
    <path d="M 3495 17299 l -834 -191 117 128 -1433 0 0 128 1433 0 -117 128 834 -193" stroke="#000000" stroke-width="20" fill="none" />
  </g>
  <g name="StraightArrow2">
    <path d="M 3555 23459 l -834 -191 117 128 -1433 0 0 128 1433 0 -117 128 834 -193 0 0" stroke-width="0" fill="#FFFFFF" />
    <path d="M 3555 23459 l -834 -191 117 128 -1433 0 0 128 1433 0 -117 128 834 -193" stroke="#000000" stroke-width="20" fill="none" />
  </g>
  <g name="StraightArrow2">
    <path d="M 3435 29199 l -834 -191 117 128 -1433 0 0 128 1433 0 -117 128 834 -193 0 0" stroke-width="0" fill="#00FF00" />
    <path d="M 3435 29199 l -834 -191 117 128 -1433 0 0 128 1433 0 -117 128 834 -193" stroke="#000000" stroke-width="20" fill="none" />
  </g>
  <g name="StraightArrow2">
    <path d="M 63055 3979 l -834 -191 117 128 -1433 0 0 128 1433 0 -117 128 834 -193 0 0" stroke-width="0" fill="#FFFF00" />
    <path d="M 63055 3979 l -834 -191 117 128 -1433 0 0 128 1433 0 -117 128 834 -193" stroke="#000000" stroke-width="20" fill="none" />
  </g>
  <g name="StraightArrow2">
    <path d="M 63055 7019 l -834 -191 117 128 -1433 0 0 128 1433 0 -117 128 834 -193 0 0" stroke-width="0" fill="#FFFF00" />
    <path d="M 63055 7019 l -834 -191 117 128 -1433 0 0 128 1433 0 -117 128 834 -193" stroke="#000000" stroke-width="20" fill="none" />
  </g>
  <g name="StraightArrow2">
    <path d="M 63055 8979 l -834 -191 117 128 -1433 0 0 128 1433 0 -117 128 834 -193 0 0" stroke-width="0" fill="#B40000" />
    <path d="M 63055 8979 l -834 -191 117 128 -1433 0 0 128 1433 0 -117 128 834 -193" stroke="#000000" stroke-width="20" fill="none" />
  </g>
  <g name="StraightArrow2">
    <path d="M 63035 11019 l -834 -191 117 128 -1433 0 0 128 1433 0 -117 128 834 -193 0 0" stroke-width="0" fill="#B40000" />
    <path d="M 63035 11019 l -834 -191 117 128 -1433 0 0 128 1433 0 -117 128 834 -193" stroke="#000000" stroke-width="20" fill="none" />
  </g>
  <g name="StraightArrow2">
    <path d="M 63055 13079 l -834 -191 117 128 -1433 0 0 128 1433 0 -117 128 834 -193 0 0" stroke-width="0" fill="#B40000" />
    <path d="M 63055 13079 l -834 -191 117 128 -1433 0 0 128 1433 0 -117 128 834 -193" stroke="#000000" stroke-width="20" fill="none" />
  </g>
  <g name="StraightArrow2">
    <path d="M 63095 15299 l -834 -191 117 128 -1433 0 0 128 1433 0 -117 128 834 -193 0 0" stroke-width="0" fill="#FFFFFF" />
    <path d="M 63095 15299 l -834 -191 117 128 -1433 0 0 128 1433 0 -117 128 834 -193" stroke="#000000" stroke-width="20" fill="none" />
  </g>
  <g name="StraightArrow2">
    <path d="M 63135 17299 l -834 -191 117 128 -1433 0 0 128 1433 0 -117 128 834 -193 0 0" stroke-width="0" fill="#FFFFFF" />
    <path d="M 63135 17299 l -834 -191 117 128 -1433 0 0 128 1433 0 -117 128 834 -193" stroke="#000000" stroke-width="20" fill="none" />
  </g>
  <g name="StraightArrow2">
    <path d="M 63135 19399 l -834 -191 117 128 -1433 0 0 128 1433 0 -117 128 834 -193 0 0" stroke-width="0" fill="#FFFFFF" />
    <path d="M 63135 19399 l -834 -191 117 128 -1433 0 0 128 1433 0 -117 128 834 -193" stroke="#000000" stroke-width="20" fill="none" />
  </g>
  <g name="StraightArrow2">
    <path d="M 62995 21499 l -834 -191 117 128 -1433 0 0 128 1433 0 -117 128 834 -193 0 0" stroke-width="0" fill="#FFFFFF" />
    <path d="M 62995 21499 l -834 -191 117 128 -1433 0 0 128 1433 0 -117 128 834 -193" stroke="#000000" stroke-width="20" fill="none" />
  </g>
  <g name="StraightArrow2">
    <path d="M 63095 23539 l -834 -191 117 128 -1433 0 0 128 1433 0 -117 128 834 -193 0 0" stroke-width="0" fill="#FFFFFF" />
    <path d="M 63095 23539 l -834 -191 117 128 -1433 0 0 128 1433 0 -117 128 834 -193" stroke="#000000" stroke-width="20" fill="none" />
  </g>
  <g name="StraightArrow2">
    <path d="M 62995 25499 l -834 -191 117 128 -1433 0 0 128 1433 0 -117 128 834 -193 0 0" stroke-width="0" fill="#FFFFFF" />
    <path d="M 62995 25499 l -834 -191 117 128 -1433 0 0 128 1433 0 -117 128 834 -193" stroke="#000000" stroke-width="20" fill="none" />
  </g>
  <g name="StraightArrow2">
    <path d="M 63035 27319 l -834 -191 117 128 -1433 0 0 128 1433 0 -117 128 834 -193 0 0" stroke-width="0" fill="#00FF00" />
    <path d="M 63035 27319 l -834 -191 117 128 -1433 0 0 128 1433 0 -117 128 834 -193" stroke="#000000" stroke-width="20" fill="none" />
  </g>
  <g name="StraightArrow2">
    <path d="M 63095 29199 l -834 -191 117 128 -1433 0 0 128 1433 0 -117 128 834 -193 0 0" stroke-width="0" fill="#00FF00" />
    <path d="M 63095 29199 l -834 -191 117 128 -1433 0 0 128 1433 0 -117 128 834 -193" stroke="#000000" stroke-width="20" fill="none" />
  </g>
  <g name="StraightArrow2">
    <path d="M 63055 31379 l -834 -191 117 128 -1433 0 0 128 1433 0 -117 128 834 -193 0 0" stroke-width="0" fill="#00FF00" />
    <path d="M 63055 31379 l -834 -191 117 128 -1433 0 0 128 1433 0 -117 128 834 -193" stroke="#000000" stroke-width="20" fill="none" />
  </g>
  <g id="TEXT153">
    <rect x="880" y="3840" width="4800" height="1360" stroke-width="0" fill="none" id="TEXT153_pbTextBoundingRectEl" />
    <text fill="#000000" font-family="Helvetica" font-size="560" text-anchor="middle" x="3280" y="4800" id="TEXT153_pbTextEl">低压氮气</text>
  </g>
  <g id="TEXT154">
    <rect x="920" y="9420" width="4800" height="1360" stroke-width="0" fill="none" id="TEXT154_pbTextBoundingRectEl" />
    <text fill="#000000" font-family="Helvetica" font-size="560" text-anchor="middle" x="3320" y="10380" id="TEXT154_pbTextEl">低压蒸汽</text>
  </g>
  <g id="TEXT155">
    <rect x="320" y="15740" width="4800" height="1360" stroke-width="0" fill="none" id="TEXT155_pbTextBoundingRectEl" />
    <text fill="#000000" font-family="Helvetica" font-size="560" text-anchor="middle" x="2720" y="16700" id="TEXT155_pbTextEl">工厂风</text>
  </g>
  <g id="TEXT156">
    <rect x="340" y="21900" width="4800" height="1360" stroke-width="0" fill="none" id="TEXT156_pbTextBoundingRectEl" />
    <text fill="#000000" font-family="Helvetica" font-size="560" text-anchor="middle" x="2740" y="22860" id="TEXT156_pbTextEl">仪表风</text>
  </g>
  <g id="TEXT157">
    <rect x="260" y="27660" width="4800" height="1360" stroke-width="0" fill="none" id="TEXT157_pbTextBoundingRectEl" />
    <text fill="#000000" font-family="Helvetica" font-size="560" text-anchor="middle" x="2660" y="28620" id="TEXT157_pbTextEl">生产水</text>
  </g>
  <g id="TEXT158">
    <rect x="58280" y="2440" width="4800" height="1360" stroke-width="0" fill="none" id="TEXT158_pbTextBoundingRectEl" />
    <text fill="#000000" font-family="Helvetica" font-size="560" text-anchor="middle" x="60680" y="3400" id="TEXT158_pbTextEl">去甲醇罐组</text>
  </g>
  <g id="TEXT161">
    <rect x="57540" y="5660" width="5380" height="1360" stroke-width="0" fill="none" id="TEXT161_pbTextBoundingRectEl" />
    <text fill="#000000" font-family="Helvetica" font-size="560" text-anchor="middle" x="60230" y="6620" id="TEXT161_pbTextEl">去乙烯-1罐组</text>
  </g>
  <g id="TEXT162">
    <rect x="57660" y="9520" width="5380" height="1360" stroke-width="0" fill="none" id="TEXT162_pbTextBoundingRectEl" />
    <text fill="#000000" font-family="Helvetica" font-size="560" text-anchor="middle" x="60350" y="10480" id="TEXT162_pbTextEl">去乙烯-1罐组</text>
  </g>
  <g id="TEXT163">
    <rect x="58340" y="7620" width="4800" height="1360" stroke-width="0" fill="none" id="TEXT163_pbTextBoundingRectEl" />
    <text fill="#000000" font-family="Helvetica" font-size="560" text-anchor="middle" x="60740" y="8580" id="TEXT163_pbTextEl">去甲醇罐组</text>
  </g>
  <g id="TEXT164">
    <rect x="58100" y="11580" width="5380" height="1360" stroke-width="0" fill="none" id="TEXT164_pbTextBoundingRectEl" />
    <text fill="#000000" font-family="Helvetica" font-size="560" text-anchor="middle" x="60790" y="12540" id="TEXT164_pbTextEl">去液碱罐组</text>
  </g>
  <g id="TEXT165">
    <rect x="58320" y="13860" width="4800" height="1360" stroke-width="0" fill="none" id="TEXT165_pbTextBoundingRectEl" />
    <text fill="#000000" font-family="Helvetica" font-size="560" text-anchor="middle" x="60720" y="14820" id="TEXT165_pbTextEl">去甲醇罐组</text>
  </g>
  <g id="TEXT166">
    <rect x="58440" y="20040" width="4800" height="1360" stroke-width="0" fill="none" id="TEXT166_pbTextBoundingRectEl" />
    <text fill="#000000" font-family="Helvetica" font-size="560" text-anchor="middle" x="60840" y="21000" id="TEXT166_pbTextEl">去甲醇罐组</text>
  </g>
  <g id="TEXT167">
    <rect x="58380" y="25820" width="4800" height="1360" stroke-width="0" fill="none" id="TEXT167_pbTextBoundingRectEl" />
    <text fill="#000000" font-family="Helvetica" font-size="560" text-anchor="middle" x="60780" y="26780" id="TEXT167_pbTextEl">去甲醇罐组</text>
  </g>
  <g id="TEXT168">
    <rect x="57680" y="15720" width="5380" height="1360" stroke-width="0" fill="none" id="TEXT168_pbTextBoundingRectEl" />
    <text fill="#000000" font-family="Helvetica" font-size="560" text-anchor="middle" x="60370" y="16680" id="TEXT168_pbTextEl">去乙烯-1罐组</text>
  </g>
  <g id="TEXT169">
    <rect x="57720" y="22060" width="5380" height="1360" stroke-width="0" fill="none" id="TEXT169_pbTextBoundingRectEl" />
    <text fill="#000000" font-family="Helvetica" font-size="560" text-anchor="middle" x="60410" y="23020" id="TEXT169_pbTextEl">去乙烯-1罐组</text>
  </g>
  <g id="TEXT170">
    <rect x="57780" y="27840" width="5380" height="1360" stroke-width="0" fill="none" id="TEXT170_pbTextBoundingRectEl" />
    <text fill="#000000" font-family="Helvetica" font-size="560" text-anchor="middle" x="60470" y="28800" id="TEXT170_pbTextEl">去乙烯-1罐组</text>
  </g>
  <g id="TEXT171">
    <rect x="58140" y="17920" width="5380" height="1360" stroke-width="0" fill="none" id="TEXT171_pbTextBoundingRectEl" />
    <text fill="#000000" font-family="Helvetica" font-size="560" text-anchor="middle" x="60830" y="18880" id="TEXT171_pbTextEl">去液碱罐组</text>
  </g>
  <g id="TEXT172">
    <rect x="58260" y="24200" width="5380" height="1360" stroke-width="0" fill="none" id="TEXT172_pbTextBoundingRectEl" />
    <text fill="#000000" font-family="Helvetica" font-size="560" text-anchor="middle" x="60950" y="25160" id="TEXT172_pbTextEl">去液碱罐组</text>
  </g>
  <g id="TEXT173">
    <rect x="58140" y="29900" width="5380" height="1360" stroke-width="0" fill="none" id="TEXT173_pbTextBoundingRectEl" />
    <text fill="#000000" font-family="Helvetica" font-size="560" text-anchor="middle" x="60830" y="30860" id="TEXT173_pbTextEl">去液碱罐组</text>
  </g>
  <g id="TEXT176">
    <rect x="23480" y="2360" width="5580" height="840" stroke-width="0" fill="none" id="TEXT176_pbTextBoundingRectEl" />
    <text fill="#000000" font-family="Helvetica" font-size="560" text-anchor="middle" x="26270" y="3060" id="TEXT176_pbTextEl">430PI1207</text>
  </g>
  <g id="TEXT177">
    <rect x="34640" y="2380" width="5580" height="840" stroke-width="0" fill="none" id="TEXT177_pbTextBoundingRectEl" />
    <text fill="#000000" font-family="Helvetica" font-size="560" text-anchor="middle" x="37430" y="3080" id="TEXT177_pbTextEl">430FI1204</text>
  </g>
  <path id="POLYGON403" d="M 25800 3120 l 0 980" stroke="#000000" stroke-width="20" stroke-dasharray="60,60" fill="none" />
  <path id="LINE403" d="M 37220 3120 l 0 980" stroke="#000000" stroke-width="20" stroke-dasharray="60,60" fill="none" />
  <g id="TEXT178">
    <rect x="23480" y="4820" width="5580" height="840" stroke-width="0" fill="none" id="TEXT178_pbTextBoundingRectEl" />
    <text fill="#000000" font-family="Helvetica" font-size="560" text-anchor="middle" x="26270" y="5520" id="TEXT178_pbTextEl">430FIQ2205</text>
  </g>
  <path id="LINE404" d="M 25800 6020 l 0 960" stroke="#000000" stroke-width="20" stroke-dasharray="60,60" fill="none" />
  <g id="TEXT179">
    <rect x="27220" y="3140" width="1100" height="740" stroke-width="0" fill="none" id="TEXT179_pbTextBoundingRectEl" />
    <text fill="#000000" font-family="Helvetica" font-size="560" text-anchor="middle" x="27770" y="3790" id="TEXT179_pbTextEl">MPa</text>
  </g>
  <g id="TEXT180">
    <rect x="38080" y="3200" width="1620" height="740" stroke-width="0" fill="none" id="TEXT180_pbTextBoundingRectEl" />
    <text fill="#000000" font-family="Helvetica" font-size="560" text-anchor="middle" x="38890" y="3850" id="TEXT180_pbTextEl">Nm3/h</text>
  </g>
  <g id="TEXT181">
    <rect x="26920" y="5760" width="1620" height="740" stroke-width="0" fill="none" id="TEXT181_pbTextBoundingRectEl" />
    <text fill="#000000" font-family="Helvetica" font-size="560" text-anchor="middle" x="27730" y="6410" id="TEXT181_pbTextEl">Nm3/h</text>
  </g>
  <g id="TEXT183">
    <rect x="23480" y="9000" width="5580" height="840" stroke-width="0" fill="none" id="TEXT183_pbTextBoundingRectEl" />
    <text fill="#000000" font-family="Helvetica" font-size="560" text-anchor="middle" x="26270" y="9700" id="TEXT183_pbTextEl">430FIQ2204</text>
  </g>
  <g id="TEXT186">
    <rect x="26920" y="9740" width="1620" height="740" stroke-width="0" fill="none" id="TEXT186_pbTextBoundingRectEl" />
    <text fill="#000000" font-family="Helvetica" font-size="560" text-anchor="middle" x="27730" y="10390" id="TEXT186_pbTextEl">kg/h</text>
  </g>
  <path id="LINE405" d="M 25800 9960 l 0 1000" stroke="#000000" stroke-width="20" stroke-dasharray="60,60" fill="none" />
  <g id="TEXT188">
    <rect x="23480" y="11040" width="5580" height="840" stroke-width="0" fill="none" id="TEXT188_pbTextBoundingRectEl" />
    <text fill="#000000" font-family="Helvetica" font-size="560" text-anchor="middle" x="26270" y="11740" id="TEXT188_pbTextEl">425FIQ2205</text>
  </g>
  <path id="LINE406" d="M 25800 11920 l 0 980" stroke="#000000" stroke-width="20" stroke-dasharray="60,60" fill="none" />
  <g id="TEXT189">
    <rect x="26920" y="11800" width="1620" height="740" stroke-width="0" fill="none" id="TEXT189_pbTextBoundingRectEl" />
    <text fill="#000000" font-family="Helvetica" font-size="560" text-anchor="middle" x="27730" y="12450" id="TEXT189_pbTextEl">kg/h</text>
  </g>
  <g id="TEXT191">
    <rect x="23480" y="19480" width="5580" height="840" stroke-width="0" fill="none" id="TEXT191_pbTextBoundingRectEl" />
    <text fill="#000000" font-family="Helvetica" font-size="560" text-anchor="middle" x="26270" y="20180" id="TEXT191_pbTextEl">430FIQ1205</text>
  </g>
  <path id="LINE407" d="M 25800 20600 l 0 940" stroke="#000000" stroke-width="20" stroke-dasharray="60,60" fill="none" />
  <g id="TEXT193">
    <rect x="26500" y="20180" width="2040" height="740" stroke-width="0" fill="none" id="TEXT193_pbTextBoundingRectEl" />
    <text fill="#000000" font-family="Helvetica" font-size="560" text-anchor="middle" x="27520" y="20830" id="TEXT193_pbTextEl">Nm3/h</text>
  </g>
  <g id="TEXT194">
    <rect x="23480" y="21820" width="5580" height="840" stroke-width="0" fill="none" id="TEXT194_pbTextBoundingRectEl" />
    <text fill="#000000" font-family="Helvetica" font-size="560" text-anchor="middle" x="26270" y="22520" id="TEXT194_pbTextEl">430PI1207</text>
  </g>
  <path id="LINE408" d="M 25800 22580 l 0 980" stroke="#000000" stroke-width="20" stroke-dasharray="60,60" fill="none" />
  <g id="TEXT195">
    <rect x="27180" y="22540" width="1100" height="740" stroke-width="0" fill="none" id="TEXT195_pbTextBoundingRectEl" />
    <text fill="#000000" font-family="Helvetica" font-size="560" text-anchor="middle" x="27730" y="23190" id="TEXT195_pbTextEl">MPa</text>
  </g>
  <g id="TEXT198">
    <rect x="32760" y="21520" width="5920" height="920" stroke-width="0" fill="none" id="TEXT198_pbTextBoundingRectEl" />
    <text fill="#000000" font-family="Helvetica" font-size="560" text-anchor="middle" x="35720" y="22260" id="TEXT198_pbTextEl">430FIQ2206</text>
  </g>
  <path id="LINE409" d="M 34360 22640 l 0 960" stroke="#000000" stroke-width="20" stroke-dasharray="60,60" fill="none" />
  <g id="TEXT200">
    <rect x="36200" y="22200" width="1620" height="740" stroke-width="0" fill="none" id="TEXT200_pbTextBoundingRectEl" />
    <text fill="#000000" font-family="Helvetica" font-size="560" text-anchor="middle" x="37010" y="22850" id="TEXT200_pbTextEl">Nm3/h</text>
  </g>
  <g id="TEXT201">
    <rect x="23300" y="23640" width="5920" height="920" stroke-width="0" fill="none" id="TEXT201_pbTextBoundingRectEl" />
    <text fill="#000000" font-family="Helvetica" font-size="560" text-anchor="middle" x="26260" y="24380" id="TEXT201_pbTextEl">425FIQ2008</text>
  </g>
  <path id="LINE410" d="M 25800 24740 l 0 980" stroke="#000000" stroke-width="20" stroke-dasharray="60,60" fill="none" />
  <g id="TEXT203">
    <rect x="26920" y="24320" width="1620" height="740" stroke-width="0" fill="none" id="TEXT203_pbTextBoundingRectEl" />
    <text fill="#000000" font-family="Helvetica" font-size="560" text-anchor="middle" x="27730" y="24970" id="TEXT203_pbTextEl">Nm3/h</text>
  </g>
  <g id="DATAPOINT136" PB:IsMultiState="False" PBD:PtTagName="\\RTDBB\430_PT_1207" PB:Type="7" PB:NumberFormat="0.00">
    <rect x="24600" y="3220" width="2400" height="500" stroke-width="0" fill="none" id="DATAPOINT136_pbTextBoundingRectEl" />
    <text fill="#000000" font-family="Helvetica" font-size="560" text-anchor="middle" x="25800" y="3750" id="DATAPOINT136_pbTextEl" PBD:Property="VAL">#.##</text>
  </g>
  <g id="DATAPOINT137" PB:IsMultiState="False" PBD:PtTagName="\\RTDBB\430_FT_2205" PB:Type="7" PB:NumberFormat="0.00">
    <rect x="24700" y="5900" width="2200" height="500" stroke-width="0" fill="none" id="DATAPOINT137_pbTextBoundingRectEl" />
    <text fill="#000000" font-family="Helvetica" font-size="560" text-anchor="middle" x="25800" y="6430" id="DATAPOINT137_pbTextEl" PBD:Property="VAL">#.##</text>
  </g>
  <g id="DATAPOINT139" PB:IsMultiState="False" PBD:PtTagName="\\RTDBB\430_FT_2204" PB:Type="7" PB:NumberFormat="0.00">
    <rect x="24680" y="9900" width="2260" height="500" stroke-width="0" fill="none" id="DATAPOINT139_pbTextBoundingRectEl" />
    <text fill="#000000" font-family="Helvetica" font-size="560" text-anchor="middle" x="25810" y="10430" id="DATAPOINT139_pbTextEl" PBD:Property="VAL">#.##</text>
  </g>
  <g id="DATAPOINT141" PB:IsMultiState="False" PBD:PtTagName="\\RTDBB\425_FT_2006" PB:Type="7" PB:NumberFormat="0.00">
    <rect x="24480" y="12000" width="2620" height="500" stroke-width="0" fill="none" id="DATAPOINT141_pbTextBoundingRectEl" />
    <text fill="#000000" font-family="Helvetica" font-size="560" text-anchor="middle" x="25790" y="12530" id="DATAPOINT141_pbTextEl" PBD:Property="VAL">#.##</text>
  </g>
  <g id="DATAPOINT143" PB:IsMultiState="False" PBD:PtTagName="\\RTDBB\430_FT_1205" PB:Type="7" PB:NumberFormat="0.00">
    <rect x="24360" y="20280" width="2900" height="500" stroke-width="0" fill="none" id="DATAPOINT143_pbTextBoundingRectEl" />
    <text fill="#000000" font-family="Helvetica" font-size="560" text-anchor="middle" x="25810" y="20810" id="DATAPOINT143_pbTextEl" PBD:Property="VAL">#.##</text>
  </g>
  <g id="DATAPOINT145" PB:IsMultiState="False" PBD:PtTagName="\\RTDBB\430_PT_2209" PB:Type="7" PB:NumberFormat="0.00">
    <rect x="24700" y="22660" width="2200" height="500" stroke-width="0" fill="none" id="DATAPOINT145_pbTextBoundingRectEl" />
    <text fill="#000000" font-family="Helvetica" font-size="560" text-anchor="middle" x="25800" y="23190" id="DATAPOINT145_pbTextEl" PBD:Property="VAL">#.##</text>
  </g>
  <g id="DATAPOINT146" PB:IsMultiState="False" PBD:PtTagName="\\RTDBB\425_FT_2008" PB:Type="7" PB:NumberFormat="0.00">
    <rect x="24560" y="24560" width="2480" height="500" stroke-width="0" fill="none" id="DATAPOINT146_pbTextBoundingRectEl" />
    <text fill="#000000" font-family="Helvetica" font-size="560" text-anchor="middle" x="25800" y="25090" id="DATAPOINT146_pbTextEl" PBD:Property="VAL">#.##</text>
  </g>
  <g id="DATAPOINT148" PB:IsMultiState="False" PBD:PtTagName="\\RTDBB\430_FT_1204" PB:Type="7" PB:NumberFormat="0.00">
    <rect x="35180" y="3340" width="2480" height="500" stroke-width="0" fill="none" id="DATAPOINT148_pbTextBoundingRectEl" />
    <text fill="#000000" font-family="Helvetica" font-size="560" text-anchor="middle" x="36420" y="3870" id="DATAPOINT148_pbTextEl" PBD:Property="VAL">#.##</text>
  </g>
  <g id="DATAPOINT149" PB:IsMultiState="False" PBD:PtTagName="\\RTDBB\430_FT_2206" PB:Type="7" PB:NumberFormat="0.00">
    <rect x="33480" y="22380" width="2340" height="500" stroke-width="0" fill="none" id="DATAPOINT149_pbTextBoundingRectEl" />
    <text fill="#000000" font-family="Helvetica" font-size="560" text-anchor="middle" x="34650" y="22910" id="DATAPOINT149_pbTextEl" PBD:Property="VAL">#.##</text>
  </g>
</svg>