<?xml version="1.0" encoding="UTF-8"?>
<svg height="100%" width="100%" viewBox="0 0 64000 32000" version="1.1" xmlns="http://www.w3.org/2000/svg" xmlns:xlink="http://www.w3.org/1999/xlink" xmlns:PB="urn:osisoft-com-pb" xmlns:PBI="urn:osisoft-com-interface" xmlns:PBD="urn:osisoft-com-data" style="background-color:#C0C0C0">
  <title>Graphic2</title>
  <defs>
    <PBD:TagUses tag="\\RTDBB\425_LT_9201">
      <PBI:Symbol name="BARGRAPH1" PB:Type="12" />
      <PBI:Symbol name="DATAPOINT4" PB:Type="7" />
    </PBD:TagUses>
    <PBD:TagUses tag="\\RTDBB\425_LT_9101">
      <PBI:Symbol name="BARGRAPH2" PB:Type="12" />
      <PBI:Symbol name="DATAPOINT2" PB:Type="7" />
    </PBD:TagUses>
    <PBD:TagUses tag="\\RTDBB\430_TT_1201">
      <PBI:Symbol name="DATAPOINT150" PB:Type="7" />
    </PBD:TagUses>
    <PBD:TagUses tag="\\RTDBB\430_LT_1201">
      <PBI:Symbol name="DATAPOINT151" PB:Type="7" />
    </PBD:TagUses>
    <PBD:TagUses tag="\\RTDBB\430_TT_2201">
      <PBI:Symbol name="DATAPOINT152" PB:Type="7" />
    </PBD:TagUses>
    <PBD:TagUses tag="\\RTDBB\430_LT_2201">
      <PBI:Symbol name="DATAPOINT153" PB:Type="7" />
    </PBD:TagUses>
    <PBD:TagUses tag="\\RTDBB\430_EI_2202">
      <PBI:Symbol name="DATAPOINT154" PB:Type="7" />
    </PBD:TagUses>
    <PBD:TagUses tag="\\RTDBB\430_PT_1208">
      <PBI:Symbol name="DATAPOINT156" PB:Type="7" />
    </PBD:TagUses>
    <PBD:TagUses tag="\\RTDBB\430_PT_2203">
      <PBI:Symbol name="DATAPOINT157" PB:Type="7" />
    </PBD:TagUses>
    <PBD:TagUses tag="\\RTDBB\425_AT_9101">
      <PBI:Symbol name="DATAPOINT3" PB:Type="7" />
    </PBD:TagUses>
    <PBD:TagUses tag="\\RTDBB\430_EI_1202">
      <PBI:Symbol name="DATAPOINT5" PB:Type="7" />
    </PBD:TagUses>
  </defs>
  <g name="Valve3d1">
    <path d="M 21761 15438 l 0 -950 -281 0 0 950 281 0 0 0" stroke-width="0" fill="#808080" />
    <path d="M 21732 15438 l 0 -950 -222 0 0 950 222 0 0 0" stroke-width="0" fill="#B4B4B4" />
    <path d="M 21693 15438 l 0 -950 -154 0 0 950 154 0 0 0" stroke-width="0" fill="#DEDEDE" />
    <path d="M 21645 15438 l 0 -950 -58 0 0 950 58 0 0 0" stroke-width="0" fill="#FFFFFF" />
    <path d="M 21480 15438 l 0 -950" stroke="#000000" stroke-width="20" fill="none" />
    <path d="M 21761 14488 l 0 950" stroke="#000000" stroke-width="20" fill="none" />
    <path d="M 21616 15271 l -1568 0 9 65 29 65 29 65 49 65 77 56 78 55 87 51 106 47 107 41 126 37 126 33 135 32 145 23 146 14 154 10 165 4 165 -4 154 -10 146 -14 145 -23 135 -32 136 -33 126 -37 106 -41 107 -47 87 -51 77 -55 68 -56 58 -65 29 -65 29 -65 10 -65 -1578 0 0 0" stroke-width="0" fill="#808080" />
    <path d="M 21616 15271 l -1423 0 10 65 19 65 29 65 58 60 58 61 68 55 87 51 87 47 97 41 116 37 116 33 116 32 146 23 126 14 145 10 145 4 145 -4 145 -10 126 -14 146 -23 116 -32 116 -33 116 -37 97 -41 87 -47 87 -51 68 -55 58 -61 58 -60 29 -65 19 -65 10 -65 -1423 0 0 0" stroke-width="0" fill="#969696" />
    <path d="M 21616 15271 l -1133 0 10 65 19 65 29 65 29 60 49 61 68 55 58 51 77 47 78 41 87 37 87 33 106 32 97 23 107 14 116 10 116 4 116 -4 116 -10 107 -14 97 -23 106 -32 87 -33 87 -37 78 -41 77 -47 58 -51 68 -55 49 -61 38 -60 20 -65 19 -65 10 -65 -1133 0 0 0" stroke-width="0" fill="#B4B4B4" />
    <path d="M 21616 15271 l -833 0 0 65 20 65 19 65 29 65 39 56 29 55 58 51 48 47 59 41 67 37 68 33 68 32 77 23 78 14 87 10 87 4 87 -4 87 -10 78 -14 77 -23 78 -32 67 -33 58 -37 59 -41 58 -47 48 -51 39 -55 38 -56 30 -65 19 -65 10 -65 9 -65 -842 0 0 0" stroke-width="0" fill="#D2D2D2" />
    <path d="M 21616 15271 l -542 0 0 65 10 65 19 65 19 65 20 56 29 55 29 51 29 47 48 41 39 37 39 33 48 32 48 23 59 14 58 10 48 4 48 -4 68 -10 49 -14 48 -23 48 -32 39 -33 39 -37 48 -41 29 -47 29 -51 29 -55 20 -56 19 -65 19 -65 10 -65 0 -65 -542 0 0 0" stroke-width="0" fill="#DEDEDE" />
    <path d="M 21616 15271 l -1568 0 0 0 9 65 29 65 29 65 49 65 77 56 78 55 87 51 106 47 107 41 126 37 126 33 135 32 145 23 146 14 154 10 165 4 0 0 165 -4 154 -10 146 -14 145 -23 135 -32 136 -33 126 -37 106 -41 107 -47 87 -51 77 -55 68 -56 58 -65 29 -65 29 -65 10 -65 -1578 0" stroke="#000000" stroke-width="20" fill="none" />
    <path d="M 21616 15271 l -145 0 0 65 0 65 9 65 0 65 10 56 10 55 10 51 0 47 9 41 20 37 9 33 20 32 9 23 10 14 10 10 19 4 19 -4 20 -10 0 -14 19 -23 10 -32 19 -33 10 -37 9 -41 10 -47 0 -51 10 -55 10 -56 0 -65 9 -65 0 -65 0 -65 -145 0 0 0" stroke-width="0" fill="#FFFFFF" />
    <path d="M 19719 14080 l 0 830 3833 -830 0 830 -3833 -830 0 0" stroke-width="0" fill="#808080" />
    <path d="M 19719 14122 l 0 741 3833 -741 0 741 -3833 -741 0 0" stroke-width="0" fill="#969696" />
    <path d="M 19719 14205 l 0 575 3833 -575 0 575 -3833 -575 0 0" stroke-width="0" fill="#B4B4B4" />
    <path d="M 19719 14293 l 0 403 3833 -403 0 403 -3833 -403 0 0" stroke-width="0" fill="#D2D2D2" />
    <path d="M 19719 14353 l 0 278 3833 -278 0 278 -3833 -278 0 0" stroke-width="0" fill="#DEDEDE" />
    <path d="M 19719 14441 l 0 107 3833 -107 0 107 -3833 -107 0 0" stroke-width="0" fill="#FFFFFF" />
    <path d="M 19719 14080 l 0 830 3833 -830 0 830 -3833 -830" stroke="#000000" stroke-width="20" fill="none" />
  </g>
  <g name="GasLongHorizontalPipe">
    <path d="M 20027 15387 l 0 -5134 3213 0 0 5134 -3213 0 0 0" stroke-width="0" fill="#666666" />
    <path d="M 20233 15387 l 0 -5134 2827 0 0 5134 -2827 0 0 0" stroke-width="0" fill="#7A7A7A" />
    <path d="M 20504 15387 l 0 -5134 2285 0 0 5134 -2285 0 0 0" stroke-width="0" fill="#969696" />
    <path d="M 20698 15387 l 0 -5134 1884 0 0 5134 -1884 0 0 0" stroke-width="0" fill="#ADADAD" />
    <path d="M 20840 15387 l 0 -5134 1613 0 0 5134 -1613 0 0 0" stroke-width="0" fill="#CCCCCC" />
    <path d="M 20969 15387 l 0 -5134 1342 0 0 5134 -1342 0 0 0" stroke-width="0" fill="#DEDEDE" />
    <path d="M 21175 15387 l 0 -5134 943 0 0 5134 -943 0 0 0" stroke-width="0" fill="#FFFFFF" />
    <path d="M 20027 15387 l 0 -5134" stroke="#000000" stroke-width="20" fill="none" />
    <path d="M 23240 15387 l 0 -5134" stroke="#000000" stroke-width="20" fill="none" />
  </g>
  <g name="VerySmoothTank4">
    <path d="M 9570 14932 l -110 0 -131 -16 -112 -8 -111 -16 -112 -24 -110 -16 -113 -32 -110 -40 -94 -40 -112 -41 -92 -47 -94 -56 -93 -56 -74 -56 -93 -64 -74 -64 -92 -72 -57 -72 -74 -81 -74 -71 -56 -88 -56 -80 -56 -88 -37 -88 -37 -88 -37 -96 -37 -96 -19 -96 -37 -96 0 -105 -19 -96 0 -103 0 -103 19 -96 0 -105 37 -96 19 -96 37 -96 37 -96 37 -88 37 -88 56 -88 56 -80 56 -88 74 -71 74 -81 57 -72 92 -72 74 -64 93 -64 74 -56 93 -56 94 -56 92 -47 112 -41 94 -40 110 -40 113 -32 111 -24 111 -24 112 -16 112 -8 129 -17 112 0 13920 1 130 0 112 17 111 8 130 15 112 25 93 24 111 32 112 40 111 40 93 39 92 48 94 56 93 57 93 56 74 64 93 64 74 72 75 72 56 79 74 73 56 88 55 79 56 89 56 88 37 88 37 96 19 95 37 97 19 96 18 104 0 95 0 104 0 104 0 96 -18 104 -19 95 -37 96 -19 96 -37 96 -37 88 -57 89 -55 88 -55 80 -56 87 -74 73 -56 79 -75 72 -75 73 -92 63 -74 64 -93 56 -93 57 -94 56 -92 48 -93 39 -111 40 -112 41 -111 31 -93 16 -112 24 -130 16 -111 8 -112 16 -130 1 -13921 0 0 0" stroke-width="0" fill="#666666" />
    <path d="M 9570 14932 l 0 0 -110 0 -131 -16 -112 -8 -111 -16 -112 -24 -110 -16 -113 -32 -110 -40 -94 -40 -112 -41 -92 -47 -94 -56 -93 -56 -74 -56 -93 -64 -74 -64 -92 -72 -57 -72 -74 -81 -74 -71 -56 -88 -56 -80 -56 -88 -37 -88 -37 -88 -37 -96 -37 -96 -19 -96 -37 -96 0 -105 -19 -96 0 -103 0 0 0 -103 19 -96 0 -105 37 -96 19 -96 37 -96 37 -96 37 -88 37 -88 56 -88 56 -80 56 -88 74 -71 74 -81 57 -72 92 -72 74 -64 93 -64 74 -56 93 -56 94 -56 92 -47 112 -41 94 -40 110 -40 113 -32 111 -24 111 -24 112 -16 112 -8 129 -17 112 0 13920 1 0 0 130 0 112 17 111 8 130 15 112 25 93 24 111 32 112 40 111 40 93 39 92 48 94 56 93 57 93 56 74 64 93 64 74 72 75 72 56 79 74 73 56 88 55 79 56 89 56 88 37 88 37 96 19 95 37 97 19 96 18 104 0 95 0 104 0 0 0 104 0 96 -18 104 -19 95 -37 96 -19 96 -37 96 -37 88 -57 89 -55 88 -55 80 -56 87 -74 73 -56 79 -75 72 -75 73 -92 63 -74 64 -93 56 -93 57 -94 56 -92 48 -93 39 -111 40 -112 41 -111 31 -93 16 -112 24 -130 16 -111 8 -112 16 -130 1 -13921 0" stroke="#000000" stroke-width="20" fill="none" />
    <path d="M 25814 12940 l -167 -687 -502 -625 -780 -392 -874 -127 -13921 -1 -873 128 -799 392 -484 624 -167 688 167 688 484 616 799 392 873 136 13921 -1 874 -136 780 -392 502 -615 167 -688 0 0" stroke-width="0" fill="#787878" />
    <path d="M 25814 12940 l -167 -623 -502 -568 -780 -360 -874 -120 -13920 -1 -874 120 -799 360 -484 568 -167 624 167 624 484 568 800 352 872 120 13920 0 874 -120 781 -353 502 -567 167 -624 0 0" stroke-width="0" fill="#7A7A7A" />
    <path d="M 25814 12940 l -167 -567 -502 -504 -780 -328 -874 -104 -13920 -1 -873 104 -800 329 -484 504 -167 567 167 560 484 511 799 320 873 104 13921 0 874 -103 780 -321 502 -512 167 -559 0 0" stroke-width="0" fill="#858585" />
    <path d="M 25814 12940 l -167 -503 -502 -448 -780 -289 -874 -95 -13920 -1 -874 96 -799 288 -484 448 -167 504 167 495 484 457 799 280 873 95 13920 1 875 -97 780 -280 502 -455 167 -496 0 0" stroke-width="0" fill="#969696" />
    <path d="M 25814 12940 l -167 -439 -502 -400 -780 -249 -874 -79 -13921 0 -873 80 -799 247 -484 401 -167 439 167 432 484 399 799 249 873 87 13921 0 874 -88 780 -248 502 -400 167 -431 0 0" stroke-width="0" fill="#A3A3A3" />
    <path d="M 25814 12940 l -167 -375 -502 -344 -780 -216 -874 -64 -13939 0 -855 63 -799 216 -502 344 -149 376 149 376 502 336 799 216 873 72 13921 -1 874 -71 780 -217 502 -335 167 -376 0 0" stroke-width="0" fill="#ADADAD" />
    <path d="M 25814 12940 l -167 -311 -502 -289 -780 -176 -875 -63 -13938 0 -855 63 -798 176 -502 288 -150 312 150 312 501 280 800 176 872 64 13921 0 873 -64 780 -176 503 -281 167 -311 0 0" stroke-width="0" fill="#B4B4B4" />
    <path d="M 25814 12940 l -167 -256 -502 -224 -780 -143 -874 -48 -13939 -1 -855 48 -799 145 -502 223 -149 256 149 248 502 224 799 144 873 48 13920 0 875 -49 780 -144 502 -224 167 -247 0 0" stroke-width="0" fill="#C2C2C2" />
    <path d="M 25814 12940 l -168 -191 -501 -168 -780 -112 -874 -32 -13939 -1 -855 32 -799 112 -502 168 -149 192 149 184 503 168 798 112 873 32 13921 0 874 -33 780 -112 502 -168 167 -183 0 0" stroke-width="0" fill="#D2D2D2" />
    <path d="M 25814 12940 l -167 -128 -502 -112 -781 -71 -873 -24 -13939 -1 -855 24 -799 72 -502 112 -149 128 149 120 502 120 800 64 872 32 13921 -1 874 -32 780 -63 502 -121 167 -119 0 0" stroke-width="0" fill="#DBDBDB" />
    <path d="M 25814 12940 l -167 -63 -483 -56 -799 -40 -874 -8 -13921 -1 -873 8 -781 40 -502 56 -167 64 167 64 502 56 781 32 873 16 13921 0 874 -17 799 -31 483 -57 167 -63 0 0" stroke-width="0" fill="#DEDEDE" />
    <path d="M 23491 14932 l 0 -3992" stroke="#000000" stroke-width="20" fill="none" />
    <path d="M 9570 14932 l 1 -3993" stroke="#000000" stroke-width="20" fill="none" />
  </g>
  <g name="GasLongHorizontalPipe">
    <path d="M 10259 10978 l 0 -716 4385 0 0 716 -4385 0 0 0" stroke-width="0" fill="#666666" />
    <path d="M 10540 10978 l 0 -716 3857 0 0 716 -3857 0 0 0" stroke-width="0" fill="#7A7A7A" />
    <path d="M 10910 10978 l 0 -716 3117 0 0 716 -3117 0 0 0" stroke-width="0" fill="#969696" />
    <path d="M 11174 10978 l 0 -716 2572 0 0 716 -2572 0 0 0" stroke-width="0" fill="#ADADAD" />
    <path d="M 11368 10978 l 0 -716 2202 0 0 716 -2202 0 0 0" stroke-width="0" fill="#CCCCCC" />
    <path d="M 11544 10978 l 0 -716 1832 0 0 716 -1832 0 0 0" stroke-width="0" fill="#DEDEDE" />
    <path d="M 11826 10978 l 0 -716 1286 0 0 716 -1286 0 0 0" stroke-width="0" fill="#FFFFFF" />
    <path d="M 10259 10978 l 0 -716" stroke="#000000" stroke-width="20" fill="none" />
    <path d="M 14644 10978 l 0 -716" stroke="#000000" stroke-width="20" fill="none" />
  </g>
  <path id="POLYGON1" d="M 9920 10960 l 0 -4480" stroke="#000000" stroke-width="60" fill="none" />
  <path id="POLYGON2" d="M 9920 6480 l -6260 0" stroke="#000000" stroke-width="60" fill="none" />
  <path id="POLYGON3" d="M 9180 6440 l 0 -2120" stroke="#000000" stroke-width="60" fill="none" />
  <path id="POLYGON4" d="M 3660 4320 l 5520 0" stroke="#000000" stroke-width="60" fill="none" />
  <path id="POLYGON5" d="M 10980 10120 l 0 -8660" stroke="#FFFFFF" stroke-width="60" fill="none" />
  <path id="POLYGON6" d="M 10980 1460 l -7260 0" stroke="#FFFFFF" stroke-width="60" fill="none" />
  <g name="Valve3d1">
    <path d="M 5679 732 l 0 706 -91 0 0 -706 91 0 0 0" stroke-width="0" fill="#808080" />
    <path d="M 5670 732 l 0 706 -73 0 0 -706 73 0 0 0" stroke-width="0" fill="#B4B4B4" />
    <path d="M 5657 732 l 0 706 -50 0 0 -706 50 0 0 0" stroke-width="0" fill="#DEDEDE" />
    <path d="M 5641 732 l 0 706 -18 0 0 -706 18 0 0 0" stroke-width="0" fill="#FFFFFF" />
    <path d="M 5588 732 l 0 706" stroke="#000000" stroke-width="20" fill="none" />
    <path d="M 5679 1438 l 0 -706" stroke="#000000" stroke-width="20" fill="none" />
    <path d="M 5632 856 l -512 0 3 -48 9 -49 10 -48 16 -48 25 -41 25 -42 29 -37 35 -35 34 -31 41 -27 42 -24 44 -25 47 -17 48 -10 50 -7 54 -3 54 3 50 7 48 10 47 17 44 25 45 24 41 27 35 31 34 35 29 37 25 42 22 41 19 48 10 48 9 49 3 48 -515 0 0 0" stroke-width="0" fill="#808080" />
    <path d="M 5632 856 l -465 0 3 -48 7 -49 9 -48 19 -45 19 -44 22 -42 29 -37 28 -35 32 -31 38 -27 38 -24 38 -25 47 -17 41 -10 48 -7 47 -3 47 3 48 7 41 10 47 17 38 25 38 24 38 27 32 31 28 35 29 37 22 42 19 44 19 45 9 48 7 49 3 48 -465 0 0 0" stroke-width="0" fill="#969696" />
    <path d="M 5632 856 l -370 0 3 -48 7 -49 9 -48 9 -45 16 -44 22 -42 19 -37 26 -35 25 -31 28 -27 29 -24 35 -25 31 -17 35 -10 38 -7 38 -3 38 3 38 7 35 10 31 17 35 25 29 24 28 27 25 31 26 35 19 37 22 42 16 44 12 45 6 48 7 49 3 48 -370 0 0 0" stroke-width="0" fill="#B4B4B4" />
    <path d="M 5632 856 l -272 0 0 -48 6 -49 7 -48 9 -48 13 -41 9 -42 19 -37 16 -35 19 -31 22 -27 22 -24 22 -25 26 -17 25 -10 29 -7 28 -3 28 3 29 7 25 10 26 17 25 25 22 24 19 27 19 31 19 35 16 37 12 42 13 41 9 48 7 48 3 49 3 48 -275 0 0 0" stroke-width="0" fill="#D2D2D2" />
    <path d="M 5632 856 l -177 0 0 -48 3 -49 6 -48 7 -48 6 -41 10 -42 9 -37 10 -35 15 -31 13 -27 13 -24 15 -25 16 -17 19 -10 19 -7 16 -3 16 3 22 7 16 10 16 17 15 25 13 24 13 27 15 31 10 35 9 37 10 42 6 41 7 48 6 48 3 49 0 48 -177 0 0 0" stroke-width="0" fill="#DEDEDE" />
    <path d="M 5632 856 l -512 0 0 0 3 -48 9 -49 10 -48 16 -48 25 -41 25 -42 29 -37 35 -35 34 -31 41 -27 42 -24 44 -25 47 -17 48 -10 50 -7 54 -3 0 0 54 3 50 7 48 10 47 17 44 25 45 24 41 27 35 31 34 35 29 37 25 42 22 41 19 48 10 48 9 49 3 48 -515 0" stroke="#000000" stroke-width="20" fill="none" />
    <path d="M 5632 856 l -47 0 0 -48 0 -49 3 -48 0 -48 3 -41 3 -42 3 -37 0 -35 3 -31 7 -27 3 -24 6 -25 3 -17 4 -10 3 -7 6 -3 6 3 7 7 0 10 6 17 3 25 6 24 4 27 3 31 3 35 0 37 3 42 3 41 0 48 3 48 0 49 0 48 -47 0 0 0" stroke-width="0" fill="#FFFFFF" />
    <path d="M 5012 1740 l 0 -616 1252 616 0 -616 -1252 616 0 0" stroke-width="0" fill="#808080" />
    <path d="M 5012 1709 l 0 -550 1252 550 0 -550 -1252 550 0 0" stroke-width="0" fill="#969696" />
    <path d="M 5012 1647 l 0 -426 1252 426 0 -426 -1252 426 0 0" stroke-width="0" fill="#B4B4B4" />
    <path d="M 5012 1582 l 0 -299 1252 299 0 -299 -1252 299 0 0" stroke-width="0" fill="#D2D2D2" />
    <path d="M 5012 1537 l 0 -206 1252 206 0 -206 -1252 206 0 0" stroke-width="0" fill="#DEDEDE" />
    <path d="M 5012 1472 l 0 -79 1252 79 0 -79 -1252 79 0 0" stroke-width="0" fill="#FFFFFF" />
    <path d="M 5012 1740 l 0 -616 1252 616 0 -616 -1252 616" stroke="#000000" stroke-width="20" fill="none" />
  </g>
  <g id="TEXT1">
    <rect x="11380" y="6900" width="5400" height="880" stroke-width="0" fill="none" id="TEXT1_pbTextBoundingRectEl" />
    <text fill="#000000" font-family="Helvetica" font-size="560" text-anchor="middle" x="14080" y="7620" id="TEXT1_pbTextEl">430TI1201</text>
  </g>
  <g id="TEXT2">
    <rect x="20480" y="7200" width="5400" height="880" stroke-width="0" fill="none" id="TEXT2_pbTextBoundingRectEl" />
    <text fill="#000000" font-family="Helvetica" font-size="560" text-anchor="middle" x="23180" y="7920" id="TEXT2_pbTextEl">4301PI004</text>
  </g>
  <g name="StraightArrow2">
    <path d="M 3579 6478 l -868 -323 122 217 -1492 0 0 216 1492 0 -122 217 868 -327 0 0" stroke-width="0" fill="#FF8000" />
    <path d="M 3579 6478 l -868 -323 122 217 -1492 0 0 216 1492 0 -122 217 868 -327" stroke="#000000" stroke-width="20" fill="none" />
  </g>
  <path d="M 21550 7100 l -73 -20 -45 -20 -35 -20 -28 -20 -25 -20 -21 -20 -18 -20 -17 -20 -14 -20 -13 -20 -12 -20 -10 -20 -9 -20 -8 -20 -6 -20 -6 -20 -5 -20 -4 -20 -3 -20 -2 -20 -2 -20 0 -20 0 0 0 -20 2 -20 2 -20 3 -20 4 -20 5 -20 6 -20 6 -20 8 -20 9 -20 10 -20 12 -20 13 -20 14 -20 17 -20 18 -20 21 -20 25 -20 28 -20 35 -20 45 -20 73 -20 140 0 73 20 45 20 35 20 28 20 25 20 21 20 18 20 17 20 14 20 13 20 12 20 10 20 9 20 8 20 6 20 6 20 5 20 4 20 3 20 2 20 2 20 0 20 0 0 0 20 -2 20 -2 20 -3 20 -4 20 -5 20 -6 20 -6 20 -8 20 -9 20 -10 20 -12 20 -13 20 -14 20 -17 20 -18 20 -21 20 -25 20 -28 20 -35 20 -45 20 -73 20 -140 0" stroke="#000000" stroke-width="20" fill="none" />
  <g>
    <rect x="21200" y="6220" width="880" height="880" stroke-width="0" fill="none" />
    <text fill="#000000" font-family="Courier" font-size="560" text-anchor="middle" x="21640" y="6940">M</text>
  </g>
  <rect x="20580" y="8700" width="2120" height="1080" stroke="#000000" stroke-width="20" fill="none" id="RECTANGLE1" />
  <path id="POLYGON8" d="M 21620 8640 l 0 -1620" stroke="#000000" stroke-width="20" fill="none" />
  <path id="POLYGON9" d="M 22740 9240 l 8700 0" stroke="#000000" stroke-width="60" fill="none" />
  <g name="StraightArrow2">
    <path d="M 3579 4318 l -868 -323 122 217 -1492 0 0 216 1492 0 -122 217 868 -327 0 0" stroke-width="0" fill="#FF8000" />
    <path d="M 3579 4318 l -868 -323 122 217 -1492 0 0 216 1492 0 -122 217 868 -327" stroke="#000000" stroke-width="20" fill="none" />
  </g>
  <g name="StraightArrow2">
    <path d="M 3579 1458 l -868 -323 122 217 -1492 0 0 216 1492 0 -122 217 868 -327 0 0" stroke-width="0" fill="#FF8000" />
    <path d="M 3579 1458 l -868 -323 122 217 -1492 0 0 216 1492 0 -122 217 868 -327" stroke="#000000" stroke-width="20" fill="none" />
  </g>
  <g name="StraightArrow2">
    <path d="M 33739 9218 l -868 -323 122 217 -1492 0 0 216 1492 0 -122 217 868 -327 0 0" stroke-width="0" fill="#FF8000" />
    <path d="M 33739 9218 l -868 -323 122 217 -1492 0 0 216 1492 0 -122 217 868 -327" stroke="#000000" stroke-width="20" fill="none" />
  </g>
  <g id="TEXT4">
    <rect x="13080" y="12360" width="5400" height="880" stroke-width="0" fill="none" id="TEXT4_pbTextBoundingRectEl" />
    <text fill="#000000" font-family="Helvetica" font-size="560" text-anchor="middle" x="15780" y="13080" id="TEXT4_pbTextEl">4301T003</text>
  </g>
  <g id="TEXT5">
    <rect x="26940" y="12160" width="5400" height="880" stroke-width="0" fill="none" id="TEXT5_pbTextBoundingRectEl" />
    <text fill="#000000" font-family="Helvetica" font-size="560" text-anchor="middle" x="29640" y="12880" id="TEXT5_pbTextEl">430LI1201</text>
  </g>
  <g id="TEXT6">
    <rect x="80" y="2900" width="7400" height="880" stroke-width="0" fill="none" id="TEXT6_pbTextBoundingRectEl" />
    <text fill="#000000" font-family="Helvetica" font-size="560" text-anchor="middle" x="3780" y="3620" id="TEXT6_pbTextEl">污水自汽车装卸站</text>
  </g>
  <g id="TEXT7">
    <rect x="80" y="5140" width="8360" height="880" stroke-width="0" fill="none" id="TEXT7_pbTextBoundingRectEl" />
    <text fill="#000000" font-family="Helvetica" font-size="560" text-anchor="middle" x="4260" y="5860" id="TEXT7_pbTextEl">污水自泵区污油管道</text>
  </g>
  <g id="TEXT8">
    <rect x="27800" y="7680" width="5360" height="880" stroke-width="0" fill="none" id="TEXT8_pbTextBoundingRectEl" />
    <text fill="#000000" font-family="Helvetica" font-size="560" text-anchor="middle" x="30480" y="8400" id="TEXT8_pbTextEl">去租甲醇储罐</text>
  </g>
  <g name="Valve3d1">
    <path d="M 21741 30978 l 0 -950 -281 0 0 950 281 0 0 0" stroke-width="0" fill="#808080" />
    <path d="M 21712 30978 l 0 -950 -222 0 0 950 222 0 0 0" stroke-width="0" fill="#B4B4B4" />
    <path d="M 21673 30978 l 0 -950 -154 0 0 950 154 0 0 0" stroke-width="0" fill="#DEDEDE" />
    <path d="M 21625 30978 l 0 -950 -58 0 0 950 58 0 0 0" stroke-width="0" fill="#FFFFFF" />
    <path d="M 21460 30978 l 0 -950" stroke="#000000" stroke-width="20" fill="none" />
    <path d="M 21741 30028 l 0 950" stroke="#000000" stroke-width="20" fill="none" />
    <path d="M 21596 30811 l -1568 0 9 65 29 65 29 65 49 65 77 56 78 55 87 51 106 47 107 41 126 37 126 33 135 32 145 23 146 14 154 10 165 4 165 -4 154 -10 146 -14 145 -23 135 -32 136 -33 126 -37 106 -41 107 -47 87 -51 77 -55 68 -56 58 -65 29 -65 29 -65 10 -65 -1578 0 0 0" stroke-width="0" fill="#808080" />
    <path d="M 21596 30811 l -1423 0 10 65 19 65 29 65 58 60 58 61 68 55 87 51 87 47 97 41 116 37 116 33 116 32 146 23 126 14 145 10 145 4 145 -4 145 -10 126 -14 146 -23 116 -32 116 -33 116 -37 97 -41 87 -47 87 -51 68 -55 58 -61 58 -60 29 -65 19 -65 10 -65 -1423 0 0 0" stroke-width="0" fill="#969696" />
    <path d="M 21596 30811 l -1133 0 10 65 19 65 29 65 29 60 49 61 68 55 58 51 77 47 78 41 87 37 87 33 106 32 97 23 107 14 116 10 116 4 116 -4 116 -10 107 -14 97 -23 106 -32 87 -33 87 -37 78 -41 77 -47 58 -51 68 -55 49 -61 38 -60 20 -65 19 -65 10 -65 -1133 0 0 0" stroke-width="0" fill="#B4B4B4" />
    <path d="M 21596 30811 l -833 0 0 65 20 65 19 65 29 65 39 56 29 55 58 51 48 47 59 41 67 37 68 33 68 32 77 23 78 14 87 10 87 4 87 -4 87 -10 78 -14 77 -23 78 -32 67 -33 58 -37 59 -41 58 -47 48 -51 39 -55 38 -56 30 -65 19 -65 10 -65 9 -65 -842 0 0 0" stroke-width="0" fill="#D2D2D2" />
    <path d="M 21596 30811 l -542 0 0 65 10 65 19 65 19 65 20 56 29 55 29 51 29 47 48 41 39 37 39 33 48 32 48 23 59 14 58 10 48 4 48 -4 68 -10 49 -14 48 -23 48 -32 39 -33 39 -37 48 -41 29 -47 29 -51 29 -55 20 -56 19 -65 19 -65 10 -65 0 -65 -542 0 0 0" stroke-width="0" fill="#DEDEDE" />
    <path d="M 21596 30811 l -1568 0 0 0 9 65 29 65 29 65 49 65 77 56 78 55 87 51 106 47 107 41 126 37 126 33 135 32 145 23 146 14 154 10 165 4 0 0 165 -4 154 -10 146 -14 145 -23 135 -32 136 -33 126 -37 106 -41 107 -47 87 -51 77 -55 68 -56 58 -65 29 -65 29 -65 10 -65 -1578 0" stroke="#000000" stroke-width="20" fill="none" />
    <path d="M 21596 30811 l -145 0 0 65 0 65 9 65 0 65 10 56 10 55 10 51 0 47 9 41 20 37 9 33 20 32 9 23 10 14 10 10 19 4 19 -4 20 -10 0 -14 19 -23 10 -32 19 -33 10 -37 9 -41 10 -47 0 -51 10 -55 10 -56 0 -65 9 -65 0 -65 0 -65 -145 0 0 0" stroke-width="0" fill="#FFFFFF" />
    <path d="M 19699 29620 l 0 830 3833 -830 0 830 -3833 -830 0 0" stroke-width="0" fill="#808080" />
    <path d="M 19699 29662 l 0 741 3833 -741 0 741 -3833 -741 0 0" stroke-width="0" fill="#969696" />
    <path d="M 19699 29745 l 0 575 3833 -575 0 575 -3833 -575 0 0" stroke-width="0" fill="#B4B4B4" />
    <path d="M 19699 29833 l 0 403 3833 -403 0 403 -3833 -403 0 0" stroke-width="0" fill="#D2D2D2" />
    <path d="M 19699 29893 l 0 278 3833 -278 0 278 -3833 -278 0 0" stroke-width="0" fill="#DEDEDE" />
    <path d="M 19699 29981 l 0 107 3833 -107 0 107 -3833 -107 0 0" stroke-width="0" fill="#FFFFFF" />
    <path d="M 19699 29620 l 0 830 3833 -830 0 830 -3833 -830" stroke="#000000" stroke-width="20" fill="none" />
  </g>
  <g name="GasLongHorizontalPipe">
    <path d="M 20027 30927 l 0 -5134 3213 0 0 5134 -3213 0 0 0" stroke-width="0" fill="#666666" />
    <path d="M 20233 30927 l 0 -5134 2827 0 0 5134 -2827 0 0 0" stroke-width="0" fill="#7A7A7A" />
    <path d="M 20504 30927 l 0 -5134 2285 0 0 5134 -2285 0 0 0" stroke-width="0" fill="#969696" />
    <path d="M 20698 30927 l 0 -5134 1884 0 0 5134 -1884 0 0 0" stroke-width="0" fill="#ADADAD" />
    <path d="M 20840 30927 l 0 -5134 1613 0 0 5134 -1613 0 0 0" stroke-width="0" fill="#CCCCCC" />
    <path d="M 20969 30927 l 0 -5134 1342 0 0 5134 -1342 0 0 0" stroke-width="0" fill="#DEDEDE" />
    <path d="M 21175 30927 l 0 -5134 943 0 0 5134 -943 0 0 0" stroke-width="0" fill="#FFFFFF" />
    <path d="M 20027 30927 l 0 -5134" stroke="#000000" stroke-width="20" fill="none" />
    <path d="M 23240 30927 l 0 -5134" stroke="#000000" stroke-width="20" fill="none" />
  </g>
  <g name="VerySmoothTank4">
    <path d="M 9570 30472 l -110 0 -131 -16 -112 -8 -111 -16 -112 -24 -110 -16 -113 -32 -110 -40 -94 -40 -112 -41 -92 -47 -94 -56 -93 -56 -74 -56 -93 -64 -74 -64 -92 -72 -57 -72 -74 -81 -74 -71 -56 -88 -56 -80 -56 -88 -37 -88 -37 -88 -37 -96 -37 -96 -19 -96 -37 -96 0 -105 -19 -96 0 -103 0 -103 19 -96 0 -105 37 -96 19 -96 37 -96 37 -96 37 -88 37 -88 56 -88 56 -80 56 -88 74 -71 74 -81 57 -72 92 -72 74 -64 93 -64 74 -56 93 -56 94 -56 92 -47 112 -41 94 -40 110 -40 113 -32 111 -24 111 -24 112 -16 112 -8 129 -17 112 0 13920 1 130 0 112 17 111 8 130 15 112 25 93 24 111 32 112 40 111 40 93 39 92 48 94 56 93 57 93 56 74 64 93 64 74 72 75 72 56 79 74 73 56 88 55 79 56 89 56 88 37 88 37 96 19 95 37 97 19 96 18 104 0 95 0 104 0 104 0 96 -18 104 -19 95 -37 96 -19 96 -37 96 -37 88 -57 89 -55 88 -55 80 -56 87 -74 73 -56 79 -75 72 -75 73 -92 63 -74 64 -93 56 -93 57 -94 56 -92 48 -93 39 -111 40 -112 41 -111 31 -93 16 -112 24 -130 16 -111 8 -112 16 -130 1 -13921 0 0 0" stroke-width="0" fill="#666666" />
    <path d="M 9570 30472 l 0 0 -110 0 -131 -16 -112 -8 -111 -16 -112 -24 -110 -16 -113 -32 -110 -40 -94 -40 -112 -41 -92 -47 -94 -56 -93 -56 -74 -56 -93 -64 -74 -64 -92 -72 -57 -72 -74 -81 -74 -71 -56 -88 -56 -80 -56 -88 -37 -88 -37 -88 -37 -96 -37 -96 -19 -96 -37 -96 0 -105 -19 -96 0 -103 0 0 0 -103 19 -96 0 -105 37 -96 19 -96 37 -96 37 -96 37 -88 37 -88 56 -88 56 -80 56 -88 74 -71 74 -81 57 -72 92 -72 74 -64 93 -64 74 -56 93 -56 94 -56 92 -47 112 -41 94 -40 110 -40 113 -32 111 -24 111 -24 112 -16 112 -8 129 -17 112 0 13920 1 0 0 130 0 112 17 111 8 130 15 112 25 93 24 111 32 112 40 111 40 93 39 92 48 94 56 93 57 93 56 74 64 93 64 74 72 75 72 56 79 74 73 56 88 55 79 56 89 56 88 37 88 37 96 19 95 37 97 19 96 18 104 0 95 0 104 0 0 0 104 0 96 -18 104 -19 95 -37 96 -19 96 -37 96 -37 88 -57 89 -55 88 -55 80 -56 87 -74 73 -56 79 -75 72 -75 73 -92 63 -74 64 -93 56 -93 57 -94 56 -92 48 -93 39 -111 40 -112 41 -111 31 -93 16 -112 24 -130 16 -111 8 -112 16 -130 1 -13921 0" stroke="#000000" stroke-width="20" fill="none" />
    <path d="M 25814 28480 l -167 -687 -502 -625 -780 -392 -874 -127 -13921 -1 -873 128 -799 392 -484 624 -167 688 167 688 484 616 799 392 873 136 13921 -1 874 -136 780 -392 502 -615 167 -688 0 0" stroke-width="0" fill="#787878" />
    <path d="M 25814 28480 l -167 -623 -502 -568 -780 -360 -874 -120 -13920 -1 -874 120 -799 360 -484 568 -167 624 167 624 484 568 800 352 872 120 13920 0 874 -120 781 -353 502 -567 167 -624 0 0" stroke-width="0" fill="#7A7A7A" />
    <path d="M 25814 28480 l -167 -567 -502 -504 -780 -328 -874 -104 -13920 -1 -873 104 -800 329 -484 504 -167 567 167 560 484 511 799 320 873 104 13921 0 874 -103 780 -321 502 -512 167 -559 0 0" stroke-width="0" fill="#858585" />
    <path d="M 25814 28480 l -167 -503 -502 -448 -780 -289 -874 -95 -13920 -1 -874 96 -799 288 -484 448 -167 504 167 495 484 457 799 280 873 95 13920 1 875 -97 780 -280 502 -455 167 -496 0 0" stroke-width="0" fill="#969696" />
    <path d="M 25814 28480 l -167 -439 -502 -400 -780 -249 -874 -79 -13921 0 -873 80 -799 247 -484 401 -167 439 167 432 484 399 799 249 873 87 13921 0 874 -88 780 -248 502 -400 167 -431 0 0" stroke-width="0" fill="#A3A3A3" />
    <path d="M 25814 28480 l -167 -375 -502 -344 -780 -216 -874 -64 -13939 0 -855 63 -799 216 -502 344 -149 376 149 376 502 336 799 216 873 72 13921 -1 874 -71 780 -217 502 -335 167 -376 0 0" stroke-width="0" fill="#ADADAD" />
    <path d="M 25814 28480 l -167 -311 -502 -289 -780 -176 -875 -63 -13938 0 -855 63 -798 176 -502 288 -150 312 150 312 501 280 800 176 872 64 13921 0 873 -64 780 -176 503 -281 167 -311 0 0" stroke-width="0" fill="#B4B4B4" />
    <path d="M 25814 28480 l -167 -256 -502 -224 -780 -143 -874 -48 -13939 -1 -855 48 -799 145 -502 223 -149 256 149 248 502 224 799 144 873 48 13920 0 875 -49 780 -144 502 -224 167 -247 0 0" stroke-width="0" fill="#C2C2C2" />
    <path d="M 25814 28480 l -168 -191 -501 -168 -780 -112 -874 -32 -13939 -1 -855 32 -799 112 -502 168 -149 192 149 184 503 168 798 112 873 32 13921 0 874 -33 780 -112 502 -168 167 -183 0 0" stroke-width="0" fill="#D2D2D2" />
    <path d="M 25814 28480 l -167 -128 -502 -112 -781 -71 -873 -24 -13939 -1 -855 24 -799 72 -502 112 -149 128 149 120 502 120 800 64 872 32 13921 -1 874 -32 780 -63 502 -121 167 -119 0 0" stroke-width="0" fill="#DBDBDB" />
    <path d="M 25814 28480 l -167 -63 -483 -56 -799 -40 -874 -8 -13921 -1 -873 8 -781 40 -502 56 -167 64 167 64 502 56 781 32 873 16 13921 0 874 -17 799 -31 483 -57 167 -63 0 0" stroke-width="0" fill="#DEDEDE" />
    <path d="M 23491 30472 l 0 -3992" stroke="#000000" stroke-width="20" fill="none" />
    <path d="M 9570 30472 l 1 -3993" stroke="#000000" stroke-width="20" fill="none" />
  </g>
  <g name="GasLongHorizontalPipe">
    <path d="M 10259 26538 l 0 -716 4385 0 0 716 -4385 0 0 0" stroke-width="0" fill="#666666" />
    <path d="M 10540 26538 l 0 -716 3857 0 0 716 -3857 0 0 0" stroke-width="0" fill="#7A7A7A" />
    <path d="M 10910 26538 l 0 -716 3117 0 0 716 -3117 0 0 0" stroke-width="0" fill="#969696" />
    <path d="M 11174 26538 l 0 -716 2572 0 0 716 -2572 0 0 0" stroke-width="0" fill="#ADADAD" />
    <path d="M 11368 26538 l 0 -716 2202 0 0 716 -2202 0 0 0" stroke-width="0" fill="#CCCCCC" />
    <path d="M 11544 26538 l 0 -716 1832 0 0 716 -1832 0 0 0" stroke-width="0" fill="#DEDEDE" />
    <path d="M 11826 26538 l 0 -716 1286 0 0 716 -1286 0 0 0" stroke-width="0" fill="#FFFFFF" />
    <path d="M 10259 26538 l 0 -716" stroke="#000000" stroke-width="20" fill="none" />
    <path d="M 14644 26538 l 0 -716" stroke="#000000" stroke-width="20" fill="none" />
  </g>
  <path id="LINE9" d="M 9920 26520 l 0 -4480" stroke="#000000" stroke-width="60" fill="none" />
  <path id="LINE10" d="M 9920 22040 l -6280 0" stroke="#000000" stroke-width="60" fill="none" />
  <path id="LINE13" d="M 10980 25660 l 0 -8660" stroke="#FFFFFF" stroke-width="60" fill="none" />
  <path id="LINE14" d="M 10980 17000 l -7260 0" stroke="#FFFFFF" stroke-width="60" fill="none" />
  <g name="Valve3d1">
    <path d="M 5679 16292 l 0 706 -91 0 0 -706 91 0 0 0" stroke-width="0" fill="#808080" />
    <path d="M 5670 16292 l 0 706 -73 0 0 -706 73 0 0 0" stroke-width="0" fill="#B4B4B4" />
    <path d="M 5657 16292 l 0 706 -50 0 0 -706 50 0 0 0" stroke-width="0" fill="#DEDEDE" />
    <path d="M 5641 16292 l 0 706 -18 0 0 -706 18 0 0 0" stroke-width="0" fill="#FFFFFF" />
    <path d="M 5588 16292 l 0 706" stroke="#000000" stroke-width="20" fill="none" />
    <path d="M 5679 16998 l 0 -706" stroke="#000000" stroke-width="20" fill="none" />
    <path d="M 5632 16416 l -512 0 3 -48 9 -49 10 -48 16 -48 25 -41 25 -42 29 -37 35 -35 34 -31 41 -27 42 -24 44 -25 47 -17 48 -10 50 -7 54 -3 54 3 50 7 48 10 47 17 44 25 45 24 41 27 35 31 34 35 29 37 25 42 22 41 19 48 10 48 9 49 3 48 -515 0 0 0" stroke-width="0" fill="#808080" />
    <path d="M 5632 16416 l -465 0 3 -48 7 -49 9 -48 19 -45 19 -44 22 -42 29 -37 28 -35 32 -31 38 -27 38 -24 38 -25 47 -17 41 -10 48 -7 47 -3 47 3 48 7 41 10 47 17 38 25 38 24 38 27 32 31 28 35 29 37 22 42 19 44 19 45 9 48 7 49 3 48 -465 0 0 0" stroke-width="0" fill="#969696" />
    <path d="M 5632 16416 l -370 0 3 -48 7 -49 9 -48 9 -45 16 -44 22 -42 19 -37 26 -35 25 -31 28 -27 29 -24 35 -25 31 -17 35 -10 38 -7 38 -3 38 3 38 7 35 10 31 17 35 25 29 24 28 27 25 31 26 35 19 37 22 42 16 44 12 45 6 48 7 49 3 48 -370 0 0 0" stroke-width="0" fill="#B4B4B4" />
    <path d="M 5632 16416 l -272 0 0 -48 6 -49 7 -48 9 -48 13 -41 9 -42 19 -37 16 -35 19 -31 22 -27 22 -24 22 -25 26 -17 25 -10 29 -7 28 -3 28 3 29 7 25 10 26 17 25 25 22 24 19 27 19 31 19 35 16 37 12 42 13 41 9 48 7 48 3 49 3 48 -275 0 0 0" stroke-width="0" fill="#D2D2D2" />
    <path d="M 5632 16416 l -177 0 0 -48 3 -49 6 -48 7 -48 6 -41 10 -42 9 -37 10 -35 15 -31 13 -27 13 -24 15 -25 16 -17 19 -10 19 -7 16 -3 16 3 22 7 16 10 16 17 15 25 13 24 13 27 15 31 10 35 9 37 10 42 6 41 7 48 6 48 3 49 0 48 -177 0 0 0" stroke-width="0" fill="#DEDEDE" />
    <path d="M 5632 16416 l -512 0 0 0 3 -48 9 -49 10 -48 16 -48 25 -41 25 -42 29 -37 35 -35 34 -31 41 -27 42 -24 44 -25 47 -17 48 -10 50 -7 54 -3 0 0 54 3 50 7 48 10 47 17 44 25 45 24 41 27 35 31 34 35 29 37 25 42 22 41 19 48 10 48 9 49 3 48 -515 0" stroke="#000000" stroke-width="20" fill="none" />
    <path d="M 5632 16416 l -47 0 0 -48 0 -49 3 -48 0 -48 3 -41 3 -42 3 -37 0 -35 3 -31 7 -27 3 -24 6 -25 3 -17 4 -10 3 -7 6 -3 6 3 7 7 0 10 6 17 3 25 6 24 4 27 3 31 3 35 0 37 3 42 3 41 0 48 3 48 0 49 0 48 -47 0 0 0" stroke-width="0" fill="#FFFFFF" />
    <path d="M 5012 17300 l 0 -616 1252 616 0 -616 -1252 616 0 0" stroke-width="0" fill="#808080" />
    <path d="M 5012 17269 l 0 -550 1252 550 0 -550 -1252 550 0 0" stroke-width="0" fill="#969696" />
    <path d="M 5012 17207 l 0 -426 1252 426 0 -426 -1252 426 0 0" stroke-width="0" fill="#B4B4B4" />
    <path d="M 5012 17142 l 0 -299 1252 299 0 -299 -1252 299 0 0" stroke-width="0" fill="#D2D2D2" />
    <path d="M 5012 17097 l 0 -206 1252 206 0 -206 -1252 206 0 0" stroke-width="0" fill="#DEDEDE" />
    <path d="M 5012 17032 l 0 -79 1252 79 0 -79 -1252 79 0 0" stroke-width="0" fill="#FFFFFF" />
    <path d="M 5012 17300 l 0 -616 1252 616 0 -616 -1252 616" stroke="#000000" stroke-width="20" fill="none" />
  </g>
  <g id="TEXT9">
    <rect x="11380" y="22460" width="5400" height="880" stroke-width="0" fill="none" id="TEXT9_pbTextBoundingRectEl" />
    <text fill="#000000" font-family="Helvetica" font-size="560" text-anchor="middle" x="14080" y="23180" id="TEXT9_pbTextEl">430TI2201</text>
  </g>
  <g id="TEXT10">
    <rect x="21080" y="22960" width="5400" height="880" stroke-width="0" fill="none" id="TEXT10_pbTextBoundingRectEl" />
    <text fill="#000000" font-family="Helvetica" font-size="560" text-anchor="middle" x="23780" y="23680" id="TEXT10_pbTextEl">4302PI004</text>
  </g>
  <g name="StraightArrow2">
    <path d="M 3579 22018 l -868 -323 122 217 -1492 0 0 216 1492 0 -122 217 868 -327 0 0" stroke-width="0" fill="#FF8000" />
    <path d="M 3579 22018 l -868 -323 122 217 -1492 0 0 216 1492 0 -122 217 868 -327" stroke="#000000" stroke-width="20" fill="none" />
  </g>
  <path d="M 21550 22640 l -73 -20 -45 -20 -35 -20 -28 -20 -25 -20 -21 -20 -18 -20 -17 -20 -14 -20 -13 -20 -12 -20 -10 -20 -9 -20 -8 -20 -6 -20 -6 -20 -5 -20 -4 -20 -3 -20 -2 -20 -2 -20 0 -20 0 0 0 -20 2 -20 2 -20 3 -20 4 -20 5 -20 6 -20 6 -20 8 -20 9 -20 10 -20 12 -20 13 -20 14 -20 17 -20 18 -20 21 -20 25 -20 28 -20 35 -20 45 -20 73 -20 140 0 73 20 45 20 35 20 28 20 25 20 21 20 18 20 17 20 14 20 13 20 12 20 10 20 9 20 8 20 6 20 6 20 5 20 4 20 3 20 2 20 2 20 0 20 0 0 0 20 -2 20 -2 20 -3 20 -4 20 -5 20 -6 20 -6 20 -8 20 -9 20 -10 20 -12 20 -13 20 -14 20 -17 20 -18 20 -21 20 -25 20 -28 20 -35 20 -45 20 -73 20 -140 0" stroke="#000000" stroke-width="20" fill="none" />
  <g>
    <rect x="21200" y="21760" width="880" height="880" stroke-width="0" fill="none" />
    <text fill="#000000" font-family="Courier" font-size="560" text-anchor="middle" x="21640" y="22480">M</text>
  </g>
  <rect x="20580" y="24240" width="2120" height="1080" stroke="#000000" stroke-width="20" fill="none" id="RECTANGLE2" />
  <path id="LINE15" d="M 21620 24180 l 0 -1600" stroke="#000000" stroke-width="20" fill="none" />
  <path id="LINE16" d="M 22740 24780 l 8700 0" stroke="#000000" stroke-width="60" fill="none" />
  <g name="StraightArrow2">
    <path d="M 3579 16998 l -868 -323 122 217 -1492 0 0 216 1492 0 -122 217 868 -327 0 0" stroke-width="0" fill="#FF8000" />
    <path d="M 3579 16998 l -868 -323 122 217 -1492 0 0 216 1492 0 -122 217 868 -327" stroke="#000000" stroke-width="20" fill="none" />
  </g>
  <g name="StraightArrow2">
    <path d="M 33739 24758 l -868 -323 122 217 -1492 0 0 216 1492 0 -122 217 868 -327 0 0" stroke-width="0" fill="#FF8000" />
    <path d="M 33739 24758 l -868 -323 122 217 -1492 0 0 216 1492 0 -122 217 868 -327" stroke="#000000" stroke-width="20" fill="none" />
  </g>
  <g id="TEXT12">
    <rect x="13080" y="27920" width="5400" height="880" stroke-width="0" fill="none" id="TEXT12_pbTextBoundingRectEl" />
    <text fill="#000000" font-family="Helvetica" font-size="560" text-anchor="middle" x="15780" y="28640" id="TEXT12_pbTextEl">4302T004</text>
  </g>
  <g id="TEXT13">
    <rect x="26940" y="27720" width="5400" height="880" stroke-width="0" fill="none" id="TEXT13_pbTextBoundingRectEl" />
    <text fill="#000000" font-family="Helvetica" font-size="560" text-anchor="middle" x="29640" y="28440" id="TEXT13_pbTextEl">430LI2201</text>
  </g>
  <g id="TEXT15">
    <rect x="80" y="20680" width="8360" height="880" stroke-width="0" fill="none" id="TEXT15_pbTextBoundingRectEl" />
    <text fill="#000000" font-family="Helvetica" font-size="560" text-anchor="middle" x="4260" y="21400" id="TEXT15_pbTextEl">罐区轻污油</text>
  </g>
  <g id="TEXT16">
    <rect x="25080" y="23240" width="8080" height="1020" stroke-width="0" fill="none" id="TEXT16_pbTextBoundingRectEl" />
    <text fill="#000000" font-family="Helvetica" font-size="560" text-anchor="middle" x="29120" y="24030" id="TEXT16_pbTextEl">污油去轻污油罐</text>
  </g>
  <g name="GasLongHorizontalPipe">
    <path d="M 41825 14804 l 0 -4128 17918 0 0 4128 -17918 0 0 0" stroke-width="0" fill="#666666" />
    <path d="M 42976 14804 l 0 -4128 15759 0 0 4128 -15759 0 0 0" stroke-width="0" fill="#7A7A7A" />
    <path d="M 44488 14804 l 0 -4128 12736 0 0 4128 -12736 0 0 0" stroke-width="0" fill="#969696" />
    <path d="M 45567 14804 l 0 -4128 10506 0 0 4128 -10506 0 0 0" stroke-width="0" fill="#ADADAD" />
    <path d="M 46359 14804 l 0 -4128 8994 0 0 4128 -8994 0 0 0" stroke-width="0" fill="#CCCCCC" />
    <path d="M 47078 14804 l 0 -4128 7484 0 0 4128 -7484 0 0 0" stroke-width="0" fill="#DEDEDE" />
    <path d="M 48229 14804 l 0 -4128 5253 0 0 4128 -5253 0 0 0" stroke-width="0" fill="#FFFFFF" />
    <path d="M 41825 14804 l 0 -4128" stroke="#000000" stroke-width="20" fill="none" />
    <path d="M 59743 14804 l 0 -4128" stroke="#000000" stroke-width="20" fill="none" />
  </g>
  <g id="BARGRAPH1" PB:IsMultiState="False" PB:Lower="0" PB:Orientation="0" PB:CanonicalNumberFormat="General" PBD:PtTagName="\\RTDBB\425_LT_9201" PB:Start="0" PB:Upper="100" PB:Type="12">
    <rect x="42320" y="11060" width="840" height="3320" stroke-width="0" fill="#C0C0C0" id="BARGRAPH1_pbBarBoundingRectEl" />
    <rect x="42320" y="11060" width="840" height="3320" stroke-width="0" fill="#00FF00" id="BARGRAPH1_pbBarTagRectEl" stroke="none" PBD:Property="VAL" />
  </g>
  <g name="StraightArrow2">
    <path d="M 37199 11678 l -868 -323 122 217 -1492 0 0 216 1492 0 -122 217 868 -327 0 0" stroke-width="0" fill="#FF8000" />
    <path d="M 37199 11678 l -868 -323 122 217 -1492 0 0 216 1492 0 -122 217 868 -327" stroke="#000000" stroke-width="20" fill="none" />
  </g>
  <g name="StraightArrow2">
    <path d="M 37199 13818 l -868 -323 122 217 -1492 0 0 216 1492 0 -122 217 868 -327 0 0" stroke-width="0" fill="#FF8000" />
    <path d="M 37199 13818 l -868 -323 122 217 -1492 0 0 216 1492 0 -122 217 868 -327" stroke="#000000" stroke-width="20" fill="none" />
  </g>
  <path id="LINE17" d="M 37300 11680 l 4540 0" stroke="#000000" stroke-width="60" fill="none" />
  <path id="LINE18" d="M 41760 13820 l -4460 0" stroke="#000000" stroke-width="60" fill="none" />
  <path id="POLYGON18" d="M 44120 10560 l 0 -1700" stroke="#000000" stroke-width="20" stroke-dasharray="60,60" fill="none" />
  <path id="POLYGON19" d="M 44160 6960 l 0 -2840" stroke="#000000" stroke-width="20" stroke-dasharray="60,60" fill="none" />
  <rect x="48220" y="8580" width="2120" height="1080" stroke="#000000" stroke-width="20" fill="none" />
  <path d="M 49240 8540 l 0 -4620" stroke="#000000" stroke-width="20" stroke-dasharray="60,60" fill="none" />
  <path d="M 49170 7720 l -73 -20 -45 -20 -35 -20 -28 -20 -25 -20 -21 -20 -18 -20 -17 -20 -14 -20 -13 -20 -12 -20 -10 -20 -9 -20 -8 -20 -6 -20 -6 -20 -5 -20 -4 -20 -3 -20 -2 -20 -2 -20 0 -20 0 0 0 -20 2 -20 2 -20 3 -20 4 -20 5 -20 6 -20 6 -20 8 -20 9 -20 10 -20 12 -20 13 -20 14 -20 17 -20 18 -20 21 -20 25 -20 28 -20 35 -20 45 -20 73 -20 140 0 73 20 45 20 35 20 28 20 25 20 21 20 18 20 17 20 14 20 13 20 12 20 10 20 9 20 8 20 6 20 6 20 5 20 4 20 3 20 2 20 2 20 0 20 0 0 0 20 -2 20 -2 20 -3 20 -4 20 -5 20 -6 20 -6 20 -8 20 -9 20 -10 20 -12 20 -13 20 -14 20 -17 20 -18 20 -21 20 -25 20 -28 20 -35 20 -45 20 -73 20 -140 0" stroke="#000000" stroke-width="20" fill="none" />
  <g>
    <rect x="48820" y="6840" width="880" height="880" stroke-width="0" fill="none" />
    <text fill="#000000" font-family="Courier" font-size="560" text-anchor="middle" x="49260" y="7560">M</text>
  </g>
  <rect x="52380" y="8580" width="2120" height="1080" stroke="#000000" stroke-width="20" fill="none" />
  <path d="M 53400 8540 l 0 -4620" stroke="#000000" stroke-width="20" stroke-dasharray="60,60" fill="none" />
  <path d="M 53310 7720 l -73 -20 -45 -20 -35 -20 -28 -20 -25 -20 -21 -20 -18 -20 -17 -20 -14 -20 -13 -20 -12 -20 -10 -20 -9 -20 -8 -20 -6 -20 -6 -20 -5 -20 -4 -20 -3 -20 -2 -20 -2 -20 0 -20 0 0 0 -20 2 -20 2 -20 3 -20 4 -20 5 -20 6 -20 6 -20 8 -20 9 -20 10 -20 12 -20 13 -20 14 -20 17 -20 18 -20 21 -20 25 -20 28 -20 35 -20 45 -20 73 -20 140 0 73 20 45 20 35 20 28 20 25 20 21 20 18 20 17 20 14 20 13 20 12 20 10 20 9 20 8 20 6 20 6 20 5 20 4 20 3 20 2 20 2 20 0 20 0 0 0 20 -2 20 -2 20 -3 20 -4 20 -5 20 -6 20 -6 20 -8 20 -9 20 -10 20 -12 20 -13 20 -14 20 -17 20 -18 20 -21 20 -25 20 -28 20 -35 20 -45 20 -73 20 -140 0" stroke="#000000" stroke-width="20" fill="none" />
  <g>
    <rect x="52940" y="6840" width="880" height="880" stroke-width="0" fill="none" />
    <text fill="#000000" font-family="Courier" font-size="560" text-anchor="middle" x="53380" y="7560">M</text>
  </g>
  <path id="POLYGON23" d="M 53400 4120 l -9240 0" stroke="#000000" stroke-width="20" stroke-dasharray="60,60" fill="none" />
  <path id="POLYGON24" d="M 50440 9080 l 1360 0" stroke="#000000" stroke-width="60" fill="none" />
  <path id="POLYGON25" d="M 51740 9040 l 0 -6820" stroke="#000000" stroke-width="60" fill="none" />
  <path id="POLYGON26" d="M 51740 2220 l 9560 0" stroke="#000000" stroke-width="60" fill="none" />
  <path id="LINE26" d="M 54580 9120 l 1360 0" stroke="#000000" stroke-width="60" fill="none" />
  <path id="LINE27" d="M 55900 9080 l 0 -6820" stroke="#000000" stroke-width="60" fill="none" />
  <g name="StraightArrow2">
    <path d="M 63579 2218 l -868 -323 122 217 -1492 0 0 216 1492 0 -122 217 868 -327 0 0" stroke-width="0" fill="#FF8000" />
    <path d="M 63579 2218 l -868 -323 122 217 -1492 0 0 216 1492 0 -122 217 868 -327" stroke="#000000" stroke-width="20" fill="none" />
  </g>
  <g id="TEXT19">
    <rect x="47320" y="12300" width="7000" height="880" stroke-width="0" fill="none" id="TEXT19_pbTextBoundingRectEl" />
    <text fill="#000000" font-family="Helvetica" font-size="560" text-anchor="middle" x="50820" y="13020" id="TEXT19_pbTextEl">含油污水提升池</text>
  </g>
  <g id="TEXT20">
    <rect x="41420" y="6880" width="5400" height="880" stroke-width="0" fill="none" id="TEXT20_pbTextBoundingRectEl" />
    <text fill="#000000" font-family="Helvetica" font-size="560" text-anchor="middle" x="44120" y="7600" id="TEXT20_pbTextEl">425LISA9201</text>
  </g>
  <g id="TEXT21">
    <rect x="46580" y="9560" width="5400" height="880" stroke-width="0" fill="none" id="TEXT21_pbTextBoundingRectEl" />
    <text fill="#000000" font-family="Helvetica" font-size="560" text-anchor="middle" x="49280" y="10280" id="TEXT21_pbTextEl">452P002A</text>
  </g>
  <g id="TEXT22">
    <rect x="50740" y="9560" width="5400" height="880" stroke-width="0" fill="none" id="TEXT22_pbTextBoundingRectEl" />
    <text fill="#000000" font-family="Helvetica" font-size="560" text-anchor="middle" x="53440" y="10280" id="TEXT22_pbTextEl">452P002B</text>
  </g>
  <g name="GasLongHorizontalPipe">
    <path d="M 41825 31464 l 0 -4128 17918 0 0 4128 -17918 0 0 0" stroke-width="0" fill="#666666" />
    <path d="M 42976 31464 l 0 -4128 15759 0 0 4128 -15759 0 0 0" stroke-width="0" fill="#7A7A7A" />
    <path d="M 44488 31464 l 0 -4128 12736 0 0 4128 -12736 0 0 0" stroke-width="0" fill="#969696" />
    <path d="M 45567 31464 l 0 -4128 10506 0 0 4128 -10506 0 0 0" stroke-width="0" fill="#ADADAD" />
    <path d="M 46359 31464 l 0 -4128 8994 0 0 4128 -8994 0 0 0" stroke-width="0" fill="#CCCCCC" />
    <path d="M 47078 31464 l 0 -4128 7484 0 0 4128 -7484 0 0 0" stroke-width="0" fill="#DEDEDE" />
    <path d="M 48229 31464 l 0 -4128 5253 0 0 4128 -5253 0 0 0" stroke-width="0" fill="#FFFFFF" />
    <path d="M 41825 31464 l 0 -4128" stroke="#000000" stroke-width="20" fill="none" />
    <path d="M 59743 31464 l 0 -4128" stroke="#000000" stroke-width="20" fill="none" />
  </g>
  <g id="BARGRAPH2" PB:IsMultiState="False" PB:Lower="0" PB:Orientation="0" PB:CanonicalNumberFormat="General" PBD:PtTagName="\\RTDBB\425_LT_9101" PB:Start="0" PB:Upper="100" PB:Type="12">
    <rect x="42320" y="27740" width="840" height="3320" stroke-width="0" fill="#C0C0C0" id="BARGRAPH2_pbBarBoundingRectEl" />
    <rect x="42320" y="27740" width="840" height="3320" stroke-width="0" fill="#00FF00" id="BARGRAPH2_pbBarTagRectEl" stroke="none" PBD:Property="VAL" />
  </g>
  <g name="StraightArrow2">
    <path d="M 37199 28318 l -868 -323 122 217 -1492 0 0 216 1492 0 -122 217 868 -327 0 0" stroke-width="0" fill="#FF8000" />
    <path d="M 37199 28318 l -868 -323 122 217 -1492 0 0 216 1492 0 -122 217 868 -327" stroke="#000000" stroke-width="20" fill="none" />
  </g>
  <g name="StraightArrow2">
    <path d="M 34961 30498 l 868 -323 -122 217 1492 0 0 216 -1492 0 122 217 -868 -327 0 0" stroke-width="0" fill="#FF8000" />
    <path d="M 34961 30498 l 868 -323 -122 217 1492 0 0 216 -1492 0 122 217 -868 -327" stroke="#000000" stroke-width="20" fill="none" />
  </g>
  <path id="LINE28" d="M 37300 28320 l 4540 0" stroke="#000000" stroke-width="60" fill="none" />
  <path id="LINE29" d="M 39540 30500 l -2240 0" stroke="#000000" stroke-width="60" fill="none" />
  <path id="LINE30" d="M 46480 27220 l 0 -1720" stroke="#000000" stroke-width="20" stroke-dasharray="60,60" fill="none" />
  <path id="LINE31" d="M 46520 23620 l 0 -2840" stroke="#000000" stroke-width="20" stroke-dasharray="60,60" fill="none" />
  <rect x="48220" y="25260" width="2120" height="1080" stroke="#000000" stroke-width="20" fill="none" />
  <path d="M 49240 25220 l 0 -4640" stroke="#000000" stroke-width="20" stroke-dasharray="60,60" fill="none" />
  <path d="M 49170 24380 l -73 -20 -45 -20 -35 -20 -28 -20 -25 -20 -21 -20 -18 -20 -17 -20 -14 -20 -13 -20 -12 -20 -10 -20 -9 -20 -8 -20 -6 -20 -6 -20 -5 -20 -4 -20 -3 -20 -2 -20 -2 -20 0 -20 0 0 0 -20 2 -20 2 -20 3 -20 4 -20 5 -20 6 -20 6 -20 8 -20 9 -20 10 -20 12 -20 13 -20 14 -20 17 -20 18 -20 21 -20 25 -20 28 -20 35 -20 45 -20 73 -20 140 0 73 20 45 20 35 20 28 20 25 20 21 20 18 20 17 20 14 20 13 20 12 20 10 20 9 20 8 20 6 20 6 20 5 20 4 20 3 20 2 20 2 20 0 20 0 0 0 20 -2 20 -2 20 -3 20 -4 20 -5 20 -6 20 -6 20 -8 20 -9 20 -10 20 -12 20 -13 20 -14 20 -17 20 -18 20 -21 20 -25 20 -28 20 -35 20 -45 20 -73 20 -140 0" stroke="#000000" stroke-width="20" fill="none" />
  <g>
    <rect x="48820" y="23500" width="880" height="880" stroke-width="0" fill="none" />
    <text fill="#000000" font-family="Courier" font-size="560" text-anchor="middle" x="49260" y="24220">M</text>
  </g>
  <rect x="52380" y="25260" width="2120" height="1080" stroke="#000000" stroke-width="20" fill="none" />
  <path d="M 53400 25220 l 0 -4640" stroke="#000000" stroke-width="20" stroke-dasharray="60,60" fill="none" />
  <path d="M 53310 24380 l -73 -20 -45 -20 -35 -20 -28 -20 -25 -20 -21 -20 -18 -20 -17 -20 -14 -20 -13 -20 -12 -20 -10 -20 -9 -20 -8 -20 -6 -20 -6 -20 -5 -20 -4 -20 -3 -20 -2 -20 -2 -20 0 -20 0 0 0 -20 2 -20 2 -20 3 -20 4 -20 5 -20 6 -20 6 -20 8 -20 9 -20 10 -20 12 -20 13 -20 14 -20 17 -20 18 -20 21 -20 25 -20 28 -20 35 -20 45 -20 73 -20 140 0 73 20 45 20 35 20 28 20 25 20 21 20 18 20 17 20 14 20 13 20 12 20 10 20 9 20 8 20 6 20 6 20 5 20 4 20 3 20 2 20 2 20 0 20 0 0 0 20 -2 20 -2 20 -3 20 -4 20 -5 20 -6 20 -6 20 -8 20 -9 20 -10 20 -12 20 -13 20 -14 20 -17 20 -18 20 -21 20 -25 20 -28 20 -35 20 -45 20 -73 20 -140 0" stroke="#000000" stroke-width="20" fill="none" />
  <g>
    <rect x="52940" y="23500" width="880" height="880" stroke-width="0" fill="none" />
    <text fill="#000000" font-family="Courier" font-size="560" text-anchor="middle" x="53380" y="24220">M</text>
  </g>
  <path id="LINE34" d="M 53400 20780 l -10840 0" stroke="#000000" stroke-width="20" stroke-dasharray="60,60" fill="none" />
  <path id="LINE35" d="M 50440 25740 l 1360 0" stroke="#000000" stroke-width="60" fill="none" />
  <path id="LINE36" d="M 51740 25700 l 0 -6820" stroke="#000000" stroke-width="60" fill="none" />
  <path id="LINE37" d="M 51740 18880 l 9560 0" stroke="#000000" stroke-width="60" fill="none" />
  <path id="LINE38" d="M 54580 25800 l 1360 0" stroke="#000000" stroke-width="60" fill="none" />
  <path id="LINE39" d="M 55900 25740 l 0 -6820" stroke="#000000" stroke-width="60" fill="none" />
  <g name="StraightArrow2">
    <path d="M 63579 18878 l -868 -323 122 217 -1492 0 0 216 1492 0 -122 217 868 -327 0 0" stroke-width="0" fill="#FF8000" />
    <path d="M 63579 18878 l -868 -323 122 217 -1492 0 0 216 1492 0 -122 217 868 -327" stroke="#000000" stroke-width="20" fill="none" />
  </g>
  <g id="TEXT25">
    <rect x="47320" y="28960" width="7000" height="880" stroke-width="0" fill="none" id="TEXT25_pbTextBoundingRectEl" />
    <text fill="#000000" font-family="Helvetica" font-size="560" text-anchor="middle" x="50820" y="29680" id="TEXT25_pbTextEl">酸碱中和池</text>
  </g>
  <g id="TEXT26">
    <rect x="43560" y="23540" width="5400" height="880" stroke-width="0" fill="none" id="TEXT26_pbTextBoundingRectEl" />
    <text fill="#000000" font-family="Helvetica" font-size="560" text-anchor="middle" x="46260" y="24260" id="TEXT26_pbTextEl">425LISA9101</text>
  </g>
  <g id="TEXT27">
    <rect x="46580" y="26240" width="5400" height="880" stroke-width="0" fill="none" id="TEXT27_pbTextBoundingRectEl" />
    <text fill="#000000" font-family="Helvetica" font-size="560" text-anchor="middle" x="49280" y="26960" id="TEXT27_pbTextEl">452P001A</text>
  </g>
  <g id="TEXT28">
    <rect x="50740" y="26240" width="5400" height="880" stroke-width="0" fill="none" id="TEXT28_pbTextBoundingRectEl" />
    <text fill="#000000" font-family="Helvetica" font-size="560" text-anchor="middle" x="53440" y="26960" id="TEXT28_pbTextEl">452P001B</text>
  </g>
  <path id="LINE40" d="M 39540 30500 l 0 -2140" stroke="#000000" stroke-width="60" fill="none" />
  <g id="TEXT29">
    <rect x="54480" y="600" width="8880" height="880" stroke-width="0" fill="none" id="TEXT29_pbTextBoundingRectEl" />
    <text fill="#000000" font-family="Helvetica" font-size="560" text-anchor="middle" x="58920" y="1320" id="TEXT29_pbTextEl">进全厂污水生产系统</text>
  </g>
  <g id="TEXT30">
    <rect x="55220" y="17780" width="8560" height="880" stroke-width="0" fill="none" id="TEXT30_pbTextBoundingRectEl" />
    <text fill="#000000" font-family="Helvetica" font-size="560" text-anchor="middle" x="59500" y="18500" id="TEXT30_pbTextEl">进全厂含盐污水系统</text>
  </g>
  <path id="LINE41" d="M 42480 23640 l 0 -2840" stroke="#000000" stroke-width="20" stroke-dasharray="60,60" fill="none" />
  <g id="TEXT31">
    <rect x="38440" y="23580" width="5400" height="880" stroke-width="0" fill="none" id="TEXT31_pbTextBoundingRectEl" />
    <text fill="#000000" font-family="Helvetica" font-size="560" text-anchor="middle" x="41140" y="24300" id="TEXT31_pbTextEl">425AIS9101</text>
  </g>
  <path id="LINE42" d="M 42440 27240 l 0 -1720" stroke="#000000" stroke-width="20" stroke-dasharray="60,60" fill="none" />
  <g name="a3DRotaryActuated">
    <path d="M 38396 29956 l -84 -8 -78 -26 -74 -42 -61 -51 -53 -66 -35 -74 -23 -82 -10 -87 10 -87 23 -81 35 -76 53 -64 61 -55 74 -38 78 -23 84 -11 84 11 80 23 71 38 64 55 49 64 41 76 22 81 11 87 -11 87 -22 82 -41 74 -49 66 -64 51 -71 42 -80 26 -84 8 0 0" stroke-width="0" fill="#808080" />
    <path d="M 38396 29918 l -76 -8 -74 -24 -65 -36 -57 -51 -47 -55 -37 -67 -21 -77 -8 -80 8 -79 21 -76 37 -68 47 -59 57 -49 65 -38 74 -21 76 -11 78 11 73 21 66 38 53 49 51 59 33 68 23 76 8 79 -8 80 -23 77 -33 67 -51 55 -53 51 -66 36 -73 24 -78 8 0 0" stroke-width="0" fill="#969696" />
    <path d="M 38396 29857 l -68 -7 -59 -19 -57 -32 -47 -40 -41 -51 -31 -57 -19 -63 -6 -68 6 -70 19 -64 31 -57 41 -51 47 -40 57 -32 59 -19 68 -6 70 6 59 19 57 32 49 40 39 51 31 57 18 64 7 70 -7 68 -18 63 -31 57 -39 51 -49 40 -57 32 -59 19 -70 7 0 0" stroke-width="0" fill="#B4B4B4" />
    <path d="M 38396 29770 l -49 -7 -45 -12 -39 -24 -39 -31 -31 -36 -20 -43 -13 -44 -6 -53 6 -51 13 -47 20 -42 31 -38 39 -32 39 -21 45 -13 49 -6 51 6 41 13 43 21 39 32 27 38 24 42 12 47 7 51 -7 53 -12 44 -24 43 -27 36 -39 31 -43 24 -41 12 -51 7 0 0" stroke-width="0" fill="#CCCCCC" />
    <path d="M 38396 29696 l -33 -5 -35 -8 -26 -17 -27 -21 -18 -26 -21 -31 -8 -32 -4 -36 4 -34 8 -36 21 -28 18 -29 27 -19 26 -20 35 -8 33 -4 35 4 35 8 26 20 27 19 18 29 21 28 8 36 4 34 -4 36 -8 32 -21 31 -18 26 -27 21 -26 17 -35 8 -35 5 0 0" stroke-width="0" fill="#DEDEDE" />
    <path d="M 38396 29956 l 0 0 -84 -8 -78 -26 -74 -42 -61 -51 -53 -66 -35 -74 -23 -82 -10 -87 0 0 10 -87 23 -81 35 -76 53 -64 61 -55 74 -38 78 -23 84 -11 0 0 84 11 80 23 71 38 64 55 49 64 41 76 22 81 11 87 0 0 -11 87 -22 82 -41 74 -49 66 -64 51 -71 42 -80 26 -84 8" stroke="#000000" stroke-width="20" fill="none" />
    <path d="M 38396 29621 l -21 -2 -18 -2 -16 -10 -15 -13 -12 -15 -8 -17 -6 -19 -4 -23 4 -21 6 -20 8 -16 12 -15 15 -13 16 -9 18 -6 21 -4 22 4 19 6 16 9 15 13 12 15 8 16 6 20 4 21 -4 23 -6 19 -8 17 -12 15 -15 13 -16 10 -19 2 -22 2 0 0" stroke-width="0" fill="#FFFFFF" />
    <path d="M 38455 29956 l 0 509 -102 0 0 -509 102 0 0 0" stroke-width="0" fill="#808080" />
    <path d="M 38447 29956 l 0 509 -84 0 0 -509 84 0 0 0" stroke-width="0" fill="#B4B4B4" />
    <path d="M 38435 29956 l 0 509 -60 0 0 -509 60 0 0 0" stroke-width="0" fill="#DEDEDE" />
    <path d="M 38412 29956 l 0 509 -18 0 0 -509 18 0 0 0" stroke-width="0" fill="#FFFFFF" />
    <path d="M 38353 29956 l 0 509" stroke="#000000" stroke-width="20" fill="none" />
    <path d="M 38455 30465 l 0 -509" stroke="#000000" stroke-width="20" fill="none" />
    <path d="M 37978 30675 l 0 -435 848 435 0 -435 -848 435 0 0" stroke-width="0" fill="#808080" />
    <path d="M 37978 30654 l 0 -393 848 393 0 -393 -848 393 0 0" stroke-width="0" fill="#969696" />
    <path d="M 37978 30609 l 0 -303 848 303 0 -303 -848 303 0 0" stroke-width="0" fill="#B4B4B4" />
    <path d="M 37978 30565 l 0 -215 848 215 0 -215 -848 215 0 0" stroke-width="0" fill="#CCCCCC" />
    <path d="M 37978 30528 l 0 -142 848 142 0 -142 -848 142 0 0" stroke-width="0" fill="#DEDEDE" />
    <path d="M 37978 30484 l 0 -53 848 53 0 -53 -848 53 0 0" stroke-width="0" fill="#FFFFFF" />
    <path d="M 37978 30675 l 0 -435 848 435 0 -435 -848 435" stroke="#000000" stroke-width="20" fill="none" />
    <path d="M 38246 29721 l 0 -477 154 477 154 -477 0 477" stroke="#000000" stroke-width="20" fill="none" />
  </g>
  <g id="TEXT32">
    <rect x="35400" y="30820" width="5400" height="880" stroke-width="0" fill="none" id="TEXT32_pbTextBoundingRectEl" />
    <text fill="#000000" font-family="Helvetica" font-size="560" text-anchor="middle" x="38100" y="31540" id="TEXT32_pbTextEl">MV9101B</text>
  </g>
  <g name="a3DRotaryActuated">
    <path d="M 40836 27856 l -84 -8 -78 -26 -74 -42 -61 -51 -53 -66 -35 -74 -23 -82 -10 -87 10 -87 23 -81 35 -76 53 -64 61 -55 74 -38 78 -23 84 -11 84 11 80 23 71 38 64 55 49 64 41 76 22 81 11 87 -11 87 -22 82 -41 74 -49 66 -64 51 -71 42 -80 26 -84 8 0 0" stroke-width="0" fill="#808080" />
    <path d="M 40836 27818 l -76 -8 -74 -24 -65 -36 -57 -51 -47 -55 -37 -67 -21 -77 -8 -80 8 -79 21 -76 37 -68 47 -59 57 -49 65 -38 74 -21 76 -11 78 11 73 21 66 38 53 49 51 59 33 68 23 76 8 79 -8 80 -23 77 -33 67 -51 55 -53 51 -66 36 -73 24 -78 8 0 0" stroke-width="0" fill="#969696" />
    <path d="M 40836 27757 l -68 -7 -59 -19 -57 -32 -47 -40 -41 -51 -31 -57 -19 -63 -6 -68 6 -70 19 -64 31 -57 41 -51 47 -40 57 -32 59 -19 68 -6 70 6 59 19 57 32 49 40 39 51 31 57 18 64 7 70 -7 68 -18 63 -31 57 -39 51 -49 40 -57 32 -59 19 -70 7 0 0" stroke-width="0" fill="#B4B4B4" />
    <path d="M 40836 27670 l -49 -7 -45 -12 -39 -24 -39 -31 -31 -36 -20 -43 -13 -44 -6 -53 6 -51 13 -47 20 -42 31 -38 39 -32 39 -21 45 -13 49 -6 51 6 41 13 43 21 39 32 27 38 24 42 12 47 7 51 -7 53 -12 44 -24 43 -27 36 -39 31 -43 24 -41 12 -51 7 0 0" stroke-width="0" fill="#CCCCCC" />
    <path d="M 40836 27596 l -33 -5 -35 -8 -26 -17 -27 -21 -18 -26 -21 -31 -8 -32 -4 -36 4 -34 8 -36 21 -28 18 -29 27 -19 26 -20 35 -8 33 -4 35 4 35 8 26 20 27 19 18 29 21 28 8 36 4 34 -4 36 -8 32 -21 31 -18 26 -27 21 -26 17 -35 8 -35 5 0 0" stroke-width="0" fill="#DEDEDE" />
    <path d="M 40836 27856 l 0 0 -84 -8 -78 -26 -74 -42 -61 -51 -53 -66 -35 -74 -23 -82 -10 -87 0 0 10 -87 23 -81 35 -76 53 -64 61 -55 74 -38 78 -23 84 -11 0 0 84 11 80 23 71 38 64 55 49 64 41 76 22 81 11 87 0 0 -11 87 -22 82 -41 74 -49 66 -64 51 -71 42 -80 26 -84 8" stroke="#000000" stroke-width="20" fill="none" />
    <path d="M 40836 27521 l -21 -2 -18 -2 -16 -10 -15 -13 -12 -15 -8 -17 -6 -19 -4 -23 4 -21 6 -20 8 -16 12 -15 15 -13 16 -9 18 -6 21 -4 22 4 19 6 16 9 15 13 12 15 8 16 6 20 4 21 -4 23 -6 19 -8 17 -12 15 -15 13 -16 10 -19 2 -22 2 0 0" stroke-width="0" fill="#FFFFFF" />
    <path d="M 40895 27856 l 0 509 -102 0 0 -509 102 0 0 0" stroke-width="0" fill="#808080" />
    <path d="M 40887 27856 l 0 509 -84 0 0 -509 84 0 0 0" stroke-width="0" fill="#B4B4B4" />
    <path d="M 40875 27856 l 0 509 -60 0 0 -509 60 0 0 0" stroke-width="0" fill="#DEDEDE" />
    <path d="M 40852 27856 l 0 509 -18 0 0 -509 18 0 0 0" stroke-width="0" fill="#FFFFFF" />
    <path d="M 40793 27856 l 0 509" stroke="#000000" stroke-width="20" fill="none" />
    <path d="M 40895 28365 l 0 -509" stroke="#000000" stroke-width="20" fill="none" />
    <path d="M 40418 28575 l 0 -435 848 435 0 -435 -848 435 0 0" stroke-width="0" fill="#808080" />
    <path d="M 40418 28554 l 0 -393 848 393 0 -393 -848 393 0 0" stroke-width="0" fill="#969696" />
    <path d="M 40418 28509 l 0 -303 848 303 0 -303 -848 303 0 0" stroke-width="0" fill="#B4B4B4" />
    <path d="M 40418 28465 l 0 -215 848 215 0 -215 -848 215 0 0" stroke-width="0" fill="#CCCCCC" />
    <path d="M 40418 28428 l 0 -142 848 142 0 -142 -848 142 0 0" stroke-width="0" fill="#DEDEDE" />
    <path d="M 40418 28384 l 0 -53 848 53 0 -53 -848 53 0 0" stroke-width="0" fill="#FFFFFF" />
    <path d="M 40418 28575 l 0 -435 848 435 0 -435 -848 435" stroke="#000000" stroke-width="20" fill="none" />
    <path d="M 40686 27621 l 0 -477 154 477 154 -477 0 477" stroke="#000000" stroke-width="20" fill="none" />
  </g>
  <g id="TEXT33">
    <rect x="37940" y="25900" width="5400" height="880" stroke-width="0" fill="none" id="TEXT33_pbTextBoundingRectEl" />
    <text fill="#000000" font-family="Helvetica" font-size="560" text-anchor="middle" x="40640" y="26620" id="TEXT33_pbTextEl">MV9101B</text>
  </g>
  <g id="TEXT34">
    <rect x="31540" y="26980" width="8880" height="880" stroke-width="0" fill="none" id="TEXT34_pbTextBoundingRectEl" />
    <text fill="#000000" font-family="Helvetica" font-size="560" text-anchor="middle" x="35980" y="27700" id="TEXT34_pbTextEl">自液碱罐区生产污水</text>
  </g>
  <g id="TEXT35">
    <rect x="29620" y="29240" width="8880" height="880" stroke-width="0" fill="none" id="TEXT35_pbTextBoundingRectEl" />
    <text fill="#000000" font-family="Helvetica" font-size="560" text-anchor="middle" x="34060" y="29960" id="TEXT35_pbTextEl">至含油污水收集池</text>
  </g>
  <g id="TEXT36">
    <rect x="26540" y="320" width="6440" height="1400" stroke-width="0" fill="none" id="TEXT36_pbTextBoundingRectEl" />
    <text fill="#000000" font-family="Courier" font-size="800" text-anchor="middle" x="29760" y="1420" id="TEXT36_pbTextEl">地下储罐</text>
  </g>
  <g id="DATAPOINT150" PB:IsMultiState="False" PBD:PtTagName="\\RTDBB\430_TT_1201" PB:Type="7" PB:NumberFormat="0.00">
    <rect x="12860" y="8040" width="2580" height="520" stroke-width="0" fill="none" id="DATAPOINT150_pbTextBoundingRectEl" />
    <text fill="#000000" font-family="Helvetica" font-size="560" text-anchor="middle" x="14150" y="8580" id="DATAPOINT150_pbTextEl" PBD:Property="VAL">#.##</text>
  </g>
  <g id="DATAPOINT151" PB:IsMultiState="False" PBD:PtTagName="\\RTDBB\430_LT_1201" PB:Type="7" PB:NumberFormat="0.00">
    <rect x="28640" y="13280" width="2160" height="520" stroke-width="0" fill="none" id="DATAPOINT151_pbTextBoundingRectEl" />
    <text fill="#000000" font-family="Helvetica" font-size="560" text-anchor="middle" x="29720" y="13820" id="DATAPOINT151_pbTextEl" PBD:Property="VAL">#.##</text>
  </g>
  <g id="DATAPOINT152" PB:IsMultiState="False" PBD:PtTagName="\\RTDBB\430_TT_2201" PB:Type="7" PB:NumberFormat="0.00">
    <rect x="12760" y="23240" width="2440" height="520" stroke-width="0" fill="none" id="DATAPOINT152_pbTextBoundingRectEl" />
    <text fill="#000000" font-family="Helvetica" font-size="560" text-anchor="middle" x="13980" y="23780" id="DATAPOINT152_pbTextEl" PBD:Property="VAL">#.##</text>
  </g>
  <g id="DATAPOINT153" PB:IsMultiState="False" PBD:PtTagName="\\RTDBB\430_LT_2201" PB:Type="7" PB:NumberFormat="0.00">
    <rect x="28460" y="28600" width="2340" height="520" stroke-width="0" fill="none" id="DATAPOINT153_pbTextBoundingRectEl" />
    <text fill="#000000" font-family="Helvetica" font-size="560" text-anchor="middle" x="29630" y="29140" id="DATAPOINT153_pbTextEl" PBD:Property="VAL">#.##</text>
  </g>
  <g id="DATAPOINT154" PB:IsMultiState="False" PBD:PtTagName="\\RTDBB\430_EI_2202" PB:Type="7" PB:NumberFormat="0.00">
    <rect x="26960" y="20620" width="2400" height="520" stroke-width="0" fill="none" id="DATAPOINT154_pbTextBoundingRectEl" />
    <text fill="#000000" font-family="Helvetica" font-size="560" text-anchor="middle" x="28160" y="21160" id="DATAPOINT154_pbTextEl" PBD:Property="VAL">#.##</text>
  </g>
  <g id="TEXT621">
    <rect x="15560" y="3800" width="5400" height="880" stroke-width="0" fill="none" id="TEXT621_pbTextBoundingRectEl" />
    <text fill="#000000" font-family="Helvetica" font-size="560" text-anchor="middle" x="18260" y="4520" id="TEXT621_pbTextEl">430PT1208</text>
  </g>
  <g id="DATAPOINT156" PB:IsMultiState="False" PBD:PtTagName="\\RTDBB\430_PT_1208" PB:Type="7" PB:NumberFormat="0.00">
    <rect x="17140" y="4900" width="2020" height="520" stroke-width="0" fill="none" id="DATAPOINT156_pbTextBoundingRectEl" />
    <text fill="#000000" font-family="Helvetica" font-size="560" text-anchor="middle" x="18150" y="5440" id="DATAPOINT156_pbTextEl" PBD:Property="VAL">#.##</text>
  </g>
  <g id="TEXT623">
    <rect x="15800" y="19860" width="5400" height="880" stroke-width="0" fill="none" id="TEXT623_pbTextBoundingRectEl" />
    <text fill="#000000" font-family="Helvetica" font-size="560" text-anchor="middle" x="18500" y="20580" id="TEXT623_pbTextEl">430PT2203</text>
  </g>
  <g id="DATAPOINT157" PB:IsMultiState="False" PBD:PtTagName="\\RTDBB\430_PT_2203" PB:Type="7" PB:NumberFormat="0.00">
    <rect x="17260" y="20700" width="2160" height="520" stroke-width="0" fill="none" id="DATAPOINT157_pbTextBoundingRectEl" />
    <text fill="#000000" font-family="Helvetica" font-size="560" text-anchor="middle" x="18340" y="21240" id="DATAPOINT157_pbTextEl" PBD:Property="VAL">#.##</text>
  </g>
  <g id="TEXT625">
    <rect x="25520" y="19820" width="5400" height="880" stroke-width="0" fill="none" id="TEXT625_pbTextBoundingRectEl" />
    <text fill="#000000" font-family="Helvetica" font-size="560" text-anchor="middle" x="28220" y="20540" id="TEXT625_pbTextEl">430EI12202</text>
  </g>
  <g id="DATAPOINT2" PB:IsMultiState="False" PBD:PtTagName="\\RTDBB\425_LT_9101" PB:Type="7" PB:NumberFormat="0.00">
    <rect x="44980" y="24320" width="2340" height="520" stroke-width="0" fill="none" id="DATAPOINT2_pbTextBoundingRectEl" />
    <text fill="#000000" font-family="Helvetica" font-size="560" text-anchor="middle" x="46150" y="24860" id="DATAPOINT2_pbTextEl" PBD:Property="VAL">#.##</text>
  </g>
  <g id="DATAPOINT3" PB:IsMultiState="False" PBD:PtTagName="\\RTDBB\425_AT_9101" PB:Type="7" PB:NumberFormat="0.00">
    <rect x="39780" y="24400" width="2340" height="520" stroke-width="0" fill="none" id="DATAPOINT3_pbTextBoundingRectEl" />
    <text fill="#000000" font-family="Helvetica" font-size="560" text-anchor="middle" x="40950" y="24940" id="DATAPOINT3_pbTextEl" PBD:Property="VAL">#.##</text>
  </g>
  <g id="DATAPOINT4" PB:IsMultiState="False" PBD:PtTagName="\\RTDBB\425_LT_9201" PB:Type="7" PB:NumberFormat="0.00">
    <rect x="42840" y="7720" width="2340" height="520" stroke-width="0" fill="none" id="DATAPOINT4_pbTextBoundingRectEl" />
    <text fill="#000000" font-family="Helvetica" font-size="560" text-anchor="middle" x="44010" y="8260" id="DATAPOINT4_pbTextEl" PBD:Property="VAL">#.##</text>
  </g>
  <g id="TEXT1065">
    <rect x="24180" y="5540" width="5400" height="880" stroke-width="0" fill="none" id="TEXT1065_pbTextBoundingRectEl" />
    <text fill="#000000" font-family="Helvetica" font-size="560" text-anchor="middle" x="26880" y="6260" id="TEXT1065_pbTextEl">430EI12202</text>
  </g>
  <g id="DATAPOINT5" PB:IsMultiState="False" PBD:PtTagName="\\RTDBB\430_EI_1202" PB:Type="7" PB:NumberFormat="0.00">
    <rect x="25400" y="6460" width="2120" height="520" stroke-width="0" fill="none" id="DATAPOINT5_pbTextBoundingRectEl" />
    <text fill="#000000" font-family="Helvetica" font-size="560" text-anchor="middle" x="26460" y="7000" id="DATAPOINT5_pbTextEl" PBD:Property="VAL">#.##</text>
  </g>
</svg>