<?xml version="1.0" encoding="UTF-8"?>
<svg height="100%" width="100%" viewBox="0 0 60000 30000" version="1.1" xmlns="http://www.w3.org/2000/svg" xmlns:xlink="http://www.w3.org/1999/xlink" xmlns:PB="urn:osisoft-com-pb" xmlns:PBI="urn:osisoft-com-interface" xmlns:PBD="urn:osisoft-com-data" style="background-color:#C0C0C0">
  <title>gyddfmylb1h2</title>
  <defs />
  <g id="TEXT205">
    <rect x="22000" y="0" width="16000" height="2000" stroke-width="0" fill="none" id="TEXT205_pbTextBoundingRectEl" />
    <text fill="#000000" font-family="Courier" font-size="800" font-weight="bold" text-anchor="middle" x="30000" y="1400" id="TEXT205_pbTextEl">#1公用电动阀门一览表2</text>
  </g>
  <rect x="4000" y="5200" width="13000" height="20800" stroke="#804000" stroke-width="20" fill="none" />
  <path d="M 4000 24400 l 13000 0" stroke="#804000" stroke-width="20" fill="none" />
  <path d="M 4000 22800 l 13000 0" stroke="#804000" stroke-width="20" fill="none" />
  <path d="M 4000 21200 l 13000 0" stroke="#804000" stroke-width="20" fill="none" />
  <path d="M 4000 19600 l 13000 0" stroke="#804000" stroke-width="20" fill="none" />
  <path d="M 4000 18000 l 13000 0" stroke="#804000" stroke-width="20" fill="none" />
  <path d="M 4000 16400 l 13000 0" stroke="#804000" stroke-width="20" fill="none" />
  <path d="M 4000 14800 l 13000 0" stroke="#804000" stroke-width="20" fill="none" />
  <path d="M 4000 13200 l 13000 0" stroke="#804000" stroke-width="20" fill="none" />
  <path d="M 4000 11600 l 13000 0" stroke="#804000" stroke-width="20" fill="none" />
  <path d="M 4000 10000 l 13000 0" stroke="#804000" stroke-width="20" fill="none" />
  <path d="M 4000 8400 l 13000 0" stroke="#804000" stroke-width="20" fill="none" />
  <path d="M 4000 6800 l 13000 0" stroke="#804000" stroke-width="20" fill="none" />
  <path d="M 6800 5240 l 0 20760" stroke="#804000" stroke-width="20" fill="none" />
  <path d="M 11280 5200 l 0 20740" stroke="#804000" stroke-width="20" fill="none" />
  <path d="M 14080 5200 l 0 20740" stroke="#804000" stroke-width="20" fill="none" />
  <g>
    <rect x="4060" y="5280" width="2760" height="1520" stroke-width="0" fill="#808080" />
    <text fill="#000000" font-family="Courier" font-size="448" text-anchor="middle" x="5440" y="6264">位号</text>
  </g>
  <g>
    <rect x="6860" y="5280" width="4420" height="1520" stroke-width="0" fill="#808080" />
    <text fill="#000000" font-family="Courier" font-size="448" text-anchor="middle" x="9070" y="6264">设备名称</text>
  </g>
  <g>
    <rect x="11340" y="5280" width="2760" height="1520" stroke-width="0" fill="#808080" />
    <text fill="#000000" font-family="Courier" font-size="448" text-anchor="middle" x="12720" y="6264">设备</text>
  </g>
  <g>
    <rect x="14160" y="5280" width="2800" height="1520" stroke-width="0" fill="#808080" />
    <text fill="#000000" font-family="Courier" font-size="448" text-anchor="middle" x="15560" y="6264">联锁</text>
  </g>
  <g>
    <rect x="4080" y="6920" width="2760" height="1520" stroke-width="0" fill="none" />
    <text fill="#000000" font-family="Courier" font-size="400" text-anchor="middle" x="5460" y="7880">MV4551A</text>
  </g>
  <g>
    <rect x="4020" y="8380" width="2760" height="1520" stroke-width="0" fill="none" />
    <text fill="#000000" font-family="Courier" font-size="400" text-anchor="middle" x="5400" y="9340">MV4551B</text>
  </g>
  <g>
    <rect x="4080" y="10040" width="2760" height="1520" stroke-width="0" fill="none" />
    <text fill="#000000" font-family="Courier" font-size="400" text-anchor="middle" x="5460" y="11000">MV4551C</text>
  </g>
  <g>
    <rect x="4140" y="11660" width="2760" height="1520" stroke-width="0" fill="none" />
    <text fill="#000000" font-family="Courier" font-size="400" text-anchor="middle" x="5520" y="12620">MV4552A</text>
  </g>
  <g>
    <rect x="4080" y="13300" width="2760" height="1520" stroke-width="0" fill="none" />
    <text fill="#000000" font-family="Courier" font-size="400" text-anchor="middle" x="5460" y="14260">MV4552B</text>
  </g>
  <g>
    <rect x="4020" y="14860" width="2760" height="1520" stroke-width="0" fill="none" />
    <text fill="#000000" font-family="Courier" font-size="400" text-anchor="middle" x="5400" y="15820">MV4552C</text>
  </g>
  <g>
    <rect x="4080" y="16380" width="2760" height="1520" stroke-width="0" fill="none" />
    <text fill="#000000" font-family="Courier" font-size="400" text-anchor="middle" x="5460" y="17340">MV4553A</text>
  </g>
  <g>
    <rect x="4080" y="18000" width="2760" height="1520" stroke-width="0" fill="none" />
    <text fill="#000000" font-family="Courier" font-size="400" text-anchor="middle" x="5460" y="18960">MV4553B</text>
  </g>
  <g>
    <rect x="6860" y="6820" width="4480" height="1560" stroke-width="0" fill="none" />
    <text fill="#000000" font-family="Courier" font-size="320" text-anchor="middle" x="9100" y="7600">高压冷给水分段<tspan x="9100" dy="320">母管电动阀1</tspan></text>
  </g>
  <g>
    <rect x="6940" y="8360" width="4480" height="1560" stroke-width="0" fill="none" />
    <text fill="#000000" font-family="Courier" font-size="320" text-anchor="middle" x="9180" y="9140">高压冷给水分段<tspan x="9180" dy="320">母管电动阀2</tspan></text>
  </g>
  <g>
    <rect x="6840" y="10040" width="4480" height="1560" stroke-width="0" fill="none" />
    <text fill="#000000" font-family="Courier" font-size="320" text-anchor="middle" x="9080" y="10820">高压冷给水母管<tspan x="9080" dy="320">扩建端隔离电动阀</tspan></text>
  </g>
  <g>
    <rect x="6840" y="11600" width="4480" height="1560" stroke-width="0" fill="none" />
    <text fill="#000000" font-family="Courier" font-size="320" text-anchor="middle" x="9080" y="12380">高压热给水分段<tspan x="9080" dy="320">母管电动阀1</tspan></text>
  </g>
  <g>
    <rect x="6880" y="13220" width="4480" height="1560" stroke-width="0" fill="none" />
    <text fill="#000000" font-family="Courier" font-size="320" text-anchor="middle" x="9120" y="14000">高压热给水分段<tspan x="9120" dy="320">母管电动阀2</tspan></text>
  </g>
  <g>
    <rect x="6880" y="14840" width="4480" height="1560" stroke-width="0" fill="none" />
    <text fill="#000000" font-family="Courier" font-size="320" text-anchor="middle" x="9120" y="15620">高压热给水母管<tspan x="9120" dy="320">扩建端隔离电动阀</tspan></text>
  </g>
  <g>
    <rect x="6880" y="16420" width="4480" height="1560" stroke-width="0" fill="none" />
    <text fill="#000000" font-family="Courier" font-size="320" text-anchor="middle" x="9120" y="17360">高加旁路电动阀1</text>
  </g>
  <g>
    <rect x="6840" y="17980" width="4480" height="1560" stroke-width="0" fill="none" />
    <text fill="#000000" font-family="Courier" font-size="320" text-anchor="middle" x="9080" y="18920">高加旁路电动阀2</text>
  </g>
  <rect x="23400" y="5060" width="13000" height="20800" stroke="#804000" stroke-width="20" fill="none" id="RECTANGLE6" />
  <path id="LINE167" d="M 23400 24260 l 13000 0" stroke="#804000" stroke-width="20" fill="none" />
  <path id="LINE168" d="M 23400 22660 l 13000 0" stroke="#804000" stroke-width="20" fill="none" />
  <path id="LINE169" d="M 23400 21060 l 13000 0" stroke="#804000" stroke-width="20" fill="none" />
  <path id="LINE170" d="M 23400 19460 l 13000 0" stroke="#804000" stroke-width="20" fill="none" />
  <path id="LINE171" d="M 23400 17860 l 13000 0" stroke="#804000" stroke-width="20" fill="none" />
  <path id="LINE172" d="M 23400 16260 l 13000 0" stroke="#804000" stroke-width="20" fill="none" />
  <path id="LINE173" d="M 23400 14660 l 13000 0" stroke="#804000" stroke-width="20" fill="none" />
  <path id="LINE174" d="M 23400 13060 l 13000 0" stroke="#804000" stroke-width="20" fill="none" />
  <path id="LINE175" d="M 23400 11460 l 13000 0" stroke="#804000" stroke-width="20" fill="none" />
  <path id="LINE176" d="M 23400 9860 l 13000 0" stroke="#804000" stroke-width="20" fill="none" />
  <path id="LINE177" d="M 23400 8260 l 13000 0" stroke="#804000" stroke-width="20" fill="none" />
  <path id="LINE178" d="M 23400 6660 l 13000 0" stroke="#804000" stroke-width="20" fill="none" />
  <path id="LINE179" d="M 26200 5100 l 0 20760" stroke="#804000" stroke-width="20" fill="none" />
  <path id="LINE180" d="M 30680 5060 l 0 20740" stroke="#804000" stroke-width="20" fill="none" />
  <path id="LINE181" d="M 33480 5060 l 0 20740" stroke="#804000" stroke-width="20" fill="none" />
  <g id="TEXT226">
    <rect x="23440" y="5140" width="2760" height="1520" stroke-width="0" fill="#808080" id="TEXT226_pbTextBoundingRectEl" />
    <text fill="#000000" font-family="Courier" font-size="448" text-anchor="middle" x="24820" y="6124" id="TEXT226_pbTextEl">位号</text>
  </g>
  <g id="TEXT227">
    <rect x="26260" y="5140" width="4420" height="1520" stroke-width="0" fill="#808080" id="TEXT227_pbTextBoundingRectEl" />
    <text fill="#000000" font-family="Courier" font-size="448" text-anchor="middle" x="28470" y="6124" id="TEXT227_pbTextEl">设备名称</text>
  </g>
  <g id="TEXT228">
    <rect x="30740" y="5140" width="2760" height="1520" stroke-width="0" fill="#808080" id="TEXT228_pbTextBoundingRectEl" />
    <text fill="#000000" font-family="Courier" font-size="448" text-anchor="middle" x="32120" y="6124" id="TEXT228_pbTextEl">设备</text>
  </g>
  <g id="TEXT229">
    <rect x="33540" y="5140" width="2800" height="1520" stroke-width="0" fill="#808080" id="TEXT229_pbTextBoundingRectEl" />
    <text fill="#000000" font-family="Courier" font-size="448" text-anchor="middle" x="34940" y="6124" id="TEXT229_pbTextEl">联锁</text>
  </g>
  <g id="TEXT230">
    <rect x="23480" y="6780" width="2760" height="1520" stroke-width="0" fill="none" id="TEXT230_pbTextBoundingRectEl" />
    <text fill="#000000" font-family="Courier" font-size="400" text-anchor="middle" x="24860" y="7740" id="TEXT230_pbTextEl">MV0001A</text>
  </g>
  <g id="TEXT231">
    <rect x="23420" y="8240" width="2760" height="1520" stroke-width="0" fill="none" id="TEXT231_pbTextBoundingRectEl" />
    <text fill="#000000" font-family="Courier" font-size="400" text-anchor="middle" x="24800" y="9200" id="TEXT231_pbTextEl">MV0001B</text>
  </g>
  <g id="TEXT232">
    <rect x="23480" y="9900" width="2760" height="1520" stroke-width="0" fill="none" id="TEXT232_pbTextBoundingRectEl" />
    <text fill="#000000" font-family="Courier" font-size="400" text-anchor="middle" x="24860" y="10860" id="TEXT232_pbTextEl">MV0011A</text>
  </g>
  <g id="TEXT233">
    <rect x="23520" y="11520" width="2760" height="1520" stroke-width="0" fill="none" id="TEXT233_pbTextBoundingRectEl" />
    <text fill="#000000" font-family="Courier" font-size="400" text-anchor="middle" x="24900" y="12480" id="TEXT233_pbTextEl">MV0011B</text>
  </g>
  <g id="TEXT234">
    <rect x="23480" y="13160" width="2760" height="1520" stroke-width="0" fill="none" id="TEXT234_pbTextBoundingRectEl" />
    <text fill="#000000" font-family="Courier" font-size="400" text-anchor="middle" x="24860" y="14120" id="TEXT234_pbTextEl">MV0002A</text>
  </g>
  <g id="TEXT235">
    <rect x="23420" y="14720" width="2760" height="1520" stroke-width="0" fill="none" id="TEXT235_pbTextBoundingRectEl" />
    <text fill="#000000" font-family="Courier" font-size="400" text-anchor="middle" x="24800" y="15680" id="TEXT235_pbTextEl">MV0002B</text>
  </g>
  <g id="TEXT236">
    <rect x="23480" y="16240" width="2760" height="1520" stroke-width="0" fill="none" id="TEXT236_pbTextBoundingRectEl" />
    <text fill="#000000" font-family="Courier" font-size="400" text-anchor="middle" x="24860" y="17200" id="TEXT236_pbTextEl">MV0012A</text>
  </g>
  <g id="TEXT237">
    <rect x="23480" y="17860" width="2760" height="1520" stroke-width="0" fill="none" id="TEXT237_pbTextBoundingRectEl" />
    <text fill="#000000" font-family="Courier" font-size="400" text-anchor="middle" x="24860" y="18820" id="TEXT237_pbTextEl">MV0012B</text>
  </g>
  <g id="TEXT238">
    <rect x="26260" y="6680" width="4480" height="1560" stroke-width="0" fill="none" id="TEXT238_pbTextBoundingRectEl" />
    <text fill="#000000" font-family="Courier" font-size="320" text-anchor="middle" x="28500" y="7460" id="TEXT238_pbTextEl">动力中心循环冷却水<tspan x="28500" dy="320">上水母管1电动蝶阀</tspan></text>
  </g>
  <rect x="43020" y="5000" width="13000" height="20800" stroke="#804000" stroke-width="20" fill="none" id="RECTANGLE7" />
  <path id="LINE182" d="M 43020 24200 l 13000 0" stroke="#804000" stroke-width="20" fill="none" />
  <path id="LINE183" d="M 43020 22600 l 13000 0" stroke="#804000" stroke-width="20" fill="none" />
  <path id="LINE184" d="M 43020 21000 l 13000 0" stroke="#804000" stroke-width="20" fill="none" />
  <path id="LINE185" d="M 43020 19400 l 13000 0" stroke="#804000" stroke-width="20" fill="none" />
  <path id="LINE186" d="M 43020 17800 l 13000 0" stroke="#804000" stroke-width="20" fill="none" />
  <path id="LINE187" d="M 43020 16200 l 13000 0" stroke="#804000" stroke-width="20" fill="none" />
  <path id="LINE188" d="M 43020 14600 l 13000 0" stroke="#804000" stroke-width="20" fill="none" />
  <path id="LINE189" d="M 43020 13000 l 13000 0" stroke="#804000" stroke-width="20" fill="none" />
  <path id="LINE190" d="M 43020 11400 l 13000 0" stroke="#804000" stroke-width="20" fill="none" />
  <path id="LINE191" d="M 43020 9800 l 13000 0" stroke="#804000" stroke-width="20" fill="none" />
  <path id="LINE192" d="M 43020 8200 l 13000 0" stroke="#804000" stroke-width="20" fill="none" />
  <path id="LINE193" d="M 43020 6600 l 13000 0" stroke="#804000" stroke-width="20" fill="none" />
  <path id="LINE194" d="M 45820 5040 l 0 20760" stroke="#804000" stroke-width="20" fill="none" />
  <path id="LINE195" d="M 50300 5000 l 0 20740" stroke="#804000" stroke-width="20" fill="none" />
  <path id="LINE196" d="M 53100 5000 l 0 20740" stroke="#804000" stroke-width="20" fill="none" />
  <g id="TEXT246">
    <rect x="43080" y="5080" width="2760" height="1520" stroke-width="0" fill="#808080" id="TEXT246_pbTextBoundingRectEl" />
    <text fill="#000000" font-family="Courier" font-size="448" text-anchor="middle" x="44460" y="6064" id="TEXT246_pbTextEl">位号</text>
  </g>
  <g id="TEXT247">
    <rect x="45880" y="5080" width="4420" height="1520" stroke-width="0" fill="#808080" id="TEXT247_pbTextBoundingRectEl" />
    <text fill="#000000" font-family="Courier" font-size="448" text-anchor="middle" x="48090" y="6064" id="TEXT247_pbTextEl">设备名称</text>
  </g>
  <g id="TEXT248">
    <rect x="50360" y="5080" width="2760" height="1520" stroke-width="0" fill="#808080" id="TEXT248_pbTextBoundingRectEl" />
    <text fill="#000000" font-family="Courier" font-size="448" text-anchor="middle" x="51740" y="6064" id="TEXT248_pbTextEl">设备</text>
  </g>
  <g id="TEXT249">
    <rect x="53180" y="5080" width="2800" height="1520" stroke-width="0" fill="#808080" id="TEXT249_pbTextBoundingRectEl" />
    <text fill="#000000" font-family="Courier" font-size="448" text-anchor="middle" x="54580" y="6064" id="TEXT249_pbTextEl">联锁</text>
  </g>
  <g id="TEXT250">
    <rect x="43100" y="6720" width="2760" height="1520" stroke-width="0" fill="none" id="TEXT250_pbTextBoundingRectEl" />
    <text fill="#000000" font-family="Courier" font-size="400" text-anchor="middle" x="44480" y="7680" id="TEXT250_pbTextEl">MV4121C</text>
  </g>
  <g id="TEXT251">
    <rect x="43060" y="8180" width="2760" height="1520" stroke-width="0" fill="none" id="TEXT251_pbTextBoundingRectEl" />
    <text fill="#000000" font-family="Courier" font-size="400" text-anchor="middle" x="44440" y="9140" id="TEXT251_pbTextEl">MV4121B</text>
  </g>
  <g id="TEXT252">
    <rect x="43100" y="9860" width="2760" height="1520" stroke-width="0" fill="none" id="TEXT252_pbTextBoundingRectEl" />
    <text fill="#000000" font-family="Courier" font-size="400" text-anchor="middle" x="44480" y="10820" id="TEXT252_pbTextEl">MV4121A</text>
  </g>
  <g id="TEXT253">
    <rect x="43160" y="11480" width="2760" height="1520" stroke-width="0" fill="none" id="TEXT253_pbTextBoundingRectEl" />
    <text fill="#000000" font-family="Courier" font-size="400" text-anchor="middle" x="44540" y="12440" id="TEXT253_pbTextEl">MV4122</text>
  </g>
  <g id="TEXT254">
    <rect x="43100" y="13100" width="2760" height="1520" stroke-width="0" fill="none" id="TEXT254_pbTextBoundingRectEl" />
    <text fill="#000000" font-family="Courier" font-size="400" text-anchor="middle" x="44480" y="14060" id="TEXT254_pbTextEl">MV4141C</text>
  </g>
  <g id="TEXT255">
    <rect x="43060" y="14660" width="2760" height="1520" stroke-width="0" fill="none" id="TEXT255_pbTextBoundingRectEl" />
    <text fill="#000000" font-family="Courier" font-size="400" text-anchor="middle" x="44440" y="15620" id="TEXT255_pbTextEl">MV4141B</text>
  </g>
  <g id="TEXT256">
    <rect x="43100" y="16180" width="2760" height="1520" stroke-width="0" fill="none" id="TEXT256_pbTextBoundingRectEl" />
    <text fill="#000000" font-family="Courier" font-size="400" text-anchor="middle" x="44480" y="17140" id="TEXT256_pbTextEl">MV4141A</text>
  </g>
  <g id="TEXT257">
    <rect x="43100" y="17800" width="2760" height="1520" stroke-width="0" fill="none" id="TEXT257_pbTextBoundingRectEl" />
    <text fill="#000000" font-family="Courier" font-size="400" text-anchor="middle" x="44480" y="18760" id="TEXT257_pbTextEl">MV4143</text>
  </g>
  <g id="TEXT258">
    <rect x="45880" y="6620" width="4480" height="1560" stroke-width="0" fill="none" id="TEXT258_pbTextBoundingRectEl" />
    <text fill="#000000" font-family="Courier" font-size="320" text-anchor="middle" x="48120" y="7400" id="TEXT258_pbTextEl">高压蒸汽母管扩建<tspan x="48120" dy="320">端隔离电动阀</tspan></text>
  </g>
  <g id="TEXT259">
    <rect x="45960" y="8160" width="4480" height="1560" stroke-width="0" fill="none" id="TEXT259_pbTextBoundingRectEl" />
    <text fill="#000000" font-family="Courier" font-size="320" text-anchor="middle" x="48200" y="8940" id="TEXT259_pbTextEl">高压蒸汽分段母管<tspan x="48200" dy="320">电动阀2</tspan></text>
  </g>
  <g id="TEXT261">
    <rect x="45860" y="11400" width="4480" height="1560" stroke-width="0" fill="none" id="TEXT261_pbTextBoundingRectEl" />
    <text fill="#000000" font-family="Courier" font-size="320" text-anchor="middle" x="48100" y="12180" id="TEXT261_pbTextEl">化工装置高压蒸<tspan x="48100" dy="320">汽隔离电动阀</tspan></text>
  </g>
  <g id="TEXT266">
    <rect x="26140" y="8300" width="4480" height="1560" stroke-width="0" fill="none" id="TEXT266_pbTextBoundingRectEl" />
    <text fill="#000000" font-family="Courier" font-size="320" text-anchor="middle" x="28380" y="9080" id="TEXT266_pbTextEl">动力中心循环冷却水<tspan x="28380" dy="320">上水母管2电动蝶阀</tspan></text>
  </g>
  <g id="TEXT267">
    <rect x="26140" y="9980" width="4480" height="1560" stroke-width="0" fill="none" id="TEXT267_pbTextBoundingRectEl" />
    <text fill="#000000" font-family="Courier" font-size="320" text-anchor="middle" x="28380" y="10600" id="TEXT267_pbTextEl">动力中心循环冷却水<tspan x="28380" dy="320">上水母管1扩建端</tspan><tspan x="28380" dy="320">隔离电动蝶阀</tspan></text>
  </g>
  <g id="TEXT268">
    <rect x="26260" y="11440" width="4480" height="1560" stroke-width="0" fill="none" id="TEXT268_pbTextBoundingRectEl" />
    <text fill="#000000" font-family="Courier" font-size="320" text-anchor="middle" x="28500" y="12060" id="TEXT268_pbTextEl">动力中心循环冷却水<tspan x="28500" dy="320">上水母管2扩建端</tspan><tspan x="28500" dy="320">隔离电动蝶阀</tspan></text>
  </g>
  <g id="TEXT269">
    <rect x="26200" y="13060" width="4480" height="1560" stroke-width="0" fill="none" id="TEXT269_pbTextBoundingRectEl" />
    <text fill="#000000" font-family="Courier" font-size="320" text-anchor="middle" x="28440" y="13840" id="TEXT269_pbTextEl">动力中心循环冷却水<tspan x="28440" dy="320">回水母管1电动蝶阀</tspan></text>
  </g>
  <g id="TEXT270">
    <rect x="26200" y="14740" width="4480" height="1560" stroke-width="0" fill="none" id="TEXT270_pbTextBoundingRectEl" />
    <text fill="#000000" font-family="Courier" font-size="320" text-anchor="middle" x="28440" y="15520" id="TEXT270_pbTextEl">动力中心循环冷却水<tspan x="28440" dy="320">回水母管2电动蝶阀</tspan></text>
  </g>
  <g id="TEXT271">
    <rect x="26200" y="16300" width="4480" height="1560" stroke-width="0" fill="none" id="TEXT271_pbTextBoundingRectEl" />
    <text fill="#000000" font-family="Courier" font-size="320" text-anchor="middle" x="28440" y="16920" id="TEXT271_pbTextEl">动力中心循环冷却水<tspan x="28440" dy="320">回水母管1扩建端</tspan><tspan x="28440" dy="320">隔离电动蝶阀</tspan></text>
  </g>
  <g id="TEXT272">
    <rect x="26200" y="17920" width="4480" height="1560" stroke-width="0" fill="none" id="TEXT272_pbTextBoundingRectEl" />
    <text fill="#000000" font-family="Courier" font-size="320" text-anchor="middle" x="28440" y="18540" id="TEXT272_pbTextEl">动力中心循环冷却水<tspan x="28440" dy="320">回水母管2扩建端</tspan><tspan x="28440" dy="320">隔离电动蝶阀</tspan></text>
  </g>
  <g id="TEXT273">
    <rect x="43080" y="19400" width="2760" height="1520" stroke-width="0" fill="none" id="TEXT273_pbTextBoundingRectEl" />
    <text fill="#000000" font-family="Courier" font-size="400" text-anchor="middle" x="44460" y="20360" id="TEXT273_pbTextEl">MV4142</text>
  </g>
  <g id="TEXT274">
    <rect x="45880" y="9760" width="4480" height="1560" stroke-width="0" fill="none" id="TEXT274_pbTextBoundingRectEl" />
    <text fill="#000000" font-family="Courier" font-size="320" text-anchor="middle" x="48120" y="10540" id="TEXT274_pbTextEl">高压蒸汽分段母管<tspan x="48120" dy="320">电动阀1</tspan></text>
  </g>
  <g id="TEXT275">
    <rect x="45780" y="13000" width="4480" height="1560" stroke-width="0" fill="none" id="TEXT275_pbTextBoundingRectEl" />
    <text fill="#000000" font-family="Courier" font-size="320" text-anchor="middle" x="48020" y="13780" id="TEXT275_pbTextEl">中压蒸汽母管扩建<tspan x="48020" dy="320">端隔离电动阀</tspan></text>
  </g>
  <g id="TEXT276">
    <rect x="45880" y="14580" width="4480" height="1560" stroke-width="0" fill="none" id="TEXT276_pbTextBoundingRectEl" />
    <text fill="#000000" font-family="Courier" font-size="320" text-anchor="middle" x="48120" y="15360" id="TEXT276_pbTextEl">中压蒸汽分段母管<tspan x="48120" dy="320">电动阀2</tspan></text>
  </g>
  <g id="TEXT277">
    <rect x="45880" y="16260" width="4480" height="1560" stroke-width="0" fill="none" id="TEXT277_pbTextBoundingRectEl" />
    <text fill="#000000" font-family="Courier" font-size="320" text-anchor="middle" x="48120" y="17040" id="TEXT277_pbTextEl">中压蒸汽分段母管<tspan x="48120" dy="320">电动阀1</tspan></text>
  </g>
  <g id="TEXT278">
    <rect x="45880" y="17760" width="4480" height="1560" stroke-width="0" fill="none" id="TEXT278_pbTextBoundingRectEl" />
    <text fill="#000000" font-family="Courier" font-size="320" text-anchor="middle" x="48120" y="18540" id="TEXT278_pbTextEl">中压供热蒸汽母管<tspan x="48120" dy="320">电动阀</tspan></text>
  </g>
  <g id="TEXT279">
    <rect x="45840" y="19380" width="4480" height="1560" stroke-width="0" fill="none" id="TEXT279_pbTextBoundingRectEl" />
    <text fill="#000000" font-family="Courier" font-size="320" text-anchor="middle" x="48080" y="20160" id="TEXT279_pbTextEl">化工装置中压蒸<tspan x="48080" dy="320">汽隔离电动阀</tspan></text>
  </g>
  <path d="M 13420 7707 l -40 151 -40 82 -40 62 -40 50 -40 42 -40 36 -40 31 -40 26 -40 24 -40 20 -40 18 -40 14 -40 13 -40 10 -40 8 -40 6 -40 4 -40 2 -40 0 -40 -2 -40 -4 -40 -6 -40 -8 -40 -10 -40 -13 -40 -14 -40 -18 -40 -20 -40 -24 -40 -26 -40 -31 -40 -36 -40 -42 -40 -50 -40 -62 -40 -82 -40 -151 0 -173 40 -151 40 -82 40 -62 40 -50 40 -42 40 -36 40 -31 40 -26 40 -24 40 -20 40 -18 40 -14 40 -13 40 -10 40 -8 40 -6 40 -4 40 -2 40 0 40 2 40 4 40 6 40 8 40 10 40 13 40 14 40 18 40 20 40 24 40 26 40 31 40 36 40 42 40 50 40 62 40 82 40 151 0 173" stroke="#FF0000" stroke-width="40" fill="#C0C0C0" />
  <path d="M 12700 7940 l 0 -440" stroke="#000000" stroke-width="40" fill="#FF0000" />
  <path d="M 13000 7309 l -14 38 -13 24 -13 19 -14 16 -13 14 -13 11 -14 11 -13 9 -13 8 -14 8 -13 6 -13 6 -14 5 -13 5 -13 4 -14 3 -13 3 -13 3 -14 2 -13 1 -13 1 -14 0 -13 0 -13 0 -14 -1 -13 -1 -13 -2 -14 -3 -13 -3 -13 -3 -14 -4 -13 -5 -13 -5 -14 -6 -13 -6 -13 -8 -14 -8 -13 -9 -13 -11 -14 -11 -13 -14 -13 -16 -14 -19 -13 -24 -13 -38 0 -97 13 -38 13 -24 14 -19 13 -16 13 -14 14 -11 13 -11 13 -9 14 -8 13 -8 13 -6 14 -6 13 -5 13 -5 14 -4 13 -3 13 -3 14 -3 13 -2 13 -1 14 -1 13 0 13 0 14 0 13 1 13 1 14 2 13 3 13 3 14 3 13 4 13 5 14 5 13 6 13 6 14 8 13 8 13 9 14 11 13 11 13 14 14 16 13 19 13 24 14 38 0 97" stroke="#808080" stroke-width="40" fill="#FF0000" />
  <g>
    <rect x="12520" y="7080" width="340" height="340" stroke-width="0" fill="#FF0000" />
    <text fill="#000000" font-family="Courier" font-size="400" text-anchor="middle" x="12690" y="7450">M</text>
  </g>
  <path d="M 12420 7760 l 0 320 600 -300 0 280 -600 -280 0 -20" stroke="#000000" stroke-width="40" fill="#FF0000" />
  <path d="M 12100 7260 l 1220 740" stroke="#FF0000" stroke-width="40" fill="none" />
  <path d="M 52480 7547 l -40 151 -40 82 -40 62 -40 50 -40 42 -40 36 -40 31 -40 26 -40 24 -40 20 -40 18 -40 14 -40 13 -40 10 -40 8 -40 6 -40 4 -40 2 -40 0 -40 -2 -40 -4 -40 -6 -40 -8 -40 -10 -40 -13 -40 -14 -40 -18 -40 -20 -40 -24 -40 -26 -40 -31 -40 -36 -40 -42 -40 -50 -40 -62 -40 -82 -40 -151 0 -173 40 -151 40 -82 40 -62 40 -50 40 -42 40 -36 40 -31 40 -26 40 -24 40 -20 40 -18 40 -14 40 -13 40 -10 40 -8 40 -6 40 -4 40 -2 40 0 40 2 40 4 40 6 40 8 40 10 40 13 40 14 40 18 40 20 40 24 40 26 40 31 40 36 40 42 40 50 40 62 40 82 40 151 0 173" stroke="#FF0000" stroke-width="40" fill="#C0C0C0" />
  <path d="M 51740 7760 l 0 -420" stroke="#000000" stroke-width="40" fill="#FF0000" />
  <path d="M 52060 7149 l -14 38 -13 24 -13 19 -14 16 -13 14 -13 11 -14 11 -13 9 -13 8 -14 8 -13 6 -13 6 -14 5 -13 5 -13 4 -14 3 -13 3 -13 3 -14 2 -13 1 -13 1 -14 0 -13 0 -13 0 -14 -1 -13 -1 -13 -2 -14 -3 -13 -3 -13 -3 -14 -4 -13 -5 -13 -5 -14 -6 -13 -6 -13 -8 -14 -8 -13 -9 -13 -11 -14 -11 -13 -14 -13 -16 -14 -19 -13 -24 -13 -38 0 -97 13 -38 13 -24 14 -19 13 -16 13 -14 14 -11 13 -11 13 -9 14 -8 13 -8 13 -6 14 -6 13 -5 13 -5 14 -4 13 -3 13 -3 14 -3 13 -2 13 -1 14 -1 13 0 13 0 14 0 13 1 13 1 14 2 13 3 13 3 14 3 13 4 13 5 14 5 13 6 13 6 14 8 13 8 13 9 14 11 13 11 13 14 14 16 13 19 13 24 14 38 0 97" stroke="#808080" stroke-width="40" fill="#FF0000" />
  <g>
    <rect x="51580" y="6920" width="340" height="340" stroke-width="0" fill="#FF0000" />
    <text fill="#000000" font-family="Courier" font-size="400" text-anchor="middle" x="51750" y="7290">M</text>
  </g>
  <path d="M 51480 7600 l 0 320 600 -300 0 280 -600 -280 0 -20" stroke="#000000" stroke-width="40" fill="#FF0000" />
  <path d="M 51140 7080 l 1220 760" stroke="#FF0000" stroke-width="40" fill="none" />
  <path d="M 52480 9107 l -40 151 -40 82 -40 62 -40 50 -40 42 -40 36 -40 31 -40 26 -40 24 -40 20 -40 18 -40 14 -40 13 -40 10 -40 8 -40 6 -40 4 -40 2 -40 0 -40 -2 -40 -4 -40 -6 -40 -8 -40 -10 -40 -13 -40 -14 -40 -18 -40 -20 -40 -24 -40 -26 -40 -31 -40 -36 -40 -42 -40 -50 -40 -62 -40 -82 -40 -151 0 -173 40 -151 40 -82 40 -62 40 -50 40 -42 40 -36 40 -31 40 -26 40 -24 40 -20 40 -18 40 -14 40 -13 40 -10 40 -8 40 -6 40 -4 40 -2 40 0 40 2 40 4 40 6 40 8 40 10 40 13 40 14 40 18 40 20 40 24 40 26 40 31 40 36 40 42 40 50 40 62 40 82 40 151 0 173" stroke="#FF0000" stroke-width="40" fill="#C0C0C0" />
  <path d="M 51740 9340 l 0 -440" stroke="#000000" stroke-width="40" fill="#FF0000" />
  <path d="M 52060 8729 l -14 38 -13 24 -13 19 -14 16 -13 14 -13 11 -14 11 -13 9 -13 8 -14 8 -13 6 -13 6 -14 5 -13 5 -13 4 -14 3 -13 3 -13 3 -14 2 -13 1 -13 1 -14 0 -13 0 -13 0 -14 -1 -13 -1 -13 -2 -14 -3 -13 -3 -13 -3 -14 -4 -13 -5 -13 -5 -14 -6 -13 -6 -13 -8 -14 -8 -13 -9 -13 -11 -14 -11 -13 -14 -13 -16 -14 -19 -13 -24 -13 -38 0 -97 13 -38 13 -24 14 -19 13 -16 13 -14 14 -11 13 -11 13 -9 14 -8 13 -8 13 -6 14 -6 13 -5 13 -5 14 -4 13 -3 13 -3 14 -3 13 -2 13 -1 14 -1 13 0 13 0 14 0 13 1 13 1 14 2 13 3 13 3 14 3 13 4 13 5 14 5 13 6 13 6 14 8 13 8 13 9 14 11 13 11 13 14 14 16 13 19 13 24 14 38 0 97" stroke="#808080" stroke-width="40" fill="#FF0000" />
  <g>
    <rect x="51580" y="8500" width="340" height="340" stroke-width="0" fill="#FF0000" />
    <text fill="#000000" font-family="Courier" font-size="400" text-anchor="middle" x="51750" y="8870">M</text>
  </g>
  <path d="M 51480 9160 l 0 320 600 -280 0 280 -600 -300 0 -20" stroke="#000000" stroke-width="40" fill="#FF0000" />
  <path d="M 51140 8660 l 1220 740" stroke="#FF0000" stroke-width="40" fill="none" />
  <path d="M 52420 10727 l -40 151 -40 82 -40 62 -40 50 -40 42 -40 36 -40 31 -40 26 -40 24 -40 20 -40 18 -40 14 -40 13 -40 10 -40 8 -40 6 -40 4 -40 2 -40 0 -40 -2 -40 -4 -40 -6 -40 -8 -40 -10 -40 -13 -40 -14 -40 -18 -40 -20 -40 -24 -40 -26 -40 -31 -40 -36 -40 -42 -40 -50 -40 -62 -40 -82 -40 -151 0 -173 40 -151 40 -82 40 -62 40 -50 40 -42 40 -36 40 -31 40 -26 40 -24 40 -20 40 -18 40 -14 40 -13 40 -10 40 -8 40 -6 40 -4 40 -2 40 0 40 2 40 4 40 6 40 8 40 10 40 13 40 14 40 18 40 20 40 24 40 26 40 31 40 36 40 42 40 50 40 62 40 82 40 151 0 173" stroke="#FF0000" stroke-width="40" fill="#C0C0C0" />
  <path d="M 51700 10940 l 0 -440" stroke="#000000" stroke-width="40" fill="#FF0000" />
  <path d="M 52000 10329 l -14 38 -13 24 -13 19 -14 16 -13 14 -13 11 -14 11 -13 9 -13 8 -14 8 -13 6 -13 6 -14 5 -13 5 -13 4 -14 3 -13 3 -13 3 -14 2 -13 1 -13 1 -14 0 -13 0 -13 0 -14 -1 -13 -1 -13 -2 -14 -3 -13 -3 -13 -3 -14 -4 -13 -5 -13 -5 -14 -6 -13 -6 -13 -8 -14 -8 -13 -9 -13 -11 -14 -11 -13 -14 -13 -16 -14 -19 -13 -24 -13 -38 0 -97 13 -38 13 -24 14 -19 13 -16 13 -14 14 -11 13 -11 13 -9 14 -8 13 -8 13 -6 14 -6 13 -5 13 -5 14 -4 13 -3 13 -3 14 -3 13 -2 13 -1 14 -1 13 0 13 0 14 0 13 1 13 1 14 2 13 3 13 3 14 3 13 4 13 5 14 5 13 6 13 6 14 8 13 8 13 9 14 11 13 11 13 14 14 16 13 19 13 24 14 38 0 97" stroke="#808080" stroke-width="40" fill="#FF0000" />
  <g>
    <rect x="51520" y="10100" width="340" height="340" stroke-width="0" fill="#FF0000" />
    <text fill="#000000" font-family="Courier" font-size="400" text-anchor="middle" x="51690" y="10470">M</text>
  </g>
  <path d="M 51420 10760 l 0 340 600 -300 0 280 -600 -300 0 -20" stroke="#000000" stroke-width="40" fill="#FF0000" />
  <path d="M 51100 10260 l 1200 740" stroke="#FF0000" stroke-width="40" fill="none" />
  <path d="M 12720 9660 l 0 -540" stroke="#000000" stroke-width="20" fill="#FF0000" />
  <path d="M 13060 8897 l -14 44 -13 29 -13 23 -14 19 -13 16 -13 14 -14 13 -13 11 -13 11 -14 9 -13 8 -13 8 -14 7 -13 6 -13 5 -14 5 -13 5 -13 3 -14 4 -13 3 -13 2 -14 2 -13 1 -13 1 -14 0 -13 0 -13 0 -14 -1 -13 -1 -13 -2 -14 -2 -13 -3 -13 -4 -14 -3 -13 -5 -13 -5 -14 -5 -13 -6 -13 -7 -14 -8 -13 -8 -13 -9 -14 -11 -13 -11 -13 -13 -14 -14 -13 -16 -13 -19 -14 -23 -13 -29 -13 -44 0 -113 13 -44 13 -29 14 -23 13 -19 13 -16 14 -14 13 -13 13 -11 14 -11 13 -9 13 -8 14 -8 13 -7 13 -6 14 -5 13 -5 13 -5 14 -3 13 -4 13 -3 14 -2 13 -2 13 -1 14 -1 13 0 13 0 14 0 13 1 13 1 14 2 13 2 13 3 14 4 13 3 13 5 14 5 13 5 13 6 14 7 13 8 13 8 14 9 13 11 13 11 14 13 13 14 13 16 14 19 13 23 13 29 14 44 0 113" stroke="#808080" stroke-width="20" fill="#FF0000" />
  <g>
    <rect x="12520" y="8620" width="400" height="420" stroke-width="0" fill="#FF0000" />
    <text fill="#000000" font-family="Courier" font-size="400" text-anchor="middle" x="12720" y="9030">M</text>
  </g>
  <path d="M 12400 9440 l 0 420 680 -380 0 340 -680 -360 0 -20" stroke="#000000" stroke-width="20" fill="#FF0000" />
  <path d="M 13420 10865 l -40 146 -40 80 -40 60 -40 48 -40 41 -40 35 -40 30 -40 26 -40 23 -40 19 -40 17 -40 15 -40 12 -40 10 -40 8 -40 5 -40 4 -40 2 -40 0 -40 -2 -40 -4 -40 -5 -40 -8 -40 -10 -40 -12 -40 -15 -40 -17 -40 -19 -40 -23 -40 -26 -40 -30 -40 -35 -40 -41 -40 -48 -40 -60 -40 -80 -40 -146 0 -169 40 -146 40 -80 40 -60 40 -48 40 -41 40 -35 40 -30 40 -26 40 -23 40 -19 40 -17 40 -15 40 -12 40 -10 40 -8 40 -5 40 -4 40 -2 40 0 40 2 40 4 40 5 40 8 40 10 40 12 40 15 40 17 40 19 40 23 40 26 40 30 40 35 40 41 40 48 40 60 40 80 40 146 0 169" stroke="#FF0000" stroke-width="40" fill="#C0C0C0" />
  <path d="M 12680 11080 l 0 -420" stroke="#000000" stroke-width="20" fill="#FF0000" />
  <path d="M 13000 10489 l -14 38 -13 24 -13 19 -14 16 -13 14 -13 11 -14 11 -13 9 -13 8 -14 8 -13 6 -13 6 -14 5 -13 5 -13 4 -14 3 -13 3 -13 3 -14 2 -13 1 -13 1 -14 0 -13 0 -13 0 -14 -1 -13 -1 -13 -2 -14 -3 -13 -3 -13 -3 -14 -4 -13 -5 -13 -5 -14 -6 -13 -6 -13 -8 -14 -8 -13 -9 -13 -11 -14 -11 -13 -14 -13 -16 -14 -19 -13 -24 -13 -38 0 -97 13 -38 13 -24 14 -19 13 -16 13 -14 14 -11 13 -11 13 -9 14 -8 13 -8 13 -6 14 -6 13 -5 13 -5 14 -4 13 -3 13 -3 14 -3 13 -2 13 -1 14 -1 13 0 13 0 14 0 13 1 13 1 14 2 13 3 13 3 14 3 13 4 13 5 14 5 13 6 13 6 14 8 13 8 13 9 14 11 13 11 13 14 14 16 13 19 13 24 14 38 0 97" stroke="#808080" stroke-width="20" fill="#00FF00" />
  <g>
    <rect x="12500" y="10260" width="340" height="320" stroke-width="0" fill="#00FF00" />
    <text fill="#000000" font-family="Courier" font-size="400" text-anchor="middle" x="12670" y="10620">M</text>
  </g>
  <path d="M 12420 10900 l 0 320 600 -280 0 260 -600 -280 0 -20" stroke="#000000" stroke-width="20" fill="#00FF00" />
  <path d="M 12080 10420 l 1220 720" stroke="#FF0000" stroke-width="40" fill="none" />
  <path d="M 13440 12465 l -40 146 -40 80 -40 60 -40 48 -40 41 -40 35 -40 30 -40 26 -40 23 -40 19 -40 17 -40 15 -40 12 -40 10 -40 8 -40 5 -40 4 -40 2 -40 0 -40 -2 -40 -4 -40 -5 -40 -8 -40 -10 -40 -12 -40 -15 -40 -17 -40 -19 -40 -23 -40 -26 -40 -30 -40 -35 -40 -41 -40 -48 -40 -60 -40 -80 -40 -146 0 -169 40 -146 40 -80 40 -60 40 -48 40 -41 40 -35 40 -30 40 -26 40 -23 40 -19 40 -17 40 -15 40 -12 40 -10 40 -8 40 -5 40 -4 40 -2 40 0 40 2 40 4 40 5 40 8 40 10 40 12 40 15 40 17 40 19 40 23 40 26 40 30 40 35 40 41 40 48 40 60 40 80 40 146 0 169" stroke="#FF0000" stroke-width="40" fill="#C0C0C0" />
  <path d="M 12720 12680 l 0 -420" stroke="#000000" stroke-width="20" fill="#FF0000" />
  <path d="M 13020 12089 l -14 38 -13 24 -13 19 -14 16 -13 14 -13 11 -14 11 -13 9 -13 8 -14 8 -13 6 -13 6 -14 5 -13 5 -13 4 -14 3 -13 3 -13 3 -14 2 -13 1 -13 1 -14 0 -13 0 -13 0 -14 -1 -13 -1 -13 -2 -14 -3 -13 -3 -13 -3 -14 -4 -13 -5 -13 -5 -14 -6 -13 -6 -13 -8 -14 -8 -13 -9 -13 -11 -14 -11 -13 -14 -13 -16 -14 -19 -13 -24 -13 -38 0 -97 13 -38 13 -24 14 -19 13 -16 13 -14 14 -11 13 -11 13 -9 14 -8 13 -8 13 -6 14 -6 13 -5 13 -5 14 -4 13 -3 13 -3 14 -3 13 -2 13 -1 14 -1 13 0 13 0 14 0 13 1 13 1 14 2 13 3 13 3 14 3 13 4 13 5 14 5 13 6 13 6 14 8 13 8 13 9 14 11 13 11 13 14 14 16 13 19 13 24 14 38 0 97" stroke="#808080" stroke-width="20" fill="#00FF00" />
  <g>
    <rect x="12540" y="11880" width="340" height="320" stroke-width="0" fill="#00FF00" />
    <text fill="#000000" font-family="Courier" font-size="400" text-anchor="middle" x="12710" y="12240">M</text>
  </g>
  <path d="M 12440 12520 l 0 300 600 -280 0 280 -600 -280 0 -20" stroke="#000000" stroke-width="20" fill="#00FF00" />
  <path d="M 12100 12040 l 1220 700" stroke="#FF0000" stroke-width="40" fill="none" />
  <path d="M 13420 14085 l -40 146 -40 80 -40 60 -40 48 -40 41 -40 35 -40 30 -40 26 -40 23 -40 19 -40 17 -40 15 -40 12 -40 10 -40 8 -40 5 -40 4 -40 2 -40 0 -40 -2 -40 -4 -40 -5 -40 -8 -40 -10 -40 -12 -40 -15 -40 -17 -40 -19 -40 -23 -40 -26 -40 -30 -40 -35 -40 -41 -40 -48 -40 -60 -40 -80 -40 -146 0 -169 40 -146 40 -80 40 -60 40 -48 40 -41 40 -35 40 -30 40 -26 40 -23 40 -19 40 -17 40 -15 40 -12 40 -10 40 -8 40 -5 40 -4 40 -2 40 0 40 2 40 4 40 5 40 8 40 10 40 12 40 15 40 17 40 19 40 23 40 26 40 30 40 35 40 41 40 48 40 60 40 80 40 146 0 169" stroke="#FF0000" stroke-width="40" fill="#C0C0C0" />
  <path d="M 12680 14300 l 0 -420" stroke="#000000" stroke-width="20" fill="#FF0000" />
  <path d="M 13000 13709 l -14 38 -13 24 -13 19 -14 16 -13 14 -13 11 -14 11 -13 9 -13 8 -14 8 -13 6 -13 6 -14 5 -13 5 -13 4 -14 3 -13 3 -13 3 -14 2 -13 1 -13 1 -14 0 -13 0 -13 0 -14 -1 -13 -1 -13 -2 -14 -3 -13 -3 -13 -3 -14 -4 -13 -5 -13 -5 -14 -6 -13 -6 -13 -8 -14 -8 -13 -9 -13 -11 -14 -11 -13 -14 -13 -16 -14 -19 -13 -24 -13 -38 0 -97 13 -38 13 -24 14 -19 13 -16 13 -14 14 -11 13 -11 13 -9 14 -8 13 -8 13 -6 14 -6 13 -5 13 -5 14 -4 13 -3 13 -3 14 -3 13 -2 13 -1 14 -1 13 0 13 0 14 0 13 1 13 1 14 2 13 3 13 3 14 3 13 4 13 5 14 5 13 6 13 6 14 8 13 8 13 9 14 11 13 11 13 14 14 16 13 19 13 24 14 38 0 97" stroke="#808080" stroke-width="20" fill="#00FF00" />
  <g>
    <rect x="12500" y="13480" width="340" height="320" stroke-width="0" fill="#00FF00" />
    <text fill="#000000" font-family="Courier" font-size="400" text-anchor="middle" x="12670" y="13840">M</text>
  </g>
  <path d="M 12420 14120 l 0 320 600 -280 0 260 -600 -280 0 -20" stroke="#000000" stroke-width="20" fill="#00FF00" />
  <path d="M 12080 13640 l 1220 720" stroke="#FF0000" stroke-width="40" fill="none" />
  <path d="M 13420 15685 l -40 146 -40 80 -40 60 -40 48 -40 41 -40 35 -40 30 -40 26 -40 23 -40 19 -40 17 -40 15 -40 12 -40 10 -40 8 -40 5 -40 4 -40 2 -40 0 -40 -2 -40 -4 -40 -5 -40 -8 -40 -10 -40 -12 -40 -15 -40 -17 -40 -19 -40 -23 -40 -26 -40 -30 -40 -35 -40 -41 -40 -48 -40 -60 -40 -80 -40 -146 0 -169 40 -146 40 -80 40 -60 40 -48 40 -41 40 -35 40 -30 40 -26 40 -23 40 -19 40 -17 40 -15 40 -12 40 -10 40 -8 40 -5 40 -4 40 -2 40 0 40 2 40 4 40 5 40 8 40 10 40 12 40 15 40 17 40 19 40 23 40 26 40 30 40 35 40 41 40 48 40 60 40 80 40 146 0 169" stroke="#FF0000" stroke-width="40" fill="#C0C0C0" />
  <path d="M 12680 15900 l 0 -420" stroke="#000000" stroke-width="20" fill="#FF0000" />
  <path d="M 13000 15309 l -14 38 -13 24 -13 19 -14 16 -13 14 -13 11 -14 11 -13 9 -13 8 -14 8 -13 6 -13 6 -14 5 -13 5 -13 4 -14 3 -13 3 -13 3 -14 2 -13 1 -13 1 -14 0 -13 0 -13 0 -14 -1 -13 -1 -13 -2 -14 -3 -13 -3 -13 -3 -14 -4 -13 -5 -13 -5 -14 -6 -13 -6 -13 -8 -14 -8 -13 -9 -13 -11 -14 -11 -13 -14 -13 -16 -14 -19 -13 -24 -13 -38 0 -97 13 -38 13 -24 14 -19 13 -16 13 -14 14 -11 13 -11 13 -9 14 -8 13 -8 13 -6 14 -6 13 -5 13 -5 14 -4 13 -3 13 -3 14 -3 13 -2 13 -1 14 -1 13 0 13 0 14 0 13 1 13 1 14 2 13 3 13 3 14 3 13 4 13 5 14 5 13 6 13 6 14 8 13 8 13 9 14 11 13 11 13 14 14 16 13 19 13 24 14 38 0 97" stroke="#808080" stroke-width="20" fill="#00FF00" />
  <g>
    <rect x="12500" y="15100" width="340" height="320" stroke-width="0" fill="#00FF00" />
    <text fill="#000000" font-family="Courier" font-size="400" text-anchor="middle" x="12670" y="15460">M</text>
  </g>
  <path d="M 12420 15740 l 0 300 600 -280 0 260 -600 -260 0 -20" stroke="#000000" stroke-width="20" fill="#00FF00" />
  <path d="M 12080 15240 l 1220 720" stroke="#FF0000" stroke-width="40" fill="none" />
  <path d="M 13420 18905 l -40 146 -40 80 -40 60 -40 48 -40 41 -40 35 -40 30 -40 26 -40 23 -40 19 -40 17 -40 15 -40 12 -40 10 -40 8 -40 5 -40 4 -40 2 -40 0 -40 -2 -40 -4 -40 -5 -40 -8 -40 -10 -40 -12 -40 -15 -40 -17 -40 -19 -40 -23 -40 -26 -40 -30 -40 -35 -40 -41 -40 -48 -40 -60 -40 -80 -40 -146 0 -169 40 -146 40 -80 40 -60 40 -48 40 -41 40 -35 40 -30 40 -26 40 -23 40 -19 40 -17 40 -15 40 -12 40 -10 40 -8 40 -5 40 -4 40 -2 40 0 40 2 40 4 40 5 40 8 40 10 40 12 40 15 40 17 40 19 40 23 40 26 40 30 40 35 40 41 40 48 40 60 40 80 40 146 0 169" stroke="#FF0000" stroke-width="40" fill="#C0C0C0" />
  <path d="M 12680 19100 l 0 -400" stroke="#000000" stroke-width="20" fill="#FF0000" />
  <path d="M 13000 18509 l -14 38 -13 24 -13 19 -14 16 -13 14 -13 11 -14 11 -13 9 -13 8 -14 8 -13 6 -13 6 -14 5 -13 5 -13 4 -14 3 -13 3 -13 3 -14 2 -13 1 -13 1 -14 0 -13 0 -13 0 -14 -1 -13 -1 -13 -2 -14 -3 -13 -3 -13 -3 -14 -4 -13 -5 -13 -5 -14 -6 -13 -6 -13 -8 -14 -8 -13 -9 -13 -11 -14 -11 -13 -14 -13 -16 -14 -19 -13 -24 -13 -38 0 -97 13 -38 13 -24 14 -19 13 -16 13 -14 14 -11 13 -11 13 -9 14 -8 13 -8 13 -6 14 -6 13 -5 13 -5 14 -4 13 -3 13 -3 14 -3 13 -2 13 -1 14 -1 13 0 13 0 14 0 13 1 13 1 14 2 13 3 13 3 14 3 13 4 13 5 14 5 13 6 13 6 14 8 13 8 13 9 14 11 13 11 13 14 14 16 13 19 13 24 14 38 0 97" stroke="#808080" stroke-width="20" fill="#00FF00" />
  <g>
    <rect x="12500" y="18300" width="340" height="320" stroke-width="0" fill="#00FF00" />
    <text fill="#000000" font-family="Courier" font-size="400" text-anchor="middle" x="12670" y="18660">M</text>
  </g>
  <path d="M 12420 18940 l 0 320 600 -300 0 280 -600 -280 0 -20" stroke="#000000" stroke-width="20" fill="#00FF00" />
  <path d="M 12080 18460 l 1220 700" stroke="#FF0000" stroke-width="40" fill="none" />
  <path d="M 12620 17640 l 0 -540" stroke="#000000" stroke-width="20" fill="#FF0000" />
  <path d="M 12980 16877 l -14 44 -13 29 -13 23 -14 19 -13 16 -13 14 -14 13 -13 11 -13 11 -14 9 -13 8 -13 8 -14 7 -13 6 -13 5 -14 5 -13 5 -13 3 -14 4 -13 3 -13 2 -14 2 -13 1 -13 1 -14 0 -13 0 -13 0 -14 -1 -13 -1 -13 -2 -14 -2 -13 -3 -13 -4 -14 -3 -13 -5 -13 -5 -14 -5 -13 -6 -13 -7 -14 -8 -13 -8 -13 -9 -14 -11 -13 -11 -13 -13 -14 -14 -13 -16 -13 -19 -14 -23 -13 -29 -13 -44 0 -113 13 -44 13 -29 14 -23 13 -19 13 -16 14 -14 13 -13 13 -11 14 -11 13 -9 13 -8 14 -8 13 -7 13 -6 14 -5 13 -5 13 -5 14 -3 13 -4 13 -3 14 -2 13 -2 13 -1 14 -1 13 0 13 0 14 0 13 1 13 1 14 2 13 2 13 3 14 4 13 3 13 5 14 5 13 5 13 6 14 7 13 8 13 8 14 9 13 11 13 11 14 13 13 14 13 16 14 19 13 23 13 29 14 44 0 113" stroke="#808080" stroke-width="20" fill="#00FF00" />
  <g>
    <rect x="12440" y="16600" width="400" height="420" stroke-width="0" fill="#00FF00" />
    <text fill="#000000" font-family="Courier" font-size="400" text-anchor="middle" x="12640" y="17010">M</text>
  </g>
  <path d="M 12320 17420 l 0 400 680 -360 0 340 -680 -360 0 -20" stroke="#000000" stroke-width="20" fill="#00FF00" />
  <path d="M 32120 7940 l 0 -540" stroke="#000000" stroke-width="20" fill="#FF0000" />
  <path d="M 32460 7177 l -14 44 -13 29 -13 23 -14 19 -13 16 -13 14 -14 13 -13 11 -13 11 -14 9 -13 8 -13 8 -14 7 -13 6 -13 5 -14 5 -13 5 -13 3 -14 4 -13 3 -13 2 -14 2 -13 1 -13 1 -14 0 -13 0 -13 0 -14 -1 -13 -1 -13 -2 -14 -2 -13 -3 -13 -4 -14 -3 -13 -5 -13 -5 -14 -5 -13 -6 -13 -7 -14 -8 -13 -8 -13 -9 -14 -11 -13 -11 -13 -13 -14 -14 -13 -16 -13 -19 -14 -23 -13 -29 -13 -44 0 -113 13 -44 13 -29 14 -23 13 -19 13 -16 14 -14 13 -13 13 -11 14 -11 13 -9 13 -8 14 -8 13 -7 13 -6 14 -5 13 -5 13 -5 14 -3 13 -4 13 -3 14 -2 13 -2 13 -1 14 -1 13 0 13 0 14 0 13 1 13 1 14 2 13 2 13 3 14 4 13 3 13 5 14 5 13 5 13 6 14 7 13 8 13 8 14 9 13 11 13 11 14 13 13 14 13 16 14 19 13 23 13 29 14 44 0 113" stroke="#808080" stroke-width="20" fill="#FF0000" />
  <g>
    <rect x="31920" y="6880" width="400" height="420" stroke-width="0" fill="#FF0000" />
    <text fill="#000000" font-family="Courier" font-size="400" text-anchor="middle" x="32120" y="7290">M</text>
  </g>
  <path d="M 31800 7720 l 0 400 680 -360 0 340 -680 -360 0 -20" stroke="#000000" stroke-width="20" fill="#FF0000" />
  <path d="M 32120 9460 l 0 -540" stroke="#000000" stroke-width="20" fill="#FF0000" />
  <path d="M 32460 8697 l -14 44 -13 29 -13 23 -14 19 -13 16 -13 14 -14 13 -13 11 -13 11 -14 9 -13 8 -13 8 -14 7 -13 6 -13 5 -14 5 -13 5 -13 3 -14 4 -13 3 -13 2 -14 2 -13 1 -13 1 -14 0 -13 0 -13 0 -14 -1 -13 -1 -13 -2 -14 -2 -13 -3 -13 -4 -14 -3 -13 -5 -13 -5 -14 -5 -13 -6 -13 -7 -14 -8 -13 -8 -13 -9 -14 -11 -13 -11 -13 -13 -14 -14 -13 -16 -13 -19 -14 -23 -13 -29 -13 -44 0 -113 13 -44 13 -29 14 -23 13 -19 13 -16 14 -14 13 -13 13 -11 14 -11 13 -9 13 -8 14 -8 13 -7 13 -6 14 -5 13 -5 13 -5 14 -3 13 -4 13 -3 14 -2 13 -2 13 -1 14 -1 13 0 13 0 14 0 13 1 13 1 14 2 13 2 13 3 14 4 13 3 13 5 14 5 13 5 13 6 14 7 13 8 13 8 14 9 13 11 13 11 14 13 13 14 13 16 14 19 13 23 13 29 14 44 0 113" stroke="#808080" stroke-width="20" fill="#FF0000" />
  <g>
    <rect x="31920" y="8420" width="400" height="420" stroke-width="0" fill="#FF0000" />
    <text fill="#000000" font-family="Courier" font-size="400" text-anchor="middle" x="32120" y="8830">M</text>
  </g>
  <path d="M 31800 9240 l 0 420 680 -380 0 340 -680 -360 0 -20" stroke="#000000" stroke-width="20" fill="#FF0000" />
  <path d="M 32080 14280 l 0 -520" stroke="#000000" stroke-width="20" fill="#FF0000" />
  <path d="M 32440 13517 l -14 44 -13 29 -13 23 -14 19 -13 16 -13 14 -14 13 -13 11 -13 11 -14 9 -13 8 -13 8 -14 7 -13 6 -13 5 -14 5 -13 5 -13 3 -14 4 -13 3 -13 2 -14 2 -13 1 -13 1 -14 0 -13 0 -13 0 -14 -1 -13 -1 -13 -2 -14 -2 -13 -3 -13 -4 -14 -3 -13 -5 -13 -5 -14 -5 -13 -6 -13 -7 -14 -8 -13 -8 -13 -9 -14 -11 -13 -11 -13 -13 -14 -14 -13 -16 -13 -19 -14 -23 -13 -29 -13 -44 0 -113 13 -44 13 -29 14 -23 13 -19 13 -16 14 -14 13 -13 13 -11 14 -11 13 -9 13 -8 14 -8 13 -7 13 -6 14 -5 13 -5 13 -5 14 -3 13 -4 13 -3 14 -2 13 -2 13 -1 14 -1 13 0 13 0 14 0 13 1 13 1 14 2 13 2 13 3 14 4 13 3 13 5 14 5 13 5 13 6 14 7 13 8 13 8 14 9 13 11 13 11 14 13 13 14 13 16 14 19 13 23 13 29 14 44 0 113" stroke="#808080" stroke-width="20" fill="#FF0000" />
  <g>
    <rect x="31880" y="13240" width="400" height="420" stroke-width="0" fill="#FF0000" />
    <text fill="#000000" font-family="Courier" font-size="400" text-anchor="middle" x="32080" y="13650">M</text>
  </g>
  <path d="M 31780 14080 l 0 400 680 -380 0 360 -680 -360 0 -20" stroke="#000000" stroke-width="20" fill="#FF0000" />
  <path d="M 32020 15960 l 0 -540" stroke="#000000" stroke-width="20" fill="#FF0000" />
  <path d="M 32380 15197 l -14 44 -13 29 -13 23 -14 19 -13 16 -13 14 -14 13 -13 11 -13 11 -14 9 -13 8 -13 8 -14 7 -13 6 -13 5 -14 5 -13 5 -13 3 -14 4 -13 3 -13 2 -14 2 -13 1 -13 1 -14 0 -13 0 -13 0 -14 -1 -13 -1 -13 -2 -14 -2 -13 -3 -13 -4 -14 -3 -13 -5 -13 -5 -14 -5 -13 -6 -13 -7 -14 -8 -13 -8 -13 -9 -14 -11 -13 -11 -13 -13 -14 -14 -13 -16 -13 -19 -14 -23 -13 -29 -13 -44 0 -113 13 -44 13 -29 14 -23 13 -19 13 -16 14 -14 13 -13 13 -11 14 -11 13 -9 13 -8 14 -8 13 -7 13 -6 14 -5 13 -5 13 -5 14 -3 13 -4 13 -3 14 -2 13 -2 13 -1 14 -1 13 0 13 0 14 0 13 1 13 1 14 2 13 2 13 3 14 4 13 3 13 5 14 5 13 5 13 6 14 7 13 8 13 8 14 9 13 11 13 11 14 13 13 14 13 16 14 19 13 23 13 29 14 44 0 113" stroke="#808080" stroke-width="20" fill="#FF0000" />
  <g>
    <rect x="31820" y="14900" width="400" height="420" stroke-width="0" fill="#FF0000" />
    <text fill="#000000" font-family="Courier" font-size="400" text-anchor="middle" x="32020" y="15310">M</text>
  </g>
  <path d="M 31720 15740 l 0 400 680 -360 0 340 -680 -360 0 -20" stroke="#000000" stroke-width="20" fill="#FF0000" />
  <path d="M 32060 17500 l 0 -540" stroke="#000000" stroke-width="20" fill="#FF0000" />
  <path d="M 32400 16737 l -14 44 -13 29 -13 23 -14 19 -13 16 -13 14 -14 13 -13 11 -13 11 -14 9 -13 8 -13 8 -14 7 -13 6 -13 5 -14 5 -13 5 -13 3 -14 4 -13 3 -13 2 -14 2 -13 1 -13 1 -14 0 -13 0 -13 0 -14 -1 -13 -1 -13 -2 -14 -2 -13 -3 -13 -4 -14 -3 -13 -5 -13 -5 -14 -5 -13 -6 -13 -7 -14 -8 -13 -8 -13 -9 -14 -11 -13 -11 -13 -13 -14 -14 -13 -16 -13 -19 -14 -23 -13 -29 -13 -44 0 -113 13 -44 13 -29 14 -23 13 -19 13 -16 14 -14 13 -13 13 -11 14 -11 13 -9 13 -8 14 -8 13 -7 13 -6 14 -5 13 -5 13 -5 14 -3 13 -4 13 -3 14 -2 13 -2 13 -1 14 -1 13 0 13 0 14 0 13 1 13 1 14 2 13 2 13 3 14 4 13 3 13 5 14 5 13 5 13 6 14 7 13 8 13 8 14 9 13 11 13 11 14 13 13 14 13 16 14 19 13 23 13 29 14 44 0 113" stroke="#808080" stroke-width="20" fill="#808080" />
  <g>
    <rect x="31860" y="16460" width="400" height="420" stroke-width="0" fill="#808080" />
    <text fill="#000000" font-family="Courier" font-size="400" text-anchor="middle" x="32060" y="16870">M</text>
  </g>
  <path d="M 31760 17300 l 0 400 680 -380 0 360 -680 -360 0 -20" stroke="#000000" stroke-width="20" fill="#808080" />
  <path d="M 32120 11100 l 0 -540" stroke="#000000" stroke-width="20" fill="#FF0000" />
  <path d="M 32460 10337 l -14 44 -13 29 -13 23 -14 19 -13 16 -13 14 -14 13 -13 11 -13 11 -14 9 -13 8 -13 8 -14 7 -13 6 -13 5 -14 5 -13 5 -13 3 -14 4 -13 3 -13 2 -14 2 -13 1 -13 1 -14 0 -13 0 -13 0 -14 -1 -13 -1 -13 -2 -14 -2 -13 -3 -13 -4 -14 -3 -13 -5 -13 -5 -14 -5 -13 -6 -13 -7 -14 -8 -13 -8 -13 -9 -14 -11 -13 -11 -13 -13 -14 -14 -13 -16 -13 -19 -14 -23 -13 -29 -13 -44 0 -113 13 -44 13 -29 14 -23 13 -19 13 -16 14 -14 13 -13 13 -11 14 -11 13 -9 13 -8 14 -8 13 -7 13 -6 14 -5 13 -5 13 -5 14 -3 13 -4 13 -3 14 -2 13 -2 13 -1 14 -1 13 0 13 0 14 0 13 1 13 1 14 2 13 2 13 3 14 4 13 3 13 5 14 5 13 5 13 6 14 7 13 8 13 8 14 9 13 11 13 11 14 13 13 14 13 16 14 19 13 23 13 29 14 44 0 113" stroke="#808080" stroke-width="20" fill="#FFFF00" />
  <g>
    <rect x="31920" y="10060" width="400" height="420" stroke-width="0" fill="#FFFF00" />
    <text fill="#000000" font-family="Courier" font-size="400" text-anchor="middle" x="32120" y="10470">M</text>
  </g>
  <path d="M 31800 10880 l 0 400 680 -360 0 340 -680 -360 0 -20" stroke="#000000" stroke-width="20" fill="#FFFF00" />
  <path d="M 32080 12740 l 0 -540" stroke="#000000" stroke-width="20" fill="#FF0000" />
  <path d="M 32440 11977 l -14 44 -13 29 -13 23 -14 19 -13 16 -13 14 -14 13 -13 11 -13 11 -14 9 -13 8 -13 8 -14 7 -13 6 -13 5 -14 5 -13 5 -13 3 -14 4 -13 3 -13 2 -14 2 -13 1 -13 1 -14 0 -13 0 -13 0 -14 -1 -13 -1 -13 -2 -14 -2 -13 -3 -13 -4 -14 -3 -13 -5 -13 -5 -14 -5 -13 -6 -13 -7 -14 -8 -13 -8 -13 -9 -14 -11 -13 -11 -13 -13 -14 -14 -13 -16 -13 -19 -14 -23 -13 -29 -13 -44 0 -113 13 -44 13 -29 14 -23 13 -19 13 -16 14 -14 13 -13 13 -11 14 -11 13 -9 13 -8 14 -8 13 -7 13 -6 14 -5 13 -5 13 -5 14 -3 13 -4 13 -3 14 -2 13 -2 13 -1 14 -1 13 0 13 0 14 0 13 1 13 1 14 2 13 2 13 3 14 4 13 3 13 5 14 5 13 5 13 6 14 7 13 8 13 8 14 9 13 11 13 11 14 13 13 14 13 16 14 19 13 23 13 29 14 44 0 113" stroke="#808080" stroke-width="20" fill="#FFFF00" />
  <g>
    <rect x="31880" y="11680" width="400" height="420" stroke-width="0" fill="#FFFF00" />
    <text fill="#000000" font-family="Courier" font-size="400" text-anchor="middle" x="32080" y="12090">M</text>
  </g>
  <path d="M 31780 12520 l 0 400 680 -360 0 340 -680 -360 0 -20" stroke="#000000" stroke-width="20" fill="#FFFF00" />
  <path d="M 32860 18745 l -40 146 -40 80 -40 60 -40 48 -40 41 -40 35 -40 30 -40 26 -40 23 -40 19 -40 17 -40 15 -40 12 -40 10 -40 8 -40 5 -40 4 -40 2 -40 0 -40 -2 -40 -4 -40 -5 -40 -8 -40 -10 -40 -12 -40 -15 -40 -17 -40 -19 -40 -23 -40 -26 -40 -30 -40 -35 -40 -41 -40 -48 -40 -60 -40 -80 -40 -146 0 -169 40 -146 40 -80 40 -60 40 -48 40 -41 40 -35 40 -30 40 -26 40 -23 40 -19 40 -17 40 -15 40 -12 40 -10 40 -8 40 -5 40 -4 40 -2 40 0 40 2 40 4 40 5 40 8 40 10 40 12 40 15 40 17 40 19 40 23 40 26 40 30 40 35 40 41 40 48 40 60 40 80 40 146 0 169" stroke="#FF0000" stroke-width="40" fill="#C0C0C0" />
  <path d="M 32140 18940 l 0 -420" stroke="#000000" stroke-width="20" fill="#FF0000" />
  <path d="M 32440 18349 l -14 38 -13 24 -13 19 -14 16 -13 14 -13 11 -14 11 -13 9 -13 8 -14 8 -13 6 -13 6 -14 5 -13 5 -13 4 -14 3 -13 3 -13 3 -14 2 -13 1 -13 1 -14 0 -13 0 -13 0 -14 -1 -13 -1 -13 -2 -14 -3 -13 -3 -13 -3 -14 -4 -13 -5 -13 -5 -14 -6 -13 -6 -13 -8 -14 -8 -13 -9 -13 -11 -14 -11 -13 -14 -13 -16 -14 -19 -13 -24 -13 -38 0 -97 13 -38 13 -24 14 -19 13 -16 13 -14 14 -11 13 -11 13 -9 14 -8 13 -8 13 -6 14 -6 13 -5 13 -5 14 -4 13 -3 13 -3 14 -3 13 -2 13 -1 14 -1 13 0 13 0 14 0 13 1 13 1 14 2 13 3 13 3 14 3 13 4 13 5 14 5 13 6 13 6 14 8 13 8 13 9 14 11 13 11 13 14 14 16 13 19 13 24 14 38 0 97" stroke="#808080" stroke-width="20" fill="#00FF00" />
  <g>
    <rect x="31960" y="18140" width="340" height="320" stroke-width="0" fill="#00FF00" />
    <text fill="#000000" font-family="Courier" font-size="400" text-anchor="middle" x="32130" y="18500">M</text>
  </g>
  <path d="M 31880 18780 l 0 320 580 -300 0 280 -580 -280 0 -20" stroke="#000000" stroke-width="20" fill="#00FF00" />
  <path d="M 31540 18300 l 1220 700" stroke="#FF0000" stroke-width="40" fill="none" />
  <path d="M 51660 14280 l 0 -520" stroke="#000000" stroke-width="20" fill="#FF0000" />
  <path d="M 52000 13517 l -14 44 -13 29 -13 23 -14 19 -13 16 -13 14 -14 13 -13 11 -13 11 -14 9 -13 8 -13 8 -14 7 -13 6 -13 5 -14 5 -13 5 -13 3 -14 4 -13 3 -13 2 -14 2 -13 1 -13 1 -14 0 -13 0 -13 0 -14 -1 -13 -1 -13 -2 -14 -2 -13 -3 -13 -4 -14 -3 -13 -5 -13 -5 -14 -5 -13 -6 -13 -7 -14 -8 -13 -8 -13 -9 -14 -11 -13 -11 -13 -13 -14 -14 -13 -16 -13 -19 -14 -23 -13 -29 -13 -44 0 -113 13 -44 13 -29 14 -23 13 -19 13 -16 14 -14 13 -13 13 -11 14 -11 13 -9 13 -8 14 -8 13 -7 13 -6 14 -5 13 -5 13 -5 14 -3 13 -4 13 -3 14 -2 13 -2 13 -1 14 -1 13 0 13 0 14 0 13 1 13 1 14 2 13 2 13 3 14 4 13 3 13 5 14 5 13 5 13 6 14 7 13 8 13 8 14 9 13 11 13 11 14 13 13 14 13 16 14 19 13 23 13 29 14 44 0 113" stroke="#808080" stroke-width="20" fill="#FF0000" />
  <g>
    <rect x="51460" y="13240" width="400" height="420" stroke-width="0" fill="#FF0000" />
    <text fill="#000000" font-family="Courier" font-size="400" text-anchor="middle" x="51660" y="13650">M</text>
  </g>
  <path d="M 51340 14080 l 0 400 680 -380 0 360 -680 -360 0 -20" stroke="#000000" stroke-width="20" fill="#FF0000" />
  <path d="M 51660 15900 l 0 -540" stroke="#000000" stroke-width="20" fill="#FF0000" />
  <path d="M 52000 15137 l -14 44 -13 29 -13 23 -14 19 -13 16 -13 14 -14 13 -13 11 -13 11 -14 9 -13 8 -13 8 -14 7 -13 6 -13 5 -14 5 -13 5 -13 3 -14 4 -13 3 -13 2 -14 2 -13 1 -13 1 -14 0 -13 0 -13 0 -14 -1 -13 -1 -13 -2 -14 -2 -13 -3 -13 -4 -14 -3 -13 -5 -13 -5 -14 -5 -13 -6 -13 -7 -14 -8 -13 -8 -13 -9 -14 -11 -13 -11 -13 -13 -14 -14 -13 -16 -13 -19 -14 -23 -13 -29 -13 -44 0 -113 13 -44 13 -29 14 -23 13 -19 13 -16 14 -14 13 -13 13 -11 14 -11 13 -9 13 -8 14 -8 13 -7 13 -6 14 -5 13 -5 13 -5 14 -3 13 -4 13 -3 14 -2 13 -2 13 -1 14 -1 13 0 13 0 14 0 13 1 13 1 14 2 13 2 13 3 14 4 13 3 13 5 14 5 13 5 13 6 14 7 13 8 13 8 14 9 13 11 13 11 14 13 13 14 13 16 14 19 13 23 13 29 14 44 0 113" stroke="#808080" stroke-width="20" fill="#FF0000" />
  <g>
    <rect x="51460" y="14860" width="400" height="420" stroke-width="0" fill="#FF0000" />
    <text fill="#000000" font-family="Courier" font-size="400" text-anchor="middle" x="51660" y="15270">M</text>
  </g>
  <path d="M 51340 15680 l 0 400 680 -360 0 340 -680 -360 0 -20" stroke="#000000" stroke-width="20" fill="#FF0000" />
  <path d="M 51660 17540 l 0 -540" stroke="#000000" stroke-width="20" fill="#FF0000" />
  <path d="M 52000 16777 l -14 44 -13 29 -13 23 -14 19 -13 16 -13 14 -14 13 -13 11 -13 11 -14 9 -13 8 -13 8 -14 7 -13 6 -13 5 -14 5 -13 5 -13 3 -14 4 -13 3 -13 2 -14 2 -13 1 -13 1 -14 0 -13 0 -13 0 -14 -1 -13 -1 -13 -2 -14 -2 -13 -3 -13 -4 -14 -3 -13 -5 -13 -5 -14 -5 -13 -6 -13 -7 -14 -8 -13 -8 -13 -9 -14 -11 -13 -11 -13 -13 -14 -14 -13 -16 -13 -19 -14 -23 -13 -29 -13 -44 0 -113 13 -44 13 -29 14 -23 13 -19 13 -16 14 -14 13 -13 13 -11 14 -11 13 -9 13 -8 14 -8 13 -7 13 -6 14 -5 13 -5 13 -5 14 -3 13 -4 13 -3 14 -2 13 -2 13 -1 14 -1 13 0 13 0 14 0 13 1 13 1 14 2 13 2 13 3 14 4 13 3 13 5 14 5 13 5 13 6 14 7 13 8 13 8 14 9 13 11 13 11 14 13 13 14 13 16 14 19 13 23 13 29 14 44 0 113" stroke="#808080" stroke-width="20" fill="#FF0000" />
  <g>
    <rect x="51460" y="16480" width="400" height="420" stroke-width="0" fill="#FF0000" />
    <text fill="#000000" font-family="Courier" font-size="400" text-anchor="middle" x="51660" y="16890">M</text>
  </g>
  <path d="M 51340 17320 l 0 400 680 -360 0 340 -680 -360 0 -20" stroke="#000000" stroke-width="20" fill="#FF0000" />
  <path d="M 51660 19120 l 0 -540" stroke="#000000" stroke-width="20" fill="#FF0000" />
  <path d="M 52000 18357 l -14 44 -13 29 -13 23 -14 19 -13 16 -13 14 -14 13 -13 11 -13 11 -14 9 -13 8 -13 8 -14 7 -13 6 -13 5 -14 5 -13 5 -13 3 -14 4 -13 3 -13 2 -14 2 -13 1 -13 1 -14 0 -13 0 -13 0 -14 -1 -13 -1 -13 -2 -14 -2 -13 -3 -13 -4 -14 -3 -13 -5 -13 -5 -14 -5 -13 -6 -13 -7 -14 -8 -13 -8 -13 -9 -14 -11 -13 -11 -13 -13 -14 -14 -13 -16 -13 -19 -14 -23 -13 -29 -13 -44 0 -113 13 -44 13 -29 14 -23 13 -19 13 -16 14 -14 13 -13 13 -11 14 -11 13 -9 13 -8 14 -8 13 -7 13 -6 14 -5 13 -5 13 -5 14 -3 13 -4 13 -3 14 -2 13 -2 13 -1 14 -1 13 0 13 0 14 0 13 1 13 1 14 2 13 2 13 3 14 4 13 3 13 5 14 5 13 5 13 6 14 7 13 8 13 8 14 9 13 11 13 11 14 13 13 14 13 16 14 19 13 23 13 29 14 44 0 113" stroke="#808080" stroke-width="20" fill="#FF0000" />
  <g>
    <rect x="51460" y="18060" width="400" height="420" stroke-width="0" fill="#FF0000" />
    <text fill="#000000" font-family="Courier" font-size="400" text-anchor="middle" x="51660" y="18470">M</text>
  </g>
  <path d="M 51340 18900 l 0 400 680 -360 0 340 -680 -360 0 -20" stroke="#000000" stroke-width="20" fill="#FF0000" />
  <path d="M 52460 12305 l -40 146 -40 80 -40 60 -40 48 -40 41 -40 35 -40 30 -40 26 -40 23 -40 19 -40 17 -40 15 -40 12 -40 10 -40 8 -40 5 -40 4 -40 2 -40 0 -40 -2 -40 -4 -40 -5 -40 -8 -40 -10 -40 -12 -40 -15 -40 -17 -40 -19 -40 -23 -40 -26 -40 -30 -40 -35 -40 -41 -40 -48 -40 -60 -40 -80 -40 -146 0 -169 40 -146 40 -80 40 -60 40 -48 40 -41 40 -35 40 -30 40 -26 40 -23 40 -19 40 -17 40 -15 40 -12 40 -10 40 -8 40 -5 40 -4 40 -2 40 0 40 2 40 4 40 5 40 8 40 10 40 12 40 15 40 17 40 19 40 23 40 26 40 30 40 35 40 41 40 48 40 60 40 80 40 146 0 169" stroke="#FF0000" stroke-width="40" fill="#C0C0C0" />
  <path d="M 51740 12520 l 0 -420" stroke="#000000" stroke-width="20" fill="#FF0000" />
  <path d="M 52040 11929 l -14 38 -13 24 -13 19 -14 16 -13 14 -13 11 -14 11 -13 9 -13 8 -14 8 -13 6 -13 6 -14 5 -13 5 -13 4 -14 3 -13 3 -13 3 -14 2 -13 1 -13 1 -14 0 -13 0 -13 0 -14 -1 -13 -1 -13 -2 -14 -3 -13 -3 -13 -3 -14 -4 -13 -5 -13 -5 -14 -6 -13 -6 -13 -8 -14 -8 -13 -9 -13 -11 -14 -11 -13 -14 -13 -16 -14 -19 -13 -24 -13 -38 0 -97 13 -38 13 -24 14 -19 13 -16 13 -14 14 -11 13 -11 13 -9 14 -8 13 -8 13 -6 14 -6 13 -5 13 -5 14 -4 13 -3 13 -3 14 -3 13 -2 13 -1 14 -1 13 0 13 0 14 0 13 1 13 1 14 2 13 3 13 3 14 3 13 4 13 5 14 5 13 6 13 6 14 8 13 8 13 9 14 11 13 11 13 14 14 16 13 19 13 24 14 38 0 97" stroke="#808080" stroke-width="20" fill="#00FF00" />
  <g>
    <rect x="51560" y="11700" width="340" height="320" stroke-width="0" fill="#00FF00" />
    <text fill="#000000" font-family="Courier" font-size="400" text-anchor="middle" x="51730" y="12060">M</text>
  </g>
  <path d="M 51480 12340 l 0 320 580 -280 0 260 -580 -280 0 -20" stroke="#000000" stroke-width="20" fill="#00FF00" />
  <path d="M 51140 11860 l 1220 720" stroke="#FF0000" stroke-width="40" fill="none" />
  <path d="M 52500 20285 l -40 146 -40 80 -40 60 -40 48 -40 41 -40 35 -40 30 -40 26 -40 23 -40 19 -40 17 -40 15 -40 12 -40 10 -40 8 -40 5 -40 4 -40 2 -40 0 -40 -2 -40 -4 -40 -5 -40 -8 -40 -10 -40 -12 -40 -15 -40 -17 -40 -19 -40 -23 -40 -26 -40 -30 -40 -35 -40 -41 -40 -48 -40 -60 -40 -80 -40 -146 0 -169 40 -146 40 -80 40 -60 40 -48 40 -41 40 -35 40 -30 40 -26 40 -23 40 -19 40 -17 40 -15 40 -12 40 -10 40 -8 40 -5 40 -4 40 -2 40 0 40 2 40 4 40 5 40 8 40 10 40 12 40 15 40 17 40 19 40 23 40 26 40 30 40 35 40 41 40 48 40 60 40 80 40 146 0 169" stroke="#FF0000" stroke-width="40" fill="#C0C0C0" />
  <path d="M 51760 20500 l 0 -420" stroke="#000000" stroke-width="20" fill="#FF0000" />
  <path d="M 52080 19909 l -14 38 -13 24 -13 19 -14 16 -13 14 -13 11 -14 11 -13 9 -13 8 -14 8 -13 6 -13 6 -14 5 -13 5 -13 4 -14 3 -13 3 -13 3 -14 2 -13 1 -13 1 -14 0 -13 0 -13 0 -14 -1 -13 -1 -13 -2 -14 -3 -13 -3 -13 -3 -14 -4 -13 -5 -13 -5 -14 -6 -13 -6 -13 -8 -14 -8 -13 -9 -13 -11 -14 -11 -13 -14 -13 -16 -14 -19 -13 -24 -13 -38 0 -97 13 -38 13 -24 14 -19 13 -16 13 -14 14 -11 13 -11 13 -9 14 -8 13 -8 13 -6 14 -6 13 -5 13 -5 14 -4 13 -3 13 -3 14 -3 13 -2 13 -1 14 -1 13 0 13 0 14 0 13 1 13 1 14 2 13 3 13 3 14 3 13 4 13 5 14 5 13 6 13 6 14 8 13 8 13 9 14 11 13 11 13 14 14 16 13 19 13 24 14 38 0 97" stroke="#808080" stroke-width="20" fill="#00FF00" />
  <g>
    <rect x="51580" y="19700" width="340" height="320" stroke-width="0" fill="#00FF00" />
    <text fill="#000000" font-family="Courier" font-size="400" text-anchor="middle" x="51750" y="20060">M</text>
  </g>
  <path d="M 51500 20340 l 0 300 600 -280 0 260 -600 -260 0 -20" stroke="#000000" stroke-width="20" fill="#00FF00" />
  <path d="M 51160 19840 l 1220 720" stroke="#FF0000" stroke-width="40" fill="none" />
</svg>