<?xml version="1.0" encoding="UTF-8"?>
<svg height="100%" width="100%" viewBox="0 0 60000 30000" version="1.1" xmlns="http://www.w3.org/2000/svg" xmlns:xlink="http://www.w3.org/1999/xlink" xmlns:PB="urn:osisoft-com-pb" xmlns:PBI="urn:osisoft-com-interface" xmlns:PBD="urn:osisoft-com-data" style="background-color:#C0C0C0">
  <title>jqxt1180</title>
  <defs />
  <path id="POLYGON1" d="M 2400 7540 l 47220 0" stroke="#80FFFF" stroke-width="20" fill="none" />
  <rect x="50760" y="1940" width="5340" height="4640" stroke="#000000" stroke-width="20" stroke-dasharray="60,60" fill="none" id="RECTANGLE1" />
  <g id="TEXT1">
    <rect x="52200" y="3340" width="2460" height="1840" stroke-width="0" fill="none" id="TEXT1_pbTextBoundingRectEl" />
    <text fill="#000000" font-family="Courier" font-size="480" text-anchor="middle" x="53430" y="4500" id="TEXT1_pbTextEl">空压站</text>
  </g>
  <path id="POLYGON4" d="M 50700 2580 l -33620 0" stroke="#80FFFF" stroke-width="20" fill="none" />
  <path id="POLYGON5" d="M 17080 2620 l 0 4880" stroke="#80FFFF" stroke-width="20" fill="none" />
  <path id="LINE5" d="M 2400 11040 l 46020 0" stroke="#80FFFF" stroke-width="20" fill="none" />
  <path id="POLYGON6" d="M 50700 3720 l -14600 0" stroke="#80FFFF" stroke-width="20" fill="none" />
  <path id="LINE6" d="M 50700 4860 l -13180 0" stroke="#80FFFF" stroke-width="20" fill="none" />
  <path id="LINE7" d="M 50640 6060 l -11840 0" stroke="#80FFFF" stroke-width="20" fill="none" />
  <rect x="46620" y="14320" width="3980" height="1480" stroke="#000000" stroke-width="20" stroke-dasharray="60,60" fill="none" id="RECTANGLE3" />
  <rect x="37340" y="14320" width="3980" height="1480" stroke="#000000" stroke-width="20" stroke-dasharray="60,60" fill="none" id="RECTANGLE7" />
  <rect x="30080" y="14320" width="3980" height="1480" stroke="#000000" stroke-width="20" stroke-dasharray="60,60" fill="none" id="RECTANGLE8" />
  <rect x="20800" y="14320" width="3980" height="1480" stroke="#000000" stroke-width="20" stroke-dasharray="60,60" fill="none" id="RECTANGLE9" />
  <rect x="39240" y="24380" width="6100" height="4560" stroke="#000000" stroke-width="20" stroke-dasharray="60,60" fill="none" id="RECTANGLE11" />
  <path id="POLYGON17" d="M 39220 28620 l -36820 0" stroke="#00D200" stroke-width="40" stroke-dasharray="60,60" fill="none" />
  <path id="LINE17" d="M 39040 26960 l -36640 0" stroke="#00D200" stroke-width="40" stroke-dasharray="60,60" fill="none" />
  <path id="LINE18" d="M 39220 26100 l -14500 0" stroke="#00D200" stroke-width="40" stroke-dasharray="60,60" fill="none" />
  <path id="LINE19" d="M 39180 25020 l -5480 0" stroke="#00D200" stroke-width="40" stroke-dasharray="60,60" fill="none" />
  <path id="POLYGON19" d="M 33860 16020 l 0 3280" stroke="#00D200" stroke-width="40" stroke-dasharray="60,60" fill="none" />
  <path id="LINE20" d="M 51340 23680 l -48940 0" stroke="#00D200" stroke-width="40" stroke-dasharray="60,60" fill="none" />
  <path id="LINE21" d="M 49540 22620 l -47140 0" stroke="#00D200" stroke-width="40" fill="none" />
  <path id="LINE22" d="M 54400 20640 l -52000 0" stroke="#00D200" stroke-width="40" stroke-dasharray="60,60" fill="none" />
  <path id="LINE23" d="M 55460 19720 l -53060 0" stroke="#00D200" stroke-width="40" stroke-dasharray="60,60" fill="none" />
  <rect x="8640" y="4300" width="4140" height="2580" stroke="#000000" stroke-width="20" fill="none" id="RECTANGLE12" />
  <path id="POLYGON26" d="M 8680 5100 l 4100 0" stroke="#000000" stroke-width="20" fill="none" />
  <path id="LINE26" d="M 8680 5720 l 4100 0" stroke="#000000" stroke-width="20" fill="none" />
  <path id="LINE27" d="M 8640 6240 l 4140 0" stroke="#000000" stroke-width="20" fill="none" />
  <path id="POLYGON27" d="M 9740 5140 l 0 1760" stroke="#000000" stroke-width="20" fill="none" />
  <g id="TEXT2">
    <rect x="8680" y="4380" width="4060" height="760" stroke-width="0" fill="none" id="TEXT2_pbTextBoundingRectEl" />
    <text fill="#000000" font-family="Helvetica" font-size="400" text-anchor="middle" x="10710" y="4960" id="TEXT2_pbTextEl">180_FT_0201</text>
  </g>
  <g id="TEXT3">
    <rect x="8680" y="5100" width="1000" height="560" stroke-width="0" fill="none" id="TEXT3_pbTextBoundingRectEl" />
    <text fill="#000000" font-family="Courier" font-size="368" text-anchor="middle" x="9180" y="5564" id="TEXT3_pbTextEl">工况</text>
  </g>
  <g id="TEXT4">
    <rect x="8680" y="5700" width="1000" height="560" stroke-width="0" fill="none" id="TEXT4_pbTextBoundingRectEl" />
    <text fill="#000000" font-family="Courier" font-size="368" text-anchor="middle" x="9180" y="6164" id="TEXT4_pbTextEl">标况</text>
  </g>
  <g id="TEXT5">
    <rect x="8680" y="6280" width="1000" height="560" stroke-width="0" fill="none" id="TEXT5_pbTextBoundingRectEl" />
    <text fill="#000000" font-family="Courier" font-size="368" text-anchor="middle" x="9180" y="6744" id="TEXT5_pbTextEl">累计</text>
  </g>
  <path id="POLYGON28" d="M 10640 6940 l 0 620" stroke="#000000" stroke-width="20" stroke-dasharray="60,60" fill="none" />
  <rect x="8660" y="7840" width="4140" height="2580" stroke="#000000" stroke-width="20" fill="none" id="RECTANGLE13" />
  <path id="LINE29" d="M 8680 8660 l 4120 0" stroke="#000000" stroke-width="20" fill="none" />
  <path id="LINE30" d="M 8680 9260 l 4120 0" stroke="#000000" stroke-width="20" fill="none" />
  <path id="LINE31" d="M 8660 9800 l 4140 0" stroke="#000000" stroke-width="20" fill="none" />
  <path id="LINE32" d="M 9760 8700 l 0 1760" stroke="#000000" stroke-width="20" fill="none" />
  <g id="TEXT6">
    <rect x="8700" y="7940" width="4060" height="760" stroke-width="0" fill="none" id="TEXT6_pbTextBoundingRectEl" />
    <text fill="#000000" font-family="Helvetica" font-size="400" text-anchor="middle" x="10730" y="8520" id="TEXT6_pbTextEl">180_FT_0202</text>
  </g>
  <g id="TEXT7">
    <rect x="8700" y="8640" width="1000" height="560" stroke-width="0" fill="none" id="TEXT7_pbTextBoundingRectEl" />
    <text fill="#000000" font-family="Courier" font-size="368" text-anchor="middle" x="9200" y="9104" id="TEXT7_pbTextEl">工况</text>
  </g>
  <g id="TEXT8">
    <rect x="8700" y="9260" width="1000" height="560" stroke-width="0" fill="none" id="TEXT8_pbTextBoundingRectEl" />
    <text fill="#000000" font-family="Courier" font-size="368" text-anchor="middle" x="9200" y="9724" id="TEXT8_pbTextEl">标况</text>
  </g>
  <g id="TEXT9">
    <rect x="8700" y="9840" width="1000" height="560" stroke-width="0" fill="none" id="TEXT9_pbTextBoundingRectEl" />
    <text fill="#000000" font-family="Courier" font-size="368" text-anchor="middle" x="9200" y="10304" id="TEXT9_pbTextEl">累计</text>
  </g>
  <path id="LINE33" d="M 10660 10480 l 0 560" stroke="#000000" stroke-width="20" stroke-dasharray="60,60" fill="none" />
  <path id="POLYGON42" d="M 6220 7500 l 0 -420" stroke="#000000" stroke-width="20" stroke-dasharray="60,60" fill="none" />
  <g id="TEXT10">
    <rect x="5000" y="5760" width="2560" height="960" stroke-width="0" fill="none" id="TEXT10_pbTextBoundingRectEl" />
    <text fill="#000000" font-family="Helvetica" font-size="400" text-anchor="middle" x="6280" y="6240" id="TEXT10_pbTextEl">180-TI0201<tspan x="6280" dy="400">                ℃</tspan></text>
  </g>
  <path id="LINE43" d="M 6160 10980 l 0 -400" stroke="#000000" stroke-width="20" stroke-dasharray="60,60" fill="none" />
  <g id="TEXT11">
    <rect x="4920" y="9340" width="2560" height="920" stroke-width="0" fill="none" id="TEXT11_pbTextBoundingRectEl" />
    <text fill="#000000" font-family="Helvetica" font-size="400" text-anchor="middle" x="6200" y="9800" id="TEXT11_pbTextEl">180-TI0202<tspan x="6200" dy="400">                 ℃</tspan></text>
  </g>
  <rect x="13920" y="7900" width="3160" height="2180" stroke="#000000" stroke-width="20" fill="none" id="RECTANGLE14" />
  <path id="POLYGON45" d="M 13920 8420 l 3140 0" stroke="#000000" stroke-width="20" fill="none" />
  <path id="POLYGON46" d="M 13940 9540 l 3120 0" stroke="#000000" stroke-width="20" fill="none" />
  <path id="POLYGON47" d="M 13940 8980 l 3140 0" stroke="#000000" stroke-width="20" fill="none" />
  <g id="TEXT13">
    <rect x="13860" y="7860" width="3140" height="540" stroke-width="0" fill="none" id="TEXT13_pbTextBoundingRectEl" />
    <text fill="#000000" font-family="Helvetica" font-size="368" text-anchor="middle" x="15430" y="8314" id="TEXT13_pbTextEl">180PI-0205</text>
  </g>
  <g id="TEXT14">
    <rect x="13900" y="8480" width="3140" height="540" stroke-width="0" fill="none" id="TEXT14_pbTextBoundingRectEl" />
    <text fill="#000000" font-family="Helvetica" font-size="368" text-anchor="middle" x="15470" y="8934" id="TEXT14_pbTextEl">P                 KPa</text>
  </g>
  <g id="TEXT15">
    <rect x="13900" y="9040" width="3140" height="540" stroke-width="0" fill="none" id="TEXT15_pbTextBoundingRectEl" />
    <text fill="#000000" font-family="Helvetica" font-size="368" text-anchor="middle" x="15470" y="9494" id="TEXT15_pbTextEl">S                 KPa</text>
  </g>
  <g id="TEXT16">
    <rect x="13780" y="9560" width="3140" height="540" stroke-width="0" fill="none" id="TEXT16_pbTextBoundingRectEl" />
    <text fill="#000000" font-family="Helvetica" font-size="368" text-anchor="middle" x="15350" y="10014" id="TEXT16_pbTextEl">O                 %</text>
  </g>
  <path id="LINE47" d="M 15440 10120 l 0 920" stroke="#000000" stroke-width="20" stroke-dasharray="60,60" fill="none" />
  <g name="Valve3d2">
    <path d="M 19636 7106 l -356 0 2 -32 7 -35 6 -30 13 -32 16 -28 17 -28 20 -25 24 -26 27 -18 26 -19 28 -18 31 -14 33 -11 35 -7 33 -5 38 -2 37 2 35 5 33 7 33 11 31 14 30 18 29 19 24 18 24 26 20 25 20 28 13 28 13 32 9 30 4 35 3 32 -358 0 0 0" stroke-width="0" fill="#003C00" />
    <path d="M 19662 7030 l 0 459 -66 0 0 -459 66 0 0 0" stroke-width="0" fill="#009600" />
    <path d="M 19662 7030 l 0 459 -44 0 0 -459 44 0 0 0" stroke-width="0" fill="#00B400" />
    <path d="M 19684 7030 l 0 459 -44 0 0 -459 44 0 0 0" stroke-width="0" fill="#00D200" />
    <path d="M 19552 7009 l 0 462 0 0 0 -462 0 0 0 0" stroke-width="0" fill="#F00000" />
    <path d="M 19607 7025 l 0 474" stroke="#000000" stroke-width="20" fill="none" />
    <path d="M 19671 7499 l 0 -474" stroke="#000000" stroke-width="20" fill="none" />
    <path d="M 19640 7106 l -351 0 0 -39 0 -19 0 -39 22 -37 22 -18 0 -21 21 -37 22 -21 44 -18 22 -19 22 -21 44 -18 22 0 44 -19 22 0 44 0 44 0 22 0 44 19 22 0 44 18 22 21 22 19 22 18 44 21 0 37 21 21 22 18 22 37 0 39 0 19 0 39 -351 0 0 0" stroke-width="0" fill="#005A00" />
    <path d="M 19640 7106 l -329 0 0 -39 0 -19 22 -39 0 -18 21 -37 22 -21 22 -37 22 -21 0 -18 44 -19 22 -21 22 -18 44 0 22 -19 22 0 44 0 22 0 44 0 22 19 44 0 22 18 22 21 22 19 22 18 22 21 22 37 22 21 21 37 0 18 0 39 22 19 0 39 -329 0 0 0" stroke-width="0" fill="#007800" />
    <path d="M 19640 7106 l -264 0 0 -39 0 -19 22 -39 0 -18 22 -37 0 -21 22 -37 22 -21 0 -18 22 -19 22 -21 22 -18 22 0 44 -19 22 0 22 0 22 0 22 0 22 19 22 0 44 18 0 21 22 19 22 18 22 21 22 37 0 21 22 37 0 18 0 39 22 19 0 39 -264 0 0 0" stroke-width="0" fill="#009600" />
    <path d="M 19640 7106 l -198 0 0 -39 0 -19 22 -39 0 -37 0 -18 22 -21 0 -37 22 -21 0 -18 22 -19 22 -21 22 -18 0 0 22 -19 22 0 22 0 22 0 22 0 0 19 22 0 22 18 22 21 0 19 22 18 22 21 0 37 22 21 0 18 0 37 0 39 22 19 0 39 -198 0 0 0" stroke-width="0" fill="#00B400" />
    <path d="M 19640 7106 l -132 0 0 -39 0 -19 22 -39 0 -37 0 -18 0 -21 22 -37 0 -21 0 -18 22 -19 0 -21 22 -18 0 0 22 -19 0 0 22 0 0 0 22 0 22 19 0 0 22 18 0 21 0 19 22 18 0 21 22 37 0 21 0 18 0 37 0 39 22 19 0 39 -132 0 0 0" stroke-width="0" fill="#00D200" />
    <path d="M 19638 7111 l -358 0 0 0 2 -35 7 -32 8 -33 11 -30 16 -27 17 -28 22 -26 22 -25 27 -18 26 -19 31 -18 30 -14 33 -12 33 -7 35 -4 38 -3 0 0 37 3 35 4 33 7 33 12 31 14 33 18 26 19 27 18 22 25 19 26 20 28 13 27 13 30 9 33 7 32 2 35 -360 0" stroke="#000000" stroke-width="20" fill="none" />
    <path d="M 19640 7106 l -44 0 0 -39 0 -19 0 -39 0 -37 22 -18 0 -21 0 -37 0 -21 0 -18 0 -19 0 -21 0 -18 0 0 22 -19 0 0 0 0 0 0 0 0 0 19 22 0 0 18 0 21 0 19 0 18 0 21 0 37 0 21 0 18 0 37 0 39 0 19 0 39 -22 0 0 0" stroke-width="0" fill="#00F000" />
    <path d="M 19201 7700 l 0 -402 878 402 0 -402 -878 402 0 0" stroke-width="0" fill="#005A00" />
    <path d="M 19201 7700 l 0 -409 878 409 0 -409 -878 409 0 0" stroke-width="0" fill="#007800" />
    <path d="M 19201 7642 l 0 -286 878 286 0 -286 -878 286 0 0" stroke-width="0" fill="#009600" />
    <path d="M 19201 7605 l 0 -210 878 210 0 -210 -878 210 0 0" stroke-width="0" fill="#00B400" />
    <path d="M 19201 7566 l 0 -134 878 134 0 -134 -878 134 0 0" stroke-width="0" fill="#00D200" />
    <path d="M 19201 7529 l 0 -58 878 58 0 -58 -878 58 0 0" stroke-width="0" fill="#00F000" />
    <path d="M 19205 7700 l 0 -405 874 405 0 -405 -874 405" stroke="#000000" stroke-width="20" fill="none" />
  </g>
  <path id="POLYGON48" d="M 17140 9820 l 780 0 0 -3880 1660 0 0 740" stroke="#000000" stroke-width="20" stroke-dasharray="60,60" fill="none" />
  <g id="TEXT17">
    <rect x="18480" y="8040" width="2340" height="620" stroke-width="0" fill="none" id="TEXT17_pbTextBoundingRectEl" />
    <text fill="#000000" font-family="Helvetica" font-size="368" text-anchor="middle" x="19650" y="8534" id="TEXT17_pbTextEl">180-PV0205</text>
  </g>
  <g id="TEXT18">
    <rect x="44160" y="1760" width="6520" height="800" stroke-width="0" fill="none" id="TEXT18_pbTextBoundingRectEl" />
    <text fill="#000000" font-family="Courier" font-size="368" text-anchor="middle" x="47420" y="2344" id="TEXT18_pbTextEl">自装置空气缓冲罐</text>
  </g>
  <g id="TEXT19">
    <rect x="44200" y="2860" width="6520" height="800" stroke-width="0" fill="none" id="TEXT19_pbTextBoundingRectEl" />
    <text fill="#000000" font-family="Courier" font-size="368" text-anchor="middle" x="47460" y="3444" id="TEXT19_pbTextEl">自仪表空气缓冲罐</text>
  </g>
  <g id="TEXT20">
    <rect x="41840" y="3920" width="8860" height="800" stroke-width="0" fill="none" id="TEXT20_pbTextBoundingRectEl" />
    <text fill="#000000" font-family="Courier" font-size="368" text-anchor="middle" x="46270" y="4504" id="TEXT20_pbTextEl">自仪表空分紧急事故储罐</text>
  </g>
  <g id="TEXT21">
    <rect x="44600" y="5140" width="6520" height="800" stroke-width="0" fill="none" id="TEXT21_pbTextBoundingRectEl" />
    <text fill="#000000" font-family="Courier" font-size="368" text-anchor="middle" x="47860" y="5724" id="TEXT21_pbTextEl">3.9MPa仪表空气</text>
  </g>
  <path id="POLYGON49" d="M 20980 11120 l 0 3200" stroke="#80FFFF" stroke-width="20" fill="none" />
  <path id="POLYGON50" d="M 22100 11120 l 0 3140" stroke="#80FFFF" stroke-width="20" fill="none" />
  <path id="POLYGON51" d="M 22100 13280 l 1180 0" stroke="#80FFFF" stroke-width="20" fill="none" />
  <path id="POLYGON52" d="M 23260 10780 l 0 -3240" stroke="#80FFFF" stroke-width="20" fill="none" />
  <path id="POLYGON53" d="M 23260 13260 l 0 -1960" stroke="#80FFFF" stroke-width="20" fill="none" />
  <path id="POLYGON54" d="M 24440 14300 l 0 -1640" stroke="#80FFFF" stroke-width="20" fill="none" />
  <path id="POLYGON55" d="M 24440 12660 l 14480 0" stroke="#80FFFF" stroke-width="20" fill="none" />
  <path id="POLYGON56" d="M 38860 6040 l 0 1260" stroke="#80FFFF" stroke-width="20" fill="none" />
  <path id="POLYGON57" d="M 38860 7700 l 0 3020" stroke="#80FFFF" stroke-width="20" fill="none" />
  <path id="POLYGON58" d="M 38880 12660 l 0 -1420" stroke="#80FFFF" stroke-width="20" fill="none" />
  <path id="POLYGON59" d="M 37520 4900 l 0 2340" stroke="#80FFFF" stroke-width="20" fill="none" />
  <path id="POLYGON60" d="M 37520 7820 l 0 3240" stroke="#80FFFF" stroke-width="20" fill="none" />
  <path id="POLYGON61" d="M 36120 3720 l 0 3580" stroke="#80FFFF" stroke-width="20" fill="none" />
  <path id="POLYGON62" d="M 36120 7820 l 0 3180" stroke="#80FFFF" stroke-width="20" fill="none" />
  <path id="POLYGON63" d="M 48440 11120 l 0 3260" stroke="#80FFFF" stroke-width="20" fill="none" />
  <path id="POLYGON64" d="M 49600 7540 l 0 5980" stroke="#80FFFF" stroke-width="20" fill="none" />
  <path id="POLYGON65" d="M 49600 13520 l -1180 0" stroke="#80FFFF" stroke-width="20" fill="none" />
  <path id="POLYGON66" d="M 31780 14200 l 0 -1360" stroke="#80FFFF" stroke-width="20" fill="none" />
  <path id="POLYGON67" d="M 31780 11100 l 0 1260" stroke="#80FFFF" stroke-width="20" fill="none" />
  <path id="POLYGON68" d="M 31780 13640 l 1400 0" stroke="#80FFFF" stroke-width="20" fill="none" />
  <path id="POLYGON69" d="M 33180 13640 l 0 -840" stroke="#80FFFF" stroke-width="20" fill="none" />
  <path id="POLYGON70" d="M 33180 11300 l 0 1020" stroke="#80FFFF" stroke-width="20" fill="none" />
  <path id="POLYGON71" d="M 33180 10840 l 0 -3300" stroke="#80FFFF" stroke-width="20" fill="none" />
  <g id="TEXT23">
    <rect x="20840" y="14360" width="3960" height="1480" stroke-width="0" fill="none" id="TEXT23_pbTextBoundingRectEl" />
    <text fill="#000000" font-family="Courier" font-size="368" text-anchor="middle" x="22820" y="15284" id="TEXT23_pbTextEl">空分1</text>
  </g>
  <g id="TEXT24">
    <rect x="30140" y="14380" width="3960" height="1480" stroke-width="0" fill="none" id="TEXT24_pbTextBoundingRectEl" />
    <text fill="#000000" font-family="Courier" font-size="368" text-anchor="middle" x="32120" y="15304" id="TEXT24_pbTextEl">空分2</text>
  </g>
  <g id="TEXT25">
    <rect x="37320" y="14380" width="3960" height="1480" stroke-width="0" fill="none" id="TEXT25_pbTextBoundingRectEl" />
    <text fill="#000000" font-family="Courier" font-size="368" text-anchor="middle" x="39300" y="15304" id="TEXT25_pbTextEl">后备系统</text>
  </g>
  <g id="TEXT26">
    <rect x="46620" y="14360" width="3960" height="1480" stroke-width="0" fill="none" id="TEXT26_pbTextBoundingRectEl" />
    <text fill="#000000" font-family="Courier" font-size="368" text-anchor="middle" x="48600" y="15284" id="TEXT26_pbTextEl">空分3</text>
  </g>
  <path id="POLYGON73" d="M 32920 22560 l 0 -1720" stroke="#00D200" stroke-width="40" fill="none" />
  <path id="POLYGON74" d="M 32920 20480 l 0 -660" stroke="#00D200" stroke-width="40" fill="none" />
  <path id="POLYGON75" d="M 32920 19400 l 0 -3600" stroke="#00D200" stroke-width="40" fill="none" />
  <path id="POLYGON77" d="M 32040 19400 l 0 -3540" stroke="#00D200" stroke-width="40" stroke-dasharray="60,60" fill="none" />
  <path id="POLYGON78" d="M 31180 15880 l 0 3780" stroke="#00D200" stroke-width="40" stroke-dasharray="60,60" fill="none" />
  <path id="LINE78" d="M 30300 15920 l 0 3780" stroke="#00D200" stroke-width="40" stroke-dasharray="60,60" fill="none" />
  <path id="POLYGON79" d="M 40420 19400 l 0 -3600" stroke="#00D200" stroke-width="40" fill="none" />
  <path id="POLYGON80" d="M 40420 19820 l 0 540" stroke="#00D200" stroke-width="40" fill="none" />
  <path id="POLYGON81" d="M 40420 20920 l 0 1620" stroke="#00D200" stroke-width="40" fill="none" />
  <path id="POLYGON82" d="M 40320 21500 l -2360 0" stroke="#00D200" stroke-width="40" fill="none" />
  <path id="POLYGON83" d="M 40360 21080 l -1240 0" stroke="#00D200" stroke-width="40" fill="none" />
  <path id="POLYGON84" d="M 39080 21020 l 0 -280" stroke="#00D200" stroke-width="40" fill="none" />
  <path id="POLYGON85" d="M 39080 20500 l 0 -680" stroke="#00D200" stroke-width="40" fill="none" />
  <path id="POLYGON86" d="M 39080 19500 l 0 -3640" stroke="#00D200" stroke-width="40" fill="none" />
  <path id="LINE86" d="M 37960 19540 l 0 -3640" stroke="#00D200" stroke-width="40" fill="none" />
  <path id="POLYGON87" d="M 37960 19820 l 0 520" stroke="#00D200" stroke-width="40" fill="none" />
  <path id="POLYGON88" d="M 37920 20740 l 0 760" stroke="#00D200" stroke-width="40" fill="none" />
  <path id="POLYGON89" d="M 24620 26040 l 0 -1900" stroke="#00D200" stroke-width="40" stroke-dasharray="60,60" fill="none" />
  <path id="LINE90" d="M 24600 19480 l 0 -3660" stroke="#00D200" stroke-width="40" stroke-dasharray="60,60" fill="none" />
  <path id="POLYGON91" d="M 24600 19920 l 0 620" stroke="#00D200" stroke-width="40" stroke-dasharray="60,60" fill="none" />
  <path id="POLYGON92" d="M 24600 20880 l 0 1320" stroke="#00D200" stroke-width="40" stroke-dasharray="60,60" fill="none" />
  <path id="LINE92" d="M 24620 22880 l 0 600" stroke="#00D200" stroke-width="40" stroke-dasharray="60,60" fill="none" />
  <path id="POLYGON93" d="M 23720 22600 l 0 -1800" stroke="#00D200" stroke-width="40" fill="none" />
  <path id="LINE93" d="M 23720 20240 l 0 -220" stroke="#00D200" stroke-width="40" fill="none" />
  <path id="POLYGON94" d="M 23700 15820 l 0 3680" stroke="#00D200" stroke-width="40" fill="none" />
  <path id="POLYGON96" d="M 22720 15880 l 0 3520" stroke="#00D200" stroke-width="40" stroke-dasharray="60,60" fill="none" />
  <path id="LINE96" d="M 21860 15800 l 0 3860" stroke="#00D200" stroke-width="40" stroke-dasharray="60,60" fill="none" />
  <path id="LINE97" d="M 20960 15860 l 0 3840" stroke="#00D200" stroke-width="40" stroke-dasharray="60,60" fill="none" />
  <path id="LINE98" d="M 46840 15920 l 0 3840" stroke="#00D200" stroke-width="40" stroke-dasharray="60,60" fill="none" />
  <path id="LINE99" d="M 47700 15920 l 0 3840" stroke="#00D200" stroke-width="40" stroke-dasharray="60,60" fill="none" />
  <path id="LINE100" d="M 48580 15920 l 0 3560" stroke="#00D200" stroke-width="40" stroke-dasharray="60,60" fill="none" />
  <path id="LINE101" d="M 49540 15860 l 0 3620" stroke="#00D200" stroke-width="40" fill="none" />
  <path id="LINE102" d="M 50440 15800 l 0 3580" stroke="#00D200" stroke-width="40" stroke-dasharray="60,60" fill="none" />
  <path id="POLYGON102" d="M 55500 19680 l 0 -13080" stroke="#00D200" stroke-width="40" stroke-dasharray="60,60" fill="none" />
  <path id="LINE103" d="M 54460 19240 l 0 -12580" stroke="#00D200" stroke-width="40" stroke-dasharray="60,60" fill="none" />
  <path id="POLYGON103" d="M 54460 19940 l 0 540" stroke="#00D200" stroke-width="40" stroke-dasharray="60,60" fill="none" />
  <path id="POLYGON104" d="M 49520 19940 l 0 500" stroke="#00D200" stroke-width="40" fill="none" />
  <path id="LINE104" d="M 49540 20800 l 0 1800" stroke="#00D200" stroke-width="40" fill="none" />
  <path id="POLYGON105" d="M 51440 23580 l 0 -2720" stroke="#00D200" stroke-width="40" stroke-dasharray="60,60" fill="none" />
  <path id="LINE105" d="M 51460 19320 l 0 -8860" stroke="#00D200" stroke-width="40" stroke-dasharray="60,60" fill="none" />
  <path id="POLYGON106" d="M 51420 19920 l 0 600" stroke="#00D200" stroke-width="40" stroke-dasharray="60,60" fill="none" />
  <path id="POLYGON107" d="M 51380 10440 l 0 -3840" stroke="#00D200" stroke-width="40" fill="none" />
  <path id="POLYGON108" d="M 51380 10440 l 960 0" stroke="#00D200" stroke-width="40" fill="none" />
  <path id="POLYGON109" d="M 52280 10440 l 0 -3840" stroke="#00D200" stroke-width="40" fill="none" />
  <g id="TEXT32">
    <rect x="40380" y="26080" width="3860" height="1300" stroke-width="0" fill="none" id="TEXT32_pbTextBoundingRectEl" />
    <text fill="#000000" font-family="Courier" font-size="480" text-anchor="middle" x="42310" y="26970" id="TEXT32_pbTextEl">给排水部分</text>
  </g>
  <g id="TEXT33">
    <rect x="26000" y="0" width="8000" height="2000" stroke-width="0" fill="none" id="TEXT33_pbTextBoundingRectEl" />
    <text fill="#000000" font-family="Helvetica" font-size="800" font-weight="bold" text-anchor="middle" x="30000" y="1400" id="TEXT33_pbTextEl">180-界区系统1</text>
  </g>
  <g id="TEXT34">
    <rect x="14300" y="5780" width="2560" height="960" stroke-width="0" fill="none" id="TEXT34_pbTextBoundingRectEl" />
    <text fill="#000000" font-family="Helvetica" font-size="400" text-anchor="middle" x="15580" y="6260" id="TEXT34_pbTextEl">180-PI0202<tspan x="15580" dy="400">             kPa</tspan></text>
  </g>
  <path id="LINE109" d="M 15540 7380 l 0 -420" stroke="#000000" stroke-width="20" stroke-dasharray="60,60" fill="none" />
  <rect x="12440" y="13120" width="4720" height="4980" stroke="#000000" stroke-width="20" fill="none" />
  <path d="M 16460 13120 l 0 4960" stroke="#000000" stroke-width="20" fill="none" />
  <g name="Pump">
    <path d="M 7014 16217 l 0 0 -7 23 -6 21 -5 26 -3 22 -5 23 0 24 -2 23 0 23 0 0 2 57 8 54 13 53 18 52 23 47 26 46 28 43 36 39 36 34 41 33 44 28 46 24 47 18 51 15 52 8 54 2 0 0 56 -2 52 -8 50 -15 47 -18 47 -24 43 -28 41 -33 38 -34 34 -39 31 -43 26 -46 21 -47 18 -52 14 -53 9 -54 2 -57 0 0 -2 -57 -9 -56 -14 -52 -18 -49 -21 -48 -26 -47 -31 -43 -34 -38 -38 -37 -41 -30 -43 -27 -47 -25 -47 -18 -50 -15 -52 -6 -56 -4 -877 0 0 367 380 0" stroke="#000000" stroke-width="40" fill="#FF0000" />
    <path d="M 7156 16808 l 0 0 40 32 37 30 43 24 42 23 48 15 49 13 47 8 49 2 0 0 51 -2 49 -8 48 -13 47 -16 46 -23 43 -25 37 -31 36 -31 172 354 -1054 0 170 -352" stroke="#000000" stroke-width="40" fill="#FF0000" />
  </g>
  <g name="Pump">
    <path d="M 10134 16217 l 0 0 -7 23 -6 21 -5 26 -3 22 -5 23 0 24 -2 23 0 23 0 0 2 57 8 54 13 53 18 52 23 47 26 46 28 43 36 39 36 34 41 33 44 28 46 24 47 18 51 15 52 8 54 2 0 0 56 -2 52 -8 50 -15 47 -18 47 -24 43 -28 41 -33 38 -34 34 -39 31 -43 26 -46 21 -47 18 -52 14 -53 9 -54 2 -57 0 0 -2 -57 -9 -56 -14 -52 -18 -49 -21 -48 -26 -47 -31 -43 -34 -38 -38 -37 -41 -30 -43 -27 -47 -25 -47 -18 -50 -15 -52 -6 -56 -4 -877 0 0 367 380 0" stroke="#000000" stroke-width="40" fill="#FF0000" />
    <path d="M 10276 16808 l 0 0 40 32 37 30 43 24 42 23 48 15 49 13 47 8 49 2 0 0 51 -2 49 -8 48 -13 47 -16 46 -23 43 -25 37 -31 36 -31 172 354 -1054 0 170 -352" stroke="#000000" stroke-width="40" fill="#FF0000" />
  </g>
  <path id="POLYGON34" d="M 12440 17840 l -3920 0" stroke="#00D200" stroke-width="40" fill="none" />
  <path id="POLYGON35" d="M 8520 17780 l 0 -1120" stroke="#00D200" stroke-width="40" fill="none" />
  <path id="POLYGON36" d="M 8460 16660 l -440 0" stroke="#00D200" stroke-width="40" fill="none" />
  <path id="POLYGON37" d="M 11560 17780 l 0 -1120" stroke="#00D200" stroke-width="40" fill="none" />
  <path id="POLYGON38" d="M 11560 16660 l -440 0" stroke="#00D200" stroke-width="40" fill="none" />
  <path id="POLYGON39" d="M 6600 16040 l 0 -1820" stroke="#00D200" stroke-width="40" fill="none" />
  <path id="POLYGON40" d="M 9740 15980 l 0 -740" stroke="#00D200" stroke-width="40" fill="none" />
  <path id="POLYGON41" d="M 9620 15240 l -3020 0" stroke="#00D200" stroke-width="40" fill="none" />
  <path id="POLYGON43" d="M 6560 14240 l -4160 0" stroke="#00D200" stroke-width="40" fill="none" />
  <g id="TEXT27">
    <rect x="13780" y="14600" width="2060" height="1020" stroke-width="0" fill="none" id="TEXT27_pbTextBoundingRectEl" />
    <text fill="#000000" font-family="Courier" font-size="368" text-anchor="middle" x="14810" y="15294" id="TEXT27_pbTextEl">废水池</text>
  </g>
  <g id="TEXT28">
    <rect x="12920" y="15920" width="3240" height="1080" stroke-width="0" fill="none" id="TEXT28_pbTextBoundingRectEl" />
    <text fill="#000000" font-family="Helvetica" font-size="368" text-anchor="middle" x="14540" y="16460" id="TEXT28_pbTextEl">180-LI8101<tspan x="14540" dy="368">               %</tspan></text>
  </g>
  <path id="POLYGON72" d="M 16460 16480 l -440 0" stroke="#000000" stroke-width="20" stroke-dasharray="60,60" fill="none" />
  <g id="TEXT29">
    <rect x="9440" y="17780" width="2160" height="1140" stroke-width="0" fill="none" id="TEXT29_pbTextBoundingRectEl" />
    <text fill="#000000" font-family="Helvetica" font-size="368" text-anchor="middle" x="10520" y="18534" id="TEXT29_pbTextEl">B泵</text>
  </g>
  <g id="TEXT31">
    <rect x="6240" y="17800" width="2160" height="1140" stroke-width="0" fill="none" id="TEXT31_pbTextBoundingRectEl" />
    <text fill="#000000" font-family="Helvetica" font-size="368" text-anchor="middle" x="7320" y="18554" id="TEXT31_pbTextEl">A泵</text>
  </g>
  <g id="TEXT36">
    <rect x="3220" y="12380" width="2560" height="960" stroke-width="0" fill="none" id="TEXT36_pbTextBoundingRectEl" />
    <text fill="#000000" font-family="Helvetica" font-size="400" text-anchor="middle" x="4500" y="12860" id="TEXT36_pbTextEl">180-PI8101<tspan x="4500" dy="400">             kPa</tspan></text>
  </g>
  <path id="LINE110" d="M 4440 13560 l 0 560" stroke="#000000" stroke-width="20" stroke-dasharray="60,60" fill="none" />
  <path id="LINE111" d="M 33840 20420 l 0 -560" stroke="#00D200" stroke-width="40" stroke-dasharray="60,60" fill="none" />
  <path id="LINE112" d="M 33840 22140 l 0 -1260" stroke="#00D200" stroke-width="40" stroke-dasharray="60,60" fill="none" />
  <path id="LINE113" d="M 33840 23380 l 0 -600" stroke="#00D200" stroke-width="40" stroke-dasharray="60,60" fill="none" />
  <path id="LINE114" d="M 33840 24880 l 0 -720" stroke="#00D200" stroke-width="40" stroke-dasharray="60,60" fill="none" />
  <path id="POLYGON114" d="M 6600 14440 l 1160 0" stroke="#000000" stroke-width="20" stroke-dasharray="60,60" fill="none" />
  <path id="POLYGON115" d="M 7720 14440 l 0 -920" stroke="#000000" stroke-width="20" stroke-dasharray="60,60" fill="none" />
  <g id="TEXT37">
    <rect x="6000" y="11900" width="3460" height="1400" stroke-width="0" fill="none" id="TEXT37_pbTextBoundingRectEl" />
    <text fill="#000000" font-family="Helvetica" font-size="400" text-anchor="middle" x="7730" y="12400" id="TEXT37_pbTextEl">180-PI8101<tspan x="7730" dy="400">             t/h</tspan><tspan x="7730" dy="400">             t</tspan></text>
  </g>
  <path id="POLYGON116" d="M 20920 16540 l -1380 0" stroke="#000000" stroke-width="20" stroke-dasharray="60,60" fill="none" />
  <path id="LINE116" d="M 20920 17680 l -1380 0" stroke="#000000" stroke-width="20" stroke-dasharray="60,60" fill="none" />
  <path id="LINE117" d="M 30220 16640 l -1380 0" stroke="#000000" stroke-width="20" stroke-dasharray="60,60" fill="none" />
  <path id="LINE118" d="M 30220 17720 l -1380 0" stroke="#000000" stroke-width="20" stroke-dasharray="60,60" fill="none" />
  <path id="LINE119" d="M 46800 16700 l -1380 0" stroke="#000000" stroke-width="20" stroke-dasharray="60,60" fill="none" />
  <path id="LINE120" d="M 46800 17720 l -1380 0" stroke="#000000" stroke-width="20" stroke-dasharray="60,60" fill="none" />
  <g id="TEXT38">
    <rect x="6400" y="20880" width="3460" height="1400" stroke-width="0" fill="none" id="TEXT38_pbTextBoundingRectEl" />
    <text fill="#000000" font-family="Helvetica" font-size="400" text-anchor="middle" x="8130" y="21380" id="TEXT38_pbTextEl">180-FIQ0303<tspan x="8130" dy="400">             t/h</tspan><tspan x="8130" dy="400">             t</tspan></text>
  </g>
  <path id="LINE121" d="M 8080 22520 l 0 -380" stroke="#000000" stroke-width="20" stroke-dasharray="60,60" fill="none" />
  <path id="LINE122" d="M 8000 26820 l 0 -400" stroke="#000000" stroke-width="20" stroke-dasharray="60,60" fill="none" />
  <path id="LINE123" d="M 7980 28560 l 0 -400" stroke="#000000" stroke-width="20" stroke-dasharray="60,60" fill="none" />
  <g id="TEXT39">
    <rect x="6300" y="24800" width="3460" height="1400" stroke-width="0" fill="none" id="TEXT39_pbTextBoundingRectEl" />
    <text fill="#000000" font-family="Helvetica" font-size="400" text-anchor="middle" x="8030" y="25300" id="TEXT39_pbTextEl">180-FIRQ0701<tspan x="8030" dy="400">             t/h</tspan><tspan x="8030" dy="400">             t</tspan></text>
  </g>
  <g id="TEXT40">
    <rect x="6300" y="27120" width="3460" height="1400" stroke-width="0" fill="none" id="TEXT40_pbTextBoundingRectEl" />
    <text fill="#000000" font-family="Helvetica" font-size="400" text-anchor="middle" x="8030" y="27620" id="TEXT40_pbTextEl">180-FIRQ0702<tspan x="8030" dy="400">             t/h</tspan><tspan x="8030" dy="400">             t</tspan></text>
  </g>
  <g id="TEXT41">
    <rect x="13620" y="25220" width="2560" height="960" stroke-width="0" fill="none" id="TEXT41_pbTextBoundingRectEl" />
    <text fill="#000000" font-family="Helvetica" font-size="400" text-anchor="middle" x="14900" y="25700" id="TEXT41_pbTextEl">180-PI0702<tspan x="14900" dy="400">             kPa</tspan></text>
  </g>
  <path id="LINE124" d="M 14900 26880 l 0 -400" stroke="#000000" stroke-width="20" stroke-dasharray="60,60" fill="none" />
  <g id="TEXT42">
    <rect x="17100" y="16060" width="2560" height="960" stroke-width="0" fill="none" id="TEXT42_pbTextBoundingRectEl" />
    <text fill="#000000" font-family="Helvetica" font-size="400" text-anchor="middle" x="18380" y="16540" id="TEXT42_pbTextEl">180-PI0404<tspan x="18380" dy="400">             kPa</tspan></text>
  </g>
  <g id="TEXT43">
    <rect x="26420" y="16180" width="2560" height="960" stroke-width="0" fill="none" id="TEXT43_pbTextBoundingRectEl" />
    <text fill="#000000" font-family="Helvetica" font-size="400" text-anchor="middle" x="27700" y="16660" id="TEXT43_pbTextEl">180-PI0504<tspan x="27700" dy="400">             kPa</tspan></text>
  </g>
  <g id="TEXT44">
    <rect x="42980" y="16220" width="2560" height="960" stroke-width="0" fill="none" id="TEXT44_pbTextBoundingRectEl" />
    <text fill="#000000" font-family="Helvetica" font-size="400" text-anchor="middle" x="44260" y="16700" id="TEXT44_pbTextEl">180-PI0604<tspan x="44260" dy="400">             kPa</tspan></text>
  </g>
  <g id="TEXT45">
    <rect x="17040" y="17200" width="2560" height="960" stroke-width="0" fill="none" id="TEXT45_pbTextBoundingRectEl" />
    <text fill="#000000" font-family="Helvetica" font-size="400" text-anchor="middle" x="18320" y="17680" id="TEXT45_pbTextEl">180-TI0402<tspan x="18320" dy="400">                ℃</tspan></text>
  </g>
  <g id="TEXT46">
    <rect x="26340" y="17260" width="2560" height="960" stroke-width="0" fill="none" id="TEXT46_pbTextBoundingRectEl" />
    <text fill="#000000" font-family="Helvetica" font-size="400" text-anchor="middle" x="27620" y="17740" id="TEXT46_pbTextEl">180-TI0502<tspan x="27620" dy="400">                ℃</tspan></text>
  </g>
  <g id="TEXT47">
    <rect x="42920" y="17300" width="2560" height="960" stroke-width="0" fill="none" id="TEXT47_pbTextBoundingRectEl" />
    <text fill="#000000" font-family="Helvetica" font-size="400" text-anchor="middle" x="44200" y="17780" id="TEXT47_pbTextEl">180-TI0602<tspan x="44200" dy="400">                ℃</tspan></text>
  </g>
  <path id="POLYGON124" d="M 54400 18480 l -520 0" stroke="#000000" stroke-width="20" stroke-dasharray="60,60" fill="none" />
  <path id="LINE125" d="M 54400 17140 l -520 0" stroke="#000000" stroke-width="20" stroke-dasharray="60,60" fill="none" />
  <path id="LINE126" d="M 54400 15780 l -520 0" stroke="#000000" stroke-width="20" stroke-dasharray="60,60" fill="none" />
  <path id="LINE127" d="M 56040 18480 l -520 0" stroke="#000000" stroke-width="20" stroke-dasharray="60,60" fill="none" />
  <path id="LINE128" d="M 56040 17180 l -520 0" stroke="#000000" stroke-width="20" stroke-dasharray="60,60" fill="none" />
  <g id="TEXT48">
    <rect x="51200" y="15080" width="3460" height="1400" stroke-width="0" fill="none" id="TEXT48_pbTextBoundingRectEl" />
    <text fill="#000000" font-family="Helvetica" font-size="400" text-anchor="middle" x="52930" y="15580" id="TEXT48_pbTextEl">590-FIRQ0701<tspan x="52930" dy="400">             t/h</tspan><tspan x="52930" dy="400">             t</tspan></text>
  </g>
  <g id="TEXT49">
    <rect x="51520" y="16660" width="2560" height="960" stroke-width="0" fill="none" id="TEXT49_pbTextBoundingRectEl" />
    <text fill="#000000" font-family="Helvetica" font-size="400" text-anchor="middle" x="52800" y="17140" id="TEXT49_pbTextEl">590-PI0701<tspan x="52800" dy="400">             kPa</tspan></text>
  </g>
  <g id="TEXT50">
    <rect x="55860" y="16680" width="2560" height="960" stroke-width="0" fill="none" id="TEXT50_pbTextBoundingRectEl" />
    <text fill="#000000" font-family="Helvetica" font-size="400" text-anchor="middle" x="57140" y="17160" id="TEXT50_pbTextEl">590-PI0703<tspan x="57140" dy="400">             kPa</tspan></text>
  </g>
  <g id="TEXT51">
    <rect x="51500" y="18000" width="2560" height="960" stroke-width="0" fill="none" id="TEXT51_pbTextBoundingRectEl" />
    <text fill="#000000" font-family="Helvetica" font-size="400" text-anchor="middle" x="52780" y="18480" id="TEXT51_pbTextEl">590-TI0701<tspan x="52780" dy="400">                ℃</tspan></text>
  </g>
  <g id="TEXT52">
    <rect x="55940" y="18000" width="2560" height="960" stroke-width="0" fill="none" id="TEXT52_pbTextBoundingRectEl" />
    <text fill="#000000" font-family="Helvetica" font-size="400" text-anchor="middle" x="57220" y="18480" id="TEXT52_pbTextEl">590-TI0702<tspan x="57220" dy="400">                ℃</tspan></text>
  </g>
  <path id="POLYGON95" d="M 22720 20540 l 0 -640" stroke="#00D200" stroke-width="40" stroke-dasharray="60,60" fill="none" />
  <path id="POLYGON128" d="M 22660 20000 l -3320 0" stroke="#000000" stroke-width="20" stroke-dasharray="60,60" fill="none" />
  <path id="LINE129" d="M 22680 20180 l -680 0" stroke="#000000" stroke-width="20" stroke-dasharray="60,60" fill="none" />
  <path id="POLYGON129" d="M 22020 20380 l 0 700" stroke="#000000" stroke-width="20" stroke-dasharray="60,60" fill="none" />
  <path id="POLYGON130" d="M 22020 21020 l -2840 0" stroke="#000000" stroke-width="20" stroke-dasharray="60,60" fill="none" />
  <path id="POLYGON131" d="M 22660 20380 l -320 0" stroke="#000000" stroke-width="20" stroke-dasharray="60,60" fill="none" />
  <path id="POLYGON132" d="M 22280 20380 l 0 1660" stroke="#000000" stroke-width="20" stroke-dasharray="60,60" fill="none" />
  <path id="POLYGON133" d="M 22280 21980 l -2940 0" stroke="#000000" stroke-width="20" stroke-dasharray="60,60" fill="none" />
  <path id="LINE133" d="M 32080 20500 l 0 -640" stroke="#00D200" stroke-width="40" stroke-dasharray="60,60" fill="none" />
  <path id="LINE134" d="M 32020 19980 l -3380 0" stroke="#000000" stroke-width="20" stroke-dasharray="60,60" fill="none" />
  <path id="LINE135" d="M 32040 20160 l -680 0" stroke="#000000" stroke-width="20" stroke-dasharray="60,60" fill="none" />
  <path id="LINE136" d="M 31380 20340 l 0 700" stroke="#000000" stroke-width="20" stroke-dasharray="60,60" fill="none" />
  <path id="LINE137" d="M 31380 20980 l -2840 0" stroke="#000000" stroke-width="20" stroke-dasharray="60,60" fill="none" />
  <path id="LINE138" d="M 32020 20340 l -320 0" stroke="#000000" stroke-width="20" stroke-dasharray="60,60" fill="none" />
  <path id="LINE139" d="M 31640 20340 l 0 1720" stroke="#000000" stroke-width="20" stroke-dasharray="60,60" fill="none" />
  <path id="LINE140" d="M 31640 22040 l -2940 0" stroke="#000000" stroke-width="20" stroke-dasharray="60,60" fill="none" />
  <path id="LINE141" d="M 48620 20520 l 0 -640" stroke="#00D200" stroke-width="40" stroke-dasharray="60,60" fill="none" />
  <path id="LINE142" d="M 48540 19980 l -3320 0" stroke="#000000" stroke-width="20" stroke-dasharray="60,60" fill="none" />
  <path id="LINE143" d="M 48580 20160 l -700 0" stroke="#000000" stroke-width="20" stroke-dasharray="60,60" fill="none" />
  <path id="LINE144" d="M 47920 20340 l 0 720" stroke="#000000" stroke-width="20" stroke-dasharray="60,60" fill="none" />
  <path id="LINE145" d="M 47920 21000 l -2840 0" stroke="#000000" stroke-width="20" stroke-dasharray="60,60" fill="none" />
  <path id="LINE146" d="M 48540 20340 l -300 0" stroke="#000000" stroke-width="20" stroke-dasharray="60,60" fill="none" />
  <path id="LINE147" d="M 48180 20360 l 0 1760" stroke="#000000" stroke-width="20" stroke-dasharray="60,60" fill="none" />
  <path id="LINE148" d="M 48180 22140 l -2940 0" stroke="#000000" stroke-width="20" stroke-dasharray="60,60" fill="none" />
  <g id="TEXT53">
    <rect x="15500" y="19700" width="3980" height="960" stroke-width="0" fill="none" id="TEXT53_pbTextBoundingRectEl" />
    <text fill="#000000" font-family="Helvetica" font-size="400" text-anchor="middle" x="17490" y="20180" id="TEXT53_pbTextEl">FT_81_8402_92_F<tspan x="17490" dy="400">                     t/h</tspan></text>
  </g>
  <g id="TEXT54">
    <rect x="24960" y="19700" width="3980" height="960" stroke-width="0" fill="none" id="TEXT54_pbTextBoundingRectEl" />
    <text fill="#000000" font-family="Helvetica" font-size="400" text-anchor="middle" x="26950" y="20180" id="TEXT54_pbTextEl">FT_82_8402_92_F<tspan x="26950" dy="400">                     t/h</tspan></text>
  </g>
  <g id="TEXT55">
    <rect x="41440" y="19720" width="3980" height="960" stroke-width="0" fill="none" id="TEXT55_pbTextBoundingRectEl" />
    <text fill="#000000" font-family="Helvetica" font-size="400" text-anchor="middle" x="43430" y="20200" id="TEXT55_pbTextEl">FT_83_8402_92_F<tspan x="43430" dy="400">                     t/h</tspan></text>
  </g>
  <g id="TEXT56">
    <rect x="15120" y="20620" width="5180" height="1260" stroke-width="0" fill="none" id="TEXT56_pbTextBoundingRectEl" />
    <text fill="#000000" font-family="Helvetica" font-size="400" text-anchor="middle" x="17710" y="21050" id="TEXT56_pbTextEl">TI_83_8402_92_T <tspan x="17710" dy="400"> </tspan><tspan x="17710" dy="400">                ℃                </tspan></text>
  </g>
  <g id="TEXT57">
    <rect x="24440" y="20700" width="5180" height="1260" stroke-width="0" fill="none" id="TEXT57_pbTextBoundingRectEl" />
    <text fill="#000000" font-family="Helvetica" font-size="400" text-anchor="middle" x="27030" y="21130" id="TEXT57_pbTextEl">TI_83_8402_92_T <tspan x="27030" dy="400"> </tspan><tspan x="27030" dy="400">                ℃                </tspan></text>
  </g>
  <g id="TEXT58">
    <rect x="40900" y="20680" width="5180" height="1260" stroke-width="0" fill="none" id="TEXT58_pbTextBoundingRectEl" />
    <text fill="#000000" font-family="Helvetica" font-size="400" text-anchor="middle" x="43490" y="21110" id="TEXT58_pbTextEl">TI_83_8402_92_T <tspan x="43490" dy="400"> </tspan><tspan x="43490" dy="400">                ℃                </tspan></text>
  </g>
  <g id="TEXT59">
    <rect x="15920" y="21740" width="4820" height="960" stroke-width="0" fill="none" id="TEXT59_pbTextBoundingRectEl" />
    <text fill="#000000" font-family="Helvetica" font-size="400" text-anchor="middle" x="18330" y="22220" id="TEXT59_pbTextEl">PT_81_8402_92_P               <tspan x="18330" dy="400">           MPa</tspan></text>
  </g>
  <g id="TEXT60">
    <rect x="25260" y="21780" width="4820" height="960" stroke-width="0" fill="none" id="TEXT60_pbTextBoundingRectEl" />
    <text fill="#000000" font-family="Helvetica" font-size="400" text-anchor="middle" x="27670" y="22260" id="TEXT60_pbTextEl">PT_82_8402_92_P               <tspan x="27670" dy="400">           MPa</tspan></text>
  </g>
  <g id="TEXT61">
    <rect x="41820" y="21780" width="4820" height="960" stroke-width="0" fill="none" id="TEXT61_pbTextBoundingRectEl" />
    <text fill="#000000" font-family="Helvetica" font-size="400" text-anchor="middle" x="44230" y="22260" id="TEXT61_pbTextEl">PT_83_8402_92_P               <tspan x="44230" dy="400">           MPa</tspan></text>
  </g>
  <g id="TEXT62">
    <rect x="500" y="6180" width="2740" height="1020" stroke-width="0" fill="none" id="TEXT62_pbTextBoundingRectEl" />
    <text fill="#000000" font-family="Courier" font-size="368" text-anchor="middle" x="1870" y="6874" id="TEXT62_pbTextEl">装置空气</text>
  </g>
  <g id="TEXT63">
    <rect x="500" y="9920" width="2740" height="1020" stroke-width="0" fill="none" id="TEXT63_pbTextBoundingRectEl" />
    <text fill="#000000" font-family="Courier" font-size="368" text-anchor="middle" x="1870" y="10614" id="TEXT63_pbTextEl">仪表空气</text>
  </g>
  <g id="TEXT64">
    <rect x="500" y="13060" width="2740" height="1020" stroke-width="0" fill="none" id="TEXT64_pbTextBoundingRectEl" />
    <text fill="#000000" font-family="Courier" font-size="368" text-anchor="middle" x="1870" y="13754" id="TEXT64_pbTextEl">生产污水</text>
  </g>
  <g id="TEXT65">
    <rect x="500" y="18580" width="2740" height="1020" stroke-width="0" fill="none" id="TEXT65_pbTextBoundingRectEl" />
    <text fill="#000000" font-family="Courier" font-size="368" text-anchor="middle" x="1870" y="19274" id="TEXT65_pbTextEl">循环水</text>
  </g>
  <g id="TEXT66">
    <rect x="500" y="19700" width="2740" height="1020" stroke-width="0" fill="none" id="TEXT66_pbTextBoundingRectEl" />
    <text fill="#000000" font-family="Courier" font-size="368" text-anchor="middle" x="1870" y="20394" id="TEXT66_pbTextEl">循环水</text>
  </g>
  <g id="TEXT67">
    <rect x="500" y="27480" width="2740" height="1020" stroke-width="0" fill="none" id="TEXT67_pbTextBoundingRectEl" />
    <text fill="#000000" font-family="Courier" font-size="368" text-anchor="middle" x="1870" y="28174" id="TEXT67_pbTextEl">生活水</text>
  </g>
  <g id="TEXT68">
    <rect x="500" y="25760" width="2740" height="1020" stroke-width="0" fill="none" id="TEXT68_pbTextBoundingRectEl" />
    <text fill="#000000" font-family="Courier" font-size="368" text-anchor="middle" x="1870" y="26454" id="TEXT68_pbTextEl">生产水</text>
  </g>
  <g id="TEXT69">
    <rect x="500" y="21500" width="2740" height="1020" stroke-width="0" fill="none" id="TEXT69_pbTextBoundingRectEl" />
    <text fill="#000000" font-family="Courier" font-size="368" text-anchor="middle" x="1870" y="22194" id="TEXT69_pbTextEl">脱盐水</text>
  </g>
  <g id="TEXT70">
    <rect x="500" y="22580" width="2740" height="1020" stroke-width="0" fill="none" id="TEXT70_pbTextBoundingRectEl" />
    <text fill="#000000" font-family="Courier" font-size="368" text-anchor="middle" x="1870" y="23274" id="TEXT70_pbTextEl">生产水</text>
  </g>
  <g name="StraightArrow1">
    <path d="M 850 7530 l 549 -293 3 189 867 -15 3 193 -867 15 4 189 -559 -278 0 0" stroke-width="0" fill="#80FFFF" />
    <path d="M 850 7530 l 549 -293 3 189 867 -15 3 193 -867 15 4 189 -559 -278" stroke="#000000" stroke-width="20" fill="none" />
  </g>
  <g name="StraightArrow1">
    <path d="M 950 11070 l 549 -293 3 189 867 -15 3 193 -867 15 4 189 -559 -278 0 0" stroke-width="0" fill="#80FFFF" />
    <path d="M 950 11070 l 549 -293 3 189 867 -15 3 193 -867 15 4 189 -559 -278" stroke="#000000" stroke-width="20" fill="none" />
  </g>
  <g name="StraightArrow1">
    <path d="M 890 14230 l 549 -293 3 189 867 -15 3 193 -867 15 4 189 -559 -278 0 0" stroke-width="0" fill="#00D200" />
    <path d="M 890 14230 l 549 -293 3 189 867 -15 3 193 -867 15 4 189 -559 -278" stroke="#000000" stroke-width="20" fill="none" />
  </g>
  <g name="StraightArrow1">
    <path d="M 870 19630 l 549 -293 3 189 867 -15 3 193 -867 15 4 189 -559 -278 0 0" stroke-width="0" fill="#00D200" />
    <path d="M 870 19630 l 549 -293 3 189 867 -15 3 193 -867 15 4 189 -559 -278" stroke="#000000" stroke-width="20" fill="none" />
  </g>
  <g name="StraightArrow1">
    <path d="M 2310 20574 l -559 274 4 -189 -867 -15 3 -193 867 15 3 -189 549 297 0 0" stroke-width="0" fill="#00D200" />
    <path d="M 2310 20574 l -559 274 4 -189 -867 -15 3 -193 867 15 3 -189 549 297" stroke="#000000" stroke-width="20" fill="none" />
  </g>
  <g name="StraightArrow1">
    <path d="M 2310 22614 l -559 274 4 -189 -867 -15 3 -193 867 15 3 -189 549 297 0 0" stroke-width="0" fill="#00D200" />
    <path d="M 2310 22614 l -559 274 4 -189 -867 -15 3 -193 867 15 3 -189 549 297" stroke="#000000" stroke-width="20" fill="none" />
  </g>
  <g name="StraightArrow1">
    <path d="M 2350 23694 l -559 274 4 -189 -867 -15 3 -193 867 15 3 -189 549 297 0 0" stroke-width="0" fill="#00D200" />
    <path d="M 2350 23694 l -559 274 4 -189 -867 -15 3 -193 867 15 3 -189 549 297" stroke="#000000" stroke-width="20" fill="none" />
  </g>
  <g name="StraightArrow1">
    <path d="M 2350 26934 l -559 274 4 -189 -867 -15 3 -193 867 15 3 -189 549 297 0 0" stroke-width="0" fill="#00D200" />
    <path d="M 2350 26934 l -559 274 4 -189 -867 -15 3 -193 867 15 3 -189 549 297" stroke="#000000" stroke-width="20" fill="none" />
  </g>
  <g name="StraightArrow1">
    <path d="M 2330 28554 l -559 274 4 -189 -867 -15 3 -193 867 15 3 -189 549 297 0 0" stroke-width="0" fill="#00D200" />
    <path d="M 2330 28554 l -559 274 4 -189 -867 -15 3 -193 867 15 3 -189 549 297" stroke="#000000" stroke-width="20" fill="none" />
  </g>
</svg>