<?xml version="1.0" encoding="UTF-8"?>
<svg height="100%" width="100%" viewBox="0 0 60000 40000" version="1.1" xmlns="http://www.w3.org/2000/svg" xmlns:xlink="http://www.w3.org/1999/xlink" xmlns:PB="urn:osisoft-com-pb" xmlns:PBI="urn:osisoft-com-interface" xmlns:PBD="urn:osisoft-com-data" style="background-color:#C0C0C0">
  <title>QLJNQXT</title>
  <defs>
    <PBD:TagUses tag="\\\">
      <PBI:Symbol name="BARGRAPH2" PB:Type="12" />
    </PBD:TagUses>
    <PBD:TagUses tag="\\WIN-A79O8OG50DN\AI1.5300_AT_1201A">
      <PBI:Symbol name="DATAPOINT1" PB:Type="7" />
      <PBI:Symbol name="DATAPOINT2" PB:Type="7" />
    </PBD:TagUses>
  </defs>
  <rect x="17120" y="24480" width="2400" height="5720" stroke="#000000" stroke-width="20" fill="#C0C0C0" id="RECTANGLE69" />
  <path d="M 640 7800 l 1180 0" stroke="#FF0000" stroke-width="40" fill="none" />
  <path d="M 640 8160 l 1180 0" stroke="#FF0000" stroke-width="40" fill="none" />
  <path d="M 1820 7620 l 0 180" stroke="#FF0000" stroke-width="40" fill="none" />
  <path d="M 1820 8160 l 0 280" stroke="#FF0000" stroke-width="40" fill="none" />
  <path d="M 640 7800 l 0 360" stroke="#FF0000" stroke-width="40" fill="none" />
  <path d="M 1860 7620 l 540 320" stroke="#FF0000" stroke-width="40" fill="none" />
  <path d="M 1860 8440 l 540 -500" stroke="#FF0000" stroke-width="40" fill="none" />
  <path id="POLYGON385" d="M 2440 8020 l 15820 0" stroke="#FF0000" stroke-width="40" fill="none" />
  <path id="POLYGON386" d="M 18280 7960 l 0 10480" stroke="#FF0000" stroke-width="40" fill="none" />
  <path id="ARC5" d="M 19800 20480 l 0 -33 0 -34 -2 -33 -1 -33 -2 -34 -3 -33 -3 -33 -3 -34 -4 -33 -4 -33 -5 -33 -5 -33 -5 -32 -6 -33 -7 -32 -7 -33 -7 -32 -8 -32 -8 -32 -9 -31 -9 -32 -9 -31 -10 -31 -10 -30 -11 -31 -11 -30 -12 -30 -12 -30 -12 -29 -13 -30 -13 -28 -13 -29 -14 -28 -15 -28 -14 -28 -15 -27 -16 -27 -15 -27 -16 -26 -17 -26 -17 -25 -17 -25 -17 -25 -18 -24 -18 -24 -18 -24 -19 -23 -19 -22 -20 -23 -19 -21 -20 -22 -20 -20 -21 -21 -21 -20 -21 -19 -21 -19 -21 -19 -22 -18 -22 -17 -23 -17 -22 -17 -23 -16 -23 -15 -23 -15 -23 -15 -24 -14 -23 -13 -24 -13 -24 -12 -24 -12 -25 -11 -24 -11 -25 -10 -25 -9 -24 -9 -25 -8 -26 -8 -25 -8 -25 -6 -26 -6 -25 -6 -26 -5 -25 -4 -26 -4 -26 -3 -25 -3 -26 -2 -26 -1 -26 -1 -26 -1 -25 1 -26 1 -26 1 -26 2 -25 3 -26 3 -26 4 -25 4 -26 5 -25 6 -26 6 -25 6 -25 8 -26 8 -25 8 -24 9 -25 9 -25 10 -24 11 -25 11 -24 12 -24 12 -24 13 -23 13 -24 14 -23 15 -23 15 -23 15 -23 16 -23 17 -22 17 -22 17 -22 18 -21 19 -21 19 -21 19 -21 20 -21 21 -20 20 -20 22 -19 21 -20 23 -19 22 -19 23 -18 24 -18 24 -18 24 -17 25 -17 25 -17 25 -17 26 -16 26 -15 27 -16 27 -15 27 -14 28 -15 28 -14 28 -13 29 -13 29 -13 29 -12 29 -12 30 -12 30 -11 30 -11 31 -10 30 -10 31 -9 31 -9 32 -9 31 -8 32 -8 32 -7 32 -7 33 -7 32 -6 33 -5 32 -5 33 -5 33 -4 33 -4 33 -3 34 -3 33 -3 33 -2 34 -1 33 -2 33 0 34 -1 34 1 33" stroke="#000000" stroke-width="20" fill="none" />
  <path id="ELLIPSE31" d="M 18175 25040 l -219 -40 -124 -40 -97 -40 -81 -40 -71 -40 -63 -40 -58 -40 -54 -40 -49 -40 -47 -40 -43 -40 -41 -40 -39 -40 -37 -40 -35 -40 -34 -40 -32 -40 -30 -40 -30 -40 -28 -40 -27 -40 -26 -40 -25 -40 -24 -40 -23 -40 -22 -40 -22 -40 -21 -40 -20 -40 -19 -40 -18 -40 -18 -40 -17 -40 -17 -40 -16 -40 -15 -40 -15 -40 -14 -40 -14 -40 -13 -40 -13 -40 -12 -40 -11 -40 -11 -40 -11 -40 -10 -40 -10 -40 -9 -40 -9 -40 -8 -40 -8 -40 -7 -40 -7 -40 -7 -40 -6 -40 -6 -40 -5 -40 -5 -40 -4 -40 -5 -40 -3 -40 -4 -40 -2 -40 -3 -40 -2 -40 -2 -40 -1 -40 -1 -40 -1 -40 0 -40 0 0 0 -40 1 -40 1 -40 1 -40 2 -40 2 -40 3 -40 2 -40 4 -40 3 -40 5 -40 4 -40 5 -40 5 -40 6 -40 6 -40 7 -40 7 -40 7 -40 8 -40 8 -40 9 -40 9 -40 10 -40 10 -40 11 -40 11 -40 11 -40 12 -40 13 -40 13 -40 14 -40 14 -40 15 -40 15 -40 16 -40 17 -40 17 -40 18 -40 18 -40 19 -40 20 -40 21 -40 22 -40 22 -40 23 -40 24 -40 25 -40 26 -40 27 -40 28 -40 30 -40 30 -40 32 -40 34 -40 35 -40 37 -40 39 -40 41 -40 43 -40 47 -40 49 -40 54 -40 58 -40 63 -40 71 -40 81 -40 97 -40 124 -40 219 -40 250 0 219 40 124 40 97 40 81 40 71 40 63 40 58 40 54 40 49 40 47 40 43 40 41 40 39 40 37 40 35 40 34 40 32 40 30 40 30 40 28 40 27 40 26 40 25 40 24 40 23 40 22 40 22 40 21 40 20 40 19 40 18 40 18 40 17 40 17 40 16 40 15 40 15 40 14 40 14 40 13 40 13 40 12 40 11 40 11 40 11 40 10 40 10 40 9 40 9 40 8 40 8 40 7 40 7 40 7 40 6 40 6 40 5 40 5 40 4 40 5 40 3 40 4 40 2 40 3 40 2 40 2 40 1 40 1 40 1 40 0 40 0 0 0 40 -1 40 -1 40 -1 40 -2 40 -2 40 -3 40 -2 40 -4 40 -3 40 -5 40 -4 40 -5 40 -5 40 -6 40 -6 40 -7 40 -7 40 -7 40 -8 40 -8 40 -9 40 -9 40 -10 40 -10 40 -11 40 -11 40 -11 40 -12 40 -13 40 -13 40 -14 40 -14 40 -15 40 -15 40 -16 40 -17 40 -17 40 -18 40 -18 40 -19 40 -20 40 -21 40 -22 40 -22 40 -23 40 -24 40 -25 40 -26 40 -27 40 -28 40 -30 40 -30 40 -32 40 -34 40 -35 40 -37 40 -39 40 -41 40 -43 40 -47 40 -49 40 -54 40 -58 40 -63 40 -71 40 -81 40 -97 40 -124 40 -219 40 -250 0" stroke="#000000" stroke-width="20" fill="#C0C0C0" />
  <rect x="20500" y="7460" width="3080" height="640" stroke="#0000FF" stroke-width="20" fill="none" id="RECTANGLE47" />
  <rect x="20500" y="8120" width="3080" height="640" stroke="#0000FF" stroke-width="20" fill="none" id="RECTANGLE48" />
  <g id="TEXT37">
    <rect x="20280" y="7300" width="3500" height="900" stroke-width="0" fill="none" id="TEXT37_pbTextBoundingRectEl" />
    <text fill="#000000" font-family="Helvetica" font-size="352" text-anchor="middle" x="22030" y="7926" id="TEXT37_pbTextEl">81-1110.01.P01</text>
  </g>
  <rect x="20500" y="9240" width="3080" height="640" stroke="#0000FF" stroke-width="20" fill="none" id="RECTANGLE49" />
  <rect x="20500" y="9900" width="3080" height="640" stroke="#0000FF" stroke-width="20" fill="none" id="RECTANGLE50" />
  <g id="TEXT38">
    <rect x="20280" y="9100" width="3500" height="900" stroke-width="0" fill="none" id="TEXT38_pbTextBoundingRectEl" />
    <text fill="#000000" font-family="Helvetica" font-size="352" text-anchor="middle" x="22030" y="9726" id="TEXT38_pbTextEl">81-1110.01.P02</text>
  </g>
  <rect x="20500" y="10840" width="3080" height="640" stroke="#0000FF" stroke-width="20" fill="none" id="RECTANGLE55" />
  <rect x="20500" y="11500" width="3080" height="640" stroke="#0000FF" stroke-width="20" fill="none" id="RECTANGLE56" />
  <g id="TEXT39">
    <rect x="20280" y="10680" width="3500" height="900" stroke-width="0" fill="none" id="TEXT39_pbTextBoundingRectEl" />
    <text fill="#000000" font-family="Helvetica" font-size="352" text-anchor="middle" x="22030" y="11306" id="TEXT39_pbTextEl">81-1110.01.P03</text>
  </g>
  <rect x="13820" y="13160" width="3660" height="640" stroke="#0000FF" stroke-width="20" fill="none" id="RECTANGLE57" />
  <rect x="13820" y="13800" width="3660" height="640" stroke="#0000FF" stroke-width="20" fill="none" id="RECTANGLE58" />
  <g id="TEXT40">
    <rect x="12820" y="11160" width="4900" height="2720" stroke-width="0" fill="none" id="TEXT40_pbTextBoundingRectEl" />
    <text fill="#000000" font-family="Helvetica" font-size="352" text-anchor="middle" x="15270" y="12696" id="TEXT40_pbTextEl">81-1110.01.T02.E1</text>
  </g>
  <rect x="13820" y="15340" width="3660" height="640" stroke="#0000FF" stroke-width="20" fill="none" id="RECTANGLE67" />
  <rect x="13820" y="15980" width="3660" height="640" stroke="#0000FF" stroke-width="20" fill="none" id="RECTANGLE68" />
  <g id="TEXT41">
    <rect x="13560" y="15160" width="4160" height="900" stroke-width="0" fill="none" id="TEXT41_pbTextBoundingRectEl" />
    <text fill="#000000" font-family="Helvetica" font-size="352" text-anchor="middle" x="15640" y="15786" id="TEXT41_pbTextEl">81-1110.01.T02.E2</text>
  </g>
  <g id="BARGRAPH2" PB:IsMultiState="False" PB:Lower="0" PB:Orientation="0" PB:CanonicalNumberFormat="General" PBD:PtTagName="\\\" PB:Start="0" PB:Upper="100" PB:Type="12">
    <rect x="18680" y="25700" width="640" height="4020" stroke-width="0" fill="#C0C0C0" id="BARGRAPH2_pbBarBoundingRectEl" />
    <rect x="18680" y="25700" width="640" height="4020" stroke-width="0" fill="#009600" id="BARGRAPH2_pbBarTagRectEl" stroke="none" PBD:Property="" />
  </g>
  <rect x="12700" y="25120" width="3640" height="640" stroke="#0000FF" stroke-width="20" fill="none" id="RECTANGLE70" />
  <rect x="12700" y="25760" width="3640" height="640" stroke="#0000FF" stroke-width="20" fill="none" id="RECTANGLE71" />
  <g id="TEXT42">
    <rect x="12440" y="24940" width="4120" height="900" stroke-width="0" fill="none" id="TEXT42_pbTextBoundingRectEl" />
    <text fill="#000000" font-family="Helvetica" font-size="352" text-anchor="middle" x="14500" y="25566" id="TEXT42_pbTextEl">81-1110.10.T01.E1</text>
  </g>
  <rect x="12700" y="27280" width="3640" height="640" stroke="#0000FF" stroke-width="20" fill="none" id="RECTANGLE72" />
  <rect x="12700" y="27940" width="3640" height="640" stroke="#0000FF" stroke-width="20" fill="none" id="RECTANGLE73" />
  <g id="TEXT43">
    <rect x="12440" y="27120" width="4120" height="900" stroke-width="0" fill="none" id="TEXT43_pbTextBoundingRectEl" />
    <text fill="#000000" font-family="Helvetica" font-size="352" text-anchor="middle" x="14500" y="27746" id="TEXT43_pbTextEl">81-1110.10.T01.E2</text>
  </g>
  <rect x="22080" y="26760" width="3080" height="640" stroke="#0000FF" stroke-width="20" fill="none" id="RECTANGLE74" />
  <rect x="22080" y="27400" width="3080" height="640" stroke="#0000FF" stroke-width="20" fill="none" id="RECTANGLE75" />
  <g id="TEXT44">
    <rect x="21860" y="26620" width="3500" height="900" stroke-width="0" fill="none" id="TEXT44_pbTextBoundingRectEl" />
    <text fill="#000000" font-family="Helvetica" font-size="352" text-anchor="middle" x="23610" y="27246" id="TEXT44_pbTextEl">81-1110.10.L02</text>
  </g>
  <rect x="22080" y="28960" width="3080" height="640" stroke="#0000FF" stroke-width="20" fill="none" id="RECTANGLE76" />
  <rect x="22080" y="29600" width="3080" height="640" stroke="#0000FF" stroke-width="20" fill="none" id="RECTANGLE77" />
  <g id="TEXT45">
    <rect x="21860" y="28780" width="3500" height="900" stroke-width="0" fill="none" id="TEXT45_pbTextBoundingRectEl" />
    <text fill="#000000" font-family="Helvetica" font-size="352" text-anchor="middle" x="23610" y="29406" id="TEXT45_pbTextEl">81-1110.10.L03</text>
  </g>
  <path id="POLYGON430" d="M 18180 17200 l -11860 0" stroke="#009600" stroke-width="20" fill="none" />
  <path id="POLYGON431" d="M 28560 18000 l -21540 0" stroke="#009600" stroke-width="20" fill="none" />
  <path id="POLYGON432" d="M 17100 29520 l -10720 0" stroke="#009600" stroke-width="20" fill="none" />
  <g name="AtmosphericTank">
    <rect x="5780" y="18960" width="1226" height="6640" stroke="#000000" stroke-width="40" fill="#C0C0C0" />
    <path d="M 5780 18960 l 613 -2214 613 2214 -1226 0 0 0" stroke="#000000" stroke-width="40" fill="#C0C0C0" />
  </g>
  <g name="AtmosphericTank">
    <rect x="5780" y="18960" width="1226" height="6640" stroke="#000000" stroke-width="40" fill="#C0C0C0" />
    <path d="M 5780 25600 l 613 2214 613 -2214 -1226 0 0 0" stroke="#000000" stroke-width="40" fill="#C0C0C0" />
  </g>
  <path id="POLYGON437" d="M 6380 27920 l 0 1600" stroke="#009600" stroke-width="20" fill="none" />
  <path id="POLYGON438" d="M 5680 22420 l -3180 0" stroke="#009600" stroke-width="40" fill="none" />
  <path d="M 640 22220 l 1180 0" stroke="#009600" stroke-width="40" fill="none" />
  <path d="M 640 22540 l 1180 0" stroke="#009600" stroke-width="40" fill="none" />
  <path d="M 1820 22000 l 0 220" stroke="#009600" stroke-width="40" fill="none" />
  <path d="M 1820 22540 l 0 280" stroke="#009600" stroke-width="40" fill="none" />
  <path d="M 640 22220 l 0 320" stroke="#009600" stroke-width="40" fill="none" />
  <path d="M 1860 22000 l 540 340" stroke="#009600" stroke-width="40" fill="none" />
  <path d="M 1860 22820 l 540 -480" stroke="#009600" stroke-width="40" fill="none" />
  <path id="POLYGON455" d="M 18980 30320 l 0 2520" stroke="#009600" stroke-width="40" fill="none" />
  <path id="POLYGON456" d="M 18980 32900 l 15040 0" stroke="#009600" stroke-width="40" fill="none" />
  <g id="TEXT47">
    <rect x="28040" y="33440" width="3500" height="900" stroke-width="0" fill="none" id="TEXT47_pbTextBoundingRectEl" />
    <text fill="#000000" font-family="Helvetica" font-size="352" text-anchor="middle" x="29790" y="34066" id="TEXT47_pbTextEl">1110.22A.BP1</text>
  </g>
  <path d="M 27387 31120 l -57 -20 -35 -20 -27 -20 -22 -20 -19 -20 -17 -20 -15 -20 -14 -20 -12 -20 -11 -20 -11 -20 -9 -20 -8 -20 -8 -20 -7 -20 -6 -20 -6 -20 -5 -20 -5 -20 -4 -20 -4 -20 -3 -20 -2 -20 -2 -20 -2 -20 -1 -20 -1 -20 0 -20 0 0 0 -20 1 -20 1 -20 2 -20 2 -20 2 -20 3 -20 4 -20 4 -20 5 -20 5 -20 6 -20 6 -20 7 -20 8 -20 8 -20 9 -20 11 -20 11 -20 12 -20 14 -20 15 -20 17 -20 19 -20 22 -20 27 -20 35 -20 57 -20 106 0 57 20 35 20 27 20 22 20 19 20 17 20 15 20 14 20 12 20 11 20 11 20 9 20 8 20 8 20 7 20 6 20 6 20 5 20 5 20 4 20 4 20 3 20 2 20 2 20 2 20 1 20 1 20 0 20 0 0 0 20 -1 20 -1 20 -2 20 -2 20 -2 20 -3 20 -4 20 -4 20 -5 20 -5 20 -6 20 -6 20 -7 20 -8 20 -8 20 -9 20 -11 20 -11 20 -12 20 -14 20 -15 20 -17 20 -19 20 -22 20 -27 20 -35 20 -57 20 -106 0" stroke="#000000" stroke-width="20" fill="#808080" />
  <g>
    <rect x="26840" y="29680" width="1300" height="1760" stroke-width="0" fill="none" />
    <text fill="#000000" font-family="Helvetica" font-size="320" text-anchor="middle" x="27490" y="30720">M</text>
  </g>
  <path id="ELLIPSE33" d="M 27435 33560 l -69 -20 -43 -20 -34 -20 -28 -20 -25 -20 -22 -20 -19 -20 -18 -20 -17 -20 -15 -20 -14 -20 -13 -20 -12 -20 -12 -20 -11 -20 -10 -20 -9 -20 -9 -20 -8 -20 -7 -20 -8 -20 -6 -20 -6 -20 -6 -20 -5 -20 -5 -20 -5 -20 -4 -20 -4 -20 -3 -20 -3 -20 -3 -20 -2 -20 -2 -20 -1 -20 -1 -20 -1 -20 -1 -20 0 -20 0 0 0 -20 1 -20 1 -20 1 -20 1 -20 2 -20 2 -20 3 -20 3 -20 3 -20 4 -20 4 -20 5 -20 5 -20 5 -20 6 -20 6 -20 6 -20 8 -20 7 -20 8 -20 9 -20 9 -20 10 -20 11 -20 12 -20 12 -20 13 -20 14 -20 15 -20 17 -20 18 -20 19 -20 22 -20 25 -20 28 -20 34 -20 43 -20 69 -20 130 0 69 20 43 20 34 20 28 20 25 20 22 20 19 20 18 20 17 20 15 20 14 20 13 20 12 20 12 20 11 20 10 20 9 20 9 20 8 20 7 20 8 20 6 20 6 20 6 20 5 20 5 20 5 20 4 20 4 20 3 20 3 20 3 20 2 20 2 20 1 20 1 20 1 20 1 20 0 20 0 0 0 20 -1 20 -1 20 -1 20 -1 20 -2 20 -2 20 -3 20 -3 20 -3 20 -4 20 -4 20 -5 20 -5 20 -5 20 -6 20 -6 20 -6 20 -8 20 -7 20 -8 20 -9 20 -9 20 -10 20 -11 20 -12 20 -12 20 -13 20 -14 20 -15 20 -17 20 -18 20 -19 20 -22 20 -25 20 -28 20 -34 20 -43 20 -69 20 -130 0" stroke="#000000" stroke-width="20" fill="#808080" />
  <path id="LINE453" d="M 28020 32780 l -540 800" stroke="#000000" stroke-width="40" fill="none" />
  <path id="LINE454" d="M 28020 32780 l -540 -760" stroke="#000000" stroke-width="40" fill="none" />
  <path id="LINE455" d="M 27480 32020 l 0 -940" stroke="#000000" stroke-width="40" fill="none" />
  <path id="POLYGON462" d="M 17500 30240 l 0 6360" stroke="#009600" stroke-width="40" fill="none" />
  <path id="POLYGON463" d="M 17500 36520 l 16580 0" stroke="#009600" stroke-width="40" fill="none" />
  <path d="M 27387 39240 l -57 -20 -35 -20 -27 -20 -22 -20 -19 -20 -17 -20 -15 -20 -14 -20 -12 -20 -11 -20 -11 -20 -9 -20 -8 -20 -8 -20 -7 -20 -6 -20 -6 -20 -5 -20 -5 -20 -4 -20 -4 -20 -3 -20 -2 -20 -2 -20 -2 -20 -1 -20 -1 -20 0 -20 0 0 0 -20 1 -20 1 -20 2 -20 2 -20 2 -20 3 -20 4 -20 4 -20 5 -20 5 -20 6 -20 6 -20 7 -20 8 -20 8 -20 9 -20 11 -20 11 -20 12 -20 14 -20 15 -20 17 -20 19 -20 22 -20 27 -20 35 -20 57 -20 106 0 57 20 35 20 27 20 22 20 19 20 17 20 15 20 14 20 12 20 11 20 11 20 9 20 8 20 8 20 7 20 6 20 6 20 5 20 5 20 4 20 4 20 3 20 2 20 2 20 2 20 1 20 1 20 0 20 0 0 0 20 -1 20 -1 20 -2 20 -2 20 -2 20 -3 20 -4 20 -4 20 -5 20 -5 20 -6 20 -6 20 -7 20 -8 20 -8 20 -9 20 -11 20 -11 20 -12 20 -14 20 -15 20 -17 20 -19 20 -22 20 -27 20 -35 20 -57 20 -106 0" stroke="#000000" stroke-width="20" fill="#808080" />
  <g>
    <rect x="26840" y="37900" width="1300" height="1760" stroke-width="0" fill="none" />
    <text fill="#000000" font-family="Helvetica" font-size="320" text-anchor="middle" x="27490" y="38940">M</text>
  </g>
  <path d="M 27435 37300 l -69 -20 -43 -20 -34 -20 -28 -20 -25 -20 -22 -20 -19 -20 -18 -20 -17 -20 -15 -20 -14 -20 -13 -20 -12 -20 -12 -20 -11 -20 -10 -20 -9 -20 -9 -20 -8 -20 -7 -20 -8 -20 -6 -20 -6 -20 -6 -20 -5 -20 -5 -20 -5 -20 -4 -20 -4 -20 -3 -20 -3 -20 -3 -20 -2 -20 -2 -20 -1 -20 -1 -20 -1 -20 -1 -20 0 -20 0 0 0 -20 1 -20 1 -20 1 -20 1 -20 2 -20 2 -20 3 -20 3 -20 3 -20 4 -20 4 -20 5 -20 5 -20 5 -20 6 -20 6 -20 6 -20 8 -20 7 -20 8 -20 9 -20 9 -20 10 -20 11 -20 12 -20 12 -20 13 -20 14 -20 15 -20 17 -20 18 -20 19 -20 22 -20 25 -20 28 -20 34 -20 43 -20 69 -20 130 0 69 20 43 20 34 20 28 20 25 20 22 20 19 20 18 20 17 20 15 20 14 20 13 20 12 20 12 20 11 20 10 20 9 20 9 20 8 20 7 20 8 20 6 20 6 20 6 20 5 20 5 20 5 20 4 20 4 20 3 20 3 20 3 20 2 20 2 20 1 20 1 20 1 20 1 20 0 20 0 0 0 20 -1 20 -1 20 -1 20 -1 20 -2 20 -2 20 -3 20 -3 20 -3 20 -4 20 -4 20 -5 20 -5 20 -5 20 -6 20 -6 20 -6 20 -8 20 -7 20 -8 20 -9 20 -9 20 -10 20 -11 20 -12 20 -12 20 -13 20 -14 20 -15 20 -17 20 -18 20 -19 20 -22 20 -25 20 -28 20 -34 20 -43 20 -69 20 -130 0" stroke="#000000" stroke-width="20" fill="#808080" />
  <path d="M 28020 36520 l -540 760" stroke="#000000" stroke-width="40" fill="none" />
  <path d="M 28020 36520 l -540 -800" stroke="#000000" stroke-width="40" fill="none" />
  <path d="M 27480 38160 l 0 -960" stroke="#000000" stroke-width="40" fill="none" />
  <path id="POLYGON479" d="M 34080 36520 l 0 -3680" stroke="#009600" stroke-width="40" fill="none" />
  <path id="POLYGON480" d="M 34120 34500 l 23260 0" stroke="#009600" stroke-width="40" fill="none" />
  <path d="M 57460 34260 l 1180 0" stroke="#009600" stroke-width="40" fill="none" />
  <path d="M 57460 34600 l 1180 0" stroke="#009600" stroke-width="40" fill="none" />
  <path d="M 58640 34060 l 0 200" stroke="#009600" stroke-width="40" fill="none" />
  <path d="M 58640 34600 l 0 300" stroke="#009600" stroke-width="40" fill="none" />
  <path d="M 57460 34260 l 0 340" stroke="#009600" stroke-width="40" fill="none" />
  <path d="M 58680 34060 l 520 320" stroke="#009600" stroke-width="40" fill="none" />
  <path d="M 58680 34900 l 520 -520" stroke="#009600" stroke-width="40" fill="none" />
  <path id="POLYGON503" d="M 36880 34420 l 0 -5340" stroke="#009600" stroke-width="40" fill="none" />
  <path id="POLYGON504" d="M 36880 29080 l 3620 0" stroke="#009600" stroke-width="40" fill="none" />
  <path id="POLYGON505" d="M 19620 25940 l 20780 0" stroke="#009600" stroke-width="40" fill="none" />
  <path id="POLYGON506" d="M 40480 29140 l 0 -3240" stroke="#009600" stroke-width="40" fill="none" />
  <path id="POLYGON507" d="M 28600 17980 l 0 8000" stroke="#009600" stroke-width="20" fill="none" />
  <path id="POLYGON508" d="M 19520 24620 l 18000 0" stroke="#009600" stroke-width="20" fill="none" />
  <path id="LINE508" d="M 19520 25220 l 25100 0" stroke="#009600" stroke-width="20" fill="none" />
  <rect x="34040" y="19880" width="3960" height="1820" stroke="#000000" stroke-width="20" fill="none" id="RECTANGLE78" />
  <path d="M 34520 24640 l 0 -2880" stroke="#009600" stroke-width="20" fill="none" />
  <path d="M 37520 24620 l 0 -2920" stroke="#009600" stroke-width="20" fill="none" />
  <path id="POLYGON514" d="M 19480 19260 l 0 -2900" stroke="#FF0000" stroke-width="20" fill="none" />
  <path id="POLYGON515" d="M 19480 16360 l 9160 0" stroke="#FF0000" stroke-width="20" fill="none" />
  <path id="POLYGON516" d="M 28640 16360 l 0 -7960" stroke="#FF0000" stroke-width="20" fill="none" />
  <rect x="41020" y="19940" width="3960" height="1820" stroke="#000000" stroke-width="20" fill="none" id="RECTANGLE79" />
  <path d="M 41520 25060 l 0 -3280" stroke="#009600" stroke-width="20" fill="none" />
  <path d="M 44500 25040 l 0 -3340" stroke="#009600" stroke-width="20" fill="none" />
  <path id="POLYGON520" d="M 52100 34420 l 0 -7940" stroke="#009600" stroke-width="40" fill="none" />
  <path id="POLYGON521" d="M 52100 26480 l 5280 0" stroke="#009600" stroke-width="40" fill="none" />
  <path d="M 57460 26240 l 1180 0" stroke="#009600" stroke-width="40" fill="none" />
  <path d="M 57460 26560 l 1180 0" stroke="#009600" stroke-width="40" fill="none" />
  <path d="M 58640 26060 l 0 180" stroke="#009600" stroke-width="40" fill="none" />
  <path d="M 58640 26560 l 0 280" stroke="#009600" stroke-width="40" fill="none" />
  <path d="M 57460 26240 l 0 320" stroke="#009600" stroke-width="40" fill="none" />
  <path d="M 58680 26060 l 520 300" stroke="#009600" stroke-width="40" fill="none" />
  <path d="M 58680 26840 l 520 -480" stroke="#009600" stroke-width="40" fill="none" />
  <rect x="39480" y="31900" width="3080" height="640" stroke="#0000FF" stroke-width="20" fill="none" id="RECTANGLE83" />
  <rect x="39480" y="32540" width="3080" height="640" stroke="#0000FF" stroke-width="20" fill="none" id="RECTANGLE88" />
  <g id="TEXT50">
    <rect x="39260" y="31720" width="3500" height="900" stroke-width="0" fill="none" id="TEXT50_pbTextBoundingRectEl" />
    <text fill="#000000" font-family="Helvetica" font-size="352" text-anchor="middle" x="41010" y="32346" id="TEXT50_pbTextEl">81-1110.22.T05</text>
  </g>
  <rect x="45940" y="31900" width="3080" height="640" stroke="#0000FF" stroke-width="20" fill="none" id="RECTANGLE91" />
  <rect x="45940" y="32540" width="3080" height="640" stroke="#0000FF" stroke-width="20" fill="none" id="RECTANGLE92" />
  <g id="TEXT52">
    <rect x="45720" y="31720" width="3500" height="900" stroke-width="0" fill="none" id="TEXT52_pbTextBoundingRectEl" />
    <text fill="#000000" font-family="Helvetica" font-size="352" text-anchor="middle" x="47470" y="32346" id="TEXT52_pbTextEl">81-1110.10.A13</text>
  </g>
  <g name="Valve1">
    <path d="M 39358 28678 l -311 0 0 0 2 -39 6 -38 6 -39 9 -38 14 -33 15 -33 19 -30 21 -28 21 -24 25 -22 25 -20 27 -19 29 -14 29 -8 30 -5 33 -3 0 0 33 3 30 5 29 8 29 14 27 19 27 20 23 22 23 24 21 28 15 30 18 33 11 33 14 38 5 39 6 38 2 39 -313 0" stroke="#000000" stroke-width="20" fill="#000000" />
    <path d="M 38980 29384 l 0 -492 762 492 0 -492 -762 492" stroke="#000000" stroke-width="20" fill="#000000" />
    <path d="M 39358 29137 l 44 -28 0 -428 -84 0 0 428 44 28 -4 0" stroke="#000000" stroke-width="20" fill="#000000" />
  </g>
  <g id="TEXT53">
    <rect x="37540" y="29580" width="3740" height="900" stroke-width="0" fill="none" id="TEXT53_pbTextBoundingRectEl" />
    <text fill="#000000" font-family="Helvetica" font-size="352" text-anchor="middle" x="39410" y="30206" id="TEXT53_pbTextEl">81-1201.21.Y01</text>
  </g>
  <g name="Valve1">
    <path d="M 38458 34018 l -311 0 0 0 2 -39 6 -38 6 -39 9 -38 14 -33 15 -33 19 -30 21 -28 21 -24 25 -22 25 -20 27 -19 29 -14 29 -8 30 -5 33 -3 0 0 33 3 30 5 29 8 29 14 27 19 27 20 23 22 23 24 21 28 15 30 18 33 11 33 14 38 5 39 6 38 2 39 -313 0" stroke="#000000" stroke-width="20" fill="#000000" />
    <path d="M 38080 34724 l 0 -492 762 492 0 -492 -762 492" stroke="#000000" stroke-width="20" fill="#000000" />
    <path d="M 38458 34477 l 44 -28 0 -428 -84 0 0 428 44 28 -4 0" stroke="#000000" stroke-width="20" fill="#000000" />
  </g>
  <g id="TEXT54">
    <rect x="36660" y="34900" width="3740" height="900" stroke-width="0" fill="none" id="TEXT54_pbTextBoundingRectEl" />
    <text fill="#000000" font-family="Helvetica" font-size="352" text-anchor="middle" x="38530" y="35526" id="TEXT54_pbTextEl">81-1201.21.Y01</text>
  </g>
  <path d="M 59200 17840 l -1160 0" stroke="#FF0000" stroke-width="40" fill="none" />
  <path d="M 59200 18160 l -1160 0" stroke="#FF0000" stroke-width="40" fill="none" />
  <path d="M 58040 17660 l 0 180" stroke="#FF0000" stroke-width="40" fill="none" />
  <path d="M 58040 18160 l 0 300" stroke="#FF0000" stroke-width="40" fill="none" />
  <path d="M 59200 17840 l 0 320" stroke="#FF0000" stroke-width="40" fill="none" />
  <path d="M 58000 17660 l -540 320" stroke="#FF0000" stroke-width="40" fill="none" />
  <path d="M 58000 18460 l -540 -480" stroke="#FF0000" stroke-width="40" fill="none" />
  <path id="POLYGON571" d="M 57520 18000 l -2700 0" stroke="#FF0000" stroke-width="20" fill="none" />
  <path id="POLYGON572" d="M 54860 18000 l 0 -10620" stroke="#FF0000" stroke-width="20" fill="none" />
  <path id="POLYGON573" d="M 28660 8400 l 24180 0" stroke="#FF0000" stroke-width="20" fill="none" />
  <path id="POLYGON574" d="M 49900 7000 l 2980 440 -2980 440 0 -880 0 0" stroke="#000000" stroke-width="20" fill="#C0C0C0" />
  <path id="POLYGON575" d="M 53680 7300 l -800 140 800 160 0 -300 0 0" stroke="#000000" stroke-width="20" fill="#C0C0C0" />
  <path id="POLYGON576" d="M 54840 7460 l -1120 0" stroke="#FF0000" stroke-width="20" fill="none" />
  <path id="POLYGON577" d="M 52860 7440 l 0 960" stroke="#FF0000" stroke-width="20" fill="none" />
  <path id="POLYGON584" d="M 48460 8480 l 0 10640" stroke="#FF0000" stroke-width="20" fill="none" />
  <path id="POLYGON585" d="M 43640 17420 l 11200 0" stroke="#FF0000" stroke-width="20" fill="none" />
  <path id="POLYGON586" d="M 35400 10920 l 19460 0" stroke="#FF0000" stroke-width="20" fill="none" />
  <path id="POLYGON587" d="M 36660 13400 l 18180 0" stroke="#FF0000" stroke-width="20" fill="none" />
  <path id="POLYGON588" d="M 42400 15100 l 12480 0" stroke="#FF0000" stroke-width="20" fill="none" />
  <path d="M 49900 17020 l 2980 380 -2980 440 0 -820 0 0" stroke="#000000" stroke-width="20" fill="#C0C0C0" />
  <path d="M 53680 17260 l -800 140 800 160 0 -300 0 0" stroke="#000000" stroke-width="20" fill="#C0C0C0" />
  <path d="M 49900 14680 l 2980 380 -2980 440 0 -820 0 0" stroke="#000000" stroke-width="20" fill="#C0C0C0" />
  <path d="M 53680 14920 l -800 180 800 120 0 -300 0 0" stroke="#000000" stroke-width="20" fill="#C0C0C0" />
  <path d="M 49900 10180 l 2980 420 -2980 420 0 -840 0 0" stroke="#000000" stroke-width="20" fill="#C0C0C0" />
  <path d="M 53680 10440 l -800 160 800 160 0 -320 0 0" stroke="#000000" stroke-width="20" fill="#C0C0C0" />
  <path d="M 49900 10520 l 2980 380 -2980 440 0 -820 0 0" stroke="#000000" stroke-width="20" fill="#C0C0C0" />
  <path d="M 53680 10760 l -800 160 800 140 0 -300 0 0" stroke="#000000" stroke-width="20" fill="#C0C0C0" />
  <path id="POLYGON589" d="M 48460 19120 l 4400 0" stroke="#FF0000" stroke-width="20" fill="none" />
  <path id="POLYGON590" d="M 52860 19120 l 0 -1780" stroke="#FF0000" stroke-width="20" fill="none" />
  <path d="M 43620 19880 l 0 -2460" stroke="#FF0000" stroke-width="20" fill="none" />
  <path d="M 42400 19900 l 0 -4840" stroke="#FF0000" stroke-width="20" fill="none" />
  <path id="POLYGON591" d="M 44720 19980 l 0 -3620" stroke="#FF0000" stroke-width="20" fill="none" />
  <path id="POLYGON592" d="M 44720 16360 l 8160 0" stroke="#FF0000" stroke-width="20" fill="none" />
  <path id="LINE592" d="M 52860 16320 l 0 -1260" stroke="#FF0000" stroke-width="20" fill="none" />
  <path id="LINE593" d="M 36640 19840 l 0 -6500" stroke="#FF0000" stroke-width="20" fill="none" />
  <path id="LINE594" d="M 35400 19900 l 0 -8980" stroke="#FF0000" stroke-width="20" fill="none" />
  <path id="POLYGON594" d="M 37640 19900 l 0 -7700" stroke="#FF0000" stroke-width="20" fill="none" />
  <path id="POLYGON595" d="M 37640 12220 l 15240 0" stroke="#FF0000" stroke-width="20" fill="none" />
  <path id="LINE595" d="M 52860 10920 l 0 1340" stroke="#FF0000" stroke-width="20" fill="none" />
  <path id="LINE596" d="M 52860 13340 l 0 960" stroke="#FF0000" stroke-width="20" fill="none" />
  <path id="POLYGON596" d="M 52860 14300 l -4400 0" stroke="#FF0000" stroke-width="20" fill="none" />
  <path d="M 16820 21360 l 940 460" stroke="#009600" stroke-width="40" fill="none" />
  <path d="M 17760 21780 l -940 460" stroke="#009600" stroke-width="40" fill="none" />
  <path d="M 16820 22240 l 940 420" stroke="#009600" stroke-width="40" fill="none" />
  <path d="M 17760 22660 l -940 460" stroke="#009600" stroke-width="40" fill="none" />
  <path id="POLYGON599" d="M 16820 21380 l -3040 0" stroke="#009600" stroke-width="20" fill="none" />
  <path id="LINE600" d="M 16820 23120 l -3040 0" stroke="#009600" stroke-width="20" fill="none" />
  <path d="M 12120 22960 l 1160 0" stroke="#009600" stroke-width="40" fill="none" />
  <path d="M 12120 23280 l 1160 0" stroke="#009600" stroke-width="40" fill="none" />
  <path d="M 13280 22780 l 0 180" stroke="#009600" stroke-width="40" fill="none" />
  <path d="M 13280 23280 l 0 300" stroke="#009600" stroke-width="40" fill="none" />
  <path d="M 12120 22960 l 0 320" stroke="#009600" stroke-width="40" fill="none" />
  <path d="M 13320 22780 l 540 320" stroke="#009600" stroke-width="40" fill="none" />
  <path d="M 13320 23580 l 540 -480" stroke="#009600" stroke-width="40" fill="none" />
  <path d="M 13860 21220 l -1180 0" stroke="#009600" stroke-width="40" fill="none" />
  <path d="M 13860 21540 l -1180 0" stroke="#009600" stroke-width="40" fill="none" />
  <path d="M 12680 21040 l 0 180" stroke="#009600" stroke-width="40" fill="none" />
  <path d="M 12680 21540 l 0 300" stroke="#009600" stroke-width="40" fill="none" />
  <path d="M 13860 21220 l 0 320" stroke="#009600" stroke-width="40" fill="none" />
  <path d="M 12640 21040 l -520 320" stroke="#009600" stroke-width="40" fill="none" />
  <path d="M 12640 21840 l -520 -480" stroke="#009600" stroke-width="40" fill="none" />
  <g id="TEXT55">
    <rect x="9860" y="20220" width="2080" height="1460" stroke-width="0" fill="none" id="TEXT55_pbTextBoundingRectEl" />
    <text fill="#000000" font-family="Helvetica" font-size="352" text-anchor="middle" x="10900" y="21126" id="TEXT55_pbTextEl">CWR</text>
  </g>
  <g id="TEXT56">
    <rect x="10780" y="22800" width="1160" height="640" stroke-width="0" fill="none" id="TEXT56_pbTextBoundingRectEl" />
    <text fill="#000000" font-family="Helvetica" font-size="352" text-anchor="middle" x="11360" y="23296" id="TEXT56_pbTextEl">CWS</text>
  </g>
  <path id="LINE619" d="M 19760 21360 l 3040 0" stroke="#009600" stroke-width="20" fill="none" />
  <path id="LINE620" d="M 19760 23100 l 3040 0" stroke="#009600" stroke-width="20" fill="none" />
  <path id="LINE621" d="M 24480 22940 l -1180 0" stroke="#009600" stroke-width="40" fill="none" />
  <path id="LINE622" d="M 24480 23260 l -1180 0" stroke="#009600" stroke-width="40" fill="none" />
  <path id="LINE623" d="M 23300 22720 l 0 220" stroke="#009600" stroke-width="40" fill="none" />
  <path id="LINE624" d="M 23300 23260 l 0 280" stroke="#009600" stroke-width="40" fill="none" />
  <path id="LINE625" d="M 24480 22940 l 0 320" stroke="#009600" stroke-width="40" fill="none" />
  <path id="LINE626" d="M 23260 22720 l -520 320" stroke="#009600" stroke-width="40" fill="none" />
  <path id="LINE627" d="M 23260 23540 l -520 -500" stroke="#009600" stroke-width="40" fill="none" />
  <path id="LINE628" d="M 22740 21200 l 1160 0" stroke="#009600" stroke-width="40" fill="none" />
  <path id="LINE629" d="M 22740 21520 l 1160 0" stroke="#009600" stroke-width="40" fill="none" />
  <path id="LINE630" d="M 23900 21020 l 0 180" stroke="#009600" stroke-width="40" fill="none" />
  <path id="LINE631" d="M 23900 21520 l 0 300" stroke="#009600" stroke-width="40" fill="none" />
  <path id="LINE632" d="M 22740 21200 l 0 320" stroke="#009600" stroke-width="40" fill="none" />
  <path id="LINE633" d="M 23940 21020 l 540 320" stroke="#009600" stroke-width="40" fill="none" />
  <path id="LINE634" d="M 23940 21820 l 540 -480" stroke="#009600" stroke-width="40" fill="none" />
  <g id="TEXT57">
    <rect x="24960" y="20860" width="1160" height="640" stroke-width="0" fill="none" id="TEXT57_pbTextBoundingRectEl" />
    <text fill="#000000" font-family="Helvetica" font-size="352" text-anchor="middle" x="25540" y="21356" id="TEXT57_pbTextEl">CWR</text>
  </g>
  <g id="TEXT58">
    <rect x="24960" y="22640" width="1160" height="640" stroke-width="0" fill="none" id="TEXT58_pbTextBoundingRectEl" />
    <text fill="#000000" font-family="Helvetica" font-size="352" text-anchor="middle" x="25540" y="23136" id="TEXT58_pbTextEl">CWS</text>
  </g>
  <path d="M 19780 21340 l -920 440" stroke="#009600" stroke-width="40" fill="none" />
  <path d="M 18860 21780 l 920 460" stroke="#009600" stroke-width="40" fill="none" />
  <path d="M 19780 22220 l -920 440" stroke="#009600" stroke-width="40" fill="none" />
  <path d="M 18860 22660 l 920 460" stroke="#009600" stroke-width="40" fill="none" />
  <path d="M 35400 21700 l 0 -1660" stroke="#000000" stroke-width="20" fill="none" />
  <path d="M 34700 20360 l 1280 0" stroke="#009600" stroke-width="20" fill="none" />
  <path d="M 34700 20360 l 220 560" stroke="#009600" stroke-width="20" fill="none" />
  <path d="M 34700 21360 l 720 0" stroke="#009600" stroke-width="20" fill="none" />
  <path d="M 34700 21360 l 220 -500" stroke="#009600" stroke-width="20" fill="none" />
  <path id="LINE637" d="M 36640 20040 l 0 1660" stroke="#000000" stroke-width="20" fill="none" />
  <path id="LINE638" d="M 37340 21360 l -1280 0" stroke="#009600" stroke-width="20" fill="none" />
  <path id="LINE639" d="M 37340 21360 l -220 -500" stroke="#009600" stroke-width="20" fill="none" />
  <path id="LINE640" d="M 37340 20380 l -720 0" stroke="#009600" stroke-width="20" fill="none" />
  <path id="LINE641" d="M 37340 20380 l -220 540" stroke="#009600" stroke-width="20" fill="none" />
  <path id="POLYGON641" d="M 35400 21360 l 1220 -1000" stroke="#009600" stroke-width="20" fill="none" />
  <path id="POLYGON642" d="M 35960 20320 l 0 -580" stroke="#009600" stroke-width="20" fill="none" />
  <path id="LINE642" d="M 36060 21980 l 0 -620" stroke="#009600" stroke-width="20" fill="none" />
  <g id="TEXT59">
    <rect x="35360" y="18680" width="1160" height="720" stroke-width="0" fill="none" id="TEXT59_pbTextBoundingRectEl" />
    <text fill="#000000" font-family="Helvetica" font-size="352" text-anchor="middle" x="35940" y="19216" id="TEXT59_pbTextEl">CWR</text>
  </g>
  <g id="TEXT60">
    <rect x="35500" y="22240" width="1160" height="720" stroke-width="0" fill="none" id="TEXT60_pbTextBoundingRectEl" />
    <text fill="#000000" font-family="Helvetica" font-size="352" text-anchor="middle" x="36080" y="22776" id="TEXT60_pbTextEl">CWS</text>
  </g>
  <path id="LINE643" d="M 42400 21760 l 0 -1700" stroke="#000000" stroke-width="20" fill="none" />
  <path d="M 41680 20440 l 1280 0" stroke="#009600" stroke-width="20" fill="none" />
  <path d="M 41680 20440 l 220 500" stroke="#009600" stroke-width="20" fill="none" />
  <path d="M 41680 21380 l 740 0" stroke="#009600" stroke-width="20" fill="none" />
  <path d="M 41680 21380 l 220 -500" stroke="#009600" stroke-width="20" fill="none" />
  <path id="LINE648" d="M 43620 20060 l 0 1700" stroke="#000000" stroke-width="20" fill="none" />
  <path id="LINE649" d="M 44340 21420 l -1280 0" stroke="#009600" stroke-width="20" fill="none" />
  <path id="LINE650" d="M 44340 21420 l -220 -540" stroke="#009600" stroke-width="20" fill="none" />
  <path id="LINE651" d="M 44340 20440 l -740 0" stroke="#009600" stroke-width="20" fill="none" />
  <path id="LINE652" d="M 44340 20440 l -220 500" stroke="#009600" stroke-width="20" fill="none" />
  <path id="LINE653" d="M 42400 21380 l 1200 -940" stroke="#009600" stroke-width="20" fill="none" />
  <path id="LINE654" d="M 42940 20380 l 0 -620" stroke="#009600" stroke-width="20" fill="none" />
  <path id="LINE655" d="M 43060 22000 l 0 -580" stroke="#009600" stroke-width="20" fill="none" />
  <g id="TEXT61">
    <rect x="42340" y="18700" width="1160" height="720" stroke-width="0" fill="none" id="TEXT61_pbTextBoundingRectEl" />
    <text fill="#000000" font-family="Helvetica" font-size="352" text-anchor="middle" x="42920" y="19236" id="TEXT61_pbTextEl">CWR</text>
  </g>
  <g id="TEXT62">
    <rect x="42460" y="22260" width="1160" height="720" stroke-width="0" fill="none" id="TEXT62_pbTextBoundingRectEl" />
    <text fill="#000000" font-family="Helvetica" font-size="352" text-anchor="middle" x="43040" y="22796" id="TEXT62_pbTextEl">CWS</text>
  </g>
  <g id="TEXT63">
    <rect x="57600" y="24740" width="1160" height="720" stroke-width="0" fill="none" id="TEXT63_pbTextBoundingRectEl" />
    <text fill="#000000" font-family="Helvetica" font-size="352" text-anchor="middle" x="58180" y="25276" id="TEXT63_pbTextEl">CWR</text>
  </g>
  <g id="TEXT64">
    <rect x="57500" y="32840" width="1460" height="720" stroke-width="0" fill="none" id="TEXT64_pbTextBoundingRectEl" />
    <text fill="#000000" font-family="Helvetica" font-size="352" text-anchor="middle" x="58230" y="33376" id="TEXT64_pbTextEl">至热电</text>
  </g>
  <g id="TEXT65">
    <rect x="53220" y="32160" width="3500" height="900" stroke-width="0" fill="none" id="TEXT65_pbTextBoundingRectEl" />
    <text fill="#000000" font-family="Helvetica" font-size="352" text-anchor="middle" x="54970" y="32786" id="TEXT65_pbTextEl">81-1110.04.F01</text>
  </g>
  <g name="Valve3">
    <path d="M 53885 26781 l 0 -558 1086 558 0 -558 -1086 558" stroke="#000000" stroke-width="20" fill="#0000FF" />
    <path d="M 54423 26499 l 62 -28 0 -490 -119 0 0 490 62 28 -5 0" stroke="#000000" stroke-width="20" fill="#0000FF" />
    <rect x="54257" y="25718" width="326" height="376" stroke="#000000" stroke-width="20" fill="#0000FF" />
  </g>
  <g id="TEXT66">
    <rect x="53460" y="26900" width="3500" height="900" stroke-width="0" fill="none" id="TEXT66_pbTextBoundingRectEl" />
    <text fill="#000000" font-family="Helvetica" font-size="352" text-anchor="middle" x="55210" y="27526" id="TEXT66_pbTextEl">81-1110.10.Y50</text>
  </g>
  <path id="ELLIPSE38" d="M 45266 32940 l -58 -20 -35 -20 -27 -20 -23 -20 -19 -20 -16 -20 -15 -20 -13 -20 -12 -20 -11 -20 -9 -20 -9 -20 -8 -20 -6 -20 -6 -20 -6 -20 -4 -20 -4 -20 -4 -20 -2 -20 -2 -20 -2 -20 -1 -20 0 -20 0 0 0 -20 1 -20 2 -20 2 -20 2 -20 4 -20 4 -20 4 -20 6 -20 6 -20 6 -20 8 -20 9 -20 9 -20 11 -20 12 -20 13 -20 15 -20 16 -20 19 -20 23 -20 27 -20 35 -20 58 -20 108 0 58 20 35 20 27 20 23 20 19 20 16 20 15 20 13 20 12 20 11 20 9 20 9 20 8 20 6 20 6 20 6 20 4 20 4 20 4 20 2 20 2 20 2 20 1 20 0 20 0 0 0 20 -1 20 -2 20 -2 20 -2 20 -4 20 -4 20 -4 20 -6 20 -6 20 -6 20 -8 20 -9 20 -9 20 -11 20 -12 20 -13 20 -15 20 -16 20 -19 20 -23 20 -27 20 -35 20 -58 20 -108 0" stroke="#000000" stroke-width="20" fill="none" />
  <g id="TEXT67">
    <rect x="52700" y="23760" width="3500" height="900" stroke-width="0" fill="none" id="TEXT67_pbTextBoundingRectEl" />
    <text fill="#000000" font-family="Helvetica" font-size="352" text-anchor="middle" x="54450" y="24386" id="TEXT67_pbTextEl">81-1110.10.H50</text>
  </g>
  <rect x="52600" y="23760" width="3740" height="1460" stroke="#000000" stroke-width="20" fill="none" id="RECTANGLE93" />
  <g id="TEXT68">
    <rect x="57180" y="16540" width="2140" height="720" stroke-width="0" fill="none" id="TEXT68_pbTextBoundingRectEl" />
    <text fill="#000000" font-family="Helvetica" font-size="352" text-anchor="middle" x="58250" y="17076" id="TEXT68_pbTextEl">中压蒸汽</text>
  </g>
  <g id="TEXT69">
    <rect x="54940" y="19180" width="3500" height="900" stroke-width="0" fill="none" id="TEXT69_pbTextBoundingRectEl" />
    <text fill="#000000" font-family="Helvetica" font-size="352" text-anchor="middle" x="56690" y="19806" id="TEXT69_pbTextEl">81-1110.56.T03</text>
  </g>
  <path d="M 47660 7320 l 0 840" stroke="#000000" stroke-width="20" fill="none" />
  <path d="M 47440 6640 l 0 820" stroke="#000000" stroke-width="20" fill="none" />
  <path d="M 47860 6640 l 0 820" stroke="#000000" stroke-width="20" fill="none" />
  <path d="M 47160 7320 l 0 840" stroke="#000000" stroke-width="20" fill="none" />
  <path d="M 48160 7320 l 0 840" stroke="#000000" stroke-width="20" fill="none" />
  <rect x="46580" y="6660" width="2160" height="1500" stroke="#000000" stroke-width="20" fill="none" id="RECTANGLE94" />
  <path id="POLYGON660" d="M 49900 7380 l -1140 0" stroke="#FF0000" stroke-width="20" fill="none" />
  <g id="TEXT70">
    <rect x="13720" y="30380" width="4120" height="900" stroke-width="0" fill="none" id="TEXT70_pbTextBoundingRectEl" />
    <text fill="#000000" font-family="Helvetica" font-size="352" text-anchor="middle" x="15780" y="31006" id="TEXT70_pbTextEl">81-1110.10.BE1</text>
  </g>
  <g id="TEXT72">
    <rect x="6200" y="20180" width="500" height="4280" stroke-width="0" fill="none" id="TEXT72_pbTextBoundingRectEl" />
    <text fill="#000000" font-family="Helvetica" font-size="352" text-anchor="middle" x="6450" y="21792" id="TEXT72_pbTextEl">输<tspan x="6450" dy="352">水</tspan><tspan x="6450" dy="352">膨</tspan><tspan x="6450" dy="352">胀</tspan><tspan x="6450" dy="352">管</tspan></text>
  </g>
  <g id="TEXT73">
    <rect x="640" y="21060" width="1760" height="640" stroke-width="0" fill="none" id="TEXT73_pbTextBoundingRectEl" />
    <text fill="#000000" font-family="Helvetica" font-size="352" text-anchor="middle" x="1520" y="21556" id="TEXT73_pbTextEl">输水接管</text>
  </g>
  <g id="TEXT74">
    <rect x="520" y="6540" width="6600" height="900" stroke-width="0" fill="none" id="TEXT74_pbTextBoundingRectEl" />
    <text fill="#000000" font-family="Helvetica" font-size="544" text-anchor="middle" x="3820" y="7262" id="TEXT74_pbTextEl">81-1110.10.BX1</text>
  </g>
  <g id="TEXT75">
    <rect x="28040" y="37020" width="3500" height="900" stroke-width="0" fill="none" id="TEXT75_pbTextBoundingRectEl" />
    <text fill="#000000" font-family="Helvetica" font-size="352" text-anchor="middle" x="29790" y="37646" id="TEXT75_pbTextEl">1110.22B.BP1</text>
  </g>
  <g id="TEXT76">
    <rect x="24200" y="700" width="11140" height="3220" stroke-width="0" fill="none" id="TEXT76_pbTextBoundingRectEl" />
    <text fill="#000000" font-family="Helvetica" font-size="800" text-anchor="middle" x="29770" y="2710" id="TEXT76_pbTextEl">81-汽轮机凝气系统</text>
  </g>
  <path id="POLYGON661" d="M 20420 8080 l -1980 0" stroke="#000000" stroke-width="20" stroke-dasharray="60,60" fill="none" />
  <path id="LINE661" d="M 20420 9600 l -1980 0" stroke="#000000" stroke-width="20" stroke-dasharray="60,60" fill="none" />
  <path id="LINE662" d="M 20420 11100 l -1980 0" stroke="#000000" stroke-width="20" stroke-dasharray="60,60" fill="none" />
  <path id="POLYGON662" d="M 17580 13640 l 620 0" stroke="#000000" stroke-width="20" stroke-dasharray="60,60" fill="none" />
  <path id="LINE663" d="M 17540 15760 l 600 0" stroke="#000000" stroke-width="20" stroke-dasharray="60,60" fill="none" />
  <path id="LINE664" d="M 16400 25740 l 620 0" stroke="#000000" stroke-width="20" stroke-dasharray="60,60" fill="none" />
  <path id="LINE665" d="M 16360 27760 l 620 0" stroke="#000000" stroke-width="20" stroke-dasharray="60,60" fill="none" />
  <path id="LINE666" d="M 21960 27380 l -2340 0" stroke="#000000" stroke-width="20" stroke-dasharray="60,60" fill="none" />
  <path id="LINE667" d="M 22020 29380 l -2400 0" stroke="#000000" stroke-width="20" stroke-dasharray="60,60" fill="none" />
  <path id="POLYGON667" d="M 41020 33320 l -20 980" stroke="#000000" stroke-width="20" stroke-dasharray="60,60" fill="none" />
  <path id="LINE668" d="M 47620 33380 l -20 980" stroke="#000000" stroke-width="20" stroke-dasharray="60,60" fill="none" />
  <path id="LINE669" d="M 48480 25820 l 0 6120" stroke="#000000" stroke-width="20" stroke-dasharray="60,60" fill="none" />
  <path id="POLYGON669" d="M 48480 25820 l 5780 0" stroke="#000000" stroke-width="20" stroke-dasharray="60,60" fill="none" />
  <path id="POLYGON670" d="M 54860 33580 l 0 780" stroke="#000000" stroke-width="20" stroke-dasharray="60,60" fill="none" />
  <path id="POLYGON671" d="M 56380 18120 l 0 820" stroke="#000000" stroke-width="20" stroke-dasharray="60,60" fill="none" />
  <g id="DATAPOINT1" PB:IsMultiState="False" PBD:PtTagName="\\WIN-A79O8OG50DN\AI1.5300_AT_1201A" PB:Type="7" PB:NumberFormat="0.00">
    <rect x="7480" y="3700" width="2620" height="1740" stroke-width="0" fill="none" id="DATAPOINT1_pbTextBoundingRectEl" />
    <text fill="#000000" font-family="Helvetica" font-size="544" text-anchor="middle" x="8790" y="4842" id="DATAPOINT1_pbTextEl" PBD:Property="VAL">#.##</text>
  </g>
  <g id="DATAPOINT2" PB:IsMultiState="False" PBD:PtTagName="\\WIN-A79O8OG50DN\AI1.5300_AT_1201A" PB:Type="7" PB:NumberFormat="0.00">
    <rect x="15560" y="3200" width="1820" height="2160" stroke-width="0" fill="none" id="DATAPOINT2_pbTextBoundingRectEl" />
    <text fill="#000000" font-family="Helvetica" font-size="544" text-anchor="middle" x="16470" y="4552" id="DATAPOINT2_pbTextEl" PBD:Property="VAL">#.##</text>
  </g>
</svg>