<?xml version="1.0" encoding="UTF-8"?>
<svg height="100%" width="100%" viewBox="0 0 64000 32000" version="1.1" xmlns="http://www.w3.org/2000/svg" xmlns:xlink="http://www.w3.org/1999/xlink" xmlns:PB="urn:osisoft-com-pb" xmlns:PBI="urn:osisoft-com-interface" xmlns:PBD="urn:osisoft-com-data" style="background-color:#C0C0C0">
  <title>Graphic151</title>
  <defs>
    <PBD:TagUses tag="\\RTDBB\170_PT_7501">
      <PBI:Symbol name="DATAPOINT217" PB:Type="7" />
    </PBD:TagUses>
    <PBD:TagUses tag="\\RTDBB\170_PT_7502">
      <PBI:Symbol name="DATAPOINT218" PB:Type="7" />
    </PBD:TagUses>
    <PBD:TagUses tag="\\RTDBB\170_PIC_755_PV">
      <PBI:Symbol name="DATAPOINT219" PB:Type="7" />
    </PBD:TagUses>
    <PBD:TagUses tag="\\RTDBB\170_TT_7501">
      <PBI:Symbol name="DATAPOINT220" PB:Type="7" />
    </PBD:TagUses>
    <PBD:TagUses tag="\\RTDBB\170_PT_7503A">
      <PBI:Symbol name="DATAPOINT221" PB:Type="7" />
    </PBD:TagUses>
    <PBD:TagUses tag="\\RTDBB\170_PT_7503B">
      <PBI:Symbol name="DATAPOINT222" PB:Type="7" />
    </PBD:TagUses>
    <PBD:TagUses tag="\\RTDBB\170_PT_7503C">
      <PBI:Symbol name="DATAPOINT223" PB:Type="7" />
    </PBD:TagUses>
    <PBD:TagUses tag="\\RTDBB\170_TT_7503">
      <PBI:Symbol name="DATAPOINT224" PB:Type="7" />
    </PBD:TagUses>
    <PBD:TagUses tag="\\RTDBB\170_PDT_7501">
      <PBI:Symbol name="DATAPOINT225" PB:Type="7" />
    </PBD:TagUses>
  </defs>
  <g id="TEXT51">
    <rect x="25000" y="0" width="14000" height="2000" stroke-width="0" fill="none" id="TEXT51_pbTextBoundingRectEl" />
    <text fill="#000000" font-family="Helvetica" font-size="720" font-weight="bold" text-anchor="middle" x="32000" y="1360" id="TEXT51_pbTextEl">C075A PK704乙烯压缩机流程图</text>
  </g>
  <rect x="18560" y="11140" width="2500" height="3740" stroke="#000000" stroke-width="20" fill="none" />
  <path d="M 21100 11140 l -1 -12 0 -13 -1 -12 -2 -13 -1 -12 -2 -13 -3 -12 -3 -13 -3 -12 -4 -13 -4 -12 -4 -12 -5 -12 -5 -13 -5 -12 -6 -12 -7 -12 -6 -12 -7 -12 -7 -12 -8 -12 -8 -11 -9 -12 -8 -11 -10 -12 -9 -11 -10 -11 -10 -12 -10 -11 -11 -11 -11 -10 -12 -11 -12 -11 -12 -10 -12 -10 -13 -11 -13 -10 -14 -10 -13 -10 -14 -9 -15 -10 -14 -9 -15 -10 -15 -9 -16 -9 -15 -8 -16 -9 -16 -9 -17 -8 -17 -8 -17 -8 -17 -8 -17 -8 -18 -7 -18 -7 -18 -7 -18 -7 -19 -7 -19 -7 -18 -6 -20 -6 -19 -6 -19 -6 -20 -6 -20 -5 -20 -5 -20 -5 -20 -5 -21 -5 -21 -4 -20 -4 -21 -4 -21 -4 -21 -4 -21 -3 -22 -3 -21 -3 -22 -3 -21 -2 -22 -3 -21 -2 -22 -1 -22 -2 -22 -2 -22 -1 -22 -1 -22 -1 -22 0 -22 0 -22 -1 -21 1 -22 0 -22 0 -22 1 -22 1 -22 1 -22 2 -22 2 -22 1 -21 2 -22 3 -21 2 -22 3 -21 3 -22 3 -21 3 -21 4 -21 4 -21 4 -20 4 -21 4 -21 5 -20 5 -20 5 -20 5 -20 5 -20 6 -19 6 -19 6 -19 6 -19 6 -19 7 -19 7 -18 7 -18 7 -18 7 -18 7 -17 8 -17 8 -17 8 -17 8 -17 8 -16 9 -16 9 -15 8 -16 9 -15 9 -15 10 -14 9 -15 10 -14 9 -13 10 -14 10 -13 10 -13 11 -12 10 -12 10 -12 11 -12 11 -11 10 -11 11 -10 11 -10 12 -10 11 -9 11 -10 12 -8 11 -9 12 -8 11 -8 12 -7 12 -7 12 -6 12 -7 12 -6 12 -5 12 -5 13 -5 12 -4 12 -4 12 -4 13 -3 12 -3 13 -3 12 -2 13 -1 12 -2 13 -1 12 0 13 0 12" stroke="#000000" stroke-width="20" fill="none" />
  <path d="M 18580 14860 l 0 13 0 13 1 12 2 13 1 12 2 13 3 12 3 13 3 12 4 13 4 12 4 12 5 12 5 13 5 12 6 12 7 12 6 12 7 12 7 12 8 12 8 11 9 12 8 11 10 12 9 11 10 11 10 12 10 11 11 10 11 11 12 11 12 11 12 10 12 10 13 11 13 10 14 10 13 10 14 9 15 10 14 9 15 10 15 9 16 9 15 8 16 9 16 9 17 8 17 8 17 8 17 8 17 8 18 7 18 7 18 7 18 7 19 7 19 7 18 6 20 6 19 6 19 6 20 6 20 5 20 5 20 5 20 5 21 5 21 4 20 4 21 4 21 4 21 4 21 3 22 3 21 3 22 3 21 2 22 3 21 2 22 1 22 2 22 2 22 1 22 1 22 1 22 0 22 0 21 0 22 0 22 0 22 0 22 -1 22 -1 22 -1 22 -2 22 -2 22 -1 21 -2 22 -3 21 -2 22 -3 21 -3 22 -3 21 -3 21 -4 21 -4 21 -4 20 -4 21 -4 21 -5 20 -5 20 -5 20 -5 20 -5 20 -6 19 -6 19 -6 19 -6 19 -6 19 -7 19 -7 18 -7 18 -7 18 -7 18 -7 17 -8 17 -8 17 -8 17 -8 17 -8 16 -9 16 -9 15 -8 16 -9 15 -9 15 -10 14 -9 15 -10 14 -9 13 -10 14 -10 13 -10 13 -11 12 -10 12 -10 12 -11 12 -11 11 -10 11 -11 10 -11 10 -12 10 -11 9 -11 10 -12 8 -11 9 -12 8 -11 8 -12 7 -12 7 -12 6 -12 7 -12 6 -12 5 -12 5 -13 5 -12 4 -12 4 -12 4 -13 3 -12 3 -13 3 -12 2 -13 1 -12 2 -13 1 -12 0 -13 1 -12" stroke="#000000" stroke-width="20" fill="none" />
  <rect x="32900" y="11160" width="2500" height="3740" stroke="#000000" stroke-width="20" fill="none" />
  <path d="M 35420 11160 l -1 -12 0 -13 -1 -12 -2 -13 -1 -12 -2 -13 -3 -12 -3 -13 -3 -12 -4 -13 -4 -12 -4 -12 -5 -12 -5 -13 -5 -12 -6 -12 -7 -12 -6 -12 -7 -12 -7 -12 -8 -12 -8 -11 -9 -12 -8 -11 -10 -12 -9 -11 -10 -11 -10 -12 -10 -11 -11 -11 -11 -10 -12 -11 -12 -11 -12 -10 -12 -10 -13 -11 -13 -10 -14 -10 -13 -10 -14 -9 -15 -10 -14 -9 -15 -10 -15 -9 -16 -9 -15 -8 -16 -9 -16 -9 -17 -8 -17 -8 -17 -8 -17 -8 -17 -8 -18 -7 -18 -7 -18 -7 -18 -7 -19 -7 -19 -7 -18 -6 -20 -6 -19 -6 -19 -6 -20 -6 -20 -5 -20 -5 -20 -5 -20 -5 -21 -5 -21 -4 -20 -4 -21 -4 -21 -4 -21 -4 -21 -3 -22 -3 -21 -3 -22 -3 -21 -2 -22 -3 -21 -2 -22 -1 -22 -2 -22 -2 -22 -1 -22 -1 -22 -1 -22 0 -22 0 -21 -1 -22 1 -22 0 -22 0 -22 1 -22 1 -22 1 -22 2 -22 2 -22 1 -21 2 -22 3 -21 2 -22 3 -21 3 -22 3 -21 3 -21 4 -21 4 -21 4 -20 4 -21 4 -21 5 -20 5 -20 5 -20 5 -20 5 -20 6 -19 6 -19 6 -19 6 -19 6 -19 7 -19 7 -18 7 -18 7 -18 7 -18 7 -17 8 -17 8 -17 8 -17 8 -17 8 -16 9 -16 9 -15 8 -16 9 -15 9 -15 10 -14 9 -15 10 -14 9 -13 10 -14 10 -13 10 -13 11 -12 10 -12 10 -12 11 -12 11 -11 10 -11 11 -10 11 -10 12 -10 11 -9 11 -10 12 -8 11 -9 12 -8 11 -8 12 -7 12 -7 12 -6 12 -7 12 -6 12 -5 12 -5 13 -5 12 -4 12 -4 12 -4 13 -3 12 -3 13 -3 12 -2 13 -1 12 -2 13 -1 12 0 13 0 12" stroke="#000000" stroke-width="20" fill="none" />
  <path d="M 32900 14880 l 0 13 0 13 1 12 2 13 1 12 2 13 3 12 3 13 3 12 4 13 4 12 4 12 5 12 5 13 5 12 6 12 7 12 6 12 7 12 7 12 8 12 8 11 9 12 8 11 10 12 9 11 10 11 10 12 10 11 11 10 11 11 12 11 12 11 12 10 12 10 13 11 13 10 14 10 13 10 14 9 15 10 14 9 15 10 15 9 16 9 15 8 16 9 16 9 17 8 17 8 17 8 17 8 17 8 18 7 18 7 18 7 18 7 19 7 19 7 18 6 20 6 19 6 19 6 20 6 20 5 20 5 20 5 20 5 21 5 21 4 20 4 21 4 21 4 21 4 21 3 22 3 21 3 22 3 21 2 22 3 21 2 22 1 22 2 22 2 22 1 22 1 22 1 22 0 22 0 21 0 22 0 22 0 22 0 22 -1 22 -1 22 -1 22 -2 22 -2 22 -1 21 -2 22 -3 21 -2 22 -3 21 -3 22 -3 21 -3 21 -4 21 -4 21 -4 20 -4 21 -4 21 -5 20 -5 20 -5 20 -5 20 -5 20 -6 19 -6 19 -6 19 -6 19 -6 19 -7 19 -7 18 -7 18 -7 18 -7 18 -7 17 -8 17 -8 17 -8 17 -8 17 -8 16 -9 16 -9 15 -8 16 -9 15 -9 15 -10 14 -9 15 -10 14 -9 13 -10 14 -10 13 -10 13 -11 12 -10 12 -10 12 -11 12 -11 11 -10 11 -11 10 -11 10 -12 10 -11 9 -11 10 -12 8 -11 9 -12 8 -11 8 -12 7 -12 7 -12 6 -12 7 -12 6 -12 5 -12 5 -13 5 -12 4 -12 4 -12 4 -13 3 -12 3 -13 3 -12 2 -13 1 -12 2 -13 1 -12 0 -13 1 -12" stroke="#000000" stroke-width="20" fill="none" />
  <path d="M 41440 7460 l 3740 0 0 1600 -3740 0 0 -1600 0 0" stroke="#000000" stroke-width="20" fill="none" />
  <path d="M 45180 9080 l 12 -1 13 0 12 -1 13 0 12 -2 13 -1 12 -1 13 -2 12 -2 13 -3 12 -2 12 -3 12 -3 13 -3 12 -4 12 -3 12 -4 12 -5 12 -4 12 -5 12 -5 11 -5 12 -5 11 -6 12 -5 11 -6 11 -7 12 -6 11 -7 11 -7 10 -7 11 -7 11 -8 10 -7 10 -8 11 -8 10 -9 10 -8 10 -9 9 -9 10 -9 9 -9 10 -9 9 -10 9 -10 8 -10 9 -10 9 -10 8 -11 8 -10 8 -11 8 -11 8 -11 7 -11 7 -12 7 -11 7 -12 7 -12 7 -11 6 -12 6 -13 6 -12 6 -12 6 -13 5 -12 5 -13 5 -13 5 -13 5 -13 4 -13 4 -13 4 -13 4 -14 4 -13 3 -13 3 -14 3 -14 3 -13 2 -14 3 -14 2 -13 1 -14 2 -14 2 -14 1 -14 1 -14 1 -14 0 -14 0 -14 1 -13 -1 -14 0 -14 0 -14 -1 -14 -1 -14 -1 -14 -2 -14 -2 -14 -1 -14 -2 -13 -3 -14 -2 -14 -3 -13 -3 -14 -3 -14 -3 -13 -4 -13 -4 -14 -4 -13 -4 -13 -4 -13 -5 -13 -5 -13 -5 -13 -5 -13 -5 -12 -6 -13 -6 -12 -6 -12 -6 -12 -6 -13 -7 -11 -7 -12 -7 -12 -7 -11 -7 -12 -7 -11 -8 -11 -8 -11 -8 -11 -8 -10 -8 -11 -9 -10 -9 -10 -8 -10 -9 -10 -9 -10 -10 -9 -9 -9 -10 -9 -9 -9 -10 -9 -10 -8 -10 -9 -11 -8 -10 -8 -10 -7 -11 -8 -11 -7 -10 -7 -11 -7 -11 -7 -12 -6 -11 -7 -11 -6 -12 -5 -11 -6 -12 -5 -11 -5 -12 -5 -12 -5 -12 -4 -12 -5 -12 -4 -12 -3 -12 -4 -13 -3 -12 -3 -12 -3 -12 -2 -13 -3 -12 -2 -13 -2 -12 -1 -13 -1 -12 -2 -13 0 -12 -1 -13 0 -12 0" stroke="#000000" stroke-width="20" fill="none" />
  <path d="M 41460 7480 l -13 0 -13 0 -12 1 -13 0 -12 2 -13 1 -12 1 -13 2 -12 2 -13 3 -12 2 -12 3 -12 3 -13 3 -12 4 -12 3 -12 4 -12 5 -12 4 -12 5 -12 5 -11 5 -12 5 -11 6 -12 5 -11 6 -11 7 -12 6 -11 7 -10 7 -11 7 -11 7 -11 8 -10 7 -10 8 -11 8 -10 9 -10 8 -10 9 -9 9 -10 9 -9 9 -10 9 -9 10 -9 10 -8 10 -9 10 -9 10 -8 11 -8 10 -8 11 -8 11 -8 11 -7 11 -7 12 -7 11 -7 12 -7 12 -7 11 -6 12 -6 13 -6 12 -6 12 -6 13 -5 12 -5 13 -5 13 -5 13 -5 13 -4 13 -4 13 -4 13 -4 14 -4 13 -3 13 -3 14 -3 14 -3 13 -2 14 -3 14 -2 13 -1 14 -2 14 -2 14 -1 14 -1 14 -1 14 0 14 0 14 0 13 0 14 0 14 0 14 1 14 1 14 1 14 2 14 2 14 1 14 2 13 3 14 2 14 3 13 3 14 3 14 3 13 4 13 4 14 4 13 4 13 4 13 5 13 5 13 5 13 5 13 5 12 6 13 6 12 6 12 6 12 6 13 7 11 7 12 7 12 7 11 7 12 7 11 8 11 8 11 8 11 8 10 8 11 9 10 9 10 8 10 9 10 9 10 10 9 9 9 10 9 9 9 10 9 10 8 10 9 11 8 10 8 10 7 11 8 11 7 10 7 11 7 11 7 12 6 11 7 11 6 12 5 11 6 12 5 11 5 12 5 12 5 12 4 12 5 12 4 12 3 12 4 13 3 12 3 12 3 12 2 13 3 12 2 13 2 12 1 13 1 12 2 13 0 12 1 13 0 12 1" stroke="#000000" stroke-width="20" fill="none" />
  <rect x="41440" y="7100" width="80" height="2260" stroke="#000000" stroke-width="20" fill="none" />
  <rect x="45080" y="7140" width="80" height="2260" stroke="#000000" stroke-width="20" fill="none" />
  <rect x="23440" y="22480" width="12260" height="4300" stroke="#000000" stroke-width="20" fill="#C0C0C0" id="RECTANGLE14" />
  <rect x="24680" y="20620" width="2800" height="1400" stroke="#000000" stroke-width="20" fill="#C0C0C0" id="RECTANGLE17" />
  <path id="POLYGON82" d="M 24980 20660 l 0 440 300 0 0 480 -300 0 0 480" stroke="#000000" stroke-width="20" fill="none" />
  <path id="LINE82" d="M 27160 20640 l 0 440 -300 0 0 480 300 0 0 480" stroke="#000000" stroke-width="20" fill="none" />
  <path id="POLYGON83" d="M 25320 21120 l 1580 0" stroke="#000000" stroke-width="20" fill="none" />
  <path id="LINE83" d="M 25320 21240 l 1580 0" stroke="#000000" stroke-width="20" fill="none" />
  <path id="LINE84" d="M 25280 21380 l 1580 0" stroke="#000000" stroke-width="20" fill="none" />
  <path id="LINE85" d="M 25280 21540 l 1580 0" stroke="#000000" stroke-width="20" fill="none" />
  <rect x="25960" y="22020" width="220" height="2420" stroke="#000000" stroke-width="20" fill="#C0C0C0" id="RECTANGLE19" />
  <rect x="25840" y="22500" width="500" height="420" stroke="#000000" stroke-width="20" fill="#C0C0C0" id="RECTANGLE15" />
  <rect x="27860" y="20640" width="2800" height="1400" stroke="#000000" stroke-width="20" fill="#C0C0C0" id="RECTANGLE21" />
  <path id="LINE86" d="M 28160 20680 l 0 440 300 0 0 480 -300 0 0 480" stroke="#000000" stroke-width="20" fill="none" />
  <path id="LINE87" d="M 30340 20660 l 0 440 -300 0 0 460 300 0 0 480" stroke="#000000" stroke-width="20" fill="none" />
  <path id="LINE88" d="M 28500 21140 l 1580 0" stroke="#000000" stroke-width="20" fill="none" />
  <path id="LINE89" d="M 28500 21260 l 1580 0" stroke="#000000" stroke-width="20" fill="none" />
  <path id="LINE90" d="M 28460 21400 l 1580 0" stroke="#000000" stroke-width="20" fill="none" />
  <path id="LINE91" d="M 28460 21560 l 1580 0" stroke="#000000" stroke-width="20" fill="none" />
  <rect x="29140" y="22040" width="220" height="2380" stroke="#000000" stroke-width="20" fill="#C0C0C0" id="RECTANGLE23" />
  <rect x="29020" y="22520" width="500" height="420" stroke="#000000" stroke-width="20" fill="#C0C0C0" id="RECTANGLE24" />
  <path id="POLYGON93" d="M 21100 11780 l 1280 0" stroke="#000000" stroke-width="40" fill="none" />
  <path id="POLYGON94" d="M 22420 11780 l 0 12260" stroke="#000000" stroke-width="40" fill="none" />
  <path id="LINE94" d="M 22420 24040 l 3460 0" stroke="#000000" stroke-width="40" fill="none" />
  <path id="LINE95" d="M 26220 24040 l 2760 0" stroke="#000000" stroke-width="40" fill="none" />
  <path id="LINE96" d="M 22320 20900 l 2340 0" stroke="#000000" stroke-width="40" fill="none" />
  <path id="LINE97" d="M 30640 20860 l 820 0" stroke="#000000" stroke-width="40" fill="none" />
  <path id="LINE98" d="M 31480 11720 l 0 9120" stroke="#000000" stroke-width="40" fill="none" />
  <path id="LINE99" d="M 31380 11740 l 1500 0" stroke="#000000" stroke-width="40" fill="none" />
  <path id="LINE100" d="M 17040 22300 l 5380 0" stroke="#000000" stroke-width="40" fill="none" />
  <path id="LINE101" d="M 1920 12460 l 16620 0" stroke="#000000" stroke-width="40" fill="none" />
  <path id="POLYGON101" d="M 44460 7480 l 0 -3480" stroke="#000000" stroke-width="40" fill="none" />
  <path id="LINE102" d="M 12160 3960 l 32280 0" stroke="#000000" stroke-width="40" fill="none" />
  <path id="LINE103" d="M 12140 12460 l 0 -8540" stroke="#000000" stroke-width="40" fill="none" />
  <path id="LINE104" d="M 44460 6600 l 5360 0" stroke="#000000" stroke-width="40" fill="none" />
  <path id="LINE105" d="M 35400 14540 l 6420 0" stroke="#000000" stroke-width="40" fill="none" />
  <path id="LINE106" d="M 41820 14580 l 0 -5480" stroke="#000000" stroke-width="40" fill="none" />
  <path id="POLYGON106" d="M 24140 21340 l 540 0" stroke="#FF0000" stroke-width="20" fill="none" />
  <path id="POLYGON107" d="M 24120 21340 l 0 2020" stroke="#FF0000" stroke-width="20" fill="none" />
  <path id="LINE107" d="M 24120 23320 l 1720 0" stroke="#FF0000" stroke-width="20" fill="none" />
  <path id="LINE108" d="M 26260 23340 l 2720 0" stroke="#FF0000" stroke-width="20" fill="none" />
  <path id="LINE109" d="M 29500 23340 l 1660 0" stroke="#FF0000" stroke-width="20" fill="none" />
  <path id="LINE110" d="M 30680 21340 l 520 0" stroke="#FF0000" stroke-width="20" fill="none" />
  <path id="LINE111" d="M 31220 21360 l 0 7720" stroke="#FF0000" stroke-width="20" fill="none" />
  <path id="LINE112" d="M 34180 15620 l 0 6880" stroke="#FF0000" stroke-width="20" fill="none" />
  <path id="LINE113" d="M 34200 26780 l 0 2360" stroke="#FF0000" stroke-width="20" fill="none" />
  <path id="LINE114" d="M 19840 8100 l 0 2300" stroke="#FF0000" stroke-width="20" fill="none" />
  <path id="LINE115" d="M 34180 8100 l 0 2300" stroke="#FF0000" stroke-width="20" fill="none" />
  <path id="LINE116" d="M 19820 8120 l 19720 0" stroke="#FF0000" stroke-width="20" fill="none" />
  <path id="LINE117" d="M 39540 8140 l 0 6240" stroke="#FF0000" stroke-width="20" fill="none" />
  <path id="LINE118" d="M 39540 14680 l 0 3180" stroke="#FF0000" stroke-width="20" fill="none" />
  <path id="LINE119" d="M 34200 17880 l 9200 0" stroke="#FF0000" stroke-width="20" fill="none" />
  <path id="LINE120" d="M 43360 9040 l 0 8860" stroke="#FF0000" stroke-width="20" fill="none" />
  <path id="LINE121" d="M 19880 29100 l 31180 0" stroke="#FF0000" stroke-width="20" fill="none" />
  <path id="LINE122" d="M 19840 15560 l 0 6540" stroke="#FF0000" stroke-width="20" fill="none" />
  <path id="LINE123" d="M 19820 24740 l 0 4380" stroke="#FF0000" stroke-width="20" fill="none" />
  <path id="POLYGON123" d="M 23440 24400 l -15720 0" stroke="#FFFF00" stroke-width="20" fill="none" />
  <path id="LINE124" d="M 19840 22560 l 0 1740" stroke="#FF0000" stroke-width="20" fill="none" />
  <path id="POLYGON124" d="M 17060 22260 l 0 2140" stroke="#000000" stroke-width="40" fill="none" />
  <path id="POLYGON125" d="M 6260 12420 l 0 17400" stroke="#FFFF00" stroke-width="20" fill="none" />
  <path id="POLYGON126" d="M 7760 24380 l 0 5420" stroke="#FFFF00" stroke-width="20" fill="none" />
  <rect x="9960" y="26680" width="2340" height="1540" stroke="#000000" stroke-width="20" fill="none" />
  <path d="M 9960 27780 l 2300 0" stroke="#000000" stroke-width="20" fill="none" />
  <path d="M 11120 27780 l 0 1120" stroke="#000000" stroke-width="20" fill="none" />
  <rect x="9280" y="26680" width="680" height="420" stroke="#000000" stroke-width="20" fill="none" />
  <path d="M 9280 27060 l 180 -380 80 340 180 -340 40 340 200 -300" stroke="#000000" stroke-width="20" fill="none" />
  <rect x="9260" y="27780" width="680" height="420" stroke="#000000" stroke-width="20" fill="none" />
  <path d="M 9260 28160 l 180 -360 80 340 200 -340 20 340 200 -320" stroke="#000000" stroke-width="20" fill="none" />
  <path id="POLYGON133" d="M 10980 28340 l 0 500" stroke="#000000" stroke-width="20" fill="none" />
  <path id="LINE133" d="M 11260 28360 l 0 480" stroke="#000000" stroke-width="20" fill="none" />
  <g id="TEXT52">
    <rect x="10220" y="25980" width="1520" height="680" stroke-width="0" fill="none" id="TEXT52_pbTextBoundingRectEl" />
    <text fill="#000000" font-family="Helvetica" font-size="560" text-anchor="middle" x="10980" y="26600" id="TEXT52_pbTextEl">一级</text>
  </g>
  <rect x="13480" y="26680" width="2340" height="1540" stroke="#000000" stroke-width="20" fill="none" />
  <path d="M 13480 27780 l 2300 0" stroke="#000000" stroke-width="20" fill="none" />
  <path d="M 14640 27780 l 0 1120" stroke="#000000" stroke-width="20" fill="none" />
  <rect x="12800" y="26680" width="680" height="420" stroke="#000000" stroke-width="20" fill="none" />
  <path d="M 12800 27060 l 180 -380 80 340 180 -340 40 340 200 -300" stroke="#000000" stroke-width="20" fill="none" />
  <rect x="12780" y="27780" width="680" height="420" stroke="#000000" stroke-width="20" fill="none" />
  <path d="M 12780 28160 l 180 -360 80 340 200 -340 20 340 200 -320" stroke="#000000" stroke-width="20" fill="none" />
  <path id="LINE138" d="M 14500 28340 l 0 500" stroke="#000000" stroke-width="20" fill="none" />
  <path id="LINE139" d="M 14780 28360 l 0 480" stroke="#000000" stroke-width="20" fill="none" />
  <g id="TEXT53">
    <rect x="13740" y="25980" width="1520" height="680" stroke-width="0" fill="none" id="TEXT53_pbTextBoundingRectEl" />
    <text fill="#000000" font-family="Helvetica" font-size="560" text-anchor="middle" x="14500" y="26600" id="TEXT53_pbTextEl">一级</text>
  </g>
  <path id="POLYGON139" d="M 1620 29820 l 11500 0" stroke="#FFFF00" stroke-width="20" fill="none" />
  <path id="POLYGON140" d="M 13080 28260 l 0 1560" stroke="#FFFF00" stroke-width="20" fill="none" />
  <path id="LINE140" d="M 13120 25660 l 0 1020" stroke="#FFFF00" stroke-width="20" fill="none" />
  <path id="LINE141" d="M 9580 25680 l 0 1020" stroke="#FFFF00" stroke-width="20" fill="none" />
  <path id="LINE142" d="M 9580 28240 l 0 1560" stroke="#FFFF00" stroke-width="20" fill="none" />
  <path id="POLYGON142" d="M 13080 25660 l -4300 0" stroke="#FFFF00" stroke-width="20" fill="none" />
  <path id="LINE143" d="M 8820 25640 l 0 4200" stroke="#FFFF00" stroke-width="20" fill="none" />
  <g id="TEXT54">
    <rect x="23840" y="2120" width="2220" height="460" stroke-width="0" fill="none" id="TEXT54_pbTextBoundingRectEl" />
    <text fill="#000000" font-family="Helvetica" font-size="560" text-anchor="middle" x="24950" y="2630" id="TEXT54_pbTextEl">PIC755</text>
  </g>
  <g id="TEXT55">
    <rect x="25640" y="2620" width="1840" height="680" stroke-width="0" fill="none" id="TEXT55_pbTextBoundingRectEl" />
    <text fill="#000000" font-family="Helvetica" font-size="560" text-anchor="middle" x="26560" y="3240" id="TEXT55_pbTextEl">MPaG</text>
  </g>
  <g name="a3DValve">
    <path d="M 25006 3560 l 0 438 -57 0 0 -438 57 0 0 0" stroke-width="0" fill="#808080" />
    <path d="M 25000 3560 l 0 438 -46 0 0 -438 46 0 0 0" stroke-width="0" fill="#B4B4B4" />
    <path d="M 24992 3560 l 0 438 -31 0 0 -438 31 0 0 0" stroke-width="0" fill="#DEDEDE" />
    <path d="M 24982 3560 l 0 438 -11 0 0 -438 11 0 0 0" stroke-width="0" fill="#FFFFFF" />
    <path d="M 24949 3560 l 0 438" stroke="#000000" stroke-width="20" fill="none" />
    <path d="M 25006 3998 l 0 -438" stroke="#000000" stroke-width="20" fill="none" />
    <path d="M 24977 3638 l -312 0 1 -30 6 -31 7 -28 10 -30 13 -25 16 -26 18 -24 21 -23 22 -18 24 -17 25 -16 27 -13 30 -11 28 -7 31 -4 33 -2 32 2 31 4 28 7 30 11 27 13 27 16 24 17 22 18 20 23 17 24 17 26 12 25 13 30 7 28 4 31 3 30 -314 0 0 0" stroke-width="0" fill="#808080" />
    <path d="M 24977 3638 l -284 0 3 -30 3 -31 7 -28 10 -28 12 -27 14 -26 17 -24 18 -20 19 -21 22 -17 24 -16 24 -13 27 -11 26 -7 28 -4 30 -2 29 2 28 4 26 7 28 11 23 13 24 16 22 17 20 21 17 20 17 24 14 26 12 27 10 28 7 28 4 31 1 30 -282 0 0 0" stroke-width="0" fill="#969696" />
    <path d="M 24977 3638 l -225 0 1 -30 4 -31 5 -28 7 -28 10 -27 12 -26 12 -24 15 -20 16 -21 17 -17 18 -16 20 -13 21 -11 20 -7 23 -4 24 -2 23 2 23 4 20 7 21 11 20 13 18 16 17 17 16 21 15 20 12 24 12 26 10 27 7 28 5 28 4 31 1 30 -224 0 0 0" stroke-width="0" fill="#B4B4B4" />
    <path d="M 24977 3638 l -166 0 0 -30 4 -31 3 -28 7 -30 7 -25 6 -26 11 -24 10 -23 12 -18 14 -17 13 -16 14 -13 15 -11 16 -7 17 -4 17 -2 17 2 17 4 15 7 15 11 16 13 14 16 11 17 12 18 12 23 9 24 8 26 7 25 6 30 4 28 2 31 1 30 -166 0 0 0" stroke-width="0" fill="#CCCCCC" />
    <path d="M 24977 3638 l -108 0 0 -30 2 -31 4 -28 3 -30 5 -25 5 -26 5 -24 7 -23 9 -18 8 -17 9 -16 8 -13 10 -11 10 -7 12 -4 11 -2 10 2 12 4 10 7 11 11 8 13 9 16 8 17 9 18 6 23 5 24 6 26 4 25 4 30 3 28 2 31 0 30 -107 0 0 0" stroke-width="0" fill="#DEDEDE" />
    <path d="M 24977 3638 l -312 0 0 0 1 -30 6 -31 7 -28 10 -30 13 -25 16 -26 18 -24 21 -23 22 -18 24 -17 25 -16 27 -13 30 -11 28 -7 31 -4 33 -2 0 0 32 2 31 4 28 7 30 11 27 13 27 16 24 17 22 18 20 23 17 24 17 26 12 25 13 30 7 28 4 31 3 30 -314 0" stroke="#000000" stroke-width="20" fill="none" />
    <path d="M 24977 3638 l -30 0 0 -30 0 -31 2 -28 0 -30 2 -25 2 -26 1 -24 2 -23 1 -18 4 -17 2 -16 3 -13 2 -11 3 -7 2 -4 4 -2 3 2 3 4 3 7 3 11 1 13 4 16 2 17 1 18 2 23 1 24 3 26 1 25 0 30 2 28 0 31 0 30 -29 0 0 0" stroke-width="0" fill="#FFFFFF" />
    <path d="M 24598 4185 l 0 -381 764 381 0 -381 -764 381 0 0" stroke-width="0" fill="#808080" />
    <path d="M 24598 4167 l 0 -342 764 342 0 -342 -764 342 0 0" stroke-width="0" fill="#969696" />
    <path d="M 24598 4127 l 0 -262 764 262 0 -262 -764 262 0 0" stroke-width="0" fill="#B4B4B4" />
    <path d="M 24598 4088 l 0 -186 764 186 0 -186 -764 186 0 0" stroke-width="0" fill="#CCCCCC" />
    <path d="M 24598 4059 l 0 -129 764 129 0 -129 -764 129 0 0" stroke-width="0" fill="#DEDEDE" />
    <path d="M 24598 4019 l 0 -49 764 49 0 -49 -764 49 0 0" stroke-width="0" fill="#FFFFFF" />
    <path d="M 24598 4185 l 0 -381 764 381 0 -381 -764 381" stroke="#000000" stroke-width="20" fill="none" />
  </g>
  <path id="POLYGON143" d="M 24960 2900 l 0 340" stroke="#000000" stroke-width="20" stroke-dasharray="60,60" fill="none" />
  <path id="POLYGON144" d="M 26120 2600 l 20480 0" stroke="#000000" stroke-width="20" stroke-dasharray="60,60" fill="none" />
  <path id="LINE144" d="M 46540 2620 l 0 3940" stroke="#000000" stroke-width="20" stroke-dasharray="60,60" fill="none" />
  <g id="TEXT56">
    <rect x="36240" y="11240" width="2220" height="460" stroke-width="0" fill="none" id="TEXT56_pbTextBoundingRectEl" />
    <text fill="#000000" font-family="Helvetica" font-size="560" text-anchor="middle" x="37350" y="11750" id="TEXT56_pbTextEl">PI7502</text>
  </g>
  <g id="TEXT57">
    <rect x="37460" y="11740" width="1840" height="680" stroke-width="0" fill="none" id="TEXT57_pbTextBoundingRectEl" />
    <text fill="#000000" font-family="Helvetica" font-size="560" text-anchor="middle" x="38380" y="12360" id="TEXT57_pbTextEl">MPaG</text>
  </g>
  <path id="POLYGON145" d="M 35400 11780 l 900 0" stroke="#000000" stroke-width="20" stroke-dasharray="60,60" fill="none" />
  <g id="TEXT58">
    <rect x="36200" y="13000" width="1920" height="460" stroke-width="0" fill="none" id="TEXT58_pbTextBoundingRectEl" />
    <text fill="#000000" font-family="Helvetica" font-size="560" text-anchor="middle" x="37160" y="13510" id="TEXT58_pbTextEl">TI7501</text>
  </g>
  <g id="TEXT59">
    <rect x="38160" y="13540" width="600" height="680" stroke-width="0" fill="none" id="TEXT59_pbTextBoundingRectEl" />
    <text fill="#000000" font-family="Helvetica" font-size="560" text-anchor="middle" x="38460" y="14160" id="TEXT59_pbTextEl">℃</text>
  </g>
  <path id="LINE145" d="M 35400 13680 l 900 0" stroke="#000000" stroke-width="20" stroke-dasharray="60,60" fill="none" />
  <g id="TEXT60">
    <rect x="14580" y="10940" width="2340" height="460" stroke-width="0" fill="none" id="TEXT60_pbTextBoundingRectEl" />
    <text fill="#000000" font-family="Helvetica" font-size="560" text-anchor="middle" x="15750" y="11450" id="TEXT60_pbTextEl">PI7501</text>
  </g>
  <g id="TEXT61">
    <rect x="15800" y="11440" width="1840" height="680" stroke-width="0" fill="none" id="TEXT61_pbTextBoundingRectEl" />
    <text fill="#000000" font-family="Helvetica" font-size="560" text-anchor="middle" x="16720" y="12060" id="TEXT61_pbTextEl">MPaG</text>
  </g>
  <path id="LINE146" d="M 17100 11300 l 1420 0" stroke="#000000" stroke-width="20" stroke-dasharray="60,60" fill="none" />
  <g id="TEXT62">
    <rect x="18880" y="12420" width="1840" height="680" stroke-width="0" fill="none" id="TEXT62_pbTextBoundingRectEl" />
    <text fill="#000000" font-family="Helvetica" font-size="560" text-anchor="middle" x="19800" y="13040" id="TEXT62_pbTextEl">D703</text>
  </g>
  <g id="TEXT63">
    <rect x="33300" y="12460" width="1840" height="680" stroke-width="0" fill="none" id="TEXT63_pbTextBoundingRectEl" />
    <text fill="#000000" font-family="Helvetica" font-size="560" text-anchor="middle" x="34220" y="13080" id="TEXT63_pbTextEl">D704</text>
  </g>
  <g id="TEXT64">
    <rect x="42320" y="8000" width="1840" height="680" stroke-width="0" fill="none" id="TEXT64_pbTextBoundingRectEl" />
    <text fill="#000000" font-family="Helvetica" font-size="560" text-anchor="middle" x="43240" y="8620" id="TEXT64_pbTextEl">E707</text>
  </g>
  <g id="TEXT65">
    <rect x="24880" y="19840" width="2480" height="680" stroke-width="0" fill="none" id="TEXT65_pbTextBoundingRectEl" />
    <text fill="#000000" font-family="Helvetica" font-size="560" text-anchor="middle" x="26120" y="20460" id="TEXT65_pbTextEl">一级气缸</text>
  </g>
  <g id="TEXT66">
    <rect x="27940" y="19800" width="2480" height="680" stroke-width="0" fill="none" id="TEXT66_pbTextBoundingRectEl" />
    <text fill="#000000" font-family="Helvetica" font-size="560" text-anchor="middle" x="29180" y="20420" id="TEXT66_pbTextEl">一级气缸</text>
  </g>
  <g id="TEXT67">
    <rect x="29200" y="25500" width="1200" height="680" stroke-width="0" fill="none" id="TEXT67_pbTextBoundingRectEl" />
    <text fill="#000000" font-family="Helvetica" font-size="560" text-anchor="middle" x="29800" y="26120" id="TEXT67_pbTextEl">机身</text>
  </g>
  <g id="TEXT68">
    <rect x="33640" y="25960" width="1840" height="680" stroke-width="0" fill="none" id="TEXT68_pbTextBoundingRectEl" />
    <text fill="#000000" font-family="Helvetica" font-size="560" font-weight="bold" text-anchor="middle" x="34560" y="26580" id="TEXT68_pbTextEl">PK704</text>
  </g>
  <path id="ELLIPSE4" d="M 34435 25660 l -147 -40 -79 -40 -59 -40 -47 -40 -38 -40 -32 -40 -28 -40 -22 -40 -19 -40 -16 -40 -12 -40 -10 -40 -7 -40 -4 -40 -1 -40 0 0 1 -40 4 -40 7 -40 10 -40 12 -40 16 -40 19 -40 22 -40 28 -40 32 -40 38 -40 47 -40 59 -40 79 -40 147 -40 170 0 147 40 79 40 59 40 47 40 38 40 32 40 28 40 22 40 19 40 16 40 12 40 10 40 7 40 4 40 1 40 0 0 -1 40 -4 40 -7 40 -10 40 -12 40 -16 40 -19 40 -22 40 -28 40 -32 40 -38 40 -47 40 -59 40 -79 40 -147 40 -170 0" stroke="#000000" stroke-width="20" fill="#FF0000" />
  <g id="TEXT69">
    <rect x="34080" y="24600" width="1020" height="900" stroke-width="0" fill="none" id="TEXT69_pbTextBoundingRectEl" />
    <text fill="#000000" font-family="Helvetica" font-size="720" font-weight="bold" text-anchor="middle" x="34590" y="25410" id="TEXT69_pbTextEl">M</text>
  </g>
  <g id="TEXT70">
    <rect x="35940" y="19600" width="3160" height="460" stroke-width="0" fill="none" id="TEXT70_pbTextBoundingRectEl" />
    <text fill="#000000" font-family="Helvetica" font-size="560" text-anchor="middle" x="37520" y="20110" id="TEXT70_pbTextEl">XSOV7501</text>
  </g>
  <g id="TEXT71">
    <rect x="36000" y="20480" width="3160" height="460" stroke-width="0" fill="none" id="TEXT71_pbTextBoundingRectEl" />
    <text fill="#000000" font-family="Helvetica" font-size="560" text-anchor="middle" x="37580" y="20990" id="TEXT71_pbTextEl">XSOV7501</text>
  </g>
  <path id="ELLIPSE5" d="M 39800 20120 l -47 -13 -31 -14 -23 -13 -20 -13 -17 -14 -15 -13 -13 -13 -11 -14 -10 -13 -10 -13 -8 -14 -7 -13 -7 -13 -5 -14 -5 -13 -4 -13 -4 -14 -3 -13 -2 -13 -2 -14 -1 -13 -1 -13 0 -14 1 -13 1 -13 2 -14 2 -13 3 -13 4 -14 4 -13 5 -13 5 -14 7 -13 7 -13 8 -14 10 -13 10 -13 11 -14 13 -13 15 -13 17 -14 20 -13 23 -13 31 -14 47 -13 120 0 47 13 31 14 23 13 20 13 17 14 15 13 13 13 11 14 10 13 10 13 8 14 7 13 7 13 5 14 5 13 4 13 4 14 3 13 2 13 2 14 1 13 1 13 0 14 -1 13 -1 13 -2 14 -2 13 -3 13 -4 14 -4 13 -5 13 -5 14 -7 13 -7 13 -8 14 -10 13 -10 13 -11 14 -13 13 -15 13 -17 14 -20 13 -23 13 -31 14 -47 13 -120 0" stroke="#000000" stroke-width="20" fill="#FF0000" />
  <path id="ELLIPSE6" d="M 39780 20980 l -47 -13 -31 -14 -23 -13 -20 -13 -17 -14 -15 -13 -13 -13 -11 -14 -10 -13 -10 -13 -8 -14 -7 -13 -7 -13 -5 -14 -5 -13 -4 -13 -4 -14 -3 -13 -2 -13 -2 -14 -1 -13 -1 -13 0 -14 1 -13 1 -13 2 -14 2 -13 3 -13 4 -14 4 -13 5 -13 5 -14 7 -13 7 -13 8 -14 10 -13 10 -13 11 -14 13 -13 15 -13 17 -14 20 -13 23 -13 31 -14 47 -13 120 0 47 13 31 14 23 13 20 13 17 14 15 13 13 13 11 14 10 13 10 13 8 14 7 13 7 13 5 14 5 13 4 13 4 14 3 13 2 13 2 14 1 13 1 13 0 14 -1 13 -1 13 -2 14 -2 13 -3 13 -4 14 -4 13 -5 13 -5 14 -7 13 -7 13 -8 14 -10 13 -10 13 -11 14 -13 13 -15 13 -17 14 -20 13 -23 13 -31 14 -47 13 -120 0" stroke="#000000" stroke-width="20" fill="#FF0000" />
  <g id="TEXT72">
    <rect x="36080" y="22700" width="3920" height="680" stroke-width="0" fill="none" id="TEXT72_pbTextBoundingRectEl" />
    <text fill="#000000" font-family="Helvetica" font-size="560" text-anchor="middle" x="38040" y="23320" id="TEXT72_pbTextEl">100%负荷开关</text>
  </g>
  <g id="TEXT73">
    <rect x="36120" y="24380" width="3920" height="680" stroke-width="0" fill="none" id="TEXT73_pbTextBoundingRectEl" />
    <text fill="#000000" font-family="Helvetica" font-size="560" text-anchor="middle" x="38080" y="25000" id="TEXT73_pbTextEl">50%负荷开关</text>
  </g>
  <g id="TEXT74">
    <rect x="36240" y="25960" width="3920" height="680" stroke-width="0" fill="none" id="TEXT74_pbTextBoundingRectEl" />
    <text fill="#000000" font-family="Helvetica" font-size="560" text-anchor="middle" x="38200" y="26580" id="TEXT74_pbTextEl">0%负荷开关</text>
  </g>
  <g id="TEXT75">
    <rect x="41460" y="21220" width="2340" height="460" stroke-width="0" fill="none" id="TEXT75_pbTextBoundingRectEl" />
    <text fill="#000000" font-family="Helvetica" font-size="560" text-anchor="middle" x="42630" y="21730" id="TEXT75_pbTextEl">PDI7501</text>
  </g>
  <g id="TEXT76">
    <rect x="43380" y="21720" width="1840" height="680" stroke-width="0" fill="none" id="TEXT76_pbTextBoundingRectEl" />
    <text fill="#000000" font-family="Helvetica" font-size="560" text-anchor="middle" x="44300" y="22340" id="TEXT76_pbTextEl">KPaG</text>
  </g>
  <g id="TEXT77">
    <rect x="41480" y="23240" width="1920" height="460" stroke-width="0" fill="none" id="TEXT77_pbTextBoundingRectEl" />
    <text fill="#000000" font-family="Helvetica" font-size="560" text-anchor="middle" x="42440" y="23750" id="TEXT77_pbTextEl">TI7503</text>
  </g>
  <g id="TEXT78">
    <rect x="43440" y="23780" width="600" height="680" stroke-width="0" fill="none" id="TEXT78_pbTextBoundingRectEl" />
    <text fill="#000000" font-family="Helvetica" font-size="560" text-anchor="middle" x="43740" y="24400" id="TEXT78_pbTextEl">℃</text>
  </g>
  <g id="TEXT79">
    <rect x="41420" y="25340" width="2340" height="460" stroke-width="0" fill="none" id="TEXT79_pbTextBoundingRectEl" />
    <text fill="#000000" font-family="Helvetica" font-size="560" text-anchor="middle" x="42590" y="25850" id="TEXT79_pbTextEl">PI7503A</text>
  </g>
  <g id="TEXT80">
    <rect x="43320" y="26100" width="1840" height="680" stroke-width="0" fill="none" id="TEXT80_pbTextBoundingRectEl" />
    <text fill="#000000" font-family="Helvetica" font-size="560" text-anchor="middle" x="44240" y="26720" id="TEXT80_pbTextEl">MPaG</text>
  </g>
  <g id="TEXT81">
    <rect x="45800" y="25260" width="2340" height="460" stroke-width="0" fill="none" id="TEXT81_pbTextBoundingRectEl" />
    <text fill="#000000" font-family="Helvetica" font-size="560" text-anchor="middle" x="46970" y="25770" id="TEXT81_pbTextEl">PI7503B</text>
  </g>
  <g id="TEXT82">
    <rect x="47700" y="26100" width="1840" height="680" stroke-width="0" fill="none" id="TEXT82_pbTextBoundingRectEl" />
    <text fill="#000000" font-family="Helvetica" font-size="560" text-anchor="middle" x="48620" y="26720" id="TEXT82_pbTextEl">MPaG</text>
  </g>
  <g id="TEXT83">
    <rect x="49940" y="25140" width="2340" height="460" stroke-width="0" fill="none" id="TEXT83_pbTextBoundingRectEl" />
    <text fill="#000000" font-family="Helvetica" font-size="560" text-anchor="middle" x="51110" y="25650" id="TEXT83_pbTextEl">PI7503C</text>
  </g>
  <g id="TEXT84">
    <rect x="51860" y="26100" width="1840" height="680" stroke-width="0" fill="none" id="TEXT84_pbTextBoundingRectEl" />
    <text fill="#000000" font-family="Helvetica" font-size="560" text-anchor="middle" x="52780" y="26720" id="TEXT84_pbTextEl">MPaG</text>
  </g>
  <g name="StraightArrow1">
    <path d="M 1951 12461 l -554 178 0 -119 -868 0 0 -120 868 0 0 -119 554 180 0 0" stroke-width="0" fill="#000000" />
    <path d="M 1951 12461 l -554 178 0 -119 -868 0 0 -120 868 0 0 -119 554 180" stroke="#000000" stroke-width="20" fill="none" />
  </g>
  <g id="TEXT85">
    <rect x="400" y="11520" width="2480" height="680" stroke-width="0" fill="none" id="TEXT85_pbTextBoundingRectEl" />
    <text fill="#000000" font-family="Helvetica" font-size="560" text-anchor="middle" x="1640" y="12140" id="TEXT85_pbTextEl">进气口</text>
  </g>
  <g name="StraightArrow1">
    <path d="M 1751 29821 l -554 178 0 -119 -868 0 0 -120 868 0 0 -119 554 180 0 0" stroke-width="0" fill="#FFFF00" />
    <path d="M 1751 29821 l -554 178 0 -119 -868 0 0 -120 868 0 0 -119 554 180" stroke="#000000" stroke-width="20" fill="none" />
  </g>
  <g id="TEXT86">
    <rect x="220" y="28860" width="4060" height="680" stroke-width="0" fill="none" id="TEXT86_pbTextBoundingRectEl" />
    <text fill="#000000" font-family="Helvetica" font-size="560" text-anchor="middle" x="2250" y="29480" id="TEXT86_pbTextEl">氮气总入口自</text>
  </g>
  <g name="StraightArrow1">
    <path d="M 50311 6581 l -554 178 0 -119 -868 0 0 -120 868 0 0 -119 554 180 0 0" stroke-width="0" fill="#000000" />
    <path d="M 50311 6581 l -554 178 0 -119 -868 0 0 -120 868 0 0 -119 554 180" stroke="#000000" stroke-width="20" fill="none" />
  </g>
  <g id="TEXT87">
    <rect x="48520" y="5660" width="1840" height="680" stroke-width="0" fill="none" id="TEXT87_pbTextBoundingRectEl" />
    <text fill="#000000" font-family="Helvetica" font-size="560" text-anchor="middle" x="49440" y="6280" id="TEXT87_pbTextEl">F203</text>
  </g>
  <path id="LINE147" d="M 51060 29140 l 0 1460" stroke="#FF0000" stroke-width="20" fill="none" />
  <g id="TEXT88">
    <rect x="50000" y="30600" width="1840" height="680" stroke-width="0" fill="none" id="TEXT88_pbTextBoundingRectEl" />
    <text fill="#000000" font-family="Helvetica" font-size="560" text-anchor="middle" x="50920" y="31220" id="TEXT88_pbTextEl">BDL</text>
  </g>
  <g id="TEXT89">
    <rect x="58160" y="4640" width="2480" height="680" stroke-width="0" fill="none" id="TEXT89_pbTextBoundingRectEl" />
    <text fill="#000000" font-family="Helvetica" font-size="560" text-anchor="middle" x="59400" y="5260" id="TEXT89_pbTextEl">报警状态</text>
  </g>
  <g id="TEXT90">
    <rect x="58180" y="5380" width="2480" height="680" stroke-width="0" fill="none" id="TEXT90_pbTextBoundingRectEl" />
    <text fill="#000000" font-family="Helvetica" font-size="560" text-anchor="middle" x="59420" y="6000" id="TEXT90_pbTextEl">公共报警</text>
  </g>
  <g id="TEXT91">
    <rect x="56340" y="6160" width="4600" height="680" stroke-width="0" fill="none" id="TEXT91_pbTextBoundingRectEl" />
    <text fill="#000000" font-family="Helvetica" font-size="560" text-anchor="end" x="60940" y="6780" id="TEXT91_pbTextEl">机身油液位低</text>
  </g>
  <g id="TEXT92">
    <rect x="54420" y="6880" width="6600" height="680" stroke-width="0" fill="none" id="TEXT92_pbTextBoundingRectEl" />
    <text fill="#000000" font-family="Helvetica" font-size="560" text-anchor="end" x="61020" y="7500" id="TEXT92_pbTextEl">润滑油供油压力低报警</text>
  </g>
  <g id="TEXT93">
    <rect x="56340" y="7620" width="4700" height="680" stroke-width="0" fill="none" id="TEXT93_pbTextBoundingRectEl" />
    <text fill="#000000" font-family="Helvetica" font-size="560" text-anchor="end" x="61040" y="8240" id="TEXT93_pbTextEl">进气压力低报警</text>
  </g>
  <g id="TEXT94">
    <rect x="55520" y="8380" width="5500" height="680" stroke-width="0" fill="none" id="TEXT94_pbTextBoundingRectEl" />
    <text fill="#000000" font-family="Helvetica" font-size="560" text-anchor="end" x="61020" y="9000" id="TEXT94_pbTextEl">排气压力过高报警</text>
  </g>
  <g id="TEXT95">
    <rect x="54440" y="9120" width="6600" height="680" stroke-width="0" fill="none" id="TEXT95_pbTextBoundingRectEl" />
    <text fill="#000000" font-family="Helvetica" font-size="560" text-anchor="end" x="61040" y="9740" id="TEXT95_pbTextEl">油过滤器压差高报警</text>
  </g>
  <g id="TEXT96">
    <rect x="56340" y="9880" width="4700" height="680" stroke-width="0" fill="none" id="TEXT96_pbTextBoundingRectEl" />
    <text fill="#000000" font-family="Helvetica" font-size="560" text-anchor="end" x="61040" y="10500" id="TEXT96_pbTextEl">进气温度高报警</text>
  </g>
  <g id="TEXT97">
    <rect x="54420" y="10660" width="6600" height="680" stroke-width="0" fill="none" id="TEXT97_pbTextBoundingRectEl" />
    <text fill="#000000" font-family="Helvetica" font-size="560" text-anchor="end" x="61020" y="11280" id="TEXT97_pbTextEl">润滑油供油温度高报警</text>
  </g>
  <g id="TEXT98">
    <rect x="56400" y="11440" width="4600" height="680" stroke-width="0" fill="none" id="TEXT98_pbTextBoundingRectEl" />
    <text fill="#000000" font-family="Helvetica" font-size="560" text-anchor="end" x="61000" y="12060" id="TEXT98_pbTextEl">十字回头流量低</text>
  </g>
  <path id="ELLIPSE7" d="M 61240 6100 l -47 -13 -31 -14 -23 -13 -20 -13 -17 -14 -15 -13 -13 -13 -11 -14 -10 -13 -10 -13 -8 -14 -7 -13 -7 -13 -5 -14 -5 -13 -4 -13 -4 -14 -3 -13 -2 -13 -2 -14 -1 -13 -1 -13 0 -14 1 -13 1 -13 2 -14 2 -13 3 -13 4 -14 4 -13 5 -13 5 -14 7 -13 7 -13 8 -14 10 -13 10 -13 11 -14 13 -13 15 -13 17 -14 20 -13 23 -13 31 -14 47 -13 120 0 47 13 31 14 23 13 20 13 17 14 15 13 13 13 11 14 10 13 10 13 8 14 7 13 7 13 5 14 5 13 4 13 4 14 3 13 2 13 2 14 1 13 1 13 0 14 -1 13 -1 13 -2 14 -2 13 -3 13 -4 14 -4 13 -5 13 -5 14 -7 13 -7 13 -8 14 -10 13 -10 13 -11 14 -13 13 -15 13 -17 14 -20 13 -23 13 -31 14 -47 13 -120 0" stroke="#000000" stroke-width="20" fill="#FF0000" />
  <path id="ELLIPSE8" d="M 61240 6820 l -47 -13 -31 -14 -23 -13 -20 -13 -17 -14 -15 -13 -13 -13 -11 -14 -10 -13 -10 -13 -8 -14 -7 -13 -7 -13 -5 -14 -5 -13 -4 -13 -4 -14 -3 -13 -2 -13 -2 -14 -1 -13 -1 -13 0 -14 1 -13 1 -13 2 -14 2 -13 3 -13 4 -14 4 -13 5 -13 5 -14 7 -13 7 -13 8 -14 10 -13 10 -13 11 -14 13 -13 15 -13 17 -14 20 -13 23 -13 31 -14 47 -13 120 0 47 13 31 14 23 13 20 13 17 14 15 13 13 13 11 14 10 13 10 13 8 14 7 13 7 13 5 14 5 13 4 13 4 14 3 13 2 13 2 14 1 13 1 13 0 14 -1 13 -1 13 -2 14 -2 13 -3 13 -4 14 -4 13 -5 13 -5 14 -7 13 -7 13 -8 14 -10 13 -10 13 -11 14 -13 13 -15 13 -17 14 -20 13 -23 13 -31 14 -47 13 -120 0" stroke="#000000" stroke-width="20" fill="#00FF00" />
  <path id="ELLIPSE9" d="M 61240 7560 l -47 -13 -31 -14 -23 -13 -20 -13 -17 -14 -15 -13 -13 -13 -11 -14 -10 -13 -10 -13 -8 -14 -7 -13 -7 -13 -5 -14 -5 -13 -4 -13 -4 -14 -3 -13 -2 -13 -2 -14 -1 -13 -1 -13 0 -14 1 -13 1 -13 2 -14 2 -13 3 -13 4 -14 4 -13 5 -13 5 -14 7 -13 7 -13 8 -14 10 -13 10 -13 11 -14 13 -13 15 -13 17 -14 20 -13 23 -13 31 -14 47 -13 120 0 47 13 31 14 23 13 20 13 17 14 15 13 13 13 11 14 10 13 10 13 8 14 7 13 7 13 5 14 5 13 4 13 4 14 3 13 2 13 2 14 1 13 1 13 0 14 -1 13 -1 13 -2 14 -2 13 -3 13 -4 14 -4 13 -5 13 -5 14 -7 13 -7 13 -8 14 -10 13 -10 13 -11 14 -13 13 -15 13 -17 14 -20 13 -23 13 -31 14 -47 13 -120 0" stroke="#000000" stroke-width="20" fill="#FF0000" />
  <path id="ELLIPSE10" d="M 61220 8300 l -47 -13 -31 -14 -23 -13 -20 -13 -17 -14 -15 -13 -13 -13 -11 -14 -10 -13 -10 -13 -8 -14 -7 -13 -7 -13 -5 -14 -5 -13 -4 -13 -4 -14 -3 -13 -2 -13 -2 -14 -1 -13 -1 -13 0 -14 1 -13 1 -13 2 -14 2 -13 3 -13 4 -14 4 -13 5 -13 5 -14 7 -13 7 -13 8 -14 10 -13 10 -13 11 -14 13 -13 15 -13 17 -14 20 -13 23 -13 31 -14 47 -13 120 0 47 13 31 14 23 13 20 13 17 14 15 13 13 13 11 14 10 13 10 13 8 14 7 13 7 13 5 14 5 13 4 13 4 14 3 13 2 13 2 14 1 13 1 13 0 14 -1 13 -1 13 -2 14 -2 13 -3 13 -4 14 -4 13 -5 13 -5 14 -7 13 -7 13 -8 14 -10 13 -10 13 -11 14 -13 13 -15 13 -17 14 -20 13 -23 13 -31 14 -47 13 -120 0" stroke="#000000" stroke-width="20" fill="#FF0000" />
  <path id="ELLIPSE11" d="M 61220 9040 l -47 -13 -31 -14 -23 -13 -20 -13 -17 -14 -15 -13 -13 -13 -11 -14 -10 -13 -10 -13 -8 -14 -7 -13 -7 -13 -5 -14 -5 -13 -4 -13 -4 -14 -3 -13 -2 -13 -2 -14 -1 -13 -1 -13 0 -14 1 -13 1 -13 2 -14 2 -13 3 -13 4 -14 4 -13 5 -13 5 -14 7 -13 7 -13 8 -14 10 -13 10 -13 11 -14 13 -13 15 -13 17 -14 20 -13 23 -13 31 -14 47 -13 120 0 47 13 31 14 23 13 20 13 17 14 15 13 13 13 11 14 10 13 10 13 8 14 7 13 7 13 5 14 5 13 4 13 4 14 3 13 2 13 2 14 1 13 1 13 0 14 -1 13 -1 13 -2 14 -2 13 -3 13 -4 14 -4 13 -5 13 -5 14 -7 13 -7 13 -8 14 -10 13 -10 13 -11 14 -13 13 -15 13 -17 14 -20 13 -23 13 -31 14 -47 13 -120 0" stroke="#000000" stroke-width="20" fill="#00FF00" />
  <path id="ELLIPSE12" d="M 61220 9780 l -47 -13 -31 -14 -23 -13 -20 -13 -17 -14 -15 -13 -13 -13 -11 -14 -10 -13 -10 -13 -8 -14 -7 -13 -7 -13 -5 -14 -5 -13 -4 -13 -4 -14 -3 -13 -2 -13 -2 -14 -1 -13 -1 -13 0 -14 1 -13 1 -13 2 -14 2 -13 3 -13 4 -14 4 -13 5 -13 5 -14 7 -13 7 -13 8 -14 10 -13 10 -13 11 -14 13 -13 15 -13 17 -14 20 -13 23 -13 31 -14 47 -13 120 0 47 13 31 14 23 13 20 13 17 14 15 13 13 13 11 14 10 13 10 13 8 14 7 13 7 13 5 14 5 13 4 13 4 14 3 13 2 13 2 14 1 13 1 13 0 14 -1 13 -1 13 -2 14 -2 13 -3 13 -4 14 -4 13 -5 13 -5 14 -7 13 -7 13 -8 14 -10 13 -10 13 -11 14 -13 13 -15 13 -17 14 -20 13 -23 13 -31 14 -47 13 -120 0" stroke="#000000" stroke-width="20" fill="#00FF00" />
  <path id="ELLIPSE13" d="M 61220 10500 l -47 -13 -31 -14 -23 -13 -20 -13 -17 -14 -15 -13 -13 -13 -11 -14 -10 -13 -10 -13 -8 -14 -7 -13 -7 -13 -5 -14 -5 -13 -4 -13 -4 -14 -3 -13 -2 -13 -2 -14 -1 -13 -1 -13 0 -14 1 -13 1 -13 2 -14 2 -13 3 -13 4 -14 4 -13 5 -13 5 -14 7 -13 7 -13 8 -14 10 -13 10 -13 11 -14 13 -13 15 -13 17 -14 20 -13 23 -13 31 -14 47 -13 120 0 47 13 31 14 23 13 20 13 17 14 15 13 13 13 11 14 10 13 10 13 8 14 7 13 7 13 5 14 5 13 4 13 4 14 3 13 2 13 2 14 1 13 1 13 0 14 -1 13 -1 13 -2 14 -2 13 -3 13 -4 14 -4 13 -5 13 -5 14 -7 13 -7 13 -8 14 -10 13 -10 13 -11 14 -13 13 -15 13 -17 14 -20 13 -23 13 -31 14 -47 13 -120 0" stroke="#000000" stroke-width="20" fill="#00FF00" />
  <path id="ELLIPSE14" d="M 61220 11260 l -47 -13 -31 -14 -23 -13 -20 -13 -17 -14 -15 -13 -13 -13 -11 -14 -10 -13 -10 -13 -8 -14 -7 -13 -7 -13 -5 -14 -5 -13 -4 -13 -4 -14 -3 -13 -2 -13 -2 -14 -1 -13 -1 -13 0 -14 1 -13 1 -13 2 -14 2 -13 3 -13 4 -14 4 -13 5 -13 5 -14 7 -13 7 -13 8 -14 10 -13 10 -13 11 -14 13 -13 15 -13 17 -14 20 -13 23 -13 31 -14 47 -13 120 0 47 13 31 14 23 13 20 13 17 14 15 13 13 13 11 14 10 13 10 13 8 14 7 13 7 13 5 14 5 13 4 13 4 14 3 13 2 13 2 14 1 13 1 13 0 14 -1 13 -1 13 -2 14 -2 13 -3 13 -4 14 -4 13 -5 13 -5 14 -7 13 -7 13 -8 14 -10 13 -10 13 -11 14 -13 13 -15 13 -17 14 -20 13 -23 13 -31 14 -47 13 -120 0" stroke="#000000" stroke-width="20" fill="#00FF00" />
  <path id="ELLIPSE15" d="M 61240 12140 l -47 -13 -31 -14 -23 -13 -20 -13 -17 -14 -15 -13 -13 -13 -11 -14 -10 -13 -10 -13 -8 -14 -7 -13 -7 -13 -5 -14 -5 -13 -4 -13 -4 -14 -3 -13 -2 -13 -2 -14 -1 -13 -1 -13 0 -14 1 -13 1 -13 2 -14 2 -13 3 -13 4 -14 4 -13 5 -13 5 -14 7 -13 7 -13 8 -14 10 -13 10 -13 11 -14 13 -13 15 -13 17 -14 20 -13 23 -13 31 -14 47 -13 120 0 47 13 31 14 23 13 20 13 17 14 15 13 13 13 11 14 10 13 10 13 8 14 7 13 7 13 5 14 5 13 4 13 4 14 3 13 2 13 2 14 1 13 1 13 0 14 -1 13 -1 13 -2 14 -2 13 -3 13 -4 14 -4 13 -5 13 -5 14 -7 13 -7 13 -8 14 -10 13 -10 13 -11 14 -13 13 -15 13 -17 14 -20 13 -23 13 -31 14 -47 13 -120 0" stroke="#000000" stroke-width="20" fill="#FF0000" />
  <g id="TEXT99">
    <rect x="58240" y="13520" width="2480" height="680" stroke-width="0" fill="none" id="TEXT99_pbTextBoundingRectEl" />
    <text fill="#000000" font-family="Helvetica" font-size="560" text-anchor="middle" x="59480" y="14140" id="TEXT99_pbTextEl">联锁状态</text>
  </g>
  <g id="TEXT100">
    <rect x="58260" y="14260" width="2480" height="680" stroke-width="0" fill="none" id="TEXT100_pbTextBoundingRectEl" />
    <text fill="#000000" font-family="Helvetica" font-size="560" text-anchor="middle" x="59500" y="14880" id="TEXT100_pbTextEl">公共联锁</text>
  </g>
  <g id="TEXT101">
    <rect x="54380" y="15020" width="6860" height="680" stroke-width="0" fill="none" id="TEXT101_pbTextBoundingRectEl" />
    <text fill="#000000" font-family="Helvetica" font-size="560" text-anchor="end" x="61240" y="15640" id="TEXT101_pbTextEl">润滑油压力低低联锁</text>
  </g>
  <g id="TEXT102">
    <rect x="54500" y="15740" width="6600" height="680" stroke-width="0" fill="none" id="TEXT102_pbTextBoundingRectEl" />
    <text fill="#000000" font-family="Helvetica" font-size="560" text-anchor="end" x="61100" y="16360" id="TEXT102_pbTextEl">进气压力低低联锁</text>
  </g>
  <g id="TEXT103">
    <rect x="55820" y="16480" width="5300" height="680" stroke-width="0" fill="none" id="TEXT103_pbTextBoundingRectEl" />
    <text fill="#000000" font-family="Helvetica" font-size="560" text-anchor="end" x="61120" y="17100" id="TEXT103_pbTextEl">排气压力高高联锁</text>
  </g>
  <g id="TEXT104">
    <rect x="55600" y="17240" width="5500" height="680" stroke-width="0" fill="none" id="TEXT104_pbTextBoundingRectEl" />
    <text fill="#000000" font-family="Helvetica" font-size="560" text-anchor="end" x="61100" y="17860" id="TEXT104_pbTextEl">排气温度高高联锁</text>
  </g>
  <g id="TEXT105">
    <rect x="54520" y="18000" width="6600" height="680" stroke-width="0" fill="none" id="TEXT105_pbTextBoundingRectEl" />
    <text fill="#000000" font-family="Helvetica" font-size="560" text-anchor="end" x="61120" y="18620" id="TEXT105_pbTextEl">机身振动高联锁</text>
  </g>
  <path id="ELLIPSE16" d="M 61320 14960 l -47 -13 -31 -14 -23 -13 -20 -13 -17 -14 -15 -13 -13 -13 -11 -14 -10 -13 -10 -13 -8 -14 -7 -13 -7 -13 -5 -14 -5 -13 -4 -13 -4 -14 -3 -13 -2 -13 -2 -14 -1 -13 -1 -13 0 -14 1 -13 1 -13 2 -14 2 -13 3 -13 4 -14 4 -13 5 -13 5 -14 7 -13 7 -13 8 -14 10 -13 10 -13 11 -14 13 -13 15 -13 17 -14 20 -13 23 -13 31 -14 47 -13 120 0 47 13 31 14 23 13 20 13 17 14 15 13 13 13 11 14 10 13 10 13 8 14 7 13 7 13 5 14 5 13 4 13 4 14 3 13 2 13 2 14 1 13 1 13 0 14 -1 13 -1 13 -2 14 -2 13 -3 13 -4 14 -4 13 -5 13 -5 14 -7 13 -7 13 -8 14 -10 13 -10 13 -11 14 -13 13 -15 13 -17 14 -20 13 -23 13 -31 14 -47 13 -120 0" stroke="#000000" stroke-width="20" fill="#FF0000" />
  <path id="ELLIPSE17" d="M 61320 15700 l -47 -13 -31 -14 -23 -13 -20 -13 -17 -14 -15 -13 -13 -13 -11 -14 -10 -13 -10 -13 -8 -14 -7 -13 -7 -13 -5 -14 -5 -13 -4 -13 -4 -14 -3 -13 -2 -13 -2 -14 -1 -13 -1 -13 0 -14 1 -13 1 -13 2 -14 2 -13 3 -13 4 -14 4 -13 5 -13 5 -14 7 -13 7 -13 8 -14 10 -13 10 -13 11 -14 13 -13 15 -13 17 -14 20 -13 23 -13 31 -14 47 -13 120 0 47 13 31 14 23 13 20 13 17 14 15 13 13 13 11 14 10 13 10 13 8 14 7 13 7 13 5 14 5 13 4 13 4 14 3 13 2 13 2 14 1 13 1 13 0 14 -1 13 -1 13 -2 14 -2 13 -3 13 -4 14 -4 13 -5 13 -5 14 -7 13 -7 13 -8 14 -10 13 -10 13 -11 14 -13 13 -15 13 -17 14 -20 13 -23 13 -31 14 -47 13 -120 0" stroke="#000000" stroke-width="20" fill="#00FF00" />
  <path id="ELLIPSE18" d="M 61320 16420 l -47 -13 -31 -14 -23 -13 -20 -13 -17 -14 -15 -13 -13 -13 -11 -14 -10 -13 -10 -13 -8 -14 -7 -13 -7 -13 -5 -14 -5 -13 -4 -13 -4 -14 -3 -13 -2 -13 -2 -14 -1 -13 -1 -13 0 -14 1 -13 1 -13 2 -14 2 -13 3 -13 4 -14 4 -13 5 -13 5 -14 7 -13 7 -13 8 -14 10 -13 10 -13 11 -14 13 -13 15 -13 17 -14 20 -13 23 -13 31 -14 47 -13 120 0 47 13 31 14 23 13 20 13 17 14 15 13 13 13 11 14 10 13 10 13 8 14 7 13 7 13 5 14 5 13 4 13 4 14 3 13 2 13 2 14 1 13 1 13 0 14 -1 13 -1 13 -2 14 -2 13 -3 13 -4 14 -4 13 -5 13 -5 14 -7 13 -7 13 -8 14 -10 13 -10 13 -11 14 -13 13 -15 13 -17 14 -20 13 -23 13 -31 14 -47 13 -120 0" stroke="#000000" stroke-width="20" fill="#FF0000" />
  <path id="ELLIPSE19" d="M 61300 17180 l -47 -13 -31 -14 -23 -13 -20 -13 -17 -14 -15 -13 -13 -13 -11 -14 -10 -13 -10 -13 -8 -14 -7 -13 -7 -13 -5 -14 -5 -13 -4 -13 -4 -14 -3 -13 -2 -13 -2 -14 -1 -13 -1 -13 0 -14 1 -13 1 -13 2 -14 2 -13 3 -13 4 -14 4 -13 5 -13 5 -14 7 -13 7 -13 8 -14 10 -13 10 -13 11 -14 13 -13 15 -13 17 -14 20 -13 23 -13 31 -14 47 -13 120 0 47 13 31 14 23 13 20 13 17 14 15 13 13 13 11 14 10 13 10 13 8 14 7 13 7 13 5 14 5 13 4 13 4 14 3 13 2 13 2 14 1 13 1 13 0 14 -1 13 -1 13 -2 14 -2 13 -3 13 -4 14 -4 13 -5 13 -5 14 -7 13 -7 13 -8 14 -10 13 -10 13 -11 14 -13 13 -15 13 -17 14 -20 13 -23 13 -31 14 -47 13 -120 0" stroke="#000000" stroke-width="20" fill="#00FF00" />
  <path id="ELLIPSE20" d="M 61300 17920 l -47 -13 -31 -14 -23 -13 -20 -13 -17 -14 -15 -13 -13 -13 -11 -14 -10 -13 -10 -13 -8 -14 -7 -13 -7 -13 -5 -14 -5 -13 -4 -13 -4 -14 -3 -13 -2 -13 -2 -14 -1 -13 -1 -13 0 -14 1 -13 1 -13 2 -14 2 -13 3 -13 4 -14 4 -13 5 -13 5 -14 7 -13 7 -13 8 -14 10 -13 10 -13 11 -14 13 -13 15 -13 17 -14 20 -13 23 -13 31 -14 47 -13 120 0 47 13 31 14 23 13 20 13 17 14 15 13 13 13 11 14 10 13 10 13 8 14 7 13 7 13 5 14 5 13 4 13 4 14 3 13 2 13 2 14 1 13 1 13 0 14 -1 13 -1 13 -2 14 -2 13 -3 13 -4 14 -4 13 -5 13 -5 14 -7 13 -7 13 -8 14 -10 13 -10 13 -11 14 -13 13 -15 13 -17 14 -20 13 -23 13 -31 14 -47 13 -120 0" stroke="#000000" stroke-width="20" fill="#00FF00" />
  <path id="ELLIPSE21" d="M 61300 18640 l -47 -13 -31 -14 -23 -13 -20 -13 -17 -14 -15 -13 -13 -13 -11 -14 -10 -13 -10 -13 -8 -14 -7 -13 -7 -13 -5 -14 -5 -13 -4 -13 -4 -14 -3 -13 -2 -13 -2 -14 -1 -13 -1 -13 0 -14 1 -13 1 -13 2 -14 2 -13 3 -13 4 -14 4 -13 5 -13 5 -14 7 -13 7 -13 8 -14 10 -13 10 -13 11 -14 13 -13 15 -13 17 -14 20 -13 23 -13 31 -14 47 -13 120 0 47 13 31 14 23 13 20 13 17 14 15 13 13 13 11 14 10 13 10 13 8 14 7 13 7 13 5 14 5 13 4 13 4 14 3 13 2 13 2 14 1 13 1 13 0 14 -1 13 -1 13 -2 14 -2 13 -3 13 -4 14 -4 13 -5 13 -5 14 -7 13 -7 13 -8 14 -10 13 -10 13 -11 14 -13 13 -15 13 -17 14 -20 13 -23 13 -31 14 -47 13 -120 0" stroke="#000000" stroke-width="20" fill="#00FF00" />
  <g id="TEXT107">
    <rect x="52620" y="15900" width="2220" height="680" stroke-width="0" fill="none" id="TEXT107_pbTextBoundingRectEl" />
    <text fill="#000000" font-family="Helvetica" font-size="560" text-anchor="middle" x="53730" y="16520" id="TEXT107_pbTextEl">投用</text>
  </g>
  <g id="TEXT108">
    <rect x="57960" y="18920" width="2680" height="680" stroke-width="0" fill="none" id="TEXT108_pbTextBoundingRectEl" />
    <text fill="#000000" font-family="Helvetica" font-size="560" text-anchor="middle" x="59300" y="19540" id="TEXT108_pbTextEl">复位按钮</text>
  </g>
  <g id="TEXT109">
    <rect x="56580" y="22000" width="4700" height="680" stroke-width="0" fill="none" id="TEXT109_pbTextBoundingRectEl" />
    <text fill="#000000" font-family="Helvetica" font-size="560" text-anchor="end" x="61280" y="22620" id="TEXT109_pbTextEl">主机允许启动</text>
  </g>
  <g id="TEXT110">
    <rect x="54680" y="23160" width="6600" height="680" stroke-width="0" fill="none" id="TEXT110_pbTextBoundingRectEl" />
    <text fill="#000000" font-family="Helvetica" font-size="560" text-anchor="end" x="61280" y="23780" id="TEXT110_pbTextEl">允许开机指示</text>
  </g>
  <g id="TEXT111">
    <rect x="56660" y="24320" width="4600" height="680" stroke-width="0" fill="none" id="TEXT111_pbTextBoundingRectEl" />
    <text fill="#000000" font-family="Helvetica" font-size="560" text-anchor="end" x="61260" y="24940" id="TEXT111_pbTextEl">主机联锁停机</text>
  </g>
  <path id="ELLIPSE23" d="M 61480 22620 l -47 -13 -31 -14 -23 -13 -20 -13 -17 -14 -15 -13 -13 -13 -11 -14 -10 -13 -10 -13 -8 -14 -7 -13 -7 -13 -5 -14 -5 -13 -4 -13 -4 -14 -3 -13 -2 -13 -2 -14 -1 -13 -1 -13 0 -14 1 -13 1 -13 2 -14 2 -13 3 -13 4 -14 4 -13 5 -13 5 -14 7 -13 7 -13 8 -14 10 -13 10 -13 11 -14 13 -13 15 -13 17 -14 20 -13 23 -13 31 -14 47 -13 120 0 47 13 31 14 23 13 20 13 17 14 15 13 13 13 11 14 10 13 10 13 8 14 7 13 7 13 5 14 5 13 4 13 4 14 3 13 2 13 2 14 1 13 1 13 0 14 -1 13 -1 13 -2 14 -2 13 -3 13 -4 14 -4 13 -5 13 -5 14 -7 13 -7 13 -8 14 -10 13 -10 13 -11 14 -13 13 -15 13 -17 14 -20 13 -23 13 -31 14 -47 13 -120 0" stroke="#000000" stroke-width="20" fill="#FF0000" />
  <path id="ELLIPSE24" d="M 61460 23820 l -47 -13 -31 -14 -23 -13 -20 -13 -17 -14 -15 -13 -13 -13 -11 -14 -10 -13 -10 -13 -8 -14 -7 -13 -7 -13 -5 -14 -5 -13 -4 -13 -4 -14 -3 -13 -2 -13 -2 -14 -1 -13 -1 -13 0 -14 1 -13 1 -13 2 -14 2 -13 3 -13 4 -14 4 -13 5 -13 5 -14 7 -13 7 -13 8 -14 10 -13 10 -13 11 -14 13 -13 15 -13 17 -14 20 -13 23 -13 31 -14 47 -13 120 0 47 13 31 14 23 13 20 13 17 14 15 13 13 13 11 14 10 13 10 13 8 14 7 13 7 13 5 14 5 13 4 13 4 14 3 13 2 13 2 14 1 13 1 13 0 14 -1 13 -1 13 -2 14 -2 13 -3 13 -4 14 -4 13 -5 13 -5 14 -7 13 -7 13 -8 14 -10 13 -10 13 -11 14 -13 13 -15 13 -17 14 -20 13 -23 13 -31 14 -47 13 -120 0" stroke="#000000" stroke-width="20" fill="#FF0000" />
  <path id="ELLIPSE25" d="M 61480 25020 l -47 -13 -31 -14 -23 -13 -20 -13 -17 -14 -15 -13 -13 -13 -11 -14 -10 -13 -10 -13 -8 -14 -7 -13 -7 -13 -5 -14 -5 -13 -4 -13 -4 -14 -3 -13 -2 -13 -2 -14 -1 -13 -1 -13 0 -14 1 -13 1 -13 2 -14 2 -13 3 -13 4 -14 4 -13 5 -13 5 -14 7 -13 7 -13 8 -14 10 -13 10 -13 11 -14 13 -13 15 -13 17 -14 20 -13 23 -13 31 -14 47 -13 120 0 47 13 31 14 23 13 20 13 17 14 15 13 13 13 11 14 10 13 10 13 8 14 7 13 7 13 5 14 5 13 4 13 4 14 3 13 2 13 2 14 1 13 1 13 0 14 -1 13 -1 13 -2 14 -2 13 -3 13 -4 14 -4 13 -5 13 -5 14 -7 13 -7 13 -8 14 -10 13 -10 13 -11 14 -13 13 -15 13 -17 14 -20 13 -23 13 -31 14 -47 13 -120 0" stroke="#000000" stroke-width="20" fill="#00FF00" />
  <g id="TEXT112">
    <rect x="54660" y="27020" width="6600" height="680" stroke-width="0" fill="none" id="TEXT112_pbTextBoundingRectEl" />
    <text fill="#000000" font-family="Helvetica" font-size="560" text-anchor="end" x="61260" y="27640" id="TEXT112_pbTextEl">辅助油泵故障信号</text>
  </g>
  <g id="TEXT113">
    <rect x="56640" y="28040" width="4600" height="680" stroke-width="0" fill="none" id="TEXT113_pbTextBoundingRectEl" />
    <text fill="#000000" font-family="Helvetica" font-size="560" text-anchor="end" x="61240" y="28660" id="TEXT113_pbTextEl">辅助油泵电机启动</text>
  </g>
  <path id="ELLIPSE26" d="M 61440 27640 l -47 -13 -31 -14 -23 -13 -20 -13 -17 -14 -15 -13 -13 -13 -11 -14 -10 -13 -10 -13 -8 -14 -7 -13 -7 -13 -5 -14 -5 -13 -4 -13 -4 -14 -3 -13 -2 -13 -2 -14 -1 -13 -1 -13 0 -14 1 -13 1 -13 2 -14 2 -13 3 -13 4 -14 4 -13 5 -13 5 -14 7 -13 7 -13 8 -14 10 -13 10 -13 11 -14 13 -13 15 -13 17 -14 20 -13 23 -13 31 -14 47 -13 120 0 47 13 31 14 23 13 20 13 17 14 15 13 13 13 11 14 10 13 10 13 8 14 7 13 7 13 5 14 5 13 4 13 4 14 3 13 2 13 2 14 1 13 1 13 0 14 -1 13 -1 13 -2 14 -2 13 -3 13 -4 14 -4 13 -5 13 -5 14 -7 13 -7 13 -8 14 -10 13 -10 13 -11 14 -13 13 -15 13 -17 14 -20 13 -23 13 -31 14 -47 13 -120 0" stroke="#000000" stroke-width="20" fill="#00FF00" />
  <path id="ELLIPSE27" d="M 61460 28740 l -47 -13 -31 -14 -23 -13 -20 -13 -17 -14 -15 -13 -13 -13 -11 -14 -10 -13 -10 -13 -8 -14 -7 -13 -7 -13 -5 -14 -5 -13 -4 -13 -4 -14 -3 -13 -2 -13 -2 -14 -1 -13 -1 -13 0 -14 1 -13 1 -13 2 -14 2 -13 3 -13 4 -14 4 -13 5 -13 5 -14 7 -13 7 -13 8 -14 10 -13 10 -13 11 -14 13 -13 15 -13 17 -14 20 -13 23 -13 31 -14 47 -13 120 0 47 13 31 14 23 13 20 13 17 14 15 13 13 13 11 14 10 13 10 13 8 14 7 13 7 13 5 14 5 13 4 13 4 14 3 13 2 13 2 14 1 13 1 13 0 14 -1 13 -1 13 -2 14 -2 13 -3 13 -4 14 -4 13 -5 13 -5 14 -7 13 -7 13 -8 14 -10 13 -10 13 -11 14 -13 13 -15 13 -17 14 -20 13 -23 13 -31 14 -47 13 -120 0" stroke="#000000" stroke-width="20" fill="#FF0000" />
  <g name="RightArrow">
    <path d="M 31050 28631 l 300 0 -150 472 -150 -472 0 0" stroke="#000000" stroke-width="20" fill="#FF0000" />
  </g>
  <g name="RightArrow">
    <path d="M 34030 28611 l 300 0 -150 472 -150 -472 0 0" stroke="#000000" stroke-width="20" fill="#FF0000" />
  </g>
  <g id="TEXT120">
    <rect x="24080" y="4280" width="1920" height="460" stroke-width="0" fill="none" id="TEXT120_pbTextBoundingRectEl" />
    <text fill="#000000" font-family="Helvetica" font-size="560" text-anchor="middle" x="25040" y="4790" id="TEXT120_pbTextEl">PV755</text>
  </g>
  <g id="DATAPOINT217" PB:IsMultiState="False" PBD:PtTagName="\\RTDBB\170_PT_7501" PB:Type="7" PB:NumberFormat="0.00">
    <rect x="14340" y="11640" width="1140" height="520" stroke-width="0" fill="none" id="DATAPOINT217_pbTextBoundingRectEl" />
    <text fill="#000000" font-family="Helvetica" font-size="560" text-anchor="middle" x="14910" y="12180" id="DATAPOINT217_pbTextEl" PBD:Property="VAL">#.##</text>
  </g>
  <g id="DATAPOINT218" PB:IsMultiState="False" PBD:PtTagName="\\RTDBB\170_PT_7502" PB:Type="7" PB:NumberFormat="0.00">
    <rect x="36120" y="11960" width="1140" height="520" stroke-width="0" fill="none" id="DATAPOINT218_pbTextBoundingRectEl" />
    <text fill="#000000" font-family="Helvetica" font-size="560" text-anchor="middle" x="36690" y="12500" id="DATAPOINT218_pbTextEl" PBD:Property="VAL">#.##</text>
  </g>
  <g id="DATAPOINT219" PB:IsMultiState="False" PBD:PtTagName="\\RTDBB\170_PIC_755_PV" PB:Type="7" PB:NumberFormat="0.00">
    <rect x="24040" y="2800" width="1140" height="520" stroke-width="0" fill="none" id="DATAPOINT219_pbTextBoundingRectEl" />
    <text fill="#000000" font-family="Helvetica" font-size="560" text-anchor="middle" x="24610" y="3340" id="DATAPOINT219_pbTextEl" PBD:Property="VAL">#.##</text>
  </g>
  <g id="DATAPOINT220" PB:IsMultiState="False" PBD:PtTagName="\\RTDBB\170_TT_7501" PB:Type="7" PB:NumberFormat="0.00">
    <rect x="36440" y="13720" width="1140" height="520" stroke-width="0" fill="none" id="DATAPOINT220_pbTextBoundingRectEl" />
    <text fill="#000000" font-family="Helvetica" font-size="560" text-anchor="middle" x="37010" y="14260" id="DATAPOINT220_pbTextEl" PBD:Property="VAL">#.##</text>
  </g>
  <g id="DATAPOINT221" PB:IsMultiState="False" PBD:PtTagName="\\RTDBB\170_PT_7503A" PB:Type="7" PB:NumberFormat="0.00">
    <rect x="41600" y="26180" width="1140" height="520" stroke-width="0" fill="none" id="DATAPOINT221_pbTextBoundingRectEl" />
    <text fill="#000000" font-family="Helvetica" font-size="560" text-anchor="middle" x="42170" y="26720" id="DATAPOINT221_pbTextEl" PBD:Property="VAL">#.##</text>
  </g>
  <g id="DATAPOINT222" PB:IsMultiState="False" PBD:PtTagName="\\RTDBB\170_PT_7503B" PB:Type="7" PB:NumberFormat="0.00">
    <rect x="46040" y="26180" width="1140" height="520" stroke-width="0" fill="none" id="DATAPOINT222_pbTextBoundingRectEl" />
    <text fill="#000000" font-family="Helvetica" font-size="560" text-anchor="middle" x="46610" y="26720" id="DATAPOINT222_pbTextEl" PBD:Property="VAL">#.##</text>
  </g>
  <g id="DATAPOINT223" PB:IsMultiState="False" PBD:PtTagName="\\RTDBB\170_PT_7503C" PB:Type="7" PB:NumberFormat="0.00">
    <rect x="50600" y="26180" width="1140" height="520" stroke-width="0" fill="none" id="DATAPOINT223_pbTextBoundingRectEl" />
    <text fill="#000000" font-family="Helvetica" font-size="560" text-anchor="middle" x="51170" y="26720" id="DATAPOINT223_pbTextEl" PBD:Property="VAL">#.##</text>
  </g>
  <g id="DATAPOINT224" PB:IsMultiState="False" PBD:PtTagName="\\RTDBB\170_TT_7503" PB:Type="7" PB:NumberFormat="0.00">
    <rect x="41780" y="23920" width="1140" height="520" stroke-width="0" fill="none" id="DATAPOINT224_pbTextBoundingRectEl" />
    <text fill="#000000" font-family="Helvetica" font-size="560" text-anchor="middle" x="42350" y="24460" id="DATAPOINT224_pbTextEl" PBD:Property="VAL">#.##</text>
  </g>
  <g id="DATAPOINT225" PB:IsMultiState="False" PBD:PtTagName="\\RTDBB\170_PDT_7501" PB:Type="7" PB:NumberFormat="0.00">
    <rect x="41780" y="21960" width="1140" height="520" stroke-width="0" fill="none" id="DATAPOINT225_pbTextBoundingRectEl" />
    <text fill="#000000" font-family="Helvetica" font-size="560" text-anchor="middle" x="42350" y="22500" id="DATAPOINT225_pbTextEl" PBD:Property="VAL">#.##</text>
  </g>
</svg>