<?xml version="1.0"?>
<?xml-stylesheet type='text/javascript'?>
<!--Draw SVG: 2019-11-25 09:41:20 47-Monday-->
<svg xmlns="http://www.w3.org/2000/svg" xmlns:xlink="http://www.w3.org/1999/xlink" version="1.1" style="background-color:#000000" width="1066" height="800" viewbox="0 0 1066 800">
<defs>
<linearGradient x1="0.000000%" y1="50.000000%" x2="100.000000%" y2="50.000000%" id="lgradient54">
<stop offset="0" stop-color="#2C2C2C" stop-opacity="1"/>
<stop offset="0.5" stop-color="#FFFFFF" stop-opacity="1"/>
<stop offset="1" stop-color="#2C2C2C" stop-opacity="1"/>
</linearGradient>
<linearGradient x1="50.000000%" y1="0.000000%" x2="50.000000%" y2="100.000000%" id="lgradient55">
<stop offset="0" stop-color="#2C2C2C" stop-opacity="1"/>
<stop offset="0.5" stop-color="#FFFFFF" stop-opacity="1"/>
<stop offset="1" stop-color="#2C2C2C" stop-opacity="1"/>
</linearGradient>
<linearGradient x1="50.000000%" y1="0.000000%" x2="50.000000%" y2="100.000000%" id="lgradient56">
<stop offset="0" stop-color="#2C2C2C" stop-opacity="1"/>
<stop offset="0.5" stop-color="#FFFFFF" stop-opacity="1"/>
<stop offset="1" stop-color="#2C2C2C" stop-opacity="1"/>
</linearGradient>
<linearGradient x1="0.000000%" y1="50.000000%" x2="100.000000%" y2="50.000000%" id="lgradient57">
<stop offset="0" stop-color="#2C2C2C" stop-opacity="1"/>
<stop offset="0.5" stop-color="#FFFFFF" stop-opacity="1"/>
<stop offset="1" stop-color="#2C2C2C" stop-opacity="1"/>
</linearGradient>
<linearGradient x1="0.000000%" y1="50.000000%" x2="100.000000%" y2="50.000000%" id="lgradient58">
<stop offset="0" stop-color="#2C2C2C" stop-opacity="1"/>
<stop offset="0.5" stop-color="#FFFFFF" stop-opacity="1"/>
<stop offset="1" stop-color="#2C2C2C" stop-opacity="1"/>
</linearGradient>
<linearGradient x1="0.000000%" y1="50.000000%" x2="100.000000%" y2="50.000000%" id="lgradient59">
<stop offset="0" stop-color="#2C2C2C" stop-opacity="1"/>
<stop offset="0.5" stop-color="#FFFFFF" stop-opacity="1"/>
<stop offset="1" stop-color="#2C2C2C" stop-opacity="1"/>
</linearGradient>
<linearGradient x1="0.000000%" y1="50.000000%" x2="100.000000%" y2="50.000000%" id="lgradient60">
<stop offset="0" stop-color="#2C2C2C" stop-opacity="1"/>
<stop offset="0.5" stop-color="#FFFFFF" stop-opacity="1"/>
<stop offset="1" stop-color="#2C2C2C" stop-opacity="1"/>
</linearGradient>
<linearGradient x1="50.000000%" y1="0.000000%" x2="50.000000%" y2="100.000000%" id="lgradient62">
<stop offset="0" stop-color="#2C2C2C" stop-opacity="1"/>
<stop offset="0.5" stop-color="#FFFFFF" stop-opacity="1"/>
<stop offset="1" stop-color="#2C2C2C" stop-opacity="1"/>
</linearGradient>
<linearGradient x1="0.000000%" y1="50.000000%" x2="100.000000%" y2="50.000000%" id="lgradient63">
<stop offset="0" stop-color="#2C2C2C" stop-opacity="1"/>
<stop offset="0.5" stop-color="#FFFFFF" stop-opacity="1"/>
<stop offset="1" stop-color="#2C2C2C" stop-opacity="1"/>
</linearGradient>
<linearGradient x1="0.000000%" y1="50.000000%" x2="100.000000%" y2="50.000000%" id="lgradient64">
<stop offset="0" stop-color="#2C2C2C" stop-opacity="1"/>
<stop offset="0.5" stop-color="#FFFFFF" stop-opacity="1"/>
<stop offset="1" stop-color="#2C2C2C" stop-opacity="1"/>
</linearGradient>
<linearGradient x1="0.000000%" y1="50.000000%" x2="100.000000%" y2="50.000000%" id="lgradient65">
<stop offset="0" stop-color="#2C2C2C" stop-opacity="1"/>
<stop offset="0.5" stop-color="#FFFFFF" stop-opacity="1"/>
<stop offset="1" stop-color="#2C2C2C" stop-opacity="1"/>
</linearGradient>
<linearGradient x1="0.000000%" y1="50.000000%" x2="100.000000%" y2="50.000000%" id="lgradient66">
<stop offset="0" stop-color="#2C2C2C" stop-opacity="1"/>
<stop offset="0.5" stop-color="#FFFFFF" stop-opacity="1"/>
<stop offset="1" stop-color="#2C2C2C" stop-opacity="1"/>
</linearGradient>
<linearGradient x1="50.000000%" y1="0.000000%" x2="50.000000%" y2="100.000000%" id="lgradient68">
<stop offset="0" stop-color="#2C2C2C" stop-opacity="1"/>
<stop offset="0.5" stop-color="#FFFFFF" stop-opacity="1"/>
<stop offset="1" stop-color="#2C2C2C" stop-opacity="1"/>
</linearGradient>
<linearGradient x1="0.000000%" y1="50.000000%" x2="100.000000%" y2="50.000000%" id="lgradient69">
<stop offset="0" stop-color="#2C2C2C" stop-opacity="1"/>
<stop offset="0.5" stop-color="#FFFFFF" stop-opacity="1"/>
<stop offset="1" stop-color="#2C2C2C" stop-opacity="1"/>
</linearGradient>
<linearGradient x1="0.000000%" y1="50.000000%" x2="100.000000%" y2="50.000000%" id="lgradient70">
<stop offset="0" stop-color="#2C2C2C" stop-opacity="1"/>
<stop offset="0.5" stop-color="#FFFFFF" stop-opacity="1"/>
<stop offset="1" stop-color="#2C2C2C" stop-opacity="1"/>
</linearGradient>
<radialGradient cx="50.000000%" cy="50.000000%" r="50.000000%" fx="50.000000%" fy="50.000000%" id="rgradient100_2_1">
<stop offset="0%" stop-color="#FFFFFF" stop-opacity="1"/>
<stop offset="100%" stop-color="#2C2C2C" stop-opacity="1"/>
</radialGradient>
<radialGradient cx="50.000000%" cy="50.000000%" r="50.000000%" fx="50.000000%" fy="50.000000%" id="rgradient101_2_1">
<stop offset="0%" stop-color="#FFFFFF" stop-opacity="1"/>
<stop offset="100%" stop-color="#2C2C2C" stop-opacity="1"/>
</radialGradient>
<radialGradient cx="50.000000%" cy="50.000000%" r="50.000000%" fx="50.000000%" fy="50.000000%" id="rgradient102_2_1">
<stop offset="0%" stop-color="#FFFFFF" stop-opacity="1"/>
<stop offset="100%" stop-color="#2C2C2C" stop-opacity="1"/>
</radialGradient>
</defs>
<rect shape-type="rectangle" x="3" y="3" width="1048" height="46" fill="#9C9A9C" stroke="#C0C0C0" stroke-width="1.00"/>
<rect shape-type="rectangle" x="11" y="9" width="72" height="31" fill="#E7E3E7" stroke="#E7E3E7" stroke-width="1.00"/>
<rect shape-type="rectangle" x="347" y="9" width="468" height="33" fill="#E7E3E7" stroke="#E7E3E7" stroke-width="1.00"/>
<text font-family="宋体" text-anchor="start" fill="#000000" shape-type="text" id="" font-size="12.500000" font-weight="bold" x="31" y="30">M303</text>
<text font-family="宋体" text-anchor="start" fill="#000000" shape-type="text" id="" font-size="26.750000" font-weight="bold" x="412" y="36">CONDENSATE RECOVERY</text>
<line shape-type="limitline" x1="363" y1="121" x2="27" y2="121" fill="#00FFFF" stroke="#4AFF00" stroke-width="3.00"/>
<line shape-type="limitline" x1="363" y1="164" x2="363" y2="121" fill="#4AFF00" stroke="#4AFF00" stroke-width="3.00"/>
<line shape-type="limitline" x1="342" y1="138" x2="245" y2="138" fill="#00FFFF" stroke="#00FFFF" stroke-width="3.00"/>
<line shape-type="limitline" x1="344" y1="163" x2="344" y2="137" fill="#00FFFF" stroke="#00FFFF" stroke-width="3.00"/>
<line shape-type="limitline" x1="242" y1="266" x2="242" y2="138" fill="#00FFFF" stroke="#00FFFF" stroke-width="3.00"/>
<line shape-type="limitline" x1="398" y1="245" x2="8" y2="245" fill="#4AFF00" stroke="#4AFF00" stroke-width="3.00"/>
<line shape-type="limitline" x1="397" y1="202" x2="397" y2="243" fill="#4AFF00" stroke="#4AFF00" stroke-width="3.00"/>
<line shape-type="limitline" x1="415" y1="353" x2="415" y2="195" fill="#00FFFF" stroke="#00FFFF" stroke-width="3.00"/>
<line shape-type="limitline" x1="615" y1="352" x2="416" y2="352" fill="#00FFFF" stroke="#00FFFF" stroke-width="3.00"/>
<line shape-type="limitline" x1="616" y1="390" x2="616" y2="350" fill="#00FFFF" stroke="#00FFFF" stroke-width="3.00"/>
<line shape-type="limitline" x1="633" y1="389" x2="633" y2="68" fill="#00FFFF" stroke="#00FFFF" stroke-width="3.00"/>
<line shape-type="limitline" x1="1027" y1="69" x2="632" y2="69" fill="#00FFFF" stroke="#00FFFF" stroke-width="3.00"/>
<line shape-type="limitline" x1="1027" y1="131" x2="744" y2="131" fill="#4AFF00" stroke="#4AFF00" stroke-width="3.00"/>
<line shape-type="limitline" x1="741" y1="247" x2="741" y2="128" fill="#4AFF00" stroke="#4AFF00" stroke-width="3.00"/>
<line shape-type="limitline" x1="1037" y1="227" x2="769" y2="227" fill="#00FFFF" stroke="#00FFFF" stroke-width="3.00"/>
<line shape-type="limitline" x1="768" y1="247" x2="768" y2="228" fill="#00FFFF" stroke="#00FFFF" stroke-width="3.00"/>
<line shape-type="limitline" x1="811" y1="323" x2="811" y2="292" fill="#00FFFF" stroke="#00FFFF" stroke-width="3.00"/>
<line shape-type="limitline" x1="1033" y1="326" x2="811" y2="326" fill="#00FFFF" stroke="#00FFFF" stroke-width="3.00"/>
<line shape-type="limitline" x1="839" y1="672" x2="839" y2="296" fill="#4AFF00" stroke="#4AFF00" stroke-width="3.00"/>
<line shape-type="limitline" x1="741" y1="165" x2="703" y2="165" fill="#4AFF00" stroke="#4AFF00" stroke-width="3.00"/>
<line shape-type="limitline" x1="703" y1="338" x2="703" y2="165" fill="#4AFF00" stroke="#4AFF00" stroke-width="3.00"/>
<line shape-type="limitline" x1="835" y1="336" x2="703" y2="336" fill="#4AFF00" stroke="#4AFF00" stroke-width="3.00"/>
<line shape-type="limitline" x1="433" y1="508" x2="433" y2="370" fill="#4AFF00" stroke="#4AFF00" stroke-width="3.00"/>
<line shape-type="limitline" x1="583" y1="510" x2="240" y2="510" fill="#4AFF00" stroke="#4AFF00" stroke-width="3.00"/>
<line shape-type="limitline" x1="584" y1="654" x2="584" y2="466" fill="#4AFF00" stroke="#4AFF00" stroke-width="3.00"/>
<line shape-type="limitline" x1="614" y1="656" x2="476" y2="656" fill="#4AFF00" stroke="#4AFF00" stroke-width="3.00"/>
<line shape-type="limitline" x1="465" y1="700" x2="16" y2="700" fill="#4AFF00" stroke="#4AFF00" stroke-width="3.00"/>
<line shape-type="limitline" x1="466" y1="700" x2="466" y2="668" fill="#4AFF00" stroke="#4AFF00" stroke-width="3.00"/>
<line shape-type="limitline" x1="467" y1="633" x2="467" y2="454" fill="#00FFFF" stroke="#FFFFFF" stroke-width="3.00" stroke-dasharray="5 10"/>
<line shape-type="limitline" x1="241" y1="508" x2="241" y2="424" fill="#4AFF00" stroke="#4AFF00" stroke-width="3.00"/>
<line shape-type="limitline" x1="406" y1="364" x2="379" y2="364" fill="#00FFFF" stroke="#FFFFFF" stroke-width="3.00" stroke-dasharray="5 10"/>
<line shape-type="limitline" x1="405" y1="485" x2="405" y2="364" fill="#00FFFF" stroke="#FFFFFF" stroke-width="3.00" stroke-dasharray="5 10"/>
<line shape-type="limitline" x1="599" y1="368" x2="431" y2="368" fill="#4AFF00" stroke="#4AFF00" stroke-width="3.00"/>
<line shape-type="limitline" x1="597" y1="389" x2="597" y2="368" fill="#4AFF00" stroke="#4AFF00" stroke-width="3.00"/>
<line shape-type="limitline" x1="616" y1="683" x2="616" y2="519" fill="#4AFF00" stroke="#4AFF00" stroke-width="3.00"/>
<line shape-type="limitline" x1="697" y1="521" x2="617" y2="521" fill="#4AFF00" stroke="#4AFF00" stroke-width="3.00"/>
<line shape-type="limitline" x1="700" y1="616" x2="619" y2="616" fill="#4AFF00" stroke="#4AFF00" stroke-width="3.00"/>
<line shape-type="limitline" x1="704" y1="685" x2="617" y2="685" fill="#4AFF00" stroke="#4AFF00" stroke-width="3.00"/>
<line shape-type="limitline" x1="841" y1="673" x2="721" y2="673" fill="#4AFF00" stroke="#4AFF00" stroke-width="3.00"/>
<line shape-type="limitline" x1="839" y1="603" x2="719" y2="603" fill="#4AFF00" stroke="#4AFF00" stroke-width="3.00"/>
<line shape-type="limitline" x1="835" y1="510" x2="720" y2="510" fill="#4AFF00" stroke="#4AFF00" stroke-width="3.00"/>
<line shape-type="limitline" x1="739" y1="158" x2="626" y2="158" fill="#00FFFF" stroke="#FFFFFF" stroke-width="3.00" stroke-dasharray="5 10"/>
<line shape-type="limitline" x1="578" y1="204" x2="578" y2="181" fill="#00FFFF" stroke="#FFFFFF" stroke-width="3.00" stroke-dasharray="5 10"/>
<line shape-type="limitline" x1="683" y1="201" x2="578" y2="201" fill="#00FFFF" stroke="#FFFFFF" stroke-width="3.00" stroke-dasharray="5 10"/>
<line shape-type="limitline" x1="205" y1="334" x2="29" y2="334" fill="#00FFFF" stroke="#00FFFF" stroke-width="3.00"/>
<line shape-type="limitline" x1="203" y1="244" x2="203" y2="119" fill="#4AFF00" stroke="#4AFF00" stroke-width="3.00"/>
<line shape-type="limitline" x1="110" y1="159" x2="110" y2="119" fill="#00FFFF" stroke="#FFFFFF" stroke-width="3.00" stroke-dasharray="5 10"/>
<line shape-type="limitline" x1="180" y1="186" x2="158" y2="186" fill="#00FFFF" stroke="#FFFFFF" stroke-width="3.00" stroke-dasharray="5 10"/>
<rect shape-type="roundRectangle" rx="20" ry="20" x="209" y="268" width="66" height="154" fill="url(#lgradient54)" stroke="#808080" stroke-width="2.00"/>
<rect shape-type="roundRectangle" rx="20" ry="20" x="554" y="394" width="185" height="73" fill="url(#lgradient55)" stroke="#808080" stroke-width="2.00"/>
<rect shape-type="rectangle" x="334" y="165" width="93" height="35" fill="url(#lgradient56)" stroke="#808080" stroke-width="2.00"/>
<rect shape-type="rectangle" x="333" y="161" width="3" height="45" fill="url(#lgradient57)" stroke="#808080" stroke-width="2.00"/>
<rect shape-type="rectangle" x="347" y="161" width="4" height="45" fill="url(#lgradient58)" stroke="#808080" stroke-width="2.00"/>
<rect shape-type="rectangle" x="407" y="161" width="6" height="45" fill="url(#lgradient59)" stroke="#808080" stroke-width="2.00"/>
<rect shape-type="rectangle" x="421" y="161" width="4" height="45" fill="url(#lgradient60)" stroke="#808080" stroke-width="2.00"/>
<text font-family="宋体" text-anchor="start" fill="#000000" shape-type="text" id="" font-size="11.750000" font-weight="bold" x="366" y="188">E306</text>
<rect shape-type="rectangle" x="728" y="248" width="129" height="43" fill="url(#lgradient62)" stroke="#808080" stroke-width="2.00"/>
<rect shape-type="rectangle" x="726" y="244" width="5" height="54" fill="url(#lgradient63)" stroke="#808080" stroke-width="2.00"/>
<rect shape-type="rectangle" x="745" y="244" width="6" height="54" fill="url(#lgradient64)" stroke="#808080" stroke-width="2.00"/>
<rect shape-type="rectangle" x="830" y="245" width="6" height="53" fill="url(#lgradient65)" stroke="#808080" stroke-width="2.00"/>
<rect shape-type="rectangle" x="849" y="244" width="5" height="54" fill="url(#lgradient66)" stroke="#808080" stroke-width="2.00"/>
<text font-family="宋体" text-anchor="start" fill="#000000" shape-type="text" id="" font-size="11.750000" font-weight="bold" x="771" y="275">E304</text>
<rect shape-type="roundRectangle" rx="20" ry="20" x="481" y="558" width="127" height="50" fill="url(#lgradient68)" stroke="#808080" stroke-width="2.00"/>
<rect shape-type="rectangle" x="559" y="552" width="9" height="62" fill="url(#lgradient69)" stroke="#808080" stroke-width="2.00"/>
<rect shape-type="rectangle" x="594" y="552" width="9" height="62" fill="url(#lgradient70)" stroke="#808080" stroke-width="2.00"/>
<text font-family="宋体" text-anchor="start" fill="#000000" shape-type="text" id="" font-size="11.750000" font-weight="bold" x="506" y="586">E309</text>
<text font-family="宋体" text-anchor="start" fill="#000000" shape-type="text" id="" font-size="11.750000" font-weight="bold" x="659" y="434">V303</text>
<text font-family="宋体" text-anchor="start" fill="#000000" shape-type="text" id="" font-size="11.750000" font-weight="bold" x="225" y="334">V302</text>
<polygon shape-type="trapezium" points="367,131 358,131 363,120 363,120 367,131" fill="#4AFF00" stroke="#4AFF00" stroke-width="2.00"/>
<g shape-type="group">
<path shape-type="chord" d="M 303,498 A 14,22 0 0,0 280,498 z" fill="#C0C0C0" stroke="#C0C0C0" stroke-width="2.00"/>
<g shape-type="group">
<polygon shape-type="trapezium" points="279,505 279,515 291,510 291,510 279,505" fill="#C0C0C0" stroke="#C0C0C0" stroke-width="1.00"/>
<polygon shape-type="trapezium" points="302,505 302,515 290,510 290,510 302,505" fill="#C0C0C0" stroke="#C0C0C0" stroke-width="1.00"/>
</g>
<line shape-type="limitline" x1="291" y1="497" x2="290" y2="506" fill="#00FFFF" stroke="#C0C0C0" stroke-width="1.00"/>
<polygon shape-type="trapezium" points="295,500 286,500 291,510 291,510 295,500" fill="#C0C0C0" stroke="#C0C0C0" stroke-width="1.00"/>
</g>
<g shape-type="group">
<polygon shape-type="trapezium" points="22,128 22,112 6,120 6,120 22,128" fill="#808080" stroke="#808080" stroke-width="2.00"/>
<rect shape-type="rectangle" x="22" y="116" width="9" height="9" fill="#808080" stroke="#808080" stroke-width="2.00"/>
</g>
<g shape-type="group">
<polygon shape-type="trapezium" points="18,341 18,327 33,334 33,334 18,341" fill="#808080" stroke="#808080" stroke-width="2.00"/>
<rect shape-type="rectangle" x="8" y="330" width="10" height="8" fill="#808080" stroke="#808080" stroke-width="2.00"/>
</g>
<g shape-type="group">
<polygon shape-type="trapezium" points="1036,137 1036,123 1052,130 1052,130 1036,137" fill="#808080" stroke="#808080" stroke-width="2.00"/>
<rect shape-type="rectangle" x="1027" y="126" width="9" height="8" fill="#808080" stroke="#808080" stroke-width="2.00"/>
</g>
<g shape-type="group">
<polygon shape-type="trapezium" points="1036,76 1036,61 1052,68 1052,68 1036,76" fill="#808080" stroke="#808080" stroke-width="2.00"/>
<rect shape-type="rectangle" x="1027" y="64" width="9" height="9" fill="#808080" stroke="#808080" stroke-width="2.00"/>
</g>
<g shape-type="group">
<polygon shape-type="trapezium" points="1039,334 1039,318 1054,326 1054,326 1039,334" fill="#808080" stroke="#808080" stroke-width="2.00"/>
<rect shape-type="rectangle" x="1029" y="323" width="10" height="8" fill="#808080" stroke="#808080" stroke-width="2.00"/>
</g>
<g shape-type="group">
<polygon shape-type="trapezium" points="1047,234 1047,218 1031,226 1031,226 1047,234" fill="#808080" stroke="#808080" stroke-width="2.00"/>
<rect shape-type="rectangle" x="1047" y="223" width="9" height="8" fill="#808080" stroke="#808080" stroke-width="2.00"/>
</g>
<polygon shape-type="trapezium" points="400,209 391,209 396,198 396,198 400,209" fill="#4AFF00" stroke="#4AFF00" stroke-width="2.00"/>
<polygon shape-type="trapezium" points="745,142 736,142 741,131 741,131 745,142" fill="#4AFF00" stroke="#4AFF00" stroke-width="2.00"/>
<polygon shape-type="trapezium" points="842,305 833,305 838,294 838,294 842,305" fill="#4AFF00" stroke="#4AFF00" stroke-width="2.00"/>
<polygon shape-type="trapezium" points="197,330 197,338 207,334 207,334 197,330" fill="#00FFFF" stroke="#00FFFF" stroke-width="2.00"/>
<polygon shape-type="trapezium" points="574,506 574,514 584,510 584,510 574,506" fill="#4AFF00" stroke="#4AFF00" stroke-width="2.00"/>
<polygon shape-type="trapezium" points="829,507 829,515 839,511 839,511 829,507" fill="#4AFF00" stroke="#4AFF00" stroke-width="2.00"/>
<polygon shape-type="trapezium" points="828,598 828,606 838,602 838,602 828,598" fill="#4AFF00" stroke="#4AFF00" stroke-width="2.00"/>
<polygon shape-type="trapezium" points="830,668 830,676 840,672 840,672 830,668" fill="#4AFF00" stroke="#4AFF00" stroke-width="2.00"/>
<polygon shape-type="trapezium" points="619,380 610,380 615,391 615,391 619,380" fill="#00FFFF" stroke="#00FFFF" stroke-width="2.00"/>
<polygon shape-type="trapezium" points="601,381 592,381 597,392 597,392 601,381" fill="#4AFF00" stroke="#4AFF00" stroke-width="2.00"/>
<polygon shape-type="trapezium" points="713,332 713,341 702,337 702,337 713,332" fill="#4AFF00" stroke="#4AFF00" stroke-width="2.00"/>
<polygon shape-type="trapezium" points="17,695 17,704 6,700 6,700 17,695" fill="#4AFF00" stroke="#4AFF00" stroke-width="2.00"/>
<polygon shape-type="trapezium" points="171,182 171,190 181,186 181,186 171,182" fill="#FFFFFF" stroke="#FFFFFF" stroke-width="2.00"/>
<g shape-type="group">
<path shape-type="chord" d="M 417,498 A 14,22 0 0,0 394,498 z" fill="#C0C0C0" stroke="#C0C0C0" stroke-width="2.00"/>
<g shape-type="group">
<polygon shape-type="trapezium" points="393,505 393,515 404,510 404,510 393,505" fill="#C0C0C0" stroke="#C0C0C0" stroke-width="1.00"/>
<polygon shape-type="trapezium" points="416,505 416,515 403,510 403,510 416,505" fill="#C0C0C0" stroke="#C0C0C0" stroke-width="1.00"/>
</g>
<line shape-type="limitline" x1="404" y1="497" x2="403" y2="506" fill="#00FFFF" stroke="#C0C0C0" stroke-width="1.00"/>
<polygon shape-type="trapezium" points="408,500 400,500 404,510 404,510 408,500" fill="#C0C0C0" stroke="#C0C0C0" stroke-width="1.00"/>
</g>
<g shape-type="group">
<path shape-type="chord" d="M 191,174 A 22,13 0 1,0 191,196 z" fill="#C0C0C0" stroke="#C0C0C0" stroke-width="2.00"/>
<g shape-type="group">
<polygon shape-type="trapezium" points="208,196 197,196 203,185 203,185 208,196" fill="#C0C0C0" stroke="#C0C0C0" stroke-width="1.00"/>
<polygon shape-type="trapezium" points="208,174 197,174 203,185 203,185 208,174" fill="#C0C0C0" stroke="#C0C0C0" stroke-width="1.00"/>
</g>
<line shape-type="limitline" x1="191" y1="186" x2="199" y2="187" fill="#00FFFF" stroke="#C0C0C0" stroke-width="1.00"/>
<polygon shape-type="trapezium" points="194,189 194,182 203,185 203,185 194,189" fill="#C0C0C0" stroke="#C0C0C0" stroke-width="1.00"/>
</g>
<g shape-type="group">
<path shape-type="chord" d="M 692,190 A 22,13 0 1,0 692,212 z" fill="#C0C0C0" stroke="#C0C0C0" stroke-width="2.00"/>
<g shape-type="group">
<polygon shape-type="trapezium" points="709,213 698,213 704,200 704,200 709,213" fill="#C0C0C0" stroke="#C0C0C0" stroke-width="1.00"/>
<polygon shape-type="trapezium" points="709,190 698,190 704,201 704,201 709,190" fill="#C0C0C0" stroke="#C0C0C0" stroke-width="1.00"/>
</g>
<line shape-type="limitline" x1="692" y1="201" x2="700" y2="202" fill="#00FFFF" stroke="#C0C0C0" stroke-width="1.00"/>
<polygon shape-type="trapezium" points="695,205 695,197 704,201 704,201 695,205" fill="#C0C0C0" stroke="#C0C0C0" stroke-width="1.00"/>
</g>
<polygon shape-type="trapezium" points="771,233 762,233 767,244 767,244 771,233" fill="#00FFFF" stroke="#00FFFF" stroke-width="2.00"/>
<g shape-type="group">
<path shape-type="chord" d="M 478,644 A 15,23 0 0,0 454,644 z" fill="#C0C0C0" stroke="#C0C0C0" stroke-width="2.00"/>
<line shape-type="limitline" x1="466" y1="643" x2="465" y2="652" fill="#00FFFF" stroke="#C0C0C0" stroke-width="1.00"/>
<polygon shape-type="trapezium" points="470,647 460,647 465,656 465,656 470,647" fill="#C0C0C0" stroke="#C0C0C0" stroke-width="1.00"/>
<polygon shape-type="trapezium" points="470,668 458,668 464,655 464,655 470,668" fill="#C0C0C0" stroke="#C0C0C0" stroke-width="1.00"/>
<polygon shape-type="trapezium" points="478,650 478,661 465,656 465,656 478,650" fill="#C0C0C0" stroke="#C0C0C0" stroke-width="1.00"/>
</g>
<g shape-type="group">
<rect shape-type="rectangle" x="689" y="533" width="6" height="8" fill="#808080" stroke="#FFFFFF" stroke-width="2.00"/>
<rect shape-type="rectangle" x="707" y="533" width="7" height="8" fill="#808080" stroke="#FFFFFF" stroke-width="2.00"/>
<g shape-type="group">
<rect shape-type="rectangle" x="700" y="509" width="21" height="5" fill="#808080" stroke="#000000" stroke-width="1.00"/>
<ellipse shape-type="ellipse" cx="701" cy="522" rx="16" ry="16" fill="url(#rgradient100_2_1)" stroke="#000000" stroke-width="1.00"/>
</g>
</g>
<g shape-type="group">
<rect shape-type="rectangle" x="686" y="626" width="7" height="7" fill="#808080" stroke="#FFFFFF" stroke-width="2.00"/>
<rect shape-type="rectangle" x="705" y="626" width="6" height="7" fill="#808080" stroke="#FFFFFF" stroke-width="2.00"/>
<g shape-type="group">
<rect shape-type="rectangle" x="698" y="602" width="21" height="5" fill="#808080" stroke="#000000" stroke-width="1.00"/>
<ellipse shape-type="ellipse" cx="699" cy="614" rx="16" ry="16" fill="url(#rgradient101_2_1)" stroke="#000000" stroke-width="1.00"/>
</g>
</g>
<g shape-type="group">
<rect shape-type="rectangle" x="692" y="692" width="6" height="7" fill="#808080" stroke="#FFFFFF" stroke-width="2.00"/>
<rect shape-type="rectangle" x="710" y="692" width="7" height="7" fill="#808080" stroke="#FFFFFF" stroke-width="2.00"/>
<g shape-type="group">
<rect shape-type="rectangle" x="703" y="668" width="22" height="5" fill="#808080" stroke="#000000" stroke-width="1.00"/>
<ellipse shape-type="ellipse" cx="705" cy="680" rx="16" ry="16" fill="url(#rgradient102_2_1)" stroke="#000000" stroke-width="1.00"/>
</g>
</g>
<rect shape-type="rectangle" x="854" y="432" width="61" height="26" fill="#4A494A" stroke="#C0C0C0" stroke-width="3.00"/>
<rect shape-type="rectangle" x="915" y="432" width="36" height="26" fill="#4A494A" stroke="#C0C0C0" stroke-width="3.00"/>
<text font-family="宋体" text-anchor="start" fill="#00FF42" shape-type="text" id="" font-size="10.250000" font-weight="bold" x="917" y="448">DEG_C</text>
<rect shape-type="rectangle" x="854" y="468" width="61" height="26" fill="#4A494A" stroke="#C0C0C0" stroke-width="3.00"/>
<rect shape-type="rectangle" x="915" y="468" width="36" height="26" fill="#4A494A" stroke="#C0C0C0" stroke-width="3.00"/>
<text font-family="宋体" text-anchor="start" fill="#00FF42" shape-type="text" id="" font-size="10.250000" font-weight="bold" x="926" y="484">t/h</text>
<rect shape-type="rectangle" x="628" y="526" width="56" height="21" fill="#4A494A" stroke="#C0C0C0" stroke-width="3.00"/>
<rect shape-type="rectangle" x="629" y="583" width="57" height="21" fill="#4A494A" stroke="#C0C0C0" stroke-width="3.00"/>
<rect shape-type="rectangle" x="628" y="655" width="57" height="21" fill="#4A494A" stroke="#C0C0C0" stroke-width="3.00"/>
<text font-family="宋体" text-anchor="start" fill="#FFFFFF" shape-type="text" id="" font-size="9.500000" font-weight="bold" x="638" y="540">P301A</text>
<text font-family="宋体" text-anchor="start" fill="#FFFFFF" shape-type="text" id="" font-size="9.500000" font-weight="bold" x="640" y="596">P301B</text>
<text font-family="宋体" text-anchor="start" fill="#FFFFFF" shape-type="text" id="" font-size="9.500000" font-weight="bold" x="639" y="668">P301D</text>
<text font-family="宋体" text-anchor="start" fill="#FFFFFF" shape-type="text" id="" font-size="11.000000" x="38" y="114">PW V901</text>
<text font-family="宋体" text-anchor="start" fill="#FFFFFF" shape-type="text" id="" font-size="11.000000" x="7" y="170">TO UNIT</text>
<text font-family="宋体" text-anchor="start" fill="#FFFFFF" shape-type="text" id="" font-size="11.000000" x="17" y="187">900</text>
<text font-family="宋体" text-anchor="start" fill="#FFFFFF" shape-type="text" id="" font-size="11.000000" x="10" y="234">PW HEAD</text>
<text font-family="宋体" text-anchor="start" fill="#FFFFFF" shape-type="text" id="" font-size="11.000000" x="8" y="310">E305</text>
<text font-family="宋体" text-anchor="start" fill="#FFFFFF" shape-type="text" id="" font-size="11.000000" x="14" y="686">W.WATER</text>
<text font-family="宋体" text-anchor="start" fill="#FFFFFF" shape-type="text" id="" font-size="11.000000" x="393" y="662">LV23003B</text>
<text font-family="宋体" text-anchor="start" fill="#FFFFFF" shape-type="text" id="" font-size="11.000000" x="990" y="318">E305</text>
<text font-family="宋体" text-anchor="start" fill="#FFFFFF" shape-type="text" id="" font-size="11.000000" x="988" y="220">R302</text>
<text font-family="宋体" text-anchor="start" fill="#FFFFFF" shape-type="text" id="" font-size="11.000000" x="971" y="126">T3201AB</text>
<text font-family="宋体" text-anchor="start" fill="#FFFFFF" shape-type="text" id="" font-size="11.000000" x="991" y="62">E307</text>
<rect shape-type="rectangle" x="526" y="133" width="97" height="26" fill="#7B7D7B" stroke="#C0C0C0" stroke-width="3.00"/>
<rect shape-type="rectangle" x="526" y="159" width="62" height="25" fill="#4A494A" stroke="#C0C0C0" stroke-width="3.00"/>
<text font-family="宋体" text-anchor="start" fill="#FFFFFF" shape-type="text" id="" font-size="11.000000" font-weight="bold" x="547" y="150">TC23004</text>
<rect shape-type="rectangle" x="588" y="159" width="35" height="25" fill="#4A494A" stroke="#C0C0C0" stroke-width="3.00"/>
<text font-family="宋体" text-anchor="start" fill="#00FF42" shape-type="text" id="" font-size="10.250000" font-weight="bold" x="589" y="175">DEG_C</text>
<rect shape-type="rectangle" x="62" y="160" width="97" height="26" fill="#7B7D7B" stroke="#C0C0C0" stroke-width="3.00"/>
<rect shape-type="rectangle" x="62" y="186" width="62" height="25" fill="#4A494A" stroke="#C0C0C0" stroke-width="3.00"/>
<text font-family="宋体" text-anchor="start" fill="#FFFFFF" shape-type="text" id="" font-size="11.000000" font-weight="bold" x="83" y="177">TC23016</text>
<rect shape-type="rectangle" x="124" y="186" width="35" height="25" fill="#4A494A" stroke="#C0C0C0" stroke-width="3.00"/>
<text font-family="宋体" text-anchor="start" fill="#00FF42" shape-type="text" id="" font-size="10.250000" font-weight="bold" x="125" y="202">DEG_C</text>
<rect shape-type="rectangle" x="281" y="337" width="97" height="26" fill="#7B7D7B" stroke="#C0C0C0" stroke-width="3.00"/>
<rect shape-type="rectangle" x="281" y="363" width="62" height="25" fill="#4A494A" stroke="#C0C0C0" stroke-width="3.00"/>
<text font-family="宋体" text-anchor="start" fill="#FFFFFF" shape-type="text" id="" font-size="11.000000" font-weight="bold" x="302" y="354">LC23002</text>
<rect shape-type="rectangle" x="343" y="363" width="35" height="25" fill="#4A494A" stroke="#C0C0C0" stroke-width="3.00"/>
<text font-family="宋体" text-anchor="start" fill="#00FF42" shape-type="text" id="" font-size="10.250000" font-weight="bold" x="357" y="379">%</text>
<rect shape-type="rectangle" x="447" y="403" width="97" height="26" fill="#7B7D7B" stroke="#C0C0C0" stroke-width="3.00"/>
<rect shape-type="rectangle" x="447" y="429" width="62" height="25" fill="#4A494A" stroke="#C0C0C0" stroke-width="3.00"/>
<text font-family="宋体" text-anchor="start" fill="#FFFFFF" shape-type="text" id="" font-size="11.000000" font-weight="bold" x="468" y="420">LC23003</text>
<rect shape-type="rectangle" x="509" y="429" width="35" height="25" fill="#4A494A" stroke="#C0C0C0" stroke-width="3.00"/>
<text font-family="宋体" text-anchor="start" fill="#00FF42" shape-type="text" id="" font-size="10.250000" font-weight="bold" x="523" y="445">%</text>
<polygon shape-type="trapezium" points="347,155 338,155 343,166 343,166 347,155" fill="#00FFFF" stroke="#00FFFF" stroke-width="2.00"/>
<rect shape-type="rectangle" x="1" y="735" width="1068" height="64" fill="#BDBABD" stroke="#BDBABD" stroke-width="1.00"/>
<g shape-type="group">
<rect shape-type="rectangle" x="997" y="748" width="48" height="43" fill="#C6C3C6" stroke="#C6C3C6" stroke-width="1.00"/>
<polygon shape-type="trapezium" points="1014,779 1014,759 1032,769 1032,769 1014,779" fill="#4A494A" stroke="#C6C3C6" stroke-width="2.00"/>
</g>
<g shape-type="group">
<rect shape-type="rectangle" x="13" y="748" width="47" height="39" fill="#C6C3C6" stroke="#C6C3C6" stroke-width="1.00"/>
<polygon shape-type="trapezium" points="41,776 41,756 22,766 22,766 41,776" fill="#4A494A" stroke="#C6C3C6" stroke-width="2.00"/>
</g>
<a xlink:href="m301.svg">
<g shape-type="button">
<rect fill="#C0C0C0" stroke-width="0.3" stroke="#FFFFFF" x="78" y="745" width="92" height="42" shape-type="buttonrect"/>
<text font-family="宋体" text-anchor="middle" dominant-baseline="middle" fill="#000000" font-size="13.500000" x="124" y="772" shape-type="buttontext">R301-R302</text>
</g>
</a>
<a xlink:href="M302.svg">
<g shape-type="button">
<rect fill="#C0C0C0" stroke-width="0.3" stroke="#FFFFFF" x="183" y="745" width="92" height="42" shape-type="buttonrect"/>
<text font-family="宋体" text-anchor="middle" dominant-baseline="middle" fill="#000000" font-size="13.500000" x="229" y="772" shape-type="buttontext">E301-E302</text>
</g>
</a>
<a xlink:href="M304.svg">
<g shape-type="button">
<rect fill="#C0C0C0" stroke-width="0.3" stroke="#FFFFFF" x="289" y="745" width="92" height="42" shape-type="buttonrect"/>
<text font-family="宋体" text-anchor="middle" dominant-baseline="middle" fill="#000000" font-size="13.500000" x="335" y="772" shape-type="buttontext">F301</text>
</g>
</a>
<a xlink:href="M305.svg">
<g shape-type="button">
<rect fill="#C0C0C0" stroke-width="0.3" stroke="#FFFFFF" x="396" y="745" width="92" height="42" shape-type="buttonrect"/>
<text font-family="宋体" text-anchor="middle" dominant-baseline="middle" fill="#000000" font-size="13.500000" x="442" y="772" shape-type="buttontext">V304</text>
</g>
</a>
<text font-family="Arial" text-anchor="start" fill="#00FFFF" shape-type="realdata" id="HCAB_JH_TC23016" font-size="12.500000" x="70" y="206">XXXX</text>
<text font-family="Arial" text-anchor="start" fill="#00FFFF" shape-type="realdata" id="HCAB_JH_LC23002" font-size="12.500000" x="286" y="381">XXX</text>
<text font-family="Arial" text-anchor="start" fill="#00FFFF" shape-type="realdata" id="HCAB_JH_LC23003" font-size="12.500000" x="453" y="445">XXXX</text>
<text font-family="Arial" text-anchor="start" fill="#00FFFF" shape-type="realdata" id="HCAB_JH_TC23004" font-size="12.500000" x="532" y="177">XXXX</text>
<text font-family="Arial" text-anchor="start" fill="#00FFFF" shape-type="realdata" id="HCAB_JH_TI23017" font-size="12.500000" x="859" y="450">XXXX</text>
<text font-family="Arial" text-anchor="start" fill="#00FFFF" shape-type="realdata" id="HCAB_JH_FI23005" font-size="12.500000" x="859" y="488">XXXX</text>
<a xlink:href="300_ML.svg">
<g shape-type="button">
<rect fill="#C0C0C0" stroke-width="0.3" stroke="#FFFFFF" x="945" y="10" width="98" height="32" shape-type="buttonrect"/>
<text font-family="宋体" text-anchor="middle" dominant-baseline="middle" fill="#800000" font-size="13.500000" font-weight="bold" x="994" y="32" shape-type="buttontext">返回上一级</text>
</g>
</a>
<rect shape-type="rectangle" x="790" y="518" width="36" height="26" fill="#4A494A" stroke="#C0C0C0" stroke-width="3.00"/>
<rect shape-type="rectangle" x="729" y="518" width="61" height="26" fill="#4A494A" stroke="#C0C0C0" stroke-width="3.00"/>
<text font-family="宋体" text-anchor="start" fill="#00FF42" shape-type="text" id="" font-size="10.250000" font-weight="bold" x="801" y="534">A</text>
<text font-family="Arial" text-anchor="start" fill="#00FFFF" shape-type="realdata" id="HCAB_JH_ITMP301A" font-size="12.500000" x="734" y="534">XXX</text>
<rect shape-type="rectangle" x="790" y="610" width="36" height="26" fill="#4A494A" stroke="#C0C0C0" stroke-width="3.00"/>
<rect shape-type="rectangle" x="729" y="610" width="61" height="26" fill="#4A494A" stroke="#C0C0C0" stroke-width="3.00"/>
<text font-family="宋体" text-anchor="start" fill="#00FF42" shape-type="text" id="" font-size="10.250000" font-weight="bold" x="801" y="626">A</text>
<text font-family="Arial" text-anchor="start" fill="#00FFFF" shape-type="realdata" id="HCAB_JH_ITMP301B" font-size="12.500000" x="734" y="627">XXX</text>
<rect shape-type="rectangle" x="791" y="681" width="36" height="26" fill="#4A494A" stroke="#C0C0C0" stroke-width="3.00"/>
<rect shape-type="rectangle" x="730" y="681" width="61" height="26" fill="#4A494A" stroke="#C0C0C0" stroke-width="3.00"/>
<text font-family="宋体" text-anchor="start" fill="#00FF42" shape-type="text" id="" font-size="10.250000" font-weight="bold" x="802" y="697">A</text>
<text font-family="Arial" text-anchor="start" fill="#00FFFF" shape-type="realdata" id="HCAB_JH_ITMP301D" font-size="12.500000" x="736" y="697">XXX</text>
</svg>
