<?xml version="1.0"?>
<?xml-stylesheet type='text/javascript'?>
<!--Draw SVG: 2019-11-25 09:41:20 47-Monday-->
<svg xmlns="http://www.w3.org/2000/svg" xmlns:xlink="http://www.w3.org/1999/xlink" version="1.1" style="background-color:#000000" width="1066" height="800" viewbox="0 0 1066 800">
<defs>
<linearGradient x1="0.000000%" y1="50.000000%" x2="100.000000%" y2="50.000000%" id="lgradient40">
<stop offset="0" stop-color="#2C2C2C" stop-opacity="1"/>
<stop offset="0.5" stop-color="#FFFFFF" stop-opacity="1"/>
<stop offset="1" stop-color="#2C2C2C" stop-opacity="1"/>
</linearGradient>
<linearGradient x1="50.000000%" y1="0.000000%" x2="50.000000%" y2="100.000000%" id="lgradient41">
<stop offset="0" stop-color="#2C2C2C" stop-opacity="1"/>
<stop offset="0.5" stop-color="#FFFFFF" stop-opacity="1"/>
<stop offset="1" stop-color="#2C2C2C" stop-opacity="1"/>
</linearGradient>
<linearGradient x1="0.000000%" y1="50.000000%" x2="100.000000%" y2="50.000000%" id="lgradient42">
<stop offset="0" stop-color="#2C2C2C" stop-opacity="1"/>
<stop offset="0.5" stop-color="#FFFFFF" stop-opacity="1"/>
<stop offset="1" stop-color="#2C2C2C" stop-opacity="1"/>
</linearGradient>
<linearGradient x1="0.000000%" y1="50.000000%" x2="100.000000%" y2="50.000000%" id="lgradient43">
<stop offset="0" stop-color="#2C2C2C" stop-opacity="1"/>
<stop offset="0.5" stop-color="#FFFFFF" stop-opacity="1"/>
<stop offset="1" stop-color="#2C2C2C" stop-opacity="1"/>
</linearGradient>
<linearGradient x1="0.000000%" y1="50.000000%" x2="100.000000%" y2="50.000000%" id="lgradient44">
<stop offset="0" stop-color="#2C2C2C" stop-opacity="1"/>
<stop offset="0.5" stop-color="#FFFFFF" stop-opacity="1"/>
<stop offset="1" stop-color="#2C2C2C" stop-opacity="1"/>
</linearGradient>
<linearGradient x1="0.000000%" y1="50.000000%" x2="100.000000%" y2="50.000000%" id="lgradient45">
<stop offset="0" stop-color="#2C2C2C" stop-opacity="1"/>
<stop offset="0.5" stop-color="#FFFFFF" stop-opacity="1"/>
<stop offset="1" stop-color="#2C2C2C" stop-opacity="1"/>
</linearGradient>
<linearGradient x1="50.000000%" y1="0.000000%" x2="50.000000%" y2="100.000000%" id="lgradient47">
<stop offset="0" stop-color="#2C2C2C" stop-opacity="1"/>
<stop offset="0.5" stop-color="#FFFFFF" stop-opacity="1"/>
<stop offset="1" stop-color="#2C2C2C" stop-opacity="1"/>
</linearGradient>
<linearGradient x1="0.000000%" y1="50.000000%" x2="100.000000%" y2="50.000000%" id="lgradient48">
<stop offset="0" stop-color="#2C2C2C" stop-opacity="1"/>
<stop offset="0.5" stop-color="#FFFFFF" stop-opacity="1"/>
<stop offset="1" stop-color="#2C2C2C" stop-opacity="1"/>
</linearGradient>
<linearGradient x1="0.000000%" y1="50.000000%" x2="100.000000%" y2="50.000000%" id="lgradient49">
<stop offset="0" stop-color="#2C2C2C" stop-opacity="1"/>
<stop offset="0.5" stop-color="#FFFFFF" stop-opacity="1"/>
<stop offset="1" stop-color="#2C2C2C" stop-opacity="1"/>
</linearGradient>
</defs>
<rect shape-type="rectangle" x="3" y="3" width="1055" height="46" fill="#9C9A9C" stroke="#C0C0C0" stroke-width="1.00"/>
<rect shape-type="rectangle" x="8" y="9" width="74" height="31" fill="#E7E3E7" stroke="#E7E3E7" stroke-width="1.00"/>
<rect shape-type="rectangle" x="347" y="9" width="473" height="32" fill="#E7E3E7" stroke="#E7E3E7" stroke-width="1.00"/>
<text font-family="宋体" text-anchor="start" fill="#000000" shape-type="text" id="" font-size="11.750000" font-weight="bold" x="27" y="29">M305</text>
<text font-family="宋体" text-anchor="start" fill="#000000" shape-type="text" id="" font-size="26.000000" font-weight="bold" x="530" y="37">V304</text>
<line shape-type="limitline" x1="1029" y1="206" x2="384" y2="206" fill="#00FFFF" stroke="#00FFFF" stroke-width="3.00"/>
<line shape-type="limitline" x1="837" y1="203" x2="837" y2="135" fill="#00FFFF" stroke="#00FFFF" stroke-width="3.00"/>
<line shape-type="limitline" x1="1042" y1="137" x2="839" y2="137" fill="#00FFFF" stroke="#00FFFF" stroke-width="3.00"/>
<line shape-type="limitline" x1="383" y1="248" x2="383" y2="205" fill="#00FFFF" stroke="#00FFFF" stroke-width="3.00"/>
<line shape-type="limitline" x1="342" y1="356" x2="109" y2="356" fill="#00FFFF" stroke="#00FFFF" stroke-width="3.00"/>
<line shape-type="limitline" x1="107" y1="605" x2="107" y2="356" fill="#00FFFF" stroke="#00FFFF" stroke-width="3.00"/>
<line shape-type="limitline" x1="157" y1="482" x2="24" y2="482" fill="#00FFFF" stroke="#00FFFF" stroke-width="3.00"/>
<line shape-type="limitline" x1="157" y1="606" x2="157" y2="480" fill="#00FFFF" stroke="#00FFFF" stroke-width="3.00"/>
<line shape-type="limitline" x1="159" y1="607" x2="105" y2="607" fill="#00FFFF" stroke="#00FFFF" stroke-width="3.00"/>
<line shape-type="limitline" x1="203" y1="389" x2="10" y2="389" fill="#4AFF00" stroke="#4AFF00" stroke-width="3.00"/>
<line shape-type="limitline" x1="203" y1="514" x2="203" y2="389" fill="#4AFF00" stroke="#4AFF00" stroke-width="3.00"/>
<line shape-type="limitline" x1="384" y1="572" x2="384" y2="489" fill="#4AFF00" stroke="#4AFF00" stroke-width="3.00"/>
<line shape-type="limitline" x1="1031" y1="573" x2="384" y2="573" fill="#4AFF00" stroke="#4AFF00" stroke-width="3.00"/>
<line shape-type="limitline" x1="833" y1="617" x2="833" y2="573" fill="#4AFF00" stroke="#4AFF00" stroke-width="3.00"/>
<line shape-type="limitline" x1="1029" y1="617" x2="833" y2="617" fill="#4AFF00" stroke="#4AFF00" stroke-width="3.00"/>
<line shape-type="limitline" x1="227" y1="682" x2="227" y2="565" fill="#4AFF00" stroke="#4AFF00" stroke-width="3.00"/>
<line shape-type="limitline" x1="225" y1="684" x2="1037" y2="684" fill="#4AFF00" stroke="#4AFF00" stroke-width="3.00"/>
<line shape-type="limitline" x1="640" y1="295" x2="425" y2="295" fill="#4AFF00" stroke="#4AFF00" stroke-width="3.00"/>
<line shape-type="limitline" x1="640" y1="497" x2="640" y2="295" fill="#4AFF00" stroke="#4AFF00" stroke-width="3.00"/>
<line shape-type="limitline" x1="765" y1="498" x2="641" y2="498" fill="#4AFF00" stroke="#4AFF00" stroke-width="3.00"/>
<line shape-type="limitline" x1="1032" y1="309" x2="766" y2="309" fill="#4AFF00" stroke="#4AFF00" stroke-width="3.00"/>
<line shape-type="limitline" x1="765" y1="494" x2="765" y2="308" fill="#4AFF00" stroke="#4AFF00" stroke-width="3.00"/>
<line shape-type="limitline" x1="810" y1="420" x2="810" y2="374" fill="#4AFF00" stroke="#4AFF00" stroke-width="3.00"/>
<line shape-type="limitline" x1="1050" y1="376" x2="808" y2="376" fill="#4AFF00" stroke="#4AFF00" stroke-width="3.00"/>
<line shape-type="limitline" x1="840" y1="510" x2="840" y2="470" fill="#4AFF00" stroke="#4AFF00" stroke-width="3.00"/>
<line shape-type="limitline" x1="1046" y1="510" x2="841" y2="510" fill="#4AFF00" stroke="#4AFF00" stroke-width="3.00"/>
<line shape-type="limitline" x1="772" y1="205" x2="772" y2="119" fill="#00FFFF" stroke="#FFFFFF" stroke-width="3.00" stroke-dasharray="5 10"/>
<line shape-type="limitline" x1="888" y1="92" x2="828" y2="92" fill="#00FFFF" stroke="#FFFFFF" stroke-width="3.00" stroke-dasharray="5 10"/>
<line shape-type="limitline" x1="887" y1="116" x2="887" y2="92" fill="#00FFFF" stroke="#FFFFFF" stroke-width="3.00" stroke-dasharray="5 10"/>
<line shape-type="limitline" x1="580" y1="424" x2="527" y2="424" fill="#00FFFF" stroke="#FFFFFF" stroke-width="3.00" stroke-dasharray="5 10"/>
<line shape-type="limitline" x1="579" y1="548" x2="579" y2="424" fill="#00FFFF" stroke="#FFFFFF" stroke-width="3.00" stroke-dasharray="5 10"/>
<line shape-type="limitline" x1="874" y1="255" x2="815" y2="255" fill="#00FFFF" stroke="#FFFFFF" stroke-width="3.00" stroke-dasharray="5 10"/>
<line shape-type="limitline" x1="815" y1="283" x2="815" y2="255" fill="#00FFFF" stroke="#FFFFFF" stroke-width="3.00" stroke-dasharray="5 10"/>
<line shape-type="limitline" x1="916" y1="308" x2="916" y2="277" fill="#00FFFF" stroke="#FFFFFF" stroke-width="3.00" stroke-dasharray="5 10"/>
<rect shape-type="roundRectangle" rx="20" ry="20" x="344" y="249" width="78" height="239" fill="url(#lgradient40)" stroke="#808080" stroke-width="2.00"/>
<rect shape-type="rectangle" x="146" y="517" width="127" height="46" fill="url(#lgradient41)" stroke="#808080" stroke-width="2.00"/>
<rect shape-type="rectangle" x="144" y="513" width="5" height="57" fill="url(#lgradient42)" stroke="#808080" stroke-width="2.00"/>
<rect shape-type="rectangle" x="163" y="513" width="6" height="57" fill="url(#lgradient43)" stroke="#808080" stroke-width="2.00"/>
<rect shape-type="rectangle" x="247" y="514" width="6" height="56" fill="url(#lgradient44)" stroke="#808080" stroke-width="2.00"/>
<rect shape-type="rectangle" x="266" y="513" width="5" height="57" fill="url(#lgradient45)" stroke="#808080" stroke-width="2.00"/>
<text font-family="宋体" text-anchor="start" fill="#000000" shape-type="text" id="" font-size="13.250000" font-weight="bold" x="189" y="546">E307</text>
<rect shape-type="roundRectangle" rx="20" ry="20" x="745" y="421" width="127" height="51" fill="url(#lgradient47)" stroke="#808080" stroke-width="2.00"/>
<rect shape-type="rectangle" x="743" y="416" width="9" height="60" fill="url(#lgradient48)" stroke="#808080" stroke-width="2.00"/>
<rect shape-type="rectangle" x="778" y="416" width="9" height="60" fill="url(#lgradient49)" stroke="#808080" stroke-width="2.00"/>
<g shape-type="group">
<path shape-type="chord" d="M 589,561 A 12,21 0 0,0 569,561 z" fill="#C0C0C0" stroke="#C0C0C0" stroke-width="2.00"/>
<g shape-type="group">
<polygon shape-type="trapezium" points="568,567 568,577 577,572 577,572 568,567" fill="#C0C0C0" stroke="#C0C0C0" stroke-width="1.00"/>
<polygon shape-type="trapezium" points="588,567 588,577 577,572 577,572 588,567" fill="#C0C0C0" stroke="#C0C0C0" stroke-width="1.00"/>
</g>
<line shape-type="limitline" x1="578" y1="560" x2="577" y2="569" fill="#00FFFF" stroke="#C0C0C0" stroke-width="1.00"/>
<polygon shape-type="trapezium" points="581,563 574,563 578,573 578,573 581,563" fill="#C0C0C0" stroke="#C0C0C0" stroke-width="1.00"/>
</g>
<polygon shape-type="trapezium" points="17,393 17,383 5,388 5,388 17,393" fill="#4AFF00" stroke="#4AFF00" stroke-width="2.00"/>
<g shape-type="group">
<path shape-type="chord" d="M 900,126 A 12,21 0 0,0 880,126 z" fill="#C0C0C0" stroke="#C0C0C0" stroke-width="2.00"/>
<g shape-type="group">
<polygon shape-type="trapezium" points="879,131 879,143 889,137 889,137 879,131" fill="#C0C0C0" stroke="#C0C0C0" stroke-width="1.00"/>
<polygon shape-type="trapezium" points="899,131 899,143 889,137 889,137 899,131" fill="#C0C0C0" stroke="#C0C0C0" stroke-width="1.00"/>
</g>
<line shape-type="limitline" x1="890" y1="125" x2="889" y2="133" fill="#00FFFF" stroke="#C0C0C0" stroke-width="1.00"/>
<polygon shape-type="trapezium" points="893,128 885,128 889,137 889,137 893,128" fill="#C0C0C0" stroke="#C0C0C0" stroke-width="1.00"/>
</g>
<g shape-type="group">
<path shape-type="chord" d="M 826,297 A 12,22 0 0,0 806,297 z" fill="#C0C0C0" stroke="#C0C0C0" stroke-width="2.00"/>
<g shape-type="group">
<polygon shape-type="trapezium" points="805,303 805,313 815,308 815,308 805,303" fill="#C0C0C0" stroke="#C0C0C0" stroke-width="1.00"/>
<polygon shape-type="trapezium" points="825,303 825,313 815,308 815,308 825,303" fill="#C0C0C0" stroke="#C0C0C0" stroke-width="1.00"/>
</g>
<line shape-type="limitline" x1="816" y1="297" x2="815" y2="305" fill="#00FFFF" stroke="#C0C0C0" stroke-width="1.00"/>
<polygon shape-type="trapezium" points="819,300 811,300 815,309 815,309 819,300" fill="#C0C0C0" stroke="#C0C0C0" stroke-width="1.00"/>
</g>
<g shape-type="group">
<polygon shape-type="trapezium" points="13,489 13,473 28,481 28,481 13,489" fill="#808080" stroke="#808080" stroke-width="2.00"/>
<rect shape-type="rectangle" x="2" y="477" width="11" height="8" fill="#808080" stroke="#808080" stroke-width="2.00"/>
</g>
<g shape-type="group">
<polygon shape-type="trapezium" points="1035,214 1035,198 1051,206 1051,206 1035,214" fill="#808080" stroke="#808080" stroke-width="2.00"/>
<rect shape-type="rectangle" x="1025" y="202" width="11" height="8" fill="#808080" stroke="#808080" stroke-width="2.00"/>
</g>
<g shape-type="group">
<polygon shape-type="trapezium" points="1038,582 1038,564 1053,573 1053,573 1038,582" fill="#808080" stroke="#808080" stroke-width="2.00"/>
<rect shape-type="rectangle" x="1027" y="569" width="12" height="8" fill="#808080" stroke="#808080" stroke-width="2.00"/>
</g>
<g shape-type="group">
<polygon shape-type="trapezium" points="1036,625 1036,608 1052,616 1052,616 1036,625" fill="#808080" stroke="#808080" stroke-width="2.00"/>
<rect shape-type="rectangle" x="1026" y="612" width="12" height="9" fill="#808080" stroke="#808080" stroke-width="2.00"/>
</g>
<polygon shape-type="trapezium" points="433,300 433,290 421,295 421,295 433,300" fill="#4AFF00" stroke="#4AFF00" stroke-width="2.00"/>
<polygon shape-type="trapezium" points="331,361 331,351 343,356 343,356 331,361" fill="#00FFFF" stroke="#00FFFF" stroke-width="2.00"/>
<polygon shape-type="trapezium" points="1038,380 1038,370 1050,375 1050,375 1038,380" fill="#4AFF00" stroke="#4AFF00" stroke-width="2.00"/>
<polygon shape-type="trapezium" points="1038,142 1038,132 1050,137 1050,137 1038,142" fill="#00FFFF" stroke="#00FFFF" stroke-width="2.00"/>
<polygon shape-type="trapezium" points="805,388 815,388 810,376 810,376 805,388" fill="#4AFF00" stroke="#4AFF00" stroke-width="2.00"/>
<polygon shape-type="trapezium" points="834,482 844,482 839,470 839,470 834,482" fill="#4AFF00" stroke="#4AFF00" stroke-width="2.00"/>
<polygon shape-type="trapezium" points="759,408 769,408 764,420 764,420 759,408" fill="#4AFF00" stroke="#4AFF00" stroke-width="2.00"/>
<polygon shape-type="trapezium" points="759,485 769,485 764,497 764,497 759,485" fill="#4AFF00" stroke="#4AFF00" stroke-width="2.00"/>
<polygon shape-type="trapezium" points="197,400 207,400 202,388 202,388 197,400" fill="#4AFF00" stroke="#4AFF00" stroke-width="2.00"/>
<polygon shape-type="trapezium" points="101,368 111,368 106,356 106,356 101,368" fill="#00FFFF" stroke="#00FFFF" stroke-width="2.00"/>
<polygon shape-type="trapezium" points="221,575 231,575 226,563 226,563 221,575" fill="#4AFF00" stroke="#4AFF00" stroke-width="2.00"/>
<polygon shape-type="trapezium" points="379,559 389,559 384,571 384,571 379,559" fill="#4AFF00" stroke="#4AFF00" stroke-width="2.00"/>
<polygon shape-type="trapezium" points="151,594 161,594 156,606 156,606 151,594" fill="#00FFFF" stroke="#00FFFF" stroke-width="2.00"/>
<rect shape-type="rectangle" x="526" y="172" width="61" height="26" fill="#4A494A" stroke="#C0C0C0" stroke-width="3.00"/>
<rect shape-type="rectangle" x="587" y="172" width="36" height="26" fill="#4A494A" stroke="#C0C0C0" stroke-width="3.00"/>
<text font-family="宋体" text-anchor="start" fill="#00FF42" shape-type="text" id="" font-size="10.250000" font-weight="bold" x="589" y="188">DEG_C</text>
<rect shape-type="rectangle" x="535" y="320" width="61" height="26" fill="#4A494A" stroke="#C0C0C0" stroke-width="3.00"/>
<rect shape-type="rectangle" x="596" y="320" width="36" height="26" fill="#4A494A" stroke="#C0C0C0" stroke-width="3.00"/>
<text font-family="宋体" text-anchor="start" fill="#00FF42" shape-type="text" id="" font-size="10.250000" font-weight="bold" x="598" y="336">DEG_C</text>
<rect shape-type="rectangle" x="729" y="69" width="96" height="25" fill="#7B7D7B" stroke="#C0C0C0" stroke-width="3.00"/>
<rect shape-type="rectangle" x="729" y="94" width="54" height="25" fill="#4A494A" stroke="#C0C0C0" stroke-width="3.00"/>
<text font-family="宋体" text-anchor="start" fill="#FFFFFF" shape-type="text" id="" font-size="11.000000" font-weight="bold" x="749" y="85">PC23002</text>
<rect shape-type="rectangle" x="783" y="94" width="42" height="25" fill="#4A494A" stroke="#C0C0C0" stroke-width="3.00"/>
<text font-family="宋体" text-anchor="start" fill="#00FF42" shape-type="text" id="" font-size="10.250000" font-weight="bold" x="785" y="110">MPa(g)</text>
<rect shape-type="rectangle" x="430" y="397" width="96" height="25" fill="#7B7D7B" stroke="#C0C0C0" stroke-width="3.00"/>
<rect shape-type="rectangle" x="430" y="422" width="54" height="25" fill="#4A494A" stroke="#C0C0C0" stroke-width="3.00"/>
<text font-family="宋体" text-anchor="start" fill="#FFFFFF" shape-type="text" id="" font-size="11.000000" font-weight="bold" x="450" y="413">LC23004</text>
<rect shape-type="rectangle" x="484" y="422" width="42" height="25" fill="#4A494A" stroke="#C0C0C0" stroke-width="3.00"/>
<text font-family="宋体" text-anchor="start" fill="#00FF42" shape-type="text" id="" font-size="10.250000" font-weight="bold" x="503" y="438">%</text>
<rect shape-type="rectangle" x="873" y="226" width="96" height="25" fill="#7B7D7B" stroke="#C0C0C0" stroke-width="3.00"/>
<rect shape-type="rectangle" x="873" y="251" width="54" height="25" fill="#4A494A" stroke="#C0C0C0" stroke-width="3.00"/>
<text font-family="宋体" text-anchor="start" fill="#FFFFFF" shape-type="text" id="" font-size="11.000000" font-weight="bold" x="893" y="242">FC23002</text>
<rect shape-type="rectangle" x="927" y="251" width="42" height="25" fill="#4A494A" stroke="#C0C0C0" stroke-width="3.00"/>
<text font-family="宋体" text-anchor="start" fill="#00FF42" shape-type="text" id="" font-size="10.250000" font-weight="bold" x="939" y="267">t/h</text>
<text font-family="宋体" text-anchor="start" fill="#FFFFFF" shape-type="text" id="" font-size="14.750000" x="3" y="372">CW</text>
<text font-family="宋体" text-anchor="start" fill="#FFFFFF" shape-type="text" id="" font-size="14.750000" x="0" y="461">V303</text>
<text font-family="宋体" text-anchor="start" fill="#FFFFFF" shape-type="text" id="" font-size="14.750000" x="1003" y="124">FLARE</text>
<text font-family="宋体" text-anchor="start" fill="#FFFFFF" shape-type="text" id="" font-size="14.750000" x="1009" y="187">E401</text>
<text font-family="宋体" text-anchor="start" fill="#FFFFFF" shape-type="text" id="" font-size="14.750000" x="1018" y="300">BFW</text>
<text font-family="宋体" text-anchor="start" fill="#FFFFFF" shape-type="text" id="" font-size="14.750000" x="1020" y="362">CW</text>
<text font-family="宋体" text-anchor="start" fill="#FFFFFF" shape-type="text" id="" font-size="14.750000" x="1023" y="502">CW</text>
<text font-family="宋体" text-anchor="start" fill="#FFFFFF" shape-type="text" id="" font-size="14.750000" x="1003" y="551">C1101</text>
<text font-family="宋体" text-anchor="start" fill="#FFFFFF" shape-type="text" id="" font-size="14.750000" x="1006" y="599">V3213</text>
<text font-family="宋体" text-anchor="start" fill="#FFFFFF" shape-type="text" id="" font-size="14.750000" x="1023" y="682">CW</text>
<text font-family="宋体" text-anchor="start" fill="#000000" shape-type="text" id="" font-size="13.250000" font-weight="bold" x="797" y="451">E308</text>
<text font-family="宋体" text-anchor="start" fill="#000000" shape-type="text" id="" font-size="13.250000" font-weight="bold" x="368" y="309">V304</text>
<rect shape-type="rectangle" x="0" y="736" width="1068" height="63" fill="#BDBABD" stroke="#BDBABD" stroke-width="1.00"/>
<g shape-type="group">
<rect shape-type="rectangle" x="996" y="748" width="48" height="43" fill="#C6C3C6" stroke="#C6C3C6" stroke-width="1.00"/>
<polygon shape-type="trapezium" points="1013,779 1013,759 1031,769 1031,769 1013,779" fill="#4A494A" stroke="#C6C3C6" stroke-width="2.00"/>
</g>
<g shape-type="group">
<rect shape-type="rectangle" x="11" y="748" width="48" height="39" fill="#C6C3C6" stroke="#C6C3C6" stroke-width="1.00"/>
<polygon shape-type="trapezium" points="40,776 40,756 21,766 21,766 40,776" fill="#4A494A" stroke="#C6C3C6" stroke-width="2.00"/>
</g>
<text font-family="Arial" text-anchor="start" fill="#00FFFF" shape-type="realdata" id="HCAB_JH_TI23018" font-size="12.500000" x="532" y="187">XXXX</text>
<text font-family="Arial" text-anchor="start" fill="#00FFFF" shape-type="realdata" id="HCAB_JH_TI23019" font-size="12.500000" x="541" y="337">XXXX</text>
<text font-family="Arial" text-anchor="start" fill="#00FFFF" shape-type="realdata" id="HCAB_JH_LC23004" font-size="12.500000" x="435" y="438">XXXX</text>
<text font-family="Arial" text-anchor="start" fill="#00FFFF" shape-type="realdata" id="HCAB_JH_PC23002" font-size="12.500000" x="733" y="110">XXXX</text>
<text font-family="Arial" text-anchor="start" fill="#00FFFF" shape-type="realdata" id="HCAB_JH_FC23002" font-size="12.500000" x="879" y="266">XXXX</text>
<a xlink:href="m301.svg">
<g shape-type="button">
<rect fill="#C0C0C0" stroke-width="0.3" stroke="#FFFFFF" x="77" y="745" width="92" height="42" shape-type="buttonrect"/>
<text font-family="宋体" text-anchor="middle" dominant-baseline="middle" fill="#000000" font-size="13.500000" x="123" y="772" shape-type="buttontext">R301-R302</text>
</g>
</a>
<a xlink:href="M303.svg">
<g shape-type="button">
<rect fill="#C0C0C0" stroke-width="0.3" stroke="#FFFFFF" x="292" y="745" width="176" height="42" shape-type="buttonrect"/>
<text font-family="宋体" text-anchor="middle" dominant-baseline="middle" fill="#000000" font-size="13.500000" x="380" y="772" shape-type="buttontext">CONDENSATE RECOVERY</text>
</g>
</a>
<a xlink:href="M304.svg">
<g shape-type="button">
<rect fill="#C0C0C0" stroke-width="0.3" stroke="#FFFFFF" x="481" y="745" width="92" height="42" shape-type="buttonrect"/>
<text font-family="宋体" text-anchor="middle" dominant-baseline="middle" fill="#000000" font-size="13.500000" x="527" y="772" shape-type="buttontext">F301</text>
</g>
</a>
<a xlink:href="M302.svg">
<g shape-type="button">
<rect fill="#C0C0C0" stroke-width="0.3" stroke="#FFFFFF" x="183" y="745" width="92" height="42" shape-type="buttonrect"/>
<text font-family="宋体" text-anchor="middle" dominant-baseline="middle" fill="#000000" font-size="13.500000" x="229" y="772" shape-type="buttontext">E301-E302</text>
</g>
</a>
<a xlink:href="300_ML.svg">
<g shape-type="button">
<rect fill="#C0C0C0" stroke-width="0.3" stroke="#FFFFFF" x="952" y="8" width="98" height="34" shape-type="buttonrect"/>
<text font-family="宋体" text-anchor="middle" dominant-baseline="middle" fill="#800000" font-size="13.500000" font-weight="bold" x="1001" y="31" shape-type="buttontext">返回上一级</text>
</g>
</a>
</svg>
