<?xml version="1.0" encoding="UTF-8"?>
<svg height="100%" width="100%" viewBox="0 0 64000 32000" version="1.1" xmlns="http://www.w3.org/2000/svg" xmlns:xlink="http://www.w3.org/1999/xlink" xmlns:PB="urn:osisoft-com-pb" xmlns:PBI="urn:osisoft-com-interface" xmlns:PBD="urn:osisoft-com-data" style="background-color:#C0C0C0">
  <title>slsh_35</title>
  <defs>
    <PBD:TagUses tag="\\RTDBB\160_PIC_52601_PV">
      <PBI:Symbol name="DATAPOINT19" PB:Type="7" />
    </PBD:TagUses>
    <PBD:TagUses tag="\\RTDBB\160_AT_52001C1">
      <PBI:Symbol name="DATAPOINT20" PB:Type="7" />
    </PBD:TagUses>
    <PBD:TagUses tag="\\RTDBB\160_AT_52001A1">
      <PBI:Symbol name="DATAPOINT21" PB:Type="7" />
    </PBD:TagUses>
    <PBD:TagUses tag="\\RTDBB\160_AT_52001B1">
      <PBI:Symbol name="DATAPOINT22" PB:Type="7" />
    </PBD:TagUses>
    <PBD:TagUses tag="\\RTDBB\160_AT_52001E1">
      <PBI:Symbol name="DATAPOINT23" PB:Type="7" />
    </PBD:TagUses>
    <PBD:TagUses tag="\\RTDBB\160_AT_52001D1">
      <PBI:Symbol name="DATAPOINT24" PB:Type="7" />
    </PBD:TagUses>
    <PBD:TagUses tag="\\RTDBB\160_AT_52001F1">
      <PBI:Symbol name="DATAPOINT25" PB:Type="7" />
    </PBD:TagUses>
    <PBD:TagUses tag="\\RTDBB\160_AT_52001G1">
      <PBI:Symbol name="DATAPOINT26" PB:Type="7" />
    </PBD:TagUses>
    <PBD:TagUses tag="\\RTDBB\160_AT_52001H1">
      <PBI:Symbol name="DATAPOINT27" PB:Type="7" />
    </PBD:TagUses>
    <PBD:TagUses tag="\\RTDBB\160_AT_52001K1">
      <PBI:Symbol name="DATAPOINT28" PB:Type="7" />
    </PBD:TagUses>
    <PBD:TagUses tag="\\RTDBB\160_AT_52001I1">
      <PBI:Symbol name="DATAPOINT29" PB:Type="7" />
    </PBD:TagUses>
    <PBD:TagUses tag="\\RTDBB\160_AT_52001J1">
      <PBI:Symbol name="DATAPOINT30" PB:Type="7" />
    </PBD:TagUses>
    <PBD:TagUses tag="\\RTDBB\160_PIC_50223_PV">
      <PBI:Symbol name="DATAPOINT31" PB:Type="7" />
    </PBD:TagUses>
    <PBD:TagUses tag="\\RTDBB\160_PIC_50224_PV">
      <PBI:Symbol name="DATAPOINT33" PB:Type="7" />
    </PBD:TagUses>
    <PBD:TagUses tag="\\RTDBB\160_PIC_50226_PV">
      <PBI:Symbol name="DATAPOINT34" PB:Type="7" />
    </PBD:TagUses>
    <PBD:TagUses tag="\\RTDBB\160_PIC_50224_OUT">
      <PBI:Symbol name="DATAPOINT35" PB:Type="7" />
    </PBD:TagUses>
    <PBD:TagUses tag="\\RTDBB\160_FIC_50209_PV">
      <PBI:Symbol name="DATAPOINT37" PB:Type="7" />
    </PBD:TagUses>
    <PBD:TagUses tag="\\RTDBB\160_FIC_50209_OUT">
      <PBI:Symbol name="DATAPOINT38" PB:Type="7" />
    </PBD:TagUses>
    <PBD:TagUses tag="\\RTDBB\160_PDT_50225">
      <PBI:Symbol name="DATAPOINT39" PB:Type="7" />
    </PBD:TagUses>
    <PBD:TagUses tag="\\RTDBB\160_PIC_50226_OUT">
      <PBI:Symbol name="DATAPOINT40" PB:Type="7" />
    </PBD:TagUses>
    <PBD:TagUses tag="\\RTDBB\160_LT_50211">
      <PBI:Symbol name="DATAPOINT117" PB:Type="7" />
    </PBD:TagUses>
  </defs>
  <g id="TEXT378">
    <rect x="26680" y="22740" width="3060" height="660" stroke-width="0" fill="#C0C0C0" id="TEXT378_pbTextBoundingRectEl" />
    <text fill="#000000" font-family="Helvetica" font-size="560" text-anchor="middle" x="28210" y="23350" id="TEXT378_pbTextEl">%</text>
  </g>
  <g id="TEXT379">
    <rect x="25160" y="12200" width="3060" height="760" stroke-width="0" fill="#C0C0C0" id="TEXT379_pbTextBoundingRectEl" />
    <text fill="#000000" font-family="Helvetica" font-size="560" text-anchor="middle" x="26690" y="12860" id="TEXT379_pbTextEl">kg/h</text>
  </g>
  <g id="TEXT380">
    <rect x="16500" y="12320" width="2640" height="620" stroke-width="0" fill="#C0C0C0" id="TEXT380_pbTextBoundingRectEl" />
    <text fill="#000000" font-family="Helvetica" font-size="560" text-anchor="middle" x="17820" y="12910" id="TEXT380_pbTextEl">KPa</text>
  </g>
  <g id="TEXT381">
    <rect x="25200" y="15480" width="2640" height="620" stroke-width="0" fill="#C0C0C0" id="TEXT381_pbTextBoundingRectEl" />
    <text fill="#000000" font-family="Helvetica" font-size="560" text-anchor="middle" x="26520" y="16070" id="TEXT381_pbTextEl">KPa</text>
  </g>
  <g id="TEXT382">
    <rect x="37420" y="15420" width="2640" height="580" stroke-width="0" fill="#C0C0C0" id="TEXT382_pbTextBoundingRectEl" />
    <text fill="#000000" font-family="Helvetica" font-size="560" text-anchor="middle" x="38740" y="15990" id="TEXT382_pbTextEl">MPaG</text>
  </g>
  <g id="TEXT383">
    <rect x="37420" y="15380" width="2640" height="620" stroke-width="0" fill="#C0C0C0" id="TEXT383_pbTextBoundingRectEl" />
    <text fill="#000000" font-family="Helvetica" font-size="560" text-anchor="middle" x="38740" y="15970" id="TEXT383_pbTextEl">KPa</text>
  </g>
  <g id="TEXT384">
    <rect x="56360" y="16460" width="2640" height="620" stroke-width="0" fill="#C0C0C0" id="TEXT384_pbTextBoundingRectEl" />
    <text fill="#000000" font-family="Helvetica" font-size="560" text-anchor="middle" x="57680" y="17050" id="TEXT384_pbTextEl">KPa</text>
  </g>
  <g id="TEXT385">
    <rect x="41600" y="13520" width="2780" height="660" stroke-width="0" fill="#C0C0C0" id="TEXT385_pbTextBoundingRectEl" />
    <text fill="#000000" font-family="Helvetica" font-size="560" text-anchor="middle" x="42990" y="14130" id="TEXT385_pbTextEl">Kpa</text>
  </g>
  <g id="TEXT386">
    <rect x="53180" y="16440" width="3060" height="660" stroke-width="0" fill="#C0C0C0" id="TEXT386_pbTextBoundingRectEl" />
    <text fill="#000000" font-family="Helvetica" font-size="560" text-anchor="middle" x="54710" y="17050" id="TEXT386_pbTextEl">P</text>
  </g>
  <g id="TEXT387">
    <rect x="34120" y="15300" width="3060" height="660" stroke-width="0" fill="#C0C0C0" id="TEXT387_pbTextBoundingRectEl" />
    <text fill="#000000" font-family="Helvetica" font-size="560" text-anchor="middle" x="35650" y="15910" id="TEXT387_pbTextEl">P</text>
  </g>
  <g id="TEXT388">
    <rect x="22120" y="12260" width="3060" height="660" stroke-width="0" fill="#C0C0C0" id="TEXT388_pbTextBoundingRectEl" />
    <text fill="#000000" font-family="Helvetica" font-size="560" text-anchor="middle" x="23650" y="12870" id="TEXT388_pbTextEl">P</text>
  </g>
  <g id="TEXT389">
    <rect x="13380" y="12340" width="3060" height="660" stroke-width="0" fill="#C0C0C0" id="TEXT389_pbTextBoundingRectEl" />
    <text fill="#000000" font-family="Helvetica" font-size="560" text-anchor="middle" x="14910" y="12950" id="TEXT389_pbTextEl">P</text>
  </g>
  <path id="LINE145" d="M 61740 18780 l 1060 -120" stroke="#000000" stroke-width="20" fill="none" />
  <path id="LINE146" d="M 21200 14400 l 0 6040" stroke="#000000" stroke-width="20" stroke-dasharray="60,60" fill="none" />
  <path id="LINE147" d="M 25220 16340 l 0 3960" stroke="#000000" stroke-width="20" stroke-dasharray="60,60" fill="none" />
  <path id="LINE148" d="M 18740 12120 l 1920 0" stroke="#000000" stroke-width="20" fill="none" />
  <path id="LINE149" d="M 1220 20340 l 28620 0" stroke="#000000" stroke-width="40" fill="none" />
  <path id="LINE150" d="M 61260 18680 l -27520 120" stroke="#000000" stroke-width="40" fill="none" />
  <path d="M 30160 23700 l 0 120 0 0 0 140 0 0 0 0 0 240 0 0 0 0 140 0 0 240 280 0 0 0 0 120 0 0 160 0 0 140 0 0 560 0 0 0 0 0 0 0 280 0 0 0 160 120 0 0 0 0 140 0 280 0 0 0 0 0 420 0 0 0 160 0 140 0 0 0 300 0 120 0 0 0 0 0 440 0 0 -120 0 0 280 0 160 0 0 0 0 0 260 0 0 0 0 -140 0 0 0 0 0 -120 440 0 0 0 0 -240 140 0 0 0 0 0 0 -240 0 0 0 0 0 -140 0 0 0 -120 0 -6540 0 0 0 -120 0 0 0 -260 0 0 0 0 0 0 0 0 -140 -240 0 0 0 0 -440 0 0 0 0 -140 0 0 0 0 0 -120 -260 0 0 0 0 0 -160 -240 -280 0 0 0 0 0 -440 0 0 0 0 0 -120 0 -300 0 0 0 -140 0 -160 0 0 0 -420 0 0 0 0 0 -280 0 -140 0 0 0 0 0 -160 0 0 0 -280 0 0 240 0 0 0 0 -560 0 0 120 0 0 -160 0 0 140 0 0 0 0 -280 0 0 0 -140 240 0 0 0 0 0 0 0 0 0 260 0 0 0 120 0 0 0 6540 0 0" stroke-width="0" fill="#666666" />
  <path d="M 30160 23700 l 0 0 0 120 0 0 0 140 0 0 0 0 0 240 0 0 0 0 140 0 0 240 280 0 0 0 0 120 0 0 160 0 0 140 0 0 560 0 0 0 0 0 0 0 280 0 0 0 160 120 0 0 0 0 140 0 280 0 0 0 0 0 420 0 0 0 0 0 160 0 140 0 0 0 300 0 120 0 0 0 0 0 440 0 0 -120 0 0 280 0 160 0 0 0 0 0 260 0 0 0 0 -140 0 0 0 0 0 -120 440 0 0 0 0 -240 140 0 0 0 0 0 0 -240 0 0 0 0 0 -140 0 0 0 -120 0 -6540 0 0 0 0 0 -120 0 0 0 -260 0 0 0 0 0 0 0 0 -140 -240 0 0 0 0 -440 0 0 0 0 -140 0 0 0 0 0 -120 -260 0 0 0 0 0 -160 -240 -280 0 0 0 0 0 -440 0 0 0 0 0 -120 0 -300 0 0 0 -140 0 -160 0 0 0 0 0 -420 0 0 0 0 0 -280 0 -140 0 0 0 0 0 -160 0 0 0 -280 0 0 240 0 0 0 0 -560 0 0 120 0 0 -160 0 0 140 0 0 0 0 -280 0 0 0 -140 240 0 0 0 0 0 0 0 0 0 260 0 0 0 120 0 0 0 6540" stroke="#000000" stroke-width="20" fill="none" />
  <path d="M 32580 16040 l 1020 0 840 360 440 380 140 380 0 6420 -140 620 -440 360 -840 140 -1020 0 -700 0 -1140 -140 -160 -360 -280 -620 0 -6420 280 -380 160 -380 1140 -360 700 0 0 0" stroke-width="0" fill="#787878" />
  <path d="M 32580 16040 l 720 0 880 360 260 380 0 380 0 6540 0 500 -260 500 -880 120 -720 0 -840 0 -440 -120 -720 -500 0 -500 0 -6540 0 -380 720 -380 440 -360 840 0 0 0" stroke-width="0" fill="#7A7A7A" />
  <path d="M 32580 16040 l 720 0 720 360 420 380 0 380 0 6540 0 500 -420 500 -720 120 -720 0 -700 0 -580 -120 -560 -500 0 -500 0 -6540 0 -380 560 -380 580 -360 700 0 0 0" stroke-width="0" fill="#858585" />
  <path d="M 32580 16040 l 720 0 440 360 440 380 260 380 0 6540 -260 500 -440 500 -440 120 -720 0 -700 0 -300 -120 -280 -500 -560 -500 0 -6540 560 -380 280 -380 300 -360 700 0 0 0" stroke-width="0" fill="#969696" />
  <path d="M 32580 16040 l 600 0 560 360 440 380 0 380 0 6540 0 500 -440 500 -560 120 -600 0 -420 0 -580 -120 -280 -500 0 -500 0 -6540 0 -380 280 -380 580 -360 420 0 0 0" stroke-width="0" fill="#A3A3A3" />
  <path d="M 32580 16040 l 600 0 120 360 440 380 280 380 0 6540 -280 500 -440 500 -120 120 -600 0 -420 0 -420 -120 -160 -500 -280 -500 0 -6540 280 -380 160 -380 420 -360 420 0 0 0" stroke-width="0" fill="#ADADAD" />
  <path d="M 32580 16040 l 300 0 420 360 440 380 0 380 0 6540 0 500 -440 500 -420 120 -300 0 -420 0 -420 -120 0 -500 -160 -500 0 -6540 160 -380 0 -380 420 -360 420 0 0 0" stroke-width="0" fill="#B4B4B4" />
  <path d="M 32580 16040 l 300 0 420 360 0 380 0 380 0 6540 0 500 0 500 -420 120 -300 0 -420 0 -280 -120 -140 -500 0 -500 0 -6540 0 -380 140 -380 280 -360 420 0 0 0" stroke-width="0" fill="#C2C2C2" />
  <path d="M 32580 16040 l 300 0 300 360 120 380 0 380 0 6540 0 500 -120 500 -300 120 -300 0 -420 0 0 -120 0 -500 -280 -500 0 -6540 280 -380 0 -380 0 -360 420 0 0 0" stroke-width="0" fill="#D2D2D2" />
  <path d="M 32580 16040 l 160 0 140 360 0 380 0 380 0 6540 0 500 0 500 -140 120 -160 0 0 0 -420 -120 0 -500 0 -500 0 -6540 0 -380 0 -380 420 -360 0 0 0 0" stroke-width="0" fill="#DBDBDB" />
  <path d="M 32580 16040 l 160 0 0 360 140 380 0 380 0 6540 0 500 -140 500 0 120 -160 0 0 0 0 -120 0 -500 -420 -500 0 -6540 420 -380 0 -380 0 -360 0 0 0 0" stroke-width="0" fill="#DEDEDE" />
  <path d="M 30160 17160 l 4860 0" stroke="#000000" stroke-width="20" fill="none" />
  <path d="M 30160 23700 l 4860 0" stroke="#000000" stroke-width="20" fill="none" />
  <path id="LINE200" d="M 31020 16360 l 0 -1200" stroke="#000000" stroke-width="20" stroke-dasharray="60,60" fill="none" />
  <path id="LINE201" d="M 31080 15300 l -3680 0" stroke="#000000" stroke-width="20" stroke-dasharray="60,60" fill="none" />
  <path id="LINE202" d="M 21180 14400 l 0 -1580" stroke="#000000" stroke-width="20" fill="none" />
  <path id="LINE203" d="M 20640 11500 l 0 1380" stroke="#000000" stroke-width="20" fill="none" />
  <path id="LINE204" d="M 20640 12820 l 1280 0" stroke="#000000" stroke-width="20" fill="none" />
  <path id="LINE205" d="M 21920 11460 l 0 1360" stroke="#000000" stroke-width="20" fill="none" />
  <path id="LINE206" d="M 20640 11480 l 1340 0" stroke="#000000" stroke-width="20" fill="none" />
  <path id="LINE208" d="M 20620 12100 l 60 0 60 0 0 40 40 0 20 20 60 0 80 60" stroke="#000000" stroke-width="20" fill="none" />
  <path id="LINE209" d="M 20860 12200 l 140 20 0 100 60 20 20 40 60 60 0 40 0 120 40 80 0 80 0 40 0 80" stroke="#000000" stroke-width="20" fill="none" />
  <path id="LINE238" d="M 25240 14180 l 0 -1060" stroke="#000000" stroke-width="20" stroke-dasharray="60,60" fill="none" />
  <path id="LINE239" d="M 21920 12140 l 1220 0" stroke="#000000" stroke-width="20" fill="none" />
  <path id="LINE240" d="M 34160 16360 l 0 -1300" stroke="#000000" stroke-width="20" stroke-dasharray="60,60" fill="none" />
  <path id="LINE241" d="M 35320 15180 l -1200 0" stroke="#000000" stroke-width="20" stroke-dasharray="60,60" fill="none" />
  <path id="LINE242" d="M 37440 16240 l 40 5320" stroke="#000000" stroke-width="20" stroke-dasharray="60,60" fill="none" />
  <path id="LINE243" d="M 37560 21500 l 6420 0" stroke="#000000" stroke-width="20" stroke-dasharray="60,60" fill="none" />
  <path id="LINE244" d="M 44000 18780 l 0 5520" stroke="#FF8000" stroke-width="20" fill="none" />
  <path id="LINE245" d="M 61600 24300 l -17600 0" stroke="#FF8000" stroke-width="20" fill="none" />
  <path id="LINE246" d="M 61400 8300 l -14000 -40" stroke="#FFFF00" stroke-width="20" fill="none" />
  <path id="LINE247" d="M 47500 8380 l 0 10320" stroke="#FFFF00" stroke-width="20" fill="none" />
  <path id="LINE248" d="M 61440 13720 l -13940 0" stroke="#FF8000" stroke-width="20" fill="none" />
  <path id="LINE249" d="M 47600 16280 l 6740 0" stroke="#000000" stroke-width="20" stroke-dasharray="60,60" fill="none" />
  <path id="LINE250" d="M 56400 17300 l 0 1480" stroke="#000000" stroke-width="20" stroke-dasharray="60,60" fill="none" />
  <g id="BUTTON3">
    <rect x="49380" y="9300" width="3420" height="1300" stroke-width="40" stroke="#000000" fill="#C0C0C0" id="BUTTON3_pbButtonRectEl" />
    <path d="M 49380 10600 v -1300 h 3420" stroke-width="40" stroke="#EFEFEF" fill="none" id="BUTTON3_pbButtone3dEl" />
    <path d="M 49380 10600 h 3420 v -1300" stroke-width="40" stroke="#393939" fill="none" id="BUTTON3_pbButtone3dE2" />
    <text fill="#000000" font-family="Helvetica" font-size="560" text-anchor="middle" x="51090" y="10230" id="BUTTON3_pbTextEl">自动</text>
  </g>
  <g id="BUTTON4">
    <rect x="49380" y="11180" width="3420" height="1300" stroke-width="40" stroke="#000000" fill="#00FF00" id="BUTTON4_pbButtonRectEl" />
    <path d="M 49380 12480 v -1300 h 3420" stroke-width="40" stroke="#EFEFEF" fill="none" id="BUTTON4_pbButtone3dEl" />
    <path d="M 49380 12480 h 3420 v -1300" stroke-width="40" stroke="#393939" fill="none" id="BUTTON4_pbButtone3dE2" />
    <text fill="#000000" font-family="Helvetica" font-size="560" text-anchor="middle" x="51090" y="12110" id="BUTTON4_pbTextEl">切除</text>
  </g>
  <path id="LINE251" d="M 47440 10360 l -5480 0" stroke="#000000" stroke-width="20" stroke-dasharray="60,60" fill="none" />
  <path id="LINE252" d="M 47220 10360 l -5100 0" stroke="#000000" stroke-width="20" stroke-dasharray="60,60" fill="none" />
  <path id="LINE253" d="M 47440 17560 l -5560 60" stroke="#000000" stroke-width="20" stroke-dasharray="60,60" fill="none" />
  <path id="LINE254" d="M 41960 10440 l 0 7280" stroke="#000000" stroke-width="20" stroke-dasharray="60,60" fill="none" />
  <g id="TEXT390">
    <rect x="30620" y="19220" width="3720" height="2100" stroke-width="0" fill="none" id="TEXT390_pbTextBoundingRectEl" />
    <text fill="#000000" font-family="Helvetica" font-size="560" text-anchor="middle" x="32480" y="20550" id="TEXT390_pbTextEl">D-5060</text>
  </g>
  <path id="LINE255" d="M 30140 20860 l 780 0" stroke="#000000" stroke-width="20" fill="none" />
  <path id="LINE256" d="M 30920 20860 l 0 2820" stroke="#000000" stroke-width="20" fill="none" />
  <path d="M 48060 11880 l -600 0 0 -140 600 0 0 140 0 0" stroke-width="0" fill="#808080" />
  <path d="M 48060 11880 l -600 0 0 -140 600 0 0 140 0 0" stroke-width="0" fill="#B4B4B4" />
  <path d="M 48060 11880 l -600 0 0 -140 600 0 0 140 0 0" stroke-width="0" fill="#DEDEDE" />
  <path d="M 48060 11740 l -600 0 0 0 600 0 0 0 0 0" stroke-width="0" fill="#FFFFFF" />
  <path d="M 48060 11740 l -600 0" stroke="#000000" stroke-width="20" fill="none" />
  <path d="M 47460 11880 l 600 0" stroke="#000000" stroke-width="20" fill="none" />
  <path d="M 47220 11100 l 540 0 -560 1360 560 0 -540 -1360 0 0" stroke-width="0" fill="#808080" />
  <path d="M 47220 11100 l 540 0 -560 1360 560 0 -540 -1360 0 0" stroke-width="0" fill="#969696" />
  <path d="M 47300 11100 l 340 0 -360 1360 360 0 -340 -1360 0 0" stroke-width="0" fill="#B4B4B4" />
  <path d="M 47340 11100 l 240 0 -260 1360 240 0 -220 -1360 0 0" stroke-width="0" fill="#D2D2D2" />
  <path d="M 47340 11100 l 240 0 -260 1360 240 0 -220 -1360 0 0" stroke-width="0" fill="#DEDEDE" />
  <path d="M 47460 11100 l 80 0 -100 1360 80 0 -60 -1360 0 0" stroke-width="0" fill="#FFFFFF" />
  <path d="M 47220 11100 l 540 0 -560 1360 560 0 -540 -1360" stroke="#000000" stroke-width="20" fill="none" />
  <path d="M 48360 11340 l 0 960 -300 0 20 -960 280 0 0 0" stroke-width="0" fill="#00B400" />
  <path d="M 48360 11340 l 0 960 -300 0 20 -960 280 0" stroke="#000000" stroke-width="20" fill="none" />
  <path d="M 54600 13060 l 0 720 -120 0 0 -720 120 0 0 0" stroke-width="0" fill="#808080" />
  <path d="M 54600 13060 l 0 720 -120 0 0 -720 120 0 0 0" stroke-width="0" fill="#B4B4B4" />
  <path d="M 54600 13060 l 0 720 -120 0 0 -720 120 0 0 0" stroke-width="0" fill="#DEDEDE" />
  <path d="M 54480 13060 l 0 720 0 0 0 -720 0 0 0 0" stroke-width="0" fill="#FFFFFF" />
  <path d="M 54480 13060 l 0 720" stroke="#000000" stroke-width="20" fill="none" />
  <path d="M 54600 13780 l 0 -720" stroke="#000000" stroke-width="20" fill="none" />
  <path d="M 53940 14040 l 0 -620 1240 620 -40 -620 -1200 620 0 0" stroke-width="0" fill="#808080" />
  <path d="M 53940 14040 l 0 -620 1240 620 -40 -620 -1200 620 0 0" stroke-width="0" fill="#969696" />
  <path d="M 53940 13980 l 0 -420 1240 400 -40 -400 -1200 420 0 0" stroke-width="0" fill="#B4B4B4" />
  <path d="M 53940 13900 l 0 -280 1240 280 -40 -280 -1200 280 0 0" stroke-width="0" fill="#D2D2D2" />
  <path d="M 53940 13900 l 0 -280 1240 280 -40 -280 -1200 280 0 0" stroke-width="0" fill="#DEDEDE" />
  <path d="M 53940 13780 l 0 -80 1240 80 0 -80 -1240 80 0 0" stroke-width="0" fill="#FFFFFF" />
  <path d="M 53940 14040 l 0 -620 1240 620 -40 -620 -1200 620" stroke="#000000" stroke-width="20" fill="none" />
  <path d="M 54080 12740 l 900 0 20 320 -920 20 0 -340 0 0" stroke-width="0" fill="#00B400" />
  <path d="M 54080 12740 l 900 0 20 320 -920 20 0 -340" stroke="#000000" stroke-width="20" fill="none" />
  <g id="TEXT391">
    <rect x="43880" y="11500" width="3080" height="640" stroke-width="0" fill="#C0C0C0" id="TEXT391_pbTextBoundingRectEl" />
    <text fill="#000000" font-family="Helvetica" font-size="560" text-anchor="middle" x="45420" y="12100" id="TEXT391_pbTextEl">KV50201A</text>
  </g>
  <g id="TEXT392">
    <rect x="44020" y="15960" width="3280" height="740" stroke-width="0" fill="#C0C0C0" id="TEXT392_pbTextBoundingRectEl" />
    <text fill="#000000" font-family="Helvetica" font-size="560" text-anchor="middle" x="45660" y="16610" id="TEXT392_pbTextEl">PV50226</text>
  </g>
  <g id="TEXT393">
    <rect x="52720" y="14280" width="3280" height="700" stroke-width="0" fill="#C0C0C0" id="TEXT393_pbTextBoundingRectEl" />
    <text fill="#000000" font-family="Helvetica" font-size="560" text-anchor="middle" x="54360" y="14910" id="TEXT393_pbTextEl">KV50201B</text>
  </g>
  <g id="TEXT394">
    <rect x="15220" y="11300" width="3460" height="660" stroke-width="0" fill="#C0C0C0" id="TEXT394_pbTextBoundingRectEl" />
    <text fill="#000000" font-family="Helvetica" font-size="560" text-anchor="middle" x="16950" y="11910" id="TEXT394_pbTextEl">PIC52601</text>
  </g>
  <path id="LINE298" d="M 14500 11140 l 4240 0" stroke="#000000" stroke-width="20" fill="none" />
  <path id="LINE299" d="M 14500 11160 l 0 1960" stroke="#000000" stroke-width="20" fill="none" />
  <path id="LINE300" d="M 14460 13080 l 4280 0" stroke="#000000" stroke-width="20" fill="none" />
  <path id="LINE301" d="M 18720 11160 l 0 1920" stroke="#000000" stroke-width="20" fill="none" />
  <path id="LINE302" d="M 14520 12140 l 4180 0" stroke="#000000" stroke-width="20" fill="none" />
  <path id="POLYGON302" d="M 61400 8320 l 780 200 0 -100 700 20 0 -200 0 0 -700 0 0 -100 -780 180 0 0" stroke="#FFFF00" stroke-width="20" fill="#DEDEDE" />
  <path id="POLYGON303" d="M 62920 13700 l -760 -200 0 80 -720 0 0 200 0 0 720 0 0 80 760 -160 0 0" stroke="#FF8000" stroke-width="20" fill="#FF8000" />
  <path id="POLYGON304" d="M 62920 24280 l -760 -200 0 80 -720 0 0 200 0 0 720 0 0 80 760 -160 0 0" stroke="#FF8000" stroke-width="20" fill="#FF8000" />
  <path id="POLYGON305" d="M 62860 18720 l -820 -240 0 140 -800 -20 0 220 0 0 800 20 0 120 820 -240 0 0" stroke="#000000" stroke-width="20" fill="#000000" />
  <path id="POLYGON306" d="M 2240 20300 l -860 -200 0 100 -820 0 0 200 0 0 820 0 0 100 860 -200 0 0" stroke="#000000" stroke-width="20" fill="#000000" />
  <path id="LINE306" d="M 47480 18680 l 200 -340 -340 20 140 320" stroke="#FFFF00" stroke-width="20" fill="#FFFF00" />
  <rect x="2520" y="6020" width="9180" height="11800" stroke="#000000" stroke-width="20" fill="#C0C0C0" id="RECTANGLE2" />
  <g id="TEXT396">
    <rect x="23960" y="11300" width="3060" height="660" stroke-width="0" fill="#C0C0C0" id="TEXT396_pbTextBoundingRectEl" />
    <text fill="#000000" font-family="Helvetica" font-size="560" text-anchor="middle" x="25490" y="11910" id="TEXT396_pbTextEl">FIC50209</text>
  </g>
  <path id="LINE312" d="M 23140 11160 l 4240 0" stroke="#000000" stroke-width="20" fill="none" />
  <path id="LINE313" d="M 23140 11180 l 0 1940" stroke="#000000" stroke-width="20" fill="none" />
  <path id="LINE314" d="M 23100 13080 l 4280 0" stroke="#000000" stroke-width="20" fill="none" />
  <path id="LINE315" d="M 27360 11180 l 0 1900" stroke="#000000" stroke-width="20" fill="none" />
  <path id="LINE316" d="M 23160 12140 l 4180 0" stroke="#000000" stroke-width="20" fill="none" />
  <g id="TEXT398">
    <rect x="24000" y="14420" width="3060" height="660" stroke-width="0" fill="#C0C0C0" id="TEXT398_pbTextBoundingRectEl" />
    <text fill="#000000" font-family="Helvetica" font-size="560" text-anchor="middle" x="25530" y="15030" id="TEXT398_pbTextEl">PIC50223</text>
  </g>
  <path id="LINE317" d="M 23180 14280 l 4240 0" stroke="#000000" stroke-width="20" fill="none" />
  <path id="LINE318" d="M 23180 14300 l 0 1940" stroke="#000000" stroke-width="20" fill="none" />
  <path id="LINE319" d="M 23140 16200 l 4280 0" stroke="#000000" stroke-width="20" fill="none" />
  <path id="LINE320" d="M 27420 14300 l 0 1900" stroke="#000000" stroke-width="20" fill="none" />
  <path id="LINE321" d="M 23200 15260 l 4200 0" stroke="#000000" stroke-width="20" fill="none" />
  <g id="TEXT400">
    <rect x="36200" y="14360" width="3060" height="660" stroke-width="0" fill="#C0C0C0" id="TEXT400_pbTextBoundingRectEl" />
    <text fill="#000000" font-family="Helvetica" font-size="560" text-anchor="middle" x="37730" y="14970" id="TEXT400_pbTextEl">PIC50224</text>
  </g>
  <path id="LINE323" d="M 35360 14220 l 4240 0" stroke="#000000" stroke-width="20" fill="none" />
  <path id="LINE324" d="M 35360 14240 l 0 1960" stroke="#000000" stroke-width="20" fill="none" />
  <path id="LINE325" d="M 35320 16160 l 4300 0" stroke="#000000" stroke-width="20" fill="none" />
  <path id="LINE326" d="M 39600 14240 l 0 1920" stroke="#000000" stroke-width="20" fill="none" />
  <path id="LINE327" d="M 35400 15200 l 4180 0" stroke="#000000" stroke-width="20" fill="none" />
  <g id="TEXT402">
    <rect x="55120" y="15440" width="3060" height="660" stroke-width="0" fill="#C0C0C0" id="TEXT402_pbTextBoundingRectEl" />
    <text fill="#000000" font-family="Helvetica" font-size="560" text-anchor="middle" x="56650" y="16050" id="TEXT402_pbTextEl">PIC50226</text>
  </g>
  <path id="LINE328" d="M 54300 15300 l 4240 0" stroke="#000000" stroke-width="20" fill="none" />
  <path id="LINE329" d="M 54300 15320 l 0 1960" stroke="#000000" stroke-width="20" fill="none" />
  <path id="LINE330" d="M 54260 17240 l 4280 0" stroke="#000000" stroke-width="20" fill="none" />
  <path id="LINE331" d="M 58520 15320 l 0 1920" stroke="#000000" stroke-width="20" fill="none" />
  <path id="LINE332" d="M 54320 16280 l 4180 0" stroke="#000000" stroke-width="20" fill="none" />
  <path id="LINE334" d="M 2640 6940 l 7460 -20" stroke="#000000" stroke-width="20" fill="none" />
  <path id="LINE335" d="M 2640 7940 l 7460 0" stroke="#000000" stroke-width="20" fill="none" />
  <path id="LINE336" d="M 2640 8940 l 7500 0" stroke="#000000" stroke-width="20" fill="none" />
  <path id="LINE337" d="M 2640 10040 l 7500 0" stroke="#000000" stroke-width="20" fill="none" />
  <path id="LINE338" d="M 2660 11120 l 7440 0" stroke="#000000" stroke-width="20" fill="none" />
  <path id="LINE341" d="M 2660 12200 l 7420 0" stroke="#000000" stroke-width="20" fill="none" />
  <path id="LINE344" d="M 2640 13300 l 7420 0" stroke="#000000" stroke-width="20" fill="none" />
  <path id="LINE345" d="M 2640 14380 l 7400 0" stroke="#000000" stroke-width="20" fill="none" />
  <path id="LINE346" d="M 2660 15440 l 7440 0" stroke="#000000" stroke-width="20" fill="none" />
  <path id="LINE348" d="M 2660 16640 l 7480 -20" stroke="#000000" stroke-width="20" fill="none" />
  <g id="TEXT404">
    <rect x="3120" y="6160" width="3060" height="660" stroke-width="0" fill="#C0C0C0" id="TEXT404_pbTextBoundingRectEl" />
    <text fill="#000000" font-family="Helvetica" font-size="560" text-anchor="end" x="6180" y="6770" id="TEXT404_pbTextEl">N2</text>
  </g>
  <g id="TEXT405">
    <rect x="3080" y="7140" width="3060" height="660" stroke-width="0" fill="#C0C0C0" id="TEXT405_pbTextBoundingRectEl" />
    <text fill="#000000" font-family="Helvetica" font-size="560" text-anchor="end" x="6140" y="7750" id="TEXT405_pbTextEl">H2</text>
  </g>
  <g id="TEXT406">
    <rect x="3120" y="8160" width="3060" height="660" stroke-width="0" fill="#C0C0C0" id="TEXT406_pbTextBoundingRectEl" />
    <text fill="#000000" font-family="Helvetica" font-size="560" text-anchor="end" x="6180" y="8770" id="TEXT406_pbTextEl">CH4</text>
  </g>
  <g id="TEXT407">
    <rect x="3120" y="9140" width="3060" height="660" stroke-width="0" fill="#C0C0C0" id="TEXT407_pbTextBoundingRectEl" />
    <text fill="#000000" font-family="Helvetica" font-size="560" text-anchor="end" x="6180" y="9750" id="TEXT407_pbTextEl">C2H6</text>
  </g>
  <g id="TEXT408">
    <rect x="3120" y="10280" width="3060" height="660" stroke-width="0" fill="#C0C0C0" id="TEXT408_pbTextBoundingRectEl" />
    <text fill="#000000" font-family="Helvetica" font-size="560" text-anchor="end" x="6180" y="10890" id="TEXT408_pbTextEl">C2H4</text>
  </g>
  <g id="TEXT409">
    <rect x="3100" y="11360" width="3060" height="660" stroke-width="0" fill="#C0C0C0" id="TEXT409_pbTextBoundingRectEl" />
    <text fill="#000000" font-family="Helvetica" font-size="560" text-anchor="end" x="6160" y="11970" id="TEXT409_pbTextEl">1-C4H8</text>
  </g>
  <g id="TEXT410">
    <rect x="3100" y="12400" width="3060" height="660" stroke-width="0" fill="#C0C0C0" id="TEXT410_pbTextBoundingRectEl" />
    <text fill="#000000" font-family="Helvetica" font-size="560" text-anchor="end" x="6160" y="13010" id="TEXT410_pbTextEl">C4H10</text>
  </g>
  <g id="TEXT411">
    <rect x="3120" y="13480" width="3060" height="660" stroke-width="0" fill="#C0C0C0" id="TEXT411_pbTextBoundingRectEl" />
    <text fill="#000000" font-family="Helvetica" font-size="560" text-anchor="end" x="6180" y="14090" id="TEXT411_pbTextEl">异戊烷</text>
  </g>
  <g id="TEXT412">
    <rect x="3120" y="14540" width="3060" height="660" stroke-width="0" fill="#C0C0C0" id="TEXT412_pbTextBoundingRectEl" />
    <text fill="#000000" font-family="Helvetica" font-size="560" text-anchor="end" x="6180" y="15150" id="TEXT412_pbTextEl">正戊烷</text>
  </g>
  <g id="TEXT413">
    <rect x="3120" y="15720" width="3060" height="660" stroke-width="0" fill="#C0C0C0" id="TEXT413_pbTextBoundingRectEl" />
    <text fill="#000000" font-family="Helvetica" font-size="560" text-anchor="end" x="6180" y="16330" id="TEXT413_pbTextEl">1-C6H12</text>
  </g>
  <g id="TEXT414">
    <rect x="640" y="19140" width="5860" height="620" stroke-width="0" fill="#C0C0C0" id="TEXT414_pbTextBoundingRectEl" />
    <text fill="#000000" font-family="Helvetica" font-size="560" text-anchor="start" x="640" y="19730" id="TEXT414_pbTextEl">输送气自E5050-2X</text>
  </g>
  <path id="LINE349" d="M 6340 17820 l 0 2460" stroke="#000000" stroke-width="20" stroke-dasharray="60,60" fill="none" />
  <g id="BUTTON5">
    <rect x="6900" y="18380" width="3180" height="1100" stroke-width="40" stroke="#000000" fill="#C0C0C0" id="BUTTON5_pbButtonRectEl" />
    <path d="M 6900 19480 v -1100 h 3180" stroke-width="40" stroke="#EFEFEF" fill="none" id="BUTTON5_pbButtone3dEl" />
    <path d="M 6900 19480 h 3180 v -1100" stroke-width="40" stroke="#393939" fill="none" id="BUTTON5_pbButtone3dE2" />
    <text fill="#000000" font-family="Helvetica" font-size="560" text-anchor="middle" x="8490" y="19210" id="BUTTON5_pbTextEl">AP52001-1</text>
  </g>
  <g id="TEXT415">
    <rect x="59180" y="17520" width="4460" height="620" stroke-width="0" fill="#C0C0C0" id="TEXT415_pbTextBoundingRectEl" />
    <text fill="#000000" font-family="Helvetica" font-size="560" text-anchor="middle" x="61410" y="18110" id="TEXT415_pbTextEl">输送气至PDS</text>
  </g>
  <g id="TEXT416">
    <rect x="59580" y="7100" width="3460" height="620" stroke-width="0" fill="#C0C0C0" id="TEXT416_pbTextBoundingRectEl" />
    <text fill="#000000" font-family="Helvetica" font-size="560" text-anchor="end" x="63040" y="7690" id="TEXT416_pbTextEl">PN</text>
  </g>
  <g id="TEXT417">
    <rect x="59500" y="12420" width="3460" height="620" stroke-width="0" fill="#C0C0C0" id="TEXT417_pbTextBoundingRectEl" />
    <text fill="#000000" font-family="Helvetica" font-size="560" text-anchor="end" x="62960" y="13010" id="TEXT417_pbTextEl">BDH</text>
  </g>
  <g id="TEXT418">
    <rect x="59660" y="23120" width="3460" height="620" stroke-width="0" fill="#C0C0C0" id="TEXT418_pbTextBoundingRectEl" />
    <text fill="#000000" font-family="Helvetica" font-size="560" text-anchor="end" x="63120" y="23710" id="TEXT418_pbTextEl">BDH</text>
  </g>
  <g id="TEXT419">
    <rect x="19660" y="21440" width="3060" height="660" stroke-width="0" fill="#C0C0C0" id="TEXT419_pbTextBoundingRectEl" />
    <text fill="#000000" font-family="Helvetica" font-size="560" text-anchor="middle" x="21190" y="22050" id="TEXT419_pbTextEl">FV50209</text>
  </g>
  <path id="LINE350" d="M 28040 22380 l 2120 0" stroke="#000000" stroke-width="20" stroke-dasharray="60,60" fill="none" />
  <g id="TEXT420">
    <rect x="25340" y="22060" width="3060" height="720" stroke-width="0" fill="#C0C0C0" id="TEXT420_pbTextBoundingRectEl" />
    <text fill="#000000" font-family="Helvetica" font-size="560" text-anchor="end" x="28400" y="22700" id="TEXT420_pbTextEl">LI50211</text>
  </g>
  <g id="TEXT423">
    <rect x="40460" y="12880" width="3060" height="660" stroke-width="0" fill="#C0C0C0" id="TEXT423_pbTextBoundingRectEl" />
    <text fill="#000000" font-family="Helvetica" font-size="560" text-anchor="middle" x="41990" y="13490" id="TEXT423_pbTextEl">PDI50225</text>
  </g>
  <path id="ELLIPSE2" d="M 42260 9800 l -47 -13 -31 -14 -23 -13 -20 -13 -17 -14 -15 -13 -13 -13 -11 -14 -10 -13 -10 -13 -8 -14 -7 -13 -7 -13 -5 -14 -5 -13 -4 -13 -4 -14 -3 -13 -2 -13 -2 -14 -1 -13 -1 -13 0 -14 1 -13 1 -13 2 -14 2 -13 3 -13 4 -14 4 -13 5 -13 5 -14 7 -13 7 -13 8 -14 10 -13 10 -13 11 -14 13 -13 15 -13 17 -14 20 -13 23 -13 31 -14 47 -13 120 0 47 13 31 14 23 13 20 13 17 14 15 13 13 13 11 14 10 13 10 13 8 14 7 13 7 13 5 14 5 13 4 13 4 14 3 13 2 13 2 14 1 13 1 13 0 14 -1 13 -1 13 -2 14 -2 13 -3 13 -4 14 -4 13 -5 13 -5 14 -7 13 -7 13 -8 14 -10 13 -10 13 -11 14 -13 13 -15 13 -17 14 -20 13 -23 13 -31 14 -47 13 -120 0" stroke-width="0" fill="#FF0000" />
  <g id="TEXT425">
    <rect x="42640" y="9140" width="3620" height="640" stroke-width="0" fill="#C0C0C0" id="TEXT425_pbTextBoundingRectEl" />
    <text fill="#000000" font-family="Helvetica" font-size="560" text-anchor="middle" x="44450" y="9740" id="TEXT425_pbTextEl">PDAL50225</text>
  </g>
  <g id="TEXT427">
    <rect x="26000" y="500" width="12040" height="2280" stroke-width="0" fill="#C0C0C0" id="TEXT427_pbTextBoundingRectEl" />
    <text fill="#000000" font-family="Helvetica" font-size="800" font-weight="bold" text-anchor="middle" x="32020" y="2040" id="TEXT427_pbTextEl">排放气缓冲罐</text>
  </g>
  <g id="TEXT428">
    <rect x="44500" y="21200" width="3060" height="660" stroke-width="0" fill="#C0C0C0" id="TEXT428_pbTextBoundingRectEl" />
    <text fill="#000000" font-family="Helvetica" font-size="560" text-anchor="middle" x="46030" y="21810" id="TEXT428_pbTextEl">PV50224</text>
  </g>
  <g id="TEXT441">
    <rect x="2660" y="16880" width="3680" height="700" stroke-width="0" fill="#C0C0C0" id="TEXT441_pbTextBoundingRectEl" />
    <text fill="#000000" font-family="Helvetica" font-size="560" text-anchor="end" x="6340" y="17510" id="TEXT441_pbTextEl">惰性C6H14</text>
  </g>
  <g id="TEXT442">
    <rect x="15220" y="11300" width="3460" height="660" stroke-width="0" fill="#C0C0C0" id="TEXT442_pbTextBoundingRectEl" />
    <text fill="#000000" font-family="Helvetica" font-size="560" text-anchor="middle" x="16950" y="11910" id="TEXT442_pbTextEl">PIC52601</text>
  </g>
  <g id="TEXT443">
    <rect x="9900" y="6200" width="1480" height="640" stroke-width="0" fill="#C0C0C0" id="TEXT443_pbTextBoundingRectEl" />
    <text fill="#009600" font-family="Helvetica" font-size="560" text-anchor="middle" x="10640" y="6800" id="TEXT443_pbTextEl">mol%</text>
  </g>
  <g id="TEXT444">
    <rect x="9820" y="7140" width="1640" height="640" stroke-width="0" fill="#C0C0C0" id="TEXT444_pbTextBoundingRectEl" />
    <text fill="#009600" font-family="Helvetica" font-size="560" text-anchor="middle" x="10640" y="7740" id="TEXT444_pbTextEl">mol%</text>
  </g>
  <g id="TEXT445">
    <rect x="9840" y="8140" width="1640" height="640" stroke-width="0" fill="#C0C0C0" id="TEXT445_pbTextBoundingRectEl" />
    <text fill="#009600" font-family="Helvetica" font-size="560" text-anchor="middle" x="10660" y="8740" id="TEXT445_pbTextEl">mol%</text>
  </g>
  <g id="TEXT446">
    <rect x="9840" y="9160" width="1640" height="640" stroke-width="0" fill="#C0C0C0" id="TEXT446_pbTextBoundingRectEl" />
    <text fill="#009600" font-family="Helvetica" font-size="560" text-anchor="middle" x="10660" y="9760" id="TEXT446_pbTextEl">mol%</text>
  </g>
  <g id="TEXT447">
    <rect x="9840" y="10300" width="1640" height="640" stroke-width="0" fill="#C0C0C0" id="TEXT447_pbTextBoundingRectEl" />
    <text fill="#009600" font-family="Helvetica" font-size="560" text-anchor="middle" x="10660" y="10900" id="TEXT447_pbTextEl">mol%</text>
  </g>
  <g id="TEXT448">
    <rect x="9840" y="11340" width="1640" height="640" stroke-width="0" fill="#C0C0C0" id="TEXT448_pbTextBoundingRectEl" />
    <text fill="#009600" font-family="Helvetica" font-size="560" text-anchor="middle" x="10660" y="11940" id="TEXT448_pbTextEl">mol%</text>
  </g>
  <g id="TEXT449">
    <rect x="9860" y="12380" width="1640" height="640" stroke-width="0" fill="#C0C0C0" id="TEXT449_pbTextBoundingRectEl" />
    <text fill="#009600" font-family="Helvetica" font-size="560" text-anchor="middle" x="10680" y="12980" id="TEXT449_pbTextEl">mol%</text>
  </g>
  <g id="TEXT450">
    <rect x="9820" y="13500" width="1640" height="640" stroke-width="0" fill="#C0C0C0" id="TEXT450_pbTextBoundingRectEl" />
    <text fill="#009600" font-family="Helvetica" font-size="560" text-anchor="middle" x="10640" y="14100" id="TEXT450_pbTextEl">mol%</text>
  </g>
  <g id="TEXT451">
    <rect x="9820" y="14540" width="1640" height="640" stroke-width="0" fill="#C0C0C0" id="TEXT451_pbTextBoundingRectEl" />
    <text fill="#009600" font-family="Helvetica" font-size="560" text-anchor="middle" x="10640" y="15140" id="TEXT451_pbTextEl">mol%</text>
  </g>
  <g id="TEXT452">
    <rect x="9880" y="15660" width="1640" height="640" stroke-width="0" fill="#C0C0C0" id="TEXT452_pbTextBoundingRectEl" />
    <text fill="#009600" font-family="Helvetica" font-size="560" text-anchor="middle" x="10700" y="16260" id="TEXT452_pbTextEl">mol%</text>
  </g>
  <g id="TEXT453">
    <rect x="9880" y="16800" width="1640" height="640" stroke-width="0" fill="#C0C0C0" id="TEXT453_pbTextBoundingRectEl" />
    <text fill="#009600" font-family="Helvetica" font-size="560" text-anchor="middle" x="10700" y="17400" id="TEXT453_pbTextEl">mol%</text>
  </g>
  <path id="LINE351" d="M 10080 6920 l 1620 0" stroke="#000000" stroke-width="20" fill="none" />
  <path id="LINE352" d="M 10080 7940 l 1600 0" stroke="#000000" stroke-width="20" fill="none" />
  <path id="LINE353" d="M 10120 8940 l 1580 0" stroke="#000000" stroke-width="20" fill="none" />
  <path id="LINE355" d="M 10120 10040 l 1580 0" stroke="#000000" stroke-width="20" fill="none" />
  <path id="LINE356" d="M 10100 11120 l 1600 0" stroke="#000000" stroke-width="20" fill="none" />
  <path id="LINE357" d="M 10080 12220 l 1620 0" stroke="#000000" stroke-width="20" fill="none" />
  <path id="LINE358" d="M 10060 13300 l 1640 0" stroke="#000000" stroke-width="20" fill="none" />
  <path id="LINE359" d="M 10000 14380 l 1680 0" stroke="#000000" stroke-width="20" fill="none" />
  <path id="LINE360" d="M 10080 15440 l 1620 0" stroke="#000000" stroke-width="20" fill="none" />
  <path id="LINE361" d="M 10120 16620 l 1600 0" stroke="#000000" stroke-width="20" fill="none" />
  <path id="LINE362" d="M 2520 6920 l 280 20" stroke="#000000" stroke-width="20" fill="none" />
  <path id="LINE363" d="M 2660 7920 l -180 0" stroke="#000000" stroke-width="20" fill="none" />
  <path id="LINE364" d="M 2520 8920 l 140 0" stroke="#000000" stroke-width="20" fill="none" />
  <path id="LINE365" d="M 2540 10020 l 140 0" stroke="#000000" stroke-width="20" fill="none" />
  <path id="LINE366" d="M 2680 11140 l -140 -20" stroke="#000000" stroke-width="20" fill="none" />
  <path id="LINE367" d="M 2720 12200 l -180 20" stroke="#000000" stroke-width="20" fill="none" />
  <path id="LINE368" d="M 2700 13300 l -160 0" stroke="#000000" stroke-width="20" fill="none" />
  <path id="LINE369" d="M 2720 14380 l -220 0" stroke="#000000" stroke-width="20" fill="none" />
  <path id="LINE370" d="M 2780 15440 l -240 0" stroke="#000000" stroke-width="20" fill="none" />
  <path id="LINE371" d="M 2720 16660 l -200 0" stroke="#000000" stroke-width="20" fill="none" />
  <path id="LINE373" d="M 30180 20340 l -400 -340 40 600 360 -260" stroke="#000000" stroke-width="20" fill="#000000" />
  <path id="POLYGON1" d="M 7380 6080 l 0 11760" stroke="#000000" stroke-width="20" fill="none" />
  <g id="DATAPOINT19" PB:IsMultiState="False" PBD:PtTagName="\\RTDBB\160_PIC_52601_PV" PB:Type="7" PB:NumberFormat="0.00">
    <rect x="15500" y="12380" width="1140" height="520" stroke-width="0" fill="none" id="DATAPOINT19_pbTextBoundingRectEl" />
    <text fill="#000000" font-family="Helvetica" font-size="560" text-anchor="middle" x="16070" y="12920" id="DATAPOINT19_pbTextEl" PBD:Property="VAL">#.##</text>
  </g>
  <g id="DATAPOINT20" PB:IsMultiState="False" PBD:PtTagName="\\RTDBB\160_AT_52001C1" PB:Type="7" PB:NumberFormat="0.00">
    <rect x="7980" y="6140" width="1140" height="520" stroke-width="0" fill="none" id="DATAPOINT20_pbTextBoundingRectEl" />
    <text fill="#000000" font-family="Helvetica" font-size="560" text-anchor="middle" x="8550" y="6680" id="DATAPOINT20_pbTextEl" PBD:Property="VAL">#.##</text>
  </g>
  <g id="DATAPOINT21" PB:IsMultiState="False" PBD:PtTagName="\\RTDBB\160_AT_52001A1" PB:Type="7" PB:NumberFormat="0.00">
    <rect x="7980" y="7200" width="1140" height="520" stroke-width="0" fill="none" id="DATAPOINT21_pbTextBoundingRectEl" />
    <text fill="#000000" font-family="Helvetica" font-size="560" text-anchor="middle" x="8550" y="7740" id="DATAPOINT21_pbTextEl" PBD:Property="VAL">#.##</text>
  </g>
  <g id="DATAPOINT22" PB:IsMultiState="False" PBD:PtTagName="\\RTDBB\160_AT_52001B1" PB:Type="7" PB:NumberFormat="0.00">
    <rect x="7980" y="8280" width="1140" height="520" stroke-width="0" fill="none" id="DATAPOINT22_pbTextBoundingRectEl" />
    <text fill="#000000" font-family="Helvetica" font-size="560" text-anchor="middle" x="8550" y="8820" id="DATAPOINT22_pbTextEl" PBD:Property="VAL">#.##</text>
  </g>
  <g id="DATAPOINT23" PB:IsMultiState="False" PBD:PtTagName="\\RTDBB\160_AT_52001E1" PB:Type="7" PB:NumberFormat="0.00">
    <rect x="7980" y="9340" width="1140" height="520" stroke-width="0" fill="none" id="DATAPOINT23_pbTextBoundingRectEl" />
    <text fill="#000000" font-family="Helvetica" font-size="560" text-anchor="middle" x="8550" y="9880" id="DATAPOINT23_pbTextEl" PBD:Property="VAL">#.##</text>
  </g>
  <g id="DATAPOINT24" PB:IsMultiState="False" PBD:PtTagName="\\RTDBB\160_AT_52001D1" PB:Type="7" PB:NumberFormat="0.00">
    <rect x="7980" y="10460" width="1140" height="520" stroke-width="0" fill="none" id="DATAPOINT24_pbTextBoundingRectEl" />
    <text fill="#000000" font-family="Helvetica" font-size="560" text-anchor="middle" x="8550" y="11000" id="DATAPOINT24_pbTextEl" PBD:Property="VAL">#.##</text>
  </g>
  <g id="DATAPOINT25" PB:IsMultiState="False" PBD:PtTagName="\\RTDBB\160_AT_52001F1" PB:Type="7" PB:NumberFormat="0.00">
    <rect x="7980" y="11540" width="1140" height="520" stroke-width="0" fill="none" id="DATAPOINT25_pbTextBoundingRectEl" />
    <text fill="#000000" font-family="Helvetica" font-size="560" text-anchor="middle" x="8550" y="12080" id="DATAPOINT25_pbTextEl" PBD:Property="VAL">#.##</text>
  </g>
  <g id="DATAPOINT26" PB:IsMultiState="False" PBD:PtTagName="\\RTDBB\160_AT_52001G1" PB:Type="7" PB:NumberFormat="0.00">
    <rect x="7980" y="12640" width="1140" height="520" stroke-width="0" fill="none" id="DATAPOINT26_pbTextBoundingRectEl" />
    <text fill="#000000" font-family="Helvetica" font-size="560" text-anchor="middle" x="8550" y="13180" id="DATAPOINT26_pbTextEl" PBD:Property="VAL">#.##</text>
  </g>
  <g id="DATAPOINT27" PB:IsMultiState="False" PBD:PtTagName="\\RTDBB\160_AT_52001H1" PB:Type="7" PB:NumberFormat="0.00">
    <rect x="7980" y="13620" width="1140" height="520" stroke-width="0" fill="none" id="DATAPOINT27_pbTextBoundingRectEl" />
    <text fill="#000000" font-family="Helvetica" font-size="560" text-anchor="middle" x="8550" y="14160" id="DATAPOINT27_pbTextEl" PBD:Property="VAL">#.##</text>
  </g>
  <g id="DATAPOINT28" PB:IsMultiState="False" PBD:PtTagName="\\RTDBB\160_AT_52001K1" PB:Type="7" PB:NumberFormat="0.00">
    <rect x="7980" y="14700" width="1140" height="520" stroke-width="0" fill="none" id="DATAPOINT28_pbTextBoundingRectEl" />
    <text fill="#000000" font-family="Helvetica" font-size="560" text-anchor="middle" x="8550" y="15240" id="DATAPOINT28_pbTextEl" PBD:Property="VAL">#.##</text>
  </g>
  <g id="DATAPOINT29" PB:IsMultiState="False" PBD:PtTagName="\\RTDBB\160_AT_52001I1" PB:Type="7" PB:NumberFormat="0.00">
    <rect x="7980" y="15800" width="1140" height="520" stroke-width="0" fill="none" id="DATAPOINT29_pbTextBoundingRectEl" />
    <text fill="#000000" font-family="Helvetica" font-size="560" text-anchor="middle" x="8550" y="16340" id="DATAPOINT29_pbTextEl" PBD:Property="VAL">#.##</text>
  </g>
  <g id="DATAPOINT30" PB:IsMultiState="False" PBD:PtTagName="\\RTDBB\160_AT_52001J1" PB:Type="7" PB:NumberFormat="0.00">
    <rect x="7980" y="16840" width="1140" height="520" stroke-width="0" fill="none" id="DATAPOINT30_pbTextBoundingRectEl" />
    <text fill="#000000" font-family="Helvetica" font-size="560" text-anchor="middle" x="8550" y="17380" id="DATAPOINT30_pbTextEl" PBD:Property="VAL">#.##</text>
  </g>
  <g id="DATAPOINT31" PB:IsMultiState="False" PBD:PtTagName="\\RTDBB\160_PIC_50223_PV" PB:Type="7" PB:NumberFormat="0.00">
    <rect x="24140" y="15500" width="1140" height="520" stroke-width="0" fill="none" id="DATAPOINT31_pbTextBoundingRectEl" />
    <text fill="#000000" font-family="Helvetica" font-size="560" text-anchor="middle" x="24710" y="16040" id="DATAPOINT31_pbTextEl" PBD:Property="VAL">#.##</text>
  </g>
  <g id="DATAPOINT33" PB:IsMultiState="False" PBD:PtTagName="\\RTDBB\160_PIC_50224_PV" PB:Type="7" PB:NumberFormat="0.00">
    <rect x="36300" y="15400" width="1140" height="520" stroke-width="0" fill="none" id="DATAPOINT33_pbTextBoundingRectEl" />
    <text fill="#000000" font-family="Helvetica" font-size="560" text-anchor="middle" x="36870" y="15940" id="DATAPOINT33_pbTextEl" PBD:Property="VAL">#.##</text>
  </g>
  <g id="DATAPOINT34" PB:IsMultiState="False" PBD:PtTagName="\\RTDBB\160_PIC_50226_PV" PB:Type="7" PB:NumberFormat="0.00">
    <rect x="55340" y="16420" width="1140" height="520" stroke-width="0" fill="none" id="DATAPOINT34_pbTextBoundingRectEl" />
    <text fill="#000000" font-family="Helvetica" font-size="560" text-anchor="middle" x="55910" y="16960" id="DATAPOINT34_pbTextEl" PBD:Property="VAL">#.##</text>
  </g>
  <g id="DATAPOINT35" PB:IsMultiState="False" PBD:PtTagName="\\RTDBB\160_PIC_50224_OUT" PB:Type="7" PB:NumberFormat="0.00">
    <rect x="44600" y="21820" width="1140" height="520" stroke-width="0" fill="none" id="DATAPOINT35_pbTextBoundingRectEl" />
    <text fill="#000000" font-family="Helvetica" font-size="560" text-anchor="middle" x="45170" y="22360" id="DATAPOINT35_pbTextEl" PBD:Property="VAL">#.##</text>
  </g>
  <g id="DATAPOINT37" PB:IsMultiState="False" PBD:PtTagName="\\RTDBB\160_FIC_50209_PV" PB:Type="7" PB:NumberFormat="0.00">
    <rect x="24360" y="12380" width="1140" height="520" stroke-width="0" fill="none" id="DATAPOINT37_pbTextBoundingRectEl" />
    <text fill="#000000" font-family="Helvetica" font-size="560" text-anchor="middle" x="24930" y="12920" id="DATAPOINT37_pbTextEl" PBD:Property="VAL">#.##</text>
  </g>
  <g id="DATAPOINT38" PB:IsMultiState="False" PBD:PtTagName="\\RTDBB\160_FIC_50209_OUT" PB:Type="7" PB:NumberFormat="0.00">
    <rect x="20740" y="20740" width="1140" height="520" stroke-width="0" fill="none" id="DATAPOINT38_pbTextBoundingRectEl" />
    <text fill="#000000" font-family="Helvetica" font-size="560" text-anchor="middle" x="21310" y="21280" id="DATAPOINT38_pbTextEl" PBD:Property="VAL">#.##</text>
  </g>
  <g id="DATAPOINT39" PB:IsMultiState="False" PBD:PtTagName="\\RTDBB\160_PDT_50225" PB:Type="7" PB:NumberFormat="0.00">
    <rect x="40760" y="13640" width="1140" height="520" stroke-width="0" fill="none" id="DATAPOINT39_pbTextBoundingRectEl" />
    <text fill="#000000" font-family="Helvetica" font-size="560" text-anchor="middle" x="41330" y="14180" id="DATAPOINT39_pbTextEl" PBD:Property="VAL">#.##</text>
  </g>
  <g id="DATAPOINT40" PB:IsMultiState="False" PBD:PtTagName="\\RTDBB\160_PIC_50226_OUT" PB:Type="7" PB:NumberFormat="0.00">
    <rect x="45640" y="16700" width="1140" height="520" stroke-width="0" fill="none" id="DATAPOINT40_pbTextBoundingRectEl" />
    <text fill="#000000" font-family="Helvetica" font-size="560" text-anchor="middle" x="46210" y="17240" id="DATAPOINT40_pbTextEl" PBD:Property="VAL">#.##</text>
  </g>
  <g id="DATAPOINT117" PB:IsMultiState="False" PBD:PtTagName="\\RTDBB\160_LT_50211" PB:Type="7" PB:NumberFormat="0.00">
    <rect x="26120" y="22840" width="1140" height="520" stroke-width="0" fill="none" id="DATAPOINT117_pbTextBoundingRectEl" />
    <text fill="#000000" font-family="Helvetica" font-size="560" text-anchor="middle" x="26690" y="23380" id="DATAPOINT117_pbTextEl" PBD:Property="VAL">#.##</text>
  </g>
  <g name="Valve1">
    <path d="M 21236 19790 l -575 0 0 0 3 -45 11 -46 11 -45 17 -45 25 -39 29 -38 35 -36 39 -32 39 -29 47 -26 46 -23 50 -22 53 -16 53 -10 57 -6 60 -4 0 0 61 4 57 6 53 10 53 16 50 22 50 23 43 26 42 29 39 32 29 36 32 38 21 39 25 45 11 45 10 46 4 45 -580 0" stroke="#000000" stroke-width="20" fill="#00FF00" />
    <path d="M 20536 20619 l 0 -578 1411 578 0 -578 -1411 578" stroke="#000000" stroke-width="20" fill="#00FF00" />
    <path d="M 21236 20328 l 82 -32 0 -503 -156 0 0 503 82 32 -8 0" stroke="#000000" stroke-width="20" fill="#00FF00" />
  </g>
  <g name="Valve1">
    <path d="M 43648 21520 l -20 581 0 0 -32 -6 -30 -12 -32 -12 -30 -19 -26 -26 -26 -29 -24 -37 -21 -40 -18 -40 -17 -48 -14 -47 -14 -51 -9 -54 -5 -54 -2 -57 -1 -60 0 0 5 -61 6 -58 9 -54 13 -53 17 -50 18 -49 20 -43 21 -43 23 -38 26 -28 28 -31 28 -21 32 -24 32 -10 32 -9 32 -3 -21 586" stroke="#000000" stroke-width="20" fill="#00FF00" />
    <path d="M 44199 22246 l -401 -14 451 -1411 -402 -14 352 1439" stroke="#000000" stroke-width="20" fill="#00FF00" />
    <path d="M 44022 21532 l -20 -83 -349 -12 -5 157 349 12 25 -82 0 8" stroke="#000000" stroke-width="20" fill="#00FF00" />
  </g>
  <g name="Valve1">
    <path d="M 47873 16312 l -21 -605 0 0 32 3 33 10 31 11 33 17 29 25 28 29 26 37 24 40 22 40 19 48 18 48 18 51 13 56 9 56 7 60 4 62 0 0 0 64 -3 59 -5 56 -9 57 -14 53 -14 52 -16 46 -19 46 -21 41 -24 31 -26 34 -27 24 -31 27 -31 12 -32 12 -31 5 -22 -607" stroke="#000000" stroke-width="20" fill="#00FF00" />
    <path d="M 47265 15598 l 407 -15 -355 1495 406 -14 -458 -1466" stroke="#000000" stroke-width="20" fill="#00FF00" />
    <path d="M 47496 16324 l 24 85 354 -12 -5 -163 -354 12 -19 86 0 -8" stroke="#000000" stroke-width="20" fill="#00FF00" />
  </g>
</svg>