<svg xmlns="http://www.w3.org/2000/svg" xmlns:xlink="http://www.w3.org/1999/xlink" version="1.1" style="background-color:#7DB6C1" width="1062" height="669" viewbox="0 0 1062 669"><defs>
<linearGradient x1="0.000000%" y1="50.000000%" x2="100.000000%" y2="50.000000%" id="lgradient24_0">
<stop offset="0" stop-color="#2C2C2C" stop-opacity="1"/>
<stop offset="0.5" stop-color="#FFFFFF" stop-opacity="1"/>
<stop offset="1" stop-color="#2C2C2C" stop-opacity="1"/>
</linearGradient>
<linearGradient x1="0.000000%" y1="50.000000%" x2="100.000000%" y2="50.000000%" id="lgradient24_1">
<stop offset="0" stop-color="#2C2C2C" stop-opacity="1"/>
<stop offset="0.5" stop-color="#FFFFFF" stop-opacity="1"/>
<stop offset="1" stop-color="#2C2C2C" stop-opacity="1"/>
</linearGradient>
<linearGradient x1="0.000000%" y1="50.000000%" x2="100.000000%" y2="50.000000%" id="lgradient25_0">
<stop offset="0" stop-color="#2C2C2C" stop-opacity="1"/>
<stop offset="0.5" stop-color="#FFFFFF" stop-opacity="1"/>
<stop offset="1" stop-color="#2C2C2C" stop-opacity="1"/>
</linearGradient>
<linearGradient x1="0.000000%" y1="50.000000%" x2="100.000000%" y2="50.000000%" id="lgradient25_1">
<stop offset="0" stop-color="#2C2C2C" stop-opacity="1"/>
<stop offset="0.5" stop-color="#FFFFFF" stop-opacity="1"/>
<stop offset="1" stop-color="#2C2C2C" stop-opacity="1"/>
</linearGradient>
<linearGradient x1="0.000000%" y1="50.000000%" x2="100.000000%" y2="50.000000%" id="lgradient26_0">
<stop offset="0" stop-color="#2C2C2C" stop-opacity="1"/>
<stop offset="0.5" stop-color="#FFFFFF" stop-opacity="1"/>
<stop offset="1" stop-color="#2C2C2C" stop-opacity="1"/>
</linearGradient>
<linearGradient x1="0.000000%" y1="50.000000%" x2="100.000000%" y2="50.000000%" id="lgradient26_1">
<stop offset="0" stop-color="#2C2C2C" stop-opacity="1"/>
<stop offset="0.5" stop-color="#FFFFFF" stop-opacity="1"/>
<stop offset="1" stop-color="#2C2C2C" stop-opacity="1"/>
</linearGradient>
<radialGradient cx="50.000000%" cy="50.000000%" r="50.000000%" fx="50.000000%" fy="50.000000%" id="rgradient27_1">
<stop offset="0%" stop-color="#FFFFFF" stop-opacity="1"/>
<stop offset="100%" stop-color="#2C2C2C" stop-opacity="1"/>
</radialGradient>
<linearGradient x1="0.000000%" y1="50.000000%" x2="100.000000%" y2="50.000000%" id="lgradient27_2">
<stop offset="0" stop-color="#2C2C2C" stop-opacity="1"/>
<stop offset="0.5" stop-color="#FFFFFF" stop-opacity="1"/>
<stop offset="1" stop-color="#2C2C2C" stop-opacity="1"/>
</linearGradient>
<linearGradient x1="0.000000%" y1="50.000000%" x2="100.000000%" y2="50.000000%" id="lgradient27_3">
<stop offset="0" stop-color="#2C2C2C" stop-opacity="1"/>
<stop offset="0.5" stop-color="#FFFFFF" stop-opacity="1"/>
<stop offset="1" stop-color="#2C2C2C" stop-opacity="1"/>
</linearGradient>
<radialGradient cx="50.000000%" cy="50.000000%" r="50.000000%" fx="50.000000%" fy="50.000000%" id="rgradient28_1">
<stop offset="0%" stop-color="#FFFFFF" stop-opacity="1"/>
<stop offset="100%" stop-color="#2C2C2C" stop-opacity="1"/>
</radialGradient>
<linearGradient x1="0.000000%" y1="50.000000%" x2="100.000000%" y2="50.000000%" id="lgradient28_2">
<stop offset="0" stop-color="#2C2C2C" stop-opacity="1"/>
<stop offset="0.5" stop-color="#FFFFFF" stop-opacity="1"/>
<stop offset="1" stop-color="#2C2C2C" stop-opacity="1"/>
</linearGradient>
<linearGradient x1="0.000000%" y1="50.000000%" x2="100.000000%" y2="50.000000%" id="lgradient28_3">
<stop offset="0" stop-color="#2C2C2C" stop-opacity="1"/>
<stop offset="0.5" stop-color="#FFFFFF" stop-opacity="1"/>
<stop offset="1" stop-color="#2C2C2C" stop-opacity="1"/>
</linearGradient>
<linearGradient x1="0.000000%" y1="50.000000%" x2="100.000000%" y2="50.000000%" id="lgradient29_0">
<stop offset="0" stop-color="#2C2C2C" stop-opacity="1"/>
<stop offset="0.5" stop-color="#FFFFFF" stop-opacity="1"/>
<stop offset="1" stop-color="#2C2C2C" stop-opacity="1"/>
</linearGradient>
<linearGradient x1="0.000000%" y1="50.000000%" x2="100.000000%" y2="50.000000%" id="lgradient29_1">
<stop offset="0" stop-color="#2C2C2C" stop-opacity="1"/>
<stop offset="0.5" stop-color="#FFFFFF" stop-opacity="1"/>
<stop offset="1" stop-color="#2C2C2C" stop-opacity="1"/>
</linearGradient>
<linearGradient x1="0.000000%" y1="50.000000%" x2="100.000000%" y2="50.000000%" id="lgradient30_0">
<stop offset="0" stop-color="#2C2C2C" stop-opacity="1"/>
<stop offset="0.5" stop-color="#FFFFFF" stop-opacity="1"/>
<stop offset="1" stop-color="#2C2C2C" stop-opacity="1"/>
</linearGradient>
<linearGradient x1="0.000000%" y1="50.000000%" x2="100.000000%" y2="50.000000%" id="lgradient30_1">
<stop offset="0" stop-color="#2C2C2C" stop-opacity="1"/>
<stop offset="0.5" stop-color="#FFFFFF" stop-opacity="1"/>
<stop offset="1" stop-color="#2C2C2C" stop-opacity="1"/>
</linearGradient>
<linearGradient x1="0.000000%" y1="50.000000%" x2="100.000000%" y2="50.000000%" id="lgradient31_0">
<stop offset="0" stop-color="#2C2C2C" stop-opacity="1"/>
<stop offset="0.5" stop-color="#FFFFFF" stop-opacity="1"/>
<stop offset="1" stop-color="#2C2C2C" stop-opacity="1"/>
</linearGradient>
<linearGradient x1="0.000000%" y1="50.000000%" x2="100.000000%" y2="50.000000%" id="lgradient31_1">
<stop offset="0" stop-color="#2C2C2C" stop-opacity="1"/>
<stop offset="0.5" stop-color="#FFFFFF" stop-opacity="1"/>
<stop offset="1" stop-color="#2C2C2C" stop-opacity="1"/>
</linearGradient>
<linearGradient x1="50.000000%" y1="0.000000%" x2="50.000000%" y2="100.000000%" id="lgradient32_0">
<stop offset="0" stop-color="#2C2C2C" stop-opacity="1"/>
<stop offset="0.5" stop-color="#FFFFFF" stop-opacity="1"/>
<stop offset="1" stop-color="#2C2C2C" stop-opacity="1"/>
</linearGradient>
<linearGradient x1="50.000000%" y1="0.000000%" x2="50.000000%" y2="100.000000%" id="lgradient32_1">
<stop offset="0" stop-color="#2C2C2C" stop-opacity="1"/>
<stop offset="0.5" stop-color="#FFFFFF" stop-opacity="1"/>
<stop offset="1" stop-color="#2C2C2C" stop-opacity="1"/>
</linearGradient>
<linearGradient x1="50.000000%" y1="0.000000%" x2="50.000000%" y2="100.000000%" id="lgradient33_0">
<stop offset="0" stop-color="#2C2C2C" stop-opacity="1"/>
<stop offset="0.5" stop-color="#FFFFFF" stop-opacity="1"/>
<stop offset="1" stop-color="#2C2C2C" stop-opacity="1"/>
</linearGradient>
<linearGradient x1="50.000000%" y1="0.000000%" x2="50.000000%" y2="100.000000%" id="lgradient33_1">
<stop offset="0" stop-color="#2C2C2C" stop-opacity="1"/>
<stop offset="0.5" stop-color="#FFFFFF" stop-opacity="1"/>
<stop offset="1" stop-color="#2C2C2C" stop-opacity="1"/>
</linearGradient>
<linearGradient x1="50.000000%" y1="0.000000%" x2="50.000000%" y2="100.000000%" id="lgradient34_0">
<stop offset="0" stop-color="#2C2C2C" stop-opacity="1"/>
<stop offset="0.5" stop-color="#FFFFFF" stop-opacity="1"/>
<stop offset="1" stop-color="#2C2C2C" stop-opacity="1"/>
</linearGradient>
<linearGradient x1="50.000000%" y1="0.000000%" x2="50.000000%" y2="100.000000%" id="lgradient34_1">
<stop offset="0" stop-color="#2C2C2C" stop-opacity="1"/>
<stop offset="0.5" stop-color="#FFFFFF" stop-opacity="1"/>
<stop offset="1" stop-color="#2C2C2C" stop-opacity="1"/>
</linearGradient>
<linearGradient x1="50.000000%" y1="0.000000%" x2="50.000000%" y2="100.000000%" id="lgradient35_0">
<stop offset="0" stop-color="#2C2C2C" stop-opacity="1"/>
<stop offset="0.5" stop-color="#FFFFFF" stop-opacity="1"/>
<stop offset="1" stop-color="#2C2C2C" stop-opacity="1"/>
</linearGradient>
<linearGradient x1="50.000000%" y1="0.000000%" x2="50.000000%" y2="100.000000%" id="lgradient35_1">
<stop offset="0" stop-color="#2C2C2C" stop-opacity="1"/>
<stop offset="0.5" stop-color="#FFFFFF" stop-opacity="1"/>
<stop offset="1" stop-color="#2C2C2C" stop-opacity="1"/>
</linearGradient>
<linearGradient x1="50.000000%" y1="0.000000%" x2="50.000000%" y2="100.000000%" id="lgradient36_0">
<stop offset="0" stop-color="#2C2C2C" stop-opacity="1"/>
<stop offset="0.5" stop-color="#FFFFFF" stop-opacity="1"/>
<stop offset="1" stop-color="#2C2C2C" stop-opacity="1"/>
</linearGradient>
<linearGradient x1="50.000000%" y1="0.000000%" x2="50.000000%" y2="100.000000%" id="lgradient36_1">
<stop offset="0" stop-color="#2C2C2C" stop-opacity="1"/>
<stop offset="0.5" stop-color="#FFFFFF" stop-opacity="1"/>
<stop offset="1" stop-color="#2C2C2C" stop-opacity="1"/>
</linearGradient>
<linearGradient x1="50.000000%" y1="0.000000%" x2="50.000000%" y2="100.000000%" id="lgradient37_0">
<stop offset="0" stop-color="#2C2C2C" stop-opacity="1"/>
<stop offset="0.5" stop-color="#FFFFFF" stop-opacity="1"/>
<stop offset="1" stop-color="#2C2C2C" stop-opacity="1"/>
</linearGradient>
<linearGradient x1="50.000000%" y1="0.000000%" x2="50.000000%" y2="100.000000%" id="lgradient37_1">
<stop offset="0" stop-color="#2C2C2C" stop-opacity="1"/>
<stop offset="0.5" stop-color="#FFFFFF" stop-opacity="1"/>
<stop offset="1" stop-color="#2C2C2C" stop-opacity="1"/>
</linearGradient>
<linearGradient x1="50.000000%" y1="0.000000%" x2="50.000000%" y2="100.000000%" id="lgradient39_0">
<stop offset="0" stop-color="#2C2C2C" stop-opacity="1"/>
<stop offset="0.5" stop-color="#FFFFFF" stop-opacity="1"/>
<stop offset="1" stop-color="#2C2C2C" stop-opacity="1"/>
</linearGradient>
<linearGradient x1="50.000000%" y1="0.000000%" x2="50.000000%" y2="100.000000%" id="lgradient39_1">
<stop offset="0" stop-color="#2C2C2C" stop-opacity="1"/>
<stop offset="0.5" stop-color="#FFFFFF" stop-opacity="1"/>
<stop offset="1" stop-color="#2C2C2C" stop-opacity="1"/>
</linearGradient>
<linearGradient x1="50.000000%" y1="0.000000%" x2="50.000000%" y2="100.000000%" id="lgradient40_0">
<stop offset="0" stop-color="#2C2C2C" stop-opacity="1"/>
<stop offset="0.5" stop-color="#FFFFFF" stop-opacity="1"/>
<stop offset="1" stop-color="#2C2C2C" stop-opacity="1"/>
</linearGradient>
<linearGradient x1="50.000000%" y1="0.000000%" x2="50.000000%" y2="100.000000%" id="lgradient40_1">
<stop offset="0" stop-color="#2C2C2C" stop-opacity="1"/>
<stop offset="0.5" stop-color="#FFFFFF" stop-opacity="1"/>
<stop offset="1" stop-color="#2C2C2C" stop-opacity="1"/>
</linearGradient>
<linearGradient x1="50.000000%" y1="0.000000%" x2="50.000000%" y2="100.000000%" id="lgradient42_0">
<stop offset="0" stop-color="#2C2C2C" stop-opacity="1"/>
<stop offset="0.5" stop-color="#FFFFFF" stop-opacity="1"/>
<stop offset="1" stop-color="#2C2C2C" stop-opacity="1"/>
</linearGradient>
<linearGradient x1="50.000000%" y1="0.000000%" x2="50.000000%" y2="100.000000%" id="lgradient42_1">
<stop offset="0" stop-color="#2C2C2C" stop-opacity="1"/>
<stop offset="0.5" stop-color="#FFFFFF" stop-opacity="1"/>
<stop offset="1" stop-color="#2C2C2C" stop-opacity="1"/>
</linearGradient>
<linearGradient x1="50.000000%" y1="0.000000%" x2="50.000000%" y2="100.000000%" id="lgradient43_0">
<stop offset="0" stop-color="#2C2C2C" stop-opacity="1"/>
<stop offset="0.5" stop-color="#FFFFFF" stop-opacity="1"/>
<stop offset="1" stop-color="#2C2C2C" stop-opacity="1"/>
</linearGradient>
<linearGradient x1="50.000000%" y1="0.000000%" x2="50.000000%" y2="100.000000%" id="lgradient43_1">
<stop offset="0" stop-color="#2C2C2C" stop-opacity="1"/>
<stop offset="0.5" stop-color="#FFFFFF" stop-opacity="1"/>
<stop offset="1" stop-color="#2C2C2C" stop-opacity="1"/>
</linearGradient>
</defs>
<line shape-type="limitline" x1="512" y1="317" x2="512" y2="448" fill="#FFFFFF" stroke="#0000FF" stroke-width="3.00"/>
<line shape-type="limitline" x1="247" y1="251" x2="387" y2="251" fill="#FFFFFF" stroke="#0000FF" stroke-width="3.00"/>
<line shape-type="limitline" x1="249" y1="305" x2="389" y2="305" fill="#FFFFFF" stroke="#0000FF" stroke-width="3.00"/>
<g shape-type="group">
<rect shape-type="roundRectangle" rx="20" ry="20" x="376" y="229" width="269" height="95" fill="#00FFFF" stroke="#000000" stroke-width="1.00"/>
<rect shape-type="roundRectangle" rx="20" ry="20" x="376" y="229" width="269" height="95" fill="#FFFFFF" stroke="#C0C0C0" stroke-width="1.00"/>
<rect shape-type="roundRectangle" rx="20" ry="20" x="376" y="236" width="269" height="80" fill="#FFFFFF" stroke="#C0C0C0" stroke-width="1.00"/>
<rect shape-type="roundRectangle" rx="20" ry="20" x="376" y="242" width="269" height="64" fill="#FFFFFF" stroke="#C0C0C0" stroke-width="1.00"/>
<rect shape-type="roundRectangle" rx="20" ry="20" x="376" y="252" width="269" height="46" fill="#FFFFFF" stroke="#C0C0C0" stroke-width="1.00"/>
<rect shape-type="roundRectangle" rx="20" ry="20" x="376" y="261" width="269" height="27" fill="#FFFFFF" stroke="#C0C0C0" stroke-width="1.00"/>
<rect shape-type="roundRectangle" rx="20" ry="20" x="376" y="269" width="269" height="11" fill="#FFFFFF" stroke="#C0C0C0" stroke-width="1.00"/>
</g>
<line shape-type="limitline" x1="539" y1="175" x2="706" y2="175" fill="#FFFFFF" stroke="#FF0000" stroke-width="3.00"/>
<line shape-type="limitline" x1="255" y1="133" x2="469" y2="133" fill="#FFFFFF" stroke="#0000FF" stroke-width="3.00"/>
<g shape-type="group">
<rect shape-type="roundRectangle" rx="20" ry="20" x="467" y="91" width="83" height="155" fill="#00FFFF" stroke="#000000" stroke-width="1.00"/>
<rect shape-type="roundRectangle" rx="20" ry="20" x="467" y="91" width="83" height="155" fill="#FFFFFF" stroke="#C0C0C0" stroke-width="1.00"/>
<rect shape-type="roundRectangle" rx="20" ry="20" x="473" y="91" width="70" height="155" fill="#FFFFFF" stroke="#C0C0C0" stroke-width="1.00"/>
<rect shape-type="roundRectangle" rx="20" ry="20" x="481" y="91" width="57" height="155" fill="#FFFFFF" stroke="#C0C0C0" stroke-width="1.00"/>
<rect shape-type="roundRectangle" rx="20" ry="20" x="489" y="91" width="39" height="155" fill="#FFFFFF" stroke="#C0C0C0" stroke-width="1.00"/>
<rect shape-type="roundRectangle" rx="20" ry="20" x="497" y="91" width="23" height="155" fill="#FFFFFF" stroke="#C0C0C0" stroke-width="1.00"/>
<rect shape-type="roundRectangle" rx="20" ry="20" x="504" y="91" width="9" height="155" fill="#FFFFFF" stroke="#C0C0C0" stroke-width="1.00"/>
</g>
<line shape-type="limitline" x1="182" y1="20" x2="782" y2="20" fill="#FFFFFF" stroke="#FF0000" stroke-width="5.00"/>
<line shape-type="limitline" x1="186" y1="55" x2="400" y2="55" fill="#FFFFFF" stroke="#0000FF" stroke-width="5.00"/>
<line shape-type="limitline" x1="271" y1="162" x2="352" y2="162" fill="#FFFFFF" stroke="#0000FF" stroke-width="3.00"/>
<line shape-type="limitline" x1="255" y1="55" x2="255" y2="133" fill="#FFFFFF" stroke="#0000FF" stroke-width="3.00"/>
<line shape-type="limitline" x1="272" y1="132" x2="272" y2="161" fill="#FFFFFF" stroke="#0000FF" stroke-width="3.00"/>
<line shape-type="limitline" x1="352" y1="132" x2="352" y2="161" fill="#FFFFFF" stroke="#0000FF" stroke-width="3.00"/>
<rect shape-type="rectangle" x="207" y="232" width="44" height="103" stroke="#0000FF" stroke-width="1.00"/>
<line shape-type="limitline" x1="700" y1="367" x2="315" y2="367" fill="#FFFFFF" stroke="#0000FF" stroke-width="5.00"/>
<line shape-type="limitline" x1="589" y1="208" x2="669" y2="208" fill="#FFFFFF" stroke="#FF0000" stroke-width="3.00"/>
<line shape-type="limitline" x1="590" y1="174" x2="590" y2="208" fill="#FFFFFF" stroke="#FF0000" stroke-width="3.00"/>
<line shape-type="limitline" x1="671" y1="174" x2="671" y2="208" fill="#FFFFFF" stroke="#FF0000" stroke-width="3.00"/>
<line shape-type="limitline" x1="707" y1="21" x2="707" y2="174" fill="#FFFFFF" stroke="#FF0000" stroke-width="3.00"/>
<line shape-type="limitline" x1="759" y1="477" x2="142" y2="477" fill="#FFFFFF" stroke="#0000FF" stroke-width="5.00"/>
<line shape-type="limitline" x1="434" y1="477" x2="434" y2="371" fill="#FFFFFF" stroke="#0000FF" stroke-width="3.00"/>
<line shape-type="limitline" x1="571" y1="445" x2="571" y2="368" fill="#FFFFFF" stroke="#0000FF" stroke-width="3.00"/>
<line shape-type="limitline" x1="631" y1="476" x2="631" y2="367" fill="#FFFFFF" stroke="#0000FF" stroke-width="3.00"/>
<g shape-type="group">
<polygon shape-type="trapezium" points="622,202 622,213 627,208 627,208 622,202" fill="url(#lgradient24_0)" stroke-width="1.00"/>
<polygon shape-type="trapezium" points="634,213 634,202 627,207 627,207 634,213" fill="url(#lgradient24_1)" stroke-width="1.00"/>
</g>
<g shape-type="group">
<polygon shape-type="trapezium" points="607,169 607,179 612,174 612,174 607,169" fill="url(#lgradient25_0)" stroke-width="1.00"/>
<polygon shape-type="trapezium" points="620,179 620,169 612,174 612,174 620,179" fill="url(#lgradient25_1)" stroke-width="1.00"/>
</g>
<g shape-type="group">
<polygon shape-type="trapezium" points="638,169 638,179 643,174 643,174 638,169" fill="url(#lgradient26_0)" stroke-width="1.00"/>
<polygon shape-type="trapezium" points="651,179 651,169 643,174 643,174 651,179" fill="url(#lgradient26_1)" stroke-width="1.00"/>
</g>
<g shape-type="group">
<rect shape-type="rectangle" x="628" y="168" width="2" height="7" fill="#FFFFFF" stroke-width="1.00"/>
<ellipse shape-type="ellipse" cx="629" cy="161" rx="9" ry="8" fill="url(#rgradient27_1)" stroke-width="1.00"/>
<polygon shape-type="trapezium" points="622,169 622,179 630,174 630,174 622,169" fill="url(#lgradient27_2)" stroke-width="1.00"/>
<polygon shape-type="trapezium" points="638,179 638,169 630,174 630,174 638,179" fill="url(#lgradient27_3)" stroke-width="1.00"/>
</g>
<g shape-type="group">
<rect shape-type="rectangle" x="309" y="126" width="1" height="7" fill="#FFFFFF" stroke-width="1.00"/>
<ellipse shape-type="ellipse" cx="311" cy="119" rx="9" ry="8" fill="url(#rgradient28_1)" stroke-width="1.00"/>
<polygon shape-type="trapezium" points="302,127 302,137 310,132 310,132 302,127" fill="url(#lgradient28_2)" stroke-width="1.00"/>
<polygon shape-type="trapezium" points="318,137 318,127 310,132 310,132 318,137" fill="url(#lgradient28_3)" stroke-width="1.00"/>
</g>
<g shape-type="group">
<polygon shape-type="trapezium" points="321,129 321,138 326,134 326,134 321,129" fill="url(#lgradient29_0)" stroke-width="1.00"/>
<polygon shape-type="trapezium" points="334,138 334,129 326,133 326,133 334,138" fill="url(#lgradient29_1)" stroke-width="1.00"/>
</g>
<g shape-type="group">
<polygon shape-type="trapezium" points="287,129 287,138 292,134 292,134 287,129" fill="url(#lgradient30_0)" stroke-width="1.00"/>
<polygon shape-type="trapezium" points="301,138 301,129 292,133 292,133 301,138" fill="url(#lgradient30_1)" stroke-width="1.00"/>
</g>
<g shape-type="group">
<polygon shape-type="trapezium" points="305,157 305,167 310,162 310,162 305,157" fill="url(#lgradient31_0)" stroke-width="1.00"/>
<polygon shape-type="trapezium" points="317,167 317,157 310,162 310,162 317,167" fill="url(#lgradient31_1)" stroke-width="1.00"/>
</g>
<g shape-type="group">
<polygon shape-type="trapezium" points="248,87 259,87 253,92 253,92 248,87" fill="url(#lgradient32_0)" stroke-width="1.00"/>
<polygon shape-type="trapezium" points="259,99 248,99 254,92 254,92 259,99" fill="url(#lgradient32_1)" stroke-width="1.00"/>
</g>
<g shape-type="group">
<polygon shape-type="trapezium" points="508,340 519,340 513,345 513,345 508,340" fill="url(#lgradient33_0)" stroke-width="1.00"/>
<polygon shape-type="trapezium" points="519,353 508,353 514,345 514,345 519,353" fill="url(#lgradient33_1)" stroke-width="1.00"/>
</g>
<g shape-type="group">
<polygon shape-type="trapezium" points="506,376 517,376 511,382 511,382 506,376" fill="url(#lgradient34_0)" stroke-width="1.00"/>
<polygon shape-type="trapezium" points="517,390 506,390 512,382 512,382 517,390" fill="url(#lgradient34_1)" stroke-width="1.00"/>
</g>
<g shape-type="group">
<polygon shape-type="trapezium" points="429,376 439,376 434,382 434,382 429,376" fill="url(#lgradient35_0)" stroke-width="1.00"/>
<polygon shape-type="trapezium" points="439,389 429,389 434,382 434,382 439,389" fill="url(#lgradient35_1)" stroke-width="1.00"/>
</g>
<g shape-type="group">
<polygon shape-type="trapezium" points="567,379 577,379 572,385 572,385 567,379" fill="url(#lgradient36_0)" stroke-width="1.00"/>
<polygon shape-type="trapezium" points="577,393 567,393 572,385 572,385 577,393" fill="url(#lgradient36_1)" stroke-width="1.00"/>
</g>
<g shape-type="group">
<polygon shape-type="trapezium" points="626,379 636,379 631,385 631,385 626,379" fill="url(#lgradient37_0)" stroke-width="1.00"/>
<polygon shape-type="trapezium" points="636,393 626,393 631,385 631,385 636,393" fill="url(#lgradient37_1)" stroke-width="1.00"/>
</g>
<line shape-type="limitline" x1="435" y1="450" x2="510" y2="450" fill="#FFFFFF" stroke="#0000FF" stroke-width="3.00"/>
<g shape-type="group">
<polygon shape-type="trapezium" points="428,455 437,455 432,460 432,460 428,455" fill="url(#lgradient39_0)" stroke-width="1.00"/>
<polygon shape-type="trapezium" points="437,469 428,469 433,460 433,460 437,469" fill="url(#lgradient39_1)" stroke-width="1.00"/>
</g>
<g shape-type="group">
<polygon shape-type="trapezium" points="626,456 636,456 631,462 631,462 626,456" fill="url(#lgradient40_0)" stroke-width="1.00"/>
<polygon shape-type="trapezium" points="636,469 626,469 631,462 631,462 636,469" fill="url(#lgradient40_1)" stroke-width="1.00"/>
</g>
<line shape-type="limitline" x1="633" y1="447" x2="570" y2="447" fill="#FFFFFF" stroke="#0000FF" stroke-width="3.00"/>
<g shape-type="group">
<polygon shape-type="trapezium" points="428,432 437,432 432,437 432,437 428,432" fill="url(#lgradient42_0)" stroke-width="1.00"/>
<polygon shape-type="trapezium" points="437,446 428,446 433,437 433,437 437,446" fill="url(#lgradient42_1)" stroke-width="1.00"/>
</g>
<g shape-type="group">
<polygon shape-type="trapezium" points="626,431 636,431 631,436 631,436 626,431" fill="url(#lgradient43_0)" stroke-width="1.00"/>
<polygon shape-type="trapezium" points="636,443 626,443 631,436 631,436 636,443" fill="url(#lgradient43_1)" stroke-width="1.00"/>
</g>
<g shape-type="group">
<polygon shape-type="trapezium" points="202,37 202,23 192,30 192,30 202,37" fill="#FFFFFF" stroke="#FFFFFF" stroke-width="1.00"/>
<rect shape-type="rectangle" x="202" y="26" width="13" height="6" fill="#FFFFFF" stroke="#FFFFFF" stroke-width="1.00"/>
</g>
<g shape-type="group">
<ellipse shape-type="ellipse" cx="435" cy="410" rx="11" ry="11" stroke="#FFFFFF" stroke-width="1.00"/>
<g shape-type="group">
<polygon shape-type="trapezium" points="439,412 428,412 434,420 434,420 439,412" fill="#FFFFFF" stroke="#FFFFFF" stroke-width="1.00"/>
<rect shape-type="rectangle" x="431" y="404" width="6" height="8" fill="#FFFFFF" stroke="#FFFFFF" stroke-width="1.00"/>
</g>
</g>
<g shape-type="group">
<ellipse shape-type="ellipse" cx="632" cy="410" rx="10" ry="11" stroke="#FFFFFF" stroke-width="1.00"/>
<g shape-type="group">
<polygon shape-type="trapezium" points="636,412 626,412 631,420 631,420 636,412" fill="#FFFFFF" stroke="#FFFFFF" stroke-width="1.00"/>
<rect shape-type="rectangle" x="628" y="404" width="7" height="8" fill="#FFFFFF" stroke="#FFFFFF" stroke-width="1.00"/>
</g>
</g>
<line shape-type="limitline" x1="532" y1="475" x2="532" y2="512" fill="#FFFFFF" stroke="#0000FF" stroke-width="3.00"/>
<line shape-type="limitline" x1="533" y1="513" x2="310" y2="513" fill="#FFFFFF" stroke="#0000FF" stroke-width="3.00"/>
<g shape-type="group">
<polygon shape-type="trapezium" points="349,521 349,506 340,513 340,513 349,521" fill="#FFFFFF" stroke="#FFFFFF" stroke-width="1.00"/>
<rect shape-type="rectangle" x="349" y="511" width="14" height="6" fill="#FFFFFF" stroke="#FFFFFF" stroke-width="1.00"/>
</g>
<text font-family="宋体" text-anchor="start" fill="#FF0000" shape-type="text" id="" font-size="12.500000" x="286" y="502">至高压加热器</text>
<text font-family="宋体" text-anchor="start" fill="#FF0000" shape-type="text" id="" font-size="12.500000" x="598" y="356">低压给水母管</text>
<text font-family="宋体" text-anchor="start" fill="#FF0000" shape-type="text" id="" font-size="12.500000" x="658" y="466">高压给水母管</text>
<text font-family="宋体" text-anchor="start" fill="#FF0000" shape-type="text" id="" font-size="12.500000" x="99" y="27">加热蒸汽管</text>
<text font-family="宋体" text-anchor="start" fill="#FF0000" shape-type="text" id="" font-size="12.500000" x="287" y="46">化学补充水母管</text>
<text font-family="宋体" text-anchor="start" fill="#000000" shape-type="text" id="" font-size="15.500000" font-weight="bold" x="460" y="284">除　氧　器</text>
<line shape-type="limitline" x1="403" y1="230" x2="403" y2="321" fill="#00FFFF" stroke="#000000" stroke-width="1.00"/>
<line shape-type="limitline" x1="617" y1="230" x2="617" y2="321" fill="#00FFFF" stroke="#000000" stroke-width="1.00"/>
<line shape-type="limitline" x1="469" y1="122" x2="549" y2="122" fill="#00FFFF" stroke="#000000" stroke-width="1.00"/>
<line shape-type="limitline" x1="553" y1="128" x2="468" y2="128" fill="#00FFFF" stroke="#000000" stroke-width="1.00"/>
<text font-family="宋体" text-anchor="start" fill="#FF0000" shape-type="text" id="" font-size="24.500000" font-weight="bold" writing-mode="tb" glyph-orientation-vertical="0" x="51" y="180">4炉除氧给水系统　</text>
<text font-family="Arial" text-anchor="start" fill="#FFFFFF" shape-type="realdata" id="RD45_PT4184" font-size="16.250000" x="91" y="108">XXXXXXXXXX</text>
<text font-family="宋体" text-anchor="start" fill="#00FF00" shape-type="text" id="" font-size="15.500000" x="121" y="83">PT4184</text>
<text font-family="宋体" text-anchor="start" fill="#00FF00" shape-type="text" id="" font-size="15.500000" x="278" y="272">LT4181</text>
<text font-family="宋体" text-anchor="start" fill="#00FF00" shape-type="text" id="" font-size="15.500000" x="564" y="107">PT4181</text>
<text font-family="宋体" text-anchor="start" fill="#00FF00" shape-type="text" id="" font-size="15.500000" x="667" y="263">TE4181</text>
<text font-family="Arial" text-anchor="start" fill="#FFFFFF" shape-type="realdata" id="RD45_PT4181" font-size="16.250000" x="528" y="129">XXXXXXXXXX</text>
<text font-family="Arial" text-anchor="start" fill="#FFFFFF" shape-type="realdata" id="RD45_LT4181" font-size="16.250000" x="242" y="295">XXXXXXXXXX</text>
<text font-family="Arial" text-anchor="start" fill="#FFFFFF" shape-type="realdata" id="RD45_TE4181" font-size="16.250000" x="633" y="288">XXXXXXXXXX</text>
<a xlink:href="1.svg">
<g shape-type="button">
<rect fill="#C0C0C0" stroke-width="0.3" stroke="#FFFFFF" x="15" y="524" width="96" height="34" shape-type="buttonrect"/>
<text font-family="宋体" text-anchor="middle" dominant-baseline="middle" fill="#000000" font-size="13.500000" x="63" y="547" shape-type="buttontext">热力控制</text>
</g>
</a>
<a xlink:href="2.svg">
<g shape-type="button">
<rect fill="#C0C0C0" stroke-width="0.3" stroke="#FFFFFF" x="111" y="524" width="96" height="34" shape-type="buttonrect"/>
<text font-family="宋体" text-anchor="middle" dominant-baseline="middle" fill="#000000" font-size="13.500000" x="159" y="547" shape-type="buttontext">减温减压</text>
</g>
</a>
<a xlink:href="3.svg">
<g shape-type="button">
<rect fill="#C0C0C0" stroke-width="0.3" stroke="#FFFFFF" x="207" y="524" width="96" height="34" shape-type="buttonrect"/>
<text font-family="宋体" text-anchor="middle" dominant-baseline="middle" fill="#000000" font-size="13.500000" x="255" y="547" shape-type="buttontext">汽轮机本体</text>
</g>
</a>
<a xlink:href="4.svg">
<g shape-type="button">
<rect fill="#C0C0C0" stroke-width="0.3" stroke="#FFFFFF" x="303" y="524" width="96" height="34" shape-type="buttonrect"/>
<text font-family="宋体" text-anchor="middle" dominant-baseline="middle" fill="#000000" font-size="13.500000" x="351" y="547" shape-type="buttontext">汽机油系统</text>
</g>
</a>
<a xlink:href="5.svg">
<g shape-type="button">
<rect fill="#C0C0C0" stroke-width="0.3" stroke="#FFFFFF" x="399" y="524" width="136" height="34" shape-type="buttonrect"/>
<text font-family="宋体" text-anchor="middle" dominant-baseline="middle" fill="#000000" font-size="13.500000" x="467" y="547" shape-type="buttontext">4＃除氧给水系统</text>
</g>
</a>
<a xlink:href="6.svg">
<g shape-type="button">
<rect fill="#C0C0C0" stroke-width="0.3" stroke="#FFFFFF" x="536" y="524" width="143" height="34" shape-type="buttonrect"/>
<text font-family="宋体" text-anchor="middle" dominant-baseline="middle" fill="#000000" font-size="13.500000" x="607" y="547" shape-type="buttontext">5#除氧给水系统</text>
</g>
</a>
<a xlink:href="..\dianli.svg">
<g shape-type="button">
<rect fill="#C0C0C0" stroke-width="0.3" stroke="#FFFFFF" x="722" y="524" width="96" height="34" shape-type="buttonrect"/>
<text font-family="宋体" text-anchor="middle" dominant-baseline="middle" fill="#000000" font-size="13.500000" x="770" y="547" shape-type="buttontext">返回</text>
</g>
</a>
</svg>