<?xml version="1.0"?>
<?xml-stylesheet type='text/javascript'?>
<!--Draw SVG: 2019-11-25 09:41:29 47-Monday-->
<svg xmlns="http://www.w3.org/2000/svg" xmlns:xlink="http://www.w3.org/1999/xlink" version="1.1" style="background-color:#000000" width="1066" height="800" viewbox="0 0 1066 800">
<defs>
<linearGradient x1="50.000000%" y1="0.000000%" x2="50.000000%" y2="100.000000%" id="lgradient1_0">
<stop offset="0" stop-color="#2C2C2C" stop-opacity="1"/>
<stop offset="0.5" stop-color="#FFFFFF" stop-opacity="1"/>
<stop offset="1" stop-color="#2C2C2C" stop-opacity="1"/>
</linearGradient>
<linearGradient x1="0.000000%" y1="50.000000%" x2="100.000000%" y2="50.000000%" id="lgradient1_1">
<stop offset="0" stop-color="#2C2C2C" stop-opacity="1"/>
<stop offset="0.5" stop-color="#FFFFFF" stop-opacity="1"/>
<stop offset="1" stop-color="#2C2C2C" stop-opacity="1"/>
</linearGradient>
<linearGradient x1="50.000000%" y1="0.000000%" x2="50.000000%" y2="100.000000%" id="lgradient1_2">
<stop offset="0" stop-color="#2C2C2C" stop-opacity="1"/>
<stop offset="0.5" stop-color="#FFFFFF" stop-opacity="1"/>
<stop offset="1" stop-color="#2C2C2C" stop-opacity="1"/>
</linearGradient>
<linearGradient x1="50.000000%" y1="0.000000%" x2="50.000000%" y2="100.000000%" id="lgradient1_3">
<stop offset="0" stop-color="#2C2C2C" stop-opacity="1"/>
<stop offset="0.5" stop-color="#FFFFFF" stop-opacity="1"/>
<stop offset="1" stop-color="#2C2C2C" stop-opacity="1"/>
</linearGradient>
<linearGradient x1="50.000000%" y1="0.000000%" x2="50.000000%" y2="100.000000%" id="lgradient2_0">
<stop offset="0" stop-color="#2C2C2C" stop-opacity="1"/>
<stop offset="0.5" stop-color="#FFFFFF" stop-opacity="1"/>
<stop offset="1" stop-color="#2C2C2C" stop-opacity="1"/>
</linearGradient>
<linearGradient x1="0.000000%" y1="50.000000%" x2="100.000000%" y2="50.000000%" id="lgradient2_1">
<stop offset="0" stop-color="#2C2C2C" stop-opacity="1"/>
<stop offset="0.5" stop-color="#FFFFFF" stop-opacity="1"/>
<stop offset="1" stop-color="#2C2C2C" stop-opacity="1"/>
</linearGradient>
<linearGradient x1="50.000000%" y1="0.000000%" x2="50.000000%" y2="100.000000%" id="lgradient2_2">
<stop offset="0" stop-color="#2C2C2C" stop-opacity="1"/>
<stop offset="0.5" stop-color="#FFFFFF" stop-opacity="1"/>
<stop offset="1" stop-color="#2C2C2C" stop-opacity="1"/>
</linearGradient>
<linearGradient x1="50.000000%" y1="0.000000%" x2="50.000000%" y2="100.000000%" id="lgradient2_3">
<stop offset="0" stop-color="#2C2C2C" stop-opacity="1"/>
<stop offset="0.5" stop-color="#FFFFFF" stop-opacity="1"/>
<stop offset="1" stop-color="#2C2C2C" stop-opacity="1"/>
</linearGradient>
<linearGradient x1="0.000000%" y1="50.000000%" x2="100.000000%" y2="50.000000%" id="lgradient3_0">
<stop offset="0" stop-color="#2C2C2C" stop-opacity="1"/>
<stop offset="0.5" stop-color="#FFFFFF" stop-opacity="1"/>
<stop offset="1" stop-color="#2C2C2C" stop-opacity="1"/>
</linearGradient>
<marker id="Arrow2" markerUnits="strokeWidth" markerWidth="6" markerHeight="6" viewBox="0 0 6 6" refX="3" refY="3" orient="auto"><polygon points="5,1 1,3 5,5" style="fill: #000000;"/></marker>
<linearGradient x1="50.000000%" y1="0.000000%" x2="50.000000%" y2="100.000000%" id="lgradient71_0">
<stop offset="0" stop-color="#2C2C2C" stop-opacity="1"/>
<stop offset="0.5" stop-color="#FFFFFF" stop-opacity="1"/>
<stop offset="1" stop-color="#2C2C2C" stop-opacity="1"/>
</linearGradient>
</defs>
<g shape-type="group">
<rect shape-type="roundRectangle" rx="20" ry="20" x="286" y="526" width="69" height="58" fill="url(#lgradient1_0)" stroke="#808080" stroke-width="1.00"/>
<polygon shape-type="trapezium" points="334,546 271,546 288,527 318,527 334,546" fill="url(#lgradient1_1)" stroke="#000000" stroke-width="1.00"/>
<rect shape-type="roundRectangle" rx="20" ry="20" x="247" y="544" width="82" height="40" fill="url(#lgradient1_2)" stroke="#808080" stroke-width="1.00"/>
<rect shape-type="rectangle" x="286" y="526" width="60" height="55" fill="url(#lgradient1_3)" stroke="#000000" stroke-width="1.00"/>
<rect shape-type="rectangle" x="329" y="532" width="7" height="41" fill="#008080" stroke="#000000" stroke-width="1.00"/>
<line shape-type="line" x1="275" y1="581" x2="275" y2="546" fill="#008080" stroke="#000000" stroke-width="1.00"/>
<line shape-type="line" x1="274" y1="567" x2="249" y2="567" fill="#C0C0C0" stroke="#808080" stroke-width="5.00"/>
<line shape-type="line" x1="325" y1="564" x2="291" y2="563" fill="#C0C0C0" stroke="#808080" stroke-width="5.00"/>
</g>
<g shape-type="group">
<rect shape-type="roundRectangle" rx="20" ry="20" x="286" y="238" width="68" height="57" fill="url(#lgradient2_0)" stroke="#808080" stroke-width="1.00"/>
<polygon shape-type="trapezium" points="333,256 271,256 287,239 317,239 333,256" fill="url(#lgradient2_1)" stroke="#000000" stroke-width="1.00"/>
<rect shape-type="roundRectangle" rx="20" ry="20" x="247" y="254" width="81" height="41" fill="url(#lgradient2_2)" stroke="#808080" stroke-width="1.00"/>
<rect shape-type="rectangle" x="286" y="238" width="59" height="55" fill="url(#lgradient2_3)" stroke="#000000" stroke-width="1.00"/>
<rect shape-type="rectangle" x="328" y="244" width="7" height="39" fill="#FFFFFF" stroke="#000000" stroke-width="1.00"/>
<line shape-type="line" x1="274" y1="293" x2="274" y2="256" fill="#FFFFFF" stroke="#000000" stroke-width="1.00"/>
<line shape-type="line" x1="273" y1="277" x2="249" y2="277" fill="#FFFFFF" stroke="#808080" stroke-width="5.00"/>
<line shape-type="line" x1="325" y1="274" x2="291" y2="273" fill="#FFFFFF" stroke="#808080" stroke-width="5.00"/>
</g>
<g shape-type="group">
<rect shape-type="roundRectangle" rx="20" ry="20" x="721" y="236" width="52" height="197" fill="url(#lgradient3_0)" stroke="#808080" stroke-width="1.00"/>
<line shape-type="line" x1="771" y1="248" x2="722" y2="248" fill="#C0C0C0" stroke="#000000" stroke-width="1.00"/>
<line shape-type="line" x1="772" y1="421" x2="723" y2="421" fill="#C0C0C0" stroke="#000000" stroke-width="1.00"/>
<line shape-type="line" x1="771" y1="422" x2="724" y2="249" fill="#C0C0C0" stroke="#000000" stroke-width="1.00"/>
<line shape-type="line" x1="723" y1="421" x2="769" y2="250" fill="#C0C0C0" stroke="#000000" stroke-width="1.00"/>
</g>
<line shape-type="line" x1="264" y1="231" x2="58" y2="230" fill="#00FFFF" stroke="#0000FF" stroke-width="3.00"/>
<line shape-type="line" x1="265" y1="254" x2="264" y2="231" fill="#00FFFF" stroke="#0000FF" stroke-width="3.00"/>
<line shape-type="line" x1="150" y1="314" x2="150" y2="234" fill="#00FFFF" stroke="#0000FF" stroke-width="3.00"/>
<line shape-type="line" x1="184" y1="313" x2="150" y2="314" fill="#00FFFF" stroke="#0000FF" stroke-width="3.00"/>
<line shape-type="line" x1="263" y1="314" x2="200" y2="312" fill="#00FFFF" stroke="#0000FF" stroke-width="3.00"/>
<line shape-type="line" x1="260" y1="343" x2="261" y2="294" fill="#00FFFF" stroke="#0000FF" stroke-width="3.00"/>
<line shape-type="line" x1="603" y1="346" x2="261" y2="346" fill="#00FFFF" stroke="#0000FF" stroke-width="3.00"/>
<line shape-type="line" x1="601" y1="185" x2="601" y2="343" fill="#00FFFF" stroke="#0000FF" stroke-width="3.00"/>
<line shape-type="line" x1="668" y1="185" x2="603" y2="186" fill="#00FFFF" stroke="#0000FF" stroke-width="3.00"/>
<line shape-type="line" x1="747" y1="185" x2="695" y2="185" fill="#00FFFF" stroke="#0000FF" stroke-width="3.00"/>
<line shape-type="line" x1="261" y1="603" x2="55" y2="604" fill="#00FFFF" stroke="#0000FF" stroke-width="3.00"/>
<line shape-type="line" x1="262" y1="585" x2="262" y2="603" fill="#00FFFF" stroke="#0000FF" stroke-width="3.00"/>
<line shape-type="line" x1="606" y1="515" x2="262" y2="515" fill="#00FFFF" stroke="#0000FF" stroke-width="3.00"/>
<line shape-type="line" x1="606" y1="652" x2="605" y2="515" fill="#00FFFF" stroke="#0000FF" stroke-width="3.00"/>
<line shape-type="line" x1="599" y1="346" x2="476" y2="346" marker-start="url(#Arrow2)" fill="#00FFFF" stroke="#0000FF" stroke-width="3.00"/>
<line shape-type="line" x1="746" y1="234" x2="745" y2="186" fill="#00FFFF" stroke="#0000FF" stroke-width="3.00"/>
<line shape-type="line" x1="745" y1="528" x2="744" y2="433" fill="#00FFFF" stroke="#0000FF" stroke-width="3.00"/>
<line shape-type="line" x1="725" y1="649" x2="726" y2="565" fill="#00FFFF" stroke="#0000FF" stroke-width="3.00"/>
<line shape-type="line" x1="181" y1="499" x2="59" y2="499" fill="#00FFFF" stroke="#FF0000" stroke-width="3.00"/>
<line shape-type="line" x1="307" y1="499" x2="201" y2="498" fill="#00FFFF" stroke="#FF0000" stroke-width="3.00"/>
<line shape-type="line" x1="306" y1="527" x2="307" y2="501" fill="#00FFFF" stroke="#FF0000" stroke-width="3.00"/>
<line shape-type="line" x1="307" y1="185" x2="206" y2="184" fill="#00FFFF" stroke="#FF0000" stroke-width="3.00"/>
<line shape-type="line" x1="175" y1="184" x2="74" y2="185" fill="#00FFFF" stroke="#FF0000" stroke-width="3.00"/>
<line shape-type="line" x1="183" y1="708" x2="56" y2="707" fill="#00FFFF" stroke="#80FF00" stroke-width="3.00"/>
<line shape-type="line" x1="317" y1="706" x2="208" y2="707" fill="#00FFFF" stroke="#80FF00" stroke-width="3.00"/>
<line shape-type="line" x1="315" y1="582" x2="317" y2="706" fill="#00FFFF" stroke="#80FF00" stroke-width="3.00"/>
<line shape-type="line" x1="182" y1="414" x2="56" y2="412" fill="#00FFFF" stroke="#80FF00" stroke-width="3.00"/>
<line shape-type="line" x1="318" y1="414" x2="205" y2="412" fill="#00FFFF" stroke="#80FF00" stroke-width="3.00"/>
<line shape-type="line" x1="317" y1="345" x2="317" y2="414" fill="#00FFFF" stroke="#80FF00" stroke-width="3.00"/>
<line shape-type="line" x1="317" y1="291" x2="317" y2="341" fill="#00FFFF" stroke="#80FF00" stroke-width="3.00"/>
<line shape-type="line" x1="941" y1="494" x2="790" y2="494" fill="#00FFFF" stroke="#80FF00" stroke-width="3.00"/>
<line shape-type="line" x1="791" y1="534" x2="790" y2="492" fill="#00FFFF" stroke="#80FF00" stroke-width="3.00"/>
<line shape-type="line" x1="789" y1="658" x2="789" y2="566" fill="#00FFFF" stroke="#80FF00" stroke-width="3.00"/>
<line shape-type="line" x1="933" y1="659" x2="786" y2="660" fill="#00FFFF" stroke="#80FF00" stroke-width="3.00"/>
<line shape-type="line" x1="841" y1="595" x2="789" y2="595" fill="#00FFFF" stroke="#80FF00" stroke-width="3.00"/>
<line shape-type="line" x1="840" y1="560" x2="841" y2="595" fill="#00FFFF" stroke="#80FF00" stroke-width="3.00"/>
<line shape-type="line" x1="839" y1="505" x2="790" y2="506" fill="#00FFFF" stroke="#80FF00" stroke-width="3.00"/>
<line shape-type="line" x1="839" y1="535" x2="839" y2="505" fill="#00FFFF" stroke="#80FF00" stroke-width="3.00"/>
<g shape-type="group">
<path shape-type="chord" d="M 206,310 A 15,17 0 0,0 182,310 z" fill="#FF0000" stroke="#000000" stroke-width="1.00"/>
<polygon shape-type="trapezium" points="181,312 181,330 192,321 192,321 181,312" fill="#FF0000" stroke="#C0C0C0" stroke-width="1.00"/>
<polygon shape-type="trapezium" points="205,314 205,329 194,322 194,322 205,314" fill="#FF0000" stroke="#C0C0C0" stroke-width="1.00"/>
<line shape-type="line" x1="194" y1="322" x2="194" y2="308" fill="#00FFFF" stroke="#FF0000" stroke-width="3.00"/>
</g>
<g shape-type="group">
<path shape-type="chord" d="M 205,174 A 15,17 0 0,0 181,174 z" fill="#FF0000" stroke="#000000" stroke-width="1.00"/>
<polygon shape-type="trapezium" points="180,175 180,194 191,185 191,185 180,175" fill="#FF0000" stroke="#C0C0C0" stroke-width="1.00"/>
<polygon shape-type="trapezium" points="204,177 204,193 193,185 193,185 204,177" fill="#FF0000" stroke="#C0C0C0" stroke-width="1.00"/>
<line shape-type="line" x1="193" y1="185" x2="193" y2="172" fill="#00FFFF" stroke="#FF0000" stroke-width="3.00"/>
</g>
<g shape-type="group">
<path shape-type="chord" d="M 693,173 A 15,17 0 0,0 669,173 z" fill="#FF0000" stroke="#000000" stroke-width="1.00"/>
<polygon shape-type="trapezium" points="668,174 668,193 678,184 678,184 668,174" fill="#FF0000" stroke="#C0C0C0" stroke-width="1.00"/>
<polygon shape-type="trapezium" points="692,176 692,192 680,184 680,184 692,176" fill="#FF0000" stroke="#C0C0C0" stroke-width="1.00"/>
<line shape-type="line" x1="680" y1="184" x2="680" y2="171" fill="#00FFFF" stroke="#FF0000" stroke-width="3.00"/>
</g>
<g shape-type="group">
<path shape-type="chord" d="M 204,403 A 15,17 0 0,0 180,403 z" fill="#FF0000" stroke="#000000" stroke-width="1.00"/>
<polygon shape-type="trapezium" points="179,404 179,423 190,414 190,414 179,404" fill="#FF0000" stroke="#C0C0C0" stroke-width="1.00"/>
<polygon shape-type="trapezium" points="203,406 203,422 192,414 192,414 203,406" fill="#FF0000" stroke="#C0C0C0" stroke-width="1.00"/>
<line shape-type="line" x1="192" y1="415" x2="192" y2="401" fill="#00FFFF" stroke="#FF0000" stroke-width="3.00"/>
</g>
<g shape-type="group">
<path shape-type="chord" d="M 206,489 A 15,17 0 0,0 182,489 z" fill="#FF0000" stroke="#000000" stroke-width="1.00"/>
<polygon shape-type="trapezium" points="181,490 181,508 192,499 192,499 181,490" fill="#FF0000" stroke="#C0C0C0" stroke-width="1.00"/>
<polygon shape-type="trapezium" points="205,492 205,507 194,500 194,500 205,492" fill="#FF0000" stroke="#C0C0C0" stroke-width="1.00"/>
<line shape-type="line" x1="194" y1="500" x2="194" y2="486" fill="#00FFFF" stroke="#FF0000" stroke-width="3.00"/>
</g>
<g shape-type="group">
<polygon shape-type="trapezium" points="835,535 826,535 829,547 833,547 835,535" fill="#FF0000" stroke="#000000" stroke-width="1.00"/>
<polygon shape-type="polygon" points="842,536 842,558 847,556 851,550 851,544 848,539 846,537" fill="#FF0000" stroke="#000000" stroke-width="1.00"/>
<polygon shape-type="trapezium" points="833,560 827,560 829,548 831,548 833,560" fill="#FF0000" stroke="#000000" stroke-width="1.00"/>
<line shape-type="line" x1="843" y1="548" x2="832" y2="548" fill="#00FFFF" stroke="#FF0000" stroke-width="3.00"/>
</g>
<g shape-type="group">
<path shape-type="chord" d="M 207,700 A 15,17 0 0,0 183,700 z" fill="#FF0000" stroke="#000000" stroke-width="1.00"/>
<polygon shape-type="trapezium" points="182,701 182,720 193,711 193,711 182,701" fill="#FF0000" stroke="#C0C0C0" stroke-width="1.00"/>
<polygon shape-type="trapezium" points="206,703 206,719 195,711 195,711 206,703" fill="#FF0000" stroke="#C0C0C0" stroke-width="1.00"/>
<line shape-type="line" x1="195" y1="711" x2="195" y2="698" fill="#00FFFF" stroke="#FF0000" stroke-width="3.00"/>
</g>
<g shape-type="group">
<rect shape-type="rectangle" x="5" y="172" width="66" height="25" fill="#EAEAEA" stroke="#EBEBEB" stroke-width="1.00"/>
<polygon shape-type="trapezium" points="6,172 6,197 -3,185 -3,185 6,172" fill="#EAEAEA" stroke-width="1.00"/>
</g>
<g shape-type="group">
<rect shape-type="rectangle" x="10" y="592" width="66" height="25" fill="#EAEAEA" stroke="#EBEBEB" stroke-width="1.00"/>
<polygon shape-type="trapezium" points="11,592 11,617 2,605 2,605 11,592" fill="#EAEAEA" stroke-width="1.00"/>
</g>
<g shape-type="group">
<rect shape-type="rectangle" x="15" y="487" width="65" height="25" fill="#EAEAEA" stroke="#EBEBEB" stroke-width="1.00"/>
<polygon shape-type="trapezium" points="16,487 16,512 6,500 6,500 16,487" fill="#EAEAEA" stroke-width="1.00"/>
</g>
<g shape-type="group">
<rect shape-type="rectangle" x="931" y="645" width="65" height="25" fill="#EAEAEA" stroke="#EBEBEB" stroke-width="1.00"/>
<polygon shape-type="trapezium" points="932,645 932,670 922,658 922,658 932,645" fill="#EAEAEA" stroke-width="1.00"/>
</g>
<g shape-type="group">
<rect shape-type="rectangle" x="943" y="484" width="55" height="26" fill="#FFFFFF" stroke="#C0C0C0" stroke-width="1.00"/>
<polygon shape-type="trapezium" points="997,484 997,509 1008,497 1008,497 997,484" fill="#FFFFFF" stroke-width="1.00"/>
</g>
<g shape-type="group">
<rect shape-type="rectangle" x="8" y="399" width="60" height="26" fill="#FFFFFF" stroke="#C0C0C0" stroke-width="1.00"/>
<polygon shape-type="trapezium" points="67,399 67,424 79,412 79,412 67,399" fill="#FFFFFF" stroke-width="1.00"/>
</g>
<g shape-type="group">
<rect shape-type="rectangle" x="5" y="216" width="60" height="26" fill="#FFFFFF" stroke="#C0C0C0" stroke-width="1.00"/>
<polygon shape-type="trapezium" points="64,216 64,241 76,229 76,229 64,216" fill="#FFFFFF" stroke-width="1.00"/>
</g>
<g shape-type="group">
<rect shape-type="rectangle" x="6" y="694" width="60" height="26" fill="#FFFFFF" stroke="#C0C0C0" stroke-width="1.00"/>
<polygon shape-type="trapezium" points="65,694 65,719 77,707 77,707 65,694" fill="#FFFFFF" stroke-width="1.00"/>
</g>
<text font-family="宋体" text-anchor="start" fill="#FFFFFF" shape-type="text" id="" font-size="13.250000" x="651" y="155">HV83001</text>
<text font-family="宋体" text-anchor="start" fill="#0000FF" shape-type="text" id="" font-size="12.500000" x="400" y="817">XXXX</text>
<text font-family="宋体" text-anchor="start" fill="#FFFFFF" shape-type="text" id="" font-size="11.000000" x="448" y="816">PH</text>
<text font-family="宋体" text-anchor="start" fill="#000000" shape-type="text" id="" font-size="12.500000" x="948" y="503">E5303</text>
<text font-family="宋体" text-anchor="start" fill="#000000" shape-type="text" id="" font-size="11.750000" x="934" y="662">P5301A/B</text>
<text font-family="宋体" text-anchor="start" fill="#000000" shape-type="text" id="" font-size="11.000000" x="9" y="710">P5302A/B</text>
<text font-family="宋体" text-anchor="start" fill="#000000" shape-type="text" id="" font-size="11.000000" x="24" y="608">V5303</text>
<text font-family="宋体" text-anchor="start" fill="#000000" shape-type="text" id="" font-size="11.000000" x="33" y="505">E5305</text>
<text font-family="宋体" text-anchor="start" fill="#000000" shape-type="text" id="" font-size="11.000000" x="15" y="415">P5302A/B</text>
<text font-family="宋体" text-anchor="start" fill="#000000" shape-type="text" id="" font-size="11.000000" x="19" y="233">E5305</text>
<text font-family="宋体" text-anchor="start" fill="#000000" shape-type="text" id="" font-size="11.000000" x="22" y="187">E5305</text>
<text font-family="宋体" text-anchor="start" fill="#000000" shape-type="text" id="" font-size="11.000000" x="291" y="266">E5306</text>
<text font-family="宋体" text-anchor="start" fill="#000000" shape-type="text" id="" font-size="11.000000" x="729" y="265">R5303</text>
<text font-family="宋体" text-anchor="start" fill="#000000" shape-type="text" id="" font-size="11.000000" x="290" y="554">E5308</text>
<g shape-type="group">
<rect shape-type="roundRectangle" rx="20" ry="20" x="688" y="527" width="112" height="49" fill="url(#lgradient71_0)" stroke="#808080" stroke-width="1.00"/>
<line shape-type="line" x1="702" y1="573" x2="702" y2="529" fill="#C0C0C0" stroke="#000000" stroke-width="1.00"/>
<line shape-type="line" x1="716" y1="602" x2="713" y2="602" fill="#C0C0C0" stroke="#000000" stroke-width="1.00"/>
<line shape-type="line" x1="780" y1="574" x2="780" y2="530" fill="#C0C0C0" stroke="#000000" stroke-width="1.00"/>
<line shape-type="line" x1="780" y1="544" x2="703" y2="544" fill="#C0C0C0" stroke="#000000" stroke-width="1.00"/>
<line shape-type="line" x1="780" y1="554" x2="703" y2="554" fill="#C0C0C0" stroke="#000000" stroke-width="1.00"/>
</g>
<text font-family="宋体" text-anchor="start" fill="#000000" shape-type="text" id="" font-size="11.000000" x="722" y="555">E5307</text>
<text font-family="宋体" text-anchor="start" fill="#FFFFFF" shape-type="text" id="" font-size="11.750000" x="170" y="328">%</text>
<text font-family="宋体" text-anchor="start" fill="#FFFFFF" shape-type="text" id="" font-size="11.750000" x="194" y="433">%</text>
<text font-family="宋体" text-anchor="start" fill="#0000FF" shape-type="text" id="" font-size="12.500000" x="171" y="432">XX</text>
<rect shape-type="rectangle" x="361" y="44" width="469" height="33" stroke="#000000" stroke-width="1.00"/>
<rect shape-type="rectangle" x="0" y="1" width="1065" height="38" fill="#636563" stroke="#808080" stroke-width="1.00"/>
<rect shape-type="rectangle" x="294" y="3" width="500" height="33" stroke="#000000" stroke-width="1.00"/>
<a xlink:href="5300_ML.svg">
<g shape-type="button">
<rect fill="#C0C0C0" stroke-width="0.3" stroke="#FFFFFF" x="972" y="3" width="100" height="33" shape-type="buttonrect"/>
<text font-family="宋体" text-anchor="middle" dominant-baseline="middle" fill="#800000" font-size="13.500000" font-weight="bold" x="1022" y="26" shape-type="buttontext">返回上一级</text>
</g>
</a>
<text font-family="宋体" text-anchor="start" fill="#FFFFFF" shape-type="text" id="" font-size="26.750000" font-weight="bold" x="485" y="29">M5303</text>
<rect shape-type="rectangle" x="790" y="195" width="66" height="22" fill="#4A494A" stroke="#C0C0C0" stroke-width="3.00"/>
<rect shape-type="rectangle" x="789" y="178" width="92" height="18" fill="#7B7D7B" stroke="#C0C0C0" stroke-width="3.00"/>
<rect shape-type="rectangle" x="856" y="195" width="25" height="22" fill="#4A494A" stroke="#C0C0C0" stroke-width="3.00"/>
<text font-family="宋体" text-anchor="start" fill="#FFFFFF" shape-type="text" id="" font-size="13.250000" x="800" y="191">P183026</text>
<text font-family="宋体" text-anchor="start" fill="#FFFFFF" shape-type="text" id="" font-size="9.500000" x="859" y="211">MPa</text>
<rect shape-type="rectangle" x="162" y="128" width="66" height="22" fill="#4A494A" stroke="#C0C0C0" stroke-width="3.00"/>
<rect shape-type="rectangle" x="162" y="111" width="92" height="18" fill="#7B7D7B" stroke="#C0C0C0" stroke-width="3.00"/>
<rect shape-type="rectangle" x="229" y="128" width="25" height="22" fill="#4A494A" stroke="#C0C0C0" stroke-width="3.00"/>
<text font-family="宋体" text-anchor="start" fill="#FFFFFF" shape-type="text" id="" font-size="9.500000" x="232" y="144">MPa</text>
<text font-family="宋体" text-anchor="start" fill="#FFFFFF" shape-type="text" id="" font-size="12.500000" x="171" y="123">PIC83009</text>
<text font-family="Arial" text-anchor="start" fill="#00FFFF" shape-type="realdata" id="HCAB_ZQ_BH_PIC83009" font-size="13.250000" x="166" y="145">XXXX</text>
<rect shape-type="rectangle" x="67" y="127" width="60" height="22" fill="#4A494A" stroke="#C0C0C0" stroke-width="3.00"/>
<rect shape-type="rectangle" x="68" y="110" width="85" height="18" fill="#7B7D7B" stroke="#C0C0C0" stroke-width="3.00"/>
<rect shape-type="rectangle" x="124" y="127" width="30" height="22" fill="#4A494A" stroke="#C0C0C0" stroke-width="3.00"/>
<text font-family="宋体" text-anchor="start" fill="#FFFFFF" shape-type="text" id="" font-size="12.500000" x="79" y="124">FI83005</text>
<text font-family="宋体" text-anchor="start" fill="#FFFFFF" shape-type="text" id="" font-size="11.750000" x="129" y="141">kg/h</text>
<text font-family="Arial" text-anchor="start" fill="#00FFFF" shape-type="realdata" id="HCAB_ZQ_BH_FI_83003" font-size="13.250000" x="69" y="143">XXXX</text>
<rect shape-type="rectangle" x="881" y="327" width="66" height="22" fill="#4A494A" stroke="#C0C0C0" stroke-width="3.00"/>
<rect shape-type="rectangle" x="880" y="310" width="92" height="18" fill="#7B7D7B" stroke="#C0C0C0" stroke-width="3.00"/>
<rect shape-type="rectangle" x="947" y="327" width="25" height="22" fill="#4A494A" stroke="#C0C0C0" stroke-width="3.00"/>
<text font-family="宋体" text-anchor="start" fill="#FFFFFF" shape-type="text" id="" font-size="9.500000" x="950" y="343">MPa</text>
<text font-family="Arial" text-anchor="start" fill="#00FFFF" shape-type="realdata" id="HCAB_ZQ_BH_PI83026" font-size="11.000000" x="794" y="210">XXXX</text>
<rect shape-type="rectangle" x="898" y="546" width="66" height="22" fill="#4A494A" stroke="#C0C0C0" stroke-width="3.00"/>
<rect shape-type="rectangle" x="898" y="528" width="92" height="18" fill="#7B7D7B" stroke="#C0C0C0" stroke-width="3.00"/>
<rect shape-type="rectangle" x="965" y="546" width="25" height="22" fill="#4A494A" stroke="#C0C0C0" stroke-width="3.00"/>
<text font-family="宋体" text-anchor="start" fill="#FFFFFF" shape-type="text" id="" font-size="11.000000" x="910" y="540">TIC83035</text>
<text font-family="宋体" text-anchor="start" fill="#FFFFFF" shape-type="text" id="" font-size="11.000000" x="971" y="565">℃</text>
<text font-family="Arial" text-anchor="start" fill="#00FFFF" shape-type="realdata" id="HCAB_ZQ_BH_TIC83035" font-size="11.750000" x="901" y="560">XXXX</text>
<rect shape-type="rectangle" x="62" y="268" width="53" height="18" fill="#4A494A" stroke="#C0C0C0" stroke-width="3.00"/>
<rect shape-type="rectangle" x="62" y="254" width="76" height="15" fill="#7B7D7B" stroke="#C0C0C0" stroke-width="3.00"/>
<rect shape-type="rectangle" x="113" y="267" width="25" height="19" fill="#4A494A" stroke="#C0C0C0" stroke-width="3.00"/>
<rect shape-type="rectangle" x="158" y="261" width="53" height="22" fill="#4A494A" stroke="#C0C0C0" stroke-width="3.00"/>
<rect shape-type="rectangle" x="158" y="243" width="76" height="18" fill="#7B7D7B" stroke="#C0C0C0" stroke-width="3.00"/>
<rect shape-type="rectangle" x="209" y="261" width="25" height="22" fill="#4A494A" stroke="#C0C0C0" stroke-width="3.00"/>
<rect shape-type="rectangle" x="366" y="266" width="53" height="22" fill="#4A494A" stroke="#C0C0C0" stroke-width="3.00"/>
<rect shape-type="rectangle" x="367" y="249" width="76" height="18" fill="#7B7D7B" stroke="#C0C0C0" stroke-width="3.00"/>
<rect shape-type="rectangle" x="418" y="266" width="25" height="22" fill="#4A494A" stroke="#C0C0C0" stroke-width="3.00"/>
<text font-family="宋体" text-anchor="start" fill="#FFFFFF" shape-type="text" id="" font-size="9.500000" x="69" y="265">TI83026</text>
<text font-family="宋体" text-anchor="start" fill="#FFFFFF" shape-type="text" id="" font-size="11.000000" x="120" y="283">℃</text>
<text font-family="Arial" text-anchor="start" fill="#00FFFF" shape-type="realdata" id="HCAB_ZQ_BH_TI83026" font-size="11.000000" x="65" y="280">XXXX</text>
<text font-family="宋体" text-anchor="start" fill="#FFFFFF" shape-type="text" id="" font-size="11.750000" x="156" y="255">TIC83027</text>
<text font-family="宋体" text-anchor="start" fill="#FFFFFF" shape-type="text" id="" font-size="11.000000" x="215" y="278">℃</text>
<text font-family="Arial" text-anchor="start" fill="#00FFFF" shape-type="realdata" id="HCAB_ZQ_BH_TIC83027" font-size="13.250000" x="160" y="277">XXXX</text>
<rect shape-type="rectangle" x="153" y="364" width="66" height="22" fill="#4A494A" stroke="#C0C0C0" stroke-width="3.00"/>
<rect shape-type="rectangle" x="152" y="348" width="92" height="18" fill="#7B7D7B" stroke="#C0C0C0" stroke-width="3.00"/>
<rect shape-type="rectangle" x="219" y="364" width="25" height="22" fill="#4A494A" stroke="#C0C0C0" stroke-width="3.00"/>
<text font-family="宋体" text-anchor="start" fill="#FFFFFF" shape-type="text" id="" font-size="11.750000" x="164" y="360">FIC83006</text>
<text font-family="宋体" text-anchor="start" fill="#FFFFFF" shape-type="text" id="" font-size="8.750000" x="218" y="379">m3/h</text>
<text font-family="Arial" text-anchor="start" fill="#00FFFF" shape-type="realdata" id="HCAB_ZQ_BH_FIC83006" font-size="13.250000" x="155" y="378">XXXX</text>
<rect shape-type="rectangle" x="169" y="449" width="66" height="22" fill="#4A494A" stroke="#C0C0C0" stroke-width="3.00"/>
<rect shape-type="rectangle" x="168" y="432" width="92" height="18" fill="#7B7D7B" stroke="#C0C0C0" stroke-width="3.00"/>
<rect shape-type="rectangle" x="235" y="449" width="25" height="22" fill="#4A494A" stroke="#C0C0C0" stroke-width="3.00"/>
<text font-family="宋体" text-anchor="start" fill="#FFFFFF" shape-type="text" id="" font-size="9.500000" x="238" y="465">MPa</text>
<text font-family="宋体" text-anchor="start" fill="#FFFFFF" shape-type="text" id="" font-size="11.000000" x="165" y="445">PIC83011</text>
<text font-family="Arial" text-anchor="start" fill="#00FFFF" shape-type="realdata" id="HCAB_ZQ_BH_PIC83011" font-size="13.250000" x="180" y="465">XXXX</text>
<rect shape-type="rectangle" x="77" y="545" width="53" height="22" fill="#4A494A" stroke="#C0C0C0" stroke-width="3.00"/>
<rect shape-type="rectangle" x="77" y="528" width="76" height="18" fill="#7B7D7B" stroke="#C0C0C0" stroke-width="3.00"/>
<rect shape-type="rectangle" x="128" y="545" width="25" height="22" fill="#4A494A" stroke="#C0C0C0" stroke-width="3.00"/>
<text font-family="宋体" text-anchor="start" fill="#FFFFFF" shape-type="text" id="" font-size="11.000000" x="84" y="540">FI83007</text>
<text font-family="宋体" text-anchor="start" fill="#FFFFFF" shape-type="text" id="" font-size="10.250000" x="129" y="561">kg/h</text>
<rect shape-type="rectangle" x="150" y="649" width="66" height="22" fill="#4A494A" stroke="#C0C0C0" stroke-width="3.00"/>
<rect shape-type="rectangle" x="151" y="632" width="92" height="18" fill="#7B7D7B" stroke="#C0C0C0" stroke-width="3.00"/>
<rect shape-type="rectangle" x="213" y="649" width="29" height="22" fill="#4A494A" stroke="#C0C0C0" stroke-width="3.00"/>
<text font-family="宋体" text-anchor="start" fill="#FFFFFF" shape-type="text" id="" font-size="11.750000" x="149" y="645">FIC83008</text>
<text font-family="宋体" text-anchor="start" fill="#FFFFFF" shape-type="text" id="" font-size="10.250000" x="215" y="662">m3/h</text>
<text font-family="Arial" text-anchor="start" fill="#00FFFF" shape-type="realdata" id="HCAB_ZQ_BH_FIC83008" font-size="11.000000" x="152" y="662">XXXX</text>
<rect shape-type="rectangle" x="629" y="259" width="53" height="22" fill="#4A494A" stroke="#C0C0C0" stroke-width="3.00"/>
<rect shape-type="rectangle" x="629" y="242" width="76" height="18" fill="#7B7D7B" stroke="#C0C0C0" stroke-width="3.00"/>
<rect shape-type="rectangle" x="680" y="259" width="25" height="22" fill="#4A494A" stroke="#C0C0C0" stroke-width="3.00"/>
<text font-family="宋体" text-anchor="start" fill="#FFFFFF" shape-type="text" id="" font-size="13.250000" x="634" y="256">TI83028a</text>
<text font-family="宋体" text-anchor="start" fill="#FFFFFF" shape-type="text" id="" font-size="11.000000" x="685" y="275">℃</text>
<rect shape-type="rectangle" x="627" y="398" width="53" height="22" fill="#4A494A" stroke="#C0C0C0" stroke-width="3.00"/>
<rect shape-type="rectangle" x="628" y="382" width="76" height="18" fill="#7B7D7B" stroke="#C0C0C0" stroke-width="3.00"/>
<rect shape-type="rectangle" x="679" y="399" width="25" height="22" fill="#4A494A" stroke="#C0C0C0" stroke-width="3.00"/>
<text font-family="宋体" text-anchor="start" fill="#FFFFFF" shape-type="text" id="" font-size="13.250000" x="633" y="396">TI83028d</text>
<text font-family="宋体" text-anchor="start" fill="#FFFFFF" shape-type="text" id="" font-size="11.000000" x="684" y="415">℃</text>
<rect shape-type="rectangle" x="628" y="306" width="53" height="22" fill="#4A494A" stroke="#C0C0C0" stroke-width="3.00"/>
<rect shape-type="rectangle" x="628" y="289" width="76" height="18" fill="#7B7D7B" stroke="#C0C0C0" stroke-width="3.00"/>
<rect shape-type="rectangle" x="679" y="306" width="25" height="22" fill="#4A494A" stroke="#C0C0C0" stroke-width="3.00"/>
<text font-family="宋体" text-anchor="start" fill="#FFFFFF" shape-type="text" id="" font-size="13.250000" x="633" y="303">TI83028b</text>
<text font-family="宋体" text-anchor="start" fill="#FFFFFF" shape-type="text" id="" font-size="11.000000" x="684" y="322">℃</text>
<rect shape-type="rectangle" x="627" y="351" width="53" height="22" fill="#4A494A" stroke="#C0C0C0" stroke-width="3.00"/>
<rect shape-type="rectangle" x="628" y="335" width="76" height="18" fill="#7B7D7B" stroke="#C0C0C0" stroke-width="3.00"/>
<rect shape-type="rectangle" x="679" y="352" width="25" height="22" fill="#4A494A" stroke="#C0C0C0" stroke-width="3.00"/>
<text font-family="宋体" text-anchor="start" fill="#FFFFFF" shape-type="text" id="" font-size="13.250000" x="633" y="349">TI83028c</text>
<text font-family="宋体" text-anchor="start" fill="#FFFFFF" shape-type="text" id="" font-size="11.000000" x="684" y="368">℃</text>
<text font-family="Arial" text-anchor="start" fill="#00FFFF" shape-type="realdata" id="HCAB_ZQ_BH_TI83028a" font-size="13.250000" x="633" y="276">XXXX</text>
<text font-family="Arial" text-anchor="start" fill="#00FFFF" shape-type="realdata" id="HCAB_ZQ_BH_TI83028b" font-size="13.250000" x="633" y="322">XXXX</text>
<text font-family="Arial" text-anchor="start" fill="#00FFFF" shape-type="realdata" id="HCAB_ZQ_BH_TI83028c" font-size="12.500000" x="631" y="368">XXXX</text>
<text font-family="Arial" text-anchor="start" fill="#00FFFF" shape-type="realdata" id="HCAB_ZQ_BH_TI83028d" font-size="12.500000" x="632" y="413">XXXX</text>
<rect shape-type="rectangle" x="786" y="258" width="53" height="22" fill="#4A494A" stroke="#C0C0C0" stroke-width="3.00"/>
<rect shape-type="rectangle" x="786" y="241" width="76" height="18" fill="#7B7D7B" stroke="#C0C0C0" stroke-width="3.00"/>
<rect shape-type="rectangle" x="837" y="258" width="25" height="22" fill="#4A494A" stroke="#C0C0C0" stroke-width="3.00"/>
<text font-family="宋体" text-anchor="start" fill="#FFFFFF" shape-type="text" id="" font-size="13.250000" x="790" y="255">TI83029a</text>
<text font-family="宋体" text-anchor="start" fill="#FFFFFF" shape-type="text" id="" font-size="11.000000" x="842" y="274">℃</text>
<rect shape-type="rectangle" x="784" y="397" width="53" height="22" fill="#4A494A" stroke="#C0C0C0" stroke-width="3.00"/>
<rect shape-type="rectangle" x="785" y="381" width="76" height="18" fill="#7B7D7B" stroke="#C0C0C0" stroke-width="3.00"/>
<rect shape-type="rectangle" x="836" y="398" width="25" height="22" fill="#4A494A" stroke="#C0C0C0" stroke-width="3.00"/>
<text font-family="宋体" text-anchor="start" fill="#FFFFFF" shape-type="text" id="" font-size="13.250000" x="790" y="395">TI83029d</text>
<text font-family="宋体" text-anchor="start" fill="#FFFFFF" shape-type="text" id="" font-size="11.000000" x="841" y="414">℃</text>
<rect shape-type="rectangle" x="785" y="305" width="53" height="22" fill="#4A494A" stroke="#C0C0C0" stroke-width="3.00"/>
<rect shape-type="rectangle" x="785" y="288" width="76" height="18" fill="#7B7D7B" stroke="#C0C0C0" stroke-width="3.00"/>
<rect shape-type="rectangle" x="836" y="305" width="25" height="22" fill="#4A494A" stroke="#C0C0C0" stroke-width="3.00"/>
<text font-family="宋体" text-anchor="start" fill="#FFFFFF" shape-type="text" id="" font-size="13.250000" x="790" y="302">TI83029b</text>
<text font-family="宋体" text-anchor="start" fill="#FFFFFF" shape-type="text" id="" font-size="11.000000" x="841" y="321">℃</text>
<rect shape-type="rectangle" x="784" y="350" width="53" height="22" fill="#4A494A" stroke="#C0C0C0" stroke-width="3.00"/>
<rect shape-type="rectangle" x="785" y="334" width="76" height="18" fill="#7B7D7B" stroke="#C0C0C0" stroke-width="3.00"/>
<rect shape-type="rectangle" x="836" y="351" width="25" height="22" fill="#4A494A" stroke="#C0C0C0" stroke-width="3.00"/>
<text font-family="宋体" text-anchor="start" fill="#FFFFFF" shape-type="text" id="" font-size="13.250000" x="790" y="348">TI83029c</text>
<text font-family="宋体" text-anchor="start" fill="#FFFFFF" shape-type="text" id="" font-size="11.000000" x="841" y="367">℃</text>
<text font-family="Arial" text-anchor="start" fill="#00FFFF" shape-type="realdata" id="HCAB_ZQ_BH_TI83029a" font-size="11.750000" x="792" y="273">XXXX</text>
<text font-family="Arial" text-anchor="start" fill="#00FFFF" shape-type="realdata" id="HCAB_ZQ_BH_TI83029b" font-size="11.750000" x="787" y="320">XXXX</text>
<text font-family="Arial" text-anchor="start" fill="#00FFFF" shape-type="realdata" id="HCAB_ZQ_BH_TI83029c" font-size="11.750000" x="787" y="366">XXXX</text>
<text font-family="Arial" text-anchor="start" fill="#00FFFF" shape-type="realdata" id="HCAB_ZQ_BH_TI83029d" font-size="11.750000" x="786" y="412">XXXX</text>
<text font-family="宋体" text-anchor="start" fill="#FFFFFF" shape-type="text" id="" font-size="12.500000" x="890" y="324">PDI83010</text>
<text font-family="Arial" text-anchor="start" fill="#00FFFF" shape-type="realdata" id="HCAB_ZQ_BH_PDI83010" font-size="12.500000" x="883" y="343">XXXX</text>
<rect shape-type="rectangle" x="449" y="300" width="53" height="22" fill="#4A494A" stroke="#C0C0C0" stroke-width="3.00"/>
<rect shape-type="rectangle" x="449" y="283" width="76" height="18" fill="#7B7D7B" stroke="#C0C0C0" stroke-width="3.00"/>
<rect shape-type="rectangle" x="500" y="300" width="25" height="22" fill="#4A494A" stroke="#C0C0C0" stroke-width="3.00"/>
<text font-family="宋体" text-anchor="start" fill="#FFFFFF" shape-type="text" id="" font-size="11.000000" x="369" y="262">LIC83004</text>
<text font-family="宋体" text-anchor="start" fill="#FFFFFF" shape-type="text" id="" font-size="11.750000" x="433" y="283">%</text>
<rect shape-type="rectangle" x="372" y="554" width="53" height="22" fill="#4A494A" stroke="#C0C0C0" stroke-width="3.00"/>
<rect shape-type="rectangle" x="372" y="537" width="76" height="18" fill="#7B7D7B" stroke="#C0C0C0" stroke-width="3.00"/>
<rect shape-type="rectangle" x="423" y="554" width="25" height="22" fill="#4A494A" stroke="#C0C0C0" stroke-width="3.00"/>
<text font-family="宋体" text-anchor="start" fill="#FFFFFF" shape-type="text" id="" font-size="11.000000" x="374" y="550">LIC83006</text>
<text font-family="宋体" text-anchor="start" fill="#FFFFFF" shape-type="text" id="" font-size="11.750000" x="438" y="571">%</text>
<text font-family="宋体" text-anchor="start" fill="#FFFFFF" shape-type="text" id="" font-size="11.000000" x="452" y="295">LI83004C</text>
<text font-family="Arial" text-anchor="start" fill="#00FFFF" shape-type="realdata" id="HCAB_ZQ_BH_LIC83004C" font-size="7.250000" x="455" y="315">XXX</text>
<rect shape-type="rectangle" x="448" y="209" width="53" height="22" fill="#4A494A" stroke="#C0C0C0" stroke-width="3.00"/>
<rect shape-type="rectangle" x="448" y="192" width="76" height="18" fill="#7B7D7B" stroke="#C0C0C0" stroke-width="3.00"/>
<rect shape-type="rectangle" x="499" y="209" width="25" height="22" fill="#4A494A" stroke="#C0C0C0" stroke-width="3.00"/>
<text font-family="宋体" text-anchor="start" fill="#FFFFFF" shape-type="text" id="" font-size="11.000000" x="451" y="205">LI83004A</text>
<text font-family="宋体" text-anchor="start" fill="#FFFFFF" shape-type="text" id="" font-size="10.250000" x="506" y="226">%</text>
<text font-family="Arial" text-anchor="start" fill="#00FFFF" shape-type="realdata" id="HCAB_ZQ_BH_LIC83004A" font-size="7.250000" x="454" y="224">XXX</text>
<rect shape-type="rectangle" x="449" y="254" width="53" height="22" fill="#4A494A" stroke="#C0C0C0" stroke-width="3.00"/>
<rect shape-type="rectangle" x="449" y="237" width="76" height="18" fill="#7B7D7B" stroke="#C0C0C0" stroke-width="3.00"/>
<rect shape-type="rectangle" x="500" y="254" width="25" height="22" fill="#4A494A" stroke="#C0C0C0" stroke-width="3.00"/>
<text font-family="宋体" text-anchor="start" fill="#FFFFFF" shape-type="text" id="" font-size="11.000000" x="452" y="250">LI83004B</text>
<text font-family="宋体" text-anchor="start" fill="#FFFFFF" shape-type="text" id="" font-size="10.250000" x="507" y="271">%</text>
<text font-family="Arial" text-anchor="start" fill="#00FFFF" shape-type="realdata" id="HCAB_ZQ_BH_LIC83004B" font-size="7.250000" x="455" y="269">XXX</text>
<text font-family="宋体" text-anchor="start" fill="#FFFFFF" shape-type="text" id="" font-size="11.750000" x="509" y="314">%</text>
<rect shape-type="rectangle" x="458" y="637" width="53" height="22" fill="#4A494A" stroke="#C0C0C0" stroke-width="3.00"/>
<rect shape-type="rectangle" x="458" y="620" width="76" height="18" fill="#7B7D7B" stroke="#C0C0C0" stroke-width="3.00"/>
<rect shape-type="rectangle" x="509" y="637" width="25" height="22" fill="#4A494A" stroke="#C0C0C0" stroke-width="3.00"/>
<text font-family="宋体" text-anchor="start" fill="#FFFFFF" shape-type="text" id="" font-size="11.000000" x="461" y="632">LI83006C</text>
<text font-family="Arial" text-anchor="start" fill="#00FFFF" shape-type="realdata" id="HCAB_ZQ_BH_LIC83006C" font-size="7.250000" x="464" y="652">XXXX</text>
<rect shape-type="rectangle" x="457" y="546" width="53" height="22" fill="#4A494A" stroke="#C0C0C0" stroke-width="3.00"/>
<rect shape-type="rectangle" x="457" y="529" width="76" height="18" fill="#7B7D7B" stroke="#C0C0C0" stroke-width="3.00"/>
<rect shape-type="rectangle" x="508" y="546" width="25" height="22" fill="#4A494A" stroke="#C0C0C0" stroke-width="3.00"/>
<text font-family="宋体" text-anchor="start" fill="#FFFFFF" shape-type="text" id="" font-size="11.000000" x="459" y="542">LI83006A</text>
<text font-family="宋体" text-anchor="start" fill="#FFFFFF" shape-type="text" id="" font-size="10.250000" x="515" y="563">%</text>
<text font-family="Arial" text-anchor="start" fill="#00FFFF" shape-type="realdata" id="HCAB_ZQ_BH_LIC83006A" font-size="7.250000" x="463" y="561">XXXX</text>
<rect shape-type="rectangle" x="458" y="591" width="53" height="22" fill="#4A494A" stroke="#C0C0C0" stroke-width="3.00"/>
<rect shape-type="rectangle" x="458" y="574" width="76" height="18" fill="#7B7D7B" stroke="#C0C0C0" stroke-width="3.00"/>
<rect shape-type="rectangle" x="509" y="591" width="25" height="22" fill="#4A494A" stroke="#C0C0C0" stroke-width="3.00"/>
<text font-family="宋体" text-anchor="start" fill="#FFFFFF" shape-type="text" id="" font-size="11.000000" x="461" y="587">LI83006B</text>
<text font-family="宋体" text-anchor="start" fill="#FFFFFF" shape-type="text" id="" font-size="10.250000" x="516" y="608">%</text>
<text font-family="Arial" text-anchor="start" fill="#00FFFF" shape-type="realdata" id="HCAB_ZQ_BH_LIC83006B" font-size="7.250000" x="464" y="606">XXXX</text>
<text font-family="宋体" text-anchor="start" fill="#FFFFFF" shape-type="text" id="" font-size="11.750000" x="517" y="653">%</text>
<line shape-type="line" x1="746" y1="233" x2="745" y2="222" marker-start="url(#Arrow2)" fill="#C0C0C0" stroke="#0000FF" stroke-width="3.00"/>
<line shape-type="line" x1="670" y1="638" x2="670" y2="651" fill="#00FFFF" stroke="#FFFFFF" stroke-width="3.00" stroke-dasharray="5 10"/>
<line shape-type="line" x1="105" y1="149" x2="106" y2="186" fill="#00FFFF" stroke="#FFFFFF" stroke-width="3.00" stroke-dasharray="5 10"/>
<line shape-type="line" x1="192" y1="148" x2="193" y2="166" fill="#00FFFF" stroke="#FFFFFF" stroke-width="3.00" stroke-dasharray="5 10"/>
<line shape-type="line" x1="300" y1="126" x2="300" y2="187" fill="#00FFFF" stroke="#FFFFFF" stroke-width="3.00" stroke-dasharray="5 10"/>
<line shape-type="line" x1="253" y1="121" x2="301" y2="123" fill="#00FFFF" stroke="#FFFFFF" stroke-width="3.00" stroke-dasharray="5 10"/>
<line shape-type="line" x1="101" y1="234" x2="101" y2="252" fill="#00FFFF" stroke="#FFFFFF" stroke-width="3.00" stroke-dasharray="5 10"/>
<line shape-type="line" x1="194" y1="283" x2="194" y2="301" fill="#00FFFF" stroke="#FFFFFF" stroke-width="3.00" stroke-dasharray="5 10"/>
<line shape-type="line" x1="235" y1="264" x2="244" y2="263" fill="#00FFFF" stroke="#FFFFFF" stroke-width="3.00" stroke-dasharray="5 10"/>
<line shape-type="line" x1="243" y1="264" x2="244" y2="328" fill="#00FFFF" stroke="#FFFFFF" stroke-width="3.00" stroke-dasharray="5 10"/>
<line shape-type="line" x1="248" y1="328" x2="264" y2="328" fill="#00FFFF" stroke="#FFFFFF" stroke-width="3.00" stroke-dasharray="5 10"/>
<line shape-type="line" x1="353" y1="268" x2="368" y2="268" fill="#00FFFF" stroke="#FFFFFF" stroke-width="3.00" stroke-dasharray="5 10"/>
<line shape-type="line" x1="403" y1="289" x2="404" y2="367" fill="#00FFFF" stroke="#FFFFFF" stroke-width="3.00" stroke-dasharray="5 10"/>
<line shape-type="line" x1="245" y1="365" x2="406" y2="365" fill="#00FFFF" stroke="#FFFFFF" stroke-width="3.00" stroke-dasharray="5 10"/>
<line shape-type="line" x1="191" y1="385" x2="191" y2="403" fill="#00FFFF" stroke="#FFFFFF" stroke-width="3.00" stroke-dasharray="5 10"/>
<line shape-type="line" x1="106" y1="498" x2="106" y2="534" fill="#00FFFF" stroke="#FFFFFF" stroke-width="3.00" stroke-dasharray="5 10"/>
<line shape-type="line" x1="163" y1="384" x2="164" y2="415" fill="#00FFFF" stroke="#FFFFFF" stroke-width="3.00" stroke-dasharray="5 10"/>
<line shape-type="line" x1="142" y1="448" x2="141" y2="497" fill="#00FFFF" stroke="#FFFFFF" stroke-width="3.00" stroke-dasharray="5 10"/>
<line shape-type="line" x1="138" y1="449" x2="168" y2="449" fill="#00FFFF" stroke="#FFFFFF" stroke-width="3.00" stroke-dasharray="5 10"/>
<line shape-type="line" x1="196" y1="470" x2="196" y2="488" fill="#00FFFF" stroke="#FFFFFF" stroke-width="3.00" stroke-dasharray="5 10"/>
<line shape-type="line" x1="356" y1="554" x2="383" y2="553" fill="#00FFFF" stroke="#FFFFFF" stroke-width="3.00" stroke-dasharray="5 10"/>
<line shape-type="line" x1="405" y1="574" x2="406" y2="652" fill="#00FFFF" stroke="#FFFFFF" stroke-width="3.00" stroke-dasharray="5 10"/>
<line shape-type="line" x1="244" y1="650" x2="405" y2="650" fill="#00FFFF" stroke="#FFFFFF" stroke-width="3.00" stroke-dasharray="5 10"/>
<line shape-type="line" x1="158" y1="671" x2="158" y2="707" fill="#00FFFF" stroke="#FFFFFF" stroke-width="3.00" stroke-dasharray="5 10"/>
<line shape-type="line" x1="194" y1="673" x2="194" y2="691" fill="#00FFFF" stroke="#FFFFFF" stroke-width="3.00" stroke-dasharray="5 10"/>
<line shape-type="line" x1="749" y1="483" x2="935" y2="482" fill="#00FFFF" stroke="#FFFFFF" stroke-width="3.00" stroke-dasharray="5 10"/>
<line shape-type="line" x1="934" y1="353" x2="934" y2="482" fill="#00FFFF" stroke="#FFFFFF" stroke-width="3.00" stroke-dasharray="5 10"/>
<line shape-type="line" x1="745" y1="209" x2="792" y2="209" fill="#00FFFF" stroke="#FFFFFF" stroke-width="3.00" stroke-dasharray="5 10"/>
<line shape-type="line" x1="747" y1="225" x2="934" y2="226" fill="#00FFFF" stroke="#FFFFFF" stroke-width="3.00" stroke-dasharray="5 10"/>
<line shape-type="line" x1="932" y1="229" x2="934" y2="306" fill="#00FFFF" stroke="#FFFFFF" stroke-width="3.00" stroke-dasharray="5 10"/>
<line shape-type="line" x1="854" y1="546" x2="901" y2="545" fill="#00FFFF" stroke="#FFFFFF" stroke-width="3.00" stroke-dasharray="5 10"/>
<line shape-type="line" x1="748" y1="442" x2="779" y2="443" fill="#00FFFF" stroke="#FFFFFF" stroke-width="3.00" stroke-dasharray="5 10"/>
<line shape-type="line" x1="152" y1="313" x2="151" y2="302" marker-start="url(#Arrow2)" fill="#C0C0C0" stroke="#0000FF" stroke-width="3.00"/>
<line shape-type="line" x1="265" y1="248" x2="265" y2="238" marker-start="url(#Arrow2)" fill="#C0C0C0" stroke="#0000FF" stroke-width="3.00"/>
<line shape-type="line" x1="727" y1="652" x2="726" y2="641" marker-start="url(#Arrow2)" fill="#C0C0C0" stroke="#0000FF" stroke-width="3.00"/>
<line shape-type="line" x1="746" y1="524" x2="745" y2="513" marker-start="url(#Arrow2)" fill="#C0C0C0" stroke="#0000FF" stroke-width="3.00"/>
<line shape-type="line" x1="728" y1="653" x2="606" y2="654" fill="#00FFFF" stroke="#0000FF" stroke-width="3.00"/>
<line shape-type="line" x1="265" y1="542" x2="264" y2="531" marker-start="url(#Arrow2)" fill="#C0C0C0" stroke="#0000FF" stroke-width="3.00"/>
<line shape-type="line" x1="263" y1="513" x2="263" y2="531" fill="#00FFFF" stroke="#0000FF" stroke-width="3.00"/>
<line shape-type="line" x1="309" y1="243" x2="310" y2="185" fill="#00FFFF" stroke="#FF0000" stroke-width="3.00"/>
<text font-family="Arial" text-anchor="start" fill="#00FFFF" shape-type="realdata" id="HCAB_ZQ_BH_FI83007" font-size="10.250000" x="80" y="559">XXXX</text>
<rect shape-type="rectangle" x="623" y="615" width="66" height="22" fill="#4A494A" stroke="#C0C0C0" stroke-width="3.00"/>
<rect shape-type="rectangle" x="623" y="597" width="92" height="18" fill="#7B7D7B" stroke="#C0C0C0" stroke-width="3.00"/>
<rect shape-type="rectangle" x="690" y="615" width="25" height="22" fill="#4A494A" stroke="#C0C0C0" stroke-width="3.00"/>
<text font-family="宋体" text-anchor="start" fill="#FFFFFF" shape-type="text" id="" font-size="11.000000" x="635" y="609">TI83036</text>
<text font-family="宋体" text-anchor="start" fill="#FFFFFF" shape-type="text" id="" font-size="11.000000" x="696" y="634">℃</text>
<text font-family="Arial" text-anchor="start" fill="#00FFFF" shape-type="realdata" id="HCAB_ZQ_BH_TI83036" font-size="13.250000" x="625" y="630">XXXX</text>
<rect shape-type="rectangle" x="780" y="446" width="66" height="22" fill="#4A494A" stroke="#C0C0C0" stroke-width="3.00"/>
<rect shape-type="rectangle" x="780" y="428" width="92" height="18" fill="#7B7D7B" stroke="#C0C0C0" stroke-width="3.00"/>
<rect shape-type="rectangle" x="847" y="446" width="25" height="22" fill="#4A494A" stroke="#C0C0C0" stroke-width="3.00"/>
<text font-family="宋体" text-anchor="start" fill="#FFFFFF" shape-type="text" id="" font-size="11.000000" x="792" y="440">TI83034</text>
<text font-family="宋体" text-anchor="start" fill="#FFFFFF" shape-type="text" id="" font-size="11.000000" x="853" y="465">℃</text>
<text font-family="Arial" text-anchor="start" fill="#00FFFF" shape-type="realdata" id="HCAB_ZQ_BH_TI83034" font-size="11.750000" x="779" y="462">XXXX</text>
</svg>
