<?xml version="1.0"?>
<?xml-stylesheet type='text/javascript'?>
<!--Draw SVG: 2019-11-25 09:41:30 47-Monday-->
<svg xmlns="http://www.w3.org/2000/svg" xmlns:xlink="http://www.w3.org/1999/xlink" version="1.1" style="background-color:#000000" width="1065" height="800" viewbox="0 0 1065 800">
<defs>
</defs>
<rect shape-type="rectangle" x="3" y="2" width="1054" height="47" fill="#9C9A9C" stroke="#C0C0C0" stroke-width="1.00"/>
<rect shape-type="rectangle" x="348" y="7" width="468" height="36" fill="#E7E3E7" stroke="#E7E3E7" stroke-width="1.00"/>
<text font-family="宋体" text-anchor="start" fill="#000000" shape-type="text" id="" font-size="26.750000" font-weight="bold" x="415" y="35">九万吨蒸汽管网</text>
<line shape-type="limitline" x1="78" y1="310" x2="977" y2="310" fill="#FFFF00" stroke="#FFFF00" stroke-width="3.00"/>
<line shape-type="limitline" x1="302" y1="313" x2="302" y2="370" fill="#FFFF00" stroke="#FFFF00" stroke-width="3.00"/>
<line shape-type="limitline" x1="507" y1="494" x2="982" y2="494" fill="#FFFFFF" stroke="#FFFF00" stroke-width="3.00"/>
<line shape-type="limitline" x1="507" y1="312" x2="507" y2="493" fill="#FFFF00" stroke="#FFFF00" stroke-width="3.00"/>
<g shape-type="group">
<path shape-type="chord" d="M 518,401 A 21,15 0 1,0 518,377 z" fill="#C0C0C0" stroke="#C0C0C0" stroke-width="2.00"/>
<g shape-type="group">
<polygon shape-type="trapezium" points="501,402 511,402 506,389 506,389 501,402" fill="#C0C0C0" stroke="#C0C0C0" stroke-width="1.00"/>
<polygon shape-type="trapezium" points="501,376 511,376 506,389 506,389 501,376" fill="#C0C0C0" stroke="#C0C0C0" stroke-width="1.00"/>
</g>
<line shape-type="limitline" x1="519" y1="390" x2="510" y2="391" fill="#00FFFF" stroke="#C0C0C0" stroke-width="1.00"/>
<polygon shape-type="trapezium" points="516,394 516,384 506,389 506,389 516,394" fill="#C0C0C0" stroke="#C0C0C0" stroke-width="1.00"/>
</g>
<g shape-type="group">
<path shape-type="chord" d="M 779,653 A 15,22 0 0,0 755,653 z" fill="#C0C0C0" stroke="#C0C0C0" stroke-width="2.00"/>
<g shape-type="group">
<polygon shape-type="trapezium" points="753,658 753,670 766,664 766,664 753,658" fill="#C0C0C0" stroke="#C0C0C0" stroke-width="1.00"/>
<polygon shape-type="trapezium" points="779,658 779,670 766,664 766,664 779,658" fill="#C0C0C0" stroke="#C0C0C0" stroke-width="1.00"/>
</g>
<line shape-type="limitline" x1="767" y1="652" x2="766" y2="660" fill="#00FFFF" stroke="#C0C0C0" stroke-width="1.00"/>
<polygon shape-type="trapezium" points="771,655 761,655 766,665 766,665 771,655" fill="#C0C0C0" stroke="#C0C0C0" stroke-width="1.00"/>
</g>
<text font-family="宋体" text-anchor="start" fill="#FFFFFF" shape-type="text" id="" font-size="12.500000" x="82" y="153">MPS</text>
<polygon shape-type="trapezium" points="306,355 295,355 301,367 301,367 306,355" fill="#FFFF00" stroke="#FFFF00" stroke-width="2.00"/>
<polygon shape-type="trapezium" points="511,482 503,482 507,493 507,493 511,482" fill="#FFFF00" stroke="#FFFF00" stroke-width="2.00"/>
<rect shape-type="rectangle" x="1" y="739" width="1069" height="63" fill="#BDBABD" stroke="#BDBABD" stroke-width="1.00"/>
<g shape-type="group">
<rect shape-type="rectangle" x="997" y="748" width="48" height="43" fill="#C6C3C6" stroke="#C6C3C6" stroke-width="1.00"/>
<polygon shape-type="trapezium" points="1014,779 1014,759 1032,769 1032,769 1014,779" fill="#4A494A" stroke="#C6C3C6" stroke-width="2.00"/>
</g>
<g shape-type="group">
<rect shape-type="rectangle" x="14" y="748" width="46" height="39" fill="#C6C3C6" stroke="#C6C3C6" stroke-width="1.00"/>
<polygon shape-type="trapezium" points="42,776 42,756 23,766 23,766 42,776" fill="#4A494A" stroke="#C6C3C6" stroke-width="2.00"/>
</g>
<a xlink:href="M5301.svg">
<g shape-type="button">
<rect fill="#C0C0C0" stroke-width="0.3" stroke="#FFFFFF" x="83" y="749" width="100" height="42" shape-type="buttonrect"/>
<text font-family="宋体" text-anchor="middle" dominant-baseline="middle" fill="#000000" font-size="13.500000" x="133" y="776" shape-type="buttontext">M5301</text>
</g>
</a>
<a xlink:href="M5302.svg">
<g shape-type="button">
<rect fill="#C0C0C0" stroke-width="0.3" stroke="#FFFFFF" x="206" y="749" width="163" height="42" shape-type="buttonrect"/>
<text font-family="宋体" text-anchor="middle" dominant-baseline="middle" fill="#000000" font-size="13.500000" x="288" y="776" shape-type="buttontext">M5302</text>
</g>
</a>
<a xlink:href="M5303.svg">
<g shape-type="button">
<rect fill="#C0C0C0" stroke-width="0.3" stroke="#FFFFFF" x="394" y="749" width="92" height="42" shape-type="buttonrect"/>
<text font-family="宋体" text-anchor="middle" dominant-baseline="middle" fill="#000000" font-size="13.500000" x="440" y="776" shape-type="buttontext">M5303</text>
</g>
</a>
<a xlink:href="5300_ML.svg">
<g shape-type="button">
<rect fill="#C0C0C0" stroke-width="0.3" stroke="#FFFFFF" x="950" y="11" width="98" height="30" shape-type="buttonrect"/>
<text font-family="宋体" text-anchor="middle" dominant-baseline="middle" fill="#800000" font-size="13.500000" font-weight="bold" x="999" y="32" shape-type="buttontext">返回上一级</text>
</g>
</a>
<line shape-type="limitline" x1="980" y1="163" x2="81" y2="163" fill="#FFFF00" stroke="#FFFF00" stroke-width="3.00"/>
<line shape-type="limitline" x1="82" y1="229" x2="543" y2="229" fill="#FFFF00" stroke="#FFFF00" stroke-width="3.00"/>
<line shape-type="limitline" x1="544" y1="162" x2="544" y2="227" fill="#FFFF00" stroke="#FFFF00" stroke-width="3.00"/>
<line shape-type="limitline" x1="83" y1="372" x2="302" y2="372" fill="#FFFFFF" stroke="#FFFF00" stroke-width="3.00"/>
<polygon shape-type="trapezium" points="492,445 492,435 505,440 505,440 492,445" fill="#FFFF00" stroke="#FFFF00" stroke-width="2.00"/>
<line shape-type="limitline" x1="495" y1="441" x2="83" y2="441" fill="#FFFF00" stroke="#FFFF00" stroke-width="3.00"/>
<g shape-type="group">
<path shape-type="chord" d="M 338,430 A 16,21 0 0,0 313,430 z" fill="#C0C0C0" stroke="#C0C0C0" stroke-width="2.00"/>
<g shape-type="group">
<polygon shape-type="trapezium" points="311,435 311,446 325,441 325,441 311,435" fill="#C0C0C0" stroke="#C0C0C0" stroke-width="1.00"/>
<polygon shape-type="trapezium" points="339,435 339,446 324,441 324,441 339,435" fill="#C0C0C0" stroke="#C0C0C0" stroke-width="1.00"/>
</g>
<line shape-type="limitline" x1="325" y1="428" x2="324" y2="436" fill="#00FFFF" stroke="#C0C0C0" stroke-width="1.00"/>
<polygon shape-type="trapezium" points="329,431 320,431 325,441 325,441 329,431" fill="#C0C0C0" stroke="#C0C0C0" stroke-width="1.00"/>
</g>
<line shape-type="limitline" x1="681" y1="311" x2="681" y2="437" fill="#FFFF00" stroke="#FFFF00" stroke-width="3.00"/>
<polygon shape-type="trapezium" points="686,425 675,425 681,437 681,437 686,425" fill="#FFFF00" stroke="#FFFF00" stroke-width="2.00"/>
<line shape-type="limitline" x1="980" y1="439" x2="680" y2="439" fill="#FFFFFF" stroke="#FFFF00" stroke-width="3.00"/>
<line shape-type="limitline" x1="716" y1="311" x2="716" y2="392" fill="#FFFF00" stroke="#FFFF00" stroke-width="3.00"/>
<polygon shape-type="trapezium" points="710,325 721,325 715,315 715,315 710,325" fill="#FFFF00" stroke="#FFFF00" stroke-width="2.00"/>
<line shape-type="limitline" x1="717" y1="394" x2="981" y2="394" fill="#FFFFFF" stroke="#FFFF00" stroke-width="3.00"/>
<line shape-type="limitline" x1="760" y1="311" x2="760" y2="354" fill="#FFFF00" stroke="#FFFF00" stroke-width="3.00"/>
<polygon shape-type="trapezium" points="765,343 754,343 760,355 760,355 765,343" fill="#FFFF00" stroke="#FFFF00" stroke-width="2.00"/>
<line shape-type="limitline" x1="761" y1="355" x2="982" y2="355" fill="#FFFFFF" stroke="#FFFF00" stroke-width="3.00"/>
<line shape-type="limitline" x1="531" y1="495" x2="531" y2="526" fill="#FFFF00" stroke="#FFFF00" stroke-width="3.00"/>
<polygon shape-type="trapezium" points="536,511 525,511 531,523 531,523 536,511" fill="#FFFF00" stroke="#FFFF00" stroke-width="2.00"/>
<line shape-type="limitline" x1="530" y1="528" x2="91" y2="528" fill="#FFFFFF" stroke="#FFFF00" stroke-width="3.00"/>
<line shape-type="limitline" x1="571" y1="558" x2="571" y2="495" fill="#FFFF00" stroke="#FFFF00" stroke-width="3.00"/>
<polygon shape-type="trapezium" points="576,543 565,543 571,555 571,555 576,543" fill="#FFFF00" stroke="#FFFF00" stroke-width="2.00"/>
<line shape-type="limitline" x1="570" y1="560" x2="89" y2="560" fill="#FFFFFF" stroke="#FFFF00" stroke-width="3.00"/>
<line shape-type="limitline" x1="606" y1="495" x2="606" y2="662" fill="#FFFF00" stroke="#FFFF00" stroke-width="3.00"/>
<polygon shape-type="trapezium" points="600,514 610,514 605,501 605,501 600,514" fill="#FFFF00" stroke="#FFFF00" stroke-width="2.00"/>
<line shape-type="limitline" x1="605" y1="664" x2="84" y2="664" fill="#FFFFFF" stroke="#FFFF00" stroke-width="3.00"/>
<line shape-type="limitline" x1="689" y1="494" x2="689" y2="665" fill="#FFFF00" stroke="#FFFF00" stroke-width="3.00"/>
<polygon shape-type="trapezium" points="694,651 683,651 689,663 689,663 694,651" fill="#FFFF00" stroke="#FFFF00" stroke-width="2.00"/>
<line shape-type="limitline" x1="690" y1="665" x2="984" y2="665" fill="#FFFFFF" stroke="#FFFF00" stroke-width="3.00"/>
<line shape-type="limitline" x1="736" y1="494" x2="736" y2="575" fill="#FFFF00" stroke="#FFFF00" stroke-width="3.00"/>
<polygon shape-type="trapezium" points="741,563 730,563 736,575 736,575 741,563" fill="#FFFF00" stroke="#FFFF00" stroke-width="2.00"/>
<line shape-type="limitline" x1="737" y1="577" x2="980" y2="577" fill="#FFFFFF" stroke="#FFFF00" stroke-width="3.00"/>
<line shape-type="limitline" x1="780" y1="494" x2="780" y2="537" fill="#FFFF00" stroke="#FFFF00" stroke-width="3.00"/>
<polygon shape-type="trapezium" points="785,526 774,526 780,538 780,538 785,526" fill="#FFFF00" stroke="#FFFF00" stroke-width="2.00"/>
<line shape-type="limitline" x1="781" y1="538" x2="983" y2="538" fill="#FFFFFF" stroke="#FFFF00" stroke-width="3.00"/>
<g shape-type="group">
<line shape-type="limitline" x1="985" y1="315" x2="984" y2="303" fill="#FFFF00" stroke="#FFFF00" stroke-width="2.00"/>
<line shape-type="limitline" x1="978" y1="315" x2="977" y2="303" fill="#FFFF00" stroke="#FFFF00" stroke-width="2.00"/>
</g>
<g shape-type="group">
<line shape-type="limitline" x1="990" y1="499" x2="989" y2="488" fill="#FFFF00" stroke="#FFFF00" stroke-width="2.00"/>
<line shape-type="limitline" x1="983" y1="499" x2="982" y2="488" fill="#FFFF00" stroke="#FFFF00" stroke-width="2.00"/>
</g>
<polygon shape-type="trapezium" points="255,233 255,223 268,228 268,228 255,233" fill="#FFFF00" stroke="#FFFF00" stroke-width="2.00"/>
<polygon shape-type="trapezium" points="287,158 287,168 275,163 275,163 287,158" fill="#FFFF00" stroke="#FFFF00" stroke-width="2.00"/>
<polygon shape-type="trapezium" points="662,168 662,158 673,163 673,163 662,168" fill="#FFFF00" stroke="#FFFF00" stroke-width="2.00"/>
<polygon shape-type="trapezium" points="539,176 550,176 544,166 544,166 539,176" fill="#FFFF00" stroke="#FFFF00" stroke-width="2.00"/>
<polygon shape-type="trapezium" points="209,305 209,315 197,310 197,310 209,305" fill="#FFFF00" stroke="#FFFF00" stroke-width="2.00"/>
<text font-family="宋体" text-anchor="start" fill="#FFFFFF" shape-type="text" id="" font-size="12.500000" x="76" y="184">去空分装置</text>
<text font-family="宋体" text-anchor="start" fill="#FFFFFF" shape-type="text" id="" font-size="12.500000" x="80" y="218">来自E5302的中压蒸汽</text>
<text font-family="宋体" text-anchor="start" fill="#FFFFFF" shape-type="text" id="" font-size="12.500000" x="954" y="153">MPS</text>
<text font-family="宋体" text-anchor="start" fill="#FFFFFF" shape-type="text" id="" font-size="12.500000" x="891" y="183">去氮磷管廊</text>
<text font-family="宋体" text-anchor="start" fill="#FFFFFF" shape-type="text" id="" font-size="12.500000" x="87" y="299">低压蒸汽管网</text>
<text font-family="宋体" text-anchor="start" fill="#FFFFFF" shape-type="text" id="" font-size="12.500000" x="88" y="363">低压蒸汽  去空分装置</text>
<text font-family="宋体" text-anchor="start" fill="#FFFFFF" shape-type="text" id="" font-size="12.500000" x="88" y="433">脱盐水DW</text>
<text font-family="宋体" text-anchor="start" fill="#FFFFFF" shape-type="text" id="" font-size="12.500000" x="122" y="517">去5600单元</text>
<text font-family="宋体" text-anchor="start" fill="#FFFFFF" shape-type="text" id="" font-size="12.500000" x="123" y="553">去5400单元</text>
<text font-family="宋体" text-anchor="start" fill="#FFFFFF" shape-type="text" id="" font-size="12.500000" x="108" y="655">来自E5309A/B的低低压蒸汽</text>
<text font-family="宋体" text-anchor="start" fill="#FFFFFF" shape-type="text" id="" font-size="12.500000" x="893" y="345">去5200单元</text>
<text font-family="宋体" text-anchor="start" fill="#FFFFFF" shape-type="text" id="" font-size="12.500000" x="835" y="386">来自E5305低压蒸汽</text>
<text font-family="宋体" text-anchor="start" fill="#FFFFFF" shape-type="text" id="" font-size="12.500000" x="891" y="430">去5400单元</text>
<text font-family="宋体" text-anchor="start" fill="#FFFFFF" shape-type="text" id="" font-size="12.500000" x="866" y="529">去制氢火炬单元</text>
<text font-family="宋体" text-anchor="start" fill="#FFFFFF" shape-type="text" id="" font-size="12.500000" x="895" y="568">去5200单元</text>
<text font-family="宋体" text-anchor="start" fill="#FFFFFF" shape-type="text" id="" font-size="12.500000" x="864" y="656">去制氢循环水站</text>
<rect shape-type="rectangle" x="725" y="613" width="66" height="23" fill="#4A494A" stroke="#C0C0C0" stroke-width="3.00"/>
<rect shape-type="rectangle" x="725" y="594" width="92" height="18" fill="#7B7D7B" stroke="#C0C0C0" stroke-width="3.00"/>
<rect shape-type="rectangle" x="792" y="613" width="25" height="22" fill="#4A494A" stroke="#C0C0C0" stroke-width="3.00"/>
<text font-family="宋体" text-anchor="start" fill="#FFFFFF" shape-type="text" id="" font-size="8.750000" x="797" y="627">MPa</text>
<text font-family="宋体" text-anchor="start" fill="#FFFFFF" shape-type="text" id="" font-size="11.750000" x="730" y="607">PIC83012A</text>
<text font-family="宋体" text-anchor="start" fill="#0000FF" shape-type="text" id="" font-size="13.250000" x="804" y="607">M</text>
<line shape-type="line" x1="767" y1="646" x2="766" y2="632" fill="#00FFFF" stroke="#FFFFFF" stroke-width="3.00" stroke-dasharray="5 10"/>
<line shape-type="line" x1="580" y1="470" x2="508" y2="469" fill="#00FFFF" stroke="#FFFFFF" stroke-width="3.00" stroke-dasharray="5 10"/>
<text font-family="Arial" text-anchor="start" fill="#00FFFF" shape-type="realdata" id="HCAB_ZQ_BH_PIC83012b" font-size="13.250000" x="726" y="630">XXX</text>
<rect shape-type="rectangle" x="549" y="392" width="66" height="23" fill="#4A494A" stroke="#C0C0C0" stroke-width="3.00"/>
<rect shape-type="rectangle" x="549" y="373" width="92" height="18" fill="#7B7D7B" stroke="#C0C0C0" stroke-width="3.00"/>
<rect shape-type="rectangle" x="616" y="392" width="25" height="22" fill="#4A494A" stroke="#C0C0C0" stroke-width="3.00"/>
<text font-family="宋体" text-anchor="start" fill="#FFFFFF" shape-type="text" id="" font-size="8.750000" x="621" y="406">MPa</text>
<text font-family="宋体" text-anchor="start" fill="#FFFFFF" shape-type="text" id="" font-size="11.750000" x="554" y="386">PIC80106</text>
<text font-family="宋体" text-anchor="start" fill="#0000FF" shape-type="text" id="" font-size="13.250000" x="628" y="386">M</text>
<line shape-type="line" x1="546" y1="390" x2="524" y2="389" fill="#00FFFF" stroke="#FFFFFF" stroke-width="3.00" stroke-dasharray="5 10"/>
<text font-family="Arial" text-anchor="start" fill="#00FFFF" shape-type="realdata" id="HCAB_ZQ_BH_PIC80106" font-size="13.250000" x="551" y="407">XXX</text>
<line shape-type="line" x1="581" y1="414" x2="580" y2="470" fill="#00FFFF" stroke="#FFFFFF" stroke-width="3.00" stroke-dasharray="5 10"/>
<rect shape-type="rectangle" x="381" y="385" width="66" height="23" fill="#4A494A" stroke="#C0C0C0" stroke-width="3.00"/>
<rect shape-type="rectangle" x="381" y="366" width="92" height="18" fill="#7B7D7B" stroke="#C0C0C0" stroke-width="3.00"/>
<rect shape-type="rectangle" x="448" y="385" width="25" height="22" fill="#4A494A" stroke="#C0C0C0" stroke-width="3.00"/>
<text font-family="宋体" text-anchor="start" fill="#FFFFFF" shape-type="text" id="" font-size="8.750000" x="453" y="399">MPa</text>
<text font-family="宋体" text-anchor="start" fill="#FFFFFF" shape-type="text" id="" font-size="11.750000" x="386" y="379">TIC80106</text>
<text font-family="宋体" text-anchor="start" fill="#0000FF" shape-type="text" id="" font-size="13.250000" x="460" y="379">M</text>
<line shape-type="line" x1="378" y1="383" x2="324" y2="383" fill="#00FFFF" stroke="#FFFFFF" stroke-width="3.00" stroke-dasharray="5 10"/>
<text font-family="Arial" text-anchor="start" fill="#00FFFF" shape-type="realdata" id="HCAB_ZQ_BH_TIC80106" font-size="13.250000" x="381" y="400">XXX</text>
<line shape-type="line" x1="413" y1="407" x2="413" y2="454" fill="#00FFFF" stroke="#FFFFFF" stroke-width="3.00" stroke-dasharray="5 10"/>
<line shape-type="line" x1="505" y1="457" x2="414" y2="456" fill="#00FFFF" stroke="#FFFFFF" stroke-width="3.00" stroke-dasharray="5 10"/>
<line shape-type="line" x1="325" y1="385" x2="325" y2="420" fill="#00FFFF" stroke="#FFFFFF" stroke-width="3.00" stroke-dasharray="5 10"/>
<rect shape-type="rectangle" x="174" y="125" width="39" height="23" fill="#4A494A" stroke="#C0C0C0" stroke-width="3.00"/>
<rect shape-type="rectangle" x="174" y="106" width="66" height="18" fill="#7B7D7B" stroke="#C0C0C0" stroke-width="3.00"/>
<rect shape-type="rectangle" x="215" y="125" width="25" height="22" fill="#4A494A" stroke="#C0C0C0" stroke-width="3.00"/>
<text font-family="宋体" text-anchor="start" fill="#FFFFFF" shape-type="text" id="" font-size="8.750000" x="220" y="139">MPa</text>
<text font-family="宋体" text-anchor="start" fill="#FFFFFF" shape-type="text" id="" font-size="11.750000" x="179" y="119">PI80116</text>
<text font-family="Arial" text-anchor="start" fill="#00FFFF" shape-type="realdata" id="HCAB_ZQ_BH_PI80116" font-size="13.250000" x="177" y="140">XXX</text>
<line shape-type="line" x1="206" y1="147" x2="206" y2="163" fill="#00FFFF" stroke="#FFFFFF" stroke-width="3.00" stroke-dasharray="5 10"/>
<line shape-type="line" x1="287" y1="147" x2="287" y2="163" fill="#00FFFF" stroke="#FFFFFF" stroke-width="3.00" stroke-dasharray="5 10"/>
<rect shape-type="rectangle" x="255" y="125" width="42" height="23" fill="#4A494A" stroke="#C0C0C0" stroke-width="3.00"/>
<rect shape-type="rectangle" x="255" y="106" width="66" height="18" fill="#7B7D7B" stroke="#C0C0C0" stroke-width="3.00"/>
<rect shape-type="rectangle" x="297" y="126" width="25" height="22" fill="#4A494A" stroke="#C0C0C0" stroke-width="3.00"/>
<text font-family="宋体" text-anchor="start" fill="#FFFFFF" shape-type="text" id="" font-size="8.750000" x="302" y="139">℃</text>
<text font-family="宋体" text-anchor="start" fill="#FFFFFF" shape-type="text" id="" font-size="11.750000" x="260" y="119">TI80120</text>
<text font-family="Arial" text-anchor="start" fill="#00FFFF" shape-type="realdata" id="HCAB_ZQ_BH_TI80120" font-size="13.250000" x="259" y="140">XXX</text>
<line shape-type="line" x1="372" y1="146" x2="372" y2="162" fill="#00FFFF" stroke="#FFFFFF" stroke-width="3.00" stroke-dasharray="5 10"/>
<rect shape-type="rectangle" x="340" y="124" width="44" height="23" fill="#4A494A" stroke="#C0C0C0" stroke-width="3.00"/>
<rect shape-type="rectangle" x="340" y="105" width="71" height="18" fill="#7B7D7B" stroke="#C0C0C0" stroke-width="3.00"/>
<rect shape-type="rectangle" x="386" y="124" width="25" height="22" fill="#4A494A" stroke="#C0C0C0" stroke-width="3.00"/>
<text font-family="宋体" text-anchor="start" fill="#FFFFFF" shape-type="text" id="" font-size="8.750000" x="386" y="138">kg/h</text>
<text font-family="宋体" text-anchor="start" fill="#FFFFFF" shape-type="text" id="" font-size="11.750000" x="345" y="118">FI80004</text>
<text font-family="Arial" text-anchor="start" fill="#00FFFF" shape-type="realdata" id="HCAB_ZQ_GY_FI80004" font-size="13.250000" x="342" y="139">XXX</text>
<line shape-type="line" x1="464" y1="147" x2="464" y2="163" fill="#00FFFF" stroke="#FFFFFF" stroke-width="3.00" stroke-dasharray="5 10"/>
<rect shape-type="rectangle" x="433" y="125" width="70" height="23" fill="#4A494A" stroke="#C0C0C0" stroke-width="3.00"/>
<rect shape-type="rectangle" x="432" y="106" width="91" height="18" fill="#7B7D7B" stroke="#C0C0C0" stroke-width="3.00"/>
<rect shape-type="rectangle" x="502" y="125" width="20" height="22" fill="#4A494A" stroke="#C0C0C0" stroke-width="3.00"/>
<text font-family="宋体" text-anchor="start" fill="#FFFFFF" shape-type="text" id="" font-size="8.750000" x="509" y="139">t</text>
<text font-family="宋体" text-anchor="start" fill="#FFFFFF" shape-type="text" id="" font-size="11.750000" x="437" y="119">FIQ80004</text>
<text font-family="Arial" text-anchor="start" fill="#00FFFF" shape-type="realdata" id="HCAB_ZQ_LJ_FIQ80004" font-size="13.250000" x="439" y="140">XXX</text>
<rect shape-type="rectangle" x="543" y="121" width="39" height="23" fill="#4A494A" stroke="#C0C0C0" stroke-width="3.00"/>
<rect shape-type="rectangle" x="543" y="102" width="66" height="18" fill="#7B7D7B" stroke="#C0C0C0" stroke-width="3.00"/>
<rect shape-type="rectangle" x="584" y="121" width="25" height="22" fill="#4A494A" stroke="#C0C0C0" stroke-width="3.00"/>
<text font-family="宋体" text-anchor="start" fill="#FFFFFF" shape-type="text" id="" font-size="8.750000" x="589" y="135">MPa</text>
<text font-family="宋体" text-anchor="start" fill="#FFFFFF" shape-type="text" id="" font-size="11.750000" x="548" y="115">PI80103</text>
<text font-family="Arial" text-anchor="start" fill="#00FFFF" shape-type="realdata" id="HCAB_ZQ_BH_PI80103" font-size="13.250000" x="549" y="136">XXX</text>
<line shape-type="line" x1="575" y1="143" x2="575" y2="159" fill="#00FFFF" stroke="#FFFFFF" stroke-width="3.00" stroke-dasharray="5 10"/>
<line shape-type="line" x1="656" y1="143" x2="656" y2="159" fill="#00FFFF" stroke="#FFFFFF" stroke-width="3.00" stroke-dasharray="5 10"/>
<rect shape-type="rectangle" x="624" y="121" width="42" height="23" fill="#4A494A" stroke="#C0C0C0" stroke-width="3.00"/>
<rect shape-type="rectangle" x="624" y="102" width="66" height="18" fill="#7B7D7B" stroke="#C0C0C0" stroke-width="3.00"/>
<rect shape-type="rectangle" x="666" y="122" width="25" height="22" fill="#4A494A" stroke="#C0C0C0" stroke-width="3.00"/>
<text font-family="宋体" text-anchor="start" fill="#FFFFFF" shape-type="text" id="" font-size="8.750000" x="671" y="135">℃</text>
<text font-family="宋体" text-anchor="start" fill="#FFFFFF" shape-type="text" id="" font-size="11.750000" x="629" y="115">TI80103</text>
<text font-family="Arial" text-anchor="start" fill="#00FFFF" shape-type="realdata" id="HCAB_ZQ_BH_TI80103" font-size="13.250000" x="627" y="136">XXX</text>
<line shape-type="line" x1="741" y1="142" x2="741" y2="158" fill="#00FFFF" stroke="#FFFFFF" stroke-width="3.00" stroke-dasharray="5 10"/>
<rect shape-type="rectangle" x="709" y="120" width="44" height="23" fill="#4A494A" stroke="#C0C0C0" stroke-width="3.00"/>
<rect shape-type="rectangle" x="709" y="101" width="71" height="18" fill="#7B7D7B" stroke="#C0C0C0" stroke-width="3.00"/>
<rect shape-type="rectangle" x="755" y="120" width="25" height="22" fill="#4A494A" stroke="#C0C0C0" stroke-width="3.00"/>
<text font-family="宋体" text-anchor="start" fill="#FFFFFF" shape-type="text" id="" font-size="8.750000" x="756" y="134">kg/h</text>
<text font-family="宋体" text-anchor="start" fill="#FFFFFF" shape-type="text" id="" font-size="11.750000" x="714" y="114">FI80003</text>
<text font-family="Arial" text-anchor="start" fill="#00FFFF" shape-type="realdata" id="HCAB_ZQ_GY_FI80003" font-size="13.250000" x="717" y="135">XXX</text>
<line shape-type="line" x1="833" y1="143" x2="833" y2="159" fill="#00FFFF" stroke="#FFFFFF" stroke-width="3.00" stroke-dasharray="5 10"/>
<rect shape-type="rectangle" x="802" y="121" width="79" height="23" fill="#4A494A" stroke="#C0C0C0" stroke-width="3.00"/>
<rect shape-type="rectangle" x="801" y="102" width="101" height="18" fill="#7B7D7B" stroke="#C0C0C0" stroke-width="3.00"/>
<rect shape-type="rectangle" x="882" y="121" width="21" height="22" fill="#4A494A" stroke="#C0C0C0" stroke-width="3.00"/>
<text font-family="宋体" text-anchor="start" fill="#FFFFFF" shape-type="text" id="" font-size="8.750000" x="886" y="135">t</text>
<text font-family="宋体" text-anchor="start" fill="#FFFFFF" shape-type="text" id="" font-size="11.750000" x="817" y="115">FIQ80003</text>
<text font-family="Arial" text-anchor="start" fill="#00FFFF" shape-type="realdata" id="HCAB_ZQ_LJ_FIQ80003" font-size="13.250000" x="803" y="135">XXX</text>
<rect shape-type="rectangle" x="296" y="269" width="39" height="23" fill="#4A494A" stroke="#C0C0C0" stroke-width="3.00"/>
<rect shape-type="rectangle" x="296" y="250" width="66" height="18" fill="#7B7D7B" stroke="#C0C0C0" stroke-width="3.00"/>
<rect shape-type="rectangle" x="337" y="269" width="25" height="22" fill="#4A494A" stroke="#C0C0C0" stroke-width="3.00"/>
<text font-family="宋体" text-anchor="start" fill="#FFFFFF" shape-type="text" id="" font-size="8.750000" x="342" y="283">MPa</text>
<text font-family="宋体" text-anchor="start" fill="#FFFFFF" shape-type="text" id="" font-size="11.750000" x="301" y="263">PI80105</text>
<line shape-type="line" x1="328" y1="291" x2="328" y2="307" fill="#00FFFF" stroke="#FFFFFF" stroke-width="3.00" stroke-dasharray="5 10"/>
<line shape-type="line" x1="409" y1="291" x2="409" y2="307" fill="#00FFFF" stroke="#FFFFFF" stroke-width="3.00" stroke-dasharray="5 10"/>
<rect shape-type="rectangle" x="377" y="269" width="42" height="23" fill="#4A494A" stroke="#C0C0C0" stroke-width="3.00"/>
<rect shape-type="rectangle" x="377" y="250" width="66" height="18" fill="#7B7D7B" stroke="#C0C0C0" stroke-width="3.00"/>
<rect shape-type="rectangle" x="419" y="270" width="25" height="22" fill="#4A494A" stroke="#C0C0C0" stroke-width="3.00"/>
<text font-family="宋体" text-anchor="start" fill="#FFFFFF" shape-type="text" id="" font-size="8.750000" x="424" y="283">℃</text>
<text font-family="宋体" text-anchor="start" fill="#FFFFFF" shape-type="text" id="" font-size="11.750000" x="382" y="263">TI80105</text>
<text font-family="Arial" text-anchor="start" fill="#00FFFF" shape-type="realdata" id="HCAB_ZQ_BH_TI80105" font-size="13.250000" x="380" y="284">XXX</text>
<line shape-type="line" x1="490" y1="290" x2="490" y2="306" fill="#00FFFF" stroke="#FFFFFF" stroke-width="3.00" stroke-dasharray="5 10"/>
<rect shape-type="rectangle" x="458" y="268" width="44" height="23" fill="#4A494A" stroke="#C0C0C0" stroke-width="3.00"/>
<rect shape-type="rectangle" x="458" y="249" width="71" height="18" fill="#7B7D7B" stroke="#C0C0C0" stroke-width="3.00"/>
<rect shape-type="rectangle" x="504" y="268" width="25" height="22" fill="#4A494A" stroke="#C0C0C0" stroke-width="3.00"/>
<text font-family="宋体" text-anchor="start" fill="#FFFFFF" shape-type="text" id="" font-size="8.750000" x="505" y="282">kg/h</text>
<text font-family="宋体" text-anchor="start" fill="#FFFFFF" shape-type="text" id="" font-size="11.750000" x="463" y="262">FI80005A</text>
<text font-family="Arial" text-anchor="start" fill="#00FFFF" shape-type="realdata" id="HCAB_ZQ_GY_FI80005A" font-size="13.250000" x="462" y="283">XXX</text>
<rect shape-type="rectangle" x="540" y="269" width="78" height="23" fill="#4A494A" stroke="#C0C0C0" stroke-width="3.00"/>
<rect shape-type="rectangle" x="539" y="250" width="92" height="18" fill="#7B7D7B" stroke="#C0C0C0" stroke-width="3.00"/>
<rect shape-type="rectangle" x="615" y="269" width="17" height="22" fill="#4A494A" stroke="#C0C0C0" stroke-width="3.00"/>
<text font-family="宋体" text-anchor="start" fill="#FFFFFF" shape-type="text" id="" font-size="8.750000" x="619" y="283">t</text>
<text font-family="宋体" text-anchor="start" fill="#FFFFFF" shape-type="text" id="" font-size="11.750000" x="553" y="263">FIQ80005a</text>
<text font-family="Arial" text-anchor="start" fill="#00FFFF" shape-type="realdata" id="HCAB_ZQ_LJ_FIQ80005A" font-size="13.250000" x="546" y="284">XXX</text>
<text font-family="Arial" text-anchor="start" fill="#00FFFF" shape-type="realdata" id="HCAB_ZQ_BH_PI80105" font-size="13.250000" x="299" y="286">XXX</text>
<line shape-type="line" x1="669" y1="291" x2="669" y2="307" fill="#00FFFF" stroke="#FFFFFF" stroke-width="3.00" stroke-dasharray="5 10"/>
<rect shape-type="rectangle" x="637" y="269" width="44" height="23" fill="#4A494A" stroke="#C0C0C0" stroke-width="3.00"/>
<rect shape-type="rectangle" x="637" y="250" width="71" height="18" fill="#7B7D7B" stroke="#C0C0C0" stroke-width="3.00"/>
<rect shape-type="rectangle" x="683" y="269" width="25" height="22" fill="#4A494A" stroke="#C0C0C0" stroke-width="3.00"/>
<text font-family="宋体" text-anchor="start" fill="#FFFFFF" shape-type="text" id="" font-size="8.750000" x="684" y="283">kg/h</text>
<text font-family="宋体" text-anchor="start" fill="#FFFFFF" shape-type="text" id="" font-size="11.750000" x="642" y="263">FI80005B</text>
<rect shape-type="rectangle" x="723" y="270" width="67" height="23" fill="#4A494A" stroke="#C0C0C0" stroke-width="3.00"/>
<rect shape-type="rectangle" x="722" y="251" width="92" height="18" fill="#7B7D7B" stroke="#C0C0C0" stroke-width="3.00"/>
<rect shape-type="rectangle" x="789" y="270" width="25" height="22" fill="#4A494A" stroke="#C0C0C0" stroke-width="3.00"/>
<text font-family="宋体" text-anchor="start" fill="#FFFFFF" shape-type="text" id="" font-size="8.750000" x="798" y="284">t</text>
<text font-family="宋体" text-anchor="start" fill="#FFFFFF" shape-type="text" id="" font-size="11.750000" x="725" y="264">FIQ80005b</text>
<text font-family="Arial" text-anchor="start" fill="#00FFFF" shape-type="realdata" id="HCAB_ZQ_LJ_FIQ80005B" font-size="13.250000" x="728" y="286">XXX</text>
<text font-family="Arial" text-anchor="start" fill="#00FFFF" shape-type="realdata" id="HCAB_ZQ_GY_FI80005B" font-size="13.250000" x="642" y="286">XXX</text>
</svg>
