<?xml version="1.0"?>
<?xml-stylesheet type='text/javascript'?>
<!--Draw SVG: 2019-11-25 09:41:44 47-Monday-->
<svg xmlns="http://www.w3.org/2000/svg" xmlns:xlink="http://www.w3.org/1999/xlink" version="1.1" style="background-color:#000000" width="1066" height="800" viewbox="0 0 1066 800">
<defs>
<linearGradient x1="0.000000%" y1="50.000000%" x2="100.000000%" y2="50.000000%" id="lgradient9_0">
<stop offset="0" stop-color="#2C2C2C" stop-opacity="1"/>
<stop offset="0.5" stop-color="#FFFFFF" stop-opacity="1"/>
<stop offset="1" stop-color="#2C2C2C" stop-opacity="1"/>
</linearGradient>
<linearGradient x1="0.000000%" y1="50.000000%" x2="100.000000%" y2="50.000000%" id="lgradient9_1">
<stop offset="0" stop-color="#2C2C2C" stop-opacity="1"/>
<stop offset="0.5" stop-color="#FFFFFF" stop-opacity="1"/>
<stop offset="1" stop-color="#2C2C2C" stop-opacity="1"/>
</linearGradient>
<linearGradient x1="0.000000%" y1="50.000000%" x2="100.000000%" y2="50.000000%" id="lgradient9_2">
<stop offset="0" stop-color="#2C2C2C" stop-opacity="1"/>
<stop offset="0.5" stop-color="#FFFFFF" stop-opacity="1"/>
<stop offset="1" stop-color="#2C2C2C" stop-opacity="1"/>
</linearGradient>
<linearGradient x1="0.000000%" y1="50.000000%" x2="100.000000%" y2="50.000000%" id="lgradient14">
<stop offset="0" stop-color="#111111" stop-opacity="1"/>
<stop offset="0.5" stop-color="#636563" stop-opacity="1"/>
<stop offset="1" stop-color="#111111" stop-opacity="1"/>
</linearGradient>
<linearGradient x1="0.000000%" y1="50.000000%" x2="100.000000%" y2="50.000000%" id="lgradient15_0">
<stop offset="0" stop-color="#2C2C2C" stop-opacity="1"/>
<stop offset="0.5" stop-color="#FFFFFF" stop-opacity="1"/>
<stop offset="1" stop-color="#2C2C2C" stop-opacity="1"/>
</linearGradient>
<linearGradient x1="0.000000%" y1="50.000000%" x2="100.000000%" y2="50.000000%" id="lgradient15_1">
<stop offset="0" stop-color="#2C2C2C" stop-opacity="1"/>
<stop offset="0.5" stop-color="#FFFFFF" stop-opacity="1"/>
<stop offset="1" stop-color="#2C2C2C" stop-opacity="1"/>
</linearGradient>
<linearGradient x1="0.000000%" y1="50.000000%" x2="100.000000%" y2="50.000000%" id="lgradient15_2">
<stop offset="0" stop-color="#2C2C2C" stop-opacity="1"/>
<stop offset="0.5" stop-color="#FFFFFF" stop-opacity="1"/>
<stop offset="1" stop-color="#2C2C2C" stop-opacity="1"/>
</linearGradient>
<linearGradient x1="0.000000%" y1="50.000000%" x2="100.000000%" y2="50.000000%" id="lgradient21_0_0_0">
<stop offset="0" stop-color="#545454" stop-opacity="1"/>
<stop offset="0.5" stop-color="#D8D8D8" stop-opacity="1"/>
<stop offset="1" stop-color="#545454" stop-opacity="1"/>
</linearGradient>
<linearGradient x1="0.000000%" y1="50.000000%" x2="100.000000%" y2="50.000000%" id="lgradient21_0_0_1_0">
<stop offset="0" stop-color="#696969" stop-opacity="1"/>
<stop offset="0.5" stop-color="#D8D8D8" stop-opacity="1"/>
<stop offset="1" stop-color="#696969" stop-opacity="1"/>
</linearGradient>
<radialGradient cx="50.000000%" cy="50.000000%" r="50.000000%" fx="50.000000%" fy="50.000000%" id="rgradient21_1_1">
<stop offset="0%" stop-color="#D8D8D8" stop-opacity="1"/>
<stop offset="100%" stop-color="#4A4A4A" stop-opacity="1"/>
</radialGradient>
<linearGradient x1="0.000000%" y1="50.000000%" x2="100.000000%" y2="50.000000%" id="lgradient21_2_0_0">
<stop offset="0" stop-color="#545454" stop-opacity="1"/>
<stop offset="0.5" stop-color="#D8D8D8" stop-opacity="1"/>
<stop offset="1" stop-color="#545454" stop-opacity="1"/>
</linearGradient>
<linearGradient x1="0.000000%" y1="50.000000%" x2="100.000000%" y2="50.000000%" id="lgradient21_2_0_1_0">
<stop offset="0" stop-color="#696969" stop-opacity="1"/>
<stop offset="0.5" stop-color="#D8D8D8" stop-opacity="1"/>
<stop offset="1" stop-color="#696969" stop-opacity="1"/>
</linearGradient>
<linearGradient x1="0.000000%" y1="50.000000%" x2="100.000000%" y2="50.000000%" id="lgradient22_0_0_0">
<stop offset="0" stop-color="#545454" stop-opacity="1"/>
<stop offset="0.5" stop-color="#D8D8D8" stop-opacity="1"/>
<stop offset="1" stop-color="#545454" stop-opacity="1"/>
</linearGradient>
<linearGradient x1="0.000000%" y1="50.000000%" x2="100.000000%" y2="50.000000%" id="lgradient22_0_0_1_0">
<stop offset="0" stop-color="#696969" stop-opacity="1"/>
<stop offset="0.5" stop-color="#D8D8D8" stop-opacity="1"/>
<stop offset="1" stop-color="#696969" stop-opacity="1"/>
</linearGradient>
<radialGradient cx="50.000000%" cy="50.000000%" r="50.000000%" fx="50.000000%" fy="50.000000%" id="rgradient22_1_1">
<stop offset="0%" stop-color="#D8D8D8" stop-opacity="1"/>
<stop offset="100%" stop-color="#4A4A4A" stop-opacity="1"/>
</radialGradient>
<linearGradient x1="0.000000%" y1="50.000000%" x2="100.000000%" y2="50.000000%" id="lgradient22_2_0_0">
<stop offset="0" stop-color="#545454" stop-opacity="1"/>
<stop offset="0.5" stop-color="#D8D8D8" stop-opacity="1"/>
<stop offset="1" stop-color="#545454" stop-opacity="1"/>
</linearGradient>
<linearGradient x1="0.000000%" y1="50.000000%" x2="100.000000%" y2="50.000000%" id="lgradient22_2_0_1_0">
<stop offset="0" stop-color="#696969" stop-opacity="1"/>
<stop offset="0.5" stop-color="#D8D8D8" stop-opacity="1"/>
<stop offset="1" stop-color="#696969" stop-opacity="1"/>
</linearGradient>
<linearGradient x1="0.000000%" y1="50.000000%" x2="100.000000%" y2="50.000000%" id="lgradient44_0_0">
<stop offset="0" stop-color="#626262" stop-opacity="1"/>
<stop offset="0.5" stop-color="#C0C0C0" stop-opacity="1"/>
<stop offset="1" stop-color="#626262" stop-opacity="1"/>
</linearGradient>
<linearGradient x1="0.000000%" y1="50.000000%" x2="100.000000%" y2="50.000000%" id="lgradient44_3_0">
<stop offset="0" stop-color="#626262" stop-opacity="1"/>
<stop offset="0.5" stop-color="#C0C0C0" stop-opacity="1"/>
<stop offset="1" stop-color="#626262" stop-opacity="1"/>
</linearGradient>
<linearGradient x1="0.000000%" y1="50.000000%" x2="100.000000%" y2="50.000000%" id="lgradient44_4_0_0">
<stop offset="0" stop-color="#626262" stop-opacity="1"/>
<stop offset="0.5" stop-color="#C0C0C0" stop-opacity="1"/>
<stop offset="1" stop-color="#626262" stop-opacity="1"/>
</linearGradient>
<linearGradient x1="0.000000%" y1="50.000000%" x2="100.000000%" y2="50.000000%" id="lgradient44_4_1_0">
<stop offset="0" stop-color="#626262" stop-opacity="1"/>
<stop offset="0.5" stop-color="#C0C0C0" stop-opacity="1"/>
<stop offset="1" stop-color="#626262" stop-opacity="1"/>
</linearGradient>
<linearGradient x1="0.000000%" y1="50.000000%" x2="100.000000%" y2="50.000000%" id="lgradient44_4_2_0">
<stop offset="0" stop-color="#626262" stop-opacity="1"/>
<stop offset="0.5" stop-color="#C0C0C0" stop-opacity="1"/>
<stop offset="1" stop-color="#626262" stop-opacity="1"/>
</linearGradient>
<linearGradient x1="0.000000%" y1="50.000000%" x2="100.000000%" y2="50.000000%" id="lgradient44_5_0">
<stop offset="0" stop-color="#626262" stop-opacity="1"/>
<stop offset="0.5" stop-color="#C0C0C0" stop-opacity="1"/>
<stop offset="1" stop-color="#626262" stop-opacity="1"/>
</linearGradient>
<linearGradient x1="0.000000%" y1="50.000000%" x2="100.000000%" y2="50.000000%" id="lgradient44_6_0">
<stop offset="0" stop-color="#626262" stop-opacity="1"/>
<stop offset="0.5" stop-color="#C0C0C0" stop-opacity="1"/>
<stop offset="1" stop-color="#626262" stop-opacity="1"/>
</linearGradient>
</defs>
<rect shape-type="rectangle" x="0" y="1" width="1065" height="38" fill="#636563" stroke="#808080" stroke-width="1.00"/>
<rect shape-type="rectangle" x="282" y="3" width="500" height="33" stroke="#000000" stroke-width="1.00"/>
<text font-family="宋体" text-anchor="start" fill="#FFFFFF" shape-type="text" id="" font-size="26.750000" font-weight="bold" x="459" y="30">母液罐区</text>
<line shape-type="limitline" x1="843" y1="123" x2="896" y2="123" fill="#00FFFF" stroke="#F9FF00" stroke-width="3.00"/>
<line shape-type="limitline" x1="813" y1="474" x2="813" y2="170" fill="#00FFFF" stroke="#F9FF00" stroke-width="3.00"/>
<line shape-type="limitline" x1="896" y1="75" x2="839" y2="75" fill="#00FFFF" stroke="#F9FF00" stroke-width="3.00"/>
<line shape-type="limitline" x1="587" y1="374" x2="587" y2="169" fill="#00FFFF" stroke="#F9FF00" stroke-width="3.00"/>
<line shape-type="limitline" x1="900" y1="169" x2="585" y2="169" fill="#00FFFF" stroke="#F9FF00" stroke-width="3.00"/>
<g shape-type="group">
<rect shape-type="roundRectangle" rx="20" ry="20" x="748" y="358" width="131" height="123" fill="url(#lgradient9_0)" stroke="#000000" stroke-width="1.00"/>
<rect shape-type="rectangle" x="748" y="388" width="129" height="163" fill="url(#lgradient9_1)" stroke="#000000" stroke-width="1.00"/>
<rect shape-type="rectangle" x="738" y="546" width="149" height="17" fill="url(#lgradient9_2)" stroke="#000000" stroke-width="1.00"/>
</g>
<g shape-type="group">
<rect shape-type="rectangle" x="907" y="166" width="12" height="5" fill="#808080" stroke="#C0C0C0" stroke-width="1.00"/>
<polygon shape-type="trapezium" points="908,163 908,174 902,169 902,169 908,163" fill="#808080" stroke="#C0C0C0" stroke-width="1.00"/>
</g>
<text font-family="宋体" text-anchor="start" fill="#FFFFFF" shape-type="text" id="" font-size="9.500000" font-weight="bold" x="923" y="172">来自3#系统</text>
<text font-family="宋体" text-anchor="start" fill="#000000" shape-type="text" id="" font-size="11.000000" font-weight="bold" x="353" y="290">V101B</text>
<text font-family="宋体" text-anchor="start" fill="#000000" shape-type="text" id="" font-size="11.000000" font-weight="bold" x="573" y="300">V101C</text>
<rect shape-type="rectangle" x="0" y="754" width="1066" height="45" fill="url(#lgradient14)" stroke="#636563" stroke-width="1.00"/>
<g shape-type="group">
<rect shape-type="roundRectangle" rx="20" ry="20" x="523" y="360" width="130" height="122" fill="url(#lgradient15_0)" stroke="#000000" stroke-width="1.00"/>
<rect shape-type="rectangle" x="523" y="390" width="128" height="162" fill="url(#lgradient15_1)" stroke="#000000" stroke-width="1.00"/>
<rect shape-type="rectangle" x="513" y="547" width="148" height="17" fill="url(#lgradient15_2)" stroke="#000000" stroke-width="1.00"/>
</g>
<line shape-type="limitline" x1="838" y1="166" x2="838" y2="74" fill="#00FFFF" stroke="#F9FF00" stroke-width="3.00"/>
<g shape-type="group">
<rect shape-type="rectangle" x="906" y="120" width="12" height="6" fill="#808080" stroke="#C0C0C0" stroke-width="1.00"/>
<polygon shape-type="trapezium" points="907,117 907,129 901,123 901,123 907,117" fill="#808080" stroke="#C0C0C0" stroke-width="1.00"/>
</g>
<text font-family="宋体" text-anchor="start" fill="#FFFFFF" shape-type="text" id="" font-size="9.500000" font-weight="bold" x="922" y="127">来自2#系统</text>
<g shape-type="group">
<rect shape-type="rectangle" x="904" y="71" width="12" height="6" fill="#808080" stroke="#C0C0C0" stroke-width="1.00"/>
<polygon shape-type="trapezium" points="905,68 905,80 898,74 898,74 905,68" fill="#808080" stroke="#C0C0C0" stroke-width="1.00"/>
</g>
<text font-family="宋体" text-anchor="start" fill="#FFFFFF" shape-type="text" id="" font-size="9.500000" font-weight="bold" x="920" y="78">来自1#系统</text>
<g shape-type="group">
<g shape-type="group">
<g shape-type="group">
<rect shape-type="roundRectangle" rx="20" ry="20" x="320" y="467" width="8" height="15" fill="url(#lgradient21_0_0_0)" stroke="#000000" stroke-width="1.00"/>
<g shape-type="group">
<rect shape-type="rectangle" x="319" y="480" width="10" height="3" fill="url(#lgradient21_0_0_1_0)" stroke="#000000" stroke-width="1.00"/>
<rect shape-type="rectangle" x="319" y="480" width="10" height="3" fill="none" stroke="#000000" stroke-width="1.00"/>
</g>
<line shape-type="limitline" x1="328" y1="468" x2="327" y2="480" fill="#00FFFF" stroke="#000000" stroke-width="1.00"/>
</g>
<path shape-type="arc" d="M 329,469 A 5,4 0 0,0 320,468" fill="none" stroke="#000000" stroke-width="1.00"/>
<line shape-type="limitline" x1="321" y1="468" x2="320" y2="480" fill="#00FFFF" stroke="#000000" stroke-width="1.00"/>
</g>
<g shape-type="group">
<ellipse shape-type="ellipse" cx="317" cy="467" rx="11" ry="10" stroke="#000000" stroke-width="1.00"/>
<ellipse shape-type="ellipse" cx="316" cy="466" rx="11" ry="9" fill="url(#rgradient21_1_1)" stroke="#000000" stroke-width="1.00"/>
</g>
<g shape-type="group">
<g shape-type="group">
<rect shape-type="roundRectangle" rx="20" ry="20" x="310" y="454" width="9" height="16" fill="url(#lgradient21_2_0_0)" stroke="#000000" stroke-width="1.00"/>
<g shape-type="group">
<rect shape-type="rectangle" x="309" y="454" width="11" height="2" fill="url(#lgradient21_2_0_1_0)" stroke="#000000" stroke-width="1.00"/>
<rect shape-type="rectangle" x="309" y="454" width="11" height="2" fill="none" stroke="#000000" stroke-width="1.00"/>
</g>
<line shape-type="limitline" x1="319" y1="468" x2="318" y2="456" fill="#00FFFF" stroke="#000000" stroke-width="1.00"/>
</g>
<path shape-type="arc" d="M 311,469 A 6,4 0 0,0 320,468" fill="none" stroke="#000000" stroke-width="1.00"/>
<line shape-type="limitline" x1="311" y1="468" x2="310" y2="456" fill="#00FFFF" stroke="#000000" stroke-width="1.00"/>
</g>
</g>
<g shape-type="group">
<g shape-type="group">
<g shape-type="group">
<rect shape-type="roundRectangle" rx="20" ry="20" x="240" y="467" width="8" height="15" fill="url(#lgradient22_0_0_0)" stroke="#000000" stroke-width="1.00"/>
<g shape-type="group">
<rect shape-type="rectangle" x="239" y="480" width="10" height="3" fill="url(#lgradient22_0_0_1_0)" stroke="#000000" stroke-width="1.00"/>
<rect shape-type="rectangle" x="239" y="480" width="10" height="3" fill="none" stroke="#000000" stroke-width="1.00"/>
</g>
<line shape-type="limitline" x1="248" y1="468" x2="247" y2="480" fill="#00FFFF" stroke="#000000" stroke-width="1.00"/>
</g>
<path shape-type="arc" d="M 249,469 A 5,4 0 0,0 240,468" fill="none" stroke="#000000" stroke-width="1.00"/>
<line shape-type="limitline" x1="241" y1="468" x2="240" y2="480" fill="#00FFFF" stroke="#000000" stroke-width="1.00"/>
</g>
<g shape-type="group">
<ellipse shape-type="ellipse" cx="237" cy="467" rx="11" ry="10" stroke="#000000" stroke-width="1.00"/>
<ellipse shape-type="ellipse" cx="236" cy="466" rx="11" ry="9" fill="url(#rgradient22_1_1)" stroke="#000000" stroke-width="1.00"/>
</g>
<g shape-type="group">
<g shape-type="group">
<rect shape-type="roundRectangle" rx="20" ry="20" x="230" y="454" width="9" height="16" fill="url(#lgradient22_2_0_0)" stroke="#000000" stroke-width="1.00"/>
<g shape-type="group">
<rect shape-type="rectangle" x="229" y="454" width="11" height="2" fill="url(#lgradient22_2_0_1_0)" stroke="#000000" stroke-width="1.00"/>
<rect shape-type="rectangle" x="229" y="454" width="11" height="2" fill="none" stroke="#000000" stroke-width="1.00"/>
</g>
<line shape-type="limitline" x1="239" y1="468" x2="238" y2="456" fill="#00FFFF" stroke="#000000" stroke-width="1.00"/>
</g>
<path shape-type="arc" d="M 231,469 A 6,4 0 0,0 240,468" fill="none" stroke="#000000" stroke-width="1.00"/>
<line shape-type="limitline" x1="231" y1="468" x2="230" y2="456" fill="#00FFFF" stroke="#000000" stroke-width="1.00"/>
</g>
</g>
<line shape-type="limitline" x1="528" y1="529" x2="323" y2="529" fill="#00FFFF" stroke="#F9FF00" stroke-width="3.00"/>
<line shape-type="limitline" x1="701" y1="638" x2="246" y2="638" fill="#00FFFF" stroke="#F9FF00" stroke-width="3.00"/>
<line shape-type="limitline" x1="756" y1="516" x2="701" y2="516" fill="#00FFFF" stroke="#F9FF00" stroke-width="3.00"/>
<line shape-type="limitline" x1="234" y1="310" x2="574" y2="310" fill="#00FFFF" stroke="#F9FF00" stroke-width="3.00"/>
<line shape-type="limitline" x1="12" y1="180" x2="276" y2="180" fill="#00FFFF" stroke="#F9FF00" stroke-width="3.00"/>
<line shape-type="limitline" x1="324" y1="480" x2="324" y2="529" fill="#00FFFF" stroke="#F9FF00" stroke-width="3.00"/>
<line shape-type="limitline" x1="702" y1="513" x2="702" y2="638" fill="#00FFFF" stroke="#F9FF00" stroke-width="3.00"/>
<line shape-type="limitline" x1="245" y1="483" x2="245" y2="639" fill="#00FFFF" stroke="#F9FF00" stroke-width="3.00"/>
<line shape-type="limitline" x1="235" y1="454" x2="235" y2="310" fill="#00FFFF" stroke="#F9FF00" stroke-width="3.00"/>
<line shape-type="limitline" x1="316" y1="453" x2="316" y2="310" fill="#00FFFF" stroke="#F9FF00" stroke-width="3.00"/>
<line shape-type="limitline" x1="278" y1="310" x2="278" y2="179" fill="#00FFFF" stroke="#F9FF00" stroke-width="3.00"/>
<line shape-type="limitline" x1="543" y1="309" x2="543" y2="369" fill="#00FFFF" stroke="#F9FF00" stroke-width="3.00"/>
<line shape-type="limitline" x1="775" y1="309" x2="775" y2="363" fill="#00FFFF" stroke="#F9FF00" stroke-width="3.00"/>
<line shape-type="limitline" x1="595" y1="309" x2="775" y2="309" fill="#00FFFF" stroke="#F9FF00" stroke-width="3.00"/>
<g shape-type="group">
<path shape-type="pie" d="M 181,170 A 7,9 0 0,0 167,170 L 175,170 z" fill="#00FF40" stroke="#000000" stroke-width="1.00"/>
<line shape-type="limitline" x1="173" y1="170" x2="172" y2="178" fill="#00FF40" stroke="#000000" stroke-width="1.00"/>
<line shape-type="limitline" x1="176" y1="170" x2="175" y2="178" fill="#00FF40" stroke="#000000" stroke-width="1.00"/>
<g shape-type="group">
<polygon shape-type="trapezium" points="164,174 164,185 174,180 174,180 164,174" fill="#00FF40" stroke="#000000" stroke-width="1.00"/>
<polygon shape-type="trapezium" points="185,185 185,174 174,179 174,179 185,185" fill="#00FF40" stroke="#000000" stroke-width="1.00"/>
</g>
</g>
<line shape-type="limitline" x1="60" y1="633" x2="60" y2="585" fill="#00FFFF" stroke="#F9FF00" stroke-width="3.00"/>
<line shape-type="limitline" x1="138" y1="633" x2="59" y2="633" fill="#00FFFF" stroke="#00FFFF" stroke-width="7.00"/>
<line shape-type="limitline" x1="141" y1="632" x2="141" y2="580" fill="#00FFFF" stroke="#00FFFF" stroke-width="7.00"/>
<line shape-type="limitline" x1="197" y1="581" x2="142" y2="581" fill="#00FFFF" stroke="#00FFFF" stroke-width="7.00"/>
<line shape-type="limitline" x1="61" y1="586" x2="6" y2="586" fill="#00FFFF" stroke="#00FFFF" stroke-width="7.00"/>
<line shape-type="limitline" x1="60" y1="633" x2="60" y2="585" fill="#00FFFF" stroke="#00FFFF" stroke-width="7.00"/>
<g shape-type="group">
<g shape-type="group">
<rect shape-type="rectangle" x="94" y="566" width="16" height="12" fill="url(#lgradient44_0_0)" stroke="#000000" stroke-width="1.00"/>
<rect shape-type="rectangle" x="94" y="566" width="17" height="13" fill="none" stroke="#000000" stroke-width="4.00"/>
</g>
<line shape-type="limitline" x1="110" y1="568" x2="94" y2="569" fill="#00FFFF" stroke="#000000" stroke-width="3.00"/>
<line shape-type="limitline" x1="104" y1="578" x2="103" y2="566" fill="#00FFFF" stroke="#808080" stroke-width="4.00"/>
<g shape-type="group">
<rect shape-type="rectangle" x="101" y="579" width="1" height="2" fill="url(#lgradient44_3_0)" stroke="#000000" stroke-width="3.00"/>
<rect shape-type="rectangle" x="101" y="579" width="2" height="3" fill="none" stroke="#000000" stroke-width="3.00"/>
</g>
<g shape-type="group">
<g shape-type="group">
<rect shape-type="rectangle" x="98" y="582" width="8" height="1" fill="url(#lgradient44_4_0_0)" stroke="#000000" stroke-width="3.00"/>
<rect shape-type="rectangle" x="98" y="582" width="9" height="2" fill="none" stroke="#000000" stroke-width="3.00"/>
</g>
<g shape-type="group">
<rect shape-type="rectangle" x="99" y="583" width="4" height="3" fill="url(#lgradient44_4_1_0)" stroke="#000000" stroke-width="3.00"/>
<rect shape-type="rectangle" x="99" y="583" width="5" height="5" fill="none" stroke="#000000" stroke-width="3.00"/>
</g>
<g shape-type="group">
<rect shape-type="rectangle" x="98" y="586" width="8" height="3" fill="url(#lgradient44_4_2_0)" stroke="#000000" stroke-width="3.00"/>
<rect shape-type="rectangle" x="98" y="586" width="9" height="4" fill="none" stroke="#000000" stroke-width="3.00"/>
</g>
</g>
<g shape-type="group">
<rect shape-type="rectangle" x="101" y="589" width="1" height="18" fill="url(#lgradient44_5_0)" stroke="#000000" stroke-width="3.00"/>
<rect shape-type="rectangle" x="101" y="589" width="2" height="19" fill="none" stroke="#000000" stroke-width="3.00"/>
</g>
<g shape-type="group">
<rect shape-type="rectangle" x="98" y="603" width="8" height="1" fill="url(#lgradient44_6_0)" stroke="#000000" stroke-width="3.00"/>
<rect shape-type="rectangle" x="98" y="603" width="9" height="2" fill="none" stroke="#000000" stroke-width="3.00"/>
</g>
<line shape-type="limitline" x1="118" y1="608" x2="89" y2="609" fill="#00FFFF" stroke="#000000" stroke-width="4.00"/>
<line shape-type="limitline" x1="90" y1="579" x2="115" y2="580" fill="#00FFFF" stroke="#000000" stroke-width="4.00"/>
<line shape-type="limitline" x1="89" y1="573" x2="94" y2="574" fill="#00FFFF" stroke="#000000" stroke-width="4.00"/>
<line shape-type="limitline" x1="89" y1="569" x2="94" y2="570" fill="#00FFFF" stroke="#000000" stroke-width="3.00"/>
<rect shape-type="rectangle" x="89" y="570" width="5" height="2" fill="#9E9E9E" stroke-width="1.00"/>
<g shape-type="group">
<g shape-type="group">
<g shape-type="group">
<line shape-type="limitline" x1="92" y1="605" x2="91" y2="603" fill="#00FFFF" stroke="#C0C0C0" stroke-width="4.00"/>
<line shape-type="limitline" x1="91" y1="603" x2="90" y2="606" fill="#00FFFF" stroke="#000000" stroke-width="4.00"/>
</g>
<g shape-type="group">
<g shape-type="group">
<rect shape-type="rectangle" x="93" y="603" width="1" height="4" fill="#808080" stroke-width="1.00"/>
<rect shape-type="rectangle" x="94" y="603" width="1" height="4" fill="#9E9E9E" stroke-width="1.00"/>
</g>
<line shape-type="limitline" x1="96" y1="603" x2="95" y2="606" fill="#00FFFF" stroke="#000000" stroke-width="4.00"/>
</g>
</g>
<line shape-type="limitline" x1="98" y1="578" x2="97" y2="592" fill="#00FFFF" stroke="#000000" stroke-width="4.00"/>
<g shape-type="group">
<rect shape-type="rectangle" x="90" y="578" width="7" height="1" fill="#D5D5D5" stroke-width="1.00"/>
<rect shape-type="rectangle" x="90" y="578" width="7" height="2" fill="#D5D5D5" stroke-width="1.00"/>
<rect shape-type="rectangle" x="92" y="579" width="5" height="2" fill="#D5D5D5" stroke-width="1.00"/>
</g>
<g shape-type="group">
<rect shape-type="rectangle" x="95" y="578" width="1" height="15" fill="#808080" stroke-width="1.00"/>
<rect shape-type="rectangle" x="96" y="578" width="1" height="15" fill="#9E9E9E" stroke-width="1.00"/>
</g>
<g shape-type="group">
<line shape-type="limitline" x1="95" y1="580" x2="92" y2="581" fill="#00FFFF" stroke="#000000" stroke-width="3.00"/>
<line shape-type="limitline" x1="92" y1="580" x2="91" y2="579" fill="#00FFFF" stroke="#000000" stroke-width="3.00"/>
<line shape-type="limitline" x1="90" y1="579" x2="91" y2="580" fill="#00FFFF" stroke="#000000" stroke-width="3.00"/>
<line shape-type="limitline" x1="90" y1="579" x2="89" y2="578" fill="#00FFFF" stroke="#000000" stroke-width="3.00"/>
<line shape-type="limitline" x1="90" y1="579" x2="91" y2="580" fill="#00FFFF" stroke="#000000" stroke-width="3.00"/>
</g>
<line shape-type="limitline" x1="95" y1="581" x2="94" y2="583" fill="#00FFFF" stroke="#000000" stroke-width="4.00"/>
<g shape-type="group">
<line shape-type="limitline" x1="95" y1="591" x2="94" y2="583" fill="#00FFFF" stroke="#C0C0C0" stroke-width="4.00"/>
<line shape-type="limitline" x1="94" y1="583" x2="93" y2="592" fill="#00FFFF" stroke="#000000" stroke-width="4.00"/>
</g>
<g shape-type="group">
<g shape-type="group">
<rect shape-type="rectangle" x="93" y="592" width="1" height="8" fill="#808080" stroke-width="1.00"/>
<rect shape-type="rectangle" x="94" y="592" width="1" height="8" fill="#9E9E9E" stroke-width="1.00"/>
</g>
<line shape-type="limitline" x1="96" y1="592" x2="95" y2="599" fill="#00FFFF" stroke="#000000" stroke-width="4.00"/>
</g>
<line shape-type="limitline" x1="94" y1="600" x2="93" y2="592" fill="#00FFFF" stroke="#C0C0C0" stroke-width="4.00"/>
<line shape-type="limitline" x1="92" y1="593" x2="91" y2="596" fill="#00FFFF" stroke="#000000" stroke-width="4.00"/>
<g shape-type="group">
<g shape-type="group">
<line shape-type="limitline" x1="92" y1="601" x2="91" y2="596" fill="#00FFFF" stroke="#C0C0C0" stroke-width="4.00"/>
<line shape-type="limitline" x1="91" y1="596" x2="90" y2="602" fill="#00FFFF" stroke="#000000" stroke-width="4.00"/>
</g>
<g shape-type="group">
<g shape-type="group">
<rect shape-type="rectangle" x="93" y="596" width="1" height="7" fill="#808080" stroke-width="1.00"/>
<rect shape-type="rectangle" x="94" y="596" width="1" height="7" fill="#9E9E9E" stroke-width="1.00"/>
</g>
<line shape-type="limitline" x1="96" y1="596" x2="95" y2="602" fill="#00FFFF" stroke="#000000" stroke-width="4.00"/>
</g>
</g>
</g>
<g shape-type="group">
<g shape-type="group">
<g shape-type="group">
<line shape-type="limitline" x1="110" y1="605" x2="111" y2="603" fill="#00FFFF" stroke="#C0C0C0" stroke-width="4.00"/>
<line shape-type="limitline" x1="113" y1="603" x2="114" y2="606" fill="#00FFFF" stroke="#000000" stroke-width="4.00"/>
</g>
<g shape-type="group">
<g shape-type="group">
<rect shape-type="rectangle" x="108" y="603" width="2" height="4" fill="#808080" stroke-width="1.00"/>
<rect shape-type="rectangle" x="108" y="603" width="1" height="4" fill="#9E9E9E" stroke-width="1.00"/>
</g>
<line shape-type="limitline" x1="107" y1="603" x2="108" y2="606" fill="#00FFFF" stroke="#000000" stroke-width="4.00"/>
</g>
</g>
<line shape-type="limitline" x1="106" y1="578" x2="107" y2="592" fill="#00FFFF" stroke="#000000" stroke-width="4.00"/>
<g shape-type="group">
<rect shape-type="rectangle" x="107" y="578" width="9" height="1" fill="#D5D5D5" stroke-width="1.00"/>
<rect shape-type="rectangle" x="107" y="578" width="7" height="2" fill="#D5D5D5" stroke-width="1.00"/>
<rect shape-type="rectangle" x="107" y="579" width="6" height="2" fill="#D5D5D5" stroke-width="1.00"/>
</g>
<g shape-type="group">
<rect shape-type="rectangle" x="107" y="578" width="2" height="15" fill="#808080" stroke-width="1.00"/>
<rect shape-type="rectangle" x="107" y="578" width="1" height="15" fill="#9E9E9E" stroke-width="1.00"/>
</g>
<g shape-type="group">
<line shape-type="limitline" x1="109" y1="580" x2="111" y2="581" fill="#00FFFF" stroke="#000000" stroke-width="3.00"/>
<line shape-type="limitline" x1="112" y1="580" x2="113" y2="579" fill="#00FFFF" stroke="#000000" stroke-width="3.00"/>
<line shape-type="limitline" x1="115" y1="579" x2="114" y2="580" fill="#00FFFF" stroke="#000000" stroke-width="3.00"/>
<line shape-type="limitline" x1="115" y1="579" x2="116" y2="578" fill="#00FFFF" stroke="#000000" stroke-width="3.00"/>
<line shape-type="limitline" x1="115" y1="579" x2="113" y2="580" fill="#00FFFF" stroke="#000000" stroke-width="3.00"/>
</g>
<line shape-type="limitline" x1="108" y1="581" x2="109" y2="583" fill="#00FFFF" stroke="#000000" stroke-width="4.00"/>
<g shape-type="group">
<line shape-type="limitline" x1="108" y1="591" x2="109" y2="583" fill="#00FFFF" stroke="#C0C0C0" stroke-width="4.00"/>
<line shape-type="limitline" x1="110" y1="583" x2="111" y2="592" fill="#00FFFF" stroke="#000000" stroke-width="4.00"/>
</g>
<g shape-type="group">
<g shape-type="group">
<rect shape-type="rectangle" x="108" y="592" width="2" height="8" fill="#808080" stroke-width="1.00"/>
<rect shape-type="rectangle" x="108" y="592" width="1" height="8" fill="#9E9E9E" stroke-width="1.00"/>
</g>
<line shape-type="limitline" x1="107" y1="592" x2="108" y2="599" fill="#00FFFF" stroke="#000000" stroke-width="4.00"/>
</g>
<line shape-type="limitline" x1="110" y1="600" x2="111" y2="592" fill="#00FFFF" stroke="#C0C0C0" stroke-width="4.00"/>
<line shape-type="limitline" x1="112" y1="593" x2="113" y2="596" fill="#00FFFF" stroke="#000000" stroke-width="4.00"/>
<g shape-type="group">
<g shape-type="group">
<line shape-type="limitline" x1="110" y1="601" x2="111" y2="596" fill="#00FFFF" stroke="#C0C0C0" stroke-width="4.00"/>
<line shape-type="limitline" x1="113" y1="596" x2="114" y2="602" fill="#00FFFF" stroke="#000000" stroke-width="4.00"/>
</g>
<g shape-type="group">
<g shape-type="group">
<rect shape-type="rectangle" x="108" y="596" width="2" height="7" fill="#808080" stroke-width="1.00"/>
<rect shape-type="rectangle" x="108" y="596" width="1" height="7" fill="#9E9E9E" stroke-width="1.00"/>
</g>
<line shape-type="limitline" x1="107" y1="596" x2="108" y2="602" fill="#00FFFF" stroke="#000000" stroke-width="4.00"/>
</g>
</g>
</g>
</g>
<line shape-type="limitline" x1="85" y1="574" x2="85" y2="180" fill="#00FFFF" stroke="#F9FF00" stroke-width="3.00"/>
<line shape-type="limitline" x1="87" y1="256" x2="270" y2="256" fill="#00FFFF" stroke="#F9FF00" stroke-width="3.00"/>
<line shape-type="limitline" x1="286" y1="253" x2="378" y2="253" fill="#00FFFF" stroke="#F9FF00" stroke-width="3.00"/>
<line shape-type="limitline" x1="378" y1="252" x2="378" y2="309" fill="#00FFFF" stroke="#F9FF00" stroke-width="3.00"/>
<line shape-type="limitline" x1="986" y1="220" x2="826" y2="220" fill="#00FFFF" stroke="#00FF00" stroke-width="3.00"/>
<line shape-type="limitline" x1="796" y1="220" x2="600" y2="220" fill="#00FFFF" stroke="#00FF00" stroke-width="3.00"/>
<line shape-type="limitline" x1="279" y1="220" x2="573" y2="220" fill="#00FFFF" stroke="#00FF00" stroke-width="3.00"/>
<line shape-type="limitline" x1="943" y1="220" x2="943" y2="531" fill="#00FFFF" stroke="#00FF00" stroke-width="3.00"/>
<line shape-type="limitline" x1="679" y1="481" x2="679" y2="319" fill="#00FFFF" stroke="#00FF00" stroke-width="3.00"/>
<line shape-type="limitline" x1="649" y1="483" x2="753" y2="483" fill="#00FFFF" stroke="#00FF00" stroke-width="3.00"/>
<line shape-type="limitline" x1="876" y1="531" x2="943" y2="531" fill="#00FFFF" stroke="#00FF00" stroke-width="3.00"/>
<line shape-type="limitline" x1="680" y1="301" x2="680" y2="219" fill="#00FFFF" stroke="#00FF00" stroke-width="3.00"/>
<line shape-type="limitline" x1="414" y1="492" x2="414" y2="330" fill="#00FFFF" stroke="#00FF00" stroke-width="3.00"/>
<line shape-type="limitline" x1="727" y1="408" x2="727" y2="318" fill="#00FFFF" stroke="#00FF00" stroke-width="3.00"/>
<line shape-type="limitline" x1="728" y1="302" x2="728" y2="248" fill="#00FFFF" stroke="#00FF00" stroke-width="3.00"/>
<line shape-type="limitline" x1="806" y1="247" x2="685" y2="247" fill="#00FFFF" stroke="#00FF00" stroke-width="3.00"/>
<line shape-type="limitline" x1="824" y1="247" x2="937" y2="247" fill="#00FFFF" stroke="#00FF00" stroke-width="3.00"/>
<line shape-type="limitline" x1="950" y1="246" x2="996" y2="246" fill="#00FFFF" stroke="#00FF00" stroke-width="3.00"/>
<line shape-type="limitline" x1="671" y1="247" x2="597" y2="247" fill="#00FFFF" stroke="#00FF00" stroke-width="3.00"/>
<line shape-type="limitline" x1="583" y1="248" x2="485" y2="248" fill="#00FFFF" stroke="#00FF00" stroke-width="3.00"/>
<line shape-type="limitline" x1="726" y1="409" x2="753" y2="409" fill="#00FFFF" stroke="#00FF00" stroke-width="3.00"/>
<line shape-type="limitline" x1="679" y1="278" x2="604" y2="278" fill="#00FFFF" stroke="#00FF00" stroke-width="3.00"/>
<line shape-type="limitline" x1="580" y1="278" x2="416" y2="278" fill="#00FFFF" stroke="#00FF00" stroke-width="3.00"/>
<line shape-type="limitline" x1="416" y1="305" x2="416" y2="277" fill="#00FFFF" stroke="#00FF00" stroke-width="3.00"/>
<line shape-type="limitline" x1="486" y1="305" x2="486" y2="288" fill="#00FFFF" stroke="#00FF00" stroke-width="3.00"/>
<line shape-type="limitline" x1="485" y1="273" x2="485" y2="247" fill="#00FFFF" stroke="#00FF00" stroke-width="3.00"/>
<line shape-type="limitline" x1="486" y1="317" x2="486" y2="407" fill="#00FFFF" stroke="#00FF00" stroke-width="3.00"/>
<line shape-type="limitline" x1="413" y1="492" x2="526" y2="492" fill="#00FFFF" stroke="#00FF00" stroke-width="3.00"/>
<line shape-type="limitline" x1="486" y1="408" x2="532" y2="408" fill="#00FFFF" stroke="#00FF00" stroke-width="3.00"/>
<g shape-type="group">
<rect shape-type="rectangle" x="992" y="217" width="12" height="6" fill="#808080" stroke="#C0C0C0" stroke-width="1.00"/>
<polygon shape-type="trapezium" points="993,214 993,226 986,220 986,220 993,214" fill="#808080" stroke="#C0C0C0" stroke-width="1.00"/>
</g>
<text font-family="宋体" text-anchor="start" fill="#FFFFFF" shape-type="text" id="" font-size="8.000000" font-weight="bold" x="987" y="208">来自系统热水</text>
<g shape-type="group">
<rect shape-type="rectangle" x="995" y="243" width="11" height="5" fill="#808080" stroke="#C0C0C0" stroke-width="1.00"/>
<polygon shape-type="trapezium" points="1005,252 1005,241 1013,246 1013,246 1005,252" fill="#808080" stroke="#C0C0C0" stroke-width="1.00"/>
</g>
<g shape-type="group">
<rect shape-type="rectangle" x="718" y="69" width="52" height="27" fill="#4A494A" stroke="#C0C0C0" stroke-width="3.00"/>
<rect shape-type="rectangle" x="771" y="69" width="36" height="27" fill="#4A494A" stroke="#C0C0C0" stroke-width="3.00"/>
</g>
<text font-family="宋体" text-anchor="start" fill="#00FF42" shape-type="text" id="" font-size="13.250000" font-weight="bold" x="782" y="88">℃</text>
<line shape-type="limitline" x1="773" y1="98" x2="773" y2="167" fill="#00FFFF" stroke="#FFFFFF" stroke-width="3.00" stroke-dasharray="5 10"/>
<text font-family="Arial" text-anchor="start" fill="#00FFFF" shape-type="realdata" id="LLB_LS1_TI42002" font-size="12.500000" x="723" y="87">XXXX</text>
<g shape-type="group">
<rect shape-type="rectangle" x="965" y="471" width="52" height="27" fill="#4A494A" stroke="#C0C0C0" stroke-width="3.00"/>
<rect shape-type="rectangle" x="1018" y="471" width="37" height="27" fill="#4A494A" stroke="#C0C0C0" stroke-width="3.00"/>
</g>
<text font-family="宋体" text-anchor="start" fill="#00FF42" shape-type="text" id="" font-size="13.250000" font-weight="bold" x="1029" y="491">m</text>
<line shape-type="limitline" x1="965" y1="481" x2="872" y2="481" fill="#00FFFF" stroke="#FFFFFF" stroke-width="3.00" stroke-dasharray="5 10"/>
<text font-family="Arial" text-anchor="start" fill="#00FFFF" shape-type="realdata" id="LLB_LS1_LI42001b" font-size="12.500000" x="971" y="491">XXXX</text>
<g shape-type="group">
<rect shape-type="rectangle" x="965" y="499" width="52" height="27" fill="#4A494A" stroke="#C0C0C0" stroke-width="3.00"/>
<rect shape-type="rectangle" x="1018" y="499" width="37" height="27" fill="#4A494A" stroke="#C0C0C0" stroke-width="3.00"/>
</g>
<text font-family="Arial" text-anchor="start" fill="#00FFFF" shape-type="realdata" id="LLB_LS1_TI42001b" font-size="12.500000" x="971" y="517">XXXX</text>
<g shape-type="group">
<rect shape-type="rectangle" x="419" y="449" width="52" height="27" fill="#4A494A" stroke="#C0C0C0" stroke-width="3.00"/>
<rect shape-type="rectangle" x="472" y="449" width="37" height="27" fill="#4A494A" stroke="#C0C0C0" stroke-width="3.00"/>
</g>
<text font-family="宋体" text-anchor="start" fill="#00FF42" shape-type="text" id="" font-size="13.250000" font-weight="bold" x="485" y="465">m</text>
<line shape-type="limitline" x1="509" y1="455" x2="529" y2="455" fill="#00FFFF" stroke="#FFFFFF" stroke-width="3.00" stroke-dasharray="5 10"/>
<text font-family="Arial" text-anchor="start" fill="#00FFFF" shape-type="realdata" id="LLB_LS1_LI42001a" font-size="12.500000" x="424" y="467">XXXX</text>
<g shape-type="group">
<rect shape-type="rectangle" x="419" y="422" width="52" height="27" fill="#4A494A" stroke="#C0C0C0" stroke-width="3.00"/>
<rect shape-type="rectangle" x="472" y="422" width="37" height="27" fill="#4A494A" stroke="#C0C0C0" stroke-width="3.00"/>
</g>
<text font-family="Arial" text-anchor="start" fill="#00FFFF" shape-type="realdata" id="LLB_LS1_TI42001a" font-size="12.500000" x="425" y="439">XXXX</text>
<text font-family="宋体" text-anchor="start" fill="#00FF42" shape-type="text" id="" font-size="13.250000" font-weight="bold" x="482" y="441">℃</text>
<text font-family="宋体" text-anchor="start" fill="#00FF42" shape-type="text" id="" font-size="13.250000" font-weight="bold" x="1026" y="517">℃</text>
<g shape-type="group">
<rect shape-type="rectangle" x="61" y="108" width="53" height="27" fill="#4A494A" stroke="#C0C0C0" stroke-width="3.00"/>
<rect shape-type="rectangle" x="115" y="108" width="35" height="27" fill="#4A494A" stroke="#C0C0C0" stroke-width="3.00"/>
</g>
<g shape-type="group">
<rect shape-type="rectangle" x="61" y="80" width="53" height="27" fill="#4A494A" stroke="#C0C0C0" stroke-width="3.00"/>
<rect shape-type="rectangle" x="115" y="80" width="35" height="27" fill="#4A494A" stroke="#C0C0C0" stroke-width="3.00"/>
</g>
<text font-family="宋体" text-anchor="start" fill="#00FF00" shape-type="text" id="" font-size="9.500000" font-weight="bold" x="119" y="96">m3/h</text>
<line shape-type="limitline" x1="116" y1="178" x2="116" y2="136" fill="#00FFFF" stroke="#FFFFFF" stroke-width="3.00" stroke-dasharray="5 10"/>
<text font-family="Arial" text-anchor="start" fill="#00FFFF" shape-type="realdata" id="LLB_LS1_FI42001" font-size="12.500000" x="67" y="97">XXXX</text>
<text font-family="Arial" text-anchor="start" fill="#00FFFF" shape-type="realdata" id="LLB_LS1_FIRQ42001" font-size="12.500000" x="67" y="126">XXXX</text>
<text font-family="宋体" text-anchor="start" fill="#00FF00" shape-type="text" id="" font-size="9.500000" font-weight="bold" x="124" y="125">m3</text>
<text font-family="宋体" text-anchor="start" fill="#FFFFFF" shape-type="text" id="" font-size="8.000000" font-weight="bold" x="1013" y="250">回热水罐</text>
<a xlink:href="LHZS_ML.svg">
<g shape-type="button">
<rect fill="#C0C0C0" stroke-width="0.3" stroke="#FFFFFF" x="962" y="1" width="100" height="36" shape-type="buttonrect"/>
<text font-family="宋体" text-anchor="middle" dominant-baseline="middle" fill="#800000" font-size="13.500000" font-weight="bold" x="1012" y="25" shape-type="buttontext">返回上一级</text>
</g>
</a>
<a xlink:href="2#硫酸\2#LS_ML.svg">
<g shape-type="button">
<rect fill="#C0C0C0" stroke-width="0.3" stroke="#FFFFFF" x="92" y="761" width="119" height="32" shape-type="buttonrect"/>
<text font-family="宋体" text-anchor="middle" dominant-baseline="middle" fill="#000000" font-size="12.000000" x="152" y="783" shape-type="buttontext">2#硫酸</text>
</g>
</a>
<a xlink:href="3#硫酸\3#LS_ML.svg">
<g shape-type="button">
<rect fill="#C0C0C0" stroke-width="0.3" stroke="#FFFFFF" x="226" y="761" width="121" height="32" shape-type="buttonrect"/>
<text font-family="宋体" text-anchor="middle" dominant-baseline="middle" fill="#000000" font-size="12.000000" x="287" y="783" shape-type="buttontext">3#硫酸</text>
</g>
</a>
<a xlink:href="硫酸成品罐区.svg">
<g shape-type="button">
<rect fill="#C0C0C0" stroke-width="0.3" stroke="#FFFFFF" x="365" y="761" width="121" height="32" shape-type="buttonrect"/>
<text font-family="宋体" text-anchor="middle" dominant-baseline="middle" fill="#000000" font-size="12.000000" x="426" y="783" shape-type="buttontext">硫酸成品灌区</text>
</g>
</a>
<a xlink:href="液磺罐区.svg">
<g shape-type="button">
<rect fill="#C0C0C0" stroke-width="0.3" stroke="#FFFFFF" x="641" y="761" width="121" height="32" shape-type="buttonrect"/>
<text font-family="宋体" text-anchor="middle" dominant-baseline="middle" fill="#000000" font-size="12.000000" x="701" y="783" shape-type="buttontext">液磺罐区</text>
</g>
</a>
<a xlink:href="母液罐区.svg">
<g shape-type="button">
<rect fill="#C0C0C0" stroke-width="0.3" stroke="#FFFFFF" x="778" y="761" width="121" height="32" shape-type="buttonrect"/>
<text font-family="宋体" text-anchor="middle" dominant-baseline="middle" fill="#000000" font-size="12.000000" x="838" y="783" shape-type="buttontext">母液罐区</text>
</g>
</a>
<a xlink:href="硫酸成品罐区2.svg">
<g shape-type="button">
<rect fill="#C0C0C0" stroke-width="0.3" stroke="#FFFFFF" x="502" y="761" width="122" height="32" shape-type="buttonrect"/>
<text font-family="宋体" text-anchor="middle" dominant-baseline="middle" fill="#000000" font-size="12.000000" x="563" y="783" shape-type="buttontext">硫酸成品灌区2</text>
</g>
</a>
</svg>
