<svg xmlns="http://www.w3.org/2000/svg" xmlns:xlink="http://www.w3.org/1999/xlink" version="1.1" style="background-color:#7DB6C1" width="1062" height="669" viewbox="0 0 1062 669"><defs>
<linearGradient x1="50.000000%" y1="0.000000%" x2="50.000000%" y2="100.000000%" id="lgradient1">
<stop offset="0" stop-color="#2C2C2C" stop-opacity="1"/>
<stop offset="0.5" stop-color="#FFFFFF" stop-opacity="1"/>
<stop offset="1" stop-color="#2C2C2C" stop-opacity="1"/>
</linearGradient>
<linearGradient x1="0.000000%" y1="50.000000%" x2="100.000000%" y2="50.000000%" id="lgradient2_0">
<stop offset="0" stop-color="#2C2C2C" stop-opacity="1"/>
<stop offset="0.5" stop-color="#FFFFFF" stop-opacity="1"/>
<stop offset="1" stop-color="#2C2C2C" stop-opacity="1"/>
</linearGradient>
<linearGradient x1="50.000000%" y1="0.000000%" x2="50.000000%" y2="100.000000%" id="lgradient2_1">
<stop offset="0" stop-color="#2C2C2C" stop-opacity="1"/>
<stop offset="0.5" stop-color="#FFFFFF" stop-opacity="1"/>
<stop offset="1" stop-color="#2C2C2C" stop-opacity="1"/>
</linearGradient>
<linearGradient x1="50.000000%" y1="0.000000%" x2="50.000000%" y2="100.000000%" id="lgradient7_0">
<stop offset="0" stop-color="#2C2C2C" stop-opacity="1"/>
<stop offset="0.5" stop-color="#FFFFFF" stop-opacity="1"/>
<stop offset="1" stop-color="#2C2C2C" stop-opacity="1"/>
</linearGradient>
<linearGradient x1="0.000000%" y1="50.000000%" x2="100.000000%" y2="50.000000%" id="lgradient7_1">
<stop offset="0" stop-color="#2C2C2C" stop-opacity="1"/>
<stop offset="0.5" stop-color="#FFFFFF" stop-opacity="1"/>
<stop offset="1" stop-color="#2C2C2C" stop-opacity="1"/>
</linearGradient>
<linearGradient x1="0.000000%" y1="50.000000%" x2="100.000000%" y2="50.000000%" id="lgradient7_2">
<stop offset="0" stop-color="#2C2C2C" stop-opacity="1"/>
<stop offset="0.5" stop-color="#FFFFFF" stop-opacity="1"/>
<stop offset="1" stop-color="#2C2C2C" stop-opacity="1"/>
</linearGradient>
</defs>
<rect shape-type="roundRectangle" rx="20" ry="20" x="173" y="150" width="186" height="40" fill="url(#lgradient1)" stroke="#FFFFFF" stroke-width="1.00"/>
<g shape-type="group">
<rect shape-type="roundRectangle" rx="20" ry="20" x="208" y="501" width="19" height="57" fill="url(#lgradient2_0)" stroke="#FFFFFF" stroke-width="1.00"/>
<rect shape-type="roundRectangle" rx="20" ry="20" x="172" y="485" width="186" height="40" fill="url(#lgradient2_1)" stroke="#FFFFFF" stroke-width="1.00"/>
</g>
<rect shape-type="rectangle" x="196" y="150" width="10" height="39" fill="#FFFFFF" stroke="#000000" stroke-width="1.00"/>
<rect shape-type="rectangle" x="188" y="485" width="10" height="39" fill="#FFFFFF" stroke="#000000" stroke-width="1.00"/>
<line shape-type="limitline" x1="187" y1="189" x2="187" y2="150" fill="#FFFFFF" stroke="#000000" stroke-width="1.00"/>
<line shape-type="limitline" x1="343" y1="189" x2="343" y2="150" fill="#FFFFFF" stroke="#000000" stroke-width="1.00"/>
<g shape-type="group">
<rect shape-type="roundRectangle" rx="20" ry="20" x="1114" y="233" width="113" height="26" fill="url(#lgradient7_0)" stroke="#FFFFFF" stroke-width="1.00"/>
<rect shape-type="rectangle" x="1124" y="231" width="7" height="32" fill="url(#lgradient7_1)" stroke="#000000" stroke-width="1.00"/>
<rect shape-type="rectangle" x="1211" y="231" width="7" height="30" fill="url(#lgradient7_2)" stroke="#000000" stroke-width="1.00"/>
</g>
<g shape-type="group">
<polygon shape-type="trapezium" points="341,693 311,693 326,675 326,675 341,693" fill="#C0C0C0" stroke="#000000" stroke-width="1.00"/>
<ellipse shape-type="ellipse" cx="327" cy="676" rx="13" ry="12" fill="#C0C0C0" stroke="#000000" stroke-width="1.00"/>
<ellipse shape-type="ellipse" cx="326" cy="675" rx="7" ry="7" fill="#FF0000" stroke="#000000" stroke-width="1.00"/>
</g>
<g shape-type="group">
<polygon shape-type="trapezium" points="458,693 428,693 443,675 443,675 458,693" fill="#C0C0C0" stroke="#000000" stroke-width="1.00"/>
<ellipse shape-type="ellipse" cx="444" cy="676" rx="13" ry="12" fill="#C0C0C0" stroke="#000000" stroke-width="1.00"/>
<ellipse shape-type="ellipse" cx="444" cy="675" rx="7" ry="7" fill="#FF0000" stroke="#000000" stroke-width="1.00"/>
</g>
<g shape-type="group">
<polygon shape-type="trapezium" points="932,695 902,695 917,677 917,677 932,695" fill="#C0C0C0" stroke="#000000" stroke-width="1.00"/>
<ellipse shape-type="ellipse" cx="917" cy="678" rx="13" ry="12" fill="#C0C0C0" stroke="#000000" stroke-width="1.00"/>
<ellipse shape-type="ellipse" cx="917" cy="677" rx="7" ry="7" fill="#FF0000" stroke="#000000" stroke-width="1.00"/>
</g>
<g shape-type="group">
<polygon shape-type="trapezium" points="1049,695 1019,695 1034,677 1034,677 1049,695" fill="#C0C0C0" stroke="#000000" stroke-width="1.00"/>
<ellipse shape-type="ellipse" cx="1034" cy="678" rx="13" ry="12" fill="#C0C0C0" stroke="#000000" stroke-width="1.00"/>
<ellipse shape-type="ellipse" cx="1034" cy="677" rx="7" ry="7" fill="#FF0000" stroke="#000000" stroke-width="1.00"/>
</g>
<line shape-type="limitline" x1="260" y1="220" x2="260" y2="189" fill="#FFFFFF" stroke="#FFFFFF" stroke-width="3.00"/>
<line shape-type="limitline" x1="259" y1="221" x2="854" y2="221" fill="#FFFFFF" stroke="#FFFFFF" stroke-width="3.00"/>
<line shape-type="limitline" x1="854" y1="674" x2="854" y2="222" fill="#FFFFFF" stroke="#FFFFFF" stroke-width="3.00"/>
<line shape-type="limitline" x1="906" y1="676" x2="853" y2="676" fill="#FFFFFF" stroke="#FFFFFF" stroke-width="3.00"/>
<line shape-type="limitline" x1="1172" y1="234" x2="1172" y2="53" fill="#FFFFFF" stroke="#FFFFFF" stroke-width="3.00"/>
<line shape-type="limitline" x1="1172" y1="54" x2="1537" y2="54" fill="#FFFFFF" stroke="#FFFFFF" stroke-width="3.00"/>
<line shape-type="limitline" x1="56" y1="388" x2="257" y2="388" fill="#FFFFFF" stroke="#FFFFFF" stroke-width="3.00"/>
<line shape-type="limitline" x1="259" y1="387" x2="259" y2="483" fill="#FFFFFF" stroke="#FFFFFF" stroke-width="3.00"/>
<line shape-type="limitline" x1="255" y1="674" x2="255" y2="524" fill="#FFFFFF" stroke="#FFFFFF" stroke-width="3.00"/>
<line shape-type="limitline" x1="316" y1="674" x2="255" y2="674" fill="#FFFFFF" stroke="#FFFFFF" stroke-width="3.00"/>
<line shape-type="limitline" x1="339" y1="579" x2="339" y2="671" fill="#FFFFFF" stroke="#FFFFFF" stroke-width="3.00"/>
<line shape-type="limitline" x1="338" y1="578" x2="848" y2="578" fill="#FFFFFF" stroke="#FFFFFF" stroke-width="3.00"/>
<line shape-type="limitline" x1="893" y1="578" x2="857" y2="578" fill="#FFFFFF" stroke="#FFFFFF" stroke-width="3.00"/>
<line shape-type="limitline" x1="895" y1="578" x2="895" y2="96" fill="#FFFFFF" stroke="#FFFFFF" stroke-width="3.00"/>
<line shape-type="limitline" x1="894" y1="97" x2="1075" y2="97" fill="#FFFFFF" stroke="#FFFFFF" stroke-width="3.00"/>
<line shape-type="limitline" x1="1076" y1="306" x2="1076" y2="97" fill="#FFFFFF" stroke="#FFFFFF" stroke-width="3.00"/>
<line shape-type="limitline" x1="1210" y1="307" x2="1076" y2="307" fill="#FFFFFF" stroke="#FFFFFF" stroke-width="3.00"/>
<line shape-type="limitline" x1="1209" y1="259" x2="1209" y2="307" fill="#FFFFFF" stroke="#FFFFFF" stroke-width="3.00"/>
<line shape-type="limitline" x1="896" y1="342" x2="1048" y2="342" fill="#FFFFFF" stroke="#FFFFFF" stroke-width="3.00"/>
<line shape-type="limitline" x1="1048" y1="677" x2="1048" y2="343" fill="#FFFFFF" stroke="#FFFFFF" stroke-width="3.00"/>
<line shape-type="limitline" x1="930" y1="674" x2="930" y2="594" fill="#FFFFFF" stroke="#FFFFFF" stroke-width="3.00"/>
<line shape-type="limitline" x1="1046" y1="594" x2="930" y2="594" fill="#FFFFFF" stroke="#FFFFFF" stroke-width="3.00"/>
<line shape-type="limitline" x1="855" y1="626" x2="924" y2="626" fill="#FFFFFF" stroke="#FFFFFF" stroke-width="3.00"/>
<line shape-type="limitline" x1="932" y1="625" x2="955" y2="625" fill="#FFFFFF" stroke="#FFFFFF" stroke-width="3.00"/>
<line shape-type="limitline" x1="955" y1="626" x2="955" y2="676" fill="#FFFFFF" stroke="#FFFFFF" stroke-width="3.00"/>
<line shape-type="limitline" x1="1024" y1="677" x2="955" y2="677" fill="#FFFFFF" stroke="#FFFFFF" stroke-width="3.00"/>
<line shape-type="limitline" x1="259" y1="423" x2="61" y2="423" fill="#FFFFFF" stroke="#FFFFFF" stroke-width="3.00"/>
<line shape-type="limitline" x1="457" y1="677" x2="457" y2="579" fill="#FFFFFF" stroke="#FFFFFF" stroke-width="3.00"/>
<line shape-type="limitline" x1="334" y1="624" x2="255" y2="624" fill="#FFFFFF" stroke="#FFFFFF" stroke-width="3.00"/>
<line shape-type="limitline" x1="400" y1="624" x2="344" y2="624" fill="#FFFFFF" stroke="#FFFFFF" stroke-width="3.00"/>
<line shape-type="limitline" x1="400" y1="669" x2="400" y2="624" fill="#FFFFFF" stroke="#FFFFFF" stroke-width="3.00"/>
<line shape-type="limitline" x1="433" y1="670" x2="401" y2="670" fill="#FFFFFF" stroke="#FFFFFF" stroke-width="3.00"/>
<line shape-type="limitline" x1="217" y1="89" x2="69" y2="89" fill="#FFFFFF" stroke="#FFFFFF" stroke-width="3.00"/>
<line shape-type="limitline" x1="218" y1="153" x2="218" y2="88" fill="#FFFFFF" stroke="#FFFFFF" stroke-width="3.00"/>
<line shape-type="limitline" x1="185" y1="120" x2="185" y2="89" fill="#FFFFFF" stroke="#FFFFFF" stroke-width="2.00"/>
<line shape-type="limitline" x1="69" y1="120" x2="185" y2="120" fill="#FFFFFF" stroke="#FFFFFF" stroke-width="2.00"/>
<line shape-type="limitline" x1="50" y1="16" x2="246" y2="16" fill="#FFFFFF" stroke="#FFFFFF" stroke-width="2.00"/>
<line shape-type="limitline" x1="246" y1="150" x2="246" y2="16" fill="#FFFFFF" stroke="#FFFFFF" stroke-width="2.00"/>
<line shape-type="limitline" x1="338" y1="453" x2="338" y2="484" fill="#FFFFFF" stroke="#FFFF00" stroke-width="2.00"/>
<line shape-type="limitline" x1="338" y1="453" x2="558" y2="453" fill="#FFFFFF" stroke="#FFFF00" stroke-width="2.00"/>
<line shape-type="limitline" x1="332" y1="117" x2="332" y2="148" fill="#FFFFFF" stroke="#FFFF00" stroke-width="2.00"/>
<line shape-type="limitline" x1="332" y1="117" x2="552" y2="117" fill="#FFFFFF" stroke="#FFFF00" stroke-width="2.00"/>
<line shape-type="limitline" x1="382" y1="393" x2="382" y2="453" fill="#FFFFFF" stroke="#FFFFFF" stroke-width="2.00"/>
<line shape-type="limitline" x1="574" y1="393" x2="382" y2="393" fill="#FFFFFF" stroke="#FFFFFF" stroke-width="2.00"/>
<line shape-type="limitline" x1="365" y1="56" x2="365" y2="116" fill="#FFFFFF" stroke="#FFFFFF" stroke-width="2.00"/>
<line shape-type="limitline" x1="557" y1="56" x2="365" y2="56" fill="#FFFFFF" stroke="#FFFFFF" stroke-width="2.00"/>
<line shape-type="limitline" x1="1131" y1="230" x2="1131" y2="169" fill="#FFFFFF" stroke="#FF0000" stroke-width="2.00"/>
<line shape-type="limitline" x1="1168" y1="168" x2="1131" y2="168" fill="#FFFFFF" stroke="#FF0000" stroke-width="2.00"/>
<line shape-type="limitline" x1="1531" y1="168" x2="1178" y2="168" fill="#FFFFFF" stroke="#FF0000" stroke-width="2.00"/>
<line shape-type="limitline" x1="1342" y1="215" x2="1342" y2="169" fill="#FFFFFF" stroke="#00FF00" stroke-width="2.00"/>
<line shape-type="limitline" x1="1533" y1="216" x2="1342" y2="216" fill="#FFFFFF" stroke="#00FF00" stroke-width="2.00"/>
<line shape-type="limitline" x1="1135" y1="302" x2="1135" y2="261" fill="#FFFFFF" stroke="#00FF00" stroke-width="2.00"/>
<line shape-type="limitline" x1="1135" y1="367" x2="1135" y2="311" fill="#FFFFFF" stroke="#00FF00" stroke-width="2.00"/>
<line shape-type="limitline" x1="1492" y1="369" x2="1135" y2="369" fill="#FFFFFF" stroke="#00FF00" stroke-width="2.00"/>
<line shape-type="limitline" x1="1048" y1="573" x2="1527" y2="573" fill="#FFFFFF" stroke="#FFFFFF" stroke-width="2.00"/>
<g shape-type="group">
<polygon shape-type="trapezium" points="1519,223 1519,209 1505,216 1505,216 1519,223" stroke="#00FF00" stroke-width="2.00"/>
<rect shape-type="rectangle" x="1519" y="211" width="25" height="8" stroke="#00FF00" stroke-width="2.00"/>
</g>
<g shape-type="group">
<polygon shape-type="trapezium" points="1518,174 1518,160 1504,167 1504,167 1518,174" stroke="#FFFFFF" stroke-width="2.00"/>
<rect shape-type="rectangle" x="1518" y="163" width="25" height="7" stroke="#FFFFFF" stroke-width="2.00"/>
</g>
<g shape-type="group">
<polygon shape-type="trapezium" points="1533,63 1533,49 1548,56 1548,56 1533,63" stroke="#FFFFFF" stroke-width="2.00"/>
<rect shape-type="rectangle" x="1509" y="51" width="24" height="7" stroke="#FFFFFF" stroke-width="2.00"/>
</g>
<g shape-type="group">
<polygon shape-type="trapezium" points="1513,376 1513,363 1527,369 1527,369 1513,376" stroke="#FFFFFF" stroke-width="2.00"/>
<rect shape-type="rectangle" x="1489" y="365" width="25" height="8" stroke="#FFFFFF" stroke-width="2.00"/>
</g>
<g shape-type="group">
<polygon shape-type="trapezium" points="1530,585 1530,566 1545,575 1545,575 1530,585" stroke="#FFFFFF" stroke-width="2.00"/>
<rect shape-type="rectangle" x="1507" y="570" width="24" height="10" stroke="#FFFFFF" stroke-width="2.00"/>
</g>
<g shape-type="group">
<polygon shape-type="trapezium" points="579,403 579,384 594,393 594,393 579,403" stroke="#FFFFFF" stroke-width="2.00"/>
<rect shape-type="rectangle" x="556" y="388" width="24" height="11" stroke="#FFFFFF" stroke-width="2.00"/>
</g>
<g shape-type="group">
<polygon shape-type="trapezium" points="569,65 569,50 584,57 584,57 569,65" stroke="#FFFFFF" stroke-width="2.00"/>
<rect shape-type="rectangle" x="546" y="53" width="24" height="8" stroke="#FFFFFF" stroke-width="2.00"/>
</g>
<g shape-type="group">
<polygon shape-type="trapezium" points="564,125 564,110 549,117 549,117 564,125" stroke="#FFFF00" stroke-width="2.00"/>
<rect shape-type="rectangle" x="563" y="114" width="25" height="8" stroke="#FFFF00" stroke-width="2.00"/>
</g>
<g shape-type="group">
<polygon shape-type="trapezium" points="45,23 45,8 60,15 60,15 45,23" stroke="#FFFFFF" stroke-width="2.00"/>
<rect shape-type="rectangle" x="22" y="11" width="24" height="9" stroke="#FFFFFF" stroke-width="2.00"/>
</g>
<g shape-type="group">
<polygon shape-type="trapezium" points="57,95 57,80 72,87 72,87 57,95" stroke="#FFFFFF" stroke-width="2.00"/>
<rect shape-type="rectangle" x="34" y="83" width="24" height="9" stroke="#FFFFFF" stroke-width="2.00"/>
</g>
<g shape-type="group">
<polygon shape-type="trapezium" points="51,129 51,114 36,121 36,121 51,129" stroke="#FFFFFF" stroke-width="2.00"/>
<rect shape-type="rectangle" x="50" y="117" width="24" height="8" stroke="#FFFFFF" stroke-width="2.00"/>
</g>
<g shape-type="group">
<polygon shape-type="trapezium" points="53,396 53,381 68,388 68,388 53,396" stroke="#FFFFFF" stroke-width="2.00"/>
<rect shape-type="rectangle" x="30" y="384" width="24" height="9" stroke="#FFFFFF" stroke-width="2.00"/>
</g>
<g shape-type="group">
<polygon shape-type="trapezium" points="53,430 53,415 68,422 68,422 53,430" stroke="#FFFFFF" stroke-width="2.00"/>
<rect shape-type="rectangle" x="30" y="418" width="24" height="8" stroke="#FFFFFF" stroke-width="2.00"/>
</g>
<g shape-type="group">
<polygon shape-type="trapezium" points="566,463 566,447 551,455 551,455 566,463" stroke="#FFFF00" stroke-width="2.00"/>
<rect shape-type="rectangle" x="565" y="450" width="24" height="8" stroke="#FFFF00" stroke-width="2.00"/>
</g>
<g shape-type="group">
<polygon shape-type="trapezium" points="221,119 213,119 217,128 217,128 221,119" fill="#FF0000" stroke="#FFFFFF" stroke-width="1.00"/>
<polygon shape-type="trapezium" points="221,136 213,136 217,129 217,129 221,136" fill="#FF0000" stroke="#FFFFFF" stroke-width="1.00"/>
<line shape-type="limitline" x1="217" y1="129" x2="206" y2="130" fill="#FFFFFF" stroke="#FFFFFF" stroke-width="1.00"/>
<path shape-type="chord" d="M 209,118 A 12,12 0 1,0 209,138 z" fill="#C0C0C0" stroke="#FFFFFF" stroke-width="1.00"/>
</g>
<g shape-type="group">
<polygon shape-type="trapezium" points="410,113 410,121 401,117 401,117 410,113" fill="#FF0000" stroke="#FFFFFF" stroke-width="1.00"/>
<polygon shape-type="trapezium" points="393,113 393,121 400,117 400,117 393,113" fill="#FF0000" stroke="#FFFFFF" stroke-width="1.00"/>
<line shape-type="limitline" x1="400" y1="117" x2="399" y2="106" fill="#FFFFFF" stroke="#FFFFFF" stroke-width="1.00"/>
<path shape-type="chord" d="M 413,109 A 12,12 0 0,0 393,109 z" fill="#C0C0C0" stroke="#FFFFFF" stroke-width="1.00"/>
</g>
<g shape-type="group">
<polygon shape-type="trapezium" points="415,52 415,60 405,56 405,56 415,52" fill="#FF0000" stroke="#FFFFFF" stroke-width="1.00"/>
<polygon shape-type="trapezium" points="397,52 397,60 404,56 404,56 397,52" fill="#FF0000" stroke="#FFFFFF" stroke-width="1.00"/>
<line shape-type="limitline" x1="404" y1="56" x2="403" y2="46" fill="#FFFFFF" stroke="#FFFFFF" stroke-width="1.00"/>
<path shape-type="chord" d="M 417,49 A 12,12 0 0,0 397,49 z" fill="#C0C0C0" stroke="#FFFFFF" stroke-width="1.00"/>
</g>
<g shape-type="group">
<polygon shape-type="trapezium" points="1234,164 1234,172 1225,168 1225,168 1234,164" fill="#FF0000" stroke="#FFFFFF" stroke-width="1.00"/>
<polygon shape-type="trapezium" points="1217,164 1217,172 1224,168 1224,168 1217,164" fill="#FF0000" stroke="#FFFFFF" stroke-width="1.00"/>
<line shape-type="limitline" x1="1224" y1="168" x2="1223" y2="157" fill="#FFFFFF" stroke="#FFFFFF" stroke-width="1.00"/>
<path shape-type="chord" d="M 1237,160 A 12,12 0 0,0 1217,160 z" fill="#C0C0C0" stroke="#FFFFFF" stroke-width="1.00"/>
</g>
<g shape-type="group">
<polygon shape-type="trapezium" points="1044,464 1052,464 1048,454 1048,454 1044,464" fill="#FF0000" stroke="#FFFFFF" stroke-width="1.00"/>
<polygon shape-type="trapezium" points="1044,446 1052,446 1048,453 1048,453 1044,446" fill="#FF0000" stroke="#FFFFFF" stroke-width="1.00"/>
<line shape-type="limitline" x1="1047" y1="453" x2="1058" y2="454" fill="#FFFFFF" stroke="#FFFFFF" stroke-width="1.00"/>
<path shape-type="chord" d="M 1055,466 A 12,12 0 1,0 1055,446 z" fill="#C0C0C0" stroke="#FFFFFF" stroke-width="1.00"/>
</g>
<g shape-type="group">
<polygon shape-type="trapezium" points="891,472 899,472 895,463 895,463 891,472" fill="#FF0000" stroke="#FFFFFF" stroke-width="1.00"/>
<polygon shape-type="trapezium" points="891,454 899,454 895,461 895,461 891,454" fill="#FF0000" stroke="#FFFFFF" stroke-width="1.00"/>
<line shape-type="limitline" x1="894" y1="461" x2="905" y2="462" fill="#FFFFFF" stroke="#FFFFFF" stroke-width="1.00"/>
<path shape-type="chord" d="M 902,474 A 12,12 0 1,0 902,454 z" fill="#C0C0C0" stroke="#FFFFFF" stroke-width="1.00"/>
</g>
<g shape-type="group">
<polygon shape-type="trapezium" points="435,389 435,397 426,393 426,393 435,389" fill="#FF0000" stroke="#FFFFFF" stroke-width="1.00"/>
<polygon shape-type="trapezium" points="418,389 418,397 425,393 425,393 418,389" fill="#FF0000" stroke="#FFFFFF" stroke-width="1.00"/>
<line shape-type="limitline" x1="425" y1="393" x2="424" y2="382" fill="#FFFFFF" stroke="#FFFFFF" stroke-width="1.00"/>
<path shape-type="chord" d="M 438,385 A 12,12 0 0,0 418,385 z" fill="#C0C0C0" stroke="#FFFFFF" stroke-width="1.00"/>
</g>
<g shape-type="group">
<polygon shape-type="trapezium" points="434,449 434,457 425,453 425,453 434,449" fill="#00FF00" stroke="#FFFFFF" stroke-width="1.00"/>
<polygon shape-type="trapezium" points="417,449 417,457 424,453 424,453 417,449" fill="#00FF00" stroke="#FFFFFF" stroke-width="1.00"/>
<line shape-type="limitline" x1="424" y1="453" x2="423" y2="443" fill="#FFFFFF" stroke="#FFFFFF" stroke-width="1.00"/>
<path shape-type="chord" d="M 437,446 A 12,12 0 0,0 417,446 z" fill="#C0C0C0" stroke="#FFFFFF" stroke-width="1.00"/>
</g>
<g shape-type="group">
<polygon shape-type="trapezium" points="263,442 254,442 259,451 259,451 263,442" fill="#00FF00" stroke="#FFFFFF" stroke-width="1.00"/>
<polygon shape-type="trapezium" points="263,459 254,459 259,452 259,452 263,459" fill="#00FF00" stroke="#FFFFFF" stroke-width="1.00"/>
<line shape-type="limitline" x1="258" y1="452" x2="248" y2="453" fill="#FFFFFF" stroke="#FFFFFF" stroke-width="1.00"/>
<path shape-type="chord" d="M 251,440 A 12,12 0 1,0 251,460 z" fill="#C0C0C0" stroke="#FFFFFF" stroke-width="1.00"/>
</g>
<g shape-type="group">
<polygon shape-type="trapezium" points="891,445 899,445 895,435 895,435 891,445" fill="#FF0000" stroke="#FFFFFF" stroke-width="1.00"/>
<polygon shape-type="trapezium" points="891,428 899,428 895,434 895,434 891,428" fill="#FF0000" stroke="#FFFFFF" stroke-width="1.00"/>
<line shape-type="limitline" x1="894" y1="434" x2="905" y2="435" fill="#FFFFFF" stroke="#FFFFFF" stroke-width="1.00"/>
<rect shape-type="rectangle" x="902" y="428" width="7" height="18" fill="#FF0000" stroke="#FFFFFF" stroke-width="2.00"/>
</g>
<rect shape-type="rectangle" x="213" y="525" width="9" height="31" fill="#FFFFFF" stroke="#000000" stroke-width="1.00"/>
<polygon shape-type="trapezium" points="1010,673 1010,681 1023,677 1023,677 1010,673" fill="#FFFFFF" stroke="#FFFFFF" stroke-width="2.00"/>
<polygon shape-type="trapezium" points="892,672 892,680 905,676 905,676 892,672" fill="#FFFFFF" stroke="#FFFFFF" stroke-width="2.00"/>
<polygon shape-type="trapezium" points="1212,270 1205,270 1209,257 1209,257 1212,270" fill="#FFFFFF" stroke="#FFFFFF" stroke-width="2.00"/>
<polygon shape-type="trapezium" points="304,670 304,678 317,674 317,674 304,670" fill="#FFFFFF" stroke="#FFFFFF" stroke-width="2.00"/>
<polygon shape-type="trapezium" points="421,666 421,674 434,670 434,670 421,666" fill="#FFFFFF" stroke="#FFFFFF" stroke-width="2.00"/>
<polygon shape-type="trapezium" points="1175,65 1168,65 1172,52 1172,52 1175,65" fill="#FFFFFF" stroke="#FFFFFF" stroke-width="2.00"/>
<g shape-type="group">
<polygon shape-type="trapezium" points="251,564 258,564 254,554 254,554 251,564" fill="#00FF00" stroke="#FFFFFF" stroke-width="1.00"/>
<polygon shape-type="trapezium" points="251,547 258,547 254,553 254,553 251,547" fill="#00FF00" stroke="#FFFFFF" stroke-width="1.00"/>
<line shape-type="limitline" x1="253" y1="553" x2="265" y2="554" fill="#00FF00" stroke="#FFFFFF" stroke-width="1.00"/>
<rect shape-type="rectangle" x="261" y="547" width="8" height="18" fill="#00FF00" stroke="#FFFFFF" stroke-width="2.00"/>
</g>
<text font-family="宋体" text-anchor="start" fill="#FFFFFF" shape-type="text" id="" font-size="12.500000" x="48" y="12">回收甲醇来自P_1312A/B</text>
<text font-family="宋体" text-anchor="start" fill="#FFFFFF" shape-type="text" id="" font-size="14.750000" x="27" y="110">原料甲醇来自灌区</text>
<text font-family="宋体" text-anchor="start" fill="#FFFFFF" shape-type="text" id="" font-size="12.500000" x="28" y="142">甲醇去R_1301A_C</text>
<text font-family="宋体" text-anchor="start" fill="#FFFFFF" shape-type="text" id="" font-size="14.750000" x="34" y="408">碳四来自丁烯异构装置</text>
<text font-family="宋体" text-anchor="start" fill="#FFFFFF" shape-type="text" id="" font-size="14.750000" x="35" y="444">醚后C4来自P_1306A/B</text>
<text font-family="宋体" text-anchor="start" fill="#FFFFFF" shape-type="text" id="" font-size="14.750000" x="527" y="379">火炬总管</text>
<text font-family="宋体" text-anchor="start" fill="#FFFFFF" shape-type="text" id="" font-size="14.750000" x="551" y="440">氮气</text>
<text font-family="宋体" text-anchor="start" fill="#FFFFFF" shape-type="text" id="" font-size="14.750000" x="1477" y="43">去反应器</text>
<text font-family="宋体" text-anchor="start" fill="#FFFFFF" shape-type="text" id="" font-size="12.500000" x="1407" y="158">0.45MPa蒸汽来自总管</text>
<text font-family="宋体" text-anchor="start" fill="#FFFFFF" shape-type="text" id="" font-size="12.500000" x="1347" y="205">0.45MPa蒸汽凝液来自P_1308A/B</text>
<text font-family="宋体" text-anchor="start" fill="#FFFFFF" shape-type="text" id="" font-size="14.750000" x="1433" y="355">蒸气凝液总管</text>
<text font-family="宋体" text-anchor="start" fill="#FFFFFF" shape-type="text" id="" font-size="14.750000" x="1420" y="563">甲醇去T_1311A/B</text>
<rect shape-type="rectangle" x="87" y="158" width="75" height="18" fill="#FFFFFF" stroke="#000000" stroke-width="2.00"/>
<rect shape-type="rectangle" x="87" y="175" width="75" height="18" fill="#FFFFFF" stroke="#000000" stroke-width="2.00"/>
<rect shape-type="rectangle" x="36" y="30" width="75" height="18" fill="#FFFFFF" stroke="#000000" stroke-width="2.00"/>
<rect shape-type="rectangle" x="36" y="47" width="75" height="18" fill="#FFFFFF" stroke="#000000" stroke-width="2.00"/>
<rect shape-type="rectangle" x="133" y="31" width="75" height="18" fill="#FFFFFF" stroke="#000000" stroke-width="2.00"/>
<rect shape-type="rectangle" x="133" y="48" width="75" height="18" fill="#FFFFFF" stroke="#000000" stroke-width="2.00"/>
<rect shape-type="rectangle" x="87" y="192" width="75" height="18" fill="#FFFFFF" stroke="#000000" stroke-width="2.00"/>
<rect shape-type="rectangle" x="87" y="209" width="75" height="18" fill="#FFFFFF" stroke="#000000" stroke-width="2.00"/>
<rect shape-type="rectangle" x="274" y="30" width="75" height="18" fill="#FFFFFF" stroke="#000000" stroke-width="2.00"/>
<rect shape-type="rectangle" x="274" y="47" width="75" height="18" fill="#FFFFFF" stroke="#000000" stroke-width="2.00"/>
<rect shape-type="rectangle" x="274" y="64" width="75" height="18" fill="#FFFFFF" stroke="#000000" stroke-width="2.00"/>
<rect shape-type="rectangle" x="274" y="81" width="75" height="18" fill="#FFFFFF" stroke="#000000" stroke-width="2.00"/>
<rect shape-type="rectangle" x="283" y="367" width="75" height="18" fill="#FFFFFF" stroke="#000000" stroke-width="2.00"/>
<rect shape-type="rectangle" x="283" y="384" width="75" height="18" fill="#FFFFFF" stroke="#000000" stroke-width="2.00"/>
<rect shape-type="rectangle" x="283" y="401" width="75" height="18" fill="#FFFFFF" stroke="#000000" stroke-width="2.00"/>
<rect shape-type="rectangle" x="283" y="418" width="75" height="18" fill="#FFFFFF" stroke="#000000" stroke-width="2.00"/>
<rect shape-type="rectangle" x="8" y="336" width="75" height="18" fill="#FFFFFF" stroke="#000000" stroke-width="2.00"/>
<rect shape-type="rectangle" x="8" y="353" width="75" height="18" fill="#FFFFFF" stroke="#000000" stroke-width="2.00"/>
<rect shape-type="rectangle" x="107" y="337" width="75" height="18" fill="#FFFFFF" stroke="#000000" stroke-width="2.00"/>
<rect shape-type="rectangle" x="107" y="354" width="75" height="18" fill="#FFFFFF" stroke="#000000" stroke-width="2.00"/>
<rect shape-type="rectangle" x="198" y="337" width="75" height="18" fill="#FFFFFF" stroke="#000000" stroke-width="2.00"/>
<rect shape-type="rectangle" x="198" y="354" width="75" height="18" fill="#FFFFFF" stroke="#000000" stroke-width="2.00"/>
<rect shape-type="rectangle" x="377" y="147" width="75" height="18" fill="#FFFFFF" stroke="#000000" stroke-width="2.00"/>
<rect shape-type="rectangle" x="377" y="164" width="75" height="18" fill="#FFFFFF" stroke="#000000" stroke-width="2.00"/>
<rect shape-type="rectangle" x="86" y="467" width="75" height="18" fill="#FFFFFF" stroke="#000000" stroke-width="2.00"/>
<rect shape-type="rectangle" x="86" y="484" width="75" height="18" fill="#FFFFFF" stroke="#000000" stroke-width="2.00"/>
<rect shape-type="rectangle" x="86" y="501" width="75" height="18" fill="#FFFFFF" stroke="#000000" stroke-width="2.00"/>
<rect shape-type="rectangle" x="86" y="518" width="75" height="18" fill="#FFFFFF" stroke="#000000" stroke-width="2.00"/>
<rect shape-type="rectangle" x="116" y="546" width="75" height="18" fill="#FFFFFF" stroke="#000000" stroke-width="2.00"/>
<rect shape-type="rectangle" x="116" y="563" width="75" height="18" fill="#FFFFFF" stroke="#000000" stroke-width="2.00"/>
<rect shape-type="rectangle" x="159" y="600" width="75" height="18" fill="#FFFFFF" stroke="#000000" stroke-width="2.00"/>
<rect shape-type="rectangle" x="159" y="617" width="75" height="18" fill="#FFFFFF" stroke="#000000" stroke-width="2.00"/>
<rect shape-type="rectangle" x="159" y="638" width="75" height="18" fill="#FFFFFF" stroke="#000000" stroke-width="2.00"/>
<rect shape-type="rectangle" x="159" y="655" width="75" height="18" fill="#FFFFFF" stroke="#000000" stroke-width="2.00"/>
<rect shape-type="rectangle" x="479" y="605" width="75" height="18" fill="#FFFFFF" stroke="#000000" stroke-width="2.00"/>
<rect shape-type="rectangle" x="479" y="622" width="75" height="18" fill="#FFFFFF" stroke="#000000" stroke-width="2.00"/>
<rect shape-type="rectangle" x="479" y="640" width="75" height="18" fill="#FFFFFF" stroke="#000000" stroke-width="2.00"/>
<rect shape-type="rectangle" x="479" y="657" width="75" height="18" fill="#FFFFFF" stroke="#000000" stroke-width="2.00"/>
<rect shape-type="rectangle" x="766" y="656" width="75" height="18" fill="#FFFFFF" stroke="#000000" stroke-width="2.00"/>
<rect shape-type="rectangle" x="766" y="673" width="75" height="18" fill="#FFFFFF" stroke="#000000" stroke-width="2.00"/>
<rect shape-type="rectangle" x="766" y="690" width="75" height="18" fill="#FFFFFF" stroke="#000000" stroke-width="2.00"/>
<rect shape-type="rectangle" x="766" y="707" width="75" height="18" fill="#FFFFFF" stroke="#000000" stroke-width="2.00"/>
<rect shape-type="rectangle" x="1074" y="655" width="75" height="18" fill="#FFFFFF" stroke="#000000" stroke-width="2.00"/>
<rect shape-type="rectangle" x="1074" y="672" width="75" height="18" fill="#FFFFFF" stroke="#000000" stroke-width="2.00"/>
<rect shape-type="rectangle" x="1074" y="692" width="75" height="18" fill="#FFFFFF" stroke="#000000" stroke-width="2.00"/>
<rect shape-type="rectangle" x="1074" y="709" width="75" height="18" fill="#FFFFFF" stroke="#000000" stroke-width="2.00"/>
<rect shape-type="rectangle" x="1266" y="70" width="75" height="18" fill="#FFFFFF" stroke="#000000" stroke-width="2.00"/>
<rect shape-type="rectangle" x="1266" y="87" width="75" height="18" fill="#FFFFFF" stroke="#000000" stroke-width="2.00"/>
<rect shape-type="rectangle" x="1266" y="104" width="75" height="18" fill="#FFFFFF" stroke="#000000" stroke-width="2.00"/>
<rect shape-type="rectangle" x="1266" y="121" width="75" height="18" fill="#FFFFFF" stroke="#000000" stroke-width="2.00"/>
<rect shape-type="rectangle" x="941" y="499" width="75" height="18" fill="#FFFFFF" stroke="#000000" stroke-width="2.00"/>
<rect shape-type="rectangle" x="941" y="516" width="75" height="18" fill="#FFFFFF" stroke="#000000" stroke-width="2.00"/>
<rect shape-type="rectangle" x="941" y="533" width="75" height="18" fill="#FFFFFF" stroke="#000000" stroke-width="2.00"/>
<rect shape-type="rectangle" x="941" y="550" width="75" height="18" fill="#FFFFFF" stroke="#000000" stroke-width="2.00"/>
<rect shape-type="rectangle" x="1065" y="491" width="75" height="18" fill="#FFFFFF" stroke="#000000" stroke-width="2.00"/>
<rect shape-type="rectangle" x="1065" y="508" width="75" height="18" fill="#FFFFFF" stroke="#000000" stroke-width="2.00"/>
<rect shape-type="rectangle" x="1065" y="525" width="75" height="18" fill="#FFFFFF" stroke="#000000" stroke-width="2.00"/>
<rect shape-type="rectangle" x="1065" y="542" width="75" height="18" fill="#FFFFFF" stroke="#000000" stroke-width="2.00"/>
<rect shape-type="rectangle" x="323" y="533" width="75" height="18" fill="#FFFFFF" stroke="#000000" stroke-width="2.00"/>
<rect shape-type="rectangle" x="323" y="550" width="75" height="18" fill="#FFFFFF" stroke="#000000" stroke-width="2.00"/>
<rect shape-type="rectangle" x="374" y="490" width="75" height="18" fill="#FFFFFF" stroke="#000000" stroke-width="2.00"/>
<rect shape-type="rectangle" x="374" y="507" width="75" height="18" fill="#FFFFFF" stroke="#000000" stroke-width="2.00"/>
<text font-family="宋体" text-anchor="start" fill="#000000" shape-type="text" id="" font-size="12.500000" x="45" y="43">FI_13019</text>
<text font-family="宋体" text-anchor="start" fill="#000000" shape-type="text" id="" font-size="12.500000" x="137" y="44">PI_13018</text>
<text font-family="宋体" text-anchor="start" fill="#000000" shape-type="text" id="" font-size="12.500000" x="91" y="170">LIC13005</text>
<text font-family="宋体" text-anchor="start" fill="#000000" shape-type="text" id="" font-size="12.500000" x="10" y="349">PI_13001</text>
<text font-family="宋体" text-anchor="start" fill="#000000" shape-type="text" id="" font-size="12.500000" x="113" y="349">PI_13012</text>
<text font-family="宋体" text-anchor="start" fill="#000000" shape-type="text" id="" font-size="12.500000" x="202" y="350">TI_13001</text>
<text font-family="宋体" text-anchor="start" fill="#000000" shape-type="text" id="" font-size="12.500000" x="287" y="381">PIC13001</text>
<text font-family="宋体" text-anchor="start" fill="#000000" shape-type="text" id="" font-size="12.500000" x="90" y="482">LIC13001</text>
<text font-family="宋体" text-anchor="start" fill="#000000" shape-type="text" id="" font-size="12.500000" x="114" y="559">LDIA_13002</text>
<text font-family="宋体" text-anchor="start" fill="#000000" shape-type="text" id="" font-size="12.500000" x="161" y="613">PI_1302A1</text>
<text font-family="宋体" text-anchor="start" fill="#000000" shape-type="text" id="" font-size="12.500000" x="160" y="651">PI_1302A2</text>
<text font-family="宋体" text-anchor="start" fill="#000000" shape-type="text" id="" font-size="12.500000" x="320" y="546">AI_13001_3</text>
<text font-family="宋体" text-anchor="start" fill="#000000" shape-type="text" id="" font-size="12.500000" x="376" y="503">TI_13033</text>
<text font-family="宋体" text-anchor="start" fill="#000000" shape-type="text" id="" font-size="12.500000" x="480" y="618">PI_1302B1</text>
<text font-family="宋体" text-anchor="start" fill="#000000" shape-type="text" id="" font-size="12.500000" x="479" y="653">PI_1302B2</text>
<text font-family="宋体" text-anchor="start" fill="#000000" shape-type="text" id="" font-size="12.500000" x="766" y="669">PI_1301A1</text>
<text font-family="宋体" text-anchor="start" fill="#000000" shape-type="text" id="" font-size="12.500000" x="766" y="704">PI_1301A2</text>
<text font-family="宋体" text-anchor="start" fill="#000000" shape-type="text" id="" font-size="12.500000" x="945" y="513">FIC13002</text>
<text font-family="宋体" text-anchor="start" fill="#000000" shape-type="text" id="" font-size="12.500000" x="1074" y="667">PI_1301B1</text>
<text font-family="宋体" text-anchor="start" fill="#000000" shape-type="text" id="" font-size="12.500000" x="1074" y="704">PI_1301B2</text>
<text font-family="宋体" text-anchor="start" fill="#000000" shape-type="text" id="" font-size="12.500000" x="1067" y="504">FIC13003</text>
<text font-family="宋体" text-anchor="start" fill="#000000" shape-type="text" id="" font-size="12.500000" x="1268" y="83">TIC13002</text>
<text font-family="宋体" text-anchor="start" fill="#000000" shape-type="text" id="" font-size="12.500000" x="1316" y="100">℃ </text>
<text font-family="宋体" text-anchor="start" fill="#000000" shape-type="text" id="" font-size="12.500000" x="1316" y="119">℃ </text>
<text font-family="宋体" text-anchor="start" fill="#000000" shape-type="text" id="" font-size="12.500000" x="1324" y="134">%</text>
<text font-family="宋体" text-anchor="start" fill="#000000" shape-type="text" id="" font-size="12.500000" x="73" y="60">m3/h</text>
<text font-family="宋体" text-anchor="start" fill="#000000" shape-type="text" id="" font-size="12.500000" x="181" y="61">Mpa</text>
<text font-family="宋体" text-anchor="start" fill="#000000" shape-type="text" id="" font-size="12.500000" x="323" y="60">Mpa</text>
<text font-family="宋体" text-anchor="start" fill="#000000" shape-type="text" id="" font-size="12.500000" x="278" y="43">PIC13011</text>
<text font-family="宋体" text-anchor="start" fill="#000000" shape-type="text" id="" font-size="12.500000" x="379" y="160">TI_13029</text>
<text font-family="宋体" text-anchor="start" fill="#000000" shape-type="text" id="" font-size="12.500000" x="323" y="76">Mpa</text>
<text font-family="宋体" text-anchor="start" fill="#000000" shape-type="text" id="" font-size="12.500000" x="330" y="93">%</text>
<text font-family="宋体" text-anchor="start" fill="#000000" shape-type="text" id="" font-size="12.500000" x="429" y="180">℃ </text>
<text font-family="宋体" text-anchor="start" fill="#000000" shape-type="text" id="" font-size="12.500000" x="145" y="189">%</text>
<text font-family="宋体" text-anchor="start" fill="#000000" shape-type="text" id="" font-size="12.500000" x="143" y="205">%</text>
<text font-family="宋体" text-anchor="start" fill="#000000" shape-type="text" id="" font-size="12.500000" x="141" y="222">%</text>
<text font-family="宋体" text-anchor="start" fill="#000000" shape-type="text" id="" font-size="12.500000" x="154" y="367">Mpa</text>
<text font-family="宋体" text-anchor="start" fill="#000000" shape-type="text" id="" font-size="12.500000" x="50" y="367">m3/h</text>
<text font-family="宋体" text-anchor="start" fill="#000000" shape-type="text" id="" font-size="12.500000" x="248" y="368">℃ </text>
<text font-family="宋体" text-anchor="start" fill="#000000" shape-type="text" id="" font-size="12.500000" x="333" y="398">Mpa</text>
<text font-family="宋体" text-anchor="start" fill="#000000" shape-type="text" id="" font-size="12.500000" x="333" y="414">Mpa</text>
<text font-family="宋体" text-anchor="start" fill="#000000" shape-type="text" id="" font-size="12.500000" x="340" y="431">%</text>
<text font-family="宋体" text-anchor="start" fill="#000000" shape-type="text" id="" font-size="12.500000" x="148" y="498">%</text>
<text font-family="宋体" text-anchor="start" fill="#000000" shape-type="text" id="" font-size="12.500000" x="147" y="514">%</text>
<text font-family="宋体" text-anchor="start" fill="#000000" shape-type="text" id="" font-size="12.500000" x="146" y="531">%</text>
<text font-family="宋体" text-anchor="start" fill="#000000" shape-type="text" id="" font-size="12.500000" x="174" y="577">%</text>
<text font-family="宋体" text-anchor="start" fill="#000000" shape-type="text" id="" font-size="12.500000" x="426" y="522">℃ </text>
<text font-family="宋体" text-anchor="start" fill="#000000" shape-type="text" id="" font-size="12.500000" x="372" y="563">wt%</text>
<text font-family="宋体" text-anchor="start" fill="#000000" shape-type="text" id="" font-size="12.500000" x="526" y="633">Mpa</text>
<text font-family="宋体" text-anchor="start" fill="#000000" shape-type="text" id="" font-size="12.500000" x="525" y="670">Mpa</text>
<text font-family="宋体" text-anchor="start" fill="#000000" shape-type="text" id="" font-size="12.500000" x="812" y="687">Mpa</text>
<text font-family="宋体" text-anchor="start" fill="#000000" shape-type="text" id="" font-size="12.500000" x="814" y="718">Mpa</text>
<text font-family="宋体" text-anchor="start" fill="#000000" shape-type="text" id="" font-size="12.500000" x="983" y="528">kg/h</text>
<text font-family="宋体" text-anchor="start" fill="#000000" shape-type="text" id="" font-size="12.500000" x="985" y="546">kg/h</text>
<text font-family="宋体" text-anchor="start" fill="#000000" shape-type="text" id="" font-size="12.500000" x="996" y="564">%</text>
<text font-family="宋体" text-anchor="start" fill="#000000" shape-type="text" id="" font-size="12.500000" x="1105" y="519">kg/h</text>
<text font-family="宋体" text-anchor="start" fill="#000000" shape-type="text" id="" font-size="12.500000" x="1107" y="537">kg/h</text>
<text font-family="宋体" text-anchor="start" fill="#000000" shape-type="text" id="" font-size="12.500000" x="1118" y="555">%</text>
<text font-family="宋体" text-anchor="start" fill="#000000" shape-type="text" id="" font-size="12.500000" x="1123" y="684">Mpa</text>
<text font-family="宋体" text-anchor="start" fill="#000000" shape-type="text" id="" font-size="12.500000" x="1123" y="721">Mpa</text>
<text font-family="宋体" text-anchor="start" fill="#FFFFFF" shape-type="text" id="" font-size="12.500000" x="381" y="78">PV13011B</text>
<text font-family="宋体" text-anchor="start" fill="#FFFFFF" shape-type="text" id="" font-size="12.500000" x="381" y="135">PV13011A</text>
<text font-family="宋体" text-anchor="start" fill="#FFFFFF" shape-type="text" id="" font-size="12.500000" x="404" y="416">PV13001B</text>
<text font-family="宋体" text-anchor="start" fill="#FFFFFF" shape-type="text" id="" font-size="12.500000" x="405" y="475">PV13001A</text>
<text font-family="宋体" text-anchor="start" fill="#FFFFFF" shape-type="text" id="" font-size="14.750000" x="527" y="40">火炬总管</text>
<text font-family="宋体" text-anchor="start" fill="#FFFFFF" shape-type="text" id="" font-size="14.750000" x="555" y="107">氮气</text>
<text font-family="宋体" text-anchor="start" fill="#FFFFFF" shape-type="text" id="" font-size="12.500000" x="194" y="446">LV13001</text>
<text font-family="宋体" text-anchor="start" fill="#FFFFFF" shape-type="text" id="" font-size="12.500000" x="256" y="582">MV13001</text>
<text font-family="宋体" text-anchor="start" fill="#FFFFFF" shape-type="text" id="" font-size="12.500000" x="284" y="539">异丁烯</text>
<text font-family="宋体" text-anchor="start" fill="#FFFFFF" shape-type="text" id="" font-size="12.500000" x="907" y="453">FV13002</text>
<text font-family="宋体" text-anchor="start" fill="#FFFFFF" shape-type="text" id="" font-size="12.500000" x="1049" y="437">FV13003</text>
<text font-family="宋体" text-anchor="start" fill="#FFFFFF" shape-type="text" id="" font-size="12.500000" x="1199" y="188">TV13002</text>
<rect shape-type="rectangle" x="958" y="263" width="56" height="18" fill="#FFFFFF" stroke="#000000" stroke-width="2.00"/>
<text font-family="宋体" text-anchor="start" fill="#FFFFFF" shape-type="text" id="" font-size="12.500000" x="963" y="240">醇烯比</text>
<text font-family="宋体" text-anchor="start" fill="#FFFFFF" shape-type="text" id="" font-size="12.500000" x="955" y="257">FF_13003</text>
<text font-family="宋体" text-anchor="start" fill="#FFFFFF" shape-type="text" id="" font-size="12.500000" x="301" y="708">P_1302A</text>
<text font-family="宋体" text-anchor="start" fill="#FFFFFF" shape-type="text" id="" font-size="12.500000" x="419" y="708">P_1302B</text>
<text font-family="宋体" text-anchor="start" fill="#FFFFFF" shape-type="text" id="" font-size="12.500000" x="888" y="711">P_1301A</text>
<text font-family="宋体" text-anchor="start" fill="#FFFFFF" shape-type="text" id="" font-size="12.500000" x="1006" y="708">P_1301R</text>
<text font-family="宋体" text-anchor="start" fill="#000000" shape-type="text" id="" font-size="12.500000" x="232" y="170">V_1302</text>
<text font-family="宋体" text-anchor="start" fill="#000000" shape-type="text" id="" font-size="12.500000" x="238" y="510">V_1301</text>
<text font-family="宋体" text-anchor="start" fill="#000000" shape-type="text" id="" font-size="12.500000" x="1144" y="252">E_1301</text>
<ellipse shape-type="ellipse" cx="1042" cy="47" rx="8" ry="8" fill="#C0C0C0" stroke="#000000" stroke-width="2.00"/>
<text font-family="宋体" text-anchor="start" fill="#FFFFFF" shape-type="text" id="" font-size="12.500000" x="977" y="50">AT_ALL</text>
<text font-family="宋体" text-anchor="start" fill="#FFFFFF" shape-type="text" id="" font-size="12.500000" x="942" y="71">分析小屋公共报警</text>
<line shape-type="limitline" x1="169" y1="86" x2="169" y2="63" fill="#FFFFFF" stroke="#FFFFFF" stroke-width="2.00" stroke-dasharray="5 10"/>
<line shape-type="limitline" x1="306" y1="20" x2="306" y2="150" fill="#FFFFFF" stroke="#FFFFFF" stroke-width="2.00" stroke-dasharray="5 10"/>
<line shape-type="limitline" x1="407" y1="20" x2="306" y2="20" fill="#FFFFFF" stroke="#FFFFFF" stroke-width="2.00" stroke-dasharray="5 10"/>
<line shape-type="limitline" x1="407" y1="45" x2="407" y2="20" fill="#FFFFFF" stroke="#FFFFFF" stroke-width="2.00" stroke-dasharray="5 10"/>
<line shape-type="limitline" x1="380" y1="170" x2="359" y2="170" fill="#FFFFFF" stroke="#FFFFFF" stroke-width="2.00" stroke-dasharray="5 10"/>
<line shape-type="limitline" x1="46" y1="382" x2="46" y2="370" fill="#FFFFFF" stroke="#FFFFFF" stroke-width="2.00" stroke-dasharray="5 10"/>
<line shape-type="limitline" x1="136" y1="388" x2="136" y2="371" fill="#FFFFFF" stroke="#FFFFFF" stroke-width="2.00" stroke-dasharray="5 10"/>
<line shape-type="limitline" x1="234" y1="388" x2="234" y2="370" fill="#FFFFFF" stroke="#FFFFFF" stroke-width="2.00" stroke-dasharray="5 10"/>
<line shape-type="limitline" x1="173" y1="164" x2="159" y2="164" fill="#FFFFFF" stroke="#FFFFFF" stroke-width="2.00" stroke-dasharray="5 10"/>
<line shape-type="limitline" x1="151" y1="131" x2="151" y2="158" fill="#FFFFFF" stroke="#FFFFFF" stroke-width="2.00" stroke-dasharray="5 10"/>
<line shape-type="limitline" x1="203" y1="131" x2="151" y2="131" fill="#FFFFFF" stroke="#FFFFFF" stroke-width="2.00" stroke-dasharray="5 10"/>
<line shape-type="limitline" x1="154" y1="466" x2="154" y2="448" fill="#FFFFFF" stroke="#FFFFFF" stroke-width="2.00" stroke-dasharray="5 10"/>
<line shape-type="limitline" x1="244" y1="449" x2="154" y2="449" fill="#FFFFFF" stroke="#FFFFFF" stroke-width="2.00" stroke-dasharray="5 10"/>
<line shape-type="limitline" x1="210" y1="552" x2="191" y2="552" fill="#FFFFFF" stroke="#FFFFFF" stroke-width="2.00" stroke-dasharray="5 10"/>
<line shape-type="limitline" x1="873" y1="549" x2="400" y2="549" fill="#FFFFFF" stroke="#FFFFFF" stroke-width="2.00" stroke-dasharray="5 10"/>
<line shape-type="limitline" x1="874" y1="274" x2="874" y2="549" fill="#FFFFFF" stroke="#FFFFFF" stroke-width="2.00" stroke-dasharray="5 10"/>
<line shape-type="limitline" x1="958" y1="274" x2="874" y2="274" fill="#FFFFFF" stroke="#FFFFFF" stroke-width="2.00" stroke-dasharray="5 10"/>
<line shape-type="limitline" x1="443" y1="579" x2="443" y2="548" fill="#FFFFFF" stroke="#FFFFFF" stroke-width="2.00" stroke-dasharray="5 10"/>
<line shape-type="limitline" x1="429" y1="426" x2="355" y2="426" fill="#FFFFFF" stroke="#FFFFFF" stroke-width="2.00" stroke-dasharray="5 10"/>
<line shape-type="limitline" x1="426" y1="441" x2="426" y2="426" fill="#FFFFFF" stroke="#FFFFFF" stroke-width="2.00" stroke-dasharray="5 10"/>
<line shape-type="limitline" x1="310" y1="484" x2="310" y2="435" fill="#FFFFFF" stroke="#FFFFFF" stroke-width="2.00" stroke-dasharray="5 10"/>
<line shape-type="limitline" x1="309" y1="366" x2="309" y2="324" fill="#FFFFFF" stroke="#FFFFFF" stroke-width="2.00" stroke-dasharray="5 10"/>
<line shape-type="limitline" x1="958" y1="464" x2="910" y2="464" fill="#FFFFFF" stroke="#FFFFFF" stroke-width="2.00" stroke-dasharray="5 10"/>
<line shape-type="limitline" x1="959" y1="500" x2="959" y2="464" fill="#FFFFFF" stroke="#FFFFFF" stroke-width="2.00" stroke-dasharray="5 10"/>
<line shape-type="limitline" x1="989" y1="498" x2="989" y2="279" fill="#FFFFFF" stroke="#FFFFFF" stroke-width="2.00" stroke-dasharray="5 10"/>
<line shape-type="limitline" x1="1102" y1="455" x2="1061" y2="455" fill="#FFFFFF" stroke="#FFFFFF" stroke-width="2.00" stroke-dasharray="5 10"/>
<line shape-type="limitline" x1="1102" y1="490" x2="1102" y2="455" fill="#FFFFFF" stroke="#FFFFFF" stroke-width="2.00" stroke-dasharray="5 10"/>
<line shape-type="limitline" x1="947" y1="542" x2="897" y2="542" fill="#FFFFFF" stroke="#FFFFFF" stroke-width="2.00" stroke-dasharray="5 10"/>
<a xlink:href="..\M1总图.svg">
<g shape-type="button">
<rect fill="#C0C0C0" stroke-width="0.3" stroke="#FFFFFF" x="1514" y="724" width="58" height="29" shape-type="buttonrect"/>
<text font-family="宋体" text-anchor="middle" dominant-baseline="middle" fill="#800000" font-size="13.500000" x="1543" y="744" shape-type="buttontext">返回</text>
</g>
</a>
<ellipse shape-type="ellipse" cx="437" cy="601" rx="8" ry="8" fill="#FF0000" stroke="#000000" stroke-width="2.00"/>
<text font-family="宋体" text-anchor="start" fill="#FFFFFF" shape-type="text" id="" font-size="12.500000" x="359" y="603">AT_13001</text>
<text font-family="宋体" text-anchor="start" fill="#00FF00" shape-type="text" id="" font-size="12.500000" x="270" y="559">远程</text>
<text font-family="宋体" text-anchor="start" fill="#FF8040" shape-type="text" id="" font-size="20.000000" x="759" y="41">醚化一原料罐</text>
<text font-family="Arial" text-anchor="start" fill="#000000" shape-type="realdata" id="QH_MH_40FI_13019" font-size="12.500000" x="-4" y="60">XXXXXXXXXX</text>
<text font-family="Arial" text-anchor="start" fill="#000000" shape-type="realdata" id="QH_MH_40PI_13018" font-size="12.500000" x="93" y="61">XXXXXXXXXX</text>
<text font-family="Arial" text-anchor="start" fill="#000000" shape-type="realdata" id="QH_MH_40TI_13029" font-size="12.500000" x="348" y="179">XXXXXXXXXX</text>
<text font-family="Arial" text-anchor="start" fill="#000000" shape-type="realdata" id="QH_MH_40PI_13012" font-size="12.500000" x="68" y="368">XXXXXXXXXX</text>
<text font-family="Arial" text-anchor="start" fill="#000000" shape-type="realdata" id="QH_MH_40TI_13001" font-size="12.500000" x="168" y="368">XXXXXXXXXX</text>
<text font-family="Arial" text-anchor="start" fill="#000000" shape-type="realdata" id="QH_MH_40LDIA_13002" font-size="12.500000" x="87" y="578">XXXXXXXXXX</text>
<text font-family="Arial" text-anchor="start" fill="#000000" shape-type="realdata" id="QH_MH_40TI_13033" font-size="12.500000" x="344" y="521">XXXXXXXXXX</text>
<text font-family="Arial" text-anchor="start" fill="#000000" shape-type="realdata" id="QH_MH_40FF_13003" font-size="12.500000" x="925" y="279">XXXXXXXXXX</text>
<text font-family="Arial" text-anchor="start" fill="#000000" shape-type="realdata" id="QH_MH_40AI_13001_3" font-size="12.500000" x="291" y="563">XXXXXXXXXX</text>
</svg>