<?xml version="1.0"?>
<?xml-stylesheet type='text/javascript'?>
<!--Draw SVG: 2019-11-25 09:41:31 47-Monday-->
<svg xmlns="http://www.w3.org/2000/svg" xmlns:xlink="http://www.w3.org/1999/xlink" version="1.1" style="background-color:#000000" width="1066" height="800" viewbox="0 0 1066 800">
<defs>
<marker id="Arrow2" markerUnits="strokeWidth" markerWidth="6" markerHeight="6" viewBox="0 0 6 6" refX="3" refY="3" orient="auto"><path d="M5,1 L1,3 L5,5 L3,3 L5,1" style="fill: #000000;"/></marker>
<marker id="Arrow1" markerUnits="strokeWidth" markerWidth="6" markerHeight="6" viewBox="0 0 6 6" refX="3" refY="3" orient="auto"><path d="M1,1 L5,3 L1,5 L3,3 L1,1" style="fill: #000000;"/></marker>
<linearGradient x1="50.000000%" y1="0.000000%" x2="50.000000%" y2="100.000000%" id="lgradient16">
<stop offset="0" stop-color="#212121" stop-opacity="1"/>
<stop offset="0.5" stop-color="#C0C0C0" stop-opacity="1"/>
<stop offset="1" stop-color="#212121" stop-opacity="1"/>
</linearGradient>
<linearGradient x1="0.000000%" y1="50.000000%" x2="100.000000%" y2="50.000000%" id="lgradient17">
<stop offset="0" stop-color="#212121" stop-opacity="1"/>
<stop offset="0.5" stop-color="#C0C0C0" stop-opacity="1"/>
<stop offset="1" stop-color="#212121" stop-opacity="1"/>
</linearGradient>
<linearGradient x1="0.000000%" y1="50.000000%" x2="100.000000%" y2="50.000000%" id="lgradient18">
<stop offset="0" stop-color="#212121" stop-opacity="1"/>
<stop offset="0.5" stop-color="#C0C0C0" stop-opacity="1"/>
<stop offset="1" stop-color="#212121" stop-opacity="1"/>
</linearGradient>
<linearGradient x1="50.000000%" y1="0.000000%" x2="50.000000%" y2="100.000000%" id="lgradient19">
<stop offset="0" stop-color="#2C2C2C" stop-opacity="1"/>
<stop offset="0.5" stop-color="#FFFFFF" stop-opacity="1"/>
<stop offset="1" stop-color="#2C2C2C" stop-opacity="1"/>
</linearGradient>
<linearGradient x1="50.000000%" y1="0.000000%" x2="50.000000%" y2="100.000000%" id="lgradient20">
<stop offset="0" stop-color="#2C2C2C" stop-opacity="1"/>
<stop offset="0.5" stop-color="#FFFFFF" stop-opacity="1"/>
<stop offset="1" stop-color="#2C2C2C" stop-opacity="1"/>
</linearGradient>
<radialGradient cx="50.000000%" cy="50.000000%" r="50.000000%" fx="50.000000%" fy="50.000000%" id="rgradient34">
<stop offset="0%" stop-color="#FFFFFF" stop-opacity="1"/>
<stop offset="100%" stop-color="#575757" stop-opacity="1"/>
</radialGradient>
<radialGradient cx="100%" cy="100%" fx="100%" fy="100%" r="100.000000%" id="rpgradient70">
<stop offset="0.6" stop-color="#2C2C2C" stop-opacity="1"/>
<stop offset="0.8" stop-color="#FFFFFF" stop-opacity="1"/><stop offset="1" stop-color="#2C2C2C" stop-opacity="1"/>
</radialGradient>
<radialGradient cx="0%" cy="0%" fx="0%" fy="0%" r="100.000000%" id="rpgradient71">
<stop offset="0.6" stop-color="#2C2C2C" stop-opacity="1"/>
<stop offset="0.8" stop-color="#FFFFFF" stop-opacity="1"/><stop offset="1" stop-color="#2C2C2C" stop-opacity="1"/>
</radialGradient>
</defs>
<rect shape-type="rectangle" x="142" y="394" width="107" height="43" stroke="#FFFFFF" stroke-width="2.00"/>
<rect shape-type="rectangle" x="210" y="415" width="36" height="20" fill="#4A494A" stroke="#C0C0C0" stroke-width="3.00"/>
<text font-family="宋体" text-anchor="start" fill="#FFFFFF" shape-type="text" id="" font-size="12.500000" x="221" y="429">℃</text>
<line shape-type="limitline" x1="131" y1="205" x2="131" y2="683" marker-start="url(#Arrow2)" fill="#FFFFFF" stroke="#00FF00" stroke-width="3.00"/>
<line shape-type="limitline" x1="855" y1="635" x2="855" y2="545" marker-end="url(#Arrow1)" fill="#FFFFFF" stroke="#00FFFF" stroke-width="3.00"/>
<line shape-type="limitline" x1="122" y1="141" x2="259" y2="141" fill="#FFFFFF" stroke="#00FFFF" stroke-width="3.00"/>
<line shape-type="limitline" x1="258" y1="140" x2="258" y2="672" marker-start="url(#Arrow2)" fill="#FFFFFF" stroke="#00FFFF" stroke-width="3.00"/>
<line shape-type="limitline" x1="323" y1="281" x2="259" y2="281" fill="#FFFFFF" stroke="#00FFFF" stroke-width="3.00"/>
<line shape-type="limitline" x1="323" y1="281" x2="323" y2="199" marker-end="url(#Arrow1)" fill="#FFFFFF" stroke="#00FFFF" stroke-width="2.00"/>
<line shape-type="limitline" x1="377" y1="394" x2="377" y2="531" fill="#FFFFFF" stroke="#00FFFF" stroke-width="3.00"/>
<line shape-type="limitline" x1="257" y1="532" x2="378" y2="532" fill="#FFFFFF" stroke="#00FFFF" stroke-width="3.00"/>
<line shape-type="limitline" x1="630" y1="177" x2="708" y2="177" fill="#FFFFFF" stroke="#000000" stroke-width="3.00"/>
<line shape-type="limitline" x1="630" y1="187" x2="716" y2="187" fill="#FFFFFF" stroke="#000000" stroke-width="3.00"/>
<line shape-type="limitline" x1="626" y1="530" x2="848" y2="530" fill="#FFFFFF" stroke="#FFFFFF" stroke-width="3.00"/>
<line shape-type="limitline" x1="625" y1="533" x2="625" y2="666" marker-end="url(#Arrow1)" fill="#FFFFFF" stroke="#FFFFFF" stroke-width="3.00"/>
<rect shape-type="rectangle" x="516" y="229" width="297" height="149" fill="url(#lgradient16)" stroke="#000000" stroke-width="2.00"/>
<rect shape-type="rectangle" x="704" y="117" width="58" height="116" fill="url(#lgradient17)" stroke="#000000" stroke-width="2.00"/>
<rect shape-type="rectangle" x="580" y="162" width="54" height="70" fill="url(#lgradient18)" stroke="#000000" stroke-width="2.00"/>
<rect shape-type="rectangle" x="770" y="285" width="62" height="32" fill="url(#lgradient19)" stroke="#000000" stroke-width="2.00"/>
<rect shape-type="rectangle" x="770" y="324" width="62" height="32" fill="url(#lgradient20)" stroke="#000000" stroke-width="2.00"/>
<line shape-type="limitline" x1="852" y1="517" x2="852" y2="470" marker-end="url(#Arrow1)" fill="#FFFFFF" stroke="#0000FF" stroke-width="3.00"/>
<polygon shape-type="polygon" points="862,425 863,425" fill="#FFFFFF" stroke="#000000" stroke-width="2.00"/>
<g shape-type="group">
<path shape-type="chord" d="M 712,523 A 9,13 0 0,0 697,523 z" fill="#00FF00" stroke="#FFFFFF" stroke-width="1.00"/>
<line shape-type="limitline" x1="704" y1="531" x2="703" y2="522" fill="#00FF00" stroke="#FFFFFF" stroke-width="2.00"/>
<g shape-type="group">
<polygon shape-type="polygon" points="714,539 714,537 714,526 704,530" fill="#00FF00" stroke="#FFFFFF" stroke-width="1.00"/>
<polygon shape-type="polygon" points="696,526 696,526 696,538 704,530" fill="#00FF00" stroke="#FFFFFF" stroke-width="1.00"/>
</g>
</g>
<g shape-type="group">
<rect shape-type="rectangle" x="699" y="504" width="11" height="12" fill="#00FF00" stroke="#FFFFFF" stroke-width="2.00"/>
<text font-family="宋体" text-anchor="start" fill="#FFFFFF" shape-type="text" id="" font-size="6.500000" font-weight="bold" x="699" y="512">S</text>
</g>
<g shape-type="group">
<polygon shape-type="polygon" points="21,131 21,127 98,127 120,139 102,151 21,151" stroke="#FFFFFF" stroke-width="1.00"/>
</g>
<text font-family="宋体" text-anchor="start" fill="#FFFFFF" shape-type="text" id="" font-size="12.500000" x="150" y="160">INSTR GAS</text>
<text font-family="宋体" text-anchor="start" fill="#FFFFFF" shape-type="text" id="" font-size="12.500000" x="58" y="200">CW</text>
<text font-family="宋体" text-anchor="start" fill="#FFFFFF" shape-type="text" id="" font-size="12.500000" x="19" y="238">FROM CLIENT</text>
<text font-family="宋体" text-anchor="start" fill="#FFFFFF" shape-type="text" id="" font-size="12.500000" x="297" y="156">INSTR GAS</text>
<text font-family="宋体" text-anchor="start" fill="#FFFFFF" shape-type="text" id="" font-size="12.500000" x="284" y="185">FROM CLIENT</text>
<text font-family="宋体" text-anchor="start" fill="#FFFFFF" shape-type="text" id="" font-size="12.500000" x="146" y="409">8401.12.T01</text>
<rect shape-type="rectangle" x="290" y="460" width="13" height="16" fill="#00FF00" stroke="#FFFFFF" stroke-width="2.00"/>
<text font-family="宋体" text-anchor="start" fill="#FFFFFF" shape-type="text" id="" font-size="12.500000" x="303" y="472">ASLL</text>
<ellipse shape-type="ellipse" cx="378" cy="470" rx="4" ry="16" fill="url(#rgradient34)" stroke="#FFFFFF" stroke-width="2.00"/>
<text font-family="宋体" text-anchor="start" fill="#FFFFFF" shape-type="text" id="" font-size="12.500000" x="386" y="473">8301.46.BS1</text>
<text font-family="宋体" text-anchor="start" fill="#FFFFFF" shape-type="text" id="" font-size="12.500000" x="267" y="654">INSTR GAS</text>
<text font-family="宋体" text-anchor="start" fill="#FFFFFF" shape-type="text" id="" font-size="12.500000" x="50" y="667">CW</text>
<text font-family="宋体" text-anchor="start" fill="#FFFFFF" shape-type="text" id="" font-size="12.500000" x="88" y="696">TO EXCHANGER</text>
<text font-family="宋体" text-anchor="start" fill="#FFFFFF" shape-type="text" id="" font-size="12.500000" x="254" y="693">LINE</text>
<rect shape-type="rectangle" x="465" y="478" width="107" height="43" stroke="#FFFFFF" stroke-width="2.00"/>
<text font-family="宋体" text-anchor="start" fill="#FFFFFF" shape-type="text" id="" font-size="12.500000" x="471" y="493">8801_56_H01</text>
<text font-family="宋体" text-anchor="start" fill="#FFFFFF" shape-type="text" id="" font-size="12.500000" x="474" y="511">L</text>
<text font-family="宋体" text-anchor="start" fill="#FFFFFF" shape-type="text" id="" font-size="12.500000" x="529" y="650">STE AM</text>
<text font-family="宋体" text-anchor="start" fill="#FFFFFF" shape-type="text" id="" font-size="12.500000" x="574" y="686">FROM CLIENT</text>
<text font-family="宋体" text-anchor="start" fill="#FFFFFF" shape-type="text" id="" font-size="12.500000" x="493" y="471">ON/OFF</text>
<rect shape-type="rectangle" x="653" y="474" width="107" height="23" stroke="#FFFFFF" stroke-width="2.00"/>
<text font-family="宋体" text-anchor="start" fill="#FFFFFF" shape-type="text" id="" font-size="12.500000" x="661" y="490">8801.56.Y01</text>
<text font-family="宋体" text-anchor="start" fill="#FFFFFF" shape-type="text" id="" font-size="12.500000" x="769" y="467">LIQUID DRAIN</text>
<text font-family="宋体" text-anchor="start" fill="#FFFFFF" shape-type="text" id="" font-size="12.500000" x="590" y="227">CB1</text>
<text font-family="宋体" text-anchor="start" fill="#FFFFFF" shape-type="text" id="" font-size="12.500000" x="720" y="224">CB2</text>
<text font-family="宋体" text-anchor="start" fill="#FFFFFF" shape-type="text" id="" font-size="12.500000" x="627" y="219">冷箱基础</text>
<text font-family="宋体" text-anchor="start" fill="#FFFFFF" shape-type="text" id="" font-size="12.500000" x="837" y="307">3301.99A.E05</text>
<text font-family="宋体" text-anchor="start" fill="#FFFFFF" shape-type="text" id="" font-size="12.500000" x="604" y="339">3301.81B.CH1</text>
<rect shape-type="rectangle" x="940" y="293" width="13" height="16" fill="#808080" stroke="#000000" stroke-width="2.00"/>
<rect shape-type="rectangle" x="941" y="328" width="13" height="16" fill="#808080" stroke="#000000" stroke-width="2.00"/>
<text font-family="宋体" text-anchor="start" fill="#FFFFFF" shape-type="text" id="" font-size="12.500000" x="840" y="339">3301.99B.E05</text>
<text font-family="宋体" text-anchor="start" fill="#FFFFFF" shape-type="text" id="" font-size="12.500000" x="913" y="480">8801.56.BJ1</text>
<rect shape-type="rectangle" x="931" y="512" width="113" height="43" stroke="#FFFFFF" stroke-width="2.00"/>
<text font-family="宋体" text-anchor="start" fill="#FFFFFF" shape-type="text" id="" font-size="12.500000" x="937" y="528">8801.56.T01</text>
<line shape-type="limitline" x1="1232" y1="367" x2="1232" y2="248" fill="#FFFFFF" stroke="#000000" stroke-width="2.00" stroke-dasharray="10 2"/>
<line shape-type="limitline" x1="937" y1="527" x2="890" y2="527" fill="#FFFFFF" stroke="#000000" stroke-width="2.00" stroke-dasharray="10 2"/>
<line shape-type="limitline" x1="896" y1="593" x2="859" y2="593" fill="#FFFFFF" stroke="#000000" stroke-width="2.00" stroke-dasharray="10 2"/>
<line shape-type="limitline" x1="804" y1="149" x2="760" y2="149" fill="#FFFFFF" stroke="#000000" stroke-width="2.00" stroke-dasharray="10 2"/>
<line shape-type="limitline" x1="802" y1="200" x2="764" y2="200" fill="#FFFFFF" stroke="#000000" stroke-width="2.00" stroke-dasharray="10 2"/>
<line shape-type="limitline" x1="574" y1="171" x2="535" y2="171" fill="#FFFFFF" stroke="#000000" stroke-width="2.00" stroke-dasharray="10 2"/>
<line shape-type="limitline" x1="578" y1="202" x2="532" y2="202" fill="#FFFFFF" stroke="#000000" stroke-width="2.00" stroke-dasharray="10 2"/>
<line shape-type="limitline" x1="-3" y1="374" x2="-14" y2="374" fill="#FFFFFF" stroke="#000000" stroke-width="2.00" stroke-dasharray="10 2"/>
<line shape-type="limitline" x1="143" y1="414" x2="133" y2="414" fill="#FFFFFF" stroke="#000000" stroke-width="2.00" stroke-dasharray="10 2"/>
<text font-family="宋体" text-anchor="start" fill="#FFFFFF" shape-type="text" id="" font-size="12.500000" x="603" y="311">3301.81A.CH1</text>
<path shape-type="roundpipe" d="M 921,417 A 45,88 0 0,0 875,506 L 893,506 A 27,53 0 0,1 921,452 z" fill="url(#rpgradient70)" stroke="#000000" stroke-width="2.00"/>
<path shape-type="roundpipe" d="M 851,544 A 44,58 0 0,0 895,486 L 878,486 A 27,35 0 0,1 851,521 z" fill="url(#rpgradient71)" stroke="#000000" stroke-width="2.00"/>
<rect shape-type="rectangle" x="836" y="638" width="6" height="50" stroke="#FFFFFF" stroke-width="2.00"/>
<rect shape-type="rectangle" x="865" y="638" width="6" height="52" stroke="#FFFFFF" stroke-width="2.00"/>
<ellipse shape-type="ellipse" cx="845" cy="645" rx="4" ry="4" stroke="#FFFFFF" stroke-width="2.00"/>
<ellipse shape-type="ellipse" cx="853" cy="645" rx="4" ry="4" stroke="#FFFFFF" stroke-width="2.00"/>
<ellipse shape-type="ellipse" cx="862" cy="645" rx="5" ry="4" stroke="#FFFFFF" stroke-width="2.00"/>
<ellipse shape-type="ellipse" cx="849" cy="653" rx="4" ry="4" stroke="#FFFFFF" stroke-width="2.00"/>
<ellipse shape-type="ellipse" cx="859" cy="652" rx="5" ry="4" stroke="#FFFFFF" stroke-width="2.00"/>
<ellipse shape-type="ellipse" cx="846" cy="661" rx="4" ry="5" stroke="#FFFFFF" stroke-width="2.00"/>
<ellipse shape-type="ellipse" cx="854" cy="660" rx="4" ry="5" stroke="#FFFFFF" stroke-width="2.00"/>
<ellipse shape-type="ellipse" cx="862" cy="660" rx="5" ry="5" stroke="#FFFFFF" stroke-width="2.00"/>
<ellipse shape-type="ellipse" cx="850" cy="668" rx="4" ry="5" stroke="#FFFFFF" stroke-width="2.00"/>
<ellipse shape-type="ellipse" cx="858" cy="668" rx="4" ry="5" stroke="#FFFFFF" stroke-width="2.00"/>
<ellipse shape-type="ellipse" cx="846" cy="674" rx="4" ry="4" stroke="#FFFFFF" stroke-width="2.00"/>
<ellipse shape-type="ellipse" cx="855" cy="674" rx="4" ry="4" stroke="#FFFFFF" stroke-width="2.00"/>
<ellipse shape-type="ellipse" cx="863" cy="675" rx="4" ry="4" fill="#FFFFFF" stroke="#FFFFFF" stroke-width="2.00"/>
<text font-family="宋体" text-anchor="start" fill="#FFFFFF" shape-type="text" id="" font-size="9.500000" x="26" y="144">2601.01A/B.BA1</text>
<rect shape-type="rectangle" x="1" y="0" width="1065" height="38" fill="#636563" stroke="#808080" stroke-width="1.00"/>
<rect shape-type="rectangle" x="283" y="2" width="500" height="33" stroke="#000000" stroke-width="1.00"/>
<a xlink:href="5700_ML.svg">
<g shape-type="button">
<rect fill="#C0C0C0" stroke-width="0.3" stroke="#FFFFFF" x="961" y="2" width="100" height="33" shape-type="buttonrect"/>
<text font-family="宋体" text-anchor="middle" dominant-baseline="middle" fill="#800000" font-size="13.500000" font-weight="bold" x="1011" y="25" shape-type="buttontext">返回上一级</text>
</g>
</a>
<text font-family="宋体" text-anchor="start" fill="#FFFFFF" shape-type="text" id="" font-size="26.750000" font-weight="bold" x="450" y="28">公用工程</text>
<rect shape-type="rectangle" x="145" y="414" width="63" height="20" fill="#4A494A" stroke="#C0C0C0" stroke-width="3.00"/>
<text font-family="Arial" text-anchor="start" fill="#00FFFF" shape-type="realdata" id="HCAB_ZQ_KF_8401_12_T01_RTD" font-size="12.500000" x="147" y="429">XXXX</text>
<line shape-type="limitline" x1="144" y1="463" x2="134" y2="463" fill="#FFFFFF" stroke="#000000" stroke-width="2.00" stroke-dasharray="10 2"/>
<line shape-type="limitline" x1="-1" y1="370" x2="-11" y2="370" fill="#FFFFFF" stroke="#000000" stroke-width="2.00" stroke-dasharray="10 2"/>
<rect shape-type="rectangle" x="143" y="341" width="107" height="43" stroke="#FFFFFF" stroke-width="2.00"/>
<rect shape-type="rectangle" x="211" y="362" width="36" height="20" fill="#4A494A" stroke="#C0C0C0" stroke-width="3.00"/>
<text font-family="宋体" text-anchor="start" fill="#FFFFFF" shape-type="text" id="" font-size="12.500000" x="218" y="377">KPaG</text>
<text font-family="宋体" text-anchor="start" fill="#FFFFFF" shape-type="text" id="" font-size="12.500000" x="147" y="356">8401.12.P01</text>
<line shape-type="limitline" x1="144" y1="361" x2="134" y2="361" fill="#FFFFFF" stroke="#000000" stroke-width="2.00" stroke-dasharray="10 2"/>
<rect shape-type="rectangle" x="146" y="361" width="63" height="20" fill="#4A494A" stroke="#C0C0C0" stroke-width="3.00"/>
<text font-family="Arial" text-anchor="start" fill="#00FFFF" shape-type="realdata" id="HCAB_ZQ_KF_8401_12_P01_AI" font-size="12.500000" x="148" y="376">XXXX</text>
<rect shape-type="rectangle" x="144" y="289" width="107" height="43" stroke="#FFFFFF" stroke-width="2.00"/>
<rect shape-type="rectangle" x="212" y="310" width="36" height="20" fill="#4A494A" stroke="#C0C0C0" stroke-width="3.00"/>
<text font-family="宋体" text-anchor="start" fill="#FFFFFF" shape-type="text" id="" font-size="12.500000" x="217" y="324">m3/h</text>
<text font-family="宋体" text-anchor="start" fill="#FFFFFF" shape-type="text" id="" font-size="12.500000" x="148" y="304">8401.12.F01</text>
<line shape-type="limitline" x1="145" y1="309" x2="135" y2="309" fill="#FFFFFF" stroke="#000000" stroke-width="2.00" stroke-dasharray="10 2"/>
<rect shape-type="rectangle" x="147" y="309" width="63" height="20" fill="#4A494A" stroke="#C0C0C0" stroke-width="3.00"/>
<text font-family="Arial" text-anchor="start" fill="#00FFFF" shape-type="realdata" id="HCAB_ZQ_KF_8401_12_F01_AI" font-size="12.500000" x="150" y="324">XXXX</text>
<rect shape-type="rectangle" x="437" y="179" width="107" height="43" stroke="#FFFFFF" stroke-width="2.00"/>
<rect shape-type="rectangle" x="505" y="200" width="36" height="20" fill="#4A494A" stroke="#C0C0C0" stroke-width="3.00"/>
<text font-family="宋体" text-anchor="start" fill="#FFFFFF" shape-type="text" id="" font-size="12.500000" x="448" y="194">3002.99.P02</text>
<line shape-type="limitline" x1="438" y1="199" x2="428" y2="199" fill="#FFFFFF" stroke="#000000" stroke-width="2.00" stroke-dasharray="10 2"/>
<rect shape-type="rectangle" x="440" y="199" width="63" height="20" fill="#4A494A" stroke="#C0C0C0" stroke-width="3.00"/>
<text font-family="Arial" text-anchor="start" fill="#00FFFF" shape-type="realdata" id="HCAB_ZQ_KF_3002_99_P02_AI" font-size="12.500000" x="441" y="214">XXXX</text>
<rect shape-type="rectangle" x="438" y="127" width="107" height="43" stroke="#FFFFFF" stroke-width="2.00"/>
<rect shape-type="rectangle" x="506" y="148" width="36" height="20" fill="#4A494A" stroke="#C0C0C0" stroke-width="3.00"/>
<text font-family="宋体" text-anchor="start" fill="#FFFFFF" shape-type="text" id="" font-size="12.500000" x="511" y="162">KPaG</text>
<text font-family="宋体" text-anchor="start" fill="#FFFFFF" shape-type="text" id="" font-size="12.500000" x="447" y="142">3002.99.P04</text>
<line shape-type="limitline" x1="439" y1="147" x2="429" y2="147" fill="#FFFFFF" stroke="#000000" stroke-width="2.00" stroke-dasharray="10 2"/>
<rect shape-type="rectangle" x="441" y="147" width="63" height="20" fill="#4A494A" stroke="#C0C0C0" stroke-width="3.00"/>
<text font-family="Arial" text-anchor="start" fill="#00FFFF" shape-type="realdata" id="HCAB_ZQ_KF_3002_99_P04_AI" font-size="12.500000" x="446" y="162">XXXX</text>
<text font-family="宋体" text-anchor="start" fill="#FFFFFF" shape-type="text" id="" font-size="12.500000" x="507" y="214">KPaG</text>
<rect shape-type="rectangle" x="787" y="172" width="107" height="43" stroke="#FFFFFF" stroke-width="2.00"/>
<rect shape-type="rectangle" x="855" y="193" width="36" height="20" fill="#4A494A" stroke="#C0C0C0" stroke-width="3.00"/>
<text font-family="宋体" text-anchor="start" fill="#FFFFFF" shape-type="text" id="" font-size="12.500000" x="798" y="187">3001.99.P02</text>
<line shape-type="limitline" x1="788" y1="192" x2="778" y2="192" fill="#FFFFFF" stroke="#000000" stroke-width="2.00" stroke-dasharray="10 2"/>
<rect shape-type="rectangle" x="790" y="192" width="63" height="20" fill="#4A494A" stroke="#C0C0C0" stroke-width="3.00"/>
<rect shape-type="rectangle" x="788" y="120" width="107" height="43" stroke="#FFFFFF" stroke-width="2.00"/>
<rect shape-type="rectangle" x="856" y="141" width="36" height="20" fill="#4A494A" stroke="#C0C0C0" stroke-width="3.00"/>
<text font-family="宋体" text-anchor="start" fill="#FFFFFF" shape-type="text" id="" font-size="12.500000" x="861" y="155">KPaG</text>
<text font-family="宋体" text-anchor="start" fill="#FFFFFF" shape-type="text" id="" font-size="12.500000" x="797" y="135">3001.99.P04</text>
<line shape-type="limitline" x1="789" y1="140" x2="779" y2="140" fill="#FFFFFF" stroke="#000000" stroke-width="2.00" stroke-dasharray="10 2"/>
<rect shape-type="rectangle" x="791" y="140" width="63" height="20" fill="#4A494A" stroke="#C0C0C0" stroke-width="3.00"/>
<text font-family="Arial" text-anchor="start" fill="#00FFFF" shape-type="realdata" id="HCAB_ZQ_KF_3001_99_P04_AI" font-size="12.500000" x="794" y="155">XXXX</text>
<text font-family="宋体" text-anchor="start" fill="#FFFFFF" shape-type="text" id="" font-size="12.500000" x="857" y="207">KPaG</text>
<text font-family="Arial" text-anchor="start" fill="#00FFFF" shape-type="realdata" id="HCAB_ZQ_KF_3001_99_P02_AI" font-size="12.500000" x="790" y="208">XXXX</text>
<rect shape-type="rectangle" x="521" y="235" width="107" height="43" stroke="#FFFFFF" stroke-width="2.00"/>
<rect shape-type="rectangle" x="590" y="256" width="36" height="20" fill="#4A494A" stroke="#C0C0C0" stroke-width="3.00"/>
<text font-family="宋体" text-anchor="start" fill="#FFFFFF" shape-type="text" id="" font-size="12.500000" x="533" y="250">3002.99.T01</text>
<rect shape-type="rectangle" x="525" y="255" width="63" height="20" fill="#4A494A" stroke="#C0C0C0" stroke-width="3.00"/>
<rect shape-type="rectangle" x="628" y="236" width="107" height="43" stroke="#FFFFFF" stroke-width="2.00"/>
<rect shape-type="rectangle" x="698" y="257" width="36" height="20" fill="#4A494A" stroke="#C0C0C0" stroke-width="3.00"/>
<text font-family="宋体" text-anchor="start" fill="#FFFFFF" shape-type="text" id="" font-size="12.500000" x="634" y="251">3001.99.T01</text>
<rect shape-type="rectangle" x="633" y="256" width="63" height="20" fill="#4A494A" stroke="#C0C0C0" stroke-width="3.00"/>
<rect shape-type="rectangle" x="737" y="235" width="101" height="43" stroke="#FFFFFF" stroke-width="2.00"/>
<rect shape-type="rectangle" x="805" y="257" width="29" height="19" fill="#4A494A" stroke="#C0C0C0" stroke-width="3.00"/>
<text font-family="宋体" text-anchor="start" fill="#FFFFFF" shape-type="text" id="" font-size="12.500000" x="748" y="250">3001.99.T02</text>
<rect shape-type="rectangle" x="740" y="255" width="63" height="20" fill="#4A494A" stroke="#C0C0C0" stroke-width="3.00"/>
<text font-family="宋体" text-anchor="start" fill="#FFFFFF" shape-type="text" id="" font-size="12.500000" x="605" y="272">℃</text>
<text font-family="宋体" text-anchor="start" fill="#FFFFFF" shape-type="text" id="" font-size="12.500000" x="706" y="273">℃</text>
<text font-family="宋体" text-anchor="start" fill="#FFFFFF" shape-type="text" id="" font-size="12.500000" x="813" y="270">℃</text>
<text font-family="Arial" text-anchor="start" fill="#00FFFF" shape-type="realdata" id="HCAB_ZQ_KF_3002_99_T01_RTD" font-size="12.500000" x="528" y="268">XXXX</text>
<text font-family="Arial" text-anchor="start" fill="#00FFFF" shape-type="realdata" id="HCAB_ZQ_KF_3001_99_T01_RTD" font-size="12.500000" x="636" y="269">XXXX</text>
<text font-family="Arial" text-anchor="start" fill="#00FFFF" shape-type="realdata" id="HCAB_ZQ_KF_3001_99_T02_RTD" font-size="12.500000" x="744" y="270">XXXX</text>
<rect shape-type="rectangle" x="265" y="383" width="107" height="43" stroke="#FFFFFF" stroke-width="2.00"/>
<rect shape-type="rectangle" x="333" y="404" width="36" height="20" fill="#4A494A" stroke="#C0C0C0" stroke-width="3.00"/>
<text font-family="宋体" text-anchor="start" fill="#FFFFFF" shape-type="text" id="" font-size="12.500000" x="276" y="398">8301.90.P01</text>
<line shape-type="limitline" x1="266" y1="403" x2="256" y2="403" fill="#FFFFFF" stroke="#000000" stroke-width="2.00" stroke-dasharray="10 2"/>
<rect shape-type="rectangle" x="268" y="403" width="63" height="20" fill="#4A494A" stroke="#C0C0C0" stroke-width="3.00"/>
<text font-family="宋体" text-anchor="start" fill="#FFFFFF" shape-type="text" id="" font-size="12.500000" x="338" y="418">KPaG</text>
<text font-family="Arial" text-anchor="start" fill="#00FFFF" shape-type="realdata" id="HCAB_ZQ_KF_8301_90_P01_AI" font-size="12.500000" x="272" y="417">XXXX</text>
<rect shape-type="rectangle" x="936" y="533" width="63" height="20" fill="#4A494A" stroke="#C0C0C0" stroke-width="3.00"/>
<rect shape-type="rectangle" x="1004" y="532" width="36" height="20" fill="#4A494A" stroke="#C0C0C0" stroke-width="3.00"/>
<text font-family="Arial" text-anchor="start" fill="#00FFFF" shape-type="realdata" id="HCAB_ZQ_KF_8801_56_T01_AI" font-size="12.500000" x="932" y="547">XXXX</text>
<text font-family="宋体" text-anchor="start" fill="#FFFFFF" shape-type="text" id="" font-size="12.500000" x="1015" y="549">℃</text>
</svg>
