<?xml version="1.0"?>
<?xml-stylesheet type='text/javascript'?>
<!--Draw SVG: 2019-11-25 09:41:31 47-Monday-->
<svg xmlns="http://www.w3.org/2000/svg" xmlns:xlink="http://www.w3.org/1999/xlink" version="1.1" style="background-color:#000000" width="1066" height="800" viewbox="0 0 1066 800">
<defs>
<linearGradient x1="0.000000%" y1="50.000000%" x2="100.000000%" y2="50.000000%" id="lgradient6">
<stop offset="0" stop-color="#111111" stop-opacity="1"/>
<stop offset="0.5" stop-color="#636563" stop-opacity="1"/>
<stop offset="1" stop-color="#111111" stop-opacity="1"/>
</linearGradient>
<linearGradient x1="0.000000%" y1="50.000000%" x2="100.000000%" y2="50.000000%" id="lgradient32">
<stop offset="0" stop-color="#2C2C2C" stop-opacity="1"/>
<stop offset="0.5" stop-color="#FFFFFF" stop-opacity="1"/>
<stop offset="1" stop-color="#2C2C2C" stop-opacity="1"/>
</linearGradient>
<radialGradient cx="50.000000%" cy="50.000000%" r="50.000000%" fx="50.000000%" fy="50.000000%" id="rgradient78">
<stop offset="0%" stop-color="#FFFFFF" stop-opacity="1"/>
<stop offset="100%" stop-color="#2C2C2C" stop-opacity="1"/>
</radialGradient>
<radialGradient cx="50.000000%" cy="50.000000%" r="50.000000%" fx="50.000000%" fy="50.000000%" id="rgradient81">
<stop offset="0%" stop-color="#FFFFFF" stop-opacity="1"/>
<stop offset="100%" stop-color="#2C2C2C" stop-opacity="1"/>
</radialGradient>
<linearGradient x1="0.000000%" y1="50.000000%" x2="100.000000%" y2="50.000000%" id="lgradient84">
<stop offset="0" stop-color="#2C2C2C" stop-opacity="1"/>
<stop offset="0.5" stop-color="#FFFFFF" stop-opacity="1"/>
<stop offset="1" stop-color="#2C2C2C" stop-opacity="1"/>
</linearGradient>
<linearGradient x1="0.000000%" y1="50.000000%" x2="100.000000%" y2="50.000000%" id="lgradient85">
<stop offset="0" stop-color="#2C2C2C" stop-opacity="1"/>
<stop offset="0.5" stop-color="#FFFFFF" stop-opacity="1"/>
<stop offset="1" stop-color="#2C2C2C" stop-opacity="1"/>
</linearGradient>
<linearGradient x1="0.000000%" y1="50.000000%" x2="100.000000%" y2="50.000000%" id="lgradient86">
<stop offset="0" stop-color="#2C2C2C" stop-opacity="1"/>
<stop offset="0.5" stop-color="#FFFFFF" stop-opacity="1"/>
<stop offset="1" stop-color="#2C2C2C" stop-opacity="1"/>
</linearGradient>
<radialGradient cx="50.000000%" cy="50.000000%" r="50.000000%" fx="50.000000%" fy="50.000000%" id="rgradient87">
<stop offset="0%" stop-color="#FFFFFF" stop-opacity="1"/>
<stop offset="100%" stop-color="#2C2C2C" stop-opacity="1"/>
</radialGradient>
<radialGradient cx="50.000000%" cy="50.000000%" r="50.000000%" fx="50.000000%" fy="50.000000%" id="rgradient90">
<stop offset="0%" stop-color="#FFFFFF" stop-opacity="1"/>
<stop offset="100%" stop-color="#2C2C2C" stop-opacity="1"/>
</radialGradient>
</defs>
<rect shape-type="rectangle" x="26" y="468" width="102" height="45" stroke="#C0C0C0" stroke-width="1.00"/>
<rect shape-type="rectangle" x="1" y="1" width="1065" height="37" fill="#636563" stroke="#808080" stroke-width="1.00"/>
<rect shape-type="rectangle" x="225" y="3" width="500" height="33" stroke="#000000" stroke-width="1.00"/>
<text font-family="宋体" text-anchor="start" fill="#FFFFFF" shape-type="text" id="" font-size="26.750000" font-weight="bold" x="402" y="30">增压机</text>
<a xlink:href="5700_ML.svg">
<g shape-type="button">
<rect fill="#C0C0C0" stroke-width="0.3" stroke="#FFFFFF" x="963" y="2" width="100" height="33" shape-type="buttonrect"/>
<text font-family="宋体" text-anchor="middle" dominant-baseline="middle" fill="#800000" font-size="13.500000" font-weight="bold" x="1013" y="25" shape-type="buttontext">返回上一级</text>
</g>
</a>
<rect shape-type="rectangle" x="-51" y="831" width="1064" height="46" fill="url(#lgradient6)" stroke="#636563" stroke-width="1.00"/>
<text font-family="Arial" text-anchor="start" fill="#00FFFF" shape-type="realdata" id="HCAB_ZQ_KF_1202_81_I10_AI" font-size="12.500000" x="33" y="504">XXXX</text>
<rect shape-type="rectangle" x="166" y="125" width="75" height="35" stroke="#C0C0C0" stroke-width="1.00"/>
<rect shape-type="rectangle" x="166" y="139" width="45" height="17" fill="#4A494A" stroke="#C0C0C0" stroke-width="3.00"/>
<rect shape-type="rectangle" x="483" y="546" width="76" height="50" stroke="#C0C0C0" stroke-width="1.00"/>
<line shape-type="limitline" x1="930" y1="143" x2="929" y2="404" fill="#0000A0" stroke="#FFFFFF" stroke-width="3.00"/>
<line shape-type="limitline" x1="804" y1="763" x2="804" y2="732" fill="#FFFFFF" stroke="#FFFFFF" stroke-width="3.00" stroke-dasharray="5 10"/>
<line shape-type="limitline" x1="728" y1="406" x2="727" y2="280" fill="#0000A0" stroke="#FFFFFF" stroke-width="3.00"/>
<line shape-type="limitline" x1="695" y1="406" x2="930" y2="407" fill="#0000A0" stroke="#FFFFFF" stroke-width="3.00"/>
<line shape-type="limitline" x1="995" y1="543" x2="889" y2="544" fill="#0000A0" stroke="#FFFFFF" stroke-width="3.00"/>
<line shape-type="limitline" x1="994" y1="574" x2="890" y2="575" fill="#0000A0" stroke="#FFFFFF" stroke-width="3.00"/>
<line shape-type="limitline" x1="994" y1="632" x2="888" y2="633" fill="#0000A0" stroke="#FFFFFF" stroke-width="3.00"/>
<line shape-type="limitline" x1="889" y1="408" x2="888" y2="633" fill="#0000A0" stroke="#FFFFFF" stroke-width="3.00"/>
<line shape-type="limitline" x1="256" y1="281" x2="728" y2="282" fill="#0000A0" stroke="#FFFFFF" stroke-width="3.00"/>
<line shape-type="limitline" x1="930" y1="144" x2="956" y2="145" fill="#0000A0" stroke="#FFFFFF" stroke-width="3.00"/>
<line shape-type="limitline" x1="255" y1="67" x2="254" y2="464" fill="#0000A0" stroke="#FFFFFF" stroke-width="3.00"/>
<line shape-type="limitline" x1="90" y1="67" x2="253" y2="68" fill="#0000A0" stroke="#FFFFFF" stroke-width="3.00"/>
<line shape-type="limitline" x1="359" y1="497" x2="339" y2="498" fill="#0000A0" stroke="#FFFFFF" stroke-width="3.00"/>
<line shape-type="limitline" x1="286" y1="493" x2="314" y2="494" fill="#0000A0" stroke="#FFFFFF" stroke-width="3.00"/>
<line shape-type="limitline" x1="406" y1="496" x2="428" y2="497" fill="#0000A0" stroke="#FFFFFF" stroke-width="3.00"/>
<line shape-type="limitline" x1="481" y1="493" x2="457" y2="494" fill="#0000A0" stroke="#FFFFFF" stroke-width="3.00"/>
<line shape-type="limitline" x1="564" y1="493" x2="527" y2="494" fill="#0000A0" stroke="#FFFFFF" stroke-width="3.00"/>
<line shape-type="limitline" x1="585" y1="492" x2="607" y2="493" fill="#0000A0" stroke="#FFFFFF" stroke-width="3.00"/>
<line shape-type="limitline" x1="650" y1="503" x2="664" y2="504" fill="#0000A0" stroke="#FFFFFF" stroke-width="3.00"/>
<line shape-type="limitline" x1="663" y1="505" x2="662" y2="403" fill="#0000A0" stroke="#FFFFFF" stroke-width="3.00"/>
<line shape-type="limitline" x1="664" y1="404" x2="676" y2="405" fill="#0000A0" stroke="#FFFFFF" stroke-width="3.00"/>
<polygon shape-type="trapezium" points="359,537 359,463 407,482 407,518 359,537" fill="url(#lgradient32)" stroke="#000000" stroke-width="1.00"/>
<line shape-type="limitline" x1="84" y1="656" x2="692" y2="657" fill="#0000A0" stroke="#00FF00" stroke-width="3.00"/>
<line shape-type="limitline" x1="79" y1="630" x2="678" y2="631" fill="#0000A0" stroke="#00FF00" stroke-width="3.00"/>
<line shape-type="limitline" x1="339" y1="766" x2="970" y2="767" fill="#0000A0" stroke="#FFFFFF" stroke-width="3.00"/>
<line shape-type="limitline" x1="431" y1="755" x2="430" y2="726" fill="#FFFFFF" stroke="#FFFFFF" stroke-width="3.00" stroke-dasharray="5 10"/>
<line shape-type="limitline" x1="615" y1="758" x2="614" y2="728" fill="#FFFFFF" stroke="#FFFFFF" stroke-width="3.00" stroke-dasharray="5 10"/>
<line shape-type="limitline" x1="229" y1="676" x2="228" y2="656" fill="#FFFFFF" stroke="#FFFFFF" stroke-width="3.00" stroke-dasharray="5 10"/>
<line shape-type="limitline" x1="330" y1="654" x2="329" y2="635" fill="#0000A0" stroke="#00FF00" stroke-width="3.00"/>
<line shape-type="limitline" x1="450" y1="657" x2="449" y2="639" fill="#0000A0" stroke="#00FF00" stroke-width="3.00"/>
<line shape-type="limitline" x1="578" y1="656" x2="577" y2="637" fill="#0000A0" stroke="#00FF00" stroke-width="3.00"/>
<line shape-type="limitline" x1="339" y1="660" x2="338" y2="766" fill="#0000A0" stroke="#FFFFFF" stroke-width="3.00"/>
<line shape-type="limitline" x1="340" y1="496" x2="339" y2="626" fill="#0000A0" stroke="#FFFFFF" stroke-width="3.00"/>
<line shape-type="limitline" x1="340" y1="655" x2="339" y2="637" fill="#0000A0" stroke="#FFFFFF" stroke-width="3.00"/>
<line shape-type="limitline" x1="344" y1="500" x2="343" y2="568" fill="#FFFFFF" stroke="#FFFFFF" stroke-width="3.00" stroke-dasharray="5 10"/>
<line shape-type="limitline" x1="347" y1="567" x2="361" y2="568" fill="#FFFFFF" stroke="#FFFFFF" stroke-width="3.00" stroke-dasharray="5 10"/>
<line shape-type="limitline" x1="514" y1="756" x2="513" y2="727" fill="#FFFFFF" stroke="#FFFFFF" stroke-width="3.00" stroke-dasharray="5 10"/>
<line shape-type="limitline" x1="183" y1="422" x2="182" y2="465" fill="#FFFFFF" stroke="#FFFFFF" stroke-width="3.00" stroke-dasharray="5 10"/>
<line shape-type="limitline" x1="154" y1="493" x2="251" y2="494" fill="#FFFFFF" stroke="#FFFFFF" stroke-width="3.00" stroke-dasharray="5 10"/>
<line shape-type="limitline" x1="260" y1="610" x2="259" y2="519" fill="#0000A0" stroke="#FFFFFF" stroke-width="3.00"/>
<line shape-type="limitline" x1="80" y1="611" x2="259" y2="612" fill="#0000A0" stroke="#FFFFFF" stroke-width="3.00"/>
<rect shape-type="rectangle" x="452" y="176" width="101" height="50" stroke="#C0C0C0" stroke-width="1.00"/>
<text font-family="宋体" text-anchor="start" fill="#C0C0C0" shape-type="text" id="" font-size="1.250000" x="466" y="165"></text>
<text font-family="宋体" text-anchor="start" fill="#C0C0C0" shape-type="text" id="" font-size="1.250000" x="466" y="165"></text>
<rect shape-type="rectangle" x="278" y="298" width="99" height="43" stroke="#C0C0C0" stroke-width="1.00"/>
<text font-family="宋体" text-anchor="start" fill="#C0C0C0" shape-type="text" id="" font-size="2.750000" x="295" y="311"></text>
<text font-family="宋体" text-anchor="start" fill="#C0C0C0" shape-type="text" id="" font-size="2.750000" x="295" y="311"></text>
<rect shape-type="rectangle" x="742" y="343" width="94" height="46" stroke="#C0C0C0" stroke-width="1.00"/>
<text font-family="宋体" text-anchor="start" fill="#C0C0C0" shape-type="text" id="" font-size="1.250000" x="755" y="357"></text>
<text font-family="宋体" text-anchor="start" fill="#C0C0C0" shape-type="text" id="" font-size="1.250000" x="755" y="357"></text>
<rect shape-type="rectangle" x="760" y="418" width="91" height="44" stroke="#C0C0C0" stroke-width="1.00"/>
<text font-family="宋体" text-anchor="start" fill="#C0C0C0" shape-type="text" id="" font-size="1.250000" x="781" y="425"></text>
<text font-family="宋体" text-anchor="start" fill="#C0C0C0" shape-type="text" id="" font-size="1.250000" x="781" y="425"></text>
<text font-family="宋体" text-anchor="start" fill="#C0C0C0" shape-type="text" id="" font-size="1.250000" x="683" y="659"></text>
<text font-family="宋体" text-anchor="start" fill="#C0C0C0" shape-type="text" id="" font-size="1.250000" x="683" y="659"></text>
<rect shape-type="rectangle" x="482" y="678" width="79" height="50" stroke="#C0C0C0" stroke-width="1.00"/>
<text font-family="宋体" text-anchor="start" fill="#C0C0C0" shape-type="text" id="" font-size="1.250000" x="499" y="696"></text>
<text font-family="宋体" text-anchor="start" fill="#C0C0C0" shape-type="text" id="" font-size="1.250000" x="499" y="696"></text>
<rect shape-type="rectangle" x="387" y="673" width="75" height="53" stroke="#C0C0C0" stroke-width="1.00"/>
<text font-family="宋体" text-anchor="start" fill="#C0C0C0" shape-type="text" id="" font-size="1.250000" x="400" y="697"></text>
<text font-family="宋体" text-anchor="start" fill="#C0C0C0" shape-type="text" id="" font-size="1.250000" x="400" y="697"></text>
<rect shape-type="rectangle" x="194" y="680" width="95" height="59" stroke="#C0C0C0" stroke-width="1.00"/>
<text font-family="宋体" text-anchor="start" fill="#C0C0C0" shape-type="text" id="" font-size="1.250000" x="205" y="682"></text>
<text font-family="宋体" text-anchor="start" fill="#C0C0C0" shape-type="text" id="" font-size="1.250000" x="205" y="682"></text>
<rect shape-type="rectangle" x="134" y="387" width="86" height="36" stroke="#C0C0C0" stroke-width="1.00"/>
<rect shape-type="rectangle" x="134" y="475" width="29" height="37" stroke="#C0C0C0" stroke-width="1.00"/>
<ellipse shape-type="ellipse" cx="150" cy="492" rx="11" ry="14" fill="#FF0000" stroke="#000000" stroke-width="1.00"/>
<ellipse shape-type="ellipse" cx="442" cy="492" rx="14" ry="14" fill="url(#rgradient78)" stroke="#000000" stroke-width="1.00"/>
<line shape-type="limitline" x1="450" y1="627" x2="449" y2="488" fill="#0000A0" stroke="#00FF00" stroke-width="3.00"/>
<line shape-type="limitline" x1="435" y1="628" x2="434" y2="489" fill="#0000A0" stroke="#00FF00" stroke-width="3.00"/>
<ellipse shape-type="ellipse" cx="324" cy="493" rx="15" ry="14" fill="url(#rgradient81)" stroke="#000000" stroke-width="1.00"/>
<line shape-type="limitline" x1="317" y1="626" x2="316" y2="488" fill="#0000A0" stroke="#00FF00" stroke-width="3.00"/>
<line shape-type="limitline" x1="330" y1="625" x2="329" y2="487" fill="#0000A0" stroke="#00FF00" stroke-width="3.00"/>
<polygon shape-type="trapezium" points="238,527 238,452 288,471 288,507 238,527" fill="url(#lgradient84)" stroke="#000000" stroke-width="1.00"/>
<polygon shape-type="trapezium" points="477,529 477,455 525,474 525,510 477,529" fill="url(#lgradient85)" stroke="#000000" stroke-width="1.00"/>
<polygon shape-type="trapezium" points="603,535 603,460 651,479 651,515 603,535" fill="url(#lgradient86)" stroke="#000000" stroke-width="1.00"/>
<ellipse shape-type="ellipse" cx="570" cy="495" rx="14" ry="15" fill="url(#rgradient87)" stroke="#000000" stroke-width="1.00"/>
<line shape-type="limitline" x1="565" y1="630" x2="564" y2="490" fill="#0000A0" stroke="#00FF00" stroke-width="3.00"/>
<line shape-type="limitline" x1="578" y1="630" x2="577" y2="490" fill="#0000A0" stroke="#00FF00" stroke-width="3.00"/>
<ellipse shape-type="ellipse" cx="687" cy="407" rx="14" ry="15" fill="url(#rgradient90)" stroke="#000000" stroke-width="1.00"/>
<line shape-type="limitline" x1="679" y1="404" x2="678" y2="628" fill="#0000A0" stroke="#00FF00" stroke-width="3.00"/>
<line shape-type="limitline" x1="693" y1="408" x2="692" y2="656" fill="#0000A0" stroke="#00FF00" stroke-width="3.00"/>
<rect shape-type="rectangle" x="358" y="543" width="75" height="51" stroke="#C0C0C0" stroke-width="1.00"/>
<text font-family="宋体" text-anchor="start" fill="#C0C0C0" shape-type="text" id="" font-size="1.250000" x="367" y="541"></text>
<text font-family="宋体" text-anchor="start" fill="#C0C0C0" shape-type="text" id="" font-size="1.250000" x="367" y="541"></text>
<line shape-type="limitline" x1="489" y1="563" x2="467" y2="564" fill="#FFFFFF" stroke="#FFFFFF" stroke-width="3.00" stroke-dasharray="5 10"/>
<text font-family="宋体" text-anchor="start" fill="#C0C0C0" shape-type="text" id="" font-size="1.250000" x="494" y="557"></text>
<text font-family="宋体" text-anchor="start" fill="#C0C0C0" shape-type="text" id="" font-size="1.250000" x="494" y="557"></text>
<line shape-type="limitline" x1="467" y1="493" x2="466" y2="561" fill="#FFFFFF" stroke="#FFFFFF" stroke-width="3.00" stroke-dasharray="5 10"/>
<line shape-type="limitline" x1="591" y1="491" x2="590" y2="558" fill="#FFFFFF" stroke="#FFFFFF" stroke-width="3.00" stroke-dasharray="5 10"/>
<rect shape-type="rectangle" x="601" y="553" width="75" height="55" stroke="#C0C0C0" stroke-width="1.00"/>
<line shape-type="limitline" x1="608" y1="560" x2="592" y2="561" fill="#FFFFFF" stroke="#FFFFFF" stroke-width="3.00" stroke-dasharray="5 10"/>
<text font-family="宋体" text-anchor="start" fill="#C0C0C0" shape-type="text" id="" font-size="1.250000" x="613" y="557"></text>
<text font-family="宋体" text-anchor="start" fill="#C0C0C0" shape-type="text" id="" font-size="1.250000" x="613" y="557"></text>
<line shape-type="line" x1="324" y1="498" x2="317" y2="489" fill="#00FFFF" stroke="#00FF00" stroke-width="3.00"/>
<line shape-type="line" x1="442" y1="499" x2="435" y2="490" fill="#00FFFF" stroke="#00FF00" stroke-width="3.00"/>
<line shape-type="line" x1="571" y1="500" x2="565" y2="491" fill="#00FFFF" stroke="#00FF00" stroke-width="3.00"/>
<line shape-type="line" x1="685" y1="417" x2="678" y2="407" fill="#00FFFF" stroke="#00FF00" stroke-width="3.00"/>
<line shape-type="line" x1="452" y1="490" x2="443" y2="497" fill="#00FFFF" stroke="#00FF00" stroke-width="3.00"/>
<line shape-type="line" x1="332" y1="489" x2="323" y2="496" fill="#00FFFF" stroke="#00FF00" stroke-width="3.00"/>
<line shape-type="line" x1="580" y1="491" x2="571" y2="498" fill="#00FFFF" stroke="#00FF00" stroke-width="3.00"/>
<line shape-type="line" x1="696" y1="407" x2="688" y2="415" fill="#00FFFF" stroke="#00FF00" stroke-width="3.00"/>
<rect shape-type="rectangle" x="775" y="478" width="96" height="52" stroke="#C0C0C0" stroke-width="1.00"/>
<text font-family="宋体" text-anchor="start" fill="#C0C0C0" shape-type="text" id="" font-size="1.250000" x="808" y="480"></text>
<text font-family="宋体" text-anchor="start" fill="#C0C0C0" shape-type="text" id="" font-size="1.250000" x="808" y="480"></text>
<text font-family="宋体" text-anchor="start" fill="#C0C0C0" shape-type="text" id="" font-size="1.250000" x="295" y="426"></text>
<text font-family="宋体" text-anchor="start" fill="#C0C0C0" shape-type="text" id="" font-size="1.250000" x="295" y="426"></text>
<text font-family="宋体" text-anchor="start" fill="#C0C0C0" shape-type="text" id="" font-size="2.000000" x="295" y="411"></text>
<text font-family="宋体" text-anchor="start" fill="#C0C0C0" shape-type="text" id="" font-size="2.000000" x="295" y="411"></text>
<rect shape-type="rectangle" x="282" y="403" width="50" height="14" fill="#4A494A" stroke="#C0C0C0" stroke-width="3.00"/>
<rect shape-type="rectangle" x="334" y="403" width="30" height="15" fill="#4A494A" stroke="#C0C0C0" stroke-width="3.00"/>
<text font-family="Arial" text-anchor="start" fill="#00FFFF" shape-type="realdata" id="XHB_RT_PT31022" font-size="11.750000" x="271" y="415">XXXX</text>
<text font-family="宋体" text-anchor="start" fill="#C0C0C0" shape-type="text" id="" font-size="1.250000" x="295" y="396"></text>
<text font-family="Arial" text-anchor="start" fill="#00FFFF" shape-type="realdata" id="XHB_RT_PT31022" font-size="11.750000" x="271" y="415">XXXX</text>
<text font-family="宋体" text-anchor="start" fill="#C0C0C0" shape-type="text" id="" font-size="1.250000" x="295" y="396"></text>
<text font-family="宋体" text-anchor="start" fill="#C0C0C0" shape-type="text" id="" font-size="1.250000" x="693" y="483"></text>
<text font-family="宋体" text-anchor="start" fill="#C0C0C0" shape-type="text" id="" font-size="1.250000" x="693" y="483"></text>
<rect shape-type="rectangle" x="770" y="571" width="106" height="54" stroke="#C0C0C0" stroke-width="1.00"/>
<text font-family="宋体" text-anchor="start" fill="#C0C0C0" shape-type="text" id="" font-size="1.250000" x="789" y="628"></text>
<text font-family="宋体" text-anchor="start" fill="#C0C0C0" shape-type="text" id="" font-size="1.250000" x="789" y="628"></text>
<text font-family="宋体" text-anchor="start" fill="#C0C0C0" shape-type="text" id="" font-size="1.250000" x="789" y="613"></text>
<text font-family="宋体" text-anchor="start" fill="#C0C0C0" shape-type="text" id="" font-size="1.250000" x="789" y="613"></text>
<text font-family="宋体" text-anchor="start" fill="#C0C0C0" shape-type="text" id="" font-size="2.000000" x="789" y="599"></text>
<text font-family="Arial" text-anchor="start" fill="#00FFFF" shape-type="realdata" id="HCAB_ZQ_KF_PIC1201_10_F02" font-size="14.000000" x="772" y="615">XXXX</text>
<text font-family="宋体" text-anchor="start" fill="#C0C0C0" shape-type="text" id="" font-size="2.000000" x="789" y="599"></text>
<text font-family="宋体" text-anchor="start" fill="#FFFFFF" shape-type="text" id="" font-size="12.500000" x="783" y="437">1201.10.T01</text>
<text font-family="宋体" text-anchor="start" fill="#FFFFFF" shape-type="text" id="" font-size="11.000000" x="795" y="494">1201.10.A40</text>
<text font-family="宋体" text-anchor="start" fill="#FFFFFF" shape-type="text" id="" font-size="11.750000" x="793" y="585">1201.10.F02</text>
<line shape-type="limitline" x1="826" y1="407" x2="825" y2="422" fill="#FFFFFF" stroke="#FFFFFF" stroke-width="3.00" stroke-dasharray="5 10"/>
<line shape-type="limitline" x1="801" y1="392" x2="800" y2="404" fill="#FFFFFF" stroke="#FFFFFF" stroke-width="3.00" stroke-dasharray="5 10"/>
<text font-family="宋体" text-anchor="start" fill="#FFFFFF" shape-type="text" id="" font-size="11.000000" x="764" y="361">1201.10.P02</text>
<text font-family="宋体" text-anchor="start" fill="#FFFFFF" shape-type="text" id="" font-size="9.500000" x="605" y="495">1201.04.BC1</text>
<text font-family="宋体" text-anchor="start" fill="#FFFFFF" shape-type="text" id="" font-size="9.500000" x="482" y="486">1201.03.BC1</text>
<text font-family="宋体" text-anchor="start" fill="#FFFFFF" shape-type="text" id="" font-size="10.250000" x="360" y="494">1201.02.BC1</text>
<text font-family="宋体" text-anchor="start" fill="#FFFFFF" shape-type="text" id="" font-size="9.500000" x="238" y="491">1201.01.BC1</text>
<text font-family="宋体" text-anchor="start" fill="#FFFFFF" shape-type="text" id="" font-size="9.500000" x="610" y="571">1201.04.T01</text>
<text font-family="宋体" text-anchor="start" fill="#FFFFFF" shape-type="text" id="" font-size="11.750000" x="367" y="559">1201.02.T01</text>
<text font-family="宋体" text-anchor="start" fill="#FFFFFF" shape-type="text" id="" font-size="11.000000" x="494" y="562">1201.03.T01</text>
<line shape-type="limitline" x1="288" y1="406" x2="259" y2="407" fill="#FFFFFF" stroke="#FFFFFF" stroke-width="3.00" stroke-dasharray="5 10"/>
<text font-family="宋体" text-anchor="start" fill="#FFFFFF" shape-type="text" id="" font-size="8.000000" x="291" y="401">3402.48.P01</text>
<text font-family="宋体" text-anchor="start" fill="#00FF42" shape-type="text" id="" font-size="12.500000" font-weight="bold" x="342" y="415">KPaG</text>
<rect shape-type="rectangle" x="569" y="679" width="97" height="51" stroke="#C0C0C0" stroke-width="1.00"/>
<text font-family="宋体" text-anchor="start" fill="#C0C0C0" shape-type="text" id="" font-size="1.250000" x="586" y="733"></text>
<text font-family="宋体" text-anchor="start" fill="#C0C0C0" shape-type="text" id="" font-size="1.250000" x="586" y="733"></text>
<text font-family="宋体" text-anchor="start" fill="#C0C0C0" shape-type="text" id="" font-size="1.250000" x="586" y="717"></text>
<text font-family="宋体" text-anchor="start" fill="#C0C0C0" shape-type="text" id="" font-size="1.250000" x="586" y="717"></text>
<text font-family="宋体" text-anchor="start" fill="#C0C0C0" shape-type="text" id="" font-size="2.750000" x="586" y="703"></text>
<text font-family="Arial" text-anchor="start" fill="#00FFFF" shape-type="realdata" id="HCAB_ZQ_KF_FIC4001_01_F02" font-size="14.000000" x="570" y="718">XXXX</text>
<text font-family="宋体" text-anchor="start" fill="#C0C0C0" shape-type="text" id="" font-size="2.750000" x="586" y="703"></text>
<text font-family="宋体" text-anchor="start" fill="#FFFFFF" shape-type="text" id="" font-size="11.750000" x="593" y="693">4001.01.F02</text>
<text font-family="宋体" text-anchor="start" fill="#FFFFFF" shape-type="text" id="" font-size="11.000000" x="499" y="697">4001.01.P01</text>
<text font-family="宋体" text-anchor="start" fill="#FFFFFF" shape-type="text" id="" font-size="10.250000" x="401" y="690">4001.01.T01</text>
<text font-family="宋体" text-anchor="start" fill="#FFFFFF" shape-type="text" id="" font-size="11.750000" x="682" y="739">4001.01.Y01</text>
<polygon shape-type="trapezium" points="955,145 955,140 961,142 961,142 955,145" fill="#808080" stroke="#C0C0C0" stroke-width="1.00"/>
<polygon shape-type="trapezium" points="971,767 971,762 977,764 977,764 971,767" fill="#808080" stroke="#C0C0C0" stroke-width="1.00"/>
<text font-family="宋体" text-anchor="start" fill="#FFFFFF" shape-type="text" id="" font-size="9.500000" x="477" y="194">1201.21.X01</text>
<text font-family="宋体" text-anchor="start" fill="#FFFFFF" shape-type="text" id="" font-size="12.500000" x="456" y="258">1201.21.Y01</text>
<line shape-type="limitline" x1="255" y1="314" x2="283" y2="315" fill="#FFFFFF" stroke="#FFFFFF" stroke-width="3.00" stroke-dasharray="5 10"/>
<line shape-type="limitline" x1="254" y1="338" x2="282" y2="339" fill="#FFFFFF" stroke="#FFFFFF" stroke-width="3.00" stroke-dasharray="5 10"/>
<text font-family="宋体" text-anchor="start" fill="#00FF00" shape-type="text" id="" font-size="9.500000" x="348" y="330">KPa</text>
<text font-family="宋体" text-anchor="start" fill="#FFFFFF" shape-type="text" id="" font-size="11.000000" x="297" y="312">1201.01.P03</text>
<rect shape-type="rectangle" x="277" y="372" width="104" height="60" stroke="#C0C0C0" stroke-width="1.00"/>
<text font-family="宋体" text-anchor="start" fill="#C0C0C0" shape-type="text" id="" font-size="1.250000" x="294" y="426"></text>
<text font-family="宋体" text-anchor="start" fill="#C0C0C0" shape-type="text" id="" font-size="1.250000" x="294" y="426"></text>
<text font-family="宋体" text-anchor="start" fill="#C0C0C0" shape-type="text" id="" font-size="2.000000" x="294" y="411"></text>
<text font-family="宋体" text-anchor="start" fill="#C0C0C0" shape-type="text" id="" font-size="2.000000" x="294" y="411"></text>
<text font-family="Arial" text-anchor="start" fill="#00FFFF" shape-type="realdata" id="HCAB_ZQ_KF_PIC3402_48_P01" font-size="11.750000" x="282" y="417">XXXX</text>
<text font-family="宋体" text-anchor="start" fill="#C0C0C0" shape-type="text" id="" font-size="1.250000" x="294" y="396"></text>
<text font-family="宋体" text-anchor="start" fill="#C0C0C0" shape-type="text" id="" font-size="1.250000" x="294" y="396"></text>
<text font-family="宋体" text-anchor="start" fill="#FFFFFF" shape-type="text" id="" font-size="13.250000" x="301" y="395">3402.48.P01</text>
<line shape-type="limitline" x1="216" y1="406" x2="252" y2="407" fill="#FFFFFF" stroke="#FFFFFF" stroke-width="3.00" stroke-dasharray="5 10"/>
<polygon shape-type="trapezium" points="218,407 218,402 213,404 213,404 218,407" fill="#808080" stroke="#C0C0C0" stroke-width="1.00"/>
<text font-family="宋体" text-anchor="start" fill="#FFFFFF" shape-type="text" id="" font-size="10.250000" x="154" y="414">1201.01.Y01</text>
<text font-family="Arial" text-anchor="start" fill="#00FFFF" shape-type="realdata" id="HCAB_ZQ_KF_1201_01_P02" font-size="10.250000" x="169" y="152">XXXX</text>
<rect shape-type="rectangle" x="213" y="137" width="26" height="18" fill="#4A494A" stroke="#C0C0C0" stroke-width="3.00"/>
<text font-family="宋体" text-anchor="start" fill="#C0C0C0" shape-type="text" id="" font-size="2.000000" x="179" y="128"></text>
<text font-family="宋体" text-anchor="start" fill="#C0C0C0" shape-type="text" id="" font-size="2.000000" x="179" y="128"></text>
<rect shape-type="rectangle" x="165" y="180" width="75" height="35" stroke="#C0C0C0" stroke-width="1.00"/>
<rect shape-type="rectangle" x="166" y="194" width="45" height="18" fill="#4A494A" stroke="#C0C0C0" stroke-width="3.00"/>
<rect shape-type="rectangle" x="213" y="193" width="25" height="18" fill="#4A494A" stroke="#C0C0C0" stroke-width="3.00"/>
<text font-family="宋体" text-anchor="start" fill="#C0C0C0" shape-type="text" id="" font-size="2.000000" x="178" y="183"></text>
<text font-family="宋体" text-anchor="start" fill="#C0C0C0" shape-type="text" id="" font-size="2.000000" x="178" y="183"></text>
<text font-family="宋体" text-anchor="start" fill="#FFFFFF" shape-type="text" id="" font-size="9.500000" x="177" y="135">1201.01.P02</text>
<text font-family="宋体" text-anchor="start" fill="#FFFFFF" shape-type="text" id="" font-size="9.500000" x="177" y="192">1201.01.T02</text>
<text font-family="宋体" text-anchor="start" fill="#FFFFFF" shape-type="text" id="" font-size="20.750000" font-weight="bold" x="142" y="499">M</text>
<line shape-type="limitline" x1="256" y1="144" x2="238" y2="145" fill="#FFFFFF" stroke="#FFFFFF" stroke-width="3.00" stroke-dasharray="5 10"/>
<line shape-type="limitline" x1="255" y1="202" x2="238" y2="203" fill="#FFFFFF" stroke="#FFFFFF" stroke-width="3.00" stroke-dasharray="5 10"/>
<g shape-type="group">
<g shape-type="group">
<polygon shape-type="trapezium" points="934,288 927,288 931,278 931,278 934,288" fill="#C0C0C0" stroke="#C0C0C0" stroke-width="1.00"/>
<polygon shape-type="trapezium" points="934,271 927,271 931,279 931,279 934,271" fill="#C0C0C0" stroke="#C0C0C0" stroke-width="1.00"/>
</g>
<line shape-type="limitline" x1="925" y1="279" x2="931" y2="280" fill="#C0C0C0" stroke="#C0C0C0" stroke-width="1.00"/>
<path shape-type="chord" d="M 924,267 A 17,14 0 1,0 924,290 z" fill="#C0C0C0" stroke="#000000" stroke-width="1.00"/>
</g>
<g shape-type="group">
<g shape-type="group">
<polygon shape-type="trapezium" points="133,606 133,616 141,611 141,611 133,606" fill="#C0C0C0" stroke="#C0C0C0" stroke-width="1.00"/>
<polygon shape-type="trapezium" points="148,606 148,616 141,611 141,611 148,606" fill="#C0C0C0" stroke="#C0C0C0" stroke-width="1.00"/>
</g>
<line shape-type="limitline" x1="141" y1="604" x2="140" y2="612" fill="#C0C0C0" stroke="#C0C0C0" stroke-width="1.00"/>
<path shape-type="chord" d="M 152,604 A 12,21 0 0,0 132,604 z" fill="#C0C0C0" stroke="#000000" stroke-width="1.00"/>
</g>
<polygon shape-type="trapezium" points="88,616 88,603 99,609 99,609 88,616" fill="#808080" stroke="#C0C0C0" stroke-width="1.00"/>
<polygon shape-type="trapezium" points="85,636 85,625 96,630 96,630 85,636" fill="#808080" stroke="#C0C0C0" stroke-width="1.00"/>
<polygon shape-type="trapezium" points="92,650 92,660 81,655 81,655 92,650" fill="#808080" stroke="#C0C0C0" stroke-width="1.00"/>
<text font-family="宋体" text-anchor="start" fill="#FFFFFF" shape-type="text" id="" font-size="10.250000" x="22" y="615">SEAL GAS</text>
<text font-family="宋体" text-anchor="start" fill="#FFFFFF" shape-type="text" id="" font-size="9.500000" x="22" y="641">CW SUPPLY</text>
<text font-family="宋体" text-anchor="start" fill="#FFFFFF" shape-type="text" id="" font-size="9.500000" x="22" y="664">CW RETURN</text>
<text font-family="宋体" text-anchor="start" fill="#FFFFFF" shape-type="text" id="" font-size="11.750000" x="961" y="166">1101.21.BN1</text>
<g shape-type="group">
<polygon shape-type="trapezium" points="1035,552 1035,524 1057,538 1057,538 1035,552" fill="#C0C0C0" stroke-width="1.00"/>
<rect shape-type="rectangle" x="970" y="525" width="69" height="29" fill="#C0C0C0" stroke-width="1.00"/>
</g>
<text font-family="宋体" text-anchor="start" fill="#000000" shape-type="text" id="" font-size="9.500000" font-weight="bold" x="980" y="545">3402A.22.BC</text>
<g shape-type="group">
<polygon shape-type="trapezium" points="1040,591 1040,562 1063,576 1063,576 1040,591" fill="#C0C0C0" stroke-width="1.00"/>
<rect shape-type="rectangle" x="973" y="563" width="70" height="30" fill="#C0C0C0" stroke-width="1.00"/>
</g>
<g shape-type="group">
<polygon shape-type="trapezium" points="1044,646 1044,613 1065,629 1065,629 1044,646" fill="#C0C0C0" stroke-width="1.00"/>
<rect shape-type="rectangle" x="983" y="614" width="64" height="34" fill="#C0C0C0" stroke-width="1.00"/>
</g>
<text font-family="宋体" text-anchor="start" fill="#000000" shape-type="text" id="" font-size="9.500000" font-weight="bold" x="977" y="580">3402B.22.BC</text>
<text font-family="宋体" text-anchor="start" fill="#000000" shape-type="text" id="" font-size="10.250000" font-weight="bold" x="988" y="633">3402.16.BE1</text>
<g shape-type="group">
<polygon shape-type="trapezium" points="76,81 76,49 102,65 102,65 76,81" fill="#C0C0C0" stroke-width="1.00"/>
<rect shape-type="rectangle" x="-2" y="50" width="81" height="33" fill="#C0C0C0" stroke-width="1.00"/>
</g>
<text font-family="宋体" text-anchor="start" fill="#000000" shape-type="text" id="" font-size="9.500000" font-weight="bold" x="4" y="69">2601.01A/B.BA</text>
<text font-family="宋体" text-anchor="start" fill="#FFFFFF" shape-type="text" id="" font-size="11.750000" x="468" y="168">距控制线偏差</text>
<text font-family="Arial" text-anchor="start" fill="#00FFFF" shape-type="realdata" id="HCAB_ZQ_KF_1201_01_T02" font-size="11.000000" x="166" y="209">XXXX</text>
<text font-family="宋体" text-anchor="start" fill="#00FF42" shape-type="text" id="" font-size="11.000000" font-weight="bold" x="222" y="208">℃</text>
<text font-family="宋体" text-anchor="start" fill="#00FF42" shape-type="text" id="" font-size="9.500000" font-weight="bold" x="218" y="149">KPaG</text>
<text font-family="Arial" text-anchor="start" fill="#00FFFF" shape-type="realdata" id="HCAB_ZQ_KF_1201_21_X01" font-size="13.250000" x="461" y="216">XXXX</text>
<text font-family="宋体" text-anchor="start" fill="#00FF00" shape-type="text" id="" font-size="14.000000" x="520" y="218">%</text>
<g shape-type="group">
<g shape-type="group">
<polygon shape-type="trapezium" points="488,277 488,287 495,282 495,282 488,277" fill="#C0C0C0" stroke="#C0C0C0" stroke-width="1.00"/>
<polygon shape-type="trapezium" points="502,277 502,287 495,282 495,282 502,277" fill="#C0C0C0" stroke="#C0C0C0" stroke-width="1.00"/>
</g>
<line shape-type="limitline" x1="495" y1="275" x2="494" y2="282" fill="#C0C0C0" stroke="#C0C0C0" stroke-width="1.00"/>
<path shape-type="chord" d="M 506,274 A 12,20 0 0,0 486,274 z" fill="#C0C0C0" stroke="#000000" stroke-width="1.00"/>
</g>
<text font-family="宋体" text-anchor="start" fill="#FFFFFF" shape-type="text" id="" font-size="13.250000" x="835" y="285">1201.21.Y02</text>
<text font-family="Arial" text-anchor="start" fill="#00FFFF" shape-type="realdata" id="HCAB_ZQ_KF_1201_01_P03_AI" font-size="12.500000" x="286" y="333">XXXX</text>
<text font-family="宋体" text-anchor="start" fill="#00FF42" shape-type="text" id="" font-size="10.250000" font-weight="bold" x="344" y="417">KPaG</text>
<text font-family="Arial" text-anchor="start" fill="#00FFFF" shape-type="realdata" id="HCAB_ZQ_KF_1201_21_Y02_AI" font-size="10.250000" x="936" y="285">XXXX</text>
<text font-family="Arial" text-anchor="start" fill="#00FFFF" shape-type="realdata" id="HCAB_ZQ_KF_1201_21_Y01_AI" font-size="10.250000" x="467" y="304">XXXX</text>
<text font-family="宋体" text-anchor="start" fill="#00FF00" shape-type="text" id="" font-size="9.500000" x="971" y="283">%</text>
<text font-family="宋体" text-anchor="start" fill="#00FF00" shape-type="text" id="" font-size="10.250000" x="514" y="304">%</text>
<text font-family="Arial" text-anchor="start" fill="#00FFFF" shape-type="realdata" id="HCAB_ZQ_KF_1201_10_P02" font-size="11.000000" x="749" y="382">XXXX</text>
<text font-family="宋体" text-anchor="start" fill="#00FF42" shape-type="text" id="" font-size="10.250000" font-weight="bold" x="802" y="382">KPaG</text>
<text font-family="宋体" text-anchor="start" fill="#00FF42" shape-type="text" id="" font-size="10.250000" font-weight="bold" x="826" y="456">℃</text>
<text font-family="Arial" text-anchor="start" fill="#00FFFF" shape-type="realdata" id="HCAB_ZQ_KF_1201_10_T01_AI" font-size="12.500000" x="766" y="455">XXXX</text>
<text font-family="宋体" text-anchor="start" fill="#00FF42" shape-type="text" id="" font-size="11.000000" font-weight="bold" x="854" y="519">℃</text>
<line shape-type="limitline" x1="884" y1="492" x2="873" y2="493" fill="#FFFFFF" stroke="#FFFFFF" stroke-width="3.00" stroke-dasharray="5 10"/>
<g shape-type="group">
<g shape-type="group">
<polygon shape-type="trapezium" points="707,761 707,769 715,765 715,765 707,761" fill="#C0C0C0" stroke="#C0C0C0" stroke-width="1.00"/>
<polygon shape-type="trapezium" points="722,761 722,769 715,765 715,765 722,761" fill="#C0C0C0" stroke="#C0C0C0" stroke-width="1.00"/>
</g>
<line shape-type="limitline" x1="715" y1="757" x2="714" y2="765" fill="#C0C0C0" stroke="#C0C0C0" stroke-width="1.00"/>
<path shape-type="chord" d="M 726,757 A 12,21 0 0,0 706,757 z" fill="#C0C0C0" stroke="#000000" stroke-width="1.00"/>
</g>
<rect shape-type="rectangle" x="760" y="678" width="105" height="54" stroke="#C0C0C0" stroke-width="1.00"/>
<text font-family="宋体" text-anchor="start" fill="#C0C0C0" shape-type="text" id="" font-size="1.250000" x="777" y="700"></text>
<text font-family="宋体" text-anchor="start" fill="#C0C0C0" shape-type="text" id="" font-size="1.250000" x="777" y="700"></text>
<text font-family="宋体" text-anchor="start" fill="#FFFFFF" shape-type="text" id="" font-size="13.250000" x="784" y="700">4001.01.P02</text>
<text font-family="宋体" text-anchor="start" fill="#00FF42" shape-type="text" id="" font-size="12.500000" font-weight="bold" x="835" y="615">Nm3/h</text>
<text font-family="宋体" text-anchor="start" fill="#00FF42" shape-type="text" id="" font-size="11.750000" font-weight="bold" x="631" y="715">Nm3/h</text>
<line shape-type="limitline" x1="886" y1="606" x2="875" y2="607" fill="#FFFFFF" stroke="#FFFFFF" stroke-width="3.00" stroke-dasharray="5 10"/>
<text font-family="Arial" text-anchor="start" fill="#00FFFF" shape-type="realdata" id="HCAB_ZQ_KF_4001_01_P01_AI" font-size="15.500000" x="484" y="716">XXXX</text>
<text font-family="宋体" text-anchor="start" fill="#00FF42" shape-type="text" id="" font-size="11.000000" font-weight="bold" x="538" y="720">KPaG</text>
<text font-family="宋体" text-anchor="start" fill="#00FF42" shape-type="text" id="" font-size="10.250000" font-weight="bold" x="445" y="716">℃</text>
<text font-family="Arial" text-anchor="start" fill="#00FFFF" shape-type="realdata" id="HCAB_ZQ_KF_4001_01_T01_AI" font-size="15.500000" x="390" y="714">XXXX</text>
<text font-family="宋体" text-anchor="start" fill="#FFFFFF" shape-type="text" id="" font-size="11.000000" x="217" y="699">1201.00.F01</text>
<text font-family="宋体" text-anchor="start" fill="#00FF42" shape-type="text" id="" font-size="9.500000" font-weight="bold" x="252" y="719">Nm3/h</text>
<text font-family="Arial" text-anchor="start" fill="#00FFFF" shape-type="realdata" id="HCAB_ZQ_KF_1201_00_F01_AI" font-size="12.500000" x="197" y="723">XXXX</text>
<rect shape-type="rectangle" x="152" y="537" width="104" height="50" stroke="#C0C0C0" stroke-width="1.00"/>
<text font-family="宋体" text-anchor="start" fill="#C0C0C0" shape-type="text" id="" font-size="1.250000" x="174" y="552"></text>
<text font-family="宋体" text-anchor="start" fill="#C0C0C0" shape-type="text" id="" font-size="1.250000" x="174" y="552"></text>
<text font-family="宋体" text-anchor="start" fill="#FFFFFF" shape-type="text" id="" font-size="13.250000" x="183" y="559">1201.70.P10</text>
<line shape-type="limitline" x1="208" y1="606" x2="207" y2="587" fill="#FFFFFF" stroke="#FFFFFF" stroke-width="3.00" stroke-dasharray="5 10"/>
<text font-family="宋体" text-anchor="start" fill="#00FF42" shape-type="text" id="" font-size="10.250000" font-weight="bold" x="227" y="577">KPaG</text>
<text font-family="Arial" text-anchor="start" fill="#00FFFF" shape-type="realdata" id="HCAB_ZQ_KF_1201_70_P10_AI" font-size="13.250000" x="160" y="577">XXXX</text>
<text font-family="宋体" text-anchor="start" fill="#00FF42" shape-type="text" id="" font-size="13.250000" font-weight="bold" x="831" y="722">KPaG</text>
<text font-family="Arial" text-anchor="start" fill="#00FFFF" shape-type="realdata" id="HCAB_ZQ_KF_PIC4001_01_P02" font-size="14.000000" x="768" y="721">XXXX</text>
<text font-family="宋体" text-anchor="start" fill="#00FF42" shape-type="text" id="" font-size="11.000000" font-weight="bold" x="658" y="598">℃</text>
<text font-family="Arial" text-anchor="start" fill="#00FFFF" shape-type="realdata" id="HCAB_ZQ_KF_1201_04_T01" font-size="11.000000" x="606" y="596">XXXX</text>
<text font-family="Arial" text-anchor="start" fill="#00FFFF" shape-type="realdata" id="HCAB_ZQ_KF_1201_02_T01" font-size="12.500000" x="365" y="583">XXXX</text>
<text font-family="Arial" text-anchor="start" fill="#00FFFF" shape-type="realdata" id="HCAB_ZQ_KF_1201_03_T01" font-size="11.000000" x="489" y="585">XXXX</text>
<text font-family="宋体" text-anchor="start" fill="#00FF42" shape-type="text" id="" font-size="10.250000" font-weight="bold" x="541" y="587">℃</text>
<text font-family="宋体" text-anchor="start" fill="#00FF42" shape-type="text" id="" font-size="11.000000" font-weight="bold" x="417" y="583">℃</text>
<path shape-type="chord" d="M 220,457 A 15,13 0 1,0 220,478 z" fill="#C0C0C0" stroke="#C0C0C0" stroke-width="2.00"/>
<line shape-type="limitline" x1="243" y1="468" x2="222" y2="469" fill="#0000A0" stroke="#FFFFFF" stroke-width="3.00"/>
<line shape-type="limitline" x1="185" y1="468" x2="221" y2="469" fill="#FFFFFF" stroke="#FFFFFF" stroke-width="3.00" stroke-dasharray="5 10"/>
<text font-family="宋体" text-anchor="start" fill="#C0C0C0" shape-type="text" id="" font-size="2.000000" x="46" y="479"></text>
<text font-family="宋体" text-anchor="start" fill="#C0C0C0" shape-type="text" id="" font-size="2.000000" x="46" y="479"></text>
<text font-family="宋体" text-anchor="start" fill="#FFFFFF" shape-type="text" id="" font-size="12.500000" x="49" y="480">1202.81.I10</text>
<text font-family="宋体" text-anchor="start" fill="#00FF42" shape-type="text" id="" font-size="12.500000" font-weight="bold" x="102" y="500">A</text>
<text font-family="Arial" text-anchor="start" fill="#00FFFF" shape-type="realdata" id="HCAB_ZQ_KF_9396_40_A01_AI" font-size="14.000000" x="783" y="516">XXXX</text>
<text font-family="Arial" text-anchor="start" fill="#00FFFF" shape-type="realdata" id="HCAB_ZQ_KF_1201_21_Y01_AI.DACA.PV" font-size="10.250000" x="169" y="447">XXXX</text>
<text font-family="宋体" text-anchor="start" fill="#00FF00" shape-type="text" id="" font-size="10.250000" x="232" y="447">%</text>
</svg>
