<svg xmlns="http://www.w3.org/2000/svg" xmlns:xlink="http://www.w3.org/1999/xlink" version="1.1" style="background-color:#7DB6C1" width="1062" height="669" viewbox="0 0 1062 669"><defs>
<linearGradient x1="50.000000%" y1="0.000000%" x2="50.000000%" y2="100.000000%" id="lgradient1">
<stop offset="0" stop-color="#2C2C2C" stop-opacity="1"/>
<stop offset="0.5" stop-color="#FFFFFF" stop-opacity="1"/>
<stop offset="1" stop-color="#2C2C2C" stop-opacity="1"/>
</linearGradient>
<linearGradient x1="50.000000%" y1="0.000000%" x2="50.000000%" y2="100.000000%" id="lgradient2">
<stop offset="0" stop-color="#2C2C2C" stop-opacity="1"/>
<stop offset="0.5" stop-color="#FFFFFF" stop-opacity="1"/>
<stop offset="1" stop-color="#2C2C2C" stop-opacity="1"/>
</linearGradient>
<linearGradient x1="50.000000%" y1="0.000000%" x2="50.000000%" y2="100.000000%" id="lgradient62">
<stop offset="0" stop-color="#2C2C2C" stop-opacity="1"/>
<stop offset="0.5" stop-color="#FFFFFF" stop-opacity="1"/>
<stop offset="1" stop-color="#2C2C2C" stop-opacity="1"/>
</linearGradient>
<linearGradient x1="50.000000%" y1="0.000000%" x2="50.000000%" y2="100.000000%" id="lgradient63">
<stop offset="0" stop-color="#2C2C2C" stop-opacity="1"/>
<stop offset="0.5" stop-color="#FFFFFF" stop-opacity="1"/>
<stop offset="1" stop-color="#2C2C2C" stop-opacity="1"/>
</linearGradient>
<linearGradient x1="50.000000%" y1="0.000000%" x2="50.000000%" y2="100.000000%" id="lgradient122">
<stop offset="0" stop-color="#2C2C2C" stop-opacity="1"/>
<stop offset="0.5" stop-color="#FFFFFF" stop-opacity="1"/>
<stop offset="1" stop-color="#2C2C2C" stop-opacity="1"/>
</linearGradient>
<linearGradient x1="50.000000%" y1="0.000000%" x2="50.000000%" y2="100.000000%" id="lgradient123">
<stop offset="0" stop-color="#2C2C2C" stop-opacity="1"/>
<stop offset="0.5" stop-color="#FFFFFF" stop-opacity="1"/>
<stop offset="1" stop-color="#2C2C2C" stop-opacity="1"/>
</linearGradient>
<linearGradient x1="50.000000%" y1="0.000000%" x2="50.000000%" y2="100.000000%" id="lgradient180">
<stop offset="0" stop-color="#2C2C2C" stop-opacity="1"/>
<stop offset="0.5" stop-color="#FFFFFF" stop-opacity="1"/>
<stop offset="1" stop-color="#2C2C2C" stop-opacity="1"/>
</linearGradient>
<linearGradient x1="50.000000%" y1="0.000000%" x2="50.000000%" y2="100.000000%" id="lgradient181">
<stop offset="0" stop-color="#2C2C2C" stop-opacity="1"/>
<stop offset="0.5" stop-color="#FFFFFF" stop-opacity="1"/>
<stop offset="1" stop-color="#2C2C2C" stop-opacity="1"/>
</linearGradient>
</defs>
<rect shape-type="roundRectangle" rx="20" ry="20" x="160" y="99" width="97" height="33" fill="url(#lgradient1)" stroke="#000000" stroke-width="1.00"/>
<rect shape-type="rectangle" x="322" y="101" width="70" height="30" fill="url(#lgradient2)" stroke="#000000" stroke-width="1.00"/>
<g shape-type="group">
<polygon shape-type="trapezium" points="331,226 300,226 316,208 316,208 331,226" fill="#C0C0C0" stroke="#000000" stroke-width="1.00"/>
<ellipse shape-type="ellipse" cx="316" cy="210" rx="13" ry="12" fill="#C0C0C0" stroke="#000000" stroke-width="1.00"/>
<ellipse shape-type="ellipse" cx="316" cy="209" rx="7" ry="8" fill="#FF0000" stroke="#000000" stroke-width="1.00"/>
</g>
<g shape-type="group">
<polygon shape-type="trapezium" points="331,279 300,279 316,261 316,261 331,279" fill="#C0C0C0" stroke="#000000" stroke-width="1.00"/>
<ellipse shape-type="ellipse" cx="316" cy="263" rx="13" ry="12" fill="#C0C0C0" stroke="#000000" stroke-width="1.00"/>
<ellipse shape-type="ellipse" cx="316" cy="262" rx="7" ry="8" fill="#00FF00" stroke="#000000" stroke-width="1.00"/>
</g>
<rect shape-type="rectangle" x="434" y="223" width="110" height="61" stroke="#FFFFFF" stroke-width="1.00"/>
<line shape-type="limitline" x1="129" y1="115" x2="161" y2="115" fill="#FFFFFF" stroke="#FFFFFF" stroke-width="1.00"/>
<line shape-type="limitline" x1="128" y1="115" x2="128" y2="251" fill="#FFFFFF" stroke="#FFFFFF" stroke-width="1.00"/>
<line shape-type="limitline" x1="305" y1="253" x2="128" y2="253" fill="#FFFFFF" stroke="#FFFFFF" stroke-width="1.00"/>
<line shape-type="limitline" x1="304" y1="203" x2="129" y2="203" fill="#FFFFFF" stroke="#FFFFFF" stroke-width="1.00"/>
<line shape-type="limitline" x1="434" y1="264" x2="327" y2="264" fill="#FFFFFF" stroke="#FFFFFF" stroke-width="1.00"/>
<line shape-type="limitline" x1="381" y1="211" x2="327" y2="211" fill="#FFFFFF" stroke="#FFFFFF" stroke-width="1.00"/>
<line shape-type="limitline" x1="381" y1="263" x2="381" y2="211" fill="#FFFFFF" stroke="#FFFFFF" stroke-width="1.00"/>
<line shape-type="limitline" x1="323" y1="114" x2="254" y2="114" fill="#FFFFFF" stroke="#FFFFFF" stroke-width="1.00"/>
<line shape-type="limitline" x1="654" y1="114" x2="390" y2="114" fill="#FFFFFF" stroke="#FFFFFF" stroke-width="1.00"/>
<line shape-type="limitline" x1="655" y1="184" x2="655" y2="114" fill="#FFFFFF" stroke="#FFFFFF" stroke-width="1.00"/>
<line shape-type="limitline" x1="490" y1="184" x2="655" y2="184" fill="#FFFFFF" stroke="#FFFFFF" stroke-width="1.00"/>
<line shape-type="limitline" x1="489" y1="224" x2="489" y2="184" fill="#FFFFFF" stroke="#FFFFFF" stroke-width="1.00"/>
<polygon shape-type="trapezium" points="151,110 151,119 161,115 161,115 151,110" fill="#FFFFFF" stroke="#FFFFFF" stroke-width="1.00"/>
<polygon shape-type="trapezium" points="313,109 313,118 323,114 323,114 313,109" fill="#FFFFFF" stroke="#FFFFFF" stroke-width="1.00"/>
<polygon shape-type="trapezium" points="484,212 492,212 488,223 488,223 484,212" fill="#FFFFFF" stroke="#FFFFFF" stroke-width="1.00"/>
<polygon shape-type="trapezium" points="337,268 337,260 327,264 327,264 337,268" fill="#FFFFFF" stroke="#FFFFFF" stroke-width="1.00"/>
<polygon shape-type="trapezium" points="337,215 337,207 327,211 327,211 337,215" fill="#FFFFFF" stroke="#FFFFFF" stroke-width="1.00"/>
<ellipse shape-type="ellipse" cx="354" cy="90" rx="8" ry="8" fill="#00FF00" stroke="#FFFFFF" stroke-width="1.00"/>
<ellipse shape-type="ellipse" cx="492" cy="95" rx="8" ry="8" fill="#00FF00" stroke="#FFFFFF" stroke-width="1.00"/>
<ellipse shape-type="ellipse" cx="557" cy="95" rx="8" ry="8" fill="#00FF00" stroke="#FFFFFF" stroke-width="1.00"/>
<ellipse shape-type="ellipse" cx="630" cy="95" rx="8" ry="8" fill="#00FF00" stroke="#FFFFFF" stroke-width="1.00"/>
<ellipse shape-type="ellipse" cx="576" cy="148" rx="8" ry="8" fill="#00FF00" stroke="#FFFFFF" stroke-width="1.00"/>
<rect shape-type="rectangle" x="586" y="206" width="46" height="19" fill="#00FF00" stroke="#FFFFFF" stroke-width="1.00"/>
<rect shape-type="rectangle" x="287" y="328" width="46" height="18" fill="#FF0000" stroke="#FFFFFF" stroke-width="1.00"/>
<rect shape-type="rectangle" x="590" y="322" width="46" height="19" fill="#FF0000" stroke="#FFFFFF" stroke-width="1.00"/>
<text font-family="宋体" text-anchor="start" fill="#FFFFFF" shape-type="text" id="" font-size="18.500000" x="358" y="173">新氢压缩机</text>
<text font-family="宋体" text-anchor="start" fill="#FFFFFF" shape-type="text" id="" font-size="18.500000" x="370" y="200">K-2101A</text>
<text font-family="宋体" text-anchor="start" fill="#FFFFFF" shape-type="text" id="" font-size="12.500000" x="325" y="76">PDS_2305A</text>
<text font-family="宋体" text-anchor="start" fill="#FFFFFF" shape-type="text" id="" font-size="12.500000" x="454" y="76">PS_2302A</text>
<text font-family="宋体" text-anchor="start" fill="#FFFFFF" shape-type="text" id="" font-size="12.500000" x="530" y="75">PS_2303A</text>
<text font-family="宋体" text-anchor="start" fill="#FFFFFF" shape-type="text" id="" font-size="12.500000" x="603" y="75">PS_2304A</text>
<text font-family="宋体" text-anchor="start" fill="#FFFFFF" shape-type="text" id="" font-size="12.500000" x="543" y="132">PS_2301A</text>
<text font-family="宋体" text-anchor="start" fill="#FFFFFF" shape-type="text" id="" font-size="12.500000" x="402" y="92">TI_2310A</text>
<text font-family="宋体" text-anchor="start" fill="#FFFFFF" shape-type="text" id="" font-size="12.500000" x="403" y="133">PI_2307A</text>
<text font-family="宋体" text-anchor="start" fill="#FFFFFF" shape-type="text" id="" font-size="12.500000" x="230" y="220">主油泵A</text>
<text font-family="宋体" text-anchor="start" fill="#FFFFFF" shape-type="text" id="" font-size="12.500000" x="217" y="274">副助油泵A</text>
<text font-family="宋体" text-anchor="start" fill="#FFFFFF" shape-type="text" id="" font-size="12.500000" x="560" y="257">盘车状态：</text>
<ellipse shape-type="ellipse" cx="644" cy="254" rx="8" ry="8" fill="#FF0000" stroke="#FFFFFF" stroke-width="1.00"/>
<text font-family="宋体" text-anchor="start" fill="#FFFFFF" shape-type="text" id="" font-size="12.500000" x="467" y="247">油箱</text>
<text font-family="宋体" text-anchor="start" fill="#FFFFFF" shape-type="text" id="" font-size="12.500000" x="646" y="207">红：禁止盘车</text>
<text font-family="宋体" text-anchor="start" fill="#FFFFFF" shape-type="text" id="" font-size="12.500000" x="646" y="228">绿：允许盘车</text>
<text font-family="宋体" text-anchor="start" fill="#FFFFFF" shape-type="text" id="" font-size="12.500000" x="665" y="258">红：停盘车</text>
<text font-family="宋体" text-anchor="start" fill="#FFFFFF" shape-type="text" id="" font-size="12.500000" x="667" y="282">绿：盘车</text>
<text font-family="宋体" text-anchor="start" fill="#FFFFFF" shape-type="text" id="" font-size="12.500000" x="-13" y="680">新氢辅助油泵A自启：PT_2307A&lt;0.35MPa</text>
<text font-family="宋体" text-anchor="start" fill="#FFFFFF" shape-type="text" id="" font-size="12.500000" x="350" y="323">红：联锁投入</text>
<text font-family="宋体" text-anchor="start" fill="#FFFFFF" shape-type="text" id="" font-size="12.500000" x="347" y="349">绿：辅助油泵启动</text>
<text font-family="宋体" text-anchor="start" fill="#FFFFFF" shape-type="text" id="" font-size="12.500000" x="457" y="333">新氢加热器A&lt;27℃ </text>
<text font-family="宋体" text-anchor="start" fill="#FFFFFF" shape-type="text" id="" font-size="12.500000" x="650" y="326">红：联锁投入</text>
<text font-family="宋体" text-anchor="start" fill="#FFFFFF" shape-type="text" id="" font-size="12.500000" x="649" y="349">绿：加热器运行</text>
<text font-family="宋体" text-anchor="start" fill="#000000" shape-type="text" id="" font-size="12.500000" x="180" y="120">油冷却器</text>
<text font-family="宋体" text-anchor="start" fill="#000000" shape-type="text" id="" font-size="12.500000" x="323" y="121">油过滤器</text>
<text font-family="宋体" text-anchor="start" fill="#000000" shape-type="text" id="" font-size="12.500000" x="290" y="343">联锁</text>
<text font-family="宋体" text-anchor="start" fill="#000000" shape-type="text" id="" font-size="12.500000" x="593" y="337">联锁</text>
<text font-family="宋体" text-anchor="start" fill="#000000" shape-type="text" id="" font-size="12.500000" x="589" y="221">允许</text>
<text font-family="宋体" text-anchor="start" fill="#FFFFFF" shape-type="text" id="" font-size="12.500000" x="498" y="32">（三取二）</text>
<text font-family="宋体" text-anchor="start" fill="#FFFFFF" shape-type="text" id="" font-size="12.500000" x="474" y="51">油压低低联锁停车</text>
<rect shape-type="roundRectangle" rx="20" ry="20" x="912" y="99" width="97" height="33" fill="url(#lgradient62)" stroke="#000000" stroke-width="1.00"/>
<rect shape-type="rectangle" x="1074" y="101" width="70" height="30" fill="url(#lgradient63)" stroke="#000000" stroke-width="1.00"/>
<g shape-type="group">
<polygon shape-type="trapezium" points="1083,226 1052,226 1068,208 1068,208 1083,226" fill="#C0C0C0" stroke="#000000" stroke-width="1.00"/>
<ellipse shape-type="ellipse" cx="1067" cy="210" rx="13" ry="12" fill="#C0C0C0" stroke="#000000" stroke-width="1.00"/>
<ellipse shape-type="ellipse" cx="1067" cy="209" rx="7" ry="8" fill="#FF0000" stroke="#000000" stroke-width="1.00"/>
</g>
<g shape-type="group">
<polygon shape-type="trapezium" points="1083,279 1052,279 1068,261 1068,261 1083,279" fill="#C0C0C0" stroke="#000000" stroke-width="1.00"/>
<ellipse shape-type="ellipse" cx="1067" cy="263" rx="13" ry="12" fill="#C0C0C0" stroke="#000000" stroke-width="1.00"/>
<ellipse shape-type="ellipse" cx="1067" cy="262" rx="7" ry="8" fill="#00FF00" stroke="#000000" stroke-width="1.00"/>
</g>
<rect shape-type="rectangle" x="1186" y="223" width="110" height="61" stroke="#FFFFFF" stroke-width="1.00"/>
<line shape-type="limitline" x1="881" y1="115" x2="913" y2="115" fill="#FFFFFF" stroke="#FFFFFF" stroke-width="1.00"/>
<line shape-type="limitline" x1="880" y1="115" x2="880" y2="251" fill="#FFFFFF" stroke="#FFFFFF" stroke-width="1.00"/>
<line shape-type="limitline" x1="1057" y1="253" x2="880" y2="253" fill="#FFFFFF" stroke="#FFFFFF" stroke-width="1.00"/>
<line shape-type="limitline" x1="1056" y1="203" x2="881" y2="203" fill="#FFFFFF" stroke="#FFFFFF" stroke-width="1.00"/>
<line shape-type="limitline" x1="1186" y1="264" x2="1079" y2="264" fill="#FFFFFF" stroke="#FFFFFF" stroke-width="1.00"/>
<line shape-type="limitline" x1="1133" y1="211" x2="1079" y2="211" fill="#FFFFFF" stroke="#FFFFFF" stroke-width="1.00"/>
<line shape-type="limitline" x1="1133" y1="263" x2="1133" y2="211" fill="#FFFFFF" stroke="#FFFFFF" stroke-width="1.00"/>
<line shape-type="limitline" x1="1075" y1="114" x2="1006" y2="114" fill="#FFFFFF" stroke="#FFFFFF" stroke-width="1.00"/>
<line shape-type="limitline" x1="1406" y1="114" x2="1142" y2="114" fill="#FFFFFF" stroke="#FFFFFF" stroke-width="1.00"/>
<line shape-type="limitline" x1="1407" y1="184" x2="1407" y2="114" fill="#FFFFFF" stroke="#FFFFFF" stroke-width="1.00"/>
<line shape-type="limitline" x1="1242" y1="184" x2="1407" y2="184" fill="#FFFFFF" stroke="#FFFFFF" stroke-width="1.00"/>
<line shape-type="limitline" x1="1241" y1="224" x2="1241" y2="184" fill="#FFFFFF" stroke="#FFFFFF" stroke-width="1.00"/>
<polygon shape-type="trapezium" points="903,110 903,119 913,115 913,115 903,110" fill="#FFFFFF" stroke="#FFFFFF" stroke-width="1.00"/>
<polygon shape-type="trapezium" points="1065,109 1065,118 1075,114 1075,114 1065,109" fill="#FFFFFF" stroke="#FFFFFF" stroke-width="1.00"/>
<polygon shape-type="trapezium" points="1236,212 1244,212 1240,223 1240,223 1236,212" fill="#FFFFFF" stroke="#FFFFFF" stroke-width="1.00"/>
<polygon shape-type="trapezium" points="1089,268 1089,260 1079,264 1079,264 1089,268" fill="#FFFFFF" stroke="#FFFFFF" stroke-width="1.00"/>
<polygon shape-type="trapezium" points="1089,215 1089,207 1079,211 1079,211 1089,215" fill="#FFFFFF" stroke="#FFFFFF" stroke-width="1.00"/>
<ellipse shape-type="ellipse" cx="1106" cy="90" rx="8" ry="8" fill="#00FF00" stroke="#FFFFFF" stroke-width="1.00"/>
<ellipse shape-type="ellipse" cx="1244" cy="95" rx="8" ry="8" fill="#00FF00" stroke="#FFFFFF" stroke-width="1.00"/>
<ellipse shape-type="ellipse" cx="1309" cy="95" rx="8" ry="8" fill="#00FF00" stroke="#FFFFFF" stroke-width="1.00"/>
<ellipse shape-type="ellipse" cx="1382" cy="95" rx="8" ry="8" fill="#00FF00" stroke="#FFFFFF" stroke-width="1.00"/>
<ellipse shape-type="ellipse" cx="1328" cy="148" rx="8" ry="8" fill="#00FF00" stroke="#FFFFFF" stroke-width="1.00"/>
<rect shape-type="rectangle" x="1338" y="206" width="46" height="19" fill="#00FF00" stroke="#FFFFFF" stroke-width="1.00"/>
<rect shape-type="rectangle" x="1039" y="328" width="46" height="18" fill="#FF0000" stroke="#FFFFFF" stroke-width="1.00"/>
<rect shape-type="rectangle" x="1342" y="322" width="46" height="19" fill="#FF0000" stroke="#FFFFFF" stroke-width="1.00"/>
<text font-family="宋体" text-anchor="start" fill="#FFFFFF" shape-type="text" id="" font-size="18.500000" x="1110" y="173">新氢压缩机</text>
<text font-family="宋体" text-anchor="start" fill="#FFFFFF" shape-type="text" id="" font-size="18.500000" x="1122" y="200">K-2102A</text>
<text font-family="宋体" text-anchor="start" fill="#FFFFFF" shape-type="text" id="" font-size="12.500000" x="1077" y="76">PDS_2405A</text>
<text font-family="宋体" text-anchor="start" fill="#FFFFFF" shape-type="text" id="" font-size="12.500000" x="1206" y="76">PS_2402A</text>
<text font-family="宋体" text-anchor="start" fill="#FFFFFF" shape-type="text" id="" font-size="12.500000" x="1282" y="75">PS_2403A</text>
<text font-family="宋体" text-anchor="start" fill="#FFFFFF" shape-type="text" id="" font-size="12.500000" x="1355" y="75">PS_2404A</text>
<text font-family="宋体" text-anchor="start" fill="#FFFFFF" shape-type="text" id="" font-size="12.500000" x="1295" y="132">PS_2401A</text>
<text font-family="宋体" text-anchor="start" fill="#FFFFFF" shape-type="text" id="" font-size="12.500000" x="1154" y="92">TI_2413A</text>
<text font-family="宋体" text-anchor="start" fill="#FFFFFF" shape-type="text" id="" font-size="12.500000" x="1155" y="133">PI_2404A</text>
<text font-family="宋体" text-anchor="start" fill="#FFFFFF" shape-type="text" id="" font-size="12.500000" x="982" y="220">主油泵A</text>
<text font-family="宋体" text-anchor="start" fill="#FFFFFF" shape-type="text" id="" font-size="12.500000" x="969" y="274">副助油泵A</text>
<text font-family="宋体" text-anchor="start" fill="#FFFFFF" shape-type="text" id="" font-size="12.500000" x="1312" y="257">盘车状态：</text>
<ellipse shape-type="ellipse" cx="1396" cy="254" rx="8" ry="8" fill="#FF0000" stroke="#FFFFFF" stroke-width="1.00"/>
<text font-family="宋体" text-anchor="start" fill="#FFFFFF" shape-type="text" id="" font-size="12.500000" x="1219" y="243">油箱</text>
<text font-family="宋体" text-anchor="start" fill="#FFFFFF" shape-type="text" id="" font-size="12.500000" x="1398" y="207">红：禁止盘车</text>
<text font-family="宋体" text-anchor="start" fill="#FFFFFF" shape-type="text" id="" font-size="12.500000" x="1398" y="228">绿：允许盘车</text>
<text font-family="宋体" text-anchor="start" fill="#FFFFFF" shape-type="text" id="" font-size="12.500000" x="1417" y="258">红：停盘车</text>
<text font-family="宋体" text-anchor="start" fill="#FFFFFF" shape-type="text" id="" font-size="12.500000" x="1419" y="282">绿：盘车</text>
<text font-family="宋体" text-anchor="start" fill="#FFFFFF" shape-type="text" id="" font-size="12.500000" x="1102" y="323">红：联锁投入</text>
<text font-family="宋体" text-anchor="start" fill="#FFFFFF" shape-type="text" id="" font-size="12.500000" x="1099" y="349">绿：辅助油泵启动</text>
<text font-family="宋体" text-anchor="start" fill="#FFFFFF" shape-type="text" id="" font-size="12.500000" x="1209" y="333">新氢加热器A&lt;27℃ </text>
<text font-family="宋体" text-anchor="start" fill="#FFFFFF" shape-type="text" id="" font-size="12.500000" x="1402" y="326">红：联锁投入</text>
<text font-family="宋体" text-anchor="start" fill="#FFFFFF" shape-type="text" id="" font-size="12.500000" x="1401" y="349">绿：加热器运行</text>
<text font-family="宋体" text-anchor="start" fill="#000000" shape-type="text" id="" font-size="12.500000" x="932" y="120">油冷却器</text>
<text font-family="宋体" text-anchor="start" fill="#000000" shape-type="text" id="" font-size="12.500000" x="1075" y="121">油过滤器</text>
<text font-family="宋体" text-anchor="start" fill="#000000" shape-type="text" id="" font-size="12.500000" x="1042" y="343">联锁</text>
<text font-family="宋体" text-anchor="start" fill="#000000" shape-type="text" id="" font-size="12.500000" x="1345" y="337">联锁</text>
<text font-family="宋体" text-anchor="start" fill="#000000" shape-type="text" id="" font-size="12.500000" x="1341" y="221">允许</text>
<text font-family="宋体" text-anchor="start" fill="#FFFFFF" shape-type="text" id="" font-size="12.500000" x="1250" y="32">（三取二）</text>
<text font-family="宋体" text-anchor="start" fill="#FFFFFF" shape-type="text" id="" font-size="12.500000" x="1226" y="51">油压低低联锁停车</text>
<rect shape-type="roundRectangle" rx="20" ry="20" x="128" y="438" width="97" height="33" fill="url(#lgradient122)" stroke="#000000" stroke-width="1.00"/>
<rect shape-type="rectangle" x="290" y="440" width="70" height="30" fill="url(#lgradient123)" stroke="#000000" stroke-width="1.00"/>
<g shape-type="group">
<polygon shape-type="trapezium" points="299,565 268,565 284,547 284,547 299,565" fill="#C0C0C0" stroke="#000000" stroke-width="1.00"/>
<ellipse shape-type="ellipse" cx="284" cy="548" rx="13" ry="12" fill="#C0C0C0" stroke="#000000" stroke-width="1.00"/>
<ellipse shape-type="ellipse" cx="284" cy="547" rx="7" ry="7" fill="#FF0000" stroke="#000000" stroke-width="1.00"/>
</g>
<rect shape-type="rectangle" x="402" y="562" width="110" height="61" stroke="#FFFFFF" stroke-width="1.00"/>
<line shape-type="limitline" x1="97" y1="454" x2="129" y2="454" fill="#FFFFFF" stroke="#FFFFFF" stroke-width="1.00"/>
<line shape-type="limitline" x1="96" y1="454" x2="96" y2="590" fill="#FFFFFF" stroke="#FFFFFF" stroke-width="1.00"/>
<line shape-type="limitline" x1="273" y1="592" x2="96" y2="592" fill="#FFFFFF" stroke="#FFFFFF" stroke-width="1.00"/>
<line shape-type="limitline" x1="272" y1="542" x2="97" y2="542" fill="#FFFFFF" stroke="#FFFFFF" stroke-width="1.00"/>
<line shape-type="limitline" x1="402" y1="603" x2="295" y2="603" fill="#FFFFFF" stroke="#FFFFFF" stroke-width="1.00"/>
<line shape-type="limitline" x1="349" y1="550" x2="295" y2="550" fill="#FFFFFF" stroke="#FFFFFF" stroke-width="1.00"/>
<line shape-type="limitline" x1="349" y1="602" x2="349" y2="550" fill="#FFFFFF" stroke="#FFFFFF" stroke-width="1.00"/>
<line shape-type="limitline" x1="291" y1="453" x2="222" y2="453" fill="#FFFFFF" stroke="#FFFFFF" stroke-width="1.00"/>
<line shape-type="limitline" x1="622" y1="453" x2="358" y2="453" fill="#FFFFFF" stroke="#FFFFFF" stroke-width="1.00"/>
<line shape-type="limitline" x1="623" y1="523" x2="623" y2="453" fill="#FFFFFF" stroke="#FFFFFF" stroke-width="1.00"/>
<line shape-type="limitline" x1="458" y1="523" x2="623" y2="523" fill="#FFFFFF" stroke="#FFFFFF" stroke-width="1.00"/>
<line shape-type="limitline" x1="457" y1="563" x2="457" y2="523" fill="#FFFFFF" stroke="#FFFFFF" stroke-width="1.00"/>
<polygon shape-type="trapezium" points="119,449 119,458 129,454 129,454 119,449" fill="#FFFFFF" stroke="#FFFFFF" stroke-width="1.00"/>
<polygon shape-type="trapezium" points="281,448 281,457 291,453 291,453 281,448" fill="#FFFFFF" stroke="#FFFFFF" stroke-width="1.00"/>
<polygon shape-type="trapezium" points="452,551 460,551 456,562 456,562 452,551" fill="#FFFFFF" stroke="#FFFFFF" stroke-width="1.00"/>
<polygon shape-type="trapezium" points="305,607 305,599 295,603 295,603 305,607" fill="#FFFFFF" stroke="#FFFFFF" stroke-width="1.00"/>
<polygon shape-type="trapezium" points="305,554 305,546 295,550 295,550 305,554" fill="#FFFFFF" stroke="#FFFFFF" stroke-width="1.00"/>
<ellipse shape-type="ellipse" cx="322" cy="428" rx="8" ry="8" fill="#00FF00" stroke="#FFFFFF" stroke-width="1.00"/>
<ellipse shape-type="ellipse" cx="460" cy="433" rx="8" ry="8" fill="#FF0000" stroke="#FFFFFF" stroke-width="1.00"/>
<ellipse shape-type="ellipse" cx="525" cy="433" rx="8" ry="8" fill="#FF0000" stroke="#FFFFFF" stroke-width="1.00"/>
<ellipse shape-type="ellipse" cx="598" cy="433" rx="8" ry="8" fill="#FF0000" stroke="#FFFFFF" stroke-width="1.00"/>
<ellipse shape-type="ellipse" cx="544" cy="486" rx="8" ry="8" fill="#FF0000" stroke="#FFFFFF" stroke-width="1.00"/>
<rect shape-type="rectangle" x="554" y="545" width="46" height="19" fill="#00FF00" stroke="#FFFFFF" stroke-width="1.00"/>
<rect shape-type="rectangle" x="255" y="667" width="46" height="18" fill="#FF0000" stroke="#FFFFFF" stroke-width="1.00"/>
<rect shape-type="rectangle" x="558" y="661" width="46" height="19" fill="#FF0000" stroke="#FFFFFF" stroke-width="1.00"/>
<text font-family="宋体" text-anchor="start" fill="#FFFFFF" shape-type="text" id="" font-size="18.500000" x="326" y="512">新氢压缩机</text>
<text font-family="宋体" text-anchor="start" fill="#FFFFFF" shape-type="text" id="" font-size="18.500000" x="338" y="539">K-2101B</text>
<text font-family="宋体" text-anchor="start" fill="#FFFFFF" shape-type="text" id="" font-size="12.500000" x="289" y="417">PDS_2305B</text>
<text font-family="宋体" text-anchor="start" fill="#FFFFFF" shape-type="text" id="" font-size="12.500000" x="422" y="415">PS_2302B</text>
<text font-family="宋体" text-anchor="start" fill="#FFFFFF" shape-type="text" id="" font-size="12.500000" x="498" y="414">PS_2303B</text>
<text font-family="宋体" text-anchor="start" fill="#FFFFFF" shape-type="text" id="" font-size="12.500000" x="571" y="414">PS_2304B</text>
<text font-family="宋体" text-anchor="start" fill="#FFFFFF" shape-type="text" id="" font-size="12.500000" x="511" y="471">PS_2301B</text>
<text font-family="宋体" text-anchor="start" fill="#FFFFFF" shape-type="text" id="" font-size="12.500000" x="370" y="431">TI_2310B</text>
<text font-family="宋体" text-anchor="start" fill="#FFFFFF" shape-type="text" id="" font-size="12.500000" x="198" y="559">主油泵A</text>
<text font-family="宋体" text-anchor="start" fill="#FFFFFF" shape-type="text" id="" font-size="12.500000" x="185" y="613">副助油泵A</text>
<text font-family="宋体" text-anchor="start" fill="#FFFFFF" shape-type="text" id="" font-size="12.500000" x="528" y="596">盘车状态：</text>
<ellipse shape-type="ellipse" cx="612" cy="592" rx="8" ry="8" fill="#FF0000" stroke="#FFFFFF" stroke-width="1.00"/>
<text font-family="宋体" text-anchor="start" fill="#FFFFFF" shape-type="text" id="" font-size="12.500000" x="435" y="586">油箱</text>
<text font-family="宋体" text-anchor="start" fill="#FFFFFF" shape-type="text" id="" font-size="12.500000" x="614" y="546">红：禁止盘车</text>
<text font-family="宋体" text-anchor="start" fill="#FFFFFF" shape-type="text" id="" font-size="12.500000" x="614" y="567">绿：允许盘车</text>
<text font-family="宋体" text-anchor="start" fill="#FFFFFF" shape-type="text" id="" font-size="12.500000" x="633" y="597">红：停盘车</text>
<text font-family="宋体" text-anchor="start" fill="#FFFFFF" shape-type="text" id="" font-size="12.500000" x="635" y="621">绿：盘车</text>
<text font-family="宋体" text-anchor="start" fill="#FFFFFF" shape-type="text" id="" font-size="12.500000" x="318" y="662">红：联锁投入</text>
<text font-family="宋体" text-anchor="start" fill="#FFFFFF" shape-type="text" id="" font-size="12.500000" x="315" y="688">绿：辅助油泵启动</text>
<text font-family="宋体" text-anchor="start" fill="#FFFFFF" shape-type="text" id="" font-size="12.500000" x="425" y="672">新氢加热器A&lt;27℃ </text>
<text font-family="宋体" text-anchor="start" fill="#FFFFFF" shape-type="text" id="" font-size="12.500000" x="618" y="665">红：联锁投入</text>
<text font-family="宋体" text-anchor="start" fill="#FFFFFF" shape-type="text" id="" font-size="12.500000" x="617" y="688">绿：加热器运行</text>
<text font-family="宋体" text-anchor="start" fill="#000000" shape-type="text" id="" font-size="12.500000" x="148" y="459">油冷却器</text>
<text font-family="宋体" text-anchor="start" fill="#000000" shape-type="text" id="" font-size="12.500000" x="291" y="460">油过滤器</text>
<text font-family="宋体" text-anchor="start" fill="#000000" shape-type="text" id="" font-size="12.500000" x="258" y="682">联锁</text>
<text font-family="宋体" text-anchor="start" fill="#000000" shape-type="text" id="" font-size="12.500000" x="561" y="676">联锁</text>
<text font-family="宋体" text-anchor="start" fill="#000000" shape-type="text" id="" font-size="12.500000" x="557" y="560">允许</text>
<text font-family="宋体" text-anchor="start" fill="#FFFFFF" shape-type="text" id="" font-size="12.500000" x="466" y="371">（三取二）</text>
<text font-family="宋体" text-anchor="start" fill="#FFFFFF" shape-type="text" id="" font-size="12.500000" x="442" y="390">油压低低联锁停车</text>
<rect shape-type="roundRectangle" rx="20" ry="20" x="911" y="430" width="97" height="33" fill="url(#lgradient180)" stroke="#000000" stroke-width="1.00"/>
<rect shape-type="rectangle" x="1073" y="432" width="70" height="30" fill="url(#lgradient181)" stroke="#000000" stroke-width="1.00"/>
<g shape-type="group">
<polygon shape-type="trapezium" points="1082,557 1051,557 1067,540 1067,540 1082,557" fill="#C0C0C0" stroke="#000000" stroke-width="1.00"/>
<ellipse shape-type="ellipse" cx="1066" cy="540" rx="13" ry="12" fill="#C0C0C0" stroke="#000000" stroke-width="1.00"/>
<ellipse shape-type="ellipse" cx="1066" cy="540" rx="7" ry="8" fill="#FF0000" stroke="#000000" stroke-width="1.00"/>
</g>
<rect shape-type="rectangle" x="1185" y="554" width="110" height="61" stroke="#FFFFFF" stroke-width="1.00"/>
<line shape-type="limitline" x1="880" y1="446" x2="912" y2="446" fill="#FFFFFF" stroke="#FFFFFF" stroke-width="1.00"/>
<line shape-type="limitline" x1="879" y1="446" x2="879" y2="582" fill="#FFFFFF" stroke="#FFFFFF" stroke-width="1.00"/>
<line shape-type="limitline" x1="1056" y1="584" x2="879" y2="584" fill="#FFFFFF" stroke="#FFFFFF" stroke-width="1.00"/>
<line shape-type="limitline" x1="1055" y1="534" x2="880" y2="534" fill="#FFFFFF" stroke="#FFFFFF" stroke-width="1.00"/>
<line shape-type="limitline" x1="1185" y1="595" x2="1078" y2="595" fill="#FFFFFF" stroke="#FFFFFF" stroke-width="1.00"/>
<line shape-type="limitline" x1="1132" y1="542" x2="1078" y2="542" fill="#FFFFFF" stroke="#FFFFFF" stroke-width="1.00"/>
<line shape-type="limitline" x1="1132" y1="594" x2="1132" y2="542" fill="#FFFFFF" stroke="#FFFFFF" stroke-width="1.00"/>
<line shape-type="limitline" x1="1074" y1="445" x2="1005" y2="445" fill="#FFFFFF" stroke="#FFFFFF" stroke-width="1.00"/>
<line shape-type="limitline" x1="1405" y1="445" x2="1141" y2="445" fill="#FFFFFF" stroke="#FFFFFF" stroke-width="1.00"/>
<line shape-type="limitline" x1="1406" y1="515" x2="1406" y2="445" fill="#FFFFFF" stroke="#FFFFFF" stroke-width="1.00"/>
<line shape-type="limitline" x1="1241" y1="515" x2="1406" y2="515" fill="#FFFFFF" stroke="#FFFFFF" stroke-width="1.00"/>
<line shape-type="limitline" x1="1240" y1="555" x2="1240" y2="515" fill="#FFFFFF" stroke="#FFFFFF" stroke-width="1.00"/>
<polygon shape-type="trapezium" points="902,441 902,450 912,446 912,446 902,441" fill="#FFFFFF" stroke="#FFFFFF" stroke-width="1.00"/>
<polygon shape-type="trapezium" points="1064,440 1064,449 1074,445 1074,445 1064,440" fill="#FFFFFF" stroke="#FFFFFF" stroke-width="1.00"/>
<polygon shape-type="trapezium" points="1235,543 1243,543 1239,554 1239,554 1235,543" fill="#FFFFFF" stroke="#FFFFFF" stroke-width="1.00"/>
<polygon shape-type="trapezium" points="1088,599 1088,591 1078,595 1078,595 1088,599" fill="#FFFFFF" stroke="#FFFFFF" stroke-width="1.00"/>
<polygon shape-type="trapezium" points="1088,546 1088,538 1078,542 1078,542 1088,546" fill="#FFFFFF" stroke="#FFFFFF" stroke-width="1.00"/>
<ellipse shape-type="ellipse" cx="1105" cy="420" rx="8" ry="8" fill="#00FF00" stroke="#FFFFFF" stroke-width="1.00"/>
<ellipse shape-type="ellipse" cx="1243" cy="425" rx="8" ry="8" fill="#FF0000" stroke="#FFFFFF" stroke-width="1.00"/>
<ellipse shape-type="ellipse" cx="1308" cy="425" rx="8" ry="8" fill="#FF0000" stroke="#FFFFFF" stroke-width="1.00"/>
<ellipse shape-type="ellipse" cx="1381" cy="425" rx="8" ry="8" fill="#FF0000" stroke="#FFFFFF" stroke-width="1.00"/>
<ellipse shape-type="ellipse" cx="1327" cy="478" rx="8" ry="8" fill="#FF0000" stroke="#FFFFFF" stroke-width="1.00"/>
<rect shape-type="rectangle" x="1337" y="537" width="46" height="19" fill="#00FF00" stroke="#FFFFFF" stroke-width="1.00"/>
<rect shape-type="rectangle" x="1038" y="659" width="46" height="18" fill="#FF0000" stroke="#FFFFFF" stroke-width="1.00"/>
<rect shape-type="rectangle" x="1341" y="653" width="46" height="19" fill="#FF0000" stroke="#FFFFFF" stroke-width="1.00"/>
<text font-family="宋体" text-anchor="start" fill="#FFFFFF" shape-type="text" id="" font-size="18.500000" x="1109" y="504">新氢压缩机</text>
<text font-family="宋体" text-anchor="start" fill="#FFFFFF" shape-type="text" id="" font-size="18.500000" x="1121" y="531">K-2102B</text>
<text font-family="宋体" text-anchor="start" fill="#FFFFFF" shape-type="text" id="" font-size="12.500000" x="1076" y="407">PDS_2305B</text>
<text font-family="宋体" text-anchor="start" fill="#FFFFFF" shape-type="text" id="" font-size="12.500000" x="1205" y="407">PS_2402B</text>
<text font-family="宋体" text-anchor="start" fill="#FFFFFF" shape-type="text" id="" font-size="12.500000" x="1294" y="463">PS_2401B</text>
<text font-family="宋体" text-anchor="start" fill="#FFFFFF" shape-type="text" id="" font-size="12.500000" x="1153" y="423">TI_2413B</text>
<text font-family="宋体" text-anchor="start" fill="#FFFFFF" shape-type="text" id="" font-size="12.500000" x="1154" y="464">PI_2404B</text>
<text font-family="宋体" text-anchor="start" fill="#FFFFFF" shape-type="text" id="" font-size="12.500000" x="981" y="551">主油泵A</text>
<text font-family="宋体" text-anchor="start" fill="#FFFFFF" shape-type="text" id="" font-size="12.500000" x="968" y="605">副助油泵A</text>
<text font-family="宋体" text-anchor="start" fill="#FFFFFF" shape-type="text" id="" font-size="12.500000" x="1311" y="588">盘车状态：</text>
<ellipse shape-type="ellipse" cx="1395" cy="584" rx="8" ry="8" fill="#FF0000" stroke="#FFFFFF" stroke-width="1.00"/>
<text font-family="宋体" text-anchor="start" fill="#FFFFFF" shape-type="text" id="" font-size="12.500000" x="1218" y="578">油箱</text>
<text font-family="宋体" text-anchor="start" fill="#FFFFFF" shape-type="text" id="" font-size="12.500000" x="1397" y="538">红：禁止盘车</text>
<text font-family="宋体" text-anchor="start" fill="#FFFFFF" shape-type="text" id="" font-size="12.500000" x="1397" y="559">绿：允许盘车</text>
<text font-family="宋体" text-anchor="start" fill="#FFFFFF" shape-type="text" id="" font-size="12.500000" x="1416" y="589">红：停盘车</text>
<text font-family="宋体" text-anchor="start" fill="#FFFFFF" shape-type="text" id="" font-size="12.500000" x="1418" y="613">绿：盘车</text>
<text font-family="宋体" text-anchor="start" fill="#FFFFFF" shape-type="text" id="" font-size="12.500000" x="1101" y="654">红：联锁投入</text>
<text font-family="宋体" text-anchor="start" fill="#FFFFFF" shape-type="text" id="" font-size="12.500000" x="1098" y="680">绿：辅助油泵启动</text>
<text font-family="宋体" text-anchor="start" fill="#FFFFFF" shape-type="text" id="" font-size="12.500000" x="1208" y="664">新氢加热器A&lt;27℃ </text>
<text font-family="宋体" text-anchor="start" fill="#FFFFFF" shape-type="text" id="" font-size="12.500000" x="1401" y="657">红：联锁投入</text>
<text font-family="宋体" text-anchor="start" fill="#FFFFFF" shape-type="text" id="" font-size="12.500000" x="1400" y="680">绿：加热器运行</text>
<text font-family="宋体" text-anchor="start" fill="#000000" shape-type="text" id="" font-size="12.500000" x="931" y="451">油冷却器</text>
<text font-family="宋体" text-anchor="start" fill="#000000" shape-type="text" id="" font-size="12.500000" x="1074" y="452">油过滤器</text>
<text font-family="宋体" text-anchor="start" fill="#000000" shape-type="text" id="" font-size="12.500000" x="1041" y="674">联锁</text>
<text font-family="宋体" text-anchor="start" fill="#000000" shape-type="text" id="" font-size="12.500000" x="1344" y="668">联锁</text>
<text font-family="宋体" text-anchor="start" fill="#000000" shape-type="text" id="" font-size="12.500000" x="1340" y="552">允许</text>
<text font-family="宋体" text-anchor="start" fill="#FFFFFF" shape-type="text" id="" font-size="12.500000" x="1249" y="363">（三取二）</text>
<text font-family="宋体" text-anchor="start" fill="#FFFFFF" shape-type="text" id="" font-size="12.500000" x="1225" y="382">油压低低联锁停车</text>
<text font-family="宋体" text-anchor="start" fill="#FFFFFF" shape-type="text" id="" font-size="12.500000" x="1207" y="261">TI_2412A</text>
<text font-family="宋体" text-anchor="start" fill="#FFFFFF" shape-type="text" id="" font-size="12.500000" x="756" y="342">循环氢辅助油泵A自启：PT_2404A&lt;0.35MPa</text>
<g shape-type="group">
<polygon shape-type="trapezium" points="300,614 269,614 285,596 285,596 300,614" fill="#C0C0C0" stroke="#000000" stroke-width="1.00"/>
<ellipse shape-type="ellipse" cx="285" cy="597" rx="13" ry="12" fill="#C0C0C0" stroke="#000000" stroke-width="1.00"/>
<ellipse shape-type="ellipse" cx="285" cy="596" rx="7" ry="7" fill="#FF0000" stroke="#000000" stroke-width="1.00"/>
</g>
<g shape-type="group">
<polygon shape-type="trapezium" points="1080,607 1049,607 1065,590 1065,590 1080,607" fill="#C0C0C0" stroke="#000000" stroke-width="1.00"/>
<ellipse shape-type="ellipse" cx="1064" cy="590" rx="13" ry="12" fill="#C0C0C0" stroke="#000000" stroke-width="1.00"/>
<ellipse shape-type="ellipse" cx="1064" cy="590" rx="7" ry="8" fill="#FF0000" stroke="#000000" stroke-width="1.00"/>
</g>
<text font-family="宋体" text-anchor="start" fill="#FFFFFF" shape-type="text" id="" font-size="12.500000" x="9" y="341">新氢辅助油泵A自启：PT_2307A&lt;0.35MPa</text>
<text font-family="宋体" text-anchor="start" fill="#FFFFFF" shape-type="text" id="" font-size="12.500000" x="1290" y="171">油压低报警</text>
<text font-family="宋体" text-anchor="start" fill="#FFFFFF" shape-type="text" id="" font-size="12.500000" x="757" y="674">循环氢辅助油泵A自启：PT_2404A&lt;0.35MPa</text>
<text font-family="宋体" text-anchor="start" fill="#FFFFFF" shape-type="text" id="" font-size="12.500000" x="1280" y="406">PS_2403B</text>
<text font-family="宋体" text-anchor="start" fill="#FFFFFF" shape-type="text" id="" font-size="12.500000" x="1357" y="407">PS_2404B</text>
<text font-family="宋体" text-anchor="start" fill="#FFFFFF" shape-type="text" id="" font-size="12.500000" x="1287" y="505">油压低报警</text>
<text font-family="宋体" text-anchor="start" fill="#FFFFFF" shape-type="text" id="" font-size="12.500000" x="446" y="110">℃ </text>
<text font-family="宋体" text-anchor="start" fill="#FFFFFF" shape-type="text" id="" font-size="12.500000" x="447" y="147">MPa</text>
<text font-family="宋体" text-anchor="start" fill="#FFFFFF" shape-type="text" id="" font-size="12.500000" x="1202" y="107">℃ </text>
<text font-family="宋体" text-anchor="start" fill="#FFFFFF" shape-type="text" id="" font-size="12.500000" x="1199" y="150">MPa</text>
<text font-family="宋体" text-anchor="start" fill="#FFFFFF" shape-type="text" id="" font-size="12.500000" x="1198" y="441">℃ </text>
<text font-family="宋体" text-anchor="start" fill="#FFFFFF" shape-type="text" id="" font-size="12.500000" x="1204" y="484">MPa</text>
<rect shape-type="rectangle" x="371" y="459" width="68" height="20" fill="#FF0000" stroke="#000000" stroke-width="1.00"/>
<text font-family="宋体" text-anchor="start" fill="#000000" shape-type="text" id="" font-size="12.500000" x="371" y="473">PI_2307B</text>
<text font-family="宋体" text-anchor="start" fill="#FFFFFF" shape-type="text" id="" font-size="12.500000" x="415" y="497">MPa</text>
<text font-family="宋体" text-anchor="start" fill="#FF0000" shape-type="text" id="" font-size="12.500000" x="440" y="473">LL</text>
<text font-family="宋体" text-anchor="start" fill="#FF8000" shape-type="text" id="" font-size="25.250000" x="681" y="43">压缩机润滑油系统</text>
<a xlink:href="异构化总图.svg">
<g shape-type="button">
<rect fill="#C0C0C0" stroke-width="0.3" stroke="#FFFFFF" x="1406" y="706" width="51" height="29" shape-type="buttonrect"/>
<text font-family="宋体" text-anchor="middle" dominant-baseline="middle" fill="#000000" font-size="13.500000" x="1431" y="726" shape-type="buttontext">返回</text>
</g>
</a>
</svg>