<svg xmlns="http://www.w3.org/2000/svg" xmlns:xlink="http://www.w3.org/1999/xlink" version="1.1" style="background-color:#7DB6C1" width="1062" height="669" viewbox="0 0 1062 669"><defs>
<linearGradient x1="0.000000%" y1="50.000000%" x2="100.000000%" y2="50.000000%" id="lgradient1">
<stop offset="0" stop-color="#2C2C2C" stop-opacity="1"/>
<stop offset="0.5" stop-color="#FFFFFF" stop-opacity="1"/>
<stop offset="1" stop-color="#2C2C2C" stop-opacity="1"/>
</linearGradient>
<radialGradient cx="50.000000%" cy="50.000000%" r="50.000000%" fx="50.000000%" fy="50.000000%" id="rgradient2_0">
<stop offset="0%" stop-color="#FFFFFF" stop-opacity="1"/>
<stop offset="100%" stop-color="#2C2C2C" stop-opacity="1"/>
</radialGradient>
<linearGradient x1="50.000000%" y1="0.000000%" x2="50.000000%" y2="100.000000%" id="lgradient2_1">
<stop offset="0" stop-color="#2C2C2C" stop-opacity="1"/>
<stop offset="0.5" stop-color="#FFFFFF" stop-opacity="1"/>
<stop offset="1" stop-color="#2C2C2C" stop-opacity="1"/>
</linearGradient>
<radialGradient cx="50.000000%" cy="50.000000%" r="50.000000%" fx="50.000000%" fy="50.000000%" id="rgradient3_0">
<stop offset="0%" stop-color="#FFFFFF" stop-opacity="1"/>
<stop offset="100%" stop-color="#2C2C2C" stop-opacity="1"/>
</radialGradient>
<linearGradient x1="50.000000%" y1="0.000000%" x2="50.000000%" y2="100.000000%" id="lgradient3_1">
<stop offset="0" stop-color="#2C2C2C" stop-opacity="1"/>
<stop offset="0.5" stop-color="#FFFFFF" stop-opacity="1"/>
<stop offset="1" stop-color="#2C2C2C" stop-opacity="1"/>
</linearGradient>
<radialGradient cx="50.000000%" cy="50.000000%" r="50.000000%" fx="50.000000%" fy="50.000000%" id="rgradient4_0">
<stop offset="0%" stop-color="#FFFFFF" stop-opacity="1"/>
<stop offset="100%" stop-color="#2C2C2C" stop-opacity="1"/>
</radialGradient>
<linearGradient x1="50.000000%" y1="0.000000%" x2="50.000000%" y2="100.000000%" id="lgradient4_1">
<stop offset="0" stop-color="#2C2C2C" stop-opacity="1"/>
<stop offset="0.5" stop-color="#FFFFFF" stop-opacity="1"/>
<stop offset="1" stop-color="#2C2C2C" stop-opacity="1"/>
</linearGradient>
<radialGradient cx="50.000000%" cy="50.000000%" r="50.000000%" fx="50.000000%" fy="50.000000%" id="rgradient5_0">
<stop offset="0%" stop-color="#FFFFFF" stop-opacity="1"/>
<stop offset="100%" stop-color="#2C2C2C" stop-opacity="1"/>
</radialGradient>
<linearGradient x1="50.000000%" y1="0.000000%" x2="50.000000%" y2="100.000000%" id="lgradient5_1">
<stop offset="0" stop-color="#2C2C2C" stop-opacity="1"/>
<stop offset="0.5" stop-color="#FFFFFF" stop-opacity="1"/>
<stop offset="1" stop-color="#2C2C2C" stop-opacity="1"/>
</linearGradient>
<radialGradient cx="50.000000%" cy="50.000000%" r="50.000000%" fx="50.000000%" fy="50.000000%" id="rgradient10_0">
<stop offset="0%" stop-color="#FFFFFF" stop-opacity="1"/>
<stop offset="100%" stop-color="#2C2C2C" stop-opacity="1"/>
</radialGradient>
<linearGradient x1="50.000000%" y1="0.000000%" x2="50.000000%" y2="100.000000%" id="lgradient10_1">
<stop offset="0" stop-color="#2C2C2C" stop-opacity="1"/>
<stop offset="0.5" stop-color="#FFFFFF" stop-opacity="1"/>
<stop offset="1" stop-color="#2C2C2C" stop-opacity="1"/>
</linearGradient>
<radialGradient cx="50.000000%" cy="50.000000%" r="50.000000%" fx="50.000000%" fy="50.000000%" id="rgradient12_0">
<stop offset="0%" stop-color="#FFFFFF" stop-opacity="1"/>
<stop offset="100%" stop-color="#2C2C2C" stop-opacity="1"/>
</radialGradient>
<linearGradient x1="50.000000%" y1="0.000000%" x2="50.000000%" y2="100.000000%" id="lgradient12_1">
<stop offset="0" stop-color="#2C2C2C" stop-opacity="1"/>
<stop offset="0.5" stop-color="#FFFFFF" stop-opacity="1"/>
<stop offset="1" stop-color="#2C2C2C" stop-opacity="1"/>
</linearGradient>
<radialGradient cx="50.000000%" cy="50.000000%" r="50.000000%" fx="50.000000%" fy="50.000000%" id="rgradient14_0">
<stop offset="0%" stop-color="#FFFFFF" stop-opacity="1"/>
<stop offset="100%" stop-color="#2C2C2C" stop-opacity="1"/>
</radialGradient>
<linearGradient x1="50.000000%" y1="0.000000%" x2="50.000000%" y2="100.000000%" id="lgradient14_1">
<stop offset="0" stop-color="#2C2C2C" stop-opacity="1"/>
<stop offset="0.5" stop-color="#FFFFFF" stop-opacity="1"/>
<stop offset="1" stop-color="#2C2C2C" stop-opacity="1"/>
</linearGradient>
<linearGradient x1="50.000000%" y1="0.000000%" x2="50.000000%" y2="100.000000%" id="lgradient20">
<stop offset="0" stop-color="#2C2C2C" stop-opacity="1"/>
<stop offset="0.5" stop-color="#FFFFFF" stop-opacity="1"/>
<stop offset="1" stop-color="#2C2C2C" stop-opacity="1"/>
</linearGradient>
</defs>
<rect shape-type="roundRectangle" rx="20" ry="20" x="705" y="362" width="51" height="222" fill="url(#lgradient1)" stroke="#000000" stroke-width="1.00"/>
<g shape-type="group">
<ellipse shape-type="ellipse" cx="282" cy="184" rx="9" ry="13" fill="url(#rgradient2_0)" stroke="#000000" stroke-width="1.00"/>
<rect shape-type="rectangle" x="282" y="171" width="71" height="27" fill="url(#lgradient2_1)" stroke="#000000" stroke-width="1.00"/>
</g>
<g shape-type="group">
<ellipse shape-type="ellipse" cx="282" cy="288" rx="9" ry="13" fill="url(#rgradient3_0)" stroke="#000000" stroke-width="1.00"/>
<rect shape-type="rectangle" x="282" y="275" width="71" height="27" fill="url(#lgradient3_1)" stroke="#000000" stroke-width="1.00"/>
</g>
<g shape-type="group">
<ellipse shape-type="ellipse" cx="280" cy="392" rx="9" ry="13" fill="url(#rgradient4_0)" stroke="#000000" stroke-width="1.00"/>
<rect shape-type="rectangle" x="280" y="379" width="71" height="27" fill="url(#lgradient4_1)" stroke="#000000" stroke-width="1.00"/>
</g>
<g shape-type="group">
<ellipse shape-type="ellipse" cx="696" cy="268" rx="9" ry="13" fill="url(#rgradient5_0)" stroke="#000000" stroke-width="1.00"/>
<rect shape-type="rectangle" x="624" y="255" width="71" height="27" fill="url(#lgradient5_1)" stroke="#000000" stroke-width="1.00"/>
</g>
<line shape-type="limitline" x1="341" y1="195" x2="341" y2="173" fill="#FFFFFF" stroke="#000000" stroke-width="1.00"/>
<line shape-type="limitline" x1="340" y1="299" x2="340" y2="277" fill="#FFFFFF" stroke="#000000" stroke-width="1.00"/>
<line shape-type="limitline" x1="341" y1="404" x2="341" y2="382" fill="#FFFFFF" stroke="#000000" stroke-width="1.00"/>
<line shape-type="limitline" x1="635" y1="279" x2="635" y2="257" fill="#FFFFFF" stroke="#000000" stroke-width="1.00"/>
<g shape-type="group">
<ellipse shape-type="ellipse" cx="1108" cy="195" rx="9" ry="13" fill="url(#rgradient10_0)" stroke="#000000" stroke-width="1.00"/>
<rect shape-type="rectangle" x="1038" y="182" width="69" height="27" fill="url(#lgradient10_1)" stroke="#000000" stroke-width="1.00"/>
</g>
<line shape-type="limitline" x1="1048" y1="206" x2="1048" y2="184" fill="#FFFFFF" stroke="#000000" stroke-width="1.00"/>
<g shape-type="group">
<ellipse shape-type="ellipse" cx="1110" cy="244" rx="9" ry="13" fill="url(#rgradient12_0)" stroke="#000000" stroke-width="1.00"/>
<rect shape-type="rectangle" x="1039" y="231" width="70" height="27" fill="url(#lgradient12_1)" stroke="#000000" stroke-width="1.00"/>
</g>
<line shape-type="limitline" x1="1050" y1="255" x2="1050" y2="233" fill="#FFFFFF" stroke="#000000" stroke-width="1.00"/>
<g shape-type="group">
<ellipse shape-type="ellipse" cx="1344" cy="367" rx="9" ry="13" fill="url(#rgradient14_0)" stroke="#000000" stroke-width="1.00"/>
<rect shape-type="rectangle" x="1273" y="354" width="71" height="27" fill="url(#lgradient14_1)" stroke="#000000" stroke-width="1.00"/>
</g>
<line shape-type="limitline" x1="1284" y1="378" x2="1284" y2="356" fill="#FFFFFF" stroke="#000000" stroke-width="1.00"/>
<g shape-type="group">
<polygon shape-type="trapezium" points="358,650 327,650 343,632 343,632 358,650" fill="#C0C0C0" stroke="#000000" stroke-width="1.00"/>
<ellipse shape-type="ellipse" cx="343" cy="633" rx="13" ry="12" fill="#C0C0C0" stroke="#000000" stroke-width="1.00"/>
<ellipse shape-type="ellipse" cx="343" cy="633" rx="7" ry="8" fill="#FF0000" stroke="#000000" stroke-width="1.00"/>
</g>
<g shape-type="group">
<polygon shape-type="trapezium" points="291,650 260,650 276,632 276,632 291,650" fill="#C0C0C0" stroke="#000000" stroke-width="1.00"/>
<ellipse shape-type="ellipse" cx="275" cy="633" rx="14" ry="12" fill="#C0C0C0" stroke="#000000" stroke-width="1.00"/>
<ellipse shape-type="ellipse" cx="275" cy="633" rx="7" ry="8" fill="#00FF00" stroke="#000000" stroke-width="1.00"/>
</g>
<g shape-type="group">
<rect shape-type="rectangle" x="579" y="135" width="103" height="53" stroke="#FF8040" stroke-width="1.00"/>
<line shape-type="limitline" x1="681" y1="148" x2="579" y2="149" fill="#FFFFFF" stroke="#FF8040" stroke-width="1.00"/>
<ellipse shape-type="ellipse" cx="598" cy="173" rx="7" ry="7" fill="#00FFFF" stroke="#FFFFFF" stroke-width="1.00"/>
<ellipse shape-type="ellipse" cx="612" cy="173" rx="7" ry="7" fill="#00FFFF" stroke="#FFFFFF" stroke-width="1.00"/>
<line shape-type="line" x1="590" y1="173" x2="579" y2="148" fill="#FFFFFF" stroke="#FF8040" stroke-width="1.00"/>
<line shape-type="line" x1="618" y1="174" x2="629" y2="149" fill="#FFFFFF" stroke="#FF8040" stroke-width="1.00"/>
<ellipse shape-type="ellipse" cx="650" cy="173" rx="7" ry="7" fill="#00FFFF" stroke="#FFFFFF" stroke-width="1.00"/>
<ellipse shape-type="ellipse" cx="664" cy="173" rx="7" ry="7" fill="#00FFFF" stroke="#FFFFFF" stroke-width="1.00"/>
<line shape-type="line" x1="642" y1="173" x2="631" y2="148" fill="#FFFFFF" stroke="#FF8040" stroke-width="1.00"/>
<line shape-type="line" x1="670" y1="174" x2="681" y2="149" fill="#FFFFFF" stroke="#FF8040" stroke-width="1.00"/>
</g>
<g shape-type="group">
<rect shape-type="rectangle" x="1248" y="134" width="103" height="54" stroke="#FF8040" stroke-width="1.00"/>
<line shape-type="limitline" x1="1350" y1="147" x2="1248" y2="148" fill="#FFFFFF" stroke="#FF8040" stroke-width="1.00"/>
<ellipse shape-type="ellipse" cx="1266" cy="172" rx="7" ry="7" fill="#FF0000" stroke="#FFFFFF" stroke-width="1.00"/>
<ellipse shape-type="ellipse" cx="1281" cy="172" rx="7" ry="7" fill="#00FF00" stroke="#FFFFFF" stroke-width="1.00"/>
<line shape-type="line" x1="1258" y1="172" x2="1248" y2="147" fill="#FFFFFF" stroke="#FF8040" stroke-width="1.00"/>
<line shape-type="line" x1="1286" y1="173" x2="1298" y2="148" fill="#FFFFFF" stroke="#FF8040" stroke-width="1.00"/>
<ellipse shape-type="ellipse" cx="1318" cy="172" rx="7" ry="7" fill="#00FF00" stroke="#FFFFFF" stroke-width="1.00"/>
<ellipse shape-type="ellipse" cx="1333" cy="172" rx="7" ry="7" fill="#FF0000" stroke="#FFFFFF" stroke-width="1.00"/>
<line shape-type="line" x1="1310" y1="172" x2="1300" y2="147" fill="#FFFFFF" stroke="#FF8040" stroke-width="1.00"/>
<line shape-type="line" x1="1339" y1="173" x2="1350" y2="148" fill="#FFFFFF" stroke="#FF8040" stroke-width="1.00"/>
</g>
<rect shape-type="roundRectangle" rx="20" ry="20" x="878" y="569" width="109" height="33" fill="url(#lgradient20)" stroke="#000000" stroke-width="1.00"/>
<line shape-type="limitline" x1="895" y1="601" x2="895" y2="571" fill="#FFFFFF" stroke="#000000" stroke-width="1.00"/>
<line shape-type="limitline" x1="630" y1="147" x2="630" y2="135" fill="#FFFFFF" stroke="#FF8000" stroke-width="1.00"/>
<line shape-type="limitline" x1="1299" y1="146" x2="1299" y2="134" fill="#FFFFFF" stroke="#FF8000" stroke-width="1.00"/>
<line shape-type="limitline" x1="630" y1="113" x2="630" y2="134" fill="#FFFFFF" stroke="#FFFFFF" stroke-width="1.00"/>
<line shape-type="limitline" x1="515" y1="113" x2="630" y2="113" fill="#FFFFFF" stroke="#FFFFFF" stroke-width="1.00"/>
<line shape-type="limitline" x1="514" y1="471" x2="514" y2="113" fill="#FFFFFF" stroke="#FFFFFF" stroke-width="1.00"/>
<line shape-type="limitline" x1="514" y1="472" x2="342" y2="472" fill="#FFFFFF" stroke="#FFFFFF" stroke-width="1.00"/>
<line shape-type="limitline" x1="341" y1="405" x2="341" y2="472" fill="#FFFFFF" stroke="#FFFFFF" stroke-width="1.00"/>
<line shape-type="limitline" x1="341" y1="379" x2="341" y2="302" fill="#FFFFFF" stroke="#FFFFFF" stroke-width="1.00"/>
<line shape-type="limitline" x1="340" y1="274" x2="340" y2="197" fill="#FFFFFF" stroke="#FFFFFF" stroke-width="1.00"/>
<line shape-type="limitline" x1="341" y1="171" x2="341" y2="95" fill="#FFFFFF" stroke="#FFFFFF" stroke-width="1.00"/>
<line shape-type="limitline" x1="61" y1="94" x2="341" y2="94" fill="#FFFFFF" stroke="#FFFFFF" stroke-width="1.00"/>
<line shape-type="limitline" x1="322" y1="129" x2="64" y2="129" fill="#FFFFFF" stroke="#FFFFFF" stroke-width="1.00"/>
<line shape-type="limitline" x1="322" y1="173" x2="322" y2="129" fill="#FFFFFF" stroke="#FFFFFF" stroke-width="1.00"/>
<line shape-type="limitline" x1="320" y1="197" x2="320" y2="277" fill="#FFFFFF" stroke="#FFFFFF" stroke-width="1.00"/>
<line shape-type="limitline" x1="321" y1="280" x2="321" y2="280" fill="#FFFFFF" stroke="#FFFFFF" stroke-width="1.00"/>
<line shape-type="limitline" x1="318" y1="316" x2="318" y2="301" fill="#FFFFFF" stroke="#FFFFFF" stroke-width="1.00"/>
<line shape-type="limitline" x1="318" y1="316" x2="194" y2="316" fill="#FFFFFF" stroke="#FFFFFF" stroke-width="1.00"/>
<line shape-type="limitline" x1="193" y1="316" x2="193" y2="445" fill="#FFFFFF" stroke="#FFFFFF" stroke-width="1.00"/>
<line shape-type="limitline" x1="193" y1="446" x2="287" y2="446" fill="#FFFFFF" stroke="#FFFFFF" stroke-width="1.00"/>
<line shape-type="limitline" x1="287" y1="631" x2="287" y2="446" fill="#FFFFFF" stroke="#FFFFFF" stroke-width="1.00"/>
<line shape-type="limitline" x1="330" y1="602" x2="288" y2="602" fill="#FFFFFF" stroke="#FFFFFF" stroke-width="1.00"/>
<line shape-type="limitline" x1="330" y1="633" x2="330" y2="602" fill="#FFFFFF" stroke="#FFFFFF" stroke-width="1.00"/>
<line shape-type="limitline" x1="19" y1="602" x2="284" y2="602" fill="#FFFFFF" stroke="#FFFFFF" stroke-width="1.00"/>
<line shape-type="limitline" x1="240" y1="634" x2="240" y2="603" fill="#FFFFFF" stroke="#FFFFFF" stroke-width="1.00"/>
<line shape-type="limitline" x1="240" y1="634" x2="264" y2="634" fill="#FFFFFF" stroke="#FFFFFF" stroke-width="1.00"/>
<line shape-type="limitline" x1="157" y1="131" x2="157" y2="501" fill="#FFFFFF" stroke="#FFFFFF" stroke-width="1.00"/>
<line shape-type="limitline" x1="288" y1="501" x2="157" y2="501" fill="#FFFFFF" stroke="#FFFFFF" stroke-width="1.00"/>
<line shape-type="limitline" x1="337" y1="458" x2="287" y2="458" fill="#FFFFFF" stroke="#FFFFFF" stroke-width="1.00"/>
<line shape-type="limitline" x1="449" y1="458" x2="344" y2="458" fill="#FFFFFF" stroke="#FFFFFF" stroke-width="1.00"/>
<line shape-type="limitline" x1="450" y1="458" x2="450" y2="20" fill="#FFFFFF" stroke="#FFFFFF" stroke-width="1.00"/>
<line shape-type="limitline" x1="449" y1="20" x2="56" y2="20" fill="#FFFFFF" stroke="#FFFFFF" stroke-width="1.00"/>
<line shape-type="limitline" x1="373" y1="56" x2="62" y2="56" fill="#FFFFFF" stroke="#FFFFFF" stroke-width="1.00"/>
<line shape-type="limitline" x1="373" y1="123" x2="373" y2="56" fill="#FFFFFF" stroke="#FFFFFF" stroke-width="1.00"/>
<line shape-type="limitline" x1="373" y1="124" x2="449" y2="124" fill="#FFFFFF" stroke="#FFFFFF" stroke-width="1.00"/>
<line shape-type="limitline" x1="282" y1="425" x2="197" y2="425" fill="#FFFFFF" stroke="#FFFFFF" stroke-width="1.00"/>
<line shape-type="limitline" x1="283" y1="406" x2="283" y2="425" fill="#FFFFFF" stroke="#FFFFFF" stroke-width="1.00"/>
<line shape-type="limitline" x1="283" y1="360" x2="283" y2="379" fill="#FFFFFF" stroke="#FFFFFF" stroke-width="1.00"/>
<line shape-type="limitline" x1="283" y1="360" x2="198" y2="360" fill="#FFFFFF" stroke="#FFFFFF" stroke-width="1.00"/>
<line shape-type="limitline" x1="190" y1="360" x2="159" y2="360" fill="#FFFFFF" stroke="#FFFFFF" stroke-width="1.00"/>
<line shape-type="limitline" x1="155" y1="360" x2="37" y2="360" fill="#FFFFFF" stroke="#FFFFFF" stroke-width="1.00"/>
<line shape-type="limitline" x1="190" y1="425" x2="159" y2="425" fill="#FFFFFF" stroke="#FFFFFF" stroke-width="1.00"/>
<line shape-type="limitline" x1="155" y1="425" x2="37" y2="425" fill="#FFFFFF" stroke="#FFFFFF" stroke-width="1.00"/>
<line shape-type="limitline" x1="629" y1="256" x2="629" y2="188" fill="#FFFFFF" stroke="#FFFFFF" stroke-width="1.00"/>
<line shape-type="limitline" x1="630" y1="281" x2="630" y2="415" fill="#FFFFFF" stroke="#FFFFFF" stroke-width="1.00"/>
<line shape-type="limitline" x1="706" y1="415" x2="630" y2="415" fill="#FFFFFF" stroke="#FFFFFF" stroke-width="1.00"/>
<line shape-type="limitline" x1="729" y1="675" x2="729" y2="584" fill="#FFFFFF" stroke="#FFFFFF" stroke-width="1.00"/>
<line shape-type="limitline" x1="729" y1="677" x2="1489" y2="677" fill="#FFFFFF" stroke="#FFFFFF" stroke-width="1.00"/>
<line shape-type="limitline" x1="755" y1="451" x2="902" y2="451" fill="#FFFFFF" stroke="#FFFFFF" stroke-width="1.00"/>
<line shape-type="limitline" x1="903" y1="571" x2="903" y2="451" fill="#FFFFFF" stroke="#FFFFFF" stroke-width="1.00"/>
<line shape-type="limitline" x1="904" y1="602" x2="904" y2="657" fill="#FFFFFF" stroke="#FFFFFF" stroke-width="1.00"/>
<line shape-type="limitline" x1="904" y1="657" x2="1107" y2="657" fill="#FFFFFF" stroke="#FFFFFF" stroke-width="1.00"/>
<line shape-type="limitline" x1="1107" y1="256" x2="1107" y2="656" fill="#FFFFFF" stroke="#FFFFFF" stroke-width="1.00"/>
<line shape-type="limitline" x1="958" y1="533" x2="958" y2="571" fill="#FFFFFF" stroke="#FFFFFF" stroke-width="1.00"/>
<line shape-type="limitline" x1="1531" y1="532" x2="958" y2="532" fill="#FFFFFF" stroke="#FFFFFF" stroke-width="1.00"/>
<line shape-type="limitline" x1="1047" y1="460" x2="1047" y2="255" fill="#FFFFFF" stroke="#FFFFFF" stroke-width="1.00"/>
<line shape-type="limitline" x1="1104" y1="461" x2="1047" y2="461" fill="#FFFFFF" stroke="#FFFFFF" stroke-width="1.00"/>
<line shape-type="limitline" x1="1166" y1="461" x2="1110" y2="461" fill="#FFFFFF" stroke="#FFFFFF" stroke-width="1.00"/>
<line shape-type="limitline" x1="1167" y1="461" x2="1167" y2="125" fill="#FFFFFF" stroke="#FFFFFF" stroke-width="1.00"/>
<line shape-type="limitline" x1="1167" y1="124" x2="1506" y2="124" fill="#FFFFFF" stroke="#FFFFFF" stroke-width="1.00"/>
<line shape-type="limitline" x1="1102" y1="182" x2="1102" y2="95" fill="#FFFFFF" stroke="#FFFFFF" stroke-width="1.00"/>
<line shape-type="limitline" x1="1499" y1="94" x2="1102" y2="94" fill="#FFFFFF" stroke="#FFFFFF" stroke-width="1.00"/>
<line shape-type="limitline" x1="1072" y1="207" x2="1072" y2="232" fill="#FFFFFF" stroke="#FFFFFF" stroke-width="1.00"/>
<line shape-type="limitline" x1="1046" y1="231" x2="1046" y2="207" fill="#FFFFFF" stroke="#FFFFFF" stroke-width="1.00"/>
<line shape-type="limitline" x1="1045" y1="183" x2="1045" y2="60" fill="#FFFFFF" stroke="#FFFFFF" stroke-width="1.00"/>
<line shape-type="limitline" x1="1046" y1="60" x2="1499" y2="60" fill="#FFFFFF" stroke="#FFFFFF" stroke-width="1.00"/>
<line shape-type="limitline" x1="730" y1="365" x2="730" y2="34" fill="#FFFFFF" stroke="#FFFFFF" stroke-width="1.00"/>
<line shape-type="limitline" x1="1501" y1="33" x2="730" y2="33" fill="#FFFFFF" stroke="#FFFFFF" stroke-width="1.00"/>
<line shape-type="limitline" x1="1311" y1="463" x2="1311" y2="379" fill="#FFFFFF" stroke="#FFFFFF" stroke-width="1.00"/>
<line shape-type="limitline" x1="1495" y1="463" x2="1311" y2="463" fill="#FFFFFF" stroke="#FFFFFF" stroke-width="1.00"/>
<line shape-type="limitline" x1="1309" y1="354" x2="1309" y2="189" fill="#FFFFFF" stroke="#FFFFFF" stroke-width="1.00"/>
<g shape-type="group">
<polygon shape-type="trapezium" points="56,27 56,13 68,20 68,20 56,27" stroke="#FFFFFF" stroke-width="1.00"/>
<rect shape-type="rectangle" x="26" y="16" width="31" height="8" stroke="#FFFFFF" stroke-width="1.00"/>
</g>
<g shape-type="group">
<polygon shape-type="trapezium" points="60,63 60,49 72,56 72,56 60,63" stroke="#FFFFFF" stroke-width="1.00"/>
<rect shape-type="rectangle" x="30" y="51" width="31" height="8" stroke="#FFFFFF" stroke-width="1.00"/>
</g>
<g shape-type="group">
<polygon shape-type="trapezium" points="59,101 59,88 71,94 71,94 59,101" stroke="#FFFFFF" stroke-width="1.00"/>
<rect shape-type="rectangle" x="29" y="90" width="31" height="8" stroke="#FFFFFF" stroke-width="1.00"/>
</g>
<g shape-type="group">
<polygon shape-type="trapezium" points="43,138 43,123 32,130 32,130 43,138" stroke="#FFFFFF" stroke-width="1.00"/>
<rect shape-type="rectangle" x="43" y="126" width="32" height="8" stroke="#FFFFFF" stroke-width="1.00"/>
</g>
<g shape-type="group">
<polygon shape-type="trapezium" points="21,368 21,353 10,360 10,360 21,368" stroke="#FFFFFF" stroke-width="1.00"/>
<rect shape-type="rectangle" x="21" y="356" width="32" height="9" stroke="#FFFFFF" stroke-width="1.00"/>
</g>
<g shape-type="group">
<polygon shape-type="trapezium" points="44,433 44,418 54,425 54,425 44,433" stroke="#FFFFFF" stroke-width="1.00"/>
<rect shape-type="rectangle" x="11" y="421" width="33" height="8" stroke="#FFFFFF" stroke-width="1.00"/>
</g>
<g shape-type="group">
<polygon shape-type="trapezium" points="39,610 39,595 49,602 49,602 39,610" stroke="#FFFFFF" stroke-width="1.00"/>
<rect shape-type="rectangle" x="7" y="598" width="33" height="8" stroke="#FFFFFF" stroke-width="1.00"/>
</g>
<g shape-type="group">
<polygon shape-type="trapezium" points="1531,42 1531,28 1543,35 1543,35 1531,42" stroke="#FFFFFF" stroke-width="1.00"/>
<rect shape-type="rectangle" x="1501" y="30" width="31" height="9" stroke="#FFFFFF" stroke-width="1.00"/>
</g>
<g shape-type="group">
<polygon shape-type="trapezium" points="1527,102 1527,88 1539,95 1539,95 1527,102" stroke="#FFFFFF" stroke-width="1.00"/>
<rect shape-type="rectangle" x="1497" y="91" width="31" height="8" stroke="#FFFFFF" stroke-width="1.00"/>
</g>
<g shape-type="group">
<polygon shape-type="trapezium" points="1509,67 1509,53 1499,60 1499,60 1509,67" stroke="#FFFFFF" stroke-width="1.00"/>
<rect shape-type="rectangle" x="1508" y="55" width="33" height="9" stroke="#FFFFFF" stroke-width="1.00"/>
</g>
<g shape-type="group">
<polygon shape-type="trapezium" points="1509,132 1509,118 1499,125 1499,125 1509,132" stroke="#FFFFFF" stroke-width="1.00"/>
<rect shape-type="rectangle" x="1508" y="121" width="33" height="8" stroke="#FFFFFF" stroke-width="1.00"/>
</g>
<g shape-type="group">
<polygon shape-type="trapezium" points="1518,472 1518,458 1529,465 1529,465 1518,472" stroke="#FFFFFF" stroke-width="1.00"/>
<rect shape-type="rectangle" x="1488" y="460" width="31" height="9" stroke="#FFFFFF" stroke-width="1.00"/>
</g>
<g shape-type="group">
<polygon shape-type="trapezium" points="1524,541 1524,527 1535,534 1535,534 1524,541" stroke="#FFFFFF" stroke-width="1.00"/>
<rect shape-type="rectangle" x="1493" y="529" width="32" height="9" stroke="#FFFFFF" stroke-width="1.00"/>
</g>
<g shape-type="group">
<polygon shape-type="trapezium" points="1516,685 1516,671 1527,678 1527,678 1516,685" stroke="#FFFFFF" stroke-width="1.00"/>
<rect shape-type="rectangle" x="1485" y="674" width="32" height="8" stroke="#FFFFFF" stroke-width="1.00"/>
</g>
<line shape-type="limitline" x1="1147" y1="141" x2="1102" y2="141" fill="#FFFFFF" stroke="#FFFFFF" stroke-width="1.00"/>
<line shape-type="limitline" x1="1147" y1="311" x2="1147" y2="141" fill="#FFFFFF" stroke="#FFFFFF" stroke-width="1.00"/>
<line shape-type="limitline" x1="1108" y1="312" x2="1147" y2="312" fill="#FFFFFF" stroke="#FFFFFF" stroke-width="1.00"/>
<rect shape-type="rectangle" x="961" y="570" width="9" height="33" fill="#FFFFFF" stroke="#000000" stroke-width="1.00"/>
<rect shape-type="rectangle" x="708" y="410" width="13" height="38" fill="#FFFFFF" stroke="#000000" stroke-width="1.00"/>
<rect shape-type="rectangle" x="740" y="410" width="13" height="38" fill="#FFFFFF" stroke="#000000" stroke-width="1.00"/>
<rect shape-type="rectangle" x="708" y="504" width="13" height="38" fill="#FFFFFF" stroke="#000000" stroke-width="1.00"/>
<rect shape-type="rectangle" x="740" y="504" width="13" height="38" fill="#FFFFFF" stroke="#000000" stroke-width="1.00"/>
<line shape-type="limitline" x1="755" y1="564" x2="707" y2="564" fill="#FFFFFF" stroke="#000000" stroke-width="1.00"/>
<line shape-type="limitline" x1="754" y1="383" x2="706" y2="383" fill="#FFFFFF" stroke="#000000" stroke-width="1.00"/>
<g shape-type="group">
<polygon shape-type="trapezium" points="161,252 153,252 157,261 157,261 161,252" fill="#FF0000" stroke="#808080" stroke-width="1.00"/>
<polygon shape-type="trapezium" points="161,270 153,270 157,263 157,263 161,270" fill="#FF0000" stroke="#808080" stroke-width="1.00"/>
<line shape-type="limitline" x1="155" y1="261" x2="145" y2="262" fill="#FFFFFF" stroke="#808080" stroke-width="1.00"/>
<path shape-type="chord" d="M 146,250 A 12,12 0 1,0 146,270 z" fill="#C0C0C0" stroke="#FFFFFF" stroke-width="1.00"/>
<polygon shape-type="trapezium" points="152,258 152,265 159,262 159,262 152,258" fill="#808080" stroke="#808080" stroke-width="1.00"/>
</g>
<g shape-type="group">
<polygon shape-type="trapezium" points="454,67 446,67 450,76 450,76 454,67" fill="#00FF00" stroke="#808080" stroke-width="1.00"/>
<polygon shape-type="trapezium" points="454,84 446,84 450,77 450,77 454,84" fill="#00FF00" stroke="#808080" stroke-width="1.00"/>
<line shape-type="limitline" x1="448" y1="76" x2="438" y2="77" fill="#FFFFFF" stroke="#808080" stroke-width="1.00"/>
<path shape-type="chord" d="M 438,65 A 12,12 0 1,0 438,85 z" fill="#C0C0C0" stroke="#FFFFFF" stroke-width="1.00"/>
<polygon shape-type="trapezium" points="445,73 445,79 452,76 452,76 445,73" fill="#808080" stroke="#808080" stroke-width="1.00"/>
</g>
<g shape-type="group">
<polygon shape-type="trapezium" points="1171,528 1171,536 1161,532 1161,532 1171,528" fill="#00FF00" stroke="#808080" stroke-width="1.00"/>
<polygon shape-type="trapezium" points="1153,528 1153,536 1160,532 1160,532 1153,528" fill="#00FF00" stroke="#808080" stroke-width="1.00"/>
<line shape-type="limitline" x1="1161" y1="530" x2="1160" y2="520" fill="#FFFFFF" stroke="#808080" stroke-width="1.00"/>
<path shape-type="chord" d="M 1173,521 A 12,12 0 0,0 1153,521 z" fill="#C0C0C0" stroke="#FFFFFF" stroke-width="1.00"/>
<polygon shape-type="trapezium" points="1158,527 1165,527 1161,534 1161,534 1158,527" fill="#808080" stroke="#808080" stroke-width="1.00"/>
</g>
<g shape-type="group">
<polygon shape-type="trapezium" points="1056,653 1056,661 1047,657 1047,657 1056,653" fill="#00FF00" stroke="#808080" stroke-width="1.00"/>
<polygon shape-type="trapezium" points="1039,653 1039,661 1046,657 1046,657 1039,653" fill="#00FF00" stroke="#808080" stroke-width="1.00"/>
<line shape-type="limitline" x1="1047" y1="655" x2="1046" y2="645" fill="#FFFFFF" stroke="#808080" stroke-width="1.00"/>
<path shape-type="chord" d="M 1058,646 A 12,12 0 0,0 1038,646 z" fill="#C0C0C0" stroke="#FFFFFF" stroke-width="1.00"/>
<polygon shape-type="trapezium" points="1044,652 1050,652 1047,659 1047,659 1044,652" fill="#808080" stroke="#808080" stroke-width="1.00"/>
</g>
<g shape-type="group">
<polygon shape-type="trapezium" points="292,513 283,513 288,522 288,522 292,513" fill="#00FF00" stroke="#808080" stroke-width="1.00"/>
<polygon shape-type="trapezium" points="292,530 283,530 288,523 288,523 292,530" fill="#00FF00" stroke="#808080" stroke-width="1.00"/>
<line shape-type="limitline" x1="285" y1="522" x2="275" y2="523" fill="#FFFFFF" stroke="#808080" stroke-width="1.00"/>
<path shape-type="chord" d="M 276,510 A 12,12 0 1,0 276,530 z" fill="#C0C0C0" stroke="#FFFFFF" stroke-width="1.00"/>
<polygon shape-type="trapezium" points="282,519 282,525 290,522 290,522 282,519" fill="#808080" stroke="#808080" stroke-width="1.00"/>
</g>
<text font-family="宋体" text-anchor="start" fill="#FFFFFF" shape-type="text" id="" font-size="12.500000" x="57" y="16">新氢</text>
<text font-family="宋体" text-anchor="start" fill="#FFFFFF" shape-type="text" id="" font-size="12.500000" x="25" y="45">循环氢</text>
<text font-family="宋体" text-anchor="start" fill="#FFFFFF" shape-type="text" id="" font-size="12.500000" x="21" y="82">反应产物</text>
<text font-family="宋体" text-anchor="start" fill="#FFFFFF" shape-type="text" id="" font-size="12.500000" x="18" y="120">原料油和混氢去F2101</text>
<text font-family="宋体" text-anchor="start" fill="#FFFFFF" shape-type="text" id="" font-size="12.500000" x="10" y="348">抽余油去C-G103</text>
<text font-family="宋体" text-anchor="start" fill="#FFFFFF" shape-type="text" id="" font-size="12.500000" x="6" y="415">抽余油自P-G106来</text>
<text font-family="宋体" text-anchor="start" fill="#FFFFFF" shape-type="text" id="" font-size="12.500000" x="8" y="589">原料油</text>
<text font-family="宋体" text-anchor="start" fill="#FFFFFF" shape-type="text" id="" font-size="12.500000" x="1470" y="21">去D-2107</text>
<text font-family="宋体" text-anchor="start" fill="#FFFFFF" shape-type="text" id="" font-size="12.500000" x="1440" y="54">稳定塔底油</text>
<text font-family="宋体" text-anchor="start" fill="#FFFFFF" shape-type="text" id="" font-size="12.500000" x="1433" y="84">低分油至稳定</text>
<text font-family="宋体" text-anchor="start" fill="#FFFFFF" shape-type="text" id="" font-size="12.500000" x="1434" y="115">碳七子碳七泵</text>
<text font-family="宋体" text-anchor="start" fill="#FFFFFF" shape-type="text" id="" font-size="12.500000" x="1445" y="450">异构化汽油</text>
<text font-family="宋体" text-anchor="start" fill="#FFFFFF" shape-type="text" id="" font-size="12.500000" x="1484" y="521">低分气</text>
<text font-family="宋体" text-anchor="start" fill="#FFFFFF" shape-type="text" id="" font-size="12.500000" x="1467" y="664">含硫污水</text>
<g shape-type="group">
<polygon shape-type="trapezium" points="805,674 805,682 796,678 796,678 805,674" fill="#FF0000" stroke="#808080" stroke-width="1.00"/>
<polygon shape-type="trapezium" points="788,674 788,682 795,678 795,678 788,674" fill="#FF0000" stroke="#808080" stroke-width="1.00"/>
<line shape-type="limitline" x1="796" y1="676" x2="795" y2="666" fill="#FFFFFF" stroke="#808080" stroke-width="1.00"/>
<path shape-type="chord" d="M 807,666 A 12,12 0 0,0 787,666 z" fill="#C0C0C0" stroke="#FFFFFF" stroke-width="1.00"/>
<polygon shape-type="trapezium" points="793,673 799,673 796,680 796,680 793,673" fill="#808080" stroke="#808080" stroke-width="1.00"/>
</g>
<text font-family="宋体" text-anchor="start" fill="#FFFFFF" shape-type="text" id="" font-size="12.500000" x="305" y="34">FT_2105</text>
<text font-family="宋体" text-anchor="start" fill="#FFFFFF" shape-type="text" id="" font-size="12.500000" x="383" y="100">PV_2103</text>
<text font-family="宋体" text-anchor="start" fill="#FFFFFF" shape-type="text" id="" font-size="12.500000" x="243" y="146">TE_2116</text>
<text font-family="宋体" text-anchor="start" fill="#FFFFFF" shape-type="text" id="" font-size="12.500000" x="244" y="237">TE_2115</text>
<text font-family="宋体" text-anchor="start" fill="#FFFFFF" shape-type="text" id="" font-size="12.500000" x="350" y="233">TE_2118</text>
<text font-family="宋体" text-anchor="start" fill="#FFFFFF" shape-type="text" id="" font-size="12.500000" x="348" y="327">TE_2119</text>
<text font-family="宋体" text-anchor="start" fill="#FFFFFF" shape-type="text" id="" font-size="12.500000" x="56" y="182">TIC2101</text>
<text font-family="宋体" text-anchor="start" fill="#FFFFFF" shape-type="text" id="" font-size="12.500000" x="86" y="297">TV_2101</text>
<text font-family="宋体" text-anchor="start" fill="#FFFFFF" shape-type="text" id="" font-size="12.500000" x="206" y="382">TE_2114</text>
<text font-family="宋体" text-anchor="start" fill="#FFFFFF" shape-type="text" id="" font-size="12.500000" x="218" y="466">TE_2113</text>
<text font-family="宋体" text-anchor="start" fill="#FFFFFF" shape-type="text" id="" font-size="12.500000" x="298" y="529">FV_2102</text>
<text font-family="宋体" text-anchor="start" fill="#FFFFFF" shape-type="text" id="" font-size="12.500000" x="185" y="557">FIC2102</text>
<text font-family="宋体" text-anchor="start" fill="#FFFFFF" shape-type="text" id="" font-size="18.500000" x="529" y="129">E-2102AB</text>
<text font-family="宋体" text-anchor="start" fill="#FFFFFF" shape-type="text" id="" font-size="12.500000" x="645" y="87">PT_2103</text>
<text font-family="宋体" text-anchor="start" fill="#FFFFFF" shape-type="text" id="" font-size="12.500000" x="639" y="205">TE_2121</text>
<text font-family="宋体" text-anchor="start" fill="#FFFFFF" shape-type="text" id="" font-size="12.500000" x="637" y="300">TE_2122</text>
<text font-family="宋体" text-anchor="start" fill="#FFFFFF" shape-type="text" id="" font-size="12.500000" x="619" y="435">LT_2103</text>
<text font-family="宋体" text-anchor="start" fill="#FFFFFF" shape-type="text" id="" font-size="18.500000" x="635" y="476">D-2102</text>
<text font-family="宋体" text-anchor="start" fill="#FFFFFF" shape-type="text" id="" font-size="12.500000" x="621" y="521">LT_2105</text>
<text font-family="宋体" text-anchor="start" fill="#FFFFFF" shape-type="text" id="" font-size="12.500000" x="769" y="508">LIC2104</text>
<text font-family="宋体" text-anchor="start" fill="#FFFFFF" shape-type="text" id="" font-size="12.500000" x="771" y="406">LT_2102</text>
<text font-family="宋体" text-anchor="start" fill="#FFFFFF" shape-type="text" id="" font-size="18.500000" x="932" y="225">E-2103AB</text>
<text font-family="宋体" text-anchor="start" fill="#FFFFFF" shape-type="text" id="" font-size="12.500000" x="967" y="474">PIC2104</text>
<text font-family="宋体" text-anchor="start" fill="#FFFFFF" shape-type="text" id="" font-size="12.500000" x="1006" y="573">LICA10501</text>
<text font-family="宋体" text-anchor="start" fill="#FFFFFF" shape-type="text" id="" font-size="12.500000" x="922" y="617">FIC2106</text>
<text font-family="宋体" text-anchor="start" fill="#FFFFFF" shape-type="text" id="" font-size="18.500000" x="1353" y="368">E-2109</text>
<text font-family="宋体" text-anchor="start" fill="#FFFFFF" shape-type="text" id="" font-size="12.500000" x="1132" y="563">PV_2104</text>
<text font-family="宋体" text-anchor="start" fill="#FFFFFF" shape-type="text" id="" font-size="12.500000" x="1358" y="424">FT_2108</text>
<text font-family="宋体" text-anchor="start" fill="#FFFFFF" shape-type="text" id="" font-size="12.500000" x="1361" y="503">FT_2107</text>
<text font-family="宋体" text-anchor="start" fill="#FFFFFF" shape-type="text" id="" font-size="12.500000" x="1066" y="672">FV_2106</text>
<text font-family="宋体" text-anchor="start" fill="#FFFFFF" shape-type="text" id="" font-size="18.500000" x="1361" y="167">E-2108AB</text>
<text font-family="宋体" text-anchor="start" fill="#FFFFFF" shape-type="text" id="" font-size="12.500000" x="345" y="47">kg/h</text>
<text font-family="宋体" text-anchor="start" fill="#FFFFFF" shape-type="text" id="" font-size="12.500000" x="423" y="115">℃ </text>
<text font-family="宋体" text-anchor="start" fill="#FFFFFF" shape-type="text" id="" font-size="12.500000" x="390" y="250">℃ </text>
<text font-family="宋体" text-anchor="start" fill="#FFFFFF" shape-type="text" id="" font-size="12.500000" x="282" y="165">℃ </text>
<text font-family="宋体" text-anchor="start" fill="#FFFFFF" shape-type="text" id="" font-size="12.500000" x="282" y="255">℃ </text>
<text font-family="宋体" text-anchor="start" fill="#FFFFFF" shape-type="text" id="" font-size="12.500000" x="386" y="348">℃ </text>
<text font-family="宋体" text-anchor="start" fill="#FFFFFF" shape-type="text" id="" font-size="12.500000" x="248" y="399">℃ </text>
<text font-family="宋体" text-anchor="start" fill="#FFFFFF" shape-type="text" id="" font-size="12.500000" x="95" y="200">℃ </text>
<text font-family="宋体" text-anchor="start" fill="#FFFFFF" shape-type="text" id="" font-size="12.500000" x="95" y="220">℃ </text>
<text font-family="宋体" text-anchor="start" fill="#FFFFFF" shape-type="text" id="" font-size="12.500000" x="256" y="488">℃ </text>
<text font-family="宋体" text-anchor="start" fill="#FFFFFF" shape-type="text" id="" font-size="12.500000" x="91" y="488">kg/h</text>
<text font-family="宋体" text-anchor="start" fill="#FFFFFF" shape-type="text" id="" font-size="12.500000" x="50" y="469">FT_2103</text>
<text font-family="宋体" text-anchor="start" fill="#FFFFFF" shape-type="text" id="" font-size="13.250000" x="228" y="574">kg/h</text>
<text font-family="宋体" text-anchor="start" fill="#FFFFFF" shape-type="text" id="" font-size="13.250000" x="228" y="594">kg/h</text>
<text font-family="宋体" text-anchor="start" fill="#FFFFFF" shape-type="text" id="" font-size="12.500000" x="670" y="541">%</text>
<text font-family="宋体" text-anchor="start" fill="#FFFFFF" shape-type="text" id="" font-size="12.500000" x="670" y="450">%</text>
<text font-family="宋体" text-anchor="start" fill="#FFFFFF" shape-type="text" id="" font-size="12.500000" x="818" y="424">%</text>
<text font-family="宋体" text-anchor="start" fill="#FFFFFF" shape-type="text" id="" font-size="12.500000" x="812" y="527">%</text>
<text font-family="宋体" text-anchor="start" fill="#FFFFFF" shape-type="text" id="" font-size="12.500000" x="812" y="547">%</text>
<text font-family="宋体" text-anchor="start" fill="#FFFFFF" shape-type="text" id="" font-size="13.250000" x="951" y="635">kg/h</text>
<text font-family="宋体" text-anchor="start" fill="#FFFFFF" shape-type="text" id="" font-size="13.250000" x="953" y="652">kg/h</text>
<text font-family="宋体" text-anchor="start" fill="#FFFFFF" shape-type="text" id="" font-size="12.500000" x="680" y="321">℃ </text>
<text font-family="宋体" text-anchor="start" fill="#FFFFFF" shape-type="text" id="" font-size="12.500000" x="680" y="224">℃ </text>
<text font-family="宋体" text-anchor="start" fill="#FFFFFF" shape-type="text" id="" font-size="12.500000" x="689" y="104">MPa</text>
<text font-family="宋体" text-anchor="start" fill="#FFFFFF" shape-type="text" id="" font-size="12.500000" x="1013" y="495">MPa</text>
<text font-family="宋体" text-anchor="start" fill="#FFFFFF" shape-type="text" id="" font-size="12.500000" x="1013" y="517">MPa</text>
<text font-family="宋体" text-anchor="start" fill="#FFFFFF" shape-type="text" id="" font-size="12.500000" x="1069" y="592">%</text>
<text font-family="宋体" text-anchor="start" fill="#FFFFFF" shape-type="text" id="" font-size="13.250000" x="1403" y="439">kg/h</text>
<text font-family="宋体" text-anchor="start" fill="#FFFFFF" shape-type="text" id="" font-size="13.250000" x="1401" y="521">Nm3/h</text>
<text font-family="宋体" text-anchor="start" fill="#000000" shape-type="text" id="" font-size="12.500000" x="282" y="189">E-2101B</text>
<text font-family="宋体" text-anchor="start" fill="#000000" shape-type="text" id="" font-size="12.500000" x="281" y="292">E-2101C</text>
<text font-family="宋体" text-anchor="start" fill="#000000" shape-type="text" id="" font-size="12.500000" x="280" y="396">E-2101D</text>
<text font-family="宋体" text-anchor="start" fill="#FFFFFF" shape-type="text" id="" font-size="18.500000" x="556" y="281">E-2111</text>
<line shape-type="limitline" x1="88" y1="167" x2="88" y2="127" fill="#FFFFFF" stroke="#FFFFFF" stroke-width="1.00" stroke-dasharray="5 10"/>
<line shape-type="limitline" x1="82" y1="256" x2="82" y2="223" fill="#FFFFFF" stroke="#FFFFFF" stroke-width="1.00" stroke-dasharray="5 10"/>
<line shape-type="limitline" x1="140" y1="256" x2="82" y2="256" fill="#FFFFFF" stroke="#FFFFFF" stroke-width="1.00" stroke-dasharray="5 10"/>
<line shape-type="limitline" x1="641" y1="76" x2="451" y2="76" fill="#FFFFFF" stroke="#FFFFFF" stroke-width="1.00" stroke-dasharray="5 10"/>
<line shape-type="limitline" x1="217" y1="519" x2="272" y2="519" fill="#FFFFFF" stroke="#FFFFFF" stroke-width="1.00" stroke-dasharray="5 10"/>
<line shape-type="limitline" x1="218" y1="545" x2="218" y2="519" fill="#FFFFFF" stroke="#FFFFFF" stroke-width="1.00" stroke-dasharray="5 10"/>
<line shape-type="limitline" x1="288" y1="572" x2="254" y2="572" fill="#FFFFFF" stroke="#FFFFFF" stroke-width="1.00" stroke-dasharray="5 10"/>
<line shape-type="limitline" x1="1046" y1="607" x2="976" y2="607" fill="#FFFFFF" stroke="#FFFFFF" stroke-width="1.00" stroke-dasharray="5 10"/>
<line shape-type="limitline" x1="1046" y1="639" x2="1046" y2="607" fill="#FFFFFF" stroke="#FFFFFF" stroke-width="1.00" stroke-dasharray="5 10"/>
<line shape-type="limitline" x1="1160" y1="491" x2="1047" y2="491" fill="#FFFFFF" stroke="#FFFFFF" stroke-width="1.00" stroke-dasharray="5 10"/>
<line shape-type="limitline" x1="1161" y1="518" x2="1161" y2="491" fill="#FFFFFF" stroke="#FFFFFF" stroke-width="1.00" stroke-dasharray="5 10"/>
<text font-family="宋体" text-anchor="start" fill="#000000" shape-type="text" id="" font-size="12.500000" x="901" y="589">E-G104</text>
<text font-family="宋体" text-anchor="start" fill="#FF8040" shape-type="text" id="" font-size="18.500000" x="641" y="23">原料及产品换热</text>
<text font-family="宋体" text-anchor="start" fill="#FFFFFF" shape-type="text" id="" font-size="18.500000" x="261" y="677">P_G108A/B</text>
<text font-family="宋体" text-anchor="start" fill="#FFFFFF" shape-type="text" id="" font-size="12.500000" x="775" y="697">LV_2104</text>
<a xlink:href="异构化总图.svg">
<g shape-type="button">
<rect fill="#C0C0C0" stroke-width="0.3" stroke="#FFFFFF" x="1462" y="708" width="51" height="29" shape-type="buttonrect"/>
<text font-family="宋体" text-anchor="middle" dominant-baseline="middle" fill="#000000" font-size="13.500000" x="1487" y="728" shape-type="buttontext">返回</text>
</g>
</a>
</svg>