<?xml version="1.0"?>
<?xml-stylesheet type='text/javascript'?>
<!--Draw SVG: 2019-11-25 09:41:00 47-Monday-->
<svg xmlns="http://www.w3.org/2000/svg" xmlns:xlink="http://www.w3.org/1999/xlink" version="1.1" style="background-color:#000000" width="1066" height="800" viewbox="0 0 1066 800">
<defs>
<linearGradient x1="0.000000%" y1="50.000000%" x2="100.000000%" y2="50.000000%" id="lgradient5_0">
<stop offset="0" stop-color="#2C2C2C" stop-opacity="1"/>
<stop offset="0.5" stop-color="#FFFFFF" stop-opacity="1"/>
<stop offset="1" stop-color="#2C2C2C" stop-opacity="1"/>
</linearGradient>
<linearGradient x1="0.000000%" y1="50.000000%" x2="100.000000%" y2="50.000000%" id="lgradient5_1">
<stop offset="0" stop-color="#2C2C2C" stop-opacity="1"/>
<stop offset="0.5" stop-color="#FFFFFF" stop-opacity="1"/>
<stop offset="1" stop-color="#2C2C2C" stop-opacity="1"/>
</linearGradient>
<linearGradient x1="0.000000%" y1="50.000000%" x2="100.000000%" y2="50.000000%" id="lgradient33">
<stop offset="0" stop-color="#2C2C2C" stop-opacity="1"/>
<stop offset="0.5" stop-color="#FFFFFF" stop-opacity="1"/>
<stop offset="1" stop-color="#2C2C2C" stop-opacity="1"/>
</linearGradient>
<linearGradient x1="0.000000%" y1="50.000000%" x2="100.000000%" y2="50.000000%" id="lgradient34">
<stop offset="0" stop-color="#2C2C2C" stop-opacity="1"/>
<stop offset="0.5" stop-color="#FFFFFF" stop-opacity="1"/>
<stop offset="1" stop-color="#2C2C2C" stop-opacity="1"/>
</linearGradient>
<linearGradient x1="0.000000%" y1="50.000000%" x2="100.000000%" y2="50.000000%" id="lgradient35_0">
<stop offset="0" stop-color="#2C2C2C" stop-opacity="1"/>
<stop offset="0.5" stop-color="#FFFFFF" stop-opacity="1"/>
<stop offset="1" stop-color="#2C2C2C" stop-opacity="1"/>
</linearGradient>
<linearGradient x1="0.000000%" y1="50.000000%" x2="100.000000%" y2="50.000000%" id="lgradient35_1">
<stop offset="0" stop-color="#2C2C2C" stop-opacity="1"/>
<stop offset="0.5" stop-color="#FFFFFF" stop-opacity="1"/>
<stop offset="1" stop-color="#2C2C2C" stop-opacity="1"/>
</linearGradient>
<linearGradient x1="0.000000%" y1="50.000000%" x2="100.000000%" y2="50.000000%" id="lgradient36_0">
<stop offset="0" stop-color="#2C2C2C" stop-opacity="1"/>
<stop offset="0.5" stop-color="#FFFFFF" stop-opacity="1"/>
<stop offset="1" stop-color="#2C2C2C" stop-opacity="1"/>
</linearGradient>
<linearGradient x1="0.000000%" y1="50.000000%" x2="100.000000%" y2="50.000000%" id="lgradient36_1">
<stop offset="0" stop-color="#2C2C2C" stop-opacity="1"/>
<stop offset="0.5" stop-color="#FFFFFF" stop-opacity="1"/>
<stop offset="1" stop-color="#2C2C2C" stop-opacity="1"/>
</linearGradient>
<linearGradient x1="0.000000%" y1="50.000000%" x2="100.000000%" y2="50.000000%" id="lgradient37_0">
<stop offset="0" stop-color="#2C2C2C" stop-opacity="1"/>
<stop offset="0.5" stop-color="#FFFFFF" stop-opacity="1"/>
<stop offset="1" stop-color="#2C2C2C" stop-opacity="1"/>
</linearGradient>
<linearGradient x1="0.000000%" y1="50.000000%" x2="100.000000%" y2="50.000000%" id="lgradient37_1">
<stop offset="0" stop-color="#2C2C2C" stop-opacity="1"/>
<stop offset="0.5" stop-color="#FFFFFF" stop-opacity="1"/>
<stop offset="1" stop-color="#2C2C2C" stop-opacity="1"/>
</linearGradient>
<linearGradient x1="50.000000%" y1="0.000000%" x2="50.000000%" y2="100.000000%" id="lgradient38_0">
<stop offset="0" stop-color="#2C2C2C" stop-opacity="1"/>
<stop offset="0.5" stop-color="#FFFFFF" stop-opacity="1"/>
<stop offset="1" stop-color="#2C2C2C" stop-opacity="1"/>
</linearGradient>
<linearGradient x1="50.000000%" y1="0.000000%" x2="50.000000%" y2="100.000000%" id="lgradient38_1">
<stop offset="0" stop-color="#2C2C2C" stop-opacity="1"/>
<stop offset="0.5" stop-color="#FFFFFF" stop-opacity="1"/>
<stop offset="1" stop-color="#2C2C2C" stop-opacity="1"/>
</linearGradient>
<linearGradient x1="50.000000%" y1="0.000000%" x2="50.000000%" y2="100.000000%" id="lgradient39_0">
<stop offset="0" stop-color="#2C2C2C" stop-opacity="1"/>
<stop offset="0.5" stop-color="#FFFFFF" stop-opacity="1"/>
<stop offset="1" stop-color="#2C2C2C" stop-opacity="1"/>
</linearGradient>
<linearGradient x1="50.000000%" y1="0.000000%" x2="50.000000%" y2="100.000000%" id="lgradient39_1">
<stop offset="0" stop-color="#2C2C2C" stop-opacity="1"/>
<stop offset="0.5" stop-color="#FFFFFF" stop-opacity="1"/>
<stop offset="1" stop-color="#2C2C2C" stop-opacity="1"/>
</linearGradient>
<linearGradient x1="50.000000%" y1="0.000000%" x2="50.000000%" y2="100.000000%" id="lgradient40_0">
<stop offset="0" stop-color="#2C2C2C" stop-opacity="1"/>
<stop offset="0.5" stop-color="#FFFFFF" stop-opacity="1"/>
<stop offset="1" stop-color="#2C2C2C" stop-opacity="1"/>
</linearGradient>
<linearGradient x1="50.000000%" y1="0.000000%" x2="50.000000%" y2="100.000000%" id="lgradient40_1">
<stop offset="0" stop-color="#2C2C2C" stop-opacity="1"/>
<stop offset="0.5" stop-color="#FFFFFF" stop-opacity="1"/>
<stop offset="1" stop-color="#2C2C2C" stop-opacity="1"/>
</linearGradient>
<linearGradient x1="0.000000%" y1="50.000000%" x2="100.000000%" y2="50.000000%" id="lgradient41_0">
<stop offset="0" stop-color="#2C2C2C" stop-opacity="1"/>
<stop offset="0.5" stop-color="#FFFFFF" stop-opacity="1"/>
<stop offset="1" stop-color="#2C2C2C" stop-opacity="1"/>
</linearGradient>
<linearGradient x1="0.000000%" y1="50.000000%" x2="100.000000%" y2="50.000000%" id="lgradient41_1">
<stop offset="0" stop-color="#2C2C2C" stop-opacity="1"/>
<stop offset="0.5" stop-color="#FFFFFF" stop-opacity="1"/>
<stop offset="1" stop-color="#2C2C2C" stop-opacity="1"/>
</linearGradient>
<linearGradient x1="0.000000%" y1="50.000000%" x2="100.000000%" y2="50.000000%" id="lgradient54">
<stop offset="0" stop-color="#111111" stop-opacity="1"/>
<stop offset="0.5" stop-color="#636563" stop-opacity="1"/>
<stop offset="1" stop-color="#111111" stop-opacity="1"/>
</linearGradient>
</defs>
<rect shape-type="rectangle" x="0" y="1" width="1065" height="38" fill="#636563" stroke="#808080" stroke-width="1.00"/>
<rect shape-type="rectangle" x="282" y="3" width="500" height="33" stroke="#000000" stroke-width="1.00"/>
<text font-family="宋体" text-anchor="start" fill="#FFFFFF" shape-type="text" id="" font-size="26.750000" font-weight="bold" x="459" y="30">硫酸储运</text>
<a xlink:href="\储运部\液体储运\无机罐区\WJGQ_ML.svg">
<g shape-type="button">
<rect fill="#C0C0C0" stroke-width="0.3" stroke="#FFFFFF" x="960" y="3" width="100" height="33" shape-type="buttonrect"/>
<text font-family="宋体" text-anchor="middle" dominant-baseline="middle" fill="#800000" font-size="13.500000" font-weight="bold" x="1010" y="26" shape-type="buttontext">返回上一级</text>
</g>
</a>
<g shape-type="group">
<rect shape-type="rectangle" x="326" y="253" width="8" height="18" fill="url(#lgradient5_0)" stroke="#000000" stroke-width="1.00"/>
<rect shape-type="rectangle" x="320" y="252" width="23" height="11" fill="url(#lgradient5_1)" stroke="#000000" stroke-width="1.00"/>
</g>
<line shape-type="limitline" x1="263" y1="147" x2="263" y2="269" fill="#00FFFF" stroke="#9C6931" stroke-width="3.00"/>
<line shape-type="limitline" x1="735" y1="148" x2="263" y2="148" fill="#00FFFF" stroke="#9C6931" stroke-width="3.00"/>
<line shape-type="limitline" x1="735" y1="186" x2="735" y2="148" fill="#00FFFF" stroke="#9C6931" stroke-width="3.00"/>
<line shape-type="limitline" x1="366" y1="283" x2="366" y2="254" fill="#00FFFF" stroke="#9C6931" stroke-width="3.00"/>
<line shape-type="limitline" x1="614" y1="255" x2="367" y2="255" fill="#00FFFF" stroke="#9C6931" stroke-width="3.00"/>
<line shape-type="limitline" x1="616" y1="190" x2="616" y2="555" fill="#00FFFF" stroke="#9C6931" stroke-width="3.00"/>
<line shape-type="limitline" x1="832" y1="189" x2="615" y2="189" fill="#00FFFF" stroke="#9C6931" stroke-width="3.00"/>
<line shape-type="limitline" x1="729" y1="471" x2="617" y2="471" fill="#00FFFF" stroke="#9C6931" stroke-width="3.00"/>
<line shape-type="limitline" x1="729" y1="552" x2="729" y2="470" fill="#00FFFF" stroke="#9C6931" stroke-width="3.00"/>
<line shape-type="limitline" x1="699" y1="570" x2="645" y2="570" fill="#00FFFF" stroke="#9C6931" stroke-width="3.00"/>
<line shape-type="limitline" x1="645" y1="635" x2="645" y2="570" fill="#00FFFF" stroke="#9C6931" stroke-width="3.00"/>
<line shape-type="limitline" x1="437" y1="636" x2="645" y2="636" fill="#00FFFF" stroke="#9C6931" stroke-width="3.00"/>
<line shape-type="limitline" x1="437" y1="635" x2="437" y2="483" fill="#00FFFF" stroke="#9C6931" stroke-width="3.00"/>
<line shape-type="limitline" x1="437" y1="483" x2="358" y2="483" fill="#00FFFF" stroke="#9C6931" stroke-width="3.00"/>
<line shape-type="limitline" x1="523" y1="636" x2="523" y2="569" fill="#00FFFF" stroke="#9C6931" stroke-width="3.00"/>
<line shape-type="limitline" x1="591" y1="569" x2="522" y2="569" fill="#00FFFF" stroke="#9C6931" stroke-width="3.00"/>
<rect shape-type="rectangle" x="284" y="192" width="62" height="26" fill="#4A494A" stroke="#C0C0C0" stroke-width="3.00"/>
<rect shape-type="rectangle" x="346" y="192" width="38" height="26" fill="#4A494A" stroke="#C0C0C0" stroke-width="3.00"/>
<text font-family="宋体" text-anchor="start" fill="#00FF42" shape-type="text" id="" font-size="9.500000" font-weight="bold" x="358" y="208">mm</text>
<rect shape-type="rectangle" x="659" y="234" width="62" height="26" fill="#4A494A" stroke="#C0C0C0" stroke-width="3.00"/>
<rect shape-type="rectangle" x="721" y="234" width="38" height="26" fill="#4A494A" stroke="#C0C0C0" stroke-width="3.00"/>
<text font-family="宋体" text-anchor="start" fill="#00FF42" shape-type="text" id="" font-size="9.500000" font-weight="bold" x="727" y="250">m3/h</text>
<text font-family="宋体" text-anchor="start" fill="#FFFFFF" shape-type="text" id="" font-size="9.500000" font-weight="bold" x="843" y="193">TO硫酸磷肥部磷酸装置</text>
<text font-family="宋体" text-anchor="start" fill="#FFFFFF" shape-type="text" id="" font-size="9.500000" font-weight="bold" x="689" y="617">P0001A</text>
<text font-family="宋体" text-anchor="start" fill="#FFFFFF" shape-type="text" id="" font-size="9.500000" font-weight="bold" x="577" y="617">P0001A</text>
<text font-family="宋体" text-anchor="start" fill="#FFFFFF" shape-type="text" id="" font-size="9.500000" font-weight="bold" x="565" y="655">硫酸输送泵</text>
<g shape-type="group">
<rect shape-type="rectangle" x="819" y="186" width="11" height="6" fill="#9C6931" stroke="#9C6931" stroke-width="1.00"/>
<polygon shape-type="trapezium" points="829,183 829,195 838,189 838,189 829,183" fill="#9C6931" stroke="#9C6931" stroke-width="1.00"/>
</g>
<rect shape-type="roundRectangle" rx="20" ry="20" x="158" y="265" width="221" height="98" fill="url(#lgradient33)" stroke="#000000" stroke-width="1.00"/>
<rect shape-type="rectangle" x="158" y="293" width="221" height="197" fill="url(#lgradient34)" stroke="#000000" stroke-width="1.00"/>
<g shape-type="group">
<polygon shape-type="trapezium" points="571,248 571,261 580,255 580,255 571,248" fill="url(#lgradient35_0)" stroke="#808080" stroke-width="1.00"/>
<polygon shape-type="trapezium" points="592,248 592,261 580,255 580,255 592,248" fill="url(#lgradient35_1)" stroke="#808080" stroke-width="1.00"/>
</g>
<g shape-type="group">
<polygon shape-type="trapezium" points="540,563 540,575 549,569 549,569 540,563" fill="url(#lgradient36_0)" stroke="#808080" stroke-width="1.00"/>
<polygon shape-type="trapezium" points="561,563 561,575 549,569 549,569 561,563" fill="url(#lgradient36_1)" stroke="#808080" stroke-width="1.00"/>
</g>
<g shape-type="group">
<polygon shape-type="trapezium" points="656,563 656,575 666,569 666,569 656,563" fill="url(#lgradient37_0)" stroke="#808080" stroke-width="1.00"/>
<polygon shape-type="trapezium" points="677,563 677,575 666,569 666,569 677,563" fill="url(#lgradient37_1)" stroke="#808080" stroke-width="1.00"/>
</g>
<g shape-type="group">
<polygon shape-type="trapezium" points="723,494 735,494 729,503 729,503 723,494" fill="url(#lgradient38_0)" stroke="#808080" stroke-width="1.00"/>
<polygon shape-type="trapezium" points="723,515 735,515 729,503 729,503 723,515" fill="url(#lgradient38_1)" stroke="#808080" stroke-width="1.00"/>
</g>
<g shape-type="group">
<polygon shape-type="trapezium" points="610,496 622,496 616,505 616,505 610,496" fill="url(#lgradient39_0)" stroke="#808080" stroke-width="1.00"/>
<polygon shape-type="trapezium" points="610,517 622,517 616,505 616,505 610,517" fill="url(#lgradient39_1)" stroke="#808080" stroke-width="1.00"/>
</g>
<g shape-type="group">
<polygon shape-type="trapezium" points="610,382 622,382 616,392 616,392 610,382" fill="url(#lgradient40_0)" stroke="#808080" stroke-width="1.00"/>
<polygon shape-type="trapezium" points="610,403 622,403 616,392 616,392 610,403" fill="url(#lgradient40_1)" stroke="#808080" stroke-width="1.00"/>
</g>
<g shape-type="group">
<polygon shape-type="trapezium" points="396,476 396,489 405,483 405,483 396,476" fill="url(#lgradient41_0)" stroke="#808080" stroke-width="1.00"/>
<polygon shape-type="trapezium" points="417,476 417,489 405,483 405,483 417,476" fill="url(#lgradient41_1)" stroke="#808080" stroke-width="1.00"/>
</g>
<g shape-type="group">
<polygon shape-type="trapezium" points="624,591 577,591 586,581 616,581 624,591" fill="#808080" stroke="#000000" stroke-width="1.00"/>
<g shape-type="group">
<g shape-type="group">
<ellipse shape-type="ellipse" cx="600" cy="567" rx="22" ry="21" stroke="#000000" stroke-width="1.00"/>
<ellipse shape-type="ellipse" cx="600" cy="567" rx="22" ry="21" fill="#D8D8D8" stroke="#000000" stroke-width="1.00"/>
<path shape-type="arc" d="M 592,584 A 21,18 0 1,0 606,549" fill="none" stroke="#000000" stroke-width="1.00"/>
</g>
<g shape-type="group">
<g shape-type="group">
<ellipse shape-type="ellipse" cx="599" cy="566" rx="8" ry="9" fill="#A2A2A2" stroke="#000000" stroke-width="1.00"/>
<ellipse shape-type="ellipse" cx="598" cy="565" rx="6" ry="7" stroke="#000000" stroke-width="1.00"/>
</g>
<line shape-type="line" x1="596" y1="571" x2="603" y2="558" fill="#00FFFF" stroke="#C0C0C0" stroke-width="1.00"/>
<line shape-type="line" x1="603" y1="570" x2="594" y2="560" fill="#00FFFF" stroke="#C0C0C0" stroke-width="1.00"/>
<line shape-type="line" x1="606" y1="566" x2="592" y2="566" fill="#00FFFF" stroke="#C0C0C0" stroke-width="1.00"/>
<ellipse shape-type="ellipse" cx="599" cy="566" rx="2" ry="2" fill="#FFFFFF" stroke="#000000" stroke-width="1.00"/>
</g>
</g>
</g>
<g shape-type="group">
<polygon shape-type="trapezium" points="742,591 695,591 704,581 734,581 742,591" fill="#808080" stroke="#000000" stroke-width="1.00"/>
<g shape-type="group">
<g shape-type="group">
<ellipse shape-type="ellipse" cx="718" cy="568" rx="22" ry="21" stroke="#000000" stroke-width="1.00"/>
<ellipse shape-type="ellipse" cx="718" cy="567" rx="22" ry="20" fill="#D8D8D8" stroke="#000000" stroke-width="1.00"/>
<path shape-type="arc" d="M 710,584 A 21,18 0 1,0 724,550" fill="none" stroke="#000000" stroke-width="1.00"/>
</g>
<g shape-type="group">
<g shape-type="group">
<ellipse shape-type="ellipse" cx="717" cy="566" rx="9" ry="8" fill="#A2A2A2" stroke="#000000" stroke-width="1.00"/>
<ellipse shape-type="ellipse" cx="716" cy="566" rx="7" ry="7" stroke="#000000" stroke-width="1.00"/>
</g>
<line shape-type="line" x1="714" y1="571" x2="721" y2="559" fill="#00FFFF" stroke="#C0C0C0" stroke-width="1.00"/>
<line shape-type="line" x1="721" y1="570" x2="711" y2="560" fill="#00FFFF" stroke="#C0C0C0" stroke-width="1.00"/>
<line shape-type="line" x1="724" y1="566" x2="709" y2="566" fill="#00FFFF" stroke="#C0C0C0" stroke-width="1.00"/>
<ellipse shape-type="ellipse" cx="717" cy="567" rx="2" ry="2" fill="#FFFFFF" stroke="#000000" stroke-width="1.00"/>
</g>
</g>
</g>
<line shape-type="limitline" x1="332" y1="249" x2="332" y2="217" fill="#00FFFF" stroke="#FFFFFF" stroke-width="3.00" stroke-dasharray="5 10"/>
<line shape-type="limitline" x1="688" y1="229" x2="688" y2="189" fill="#00FFFF" stroke="#FFFFFF" stroke-width="3.00" stroke-dasharray="5 10"/>
<text font-family="宋体" text-anchor="start" fill="#FFFFFF" shape-type="text" id="" font-size="9.500000" font-weight="bold" x="679" y="653">硫酸输送泵</text>
<line shape-type="limitline" x1="308" y1="378" x2="161" y2="378" fill="#00FFFF" stroke="#FF0000" stroke-width="3.00"/>
<line shape-type="limitline" x1="307" y1="444" x2="160" y2="444" fill="#00FFFF" stroke="#FF0000" stroke-width="3.00"/>
<line shape-type="line" x1="171" y1="398" x2="309" y2="379" fill="#00FFFF" stroke="#FF0000" stroke-width="3.00"/>
<line shape-type="line" x1="302" y1="407" x2="171" y2="398" fill="#00FFFF" stroke="#FF0000" stroke-width="3.00"/>
<line shape-type="line" x1="171" y1="426" x2="302" y2="407" fill="#00FFFF" stroke="#FF0000" stroke-width="3.00"/>
<line shape-type="line" x1="305" y1="443" x2="171" y2="426" fill="#00FFFF" stroke="#FF0000" stroke-width="3.00"/>
<text font-family="宋体" text-anchor="start" fill="#000000" shape-type="text" id="" font-size="12.500000" font-weight="bold" x="243" y="345">T0001</text>
<rect shape-type="rectangle" x="0" y="757" width="1066" height="43" fill="url(#lgradient54)" stroke="#636563" stroke-width="1.00"/>
<a xlink:href="32%烧碱储运.svg">
<g shape-type="button">
<rect fill="#C0C0C0" stroke-width="0.3" stroke="#FFFFFF" x="15" y="760" width="118" height="32" shape-type="buttonrect"/>
<text font-family="宋体" text-anchor="middle" dominant-baseline="middle" fill="#000000" font-size="12.000000" x="74" y="782" shape-type="buttontext">32%烧碱储运</text>
</g>
</a>
<a xlink:href="硫酸储运.svg">
<g shape-type="button">
<rect fill="#C0C0C0" stroke-width="0.3" stroke="#FFFFFF" x="148" y="760" width="117" height="32" shape-type="buttonrect"/>
<text font-family="宋体" text-anchor="middle" dominant-baseline="middle" fill="#000000" font-size="12.000000" x="207" y="782" shape-type="buttontext">硫酸储运</text>
</g>
</a>
<a xlink:href="氯化钾母液储运.svg">
<g shape-type="button">
<rect fill="#C0C0C0" stroke-width="0.3" stroke="#FFFFFF" x="278" y="760" width="121" height="32" shape-type="buttonrect"/>
<text font-family="宋体" text-anchor="middle" dominant-baseline="middle" fill="#000000" font-size="12.000000" x="339" y="782" shape-type="buttontext">氯化钾母液储运</text>
</g>
</a>
<a xlink:href="盐酸储运一.svg">
<g shape-type="button">
<rect fill="#C0C0C0" stroke-width="0.3" stroke="#FFFFFF" x="408" y="760" width="121" height="32" shape-type="buttonrect"/>
<text font-family="宋体" text-anchor="middle" dominant-baseline="middle" fill="#000000" font-size="12.000000" x="469" y="782" shape-type="buttontext">盐酸储运一</text>
</g>
</a>
<a xlink:href="盐酸储运二.svg">
<g shape-type="button">
<rect fill="#C0C0C0" stroke-width="0.3" stroke="#FFFFFF" x="542" y="760" width="116" height="32" shape-type="buttonrect"/>
<text font-family="宋体" text-anchor="middle" dominant-baseline="middle" fill="#000000" font-size="12.000000" x="600" y="782" shape-type="buttontext">盐酸储运二</text>
</g>
</a>
<a xlink:href="盐酸储运三.svg">
<g shape-type="button">
<rect fill="#C0C0C0" stroke-width="0.3" stroke="#FFFFFF" x="674" y="760" width="121" height="32" shape-type="buttonrect"/>
<text font-family="宋体" text-anchor="middle" dominant-baseline="middle" fill="#000000" font-size="12.000000" x="734" y="782" shape-type="buttontext">盐酸储运三</text>
</g>
</a>
<text font-family="Arial" text-anchor="start" fill="#00FFFF" shape-type="realdata" id="CYB_YTCY_LT_0001" font-size="12.500000" x="290" y="209">XXXX</text>
<text font-family="Arial" text-anchor="start" fill="#00FFFF" shape-type="realdata" id="CYB_YTCY_FT_0003" font-size="12.500000" x="664" y="251">XXXX</text>
</svg>
