<?xml version="1.0"?>
<?xml-stylesheet type='text/javascript'?>
<!--Draw SVG: 2019-11-25 09:41:26 47-Monday-->
<svg xmlns="http://www.w3.org/2000/svg" xmlns:xlink="http://www.w3.org/1999/xlink" version="1.1" style="background-color:#000000" width="1422" height="800" viewbox="0 0 1422 800">
<defs>
<linearGradient x1="0.000000%" y1="50.000000%" x2="100.000000%" y2="50.000000%" id="lgradient5">
<stop offset="0" stop-color="#111111" stop-opacity="1"/>
<stop offset="0.5" stop-color="#636563" stop-opacity="1"/>
<stop offset="1" stop-color="#111111" stop-opacity="1"/>
</linearGradient>
</defs>
<rect shape-type="rectangle" x="2" y="1" width="1422" height="38" fill="#636563" stroke="#808080" stroke-width="1.00"/>
<rect shape-type="rectangle" x="460" y="3" width="500" height="33" stroke="#000000" stroke-width="1.00"/>
<text font-family="宋体" text-anchor="start" fill="#FFFFFF" shape-type="text" id="" font-size="28.250000" font-weight="bold" x="547" y="31">PSA关联流程示意图</text>
<a xlink:href="PSA3_ML.svg">
<g shape-type="button">
<rect fill="#C0C0C0" stroke-width="0.3" stroke="#FFFFFF" x="1306" y="1" width="100" height="33" shape-type="buttonrect"/>
<text font-family="宋体" text-anchor="middle" dominant-baseline="middle" fill="#800000" font-size="13.500000" font-weight="bold" x="1356" y="24" shape-type="buttontext">返回上一级</text>
</g>
</a>
<rect shape-type="rectangle" x="0" y="756" width="1422" height="44" fill="url(#lgradient5)" stroke="#636563" stroke-width="1.00"/>
<text font-family="宋体" text-anchor="start" fill="#FFFFFF" shape-type="text" id="" font-size="14.000000" font-weight="bold" x="-18" y="257">合成氨装置合成气</text>
<line shape-type="limitline" x1="39" y1="282" x2="522" y2="283" fill="#00FFFF" stroke="#00FFFF" stroke-width="3.00"/>
<line shape-type="limitline" x1="523" y1="140" x2="522" y2="604" fill="#00FFFF" stroke="#00FFFF" stroke-width="3.00"/>
<polygon shape-type="trapezium" points="139,145 139,134 154,139 154,139 139,145" fill="#FFFFFF" stroke="#00FFFF" stroke-width="1.00"/>
<line shape-type="limitline" x1="46" y1="140" x2="522" y2="141" fill="#00FFFF" stroke="#00FFFF" stroke-width="3.00"/>
<text font-family="宋体" text-anchor="start" fill="#FFFFFF" shape-type="text" id="" font-size="14.750000" font-weight="bold" x="600" y="260">2#PSA</text>
<polygon shape-type="trapezium" points="142,286 142,275 157,280 157,280 142,286" fill="#FFFFFF" stroke="#00FFFF" stroke-width="1.00"/>
<g shape-type="group">
<path shape-type="pie" d="M 310,274 A 16,8 0 0,0 278,274 L 295,274 z" fill="#00FF40" stroke="#000000" stroke-width="1.00"/>
<line shape-type="limitline" x1="291" y1="274" x2="290" y2="282" fill="#00FF40" stroke="#000000" stroke-width="1.00"/>
<line shape-type="limitline" x1="297" y1="274" x2="296" y2="282" fill="#00FF40" stroke="#000000" stroke-width="1.00"/>
<g shape-type="group">
<polygon shape-type="trapezium" points="270,278 270,289 293,284 293,284 270,278" fill="#00FF40" stroke="#000000" stroke-width="1.00"/>
<polygon shape-type="trapezium" points="318,289 318,278 294,283 294,283 318,289" fill="#00FF40" stroke="#000000" stroke-width="1.00"/>
</g>
</g>
<g shape-type="group">
<path shape-type="pie" d="M 443,275 A 17,8 0 0,0 411,275 L 428,275 z" fill="#00FF40" stroke="#000000" stroke-width="1.00"/>
<line shape-type="limitline" x1="424" y1="275" x2="423" y2="283" fill="#00FF40" stroke="#000000" stroke-width="1.00"/>
<line shape-type="limitline" x1="430" y1="275" x2="429" y2="283" fill="#00FF40" stroke="#000000" stroke-width="1.00"/>
<g shape-type="group">
<polygon shape-type="trapezium" points="403,279 403,290 426,285 426,285 403,279" fill="#00FF40" stroke="#000000" stroke-width="1.00"/>
<polygon shape-type="trapezium" points="451,290 451,279 427,284 427,284 451,290" fill="#00FF40" stroke="#000000" stroke-width="1.00"/>
</g>
</g>
<g shape-type="group">
<path shape-type="pie" d="M 816,174 A 17,8 0 0,0 784,174 L 801,174 z" fill="#00FF40" stroke="#000000" stroke-width="1.00"/>
<line shape-type="limitline" x1="797" y1="174" x2="796" y2="182" fill="#00FF40" stroke="#000000" stroke-width="1.00"/>
<line shape-type="limitline" x1="803" y1="174" x2="802" y2="182" fill="#00FF40" stroke="#000000" stroke-width="1.00"/>
<g shape-type="group">
<polygon shape-type="trapezium" points="776,178 776,189 799,184 799,184 776,178" fill="#00FF40" stroke="#000000" stroke-width="1.00"/>
<polygon shape-type="trapezium" points="824,189 824,178 800,183 800,183 824,189" fill="#00FF40" stroke="#000000" stroke-width="1.00"/>
</g>
</g>
<g shape-type="group">
<path shape-type="pie" d="M 784,521 A 16,8 0 0,0 753,521 L 769,521 z" fill="#00FF40" stroke="#000000" stroke-width="1.00"/>
<line shape-type="limitline" x1="766" y1="521" x2="765" y2="528" fill="#00FF40" stroke="#000000" stroke-width="1.00"/>
<line shape-type="limitline" x1="771" y1="521" x2="770" y2="528" fill="#00FF40" stroke="#000000" stroke-width="1.00"/>
<g shape-type="group">
<polygon shape-type="trapezium" points="745,524 745,534 768,529 768,529 745,524" fill="#00FF40" stroke="#000000" stroke-width="1.00"/>
<polygon shape-type="trapezium" points="792,534 792,524 768,529 768,529 792,534" fill="#00FF40" stroke="#000000" stroke-width="1.00"/>
</g>
</g>
<line shape-type="limitline" x1="208" y1="280" x2="207" y2="343" fill="#00FFFF" stroke="#00FFFF" stroke-width="3.00"/>
<line shape-type="limitline" x1="483" y1="344" x2="209" y2="345" fill="#00FFFF" stroke="#00FFFF" stroke-width="3.00"/>
<line shape-type="limitline" x1="480" y1="281" x2="479" y2="344" fill="#00FFFF" stroke="#00FFFF" stroke-width="3.00"/>
<line shape-type="limitline" x1="523" y1="603" x2="578" y2="604" fill="#00FFFF" stroke="#00FFFF" stroke-width="3.00"/>
<line shape-type="limitline" x1="524" y1="255" x2="580" y2="256" fill="#00FFFF" stroke="#00FFFF" stroke-width="3.00"/>
<line shape-type="limitline" x1="556" y1="253" x2="555" y2="140" fill="#00FFFF" stroke="#00FFFF" stroke-width="3.00"/>
<line shape-type="limitline" x1="558" y1="139" x2="1280" y2="140" fill="#00FFFF" stroke="#00FFFF" stroke-width="3.00"/>
<g shape-type="group">
<line shape-type="limitline" x1="585" y1="389" x2="681" y2="390" fill="#00FFFF" stroke="#FFFFFF" stroke-width="3.00"/>
<line shape-type="limitline" x1="585" y1="353" x2="681" y2="354" fill="#00FFFF" stroke="#FFFFFF" stroke-width="3.00"/>
<line shape-type="limitline" x1="585" y1="352" x2="584" y2="389" fill="#00FFFF" stroke="#FFFFFF" stroke-width="3.00"/>
<line shape-type="limitline" x1="685" y1="391" x2="684" y2="353" fill="#00FFFF" stroke="#FFFFFF" stroke-width="3.00"/>
</g>
<g shape-type="group">
<line shape-type="limitline" x1="580" y1="622" x2="676" y2="623" fill="#00FFFF" stroke="#FFFFFF" stroke-width="3.00"/>
<line shape-type="limitline" x1="580" y1="586" x2="676" y2="587" fill="#00FFFF" stroke="#FFFFFF" stroke-width="3.00"/>
<line shape-type="limitline" x1="580" y1="585" x2="579" y2="622" fill="#00FFFF" stroke="#FFFFFF" stroke-width="3.00"/>
<line shape-type="limitline" x1="680" y1="623" x2="679" y2="586" fill="#00FFFF" stroke="#FFFFFF" stroke-width="3.00"/>
</g>
<g shape-type="group">
<line shape-type="limitline" x1="585" y1="390" x2="681" y2="391" fill="#00FFFF" stroke="#FFFFFF" stroke-width="3.00"/>
<line shape-type="limitline" x1="585" y1="354" x2="681" y2="355" fill="#00FFFF" stroke="#FFFFFF" stroke-width="3.00"/>
<line shape-type="limitline" x1="585" y1="353" x2="584" y2="390" fill="#00FFFF" stroke="#FFFFFF" stroke-width="3.00"/>
<line shape-type="limitline" x1="685" y1="391" x2="684" y2="354" fill="#00FFFF" stroke="#FFFFFF" stroke-width="3.00"/>
</g>
<line shape-type="limitline" x1="653" y1="273" x2="652" y2="352" fill="#00FFFF" stroke="#FFFF00" stroke-width="3.00"/>
<line shape-type="limitline" x1="655" y1="391" x2="654" y2="584" fill="#00FFFF" stroke="#FFFF00" stroke-width="3.00"/>
<line shape-type="limitline" x1="583" y1="272" x2="680" y2="273" fill="#00FFFF" stroke="#FFFFFF" stroke-width="3.00"/>
<line shape-type="limitline" x1="583" y1="236" x2="680" y2="238" fill="#00FFFF" stroke="#FFFFFF" stroke-width="3.00"/>
<line shape-type="limitline" x1="583" y1="235" x2="582" y2="272" fill="#00FFFF" stroke="#FFFFFF" stroke-width="3.00"/>
<line shape-type="limitline" x1="683" y1="273" x2="682" y2="236" fill="#00FFFF" stroke="#FFFFFF" stroke-width="3.00"/>
<text font-family="宋体" text-anchor="start" fill="#FFFFFF" shape-type="text" id="" font-size="14.000000" font-weight="bold" x="602" y="376">3#PSA</text>
<text font-family="宋体" text-anchor="start" fill="#FFFFFF" shape-type="text" id="" font-size="14.750000" font-weight="bold" x="599" y="609">1#PSA</text>
<line shape-type="limitline" x1="720" y1="185" x2="954" y2="186" fill="#00FFFF" stroke="#00FFFF" stroke-width="3.00"/>
<line shape-type="limitline" x1="685" y1="258" x2="906" y2="259" fill="#00FFFF" stroke="#00FFFF" stroke-width="3.00"/>
<line shape-type="limitline" x1="686" y1="373" x2="907" y2="374" fill="#00FFFF" stroke="#00FFFF" stroke-width="3.00"/>
<line shape-type="limitline" x1="683" y1="607" x2="1328" y2="608" fill="#00FFFF" stroke="#00FFFF" stroke-width="3.00"/>
<polygon shape-type="trapezium" points="650,440 660,440 655,425 655,425 650,440" fill="#FFFF00" stroke="#FFFFFF" stroke-width="1.00"/>
<polygon shape-type="trapezium" points="657,301 646,301 652,316 652,316 657,301" fill="#FFFF00" stroke="#FFFFFF" stroke-width="1.00"/>
<g shape-type="group">
<path shape-type="pie" d="M 704,133 A 16,8 0 0,0 673,133 L 689,133 z" fill="#00FF40" stroke="#000000" stroke-width="1.00"/>
<line shape-type="limitline" x1="685" y1="132" x2="684" y2="140" fill="#00FF40" stroke="#000000" stroke-width="1.00"/>
<line shape-type="limitline" x1="691" y1="132" x2="690" y2="140" fill="#00FF40" stroke="#000000" stroke-width="1.00"/>
<g shape-type="group">
<polygon shape-type="trapezium" points="665,135 665,146 688,141 688,141 665,135" fill="#00FF40" stroke="#000000" stroke-width="1.00"/>
<polygon shape-type="trapezium" points="711,146 711,135 688,140 688,140 711,146" fill="#00FF40" stroke="#000000" stroke-width="1.00"/>
</g>
</g>
<line shape-type="limitline" x1="636" y1="138" x2="635" y2="107" fill="#00FFFF" stroke="#00FFFF" stroke-width="3.00"/>
<line shape-type="limitline" x1="739" y1="139" x2="738" y2="107" fill="#00FFFF" stroke="#00FFFF" stroke-width="3.00"/>
<line shape-type="limitline" x1="635" y1="106" x2="738" y2="107" fill="#00FFFF" stroke="#00FFFF" stroke-width="3.00"/>
<polygon shape-type="trapezium" points="866,191 866,179 882,185 882,185 866,191" fill="#00FFFF" stroke="#00FFFF" stroke-width="1.00"/>
<polygon shape-type="trapezium" points="874,264 874,252 889,258 889,258 874,264" fill="#00FFFF" stroke="#00FFFF" stroke-width="1.00"/>
<polygon shape-type="trapezium" points="820,377 820,366 834,371 834,371 820,377" fill="#00FFFF" stroke="#00FFFF" stroke-width="1.00"/>
<line shape-type="limitline" x1="723" y1="188" x2="722" y2="258" fill="#00FFFF" stroke="#00FFFF" stroke-width="3.00"/>
<polygon shape-type="trapezium" points="1271,144 1271,133 1286,138 1286,138 1271,144" fill="#00FFFF" stroke="#00FFFF" stroke-width="1.00"/>
<text font-family="宋体" text-anchor="start" fill="#FFFFFF" shape-type="text" id="" font-size="14.000000" font-weight="bold" x="1132" y="119">超压放空去火炬</text>
<line shape-type="limitline" x1="708" y1="605" x2="707" y2="528" fill="#00FFFF" stroke="#00FFFF" stroke-width="3.00"/>
<line shape-type="limitline" x1="707" y1="531" x2="908" y2="532" fill="#00FFFF" stroke="#00FFFF" stroke-width="3.00"/>
<line shape-type="limitline" x1="956" y1="185" x2="955" y2="139" fill="#00FFFF" stroke="#00FFFF" stroke-width="3.00"/>
<line shape-type="limitline" x1="906" y1="257" x2="905" y2="606" fill="#00FFFF" stroke="#00FFFF" stroke-width="3.00"/>
<polygon shape-type="trapezium" points="913,390 901,390 907,402 907,402 913,390" fill="#00FFFF" stroke="#00FFFF" stroke-width="1.00"/>
<text font-family="宋体" text-anchor="start" fill="#FFFFFF" shape-type="text" id="" font-size="14.750000" font-weight="bold" x="803" y="507">去火炬</text>
<text font-family="宋体" text-anchor="start" fill="#FFFFFF" shape-type="text" id="" font-size="13.250000" font-weight="bold" x="1182" y="578">产品氢去用户</text>
<polygon shape-type="trapezium" points="820,377 820,366 834,371 834,371 820,377" fill="#00FFFF" stroke="#00FFFF" stroke-width="1.00"/>
<polygon shape-type="trapezium" points="866,536 866,525 882,530 882,530 866,536" fill="#00FFFF" stroke="#00FFFF" stroke-width="1.00"/>
<g shape-type="group">
<path shape-type="pie" d="M 1038,600 A 17,8 0 0,0 1005,600 L 1022,600 z" fill="#00FF40" stroke="#000000" stroke-width="1.00"/>
<line shape-type="limitline" x1="1019" y1="600" x2="1018" y2="608" fill="#00FF40" stroke="#000000" stroke-width="1.00"/>
<line shape-type="limitline" x1="1025" y1="600" x2="1024" y2="608" fill="#00FF40" stroke="#000000" stroke-width="1.00"/>
<g shape-type="group">
<polygon shape-type="trapezium" points="997,604 997,615 1021,610 1021,610 997,604" fill="#00FF40" stroke="#000000" stroke-width="1.00"/>
<polygon shape-type="trapezium" points="1046,615 1046,604 1021,609 1021,609 1046,615" fill="#00FF40" stroke="#000000" stroke-width="1.00"/>
</g>
</g>
<g shape-type="group">
<g shape-type="group">
<path shape-type="pie" d="M 822,253 A 16,8 0 0,0 790,253 L 806,253 z" fill="#00FF40" stroke="#000000" stroke-width="1.00"/>
<line shape-type="limitline" x1="802" y1="253" x2="801" y2="260" fill="#00FF40" stroke="#000000" stroke-width="1.00"/>
<line shape-type="limitline" x1="808" y1="253" x2="807" y2="260" fill="#00FF40" stroke="#000000" stroke-width="1.00"/>
<g shape-type="group">
<polygon shape-type="trapezium" points="781,256 781,267 804,262 804,262 781,256" fill="#00FF40" stroke="#000000" stroke-width="1.00"/>
<polygon shape-type="trapezium" points="829,267 829,256 805,261 805,261 829,267" fill="#00FF40" stroke="#000000" stroke-width="1.00"/>
</g>
</g>
<line shape-type="limitline" x1="755" y1="291" x2="857" y2="292" fill="#00FFFF" stroke="#00FFFF" stroke-width="3.00"/>
<line shape-type="limitline" x1="755" y1="289" x2="754" y2="258" fill="#00FFFF" stroke="#00FFFF" stroke-width="3.00"/>
<line shape-type="limitline" x1="855" y1="290" x2="854" y2="259" fill="#00FFFF" stroke="#00FFFF" stroke-width="3.00"/>
</g>
<g shape-type="group">
<g shape-type="group">
<path shape-type="pie" d="M 815,601 A 17,8 0 0,0 783,601 L 800,601 z" fill="#00FF40" stroke="#000000" stroke-width="1.00"/>
<line shape-type="limitline" x1="796" y1="601" x2="795" y2="608" fill="#00FF40" stroke="#000000" stroke-width="1.00"/>
<line shape-type="limitline" x1="802" y1="601" x2="801" y2="608" fill="#00FF40" stroke="#000000" stroke-width="1.00"/>
<g shape-type="group">
<polygon shape-type="trapezium" points="775,604 775,615 798,610 798,610 775,604" fill="#00FF40" stroke="#000000" stroke-width="1.00"/>
<polygon shape-type="trapezium" points="823,615 823,604 799,609 799,609 823,615" fill="#00FF40" stroke="#000000" stroke-width="1.00"/>
</g>
</g>
<line shape-type="limitline" x1="749" y1="640" x2="851" y2="641" fill="#00FFFF" stroke="#00FFFF" stroke-width="3.00"/>
<line shape-type="limitline" x1="749" y1="636" x2="748" y2="606" fill="#00FFFF" stroke="#00FFFF" stroke-width="3.00"/>
<line shape-type="limitline" x1="849" y1="638" x2="848" y2="607" fill="#00FFFF" stroke="#00FFFF" stroke-width="3.00"/>
</g>
<g shape-type="group">
<path shape-type="pie" d="M 1152,601 A 16,8 0 0,0 1121,601 L 1137,601 z" fill="#00FF40" stroke="#000000" stroke-width="1.00"/>
<line shape-type="limitline" x1="1133" y1="601" x2="1132" y2="609" fill="#00FF40" stroke="#000000" stroke-width="1.00"/>
<line shape-type="limitline" x1="1139" y1="601" x2="1138" y2="609" fill="#00FF40" stroke="#000000" stroke-width="1.00"/>
<g shape-type="group">
<polygon shape-type="trapezium" points="1113,605 1113,616 1135,611 1135,611 1113,605" fill="#00FF40" stroke="#000000" stroke-width="1.00"/>
<polygon shape-type="trapezium" points="1159,616 1159,605 1135,610 1135,610 1159,616" fill="#00FF40" stroke="#000000" stroke-width="1.00"/>
</g>
</g>
<polygon shape-type="trapezium" points="1316,614 1316,602 1331,608 1331,608 1316,614" fill="#00FFFF" stroke="#00FFFF" stroke-width="1.00"/>
<text font-family="宋体" text-anchor="start" fill="#FFFFFF" shape-type="text" id="" font-size="14.000000" font-weight="bold" x="18" y="116">制氢装置氢气</text>
<g shape-type="group">
<rect shape-type="rectangle" x="876" y="621" width="56" height="26" fill="#4A494A" stroke="#C0C0C0" stroke-width="3.00"/>
<rect shape-type="rectangle" x="933" y="621" width="39" height="26" fill="#4A494A" stroke="#C0C0C0" stroke-width="3.00"/>
</g>
<text font-family="Arial" text-anchor="start" fill="#00FFFF" shape-type="realdata" id="HCAB_PSA_AT55104" font-size="12.500000" x="881" y="638">XXXX</text>
<text font-family="宋体" text-anchor="start" fill="#00FF42" shape-type="text" id="" font-size="11.000000" font-weight="bold" x="940" y="637">ppm</text>
<g shape-type="group">
<rect shape-type="rectangle" x="877" y="658" width="56" height="26" fill="#4A494A" stroke="#C0C0C0" stroke-width="3.00"/>
<rect shape-type="rectangle" x="934" y="658" width="39" height="26" fill="#4A494A" stroke="#C0C0C0" stroke-width="3.00"/>
</g>
<text font-family="Arial" text-anchor="start" fill="#00FFFF" shape-type="realdata" id="HCAB_PSA_AT55105" font-size="11.750000" x="882" y="675">XXXX</text>
<text font-family="宋体" text-anchor="start" fill="#00FF42" shape-type="text" id="" font-size="9.500000" font-weight="bold" x="951" y="675">%</text>
<g shape-type="group">
<rect shape-type="rectangle" x="913" y="518" width="83" height="28" fill="#4A494A" stroke="#C0C0C0" stroke-width="3.00"/>
<rect shape-type="rectangle" x="998" y="518" width="57" height="28" fill="#4A494A" stroke="#C0C0C0" stroke-width="3.00"/>
</g>
<text font-family="Arial" text-anchor="start" fill="#00FFFF" shape-type="realdata" id="HCAB_PSA_FI_55001" font-size="13.250000" x="919" y="537">XXXX</text>
<text font-family="宋体" text-anchor="start" fill="#00FF42" shape-type="text" id="" font-size="10.250000" font-weight="bold" x="1011" y="534">Nm3/h</text>
<g shape-type="group">
<rect shape-type="rectangle" x="1144" y="513" width="56" height="25" fill="#4A494A" stroke="#C0C0C0" stroke-width="3.00"/>
<rect shape-type="rectangle" x="1201" y="513" width="39" height="25" fill="#4A494A" stroke="#C0C0C0" stroke-width="3.00"/>
</g>
<text font-family="Arial" text-anchor="start" fill="#00FFFF" shape-type="realdata" id="HCAB_PSA_PIA_55001" font-size="12.500000" x="1148" y="530">XXXX</text>
<text font-family="宋体" text-anchor="start" fill="#00FF42" shape-type="text" id="" font-size="10.250000" font-weight="bold" x="1207" y="528">MPa</text>
<a xlink:href="PSA关联流程示意图.svg">
<g shape-type="button">
<rect fill="#C0C0C0" stroke-width="0.3" stroke="#FFFFFF" x="15" y="765" width="158" height="30" shape-type="buttonrect"/>
<text font-family="宋体" text-anchor="middle" dominant-baseline="middle" fill="#000000" font-size="12.000000" x="94" y="786" shape-type="buttontext">PAS关联图</text>
</g>
</a>
<a xlink:href="K-55301原料气压缩机.svg">
<g shape-type="button">
<rect fill="#C0C0C0" stroke-width="0.3" stroke="#FFFFFF" x="185" y="765" width="158" height="31" shape-type="buttonrect"/>
<text font-family="宋体" text-anchor="middle" dominant-baseline="middle" fill="#000000" font-size="12.000000" x="264" y="786" shape-type="buttontext">K-55301</text>
</g>
</a>
<a xlink:href="K-55302产品氢压缩机.svg">
<g shape-type="button">
<rect fill="#C0C0C0" stroke-width="0.3" stroke="#FFFFFF" x="368" y="765" width="158" height="31" shape-type="buttonrect"/>
<text font-family="宋体" text-anchor="middle" dominant-baseline="middle" fill="#000000" font-size="12.000000" x="447" y="786" shape-type="buttontext">K55302</text>
</g>
</a>
<a xlink:href="K-55303燃料气压缩机.svg">
<g shape-type="button">
<rect fill="#C0C0C0" stroke-width="0.3" stroke="#FFFFFF" x="543" y="765" width="158" height="31" shape-type="buttonrect"/>
<text font-family="宋体" text-anchor="middle" dominant-baseline="middle" fill="#000000" font-size="12.000000" x="622" y="786" shape-type="buttontext">K-55303</text>
</g>
</a>
<a xlink:href="K-55301点表一.svg">
<g shape-type="button">
<rect fill="#C0C0C0" stroke-width="0.3" stroke="#FFFFFF" x="720" y="765" width="158" height="31" shape-type="buttonrect"/>
<text font-family="宋体" text-anchor="middle" dominant-baseline="middle" fill="#000000" font-size="12.000000" x="799" y="786" shape-type="buttontext">K-55301点表一</text>
</g>
</a>
<a xlink:href="K-55301点表二.svg">
<g shape-type="button">
<rect fill="#C0C0C0" stroke-width="0.3" stroke="#FFFFFF" x="887" y="765" width="158" height="30" shape-type="buttonrect"/>
<text font-family="宋体" text-anchor="middle" dominant-baseline="middle" fill="#000000" font-size="12.000000" x="966" y="786" shape-type="buttontext">K-55301点表二</text>
</g>
</a>
<a xlink:href="K-55302点表.svg">
<g shape-type="button">
<rect fill="#C0C0C0" stroke-width="0.3" stroke="#FFFFFF" x="1061" y="765" width="158" height="31" shape-type="buttonrect"/>
<text font-family="宋体" text-anchor="middle" dominant-baseline="middle" fill="#000000" font-size="12.000000" x="1140" y="786" shape-type="buttontext">K-55302点表</text>
</g>
</a>
<a xlink:href="K-55303点表.svg">
<g shape-type="button">
<rect fill="#C0C0C0" stroke-width="0.3" stroke="#FFFFFF" x="1232" y="765" width="158" height="31" shape-type="buttonrect"/>
<text font-family="宋体" text-anchor="middle" dominant-baseline="middle" fill="#000000" font-size="12.000000" x="1311" y="786" shape-type="buttontext">K-55303点表</text>
</g>
</a>
</svg>
