<?xml version="1.0" encoding="UTF-8"?>
<svg height="100%" width="100%" viewBox="0 0 64000 32000" version="1.1" xmlns="http://www.w3.org/2000/svg" xmlns:xlink="http://www.w3.org/1999/xlink" xmlns:PB="urn:osisoft-com-pb" xmlns:PBI="urn:osisoft-com-interface" xmlns:PBD="urn:osisoft-com-data" style="background-color:#C0C0C0">
  <title>Graphic4</title>
  <defs>
    <PBD:TagUses tag="\\RTDBB\82_3701_01_A60">
      <PBI:Symbol name="DATAPOINT1" PB:Type="7" />
    </PBD:TagUses>
  </defs>
  <g name="StorageFacility1">
    <path d="M 40691 11660 l -12809 0 0 -219 25 -210 39 -210 64 -211 64 -202 90 -202 102 -193 116 -194 128 -185 141 -176 154 -177 167 -177 179 -160 192 -159 193 -152 218 -151 218 -143 230 -127 244 -126 257 -118 256 -117 269 -101 270 -93 282 -84 295 -76 294 -67 308 -59 308 -42 308 -42 320 -25 334 -17 320 -9 334 9 320 17 333 25 308 42 321 42 295 59 307 67 283 76 294 84 270 93 269 101 269 117 244 118 244 126 230 127 231 143 205 151 205 152 193 159 179 160 167 177 154 177 141 176 128 185 115 194 103 193 90 202 64 202 64 211 39 210 25 210 0 219 0 0" stroke-width="0" fill="#595959" />
    <path d="M 40691 11660 l -12809 0 0 0 0 -219 25 -210 39 -210 64 -211 64 -202 90 -202 102 -193 116 -194 128 -185 141 -176 154 -177 167 -177 179 -160 192 -159 193 -152 218 -151 218 -143 230 -127 244 -126 257 -118 256 -117 269 -101 270 -93 282 -84 295 -76 294 -67 308 -59 308 -42 308 -42 320 -25 334 -17 320 -9 0 0 334 9 320 17 333 25 308 42 321 42 295 59 307 67 283 76 294 84 270 93 269 101 269 117 244 118 244 126 230 127 231 143 205 151 205 152 193 159 179 160 167 177 154 177 141 176 128 185 115 194 103 193 90 202 64 202 64 211 39 210 25 210 0 219" stroke="#000000" stroke-width="20" fill="none" />
    <path d="M 39909 11660 l -11899 0 13 -210 25 -211 39 -210 51 -202 64 -193 77 -202 90 -185 115 -194 116 -177 128 -185 154 -168 154 -168 166 -160 167 -160 192 -151 193 -143 205 -135 218 -126 231 -126 230 -118 244 -110 244 -92 256 -93 269 -84 270 -76 269 -67 282 -50 295 -51 295 -34 295 -25 295 -17 307 -8 308 8 308 17 295 25 295 34 282 51 282 50 282 67 269 76 257 84 256 93 257 92 230 110 244 118 218 126 218 126 205 135 193 143 192 151 179 160 167 160 154 168 141 168 128 185 128 177 103 194 90 185 77 202 77 193 51 202 38 210 13 211 13 210 0 0" stroke-width="0" fill="#808080" />
    <path d="M 39088 11660 l -10937 0 13 -210 13 -202 38 -202 51 -202 52 -194 77 -193 89 -185 103 -185 102 -177 129 -177 128 -168 141 -160 154 -160 167 -151 166 -152 180 -134 192 -135 205 -126 205 -126 206 -110 230 -109 231 -92 231 -93 244 -76 243 -75 257 -68 256 -50 269 -42 270 -42 269 -26 282 -16 282 0 269 0 282 16 270 26 269 42 269 42 257 50 256 68 244 75 243 76 231 93 231 92 231 109 205 110 205 126 205 126 193 135 179 134 167 152 166 151 154 160 141 160 129 168 128 177 102 177 103 185 90 185 77 193 51 194 51 202 39 202 13 202 12 210 0 0" stroke-width="0" fill="#969696" />
    <path d="M 38024 11660 l -9732 0 0 -202 26 -202 25 -202 39 -193 64 -185 64 -194 77 -185 90 -177 89 -176 116 -169 115 -168 128 -160 129 -151 141 -152 154 -143 166 -134 167 -135 179 -118 180 -117 192 -110 193 -109 205 -93 218 -84 205 -84 218 -67 231 -59 231 -59 230 -42 244 -34 244 -25 243 -17 244 -8 256 8 244 17 244 25 243 34 231 42 244 59 218 59 230 67 205 84 218 84 206 93 192 109 192 110 193 117 179 118 167 135 154 134 154 143 153 152 129 151 128 160 115 168 116 169 102 176 77 177 77 185 64 194 64 185 39 193 25 202 26 202 0 202 0 0" stroke-width="0" fill="#B4B4B4" />
    <path d="M 35639 11660 l -2705 0 0 0 0 -219 12 -210 0 -210 13 -211 26 -202 13 -202 25 -193 26 -194 26 -185 25 -176 39 -177 25 -177 39 -160 38 -159 52 -152 38 -151 51 -143 52 -127 51 -126 51 -118 52 -117 51 -101 64 -93 51 -84 64 -76 65 -67 64 -59 64 -42 64 -42 64 -25 64 -17 64 -9 0 0 77 9 64 17 64 25 77 42 64 42 64 59 65 67 64 76 51 84 64 93 51 101 65 117 51 118 51 126 51 127 39 143 51 151 39 152 51 159 38 160 26 177 38 177 26 176 26 185 25 194 26 193 13 202 26 202 12 211 0 210 13 210 0 219" stroke="#808080" stroke-width="20" fill="none" />
    <path d="M 37486 11660 l -6399 0 0 0 13 -219 0 -210 26 -210 25 -211 39 -202 38 -202 52 -193 64 -194 64 -185 64 -176 77 -177 90 -177 89 -160 90 -159 103 -152 102 -151 116 -143 115 -127 115 -126 129 -118 128 -117 128 -101 141 -93 141 -84 141 -76 154 -67 154 -59 154 -42 154 -42 154 -25 166 -17 154 -9 0 0 167 9 167 17 153 25 167 42 154 42 154 59 141 67 154 76 141 84 141 93 128 101 128 117 129 118 128 126 115 127 103 143 115 151 103 152 89 159 90 160 90 177 77 177 64 176 64 185 64 194 52 193 38 202 38 202 26 211 26 210 0 210 13 219" stroke="#808080" stroke-width="20" fill="none" />
    <path d="M 39088 11660 l -9604 0 0 0 0 -219 26 -210 26 -210 51 -211 51 -202 64 -202 77 -193 77 -194 103 -185 102 -176 116 -177 128 -177 128 -160 141 -159 154 -152 167 -151 167 -143 166 -127 180 -126 192 -118 192 -117 206 -101 205 -93 205 -84 218 -76 231 -67 218 -59 231 -42 243 -42 231 -25 244 -17 243 -9 0 0 257 9 243 17 231 25 244 42 230 42 231 59 231 67 218 76 205 84 218 93 193 101 205 117 179 118 180 126 179 127 167 143 167 151 141 152 154 159 128 160 128 177 115 177 103 176 103 185 76 194 77 193 65 202 51 202 51 211 26 210 25 210 0 219" stroke="#808080" stroke-width="20" fill="none" />
    <path d="M 28933 10962 l 4821 0" stroke="#808080" stroke-width="20" fill="none" />
    <path d="M 29895 10600 l 4782 0" stroke="#808080" stroke-width="20" fill="none" />
    <path d="M 28933 9910 l 3488 0" stroke="#808080" stroke-width="20" fill="none" />
    <path d="M 34036 10247 l 3450 0" stroke="#808080" stroke-width="20" fill="none" />
    <path d="M 32703 9212 l 3449 0" stroke="#808080" stroke-width="20" fill="none" />
    <path d="M 29754 8850 l 3462 0" stroke="#808080" stroke-width="20" fill="none" />
    <path d="M 33754 8160 l 3449 0" stroke="#808080" stroke-width="20" fill="none" />
    <path d="M 36421 11298 l 3488 0" stroke="#808080" stroke-width="20" fill="none" />
    <path d="M 34036 7436 l -410 -336 1321 0 -411 336 -500 0 0 0" stroke-width="0" fill="#B4B4B4" />
    <path d="M 34036 7436 l -410 -336 1321 0 -411 336 -500 0" stroke="#000000" stroke-width="20" fill="none" />
    <path d="M 34165 7436 l -411 -336 1193 0 -411 336 -371 0 0 0" stroke-width="0" fill="#969696" />
    <path d="M 34267 7436 l -372 -336 1052 0 -411 336 -269 0 0 0" stroke-width="0" fill="#808080" />
    <path d="M 34408 7436 l -372 -336 911 0 -411 336 -128 0 0 0" stroke-width="0" fill="#595959" />
    <path d="M 34036 7436 l -410 -336 1321 0 -411 336 -500 0" stroke="#000000" stroke-width="20" fill="none" />
    <path d="M 40691 11660 l -12809 0 0 0 0 -219 25 -210 39 -210 64 -211 64 -202 90 -202 102 -193 116 -194 128 -185 141 -176 154 -177 167 -177 179 -160 192 -159 193 -152 218 -151 218 -143 230 -127 244 -126 257 -118 256 -117 269 -101 270 -93 282 -84 295 -76 294 -67 308 -59 308 -42 308 -42 320 -25 334 -17 320 -9 0 0 334 9 320 17 333 25 308 42 321 42 295 59 307 67 283 76 294 84 270 93 269 101 269 117 244 118 244 126 230 127 231 143 205 151 205 152 193 159 179 160 167 177 154 177 141 176 128 185 115 194 103 193 90 202 64 202 64 211 39 210 25 210 0 219" stroke="#000000" stroke-width="20" fill="none" />
  </g>
  <path id="LINE1" d="M 40960 20120 l 0 -2020 4480 320 0 1420 -4480 280" stroke="#000000" stroke-width="20" fill="none" />
  <path d="M 20620 8300 l -740 580" stroke="#000000" stroke-width="20" fill="none" />
  <path d="M 21160 8880 l -600 500" stroke="#000000" stroke-width="20" fill="none" />
  <path d="M 19980 8880 l 580 500" stroke="#000000" stroke-width="20" fill="none" />
  <path d="M 21720 8300 l 760 580" stroke="#000000" stroke-width="20" fill="none" />
  <path d="M 21220 8900 l 600 480" stroke="#000000" stroke-width="20" fill="none" />
  <path d="M 22400 8880 l -580 500" stroke="#000000" stroke-width="20" fill="none" />
  <rect x="20660" y="7760" width="1140" height="540" stroke="#000000" stroke-width="20" fill="none" />
  <path id="POLYGON30" d="M 21160 5640 l 27180 0" stroke="#000000" stroke-width="20" fill="none" />
  <path id="POLYGON31" d="M 21160 5640 l 0 2120" stroke="#000000" stroke-width="20" fill="none" />
  <path id="POLYGON32" d="M 20520 9380 l 0 1040" stroke="#000000" stroke-width="20" fill="none" />
  <path id="LINE32" d="M 21900 9380 l 0 1040" stroke="#000000" stroke-width="20" fill="none" />
  <path id="POLYGON33" d="M 21860 10420 l -3160 0" stroke="#000000" stroke-width="20" fill="none" />
  <path id="POLYGON34" d="M 42880 5260 l 0 12960" stroke="#000000" stroke-width="20" fill="none" />
  <path id="POLYGON35" d="M 48280 5660 l 0 -2280" stroke="#000000" stroke-width="20" fill="none" />
  <path id="POLYGON36" d="M 48280 3380 l 14900 0" stroke="#000000" stroke-width="20" fill="none" />
  <rect x="55260" y="360" width="8000" height="2160" stroke="#000000" stroke-width="20" fill="none" id="RECTANGLE2" />
  <path id="ELLIPSE13" d="M 57400 2914 l -20 56 -20 35 -20 26 -20 22 -20 19 -20 17 -20 15 -20 13 -20 12 -20 10 -20 10 -20 8 -20 8 -20 7 -20 6 -20 6 -20 5 -20 4 -20 4 -20 3 -20 2 -20 2 -20 1 -20 1 -20 0 0 0 -20 0 -20 -1 -20 -1 -20 -2 -20 -2 -20 -3 -20 -4 -20 -4 -20 -5 -20 -6 -20 -6 -20 -7 -20 -8 -20 -8 -20 -10 -20 -10 -20 -12 -20 -13 -20 -15 -20 -17 -20 -19 -20 -22 -20 -26 -20 -35 -20 -56 0 -107 20 -56 20 -35 20 -26 20 -22 20 -19 20 -17 20 -15 20 -13 20 -12 20 -10 20 -10 20 -8 20 -8 20 -7 20 -6 20 -6 20 -5 20 -4 20 -4 20 -3 20 -2 20 -2 20 -1 20 -1 20 -1 0 0 20 1 20 1 20 1 20 2 20 2 20 3 20 4 20 4 20 5 20 6 20 6 20 7 20 8 20 8 20 10 20 10 20 12 20 13 20 15 20 17 20 19 20 22 20 26 20 35 20 56 0 107" stroke="#000000" stroke-width="20" fill="none" />
  <path id="ELLIPSE19" d="M 62180 2954 l -20 56 -20 35 -20 26 -20 22 -20 19 -20 17 -20 15 -20 13 -20 12 -20 10 -20 10 -20 8 -20 8 -20 7 -20 6 -20 6 -20 5 -20 4 -20 4 -20 3 -20 2 -20 2 -20 1 -20 1 -20 0 0 0 -20 0 -20 -1 -20 -1 -20 -2 -20 -2 -20 -3 -20 -4 -20 -4 -20 -5 -20 -6 -20 -6 -20 -7 -20 -8 -20 -8 -20 -10 -20 -10 -20 -12 -20 -13 -20 -15 -20 -17 -20 -19 -20 -22 -20 -26 -20 -35 -20 -56 0 -107 20 -56 20 -35 20 -26 20 -22 20 -19 20 -17 20 -15 20 -13 20 -12 20 -10 20 -10 20 -8 20 -8 20 -7 20 -6 20 -6 20 -5 20 -4 20 -4 20 -3 20 -2 20 -2 20 -1 20 -1 20 -1 0 0 20 1 20 1 20 1 20 2 20 2 20 3 20 4 20 4 20 5 20 6 20 6 20 7 20 8 20 8 20 10 20 10 20 12 20 13 20 15 20 17 20 19 20 22 20 26 20 35 20 56 0 107" stroke="#000000" stroke-width="20" fill="none" />
  <path id="POLYGON38" d="M 41880 5220 l 2060 0" stroke="#000000" stroke-width="20" fill="none" />
  <path id="POLYGON39" d="M 43940 5220 l -1820 -480" stroke="#000000" stroke-width="20" fill="none" />
  <path id="LINE47" d="M 45400 5220 l 2060 0" stroke="#000000" stroke-width="20" fill="none" />
  <path id="LINE49" d="M 47460 5220 l -1820 -480" stroke="#000000" stroke-width="20" fill="none" />
  <path id="POLYGON49" d="M 46360 5220 l 0 6180" stroke="#000000" stroke-width="20" fill="none" />
  <path id="POLYGON50" d="M 46400 11360 l 8660 0" stroke="#000000" stroke-width="20" fill="none" />
  <rect x="28880" y="11660" width="1720" height="340" stroke="#000000" stroke-width="20" fill="none" id="RECTANGLE3" />
  <rect x="31540" y="11660" width="1720" height="340" stroke="#000000" stroke-width="20" fill="none" id="RECTANGLE4" />
  <rect x="35360" y="11660" width="1720" height="340" stroke="#000000" stroke-width="20" fill="none" id="RECTANGLE5" />
  <rect x="37840" y="11660" width="1720" height="340" stroke="#000000" stroke-width="20" fill="none" id="RECTANGLE6" />
  <path id="POLYGON55" d="M 38740 12000 l 0 1260" stroke="#000000" stroke-width="20" fill="none" />
  <path id="LINE55" d="M 32560 12040 l 0 1240" stroke="#000000" stroke-width="20" fill="none" />
  <path id="POLYGON56" d="M 38720 13260 l -17480 0" stroke="#000000" stroke-width="20" fill="none" />
  <path d="M 20760 13820 l -700 560" stroke="#000000" stroke-width="20" fill="none" />
  <path d="M 21340 14400 l -640 480" stroke="#000000" stroke-width="20" fill="none" />
  <path d="M 20120 14380 l 620 500" stroke="#000000" stroke-width="20" fill="none" />
  <path d="M 21900 13800 l 740 580" stroke="#000000" stroke-width="20" fill="none" />
  <path d="M 21360 14400 l 620 480" stroke="#000000" stroke-width="20" fill="none" />
  <path d="M 22580 14400 l -620 480" stroke="#000000" stroke-width="20" fill="none" />
  <rect x="20800" y="13260" width="1140" height="540" stroke="#000000" stroke-width="20" fill="none" />
  <path id="LINE73" d="M 20740 14900 l 0 1040" stroke="#000000" stroke-width="20" fill="none" />
  <path d="M 20180 16440 l -740 600" stroke="#000000" stroke-width="20" fill="none" />
  <path d="M 20700 17040 l -580 500" stroke="#000000" stroke-width="20" fill="none" />
  <path d="M 19500 17040 l 620 500" stroke="#000000" stroke-width="20" fill="none" />
  <path d="M 21280 16440 l 720 600" stroke="#000000" stroke-width="20" fill="none" />
  <path d="M 20740 17060 l 620 480" stroke="#000000" stroke-width="20" fill="none" />
  <path d="M 21960 17040 l -620 500" stroke="#000000" stroke-width="20" fill="none" />
  <rect x="20180" y="15900" width="1140" height="540" stroke="#000000" stroke-width="20" fill="none" />
  <path id="POLYGON88" d="M 22000 14860 l 0 3980" stroke="#000000" stroke-width="20" fill="none" />
  <path id="POLYGON89" d="M 21300 17520 l 0 2240" stroke="#000000" stroke-width="20" fill="none" />
  <path id="LINE89" d="M 20120 17520 l 0 2240" stroke="#000000" stroke-width="20" fill="none" />
  <path id="POLYGON90" d="M 29700 12000 l 0 3240" stroke="#000000" stroke-width="20" fill="none" />
  <path id="POLYGON91" d="M 27940 15260 l 27120 0" stroke="#000000" stroke-width="20" fill="none" />
  <path id="LINE91" d="M 27940 15260 l 0 1060" stroke="#000000" stroke-width="20" fill="none" />
  <path d="M 27400 16860 l -700 560" stroke="#000000" stroke-width="20" fill="none" />
  <path d="M 27980 17440 l -620 480" stroke="#000000" stroke-width="20" fill="none" />
  <path d="M 26760 17420 l 620 500" stroke="#000000" stroke-width="20" fill="none" />
  <path d="M 28520 16840 l 760 580" stroke="#000000" stroke-width="20" fill="none" />
  <path d="M 28000 17440 l 600 480" stroke="#000000" stroke-width="20" fill="none" />
  <path d="M 29220 17420 l -620 500" stroke="#000000" stroke-width="20" fill="none" />
  <rect x="27440" y="16300" width="1140" height="540" stroke="#000000" stroke-width="20" fill="none" />
  <path id="POLYGON98" d="M 21620 18840 l 14180 0" stroke="#000000" stroke-width="20" fill="none" />
  <path d="M 19780 19080 l 340 680" stroke="#000000" stroke-width="20" fill="none" />
  <path d="M 20460 19080 l -340 680" stroke="#000000" stroke-width="20" fill="none" />
  <path d="M 20960 19080 l 340 680" stroke="#000000" stroke-width="20" fill="none" />
  <path d="M 21640 19080 l -340 680" stroke="#000000" stroke-width="20" fill="none" />
  <path d="M 21660 18120 l 340 720" stroke="#000000" stroke-width="20" fill="none" />
  <path d="M 22340 18120 l -340 720" stroke="#000000" stroke-width="20" fill="none" />
  <path d="M 26980 18100 l 340 680" stroke="#000000" stroke-width="20" fill="none" />
  <path d="M 27660 18100 l -340 680" stroke="#000000" stroke-width="20" fill="none" />
  <path d="M 35940 14540 l 340 700" stroke="#000000" stroke-width="20" fill="none" />
  <path d="M 36620 14540 l -340 700" stroke="#000000" stroke-width="20" fill="none" />
  <path d="M 38400 12560 l 340 700" stroke="#000000" stroke-width="20" fill="none" />
  <path d="M 39080 12560 l -340 700" stroke="#000000" stroke-width="20" fill="none" />
  <path d="M 29360 14540 l 340 700" stroke="#000000" stroke-width="20" fill="none" />
  <path d="M 30040 14540 l -340 700" stroke="#000000" stroke-width="20" fill="none" />
  <path d="M 42540 17520 l 340 700" stroke="#000000" stroke-width="20" fill="none" />
  <path d="M 43220 17520 l -340 700" stroke="#000000" stroke-width="20" fill="none" />
  <path d="M 32220 12580 l 340 700" stroke="#000000" stroke-width="20" fill="none" />
  <path d="M 32900 12580 l -340 700" stroke="#000000" stroke-width="20" fill="none" />
  <path id="LINE118" d="M 36280 12000 l 0 3240" stroke="#000000" stroke-width="20" fill="none" />
  <path id="LINE119" d="M 19220 19780 l 17880 0" stroke="#000000" stroke-width="20" fill="none" />
  <path id="LINE120" d="M 27320 17920 l 0 860" stroke="#000000" stroke-width="20" fill="none" />
  <path id="LINE133" d="M 28600 17880 l 0 1900" stroke="#000000" stroke-width="20" fill="none" />
  <path d="M 28260 19080 l 340 700" stroke="#000000" stroke-width="20" fill="none" />
  <path d="M 28940 19080 l -340 700" stroke="#000000" stroke-width="20" fill="none" />
  <path d="M 38980 21420 l 340 680" stroke="#000000" stroke-width="20" fill="none" />
  <path d="M 39660 21420 l -340 680" stroke="#000000" stroke-width="20" fill="none" />
  <path d="M 46880 21360 l 340 700" stroke="#000000" stroke-width="20" fill="none" />
  <path d="M 47560 21360 l -340 700" stroke="#000000" stroke-width="20" fill="none" />
  <path d="M 1900 28740 l 320 700" stroke="#000000" stroke-width="20" fill="none" />
  <path d="M 2580 28740 l -340 700" stroke="#000000" stroke-width="20" fill="none" />
  <path d="M 3520 28740 l 340 700" stroke="#000000" stroke-width="20" fill="none" />
  <path d="M 4200 28740 l -320 700" stroke="#000000" stroke-width="20" fill="none" />
  <path d="M 47940 4960 l 340 700" stroke="#000000" stroke-width="20" fill="none" />
  <path d="M 48620 4960 l -340 700" stroke="#000000" stroke-width="20" fill="none" />
  <path id="POLYGON145" d="M 35720 18820 l 0 -2400" stroke="#000000" stroke-width="20" fill="none" />
  <path id="POLYGON146" d="M 35720 16420 l 7100 0" stroke="#000000" stroke-width="20" fill="none" />
  <path id="LINE146" d="M 37100 19780 l 0 -2380" stroke="#000000" stroke-width="20" fill="none" />
  <path id="POLYGON147" d="M 37100 17400 l 5740 0" stroke="#000000" stroke-width="20" fill="none" />
  <path id="LINE147" d="M 55060 11360 l 0 6800" stroke="#000000" stroke-width="20" fill="none" />
  <path d="M 54720 17520 l 340 700" stroke="#000000" stroke-width="20" fill="none" />
  <path d="M 55400 17520 l -340 700" stroke="#000000" stroke-width="20" fill="none" />
  <path id="LINE150" d="M 53400 20120 l 0 -2020 4460 320 0 1420 -4460 280" stroke="#000000" stroke-width="20" fill="none" />
  <path id="POLYGON150" d="M 45540 19120 l 1680 0" stroke="#000000" stroke-width="20" fill="none" />
  <path id="POLYGON151" d="M 47220 19120 l 0 2940" stroke="#000000" stroke-width="20" fill="none" />
  <path id="POLYGON3" d="M 47560 22060 l -12740 0" stroke="#000000" stroke-width="20" fill="none" />
  <path id="LINE3" d="M 39320 19120 l 1680 0" stroke="#000000" stroke-width="20" fill="none" />
  <path id="LINE4" d="M 39320 19680 l 0 -560" stroke="#000000" stroke-width="20" fill="none" />
  <path id="LINE9" d="M 39320 22000 l 0 -740" stroke="#000000" stroke-width="20" fill="none" />
  <path d="M 38360 19680 l 1440 0" stroke="#000000" stroke-width="20" fill="none" />
  <path d="M 39760 19680 l 660 540" stroke="#000000" stroke-width="20" fill="none" />
  <path d="M 38360 19680 l 0 1540" stroke="#000000" stroke-width="20" fill="none" />
  <path d="M 38360 21220 l 2020 0" stroke="#000000" stroke-width="20" fill="none" />
  <path d="M 40420 20220 l 0 1020" stroke="#000000" stroke-width="20" fill="none" />
  <path id="ELLIPSE1" d="M 39860 20499 l -20 62 -20 38 -20 29 -20 24 -20 21 -20 18 -20 16 -20 14 -20 12 -20 11 -20 10 -20 9 -20 8 -20 7 -20 6 -20 6 -20 4 -20 4 -20 3 -20 2 -20 2 -20 1 -20 0 0 0 -20 0 -20 -1 -20 -2 -20 -2 -20 -3 -20 -4 -20 -4 -20 -6 -20 -6 -20 -7 -20 -8 -20 -9 -20 -10 -20 -11 -20 -12 -20 -14 -20 -16 -20 -18 -20 -21 -20 -24 -20 -29 -20 -38 -20 -62 0 -117 20 -62 20 -38 20 -29 20 -24 20 -21 20 -18 20 -16 20 -14 20 -12 20 -11 20 -10 20 -9 20 -8 20 -7 20 -6 20 -6 20 -4 20 -4 20 -3 20 -2 20 -2 20 -1 20 -1 0 0 20 1 20 1 20 2 20 2 20 3 20 4 20 4 20 6 20 6 20 7 20 8 20 9 20 10 20 11 20 12 20 14 20 16 20 18 20 21 20 24 20 29 20 38 20 62 0 117" stroke="#000000" stroke-width="20" fill="none" />
  <path id="POLYGON10" d="M 39400 20180 l 0 640" stroke="#000000" stroke-width="20" fill="none" />
  <path id="LINE10" d="M 38980 20440 l 820 0" stroke="#000000" stroke-width="20" fill="none" />
  <path id="LINE19" d="M 57920 19120 l 1700 0" stroke="#000000" stroke-width="20" fill="none" />
  <path id="LINE20" d="M 59620 19160 l 0 4920" stroke="#000000" stroke-width="20" fill="none" />
  <path d="M 59280 23380 l 340 700" stroke="#000000" stroke-width="20" fill="none" />
  <path d="M 59960 23380 l -340 700" stroke="#000000" stroke-width="20" fill="none" />
  <path d="M 51440 23260 l 340 680" stroke="#000000" stroke-width="20" fill="none" />
  <path d="M 52120 23260 l -340 680" stroke="#000000" stroke-width="20" fill="none" />
  <path id="LINE27" d="M 51780 18980 l 1700 0" stroke="#000000" stroke-width="20" fill="none" />
  <path id="LINE28" d="M 51780 20440 l 0 -1460" stroke="#000000" stroke-width="20" fill="none" />
  <path id="LINE30" d="M 51780 23860 l 0 -1940" stroke="#000000" stroke-width="20" fill="none" />
  <path d="M 50740 20420 l 1440 0" stroke="#000000" stroke-width="20" fill="none" />
  <path d="M 52140 20420 l 660 520" stroke="#000000" stroke-width="20" fill="none" />
  <path d="M 50740 20420 l 0 1540" stroke="#000000" stroke-width="20" fill="none" />
  <path d="M 50740 21960 l 2040 0" stroke="#000000" stroke-width="20" fill="none" />
  <path d="M 52800 20960 l 0 1040" stroke="#000000" stroke-width="20" fill="none" />
  <path id="ELLIPSE3" d="M 52240 21259 l -20 62 -20 38 -20 29 -20 24 -20 21 -20 18 -20 16 -20 14 -20 12 -20 11 -20 10 -20 9 -20 8 -20 7 -20 6 -20 6 -20 4 -20 4 -20 3 -20 2 -20 2 -20 1 -20 0 0 0 -20 0 -20 -1 -20 -2 -20 -2 -20 -3 -20 -4 -20 -4 -20 -6 -20 -6 -20 -7 -20 -8 -20 -9 -20 -10 -20 -11 -20 -12 -20 -14 -20 -16 -20 -18 -20 -21 -20 -24 -20 -29 -20 -38 -20 -62 0 -117 20 -62 20 -38 20 -29 20 -24 20 -21 20 -18 20 -16 20 -14 20 -12 20 -11 20 -10 20 -9 20 -8 20 -7 20 -6 20 -6 20 -4 20 -4 20 -3 20 -2 20 -2 20 -1 20 -1 0 0 20 1 20 1 20 2 20 2 20 3 20 4 20 4 20 6 20 6 20 7 20 8 20 9 20 10 20 11 20 12 20 14 20 16 20 18 20 21 20 24 20 29 20 38 20 62 0 117" stroke="#000000" stroke-width="20" fill="none" />
  <path id="LINE37" d="M 51780 20900 l 0 660" stroke="#000000" stroke-width="20" fill="none" />
  <path id="LINE38" d="M 51360 21200 l 820 0" stroke="#000000" stroke-width="20" fill="none" />
  <path id="POLYGON40" d="M 60240 24020 l -13520 0" stroke="#000000" stroke-width="20" fill="none" />
  <path id="LINE40" d="M 46740 24020 l 0 1040" stroke="#000000" stroke-width="20" fill="none" />
  <path d="M 46220 25600 l -720 580" stroke="#000000" stroke-width="20" fill="none" />
  <path d="M 46780 26200 l -620 480" stroke="#000000" stroke-width="20" fill="none" />
  <path d="M 45560 26180 l 620 500" stroke="#000000" stroke-width="20" fill="none" />
  <path d="M 47320 25580 l 760 600" stroke="#000000" stroke-width="20" fill="none" />
  <path d="M 46800 26200 l 600 480" stroke="#000000" stroke-width="20" fill="none" />
  <path d="M 48020 26180 l -620 500" stroke="#000000" stroke-width="20" fill="none" />
  <rect x="46240" y="25040" width="1140" height="540" stroke="#000000" stroke-width="20" fill="none" />
  <path d="M 45780 26860 l 340 680" stroke="#000000" stroke-width="20" fill="none" />
  <path d="M 46460 26860 l -340 680" stroke="#000000" stroke-width="20" fill="none" />
  <path id="LINE51" d="M 46120 26680 l 0 860" stroke="#000000" stroke-width="20" fill="none" />
  <path id="LINE52" d="M 47400 26620 l 0 1920" stroke="#000000" stroke-width="20" fill="none" />
  <path d="M 47060 27840 l 340 700" stroke="#000000" stroke-width="20" fill="none" />
  <path d="M 47740 27840 l -340 700" stroke="#000000" stroke-width="20" fill="none" />
  <path id="POLYGON54" d="M 47460 28500 l -45220 0" stroke="#000000" stroke-width="20" fill="none" />
  <path id="POLYGON57" d="M 46260 27520 l -42400 0" stroke="#000000" stroke-width="20" fill="none" />
  <path id="LINE58" d="M 34820 22040 l 0 1040" stroke="#000000" stroke-width="20" fill="none" />
  <path d="M 34280 23620 l -700 580" stroke="#000000" stroke-width="20" fill="none" />
  <path d="M 34840 24220 l -620 480" stroke="#000000" stroke-width="20" fill="none" />
  <path d="M 33620 24200 l 640 500" stroke="#000000" stroke-width="20" fill="none" />
  <path d="M 35380 23600 l 760 600" stroke="#000000" stroke-width="20" fill="none" />
  <path d="M 34880 24220 l 580 480" stroke="#000000" stroke-width="20" fill="none" />
  <path d="M 36080 24200 l -620 500" stroke="#000000" stroke-width="20" fill="none" />
  <rect x="34300" y="23060" width="1140" height="540" stroke="#000000" stroke-width="20" fill="none" />
  <path d="M 33860 26800 l 340 700" stroke="#000000" stroke-width="20" fill="none" />
  <path d="M 34540 26800 l -340 700" stroke="#000000" stroke-width="20" fill="none" />
  <path id="LINE67" d="M 34200 24660 l 0 2840" stroke="#000000" stroke-width="20" fill="none" />
  <path id="LINE69" d="M 35460 24720 l 0 3780" stroke="#000000" stroke-width="20" fill="none" />
  <path d="M 35120 27780 l 340 720" stroke="#000000" stroke-width="20" fill="none" />
  <path d="M 35800 27780 l -340 720" stroke="#000000" stroke-width="20" fill="none" />
  <path id="POLYGON75" d="M 3860 27520 l 0 1920" stroke="#000000" stroke-width="20" fill="none" />
  <path id="POLYGON76" d="M 2240 28460 l 0 980" stroke="#000000" stroke-width="20" fill="none" />
  <path id="POLYGON77" d="M 1400 29420 l 27840 0" stroke="#000000" stroke-width="20" fill="none" />
  <path id="POLYGON78" d="M 1360 29440 l 0 1960" stroke="#000000" stroke-width="20" fill="none" />
  <path id="LINE78" d="M 29240 29420 l 0 1960" stroke="#000000" stroke-width="20" fill="none" />
  <path d="M 8460 28740 l 320 700" stroke="#000000" stroke-width="20" fill="none" />
  <path d="M 9140 28740 l -340 700" stroke="#000000" stroke-width="20" fill="none" />
  <path d="M 10080 28740 l 340 700" stroke="#000000" stroke-width="20" fill="none" />
  <path d="M 10760 28740 l -320 700" stroke="#000000" stroke-width="20" fill="none" />
  <path id="LINE90" d="M 10420 27520 l 0 1920" stroke="#000000" stroke-width="20" fill="none" />
  <path id="LINE98" d="M 8800 28460 l 0 980" stroke="#000000" stroke-width="20" fill="none" />
  <path d="M 15640 28740 l 320 700" stroke="#000000" stroke-width="20" fill="none" />
  <path d="M 16320 28740 l -340 700" stroke="#000000" stroke-width="20" fill="none" />
  <path d="M 17260 28740 l 340 700" stroke="#000000" stroke-width="20" fill="none" />
  <path d="M 17940 28740 l -320 700" stroke="#000000" stroke-width="20" fill="none" />
  <path id="LINE123" d="M 17600 27520 l 0 1920" stroke="#000000" stroke-width="20" fill="none" />
  <path id="LINE124" d="M 15980 28460 l 0 980" stroke="#000000" stroke-width="20" fill="none" />
  <path d="M 23120 28740 l 300 700" stroke="#000000" stroke-width="20" fill="none" />
  <path d="M 23800 28740 l -340 700" stroke="#000000" stroke-width="20" fill="none" />
  <path d="M 24720 28740 l 340 700" stroke="#000000" stroke-width="20" fill="none" />
  <path d="M 25400 28740 l -300 700" stroke="#000000" stroke-width="20" fill="none" />
  <path id="LINE129" d="M 25060 27520 l 0 1920" stroke="#000000" stroke-width="20" fill="none" />
  <path id="LINE130" d="M 23460 28460 l 0 980" stroke="#000000" stroke-width="20" fill="none" />
  <g id="TEXT143">
    <rect x="2720" y="29440" width="3320" height="1300" stroke-width="0" fill="none" id="TEXT143_pbTextBoundingRectEl" />
    <text fill="#000000" font-family="Courier" font-size="560" text-anchor="middle" x="4380" y="30370" id="TEXT143_pbTextEl">4#炉</text>
  </g>
  <g id="TEXT144">
    <rect x="8160" y="29440" width="3320" height="1300" stroke-width="0" fill="none" id="TEXT144_pbTextBoundingRectEl" />
    <text fill="#000000" font-family="Courier" font-size="560" text-anchor="middle" x="9820" y="30370" id="TEXT144_pbTextEl">3#炉</text>
  </g>
  <g id="TEXT145">
    <rect x="15360" y="29440" width="3320" height="1300" stroke-width="0" fill="none" id="TEXT145_pbTextBoundingRectEl" />
    <text fill="#000000" font-family="Courier" font-size="560" text-anchor="middle" x="17020" y="30370" id="TEXT145_pbTextEl">2#炉</text>
  </g>
  <g id="TEXT146">
    <rect x="22660" y="29440" width="3320" height="1300" stroke-width="0" fill="none" id="TEXT146_pbTextBoundingRectEl" />
    <text fill="#000000" font-family="Courier" font-size="560" text-anchor="middle" x="24320" y="30370" id="TEXT146_pbTextEl">1#炉</text>
  </g>
  <g id="TEXT147">
    <rect x="1620" y="30480" width="1000" height="600" stroke-width="0" fill="none" id="TEXT147_pbTextBoundingRectEl" />
    <text fill="#000000" font-family="Courier" font-size="560" text-anchor="middle" x="2120" y="31060" id="TEXT147_pbTextEl">A</text>
  </g>
  <g id="TEXT202">
    <rect x="3220" y="30480" width="1000" height="600" stroke-width="0" fill="none" id="TEXT202_pbTextBoundingRectEl" />
    <text fill="#000000" font-family="Courier" font-size="560" text-anchor="middle" x="3720" y="31060" id="TEXT202_pbTextEl">B</text>
  </g>
  <g id="TEXT203">
    <rect x="4560" y="30480" width="1000" height="600" stroke-width="0" fill="none" id="TEXT203_pbTextBoundingRectEl" />
    <text fill="#000000" font-family="Courier" font-size="560" text-anchor="middle" x="5060" y="31060" id="TEXT203_pbTextEl">C</text>
  </g>
  <g id="TEXT204">
    <rect x="6000" y="30480" width="1000" height="600" stroke-width="0" fill="none" id="TEXT204_pbTextBoundingRectEl" />
    <text fill="#000000" font-family="Courier" font-size="560" text-anchor="middle" x="6500" y="31060" id="TEXT204_pbTextEl">D</text>
  </g>
  <path id="POLYGON130" d="M 7840 29460 l 0 1820" stroke="#FF0000" stroke-width="20" fill="none" />
  <path id="LINE151" d="M 13880 29460 l 0 1820" stroke="#FF0000" stroke-width="20" fill="none" />
  <path id="LINE152" d="M 21260 29460 l 0 1820" stroke="#FF0000" stroke-width="20" fill="none" />
  <g id="TEXT205">
    <rect x="8220" y="30480" width="1000" height="600" stroke-width="0" fill="none" id="TEXT205_pbTextBoundingRectEl" />
    <text fill="#000000" font-family="Courier" font-size="560" text-anchor="middle" x="8720" y="31060" id="TEXT205_pbTextEl">A</text>
  </g>
  <g id="TEXT206">
    <rect x="9820" y="30480" width="1000" height="600" stroke-width="0" fill="none" id="TEXT206_pbTextBoundingRectEl" />
    <text fill="#000000" font-family="Courier" font-size="560" text-anchor="middle" x="10320" y="31060" id="TEXT206_pbTextEl">B</text>
  </g>
  <g id="TEXT207">
    <rect x="11160" y="30480" width="1000" height="600" stroke-width="0" fill="none" id="TEXT207_pbTextBoundingRectEl" />
    <text fill="#000000" font-family="Courier" font-size="560" text-anchor="middle" x="11660" y="31060" id="TEXT207_pbTextEl">C</text>
  </g>
  <g id="TEXT208">
    <rect x="12600" y="30480" width="1000" height="600" stroke-width="0" fill="none" id="TEXT208_pbTextBoundingRectEl" />
    <text fill="#000000" font-family="Courier" font-size="560" text-anchor="middle" x="13100" y="31060" id="TEXT208_pbTextEl">D</text>
  </g>
  <g id="TEXT209">
    <rect x="14680" y="30480" width="1000" height="600" stroke-width="0" fill="none" id="TEXT209_pbTextBoundingRectEl" />
    <text fill="#000000" font-family="Courier" font-size="560" text-anchor="middle" x="15180" y="31060" id="TEXT209_pbTextEl">A</text>
  </g>
  <g id="TEXT210">
    <rect x="16260" y="30480" width="1000" height="600" stroke-width="0" fill="none" id="TEXT210_pbTextBoundingRectEl" />
    <text fill="#000000" font-family="Courier" font-size="560" text-anchor="middle" x="16760" y="31060" id="TEXT210_pbTextEl">B</text>
  </g>
  <g id="TEXT211">
    <rect x="17620" y="30480" width="1000" height="600" stroke-width="0" fill="none" id="TEXT211_pbTextBoundingRectEl" />
    <text fill="#000000" font-family="Courier" font-size="560" text-anchor="middle" x="18120" y="31060" id="TEXT211_pbTextEl">C</text>
  </g>
  <g id="TEXT212">
    <rect x="19060" y="30480" width="1000" height="600" stroke-width="0" fill="none" id="TEXT212_pbTextBoundingRectEl" />
    <text fill="#000000" font-family="Courier" font-size="560" text-anchor="middle" x="19560" y="31060" id="TEXT212_pbTextEl">D</text>
  </g>
  <g id="TEXT213">
    <rect x="22300" y="30480" width="1000" height="600" stroke-width="0" fill="none" id="TEXT213_pbTextBoundingRectEl" />
    <text fill="#000000" font-family="Courier" font-size="560" text-anchor="middle" x="22800" y="31060" id="TEXT213_pbTextEl">A</text>
  </g>
  <g id="TEXT214">
    <rect x="23880" y="30480" width="1000" height="600" stroke-width="0" fill="none" id="TEXT214_pbTextBoundingRectEl" />
    <text fill="#000000" font-family="Courier" font-size="560" text-anchor="middle" x="24380" y="31060" id="TEXT214_pbTextEl">B</text>
  </g>
  <g id="TEXT215">
    <rect x="25240" y="30480" width="1000" height="600" stroke-width="0" fill="none" id="TEXT215_pbTextBoundingRectEl" />
    <text fill="#000000" font-family="Courier" font-size="560" text-anchor="middle" x="25740" y="31060" id="TEXT215_pbTextEl">C</text>
  </g>
  <g id="TEXT216">
    <rect x="26660" y="30480" width="1000" height="600" stroke-width="0" fill="none" id="TEXT216_pbTextBoundingRectEl" />
    <text fill="#000000" font-family="Courier" font-size="560" text-anchor="middle" x="27160" y="31060" id="TEXT216_pbTextEl">D</text>
  </g>
  <g id="TEXT217">
    <rect x="29920" y="29780" width="4660" height="1300" stroke-width="0" fill="none" id="TEXT217_pbTextBoundingRectEl" />
    <text fill="#000000" font-family="Courier" font-size="560" text-anchor="middle" x="32250" y="30710" id="TEXT217_pbTextEl">热电锅炉仓</text>
  </g>
  <g id="TEXT218">
    <rect x="42420" y="28480" width="4660" height="1300" stroke-width="0" fill="none" id="TEXT218_pbTextBoundingRectEl" />
    <text fill="#000000" font-family="Courier" font-size="560" text-anchor="middle" x="44750" y="29410" id="TEXT218_pbTextEl">S16#B皮带</text>
  </g>
  <g id="TEXT219">
    <rect x="41080" y="26300" width="4660" height="1300" stroke-width="0" fill="none" id="TEXT219_pbTextBoundingRectEl" />
    <text fill="#000000" font-family="Courier" font-size="560" text-anchor="middle" x="43410" y="27230" id="TEXT219_pbTextEl">S16#A皮带</text>
  </g>
  <g id="TEXT220">
    <rect x="15920" y="20060" width="4660" height="1300" stroke-width="0" fill="none" id="TEXT220_pbTextBoundingRectEl" />
    <text fill="#000000" font-family="Courier" font-size="560" text-anchor="middle" x="18250" y="20990" id="TEXT220_pbTextEl">去9#三通</text>
  </g>
  <g id="TEXT221">
    <rect x="15680" y="15560" width="4660" height="1300" stroke-width="0" fill="none" id="TEXT221_pbTextBoundingRectEl" />
    <text fill="#000000" font-family="Courier" font-size="560" text-anchor="middle" x="18010" y="16490" id="TEXT221_pbTextEl">S8#A三通</text>
  </g>
  <g id="TEXT222">
    <rect x="14200" y="9700" width="4660" height="1300" stroke-width="0" fill="none" id="TEXT222_pbTextBoundingRectEl" />
    <text fill="#000000" font-family="Courier" font-size="560" text-anchor="middle" x="16530" y="10630" id="TEXT222_pbTextEl">去6#三通</text>
  </g>
  <g id="TEXT223">
    <rect x="16280" y="5420" width="4660" height="1300" stroke-width="0" fill="none" id="TEXT223_pbTextBoundingRectEl" />
    <text fill="#000000" font-family="Courier" font-size="560" text-anchor="middle" x="18610" y="6350" id="TEXT223_pbTextEl">S#1A三通</text>
  </g>
  <g id="TEXT224">
    <rect x="28260" y="15980" width="4660" height="1300" stroke-width="0" fill="none" id="TEXT224_pbTextBoundingRectEl" />
    <text fill="#000000" font-family="Courier" font-size="560" text-anchor="middle" x="30590" y="16910" id="TEXT224_pbTextEl">S7#B三通</text>
  </g>
  <g id="TEXT225">
    <rect x="22280" y="13700" width="4660" height="1300" stroke-width="0" fill="none" id="TEXT225_pbTextBoundingRectEl" />
    <text fill="#000000" font-family="Courier" font-size="560" text-anchor="middle" x="24610" y="14630" id="TEXT225_pbTextEl">S7#A三通</text>
  </g>
  <g id="TEXT226">
    <rect x="32020" y="15100" width="4660" height="1300" stroke-width="0" fill="none" id="TEXT226_pbTextBoundingRectEl" />
    <text fill="#000000" font-family="Courier" font-size="560" text-anchor="middle" x="34350" y="16030" id="TEXT226_pbTextEl">S13#B皮带</text>
  </g>
  <g id="TEXT227">
    <rect x="32020" y="13100" width="4660" height="1300" stroke-width="0" fill="none" id="TEXT227_pbTextBoundingRectEl" />
    <text fill="#000000" font-family="Courier" font-size="560" text-anchor="middle" x="34350" y="14030" id="TEXT227_pbTextEl">S13#A皮带</text>
  </g>
  <g id="TEXT228">
    <rect x="28800" y="10740" width="1600" height="600" stroke-width="0" fill="none" id="TEXT228_pbTextBoundingRectEl" />
    <text fill="#000000" font-family="Courier" font-size="560" text-anchor="middle" x="29600" y="11320" id="TEXT228_pbTextEl">3#B</text>
  </g>
  <g id="TEXT229">
    <rect x="31680" y="10740" width="1600" height="600" stroke-width="0" fill="none" id="TEXT229_pbTextBoundingRectEl" />
    <text fill="#000000" font-family="Courier" font-size="560" text-anchor="middle" x="32480" y="11320" id="TEXT229_pbTextEl">3#A</text>
  </g>
  <g id="TEXT230">
    <rect x="35220" y="10740" width="2060" height="600" stroke-width="0" fill="none" id="TEXT230_pbTextBoundingRectEl" />
    <text fill="#000000" font-family="Courier" font-size="560" text-anchor="middle" x="36250" y="11320" id="TEXT230_pbTextEl">3#D</text>
  </g>
  <g id="TEXT231">
    <rect x="38020" y="10740" width="1420" height="600" stroke-width="0" fill="none" id="TEXT231_pbTextBoundingRectEl" />
    <text fill="#000000" font-family="Courier" font-size="560" text-anchor="middle" x="38730" y="11320" id="TEXT231_pbTextEl">3#C</text>
  </g>
  <g id="TEXT232">
    <rect x="33320" y="11720" width="2060" height="780" stroke-width="0" fill="none" id="TEXT232_pbTextBoundingRectEl" />
    <text fill="#000000" font-family="Courier" font-size="560" text-anchor="middle" x="34350" y="12390" id="TEXT232_pbTextEl">3#圆</text>
  </g>
  <g id="TEXT233">
    <rect x="32020" y="8100" width="4020" height="780" stroke-width="0" fill="none" id="TEXT233_pbTextBoundingRectEl" />
    <text fill="#000000" font-family="Courier" font-size="560" text-anchor="middle" x="34030" y="8770" id="TEXT233_pbTextEl">3#盘煤仪</text>
  </g>
  <g id="TEXT234">
    <rect x="29660" y="4260" width="4660" height="1300" stroke-width="0" fill="none" id="TEXT234_pbTextBoundingRectEl" />
    <text fill="#000000" font-family="Courier" font-size="560" text-anchor="middle" x="31990" y="5190" id="TEXT234_pbTextEl">S#1B三通</text>
  </g>
  <g id="TEXT235">
    <rect x="31420" y="17580" width="4660" height="1300" stroke-width="0" fill="none" id="TEXT235_pbTextBoundingRectEl" />
    <text fill="#000000" font-family="Courier" font-size="560" text-anchor="middle" x="33750" y="18510" id="TEXT235_pbTextEl">S14#A皮带</text>
  </g>
  <g id="TEXT236">
    <rect x="31420" y="19580" width="4660" height="1300" stroke-width="0" fill="none" id="TEXT236_pbTextBoundingRectEl" />
    <text fill="#000000" font-family="Courier" font-size="560" text-anchor="middle" x="33750" y="20510" id="TEXT236_pbTextEl">S14#B皮带</text>
  </g>
  <g id="TEXT237">
    <rect x="30040" y="21740" width="4660" height="1300" stroke-width="0" fill="none" id="TEXT237_pbTextBoundingRectEl" />
    <text fill="#000000" font-family="Courier" font-size="560" text-anchor="middle" x="32370" y="22670" id="TEXT237_pbTextEl">S4#B皮带</text>
  </g>
  <g id="TEXT238">
    <rect x="35280" y="22860" width="4660" height="1300" stroke-width="0" fill="none" id="TEXT238_pbTextBoundingRectEl" />
    <text fill="#000000" font-family="Courier" font-size="560" text-anchor="middle" x="37610" y="23790" id="TEXT238_pbTextEl">S#13B三通</text>
  </g>
  <g id="TEXT239">
    <rect x="41880" y="23840" width="4660" height="1300" stroke-width="0" fill="none" id="TEXT239_pbTextBoundingRectEl" />
    <text fill="#000000" font-family="Courier" font-size="560" text-anchor="middle" x="44210" y="24770" id="TEXT239_pbTextEl">S13#A三通</text>
  </g>
  <g id="TEXT240">
    <rect x="41740" y="3480" width="4660" height="1300" stroke-width="0" fill="none" id="TEXT240_pbTextBoundingRectEl" />
    <text fill="#000000" font-family="Courier" font-size="560" text-anchor="middle" x="44070" y="4410" id="TEXT240_pbTextEl">S20#A/B</text>
  </g>
  <g id="TEXT241">
    <rect x="46000" y="960" width="4660" height="1300" stroke-width="0" fill="none" id="TEXT241_pbTextBoundingRectEl" />
    <text fill="#000000" font-family="Courier" font-size="560" text-anchor="middle" x="48330" y="1890" id="TEXT241_pbTextEl">S6#带</text>
  </g>
  <g id="TEXT242">
    <rect x="50600" y="1200" width="4660" height="1300" stroke-width="0" fill="none" id="TEXT242_pbTextBoundingRectEl" />
    <text fill="#000000" font-family="Courier" font-size="560" text-anchor="middle" x="52930" y="2130" id="TEXT242_pbTextEl">S8#秤</text>
  </g>
  <g id="TEXT243">
    <rect x="55860" y="780" width="6620" height="1300" stroke-width="0" fill="none" id="TEXT243_pbTextBoundingRectEl" />
    <text fill="#000000" font-family="Courier" font-size="560" text-anchor="middle" x="59170" y="1710" id="TEXT243_pbTextEl">叶轮气焊机A/B</text>
  </g>
  <g id="TEXT244">
    <rect x="56680" y="3700" width="4660" height="1300" stroke-width="0" fill="none" id="TEXT244_pbTextBoundingRectEl" />
    <text fill="#000000" font-family="Courier" font-size="560" text-anchor="middle" x="59010" y="4630" id="TEXT244_pbTextEl">S#17皮带</text>
  </g>
  <g id="TEXT245">
    <rect x="41280" y="19880" width="4660" height="1300" stroke-width="0" fill="none" id="TEXT245_pbTextBoundingRectEl" />
    <text fill="#000000" font-family="Courier" font-size="560" text-anchor="middle" x="43610" y="20810" id="TEXT245_pbTextEl">S2#B滚</text>
  </g>
  <g id="TEXT246">
    <rect x="53340" y="20020" width="4660" height="1300" stroke-width="0" fill="none" id="TEXT246_pbTextBoundingRectEl" />
    <text fill="#000000" font-family="Courier" font-size="560" text-anchor="middle" x="55670" y="20950" id="TEXT246_pbTextEl">S2#A滚</text>
  </g>
  <g id="TEXT247">
    <rect x="39420" y="20900" width="4660" height="1300" stroke-width="0" fill="none" id="TEXT247_pbTextBoundingRectEl" />
    <text fill="#000000" font-family="Courier" font-size="560" text-anchor="middle" x="41750" y="21830" id="TEXT247_pbTextEl">S2#B破碎机</text>
  </g>
  <g id="TEXT248">
    <rect x="52740" y="21320" width="4660" height="1300" stroke-width="0" fill="none" id="TEXT248_pbTextBoundingRectEl" />
    <text fill="#000000" font-family="Courier" font-size="560" text-anchor="middle" x="55070" y="22250" id="TEXT248_pbTextEl">S2#A破碎机</text>
  </g>
  <g id="TEXT249">
    <rect x="49440" y="24580" width="4660" height="1300" stroke-width="0" fill="none" id="TEXT249_pbTextBoundingRectEl" />
    <text fill="#000000" font-family="Courier" font-size="560" text-anchor="middle" x="51770" y="25510" id="TEXT249_pbTextEl">S4#号B带</text>
  </g>
  <g id="TEXT250">
    <rect x="57100" y="24580" width="4660" height="1300" stroke-width="0" fill="none" id="TEXT250_pbTextBoundingRectEl" />
    <text fill="#000000" font-family="Courier" font-size="560" text-anchor="middle" x="59430" y="25510" id="TEXT250_pbTextEl">S4#号A带</text>
  </g>
  <g id="TEXT251">
    <rect x="54560" y="22720" width="4660" height="1300" stroke-width="0" fill="none" id="TEXT251_pbTextBoundingRectEl" />
    <text fill="#000000" font-family="Courier" font-size="560" text-anchor="middle" x="56890" y="23650" id="TEXT251_pbTextEl">S7#A秤</text>
  </g>
  <g id="TEXT252">
    <rect x="34860" y="20960" width="4660" height="1300" stroke-width="0" fill="none" id="TEXT252_pbTextBoundingRectEl" />
    <text fill="#000000" font-family="Courier" font-size="560" text-anchor="middle" x="37190" y="21890" id="TEXT252_pbTextEl">S7#A秤</text>
  </g>
  <g id="TEXT253">
    <rect x="43220" y="22300" width="4660" height="1300" stroke-width="0" fill="none" id="TEXT253_pbTextBoundingRectEl" />
    <text fill="#000000" font-family="Courier" font-size="560" text-anchor="middle" x="45550" y="23230" id="TEXT253_pbTextEl">2#采样机</text>
  </g>
  <g id="TEXT254">
    <rect x="24560" y="940" width="11220" height="1900" stroke-width="0" fill="none" id="TEXT254_pbTextBoundingRectEl" />
    <text fill="#000000" font-family="Courier" font-size="800" text-anchor="middle" x="30170" y="2290" id="TEXT254_pbTextEl">3#圆形料厂</text>
  </g>
  <g id="TEXT255">
    <rect x="51440" y="5740" width="4660" height="1300" stroke-width="0" fill="none" id="TEXT255_pbTextBoundingRectEl" />
    <text fill="#000000" font-family="Courier" font-size="560" text-anchor="middle" x="53770" y="6670" id="TEXT255_pbTextEl">S5#盘</text>
  </g>
  <g id="TEXT256">
    <rect x="37180" y="6500" width="4660" height="1300" stroke-width="0" fill="none" id="TEXT256_pbTextBoundingRectEl" />
    <text fill="#000000" font-family="Courier" font-size="560" text-anchor="middle" x="39510" y="7430" id="TEXT256_pbTextEl">S6#秤</text>
  </g>
  <g id="DATAPOINT1" PB:IsMultiState="False" PBD:PtTagName="\\RTDBB\82_3701_01_A60" PB:Type="7" PB:NumberFormat="0.00">
    <rect x="7720" y="2440" width="1280" height="600" stroke-width="0" fill="none" id="DATAPOINT1_pbTextBoundingRectEl" />
    <text fill="#000000" font-family="Helvetica" font-size="560" text-anchor="middle" x="8360" y="3020" id="DATAPOINT1_pbTextEl" PBD:Property="VAL">#.##</text>
  </g>
</svg>