<?xml version="1.0"?>
<?xml-stylesheet type='text/javascript'?>
<!--Draw SVG: 2019-11-25 09:41:03 47-Monday-->
<svg xmlns="http://www.w3.org/2000/svg" xmlns:xlink="http://www.w3.org/1999/xlink" version="1.1" style="background-color:#000000" width="1066" height="800" viewbox="0 0 1066 800">
<defs>
<linearGradient x1="50.000000%" y1="0.000000%" x2="50.000000%" y2="100.000000%" id="lgradient22_0">
<stop offset="0" stop-color="#2C2C2C" stop-opacity="1"/>
<stop offset="0.5" stop-color="#FFFFFF" stop-opacity="1"/>
<stop offset="1" stop-color="#2C2C2C" stop-opacity="1"/>
</linearGradient>
<linearGradient x1="50.000000%" y1="0.000000%" x2="50.000000%" y2="100.000000%" id="lgradient22_1">
<stop offset="0" stop-color="#2C2C2C" stop-opacity="1"/>
<stop offset="0.5" stop-color="#FFFFFF" stop-opacity="1"/>
<stop offset="1" stop-color="#2C2C2C" stop-opacity="1"/>
</linearGradient>
<linearGradient x1="50.000000%" y1="0.000000%" x2="50.000000%" y2="100.000000%" id="lgradient23_0">
<stop offset="0" stop-color="#2C2C2C" stop-opacity="1"/>
<stop offset="0.5" stop-color="#FFFFFF" stop-opacity="1"/>
<stop offset="1" stop-color="#2C2C2C" stop-opacity="1"/>
</linearGradient>
<linearGradient x1="50.000000%" y1="0.000000%" x2="50.000000%" y2="100.000000%" id="lgradient23_1">
<stop offset="0" stop-color="#2C2C2C" stop-opacity="1"/>
<stop offset="0.5" stop-color="#FFFFFF" stop-opacity="1"/>
<stop offset="1" stop-color="#2C2C2C" stop-opacity="1"/>
</linearGradient>
<linearGradient x1="50.000000%" y1="0.000000%" x2="50.000000%" y2="100.000000%" id="lgradient24_0">
<stop offset="0" stop-color="#2C2C2C" stop-opacity="1"/>
<stop offset="0.5" stop-color="#FFFFFF" stop-opacity="1"/>
<stop offset="1" stop-color="#2C2C2C" stop-opacity="1"/>
</linearGradient>
<linearGradient x1="50.000000%" y1="0.000000%" x2="50.000000%" y2="100.000000%" id="lgradient24_1">
<stop offset="0" stop-color="#2C2C2C" stop-opacity="1"/>
<stop offset="0.5" stop-color="#FFFFFF" stop-opacity="1"/>
<stop offset="1" stop-color="#2C2C2C" stop-opacity="1"/>
</linearGradient>
<linearGradient x1="50.000000%" y1="0.000000%" x2="50.000000%" y2="100.000000%" id="lgradient25_0">
<stop offset="0" stop-color="#2C2C2C" stop-opacity="1"/>
<stop offset="0.5" stop-color="#FFFFFF" stop-opacity="1"/>
<stop offset="1" stop-color="#2C2C2C" stop-opacity="1"/>
</linearGradient>
<linearGradient x1="50.000000%" y1="0.000000%" x2="50.000000%" y2="100.000000%" id="lgradient25_1">
<stop offset="0" stop-color="#2C2C2C" stop-opacity="1"/>
<stop offset="0.5" stop-color="#FFFFFF" stop-opacity="1"/>
<stop offset="1" stop-color="#2C2C2C" stop-opacity="1"/>
</linearGradient>
<linearGradient x1="50.000000%" y1="0.000000%" x2="50.000000%" y2="100.000000%" id="lgradient26_0">
<stop offset="0" stop-color="#2C2C2C" stop-opacity="1"/>
<stop offset="0.5" stop-color="#FFFFFF" stop-opacity="1"/>
<stop offset="1" stop-color="#2C2C2C" stop-opacity="1"/>
</linearGradient>
<linearGradient x1="50.000000%" y1="0.000000%" x2="50.000000%" y2="100.000000%" id="lgradient26_1">
<stop offset="0" stop-color="#2C2C2C" stop-opacity="1"/>
<stop offset="0.5" stop-color="#FFFFFF" stop-opacity="1"/>
<stop offset="1" stop-color="#2C2C2C" stop-opacity="1"/>
</linearGradient>
<linearGradient x1="50.000000%" y1="0.000000%" x2="50.000000%" y2="100.000000%" id="lgradient27_0">
<stop offset="0" stop-color="#2C2C2C" stop-opacity="1"/>
<stop offset="0.5" stop-color="#FFFFFF" stop-opacity="1"/>
<stop offset="1" stop-color="#2C2C2C" stop-opacity="1"/>
</linearGradient>
<linearGradient x1="50.000000%" y1="0.000000%" x2="50.000000%" y2="100.000000%" id="lgradient27_1">
<stop offset="0" stop-color="#2C2C2C" stop-opacity="1"/>
<stop offset="0.5" stop-color="#FFFFFF" stop-opacity="1"/>
<stop offset="1" stop-color="#2C2C2C" stop-opacity="1"/>
</linearGradient>
<linearGradient x1="50.000000%" y1="0.000000%" x2="50.000000%" y2="100.000000%" id="lgradient28_0">
<stop offset="0" stop-color="#2C2C2C" stop-opacity="1"/>
<stop offset="0.5" stop-color="#FFFFFF" stop-opacity="1"/>
<stop offset="1" stop-color="#2C2C2C" stop-opacity="1"/>
</linearGradient>
<linearGradient x1="50.000000%" y1="0.000000%" x2="50.000000%" y2="100.000000%" id="lgradient28_1">
<stop offset="0" stop-color="#2C2C2C" stop-opacity="1"/>
<stop offset="0.5" stop-color="#FFFFFF" stop-opacity="1"/>
<stop offset="1" stop-color="#2C2C2C" stop-opacity="1"/>
</linearGradient>
<linearGradient x1="50.000000%" y1="0.000000%" x2="50.000000%" y2="100.000000%" id="lgradient29_0">
<stop offset="0" stop-color="#2C2C2C" stop-opacity="1"/>
<stop offset="0.5" stop-color="#FFFFFF" stop-opacity="1"/>
<stop offset="1" stop-color="#2C2C2C" stop-opacity="1"/>
</linearGradient>
<linearGradient x1="50.000000%" y1="0.000000%" x2="50.000000%" y2="100.000000%" id="lgradient29_1">
<stop offset="0" stop-color="#2C2C2C" stop-opacity="1"/>
<stop offset="0.5" stop-color="#FFFFFF" stop-opacity="1"/>
<stop offset="1" stop-color="#2C2C2C" stop-opacity="1"/>
</linearGradient>
<linearGradient x1="50.000000%" y1="0.000000%" x2="50.000000%" y2="100.000000%" id="lgradient30_0">
<stop offset="0" stop-color="#2C2C2C" stop-opacity="1"/>
<stop offset="0.5" stop-color="#FFFFFF" stop-opacity="1"/>
<stop offset="1" stop-color="#2C2C2C" stop-opacity="1"/>
</linearGradient>
<linearGradient x1="50.000000%" y1="0.000000%" x2="50.000000%" y2="100.000000%" id="lgradient30_1">
<stop offset="0" stop-color="#2C2C2C" stop-opacity="1"/>
<stop offset="0.5" stop-color="#FFFFFF" stop-opacity="1"/>
<stop offset="1" stop-color="#2C2C2C" stop-opacity="1"/>
</linearGradient>
<linearGradient x1="50.000000%" y1="0.000000%" x2="50.000000%" y2="100.000000%" id="lgradient31_0">
<stop offset="0" stop-color="#2C2C2C" stop-opacity="1"/>
<stop offset="0.5" stop-color="#FFFFFF" stop-opacity="1"/>
<stop offset="1" stop-color="#2C2C2C" stop-opacity="1"/>
</linearGradient>
<linearGradient x1="50.000000%" y1="0.000000%" x2="50.000000%" y2="100.000000%" id="lgradient31_1">
<stop offset="0" stop-color="#2C2C2C" stop-opacity="1"/>
<stop offset="0.5" stop-color="#FFFFFF" stop-opacity="1"/>
<stop offset="1" stop-color="#2C2C2C" stop-opacity="1"/>
</linearGradient>
<linearGradient x1="50.000000%" y1="0.000000%" x2="50.000000%" y2="100.000000%" id="lgradient32_0">
<stop offset="0" stop-color="#2C2C2C" stop-opacity="1"/>
<stop offset="0.5" stop-color="#FFFFFF" stop-opacity="1"/>
<stop offset="1" stop-color="#2C2C2C" stop-opacity="1"/>
</linearGradient>
<linearGradient x1="50.000000%" y1="0.000000%" x2="50.000000%" y2="100.000000%" id="lgradient32_1">
<stop offset="0" stop-color="#2C2C2C" stop-opacity="1"/>
<stop offset="0.5" stop-color="#FFFFFF" stop-opacity="1"/>
<stop offset="1" stop-color="#2C2C2C" stop-opacity="1"/>
</linearGradient>
<linearGradient x1="50.000000%" y1="0.000000%" x2="50.000000%" y2="100.000000%" id="lgradient33_0">
<stop offset="0" stop-color="#2C2C2C" stop-opacity="1"/>
<stop offset="0.5" stop-color="#FFFFFF" stop-opacity="1"/>
<stop offset="1" stop-color="#2C2C2C" stop-opacity="1"/>
</linearGradient>
<linearGradient x1="50.000000%" y1="0.000000%" x2="50.000000%" y2="100.000000%" id="lgradient33_1">
<stop offset="0" stop-color="#2C2C2C" stop-opacity="1"/>
<stop offset="0.5" stop-color="#FFFFFF" stop-opacity="1"/>
<stop offset="1" stop-color="#2C2C2C" stop-opacity="1"/>
</linearGradient>
<linearGradient x1="50.000000%" y1="0.000000%" x2="50.000000%" y2="100.000000%" id="lgradient34_0">
<stop offset="0" stop-color="#2C2C2C" stop-opacity="1"/>
<stop offset="0.5" stop-color="#FFFFFF" stop-opacity="1"/>
<stop offset="1" stop-color="#2C2C2C" stop-opacity="1"/>
</linearGradient>
<linearGradient x1="50.000000%" y1="0.000000%" x2="50.000000%" y2="100.000000%" id="lgradient34_1">
<stop offset="0" stop-color="#2C2C2C" stop-opacity="1"/>
<stop offset="0.5" stop-color="#FFFFFF" stop-opacity="1"/>
<stop offset="1" stop-color="#2C2C2C" stop-opacity="1"/>
</linearGradient>
<linearGradient x1="50.000000%" y1="0.000000%" x2="50.000000%" y2="100.000000%" id="lgradient35_0">
<stop offset="0" stop-color="#2C2C2C" stop-opacity="1"/>
<stop offset="0.5" stop-color="#FFFFFF" stop-opacity="1"/>
<stop offset="1" stop-color="#2C2C2C" stop-opacity="1"/>
</linearGradient>
<linearGradient x1="50.000000%" y1="0.000000%" x2="50.000000%" y2="100.000000%" id="lgradient35_1">
<stop offset="0" stop-color="#2C2C2C" stop-opacity="1"/>
<stop offset="0.5" stop-color="#FFFFFF" stop-opacity="1"/>
<stop offset="1" stop-color="#2C2C2C" stop-opacity="1"/>
</linearGradient>
<linearGradient x1="50.000000%" y1="0.000000%" x2="50.000000%" y2="100.000000%" id="lgradient36_0">
<stop offset="0" stop-color="#2C2C2C" stop-opacity="1"/>
<stop offset="0.5" stop-color="#FFFFFF" stop-opacity="1"/>
<stop offset="1" stop-color="#2C2C2C" stop-opacity="1"/>
</linearGradient>
<linearGradient x1="50.000000%" y1="0.000000%" x2="50.000000%" y2="100.000000%" id="lgradient36_1">
<stop offset="0" stop-color="#2C2C2C" stop-opacity="1"/>
<stop offset="0.5" stop-color="#FFFFFF" stop-opacity="1"/>
<stop offset="1" stop-color="#2C2C2C" stop-opacity="1"/>
</linearGradient>
<linearGradient x1="50.000000%" y1="0.000000%" x2="50.000000%" y2="100.000000%" id="lgradient37_0">
<stop offset="0" stop-color="#2C2C2C" stop-opacity="1"/>
<stop offset="0.5" stop-color="#FFFFFF" stop-opacity="1"/>
<stop offset="1" stop-color="#2C2C2C" stop-opacity="1"/>
</linearGradient>
<linearGradient x1="50.000000%" y1="0.000000%" x2="50.000000%" y2="100.000000%" id="lgradient37_1">
<stop offset="0" stop-color="#2C2C2C" stop-opacity="1"/>
<stop offset="0.5" stop-color="#FFFFFF" stop-opacity="1"/>
<stop offset="1" stop-color="#2C2C2C" stop-opacity="1"/>
</linearGradient>
<linearGradient x1="50.000000%" y1="0.000000%" x2="50.000000%" y2="100.000000%" id="lgradient38_0">
<stop offset="0" stop-color="#2C2C2C" stop-opacity="1"/>
<stop offset="0.5" stop-color="#FFFFFF" stop-opacity="1"/>
<stop offset="1" stop-color="#2C2C2C" stop-opacity="1"/>
</linearGradient>
<linearGradient x1="50.000000%" y1="0.000000%" x2="50.000000%" y2="100.000000%" id="lgradient38_1">
<stop offset="0" stop-color="#2C2C2C" stop-opacity="1"/>
<stop offset="0.5" stop-color="#FFFFFF" stop-opacity="1"/>
<stop offset="1" stop-color="#2C2C2C" stop-opacity="1"/>
</linearGradient>
<linearGradient x1="50.000000%" y1="0.000000%" x2="50.000000%" y2="100.000000%" id="lgradient39_0">
<stop offset="0" stop-color="#2C2C2C" stop-opacity="1"/>
<stop offset="0.5" stop-color="#FFFFFF" stop-opacity="1"/>
<stop offset="1" stop-color="#2C2C2C" stop-opacity="1"/>
</linearGradient>
<linearGradient x1="50.000000%" y1="0.000000%" x2="50.000000%" y2="100.000000%" id="lgradient39_1">
<stop offset="0" stop-color="#2C2C2C" stop-opacity="1"/>
<stop offset="0.5" stop-color="#FFFFFF" stop-opacity="1"/>
<stop offset="1" stop-color="#2C2C2C" stop-opacity="1"/>
</linearGradient>
<linearGradient x1="50.000000%" y1="0.000000%" x2="50.000000%" y2="100.000000%" id="lgradient40_0">
<stop offset="0" stop-color="#2C2C2C" stop-opacity="1"/>
<stop offset="0.5" stop-color="#FFFFFF" stop-opacity="1"/>
<stop offset="1" stop-color="#2C2C2C" stop-opacity="1"/>
</linearGradient>
<linearGradient x1="50.000000%" y1="0.000000%" x2="50.000000%" y2="100.000000%" id="lgradient40_1">
<stop offset="0" stop-color="#2C2C2C" stop-opacity="1"/>
<stop offset="0.5" stop-color="#FFFFFF" stop-opacity="1"/>
<stop offset="1" stop-color="#2C2C2C" stop-opacity="1"/>
</linearGradient>
<linearGradient x1="50.000000%" y1="0.000000%" x2="50.000000%" y2="100.000000%" id="lgradient41_0">
<stop offset="0" stop-color="#2C2C2C" stop-opacity="1"/>
<stop offset="0.5" stop-color="#FFFFFF" stop-opacity="1"/>
<stop offset="1" stop-color="#2C2C2C" stop-opacity="1"/>
</linearGradient>
<linearGradient x1="50.000000%" y1="0.000000%" x2="50.000000%" y2="100.000000%" id="lgradient41_1">
<stop offset="0" stop-color="#2C2C2C" stop-opacity="1"/>
<stop offset="0.5" stop-color="#FFFFFF" stop-opacity="1"/>
<stop offset="1" stop-color="#2C2C2C" stop-opacity="1"/>
</linearGradient>
<linearGradient x1="50.000000%" y1="0.000000%" x2="50.000000%" y2="100.000000%" id="lgradient42_0">
<stop offset="0" stop-color="#2C2C2C" stop-opacity="1"/>
<stop offset="0.5" stop-color="#FFFFFF" stop-opacity="1"/>
<stop offset="1" stop-color="#2C2C2C" stop-opacity="1"/>
</linearGradient>
<linearGradient x1="50.000000%" y1="0.000000%" x2="50.000000%" y2="100.000000%" id="lgradient42_1">
<stop offset="0" stop-color="#2C2C2C" stop-opacity="1"/>
<stop offset="0.5" stop-color="#FFFFFF" stop-opacity="1"/>
<stop offset="1" stop-color="#2C2C2C" stop-opacity="1"/>
</linearGradient>
<linearGradient x1="0.000000%" y1="50.000000%" x2="100.000000%" y2="50.000000%" id="lgradient140">
<stop offset="0" stop-color="#111111" stop-opacity="1"/>
<stop offset="0.5" stop-color="#636563" stop-opacity="1"/>
<stop offset="1" stop-color="#111111" stop-opacity="1"/>
</linearGradient>
</defs>
<line shape-type="limitline" x1="684" y1="697" x2="684" y2="643" fill="#00FFFF" stroke="#FFFFFF" stroke-width="3.00" stroke-dasharray="5 10"/>
<line shape-type="limitline" x1="750" y1="211" x2="935" y2="211" fill="#00FFFF" stroke="#F9FF00" stroke-width="3.00"/>
<line shape-type="limitline" x1="116" y1="610" x2="116" y2="193" fill="#00FFFF" stroke="#F9FF00" stroke-width="3.00"/>
<line shape-type="limitline" x1="879" y1="530" x2="879" y2="400" fill="#00FFFF" stroke="#F9FF00" stroke-width="3.00"/>
<line shape-type="limitline" x1="852" y1="539" x2="852" y2="436" fill="#00FFFF" stroke="#46DE00" stroke-width="3.00"/>
<line shape-type="limitline" x1="917" y1="538" x2="917" y2="605" fill="#00FFFF" stroke="#46DE00" stroke-width="3.00"/>
<line shape-type="limitline" x1="833" y1="537" x2="833" y2="606" fill="#00FFFF" stroke="#46DE00" stroke-width="3.00"/>
<line shape-type="limitline" x1="800" y1="523" x2="800" y2="401" fill="#00FFFF" stroke="#F9FF00" stroke-width="3.00"/>
<line shape-type="limitline" x1="770" y1="539" x2="770" y2="438" fill="#00FFFF" stroke="#46DE00" stroke-width="3.00"/>
<line shape-type="limitline" x1="752" y1="609" x2="752" y2="539" fill="#00FFFF" stroke="#46DE00" stroke-width="3.00"/>
<line shape-type="limitline" x1="714" y1="398" x2="714" y2="524" fill="#00FFFF" stroke="#F9FF00" stroke-width="3.00"/>
<line shape-type="limitline" x1="685" y1="435" x2="685" y2="538" fill="#00FFFF" stroke="#46DE00" stroke-width="3.00"/>
<line shape-type="limitline" x1="539" y1="642" x2="539" y2="116" fill="#00FFFF" stroke="#F9FF00" stroke-width="3.00"/>
<line shape-type="limitline" x1="447" y1="640" x2="447" y2="466" fill="#00FFFF" stroke="#F9FF00" stroke-width="3.00"/>
<line shape-type="limitline" x1="336" y1="641" x2="336" y2="357" fill="#00FFFF" stroke="#F9FF00" stroke-width="3.00"/>
<line shape-type="limitline" x1="364" y1="115" x2="364" y2="226" fill="#00FFFF" stroke="#F9FF00" stroke-width="3.00"/>
<line shape-type="limitline" x1="411" y1="228" x2="411" y2="136" fill="#00FFFF" stroke="#FFFFFF" stroke-width="3.00"/>
<rect shape-type="rectangle" x="0" y="1" width="1065" height="38" fill="#636563" stroke="#808080" stroke-width="1.00"/>
<rect shape-type="rectangle" x="282" y="3" width="500" height="33" stroke="#000000" stroke-width="1.00"/>
<text font-family="宋体" text-anchor="start" fill="#FFFFFF" shape-type="text" id="" font-size="26.750000" font-weight="bold" x="423" y="30">2#汽机油系统</text>
<a xlink:href="\动力部\动力站区\汽机\2#汽机\2#QJ_ML.svg">
<g shape-type="button">
<rect fill="#C0C0C0" stroke-width="0.3" stroke="#FFFFFF" x="960" y="3" width="100" height="33" shape-type="buttonrect"/>
<text font-family="宋体" text-anchor="middle" dominant-baseline="middle" fill="#800000" font-size="13.500000" font-weight="bold" x="1010" y="26" shape-type="buttontext">返回上一级</text>
</g>
</a>
<g shape-type="group">
<polygon shape-type="trapezium" points="110,443 121,443 115,451 115,451 110,443" fill="url(#lgradient22_0)" stroke="#808080" stroke-width="1.00"/>
<polygon shape-type="trapezium" points="110,463 121,463 115,451 115,451 110,463" fill="url(#lgradient22_1)" stroke="#808080" stroke-width="1.00"/>
</g>
<g shape-type="group">
<polygon shape-type="trapezium" points="330,489 341,489 335,497 335,497 330,489" fill="url(#lgradient23_0)" stroke="#808080" stroke-width="1.00"/>
<polygon shape-type="trapezium" points="330,508 341,508 335,497 335,497 330,508" fill="url(#lgradient23_1)" stroke="#808080" stroke-width="1.00"/>
</g>
<g shape-type="group">
<polygon shape-type="trapezium" points="330,508 341,508 335,517 335,517 330,508" fill="url(#lgradient24_0)" stroke="#808080" stroke-width="1.00"/>
<polygon shape-type="trapezium" points="330,527 341,527 335,517 335,517 330,527" fill="url(#lgradient24_1)" stroke="#808080" stroke-width="1.00"/>
</g>
<g shape-type="group">
<polygon shape-type="trapezium" points="331,588 342,588 336,597 336,597 331,588" fill="url(#lgradient25_0)" stroke="#808080" stroke-width="1.00"/>
<polygon shape-type="trapezium" points="331,608 342,608 336,597 336,597 331,608" fill="url(#lgradient25_1)" stroke="#808080" stroke-width="1.00"/>
</g>
<g shape-type="group">
<polygon shape-type="trapezium" points="441,588 452,588 446,597 446,597 441,588" fill="url(#lgradient26_0)" stroke="#808080" stroke-width="1.00"/>
<polygon shape-type="trapezium" points="441,608 452,608 446,597 446,597 441,608" fill="url(#lgradient26_1)" stroke="#808080" stroke-width="1.00"/>
</g>
<g shape-type="group">
<polygon shape-type="trapezium" points="441,510 452,510 446,520 446,520 441,510" fill="url(#lgradient27_0)" stroke="#808080" stroke-width="1.00"/>
<polygon shape-type="trapezium" points="441,531 452,531 446,520 446,520 441,531" fill="url(#lgradient27_1)" stroke="#808080" stroke-width="1.00"/>
</g>
<g shape-type="group">
<polygon shape-type="trapezium" points="441,489 452,489 446,498 446,498 441,489" fill="url(#lgradient28_0)" stroke="#808080" stroke-width="1.00"/>
<polygon shape-type="trapezium" points="441,509 452,509 446,498 446,498 441,509" fill="url(#lgradient28_1)" stroke="#808080" stroke-width="1.00"/>
</g>
<g shape-type="group">
<polygon shape-type="trapezium" points="533,511 544,511 538,520 538,520 533,511" fill="url(#lgradient29_0)" stroke="#808080" stroke-width="1.00"/>
<polygon shape-type="trapezium" points="533,531 544,531 538,520 538,520 533,531" fill="url(#lgradient29_1)" stroke="#808080" stroke-width="1.00"/>
</g>
<g shape-type="group">
<polygon shape-type="trapezium" points="533,490 544,490 538,499 538,499 533,490" fill="url(#lgradient30_0)" stroke="#808080" stroke-width="1.00"/>
<polygon shape-type="trapezium" points="533,510 544,510 538,499 538,499 533,510" fill="url(#lgradient30_1)" stroke="#808080" stroke-width="1.00"/>
</g>
<g shape-type="group">
<polygon shape-type="trapezium" points="532,588 543,588 537,596 537,596 532,588" fill="url(#lgradient31_0)" stroke="#808080" stroke-width="1.00"/>
<polygon shape-type="trapezium" points="532,607 543,607 537,596 537,596 532,607" fill="url(#lgradient31_1)" stroke="#808080" stroke-width="1.00"/>
</g>
<g shape-type="group">
<polygon shape-type="trapezium" points="679,488 691,488 685,496 685,496 679,488" fill="url(#lgradient32_0)" stroke="#808080" stroke-width="1.00"/>
<polygon shape-type="trapezium" points="679,506 691,506 685,496 685,496 679,506" fill="url(#lgradient32_1)" stroke="#808080" stroke-width="1.00"/>
</g>
<g shape-type="group">
<polygon shape-type="trapezium" points="707,488 719,488 713,496 713,496 707,488" fill="url(#lgradient33_0)" stroke="#808080" stroke-width="1.00"/>
<polygon shape-type="trapezium" points="707,506 719,506 713,496 713,496 707,506" fill="url(#lgradient33_1)" stroke="#808080" stroke-width="1.00"/>
</g>
<g shape-type="group">
<polygon shape-type="trapezium" points="764,488 775,488 769,496 769,496 764,488" fill="url(#lgradient34_0)" stroke="#808080" stroke-width="1.00"/>
<polygon shape-type="trapezium" points="764,506 775,506 769,496 769,496 764,506" fill="url(#lgradient34_1)" stroke="#808080" stroke-width="1.00"/>
</g>
<g shape-type="group">
<polygon shape-type="trapezium" points="795,488 806,488 800,496 800,496 795,488" fill="url(#lgradient35_0)" stroke="#808080" stroke-width="1.00"/>
<polygon shape-type="trapezium" points="795,506 806,506 800,496 800,496 795,506" fill="url(#lgradient35_1)" stroke="#808080" stroke-width="1.00"/>
</g>
<g shape-type="group">
<polygon shape-type="trapezium" points="846,488 857,488 851,496 851,496 846,488" fill="url(#lgradient36_0)" stroke="#808080" stroke-width="1.00"/>
<polygon shape-type="trapezium" points="846,506 857,506 851,496 851,496 846,506" fill="url(#lgradient36_1)" stroke="#808080" stroke-width="1.00"/>
</g>
<g shape-type="group">
<polygon shape-type="trapezium" points="874,488 885,488 879,496 879,496 874,488" fill="url(#lgradient37_0)" stroke="#808080" stroke-width="1.00"/>
<polygon shape-type="trapezium" points="874,507 885,507 879,496 879,496 874,507" fill="url(#lgradient37_1)" stroke="#808080" stroke-width="1.00"/>
</g>
<g shape-type="group">
<polygon shape-type="trapezium" points="911,570 922,570 916,578 916,578 911,570" fill="url(#lgradient38_0)" stroke="#808080" stroke-width="1.00"/>
<polygon shape-type="trapezium" points="911,590 922,590 916,578 916,578 911,590" fill="url(#lgradient38_1)" stroke="#808080" stroke-width="1.00"/>
</g>
<g shape-type="group">
<polygon shape-type="trapezium" points="828,570 839,570 833,578 833,578 828,570" fill="url(#lgradient39_0)" stroke="#808080" stroke-width="1.00"/>
<polygon shape-type="trapezium" points="828,590 839,590 833,578 833,578 828,590" fill="url(#lgradient39_1)" stroke="#808080" stroke-width="1.00"/>
</g>
<g shape-type="group">
<polygon shape-type="trapezium" points="747,568 758,568 752,576 752,576 747,568" fill="url(#lgradient40_0)" stroke="#808080" stroke-width="1.00"/>
<polygon shape-type="trapezium" points="747,588 758,588 752,576 752,576 747,588" fill="url(#lgradient40_1)" stroke="#808080" stroke-width="1.00"/>
</g>
<g shape-type="group">
<polygon shape-type="trapezium" points="357,176 368,176 362,184 362,184 357,176" fill="url(#lgradient41_0)" stroke="#808080" stroke-width="1.00"/>
<polygon shape-type="trapezium" points="357,196 368,196 362,184 362,184 357,196" fill="url(#lgradient41_1)" stroke="#808080" stroke-width="1.00"/>
</g>
<g shape-type="group">
<polygon shape-type="trapezium" points="406,147 417,147 411,155 411,155 406,147" fill="url(#lgradient42_0)" stroke="#808080" stroke-width="1.00"/>
<polygon shape-type="trapezium" points="406,167 417,167 411,155 411,155 406,167" fill="url(#lgradient42_1)" stroke="#808080" stroke-width="1.00"/>
</g>
<polygon shape-type="parallel" points="427,131 411,136 411,123 427,118 427,131" fill="none" stroke="#FFFFFF" stroke-width="3.00"/>
<g shape-type="group">
<rect shape-type="rectangle" x="928" y="208" width="12" height="6" fill="#808080" stroke="#C0C0C0" stroke-width="1.00"/>
<polygon shape-type="trapezium" points="939,205 939,217 947,211 947,211 939,205" fill="#808080" stroke="#C0C0C0" stroke-width="1.00"/>
</g>
<g shape-type="group">
<ellipse shape-type="ellipse" cx="714" cy="537" rx="15" ry="14" fill="none" stroke="#46DE00" stroke-width="3.00"/>
<line shape-type="line" x1="704" y1="538" x2="694" y2="538" fill="#00FFFF" stroke="#46DE00" stroke-width="3.00"/>
<line shape-type="line" x1="728" y1="539" x2="714" y2="525" fill="#00FFFF" stroke="#46DE00" stroke-width="3.00"/>
<line shape-type="limitline" x1="714" y1="525" x2="713" y2="547" fill="#00FFFF" stroke="#46DE00" stroke-width="3.00"/>
<line shape-type="line" x1="714" y1="548" x2="704" y2="538" fill="#00FFFF" stroke="#46DE00" stroke-width="3.00"/>
</g>
<g shape-type="group">
<ellipse shape-type="ellipse" cx="801" cy="538" rx="16" ry="14" fill="none" stroke="#46DE00" stroke-width="3.00"/>
<line shape-type="line" x1="791" y1="539" x2="781" y2="539" fill="#00FFFF" stroke="#46DE00" stroke-width="3.00"/>
<line shape-type="line" x1="815" y1="540" x2="800" y2="526" fill="#00FFFF" stroke="#46DE00" stroke-width="3.00"/>
<line shape-type="limitline" x1="800" y1="526" x2="799" y2="548" fill="#00FFFF" stroke="#46DE00" stroke-width="3.00"/>
<line shape-type="line" x1="800" y1="549" x2="791" y2="539" fill="#00FFFF" stroke="#46DE00" stroke-width="3.00"/>
</g>
<g shape-type="group">
<ellipse shape-type="ellipse" cx="880" cy="538" rx="15" ry="14" fill="none" stroke="#46DE00" stroke-width="3.00"/>
<line shape-type="line" x1="870" y1="539" x2="860" y2="539" fill="#00FFFF" stroke="#46DE00" stroke-width="3.00"/>
<line shape-type="line" x1="894" y1="540" x2="879" y2="526" fill="#00FFFF" stroke="#46DE00" stroke-width="3.00"/>
<line shape-type="limitline" x1="879" y1="526" x2="878" y2="548" fill="#00FFFF" stroke="#46DE00" stroke-width="3.00"/>
<line shape-type="line" x1="879" y1="549" x2="870" y2="539" fill="#00FFFF" stroke="#46DE00" stroke-width="3.00"/>
</g>
<line shape-type="limitline" x1="308" y1="194" x2="117" y2="194" fill="#00FFFF" stroke="#F9FF00" stroke-width="3.00"/>
<line shape-type="limitline" x1="308" y1="193" x2="308" y2="226" fill="#00FFFF" stroke="#F9FF00" stroke-width="3.00"/>
<line shape-type="limitline" x1="275" y1="341" x2="292" y2="341" fill="#00FFFF" stroke="#F9FF00" stroke-width="3.00"/>
<line shape-type="limitline" x1="283" y1="342" x2="283" y2="642" fill="#00FFFF" stroke="#F9FF00" stroke-width="3.00"/>
<line shape-type="limitline" x1="539" y1="642" x2="283" y2="642" fill="#00FFFF" stroke="#F9FF00" stroke-width="3.00"/>
<line shape-type="limitline" x1="363" y1="116" x2="539" y2="116" fill="#00FFFF" stroke="#F9FF00" stroke-width="3.00"/>
<line shape-type="limitline" x1="335" y1="485" x2="116" y2="485" fill="#00FFFF" stroke="#F9FF00" stroke-width="3.00"/>
<line shape-type="limitline" x1="666" y1="467" x2="448" y2="467" fill="#00FFFF" stroke="#F9FF00" stroke-width="3.00"/>
<line shape-type="limitline" x1="667" y1="643" x2="667" y2="466" fill="#00FFFF" stroke="#F9FF00" stroke-width="3.00"/>
<line shape-type="limitline" x1="666" y1="644" x2="878" y2="644" fill="#00FFFF" stroke="#F9FF00" stroke-width="3.00"/>
<line shape-type="limitline" x1="880" y1="554" x2="880" y2="644" fill="#00FFFF" stroke="#F9FF00" stroke-width="3.00"/>
<line shape-type="limitline" x1="800" y1="552" x2="800" y2="602" fill="#00FFFF" stroke="#F9FF00" stroke-width="3.00"/>
<line shape-type="limitline" x1="800" y1="644" x2="800" y2="612" fill="#00FFFF" stroke="#F9FF00" stroke-width="3.00"/>
<line shape-type="limitline" x1="714" y1="641" x2="714" y2="550" fill="#00FFFF" stroke="#F9FF00" stroke-width="3.00"/>
<line shape-type="limitline" x1="965" y1="436" x2="685" y2="436" fill="#00FFFF" stroke="#46DE00" stroke-width="3.00"/>
<line shape-type="limitline" x1="706" y1="538" x2="685" y2="538" fill="#00FFFF" stroke="#46DE00" stroke-width="3.00"/>
<line shape-type="limitline" x1="752" y1="540" x2="729" y2="540" fill="#00FFFF" stroke="#46DE00" stroke-width="3.00"/>
<line shape-type="limitline" x1="966" y1="609" x2="752" y2="609" fill="#00FFFF" stroke="#46DE00" stroke-width="3.00"/>
<line shape-type="limitline" x1="833" y1="538" x2="814" y2="538" fill="#00FFFF" stroke="#46DE00" stroke-width="3.00"/>
<line shape-type="limitline" x1="917" y1="539" x2="895" y2="539" fill="#00FFFF" stroke="#46DE00" stroke-width="3.00"/>
<line shape-type="limitline" x1="871" y1="539" x2="852" y2="539" fill="#00FFFF" stroke="#46DE00" stroke-width="3.00"/>
<line shape-type="limitline" x1="792" y1="539" x2="770" y2="539" fill="#00FFFF" stroke="#46DE00" stroke-width="3.00"/>
<line shape-type="limitline" x1="714" y1="399" x2="879" y2="399" fill="#00FFFF" stroke="#F9FF00" stroke-width="3.00"/>
<line shape-type="limitline" x1="751" y1="211" x2="751" y2="399" fill="#00FFFF" stroke="#F9FF00" stroke-width="3.00"/>
<g shape-type="group">
<ellipse shape-type="ellipse" cx="337" cy="558" rx="13" ry="14" fill="none" stroke="#46DE00" stroke-width="3.00"/>
<line shape-type="limitline" x1="336" y1="544" x2="335" y2="569" fill="#46DE00" stroke="#46DE00" stroke-width="3.00"/>
<polygon shape-type="trapezium" points="341,557 332,557 337,549 337,549 341,557" fill="#46DE00" stroke="#46DE00" stroke-width="1.00"/>
</g>
<g shape-type="group">
<ellipse shape-type="ellipse" cx="447" cy="558" rx="14" ry="14" fill="none" stroke="#46DE00" stroke-width="3.00"/>
<line shape-type="limitline" x1="447" y1="544" x2="446" y2="569" fill="#46DE00" stroke="#46DE00" stroke-width="3.00"/>
<polygon shape-type="trapezium" points="451,557 443,557 447,549 447,549 451,557" fill="#46DE00" stroke="#46DE00" stroke-width="1.00"/>
</g>
<g shape-type="group">
<ellipse shape-type="ellipse" cx="538" cy="558" rx="13" ry="14" fill="none" stroke="#46DE00" stroke-width="3.00"/>
<line shape-type="limitline" x1="539" y1="544" x2="538" y2="569" fill="#46DE00" stroke="#46DE00" stroke-width="3.00"/>
<polygon shape-type="trapezium" points="543,557 534,557 539,549 539,549 543,557" fill="#46DE00" stroke="#46DE00" stroke-width="1.00"/>
</g>
<g shape-type="group">
<ellipse shape-type="ellipse" cx="413" cy="189" rx="14" ry="13" fill="none" stroke="#FF0000" stroke-width="3.00"/>
<line shape-type="limitline" x1="411" y1="200" x2="410" y2="177" fill="#00FFFF" stroke="#FF0000" stroke-width="3.00"/>
<polygon shape-type="trapezium" points="416,189 407,189 412,180 412,180 416,189" fill="#FF0000" stroke="#FF0000" stroke-width="1.00"/>
</g>
<g shape-type="group">
<rect shape-type="rectangle" x="113" y="596" width="5" height="11" fill="#808080" stroke="#C0C0C0" stroke-width="1.00"/>
<polygon shape-type="trapezium" points="110,606 122,606 116,615 116,615 110,606" fill="#808080" stroke="#C0C0C0" stroke-width="1.00"/>
</g>
<g shape-type="group">
<ellipse shape-type="ellipse" cx="117" cy="370" rx="13" ry="14" fill="none" stroke="#FFFFFF" stroke-width="3.00"/>
<line shape-type="limitline" x1="116" y1="382" x2="115" y2="356" fill="#FFFFFF" stroke="#FFFFFF" stroke-width="3.00"/>
<polygon shape-type="trapezium" points="119,371 111,371 115,379 115,379 119,371" fill="#FFFFFF" stroke="#FFFFFF" stroke-width="1.00"/>
</g>
<ellipse shape-type="ellipse" cx="311" cy="289" rx="9" ry="8" fill="none" stroke="#FFFFFF" stroke-width="3.00"/>
<line shape-type="line" x1="302" y1="293" x2="291" y2="229" fill="#00FFFF" stroke="#FFFFFF" stroke-width="3.00"/>
<line shape-type="line" x1="318" y1="293" x2="330" y2="229" fill="#00FFFF" stroke="#FFFFFF" stroke-width="3.00"/>
<ellipse shape-type="ellipse" cx="364" cy="291" rx="9" ry="8" fill="none" stroke="#FFFFFF" stroke-width="3.00"/>
<line shape-type="line" x1="355" y1="294" x2="344" y2="230" fill="#00FFFF" stroke="#FFFFFF" stroke-width="3.00"/>
<line shape-type="line" x1="372" y1="294" x2="384" y2="230" fill="#00FFFF" stroke="#FFFFFF" stroke-width="3.00"/>
<line shape-type="limitline" x1="430" y1="228" x2="264" y2="229" fill="#00FFFF" stroke="#FFFFFF" stroke-width="3.00"/>
<line shape-type="limitline" x1="430" y1="331" x2="430" y2="229" fill="#00FFFF" stroke="#FFFFFF" stroke-width="3.00"/>
<line shape-type="limitline" x1="263" y1="331" x2="428" y2="331" fill="#00FFFF" stroke="#FFFFFF" stroke-width="3.00"/>
<line shape-type="limitline" x1="264" y1="227" x2="264" y2="331" fill="#00FFFF" stroke="#FFFFFF" stroke-width="3.00"/>
<line shape-type="limitline" x1="310" y1="356" x2="310" y2="295" fill="#00FFFF" stroke="#FFFFFF" stroke-width="3.00"/>
<line shape-type="limitline" x1="365" y1="357" x2="309" y2="357" fill="#00FFFF" stroke="#FFFFFF" stroke-width="3.00"/>
<line shape-type="limitline" x1="365" y1="299" x2="364" y2="357" fill="#00FFFF" stroke="#FFFFFF" stroke-width="3.00"/>
<g shape-type="group">
<rect shape-type="rectangle" x="957" y="606" width="12" height="5" fill="#808080" stroke="#C0C0C0" stroke-width="1.00"/>
<polygon shape-type="trapezium" points="968,603 968,615 976,609 976,609 968,603" fill="#808080" stroke="#C0C0C0" stroke-width="1.00"/>
</g>
<g shape-type="group">
<rect shape-type="rectangle" x="967" y="433" width="12" height="6" fill="#808080" stroke="#C0C0C0" stroke-width="1.00"/>
<polygon shape-type="trapezium" points="968,430 968,442 960,436 960,436 968,430" fill="#808080" stroke="#C0C0C0" stroke-width="1.00"/>
</g>
<text font-family="宋体" text-anchor="start" fill="#FFFFFF" shape-type="text" id="" font-size="10.250000" font-weight="bold" x="421" y="212">排烟风机</text>
<text font-family="宋体" text-anchor="start" fill="#FFFFFF" shape-type="text" id="" font-size="10.250000" font-weight="bold" x="375" y="353">主油箱</text>
<text font-family="宋体" text-anchor="start" fill="#FFFFFF" shape-type="text" id="" font-size="10.250000" font-weight="bold" x="57" y="378">主油泵</text>
<text font-family="宋体" text-anchor="start" fill="#FFFFFF" shape-type="text" id="" font-size="10.250000" font-weight="bold" x="85" y="630">至调速系统</text>
<text font-family="宋体" text-anchor="start" fill="#FFFFFF" shape-type="text" id="" font-size="10.250000" font-weight="bold" x="979" y="613">出水</text>
<text font-family="宋体" text-anchor="start" fill="#FFFFFF" shape-type="text" id="" font-size="10.250000" font-weight="bold" x="982" y="440">进水</text>
<text font-family="宋体" text-anchor="start" fill="#FFFFFF" shape-type="text" id="" font-size="10.250000" font-weight="bold" x="951" y="214">至轴承润滑油系统</text>
<text font-family="宋体" text-anchor="start" fill="#FFFFFF" shape-type="text" id="" font-size="10.250000" font-weight="bold" x="351" y="582">高压油泵</text>
<text font-family="宋体" text-anchor="start" fill="#FFFFFF" shape-type="text" id="" font-size="10.250000" font-weight="bold" x="458" y="583">交流油泵</text>
<text font-family="宋体" text-anchor="start" fill="#FFFFFF" shape-type="text" id="" font-size="10.250000" font-weight="bold" x="551" y="584">直流油泵</text>
<rect shape-type="rectangle" x="133" y="302" width="63" height="26" fill="#4A494A" stroke="#C0C0C0" stroke-width="3.00"/>
<rect shape-type="rectangle" x="196" y="302" width="36" height="26" fill="#4A494A" stroke="#C0C0C0" stroke-width="3.00"/>
<text font-family="宋体" text-anchor="start" fill="#00FF42" shape-type="text" id="" font-size="9.500000" font-weight="bold" x="205" y="317">MPa</text>
<rect shape-type="rectangle" x="133" y="403" width="63" height="26" fill="#4A494A" stroke="#C0C0C0" stroke-width="3.00"/>
<rect shape-type="rectangle" x="196" y="403" width="36" height="26" fill="#4A494A" stroke="#C0C0C0" stroke-width="3.00"/>
<rect shape-type="rectangle" x="133" y="539" width="63" height="26" fill="#4A494A" stroke="#C0C0C0" stroke-width="3.00"/>
<rect shape-type="rectangle" x="196" y="539" width="36" height="26" fill="#4A494A" stroke="#C0C0C0" stroke-width="3.00"/>
<rect shape-type="rectangle" x="446" y="306" width="62" height="26" fill="#4A494A" stroke="#C0C0C0" stroke-width="3.00"/>
<rect shape-type="rectangle" x="508" y="306" width="37" height="26" fill="#4A494A" stroke="#C0C0C0" stroke-width="3.00"/>
<text font-family="宋体" text-anchor="start" fill="#00FF42" shape-type="text" id="" font-size="11.000000" font-weight="bold" x="520" y="321">mm</text>
<rect shape-type="rectangle" x="446" y="268" width="62" height="26" fill="#4A494A" stroke="#C0C0C0" stroke-width="3.00"/>
<rect shape-type="rectangle" x="508" y="268" width="37" height="26" fill="#4A494A" stroke="#C0C0C0" stroke-width="3.00"/>
<rect shape-type="rectangle" x="556" y="423" width="63" height="26" fill="#4A494A" stroke="#C0C0C0" stroke-width="3.00"/>
<rect shape-type="rectangle" x="620" y="423" width="36" height="26" fill="#4A494A" stroke="#C0C0C0" stroke-width="3.00"/>
<rect shape-type="rectangle" x="783" y="299" width="63" height="26" fill="#4A494A" stroke="#C0C0C0" stroke-width="3.00"/>
<rect shape-type="rectangle" x="846" y="299" width="36" height="26" fill="#4A494A" stroke="#C0C0C0" stroke-width="3.00"/>
<text font-family="宋体" text-anchor="start" fill="#00FF42" shape-type="text" id="" font-size="10.250000" font-weight="bold" x="857" y="316">℃</text>
<rect shape-type="rectangle" x="783" y="263" width="63" height="26" fill="#4A494A" stroke="#C0C0C0" stroke-width="3.00"/>
<rect shape-type="rectangle" x="846" y="263" width="36" height="26" fill="#4A494A" stroke="#C0C0C0" stroke-width="3.00"/>
<rect shape-type="rectangle" x="638" y="700" width="63" height="26" fill="#4A494A" stroke="#C0C0C0" stroke-width="3.00"/>
<rect shape-type="rectangle" x="701" y="700" width="36" height="26" fill="#4A494A" stroke="#C0C0C0" stroke-width="3.00"/>
<rect shape-type="rectangle" x="638" y="664" width="63" height="26" fill="#4A494A" stroke="#C0C0C0" stroke-width="3.00"/>
<rect shape-type="rectangle" x="701" y="664" width="36" height="26" fill="#4A494A" stroke="#C0C0C0" stroke-width="3.00"/>
<text font-family="宋体" text-anchor="start" fill="#00FF42" shape-type="text" id="" font-size="9.500000" font-weight="bold" x="204" y="418">MPa</text>
<text font-family="宋体" text-anchor="start" fill="#00FF42" shape-type="text" id="" font-size="9.500000" font-weight="bold" x="630" y="439">MPa</text>
<text font-family="宋体" text-anchor="start" fill="#00FF42" shape-type="text" id="" font-size="9.500000" font-weight="bold" x="709" y="680">MPa</text>
<text font-family="宋体" text-anchor="start" fill="#00FF42" shape-type="text" id="" font-size="11.000000" font-weight="bold" x="520" y="282">mm</text>
<text font-family="宋体" text-anchor="start" fill="#00FF42" shape-type="text" id="" font-size="9.500000" font-weight="bold" x="854" y="279">MPa</text>
<text font-family="宋体" text-anchor="start" fill="#00FF42" shape-type="text" id="" font-size="10.250000" font-weight="bold" x="712" y="717">℃</text>
<text font-family="宋体" text-anchor="start" fill="#00FF42" shape-type="text" id="" font-size="9.500000" font-weight="bold" x="205" y="554">MPa</text>
<line shape-type="limitline" x1="129" y1="314" x2="116" y2="314" fill="#00FFFF" stroke="#FFFFFF" stroke-width="3.00" stroke-dasharray="5 10"/>
<line shape-type="limitline" x1="130" y1="419" x2="116" y2="419" fill="#00FFFF" stroke="#FFFFFF" stroke-width="3.00" stroke-dasharray="5 10"/>
<line shape-type="limitline" x1="129" y1="554" x2="117" y2="554" fill="#00FFFF" stroke="#FFFFFF" stroke-width="3.00" stroke-dasharray="5 10"/>
<line shape-type="limitline" x1="582" y1="496" x2="582" y2="451" fill="#00FFFF" stroke="#FFFFFF" stroke-width="3.00" stroke-dasharray="5 10"/>
<line shape-type="limitline" x1="541" y1="498" x2="583" y2="498" fill="#00FFFF" stroke="#FFFFFF" stroke-width="3.00" stroke-dasharray="5 10"/>
<line shape-type="limitline" x1="783" y1="278" x2="748" y2="278" fill="#00FFFF" stroke="#FFFFFF" stroke-width="3.00" stroke-dasharray="5 10"/>
<line shape-type="limitline" x1="782" y1="311" x2="750" y2="311" fill="#00FFFF" stroke="#FFFFFF" stroke-width="3.00" stroke-dasharray="5 10"/>
<rect shape-type="rectangle" x="1" y="756" width="1065" height="44" fill="url(#lgradient140)" stroke="#636563" stroke-width="1.00"/>
<a xlink:href="2#汽轮机本体系统.svg">
<g shape-type="button">
<rect fill="#C0C0C0" stroke-width="0.3" stroke="#FFFFFF" x="6" y="761" width="100" height="32" shape-type="buttonrect"/>
<text font-family="宋体" text-anchor="middle" dominant-baseline="middle" fill="#000000" font-size="12.000000" x="56" y="783" shape-type="buttontext">本体系统</text>
</g>
</a>
<a xlink:href="2#汽机主蒸汽系统.svg">
<g shape-type="button">
<rect fill="#C0C0C0" stroke-width="0.3" stroke="#FFFFFF" x="111" y="761" width="99" height="32" shape-type="buttonrect"/>
<text font-family="宋体" text-anchor="middle" dominant-baseline="middle" fill="#000000" font-size="12.000000" x="161" y="783" shape-type="buttontext">主蒸汽系统</text>
</g>
</a>
<a xlink:href="2#汽机油系统.svg">
<g shape-type="button">
<rect fill="#C0C0C0" stroke-width="0.3" stroke="#FFFFFF" x="220" y="761" width="97" height="32" shape-type="buttonrect"/>
<text font-family="宋体" text-anchor="middle" dominant-baseline="middle" fill="#000000" font-size="12.000000" x="269" y="783" shape-type="buttontext">油系统</text>
</g>
</a>
<a xlink:href="2#汽机凝结水系统.svg">
<g shape-type="button">
<rect fill="#C0C0C0" stroke-width="0.3" stroke="#FFFFFF" x="326" y="761" width="97" height="32" shape-type="buttonrect"/>
<text font-family="宋体" text-anchor="middle" dominant-baseline="middle" fill="#000000" font-size="12.000000" x="375" y="783" shape-type="buttontext">凝结水系统</text>
</g>
</a>
<a xlink:href="2#汽机高压缸抽汽系统.svg">
<g shape-type="button">
<rect fill="#C0C0C0" stroke-width="0.3" stroke="#FFFFFF" x="430" y="761" width="99" height="32" shape-type="buttonrect"/>
<text font-family="宋体" text-anchor="middle" dominant-baseline="middle" fill="#000000" font-size="12.000000" x="480" y="783" shape-type="buttontext">高压缸抽汽系统</text>
</g>
</a>
<a xlink:href="2#汽机高加系统.svg">
<g shape-type="button">
<rect fill="#C0C0C0" stroke-width="0.3" stroke="#FFFFFF" x="538" y="761" width="97" height="32" shape-type="buttonrect"/>
<text font-family="宋体" text-anchor="middle" dominant-baseline="middle" fill="#000000" font-size="12.000000" x="586" y="783" shape-type="buttontext">高加系统</text>
</g>
</a>
<a xlink:href="2#机高压油系统.svg">
<g shape-type="button">
<rect fill="#C0C0C0" stroke-width="0.3" stroke="#FFFFFF" x="645" y="761" width="97" height="32" shape-type="buttonrect"/>
<text font-family="宋体" text-anchor="middle" dominant-baseline="middle" fill="#000000" font-size="12.000000" x="693" y="783" shape-type="buttontext">高压油系统</text>
</g>
</a>
<a xlink:href="2#汽轮机热控图（一）.svg">
<g shape-type="button">
<rect fill="#C0C0C0" stroke-width="0.3" stroke="#FFFFFF" x="751" y="761" width="98" height="32" shape-type="buttonrect"/>
<text font-family="宋体" text-anchor="middle" dominant-baseline="middle" fill="#000000" font-size="12.000000" x="800" y="783" shape-type="buttontext"> 热控图(一)</text>
</g>
</a>
<a xlink:href="2#汽轮机热控图（二）.svg">
<g shape-type="button">
<rect fill="#C0C0C0" stroke-width="0.3" stroke="#FFFFFF" x="855" y="761" width="99" height="32" shape-type="buttonrect"/>
<text font-family="宋体" text-anchor="middle" dominant-baseline="middle" fill="#000000" font-size="12.000000" x="904" y="783" shape-type="buttontext"> 热控图（二）</text>
</g>
</a>
<a xlink:href="2#汽机参数监视一览表.svg">
<g shape-type="button">
<rect fill="#C0C0C0" stroke-width="0.3" stroke="#FFFFFF" x="963" y="761" width="98" height="32" shape-type="buttonrect"/>
<text font-family="宋体" text-anchor="middle" dominant-baseline="middle" fill="#000000" font-size="12.000000" x="1012" y="783" shape-type="buttontext">监视一览表</text>
</g>
</a>
<text font-family="宋体" text-anchor="start" fill="#FFFFFF" shape-type="text" id="" font-size="12.500000" font-weight="bold" x="302" y="258">Ⅰ</text>
<text font-family="宋体" text-anchor="start" fill="#FFFFFF" shape-type="text" id="" font-size="12.500000" font-weight="bold" x="356" y="257">Ⅱ</text>
<text font-family="Arial" text-anchor="start" fill="#00FFFF" shape-type="realdata" id="DLB_QJ_B36LT01" font-size="12.500000" x="450" y="285">XXXX</text>
<text font-family="Arial" text-anchor="start" fill="#00FFFF" shape-type="realdata" id="DLB_QJ_B36LT02" font-size="12.500000" x="450" y="321">XXXX</text>
<text font-family="Arial" text-anchor="start" fill="#00FFFF" shape-type="realdata" id="DLB_QJ_B36PT08" font-size="12.500000" x="137" y="317">XXXX</text>
<text font-family="Arial" text-anchor="start" fill="#00FFFF" shape-type="realdata" id="DLB_QJ_B36PT05" font-size="12.500000" x="136" y="421">XXXX</text>
<text font-family="Arial" text-anchor="start" fill="#00FFFF" shape-type="realdata" id="DLB_QJ_B36PT10" font-size="12.500000" x="137" y="556">XXXX</text>
<text font-family="Arial" text-anchor="start" fill="#00FFFF" shape-type="realdata" id="DLB_QJ_B36PT32" font-size="12.500000" x="787" y="281">XXXX</text>
<text font-family="Arial" text-anchor="start" fill="#00FFFF" shape-type="realdata" id="DLB_QJ_B36TE17" font-size="12.500000" x="787" y="316">XXXX</text>
<text font-family="Arial" text-anchor="start" fill="#00FFFF" shape-type="realdata" id="DLB_QJ_B36TE01" font-size="12.500000" x="643" y="717">XXXX</text>
<text font-family="Arial" text-anchor="start" fill="#00FFFF" shape-type="realdata" id="DLB_QJ_B36PT18" font-size="12.500000" x="643" y="681">XXXX</text>
<text font-family="Arial" text-anchor="start" fill="#00FFFF" shape-type="realdata" id="DLB_QJ_B36PT16" font-size="12.500000" x="559" y="442">XXXX</text>
</svg>
