<?xml version="1.0" encoding="UTF-8"?>
<svg height="100%" width="100%" viewBox="0 0 64000 32000" version="1.1" xmlns="http://www.w3.org/2000/svg" xmlns:xlink="http://www.w3.org/1999/xlink" xmlns:PB="urn:osisoft-com-pb" xmlns:PBI="urn:osisoft-com-interface" xmlns:PBD="urn:osisoft-com-data" style="background-color:#C0C0C0">
  <title>A24</title>
  <defs>
    <PBD:TagUses tag="\\RTDBB\440_LT_9001">
      <PBI:Symbol name="DATAPOINT2" PB:Type="7" />
    </PBD:TagUses>
    <PBD:TagUses tag="\\RTDBB\440_FT_2002">
      <PBI:Symbol name="DATAPOINT85" PB:Type="7" />
    </PBD:TagUses>
    <PBD:TagUses tag="\\RTDBB\440_FT_2003">
      <PBI:Symbol name="DATAPOINT86" PB:Type="7" />
    </PBD:TagUses>
    <PBD:TagUses tag="\\RTDBB\440_PT_9003">
      <PBI:Symbol name="DATAPOINT87" PB:Type="7" />
    </PBD:TagUses>
    <PBD:TagUses tag="\\RTDBB\440_FT_9003">
      <PBI:Symbol name="DATAPOINT88" PB:Type="7" />
    </PBD:TagUses>
    <PBD:TagUses tag="\\RTDBB\440_PT_9005">
      <PBI:Symbol name="DATAPOINT89" PB:Type="7" />
    </PBD:TagUses>
    <PBD:TagUses tag="\\RTDBB\440_TT_9001">
      <PBI:Symbol name="DATAPOINT90" PB:Type="7" />
    </PBD:TagUses>
    <PBD:TagUses tag="\\RTDBB\440_PT_9004">
      <PBI:Symbol name="DATAPOINT91" PB:Type="7" />
    </PBD:TagUses>
    <PBD:TagUses tag="\\RTDBB\440_FT_9004">
      <PBI:Symbol name="DATAPOINT92" PB:Type="7" />
    </PBD:TagUses>
    <PBD:TagUses tag="\\RTDBB\440_PT_9002">
      <PBI:Symbol name="DATAPOINT93" PB:Type="7" />
    </PBD:TagUses>
    <PBD:TagUses tag="\\RTDBB\440_FT_9002">
      <PBI:Symbol name="DATAPOINT94" PB:Type="7" />
    </PBD:TagUses>
  </defs>
  <g name="GasShortHorizontalPipe">
    <path d="M 21377 23510 l 0 7700 -20954 0 0 -7700 20954 0 0 0" stroke-width="0" fill="#666666" />
    <path d="M 20036 23510 l 0 7700 -18272 0 0 -7700 18272 0 0 0" stroke-width="0" fill="#7A7A7A" />
    <path d="M 18359 23510 l 0 7700 -14918 0 0 -7700 14918 0 0 0" stroke-width="0" fill="#969696" />
    <path d="M 17018 23510 l 0 7700 -12236 0 0 -7700 12236 0 0 0" stroke-width="0" fill="#ADADAD" />
    <path d="M 16096 23510 l 0 7700 -10476 0 0 -7700 10476 0 0 0" stroke-width="0" fill="#CCCCCC" />
    <path d="M 15258 23510 l 0 7700 -8716 0 0 -7700 8716 0 0 0" stroke-width="0" fill="#DEDEDE" />
    <path d="M 13917 23510 l 0 7700 -6118 0 0 -7700 6118 0 0 0" stroke-width="0" fill="#FFFFFF" />
    <path d="M 21377 23510 l 0 7700" stroke="#000000" stroke-width="20" fill="none" />
    <path d="M 423 23510 l 0 7700" stroke="#000000" stroke-width="20" fill="none" />
  </g>
  <path d="M 420 23500 l 20940 0" stroke="#000000" stroke-width="20" fill="none" />
  <path d="M 420 31180 l 20920 0" stroke="#000000" stroke-width="20" fill="none" />
  <path id="LINE366" d="M 32020 29880 l 26000 0" stroke="#000000" stroke-width="40" fill="none" />
  <path id="LINE367" d="M 6760 6600 l 18240 0" stroke="#000000" stroke-width="40" fill="none" />
  <path id="LINE368" d="M 5720 16060 l 12600 0" stroke="#000000" stroke-width="40" stroke-dasharray="60,60" fill="none" />
  <path id="LINE369" d="M 18320 16120 l 0 5100" stroke="#000000" stroke-width="40" fill="none" />
  <path id="LINE371" d="M 13120 6600 l 0 11280" stroke="#000000" stroke-width="40" fill="none" />
  <path id="LINE372" d="M 6760 6600 l 0 11920" stroke="#000000" stroke-width="40" fill="none" />
  <path id="LINE373" d="M 3300 19100 l 0 7180" stroke="#000000" stroke-width="40" fill="none" />
  <path id="LINE374" d="M 9280 19100 l 0 7180" stroke="#000000" stroke-width="40" fill="none" />
  <path id="LINE375" d="M 3300 19100 l 1780 0" stroke="#000000" stroke-width="40" fill="none" />
  <path id="LINE376" d="M 9280 19100 l 2020 0" stroke="#000000" stroke-width="40" fill="none" />
  <g id="TEXT71">
    <rect x="19820" y="440" width="18140" height="5320" stroke-width="0" fill="none" id="TEXT71_pbTextBoundingRectEl" />
    <text fill="#000000" font-family="Helvetica" font-size="800" font-weight="bold" text-anchor="middle" x="28890" y="3500" id="TEXT71_pbTextEl">生活污水提升站/公用工程</text>
  </g>
  <path id="POLYGON52" d="M 58060 25300 l 900 0 0 -200 600 280 -600 280 0 -200 -900 0 0 -160" stroke="#000000" stroke-width="40" fill="#FFFFFF" />
  <path d="M 12640 17880 l 0 1280 780 0 0 -1280 -780 0" stroke="#000000" stroke-width="20" fill="#00DE49" />
  <path d="M 12540 19040 l -960 1260 1900 0 -940 -1260" stroke="#000000" stroke-width="40" fill="#00DE49" />
  <path d="M 13440 19262 l -40 177 -40 98 -40 74 -40 61 -40 51 -40 44 -40 40 -40 34 -40 31 -40 27 -40 25 -40 22 -40 19 -40 17 -40 15 -40 12 -40 11 -40 9 -40 7 -40 5 -40 4 -40 1 -40 0 -40 -1 -40 -4 -40 -5 -40 -7 -40 -9 -40 -11 -40 -12 -40 -15 -40 -17 -40 -19 -40 -22 -40 -25 -40 -27 -40 -31 -40 -34 -40 -40 -40 -44 -40 -51 -40 -61 -40 -74 -40 -98 -40 -177 0 -203 40 -177 40 -98 40 -74 40 -61 40 -51 40 -44 40 -40 40 -34 40 -31 40 -27 40 -25 40 -22 40 -19 40 -17 40 -15 40 -12 40 -11 40 -9 40 -7 40 -5 40 -4 40 -1 40 0 40 1 40 4 40 5 40 7 40 9 40 11 40 12 40 15 40 17 40 19 40 22 40 25 40 27 40 31 40 34 40 40 40 44 40 51 40 61 40 74 40 98 40 177 0 203" stroke="#000000" stroke-width="20" fill="#00DE49" />
  <path d="M 12465 19620 l -78 -20 -49 -20 -37 -20 -31 -20 -26 -20 -23 -20 -20 -20 -18 -20 -15 -20 -15 -20 -12 -20 -12 -20 -10 -20 -9 -20 -8 -20 -6 -20 -6 -20 -5 -20 -4 -20 -3 -20 -2 -20 -2 -20 0 -20 0 0 0 -20 2 -20 2 -20 3 -20 4 -20 5 -20 6 -20 6 -20 8 -20 9 -20 10 -20 12 -20 12 -20 15 -20 15 -20 18 -20 20 -20 23 -20 26 -20 31 -20 37 -20 49 -20 78 -20 150 0 78 20 49 20 37 20 31 20 26 20 23 20 20 20 18 20 15 20 15 20 12 20 12 20 10 20 9 20 8 20 6 20 6 20 5 20 4 20 3 20 2 20 2 20 0 20 0 0 0 20 -2 20 -2 20 -3 20 -4 20 -5 20 -6 20 -6 20 -8 20 -9 20 -10 20 -12 20 -12 20 -15 20 -15 20 -18 20 -20 20 -23 20 -26 20 -31 20 -37 20 -49 20 -78 20 -150 0" stroke="#000000" stroke-width="40" fill="none" />
  <path d="M 6380 17860 l 0 1280 780 0 0 -1280 -780 0" stroke="#000000" stroke-width="20" fill="#00DE49" />
  <path d="M 6280 19020 l -960 1260 1900 0 -940 -1260" stroke="#000000" stroke-width="40" fill="#00DE49" />
  <path d="M 7180 19242 l -40 177 -40 98 -40 74 -40 61 -40 51 -40 44 -40 40 -40 34 -40 31 -40 27 -40 25 -40 22 -40 19 -40 17 -40 15 -40 12 -40 11 -40 9 -40 7 -40 5 -40 4 -40 1 -40 0 -40 -1 -40 -4 -40 -5 -40 -7 -40 -9 -40 -11 -40 -12 -40 -15 -40 -17 -40 -19 -40 -22 -40 -25 -40 -27 -40 -31 -40 -34 -40 -40 -40 -44 -40 -51 -40 -61 -40 -74 -40 -98 -40 -177 0 -203 40 -177 40 -98 40 -74 40 -61 40 -51 40 -44 40 -40 40 -34 40 -31 40 -27 40 -25 40 -22 40 -19 40 -17 40 -15 40 -12 40 -11 40 -9 40 -7 40 -5 40 -4 40 -1 40 0 40 1 40 4 40 5 40 7 40 9 40 11 40 12 40 15 40 17 40 19 40 22 40 25 40 27 40 31 40 34 40 40 40 44 40 51 40 61 40 74 40 98 40 177 0 203" stroke="#000000" stroke-width="20" fill="#00DE49" />
  <path d="M 6205 19600 l -78 -20 -49 -20 -37 -20 -31 -20 -26 -20 -23 -20 -20 -20 -18 -20 -15 -20 -15 -20 -12 -20 -12 -20 -10 -20 -9 -20 -8 -20 -6 -20 -6 -20 -5 -20 -4 -20 -3 -20 -2 -20 -2 -20 0 -20 0 0 0 -20 2 -20 2 -20 3 -20 4 -20 5 -20 6 -20 6 -20 8 -20 9 -20 10 -20 12 -20 12 -20 15 -20 15 -20 18 -20 20 -20 23 -20 26 -20 31 -20 37 -20 49 -20 78 -20 150 0 78 20 49 20 37 20 31 20 26 20 23 20 20 20 18 20 15 20 15 20 12 20 12 20 10 20 9 20 8 20 6 20 6 20 5 20 4 20 3 20 2 20 2 20 0 20 0 0 0 20 -2 20 -2 20 -3 20 -4 20 -5 20 -6 20 -6 20 -8 20 -9 20 -10 20 -12 20 -12 20 -15 20 -15 20 -18 20 -20 20 -23 20 -26 20 -31 20 -37 20 -49 20 -78 20 -150 0" stroke="#000000" stroke-width="40" fill="none" />
  <path id="LINE59" d="M 32020 25380 l 26000 0" stroke="#000000" stroke-width="40" fill="none" />
  <path id="LINE60" d="M 32020 20880 l 26000 0" stroke="#000000" stroke-width="40" fill="none" />
  <path id="LINE61" d="M 32020 11860 l 26000 0" stroke="#FFFFFF" stroke-width="40" fill="none" />
  <path id="LINE62" d="M 32020 7340 l 26000 0" stroke="#FFFFFF" stroke-width="40" fill="none" />
  <path id="LINE63" d="M 32020 16360 l 26000 0" stroke="#000000" stroke-width="40" fill="none" />
  <path id="POLYGON63" d="M 24900 6480 l 900 0 0 -200 600 280 -600 280 0 -200 -900 0 0 -160" stroke="#000000" stroke-width="40" fill="#FFFFFF" />
  <g id="TEXT72">
    <rect x="7160" y="27340" width="7700" height="1920" stroke-width="0" fill="none" id="TEXT72_pbTextBoundingRectEl" />
    <text fill="#000000" font-family="Helvetica" font-size="560" text-anchor="middle" x="11010" y="28580" id="TEXT72_pbTextEl">生活污水提升池</text>
  </g>
  <path id="LINE66" d="M 5720 16060 l 0 2060" stroke="#000000" stroke-width="40" stroke-dasharray="60,60" fill="none" />
  <path id="LINE67" d="M 12120 16060 l 0 2060" stroke="#000000" stroke-width="40" stroke-dasharray="60,60" fill="none" />
  <path id="POLYGON67" d="M 5040 18880 l 0 420 340 -200 -340 -220" stroke="#000000" stroke-width="40" fill="#000000" />
  <path id="POLYGON68" d="M 11300 18880 l 0 420 340 -200 -340 -220" stroke="#000000" stroke-width="40" fill="#000000" />
  <g id="BUTTON1">
    <rect x="3040" y="16660" width="2000" height="1160" stroke-width="40" stroke="#000000" fill="#C0C0C0" id="BUTTON1_pbButtonRectEl" />
    <path d="M 3040 17820 v -1160 h 2000" stroke-width="40" stroke="#EFEFEF" fill="none" id="BUTTON1_pbButtone3dEl" />
    <path d="M 3040 17820 h 2000 v -1160" stroke-width="40" stroke="#393939" fill="none" id="BUTTON1_pbButtone3dE2" />
    <text fill="#000000" font-family="Helvetica" font-size="560" text-anchor="middle" x="4040" y="17520" id="BUTTON1_pbTextEl">解锁</text>
  </g>
  <g id="BUTTON2">
    <rect x="14100" y="16660" width="2000" height="1160" stroke-width="40" stroke="#000000" fill="#C0C0C0" id="BUTTON2_pbButtonRectEl" />
    <path d="M 14100 17820 v -1160 h 2000" stroke-width="40" stroke="#EFEFEF" fill="none" id="BUTTON2_pbButtone3dEl" />
    <path d="M 14100 17820 h 2000 v -1160" stroke-width="40" stroke="#393939" fill="none" id="BUTTON2_pbButtone3dE2" />
    <text fill="#000000" font-family="Helvetica" font-size="560" text-anchor="middle" x="15100" y="17520" id="BUTTON2_pbTextEl">解锁</text>
  </g>
  <g id="BUTTON3">
    <rect x="8320" y="16660" width="3100" height="1160" stroke-width="40" stroke="#000000" fill="#C0C0C0" id="BUTTON3_pbButtonRectEl" />
    <path d="M 8320 17820 v -1160 h 3100" stroke-width="40" stroke="#EFEFEF" fill="none" id="BUTTON3_pbButtone3dEl" />
    <path d="M 8320 17820 h 3100 v -1160" stroke-width="40" stroke="#393939" fill="none" id="BUTTON3_pbButtone3dE2" />
    <text fill="#000000" font-family="Helvetica" font-size="560" text-anchor="middle" x="9870" y="17520" id="BUTTON3_pbTextEl">A主B备</text>
  </g>
  <g id="TEXT73">
    <rect x="4360" y="20460" width="4020" height="1160" stroke-width="0" fill="none" id="TEXT73_pbTextBoundingRectEl" />
    <text fill="#000000" font-family="Helvetica" font-size="560" text-anchor="middle" x="6370" y="21320" id="TEXT73_pbTextEl">454-P-001A</text>
  </g>
  <g id="TEXT74">
    <rect x="10760" y="20420" width="4020" height="1160" stroke-width="0" fill="none" id="TEXT74_pbTextBoundingRectEl" />
    <text fill="#000000" font-family="Helvetica" font-size="560" text-anchor="middle" x="12770" y="21280" id="TEXT74_pbTextEl">454-P-001B</text>
  </g>
  <g id="TEXT75">
    <rect x="15720" y="20820" width="4020" height="1160" stroke-width="0" fill="none" id="TEXT75_pbTextBoundingRectEl" />
    <text fill="#000000" font-family="Helvetica" font-size="560" text-anchor="middle" x="17730" y="21680" id="TEXT75_pbTextEl">440LIS9001</text>
  </g>
  <g id="TEXT76">
    <rect x="18140" y="21660" width="2060" height="620" stroke-width="0" fill="none" id="TEXT76_pbTextBoundingRectEl" />
    <text fill="#000000" font-family="Helvetica" font-size="560" text-anchor="middle" x="19170" y="22250" id="TEXT76_pbTextEl">mm</text>
  </g>
  <path id="LINE68" d="M 18320 22520 l 0 1020" stroke="#000000" stroke-width="40" stroke-dasharray="60,60" fill="none" />
  <rect x="19660" y="20820" width="880" height="840" stroke="#000000" stroke-width="20" fill="#00DE49" id="RECTANGLE15" />
  <g id="TEXT77">
    <rect x="19660" y="20820" width="860" height="840" stroke-width="0" fill="none" id="TEXT77_pbTextBoundingRectEl" />
    <text fill="#000000" font-family="Helvetica" font-size="560" text-anchor="middle" x="20090" y="21520" id="TEXT77_pbTextEl">4</text>
  </g>
  <path d="M 55400 14440 l -620 620 -640 -580 600 -620 660 580 0 0" stroke="#000000" stroke-width="20" fill="#00DE49" />
  <g>
    <rect x="54300" y="14020" width="860" height="840" stroke-width="0" fill="none" />
    <text fill="#000000" font-family="Helvetica" font-size="560" text-anchor="middle" x="54730" y="14720">1</text>
  </g>
  <path id="POLYGON72" d="M 59500 29800 l -920 0 0 -180 -580 260 580 280 0 -180 920 0 0 -180" stroke="#000000" stroke-width="40" fill="#FFFFFF" />
  <path id="POLYGON73" d="M 59500 20780 l -920 0 0 -180 -580 280 580 260 0 -180 920 0 0 -180" stroke="#000000" stroke-width="40" fill="#FFFFFF" />
  <path id="POLYGON74" d="M 58060 7240 l 900 0 0 -240 600 340 -600 340 0 -240 -900 0 0 -200" stroke="#FFFFFF" stroke-width="40" fill="#C0C0C0" />
  <path id="POLYGON75" d="M 58060 11760 l 900 0 0 -220 600 340 -600 320 0 -240 -900 0 0 -200" stroke="#FFFFFF" stroke-width="40" fill="#C0C0C0" />
  <path id="POLYGON76" d="M 59500 16300 l -920 0 0 -200 -580 280 580 280 0 -200 920 0 0 -160" stroke="#000000" stroke-width="40" fill="#FFFFFF" />
  <g id="TEXT80">
    <rect x="42080" y="4880" width="4020" height="1160" stroke-width="0" fill="none" id="TEXT80_pbTextBoundingRectEl" />
    <text fill="#000000" font-family="Helvetica" font-size="560" text-anchor="middle" x="44090" y="5740" id="TEXT80_pbTextEl">440FI2002</text>
  </g>
  <g id="TEXT81">
    <rect x="44580" y="5740" width="2060" height="620" stroke-width="0" fill="none" id="TEXT81_pbTextBoundingRectEl" />
    <text fill="#000000" font-family="Helvetica" font-size="560" text-anchor="middle" x="45610" y="6330" id="TEXT81_pbTextEl">Nm3/h</text>
  </g>
  <g id="TEXT82">
    <rect x="41840" y="9380" width="4020" height="1160" stroke-width="0" fill="none" id="TEXT82_pbTextBoundingRectEl" />
    <text fill="#000000" font-family="Helvetica" font-size="560" text-anchor="middle" x="43850" y="10240" id="TEXT82_pbTextEl">440FI2003</text>
  </g>
  <g id="TEXT83">
    <rect x="44260" y="10160" width="2060" height="620" stroke-width="0" fill="none" id="TEXT83_pbTextBoundingRectEl" />
    <text fill="#000000" font-family="Helvetica" font-size="560" text-anchor="middle" x="45290" y="10750" id="TEXT83_pbTextEl">Nm3/h</text>
  </g>
  <g id="TEXT84">
    <rect x="34020" y="13820" width="4020" height="1160" stroke-width="0" fill="none" id="TEXT84_pbTextBoundingRectEl" />
    <text fill="#000000" font-family="Helvetica" font-size="560" text-anchor="middle" x="36030" y="14680" id="TEXT84_pbTextEl">440PI9003</text>
  </g>
  <g id="TEXT85">
    <rect x="36320" y="14640" width="2060" height="620" stroke-width="0" fill="none" id="TEXT85_pbTextBoundingRectEl" />
    <text fill="#000000" font-family="Helvetica" font-size="560" text-anchor="middle" x="37350" y="15230" id="TEXT85_pbTextEl">MPa</text>
  </g>
  <g id="TEXT86">
    <rect x="50060" y="13860" width="4020" height="1160" stroke-width="0" fill="none" id="TEXT86_pbTextBoundingRectEl" />
    <text fill="#000000" font-family="Helvetica" font-size="560" text-anchor="middle" x="52070" y="14720" id="TEXT86_pbTextEl">440FI9003</text>
  </g>
  <g id="TEXT87">
    <rect x="52620" y="14720" width="2060" height="620" stroke-width="0" fill="none" id="TEXT87_pbTextBoundingRectEl" />
    <text fill="#000000" font-family="Helvetica" font-size="560" text-anchor="middle" x="53650" y="15310" id="TEXT87_pbTextEl">m3/h</text>
  </g>
  <g id="TEXT88">
    <rect x="41700" y="18360" width="4020" height="1160" stroke-width="0" fill="none" id="TEXT88_pbTextBoundingRectEl" />
    <text fill="#000000" font-family="Helvetica" font-size="560" text-anchor="middle" x="43710" y="19220" id="TEXT88_pbTextEl">440PI9005</text>
  </g>
  <g id="TEXT89">
    <rect x="44180" y="19140" width="2060" height="620" stroke-width="0" fill="none" id="TEXT89_pbTextBoundingRectEl" />
    <text fill="#000000" font-family="Helvetica" font-size="560" text-anchor="middle" x="45210" y="19730" id="TEXT89_pbTextEl">MPa</text>
  </g>
  <g id="TEXT90">
    <rect x="34100" y="22760" width="4020" height="1160" stroke-width="0" fill="none" id="TEXT90_pbTextBoundingRectEl" />
    <text fill="#000000" font-family="Helvetica" font-size="560" text-anchor="middle" x="36110" y="23620" id="TEXT90_pbTextEl">440TI9001</text>
  </g>
  <g id="TEXT91">
    <rect x="36840" y="23860" width="2060" height="720" stroke-width="0" fill="none" id="TEXT91_pbTextBoundingRectEl" />
    <text fill="#000000" font-family="Helvetica" font-size="560" text-anchor="middle" x="37870" y="24500" id="TEXT91_pbTextEl">℃</text>
  </g>
  <g id="TEXT92">
    <rect x="42180" y="22820" width="4020" height="1160" stroke-width="0" fill="none" id="TEXT92_pbTextBoundingRectEl" />
    <text fill="#000000" font-family="Helvetica" font-size="560" text-anchor="middle" x="44190" y="23680" id="TEXT92_pbTextEl">440PI9004</text>
  </g>
  <g id="TEXT93">
    <rect x="44600" y="23680" width="2060" height="620" stroke-width="0" fill="none" id="TEXT93_pbTextBoundingRectEl" />
    <text fill="#000000" font-family="Helvetica" font-size="560" text-anchor="middle" x="45630" y="24270" id="TEXT93_pbTextEl">MPa</text>
  </g>
  <g id="TEXT94">
    <rect x="50140" y="22940" width="4020" height="1160" stroke-width="0" fill="none" id="TEXT94_pbTextBoundingRectEl" />
    <text fill="#000000" font-family="Helvetica" font-size="560" text-anchor="middle" x="52150" y="23800" id="TEXT94_pbTextEl">440FI9004</text>
  </g>
  <g id="TEXT95">
    <rect x="52560" y="23800" width="2060" height="620" stroke-width="0" fill="none" id="TEXT95_pbTextBoundingRectEl" />
    <text fill="#000000" font-family="Helvetica" font-size="560" text-anchor="middle" x="53590" y="24390" id="TEXT95_pbTextEl">m3/h</text>
  </g>
  <g id="TEXT96">
    <rect x="50080" y="27720" width="4020" height="1160" stroke-width="0" fill="none" id="TEXT96_pbTextBoundingRectEl" />
    <text fill="#000000" font-family="Helvetica" font-size="560" text-anchor="middle" x="52090" y="28580" id="TEXT96_pbTextEl">440FI9002</text>
  </g>
  <g id="TEXT97">
    <rect x="52500" y="28540" width="2060" height="620" stroke-width="0" fill="none" id="TEXT97_pbTextBoundingRectEl" />
    <text fill="#000000" font-family="Helvetica" font-size="560" text-anchor="middle" x="53530" y="29130" id="TEXT97_pbTextEl">m3/h</text>
  </g>
  <g id="TEXT98">
    <rect x="34160" y="27100" width="4020" height="1160" stroke-width="0" fill="none" id="TEXT98_pbTextBoundingRectEl" />
    <text fill="#000000" font-family="Helvetica" font-size="560" text-anchor="middle" x="36170" y="27960" id="TEXT98_pbTextEl">440PI9002</text>
  </g>
  <g id="TEXT99">
    <rect x="36720" y="28200" width="2060" height="720" stroke-width="0" fill="none" id="TEXT99_pbTextBoundingRectEl" />
    <text fill="#000000" font-family="Helvetica" font-size="560" text-anchor="middle" x="37750" y="28840" id="TEXT99_pbTextEl">℃</text>
  </g>
  <g id="TEXT100">
    <rect x="54760" y="4980" width="7700" height="1920" stroke-width="0" fill="none" id="TEXT100_pbTextBoundingRectEl" />
    <text fill="#000000" font-family="Helvetica" font-size="560" text-anchor="middle" x="58610" y="6220" id="TEXT100_pbTextEl">低压氮气</text>
  </g>
  <g id="TEXT101">
    <rect x="54820" y="9420" width="7700" height="1920" stroke-width="0" fill="none" id="TEXT101_pbTextBoundingRectEl" />
    <text fill="#000000" font-family="Helvetica" font-size="560" text-anchor="middle" x="58670" y="10660" id="TEXT101_pbTextEl">仪表风</text>
  </g>
  <g id="TEXT102">
    <rect x="55280" y="14120" width="7700" height="1920" stroke-width="0" fill="none" id="TEXT102_pbTextBoundingRectEl" />
    <text fill="#000000" font-family="Helvetica" font-size="560" text-anchor="middle" x="59130" y="15360" id="TEXT102_pbTextEl">生产水</text>
  </g>
  <g id="TEXT103">
    <rect x="55280" y="18460" width="7700" height="1920" stroke-width="0" fill="none" id="TEXT103_pbTextBoundingRectEl" />
    <text fill="#000000" font-family="Helvetica" font-size="560" text-anchor="middle" x="59130" y="19700" id="TEXT103_pbTextEl">循环水给水</text>
  </g>
  <g id="TEXT104">
    <rect x="55140" y="23100" width="7700" height="1920" stroke-width="0" fill="none" id="TEXT104_pbTextBoundingRectEl" />
    <text fill="#000000" font-family="Helvetica" font-size="560" text-anchor="middle" x="58990" y="24340" id="TEXT104_pbTextEl">循环水回水</text>
  </g>
  <g id="TEXT105">
    <rect x="55400" y="27600" width="7700" height="1920" stroke-width="0" fill="none" id="TEXT105_pbTextBoundingRectEl" />
    <text fill="#000000" font-family="Helvetica" font-size="560" text-anchor="middle" x="59250" y="28840" id="TEXT105_pbTextEl">生活水</text>
  </g>
  <path id="POLYGON77" d="M 44120 6460 l 0 880" stroke="#000000" stroke-width="20" fill="none" />
  <path id="LINE77" d="M 44120 10960 l 0 900" stroke="#000000" stroke-width="20" fill="none" />
  <path id="LINE78" d="M 35760 15480 l 0 880" stroke="#000000" stroke-width="20" fill="none" />
  <path id="LINE79" d="M 52480 15480 l 0 880" stroke="#000000" stroke-width="20" fill="none" />
  <path id="LINE80" d="M 44120 19980 l 0 900" stroke="#000000" stroke-width="20" fill="none" />
  <path id="LINE81" d="M 35760 29000 l 0 880" stroke="#000000" stroke-width="20" fill="none" />
  <path id="LINE82" d="M 52480 29000 l 0 880" stroke="#000000" stroke-width="20" fill="none" />
  <path id="LINE83" d="M 52480 24500 l 0 880" stroke="#000000" stroke-width="20" fill="none" />
  <path id="LINE84" d="M 35760 24500 l 0 880" stroke="#000000" stroke-width="20" fill="none" />
  <path id="LINE85" d="M 44120 24500 l 0 880" stroke="#000000" stroke-width="20" fill="none" />
  <g id="DATAPOINT2" PB:IsMultiState="False" PBD:PtTagName="\\RTDBB\440_LT_9001" PB:Type="7" PB:NumberFormat="0.00">
    <rect x="17080" y="21860" width="1180" height="480" stroke-width="0" fill="none" id="DATAPOINT2_pbTextBoundingRectEl" />
    <text fill="#000000" font-family="Helvetica" font-size="560" text-anchor="middle" x="17670" y="22380" id="DATAPOINT2_pbTextEl" PBD:Property="VAL">#.##</text>
  </g>
  <g id="DATAPOINT85" PB:IsMultiState="False" PBD:PtTagName="\\RTDBB\440_FT_2002" PB:Type="7" PB:NumberFormat="0.00">
    <rect x="43060" y="5960" width="1400" height="380" stroke-width="0" fill="none" id="DATAPOINT85_pbTextBoundingRectEl" />
    <text fill="#000000" font-family="Helvetica" font-size="560" text-anchor="middle" x="43760" y="6430" id="DATAPOINT85_pbTextEl" PBD:Property="VAL">#.##</text>
  </g>
  <g id="DATAPOINT86" PB:IsMultiState="False" PBD:PtTagName="\\RTDBB\440_FT_2003" PB:Type="7" PB:NumberFormat="0.00">
    <rect x="42640" y="10420" width="1400" height="380" stroke-width="0" fill="none" id="DATAPOINT86_pbTextBoundingRectEl" />
    <text fill="#000000" font-family="Helvetica" font-size="560" text-anchor="middle" x="43340" y="10890" id="DATAPOINT86_pbTextEl" PBD:Property="VAL">#.##</text>
  </g>
  <g id="DATAPOINT87" PB:IsMultiState="False" PBD:PtTagName="\\RTDBB\440_PT_9003" PB:Type="7" PB:NumberFormat="0.00">
    <rect x="35140" y="14840" width="1400" height="380" stroke-width="0" fill="none" id="DATAPOINT87_pbTextBoundingRectEl" />
    <text fill="#000000" font-family="Helvetica" font-size="560" text-anchor="middle" x="35840" y="15310" id="DATAPOINT87_pbTextEl" PBD:Property="VAL">#.##</text>
  </g>
  <g id="DATAPOINT88" PB:IsMultiState="False" PBD:PtTagName="\\RTDBB\440_FT_9003" PB:Type="7" PB:NumberFormat="0.00">
    <rect x="51160" y="15000" width="1400" height="380" stroke-width="0" fill="none" id="DATAPOINT88_pbTextBoundingRectEl" />
    <text fill="#000000" font-family="Helvetica" font-size="560" text-anchor="middle" x="51860" y="15470" id="DATAPOINT88_pbTextEl" PBD:Property="VAL">#.##</text>
  </g>
  <g id="DATAPOINT89" PB:IsMultiState="False" PBD:PtTagName="\\RTDBB\440_PT_9005" PB:Type="7" PB:NumberFormat="0.00">
    <rect x="42880" y="19360" width="1400" height="380" stroke-width="0" fill="none" id="DATAPOINT89_pbTextBoundingRectEl" />
    <text fill="#000000" font-family="Helvetica" font-size="560" text-anchor="middle" x="43580" y="19830" id="DATAPOINT89_pbTextEl" PBD:Property="VAL">#.##</text>
  </g>
  <g id="DATAPOINT90" PB:IsMultiState="False" PBD:PtTagName="\\RTDBB\440_TT_9001" PB:Type="7" PB:NumberFormat="0.00">
    <rect x="35380" y="23860" width="1400" height="380" stroke-width="0" fill="none" id="DATAPOINT90_pbTextBoundingRectEl" />
    <text fill="#000000" font-family="Helvetica" font-size="560" text-anchor="middle" x="36080" y="24330" id="DATAPOINT90_pbTextEl" PBD:Property="VAL">#.##</text>
  </g>
  <g id="DATAPOINT91" PB:IsMultiState="False" PBD:PtTagName="\\RTDBB\440_PT_9004" PB:Type="7" PB:NumberFormat="0.00">
    <rect x="43380" y="23980" width="1400" height="380" stroke-width="0" fill="none" id="DATAPOINT91_pbTextBoundingRectEl" />
    <text fill="#000000" font-family="Helvetica" font-size="560" text-anchor="middle" x="44080" y="24450" id="DATAPOINT91_pbTextEl" PBD:Property="VAL">#.##</text>
  </g>
  <g id="DATAPOINT92" PB:IsMultiState="False" PBD:PtTagName="\\RTDBB\440_FT_9004" PB:Type="7" PB:NumberFormat="0.00">
    <rect x="51160" y="24020" width="1400" height="380" stroke-width="0" fill="none" id="DATAPOINT92_pbTextBoundingRectEl" />
    <text fill="#000000" font-family="Helvetica" font-size="560" text-anchor="middle" x="51860" y="24490" id="DATAPOINT92_pbTextEl" PBD:Property="VAL">#.##</text>
  </g>
  <g id="DATAPOINT93" PB:IsMultiState="False" PBD:PtTagName="\\RTDBB\440_PT_9002" PB:Type="7" PB:NumberFormat="0.00">
    <rect x="35620" y="28320" width="1400" height="380" stroke-width="0" fill="none" id="DATAPOINT93_pbTextBoundingRectEl" />
    <text fill="#000000" font-family="Helvetica" font-size="560" text-anchor="middle" x="36320" y="28790" id="DATAPOINT93_pbTextEl" PBD:Property="VAL">#.##</text>
  </g>
  <g id="DATAPOINT94" PB:IsMultiState="False" PBD:PtTagName="\\RTDBB\440_FT_9002" PB:Type="7" PB:NumberFormat="0.00">
    <rect x="51180" y="28640" width="1400" height="380" stroke-width="0" fill="none" id="DATAPOINT94_pbTextBoundingRectEl" />
    <text fill="#000000" font-family="Helvetica" font-size="560" text-anchor="middle" x="51880" y="29110" id="DATAPOINT94_pbTextEl" PBD:Property="VAL">#.##</text>
  </g>
</svg>