<svg xmlns="http://www.w3.org/2000/svg" xmlns:xlink="http://www.w3.org/1999/xlink" version="1.1" style="background-color:#7DB6C1" width="1062" height="669" viewbox="0 0 1062 669"><defs>
<linearGradient x1="0.000000%" y1="50.000000%" x2="100.000000%" y2="50.000000%" id="lgradient22_0">
<stop offset="0" stop-color="#2C2C2C" stop-opacity="1"/>
<stop offset="0.5" stop-color="#FFFFFF" stop-opacity="1"/>
<stop offset="1" stop-color="#2C2C2C" stop-opacity="1"/>
</linearGradient>
<linearGradient x1="0.000000%" y1="50.000000%" x2="100.000000%" y2="50.000000%" id="lgradient22_1">
<stop offset="0" stop-color="#2C2C2C" stop-opacity="1"/>
<stop offset="0.5" stop-color="#FFFFFF" stop-opacity="1"/>
<stop offset="1" stop-color="#2C2C2C" stop-opacity="1"/>
</linearGradient>
<linearGradient x1="0.000000%" y1="50.000000%" x2="100.000000%" y2="50.000000%" id="lgradient23_0">
<stop offset="0" stop-color="#2C2C2C" stop-opacity="1"/>
<stop offset="0.5" stop-color="#FFFFFF" stop-opacity="1"/>
<stop offset="1" stop-color="#2C2C2C" stop-opacity="1"/>
</linearGradient>
<linearGradient x1="0.000000%" y1="50.000000%" x2="100.000000%" y2="50.000000%" id="lgradient23_1">
<stop offset="0" stop-color="#2C2C2C" stop-opacity="1"/>
<stop offset="0.5" stop-color="#FFFFFF" stop-opacity="1"/>
<stop offset="1" stop-color="#2C2C2C" stop-opacity="1"/>
</linearGradient>
<linearGradient x1="0.000000%" y1="50.000000%" x2="100.000000%" y2="50.000000%" id="lgradient24_0">
<stop offset="0" stop-color="#2C2C2C" stop-opacity="1"/>
<stop offset="0.5" stop-color="#FFFFFF" stop-opacity="1"/>
<stop offset="1" stop-color="#2C2C2C" stop-opacity="1"/>
</linearGradient>
<linearGradient x1="0.000000%" y1="50.000000%" x2="100.000000%" y2="50.000000%" id="lgradient24_1">
<stop offset="0" stop-color="#2C2C2C" stop-opacity="1"/>
<stop offset="0.5" stop-color="#FFFFFF" stop-opacity="1"/>
<stop offset="1" stop-color="#2C2C2C" stop-opacity="1"/>
</linearGradient>
<radialGradient cx="50.000000%" cy="50.000000%" r="50.000000%" fx="50.000000%" fy="50.000000%" id="rgradient25_1">
<stop offset="0%" stop-color="#FFFFFF" stop-opacity="1"/>
<stop offset="100%" stop-color="#2C2C2C" stop-opacity="1"/>
</radialGradient>
<linearGradient x1="0.000000%" y1="50.000000%" x2="100.000000%" y2="50.000000%" id="lgradient25_2">
<stop offset="0" stop-color="#2C2C2C" stop-opacity="1"/>
<stop offset="0.5" stop-color="#FFFFFF" stop-opacity="1"/>
<stop offset="1" stop-color="#2C2C2C" stop-opacity="1"/>
</linearGradient>
<linearGradient x1="0.000000%" y1="50.000000%" x2="100.000000%" y2="50.000000%" id="lgradient25_3">
<stop offset="0" stop-color="#2C2C2C" stop-opacity="1"/>
<stop offset="0.5" stop-color="#FFFFFF" stop-opacity="1"/>
<stop offset="1" stop-color="#2C2C2C" stop-opacity="1"/>
</linearGradient>
<radialGradient cx="50.000000%" cy="50.000000%" r="50.000000%" fx="50.000000%" fy="50.000000%" id="rgradient26_1">
<stop offset="0%" stop-color="#FFFFFF" stop-opacity="1"/>
<stop offset="100%" stop-color="#2C2C2C" stop-opacity="1"/>
</radialGradient>
<linearGradient x1="0.000000%" y1="50.000000%" x2="100.000000%" y2="50.000000%" id="lgradient26_2">
<stop offset="0" stop-color="#2C2C2C" stop-opacity="1"/>
<stop offset="0.5" stop-color="#FFFFFF" stop-opacity="1"/>
<stop offset="1" stop-color="#2C2C2C" stop-opacity="1"/>
</linearGradient>
<linearGradient x1="0.000000%" y1="50.000000%" x2="100.000000%" y2="50.000000%" id="lgradient26_3">
<stop offset="0" stop-color="#2C2C2C" stop-opacity="1"/>
<stop offset="0.5" stop-color="#FFFFFF" stop-opacity="1"/>
<stop offset="1" stop-color="#2C2C2C" stop-opacity="1"/>
</linearGradient>
<linearGradient x1="0.000000%" y1="50.000000%" x2="100.000000%" y2="50.000000%" id="lgradient27_0">
<stop offset="0" stop-color="#2C2C2C" stop-opacity="1"/>
<stop offset="0.5" stop-color="#FFFFFF" stop-opacity="1"/>
<stop offset="1" stop-color="#2C2C2C" stop-opacity="1"/>
</linearGradient>
<linearGradient x1="0.000000%" y1="50.000000%" x2="100.000000%" y2="50.000000%" id="lgradient27_1">
<stop offset="0" stop-color="#2C2C2C" stop-opacity="1"/>
<stop offset="0.5" stop-color="#FFFFFF" stop-opacity="1"/>
<stop offset="1" stop-color="#2C2C2C" stop-opacity="1"/>
</linearGradient>
<linearGradient x1="0.000000%" y1="50.000000%" x2="100.000000%" y2="50.000000%" id="lgradient28_0">
<stop offset="0" stop-color="#2C2C2C" stop-opacity="1"/>
<stop offset="0.5" stop-color="#FFFFFF" stop-opacity="1"/>
<stop offset="1" stop-color="#2C2C2C" stop-opacity="1"/>
</linearGradient>
<linearGradient x1="0.000000%" y1="50.000000%" x2="100.000000%" y2="50.000000%" id="lgradient28_1">
<stop offset="0" stop-color="#2C2C2C" stop-opacity="1"/>
<stop offset="0.5" stop-color="#FFFFFF" stop-opacity="1"/>
<stop offset="1" stop-color="#2C2C2C" stop-opacity="1"/>
</linearGradient>
<linearGradient x1="0.000000%" y1="50.000000%" x2="100.000000%" y2="50.000000%" id="lgradient29_0">
<stop offset="0" stop-color="#2C2C2C" stop-opacity="1"/>
<stop offset="0.5" stop-color="#FFFFFF" stop-opacity="1"/>
<stop offset="1" stop-color="#2C2C2C" stop-opacity="1"/>
</linearGradient>
<linearGradient x1="0.000000%" y1="50.000000%" x2="100.000000%" y2="50.000000%" id="lgradient29_1">
<stop offset="0" stop-color="#2C2C2C" stop-opacity="1"/>
<stop offset="0.5" stop-color="#FFFFFF" stop-opacity="1"/>
<stop offset="1" stop-color="#2C2C2C" stop-opacity="1"/>
</linearGradient>
<linearGradient x1="50.000000%" y1="0.000000%" x2="50.000000%" y2="100.000000%" id="lgradient30_0">
<stop offset="0" stop-color="#2C2C2C" stop-opacity="1"/>
<stop offset="0.5" stop-color="#FFFFFF" stop-opacity="1"/>
<stop offset="1" stop-color="#2C2C2C" stop-opacity="1"/>
</linearGradient>
<linearGradient x1="50.000000%" y1="0.000000%" x2="50.000000%" y2="100.000000%" id="lgradient30_1">
<stop offset="0" stop-color="#2C2C2C" stop-opacity="1"/>
<stop offset="0.5" stop-color="#FFFFFF" stop-opacity="1"/>
<stop offset="1" stop-color="#2C2C2C" stop-opacity="1"/>
</linearGradient>
<linearGradient x1="50.000000%" y1="0.000000%" x2="50.000000%" y2="100.000000%" id="lgradient31_0">
<stop offset="0" stop-color="#2C2C2C" stop-opacity="1"/>
<stop offset="0.5" stop-color="#FFFFFF" stop-opacity="1"/>
<stop offset="1" stop-color="#2C2C2C" stop-opacity="1"/>
</linearGradient>
<linearGradient x1="50.000000%" y1="0.000000%" x2="50.000000%" y2="100.000000%" id="lgradient31_1">
<stop offset="0" stop-color="#2C2C2C" stop-opacity="1"/>
<stop offset="0.5" stop-color="#FFFFFF" stop-opacity="1"/>
<stop offset="1" stop-color="#2C2C2C" stop-opacity="1"/>
</linearGradient>
<linearGradient x1="50.000000%" y1="0.000000%" x2="50.000000%" y2="100.000000%" id="lgradient32_0">
<stop offset="0" stop-color="#2C2C2C" stop-opacity="1"/>
<stop offset="0.5" stop-color="#FFFFFF" stop-opacity="1"/>
<stop offset="1" stop-color="#2C2C2C" stop-opacity="1"/>
</linearGradient>
<linearGradient x1="50.000000%" y1="0.000000%" x2="50.000000%" y2="100.000000%" id="lgradient32_1">
<stop offset="0" stop-color="#2C2C2C" stop-opacity="1"/>
<stop offset="0.5" stop-color="#FFFFFF" stop-opacity="1"/>
<stop offset="1" stop-color="#2C2C2C" stop-opacity="1"/>
</linearGradient>
<linearGradient x1="50.000000%" y1="0.000000%" x2="50.000000%" y2="100.000000%" id="lgradient33_0">
<stop offset="0" stop-color="#2C2C2C" stop-opacity="1"/>
<stop offset="0.5" stop-color="#FFFFFF" stop-opacity="1"/>
<stop offset="1" stop-color="#2C2C2C" stop-opacity="1"/>
</linearGradient>
<linearGradient x1="50.000000%" y1="0.000000%" x2="50.000000%" y2="100.000000%" id="lgradient33_1">
<stop offset="0" stop-color="#2C2C2C" stop-opacity="1"/>
<stop offset="0.5" stop-color="#FFFFFF" stop-opacity="1"/>
<stop offset="1" stop-color="#2C2C2C" stop-opacity="1"/>
</linearGradient>
<linearGradient x1="50.000000%" y1="0.000000%" x2="50.000000%" y2="100.000000%" id="lgradient34_0">
<stop offset="0" stop-color="#2C2C2C" stop-opacity="1"/>
<stop offset="0.5" stop-color="#FFFFFF" stop-opacity="1"/>
<stop offset="1" stop-color="#2C2C2C" stop-opacity="1"/>
</linearGradient>
<linearGradient x1="50.000000%" y1="0.000000%" x2="50.000000%" y2="100.000000%" id="lgradient34_1">
<stop offset="0" stop-color="#2C2C2C" stop-opacity="1"/>
<stop offset="0.5" stop-color="#FFFFFF" stop-opacity="1"/>
<stop offset="1" stop-color="#2C2C2C" stop-opacity="1"/>
</linearGradient>
<linearGradient x1="50.000000%" y1="0.000000%" x2="50.000000%" y2="100.000000%" id="lgradient35_0">
<stop offset="0" stop-color="#2C2C2C" stop-opacity="1"/>
<stop offset="0.5" stop-color="#FFFFFF" stop-opacity="1"/>
<stop offset="1" stop-color="#2C2C2C" stop-opacity="1"/>
</linearGradient>
<linearGradient x1="50.000000%" y1="0.000000%" x2="50.000000%" y2="100.000000%" id="lgradient35_1">
<stop offset="0" stop-color="#2C2C2C" stop-opacity="1"/>
<stop offset="0.5" stop-color="#FFFFFF" stop-opacity="1"/>
<stop offset="1" stop-color="#2C2C2C" stop-opacity="1"/>
</linearGradient>
<linearGradient x1="50.000000%" y1="0.000000%" x2="50.000000%" y2="100.000000%" id="lgradient37_0">
<stop offset="0" stop-color="#2C2C2C" stop-opacity="1"/>
<stop offset="0.5" stop-color="#FFFFFF" stop-opacity="1"/>
<stop offset="1" stop-color="#2C2C2C" stop-opacity="1"/>
</linearGradient>
<linearGradient x1="50.000000%" y1="0.000000%" x2="50.000000%" y2="100.000000%" id="lgradient37_1">
<stop offset="0" stop-color="#2C2C2C" stop-opacity="1"/>
<stop offset="0.5" stop-color="#FFFFFF" stop-opacity="1"/>
<stop offset="1" stop-color="#2C2C2C" stop-opacity="1"/>
</linearGradient>
<linearGradient x1="50.000000%" y1="0.000000%" x2="50.000000%" y2="100.000000%" id="lgradient38_0">
<stop offset="0" stop-color="#2C2C2C" stop-opacity="1"/>
<stop offset="0.5" stop-color="#FFFFFF" stop-opacity="1"/>
<stop offset="1" stop-color="#2C2C2C" stop-opacity="1"/>
</linearGradient>
<linearGradient x1="50.000000%" y1="0.000000%" x2="50.000000%" y2="100.000000%" id="lgradient38_1">
<stop offset="0" stop-color="#2C2C2C" stop-opacity="1"/>
<stop offset="0.5" stop-color="#FFFFFF" stop-opacity="1"/>
<stop offset="1" stop-color="#2C2C2C" stop-opacity="1"/>
</linearGradient>
<linearGradient x1="50.000000%" y1="0.000000%" x2="50.000000%" y2="100.000000%" id="lgradient40_0">
<stop offset="0" stop-color="#2C2C2C" stop-opacity="1"/>
<stop offset="0.5" stop-color="#FFFFFF" stop-opacity="1"/>
<stop offset="1" stop-color="#2C2C2C" stop-opacity="1"/>
</linearGradient>
<linearGradient x1="50.000000%" y1="0.000000%" x2="50.000000%" y2="100.000000%" id="lgradient40_1">
<stop offset="0" stop-color="#2C2C2C" stop-opacity="1"/>
<stop offset="0.5" stop-color="#FFFFFF" stop-opacity="1"/>
<stop offset="1" stop-color="#2C2C2C" stop-opacity="1"/>
</linearGradient>
<linearGradient x1="50.000000%" y1="0.000000%" x2="50.000000%" y2="100.000000%" id="lgradient41_0">
<stop offset="0" stop-color="#2C2C2C" stop-opacity="1"/>
<stop offset="0.5" stop-color="#FFFFFF" stop-opacity="1"/>
<stop offset="1" stop-color="#2C2C2C" stop-opacity="1"/>
</linearGradient>
<linearGradient x1="50.000000%" y1="0.000000%" x2="50.000000%" y2="100.000000%" id="lgradient41_1">
<stop offset="0" stop-color="#2C2C2C" stop-opacity="1"/>
<stop offset="0.5" stop-color="#FFFFFF" stop-opacity="1"/>
<stop offset="1" stop-color="#2C2C2C" stop-opacity="1"/>
</linearGradient>
</defs>
<line shape-type="limitline" x1="195" y1="15" x2="795" y2="15" fill="#FFFFFF" stroke="#FF0000" stroke-width="5.00"/>
<line shape-type="limitline" x1="199" y1="50" x2="413" y2="50" fill="#FFFFFF" stroke="#0000FF" stroke-width="5.00"/>
<line shape-type="limitline" x1="268" y1="128" x2="482" y2="128" fill="#FFFFFF" stroke="#0000FF" stroke-width="3.00"/>
<line shape-type="limitline" x1="284" y1="157" x2="365" y2="157" fill="#FFFFFF" stroke="#0000FF" stroke-width="3.00"/>
<line shape-type="limitline" x1="268" y1="50" x2="268" y2="128" fill="#FFFFFF" stroke="#0000FF" stroke-width="3.00"/>
<line shape-type="limitline" x1="285" y1="127" x2="285" y2="156" fill="#FFFFFF" stroke="#0000FF" stroke-width="3.00"/>
<line shape-type="limitline" x1="365" y1="127" x2="365" y2="156" fill="#FFFFFF" stroke="#0000FF" stroke-width="3.00"/>
<line shape-type="limitline" x1="260" y1="246" x2="400" y2="246" fill="#FFFFFF" stroke="#0000FF" stroke-width="3.00"/>
<line shape-type="limitline" x1="262" y1="300" x2="402" y2="300" fill="#FFFFFF" stroke="#0000FF" stroke-width="3.00"/>
<rect shape-type="rectangle" x="220" y="227" width="44" height="103" stroke="#0000FF" stroke-width="1.00"/>
<line shape-type="limitline" x1="713" y1="362" x2="328" y2="362" fill="#FFFFFF" stroke="#0000FF" stroke-width="5.00"/>
<line shape-type="limitline" x1="552" y1="170" x2="719" y2="170" fill="#FFFFFF" stroke="#FF0000" stroke-width="3.00"/>
<line shape-type="limitline" x1="602" y1="203" x2="682" y2="203" fill="#FFFFFF" stroke="#FF0000" stroke-width="3.00"/>
<line shape-type="limitline" x1="603" y1="169" x2="603" y2="203" fill="#FFFFFF" stroke="#FF0000" stroke-width="3.00"/>
<line shape-type="limitline" x1="684" y1="169" x2="684" y2="203" fill="#FFFFFF" stroke="#FF0000" stroke-width="3.00"/>
<line shape-type="limitline" x1="720" y1="16" x2="720" y2="169" fill="#FFFFFF" stroke="#FF0000" stroke-width="3.00"/>
<line shape-type="limitline" x1="772" y1="472" x2="155" y2="472" fill="#FFFFFF" stroke="#0000FF" stroke-width="5.00"/>
<line shape-type="limitline" x1="447" y1="472" x2="447" y2="366" fill="#FFFFFF" stroke="#0000FF" stroke-width="3.00"/>
<line shape-type="limitline" x1="525" y1="312" x2="525" y2="443" fill="#FFFFFF" stroke="#0000FF" stroke-width="3.00"/>
<line shape-type="limitline" x1="584" y1="440" x2="584" y2="363" fill="#FFFFFF" stroke="#0000FF" stroke-width="3.00"/>
<line shape-type="limitline" x1="644" y1="471" x2="644" y2="362" fill="#FFFFFF" stroke="#0000FF" stroke-width="3.00"/>
<g shape-type="group">
<polygon shape-type="trapezium" points="634,198 634,207 639,203 639,203 634,198" fill="url(#lgradient22_0)" stroke-width="1.00"/>
<polygon shape-type="trapezium" points="647,207 647,198 639,202 639,202 647,207" fill="url(#lgradient22_1)" stroke-width="1.00"/>
</g>
<g shape-type="group">
<polygon shape-type="trapezium" points="620,164 620,175 626,170 626,170 620,164" fill="url(#lgradient23_0)" stroke-width="1.00"/>
<polygon shape-type="trapezium" points="632,175 632,164 626,169 626,169 632,175" fill="url(#lgradient23_1)" stroke-width="1.00"/>
</g>
<g shape-type="group">
<polygon shape-type="trapezium" points="651,164 651,175 657,170 657,170 651,164" fill="url(#lgradient24_0)" stroke-width="1.00"/>
<polygon shape-type="trapezium" points="664,175 664,164 657,169 657,169 664,175" fill="url(#lgradient24_1)" stroke-width="1.00"/>
</g>
<g shape-type="group">
<rect shape-type="rectangle" x="641" y="162" width="1" height="9" fill="#FFFFFF" stroke-width="1.00"/>
<ellipse shape-type="ellipse" cx="641" cy="156" rx="9" ry="8" fill="url(#rgradient25_1)" stroke-width="1.00"/>
<polygon shape-type="trapezium" points="634,165 634,175 642,170 642,170 634,165" fill="url(#lgradient25_2)" stroke-width="1.00"/>
<polygon shape-type="trapezium" points="650,175 650,165 642,170 642,170 650,175" fill="url(#lgradient25_3)" stroke-width="1.00"/>
</g>
<g shape-type="group">
<rect shape-type="rectangle" x="322" y="121" width="2" height="8" fill="#FFFFFF" stroke-width="1.00"/>
<ellipse shape-type="ellipse" cx="324" cy="114" rx="9" ry="8" fill="url(#rgradient26_1)" stroke-width="1.00"/>
<polygon shape-type="trapezium" points="316,123 316,133 324,128 324,128 316,123" fill="url(#lgradient26_2)" stroke-width="1.00"/>
<polygon shape-type="trapezium" points="332,133 332,123 324,128 324,128 332,133" fill="url(#lgradient26_3)" stroke-width="1.00"/>
</g>
<g shape-type="group">
<polygon shape-type="trapezium" points="334,123 334,133 340,128 340,128 334,123" fill="url(#lgradient27_0)" stroke-width="1.00"/>
<polygon shape-type="trapezium" points="347,133 347,123 340,128 340,128 347,133" fill="url(#lgradient27_1)" stroke-width="1.00"/>
</g>
<g shape-type="group">
<polygon shape-type="trapezium" points="301,123 301,133 306,128 306,128 301,123" fill="url(#lgradient28_0)" stroke-width="1.00"/>
<polygon shape-type="trapezium" points="313,133 313,123 306,128 306,128 313,133" fill="url(#lgradient28_1)" stroke-width="1.00"/>
</g>
<g shape-type="group">
<polygon shape-type="trapezium" points="317,152 317,162 322,157 322,157 317,152" fill="url(#lgradient29_0)" stroke-width="1.00"/>
<polygon shape-type="trapezium" points="330,162 330,152 322,157 322,157 330,162" fill="url(#lgradient29_1)" stroke-width="1.00"/>
</g>
<g shape-type="group">
<polygon shape-type="trapezium" points="261,81 271,81 266,87 266,87 261,81" fill="url(#lgradient30_0)" stroke-width="1.00"/>
<polygon shape-type="trapezium" points="271,93 261,93 266,87 266,87 271,93" fill="url(#lgradient30_1)" stroke-width="1.00"/>
</g>
<g shape-type="group">
<polygon shape-type="trapezium" points="521,334 531,334 526,340 526,340 521,334" fill="url(#lgradient31_0)" stroke-width="1.00"/>
<polygon shape-type="trapezium" points="531,348 521,348 526,340 526,340 531,348" fill="url(#lgradient31_1)" stroke-width="1.00"/>
</g>
<g shape-type="group">
<polygon shape-type="trapezium" points="520,372 529,372 524,378 524,378 520,372" fill="url(#lgradient32_0)" stroke-width="1.00"/>
<polygon shape-type="trapezium" points="529,385 520,385 525,378 525,378 529,385" fill="url(#lgradient32_1)" stroke-width="1.00"/>
</g>
<g shape-type="group">
<polygon shape-type="trapezium" points="441,371 452,371 446,376 446,376 441,371" fill="url(#lgradient33_0)" stroke-width="1.00"/>
<polygon shape-type="trapezium" points="452,385 441,385 447,376 447,376 452,385" fill="url(#lgradient33_1)" stroke-width="1.00"/>
</g>
<g shape-type="group">
<polygon shape-type="trapezium" points="580,374 590,374 585,379 585,379 580,374" fill="url(#lgradient34_0)" stroke-width="1.00"/>
<polygon shape-type="trapezium" points="590,387 580,387 585,379 585,379 590,387" fill="url(#lgradient34_1)" stroke-width="1.00"/>
</g>
<g shape-type="group">
<polygon shape-type="trapezium" points="639,374 649,374 644,379 644,379 639,374" fill="url(#lgradient35_0)" stroke-width="1.00"/>
<polygon shape-type="trapezium" points="649,387 639,387 644,379 644,379 649,387" fill="url(#lgradient35_1)" stroke-width="1.00"/>
</g>
<line shape-type="limitline" x1="448" y1="445" x2="523" y2="445" fill="#FFFFFF" stroke="#0000FF" stroke-width="3.00"/>
<g shape-type="group">
<polygon shape-type="trapezium" points="441,450 451,450 446,455 446,455 441,450" fill="url(#lgradient37_0)" stroke-width="1.00"/>
<polygon shape-type="trapezium" points="451,463 441,463 446,455 446,455 451,463" fill="url(#lgradient37_1)" stroke-width="1.00"/>
</g>
<g shape-type="group">
<polygon shape-type="trapezium" points="639,451 649,451 644,456 644,456 639,451" fill="url(#lgradient38_0)" stroke-width="1.00"/>
<polygon shape-type="trapezium" points="649,464 639,464 644,456 644,456 649,464" fill="url(#lgradient38_1)" stroke-width="1.00"/>
</g>
<line shape-type="limitline" x1="646" y1="442" x2="583" y2="442" fill="#FFFFFF" stroke="#0000FF" stroke-width="3.00"/>
<g shape-type="group">
<polygon shape-type="trapezium" points="441,427 451,427 446,432 446,432 441,427" fill="url(#lgradient40_0)" stroke-width="1.00"/>
<polygon shape-type="trapezium" points="451,440 441,440 446,432 446,432 451,440" fill="url(#lgradient40_1)" stroke-width="1.00"/>
</g>
<g shape-type="group">
<polygon shape-type="trapezium" points="639,425 649,425 644,431 644,431 639,425" fill="url(#lgradient41_0)" stroke-width="1.00"/>
<polygon shape-type="trapezium" points="649,437 639,437 644,431 644,431 649,437" fill="url(#lgradient41_1)" stroke-width="1.00"/>
</g>
<g shape-type="group">
<polygon shape-type="trapezium" points="214,32 214,18 204,25 204,25 214,32" fill="#FFFFFF" stroke="#FFFFFF" stroke-width="1.00"/>
<rect shape-type="rectangle" x="214" y="22" width="13" height="6" fill="#FFFFFF" stroke="#FFFFFF" stroke-width="1.00"/>
</g>
<g shape-type="group">
<ellipse shape-type="ellipse" cx="448" cy="405" rx="11" ry="11" stroke="#FFFFFF" stroke-width="1.00"/>
<g shape-type="group">
<polygon shape-type="trapezium" points="452,406 441,406 447,414 447,414 452,406" fill="#FFFFFF" stroke="#FFFFFF" stroke-width="1.00"/>
<rect shape-type="rectangle" x="444" y="398" width="7" height="8" fill="#FFFFFF" stroke="#FFFFFF" stroke-width="1.00"/>
</g>
</g>
<g shape-type="group">
<ellipse shape-type="ellipse" cx="644" cy="406" rx="10" ry="11" stroke="#FFFFFF" stroke-width="1.00"/>
<g shape-type="group">
<polygon shape-type="trapezium" points="649,408 638,408 644,416 644,416 649,408" fill="#FFFFFF" stroke="#FFFFFF" stroke-width="1.00"/>
<rect shape-type="rectangle" x="641" y="399" width="6" height="9" fill="#FFFFFF" stroke="#FFFFFF" stroke-width="1.00"/>
</g>
</g>
<line shape-type="limitline" x1="545" y1="470" x2="545" y2="507" fill="#FFFFFF" stroke="#0000FF" stroke-width="3.00"/>
<line shape-type="limitline" x1="546" y1="508" x2="323" y2="508" fill="#FFFFFF" stroke="#0000FF" stroke-width="3.00"/>
<g shape-type="group">
<polygon shape-type="trapezium" points="363,516 363,502 353,509 353,509 363,516" fill="#FFFFFF" stroke="#FFFFFF" stroke-width="1.00"/>
<rect shape-type="rectangle" x="363" y="505" width="13" height="7" fill="#FFFFFF" stroke="#FFFFFF" stroke-width="1.00"/>
</g>
<text font-family="宋体" text-anchor="start" fill="#FF0000" shape-type="text" id="" font-size="12.500000" x="299" y="497">至高压加热器</text>
<text font-family="宋体" text-anchor="start" fill="#FF0000" shape-type="text" id="" font-size="12.500000" x="611" y="351">低压给水母管</text>
<text font-family="宋体" text-anchor="start" fill="#FF0000" shape-type="text" id="" font-size="12.500000" x="671" y="461">高压给水母管</text>
<text font-family="宋体" text-anchor="start" fill="#FF0000" shape-type="text" id="" font-size="12.500000" x="107" y="37">加热蒸汽管</text>
<text font-family="宋体" text-anchor="start" fill="#FF0000" shape-type="text" id="" font-size="12.500000" x="300" y="41">化学补充水母管</text>
<text font-family="宋体" text-anchor="start" fill="#000000" shape-type="text" id="" font-size="20.750000" font-weight="bold" x="479" y="278">除氧器</text>
<line shape-type="limitline" x1="412" y1="317" x2="412" y2="225" fill="#00FFFF" stroke="#000000" stroke-width="1.00"/>
<g shape-type="group">
<rect shape-type="roundRectangle" rx="20" ry="20" x="389" y="223" width="269" height="97" fill="#00FFFF" stroke="#000000" stroke-width="1.00"/>
<rect shape-type="roundRectangle" rx="20" ry="20" x="389" y="223" width="269" height="97" fill="#FFFFFF" stroke="#C0C0C0" stroke-width="1.00"/>
<rect shape-type="roundRectangle" rx="20" ry="20" x="389" y="230" width="269" height="81" fill="#FFFFFF" stroke="#C0C0C0" stroke-width="1.00"/>
<rect shape-type="roundRectangle" rx="20" ry="20" x="389" y="237" width="269" height="65" fill="#FFFFFF" stroke="#C0C0C0" stroke-width="1.00"/>
<rect shape-type="roundRectangle" rx="20" ry="20" x="389" y="246" width="269" height="48" fill="#FFFFFF" stroke="#C0C0C0" stroke-width="1.00"/>
<rect shape-type="roundRectangle" rx="20" ry="20" x="389" y="256" width="269" height="28" fill="#FFFFFF" stroke="#C0C0C0" stroke-width="1.00"/>
<rect shape-type="roundRectangle" rx="20" ry="20" x="389" y="264" width="269" height="12" fill="#FFFFFF" stroke="#C0C0C0" stroke-width="1.00"/>
</g>
<g shape-type="group">
<rect shape-type="roundRectangle" rx="20" ry="20" x="479" y="87" width="84" height="155" fill="#00FFFF" stroke="#000000" stroke-width="1.00"/>
<rect shape-type="roundRectangle" rx="20" ry="20" x="479" y="87" width="84" height="155" fill="#FFFFFF" stroke="#C0C0C0" stroke-width="1.00"/>
<rect shape-type="roundRectangle" rx="20" ry="20" x="485" y="87" width="72" height="155" fill="#FFFFFF" stroke="#C0C0C0" stroke-width="1.00"/>
<rect shape-type="roundRectangle" rx="20" ry="20" x="493" y="87" width="58" height="155" fill="#FFFFFF" stroke="#C0C0C0" stroke-width="1.00"/>
<rect shape-type="roundRectangle" rx="20" ry="20" x="501" y="87" width="41" height="155" fill="#FFFFFF" stroke="#C0C0C0" stroke-width="1.00"/>
<rect shape-type="roundRectangle" rx="20" ry="20" x="509" y="87" width="25" height="155" fill="#FFFFFF" stroke="#C0C0C0" stroke-width="1.00"/>
<rect shape-type="roundRectangle" rx="20" ry="20" x="516" y="87" width="11" height="155" fill="#FFFFFF" stroke="#C0C0C0" stroke-width="1.00"/>
</g>
<line shape-type="limitline" x1="416" y1="223" x2="416" y2="317" fill="#00FFFF" stroke="#000000" stroke-width="1.00"/>
<line shape-type="limitline" x1="629" y1="224" x2="629" y2="317" fill="#00FFFF" stroke="#000000" stroke-width="1.00"/>
<line shape-type="limitline" x1="478" y1="119" x2="559" y2="119" fill="#00FFFF" stroke="#000000" stroke-width="1.00"/>
<line shape-type="limitline" x1="480" y1="124" x2="561" y2="124" fill="#00FFFF" stroke="#000000" stroke-width="1.00"/>
<text font-family="宋体" text-anchor="start" fill="#FF0000" shape-type="text" id="" font-size="24.500000" font-weight="bold" writing-mode="tb" glyph-orientation-vertical="0" x="69" y="151">5＃炉除氧给水系统</text>
<text font-family="宋体" text-anchor="start" fill="#000000" shape-type="text" id="" font-size="20.750000" font-weight="bold" x="483" y="278">除氧器</text>
<text font-family="宋体" text-anchor="start" fill="#00FF00" shape-type="text" id="" font-size="15.500000" x="137" y="90">PT5184</text>
<text font-family="宋体" text-anchor="start" fill="#00FF00" shape-type="text" id="" font-size="15.500000" x="288" y="264">LT5181</text>
<text font-family="宋体" text-anchor="start" fill="#00FF00" shape-type="text" id="" font-size="15.500000" x="574" y="112">PT5181</text>
<text font-family="宋体" text-anchor="start" fill="#00FF00" shape-type="text" id="" font-size="15.500000" x="674" y="263">TE5181</text>
<text font-family="Arial" text-anchor="start" fill="#FFFFFF" shape-type="realdata" id="RD45_PT5184" font-size="15.500000" x="98" y="112">XXXXXXXXXX</text>
<text font-family="Arial" text-anchor="start" fill="#FFFFFF" shape-type="realdata" id="RD45_PT5181" font-size="15.500000" x="534" y="137">XXXXXXXXXX</text>
<text font-family="Arial" text-anchor="start" fill="#FFFFFF" shape-type="realdata" id="RD45_TE5181" font-size="15.500000" x="633" y="286">XXXXXXXXXX</text>
<text font-family="Arial" text-anchor="start" fill="#FFFFFF" shape-type="realdata" id="RD45_LT5181" font-size="15.500000" x="249" y="288">XXXXXXXXXX</text>
<a xlink:href="1.svg">
<g shape-type="button">
<rect fill="#C0C0C0" stroke-width="0.3" stroke="#FFFFFF" x="14" y="521" width="96" height="34" shape-type="buttonrect"/>
<text font-family="宋体" text-anchor="middle" dominant-baseline="middle" fill="#000000" font-size="13.500000" x="62" y="544" shape-type="buttontext">热力控制</text>
</g>
</a>
<a xlink:href="2.svg">
<g shape-type="button">
<rect fill="#C0C0C0" stroke-width="0.3" stroke="#FFFFFF" x="110" y="521" width="96" height="34" shape-type="buttonrect"/>
<text font-family="宋体" text-anchor="middle" dominant-baseline="middle" fill="#000000" font-size="13.500000" x="158" y="544" shape-type="buttontext">减温减压</text>
</g>
</a>
<a xlink:href="3.svg">
<g shape-type="button">
<rect fill="#C0C0C0" stroke-width="0.3" stroke="#FFFFFF" x="206" y="521" width="96" height="34" shape-type="buttonrect"/>
<text font-family="宋体" text-anchor="middle" dominant-baseline="middle" fill="#000000" font-size="13.500000" x="254" y="544" shape-type="buttontext">汽轮机本体</text>
</g>
</a>
<a xlink:href="4.svg">
<g shape-type="button">
<rect fill="#C0C0C0" stroke-width="0.3" stroke="#FFFFFF" x="302" y="521" width="96" height="34" shape-type="buttonrect"/>
<text font-family="宋体" text-anchor="middle" dominant-baseline="middle" fill="#000000" font-size="13.500000" x="350" y="544" shape-type="buttontext">汽机油系统</text>
</g>
</a>
<a xlink:href="5.svg">
<g shape-type="button">
<rect fill="#C0C0C0" stroke-width="0.3" stroke="#FFFFFF" x="398" y="521" width="136" height="34" shape-type="buttonrect"/>
<text font-family="宋体" text-anchor="middle" dominant-baseline="middle" fill="#000000" font-size="13.500000" x="466" y="544" shape-type="buttontext">4＃除氧给水系统</text>
</g>
</a>
<a xlink:href="6.svg">
<g shape-type="button">
<rect fill="#C0C0C0" stroke-width="0.3" stroke="#FFFFFF" x="535" y="521" width="143" height="34" shape-type="buttonrect"/>
<text font-family="宋体" text-anchor="middle" dominant-baseline="middle" fill="#000000" font-size="13.500000" x="606" y="544" shape-type="buttontext">5#除氧给水系统</text>
</g>
</a>
<a xlink:href="..\dianli.svg">
<g shape-type="button">
<rect fill="#C0C0C0" stroke-width="0.3" stroke="#FFFFFF" x="721" y="521" width="96" height="34" shape-type="buttonrect"/>
<text font-family="宋体" text-anchor="middle" dominant-baseline="middle" fill="#000000" font-size="13.500000" x="769" y="544" shape-type="buttontext">返回</text>
</g>
</a>
</svg>