<?xml version="1.0"?>
<?xml-stylesheet type='text/javascript'?>
<!--Draw SVG: 2019-11-25 09:41:09 47-Monday-->
<svg xmlns="http://www.w3.org/2000/svg" xmlns:xlink="http://www.w3.org/1999/xlink" version="1.1" style="background-color:#000000" width="1066" height="800" viewbox="0 0 1066 800">
<defs>
<linearGradient x1="0.000000%" y1="50.000000%" x2="100.000000%" y2="50.000000%" id="lgradient43">
<stop offset="0" stop-color="#2C2C2C" stop-opacity="1"/>
<stop offset="0.5" stop-color="#FFFFFF" stop-opacity="1"/>
<stop offset="1" stop-color="#2C2C2C" stop-opacity="1"/>
</linearGradient>
<linearGradient x1="50.000000%" y1="0.000000%" x2="50.000000%" y2="100.000000%" id="lgradient44">
<stop offset="0" stop-color="#2C2C2C" stop-opacity="1"/>
<stop offset="0.5" stop-color="#FFFFFF" stop-opacity="1"/>
<stop offset="1" stop-color="#2C2C2C" stop-opacity="1"/>
</linearGradient>
<linearGradient x1="0.000000%" y1="50.000000%" x2="100.000000%" y2="50.000000%" id="lgradient45">
<stop offset="0" stop-color="#2C2C2C" stop-opacity="1"/>
<stop offset="0.5" stop-color="#FFFFFF" stop-opacity="1"/>
<stop offset="1" stop-color="#2C2C2C" stop-opacity="1"/>
</linearGradient>
<linearGradient x1="0.000000%" y1="50.000000%" x2="100.000000%" y2="50.000000%" id="lgradient46">
<stop offset="0" stop-color="#2C2C2C" stop-opacity="1"/>
<stop offset="0.5" stop-color="#FFFFFF" stop-opacity="1"/>
<stop offset="1" stop-color="#2C2C2C" stop-opacity="1"/>
</linearGradient>
<linearGradient x1="0.000000%" y1="50.000000%" x2="100.000000%" y2="50.000000%" id="lgradient110">
<stop offset="0" stop-color="#111111" stop-opacity="1"/>
<stop offset="0.5" stop-color="#636563" stop-opacity="1"/>
<stop offset="1" stop-color="#111111" stop-opacity="1"/>
</linearGradient>
</defs>
<line shape-type="limitline" x1="417" y1="417" x2="290" y2="417" fill="#FF8A42" stroke="#0075BD" stroke-width="3.00"/>
<rect shape-type="rectangle" x="661" y="160" width="44" height="26" fill="#4A494A" stroke="#C0C0C0" stroke-width="3.00"/>
<rect shape-type="rectangle" x="0" y="0" width="1065" height="38" fill="#636563" stroke="#808080" stroke-width="1.00"/>
<rect shape-type="rectangle" x="292" y="1" width="500" height="33" stroke="#000000" stroke-width="1.00"/>
<rect shape-type="rectangle" x="7" y="3" width="67" height="29" stroke="#000000" stroke-width="1.00"/>
<text font-family="宋体" text-anchor="start" fill="#FFFFFF" shape-type="text" id="" font-size="12.500000" font-weight="bold" x="10" y="22">JKM3507</text>
<text font-family="宋体" text-anchor="start" fill="#FFFFFF" shape-type="text" id="" font-size="26.000000" font-weight="bold" x="431" y="28">脱醇塔蒸馏</text>
<line shape-type="limitline" x1="209" y1="251" x2="25" y2="251" fill="#FF8A42" stroke="#0075BD" stroke-width="3.00"/>
<line shape-type="limitline" x1="267" y1="189" x2="267" y2="96" fill="#FF8A42" stroke="#0075BD" stroke-width="3.00"/>
<line shape-type="limitline" x1="563" y1="97" x2="268" y2="97" fill="#FF8A42" stroke="#0075BD" stroke-width="3.00"/>
<line shape-type="limitline" x1="563" y1="143" x2="563" y2="98" fill="#FF8A42" stroke="#0075BD" stroke-width="3.00"/>
<line shape-type="limitline" x1="544" y1="153" x2="477" y2="153" fill="#FF8A42" stroke="#0075BD" stroke-width="3.00"/>
<line shape-type="limitline" x1="476" y1="318" x2="476" y2="153" fill="#FF8A42" stroke="#0075BD" stroke-width="3.00"/>
<line shape-type="limitline" x1="303" y1="276" x2="279" y2="276" fill="#FF8A42" stroke="#0075BD" stroke-width="3.00"/>
<line shape-type="limitline" x1="304" y1="365" x2="304" y2="275" fill="#0075BD" stroke="#0075BD" stroke-width="3.00"/>
<line shape-type="limitline" x1="422" y1="365" x2="304" y2="365" fill="#FF8A42" stroke="#0075BD" stroke-width="3.00"/>
<line shape-type="limitline" x1="422" y1="364" x2="422" y2="328" fill="#FF8A42" stroke="#0075BD" stroke-width="3.00"/>
<line shape-type="limitline" x1="464" y1="328" x2="421" y2="328" fill="#FF8A42" stroke="#0075BD" stroke-width="3.00"/>
<line shape-type="limitline" x1="377" y1="330" x2="305" y2="330" fill="#FF8A42" stroke="#0075BD" stroke-width="3.00"/>
<line shape-type="limitline" x1="534" y1="384" x2="417" y2="384" fill="#FF8A42" stroke="#0075BD" stroke-width="3.00"/>
<line shape-type="limitline" x1="419" y1="554" x2="419" y2="386" fill="#FF8A42" stroke="#0075BD" stroke-width="3.00"/>
<line shape-type="limitline" x1="419" y1="555" x2="206" y2="555" fill="#FF8A42" stroke="#0075BD" stroke-width="3.00"/>
<line shape-type="limitline" x1="311" y1="605" x2="311" y2="555" fill="#FF8A42" stroke="#0075BD" stroke-width="3.00"/>
<line shape-type="limitline" x1="207" y1="603" x2="207" y2="557" fill="#FF8A42" stroke="#0075BD" stroke-width="3.00"/>
<line shape-type="limitline" x1="300" y1="617" x2="249" y2="617" fill="#FF8A42" stroke="#0075BD" stroke-width="3.00"/>
<line shape-type="limitline" x1="248" y1="666" x2="248" y2="617" fill="#FF8A42" stroke="#0075BD" stroke-width="3.00"/>
<line shape-type="limitline" x1="249" y1="666" x2="152" y2="666" fill="#FF8A42" stroke="#0075BD" stroke-width="3.00"/>
<line shape-type="limitline" x1="152" y1="665" x2="152" y2="621" fill="#FF8A42" stroke="#0075BD" stroke-width="3.00"/>
<line shape-type="limitline" x1="190" y1="622" x2="26" y2="622" fill="#FF8A42" stroke="#0075BD" stroke-width="3.00"/>
<line shape-type="limitline" x1="995" y1="232" x2="713" y2="232" fill="#FFFFFF" stroke="#FFFFFF" stroke-width="3.00"/>
<line shape-type="limitline" x1="993" y1="451" x2="718" y2="451" fill="#FFFFFF" stroke="#FFFFFF" stroke-width="3.00"/>
<line shape-type="limitline" x1="717" y1="578" x2="717" y2="452" fill="#FFFFFF" stroke="#FFFFFF" stroke-width="3.00"/>
<line shape-type="limitline" x1="717" y1="580" x2="660" y2="580" fill="#FFFFFF" stroke="#FFFFFF" stroke-width="3.00"/>
<line shape-type="limitline" x1="565" y1="676" x2="565" y2="626" fill="#FF8A42" stroke="#0075BD" stroke-width="3.00"/>
<line shape-type="limitline" x1="860" y1="678" x2="565" y2="678" fill="#FF8A42" stroke="#0075BD" stroke-width="3.00"/>
<line shape-type="limitline" x1="861" y1="677" x2="861" y2="615" fill="#FF8A42" stroke="#0075BD" stroke-width="3.00"/>
<line shape-type="limitline" x1="904" y1="615" x2="862" y2="615" fill="#FF8A42" stroke="#0075BD" stroke-width="3.00"/>
<line shape-type="limitline" x1="916" y1="600" x2="916" y2="550" fill="#FF8A42" stroke="#0075BD" stroke-width="3.00"/>
<line shape-type="limitline" x1="984" y1="551" x2="832" y2="551" fill="#FF8A42" stroke="#0075BD" stroke-width="3.00"/>
<line shape-type="limitline" x1="831" y1="600" x2="831" y2="550" fill="#FF8A42" stroke="#0075BD" stroke-width="3.00"/>
<line shape-type="limitline" x1="752" y1="678" x2="752" y2="616" fill="#FF8A42" stroke="#0075BD" stroke-width="3.00"/>
<line shape-type="limitline" x1="753" y1="617" x2="822" y2="617" fill="#FF8A42" stroke="#0075BD" stroke-width="3.00"/>
<rect shape-type="roundRectangle" rx="20" ry="20" x="536" y="143" width="59" height="442" fill="url(#lgradient43)" stroke="#808080" stroke-width="2.00"/>
<rect shape-type="roundRectangle" rx="20" ry="20" x="464" y="559" width="199" height="69" fill="url(#lgradient44)" stroke="#808080" stroke-width="2.00"/>
<rect shape-type="rectangle" x="207" y="191" width="73" height="89" fill="url(#lgradient45)" stroke="#808080" stroke-width="2.00"/>
<rect shape-type="rectangle" x="200" y="278" width="85" height="15" fill="url(#lgradient46)" stroke="#808080" stroke-width="2.00"/>
<polygon shape-type="trapezium" points="805,237 805,228 793,232 793,232 805,237" fill="#FFFFFF" stroke="#FFFFFF" stroke-width="2.00"/>
<g shape-type="group">
<path shape-type="chord" d="M 857,440 A 13,20 0 0,0 835,440 z" fill="#C0C0C0" stroke="#C0C0C0" stroke-width="2.00"/>
<g shape-type="group">
<polygon shape-type="trapezium" points="834,445 834,457 845,451 845,451 834,445" fill="#C0C0C0" stroke="#C0C0C0" stroke-width="1.00"/>
<polygon shape-type="trapezium" points="856,445 856,457 845,451 845,451 856,445" fill="#C0C0C0" stroke="#C0C0C0" stroke-width="1.00"/>
</g>
<line shape-type="limitline" x1="846" y1="438" x2="845" y2="446" fill="#00FFFF" stroke="#C0C0C0" stroke-width="1.00"/>
<polygon shape-type="trapezium" points="849,441 842,441 846,450 846,450 849,441" fill="#C0C0C0" stroke="#C0C0C0" stroke-width="1.00"/>
</g>
<g shape-type="group">
<path shape-type="chord" d="M 851,222 A 13,21 0 0,0 829,222 z" fill="#C0C0C0" stroke="#C0C0C0" stroke-width="2.00"/>
<g shape-type="group">
<polygon shape-type="trapezium" points="828,227 828,238 839,233 839,233 828,227" fill="#C0C0C0" stroke="#C0C0C0" stroke-width="1.00"/>
<polygon shape-type="trapezium" points="850,227 850,238 839,233 839,233 850,227" fill="#C0C0C0" stroke="#C0C0C0" stroke-width="1.00"/>
</g>
<line shape-type="limitline" x1="840" y1="221" x2="839" y2="230" fill="#00FFFF" stroke="#C0C0C0" stroke-width="1.00"/>
<polygon shape-type="trapezium" points="843,224 835,224 839,234 839,234 843,224" fill="#C0C0C0" stroke="#C0C0C0" stroke-width="1.00"/>
</g>
<g shape-type="group">
<polygon shape-type="trapezium" points="19,262 19,242 3,252 3,252 19,262" fill="#808080" stroke="#808080" stroke-width="2.00"/>
<rect shape-type="rectangle" x="18" y="247" width="12" height="10" fill="#808080" stroke="#808080" stroke-width="2.00"/>
</g>
<g shape-type="group">
<polygon shape-type="trapezium" points="1011,243 1011,224 996,233 996,233 1011,243" fill="#808080" stroke="#808080" stroke-width="2.00"/>
<rect shape-type="rectangle" x="1010" y="230" width="13" height="9" fill="#808080" stroke="#808080" stroke-width="2.00"/>
</g>
<g shape-type="group">
<polygon shape-type="trapezium" points="1002,460 1002,440 988,450 988,450 1002,460" fill="#808080" stroke="#808080" stroke-width="2.00"/>
<rect shape-type="rectangle" x="1001" y="445" width="13" height="10" fill="#808080" stroke="#808080" stroke-width="2.00"/>
</g>
<g shape-type="group">
<polygon shape-type="trapezium" points="15,631 15,612 30,621 30,621 15,631" fill="#808080" stroke="#808080" stroke-width="2.00"/>
<rect shape-type="rectangle" x="3" y="617" width="13" height="9" fill="#808080" stroke="#808080" stroke-width="2.00"/>
</g>
<g shape-type="group">
<polygon shape-type="trapezium" points="995,562 995,542 1010,552 1010,552 995,562" fill="#808080" stroke="#808080" stroke-width="2.00"/>
<rect shape-type="rectangle" x="983" y="547" width="13" height="10" fill="#808080" stroke="#808080" stroke-width="2.00"/>
</g>
<polygon shape-type="trapezium" points="792,456 792,447 780,451 780,451 792,456" fill="#FFFFFF" stroke="#FFFFFF" stroke-width="2.00"/>
<polygon shape-type="trapezium" points="941,555 941,545 954,550 954,550 941,555" fill="#0075BD" stroke="#0075BD" stroke-width="2.00"/>
<polygon shape-type="trapezium" points="673,682 673,672 686,677 686,677 673,682" fill="#0075BD" stroke="#0075BD" stroke-width="2.00"/>
<polygon shape-type="trapezium" points="414,438 425,438 419,425 419,425 414,438" fill="#0075BD" stroke="#0075BD" stroke-width="2.00"/>
<polygon shape-type="trapezium" points="262,172 273,172 267,185 267,185 262,172" fill="#0075BD" stroke="#0075BD" stroke-width="2.00"/>
<line shape-type="limitline" x1="493" y1="627" x2="493" y2="662" fill="#00FFFF" stroke="#FFFFFF" stroke-width="3.00"/>
<rect shape-type="rectangle" x="350" y="181" width="47" height="44" fill="#C0C0C0" stroke="#000000" stroke-width="2.00"/>
<rect shape-type="rectangle" x="357" y="224" width="14" height="14" fill="#808080" stroke="#000000" stroke-width="2.00"/>
<rect shape-type="rectangle" x="370" y="224" width="12" height="14" fill="#808080" stroke="#000000" stroke-width="2.00"/>
<text font-family="宋体" text-anchor="start" fill="#FFFFFF" shape-type="text" id="" font-size="11.750000" font-weight="bold" x="359" y="235">A</text>
<text font-family="宋体" text-anchor="start" fill="#FFFFFF" shape-type="text" id="" font-size="11.750000" font-weight="bold" x="372" y="235">B</text>
<rect shape-type="rectangle" x="207" y="451" width="47" height="44" fill="#C0C0C0" stroke="#000000" stroke-width="2.00"/>
<rect shape-type="rectangle" x="215" y="494" width="13" height="13" fill="#808080" stroke="#000000" stroke-width="2.00"/>
<rect shape-type="rectangle" x="227" y="494" width="13" height="13" fill="#808080" stroke="#000000" stroke-width="2.00"/>
<text font-family="宋体" text-anchor="start" fill="#FFFFFF" shape-type="text" id="" font-size="11.000000" font-weight="bold" x="217" y="505">A</text>
<text font-family="宋体" text-anchor="start" fill="#FFFFFF" shape-type="text" id="" font-size="11.000000" font-weight="bold" x="229" y="505">B</text>
<line shape-type="limitline" x1="267" y1="145" x2="253" y2="145" fill="#00FFFF" stroke="#FFFFFF" stroke-width="3.00" stroke-dasharray="5 10"/>
<line shape-type="limitline" x1="476" y1="161" x2="420" y2="161" fill="#00FFFF" stroke="#FFFFFF" stroke-width="3.00" stroke-dasharray="5 10"/>
<line shape-type="limitline" x1="376" y1="201" x2="376" y2="172" fill="#00FFFF" stroke="#FFFFFF" stroke-width="3.00" stroke-dasharray="5 10"/>
<line shape-type="limitline" x1="228" y1="470" x2="228" y2="439" fill="#00FFFF" stroke="#FFFFFF" stroke-width="3.00" stroke-dasharray="5 10"/>
<line shape-type="limitline" x1="607" y1="173" x2="593" y2="173" fill="#00FFFF" stroke="#FFFFFF" stroke-width="3.00" stroke-dasharray="5 10"/>
<line shape-type="limitline" x1="758" y1="229" x2="758" y2="178" fill="#00FFFF" stroke="#FFFFFF" stroke-width="3.00" stroke-dasharray="5 10"/>
<line shape-type="limitline" x1="792" y1="179" x2="758" y2="179" fill="#00FFFF" stroke="#FFFFFF" stroke-width="3.00" stroke-dasharray="5 10"/>
<line shape-type="limitline" x1="838" y1="211" x2="838" y2="189" fill="#00FFFF" stroke="#FFFFFF" stroke-width="3.00" stroke-dasharray="5 10"/>
<line shape-type="limitline" x1="481" y1="552" x2="481" y2="565" fill="#00FFFF" stroke="#FFFFFF" stroke-width="3.00" stroke-dasharray="5 10"/>
<line shape-type="limitline" x1="607" y1="273" x2="593" y2="273" fill="#00FFFF" stroke="#FFFFFF" stroke-width="3.00" stroke-dasharray="5 10"/>
<line shape-type="limitline" x1="597" y1="396" x2="633" y2="396" fill="#00FFFF" stroke="#FFFFFF" stroke-width="3.00" stroke-dasharray="5 10"/>
<line shape-type="limitline" x1="607" y1="516" x2="593" y2="516" fill="#00FFFF" stroke="#FFFFFF" stroke-width="3.00" stroke-dasharray="5 10"/>
<line shape-type="limitline" x1="766" y1="451" x2="766" y2="406" fill="#00FFFF" stroke="#FFFFFF" stroke-width="3.00" stroke-dasharray="5 10"/>
<line shape-type="limitline" x1="800" y1="406" x2="766" y2="406" fill="#00FFFF" stroke="#FFFFFF" stroke-width="3.00" stroke-dasharray="5 10"/>
<line shape-type="limitline" x1="846" y1="431" x2="846" y2="413" fill="#00FFFF" stroke="#FFFFFF" stroke-width="3.00" stroke-dasharray="5 10"/>
<rect shape-type="rectangle" x="481" y="661" width="26" height="15" fill="#C0C0C0" stroke="#000000" stroke-width="3.00"/>
<text font-family="宋体" text-anchor="start" fill="#00FF42" shape-type="text" id="" font-size="9.500000" font-weight="bold" x="663" y="177">kPa</text>
<text font-family="宋体" text-anchor="start" fill="#FFFFFF" shape-type="text" id="" font-size="9.500000" font-weight="bold" x="31" y="238">去甲酮罐</text>
<text font-family="宋体" text-anchor="start" fill="#FFFFFF" shape-type="text" id="" font-size="9.500000" font-weight="bold" x="10" y="604">脱醇塔进料罐</text>
<text font-family="宋体" text-anchor="start" fill="#FFFFFF" shape-type="text" id="" font-size="9.500000" font-weight="bold" x="921" y="248">低压蒸汽</text>
<text font-family="宋体" text-anchor="start" fill="#FFFFFF" shape-type="text" id="" font-size="9.500000" font-weight="bold" x="932" y="471">来自低压蒸汽</text>
<text font-family="宋体" text-anchor="start" fill="#FFFFFF" shape-type="text" id="" font-size="9.500000" font-weight="bold" x="934" y="574">高沸物冷却贮罐</text>
<text font-family="宋体" text-anchor="start" fill="#FFFFFF" shape-type="text" id="" font-size="9.500000" font-weight="bold" x="179" y="651">P35116A</text>
<text font-family="宋体" text-anchor="start" fill="#FFFFFF" shape-type="text" id="" font-size="9.500000" font-weight="bold" x="285" y="650">P35116B</text>
<text font-family="宋体" text-anchor="start" fill="#FFFFFF" shape-type="text" id="" font-size="9.500000" font-weight="bold" x="806" y="644">P35118A</text>
<text font-family="宋体" text-anchor="start" fill="#FFFFFF" shape-type="text" id="" font-size="9.500000" font-weight="bold" x="889" y="645">P35118B</text>
<text font-family="宋体" text-anchor="start" fill="#000000" shape-type="text" id="" font-size="9.500000" font-weight="bold" x="225" y="217">D35120</text>
<text font-family="宋体" text-anchor="start" fill="#000000" shape-type="text" id="" font-size="9.500000" font-weight="bold" x="224" y="242">脱醇塔</text>
<text font-family="宋体" text-anchor="start" fill="#000000" shape-type="text" id="" font-size="9.500000" font-weight="bold" x="224" y="260">回流罐</text>
<text font-family="宋体" text-anchor="start" fill="#000000" shape-type="text" id="" font-size="9.500000" font-weight="bold" x="543" y="340">C35103</text>
<text font-family="宋体" text-anchor="start" fill="#000000" shape-type="text" id="" font-size="9.500000" font-weight="bold" x="547" y="365">脱醇塔</text>
<text font-family="黑体" text-anchor="start" fill="#000000" shape-type="text" id="" font-size="11.000000" font-weight="bold" x="483" y="672">MSC</text>
<g shape-type="group">
<polygon shape-type="trapezium" points="485,350 459,350 465,336 479,336 485,350" fill="#808080" stroke="#FFFFFF" stroke-width="2.00"/>
<ellipse shape-type="ellipse" cx="474" cy="328" rx="14" ry="14" fill="#C0C0C0" stroke="#FFFFFF" stroke-width="2.00"/>
<g shape-type="group">
<ellipse shape-type="ellipse" cx="473" cy="321" rx="2" ry="6" fill="#808080" stroke="#FFFFFF" stroke-width="1.00"/>
<ellipse shape-type="ellipse" cx="473" cy="333" rx="2" ry="5" fill="#808080" stroke="#FFFFFF" stroke-width="1.00"/>
<ellipse shape-type="ellipse" cx="465" cy="326" rx="6" ry="3" fill="#808080" stroke="#FFFFFF" stroke-width="1.00"/>
<ellipse shape-type="ellipse" cx="480" cy="326" rx="6" ry="3" fill="#808080" stroke="#FFFFFF" stroke-width="1.00"/>
</g>
</g>
<g shape-type="group">
<polygon shape-type="trapezium" points="402,350 375,350 382,336 396,336 402,350" fill="#808080" stroke="#FFFFFF" stroke-width="2.00"/>
<ellipse shape-type="ellipse" cx="390" cy="329" rx="14" ry="14" fill="#C0C0C0" stroke="#FFFFFF" stroke-width="2.00"/>
<g shape-type="group">
<ellipse shape-type="ellipse" cx="389" cy="322" rx="3" ry="6" fill="#808080" stroke="#FFFFFF" stroke-width="1.00"/>
<ellipse shape-type="ellipse" cx="389" cy="334" rx="3" ry="5" fill="#808080" stroke="#FFFFFF" stroke-width="1.00"/>
<ellipse shape-type="ellipse" cx="382" cy="328" rx="6" ry="2" fill="#808080" stroke="#FFFFFF" stroke-width="1.00"/>
<ellipse shape-type="ellipse" cx="397" cy="328" rx="6" ry="2" fill="#808080" stroke="#FFFFFF" stroke-width="1.00"/>
</g>
</g>
<g shape-type="group">
<polygon shape-type="trapezium" points="842,629 816,629 822,615 836,615 842,629" fill="#808080" stroke="#FFFFFF" stroke-width="2.00"/>
<ellipse shape-type="ellipse" cx="830" cy="606" rx="14" ry="14" fill="#C0C0C0" stroke="#FFFFFF" stroke-width="2.00"/>
<g shape-type="group">
<ellipse shape-type="ellipse" cx="828" cy="600" rx="2" ry="6" fill="#808080" stroke="#FFFFFF" stroke-width="1.00"/>
<ellipse shape-type="ellipse" cx="828" cy="611" rx="2" ry="5" fill="#808080" stroke="#FFFFFF" stroke-width="1.00"/>
<ellipse shape-type="ellipse" cx="821" cy="605" rx="5" ry="2" fill="#808080" stroke="#FFFFFF" stroke-width="1.00"/>
<ellipse shape-type="ellipse" cx="836" cy="605" rx="7" ry="2" fill="#808080" stroke="#FFFFFF" stroke-width="1.00"/>
</g>
</g>
<g shape-type="group">
<polygon shape-type="trapezium" points="925,630 899,630 905,616 919,616 925,630" fill="#808080" stroke="#FFFFFF" stroke-width="2.00"/>
<ellipse shape-type="ellipse" cx="913" cy="607" rx="14" ry="14" fill="#C0C0C0" stroke="#FFFFFF" stroke-width="2.00"/>
<g shape-type="group">
<ellipse shape-type="ellipse" cx="912" cy="601" rx="3" ry="6" fill="#808080" stroke="#FFFFFF" stroke-width="1.00"/>
<ellipse shape-type="ellipse" cx="912" cy="612" rx="3" ry="5" fill="#808080" stroke="#FFFFFF" stroke-width="1.00"/>
<ellipse shape-type="ellipse" cx="904" cy="606" rx="5" ry="2" fill="#808080" stroke="#FFFFFF" stroke-width="1.00"/>
<ellipse shape-type="ellipse" cx="919" cy="606" rx="6" ry="2" fill="#808080" stroke="#FFFFFF" stroke-width="1.00"/>
</g>
</g>
<g shape-type="group">
<polygon shape-type="trapezium" points="214,636 188,636 194,622 208,622 214,636" fill="#808080" stroke="#FFFFFF" stroke-width="2.00"/>
<ellipse shape-type="ellipse" cx="202" cy="615" rx="14" ry="14" fill="#C0C0C0" stroke="#FFFFFF" stroke-width="2.00"/>
<g shape-type="group">
<ellipse shape-type="ellipse" cx="201" cy="609" rx="2" ry="5" fill="#808080" stroke="#FFFFFF" stroke-width="1.00"/>
<ellipse shape-type="ellipse" cx="201" cy="621" rx="2" ry="6" fill="#808080" stroke="#FFFFFF" stroke-width="1.00"/>
<ellipse shape-type="ellipse" cx="194" cy="614" rx="5" ry="2" fill="#808080" stroke="#FFFFFF" stroke-width="1.00"/>
<ellipse shape-type="ellipse" cx="208" cy="614" rx="7" ry="2" fill="#808080" stroke="#FFFFFF" stroke-width="1.00"/>
</g>
</g>
<g shape-type="group">
<polygon shape-type="trapezium" points="322,637 295,637 302,623 316,623 322,637" fill="#808080" stroke="#FFFFFF" stroke-width="2.00"/>
<ellipse shape-type="ellipse" cx="310" cy="616" rx="14" ry="14" fill="#C0C0C0" stroke="#FFFFFF" stroke-width="2.00"/>
<g shape-type="group">
<ellipse shape-type="ellipse" cx="309" cy="610" rx="2" ry="5" fill="#808080" stroke="#FFFFFF" stroke-width="1.00"/>
<ellipse shape-type="ellipse" cx="309" cy="622" rx="2" ry="6" fill="#808080" stroke="#FFFFFF" stroke-width="1.00"/>
<ellipse shape-type="ellipse" cx="302" cy="615" rx="5" ry="2" fill="#808080" stroke="#FFFFFF" stroke-width="1.00"/>
<ellipse shape-type="ellipse" cx="316" cy="615" rx="7" ry="2" fill="#808080" stroke="#FFFFFF" stroke-width="1.00"/>
</g>
</g>
<a xlink:href="\橡胶化学品部\6PPD\主装置蒸馏系统\ZZZZL_ML.svg">
<g shape-type="button">
<rect fill="#C0C0C0" stroke-width="0.3" stroke="#FFFFFF" x="960" y="2" width="100" height="32" shape-type="buttonrect"/>
<text font-family="宋体" text-anchor="middle" dominant-baseline="middle" fill="#800000" font-size="13.500000" font-weight="bold" x="1010" y="24" shape-type="buttontext">返回上一级</text>
</g>
</a>
<rect shape-type="rectangle" x="4" y="762" width="1058" height="38" fill="url(#lgradient110)" stroke="#636563" stroke-width="1.00"/>
<a xlink:href="JKM3506.svg">
<g shape-type="button">
<rect fill="#C0C0C0" stroke-width="0.3" stroke="#FFFFFF" x="5" y="766" width="157" height="30" shape-type="buttonrect"/>
<text font-family="宋体" text-anchor="middle" dominant-baseline="middle" fill="#000000" font-size="12.000000" x="84" y="787" shape-type="buttontext">脱水塔蒸馏</text>
</g>
</a>
<a xlink:href="JKM3507.svg">
<g shape-type="button">
<rect fill="#C0C0C0" stroke-width="0.3" stroke="#FFFFFF" x="167" y="766" width="158" height="30" shape-type="buttonrect"/>
<text font-family="宋体" text-anchor="middle" dominant-baseline="middle" fill="#000000" font-size="12.000000" x="246" y="787" shape-type="buttontext">脱醇塔蒸馏</text>
</g>
</a>
<a xlink:href="M3605A.svg">
<g shape-type="button">
<rect fill="#C0C0C0" stroke-width="0.3" stroke="#FFFFFF" x="330" y="766" width="157" height="30" shape-type="buttonrect"/>
<text font-family="宋体" text-anchor="middle" dominant-baseline="middle" fill="#000000" font-size="12.000000" x="409" y="787" shape-type="buttontext">丙酮回收塔</text>
</g>
</a>
<a xlink:href="M3605B.svg">
<g shape-type="button">
<rect fill="#C0C0C0" stroke-width="0.3" stroke="#FFFFFF" x="494" y="766" width="157" height="30" shape-type="buttonrect"/>
<text font-family="宋体" text-anchor="middle" dominant-baseline="middle" fill="#000000" font-size="12.000000" x="572" y="787" shape-type="buttontext">异丙醇回收塔</text>
</g>
</a>
<rect shape-type="rectangle" x="338" y="147" width="54" height="26" fill="#4A494A" stroke="#C0C0C0" stroke-width="3.00"/>
<rect shape-type="rectangle" x="392" y="147" width="37" height="26" fill="#4A494A" stroke="#C0C0C0" stroke-width="3.00"/>
<rect shape-type="rectangle" x="166" y="135" width="54" height="26" fill="#4A494A" stroke="#C0C0C0" stroke-width="3.00"/>
<rect shape-type="rectangle" x="220" y="135" width="37" height="26" fill="#4A494A" stroke="#C0C0C0" stroke-width="3.00"/>
<text font-family="宋体" text-anchor="start" fill="#00FF42" shape-type="text" id="" font-size="9.500000" font-weight="bold" x="233" y="151">℃</text>
<rect shape-type="rectangle" x="607" y="122" width="54" height="26" fill="#4A494A" stroke="#C0C0C0" stroke-width="3.00"/>
<rect shape-type="rectangle" x="661" y="122" width="37" height="26" fill="#4A494A" stroke="#C0C0C0" stroke-width="3.00"/>
<text font-family="宋体" text-anchor="start" fill="#00FF42" shape-type="text" id="" font-size="9.500000" font-weight="bold" x="674" y="138">℃</text>
<text font-family="Arial" text-anchor="start" fill="#00FFFF" shape-type="realdata" id="XHB_6PPD_TE35128" font-size="12.500000" x="612" y="138">XXXX</text>
<text font-family="Arial" text-anchor="start" fill="#00FFFF" shape-type="realdata" id="XHB_6PPD_TE35129" font-size="12.500000" x="170" y="150">XXXX</text>
<rect shape-type="rectangle" x="607" y="160" width="54" height="26" fill="#4A494A" stroke="#C0C0C0" stroke-width="3.00"/>
<text font-family="Arial" text-anchor="start" fill="#00FFFF" shape-type="realdata" id="XHB_6PPD_PT35125" font-size="12.500000" x="611" y="177">XXXX</text>
<rect shape-type="rectangle" x="664" y="262" width="44" height="26" fill="#4A494A" stroke="#C0C0C0" stroke-width="3.00"/>
<text font-family="宋体" text-anchor="start" fill="#00FF42" shape-type="text" id="" font-size="9.500000" font-weight="bold" x="666" y="279">kPa</text>
<rect shape-type="rectangle" x="610" y="262" width="54" height="26" fill="#4A494A" stroke="#C0C0C0" stroke-width="3.00"/>
<rect shape-type="rectangle" x="666" y="384" width="44" height="26" fill="#4A494A" stroke="#C0C0C0" stroke-width="3.00"/>
<text font-family="宋体" text-anchor="start" fill="#00FF42" shape-type="text" id="" font-size="9.500000" font-weight="bold" x="668" y="401">kPa</text>
<rect shape-type="rectangle" x="612" y="384" width="54" height="26" fill="#4A494A" stroke="#C0C0C0" stroke-width="3.00"/>
<rect shape-type="rectangle" x="661" y="501" width="44" height="26" fill="#4A494A" stroke="#C0C0C0" stroke-width="3.00"/>
<text font-family="宋体" text-anchor="start" fill="#00FF42" shape-type="text" id="" font-size="9.500000" font-weight="bold" x="663" y="518">kPa</text>
<rect shape-type="rectangle" x="607" y="501" width="54" height="26" fill="#4A494A" stroke="#C0C0C0" stroke-width="3.00"/>
<text font-family="Arial" text-anchor="start" fill="#00FFFF" shape-type="realdata" id="XHB_6PPD_PT35122" font-size="12.500000" x="610" y="518">XXXX</text>
<text font-family="Arial" text-anchor="start" fill="#00FFFF" shape-type="realdata" id="XHB_6PPD_PT35123" font-size="12.500000" x="617" y="400">XXXX</text>
<text font-family="Arial" text-anchor="start" fill="#00FFFF" shape-type="realdata" id="XHB_6PPD_PT35124" font-size="12.500000" x="614" y="279">XXXX</text>
<rect shape-type="rectangle" x="797" y="393" width="54" height="26" fill="#4A494A" stroke="#C0C0C0" stroke-width="3.00"/>
<rect shape-type="rectangle" x="851" y="393" width="37" height="26" fill="#4A494A" stroke="#C0C0C0" stroke-width="3.00"/>
<text font-family="宋体" text-anchor="start" fill="#00FF42" shape-type="text" id="" font-size="9.500000" font-weight="bold" x="861" y="408">MPa</text>
<rect shape-type="rectangle" x="942" y="176" width="54" height="26" fill="#4A494A" stroke="#C0C0C0" stroke-width="3.00"/>
<rect shape-type="rectangle" x="996" y="176" width="37" height="26" fill="#4A494A" stroke="#C0C0C0" stroke-width="3.00"/>
<text font-family="宋体" text-anchor="start" fill="#00FF42" shape-type="text" id="" font-size="9.500000" font-weight="bold" x="1006" y="191">MPa</text>
<text font-family="Arial" text-anchor="start" fill="#00FFFF" shape-type="realdata" id="XHB_6PPD_PT35134" font-size="12.500000" x="946" y="192">XXXX</text>
<rect shape-type="rectangle" x="790" y="166" width="54" height="26" fill="#4A494A" stroke="#C0C0C0" stroke-width="3.00"/>
<rect shape-type="rectangle" x="844" y="166" width="37" height="26" fill="#4A494A" stroke="#C0C0C0" stroke-width="3.00"/>
<text font-family="宋体" text-anchor="start" fill="#00FF42" shape-type="text" id="" font-size="9.500000" font-weight="bold" x="854" y="181">MPa</text>
<text font-family="Arial" text-anchor="start" fill="#00FFFF" shape-type="realdata" id="XHB_6PPD_PT35135" font-size="12.500000" x="795" y="182">XXXX</text>
<text font-family="Arial" text-anchor="start" fill="#00FFFF" shape-type="realdata" id="XHB_6PPD_PT35126" font-size="12.500000" x="801" y="409">XXXX</text>
<rect shape-type="rectangle" x="429" y="526" width="54" height="26" fill="#4A494A" stroke="#C0C0C0" stroke-width="3.00"/>
<rect shape-type="rectangle" x="483" y="526" width="37" height="26" fill="#4A494A" stroke="#C0C0C0" stroke-width="3.00"/>
<text font-family="宋体" text-anchor="start" fill="#00FF42" shape-type="text" id="" font-size="9.500000" font-weight="bold" x="496" y="542">℃</text>
<rect shape-type="rectangle" x="429" y="496" width="54" height="26" fill="#4A494A" stroke="#C0C0C0" stroke-width="3.00"/>
<rect shape-type="rectangle" x="483" y="496" width="37" height="26" fill="#4A494A" stroke="#C0C0C0" stroke-width="3.00"/>
<text font-family="宋体" text-anchor="start" fill="#00FF42" shape-type="text" id="" font-size="11.000000" font-weight="bold" x="499" y="512">%</text>
<text font-family="Arial" text-anchor="start" fill="#00FFFF" shape-type="realdata" id="XHB_6PPD_LT35114" font-size="12.500000" x="433" y="513">XXXX</text>
<text font-family="Arial" text-anchor="start" fill="#00FFFF" shape-type="realdata" id="XHB_6PPD_TE35127" font-size="12.500000" x="433" y="543">XXXX</text>
<rect shape-type="rectangle" x="51" y="267" width="54" height="26" fill="#4A494A" stroke="#C0C0C0" stroke-width="3.00"/>
<rect shape-type="rectangle" x="105" y="267" width="37" height="26" fill="#4A494A" stroke="#C0C0C0" stroke-width="3.00"/>
<rect shape-type="rectangle" x="201" y="411" width="54" height="26" fill="#4A494A" stroke="#C0C0C0" stroke-width="3.00"/>
<rect shape-type="rectangle" x="255" y="411" width="37" height="26" fill="#4A494A" stroke="#C0C0C0" stroke-width="3.00"/>
<text font-family="Arial" text-anchor="start" fill="#00FFFF" shape-type="realdata" id="XHB_6PPD_FT35106" font-size="12.500000" x="207" y="429">XXXX</text>
<text font-family="Arial" text-anchor="start" fill="#00FFFF" shape-type="realdata" id="XHB_6PPD_FT35115" font-size="12.500000" x="54" y="283">XXXX</text>
<text font-family="Arial" text-anchor="start" fill="#00FFFF" shape-type="realdata" id="XHB_6PPD_FC35107" font-size="12.500000" x="344" y="163">XXXX</text>
<rect shape-type="rectangle" x="174" y="304" width="54" height="26" fill="#4A494A" stroke="#C0C0C0" stroke-width="3.00"/>
<rect shape-type="rectangle" x="228" y="304" width="37" height="26" fill="#4A494A" stroke="#C0C0C0" stroke-width="3.00"/>
<text font-family="宋体" text-anchor="start" fill="#00FF42" shape-type="text" id="" font-size="11.000000" font-weight="bold" x="244" y="320">%</text>
<text font-family="Arial" text-anchor="start" fill="#00FFFF" shape-type="realdata" id="XHB_6PPD_LT35120" font-size="12.500000" x="179" y="320">XXXX</text>
<g shape-type="group">
<text font-family="宋体" text-anchor="start" fill="#00FF42" shape-type="text" id="" font-size="15.500000" font-weight="bold" x="396" y="164">m/h</text>
<text font-family="宋体" text-anchor="start" fill="#00FF42" shape-type="text" id="" font-size="8.750000" font-weight="bold" x="403" y="153">3</text>
</g>
<g shape-type="group">
<text font-family="宋体" text-anchor="start" fill="#00FF42" shape-type="text" id="" font-size="14.750000" font-weight="bold" x="257" y="430">m/h</text>
<text font-family="宋体" text-anchor="start" fill="#00FF42" shape-type="text" id="" font-size="9.500000" font-weight="bold" x="265" y="420">3</text>
</g>
<g shape-type="group">
<text font-family="宋体" text-anchor="start" fill="#00FF42" shape-type="text" id="" font-size="15.500000" font-weight="bold" x="108" y="287">m/h</text>
<text font-family="宋体" text-anchor="start" fill="#00FF42" shape-type="text" id="" font-size="8.750000" font-weight="bold" x="115" y="276">3</text>
</g>
</svg>
