<?xml version="1.0"?>
<?xml-stylesheet type='text/javascript'?>
<!--Draw SVG: 2019-11-25 09:41:09 47-Monday-->
<svg xmlns="http://www.w3.org/2000/svg" xmlns:xlink="http://www.w3.org/1999/xlink" version="1.1" style="background-color:#000000" width="1066" height="800" viewbox="0 0 1066 800">
<defs>
<linearGradient x1="0.000000%" y1="50.000000%" x2="100.000000%" y2="50.000000%" id="lgradient41">
<stop offset="0" stop-color="#2C2C2C" stop-opacity="1"/>
<stop offset="0.5" stop-color="#FFFFFF" stop-opacity="1"/>
<stop offset="1" stop-color="#2C2C2C" stop-opacity="1"/>
</linearGradient>
<linearGradient x1="0.000000%" y1="50.000000%" x2="100.000000%" y2="50.000000%" id="lgradient42">
<stop offset="0" stop-color="#2C2C2C" stop-opacity="1"/>
<stop offset="0.5" stop-color="#FFFFFF" stop-opacity="1"/>
<stop offset="1" stop-color="#2C2C2C" stop-opacity="1"/>
</linearGradient>
<linearGradient x1="0.000000%" y1="50.000000%" x2="100.000000%" y2="50.000000%" id="lgradient43">
<stop offset="0" stop-color="#2C2C2C" stop-opacity="1"/>
<stop offset="0.5" stop-color="#FFFFFF" stop-opacity="1"/>
<stop offset="1" stop-color="#2C2C2C" stop-opacity="1"/>
</linearGradient>
<linearGradient x1="0.000000%" y1="50.000000%" x2="100.000000%" y2="50.000000%" id="lgradient44">
<stop offset="0" stop-color="#2C2C2C" stop-opacity="1"/>
<stop offset="0.5" stop-color="#FFFFFF" stop-opacity="1"/>
<stop offset="1" stop-color="#2C2C2C" stop-opacity="1"/>
</linearGradient>
<linearGradient x1="0.000000%" y1="50.000000%" x2="100.000000%" y2="50.000000%" id="lgradient45">
<stop offset="0" stop-color="#2C2C2C" stop-opacity="1"/>
<stop offset="0.5" stop-color="#FFFFFF" stop-opacity="1"/>
<stop offset="1" stop-color="#2C2C2C" stop-opacity="1"/>
</linearGradient>
<linearGradient x1="50.000000%" y1="0.000000%" x2="50.000000%" y2="100.000000%" id="lgradient46">
<stop offset="0" stop-color="#2C2C2C" stop-opacity="1"/>
<stop offset="0.5" stop-color="#FFFFFF" stop-opacity="1"/>
<stop offset="1" stop-color="#2C2C2C" stop-opacity="1"/>
</linearGradient>
<linearGradient x1="0.000000%" y1="50.000000%" x2="100.000000%" y2="50.000000%" id="lgradient47">
<stop offset="0" stop-color="#2C2C2C" stop-opacity="1"/>
<stop offset="0.5" stop-color="#FFFFFF" stop-opacity="1"/>
<stop offset="1" stop-color="#2C2C2C" stop-opacity="1"/>
</linearGradient>
<linearGradient x1="0.000000%" y1="50.000000%" x2="100.000000%" y2="50.000000%" id="lgradient48">
<stop offset="0" stop-color="#2C2C2C" stop-opacity="1"/>
<stop offset="0.5" stop-color="#FFFFFF" stop-opacity="1"/>
<stop offset="1" stop-color="#2C2C2C" stop-opacity="1"/>
</linearGradient>
<linearGradient x1="0.000000%" y1="50.000000%" x2="100.000000%" y2="50.000000%" id="lgradient124">
<stop offset="0" stop-color="#111111" stop-opacity="1"/>
<stop offset="0.5" stop-color="#636563" stop-opacity="1"/>
<stop offset="1" stop-color="#111111" stop-opacity="1"/>
</linearGradient>
</defs>
<rect shape-type="rectangle" x="1" y="2" width="1064" height="37" fill="#636563" stroke="#808080" stroke-width="1.00"/>
<rect shape-type="rectangle" x="292" y="2" width="500" height="33" stroke="#000000" stroke-width="1.00"/>
<rect shape-type="rectangle" x="7" y="4" width="67" height="29" stroke="#000000" stroke-width="1.00"/>
<text font-family="宋体" text-anchor="start" fill="#FFFFFF" shape-type="text" id="" font-size="11.750000" font-weight="bold" x="10" y="23">JKM3506</text>
<text font-family="宋体" text-anchor="start" fill="#FFFFFF" shape-type="text" id="" font-size="26.000000" font-weight="bold" x="441" y="30">脱水塔蒸馏</text>
<line shape-type="limitline" x1="247" y1="281" x2="28" y2="281" fill="#0075BD" stroke="#0075BD" stroke-width="3.00"/>
<line shape-type="limitline" x1="116" y1="306" x2="28" y2="306" fill="#0075BD" stroke="#0075BD" stroke-width="3.00"/>
<line shape-type="limitline" x1="116" y1="543" x2="116" y2="305" fill="#0075BD" stroke="#0075BD" stroke-width="3.00"/>
<line shape-type="limitline" x1="115" y1="371" x2="27" y2="371" fill="#0075BD" stroke="#0075BD" stroke-width="3.00"/>
<line shape-type="limitline" x1="113" y1="436" x2="25" y2="436" fill="#0075BD" stroke="#0075BD" stroke-width="3.00"/>
<line shape-type="limitline" x1="114" y1="500" x2="26" y2="500" fill="#0075BD" stroke="#0075BD" stroke-width="3.00"/>
<line shape-type="limitline" x1="184" y1="540" x2="184" y2="302" fill="#0075BD" stroke="#0075BD" stroke-width="3.00"/>
<line shape-type="limitline" x1="185" y1="303" x2="247" y2="303" fill="#0075BD" stroke="#0075BD" stroke-width="3.00"/>
<line shape-type="limitline" x1="289" y1="117" x2="289" y2="221" fill="#0075BD" stroke="#0075BD" stroke-width="3.00"/>
<line shape-type="limitline" x1="288" y1="119" x2="563" y2="119" fill="#0075BD" stroke="#0075BD" stroke-width="3.00"/>
<line shape-type="limitline" x1="564" y1="118" x2="564" y2="145" fill="#0075BD" stroke="#0075BD" stroke-width="3.00"/>
<line shape-type="limitline" x1="419" y1="190" x2="419" y2="605" fill="#0075BD" stroke="#0075BD" stroke-width="3.00"/>
<line shape-type="limitline" x1="421" y1="192" x2="536" y2="192" fill="#0075BD" stroke="#0075BD" stroke-width="3.00"/>
<line shape-type="limitline" x1="311" y1="603" x2="311" y2="554" fill="#0075BD" stroke="#0075BD" stroke-width="3.00"/>
<line shape-type="limitline" x1="312" y1="556" x2="418" y2="556" fill="#0075BD" stroke="#0075BD" stroke-width="3.00"/>
<line shape-type="limitline" x1="257" y1="667" x2="353" y2="667" fill="#0075BD" stroke="#0075BD" stroke-width="3.00"/>
<line shape-type="limitline" x1="207" y1="621" x2="303" y2="621" fill="#0075BD" stroke="#0075BD" stroke-width="3.00"/>
<line shape-type="limitline" x1="354" y1="617" x2="407" y2="617" fill="#0075BD" stroke="#0075BD" stroke-width="3.00"/>
<line shape-type="limitline" x1="353" y1="666" x2="353" y2="617" fill="#0075BD" stroke="#0075BD" stroke-width="3.00"/>
<line shape-type="limitline" x1="257" y1="669" x2="257" y2="620" fill="#0075BD" stroke="#0075BD" stroke-width="3.00"/>
<line shape-type="limitline" x1="564" y1="678" x2="752" y2="678" fill="#0075BD" stroke="#0075BD" stroke-width="3.00"/>
<line shape-type="limitline" x1="752" y1="618" x2="805" y2="618" fill="#0075BD" stroke="#0075BD" stroke-width="3.00"/>
<line shape-type="limitline" x1="883" y1="620" x2="1002" y2="620" fill="#0075BD" stroke="#0075BD" stroke-width="3.00"/>
<line shape-type="limitline" x1="565" y1="675" x2="565" y2="626" fill="#0075BD" stroke="#0075BD" stroke-width="3.00"/>
<line shape-type="limitline" x1="752" y1="618" x2="752" y2="676" fill="#FF8A42" stroke="#0075BD" stroke-width="3.00"/>
<line shape-type="limitline" x1="763" y1="665" x2="992" y2="665" stroke="#FFFFFF" stroke-width="3.00"/>
<line shape-type="limitline" x1="716" y1="488" x2="996" y2="488" stroke="#FFFFFF" stroke-width="3.00"/>
<line shape-type="limitline" x1="717" y1="488" x2="717" y2="577" stroke="#FFFFFF" stroke-width="3.00"/>
<line shape-type="limitline" x1="716" y1="663" x2="716" y2="608" stroke="#FFFFFF" stroke-width="3.00"/>
<line shape-type="limitline" x1="716" y1="665" x2="745" y2="665" stroke="#FFFFFF" stroke-width="3.00"/>
<line shape-type="limitline" x1="717" y1="580" x2="659" y2="580" stroke="#FFFFFF" stroke-width="3.00"/>
<line shape-type="limitline" x1="715" y1="609" x2="657" y2="609" stroke="#FFFFFF" stroke-width="3.00"/>
<line shape-type="limitline" x1="720" y1="382" x2="1000" y2="382" stroke="#FFFFFF" stroke-width="3.00"/>
<line shape-type="limitline" x1="716" y1="278" x2="996" y2="278" stroke="#FFFFFF" stroke-width="3.00"/>
<line shape-type="limitline" x1="715" y1="182" x2="995" y2="182" stroke="#FFFFFF" stroke-width="3.00"/>
<rect shape-type="rectangle" x="247" y="223" width="71" height="88" fill="url(#lgradient41)" stroke="#808080" stroke-width="2.00"/>
<rect shape-type="rectangle" x="242" y="310" width="83" height="14" fill="url(#lgradient42)" stroke="#808080" stroke-width="2.00"/>
<rect shape-type="rectangle" x="806" y="545" width="76" height="88" fill="url(#lgradient43)" stroke="#808080" stroke-width="2.00"/>
<rect shape-type="rectangle" x="803" y="632" width="83" height="14" fill="url(#lgradient44)" stroke="#808080" stroke-width="2.00"/>
<rect shape-type="roundRectangle" rx="20" ry="20" x="537" y="143" width="56" height="444" fill="url(#lgradient45)" stroke="#808080" stroke-width="2.00"/>
<rect shape-type="roundRectangle" rx="20" ry="20" x="466" y="559" width="195" height="66" fill="url(#lgradient46)" stroke="#808080" stroke-width="2.00"/>
<rect shape-type="rectangle" x="98" y="554" width="112" height="88" fill="url(#lgradient47)" stroke="#808080" stroke-width="2.00"/>
<polygon shape-type="trapezium" points="209,554 98,554 154,518 154,518 209,554" fill="url(#lgradient48)" stroke="#808080" stroke-width="2.00"/>
<polygon shape-type="trapezium" points="806,186 806,176 794,181 794,181 806,186" fill="#FFFFFF" stroke="#FFFFFF" stroke-width="2.00"/>
<g shape-type="group">
<path shape-type="chord" d="M 856,371 A 13,17 0 0,0 834,371 z" fill="#C0C0C0" stroke="#C0C0C0" stroke-width="2.00"/>
<g shape-type="group">
<polygon shape-type="trapezium" points="833,376 833,386 844,381 844,381 833,376" fill="#C0C0C0" stroke="#C0C0C0" stroke-width="1.00"/>
<polygon shape-type="trapezium" points="855,376 855,386 844,381 844,381 855,376" fill="#C0C0C0" stroke="#C0C0C0" stroke-width="1.00"/>
</g>
<line shape-type="limitline" x1="845" y1="370" x2="844" y2="377" fill="#00FFFF" stroke="#C0C0C0" stroke-width="1.00"/>
<polygon shape-type="trapezium" points="848,373 841,373 845,381 845,381 848,373" fill="#C0C0C0" stroke="#C0C0C0" stroke-width="1.00"/>
</g>
<g shape-type="group">
<path shape-type="chord" d="M 857,478 A 13,18 0 0,0 835,478 z" fill="#C0C0C0" stroke="#C0C0C0" stroke-width="2.00"/>
<g shape-type="group">
<polygon shape-type="trapezium" points="834,484 834,491 845,488 845,488 834,484" fill="#C0C0C0" stroke="#C0C0C0" stroke-width="1.00"/>
<polygon shape-type="trapezium" points="856,484 856,491 845,488 845,488 856,484" fill="#C0C0C0" stroke="#C0C0C0" stroke-width="1.00"/>
</g>
<line shape-type="limitline" x1="846" y1="476" x2="845" y2="484" fill="#00FFFF" stroke="#C0C0C0" stroke-width="1.00"/>
<polygon shape-type="trapezium" points="849,480 842,480 846,487 846,487 849,480" fill="#C0C0C0" stroke="#C0C0C0" stroke-width="1.00"/>
</g>
<g shape-type="group">
<path shape-type="chord" d="M 850,266 A 13,17 0 0,0 828,266 z" fill="#C0C0C0" stroke="#C0C0C0" stroke-width="2.00"/>
<g shape-type="group">
<polygon shape-type="trapezium" points="827,270 827,281 838,276 838,276 827,270" fill="#C0C0C0" stroke="#C0C0C0" stroke-width="1.00"/>
<polygon shape-type="trapezium" points="849,270 849,281 838,276 838,276 849,270" fill="#C0C0C0" stroke="#C0C0C0" stroke-width="1.00"/>
</g>
<line shape-type="limitline" x1="839" y1="265" x2="838" y2="271" fill="#00FFFF" stroke="#C0C0C0" stroke-width="1.00"/>
<polygon shape-type="trapezium" points="842,268 834,268 838,275 838,275 842,268" fill="#C0C0C0" stroke="#C0C0C0" stroke-width="1.00"/>
</g>
<rect shape-type="rectangle" x="286" y="469" width="43" height="41" fill="#C0C0C0" stroke="#000000" stroke-width="2.00"/>
<line shape-type="limitline" x1="418" y1="440" x2="356" y2="440" fill="#00FFFF" stroke="#FFFFFF" stroke-width="3.00" stroke-dasharray="5 10"/>
<line shape-type="limitline" x1="753" y1="276" x2="753" y2="233" fill="#00FFFF" stroke="#FFFFFF" stroke-width="3.00" stroke-dasharray="5 10"/>
<line shape-type="limitline" x1="793" y1="234" x2="754" y2="234" fill="#00FFFF" stroke="#FFFFFF" stroke-width="3.00" stroke-dasharray="5 10"/>
<line shape-type="limitline" x1="800" y1="441" x2="767" y2="441" fill="#00FFFF" stroke="#FFFFFF" stroke-width="3.00" stroke-dasharray="5 10"/>
<line shape-type="limitline" x1="767" y1="488" x2="767" y2="441" fill="#00FFFF" stroke="#FFFFFF" stroke-width="3.00" stroke-dasharray="5 10"/>
<line shape-type="limitline" x1="796" y1="333" x2="763" y2="333" fill="#00FFFF" stroke="#FFFFFF" stroke-width="3.00" stroke-dasharray="5 10"/>
<line shape-type="limitline" x1="763" y1="380" x2="763" y2="333" fill="#00FFFF" stroke="#FFFFFF" stroke-width="3.00" stroke-dasharray="5 10"/>
<line shape-type="limitline" x1="309" y1="491" x2="309" y2="455" fill="#00FFFF" stroke="#FFFFFF" stroke-width="3.00" stroke-dasharray="5 10"/>
<line shape-type="limitline" x1="289" y1="159" x2="267" y2="159" fill="#00FFFF" stroke="#FFFFFF" stroke-width="3.00" stroke-dasharray="5 10"/>
<line shape-type="limitline" x1="605" y1="173" x2="592" y2="173" fill="#00FFFF" stroke="#FFFFFF" stroke-width="3.00" stroke-dasharray="5 10"/>
<line shape-type="limitline" x1="606" y1="273" x2="593" y2="273" fill="#00FFFF" stroke="#FFFFFF" stroke-width="3.00" stroke-dasharray="5 10"/>
<line shape-type="limitline" x1="606" y1="397" x2="593" y2="397" fill="#00FFFF" stroke="#FFFFFF" stroke-width="3.00" stroke-dasharray="5 10"/>
<line shape-type="limitline" x1="593" y1="517" x2="622" y2="517" fill="#00FFFF" stroke="#FFFFFF" stroke-width="3.00" stroke-dasharray="5 10"/>
<line shape-type="limitline" x1="792" y1="137" x2="753" y2="137" fill="#00FFFF" stroke="#FFFFFF" stroke-width="3.00" stroke-dasharray="5 10"/>
<line shape-type="limitline" x1="752" y1="179" x2="752" y2="136" fill="#00FFFF" stroke="#FFFFFF" stroke-width="3.00" stroke-dasharray="5 10"/>
<line shape-type="limitline" x1="882" y1="600" x2="900" y2="600" fill="#00FFFF" stroke="#FFFFFF" stroke-width="3.00" stroke-dasharray="5 10"/>
<line shape-type="limitline" x1="88" y1="621" x2="98" y2="621" fill="#00FFFF" stroke="#FFFFFF" stroke-width="3.00" stroke-dasharray="5 10"/>
<line shape-type="limitline" x1="520" y1="158" x2="538" y2="158" fill="#00FFFF" stroke="#FFFFFF" stroke-width="3.00" stroke-dasharray="5 10"/>
<line shape-type="limitline" x1="481" y1="521" x2="481" y2="514" fill="#00FFFF" stroke="#000000" stroke-width="3.00" stroke-dasharray="5 10"/>
<line shape-type="limitline" x1="480" y1="555" x2="480" y2="564" fill="#00FFFF" stroke="#000000" stroke-width="3.00" stroke-dasharray="5 10"/>
<line shape-type="limitline" x1="839" y1="258" x2="839" y2="233" fill="#00FFFF" stroke="#FFFFFF" stroke-width="3.00" stroke-dasharray="5 10"/>
<line shape-type="limitline" x1="843" y1="362" x2="843" y2="337" fill="#00FFFF" stroke="#FFFFFF" stroke-width="3.00" stroke-dasharray="5 10"/>
<line shape-type="limitline" x1="847" y1="468" x2="847" y2="443" fill="#00FFFF" stroke="#FFFFFF" stroke-width="3.00" stroke-dasharray="5 10"/>
<g shape-type="group">
<polygon shape-type="trapezium" points="19,290 19,272 3,281 3,281 19,290" fill="#808080" stroke="#808080" stroke-width="2.00"/>
<rect shape-type="rectangle" x="18" y="277" width="11" height="10" fill="#808080" stroke="#808080" stroke-width="2.00"/>
</g>
<g shape-type="group">
<polygon shape-type="trapezium" points="1010,193 1010,175 995,184 995,184 1010,193" fill="#808080" stroke="#808080" stroke-width="2.00"/>
<rect shape-type="rectangle" x="1009" y="180" width="12" height="10" fill="#808080" stroke="#808080" stroke-width="2.00"/>
</g>
<g shape-type="group">
<polygon shape-type="trapezium" points="1009,288 1009,270 994,279 994,279 1009,288" fill="#808080" stroke="#808080" stroke-width="2.00"/>
<rect shape-type="rectangle" x="1008" y="275" width="12" height="10" fill="#808080" stroke="#808080" stroke-width="2.00"/>
</g>
<g shape-type="group">
<polygon shape-type="trapezium" points="1018,390 1018,372 1002,381 1002,381 1018,390" fill="#808080" stroke="#808080" stroke-width="2.00"/>
<rect shape-type="rectangle" x="1017" y="377" width="11" height="10" fill="#808080" stroke="#808080" stroke-width="2.00"/>
</g>
<g shape-type="group">
<polygon shape-type="trapezium" points="1004,497 1004,479 989,488 989,488 1004,497" fill="#808080" stroke="#808080" stroke-width="2.00"/>
<rect shape-type="rectangle" x="1003" y="485" width="12" height="9" fill="#808080" stroke="#808080" stroke-width="2.00"/>
</g>
<g shape-type="group">
<polygon shape-type="trapezium" points="17,316 17,298 32,307 32,307 17,316" fill="#808080" stroke="#808080" stroke-width="2.00"/>
<rect shape-type="rectangle" x="6" y="303" width="12" height="10" fill="#808080" stroke="#808080" stroke-width="2.00"/>
</g>
<g shape-type="group">
<polygon shape-type="trapezium" points="14,382 14,363 29,372 29,372 14,382" fill="#808080" stroke="#808080" stroke-width="2.00"/>
<rect shape-type="rectangle" x="3" y="368" width="11" height="9" fill="#808080" stroke="#808080" stroke-width="2.00"/>
</g>
<g shape-type="group">
<polygon shape-type="trapezium" points="16,446 16,428 31,437 31,437 16,446" fill="#808080" stroke="#808080" stroke-width="2.00"/>
<rect shape-type="rectangle" x="5" y="434" width="11" height="9" fill="#808080" stroke="#808080" stroke-width="2.00"/>
</g>
<g shape-type="group">
<polygon shape-type="trapezium" points="16,508 16,489 31,498 31,498 16,508" fill="#808080" stroke="#808080" stroke-width="2.00"/>
<rect shape-type="rectangle" x="5" y="494" width="11" height="9" fill="#808080" stroke="#808080" stroke-width="2.00"/>
</g>
<g shape-type="group">
<polygon shape-type="trapezium" points="1001,673 1001,655 1017,664 1017,664 1001,673" fill="#808080" stroke="#808080" stroke-width="2.00"/>
<rect shape-type="rectangle" x="991" y="661" width="11" height="9" fill="#808080" stroke="#808080" stroke-width="2.00"/>
</g>
<polygon shape-type="trapezium" points="806,282 806,272 794,277 794,277 806,282" fill="#FFFFFF" stroke="#FFFFFF" stroke-width="2.00"/>
<polygon shape-type="trapezium" points="798,387 798,377 786,382 786,382 798,387" fill="#FFFFFF" stroke="#FFFFFF" stroke-width="2.00"/>
<polygon shape-type="trapezium" points="798,494 798,484 786,489 786,489 798,494" fill="#FFFFFF" stroke="#FFFFFF" stroke-width="2.00"/>
<polygon shape-type="trapezium" points="283,171 293,171 288,184 288,184 283,171" fill="#0075BD" stroke="#0075BD" stroke-width="2.00"/>
<polygon shape-type="trapezium" points="178,438 188,438 183,451 183,451 178,438" fill="#0075BD" stroke="#0075BD" stroke-width="2.00"/>
<polygon shape-type="trapezium" points="413,421 424,421 418,408 418,408 413,421" fill="#0075BD" stroke="#0075BD" stroke-width="2.00"/>
<polygon shape-type="trapezium" points="671,682 671,672 683,677 683,677 671,682" fill="#0075BD" stroke="#0075BD" stroke-width="2.00"/>
<text font-family="宋体" text-anchor="start" fill="#FFFFFF" shape-type="text" id="" font-size="9.500000" font-weight="bold" x="16" y="319">1#真空捕集器</text>
<text font-family="宋体" text-anchor="start" fill="#FFFFFF" shape-type="text" id="" font-size="9.500000" font-weight="bold" x="16" y="389">2#真空捕集器</text>
<text font-family="宋体" text-anchor="start" fill="#FFFFFF" shape-type="text" id="" font-size="9.500000" font-weight="bold" x="18" y="452">1#气液分离器</text>
<text font-family="宋体" text-anchor="start" fill="#FFFFFF" shape-type="text" id="" font-size="9.500000" font-weight="bold" x="18" y="516">2#气液分离器</text>
<text font-family="宋体" text-anchor="start" fill="#FFFFFF" shape-type="text" id="" font-size="9.500000" font-weight="bold" x="920" y="196">生活用水</text>
<text font-family="宋体" text-anchor="start" fill="#FFFFFF" shape-type="text" id="" font-size="9.500000" font-weight="bold" x="919" y="290">中压蒸汽</text>
<text font-family="宋体" text-anchor="start" fill="#FFFFFF" shape-type="text" id="" font-size="9.500000" font-weight="bold" x="914" y="398">系统中压蒸汽</text>
<text font-family="宋体" text-anchor="start" fill="#FFFFFF" shape-type="text" id="" font-size="9.500000" font-weight="bold" x="930" y="507">来自低压蒸汽</text>
<rect shape-type="rectangle" x="277" y="435" width="50" height="23" fill="#4A494A" stroke="#C0C0C0" stroke-width="3.00"/>
<rect shape-type="rectangle" x="327" y="435" width="38" height="23" fill="#4A494A" stroke="#C0C0C0" stroke-width="3.00"/>
<text font-family="宋体" text-anchor="start" fill="#FFFFFF" shape-type="text" id="" font-size="9.500000" font-weight="bold" x="281" y="649">P35115A</text>
<text font-family="宋体" text-anchor="start" fill="#FFFFFF" shape-type="text" id="" font-size="9.500000" font-weight="bold" x="391" y="649">P35115B</text>
<text font-family="宋体" text-anchor="start" fill="#000000" shape-type="text" id="" font-size="9.500000" font-weight="bold" x="132" y="592">T35106</text>
<text font-family="宋体" text-anchor="start" fill="#000000" shape-type="text" id="" font-size="9.500000" font-weight="bold" x="112" y="614">回收溶剂贮罐</text>
<text font-family="宋体" text-anchor="start" fill="#000000" shape-type="text" id="" font-size="9.500000" font-weight="bold" x="260" y="247">D35118</text>
<text font-family="宋体" text-anchor="start" fill="#000000" shape-type="text" id="" font-size="9.500000" font-weight="bold" x="261" y="271">脱水塔</text>
<text font-family="宋体" text-anchor="start" fill="#000000" shape-type="text" id="" font-size="9.500000" font-weight="bold" x="260" y="296">分相器</text>
<text font-family="宋体" text-anchor="start" fill="#000000" shape-type="text" id="" font-size="9.500000" font-weight="bold" x="544" y="304">C35102</text>
<text font-family="宋体" text-anchor="start" fill="#000000" shape-type="text" id="" font-size="9.500000" font-weight="bold" x="546" y="341">脱水塔</text>
<text font-family="宋体" text-anchor="start" fill="#000000" shape-type="text" id="" font-size="9.500000" font-weight="bold" x="826" y="570">D35119</text>
<text font-family="宋体" text-anchor="start" fill="#000000" shape-type="text" id="" font-size="9.500000" font-weight="bold" x="826" y="595">脱醇塔</text>
<text font-family="宋体" text-anchor="start" fill="#000000" shape-type="text" id="" font-size="9.500000" font-weight="bold" x="825" y="619">进料罐</text>
<rect shape-type="rectangle" x="294" y="509" width="12" height="13" fill="#808080" stroke="#000000" stroke-width="2.00"/>
<rect shape-type="rectangle" x="305" y="509" width="12" height="13" fill="#808080" stroke="#000000" stroke-width="2.00"/>
<text font-family="宋体" text-anchor="start" fill="#FFFFFF" shape-type="text" id="" font-size="11.000000" font-weight="bold" x="296" y="520">A</text>
<text font-family="宋体" text-anchor="start" fill="#FFFFFF" shape-type="text" id="" font-size="11.000000" font-weight="bold" x="307" y="520">B</text>
<text font-family="Arial" text-anchor="start" fill="#00FFFF" shape-type="realdata" id="XHB_6PPD_FT35105" font-size="12.500000" x="282" y="450">XXXX</text>
<g shape-type="group">
<polygon shape-type="trapezium" points="430,638 403,638 410,624 424,624 430,638" fill="#808080" stroke="#000000" stroke-width="2.00"/>
<ellipse shape-type="ellipse" cx="418" cy="617" rx="14" ry="15" fill="#C0C0C0" stroke="#000000" stroke-width="2.00"/>
<ellipse shape-type="ellipse" cx="418" cy="613" rx="2" ry="5" fill="#808080" stroke="#FFFFFF" stroke-width="1.00"/>
<ellipse shape-type="ellipse" cx="418" cy="624" rx="2" ry="6" fill="#808080" stroke="#FFFFFF" stroke-width="1.00"/>
<ellipse shape-type="ellipse" cx="410" cy="617" rx="6" ry="2" fill="#808080" stroke="#FFFFFF" stroke-width="1.00"/>
<ellipse shape-type="ellipse" cx="425" cy="617" rx="6" ry="2" fill="#808080" stroke="#FFFFFF" stroke-width="1.00"/>
</g>
<g shape-type="group">
<polygon shape-type="trapezium" points="322,638 295,638 302,624 316,624 322,638" fill="#808080" stroke="#000000" stroke-width="2.00"/>
<ellipse shape-type="ellipse" cx="310" cy="617" rx="14" ry="15" fill="#C0C0C0" stroke="#000000" stroke-width="2.00"/>
<ellipse shape-type="ellipse" cx="309" cy="613" rx="2" ry="5" fill="#808080" stroke="#FFFFFF" stroke-width="1.00"/>
<ellipse shape-type="ellipse" cx="309" cy="624" rx="2" ry="6" fill="#808080" stroke="#FFFFFF" stroke-width="1.00"/>
<ellipse shape-type="ellipse" cx="302" cy="617" rx="5" ry="2" fill="#808080" stroke="#FFFFFF" stroke-width="1.00"/>
<ellipse shape-type="ellipse" cx="316" cy="617" rx="7" ry="2" fill="#808080" stroke="#FFFFFF" stroke-width="1.00"/>
</g>
<a xlink:href="\橡胶化学品部\6PPD\主装置蒸馏系统\ZZZZL_ML.svg">
<g shape-type="button">
<rect fill="#C0C0C0" stroke-width="0.3" stroke="#FFFFFF" x="961" y="4" width="100" height="31" shape-type="buttonrect"/>
<text font-family="宋体" text-anchor="middle" dominant-baseline="middle" fill="#800000" font-size="13.500000" font-weight="bold" x="1011" y="26" shape-type="buttontext">返回上一级</text>
</g>
</a>
<rect shape-type="rectangle" x="4" y="764" width="1058" height="38" fill="url(#lgradient124)" stroke="#636563" stroke-width="1.00"/>
<a xlink:href="JKM3506.svg">
<g shape-type="button">
<rect fill="#C0C0C0" stroke-width="0.3" stroke="#FFFFFF" x="5" y="768" width="157" height="30" shape-type="buttonrect"/>
<text font-family="宋体" text-anchor="middle" dominant-baseline="middle" fill="#000000" font-size="12.000000" x="84" y="789" shape-type="buttontext">脱水塔蒸馏</text>
</g>
</a>
<a xlink:href="JKM3507.svg">
<g shape-type="button">
<rect fill="#C0C0C0" stroke-width="0.3" stroke="#FFFFFF" x="167" y="768" width="158" height="30" shape-type="buttonrect"/>
<text font-family="宋体" text-anchor="middle" dominant-baseline="middle" fill="#000000" font-size="12.000000" x="246" y="789" shape-type="buttontext">脱醇塔蒸馏</text>
</g>
</a>
<a xlink:href="M3605A.svg">
<g shape-type="button">
<rect fill="#C0C0C0" stroke-width="0.3" stroke="#FFFFFF" x="330" y="768" width="157" height="30" shape-type="buttonrect"/>
<text font-family="宋体" text-anchor="middle" dominant-baseline="middle" fill="#000000" font-size="12.000000" x="409" y="789" shape-type="buttontext">丙酮回收塔</text>
</g>
</a>
<a xlink:href="M3605B.svg">
<g shape-type="button">
<rect fill="#C0C0C0" stroke-width="0.3" stroke="#FFFFFF" x="494" y="768" width="157" height="30" shape-type="buttonrect"/>
<text font-family="宋体" text-anchor="middle" dominant-baseline="middle" fill="#000000" font-size="12.000000" x="572" y="789" shape-type="buttontext">异丙醇回收塔</text>
</g>
</a>
<rect shape-type="rectangle" x="178" y="147" width="53" height="26" fill="#4A494A" stroke="#C0C0C0" stroke-width="3.00"/>
<rect shape-type="rectangle" x="231" y="147" width="37" height="26" fill="#4A494A" stroke="#C0C0C0" stroke-width="3.00"/>
<text font-family="宋体" text-anchor="start" fill="#00FF42" shape-type="text" id="" font-size="9.500000" font-weight="bold" x="244" y="163">℃</text>
<rect shape-type="rectangle" x="431" y="147" width="53" height="26" fill="#4A494A" stroke="#C0C0C0" stroke-width="3.00"/>
<rect shape-type="rectangle" x="484" y="147" width="37" height="26" fill="#4A494A" stroke="#C0C0C0" stroke-width="3.00"/>
<text font-family="宋体" text-anchor="start" fill="#00FF42" shape-type="text" id="" font-size="9.500000" font-weight="bold" x="497" y="163">℃</text>
<text font-family="Arial" text-anchor="start" fill="#00FFFF" shape-type="realdata" id="XHB_6PPD_TE35125" font-size="12.500000" x="435" y="164">XXXX</text>
<text font-family="Arial" text-anchor="start" fill="#00FFFF" shape-type="realdata" id="XHB_6PPD_TE35126" font-size="12.500000" x="182" y="163">XXXX</text>
<rect shape-type="rectangle" x="610" y="502" width="53" height="26" fill="#4A494A" stroke="#C0C0C0" stroke-width="3.00"/>
<rect shape-type="rectangle" x="663" y="502" width="44" height="26" fill="#4A494A" stroke="#C0C0C0" stroke-width="3.00"/>
<text font-family="宋体" text-anchor="start" fill="#00FF42" shape-type="text" id="" font-size="9.500000" font-weight="bold" x="665" y="518">kPa</text>
<rect shape-type="rectangle" x="607" y="384" width="53" height="26" fill="#4A494A" stroke="#C0C0C0" stroke-width="3.00"/>
<rect shape-type="rectangle" x="660" y="384" width="44" height="26" fill="#4A494A" stroke="#C0C0C0" stroke-width="3.00"/>
<text font-family="宋体" text-anchor="start" fill="#00FF42" shape-type="text" id="" font-size="9.500000" font-weight="bold" x="662" y="400">kPa</text>
<rect shape-type="rectangle" x="607" y="259" width="53" height="26" fill="#4A494A" stroke="#C0C0C0" stroke-width="3.00"/>
<rect shape-type="rectangle" x="660" y="259" width="44" height="26" fill="#4A494A" stroke="#C0C0C0" stroke-width="3.00"/>
<text font-family="宋体" text-anchor="start" fill="#00FF42" shape-type="text" id="" font-size="9.500000" font-weight="bold" x="662" y="275">kPa</text>
<rect shape-type="rectangle" x="603" y="162" width="53" height="26" fill="#4A494A" stroke="#C0C0C0" stroke-width="3.00"/>
<rect shape-type="rectangle" x="656" y="162" width="44" height="26" fill="#4A494A" stroke="#C0C0C0" stroke-width="3.00"/>
<text font-family="宋体" text-anchor="start" fill="#00FF42" shape-type="text" id="" font-size="9.500000" font-weight="bold" x="658" y="178">kPa</text>
<text font-family="Arial" text-anchor="start" fill="#00FFFF" shape-type="realdata" id="XHB_6PPD_PT35120" font-size="12.500000" x="607" y="179">XXXX</text>
<text font-family="Arial" text-anchor="start" fill="#00FFFF" shape-type="realdata" id="XHB_6PPD_PT35119" font-size="12.500000" x="611" y="276">XXXX</text>
<text font-family="Arial" text-anchor="start" fill="#00FFFF" shape-type="realdata" id="XHB_6PPD_PT35118" font-size="12.500000" x="611" y="401">XXXX</text>
<text font-family="Arial" text-anchor="start" fill="#00FFFF" shape-type="realdata" id="XHB_6PPD_PT35117" font-size="12.500000" x="616" y="519">XXXX</text>
<rect shape-type="rectangle" x="434" y="524" width="53" height="26" fill="#4A494A" stroke="#C0C0C0" stroke-width="3.00"/>
<rect shape-type="rectangle" x="487" y="524" width="37" height="26" fill="#4A494A" stroke="#C0C0C0" stroke-width="3.00"/>
<text font-family="宋体" text-anchor="start" fill="#00FF42" shape-type="text" id="" font-size="9.500000" font-weight="bold" x="500" y="540">℃</text>
<text font-family="Arial" text-anchor="start" fill="#00FFFF" shape-type="realdata" id="XHB_6PPD_TE35124" font-size="12.500000" x="438" y="540">XXXX</text>
<rect shape-type="rectangle" x="434" y="486" width="53" height="26" fill="#4A494A" stroke="#C0C0C0" stroke-width="3.00"/>
<rect shape-type="rectangle" x="487" y="486" width="37" height="26" fill="#4A494A" stroke="#C0C0C0" stroke-width="3.00"/>
<text font-family="宋体" text-anchor="start" fill="#00FF42" shape-type="text" id="" font-size="11.000000" font-weight="bold" x="504" y="503">%</text>
<text font-family="Arial" text-anchor="start" fill="#00FFFF" shape-type="realdata" id="XHB_6PPD_LT35112" font-size="12.500000" x="438" y="503">XXXX</text>
<line shape-type="limitline" x1="50" y1="645" x2="50" y2="638" fill="#00FFFF" stroke="#000000" stroke-width="3.00" stroke-dasharray="5 10"/>
<rect shape-type="rectangle" x="3" y="610" width="53" height="26" fill="#4A494A" stroke="#C0C0C0" stroke-width="3.00"/>
<rect shape-type="rectangle" x="56" y="610" width="37" height="26" fill="#4A494A" stroke="#C0C0C0" stroke-width="3.00"/>
<text font-family="宋体" text-anchor="start" fill="#00FF42" shape-type="text" id="" font-size="11.000000" font-weight="bold" x="73" y="627">%</text>
<text font-family="Arial" text-anchor="start" fill="#00FFFF" shape-type="realdata" id="XHB_6PPD_LT35111" font-size="12.500000" x="9" y="627">XXXX</text>
<rect shape-type="rectangle" x="902" y="586" width="53" height="26" fill="#4A494A" stroke="#C0C0C0" stroke-width="3.00"/>
<rect shape-type="rectangle" x="955" y="586" width="37" height="26" fill="#4A494A" stroke="#C0C0C0" stroke-width="3.00"/>
<text font-family="宋体" text-anchor="start" fill="#00FF42" shape-type="text" id="" font-size="11.000000" font-weight="bold" x="972" y="603">%</text>
<text font-family="Arial" text-anchor="start" fill="#00FFFF" shape-type="realdata" id="XHB_6PPD_LT35113" font-size="12.500000" x="907" y="603">XXXX</text>
<rect shape-type="rectangle" x="801" y="420" width="53" height="26" fill="#4A494A" stroke="#C0C0C0" stroke-width="3.00"/>
<rect shape-type="rectangle" x="854" y="420" width="37" height="26" fill="#4A494A" stroke="#C0C0C0" stroke-width="3.00"/>
<text font-family="宋体" text-anchor="start" fill="#00FF42" shape-type="text" id="" font-size="9.500000" font-weight="bold" x="863" y="436">MPa</text>
<text font-family="Arial" text-anchor="start" fill="#00FFFF" shape-type="realdata" id="XHB_6PPD_PC35121A" font-size="12.500000" x="806" y="436">XXXX</text>
<rect shape-type="rectangle" x="796" y="317" width="53" height="26" fill="#4A494A" stroke="#C0C0C0" stroke-width="3.00"/>
<rect shape-type="rectangle" x="849" y="317" width="37" height="26" fill="#4A494A" stroke="#C0C0C0" stroke-width="3.00"/>
<text font-family="宋体" text-anchor="start" fill="#00FF42" shape-type="text" id="" font-size="9.500000" font-weight="bold" x="858" y="333">MPa</text>
<rect shape-type="rectangle" x="791" y="214" width="53" height="26" fill="#4A494A" stroke="#C0C0C0" stroke-width="3.00"/>
<rect shape-type="rectangle" x="844" y="214" width="37" height="26" fill="#4A494A" stroke="#C0C0C0" stroke-width="3.00"/>
<text font-family="宋体" text-anchor="start" fill="#00FF42" shape-type="text" id="" font-size="9.500000" font-weight="bold" x="853" y="230">MPa</text>
<text font-family="Arial" text-anchor="start" fill="#00FFFF" shape-type="realdata" id="XHB_6PPD_PC35136A" font-size="12.500000" x="797" y="232">XXXX</text>
<text font-family="Arial" text-anchor="start" fill="#00FFFF" shape-type="realdata" id="XHB_6PPD_PC35132A" font-size="12.500000" x="802" y="335">XXXX</text>
<rect shape-type="rectangle" x="934" y="425" width="53" height="26" fill="#4A494A" stroke="#C0C0C0" stroke-width="3.00"/>
<rect shape-type="rectangle" x="987" y="425" width="37" height="26" fill="#4A494A" stroke="#C0C0C0" stroke-width="3.00"/>
<text font-family="宋体" text-anchor="start" fill="#00FF42" shape-type="text" id="" font-size="9.500000" font-weight="bold" x="996" y="441">MPa</text>
<text font-family="Arial" text-anchor="start" fill="#00FFFF" shape-type="realdata" id="XHB_6PPD_PT35134" font-size="12.500000" x="938" y="441">XXXX</text>
<rect shape-type="rectangle" x="926" y="211" width="53" height="26" fill="#4A494A" stroke="#C0C0C0" stroke-width="3.00"/>
<rect shape-type="rectangle" x="979" y="211" width="37" height="26" fill="#4A494A" stroke="#C0C0C0" stroke-width="3.00"/>
<text font-family="宋体" text-anchor="start" fill="#00FF42" shape-type="text" id="" font-size="9.500000" font-weight="bold" x="988" y="227">MPa</text>
<text font-family="Arial" text-anchor="start" fill="#00FFFF" shape-type="realdata" id="XHB_6PPD_PT35131" font-size="12.500000" x="929" y="229">XXXX</text>
<rect shape-type="rectangle" x="793" y="124" width="53" height="26" fill="#4A494A" stroke="#C0C0C0" stroke-width="3.00"/>
<rect shape-type="rectangle" x="846" y="124" width="37" height="26" fill="#4A494A" stroke="#C0C0C0" stroke-width="3.00"/>
<text font-family="宋体" text-anchor="start" fill="#00FF42" shape-type="text" id="" font-size="9.500000" font-weight="bold" x="856" y="140">t/h</text>
<rect shape-type="rectangle" x="888" y="124" width="81" height="26" fill="#4A494A" stroke="#C0C0C0" stroke-width="3.00"/>
<rect shape-type="rectangle" x="969" y="124" width="37" height="26" fill="#4A494A" stroke="#C0C0C0" stroke-width="3.00"/>
<text font-family="宋体" text-anchor="start" fill="#00FF42" shape-type="text" id="" font-size="9.500000" font-weight="bold" x="988" y="140">t</text>
<text font-family="Arial" text-anchor="start" fill="#00FFFF" shape-type="realdata" id="XHB_RD_FQ34102" font-size="12.500000" x="893" y="141">XXXX</text>
<text font-family="Arial" text-anchor="start" fill="#00FFFF" shape-type="realdata" id="XHB_RD_FT34102" font-size="12.500000" x="797" y="141">XXXX</text>
<g shape-type="group">
<text font-family="宋体" text-anchor="start" fill="#00FF42" shape-type="text" id="" font-size="11.750000" font-weight="bold" x="326" y="451">m/h</text>
<text font-family="宋体" text-anchor="start" fill="#00FF42" shape-type="text" id="" font-size="11.000000" font-weight="bold" x="338" y="441">3</text>
</g>
</svg>
