<?xml version="1.0"?>
<?xml-stylesheet type='text/javascript'?>
<!--Draw SVG: 2019-11-25 09:41:24 47-Monday-->
<svg xmlns="http://www.w3.org/2000/svg" xmlns:xlink="http://www.w3.org/1999/xlink" version="1.1" style="background-color:#000000" width="1066" height="800" viewbox="0 0 1066 800">
<defs>
<linearGradient x1="0.000000%" y1="50.000000%" x2="100.000000%" y2="50.000000%" id="lgradient25_0">
<stop offset="0" stop-color="#2C2C2C" stop-opacity="1"/>
<stop offset="0.5" stop-color="#FFFFFF" stop-opacity="1"/>
<stop offset="1" stop-color="#2C2C2C" stop-opacity="1"/>
</linearGradient>
<linearGradient x1="0.000000%" y1="50.000000%" x2="100.000000%" y2="50.000000%" id="lgradient26_0">
<stop offset="0" stop-color="#2C2C2C" stop-opacity="1"/>
<stop offset="0.5" stop-color="#FFFFFF" stop-opacity="1"/>
<stop offset="1" stop-color="#2C2C2C" stop-opacity="1"/>
</linearGradient>
<radialGradient cx="50.000000%" cy="50.000000%" r="50.000000%" fx="50.000000%" fy="50.000000%" id="rgradient27_3">
<stop offset="0%" stop-color="#FFFFFF" stop-opacity="1"/>
<stop offset="100%" stop-color="#2C2C2C" stop-opacity="1"/>
</radialGradient>
<radialGradient cx="50.000000%" cy="50.000000%" r="50.000000%" fx="50.000000%" fy="50.000000%" id="rgradient29_3">
<stop offset="0%" stop-color="#FFFFFF" stop-opacity="1"/>
<stop offset="100%" stop-color="#2C2C2C" stop-opacity="1"/>
</radialGradient>
</defs>
<line shape-type="limitline" x1="681" y1="471" x2="618" y2="471" fill="#00FFFF" stroke="#FFFFFF" stroke-width="1.00" stroke-dasharray="5 10"/>
<line shape-type="limitline" x1="348" y1="365" x2="289" y2="365" fill="#00FFFF" stroke="#FFFFFF" stroke-width="1.00" stroke-dasharray="5 10"/>
<rect shape-type="rectangle" x="3" y="1" width="1063" height="43" fill="#9C9A9C" stroke="#C0C0C0" stroke-width="1.00"/>
<rect shape-type="rectangle" x="11" y="6" width="67" height="29" fill="#E7E3E7" stroke="#E7E3E7" stroke-width="1.00"/>
<rect shape-type="rectangle" x="296" y="5" width="496" height="34" fill="#E7E3E7" stroke="#E7E3E7" stroke-width="1.00"/>
<text font-family="宋体" text-anchor="start" fill="#000000" shape-type="text" id="" font-size="12.500000" font-weight="bold" x="28" y="25">G231</text>
<text font-family="宋体" text-anchor="start" fill="#000000" shape-type="text" id="" font-size="26.000000" font-weight="bold" x="448" y="32">液氧泵G231</text>
<line shape-type="limitline" x1="320" y1="497" x2="320" y2="449" fill="#00FFFF" stroke="#FFFF00" stroke-width="3.00"/>
<line shape-type="limitline" x1="310" y1="281" x2="193" y2="281" fill="#00FFFF" stroke="#0080C0" stroke-width="3.00"/>
<line shape-type="limitline" x1="328" y1="275" x2="328" y2="243" fill="#00FFFF" stroke="#0080C0" stroke-width="3.00"/>
<line shape-type="limitline" x1="1003" y1="243" x2="329" y2="243" fill="#00FFFF" stroke="#0080C0" stroke-width="3.00"/>
<line shape-type="limitline" x1="845" y1="383" x2="845" y2="248" fill="#00FFFF" stroke="#0080C0" stroke-width="3.00"/>
<line shape-type="limitline" x1="845" y1="384" x2="661" y2="384" fill="#00FFFF" stroke="#0080C0" stroke-width="3.00"/>
<line shape-type="limitline" x1="660" y1="236" x2="660" y2="123" fill="#00FFFF" stroke="#0080C0" stroke-width="3.00"/>
<line shape-type="limitline" x1="660" y1="123" x2="524" y2="123" fill="#00FFFF" stroke="#0080C0" stroke-width="3.00"/>
<line shape-type="limitline" x1="522" y1="239" x2="522" y2="96" fill="#00FFFF" stroke="#0080C0" stroke-width="3.00"/>
<line shape-type="limitline" x1="810" y1="239" x2="810" y2="101" fill="#00FFFF" stroke="#0080C0" stroke-width="3.00"/>
<line shape-type="limitline" x1="659" y1="404" x2="659" y2="245" fill="#00FFFF" stroke="#0080C0" stroke-width="3.00"/>
<line shape-type="limitline" x1="645" y1="411" x2="528" y2="411" fill="#00FFFF" stroke="#0080C0" stroke-width="3.00"/>
<line shape-type="limitline" x1="638" y1="504" x2="523" y2="504" fill="#00FFFF" stroke="#0080C0" stroke-width="3.00"/>
<line shape-type="limitline" x1="321" y1="350" x2="321" y2="296" fill="#00FFFF" stroke="#9C9A9C" stroke-width="3.00"/>
<line shape-type="limitline" x1="301" y1="397" x2="187" y2="397" fill="#00FFFF" stroke="#0080C0" stroke-width="3.00"/>
<line shape-type="limitline" x1="320" y1="497" x2="320" y2="448" fill="#00FFFF" stroke="#9C9A9C" stroke-width="3.00"/>
<line shape-type="limitline" x1="653" y1="610" x2="653" y2="556" fill="#00FFFF" stroke="#9C9A9C" stroke-width="3.00"/>
<g shape-type="group">
<rect shape-type="rectangle" x="304" y="351" width="32" height="97" fill="url(#lgradient25_0)" stroke="#808080" stroke-width="2.00"/>
<text font-family="宋体" text-anchor="start" fill="#000000" shape-type="text" id="" font-size="12.500000" x="317" y="380">S</text>
<text font-family="宋体" text-anchor="start" fill="#000000" shape-type="text" id="" font-size="12.500000" x="317" y="396">E</text>
<text font-family="宋体" text-anchor="start" fill="#000000" shape-type="text" id="" font-size="12.500000" x="316" y="411">A</text>
<text font-family="宋体" text-anchor="start" fill="#000000" shape-type="text" id="" font-size="12.500000" x="317" y="429">L</text>
</g>
<g shape-type="group">
<rect shape-type="rectangle" x="635" y="458" width="34" height="97" fill="url(#lgradient26_0)" stroke="#808080" stroke-width="2.00"/>
<text font-family="宋体" text-anchor="start" fill="#000000" shape-type="text" id="" font-size="13.250000" x="648" y="488">S</text>
<text font-family="宋体" text-anchor="start" fill="#000000" shape-type="text" id="" font-size="11.750000" x="648" y="503">E</text>
<text font-family="宋体" text-anchor="start" fill="#000000" shape-type="text" id="" font-size="12.500000" x="647" y="518">A</text>
<text font-family="宋体" text-anchor="start" fill="#000000" shape-type="text" id="" font-size="13.250000" x="648" y="537">L</text>
</g>
<g shape-type="group">
<rect shape-type="rectangle" x="326" y="266" width="4" height="16" fill="#808080" stroke="#000000" stroke-width="1.00"/>
<rect shape-type="rectangle" x="326" y="291" width="5" height="5" fill="#808080" stroke="#FFFFFF" stroke-width="2.00"/>
<rect shape-type="rectangle" x="310" y="291" width="6" height="5" fill="#808080" stroke="#FFFFFF" stroke-width="2.00"/>
<ellipse shape-type="ellipse" cx="321" cy="282" rx="13" ry="13" fill="url(#rgradient27_3)" stroke="#000000" stroke-width="1.00"/>
</g>
<g shape-type="group">
<path shape-type="chord" d="M 915,231 A 13,20 0 0,0 894,231 z" fill="#C0C0C0" stroke="#C0C0C0" stroke-width="2.00"/>
<g shape-type="group">
<polygon shape-type="trapezium" points="893,236 893,247 903,242 903,242 893,236" fill="#C0C0C0" stroke="#C0C0C0" stroke-width="1.00"/>
<polygon shape-type="trapezium" points="914,236 914,247 902,242 902,242 914,236" fill="#C0C0C0" stroke="#C0C0C0" stroke-width="1.00"/>
</g>
<line shape-type="limitline" x1="903" y1="230" x2="902" y2="238" fill="#00FFFF" stroke="#C0C0C0" stroke-width="1.00"/>
<polygon shape-type="trapezium" points="907,233 899,233 903,242 903,242 907,233" fill="#C0C0C0" stroke="#C0C0C0" stroke-width="1.00"/>
</g>
<g shape-type="group">
<rect shape-type="rectangle" x="658" y="402" width="5" height="17" fill="#808080" stroke="#000000" stroke-width="1.00"/>
<rect shape-type="rectangle" x="658" y="427" width="6" height="5" fill="#808080" stroke="#FFFFFF" stroke-width="2.00"/>
<rect shape-type="rectangle" x="643" y="427" width="5" height="5" fill="#808080" stroke="#FFFFFF" stroke-width="2.00"/>
<ellipse shape-type="ellipse" cx="653" cy="417" rx="13" ry="13" fill="url(#rgradient29_3)" stroke="#000000" stroke-width="1.00"/>
</g>
<g shape-type="group">
<path shape-type="chord" d="M 671,305 A 20,12 0 1,0 671,285 z" fill="#C0C0C0" stroke="#C0C0C0" stroke-width="2.00"/>
<g shape-type="group">
<polygon shape-type="trapezium" points="654,284 665,284 659,294 659,294 654,284" fill="#C0C0C0" stroke="#C0C0C0" stroke-width="1.00"/>
<polygon shape-type="trapezium" points="654,304 665,304 659,294 659,294 654,304" fill="#C0C0C0" stroke="#C0C0C0" stroke-width="1.00"/>
</g>
<line shape-type="limitline" x1="671" y1="294" x2="663" y2="295" fill="#00FFFF" stroke="#C0C0C0" stroke-width="1.00"/>
<polygon shape-type="trapezium" points="668,291 668,298 658,295 658,295 668,291" fill="#C0C0C0" stroke="#C0C0C0" stroke-width="1.00"/>
</g>
<g shape-type="group">
<path shape-type="chord" d="M 799,149 A 20,13 0 1,0 799,170 z" fill="#C0C0C0" stroke="#C0C0C0" stroke-width="2.00"/>
<g shape-type="group">
<polygon shape-type="trapezium" points="815,148 804,148 810,158 810,158 815,148" fill="#C0C0C0" stroke="#C0C0C0" stroke-width="1.00"/>
<polygon shape-type="trapezium" points="815,169 804,169 810,157 810,157 815,169" fill="#C0C0C0" stroke="#C0C0C0" stroke-width="1.00"/>
</g>
<line shape-type="limitline" x1="798" y1="157" x2="806" y2="158" fill="#00FFFF" stroke="#C0C0C0" stroke-width="1.00"/>
<polygon shape-type="trapezium" points="801,154 801,163 810,159 810,159 801,154" fill="#C0C0C0" stroke="#C0C0C0" stroke-width="1.00"/>
</g>
<g shape-type="group">
<path shape-type="chord" d="M 511,157 A 20,13 0 1,0 511,178 z" fill="#C0C0C0" stroke="#C0C0C0" stroke-width="2.00"/>
<g shape-type="group">
<polygon shape-type="trapezium" points="527,156 517,156 522,167 522,167 527,156" fill="#C0C0C0" stroke="#C0C0C0" stroke-width="1.00"/>
<polygon shape-type="trapezium" points="527,177 517,177 522,166 522,166 527,177" fill="#C0C0C0" stroke="#C0C0C0" stroke-width="1.00"/>
</g>
<line shape-type="limitline" x1="510" y1="166" x2="518" y2="167" fill="#00FFFF" stroke="#C0C0C0" stroke-width="1.00"/>
<polygon shape-type="trapezium" points="514,163 514,171 522,167 522,167 514,163" fill="#C0C0C0" stroke="#C0C0C0" stroke-width="1.00"/>
</g>
<g shape-type="group">
<polygon shape-type="trapezium" points="176,288 176,273 189,280 189,280 176,288" fill="#808080" stroke="#808080" stroke-width="2.00"/>
<rect shape-type="rectangle" x="168" y="276" width="11" height="8" fill="#808080" stroke="#808080" stroke-width="2.00"/>
</g>
<g shape-type="group">
<polygon shape-type="trapezium" points="1005,249 1005,235 1018,242 1018,242 1005,249" fill="#808080" stroke="#808080" stroke-width="2.00"/>
<rect shape-type="rectangle" x="997" y="239" width="11" height="7" fill="#808080" stroke="#808080" stroke-width="2.00"/>
</g>
<g shape-type="group">
<polygon shape-type="trapezium" points="804,91 816,91 810,80 810,80 804,91" fill="#808080" stroke="#808080" stroke-width="2.00"/>
<rect shape-type="rectangle" x="806" y="88" width="7" height="12" fill="#808080" stroke="#808080" stroke-width="2.00"/>
</g>
<g shape-type="group">
<polygon shape-type="trapezium" points="516,90 528,90 522,79 522,79 516,90" fill="#808080" stroke="#808080" stroke-width="2.00"/>
<rect shape-type="rectangle" x="519" y="87" width="6" height="12" fill="#808080" stroke="#808080" stroke-width="2.00"/>
</g>
<polygon shape-type="trapezium" points="255,284 255,276 267,280 267,280 255,284" fill="#0080C0" stroke="#0080C0" stroke-width="2.00"/>
<polygon shape-type="trapezium" points="290,401 290,393 302,397 302,397 290,401" fill="#0080C0" stroke="#0080C0" stroke-width="2.00"/>
<polygon shape-type="trapezium" points="593,415 593,407 605,411 605,411 593,415" fill="#0080C0" stroke="#0080C0" stroke-width="2.00"/>
<polygon shape-type="trapezium" points="620,508 620,500 632,504 632,504 620,508" fill="#0080C0" stroke="#0080C0" stroke-width="2.00"/>
<polygon shape-type="trapezium" points="438,246 438,238 450,242 450,242 438,246" fill="#0080C0" stroke="#0080C0" stroke-width="2.00"/>
<polygon shape-type="trapezium" points="840,255 849,255 844,245 844,245 840,255" fill="#0080C0" stroke="#0080C0" stroke-width="2.00"/>
<polygon shape-type="trapezium" points="655,337 664,337 659,327 659,327 655,337" fill="#0080C0" stroke="#0080C0" stroke-width="2.00"/>
<rect shape-type="rectangle" x="265" y="500" width="125" height="96" fill="#808080" stroke="#000000" stroke-width="3.00"/>
<rect shape-type="rectangle" x="609" y="611" width="125" height="96" fill="#808080" stroke="#000000" stroke-width="3.00"/>
<text font-family="宋体" text-anchor="start" fill="#FFFFFF" shape-type="text" id="" font-size="12.500000" x="169" y="264">LOX</text>
<text font-family="宋体" text-anchor="start" fill="#FFFFFF" shape-type="text" id="" font-size="12.500000" x="132" y="284">DIST</text>
<text font-family="宋体" text-anchor="start" fill="#FFFFFF" shape-type="text" id="" font-size="12.500000" x="342" y="291">G231A</text>
<text font-family="宋体" text-anchor="start" fill="#FFFFFF" shape-type="text" id="" font-size="12.500000" x="504" y="67">DIST</text>
<text font-family="宋体" text-anchor="start" fill="#FFFFFF" shape-type="text" id="" font-size="12.500000" x="796" y="73">C212</text>
<text font-family="宋体" text-anchor="start" fill="#FFFFFF" shape-type="text" id="" font-size="12.500000" x="1002" y="225">HP GOX</text>
<text font-family="宋体" text-anchor="start" fill="#FFFFFF" shape-type="text" id="" font-size="12.500000" x="1022" y="245">E202</text>
<text font-family="宋体" text-anchor="start" fill="#FFFFFF" shape-type="text" id="" font-size="12.500000" x="453" y="508">SEAL GAS</text>
<text font-family="宋体" text-anchor="start" fill="#FFFFFF" shape-type="text" id="" font-size="12.500000" x="505" y="394">LOX</text>
<text font-family="宋体" text-anchor="start" fill="#FFFFFF" shape-type="text" id="" font-size="12.500000" x="469" y="412">DIST</text>
<text font-family="宋体" text-anchor="start" fill="#000000" shape-type="text" id="" font-size="16.250000" font-weight="bold" x="316" y="549">M</text>
<text font-family="宋体" text-anchor="start" fill="#000000" shape-type="text" id="" font-size="12.500000" font-weight="bold" x="305" y="572">G231A</text>
<text font-family="宋体" text-anchor="start" fill="#000000" shape-type="text" id="" font-size="16.250000" font-weight="bold" x="661" y="662">M</text>
<text font-family="宋体" text-anchor="start" fill="#000000" shape-type="text" id="" font-size="12.500000" font-weight="bold" x="650" y="685">G231B</text>
<rect shape-type="rectangle" x="286" y="604" width="49" height="22" fill="#4A494A" stroke="#C0C0C0" stroke-width="3.00"/>
<rect shape-type="rectangle" x="335" y="604" width="36" height="22" fill="#4A494A" stroke="#C0C0C0" stroke-width="3.00"/>
<text font-family="宋体" text-anchor="start" fill="#00FF42" shape-type="text" id="" font-size="11.000000" font-weight="bold" x="340" y="619">AMPS</text>
<rect shape-type="rectangle" x="349" y="202" width="58" height="22" fill="#4A494A" stroke="#C0C0C0" stroke-width="3.00"/>
<rect shape-type="rectangle" x="407" y="202" width="29" height="22" fill="#4A494A" stroke="#C0C0C0" stroke-width="3.00"/>
<text font-family="宋体" text-anchor="start" fill="#00FF42" shape-type="text" id="" font-size="11.000000" font-weight="bold" x="412" y="217">DEG</text>
<rect shape-type="rectangle" x="632" y="718" width="49" height="22" fill="#4A494A" stroke="#C0C0C0" stroke-width="3.00"/>
<rect shape-type="rectangle" x="681" y="718" width="36" height="22" fill="#4A494A" stroke="#C0C0C0" stroke-width="3.00"/>
<text font-family="宋体" text-anchor="start" fill="#00FF42" shape-type="text" id="" font-size="11.000000" font-weight="bold" x="686" y="733">AMPS</text>
<text font-family="宋体" text-anchor="start" fill="#FFFFFF" shape-type="text" id="" font-size="12.500000" x="673" y="409">G231B</text>
<line shape-type="limitline" x1="653" y1="432" x2="653" y2="457" fill="#00FFFF" stroke="#9C9A9C" stroke-width="3.00"/>
<text font-family="宋体" text-anchor="start" fill="#FFFFFF" shape-type="text" id="" font-size="12.500000" x="119" y="399">SEAL GAS</text>
<line shape-type="limitline" x1="386" y1="240" x2="386" y2="220" fill="#00FFFF" stroke="#FFFFFF" stroke-width="1.00" stroke-dasharray="5 10"/>
<line shape-type="limitline" x1="629" y1="325" x2="629" y2="394" fill="#00FFFF" stroke="#FFFFFF" stroke-width="1.00" stroke-dasharray="5 10"/>
<line shape-type="limitline" x1="657" y1="393" x2="629" y2="393" fill="#00FFFF" stroke="#FFFFFF" stroke-width="1.00" stroke-dasharray="5 10"/>
<line shape-type="limitline" x1="629" y1="354" x2="617" y2="354" fill="#00FFFF" stroke="#FFFFFF" stroke-width="1.00" stroke-dasharray="5 10"/>
<line shape-type="limitline" x1="472" y1="244" x2="472" y2="188" fill="#00FFFF" stroke="#FFFFFF" stroke-width="1.00" stroke-dasharray="5 10"/>
<text font-family="宋体" text-anchor="start" fill="#00FF42" shape-type="text" id="" font-size="11.000000" font-weight="bold" x="457" y="181">KPA</text>
<text font-family="宋体" text-anchor="start" fill="#00FF42" shape-type="text" id="" font-size="11.000000" font-weight="bold" x="605" y="318">KPA</text>
<text font-family="宋体" text-anchor="start" fill="#FFFFFF" shape-type="text" id="" font-size="12.500000" x="535" y="172">PV2317A</text>
<text font-family="宋体" text-anchor="start" fill="#FFFFFF" shape-type="text" id="" font-size="12.500000" x="688" y="300">PV2317B</text>
<text font-family="宋体" text-anchor="start" fill="#FFFFFF" shape-type="text" id="" font-size="12.500000" x="735" y="162">HV2057</text>
<text font-family="宋体" text-anchor="start" fill="#FFFFFF" shape-type="text" id="" font-size="12.500000" x="880" y="267">PV2045</text>
<rect shape-type="rectangle" x="-1" y="747" width="1069" height="64" fill="#BDBABD" stroke="#BDBABD" stroke-width="1.00"/>
<g shape-type="group">
<rect shape-type="rectangle" x="996" y="759" width="48" height="43" fill="#C6C3C6" stroke="#C6C3C6" stroke-width="1.00"/>
<polygon shape-type="trapezium" points="1013,791 1013,771 1031,781 1031,781 1013,791" fill="#4A494A" stroke="#C6C3C6" stroke-width="2.00"/>
</g>
<g shape-type="group">
<rect shape-type="rectangle" x="11" y="759" width="48" height="40" fill="#C6C3C6" stroke="#C6C3C6" stroke-width="1.00"/>
<polygon shape-type="trapezium" points="40,787 40,768 21,777 21,777 40,787" fill="#4A494A" stroke="#C6C3C6" stroke-width="2.00"/>
</g>
<a xlink:href="mac.svg">
<g shape-type="button">
<rect fill="#C0C0C0" stroke-width="0.3" stroke="#FFFFFF" x="77" y="756" width="92" height="43" shape-type="buttonrect"/>
<text font-family="宋体" text-anchor="middle" dominant-baseline="middle" fill="#000000" font-size="13.500000" x="123" y="783" shape-type="buttontext">MAC</text>
</g>
</a>
<a xlink:href="tsa.svg">
<g shape-type="button">
<rect fill="#C0C0C0" stroke-width="0.3" stroke="#FFFFFF" x="182" y="756" width="92" height="43" shape-type="buttonrect"/>
<text font-family="宋体" text-anchor="middle" dominant-baseline="middle" fill="#000000" font-size="13.500000" x="228" y="783" shape-type="buttontext">TSA</text>
</g>
</a>
<a xlink:href="dist.svg">
<g shape-type="button">
<rect fill="#C0C0C0" stroke-width="0.3" stroke="#FFFFFF" x="288" y="756" width="92" height="43" shape-type="buttonrect"/>
<text font-family="宋体" text-anchor="middle" dominant-baseline="middle" fill="#000000" font-size="13.500000" x="334" y="783" shape-type="buttontext">DIST</text>
</g>
</a>
<a xlink:href="E222.svg">
<g shape-type="button">
<rect fill="#C0C0C0" stroke-width="0.3" stroke="#FFFFFF" x="395" y="756" width="91" height="43" shape-type="buttonrect"/>
<text font-family="宋体" text-anchor="middle" dominant-baseline="middle" fill="#000000" font-size="13.500000" x="441" y="783" shape-type="buttontext">E222</text>
</g>
</a>
<a xlink:href="g232.svg">
<g shape-type="button">
<rect fill="#C0C0C0" stroke-width="0.3" stroke="#FFFFFF" x="502" y="756" width="92" height="43" shape-type="buttonrect"/>
<text font-family="宋体" text-anchor="middle" dominant-baseline="middle" fill="#000000" font-size="13.500000" x="548" y="783" shape-type="buttontext">G232</text>
</g>
</a>
<a xlink:href="e202.svg">
<g shape-type="button">
<rect fill="#C0C0C0" stroke-width="0.3" stroke="#FFFFFF" x="609" y="756" width="92" height="43" shape-type="buttonrect"/>
<text font-family="宋体" text-anchor="middle" dominant-baseline="middle" fill="#000000" font-size="13.500000" x="655" y="783" shape-type="buttontext">E202</text>
</g>
</a>
<a xlink:href="GAN.svg">
<g shape-type="button">
<rect fill="#C0C0C0" stroke-width="0.3" stroke="#FFFFFF" x="717" y="756" width="92" height="43" shape-type="buttonrect"/>
<text font-family="宋体" text-anchor="middle" dominant-baseline="middle" fill="#000000" font-size="13.500000" x="763" y="783" shape-type="buttontext">GAN</text>
</g>
</a>
<a xlink:href="e204.svg">
<g shape-type="button">
<rect fill="#C0C0C0" stroke-width="0.3" stroke="#FFFFFF" x="830" y="756" width="92" height="43" shape-type="buttonrect"/>
<text font-family="宋体" text-anchor="middle" dominant-baseline="middle" fill="#000000" font-size="13.500000" x="876" y="783" shape-type="buttontext">E204</text>
</g>
</a>
<rect shape-type="rectangle" x="376" y="141" width="112" height="24" fill="#7B7D7B" stroke="#C0C0C0" stroke-width="3.00"/>
<rect shape-type="rectangle" x="376" y="165" width="71" height="24" fill="#4A494A" stroke="#C0C0C0" stroke-width="3.00"/>
<text font-family="宋体" text-anchor="start" fill="#FFFFFF" shape-type="text" id="" font-size="11.000000" font-weight="bold" x="394" y="157">9PIC2317A</text>
<rect shape-type="rectangle" x="447" y="165" width="41" height="24" fill="#4A494A" stroke="#C0C0C0" stroke-width="3.00"/>
<rect shape-type="rectangle" x="527" y="279" width="109" height="23" fill="#7B7D7B" stroke="#C0C0C0" stroke-width="3.00"/>
<rect shape-type="rectangle" x="527" y="302" width="70" height="24" fill="#4A494A" stroke="#C0C0C0" stroke-width="3.00"/>
<text font-family="宋体" text-anchor="start" fill="#FFFFFF" shape-type="text" id="" font-size="11.000000" font-weight="bold" x="546" y="294">9PIC2317B</text>
<rect shape-type="rectangle" x="597" y="302" width="39" height="24" fill="#4A494A" stroke="#C0C0C0" stroke-width="3.00"/>
<text font-family="宋体" text-anchor="start" fill="#00FF42" shape-type="text" id="" font-size="11.000000" font-weight="bold" x="457" y="180">KPA</text>
<text font-family="宋体" text-anchor="start" fill="#00FF42" shape-type="text" id="" font-size="11.000000" font-weight="bold" x="608" y="317">KPA</text>
<rect shape-type="rectangle" x="213" y="354" width="50" height="21" fill="#4A494A" stroke="#C0C0C0" stroke-width="3.00"/>
<rect shape-type="rectangle" x="263" y="354" width="28" height="21" fill="#4A494A" stroke="#C0C0C0" stroke-width="3.00"/>
<text font-family="宋体" text-anchor="start" fill="#00FF42" shape-type="text" id="" font-size="11.000000" font-weight="bold" x="267" y="368">DEG</text>
<rect shape-type="rectangle" x="349" y="354" width="49" height="21" fill="#4A494A" stroke="#C0C0C0" stroke-width="3.00"/>
<rect shape-type="rectangle" x="398" y="354" width="29" height="21" fill="#4A494A" stroke="#C0C0C0" stroke-width="3.00"/>
<text font-family="宋体" text-anchor="start" fill="#00FF42" shape-type="text" id="" font-size="10.250000" font-weight="bold" x="403" y="367">DEG</text>
<rect shape-type="rectangle" x="527" y="344" width="62" height="22" fill="#4A494A" stroke="#C0C0C0" stroke-width="3.00"/>
<rect shape-type="rectangle" x="589" y="344" width="28" height="22" fill="#4A494A" stroke="#C0C0C0" stroke-width="3.00"/>
<text font-family="宋体" text-anchor="start" fill="#00FF42" shape-type="text" id="" font-size="11.750000" font-weight="bold" x="593" y="359">DEG</text>
<rect shape-type="rectangle" x="542" y="459" width="49" height="22" fill="#4A494A" stroke="#C0C0C0" stroke-width="3.00"/>
<rect shape-type="rectangle" x="591" y="459" width="29" height="22" fill="#4A494A" stroke="#C0C0C0" stroke-width="3.00"/>
<text font-family="宋体" text-anchor="start" fill="#00FF42" shape-type="text" id="" font-size="11.000000" font-weight="bold" x="596" y="474">DEG</text>
<rect shape-type="rectangle" x="680" y="459" width="49" height="24" fill="#4A494A" stroke="#C0C0C0" stroke-width="3.00"/>
<rect shape-type="rectangle" x="729" y="459" width="29" height="24" fill="#4A494A" stroke="#C0C0C0" stroke-width="3.00"/>
<text font-family="宋体" text-anchor="start" fill="#00FF42" shape-type="text" id="" font-size="11.750000" font-weight="bold" x="734" y="474">DEG</text>
<text font-family="Arial" text-anchor="start" fill="#00FFFF" shape-type="realdata" id="HCAB_KF_9TI2320A1" font-size="12.500000" x="219" y="369">XXXX</text>
<text font-family="Arial" text-anchor="start" fill="#00FFFF" shape-type="realdata" id="HCAB_KF_9TI2320A2" font-size="12.500000" x="355" y="368">XXXX</text>
<text font-family="Arial" text-anchor="start" fill="#00FFFF" shape-type="realdata" id="HCAB_KF_9II2322A1" font-size="12.500000" x="292" y="619">XXXX</text>
<text font-family="Arial" text-anchor="start" fill="#00FFFF" shape-type="realdata" id="HCAB_KF_9TT2316A" font-size="12.500000" x="355" y="217">XXXX</text>
<text font-family="Arial" text-anchor="start" fill="#00FFFF" shape-type="realdata" id="HCAB_KF_9TT2316B" font-size="12.500000" x="534" y="360">XXXX</text>
<text font-family="Arial" text-anchor="start" fill="#00FFFF" shape-type="realdata" id="HCAB_KF_9PIC2317A" font-size="12.500000" x="381" y="182">XXXX</text>
<text font-family="Arial" text-anchor="start" fill="#00FFFF" shape-type="realdata" id="HCAB_KF_9PIC2317B" font-size="12.500000" x="534" y="318">XXXX</text>
<text font-family="Arial" text-anchor="start" fill="#00FFFF" shape-type="realdata" id="HCAB_KF_9TI2320B1" font-size="12.500000" x="546" y="474">XXXX</text>
<text font-family="Arial" text-anchor="start" fill="#00FFFF" shape-type="realdata" id="HCAB_KF_9TI2320B2" font-size="12.500000" x="685" y="475">XXXX</text>
<text font-family="Arial" text-anchor="start" fill="#00FFFF" shape-type="realdata" id="HCAB_KF_9II2322B1" font-size="12.500000" x="637" y="732">XXXX</text>
<a xlink:href="700_ML.svg">
<g shape-type="button">
<rect fill="#C0C0C0" stroke-width="0.3" stroke="#FFFFFF" x="961" y="6" width="98" height="30" shape-type="buttonrect"/>
<text font-family="宋体" text-anchor="middle" dominant-baseline="middle" fill="#800000" font-size="13.500000" font-weight="bold" x="1010" y="27" shape-type="buttontext">返回上一级</text>
</g>
</a>
<text font-family="Arial" text-anchor="start" fill="#00FFFF" shape-type="realdata" id="HCAB_KF_9PIC2317A.OP" font-size="12.500000" x="535" y="194">XXXX</text>
<text font-family="宋体" text-anchor="start" fill="#00FF42" shape-type="text" id="" font-size="11.000000" font-weight="bold" x="599" y="196">%</text>
<text font-family="Arial" text-anchor="start" fill="#00FFFF" shape-type="realdata" id="HCAB_KF_9PIC2317B.OP" font-size="12.500000" x="693" y="324">XXXX</text>
<text font-family="宋体" text-anchor="start" fill="#00FF42" shape-type="text" id="" font-size="11.000000" font-weight="bold" x="754" y="324">%</text>
</svg>
