<?xml version="1.0"?>
<?xml-stylesheet type='text/javascript'?>
<!--Draw SVG: 2019-11-25 09:41:24 47-Monday-->
<svg xmlns="http://www.w3.org/2000/svg" xmlns:xlink="http://www.w3.org/1999/xlink" version="1.1" style="background-color:#000000" width="1066" height="800" viewbox="0 0 1066 800">
<defs>
<linearGradient x1="0.000000%" y1="50.000000%" x2="100.000000%" y2="50.000000%" id="lgradient37">
<stop offset="0" stop-color="#2C2C2C" stop-opacity="1"/>
<stop offset="0.5" stop-color="#FFFFFF" stop-opacity="1"/>
<stop offset="1" stop-color="#2C2C2C" stop-opacity="1"/>
</linearGradient>
<radialGradient cx="50.000000%" cy="50.000000%" r="50.000000%" fx="50.000000%" fy="50.000000%" id="rgradient38_3">
<stop offset="0%" stop-color="#FFFFFF" stop-opacity="1"/>
<stop offset="100%" stop-color="#2C2C2C" stop-opacity="1"/>
</radialGradient>
<radialGradient cx="50.000000%" cy="50.000000%" r="50.000000%" fx="50.000000%" fy="50.000000%" id="rgradient39_3">
<stop offset="0%" stop-color="#FFFFFF" stop-opacity="1"/>
<stop offset="100%" stop-color="#2C2C2C" stop-opacity="1"/>
</radialGradient>
</defs>
<line shape-type="limitline" x1="308" y1="369" x2="265" y2="369" fill="#00FFFF" stroke="#FFFFFF" stroke-width="1.00" stroke-dasharray="5 10"/>
<line shape-type="limitline" x1="500" y1="525" x2="542" y2="525" fill="#00FFFF" stroke="#FFFFFF" stroke-width="1.00" stroke-dasharray="5 10"/>
<rect shape-type="rectangle" x="1" y="1" width="1064" height="41" fill="#9C9A9C" stroke="#C0C0C0" stroke-width="1.00"/>
<rect shape-type="rectangle" x="10" y="6" width="67" height="30" fill="#E7E3E7" stroke="#E7E3E7" stroke-width="1.00"/>
<rect shape-type="rectangle" x="296" y="5" width="497" height="31" fill="#E7E3E7" stroke="#E7E3E7" stroke-width="1.00"/>
<text font-family="宋体" text-anchor="start" fill="#000000" shape-type="text" id="" font-size="12.500000" font-weight="bold" x="25" y="27">G232</text>
<text font-family="宋体" text-anchor="start" fill="#000000" shape-type="text" id="" font-size="26.000000" font-weight="bold" x="443" y="31">液氮泵G232</text>
<line shape-type="limitline" x1="472" y1="299" x2="472" y2="116" fill="#BD6500" stroke="#BD6500" stroke-width="3.00"/>
<line shape-type="limitline" x1="143" y1="198" x2="71" y2="198" fill="#BD6500" stroke="#BD6500" stroke-width="3.00"/>
<line shape-type="limitline" x1="157" y1="306" x2="157" y2="251" fill="#BD6500" stroke="#BD6500" stroke-width="3.00"/>
<line shape-type="limitline" x1="276" y1="307" x2="157" y2="307" fill="#BD6500" stroke="#BD6500" stroke-width="3.00"/>
<line shape-type="limitline" x1="942" y1="299" x2="293" y2="299" fill="#BD6500" stroke="#BD6500" stroke-width="3.00"/>
<line shape-type="limitline" x1="992" y1="297" x2="961" y2="297" fill="#BD6500" stroke="#BD6500" stroke-width="3.00"/>
<line shape-type="limitline" x1="990" y1="297" x2="990" y2="208" fill="#BD6500" stroke="#BD6500" stroke-width="3.00"/>
<line shape-type="limitline" x1="991" y1="208" x2="966" y2="208" fill="#BD6500" stroke="#BD6500" stroke-width="3.00"/>
<line shape-type="limitline" x1="869" y1="522" x2="869" y2="299" fill="#BD6500" stroke="#BD6500" stroke-width="3.00"/>
<line shape-type="limitline" x1="969" y1="522" x2="870" y2="522" fill="#BD6500" stroke="#BD6500" stroke-width="3.00"/>
<line shape-type="limitline" x1="969" y1="632" x2="969" y2="522" fill="#BD6500" stroke="#BD6500" stroke-width="3.00"/>
<line shape-type="limitline" x1="970" y1="630" x2="928" y2="630" fill="#BD6500" stroke="#BD6500" stroke-width="3.00"/>
<line shape-type="limitline" x1="655" y1="453" x2="655" y2="304" fill="#BD6500" stroke="#BD6500" stroke-width="3.00"/>
<line shape-type="limitline" x1="769" y1="454" x2="769" y2="300" fill="#BD6500" stroke="#BD6500" stroke-width="3.00"/>
<line shape-type="limitline" x1="769" y1="453" x2="530" y2="453" fill="#BD6500" stroke="#BD6500" stroke-width="3.00"/>
<line shape-type="limitline" x1="522" y1="515" x2="522" y2="480" fill="#BD6500" stroke="#BD6500" stroke-width="3.00"/>
<line shape-type="limitline" x1="509" y1="465" x2="430" y2="465" fill="#BD6500" stroke="#BD6500" stroke-width="3.00"/>
<line shape-type="limitline" x1="522" y1="596" x2="522" y2="564" fill="#BD6500" stroke="#BD6500" stroke-width="3.00"/>
<line shape-type="limitline" x1="511" y1="559" x2="425" y2="559" fill="#BD6500" stroke="#BD6500" stroke-width="3.00"/>
<line shape-type="limitline" x1="476" y1="148" x2="476" y2="115" fill="#BD6500" stroke="#BD6500" stroke-width="3.00"/>
<line shape-type="limitline" x1="674" y1="147" x2="477" y2="147" fill="#BD6500" stroke="#BD6500" stroke-width="3.00"/>
<line shape-type="limitline" x1="674" y1="274" x2="674" y2="147" fill="#BD6500" stroke="#BD6500" stroke-width="3.00"/>
<line shape-type="limitline" x1="779" y1="277" x2="674" y2="277" fill="#BD6500" stroke="#BD6500" stroke-width="3.00"/>
<line shape-type="limitline" x1="780" y1="297" x2="780" y2="277" fill="#BD6500" stroke="#BD6500" stroke-width="3.00"/>
<line shape-type="limitline" x1="655" y1="288" x2="655" y2="174" fill="#BD6500" stroke="#BD6500" stroke-width="3.00"/>
<line shape-type="limitline" x1="654" y1="174" x2="472" y2="174" fill="#BD6500" stroke="#BD6500" stroke-width="3.00"/>
<line shape-type="limitline" x1="286" y1="357" x2="286" y2="324" fill="#BD6500" stroke="#BD6500" stroke-width="3.00"/>
<line shape-type="limitline" x1="286" y1="453" x2="286" y2="409" fill="#BD6500" stroke="#BD6500" stroke-width="3.00"/>
<line shape-type="limitline" x1="280" y1="400" x2="172" y2="400" fill="#BD6500" stroke="#BD6500" stroke-width="3.00"/>
<rect shape-type="roundRectangle" rx="20" ry="20" x="143" y="172" width="30" height="79" fill="url(#lgradient37)" stroke="#808080" stroke-width="2.00"/>
<g shape-type="group">
<rect shape-type="rectangle" x="291" y="298" width="4" height="16" fill="#808080" stroke="#000000" stroke-width="1.00"/>
<rect shape-type="rectangle" x="291" y="322" width="5" height="5" fill="#808080" stroke="#FFFFFF" stroke-width="2.00"/>
<rect shape-type="rectangle" x="274" y="322" width="5" height="5" fill="#808080" stroke="#FFFFFF" stroke-width="2.00"/>
<ellipse shape-type="ellipse" cx="285" cy="313" rx="14" ry="13" fill="url(#rgradient38_3)" stroke="#000000" stroke-width="1.00"/>
</g>
<g shape-type="group">
<rect shape-type="rectangle" x="528" y="453" width="4" height="17" fill="#808080" stroke="#000000" stroke-width="1.00"/>
<rect shape-type="rectangle" x="528" y="477" width="5" height="5" fill="#808080" stroke="#FFFFFF" stroke-width="2.00"/>
<rect shape-type="rectangle" x="511" y="477" width="6" height="5" fill="#808080" stroke="#FFFFFF" stroke-width="2.00"/>
<ellipse shape-type="ellipse" cx="522" cy="468" rx="14" ry="13" fill="url(#rgradient39_3)" stroke="#000000" stroke-width="1.00"/>
</g>
<g shape-type="group">
<path shape-type="chord" d="M 815,289 A 14,19 0 0,0 792,289 z" fill="#C0C0C0" stroke="#C0C0C0" stroke-width="2.00"/>
<g shape-type="group">
<polygon shape-type="trapezium" points="791,294 791,303 802,299 802,299 791,294" fill="#C0C0C0" stroke="#C0C0C0" stroke-width="1.00"/>
<polygon shape-type="trapezium" points="814,294 814,303 801,299 801,299 814,294" fill="#C0C0C0" stroke="#C0C0C0" stroke-width="1.00"/>
</g>
<line shape-type="limitline" x1="802" y1="288" x2="801" y2="296" fill="#00FFFF" stroke="#C0C0C0" stroke-width="1.00"/>
<polygon shape-type="trapezium" points="806,291 798,291 802,299 802,299 806,291" fill="#C0C0C0" stroke="#C0C0C0" stroke-width="1.00"/>
</g>
<g shape-type="group">
<path shape-type="chord" d="M 481,224 A 18,13 0 1,0 481,202 z" fill="#C0C0C0" stroke="#C0C0C0" stroke-width="2.00"/>
<g shape-type="group">
<polygon shape-type="trapezium" points="466,201 475,201 470,211 470,211 466,201" fill="#C0C0C0" stroke="#C0C0C0" stroke-width="1.00"/>
<polygon shape-type="trapezium" points="466,223 475,223 470,211 470,211 466,223" fill="#C0C0C0" stroke="#C0C0C0" stroke-width="1.00"/>
</g>
<line shape-type="limitline" x1="481" y1="211" x2="474" y2="212" fill="#00FFFF" stroke="#C0C0C0" stroke-width="1.00"/>
<polygon shape-type="trapezium" points="478,208 478,216 470,212 470,212 478,208" fill="#C0C0C0" stroke="#C0C0C0" stroke-width="1.00"/>
</g>
<g shape-type="group">
<path shape-type="chord" d="M 880,384 A 19,13 0 1,0 880,362 z" fill="#C0C0C0" stroke="#C0C0C0" stroke-width="2.00"/>
<g shape-type="group">
<polygon shape-type="trapezium" points="865,361 874,361 869,372 869,372 865,361" fill="#C0C0C0" stroke="#C0C0C0" stroke-width="1.00"/>
<polygon shape-type="trapezium" points="865,383 874,383 869,372 869,372 865,383" fill="#C0C0C0" stroke="#C0C0C0" stroke-width="1.00"/>
</g>
<line shape-type="limitline" x1="879" y1="372" x2="872" y2="373" fill="#00FFFF" stroke="#C0C0C0" stroke-width="1.00"/>
<polygon shape-type="trapezium" points="877,369 877,376 869,373 869,373 877,369" fill="#C0C0C0" stroke="#C0C0C0" stroke-width="1.00"/>
</g>
<g shape-type="group">
<path shape-type="chord" d="M 664,420 A 18,13 0 1,0 664,398 z" fill="#C0C0C0" stroke="#C0C0C0" stroke-width="2.00"/>
<g shape-type="group">
<polygon shape-type="trapezium" points="649,397 658,397 653,407 653,407 649,397" fill="#C0C0C0" stroke="#C0C0C0" stroke-width="1.00"/>
<polygon shape-type="trapezium" points="649,419 658,419 653,407 653,407 649,419" fill="#C0C0C0" stroke="#C0C0C0" stroke-width="1.00"/>
</g>
<line shape-type="limitline" x1="665" y1="407" x2="657" y2="408" fill="#00FFFF" stroke="#C0C0C0" stroke-width="1.00"/>
<polygon shape-type="trapezium" points="661,404 661,411 653,408 653,408 661,404" fill="#C0C0C0" stroke="#C0C0C0" stroke-width="1.00"/>
</g>
<polygon shape-type="trapezium" points="130,201 130,194 142,197 142,197 130,201" fill="#BD6500" stroke="#BD6500" stroke-width="2.00"/>
<g shape-type="group">
<polygon shape-type="trapezium" points="56,205 56,189 67,197 67,197 56,205" fill="#808080" stroke="#808080" stroke-width="2.00"/>
<rect shape-type="rectangle" x="45" y="193" width="11" height="8" fill="#808080" stroke="#808080" stroke-width="2.00"/>
</g>
<g shape-type="group">
<polygon shape-type="trapezium" points="419,470 419,455 429,462 429,462 419,470" fill="#808080" stroke="#808080" stroke-width="2.00"/>
<rect shape-type="rectangle" x="407" y="458" width="12" height="9" fill="#808080" stroke="#808080" stroke-width="2.00"/>
</g>
<g shape-type="group">
<polygon shape-type="trapezium" points="935,530 935,514 946,522 946,522 935,530" fill="#808080" stroke="#808080" stroke-width="2.00"/>
<rect shape-type="rectangle" x="924" y="518" width="11" height="8" fill="#808080" stroke="#808080" stroke-width="2.00"/>
</g>
<g shape-type="group">
<polygon shape-type="trapezium" points="954,306 954,291 965,298 965,298 954,306" fill="#808080" stroke="#808080" stroke-width="2.00"/>
<rect shape-type="rectangle" x="943" y="294" width="11" height="8" fill="#808080" stroke="#808080" stroke-width="2.00"/>
</g>
<g shape-type="group">
<polygon shape-type="trapezium" points="920,637 920,623 909,630 909,630 920,637" fill="#808080" stroke="#808080" stroke-width="2.00"/>
<rect shape-type="rectangle" x="920" y="626" width="11" height="8" fill="#808080" stroke="#808080" stroke-width="2.00"/>
</g>
<g shape-type="group">
<polygon shape-type="trapezium" points="950,217 950,202 940,209 940,209 950,217" fill="#808080" stroke="#808080" stroke-width="2.00"/>
<rect shape-type="rectangle" x="950" y="205" width="13" height="9" fill="#808080" stroke="#808080" stroke-width="2.00"/>
</g>
<g shape-type="group">
<polygon shape-type="trapezium" points="467,103 481,103 474,94 474,94 467,103" fill="#808080" stroke="#808080" stroke-width="2.00"/>
<rect shape-type="rectangle" x="470" y="103" width="8" height="11" fill="#808080" stroke="#808080" stroke-width="2.00"/>
</g>
<polygon shape-type="trapezium" points="181,403 181,396 193,399 193,399 181,403" fill="#BD6500" stroke="#BD6500" stroke-width="2.00"/>
<polygon shape-type="trapezium" points="247,310 247,303 259,306 259,306 247,310" fill="#BD6500" stroke="#BD6500" stroke-width="2.00"/>
<polygon shape-type="trapezium" points="441,302 441,295 453,298 453,298 441,302" fill="#BD6500" stroke="#BD6500" stroke-width="2.00"/>
<polygon shape-type="trapezium" points="639,456 639,449 651,452 651,452 639,456" fill="#BD6500" stroke="#BD6500" stroke-width="2.00"/>
<polygon shape-type="trapezium" points="487,467 487,460 499,463 499,463 487,467" fill="#BD6500" stroke="#BD6500" stroke-width="2.00"/>
<polygon shape-type="trapezium" points="488,562 488,555 500,558 500,558 488,562" fill="#BD6500" stroke="#BD6500" stroke-width="2.00"/>
<polygon shape-type="trapezium" points="525,493 518,493 522,503 522,503 525,493" fill="#BD6500" stroke="#BD6500" stroke-width="2.00"/>
<polygon shape-type="trapezium" points="525,577 518,577 522,587 522,587 525,577" fill="#BD6500" stroke="#BD6500" stroke-width="2.00"/>
<polygon shape-type="trapezium" points="289,429 282,429 286,439 286,439 289,429" fill="#BD6500" stroke="#BD6500" stroke-width="2.00"/>
<polygon shape-type="trapezium" points="289,341 282,341 286,351 286,351 289,341" fill="#BD6500" stroke="#BD6500" stroke-width="2.00"/>
<polygon shape-type="trapezium" points="658,190 651,190 655,180 655,180 658,190" fill="#BD6500" stroke="#BD6500" stroke-width="2.00"/>
<polygon shape-type="trapezium" points="677,163 670,163 674,153 674,153 677,163" fill="#BD6500" stroke="#BD6500" stroke-width="2.00"/>
<polygon shape-type="trapezium" points="772,341 765,341 769,331 769,331 772,341" fill="#BD6500" stroke="#BD6500" stroke-width="2.00"/>
<ellipse shape-type="ellipse" cx="289" cy="493" rx="62" ry="38" fill="#808080" stroke="#808080" stroke-width="3.00"/>
<ellipse shape-type="ellipse" cx="523" cy="637" rx="62" ry="38" fill="#808080" stroke="#808080" stroke-width="3.00"/>
<text font-family="宋体" text-anchor="start" fill="#000000" shape-type="text" id="" font-size="9.500000" font-weight="bold" x="145" y="204">C216</text>
<text font-family="宋体" text-anchor="start" fill="#FFFFFF" shape-type="text" id="" font-size="9.500000" x="86" y="187">LIN</text>
<text font-family="宋体" text-anchor="start" fill="#FFFFFF" shape-type="text" id="" font-size="9.500000" x="42" y="219">DIST</text>
<text font-family="宋体" text-anchor="start" fill="#FFFFFF" shape-type="text" id="" font-size="9.500000" x="127" y="392">SEAL GAS</text>
<text font-family="宋体" text-anchor="start" fill="#FFFFFF" shape-type="text" id="" font-size="9.500000" x="378" y="466">C218</text>
<text font-family="宋体" text-anchor="start" fill="#FFFFFF" shape-type="text" id="" font-size="9.500000" x="444" y="453">LIN</text>
<text font-family="宋体" text-anchor="start" fill="#FFFFFF" shape-type="text" id="" font-size="9.500000" x="490" y="110">DIST</text>
<text font-family="宋体" text-anchor="start" fill="#FFFFFF" shape-type="text" id="" font-size="9.500000" x="943" y="232">GAN</text>
<text font-family="宋体" text-anchor="start" fill="#FFFFFF" shape-type="text" id="" font-size="9.500000" x="994" y="254">HP LIN</text>
<text font-family="宋体" text-anchor="start" fill="#FFFFFF" shape-type="text" id="" font-size="9.500000" x="943" y="322">E204</text>
<text font-family="宋体" text-anchor="start" fill="#FFFFFF" shape-type="text" id="" font-size="9.500000" x="926" y="598">MP LIN</text>
<text font-family="宋体" text-anchor="start" fill="#FFFFFF" shape-type="text" id="" font-size="9.500000" x="925" y="544">E204</text>
<text font-family="宋体" text-anchor="start" fill="#FFFFFF" shape-type="text" id="" font-size="9.500000" x="378" y="551">SEAL GAS</text>
<text font-family="宋体" text-anchor="start" fill="#FFFFFF" shape-type="text" id="" font-size="9.500000" x="306" y="314">G232A</text>
<text font-family="宋体" text-anchor="start" fill="#FFFFFF" shape-type="text" id="" font-size="9.500000" x="913" y="654">GAN</text>
<text font-family="宋体" text-anchor="start" fill="#FFFFFF" shape-type="text" id="" font-size="9.500000" x="545" y="476">G232B</text>
<rect shape-type="rectangle" x="308" y="264" width="57" height="20" fill="#4A494A" stroke="#C0C0C0" stroke-width="3.00"/>
<rect shape-type="rectangle" x="365" y="264" width="29" height="20" fill="#4A494A" stroke="#C0C0C0" stroke-width="3.00"/>
<text font-family="宋体" text-anchor="start" fill="#00FF42" shape-type="text" id="" font-size="8.000000" font-weight="bold" x="369" y="277">DEG</text>
<rect shape-type="rectangle" x="190" y="359" width="48" height="23" fill="#4A494A" stroke="#C0C0C0" stroke-width="3.00"/>
<rect shape-type="rectangle" x="238" y="359" width="28" height="23" fill="#4A494A" stroke="#C0C0C0" stroke-width="3.00"/>
<text font-family="宋体" text-anchor="start" fill="#00FF42" shape-type="text" id="" font-size="9.500000" font-weight="bold" x="242" y="374">DEG</text>
<rect shape-type="rectangle" x="307" y="360" width="48" height="23" fill="#4A494A" stroke="#C0C0C0" stroke-width="3.00"/>
<rect shape-type="rectangle" x="355" y="360" width="28" height="23" fill="#4A494A" stroke="#C0C0C0" stroke-width="3.00"/>
<text font-family="宋体" text-anchor="start" fill="#00FF42" shape-type="text" id="" font-size="9.500000" font-weight="bold" x="359" y="375">DEG</text>
<rect shape-type="rectangle" x="251" y="545" width="48" height="23" fill="#4A494A" stroke="#C0C0C0" stroke-width="3.00"/>
<rect shape-type="rectangle" x="299" y="545" width="33" height="23" fill="#4A494A" stroke="#C0C0C0" stroke-width="3.00"/>
<text font-family="宋体" text-anchor="start" fill="#00FF42" shape-type="text" id="" font-size="9.500000" font-weight="bold" x="304" y="560">APMS</text>
<rect shape-type="rectangle" x="426" y="514" width="48" height="23" fill="#4A494A" stroke="#C0C0C0" stroke-width="3.00"/>
<rect shape-type="rectangle" x="474" y="514" width="28" height="23" fill="#4A494A" stroke="#C0C0C0" stroke-width="3.00"/>
<text font-family="宋体" text-anchor="start" fill="#00FF42" shape-type="text" id="" font-size="9.500000" font-weight="bold" x="478" y="529">DEG</text>
<rect shape-type="rectangle" x="543" y="515" width="48" height="23" fill="#4A494A" stroke="#C0C0C0" stroke-width="3.00"/>
<rect shape-type="rectangle" x="591" y="515" width="28" height="23" fill="#4A494A" stroke="#C0C0C0" stroke-width="3.00"/>
<text font-family="宋体" text-anchor="start" fill="#00FF42" shape-type="text" id="" font-size="9.500000" font-weight="bold" x="595" y="530">DEG</text>
<rect shape-type="rectangle" x="486" y="690" width="48" height="23" fill="#4A494A" stroke="#C0C0C0" stroke-width="3.00"/>
<rect shape-type="rectangle" x="534" y="690" width="33" height="23" fill="#4A494A" stroke="#C0C0C0" stroke-width="3.00"/>
<text font-family="宋体" text-anchor="start" fill="#00FF42" shape-type="text" id="" font-size="9.500000" font-weight="bold" x="537" y="705">APMS</text>
<g shape-type="group">
<rect shape-type="rectangle" x="278" y="359" width="18" height="52" fill="#218200" stroke="#218200" stroke-width="3.00"/>
<text font-family="宋体" text-anchor="start" fill="#000000" shape-type="text" id="" font-size="9.500000" x="284" y="370">S</text>
<text font-family="宋体" text-anchor="start" fill="#000000" shape-type="text" id="" font-size="9.500000" x="284" y="382">E</text>
<text font-family="宋体" text-anchor="start" fill="#000000" shape-type="text" id="" font-size="9.500000" x="284" y="394">A</text>
<text font-family="宋体" text-anchor="start" fill="#000000" shape-type="text" id="" font-size="9.500000" x="284" y="407">L</text>
</g>
<rect shape-type="rectangle" x="525" y="329" width="91" height="22" fill="#7B7D7B" stroke="#C0C0C0" stroke-width="3.00"/>
<rect shape-type="rectangle" x="525" y="351" width="57" height="23" fill="#4A494A" stroke="#C0C0C0" stroke-width="3.00"/>
<text font-family="宋体" text-anchor="start" fill="#FFFFFF" shape-type="text" id="" font-size="11.000000" font-weight="bold" x="538" y="343">9PIC2032B</text>
<rect shape-type="rectangle" x="581" y="351" width="35" height="23" fill="#4A494A" stroke="#C0C0C0" stroke-width="3.00"/>
<text font-family="宋体" text-anchor="start" fill="#000000" shape-type="text" id="" font-size="16.250000" font-weight="bold" x="280" y="500">M</text>
<text font-family="宋体" text-anchor="start" fill="#000000" shape-type="text" id="" font-size="12.500000" x="267" y="517">G232A</text>
<text font-family="宋体" text-anchor="start" fill="#000000" shape-type="text" id="" font-size="16.250000" font-weight="bold" x="514" y="643">M</text>
<text font-family="宋体" text-anchor="start" fill="#000000" shape-type="text" id="" font-size="12.500000" x="501" y="662">G232B</text>
<rect shape-type="rectangle" x="514" y="514" width="18" height="52" fill="#218200" stroke="#218200" stroke-width="3.00"/>
<text font-family="宋体" text-anchor="start" fill="#000000" shape-type="text" id="" font-size="8.750000" x="520" y="524">S</text>
<text font-family="宋体" text-anchor="start" fill="#000000" shape-type="text" id="" font-size="10.250000" x="521" y="537">E</text>
<text font-family="宋体" text-anchor="start" fill="#000000" shape-type="text" id="" font-size="8.750000" x="520" y="548">A</text>
<text font-family="宋体" text-anchor="start" fill="#000000" shape-type="text" id="" font-size="10.250000" x="521" y="562">L</text>
<g shape-type="group">
<rect shape-type="rectangle" x="684" y="213" width="9" height="17" fill="#C0C0C0" stroke="#C0C0C0" stroke-width="1.00"/>
<g shape-type="group">
<polygon shape-type="trapezium" points="670,212 679,212 674,221 674,221 670,212" fill="#C0C0C0" stroke="#C0C0C0" stroke-width="1.00"/>
<polygon shape-type="trapezium" points="670,231 679,231 674,220 674,220 670,231" fill="#C0C0C0" stroke="#C0C0C0" stroke-width="1.00"/>
</g>
<g shape-type="group">
<line shape-type="limitline" x1="684" y1="219" x2="676" y2="220" fill="#C0C0C0" stroke="#C0C0C0" stroke-width="1.00"/>
<polygon shape-type="trapezium" points="680,215 680,226 676,221 676,221 680,215" fill="#C0C0C0" stroke="#C0C0C0" stroke-width="1.00"/>
</g>
</g>
<line shape-type="limitline" x1="351" y1="297" x2="351" y2="283" fill="#00FFFF" stroke="#FFFFFF" stroke-width="1.00" stroke-dasharray="5 10"/>
<line shape-type="limitline" x1="594" y1="452" x2="594" y2="440" fill="#00FFFF" stroke="#FFFFFF" stroke-width="1.00" stroke-dasharray="5 10"/>
<line shape-type="limitline" x1="615" y1="355" x2="636" y2="355" fill="#00FFFF" stroke="#FFFFFF" stroke-width="1.00" stroke-dasharray="5 10"/>
<line shape-type="limitline" x1="635" y1="449" x2="635" y2="353" fill="#00FFFF" stroke="#FFFFFF" stroke-width="1.00" stroke-dasharray="5 10"/>
<line shape-type="limitline" x1="414" y1="297" x2="414" y2="231" fill="#00FFFF" stroke="#FFFFFF" stroke-width="1.00" stroke-dasharray="5 10"/>
<text font-family="宋体" text-anchor="start" fill="#FFFFFF" shape-type="text" id="" font-size="9.500000" x="497" y="217">PV2302A</text>
<text font-family="宋体" text-anchor="start" fill="#FFFFFF" shape-type="text" id="" font-size="9.500000" x="679" y="414">PV2302B</text>
<rect shape-type="rectangle" x="538" y="418" width="64" height="23" fill="#4A494A" stroke="#C0C0C0" stroke-width="3.00"/>
<rect shape-type="rectangle" x="602" y="418" width="29" height="23" fill="#4A494A" stroke="#C0C0C0" stroke-width="3.00"/>
<text font-family="宋体" text-anchor="start" fill="#00FF42" shape-type="text" id="" font-size="10.250000" font-weight="bold" x="606" y="433">DEG</text>
<text font-family="宋体" text-anchor="start" fill="#00FF42" shape-type="text" id="" font-size="10.250000" font-weight="bold" x="588" y="367">KPA</text>
<text font-family="宋体" text-anchor="start" fill="#00FF42" shape-type="text" id="" font-size="10.250000" font-weight="bold" x="419" y="226">KPA</text>
<text font-family="宋体" text-anchor="start" fill="#FFFFFF" shape-type="text" id="" font-size="9.500000" x="787" y="322">PV2033</text>
<text font-family="宋体" text-anchor="start" fill="#FFFFFF" shape-type="text" id="" font-size="9.500000" x="823" y="378">PV2026</text>
<rect shape-type="rectangle" x="0" y="742" width="1069" height="63" fill="#BDBABD" stroke="#BDBABD" stroke-width="1.00"/>
<g shape-type="group">
<rect shape-type="rectangle" x="997" y="754" width="48" height="43" fill="#C6C3C6" stroke="#C6C3C6" stroke-width="1.00"/>
<polygon shape-type="trapezium" points="1014,785 1014,766 1032,775 1032,775 1014,785" fill="#4A494A" stroke="#C6C3C6" stroke-width="2.00"/>
</g>
<g shape-type="group">
<rect shape-type="rectangle" x="13" y="754" width="47" height="40" fill="#C6C3C6" stroke="#C6C3C6" stroke-width="1.00"/>
<polygon shape-type="trapezium" points="41,782 41,762 22,772 22,772 41,782" fill="#4A494A" stroke="#C6C3C6" stroke-width="2.00"/>
</g>
<a xlink:href="mac.svg">
<g shape-type="button">
<rect fill="#C0C0C0" stroke-width="0.3" stroke="#FFFFFF" x="78" y="751" width="92" height="43" shape-type="buttonrect"/>
<text font-family="宋体" text-anchor="middle" dominant-baseline="middle" fill="#000000" font-size="13.500000" x="124" y="778" shape-type="buttontext">MAC</text>
</g>
</a>
<a xlink:href="tsa.svg">
<g shape-type="button">
<rect fill="#C0C0C0" stroke-width="0.3" stroke="#FFFFFF" x="183" y="751" width="92" height="43" shape-type="buttonrect"/>
<text font-family="宋体" text-anchor="middle" dominant-baseline="middle" fill="#000000" font-size="13.500000" x="229" y="778" shape-type="buttontext">TSA</text>
</g>
</a>
<a xlink:href="dist.svg">
<g shape-type="button">
<rect fill="#C0C0C0" stroke-width="0.3" stroke="#FFFFFF" x="289" y="751" width="92" height="43" shape-type="buttonrect"/>
<text font-family="宋体" text-anchor="middle" dominant-baseline="middle" fill="#000000" font-size="13.500000" x="335" y="778" shape-type="buttontext">DIST</text>
</g>
</a>
<a xlink:href="E222.svg">
<g shape-type="button">
<rect fill="#C0C0C0" stroke-width="0.3" stroke="#FFFFFF" x="396" y="751" width="92" height="43" shape-type="buttonrect"/>
<text font-family="宋体" text-anchor="middle" dominant-baseline="middle" fill="#000000" font-size="13.500000" x="442" y="778" shape-type="buttontext">E222</text>
</g>
</a>
<a xlink:href="g231.svg">
<g shape-type="button">
<rect fill="#C0C0C0" stroke-width="0.3" stroke="#FFFFFF" x="503" y="751" width="92" height="43" shape-type="buttonrect"/>
<text font-family="宋体" text-anchor="middle" dominant-baseline="middle" fill="#000000" font-size="13.500000" x="549" y="778" shape-type="buttontext">G231</text>
</g>
</a>
<a xlink:href="e202.svg">
<g shape-type="button">
<rect fill="#C0C0C0" stroke-width="0.3" stroke="#FFFFFF" x="610" y="751" width="92" height="43" shape-type="buttonrect"/>
<text font-family="宋体" text-anchor="middle" dominant-baseline="middle" fill="#000000" font-size="13.500000" x="656" y="778" shape-type="buttontext">E202</text>
</g>
</a>
<a xlink:href="GAN.svg">
<g shape-type="button">
<rect fill="#C0C0C0" stroke-width="0.3" stroke="#FFFFFF" x="718" y="751" width="92" height="43" shape-type="buttonrect"/>
<text font-family="宋体" text-anchor="middle" dominant-baseline="middle" fill="#000000" font-size="13.500000" x="764" y="778" shape-type="buttontext">GAN</text>
</g>
</a>
<a xlink:href="e204.svg">
<g shape-type="button">
<rect fill="#C0C0C0" stroke-width="0.3" stroke="#FFFFFF" x="831" y="751" width="92" height="43" shape-type="buttonrect"/>
<text font-family="宋体" text-anchor="middle" dominant-baseline="middle" fill="#000000" font-size="13.500000" x="877" y="778" shape-type="buttontext">E204</text>
</g>
</a>
<rect shape-type="rectangle" x="353" y="188" width="91" height="21" fill="#7B7D7B" stroke="#C0C0C0" stroke-width="3.00"/>
<rect shape-type="rectangle" x="353" y="209" width="57" height="23" fill="#4A494A" stroke="#C0C0C0" stroke-width="3.00"/>
<text font-family="宋体" text-anchor="start" fill="#FFFFFF" shape-type="text" id="" font-size="10.250000" font-weight="bold" x="361" y="201">9PIC2032A</text>
<rect shape-type="rectangle" x="409" y="209" width="35" height="23" fill="#4A494A" stroke="#C0C0C0" stroke-width="3.00"/>
<text font-family="Arial" text-anchor="start" fill="#00FFFF" shape-type="realdata" id="HCAB_KF_9TI2310A1" font-size="12.500000" x="196" y="375">XXXX</text>
<text font-family="Arial" text-anchor="start" fill="#00FFFF" shape-type="realdata" id="HCAB_KF_9TI2310A2" font-size="12.500000" x="313" y="376">XXXX</text>
<text font-family="Arial" text-anchor="start" fill="#00FFFF" shape-type="realdata" id="HCAB_KF_9II2311A1" font-size="12.500000" x="256" y="561">XXXX</text>
<text font-family="Arial" text-anchor="start" fill="#00FFFF" shape-type="realdata" id="HCAB_KF_9II2311B1" font-size="12.500000" x="492" y="707">XXXX</text>
<text font-family="Arial" text-anchor="start" fill="#00FFFF" shape-type="realdata" id="HCAB_KF_9TT2301A" font-size="12.500000" x="316" y="279">XXXX</text>
<text font-family="Arial" text-anchor="start" fill="#00FFFF" shape-type="realdata" id="HCAB_KF_9PIC2302A" font-size="12.500000" x="360" y="226">XXXX</text>
<text font-family="宋体" text-anchor="start" fill="#00FF42" shape-type="text" id="" font-size="10.250000" font-weight="bold" x="417" y="226">KPA</text>
<text font-family="Arial" text-anchor="start" fill="#00FFFF" shape-type="realdata" id="HCAB_KF_9PIC2302B" font-size="12.500000" x="531" y="368">XXXX</text>
<text font-family="Arial" text-anchor="start" fill="#00FFFF" shape-type="realdata" id="HCAB_KF_9TT2301B" font-size="12.500000" x="546" y="434">XXXX</text>
<text font-family="Arial" text-anchor="start" fill="#00FFFF" shape-type="realdata" id="HCAB_KF_9TI2310B1" font-size="12.500000" x="433" y="530">XXXX</text>
<text font-family="Arial" text-anchor="start" fill="#00FFFF" shape-type="realdata" id="HCAB_KF_9TI2310B2" font-size="12.500000" x="548" y="531">XXXX</text>
<a xlink:href="700_ML.svg">
<g shape-type="button">
<rect fill="#C0C0C0" stroke-width="0.3" stroke="#FFFFFF" x="960" y="5" width="98" height="31" shape-type="buttonrect"/>
<text font-family="宋体" text-anchor="middle" dominant-baseline="middle" fill="#800000" font-size="13.500000" font-weight="bold" x="1009" y="27" shape-type="buttontext">返回上一级</text>
</g>
</a>
<text font-family="Arial" text-anchor="start" fill="#00FFFF" shape-type="realdata" id="HCAB_KF_9PIC2302A.OP" font-size="12.500000" x="489" y="246">XXXX</text>
<text font-family="宋体" text-anchor="start" fill="#00FF42" shape-type="text" id="" font-size="10.250000" font-weight="bold" x="558" y="245">%</text>
<text font-family="Arial" text-anchor="start" fill="#00FFFF" shape-type="realdata" id="HCAB_KF_9PIC2302B.OP" font-size="12.500000" x="679" y="390">XXXX</text>
<text font-family="宋体" text-anchor="start" fill="#00FF42" shape-type="text" id="" font-size="10.250000" font-weight="bold" x="747" y="389">%</text>
</svg>
