<?xml version="1.0"?>
<?xml-stylesheet type='text/javascript'?>
<!--Draw SVG: 2019-11-25 09:41:24 47-Monday-->
<svg xmlns="http://www.w3.org/2000/svg" xmlns:xlink="http://www.w3.org/1999/xlink" version="1.1" style="background-color:#000000" width="1066" height="800" viewbox="0 0 1066 800">
<defs>
<radialGradient cx="50.000000%" cy="50.000000%" r="50.000000%" fx="50.000000%" fy="50.000000%" id="rgradient2">
<stop offset="0%" stop-color="#FFFFFF" stop-opacity="1"/>
<stop offset="100%" stop-color="#2C2C2C" stop-opacity="1"/>
</radialGradient>
<radialGradient cx="50.000000%" cy="50.000000%" r="50.000000%" fx="50.000000%" fy="50.000000%" id="rgradient3">
<stop offset="0%" stop-color="#FFFFFF" stop-opacity="1"/>
<stop offset="100%" stop-color="#2C2C2C" stop-opacity="1"/>
</radialGradient>
<linearGradient x1="0.000000%" y1="50.000000%" x2="100.000000%" y2="50.000000%" id="lgradient19">
<stop offset="0" stop-color="#2C2C2C" stop-opacity="1"/>
<stop offset="0.5" stop-color="#FFFFFF" stop-opacity="1"/>
<stop offset="1" stop-color="#2C2C2C" stop-opacity="1"/>
</linearGradient>
<linearGradient x1="0.000000%" y1="50.000000%" x2="100.000000%" y2="50.000000%" id="lgradient21">
<stop offset="0" stop-color="#2C2C2C" stop-opacity="1"/>
<stop offset="0.5" stop-color="#FFFFFF" stop-opacity="1"/>
<stop offset="1" stop-color="#2C2C2C" stop-opacity="1"/>
</linearGradient>
</defs>
<line shape-type="limitline" x1="1011" y1="365" x2="43" y2="365" fill="#BDE7FF" stroke="#BDE7FF" stroke-width="3.00"/>
<ellipse shape-type="ellipse" cx="688" cy="365" rx="30" ry="30" fill="url(#rgradient2)" stroke="#C0C0C0" stroke-width="2.00"/>
<ellipse shape-type="ellipse" cx="395" cy="365" rx="29" ry="29" fill="url(#rgradient3)" stroke="#C0C0C0" stroke-width="2.00"/>
<polygon shape-type="trapezium" points="236,323 236,403 306,384 306,342 236,323" fill="#000084" stroke="#000084" stroke-width="2.00"/>
<rect shape-type="rectangle" x="1" y="1" width="1066" height="44" fill="#9C9A9C" stroke="#C0C0C0" stroke-width="1.00"/>
<rect shape-type="rectangle" x="295" y="4" width="498" height="37" fill="#E7E3E7" stroke="#E7E3E7" stroke-width="1.00"/>
<rect shape-type="rectangle" x="11" y="7" width="63" height="27" fill="#E7E3E7" stroke="#E7E3E7" stroke-width="1.00"/>
<text font-family="宋体" text-anchor="start" fill="#000000" shape-type="text" id="" font-size="12.500000" font-weight="bold" x="26" y="25">K131</text>
<text font-family="宋体" text-anchor="start" fill="#000000" shape-type="text" id="" font-size="26.750000" font-weight="bold" x="417" y="32">增 压 机 K131</text>
<line shape-type="limitline" x1="140" y1="363" x2="140" y2="185" fill="#BDE7FF" stroke="#BDE7FF" stroke-width="3.00"/>
<line shape-type="limitline" x1="871" y1="185" x2="140" y2="185" fill="#BDE7FF" stroke="#BDE7FF" stroke-width="3.00"/>
<line shape-type="limitline" x1="871" y1="362" x2="871" y2="186" fill="#BDE7FF" stroke="#BDE7FF" stroke-width="3.00"/>
<line shape-type="limitline" x1="908" y1="363" x2="908" y2="260" fill="#BDE7FF" stroke="#BDE7FF" stroke-width="3.00"/>
<line shape-type="limitline" x1="1017" y1="261" x2="909" y2="261" fill="#BDE7FF" stroke="#BDE7FF" stroke-width="3.00"/>
<line shape-type="limitline" x1="456" y1="615" x2="456" y2="367" fill="#BDE7FF" stroke="#BDE7FF" stroke-width="3.00"/>
<line shape-type="limitline" x1="611" y1="614" x2="611" y2="492" fill="#BDE7FF" stroke="#BDE7FF" stroke-width="3.00"/>
<line shape-type="limitline" x1="926" y1="493" x2="614" y2="493" fill="#BDE7FF" stroke="#BDE7FF" stroke-width="3.00"/>
<line shape-type="limitline" x1="928" y1="616" x2="455" y2="616" fill="#BDE7FF" stroke="#BDE7FF" stroke-width="3.00"/>
<polygon shape-type="trapezium" points="238,326 238,400 305,383 305,343 238,326" fill="url(#lgradient19)" stroke="#C0C0C0" stroke-width="2.00"/>
<polygon shape-type="trapezium" points="506,323 506,403 576,384 576,342 506,323" fill="#000084" stroke="#000084" stroke-width="2.00"/>
<polygon shape-type="trapezium" points="507,326 507,400 575,383 575,343 507,326" fill="url(#lgradient21)" stroke="#C0C0C0" stroke-width="2.00"/>
<line shape-type="limitline" x1="380" y1="399" x2="380" y2="350" fill="#00FFFF" stroke="#393C39" stroke-width="3.00"/>
<line shape-type="limitline" x1="413" y1="399" x2="413" y2="351" fill="#00FFFF" stroke="#393C39" stroke-width="3.00"/>
<line shape-type="limitline" x1="674" y1="397" x2="674" y2="354" fill="#00FFFF" stroke="#393C39" stroke-width="3.00"/>
<line shape-type="limitline" x1="704" y1="396" x2="704" y2="354" fill="#00FFFF" stroke="#393C39" stroke-width="3.00"/>
<line shape-type="line" x1="398" y1="363" x2="380" y2="350" fill="#00FFFF" stroke="#393C39" stroke-width="3.00"/>
<line shape-type="line" x1="411" y1="351" x2="398" y2="362" fill="#00FFFF" stroke="#393C39" stroke-width="3.00"/>
<line shape-type="line" x1="690" y1="364" x2="674" y2="353" fill="#00FFFF" stroke="#393C39" stroke-width="3.00"/>
<line shape-type="line" x1="704" y1="355" x2="690" y2="364" fill="#00FFFF" stroke="#393C39" stroke-width="3.00"/>
<polygon shape-type="trapezium" points="142,341 136,341 139,353 139,353 142,341" fill="#BDE7FF" stroke="#BDE7FF" stroke-width="2.00"/>
<g shape-type="group">
<path shape-type="chord" d="M 113,353 A 14,20 0 0,0 89,353 z" fill="#C0C0C0" stroke="#C0C0C0" stroke-width="2.00"/>
<g shape-type="group">
<polygon shape-type="trapezium" points="89,358 89,369 100,364 100,364 89,358" fill="#C0C0C0" stroke="#C0C0C0" stroke-width="1.00"/>
<polygon shape-type="trapezium" points="111,358 111,369 99,364 99,364 111,358" fill="#C0C0C0" stroke="#C0C0C0" stroke-width="1.00"/>
</g>
<line shape-type="limitline" x1="100" y1="352" x2="99" y2="360" fill="#00FFFF" stroke="#C0C0C0" stroke-width="1.00"/>
<polygon shape-type="trapezium" points="104,355 96,355 100,364 100,364 104,355" fill="#C0C0C0" stroke="#C0C0C0" stroke-width="1.00"/>
</g>
<g shape-type="group">
<path shape-type="chord" d="M 712,176 A 14,20 0 0,0 688,176 z" fill="#C0C0C0" stroke="#C0C0C0" stroke-width="2.00"/>
<g shape-type="group">
<polygon shape-type="trapezium" points="688,181 688,192 699,187 699,187 688,181" fill="#C0C0C0" stroke="#C0C0C0" stroke-width="1.00"/>
<polygon shape-type="trapezium" points="710,181 710,192 698,187 698,187 710,181" fill="#C0C0C0" stroke="#C0C0C0" stroke-width="1.00"/>
</g>
<line shape-type="limitline" x1="699" y1="175" x2="698" y2="183" fill="#00FFFF" stroke="#C0C0C0" stroke-width="1.00"/>
<polygon shape-type="trapezium" points="703,178 695,178 699,187 699,187 703,178" fill="#C0C0C0" stroke="#C0C0C0" stroke-width="1.00"/>
</g>
<g shape-type="group">
<path shape-type="chord" d="M 728,606 A 14,19 0 0,0 704,606 z" fill="#C0C0C0" stroke="#C0C0C0" stroke-width="2.00"/>
<g shape-type="group">
<polygon shape-type="trapezium" points="703,611 703,622 715,617 715,617 703,611" fill="#C0C0C0" stroke="#C0C0C0" stroke-width="1.00"/>
<polygon shape-type="trapezium" points="727,611 727,622 715,617 715,617 727,611" fill="#C0C0C0" stroke="#C0C0C0" stroke-width="1.00"/>
</g>
<line shape-type="limitline" x1="716" y1="605" x2="715" y2="612" fill="#00FFFF" stroke="#C0C0C0" stroke-width="1.00"/>
<polygon shape-type="trapezium" points="720,608 710,608 715,617 715,617 720,608" fill="#C0C0C0" stroke="#C0C0C0" stroke-width="1.00"/>
</g>
<g shape-type="group">
<path shape-type="chord" d="M 601,540 A 20,15 0 1,0 601,564 z" fill="#C0C0C0" stroke="#C0C0C0" stroke-width="2.00"/>
<g shape-type="group">
<polygon shape-type="trapezium" points="617,562 606,562 612,550 612,550 617,562" fill="#C0C0C0" stroke="#C0C0C0" stroke-width="1.00"/>
<polygon shape-type="trapezium" points="617,538 606,538 612,550 612,550 617,538" fill="#C0C0C0" stroke="#C0C0C0" stroke-width="1.00"/>
</g>
<line shape-type="limitline" x1="600" y1="552" x2="608" y2="553" fill="#00FFFF" stroke="#C0C0C0" stroke-width="1.00"/>
<polygon shape-type="trapezium" points="603,556 603,547 613,551 613,551 603,556" fill="#C0C0C0" stroke="#C0C0C0" stroke-width="1.00"/>
</g>
<g shape-type="group">
<polygon shape-type="trapezium" points="26,371 26,355 40,363 40,363 26,371" fill="#808080" stroke="#808080" stroke-width="2.00"/>
<rect shape-type="rectangle" x="18" y="359" width="12" height="9" fill="#808080" stroke="#808080" stroke-width="2.00"/>
</g>
<g shape-type="group">
<polygon shape-type="trapezium" points="1030,270 1030,254 1044,262 1044,262 1030,270" fill="#808080" stroke="#808080" stroke-width="2.00"/>
<rect shape-type="rectangle" x="1022" y="258" width="12" height="9" fill="#808080" stroke="#808080" stroke-width="2.00"/>
</g>
<g shape-type="group">
<polygon shape-type="trapezium" points="1025,373 1025,357 1039,365 1039,365 1025,373" fill="#808080" stroke="#808080" stroke-width="2.00"/>
<rect shape-type="rectangle" x="1017" y="361" width="12" height="9" fill="#808080" stroke="#808080" stroke-width="2.00"/>
</g>
<polygon shape-type="trapezium" points="1000,367 1000,360 1015,363 1015,363 1000,367" fill="#BDE7FF" stroke="#BDE7FF" stroke-width="2.00"/>
<polygon shape-type="trapezium" points="1005,264 1005,257 1020,260 1020,260 1005,264" fill="#BDE7FF" stroke="#BDE7FF" stroke-width="2.00"/>
<polygon shape-type="trapezium" points="917,496 917,489 932,492 932,492 917,496" fill="#BDE7FF" stroke="#BDE7FF" stroke-width="2.00"/>
<polygon shape-type="trapezium" points="919,618 919,611 934,614 934,614 919,618" fill="#BDE7FF" stroke="#BDE7FF" stroke-width="2.00"/>
<text font-family="宋体" text-anchor="start" fill="#FFFFFF" shape-type="text" id="" font-size="11.000000" x="24" y="346">AIR</text>
<text font-family="宋体" text-anchor="start" fill="#FFFFFF" shape-type="text" id="" font-size="11.000000" x="22" y="390">TSA</text>
<text font-family="宋体" text-anchor="start" fill="#FFFFFF" shape-type="text" id="" font-size="11.000000" x="1018" y="287">E204</text>
<text font-family="宋体" text-anchor="start" fill="#FFFFFF" shape-type="text" id="" font-size="11.000000" x="1016" y="394">K261</text>
<text font-family="宋体" text-anchor="start" fill="#FFFFFF" shape-type="text" id="" font-size="11.000000" x="934" y="491">To V113</text>
<text font-family="宋体" text-anchor="start" fill="#FFFFFF" shape-type="text" id="" font-size="11.000000" x="930" y="508">MAC Vent</text>
<text font-family="宋体" text-anchor="start" fill="#FFFFFF" shape-type="text" id="" font-size="11.000000" x="938" y="614">Instrument</text>
<text font-family="宋体" text-anchor="start" fill="#FFFFFF" shape-type="text" id="" font-size="11.000000" x="939" y="628">Air ro NC</text>
<rect shape-type="rectangle" x="140" y="414" width="62" height="27" fill="#4A494A" stroke="#C0C0C0" stroke-width="3.00"/>
<rect shape-type="rectangle" x="202" y="414" width="37" height="27" fill="#4A494A" stroke="#C0C0C0" stroke-width="3.00"/>
<text font-family="宋体" text-anchor="start" fill="#00FF42" shape-type="text" id="" font-size="13.250000" font-weight="bold" x="208" y="432">KPA</text>
<rect shape-type="rectangle" x="343" y="471" width="62" height="27" fill="#4A494A" stroke="#C0C0C0" stroke-width="3.00"/>
<rect shape-type="rectangle" x="405" y="471" width="37" height="27" fill="#4A494A" stroke="#C0C0C0" stroke-width="3.00"/>
<text font-family="宋体" text-anchor="start" fill="#00FF42" shape-type="text" id="" font-size="13.250000" font-weight="bold" x="411" y="489">KPa</text>
<rect shape-type="rectangle" x="912" y="211" width="63" height="27" fill="#4A494A" stroke="#C0C0C0" stroke-width="3.00"/>
<rect shape-type="rectangle" x="975" y="211" width="37" height="27" fill="#4A494A" stroke="#C0C0C0" stroke-width="3.00"/>
<text font-family="宋体" text-anchor="start" fill="#00FF42" shape-type="text" id="" font-size="13.250000" font-weight="bold" x="975" y="229">M3/H</text>
<rect shape-type="rectangle" x="803" y="425" width="63" height="27" fill="#4A494A" stroke="#C0C0C0" stroke-width="3.00"/>
<rect shape-type="rectangle" x="866" y="425" width="37" height="27" fill="#4A494A" stroke="#C0C0C0" stroke-width="3.00"/>
<text font-family="宋体" text-anchor="start" fill="#00FF42" shape-type="text" id="" font-size="13.250000" font-weight="bold" x="871" y="443">DEG</text>
<rect shape-type="rectangle" x="724" y="278" width="81" height="21" fill="#7B7D7B" stroke="#C0C0C0" stroke-width="3.00"/>
<rect shape-type="rectangle" x="724" y="300" width="51" height="22" fill="#4A494A" stroke="#C0C0C0" stroke-width="3.00"/>
<text font-family="宋体" text-anchor="start" fill="#FFFFFF" shape-type="text" id="" font-size="11.000000" font-weight="bold" x="737" y="292">9PIC1307</text>
<rect shape-type="rectangle" x="775" y="300" width="30" height="22" fill="#4A494A" stroke="#C0C0C0" stroke-width="3.00"/>
<text font-family="宋体" text-anchor="start" fill="#FFFFFF" shape-type="text" id="" font-size="14.750000" x="480" y="115">喘振距离</text>
<text font-family="宋体" text-anchor="start" fill="#000000" shape-type="text" id="" font-size="13.250000" font-weight="bold" x="252" y="368">K131</text>
<text font-family="宋体" text-anchor="start" fill="#000000" shape-type="text" id="" font-size="11.000000" font-weight="bold" x="381" y="378">E131</text>
<text font-family="宋体" text-anchor="start" fill="#000000" shape-type="text" id="" font-size="13.250000" font-weight="bold" x="520" y="367">K131</text>
<text font-family="宋体" text-anchor="start" fill="#000000" shape-type="text" id="" font-size="11.000000" font-weight="bold" x="673" y="378">E136</text>
<line shape-type="limitline" x1="443" y1="363" x2="443" y2="329" fill="#00FFFF" stroke="#FFFFFF" stroke-width="1.00" stroke-dasharray="5 10"/>
<line shape-type="limitline" x1="618" y1="364" x2="618" y2="328" fill="#00FFFF" stroke="#FFFFFF" stroke-width="1.00" stroke-dasharray="5 10"/>
<line shape-type="limitline" x1="768" y1="382" x2="768" y2="320" fill="#00FFFF" stroke="#FFFFFF" stroke-width="1.00" stroke-dasharray="5 10"/>
<line shape-type="limitline" x1="853" y1="425" x2="853" y2="367" fill="#00FFFF" stroke="#FFFFFF" stroke-width="1.00" stroke-dasharray="5 10"/>
<line shape-type="limitline" x1="457" y1="485" x2="441" y2="485" fill="#00FFFF" stroke="#FFFFFF" stroke-width="1.00" stroke-dasharray="5 10"/>
<text font-family="宋体" text-anchor="start" fill="#00FF42" shape-type="text" id="" font-size="13.250000" font-weight="bold" x="541" y="164">%</text>
<text font-family="宋体" text-anchor="start" fill="#FFFFFF" shape-type="text" id="" font-size="11.000000" x="679" y="161">FV1307</text>
<line shape-type="limitline" x1="957" y1="260" x2="957" y2="238" fill="#00FFFF" stroke="#FFFFFF" stroke-width="1.00" stroke-dasharray="5 10"/>
<line shape-type="limitline" x1="189" y1="411" x2="189" y2="364" fill="#00FFFF" stroke="#FFFFFF" stroke-width="1.00" stroke-dasharray="5 10"/>
<text font-family="宋体" text-anchor="start" fill="#00FF42" shape-type="text" id="" font-size="13.250000" font-weight="bold" x="777" y="317">KPA</text>
<rect shape-type="rectangle" x="722" y="379" width="92" height="21" fill="#4A494A" stroke="#C0C0C0" stroke-width="3.00"/>
<rect shape-type="rectangle" x="722" y="399" width="57" height="22" fill="#4A494A" stroke="#C0C0C0" stroke-width="3.00"/>
<rect shape-type="rectangle" x="779" y="399" width="34" height="22" fill="#4A494A" stroke="#C0C0C0" stroke-width="3.00"/>
<text font-family="宋体" text-anchor="start" fill="#00FF42" shape-type="text" id="" font-size="11.750000" font-weight="bold" x="779" y="413">M3/H</text>
<text font-family="宋体" text-anchor="start" fill="#ADAAAD" shape-type="text" id="" font-size="11.000000" font-weight="bold" x="739" y="394">9FI1307</text>
<text font-family="宋体" text-anchor="start" fill="#FFFFFF" shape-type="text" id="" font-size="11.000000" x="82" y="388">PV1307</text>
<rect shape-type="rectangle" x="0" y="736" width="1069" height="63" fill="#BDBABD" stroke="#BDBABD" stroke-width="1.00"/>
<g shape-type="group">
<rect shape-type="rectangle" x="997" y="748" width="48" height="43" fill="#C6C3C6" stroke="#C6C3C6" stroke-width="1.00"/>
<polygon shape-type="trapezium" points="1014,779 1014,759 1032,769 1032,769 1014,779" fill="#4A494A" stroke="#C6C3C6" stroke-width="2.00"/>
</g>
<g shape-type="group">
<rect shape-type="rectangle" x="13" y="748" width="47" height="39" fill="#C6C3C6" stroke="#C6C3C6" stroke-width="1.00"/>
<polygon shape-type="trapezium" points="41,776 41,756 22,766 22,766 41,776" fill="#4A494A" stroke="#C6C3C6" stroke-width="2.00"/>
</g>
<a xlink:href="mac.svg">
<g shape-type="button">
<rect fill="#C0C0C0" stroke-width="0.3" stroke="#FFFFFF" x="78" y="746" width="92" height="41" shape-type="buttonrect"/>
<text font-family="宋体" text-anchor="middle" dominant-baseline="middle" fill="#000000" font-size="13.500000" x="124" y="772" shape-type="buttontext">MAC</text>
</g>
</a>
<a xlink:href="tsa.svg">
<g shape-type="button">
<rect fill="#C0C0C0" stroke-width="0.3" stroke="#FFFFFF" x="183" y="746" width="92" height="41" shape-type="buttonrect"/>
<text font-family="宋体" text-anchor="middle" dominant-baseline="middle" fill="#000000" font-size="13.500000" x="229" y="772" shape-type="buttontext">TSA</text>
</g>
</a>
<a xlink:href="e204.svg">
<g shape-type="button">
<rect fill="#C0C0C0" stroke-width="0.3" stroke="#FFFFFF" x="289" y="746" width="92" height="41" shape-type="buttonrect"/>
<text font-family="宋体" text-anchor="middle" dominant-baseline="middle" fill="#000000" font-size="13.500000" x="335" y="772" shape-type="buttontext">E204</text>
</g>
</a>
<a xlink:href="cmpdr.svg">
<g shape-type="button">
<rect fill="#C0C0C0" stroke-width="0.3" stroke="#FFFFFF" x="396" y="746" width="92" height="41" shape-type="buttonrect"/>
<text font-family="宋体" text-anchor="middle" dominant-baseline="middle" fill="#000000" font-size="13.500000" x="442" y="772" shape-type="buttontext">CMPDR</text>
</g>
</a>
<a xlink:href="K131VIBTEMPS.svg">
<g shape-type="button">
<rect fill="#C0C0C0" stroke-width="0.3" stroke="#FFFFFF" x="503" y="746" width="92" height="41" shape-type="buttonrect"/>
<text font-family="宋体" text-anchor="middle" dominant-baseline="middle" fill="#000000" font-size="13.500000" x="549" y="772" shape-type="buttontext">K131V-T</text>
</g>
</a>
<a xlink:href="turb.svg">
<g shape-type="button">
<rect fill="#C0C0C0" stroke-width="0.3" stroke="#FFFFFF" x="610" y="746" width="92" height="41" shape-type="buttonrect"/>
<text font-family="宋体" text-anchor="middle" dominant-baseline="middle" fill="#000000" font-size="13.500000" x="656" y="772" shape-type="buttontext">TURB</text>
</g>
</a>
<rect shape-type="rectangle" x="399" y="302" width="62" height="27" fill="#4A494A" stroke="#C0C0C0" stroke-width="3.00"/>
<rect shape-type="rectangle" x="461" y="302" width="38" height="27" fill="#4A494A" stroke="#C0C0C0" stroke-width="3.00"/>
<text font-family="宋体" text-anchor="start" fill="#00FF42" shape-type="text" id="" font-size="13.250000" font-weight="bold" x="467" y="320">DEG</text>
<rect shape-type="rectangle" x="572" y="302" width="62" height="27" fill="#4A494A" stroke="#C0C0C0" stroke-width="3.00"/>
<rect shape-type="rectangle" x="634" y="302" width="38" height="27" fill="#4A494A" stroke="#C0C0C0" stroke-width="3.00"/>
<text font-family="宋体" text-anchor="start" fill="#00FF42" shape-type="text" id="" font-size="13.250000" font-weight="bold" x="639" y="320">DEG</text>
<rect shape-type="rectangle" x="480" y="126" width="81" height="21" fill="#7B7D7B" stroke="#C0C0C0" stroke-width="3.00"/>
<rect shape-type="rectangle" x="480" y="148" width="51" height="22" fill="#4A494A" stroke="#C0C0C0" stroke-width="3.00"/>
<text font-family="宋体" text-anchor="start" fill="#FFFFFF" shape-type="text" id="" font-size="11.000000" font-weight="bold" x="494" y="140">9FIC1307</text>
<rect shape-type="rectangle" x="531" y="148" width="30" height="22" fill="#4A494A" stroke="#C0C0C0" stroke-width="3.00"/>
<text font-family="Arial" text-anchor="start" fill="#00FFFF" shape-type="realdata" id="HCAB_KF_9PI1309" font-size="12.500000" x="145" y="433">XXXX</text>
<text font-family="Arial" text-anchor="start" fill="#00FFFF" shape-type="realdata" id="HCAB_KF_9TT1302" font-size="12.500000" x="406" y="320">XXXX</text>
<text font-family="Arial" text-anchor="start" fill="#00FFFF" shape-type="realdata" id="HCAB_KF_9PI1303" font-size="12.500000" x="349" y="489">XXXX</text>
<text font-family="Arial" text-anchor="start" fill="#00FFFF" shape-type="realdata" id="HCAB_KF_9TI1312" font-size="12.500000" x="578" y="318">XXXX</text>
<text font-family="Arial" text-anchor="start" fill="#00FFFF" shape-type="realdata" id="HCAB_KF_9PI1307" font-size="12.500000" x="730" y="316">XXXX</text>
<text font-family="Arial" text-anchor="start" fill="#00FFFF" shape-type="realdata" id="HCAB_KF_9FI1307" font-size="12.500000" x="728" y="415">XXXX</text>
<text font-family="Arial" text-anchor="start" fill="#00FFFF" shape-type="realdata" id="HCAB_KF_9TI1307" font-size="12.500000" x="809" y="443">XXXX</text>
<text font-family="Arial" text-anchor="start" fill="#00FFFF" shape-type="realdata" id="HCAB_KF_9FIC1307" font-size="12.500000" x="486" y="163">XXXX</text>
<text font-family="Arial" text-anchor="start" fill="#00FFFF" shape-type="realdata" id="HCAB_KF_9FI1308" font-size="12.500000" x="919" y="229">XXXX</text>
<text font-family="宋体" text-anchor="start" fill="#00FF42" shape-type="text" id="" font-size="13.250000" font-weight="bold" x="542" y="163">%</text>
<a xlink:href="700_ML.svg">
<g shape-type="button">
<rect fill="#C0C0C0" stroke-width="0.3" stroke="#FFFFFF" x="960" y="7" width="98" height="31" shape-type="buttonrect"/>
<text font-family="宋体" text-anchor="middle" dominant-baseline="middle" fill="#800000" font-size="13.500000" font-weight="bold" x="1009" y="29" shape-type="buttontext">返回上一级</text>
</g>
</a>
<text font-family="Arial" text-anchor="start" fill="#00FFFF" shape-type="realdata" id="HCAB_KF_9PIC1307.OP" font-size="12.500000" x="51" y="414">XXXX</text>
<text font-family="宋体" text-anchor="start" fill="#00FF42" shape-type="text" id="" font-size="13.250000" font-weight="bold" x="123" y="414">%</text>
</svg>
