<?xml version="1.0"?>
<?xml-stylesheet type='text/javascript'?>
<!--Draw SVG: 2019-11-25 09:41:25 47-Monday-->
<svg xmlns="http://www.w3.org/2000/svg" xmlns:xlink="http://www.w3.org/1999/xlink" version="1.1" style="background-color:#000000" width="1066" height="800" viewbox="0 0 1066 800">
<defs>
<linearGradient x1="50.000000%" y1="0.000000%" x2="50.000000%" y2="100.000000%" id="lgradient1_0">
<stop offset="0" stop-color="#212121" stop-opacity="1"/>
<stop offset="0.5" stop-color="#C0C0C0" stop-opacity="1"/>
<stop offset="1" stop-color="#212121" stop-opacity="1"/>
</linearGradient>
<linearGradient x1="0.000000%" y1="50.000000%" x2="100.000000%" y2="50.000000%" id="lgradient1_1">
<stop offset="0" stop-color="#2C2C2C" stop-opacity="1"/>
<stop offset="0.5" stop-color="#FFFFFF" stop-opacity="1"/>
<stop offset="1" stop-color="#2C2C2C" stop-opacity="1"/>
</linearGradient>
<linearGradient x1="0.000000%" y1="50.000000%" x2="100.000000%" y2="50.000000%" id="lgradient1_2">
<stop offset="0" stop-color="#2C2C2C" stop-opacity="1"/>
<stop offset="0.5" stop-color="#FFFFFF" stop-opacity="1"/>
<stop offset="1" stop-color="#2C2C2C" stop-opacity="1"/>
</linearGradient>
<linearGradient x1="0.000000%" y1="50.000000%" x2="100.000000%" y2="50.000000%" id="lgradient1_3">
<stop offset="0" stop-color="#2C2C2C" stop-opacity="1"/>
<stop offset="0.5" stop-color="#FFFFFF" stop-opacity="1"/>
<stop offset="1" stop-color="#2C2C2C" stop-opacity="1"/>
</linearGradient>
<linearGradient x1="50.000000%" y1="0.000000%" x2="50.000000%" y2="100.000000%" id="lgradient2_0">
<stop offset="0" stop-color="#212121" stop-opacity="1"/>
<stop offset="0.5" stop-color="#C0C0C0" stop-opacity="1"/>
<stop offset="1" stop-color="#212121" stop-opacity="1"/>
</linearGradient>
<linearGradient x1="0.000000%" y1="50.000000%" x2="100.000000%" y2="50.000000%" id="lgradient2_1">
<stop offset="0" stop-color="#2C2C2C" stop-opacity="1"/>
<stop offset="0.5" stop-color="#FFFFFF" stop-opacity="1"/>
<stop offset="1" stop-color="#2C2C2C" stop-opacity="1"/>
</linearGradient>
<linearGradient x1="0.000000%" y1="50.000000%" x2="100.000000%" y2="50.000000%" id="lgradient2_2">
<stop offset="0" stop-color="#2C2C2C" stop-opacity="1"/>
<stop offset="0.5" stop-color="#FFFFFF" stop-opacity="1"/>
<stop offset="1" stop-color="#2C2C2C" stop-opacity="1"/>
</linearGradient>
<linearGradient x1="0.000000%" y1="50.000000%" x2="100.000000%" y2="50.000000%" id="lgradient2_3">
<stop offset="0" stop-color="#2C2C2C" stop-opacity="1"/>
<stop offset="0.5" stop-color="#FFFFFF" stop-opacity="1"/>
<stop offset="1" stop-color="#2C2C2C" stop-opacity="1"/>
</linearGradient>
<linearGradient x1="0.000000%" y1="50.000000%" x2="100.000000%" y2="50.000000%" id="lgradient34">
<stop offset="0" stop-color="#2C2C2C" stop-opacity="1"/>
<stop offset="0.5" stop-color="#FFFFFF" stop-opacity="1"/>
<stop offset="1" stop-color="#2C2C2C" stop-opacity="1"/>
</linearGradient>
</defs>
<g shape-type="group">
<rect shape-type="rectangle" x="624" y="462" width="65" height="3" fill="url(#lgradient1_0)" stroke="#C0C0C0" stroke-width="2.00"/>
<rect shape-type="rectangle" x="630" y="464" width="52" height="16" fill="url(#lgradient1_1)" stroke="#808080" stroke-width="2.00"/>
<rect shape-type="roundRectangle" rx="20" ry="20" x="529" y="478" width="255" height="122" fill="url(#lgradient1_2)" stroke="#808080" stroke-width="2.00"/>
<rect shape-type="rectangle" x="529" y="523" width="254" height="129" fill="url(#lgradient1_3)" stroke="#808080" stroke-width="2.00"/>
</g>
<g shape-type="group">
<rect shape-type="rectangle" x="617" y="172" width="64" height="3" fill="url(#lgradient2_0)" stroke="#C0C0C0" stroke-width="2.00"/>
<rect shape-type="rectangle" x="623" y="174" width="52" height="16" fill="url(#lgradient2_1)" stroke="#808080" stroke-width="2.00"/>
<rect shape-type="roundRectangle" rx="20" ry="20" x="522" y="188" width="255" height="121" fill="url(#lgradient2_2)" stroke="#808080" stroke-width="2.00"/>
<rect shape-type="rectangle" x="522" y="232" width="254" height="129" fill="url(#lgradient2_3)" stroke="#808080" stroke-width="2.00"/>
</g>
<rect shape-type="rectangle" x="3" y="3" width="1062" height="41" fill="#9C9A9C" stroke="#C0C0C0" stroke-width="1.00"/>
<rect shape-type="rectangle" x="295" y="6" width="498" height="34" fill="#E7E3E7" stroke="#E7E3E7" stroke-width="1.00"/>
<rect shape-type="rectangle" x="11" y="8" width="63" height="27" fill="#E7E3E7" stroke="#E7E3E7" stroke-width="1.00"/>
<text font-family="宋体" text-anchor="start" fill="#000000" shape-type="text" id="" font-size="11.750000" font-weight="bold" x="26" y="27">T621</text>
<text font-family="宋体" text-anchor="start" fill="#000000" shape-type="text" id="" font-size="26.750000" font-weight="bold" x="386" y="33">液氧液氮罐T621/T721</text>
<line shape-type="limitline" x1="605" y1="140" x2="86" y2="140" fill="#009EFF" stroke="#009EFF" stroke-width="3.00"/>
<line shape-type="limitline" x1="605" y1="248" x2="605" y2="138" fill="#009EFF" stroke="#009EFF" stroke-width="3.00"/>
<line shape-type="limitline" x1="734" y1="262" x2="734" y2="151" fill="#009EFF" stroke="#009EFF" stroke-width="3.00"/>
<line shape-type="limitline" x1="560" y1="262" x2="560" y2="172" fill="#009EFF" stroke="#009EFF" stroke-width="3.00"/>
<line shape-type="limitline" x1="561" y1="172" x2="421" y2="172" fill="#009EFF" stroke="#009EFF" stroke-width="3.00"/>
<line shape-type="limitline" x1="419" y1="420" x2="419" y2="171" fill="#009EFF" stroke="#009EFF" stroke-width="3.00"/>
<line shape-type="limitline" x1="955" y1="421" x2="419" y2="421" fill="#009EFF" stroke="#009EFF" stroke-width="3.00"/>
<line shape-type="limitline" x1="656" y1="419" x2="656" y2="364" fill="#009EFF" stroke="#009EFF" stroke-width="3.00"/>
<line shape-type="limitline" x1="268" y1="137" x2="268" y2="54" fill="#009EFF" stroke="#009EFF" stroke-width="3.00"/>
<line shape-type="limitline" x1="182" y1="242" x2="82" y2="242" fill="#843800" stroke="#843800" stroke-width="3.00"/>
<line shape-type="limitline" x1="182" y1="273" x2="182" y2="242" fill="#843800" stroke="#843800" stroke-width="3.00"/>
<line shape-type="limitline" x1="369" y1="457" x2="369" y2="278" fill="#843800" stroke="#843800" stroke-width="3.00"/>
<line shape-type="limitline" x1="161" y1="354" x2="112" y2="354" fill="#843800" stroke="#843800" stroke-width="3.00"/>
<line shape-type="limitline" x1="114" y1="484" x2="114" y2="354" fill="#843800" stroke="#843800" stroke-width="3.00"/>
<line shape-type="limitline" x1="183" y1="457" x2="183" y2="400" fill="#843800" stroke="#843800" stroke-width="3.00"/>
<line shape-type="limitline" x1="596" y1="458" x2="183" y2="458" fill="#843800" stroke="#843800" stroke-width="3.00"/>
<line shape-type="limitline" x1="597" y1="532" x2="597" y2="458" fill="#843800" stroke="#843800" stroke-width="3.00"/>
<line shape-type="limitline" x1="734" y1="546" x2="734" y2="439" fill="#843800" stroke="#843800" stroke-width="3.00"/>
<line shape-type="limitline" x1="257" y1="555" x2="257" y2="458" fill="#843800" stroke="#843800" stroke-width="3.00"/>
<line shape-type="limitline" x1="319" y1="555" x2="257" y2="555" fill="#843800" stroke="#843800" stroke-width="3.00"/>
<line shape-type="limitline" x1="320" y1="732" x2="320" y2="555" fill="#843800" stroke="#843800" stroke-width="3.00"/>
<line shape-type="limitline" x1="420" y1="713" x2="420" y2="474" fill="#843800" stroke="#843800" stroke-width="3.00"/>
<line shape-type="limitline" x1="564" y1="474" x2="420" y2="474" fill="#843800" stroke="#843800" stroke-width="3.00"/>
<line shape-type="limitline" x1="561" y1="543" x2="561" y2="472" fill="#843800" stroke="#843800" stroke-width="3.00"/>
<line shape-type="limitline" x1="973" y1="713" x2="420" y2="713" fill="#843800" stroke="#843800" stroke-width="3.00"/>
<line shape-type="limitline" x1="660" y1="713" x2="660" y2="652" fill="#843800" stroke="#843800" stroke-width="3.00"/>
<rect shape-type="roundRectangle" rx="20" ry="20" x="160" y="276" width="45" height="123" fill="url(#lgradient34)" stroke="#808080" stroke-width="2.00"/>
<path shape-type="chord" d="M 735,269 A 100,67 0 0,0 575,269 z" fill="none" stroke="#000000" stroke-width="3.00"/>
<line shape-type="limitline" x1="577" y1="340" x2="577" y2="268" fill="#00FFFF" stroke="#000000" stroke-width="3.00"/>
<line shape-type="limitline" x1="734" y1="341" x2="574" y2="341" fill="#00FFFF" stroke="#000000" stroke-width="3.00"/>
<line shape-type="limitline" x1="734" y1="338" x2="734" y2="269" fill="#00FFFF" stroke="#000000" stroke-width="3.00"/>
<rect shape-type="rectangle" x="576" y="323" width="158" height="18" fill="#009EFF" stroke="#009EFF" stroke-width="3.00"/>
<path shape-type="chord" d="M 736,546 A 100,67 0 0,0 576,546 z" fill="none" stroke="#000000" stroke-width="3.00"/>
<line shape-type="limitline" x1="578" y1="617" x2="578" y2="545" fill="#00FFFF" stroke="#000000" stroke-width="3.00"/>
<line shape-type="limitline" x1="735" y1="615" x2="735" y2="546" fill="#00FFFF" stroke="#000000" stroke-width="3.00"/>
<rect shape-type="rectangle" x="577" y="600" width="158" height="18" fill="#843800" stroke="#843800" stroke-width="3.00"/>
<line shape-type="limitline" x1="735" y1="618" x2="575" y2="618" fill="#00FFFF" stroke="#000000" stroke-width="3.00"/>
<g shape-type="group">
<rect shape-type="rectangle" x="832" y="403" width="14" height="9" fill="#C0C0C0" stroke="#C0C0C0" stroke-width="1.00"/>
<g shape-type="group">
<polygon shape-type="trapezium" points="829,413 829,427 840,420 840,420 829,413" fill="#C0C0C0" stroke="#C0C0C0" stroke-width="1.00"/>
<polygon shape-type="trapezium" points="849,413 849,427 839,420 839,420 849,413" fill="#C0C0C0" stroke="#C0C0C0" stroke-width="1.00"/>
</g>
<line shape-type="limitline" x1="839" y1="410" x2="838" y2="421" fill="#C0C0C0" stroke="#C0C0C0" stroke-width="1.00"/>
</g>
<g shape-type="group">
<g shape-type="group">
<polygon shape-type="trapezium" points="525,414 525,427 535,421 535,421 525,414" fill="#C0C0C0" stroke="#C0C0C0" stroke-width="1.00"/>
<polygon shape-type="trapezium" points="546,414 546,427 535,421 535,421 546,414" fill="#C0C0C0" stroke="#C0C0C0" stroke-width="1.00"/>
</g>
<line shape-type="limitline" x1="535" y1="411" x2="534" y2="421" fill="#00FFFF" stroke="#C0C0C0" stroke-width="1.00"/>
<path shape-type="chord" d="M 547,412 A 13,24 0 0,0 526,412 z" fill="#C0C0C0" stroke="#C0C0C0" stroke-width="2.00"/>
</g>
<g shape-type="group">
<path shape-type="chord" d="M 477,130 A 15,23 0 0,0 453,130 z" fill="#C0C0C0" stroke="#C0C0C0" stroke-width="2.00"/>
<g shape-type="group">
<polygon shape-type="trapezium" points="451,135 451,148 464,142 464,142 451,135" fill="#C0C0C0" stroke="#C0C0C0" stroke-width="1.00"/>
<polygon shape-type="trapezium" points="477,135 477,148 464,142 464,142 477,135" fill="#C0C0C0" stroke="#C0C0C0" stroke-width="1.00"/>
</g>
<line shape-type="limitline" x1="465" y1="128" x2="464" y2="138" fill="#00FFFF" stroke="#C0C0C0" stroke-width="1.00"/>
<polygon shape-type="trapezium" points="469,132 459,132 464,143 464,143 469,132" fill="#C0C0C0" stroke="#C0C0C0" stroke-width="1.00"/>
</g>
<g shape-type="group">
<path shape-type="chord" d="M 313,448 A 15,23 0 0,0 289,448 z" fill="#C0C0C0" stroke="#C0C0C0" stroke-width="2.00"/>
<g shape-type="group">
<polygon shape-type="trapezium" points="288,453 288,466 300,460 300,460 288,453" fill="#C0C0C0" stroke="#C0C0C0" stroke-width="1.00"/>
<polygon shape-type="trapezium" points="313,453 313,466 299,460 299,460 313,453" fill="#C0C0C0" stroke="#C0C0C0" stroke-width="1.00"/>
</g>
<line shape-type="limitline" x1="300" y1="446" x2="299" y2="455" fill="#00FFFF" stroke="#C0C0C0" stroke-width="1.00"/>
<polygon shape-type="trapezium" points="304,450 296,450 300,460 300,460 304,450" fill="#C0C0C0" stroke="#C0C0C0" stroke-width="1.00"/>
</g>
<g shape-type="group">
<path shape-type="chord" d="M 258,84 A 23,15 0 1,0 258,108 z" fill="#C0C0C0" stroke="#C0C0C0" stroke-width="2.00"/>
<g shape-type="group">
<polygon shape-type="trapezium" points="275,107 264,107 270,95 270,95 275,107" fill="#C0C0C0" stroke="#C0C0C0" stroke-width="1.00"/>
<polygon shape-type="trapezium" points="275,83 264,83 270,95 270,95 275,83" fill="#C0C0C0" stroke="#C0C0C0" stroke-width="1.00"/>
</g>
<line shape-type="limitline" x1="256" y1="96" x2="266" y2="97" fill="#00FFFF" stroke="#C0C0C0" stroke-width="1.00"/>
<polygon shape-type="trapezium" points="260,100 260,91 270,95 270,95 260,100" fill="#C0C0C0" stroke="#C0C0C0" stroke-width="1.00"/>
</g>
<g shape-type="group">
<path shape-type="chord" d="M 309,675 A 23,14 0 1,0 309,699 z" fill="#C0C0C0" stroke="#C0C0C0" stroke-width="2.00"/>
<g shape-type="group">
<polygon shape-type="trapezium" points="326,699 315,699 321,686 321,686 326,699" fill="#C0C0C0" stroke="#C0C0C0" stroke-width="1.00"/>
<polygon shape-type="trapezium" points="326,675 315,675 321,686 321,686 326,675" fill="#C0C0C0" stroke="#C0C0C0" stroke-width="1.00"/>
</g>
<line shape-type="limitline" x1="307" y1="687" x2="317" y2="688" fill="#00FFFF" stroke="#C0C0C0" stroke-width="1.00"/>
<polygon shape-type="trapezium" points="311,692 311,682 321,687 321,687 311,692" fill="#C0C0C0" stroke="#C0C0C0" stroke-width="1.00"/>
</g>
<g shape-type="group">
<rect shape-type="rectangle" x="845" y="694" width="14" height="10" fill="#C0C0C0" stroke="#C0C0C0" stroke-width="1.00"/>
<g shape-type="group">
<polygon shape-type="trapezium" points="842,706 842,717 852,712 852,712 842,706" fill="#C0C0C0" stroke="#C0C0C0" stroke-width="1.00"/>
<polygon shape-type="trapezium" points="863,706 863,717 852,712 852,712 863,706" fill="#C0C0C0" stroke="#C0C0C0" stroke-width="1.00"/>
</g>
<line shape-type="limitline" x1="852" y1="702" x2="851" y2="713" fill="#C0C0C0" stroke="#C0C0C0" stroke-width="1.00"/>
</g>
<g shape-type="group">
<rect shape-type="rectangle" x="534" y="694" width="14" height="10" fill="#C0C0C0" stroke="#C0C0C0" stroke-width="1.00"/>
<g shape-type="group">
<polygon shape-type="trapezium" points="531,706 531,717 542,712 542,712 531,706" fill="#C0C0C0" stroke="#C0C0C0" stroke-width="1.00"/>
<polygon shape-type="trapezium" points="551,706 551,717 541,712 541,712 551,706" fill="#C0C0C0" stroke="#C0C0C0" stroke-width="1.00"/>
</g>
<line shape-type="limitline" x1="541" y1="702" x2="540" y2="713" fill="#C0C0C0" stroke="#C0C0C0" stroke-width="1.00"/>
</g>
<g shape-type="group">
<rect shape-type="rectangle" x="390" y="439" width="16" height="8" fill="#C0C0C0" stroke="#C0C0C0" stroke-width="1.00"/>
<g shape-type="group">
<polygon shape-type="trapezium" points="389,454 389,463 398,459 398,459 389,454" fill="#C0C0C0" stroke="#C0C0C0" stroke-width="1.00"/>
<polygon shape-type="trapezium" points="407,454 407,463 397,459 397,459 407,454" fill="#C0C0C0" stroke="#C0C0C0" stroke-width="1.00"/>
</g>
<g shape-type="group">
<line shape-type="limitline" x1="397" y1="446" x2="396" y2="457" fill="#C0C0C0" stroke="#C0C0C0" stroke-width="1.00"/>
<polygon shape-type="trapezium" points="402,451 393,451 398,457 398,457 402,451" fill="#C0C0C0" stroke="#C0C0C0" stroke-width="1.00"/>
</g>
</g>
<g shape-type="group">
<polygon shape-type="trapezium" points="74,248 74,232 63,240 63,240 74,248" fill="#808080" stroke="#808080" stroke-width="2.00"/>
<rect shape-type="rectangle" x="73" y="235" width="12" height="9" fill="#808080" stroke="#808080" stroke-width="2.00"/>
</g>
<polygon shape-type="trapezium" points="244,143 244,136 256,139 256,139 244,143" fill="#009EFF" stroke="#009EFF" stroke-width="2.00"/>
<g shape-type="group">
<polygon shape-type="trapezium" points="76,148 76,132 89,140 89,140 76,148" fill="#808080" stroke="#808080" stroke-width="2.00"/>
<rect shape-type="rectangle" x="68" y="136" width="10" height="9" fill="#808080" stroke="#808080" stroke-width="2.00"/>
</g>
<g shape-type="group">
<polygon shape-type="trapezium" points="106,497 120,497 113,485 113,485 106,497" fill="#808080" stroke="#808080" stroke-width="2.00"/>
<rect shape-type="rectangle" x="109" y="495" width="8" height="11" fill="#808080" stroke="#808080" stroke-width="2.00"/>
</g>
<polygon shape-type="trapezium" points="593,143 593,136 605,139 605,139 593,143" fill="#009EFF" stroke="#009EFF" stroke-width="2.00"/>
<polygon shape-type="trapezium" points="547,175 547,168 559,171 559,171 547,175" fill="#009EFF" stroke="#009EFF" stroke-width="2.00"/>
<polygon shape-type="trapezium" points="946,424 946,417 958,420 958,420 946,424" fill="#009EFF" stroke="#009EFF" stroke-width="2.00"/>
<polygon shape-type="trapezium" points="751,424 751,417 763,420 763,420 751,424" fill="#009EFF" stroke="#009EFF" stroke-width="2.00"/>
<polygon shape-type="trapezium" points="963,716 963,709 975,712 975,712 963,716" fill="#843800" stroke="#843800" stroke-width="2.00"/>
<polygon shape-type="trapezium" points="764,716 764,709 776,712 776,712 764,716" fill="#843800" stroke="#843800" stroke-width="2.00"/>
<polygon shape-type="trapezium" points="730,159 736,159 733,146 733,146 730,159" fill="#009EFF" stroke="#009EFF" stroke-width="2.00"/>
<polygon shape-type="trapezium" points="365,285 371,285 368,272 368,272 365,285" fill="#843800" stroke="#843800" stroke-width="2.00"/>
<polygon shape-type="trapezium" points="316,724 322,724 319,737 319,737 316,724" fill="#843800" stroke="#843800" stroke-width="2.00"/>
<polygon shape-type="trapezium" points="656,688 662,688 659,701 659,701 656,688" fill="#843800" stroke="#843800" stroke-width="2.00"/>
<polygon shape-type="trapezium" points="582,461 582,454 594,457 594,457 582,461" fill="#843800" stroke="#843800" stroke-width="2.00"/>
<polygon shape-type="trapezium" points="547,477 547,470 559,473 559,473 547,477" fill="#843800" stroke="#843800" stroke-width="2.00"/>
<polygon shape-type="trapezium" points="731,443 737,443 734,430 734,430 731,443" fill="#843800" stroke="#843800" stroke-width="2.00"/>
<g shape-type="group">
<g shape-type="group">
<polygon shape-type="trapezium" points="730,452 741,452 735,462 735,462 730,452" fill="#C0C0C0" stroke="#C0C0C0" stroke-width="1.00"/>
<polygon shape-type="trapezium" points="730,472 741,472 735,461 735,461 730,472" fill="#C0C0C0" stroke="#C0C0C0" stroke-width="1.00"/>
</g>
<line shape-type="limitline" x1="744" y1="460" x2="734" y2="461" fill="#00FFFF" stroke="#C0C0C0" stroke-width="1.00"/>
<path shape-type="chord" d="M 745,473 A 22,12 0 1,0 745,453 z" fill="#C0C0C0" stroke="#C0C0C0" stroke-width="2.00"/>
</g>
<text font-family="宋体" text-anchor="start" fill="#000000" shape-type="text" id="" font-size="12.500000" font-weight="bold" x="639" y="262">T621</text>
<text font-family="宋体" text-anchor="start" fill="#000000" shape-type="text" id="" font-size="12.500000" font-weight="bold" x="639" y="539">T721</text>
<text font-family="宋体" text-anchor="start" fill="#FFFFFF" shape-type="text" id="" font-size="11.000000" x="51" y="103">LOX FR</text>
<text font-family="宋体" text-anchor="start" fill="#FFFFFF" shape-type="text" id="" font-size="11.000000" x="59" y="120">E222</text>
<text font-family="宋体" text-anchor="start" fill="#FFFFFF" shape-type="text" id="" font-size="11.000000" x="4" y="145">DIST/E222</text>
<text font-family="宋体" text-anchor="start" fill="#FFFFFF" shape-type="text" id="" font-size="11.000000" x="22" y="243">E222</text>
<text font-family="宋体" text-anchor="start" fill="#FFFFFF" shape-type="text" id="" font-size="11.000000" x="98" y="519">DIST</text>
<text font-family="宋体" text-anchor="start" fill="#FFFFFF" shape-type="text" id="" font-size="11.000000" x="317" y="305">HS2508</text>
<text font-family="宋体" text-anchor="start" fill="#FFFFFF" shape-type="text" id="" font-size="11.000000" x="373" y="428">HS2502</text>
<text font-family="宋体" text-anchor="start" fill="#FFFFFF" shape-type="text" id="" font-size="11.000000" x="954" y="405">G891TRAILER</text>
<text font-family="宋体" text-anchor="start" fill="#FFFFFF" shape-type="text" id="" font-size="11.000000" x="968" y="420">LOADING</text>
<text font-family="宋体" text-anchor="start" fill="#FFFFFF" shape-type="text" id="" font-size="11.000000" x="976" y="434">PUMP</text>
<text font-family="宋体" text-anchor="start" fill="#FFFFFF" shape-type="text" id="" font-size="11.000000" x="968" y="698">G892TRAILER</text>
<text font-family="宋体" text-anchor="start" fill="#FFFFFF" shape-type="text" id="" font-size="11.000000" x="993" y="726">PUMP</text>
<text font-family="宋体" text-anchor="start" fill="#FFFFFF" shape-type="text" id="" font-size="11.000000" x="985" y="712">LOADING</text>
<rect shape-type="rectangle" x="794" y="291" width="61" height="26" fill="#4A494A" stroke="#C0C0C0" stroke-width="3.00"/>
<rect shape-type="rectangle" x="855" y="291" width="37" height="26" fill="#4A494A" stroke="#C0C0C0" stroke-width="3.00"/>
<text font-family="宋体" text-anchor="start" fill="#00FF42" shape-type="text" id="" font-size="11.000000" font-weight="bold" x="869" y="308">%</text>
<rect shape-type="rectangle" x="243" y="363" width="111" height="23" fill="#7B7D7B" stroke="#C0C0C0" stroke-width="3.00"/>
<rect shape-type="rectangle" x="243" y="387" width="71" height="24" fill="#4A494A" stroke="#C0C0C0" stroke-width="3.00"/>
<text font-family="宋体" text-anchor="start" fill="#FFFFFF" shape-type="text" id="" font-size="11.000000" font-weight="bold" x="259" y="378">9LIC2500</text>
<rect shape-type="rectangle" x="314" y="387" width="40" height="24" fill="#4A494A" stroke="#C0C0C0" stroke-width="3.00"/>
<text font-family="宋体" text-anchor="start" fill="#000000" shape-type="text" id="" font-size="9.500000" font-weight="bold" x="170" y="339">C253</text>
<rect shape-type="rectangle" x="203" y="607" width="61" height="26" fill="#4A494A" stroke="#C0C0C0" stroke-width="3.00"/>
<rect shape-type="rectangle" x="264" y="607" width="37" height="26" fill="#4A494A" stroke="#C0C0C0" stroke-width="3.00"/>
<text font-family="宋体" text-anchor="start" fill="#00FF42" shape-type="text" id="" font-size="11.000000" font-weight="bold" x="269" y="624">PPM</text>
<rect shape-type="rectangle" x="799" y="570" width="61" height="26" fill="#4A494A" stroke="#C0C0C0" stroke-width="3.00"/>
<rect shape-type="rectangle" x="860" y="570" width="37" height="26" fill="#4A494A" stroke="#C0C0C0" stroke-width="3.00"/>
<text font-family="宋体" text-anchor="start" fill="#00FF42" shape-type="text" id="" font-size="11.000000" font-weight="bold" x="874" y="587">%</text>
<polygon shape-type="trapezium" points="265,64 271,64 268,52 268,52 265,64" fill="#009EFF" stroke="#009EFF" stroke-width="2.00"/>
<polygon shape-type="trapezium" points="659,401 653,401 656,412 656,412 659,401" fill="#009EFF" stroke="#009EFF" stroke-width="2.00"/>
<polygon shape-type="trapezium" points="599,424 599,418 589,421 589,421 599,424" fill="#009EFF" stroke="#009EFF" stroke-width="2.00"/>
<polygon shape-type="trapezium" points="179,263 185,263 182,250 182,250 179,263" fill="#843800" stroke="#843800" stroke-width="2.00"/>
<polygon shape-type="trapezium" points="110,412 116,412 113,399 113,399 110,412" fill="#843800" stroke="#843800" stroke-width="2.00"/>
<g shape-type="group">
<rect shape-type="rectangle" x="379" y="319" width="10" height="15" fill="#C0C0C0" stroke="#C0C0C0" stroke-width="1.00"/>
<g shape-type="group">
<polygon shape-type="trapezium" points="364,318 373,318 368,326 368,326 364,318" fill="#C0C0C0" stroke="#C0C0C0" stroke-width="1.00"/>
<polygon shape-type="trapezium" points="364,335 373,335 368,326 368,326 364,335" fill="#C0C0C0" stroke="#C0C0C0" stroke-width="1.00"/>
</g>
<g shape-type="group">
<line shape-type="limitline" x1="379" y1="325" x2="370" y2="326" fill="#C0C0C0" stroke="#C0C0C0" stroke-width="1.00"/>
<polygon shape-type="trapezium" points="374,322 374,330 370,326 370,326 374,322" fill="#C0C0C0" stroke="#C0C0C0" stroke-width="1.00"/>
</g>
</g>
<g shape-type="group">
<g shape-type="group">
<polygon shape-type="trapezium" points="729,169 740,169 734,179 734,179 729,169" fill="#C0C0C0" stroke="#C0C0C0" stroke-width="1.00"/>
<polygon shape-type="trapezium" points="729,189 740,189 734,178 734,178 729,189" fill="#C0C0C0" stroke="#C0C0C0" stroke-width="1.00"/>
</g>
<line shape-type="limitline" x1="743" y1="177" x2="733" y2="178" fill="#00FFFF" stroke="#C0C0C0" stroke-width="1.00"/>
<path shape-type="chord" d="M 744,190 A 22,12 0 1,0 744,170 z" fill="#C0C0C0" stroke="#C0C0C0" stroke-width="2.00"/>
</g>
<line shape-type="limitline" x1="301" y1="438" x2="301" y2="412" fill="#00FFFF" stroke="#FFFFFF" stroke-width="1.00" stroke-dasharray="5 10"/>
<line shape-type="limitline" x1="207" y1="369" x2="240" y2="369" fill="#00FFFF" stroke="#FFFFFF" stroke-width="1.00" stroke-dasharray="5 10"/>
<text font-family="宋体" text-anchor="start" fill="#00FF42" shape-type="text" id="" font-size="11.000000" font-weight="bold" x="329" y="404">%</text>
<rect shape-type="rectangle" x="203" y="581" width="98" height="26" fill="#4A494A" stroke="#C0C0C0" stroke-width="3.00"/>
<text font-family="宋体" text-anchor="start" fill="#ADAAAD" shape-type="text" id="" font-size="11.000000" font-weight="bold" x="220" y="597">9QI2146</text>
<text font-family="宋体" text-anchor="start" fill="#FFFFFF" shape-type="text" id="" font-size="11.000000" x="276" y="484">LV2500_1</text>
<text font-family="宋体" text-anchor="start" fill="#FFFFFF" shape-type="text" id="" font-size="11.000000" x="237" y="692">LV2500_2</text>
<text font-family="宋体" text-anchor="start" fill="#FFFFFF" shape-type="text" id="" font-size="11.000000" x="284" y="101">LV2108_2</text>
<text font-family="宋体" text-anchor="start" fill="#FFFFFF" shape-type="text" id="" font-size="11.000000" x="440" y="112">LV2108_1</text>
<rect shape-type="rectangle" x="0" y="739" width="1069" height="64" fill="#BDBABD" stroke="#BDBABD" stroke-width="1.00"/>
<g shape-type="group">
<rect shape-type="rectangle" x="997" y="752" width="48" height="43" fill="#C6C3C6" stroke="#C6C3C6" stroke-width="1.00"/>
<polygon shape-type="trapezium" points="1014,783 1014,763 1032,773 1032,773 1014,783" fill="#4A494A" stroke="#C6C3C6" stroke-width="2.00"/>
</g>
<g shape-type="group">
<rect shape-type="rectangle" x="13" y="752" width="47" height="40" fill="#C6C3C6" stroke="#C6C3C6" stroke-width="1.00"/>
<polygon shape-type="trapezium" points="41,780 41,760 22,770 22,770 41,780" fill="#4A494A" stroke="#C6C3C6" stroke-width="2.00"/>
</g>
<a xlink:href="mac.svg">
<g shape-type="button">
<rect fill="#C0C0C0" stroke-width="0.3" stroke="#FFFFFF" x="78" y="749" width="92" height="43" shape-type="buttonrect"/>
<text font-family="宋体" text-anchor="middle" dominant-baseline="middle" fill="#000000" font-size="13.500000" x="124" y="776" shape-type="buttontext">MAC</text>
</g>
</a>
<a xlink:href="tsa.svg">
<g shape-type="button">
<rect fill="#C0C0C0" stroke-width="0.3" stroke="#FFFFFF" x="183" y="749" width="92" height="43" shape-type="buttonrect"/>
<text font-family="宋体" text-anchor="middle" dominant-baseline="middle" fill="#000000" font-size="13.500000" x="229" y="776" shape-type="buttontext">TSA</text>
</g>
</a>
<a xlink:href="dist.svg">
<g shape-type="button">
<rect fill="#C0C0C0" stroke-width="0.3" stroke="#FFFFFF" x="289" y="749" width="92" height="43" shape-type="buttonrect"/>
<text font-family="宋体" text-anchor="middle" dominant-baseline="middle" fill="#000000" font-size="13.500000" x="335" y="776" shape-type="buttontext">DIST</text>
</g>
</a>
<a xlink:href="E222.svg">
<g shape-type="button">
<rect fill="#C0C0C0" stroke-width="0.3" stroke="#FFFFFF" x="396" y="749" width="92" height="43" shape-type="buttonrect"/>
<text font-family="宋体" text-anchor="middle" dominant-baseline="middle" fill="#000000" font-size="13.500000" x="442" y="776" shape-type="buttontext">E222</text>
</g>
</a>
<a xlink:href="dcac.svg">
<g shape-type="button">
<rect fill="#C0C0C0" stroke-width="0.3" stroke="#FFFFFF" x="503" y="749" width="92" height="43" shape-type="buttonrect"/>
<text font-family="宋体" text-anchor="middle" dominant-baseline="middle" fill="#000000" font-size="13.500000" x="549" y="776" shape-type="buttontext">DCAC</text>
</g>
</a>
<a xlink:href="e202.svg">
<g shape-type="button">
<rect fill="#C0C0C0" stroke-width="0.3" stroke="#FFFFFF" x="610" y="749" width="92" height="43" shape-type="buttonrect"/>
<text font-family="宋体" text-anchor="middle" dominant-baseline="middle" fill="#000000" font-size="13.500000" x="656" y="776" shape-type="buttontext">E202</text>
</g>
</a>
<a xlink:href="GAN.svg">
<g shape-type="button">
<rect fill="#C0C0C0" stroke-width="0.3" stroke="#FFFFFF" x="718" y="749" width="92" height="43" shape-type="buttonrect"/>
<text font-family="宋体" text-anchor="middle" dominant-baseline="middle" fill="#000000" font-size="13.500000" x="764" y="776" shape-type="buttontext">GAN</text>
</g>
</a>
<a xlink:href="e204.svg">
<g shape-type="button">
<rect fill="#C0C0C0" stroke-width="0.3" stroke="#FFFFFF" x="831" y="749" width="92" height="43" shape-type="buttonrect"/>
<text font-family="宋体" text-anchor="middle" dominant-baseline="middle" fill="#000000" font-size="13.500000" x="877" y="776" shape-type="buttontext">E204</text>
</g>
</a>
<rect shape-type="rectangle" x="793" y="251" width="61" height="26" fill="#4A494A" stroke="#C0C0C0" stroke-width="3.00"/>
<rect shape-type="rectangle" x="854" y="251" width="37" height="26" fill="#4A494A" stroke="#C0C0C0" stroke-width="3.00"/>
<text font-family="宋体" text-anchor="start" fill="#00FF42" shape-type="text" id="" font-size="11.750000" font-weight="bold" x="859" y="267">KPA</text>
<rect shape-type="rectangle" x="799" y="531" width="61" height="26" fill="#4A494A" stroke="#C0C0C0" stroke-width="3.00"/>
<rect shape-type="rectangle" x="860" y="531" width="37" height="26" fill="#4A494A" stroke="#C0C0C0" stroke-width="3.00"/>
<text font-family="宋体" text-anchor="start" fill="#00FF42" shape-type="text" id="" font-size="11.750000" font-weight="bold" x="866" y="547">KPA</text>
<text font-family="Arial" text-anchor="start" fill="#00FFFF" shape-type="realdata" id="HCAB_KF_9PI6266" font-size="12.500000" x="799" y="269">XXXX</text>
<text font-family="Arial" text-anchor="start" fill="#00FFFF" shape-type="realdata" id="HCAB_KF_9LT6271" font-size="12.500000" x="800" y="308">XXXX</text>
<text font-family="Arial" text-anchor="start" fill="#00FFFF" shape-type="realdata" id="HCAB_KF_9LI2500_1" font-size="12.500000" x="248" y="405">XXXX</text>
<text font-family="Arial" text-anchor="start" fill="#00FFFF" shape-type="realdata" id="HCAB_KF_9QI2146" font-size="11.000000" x="208" y="624">XXXX</text>
<text font-family="Arial" text-anchor="start" fill="#00FFFF" shape-type="realdata" id="HCAB_KF_9PI7267" font-size="12.500000" x="804" y="547">XXXX</text>
<text font-family="Arial" text-anchor="start" fill="#00FFFF" shape-type="realdata" id="HCAB_KF_9LT7271" font-size="12.500000" x="805" y="589">XXXX</text>
<a xlink:href="700_ML.svg">
<g shape-type="button">
<rect fill="#C0C0C0" stroke-width="0.3" stroke="#FFFFFF" x="961" y="7" width="98" height="31" shape-type="buttonrect"/>
<text font-family="宋体" text-anchor="middle" dominant-baseline="middle" fill="#800000" font-size="13.500000" font-weight="bold" x="1010" y="29" shape-type="buttontext">返回上一级</text>
</g>
</a>
</svg>
