<?xml version="1.0"?>
<?xml-stylesheet type='text/javascript'?>
<!--Draw SVG: 2019-11-25 09:41:25 47-Monday-->
<svg xmlns="http://www.w3.org/2000/svg" xmlns:xlink="http://www.w3.org/1999/xlink" version="1.1" style="background-color:#000000" width="1066" height="800" viewbox="0 0 1066 800">
<defs>
<radialGradient cx="50.000000%" cy="50.000000%" r="50.000000%" fx="50.000000%" fy="50.000000%" id="rgradient1">
<stop offset="0%" stop-color="#FFFFFF" stop-opacity="1"/>
<stop offset="100%" stop-color="#2C2C2C" stop-opacity="1"/>
</radialGradient>
<linearGradient x1="50.000000%" y1="0.000000%" x2="50.000000%" y2="100.000000%" id="lgradient53">
<stop offset="0" stop-color="#2C2C2C" stop-opacity="1"/>
<stop offset="0.5" stop-color="#FFFFFF" stop-opacity="1"/>
<stop offset="1" stop-color="#2C2C2C" stop-opacity="1"/>
</linearGradient>
<linearGradient x1="50.000000%" y1="0.000000%" x2="50.000000%" y2="100.000000%" id="lgradient54">
<stop offset="0" stop-color="#2C2C2C" stop-opacity="1"/>
<stop offset="0.5" stop-color="#FFFFFF" stop-opacity="1"/>
<stop offset="1" stop-color="#2C2C2C" stop-opacity="1"/>
</linearGradient>
</defs>
<ellipse shape-type="ellipse" cx="776" cy="511" rx="30" ry="30" fill="url(#rgradient1)" stroke="#808080" stroke-width="2.00"/>
<rect shape-type="rectangle" x="1" y="1" width="1064" height="47" fill="#9C9A9C" stroke="#C0C0C0" stroke-width="1.00"/>
<rect shape-type="rectangle" x="293" y="5" width="498" height="35" fill="#E7E3E7" stroke="#E7E3E7" stroke-width="1.00"/>
<rect shape-type="rectangle" x="10" y="5" width="64" height="31" fill="#E7E3E7" stroke="#E7E3E7" stroke-width="1.00"/>
<text font-family="宋体" text-anchor="start" fill="#000000" shape-type="text" id="" font-size="12.500000" font-weight="bold" x="26" y="27">TSA</text>
<text font-family="宋体" text-anchor="start" fill="#000000" shape-type="text" id="" font-size="26.000000" font-weight="bold" x="431" y="32">TSA吸附系统</text>
<line shape-type="limitline" x1="227" y1="360" x2="227" y2="207" fill="#00FFFF" stroke="#BDE7FF" stroke-width="3.00"/>
<line shape-type="limitline" x1="488" y1="206" x2="227" y2="206" fill="#00FFFF" stroke="#BDE7FF" stroke-width="3.00"/>
<line shape-type="limitline" x1="487" y1="360" x2="487" y2="207" fill="#BDE7FF" stroke="#BDE7FF" stroke-width="3.00"/>
<line shape-type="limitline" x1="231" y1="256" x2="306" y2="256" fill="#00FFFF" stroke="#BDE7FF" stroke-width="3.00"/>
<line shape-type="limitline" x1="478" y1="227" x2="359" y2="227" fill="#00FFFF" stroke="#84CFFF" stroke-width="3.00"/>
<line shape-type="limitline" x1="357" y1="255" x2="357" y2="226" fill="#00FFFF" stroke="#84CFFF" stroke-width="3.00"/>
<line shape-type="limitline" x1="690" y1="230" x2="493" y2="230" fill="#00FFFF" stroke="#84CFFF" stroke-width="3.00"/>
<line shape-type="limitline" x1="689" y1="502" x2="689" y2="231" fill="#00FFFF" stroke="#84CFFF" stroke-width="3.00"/>
<line shape-type="limitline" x1="748" y1="506" x2="690" y2="506" fill="#00FFFF" stroke="#84CFFF" stroke-width="3.00"/>
<line shape-type="limitline" x1="971" y1="506" x2="808" y2="506" fill="#00FFFF" stroke="#84CFFF" stroke-width="3.00"/>
<line shape-type="limitline" x1="972" y1="584" x2="972" y2="505" fill="#84CFFF" stroke="#84CFFF" stroke-width="3.00"/>
<line shape-type="limitline" x1="971" y1="676" x2="971" y2="604" fill="#84CFFF" stroke="#84CFFF" stroke-width="3.00"/>
<line shape-type="limitline" x1="225" y1="645" x2="225" y2="461" fill="#00FFFF" stroke="#BDE7FF" stroke-width="3.00"/>
<line shape-type="limitline" x1="489" y1="536" x2="227" y2="536" fill="#00FFFF" stroke="#BDE7FF" stroke-width="3.00"/>
<line shape-type="limitline" x1="488" y1="647" x2="488" y2="461" fill="#00FFFF" stroke="#BDE7FF" stroke-width="3.00"/>
<line shape-type="limitline" x1="490" y1="599" x2="227" y2="599" fill="#00FFFF" stroke="#BDE7FF" stroke-width="3.00"/>
<line shape-type="limitline" x1="361" y1="537" x2="361" y2="499" fill="#00FFFF" stroke="#BDE7FF" stroke-width="3.00"/>
<line shape-type="limitline" x1="361" y1="598" x2="361" y2="577" fill="#00FFFF" stroke="#BDE7FF" stroke-width="3.00"/>
<line shape-type="limitline" x1="489" y1="647" x2="226" y2="647" fill="#00FFFF" stroke="#BDE7FF" stroke-width="3.00"/>
<line shape-type="limitline" x1="361" y1="702" x2="361" y2="649" fill="#00FFFF" stroke="#BDE7FF" stroke-width="3.00"/>
<line shape-type="limitline" x1="363" y1="703" x2="78" y2="703" fill="#00FFFF" stroke="#BDE7FF" stroke-width="3.00"/>
<line shape-type="limitline" x1="488" y1="342" x2="230" y2="342" fill="#00FFFF" stroke="#BDE7FF" stroke-width="3.00"/>
<line shape-type="limitline" x1="357" y1="204" x2="357" y2="136" fill="#00FFFF" stroke="#BDE7FF" stroke-width="3.00"/>
<line shape-type="limitline" x1="527" y1="135" x2="356" y2="135" fill="#00FFFF" stroke="#BDE7FF" stroke-width="3.00"/>
<line shape-type="limitline" x1="815" y1="135" x2="541" y2="135" fill="#00FFFF" stroke="#BDE7FF" stroke-width="3.00"/>
<line shape-type="limitline" x1="873" y1="134" x2="829" y2="134" fill="#00FFFF" stroke="#BDE7FF" stroke-width="3.00"/>
<line shape-type="limitline" x1="690" y1="213" x2="690" y2="135" fill="#00FFFF" stroke="#BDE7FF" stroke-width="3.00"/>
<line shape-type="limitline" x1="876" y1="212" x2="691" y2="212" fill="#00FFFF" stroke="#BDE7FF" stroke-width="3.00"/>
<line shape-type="limitline" x1="949" y1="501" x2="949" y2="267" fill="#84CFFF" stroke="#84CFFF" stroke-width="3.00"/>
<line shape-type="limitline" x1="949" y1="402" x2="722" y2="402" fill="#84CFFF" stroke="#84CFFF" stroke-width="3.00"/>
<line shape-type="limitline" x1="721" y1="504" x2="721" y2="405" fill="#00FFFF" stroke="#84CFFF" stroke-width="3.00"/>
<line shape-type="limitline" x1="762" y1="566" x2="762" y2="499" fill="#00FFFF" stroke="#FFFFFF" stroke-width="3.00"/>
<line shape-type="limitline" x1="793" y1="546" x2="793" y2="499" fill="#00FFFF" stroke="#FFFFFF" stroke-width="3.00"/>
<line shape-type="limitline" x1="762" y1="652" x2="762" y2="604" fill="#00FF00" stroke="#00FF00" stroke-width="3.00"/>
<line shape-type="line" x1="779" y1="522" x2="762" y2="499" fill="#00FFFF" stroke="#FFFFFF" stroke-width="3.00"/>
<line shape-type="line" x1="779" y1="519" x2="792" y2="499" fill="#00FFFF" stroke="#FFFFFF" stroke-width="3.00"/>
<rect shape-type="rectangle" x="751" y="568" width="23" height="36" fill="none" stroke="#00FF00" stroke-width="2.00"/>
<line shape-type="limitline" x1="529" y1="143" x2="529" y2="124" fill="#00FFFF" stroke="#BDE7FF" stroke-width="3.00"/>
<line shape-type="limitline" x1="538" y1="145" x2="538" y2="122" fill="#00FFFF" stroke="#BDE7FF" stroke-width="3.00"/>
<line shape-type="limitline" x1="534" y1="141" x2="534" y2="127" fill="#00FFFF" stroke="#BDE7FF" stroke-width="3.00"/>
<line shape-type="limitline" x1="817" y1="146" x2="817" y2="124" fill="#00FFFF" stroke="#BDE7FF" stroke-width="3.00"/>
<line shape-type="limitline" x1="826" y1="146" x2="826" y2="123" fill="#00FFFF" stroke="#BDE7FF" stroke-width="3.00"/>
<line shape-type="limitline" x1="821" y1="142" x2="821" y2="126" fill="#00FFFF" stroke="#BDE7FF" stroke-width="3.00"/>
<line shape-type="limitline" x1="982" y1="585" x2="962" y2="585" fill="#84CFFF" stroke="#84CFFF" stroke-width="3.00"/>
<line shape-type="limitline" x1="979" y1="594" x2="965" y2="594" fill="#84CFFF" stroke="#84CFFF" stroke-width="3.00"/>
<line shape-type="limitline" x1="982" y1="601" x2="963" y2="601" fill="#84CFFF" stroke="#84CFFF" stroke-width="3.00"/>
<rect shape-type="roundRectangle" rx="20" ry="20" x="153" y="361" width="147" height="101" fill="url(#lgradient53)" stroke="#808080" stroke-width="2.00"/>
<rect shape-type="roundRectangle" rx="20" ry="20" x="409" y="359" width="149" height="103" fill="url(#lgradient54)" stroke="#808080" stroke-width="2.00"/>
<g shape-type="group">
<rect shape-type="rectangle" x="285" y="185" width="16" height="10" fill="#C0C0C0" stroke="#C0C0C0" stroke-width="1.00"/>
<g shape-type="group">
<polygon shape-type="trapezium" points="282,196 282,211 294,204 294,204 282,196" fill="#C0C0C0" stroke="#C0C0C0" stroke-width="1.00"/>
<polygon shape-type="trapezium" points="304,196 304,211 293,204 293,204 304,196" fill="#C0C0C0" stroke="#C0C0C0" stroke-width="1.00"/>
</g>
<line shape-type="limitline" x1="293" y1="193" x2="292" y2="205" fill="#C0C0C0" stroke="#C0C0C0" stroke-width="1.00"/>
</g>
<polygon shape-type="trapezium" points="354,240 360,240 357,252 357,252 354,240" fill="#00FFFF" stroke="#84CFFF" stroke-width="2.00"/>
<g shape-type="group">
<path shape-type="chord" d="M 357,332 A 14,21 0 0,0 334,332 z" fill="#C0C0C0" stroke="#C0C0C0" stroke-width="2.00"/>
<g shape-type="group">
<polygon shape-type="trapezium" points="333,337 333,348 345,343 345,343 333,337" fill="#C0C0C0" stroke="#C0C0C0" stroke-width="1.00"/>
<polygon shape-type="trapezium" points="356,337 356,348 344,343 344,343 356,337" fill="#C0C0C0" stroke="#C0C0C0" stroke-width="1.00"/>
</g>
<line shape-type="limitline" x1="345" y1="331" x2="344" y2="339" fill="#00FFFF" stroke="#C0C0C0" stroke-width="1.00"/>
<polygon shape-type="trapezium" points="349,334 341,334 345,343 345,343 349,334" fill="#C0C0C0" stroke="#C0C0C0" stroke-width="1.00"/>
</g>
<g shape-type="group">
<rect shape-type="rectangle" x="415" y="187" width="15" height="10" fill="#C0C0C0" stroke="#C0C0C0" stroke-width="1.00"/>
<g shape-type="group">
<polygon shape-type="trapezium" points="411,200 411,212 423,206 423,206 411,200" fill="#C0C0C0" stroke="#C0C0C0" stroke-width="1.00"/>
<polygon shape-type="trapezium" points="433,200 433,212 422,206 422,206 433,200" fill="#C0C0C0" stroke="#C0C0C0" stroke-width="1.00"/>
</g>
<line shape-type="limitline" x1="422" y1="195" x2="421" y2="207" fill="#C0C0C0" stroke="#C0C0C0" stroke-width="1.00"/>
</g>
<g shape-type="group">
<rect shape-type="rectangle" x="285" y="235" width="16" height="10" fill="#C0C0C0" stroke="#C0C0C0" stroke-width="1.00"/>
<g shape-type="group">
<polygon shape-type="trapezium" points="282,248 282,261 294,255 294,255 282,248" fill="#C0C0C0" stroke="#C0C0C0" stroke-width="1.00"/>
<polygon shape-type="trapezium" points="304,248 304,261 293,255 293,255 304,248" fill="#C0C0C0" stroke="#C0C0C0" stroke-width="1.00"/>
</g>
<line shape-type="limitline" x1="293" y1="243" x2="292" y2="255" fill="#C0C0C0" stroke="#C0C0C0" stroke-width="1.00"/>
</g>
<g shape-type="group">
<rect shape-type="rectangle" x="284" y="516" width="16" height="11" fill="#C0C0C0" stroke="#C0C0C0" stroke-width="1.00"/>
<g shape-type="group">
<polygon shape-type="trapezium" points="281,529 281,541 293,535 293,535 281,529" fill="#C0C0C0" stroke="#C0C0C0" stroke-width="1.00"/>
<polygon shape-type="trapezium" points="303,529 303,541 292,535 292,535 303,529" fill="#C0C0C0" stroke="#C0C0C0" stroke-width="1.00"/>
</g>
<line shape-type="limitline" x1="292" y1="525" x2="291" y2="536" fill="#C0C0C0" stroke="#C0C0C0" stroke-width="1.00"/>
</g>
<g shape-type="group">
<rect shape-type="rectangle" x="416" y="516" width="15" height="11" fill="#C0C0C0" stroke="#C0C0C0" stroke-width="1.00"/>
<g shape-type="group">
<polygon shape-type="trapezium" points="413,529 413,541 424,535 424,535 413,529" fill="#C0C0C0" stroke="#C0C0C0" stroke-width="1.00"/>
<polygon shape-type="trapezium" points="434,529 434,541 423,535 423,535 434,529" fill="#C0C0C0" stroke="#C0C0C0" stroke-width="1.00"/>
</g>
<line shape-type="limitline" x1="423" y1="525" x2="422" y2="536" fill="#C0C0C0" stroke="#C0C0C0" stroke-width="1.00"/>
</g>
<g shape-type="group">
<rect shape-type="rectangle" x="420" y="578" width="15" height="10" fill="#C0C0C0" stroke="#C0C0C0" stroke-width="1.00"/>
<g shape-type="group">
<polygon shape-type="trapezium" points="417,589 417,604 428,597 428,597 417,589" fill="#C0C0C0" stroke="#C0C0C0" stroke-width="1.00"/>
<polygon shape-type="trapezium" points="439,589 439,604 427,597 427,597 439,589" fill="#C0C0C0" stroke="#C0C0C0" stroke-width="1.00"/>
</g>
<line shape-type="limitline" x1="427" y1="586" x2="426" y2="598" fill="#C0C0C0" stroke="#C0C0C0" stroke-width="1.00"/>
</g>
<g shape-type="group">
<rect shape-type="rectangle" x="284" y="578" width="16" height="10" fill="#C0C0C0" stroke="#C0C0C0" stroke-width="1.00"/>
<g shape-type="group">
<polygon shape-type="trapezium" points="281,589 281,604 293,597 293,597 281,589" fill="#C0C0C0" stroke="#C0C0C0" stroke-width="1.00"/>
<polygon shape-type="trapezium" points="303,589 303,604 292,597 292,597 303,589" fill="#C0C0C0" stroke="#C0C0C0" stroke-width="1.00"/>
</g>
<line shape-type="limitline" x1="292" y1="586" x2="291" y2="598" fill="#C0C0C0" stroke="#C0C0C0" stroke-width="1.00"/>
</g>
<g shape-type="group">
<rect shape-type="rectangle" x="283" y="627" width="16" height="10" fill="#C0C0C0" stroke="#C0C0C0" stroke-width="1.00"/>
<g shape-type="group">
<polygon shape-type="trapezium" points="280,638 280,653 292,646 292,646 280,638" fill="#C0C0C0" stroke="#C0C0C0" stroke-width="1.00"/>
<polygon shape-type="trapezium" points="302,638 302,653 291,646 291,646 302,638" fill="#C0C0C0" stroke="#C0C0C0" stroke-width="1.00"/>
</g>
<line shape-type="limitline" x1="291" y1="635" x2="290" y2="646" fill="#C0C0C0" stroke="#C0C0C0" stroke-width="1.00"/>
</g>
<g shape-type="group">
<rect shape-type="rectangle" x="420" y="626" width="15" height="10" fill="#C0C0C0" stroke="#C0C0C0" stroke-width="1.00"/>
<g shape-type="group">
<polygon shape-type="trapezium" points="417,637 417,652 428,645 428,645 417,637" fill="#C0C0C0" stroke="#C0C0C0" stroke-width="1.00"/>
<polygon shape-type="trapezium" points="439,637 439,652 427,645 427,645 439,637" fill="#C0C0C0" stroke="#C0C0C0" stroke-width="1.00"/>
</g>
<line shape-type="limitline" x1="427" y1="634" x2="426" y2="645" fill="#C0C0C0" stroke="#C0C0C0" stroke-width="1.00"/>
</g>
<g shape-type="group">
<path shape-type="chord" d="M 780,390 A 14,21 0 0,0 757,390 z" fill="#C0C0C0" stroke="#C0C0C0" stroke-width="2.00"/>
<g shape-type="group">
<polygon shape-type="trapezium" points="756,394 756,406 768,400 768,400 756,394" fill="#C0C0C0" stroke="#C0C0C0" stroke-width="1.00"/>
<polygon shape-type="trapezium" points="779,394 779,406 767,400 767,400 779,394" fill="#C0C0C0" stroke="#C0C0C0" stroke-width="1.00"/>
</g>
<line shape-type="limitline" x1="768" y1="389" x2="767" y2="398" fill="#00FFFF" stroke="#C0C0C0" stroke-width="1.00"/>
<polygon shape-type="trapezium" points="772,392 764,392 768,402 768,402 772,392" fill="#C0C0C0" stroke="#C0C0C0" stroke-width="1.00"/>
</g>
<g shape-type="group">
<path shape-type="chord" d="M 851,495 A 14,21 0 0,0 828,495 z" fill="#C0C0C0" stroke="#C0C0C0" stroke-width="2.00"/>
<g shape-type="group">
<polygon shape-type="trapezium" points="827,501 827,511 839,506 839,506 827,501" fill="#C0C0C0" stroke="#C0C0C0" stroke-width="1.00"/>
<polygon shape-type="trapezium" points="850,501 850,511 838,506 838,506 850,501" fill="#C0C0C0" stroke="#C0C0C0" stroke-width="1.00"/>
</g>
<line shape-type="limitline" x1="839" y1="494" x2="838" y2="503" fill="#00FFFF" stroke="#C0C0C0" stroke-width="1.00"/>
<polygon shape-type="trapezium" points="843,498 834,498 839,507 839,507 843,498" fill="#C0C0C0" stroke="#C0C0C0" stroke-width="1.00"/>
</g>
<g shape-type="group">
<path shape-type="chord" d="M 744,147 A 14,22 0 0,0 767,147 z" fill="#C0C0C0" stroke="#C0C0C0" stroke-width="2.00"/>
<g shape-type="group">
<polygon shape-type="trapezium" points="743,139 743,129 754,134 754,134 743,139" fill="#C0C0C0" stroke="#C0C0C0" stroke-width="1.00"/>
<polygon shape-type="trapezium" points="766,139 766,129 753,134 753,134 766,139" fill="#C0C0C0" stroke="#C0C0C0" stroke-width="1.00"/>
</g>
<line shape-type="limitline" x1="754" y1="146" x2="753" y2="138" fill="#00FFFF" stroke="#C0C0C0" stroke-width="1.00"/>
<polygon shape-type="trapezium" points="758,143 750,143 754,134 754,134 758,143" fill="#C0C0C0" stroke="#C0C0C0" stroke-width="1.00"/>
</g>
<g shape-type="group">
<path shape-type="chord" d="M 961,309 A 22,13 0 1,0 961,288 z" fill="#C0C0C0" stroke="#C0C0C0" stroke-width="2.00"/>
<g shape-type="group">
<polygon shape-type="trapezium" points="943,309 954,309 948,298 948,298 943,309" fill="#C0C0C0" stroke="#C0C0C0" stroke-width="1.00"/>
<polygon shape-type="trapezium" points="943,287 954,287 948,298 948,298 943,287" fill="#C0C0C0" stroke="#C0C0C0" stroke-width="1.00"/>
</g>
<line shape-type="limitline" x1="960" y1="299" x2="952" y2="300" fill="#00FFFF" stroke="#C0C0C0" stroke-width="1.00"/>
<polygon shape-type="trapezium" points="957,303 957,294 948,298 948,298 957,303" fill="#C0C0C0" stroke="#C0C0C0" stroke-width="1.00"/>
</g>
<g shape-type="group">
<polygon shape-type="trapezium" points="63,710 63,692 78,701 78,701 63,710" fill="#808080" stroke="#808080" stroke-width="2.00"/>
<rect shape-type="rectangle" x="53" y="696" width="11" height="10" fill="#808080" stroke="#808080" stroke-width="2.00"/>
</g>
<g shape-type="group">
<polygon shape-type="trapezium" points="884,220 884,204 900,212 900,212 884,220" fill="#808080" stroke="#808080" stroke-width="2.00"/>
<rect shape-type="rectangle" x="875" y="208" width="10" height="9" fill="#808080" stroke="#808080" stroke-width="2.00"/>
</g>
<g shape-type="group">
<polygon shape-type="trapezium" points="882,143 882,127 898,135 898,135 882,143" fill="#808080" stroke="#808080" stroke-width="2.00"/>
<rect shape-type="rectangle" x="873" y="131" width="10" height="9" fill="#808080" stroke="#808080" stroke-width="2.00"/>
</g>
<g shape-type="group">
<polygon shape-type="trapezium" points="964,694 981,694 972,679 972,679 964,694" fill="#808080" stroke="#808080" stroke-width="2.00"/>
<rect shape-type="rectangle" x="968" y="693" width="9" height="11" fill="#808080" stroke="#808080" stroke-width="2.00"/>
</g>
<polygon shape-type="trapezium" points="718,487 724,487 721,499 721,499 718,487" fill="#84CFFF" stroke="#84CFFF" stroke-width="2.00"/>
<polygon shape-type="trapezium" points="759,639 765,639 762,651 762,651 759,639" fill="#00FF00" stroke="#00FF00" stroke-width="2.00"/>
<polygon shape-type="trapezium" points="968,508 968,503 955,505 955,505 968,508" fill="#84CFFF" stroke="#84CFFF" stroke-width="2.00"/>
<polygon shape-type="trapezium" points="357,510 363,510 360,498 360,498 357,510" fill="#BDE7FF" stroke="#BDE7FF" stroke-width="2.00"/>
<polygon shape-type="trapezium" points="358,662 364,662 361,650 361,650 358,662" fill="#BDE7FF" stroke="#BDE7FF" stroke-width="2.00"/>
<polygon shape-type="trapezium" points="946,432 952,432 949,420 949,420 946,432" fill="#84CFFF" stroke="#84CFFF" stroke-width="2.00"/>
<rect shape-type="rectangle" x="935" y="217" width="28" height="50" fill="#008284" stroke="#636163" stroke-width="3.00"/>
<line shape-type="limitline" x1="963" y1="235" x2="950" y2="235" fill="#00FFFF" stroke="#636163" stroke-width="3.00"/>
<line shape-type="limitline" x1="963" y1="257" x2="950" y2="257" fill="#00FFFF" stroke="#636163" stroke-width="3.00"/>
<line shape-type="limitline" x1="949" y1="245" x2="936" y2="245" fill="#00FFFF" stroke="#636163" stroke-width="3.00"/>
<rect shape-type="rectangle" x="349" y="548" width="26" height="30" fill="#008284" stroke="#636163" stroke-width="3.00"/>
<line shape-type="limitline" x1="374" y1="558" x2="362" y2="558" fill="#00FFFF" stroke="#636163" stroke-width="3.00"/>
<line shape-type="limitline" x1="374" y1="572" x2="362" y2="572" fill="#00FFFF" stroke="#636163" stroke-width="3.00"/>
<line shape-type="limitline" x1="362" y1="564" x2="350" y2="564" fill="#00FFFF" stroke="#636163" stroke-width="3.00"/>
<text font-family="宋体" text-anchor="start" fill="#FFFFFF" shape-type="text" id="" font-size="11.000000" x="280" y="227">1810A</text>
<text font-family="宋体" text-anchor="start" fill="#FFFFFF" shape-type="text" id="" font-size="11.000000" x="405" y="224">1810B</text>
<text font-family="宋体" text-anchor="start" fill="#FFFFFF" shape-type="text" id="" font-size="11.000000" x="280" y="278">1815A</text>
<text font-family="宋体" text-anchor="start" fill="#FFFFFF" shape-type="text" id="" font-size="11.000000" x="405" y="277">1815B</text>
<text font-family="宋体" text-anchor="start" fill="#FFFFFF" shape-type="text" id="" font-size="11.000000" x="280" y="554">1812A</text>
<text font-family="宋体" text-anchor="start" fill="#FFFFFF" shape-type="text" id="" font-size="11.000000" x="278" y="616">1813A</text>
<text font-family="宋体" text-anchor="start" fill="#FFFFFF" shape-type="text" id="" font-size="11.000000" x="281" y="665">1807A</text>
<text font-family="宋体" text-anchor="start" fill="#FFFFFF" shape-type="text" id="" font-size="11.000000" x="409" y="554">1812B</text>
<text font-family="宋体" text-anchor="start" fill="#FFFFFF" shape-type="text" id="" font-size="11.000000" x="410" y="615">1813B</text>
<text font-family="宋体" text-anchor="start" fill="#FFFFFF" shape-type="text" id="" font-size="11.000000" x="414" y="664">1807B</text>
<text font-family="宋体" text-anchor="start" fill="#FFFFFF" shape-type="text" id="" font-size="12.500000" x="870" y="160">E201</text>
<text font-family="宋体" text-anchor="start" fill="#FFFFFF" shape-type="text" id="" font-size="12.500000" x="867" y="240">K131</text>
<text font-family="宋体" text-anchor="start" fill="#FFFFFF" shape-type="text" id="" font-size="12.500000" x="969" y="230">V209</text>
<text font-family="宋体" text-anchor="start" fill="#FFFFFF" shape-type="text" id="" font-size="11.000000" x="711" y="664">Condensate Return</text>
<text font-family="宋体" text-anchor="start" fill="#FFFFFF" shape-type="text" id="" font-size="11.000000" x="986" y="695">E201</text>
<text font-family="宋体" text-anchor="start" fill="#FFFFFF" shape-type="text" id="" font-size="11.000000" x="765" y="475">E182</text>
<text font-family="宋体" text-anchor="start" fill="#FFFFFF" shape-type="text" id="" font-size="11.000000" x="782" y="562">MP Steam</text>
<text font-family="宋体" text-anchor="start" fill="#FFFFFF" shape-type="text" id="" font-size="11.000000" x="318" y="573">V184</text>
<text font-family="宋体" text-anchor="start" fill="#000000" shape-type="text" id="" font-size="16.250000" font-weight="bold" x="198" y="395">C182A</text>
<text font-family="宋体" text-anchor="start" fill="#000000" shape-type="text" id="" font-size="16.250000" font-weight="bold" x="455" y="394">C182B</text>
<text font-family="宋体" text-anchor="start" fill="#000000" shape-type="text" id="" font-size="14.750000" font-weight="bold" x="200" y="410">A BED</text>
<text font-family="宋体" text-anchor="start" fill="#000000" shape-type="text" id="" font-size="14.750000" font-weight="bold" x="458" y="410">B BED</text>
<text font-family="宋体" text-anchor="start" fill="#FFFFFF" shape-type="text" id="" font-size="11.000000" x="11" y="684">Air form C161</text>
<text font-family="宋体" text-anchor="start" fill="#FFFFFF" shape-type="text" id="" font-size="14.750000" x="15" y="707">DCAC</text>
<rect shape-type="rectangle" x="22" y="458" width="77" height="54" fill="none" stroke="#0000FF" stroke-width="3.00"/>
<line shape-type="limitline" x1="97" y1="486" x2="23" y2="486" fill="#00FFFF" stroke="#FFFFFF" stroke-width="3.00"/>
<text font-family="宋体" text-anchor="start" fill="#00FF00" shape-type="text" id="" font-size="11.000000" x="27" y="478">CYCLETIMER</text>
<rect shape-type="rectangle" x="217" y="115" width="62" height="27" fill="#4A494A" stroke="#C0C0C0" stroke-width="3.00"/>
<rect shape-type="rectangle" x="279" y="115" width="38" height="27" fill="#4A494A" stroke="#C0C0C0" stroke-width="3.00"/>
<text font-family="宋体" text-anchor="start" fill="#00FF42" shape-type="text" id="" font-size="12.500000" font-weight="bold" x="285" y="132">PPM</text>
<rect shape-type="rectangle" x="217" y="89" width="62" height="27" fill="#4A494A" stroke="#C0C0C0" stroke-width="3.00"/>
<rect shape-type="rectangle" x="279" y="89" width="38" height="27" fill="#4A494A" stroke="#C0C0C0" stroke-width="3.00"/>
<text font-family="宋体" text-anchor="start" fill="#00FF42" shape-type="text" id="" font-size="13.250000" font-weight="bold" x="285" y="107">PPM</text>
<rect shape-type="rectangle" x="396" y="97" width="62" height="27" fill="#4A494A" stroke="#C0C0C0" stroke-width="3.00"/>
<rect shape-type="rectangle" x="458" y="97" width="38" height="27" fill="#4A494A" stroke="#C0C0C0" stroke-width="3.00"/>
<text font-family="宋体" text-anchor="start" fill="#00FF42" shape-type="text" id="" font-size="12.500000" font-weight="bold" x="464" y="114">DEG</text>
<rect shape-type="rectangle" x="776" y="85" width="62" height="27" fill="#4A494A" stroke="#C0C0C0" stroke-width="3.00"/>
<rect shape-type="rectangle" x="838" y="85" width="38" height="27" fill="#4A494A" stroke="#C0C0C0" stroke-width="3.00"/>
<text font-family="宋体" text-anchor="start" fill="#00FF42" shape-type="text" id="" font-size="12.500000" font-weight="bold" x="838" y="102">M3/H</text>
<rect shape-type="rectangle" x="854" y="581" width="62" height="27" fill="#4A494A" stroke="#C0C0C0" stroke-width="3.00"/>
<rect shape-type="rectangle" x="916" y="581" width="38" height="27" fill="#4A494A" stroke="#C0C0C0" stroke-width="3.00"/>
<text font-family="宋体" text-anchor="start" fill="#00FF42" shape-type="text" id="" font-size="12.500000" font-weight="bold" x="916" y="598">M3/H</text>
<rect shape-type="rectangle" x="475" y="151" width="62" height="27" fill="#4A494A" stroke="#C0C0C0" stroke-width="3.00"/>
<rect shape-type="rectangle" x="537" y="151" width="38" height="27" fill="#4A494A" stroke="#C0C0C0" stroke-width="3.00"/>
<text font-family="宋体" text-anchor="start" fill="#00FF42" shape-type="text" id="" font-size="12.500000" font-weight="bold" x="537" y="168">M3/H</text>
<rect shape-type="rectangle" x="540" y="194" width="62" height="27" fill="#4A494A" stroke="#C0C0C0" stroke-width="3.00"/>
<rect shape-type="rectangle" x="602" y="194" width="38" height="27" fill="#4A494A" stroke="#C0C0C0" stroke-width="3.00"/>
<text font-family="宋体" text-anchor="start" fill="#00FF42" shape-type="text" id="" font-size="12.500000" font-weight="bold" x="607" y="211">DEG</text>
<rect shape-type="rectangle" x="499" y="317" width="62" height="27" fill="#4A494A" stroke="#C0C0C0" stroke-width="3.00"/>
<rect shape-type="rectangle" x="561" y="317" width="38" height="27" fill="#4A494A" stroke="#C0C0C0" stroke-width="3.00"/>
<text font-family="宋体" text-anchor="start" fill="#00FF42" shape-type="text" id="" font-size="12.500000" font-weight="bold" x="566" y="334">KPA</text>
<rect shape-type="rectangle" x="117" y="314" width="62" height="27" fill="#4A494A" stroke="#C0C0C0" stroke-width="3.00"/>
<rect shape-type="rectangle" x="179" y="314" width="38" height="27" fill="#4A494A" stroke="#C0C0C0" stroke-width="3.00"/>
<text font-family="宋体" text-anchor="start" fill="#00FF42" shape-type="text" id="" font-size="12.500000" font-weight="bold" x="184" y="331">KPA</text>
<rect shape-type="rectangle" x="179" y="478" width="38" height="27" fill="#4A494A" stroke="#C0C0C0" stroke-width="3.00"/>
<text font-family="宋体" text-anchor="start" fill="#00FF42" shape-type="text" id="" font-size="12.500000" font-weight="bold" x="184" y="496">DEG</text>
<rect shape-type="rectangle" x="120" y="667" width="62" height="27" fill="#4A494A" stroke="#C0C0C0" stroke-width="3.00"/>
<rect shape-type="rectangle" x="182" y="667" width="38" height="27" fill="#4A494A" stroke="#C0C0C0" stroke-width="3.00"/>
<text font-family="宋体" text-anchor="start" fill="#00FF42" shape-type="text" id="" font-size="12.500000" font-weight="bold" x="187" y="684">DEG</text>
<rect shape-type="rectangle" x="579" y="437" width="62" height="27" fill="#4A494A" stroke="#C0C0C0" stroke-width="3.00"/>
<rect shape-type="rectangle" x="641" y="437" width="38" height="27" fill="#4A494A" stroke="#C0C0C0" stroke-width="3.00"/>
<text font-family="宋体" text-anchor="start" fill="#00FF42" shape-type="text" id="" font-size="12.500000" font-weight="bold" x="646" y="454">DEG</text>
<rect shape-type="rectangle" x="501" y="478" width="62" height="27" fill="#4A494A" stroke="#C0C0C0" stroke-width="3.00"/>
<rect shape-type="rectangle" x="563" y="478" width="38" height="27" fill="#4A494A" stroke="#C0C0C0" stroke-width="3.00"/>
<text font-family="宋体" text-anchor="start" fill="#00FF42" shape-type="text" id="" font-size="12.500000" font-weight="bold" x="568" y="495">DEG</text>
<rect shape-type="rectangle" x="642" y="521" width="62" height="27" fill="#4A494A" stroke="#C0C0C0" stroke-width="3.00"/>
<rect shape-type="rectangle" x="704" y="521" width="38" height="27" fill="#4A494A" stroke="#C0C0C0" stroke-width="3.00"/>
<text font-family="宋体" text-anchor="start" fill="#00FF42" shape-type="text" id="" font-size="12.500000" font-weight="bold" x="709" y="538">DEG</text>
<rect shape-type="rectangle" x="860" y="681" width="62" height="27" fill="#4A494A" stroke="#C0C0C0" stroke-width="3.00"/>
<rect shape-type="rectangle" x="922" y="681" width="38" height="27" fill="#4A494A" stroke="#C0C0C0" stroke-width="3.00"/>
<text font-family="宋体" text-anchor="start" fill="#00FF42" shape-type="text" id="" font-size="12.500000" font-weight="bold" x="936" y="698">%</text>
<rect shape-type="rectangle" x="22" y="458" width="77" height="54" fill="none" stroke="#FFFFFF" stroke-width="3.00"/>
<line shape-type="limitline" x1="413" y1="255" x2="488" y2="255" fill="#00FFFF" stroke="#BDE7FF" stroke-width="3.00"/>
<line shape-type="limitline" x1="308" y1="256" x2="415" y2="256" fill="#00FFFF" stroke="#84CFFF" stroke-width="3.00"/>
<g shape-type="group">
<rect shape-type="rectangle" x="414" y="237" width="15" height="10" fill="#C0C0C0" stroke="#C0C0C0" stroke-width="1.00"/>
<g shape-type="group">
<polygon shape-type="trapezium" points="410,250 410,262 422,256 422,256 410,250" fill="#C0C0C0" stroke="#C0C0C0" stroke-width="1.00"/>
<polygon shape-type="trapezium" points="432,250 432,262 421,256 421,256 432,250" fill="#C0C0C0" stroke="#C0C0C0" stroke-width="1.00"/>
</g>
<line shape-type="limitline" x1="421" y1="245" x2="420" y2="257" fill="#C0C0C0" stroke="#C0C0C0" stroke-width="1.00"/>
</g>
<text font-family="宋体" text-anchor="start" fill="#00FFFF" shape-type="text" id="" font-size="16.250000" font-weight="bold" x="757" y="592">T</text>
<rect shape-type="rectangle" x="396" y="70" width="101" height="27" fill="#4A494A" stroke="#C0C0C0" stroke-width="3.00"/>
<text font-family="宋体" text-anchor="start" fill="#ADAAAD" shape-type="text" id="" font-size="12.500000" font-weight="bold" x="414" y="89">9TI1811</text>
<rect shape-type="rectangle" x="325" y="92" width="41" height="27" fill="#0000FF" stroke="#000000" stroke-width="1.00"/>
<text font-family="宋体" text-anchor="start" fill="#FFFFFF" shape-type="text" id="" font-size="12.500000" font-weight="bold" x="332" y="110">CO2</text>
<text font-family="宋体" text-anchor="start" fill="#FFFFFF" shape-type="text" id="" font-size="12.500000" x="980" y="305">FV1830_3</text>
<text font-family="宋体" text-anchor="start" fill="#FFFFFF" shape-type="text" id="" font-size="12.500000" x="815" y="477">FV1830_1</text>
<text font-family="宋体" text-anchor="start" fill="#FFFFFF" shape-type="text" id="" font-size="12.500000" x="739" y="372">FV1830_2</text>
<text font-family="宋体" text-anchor="start" fill="#FFFFFF" shape-type="text" id="" font-size="12.500000" x="322" y="315">HV1814</text>
<text font-family="宋体" text-anchor="start" fill="#FFFFFF" shape-type="text" id="" font-size="12.500000" x="736" y="176">HV1808</text>
<rect shape-type="rectangle" x="-1" y="746" width="1069" height="63" fill="#BDBABD" stroke="#BDBABD" stroke-width="1.00"/>
<g shape-type="group">
<rect shape-type="rectangle" x="996" y="758" width="48" height="43" fill="#C6C3C6" stroke="#C6C3C6" stroke-width="1.00"/>
<polygon shape-type="trapezium" points="1013,789 1013,770 1031,779 1031,779 1013,789" fill="#4A494A" stroke="#C6C3C6" stroke-width="2.00"/>
</g>
<g shape-type="group">
<rect shape-type="rectangle" x="11" y="758" width="48" height="40" fill="#C6C3C6" stroke="#C6C3C6" stroke-width="1.00"/>
<polygon shape-type="trapezium" points="40,786 40,767 21,776 21,776 40,786" fill="#4A494A" stroke="#C6C3C6" stroke-width="2.00"/>
</g>
<a xlink:href="mac.svg">
<g shape-type="button">
<rect fill="#C0C0C0" stroke-width="0.3" stroke="#FFFFFF" x="77" y="756" width="92" height="42" shape-type="buttonrect"/>
<text font-family="宋体" text-anchor="middle" dominant-baseline="middle" fill="#000000" font-size="13.500000" x="123" y="783" shape-type="buttontext">MAC</text>
</g>
</a>
<a xlink:href="dcac.svg">
<g shape-type="button">
<rect fill="#C0C0C0" stroke-width="0.3" stroke="#FFFFFF" x="182" y="756" width="92" height="42" shape-type="buttonrect"/>
<text font-family="宋体" text-anchor="middle" dominant-baseline="middle" fill="#000000" font-size="13.500000" x="228" y="783" shape-type="buttontext">DCAC</text>
</g>
</a>
<a xlink:href="e201.svg">
<g shape-type="button">
<rect fill="#C0C0C0" stroke-width="0.3" stroke="#FFFFFF" x="288" y="756" width="92" height="42" shape-type="buttonrect"/>
<text font-family="宋体" text-anchor="middle" dominant-baseline="middle" fill="#000000" font-size="13.500000" x="334" y="783" shape-type="buttontext">E201</text>
</g>
</a>
<a xlink:href="e204.svg">
<g shape-type="button">
<rect fill="#C0C0C0" stroke-width="0.3" stroke="#FFFFFF" x="395" y="756" width="91" height="42" shape-type="buttonrect"/>
<text font-family="宋体" text-anchor="middle" dominant-baseline="middle" fill="#000000" font-size="13.500000" x="441" y="783" shape-type="buttontext">E204</text>
</g>
</a>
<a xlink:href="k131.svg">
<g shape-type="button">
<rect fill="#C0C0C0" stroke-width="0.3" stroke="#FFFFFF" x="502" y="756" width="92" height="42" shape-type="buttonrect"/>
<text font-family="宋体" text-anchor="middle" dominant-baseline="middle" fill="#000000" font-size="13.500000" x="548" y="783" shape-type="buttontext">K131</text>
</g>
</a>
<a xlink:href="dist.svg">
<g shape-type="button">
<rect fill="#C0C0C0" stroke-width="0.3" stroke="#FFFFFF" x="609" y="756" width="92" height="42" shape-type="buttonrect"/>
<text font-family="宋体" text-anchor="middle" dominant-baseline="middle" fill="#000000" font-size="13.500000" x="655" y="783" shape-type="buttontext">DIST</text>
</g>
</a>
<line shape-type="limitline" x1="172" y1="703" x2="172" y2="690" fill="#00FFFF" stroke="#FFFFFF" stroke-width="1.00" stroke-dasharray="5 10"/>
<line shape-type="limitline" x1="689" y1="449" x2="678" y2="449" fill="#00FFFF" stroke="#FFFFFF" stroke-width="1.00" stroke-dasharray="5 10"/>
<line shape-type="limitline" x1="500" y1="487" x2="488" y2="487" fill="#00FFFF" stroke="#FFFFFF" stroke-width="1.00" stroke-dasharray="5 10"/>
<line shape-type="limitline" x1="523" y1="359" x2="523" y2="343" fill="#00FFFF" stroke="#FFFFFF" stroke-width="1.00" stroke-dasharray="5 10"/>
<line shape-type="limitline" x1="191" y1="362" x2="191" y2="338" fill="#00FFFF" stroke="#FFFFFF" stroke-width="1.00" stroke-dasharray="5 10"/>
<line shape-type="limitline" x1="226" y1="490" x2="217" y2="490" fill="#00FFFF" stroke="#FFFFFF" stroke-width="1.00" stroke-dasharray="5 10"/>
<line shape-type="limitline" x1="453" y1="134" x2="453" y2="123" fill="#00FFFF" stroke="#FFFFFF" stroke-width="1.00" stroke-dasharray="5 10"/>
<line shape-type="limitline" x1="590" y1="229" x2="590" y2="218" fill="#00FFFF" stroke="#FFFFFF" stroke-width="1.00" stroke-dasharray="5 10"/>
<line shape-type="limitline" x1="534" y1="150" x2="534" y2="139" fill="#00FFFF" stroke="#FFFFFF" stroke-width="1.00" stroke-dasharray="5 10"/>
<line shape-type="limitline" x1="821" y1="129" x2="821" y2="111" fill="#00FFFF" stroke="#FFFFFF" stroke-width="1.00" stroke-dasharray="5 10"/>
<line shape-type="limitline" x1="969" y1="593" x2="955" y2="593" fill="#00FFFF" stroke="#FFFFFF" stroke-width="1.00" stroke-dasharray="5 10"/>
<line shape-type="limitline" x1="710" y1="521" x2="710" y2="506" fill="#00FFFF" stroke="#FFFFFF" stroke-width="1.00" stroke-dasharray="5 10"/>
<rect shape-type="rectangle" x="14" y="343" width="57" height="25" fill="#4A494A" stroke="#C0C0C0" stroke-width="3.00"/>
<rect shape-type="rectangle" x="71" y="343" width="34" height="25" fill="#4A494A" stroke="#C0C0C0" stroke-width="3.00"/>
<text font-family="宋体" text-anchor="start" fill="#00FF42" shape-type="text" id="" font-size="11.000000" font-weight="bold" x="76" y="358">KPA</text>
<rect shape-type="rectangle" x="14" y="319" width="92" height="24" fill="#4A494A" stroke="#C0C0C0" stroke-width="3.00"/>
<text font-family="宋体" text-anchor="start" fill="#ADAAAD" shape-type="text" id="" font-size="11.750000" font-weight="bold" x="30" y="336">9PDI1809</text>
<rect shape-type="rectangle" x="117" y="478" width="62" height="27" fill="#4A494A" stroke="#C0C0C0" stroke-width="3.00"/>
<text font-family="Arial" text-anchor="start" fill="#00FFFF" shape-type="realdata" id="HCAB_KF_9PDI1809" font-size="15.500000" x="20" y="361">XXXX</text>
<text font-family="Arial" text-anchor="start" fill="#00FFFF" shape-type="realdata" id="HCAB_KF_9PI1804A" font-size="16.250000" x="122" y="334">XXXX</text>
<text font-family="Arial" text-anchor="start" fill="#00FFFF" shape-type="realdata" id="HCAB_KF_9PI1804B" font-size="12.500000" x="507" y="334">XXXX</text>
<text font-family="Arial" text-anchor="start" fill="#00FFFF" shape-type="realdata" id="HCAB_KF_9TI1801A" font-size="15.500000" x="123" y="497">XXXX</text>
<text font-family="Arial" text-anchor="start" fill="#00FFFF" shape-type="realdata" id="HCAB_KF_9TI1801B" font-size="12.500000" x="507" y="496">XXXX</text>
<text font-family="Arial" text-anchor="start" fill="#00FFFF" shape-type="realdata" id="HCAB_KF_9TI1602" font-size="12.500000" x="126" y="685">XXXX</text>
<text font-family="Arial" text-anchor="start" fill="#00FFFF" shape-type="realdata" id="HCAB_KF_9QI1842" font-size="12.500000" x="223" y="105">XXXX</text>
<text font-family="Arial" text-anchor="start" fill="#00FFFF" shape-type="realdata" id="HCAB_KF_9QI1841" font-size="12.500000" x="225" y="132">XXXX</text>
<text font-family="Arial" text-anchor="start" fill="#00FFFF" shape-type="realdata" id="HCAB_KF_9TT1811" font-size="12.500000" x="403" y="114">XXXX</text>
<text font-family="Arial" text-anchor="start" fill="#00FFFF" shape-type="realdata" id="HCAB_KF_9FI1817" font-size="12.500000" x="480" y="169">XXXX</text>
<text font-family="Arial" text-anchor="start" fill="#00FFFF" shape-type="realdata" id="HCAB_KF_9FI1808" font-size="12.500000" x="781" y="103">XXXX</text>
<text font-family="Arial" text-anchor="start" fill="#00FFFF" shape-type="realdata" id="HCAB_KF_9QI1835" font-size="12.500000" x="545" y="210">XXXX</text>
<text font-family="Arial" text-anchor="start" fill="#00FFFF" shape-type="realdata" id="HCAB_KF_9TI1838" font-size="12.500000" x="585" y="456">XXXX</text>
<text font-family="Arial" text-anchor="start" fill="#00FFFF" shape-type="realdata" id="HCAB_KF_9TI1837" font-size="12.500000" x="647" y="539">XXXX</text>
<text font-family="Arial" text-anchor="start" fill="#00FFFF" shape-type="realdata" id="HCAB_KF_9FI1830" font-size="12.500000" x="860" y="599">XXXX</text>
<text font-family="Arial" text-anchor="start" fill="#00FFFF" shape-type="realdata" id="HCAB_KF_9QI2144" font-size="12.500000" x="868" y="700">XXXX</text>
<text font-family="Arial" text-anchor="start" fill="#00FFFF" shape-type="realdata" id="HCAB_KF_9TSATIMREM" font-size="12.500000" x="28" y="504">XXXX</text>
<a xlink:href="700_ML.svg">
<g shape-type="button">
<rect fill="#C0C0C0" stroke-width="0.3" stroke="#FFFFFF" x="957" y="9" width="98" height="30" shape-type="buttonrect"/>
<text font-family="宋体" text-anchor="middle" dominant-baseline="middle" fill="#800000" font-size="13.500000" font-weight="bold" x="1006" y="30" shape-type="buttontext">返回上一级</text>
</g>
</a>
</svg>
