<?xml version="1.0"?>
<?xml-stylesheet type='text/javascript'?>
<!--Draw SVG: 2019-11-25 09:41:25 47-Monday-->
<svg xmlns="http://www.w3.org/2000/svg" xmlns:xlink="http://www.w3.org/1999/xlink" version="1.1" style="background-color:#000000" width="1066" height="800" viewbox="0 0 1066 800">
<defs>
<linearGradient x1="0.000000%" y1="50.000000%" x2="100.000000%" y2="50.000000%" id="lgradient9">
<stop offset="0" stop-color="#2C2C2C" stop-opacity="1"/>
<stop offset="0.5" stop-color="#FFFFFF" stop-opacity="1"/>
<stop offset="1" stop-color="#2C2C2C" stop-opacity="1"/>
</linearGradient>
<linearGradient x1="0.000000%" y1="50.000000%" x2="100.000000%" y2="50.000000%" id="lgradient10">
<stop offset="0" stop-color="#2C2C2C" stop-opacity="1"/>
<stop offset="0.5" stop-color="#FFFFFF" stop-opacity="1"/>
<stop offset="1" stop-color="#2C2C2C" stop-opacity="1"/>
</linearGradient>
<linearGradient x1="50.000000%" y1="0.000000%" x2="50.000000%" y2="100.000000%" id="lgradient11_0">
<stop offset="0" stop-color="#2C2C2C" stop-opacity="1"/>
<stop offset="0.5" stop-color="#FFFFFF" stop-opacity="1"/>
<stop offset="1" stop-color="#2C2C2C" stop-opacity="1"/>
</linearGradient>
<linearGradient x1="50.000000%" y1="0.000000%" x2="50.000000%" y2="100.000000%" id="lgradient11_1">
<stop offset="0" stop-color="#2C2C2C" stop-opacity="1"/>
<stop offset="0.5" stop-color="#FFFFFF" stop-opacity="1"/>
<stop offset="1" stop-color="#2C2C2C" stop-opacity="1"/>
</linearGradient>
<linearGradient x1="50.000000%" y1="0.000000%" x2="50.000000%" y2="100.000000%" id="lgradient11_2">
<stop offset="0" stop-color="#2C2C2C" stop-opacity="1"/>
<stop offset="0.5" stop-color="#FFFFFF" stop-opacity="1"/>
<stop offset="1" stop-color="#2C2C2C" stop-opacity="1"/>
</linearGradient>
<linearGradient x1="0.000000%" y1="50.000000%" x2="100.000000%" y2="50.000000%" id="lgradient19">
<stop offset="0" stop-color="#2C2C2C" stop-opacity="1"/>
<stop offset="0.5" stop-color="#FFFFFF" stop-opacity="1"/>
<stop offset="1" stop-color="#2C2C2C" stop-opacity="1"/>
</linearGradient>
<linearGradient x1="50.000000%" y1="0.000000%" x2="50.000000%" y2="100.000000%" id="lgradient21">
<stop offset="0" stop-color="#2C2C2C" stop-opacity="1"/>
<stop offset="0.5" stop-color="#FFFFFF" stop-opacity="1"/>
<stop offset="1" stop-color="#2C2C2C" stop-opacity="1"/>
</linearGradient>
<linearGradient x1="50.000000%" y1="0.000000%" x2="50.000000%" y2="100.000000%" id="lgradient22">
<stop offset="0" stop-color="#2C2C2C" stop-opacity="1"/>
<stop offset="0.5" stop-color="#FFFFFF" stop-opacity="1"/>
<stop offset="1" stop-color="#2C2C2C" stop-opacity="1"/>
</linearGradient>
<linearGradient x1="50.000000%" y1="0.000000%" x2="50.000000%" y2="100.000000%" id="lgradient36">
<stop offset="0" stop-color="#2C2C2C" stop-opacity="1"/>
<stop offset="0.5" stop-color="#FFFFFF" stop-opacity="1"/>
<stop offset="1" stop-color="#2C2C2C" stop-opacity="1"/>
</linearGradient>
<linearGradient x1="50.000000%" y1="0.000000%" x2="50.000000%" y2="100.000000%" id="lgradient37">
<stop offset="0" stop-color="#2C2C2C" stop-opacity="1"/>
<stop offset="0.5" stop-color="#FFFFFF" stop-opacity="1"/>
<stop offset="1" stop-color="#2C2C2C" stop-opacity="1"/>
</linearGradient>
<linearGradient x1="0.000000%" y1="50.000000%" x2="100.000000%" y2="50.000000%" id="lgradient110">
<stop offset="0" stop-color="#2C2C2C" stop-opacity="1"/>
<stop offset="0.5" stop-color="#FFFFFF" stop-opacity="1"/>
<stop offset="1" stop-color="#2C2C2C" stop-opacity="1"/>
</linearGradient>
<linearGradient x1="0.000000%" y1="50.000000%" x2="100.000000%" y2="50.000000%" id="lgradient111">
<stop offset="0" stop-color="#2C2C2C" stop-opacity="1"/>
<stop offset="0.5" stop-color="#FFFFFF" stop-opacity="1"/>
<stop offset="1" stop-color="#2C2C2C" stop-opacity="1"/>
</linearGradient>
<radialGradient cx="50.000000%" cy="50.000000%" r="50.000000%" fx="50.000000%" fy="50.000000%" id="rgradient115_3">
<stop offset="0%" stop-color="#FFFFFF" stop-opacity="1"/>
<stop offset="100%" stop-color="#2C2C2C" stop-opacity="1"/>
</radialGradient>
<radialGradient cx="50.000000%" cy="50.000000%" r="50.000000%" fx="50.000000%" fy="50.000000%" id="rgradient116_3">
<stop offset="0%" stop-color="#FFFFFF" stop-opacity="1"/>
<stop offset="100%" stop-color="#2C2C2C" stop-opacity="1"/>
</radialGradient>
</defs>
<rect shape-type="rectangle" x="231" y="95" width="87" height="28" fill="#4A494A" stroke="#C0C0C0" stroke-width="3.00"/>
<rect shape-type="rectangle" x="231" y="121" width="87" height="28" fill="#4A494A" stroke="#C0C0C0" stroke-width="3.00"/>
<rect shape-type="rectangle" x="318" y="121" width="37" height="28" fill="#4A494A" stroke="#C0C0C0" stroke-width="3.00"/>
<rect shape-type="rectangle" x="318" y="94" width="37" height="28" fill="#4A494A" stroke="#C0C0C0" stroke-width="3.00"/>
<rect shape-type="rectangle" x="318" y="68" width="37" height="28" fill="#4A494A" stroke="#C0C0C0" stroke-width="3.00"/>
<rect shape-type="rectangle" x="231" y="68" width="87" height="28" fill="#4A494A" stroke="#C0C0C0" stroke-width="3.00"/>
<rect shape-type="rectangle" x="650" y="474" width="43" height="9" fill="#848684" stroke="#63656B" stroke-width="2.00"/>
<ellipse shape-type="ellipse" cx="670" cy="451" rx="31" ry="29" fill="#008284" stroke="#008284" stroke-width="2.00"/>
<rect shape-type="rectangle" x="524" y="207" width="21" height="33" fill="url(#lgradient9)" stroke="#808080" stroke-width="1.00"/>
<rect shape-type="rectangle" x="473" y="217" width="21" height="33" fill="url(#lgradient10)" stroke="#808080" stroke-width="1.00"/>
<g shape-type="group">
<rect shape-type="roundRectangle" rx="20" ry="20" x="189" y="549" width="111" height="43" fill="url(#lgradient11_0)" stroke="#000000" stroke-width="1.00"/>
<rect shape-type="rectangle" x="208" y="546" width="12" height="47" fill="url(#lgradient11_1)" stroke="#000000" stroke-width="1.00"/>
<rect shape-type="rectangle" x="268" y="546" width="12" height="47" fill="url(#lgradient11_2)" stroke="#000000" stroke-width="1.00"/>
</g>
<polygon shape-type="trapezium" points="593,367 593,219 445,250 445,336 593,367" fill="#000084" stroke="#000084" stroke-width="1.00"/>
<polygon shape-type="trapezium" points="591,364 591,228 455,260 455,332 591,364" fill="#31BE00" stroke="#31BE00" stroke-width="1.00"/>
<rect shape-type="rectangle" x="0" y="0" width="1069" height="47" fill="#9C9A9C" stroke="#C0C0C0" stroke-width="1.00"/>
<rect shape-type="rectangle" x="8" y="4" width="69" height="34" fill="#E7E3E7" stroke="#E7E3E7" stroke-width="1.00"/>
<rect shape-type="rectangle" x="295" y="5" width="495" height="35" fill="#E7E3E7" stroke="#E7E3E7" stroke-width="1.00"/>
<text font-family="宋体" text-anchor="start" fill="#000000" shape-type="text" id="" font-size="16.250000" font-weight="bold" x="19" y="27">TURB</text>
<text font-family="宋体" text-anchor="start" fill="#000000" shape-type="text" id="" font-size="26.750000" font-weight="bold" x="424" y="32">蒸汽透平D113</text>
<polygon shape-type="trapezium" points="590,359 590,223 454,255 454,327 590,359" fill="url(#lgradient19)" stroke="#808080" stroke-width="1.00"/>
<text font-family="宋体" text-anchor="start" fill="#000000" shape-type="text" id="" font-size="22.250000" font-weight="bold" x="492" y="301">D113</text>
<rect shape-type="rectangle" x="222" y="285" width="224" height="21" fill="url(#lgradient21)" stroke="#808080" stroke-width="1.00"/>
<rect shape-type="rectangle" x="595" y="285" width="141" height="21" fill="url(#lgradient22)" stroke="#808080" stroke-width="1.00"/>
<rect shape-type="rectangle" x="347" y="286" width="34" height="21" fill="#494A49" stroke="#494A49" stroke-width="1.00"/>
<text font-family="宋体" text-anchor="start" fill="#00FF00" shape-type="text" id="" font-size="12.500000" x="352" y="302">MAC</text>
<text font-family="宋体" text-anchor="start" fill="#000000" shape-type="text" id="" font-size="11.750000" font-weight="bold" x="220" y="576">E1135</text>
<line shape-type="limitline" x1="484" y1="214" x2="484" y2="125" fill="#00FFFF" stroke="#BD6500" stroke-width="3.00"/>
<line shape-type="limitline" x1="794" y1="126" x2="485" y2="126" fill="#00FFFF" stroke="#BD6500" stroke-width="3.00"/>
<line shape-type="limitline" x1="796" y1="144" x2="534" y2="144" fill="#00FFFF" stroke="#BD6500" stroke-width="3.00"/>
<line shape-type="limitline" x1="534" y1="206" x2="534" y2="145" fill="#00FFFF" stroke="#BD6500" stroke-width="3.00"/>
<line shape-type="limitline" x1="472" y1="231" x2="106" y2="231" fill="#00FFFF" stroke="#BDFFFF" stroke-width="3.00"/>
<line shape-type="limitline" x1="136" y1="228" x2="136" y2="117" fill="#00FFFF" stroke="#BDFFFF" stroke-width="3.00"/>
<line shape-type="limitline" x1="197" y1="118" x2="137" y2="118" fill="#00FFFF" stroke="#BDFFFF" stroke-width="3.00"/>
<line shape-type="limitline" x1="197" y1="229" x2="197" y2="118" fill="#00FFFF" stroke="#BDFFFF" stroke-width="3.00"/>
<line shape-type="limitline" x1="332" y1="229" x2="332" y2="150" fill="#00FFFF" stroke="#BDFFFF" stroke-width="3.00" stroke-dasharray="5 10"/>
<line shape-type="limitline" x1="169" y1="116" x2="169" y2="100" fill="#00FFFF" stroke="#BDFFFF" stroke-width="3.00"/>
<polygon shape-type="trapezium" points="179,90 158,90 164,72 174,72 179,90" fill="url(#lgradient36)" stroke="#808080" stroke-width="1.00"/>
<polygon shape-type="trapezium" points="178,93 160,93 165,101 173,101 178,93" fill="url(#lgradient37)" stroke="#808080" stroke-width="1.00"/>
<line shape-type="limitline" x1="548" y1="404" x2="548" y2="357" fill="#00FFFF" stroke="#BDFFFF" stroke-width="3.00"/>
<line shape-type="limitline" x1="669" y1="405" x2="548" y2="405" fill="#00FFFF" stroke="#BDFFFF" stroke-width="3.00"/>
<line shape-type="limitline" x1="670" y1="403" x2="670" y2="419" fill="#00FFFF" stroke="#BDFFFF" stroke-width="3.00"/>
<line shape-type="limitline" x1="671" y1="570" x2="671" y2="556" fill="#00FFFF" stroke="#00FFFF" stroke-width="3.00"/>
<line shape-type="limitline" x1="672" y1="572" x2="455" y2="572" fill="#00FFFF" stroke="#00FFFF" stroke-width="3.00"/>
<line shape-type="limitline" x1="452" y1="629" x2="452" y2="547" fill="#00FFFF" stroke="#00FFFF" stroke-width="3.00"/>
<line shape-type="limitline" x1="453" y1="548" x2="417" y2="548" fill="#00FFFF" stroke="#00FFFF" stroke-width="3.00"/>
<line shape-type="limitline" x1="452" y1="629" x2="418" y2="629" fill="#00FFFF" stroke="#00FFFF" stroke-width="3.00"/>
<line shape-type="limitline" x1="395" y1="518" x2="352" y2="518" fill="#00FFFF" stroke="#00FFFF" stroke-width="3.00"/>
<line shape-type="limitline" x1="395" y1="529" x2="395" y2="518" fill="#00FFFF" stroke="#00FFFF" stroke-width="3.00"/>
<line shape-type="limitline" x1="353" y1="608" x2="353" y2="518" fill="#00FFFF" stroke="#00FFFF" stroke-width="3.00"/>
<line shape-type="limitline" x1="394" y1="609" x2="353" y2="609" fill="#00FFFF" stroke="#00FFFF" stroke-width="3.00"/>
<line shape-type="limitline" x1="396" y1="618" x2="396" y2="609" fill="#00FFFF" stroke="#00FFFF" stroke-width="3.00"/>
<line shape-type="limitline" x1="352" y1="572" x2="301" y2="572" fill="#00FFFF" stroke="#00FFFF" stroke-width="3.00"/>
<line shape-type="limitline" x1="188" y1="571" x2="97" y2="571" fill="#00FFFF" stroke="#00FFFF" stroke-width="3.00"/>
<line shape-type="limitline" x1="180" y1="635" x2="180" y2="571" fill="#00FFFF" stroke="#00FFFF" stroke-width="3.00"/>
<line shape-type="limitline" x1="180" y1="637" x2="99" y2="637" fill="#00FFFF" stroke="#00FFFF" stroke-width="3.00"/>
<g shape-type="group">
<rect shape-type="rectangle" x="122" y="153" width="7" height="12" fill="#C0C0C0" stroke="#C0C0C0" stroke-width="1.00"/>
<g shape-type="group">
<polygon shape-type="trapezium" points="142,168 131,168 137,159 137,159 142,168" fill="#C0C0C0" stroke="#C0C0C0" stroke-width="1.00"/>
<polygon shape-type="trapezium" points="142,151 131,151 137,160 137,160 142,151" fill="#C0C0C0" stroke="#C0C0C0" stroke-width="1.00"/>
</g>
<line shape-type="limitline" x1="128" y1="159" x2="138" y2="160" fill="#C0C0C0" stroke="#C0C0C0" stroke-width="1.00"/>
</g>
<g shape-type="group">
<rect shape-type="rectangle" x="182" y="153" width="8" height="12" fill="#C0C0C0" stroke="#C0C0C0" stroke-width="1.00"/>
<g shape-type="group">
<polygon shape-type="trapezium" points="202,168 192,168 197,159 197,159 202,168" fill="#C0C0C0" stroke="#C0C0C0" stroke-width="1.00"/>
<polygon shape-type="trapezium" points="202,151 192,151 197,160 197,160 202,151" fill="#C0C0C0" stroke="#C0C0C0" stroke-width="1.00"/>
</g>
<line shape-type="limitline" x1="189" y1="159" x2="198" y2="160" fill="#C0C0C0" stroke="#C0C0C0" stroke-width="1.00"/>
</g>
<g shape-type="group">
<rect shape-type="rectangle" x="394" y="211" width="15" height="11" fill="#808080" stroke="#808080" stroke-width="1.00"/>
<g shape-type="group">
<polygon shape-type="trapezium" points="390,224 390,236 402,230 402,230 390,224" fill="#808080" stroke="#808080" stroke-width="1.00"/>
<polygon shape-type="trapezium" points="413,224 413,236 401,230 401,230 413,224" fill="#808080" stroke="#808080" stroke-width="1.00"/>
</g>
<line shape-type="limitline" x1="401" y1="220" x2="400" y2="231" fill="#808080" stroke="#808080" stroke-width="1.00"/>
</g>
<g shape-type="group">
<g shape-type="group">
<polygon shape-type="trapezium" points="138,563 138,577 148,570 148,570 138,563" fill="#C0C0C0" stroke="#C0C0C0" stroke-width="1.00"/>
<polygon shape-type="trapezium" points="158,563 158,577 148,570 148,570 158,563" fill="#C0C0C0" stroke="#C0C0C0" stroke-width="1.00"/>
</g>
<line shape-type="limitline" x1="148" y1="560" x2="147" y2="571" fill="#00FFFF" stroke="#C0C0C0" stroke-width="1.00"/>
<path shape-type="chord" d="M 159,561 A 13,26 0 0,0 138,561 z" fill="#C0C0C0" stroke="#C0C0C0" stroke-width="2.00"/>
</g>
<g shape-type="group">
<g shape-type="group">
<polygon shape-type="trapezium" points="135,631 135,642 146,637 146,637 135,631" fill="#C0C0C0" stroke="#C0C0C0" stroke-width="1.00"/>
<polygon shape-type="trapezium" points="156,631 156,642 146,637 146,637 156,631" fill="#C0C0C0" stroke="#C0C0C0" stroke-width="1.00"/>
</g>
<line shape-type="limitline" x1="146" y1="627" x2="145" y2="638" fill="#00FFFF" stroke="#C0C0C0" stroke-width="1.00"/>
<path shape-type="chord" d="M 157,627 A 13,26 0 0,0 136,627 z" fill="#C0C0C0" stroke="#C0C0C0" stroke-width="2.00"/>
</g>
<g shape-type="group">
<line shape-type="limitline" x1="667" y1="437" x2="616" y2="438" fill="#00FFFF" stroke="#00FF00" stroke-width="2.00"/>
<line shape-type="line" x1="654" y1="450" x2="667" y2="438" fill="#00FFFF" stroke="#00FF00" stroke-width="2.00"/>
<line shape-type="line" x1="667" y1="461" x2="654" y2="451" fill="#00FFFF" stroke="#00FF00" stroke-width="2.00"/>
<line shape-type="limitline" x1="667" y1="461" x2="616" y2="462" fill="#00FFFF" stroke="#00FF00" stroke-width="2.00"/>
</g>
<g shape-type="group">
<line shape-type="limitline" x1="676" y1="437" x2="727" y2="438" fill="#00FFFF" stroke="#00FF00" stroke-width="2.00"/>
<line shape-type="line" x1="689" y1="450" x2="676" y2="438" fill="#00FFFF" stroke="#00FF00" stroke-width="2.00"/>
<line shape-type="line" x1="676" y1="460" x2="689" y2="451" fill="#00FFFF" stroke="#00FF00" stroke-width="2.00"/>
<line shape-type="limitline" x1="676" y1="460" x2="727" y2="461" fill="#00FFFF" stroke="#00FF00" stroke-width="2.00"/>
</g>
<text font-family="宋体" text-anchor="start" fill="#FFFFFF" shape-type="text" id="" font-size="11.000000" x="660" y="472">E1131</text>
<path shape-type="chord" d="M 651,545 A 26,31 0 0,0 693,545 z" fill="#C0C0C0" stroke="#C0C0C0" stroke-width="2.00"/>
<rect shape-type="rectangle" x="650" y="480" width="43" height="65" fill="#63656B" stroke="#63656B" stroke-width="2.00"/>
<text font-family="宋体" text-anchor="start" fill="#FFFFFF" shape-type="text" id="" font-size="14.750000" font-weight="bold" x="57" y="180">VENT #1</text>
<text font-family="宋体" text-anchor="start" fill="#FFFFFF" shape-type="text" id="" font-size="14.000000" font-weight="bold" x="209" y="170">VENT #2</text>
<text font-family="宋体" text-anchor="start" fill="#FFFFFF" shape-type="text" id="" font-size="14.750000" font-weight="bold" x="51" y="214">HP</text>
<text font-family="宋体" text-anchor="start" fill="#FFFFFF" shape-type="text" id="" font-size="12.500000" font-weight="bold" x="20" y="233">SteamFrom</text>
<text font-family="宋体" text-anchor="start" fill="#FFFFFF" shape-type="text" id="" font-size="12.500000" font-weight="bold" x="17" y="254">Coal Boiler</text>
<text font-family="宋体" text-anchor="start" fill="#FFFFFF" shape-type="text" id="" font-size="12.500000" font-weight="bold" x="384" y="203">FV400</text>
<text font-family="宋体" text-anchor="start" fill="#FFFFFF" shape-type="text" id="" font-size="14.000000" font-weight="bold" x="797" y="120">CTL OIL</text>
<text font-family="宋体" text-anchor="start" fill="#FFFFFF" shape-type="text" id="" font-size="12.500000" font-weight="bold" x="867" y="201">空分仪表气压力</text>
<text font-family="宋体" text-anchor="start" fill="#FFFFFF" shape-type="text" id="" font-size="15.500000" font-weight="bold" x="236" y="338">HS-300-1</text>
<text font-family="宋体" text-anchor="start" fill="#FFFFFF" shape-type="text" id="" font-size="12.500000" font-weight="bold" x="588" y="455">CW</text>
<text font-family="宋体" text-anchor="start" fill="#FFFFFF" shape-type="text" id="" font-size="12.500000" font-weight="bold" x="724" y="453">CW</text>
<text font-family="宋体" text-anchor="start" fill="#FFFFFF" shape-type="text" id="" font-size="12.500000" font-weight="bold" x="380" y="666">G1131B</text>
<text font-family="宋体" text-anchor="start" fill="#FFFFFF" shape-type="text" id="" font-size="12.500000" font-weight="bold" x="5" y="565">Condensate</text>
<text font-family="宋体" text-anchor="start" fill="#FFFFFF" shape-type="text" id="" font-size="12.500000" font-weight="bold" x="4" y="632">Condensate</text>
<text font-family="宋体" text-anchor="start" fill="#FFFFFF" shape-type="text" id="" font-size="12.500000" font-weight="bold" x="23" y="583">Racycle</text>
<text font-family="宋体" text-anchor="start" fill="#FFFFFF" shape-type="text" id="" font-size="12.500000" font-weight="bold" x="23" y="649">Racycle</text>
<text font-family="宋体" text-anchor="start" fill="#FFFFFF" shape-type="text" id="" font-size="12.500000" font-weight="bold" x="119" y="543">LV1130-2</text>
<text font-family="宋体" text-anchor="start" fill="#FFFFFF" shape-type="text" id="" font-size="12.500000" font-weight="bold" x="105" y="612">LV1130-1</text>
<text font-family="宋体" text-anchor="start" fill="#FFFFFF" shape-type="text" id="" font-size="12.500000" font-weight="bold" x="381" y="579">G1131A</text>
<text font-family="宋体" text-anchor="start" fill="#FFFFFF" shape-type="text" id="" font-size="9.500000" font-weight="bold" x="548" y="559">CONDENSATE</text>
<text font-family="宋体" text-anchor="start" fill="#00FF42" shape-type="text" id="" font-size="12.500000" font-weight="bold" x="323" y="85">DEG</text>
<text font-family="宋体" text-anchor="start" fill="#00FF42" shape-type="text" id="" font-size="12.500000" font-weight="bold" x="323" y="111">KPA</text>
<text font-family="宋体" text-anchor="start" fill="#00FF42" shape-type="text" id="" font-size="9.500000" font-weight="bold" x="323" y="139">KG/H</text>
<rect shape-type="rectangle" x="623" y="175" width="61" height="28" fill="#4A494A" stroke="#C0C0C0" stroke-width="3.00"/>
<rect shape-type="rectangle" x="684" y="175" width="37" height="28" fill="#4A494A" stroke="#C0C0C0" stroke-width="3.00"/>
<text font-family="宋体" text-anchor="start" fill="#ADAAAD" shape-type="text" id="" font-size="12.500000" font-weight="bold" x="627" y="193">9TI401</text>
<text font-family="宋体" text-anchor="start" fill="#00FF42" shape-type="text" id="" font-size="12.500000" font-weight="bold" x="691" y="193">DEG</text>
<rect shape-type="rectangle" x="203" y="192" width="89" height="28" fill="#4A494A" stroke="#C0C0C0" stroke-width="3.00"/>
<rect shape-type="rectangle" x="292" y="192" width="36" height="28" fill="#4A494A" stroke="#C0C0C0" stroke-width="3.00"/>
<rect shape-type="rectangle" x="878" y="216" width="62" height="28" fill="#4A494A" stroke="#C0C0C0" stroke-width="3.00"/>
<rect shape-type="rectangle" x="940" y="216" width="37" height="28" fill="#4A494A" stroke="#C0C0C0" stroke-width="3.00"/>
<text font-family="宋体" text-anchor="start" fill="#00FF42" shape-type="text" id="" font-size="12.500000" font-weight="bold" x="947" y="234">KPA</text>
<rect shape-type="rectangle" x="742" y="279" width="62" height="28" fill="#4A494A" stroke="#C0C0C0" stroke-width="3.00"/>
<rect shape-type="rectangle" x="804" y="279" width="37" height="28" fill="#4A494A" stroke="#C0C0C0" stroke-width="3.00"/>
<text font-family="宋体" text-anchor="start" fill="#00FF42" shape-type="text" id="" font-size="12.500000" font-weight="bold" x="810" y="298">RPM</text>
<rect shape-type="rectangle" x="623" y="318" width="62" height="28" fill="#4A494A" stroke="#C0C0C0" stroke-width="3.00"/>
<rect shape-type="rectangle" x="685" y="318" width="37" height="28" fill="#4A494A" stroke="#C0C0C0" stroke-width="3.00"/>
<text font-family="宋体" text-anchor="start" fill="#ADAAAD" shape-type="text" id="" font-size="12.500000" font-weight="bold" x="627" y="336">9PI401</text>
<text font-family="宋体" text-anchor="start" fill="#00FF42" shape-type="text" id="" font-size="12.500000" font-weight="bold" x="690" y="336">KPA</text>
<rect shape-type="rectangle" x="361" y="476" width="62" height="28" fill="#4A494A" stroke="#C0C0C0" stroke-width="3.00"/>
<rect shape-type="rectangle" x="423" y="476" width="37" height="28" fill="#4A494A" stroke="#C0C0C0" stroke-width="3.00"/>
<text font-family="宋体" text-anchor="start" fill="#00FF42" shape-type="text" id="" font-size="12.500000" font-weight="bold" x="424" y="494">AMPS</text>
<rect shape-type="rectangle" x="363" y="674" width="62" height="28" fill="#4A494A" stroke="#C0C0C0" stroke-width="3.00"/>
<rect shape-type="rectangle" x="425" y="674" width="37" height="28" fill="#4A494A" stroke="#C0C0C0" stroke-width="3.00"/>
<text font-family="宋体" text-anchor="start" fill="#00FF42" shape-type="text" id="" font-size="12.500000" font-weight="bold" x="426" y="692">AMPS</text>
<rect shape-type="rectangle" x="476" y="184" width="17" height="10" fill="url(#lgradient110)" stroke="#808080" stroke-width="1.00"/>
<rect shape-type="rectangle" x="526" y="171" width="17" height="13" fill="url(#lgradient111)" stroke="#808080" stroke-width="1.00"/>
<polygon shape-type="trapezium" points="102,574 102,567 90,570 90,570 102,574" fill="#00FFFF" stroke="#00FFFF" stroke-width="2.00"/>
<g shape-type="group">
<polygon shape-type="trapezium" points="809,145 809,128 794,136 794,136 809,145" fill="#808080" stroke="#808080" stroke-width="2.00"/>
<rect shape-type="rectangle" x="808" y="132" width="16" height="9" fill="#808080" stroke="#808080" stroke-width="2.00"/>
</g>
<polygon shape-type="trapezium" points="103,641 103,634 91,637 91,637 103,641" fill="#00FFFF" stroke="#00FFFF" stroke-width="2.00"/>
<g shape-type="group">
<rect shape-type="rectangle" x="392" y="527" width="5" height="21" fill="#808080" stroke="#000000" stroke-width="1.00"/>
<rect shape-type="rectangle" x="391" y="557" width="6" height="7" fill="#808080" stroke="#FFFFFF" stroke-width="2.00"/>
<rect shape-type="rectangle" x="409" y="557" width="7" height="7" fill="#808080" stroke="#FFFFFF" stroke-width="2.00"/>
<ellipse shape-type="ellipse" cx="404" cy="546" rx="16" ry="16" fill="url(#rgradient115_3)" stroke="#000000" stroke-width="1.00"/>
</g>
<g shape-type="group">
<rect shape-type="rectangle" x="394" y="613" width="5" height="20" fill="#808080" stroke="#000000" stroke-width="1.00"/>
<rect shape-type="rectangle" x="393" y="643" width="6" height="6" fill="#808080" stroke="#FFFFFF" stroke-width="2.00"/>
<rect shape-type="rectangle" x="411" y="643" width="7" height="6" fill="#808080" stroke="#FFFFFF" stroke-width="2.00"/>
<ellipse shape-type="ellipse" cx="406" cy="632" rx="16" ry="16" fill="url(#rgradient116_3)" stroke="#000000" stroke-width="1.00"/>
</g>
<rect shape-type="rectangle" x="589" y="82" width="62" height="28" fill="#4A494A" stroke="#C0C0C0" stroke-width="3.00"/>
<rect shape-type="rectangle" x="651" y="82" width="37" height="28" fill="#4A494A" stroke="#C0C0C0" stroke-width="3.00"/>
<text font-family="宋体" text-anchor="start" fill="#00FF42" shape-type="text" id="" font-size="12.500000" font-weight="bold" x="658" y="100">KPA</text>
<rect shape-type="rectangle" x="623" y="202" width="98" height="28" fill="#4A494A" stroke="#C0C0C0" stroke-width="3.00"/>
<rect shape-type="rectangle" x="624" y="345" width="98" height="28" fill="#4A494A" stroke="#C0C0C0" stroke-width="3.00"/>
<rect shape-type="rectangle" x="709" y="491" width="69" height="28" fill="#4A494A" stroke="#C0C0C0" stroke-width="3.00"/>
<rect shape-type="rectangle" x="778" y="491" width="37" height="28" fill="#4A494A" stroke="#C0C0C0" stroke-width="3.00"/>
<text font-family="宋体" text-anchor="start" fill="#ADAAAD" shape-type="text" id="" font-size="12.500000" font-weight="bold" x="713" y="508">9LI1131</text>
<text font-family="宋体" text-anchor="start" fill="#00FF42" shape-type="text" id="" font-size="12.500000" font-weight="bold" x="792" y="509">%</text>
<rect shape-type="rectangle" x="709" y="518" width="106" height="28" fill="#4A494A" stroke="#C0C0C0" stroke-width="3.00"/>
<text font-family="宋体" text-anchor="start" fill="#00FF42" shape-type="text" id="" font-size="12.500000" font-weight="bold" x="303" y="210">KG</text>
<rect shape-type="rectangle" x="0" y="736" width="1069" height="64" fill="#BDBABD" stroke="#BDBABD" stroke-width="1.00"/>
<g shape-type="group">
<rect shape-type="rectangle" x="997" y="749" width="48" height="43" fill="#C6C3C6" stroke="#C6C3C6" stroke-width="1.00"/>
<polygon shape-type="trapezium" points="1014,780 1014,760 1032,770 1032,770 1014,780" fill="#4A494A" stroke="#C6C3C6" stroke-width="2.00"/>
</g>
<g shape-type="group">
<rect shape-type="rectangle" x="13" y="749" width="47" height="38" fill="#C6C3C6" stroke="#C6C3C6" stroke-width="1.00"/>
<polygon shape-type="trapezium" points="41,776 41,757 22,766 22,766 41,776" fill="#4A494A" stroke="#C6C3C6" stroke-width="2.00"/>
</g>
<a xlink:href="mac.svg">
<g shape-type="button">
<rect fill="#C0C0C0" stroke-width="0.3" stroke="#FFFFFF" x="78" y="747" width="92" height="41" shape-type="buttonrect"/>
<text font-family="宋体" text-anchor="middle" dominant-baseline="middle" fill="#000000" font-size="13.500000" x="124" y="773" shape-type="buttontext">MAC</text>
</g>
</a>
<a xlink:href="k131.svg">
<g shape-type="button">
<rect fill="#C0C0C0" stroke-width="0.3" stroke="#FFFFFF" x="183" y="747" width="92" height="41" shape-type="buttonrect"/>
<text font-family="宋体" text-anchor="middle" dominant-baseline="middle" fill="#000000" font-size="13.500000" x="229" y="773" shape-type="buttontext">K131</text>
</g>
</a>
<a xlink:href="MACVIBTEMP.svg">
<g shape-type="button">
<rect fill="#C0C0C0" stroke-width="0.3" stroke="#FFFFFF" x="289" y="747" width="92" height="41" shape-type="buttonrect"/>
<text font-family="宋体" text-anchor="middle" dominant-baseline="middle" fill="#000000" font-size="13.500000" x="335" y="773" shape-type="buttontext">MACV-T</text>
</g>
</a>
<a xlink:href="D113VIBTEMPS.svg">
<g shape-type="button">
<rect fill="#C0C0C0" stroke-width="0.3" stroke="#FFFFFF" x="396" y="747" width="92" height="41" shape-type="buttonrect"/>
<text font-family="宋体" text-anchor="middle" dominant-baseline="middle" fill="#000000" font-size="13.500000" x="442" y="773" shape-type="buttontext">D113V-T</text>
</g>
</a>
<a xlink:href="K131VIBTEMPS.svg">
<g shape-type="button">
<rect fill="#C0C0C0" stroke-width="0.3" stroke="#FFFFFF" x="503" y="747" width="92" height="41" shape-type="buttonrect"/>
<text font-family="宋体" text-anchor="middle" dominant-baseline="middle" fill="#000000" font-size="13.500000" x="549" y="773" shape-type="buttontext">K131V-T</text>
</g>
</a>
<text font-family="Arial" text-anchor="start" fill="#00FFFF" shape-type="realdata" id="HCAB_KF_9TT1169" font-size="12.500000" x="236" y="86">XXXX</text>
<text font-family="Arial" text-anchor="start" fill="#00FFFF" shape-type="realdata" id="HCAB_KF_9PI1169" font-size="12.500000" x="237" y="112">XXXX</text>
<text font-family="Arial" text-anchor="start" fill="#00FFFF" shape-type="realdata" id="HCAB_KF_9FI1169" font-size="12.500000" x="237" y="140">XXXX</text>
<text font-family="Arial" text-anchor="start" fill="#00FFFF" shape-type="realdata" id="HCAB_KF_9FQ1169" font-size="12.500000" x="210" y="209">XXXX</text>
<text font-family="Arial" text-anchor="start" fill="#00FFFF" shape-type="realdata" id="HCAB_KF_9TT401" font-size="12.500000" x="627" y="221">XXXX</text>
<text font-family="Arial" text-anchor="start" fill="#00FFFF" shape-type="realdata" id="HCAB_KF_9SI150_1" font-size="12.500000" x="748" y="297">XXXX</text>
<text font-family="Arial" text-anchor="start" fill="#00FFFF" shape-type="realdata" id="HCAB_KF_9PT401" font-size="12.500000" x="630" y="361">XXXX</text>
<text font-family="Arial" text-anchor="start" fill="#00FFFF" shape-type="realdata" id="HCAB_KF_9PT1123" font-size="12.500000" x="595" y="100">XXXX</text>
<text font-family="Arial" text-anchor="start" fill="#00FFFF" shape-type="realdata" id="HCAB_KF_9PI9259" font-size="12.500000" x="885" y="235">XXXX</text>
<text font-family="Arial" text-anchor="start" fill="#00FFFF" shape-type="realdata" id="HCAB_KF_9LT1131" font-size="12.500000" x="715" y="534">XXXX</text>
<text font-family="Arial" text-anchor="start" fill="#00FFFF" shape-type="realdata" id="HCAB_KF_9II1132A1" font-size="12.500000" x="368" y="494">XXXX</text>
<text font-family="Arial" text-anchor="start" fill="#00FFFF" shape-type="realdata" id="HCAB_KF_9II1132B1" font-size="12.500000" x="371" y="691">XXXX</text>
<a xlink:href="700_ML.svg">
<g shape-type="button">
<rect fill="#C0C0C0" stroke-width="0.3" stroke="#FFFFFF" x="960" y="8" width="98" height="30" shape-type="buttonrect"/>
<text font-family="宋体" text-anchor="middle" dominant-baseline="middle" fill="#800000" font-size="13.500000" font-weight="bold" x="1009" y="29" shape-type="buttontext">返回上一级</text>
</g>
</a>
<rect shape-type="rectangle" x="375" y="156" width="62" height="28" fill="#4A494A" stroke="#C0C0C0" stroke-width="3.00"/>
<rect shape-type="rectangle" x="437" y="156" width="37" height="28" fill="#4A494A" stroke="#C0C0C0" stroke-width="3.00"/>
<text font-family="Arial" text-anchor="start" fill="#00FFFF" shape-type="realdata" id="HCAB_KF_9ZI500" font-size="12.500000" x="381" y="174">XXXX</text>
<rect shape-type="rectangle" x="375" y="126" width="62" height="28" fill="#4A494A" stroke="#C0C0C0" stroke-width="3.00"/>
<rect shape-type="rectangle" x="437" y="126" width="37" height="28" fill="#4A494A" stroke="#C0C0C0" stroke-width="3.00"/>
<text font-family="宋体" text-anchor="start" fill="#00FF42" shape-type="text" id="" font-size="12.500000" font-weight="bold" x="449" y="144">%</text>
<text font-family="Arial" text-anchor="start" fill="#00FFFF" shape-type="realdata" id="HCAB_KF_9ZIV1" font-size="12.500000" x="381" y="144">XXXX</text>
<text font-family="宋体" text-anchor="start" fill="#00FF42" shape-type="text" id="" font-size="12.500000" font-weight="bold" x="450" y="173">%</text>
<text font-family="宋体" text-anchor="start" fill="#FFFFFF" shape-type="text" id="" font-size="12.500000" font-weight="bold" x="868" y="277">仪表气管网压力</text>
<rect shape-type="rectangle" x="879" y="292" width="62" height="28" fill="#4A494A" stroke="#C0C0C0" stroke-width="3.00"/>
<rect shape-type="rectangle" x="941" y="292" width="37" height="28" fill="#4A494A" stroke="#C0C0C0" stroke-width="3.00"/>
<text font-family="宋体" text-anchor="start" fill="#00FF42" shape-type="text" id="" font-size="12.500000" font-weight="bold" x="948" y="310">MPA</text>
<text font-family="Arial" text-anchor="start" fill="#00FFFF" shape-type="realdata" id="HCAB_HC_PI27001" font-size="12.500000" x="886" y="311">XXXX</text>
</svg>
