<?xml version="1.0"?>
<?xml-stylesheet type='text/javascript'?>
<!--Draw SVG: 2019-11-25 09:41:05 47-Monday-->
<svg xmlns="http://www.w3.org/2000/svg" xmlns:xlink="http://www.w3.org/1999/xlink" version="1.1" style="background-color:#000000" width="1066" height="800" viewbox="0 0 1066 800">
<defs>
<pattern id="BRH_BDIAGONAL8" patternUnits="userSpaceOnUse" x="0" y="0" width="10" height="10"><line x1="10" y1="10" x2="0" y2="0" stroke="#FFFFFF" stroke-width="0.5"/></pattern>
<pattern id="BRH_BDIAGONAL9" patternUnits="userSpaceOnUse" x="0" y="0" width="10" height="10"><line x1="10" y1="10" x2="0" y2="0" stroke="#FFFFFF" stroke-width="0.5"/></pattern>
<pattern id="BRH_BDIAGONAL10" patternUnits="userSpaceOnUse" x="0" y="0" width="10" height="10"><line x1="10" y1="10" x2="0" y2="0" stroke="#FFFFFF" stroke-width="0.5"/></pattern>
<linearGradient x1="0.000000%" y1="50.000000%" x2="100.000000%" y2="50.000000%" id="lgradient47_2_2">
<stop offset="0" stop-color="#545454" stop-opacity="1"/>
<stop offset="0.5" stop-color="#D8D8D8" stop-opacity="1"/>
<stop offset="1" stop-color="#545454" stop-opacity="1"/>
</linearGradient>
<linearGradient x1="0.000000%" y1="50.000000%" x2="100.000000%" y2="50.000000%" id="lgradient47_2_3_0">
<stop offset="0" stop-color="#696969" stop-opacity="1"/>
<stop offset="0.5" stop-color="#D8D8D8" stop-opacity="1"/>
<stop offset="1" stop-color="#696969" stop-opacity="1"/>
</linearGradient>
<linearGradient x1="0.000000%" y1="50.000000%" x2="100.000000%" y2="50.000000%" id="lgradient48_2_2">
<stop offset="0" stop-color="#545454" stop-opacity="1"/>
<stop offset="0.5" stop-color="#D8D8D8" stop-opacity="1"/>
<stop offset="1" stop-color="#545454" stop-opacity="1"/>
</linearGradient>
<linearGradient x1="0.000000%" y1="50.000000%" x2="100.000000%" y2="50.000000%" id="lgradient48_2_3_0">
<stop offset="0" stop-color="#696969" stop-opacity="1"/>
<stop offset="0.5" stop-color="#D8D8D8" stop-opacity="1"/>
<stop offset="1" stop-color="#696969" stop-opacity="1"/>
</linearGradient>
<linearGradient x1="0.000000%" y1="50.000000%" x2="100.000000%" y2="50.000000%" id="lgradient49_0">
<stop offset="0" stop-color="#2C2C2C" stop-opacity="1"/>
<stop offset="0.5" stop-color="#FFFFFF" stop-opacity="1"/>
<stop offset="1" stop-color="#2C2C2C" stop-opacity="1"/>
</linearGradient>
<linearGradient x1="0.000000%" y1="50.000000%" x2="100.000000%" y2="50.000000%" id="lgradient49_1">
<stop offset="0" stop-color="#2C2C2C" stop-opacity="1"/>
<stop offset="0.5" stop-color="#FFFFFF" stop-opacity="1"/>
<stop offset="1" stop-color="#2C2C2C" stop-opacity="1"/>
</linearGradient>
<radialGradient cx="50.000000%" cy="50.000000%" r="50.000000%" fx="50.000000%" fy="50.000000%" id="rgradient49_2">
<stop offset="0%" stop-color="#FFFFFF" stop-opacity="1"/>
<stop offset="100%" stop-color="#2C2C2C" stop-opacity="1"/>
</radialGradient>
<radialGradient cx="50.000000%" cy="50.000000%" r="50.000000%" fx="50.000000%" fy="50.000000%" id="rgradient49_3">
<stop offset="0%" stop-color="#FFFFFF" stop-opacity="1"/>
<stop offset="100%" stop-color="#2C2C2C" stop-opacity="1"/>
</radialGradient>
<linearGradient x1="0.000000%" y1="50.000000%" x2="100.000000%" y2="50.000000%" id="lgradient49_4">
<stop offset="0" stop-color="#2C2C2C" stop-opacity="1"/>
<stop offset="0.5" stop-color="#FFFFFF" stop-opacity="1"/>
<stop offset="1" stop-color="#2C2C2C" stop-opacity="1"/>
</linearGradient>
<linearGradient x1="0.000000%" y1="50.000000%" x2="100.000000%" y2="50.000000%" id="lgradient50_0">
<stop offset="0" stop-color="#2C2C2C" stop-opacity="1"/>
<stop offset="0.5" stop-color="#FFFFFF" stop-opacity="1"/>
<stop offset="1" stop-color="#2C2C2C" stop-opacity="1"/>
</linearGradient>
<linearGradient x1="0.000000%" y1="50.000000%" x2="100.000000%" y2="50.000000%" id="lgradient50_1">
<stop offset="0" stop-color="#2C2C2C" stop-opacity="1"/>
<stop offset="0.5" stop-color="#FFFFFF" stop-opacity="1"/>
<stop offset="1" stop-color="#2C2C2C" stop-opacity="1"/>
</linearGradient>
<radialGradient cx="50.000000%" cy="50.000000%" r="50.000000%" fx="50.000000%" fy="50.000000%" id="rgradient50_2">
<stop offset="0%" stop-color="#FFFFFF" stop-opacity="1"/>
<stop offset="100%" stop-color="#2C2C2C" stop-opacity="1"/>
</radialGradient>
<radialGradient cx="50.000000%" cy="50.000000%" r="50.000000%" fx="50.000000%" fy="50.000000%" id="rgradient50_3">
<stop offset="0%" stop-color="#FFFFFF" stop-opacity="1"/>
<stop offset="100%" stop-color="#2C2C2C" stop-opacity="1"/>
</radialGradient>
<linearGradient x1="0.000000%" y1="50.000000%" x2="100.000000%" y2="50.000000%" id="lgradient50_4">
<stop offset="0" stop-color="#2C2C2C" stop-opacity="1"/>
<stop offset="0.5" stop-color="#FFFFFF" stop-opacity="1"/>
<stop offset="1" stop-color="#2C2C2C" stop-opacity="1"/>
</linearGradient>
<linearGradient x1="0.000000%" y1="50.000000%" x2="100.000000%" y2="50.000000%" id="lgradient51_0">
<stop offset="0" stop-color="#2C2C2C" stop-opacity="1"/>
<stop offset="0.5" stop-color="#FFFFFF" stop-opacity="1"/>
<stop offset="1" stop-color="#2C2C2C" stop-opacity="1"/>
</linearGradient>
<linearGradient x1="0.000000%" y1="50.000000%" x2="100.000000%" y2="50.000000%" id="lgradient51_1">
<stop offset="0" stop-color="#2C2C2C" stop-opacity="1"/>
<stop offset="0.5" stop-color="#FFFFFF" stop-opacity="1"/>
<stop offset="1" stop-color="#2C2C2C" stop-opacity="1"/>
</linearGradient>
<linearGradient x1="0.000000%" y1="50.000000%" x2="100.000000%" y2="50.000000%" id="lgradient51_2">
<stop offset="0" stop-color="#2C2C2C" stop-opacity="1"/>
<stop offset="0.5" stop-color="#FFFFFF" stop-opacity="1"/>
<stop offset="1" stop-color="#2C2C2C" stop-opacity="1"/>
</linearGradient>
<linearGradient x1="0.000000%" y1="50.000000%" x2="100.000000%" y2="50.000000%" id="lgradient52_2_2">
<stop offset="0" stop-color="#545454" stop-opacity="1"/>
<stop offset="0.5" stop-color="#D8D8D8" stop-opacity="1"/>
<stop offset="1" stop-color="#545454" stop-opacity="1"/>
</linearGradient>
<linearGradient x1="0.000000%" y1="50.000000%" x2="100.000000%" y2="50.000000%" id="lgradient52_2_3_0">
<stop offset="0" stop-color="#696969" stop-opacity="1"/>
<stop offset="0.5" stop-color="#D8D8D8" stop-opacity="1"/>
<stop offset="1" stop-color="#696969" stop-opacity="1"/>
</linearGradient>
<linearGradient x1="0.000000%" y1="50.000000%" x2="100.000000%" y2="50.000000%" id="lgradient53_2_2">
<stop offset="0" stop-color="#545454" stop-opacity="1"/>
<stop offset="0.5" stop-color="#D8D8D8" stop-opacity="1"/>
<stop offset="1" stop-color="#545454" stop-opacity="1"/>
</linearGradient>
<linearGradient x1="0.000000%" y1="50.000000%" x2="100.000000%" y2="50.000000%" id="lgradient53_2_3_0">
<stop offset="0" stop-color="#696969" stop-opacity="1"/>
<stop offset="0.5" stop-color="#D8D8D8" stop-opacity="1"/>
<stop offset="1" stop-color="#696969" stop-opacity="1"/>
</linearGradient>
<linearGradient x1="0.000000%" y1="50.000000%" x2="100.000000%" y2="50.000000%" id="lgradient54_0">
<stop offset="0" stop-color="#2C2C2C" stop-opacity="1"/>
<stop offset="0.5" stop-color="#FFFFFF" stop-opacity="1"/>
<stop offset="1" stop-color="#2C2C2C" stop-opacity="1"/>
</linearGradient>
<linearGradient x1="0.000000%" y1="50.000000%" x2="100.000000%" y2="50.000000%" id="lgradient54_1">
<stop offset="0" stop-color="#2C2C2C" stop-opacity="1"/>
<stop offset="0.5" stop-color="#FFFFFF" stop-opacity="1"/>
<stop offset="1" stop-color="#2C2C2C" stop-opacity="1"/>
</linearGradient>
<linearGradient x1="0.000000%" y1="50.000000%" x2="100.000000%" y2="50.000000%" id="lgradient104">
<stop offset="0" stop-color="#111111" stop-opacity="1"/>
<stop offset="0.5" stop-color="#636563" stop-opacity="1"/>
<stop offset="1" stop-color="#111111" stop-opacity="1"/>
</linearGradient>
</defs>
<line shape-type="limitline" x1="963" y1="103" x2="55" y2="103" fill="#00FFFF" stroke="#FFFFFF" stroke-width="3.00"/>
<line shape-type="limitline" x1="554" y1="695" x2="554" y2="650" fill="#00FFFF" stroke="#FFFFFF" stroke-width="3.00"/>
<rect shape-type="rectangle" x="0" y="1" width="1065" height="38" fill="#636563" stroke="#808080" stroke-width="1.00"/>
<rect shape-type="rectangle" x="282" y="3" width="500" height="33" stroke="#000000" stroke-width="1.00"/>
<text font-family="宋体" text-anchor="start" fill="#FFFFFF" shape-type="text" id="" font-size="26.750000" font-weight="bold" x="377" y="30">硝基氯苯污水处理1</text>
<a xlink:href="\动力部\水处理装置\强氧化\QYH_ML.svg">
<g shape-type="button">
<rect fill="#C0C0C0" stroke-width="0.3" stroke="#FFFFFF" x="960" y="3" width="100" height="33" shape-type="buttonrect"/>
<text font-family="宋体" text-anchor="middle" dominant-baseline="middle" fill="#800000" font-size="13.500000" font-weight="bold" x="1010" y="26" shape-type="buttontext">返回上一级</text>
</g>
</a>
<g shape-type="group">
<rect shape-type="rectangle" x="48" y="98" width="11" height="6" fill="#808080" stroke="#C0C0C0" stroke-width="1.00"/>
<polygon shape-type="trapezium" points="58,94 58,109 66,102 66,102 58,94" fill="#808080" stroke="#C0C0C0" stroke-width="1.00"/>
</g>
<rect shape-type="rectangle" x="387" y="372" width="20" height="51" fill="url(#BRH_BDIAGONAL8)" stroke="#808080" stroke-width="1.00"/>
<rect shape-type="rectangle" x="878" y="252" width="51" height="18" fill="url(#BRH_BDIAGONAL9)" stroke="#808080" stroke-width="1.00"/>
<rect shape-type="rectangle" x="948" y="252" width="29" height="18" fill="url(#BRH_BDIAGONAL10)" stroke="#808080" stroke-width="1.00"/>
<line shape-type="limitline" x1="55" y1="170" x2="460" y2="170" fill="#00FFFF" stroke="#FFFFFF" stroke-width="3.00"/>
<line shape-type="limitline" x1="461" y1="217" x2="461" y2="169" fill="#00FFFF" stroke="#FFFFFF" stroke-width="3.00"/>
<line shape-type="limitline" x1="898" y1="138" x2="55" y2="138" fill="#00FFFF" stroke="#FFFFFF" stroke-width="3.00"/>
<line shape-type="limitline" x1="899" y1="137" x2="899" y2="247" fill="#00FFFF" stroke="#FFFFFF" stroke-width="3.00"/>
<line shape-type="limitline" x1="963" y1="249" x2="963" y2="102" fill="#00FFFF" stroke="#FFFFFF" stroke-width="3.00"/>
<line shape-type="limitline" x1="880" y1="262" x2="719" y2="262" fill="#00FFFF" stroke="#FFFFFF" stroke-width="3.00"/>
<line shape-type="limitline" x1="930" y1="264" x2="944" y2="264" fill="#00FFFF" stroke="#FFFFFF" stroke-width="3.00"/>
<line shape-type="limitline" x1="1028" y1="263" x2="979" y2="263" fill="#00FFFF" stroke="#FFFFFF" stroke-width="3.00"/>
<line shape-type="limitline" x1="718" y1="676" x2="718" y2="261" fill="#00FFFF" stroke="#FFFFFF" stroke-width="3.00"/>
<line shape-type="limitline" x1="805" y1="629" x2="720" y2="629" fill="#00FFFF" stroke="#FFFFFF" stroke-width="3.00"/>
<line shape-type="limitline" x1="805" y1="676" x2="805" y2="629" fill="#00FFFF" stroke="#FFFFFF" stroke-width="3.00"/>
<line shape-type="limitline" x1="693" y1="695" x2="190" y2="695" fill="#00FFFF" stroke="#FFFFFF" stroke-width="3.00"/>
<line shape-type="limitline" x1="294" y1="694" x2="294" y2="599" fill="#00FFFF" stroke="#FFFFFF" stroke-width="3.00"/>
<line shape-type="limitline" x1="191" y1="451" x2="191" y2="695" fill="#00FFFF" stroke="#FFFFFF" stroke-width="3.00"/>
<line shape-type="limitline" x1="191" y1="452" x2="396" y2="452" fill="#00FFFF" stroke="#FFFFFF" stroke-width="3.00"/>
<line shape-type="limitline" x1="397" y1="427" x2="397" y2="452" fill="#00FFFF" stroke="#FFFFFF" stroke-width="3.00"/>
<line shape-type="limitline" x1="55" y1="470" x2="184" y2="470" fill="#00FFFF" stroke="#FFFFFF" stroke-width="3.00"/>
<line shape-type="limitline" x1="194" y1="470" x2="528" y2="470" fill="#00FFFF" stroke="#FFFFFF" stroke-width="3.00"/>
<line shape-type="limitline" x1="528" y1="549" x2="528" y2="470" fill="#00FFFF" stroke="#FFFFFF" stroke-width="3.00"/>
<line shape-type="limitline" x1="270" y1="504" x2="270" y2="471" fill="#00FFFF" stroke="#FFFFFF" stroke-width="3.00"/>
<line shape-type="limitline" x1="502" y1="179" x2="502" y2="224" fill="#00FFFF" stroke="#FFFFFF" stroke-width="3.00"/>
<line shape-type="limitline" x1="502" y1="180" x2="690" y2="180" fill="#00FFFF" stroke="#FFFFFF" stroke-width="3.00"/>
<line shape-type="limitline" x1="690" y1="180" x2="690" y2="415" fill="#00FFFF" stroke="#FFFFFF" stroke-width="3.00"/>
<line shape-type="limitline" x1="690" y1="415" x2="411" y2="415" fill="#00FFFF" stroke="#FFFFFF" stroke-width="3.00"/>
<line shape-type="limitline" x1="579" y1="290" x2="427" y2="290" fill="#00FFFF" stroke="#FFFFFF" stroke-width="3.00"/>
<line shape-type="limitline" x1="597" y1="228" x2="597" y2="278" fill="#00FFFF" stroke="#FFFFFF" stroke-width="3.00"/>
<line shape-type="limitline" x1="689" y1="227" x2="597" y2="227" fill="#00FFFF" stroke="#FFFFFF" stroke-width="3.00"/>
<line shape-type="limitline" x1="655" y1="288" x2="655" y2="229" fill="#00FFFF" stroke="#FFFFFF" stroke-width="3.00"/>
<line shape-type="limitline" x1="427" y1="288" x2="427" y2="366" fill="#00FFFF" stroke="#FFFFFF" stroke-width="3.00"/>
<line shape-type="limitline" x1="549" y1="366" x2="427" y2="366" fill="#00FFFF" stroke="#FFFFFF" stroke-width="3.00"/>
<line shape-type="limitline" x1="549" y1="408" x2="549" y2="365" fill="#00FFFF" stroke="#FFFFFF" stroke-width="3.00"/>
<line shape-type="limitline" x1="549" y1="543" x2="549" y2="419" fill="#00FFFF" stroke="#FFFFFF" stroke-width="3.00"/>
<line shape-type="limitline" x1="55" y1="440" x2="392" y2="440" fill="#00FFFF" stroke="#FFFFFF" stroke-width="3.00"/>
<line shape-type="limitline" x1="401" y1="440" x2="542" y2="440" fill="#00FFFF" stroke="#FFFFFF" stroke-width="3.00"/>
<line shape-type="limitline" x1="554" y1="440" x2="573" y2="440" fill="#00FFFF" stroke="#FFFFFF" stroke-width="3.00"/>
<line shape-type="limitline" x1="575" y1="553" x2="575" y2="439" fill="#00FFFF" stroke="#FFFFFF" stroke-width="3.00"/>
<g shape-type="group">
<g shape-type="group">
<polygon shape-type="parallel" points="788,709 781,709 784,703 791,703 788,709" fill="#808080" stroke="#000000" stroke-width="1.00"/>
<rect shape-type="rectangle" x="777" y="709" width="12" height="3" fill="#808080" stroke="#000000" stroke-width="1.00"/>
</g>
<g shape-type="group">
<polygon shape-type="parallel" points="801,709 807,709 804,703 798,703 801,709" fill="#808080" stroke="#000000" stroke-width="1.00"/>
<rect shape-type="rectangle" x="799" y="709" width="12" height="3" fill="#808080" stroke="#000000" stroke-width="1.00"/>
</g>
<g shape-type="group">
<path shape-type="arc" d="M 799,693 A 8,5 0 0,0 812,694" fill="none" stroke="#000000" stroke-width="1.00"/>
<line shape-type="limitline" x1="810" y1="693" x2="809" y2="679" fill="#00FFFF" stroke="#000000" stroke-width="1.00"/>
<rect shape-type="roundRectangle" rx="20" ry="20" x="800" y="677" width="10" height="18" fill="url(#lgradient47_2_2)" stroke="#000000" stroke-width="1.00"/>
<g shape-type="group">
<rect shape-type="rectangle" x="798" y="676" width="15" height="3" fill="url(#lgradient47_2_3_0)" stroke="#000000" stroke-width="1.00"/>
<rect shape-type="rectangle" x="798" y="676" width="15" height="3" fill="none" stroke="#000000" stroke-width="1.00"/>
</g>
<line shape-type="limitline" x1="800" y1="693" x2="799" y2="678" fill="#00FFFF" stroke="#000000" stroke-width="1.00"/>
</g>
<g shape-type="group">
<ellipse shape-type="ellipse" cx="794" cy="694" rx="16" ry="13" stroke="#000000" stroke-width="1.00"/>
<ellipse shape-type="ellipse" cx="794" cy="694" rx="16" ry="13" fill="#D8D8D8" stroke="#000000" stroke-width="1.00"/>
<path shape-type="arc" d="M 788,705 A 15,12 0 1,0 798,683" fill="none" stroke="#000000" stroke-width="1.00"/>
</g>
<g shape-type="group">
<g shape-type="group">
<ellipse shape-type="ellipse" cx="794" cy="693" rx="6" ry="6" fill="#A2A2A2" stroke="#000000" stroke-width="1.00"/>
<ellipse shape-type="ellipse" cx="794" cy="692" rx="5" ry="4" stroke="#000000" stroke-width="1.00"/>
</g>
<line shape-type="line" x1="791" y1="696" x2="797" y2="687" fill="#00FFFF" stroke="#C0C0C0" stroke-width="1.00"/>
<line shape-type="line" x1="797" y1="695" x2="790" y2="689" fill="#00FFFF" stroke="#C0C0C0" stroke-width="1.00"/>
<line shape-type="line" x1="799" y1="692" x2="788" y2="692" fill="#00FFFF" stroke="#C0C0C0" stroke-width="1.00"/>
<ellipse shape-type="ellipse" cx="794" cy="692" rx="2" ry="1" fill="#FFFFFF" stroke="#000000" stroke-width="1.00"/>
</g>
</g>
<g shape-type="group">
<g shape-type="group">
<polygon shape-type="parallel" points="701,708 695,708 698,702 704,702 701,708" fill="#808080" stroke="#000000" stroke-width="1.00"/>
<rect shape-type="rectangle" x="691" y="708" width="11" height="3" fill="#808080" stroke="#000000" stroke-width="1.00"/>
</g>
<g shape-type="group">
<polygon shape-type="parallel" points="714,708 721,708 718,702 711,702 714,708" fill="#808080" stroke="#000000" stroke-width="1.00"/>
<rect shape-type="rectangle" x="713" y="708" width="13" height="3" fill="#808080" stroke="#000000" stroke-width="1.00"/>
</g>
<g shape-type="group">
<path shape-type="arc" d="M 712,691 A 8,5 0 0,0 726,693" fill="none" stroke="#000000" stroke-width="1.00"/>
<line shape-type="limitline" x1="725" y1="692" x2="724" y2="676" fill="#00FFFF" stroke="#000000" stroke-width="1.00"/>
<rect shape-type="roundRectangle" rx="20" ry="20" x="714" y="673" width="11" height="21" fill="url(#lgradient48_2_2)" stroke="#000000" stroke-width="1.00"/>
<g shape-type="group">
<rect shape-type="rectangle" x="711" y="671" width="16" height="5" fill="url(#lgradient48_2_3_0)" stroke="#000000" stroke-width="1.00"/>
<rect shape-type="rectangle" x="711" y="671" width="16" height="5" fill="none" stroke="#000000" stroke-width="1.00"/>
</g>
<line shape-type="limitline" x1="714" y1="692" x2="713" y2="676" fill="#00FFFF" stroke="#000000" stroke-width="1.00"/>
</g>
<g shape-type="group">
<ellipse shape-type="ellipse" cx="708" cy="693" rx="16" ry="14" stroke="#000000" stroke-width="1.00"/>
<ellipse shape-type="ellipse" cx="708" cy="692" rx="16" ry="13" fill="#D8D8D8" stroke="#000000" stroke-width="1.00"/>
<path shape-type="arc" d="M 703,704 A 15,12 0 1,0 713,681" fill="none" stroke="#000000" stroke-width="1.00"/>
</g>
<g shape-type="group">
<g shape-type="group">
<ellipse shape-type="ellipse" cx="709" cy="691" rx="7" ry="4" fill="#A2A2A2" stroke="#000000" stroke-width="1.00"/>
<ellipse shape-type="ellipse" cx="708" cy="690" rx="5" ry="3" stroke="#000000" stroke-width="1.00"/>
</g>
<line shape-type="line" x1="705" y1="694" x2="711" y2="687" fill="#00FFFF" stroke="#C0C0C0" stroke-width="1.00"/>
<line shape-type="line" x1="711" y1="693" x2="704" y2="688" fill="#00FFFF" stroke="#C0C0C0" stroke-width="1.00"/>
<line shape-type="line" x1="714" y1="691" x2="702" y2="691" fill="#00FFFF" stroke="#C0C0C0" stroke-width="1.00"/>
<ellipse shape-type="ellipse" cx="708" cy="691" rx="2" ry="1" fill="#FFFFFF" stroke="#000000" stroke-width="1.00"/>
</g>
</g>
<g shape-type="group">
<rect shape-type="roundRectangle" rx="20" ry="20" x="516" y="584" width="77" height="76" fill="url(#lgradient49_0)" stroke="#000000" stroke-width="2.00"/>
<rect shape-type="rectangle" x="516" y="541" width="77" height="100" fill="url(#lgradient49_1)" stroke="#000000" stroke-width="2.00"/>
<ellipse shape-type="ellipse" cx="540" cy="584" rx="14" ry="7" fill="url(#rgradient49_2)" stroke="#000000" stroke-width="2.00"/>
<ellipse shape-type="ellipse" cx="567" cy="584" rx="14" ry="7" fill="url(#rgradient49_3)" stroke="#000000" stroke-width="2.00"/>
<rect shape-type="rectangle" x="552" y="553" width="5" height="78" fill="url(#lgradient49_4)" stroke="#000000" stroke-width="2.00"/>
<line shape-type="limitline" x1="590" y1="547" x2="516" y2="548" fill="#00FFFF" stroke="#808080" stroke-width="3.00"/>
</g>
<g shape-type="group">
<rect shape-type="roundRectangle" rx="20" ry="20" x="255" y="533" width="77" height="76" fill="url(#lgradient50_0)" stroke="#000000" stroke-width="2.00"/>
<rect shape-type="rectangle" x="255" y="490" width="77" height="100" fill="url(#lgradient50_1)" stroke="#000000" stroke-width="2.00"/>
<ellipse shape-type="ellipse" cx="281" cy="533" rx="14" ry="7" fill="url(#rgradient50_2)" stroke="#000000" stroke-width="2.00"/>
<ellipse shape-type="ellipse" cx="308" cy="533" rx="14" ry="7" fill="url(#rgradient50_3)" stroke="#000000" stroke-width="2.00"/>
<rect shape-type="rectangle" x="292" y="502" width="5" height="78" fill="url(#lgradient50_4)" stroke="#000000" stroke-width="2.00"/>
<line shape-type="limitline" x1="329" y1="496" x2="255" y2="497" fill="#00FFFF" stroke="#808080" stroke-width="3.00"/>
</g>
<g shape-type="group">
<polygon shape-type="trapezium" points="525,225 444,225 485,204 485,204 525,225" fill="url(#lgradient51_0)" stroke="#000000" stroke-width="1.00"/>
<rect shape-type="rectangle" x="449" y="224" width="73" height="89" fill="url(#lgradient51_1)" stroke="#000000" stroke-width="1.00"/>
<rect shape-type="rectangle" x="441" y="306" width="89" height="8" fill="url(#lgradient51_2)" stroke="#000000" stroke-width="1.00"/>
</g>
<g shape-type="group">
<g shape-type="group">
<polygon shape-type="parallel" points="578,308 572,308 575,302 581,302 578,308" fill="#808080" stroke="#000000" stroke-width="1.00"/>
<rect shape-type="rectangle" x="568" y="308" width="11" height="3" fill="#808080" stroke="#000000" stroke-width="1.00"/>
</g>
<g shape-type="group">
<polygon shape-type="parallel" points="592,308 598,308 595,302 589,302 592,308" fill="#808080" stroke="#000000" stroke-width="1.00"/>
<rect shape-type="rectangle" x="590" y="308" width="13" height="3" fill="#808080" stroke="#000000" stroke-width="1.00"/>
</g>
<g shape-type="group">
<path shape-type="arc" d="M 590,291 A 8,5 0 0,0 603,293" fill="none" stroke="#000000" stroke-width="1.00"/>
<line shape-type="limitline" x1="602" y1="292" x2="601" y2="276" fill="#00FFFF" stroke="#000000" stroke-width="1.00"/>
<rect shape-type="roundRectangle" rx="20" ry="20" x="591" y="273" width="11" height="21" fill="url(#lgradient52_2_2)" stroke="#000000" stroke-width="1.00"/>
<g shape-type="group">
<rect shape-type="rectangle" x="589" y="271" width="15" height="5" fill="url(#lgradient52_2_3_0)" stroke="#000000" stroke-width="1.00"/>
<rect shape-type="rectangle" x="589" y="271" width="15" height="5" fill="none" stroke="#000000" stroke-width="1.00"/>
</g>
<line shape-type="limitline" x1="591" y1="292" x2="590" y2="276" fill="#00FFFF" stroke="#000000" stroke-width="1.00"/>
</g>
<g shape-type="group">
<ellipse shape-type="ellipse" cx="585" cy="293" rx="16" ry="14" stroke="#000000" stroke-width="1.00"/>
<ellipse shape-type="ellipse" cx="585" cy="293" rx="16" ry="13" fill="#D8D8D8" stroke="#000000" stroke-width="1.00"/>
<path shape-type="arc" d="M 580,304 A 15,12 0 1,0 590,281" fill="none" stroke="#000000" stroke-width="1.00"/>
</g>
<g shape-type="group">
<g shape-type="group">
<ellipse shape-type="ellipse" cx="586" cy="291" rx="7" ry="4" fill="#A2A2A2" stroke="#000000" stroke-width="1.00"/>
<ellipse shape-type="ellipse" cx="585" cy="291" rx="5" ry="3" stroke="#000000" stroke-width="1.00"/>
</g>
<line shape-type="line" x1="582" y1="294" x2="589" y2="287" fill="#00FFFF" stroke="#C0C0C0" stroke-width="1.00"/>
<line shape-type="line" x1="589" y1="293" x2="581" y2="288" fill="#00FFFF" stroke="#C0C0C0" stroke-width="1.00"/>
<line shape-type="line" x1="591" y1="291" x2="579" y2="291" fill="#00FFFF" stroke="#C0C0C0" stroke-width="1.00"/>
<ellipse shape-type="ellipse" cx="585" cy="291" rx="2" ry="1" fill="#FFFFFF" stroke="#000000" stroke-width="1.00"/>
</g>
</g>
<g shape-type="group">
<g shape-type="group">
<polygon shape-type="parallel" points="637,310 630,310 633,304 640,304 637,310" fill="#808080" stroke="#000000" stroke-width="1.00"/>
<rect shape-type="rectangle" x="626" y="310" width="12" height="3" fill="#808080" stroke="#000000" stroke-width="1.00"/>
</g>
<g shape-type="group">
<polygon shape-type="parallel" points="650,310 656,310 653,304 647,304 650,310" fill="#808080" stroke="#000000" stroke-width="1.00"/>
<rect shape-type="rectangle" x="648" y="310" width="12" height="3" fill="#808080" stroke="#000000" stroke-width="1.00"/>
</g>
<g shape-type="group">
<path shape-type="arc" d="M 648,293 A 8,5 0 0,0 661,295" fill="none" stroke="#000000" stroke-width="1.00"/>
<line shape-type="limitline" x1="659" y1="294" x2="658" y2="278" fill="#00FFFF" stroke="#000000" stroke-width="1.00"/>
<rect shape-type="roundRectangle" rx="20" ry="20" x="649" y="275" width="10" height="21" fill="url(#lgradient53_2_2)" stroke="#000000" stroke-width="1.00"/>
<g shape-type="group">
<rect shape-type="rectangle" x="647" y="274" width="14" height="5" fill="url(#lgradient53_2_3_0)" stroke="#000000" stroke-width="1.00"/>
<rect shape-type="rectangle" x="647" y="274" width="14" height="5" fill="none" stroke="#000000" stroke-width="1.00"/>
</g>
<line shape-type="limitline" x1="649" y1="294" x2="648" y2="278" fill="#00FFFF" stroke="#000000" stroke-width="1.00"/>
</g>
<g shape-type="group">
<ellipse shape-type="ellipse" cx="643" cy="295" rx="16" ry="14" stroke="#000000" stroke-width="1.00"/>
<ellipse shape-type="ellipse" cx="643" cy="295" rx="16" ry="13" fill="#D8D8D8" stroke="#000000" stroke-width="1.00"/>
<path shape-type="arc" d="M 637,306 A 15,12 0 1,0 647,283" fill="none" stroke="#000000" stroke-width="1.00"/>
</g>
<g shape-type="group">
<g shape-type="group">
<ellipse shape-type="ellipse" cx="643" cy="293" rx="7" ry="5" fill="#A2A2A2" stroke="#000000" stroke-width="1.00"/>
<ellipse shape-type="ellipse" cx="643" cy="293" rx="5" ry="3" stroke="#000000" stroke-width="1.00"/>
</g>
<line shape-type="line" x1="640" y1="295" x2="646" y2="288" fill="#00FFFF" stroke="#C0C0C0" stroke-width="1.00"/>
<line shape-type="line" x1="646" y1="295" x2="639" y2="289" fill="#00FFFF" stroke="#C0C0C0" stroke-width="1.00"/>
<line shape-type="line" x1="648" y1="292" x2="636" y2="292" fill="#00FFFF" stroke="#C0C0C0" stroke-width="1.00"/>
<ellipse shape-type="ellipse" cx="643" cy="293" rx="2" ry="1" fill="#FFFFFF" stroke="#000000" stroke-width="1.00"/>
</g>
</g>
<g shape-type="group">
<rect shape-type="rectangle" x="792" y="254" width="25" height="51" fill="url(#lgradient54_0)" stroke="#000000" stroke-width="1.00"/>
<rect shape-type="rectangle" x="781" y="204" width="47" height="73" fill="url(#lgradient54_1)" stroke="#000000" stroke-width="1.00"/>
</g>
<g shape-type="group">
<rect shape-type="rectangle" x="1022" y="260" width="11" height="6" fill="#808080" stroke="#C0C0C0" stroke-width="1.00"/>
<polygon shape-type="trapezium" points="1032,257 1032,269 1040,263 1040,263 1032,257" fill="#808080" stroke="#C0C0C0" stroke-width="1.00"/>
</g>
<g shape-type="group">
<rect shape-type="rectangle" x="48" y="134" width="11" height="6" fill="#808080" stroke="#C0C0C0" stroke-width="1.00"/>
<polygon shape-type="trapezium" points="58,132 58,143 66,138 66,138 58,132" fill="#808080" stroke="#C0C0C0" stroke-width="1.00"/>
</g>
<g shape-type="group">
<rect shape-type="rectangle" x="48" y="166" width="11" height="5" fill="#808080" stroke="#C0C0C0" stroke-width="1.00"/>
<polygon shape-type="trapezium" points="58,163 58,174 66,169 66,169 58,163" fill="#808080" stroke="#C0C0C0" stroke-width="1.00"/>
</g>
<g shape-type="group">
<rect shape-type="rectangle" x="48" y="436" width="11" height="5" fill="#808080" stroke="#C0C0C0" stroke-width="1.00"/>
<polygon shape-type="trapezium" points="58,434 58,444 66,439 66,439 58,434" fill="#808080" stroke="#C0C0C0" stroke-width="1.00"/>
</g>
<g shape-type="group">
<rect shape-type="rectangle" x="48" y="466" width="11" height="6" fill="#808080" stroke="#C0C0C0" stroke-width="1.00"/>
<polygon shape-type="trapezium" points="58,463 58,475 66,469 66,469 58,463" fill="#808080" stroke="#C0C0C0" stroke-width="1.00"/>
</g>
<text font-family="宋体" text-anchor="start" fill="#FFFFFF" shape-type="text" id="" font-size="10.250000" font-weight="bold" x="34" y="90">来自泵P1001602a/b</text>
<text font-family="宋体" text-anchor="start" fill="#FFFFFF" shape-type="text" id="" font-size="10.250000" font-weight="bold" x="34" y="123">来自泵P1001604a/b</text>
<text font-family="宋体" text-anchor="start" fill="#FFFFFF" shape-type="text" id="" font-size="10.250000" font-weight="bold" x="32" y="158">98%硫酸来自综合污水处理站硫酸外管</text>
<text font-family="宋体" text-anchor="start" fill="#FFFFFF" shape-type="text" id="" font-size="10.250000" font-weight="bold" x="39" y="425">来自氧化反应器</text>
<text font-family="宋体" text-anchor="start" fill="#FFFFFF" shape-type="text" id="" font-size="10.250000" font-weight="bold" x="40" y="459">蒸汽 </text>
<text font-family="宋体" text-anchor="start" fill="#FFFFFF" shape-type="text" id="" font-size="10.250000" font-weight="bold" x="973" y="289">去氧化反应器</text>
<text font-family="宋体" text-anchor="start" fill="#FFFFFF" shape-type="text" id="" font-size="10.250000" font-weight="bold" x="581" y="332">硫酸计量泵</text>
<text font-family="宋体" text-anchor="start" fill="#FFFFFF" shape-type="text" id="" font-size="10.250000" font-weight="bold" x="733" y="728">进水泵</text>
<text font-family="宋体" text-anchor="start" fill="#FFFFFF" shape-type="text" id="" font-size="10.250000" font-weight="bold" x="572" y="672">酸化综合罐</text>
<text font-family="宋体" text-anchor="start" fill="#FFFFFF" shape-type="text" id="" font-size="10.250000" font-weight="bold" x="304" y="626">酸化综合罐</text>
<text font-family="宋体" text-anchor="start" fill="#FFFFFF" shape-type="text" id="" font-size="10.250000" font-weight="bold" x="769" y="325">自清洗过滤器</text>
<g shape-type="group">
<rect shape-type="rectangle" x="518" y="145" width="52" height="26" fill="#4A494A" stroke="#C0C0C0" stroke-width="3.00"/>
<rect shape-type="rectangle" x="571" y="145" width="35" height="26" fill="#4A494A" stroke="#C0C0C0" stroke-width="3.00"/>
</g>
<g shape-type="group">
<rect shape-type="rectangle" x="433" y="373" width="51" height="26" fill="#4A494A" stroke="#C0C0C0" stroke-width="3.00"/>
<rect shape-type="rectangle" x="485" y="373" width="36" height="26" fill="#4A494A" stroke="#C0C0C0" stroke-width="3.00"/>
</g>
<g shape-type="group">
<rect shape-type="rectangle" x="367" y="504" width="52" height="26" fill="#4A494A" stroke="#C0C0C0" stroke-width="3.00"/>
<rect shape-type="rectangle" x="420" y="504" width="35" height="26" fill="#4A494A" stroke="#C0C0C0" stroke-width="3.00"/>
</g>
<g shape-type="group">
<rect shape-type="rectangle" x="367" y="541" width="52" height="27" fill="#4A494A" stroke="#C0C0C0" stroke-width="3.00"/>
<rect shape-type="rectangle" x="420" y="541" width="35" height="27" fill="#4A494A" stroke="#C0C0C0" stroke-width="3.00"/>
</g>
<g shape-type="group">
<rect shape-type="rectangle" x="611" y="541" width="52" height="26" fill="#4A494A" stroke="#C0C0C0" stroke-width="3.00"/>
<rect shape-type="rectangle" x="664" y="541" width="35" height="26" fill="#4A494A" stroke="#C0C0C0" stroke-width="3.00"/>
</g>
<g shape-type="group">
<rect shape-type="rectangle" x="611" y="579" width="52" height="27" fill="#4A494A" stroke="#C0C0C0" stroke-width="3.00"/>
<rect shape-type="rectangle" x="664" y="579" width="35" height="27" fill="#4A494A" stroke="#C0C0C0" stroke-width="3.00"/>
</g>
<g shape-type="group">
<rect shape-type="rectangle" x="611" y="616" width="52" height="27" fill="#4A494A" stroke="#C0C0C0" stroke-width="3.00"/>
<rect shape-type="rectangle" x="664" y="616" width="35" height="27" fill="#4A494A" stroke="#C0C0C0" stroke-width="3.00"/>
</g>
<g shape-type="group">
<rect shape-type="rectangle" x="751" y="416" width="51" height="27" fill="#4A494A" stroke="#C0C0C0" stroke-width="3.00"/>
<rect shape-type="rectangle" x="803" y="416" width="36" height="27" fill="#4A494A" stroke="#C0C0C0" stroke-width="3.00"/>
</g>
<line shape-type="limitline" x1="538" y1="235" x2="538" y2="171" fill="#00FFFF" stroke="#FFFFFF" stroke-width="3.00" stroke-dasharray="5 10"/>
<line shape-type="limitline" x1="520" y1="238" x2="538" y2="238" fill="#00FFFF" stroke="#FFFFFF" stroke-width="3.00" stroke-dasharray="5 10"/>
<line shape-type="limitline" x1="431" y1="385" x2="407" y2="385" fill="#00FFFF" stroke="#FFFFFF" stroke-width="3.00" stroke-dasharray="5 10"/>
<line shape-type="limitline" x1="369" y1="518" x2="332" y2="518" fill="#00FFFF" stroke="#FFFFFF" stroke-width="3.00" stroke-dasharray="5 10"/>
<line shape-type="limitline" x1="369" y1="561" x2="332" y2="561" fill="#00FFFF" stroke="#FFFFFF" stroke-width="3.00" stroke-dasharray="5 10"/>
<line shape-type="limitline" x1="750" y1="433" x2="719" y2="433" fill="#00FFFF" stroke="#FFFFFF" stroke-width="3.00" stroke-dasharray="5 10"/>
<line shape-type="limitline" x1="609" y1="555" x2="590" y2="555" fill="#00FFFF" stroke="#FFFFFF" stroke-width="3.00" stroke-dasharray="5 10"/>
<line shape-type="limitline" x1="608" y1="591" x2="593" y2="591" fill="#00FFFF" stroke="#FFFFFF" stroke-width="3.00" stroke-dasharray="5 10"/>
<line shape-type="limitline" x1="610" y1="626" x2="588" y2="626" fill="#00FFFF" stroke="#FFFFFF" stroke-width="3.00" stroke-dasharray="5 10"/>
<text font-family="Arial" text-anchor="start" fill="#00FFFF" shape-type="realdata" id="DLB_ZHWS_LT-604" font-size="12.500000" x="522" y="160">XXXX</text>
<text font-family="Arial" text-anchor="start" fill="#00FFFF" shape-type="realdata" id="DLB_ZHWS_FT-602" font-size="12.500000" x="755" y="433">XXXX</text>
<text font-family="Arial" text-anchor="start" fill="#00FFFF" shape-type="realdata" id="DLB_ZHWS_PHIC-601a" font-size="12.500000" x="370" y="521">XXXX</text>
<text font-family="Arial" text-anchor="start" fill="#00FFFF" shape-type="realdata" id="DLB_ZHWS_TT-602" font-size="12.500000" x="370" y="558">XXXX</text>
<text font-family="Arial" text-anchor="start" fill="#00FFFF" shape-type="realdata" id="DLB_ZHWS_PHIR-601b" font-size="12.500000" x="617" y="558">XXXX</text>
<text font-family="Arial" text-anchor="start" fill="#00FFFF" shape-type="realdata" id="DLB_ZHWS_TT-603" font-size="12.500000" x="617" y="595">XXXX</text>
<text font-family="Arial" text-anchor="start" fill="#00FFFF" shape-type="realdata" id="DLB_ZHWS_LT-601" font-size="12.500000" x="617" y="631">XXXX</text>
<text font-family="宋体" text-anchor="start" fill="#00FF00" shape-type="text" id="" font-size="9.500000" font-weight="bold" x="586" y="160">%</text>
<text font-family="宋体" text-anchor="start" fill="#00FF00" shape-type="text" id="" font-size="9.500000" font-weight="bold" x="807" y="432">m3/h</text>
<text font-family="宋体" text-anchor="start" fill="#00FF00" shape-type="text" id="" font-size="9.500000" font-weight="bold" x="431" y="519">pH</text>
<text font-family="宋体" text-anchor="start" fill="#00FF00" shape-type="text" id="" font-size="9.500000" font-weight="bold" x="431" y="559">℃</text>
<text font-family="宋体" text-anchor="start" fill="#00FF00" shape-type="text" id="" font-size="9.500000" font-weight="bold" x="675" y="557">pH</text>
<text font-family="宋体" text-anchor="start" fill="#00FF00" shape-type="text" id="" font-size="9.500000" font-weight="bold" x="676" y="596">℃</text>
<text font-family="宋体" text-anchor="start" fill="#00FF00" shape-type="text" id="" font-size="9.500000" font-weight="bold" x="678" y="633">%</text>
<text font-family="Arial" text-anchor="start" fill="#00FFFF" shape-type="realdata" id="DLB_ZHWS_FT-601" font-size="12.500000" x="437" y="390">XXXX</text>
<text font-family="宋体" text-anchor="start" fill="#00FF00" shape-type="text" id="" font-size="9.500000" font-weight="bold" x="490" y="389">m3/h</text>
<rect shape-type="rectangle" x="0" y="756" width="1066" height="44" fill="url(#lgradient104)" stroke="#636563" stroke-width="1.00"/>
<a xlink:href="硝基氯苯污水处理1.svg">
<g shape-type="button">
<rect fill="#C0C0C0" stroke-width="0.3" stroke="#FFFFFF" x="15" y="761" width="124" height="33" shape-type="buttonrect"/>
<text font-family="宋体" text-anchor="middle" dominant-baseline="middle" fill="#000000" font-size="12.000000" x="77" y="783" shape-type="buttontext">硝基氯苯污水处理1</text>
</g>
</a>
<a xlink:href="硝基氯苯污水处理2.svg">
<g shape-type="button">
<rect fill="#C0C0C0" stroke-width="0.3" stroke="#FFFFFF" x="153" y="761" width="125" height="33" shape-type="buttonrect"/>
<text font-family="宋体" text-anchor="middle" dominant-baseline="middle" fill="#000000" font-size="12.000000" x="216" y="783" shape-type="buttontext">硝基氯苯污水处理2</text>
</g>
</a>
<a xlink:href="硝基氯苯污水处理3.svg">
<g shape-type="button">
<rect fill="#C0C0C0" stroke-width="0.3" stroke="#FFFFFF" x="292" y="761" width="125" height="33" shape-type="buttonrect"/>
<text font-family="宋体" text-anchor="middle" dominant-baseline="middle" fill="#000000" font-size="12.000000" x="355" y="783" shape-type="buttontext">硝基氯苯污水处理3</text>
</g>
</a>
<a xlink:href="硝基氯苯污水处理4.svg">
<g shape-type="button">
<rect fill="#C0C0C0" stroke-width="0.3" stroke="#FFFFFF" x="431" y="761" width="124" height="33" shape-type="buttonrect"/>
<text font-family="宋体" text-anchor="middle" dominant-baseline="middle" fill="#000000" font-size="12.000000" x="493" y="783" shape-type="buttontext">硝基氯苯污水处理4</text>
</g>
</a>
<a xlink:href="硝基氯苯污水处理5.svg">
<g shape-type="button">
<rect fill="#C0C0C0" stroke-width="0.3" stroke="#FFFFFF" x="569" y="761" width="126" height="33" shape-type="buttonrect"/>
<text font-family="宋体" text-anchor="middle" dominant-baseline="middle" fill="#000000" font-size="12.000000" x="632" y="783" shape-type="buttontext">硝基氯苯污水处理5</text>
</g>
</a>
<g shape-type="group">
<rect shape-type="rectangle" x="841" y="486" width="52" height="27" fill="#4A494A" stroke="#C0C0C0" stroke-width="3.00"/>
<rect shape-type="rectangle" x="894" y="486" width="35" height="27" fill="#4A494A" stroke="#C0C0C0" stroke-width="3.00"/>
</g>
<text font-family="宋体" text-anchor="start" fill="#00FF00" shape-type="text" id="" font-size="9.500000" font-weight="bold" x="898" y="502">mg/L</text>
<text font-family="Arial" text-anchor="start" fill="#00FFFF" shape-type="realdata" id="DLB_ZHWS_AT-601" font-size="12.500000" x="846" y="504">XXXX</text>
</svg>
