<?xml version="1.0"?>
<?xml-stylesheet type='text/javascript'?>
<!--Draw SVG: 2019-11-25 09:41:01 47-Monday-->
<svg xmlns="http://www.w3.org/2000/svg" xmlns:xlink="http://www.w3.org/1999/xlink" version="1.1" style="background-color:#000000" width="1066" height="800" viewbox="0 0 1066 800">
<defs>
<linearGradient x1="0.000000%" y1="50.000000%" x2="100.000000%" y2="50.000000%" id="lgradient2">
<stop offset="0" stop-color="#111111" stop-opacity="1"/>
<stop offset="0.5" stop-color="#636563" stop-opacity="1"/>
<stop offset="1" stop-color="#111111" stop-opacity="1"/>
</linearGradient>
</defs>
<rect shape-type="rectangle" x="0" y="1" width="1065" height="38" fill="#636563" stroke="#808080" stroke-width="1.00"/>
<rect shape-type="rectangle" x="2" y="757" width="1063" height="40" fill="url(#lgradient2)" stroke="#636563" stroke-width="1.00"/>
<rect shape-type="rectangle" x="292" y="3" width="500" height="34" stroke="#000000" stroke-width="1.00"/>
<text font-family="宋体" text-anchor="start" fill="#FFFFFF" shape-type="text" id="" font-size="26.750000" font-weight="bold" x="444" y="29">码头流程</text>
<a xlink:href="\储运部\输煤码头\SMMT_ML.svg">
<g shape-type="button">
<rect fill="#C0C0C0" stroke-width="0.3" stroke="#FFFFFF" x="962" y="1" width="100" height="36" shape-type="buttonrect"/>
<text font-family="宋体" text-anchor="middle" dominant-baseline="middle" fill="#800000" font-size="13.500000" font-weight="bold" x="1012" y="25" shape-type="buttontext">返回上一级</text>
</g>
</a>
<g shape-type="group">
<rect shape-type="roundRectangle" rx="20" ry="20" x="3" y="112" width="141" height="13" fill="#808080" stroke="#000000" stroke-width="1.00"/>
<ellipse shape-type="ellipse" cx="11" cy="119" rx="7" ry="7" fill="#C0C0C0" stroke="#000000" stroke-width="1.00"/>
<ellipse shape-type="ellipse" cx="137" cy="119" rx="7" ry="7" fill="#C0C0C0" stroke="#000000" stroke-width="1.00"/>
</g>
<g shape-type="group">
<rect shape-type="roundRectangle" rx="20" ry="20" x="566" y="227" width="141" height="13" fill="#808080" stroke="#000000" stroke-width="1.00"/>
<ellipse shape-type="ellipse" cx="573" cy="234" rx="6" ry="7" fill="#C0C0C0" stroke="#000000" stroke-width="1.00"/>
<ellipse shape-type="ellipse" cx="700" cy="234" rx="7" ry="7" fill="#C0C0C0" stroke="#000000" stroke-width="1.00"/>
</g>
<g shape-type="group">
<rect shape-type="roundRectangle" rx="20" ry="20" x="711" y="227" width="141" height="13" fill="#808080" stroke="#000000" stroke-width="1.00"/>
<ellipse shape-type="ellipse" cx="719" cy="234" rx="6" ry="7" fill="#C0C0C0" stroke="#000000" stroke-width="1.00"/>
<ellipse shape-type="ellipse" cx="845" cy="234" rx="6" ry="7" fill="#C0C0C0" stroke="#000000" stroke-width="1.00"/>
</g>
<g shape-type="group">
<rect shape-type="roundRectangle" rx="20" ry="20" x="791" y="288" width="141" height="12" fill="#808080" stroke="#000000" stroke-width="1.00"/>
<ellipse shape-type="ellipse" cx="798" cy="295" rx="6" ry="6" fill="#C0C0C0" stroke="#000000" stroke-width="1.00"/>
<ellipse shape-type="ellipse" cx="925" cy="295" rx="7" ry="6" fill="#C0C0C0" stroke="#000000" stroke-width="1.00"/>
</g>
<polygon shape-type="trapezium" points="824,273 830,273 827,283 827,283 824,273" fill="#0000FF" stroke="#0000FF" stroke-width="1.00"/>
<line shape-type="limitline" x1="828" y1="244" x2="828" y2="279" fill="#0000FF" stroke="#0000FF" stroke-width="3.00"/>
<g shape-type="group">
<rect shape-type="roundRectangle" rx="20" ry="20" x="864" y="348" width="140" height="13" fill="#808080" stroke="#000000" stroke-width="1.00"/>
<ellipse shape-type="ellipse" cx="871" cy="356" rx="6" ry="7" fill="#C0C0C0" stroke="#000000" stroke-width="1.00"/>
<ellipse shape-type="ellipse" cx="997" cy="356" rx="6" ry="7" fill="#C0C0C0" stroke="#000000" stroke-width="1.00"/>
</g>
<polygon shape-type="trapezium" points="896,334 902,334 899,344 899,344 896,334" fill="#0000FF" stroke="#0000FF" stroke-width="1.00"/>
<line shape-type="limitline" x1="900" y1="305" x2="900" y2="340" fill="#0000FF" stroke="#0000FF" stroke-width="3.00"/>
<g shape-type="group">
<rect shape-type="roundRectangle" rx="20" ry="20" x="923" y="409" width="141" height="13" fill="#808080" stroke="#000000" stroke-width="1.00"/>
<ellipse shape-type="ellipse" cx="930" cy="416" rx="6" ry="7" fill="#C0C0C0" stroke="#000000" stroke-width="1.00"/>
<ellipse shape-type="ellipse" cx="1057" cy="416" rx="7" ry="7" fill="#C0C0C0" stroke="#000000" stroke-width="1.00"/>
</g>
<polygon shape-type="trapezium" points="956,395 962,395 959,405 959,405 956,395" fill="#0000FF" stroke="#0000FF" stroke-width="1.00"/>
<line shape-type="limitline" x1="960" y1="366" x2="960" y2="401" fill="#0000FF" stroke="#0000FF" stroke-width="3.00"/>
<polygon shape-type="trapezium" points="1038,456 1044,456 1041,466 1041,466 1038,456" fill="#0000FF" stroke="#0000FF" stroke-width="1.00"/>
<line shape-type="limitline" x1="1042" y1="427" x2="1042" y2="462" fill="#0000FF" stroke="#0000FF" stroke-width="3.00"/>
<g shape-type="group">
<rect shape-type="roundRectangle" rx="20" ry="20" x="646" y="152" width="142" height="13" fill="#808080" stroke="#000000" stroke-width="1.00"/>
<ellipse shape-type="ellipse" cx="653" cy="159" rx="6" ry="7" fill="#C0C0C0" stroke="#000000" stroke-width="1.00"/>
<ellipse shape-type="ellipse" cx="780" cy="159" rx="7" ry="7" fill="#C0C0C0" stroke="#000000" stroke-width="1.00"/>
</g>
<g shape-type="group">
<polygon shape-type="trapezium" points="129,156 135,156 132,167 132,167 129,156" fill="#0000FF" stroke="#0000FF" stroke-width="1.00"/>
<line shape-type="limitline" x1="133" y1="128" x2="132" y2="163" fill="#0000FF" stroke="#0000FF" stroke-width="3.00"/>
</g>
<rect shape-type="rectangle" x="701" y="169" width="19" height="20" fill="#FFFF00" stroke="#000000" stroke-width="1.00"/>
<g shape-type="group">
<polygon shape-type="trapezium" points="694,212 700,212 697,223 697,223 694,212" fill="#0000FF" stroke="#0000FF" stroke-width="1.00"/>
<line shape-type="limitline" x1="698" y1="184" x2="697" y2="219" fill="#0000FF" stroke="#0000FF" stroke-width="3.00"/>
</g>
<g shape-type="group">
<polygon shape-type="trapezium" points="717,212 723,212 720,223 720,223 717,212" fill="#0000FF" stroke="#0000FF" stroke-width="1.00"/>
<line shape-type="limitline" x1="721" y1="184" x2="720" y2="219" fill="#0000FF" stroke="#0000FF" stroke-width="3.00"/>
</g>
<rect shape-type="rectangle" x="135" y="190" width="37" height="25" fill="#4A494A" stroke="#C0C0C0" stroke-width="3.00"/>
<rect shape-type="rectangle" x="173" y="190" width="25" height="25" fill="#4A494A" stroke="#C0C0C0" stroke-width="3.00"/>
<text font-family="宋体" text-anchor="start" fill="#00FF42" shape-type="text" id="" font-size="9.500000" font-weight="bold" x="180" y="206">A</text>
<text font-family="Arial" text-anchor="start" fill="#00FFFF" shape-type="realdata" id="DLB_LFDC_PT_1001" font-size="12.500000" x="140" y="208">XXXX</text>
<rect shape-type="rectangle" x="572" y="613" width="37" height="25" fill="#4A494A" stroke="#C0C0C0" stroke-width="3.00"/>
<rect shape-type="rectangle" x="610" y="613" width="25" height="25" fill="#4A494A" stroke="#C0C0C0" stroke-width="3.00"/>
<text font-family="宋体" text-anchor="start" fill="#00FF42" shape-type="text" id="" font-size="9.500000" font-weight="bold" x="617" y="629">t/h</text>
<text font-family="Arial" text-anchor="start" fill="#00FFFF" shape-type="realdata" id="DLB_LFDC_PT_1001" font-size="12.500000" x="577" y="631">XXXX</text>
<rect shape-type="rectangle" x="573" y="640" width="37" height="25" fill="#4A494A" stroke="#C0C0C0" stroke-width="3.00"/>
<rect shape-type="rectangle" x="611" y="640" width="25" height="25" fill="#4A494A" stroke="#C0C0C0" stroke-width="3.00"/>
<text font-family="宋体" text-anchor="start" fill="#00FF42" shape-type="text" id="" font-size="9.500000" font-weight="bold" x="618" y="656">t</text>
<text font-family="Arial" text-anchor="start" fill="#00FFFF" shape-type="realdata" id="DLB_LFDC_PT_1001" font-size="12.500000" x="578" y="658">XXXX</text>
<g shape-type="group">
<rect shape-type="roundRectangle" rx="20" ry="20" x="122" y="166" width="142" height="13" fill="#808080" stroke="#000000" stroke-width="1.00"/>
<ellipse shape-type="ellipse" cx="130" cy="173" rx="6" ry="7" fill="#C0C0C0" stroke="#000000" stroke-width="1.00"/>
<ellipse shape-type="ellipse" cx="257" cy="173" rx="7" ry="7" fill="#C0C0C0" stroke="#000000" stroke-width="1.00"/>
</g>
<g shape-type="group">
<polygon shape-type="trapezium" points="248,210 254,210 251,221 251,221 248,210" fill="#0000FF" stroke="#0000FF" stroke-width="1.00"/>
<line shape-type="limitline" x1="252" y1="182" x2="251" y2="217" fill="#0000FF" stroke="#0000FF" stroke-width="3.00"/>
</g>
<g shape-type="group">
<rect shape-type="roundRectangle" rx="20" ry="20" x="244" y="220" width="141" height="13" fill="#808080" stroke="#000000" stroke-width="1.00"/>
<ellipse shape-type="ellipse" cx="252" cy="227" rx="6" ry="7" fill="#C0C0C0" stroke="#000000" stroke-width="1.00"/>
<ellipse shape-type="ellipse" cx="378" cy="227" rx="7" ry="7" fill="#C0C0C0" stroke="#000000" stroke-width="1.00"/>
</g>
<g shape-type="group">
<polygon shape-type="trapezium" points="370,265 376,265 373,275 373,275 370,265" fill="#0000FF" stroke="#0000FF" stroke-width="1.00"/>
<line shape-type="limitline" x1="374" y1="236" x2="373" y2="271" fill="#0000FF" stroke="#0000FF" stroke-width="3.00"/>
</g>
<g shape-type="group">
<rect shape-type="roundRectangle" rx="20" ry="20" x="368" y="274" width="141" height="14" fill="#808080" stroke="#000000" stroke-width="1.00"/>
<ellipse shape-type="ellipse" cx="376" cy="282" rx="6" ry="7" fill="#C0C0C0" stroke="#000000" stroke-width="1.00"/>
<ellipse shape-type="ellipse" cx="502" cy="282" rx="7" ry="7" fill="#C0C0C0" stroke="#000000" stroke-width="1.00"/>
</g>
<g shape-type="group">
<polygon shape-type="trapezium" points="494,319 500,319 497,329 497,329 494,319" fill="#0000FF" stroke="#0000FF" stroke-width="1.00"/>
<line shape-type="limitline" x1="498" y1="290" x2="497" y2="325" fill="#0000FF" stroke="#0000FF" stroke-width="3.00"/>
</g>
<g shape-type="group">
<rect shape-type="roundRectangle" rx="20" ry="20" x="491" y="332" width="141" height="13" fill="#808080" stroke="#000000" stroke-width="1.00"/>
<ellipse shape-type="ellipse" cx="499" cy="339" rx="6" ry="7" fill="#C0C0C0" stroke="#000000" stroke-width="1.00"/>
<ellipse shape-type="ellipse" cx="625" cy="339" rx="7" ry="7" fill="#C0C0C0" stroke="#000000" stroke-width="1.00"/>
</g>
<g shape-type="group">
<rect shape-type="roundRectangle" rx="20" ry="20" x="614" y="390" width="140" height="13" fill="#808080" stroke="#000000" stroke-width="1.00"/>
<ellipse shape-type="ellipse" cx="621" cy="397" rx="6" ry="7" fill="#C0C0C0" stroke="#000000" stroke-width="1.00"/>
<ellipse shape-type="ellipse" cx="747" cy="397" rx="6" ry="7" fill="#C0C0C0" stroke="#000000" stroke-width="1.00"/>
</g>
<g shape-type="group">
<rect shape-type="roundRectangle" rx="20" ry="20" x="731" y="447" width="141" height="13" fill="#808080" stroke="#000000" stroke-width="1.00"/>
<ellipse shape-type="ellipse" cx="739" cy="454" rx="7" ry="7" fill="#C0C0C0" stroke="#000000" stroke-width="1.00"/>
<ellipse shape-type="ellipse" cx="865" cy="454" rx="7" ry="7" fill="#C0C0C0" stroke="#000000" stroke-width="1.00"/>
</g>
<g shape-type="group">
<polygon shape-type="trapezium" points="857,492 864,492 860,502 860,502 857,492" fill="#0000FF" stroke="#0000FF" stroke-width="1.00"/>
<line shape-type="limitline" x1="861" y1="464" x2="860" y2="498" fill="#0000FF" stroke="#0000FF" stroke-width="3.00"/>
</g>
<g shape-type="group">
<rect shape-type="roundRectangle" rx="20" ry="20" x="854" y="503" width="141" height="13" fill="#808080" stroke="#000000" stroke-width="1.00"/>
<ellipse shape-type="ellipse" cx="862" cy="510" rx="7" ry="7" fill="#C0C0C0" stroke="#000000" stroke-width="1.00"/>
<ellipse shape-type="ellipse" cx="988" cy="510" rx="7" ry="7" fill="#C0C0C0" stroke="#000000" stroke-width="1.00"/>
</g>
<g shape-type="group">
<polygon shape-type="trapezium" points="980,548 986,548 983,558 983,558 980,548" fill="#0000FF" stroke="#0000FF" stroke-width="1.00"/>
<line shape-type="limitline" x1="984" y1="519" x2="983" y2="554" fill="#0000FF" stroke="#0000FF" stroke-width="3.00"/>
</g>
<rect shape-type="rectangle" x="260" y="241" width="37" height="25" fill="#4A494A" stroke="#C0C0C0" stroke-width="3.00"/>
<rect shape-type="rectangle" x="298" y="241" width="25" height="25" fill="#4A494A" stroke="#C0C0C0" stroke-width="3.00"/>
<text font-family="宋体" text-anchor="start" fill="#00FF42" shape-type="text" id="" font-size="9.500000" font-weight="bold" x="305" y="257">A</text>
<text font-family="Arial" text-anchor="start" fill="#00FFFF" shape-type="realdata" id="DLB_LFDC_PT_1001" font-size="12.500000" x="265" y="259">XXXX</text>
<rect shape-type="rectangle" x="385" y="297" width="37" height="25" fill="#4A494A" stroke="#C0C0C0" stroke-width="3.00"/>
<rect shape-type="rectangle" x="423" y="297" width="25" height="25" fill="#4A494A" stroke="#C0C0C0" stroke-width="3.00"/>
<text font-family="宋体" text-anchor="start" fill="#00FF42" shape-type="text" id="" font-size="9.500000" font-weight="bold" x="430" y="313">A</text>
<text font-family="Arial" text-anchor="start" fill="#00FFFF" shape-type="realdata" id="DLB_LFDC_PT_1001" font-size="12.500000" x="390" y="315">XXXX</text>
<rect shape-type="rectangle" x="507" y="352" width="37" height="25" fill="#4A494A" stroke="#C0C0C0" stroke-width="3.00"/>
<rect shape-type="rectangle" x="545" y="352" width="25" height="25" fill="#4A494A" stroke="#C0C0C0" stroke-width="3.00"/>
<text font-family="宋体" text-anchor="start" fill="#00FF42" shape-type="text" id="" font-size="9.500000" font-weight="bold" x="552" y="368">A</text>
<text font-family="Arial" text-anchor="start" fill="#00FFFF" shape-type="realdata" id="DLB_LFDC_PT_1001" font-size="12.500000" x="512" y="370">XXXX</text>
<rect shape-type="rectangle" x="628" y="411" width="37" height="25" fill="#4A494A" stroke="#C0C0C0" stroke-width="3.00"/>
<rect shape-type="rectangle" x="666" y="411" width="25" height="25" fill="#4A494A" stroke="#C0C0C0" stroke-width="3.00"/>
<text font-family="宋体" text-anchor="start" fill="#00FF42" shape-type="text" id="" font-size="9.500000" font-weight="bold" x="673" y="427">A</text>
<text font-family="Arial" text-anchor="start" fill="#00FFFF" shape-type="realdata" id="DLB_LFDC_PT_1001" font-size="12.500000" x="633" y="429">XXXX</text>
<g shape-type="group">
<rect shape-type="roundRectangle" rx="20" ry="20" x="462" y="391" width="141" height="12" fill="#808080" stroke="#000000" stroke-width="1.00"/>
<ellipse shape-type="ellipse" cx="471" cy="398" rx="6" ry="6" fill="#C0C0C0" stroke="#000000" stroke-width="1.00"/>
<ellipse shape-type="ellipse" cx="596" cy="398" rx="6" ry="6" fill="#C0C0C0" stroke="#000000" stroke-width="1.00"/>
</g>
<rect shape-type="rectangle" x="599" y="349" width="19" height="20" fill="#FFFF00" stroke="#000000" stroke-width="1.00"/>
<g shape-type="group">
<polygon shape-type="trapezium" points="592,382 598,382 595,390 595,390 592,382" fill="#0000FF" stroke="#0000FF" stroke-width="1.00"/>
<line shape-type="limitline" x1="596" y1="366" x2="595" y2="386" fill="#0000FF" stroke="#0000FF" stroke-width="3.00"/>
</g>
<g shape-type="group">
<polygon shape-type="trapezium" points="615,382 621,382 618,390 618,390 615,382" fill="#0000FF" stroke="#0000FF" stroke-width="1.00"/>
<line shape-type="limitline" x1="619" y1="366" x2="618" y2="386" fill="#0000FF" stroke="#0000FF" stroke-width="3.00"/>
</g>
<rect shape-type="rectangle" x="736" y="406" width="19" height="20" fill="#FFFF00" stroke="#000000" stroke-width="1.00"/>
<g shape-type="group">
<polygon shape-type="trapezium" points="729,440 735,440 732,447 732,447 729,440" fill="#0000FF" stroke="#0000FF" stroke-width="1.00"/>
<line shape-type="limitline" x1="733" y1="423" x2="732" y2="444" fill="#0000FF" stroke="#0000FF" stroke-width="3.00"/>
</g>
<g shape-type="group">
<polygon shape-type="trapezium" points="752,440 758,440 755,447 755,447 752,440" fill="#0000FF" stroke="#0000FF" stroke-width="1.00"/>
<line shape-type="limitline" x1="756" y1="423" x2="755" y2="444" fill="#0000FF" stroke="#0000FF" stroke-width="3.00"/>
</g>
<text font-family="宋体" text-anchor="start" fill="#FFFFFF" shape-type="text" id="" font-size="11.000000" font-weight="bold" x="459" y="632">W6401称重</text>
<text font-family="宋体" text-anchor="start" fill="#FFFFFF" shape-type="text" id="" font-size="11.000000" font-weight="bold" x="469" y="657">累积值</text>
</svg>
