<?xml version="1.0" encoding="UTF-8"?>
<svg height="100%" width="100%" viewBox="0 0 64000 32000" version="1.1" xmlns="http://www.w3.org/2000/svg" xmlns:xlink="http://www.w3.org/1999/xlink" xmlns:PB="urn:osisoft-com-pb" xmlns:PBI="urn:osisoft-com-interface" xmlns:PBD="urn:osisoft-com-data" style="background-color:#C0C0C0">
  <title>Graphic9</title>
  <defs>
    <PBD:TagUses tag="\\\">
      <PBI:Symbol name="BARGRAPH3" PB:Type="12" />
    </PBD:TagUses>
    <PBD:TagUses tag="\\RTDBB\420_LIC_2009_PV">
      <PBI:Symbol name="DATAPOINT13" PB:Type="7" />
    </PBD:TagUses>
    <PBD:TagUses tag="\\RTDBB\420_PT_2009">
      <PBI:Symbol name="DATAPOINT14" PB:Type="7" />
    </PBD:TagUses>
    <PBD:TagUses tag="\\RTDBB\420_LIC_2009_SP">
      <PBI:Symbol name="DATAPOINT15" PB:Type="7" />
    </PBD:TagUses>
    <PBD:TagUses tag="\\RTDBB\420_LIC_2009_OUT">
      <PBI:Symbol name="DATAPOINT16" PB:Type="7" />
      <PBI:Symbol name="DATAPOINT25" PB:Type="7" />
    </PBD:TagUses>
    <PBD:TagUses tag="\\RTDBB\420_PT_2008">
      <PBI:Symbol name="DATAPOINT17" PB:Type="7" />
    </PBD:TagUses>
    <PBD:TagUses tag="\\RTDBB\420_TIC_2009_PV">
      <PBI:Symbol name="DATAPOINT18" PB:Type="7" />
    </PBD:TagUses>
    <PBD:TagUses tag="\\RTDBB\420_TIC_2009_SP">
      <PBI:Symbol name="DATAPOINT19" PB:Type="7" />
    </PBD:TagUses>
    <PBD:TagUses tag="\\RTDBB\420_TIC_2009_OUT">
      <PBI:Symbol name="DATAPOINT20" PB:Type="7" />
      <PBI:Symbol name="DATAPOINT24" PB:Type="7" />
    </PBD:TagUses>
    <PBD:TagUses tag="\\RTDBB\420_PIC_2007_PV">
      <PBI:Symbol name="DATAPOINT21" PB:Type="7" />
    </PBD:TagUses>
    <PBD:TagUses tag="\\RTDBB\420_PIC_2007_SP">
      <PBI:Symbol name="DATAPOINT22" PB:Type="7" />
    </PBD:TagUses>
    <PBD:TagUses tag="\\RTDBB\420_PIC_2007_OUT">
      <PBI:Symbol name="DATAPOINT23" PB:Type="7" />
      <PBI:Symbol name="DATAPOINT26" PB:Type="7" />
    </PBD:TagUses>
  </defs>
  <g id="TEXT56">
    <rect x="25540" y="420" width="13740" height="2420" stroke="#C0C0C0" stroke-width="20" fill="none" id="TEXT56_pbTextBoundingRectEl" />
    <text fill="#000000" font-family="Helvetica" font-size="800" font-weight="bold" text-anchor="middle" x="32410" y="2030" id="TEXT56_pbTextEl">丙烯气化器</text>
  </g>
  <path id="POLYGON173" d="M 59640 6260 l -54820 0" stroke="#000000" stroke-width="40" fill="none" />
  <rect x="13280" y="12100" width="5980" height="9840" stroke="#000000" stroke-width="20" fill="none" id="RECTANGLE38" />
  <path id="ARC27" d="M 19239 12146 l -1 -14 -3 -14 -3 -15 -4 -14 -5 -14 -6 -14 -7 -15 -7 -14 -9 -14 -9 -14 -11 -14 -11 -14 -12 -14 -13 -14 -14 -14 -15 -13 -15 -14 -17 -13 -17 -14 -18 -13 -19 -14 -20 -13 -21 -13 -22 -13 -22 -13 -23 -13 -24 -12 -25 -13 -26 -13 -26 -12 -27 -12 -28 -12 -29 -12 -29 -12 -31 -11 -31 -12 -31 -11 -33 -12 -33 -11 -33 -10 -35 -11 -35 -11 -36 -10 -36 -10 -37 -10 -38 -10 -38 -10 -39 -9 -40 -10 -40 -9 -41 -9 -41 -8 -42 -9 -42 -8 -43 -8 -43 -8 -44 -8 -45 -7 -45 -8 -45 -7 -45 -7 -47 -6 -46 -7 -47 -6 -47 -6 -48 -5 -48 -6 -49 -5 -48 -5 -49 -5 -50 -4 -49 -5 -50 -4 -50 -4 -51 -3 -50 -3 -51 -4 -51 -2 -51 -3 -51 -2 -52 -3 -51 -1 -52 -2 -52 -1 -52 -2 -52 0 -51 -1 -52 0 -53 -1 -52 1 -52 0 -51 1 -52 0 -52 2 -52 1 -52 2 -51 1 -52 3 -51 2 -51 3 -51 2 -51 4 -50 3 -51 3 -50 4 -50 4 -49 5 -50 4 -49 5 -48 5 -49 5 -48 6 -48 5 -47 6 -47 6 -46 7 -47 6 -45 7 -46 7 -44 8 -45 7 -44 8 -43 8 -43 8 -42 8 -42 9 -41 8 -41 9 -40 9 -40 10 -39 9 -38 10 -38 10 -37 10 -36 10 -36 10 -35 11 -35 11 -33 10 -33 11 -33 12 -31 11 -31 12 -31 11 -29 12 -29 12 -28 12 -27 12 -26 12 -26 13 -25 13 -24 12 -23 13 -22 13 -22 13 -21 13 -20 13 -19 14 -18 13 -17 14 -17 13 -15 14 -15 13 -14 14 -13 14 -12 14 -11 14 -11 14 -9 14 -9 14 -7 14 -7 15 -6 14 -5 14 -4 14 -3 15 -3 14 -1 14 0 14" stroke="#000000" stroke-width="20" fill="none" />
  <path id="ARC28" d="M 13280 21900 l 0 15 1 14 3 14 3 15 4 14 5 14 6 14 7 15 7 14 9 14 9 14 11 14 11 14 12 14 13 14 14 14 15 13 15 14 17 13 17 14 18 13 19 14 20 13 21 13 22 13 22 13 23 13 24 12 25 13 26 12 26 13 27 12 28 12 29 12 29 12 31 11 31 12 31 11 33 12 33 11 33 10 35 11 35 11 36 10 36 10 37 10 38 10 38 10 39 9 40 10 40 9 41 9 41 8 42 9 42 8 43 8 43 8 44 8 45 7 44 8 46 7 45 7 47 6 46 7 47 6 47 6 48 5 48 6 49 5 48 5 49 5 50 4 49 5 50 4 50 4 51 3 50 3 51 4 51 2 51 3 51 2 52 3 51 1 52 2 52 1 52 2 52 0 51 1 52 0 52 0 53 0 52 0 51 -1 52 0 52 -2 52 -1 52 -2 51 -1 52 -3 51 -2 51 -3 51 -2 51 -4 50 -3 51 -3 50 -4 50 -4 49 -5 50 -4 49 -5 48 -5 49 -5 48 -6 48 -5 47 -6 47 -6 46 -7 47 -6 45 -7 45 -7 45 -8 45 -7 44 -8 43 -8 43 -8 42 -8 42 -9 41 -8 41 -9 40 -9 40 -10 39 -9 38 -10 38 -10 37 -10 36 -10 36 -10 35 -11 35 -11 33 -10 33 -11 33 -12 31 -11 31 -12 31 -11 29 -12 29 -12 28 -12 27 -12 26 -12 26 -13 25 -13 24 -12 23 -13 22 -13 22 -13 21 -13 20 -13 19 -14 18 -13 17 -14 17 -13 15 -14 15 -13 14 -14 13 -14 12 -14 11 -14 11 -14 9 -14 9 -14 7 -14 7 -15 6 -14 5 -14 4 -14 3 -15 3 -14 1 -14" stroke="#000000" stroke-width="20" fill="none" />
  <g id="BARGRAPH3" PB:IsMultiState="False" PB:Lower="0" PB:Orientation="0" PB:CanonicalNumberFormat="General" PBD:PtTagName="\\\" PB:Start="0" PB:Upper="100" PB:Type="12">
    <rect x="13340" y="12220" width="520" height="9660" stroke-width="0" fill="#C0C0C0" id="BARGRAPH3_pbBarBoundingRectEl" />
    <rect x="13340" y="12220" width="520" height="9660" stroke-width="0" fill="#00FF00" id="BARGRAPH3_pbBarTagRectEl" stroke="none" PBD:Property="" />
  </g>
  <path id="POLYGON175" d="M 13840 17180 l 5420 0" stroke="#000000" stroke-width="20" stroke-dasharray="60,60" fill="none" />
  <path id="POLYGON176" d="M 19260 12400 l 22120 0" stroke="#000000" stroke-width="40" fill="none" />
  <path id="POLYGON177" d="M 41420 12300 l 0 -5960" stroke="#000000" stroke-width="40" fill="none" />
  <path id="LINE177" d="M 19260 18060 l 11360 0" stroke="#000000" stroke-width="40" fill="none" />
  <path id="LINE178" d="M 19340 20000 l 40040 0" stroke="#FF0000" stroke-width="40" fill="none" />
  <path id="LINE179" d="M 19340 21820 l 40360 0" stroke="#00FF00" stroke-width="40" fill="none" />
  <path id="POLYGON179" d="M 30620 18120 l 0 1520" stroke="#000000" stroke-width="40" fill="none" />
  <path id="LINE180" d="M 30660 20360 l 0 1100" stroke="#000000" stroke-width="40" fill="none" />
  <path id="LINE181" d="M 30620 22200 l 0 1340" stroke="#000000" stroke-width="40" fill="none" />
  <path id="LINE182" d="M 28240 23640 l 31400 0" stroke="#000000" stroke-width="40" fill="none" />
  <path id="LINE183" d="M 28300 23720 l 0 7660" stroke="#000000" stroke-width="40" fill="none" />
  <path id="LINE184" d="M 59700 31500 l -55220 0" stroke="#000000" stroke-width="40" fill="none" />
  <path id="LINE185" d="M 44840 25720 l 14700 0" stroke="#000000" stroke-width="40" fill="none" />
  <path id="LINE186" d="M 47660 27480 l 12040 0" stroke="#000000" stroke-width="40" fill="none" />
  <path id="LINE187" d="M 42560 29380 l 16780 0" stroke="#000000" stroke-width="40" fill="none" />
  <path id="LINE188" d="M 42680 23700 l 0 5680" stroke="#000000" stroke-width="40" fill="none" />
  <path id="LINE189" d="M 44940 25760 l 0 3680" stroke="#000000" stroke-width="40" fill="none" />
  <path id="LINE190" d="M 47800 25780 l 0 1640" stroke="#000000" stroke-width="40" fill="none" />
  <path id="LINE191" d="M 51360 8500 l 8440 0" stroke="#000000" stroke-width="40" fill="none" />
  <path id="LINE192" d="M 51360 6320 l 0 2140" stroke="#000000" stroke-width="40" fill="none" />
  <path d="M 39620 12180 l 0 400 820 -400 0 400 -820 -400" stroke="#000000" stroke-width="20" fill="#808080" />
  <path d="M 40040 12420 l 0 -420" stroke="#000000" stroke-width="20" fill="#808080" />
  <path d="M 39680 12060 l 680 0" stroke="#000000" stroke-width="20" fill="#808080" />
  <path d="M 40360 12060 l -1 -7 0 -6 0 -6 0 -7 -1 -6 0 -6 -1 -6 -1 -7 0 -6 -1 -6 -1 -6 -1 -6 -2 -6 -1 -7 -1 -6 -2 -6 -1 -6 -2 -6 -2 -6 -2 -6 -2 -6 -2 -5 -2 -6 -2 -6 -2 -6 -3 -5 -2 -6 -3 -6 -3 -5 -2 -5 -3 -6 -3 -5 -3 -6 -3 -5 -3 -5 -4 -5 -3 -5 -3 -5 -4 -5 -3 -5 -4 -5 -4 -4 -3 -5 -4 -5 -4 -4 -4 -4 -4 -5 -4 -4 -5 -4 -4 -4 -4 -4 -4 -4 -5 -4 -4 -4 -5 -3 -5 -4 -4 -3 -5 -4 -5 -3 -4 -3 -5 -3 -5 -3 -5 -3 -5 -3 -5 -3 -5 -2 -5 -3 -6 -2 -5 -3 -5 -2 -5 -2 -6 -2 -5 -2 -5 -2 -6 -1 -5 -2 -6 -1 -5 -2 -5 -1 -6 -1 -5 -1 -6 -1 -6 -1 -5 -1 -6 0 -5 -1 -6 0 -5 0 -6 0 -5 0 -6 0 -6 0 -5 0 -6 0 -5 1 -6 0 -5 1 -6 1 -6 1 -5 1 -6 1 -5 1 -5 2 -6 1 -5 2 -6 1 -5 2 -5 2 -6 2 -5 2 -5 2 -5 3 -6 2 -5 3 -5 2 -5 3 -5 3 -5 3 -5 3 -4 3 -5 3 -5 3 -5 4 -4 3 -5 4 -5 3 -4 4 -5 4 -4 4 -4 4 -4 4 -5 4 -4 4 -4 5 -4 4 -4 4 -4 5 -3 5 -4 4 -4 5 -3 5 -4 5 -3 5 -3 5 -4 5 -3 5 -3 5 -3 6 -3 5 -3 5 -2 6 -3 5 -3 6 -2 6 -3 5 -2 6 -2 6 -2 6 -2 5 -2 6 -2 6 -2 6 -2 6 -1 6 -2 6 -1 6 -1 7 -2 6 -1 6 -1 6 -1 6 0 6 -1 7 -1 6 0 6 -1 6 0 7 0 6 0 6 0 6" stroke="#000000" stroke-width="20" fill="#808080" />
  <g id="TEXT57">
    <rect x="34800" y="7960" width="3400" height="660" stroke-width="0" fill="none" id="TEXT57_pbTextBoundingRectEl" />
    <text fill="#000000" font-family="Helvetica" font-size="560" text-anchor="middle" x="36500" y="8570" id="TEXT57_pbTextEl">420PIC2007</text>
  </g>
  <g id="TEXT58">
    <rect x="34680" y="8620" width="940" height="600" stroke-width="0" fill="none" id="TEXT58_pbTextBoundingRectEl" />
    <text fill="#000000" font-family="Helvetica" font-size="560" text-anchor="middle" x="35150" y="9200" id="TEXT58_pbTextEl">P</text>
  </g>
  <g id="TEXT59">
    <rect x="37480" y="8580" width="940" height="600" stroke-width="0" fill="none" id="TEXT59_pbTextBoundingRectEl" />
    <text fill="#000000" font-family="Helvetica" font-size="560" text-anchor="middle" x="37950" y="9160" id="TEXT59_pbTextEl">MPa</text>
  </g>
  <g id="TEXT60">
    <rect x="34700" y="9260" width="940" height="600" stroke-width="0" fill="none" id="TEXT60_pbTextBoundingRectEl" />
    <text fill="#000000" font-family="Helvetica" font-size="560" text-anchor="middle" x="35170" y="9840" id="TEXT60_pbTextEl">S</text>
  </g>
  <g id="TEXT61">
    <rect x="34700" y="9800" width="940" height="600" stroke-width="0" fill="none" id="TEXT61_pbTextBoundingRectEl" />
    <text fill="#000000" font-family="Helvetica" font-size="560" text-anchor="middle" x="35170" y="10380" id="TEXT61_pbTextEl">O</text>
  </g>
  <g id="TEXT62">
    <rect x="37480" y="9260" width="940" height="600" stroke-width="0" fill="none" id="TEXT62_pbTextBoundingRectEl" />
    <text fill="#000000" font-family="Helvetica" font-size="560" text-anchor="middle" x="37950" y="9840" id="TEXT62_pbTextEl">MPa</text>
  </g>
  <g name="StraightArrow2">
    <path d="M 2808 6199 l 816 -183 -115 123 1403 0 0 122 -1403 0 115 123 -816 -185 0 0" stroke-width="0" fill="#000000" />
    <path d="M 2808 6199 l 816 -183 -115 123 1403 0 0 122 -1403 0 115 123 -816 -185" stroke="#000000" stroke-width="20" fill="none" />
  </g>
  <path d="M 33920 19820 l 0 400 820 -400 0 400 -820 -400" stroke="#000000" stroke-width="20" fill="#808080" />
  <path d="M 34340 20060 l 0 -400" stroke="#000000" stroke-width="20" fill="#808080" />
  <path d="M 33980 19700 l 700 0" stroke="#000000" stroke-width="20" fill="#808080" />
  <path d="M 34660 19700 l -1 -7 0 -6 0 -6 0 -7 -1 -6 0 -6 -1 -6 -1 -7 0 -6 -1 -6 -1 -6 -1 -6 -2 -6 -1 -7 -1 -6 -2 -6 -1 -6 -2 -6 -2 -6 -2 -6 -2 -6 -2 -5 -2 -6 -2 -6 -2 -6 -3 -5 -2 -6 -3 -6 -3 -5 -2 -5 -3 -6 -3 -5 -3 -6 -3 -5 -3 -5 -4 -5 -3 -5 -3 -5 -4 -5 -3 -5 -4 -5 -4 -4 -3 -5 -4 -5 -4 -4 -4 -4 -4 -5 -4 -4 -5 -4 -4 -4 -4 -4 -4 -4 -5 -4 -4 -4 -5 -3 -5 -4 -4 -3 -5 -4 -5 -3 -4 -3 -5 -3 -5 -3 -5 -3 -5 -3 -5 -3 -5 -2 -5 -3 -6 -2 -5 -3 -5 -2 -5 -2 -6 -2 -5 -2 -5 -2 -6 -1 -5 -2 -6 -1 -5 -2 -5 -1 -6 -1 -5 -1 -6 -1 -6 -1 -5 -1 -6 0 -5 -1 -6 0 -5 0 -6 0 -5 0 -6 0 -6 0 -5 0 -6 0 -5 1 -6 0 -5 1 -6 1 -6 1 -5 1 -6 1 -5 1 -5 2 -6 1 -5 2 -6 1 -5 2 -5 2 -6 2 -5 2 -5 2 -5 3 -6 2 -5 3 -5 2 -5 3 -5 3 -5 3 -5 3 -4 3 -5 3 -5 3 -5 4 -4 3 -5 4 -5 3 -4 4 -5 4 -4 4 -4 4 -4 4 -5 4 -4 4 -4 5 -4 4 -4 4 -4 5 -3 5 -4 4 -4 5 -3 5 -4 5 -3 5 -3 5 -4 5 -3 5 -3 5 -3 6 -3 5 -3 5 -2 6 -3 5 -3 6 -2 6 -3 5 -2 6 -2 6 -2 6 -2 5 -2 6 -2 6 -2 6 -2 6 -1 6 -2 6 -1 6 -1 7 -2 6 -1 6 -1 6 -1 6 0 6 -1 7 -1 6 0 6 -1 6 0 7 0 6 0 6 0 6" stroke="#000000" stroke-width="20" fill="#808080" />
  <path d="M 26240 17880 l 0 400 820 -400 0 400 -820 -400" stroke="#000000" stroke-width="20" fill="#808080" />
  <path d="M 26660 18120 l 0 -420" stroke="#000000" stroke-width="20" fill="#808080" />
  <path d="M 26300 17760 l 680 0" stroke="#000000" stroke-width="20" fill="#808080" />
  <path d="M 26980 17760 l -1 -7 0 -6 0 -6 0 -7 -1 -6 0 -6 -1 -6 -1 -7 0 -6 -1 -6 -1 -6 -1 -6 -2 -6 -1 -7 -1 -6 -2 -6 -1 -6 -2 -6 -2 -6 -2 -6 -2 -6 -2 -5 -2 -6 -2 -6 -2 -6 -3 -5 -2 -6 -3 -6 -3 -5 -2 -5 -3 -6 -3 -5 -3 -6 -3 -5 -3 -5 -4 -5 -3 -5 -3 -5 -4 -5 -3 -5 -4 -5 -4 -4 -3 -5 -4 -5 -4 -4 -4 -4 -4 -5 -4 -4 -5 -4 -4 -4 -4 -4 -4 -4 -5 -4 -4 -4 -5 -3 -5 -4 -4 -3 -5 -4 -5 -3 -4 -3 -5 -3 -5 -3 -5 -3 -5 -3 -5 -3 -5 -2 -5 -3 -6 -2 -5 -3 -5 -2 -5 -2 -6 -2 -5 -2 -5 -2 -6 -1 -5 -2 -6 -1 -5 -2 -5 -1 -6 -1 -5 -1 -6 -1 -6 -1 -5 -1 -6 0 -5 -1 -6 0 -5 0 -6 0 -5 0 -6 0 -6 0 -5 0 -6 0 -5 1 -6 0 -5 1 -6 1 -6 1 -5 1 -6 1 -5 1 -5 2 -6 1 -5 2 -6 1 -5 2 -5 2 -6 2 -5 2 -5 2 -5 3 -6 2 -5 3 -5 2 -5 3 -5 3 -5 3 -5 3 -4 3 -5 3 -5 3 -5 4 -4 3 -5 4 -5 3 -4 4 -5 4 -4 4 -4 4 -4 4 -5 4 -4 4 -4 5 -4 4 -4 4 -4 5 -3 5 -4 4 -4 5 -3 5 -4 5 -3 5 -3 5 -4 5 -3 5 -3 5 -3 6 -3 5 -3 5 -2 6 -3 5 -3 6 -2 6 -3 5 -2 6 -2 6 -2 6 -2 5 -2 6 -2 6 -2 6 -2 6 -1 6 -2 6 -1 6 -1 7 -2 6 -1 6 -1 6 -1 6 0 6 -1 7 -1 6 0 6 -1 6 0 7 0 6 0 6 0 6" stroke="#000000" stroke-width="20" fill="#808080" />
  <g id="TEXT63">
    <rect x="32520" y="13080" width="3400" height="660" stroke-width="0" fill="none" id="TEXT63_pbTextBoundingRectEl" />
    <text fill="#000000" font-family="Helvetica" font-size="560" text-anchor="middle" x="34220" y="13690" id="TEXT63_pbTextEl">420TAL2009</text>
  </g>
  <g id="TEXT64">
    <rect x="32380" y="13800" width="940" height="600" stroke-width="0" fill="none" id="TEXT64_pbTextBoundingRectEl" />
    <text fill="#000000" font-family="Helvetica" font-size="560" text-anchor="middle" x="32850" y="14380" id="TEXT64_pbTextEl">P</text>
  </g>
  <g id="TEXT65">
    <rect x="35200" y="13760" width="940" height="600" stroke-width="0" fill="none" id="TEXT65_pbTextBoundingRectEl" />
    <text fill="#000000" font-family="Helvetica" font-size="560" text-anchor="middle" x="35670" y="14340" id="TEXT65_pbTextEl">℃</text>
  </g>
  <g id="TEXT66">
    <rect x="32420" y="14440" width="940" height="600" stroke-width="0" fill="none" id="TEXT66_pbTextBoundingRectEl" />
    <text fill="#000000" font-family="Helvetica" font-size="560" text-anchor="middle" x="32890" y="15020" id="TEXT66_pbTextEl">S</text>
  </g>
  <g id="TEXT67">
    <rect x="32420" y="14980" width="940" height="600" stroke-width="0" fill="none" id="TEXT67_pbTextBoundingRectEl" />
    <text fill="#000000" font-family="Helvetica" font-size="560" text-anchor="middle" x="32890" y="15560" id="TEXT67_pbTextEl">O</text>
  </g>
  <g id="TEXT69">
    <rect x="19700" y="15060" width="3400" height="660" stroke-width="0" fill="none" id="TEXT69_pbTextBoundingRectEl" />
    <text fill="#000000" font-family="Helvetica" font-size="560" text-anchor="middle" x="21400" y="15670" id="TEXT69_pbTextEl">420LIC2009</text>
  </g>
  <g id="TEXT70">
    <rect x="19560" y="15800" width="940" height="600" stroke-width="0" fill="none" id="TEXT70_pbTextBoundingRectEl" />
    <text fill="#000000" font-family="Helvetica" font-size="560" text-anchor="middle" x="20030" y="16380" id="TEXT70_pbTextEl">P</text>
  </g>
  <g id="TEXT71">
    <rect x="22380" y="15760" width="940" height="600" stroke-width="0" fill="none" id="TEXT71_pbTextBoundingRectEl" />
    <text fill="#000000" font-family="Helvetica" font-size="560" text-anchor="middle" x="22850" y="16340" id="TEXT71_pbTextEl">mm</text>
  </g>
  <g id="TEXT72">
    <rect x="19600" y="16440" width="940" height="600" stroke-width="0" fill="none" id="TEXT72_pbTextBoundingRectEl" />
    <text fill="#000000" font-family="Helvetica" font-size="560" text-anchor="middle" x="20070" y="17020" id="TEXT72_pbTextEl">S</text>
  </g>
  <g id="TEXT73">
    <rect x="19600" y="16980" width="940" height="600" stroke-width="0" fill="none" id="TEXT73_pbTextBoundingRectEl" />
    <text fill="#000000" font-family="Helvetica" font-size="560" text-anchor="middle" x="20070" y="17560" id="TEXT73_pbTextEl">O</text>
  </g>
  <g id="TEXT74">
    <rect x="22380" y="16440" width="940" height="600" stroke-width="0" fill="none" id="TEXT74_pbTextBoundingRectEl" />
    <text fill="#000000" font-family="Helvetica" font-size="560" text-anchor="middle" x="22850" y="17020" id="TEXT74_pbTextEl">mm</text>
  </g>
  <path id="POLYGON227" d="M 32480 14100 l -13180 0" stroke="#000000" stroke-width="20" stroke-dasharray="60,60" fill="none" />
  <path id="POLYGON228" d="M 34320 15700 l 0 3720" stroke="#000000" stroke-width="20" stroke-dasharray="60,60" fill="none" />
  <path id="LINE228" d="M 30060 14360 l 0 3740" stroke="#000000" stroke-width="20" stroke-dasharray="60,60" fill="none" />
  <path id="LINE233" d="M 26660 14300 l 0 3120" stroke="#000000" stroke-width="20" stroke-dasharray="60,60" fill="none" />
  <path id="POLYGON233" d="M 26360 17580 l -2840 0" stroke="#000000" stroke-width="20" stroke-dasharray="60,60" fill="none" />
  <path id="POLYGON234" d="M 22120 14160 l 0 840" stroke="#000000" stroke-width="20" stroke-dasharray="60,60" fill="none" />
  <path id="LINE234" d="M 20520 11940 l 0 2000" stroke="#000000" stroke-width="20" stroke-dasharray="60,60" fill="none" />
  <path id="LINE235" d="M 40040 10240 l 0 1500" stroke="#000000" stroke-width="20" stroke-dasharray="60,60" fill="none" />
  <path id="LINE236" d="M 39940 10280 l -1340 0" stroke="#000000" stroke-width="20" stroke-dasharray="60,60" fill="none" />
  <path id="LINE237" d="M 41340 8380 l -2840 0" stroke="#000000" stroke-width="20" stroke-dasharray="60,60" fill="none" />
  <g name="StraightArrow2">
    <path d="M 2228 31439 l 816 -183 -115 123 1403 0 0 122 -1403 0 115 123 -816 -185 0 0" stroke-width="0" fill="#000000" />
    <path d="M 2228 31439 l 816 -183 -115 123 1403 0 0 122 -1403 0 115 123 -816 -185" stroke="#000000" stroke-width="20" fill="none" />
  </g>
  <g name="StraightArrow2">
    <path d="M 59428 23599 l 816 -183 -115 123 1403 0 0 122 -1403 0 115 123 -816 -185 0 0" stroke-width="0" fill="#000000" />
    <path d="M 59428 23599 l 816 -183 -115 123 1403 0 0 122 -1403 0 115 123 -816 -185" stroke="#000000" stroke-width="20" fill="none" />
  </g>
  <g name="StraightArrow2">
    <path d="M 59328 27439 l 816 -183 -115 123 1403 0 0 122 -1403 0 115 123 -816 -185 0 0" stroke-width="0" fill="#000000" />
    <path d="M 59328 27439 l 816 -183 -115 123 1403 0 0 122 -1403 0 115 123 -816 -185" stroke="#000000" stroke-width="20" fill="none" />
  </g>
  <g name="StraightArrow2">
    <path d="M 59228 31499 l 816 -183 -115 123 1403 0 0 122 -1403 0 115 123 -816 -185 0 0" stroke-width="0" fill="#000000" />
    <path d="M 59228 31499 l 816 -183 -115 123 1403 0 0 122 -1403 0 115 123 -816 -185" stroke="#000000" stroke-width="20" fill="none" />
  </g>
  <g name="StraightArrow2">
    <path d="M 61432 29319 l -816 -183 115 123 -1403 0 0 122 1403 0 -115 123 816 -185 0 0" stroke-width="0" fill="#000000" />
    <path d="M 61432 29319 l -816 -183 115 123 -1403 0 0 122 1403 0 -115 123 816 -185" stroke="#000000" stroke-width="20" fill="none" />
  </g>
  <g name="StraightArrow2">
    <path d="M 61572 25659 l -816 -183 115 123 -1403 0 0 122 1403 0 -115 123 816 -185 0 0" stroke-width="0" fill="#000000" />
    <path d="M 61572 25659 l -816 -183 115 123 -1403 0 0 122 1403 0 -115 123 816 -185" stroke="#000000" stroke-width="20" fill="none" />
  </g>
  <g name="StraightArrow2">
    <path d="M 61792 21779 l -816 -183 115 123 -1403 0 0 122 1403 0 -115 123 816 -185 0 0" stroke-width="0" fill="#00FF00" />
    <path d="M 61792 21779 l -816 -183 115 123 -1403 0 0 122 1403 0 -115 123 816 -185" stroke="#000000" stroke-width="20" fill="none" />
  </g>
  <g name="StraightArrow2">
    <path d="M 59488 19999 l 816 -183 -115 123 1403 0 0 122 -1403 0 115 123 -816 -185 0 0" stroke-width="0" fill="#FF0000" />
    <path d="M 59488 19999 l 816 -183 -115 123 1403 0 0 122 -1403 0 115 123 -816 -185" stroke="#000000" stroke-width="20" fill="none" />
  </g>
  <g name="StraightArrow2">
    <path d="M 61832 6199 l -816 -183 115 123 -1403 0 0 122 1403 0 -115 123 816 -185 0 0" stroke-width="0" fill="#000000" />
    <path d="M 61832 6199 l -816 -183 115 123 -1403 0 0 122 1403 0 -115 123 816 -185" stroke="#000000" stroke-width="20" fill="none" />
  </g>
  <g name="StraightArrow2">
    <path d="M 61872 8439 l -816 -183 115 123 -1403 0 0 122 1403 0 -115 123 816 -185 0 0" stroke-width="0" fill="#000000" />
    <path d="M 61872 8439 l -816 -183 115 123 -1403 0 0 122 1403 0 -115 123 816 -185" stroke="#000000" stroke-width="20" fill="none" />
  </g>
  <g id="TEXT75">
    <rect x="14420" y="17240" width="4520" height="940" stroke-width="0" fill="none" id="TEXT75_pbTextBoundingRectEl" />
    <text fill="#000000" font-family="Helvetica" font-size="560" text-anchor="middle" x="16680" y="17990" id="TEXT75_pbTextEl">4201-E-001</text>
  </g>
  <g id="TEXT76">
    <rect x="24740" y="19300" width="3400" height="660" stroke-width="0" fill="none" id="TEXT76_pbTextBoundingRectEl" />
    <text fill="#000000" font-family="Helvetica" font-size="560" text-anchor="middle" x="26440" y="19910" id="TEXT76_pbTextEl">420LV2009</text>
  </g>
  <g id="TEXT77">
    <rect x="28300" y="16320" width="3400" height="660" stroke-width="0" fill="none" id="TEXT77_pbTextBoundingRectEl" />
    <text fill="#000000" font-family="Helvetica" font-size="560" text-anchor="middle" x="30000" y="16930" id="TEXT77_pbTextEl">420PIA2008</text>
  </g>
  <g id="TEXT78">
    <rect x="35200" y="14500" width="940" height="600" stroke-width="0" fill="none" id="TEXT78_pbTextBoundingRectEl" />
    <text fill="#000000" font-family="Helvetica" font-size="560" text-anchor="middle" x="35670" y="15080" id="TEXT78_pbTextEl">℃</text>
  </g>
  <g id="TEXT79">
    <rect x="32820" y="21220" width="3400" height="660" stroke-width="0" fill="none" id="TEXT79_pbTextBoundingRectEl" />
    <text fill="#000000" font-family="Helvetica" font-size="560" text-anchor="middle" x="34520" y="21830" id="TEXT79_pbTextEl">420TV2009</text>
  </g>
  <g id="TEXT80">
    <rect x="38340" y="13580" width="3400" height="660" stroke-width="0" fill="none" id="TEXT80_pbTextBoundingRectEl" />
    <text fill="#000000" font-family="Helvetica" font-size="560" text-anchor="middle" x="40040" y="14190" id="TEXT80_pbTextEl">420PV2007</text>
  </g>
  <g id="TEXT81">
    <rect x="19800" y="10840" width="3400" height="660" stroke-width="0" fill="none" id="TEXT81_pbTextBoundingRectEl" />
    <text fill="#000000" font-family="Helvetica" font-size="560" text-anchor="middle" x="21500" y="11450" id="TEXT81_pbTextEl">420PIA2009</text>
  </g>
  <g id="TEXT82">
    <rect x="22080" y="11340" width="940" height="600" stroke-width="0" fill="none" id="TEXT82_pbTextBoundingRectEl" />
    <text fill="#000000" font-family="Helvetica" font-size="560" text-anchor="middle" x="22550" y="11920" id="TEXT82_pbTextEl">MPa</text>
  </g>
  <g id="TEXT83">
    <rect x="51940" y="5040" width="9980" height="940" stroke-width="0" fill="none" id="TEXT83_pbTextBoundingRectEl" />
    <text fill="#000000" font-family="Helvetica" font-size="560" text-anchor="middle" x="56930" y="5790" id="TEXT83_pbTextEl">气相开车丙烯去分离装置</text>
  </g>
  <g id="TEXT84">
    <rect x="51980" y="7160" width="9980" height="940" stroke-width="0" fill="none" id="TEXT84_pbTextBoundingRectEl" />
    <text fill="#000000" font-family="Helvetica" font-size="560" text-anchor="middle" x="56970" y="7910" id="TEXT84_pbTextEl">气相丙烯去自汽车装卸站</text>
  </g>
  <g id="TEXT85">
    <rect x="57900" y="18660" width="4120" height="940" stroke-width="0" fill="none" id="TEXT85_pbTextBoundingRectEl" />
    <text fill="#000000" font-family="Helvetica" font-size="560" text-anchor="middle" x="59960" y="19410" id="TEXT85_pbTextEl">低压蒸汽</text>
  </g>
  <g id="TEXT86">
    <rect x="58300" y="20660" width="4120" height="940" stroke-width="0" fill="none" id="TEXT86_pbTextBoundingRectEl" />
    <text fill="#000000" font-family="Helvetica" font-size="560" text-anchor="middle" x="60360" y="21410" id="TEXT86_pbTextEl">冷凝水</text>
  </g>
  <g id="TEXT87">
    <rect x="52660" y="22480" width="9980" height="940" stroke-width="0" fill="none" id="TEXT87_pbTextBoundingRectEl" />
    <text fill="#000000" font-family="Helvetica" font-size="560" text-anchor="middle" x="57650" y="23230" id="TEXT87_pbTextEl">开车丙烯首次卸车线</text>
  </g>
  <g id="TEXT88">
    <rect x="52560" y="24480" width="9980" height="940" stroke-width="0" fill="none" id="TEXT88_pbTextBoundingRectEl" />
    <text fill="#000000" font-family="Helvetica" font-size="560" text-anchor="middle" x="57550" y="25230" id="TEXT88_pbTextEl">液相丙烯去自装卸站</text>
  </g>
  <g id="TEXT89">
    <rect x="52180" y="26260" width="9980" height="940" stroke-width="0" fill="none" id="TEXT89_pbTextBoundingRectEl" />
    <text fill="#000000" font-family="Helvetica" font-size="560" text-anchor="middle" x="57170" y="27010" id="TEXT89_pbTextEl">液相丙烯自丙烯装车泵</text>
  </g>
  <g id="TEXT90">
    <rect x="53540" y="27960" width="9980" height="940" stroke-width="0" fill="none" id="TEXT90_pbTextBoundingRectEl" />
    <text fill="#000000" font-family="Helvetica" font-size="560" text-anchor="middle" x="58530" y="28710" id="TEXT90_pbTextEl">外购丙烯进罐线</text>
  </g>
  <g id="TEXT91">
    <rect x="53460" y="30140" width="9980" height="940" stroke-width="0" fill="none" id="TEXT91_pbTextBoundingRectEl" />
    <text fill="#000000" font-family="Helvetica" font-size="560" text-anchor="middle" x="58450" y="30890" id="TEXT91_pbTextEl">丙烯倒罐进罐线</text>
  </g>
  <g id="TEXT92">
    <rect x="360" y="30240" width="9980" height="940" stroke-width="0" fill="none" id="TEXT92_pbTextBoundingRectEl" />
    <text fill="#000000" font-family="Helvetica" font-size="560" text-anchor="middle" x="5350" y="30990" id="TEXT92_pbTextEl">丙烯倒罐进罐线</text>
  </g>
  <g id="TEXT93">
    <rect x="920" y="4740" width="9980" height="940" stroke-width="0" fill="none" id="TEXT93_pbTextBoundingRectEl" />
    <text fill="#000000" font-family="Helvetica" font-size="560" text-anchor="middle" x="5910" y="5490" id="TEXT93_pbTextEl">丙烯球罐气相线</text>
  </g>
  <g id="DATAPOINT13" PB:IsMultiState="False" PBD:PtTagName="\\RTDBB\420_LIC_2009_PV" PB:Type="7" PB:NumberFormat="0.00">
    <rect x="20440" y="15820" width="1540" height="340" stroke-width="0" fill="none" id="DATAPOINT13_pbTextBoundingRectEl" />
    <text fill="#000000" font-family="Helvetica" font-size="560" text-anchor="middle" x="21210" y="16270" id="DATAPOINT13_pbTextEl" PBD:Property="VAL">#.##</text>
  </g>
  <g id="DATAPOINT14" PB:IsMultiState="False" PBD:PtTagName="\\RTDBB\420_PT_2009" PB:Type="7" PB:NumberFormat="0.00">
    <rect x="20520" y="11460" width="1540" height="340" stroke-width="0" fill="none" id="DATAPOINT14_pbTextBoundingRectEl" />
    <text fill="#000000" font-family="Helvetica" font-size="560" text-anchor="middle" x="21290" y="11910" id="DATAPOINT14_pbTextEl" PBD:Property="VAL">#.##</text>
  </g>
  <g id="DATAPOINT15" PB:IsMultiState="False" PBD:PtTagName="\\RTDBB\420_LIC_2009_SP" PB:Type="7" PB:NumberFormat="0.00">
    <rect x="20440" y="16420" width="1540" height="340" stroke-width="0" fill="none" id="DATAPOINT15_pbTextBoundingRectEl" />
    <text fill="#000000" font-family="Helvetica" font-size="560" text-anchor="middle" x="21210" y="16870" id="DATAPOINT15_pbTextEl" PBD:Property="VAL">#.##</text>
  </g>
  <g id="DATAPOINT16" PB:IsMultiState="False" PBD:PtTagName="\\RTDBB\420_LIC_2009_OUT" PB:Type="7" PB:NumberFormat="0.00">
    <rect x="20460" y="17220" width="1540" height="340" stroke-width="0" fill="none" id="DATAPOINT16_pbTextBoundingRectEl" />
    <text fill="#000000" font-family="Helvetica" font-size="560" text-anchor="middle" x="21230" y="17670" id="DATAPOINT16_pbTextEl" PBD:Property="VAL">#.##</text>
  </g>
  <g id="DATAPOINT17" PB:IsMultiState="False" PBD:PtTagName="\\RTDBB\420_PT_2008" PB:Type="7" PB:NumberFormat="0.00">
    <rect x="30400" y="17000" width="1540" height="340" stroke-width="0" fill="none" id="DATAPOINT17_pbTextBoundingRectEl" />
    <text fill="#000000" font-family="Helvetica" font-size="560" text-anchor="middle" x="31170" y="17450" id="DATAPOINT17_pbTextEl" PBD:Property="VAL">#.##</text>
  </g>
  <g id="DATAPOINT18" PB:IsMultiState="False" PBD:PtTagName="\\RTDBB\420_TIC_2009_PV" PB:Type="7" PB:NumberFormat="0.00">
    <rect x="33600" y="13900" width="1540" height="340" stroke-width="0" fill="none" id="DATAPOINT18_pbTextBoundingRectEl" />
    <text fill="#000000" font-family="Helvetica" font-size="560" text-anchor="middle" x="34370" y="14350" id="DATAPOINT18_pbTextEl" PBD:Property="VAL">#.##</text>
  </g>
  <g id="DATAPOINT19" PB:IsMultiState="False" PBD:PtTagName="\\RTDBB\420_TIC_2009_SP" PB:Type="7" PB:NumberFormat="0.00">
    <rect x="33540" y="14580" width="1540" height="340" stroke-width="0" fill="none" id="DATAPOINT19_pbTextBoundingRectEl" />
    <text fill="#000000" font-family="Helvetica" font-size="560" text-anchor="middle" x="34310" y="15030" id="DATAPOINT19_pbTextEl" PBD:Property="VAL">#.##</text>
  </g>
  <g id="DATAPOINT20" PB:IsMultiState="False" PBD:PtTagName="\\RTDBB\420_TIC_2009_OUT" PB:Type="7" PB:NumberFormat="0.00">
    <rect x="33540" y="15180" width="1540" height="340" stroke-width="0" fill="none" id="DATAPOINT20_pbTextBoundingRectEl" />
    <text fill="#000000" font-family="Helvetica" font-size="560" text-anchor="middle" x="34310" y="15630" id="DATAPOINT20_pbTextEl" PBD:Property="VAL">#.##</text>
  </g>
  <g id="DATAPOINT21" PB:IsMultiState="False" PBD:PtTagName="\\RTDBB\420_PIC_2007_PV" PB:Type="7" PB:NumberFormat="0.00">
    <rect x="35760" y="8660" width="1540" height="340" stroke-width="0" fill="none" id="DATAPOINT21_pbTextBoundingRectEl" />
    <text fill="#000000" font-family="Helvetica" font-size="560" text-anchor="middle" x="36530" y="9110" id="DATAPOINT21_pbTextEl" PBD:Property="VAL">#.##</text>
  </g>
  <g id="DATAPOINT22" PB:IsMultiState="False" PBD:PtTagName="\\RTDBB\420_PIC_2007_SP" PB:Type="7" PB:NumberFormat="0.00">
    <rect x="35760" y="9280" width="1540" height="340" stroke-width="0" fill="#C0C0C0" id="DATAPOINT22_pbTextBoundingRectEl" />
    <text fill="#000000" font-family="Helvetica" font-size="560" text-anchor="middle" x="36530" y="9730" id="DATAPOINT22_pbTextEl" PBD:Property="VAL">#.##</text>
  </g>
  <g id="DATAPOINT23" PB:IsMultiState="False" PBD:PtTagName="\\RTDBB\420_PIC_2007_OUT" PB:Type="7" PB:NumberFormat="0.00">
    <rect x="35880" y="9900" width="1540" height="340" stroke-width="0" fill="none" id="DATAPOINT23_pbTextBoundingRectEl" />
    <text fill="#000000" font-family="Helvetica" font-size="560" text-anchor="middle" x="36650" y="10350" id="DATAPOINT23_pbTextEl" PBD:Property="VAL">#.##</text>
  </g>
  <g id="DATAPOINT24" PB:IsMultiState="False" PBD:PtTagName="\\RTDBB\420_TIC_2009_OUT" PB:Type="7" PB:NumberFormat="0.00">
    <rect x="33720" y="20480" width="1540" height="340" stroke-width="0" fill="none" id="DATAPOINT24_pbTextBoundingRectEl" />
    <text fill="#000000" font-family="Helvetica" font-size="560" text-anchor="middle" x="34490" y="20930" id="DATAPOINT24_pbTextEl" PBD:Property="VAL">#.##</text>
  </g>
  <g id="DATAPOINT25" PB:IsMultiState="False" PBD:PtTagName="\\RTDBB\420_LIC_2009_OUT" PB:Type="7" PB:NumberFormat="0.00">
    <rect x="25820" y="18660" width="1540" height="340" stroke-width="0" fill="none" id="DATAPOINT25_pbTextBoundingRectEl" />
    <text fill="#000000" font-family="Helvetica" font-size="560" text-anchor="middle" x="26590" y="19110" id="DATAPOINT25_pbTextEl" PBD:Property="VAL">#.##</text>
  </g>
  <g id="DATAPOINT26" PB:IsMultiState="False" PBD:PtTagName="\\RTDBB\420_PIC_2007_OUT" PB:Type="7" PB:NumberFormat="0.00">
    <rect x="39360" y="12880" width="1540" height="340" stroke-width="0" fill="none" id="DATAPOINT26_pbTextBoundingRectEl" />
    <text fill="#000000" font-family="Helvetica" font-size="560" text-anchor="middle" x="40130" y="13330" id="DATAPOINT26_pbTextEl" PBD:Property="VAL">#.##</text>
  </g>
</svg>