<svg xmlns="http://www.w3.org/2000/svg" xmlns:xlink="http://www.w3.org/1999/xlink" version="1.1" style="background-color:#7DB6C1" width="1062" height="669" viewbox="0 0 1062 669"><defs>
<linearGradient x1="50.000000%" y1="0.000000%" x2="50.000000%" y2="100.000000%" id="lgradient21_0">
<stop offset="0" stop-color="#424242" stop-opacity="1"/>
<stop offset="0.5" stop-color="#FFFFFF" stop-opacity="1"/>
<stop offset="1" stop-color="#424242" stop-opacity="1"/>
</linearGradient>
<linearGradient x1="50.000000%" y1="0.000000%" x2="50.000000%" y2="100.000000%" id="lgradient21_1_0">
<stop offset="0" stop-color="#353535" stop-opacity="1"/>
<stop offset="0.5" stop-color="#FFFFFF" stop-opacity="1"/>
<stop offset="1" stop-color="#353535" stop-opacity="1"/>
</linearGradient>
<linearGradient x1="50.000000%" y1="0.000000%" x2="50.000000%" y2="100.000000%" id="lgradient21_1_1">
<stop offset="0" stop-color="#353535" stop-opacity="1"/>
<stop offset="0.5" stop-color="#FFFFFF" stop-opacity="1"/>
<stop offset="1" stop-color="#353535" stop-opacity="1"/>
</linearGradient>
<linearGradient x1="50.000000%" y1="0.000000%" x2="50.000000%" y2="100.000000%" id="lgradient21_2_0">
<stop offset="0" stop-color="#353535" stop-opacity="1"/>
<stop offset="0.5" stop-color="#FFFFFF" stop-opacity="1"/>
<stop offset="1" stop-color="#353535" stop-opacity="1"/>
</linearGradient>
<linearGradient x1="50.000000%" y1="0.000000%" x2="50.000000%" y2="100.000000%" id="lgradient21_2_1">
<stop offset="0" stop-color="#353535" stop-opacity="1"/>
<stop offset="0.5" stop-color="#FFFFFF" stop-opacity="1"/>
<stop offset="1" stop-color="#353535" stop-opacity="1"/>
</linearGradient>
<linearGradient x1="50.000000%" y1="0.000000%" x2="50.000000%" y2="100.000000%" id="lgradient22_2">
<stop offset="0" stop-color="#2C2C2C" stop-opacity="1"/>
<stop offset="0.5" stop-color="#FFFFFF" stop-opacity="1"/>
<stop offset="1" stop-color="#2C2C2C" stop-opacity="1"/>
</linearGradient>
<linearGradient x1="50.000000%" y1="0.000000%" x2="50.000000%" y2="100.000000%" id="lgradient22_3">
<stop offset="0" stop-color="#2C2C2C" stop-opacity="1"/>
<stop offset="0.5" stop-color="#FFFFFF" stop-opacity="1"/>
<stop offset="1" stop-color="#2C2C2C" stop-opacity="1"/>
</linearGradient>
<linearGradient x1="0.000000%" y1="50.000000%" x2="100.000000%" y2="50.000000%" id="lgradient23">
<stop offset="0" stop-color="#424242" stop-opacity="1"/>
<stop offset="0.5" stop-color="#FFFFFF" stop-opacity="1"/>
<stop offset="1" stop-color="#424242" stop-opacity="1"/>
</linearGradient>
<linearGradient x1="50.000000%" y1="0.000000%" x2="50.000000%" y2="100.000000%" id="lgradient24_0">
<stop offset="0" stop-color="#424242" stop-opacity="1"/>
<stop offset="0.5" stop-color="#FFFFFF" stop-opacity="1"/>
<stop offset="1" stop-color="#424242" stop-opacity="1"/>
</linearGradient>
<linearGradient x1="50.000000%" y1="0.000000%" x2="50.000000%" y2="100.000000%" id="lgradient24_1_0">
<stop offset="0" stop-color="#353535" stop-opacity="1"/>
<stop offset="0.5" stop-color="#FFFFFF" stop-opacity="1"/>
<stop offset="1" stop-color="#353535" stop-opacity="1"/>
</linearGradient>
<linearGradient x1="50.000000%" y1="0.000000%" x2="50.000000%" y2="100.000000%" id="lgradient24_1_1">
<stop offset="0" stop-color="#353535" stop-opacity="1"/>
<stop offset="0.5" stop-color="#FFFFFF" stop-opacity="1"/>
<stop offset="1" stop-color="#353535" stop-opacity="1"/>
</linearGradient>
<linearGradient x1="50.000000%" y1="0.000000%" x2="50.000000%" y2="100.000000%" id="lgradient24_2_0">
<stop offset="0" stop-color="#353535" stop-opacity="1"/>
<stop offset="0.5" stop-color="#FFFFFF" stop-opacity="1"/>
<stop offset="1" stop-color="#353535" stop-opacity="1"/>
</linearGradient>
<linearGradient x1="50.000000%" y1="0.000000%" x2="50.000000%" y2="100.000000%" id="lgradient24_2_1">
<stop offset="0" stop-color="#353535" stop-opacity="1"/>
<stop offset="0.5" stop-color="#FFFFFF" stop-opacity="1"/>
<stop offset="1" stop-color="#353535" stop-opacity="1"/>
</linearGradient>
<linearGradient x1="0.000000%" y1="50.000000%" x2="100.000000%" y2="50.000000%" id="lgradient25_0_0_0_0">
<stop offset="0" stop-color="#545454" stop-opacity="1"/>
<stop offset="0.5" stop-color="#D8D8D8" stop-opacity="1"/>
<stop offset="1" stop-color="#545454" stop-opacity="1"/>
</linearGradient>
<linearGradient x1="0.000000%" y1="50.000000%" x2="100.000000%" y2="50.000000%" id="lgradient25_0_0_0_1_0">
<stop offset="0" stop-color="#696969" stop-opacity="1"/>
<stop offset="0.5" stop-color="#D8D8D8" stop-opacity="1"/>
<stop offset="1" stop-color="#696969" stop-opacity="1"/>
</linearGradient>
<linearGradient x1="0.000000%" y1="50.000000%" x2="100.000000%" y2="50.000000%" id="lgradient25_1_0_0_0">
<stop offset="0" stop-color="#545454" stop-opacity="1"/>
<stop offset="0.5" stop-color="#D8D8D8" stop-opacity="1"/>
<stop offset="1" stop-color="#545454" stop-opacity="1"/>
</linearGradient>
<linearGradient x1="0.000000%" y1="50.000000%" x2="100.000000%" y2="50.000000%" id="lgradient25_1_0_0_1_0">
<stop offset="0" stop-color="#696969" stop-opacity="1"/>
<stop offset="0.5" stop-color="#D8D8D8" stop-opacity="1"/>
<stop offset="1" stop-color="#696969" stop-opacity="1"/>
</linearGradient>
<linearGradient x1="0.000000%" y1="50.000000%" x2="100.000000%" y2="50.000000%" id="lgradient30_0_0_0_0">
<stop offset="0" stop-color="#545454" stop-opacity="1"/>
<stop offset="0.5" stop-color="#D8D8D8" stop-opacity="1"/>
<stop offset="1" stop-color="#545454" stop-opacity="1"/>
</linearGradient>
<linearGradient x1="0.000000%" y1="50.000000%" x2="100.000000%" y2="50.000000%" id="lgradient30_0_0_0_1_0">
<stop offset="0" stop-color="#696969" stop-opacity="1"/>
<stop offset="0.5" stop-color="#D8D8D8" stop-opacity="1"/>
<stop offset="1" stop-color="#696969" stop-opacity="1"/>
</linearGradient>
<linearGradient x1="0.000000%" y1="50.000000%" x2="100.000000%" y2="50.000000%" id="lgradient30_1_0_0_0">
<stop offset="0" stop-color="#545454" stop-opacity="1"/>
<stop offset="0.5" stop-color="#D8D8D8" stop-opacity="1"/>
<stop offset="1" stop-color="#545454" stop-opacity="1"/>
</linearGradient>
<linearGradient x1="0.000000%" y1="50.000000%" x2="100.000000%" y2="50.000000%" id="lgradient30_1_0_0_1_0">
<stop offset="0" stop-color="#696969" stop-opacity="1"/>
<stop offset="0.5" stop-color="#D8D8D8" stop-opacity="1"/>
<stop offset="1" stop-color="#696969" stop-opacity="1"/>
</linearGradient>
<linearGradient x1="0.000000%" y1="50.000000%" x2="100.000000%" y2="50.000000%" id="lgradient59">
<stop offset="0" stop-color="#424242" stop-opacity="1"/>
<stop offset="0.5" stop-color="#FFFFFF" stop-opacity="1"/>
<stop offset="1" stop-color="#424242" stop-opacity="1"/>
</linearGradient>
<linearGradient x1="0.000000%" y1="50.000000%" x2="100.000000%" y2="50.000000%" id="lgradient60">
<stop offset="0" stop-color="#424242" stop-opacity="1"/>
<stop offset="0.5" stop-color="#FFFFFF" stop-opacity="1"/>
<stop offset="1" stop-color="#424242" stop-opacity="1"/>
</linearGradient>
<linearGradient x1="0.000000%" y1="50.000000%" x2="100.000000%" y2="50.000000%" id="lgradient61_2">
<stop offset="0" stop-color="#2C2C2C" stop-opacity="1"/>
<stop offset="0.5" stop-color="#FFFFFF" stop-opacity="1"/>
<stop offset="1" stop-color="#2C2C2C" stop-opacity="1"/>
</linearGradient>
<linearGradient x1="0.000000%" y1="50.000000%" x2="100.000000%" y2="50.000000%" id="lgradient61_3">
<stop offset="0" stop-color="#2C2C2C" stop-opacity="1"/>
<stop offset="0.5" stop-color="#FFFFFF" stop-opacity="1"/>
<stop offset="1" stop-color="#2C2C2C" stop-opacity="1"/>
</linearGradient>
<linearGradient x1="0.000000%" y1="50.000000%" x2="100.000000%" y2="50.000000%" id="lgradient97_2">
<stop offset="0" stop-color="#2C2C2C" stop-opacity="1"/>
<stop offset="0.5" stop-color="#FFFFFF" stop-opacity="1"/>
<stop offset="1" stop-color="#2C2C2C" stop-opacity="1"/>
</linearGradient>
<linearGradient x1="0.000000%" y1="50.000000%" x2="100.000000%" y2="50.000000%" id="lgradient97_3">
<stop offset="0" stop-color="#2C2C2C" stop-opacity="1"/>
<stop offset="0.5" stop-color="#FFFFFF" stop-opacity="1"/>
<stop offset="1" stop-color="#2C2C2C" stop-opacity="1"/>
</linearGradient>
<linearGradient x1="50.000000%" y1="0.000000%" x2="50.000000%" y2="100.000000%" id="lgradient122">
<stop offset="0" stop-color="#424242" stop-opacity="1"/>
<stop offset="0.5" stop-color="#FFFFFF" stop-opacity="1"/>
<stop offset="1" stop-color="#424242" stop-opacity="1"/>
</linearGradient>
<linearGradient x1="50.000000%" y1="0.000000%" x2="50.000000%" y2="100.000000%" id="lgradient126">
<stop offset="0" stop-color="#424242" stop-opacity="1"/>
<stop offset="0.5" stop-color="#FFFFFF" stop-opacity="1"/>
<stop offset="1" stop-color="#424242" stop-opacity="1"/>
</linearGradient>
</defs>
<line shape-type="limitline" x1="669" y1="291" x2="767" y2="291" fill="#00FFFF" stroke="#0000FF" stroke-width="3.00"/>
<line shape-type="limitline" x1="562" y1="327" x2="660" y2="327" fill="#00FFFF" stroke="#0000FF" stroke-width="3.00"/>
<line shape-type="limitline" x1="540" y1="409" x2="638" y2="409" fill="#00FFFF" stroke="#0000FF" stroke-width="3.00"/>
<line shape-type="limitline" x1="417" y1="447" x2="541" y2="447" fill="#00FFFF" stroke="#0000FF" stroke-width="3.00"/>
<line shape-type="limitline" x1="156" y1="122" x2="156" y2="84" fill="#00FFFF" stroke="#FF0000" stroke-width="3.00"/>
<line shape-type="limitline" x1="517" y1="283" x2="534" y2="283" fill="#00FFFF" stroke="#80FF00" stroke-width="3.00"/>
<line shape-type="limitline" x1="498" y1="271" x2="498" y2="247" fill="#00FFFF" stroke="#80FF00" stroke-width="3.00"/>
<line shape-type="limitline" x1="151" y1="307" x2="151" y2="395" fill="#00FFFF" stroke="#80FF00" stroke-width="3.00"/>
<line shape-type="limitline" x1="310" y1="444" x2="310" y2="421" fill="#00FFFF" stroke="#80FF00" stroke-width="3.00"/>
<line shape-type="limitline" x1="277" y1="457" x2="297" y2="457" fill="#00FFFF" stroke="#80FF00" stroke-width="3.00"/>
<line shape-type="limitline" x1="328" y1="460" x2="347" y2="460" fill="#00FFFF" stroke="#80FF00" stroke-width="3.00"/>
<line shape-type="limitline" x1="201" y1="341" x2="201" y2="479" fill="#00FFFF" stroke="#80FF00" stroke-width="3.00"/>
<line shape-type="limitline" x1="447" y1="271" x2="447" y2="210" fill="#00FFFF" stroke="#80FF00" stroke-width="3.00"/>
<line shape-type="limitline" x1="460" y1="283" x2="476" y2="283" fill="#00FFFF" stroke="#80FF00" stroke-width="3.00"/>
<line shape-type="limitline" x1="392" y1="89" x2="392" y2="208" fill="#00FFFF" stroke="#80FF00" stroke-width="3.00"/>
<line shape-type="limitline" x1="476" y1="84" x2="476" y2="126" fill="#00FFFF" stroke="#FF0000" stroke-width="3.00"/>
<line shape-type="limitline" x1="335" y1="269" x2="335" y2="301" fill="#00FFFF" stroke="#80FF00" stroke-width="3.00"/>
<line shape-type="limitline" x1="334" y1="208" x2="334" y2="238" fill="#00FFFF" stroke="#80FF00" stroke-width="3.00"/>
<line shape-type="limitline" x1="476" y1="135" x2="476" y2="278" fill="#00FFFF" stroke="#80FF00" stroke-width="3.00"/>
<line shape-type="limitline" x1="147" y1="156" x2="28" y2="156" fill="#00FFFF" stroke="#FF0000" stroke-width="3.00"/>
<g shape-type="group">
<rect shape-type="roundRectangle" rx="20" ry="20" x="321" y="224" width="67" height="21" fill="url(#lgradient21_0)" stroke="#000000" stroke-width="1.00"/>
<g shape-type="group">
<rect shape-type="rectangle" x="371" y="220" width="3" height="29" fill="url(#lgradient21_1_0)" stroke="#000000" stroke-width="1.00"/>
<rect shape-type="rectangle" x="374" y="220" width="2" height="29" fill="url(#lgradient21_1_1)" stroke="#000000" stroke-width="1.00"/>
</g>
<g shape-type="group">
<rect shape-type="rectangle" x="382" y="220" width="4" height="29" fill="url(#lgradient21_2_0)" stroke="#000000" stroke-width="1.00"/>
<rect shape-type="rectangle" x="385" y="220" width="4" height="29" fill="url(#lgradient21_2_1)" stroke="#000000" stroke-width="1.00"/>
</g>
</g>
<g shape-type="group">
<line shape-type="limitline" x1="144" y1="339" x2="150" y2="340" fill="#00FF40" stroke="#000000" stroke-width="1.00"/>
<line shape-type="limitline" x1="144" y1="336" x2="150" y2="337" fill="#00FF40" stroke="#000000" stroke-width="1.00"/>
<polygon shape-type="trapezium" points="154,347 147,347 151,338 151,338 154,347" fill="url(#lgradient22_2)" stroke="#000000" stroke-width="1.00"/>
<polygon shape-type="trapezium" points="147,329 154,329 150,338 150,338 147,329" fill="url(#lgradient22_3)" stroke="#000000" stroke-width="1.00"/>
<path shape-type="pie" d="M 144,332 A 5,6 0 1,0 144,343 L 144,337 z" fill="#00FF40" stroke="#000000" stroke-width="1.00"/>
<rect shape-type="rectangle" x="143" y="331" width="2" height="12" fill="#FFFFFF" stroke="#000000" stroke-width="1.00"/>
</g>
<rect shape-type="roundRectangle" rx="20" ry="20" x="650" y="266" width="24" height="77" fill="url(#lgradient23)" stroke="#000000" stroke-width="1.00"/>
<g shape-type="group">
<rect shape-type="roundRectangle" rx="20" ry="20" x="321" y="256" width="67" height="21" fill="url(#lgradient24_0)" stroke="#000000" stroke-width="1.00"/>
<g shape-type="group">
<rect shape-type="rectangle" x="371" y="252" width="3" height="29" fill="url(#lgradient24_1_0)" stroke="#000000" stroke-width="1.00"/>
<rect shape-type="rectangle" x="374" y="252" width="2" height="29" fill="url(#lgradient24_1_1)" stroke="#000000" stroke-width="1.00"/>
</g>
<g shape-type="group">
<rect shape-type="rectangle" x="382" y="252" width="4" height="29" fill="url(#lgradient24_2_0)" stroke="#000000" stroke-width="1.00"/>
<rect shape-type="rectangle" x="385" y="252" width="4" height="29" fill="url(#lgradient24_2_1)" stroke="#000000" stroke-width="1.00"/>
</g>
</g>
<g shape-type="group">
<g shape-type="group">
<g shape-type="group">
<g shape-type="group">
<rect shape-type="roundRectangle" rx="20" ry="20" x="304" y="443" width="10" height="18" fill="url(#lgradient25_0_0_0_0)" stroke="#000000" stroke-width="1.00"/>
<g shape-type="group">
<rect shape-type="rectangle" x="303" y="443" width="13" height="2" fill="url(#lgradient25_0_0_0_1_0)" stroke="#000000" stroke-width="1.00"/>
<rect shape-type="rectangle" x="303" y="443" width="13" height="2" fill="none" stroke="#000000" stroke-width="1.00"/>
</g>
</g>
<ellipse shape-type="ellipse" cx="302" cy="458" rx="12" ry="11" fill="#D8D8D8" stroke="#000000" stroke-width="1.00"/>
<ellipse shape-type="ellipse" cx="293" cy="454" rx="1" ry="1" fill="#FFFFFF" stroke="#000000" stroke-width="1.00"/>
<ellipse shape-type="ellipse" cx="301" cy="458" rx="5" ry="5" fill="#C0C0C0" stroke="#000000" stroke-width="1.00"/>
<ellipse shape-type="ellipse" cx="293" cy="459" rx="1" ry="1" fill="#FFFFFF" stroke="#000000" stroke-width="1.00"/>
<ellipse shape-type="ellipse" cx="296" cy="464" rx="1" ry="1" fill="#FFFFFF" stroke="#000000" stroke-width="1.00"/>
<ellipse shape-type="ellipse" cx="301" cy="467" rx="1" ry="1" fill="#FFFFFF" stroke="#000000" stroke-width="1.00"/>
<ellipse shape-type="ellipse" cx="308" cy="465" rx="1" ry="1" fill="#FFFFFF" stroke="#000000" stroke-width="1.00"/>
<ellipse shape-type="ellipse" cx="311" cy="460" rx="2" ry="1" fill="#FFFFFF" stroke="#000000" stroke-width="1.00"/>
<ellipse shape-type="ellipse" cx="309" cy="454" rx="1" ry="1" fill="#FFFFFF" stroke="#000000" stroke-width="1.00"/>
<ellipse shape-type="ellipse" cx="304" cy="450" rx="1" ry="1" fill="#FFFFFF" stroke="#000000" stroke-width="1.00"/>
<ellipse shape-type="ellipse" cx="298" cy="451" rx="1" ry="1" fill="#FFFFFF" stroke="#000000" stroke-width="1.00"/>
</g>
<g shape-type="group">
<rect shape-type="rectangle" x="289" y="469" width="28" height="3" fill="#008000" stroke="#000000" stroke-width="2.00"/>
<polygon shape-type="trapezium" points="317,469 289,469 303,464 303,464 317,469" fill="#008000" stroke-width="1.00"/>
<rect shape-type="rectangle" x="300" y="464" width="4" height="5" fill="#008000" stroke="#000000" stroke-width="2.00"/>
<ellipse shape-type="ellipse" cx="302" cy="467" rx="2" ry="1" fill="#008000" stroke="#000000" stroke-width="2.00"/>
</g>
</g>
<g shape-type="group">
<g shape-type="group">
<g shape-type="group">
<rect shape-type="roundRectangle" rx="20" ry="20" x="354" y="443" width="10" height="18" fill="url(#lgradient25_1_0_0_0)" stroke="#000000" stroke-width="1.00"/>
<g shape-type="group">
<rect shape-type="rectangle" x="352" y="443" width="14" height="2" fill="url(#lgradient25_1_0_0_1_0)" stroke="#000000" stroke-width="1.00"/>
<rect shape-type="rectangle" x="352" y="443" width="14" height="2" fill="none" stroke="#000000" stroke-width="1.00"/>
</g>
</g>
<ellipse shape-type="ellipse" cx="350" cy="459" rx="14" ry="12" fill="#D8D8D8" stroke="#000000" stroke-width="1.00"/>
<ellipse shape-type="ellipse" cx="342" cy="454" rx="1" ry="1" fill="#FFFFFF" stroke="#000000" stroke-width="1.00"/>
<ellipse shape-type="ellipse" cx="350" cy="459" rx="6" ry="5" fill="#C0C0C0" stroke="#000000" stroke-width="1.00"/>
<ellipse shape-type="ellipse" cx="341" cy="460" rx="1" ry="1" fill="#FFFFFF" stroke="#000000" stroke-width="1.00"/>
<ellipse shape-type="ellipse" cx="344" cy="465" rx="1" ry="1" fill="#FFFFFF" stroke="#000000" stroke-width="1.00"/>
<ellipse shape-type="ellipse" cx="350" cy="468" rx="2" ry="1" fill="#FFFFFF" stroke="#000000" stroke-width="1.00"/>
<ellipse shape-type="ellipse" cx="357" cy="466" rx="1" ry="1" fill="#FFFFFF" stroke="#000000" stroke-width="1.00"/>
<ellipse shape-type="ellipse" cx="360" cy="461" rx="1" ry="1" fill="#FFFFFF" stroke="#000000" stroke-width="1.00"/>
<ellipse shape-type="ellipse" cx="359" cy="454" rx="1" ry="1" fill="#FFFFFF" stroke="#000000" stroke-width="1.00"/>
<ellipse shape-type="ellipse" cx="354" cy="450" rx="1" ry="1" fill="#FFFFFF" stroke="#000000" stroke-width="1.00"/>
<ellipse shape-type="ellipse" cx="346" cy="451" rx="1" ry="1" fill="#FFFFFF" stroke="#000000" stroke-width="1.00"/>
</g>
<g shape-type="group">
<rect shape-type="rectangle" x="336" y="470" width="31" height="3" fill="#008000" stroke="#000000" stroke-width="2.00"/>
<polygon shape-type="trapezium" points="367,470 336,470 352,465 352,465 367,470" fill="#008000" stroke-width="1.00"/>
<rect shape-type="rectangle" x="349" y="465" width="4" height="5" fill="#008000" stroke="#000000" stroke-width="2.00"/>
<ellipse shape-type="ellipse" cx="351" cy="468" rx="2" ry="1" fill="#008000" stroke="#000000" stroke-width="2.00"/>
</g>
</g>
</g>
<polygon shape-type="trapezium" points="43,149 43,162 53,156 53,156 43,149" fill="#FF0000" stroke-width="1.00"/>
<line shape-type="limitline" x1="30" y1="209" x2="220" y2="209" fill="#00FFFF" stroke="#FF0000" stroke-width="3.00"/>
<line shape-type="limitline" x1="30" y1="209" x2="220" y2="209" fill="#00FFFF" stroke="#80FF00" stroke-width="3.00"/>
<line shape-type="limitline" x1="222" y1="207" x2="222" y2="120" fill="#00FFFF" stroke="#80FF00" stroke-width="3.00"/>
<g shape-type="group">
<g shape-type="group">
<g shape-type="group">
<g shape-type="group">
<rect shape-type="roundRectangle" rx="20" ry="20" x="492" y="268" width="9" height="18" fill="url(#lgradient30_0_0_0_0)" stroke="#000000" stroke-width="1.00"/>
<g shape-type="group">
<rect shape-type="rectangle" x="491" y="268" width="12" height="2" fill="url(#lgradient30_0_0_0_1_0)" stroke="#000000" stroke-width="1.00"/>
<rect shape-type="rectangle" x="491" y="268" width="12" height="2" fill="none" stroke="#000000" stroke-width="1.00"/>
</g>
</g>
<ellipse shape-type="ellipse" cx="506" cy="283" rx="14" ry="11" fill="#D8D8D8" stroke="#000000" stroke-width="1.00"/>
<ellipse shape-type="ellipse" cx="514" cy="279" rx="1" ry="1" fill="#FFFFFF" stroke="#000000" stroke-width="1.00"/>
<ellipse shape-type="ellipse" cx="505" cy="283" rx="6" ry="5" fill="#C0C0C0" stroke="#000000" stroke-width="1.00"/>
<ellipse shape-type="ellipse" cx="515" cy="284" rx="1" ry="1" fill="#FFFFFF" stroke="#000000" stroke-width="1.00"/>
<ellipse shape-type="ellipse" cx="512" cy="289" rx="2" ry="1" fill="#FFFFFF" stroke="#000000" stroke-width="1.00"/>
<ellipse shape-type="ellipse" cx="505" cy="292" rx="2" ry="1" fill="#FFFFFF" stroke="#000000" stroke-width="1.00"/>
<ellipse shape-type="ellipse" cx="498" cy="290" rx="1" ry="1" fill="#FFFFFF" stroke="#000000" stroke-width="1.00"/>
<ellipse shape-type="ellipse" cx="495" cy="285" rx="1" ry="1" fill="#FFFFFF" stroke="#000000" stroke-width="1.00"/>
<ellipse shape-type="ellipse" cx="496" cy="279" rx="1" ry="1" fill="#FFFFFF" stroke="#000000" stroke-width="1.00"/>
<ellipse shape-type="ellipse" cx="501" cy="276" rx="1" ry="1" fill="#FFFFFF" stroke="#000000" stroke-width="1.00"/>
<ellipse shape-type="ellipse" cx="509" cy="276" rx="1" ry="1" fill="#FFFFFF" stroke="#000000" stroke-width="1.00"/>
</g>
<g shape-type="group">
<rect shape-type="rectangle" x="491" y="294" width="29" height="3" fill="#008000" stroke="#000000" stroke-width="2.00"/>
<polygon shape-type="trapezium" points="491,294 521,294 506,289 506,289 491,294" fill="#008000" stroke-width="1.00"/>
<rect shape-type="rectangle" x="503" y="289" width="4" height="5" fill="#008000" stroke="#000000" stroke-width="2.00"/>
<ellipse shape-type="ellipse" cx="505" cy="292" rx="2" ry="1" fill="#008000" stroke="#000000" stroke-width="2.00"/>
</g>
</g>
<g shape-type="group">
<g shape-type="group">
<g shape-type="group">
<rect shape-type="roundRectangle" rx="20" ry="20" x="442" y="268" width="8" height="18" fill="url(#lgradient30_1_0_0_0)" stroke="#000000" stroke-width="1.00"/>
<g shape-type="group">
<rect shape-type="rectangle" x="441" y="268" width="11" height="2" fill="url(#lgradient30_1_0_0_1_0)" stroke="#000000" stroke-width="1.00"/>
<rect shape-type="rectangle" x="441" y="268" width="11" height="2" fill="none" stroke="#000000" stroke-width="1.00"/>
</g>
</g>
<ellipse shape-type="ellipse" cx="455" cy="284" rx="13" ry="12" fill="#D8D8D8" stroke="#000000" stroke-width="1.00"/>
<ellipse shape-type="ellipse" cx="463" cy="280" rx="2" ry="1" fill="#FFFFFF" stroke="#000000" stroke-width="1.00"/>
<ellipse shape-type="ellipse" cx="454" cy="284" rx="5" ry="5" fill="#C0C0C0" stroke="#000000" stroke-width="1.00"/>
<ellipse shape-type="ellipse" cx="464" cy="285" rx="1" ry="1" fill="#FFFFFF" stroke="#000000" stroke-width="1.00"/>
<ellipse shape-type="ellipse" cx="461" cy="290" rx="2" ry="1" fill="#FFFFFF" stroke="#000000" stroke-width="1.00"/>
<ellipse shape-type="ellipse" cx="454" cy="293" rx="1" ry="1" fill="#FFFFFF" stroke="#000000" stroke-width="1.00"/>
<ellipse shape-type="ellipse" cx="448" cy="291" rx="1" ry="1" fill="#FFFFFF" stroke="#000000" stroke-width="1.00"/>
<ellipse shape-type="ellipse" cx="445" cy="286" rx="1" ry="1" fill="#FFFFFF" stroke="#000000" stroke-width="1.00"/>
<ellipse shape-type="ellipse" cx="446" cy="280" rx="1" ry="1" fill="#FFFFFF" stroke="#000000" stroke-width="1.00"/>
<ellipse shape-type="ellipse" cx="451" cy="276" rx="1" ry="1" fill="#FFFFFF" stroke="#000000" stroke-width="1.00"/>
<ellipse shape-type="ellipse" cx="458" cy="276" rx="1" ry="1" fill="#FFFFFF" stroke="#000000" stroke-width="1.00"/>
</g>
<g shape-type="group">
<rect shape-type="rectangle" x="441" y="295" width="28" height="3" fill="#008000" stroke="#000000" stroke-width="2.00"/>
<polygon shape-type="trapezium" points="441,295 470,295 455,290 455,290 441,295" fill="#008000" stroke-width="1.00"/>
<rect shape-type="rectangle" x="452" y="290" width="5" height="5" fill="#008000" stroke="#000000" stroke-width="2.00"/>
<ellipse shape-type="ellipse" cx="454" cy="293" rx="1" ry="1" fill="#008000" stroke="#000000" stroke-width="2.00"/>
</g>
</g>
</g>
<line shape-type="limitline" x1="335" y1="209" x2="445" y2="209" fill="#00FFFF" stroke="#80FF00" stroke-width="3.00"/>
<line shape-type="limitline" x1="336" y1="300" x2="120" y2="300" fill="#00FFFF" stroke="#80FF00" stroke-width="3.00"/>
<line shape-type="limitline" x1="475" y1="85" x2="156" y2="85" fill="#00FFFF" stroke="#FF0000" stroke-width="3.00"/>
<g shape-type="group">
<rect shape-type="rectangle" x="376" y="77" width="30" height="16" fill="#808080" stroke="#000000" stroke-width="1.00"/>
<line shape-type="line" x1="406" y1="77" x2="377" y2="85" fill="#00FFFF" stroke="#000000" stroke-width="1.00"/>
<line shape-type="line" x1="406" y1="92" x2="377" y2="86" fill="#00FFFF" stroke="#000000" stroke-width="1.00"/>
</g>
<line shape-type="limitline" x1="223" y1="122" x2="392" y2="122" fill="#00FFFF" stroke="#80FF00" stroke-width="3.00"/>
<line shape-type="limitline" x1="393" y1="162" x2="280" y2="162" fill="#00FFFF" stroke="#80FF00" stroke-width="3.00"/>
<line shape-type="limitline" x1="281" y1="249" x2="281" y2="162" fill="#00FFFF" stroke="#80FF00" stroke-width="3.00"/>
<line shape-type="limitline" x1="282" y1="247" x2="33" y2="247" fill="#00FFFF" stroke="#80FF00" stroke-width="3.00"/>
<line shape-type="limitline" x1="34" y1="271" x2="166" y2="271" fill="#00FFFF" stroke="#80FF00" stroke-width="3.00"/>
<line shape-type="limitline" x1="167" y1="300" x2="167" y2="270" fill="#00FFFF" stroke="#80FF00" stroke-width="3.00"/>
<line shape-type="limitline" x1="358" y1="340" x2="198" y2="340" fill="#00FFFF" stroke="#80FF00" stroke-width="3.00"/>
<line shape-type="limitline" x1="359" y1="442" x2="359" y2="336" fill="#00FFFF" stroke="#80FF00" stroke-width="3.00"/>
<line shape-type="limitline" x1="202" y1="481" x2="330" y2="481" fill="#00FFFF" stroke="#80FF00" stroke-width="3.00"/>
<line shape-type="limitline" x1="329" y1="480" x2="329" y2="460" fill="#00FFFF" stroke="#80FF00" stroke-width="3.00"/>
<line shape-type="limitline" x1="276" y1="479" x2="276" y2="456" fill="#00FFFF" stroke="#80FF00" stroke-width="3.00"/>
<line shape-type="limitline" x1="312" y1="423" x2="360" y2="423" fill="#00FFFF" stroke="#80FF00" stroke-width="3.00"/>
<line shape-type="limitline" x1="448" y1="248" x2="497" y2="248" fill="#00FFFF" stroke="#80FF00" stroke-width="3.00"/>
<line shape-type="limitline" x1="535" y1="282" x2="535" y2="211" fill="#00FFFF" stroke="#80FF00" stroke-width="3.00"/>
<line shape-type="limitline" x1="537" y1="209" x2="475" y2="209" fill="#00FFFF" stroke="#80FF00" stroke-width="3.00"/>
<line shape-type="limitline" x1="592" y1="82" x2="761" y2="82" fill="#00FFFF" stroke="#80FF00" stroke-width="3.00"/>
<polygon shape-type="trapezium" points="281,77 281,90 291,84 291,84 281,77" fill="#FF0000" stroke-width="1.00"/>
<polygon shape-type="trapezium" points="35,201 35,214 25,208 25,208 35,201" fill="#80FF00" stroke-width="1.00"/>
<polygon shape-type="trapezium" points="40,239 40,252 30,246 30,246 40,239" fill="#80FF00" stroke-width="1.00"/>
<polygon shape-type="trapezium" points="72,263 72,276 82,270 82,270 72,263" fill="#80FF00" stroke-width="1.00"/>
<polygon shape-type="trapezium" points="270,292 270,305 260,299 260,299 270,292" fill="#80FF00" stroke-width="1.00"/>
<polygon shape-type="trapezium" points="352,385 365,385 358,375 358,375 352,385" fill="#80FF00" stroke-width="1.00"/>
<polygon shape-type="trapezium" points="469,170 482,170 475,180 475,180 469,170" fill="#80FF00" stroke-width="1.00"/>
<polygon shape-type="trapezium" points="610,74 610,87 620,81 620,81 610,74" fill="#80FF00" stroke-width="1.00"/>
<rect shape-type="roundRectangle" rx="20" ry="20" x="528" y="383" width="24" height="77" fill="url(#lgradient59)" stroke="#000000" stroke-width="1.00"/>
<rect shape-type="roundRectangle" rx="20" ry="20" x="144" y="112" width="24" height="77" fill="url(#lgradient60)" stroke="#000000" stroke-width="1.00"/>
<g shape-type="group">
<line shape-type="limitline" x1="422" y1="202" x2="421" y2="207" fill="#00FF40" stroke="#000000" stroke-width="1.00"/>
<line shape-type="limitline" x1="424" y1="202" x2="423" y2="207" fill="#00FF40" stroke="#000000" stroke-width="1.00"/>
<polygon shape-type="trapezium" points="415,204 415,213 423,209 423,209 415,204" fill="url(#lgradient61_2)" stroke="#000000" stroke-width="1.00"/>
<polygon shape-type="trapezium" points="432,213 432,204 423,208 423,208 432,213" fill="url(#lgradient61_3)" stroke="#000000" stroke-width="1.00"/>
<path shape-type="pie" d="M 428,201 A 5,6 0 0,0 418,201 L 423,201 z" fill="#00FF40" stroke="#000000" stroke-width="1.00"/>
<rect shape-type="rectangle" x="418" y="200" width="11" height="3" fill="#FFFFFF" stroke="#000000" stroke-width="1.00"/>
</g>
<polygon shape-type="trapezium" points="430,440 430,453 440,447 440,447 430,440" fill="#0000FF" stroke-width="1.00"/>
<polygon shape-type="trapezium" points="577,402 577,415 587,409 587,409 577,402" fill="#0000FF" stroke-width="1.00"/>
<polygon shape-type="trapezium" points="570,320 570,333 580,327 580,327 570,320" fill="#0000FF" stroke-width="1.00"/>
<polygon shape-type="trapezium" points="723,283 723,296 733,290 733,290 723,283" fill="#0000FF" stroke-width="1.00"/>
<text font-family="宋体" text-anchor="start" fill="#0000FF" shape-type="text" id="" font-size="9.500000" writing-mode="tb" glyph-orientation-vertical="0" x="658" y="284">非净化风罐</text>
<text font-family="宋体" text-anchor="start" fill="#0000FF" shape-type="text" id="" font-size="9.500000" writing-mode="tb" glyph-orientation-vertical="0" x="535" y="407">净化风罐</text>
<text font-family="宋体" text-anchor="start" fill="#000080" shape-type="text" id="" font-size="11.750000" x="604" y="102">新鲜水进装置</text>
<text font-family="宋体" text-anchor="start" fill="#000080" shape-type="text" id="" font-size="11.750000" x="567" y="353">非净化风进装置</text>
<text font-family="宋体" text-anchor="start" fill="#000080" shape-type="text" id="" font-size="11.750000" x="739" y="309">至V-104</text>
<text font-family="宋体" text-anchor="start" fill="#000080" shape-type="text" id="" font-size="11.750000" x="612" y="425">至泵区</text>
<text font-family="宋体" text-anchor="start" fill="#000080" shape-type="text" id="" font-size="11.750000" x="425" y="467">净化风进装置</text>
<text font-family="宋体" text-anchor="start" fill="#000080" shape-type="text" id="" font-size="11.750000" x="289" y="499">喷淋水泵</text>
<text font-family="宋体" text-anchor="start" fill="#000080" shape-type="text" id="" font-size="11.750000" x="344" y="307">凝结水冷却器</text>
<text font-family="宋体" text-anchor="start" fill="#000080" shape-type="text" id="" font-size="11.750000" x="428" y="312">凝结水泵 PI207-1/2</text>
<text font-family="宋体" text-anchor="start" fill="#0000FF" shape-type="text" id="" font-size="9.500000" writing-mode="tb" glyph-orientation-vertical="0" x="151" y="129">蒸汽分水器</text>
<text font-family="宋体" text-anchor="start" fill="#FF0000" shape-type="text" id="" font-size="8.750000" x="12" y="169">1.0MPa蒸汽看破系统管网来</text>
<text font-family="宋体" text-anchor="start" fill="#0000FF" shape-type="text" id="" font-size="8.750000" x="40" y="199">凝结去脱硫补充水</text>
<text font-family="宋体" text-anchor="start" fill="#0000FF" shape-type="text" id="" font-size="8.750000" x="40" y="234">凝结水出装置</text>
<text font-family="宋体" text-anchor="start" fill="#0000FF" shape-type="text" id="" font-size="8.750000" x="39" y="264">软化水出装置</text>
<text font-family="宋体" text-anchor="start" fill="#000080" shape-type="text" id="" font-size="8.750000" x="348" y="70">蒸汽减温减压器</text>
<text font-family="宋体" text-anchor="start" fill="#000080" shape-type="text" id="" font-size="11.000000" x="647" y="60">FT214</text>
<text font-family="宋体" text-anchor="start" fill="#000080" shape-type="text" id="" font-size="11.750000" text-decoration="underline" x="362" y="45">v-008</text>
<text font-family="宋体" text-anchor="start" fill="#000080" shape-type="text" id="" font-size="11.000000" x="77" y="118">FT211</text>
<text font-family="宋体" text-anchor="start" fill="#000080" shape-type="text" id="" font-size="11.000000" x="128" y="224">FT217</text>
<text font-family="宋体" text-anchor="start" fill="#000080" shape-type="text" id="" font-size="11.000000" x="57" y="397">LIC209.MV</text>
<text font-family="宋体" text-anchor="start" fill="#000080" shape-type="text" id="" font-size="11.000000" x="364" y="293">E-212</text>
<text font-family="宋体" text-anchor="start" fill="#000080" shape-type="text" id="" font-size="11.000000" x="378" y="117">LIC210</text>
<text font-family="宋体" text-anchor="start" fill="#000080" shape-type="text" id="" font-size="11.000000" x="643" y="232">PT212</text>
<text font-family="宋体" text-anchor="start" fill="#000080" shape-type="text" id="" font-size="11.000000" x="516" y="356">PT211</text>
<text font-family="宋体" text-anchor="start" fill="#000080" shape-type="text" id="" font-size="11.000000" x="425" y="407">FT213</text>
<text font-family="宋体" text-anchor="start" fill="#000080" shape-type="text" id="" font-size="11.750000" text-decoration="underline" x="525" y="474">V-208</text>
<text font-family="宋体" text-anchor="start" fill="#000080" shape-type="text" id="" font-size="11.750000" text-decoration="underline" x="139" y="200">V-205</text>
<text font-family="宋体" text-anchor="start" fill="#000080" shape-type="text" id="" font-size="11.000000" x="678" y="246">MPa</text>
<text font-family="宋体" text-anchor="start" fill="#000000" shape-type="text" id="" font-size="12.500000" x="223" y="103">%</text>
<text font-family="宋体" text-anchor="start" fill="#000000" shape-type="text" id="" font-size="12.500000" x="106" y="137">kg/h</text>
<g shape-type="group">
<line shape-type="limitline" x1="193" y1="78" x2="192" y2="84" fill="#00FF40" stroke="#000000" stroke-width="1.00"/>
<line shape-type="limitline" x1="195" y1="78" x2="194" y2="84" fill="#00FF40" stroke="#000000" stroke-width="1.00"/>
<polygon shape-type="trapezium" points="185,81 185,89 193,85 193,85 185,81" fill="url(#lgradient97_2)" stroke="#000000" stroke-width="1.00"/>
<polygon shape-type="trapezium" points="202,89 202,81 194,85 194,85 202,89" fill="url(#lgradient97_3)" stroke="#000000" stroke-width="1.00"/>
<path shape-type="pie" d="M 199,78 A 6,5 0 0,0 188,78 L 194,78 z" fill="#00FF40" stroke="#000000" stroke-width="1.00"/>
<rect shape-type="rectangle" x="188" y="77" width="12" height="2" fill="#FFFFFF" stroke="#000000" stroke-width="1.00"/>
</g>
<text font-family="宋体" text-anchor="start" fill="#000000" shape-type="text" id="" font-size="12.500000" x="161" y="239">kg/h</text>
<text font-family="宋体" text-anchor="start" fill="#000000" shape-type="text" id="" font-size="12.500000" x="193" y="342">%</text>
<text font-family="宋体" text-anchor="start" fill="#000000" shape-type="text" id="" font-size="12.500000" x="686" y="74">kg/h</text>
<text font-family="宋体" text-anchor="start" fill="#000000" shape-type="text" id="" font-size="12.500000" x="442" y="227">%</text>
<text font-family="宋体" text-anchor="start" fill="#000080" shape-type="text" id="" font-size="11.000000" x="547" y="371">MPa</text>
<g shape-type="group">
<text font-family="宋体" text-anchor="start" fill="#000000" shape-type="text" id="" font-size="11.750000" x="470" y="429">NM /h</text>
<text font-family="宋体" text-anchor="start" fill="#000000" shape-type="text" id="" font-size="11.000000" x="484" y="422">3</text>
</g>
<g shape-type="group">
<text font-family="宋体" text-anchor="start" fill="#000000" shape-type="text" id="" font-size="11.750000" x="606" y="306">NM /h</text>
<text font-family="宋体" text-anchor="start" fill="#000000" shape-type="text" id="" font-size="10.250000" x="621" y="299">3</text>
</g>
<text font-family="宋体" text-anchor="start" fill="#000080" shape-type="text" id="" font-size="11.000000" x="572" y="284">FT216</text>
<text font-family="宋体" text-anchor="start" fill="#000080" shape-type="text" id="" font-size="11.000000" x="199" y="55">PIC210</text>
<text font-family="宋体" text-anchor="start" fill="#000080" shape-type="text" id="" font-size="11.000000" x="276" y="55">TE223</text>
<text font-family="宋体" text-anchor="start" fill="#000080" shape-type="text" id="" font-size="11.000000" x="236" y="71">MPa</text>
<text font-family="宋体" text-anchor="start" fill="#000000" shape-type="text" id="" font-size="12.500000" x="306" y="69">℃</text>
<text font-family="宋体" text-anchor="start" fill="#000000" shape-type="text" id="" font-size="16.250000" x="348" y="28">气分公用工艺流程图</text>
<text font-family="宋体" text-anchor="start" fill="#FFFF00" shape-type="text" id="" font-size="16.250000" x="349" y="29">气分公用工艺流程图</text>
<text font-family="Arial" text-anchor="start" fill="#000000" shape-type="realdata" id="QF_PT211" font-size="12.500000" x="484" y="371">XXXXXXXX</text>
<text font-family="Arial" text-anchor="start" fill="#000000" shape-type="realdata" id="QF_PT212" font-size="12.500000" x="609" y="247">XXXXXXXX</text>
<text font-family="Arial" text-anchor="start" fill="#000000" shape-type="realdata" id="QF_te223" font-size="12.500000" x="249" y="69">XXXXXXXX</text>
<text font-family="Arial" text-anchor="start" fill="#000000" shape-type="realdata" id="QF_FT214" font-size="12.500000" x="616" y="74">XXXXXXXX</text>
<text font-family="Arial" text-anchor="start" fill="#000000" shape-type="realdata" id="QF_FT216" font-size="12.500000" x="542" y="307">XXXXXXXX</text>
<text font-family="Arial" text-anchor="start" fill="#000000" shape-type="realdata" id="QF_FT213" font-size="12.500000" x="397" y="429">XXXXXXXX</text>
<text font-family="Arial" text-anchor="start" fill="#000000" shape-type="realdata" id="QF_FT217" font-size="12.500000" x="100" y="238">XXXXXXXX</text>
<text font-family="Arial" text-anchor="start" fill="#000000" shape-type="realdata" id="QF_FT211" font-size="12.500000" x="47" y="138">XXXXXXXX</text>
<text font-family="宋体" text-anchor="start" fill="#000080" shape-type="text" id="" font-size="11.000000" x="172" y="101">PIC210.MV</text>
<text font-family="Arial" text-anchor="start" fill="#000000" shape-type="realdata" id="QF_LT210" font-size="12.500000" x="353" y="137">XXXXXXXX</text>
<rect shape-type="roundRectangle" rx="20" ry="20" x="421" y="110" width="110" height="35" fill="url(#lgradient122)" stroke="#000000" stroke-width="1.00"/>
<rect shape-type="rectangle" x="433" y="110" width="13" height="34" fill="#C0C0C0" stroke="#000000" stroke-width="1.00"/>
<g shape-type="group">
<text font-family="宋体" text-anchor="start" fill="#000080" shape-type="text" id="" font-size="9.500000" x="453" y="126">凝结水罐</text>
<text font-family="宋体" text-anchor="start" fill="#000080" shape-type="text" id="" font-size="11.000000" text-decoration="underline" x="464" y="141">V-206</text>
</g>
<text font-family="Arial" text-anchor="start" fill="#000000" shape-type="realdata" id="QF_LT209" font-size="12.500000" x="37" y="412">XXXXXXXX</text>
<rect shape-type="roundRectangle" rx="20" ry="20" x="120" y="385" width="107" height="36" fill="url(#lgradient126)" stroke="#000000" stroke-width="1.00"/>
<rect shape-type="rectangle" x="134" y="386" width="12" height="35" fill="#C0C0C0" stroke="#000000" stroke-width="1.00"/>
<text font-family="宋体" text-anchor="start" fill="#000080" shape-type="text" id="" font-size="9.500000" x="156" y="400">喷淋水罐</text>
<text font-family="宋体" text-anchor="start" fill="#000080" shape-type="text" id="" font-size="9.500000" text-decoration="underline" x="161" y="412">V-207</text>
<text font-family="Arial" text-anchor="start" fill="#000000" shape-type="realdata" id="QF_PIC210" font-size="12.500000" x="176" y="71">XXXXXXXX</text>
<text font-family="宋体" text-anchor="start" fill="#000000" shape-type="text" id="" font-size="12.500000" x="414" y="135">%</text>
<text font-family="Arial" text-anchor="start" fill="#000000" shape-type="realdata" id="QF_LIC210.MV" font-size="12.500000" x="376" y="227">XXXXXXXX</text>
<text font-family="Arial" text-anchor="start" fill="#000000" shape-type="realdata" id="QF_LIC209.MV" font-size="12.500000" x="125" y="343">XXXXXXXX</text>
<text font-family="Arial" text-anchor="start" fill="#000000" shape-type="realdata" id="QF_PIC210.MV" font-size="12.500000" x="154" y="116">XXXXXXXX</text>
<a xlink:href="7.svg">
<g shape-type="button">
<rect fill="#C0C0C0" stroke-width="0.3" stroke="#FFFFFF" x="494" y="518" width="68" height="21" shape-type="buttonrect"/>
<text font-family="宋体" text-anchor="middle" dominant-baseline="middle" fill="#FFFF00" font-size="10.500000" x="528" y="533" shape-type="buttontext">脱硫(一)</text>
</g>
</a>
<a xlink:href="8.svg">
<g shape-type="button">
<rect fill="#C0C0C0" stroke-width="0.3" stroke="#FFFFFF" x="565" y="518" width="68" height="21" shape-type="buttonrect"/>
<text font-family="宋体" text-anchor="middle" dominant-baseline="middle" fill="#FFFF00" font-size="10.500000" x="599" y="533" shape-type="buttontext">脱硫(二)</text>
</g>
</a>
<a xlink:href="9.svg">
<g shape-type="button">
<rect fill="#C0C0C0" stroke-width="0.3" stroke="#FFFFFF" x="636" y="518" width="68" height="21" shape-type="buttonrect"/>
<text font-family="宋体" text-anchor="middle" dominant-baseline="middle" fill="#FFFF00" font-size="10.500000" x="670" y="533" shape-type="buttontext">液态烃脱硫醇</text>
</g>
</a>
<a xlink:href="2.svg">
<g shape-type="button">
<rect fill="#C0C0C0" stroke-width="0.3" stroke="#FFFFFF" x="140" y="518" width="68" height="21" shape-type="buttonrect"/>
<text font-family="宋体" text-anchor="middle" dominant-baseline="middle" fill="#FFFF00" font-size="10.500000" x="174" y="533" shape-type="buttontext">分馏(一)</text>
</g>
</a>
<a xlink:href="3.svg">
<g shape-type="button">
<rect fill="#C0C0C0" stroke-width="0.3" stroke="#FFFFFF" x="211" y="518" width="68" height="21" shape-type="buttonrect"/>
<text font-family="宋体" text-anchor="middle" dominant-baseline="middle" fill="#FFFF00" font-size="10.500000" x="245" y="533" shape-type="buttontext">分馏(二)</text>
</g>
</a>
<a xlink:href="4.svg">
<g shape-type="button">
<rect fill="#C0C0C0" stroke-width="0.3" stroke="#FFFFFF" x="282" y="518" width="68" height="21" shape-type="buttonrect"/>
<text font-family="宋体" text-anchor="middle" dominant-baseline="middle" fill="#FFFF00" font-size="10.500000" x="316" y="533" shape-type="buttontext">分馏(三)</text>
</g>
</a>
<a xlink:href="5.svg">
<g shape-type="button">
<rect fill="#C0C0C0" stroke-width="0.3" stroke="#FFFFFF" x="353" y="518" width="67" height="21" shape-type="buttonrect"/>
<text font-family="宋体" text-anchor="middle" dominant-baseline="middle" fill="#FFFF00" font-size="10.500000" x="387" y="533" shape-type="buttontext">公用</text>
</g>
</a>
<a xlink:href="6.svg">
<g shape-type="button">
<rect fill="#C0C0C0" stroke-width="0.3" stroke="#FFFFFF" x="424" y="518" width="67" height="21" shape-type="buttonrect"/>
<text font-family="宋体" text-anchor="middle" dominant-baseline="middle" fill="#FFFF00" font-size="10.500000" x="457" y="533" shape-type="buttontext">空压站</text>
</g>
</a>
<a xlink:href="..\shihua.svg">
<g shape-type="button">
<rect fill="#C0C0C0" stroke-width="0.3" stroke="#FFFFFF" x="707" y="518" width="69" height="21" shape-type="buttonrect"/>
<text font-family="宋体" text-anchor="middle" dominant-baseline="middle" fill="#FFFF00" font-size="12.000000" x="741" y="534" shape-type="buttontext">返回</text>
</g>
</a>
<a xlink:href="1.svg">
<g shape-type="button">
<rect fill="#C0C0C0" stroke-width="0.3" stroke="#FFFFFF" x="69" y="518" width="68" height="21" shape-type="buttonrect"/>
<text font-family="宋体" text-anchor="middle" dominant-baseline="middle" fill="#FFFF00" font-size="10.500000" x="103" y="533" shape-type="buttontext">报警</text>
</g>
</a>
</svg>