<?xml version="1.0" encoding="UTF-8"?>
<svg height="100%" width="100%" viewBox="0 0 64000 32000" version="1.1" xmlns="http://www.w3.org/2000/svg" xmlns:xlink="http://www.w3.org/1999/xlink" xmlns:PB="urn:osisoft-com-pb" xmlns:PBI="urn:osisoft-com-interface" xmlns:PBD="urn:osisoft-com-data" style="background-color:#C0C0C0">
  <title>Graphic8</title>
  <defs>
    <PBD:TagUses tag="\\RTDBB\FJFS_580_TT_21001">
      <PBI:Symbol name="DATAPOINT53" PB:Type="7" />
    </PBD:TagUses>
  </defs>
  <g id="TEXT2219">
    <rect x="15040" y="3860" width="3300" height="580" stroke-width="0" fill="none" id="TEXT2219_pbTextBoundingRectEl" />
    <text fill="#000000" font-family="Helvetica" font-size="560" text-anchor="middle" x="16690" y="4430" id="TEXT2219_pbTextEl">中压蒸汽</text>
  </g>
  <path id="POLYGON2613" d="M 17860 3460 l -820 -160 0 80 -820 0 0 160 0 0 820 0 0 80 820 -160 0 0" stroke="#804040" stroke-width="20" fill="#804040" />
  <path id="POLYGON2614" d="M 26040 3480 l 0 24960" stroke="#804040" stroke-width="40" fill="none" />
  <path id="POLYGON2615" d="M 26040 3480 l -8180 0" stroke="#804040" stroke-width="40" fill="none" />
  <path id="POLYGON2617" d="M 4100 5280 l 0 -1360" stroke="#804040" stroke-width="40" fill="none" />
  <path id="LINE2614" d="M 4380 4340 l -560 0 500 520 -500 0 560 -520" stroke="#808080" stroke-width="20" fill="#808080" />
  <g id="TEXT2220">
    <rect x="2480" y="3340" width="3300" height="580" stroke="#0000FF" stroke-width="20" fill="#FF0000" id="TEXT2220_pbTextBoundingRectEl" />
    <text fill="#000000" font-family="Helvetica" font-size="560" text-anchor="middle" x="4130" y="3910" id="TEXT2220_pbTextEl">
    </text>
  </g>
  <path id="LINE2617" d="M 12700 5960 l 0 -1360" stroke="#804040" stroke-width="40" fill="none" />
  <path id="LINE2618" d="M 12980 5020 l -560 0 500 540 -500 0 560 -540" stroke="#808080" stroke-width="20" fill="#808080" />
  <g id="TEXT2221">
    <rect x="11100" y="4060" width="3300" height="560" stroke="#0000FF" stroke-width="20" fill="#FFFFFF" id="TEXT2221_pbTextBoundingRectEl" />
    <text fill="#000000" font-family="Helvetica" font-size="560" text-anchor="middle" x="12750" y="4620" id="TEXT2221_pbTextEl">吹灰器C-4</text>
  </g>
  <path id="POLYGON2616" d="M 25900 6940 l -21900 -1620" stroke="#804040" stroke-width="40" fill="none" />
  <path id="LINE2619" d="M 4100 7460 l 0 -1360" stroke="#804040" stroke-width="40" fill="none" />
  <path id="LINE2620" d="M 4380 6500 l -560 0 500 540 -500 0 560 -540" stroke="#808080" stroke-width="20" fill="#808080" />
  <g id="TEXT2222">
    <rect x="2480" y="5540" width="3300" height="560" stroke="#0000FF" stroke-width="20" fill="#FFFFFF" id="TEXT2222_pbTextBoundingRectEl" />
    <text fill="#000000" font-family="Helvetica" font-size="560" text-anchor="middle" x="4130" y="6100" id="TEXT2222_pbTextEl">吹灰器C-2</text>
  </g>
  <path id="LINE2621" d="M 12700 8140 l 0 -1360" stroke="#804040" stroke-width="40" fill="none" />
  <path id="LINE2622" d="M 12980 7180 l -560 0 500 540 -500 0 560 -540" stroke="#808080" stroke-width="20" fill="#808080" />
  <g id="TEXT2223">
    <rect x="11100" y="6220" width="3300" height="560" stroke="#0000FF" stroke-width="20" fill="#FFFFFF" id="TEXT2223_pbTextBoundingRectEl" />
    <text fill="#000000" font-family="Helvetica" font-size="560" text-anchor="middle" x="12750" y="6780" id="TEXT2223_pbTextEl">吹灰器C-5</text>
  </g>
  <path id="LINE2623" d="M 25900 9120 l -21900 -1640" stroke="#804040" stroke-width="40" fill="none" />
  <path id="LINE2624" d="M 4100 9700 l 0 -1360" stroke="#804040" stroke-width="40" fill="none" />
  <path id="LINE2625" d="M 4380 8760 l -560 0 500 540 -500 0 560 -540" stroke="#808080" stroke-width="20" fill="#808080" />
  <g id="TEXT2224">
    <rect x="2480" y="7800" width="3300" height="560" stroke="#0000FF" stroke-width="20" fill="#FFFFFF" id="TEXT2224_pbTextBoundingRectEl" />
    <text fill="#000000" font-family="Helvetica" font-size="560" text-anchor="middle" x="4130" y="8360" id="TEXT2224_pbTextEl">吹灰器C-3</text>
  </g>
  <path id="LINE2626" d="M 12700 10380 l 0 -1340" stroke="#804040" stroke-width="40" fill="none" />
  <path id="LINE2627" d="M 12980 9440 l -560 0 500 540 -500 0 560 -540" stroke="#808080" stroke-width="20" fill="#808080" />
  <g id="TEXT2225">
    <rect x="11100" y="8480" width="3300" height="560" stroke="#0000FF" stroke-width="20" fill="#FFFFFF" id="TEXT2225_pbTextBoundingRectEl" />
    <text fill="#000000" font-family="Helvetica" font-size="560" text-anchor="middle" x="12750" y="9040" id="TEXT2225_pbTextEl">吹灰器C-6</text>
  </g>
  <path id="LINE2628" d="M 25900 11380 l -21900 -1640" stroke="#804040" stroke-width="40" fill="none" />
  <g id="TEXT2226">
    <rect x="37820" y="1460" width="3300" height="640" stroke="#0000FF" stroke-width="20" fill="#FF0000" id="TEXT2226_pbTextBoundingRectEl" />
    <text fill="#000000" font-family="Helvetica" font-size="560" text-anchor="middle" x="39470" y="2060" id="TEXT2226_pbTextEl">吹灰器C-7</text>
  </g>
  <g id="TEXT2228">
    <rect x="37820" y="4060" width="3300" height="640" stroke="#0000FF" stroke-width="20" fill="#FF0000" id="TEXT2228_pbTextBoundingRectEl" />
    <text fill="#000000" font-family="Helvetica" font-size="560" text-anchor="middle" x="39470" y="4660" id="TEXT2228_pbTextEl">吹灰器C-8</text>
  </g>
  <path id="LINE2634" d="M 39460 3660 l 0 -1540" stroke="#804040" stroke-width="40" fill="none" />
  <path id="LINE2635" d="M 39180 2580 l 560 0 -500 620 500 0 -560 -620" stroke="#808080" stroke-width="20" fill="#808080" />
  <path id="LINE2638" d="M 26020 5400 l 13300 -1840" stroke="#804040" stroke-width="40" fill="none" />
  <g id="TEXT2230">
    <rect x="37820" y="6820" width="3300" height="640" stroke="#0000FF" stroke-width="20" fill="#FFFFFF" id="TEXT2230_pbTextBoundingRectEl" />
    <text fill="#000000" font-family="Helvetica" font-size="560" text-anchor="middle" x="39470" y="7420" id="TEXT2230_pbTextEl">吹灰器C-9</text>
  </g>
  <path id="LINE2639" d="M 39460 6420 l 0 -1540" stroke="#804040" stroke-width="40" fill="none" />
  <path id="LINE2640" d="M 39180 5340 l 560 0 -500 620 500 0 -560 -620" stroke="#808080" stroke-width="20" fill="#808080" />
  <path id="LINE2643" d="M 26020 8160 l 13300 -1860" stroke="#804040" stroke-width="40" fill="none" />
  <g id="TEXT2232">
    <rect x="37820" y="9440" width="3300" height="640" stroke="#0000FF" stroke-width="20" fill="#FFFFFF" id="TEXT2232_pbTextBoundingRectEl" />
    <text fill="#000000" font-family="Helvetica" font-size="560" text-anchor="middle" x="39470" y="10040" id="TEXT2232_pbTextEl">吹灰器C-10</text>
  </g>
  <path id="LINE2644" d="M 39460 9040 l 0 -1540" stroke="#804040" stroke-width="40" fill="none" />
  <path id="LINE2645" d="M 39180 7960 l 560 0 -500 620 500 0 -560 -620" stroke="#808080" stroke-width="20" fill="#808080" />
  <path id="LINE2648" d="M 26020 10780 l 13300 -1840" stroke="#804040" stroke-width="40" fill="none" />
  <g id="TEXT2234">
    <rect x="37820" y="20440" width="3300" height="640" stroke="#0000FF" stroke-width="20" fill="#FFFFFF" id="TEXT2234_pbTextBoundingRectEl" />
    <text fill="#000000" font-family="Helvetica" font-size="560" text-anchor="middle" x="39470" y="21040" id="TEXT2234_pbTextEl">吹灰器C-14</text>
  </g>
  <path id="LINE2649" d="M 39460 20040 l 0 -1540" stroke="#804040" stroke-width="40" fill="none" />
  <path id="LINE2650" d="M 39180 18960 l 560 0 -500 600 500 0 -560 -600" stroke="#808080" stroke-width="20" fill="#808080" />
  <path id="LINE2653" d="M 26020 21780 l 13300 -1860" stroke="#804040" stroke-width="40" fill="none" />
  <g id="TEXT2236">
    <rect x="37820" y="12220" width="3300" height="640" stroke="#0000FF" stroke-width="20" fill="#FFFFFF" id="TEXT2236_pbTextBoundingRectEl" />
    <text fill="#000000" font-family="Helvetica" font-size="560" text-anchor="middle" x="39470" y="12820" id="TEXT2236_pbTextEl">吹灰器C-11</text>
  </g>
  <path id="LINE2654" d="M 39460 11820 l 0 -1540" stroke="#804040" stroke-width="40" fill="none" />
  <path id="LINE2655" d="M 39180 10740 l 560 0 -500 600 500 0 -560 -600" stroke="#808080" stroke-width="20" fill="#808080" />
  <path id="LINE2658" d="M 26020 13560 l 13300 -1860" stroke="#804040" stroke-width="40" fill="none" />
  <g id="TEXT2238">
    <rect x="37820" y="14980" width="3300" height="640" stroke="#0000FF" stroke-width="20" fill="#FFFFFF" id="TEXT2238_pbTextBoundingRectEl" />
    <text fill="#000000" font-family="Helvetica" font-size="560" text-anchor="middle" x="39470" y="15580" id="TEXT2238_pbTextEl">吹灰器C-12</text>
  </g>
  <path id="LINE2659" d="M 39460 14560 l 0 -1540" stroke="#804040" stroke-width="40" fill="none" />
  <path id="LINE2660" d="M 39180 13500 l 560 0 -500 600 500 0 -560 -600" stroke="#808080" stroke-width="20" fill="#808080" />
  <path id="LINE2663" d="M 26020 16300 l 13300 -1840" stroke="#804040" stroke-width="40" fill="none" />
  <g id="TEXT2240">
    <rect x="37820" y="17680" width="3300" height="640" stroke="#0000FF" stroke-width="20" fill="#FFFFFF" id="TEXT2240_pbTextBoundingRectEl" />
    <text fill="#000000" font-family="Helvetica" font-size="560" text-anchor="middle" x="39470" y="18280" id="TEXT2240_pbTextEl">吹灰器C-13</text>
  </g>
  <path id="LINE2664" d="M 39460 17280 l 0 -1540" stroke="#804040" stroke-width="40" fill="none" />
  <path id="LINE2665" d="M 39180 16200 l 560 0 -500 600 500 0 -560 -600" stroke="#808080" stroke-width="20" fill="#808080" />
  <path id="LINE2668" d="M 26020 19020 l 13300 -1860" stroke="#804040" stroke-width="40" fill="none" />
  <g id="TEXT2242">
    <rect x="37820" y="23060" width="3300" height="640" stroke="#0000FF" stroke-width="20" fill="#FFFFFF" id="TEXT2242_pbTextBoundingRectEl" />
    <text fill="#000000" font-family="Helvetica" font-size="560" text-anchor="middle" x="39470" y="23660" id="TEXT2242_pbTextEl">吹灰器C-15</text>
  </g>
  <path id="LINE2669" d="M 39460 22660 l 0 -1540" stroke="#804040" stroke-width="40" fill="none" />
  <path id="LINE2670" d="M 39180 21580 l 560 0 -500 620 500 0 -560 -620" stroke="#808080" stroke-width="20" fill="#808080" />
  <path id="LINE2673" d="M 26020 24400 l 13300 -1860" stroke="#804040" stroke-width="40" fill="none" />
  <path id="LINE2674" d="M 39460 25320 l 0 -1540" stroke="#804040" stroke-width="40" fill="none" />
  <path id="LINE2675" d="M 39180 24240 l 560 0 -500 620 500 0 -560 -620" stroke="#808080" stroke-width="20" fill="#808080" />
  <path id="LINE2678" d="M 26020 27060 l 22000 -2660" stroke="#804040" stroke-width="40" fill="none" />
  <g id="TEXT2246">
    <rect x="46440" y="22060" width="3300" height="660" stroke="#0000FF" stroke-width="20" fill="#FFFFFF" id="TEXT2246_pbTextBoundingRectEl" />
    <text fill="#000000" font-family="Helvetica" font-size="560" text-anchor="middle" x="48090" y="22670" id="TEXT2246_pbTextEl">吹灰器C-16</text>
  </g>
  <path id="LINE2679" d="M 48080 24400 l 0 -1540" stroke="#804040" stroke-width="40" fill="none" />
  <path id="LINE2680" d="M 47800 23340 l 560 0 -500 600 500 0 -560 -600" stroke="#808080" stroke-width="20" fill="#808080" />
  <rect x="25400" y="28480" width="1260" height="620" stroke="#000000" stroke-width="20" fill="none" id="RECTANGLE85" />
  <path id="POLYGON2681" d="M 25940 29040 l 0 780" stroke="#009600" stroke-width="40" fill="none" />
  <path id="POLYGON2682" d="M 25980 29760 l -12180 0" stroke="#009600" stroke-width="40" fill="none" />
  <path d="M 21040 29360 l 0 780" stroke="#808080" stroke-width="40" fill="none" />
  <path d="M 20260 29360 l 0 780" stroke="#808080" stroke-width="40" fill="none" />
  <path d="M 21040 29760 l -780 0" stroke="#808080" stroke-width="40" fill="none" />
  <path d="M 21040 29700 l -500 560" stroke="#808080" stroke-width="40" fill="none" />
  <path d="M 20640 30640 l -280 -460" stroke="#808080" stroke-width="40" fill="none" />
  <path id="LINE2682" d="M 23680 30020 l 0 -620 -500 560 0 -560 500 620" stroke="#808080" stroke-width="20" fill="#808080" />
  <path id="LINE2683" d="M 18360 30020 l 0 -600 -480 540 0 -540 480 600" stroke="#808080" stroke-width="20" fill="#808080" />
  <path id="ELLIPSE507" d="M 19168 29980 l -40 -13 -26 -14 -20 -13 -17 -13 -14 -14 -12 -13 -11 -13 -9 -14 -8 -13 -7 -13 -7 -14 -5 -13 -5 -13 -3 -14 -4 -13 -2 -13 -2 -14 -1 -13 -1 -13 0 -14 1 -13 1 -13 2 -14 2 -13 4 -13 3 -14 5 -13 5 -13 7 -14 7 -13 8 -13 9 -14 11 -13 12 -13 14 -14 17 -13 20 -13 26 -14 40 -13 104 0 40 13 26 14 20 13 17 13 14 14 12 13 11 13 9 14 8 13 7 13 7 14 5 13 5 13 3 14 4 13 2 13 2 14 1 13 1 13 0 14 -1 13 -1 13 -2 14 -2 13 -4 13 -3 14 -5 13 -5 13 -7 14 -7 13 -8 13 -9 14 -11 13 -12 13 -14 14 -17 13 -20 13 -26 14 -40 13 -104 0" stroke="#808080" stroke-width="20" fill="#808080" />
  <path id="POLYGON2683" d="M 12200 29700 l 820 -140 0 80 820 0 0 160 0 0 -820 0 0 60 -820 -160 0 0" stroke="#009600" stroke-width="20" fill="#009600" />
  <g id="TEXT2247">
    <rect x="11460" y="30240" width="3300" height="580" stroke-width="0" fill="none" id="TEXT2247_pbTextBoundingRectEl" />
    <text fill="#000000" font-family="Helvetica" font-size="560" text-anchor="middle" x="13110" y="30810" id="TEXT2247_pbTextEl">凝结水</text>
  </g>
  <path id="POLYGON2684" d="M 17060 29760 l 0 1740" stroke="#009600" stroke-width="40" fill="none" />
  <path id="LINE2684" d="M 24260 29760 l 0 1740" stroke="#009600" stroke-width="40" fill="none" />
  <path id="POLYGON2685" d="M 16960 31500 l 7300 0" stroke="#009600" stroke-width="40" fill="none" />
  <g id="TEXT2248">
    <rect x="27540" y="27320" width="3300" height="580" stroke-width="0" fill="none" id="TEXT2248_pbTextBoundingRectEl" />
    <text fill="#000000" font-family="Helvetica" font-size="560" text-anchor="middle" x="29190" y="27890" id="TEXT2248_pbTextEl">TI_21001</text>
  </g>
  <g id="TEXT2249">
    <rect x="22740" y="760" width="7020" height="1040" stroke-width="0" fill="none" id="TEXT2249_pbTextBoundingRectEl" />
    <text fill="#000000" font-family="Helvetica" font-size="960" text-anchor="middle" x="26250" y="1760" id="TEXT2249_pbTextEl">吹灰器系统</text>
  </g>
  <g id="DATAPOINT53" PB:IsMultiState="False" PBD:PtTagName="\\RTDBB\FJFS_580_TT_21001" PB:Type="7" PB:NumberFormat="0.00">
    <rect x="27620" y="28320" width="1560" height="520" stroke-width="0" fill="none" id="DATAPOINT53_pbTextBoundingRectEl" />
    <text fill="#000000" font-family="Helvetica" font-size="560" text-anchor="middle" x="28400" y="28860" id="DATAPOINT53_pbTextEl" PBD:Property="VAL">#.##</text>
  </g>
  <g id="TEXT1830">
    <rect x="29140" y="28340" width="1500" height="480" stroke-width="0" fill="none" id="TEXT1830_pbTextBoundingRectEl" />
    <text fill="#000000" font-family="Helvetica" font-size="560" text-anchor="middle" x="29890" y="28860" id="TEXT1830_pbTextEl">°C</text>
  </g>
</svg>