<svg xmlns="http://www.w3.org/2000/svg" xmlns:xlink="http://www.w3.org/1999/xlink" version="1.1" style="background-color:#7DB6C1" width="1062" height="669" viewbox="0 0 1062 669"><defs>
<linearGradient x1="0.000000%" y1="50.000000%" x2="100.000000%" y2="50.000000%" id="lgradient1_0">
<stop offset="0" stop-color="#2C2C2C" stop-opacity="1"/>
<stop offset="0.5" stop-color="#FFFFFF" stop-opacity="1"/>
<stop offset="1" stop-color="#2C2C2C" stop-opacity="1"/>
</linearGradient>
<radialGradient cx="50.000000%" cy="50.000000%" r="50.000000%" fx="50.000000%" fy="50.000000%" id="rgradient1_4_0_0">
<stop offset="0%" stop-color="#FFFFFF" stop-opacity="1"/>
<stop offset="100%" stop-color="#2C2C2C" stop-opacity="1"/>
</radialGradient>
<radialGradient cx="50.000000%" cy="50.000000%" r="50.000000%" fx="50.000000%" fy="50.000000%" id="rgradient1_4_0_1">
<stop offset="0%" stop-color="#FFFFFF" stop-opacity="1"/>
<stop offset="100%" stop-color="#2C2C2C" stop-opacity="1"/>
</radialGradient>
<linearGradient x1="50.000000%" y1="0.000000%" x2="50.000000%" y2="100.000000%" id="lgradient1_4_0_2">
<stop offset="0" stop-color="#2C2C2C" stop-opacity="1"/>
<stop offset="0.5" stop-color="#FFFFFF" stop-opacity="1"/>
<stop offset="1" stop-color="#2C2C2C" stop-opacity="1"/>
</linearGradient>
<linearGradient x1="0.000000%" y1="50.000000%" x2="100.000000%" y2="50.000000%" id="lgradient1_6_0">
<stop offset="0" stop-color="#2C2C2C" stop-opacity="1"/>
<stop offset="0.5" stop-color="#FFFFFF" stop-opacity="1"/>
<stop offset="1" stop-color="#2C2C2C" stop-opacity="1"/>
</linearGradient>
<linearGradient x1="0.000000%" y1="50.000000%" x2="100.000000%" y2="50.000000%" id="lgradient1_6_1">
<stop offset="0" stop-color="#2C2C2C" stop-opacity="1"/>
<stop offset="0.5" stop-color="#FFFFFF" stop-opacity="1"/>
<stop offset="1" stop-color="#2C2C2C" stop-opacity="1"/>
</linearGradient>
<linearGradient x1="0.000000%" y1="50.000000%" x2="100.000000%" y2="50.000000%" id="lgradient3_0">
<stop offset="0" stop-color="#2C2C2C" stop-opacity="1"/>
<stop offset="0.5" stop-color="#FFFFFF" stop-opacity="1"/>
<stop offset="1" stop-color="#2C2C2C" stop-opacity="1"/>
</linearGradient>
<linearGradient x1="50.000000%" y1="0.000000%" x2="50.000000%" y2="100.000000%" id="lgradient5_0">
<stop offset="0" stop-color="#2C2C2C" stop-opacity="1"/>
<stop offset="0.5" stop-color="#FFFFFF" stop-opacity="1"/>
<stop offset="1" stop-color="#2C2C2C" stop-opacity="1"/>
</linearGradient>
<linearGradient x1="50.000000%" y1="0.000000%" x2="50.000000%" y2="100.000000%" id="lgradient5_1">
<stop offset="0" stop-color="#2C2C2C" stop-opacity="1"/>
<stop offset="0.5" stop-color="#FFFFFF" stop-opacity="1"/>
<stop offset="1" stop-color="#2C2C2C" stop-opacity="1"/>
</linearGradient>
<linearGradient x1="50.000000%" y1="0.000000%" x2="50.000000%" y2="100.000000%" id="lgradient8_0">
<stop offset="0" stop-color="#2C2C2C" stop-opacity="1"/>
<stop offset="0.5" stop-color="#FFFFFF" stop-opacity="1"/>
<stop offset="1" stop-color="#2C2C2C" stop-opacity="1"/>
</linearGradient>
<linearGradient x1="50.000000%" y1="0.000000%" x2="50.000000%" y2="100.000000%" id="lgradient8_1">
<stop offset="0" stop-color="#2C2C2C" stop-opacity="1"/>
<stop offset="0.5" stop-color="#FFFFFF" stop-opacity="1"/>
<stop offset="1" stop-color="#2C2C2C" stop-opacity="1"/>
</linearGradient>
<linearGradient x1="50.000000%" y1="0.000000%" x2="50.000000%" y2="100.000000%" id="lgradient12_0">
<stop offset="0" stop-color="#2C2C2C" stop-opacity="1"/>
<stop offset="0.5" stop-color="#FFFFFF" stop-opacity="1"/>
<stop offset="1" stop-color="#2C2C2C" stop-opacity="1"/>
</linearGradient>
<linearGradient x1="50.000000%" y1="0.000000%" x2="50.000000%" y2="100.000000%" id="lgradient12_1">
<stop offset="0" stop-color="#2C2C2C" stop-opacity="1"/>
<stop offset="0.5" stop-color="#FFFFFF" stop-opacity="1"/>
<stop offset="1" stop-color="#2C2C2C" stop-opacity="1"/>
</linearGradient>
<linearGradient x1="0%" y1="40%" x2="100%" y2="60%" id="lgradient17_0_1">
<stop offset="0" stop-color="#2C2C2C" stop-opacity="1"/>
<stop offset="0.5" stop-color="#FFFFFF" stop-opacity="1"/>
<stop offset="1" stop-color="#2C2C2C" stop-opacity="1"/></linearGradient>
<linearGradient x1="0%" y1="60%" x2="100%" y2="40%" id="lgradient17_1_1">
<stop offset="0" stop-color="#2C2C2C" stop-opacity="1"/>
<stop offset="0.5" stop-color="#FFFFFF" stop-opacity="1"/>
<stop offset="1" stop-color="#2C2C2C" stop-opacity="1"/></linearGradient>
<linearGradient x1="0.000000%" y1="50.000000%" x2="100.000000%" y2="50.000000%" id="lgradient17_2_0_0">
<stop offset="0" stop-color="#2C2C2C" stop-opacity="1"/>
<stop offset="0.5" stop-color="#FFFFFF" stop-opacity="1"/>
<stop offset="1" stop-color="#2C2C2C" stop-opacity="1"/>
</linearGradient>
<linearGradient x1="50.000000%" y1="0.000000%" x2="50.000000%" y2="100.000000%" id="lgradient17_2_0_1">
<stop offset="0" stop-color="#2C2C2C" stop-opacity="1"/>
<stop offset="0.5" stop-color="#FFFFFF" stop-opacity="1"/>
<stop offset="1" stop-color="#2C2C2C" stop-opacity="1"/>
</linearGradient>
<radialGradient cx="50.000000%" cy="50.000000%" r="50.000000%" fx="50.000000%" fy="50.000000%" id="rgradient17_2_1_0">
<stop offset="0%" stop-color="#FFFFFF" stop-opacity="1"/>
<stop offset="100%" stop-color="#2C2C2C" stop-opacity="1"/>
</radialGradient>
<linearGradient x1="0%" y1="40%" x2="100%" y2="60%" id="lgradient18_0_1">
<stop offset="0" stop-color="#2C2C2C" stop-opacity="1"/>
<stop offset="0.5" stop-color="#FFFFFF" stop-opacity="1"/>
<stop offset="1" stop-color="#2C2C2C" stop-opacity="1"/></linearGradient>
<linearGradient x1="0%" y1="60%" x2="100%" y2="40%" id="lgradient18_1_1">
<stop offset="0" stop-color="#2C2C2C" stop-opacity="1"/>
<stop offset="0.5" stop-color="#FFFFFF" stop-opacity="1"/>
<stop offset="1" stop-color="#2C2C2C" stop-opacity="1"/></linearGradient>
<linearGradient x1="0.000000%" y1="50.000000%" x2="100.000000%" y2="50.000000%" id="lgradient18_2_0_0">
<stop offset="0" stop-color="#2C2C2C" stop-opacity="1"/>
<stop offset="0.5" stop-color="#FFFFFF" stop-opacity="1"/>
<stop offset="1" stop-color="#2C2C2C" stop-opacity="1"/>
</linearGradient>
<linearGradient x1="50.000000%" y1="0.000000%" x2="50.000000%" y2="100.000000%" id="lgradient18_2_0_1">
<stop offset="0" stop-color="#2C2C2C" stop-opacity="1"/>
<stop offset="0.5" stop-color="#FFFFFF" stop-opacity="1"/>
<stop offset="1" stop-color="#2C2C2C" stop-opacity="1"/>
</linearGradient>
<radialGradient cx="50.000000%" cy="50.000000%" r="50.000000%" fx="50.000000%" fy="50.000000%" id="rgradient18_2_1_0">
<stop offset="0%" stop-color="#FFFFFF" stop-opacity="1"/>
<stop offset="100%" stop-color="#2C2C2C" stop-opacity="1"/>
</radialGradient>
<linearGradient x1="50.000000%" y1="0.000000%" x2="50.000000%" y2="100.000000%" id="lgradient24_0">
<stop offset="0" stop-color="#2C2C2C" stop-opacity="1"/>
<stop offset="0.5" stop-color="#FFFFFF" stop-opacity="1"/>
<stop offset="1" stop-color="#2C2C2C" stop-opacity="1"/>
</linearGradient>
<linearGradient x1="50.000000%" y1="0.000000%" x2="50.000000%" y2="100.000000%" id="lgradient24_1">
<stop offset="0" stop-color="#2C2C2C" stop-opacity="1"/>
<stop offset="0.5" stop-color="#FFFFFF" stop-opacity="1"/>
<stop offset="1" stop-color="#2C2C2C" stop-opacity="1"/>
</linearGradient>
<linearGradient x1="0%" y1="40%" x2="100%" y2="60%" id="lgradient25_0_1">
<stop offset="0" stop-color="#2C2C2C" stop-opacity="1"/>
<stop offset="0.5" stop-color="#FFFFFF" stop-opacity="1"/>
<stop offset="1" stop-color="#2C2C2C" stop-opacity="1"/></linearGradient>
<linearGradient x1="0%" y1="60%" x2="100%" y2="40%" id="lgradient25_1_1">
<stop offset="0" stop-color="#2C2C2C" stop-opacity="1"/>
<stop offset="0.5" stop-color="#FFFFFF" stop-opacity="1"/>
<stop offset="1" stop-color="#2C2C2C" stop-opacity="1"/></linearGradient>
<linearGradient x1="0.000000%" y1="50.000000%" x2="100.000000%" y2="50.000000%" id="lgradient25_2_0_0">
<stop offset="0" stop-color="#2C2C2C" stop-opacity="1"/>
<stop offset="0.5" stop-color="#FFFFFF" stop-opacity="1"/>
<stop offset="1" stop-color="#2C2C2C" stop-opacity="1"/>
</linearGradient>
<linearGradient x1="50.000000%" y1="0.000000%" x2="50.000000%" y2="100.000000%" id="lgradient25_2_0_1">
<stop offset="0" stop-color="#2C2C2C" stop-opacity="1"/>
<stop offset="0.5" stop-color="#FFFFFF" stop-opacity="1"/>
<stop offset="1" stop-color="#2C2C2C" stop-opacity="1"/>
</linearGradient>
<radialGradient cx="50.000000%" cy="50.000000%" r="50.000000%" fx="50.000000%" fy="50.000000%" id="rgradient25_2_1_0">
<stop offset="0%" stop-color="#FFFFFF" stop-opacity="1"/>
<stop offset="100%" stop-color="#2C2C2C" stop-opacity="1"/>
</radialGradient>
<linearGradient x1="0.000000%" y1="50.000000%" x2="100.000000%" y2="50.000000%" id="lgradient31_0">
<stop offset="0" stop-color="#2C2C2C" stop-opacity="1"/>
<stop offset="0.5" stop-color="#FFFFFF" stop-opacity="1"/>
<stop offset="1" stop-color="#2C2C2C" stop-opacity="1"/>
</linearGradient>
<linearGradient x1="0.000000%" y1="50.000000%" x2="100.000000%" y2="50.000000%" id="lgradient31_1">
<stop offset="0" stop-color="#2C2C2C" stop-opacity="1"/>
<stop offset="0.5" stop-color="#FFFFFF" stop-opacity="1"/>
<stop offset="1" stop-color="#2C2C2C" stop-opacity="1"/>
</linearGradient>
<linearGradient x1="50.000000%" y1="0.000000%" x2="50.000000%" y2="100.000000%" id="lgradient72">
<stop offset="0" stop-color="#2C2C2C" stop-opacity="1"/>
<stop offset="0.5" stop-color="#FFFFFF" stop-opacity="1"/>
<stop offset="1" stop-color="#2C2C2C" stop-opacity="1"/>
</linearGradient>
<linearGradient x1="50.000000%" y1="0.000000%" x2="50.000000%" y2="100.000000%" id="lgradient73">
<stop offset="0" stop-color="#2C2C2C" stop-opacity="1"/>
<stop offset="0.5" stop-color="#FFFFFF" stop-opacity="1"/>
<stop offset="1" stop-color="#2C2C2C" stop-opacity="1"/>
</linearGradient>
<linearGradient x1="50.000000%" y1="0.000000%" x2="50.000000%" y2="100.000000%" id="lgradient74">
<stop offset="0" stop-color="#2C2C2C" stop-opacity="1"/>
<stop offset="0.5" stop-color="#FFFFFF" stop-opacity="1"/>
<stop offset="1" stop-color="#2C2C2C" stop-opacity="1"/>
</linearGradient>
<linearGradient x1="50.000000%" y1="0.000000%" x2="50.000000%" y2="100.000000%" id="lgradient75">
<stop offset="0" stop-color="#2C2C2C" stop-opacity="1"/>
<stop offset="0.5" stop-color="#FFFFFF" stop-opacity="1"/>
<stop offset="1" stop-color="#2C2C2C" stop-opacity="1"/>
</linearGradient>
<linearGradient x1="50.000000%" y1="0.000000%" x2="50.000000%" y2="100.000000%" id="lgradient76">
<stop offset="0" stop-color="#2C2C2C" stop-opacity="1"/>
<stop offset="0.5" stop-color="#FFFFFF" stop-opacity="1"/>
<stop offset="1" stop-color="#2C2C2C" stop-opacity="1"/>
</linearGradient>
<linearGradient x1="50.000000%" y1="0.000000%" x2="50.000000%" y2="100.000000%" id="lgradient77">
<stop offset="0" stop-color="#2C2C2C" stop-opacity="1"/>
<stop offset="0.5" stop-color="#FFFFFF" stop-opacity="1"/>
<stop offset="1" stop-color="#2C2C2C" stop-opacity="1"/>
</linearGradient>
<linearGradient x1="50.000000%" y1="0.000000%" x2="50.000000%" y2="100.000000%" id="lgradient78">
<stop offset="0" stop-color="#2C2C2C" stop-opacity="1"/>
<stop offset="0.5" stop-color="#FFFFFF" stop-opacity="1"/>
<stop offset="1" stop-color="#2C2C2C" stop-opacity="1"/>
</linearGradient>
<linearGradient x1="50.000000%" y1="0.000000%" x2="50.000000%" y2="100.000000%" id="lgradient79">
<stop offset="0" stop-color="#2C2C2C" stop-opacity="1"/>
<stop offset="0.5" stop-color="#FFFFFF" stop-opacity="1"/>
<stop offset="1" stop-color="#2C2C2C" stop-opacity="1"/>
</linearGradient>
<linearGradient x1="50.000000%" y1="0.000000%" x2="50.000000%" y2="100.000000%" id="lgradient80">
<stop offset="0" stop-color="#2C2C2C" stop-opacity="1"/>
<stop offset="0.5" stop-color="#FFFFFF" stop-opacity="1"/>
<stop offset="1" stop-color="#2C2C2C" stop-opacity="1"/>
</linearGradient>
<linearGradient x1="50.000000%" y1="0.000000%" x2="50.000000%" y2="100.000000%" id="lgradient81">
<stop offset="0" stop-color="#2C2C2C" stop-opacity="1"/>
<stop offset="0.5" stop-color="#FFFFFF" stop-opacity="1"/>
<stop offset="1" stop-color="#2C2C2C" stop-opacity="1"/>
</linearGradient>
<linearGradient x1="50.000000%" y1="0.000000%" x2="50.000000%" y2="100.000000%" id="lgradient83">
<stop offset="0" stop-color="#2C2C2C" stop-opacity="1"/>
<stop offset="0.5" stop-color="#FFFFFF" stop-opacity="1"/>
<stop offset="1" stop-color="#2C2C2C" stop-opacity="1"/>
</linearGradient>
<linearGradient x1="50.000000%" y1="0.000000%" x2="50.000000%" y2="100.000000%" id="lgradient84">
<stop offset="0" stop-color="#2C2C2C" stop-opacity="1"/>
<stop offset="0.5" stop-color="#FFFFFF" stop-opacity="1"/>
<stop offset="1" stop-color="#2C2C2C" stop-opacity="1"/>
</linearGradient>
</defs>
<g shape-type="group">
<rect shape-type="roundRectangle" rx="20" ry="20" x="376" y="150" width="64" height="320" fill="url(#lgradient1_0)" stroke="#000000" stroke-width="1.00"/>
<g shape-type="group">
<line shape-type="limitline" x1="439" y1="227" x2="373" y2="228" fill="#FFFFFF" stroke="#000000" stroke-width="1.00"/>
<line shape-type="limitline" x1="439" y1="264" x2="373" y2="265" fill="#FFFFFF" stroke="#000000" stroke-width="1.00"/>
<line shape-type="line" x1="440" y1="264" x2="374" y2="227" fill="#FFFFFF" stroke="#000000" stroke-width="1.00"/>
<line shape-type="line" x1="374" y1="265" x2="438" y2="226" fill="#FFFFFF" stroke="#000000" stroke-width="1.00"/>
</g>
<g shape-type="group">
<line shape-type="limitline" x1="441" y1="348" x2="375" y2="349" fill="#FFFFFF" stroke="#000000" stroke-width="1.00"/>
<line shape-type="limitline" x1="441" y1="385" x2="375" y2="386" fill="#FFFFFF" stroke="#000000" stroke-width="1.00"/>
<line shape-type="line" x1="442" y1="385" x2="376" y2="348" fill="#FFFFFF" stroke="#000000" stroke-width="1.00"/>
<line shape-type="line" x1="376" y1="387" x2="440" y2="347" fill="#FFFFFF" stroke="#000000" stroke-width="1.00"/>
</g>
<rect shape-type="rectangle" x="378" y="189" width="14" height="34" fill="#FFFFFF" stroke="#000000" stroke-width="1.00"/>
<g shape-type="group">
<g shape-type="group">
<ellipse shape-type="ellipse" cx="388" cy="649" rx="15" ry="24" fill="url(#rgradient1_4_0_0)" stroke="#000000" stroke-width="1.00"/>
<ellipse shape-type="ellipse" cx="503" cy="650" rx="16" ry="24" fill="url(#rgradient1_4_0_1)" stroke="#000000" stroke-width="1.00"/>
<rect shape-type="rectangle" x="382" y="626" width="122" height="48" fill="url(#lgradient1_4_0_2)" stroke="#000000" stroke-width="1.00"/>
</g>
<rect shape-type="rectangle" x="494" y="626" width="9" height="49" fill="#FFFFFF" stroke="#000000" stroke-width="1.00"/>
</g>
<line shape-type="limitline" x1="407" y1="626" x2="406" y2="470" fill="#FFFFFF" stroke="#000000" stroke-width="1.00"/>
<g shape-type="group">
<polygon shape-type="trapezium" points="400,481 417,481 408,503 408,503 400,481" fill="url(#lgradient1_6_0)" stroke="#000000" stroke-width="1.00"/>
<polygon shape-type="trapezium" points="416,525 399,525 408,503 408,503 416,525" fill="url(#lgradient1_6_1)" stroke="#000000" stroke-width="1.00"/>
<rect shape-type="rectangle" x="388" y="501" width="20" height="3" fill="#808080" stroke="#000000" stroke-width="1.00"/>
<path shape-type="chord" d="M 389,485 A 20,21 0 1,0 389,518 z" fill="#808080" stroke="#000000" stroke-width="1.00"/>
</g>
</g>
<line shape-type="limitline" x1="427" y1="625" x2="427" y2="560" fill="#FFFFFF" stroke="#000000" stroke-width="1.00"/>
<g shape-type="group">
<rect shape-type="roundRectangle" rx="20" ry="20" x="970" y="519" width="66" height="135" fill="url(#lgradient3_0)" stroke="#000000" stroke-width="1.00"/>
<rect shape-type="rectangle" x="1023" y="542" width="13" height="96" fill="#FFFFFF" stroke="#000000" stroke-width="1.00"/>
</g>
<line shape-type="limitline" x1="969" y1="561" x2="429" y2="561" fill="#FFFFFF" stroke="#000000" stroke-width="1.00"/>
<g shape-type="group">
<polygon shape-type="trapezium" points="496,571 496,554 474,562 474,562 496,571" fill="url(#lgradient5_0)" stroke="#000000" stroke-width="1.00"/>
<polygon shape-type="trapezium" points="453,553 453,570 474,562 474,562 453,553" fill="url(#lgradient5_1)" stroke="#000000" stroke-width="1.00"/>
<rect shape-type="rectangle" x="473" y="542" width="3" height="21" fill="#808080" stroke="#000000" stroke-width="1.00"/>
<path shape-type="chord" d="M 492,543 A 21,20 0 0,0 459,543 z" fill="#808080" stroke="#000000" stroke-width="1.00"/>
</g>
<line shape-type="limitline" x1="506" y1="626" x2="506" y2="596" fill="#FFFFFF" stroke="#000000" stroke-width="1.00"/>
<line shape-type="limitline" x1="795" y1="596" x2="507" y2="596" fill="#FFFFFF" stroke="#000000" stroke-width="1.00"/>
<g shape-type="group">
<polygon shape-type="trapezium" points="589,604 589,588 567,596 567,596 589,604" fill="url(#lgradient8_0)" stroke="#000000" stroke-width="1.00"/>
<polygon shape-type="trapezium" points="546,586 546,603 567,595 567,595 546,586" fill="url(#lgradient8_1)" stroke="#000000" stroke-width="1.00"/>
<rect shape-type="rectangle" x="566" y="575" width="3" height="21" fill="#808080" stroke="#000000" stroke-width="1.00"/>
<path shape-type="chord" d="M 585,577 A 21,20 0 0,0 552,577 z" fill="#808080" stroke="#000000" stroke-width="1.00"/>
</g>
<line shape-type="limitline" x1="1347" y1="207" x2="440" y2="207" fill="#FFFFFF" stroke="#000000" stroke-width="2.00"/>
<polygon shape-type="trapezium" points="1345,201 1345,214 1361,208 1361,208 1345,201" stroke="#000000" stroke-width="2.00"/>
<g shape-type="group">
<line shape-type="limitline" x1="809" y1="596" x2="844" y2="597" fill="#FFFFFF" stroke="#000000" stroke-width="3.00"/>
<polygon shape-type="trapezium" points="810,603 810,590 794,596 794,596 810,603" stroke="#000000" stroke-width="2.00"/>
</g>
<g shape-type="group">
<polygon shape-type="trapezium" points="674,215 674,198 652,206 652,206 674,215" fill="url(#lgradient12_0)" stroke="#000000" stroke-width="1.00"/>
<polygon shape-type="trapezium" points="631,197 631,214 652,206 652,206 631,197" fill="url(#lgradient12_1)" stroke="#000000" stroke-width="1.00"/>
<rect shape-type="rectangle" x="651" y="185" width="3" height="21" fill="#808080" stroke="#000000" stroke-width="1.00"/>
<path shape-type="chord" d="M 670,187 A 21,20 0 0,0 637,187 z" fill="#808080" stroke="#000000" stroke-width="1.00"/>
</g>
<line shape-type="limitline" x1="650" y1="413" x2="438" y2="413" fill="#FFFFFF" stroke="#000000" stroke-width="2.00"/>
<line shape-type="limitline" x1="648" y1="335" x2="648" y2="413" fill="#FFFFFF" stroke="#000000" stroke-width="2.00"/>
<line shape-type="limitline" x1="1357" y1="335" x2="648" y2="335" fill="#FFFFFF" stroke="#000000" stroke-width="2.00"/>
<g shape-type="group">
<line shape-type="limitline" x1="1323" y1="335" x2="1357" y2="336" fill="#FFFFFF" stroke="#000000" stroke-width="3.00"/>
<polygon shape-type="trapezium" points="1324,343 1324,330 1307,336 1307,336 1324,343" stroke="#000000" stroke-width="2.00"/>
</g>
<g shape-type="group">
<g shape-type="group">
<rect shape-type="rectangle" x="163" y="734" width="27" height="6" fill="#808080" stroke="#000000" stroke-width="1.00"/>
<polygon shape-type="parallel" points="189,732 174,732 179,714 194,714 189,732" fill="url(#lgradient17_0_1)" stroke="#000000" stroke-width="1.00"/>
</g>
<g shape-type="group">
<rect shape-type="rectangle" x="194" y="734" width="29" height="6" fill="#808080" stroke="#000000" stroke-width="1.00"/>
<polygon shape-type="parallel" points="194,732 209,732 204,713 189,713 194,732" fill="url(#lgradient17_1_1)" stroke="#000000" stroke-width="1.00"/>
</g>
<g shape-type="group">
<g shape-type="group">
<rect shape-type="rectangle" x="192" y="692" width="12" height="21" fill="url(#lgradient17_2_0_0)" stroke="#000000" stroke-width="1.00"/>
<rect shape-type="rectangle" x="188" y="688" width="21" height="5" fill="url(#lgradient17_2_0_1)" stroke="#000000" stroke-width="1.00"/>
</g>
<g shape-type="group">
<ellipse shape-type="ellipse" cx="192" cy="714" rx="16" ry="16" fill="url(#rgradient17_2_1_0)" stroke="#000000" stroke-width="1.00"/>
<ellipse shape-type="ellipse" cx="192" cy="712" rx="12" ry="11" fill="#FF0000" stroke="#000000" stroke-width="1.00"/>
</g>
</g>
</g>
<g shape-type="group">
<g shape-type="group">
<rect shape-type="rectangle" x="255" y="735" width="27" height="6" fill="#808080" stroke="#000000" stroke-width="1.00"/>
<polygon shape-type="parallel" points="281,734 267,734 272,715 286,715 281,734" fill="url(#lgradient18_0_1)" stroke="#000000" stroke-width="1.00"/>
</g>
<g shape-type="group">
<rect shape-type="rectangle" x="286" y="735" width="30" height="6" fill="#808080" stroke="#000000" stroke-width="1.00"/>
<polygon shape-type="parallel" points="287,734 302,734 296,714 281,714 287,734" fill="url(#lgradient18_1_1)" stroke="#000000" stroke-width="1.00"/>
</g>
<g shape-type="group">
<g shape-type="group">
<rect shape-type="rectangle" x="284" y="693" width="13" height="21" fill="url(#lgradient18_2_0_0)" stroke="#000000" stroke-width="1.00"/>
<rect shape-type="rectangle" x="280" y="688" width="22" height="5" fill="url(#lgradient18_2_0_1)" stroke="#000000" stroke-width="1.00"/>
</g>
<g shape-type="group">
<ellipse shape-type="ellipse" cx="285" cy="715" rx="16" ry="16" fill="url(#rgradient18_2_1_0)" stroke="#000000" stroke-width="1.00"/>
<ellipse shape-type="ellipse" cx="285" cy="713" rx="12" ry="11" fill="#FF0000" stroke="#000000" stroke-width="1.00"/>
</g>
</g>
</g>
<line shape-type="limitline" x1="478" y1="768" x2="478" y2="674" fill="#FFFFFF" stroke="#000000" stroke-width="2.00"/>
<g shape-type="group">
<line shape-type="limitline" x1="234" y1="713" x2="233" y2="768" fill="#FFFFFF" stroke="#000000" stroke-width="2.00"/>
<line shape-type="limitline" x1="208" y1="713" x2="234" y2="714" fill="#FFFFFF" stroke="#000000" stroke-width="2.00"/>
</g>
<g shape-type="group">
<line shape-type="limitline" x1="327" y1="713" x2="326" y2="768" fill="#FFFFFF" stroke="#000000" stroke-width="2.00"/>
<line shape-type="limitline" x1="301" y1="713" x2="327" y2="714" fill="#FFFFFF" stroke="#000000" stroke-width="2.00"/>
</g>
<line shape-type="limitline" x1="197" y1="688" x2="197" y2="219" fill="#FFFFFF" stroke="#000000" stroke-width="2.00"/>
<line shape-type="limitline" x1="375" y1="220" x2="195" y2="220" fill="#FFFFFF" stroke="#000000" stroke-width="2.00"/>
<g shape-type="group">
<polygon shape-type="trapezium" points="353,229 353,213 331,221 331,221 353,229" fill="url(#lgradient24_0)" stroke="#000000" stroke-width="1.00"/>
<polygon shape-type="trapezium" points="310,212 310,228 331,220 331,220 310,212" fill="url(#lgradient24_1)" stroke="#000000" stroke-width="1.00"/>
<rect shape-type="rectangle" x="330" y="200" width="3" height="21" fill="#808080" stroke="#000000" stroke-width="1.00"/>
<path shape-type="chord" d="M 349,202 A 21,21 0 0,0 316,202 z" fill="#808080" stroke="#000000" stroke-width="1.00"/>
</g>
<g shape-type="group">
<g shape-type="group">
<rect shape-type="rectangle" x="1189" y="746" width="28" height="6" fill="#808080" stroke="#000000" stroke-width="1.00"/>
<polygon shape-type="parallel" points="1216,745 1201,745 1206,726 1221,726 1216,745" fill="url(#lgradient25_0_1)" stroke="#000000" stroke-width="1.00"/>
</g>
<g shape-type="group">
<rect shape-type="rectangle" x="1221" y="746" width="29" height="6" fill="#808080" stroke="#000000" stroke-width="1.00"/>
<polygon shape-type="parallel" points="1221,745 1236,745 1231,724 1216,724 1221,745" fill="url(#lgradient25_1_1)" stroke="#000000" stroke-width="1.00"/>
</g>
<g shape-type="group">
<g shape-type="group">
<rect shape-type="rectangle" x="1219" y="703" width="12" height="22" fill="url(#lgradient25_2_0_0)" stroke="#000000" stroke-width="1.00"/>
<rect shape-type="rectangle" x="1215" y="698" width="21" height="6" fill="url(#lgradient25_2_0_1)" stroke="#000000" stroke-width="1.00"/>
</g>
<g shape-type="group">
<ellipse shape-type="ellipse" cx="1218" cy="727" rx="16" ry="16" fill="url(#rgradient25_2_1_0)" stroke="#000000" stroke-width="1.00"/>
<ellipse shape-type="ellipse" cx="1218" cy="725" rx="12" ry="11" fill="#FF0000" stroke="#000000" stroke-width="1.00"/>
</g>
</g>
</g>
<line shape-type="limitline" x1="1205" y1="722" x2="1005" y2="722" fill="#FFFFFF" stroke="#000000" stroke-width="2.00"/>
<line shape-type="limitline" x1="1005" y1="722" x2="1005" y2="653" fill="#FFFFFF" stroke="#000000" stroke-width="2.00"/>
<line shape-type="limitline" x1="1225" y1="698" x2="1225" y2="521" fill="#FFFFFF" stroke="#000000" stroke-width="2.00"/>
<line shape-type="limitline" x1="1396" y1="521" x2="1226" y2="521" fill="#FFFFFF" stroke="#000000" stroke-width="2.00"/>
<polygon shape-type="trapezium" points="1393,514 1393,527 1409,521 1409,521 1393,514" stroke="#000000" stroke-width="2.00"/>
<g shape-type="group">
<polygon shape-type="trapezium" points="1218,580 1233,580 1225,602 1225,602 1218,580" fill="url(#lgradient31_0)" stroke="#000000" stroke-width="1.00"/>
<polygon shape-type="trapezium" points="1232,624 1217,624 1225,602 1225,602 1232,624" fill="url(#lgradient31_1)" stroke="#000000" stroke-width="1.00"/>
<rect shape-type="rectangle" x="1205" y="600" width="20" height="3" fill="#808080" stroke="#000000" stroke-width="1.00"/>
<path shape-type="chord" d="M 1207,584 A 19,21 0 1,0 1207,617 z" fill="#808080" stroke="#000000" stroke-width="1.00"/>
</g>
<g shape-type="group">
<rect shape-type="rectangle" x="430" y="582" width="75" height="21" fill="#008080" stroke="#000000" stroke-width="2.00"/>
<rect shape-type="rectangle" x="430" y="602" width="75" height="21" fill="#008080" stroke="#000000" stroke-width="2.00"/>
</g>
<g shape-type="group">
<rect shape-type="rectangle" x="203" y="172" width="75" height="21" fill="#008080" stroke="#000000" stroke-width="2.00"/>
<rect shape-type="rectangle" x="203" y="192" width="75" height="21" fill="#008080" stroke="#000000" stroke-width="2.00"/>
</g>
<g shape-type="group">
<rect shape-type="rectangle" x="309" y="128" width="75" height="21" fill="#008080" stroke="#FFFF00" stroke-width="2.00"/>
<rect shape-type="rectangle" x="309" y="148" width="75" height="21" fill="#008080" stroke="#FFFF00" stroke-width="2.00"/>
</g>
<g shape-type="group">
<rect shape-type="rectangle" x="849" y="154" width="75" height="21" fill="#008080" stroke="#000000" stroke-width="2.00"/>
<rect shape-type="rectangle" x="849" y="174" width="75" height="21" fill="#008080" stroke="#000000" stroke-width="2.00"/>
</g>
<g shape-type="group">
<rect shape-type="rectangle" x="524" y="635" width="75" height="20" fill="#008080" stroke="#000000" stroke-width="2.00"/>
<rect shape-type="rectangle" x="524" y="654" width="75" height="21" fill="#008080" stroke="#000000" stroke-width="2.00"/>
</g>
<g shape-type="group">
<rect shape-type="rectangle" x="1043" y="604" width="75" height="21" fill="#008080" stroke="#000000" stroke-width="2.00"/>
<rect shape-type="rectangle" x="1043" y="624" width="75" height="21" fill="#008080" stroke="#000000" stroke-width="2.00"/>
</g>
<text font-family="宋体" text-anchor="start" fill="#000000" shape-type="text" id="" font-size="12.500000" x="215" y="188">FIC</text>
<text font-family="宋体" text-anchor="start" fill="#000000" shape-type="text" id="" font-size="12.500000" x="236" y="208">kg/h</text>
<text font-family="宋体" text-anchor="start" fill="#000000" shape-type="text" id="" font-size="17.000000" x="317" y="145">XLIC</text>
<text font-family="宋体" text-anchor="start" fill="#000000" shape-type="text" id="" font-size="12.500000" x="348" y="165">%</text>
<text font-family="宋体" text-anchor="start" fill="#000000" shape-type="text" id="" font-size="12.500000" x="440" y="596">PIC</text>
<text font-family="宋体" text-anchor="start" fill="#000000" shape-type="text" id="" font-size="12.500000" x="464" y="617">MPa</text>
<text font-family="宋体" text-anchor="start" fill="#000000" shape-type="text" id="" font-size="12.500000" x="536" y="648">LIC</text>
<text font-family="宋体" text-anchor="start" fill="#000000" shape-type="text" id="" font-size="12.500000" x="572" y="670">%</text>
<text font-family="宋体" text-anchor="start" fill="#000000" shape-type="text" id="" font-size="12.500000" x="1052" y="621">LIC</text>
<text font-family="宋体" text-anchor="start" fill="#000000" shape-type="text" id="" font-size="12.500000" x="1091" y="640">%</text>
<text font-family="宋体" text-anchor="start" fill="#000000" shape-type="text" id="" font-size="12.500000" x="884" y="190">kg/h</text>
<text font-family="宋体" text-anchor="start" fill="#000000" shape-type="text" id="" font-size="12.500000" x="854" y="170">FT</text>
<line shape-type="limitline" x1="363" y1="504" x2="363" y2="169" fill="#FFFFFF" stroke="#808080" stroke-width="2.00" stroke-dasharray="5 10"/>
<line shape-type="limitline" x1="384" y1="504" x2="363" y2="504" fill="#FFFFFF" stroke="#808080" stroke-width="2.00" stroke-dasharray="5 10"/>
<line shape-type="limitline" x1="1159" y1="627" x2="1118" y2="627" fill="#FFFFFF" stroke="#808080" stroke-width="2.00" stroke-dasharray="5 10"/>
<line shape-type="limitline" x1="1160" y1="607" x2="1160" y2="627" fill="#FFFFFF" stroke="#808080" stroke-width="2.00" stroke-dasharray="5 10"/>
<line shape-type="limitline" x1="1200" y1="606" x2="1159" y2="606" fill="#FFFFFF" stroke="#808080" stroke-width="2.00" stroke-dasharray="5 10"/>
<line shape-type="limitline" x1="567" y1="637" x2="567" y2="596" fill="#FFFFFF" stroke="#808080" stroke-width="2.00" stroke-dasharray="5 10"/>
<line shape-type="limitline" x1="474" y1="583" x2="474" y2="563" fill="#FFFFFF" stroke="#808080" stroke-width="2.00" stroke-dasharray="5 10"/>
<line shape-type="limitline" x1="331" y1="193" x2="276" y2="193" fill="#FFFFFF" stroke="#808080" stroke-width="2.00" stroke-dasharray="5 10"/>
<line shape-type="limitline" x1="654" y1="178" x2="507" y2="178" fill="#FFFFFF" stroke="#808080" stroke-width="2.00" stroke-dasharray="5 10"/>
<g shape-type="group">
<g shape-type="group">
<rect shape-type="rectangle" x="435" y="141" width="75" height="20" fill="#008080" stroke="#000000" stroke-width="2.00"/>
<rect shape-type="rectangle" x="435" y="160" width="75" height="22" fill="#008080" stroke="#000000" stroke-width="2.00"/>
</g>
<text font-family="宋体" text-anchor="start" fill="#000000" shape-type="text" id="" font-size="11.750000" x="444" y="156">PIC</text>
<text font-family="宋体" text-anchor="start" fill="#000000" shape-type="text" id="" font-size="11.750000" x="469" y="175">MPa</text>
</g>
<text font-family="宋体" text-anchor="start" fill="#000000" shape-type="text" id="" font-size="12.500000" x="617" y="170">42.00 %</text>
<text font-family="宋体" text-anchor="start" fill="#000000" shape-type="text" id="" font-size="12.500000" x="450" y="528">0.00 %</text>
<text font-family="宋体" text-anchor="start" fill="#000000" shape-type="text" id="" font-size="12.500000" x="327" y="474">0.00 %</text>
<text font-family="宋体" text-anchor="start" fill="#000000" shape-type="text" id="" font-size="12.500000" x="297" y="186">0.00 %</text>
<text font-family="宋体" text-anchor="start" fill="#000000" shape-type="text" id="" font-size="12.500000" x="538" y="547">0.00 %</text>
<text font-family="宋体" text-anchor="start" fill="#000000" shape-type="text" id="" font-size="12.500000" x="1160" y="574">0.00 %</text>
<text font-family="宋体" text-anchor="start" fill="#000000" shape-type="text" id="" font-size="13.250000" x="167" y="758">P-011A</text>
<text font-family="宋体" text-anchor="start" fill="#000000" shape-type="text" id="" font-size="13.250000" x="253" y="762">P-011B</text>
<text font-family="宋体" text-anchor="start" fill="#000000" shape-type="text" id="" font-size="12.500000" x="1237" y="202">丁烯去R-102A/B</text>
<text font-family="宋体" text-anchor="start" fill="#000000" shape-type="text" id="" font-size="12.500000" x="1184" y="327">丁烯来自P-004A/B</text>
<text font-family="宋体" text-anchor="start" fill="#000000" shape-type="text" id="" font-size="12.500000" x="1314" y="518">污水去界外</text>
<text font-family="宋体" text-anchor="start" fill="#000000" shape-type="text" id="" font-size="12.500000" x="1205" y="767">P-005</text>
<rect shape-type="rectangle" x="23" y="803" width="74" height="24" fill="url(#lgradient72)" stroke="#000000" stroke-width="2.00"/>
<rect shape-type="rectangle" x="100" y="803" width="74" height="24" fill="url(#lgradient73)" stroke="#000000" stroke-width="2.00"/>
<rect shape-type="rectangle" x="177" y="803" width="74" height="24" fill="url(#lgradient74)" stroke="#000000" stroke-width="2.00"/>
<rect shape-type="rectangle" x="254" y="803" width="74" height="24" fill="url(#lgradient75)" stroke="#000000" stroke-width="2.00"/>
<rect shape-type="rectangle" x="331" y="803" width="74" height="24" fill="url(#lgradient76)" stroke="#000000" stroke-width="2.00"/>
<rect shape-type="rectangle" x="718" y="803" width="74" height="24" fill="url(#lgradient77)" stroke="#000000" stroke-width="2.00"/>
<rect shape-type="rectangle" x="408" y="803" width="74" height="24" fill="url(#lgradient78)" stroke="#000000" stroke-width="2.00"/>
<rect shape-type="rectangle" x="485" y="803" width="74" height="24" fill="url(#lgradient79)" stroke="#000000" stroke-width="2.00"/>
<rect shape-type="rectangle" x="563" y="803" width="73" height="24" fill="url(#lgradient80)" stroke="#000000" stroke-width="2.00"/>
<rect shape-type="rectangle" x="641" y="803" width="74" height="24" fill="url(#lgradient81)" stroke="#000000" stroke-width="2.00"/>
<line shape-type="limitline" x1="479" y1="768" x2="234" y2="768" fill="#FFFFFF" stroke="#000000" stroke-width="2.00"/>
<rect shape-type="rectangle" x="795" y="803" width="74" height="24" fill="url(#lgradient83)" stroke="#000000" stroke-width="2.00"/>
<rect shape-type="rectangle" x="872" y="803" width="74" height="24" fill="url(#lgradient84)" stroke="#000000" stroke-width="2.00"/>
<text font-family="宋体" text-anchor="start" fill="#000000" shape-type="text" id="" font-size="12.500000" x="38" y="820">主页</text>
<text font-family="宋体" text-anchor="start" fill="#000000" shape-type="text" id="" font-size="12.500000" x="112" y="821">990总貌</text>
<text font-family="宋体" text-anchor="start" fill="#000000" shape-type="text" id="" font-size="12.500000" x="197" y="819">990-1</text>
<text font-family="宋体" text-anchor="start" fill="#000000" shape-type="text" id="" font-size="12.500000" x="271" y="820">990-2</text>
<text font-family="宋体" text-anchor="start" fill="#000000" shape-type="text" id="" font-size="12.500000" x="349" y="822">990-3</text>
<text font-family="宋体" text-anchor="start" fill="#000000" shape-type="text" id="" font-size="12.500000" x="426" y="820">990-4</text>
<text font-family="宋体" text-anchor="start" fill="#000000" shape-type="text" id="" font-size="12.500000" x="503" y="819">990-5</text>
<text font-family="宋体" text-anchor="start" fill="#000000" shape-type="text" id="" font-size="12.500000" x="582" y="820">990-6</text>
<text font-family="宋体" text-anchor="start" fill="#000000" shape-type="text" id="" font-size="12.500000" x="660" y="820">990-7</text>
<text font-family="宋体" text-anchor="start" fill="#000000" shape-type="text" id="" font-size="12.500000" x="735" y="821">990-8</text>
<text font-family="宋体" text-anchor="start" fill="#000000" shape-type="text" id="" font-size="12.500000" x="815" y="820">990-9</text>
<text font-family="宋体" text-anchor="start" fill="#000000" shape-type="text" id="" font-size="12.500000" x="888" y="819">990-10</text>
<text font-family="宋体" text-anchor="start" fill="#000000" shape-type="text" id="" font-size="44.000000" x="578" y="81">丁烯提浓工段五</text>
<a xlink:href="..\梨树总图.svg">
<g shape-type="button">
<rect fill="#C0C0C0" stroke-width="0.3" stroke="#FFFFFF" x="1385" y="781" width="51" height="29" shape-type="buttonrect"/>
<text font-family="宋体" text-anchor="middle" dominant-baseline="middle" fill="#000000" font-size="13.500000" x="1410" y="801" shape-type="buttontext">返回</text>
</g>
</a>
</svg>