<svg xmlns="http://www.w3.org/2000/svg" xmlns:xlink="http://www.w3.org/1999/xlink" version="1.1" style="background-color:#7DB6C1" width="1062" height="669" viewbox="0 0 1062 669"><defs>
<radialGradient cx="50.000000%" cy="50.000000%" r="50.000000%" fx="50.000000%" fy="50.000000%" id="rgradient1_0">
<stop offset="0%" stop-color="#FFFFFF" stop-opacity="1"/>
<stop offset="100%" stop-color="#2C2C2C" stop-opacity="1"/>
</radialGradient>
<radialGradient cx="50.000000%" cy="50.000000%" r="50.000000%" fx="50.000000%" fy="50.000000%" id="rgradient1_1">
<stop offset="0%" stop-color="#FFFFFF" stop-opacity="1"/>
<stop offset="100%" stop-color="#2C2C2C" stop-opacity="1"/>
</radialGradient>
<linearGradient x1="0.000000%" y1="50.000000%" x2="100.000000%" y2="50.000000%" id="lgradient1_2">
<stop offset="0" stop-color="#2C2C2C" stop-opacity="1"/>
<stop offset="0.5" stop-color="#FFFFFF" stop-opacity="1"/>
<stop offset="1" stop-color="#2C2C2C" stop-opacity="1"/>
</linearGradient>
<radialGradient cx="50.000000%" cy="50.000000%" r="50.000000%" fx="50.000000%" fy="50.000000%" id="rgradient2_0">
<stop offset="0%" stop-color="#FFFFFF" stop-opacity="1"/>
<stop offset="100%" stop-color="#2C2C2C" stop-opacity="1"/>
</radialGradient>
<radialGradient cx="50.000000%" cy="50.000000%" r="50.000000%" fx="50.000000%" fy="50.000000%" id="rgradient2_1">
<stop offset="0%" stop-color="#FFFFFF" stop-opacity="1"/>
<stop offset="100%" stop-color="#2C2C2C" stop-opacity="1"/>
</radialGradient>
<linearGradient x1="0.000000%" y1="50.000000%" x2="100.000000%" y2="50.000000%" id="lgradient2_2">
<stop offset="0" stop-color="#2C2C2C" stop-opacity="1"/>
<stop offset="0.5" stop-color="#FFFFFF" stop-opacity="1"/>
<stop offset="1" stop-color="#2C2C2C" stop-opacity="1"/>
</linearGradient>
<linearGradient x1="0%" y1="40%" x2="100%" y2="60%" id="lgradient3_0_1">
<stop offset="0" stop-color="#2C2C2C" stop-opacity="1"/>
<stop offset="0.5" stop-color="#FFFFFF" stop-opacity="1"/>
<stop offset="1" stop-color="#2C2C2C" stop-opacity="1"/></linearGradient>
<linearGradient x1="0%" y1="60%" x2="100%" y2="40%" id="lgradient3_1_1">
<stop offset="0" stop-color="#2C2C2C" stop-opacity="1"/>
<stop offset="0.5" stop-color="#FFFFFF" stop-opacity="1"/>
<stop offset="1" stop-color="#2C2C2C" stop-opacity="1"/></linearGradient>
<linearGradient x1="0.000000%" y1="50.000000%" x2="100.000000%" y2="50.000000%" id="lgradient3_2_0_0">
<stop offset="0" stop-color="#2C2C2C" stop-opacity="1"/>
<stop offset="0.5" stop-color="#FFFFFF" stop-opacity="1"/>
<stop offset="1" stop-color="#2C2C2C" stop-opacity="1"/>
</linearGradient>
<linearGradient x1="50.000000%" y1="0.000000%" x2="50.000000%" y2="100.000000%" id="lgradient3_2_0_1">
<stop offset="0" stop-color="#2C2C2C" stop-opacity="1"/>
<stop offset="0.5" stop-color="#FFFFFF" stop-opacity="1"/>
<stop offset="1" stop-color="#2C2C2C" stop-opacity="1"/>
</linearGradient>
<radialGradient cx="50.000000%" cy="50.000000%" r="50.000000%" fx="50.000000%" fy="50.000000%" id="rgradient3_2_1_0">
<stop offset="0%" stop-color="#FFFFFF" stop-opacity="1"/>
<stop offset="100%" stop-color="#2C2C2C" stop-opacity="1"/>
</radialGradient>
<linearGradient x1="50.000000%" y1="0.000000%" x2="50.000000%" y2="100.000000%" id="lgradient16_1_0">
<stop offset="0" stop-color="#2C2C2C" stop-opacity="1"/>
<stop offset="0.5" stop-color="#FFFFFF" stop-opacity="1"/>
<stop offset="1" stop-color="#2C2C2C" stop-opacity="1"/>
</linearGradient>
<linearGradient x1="50.000000%" y1="0.000000%" x2="50.000000%" y2="100.000000%" id="lgradient16_1_1">
<stop offset="0" stop-color="#2C2C2C" stop-opacity="1"/>
<stop offset="0.5" stop-color="#FFFFFF" stop-opacity="1"/>
<stop offset="1" stop-color="#2C2C2C" stop-opacity="1"/>
</linearGradient>
<linearGradient x1="0.000000%" y1="50.000000%" x2="100.000000%" y2="50.000000%" id="lgradient20">
<stop offset="0" stop-color="#2C2C2C" stop-opacity="1"/>
<stop offset="0.5" stop-color="#FFFFFF" stop-opacity="1"/>
<stop offset="1" stop-color="#2C2C2C" stop-opacity="1"/>
</linearGradient>
<linearGradient x1="0.000000%" y1="50.000000%" x2="100.000000%" y2="50.000000%" id="lgradient21">
<stop offset="0" stop-color="#2C2C2C" stop-opacity="1"/>
<stop offset="0.5" stop-color="#FFFFFF" stop-opacity="1"/>
<stop offset="1" stop-color="#2C2C2C" stop-opacity="1"/>
</linearGradient>
<linearGradient x1="0.000000%" y1="50.000000%" x2="100.000000%" y2="50.000000%" id="lgradient24_1_0">
<stop offset="0" stop-color="#2C2C2C" stop-opacity="1"/>
<stop offset="0.5" stop-color="#FFFFFF" stop-opacity="1"/>
<stop offset="1" stop-color="#2C2C2C" stop-opacity="1"/>
</linearGradient>
<linearGradient x1="0.000000%" y1="50.000000%" x2="100.000000%" y2="50.000000%" id="lgradient24_1_1">
<stop offset="0" stop-color="#2C2C2C" stop-opacity="1"/>
<stop offset="0.5" stop-color="#FFFFFF" stop-opacity="1"/>
<stop offset="1" stop-color="#2C2C2C" stop-opacity="1"/>
</linearGradient>
<linearGradient x1="0%" y1="40%" x2="100%" y2="60%" id="lgradient31_0_1">
<stop offset="0" stop-color="#2C2C2C" stop-opacity="1"/>
<stop offset="0.5" stop-color="#FFFFFF" stop-opacity="1"/>
<stop offset="1" stop-color="#2C2C2C" stop-opacity="1"/></linearGradient>
<linearGradient x1="0%" y1="60%" x2="100%" y2="40%" id="lgradient31_1_1">
<stop offset="0" stop-color="#2C2C2C" stop-opacity="1"/>
<stop offset="0.5" stop-color="#FFFFFF" stop-opacity="1"/>
<stop offset="1" stop-color="#2C2C2C" stop-opacity="1"/></linearGradient>
<linearGradient x1="0.000000%" y1="50.000000%" x2="100.000000%" y2="50.000000%" id="lgradient31_2_0_0">
<stop offset="0" stop-color="#2C2C2C" stop-opacity="1"/>
<stop offset="0.5" stop-color="#FFFFFF" stop-opacity="1"/>
<stop offset="1" stop-color="#2C2C2C" stop-opacity="1"/>
</linearGradient>
<linearGradient x1="50.000000%" y1="0.000000%" x2="50.000000%" y2="100.000000%" id="lgradient31_2_0_1">
<stop offset="0" stop-color="#2C2C2C" stop-opacity="1"/>
<stop offset="0.5" stop-color="#FFFFFF" stop-opacity="1"/>
<stop offset="1" stop-color="#2C2C2C" stop-opacity="1"/>
</linearGradient>
<radialGradient cx="50.000000%" cy="50.000000%" r="50.000000%" fx="50.000000%" fy="50.000000%" id="rgradient31_2_1_0">
<stop offset="0%" stop-color="#FFFFFF" stop-opacity="1"/>
<stop offset="100%" stop-color="#2C2C2C" stop-opacity="1"/>
</radialGradient>
<linearGradient x1="0%" y1="40%" x2="100%" y2="60%" id="lgradient32_0_1">
<stop offset="0" stop-color="#2C2C2C" stop-opacity="1"/>
<stop offset="0.5" stop-color="#FFFFFF" stop-opacity="1"/>
<stop offset="1" stop-color="#2C2C2C" stop-opacity="1"/></linearGradient>
<linearGradient x1="0%" y1="60%" x2="100%" y2="40%" id="lgradient32_1_1">
<stop offset="0" stop-color="#2C2C2C" stop-opacity="1"/>
<stop offset="0.5" stop-color="#FFFFFF" stop-opacity="1"/>
<stop offset="1" stop-color="#2C2C2C" stop-opacity="1"/></linearGradient>
<linearGradient x1="0.000000%" y1="50.000000%" x2="100.000000%" y2="50.000000%" id="lgradient32_2_0_0">
<stop offset="0" stop-color="#2C2C2C" stop-opacity="1"/>
<stop offset="0.5" stop-color="#FFFFFF" stop-opacity="1"/>
<stop offset="1" stop-color="#2C2C2C" stop-opacity="1"/>
</linearGradient>
<linearGradient x1="50.000000%" y1="0.000000%" x2="50.000000%" y2="100.000000%" id="lgradient32_2_0_1">
<stop offset="0" stop-color="#2C2C2C" stop-opacity="1"/>
<stop offset="0.5" stop-color="#FFFFFF" stop-opacity="1"/>
<stop offset="1" stop-color="#2C2C2C" stop-opacity="1"/>
</linearGradient>
<radialGradient cx="50.000000%" cy="50.000000%" r="50.000000%" fx="50.000000%" fy="50.000000%" id="rgradient32_2_1_0">
<stop offset="0%" stop-color="#FFFFFF" stop-opacity="1"/>
<stop offset="100%" stop-color="#2C2C2C" stop-opacity="1"/>
</radialGradient>
<linearGradient x1="0.000000%" y1="50.000000%" x2="100.000000%" y2="50.000000%" id="lgradient41_1_0">
<stop offset="0" stop-color="#2C2C2C" stop-opacity="1"/>
<stop offset="0.5" stop-color="#FFFFFF" stop-opacity="1"/>
<stop offset="1" stop-color="#2C2C2C" stop-opacity="1"/>
</linearGradient>
<linearGradient x1="0.000000%" y1="50.000000%" x2="100.000000%" y2="50.000000%" id="lgradient41_1_1">
<stop offset="0" stop-color="#2C2C2C" stop-opacity="1"/>
<stop offset="0.5" stop-color="#FFFFFF" stop-opacity="1"/>
<stop offset="1" stop-color="#2C2C2C" stop-opacity="1"/>
</linearGradient>
<linearGradient x1="0.000000%" y1="50.000000%" x2="100.000000%" y2="50.000000%" id="lgradient46_1_0">
<stop offset="0" stop-color="#2C2C2C" stop-opacity="1"/>
<stop offset="0.5" stop-color="#FFFFFF" stop-opacity="1"/>
<stop offset="1" stop-color="#2C2C2C" stop-opacity="1"/>
</linearGradient>
<linearGradient x1="0.000000%" y1="50.000000%" x2="100.000000%" y2="50.000000%" id="lgradient46_1_1">
<stop offset="0" stop-color="#2C2C2C" stop-opacity="1"/>
<stop offset="0.5" stop-color="#FFFFFF" stop-opacity="1"/>
<stop offset="1" stop-color="#2C2C2C" stop-opacity="1"/>
</linearGradient>
<radialGradient cx="50.000000%" cy="50.000000%" r="50.000000%" fx="50.000000%" fy="50.000000%" id="rgradient47_0">
<stop offset="0%" stop-color="#FFFFFF" stop-opacity="1"/>
<stop offset="100%" stop-color="#2C2C2C" stop-opacity="1"/>
</radialGradient>
<radialGradient cx="50.000000%" cy="50.000000%" r="50.000000%" fx="50.000000%" fy="50.000000%" id="rgradient47_1">
<stop offset="0%" stop-color="#FFFFFF" stop-opacity="1"/>
<stop offset="100%" stop-color="#2C2C2C" stop-opacity="1"/>
</radialGradient>
<linearGradient x1="0.000000%" y1="50.000000%" x2="100.000000%" y2="50.000000%" id="lgradient47_2">
<stop offset="0" stop-color="#2C2C2C" stop-opacity="1"/>
<stop offset="0.5" stop-color="#FFFFFF" stop-opacity="1"/>
<stop offset="1" stop-color="#2C2C2C" stop-opacity="1"/>
</linearGradient>
<radialGradient cx="50.000000%" cy="50.000000%" r="50.000000%" fx="50.000000%" fy="50.000000%" id="rgradient48_0">
<stop offset="0%" stop-color="#FFFFFF" stop-opacity="1"/>
<stop offset="100%" stop-color="#2C2C2C" stop-opacity="1"/>
</radialGradient>
<radialGradient cx="50.000000%" cy="50.000000%" r="50.000000%" fx="50.000000%" fy="50.000000%" id="rgradient48_1">
<stop offset="0%" stop-color="#FFFFFF" stop-opacity="1"/>
<stop offset="100%" stop-color="#2C2C2C" stop-opacity="1"/>
</radialGradient>
<linearGradient x1="0.000000%" y1="50.000000%" x2="100.000000%" y2="50.000000%" id="lgradient48_2">
<stop offset="0" stop-color="#2C2C2C" stop-opacity="1"/>
<stop offset="0.5" stop-color="#FFFFFF" stop-opacity="1"/>
<stop offset="1" stop-color="#2C2C2C" stop-opacity="1"/>
</linearGradient>
<linearGradient x1="0.000000%" y1="50.000000%" x2="100.000000%" y2="50.000000%" id="lgradient66_1_0">
<stop offset="0" stop-color="#2C2C2C" stop-opacity="1"/>
<stop offset="0.5" stop-color="#FFFFFF" stop-opacity="1"/>
<stop offset="1" stop-color="#2C2C2C" stop-opacity="1"/>
</linearGradient>
<linearGradient x1="0.000000%" y1="50.000000%" x2="100.000000%" y2="50.000000%" id="lgradient66_1_1">
<stop offset="0" stop-color="#2C2C2C" stop-opacity="1"/>
<stop offset="0.5" stop-color="#FFFFFF" stop-opacity="1"/>
<stop offset="1" stop-color="#2C2C2C" stop-opacity="1"/>
</linearGradient>
</defs>
<g shape-type="group">
<ellipse shape-type="ellipse" cx="217" cy="260" rx="41" ry="26" fill="url(#rgradient1_0)" stroke="#000000" stroke-width="1.00"/>
<ellipse shape-type="ellipse" cx="217" cy="416" rx="41" ry="26" fill="url(#rgradient1_1)" stroke="#000000" stroke-width="1.00"/>
<rect shape-type="rectangle" x="175" y="258" width="83" height="163" fill="url(#lgradient1_2)" stroke="#000000" stroke-width="1.00"/>
</g>
<g shape-type="group">
<ellipse shape-type="ellipse" cx="506" cy="259" rx="41" ry="26" fill="url(#rgradient2_0)" stroke="#000000" stroke-width="1.00"/>
<ellipse shape-type="ellipse" cx="506" cy="415" rx="41" ry="26" fill="url(#rgradient2_1)" stroke="#000000" stroke-width="1.00"/>
<rect shape-type="rectangle" x="464" y="257" width="83" height="163" fill="url(#lgradient2_2)" stroke="#000000" stroke-width="1.00"/>
</g>
<g shape-type="group">
<g shape-type="group">
<rect shape-type="rectangle" x="52" y="633" width="27" height="7" fill="#808080" stroke="#000000" stroke-width="1.00"/>
<polygon shape-type="parallel" points="78,632 64,632 69,614 83,614 78,632" fill="url(#lgradient3_0_1)" stroke="#000000" stroke-width="1.00"/>
</g>
<g shape-type="group">
<rect shape-type="rectangle" x="83" y="633" width="30" height="7" fill="#808080" stroke="#000000" stroke-width="1.00"/>
<polygon shape-type="parallel" points="84,632 99,632 93,611 78,611 84,632" fill="url(#lgradient3_1_1)" stroke="#000000" stroke-width="1.00"/>
</g>
<g shape-type="group">
<g shape-type="group">
<rect shape-type="rectangle" x="81" y="590" width="13" height="23" fill="url(#lgradient3_2_0_0)" stroke="#000000" stroke-width="1.00"/>
<rect shape-type="rectangle" x="77" y="584" width="22" height="7" fill="url(#lgradient3_2_0_1)" stroke="#000000" stroke-width="1.00"/>
</g>
<g shape-type="group">
<ellipse shape-type="ellipse" cx="82" cy="613" rx="16" ry="16" fill="url(#rgradient3_2_1_0)" stroke="#000000" stroke-width="1.00"/>
<ellipse shape-type="ellipse" cx="82" cy="612" rx="12" ry="11" fill="#FF0000" stroke="#000000" stroke-width="1.00"/>
</g>
</g>
</g>
<line shape-type="limitline" x1="89" y1="585" x2="89" y2="79" fill="#FFFFFF" stroke="#000000" stroke-width="1.00"/>
<line shape-type="limitline" x1="208" y1="80" x2="90" y2="80" fill="#FFFFFF" stroke="#000000" stroke-width="1.00"/>
<line shape-type="limitline" x1="208" y1="236" x2="208" y2="80" fill="#FFFFFF" stroke="#000000" stroke-width="1.00"/>
<line shape-type="limitline" x1="474" y1="146" x2="209" y2="146" fill="#FFFFFF" stroke="#000000" stroke-width="1.00"/>
<line shape-type="limitline" x1="475" y1="247" x2="475" y2="146" fill="#FFFFFF" stroke="#000000" stroke-width="1.00"/>
<line shape-type="limitline" x1="218" y1="236" x2="218" y2="152" fill="#FFFFFF" stroke="#000000" stroke-width="1.00"/>
<line shape-type="limitline" x1="218" y1="139" x2="218" y2="116" fill="#FFFFFF" stroke="#000000" stroke-width="1.00"/>
<line shape-type="limitline" x1="502" y1="117" x2="218" y2="117" fill="#FFFFFF" stroke="#000000" stroke-width="1.00"/>
<line shape-type="limitline" x1="501" y1="232" x2="501" y2="118" fill="#FFFFFF" stroke="#000000" stroke-width="1.00"/>
<line shape-type="limitline" x1="432" y1="117" x2="432" y2="48" fill="#FFFFFF" stroke="#000000" stroke-width="1.00"/>
<line shape-type="limitline" x1="601" y1="48" x2="432" y2="48" fill="#FFFFFF" stroke="#000000" stroke-width="1.00"/>
<polygon shape-type="trapezium" points="602,40 602,56 619,48 619,48 602,40" stroke="#000000" stroke-width="1.00"/>
<g shape-type="group">
<line shape-type="limitline" x1="433" y1="88" x2="451" y2="89" fill="#FFFFFF" stroke="#808080" stroke-width="3.00"/>
<g shape-type="group">
<polygon shape-type="trapezium" points="425,72 441,72 433,87 433,87 425,72" fill="url(#lgradient16_1_0)" stroke="#000000" stroke-width="1.00"/>
<polygon shape-type="trapezium" points="440,104 425,104 433,87 433,87 440,104" fill="url(#lgradient16_1_1)" stroke="#000000" stroke-width="1.00"/>
</g>
<path shape-type="chord" d="M 450,104 A 18,17 0 1,0 450,76 z" fill="#808080" stroke="#000000" stroke-width="2.00"/>
</g>
<line shape-type="limitline" x1="441" y1="613" x2="95" y2="613" fill="#FFFFFF" stroke="#000000" stroke-width="2.00"/>
<g shape-type="group">
<line shape-type="limitline" x1="501" y1="438" x2="500" y2="494" fill="#FFFFFF" stroke="#000000" stroke-width="2.00"/>
<line shape-type="limitline" x1="500" y1="494" x2="443" y2="495" fill="#FFFFFF" stroke="#000000" stroke-width="2.00"/>
<line shape-type="limitline" x1="442" y1="614" x2="441" y2="494" fill="#FFFFFF" stroke="#000000" stroke-width="2.00"/>
</g>
<g shape-type="group">
<line shape-type="limitline" x1="217" y1="439" x2="216" y2="495" fill="#FFFFFF" stroke="#000000" stroke-width="2.00"/>
<line shape-type="limitline" x1="216" y1="495" x2="158" y2="496" fill="#FFFFFF" stroke="#000000" stroke-width="2.00"/>
<line shape-type="limitline" x1="158" y1="615" x2="157" y2="495" fill="#FFFFFF" stroke="#000000" stroke-width="2.00"/>
</g>
<rect shape-type="roundRectangle" rx="20" ry="20" x="819" y="140" width="122" height="295" fill="url(#lgradient20)" stroke="#000000" stroke-width="2.00"/>
<rect shape-type="roundRectangle" rx="20" ry="20" x="1067" y="408" width="90" height="193" fill="url(#lgradient21)" stroke="#000000" stroke-width="2.00"/>
<line shape-type="limitline" x1="878" y1="509" x2="878" y2="434" fill="#FFFFFF" stroke="#000000" stroke-width="2.00"/>
<line shape-type="limitline" x1="1068" y1="510" x2="878" y2="510" fill="#FFFFFF" stroke="#000000" stroke-width="2.00"/>
<g shape-type="group">
<line shape-type="limitline" x1="961" y1="509" x2="960" y2="493" fill="#FFFFFF" stroke="#808080" stroke-width="3.00"/>
<g shape-type="group">
<polygon shape-type="trapezium" points="945,503 945,518 960,511 960,511 945,503" fill="url(#lgradient24_1_0)" stroke="#000000" stroke-width="1.00"/>
<polygon shape-type="trapezium" points="977,518 977,503 960,510 960,510 977,518" fill="url(#lgradient24_1_1)" stroke="#000000" stroke-width="1.00"/>
</g>
<path shape-type="chord" d="M 977,493 A 17,17 0 0,0 949,493 z" fill="#808080" stroke="#000000" stroke-width="2.00"/>
</g>
<line shape-type="limitline" x1="1111" y1="409" x2="1111" y2="373" fill="#FFFFFF" stroke="#000000" stroke-width="2.00"/>
<line shape-type="limitline" x1="1474" y1="372" x2="1111" y2="372" fill="#FFFFFF" stroke="#000000" stroke-width="2.00"/>
<rect shape-type="rectangle" x="533" y="258" width="14" height="161" fill="#FFFFFF" stroke="#000000" stroke-width="2.00"/>
<rect shape-type="rectangle" x="245" y="259" width="14" height="161" fill="#FFFFFF" stroke="#000000" stroke-width="2.00"/>
<rect shape-type="rectangle" x="819" y="200" width="15" height="75" fill="#FFFFFF" stroke="#000000" stroke-width="2.00"/>
<rect shape-type="rectangle" x="1143" y="457" width="14" height="85" fill="#FFFFFF" stroke="#000000" stroke-width="2.00"/>
<g shape-type="group">
<g shape-type="group">
<rect shape-type="rectangle" x="1171" y="692" width="28" height="6" fill="#808080" stroke="#000000" stroke-width="1.00"/>
<polygon shape-type="parallel" points="1198,691 1183,691 1188,671 1203,671 1198,691" fill="url(#lgradient31_0_1)" stroke="#000000" stroke-width="1.00"/>
</g>
<g shape-type="group">
<rect shape-type="rectangle" x="1203" y="691" width="29" height="7" fill="#808080" stroke="#000000" stroke-width="1.00"/>
<polygon shape-type="parallel" points="1204,690 1219,690 1213,669 1198,669 1204,690" fill="url(#lgradient31_1_1)" stroke="#000000" stroke-width="1.00"/>
</g>
<g shape-type="group">
<g shape-type="group">
<rect shape-type="rectangle" x="1201" y="647" width="13" height="23" fill="url(#lgradient31_2_0_0)" stroke="#000000" stroke-width="1.00"/>
<rect shape-type="rectangle" x="1197" y="642" width="22" height="6" fill="url(#lgradient31_2_0_1)" stroke="#000000" stroke-width="1.00"/>
</g>
<g shape-type="group">
<ellipse shape-type="ellipse" cx="1201" cy="670" rx="17" ry="16" fill="url(#rgradient31_2_1_0)" stroke="#000000" stroke-width="1.00"/>
<ellipse shape-type="ellipse" cx="1201" cy="669" rx="12" ry="11" fill="#FF0000" stroke="#000000" stroke-width="1.00"/>
</g>
</g>
</g>
<g shape-type="group">
<g shape-type="group">
<rect shape-type="rectangle" x="1286" y="692" width="27" height="6" fill="#808080" stroke="#000000" stroke-width="1.00"/>
<polygon shape-type="parallel" points="1312,691 1298,691 1303,671 1317,671 1312,691" fill="url(#lgradient32_0_1)" stroke="#000000" stroke-width="1.00"/>
</g>
<g shape-type="group">
<rect shape-type="rectangle" x="1318" y="691" width="28" height="7" fill="#808080" stroke="#000000" stroke-width="1.00"/>
<polygon shape-type="parallel" points="1318,690 1333,690 1328,669 1313,669 1318,690" fill="url(#lgradient32_1_1)" stroke="#000000" stroke-width="1.00"/>
</g>
<g shape-type="group">
<g shape-type="group">
<rect shape-type="rectangle" x="1315" y="647" width="12" height="23" fill="url(#lgradient32_2_0_0)" stroke="#000000" stroke-width="1.00"/>
<rect shape-type="rectangle" x="1310" y="642" width="22" height="6" fill="url(#lgradient32_2_0_1)" stroke="#000000" stroke-width="1.00"/>
</g>
<g shape-type="group">
<ellipse shape-type="ellipse" cx="1315" cy="670" rx="16" ry="16" fill="url(#rgradient32_2_1_0)" stroke="#000000" stroke-width="1.00"/>
<ellipse shape-type="ellipse" cx="1314" cy="669" rx="12" ry="11" fill="#FF0000" stroke="#000000" stroke-width="1.00"/>
</g>
</g>
</g>
<line shape-type="limitline" x1="1115" y1="719" x2="1115" y2="601" fill="#FFFFFF" stroke="#000000" stroke-width="2.00"/>
<line shape-type="limitline" x1="1268" y1="718" x2="1115" y2="718" fill="#FFFFFF" stroke="#000000" stroke-width="2.00"/>
<line shape-type="limitline" x1="1267" y1="670" x2="1267" y2="718" fill="#FFFFFF" stroke="#000000" stroke-width="2.00"/>
<line shape-type="limitline" x1="1300" y1="669" x2="1266" y2="669" fill="#FFFFFF" stroke="#000000" stroke-width="2.00"/>
<line shape-type="limitline" x1="1184" y1="671" x2="1115" y2="671" fill="#FFFFFF" stroke="#000000" stroke-width="2.00"/>
<line shape-type="limitline" x1="1209" y1="641" x2="1209" y2="616" fill="#FFFFFF" stroke="#000000" stroke-width="2.00"/>
<line shape-type="limitline" x1="1478" y1="616" x2="1210" y2="616" fill="#FFFFFF" stroke="#000000" stroke-width="2.00"/>
<line shape-type="limitline" x1="1323" y1="641" x2="1323" y2="615" fill="#FFFFFF" stroke="#000000" stroke-width="2.00"/>
<g shape-type="group">
<line shape-type="limitline" x1="1424" y1="614" x2="1423" y2="596" fill="#FFFFFF" stroke="#808080" stroke-width="3.00"/>
<g shape-type="group">
<polygon shape-type="trapezium" points="1408,606 1408,622 1424,614 1424,614 1408,606" fill="url(#lgradient41_1_0)" stroke="#000000" stroke-width="1.00"/>
<polygon shape-type="trapezium" points="1440,622 1440,607 1424,614 1424,614 1440,622" fill="url(#lgradient41_1_1)" stroke="#000000" stroke-width="1.00"/>
</g>
<path shape-type="chord" d="M 1440,597 A 17,17 0 0,0 1412,597 z" fill="#808080" stroke="#000000" stroke-width="2.00"/>
</g>
<polygon shape-type="trapezium" points="1478,608 1478,624 1495,616 1495,616 1478,608" stroke="#000000" stroke-width="1.00"/>
<line shape-type="limitline" x1="1479" y1="240" x2="941" y2="240" fill="#FFFFFF" stroke="#000000" stroke-width="2.00"/>
<g shape-type="group">
<rect shape-type="rectangle" x="1452" y="238" width="39" height="3" stroke="#000000" stroke-width="2.00"/>
<polygon shape-type="trapezium" points="1457,246 1457,234 1445,240 1445,240 1457,246" stroke="#000000" stroke-width="1.00"/>
</g>
<polygon shape-type="trapezium" points="1475,364 1475,380 1492,372 1492,372 1475,364" stroke="#000000" stroke-width="1.00"/>
<g shape-type="group">
<line shape-type="limitline" x1="1072" y1="239" x2="1071" y2="221" fill="#FFFFFF" stroke="#808080" stroke-width="3.00"/>
<g shape-type="group">
<polygon shape-type="trapezium" points="1056,231 1056,247 1072,239 1072,239 1056,231" fill="url(#lgradient46_1_0)" stroke="#000000" stroke-width="1.00"/>
<polygon shape-type="trapezium" points="1088,247 1088,232 1072,239 1072,239 1088,247" fill="url(#lgradient46_1_1)" stroke="#000000" stroke-width="1.00"/>
</g>
<path shape-type="chord" d="M 1088,222 A 17,17 0 0,0 1060,222 z" fill="#808080" stroke="#000000" stroke-width="2.00"/>
</g>
<g shape-type="group">
<ellipse shape-type="ellipse" cx="1251" cy="91" rx="16" ry="8" fill="url(#rgradient47_0)" stroke="#000000" stroke-width="2.00"/>
<ellipse shape-type="ellipse" cx="1251" cy="162" rx="16" ry="9" fill="url(#rgradient47_1)" stroke="#000000" stroke-width="2.00"/>
<rect shape-type="rectangle" x="1235" y="90" width="33" height="73" fill="url(#lgradient47_2)" stroke="#000000" stroke-width="2.00"/>
<ellipse shape-type="ellipse" cx="1267" cy="97" rx="0" ry="0" fill="#FFFFFF" stroke="#000000" stroke-width="2.00"/>
</g>
<g shape-type="group">
<ellipse shape-type="ellipse" cx="1354" cy="74" rx="22" ry="11" fill="url(#rgradient48_0)" stroke="#000000" stroke-width="2.00"/>
<ellipse shape-type="ellipse" cx="1354" cy="164" rx="22" ry="11" fill="url(#rgradient48_1)" stroke="#000000" stroke-width="2.00"/>
<rect shape-type="rectangle" x="1332" y="73" width="45" height="93" fill="url(#lgradient48_2)" stroke="#000000" stroke-width="2.00"/>
<ellipse shape-type="ellipse" cx="1376" cy="80" rx="0" ry="1" fill="#FFFFFF" stroke="#000000" stroke-width="2.00"/>
</g>
<line shape-type="limitline" x1="1078" y1="193" x2="939" y2="193" fill="#FFFFFF" stroke="#000000" stroke-width="2.00"/>
<line shape-type="limitline" x1="1077" y1="126" x2="1077" y2="193" fill="#FFFFFF" stroke="#000000" stroke-width="2.00"/>
<line shape-type="limitline" x1="1234" y1="125" x2="1077" y2="125" fill="#FFFFFF" stroke="#000000" stroke-width="2.00"/>
<line shape-type="limitline" x1="1252" y1="68" x2="1252" y2="82" fill="#FFFFFF" stroke="#000000" stroke-width="2.00"/>
<line shape-type="limitline" x1="1300" y1="69" x2="1252" y2="69" fill="#FFFFFF" stroke="#000000" stroke-width="2.00"/>
<line shape-type="limitline" x1="1301" y1="193" x2="1301" y2="69" fill="#FFFFFF" stroke="#000000" stroke-width="2.00"/>
<line shape-type="limitline" x1="1357" y1="193" x2="1301" y2="193" fill="#FFFFFF" stroke="#000000" stroke-width="2.00"/>
<line shape-type="limitline" x1="1357" y1="175" x2="1357" y2="193" fill="#FFFFFF" stroke="#000000" stroke-width="2.00"/>
<line shape-type="limitline" x1="1365" y1="193" x2="1365" y2="172" fill="#FFFFFF" stroke="#000000" stroke-width="2.00"/>
<line shape-type="limitline" x1="1482" y1="194" x2="1365" y2="194" fill="#FFFFFF" stroke="#000000" stroke-width="2.00"/>
<polygon shape-type="trapezium" points="1479,185 1479,201 1496,193 1496,193 1479,185" stroke="#000000" stroke-width="1.00"/>
<rect shape-type="rectangle" x="1364" y="96" width="14" height="69" fill="#FFFFFF" stroke="#000000" stroke-width="2.00"/>
<g shape-type="group">
<rect shape-type="rectangle" x="261" y="363" width="71" height="17" fill="#008080" stroke="#000000" stroke-width="2.00"/>
<rect shape-type="rectangle" x="261" y="379" width="71" height="18" fill="#008080" stroke="#000000" stroke-width="2.00"/>
</g>
<g shape-type="group">
<rect shape-type="rectangle" x="509" y="189" width="71" height="18" fill="#008080" stroke="#FF0000" stroke-width="2.00"/>
<rect shape-type="rectangle" x="509" y="206" width="71" height="18" fill="#008080" stroke="#FF0000" stroke-width="2.00"/>
</g>
<g shape-type="group">
<rect shape-type="rectangle" x="555" y="378" width="71" height="18" fill="#008080" stroke="#000000" stroke-width="2.00"/>
<rect shape-type="rectangle" x="555" y="395" width="71" height="18" fill="#008080" stroke="#000000" stroke-width="2.00"/>
</g>
<g shape-type="group">
<rect shape-type="rectangle" x="915" y="99" width="71" height="19" fill="#008080" stroke="#FFFF00" stroke-width="2.00"/>
<rect shape-type="rectangle" x="915" y="117" width="71" height="17" fill="#008080" stroke="#FFFF00" stroke-width="2.00"/>
</g>
<g shape-type="group">
<rect shape-type="rectangle" x="740" y="182" width="71" height="18" fill="#008080" stroke="#FFFF00" stroke-width="2.00"/>
<rect shape-type="rectangle" x="740" y="199" width="71" height="18" fill="#008080" stroke="#FFFF00" stroke-width="2.00"/>
</g>
<g shape-type="group">
<line shape-type="limitline" x1="1034" y1="192" x2="1033" y2="174" fill="#FFFFFF" stroke="#808080" stroke-width="3.00"/>
<g shape-type="group">
<polygon shape-type="trapezium" points="1018,186 1018,200 1033,193 1033,193 1018,186" fill="url(#lgradient66_1_0)" stroke="#000000" stroke-width="1.00"/>
<polygon shape-type="trapezium" points="1050,200 1050,186 1033,193 1033,193 1050,200" fill="url(#lgradient66_1_1)" stroke="#000000" stroke-width="1.00"/>
</g>
<path shape-type="chord" d="M 1050,175 A 17,17 0 0,0 1022,175 z" fill="#808080" stroke="#000000" stroke-width="2.00"/>
</g>
<g shape-type="group">
<rect shape-type="rectangle" x="1139" y="84" width="71" height="17" fill="#008080" stroke="#000000" stroke-width="2.00"/>
<rect shape-type="rectangle" x="1139" y="100" width="71" height="18" fill="#008080" stroke="#000000" stroke-width="2.00"/>
</g>
<g shape-type="group">
<rect shape-type="rectangle" x="1131" y="195" width="71" height="19" fill="#008080" stroke="#000000" stroke-width="2.00"/>
<rect shape-type="rectangle" x="1131" y="213" width="71" height="17" fill="#008080" stroke="#000000" stroke-width="2.00"/>
</g>
<g shape-type="group">
<rect shape-type="rectangle" x="1332" y="197" width="71" height="19" fill="#008080" stroke="#000000" stroke-width="2.00"/>
<rect shape-type="rectangle" x="1332" y="215" width="71" height="18" fill="#008080" stroke="#000000" stroke-width="2.00"/>
</g>
<g shape-type="group">
<rect shape-type="rectangle" x="1383" y="97" width="71" height="19" fill="#008080" stroke="#000000" stroke-width="2.00"/>
<rect shape-type="rectangle" x="1383" y="115" width="71" height="18" fill="#008080" stroke="#000000" stroke-width="2.00"/>
</g>
<g shape-type="group">
<rect shape-type="rectangle" x="1165" y="514" width="71" height="19" fill="#008080" stroke="#000000" stroke-width="2.00"/>
<rect shape-type="rectangle" x="1165" y="532" width="71" height="17" fill="#008080" stroke="#000000" stroke-width="2.00"/>
</g>
<g shape-type="group">
<rect shape-type="rectangle" x="1293" y="569" width="71" height="19" fill="#008080" stroke="#000000" stroke-width="2.00"/>
<rect shape-type="rectangle" x="1293" y="587" width="71" height="17" fill="#008080" stroke="#000000" stroke-width="2.00"/>
</g>
<text font-family="宋体" text-anchor="start" fill="#000000" shape-type="text" id="" font-size="12.500000" x="269" y="376">LT</text>
<text font-family="宋体" text-anchor="start" fill="#000000" shape-type="text" id="" font-size="12.500000" x="560" y="392">LT</text>
<text font-family="宋体" text-anchor="start" fill="#000000" shape-type="text" id="" font-size="12.500000" x="1171" y="528">LT</text>
<text font-family="宋体" text-anchor="start" fill="#000000" shape-type="text" id="" font-size="12.500000" x="1390" y="111">LT</text>
<text font-family="宋体" text-anchor="start" fill="#000000" shape-type="text" id="" font-size="12.500000" x="557" y="42">RH</text>
<text font-family="宋体" text-anchor="start" fill="#000000" shape-type="text" id="" font-size="12.500000" x="514" y="203">PLC</text>
<text font-family="宋体" text-anchor="start" fill="#000000" shape-type="text" id="" font-size="12.500000" x="748" y="195">XLIC</text>
<text font-family="宋体" text-anchor="start" fill="#000000" shape-type="text" id="" font-size="12.500000" x="916" y="114">PLC</text>
<text font-family="宋体" text-anchor="start" fill="#000000" shape-type="text" id="" font-size="12.500000" x="1139" y="96">PDT</text>
<text font-family="宋体" text-anchor="start" fill="#000000" shape-type="text" id="" font-size="12.500000" x="1338" y="212">PDT</text>
<text font-family="宋体" text-anchor="start" fill="#000000" shape-type="text" id="" font-size="12.500000" x="1136" y="208">FIC</text>
<text font-family="宋体" text-anchor="start" fill="#000000" shape-type="text" id="" font-size="12.500000" x="1299" y="585">FIC</text>
<text font-family="宋体" text-anchor="start" fill="#000000" shape-type="text" id="" font-size="12.500000" x="304" y="393">%</text>
<text font-family="宋体" text-anchor="start" fill="#000000" shape-type="text" id="" font-size="12.500000" x="542" y="218">Kpa</text>
<text font-family="宋体" text-anchor="start" fill="#000000" shape-type="text" id="" font-size="12.500000" x="591" y="409">%</text>
<text font-family="宋体" text-anchor="start" fill="#000000" shape-type="text" id="" font-size="12.500000" x="1170" y="113">Kpa</text>
<text font-family="宋体" text-anchor="start" fill="#000000" shape-type="text" id="" font-size="12.500000" x="777" y="213">%</text>
<text font-family="宋体" text-anchor="start" fill="#000000" shape-type="text" id="" font-size="12.500000" x="1325" y="599">kg/h</text>
<text font-family="宋体" text-anchor="start" fill="#000000" shape-type="text" id="" font-size="12.500000" x="1203" y="547">%</text>
<text font-family="宋体" text-anchor="start" fill="#000000" shape-type="text" id="" font-size="12.500000" x="1154" y="227">kg/h</text>
<text font-family="宋体" text-anchor="start" fill="#000000" shape-type="text" id="" font-size="12.500000" x="1364" y="228">Kpa</text>
<text font-family="宋体" text-anchor="start" fill="#000000" shape-type="text" id="" font-size="12.500000" x="1418" y="130">%</text>
<text font-family="宋体" text-anchor="start" fill="#000000" shape-type="text" id="" font-size="12.500000" x="940" y="130">Mpa</text>
<text font-family="宋体" text-anchor="start" fill="#000000" shape-type="text" id="" font-size="18.500000" x="179" y="330">V-005A</text>
<text font-family="宋体" text-anchor="start" fill="#000000" shape-type="text" id="" font-size="21.500000" x="465" y="337">v-005B</text>
<text font-family="宋体" text-anchor="start" fill="#000000" shape-type="text" id="" font-size="25.250000" x="845" y="302">V-056</text>
<text font-family="宋体" text-anchor="start" fill="#000000" shape-type="text" id="" font-size="27.500000" x="1078" y="505">V-057</text>
<text font-family="宋体" text-anchor="start" fill="#000000" shape-type="text" id="" font-size="12.500000" x="1233" y="189">FT-002</text>
<text font-family="宋体" text-anchor="start" fill="#000000" shape-type="text" id="" font-size="12.500000" x="1338" y="91">X-002</text>
<line shape-type="limitline" x1="542" y1="90" x2="457" y2="90" fill="#FFFFFF" stroke="#808080" stroke-width="2.00" stroke-dasharray="5 10"/>
<line shape-type="limitline" x1="543" y1="190" x2="543" y2="90" fill="#FFFFFF" stroke="#808080" stroke-width="2.00" stroke-dasharray="5 10"/>
<line shape-type="limitline" x1="788" y1="483" x2="788" y2="220" fill="#FFFFFF" stroke="#808080" stroke-width="2.00" stroke-dasharray="5 10"/>
<line shape-type="limitline" x1="960" y1="485" x2="788" y2="485" fill="#FFFFFF" stroke="#808080" stroke-width="2.00" stroke-dasharray="5 10"/>
<line shape-type="limitline" x1="922" y1="157" x2="922" y2="134" fill="#FFFFFF" stroke="#808080" stroke-width="2.00" stroke-dasharray="5 10"/>
<line shape-type="limitline" x1="1035" y1="120" x2="983" y2="120" fill="#FFFFFF" stroke="#808080" stroke-width="2.00" stroke-dasharray="5 10"/>
<line shape-type="limitline" x1="1035" y1="170" x2="1035" y2="120" fill="#FFFFFF" stroke="#808080" stroke-width="2.00" stroke-dasharray="5 10"/>
<line shape-type="limitline" x1="1131" y1="215" x2="1080" y2="215" fill="#FFFFFF" stroke="#808080" stroke-width="2.00" stroke-dasharray="5 10"/>
<line shape-type="limitline" x1="1422" y1="588" x2="1361" y2="588" fill="#FFFFFF" stroke="#808080" stroke-width="2.00" stroke-dasharray="5 10"/>
<text font-family="宋体" text-anchor="start" fill="#000000" shape-type="text" id="" font-size="12.500000" x="57" y="655">P-006</text>
<text font-family="宋体" text-anchor="start" fill="#000000" shape-type="text" id="" font-size="12.500000" x="1181" y="712">P-016A</text>
<text font-family="宋体" text-anchor="start" fill="#000000" shape-type="text" id="" font-size="12.500000" x="1295" y="712">P-016B</text>
<text font-family="宋体" text-anchor="start" fill="#000000" shape-type="text" id="" font-size="12.500000" x="447" y="69">0.00 %</text>
<text font-family="宋体" text-anchor="start" fill="#000000" shape-type="text" id="" font-size="12.500000" x="937" y="469">100.00 %</text>
<text font-family="宋体" text-anchor="start" fill="#000000" shape-type="text" id="" font-size="12.500000" x="1015" y="154">0.00 %</text>
<text font-family="宋体" text-anchor="start" fill="#000000" shape-type="text" id="" font-size="12.500000" x="1398" y="581">0.00 %</text>
<text font-family="宋体" text-anchor="start" fill="#000000" shape-type="text" id="" font-size="12.500000" x="1048" y="208">0.00 %</text>
<text font-family="宋体" text-anchor="start" fill="#000000" shape-type="text" id="" font-size="12.500000" x="1390" y="637">废水去V-152</text>
<text font-family="宋体" text-anchor="start" fill="#000000" shape-type="text" id="" font-size="12.500000" x="1363" y="191">剩余丁烯去V-007</text>
<text font-family="宋体" text-anchor="start" fill="#000000" shape-type="text" id="" font-size="12.500000" x="1370" y="260">工艺水来自E-158</text>
<text font-family="宋体" text-anchor="start" fill="#000000" shape-type="text" id="" font-size="12.500000" x="1307" y="363">驰放气去999工段的V-911</text>
<g shape-type="button">
<rect fill="#C0C0C0" stroke-width="0.3" stroke="#FFFFFF" x="58" y="755" width="51" height="29" shape-type="buttonrect"/>
<text font-family="宋体" text-anchor="middle" dominant-baseline="middle" fill="#000000" font-size="13.500000" x="84" y="775" shape-type="buttontext">主页</text>
</g>
<g shape-type="button">
<rect fill="#C0C0C0" stroke-width="0.3" stroke="#FFFFFF" x="108" y="755" width="76" height="29" shape-type="buttonrect"/>
<text font-family="宋体" text-anchor="middle" dominant-baseline="middle" fill="#000000" font-size="13.500000" x="146" y="775" shape-type="buttontext">990总貌</text>
</g>
<g shape-type="button">
<rect fill="#C0C0C0" stroke-width="0.3" stroke="#FFFFFF" x="183" y="755" width="58" height="29" shape-type="buttonrect"/>
<text font-family="宋体" text-anchor="middle" dominant-baseline="middle" fill="#000000" font-size="13.500000" x="212" y="775" shape-type="buttontext">990-1</text>
</g>
<g shape-type="button">
<rect fill="#C0C0C0" stroke-width="0.3" stroke="#FFFFFF" x="240" y="755" width="66" height="29" shape-type="buttonrect"/>
<text font-family="宋体" text-anchor="middle" dominant-baseline="middle" fill="#000000" font-size="13.500000" x="273" y="775" shape-type="buttontext">990-2</text>
</g>
<g shape-type="button">
<rect fill="#C0C0C0" stroke-width="0.3" stroke="#FFFFFF" x="304" y="755" width="58" height="29" shape-type="buttonrect"/>
<text font-family="宋体" text-anchor="middle" dominant-baseline="middle" fill="#000000" font-size="13.500000" x="333" y="775" shape-type="buttontext">990-3</text>
</g>
<g shape-type="button">
<rect fill="#C0C0C0" stroke-width="0.3" stroke="#FFFFFF" x="361" y="755" width="58" height="29" shape-type="buttonrect"/>
<text font-family="宋体" text-anchor="middle" dominant-baseline="middle" fill="#000000" font-size="13.500000" x="390" y="775" shape-type="buttontext">990-4</text>
</g>
<g shape-type="button">
<rect fill="#C0C0C0" stroke-width="0.3" stroke="#FFFFFF" x="418" y="755" width="58" height="29" shape-type="buttonrect"/>
<text font-family="宋体" text-anchor="middle" dominant-baseline="middle" fill="#000000" font-size="13.500000" x="447" y="775" shape-type="buttontext">990-5</text>
</g>
<g shape-type="button">
<rect fill="#C0C0C0" stroke-width="0.3" stroke="#FFFFFF" x="475" y="755" width="58" height="29" shape-type="buttonrect"/>
<text font-family="宋体" text-anchor="middle" dominant-baseline="middle" fill="#000000" font-size="13.500000" x="504" y="775" shape-type="buttontext">990-6</text>
</g>
<g shape-type="button">
<rect fill="#C0C0C0" stroke-width="0.3" stroke="#FFFFFF" x="531" y="755" width="58" height="29" shape-type="buttonrect"/>
<text font-family="宋体" text-anchor="middle" dominant-baseline="middle" fill="#000000" font-size="13.500000" x="560" y="775" shape-type="buttontext">990-7</text>
</g>
<g shape-type="button">
<rect fill="#C0C0C0" stroke-width="0.3" stroke="#FFFFFF" x="588" y="755" width="58" height="29" shape-type="buttonrect"/>
<text font-family="宋体" text-anchor="middle" dominant-baseline="middle" fill="#000000" font-size="13.500000" x="617" y="775" shape-type="buttontext">990-8</text>
</g>
<g shape-type="button">
<rect fill="#C0C0C0" stroke-width="0.3" stroke="#FFFFFF" x="645" y="755" width="58" height="29" shape-type="buttonrect"/>
<text font-family="宋体" text-anchor="middle" dominant-baseline="middle" fill="#000000" font-size="13.500000" x="674" y="775" shape-type="buttontext">990-9</text>
</g>
<g shape-type="button">
<rect fill="#C0C0C0" stroke-width="0.3" stroke="#FFFFFF" x="701" y="755" width="66" height="29" shape-type="buttonrect"/>
<text font-family="宋体" text-anchor="middle" dominant-baseline="middle" fill="#000000" font-size="13.500000" x="734" y="775" shape-type="buttontext">990-10</text>
</g>
<text font-family="宋体" text-anchor="start" fill="#000000" shape-type="text" id="" font-size="25.250000" x="692" y="31">丁烯提浓工段九</text>
<a xlink:href="..\梨树总图.svg">
<g shape-type="button">
<rect fill="#C0C0C0" stroke-width="0.3" stroke="#FFFFFF" x="1393" y="737" width="51" height="29" shape-type="buttonrect"/>
<text font-family="宋体" text-anchor="middle" dominant-baseline="middle" fill="#000000" font-size="13.500000" x="1418" y="757" shape-type="buttontext">返回</text>
</g>
</a>
</svg>