<svg xmlns="http://www.w3.org/2000/svg" xmlns:xlink="http://www.w3.org/1999/xlink" version="1.1" style="background-color:#7DB6C1" width="1062" height="669" viewbox="0 0 1062 669"><defs>
<linearGradient x1="50.000000%" y1="0.000000%" x2="50.000000%" y2="100.000000%" id="lgradient1_0">
<stop offset="0" stop-color="#2C2C2C" stop-opacity="1"/>
<stop offset="0.5" stop-color="#FFFFFF" stop-opacity="1"/>
<stop offset="1" stop-color="#2C2C2C" stop-opacity="1"/>
</linearGradient>
<linearGradient x1="0.000000%" y1="50.000000%" x2="100.000000%" y2="50.000000%" id="lgradient2_0">
<stop offset="0" stop-color="#2C2C2C" stop-opacity="1"/>
<stop offset="0.5" stop-color="#FFFFFF" stop-opacity="1"/>
<stop offset="1" stop-color="#2C2C2C" stop-opacity="1"/>
</linearGradient>
<linearGradient x1="50.000000%" y1="0.000000%" x2="50.000000%" y2="100.000000%" id="lgradient2_1_0">
<stop offset="0" stop-color="#2C2C2C" stop-opacity="1"/>
<stop offset="0.5" stop-color="#FFFFFF" stop-opacity="1"/>
<stop offset="1" stop-color="#2C2C2C" stop-opacity="1"/>
</linearGradient>
<linearGradient x1="0.000000%" y1="50.000000%" x2="100.000000%" y2="50.000000%" id="lgradient3">
<stop offset="0" stop-color="#2C2C2C" stop-opacity="1"/>
<stop offset="0.5" stop-color="#FFFFFF" stop-opacity="1"/>
<stop offset="1" stop-color="#2C2C2C" stop-opacity="1"/>
</linearGradient>
<linearGradient x1="0.000000%" y1="50.000000%" x2="100.000000%" y2="50.000000%" id="lgradient4_0">
<stop offset="0" stop-color="#2C2C2C" stop-opacity="1"/>
<stop offset="0.5" stop-color="#FFFFFF" stop-opacity="1"/>
<stop offset="1" stop-color="#2C2C2C" stop-opacity="1"/>
</linearGradient>
<linearGradient x1="0.000000%" y1="50.000000%" x2="100.000000%" y2="50.000000%" id="lgradient5_0">
<stop offset="0" stop-color="#2C2C2C" stop-opacity="1"/>
<stop offset="0.5" stop-color="#FFFFFF" stop-opacity="1"/>
<stop offset="1" stop-color="#2C2C2C" stop-opacity="1"/>
</linearGradient>
<linearGradient x1="50.000000%" y1="0.000000%" x2="50.000000%" y2="100.000000%" id="lgradient16_0">
<stop offset="0" stop-color="#2C2C2C" stop-opacity="1"/>
<stop offset="0.5" stop-color="#FFFFFF" stop-opacity="1"/>
<stop offset="1" stop-color="#2C2C2C" stop-opacity="1"/>
</linearGradient>
<linearGradient x1="50.000000%" y1="0.000000%" x2="50.000000%" y2="100.000000%" id="lgradient16_1">
<stop offset="0" stop-color="#2C2C2C" stop-opacity="1"/>
<stop offset="0.5" stop-color="#FFFFFF" stop-opacity="1"/>
<stop offset="1" stop-color="#2C2C2C" stop-opacity="1"/>
</linearGradient>
<linearGradient x1="0.000000%" y1="50.000000%" x2="100.000000%" y2="50.000000%" id="lgradient20_0">
<stop offset="0" stop-color="#2C2C2C" stop-opacity="1"/>
<stop offset="0.5" stop-color="#FFFFFF" stop-opacity="1"/>
<stop offset="1" stop-color="#2C2C2C" stop-opacity="1"/>
</linearGradient>
<linearGradient x1="0.000000%" y1="50.000000%" x2="100.000000%" y2="50.000000%" id="lgradient20_1">
<stop offset="0" stop-color="#2C2C2C" stop-opacity="1"/>
<stop offset="0.5" stop-color="#FFFFFF" stop-opacity="1"/>
<stop offset="1" stop-color="#2C2C2C" stop-opacity="1"/>
</linearGradient>
<linearGradient x1="0%" y1="40%" x2="100%" y2="60%" id="lgradient24_0_1">
<stop offset="0" stop-color="#2C2C2C" stop-opacity="1"/>
<stop offset="0.5" stop-color="#FFFFFF" stop-opacity="1"/>
<stop offset="1" stop-color="#2C2C2C" stop-opacity="1"/></linearGradient>
<linearGradient x1="0%" y1="60%" x2="100%" y2="40%" id="lgradient24_1_1">
<stop offset="0" stop-color="#2C2C2C" stop-opacity="1"/>
<stop offset="0.5" stop-color="#FFFFFF" stop-opacity="1"/>
<stop offset="1" stop-color="#2C2C2C" stop-opacity="1"/></linearGradient>
<linearGradient x1="0.000000%" y1="50.000000%" x2="100.000000%" y2="50.000000%" id="lgradient24_2_0_0">
<stop offset="0" stop-color="#2C2C2C" stop-opacity="1"/>
<stop offset="0.5" stop-color="#FFFFFF" stop-opacity="1"/>
<stop offset="1" stop-color="#2C2C2C" stop-opacity="1"/>
</linearGradient>
<linearGradient x1="50.000000%" y1="0.000000%" x2="50.000000%" y2="100.000000%" id="lgradient24_2_0_1">
<stop offset="0" stop-color="#2C2C2C" stop-opacity="1"/>
<stop offset="0.5" stop-color="#FFFFFF" stop-opacity="1"/>
<stop offset="1" stop-color="#2C2C2C" stop-opacity="1"/>
</linearGradient>
<radialGradient cx="50.000000%" cy="50.000000%" r="50.000000%" fx="50.000000%" fy="50.000000%" id="rgradient24_2_1_0">
<stop offset="0%" stop-color="#FFFFFF" stop-opacity="1"/>
<stop offset="100%" stop-color="#2C2C2C" stop-opacity="1"/>
</radialGradient>
<linearGradient x1="50.000000%" y1="0.000000%" x2="50.000000%" y2="100.000000%" id="lgradient30_0">
<stop offset="0" stop-color="#2C2C2C" stop-opacity="1"/>
<stop offset="0.5" stop-color="#FFFFFF" stop-opacity="1"/>
<stop offset="1" stop-color="#2C2C2C" stop-opacity="1"/>
</linearGradient>
<linearGradient x1="50.000000%" y1="0.000000%" x2="50.000000%" y2="100.000000%" id="lgradient30_1">
<stop offset="0" stop-color="#2C2C2C" stop-opacity="1"/>
<stop offset="0.5" stop-color="#FFFFFF" stop-opacity="1"/>
<stop offset="1" stop-color="#2C2C2C" stop-opacity="1"/>
</linearGradient>
<linearGradient x1="0%" y1="40%" x2="100%" y2="60%" id="lgradient31_0_1">
<stop offset="0" stop-color="#2C2C2C" stop-opacity="1"/>
<stop offset="0.5" stop-color="#FFFFFF" stop-opacity="1"/>
<stop offset="1" stop-color="#2C2C2C" stop-opacity="1"/></linearGradient>
<linearGradient x1="0%" y1="60%" x2="100%" y2="40%" id="lgradient31_1_1">
<stop offset="0" stop-color="#2C2C2C" stop-opacity="1"/>
<stop offset="0.5" stop-color="#FFFFFF" stop-opacity="1"/>
<stop offset="1" stop-color="#2C2C2C" stop-opacity="1"/></linearGradient>
<linearGradient x1="0.000000%" y1="50.000000%" x2="100.000000%" y2="50.000000%" id="lgradient31_2_0_0">
<stop offset="0" stop-color="#2C2C2C" stop-opacity="1"/>
<stop offset="0.5" stop-color="#FFFFFF" stop-opacity="1"/>
<stop offset="1" stop-color="#2C2C2C" stop-opacity="1"/>
</linearGradient>
<linearGradient x1="50.000000%" y1="0.000000%" x2="50.000000%" y2="100.000000%" id="lgradient31_2_0_1">
<stop offset="0" stop-color="#2C2C2C" stop-opacity="1"/>
<stop offset="0.5" stop-color="#FFFFFF" stop-opacity="1"/>
<stop offset="1" stop-color="#2C2C2C" stop-opacity="1"/>
</linearGradient>
<radialGradient cx="50.000000%" cy="50.000000%" r="50.000000%" fx="50.000000%" fy="50.000000%" id="rgradient31_2_1_0">
<stop offset="0%" stop-color="#FFFFFF" stop-opacity="1"/>
<stop offset="100%" stop-color="#2C2C2C" stop-opacity="1"/>
</radialGradient>
<linearGradient x1="50.000000%" y1="0.000000%" x2="50.000000%" y2="100.000000%" id="lgradient38_0">
<stop offset="0" stop-color="#2C2C2C" stop-opacity="1"/>
<stop offset="0.5" stop-color="#FFFFFF" stop-opacity="1"/>
<stop offset="1" stop-color="#2C2C2C" stop-opacity="1"/>
</linearGradient>
<linearGradient x1="50.000000%" y1="0.000000%" x2="50.000000%" y2="100.000000%" id="lgradient38_1">
<stop offset="0" stop-color="#2C2C2C" stop-opacity="1"/>
<stop offset="0.5" stop-color="#FFFFFF" stop-opacity="1"/>
<stop offset="1" stop-color="#2C2C2C" stop-opacity="1"/>
</linearGradient>
<linearGradient x1="0%" y1="40%" x2="100%" y2="60%" id="lgradient51_0_1">
<stop offset="0" stop-color="#2C2C2C" stop-opacity="1"/>
<stop offset="0.5" stop-color="#FFFFFF" stop-opacity="1"/>
<stop offset="1" stop-color="#2C2C2C" stop-opacity="1"/></linearGradient>
<linearGradient x1="0%" y1="60%" x2="100%" y2="40%" id="lgradient51_1_1">
<stop offset="0" stop-color="#2C2C2C" stop-opacity="1"/>
<stop offset="0.5" stop-color="#FFFFFF" stop-opacity="1"/>
<stop offset="1" stop-color="#2C2C2C" stop-opacity="1"/></linearGradient>
<linearGradient x1="0.000000%" y1="50.000000%" x2="100.000000%" y2="50.000000%" id="lgradient51_2_0">
<stop offset="0" stop-color="#2C2C2C" stop-opacity="1"/>
<stop offset="0.5" stop-color="#FFFFFF" stop-opacity="1"/>
<stop offset="1" stop-color="#2C2C2C" stop-opacity="1"/>
</linearGradient>
<linearGradient x1="50.000000%" y1="0.000000%" x2="50.000000%" y2="100.000000%" id="lgradient51_2_1">
<stop offset="0" stop-color="#2C2C2C" stop-opacity="1"/>
<stop offset="0.5" stop-color="#FFFFFF" stop-opacity="1"/>
<stop offset="1" stop-color="#2C2C2C" stop-opacity="1"/>
</linearGradient>
<radialGradient cx="50.000000%" cy="50.000000%" r="50.000000%" fx="50.000000%" fy="50.000000%" id="rgradient51_3">
<stop offset="0%" stop-color="#FFFFFF" stop-opacity="1"/>
<stop offset="100%" stop-color="#2C2C2C" stop-opacity="1"/>
</radialGradient>
<linearGradient x1="50.000000%" y1="0.000000%" x2="50.000000%" y2="100.000000%" id="lgradient64_0">
<stop offset="0" stop-color="#2C2C2C" stop-opacity="1"/>
<stop offset="0.5" stop-color="#FFFFFF" stop-opacity="1"/>
<stop offset="1" stop-color="#2C2C2C" stop-opacity="1"/>
</linearGradient>
<linearGradient x1="50.000000%" y1="0.000000%" x2="50.000000%" y2="100.000000%" id="lgradient64_1">
<stop offset="0" stop-color="#2C2C2C" stop-opacity="1"/>
<stop offset="0.5" stop-color="#FFFFFF" stop-opacity="1"/>
<stop offset="1" stop-color="#2C2C2C" stop-opacity="1"/>
</linearGradient>
<linearGradient x1="50.000000%" y1="0.000000%" x2="50.000000%" y2="100.000000%" id="lgradient75_0">
<stop offset="0" stop-color="#2C2C2C" stop-opacity="1"/>
<stop offset="0.5" stop-color="#FFFFFF" stop-opacity="1"/>
<stop offset="1" stop-color="#2C2C2C" stop-opacity="1"/>
</linearGradient>
<linearGradient x1="50.000000%" y1="0.000000%" x2="50.000000%" y2="100.000000%" id="lgradient75_1">
<stop offset="0" stop-color="#2C2C2C" stop-opacity="1"/>
<stop offset="0.5" stop-color="#FFFFFF" stop-opacity="1"/>
<stop offset="1" stop-color="#2C2C2C" stop-opacity="1"/>
</linearGradient>
<linearGradient x1="0.000000%" y1="50.000000%" x2="100.000000%" y2="50.000000%" id="lgradient77_0">
<stop offset="0" stop-color="#2C2C2C" stop-opacity="1"/>
<stop offset="0.5" stop-color="#FFFFFF" stop-opacity="1"/>
<stop offset="1" stop-color="#2C2C2C" stop-opacity="1"/>
</linearGradient>
<linearGradient x1="50.000000%" y1="0.000000%" x2="50.000000%" y2="100.000000%" id="lgradient77_1">
<stop offset="0" stop-color="#2C2C2C" stop-opacity="1"/>
<stop offset="0.5" stop-color="#FFFFFF" stop-opacity="1"/>
<stop offset="1" stop-color="#2C2C2C" stop-opacity="1"/>
</linearGradient>
<linearGradient x1="50.000000%" y1="0.000000%" x2="50.000000%" y2="100.000000%" id="lgradient81_0">
<stop offset="0" stop-color="#2C2C2C" stop-opacity="1"/>
<stop offset="0.5" stop-color="#FFFFFF" stop-opacity="1"/>
<stop offset="1" stop-color="#2C2C2C" stop-opacity="1"/>
</linearGradient>
<linearGradient x1="0.000000%" y1="50.000000%" x2="100.000000%" y2="50.000000%" id="lgradient81_1">
<stop offset="0" stop-color="#2C2C2C" stop-opacity="1"/>
<stop offset="0.5" stop-color="#FFFFFF" stop-opacity="1"/>
<stop offset="1" stop-color="#2C2C2C" stop-opacity="1"/>
</linearGradient>
</defs>
<g shape-type="group">
<rect shape-type="roundRectangle" rx="20" ry="20" x="488" y="395" width="138" height="39" fill="url(#lgradient1_0)" stroke="#000000" stroke-width="1.00"/>
<line shape-type="limitline" x1="510" y1="433" x2="509" y2="395" fill="#FFFFFF" stroke="#000000" stroke-width="1.00"/>
<line shape-type="limitline" x1="588" y1="433" x2="587" y2="396" fill="#FFFFFF" stroke="#000000" stroke-width="1.00"/>
<line shape-type="limitline" x1="626" y1="415" x2="510" y2="416" fill="#FFFFFF" stroke="#000000" stroke-width="1.00"/>
<line shape-type="limitline" x1="588" y1="425" x2="510" y2="426" fill="#FFFFFF" stroke="#000000" stroke-width="1.00"/>
<line shape-type="limitline" x1="588" y1="403" x2="510" y2="404" fill="#FFFFFF" stroke="#000000" stroke-width="1.00"/>
</g>
<g shape-type="group">
<rect shape-type="roundRectangle" rx="20" ry="20" x="782" y="155" width="31" height="74" fill="url(#lgradient2_0)" stroke="#000000" stroke-width="1.00"/>
<g shape-type="group">
<rect shape-type="roundRectangle" rx="20" ry="20" x="741" y="196" width="164" height="43" fill="url(#lgradient2_1_0)" stroke="#000000" stroke-width="1.00"/>
<line shape-type="limitline" x1="768" y1="236" x2="767" y2="196" fill="#FFFFFF" stroke="#000000" stroke-width="1.00"/>
<line shape-type="limitline" x1="859" y1="236" x2="858" y2="197" fill="#FFFFFF" stroke="#000000" stroke-width="1.00"/>
<line shape-type="limitline" x1="905" y1="217" x2="768" y2="218" fill="#FFFFFF" stroke="#000000" stroke-width="1.00"/>
<line shape-type="limitline" x1="859" y1="228" x2="768" y2="229" fill="#FFFFFF" stroke="#000000" stroke-width="1.00"/>
<line shape-type="limitline" x1="859" y1="204" x2="768" y2="205" fill="#FFFFFF" stroke="#000000" stroke-width="1.00"/>
</g>
</g>
<rect shape-type="roundRectangle" rx="20" ry="20" x="1126" y="118" width="81" height="132" fill="url(#lgradient3)" stroke="#000000" stroke-width="1.00"/>
<g shape-type="group">
<rect shape-type="roundRectangle" rx="20" ry="20" x="240" y="501" width="77" height="160" fill="url(#lgradient4_0)" stroke="#000000" stroke-width="1.00"/>
<rect shape-type="rectangle" x="301" y="570" width="15" height="61" fill="#FFFFFF" stroke="#000000" stroke-width="1.00"/>
</g>
<g shape-type="group">
<rect shape-type="roundRectangle" rx="20" ry="20" x="884" y="381" width="105" height="200" fill="url(#lgradient5_0)" stroke="#000000" stroke-width="1.00"/>
<rect shape-type="rectangle" x="972" y="430" width="17" height="58" fill="#FFFFFF" stroke="#000000" stroke-width="1.00"/>
</g>
<line shape-type="limitline" x1="276" y1="95" x2="276" y2="77" fill="#FFFFFF" stroke="#000000" stroke-width="1.00"/>
<line shape-type="limitline" x1="866" y1="77" x2="276" y2="77" fill="#FFFFFF" stroke="#000000" stroke-width="1.00"/>
<line shape-type="limitline" x1="867" y1="198" x2="867" y2="77" fill="#FFFFFF" stroke="#000000" stroke-width="1.00"/>
<line shape-type="limitline" x1="242" y1="165" x2="13" y2="165" fill="#FFFFFF" stroke="#000000" stroke-width="1.00"/>
<line shape-type="limitline" x1="243" y1="229" x2="243" y2="165" fill="#FFFFFF" stroke="#000000" stroke-width="1.00"/>
<g shape-type="group">
<line shape-type="limitline" x1="190" y1="330" x2="21" y2="329" fill="#FFFFFF" stroke="#000000" stroke-width="1.00"/>
<line shape-type="limitline" x1="191" y1="295" x2="190" y2="329" fill="#FFFFFF" stroke="#000000" stroke-width="1.00"/>
</g>
<line shape-type="limitline" x1="192" y1="260" x2="192" y2="242" fill="#FFFFFF" stroke="#000000" stroke-width="1.00"/>
<line shape-type="limitline" x1="192" y1="242" x2="27" y2="242" fill="#FFFFFF" stroke="#000000" stroke-width="1.00"/>
<g shape-type="group">
<polygon shape-type="trapezium" points="26,233 26,250 40,242 40,242 26,233" stroke="#000000" stroke-width="1.00"/>
<rect shape-type="rectangle" x="10" y="241" width="19" height="3" stroke="#000000" stroke-width="1.00"/>
</g>
<polygon shape-type="trapezium" points="22,337 22,322 10,329 10,329 22,337" stroke="#000000" stroke-width="1.00"/>
<g shape-type="group">
<polygon shape-type="trapezium" points="179,250 179,234 159,242 159,242 179,250" fill="url(#lgradient16_0)" stroke="#000000" stroke-width="1.00"/>
<polygon shape-type="trapezium" points="144,233 144,250 163,242 163,242 144,233" fill="url(#lgradient16_1)" stroke="#000000" stroke-width="1.00"/>
<rect shape-type="rectangle" x="160" y="223" width="4" height="21" fill="#808080" stroke="#000000" stroke-width="1.00"/>
<path shape-type="chord" d="M 178,223 A 18,18 0 0,0 148,223 z" fill="#808080" stroke="#000000" stroke-width="1.00"/>
</g>
<line shape-type="limitline" x1="416" y1="279" x2="389" y2="279" fill="#FFFFFF" stroke="#000000" stroke-width="1.00"/>
<line shape-type="limitline" x1="415" y1="523" x2="415" y2="280" fill="#FFFFFF" stroke="#000000" stroke-width="1.00"/>
<line shape-type="limitline" x1="314" y1="523" x2="415" y2="523" fill="#FFFFFF" stroke="#000000" stroke-width="1.00"/>
<g shape-type="group">
<polygon shape-type="trapezium" points="422,333 407,333 415,314 415,314 422,333" fill="url(#lgradient20_0)" stroke="#000000" stroke-width="1.00"/>
<polygon shape-type="trapezium" points="407,298 423,298 415,317 415,317 407,298" fill="url(#lgradient20_1)" stroke="#000000" stroke-width="1.00"/>
<rect shape-type="rectangle" x="414" y="315" width="18" height="3" fill="#808080" stroke="#000000" stroke-width="1.00"/>
<path shape-type="chord" d="M 434,333 A 17,19 0 1,0 434,302 z" fill="#808080" stroke="#000000" stroke-width="1.00"/>
</g>
<g shape-type="group">
<line shape-type="limitline" x1="585" y1="371" x2="415" y2="372" fill="#FFFFFF" stroke="#000000" stroke-width="1.00"/>
<line shape-type="limitline" x1="585" y1="395" x2="584" y2="371" fill="#FFFFFF" stroke="#000000" stroke-width="1.00"/>
</g>
<g shape-type="group">
<line shape-type="limitline" x1="583" y1="458" x2="415" y2="457" fill="#FFFFFF" stroke="#000000" stroke-width="1.00"/>
<line shape-type="limitline" x1="583" y1="434" x2="582" y2="457" fill="#FFFFFF" stroke="#000000" stroke-width="1.00"/>
</g>
<line shape-type="limitline" x1="1090" y1="160" x2="1125" y2="160" fill="#FFFFFF" stroke="#000000" stroke-width="1.00"/>
<g shape-type="group">
<g shape-type="group">
<rect shape-type="rectangle" x="360" y="724" width="28" height="6" fill="#808080" stroke="#000000" stroke-width="1.00"/>
<polygon shape-type="parallel" points="387,723 372,723 377,704 392,704 387,723" fill="url(#lgradient24_0_1)" stroke="#000000" stroke-width="1.00"/>
</g>
<g shape-type="group">
<rect shape-type="rectangle" x="392" y="724" width="29" height="6" fill="#808080" stroke="#000000" stroke-width="1.00"/>
<polygon shape-type="parallel" points="392,723 407,723 401,702 386,702 392,723" fill="url(#lgradient24_1_1)" stroke="#000000" stroke-width="1.00"/>
</g>
<g shape-type="group">
<g shape-type="group">
<rect shape-type="rectangle" x="390" y="680" width="12" height="23" fill="url(#lgradient24_2_0_0)" stroke="#000000" stroke-width="1.00"/>
<rect shape-type="rectangle" x="385" y="675" width="22" height="6" fill="url(#lgradient24_2_0_1)" stroke="#000000" stroke-width="1.00"/>
</g>
<g shape-type="group">
<ellipse shape-type="ellipse" cx="390" cy="704" rx="16" ry="16" fill="url(#rgradient24_2_1_0)" stroke="#000000" stroke-width="1.00"/>
<ellipse shape-type="ellipse" cx="390" cy="703" rx="12" ry="11" fill="#FF0000" stroke="#000000" stroke-width="1.00"/>
</g>
</g>
</g>
<line shape-type="limitline" x1="279" y1="695" x2="279" y2="661" fill="#FFFFFF" stroke="#000000" stroke-width="1.00"/>
<line shape-type="limitline" x1="375" y1="696" x2="278" y2="696" fill="#FFFFFF" stroke="#000000" stroke-width="1.00"/>
<line shape-type="limitline" x1="396" y1="677" x2="396" y2="659" fill="#FFFFFF" stroke="#000000" stroke-width="1.00"/>
<line shape-type="limitline" x1="1425" y1="659" x2="397" y2="659" fill="#FFFFFF" stroke="#000000" stroke-width="1.00"/>
<polygon shape-type="trapezium" points="1424,652 1424,666 1435,659 1435,659 1424,652" stroke="#000000" stroke-width="1.00"/>
<g shape-type="group">
<polygon shape-type="trapezium" points="566,667 566,651 546,659 546,659 566,667" fill="url(#lgradient30_0)" stroke="#000000" stroke-width="1.00"/>
<polygon shape-type="trapezium" points="531,650 531,667 549,659 549,659 531,650" fill="url(#lgradient30_1)" stroke="#000000" stroke-width="1.00"/>
<rect shape-type="rectangle" x="547" y="640" width="3" height="20" fill="#808080" stroke="#000000" stroke-width="1.00"/>
<path shape-type="chord" d="M 565,640 A 18,18 0 0,0 535,640 z" fill="#808080" stroke="#000000" stroke-width="1.00"/>
</g>
<g shape-type="group">
<g shape-type="group">
<rect shape-type="rectangle" x="1091" y="592" width="28" height="6" fill="#808080" stroke="#000000" stroke-width="1.00"/>
<polygon shape-type="parallel" points="1118,591 1103,591 1108,572 1123,572 1118,591" fill="url(#lgradient31_0_1)" stroke="#000000" stroke-width="1.00"/>
</g>
<g shape-type="group">
<rect shape-type="rectangle" x="1123" y="592" width="29" height="6" fill="#808080" stroke="#000000" stroke-width="1.00"/>
<polygon shape-type="parallel" points="1124,591 1139,591 1133,570 1118,570 1124,591" fill="url(#lgradient31_1_1)" stroke="#000000" stroke-width="1.00"/>
</g>
<g shape-type="group">
<g shape-type="group">
<rect shape-type="rectangle" x="1121" y="548" width="12" height="23" fill="url(#lgradient31_2_0_0)" stroke="#000000" stroke-width="1.00"/>
<rect shape-type="rectangle" x="1117" y="543" width="22" height="6" fill="url(#lgradient31_2_0_1)" stroke="#000000" stroke-width="1.00"/>
</g>
<g shape-type="group">
<ellipse shape-type="ellipse" cx="1121" cy="572" rx="17" ry="17" fill="url(#rgradient31_2_1_0)" stroke="#000000" stroke-width="1.00"/>
<ellipse shape-type="ellipse" cx="1120" cy="570" rx="12" ry="11" fill="#FF0000" stroke="#000000" stroke-width="1.00"/>
</g>
</g>
</g>
<line shape-type="limitline" x1="947" y1="602" x2="947" y2="579" fill="#FFFFFF" stroke="#000000" stroke-width="1.00"/>
<line shape-type="limitline" x1="1021" y1="603" x2="947" y2="603" fill="#FFFFFF" stroke="#000000" stroke-width="1.00"/>
<line shape-type="limitline" x1="1020" y1="569" x2="1020" y2="603" fill="#FFFFFF" stroke="#000000" stroke-width="1.00"/>
<line shape-type="limitline" x1="1103" y1="569" x2="1020" y2="569" fill="#FFFFFF" stroke="#000000" stroke-width="1.00"/>
<line shape-type="limitline" x1="1127" y1="543" x2="1127" y2="525" fill="#FFFFFF" stroke="#000000" stroke-width="1.00"/>
<line shape-type="limitline" x1="1451" y1="525" x2="1127" y2="525" fill="#FFFFFF" stroke="#000000" stroke-width="1.00"/>
<g shape-type="group">
<polygon shape-type="trapezium" points="1241,535 1241,519 1221,527 1221,527 1241,535" fill="url(#lgradient38_0)" stroke="#000000" stroke-width="1.00"/>
<polygon shape-type="trapezium" points="1206,518 1206,535 1224,527 1224,527 1206,518" fill="url(#lgradient38_1)" stroke="#000000" stroke-width="1.00"/>
<rect shape-type="rectangle" x="1222" y="507" width="3" height="21" fill="#808080" stroke="#000000" stroke-width="1.00"/>
<path shape-type="chord" d="M 1240,507 A 18,19 0 0,0 1210,507 z" fill="#808080" stroke="#000000" stroke-width="1.00"/>
</g>
<polygon shape-type="trapezium" points="1447,517 1447,532 1458,525 1458,525 1447,517" stroke="#000000" stroke-width="1.00"/>
<line shape-type="limitline" x1="1364" y1="660" x2="1364" y2="525" fill="#FFFFFF" stroke="#000000" stroke-width="1.00"/>
<line shape-type="limitline" x1="599" y1="142" x2="288" y2="142" fill="#FFFFFF" stroke="#000000" stroke-width="1.00"/>
<line shape-type="limitline" x1="743" y1="286" x2="600" y2="286" fill="#FFFFFF" stroke="#000000" stroke-width="1.00"/>
<line shape-type="limitline" x1="743" y1="627" x2="743" y2="286" fill="#FFFFFF" stroke="#000000" stroke-width="1.00"/>
<line shape-type="limitline" x1="1188" y1="628" x2="743" y2="628" fill="#FFFFFF" stroke="#000000" stroke-width="1.00"/>
<line shape-type="limitline" x1="1188" y1="526" x2="1188" y2="628" fill="#FFFFFF" stroke="#000000" stroke-width="1.00"/>
<g shape-type="group">
<line shape-type="limitline" x1="1169" y1="69" x2="1168" y2="118" fill="#FFFFFF" stroke="#000000" stroke-width="1.00"/>
<line shape-type="limitline" x1="1465" y1="69" x2="1169" y2="70" fill="#FFFFFF" stroke="#000000" stroke-width="1.00"/>
<polygon shape-type="trapezium" points="1463,61 1463,75 1473,68 1473,68 1463,61" stroke="#000000" stroke-width="1.00"/>
</g>
<g shape-type="group">
<line shape-type="limitline" x1="1169" y1="299" x2="1168" y2="250" fill="#FFFFFF" stroke="#000000" stroke-width="1.00"/>
<line shape-type="limitline" x1="1465" y1="300" x2="1169" y2="299" fill="#FFFFFF" stroke="#000000" stroke-width="1.00"/>
<polygon shape-type="trapezium" points="1463,307 1463,293 1473,300 1473,300 1463,307" stroke="#000000" stroke-width="1.00"/>
</g>
<line shape-type="limitline" x1="1186" y1="125" x2="1186" y2="96" fill="#FFFFFF" stroke="#000000" stroke-width="1.00"/>
<line shape-type="limitline" x1="1456" y1="96" x2="1186" y2="96" fill="#FFFFFF" stroke="#000000" stroke-width="1.00"/>
<g shape-type="group">
<polygon shape-type="trapezium" points="1453,105 1453,88 1441,96 1441,96 1453,105" stroke="#000000" stroke-width="1.00"/>
<rect shape-type="rectangle" x="1452" y="95" width="20" height="3" stroke="#000000" stroke-width="1.00"/>
</g>
<g shape-type="group">
<g shape-type="group">
<rect shape-type="rectangle" x="798" y="585" width="28" height="7" fill="#808080" stroke="#000000" stroke-width="1.00"/>
<polygon shape-type="parallel" points="825,584 810,584 815,566 830,566 825,584" fill="url(#lgradient51_0_1)" stroke="#000000" stroke-width="1.00"/>
</g>
<g shape-type="group">
<rect shape-type="rectangle" x="830" y="585" width="29" height="7" fill="#808080" stroke="#000000" stroke-width="1.00"/>
<polygon shape-type="parallel" points="831,584 846,584 840,564 825,564 831,584" fill="url(#lgradient51_1_1)" stroke="#000000" stroke-width="1.00"/>
</g>
<g shape-type="group">
<rect shape-type="rectangle" x="828" y="543" width="13" height="22" fill="url(#lgradient51_2_0)" stroke="#000000" stroke-width="1.00"/>
<rect shape-type="rectangle" x="824" y="538" width="22" height="6" fill="url(#lgradient51_2_1)" stroke="#000000" stroke-width="1.00"/>
</g>
<ellipse shape-type="ellipse" cx="828" cy="565" rx="17" ry="16" fill="url(#rgradient51_3)" stroke="#000000" stroke-width="1.00"/>
<ellipse shape-type="ellipse" cx="830" cy="564" rx="12" ry="11" fill="#00FF00" stroke="#000000" stroke-width="1.00"/>
</g>
<line shape-type="limitline" x1="834" y1="541" x2="834" y2="507" fill="#FFFFFF" stroke="#000000" stroke-width="1.00"/>
<line shape-type="limitline" x1="885" y1="507" x2="833" y2="507" fill="#FFFFFF" stroke="#000000" stroke-width="1.00"/>
<line shape-type="limitline" x1="800" y1="156" x2="800" y2="117" fill="#FFFFFF" stroke="#000000" stroke-width="1.00"/>
<line shape-type="limitline" x1="858" y1="117" x2="799" y2="117" fill="#FFFFFF" stroke="#000000" stroke-width="1.00"/>
<line shape-type="limitline" x1="1089" y1="370" x2="1089" y2="160" fill="#FFFFFF" stroke="#000000" stroke-width="1.00"/>
<line shape-type="limitline" x1="935" y1="370" x2="1089" y2="370" fill="#FFFFFF" stroke="#000000" stroke-width="1.00"/>
<line shape-type="limitline" x1="935" y1="382" x2="935" y2="370" fill="#FFFFFF" stroke="#000000" stroke-width="1.00"/>
<line shape-type="limitline" x1="1054" y1="120" x2="881" y2="120" fill="#FFFFFF" stroke="#000000" stroke-width="1.00"/>
<line shape-type="limitline" x1="1054" y1="344" x2="1054" y2="120" fill="#FFFFFF" stroke="#000000" stroke-width="1.00"/>
<line shape-type="limitline" x1="761" y1="344" x2="1054" y2="344" fill="#FFFFFF" stroke="#000000" stroke-width="1.00"/>
<line shape-type="limitline" x1="814" y1="556" x2="759" y2="556" fill="#FFFFFF" stroke="#000000" stroke-width="1.00"/>
<line shape-type="limitline" x1="760" y1="556" x2="760" y2="345" fill="#FFFFFF" stroke="#000000" stroke-width="1.00"/>
<g shape-type="group">
<polygon shape-type="trapezium" points="723,295 723,279 703,287 703,287 723,295" fill="url(#lgradient64_0)" stroke="#000000" stroke-width="1.00"/>
<polygon shape-type="trapezium" points="688,278 688,295 706,287 706,287 688,278" fill="url(#lgradient64_1)" stroke="#000000" stroke-width="1.00"/>
<rect shape-type="rectangle" x="704" y="268" width="3" height="21" fill="#808080" stroke="#000000" stroke-width="1.00"/>
<path shape-type="chord" d="M 722,268 A 18,18 0 0,0 692,268 z" fill="#808080" stroke="#000000" stroke-width="1.00"/>
</g>
<line shape-type="limitline" x1="932" y1="308" x2="772" y2="308" fill="#FFFFFF" stroke="#000000" stroke-width="1.00"/>
<line shape-type="limitline" x1="932" y1="247" x2="932" y2="308" fill="#FFFFFF" stroke="#000000" stroke-width="1.00"/>
<line shape-type="limitline" x1="1006" y1="247" x2="932" y2="247" fill="#FFFFFF" stroke="#000000" stroke-width="1.00"/>
<line shape-type="limitline" x1="1007" y1="326" x2="1007" y2="247" fill="#FFFFFF" stroke="#000000" stroke-width="1.00"/>
<line shape-type="limitline" x1="751" y1="327" x2="1007" y2="327" fill="#FFFFFF" stroke="#000000" stroke-width="1.00"/>
<line shape-type="limitline" x1="750" y1="602" x2="750" y2="327" fill="#FFFFFF" stroke="#000000" stroke-width="1.00"/>
<line shape-type="limitline" x1="923" y1="604" x2="750" y2="604" fill="#FFFFFF" stroke="#000000" stroke-width="1.00"/>
<line shape-type="limitline" x1="922" y1="580" x2="922" y2="604" fill="#FFFFFF" stroke="#000000" stroke-width="1.00"/>
<line shape-type="limitline" x1="774" y1="309" x2="774" y2="235" fill="#FFFFFF" stroke="#000000" stroke-width="1.00"/>
<line shape-type="limitline" x1="936" y1="377" x2="758" y2="377" fill="#FFFFFF" stroke="#000000" stroke-width="1.00"/>
<g shape-type="group">
<polygon shape-type="trapezium" points="918,384 918,369 898,376 898,376 918,384" fill="url(#lgradient75_0)" stroke="#000000" stroke-width="1.00"/>
<polygon shape-type="trapezium" points="883,368 883,384 901,376 901,376 883,368" fill="url(#lgradient75_1)" stroke="#000000" stroke-width="1.00"/>
<rect shape-type="rectangle" x="899" y="357" width="3" height="21" fill="#808080" stroke="#000000" stroke-width="1.00"/>
<path shape-type="chord" d="M 917,357 A 18,18 0 0,0 887,357 z" fill="#808080" stroke="#000000" stroke-width="1.00"/>
</g>
<g shape-type="group">
<rect shape-type="rectangle" x="181" y="78" width="72" height="19" fill="#008080" stroke="#000000" stroke-width="1.00"/>
<rect shape-type="rectangle" x="181" y="96" width="72" height="21" fill="#008080" stroke="#000000" stroke-width="1.00"/>
</g>
<g shape-type="group">
<rect shape-type="roundRectangle" rx="20" ry="20" x="260" y="95" width="31" height="162" fill="url(#lgradient77_0)" stroke="#000000" stroke-width="1.00"/>
<rect shape-type="roundRectangle" rx="20" ry="20" x="214" y="229" width="183" height="64" fill="url(#lgradient77_1)" stroke="#000000" stroke-width="1.00"/>
</g>
<rect shape-type="rectangle" x="360" y="230" width="14" height="61" fill="#FFFFFF" stroke="#000000" stroke-width="1.00"/>
<g shape-type="group">
<line shape-type="limitline" x1="293" y1="152" x2="260" y2="153" fill="#FFFFFF" stroke="#000000" stroke-width="1.00"/>
<line shape-type="limitline" x1="291" y1="169" x2="259" y2="170" fill="#FFFFFF" stroke="#000000" stroke-width="1.00"/>
<line shape-type="line" x1="291" y1="169" x2="261" y2="151" fill="#FFFFFF" stroke="#000000" stroke-width="1.00"/>
<line shape-type="line" x1="260" y1="167" x2="291" y2="153" fill="#FFFFFF" stroke="#000000" stroke-width="1.00"/>
</g>
<g shape-type="group">
<line shape-type="limitline" x1="292" y1="189" x2="260" y2="190" fill="#FFFFFF" stroke="#000000" stroke-width="1.00"/>
<line shape-type="limitline" x1="291" y1="204" x2="259" y2="205" fill="#FFFFFF" stroke="#000000" stroke-width="1.00"/>
<line shape-type="line" x1="291" y1="204" x2="261" y2="188" fill="#FFFFFF" stroke="#000000" stroke-width="1.00"/>
<line shape-type="line" x1="260" y1="203" x2="291" y2="190" fill="#FFFFFF" stroke="#000000" stroke-width="1.00"/>
</g>
<g shape-type="group">
<rect shape-type="roundRectangle" rx="20" ry="20" x="185" y="270" width="141" height="16" fill="url(#lgradient81_0)" stroke="#000000" stroke-width="1.00"/>
<rect shape-type="rectangle" x="182" y="260" width="17" height="35" fill="url(#lgradient81_1)" stroke="#000000" stroke-width="1.00"/>
</g>
<line shape-type="limitline" x1="600" y1="286" x2="600" y2="142" fill="#FFFFFF" stroke="#000000" stroke-width="1.00"/>
<g shape-type="group">
<rect shape-type="rectangle" x="302" y="88" width="72" height="18" fill="#008080" stroke="#000000" stroke-width="1.00"/>
<rect shape-type="rectangle" x="302" y="105" width="72" height="21" fill="#008080" stroke="#000000" stroke-width="1.00"/>
</g>
<g shape-type="group">
<rect shape-type="rectangle" x="60" y="196" width="72" height="20" fill="#008080" stroke="#000000" stroke-width="1.00"/>
<rect shape-type="rectangle" x="60" y="215" width="72" height="20" fill="#008080" stroke="#000000" stroke-width="1.00"/>
</g>
<g shape-type="group">
<rect shape-type="rectangle" x="300" y="184" width="72" height="19" fill="#008080" stroke="#000000" stroke-width="1.00"/>
<rect shape-type="rectangle" x="300" y="202" width="72" height="21" fill="#008080" stroke="#000000" stroke-width="1.00"/>
</g>
<g shape-type="group">
<rect shape-type="rectangle" x="291" y="299" width="72" height="19" fill="#008080" stroke="#000000" stroke-width="1.00"/>
<rect shape-type="rectangle" x="291" y="317" width="72" height="21" fill="#008080" stroke="#000000" stroke-width="1.00"/>
</g>
<g shape-type="group">
<rect shape-type="rectangle" x="320" y="602" width="72" height="19" fill="#008080" stroke="#000000" stroke-width="1.00"/>
<rect shape-type="rectangle" x="320" y="620" width="72" height="21" fill="#008080" stroke="#000000" stroke-width="1.00"/>
</g>
<g shape-type="group">
<rect shape-type="rectangle" x="495" y="466" width="72" height="19" fill="#008080" stroke="#FFFF00" stroke-width="1.00"/>
<rect shape-type="rectangle" x="495" y="484" width="72" height="21" fill="#008080" stroke="#FFFF00" stroke-width="1.00"/>
</g>
<g shape-type="group">
<rect shape-type="rectangle" x="686" y="97" width="72" height="20" fill="#008080" stroke="#000000" stroke-width="1.00"/>
<rect shape-type="rectangle" x="686" y="116" width="72" height="20" fill="#008080" stroke="#000000" stroke-width="1.00"/>
</g>
<g shape-type="group">
<rect shape-type="rectangle" x="688" y="145" width="71" height="20" fill="#008080" stroke="#000000" stroke-width="1.00"/>
<rect shape-type="rectangle" x="688" y="164" width="71" height="20" fill="#008080" stroke="#000000" stroke-width="1.00"/>
</g>
<g shape-type="group">
<rect shape-type="rectangle" x="609" y="241" width="72" height="19" fill="#008080" stroke="#000000" stroke-width="1.00"/>
<rect shape-type="rectangle" x="609" y="259" width="72" height="21" fill="#008080" stroke="#000000" stroke-width="1.00"/>
</g>
<g shape-type="group">
<rect shape-type="rectangle" x="997" y="490" width="72" height="19" fill="#008080" stroke="#FFFF00" stroke-width="1.00"/>
<rect shape-type="rectangle" x="997" y="508" width="72" height="21" fill="#008080" stroke="#FFFF00" stroke-width="1.00"/>
</g>
<g shape-type="group">
<rect shape-type="rectangle" x="1286" y="484" width="72" height="19" fill="#008080" stroke="#000000" stroke-width="1.00"/>
<rect shape-type="rectangle" x="1286" y="502" width="72" height="21" fill="#008080" stroke="#000000" stroke-width="1.00"/>
</g>
<text font-family="宋体" text-anchor="start" fill="#000000" shape-type="text" id="" font-size="12.500000" x="186" y="92">PT</text>
<text font-family="宋体" text-anchor="start" fill="#000000" shape-type="text" id="" font-size="12.500000" x="307" y="198">PT</text>
<text font-family="宋体" text-anchor="start" fill="#000000" shape-type="text" id="" font-size="12.500000" x="308" y="102">TE</text>
<text font-family="宋体" text-anchor="start" fill="#000000" shape-type="text" id="" font-size="12.500000" x="298" y="311">TE</text>
<text font-family="宋体" text-anchor="start" fill="#000000" shape-type="text" id="" font-size="12.500000" x="505" y="480">TE</text>
<text font-family="宋体" text-anchor="start" fill="#000000" shape-type="text" id="" font-size="12.500000" x="67" y="209">FIC</text>
<text font-family="宋体" text-anchor="start" fill="#000000" shape-type="text" id="" font-size="12.500000" x="336" y="617">LIC</text>
<text font-family="宋体" text-anchor="start" fill="#000000" shape-type="text" id="" font-size="12.500000" x="690" y="112">FIC</text>
<text font-family="宋体" text-anchor="start" fill="#000000" shape-type="text" id="" font-size="12.500000" x="614" y="255">PIC</text>
<g shape-type="group">
<rect shape-type="rectangle" x="794" y="247" width="72" height="20" fill="#008080" stroke="#000000" stroke-width="1.00"/>
<rect shape-type="rectangle" x="794" y="266" width="72" height="20" fill="#008080" stroke="#000000" stroke-width="1.00"/>
</g>
<text font-family="宋体" text-anchor="start" fill="#000000" shape-type="text" id="" font-size="12.500000" x="807" y="261">TE</text>
<text font-family="宋体" text-anchor="start" fill="#000000" shape-type="text" id="" font-size="12.500000" x="1002" y="505">LIC</text>
<text font-family="宋体" text-anchor="start" fill="#000000" shape-type="text" id="" font-size="12.500000" x="696" y="159">TE</text>
<text font-family="宋体" text-anchor="start" fill="#000000" shape-type="text" id="" font-size="12.500000" x="1300" y="497">FT</text>
<text font-family="宋体" text-anchor="start" fill="#000000" shape-type="text" id="" font-size="14.750000" x="90" y="231">kg/h</text>
<text font-family="宋体" text-anchor="start" fill="#000000" shape-type="text" id="" font-size="14.750000" x="641" y="275">kg/h</text>
<text font-family="宋体" text-anchor="start" fill="#000000" shape-type="text" id="" font-size="14.750000" x="1325" y="516">kg/h</text>
<text font-family="宋体" text-anchor="start" fill="#000000" shape-type="text" id="" font-size="12.500000" x="213" y="111">Kpa</text>
<text font-family="宋体" text-anchor="start" fill="#000000" shape-type="text" id="" font-size="12.500000" x="334" y="218">Kpa</text>
<g shape-type="group">
<rect shape-type="rectangle" x="411" y="236" width="72" height="19" fill="#008080" stroke="#FFFF00" stroke-width="1.00"/>
<rect shape-type="rectangle" x="411" y="254" width="72" height="21" fill="#008080" stroke="#FFFF00" stroke-width="1.00"/>
</g>
<text font-family="宋体" text-anchor="start" fill="#000000" shape-type="text" id="" font-size="14.750000" x="367" y="636">%</text>
<text font-family="宋体" text-anchor="start" fill="#000000" shape-type="text" id="" font-size="14.750000" x="453" y="271">%</text>
<text font-family="宋体" text-anchor="start" fill="#000000" shape-type="text" id="" font-size="12.500000" x="424" y="251">LIC</text>
<text font-family="宋体" text-anchor="start" fill="#000000" shape-type="text" id="" font-size="12.500000" x="704" y="132">Kpa</text>
<text font-family="宋体" text-anchor="start" fill="#000000" shape-type="text" id="" font-size="12.500000" x="131" y="185">0.00 %</text>
<text font-family="宋体" text-anchor="start" fill="#000000" shape-type="text" id="" font-size="12.500000" x="677" y="246">100.00 %</text>
<text font-family="宋体" text-anchor="start" fill="#000000" shape-type="text" id="" font-size="12.500000" x="525" y="619">0.00 %</text>
<text font-family="宋体" text-anchor="start" fill="#000000" shape-type="text" id="" font-size="12.500000" x="416" y="291">0.00 %</text>
<text font-family="宋体" text-anchor="start" fill="#000000" shape-type="text" id="" font-size="12.500000" x="853" y="343">100.00 %</text>
<text font-family="宋体" text-anchor="start" fill="#000000" shape-type="text" id="" font-size="12.500000" x="1199" y="488">0.00 %</text>
<text font-family="宋体" text-anchor="start" fill="#000000" shape-type="text" id="" font-size="14.750000" x="834" y="283">℃</text>
<text font-family="宋体" text-anchor="start" fill="#000000" shape-type="text" id="" font-size="14.750000" x="333" y="123">℃</text>
<text font-family="宋体" text-anchor="start" fill="#000000" shape-type="text" id="" font-size="14.750000" x="324" y="331">℃</text>
<text font-family="宋体" text-anchor="start" fill="#000000" shape-type="text" id="" font-size="14.750000" x="523" y="501">℃</text>
<text font-family="宋体" text-anchor="start" fill="#000000" shape-type="text" id="" font-size="14.750000" x="720" y="180">℃</text>
<line shape-type="limitline" x1="164" y1="215" x2="131" y2="215" fill="#FFFFFF" stroke="#808080" stroke-width="1.00" stroke-dasharray="5 10"/>
<line shape-type="limitline" x1="548" y1="633" x2="392" y2="633" fill="#FFFFFF" stroke="#808080" stroke-width="1.00" stroke-dasharray="5 10"/>
<line shape-type="limitline" x1="443" y1="315" x2="443" y2="279" fill="#FFFFFF" stroke="#808080" stroke-width="1.00" stroke-dasharray="5 10"/>
<line shape-type="limitline" x1="1224" y1="499" x2="1071" y2="499" fill="#FFFFFF" stroke="#808080" stroke-width="1.00" stroke-dasharray="5 10"/>
<line shape-type="limitline" x1="906" y1="126" x2="757" y2="126" fill="#FFFFFF" stroke="#808080" stroke-width="1.00" stroke-dasharray="5 10"/>
<line shape-type="limitline" x1="907" y1="351" x2="907" y2="126" fill="#FFFFFF" stroke="#808080" stroke-width="1.00" stroke-dasharray="5 10"/>
<text font-family="宋体" text-anchor="start" fill="#000000" shape-type="text" id="" font-size="12.500000" x="26" y="148">萃取剂来自主系统</text>
<text font-family="宋体" text-anchor="start" fill="#000000" shape-type="text" id="" font-size="12.500000" x="20" y="229">MS</text>
<text font-family="宋体" text-anchor="start" fill="#000000" shape-type="text" id="" font-size="12.500000" x="12" y="317">MC</text>
<text font-family="宋体" text-anchor="start" fill="#000000" shape-type="text" id="" font-size="20.750000" x="241" y="592">V-010</text>
<text font-family="宋体" text-anchor="start" fill="#000000" shape-type="text" id="" font-size="21.500000" x="271" y="258">V-003</text>
<text font-family="宋体" text-anchor="start" fill="#000000" shape-type="text" id="" font-size="17.750000" x="293" y="168">C-003</text>
<text font-family="宋体" text-anchor="start" fill="#000000" shape-type="text" id="" font-size="12.500000" x="1101" y="611">P-030</text>
<text font-family="宋体" text-anchor="start" fill="#000000" shape-type="text" id="" font-size="12.500000" x="374" y="747">P-010</text>
<text font-family="宋体" text-anchor="start" fill="#000000" shape-type="text" id="" font-size="12.500000" x="809" y="604">P-007</text>
<text font-family="宋体" text-anchor="start" fill="#000000" shape-type="text" id="" font-size="17.750000" x="685" y="220">E-010</text>
<text font-family="宋体" text-anchor="start" fill="#000000" shape-type="text" id="" font-size="23.750000" x="513" y="392">E-062</text>
<text font-family="宋体" text-anchor="start" fill="#000000" shape-type="text" id="" font-size="22.250000" x="1134" y="196">V-009</text>
<text font-family="宋体" text-anchor="start" fill="#000000" shape-type="text" id="" font-size="23.750000" x="904" y="506">V-030</text>
<text font-family="宋体" text-anchor="start" fill="#000000" shape-type="text" id="" font-size="12.500000" x="1429" y="62">BH</text>
<text font-family="宋体" text-anchor="start" fill="#000000" shape-type="text" id="" font-size="12.500000" x="1410" y="86">脱盐水</text>
<text font-family="宋体" text-anchor="start" fill="#000000" shape-type="text" id="" font-size="12.500000" x="1370" y="293">污水去v-004</text>
<text font-family="宋体" text-anchor="start" fill="#000000" shape-type="text" id="" font-size="12.500000" x="1284" y="414">萃取剂来自P-006</text>
<text font-family="宋体" text-anchor="start" fill="#000000" shape-type="text" id="" font-size="12.500000" x="1357" y="651">再生萃取剂去C-002</text>
<text font-family="宋体" text-anchor="start" fill="#000000" shape-type="text" id="" font-size="12.500000" x="1340" y="553">重物质去997工段V-705</text>
<line shape-type="limitline" x1="1428" y1="423" x2="988" y2="423" fill="#FFFFFF" stroke="#000000" stroke-width="1.00"/>
<g shape-type="group">
<polygon shape-type="trapezium" points="26,156 26,173 40,165 40,165 26,156" stroke="#000000" stroke-width="1.00"/>
<rect shape-type="rectangle" x="10" y="164" width="19" height="3" stroke="#000000" stroke-width="1.00"/>
</g>
<g shape-type="group">
<polygon shape-type="trapezium" points="1431,431 1431,415 1418,423 1418,423 1431,431" stroke="#000000" stroke-width="1.00"/>
<rect shape-type="rectangle" x="1428" y="420" width="20" height="3" stroke="#000000" stroke-width="1.00"/>
</g>
<g shape-type="button">
<rect fill="#C0C0C0" stroke-width="0.3" stroke="#FFFFFF" x="140" y="763" width="66" height="27" shape-type="buttonrect"/>
<text font-family="宋体" text-anchor="middle" dominant-baseline="middle" fill="#000000" font-size="13.500000" x="173" y="782" shape-type="buttontext">主页</text>
</g>
<g shape-type="button">
<rect fill="#C0C0C0" stroke-width="0.3" stroke="#FFFFFF" x="203" y="763" width="67" height="27" shape-type="buttonrect"/>
<text font-family="宋体" text-anchor="middle" dominant-baseline="middle" fill="#000000" font-size="13.500000" x="237" y="782" shape-type="buttontext">990总貌</text>
</g>
<g shape-type="button">
<rect fill="#C0C0C0" stroke-width="0.3" stroke="#FFFFFF" x="269" y="763" width="66" height="27" shape-type="buttonrect"/>
<text font-family="宋体" text-anchor="middle" dominant-baseline="middle" fill="#000000" font-size="13.500000" x="302" y="782" shape-type="buttontext">990-1</text>
</g>
<g shape-type="button">
<rect fill="#C0C0C0" stroke-width="0.3" stroke="#FFFFFF" x="334" y="763" width="66" height="27" shape-type="buttonrect"/>
<text font-family="宋体" text-anchor="middle" dominant-baseline="middle" fill="#000000" font-size="13.500000" x="367" y="782" shape-type="buttontext">990-2</text>
</g>
<g shape-type="button">
<rect fill="#C0C0C0" stroke-width="0.3" stroke="#FFFFFF" x="398" y="763" width="66" height="27" shape-type="buttonrect"/>
<text font-family="宋体" text-anchor="middle" dominant-baseline="middle" fill="#000000" font-size="13.500000" x="431" y="782" shape-type="buttontext">990-3</text>
</g>
<g shape-type="button">
<rect fill="#C0C0C0" stroke-width="0.3" stroke="#FFFFFF" x="464" y="763" width="67" height="27" shape-type="buttonrect"/>
<text font-family="宋体" text-anchor="middle" dominant-baseline="middle" fill="#000000" font-size="13.500000" x="498" y="782" shape-type="buttontext">990-4</text>
</g>
<g shape-type="button">
<rect fill="#C0C0C0" stroke-width="0.3" stroke="#FFFFFF" x="528" y="763" width="67" height="27" shape-type="buttonrect"/>
<text font-family="宋体" text-anchor="middle" dominant-baseline="middle" fill="#000000" font-size="13.500000" x="562" y="782" shape-type="buttontext">990-5</text>
</g>
<g shape-type="button">
<rect fill="#C0C0C0" stroke-width="0.3" stroke="#FFFFFF" x="594" y="763" width="67" height="27" shape-type="buttonrect"/>
<text font-family="宋体" text-anchor="middle" dominant-baseline="middle" fill="#000000" font-size="13.500000" x="628" y="782" shape-type="buttontext">990-6</text>
</g>
<g shape-type="button">
<rect fill="#C0C0C0" stroke-width="0.3" stroke="#FFFFFF" x="657" y="763" width="67" height="27" shape-type="buttonrect"/>
<text font-family="宋体" text-anchor="middle" dominant-baseline="middle" fill="#000000" font-size="13.500000" x="691" y="782" shape-type="buttontext">990-7</text>
</g>
<g shape-type="button">
<rect fill="#C0C0C0" stroke-width="0.3" stroke="#FFFFFF" x="722" y="763" width="66" height="27" shape-type="buttonrect"/>
<text font-family="宋体" text-anchor="middle" dominant-baseline="middle" fill="#000000" font-size="13.500000" x="755" y="782" shape-type="buttontext">990-8</text>
</g>
<g shape-type="button">
<rect fill="#C0C0C0" stroke-width="0.3" stroke="#FFFFFF" x="786" y="763" width="67" height="27" shape-type="buttonrect"/>
<text font-family="宋体" text-anchor="middle" dominant-baseline="middle" fill="#000000" font-size="13.500000" x="819" y="782" shape-type="buttontext">990-9</text>
</g>
<g shape-type="button">
<rect fill="#C0C0C0" stroke-width="0.3" stroke="#FFFFFF" x="850" y="762" width="67" height="28" shape-type="buttonrect"/>
<text font-family="宋体" text-anchor="middle" dominant-baseline="middle" fill="#000000" font-size="13.500000" x="883" y="782" shape-type="buttontext">990-10</text>
</g>
<text font-family="宋体" text-anchor="start" fill="#000000" shape-type="text" id="" font-size="34.250000" x="632" y="50">丁烯提浓工段八</text>
<a xlink:href="..\梨树总图.svg">
<g shape-type="button">
<rect fill="#C0C0C0" stroke-width="0.3" stroke="#FFFFFF" x="1413" y="729" width="51" height="29" shape-type="buttonrect"/>
<text font-family="宋体" text-anchor="middle" dominant-baseline="middle" fill="#000000" font-size="13.500000" x="1438" y="749" shape-type="buttontext">返回</text>
</g>
</a>
</svg>