<svg xmlns="http://www.w3.org/2000/svg" xmlns:xlink="http://www.w3.org/1999/xlink" version="1.1" style="background-color:#7DB6C1" width="1062" height="669" viewbox="0 0 1062 669"><defs>
</defs>
<g shape-type="group">
<rect shape-type="rectangle" x="44" y="78" width="72" height="18" fill="#008080" stroke="#000000" stroke-width="1.00"/>
<rect shape-type="rectangle" x="44" y="95" width="72" height="18" fill="#008080" stroke="#000000" stroke-width="1.00"/>
</g>
<rect shape-type="rectangle" x="131" y="54" width="18" height="80" fill="#FFFFFF" stroke="#000000" stroke-width="1.00"/>
<g shape-type="group">
<rect shape-type="rectangle" x="44" y="195" width="72" height="18" fill="#008080" stroke="#000000" stroke-width="1.00"/>
<rect shape-type="rectangle" x="44" y="211" width="72" height="18" fill="#008080" stroke="#000000" stroke-width="1.00"/>
</g>
<rect shape-type="rectangle" x="131" y="171" width="18" height="80" fill="#FFFFFF" stroke="#000000" stroke-width="1.00"/>
<g shape-type="group">
<rect shape-type="rectangle" x="44" y="311" width="72" height="18" fill="#008080" stroke="#000000" stroke-width="1.00"/>
<rect shape-type="rectangle" x="44" y="328" width="72" height="18" fill="#008080" stroke="#000000" stroke-width="1.00"/>
</g>
<rect shape-type="rectangle" x="131" y="288" width="18" height="79" fill="#FFFFFF" stroke="#000000" stroke-width="1.00"/>
<g shape-type="group">
<rect shape-type="rectangle" x="44" y="427" width="72" height="18" fill="#008080" stroke="#000000" stroke-width="1.00"/>
<rect shape-type="rectangle" x="44" y="444" width="72" height="17" fill="#008080" stroke="#000000" stroke-width="1.00"/>
</g>
<rect shape-type="rectangle" x="131" y="403" width="18" height="80" fill="#FFFFFF" stroke="#000000" stroke-width="1.00"/>
<g shape-type="group">
<rect shape-type="rectangle" x="45" y="544" width="72" height="17" fill="#008080" stroke="#000000" stroke-width="1.00"/>
<rect shape-type="rectangle" x="45" y="560" width="72" height="18" fill="#008080" stroke="#000000" stroke-width="1.00"/>
</g>
<rect shape-type="rectangle" x="132" y="520" width="18" height="80" fill="#FFFFFF" stroke="#000000" stroke-width="1.00"/>
<g shape-type="group">
<rect shape-type="rectangle" x="44" y="660" width="72" height="18" fill="#008080" stroke="#000000" stroke-width="1.00"/>
<rect shape-type="rectangle" x="44" y="677" width="72" height="18" fill="#008080" stroke="#000000" stroke-width="1.00"/>
</g>
<rect shape-type="rectangle" x="131" y="636" width="18" height="81" fill="#FFFFFF" stroke="#000000" stroke-width="1.00"/>
<g shape-type="group">
<rect shape-type="rectangle" x="183" y="81" width="71" height="18" fill="#008080" stroke="#000000" stroke-width="1.00"/>
<rect shape-type="rectangle" x="183" y="98" width="71" height="18" fill="#008080" stroke="#000000" stroke-width="1.00"/>
</g>
<rect shape-type="rectangle" x="270" y="57" width="18" height="81" fill="#FFFFFF" stroke="#000000" stroke-width="1.00"/>
<g shape-type="group">
<rect shape-type="rectangle" x="183" y="198" width="71" height="18" fill="#008080" stroke="#000000" stroke-width="1.00"/>
<rect shape-type="rectangle" x="183" y="215" width="71" height="17" fill="#008080" stroke="#000000" stroke-width="1.00"/>
</g>
<rect shape-type="rectangle" x="270" y="174" width="18" height="80" fill="#FFFFFF" stroke="#000000" stroke-width="1.00"/>
<g shape-type="group">
<rect shape-type="rectangle" x="183" y="315" width="71" height="17" fill="#008080" stroke="#000000" stroke-width="1.00"/>
<rect shape-type="rectangle" x="183" y="331" width="71" height="18" fill="#008080" stroke="#000000" stroke-width="1.00"/>
</g>
<rect shape-type="rectangle" x="270" y="291" width="18" height="79" fill="#FFFFFF" stroke="#000000" stroke-width="1.00"/>
<g shape-type="group">
<rect shape-type="rectangle" x="183" y="430" width="71" height="18" fill="#008080" stroke="#000000" stroke-width="1.00"/>
<rect shape-type="rectangle" x="183" y="447" width="71" height="18" fill="#008080" stroke="#000000" stroke-width="1.00"/>
</g>
<rect shape-type="rectangle" x="270" y="406" width="18" height="80" fill="#FFFFFF" stroke="#000000" stroke-width="1.00"/>
<g shape-type="group">
<rect shape-type="rectangle" x="183" y="547" width="71" height="18" fill="#008080" stroke="#000000" stroke-width="1.00"/>
<rect shape-type="rectangle" x="183" y="564" width="71" height="17" fill="#008080" stroke="#000000" stroke-width="1.00"/>
</g>
<rect shape-type="rectangle" x="270" y="523" width="18" height="80" fill="#FFFFFF" stroke="#000000" stroke-width="1.00"/>
<g shape-type="group">
<rect shape-type="rectangle" x="183" y="664" width="71" height="17" fill="#008080" stroke="#000000" stroke-width="1.00"/>
<rect shape-type="rectangle" x="183" y="680" width="71" height="18" fill="#008080" stroke="#000000" stroke-width="1.00"/>
</g>
<rect shape-type="rectangle" x="270" y="640" width="18" height="80" fill="#FFFFFF" stroke="#000000" stroke-width="1.00"/>
<g shape-type="group">
<rect shape-type="rectangle" x="324" y="78" width="72" height="18" fill="#008080" stroke="#000000" stroke-width="1.00"/>
<rect shape-type="rectangle" x="324" y="95" width="72" height="18" fill="#008080" stroke="#000000" stroke-width="1.00"/>
</g>
<rect shape-type="rectangle" x="411" y="54" width="18" height="80" fill="#FFFFFF" stroke="#000000" stroke-width="1.00"/>
<g shape-type="group">
<rect shape-type="rectangle" x="324" y="195" width="72" height="18" fill="#008080" stroke="#000000" stroke-width="1.00"/>
<rect shape-type="rectangle" x="324" y="211" width="72" height="18" fill="#008080" stroke="#000000" stroke-width="1.00"/>
</g>
<rect shape-type="rectangle" x="411" y="171" width="18" height="80" fill="#FFFFFF" stroke="#000000" stroke-width="1.00"/>
<g shape-type="group">
<rect shape-type="rectangle" x="324" y="311" width="72" height="18" fill="#008080" stroke="#000000" stroke-width="1.00"/>
<rect shape-type="rectangle" x="324" y="328" width="72" height="18" fill="#008080" stroke="#000000" stroke-width="1.00"/>
</g>
<rect shape-type="rectangle" x="411" y="288" width="18" height="79" fill="#FFFFFF" stroke="#000000" stroke-width="1.00"/>
<g shape-type="group">
<rect shape-type="rectangle" x="324" y="427" width="72" height="18" fill="#008080" stroke="#000000" stroke-width="1.00"/>
<rect shape-type="rectangle" x="324" y="444" width="72" height="17" fill="#008080" stroke="#000000" stroke-width="1.00"/>
</g>
<rect shape-type="rectangle" x="411" y="403" width="18" height="80" fill="#FFFFFF" stroke="#000000" stroke-width="1.00"/>
<g shape-type="group">
<rect shape-type="rectangle" x="324" y="544" width="72" height="17" fill="#008080" stroke="#000000" stroke-width="1.00"/>
<rect shape-type="rectangle" x="324" y="560" width="72" height="18" fill="#008080" stroke="#000000" stroke-width="1.00"/>
</g>
<rect shape-type="rectangle" x="411" y="520" width="18" height="80" fill="#FFFFFF" stroke="#000000" stroke-width="1.00"/>
<g shape-type="group">
<rect shape-type="rectangle" x="324" y="660" width="72" height="18" fill="#008080" stroke="#000000" stroke-width="1.00"/>
<rect shape-type="rectangle" x="324" y="677" width="72" height="18" fill="#008080" stroke="#000000" stroke-width="1.00"/>
</g>
<rect shape-type="rectangle" x="411" y="636" width="18" height="81" fill="#FFFFFF" stroke="#000000" stroke-width="1.00"/>
<g shape-type="group">
<rect shape-type="rectangle" x="465" y="78" width="71" height="18" fill="#008080" stroke="#000000" stroke-width="1.00"/>
<rect shape-type="rectangle" x="465" y="95" width="71" height="18" fill="#008080" stroke="#000000" stroke-width="1.00"/>
</g>
<rect shape-type="rectangle" x="552" y="54" width="18" height="80" fill="#FFFFFF" stroke="#000000" stroke-width="1.00"/>
<g shape-type="group">
<rect shape-type="rectangle" x="466" y="195" width="72" height="18" fill="#008080" stroke="#000000" stroke-width="1.00"/>
<rect shape-type="rectangle" x="466" y="211" width="72" height="18" fill="#008080" stroke="#000000" stroke-width="1.00"/>
</g>
<rect shape-type="rectangle" x="552" y="171" width="18" height="80" fill="#FFFFFF" stroke="#000000" stroke-width="1.00"/>
<g shape-type="group">
<rect shape-type="rectangle" x="466" y="311" width="72" height="18" fill="#008080" stroke="#000000" stroke-width="1.00"/>
<rect shape-type="rectangle" x="466" y="328" width="72" height="18" fill="#008080" stroke="#000000" stroke-width="1.00"/>
</g>
<rect shape-type="rectangle" x="552" y="288" width="18" height="79" fill="#FFFFFF" stroke="#000000" stroke-width="1.00"/>
<g shape-type="group">
<rect shape-type="rectangle" x="465" y="427" width="71" height="18" fill="#008080" stroke="#000000" stroke-width="1.00"/>
<rect shape-type="rectangle" x="465" y="444" width="71" height="17" fill="#008080" stroke="#000000" stroke-width="1.00"/>
</g>
<rect shape-type="rectangle" x="552" y="403" width="18" height="80" fill="#FFFFFF" stroke="#000000" stroke-width="1.00"/>
<g shape-type="group">
<rect shape-type="rectangle" x="465" y="544" width="71" height="17" fill="#008080" stroke="#000000" stroke-width="1.00"/>
<rect shape-type="rectangle" x="465" y="560" width="71" height="18" fill="#008080" stroke="#000000" stroke-width="1.00"/>
</g>
<rect shape-type="rectangle" x="552" y="520" width="18" height="80" fill="#FFFFFF" stroke="#000000" stroke-width="1.00"/>
<g shape-type="group">
<rect shape-type="rectangle" x="465" y="660" width="71" height="18" fill="#008080" stroke="#000000" stroke-width="1.00"/>
<rect shape-type="rectangle" x="465" y="677" width="71" height="18" fill="#008080" stroke="#000000" stroke-width="1.00"/>
</g>
<rect shape-type="rectangle" x="552" y="636" width="18" height="81" fill="#FFFFFF" stroke="#000000" stroke-width="1.00"/>
<g shape-type="group">
<rect shape-type="rectangle" x="605" y="78" width="72" height="18" fill="#008080" stroke="#000000" stroke-width="1.00"/>
<rect shape-type="rectangle" x="605" y="95" width="72" height="18" fill="#008080" stroke="#000000" stroke-width="1.00"/>
</g>
<rect shape-type="rectangle" x="693" y="54" width="17" height="80" fill="#FFFFFF" stroke="#000000" stroke-width="1.00"/>
<g shape-type="group">
<rect shape-type="rectangle" x="604" y="195" width="72" height="18" fill="#008080" stroke="#000000" stroke-width="1.00"/>
<rect shape-type="rectangle" x="604" y="211" width="72" height="18" fill="#008080" stroke="#000000" stroke-width="1.00"/>
</g>
<rect shape-type="rectangle" x="693" y="171" width="17" height="80" fill="#FFFFFF" stroke="#000000" stroke-width="1.00"/>
<g shape-type="group">
<rect shape-type="rectangle" x="604" y="311" width="72" height="18" fill="#008080" stroke="#000000" stroke-width="1.00"/>
<rect shape-type="rectangle" x="604" y="328" width="72" height="18" fill="#008080" stroke="#000000" stroke-width="1.00"/>
</g>
<rect shape-type="rectangle" x="693" y="288" width="17" height="79" fill="#FFFFFF" stroke="#000000" stroke-width="1.00"/>
<g shape-type="group">
<rect shape-type="rectangle" x="604" y="427" width="72" height="18" fill="#008080" stroke="#000000" stroke-width="1.00"/>
<rect shape-type="rectangle" x="604" y="444" width="72" height="17" fill="#008080" stroke="#000000" stroke-width="1.00"/>
</g>
<rect shape-type="rectangle" x="693" y="403" width="17" height="80" fill="#FFFFFF" stroke="#000000" stroke-width="1.00"/>
<g shape-type="group">
<rect shape-type="rectangle" x="604" y="544" width="72" height="17" fill="#008080" stroke="#000000" stroke-width="1.00"/>
<rect shape-type="rectangle" x="604" y="560" width="72" height="18" fill="#008080" stroke="#000000" stroke-width="1.00"/>
</g>
<rect shape-type="rectangle" x="693" y="520" width="17" height="80" fill="#FFFFFF" stroke="#000000" stroke-width="1.00"/>
<g shape-type="group">
<rect shape-type="rectangle" x="604" y="660" width="72" height="18" fill="#008080" stroke="#000000" stroke-width="1.00"/>
<rect shape-type="rectangle" x="604" y="677" width="72" height="18" fill="#008080" stroke="#000000" stroke-width="1.00"/>
</g>
<rect shape-type="rectangle" x="693" y="636" width="17" height="81" fill="#FFFFFF" stroke="#000000" stroke-width="1.00"/>
<g shape-type="group">
<rect shape-type="rectangle" x="746" y="78" width="72" height="18" fill="#008080" stroke="#000000" stroke-width="1.00"/>
<rect shape-type="rectangle" x="746" y="95" width="72" height="18" fill="#008080" stroke="#000000" stroke-width="1.00"/>
</g>
<rect shape-type="rectangle" x="833" y="54" width="18" height="80" fill="#FFFFFF" stroke="#000000" stroke-width="1.00"/>
<g shape-type="group">
<rect shape-type="rectangle" x="745" y="195" width="72" height="18" fill="#008080" stroke="#000000" stroke-width="1.00"/>
<rect shape-type="rectangle" x="745" y="211" width="72" height="18" fill="#008080" stroke="#000000" stroke-width="1.00"/>
</g>
<rect shape-type="rectangle" x="833" y="171" width="18" height="80" fill="#FFFFFF" stroke="#000000" stroke-width="1.00"/>
<g shape-type="group">
<rect shape-type="rectangle" x="745" y="311" width="72" height="18" fill="#008080" stroke="#000000" stroke-width="1.00"/>
<rect shape-type="rectangle" x="745" y="328" width="72" height="18" fill="#008080" stroke="#000000" stroke-width="1.00"/>
</g>
<rect shape-type="rectangle" x="833" y="288" width="18" height="79" fill="#FFFFFF" stroke="#000000" stroke-width="1.00"/>
<g shape-type="group">
<rect shape-type="rectangle" x="745" y="427" width="72" height="18" fill="#008080" stroke="#000000" stroke-width="1.00"/>
<rect shape-type="rectangle" x="745" y="444" width="72" height="17" fill="#008080" stroke="#000000" stroke-width="1.00"/>
</g>
<rect shape-type="rectangle" x="833" y="403" width="18" height="80" fill="#FFFFFF" stroke="#000000" stroke-width="1.00"/>
<g shape-type="group">
<rect shape-type="rectangle" x="745" y="544" width="72" height="17" fill="#008080" stroke="#000000" stroke-width="1.00"/>
<rect shape-type="rectangle" x="745" y="560" width="72" height="18" fill="#008080" stroke="#000000" stroke-width="1.00"/>
</g>
<rect shape-type="rectangle" x="833" y="520" width="18" height="80" fill="#FFFFFF" stroke="#000000" stroke-width="1.00"/>
<g shape-type="group">
<rect shape-type="rectangle" x="745" y="660" width="72" height="18" fill="#008080" stroke="#000000" stroke-width="1.00"/>
<rect shape-type="rectangle" x="745" y="677" width="72" height="18" fill="#008080" stroke="#000000" stroke-width="1.00"/>
</g>
<rect shape-type="rectangle" x="833" y="636" width="18" height="81" fill="#FFFFFF" stroke="#000000" stroke-width="1.00"/>
<g shape-type="group">
<rect shape-type="rectangle" x="886" y="78" width="72" height="18" fill="#008080" stroke="#000000" stroke-width="1.00"/>
<rect shape-type="rectangle" x="886" y="95" width="72" height="18" fill="#008080" stroke="#000000" stroke-width="1.00"/>
</g>
<rect shape-type="rectangle" x="974" y="54" width="18" height="80" fill="#FFFFFF" stroke="#000000" stroke-width="1.00"/>
<g shape-type="group">
<rect shape-type="rectangle" x="885" y="195" width="72" height="18" fill="#008080" stroke="#000000" stroke-width="1.00"/>
<rect shape-type="rectangle" x="885" y="211" width="72" height="18" fill="#008080" stroke="#000000" stroke-width="1.00"/>
</g>
<rect shape-type="rectangle" x="974" y="171" width="18" height="80" fill="#FFFFFF" stroke="#000000" stroke-width="1.00"/>
<g shape-type="group">
<rect shape-type="rectangle" x="885" y="311" width="72" height="18" fill="#008080" stroke="#000000" stroke-width="1.00"/>
<rect shape-type="rectangle" x="885" y="328" width="72" height="18" fill="#008080" stroke="#000000" stroke-width="1.00"/>
</g>
<rect shape-type="rectangle" x="974" y="288" width="18" height="79" fill="#FFFFFF" stroke="#000000" stroke-width="1.00"/>
<g shape-type="group">
<rect shape-type="rectangle" x="885" y="427" width="72" height="18" fill="#008080" stroke="#000000" stroke-width="1.00"/>
<rect shape-type="rectangle" x="885" y="444" width="72" height="17" fill="#008080" stroke="#000000" stroke-width="1.00"/>
</g>
<rect shape-type="rectangle" x="974" y="403" width="18" height="80" fill="#FFFFFF" stroke="#000000" stroke-width="1.00"/>
<g shape-type="group">
<rect shape-type="rectangle" x="885" y="544" width="72" height="17" fill="#008080" stroke="#000000" stroke-width="1.00"/>
<rect shape-type="rectangle" x="885" y="560" width="72" height="18" fill="#008080" stroke="#000000" stroke-width="1.00"/>
</g>
<rect shape-type="rectangle" x="974" y="520" width="18" height="80" fill="#FFFFFF" stroke="#000000" stroke-width="1.00"/>
<g shape-type="group">
<rect shape-type="rectangle" x="885" y="660" width="72" height="18" fill="#008080" stroke="#000000" stroke-width="1.00"/>
<rect shape-type="rectangle" x="885" y="677" width="72" height="18" fill="#008080" stroke="#000000" stroke-width="1.00"/>
</g>
<rect shape-type="rectangle" x="974" y="636" width="18" height="81" fill="#FFFFFF" stroke="#000000" stroke-width="1.00"/>
<g shape-type="group">
<rect shape-type="rectangle" x="1027" y="78" width="72" height="18" fill="#008080" stroke="#000000" stroke-width="1.00"/>
<rect shape-type="rectangle" x="1027" y="95" width="72" height="18" fill="#008080" stroke="#000000" stroke-width="1.00"/>
</g>
<rect shape-type="rectangle" x="1115" y="54" width="17" height="80" fill="#FFFFFF" stroke="#000000" stroke-width="1.00"/>
<g shape-type="group">
<rect shape-type="rectangle" x="1026" y="195" width="72" height="18" fill="#008080" stroke="#000000" stroke-width="1.00"/>
<rect shape-type="rectangle" x="1026" y="211" width="72" height="18" fill="#008080" stroke="#000000" stroke-width="1.00"/>
</g>
<rect shape-type="rectangle" x="1115" y="171" width="17" height="80" fill="#FFFFFF" stroke="#000000" stroke-width="1.00"/>
<g shape-type="group">
<rect shape-type="rectangle" x="1026" y="311" width="72" height="18" fill="#008080" stroke="#000000" stroke-width="1.00"/>
<rect shape-type="rectangle" x="1026" y="328" width="72" height="18" fill="#008080" stroke="#000000" stroke-width="1.00"/>
</g>
<rect shape-type="rectangle" x="1115" y="288" width="17" height="79" fill="#FFFFFF" stroke="#000000" stroke-width="1.00"/>
<g shape-type="group">
<rect shape-type="rectangle" x="1026" y="427" width="72" height="18" fill="#008080" stroke="#000000" stroke-width="1.00"/>
<rect shape-type="rectangle" x="1026" y="444" width="72" height="17" fill="#008080" stroke="#000000" stroke-width="1.00"/>
</g>
<rect shape-type="rectangle" x="1115" y="403" width="17" height="80" fill="#FFFFFF" stroke="#000000" stroke-width="1.00"/>
<g shape-type="group">
<rect shape-type="rectangle" x="1026" y="544" width="72" height="17" fill="#008080" stroke="#000000" stroke-width="1.00"/>
<rect shape-type="rectangle" x="1026" y="560" width="72" height="18" fill="#008080" stroke="#000000" stroke-width="1.00"/>
</g>
<rect shape-type="rectangle" x="1115" y="520" width="17" height="80" fill="#FFFFFF" stroke="#000000" stroke-width="1.00"/>
<g shape-type="group">
<rect shape-type="rectangle" x="1026" y="660" width="72" height="18" fill="#008080" stroke="#000000" stroke-width="1.00"/>
<rect shape-type="rectangle" x="1026" y="677" width="72" height="18" fill="#008080" stroke="#000000" stroke-width="1.00"/>
</g>
<rect shape-type="rectangle" x="1115" y="636" width="17" height="81" fill="#FFFFFF" stroke="#000000" stroke-width="1.00"/>
<g shape-type="group">
<rect shape-type="rectangle" x="1168" y="78" width="72" height="18" fill="#008080" stroke="#000000" stroke-width="1.00"/>
<rect shape-type="rectangle" x="1168" y="95" width="72" height="18" fill="#008080" stroke="#000000" stroke-width="1.00"/>
</g>
<rect shape-type="rectangle" x="1255" y="54" width="18" height="80" fill="#FFFFFF" stroke="#000000" stroke-width="1.00"/>
<g shape-type="group">
<rect shape-type="rectangle" x="1308" y="78" width="71" height="18" fill="#008080" stroke="#000000" stroke-width="1.00"/>
<rect shape-type="rectangle" x="1308" y="95" width="71" height="18" fill="#008080" stroke="#000000" stroke-width="1.00"/>
</g>
<rect shape-type="rectangle" x="1395" y="54" width="18" height="80" fill="#FFFFFF" stroke="#000000" stroke-width="1.00"/>
<g shape-type="group">
<rect shape-type="rectangle" x="1167" y="195" width="72" height="18" fill="#008080" stroke="#000000" stroke-width="1.00"/>
<rect shape-type="rectangle" x="1167" y="211" width="72" height="18" fill="#008080" stroke="#000000" stroke-width="1.00"/>
</g>
<rect shape-type="rectangle" x="1255" y="171" width="18" height="80" fill="#FFFFFF" stroke="#000000" stroke-width="1.00"/>
<g shape-type="group">
<rect shape-type="rectangle" x="1167" y="311" width="72" height="18" fill="#008080" stroke="#000000" stroke-width="1.00"/>
<rect shape-type="rectangle" x="1167" y="328" width="72" height="18" fill="#008080" stroke="#000000" stroke-width="1.00"/>
</g>
<rect shape-type="rectangle" x="1255" y="288" width="18" height="79" fill="#FFFFFF" stroke="#000000" stroke-width="1.00"/>
<g shape-type="group">
<rect shape-type="rectangle" x="1167" y="427" width="72" height="18" fill="#008080" stroke="#000000" stroke-width="1.00"/>
<rect shape-type="rectangle" x="1167" y="444" width="72" height="17" fill="#008080" stroke="#000000" stroke-width="1.00"/>
</g>
<rect shape-type="rectangle" x="1255" y="403" width="18" height="80" fill="#FFFFFF" stroke="#000000" stroke-width="1.00"/>
<g shape-type="group">
<rect shape-type="rectangle" x="1167" y="544" width="72" height="17" fill="#008080" stroke="#000000" stroke-width="1.00"/>
<rect shape-type="rectangle" x="1167" y="560" width="72" height="18" fill="#008080" stroke="#000000" stroke-width="1.00"/>
</g>
<rect shape-type="rectangle" x="1255" y="520" width="18" height="80" fill="#FFFFFF" stroke="#000000" stroke-width="1.00"/>
<g shape-type="group">
<rect shape-type="rectangle" x="1167" y="660" width="72" height="18" fill="#008080" stroke="#000000" stroke-width="1.00"/>
<rect shape-type="rectangle" x="1167" y="677" width="72" height="18" fill="#008080" stroke="#000000" stroke-width="1.00"/>
</g>
<rect shape-type="rectangle" x="1255" y="636" width="18" height="81" fill="#FFFFFF" stroke="#000000" stroke-width="1.00"/>
<g shape-type="group">
<rect shape-type="rectangle" x="1307" y="195" width="71" height="18" fill="#008080" stroke="#000000" stroke-width="1.00"/>
<rect shape-type="rectangle" x="1307" y="211" width="71" height="18" fill="#008080" stroke="#000000" stroke-width="1.00"/>
</g>
<rect shape-type="rectangle" x="1395" y="171" width="18" height="80" fill="#FFFFFF" stroke="#000000" stroke-width="1.00"/>
<g shape-type="group">
<rect shape-type="rectangle" x="1307" y="311" width="71" height="18" fill="#008080" stroke="#000000" stroke-width="1.00"/>
<rect shape-type="rectangle" x="1307" y="328" width="71" height="18" fill="#008080" stroke="#000000" stroke-width="1.00"/>
</g>
<rect shape-type="rectangle" x="1395" y="288" width="18" height="79" fill="#FFFFFF" stroke="#000000" stroke-width="1.00"/>
<g shape-type="group">
<rect shape-type="rectangle" x="1307" y="427" width="71" height="18" fill="#008080" stroke="#000000" stroke-width="1.00"/>
<rect shape-type="rectangle" x="1307" y="444" width="71" height="17" fill="#008080" stroke="#000000" stroke-width="1.00"/>
</g>
<rect shape-type="rectangle" x="1395" y="403" width="18" height="80" fill="#FFFFFF" stroke="#000000" stroke-width="1.00"/>
<g shape-type="group">
<rect shape-type="rectangle" x="1307" y="544" width="71" height="17" fill="#008080" stroke="#000000" stroke-width="1.00"/>
<rect shape-type="rectangle" x="1307" y="560" width="71" height="18" fill="#008080" stroke="#000000" stroke-width="1.00"/>
</g>
<rect shape-type="rectangle" x="1395" y="520" width="18" height="80" fill="#FFFFFF" stroke="#000000" stroke-width="1.00"/>
<text font-family="宋体" text-anchor="start" fill="#000000" shape-type="text" id="" font-size="12.500000" x="65" y="92">GT</text>
<text font-family="宋体" text-anchor="start" fill="#000000" shape-type="text" id="" font-size="12.500000" x="68" y="208">GT</text>
<text font-family="宋体" text-anchor="start" fill="#000000" shape-type="text" id="" font-size="12.500000" x="66" y="324">GT</text>
<text font-family="宋体" text-anchor="start" fill="#000000" shape-type="text" id="" font-size="12.500000" x="68" y="440">GT</text>
<text font-family="宋体" text-anchor="start" fill="#000000" shape-type="text" id="" font-size="12.500000" x="67" y="557">GT</text>
<text font-family="宋体" text-anchor="start" fill="#000000" shape-type="text" id="" font-size="12.500000" x="65" y="674">GT</text>
<text font-family="宋体" text-anchor="start" fill="#000000" shape-type="text" id="" font-size="12.500000" x="210" y="94">GT</text>
<text font-family="宋体" text-anchor="start" fill="#000000" shape-type="text" id="" font-size="12.500000" x="210" y="210">GT</text>
<text font-family="宋体" text-anchor="start" fill="#000000" shape-type="text" id="" font-size="12.500000" x="209" y="329">GT</text>
<text font-family="宋体" text-anchor="start" fill="#000000" shape-type="text" id="" font-size="12.500000" x="211" y="445">GT</text>
<text font-family="宋体" text-anchor="start" fill="#000000" shape-type="text" id="" font-size="12.500000" x="208" y="560">GT</text>
<text font-family="宋体" text-anchor="start" fill="#000000" shape-type="text" id="" font-size="12.500000" x="205" y="677">GT</text>
<text font-family="宋体" text-anchor="start" fill="#000000" shape-type="text" id="" font-size="12.500000" x="350" y="92">GT</text>
<text font-family="宋体" text-anchor="start" fill="#000000" shape-type="text" id="" font-size="12.500000" x="347" y="208">GT</text>
<text font-family="宋体" text-anchor="start" fill="#000000" shape-type="text" id="" font-size="12.500000" x="349" y="324">GT</text>
<text font-family="宋体" text-anchor="start" fill="#000000" shape-type="text" id="" font-size="12.500000" x="349" y="439">GT</text>
<text font-family="宋体" text-anchor="start" fill="#000000" shape-type="text" id="" font-size="12.500000" x="497" y="441">GT</text>
<text font-family="宋体" text-anchor="start" fill="#000000" shape-type="text" id="" font-size="12.500000" x="495" y="557">GT</text>
<text font-family="宋体" text-anchor="start" fill="#000000" shape-type="text" id="" font-size="12.500000" x="485" y="673">GT</text>
<text font-family="宋体" text-anchor="start" fill="#000000" shape-type="text" id="" font-size="12.500000" x="350" y="558">GT</text>
<text font-family="宋体" text-anchor="start" fill="#000000" shape-type="text" id="" font-size="12.500000" x="351" y="673">GT</text>
<text font-family="宋体" text-anchor="start" fill="#000000" shape-type="text" id="" font-size="12.500000" x="489" y="208">GT</text>
<text font-family="宋体" text-anchor="start" fill="#000000" shape-type="text" id="" font-size="12.500000" x="490" y="93">GT</text>
<text font-family="宋体" text-anchor="start" fill="#000000" shape-type="text" id="" font-size="12.500000" x="492" y="324">GT</text>
<text font-family="宋体" text-anchor="start" fill="#000000" shape-type="text" id="" font-size="12.500000" x="636" y="91">GT</text>
<text font-family="宋体" text-anchor="start" fill="#000000" shape-type="text" id="" font-size="12.500000" x="629" y="209">GT</text>
<text font-family="宋体" text-anchor="start" fill="#000000" shape-type="text" id="" font-size="12.500000" x="631" y="324">GT</text>
<text font-family="宋体" text-anchor="start" fill="#000000" shape-type="text" id="" font-size="12.500000" x="633" y="439">GT</text>
<text font-family="宋体" text-anchor="start" fill="#000000" shape-type="text" id="" font-size="12.500000" x="628" y="556">GT</text>
<text font-family="宋体" text-anchor="start" fill="#000000" shape-type="text" id="" font-size="12.500000" x="628" y="673">GT</text>
<text font-family="宋体" text-anchor="start" fill="#000000" shape-type="text" id="" font-size="12.500000" x="769" y="91">GT</text>
<text font-family="宋体" text-anchor="start" fill="#000000" shape-type="text" id="" font-size="12.500000" x="912" y="91">GT</text>
<text font-family="宋体" text-anchor="start" fill="#000000" shape-type="text" id="" font-size="12.500000" x="1053" y="90">GT</text>
<text font-family="宋体" text-anchor="start" fill="#000000" shape-type="text" id="" font-size="12.500000" x="1200" y="90">GT</text>
<text font-family="宋体" text-anchor="start" fill="#000000" shape-type="text" id="" font-size="12.500000" x="1332" y="90">GT</text>
<text font-family="宋体" text-anchor="start" fill="#000000" shape-type="text" id="" font-size="12.500000" x="1337" y="209">GT</text>
<text font-family="宋体" text-anchor="start" fill="#000000" shape-type="text" id="" font-size="12.500000" x="1332" y="327">GT</text>
<text font-family="宋体" text-anchor="start" fill="#000000" shape-type="text" id="" font-size="12.500000" x="1199" y="208">GT</text>
<text font-family="宋体" text-anchor="start" fill="#000000" shape-type="text" id="" font-size="12.500000" x="1191" y="324">GT</text>
<text font-family="宋体" text-anchor="start" fill="#000000" shape-type="text" id="" font-size="12.500000" x="1186" y="439">GT</text>
<text font-family="宋体" text-anchor="start" fill="#000000" shape-type="text" id="" font-size="12.500000" x="1055" y="209">GT</text>
<text font-family="宋体" text-anchor="start" fill="#000000" shape-type="text" id="" font-size="12.500000" x="916" y="208">GT</text>
<text font-family="宋体" text-anchor="start" fill="#000000" shape-type="text" id="" font-size="12.500000" x="768" y="208">GT</text>
<text font-family="宋体" text-anchor="start" fill="#000000" shape-type="text" id="" font-size="12.500000" x="767" y="326">GT</text>
<text font-family="宋体" text-anchor="start" fill="#000000" shape-type="text" id="" font-size="12.500000" x="768" y="440">GT</text>
<text font-family="宋体" text-anchor="start" fill="#000000" shape-type="text" id="" font-size="12.500000" x="766" y="557">GT</text>
<text font-family="宋体" text-anchor="start" fill="#000000" shape-type="text" id="" font-size="12.500000" x="914" y="559">GT</text>
<text font-family="宋体" text-anchor="start" fill="#000000" shape-type="text" id="" font-size="12.500000" x="915" y="442">GT</text>
<text font-family="宋体" text-anchor="start" fill="#000000" shape-type="text" id="" font-size="12.500000" x="912" y="325">GT</text>
<text font-family="宋体" text-anchor="start" fill="#000000" shape-type="text" id="" font-size="12.500000" x="1052" y="324">GT</text>
<text font-family="宋体" text-anchor="start" fill="#000000" shape-type="text" id="" font-size="12.500000" x="1055" y="440">GT</text>
<text font-family="宋体" text-anchor="start" fill="#000000" shape-type="text" id="" font-size="12.500000" x="1333" y="440">GT</text>
<text font-family="宋体" text-anchor="start" fill="#000000" shape-type="text" id="" font-size="12.500000" x="1332" y="556">GT</text>
<text font-family="宋体" text-anchor="start" fill="#000000" shape-type="text" id="" font-size="12.500000" x="1194" y="557">GT</text>
<text font-family="宋体" text-anchor="start" fill="#000000" shape-type="text" id="" font-size="12.500000" x="1048" y="558">GT</text>
<text font-family="宋体" text-anchor="start" fill="#000000" shape-type="text" id="" font-size="12.500000" x="765" y="675">AT</text>
<text font-family="宋体" text-anchor="start" fill="#000000" shape-type="text" id="" font-size="12.500000" x="908" y="675">AT</text>
<text font-family="宋体" text-anchor="start" fill="#000000" shape-type="text" id="" font-size="12.500000" x="1050" y="674">AT</text>
<text font-family="宋体" text-anchor="start" fill="#000000" shape-type="text" id="" font-size="12.500000" x="1182" y="673">AT</text>
<g shape-type="button">
<rect fill="#C0C0C0" stroke-width="0.3" stroke="#FFFFFF" x="91" y="719" width="51" height="29" shape-type="buttonrect"/>
<text font-family="宋体" text-anchor="middle" dominant-baseline="middle" fill="#000000" font-size="13.500000" x="117" y="739" shape-type="buttontext">主页</text>
</g>
<text font-family="宋体" text-anchor="start" fill="#000000" shape-type="text" id="" font-size="39.500000" x="545" y="40">可燃气体报警</text>
<a xlink:href="..\梨树总图.svg">
<g shape-type="button">
<rect fill="#C0C0C0" stroke-width="0.3" stroke="#FFFFFF" x="1346" y="738" width="51" height="29" shape-type="buttonrect"/>
<text font-family="宋体" text-anchor="middle" dominant-baseline="middle" fill="#000000" font-size="13.500000" x="1371" y="758" shape-type="buttontext">返回</text>
</g>
</a>
</svg>