<svg xmlns="http://www.w3.org/2000/svg" xmlns:xlink="http://www.w3.org/1999/xlink" version="1.1" style="background-color:#7DB6C1" width="1062" height="669" viewbox="0 0 1062 669"><defs>
<radialGradient cx="50.000000%" cy="50.000000%" r="50.000000%" fx="50.000000%" fy="50.000000%" id="rgradient1_0">
<stop offset="0%" stop-color="#FFFFFF" stop-opacity="1"/>
<stop offset="100%" stop-color="#2C2C2C" stop-opacity="1"/>
</radialGradient>
<radialGradient cx="50.000000%" cy="50.000000%" r="50.000000%" fx="50.000000%" fy="50.000000%" id="rgradient1_1">
<stop offset="0%" stop-color="#FFFFFF" stop-opacity="1"/>
<stop offset="100%" stop-color="#2C2C2C" stop-opacity="1"/>
</radialGradient>
<linearGradient x1="0.000000%" y1="50.000000%" x2="100.000000%" y2="50.000000%" id="lgradient1_2">
<stop offset="0" stop-color="#2C2C2C" stop-opacity="1"/>
<stop offset="0.5" stop-color="#FFFFFF" stop-opacity="1"/>
<stop offset="1" stop-color="#2C2C2C" stop-opacity="1"/>
</linearGradient>
<radialGradient cx="50.000000%" cy="50.000000%" r="50.000000%" fx="50.000000%" fy="50.000000%" id="rgradient2_0">
<stop offset="0%" stop-color="#FFFFFF" stop-opacity="1"/>
<stop offset="100%" stop-color="#2C2C2C" stop-opacity="1"/>
</radialGradient>
<radialGradient cx="50.000000%" cy="50.000000%" r="50.000000%" fx="50.000000%" fy="50.000000%" id="rgradient2_1">
<stop offset="0%" stop-color="#FFFFFF" stop-opacity="1"/>
<stop offset="100%" stop-color="#2C2C2C" stop-opacity="1"/>
</radialGradient>
<linearGradient x1="0.000000%" y1="50.000000%" x2="100.000000%" y2="50.000000%" id="lgradient2_2">
<stop offset="0" stop-color="#2C2C2C" stop-opacity="1"/>
<stop offset="0.5" stop-color="#FFFFFF" stop-opacity="1"/>
<stop offset="1" stop-color="#2C2C2C" stop-opacity="1"/>
</linearGradient>
<linearGradient x1="0.000000%" y1="50.000000%" x2="100.000000%" y2="50.000000%" id="lgradient3_0_0">
<stop offset="0" stop-color="#2C2C2C" stop-opacity="1"/>
<stop offset="0.5" stop-color="#FFFFFF" stop-opacity="1"/>
<stop offset="1" stop-color="#2C2C2C" stop-opacity="1"/>
</linearGradient>
<linearGradient x1="50.000000%" y1="0.000000%" x2="50.000000%" y2="100.000000%" id="lgradient3_0_1">
<stop offset="0" stop-color="#2C2C2C" stop-opacity="1"/>
<stop offset="0.5" stop-color="#FFFFFF" stop-opacity="1"/>
<stop offset="1" stop-color="#2C2C2C" stop-opacity="1"/>
</linearGradient>
<radialGradient cx="50.000000%" cy="50.000000%" r="50.000000%" fx="50.000000%" fy="50.000000%" id="rgradient4_0_0">
<stop offset="0%" stop-color="#FFFFFF" stop-opacity="1"/>
<stop offset="100%" stop-color="#2C2C2C" stop-opacity="1"/>
</radialGradient>
<radialGradient cx="50.000000%" cy="50.000000%" r="50.000000%" fx="50.000000%" fy="50.000000%" id="rgradient4_0_1">
<stop offset="0%" stop-color="#FFFFFF" stop-opacity="1"/>
<stop offset="100%" stop-color="#2C2C2C" stop-opacity="1"/>
</radialGradient>
<linearGradient x1="0.000000%" y1="50.000000%" x2="100.000000%" y2="50.000000%" id="lgradient4_0_2">
<stop offset="0" stop-color="#2C2C2C" stop-opacity="1"/>
<stop offset="0.5" stop-color="#FFFFFF" stop-opacity="1"/>
<stop offset="1" stop-color="#2C2C2C" stop-opacity="1"/>
</linearGradient>
<linearGradient x1="0.000000%" y1="50.000000%" x2="100.000000%" y2="50.000000%" id="lgradient4_1_0_0">
<stop offset="0" stop-color="#2C2C2C" stop-opacity="1"/>
<stop offset="0.5" stop-color="#FFFFFF" stop-opacity="1"/>
<stop offset="1" stop-color="#2C2C2C" stop-opacity="1"/>
</linearGradient>
<linearGradient x1="50.000000%" y1="0.000000%" x2="50.000000%" y2="100.000000%" id="lgradient4_1_0_1">
<stop offset="0" stop-color="#2C2C2C" stop-opacity="1"/>
<stop offset="0.5" stop-color="#FFFFFF" stop-opacity="1"/>
<stop offset="1" stop-color="#2C2C2C" stop-opacity="1"/>
</linearGradient>
<radialGradient cx="50.000000%" cy="50.000000%" r="50.000000%" fx="50.000000%" fy="50.000000%" id="rgradient5_0">
<stop offset="0%" stop-color="#FFFFFF" stop-opacity="1"/>
<stop offset="100%" stop-color="#2C2C2C" stop-opacity="1"/>
</radialGradient>
<radialGradient cx="50.000000%" cy="50.000000%" r="50.000000%" fx="50.000000%" fy="50.000000%" id="rgradient5_1">
<stop offset="0%" stop-color="#FFFFFF" stop-opacity="1"/>
<stop offset="100%" stop-color="#2C2C2C" stop-opacity="1"/>
</radialGradient>
<linearGradient x1="0.000000%" y1="50.000000%" x2="100.000000%" y2="50.000000%" id="lgradient5_2">
<stop offset="0" stop-color="#2C2C2C" stop-opacity="1"/>
<stop offset="0.5" stop-color="#FFFFFF" stop-opacity="1"/>
<stop offset="1" stop-color="#2C2C2C" stop-opacity="1"/>
</linearGradient>
<linearGradient x1="0.000000%" y1="50.000000%" x2="100.000000%" y2="50.000000%" id="lgradient6_0_0">
<stop offset="0" stop-color="#2C2C2C" stop-opacity="1"/>
<stop offset="0.5" stop-color="#FFFFFF" stop-opacity="1"/>
<stop offset="1" stop-color="#2C2C2C" stop-opacity="1"/>
</linearGradient>
<linearGradient x1="50.000000%" y1="0.000000%" x2="50.000000%" y2="100.000000%" id="lgradient6_0_1">
<stop offset="0" stop-color="#2C2C2C" stop-opacity="1"/>
<stop offset="0.5" stop-color="#FFFFFF" stop-opacity="1"/>
<stop offset="1" stop-color="#2C2C2C" stop-opacity="1"/>
</linearGradient>
<radialGradient cx="50.000000%" cy="50.000000%" r="50.000000%" fx="50.000000%" fy="50.000000%" id="rgradient7_0">
<stop offset="0%" stop-color="#FFFFFF" stop-opacity="1"/>
<stop offset="100%" stop-color="#2C2C2C" stop-opacity="1"/>
</radialGradient>
<radialGradient cx="50.000000%" cy="50.000000%" r="50.000000%" fx="50.000000%" fy="50.000000%" id="rgradient7_1">
<stop offset="0%" stop-color="#FFFFFF" stop-opacity="1"/>
<stop offset="100%" stop-color="#2C2C2C" stop-opacity="1"/>
</radialGradient>
<linearGradient x1="0.000000%" y1="50.000000%" x2="100.000000%" y2="50.000000%" id="lgradient7_2">
<stop offset="0" stop-color="#2C2C2C" stop-opacity="1"/>
<stop offset="0.5" stop-color="#FFFFFF" stop-opacity="1"/>
<stop offset="1" stop-color="#2C2C2C" stop-opacity="1"/>
</linearGradient>
<linearGradient x1="0.000000%" y1="50.000000%" x2="100.000000%" y2="50.000000%" id="lgradient8_0_0">
<stop offset="0" stop-color="#2C2C2C" stop-opacity="1"/>
<stop offset="0.5" stop-color="#FFFFFF" stop-opacity="1"/>
<stop offset="1" stop-color="#2C2C2C" stop-opacity="1"/>
</linearGradient>
<linearGradient x1="50.000000%" y1="0.000000%" x2="50.000000%" y2="100.000000%" id="lgradient8_0_1">
<stop offset="0" stop-color="#2C2C2C" stop-opacity="1"/>
<stop offset="0.5" stop-color="#FFFFFF" stop-opacity="1"/>
<stop offset="1" stop-color="#2C2C2C" stop-opacity="1"/>
</linearGradient>
<radialGradient cx="50.000000%" cy="50.000000%" r="50.000000%" fx="50.000000%" fy="50.000000%" id="rgradient9_0">
<stop offset="0%" stop-color="#FFFFFF" stop-opacity="1"/>
<stop offset="100%" stop-color="#2C2C2C" stop-opacity="1"/>
</radialGradient>
<radialGradient cx="50.000000%" cy="50.000000%" r="50.000000%" fx="50.000000%" fy="50.000000%" id="rgradient9_1">
<stop offset="0%" stop-color="#FFFFFF" stop-opacity="1"/>
<stop offset="100%" stop-color="#2C2C2C" stop-opacity="1"/>
</radialGradient>
<linearGradient x1="0.000000%" y1="50.000000%" x2="100.000000%" y2="50.000000%" id="lgradient9_2">
<stop offset="0" stop-color="#2C2C2C" stop-opacity="1"/>
<stop offset="0.5" stop-color="#FFFFFF" stop-opacity="1"/>
<stop offset="1" stop-color="#2C2C2C" stop-opacity="1"/>
</linearGradient>
<linearGradient x1="0.000000%" y1="50.000000%" x2="100.000000%" y2="50.000000%" id="lgradient10_0_0">
<stop offset="0" stop-color="#2C2C2C" stop-opacity="1"/>
<stop offset="0.5" stop-color="#FFFFFF" stop-opacity="1"/>
<stop offset="1" stop-color="#2C2C2C" stop-opacity="1"/>
</linearGradient>
<linearGradient x1="50.000000%" y1="0.000000%" x2="50.000000%" y2="100.000000%" id="lgradient10_0_1">
<stop offset="0" stop-color="#2C2C2C" stop-opacity="1"/>
<stop offset="0.5" stop-color="#FFFFFF" stop-opacity="1"/>
<stop offset="1" stop-color="#2C2C2C" stop-opacity="1"/>
</linearGradient>
<radialGradient cx="50.000000%" cy="50.000000%" r="50.000000%" fx="50.000000%" fy="50.000000%" id="rgradient48_0">
<stop offset="0%" stop-color="#FFFFFF" stop-opacity="1"/>
<stop offset="100%" stop-color="#2C2C2C" stop-opacity="1"/>
</radialGradient>
<radialGradient cx="50.000000%" cy="50.000000%" r="50.000000%" fx="50.000000%" fy="50.000000%" id="rgradient48_1">
<stop offset="0%" stop-color="#FFFFFF" stop-opacity="1"/>
<stop offset="100%" stop-color="#2C2C2C" stop-opacity="1"/>
</radialGradient>
<linearGradient x1="0.000000%" y1="50.000000%" x2="100.000000%" y2="50.000000%" id="lgradient48_2">
<stop offset="0" stop-color="#2C2C2C" stop-opacity="1"/>
<stop offset="0.5" stop-color="#FFFFFF" stop-opacity="1"/>
<stop offset="1" stop-color="#2C2C2C" stop-opacity="1"/>
</linearGradient>
</defs>
<g shape-type="group">
<ellipse shape-type="ellipse" cx="682" cy="209" rx="41" ry="19" fill="url(#rgradient1_0)" stroke="#000000" stroke-width="1.00"/>
<ellipse shape-type="ellipse" cx="682" cy="361" rx="41" ry="19" fill="url(#rgradient1_1)" stroke="#000000" stroke-width="1.00"/>
<rect shape-type="rectangle" x="641" y="208" width="81" height="156" fill="url(#lgradient1_2)" stroke="#000000" stroke-width="1.00"/>
</g>
<g shape-type="group">
<ellipse shape-type="ellipse" cx="1140" cy="182" rx="39" ry="22" fill="url(#rgradient2_0)" stroke="#000000" stroke-width="1.00"/>
<ellipse shape-type="ellipse" cx="1140" cy="361" rx="39" ry="22" fill="url(#rgradient2_1)" stroke="#000000" stroke-width="1.00"/>
<rect shape-type="rectangle" x="1101" y="181" width="77" height="183" fill="url(#lgradient2_2)" stroke="#000000" stroke-width="1.00"/>
</g>
<g shape-type="group">
<g shape-type="group">
<rect shape-type="roundRectangle" rx="20" ry="20" x="757" y="318" width="19" height="45" fill="url(#lgradient3_0_0)" stroke="#000000" stroke-width="1.00"/>
<rect shape-type="rectangle" x="749" y="316" width="41" height="6" fill="url(#lgradient3_0_1)" stroke="#000000" stroke-width="1.00"/>
</g>
<line shape-type="limitline" x1="763" y1="338" x2="762" y2="321" fill="#FFFFFF" stroke="#000000" stroke-width="1.00"/>
<line shape-type="limitline" x1="772" y1="338" x2="763" y2="339" fill="#FFFFFF" stroke="#000000" stroke-width="1.00"/>
<line shape-type="limitline" x1="772" y1="322" x2="771" y2="338" fill="#FFFFFF" stroke="#000000" stroke-width="1.00"/>
</g>
<g shape-type="group">
<g shape-type="group">
<ellipse shape-type="ellipse" cx="310" cy="214" rx="41" ry="19" fill="url(#rgradient4_0_0)" stroke="#000000" stroke-width="1.00"/>
<ellipse shape-type="ellipse" cx="310" cy="366" rx="41" ry="19" fill="url(#rgradient4_0_1)" stroke="#000000" stroke-width="1.00"/>
<rect shape-type="rectangle" x="269" y="214" width="81" height="155" fill="url(#lgradient4_0_2)" stroke="#000000" stroke-width="1.00"/>
</g>
<g shape-type="group">
<g shape-type="group">
<rect shape-type="roundRectangle" rx="20" ry="20" x="386" y="315" width="19" height="45" fill="url(#lgradient4_1_0_0)" stroke="#000000" stroke-width="1.00"/>
<rect shape-type="rectangle" x="378" y="313" width="41" height="6" fill="url(#lgradient4_1_0_1)" stroke="#000000" stroke-width="1.00"/>
</g>
<line shape-type="limitline" x1="392" y1="334" x2="391" y2="318" fill="#FFFFFF" stroke="#000000" stroke-width="1.00"/>
<line shape-type="limitline" x1="401" y1="334" x2="392" y2="335" fill="#FFFFFF" stroke="#000000" stroke-width="1.00"/>
<line shape-type="limitline" x1="401" y1="319" x2="400" y2="334" fill="#FFFFFF" stroke="#000000" stroke-width="1.00"/>
</g>
</g>
<g shape-type="group">
<ellipse shape-type="ellipse" cx="909" cy="542" rx="41" ry="19" fill="url(#rgradient5_0)" stroke="#000000" stroke-width="1.00"/>
<ellipse shape-type="ellipse" cx="909" cy="693" rx="41" ry="19" fill="url(#rgradient5_1)" stroke="#000000" stroke-width="1.00"/>
<rect shape-type="rectangle" x="868" y="541" width="81" height="155" fill="url(#lgradient5_2)" stroke="#000000" stroke-width="1.00"/>
</g>
<g shape-type="group">
<g shape-type="group">
<rect shape-type="roundRectangle" rx="20" ry="20" x="1055" y="642" width="19" height="46" fill="url(#lgradient6_0_0)" stroke="#000000" stroke-width="1.00"/>
<rect shape-type="rectangle" x="1046" y="640" width="42" height="6" fill="url(#lgradient6_0_1)" stroke="#000000" stroke-width="1.00"/>
</g>
<line shape-type="limitline" x1="1059" y1="662" x2="1058" y2="645" fill="#FFFFFF" stroke="#000000" stroke-width="1.00"/>
<line shape-type="limitline" x1="1069" y1="662" x2="1059" y2="663" fill="#FFFFFF" stroke="#000000" stroke-width="1.00"/>
<line shape-type="limitline" x1="1069" y1="646" x2="1068" y2="662" fill="#FFFFFF" stroke="#000000" stroke-width="1.00"/>
</g>
<g shape-type="group">
<ellipse shape-type="ellipse" cx="602" cy="537" rx="41" ry="19" fill="url(#rgradient7_0)" stroke="#000000" stroke-width="1.00"/>
<ellipse shape-type="ellipse" cx="602" cy="689" rx="41" ry="19" fill="url(#rgradient7_1)" stroke="#000000" stroke-width="1.00"/>
<rect shape-type="rectangle" x="561" y="537" width="81" height="155" fill="url(#lgradient7_2)" stroke="#000000" stroke-width="1.00"/>
</g>
<g shape-type="group">
<g shape-type="group">
<rect shape-type="roundRectangle" rx="20" ry="20" x="741" y="644" width="18" height="46" fill="url(#lgradient8_0_0)" stroke="#000000" stroke-width="1.00"/>
<rect shape-type="rectangle" x="732" y="642" width="41" height="6" fill="url(#lgradient8_0_1)" stroke="#000000" stroke-width="1.00"/>
</g>
<line shape-type="limitline" x1="746" y1="664" x2="745" y2="647" fill="#FFFFFF" stroke="#000000" stroke-width="1.00"/>
<line shape-type="limitline" x1="755" y1="664" x2="746" y2="665" fill="#FFFFFF" stroke="#000000" stroke-width="1.00"/>
<line shape-type="limitline" x1="755" y1="648" x2="754" y2="664" fill="#FFFFFF" stroke="#000000" stroke-width="1.00"/>
</g>
<g shape-type="group">
<ellipse shape-type="ellipse" cx="272" cy="547" rx="41" ry="19" fill="url(#rgradient9_0)" stroke="#000000" stroke-width="1.00"/>
<ellipse shape-type="ellipse" cx="272" cy="699" rx="41" ry="19" fill="url(#rgradient9_1)" stroke="#000000" stroke-width="1.00"/>
<rect shape-type="rectangle" x="231" y="547" width="80" height="155" fill="url(#lgradient9_2)" stroke="#000000" stroke-width="1.00"/>
</g>
<g shape-type="group">
<g shape-type="group">
<rect shape-type="roundRectangle" rx="20" ry="20" x="380" y="642" width="19" height="46" fill="url(#lgradient10_0_0)" stroke="#000000" stroke-width="1.00"/>
<rect shape-type="rectangle" x="371" y="640" width="42" height="6" fill="url(#lgradient10_0_1)" stroke="#000000" stroke-width="1.00"/>
</g>
<line shape-type="limitline" x1="384" y1="662" x2="383" y2="645" fill="#FFFFFF" stroke="#000000" stroke-width="1.00"/>
<line shape-type="limitline" x1="394" y1="662" x2="384" y2="663" fill="#FFFFFF" stroke="#000000" stroke-width="1.00"/>
<line shape-type="limitline" x1="394" y1="646" x2="393" y2="662" fill="#FFFFFF" stroke="#000000" stroke-width="1.00"/>
</g>
<line shape-type="limitline" x1="771" y1="111" x2="119" y2="111" fill="#FFFFFF" stroke="#000000" stroke-width="1.00"/>
<g shape-type="group">
<rect shape-type="rectangle" x="72" y="109" width="31" height="4" stroke="#000000" stroke-width="1.00"/>
<polygon shape-type="trapezium" points="102,103 102,119 122,111 122,111 102,103" stroke="#000000" stroke-width="1.00"/>
</g>
<line shape-type="limitline" x1="819" y1="173" x2="167" y2="173" fill="#FFFFFF" stroke="#000000" stroke-width="1.00"/>
<line shape-type="limitline" x1="166" y1="493" x2="166" y2="173" fill="#FFFFFF" stroke="#000000" stroke-width="1.00"/>
<line shape-type="limitline" x1="903" y1="495" x2="165" y2="495" fill="#FFFFFF" stroke="#000000" stroke-width="1.00"/>
<g shape-type="group">
<line shape-type="limitline" x1="771" y1="116" x2="770" y2="107" fill="#FFFFFF" stroke="#000000" stroke-width="1.00"/>
<line shape-type="limitline" x1="775" y1="116" x2="774" y2="107" fill="#FFFFFF" stroke="#000000" stroke-width="1.00"/>
</g>
<g shape-type="group">
<line shape-type="limitline" x1="819" y1="178" x2="818" y2="169" fill="#FFFFFF" stroke="#000000" stroke-width="1.00"/>
<line shape-type="limitline" x1="823" y1="178" x2="822" y2="169" fill="#FFFFFF" stroke="#000000" stroke-width="1.00"/>
</g>
<g shape-type="group">
<line shape-type="limitline" x1="903" y1="500" x2="902" y2="491" fill="#FFFFFF" stroke="#000000" stroke-width="1.00"/>
<line shape-type="limitline" x1="907" y1="500" x2="906" y2="491" fill="#FFFFFF" stroke="#000000" stroke-width="1.00"/>
</g>
<line shape-type="limitline" x1="133" y1="111" x2="133" y2="54" fill="#FFFFFF" stroke="#000000" stroke-width="1.00"/>
<line shape-type="limitline" x1="1312" y1="421" x2="1312" y2="54" fill="#FFFFFF" stroke="#000000" stroke-width="1.00"/>
<line shape-type="limitline" x1="1313" y1="53" x2="133" y2="53" fill="#FFFFFF" stroke="#000000" stroke-width="1.00"/>
<g shape-type="group">
<rect shape-type="rectangle" x="1310" y="388" width="6" height="31" stroke="#000000" stroke-width="1.00"/>
<polygon shape-type="trapezium" points="1306,418 1321,418 1313,438 1313,438 1306,418" stroke="#000000" stroke-width="1.00"/>
</g>
<g shape-type="group">
<line shape-type="limitline" x1="344" y1="444" x2="343" y2="435" fill="#FFFFFF" stroke="#000000" stroke-width="1.00"/>
<line shape-type="limitline" x1="348" y1="444" x2="347" y2="435" fill="#FFFFFF" stroke="#000000" stroke-width="1.00"/>
</g>
<g shape-type="group">
<rect shape-type="rectangle" x="1424" y="439" width="31" height="4" stroke="#000000" stroke-width="1.00"/>
<polygon shape-type="trapezium" points="1454,433 1454,449 1474,441 1474,441 1454,433" stroke="#000000" stroke-width="1.00"/>
</g>
<line shape-type="limitline" x1="1427" y1="441" x2="348" y2="441" fill="#FFFFFF" stroke="#000000" stroke-width="1.00"/>
<line shape-type="limitline" x1="390" y1="641" x2="390" y2="505" fill="#FFFFFF" stroke="#000000" stroke-width="1.00"/>
<line shape-type="limitline" x1="391" y1="491" x2="391" y2="447" fill="#FFFFFF" stroke="#000000" stroke-width="1.00"/>
<g shape-type="group">
<line shape-type="limitline" x1="505" y1="622" x2="504" y2="495" fill="#FFFFFF" stroke="#000000" stroke-width="1.00"/>
<line shape-type="limitline" x1="559" y1="622" x2="505" y2="623" fill="#FFFFFF" stroke="#000000" stroke-width="1.00"/>
<polygon shape-type="trapezium" points="546,613 546,632 563,623 563,623 546,613" stroke="#000000" stroke-width="1.00"/>
</g>
<g shape-type="group">
<line shape-type="limitline" x1="173" y1="623" x2="172" y2="496" fill="#FFFFFF" stroke="#000000" stroke-width="1.00"/>
<line shape-type="limitline" x1="227" y1="623" x2="173" y2="624" fill="#FFFFFF" stroke="#000000" stroke-width="1.00"/>
<polygon shape-type="trapezium" points="214,614 214,633 231,624 231,624 214,614" stroke="#000000" stroke-width="1.00"/>
</g>
<line shape-type="limitline" x1="381" y1="666" x2="309" y2="666" fill="#FFFFFF" stroke="#000000" stroke-width="1.00"/>
<g shape-type="group">
<line shape-type="limitline" x1="810" y1="621" x2="809" y2="494" fill="#FFFFFF" stroke="#000000" stroke-width="1.00"/>
<line shape-type="limitline" x1="865" y1="621" x2="810" y2="622" fill="#FFFFFF" stroke="#000000" stroke-width="1.00"/>
<polygon shape-type="trapezium" points="851,611 851,631 868,621 868,621 851,611" stroke="#000000" stroke-width="1.00"/>
</g>
<line shape-type="limitline" x1="742" y1="664" x2="642" y2="664" fill="#FFFFFF" stroke="#000000" stroke-width="1.00"/>
<line shape-type="limitline" x1="1056" y1="663" x2="948" y2="663" fill="#FFFFFF" stroke="#000000" stroke-width="1.00"/>
<polygon shape-type="trapezium" points="365,657 365,673 382,665 382,665 365,657" stroke="#000000" stroke-width="1.00"/>
<polygon shape-type="trapezium" points="726,657 726,673 743,665 743,665 726,657" stroke="#000000" stroke-width="1.00"/>
<polygon shape-type="trapezium" points="1039,656 1039,672 1056,664 1056,664 1039,656" stroke="#000000" stroke-width="1.00"/>
<line shape-type="limitline" x1="750" y1="644" x2="750" y2="440" fill="#FFFFFF" stroke="#000000" stroke-width="1.00"/>
<line shape-type="limitline" x1="1068" y1="640" x2="1068" y2="442" fill="#FFFFFF" stroke="#000000" stroke-width="1.00"/>
<polygon shape-type="trapezium" points="758,457 743,457 751,440 751,440 758,457" stroke="#000000" stroke-width="1.00"/>
<polygon shape-type="trapezium" points="1075,457 1060,457 1068,440 1068,440 1075,457" stroke="#000000" stroke-width="1.00"/>
<g shape-type="group">
<rect shape-type="rectangle" x="317" y="619" width="53" height="19" fill="#008080" stroke="#FF0000" stroke-width="1.00"/>
<rect shape-type="rectangle" x="317" y="636" width="53" height="18" fill="#008080" stroke="#FF0000" stroke-width="1.00"/>
</g>
<g shape-type="group">
<rect shape-type="rectangle" x="663" y="623" width="52" height="19" fill="#008080" stroke="#000000" stroke-width="1.00"/>
<rect shape-type="rectangle" x="663" y="641" width="52" height="17" fill="#008080" stroke="#000000" stroke-width="1.00"/>
</g>
<g shape-type="group">
<rect shape-type="rectangle" x="967" y="625" width="53" height="19" fill="#008080" stroke="#000000" stroke-width="1.00"/>
<rect shape-type="rectangle" x="967" y="643" width="53" height="17" fill="#008080" stroke="#000000" stroke-width="1.00"/>
</g>
<g shape-type="group">
<rect shape-type="rectangle" x="1352" y="399" width="53" height="19" fill="#008080" stroke="#000000" stroke-width="1.00"/>
<rect shape-type="rectangle" x="1352" y="417" width="53" height="17" fill="#008080" stroke="#000000" stroke-width="1.00"/>
</g>
<line shape-type="limitline" x1="154" y1="403" x2="42" y2="403" fill="#FFFFFF" stroke="#000000" stroke-width="1.00"/>
<line shape-type="limitline" x1="1272" y1="405" x2="175" y2="405" fill="#FFFFFF" stroke="#000000" stroke-width="1.00"/>
<line shape-type="limitline" x1="1272" y1="433" x2="1272" y2="405" fill="#FFFFFF" stroke="#000000" stroke-width="1.00"/>
<g shape-type="group">
<ellipse shape-type="ellipse" cx="1183" cy="550" rx="51" ry="18" fill="url(#rgradient48_0)" stroke="#000000" stroke-width="1.00"/>
<ellipse shape-type="ellipse" cx="1183" cy="702" rx="51" ry="19" fill="url(#rgradient48_1)" stroke="#000000" stroke-width="1.00"/>
<rect shape-type="rectangle" x="1132" y="549" width="100" height="155" fill="url(#lgradient48_2)" stroke="#000000" stroke-width="1.00"/>
</g>
<line shape-type="limitline" x1="1272" y1="750" x2="1272" y2="449" fill="#FFFFFF" stroke="#000000" stroke-width="1.00"/>
<line shape-type="limitline" x1="1186" y1="751" x2="1272" y2="751" fill="#FFFFFF" stroke="#000000" stroke-width="1.00"/>
<line shape-type="limitline" x1="1187" y1="721" x2="1187" y2="750" fill="#FFFFFF" stroke="#000000" stroke-width="1.00"/>
<g shape-type="group">
<rect shape-type="rectangle" x="14" y="399" width="31" height="5" stroke="#000000" stroke-width="1.00"/>
<polygon shape-type="trapezium" points="44,394 44,411 64,403 64,403 44,394" stroke="#000000" stroke-width="1.00"/>
</g>
<g shape-type="group">
<rect shape-type="rectangle" x="150" y="63" width="53" height="17" fill="#008080" stroke="#000000" stroke-width="1.00"/>
<rect shape-type="rectangle" x="150" y="79" width="53" height="18" fill="#008080" stroke="#000000" stroke-width="1.00"/>
</g>
<g shape-type="group">
<rect shape-type="rectangle" x="210" y="63" width="53" height="18" fill="#008080" stroke="#000000" stroke-width="1.00"/>
<rect shape-type="rectangle" x="210" y="80" width="53" height="18" fill="#008080" stroke="#000000" stroke-width="1.00"/>
</g>
<g shape-type="group">
<rect shape-type="rectangle" x="272" y="63" width="53" height="18" fill="#008080" stroke="#000000" stroke-width="1.00"/>
<rect shape-type="rectangle" x="272" y="80" width="53" height="18" fill="#008080" stroke="#000000" stroke-width="1.00"/>
</g>
<g shape-type="group">
<rect shape-type="rectangle" x="107" y="360" width="53" height="18" fill="#008080" stroke="#000000" stroke-width="1.00"/>
<rect shape-type="rectangle" x="107" y="377" width="53" height="18" fill="#008080" stroke="#000000" stroke-width="1.00"/>
</g>
<text font-family="宋体" text-anchor="start" fill="#000000" shape-type="text" id="" font-size="12.500000" x="165" y="75">PT</text>
<text font-family="宋体" text-anchor="start" fill="#000000" shape-type="text" id="" font-size="12.500000" x="229" y="77">FT</text>
<text font-family="宋体" text-anchor="start" fill="#000000" shape-type="text" id="" font-size="12.500000" x="287" y="75">TE</text>
<text font-family="宋体" text-anchor="start" fill="#000000" shape-type="text" id="" font-size="12.500000" x="122" y="375">FT</text>
<text font-family="宋体" text-anchor="start" fill="#000000" shape-type="text" id="" font-size="12.500000" x="1365" y="414">PT</text>
<text font-family="宋体" text-anchor="start" fill="#000000" shape-type="text" id="" font-size="12.500000" x="324" y="633">CT</text>
<text font-family="宋体" text-anchor="start" fill="#000000" shape-type="text" id="" font-size="12.500000" x="983" y="638">CT</text>
<text font-family="宋体" text-anchor="start" fill="#000000" shape-type="text" id="" font-size="12.500000" x="679" y="638">CT</text>
<text font-family="宋体" text-anchor="start" fill="#000000" shape-type="text" id="" font-size="12.500000" x="39" y="94">工艺水来自991</text>
<text font-family="宋体" text-anchor="start" fill="#000000" shape-type="text" id="" font-size="12.500000" x="31" y="427">氮气来自外管网</text>
<text font-family="宋体" text-anchor="start" fill="#000000" shape-type="text" id="" font-size="12.500000" x="1363" y="466">工艺水回991</text>
<text font-family="宋体" text-anchor="start" fill="#000000" shape-type="text" id="" font-size="12.500000" x="288" y="290">R-301A</text>
<text font-family="宋体" text-anchor="start" fill="#000000" shape-type="text" id="" font-size="12.500000" x="246" y="633">R-302A</text>
<text font-family="宋体" text-anchor="start" fill="#000000" shape-type="text" id="" font-size="12.500000" x="658" y="284">R-301B</text>
<text font-family="宋体" text-anchor="start" fill="#000000" shape-type="text" id="" font-size="12.500000" x="1120" y="271">R-303</text>
<text font-family="宋体" text-anchor="start" fill="#000000" shape-type="text" id="" font-size="12.500000" x="1163" y="649">R-304</text>
<text font-family="宋体" text-anchor="start" fill="#000000" shape-type="text" id="" font-size="12.500000" x="582" y="613">R-302B</text>
<text font-family="宋体" text-anchor="start" fill="#000000" shape-type="text" id="" font-size="12.500000" x="888" y="619">R-302C</text>
<text font-family="宋体" text-anchor="start" fill="#000000" shape-type="text" id="" font-size="12.500000" x="405" y="305">F-301A</text>
<text font-family="宋体" text-anchor="start" fill="#000000" shape-type="text" id="" font-size="12.500000" x="779" y="313">F-301B</text>
<line shape-type="limitline" x1="390" y1="331" x2="350" y2="331" fill="#FFFFFF" stroke="#000000" stroke-width="1.00"/>
<line shape-type="limitline" x1="398" y1="313" x2="398" y2="173" fill="#FFFFFF" stroke="#000000" stroke-width="1.00"/>
<line shape-type="limitline" x1="768" y1="316" x2="768" y2="174" fill="#FFFFFF" stroke="#000000" stroke-width="1.00"/>
<line shape-type="limitline" x1="722" y1="335" x2="756" y2="335" fill="#FFFFFF" stroke="#000000" stroke-width="1.00"/>
<polygon shape-type="trapezium" points="373,324 373,339 390,332 390,332 373,324" stroke="#000000" stroke-width="1.00"/>
<polygon shape-type="trapezium" points="743,328 743,343 760,336 760,336 743,328" stroke="#000000" stroke-width="1.00"/>
<polygon shape-type="trapezium" points="775,191 761,191 768,174 768,174 775,191" stroke="#000000" stroke-width="1.00"/>
<polygon shape-type="trapezium" points="406,190 392,190 399,173 399,173 406,190" stroke="#000000" stroke-width="1.00"/>
<g shape-type="group">
<line shape-type="limitline" x1="216" y1="165" x2="215" y2="113" fill="#FFFFFF" stroke="#000000" stroke-width="1.00"/>
<line shape-type="limitline" x1="216" y1="267" x2="215" y2="180" fill="#FFFFFF" stroke="#000000" stroke-width="1.00"/>
<line shape-type="limitline" x1="269" y1="267" x2="216" y2="268" fill="#FFFFFF" stroke="#000000" stroke-width="1.00"/>
<polygon shape-type="trapezium" points="250,258 250,273 267,266 267,266 250,258" stroke="#000000" stroke-width="1.00"/>
</g>
<g shape-type="group">
<line shape-type="limitline" x1="589" y1="164" x2="588" y2="113" fill="#FFFFFF" stroke="#000000" stroke-width="1.00"/>
<line shape-type="limitline" x1="589" y1="266" x2="588" y2="179" fill="#FFFFFF" stroke="#000000" stroke-width="1.00"/>
<line shape-type="limitline" x1="642" y1="266" x2="589" y2="267" fill="#FFFFFF" stroke="#000000" stroke-width="1.00"/>
<polygon shape-type="trapezium" points="623,257 623,272 640,265 640,265 623,257" stroke="#000000" stroke-width="1.00"/>
</g>
<text font-family="宋体" text-anchor="start" fill="#000000" shape-type="text" id="" font-size="12.500000" x="397" y="624">F-301C</text>
<text font-family="宋体" text-anchor="start" fill="#000000" shape-type="text" id="" font-size="12.500000" x="755" y="625">F-301D</text>
<text font-family="宋体" text-anchor="start" fill="#000000" shape-type="text" id="" font-size="12.500000" x="1075" y="629">D-301E</text>
<g shape-type="group">
<g shape-type="button">
<rect fill="#C0C0C0" stroke-width="0.3" stroke="#FFFFFF" x="117" y="769" width="51" height="29" shape-type="buttonrect"/>
<text font-family="宋体" text-anchor="middle" dominant-baseline="middle" fill="#000000" font-size="13.500000" x="143" y="789" shape-type="buttontext">主页</text>
</g>
<g shape-type="button">
<rect fill="#C0C0C0" stroke-width="0.3" stroke="#FFFFFF" x="166" y="769" width="58" height="29" shape-type="buttonrect"/>
<text font-family="宋体" text-anchor="middle" dominant-baseline="middle" fill="#000000" font-size="13.500000" x="195" y="789" shape-type="buttontext">222-1</text>
</g>
<g shape-type="button">
<rect fill="#C0C0C0" stroke-width="0.3" stroke="#FFFFFF" x="222" y="769" width="58" height="29" shape-type="buttonrect"/>
<text font-family="宋体" text-anchor="middle" dominant-baseline="middle" fill="#000000" font-size="13.500000" x="251" y="789" shape-type="buttontext">222-2</text>
</g>
</g>
<text font-family="宋体" text-anchor="start" fill="#000000" shape-type="text" id="" font-size="26.750000" x="623" y="35">工艺水再生一</text>
<a xlink:href="..\梨树总图.svg">
<g shape-type="button">
<rect fill="#C0C0C0" stroke-width="0.3" stroke="#FFFFFF" x="1363" y="757" width="51" height="29" shape-type="buttonrect"/>
<text font-family="宋体" text-anchor="middle" dominant-baseline="middle" fill="#000000" font-size="13.500000" x="1388" y="777" shape-type="buttontext">返回</text>
</g>
</a>
</svg>