<svg xmlns="http://www.w3.org/2000/svg" xmlns:xlink="http://www.w3.org/1999/xlink" version="1.1" style="background-color:#7DB6C1" width="1062" height="669" viewbox="0 0 1062 669"><defs>
<radialGradient cx="50.000000%" cy="50.000000%" r="50.000000%" fx="50.000000%" fy="50.000000%" id="rgradient1_0">
<stop offset="0%" stop-color="#FFFFFF" stop-opacity="1"/>
<stop offset="100%" stop-color="#2C2C2C" stop-opacity="1"/>
</radialGradient>
<radialGradient cx="50.000000%" cy="50.000000%" r="50.000000%" fx="50.000000%" fy="50.000000%" id="rgradient1_1">
<stop offset="0%" stop-color="#FFFFFF" stop-opacity="1"/>
<stop offset="100%" stop-color="#2C2C2C" stop-opacity="1"/>
</radialGradient>
<linearGradient x1="50.000000%" y1="0.000000%" x2="50.000000%" y2="100.000000%" id="lgradient1_2">
<stop offset="0" stop-color="#2C2C2C" stop-opacity="1"/>
<stop offset="0.5" stop-color="#FFFFFF" stop-opacity="1"/>
<stop offset="1" stop-color="#2C2C2C" stop-opacity="1"/>
</linearGradient>
<radialGradient cx="50.000000%" cy="50.000000%" r="50.000000%" fx="50.000000%" fy="50.000000%" id="rgradient2_0">
<stop offset="0%" stop-color="#FFFFFF" stop-opacity="1"/>
<stop offset="100%" stop-color="#2C2C2C" stop-opacity="1"/>
</radialGradient>
<radialGradient cx="50.000000%" cy="50.000000%" r="50.000000%" fx="50.000000%" fy="50.000000%" id="rgradient2_1">
<stop offset="0%" stop-color="#FFFFFF" stop-opacity="1"/>
<stop offset="100%" stop-color="#2C2C2C" stop-opacity="1"/>
</radialGradient>
<linearGradient x1="50.000000%" y1="0.000000%" x2="50.000000%" y2="100.000000%" id="lgradient2_2">
<stop offset="0" stop-color="#2C2C2C" stop-opacity="1"/>
<stop offset="0.5" stop-color="#FFFFFF" stop-opacity="1"/>
<stop offset="1" stop-color="#2C2C2C" stop-opacity="1"/>
</linearGradient>
<radialGradient cx="50.000000%" cy="50.000000%" r="50.000000%" fx="50.000000%" fy="50.000000%" id="rgradient3_0">
<stop offset="0%" stop-color="#FFFFFF" stop-opacity="1"/>
<stop offset="100%" stop-color="#2C2C2C" stop-opacity="1"/>
</radialGradient>
<radialGradient cx="50.000000%" cy="50.000000%" r="50.000000%" fx="50.000000%" fy="50.000000%" id="rgradient3_1">
<stop offset="0%" stop-color="#FFFFFF" stop-opacity="1"/>
<stop offset="100%" stop-color="#2C2C2C" stop-opacity="1"/>
</radialGradient>
<linearGradient x1="0.000000%" y1="50.000000%" x2="100.000000%" y2="50.000000%" id="lgradient3_2">
<stop offset="0" stop-color="#2C2C2C" stop-opacity="1"/>
<stop offset="0.5" stop-color="#FFFFFF" stop-opacity="1"/>
<stop offset="1" stop-color="#2C2C2C" stop-opacity="1"/>
</linearGradient>
<linearGradient x1="0%" y1="40%" x2="100%" y2="60%" id="lgradient12_0_1">
<stop offset="0" stop-color="#2C2C2C" stop-opacity="1"/>
<stop offset="0.5" stop-color="#FFFFFF" stop-opacity="1"/>
<stop offset="1" stop-color="#2C2C2C" stop-opacity="1"/></linearGradient>
<linearGradient x1="0%" y1="60%" x2="100%" y2="40%" id="lgradient12_1_1">
<stop offset="0" stop-color="#2C2C2C" stop-opacity="1"/>
<stop offset="0.5" stop-color="#FFFFFF" stop-opacity="1"/>
<stop offset="1" stop-color="#2C2C2C" stop-opacity="1"/></linearGradient>
<linearGradient x1="0.000000%" y1="50.000000%" x2="100.000000%" y2="50.000000%" id="lgradient12_2_0_0">
<stop offset="0" stop-color="#2C2C2C" stop-opacity="1"/>
<stop offset="0.5" stop-color="#FFFFFF" stop-opacity="1"/>
<stop offset="1" stop-color="#2C2C2C" stop-opacity="1"/>
</linearGradient>
<linearGradient x1="50.000000%" y1="0.000000%" x2="50.000000%" y2="100.000000%" id="lgradient12_2_0_1">
<stop offset="0" stop-color="#2C2C2C" stop-opacity="1"/>
<stop offset="0.5" stop-color="#FFFFFF" stop-opacity="1"/>
<stop offset="1" stop-color="#2C2C2C" stop-opacity="1"/>
</linearGradient>
<radialGradient cx="50.000000%" cy="50.000000%" r="50.000000%" fx="50.000000%" fy="50.000000%" id="rgradient12_2_1_0">
<stop offset="0%" stop-color="#FFFFFF" stop-opacity="1"/>
<stop offset="100%" stop-color="#2C2C2C" stop-opacity="1"/>
</radialGradient>
<linearGradient x1="0%" y1="40%" x2="100%" y2="60%" id="lgradient13_0_1">
<stop offset="0" stop-color="#2C2C2C" stop-opacity="1"/>
<stop offset="0.5" stop-color="#FFFFFF" stop-opacity="1"/>
<stop offset="1" stop-color="#2C2C2C" stop-opacity="1"/></linearGradient>
<linearGradient x1="0%" y1="60%" x2="100%" y2="40%" id="lgradient13_1_1">
<stop offset="0" stop-color="#2C2C2C" stop-opacity="1"/>
<stop offset="0.5" stop-color="#FFFFFF" stop-opacity="1"/>
<stop offset="1" stop-color="#2C2C2C" stop-opacity="1"/></linearGradient>
<linearGradient x1="0.000000%" y1="50.000000%" x2="100.000000%" y2="50.000000%" id="lgradient13_2_0_0">
<stop offset="0" stop-color="#2C2C2C" stop-opacity="1"/>
<stop offset="0.5" stop-color="#FFFFFF" stop-opacity="1"/>
<stop offset="1" stop-color="#2C2C2C" stop-opacity="1"/>
</linearGradient>
<linearGradient x1="50.000000%" y1="0.000000%" x2="50.000000%" y2="100.000000%" id="lgradient13_2_0_1">
<stop offset="0" stop-color="#2C2C2C" stop-opacity="1"/>
<stop offset="0.5" stop-color="#FFFFFF" stop-opacity="1"/>
<stop offset="1" stop-color="#2C2C2C" stop-opacity="1"/>
</linearGradient>
<radialGradient cx="50.000000%" cy="50.000000%" r="50.000000%" fx="50.000000%" fy="50.000000%" id="rgradient13_2_1_0">
<stop offset="0%" stop-color="#FFFFFF" stop-opacity="1"/>
<stop offset="100%" stop-color="#2C2C2C" stop-opacity="1"/>
</radialGradient>
<linearGradient x1="0%" y1="40%" x2="100%" y2="60%" id="lgradient14_0_1">
<stop offset="0" stop-color="#2C2C2C" stop-opacity="1"/>
<stop offset="0.5" stop-color="#FFFFFF" stop-opacity="1"/>
<stop offset="1" stop-color="#2C2C2C" stop-opacity="1"/></linearGradient>
<linearGradient x1="0%" y1="60%" x2="100%" y2="40%" id="lgradient14_1_1">
<stop offset="0" stop-color="#2C2C2C" stop-opacity="1"/>
<stop offset="0.5" stop-color="#FFFFFF" stop-opacity="1"/>
<stop offset="1" stop-color="#2C2C2C" stop-opacity="1"/></linearGradient>
<linearGradient x1="0.000000%" y1="50.000000%" x2="100.000000%" y2="50.000000%" id="lgradient14_2_0">
<stop offset="0" stop-color="#2C2C2C" stop-opacity="1"/>
<stop offset="0.5" stop-color="#FFFFFF" stop-opacity="1"/>
<stop offset="1" stop-color="#2C2C2C" stop-opacity="1"/>
</linearGradient>
<linearGradient x1="50.000000%" y1="0.000000%" x2="50.000000%" y2="100.000000%" id="lgradient14_2_1">
<stop offset="0" stop-color="#2C2C2C" stop-opacity="1"/>
<stop offset="0.5" stop-color="#FFFFFF" stop-opacity="1"/>
<stop offset="1" stop-color="#2C2C2C" stop-opacity="1"/>
</linearGradient>
<radialGradient cx="50.000000%" cy="50.000000%" r="50.000000%" fx="50.000000%" fy="50.000000%" id="rgradient14_3">
<stop offset="0%" stop-color="#FFFFFF" stop-opacity="1"/>
<stop offset="100%" stop-color="#2C2C2C" stop-opacity="1"/>
</radialGradient>
<radialGradient cx="50.000000%" cy="50.000000%" r="50.000000%" fx="50.000000%" fy="50.000000%" id="rgradient15_0_0">
<stop offset="0%" stop-color="#FFFFFF" stop-opacity="1"/>
<stop offset="100%" stop-color="#2C2C2C" stop-opacity="1"/>
</radialGradient>
<linearGradient x1="0.000000%" y1="50.000000%" x2="100.000000%" y2="50.000000%" id="lgradient15_0_1">
<stop offset="0" stop-color="#2C2C2C" stop-opacity="1"/>
<stop offset="0.5" stop-color="#FFFFFF" stop-opacity="1"/>
<stop offset="1" stop-color="#2C2C2C" stop-opacity="1"/>
</linearGradient>
<radialGradient cx="50.000000%" cy="50.000000%" r="50.000000%" fx="50.000000%" fy="50.000000%" id="rgradient16_0_0">
<stop offset="0%" stop-color="#FFFFFF" stop-opacity="1"/>
<stop offset="100%" stop-color="#2C2C2C" stop-opacity="1"/>
</radialGradient>
<linearGradient x1="0.000000%" y1="50.000000%" x2="100.000000%" y2="50.000000%" id="lgradient16_0_1">
<stop offset="0" stop-color="#2C2C2C" stop-opacity="1"/>
<stop offset="0.5" stop-color="#FFFFFF" stop-opacity="1"/>
<stop offset="1" stop-color="#2C2C2C" stop-opacity="1"/>
</linearGradient>
<linearGradient x1="0%" y1="40%" x2="100%" y2="60%" id="lgradient50_0_0_1">
<stop offset="0" stop-color="#2C2C2C" stop-opacity="1"/>
<stop offset="0.5" stop-color="#FFFFFF" stop-opacity="1"/>
<stop offset="1" stop-color="#2C2C2C" stop-opacity="1"/></linearGradient>
<linearGradient x1="0%" y1="60%" x2="100%" y2="40%" id="lgradient50_0_1_1">
<stop offset="0" stop-color="#2C2C2C" stop-opacity="1"/>
<stop offset="0.5" stop-color="#FFFFFF" stop-opacity="1"/>
<stop offset="1" stop-color="#2C2C2C" stop-opacity="1"/></linearGradient>
<linearGradient x1="0.000000%" y1="50.000000%" x2="100.000000%" y2="50.000000%" id="lgradient50_0_2_0_0">
<stop offset="0" stop-color="#2C2C2C" stop-opacity="1"/>
<stop offset="0.5" stop-color="#FFFFFF" stop-opacity="1"/>
<stop offset="1" stop-color="#2C2C2C" stop-opacity="1"/>
</linearGradient>
<linearGradient x1="50.000000%" y1="0.000000%" x2="50.000000%" y2="100.000000%" id="lgradient50_0_2_0_1">
<stop offset="0" stop-color="#2C2C2C" stop-opacity="1"/>
<stop offset="0.5" stop-color="#FFFFFF" stop-opacity="1"/>
<stop offset="1" stop-color="#2C2C2C" stop-opacity="1"/>
</linearGradient>
<radialGradient cx="50.000000%" cy="50.000000%" r="50.000000%" fx="50.000000%" fy="50.000000%" id="rgradient50_0_2_1_0">
<stop offset="0%" stop-color="#FFFFFF" stop-opacity="1"/>
<stop offset="100%" stop-color="#2C2C2C" stop-opacity="1"/>
</radialGradient>
<linearGradient x1="0.000000%" y1="50.000000%" x2="100.000000%" y2="50.000000%" id="lgradient75_0">
<stop offset="0" stop-color="#2C2C2C" stop-opacity="1"/>
<stop offset="0.5" stop-color="#FFFFFF" stop-opacity="1"/>
<stop offset="1" stop-color="#2C2C2C" stop-opacity="1"/>
</linearGradient>
<linearGradient x1="0.000000%" y1="50.000000%" x2="100.000000%" y2="50.000000%" id="lgradient75_1">
<stop offset="0" stop-color="#2C2C2C" stop-opacity="1"/>
<stop offset="0.5" stop-color="#FFFFFF" stop-opacity="1"/>
<stop offset="1" stop-color="#2C2C2C" stop-opacity="1"/>
</linearGradient>
<linearGradient x1="0.000000%" y1="50.000000%" x2="100.000000%" y2="50.000000%" id="lgradient92_0">
<stop offset="0" stop-color="#2C2C2C" stop-opacity="1"/>
<stop offset="0.5" stop-color="#FFFFFF" stop-opacity="1"/>
<stop offset="1" stop-color="#2C2C2C" stop-opacity="1"/>
</linearGradient>
<linearGradient x1="0.000000%" y1="50.000000%" x2="100.000000%" y2="50.000000%" id="lgradient92_1">
<stop offset="0" stop-color="#2C2C2C" stop-opacity="1"/>
<stop offset="0.5" stop-color="#FFFFFF" stop-opacity="1"/>
<stop offset="1" stop-color="#2C2C2C" stop-opacity="1"/>
</linearGradient>
</defs>
<g shape-type="group">
<ellipse shape-type="ellipse" cx="401" cy="147" rx="16" ry="27" fill="url(#rgradient1_0)" stroke="#000000" stroke-width="1.00"/>
<ellipse shape-type="ellipse" cx="544" cy="147" rx="16" ry="27" fill="url(#rgradient1_1)" stroke="#000000" stroke-width="1.00"/>
<rect shape-type="rectangle" x="398" y="119" width="149" height="55" fill="url(#lgradient1_2)" stroke="#000000" stroke-width="1.00"/>
</g>
<g shape-type="group">
<ellipse shape-type="ellipse" cx="254" cy="518" rx="15" ry="37" fill="url(#rgradient2_0)" stroke="#000000" stroke-width="1.00"/>
<ellipse shape-type="ellipse" cx="397" cy="518" rx="16" ry="37" fill="url(#rgradient2_1)" stroke="#000000" stroke-width="1.00"/>
<rect shape-type="rectangle" x="250" y="481" width="149" height="75" fill="url(#lgradient2_2)" stroke="#000000" stroke-width="1.00"/>
</g>
<g shape-type="group">
<ellipse shape-type="ellipse" cx="699" cy="297" rx="22" ry="7" fill="url(#rgradient3_0)" stroke="#000000" stroke-width="1.00"/>
<ellipse shape-type="ellipse" cx="699" cy="367" rx="22" ry="8" fill="url(#rgradient3_1)" stroke="#000000" stroke-width="1.00"/>
<rect shape-type="rectangle" x="676" y="295" width="45" height="73" fill="url(#lgradient3_2)" stroke="#000000" stroke-width="1.00"/>
</g>
<rect shape-type="rectangle" x="535" y="120" width="12" height="53" fill="#FFFFFF" stroke="#000000" stroke-width="1.00"/>
<g shape-type="group">
<rect shape-type="rectangle" x="985" y="133" width="95" height="138" fill="#C0C0C0" stroke="#000000" stroke-width="1.00"/>
<rect shape-type="rectangle" x="999" y="270" width="72" height="59" fill="#C0C0C0" stroke="#000000" stroke-width="1.00"/>
<rect shape-type="rectangle" x="1015" y="328" width="42" height="25" fill="#C0C0C0" stroke="#000000" stroke-width="1.00"/>
</g>
<rect shape-type="rectangle" x="1175" y="257" width="98" height="79" fill="#C0C0C0" stroke="#000000" stroke-width="1.00"/>
<polygon shape-type="trapezium" points="1405,372 1369,372 1378,147 1396,147 1405,372" fill="#FF0000" stroke="#000000" stroke-width="1.00"/>
<line shape-type="limitline" x1="1399" y1="208" x2="1376" y2="208" fill="#FFFFFF" stroke="#000000" stroke-width="1.00"/>
<line shape-type="limitline" x1="1402" y1="281" x2="1373" y2="281" fill="#FFFFFF" stroke="#000000" stroke-width="1.00"/>
<line shape-type="limitline" x1="1175" y1="316" x2="1071" y2="316" fill="#FFFFFF" stroke="#000000" stroke-width="1.00"/>
<line shape-type="limitline" x1="1372" y1="315" x2="1273" y2="315" fill="#FFFFFF" stroke="#000000" stroke-width="1.00"/>
<g shape-type="group">
<g shape-type="group">
<rect shape-type="rectangle" x="1282" y="606" width="27" height="7" fill="#808080" stroke="#000000" stroke-width="1.00"/>
<polygon shape-type="parallel" points="1309,605 1294,605 1299,586 1314,586 1309,605" fill="url(#lgradient12_0_1)" stroke="#000000" stroke-width="1.00"/>
</g>
<g shape-type="group">
<rect shape-type="rectangle" x="1314" y="606" width="29" height="7" fill="#808080" stroke="#000000" stroke-width="1.00"/>
<polygon shape-type="parallel" points="1314,605 1329,605 1323,584 1308,584 1314,605" fill="url(#lgradient12_1_1)" stroke="#000000" stroke-width="1.00"/>
</g>
<g shape-type="group">
<g shape-type="group">
<rect shape-type="rectangle" x="1311" y="563" width="13" height="22" fill="url(#lgradient12_2_0_0)" stroke="#000000" stroke-width="1.00"/>
<rect shape-type="rectangle" x="1307" y="557" width="22" height="7" fill="url(#lgradient12_2_0_1)" stroke="#000000" stroke-width="1.00"/>
</g>
<g shape-type="group">
<ellipse shape-type="ellipse" cx="1311" cy="586" rx="16" ry="16" fill="url(#rgradient12_2_1_0)" stroke="#000000" stroke-width="1.00"/>
<ellipse shape-type="ellipse" cx="1311" cy="585" rx="12" ry="11" fill="#FF0000" stroke="#000000" stroke-width="1.00"/>
</g>
</g>
</g>
<g shape-type="group">
<g shape-type="group">
<rect shape-type="rectangle" x="953" y="590" width="27" height="6" fill="#808080" stroke="#000000" stroke-width="1.00"/>
<polygon shape-type="parallel" points="979,589 965,589 970,570 984,570 979,589" fill="url(#lgradient13_0_1)" stroke="#000000" stroke-width="1.00"/>
</g>
<g shape-type="group">
<rect shape-type="rectangle" x="984" y="590" width="30" height="6" fill="#808080" stroke="#000000" stroke-width="1.00"/>
<polygon shape-type="parallel" points="985,589 1000,589 994,568 979,568 985,589" fill="url(#lgradient13_1_1)" stroke="#000000" stroke-width="1.00"/>
</g>
<g shape-type="group">
<g shape-type="group">
<rect shape-type="rectangle" x="982" y="546" width="13" height="23" fill="url(#lgradient13_2_0_0)" stroke="#000000" stroke-width="1.00"/>
<rect shape-type="rectangle" x="978" y="541" width="22" height="6" fill="url(#lgradient13_2_0_1)" stroke="#000000" stroke-width="1.00"/>
</g>
<g shape-type="group">
<ellipse shape-type="ellipse" cx="982" cy="569" rx="16" ry="16" fill="url(#rgradient13_2_1_0)" stroke="#000000" stroke-width="1.00"/>
<ellipse shape-type="ellipse" cx="982" cy="568" rx="12" ry="11" fill="#FF0000" stroke="#000000" stroke-width="1.00"/>
</g>
</g>
</g>
<g shape-type="group">
<g shape-type="group">
<rect shape-type="rectangle" x="859" y="588" width="27" height="6" fill="#808080" stroke="#000000" stroke-width="1.00"/>
<polygon shape-type="parallel" points="886,586 871,586 876,568 891,568 886,586" fill="url(#lgradient14_0_1)" stroke="#000000" stroke-width="1.00"/>
</g>
<g shape-type="group">
<rect shape-type="rectangle" x="891" y="588" width="29" height="6" fill="#808080" stroke="#000000" stroke-width="1.00"/>
<polygon shape-type="parallel" points="891,586 906,586 900,566 885,566 891,586" fill="url(#lgradient14_1_1)" stroke="#000000" stroke-width="1.00"/>
</g>
<g shape-type="group">
<rect shape-type="rectangle" x="889" y="544" width="12" height="23" fill="url(#lgradient14_2_0)" stroke="#000000" stroke-width="1.00"/>
<rect shape-type="rectangle" x="884" y="539" width="22" height="6" fill="url(#lgradient14_2_1)" stroke="#000000" stroke-width="1.00"/>
</g>
<ellipse shape-type="ellipse" cx="888" cy="567" rx="16" ry="16" fill="url(#rgradient14_3)" stroke="#000000" stroke-width="1.00"/>
<ellipse shape-type="ellipse" cx="888" cy="566" rx="12" ry="11" fill="#00FF00" stroke="#000000" stroke-width="1.00"/>
</g>
<g shape-type="group">
<g shape-type="group">
<ellipse shape-type="ellipse" cx="798" cy="591" rx="7" ry="3" fill="url(#rgradient15_0_0)" stroke="#000000" stroke-width="1.00"/>
<rect shape-type="rectangle" x="790" y="553" width="16" height="38" fill="url(#lgradient15_0_1)" stroke="#000000" stroke-width="1.00"/>
</g>
<line shape-type="limitline" x1="813" y1="553" x2="781" y2="554" fill="#FFFFFF" stroke="#000000" stroke-width="1.00"/>
<line shape-type="limitline" x1="813" y1="550" x2="781" y2="551" fill="#FFFFFF" stroke="#000000" stroke-width="1.00"/>
</g>
<g shape-type="group">
<g shape-type="group">
<ellipse shape-type="ellipse" cx="800" cy="661" rx="7" ry="4" fill="url(#rgradient16_0_0)" stroke="#000000" stroke-width="1.00"/>
<rect shape-type="rectangle" x="792" y="623" width="16" height="37" fill="url(#lgradient16_0_1)" stroke="#000000" stroke-width="1.00"/>
</g>
<line shape-type="limitline" x1="815" y1="623" x2="783" y2="624" fill="#FFFFFF" stroke="#000000" stroke-width="1.00"/>
<line shape-type="limitline" x1="815" y1="620" x2="783" y2="621" fill="#FFFFFF" stroke="#000000" stroke-width="1.00"/>
</g>
<line shape-type="limitline" x1="1319" y1="557" x2="1319" y2="332" fill="#FFFFFF" stroke="#000000" stroke-width="1.00"/>
<line shape-type="limitline" x1="1175" y1="267" x2="1078" y2="267" fill="#FFFFFF" stroke="#000000" stroke-width="1.00"/>
<line shape-type="limitline" x1="1316" y1="265" x2="1273" y2="265" fill="#FFFFFF" stroke="#000000" stroke-width="1.00"/>
<line shape-type="limitline" x1="1317" y1="305" x2="1317" y2="265" fill="#FFFFFF" stroke="#000000" stroke-width="1.00"/>
<line shape-type="limitline" x1="895" y1="539" x2="895" y2="145" fill="#FFFFFF" stroke="#000000" stroke-width="1.00"/>
<line shape-type="limitline" x1="986" y1="146" x2="895" y2="146" fill="#FFFFFF" stroke="#000000" stroke-width="1.00"/>
<line shape-type="limitline" x1="985" y1="484" x2="895" y2="484" fill="#FFFFFF" stroke="#000000" stroke-width="1.00"/>
<line shape-type="limitline" x1="986" y1="540" x2="986" y2="484" fill="#FFFFFF" stroke="#000000" stroke-width="1.00"/>
<line shape-type="limitline" x1="698" y1="645" x2="698" y2="375" fill="#FFFFFF" stroke="#000000" stroke-width="1.00"/>
<line shape-type="limitline" x1="793" y1="645" x2="698" y2="645" fill="#FFFFFF" stroke="#000000" stroke-width="1.00"/>
<line shape-type="limitline" x1="873" y1="568" x2="805" y2="568" fill="#FFFFFF" stroke="#000000" stroke-width="1.00"/>
<line shape-type="limitline" x1="940" y1="644" x2="808" y2="644" fill="#FFFFFF" stroke="#000000" stroke-width="1.00"/>
<line shape-type="limitline" x1="939" y1="568" x2="939" y2="644" fill="#FFFFFF" stroke="#000000" stroke-width="1.00"/>
<line shape-type="limitline" x1="965" y1="568" x2="939" y2="568" fill="#FFFFFF" stroke="#000000" stroke-width="1.00"/>
<line shape-type="limitline" x1="789" y1="570" x2="698" y2="570" fill="#FFFFFF" stroke="#000000" stroke-width="1.00"/>
<line shape-type="limitline" x1="447" y1="226" x2="447" y2="173" fill="#FFFFFF" stroke="#000000" stroke-width="1.00"/>
<line shape-type="line" x1="698" y1="289" x2="447" y2="225" fill="#FFFFFF" stroke="#000000" stroke-width="1.00"/>
<line shape-type="limitline" x1="381" y1="221" x2="120" y2="221" fill="#FFFFFF" stroke="#000000" stroke-width="1.00"/>
<line shape-type="limitline" x1="378" y1="349" x2="117" y2="349" fill="#FFFFFF" stroke="#000000" stroke-width="1.00"/>
<line shape-type="limitline" x1="472" y1="119" x2="472" y2="86" fill="#FFFFFF" stroke="#000000" stroke-width="1.00"/>
<line shape-type="limitline" x1="472" y1="86" x2="273" y2="86" fill="#FFFFFF" stroke="#000000" stroke-width="1.00"/>
<line shape-type="limitline" x1="274" y1="211" x2="274" y2="87" fill="#FFFFFF" stroke="#000000" stroke-width="1.00"/>
<line shape-type="limitline" x1="274" y1="343" x2="274" y2="225" fill="#FFFFFF" stroke="#000000" stroke-width="1.00"/>
<line shape-type="limitline" x1="273" y1="482" x2="273" y2="357" fill="#FFFFFF" stroke="#000000" stroke-width="1.00"/>
<line shape-type="limitline" x1="214" y1="350" x2="214" y2="221" fill="#FFFFFF" stroke="#000000" stroke-width="1.00"/>
<line shape-type="limitline" x1="489" y1="197" x2="489" y2="174" fill="#FFFFFF" stroke="#000000" stroke-width="1.00"/>
<line shape-type="limitline" x1="460" y1="197" x2="489" y2="197" fill="#FFFFFF" stroke="#000000" stroke-width="1.00"/>
<line shape-type="limitline" x1="390" y1="481" x2="390" y2="197" fill="#FFFFFF" stroke="#000000" stroke-width="1.00"/>
<line shape-type="limitline" x1="441" y1="197" x2="391" y2="197" fill="#FFFFFF" stroke="#000000" stroke-width="1.00"/>
<line shape-type="limitline" x1="676" y1="348" x2="400" y2="348" fill="#FFFFFF" stroke="#000000" stroke-width="1.00"/>
<line shape-type="limitline" x1="442" y1="220" x2="395" y2="220" fill="#FFFFFF" stroke="#000000" stroke-width="1.00"/>
<line shape-type="limitline" x1="878" y1="220" x2="454" y2="220" fill="#FFFFFF" stroke="#000000" stroke-width="1.00"/>
<line shape-type="limitline" x1="981" y1="220" x2="899" y2="220" fill="#FFFFFF" stroke="#000000" stroke-width="1.00"/>
<g shape-type="group">
<g shape-type="group">
<g shape-type="group">
<rect shape-type="rectangle" x="457" y="669" width="27" height="6" fill="#808080" stroke="#000000" stroke-width="1.00"/>
<polygon shape-type="parallel" points="484,668 469,668 474,649 489,649 484,668" fill="url(#lgradient50_0_0_1)" stroke="#000000" stroke-width="1.00"/>
</g>
<g shape-type="group">
<rect shape-type="rectangle" x="489" y="669" width="29" height="6" fill="#808080" stroke="#000000" stroke-width="1.00"/>
<polygon shape-type="parallel" points="489,668 504,668 498,647 483,647 489,668" fill="url(#lgradient50_0_1_1)" stroke="#000000" stroke-width="1.00"/>
</g>
<g shape-type="group">
<g shape-type="group">
<rect shape-type="rectangle" x="486" y="625" width="13" height="23" fill="url(#lgradient50_0_2_0_0)" stroke="#000000" stroke-width="1.00"/>
<rect shape-type="rectangle" x="482" y="620" width="22" height="6" fill="url(#lgradient50_0_2_0_1)" stroke="#000000" stroke-width="1.00"/>
</g>
<g shape-type="group">
<ellipse shape-type="ellipse" cx="487" cy="649" rx="16" ry="17" fill="url(#rgradient50_0_2_1_0)" stroke="#000000" stroke-width="1.00"/>
<ellipse shape-type="ellipse" cx="487" cy="647" rx="12" ry="11" fill="#FF0000" stroke="#000000" stroke-width="1.00"/>
</g>
</g>
</g>
<g shape-type="group">
<ellipse shape-type="ellipse" cx="487" cy="648" rx="19" ry="21" fill="#FFFFFF" stroke="#FF0000" stroke-width="3.00"/>
<ellipse shape-type="ellipse" cx="487" cy="649" rx="14" ry="16" fill="#FF0000" stroke="#000000" stroke-width="1.00"/>
<g shape-type="group">
<rect shape-type="rectangle" x="484" y="645" width="5" height="19" stroke="#000000" stroke-width="1.00"/>
<polygon shape-type="trapezium" points="492,648 481,648 487,634 487,634 492,648" stroke="#000000" stroke-width="1.00"/>
</g>
<line shape-type="line" x1="501" y1="660" x2="472" y2="635" fill="#FFFFFF" stroke="#FF0000" stroke-width="3.00"/>
</g>
</g>
<line shape-type="limitline" x1="467" y1="643" x2="111" y2="643" fill="#FFFFFF" stroke="#000000" stroke-width="1.00"/>
<line shape-type="limitline" x1="494" y1="621" x2="494" y2="425" fill="#FFFFFF" stroke="#000000" stroke-width="1.00"/>
<line shape-type="limitline" x1="494" y1="425" x2="395" y2="425" fill="#FFFFFF" stroke="#000000" stroke-width="1.00"/>
<line shape-type="limitline" x1="386" y1="426" x2="276" y2="426" fill="#FFFFFF" stroke="#000000" stroke-width="1.00"/>
<polygon shape-type="trapezium" points="125,215 125,227 107,221 107,221 125,215" stroke="#000000" stroke-width="1.00"/>
<g shape-type="group">
<rect shape-type="rectangle" x="98" y="347" width="28" height="5" stroke="#000000" stroke-width="1.00"/>
<polygon shape-type="trapezium" points="120,343 120,355 138,349 138,349 120,343" stroke="#000000" stroke-width="1.00"/>
</g>
<polygon shape-type="trapezium" points="477,100 467,100 472,119 472,119 477,100" stroke="#000000" stroke-width="1.00"/>
<line shape-type="limitline" x1="428" y1="119" x2="428" y2="91" fill="#FFFFFF" stroke="#000000" stroke-width="1.00"/>
<line shape-type="limitline" x1="428" y1="80" x2="428" y2="63" fill="#FFFFFF" stroke="#000000" stroke-width="1.00"/>
<line shape-type="limitline" x1="798" y1="64" x2="147" y2="64" fill="#FFFFFF" stroke="#000000" stroke-width="1.00"/>
<line shape-type="limitline" x1="798" y1="215" x2="798" y2="64" fill="#FFFFFF" stroke="#000000" stroke-width="1.00"/>
<line shape-type="limitline" x1="798" y1="286" x2="798" y2="226" fill="#FFFFFF" stroke="#000000" stroke-width="1.00"/>
<line shape-type="limitline" x1="889" y1="286" x2="798" y2="286" fill="#FFFFFF" stroke="#000000" stroke-width="1.00"/>
<line shape-type="limitline" x1="994" y1="286" x2="902" y2="286" fill="#FFFFFF" stroke="#000000" stroke-width="1.00"/>
<line shape-type="limitline" x1="994" y1="271" x2="994" y2="286" fill="#FFFFFF" stroke="#000000" stroke-width="1.00"/>
<g shape-type="group">
<rect shape-type="rectangle" x="95" y="640" width="28" height="5" stroke="#000000" stroke-width="1.00"/>
<polygon shape-type="trapezium" points="117,636 117,648 134,642 134,642 117,636" stroke="#000000" stroke-width="1.00"/>
</g>
<g shape-type="group">
<rect shape-type="rectangle" x="130" y="60" width="27" height="6" stroke="#000000" stroke-width="1.00"/>
<polygon shape-type="trapezium" points="151,57 151,69 169,63 169,63 151,57" stroke="#000000" stroke-width="1.00"/>
</g>
<polygon shape-type="trapezium" points="219,330 209,330 214,349 214,349 219,330" stroke="#000000" stroke-width="1.00"/>
<polygon shape-type="trapezium" points="683,292 683,281 701,286 701,286 683,292" stroke="#000000" stroke-width="1.00"/>
<polygon shape-type="trapezium" points="278,465 268,465 273,484 273,484 278,465" stroke="#000000" stroke-width="1.00"/>
<polygon shape-type="trapezium" points="394,465 384,465 389,484 389,484 394,465" stroke="#000000" stroke-width="1.00"/>
<polygon shape-type="trapezium" points="968,151 968,140 986,145 986,145 968,151" stroke="#000000" stroke-width="1.00"/>
<g shape-type="group">
<rect shape-type="rectangle" x="916" y="153" width="64" height="35" fill="#008080" stroke="#000000" stroke-width="1.00"/>
<line shape-type="limitline" x1="978" y1="160" x2="916" y2="161" fill="#008080" stroke="#000000" stroke-width="1.00"/>
<line shape-type="limitline" x1="978" y1="170" x2="916" y2="171" fill="#008080" stroke="#000000" stroke-width="1.00"/>
<line shape-type="limitline" x1="978" y1="178" x2="916" y2="179" fill="#008080" stroke="#000000" stroke-width="1.00"/>
</g>
<g shape-type="group">
<rect shape-type="rectangle" x="918" y="222" width="64" height="34" fill="#008080" stroke="#000000" stroke-width="1.00"/>
<line shape-type="limitline" x1="980" y1="229" x2="918" y2="230" fill="#008080" stroke="#000000" stroke-width="1.00"/>
<line shape-type="limitline" x1="980" y1="239" x2="918" y2="240" fill="#008080" stroke="#000000" stroke-width="1.00"/>
<line shape-type="limitline" x1="980" y1="247" x2="918" y2="248" fill="#008080" stroke="#000000" stroke-width="1.00"/>
</g>
<g shape-type="group">
<polygon shape-type="trapezium" points="433,117 422,117 428,103 428,103 433,117" fill="url(#lgradient75_0)" stroke="#000000" stroke-width="1.00"/>
<polygon shape-type="trapezium" points="433,94 422,94 428,106 428,106 433,94" fill="url(#lgradient75_1)" stroke="#000000" stroke-width="1.00"/>
<line shape-type="limitline" x1="428" y1="106" x2="414" y2="107" fill="#FFFFFF" stroke="#808080" stroke-width="3.00"/>
<path shape-type="chord" d="M 415,94 A 17,15 0 1,0 415,118 z" fill="#808080" stroke="#000000" stroke-width="2.00"/>
</g>
<g shape-type="group">
<rect shape-type="rectangle" x="296" y="129" width="52" height="16" fill="#008080" stroke="#000000" stroke-width="2.00"/>
<rect shape-type="rectangle" x="296" y="144" width="52" height="16" fill="#008080" stroke="#000000" stroke-width="2.00"/>
</g>
<g shape-type="group">
<rect shape-type="rectangle" x="78" y="357" width="52" height="16" fill="#008080" stroke="#000000" stroke-width="2.00"/>
<rect shape-type="rectangle" x="78" y="372" width="52" height="16" fill="#008080" stroke="#000000" stroke-width="2.00"/>
</g>
<g shape-type="group">
<rect shape-type="rectangle" x="143" y="360" width="52" height="16" fill="#008080" stroke="#000000" stroke-width="2.00"/>
<rect shape-type="rectangle" x="143" y="375" width="52" height="16" fill="#008080" stroke="#000000" stroke-width="2.00"/>
</g>
<g shape-type="group">
<rect shape-type="rectangle" x="135" y="224" width="53" height="16" fill="#008080" stroke="#000000" stroke-width="2.00"/>
<rect shape-type="rectangle" x="135" y="239" width="53" height="16" fill="#008080" stroke="#000000" stroke-width="2.00"/>
</g>
<rect shape-type="rectangle" x="135" y="271" width="52" height="19" fill="#008080" stroke="#FFFF00" stroke-width="2.00"/>
<g shape-type="group">
<rect shape-type="rectangle" x="572" y="128" width="52" height="16" fill="#008080" stroke="#000000" stroke-width="2.00"/>
<rect shape-type="rectangle" x="572" y="143" width="52" height="16" fill="#008080" stroke="#000000" stroke-width="2.00"/>
</g>
<g shape-type="group">
<rect shape-type="rectangle" x="497" y="84" width="52" height="16" fill="#008080" stroke="#000000" stroke-width="2.00"/>
<rect shape-type="rectangle" x="497" y="99" width="52" height="16" fill="#008080" stroke="#000000" stroke-width="2.00"/>
</g>
<g shape-type="group">
<rect shape-type="rectangle" x="821" y="524" width="52" height="16" fill="#008080" stroke="#000000" stroke-width="2.00"/>
<rect shape-type="rectangle" x="821" y="539" width="52" height="16" fill="#008080" stroke="#000000" stroke-width="2.00"/>
</g>
<g shape-type="group">
<rect shape-type="rectangle" x="992" y="505" width="52" height="16" fill="#008080" stroke="#000000" stroke-width="2.00"/>
<rect shape-type="rectangle" x="992" y="520" width="52" height="16" fill="#008080" stroke="#000000" stroke-width="2.00"/>
</g>
<text font-family="宋体" text-anchor="start" fill="#000000" shape-type="text" id="" font-size="12.500000" x="508" y="96">PIC</text>
<text font-family="宋体" text-anchor="start" fill="#000000" shape-type="text" id="" font-size="12.500000" x="585" y="140">LT</text>
<text font-family="宋体" text-anchor="start" fill="#000000" shape-type="text" id="" font-size="12.500000" x="308" y="142">TE</text>
<text font-family="宋体" text-anchor="start" fill="#000000" shape-type="text" id="" font-size="12.500000" x="153" y="237">PT</text>
<text font-family="宋体" text-anchor="start" fill="#000000" shape-type="text" id="" font-size="12.500000" x="160" y="372">PT</text>
<text font-family="宋体" text-anchor="start" fill="#000000" shape-type="text" id="" font-size="12.500000" x="93" y="369">TE</text>
<text font-family="宋体" text-anchor="start" fill="#000000" shape-type="text" id="" font-size="12.500000" x="147" y="285">PDV</text>
<g shape-type="group">
<polygon shape-type="trapezium" points="219,293 207,293 213,279 213,279 219,293" fill="url(#lgradient92_0)" stroke="#000000" stroke-width="1.00"/>
<polygon shape-type="trapezium" points="219,270 207,270 213,282 213,282 219,270" fill="url(#lgradient92_1)" stroke="#000000" stroke-width="1.00"/>
<line shape-type="limitline" x1="214" y1="282" x2="199" y2="283" fill="#FFFFFF" stroke="#808080" stroke-width="3.00"/>
<path shape-type="chord" d="M 200,270 A 17,15 0 1,0 200,294 z" fill="#808080" stroke="#000000" stroke-width="2.00"/>
</g>
<text font-family="宋体" text-anchor="start" fill="#000000" shape-type="text" id="" font-size="12.500000" x="838" y="537">IT</text>
<text font-family="宋体" text-anchor="start" fill="#000000" shape-type="text" id="" font-size="12.500000" x="1003" y="518">IT</text>
<text font-family="宋体" text-anchor="start" fill="#000000" shape-type="text" id="" font-size="12.500000" x="304" y="524">V-401</text>
<text font-family="宋体" text-anchor="start" fill="#000000" shape-type="text" id="" font-size="12.500000" x="447" y="151">V-402</text>
<text font-family="宋体" text-anchor="start" fill="#000000" shape-type="text" id="" font-size="12.500000" x="679" y="337">V-403</text>
<text font-family="宋体" text-anchor="start" fill="#000000" shape-type="text" id="" font-size="12.500000" x="1004" y="126">F-401</text>
<text font-family="宋体" text-anchor="start" fill="#000000" shape-type="text" id="" font-size="12.500000" x="1199" y="249">E-401</text>
<text font-family="宋体" text-anchor="start" fill="#000000" shape-type="text" id="" font-size="12.500000" x="167" y="60">N2</text>
<text font-family="宋体" text-anchor="start" fill="#000000" shape-type="text" id="" font-size="12.500000" x="135" y="216">导热油去992工段</text>
<text font-family="宋体" text-anchor="start" fill="#000000" shape-type="text" id="" font-size="12.500000" x="90" y="338">导热油自992工段</text>
<text font-family="宋体" text-anchor="start" fill="#000000" shape-type="text" id="" font-size="12.500000" x="131" y="635">导热油补充</text>
<text font-family="宋体" text-anchor="start" fill="#000000" shape-type="text" id="" font-size="12.500000" x="469" y="694">F-402</text>
<text font-family="宋体" text-anchor="start" fill="#000000" shape-type="text" id="" font-size="12.500000" x="1292" y="626">K-401</text>
<text font-family="宋体" text-anchor="start" fill="#000000" shape-type="text" id="" font-size="12.500000" x="864" y="610">P-401A</text>
<text font-family="宋体" text-anchor="start" fill="#000000" shape-type="text" id="" font-size="12.500000" x="959" y="611">P-402B</text>
<g shape-type="button">
<rect fill="#C0C0C0" stroke-width="0.3" stroke="#FFFFFF" x="66" y="696" width="51" height="29" shape-type="buttonrect"/>
<text font-family="宋体" text-anchor="middle" dominant-baseline="middle" fill="#000000" font-size="13.500000" x="92" y="716" shape-type="buttontext">主页</text>
</g>
<g shape-type="button">
<rect fill="#C0C0C0" stroke-width="0.3" stroke="#FFFFFF" x="116" y="696" width="53" height="29" shape-type="buttonrect"/>
<text font-family="宋体" text-anchor="middle" dominant-baseline="middle" fill="#000000" font-size="13.500000" x="143" y="716" shape-type="buttontext">404</text>
</g>
<g shape-type="button">
<rect fill="#C0C0C0" stroke-width="0.3" stroke="#FFFFFF" x="168" y="696" width="45" height="29" shape-type="buttonrect"/>
<text font-family="宋体" text-anchor="middle" dominant-baseline="middle" fill="#000000" font-size="13.500000" x="191" y="716" shape-type="buttontext">741</text>
</g>
<text font-family="宋体" text-anchor="start" fill="#000000" shape-type="text" id="" font-size="29.750000" x="641" y="44">热煤工段</text>
<rect shape-type="rectangle" x="532" y="606" width="59" height="20" fill="#00FF00" stroke="#000000" stroke-width="2.00"/>
<text font-family="宋体" text-anchor="start" fill="#000000" shape-type="text" id="" font-size="12.500000" x="533" y="620">连锁切除</text>
<line shape-type="limitline" x1="577" y1="606" x2="577" y2="158" fill="#FFFFFF" stroke="#FFFFFF" stroke-width="2.00" stroke-dasharray="5 10"/>
<line shape-type="limitline" x1="172" y1="271" x2="172" y2="255" fill="#FFFFFF" stroke="#FFFFFF" stroke-width="2.00" stroke-dasharray="5 10"/>
<line shape-type="limitline" x1="172" y1="359" x2="172" y2="288" fill="#FFFFFF" stroke="#FFFFFF" stroke-width="2.00" stroke-dasharray="5 10"/>
<a xlink:href="..\梨树总图.svg">
<g shape-type="button">
<rect fill="#C0C0C0" stroke-width="0.3" stroke="#FFFFFF" x="1318" y="692" width="51" height="29" shape-type="buttonrect"/>
<text font-family="宋体" text-anchor="middle" dominant-baseline="middle" fill="#000000" font-size="13.500000" x="1343" y="712" shape-type="buttontext">返回</text>
</g>
</a>
</svg>