<svg xmlns="http://www.w3.org/2000/svg" xmlns:xlink="http://www.w3.org/1999/xlink" version="1.1" style="background-color:#7DB6C1" width="1062" height="669" viewbox="0 0 1062 669"><defs>
<radialGradient cx="50.000000%" cy="50.000000%" r="50.000000%" fx="50.000000%" fy="50.000000%" id="rgradient1_0">
<stop offset="0%" stop-color="#FFFFFF" stop-opacity="1"/>
<stop offset="100%" stop-color="#2C2C2C" stop-opacity="1"/>
</radialGradient>
<radialGradient cx="50.000000%" cy="50.000000%" r="50.000000%" fx="50.000000%" fy="50.000000%" id="rgradient1_1">
<stop offset="0%" stop-color="#FFFFFF" stop-opacity="1"/>
<stop offset="100%" stop-color="#2C2C2C" stop-opacity="1"/>
</radialGradient>
<linearGradient x1="0.000000%" y1="50.000000%" x2="100.000000%" y2="50.000000%" id="lgradient1_2">
<stop offset="0" stop-color="#2C2C2C" stop-opacity="1"/>
<stop offset="0.5" stop-color="#FFFFFF" stop-opacity="1"/>
<stop offset="1" stop-color="#2C2C2C" stop-opacity="1"/>
</linearGradient>
<radialGradient cx="50.000000%" cy="50.000000%" r="50.000000%" fx="50.000000%" fy="50.000000%" id="rgradient2_0">
<stop offset="0%" stop-color="#FFFFFF" stop-opacity="1"/>
<stop offset="100%" stop-color="#2C2C2C" stop-opacity="1"/>
</radialGradient>
<radialGradient cx="50.000000%" cy="50.000000%" r="50.000000%" fx="50.000000%" fy="50.000000%" id="rgradient2_1">
<stop offset="0%" stop-color="#FFFFFF" stop-opacity="1"/>
<stop offset="100%" stop-color="#2C2C2C" stop-opacity="1"/>
</radialGradient>
<linearGradient x1="0.000000%" y1="50.000000%" x2="100.000000%" y2="50.000000%" id="lgradient2_2">
<stop offset="0" stop-color="#2C2C2C" stop-opacity="1"/>
<stop offset="0.5" stop-color="#FFFFFF" stop-opacity="1"/>
<stop offset="1" stop-color="#2C2C2C" stop-opacity="1"/>
</linearGradient>
<linearGradient x1="0.000000%" y1="50.000000%" x2="100.000000%" y2="50.000000%" id="lgradient3_0">
<stop offset="0" stop-color="#2C2C2C" stop-opacity="1"/>
<stop offset="0.5" stop-color="#FFFFFF" stop-opacity="1"/>
<stop offset="1" stop-color="#2C2C2C" stop-opacity="1"/>
</linearGradient>
<linearGradient x1="50.000000%" y1="0.000000%" x2="50.000000%" y2="100.000000%" id="lgradient3_1">
<stop offset="0" stop-color="#2C2C2C" stop-opacity="1"/>
<stop offset="0.5" stop-color="#FFFFFF" stop-opacity="1"/>
<stop offset="1" stop-color="#2C2C2C" stop-opacity="1"/>
</linearGradient>
<linearGradient x1="50.000000%" y1="0.000000%" x2="50.000000%" y2="100.000000%" id="lgradient3_2">
<stop offset="0" stop-color="#2C2C2C" stop-opacity="1"/>
<stop offset="0.5" stop-color="#FFFFFF" stop-opacity="1"/>
<stop offset="1" stop-color="#2C2C2C" stop-opacity="1"/>
</linearGradient>
<linearGradient x1="0.000000%" y1="50.000000%" x2="100.000000%" y2="50.000000%" id="lgradient4_0">
<stop offset="0" stop-color="#2C2C2C" stop-opacity="1"/>
<stop offset="0.5" stop-color="#FFFFFF" stop-opacity="1"/>
<stop offset="1" stop-color="#2C2C2C" stop-opacity="1"/>
</linearGradient>
<linearGradient x1="50.000000%" y1="0.000000%" x2="50.000000%" y2="100.000000%" id="lgradient4_1">
<stop offset="0" stop-color="#2C2C2C" stop-opacity="1"/>
<stop offset="0.5" stop-color="#FFFFFF" stop-opacity="1"/>
<stop offset="1" stop-color="#2C2C2C" stop-opacity="1"/>
</linearGradient>
<linearGradient x1="50.000000%" y1="0.000000%" x2="50.000000%" y2="100.000000%" id="lgradient4_2">
<stop offset="0" stop-color="#2C2C2C" stop-opacity="1"/>
<stop offset="0.5" stop-color="#FFFFFF" stop-opacity="1"/>
<stop offset="1" stop-color="#2C2C2C" stop-opacity="1"/>
</linearGradient>
<radialGradient cx="50.000000%" cy="50.000000%" r="50.000000%" fx="50.000000%" fy="50.000000%" id="rgradient5_0">
<stop offset="0%" stop-color="#FFFFFF" stop-opacity="1"/>
<stop offset="100%" stop-color="#2C2C2C" stop-opacity="1"/>
</radialGradient>
<radialGradient cx="50.000000%" cy="50.000000%" r="50.000000%" fx="50.000000%" fy="50.000000%" id="rgradient5_1">
<stop offset="0%" stop-color="#FFFFFF" stop-opacity="1"/>
<stop offset="100%" stop-color="#2C2C2C" stop-opacity="1"/>
</radialGradient>
<linearGradient x1="0.000000%" y1="50.000000%" x2="100.000000%" y2="50.000000%" id="lgradient5_2">
<stop offset="0" stop-color="#2C2C2C" stop-opacity="1"/>
<stop offset="0.5" stop-color="#FFFFFF" stop-opacity="1"/>
<stop offset="1" stop-color="#2C2C2C" stop-opacity="1"/>
</linearGradient>
<linearGradient x1="0%" y1="40%" x2="100%" y2="60%" id="lgradient9_0_1">
<stop offset="0" stop-color="#2C2C2C" stop-opacity="1"/>
<stop offset="0.5" stop-color="#FFFFFF" stop-opacity="1"/>
<stop offset="1" stop-color="#2C2C2C" stop-opacity="1"/></linearGradient>
<linearGradient x1="0%" y1="60%" x2="100%" y2="40%" id="lgradient9_1_1">
<stop offset="0" stop-color="#2C2C2C" stop-opacity="1"/>
<stop offset="0.5" stop-color="#FFFFFF" stop-opacity="1"/>
<stop offset="1" stop-color="#2C2C2C" stop-opacity="1"/></linearGradient>
<linearGradient x1="0.000000%" y1="50.000000%" x2="100.000000%" y2="50.000000%" id="lgradient9_2_0">
<stop offset="0" stop-color="#2C2C2C" stop-opacity="1"/>
<stop offset="0.5" stop-color="#FFFFFF" stop-opacity="1"/>
<stop offset="1" stop-color="#2C2C2C" stop-opacity="1"/>
</linearGradient>
<linearGradient x1="50.000000%" y1="0.000000%" x2="50.000000%" y2="100.000000%" id="lgradient9_2_1">
<stop offset="0" stop-color="#2C2C2C" stop-opacity="1"/>
<stop offset="0.5" stop-color="#FFFFFF" stop-opacity="1"/>
<stop offset="1" stop-color="#2C2C2C" stop-opacity="1"/>
</linearGradient>
<radialGradient cx="50.000000%" cy="50.000000%" r="50.000000%" fx="50.000000%" fy="50.000000%" id="rgradient9_3_0">
<stop offset="0%" stop-color="#FFFFFF" stop-opacity="1"/>
<stop offset="100%" stop-color="#2C2C2C" stop-opacity="1"/>
</radialGradient>
<linearGradient x1="0%" y1="40%" x2="100%" y2="60%" id="lgradient10_0_1">
<stop offset="0" stop-color="#2C2C2C" stop-opacity="1"/>
<stop offset="0.5" stop-color="#FFFFFF" stop-opacity="1"/>
<stop offset="1" stop-color="#2C2C2C" stop-opacity="1"/></linearGradient>
<linearGradient x1="0%" y1="60%" x2="100%" y2="40%" id="lgradient10_1_1">
<stop offset="0" stop-color="#2C2C2C" stop-opacity="1"/>
<stop offset="0.5" stop-color="#FFFFFF" stop-opacity="1"/>
<stop offset="1" stop-color="#2C2C2C" stop-opacity="1"/></linearGradient>
<linearGradient x1="0.000000%" y1="50.000000%" x2="100.000000%" y2="50.000000%" id="lgradient10_2_0">
<stop offset="0" stop-color="#2C2C2C" stop-opacity="1"/>
<stop offset="0.5" stop-color="#FFFFFF" stop-opacity="1"/>
<stop offset="1" stop-color="#2C2C2C" stop-opacity="1"/>
</linearGradient>
<linearGradient x1="50.000000%" y1="0.000000%" x2="50.000000%" y2="100.000000%" id="lgradient10_2_1">
<stop offset="0" stop-color="#2C2C2C" stop-opacity="1"/>
<stop offset="0.5" stop-color="#FFFFFF" stop-opacity="1"/>
<stop offset="1" stop-color="#2C2C2C" stop-opacity="1"/>
</linearGradient>
<radialGradient cx="50.000000%" cy="50.000000%" r="50.000000%" fx="50.000000%" fy="50.000000%" id="rgradient10_3_0">
<stop offset="0%" stop-color="#FFFFFF" stop-opacity="1"/>
<stop offset="100%" stop-color="#2C2C2C" stop-opacity="1"/>
</radialGradient>
<linearGradient x1="0%" y1="40%" x2="100%" y2="60%" id="lgradient46_0_1">
<stop offset="0" stop-color="#2C2C2C" stop-opacity="1"/>
<stop offset="0.5" stop-color="#FFFFFF" stop-opacity="1"/>
<stop offset="1" stop-color="#2C2C2C" stop-opacity="1"/></linearGradient>
<linearGradient x1="0%" y1="60%" x2="100%" y2="40%" id="lgradient46_1_1">
<stop offset="0" stop-color="#2C2C2C" stop-opacity="1"/>
<stop offset="0.5" stop-color="#FFFFFF" stop-opacity="1"/>
<stop offset="1" stop-color="#2C2C2C" stop-opacity="1"/></linearGradient>
<linearGradient x1="0.000000%" y1="50.000000%" x2="100.000000%" y2="50.000000%" id="lgradient46_2_0_0">
<stop offset="0" stop-color="#2C2C2C" stop-opacity="1"/>
<stop offset="0.5" stop-color="#FFFFFF" stop-opacity="1"/>
<stop offset="1" stop-color="#2C2C2C" stop-opacity="1"/>
</linearGradient>
<linearGradient x1="50.000000%" y1="0.000000%" x2="50.000000%" y2="100.000000%" id="lgradient46_2_0_1">
<stop offset="0" stop-color="#2C2C2C" stop-opacity="1"/>
<stop offset="0.5" stop-color="#FFFFFF" stop-opacity="1"/>
<stop offset="1" stop-color="#2C2C2C" stop-opacity="1"/>
</linearGradient>
<radialGradient cx="50.000000%" cy="50.000000%" r="50.000000%" fx="50.000000%" fy="50.000000%" id="rgradient46_2_1_0">
<stop offset="0%" stop-color="#FFFFFF" stop-opacity="1"/>
<stop offset="100%" stop-color="#2C2C2C" stop-opacity="1"/>
</radialGradient>
<linearGradient x1="0%" y1="40%" x2="100%" y2="60%" id="lgradient47_0_1">
<stop offset="0" stop-color="#2C2C2C" stop-opacity="1"/>
<stop offset="0.5" stop-color="#FFFFFF" stop-opacity="1"/>
<stop offset="1" stop-color="#2C2C2C" stop-opacity="1"/></linearGradient>
<linearGradient x1="0%" y1="60%" x2="100%" y2="40%" id="lgradient47_1_1">
<stop offset="0" stop-color="#2C2C2C" stop-opacity="1"/>
<stop offset="0.5" stop-color="#FFFFFF" stop-opacity="1"/>
<stop offset="1" stop-color="#2C2C2C" stop-opacity="1"/></linearGradient>
<linearGradient x1="0.000000%" y1="50.000000%" x2="100.000000%" y2="50.000000%" id="lgradient47_2_0">
<stop offset="0" stop-color="#2C2C2C" stop-opacity="1"/>
<stop offset="0.5" stop-color="#FFFFFF" stop-opacity="1"/>
<stop offset="1" stop-color="#2C2C2C" stop-opacity="1"/>
</linearGradient>
<linearGradient x1="50.000000%" y1="0.000000%" x2="50.000000%" y2="100.000000%" id="lgradient47_2_1">
<stop offset="0" stop-color="#2C2C2C" stop-opacity="1"/>
<stop offset="0.5" stop-color="#FFFFFF" stop-opacity="1"/>
<stop offset="1" stop-color="#2C2C2C" stop-opacity="1"/>
</linearGradient>
<radialGradient cx="50.000000%" cy="50.000000%" r="50.000000%" fx="50.000000%" fy="50.000000%" id="rgradient47_3">
<stop offset="0%" stop-color="#FFFFFF" stop-opacity="1"/>
<stop offset="100%" stop-color="#2C2C2C" stop-opacity="1"/>
</radialGradient>
<linearGradient x1="0%" y1="40%" x2="100%" y2="60%" id="lgradient48_0_1">
<stop offset="0" stop-color="#2C2C2C" stop-opacity="1"/>
<stop offset="0.5" stop-color="#FFFFFF" stop-opacity="1"/>
<stop offset="1" stop-color="#2C2C2C" stop-opacity="1"/></linearGradient>
<linearGradient x1="0%" y1="60%" x2="100%" y2="40%" id="lgradient48_1_1">
<stop offset="0" stop-color="#2C2C2C" stop-opacity="1"/>
<stop offset="0.5" stop-color="#FFFFFF" stop-opacity="1"/>
<stop offset="1" stop-color="#2C2C2C" stop-opacity="1"/></linearGradient>
<linearGradient x1="0.000000%" y1="50.000000%" x2="100.000000%" y2="50.000000%" id="lgradient48_2_0_0">
<stop offset="0" stop-color="#2C2C2C" stop-opacity="1"/>
<stop offset="0.5" stop-color="#FFFFFF" stop-opacity="1"/>
<stop offset="1" stop-color="#2C2C2C" stop-opacity="1"/>
</linearGradient>
<linearGradient x1="50.000000%" y1="0.000000%" x2="50.000000%" y2="100.000000%" id="lgradient48_2_0_1">
<stop offset="0" stop-color="#2C2C2C" stop-opacity="1"/>
<stop offset="0.5" stop-color="#FFFFFF" stop-opacity="1"/>
<stop offset="1" stop-color="#2C2C2C" stop-opacity="1"/>
</linearGradient>
<radialGradient cx="50.000000%" cy="50.000000%" r="50.000000%" fx="50.000000%" fy="50.000000%" id="rgradient48_2_1_0">
<stop offset="0%" stop-color="#FFFFFF" stop-opacity="1"/>
<stop offset="100%" stop-color="#2C2C2C" stop-opacity="1"/>
</radialGradient>
</defs>
<g shape-type="group">
<ellipse shape-type="ellipse" cx="217" cy="393" rx="39" ry="18" fill="url(#rgradient1_0)" stroke="#000000" stroke-width="1.00"/>
<ellipse shape-type="ellipse" cx="217" cy="496" rx="39" ry="18" fill="url(#rgradient1_1)" stroke="#000000" stroke-width="1.00"/>
<rect shape-type="rectangle" x="178" y="392" width="78" height="106" fill="url(#lgradient1_2)" stroke="#000000" stroke-width="1.00"/>
</g>
<g shape-type="group">
<ellipse shape-type="ellipse" cx="503" cy="393" rx="39" ry="18" fill="url(#rgradient2_0)" stroke="#000000" stroke-width="1.00"/>
<ellipse shape-type="ellipse" cx="503" cy="497" rx="39" ry="18" fill="url(#rgradient2_1)" stroke="#000000" stroke-width="1.00"/>
<rect shape-type="rectangle" x="464" y="393" width="78" height="106" fill="url(#lgradient2_2)" stroke="#000000" stroke-width="1.00"/>
</g>
<g shape-type="group">
<rect shape-type="roundRectangle" rx="20" ry="20" x="209" y="158" width="18" height="131" fill="url(#lgradient3_0)" stroke="#000000" stroke-width="1.00"/>
<rect shape-type="rectangle" x="203" y="177" width="31" height="3" fill="url(#lgradient3_1)" stroke="#000000" stroke-width="1.00"/>
<rect shape-type="rectangle" x="202" y="269" width="31" height="3" fill="url(#lgradient3_2)" stroke="#000000" stroke-width="1.00"/>
<line shape-type="limitline" x1="213" y1="269" x2="212" y2="179" fill="#FFFFFF" stroke="#000000" stroke-width="1.00"/>
<line shape-type="limitline" x1="218" y1="269" x2="217" y2="179" fill="#FFFFFF" stroke="#000000" stroke-width="1.00"/>
<line shape-type="limitline" x1="222" y1="270" x2="221" y2="180" fill="#FFFFFF" stroke="#000000" stroke-width="1.00"/>
</g>
<g shape-type="group">
<rect shape-type="roundRectangle" rx="20" ry="20" x="496" y="157" width="18" height="131" fill="url(#lgradient4_0)" stroke="#000000" stroke-width="1.00"/>
<rect shape-type="rectangle" x="490" y="176" width="31" height="3" fill="url(#lgradient4_1)" stroke="#000000" stroke-width="1.00"/>
<rect shape-type="rectangle" x="489" y="268" width="31" height="3" fill="url(#lgradient4_2)" stroke="#000000" stroke-width="1.00"/>
<line shape-type="limitline" x1="499" y1="268" x2="498" y2="178" fill="#FFFFFF" stroke="#000000" stroke-width="1.00"/>
<line shape-type="limitline" x1="504" y1="268" x2="503" y2="178" fill="#FFFFFF" stroke="#000000" stroke-width="1.00"/>
<line shape-type="limitline" x1="508" y1="269" x2="507" y2="179" fill="#FFFFFF" stroke="#000000" stroke-width="1.00"/>
</g>
<g shape-type="group">
<ellipse shape-type="ellipse" cx="804" cy="290" rx="39" ry="18" fill="url(#rgradient5_0)" stroke="#000000" stroke-width="1.00"/>
<ellipse shape-type="ellipse" cx="804" cy="395" rx="39" ry="18" fill="url(#rgradient5_1)" stroke="#000000" stroke-width="1.00"/>
<rect shape-type="rectangle" x="765" y="290" width="78" height="106" fill="url(#lgradient5_2)" stroke="#000000" stroke-width="1.00"/>
</g>
<rect shape-type="rectangle" x="1010" y="194" width="151" height="56" fill="#C0C0C0" stroke="#000000" stroke-width="1.00"/>
<rect shape-type="rectangle" x="1012" y="319" width="151" height="56" fill="#C0C0C0" stroke="#000000" stroke-width="1.00"/>
<rect shape-type="rectangle" x="1015" y="445" width="151" height="56" fill="#C0C0C0" stroke="#000000" stroke-width="1.00"/>
<g shape-type="group">
<g shape-type="group">
<rect shape-type="rectangle" x="333" y="691" width="27" height="6" fill="#808080" stroke="#000000" stroke-width="1.00"/>
<polygon shape-type="parallel" points="360,690 345,690 350,670 365,670 360,690" fill="url(#lgradient9_0_1)" stroke="#000000" stroke-width="1.00"/>
</g>
<g shape-type="group">
<rect shape-type="rectangle" x="365" y="690" width="29" height="7" fill="#808080" stroke="#000000" stroke-width="1.00"/>
<polygon shape-type="parallel" points="365,689 380,689 374,667 359,667 365,689" fill="url(#lgradient9_1_1)" stroke="#000000" stroke-width="1.00"/>
</g>
<g shape-type="group">
<rect shape-type="rectangle" x="346" y="647" width="11" height="23" fill="url(#lgradient9_2_0)" stroke="#000000" stroke-width="1.00"/>
<rect shape-type="rectangle" x="341" y="642" width="23" height="6" fill="url(#lgradient9_2_1)" stroke="#000000" stroke-width="1.00"/>
</g>
<g shape-type="group">
<ellipse shape-type="ellipse" cx="363" cy="668" rx="16" ry="17" fill="url(#rgradient9_3_0)" stroke="#000000" stroke-width="1.00"/>
<ellipse shape-type="ellipse" cx="363" cy="666" rx="12" ry="11" fill="#FF0000" stroke="#000000" stroke-width="1.00"/>
</g>
</g>
<g shape-type="group">
<g shape-type="group">
<rect shape-type="rectangle" x="433" y="691" width="27" height="6" fill="#808080" stroke="#000000" stroke-width="1.00"/>
<polygon shape-type="parallel" points="460,690 445,690 450,670 465,670 460,690" fill="url(#lgradient10_0_1)" stroke="#000000" stroke-width="1.00"/>
</g>
<g shape-type="group">
<rect shape-type="rectangle" x="465" y="690" width="29" height="7" fill="#808080" stroke="#000000" stroke-width="1.00"/>
<polygon shape-type="parallel" points="465,689 480,689 474,667 459,667 465,689" fill="url(#lgradient10_1_1)" stroke="#000000" stroke-width="1.00"/>
</g>
<g shape-type="group">
<rect shape-type="rectangle" x="446" y="647" width="11" height="23" fill="url(#lgradient10_2_0)" stroke="#000000" stroke-width="1.00"/>
<rect shape-type="rectangle" x="441" y="642" width="23" height="6" fill="url(#lgradient10_2_1)" stroke="#000000" stroke-width="1.00"/>
</g>
<g shape-type="group">
<ellipse shape-type="ellipse" cx="463" cy="668" rx="16" ry="17" fill="url(#rgradient10_3_0)" stroke="#000000" stroke-width="1.00"/>
<ellipse shape-type="ellipse" cx="463" cy="666" rx="12" ry="11" fill="#FF0000" stroke="#000000" stroke-width="1.00"/>
</g>
</g>
<line shape-type="limitline" x1="504" y1="375" x2="504" y2="288" fill="#FFFFFF" stroke="#000000" stroke-width="1.00"/>
<line shape-type="limitline" x1="217" y1="375" x2="217" y2="287" fill="#FFFFFF" stroke="#000000" stroke-width="1.00"/>
<line shape-type="limitline" x1="503" y1="715" x2="503" y2="515" fill="#FFFFFF" stroke="#000000" stroke-width="1.00"/>
<line shape-type="limitline" x1="410" y1="715" x2="503" y2="715" fill="#FFFFFF" stroke="#000000" stroke-width="1.00"/>
<line shape-type="limitline" x1="409" y1="668" x2="409" y2="715" fill="#FFFFFF" stroke="#000000" stroke-width="1.00"/>
<line shape-type="limitline" x1="379" y1="667" x2="409" y2="667" fill="#FFFFFF" stroke="#000000" stroke-width="1.00"/>
<line shape-type="limitline" x1="503" y1="667" x2="478" y2="667" fill="#FFFFFF" stroke="#000000" stroke-width="1.00"/>
<line shape-type="limitline" x1="351" y1="642" x2="351" y2="626" fill="#FFFFFF" stroke="#000000" stroke-width="1.00"/>
<line shape-type="limitline" x1="453" y1="642" x2="453" y2="626" fill="#FFFFFF" stroke="#000000" stroke-width="1.00"/>
<line shape-type="limitline" x1="453" y1="626" x2="36" y2="626" fill="#FFFFFF" stroke="#000000" stroke-width="1.00"/>
<line shape-type="limitline" x1="216" y1="530" x2="216" y2="513" fill="#FFFFFF" stroke="#000000" stroke-width="1.00"/>
<line shape-type="limitline" x1="504" y1="531" x2="216" y2="531" fill="#FFFFFF" stroke="#000000" stroke-width="1.00"/>
<line shape-type="limitline" x1="466" y1="423" x2="423" y2="423" fill="#FFFFFF" stroke="#000000" stroke-width="1.00"/>
<line shape-type="limitline" x1="422" y1="524" x2="422" y2="423" fill="#FFFFFF" stroke="#000000" stroke-width="1.00"/>
<line shape-type="limitline" x1="422" y1="551" x2="422" y2="539" fill="#FFFFFF" stroke="#000000" stroke-width="1.00"/>
<line shape-type="limitline" x1="422" y1="552" x2="41" y2="552" fill="#FFFFFF" stroke="#000000" stroke-width="1.00"/>
<line shape-type="limitline" x1="179" y1="428" x2="128" y2="428" fill="#FFFFFF" stroke="#000000" stroke-width="1.00"/>
<line shape-type="limitline" x1="128" y1="553" x2="128" y2="428" fill="#FFFFFF" stroke="#000000" stroke-width="1.00"/>
<line shape-type="limitline" x1="504" y1="107" x2="30" y2="107" fill="#FFFFFF" stroke="#000000" stroke-width="1.00"/>
<line shape-type="limitline" x1="505" y1="158" x2="505" y2="107" fill="#FFFFFF" stroke="#000000" stroke-width="1.00"/>
<line shape-type="limitline" x1="218" y1="158" x2="218" y2="108" fill="#FFFFFF" stroke="#000000" stroke-width="1.00"/>
<polygon shape-type="trapezium" points="33,113 33,101 21,107 21,107 33,113" stroke="#000000" stroke-width="1.00"/>
<polygon shape-type="trapezium" points="47,633 47,621 35,627 35,627 47,633" stroke="#000000" stroke-width="1.00"/>
<g shape-type="group">
<polygon shape-type="trapezium" points="50,546 50,560 63,553 63,553 50,546" stroke="#000000" stroke-width="1.00"/>
<rect shape-type="rectangle" x="26" y="551" width="28" height="3" stroke="#000000" stroke-width="1.00"/>
</g>
<rect shape-type="rectangle" x="243" y="392" width="13" height="106" fill="#FFFFFF" stroke="#000000" stroke-width="1.00"/>
<rect shape-type="rectangle" x="529" y="391" width="13" height="106" fill="#FFFFFF" stroke="#000000" stroke-width="1.00"/>
<rect shape-type="rectangle" x="765" y="290" width="13" height="106" fill="#FFFFFF" stroke="#000000" stroke-width="1.00"/>
<line shape-type="limitline" x1="766" y1="345" x2="567" y2="345" fill="#FFFFFF" stroke="#000000" stroke-width="1.00"/>
<line shape-type="limitline" x1="778" y1="280" x2="778" y2="158" fill="#FFFFFF" stroke="#000000" stroke-width="1.00"/>
<line shape-type="limitline" x1="779" y1="158" x2="571" y2="158" fill="#FFFFFF" stroke="#000000" stroke-width="1.00"/>
<line shape-type="limitline" x1="803" y1="273" x2="803" y2="114" fill="#FFFFFF" stroke="#000000" stroke-width="1.00"/>
<line shape-type="limitline" x1="803" y1="113" x2="571" y2="113" fill="#FFFFFF" stroke="#000000" stroke-width="1.00"/>
<g shape-type="group">
<polygon shape-type="trapezium" points="579,151 579,164 592,158 592,158 579,151" stroke="#000000" stroke-width="1.00"/>
<rect shape-type="rectangle" x="556" y="156" width="27" height="3" stroke="#000000" stroke-width="1.00"/>
</g>
<g shape-type="group">
<polygon shape-type="trapezium" points="578,106 578,119 591,113 591,113 578,106" stroke="#000000" stroke-width="1.00"/>
<rect shape-type="rectangle" x="555" y="111" width="27" height="4" stroke="#000000" stroke-width="1.00"/>
</g>
<g shape-type="group">
<polygon shape-type="trapezium" points="573,338 573,351 585,345 585,345 573,338" stroke="#000000" stroke-width="1.00"/>
<rect shape-type="rectangle" x="549" y="343" width="28" height="3" stroke="#000000" stroke-width="1.00"/>
</g>
<g shape-type="group">
<g shape-type="group">
<rect shape-type="rectangle" x="993" y="691" width="28" height="6" fill="#808080" stroke="#000000" stroke-width="1.00"/>
<polygon shape-type="parallel" points="1020,690 1005,690 1010,671 1025,671 1020,690" fill="url(#lgradient46_0_1)" stroke="#000000" stroke-width="1.00"/>
</g>
<g shape-type="group">
<rect shape-type="rectangle" x="1025" y="691" width="29" height="6" fill="#808080" stroke="#000000" stroke-width="1.00"/>
<polygon shape-type="parallel" points="1026,690 1041,690 1035,669 1020,669 1026,690" fill="url(#lgradient46_1_1)" stroke="#000000" stroke-width="1.00"/>
</g>
<g shape-type="group">
<g shape-type="group">
<rect shape-type="rectangle" x="1023" y="647" width="12" height="23" fill="url(#lgradient46_2_0_0)" stroke="#000000" stroke-width="1.00"/>
<rect shape-type="rectangle" x="1019" y="642" width="22" height="6" fill="url(#lgradient46_2_0_1)" stroke="#000000" stroke-width="1.00"/>
</g>
<g shape-type="group">
<ellipse shape-type="ellipse" cx="1023" cy="671" rx="17" ry="17" fill="url(#rgradient46_2_1_0)" stroke="#000000" stroke-width="1.00"/>
<ellipse shape-type="ellipse" cx="1022" cy="669" rx="12" ry="11" fill="#FF0000" stroke="#000000" stroke-width="1.00"/>
</g>
</g>
</g>
<g shape-type="group">
<g shape-type="group">
<rect shape-type="rectangle" x="838" y="691" width="27" height="6" fill="#808080" stroke="#000000" stroke-width="1.00"/>
<polygon shape-type="parallel" points="864,690 849,690 854,671 869,671 864,690" fill="url(#lgradient47_0_1)" stroke="#000000" stroke-width="1.00"/>
</g>
<g shape-type="group">
<rect shape-type="rectangle" x="869" y="691" width="29" height="6" fill="#808080" stroke="#000000" stroke-width="1.00"/>
<polygon shape-type="parallel" points="869,690 884,690 879,669 864,669 869,690" fill="url(#lgradient47_1_1)" stroke="#000000" stroke-width="1.00"/>
</g>
<g shape-type="group">
<rect shape-type="rectangle" x="867" y="647" width="12" height="23" fill="url(#lgradient47_2_0)" stroke="#000000" stroke-width="1.00"/>
<rect shape-type="rectangle" x="863" y="642" width="21" height="6" fill="url(#lgradient47_2_1)" stroke="#000000" stroke-width="1.00"/>
</g>
<ellipse shape-type="ellipse" cx="866" cy="671" rx="16" ry="17" fill="url(#rgradient47_3)" stroke="#000000" stroke-width="1.00"/>
<ellipse shape-type="ellipse" cx="866" cy="669" rx="12" ry="11" fill="#00FF00" stroke="#000000" stroke-width="1.00"/>
</g>
<g shape-type="group">
<g shape-type="group">
<rect shape-type="rectangle" x="915" y="692" width="28" height="6" fill="#808080" stroke="#000000" stroke-width="1.00"/>
<polygon shape-type="parallel" points="942,691 927,691 932,672 947,672 942,691" fill="url(#lgradient48_0_1)" stroke="#000000" stroke-width="1.00"/>
</g>
<g shape-type="group">
<rect shape-type="rectangle" x="947" y="692" width="29" height="6" fill="#808080" stroke="#000000" stroke-width="1.00"/>
<polygon shape-type="parallel" points="948,691 963,691 957,670 942,670 948,691" fill="url(#lgradient48_1_1)" stroke="#000000" stroke-width="1.00"/>
</g>
<g shape-type="group">
<g shape-type="group">
<rect shape-type="rectangle" x="945" y="648" width="12" height="23" fill="url(#lgradient48_2_0_0)" stroke="#000000" stroke-width="1.00"/>
<rect shape-type="rectangle" x="941" y="643" width="22" height="6" fill="url(#lgradient48_2_0_1)" stroke="#000000" stroke-width="1.00"/>
</g>
<g shape-type="group">
<ellipse shape-type="ellipse" cx="944" cy="672" rx="16" ry="17" fill="url(#rgradient48_2_1_0)" stroke="#000000" stroke-width="1.00"/>
<ellipse shape-type="ellipse" cx="944" cy="670" rx="12" ry="11" fill="#FF0000" stroke="#000000" stroke-width="1.00"/>
</g>
</g>
</g>
<line shape-type="limitline" x1="809" y1="725" x2="809" y2="413" fill="#FFFFFF" stroke="#000000" stroke-width="1.00"/>
<line shape-type="limitline" x1="989" y1="726" x2="808" y2="726" fill="#FFFFFF" stroke="#000000" stroke-width="1.00"/>
<line shape-type="limitline" x1="988" y1="668" x2="988" y2="727" fill="#FFFFFF" stroke="#000000" stroke-width="1.00"/>
<line shape-type="limitline" x1="1009" y1="668" x2="988" y2="668" fill="#FFFFFF" stroke="#000000" stroke-width="1.00"/>
<line shape-type="limitline" x1="909" y1="726" x2="909" y2="667" fill="#FFFFFF" stroke="#000000" stroke-width="1.00"/>
<line shape-type="limitline" x1="929" y1="667" x2="908" y2="667" fill="#FFFFFF" stroke="#000000" stroke-width="1.00"/>
<line shape-type="limitline" x1="850" y1="670" x2="809" y2="670" fill="#FFFFFF" stroke="#000000" stroke-width="1.00"/>
<line shape-type="limitline" x1="1028" y1="615" x2="874" y2="615" fill="#FFFFFF" stroke="#000000" stroke-width="1.00"/>
<line shape-type="limitline" x1="875" y1="642" x2="875" y2="616" fill="#FFFFFF" stroke="#000000" stroke-width="1.00"/>
<line shape-type="limitline" x1="1028" y1="640" x2="1028" y2="615" fill="#FFFFFF" stroke="#000000" stroke-width="1.00"/>
<line shape-type="limitline" x1="951" y1="643" x2="951" y2="615" fill="#FFFFFF" stroke="#000000" stroke-width="1.00"/>
<line shape-type="limitline" x1="889" y1="615" x2="889" y2="242" fill="#FFFFFF" stroke="#000000" stroke-width="1.00"/>
<line shape-type="limitline" x1="916" y1="615" x2="916" y2="180" fill="#FFFFFF" stroke="#000000" stroke-width="1.00"/>
<line shape-type="limitline" x1="1010" y1="220" x2="916" y2="220" fill="#FFFFFF" stroke="#000000" stroke-width="1.00"/>
<line shape-type="limitline" x1="1014" y1="350" x2="916" y2="350" fill="#FFFFFF" stroke="#000000" stroke-width="1.00"/>
<line shape-type="limitline" x1="1016" y1="474" x2="917" y2="474" fill="#FFFFFF" stroke="#000000" stroke-width="1.00"/>
<g shape-type="group">
<line shape-type="limitline" x1="1189" y1="210" x2="1163" y2="211" fill="#FFFFFF" stroke="#000000" stroke-width="1.00"/>
<line shape-type="limitline" x1="1207" y1="227" x2="1163" y2="228" fill="#FFFFFF" stroke="#000000" stroke-width="1.00"/>
<line shape-type="limitline" x1="1232" y1="245" x2="1163" y2="246" fill="#FFFFFF" stroke="#000000" stroke-width="1.00"/>
</g>
<g shape-type="group">
<line shape-type="limitline" x1="1190" y1="332" x2="1164" y2="333" fill="#FFFFFF" stroke="#000000" stroke-width="1.00"/>
<line shape-type="limitline" x1="1208" y1="350" x2="1164" y2="351" fill="#FFFFFF" stroke="#000000" stroke-width="1.00"/>
<line shape-type="limitline" x1="1234" y1="368" x2="1164" y2="369" fill="#FFFFFF" stroke="#000000" stroke-width="1.00"/>
</g>
<g shape-type="group">
<line shape-type="limitline" x1="1190" y1="461" x2="1164" y2="462" fill="#FFFFFF" stroke="#000000" stroke-width="1.00"/>
<line shape-type="limitline" x1="1208" y1="478" x2="1164" y2="479" fill="#FFFFFF" stroke="#000000" stroke-width="1.00"/>
<line shape-type="limitline" x1="1234" y1="496" x2="1164" y2="497" fill="#FFFFFF" stroke="#000000" stroke-width="1.00"/>
</g>
<line shape-type="limitline" x1="1190" y1="222" x2="1190" y2="139" fill="#FFFFFF" stroke="#000000" stroke-width="1.00"/>
<line shape-type="limitline" x1="1191" y1="242" x2="1191" y2="231" fill="#FFFFFF" stroke="#000000" stroke-width="1.00"/>
<line shape-type="limitline" x1="1191" y1="342" x2="1191" y2="251" fill="#FFFFFF" stroke="#000000" stroke-width="1.00"/>
<line shape-type="limitline" x1="1191" y1="366" x2="1191" y2="353" fill="#FFFFFF" stroke="#000000" stroke-width="1.00"/>
<line shape-type="limitline" x1="1191" y1="467" x2="1191" y2="375" fill="#FFFFFF" stroke="#000000" stroke-width="1.00"/>
<line shape-type="limitline" x1="1463" y1="138" x2="1190" y2="138" fill="#FFFFFF" stroke="#000000" stroke-width="1.00"/>
<line shape-type="limitline" x1="1198" y1="467" x2="1186" y2="467" fill="#FFFFFF" stroke="#000000" stroke-width="1.00"/>
<line shape-type="limitline" x1="1198" y1="472" x2="1186" y2="472" fill="#FFFFFF" stroke="#000000" stroke-width="1.00"/>
<line shape-type="limitline" x1="1207" y1="240" x2="1207" y2="214" fill="#FFFFFF" stroke="#000000" stroke-width="1.00"/>
<line shape-type="limitline" x1="1208" y1="359" x2="1208" y2="252" fill="#FFFFFF" stroke="#000000" stroke-width="1.00"/>
<line shape-type="limitline" x1="1209" y1="488" x2="1209" y2="373" fill="#FFFFFF" stroke="#000000" stroke-width="1.00"/>
<line shape-type="limitline" x1="1211" y1="582" x2="1211" y2="506" fill="#FFFFFF" stroke="#000000" stroke-width="1.00"/>
<line shape-type="limitline" x1="1455" y1="582" x2="1211" y2="582" fill="#FFFFFF" stroke="#000000" stroke-width="1.00"/>
<line shape-type="limitline" x1="1234" y1="574" x2="1234" y2="224" fill="#FFFFFF" stroke="#000000" stroke-width="1.00"/>
<line shape-type="limitline" x1="1236" y1="612" x2="1236" y2="588" fill="#FFFFFF" stroke="#000000" stroke-width="1.00"/>
<line shape-type="limitline" x1="1453" y1="614" x2="1236" y2="614" fill="#FFFFFF" stroke="#000000" stroke-width="1.00"/>
<polygon shape-type="trapezium" points="1453,577 1453,589 1464,583 1464,583 1453,577" stroke="#000000" stroke-width="1.00"/>
<g shape-type="group">
<polygon shape-type="trapezium" points="1438,620 1438,609 1426,614 1426,614 1438,620" stroke="#000000" stroke-width="1.00"/>
<rect shape-type="rectangle" x="1433" y="612" width="28" height="3" stroke="#000000" stroke-width="1.00"/>
</g>
<polygon shape-type="trapezium" points="1458,133 1458,145 1469,139 1469,139 1458,133" stroke="#000000" stroke-width="1.00"/>
<line shape-type="limitline" x1="1216" y1="207" x2="1201" y2="207" fill="#FFFFFF" stroke="#000000" stroke-width="1.00"/>
<line shape-type="limitline" x1="1216" y1="212" x2="1201" y2="212" fill="#FFFFFF" stroke="#000000" stroke-width="1.00"/>
<line shape-type="limitline" x1="1243" y1="219" x2="1228" y2="219" fill="#FFFFFF" stroke="#000000" stroke-width="1.00"/>
<line shape-type="limitline" x1="1244" y1="224" x2="1229" y2="224" fill="#FFFFFF" stroke="#000000" stroke-width="1.00"/>
<line shape-type="limitline" x1="825" y1="277" x2="825" y2="75" fill="#FFFFFF" stroke="#000000" stroke-width="1.00"/>
<line shape-type="limitline" x1="1313" y1="75" x2="824" y2="75" fill="#FFFFFF" stroke="#000000" stroke-width="1.00"/>
<line shape-type="limitline" x1="1315" y1="140" x2="1315" y2="75" fill="#FFFFFF" stroke="#000000" stroke-width="1.00"/>
<line shape-type="limitline" x1="890" y1="242" x2="825" y2="242" fill="#FFFFFF" stroke="#000000" stroke-width="1.00"/>
<line shape-type="limitline" x1="924" y1="180" x2="909" y2="180" fill="#FFFFFF" stroke="#000000" stroke-width="1.00"/>
<line shape-type="limitline" x1="923" y1="176" x2="908" y2="176" fill="#FFFFFF" stroke="#000000" stroke-width="1.00"/>
<ellipse shape-type="ellipse" cx="1081" cy="216" rx="14" ry="14" fill="#FF0000" stroke="#000000" stroke-width="1.00"/>
<ellipse shape-type="ellipse" cx="1085" cy="338" rx="14" ry="14" fill="#FF0000" stroke="#000000" stroke-width="1.00"/>
<ellipse shape-type="ellipse" cx="1092" cy="462" rx="14" ry="14" fill="#FF0000" stroke="#000000" stroke-width="1.00"/>
<text font-family="宋体" text-anchor="start" fill="#000000" shape-type="text" id="" font-size="12.500000" x="1061" y="242">K-291A</text>
<text font-family="宋体" text-anchor="start" fill="#000000" shape-type="text" id="" font-size="12.500000" x="1060" y="366">K-291B</text>
<text font-family="宋体" text-anchor="start" fill="#000000" shape-type="text" id="" font-size="12.500000" x="1071" y="492">K-291C</text>
<text font-family="宋体" text-anchor="start" fill="#000000" shape-type="text" id="" font-size="12.500000" x="32" y="106">施放气去999去V-906</text>
<text font-family="宋体" text-anchor="start" fill="#000000" shape-type="text" id="" font-size="12.500000" x="32" y="542">来自P-253A/B</text>
<text font-family="宋体" text-anchor="start" fill="#000000" shape-type="text" id="" font-size="12.500000" x="51" y="620">甲乙酮产品去997工段V-701</text>
<text font-family="宋体" text-anchor="start" fill="#000000" shape-type="text" id="" font-size="12.500000" x="342" y="712">P-255A</text>
<text font-family="宋体" text-anchor="start" fill="#000000" shape-type="text" id="" font-size="12.500000" x="443" y="711">P-255B</text>
<text font-family="宋体" text-anchor="start" fill="#000000" shape-type="text" id="" font-size="12.500000" x="225" y="248">E-212A</text>
<text font-family="宋体" text-anchor="start" fill="#000000" shape-type="text" id="" font-size="26.000000" x="180" y="453">V-253A</text>
<text font-family="宋体" text-anchor="start" fill="#000000" shape-type="text" id="" font-size="12.500000" x="511" y="255">E-212B</text>
<text font-family="宋体" text-anchor="start" fill="#000000" shape-type="text" id="" font-size="23.750000" x="463" y="452">V-253B</text>
<text font-family="宋体" text-anchor="start" fill="#000000" shape-type="text" id="" font-size="12.500000" x="603" y="101">乙二醇冷冻液回液</text>
<text font-family="宋体" text-anchor="start" fill="#000000" shape-type="text" id="" font-size="12.500000" x="601" y="151">乙二醇冷冻液补充液</text>
<text font-family="宋体" text-anchor="start" fill="#000000" shape-type="text" id="" font-size="12.500000" x="600" y="338">脱盐水</text>
<text font-family="宋体" text-anchor="start" fill="#000000" shape-type="text" id="" font-size="20.750000" x="786" y="358">V-291</text>
<text font-family="宋体" text-anchor="start" fill="#000000" shape-type="text" id="" font-size="12.500000" x="1387" y="125">冷冻液去个工段</text>
<text font-family="宋体" text-anchor="start" fill="#000000" shape-type="text" id="" font-size="12.500000" x="1401" y="573">CWR</text>
<text font-family="宋体" text-anchor="start" fill="#000000" shape-type="text" id="" font-size="12.500000" x="1394" y="606">CWS</text>
<text font-family="宋体" text-anchor="start" fill="#000000" shape-type="text" id="" font-size="12.500000" x="841" y="715">P-291A</text>
<text font-family="宋体" text-anchor="start" fill="#000000" shape-type="text" id="" font-size="12.500000" x="925" y="714">P-291B</text>
<text font-family="宋体" text-anchor="start" fill="#000000" shape-type="text" id="" font-size="12.500000" x="1002" y="718">P-291C</text>
<g shape-type="group">
<rect shape-type="rectangle" x="263" y="448" width="59" height="20" fill="#008080" stroke="#000000" stroke-width="1.00"/>
<rect shape-type="rectangle" x="263" y="467" width="59" height="21" fill="#008080" stroke="#000000" stroke-width="1.00"/>
</g>
<g shape-type="group">
<rect shape-type="rectangle" x="236" y="561" width="59" height="20" fill="#008080" stroke="#000000" stroke-width="1.00"/>
<rect shape-type="rectangle" x="236" y="580" width="59" height="20" fill="#008080" stroke="#000000" stroke-width="1.00"/>
</g>
<g shape-type="group">
<rect shape-type="rectangle" x="555" y="448" width="59" height="20" fill="#008080" stroke="#000000" stroke-width="1.00"/>
<rect shape-type="rectangle" x="555" y="467" width="59" height="21" fill="#008080" stroke="#000000" stroke-width="1.00"/>
</g>
<g shape-type="group">
<rect shape-type="rectangle" x="683" y="291" width="59" height="19" fill="#008080" stroke="#000000" stroke-width="1.00"/>
<rect shape-type="rectangle" x="683" y="309" width="59" height="21" fill="#008080" stroke="#000000" stroke-width="1.00"/>
</g>
<g shape-type="group">
<rect shape-type="rectangle" x="688" y="364" width="58" height="19" fill="#008080" stroke="#000000" stroke-width="1.00"/>
<rect shape-type="rectangle" x="688" y="382" width="58" height="21" fill="#008080" stroke="#000000" stroke-width="1.00"/>
</g>
<g shape-type="group">
<rect shape-type="rectangle" x="1323" y="94" width="59" height="20" fill="#008080" stroke="#000000" stroke-width="1.00"/>
<rect shape-type="rectangle" x="1323" y="113" width="59" height="20" fill="#008080" stroke="#000000" stroke-width="1.00"/>
</g>
<text font-family="宋体" text-anchor="start" fill="#000000" shape-type="text" id="" font-size="11.750000" x="282" y="462">LT</text>
<text font-family="宋体" text-anchor="start" fill="#000000" shape-type="text" id="" font-size="12.500000" x="1345" y="107">FT</text>
<text font-family="宋体" text-anchor="start" fill="#000000" shape-type="text" id="" font-size="11.750000" x="574" y="461">LT</text>
<text font-family="宋体" text-anchor="start" fill="#000000" shape-type="text" id="" font-size="12.500000" x="257" y="576">FT</text>
<text font-family="宋体" text-anchor="start" fill="#000000" shape-type="text" id="" font-size="11.750000" x="700" y="379">LT</text>
<text font-family="宋体" text-anchor="start" fill="#000000" shape-type="text" id="" font-size="12.500000" x="702" y="307">TE</text>
<g shape-type="button">
<rect fill="#C0C0C0" stroke-width="0.3" stroke="#FFFFFF" x="86" y="739" width="51" height="29" shape-type="buttonrect"/>
<text font-family="宋体" text-anchor="middle" dominant-baseline="middle" fill="#000000" font-size="13.500000" x="112" y="759" shape-type="buttontext">主页</text>
</g>
<g shape-type="button">
<rect fill="#C0C0C0" stroke-width="0.3" stroke="#FFFFFF" x="137" y="739" width="76" height="29" shape-type="buttonrect"/>
<text font-family="宋体" text-anchor="middle" dominant-baseline="middle" fill="#000000" font-size="13.500000" x="175" y="759" shape-type="buttontext">992总貌</text>
</g>
<g shape-type="button">
<rect fill="#C0C0C0" stroke-width="0.3" stroke="#FFFFFF" x="210" y="739" width="58" height="29" shape-type="buttonrect"/>
<text font-family="宋体" text-anchor="middle" dominant-baseline="middle" fill="#000000" font-size="13.500000" x="239" y="759" shape-type="buttontext">992-1</text>
</g>
<g shape-type="button">
<rect fill="#C0C0C0" stroke-width="0.3" stroke="#FFFFFF" x="266" y="739" width="58" height="29" shape-type="buttonrect"/>
<text font-family="宋体" text-anchor="middle" dominant-baseline="middle" fill="#000000" font-size="13.500000" x="295" y="759" shape-type="buttontext">992-2</text>
</g>
<g shape-type="button">
<rect fill="#C0C0C0" stroke-width="0.3" stroke="#FFFFFF" x="322" y="739" width="58" height="29" shape-type="buttonrect"/>
<text font-family="宋体" text-anchor="middle" dominant-baseline="middle" fill="#000000" font-size="13.500000" x="351" y="759" shape-type="buttontext">992-3</text>
</g>
<g shape-type="button">
<rect fill="#C0C0C0" stroke-width="0.3" stroke="#FFFFFF" x="377" y="739" width="58" height="29" shape-type="buttonrect"/>
<text font-family="宋体" text-anchor="middle" dominant-baseline="middle" fill="#000000" font-size="13.500000" x="406" y="759" shape-type="buttontext">992-4</text>
</g>
<g shape-type="button">
<rect fill="#C0C0C0" stroke-width="0.3" stroke="#FFFFFF" x="434" y="739" width="58" height="29" shape-type="buttonrect"/>
<text font-family="宋体" text-anchor="middle" dominant-baseline="middle" fill="#000000" font-size="13.500000" x="463" y="759" shape-type="buttontext">992-5</text>
</g>
<text font-family="宋体" text-anchor="start" fill="#000000" shape-type="text" id="" font-size="41.750000" x="509" y="53">甲乙酮工段五</text>
<a xlink:href="..\梨树总图.svg">
<g shape-type="button">
<rect fill="#C0C0C0" stroke-width="0.3" stroke="#FFFFFF" x="1389" y="728" width="51" height="29" shape-type="buttonrect"/>
<text font-family="宋体" text-anchor="middle" dominant-baseline="middle" fill="#000000" font-size="13.500000" x="1414" y="748" shape-type="buttontext">返回</text>
</g>
</a>
</svg>