<svg xmlns="http://www.w3.org/2000/svg" xmlns:xlink="http://www.w3.org/1999/xlink" version="1.1" style="background-color:#7DB6C1" width="1062" height="669" viewbox="0 0 1062 669"><defs>
<linearGradient x1="50.000000%" y1="0.000000%" x2="50.000000%" y2="100.000000%" id="lgradient1_0">
<stop offset="0" stop-color="#2C2C2C" stop-opacity="1"/>
<stop offset="0.5" stop-color="#FFFFFF" stop-opacity="1"/>
<stop offset="1" stop-color="#2C2C2C" stop-opacity="1"/>
</linearGradient>
<linearGradient x1="50.000000%" y1="0.000000%" x2="50.000000%" y2="100.000000%" id="lgradient1_1">
<stop offset="0" stop-color="#2C2C2C" stop-opacity="1"/>
<stop offset="0.5" stop-color="#FFFFFF" stop-opacity="1"/>
<stop offset="1" stop-color="#2C2C2C" stop-opacity="1"/>
</linearGradient>
<linearGradient x1="50.000000%" y1="0.000000%" x2="50.000000%" y2="100.000000%" id="lgradient4">
<stop offset="0" stop-color="#2C2C2C" stop-opacity="1"/>
<stop offset="0.5" stop-color="#FFFFFF" stop-opacity="1"/>
<stop offset="1" stop-color="#2C2C2C" stop-opacity="1"/>
</linearGradient>
<linearGradient x1="50.000000%" y1="0.000000%" x2="50.000000%" y2="100.000000%" id="lgradient5">
<stop offset="0" stop-color="#2C2C2C" stop-opacity="1"/>
<stop offset="0.5" stop-color="#FFFFFF" stop-opacity="1"/>
<stop offset="1" stop-color="#2C2C2C" stop-opacity="1"/>
</linearGradient>
<linearGradient x1="0.000000%" y1="50.000000%" x2="100.000000%" y2="50.000000%" id="lgradient25">
<stop offset="0" stop-color="#2C2C2C" stop-opacity="1"/>
<stop offset="0.5" stop-color="#FFFFFF" stop-opacity="1"/>
<stop offset="1" stop-color="#2C2C2C" stop-opacity="1"/>
</linearGradient>
</defs>
<g shape-type="group">
<rect shape-type="rectangle" x="559" y="305" width="502" height="27" fill="url(#lgradient1_0)" stroke="#000000" stroke-width="1.00"/>
<polygon shape-type="trapezium" points="947,386 947,253 702,286 702,352 947,386" fill="url(#lgradient1_1)" stroke="#000000" stroke-width="1.00"/>
</g>
<rect shape-type="rectangle" x="652" y="150" width="110" height="60" stroke="#FFFFFF" stroke-width="1.00"/>
<line shape-type="limitline" x1="703" y1="307" x2="703" y2="209" fill="#FFFFFF" stroke="#FFFFFF" stroke-width="1.00"/>
<rect shape-type="rectangle" x="183" y="318" width="65" height="60" fill="url(#lgradient4)" stroke="#FFFFFF" stroke-width="1.00"/>
<rect shape-type="rectangle" x="182" y="445" width="65" height="60" fill="url(#lgradient5)" stroke="#FFFFFF" stroke-width="1.00"/>
<line shape-type="limitline" x1="216" y1="318" x2="216" y2="240" fill="#FFFFFF" stroke="#FFFFFF" stroke-width="1.00"/>
<line shape-type="limitline" x1="434" y1="241" x2="216" y2="241" fill="#FFFFFF" stroke="#FFFFFF" stroke-width="1.00"/>
<line shape-type="limitline" x1="433" y1="550" x2="433" y2="241" fill="#FFFFFF" stroke="#FFFFFF" stroke-width="1.00"/>
<line shape-type="limitline" x1="433" y1="549" x2="581" y2="549" fill="#FFFFFF" stroke="#FFFFFF" stroke-width="1.00"/>
<line shape-type="limitline" x1="582" y1="329" x2="582" y2="549" fill="#FFFFFF" stroke="#FFFFFF" stroke-width="1.00"/>
<line shape-type="limitline" x1="640" y1="447" x2="640" y2="330" fill="#FFFFFF" stroke="#FFFFFF" stroke-width="1.00"/>
<line shape-type="limitline" x1="947" y1="448" x2="640" y2="448" fill="#FFFFFF" stroke="#FFFFFF" stroke-width="1.00"/>
<line shape-type="limitline" x1="1038" y1="529" x2="583" y2="529" fill="#FFFFFF" stroke="#FFFFFF" stroke-width="1.00"/>
<line shape-type="limitline" x1="1040" y1="330" x2="1040" y2="529" fill="#FFFFFF" stroke="#FFFFFF" stroke-width="1.00"/>
<line shape-type="limitline" x1="183" y1="345" x2="105" y2="345" fill="#FFFFFF" stroke="#FFFFFF" stroke-width="1.00"/>
<line shape-type="limitline" x1="105" y1="477" x2="105" y2="345" fill="#FFFFFF" stroke="#FFFFFF" stroke-width="1.00"/>
<line shape-type="limitline" x1="181" y1="478" x2="105" y2="478" fill="#FFFFFF" stroke="#FFFFFF" stroke-width="1.00"/>
<line shape-type="limitline" x1="948" y1="385" x2="948" y2="746" fill="#FFFFFF" stroke="#FF0000" stroke-width="1.00"/>
<line shape-type="limitline" x1="1472" y1="747" x2="948" y2="747" fill="#FFFFFF" stroke="#FF0000" stroke-width="1.00"/>
<line shape-type="limitline" x1="1255" y1="746" x2="1255" y2="512" fill="#FFFFFF" stroke="#FF0000" stroke-width="1.00"/>
<line shape-type="limitline" x1="709" y1="32" x2="15" y2="32" fill="#FFFFFF" stroke="#FF0000" stroke-width="1.00"/>
<line shape-type="limitline" x1="711" y1="152" x2="711" y2="32" fill="#FFFFFF" stroke="#FF0000" stroke-width="1.00"/>
<line shape-type="limitline" x1="453" y1="109" x2="28" y2="109" fill="#FFFFFF" stroke="#FF0000" stroke-width="1.00"/>
<line shape-type="limitline" x1="453" y1="33" x2="453" y2="109" fill="#FFFFFF" stroke="#FF0000" stroke-width="1.00"/>
<polygon shape-type="trapezium" points="113,389 98,389 103,337 109,337 113,389" fill="url(#lgradient25)" stroke="#000000" stroke-width="1.00"/>
<line shape-type="limitline" x1="107" y1="292" x2="16" y2="292" fill="#FFFFFF" stroke="#FF0000" stroke-width="1.00"/>
<line shape-type="limitline" x1="107" y1="339" x2="107" y2="292" fill="#FFFFFF" stroke="#FF0000" stroke-width="1.00"/>
<line shape-type="limitline" x1="246" y1="456" x2="275" y2="456" fill="#FFFFFF" stroke="#00FF40" stroke-width="1.00"/>
<line shape-type="limitline" x1="275" y1="456" x2="275" y2="542" fill="#FFFFFF" stroke="#00FF40" stroke-width="1.00"/>
<line shape-type="limitline" x1="8" y1="543" x2="275" y2="543" fill="#FFFFFF" stroke="#00FF40" stroke-width="1.00"/>
<line shape-type="limitline" x1="568" y1="672" x2="568" y2="549" fill="#FFFFFF" stroke="#00FF40" stroke-width="1.00"/>
<polygon shape-type="polygon" points="392,172 393,172 394,173" fill="#FFFFFF" stroke="#00FF40" stroke-width="1.00"/>
<line shape-type="limitline" x1="520" y1="769" x2="24" y2="769" fill="#FFFFFF" stroke="#00FF40" stroke-width="1.00"/>
<g shape-type="group">
<g shape-type="group">
<ellipse shape-type="ellipse" cx="395" cy="680" rx="7" ry="8" stroke="#00FF40" stroke-width="1.00"/>
<rect shape-type="rectangle" x="379" y="661" width="21" height="20" stroke="#000000" stroke-width="1.00"/>
</g>
<g shape-type="group">
<ellipse shape-type="ellipse" cx="383" cy="627" rx="7" ry="7" stroke="#00FF40" stroke-width="1.00"/>
<rect shape-type="rectangle" x="368" y="625" width="21" height="21" stroke="#000000" stroke-width="1.00"/>
</g>
<line shape-type="limitline" x1="389" y1="680" x2="388" y2="624" fill="#FFFFFF" stroke="#00FF40" stroke-width="1.00"/>
<line shape-type="limitline" x1="377" y1="683" x2="376" y2="624" fill="#FFFFFF" stroke="#00FF40" stroke-width="1.00"/>
<g shape-type="group">
<ellipse shape-type="ellipse" cx="372" cy="681" rx="6" ry="8" stroke="#00FF40" stroke-width="1.00"/>
<rect shape-type="rectangle" x="356" y="663" width="21" height="19" stroke="#000000" stroke-width="1.00"/>
</g>
<line shape-type="limitline" x1="365" y1="683" x2="364" y2="624" fill="#FFFFFF" stroke="#00FF40" stroke-width="1.00"/>
<g shape-type="group">
<ellipse shape-type="ellipse" cx="359" cy="627" rx="7" ry="7" stroke="#00FF40" stroke-width="1.00"/>
<rect shape-type="rectangle" x="344" y="625" width="21" height="21" stroke="#000000" stroke-width="1.00"/>
</g>
</g>
<g shape-type="group">
<g shape-type="group">
<ellipse shape-type="ellipse" cx="562" cy="669" rx="7" ry="7" stroke="#00FF40" stroke-width="1.00"/>
<rect shape-type="rectangle" x="547" y="650" width="21" height="21" stroke="#000000" stroke-width="1.00"/>
</g>
<g shape-type="group">
<ellipse shape-type="ellipse" cx="551" cy="619" rx="6" ry="7" stroke="#00FF40" stroke-width="1.00"/>
<rect shape-type="rectangle" x="535" y="617" width="21" height="21" stroke="#000000" stroke-width="1.00"/>
</g>
<line shape-type="limitline" x1="556" y1="671" x2="555" y2="615" fill="#FFFFFF" stroke="#00FF40" stroke-width="1.00"/>
<line shape-type="limitline" x1="545" y1="674" x2="544" y2="615" fill="#FFFFFF" stroke="#00FF40" stroke-width="1.00"/>
<g shape-type="group">
<ellipse shape-type="ellipse" cx="539" cy="671" rx="7" ry="7" stroke="#00FF40" stroke-width="1.00"/>
<rect shape-type="rectangle" x="524" y="652" width="21" height="21" stroke="#000000" stroke-width="1.00"/>
</g>
<line shape-type="limitline" x1="532" y1="674" x2="531" y2="615" fill="#FFFFFF" stroke="#00FF40" stroke-width="1.00"/>
<g shape-type="group">
<ellipse shape-type="ellipse" cx="527" cy="619" rx="6" ry="7" stroke="#00FF40" stroke-width="1.00"/>
<rect shape-type="rectangle" x="511" y="617" width="21" height="21" stroke="#000000" stroke-width="1.00"/>
</g>
</g>
<line shape-type="limitline" x1="521" y1="616" x2="521" y2="769" fill="#FFFFFF" stroke="#00FF40" stroke-width="1.00"/>
<line shape-type="limitline" x1="221" y1="414" x2="221" y2="378" fill="#FFFFFF" stroke="#00FF40" stroke-width="1.00"/>
<line shape-type="limitline" x1="221" y1="414" x2="400" y2="414" fill="#FFFFFF" stroke="#00FF40" stroke-width="1.00"/>
<line shape-type="limitline" x1="400" y1="683" x2="400" y2="414" fill="#FFFFFF" stroke="#00FF40" stroke-width="1.00"/>
<line shape-type="limitline" x1="353" y1="691" x2="353" y2="624" fill="#FFFFFF" stroke="#00FF40" stroke-width="1.00"/>
<line shape-type="limitline" x1="7" y1="690" x2="353" y2="690" fill="#FFFFFF" stroke="#00FF40" stroke-width="1.00"/>
<line shape-type="limitline" x1="302" y1="330" x2="248" y2="330" fill="#FFFFFF" stroke="#00FF40" stroke-width="1.00"/>
<line shape-type="limitline" x1="302" y1="407" x2="302" y2="330" fill="#FFFFFF" stroke="#00FF40" stroke-width="1.00"/>
<line shape-type="limitline" x1="301" y1="592" x2="301" y2="422" fill="#FFFFFF" stroke="#00FF40" stroke-width="1.00"/>
<line shape-type="limitline" x1="22" y1="593" x2="301" y2="593" fill="#FFFFFF" stroke="#00FF40" stroke-width="1.00"/>
<polygon shape-type="polygon" points="1249,498 1250,498 1264,490 1265,511 1249,509" fill="#808080" stroke="#FFFFFF" stroke-width="1.00"/>
<g shape-type="group">
<rect shape-type="rectangle" x="2" y="27" width="31" height="9" fill="#808080" stroke="#FFFFFF" stroke-width="1.00"/>
<polygon shape-type="trapezium" points="29,24 29,41 46,33 46,33 29,24" fill="#808080" stroke="#FFFFFF" stroke-width="1.00"/>
</g>
<g shape-type="group">
<rect shape-type="rectangle" x="5" y="286" width="31" height="10" fill="#808080" stroke="#FFFFFF" stroke-width="1.00"/>
<polygon shape-type="trapezium" points="32,283 32,300 49,292 49,292 32,283" fill="#808080" stroke="#FFFFFF" stroke-width="1.00"/>
</g>
<g shape-type="group">
<rect shape-type="rectangle" x="18" y="104" width="32" height="9" fill="#808080" stroke="#FFFFFF" stroke-width="1.00"/>
<polygon shape-type="trapezium" points="22,101 22,118 6,110 6,110 22,101" fill="#808080" stroke="#FFFFFF" stroke-width="1.00"/>
</g>
<g shape-type="group">
<rect shape-type="rectangle" x="17" y="537" width="32" height="10" fill="#808080" stroke="#FFFFFF" stroke-width="1.00"/>
<polygon shape-type="trapezium" points="21,534 21,551 5,543 5,543 21,534" fill="#808080" stroke="#FFFFFF" stroke-width="1.00"/>
</g>
<g shape-type="group">
<rect shape-type="rectangle" x="13" y="688" width="32" height="9" fill="#808080" stroke="#FFFFFF" stroke-width="1.00"/>
<polygon shape-type="trapezium" points="17,685 17,701 1,693 1,693 17,685" fill="#808080" stroke="#FFFFFF" stroke-width="1.00"/>
</g>
<g shape-type="group">
<rect shape-type="rectangle" x="11" y="766" width="33" height="10" fill="#808080" stroke="#FFFFFF" stroke-width="1.00"/>
<polygon shape-type="trapezium" points="16,763 16,780 0,772 0,772 16,763" fill="#808080" stroke="#FFFFFF" stroke-width="1.00"/>
</g>
<g shape-type="group">
<rect shape-type="rectangle" x="5" y="589" width="31" height="9" fill="#808080" stroke="#FFFFFF" stroke-width="1.00"/>
<polygon shape-type="trapezium" points="32,585 32,602 49,594 49,594 32,585" fill="#808080" stroke="#FFFFFF" stroke-width="1.00"/>
</g>
<g shape-type="group">
<polygon shape-type="trapezium" points="757,157 768,157 762,175 762,175 757,157" fill="#FF0000" stroke="#FFFFFF" stroke-width="1.00"/>
<polygon shape-type="trapezium" points="768,195 756,195 762,176 762,176 768,195" fill="#FF0000" stroke="#FFFFFF" stroke-width="1.00"/>
<line shape-type="limitline" x1="763" y1="176" x2="775" y2="177" fill="#FFFFFF" stroke="#FFFFFF" stroke-width="1.00"/>
<rect shape-type="rectangle" x="772" y="164" width="13" height="27" fill="#FF0000" stroke="#FFFFFF" stroke-width="1.00"/>
</g>
<g shape-type="group">
<polygon shape-type="trapezium" points="657,193 647,193 652,174 652,174 657,193" fill="#FF0000" stroke="#FFFFFF" stroke-width="1.00"/>
<polygon shape-type="trapezium" points="647,156 658,156 652,174 652,174 647,156" fill="#FF0000" stroke="#FFFFFF" stroke-width="1.00"/>
<line shape-type="limitline" x1="652" y1="174" x2="640" y2="175" fill="#FFFFFF" stroke="#FFFFFF" stroke-width="1.00"/>
<rect shape-type="rectangle" x="629" y="159" width="14" height="26" fill="#FF0000" stroke="#FFFFFF" stroke-width="1.00"/>
</g>
<rect shape-type="rectangle" x="983" y="614" width="60" height="17" fill="#FFFFFF" stroke="#FFFFFF" stroke-width="1.00"/>
<rect shape-type="rectangle" x="983" y="666" width="61" height="20" fill="#FFFFFF" stroke="#FFFFFF" stroke-width="1.00"/>
<rect shape-type="rectangle" x="983" y="719" width="61" height="19" fill="#FFFFFF" stroke="#FFFFFF" stroke-width="1.00"/>
<g shape-type="group">
<rect shape-type="rectangle" x="1442" y="741" width="32" height="9" fill="#808080" stroke="#FFFFFF" stroke-width="1.00"/>
<polygon shape-type="trapezium" points="1470,738 1470,754 1486,746 1486,746 1470,738" fill="#808080" stroke="#FFFFFF" stroke-width="1.00"/>
</g>
<text font-family="宋体" text-anchor="start" fill="#FFFFFF" shape-type="text" id="" font-size="12.500000" x="30" y="24">3.6MPa蒸汽</text>
<text font-family="宋体" text-anchor="start" fill="#FFFFFF" shape-type="text" id="" font-size="12.500000" x="12" y="279">1.2MPa蒸汽</text>
<text font-family="宋体" text-anchor="start" fill="#FFFFFF" shape-type="text" id="" font-size="12.500000" x="11" y="95">低压蒸气</text>
<text font-family="宋体" text-anchor="start" fill="#FFFFFF" shape-type="text" id="" font-size="12.500000" x="25" y="573">CWS</text>
<text font-family="宋体" text-anchor="start" fill="#FFFFFF" shape-type="text" id="" font-size="12.500000" x="19" y="531">CWR</text>
<text font-family="宋体" text-anchor="start" fill="#FFFFFF" shape-type="text" id="" font-size="12.500000" x="19" y="678">地沟</text>
<text font-family="宋体" text-anchor="start" fill="#FFFFFF" shape-type="text" id="" font-size="12.500000" x="16" y="758">地沟</text>
<rect shape-type="rectangle" x="199" y="49" width="60" height="18" fill="#FFFFFF" stroke="#FFFFFF" stroke-width="1.00"/>
<rect shape-type="rectangle" x="301" y="50" width="60" height="18" fill="#FFFFFF" stroke="#FFFFFF" stroke-width="1.00"/>
<rect shape-type="rectangle" x="294" y="135" width="60" height="18" fill="#FFFFFF" stroke="#FFFFFF" stroke-width="1.00"/>
<text font-family="宋体" text-anchor="start" fill="#FFFFFF" shape-type="text" id="" font-size="12.500000" x="115" y="398">30-C1001E01</text>
<text font-family="宋体" text-anchor="start" fill="#000000" shape-type="text" id="" font-size="12.500000" x="780" y="325">30-C1001ST</text>
<text font-family="宋体" text-anchor="start" fill="#FFFFFF" shape-type="text" id="" font-size="12.500000" x="193" y="45">30FI21501</text>
<text font-family="宋体" text-anchor="start" fill="#FFFFFF" shape-type="text" id="" font-size="12.500000" x="293" y="44">30TI21038</text>
<g shape-type="group">
<rect shape-type="rectangle" x="983" y="556" width="65" height="23" stroke="#FFFF00" stroke-width="1.00"/>
<rect shape-type="rectangle" x="986" y="560" width="60" height="17" fill="#FFFFFF" stroke="#FFFFFF" stroke-width="1.00"/>
</g>
<text font-family="宋体" text-anchor="start" fill="#FFFFFF" shape-type="text" id="" font-size="12.500000" x="977" y="553">30PI21802</text>
<text font-family="宋体" text-anchor="start" fill="#FFFFFF" shape-type="text" id="" font-size="12.500000" x="980" y="607">30PI21803A</text>
<text font-family="宋体" text-anchor="start" fill="#FFFFFF" shape-type="text" id="" font-size="12.500000" x="980" y="657">30PI21803B</text>
<text font-family="宋体" text-anchor="start" fill="#FFFFFF" shape-type="text" id="" font-size="12.500000" x="982" y="711">30PI21803C</text>
<text font-family="宋体" text-anchor="start" fill="#FFFFFF" shape-type="text" id="" font-size="12.500000" x="367" y="68">℃</text>
<text font-family="宋体" text-anchor="start" fill="#FFFFFF" shape-type="text" id="" font-size="12.500000" x="361" y="154">℃</text>
<text font-family="宋体" text-anchor="start" fill="#FFFFFF" shape-type="text" id="" font-size="12.500000" x="256" y="62">Kg/H</text>
<text font-family="宋体" text-anchor="start" fill="#FFFFFF" shape-type="text" id="" font-size="12.500000" x="1056" y="574">MPa</text>
<text font-family="宋体" text-anchor="start" fill="#FFFFFF" shape-type="text" id="" font-size="12.500000" x="1054" y="630">MPa</text>
<text font-family="宋体" text-anchor="start" fill="#FFFFFF" shape-type="text" id="" font-size="12.500000" x="1052" y="682">MPa</text>
<text font-family="宋体" text-anchor="start" fill="#FFFFFF" shape-type="text" id="" font-size="12.500000" x="1054" y="735">MPa</text>
<text font-family="Arial" text-anchor="start" fill="#000000" shape-type="realdata" id="QH_TQ_30FI21501.DACA" font-size="12.500000" x="198" y="63">XXXXXXXXXX</text>
<text font-family="Arial" text-anchor="start" fill="#000000" shape-type="realdata" id="QH_TQ_30TI21038.DACA" font-size="12.500000" x="278" y="63">XXXXXXXXXX</text>
<text font-family="Arial" text-anchor="start" fill="#000000" shape-type="realdata" id="QH_TQ_30PI21802" font-size="12.500000" x="958" y="573">XXXXXXXXXX</text>
<a xlink:href="..\脱氢总图一.svg">
<g shape-type="button">
<rect fill="#C0C0C0" stroke-width="0.3" stroke="#FFFFFF" x="1155" y="777" width="51" height="29" shape-type="buttonrect"/>
<text font-family="宋体" text-anchor="middle" dominant-baseline="middle" fill="#000000" font-size="13.500000" x="1180" y="797" shape-type="buttontext">返回</text>
</g>
</a>
</svg>