<svg xmlns="http://www.w3.org/2000/svg" xmlns:xlink="http://www.w3.org/1999/xlink" version="1.1" style="background-color:#7DB6C1" width="1062" height="669" viewbox="0 0 1062 669"><defs>
<linearGradient x1="0.000000%" y1="50.000000%" x2="100.000000%" y2="50.000000%" id="lgradient1">
<stop offset="0" stop-color="#2C2C2C" stop-opacity="1"/>
<stop offset="0.5" stop-color="#FFFFFF" stop-opacity="1"/>
<stop offset="1" stop-color="#2C2C2C" stop-opacity="1"/>
</linearGradient>
<linearGradient x1="0.000000%" y1="50.000000%" x2="100.000000%" y2="50.000000%" id="lgradient2">
<stop offset="0" stop-color="#2C2C2C" stop-opacity="1"/>
<stop offset="0.5" stop-color="#FFFFFF" stop-opacity="1"/>
<stop offset="1" stop-color="#2C2C2C" stop-opacity="1"/>
</linearGradient>
<linearGradient x1="0.000000%" y1="50.000000%" x2="100.000000%" y2="50.000000%" id="lgradient3">
<stop offset="0" stop-color="#2C2C2C" stop-opacity="1"/>
<stop offset="0.5" stop-color="#FFFFFF" stop-opacity="1"/>
<stop offset="1" stop-color="#2C2C2C" stop-opacity="1"/>
</linearGradient>
</defs>
<rect shape-type="roundRectangle" rx="20" ry="20" x="522" y="143" width="57" height="259" fill="url(#lgradient1)" stroke="#FFFFFF" stroke-width="1.00"/>
<rect shape-type="roundRectangle" rx="20" ry="20" x="323" y="366" width="51" height="159" fill="url(#lgradient2)" stroke="#FFFFFF" stroke-width="1.00"/>
<rect shape-type="roundRectangle" rx="20" ry="20" x="1136" y="378" width="51" height="159" fill="url(#lgradient3)" stroke="#FFFFFF" stroke-width="1.00"/>
<line shape-type="limitline" x1="552" y1="143" x2="552" y2="124" fill="#FFFFFF" stroke="#FFFFFF" stroke-width="3.00"/>
<line shape-type="limitline" x1="1451" y1="125" x2="552" y2="125" fill="#FFFFFF" stroke="#FFFFFF" stroke-width="3.00"/>
<line shape-type="limitline" x1="1211" y1="125" x2="1211" y2="63" fill="#FFFFFF" stroke="#FFFFFF" stroke-width="3.00"/>
<line shape-type="limitline" x1="1449" y1="65" x2="1211" y2="65" fill="#FFFFFF" stroke="#FFFFFF" stroke-width="3.00"/>
<line shape-type="limitline" x1="524" y1="305" x2="41" y2="305" fill="#FFFFFF" stroke="#FFFFFF" stroke-width="3.00"/>
<g shape-type="group">
<polygon shape-type="trapezium" points="876,538 853,538 860,521 870,521 876,538" fill="#FF0000" stroke="#FFFFFF" stroke-width="2.00"/>
<rect shape-type="rectangle" x="868" y="502" width="5" height="18" fill="#FF0000" stroke="#FFFFFF" stroke-width="2.00"/>
<ellipse shape-type="ellipse" cx="864" cy="521" rx="9" ry="10" fill="#FF0000" stroke="#FFFFFF" stroke-width="2.00"/>
</g>
<g shape-type="group">
<polygon shape-type="trapezium" points="984,540 961,540 968,523 978,523 984,540" fill="#FF0000" stroke="#FFFFFF" stroke-width="2.00"/>
<rect shape-type="rectangle" x="976" y="504" width="5" height="18" fill="#FF0000" stroke="#FFFFFF" stroke-width="2.00"/>
<ellipse shape-type="ellipse" cx="973" cy="523" rx="9" ry="9" fill="#FF0000" stroke="#FFFFFF" stroke-width="2.00"/>
</g>
<g shape-type="group">
<polygon shape-type="trapezium" points="159,516 136,516 143,499 153,499 159,516" fill="#FF0000" stroke="#FFFFFF" stroke-width="2.00"/>
<rect shape-type="rectangle" x="151" y="480" width="5" height="18" fill="#FF0000" stroke="#FFFFFF" stroke-width="2.00"/>
<ellipse shape-type="ellipse" cx="148" cy="499" rx="9" ry="9" fill="#FF0000" stroke="#FFFFFF" stroke-width="2.00"/>
</g>
<g shape-type="group">
<polygon shape-type="trapezium" points="226,516 203,516 210,499 220,499 226,516" fill="#FF0000" stroke="#FFFFFF" stroke-width="2.00"/>
<rect shape-type="rectangle" x="218" y="480" width="5" height="18" fill="#FF0000" stroke="#FFFFFF" stroke-width="2.00"/>
<ellipse shape-type="ellipse" cx="215" cy="499" rx="9" ry="9" fill="#FF0000" stroke="#FFFFFF" stroke-width="2.00"/>
</g>
<line shape-type="limitline" x1="870" y1="503" x2="870" y2="479" fill="#FFFFFF" stroke="#00FF80" stroke-width="2.00"/>
<line shape-type="limitline" x1="979" y1="478" x2="870" y2="478" fill="#FFFFFF" stroke="#00FF80" stroke-width="2.00"/>
<line shape-type="limitline" x1="979" y1="503" x2="979" y2="478" fill="#FFFFFF" stroke="#00FF80" stroke-width="2.00"/>
<line shape-type="limitline" x1="921" y1="177" x2="578" y2="177" fill="#FFFFFF" stroke="#00FF80" stroke-width="2.00"/>
<line shape-type="limitline" x1="921" y1="478" x2="921" y2="179" fill="#FFFFFF" stroke="#00FF80" stroke-width="2.00"/>
<line shape-type="limitline" x1="1164" y1="603" x2="1164" y2="538" fill="#FFFFFF" stroke="#00FF80" stroke-width="2.00"/>
<line shape-type="limitline" x1="822" y1="605" x2="1164" y2="605" fill="#FFFFFF" stroke="#00FF80" stroke-width="2.00"/>
<g shape-type="group">
<line shape-type="limitline" x1="822" y1="531" x2="821" y2="605" fill="#FFFFFF" stroke="#00FF80" stroke-width="2.00"/>
<line shape-type="limitline" x1="861" y1="530" x2="822" y2="531" fill="#FFFFFF" stroke="#00FF80" stroke-width="2.00"/>
</g>
<g shape-type="group">
<line shape-type="limitline" x1="923" y1="528" x2="922" y2="602" fill="#FFFFFF" stroke="#00FF80" stroke-width="2.00"/>
<line shape-type="limitline" x1="963" y1="527" x2="923" y2="528" fill="#FFFFFF" stroke="#00FF80" stroke-width="2.00"/>
</g>
<line shape-type="limitline" x1="1466" y1="414" x2="1185" y2="414" fill="#FFFFFF" stroke="#00FF80" stroke-width="2.00"/>
<line shape-type="limitline" x1="1011" y1="320" x2="1158" y2="320" fill="#FFFFFF" stroke="#FFFF00" stroke-width="2.00"/>
<line shape-type="limitline" x1="1157" y1="374" x2="1157" y2="320" fill="#FFFFFF" stroke="#FFFF00" stroke-width="2.00"/>
<line shape-type="limitline" x1="1465" y1="320" x2="1157" y2="320" fill="#FFFFFF" stroke="#FFFFFF" stroke-width="2.00"/>
<line shape-type="limitline" x1="438" y1="405" x2="371" y2="405" fill="#FFFFFF" stroke="#00FF80" stroke-width="2.00"/>
<line shape-type="limitline" x1="439" y1="711" x2="439" y2="405" fill="#FFFFFF" stroke="#00FF80" stroke-width="2.00"/>
<line shape-type="limitline" x1="21" y1="711" x2="439" y2="711" fill="#FFFFFF" stroke="#00FF80" stroke-width="2.00"/>
<line shape-type="limitline" x1="440" y1="654" x2="34" y2="654" fill="#FFFFFF" stroke="#00FF80" stroke-width="2.00"/>
<line shape-type="limitline" x1="560" y1="582" x2="560" y2="402" fill="#FFFFFF" stroke="#00FF80" stroke-width="2.00"/>
<line shape-type="limitline" x1="438" y1="582" x2="560" y2="582" fill="#FFFFFF" stroke="#00FF80" stroke-width="2.00"/>
<line shape-type="limitline" x1="152" y1="481" x2="152" y2="461" fill="#FFFFFF" stroke="#00FF80" stroke-width="2.00"/>
<line shape-type="limitline" x1="152" y1="461" x2="220" y2="461" fill="#FFFFFF" stroke="#00FF80" stroke-width="2.00"/>
<line shape-type="limitline" x1="220" y1="479" x2="220" y2="462" fill="#FFFFFF" stroke="#00FF80" stroke-width="2.00"/>
<line shape-type="limitline" x1="183" y1="343" x2="40" y2="343" fill="#FFFFFF" stroke="#00FF80" stroke-width="2.00"/>
<line shape-type="limitline" x1="183" y1="460" x2="183" y2="343" fill="#FFFFFF" stroke="#00FF80" stroke-width="2.00"/>
<line shape-type="limitline" x1="183" y1="390" x2="38" y2="390" fill="#FFFFFF" stroke="#00FF80" stroke-width="2.00"/>
<line shape-type="limitline" x1="349" y1="589" x2="349" y2="526" fill="#FFFFFF" stroke="#00FF80" stroke-width="2.00"/>
<line shape-type="limitline" x1="349" y1="588" x2="107" y2="588" fill="#FFFFFF" stroke="#00FF80" stroke-width="2.00"/>
<line shape-type="limitline" x1="106" y1="499" x2="106" y2="588" fill="#FFFFFF" stroke="#00FF80" stroke-width="2.00"/>
<line shape-type="limitline" x1="137" y1="499" x2="106" y2="499" fill="#FFFFFF" stroke="#00FF80" stroke-width="2.00"/>
<line shape-type="limitline" x1="206" y1="498" x2="179" y2="498" fill="#FFFFFF" stroke="#00FF80" stroke-width="2.00"/>
<line shape-type="limitline" x1="178" y1="589" x2="178" y2="498" fill="#FFFFFF" stroke="#00FF80" stroke-width="2.00"/>
<ellipse shape-type="ellipse" cx="861" cy="585" rx="12" ry="12" fill="#FF0000" stroke="#FFFFFF" stroke-width="2.00"/>
<ellipse shape-type="ellipse" cx="975" cy="585" rx="12" ry="12" fill="#FF0000" stroke="#FFFFFF" stroke-width="2.00"/>
<g shape-type="group">
<g shape-type="group">
<polygon shape-type="trapezium" points="928,369 917,369 923,356 923,356 928,369" fill="#FF0000" stroke="#FFFFFF" stroke-width="2.00"/>
<polygon shape-type="trapezium" points="928,346 917,346 923,358 923,358 928,346" fill="#FF0000" stroke="#FFFFFF" stroke-width="2.00"/>
</g>
<line shape-type="limitline" x1="942" y1="358" x2="924" y2="359" fill="#FFFFFF" stroke="#FFFFFF" stroke-width="2.00"/>
<path shape-type="chord" d="M 934,373 A 20,16 0 1,0 934,347 z" fill="#FFFFFF" stroke="#FFFFFF" stroke-width="2.00"/>
</g>
<g shape-type="group">
<g shape-type="group">
<polygon shape-type="trapezium" points="567,540 555,540 561,527 561,527 567,540" fill="#FF0000" stroke="#FFFFFF" stroke-width="2.00"/>
<polygon shape-type="trapezium" points="567,517 555,517 561,529 561,529 567,517" fill="#FF0000" stroke="#FFFFFF" stroke-width="2.00"/>
</g>
<line shape-type="limitline" x1="580" y1="529" x2="563" y2="530" fill="#FFFFFF" stroke="#FFFFFF" stroke-width="2.00"/>
<path shape-type="chord" d="M 572,544 A 20,16 0 1,0 572,518 z" fill="#FFFFFF" stroke="#FFFFFF" stroke-width="2.00"/>
</g>
<g shape-type="group">
<g shape-type="group">
<polygon shape-type="trapezium" points="1095,129 1095,118 1082,123 1082,123 1095,129" fill="#FF0000" stroke="#FFFFFF" stroke-width="2.00"/>
<polygon shape-type="trapezium" points="1072,129 1072,118 1084,123 1084,123 1072,129" fill="#FF0000" stroke="#FFFFFF" stroke-width="2.00"/>
</g>
<line shape-type="limitline" x1="1084" y1="105" x2="1083" y2="122" fill="#FFFFFF" stroke="#FFFFFF" stroke-width="2.00"/>
<path shape-type="chord" d="M 1098,113 A 15,20 0 0,0 1074,113 z" fill="#FFFFFF" stroke="#FFFFFF" stroke-width="2.00"/>
</g>
<g shape-type="group">
<g shape-type="group">
<polygon shape-type="trapezium" points="190,446 178,446 184,433 184,433 190,446" fill="#FF0000" stroke="#FFFFFF" stroke-width="2.00"/>
<polygon shape-type="trapezium" points="190,423 178,423 184,435 184,435 190,423" fill="#FF0000" stroke="#FFFFFF" stroke-width="2.00"/>
</g>
<line shape-type="limitline" x1="203" y1="435" x2="185" y2="436" fill="#FFFFFF" stroke="#FFFFFF" stroke-width="2.00"/>
<path shape-type="chord" d="M 195,450 A 20,16 0 1,0 195,424 z" fill="#FFFFFF" stroke="#FFFFFF" stroke-width="2.00"/>
</g>
<g shape-type="group">
<g shape-type="group">
<polygon shape-type="trapezium" points="1125,325 1125,314 1113,319 1113,319 1125,325" fill="#FF0000" stroke="#FFFFFF" stroke-width="2.00"/>
<polygon shape-type="trapezium" points="1102,325 1102,314 1115,319 1115,319 1102,325" fill="#FF0000" stroke="#FFFFFF" stroke-width="2.00"/>
</g>
<line shape-type="limitline" x1="1115" y1="301" x2="1114" y2="318" fill="#FFFFFF" stroke="#FFFFFF" stroke-width="2.00"/>
<path shape-type="chord" d="M 1128,309 A 15,20 0 0,0 1104,309 z" fill="#FFFFFF" stroke="#FFFFFF" stroke-width="2.00"/>
</g>
<g shape-type="group">
<g shape-type="group">
<polygon shape-type="trapezium" points="1263,326 1263,315 1250,320 1250,320 1263,326" fill="#FF0000" stroke="#FFFFFF" stroke-width="2.00"/>
<polygon shape-type="trapezium" points="1240,326 1240,315 1252,320 1252,320 1240,326" fill="#FF0000" stroke="#FFFFFF" stroke-width="2.00"/>
</g>
<line shape-type="limitline" x1="1252" y1="302" x2="1251" y2="319" fill="#FFFFFF" stroke="#FFFFFF" stroke-width="2.00"/>
<path shape-type="chord" d="M 1266,310 A 15,20 0 0,0 1242,310 z" fill="#FFFFFF" stroke="#FFFFFF" stroke-width="2.00"/>
</g>
<g shape-type="group">
<g shape-type="group">
<polygon shape-type="trapezium" points="1369,419 1369,407 1356,413 1356,413 1369,419" fill="#FF0000" stroke="#FFFFFF" stroke-width="2.00"/>
<polygon shape-type="trapezium" points="1346,419 1346,407 1358,413 1358,413 1346,419" fill="#FF0000" stroke="#FFFFFF" stroke-width="2.00"/>
</g>
<line shape-type="limitline" x1="1358" y1="394" x2="1357" y2="411" fill="#FFFFFF" stroke="#FFFFFF" stroke-width="2.00"/>
<path shape-type="chord" d="M 1372,402 A 15,20 0 0,0 1348,402 z" fill="#FFFFFF" stroke="#FFFFFF" stroke-width="2.00"/>
</g>
<g shape-type="group">
<rect shape-type="rectangle" x="3" y="300" width="38" height="8" fill="#808080" stroke="#FFFFFF" stroke-width="2.00"/>
<polygon shape-type="trapezium" points="29,298 29,310 57,304 57,304 29,298" fill="#808080" stroke="#FFFFFF" stroke-width="2.00"/>
</g>
<g shape-type="group">
<rect shape-type="rectangle" x="5" y="386" width="38" height="8" fill="#808080" stroke="#FFFFFF" stroke-width="2.00"/>
<polygon shape-type="trapezium" points="31,384 31,396 59,390 59,390 31,384" fill="#808080" stroke="#FFFFFF" stroke-width="2.00"/>
</g>
<g shape-type="group">
<rect shape-type="rectangle" x="17" y="340" width="38" height="8" fill="#808080" stroke="#FFFFFF" stroke-width="2.00"/>
<polygon shape-type="trapezium" points="28,338 28,350 1,344 1,344 28,338" fill="#808080" stroke="#FFFFFF" stroke-width="2.00"/>
</g>
<g shape-type="group">
<rect shape-type="rectangle" x="18" y="651" width="37" height="8" fill="#808080" stroke="#FFFFFF" stroke-width="2.00"/>
<polygon shape-type="trapezium" points="44,649 44,661 72,655 72,655 44,649" fill="#808080" stroke="#FFFFFF" stroke-width="2.00"/>
</g>
<g shape-type="group">
<rect shape-type="rectangle" x="19" y="709" width="37" height="8" fill="#808080" stroke="#FFFFFF" stroke-width="2.00"/>
<polygon shape-type="trapezium" points="45,707 45,719 73,713 73,713 45,707" fill="#808080" stroke="#FFFFFF" stroke-width="2.00"/>
</g>
<g shape-type="group">
<rect shape-type="rectangle" x="1438" y="61" width="36" height="8" fill="#808080" stroke="#FFFFFF" stroke-width="2.00"/>
<polygon shape-type="trapezium" points="1464,59 1464,71 1491,65 1491,65 1464,59" fill="#808080" stroke="#FFFFFF" stroke-width="2.00"/>
</g>
<g shape-type="group">
<rect shape-type="rectangle" x="1443" y="121" width="37" height="8" fill="#808080" stroke="#FFFFFF" stroke-width="2.00"/>
<polygon shape-type="trapezium" points="1469,119 1469,131 1497,125 1497,125 1469,119" fill="#808080" stroke="#FFFFFF" stroke-width="2.00"/>
</g>
<g shape-type="group">
<rect shape-type="rectangle" x="1435" y="316" width="37" height="8" fill="#808080" stroke="#FFFFFF" stroke-width="2.00"/>
<polygon shape-type="trapezium" points="1461,314 1461,326 1489,320 1489,320 1461,314" fill="#808080" stroke="#FFFFFF" stroke-width="2.00"/>
</g>
<g shape-type="group">
<rect shape-type="rectangle" x="1450" y="409" width="38" height="8" fill="#808080" stroke="#FFFFFF" stroke-width="2.00"/>
<polygon shape-type="trapezium" points="1460,407 1460,419 1434,413 1434,413 1460,407" fill="#808080" stroke="#FFFFFF" stroke-width="2.00"/>
</g>
<g shape-type="group">
<rect shape-type="rectangle" x="1013" y="316" width="36" height="8" fill="#808080" stroke="#FFFFFF" stroke-width="2.00"/>
<polygon shape-type="trapezium" points="1039,314 1039,326 1066,320 1066,320 1039,314" fill="#808080" stroke="#FFFFFF" stroke-width="2.00"/>
</g>
<text font-family="宋体" text-anchor="start" fill="#FFFFFF" shape-type="text" id="" font-size="12.500000" x="5" y="295">P6005A/B</text>
<text font-family="宋体" text-anchor="start" fill="#FFFFFF" shape-type="text" id="" font-size="12.500000" x="6" y="334">废水去废水处理系统</text>
<text font-family="宋体" text-anchor="start" fill="#FFFFFF" shape-type="text" id="" font-size="12.500000" x="7" y="378">T6002</text>
<text font-family="宋体" text-anchor="start" fill="#FFFFFF" shape-type="text" id="" font-size="12.500000" x="20" y="643">ME7001</text>
<text font-family="宋体" text-anchor="start" fill="#FFFFFF" shape-type="text" id="" font-size="12.500000" x="17" y="703">V6011</text>
<line shape-type="limitline" x1="349" y1="366" x2="349" y2="340" fill="#FFFFFF" stroke="#00FF80" stroke-width="2.00"/>
<line shape-type="limitline" x1="349" y1="338" x2="495" y2="338" fill="#FFFFFF" stroke="#00FF80" stroke-width="2.00"/>
<line shape-type="limitline" x1="349" y1="340" x2="349" y2="323" fill="#FFFFFF" stroke="#FFFFFF" stroke-width="2.00"/>
<line shape-type="limitline" x1="349" y1="322" x2="254" y2="322" fill="#FFFFFF" stroke="#FFFFFF" stroke-width="2.00"/>
<g shape-type="group">
<rect shape-type="rectangle" x="230" y="319" width="39" height="8" fill="#808080" stroke="#FFFFFF" stroke-width="2.00"/>
<polygon shape-type="trapezium" points="242,317 242,329 215,323 215,323 242,317" fill="#808080" stroke="#FFFFFF" stroke-width="2.00"/>
</g>
<g shape-type="group">
<rect shape-type="rectangle" x="480" y="336" width="39" height="8" fill="#808080" stroke="#FFFFFF" stroke-width="2.00"/>
<polygon shape-type="trapezium" points="492,334 492,346 465,340 465,340 492,334" fill="#808080" stroke="#FFFFFF" stroke-width="2.00"/>
</g>
<text font-family="宋体" text-anchor="start" fill="#FFFFFF" shape-type="text" id="" font-size="12.500000" x="1427" y="309">火炬</text>
<text font-family="宋体" text-anchor="start" fill="#FFFFFF" shape-type="text" id="" font-size="12.500000" x="434" y="328">低压氮气</text>
<text font-family="宋体" text-anchor="start" fill="#FFFFFF" shape-type="text" id="" font-size="12.500000" x="1434" y="57">罐区</text>
<text font-family="宋体" text-anchor="start" fill="#FFFFFF" shape-type="text" id="" font-size="12.500000" x="283" y="319">火炬</text>
<text font-family="宋体" text-anchor="start" fill="#FFFFFF" shape-type="text" id="" font-size="12.500000" x="1394" y="114">去MTBE装置</text>
<text font-family="宋体" text-anchor="start" fill="#FFFFFF" shape-type="text" id="" font-size="12.500000" x="1440" y="402">除盐水</text>
<text font-family="宋体" text-anchor="start" fill="#FFFFFF" shape-type="text" id="" font-size="12.500000" x="980" y="310">低压氮气</text>
<g shape-type="group">
<g shape-type="group">
<polygon shape-type="trapezium" points="420,346 420,334 407,340 407,340 420,346" fill="#FFFFFF" stroke="#FFFFFF" stroke-width="2.00"/>
<polygon shape-type="trapezium" points="397,346 397,334 409,340 409,340 397,346" fill="#FFFFFF" stroke="#FFFFFF" stroke-width="2.00"/>
</g>
<line shape-type="limitline" x1="409" y1="321" x2="408" y2="339" fill="#FFFFFF" stroke="#FFFFFF" stroke-width="2.00"/>
<path shape-type="chord" d="M 423,329 A 15,20 0 0,0 399,329 z" fill="#FFFFFF" stroke="#FFFFFF" stroke-width="2.00"/>
</g>
<rect shape-type="rectangle" x="1058" y="571" width="60" height="19" fill="#FFFFFF" stroke="#FFFFFF" stroke-width="2.00"/>
<g shape-type="group">
<rect shape-type="rectangle" x="241" y="427" width="60" height="18" fill="#FFFFFF" stroke="#FFFFFF" stroke-width="2.00"/>
<rect shape-type="rectangle" x="241" y="445" width="60" height="19" fill="#FFFFFF" stroke="#FFFFFF" stroke-width="2.00"/>
</g>
<rect shape-type="rectangle" x="595" y="152" width="60" height="19" fill="#FFFFFF" stroke="#FFFFFF" stroke-width="2.00"/>
<rect shape-type="rectangle" x="597" y="204" width="60" height="19" fill="#FFFFFF" stroke="#FFFFFF" stroke-width="2.00"/>
<rect shape-type="rectangle" x="597" y="258" width="60" height="19" fill="#FFFFFF" stroke="#FFFFFF" stroke-width="2.00"/>
<g shape-type="group">
<rect shape-type="rectangle" x="596" y="304" width="60" height="18" fill="#FFFFFF" stroke="#FFFFFF" stroke-width="2.00"/>
<rect shape-type="rectangle" x="596" y="322" width="60" height="19" fill="#FFFFFF" stroke="#FFFFFF" stroke-width="2.00"/>
</g>
<g shape-type="group">
<rect shape-type="rectangle" x="955" y="383" width="60" height="18" fill="#FFFFFF" stroke="#FFFFFF" stroke-width="2.00"/>
<rect shape-type="rectangle" x="955" y="401" width="60" height="19" fill="#FFFFFF" stroke="#FFFFFF" stroke-width="2.00"/>
</g>
<g shape-type="group">
<rect shape-type="rectangle" x="748" y="69" width="60" height="19" fill="#FFFFFF" stroke="#FFFFFF" stroke-width="2.00"/>
<rect shape-type="rectangle" x="748" y="88" width="60" height="18" fill="#FFFFFF" stroke="#FFFFFF" stroke-width="2.00"/>
</g>
<rect shape-type="rectangle" x="853" y="86" width="60" height="19" fill="#FFFFFF" stroke="#FFFFFF" stroke-width="2.00"/>
<rect shape-type="rectangle" x="961" y="87" width="60" height="19" fill="#FFFFFF" stroke="#FFFFFF" stroke-width="2.00"/>
<g shape-type="group">
<rect shape-type="rectangle" x="1209" y="485" width="60" height="18" fill="#FFFFFF" stroke="#FFFFFF" stroke-width="2.00"/>
<rect shape-type="rectangle" x="1209" y="503" width="60" height="19" fill="#FFFFFF" stroke="#FFFFFF" stroke-width="2.00"/>
</g>
<g shape-type="group">
<rect shape-type="rectangle" x="1150" y="270" width="60" height="19" fill="#FFFFFF" stroke="#FFFFFF" stroke-width="2.00"/>
<rect shape-type="rectangle" x="1150" y="289" width="60" height="18" fill="#FFFFFF" stroke="#FFFFFF" stroke-width="2.00"/>
</g>
<line shape-type="limitline" x1="374" y1="391" x2="322" y2="391" fill="#FFFFFF" stroke="#FFFFFF" stroke-width="3.00"/>
<line shape-type="limitline" x1="375" y1="502" x2="324" y2="502" fill="#FFFFFF" stroke="#FFFFFF" stroke-width="3.00"/>
<line shape-type="limitline" x1="579" y1="169" x2="522" y2="169" fill="#FFFFFF" stroke="#FFFFFF" stroke-width="3.00"/>
<line shape-type="limitline" x1="578" y1="378" x2="522" y2="378" fill="#FFFFFF" stroke="#FFFFFF" stroke-width="3.00"/>
<line shape-type="limitline" x1="1188" y1="403" x2="1135" y2="403" fill="#FFFFFF" stroke="#FFFFFF" stroke-width="3.00"/>
<line shape-type="limitline" x1="1185" y1="516" x2="1140" y2="516" fill="#FFFFFF" stroke="#FFFFFF" stroke-width="3.00"/>
<text font-family="宋体" text-anchor="start" fill="#FFFFFF" shape-type="text" id="" font-size="12.500000" x="239" y="422">30LIC66029</text>
<text font-family="宋体" text-anchor="start" fill="#FFFFFF" shape-type="text" id="" font-size="12.500000" x="103" y="487">30P6006A</text>
<text font-family="宋体" text-anchor="start" fill="#FFFFFF" shape-type="text" id="" font-size="12.500000" x="167" y="484">30P6006B</text>
<text font-family="宋体" text-anchor="start" fill="#FFFFFF" shape-type="text" id="" font-size="12.500000" x="185" y="420">30LV66029</text>
<text font-family="宋体" text-anchor="start" fill="#FFFFFF" shape-type="text" id="" font-size="12.500000" x="561" y="512">30LV66031</text>
<text font-family="宋体" text-anchor="start" fill="#FFFFFF" shape-type="text" id="" font-size="12.500000" x="817" y="509">30P6007A</text>
<text font-family="宋体" text-anchor="start" fill="#FFFFFF" shape-type="text" id="" font-size="12.500000" x="926" y="510">30P6007B</text>
<text font-family="宋体" text-anchor="start" fill="#FFFFFF" shape-type="text" id="" font-size="12.500000" x="833" y="566">30P6007A_1</text>
<text font-family="宋体" text-anchor="start" fill="#FFFFFF" shape-type="text" id="" font-size="12.500000" x="945" y="567">30P6007B_1</text>
<text font-family="宋体" text-anchor="start" fill="#FFFFFF" shape-type="text" id="" font-size="12.500000" x="919" y="339">30FV66024</text>
<text font-family="宋体" text-anchor="start" fill="#FFFFFF" shape-type="text" id="" font-size="12.500000" x="1083" y="294">30PV66042A</text>
<text font-family="宋体" text-anchor="start" fill="#FFFFFF" shape-type="text" id="" font-size="12.500000" x="1056" y="100">30PV66041</text>
<text font-family="宋体" text-anchor="start" fill="#FFFFFF" shape-type="text" id="" font-size="12.500000" x="1221" y="295">30PV66042B</text>
<text font-family="宋体" text-anchor="start" fill="#FFFFFF" shape-type="text" id="" font-size="12.500000" x="1331" y="387">30PV66032</text>
<text font-family="宋体" text-anchor="start" fill="#FFFFFF" shape-type="text" id="" font-size="12.500000" x="596" y="150">30PI66038</text>
<text font-family="宋体" text-anchor="start" fill="#FFFFFF" shape-type="text" id="" font-size="12.500000" x="600" y="199">30PDI66040</text>
<text font-family="宋体" text-anchor="start" fill="#FFFFFF" shape-type="text" id="" font-size="12.500000" x="596" y="254">30PI66039</text>
<text font-family="宋体" text-anchor="start" fill="#FFFFFF" shape-type="text" id="" font-size="12.500000" x="594" y="302">30LIC66031</text>
<text font-family="宋体" text-anchor="start" fill="#FFFFFF" shape-type="text" id="" font-size="12.500000" x="744" y="66">30PIC66041</text>
<text font-family="宋体" text-anchor="start" fill="#FFFFFF" shape-type="text" id="" font-size="12.500000" x="857" y="82">30FI66023</text>
<text font-family="宋体" text-anchor="start" fill="#FFFFFF" shape-type="text" id="" font-size="12.500000" x="965" y="84">30TI66044</text>
<text font-family="宋体" text-anchor="start" fill="#FFFFFF" shape-type="text" id="" font-size="12.500000" x="956" y="378">30FIC66024</text>
<text font-family="宋体" text-anchor="start" fill="#FFFFFF" shape-type="text" id="" font-size="12.500000" x="1150" y="261">30PIC66042</text>
<text font-family="宋体" text-anchor="start" fill="#FFFFFF" shape-type="text" id="" font-size="12.500000" x="1058" y="565">30TI66045</text>
<text font-family="宋体" text-anchor="start" fill="#FFFFFF" shape-type="text" id="" font-size="12.500000" x="1209" y="480">30LIC66032</text>
<text font-family="宋体" text-anchor="start" fill="#FFFFFF" shape-type="text" id="" font-size="12.500000" x="305" y="439">%</text>
<text font-family="宋体" text-anchor="start" fill="#FFFFFF" shape-type="text" id="" font-size="12.500000" x="658" y="164">MPaG</text>
<text font-family="宋体" text-anchor="start" fill="#FFFFFF" shape-type="text" id="" font-size="12.500000" x="659" y="220">MPaG</text>
<text font-family="宋体" text-anchor="start" fill="#FFFFFF" shape-type="text" id="" font-size="12.500000" x="660" y="273">MPaG</text>
<text font-family="宋体" text-anchor="start" fill="#FFFFFF" shape-type="text" id="" font-size="12.500000" x="663" y="320">%</text>
<text font-family="宋体" text-anchor="start" fill="#FFFFFF" shape-type="text" id="" font-size="12.500000" x="809" y="82">MPaG</text>
<text font-family="宋体" text-anchor="start" fill="#FFFFFF" shape-type="text" id="" font-size="12.500000" x="914" y="100">Kg/h</text>
<text font-family="宋体" text-anchor="start" fill="#FFFFFF" shape-type="text" id="" font-size="12.500000" x="1019" y="397">Kg/h</text>
<text font-family="宋体" text-anchor="start" fill="#FFFFFF" shape-type="text" id="" font-size="12.500000" x="1214" y="282">MPaG</text>
<text font-family="宋体" text-anchor="start" fill="#FFFFFF" shape-type="text" id="" font-size="12.500000" x="1274" y="501">%</text>
<text font-family="宋体" text-anchor="start" fill="#FFFFFF" shape-type="text" id="" font-size="12.500000" x="1017" y="102">℃</text>
<text font-family="宋体" text-anchor="start" fill="#FFFFFF" shape-type="text" id="" font-size="12.500000" x="1115" y="586">℃</text>
<rect shape-type="rectangle" x="329" y="453" width="11" height="44" fill="#FFFFFF" stroke="#000000" stroke-width="2.00"/>
<rect shape-type="rectangle" x="555" y="302" width="13" height="63" fill="#FFFFFF" stroke="#000000" stroke-width="2.00"/>
<rect shape-type="rectangle" x="1168" y="456" width="12" height="53" fill="#FFFFFF" stroke="#000000" stroke-width="2.00"/>
<text font-family="宋体" text-anchor="start" fill="#000000" shape-type="text" id="" font-size="12.500000" x="326" y="430">V6012</text>
<text font-family="宋体" text-anchor="start" fill="#000000" shape-type="text" id="" font-size="12.500000" x="528" y="239">T6004</text>
<text font-family="宋体" text-anchor="start" fill="#000000" shape-type="text" id="" font-size="12.500000" x="1141" y="444">V6013</text>
<text font-family="宋体" text-anchor="start" fill="#FFFFFF" shape-type="text" id="" font-size="12.500000" x="379" y="360">30PCV66037</text>
<line shape-type="limitline" x1="245" y1="436" x2="205" y2="436" fill="#FFFFFF" stroke="#FFFFFF" stroke-width="2.00" stroke-dasharray="5 10"/>
<line shape-type="limitline" x1="322" y1="452" x2="296" y2="452" fill="#FFFFFF" stroke="#FFFFFF" stroke-width="2.00" stroke-dasharray="5 10"/>
<line shape-type="limitline" x1="626" y1="257" x2="626" y2="130" fill="#FFFFFF" stroke="#FFFFFF" stroke-width="2.00" stroke-dasharray="5 10"/>
<line shape-type="limitline" x1="602" y1="266" x2="578" y2="266" fill="#FFFFFF" stroke="#FFFFFF" stroke-width="2.00" stroke-dasharray="5 10"/>
<line shape-type="limitline" x1="624" y1="530" x2="578" y2="530" fill="#FFFFFF" stroke="#FFFFFF" stroke-width="2.00" stroke-dasharray="5 10"/>
<line shape-type="limitline" x1="625" y1="342" x2="625" y2="530" fill="#FFFFFF" stroke="#FFFFFF" stroke-width="2.00" stroke-dasharray="5 10"/>
<line shape-type="limitline" x1="599" y1="322" x2="576" y2="322" fill="#FFFFFF" stroke="#FFFFFF" stroke-width="2.00" stroke-dasharray="5 10"/>
<line shape-type="limitline" x1="956" y1="402" x2="921" y2="402" fill="#FFFFFF" stroke="#FFFFFF" stroke-width="2.00" stroke-dasharray="5 10"/>
<line shape-type="limitline" x1="986" y1="355" x2="941" y2="355" fill="#FFFFFF" stroke="#FFFFFF" stroke-width="2.00" stroke-dasharray="5 10"/>
<line shape-type="limitline" x1="985" y1="377" x2="985" y2="355" fill="#FFFFFF" stroke="#FFFFFF" stroke-width="2.00" stroke-dasharray="5 10"/>
<line shape-type="limitline" x1="1191" y1="345" x2="1191" y2="310" fill="#FFFFFF" stroke="#FFFFFF" stroke-width="2.00" stroke-dasharray="5 10"/>
<line shape-type="limitline" x1="1163" y1="345" x2="1191" y2="345" fill="#FFFFFF" stroke="#FFFFFF" stroke-width="2.00" stroke-dasharray="5 10"/>
<line shape-type="limitline" x1="1115" y1="301" x2="1115" y2="275" fill="#FFFFFF" stroke="#FFFFFF" stroke-width="2.00" stroke-dasharray="5 10"/>
<line shape-type="limitline" x1="1153" y1="276" x2="1115" y2="276" fill="#FFFFFF" stroke="#FFFFFF" stroke-width="2.00" stroke-dasharray="5 10"/>
<line shape-type="limitline" x1="1253" y1="283" x2="1214" y2="283" fill="#FFFFFF" stroke="#FFFFFF" stroke-width="2.00" stroke-dasharray="5 10"/>
<line shape-type="limitline" x1="1255" y1="302" x2="1255" y2="283" fill="#FFFFFF" stroke="#FFFFFF" stroke-width="2.00" stroke-dasharray="5 10"/>
<line shape-type="limitline" x1="1218" y1="500" x2="1188" y2="500" fill="#FFFFFF" stroke="#FFFFFF" stroke-width="2.00" stroke-dasharray="5 10"/>
<line shape-type="limitline" x1="1298" y1="514" x2="1271" y2="514" fill="#FFFFFF" stroke="#FFFFFF" stroke-width="2.00" stroke-dasharray="5 10"/>
<line shape-type="limitline" x1="1298" y1="348" x2="1298" y2="514" fill="#FFFFFF" stroke="#FFFFFF" stroke-width="2.00" stroke-dasharray="5 10"/>
<line shape-type="limitline" x1="1359" y1="348" x2="1298" y2="348" fill="#FFFFFF" stroke="#FFFFFF" stroke-width="2.00" stroke-dasharray="5 10"/>
<line shape-type="limitline" x1="1358" y1="394" x2="1358" y2="348" fill="#FFFFFF" stroke="#FFFFFF" stroke-width="2.00" stroke-dasharray="5 10"/>
<line shape-type="limitline" x1="779" y1="126" x2="779" y2="100" fill="#FFFFFF" stroke="#FFFFFF" stroke-width="2.00" stroke-dasharray="5 10"/>
<line shape-type="limitline" x1="886" y1="126" x2="886" y2="104" fill="#FFFFFF" stroke="#FFFFFF" stroke-width="2.00" stroke-dasharray="5 10"/>
<line shape-type="limitline" x1="996" y1="126" x2="996" y2="102" fill="#FFFFFF" stroke="#FFFFFF" stroke-width="2.00" stroke-dasharray="5 10"/>
<line shape-type="limitline" x1="780" y1="68" x2="780" y2="41" fill="#FFFFFF" stroke="#FFFFFF" stroke-width="2.00" stroke-dasharray="5 10"/>
<line shape-type="limitline" x1="781" y1="42" x2="1086" y2="42" fill="#FFFFFF" stroke="#FFFFFF" stroke-width="2.00" stroke-dasharray="5 10"/>
<line shape-type="limitline" x1="1085" y1="103" x2="1085" y2="42" fill="#FFFFFF" stroke="#FFFFFF" stroke-width="2.00" stroke-dasharray="5 10"/>
<text font-family="宋体" text-anchor="start" fill="#FFFFFF" shape-type="text" id="" font-size="17.000000" x="909" y="363">B</text>
<a xlink:href="..\脱氢总图一.svg">
<g shape-type="button">
<rect fill="#C0C0C0" stroke-width="0.3" stroke="#FFFFFF" x="1181" y="722" width="51" height="29" shape-type="buttonrect"/>
<text font-family="宋体" text-anchor="middle" dominant-baseline="middle" fill="#000000" font-size="13.500000" x="1206" y="742" shape-type="buttontext">返回</text>
</g>
</a>
<text font-family="Arial" text-anchor="start" fill="#000000" shape-type="realdata" id="QH_TQ_30PI66038.DACA" font-size="12.500000" x="562" y="166">XXXXXXXXXX</text>
<text font-family="Arial" text-anchor="start" fill="#000000" shape-type="realdata" id="QH_TQ_30PI66039.DACA" font-size="12.500000" x="569" y="274">XXXXXXXXXX</text>
<text font-family="Arial" text-anchor="start" fill="#000000" shape-type="realdata" id="QH_TQ_30PDI66040.DACA" font-size="12.500000" x="567" y="220">XXXXXXXXXX</text>
<text font-family="Arial" text-anchor="start" fill="#000000" shape-type="realdata" id="QH_TQ_30FI66023.DACA" font-size="12.500000" x="952" y="103">XXXXXXXXXX</text>
<text font-family="Arial" text-anchor="start" fill="#000000" shape-type="realdata" id="QH_TQ_30TI66045.DACA" font-size="12.500000" x="1031" y="586">XXXXXXXXXX</text>
<text font-family="Arial" text-anchor="start" fill="#000000" shape-type="realdata" id="QH_TQ_30FI66023.DACA" font-size="12.500000" x="844" y="102">XXXXXXXXXX</text>
<text font-family="Arial" text-anchor="start" fill="#000000" shape-type="realdata" id="QH_TQ_30PIC66041.DACA" font-size="12.500000" x="711" y="82">XXXXXXXXXX</text>
</svg>