<svg xmlns="http://www.w3.org/2000/svg" xmlns:xlink="http://www.w3.org/1999/xlink" version="1.1" style="background-color:#7DB6C1" width="1062" height="669" viewbox="0 0 1062 669"><defs>
<linearGradient x1="0.000000%" y1="50.000000%" x2="100.000000%" y2="50.000000%" id="lgradient1">
<stop offset="0" stop-color="#2C2C2C" stop-opacity="1"/>
<stop offset="0.5" stop-color="#FFFFFF" stop-opacity="1"/>
<stop offset="1" stop-color="#2C2C2C" stop-opacity="1"/>
</linearGradient>
<linearGradient x1="0.000000%" y1="50.000000%" x2="100.000000%" y2="50.000000%" id="lgradient2">
<stop offset="0" stop-color="#2C2C2C" stop-opacity="1"/>
<stop offset="0.5" stop-color="#FFFFFF" stop-opacity="1"/>
<stop offset="1" stop-color="#2C2C2C" stop-opacity="1"/>
</linearGradient>
<linearGradient x1="0.000000%" y1="50.000000%" x2="100.000000%" y2="50.000000%" id="lgradient3_0">
<stop offset="0" stop-color="#2C2C2C" stop-opacity="1"/>
<stop offset="0.5" stop-color="#FFFFFF" stop-opacity="1"/>
<stop offset="1" stop-color="#2C2C2C" stop-opacity="1"/>
</linearGradient>
<linearGradient x1="0.000000%" y1="50.000000%" x2="100.000000%" y2="50.000000%" id="lgradient3_1">
<stop offset="0" stop-color="#2C2C2C" stop-opacity="1"/>
<stop offset="0.5" stop-color="#FFFFFF" stop-opacity="1"/>
<stop offset="1" stop-color="#2C2C2C" stop-opacity="1"/>
</linearGradient>
<linearGradient x1="0.000000%" y1="50.000000%" x2="100.000000%" y2="50.000000%" id="lgradient3_2_0">
<stop offset="0" stop-color="#2C2C2C" stop-opacity="1"/>
<stop offset="0.5" stop-color="#FFFFFF" stop-opacity="1"/>
<stop offset="1" stop-color="#2C2C2C" stop-opacity="1"/>
</linearGradient>
<linearGradient x1="0.000000%" y1="50.000000%" x2="100.000000%" y2="50.000000%" id="lgradient4">
<stop offset="0" stop-color="#2C2C2C" stop-opacity="1"/>
<stop offset="0.5" stop-color="#FFFFFF" stop-opacity="1"/>
<stop offset="1" stop-color="#2C2C2C" stop-opacity="1"/>
</linearGradient>
<linearGradient x1="0.000000%" y1="50.000000%" x2="100.000000%" y2="50.000000%" id="lgradient5">
<stop offset="0" stop-color="#2C2C2C" stop-opacity="1"/>
<stop offset="0.5" stop-color="#FFFFFF" stop-opacity="1"/>
<stop offset="1" stop-color="#2C2C2C" stop-opacity="1"/>
</linearGradient>
<linearGradient x1="50.000000%" y1="0.000000%" x2="50.000000%" y2="100.000000%" id="lgradient18">
<stop offset="0" stop-color="#2C2C2C" stop-opacity="1"/>
<stop offset="0.5" stop-color="#FFFFFF" stop-opacity="1"/>
<stop offset="1" stop-color="#2C2C2C" stop-opacity="1"/>
</linearGradient>
<linearGradient x1="50.000000%" y1="0.000000%" x2="50.000000%" y2="100.000000%" id="lgradient19">
<stop offset="0" stop-color="#2C2C2C" stop-opacity="1"/>
<stop offset="0.5" stop-color="#FFFFFF" stop-opacity="1"/>
<stop offset="1" stop-color="#2C2C2C" stop-opacity="1"/>
</linearGradient>
<linearGradient x1="50.000000%" y1="0.000000%" x2="50.000000%" y2="100.000000%" id="lgradient29">
<stop offset="0" stop-color="#2C2C2C" stop-opacity="1"/>
<stop offset="0.5" stop-color="#FFFFFF" stop-opacity="1"/>
<stop offset="1" stop-color="#2C2C2C" stop-opacity="1"/>
</linearGradient>
<linearGradient x1="0.000000%" y1="50.000000%" x2="100.000000%" y2="50.000000%" id="lgradient84">
<stop offset="0" stop-color="#2C2C2C" stop-opacity="1"/>
<stop offset="0.5" stop-color="#FFFFFF" stop-opacity="1"/>
<stop offset="1" stop-color="#2C2C2C" stop-opacity="1"/>
</linearGradient>
<linearGradient x1="0.000000%" y1="50.000000%" x2="100.000000%" y2="50.000000%" id="lgradient100">
<stop offset="0" stop-color="#2C2C2C" stop-opacity="1"/>
<stop offset="0.5" stop-color="#FFFFFF" stop-opacity="1"/>
<stop offset="1" stop-color="#2C2C2C" stop-opacity="1"/>
</linearGradient>
<linearGradient x1="50.000000%" y1="0.000000%" x2="50.000000%" y2="100.000000%" id="lgradient101">
<stop offset="0" stop-color="#2C2C2C" stop-opacity="1"/>
<stop offset="0.5" stop-color="#FFFFFF" stop-opacity="1"/>
<stop offset="1" stop-color="#2C2C2C" stop-opacity="1"/>
</linearGradient>
<linearGradient x1="50.000000%" y1="0.000000%" x2="50.000000%" y2="100.000000%" id="lgradient102">
<stop offset="0" stop-color="#2C2C2C" stop-opacity="1"/>
<stop offset="0.5" stop-color="#FFFFFF" stop-opacity="1"/>
<stop offset="1" stop-color="#2C2C2C" stop-opacity="1"/>
</linearGradient>
<linearGradient x1="0.000000%" y1="50.000000%" x2="100.000000%" y2="50.000000%" id="lgradient110_0">
<stop offset="0" stop-color="#2C2C2C" stop-opacity="1"/>
<stop offset="0.5" stop-color="#FFFFFF" stop-opacity="1"/>
<stop offset="1" stop-color="#2C2C2C" stop-opacity="1"/>
</linearGradient>
</defs>
<rect shape-type="roundRectangle" rx="20" ry="20" x="180" y="257" width="52" height="147" fill="url(#lgradient1)" stroke="#FFFFFF" stroke-width="1.00"/>
<rect shape-type="roundRectangle" rx="20" ry="20" x="374" y="257" width="52" height="147" fill="url(#lgradient2)" stroke="#FFFFFF" stroke-width="1.00"/>
<g shape-type="group">
<rect shape-type="roundRectangle" rx="20" ry="20" x="626" y="231" width="85" height="120" fill="url(#lgradient3_0)" stroke="#FFFFFF" stroke-width="1.00"/>
<polygon shape-type="trapezium" points="710,251 626,251 647,175 689,175 710,251" fill="url(#lgradient3_1)" stroke="#FFFFFF" stroke-width="1.00"/>
<g shape-type="group">
<rect shape-type="roundRectangle" rx="20" ry="20" x="647" y="90" width="44" height="110" fill="url(#lgradient3_2_0)" stroke="#FFFFFF" stroke-width="1.00"/>
<rect shape-type="rectangle" x="638" y="85" width="61" height="25" stroke="#000000" stroke-width="1.00"/>
</g>
</g>
<rect shape-type="roundRectangle" rx="20" ry="20" x="651" y="444" width="45" height="100" fill="url(#lgradient4)" stroke="#FFFFFF" stroke-width="1.00"/>
<rect shape-type="rectangle" x="1116" y="398" width="121" height="97" fill="url(#lgradient5)" stroke="#FFFFFF" stroke-width="1.00"/>
<g shape-type="group">
<polygon shape-type="trapezium" points="871,381 836,381 854,358 854,358 871,381" fill="#FF0000" stroke="#FFFFFF" stroke-width="1.00"/>
<rect shape-type="rectangle" x="855" y="340" width="10" height="24" fill="#FF0000" stroke="#FFFFFF" stroke-width="1.00"/>
<ellipse shape-type="ellipse" cx="855" cy="363" rx="13" ry="12" fill="#FF0000" stroke="#FFFFFF" stroke-width="1.00"/>
</g>
<g shape-type="group">
<polygon shape-type="trapezium" points="1014,381 979,381 997,358 997,358 1014,381" fill="#FF0000" stroke="#FFFFFF" stroke-width="1.00"/>
<rect shape-type="rectangle" x="998" y="340" width="9" height="24" fill="#FF0000" stroke="#FFFFFF" stroke-width="1.00"/>
<ellipse shape-type="ellipse" cx="996" cy="363" rx="13" ry="12" fill="#FF0000" stroke="#FFFFFF" stroke-width="1.00"/>
</g>
<line shape-type="limitline" x1="375" y1="297" x2="231" y2="297" fill="#FFFFFF" stroke="#FFFFFF" stroke-width="1.00"/>
<line shape-type="limitline" x1="375" y1="359" x2="231" y2="359" fill="#FFFFFF" stroke="#FFFFFF" stroke-width="1.00"/>
<g shape-type="group">
<line shape-type="limitline" x1="163" y1="282" x2="182" y2="283" fill="#FFFFFF" stroke="#FFFFFF" stroke-width="1.00"/>
<line shape-type="limitline" x1="157" y1="290" x2="156" y2="275" fill="#FFFFFF" stroke="#FFFFFF" stroke-width="1.00"/>
<line shape-type="limitline" x1="161" y1="290" x2="160" y2="275" fill="#FFFFFF" stroke="#FFFFFF" stroke-width="1.00"/>
</g>
<g shape-type="group">
<line shape-type="limitline" x1="445" y1="279" x2="425" y2="280" fill="#FFFFFF" stroke="#FFFFFF" stroke-width="1.00"/>
<line shape-type="limitline" x1="449" y1="288" x2="450" y2="272" fill="#FFFFFF" stroke="#FFFFFF" stroke-width="1.00"/>
<line shape-type="limitline" x1="445" y1="288" x2="446" y2="272" fill="#FFFFFF" stroke="#FFFFFF" stroke-width="1.00"/>
</g>
<line shape-type="limitline" x1="207" y1="256" x2="207" y2="181" fill="#FFFFFF" stroke="#FFFFFF" stroke-width="1.00"/>
<line shape-type="limitline" x1="401" y1="256" x2="401" y2="181" fill="#FFFFFF" stroke="#FFFFFF" stroke-width="1.00"/>
<line shape-type="limitline" x1="300" y1="296" x2="300" y2="221" fill="#FFFFFF" stroke="#FFFFFF" stroke-width="1.00"/>
<line shape-type="limitline" x1="297" y1="360" x2="297" y2="411" fill="#FFFFFF" stroke="#FFFFFF" stroke-width="1.00"/>
<g shape-type="group">
<line shape-type="limitline" x1="643" y1="370" x2="642" y2="346" fill="#FFFFFF" stroke="#FFFFFF" stroke-width="1.00"/>
<line shape-type="line" x1="660" y1="391" x2="643" y2="370" fill="#FFFFFF" stroke="#FFFFFF" stroke-width="1.00"/>
<line shape-type="limitline" x1="660" y1="449" x2="659" y2="391" fill="#FFFFFF" stroke="#FFFFFF" stroke-width="1.00"/>
</g>
<g shape-type="group">
<line shape-type="limitline" x1="699" y1="369" x2="700" y2="345" fill="#FFFFFF" stroke="#FFFFFF" stroke-width="1.00"/>
<line shape-type="line" x1="683" y1="390" x2="700" y2="369" fill="#FFFFFF" stroke="#FFFFFF" stroke-width="1.00"/>
<line shape-type="limitline" x1="682" y1="448" x2="683" y2="390" fill="#FFFFFF" stroke="#FFFFFF" stroke-width="1.00"/>
</g>
<polygon shape-type="trapezium" points="794,423 794,439 813,435 813,427 794,423" fill="url(#lgradient18)" stroke="#FFFFFF" stroke-width="1.00"/>
<polygon shape-type="trapezium" points="900,423 900,439 881,435 881,427 900,423" fill="url(#lgradient19)" stroke="#FFFFFF" stroke-width="1.00"/>
<g shape-type="group">
<line shape-type="limitline" x1="802" y1="460" x2="801" y2="439" fill="#FFFFFF" stroke="#FFFFFF" stroke-width="1.00"/>
<line shape-type="limitline" x1="891" y1="460" x2="802" y2="461" fill="#FFFFFF" stroke="#FFFFFF" stroke-width="1.00"/>
<line shape-type="limitline" x1="891" y1="439" x2="890" y2="459" fill="#FFFFFF" stroke="#FFFFFF" stroke-width="1.00"/>
</g>
<line shape-type="limitline" x1="801" y1="402" x2="800" y2="423" fill="#FFFFFF" stroke="#FFFFFF" stroke-width="1.00"/>
<line shape-type="limitline" x1="890" y1="401" x2="801" y2="401" fill="#FFFFFF" stroke="#FFFFFF" stroke-width="1.00"/>
<line shape-type="limitline" x1="890" y1="423" x2="889" y2="402" fill="#FFFFFF" stroke="#FFFFFF" stroke-width="1.00"/>
<line shape-type="limitline" x1="818" y1="359" x2="842" y2="359" fill="#FFFFFF" stroke="#FFFFFF" stroke-width="1.00"/>
<line shape-type="limitline" x1="818" y1="401" x2="818" y2="359" fill="#FFFFFF" stroke="#FFFFFF" stroke-width="1.00"/>
<line shape-type="limitline" x1="859" y1="315" x2="859" y2="339" fill="#FFFFFF" stroke="#FFFFFF" stroke-width="1.00"/>
<line shape-type="limitline" x1="1003" y1="314" x2="859" y2="314" fill="#FFFFFF" stroke="#FFFFFF" stroke-width="1.00"/>
<line shape-type="limitline" x1="1003" y1="340" x2="1003" y2="314" fill="#FFFFFF" stroke="#FFFFFF" stroke-width="1.00"/>
<polygon shape-type="trapezium" points="974,424 974,440 955,436 955,428 974,424" fill="url(#lgradient29)" stroke="#FFFFFF" stroke-width="1.00"/>
<line shape-type="limitline" x1="984" y1="359" x2="965" y2="359" fill="#FFFFFF" stroke="#FFFFFF" stroke-width="1.00"/>
<line shape-type="limitline" x1="964" y1="427" x2="964" y2="359" fill="#FFFFFF" stroke="#FFFFFF" stroke-width="1.00"/>
<line shape-type="limitline" x1="965" y1="460" x2="965" y2="439" fill="#FFFFFF" stroke="#FFFFFF" stroke-width="1.00"/>
<line shape-type="limitline" x1="1116" y1="460" x2="965" y2="460" fill="#FFFFFF" stroke="#FFFFFF" stroke-width="1.00"/>
<line shape-type="limitline" x1="882" y1="314" x2="882" y2="66" fill="#FFFFFF" stroke="#FFFFFF" stroke-width="1.00"/>
<polygon shape-type="trapezium" points="287,292 287,302 300,297 300,297 287,292" fill="#FFFFFF" stroke="#FFFFFF" stroke-width="1.00"/>
<polygon shape-type="trapezium" points="313,292 313,302 300,297 300,297 313,292" fill="#FFFFFF" stroke="#FFFFFF" stroke-width="1.00"/>
<polygon shape-type="trapezium" points="211,189 203,189 207,176 207,176 211,189" fill="#FFFFFF" stroke="#FFFFFF" stroke-width="1.00"/>
<polygon shape-type="trapezium" points="405,189 397,189 401,176 401,176 405,189" fill="#FFFFFF" stroke="#FFFFFF" stroke-width="1.00"/>
<polygon shape-type="trapezium" points="245,364 245,355 232,359 232,359 245,364" fill="#FFFFFF" stroke="#FFFFFF" stroke-width="1.00"/>
<polygon shape-type="trapezium" points="360,354 360,364 373,359 373,359 360,354" fill="#FFFFFF" stroke="#FFFFFF" stroke-width="1.00"/>
<polygon shape-type="trapezium" points="301,374 293,374 297,361 297,361 301,374" fill="#FFFFFF" stroke="#FFFFFF" stroke-width="1.00"/>
<line shape-type="limitline" x1="171" y1="284" x2="171" y2="67" fill="#FFFFFF" stroke="#8000FF" stroke-width="1.00"/>
<line shape-type="limitline" x1="883" y1="67" x2="171" y2="67" fill="#FFFFFF" stroke="#8000FF" stroke-width="1.00"/>
<line shape-type="limitline" x1="256" y1="298" x2="256" y2="67" fill="#FFFFFF" stroke="#8000FF" stroke-width="1.00"/>
<line shape-type="limitline" x1="341" y1="298" x2="341" y2="67" fill="#FFFFFF" stroke="#8000FF" stroke-width="1.00"/>
<line shape-type="limitline" x1="431" y1="277" x2="431" y2="67" fill="#FFFFFF" stroke="#8000FF" stroke-width="1.00"/>
<line shape-type="limitline" x1="206" y1="672" x2="206" y2="402" fill="#FFFFFF" stroke="#8000FF" stroke-width="1.00"/>
<line shape-type="limitline" x1="206" y1="672" x2="856" y2="672" fill="#FFFFFF" stroke="#8000FF" stroke-width="1.00"/>
<line shape-type="limitline" x1="855" y1="461" x2="855" y2="672" fill="#FFFFFF" stroke="#8000FF" stroke-width="1.00"/>
<line shape-type="limitline" x1="263" y1="672" x2="263" y2="360" fill="#FFFFFF" stroke="#8000FF" stroke-width="1.00"/>
<line shape-type="limitline" x1="345" y1="670" x2="345" y2="360" fill="#FFFFFF" stroke="#8000FF" stroke-width="1.00"/>
<line shape-type="limitline" x1="401" y1="671" x2="401" y2="404" fill="#FFFFFF" stroke="#8000FF" stroke-width="1.00"/>
<line shape-type="limitline" x1="504" y1="345" x2="504" y2="69" fill="#FFFFFF" stroke="#8000FF" stroke-width="1.00"/>
<line shape-type="limitline" x1="652" y1="344" x2="504" y2="344" fill="#FFFFFF" stroke="#8000FF" stroke-width="1.00"/>
<line shape-type="limitline" x1="675" y1="671" x2="675" y2="544" fill="#FFFFFF" stroke="#8000FF" stroke-width="1.00"/>
<line shape-type="limitline" x1="672" y1="373" x2="672" y2="346" fill="#FFFFFF" stroke="#8000FF" stroke-width="1.00"/>
<line shape-type="limitline" x1="505" y1="373" x2="672" y2="373" fill="#FFFFFF" stroke="#8000FF" stroke-width="1.00"/>
<line shape-type="limitline" x1="505" y1="672" x2="505" y2="373" fill="#FFFFFF" stroke="#8000FF" stroke-width="1.00"/>
<g shape-type="group">
<line shape-type="limitline" x1="551" y1="210" x2="571" y2="211" fill="#FFFFFF" stroke="#FFFFFF" stroke-width="1.00"/>
<line shape-type="limitline" x1="546" y1="218" x2="545" y2="203" fill="#FFFFFF" stroke="#FFFFFF" stroke-width="1.00"/>
<line shape-type="limitline" x1="550" y1="218" x2="549" y2="203" fill="#FFFFFF" stroke="#FFFFFF" stroke-width="1.00"/>
</g>
<line shape-type="limitline" x1="670" y1="211" x2="570" y2="211" fill="#FFFFFF" stroke="#8000FF" stroke-width="1.00"/>
<line shape-type="limitline" x1="671" y1="311" x2="671" y2="211" fill="#FFFFFF" stroke="#8000FF" stroke-width="1.00"/>
<line shape-type="limitline" x1="572" y1="211" x2="572" y2="69" fill="#FFFFFF" stroke="#8000FF" stroke-width="1.00"/>
<polygon shape-type="trapezium" points="179,232 163,232 171,244 171,244 179,232" fill="#8000FF" stroke="#8000FF" stroke-width="1.00"/>
<polygon shape-type="trapezium" points="264,234 248,234 256,246 256,246 264,234" fill="#8000FF" stroke="#8000FF" stroke-width="1.00"/>
<polygon shape-type="trapezium" points="349,233 333,233 341,245 341,245 349,233" fill="#8000FF" stroke="#8000FF" stroke-width="1.00"/>
<polygon shape-type="trapezium" points="439,232 423,232 431,244 431,244 439,232" fill="#8000FF" stroke="#8000FF" stroke-width="1.00"/>
<polygon shape-type="trapezium" points="512,116 496,116 504,128 504,128 512,116" fill="#8000FF" stroke="#8000FF" stroke-width="1.00"/>
<polygon shape-type="trapezium" points="580,116 564,116 572,128 572,128 580,116" fill="#8000FF" stroke="#8000FF" stroke-width="1.00"/>
<polygon shape-type="trapezium" points="683,604 667,604 675,616 675,616 683,604" fill="#8000FF" stroke="#8000FF" stroke-width="1.00"/>
<polygon shape-type="trapezium" points="214,531 198,531 206,543 206,543 214,531" fill="#8000FF" stroke="#8000FF" stroke-width="1.00"/>
<polygon shape-type="trapezium" points="272,531 256,531 264,543 264,543 272,531" fill="#8000FF" stroke="#8000FF" stroke-width="1.00"/>
<polygon shape-type="trapezium" points="353,531 337,531 345,543 345,543 353,531" fill="#8000FF" stroke="#8000FF" stroke-width="1.00"/>
<polygon shape-type="trapezium" points="409,530 393,530 401,542 401,542 409,530" fill="#8000FF" stroke="#8000FF" stroke-width="1.00"/>
<polygon shape-type="trapezium" points="512,528 496,528 504,540 504,540 512,528" fill="#8000FF" stroke="#8000FF" stroke-width="1.00"/>
<polygon shape-type="trapezium" points="773,679 773,665 785,672 785,672 773,679" fill="#8000FF" stroke="#8000FF" stroke-width="1.00"/>
<line shape-type="limitline" x1="1545" y1="409" x2="1238" y2="409" fill="#FFFFFF" stroke="#00FF00" stroke-width="1.00"/>
<line shape-type="limitline" x1="1250" y1="397" x2="1099" y2="397" fill="#FFFFFF" stroke="#FFFFFF" stroke-width="1.00"/>
<line shape-type="limitline" x1="1405" y1="488" x2="1238" y2="488" fill="#FFFFFF" stroke="#00FF00" stroke-width="1.00"/>
<line shape-type="limitline" x1="1405" y1="535" x2="1405" y2="488" fill="#FFFFFF" stroke="#00FF00" stroke-width="1.00"/>
<line shape-type="limitline" x1="1567" y1="537" x2="1405" y2="537" fill="#FFFFFF" stroke="#00FF00" stroke-width="1.00"/>
<line shape-type="limitline" x1="1542" y1="481" x2="1236" y2="481" fill="#FFFFFF" stroke="#FF0000" stroke-width="1.00"/>
<polygon shape-type="trapezium" points="886,119 877,119 882,109 882,109 886,119" fill="#FFFFFF" stroke="#FFFFFF" stroke-width="1.00"/>
<polygon shape-type="trapezium" points="798,60 798,74 785,67 785,67 798,60" fill="#8000FF" stroke="#8000FF" stroke-width="1.00"/>
<polygon shape-type="trapezium" points="1187,432 1159,432 1173,415 1173,415 1187,432" fill="url(#lgradient84)" stroke="#FFFFFF" stroke-width="1.00"/>
<ellipse shape-type="ellipse" cx="1173" cy="418" rx="11" ry="11" fill="#FF0000" stroke="#000000" stroke-width="1.00"/>
<g shape-type="group">
<polygon shape-type="trapezium" points="1530,416 1530,402 1519,409 1519,409 1530,416" fill="#808080" stroke="#FFFFFF" stroke-width="1.00"/>
<rect shape-type="rectangle" x="1530" y="404" width="26" height="7" fill="#808080" stroke="#FFFFFF" stroke-width="1.00"/>
</g>
<g shape-type="group">
<polygon shape-type="trapezium" points="1527,488 1527,473 1516,480 1516,480 1527,488" fill="#808080" stroke="#FFFFFF" stroke-width="1.00"/>
<rect shape-type="rectangle" x="1527" y="475" width="26" height="8" fill="#808080" stroke="#FFFFFF" stroke-width="1.00"/>
</g>
<g shape-type="group">
<polygon shape-type="trapezium" points="1555,545 1555,531 1568,538 1568,538 1555,545" fill="#808080" stroke="#FFFFFF" stroke-width="1.00"/>
<rect shape-type="rectangle" x="1531" y="533" width="24" height="8" fill="#808080" stroke="#FFFFFF" stroke-width="1.00"/>
</g>
<rect shape-type="rectangle" x="1245" y="428" width="52" height="15" fill="#FFFFFF" stroke="#FFFFFF" stroke-width="1.00"/>
<rect shape-type="rectangle" x="1341" y="446" width="0" height="0" fill="#FFFFFF" stroke="#FFFFFF" stroke-width="1.00"/>
<rect shape-type="rectangle" x="1246" y="462" width="52" height="15" fill="#FFFFFF" stroke="#FFFFFF" stroke-width="1.00"/>
<text font-family="宋体" text-anchor="start" fill="#FFFFFF" shape-type="text" id="" font-size="12.500000" x="801" y="336">30P1004</text>
<text font-family="宋体" text-anchor="start" fill="#FFFFFF" shape-type="text" id="" font-size="12.500000" x="944" y="336">30P1003</text>
<text font-family="宋体" text-anchor="start" fill="#FFFFFF" shape-type="text" id="" font-size="12.500000" x="1124" y="389">30ME1011</text>
<text font-family="宋体" text-anchor="start" fill="#FFFFFF" shape-type="text" id="" font-size="12.500000" x="1515" y="396">脱盐水</text>
<text font-family="宋体" text-anchor="start" fill="#FFFFFF" shape-type="text" id="" font-size="12.500000" x="1512" y="528">冷凝水</text>
<text font-family="宋体" text-anchor="start" fill="#FFFFFF" shape-type="text" id="" font-size="12.500000" x="1525" y="465">LP</text>
<text font-family="宋体" text-anchor="start" fill="#FFFFFF" shape-type="text" id="" font-size="12.500000" x="255" y="326">热联合进料换</text>
<text font-family="宋体" text-anchor="start" fill="#FFFFFF" shape-type="text" id="" font-size="12.500000" x="280" y="348">热器</text>
<rect shape-type="rectangle" x="1173" y="431" width="3" height="50" fill="url(#lgradient100)" stroke="#FFFFFF" stroke-width="1.00"/>
<polygon shape-type="trapezium" points="1162,470 1162,484 1176,477 1176,477 1162,470" fill="url(#lgradient101)" stroke="#FFFFFF" stroke-width="1.00"/>
<polygon shape-type="trapezium" points="1187,470 1187,484 1173,477 1173,477 1187,470" fill="url(#lgradient102)" stroke="#FFFFFF" stroke-width="1.00"/>
<text font-family="宋体" text-anchor="start" fill="#FFFFFF" shape-type="text" id="" font-size="12.500000" x="1241" y="425">30TI11085</text>
<text font-family="宋体" text-anchor="start" fill="#FFFFFF" shape-type="text" id="" font-size="12.500000" x="1238" y="458">30LI11032</text>
<text font-family="宋体" text-anchor="start" fill="#000000" shape-type="text" id="" font-size="12.500000" x="1165" y="420">M</text>
<text font-family="宋体" text-anchor="start" fill="#000000" shape-type="text" id="" font-size="12.500000" x="1138" y="491">30-TK1001</text>
<text font-family="宋体" text-anchor="start" fill="#000000" shape-type="text" id="" font-size="12.500000" x="642" y="331">反应器</text>
<text font-family="宋体" text-anchor="start" fill="#FFFFFF" shape-type="text" id="" font-size="12.500000" x="1300" y="441">℃ </text>
<text font-family="宋体" text-anchor="start" fill="#FFFFFF" shape-type="text" id="" font-size="12.500000" x="1300" y="474">%</text>
<g shape-type="group">
<rect shape-type="rectangle" x="668" y="427" width="9" height="18" fill="url(#lgradient110_0)" stroke="#FFFFFF" stroke-width="1.00"/>
<line shape-type="limitline" x1="663" y1="426" x2="683" y2="427" fill="#FFFFFF" stroke="#FFFFFF" stroke-width="1.00"/>
<line shape-type="limitline" x1="663" y1="424" x2="683" y2="425" fill="#FFFFFF" stroke="#FFFFFF" stroke-width="1.00"/>
</g>
<line shape-type="limitline" x1="1250" y1="433" x2="1235" y2="433" fill="#FFFFFF" stroke="#FFFFFF" stroke-width="1.00" stroke-dasharray="5 10"/>
<line shape-type="limitline" x1="1250" y1="468" x2="1235" y2="468" fill="#FFFFFF" stroke="#FFFFFF" stroke-width="1.00" stroke-dasharray="5 10"/>
<line shape-type="limitline" x1="1197" y1="398" x2="1197" y2="328" fill="#FFFFFF" stroke="#FFFFFF" stroke-width="1.00"/>
<path shape-type="chord" d="M 1224,331 A 17,21 0 0,0 1197,331 z" stroke="#FFFFFF" stroke-width="1.00"/>
<text font-family="Arial" text-anchor="start" fill="#000000" shape-type="realdata" id="QH_TQ_30TI11085.DACA" font-size="12.500000" x="1214" y="440">XXXXXXXXXX</text>
<text font-family="Arial" text-anchor="start" fill="#000000" shape-type="realdata" id="QH_TQ_30LI11032.DACA" font-size="12.500000" x="1217" y="475">XXXXXXXXXX</text>
<a xlink:href="..\脱氢总图二.svg">
<g shape-type="button">
<rect fill="#C0C0C0" stroke-width="0.3" stroke="#FFFFFF" x="1434" y="662" width="51" height="29" shape-type="buttonrect"/>
<text font-family="宋体" text-anchor="middle" dominant-baseline="middle" fill="#000000" font-size="13.500000" x="1459" y="682" shape-type="buttontext">返回</text>
</g>
</a>
</svg>