<svg xmlns="http://www.w3.org/2000/svg" xmlns:xlink="http://www.w3.org/1999/xlink" version="1.1" style="background-color:#7DB6C1" width="1062" height="669" viewbox="0 0 1062 669"><defs>
<linearGradient x1="50.000000%" y1="0.000000%" x2="50.000000%" y2="100.000000%" id="lgradient1">
<stop offset="0" stop-color="#2C2C2C" stop-opacity="1"/>
<stop offset="0.5" stop-color="#FFFFFF" stop-opacity="1"/>
<stop offset="1" stop-color="#2C2C2C" stop-opacity="1"/>
</linearGradient>
<linearGradient x1="50.000000%" y1="0.000000%" x2="50.000000%" y2="100.000000%" id="lgradient3_0">
<stop offset="0" stop-color="#2C2C2C" stop-opacity="1"/>
<stop offset="0.5" stop-color="#FFFFFF" stop-opacity="1"/>
<stop offset="1" stop-color="#2C2C2C" stop-opacity="1"/>
</linearGradient>
<linearGradient x1="50.000000%" y1="0.000000%" x2="50.000000%" y2="100.000000%" id="lgradient3_1">
<stop offset="0" stop-color="#2C2C2C" stop-opacity="1"/>
<stop offset="0.5" stop-color="#FFFFFF" stop-opacity="1"/>
<stop offset="1" stop-color="#2C2C2C" stop-opacity="1"/>
</linearGradient>
<linearGradient x1="50.000000%" y1="0.000000%" x2="50.000000%" y2="100.000000%" id="lgradient4_0">
<stop offset="0" stop-color="#2C2C2C" stop-opacity="1"/>
<stop offset="0.5" stop-color="#FFFFFF" stop-opacity="1"/>
<stop offset="1" stop-color="#2C2C2C" stop-opacity="1"/>
</linearGradient>
<linearGradient x1="50.000000%" y1="0.000000%" x2="50.000000%" y2="100.000000%" id="lgradient4_1">
<stop offset="0" stop-color="#2C2C2C" stop-opacity="1"/>
<stop offset="0.5" stop-color="#FFFFFF" stop-opacity="1"/>
<stop offset="1" stop-color="#2C2C2C" stop-opacity="1"/>
</linearGradient>
<radialGradient cx="100%" cy="100%" fx="100%" fy="100%" r="100.000000%" id="rpgradient5_0">
<stop offset="0.729166666666667" stop-color="#2C2C2C" stop-opacity="1"/>
<stop offset="0.864583333333333" stop-color="#FFFFFF" stop-opacity="1"/><stop offset="1" stop-color="#2C2C2C" stop-opacity="1"/>
</radialGradient>
<radialGradient cx="100%" cy="0%" fx="100%" fy="0%" r="100.000000%" id="rpgradient5_1">
<stop offset="0.729166666666667" stop-color="#2C2C2C" stop-opacity="1"/>
<stop offset="0.864583333333333" stop-color="#FFFFFF" stop-opacity="1"/><stop offset="1" stop-color="#2C2C2C" stop-opacity="1"/>
</radialGradient>
<linearGradient x1="0.000000%" y1="50.000000%" x2="100.000000%" y2="50.000000%" id="lgradient10_0_0">
<stop offset="0" stop-color="#2C2C2C" stop-opacity="1"/>
<stop offset="0.5" stop-color="#FFFFFF" stop-opacity="1"/>
<stop offset="1" stop-color="#2C2C2C" stop-opacity="1"/>
</linearGradient>
<linearGradient x1="50.000000%" y1="0.000000%" x2="50.000000%" y2="100.000000%" id="lgradient10_0_1">
<stop offset="0" stop-color="#2C2C2C" stop-opacity="1"/>
<stop offset="0.5" stop-color="#FFFFFF" stop-opacity="1"/>
<stop offset="1" stop-color="#2C2C2C" stop-opacity="1"/>
</linearGradient>
<linearGradient x1="50.000000%" y1="0.000000%" x2="50.000000%" y2="100.000000%" id="lgradient19_0_0">
<stop offset="0" stop-color="#2C2C2C" stop-opacity="1"/>
<stop offset="0.5" stop-color="#FFFFFF" stop-opacity="1"/>
<stop offset="1" stop-color="#2C2C2C" stop-opacity="1"/>
</linearGradient>
<radialGradient cx="50.000000%" cy="50.000000%" r="50.000000%" fx="50.000000%" fy="50.000000%" id="rgradient19_0_1">
<stop offset="0%" stop-color="#FFFFFF" stop-opacity="1"/>
<stop offset="100%" stop-color="#2C2C2C" stop-opacity="1"/>
</radialGradient>
<linearGradient x1="50.000000%" y1="0.000000%" x2="50.000000%" y2="100.000000%" id="lgradient19_0_2">
<stop offset="0" stop-color="#2C2C2C" stop-opacity="1"/>
<stop offset="0.5" stop-color="#FFFFFF" stop-opacity="1"/>
<stop offset="1" stop-color="#2C2C2C" stop-opacity="1"/>
</linearGradient>
</defs>
<rect shape-type="roundRectangle" rx="20" ry="20" x="629" y="144" width="209" height="79" fill="url(#lgradient1)" stroke="#FFFFFF" stroke-width="1.00"/>
<polygon shape-type="polygon" points="1053,-8 1054,-8 1055,-11" fill="#FFFFFF" stroke="#000000" stroke-width="1.00"/>
<g shape-type="group">
<rect shape-type="roundRectangle" rx="20" ry="20" x="1180" y="304" width="83" height="42" fill="url(#lgradient3_0)" stroke="#FFFFFF" stroke-width="1.00"/>
<rect shape-type="roundRectangle" rx="20" ry="20" x="1032" y="281" width="182" height="65" fill="url(#lgradient3_1)" stroke="#FFFFFF" stroke-width="1.00"/>
<polygon shape-type="polygon" points="1156,282 1157,282 1213,303 1214,260" stroke="#000000" stroke-width="1.00"/>
<rect shape-type="rectangle" x="1204" y="294" width="9" height="54" stroke="#FFFFFF" stroke-width="1.00"/>
</g>
<g shape-type="group">
<rect shape-type="roundRectangle" rx="20" ry="20" x="1103" y="635" width="82" height="42" fill="url(#lgradient4_0)" stroke="#FFFFFF" stroke-width="1.00"/>
<rect shape-type="roundRectangle" rx="20" ry="20" x="954" y="613" width="182" height="64" fill="url(#lgradient4_1)" stroke="#FFFFFF" stroke-width="1.00"/>
<polygon shape-type="polygon" points="1079,612 1080,612 1136,634 1137,590" stroke="#000000" stroke-width="1.00"/>
<rect shape-type="rectangle" x="1127" y="625" width="8" height="54" stroke="#FFFFFF" stroke-width="1.00"/>
</g>
<g shape-type="group">
<path shape-type="roundpipe" d="M 686,641 A 144,22 0 0,0 542,663 L 581,663 A 105,17 0 0,1 686,646 z" fill="url(#rpgradient5_0)" stroke="#000000" stroke-width="1.00"/>
<path shape-type="roundpipe" d="M 687,685 A 144,22 0 0,1 543,663 L 582,663 A 105,17 0 0,0 687,680 z" fill="url(#rpgradient5_1)" stroke="#000000" stroke-width="1.00"/>
</g>
<rect shape-type="rectangle" x="668" y="133" width="6" height="100" stroke="#FFFFFF" stroke-width="1.00"/>
<rect shape-type="rectangle" x="801" y="134" width="6" height="100" stroke="#FFFFFF" stroke-width="1.00"/>
<rect shape-type="rectangle" x="1056" y="287" width="9" height="52" fill="#FFFFFF" stroke="#000000" stroke-width="1.00"/>
<rect shape-type="rectangle" x="982" y="620" width="9" height="52" fill="#FFFFFF" stroke="#000000" stroke-width="1.00"/>
<g shape-type="group">
<g shape-type="group">
<rect shape-type="roundRectangle" rx="20" ry="20" x="255" y="305" width="25" height="78" fill="url(#lgradient10_0_0)" stroke="#FFFFFF" stroke-width="1.00"/>
<rect shape-type="roundRectangle" rx="20" ry="20" x="172" y="254" width="209" height="86" fill="url(#lgradient10_0_1)" stroke="#FFFFFF" stroke-width="1.00"/>
</g>
<rect shape-type="rectangle" x="340" y="264" width="8" height="65" fill="#FFFFFF" stroke="#000000" stroke-width="1.00"/>
<rect shape-type="rectangle" x="266" y="345" width="8" height="30" fill="#FFFFFF" stroke="#000000" stroke-width="1.00"/>
</g>
<line shape-type="limitline" x1="628" y1="181" x2="560" y2="181" fill="#FFFFFF" stroke="#FFFFFF" stroke-width="3.00"/>
<line shape-type="limitline" x1="561" y1="181" x2="561" y2="477" fill="#FFFFFF" stroke="#FFFFFF" stroke-width="3.00"/>
<line shape-type="limitline" x1="1118" y1="381" x2="1118" y2="345" fill="#FFFFFF" stroke="#FFFFFF" stroke-width="3.00"/>
<line shape-type="limitline" x1="727" y1="381" x2="1116" y2="381" fill="#FFFFFF" stroke="#FFFFFF" stroke-width="3.00"/>
<line shape-type="limitline" x1="728" y1="222" x2="728" y2="380" fill="#FFFFFF" stroke="#FFFFFF" stroke-width="3.00"/>
<line shape-type="limitline" x1="705" y1="125" x2="705" y2="143" fill="#FFFFFF" stroke="#FFFFFF" stroke-width="3.00"/>
<line shape-type="limitline" x1="763" y1="124" x2="704" y2="124" fill="#FFFFFF" stroke="#FFFFFF" stroke-width="3.00"/>
<line shape-type="limitline" x1="763" y1="123" x2="763" y2="143" fill="#FFFFFF" stroke="#FFFFFF" stroke-width="3.00"/>
<g shape-type="group">
<g shape-type="group">
<rect shape-type="roundRectangle" rx="20" ry="20" x="431" y="605" width="170" height="74" fill="url(#lgradient19_0_0)" stroke="#FFFFFF" stroke-width="1.00"/>
<ellipse shape-type="ellipse" cx="728" cy="661" rx="14" ry="25" fill="url(#rgradient19_0_1)" stroke="#000000" stroke-width="1.00"/>
<rect shape-type="rectangle" x="683" y="636" width="46" height="51" fill="url(#lgradient19_0_2)" stroke="#000000" stroke-width="1.00"/>
<rect shape-type="rectangle" x="679" y="632" width="7" height="56" fill="#808080" stroke="#000000" stroke-width="1.00"/>
</g>
<rect shape-type="rectangle" x="453" y="616" width="8" height="52" fill="#FFFFFF" stroke="#000000" stroke-width="1.00"/>
</g>
<line shape-type="limitline" x1="1080" y1="262" x2="1080" y2="281" fill="#FFFFFF" stroke="#FFFFFF" stroke-width="3.00"/>
<line shape-type="limitline" x1="1131" y1="262" x2="1080" y2="262" fill="#FFFFFF" stroke="#FFFFFF" stroke-width="3.00"/>
<line shape-type="limitline" x1="1131" y1="282" x2="1131" y2="262" fill="#FFFFFF" stroke="#FFFFFF" stroke-width="3.00"/>
<line shape-type="limitline" x1="730" y1="109" x2="730" y2="124" fill="#FFFFFF" stroke="#FFFFFF" stroke-width="3.00"/>
<line shape-type="limitline" x1="729" y1="109" x2="1106" y2="109" fill="#FFFFFF" stroke="#FFFFFF" stroke-width="3.00"/>
<line shape-type="limitline" x1="1106" y1="262" x2="1106" y2="108" fill="#FFFFFF" stroke="#FFFFFF" stroke-width="3.00"/>
<line shape-type="limitline" x1="351" y1="254" x2="351" y2="187" fill="#FFFFFF" stroke="#FFFFFF" stroke-width="3.00"/>
<line shape-type="limitline" x1="351" y1="21" x2="22" y2="21" fill="#FFFFFF" stroke="#FFFFFF" stroke-width="3.00"/>
<line shape-type="limitline" x1="351" y1="178" x2="351" y2="21" fill="#FFFFFF" stroke="#FFFFFF" stroke-width="3.00"/>
<line shape-type="limitline" x1="351" y1="79" x2="530" y2="79" fill="#FFFFFF" stroke="#FFFFFF" stroke-width="3.00"/>
<line shape-type="limitline" x1="531" y1="483" x2="531" y2="79" fill="#FFFFFF" stroke="#FFFFFF" stroke-width="3.00"/>
<line shape-type="limitline" x1="530" y1="484" x2="1039" y2="484" fill="#FFFFFF" stroke="#FFFFFF" stroke-width="3.00"/>
<line shape-type="limitline" x1="561" y1="606" x2="561" y2="488" fill="#FFFFFF" stroke="#FFFFFF" stroke-width="3.00"/>
<line shape-type="limitline" x1="714" y1="638" x2="714" y2="579" fill="#FFFFFF" stroke="#FFFFFF" stroke-width="3.00"/>
<line shape-type="limitline" x1="713" y1="579" x2="1091" y2="579" fill="#FFFFFF" stroke="#FFFFFF" stroke-width="3.00"/>
<line shape-type="limitline" x1="1041" y1="578" x2="1041" y2="483" fill="#FFFFFF" stroke="#FFFFFF" stroke-width="3.00"/>
<line shape-type="limitline" x1="1067" y1="614" x2="1067" y2="579" fill="#FFFFFF" stroke="#FFFFFF" stroke-width="3.00"/>
<line shape-type="limitline" x1="1022" y1="615" x2="1022" y2="580" fill="#FFFFFF" stroke="#FFFFFF" stroke-width="3.00"/>
<line shape-type="limitline" x1="1091" y1="589" x2="1091" y2="571" fill="#FFFFFF" stroke="#FFFFFF" stroke-width="3.00"/>
<line shape-type="limitline" x1="711" y1="711" x2="711" y2="688" fill="#FFFFFF" stroke="#FFFFFF" stroke-width="3.00"/>
<line shape-type="limitline" x1="710" y1="711" x2="1074" y2="711" fill="#FFFFFF" stroke="#FFFFFF" stroke-width="3.00"/>
<line shape-type="limitline" x1="1074" y1="675" x2="1074" y2="710" fill="#FFFFFF" stroke="#FFFFFF" stroke-width="3.00"/>
<line shape-type="limitline" x1="810" y1="479" x2="810" y2="381" fill="#FFFFFF" stroke="#FFFFFF" stroke-width="3.00"/>
<line shape-type="limitline" x1="810" y1="490" x2="810" y2="572" fill="#FFFFFF" stroke="#FFFFFF" stroke-width="3.00"/>
<line shape-type="limitline" x1="810" y1="582" x2="810" y2="703" fill="#FFFFFF" stroke="#FFFFFF" stroke-width="3.00"/>
<line shape-type="limitline" x1="810" y1="716" x2="810" y2="782" fill="#FFFFFF" stroke="#FFFFFF" stroke-width="3.00"/>
<line shape-type="limitline" x1="1440" y1="782" x2="809" y2="782" fill="#FFFFFF" stroke="#FFFFFF" stroke-width="3.00"/>
<line shape-type="limitline" x1="504" y1="182" x2="95" y2="182" fill="#FFFFFF" stroke="#FFFFFF" stroke-width="3.00"/>
<line shape-type="limitline" x1="504" y1="83" x2="504" y2="182" fill="#FFFFFF" stroke="#FFFFFF" stroke-width="3.00"/>
<line shape-type="limitline" x1="504" y1="74" x2="504" y2="63" fill="#FFFFFF" stroke="#FFFFFF" stroke-width="3.00"/>
<line shape-type="limitline" x1="503" y1="63" x2="901" y2="63" fill="#FFFFFF" stroke="#FFFFFF" stroke-width="3.00"/>
<line shape-type="limitline" x1="902" y1="106" x2="902" y2="64" fill="#FFFFFF" stroke="#FFFFFF" stroke-width="3.00"/>
<line shape-type="limitline" x1="902" y1="184" x2="902" y2="114" fill="#FFFFFF" stroke="#FFFFFF" stroke-width="3.00"/>
<line shape-type="limitline" x1="839" y1="184" x2="901" y2="184" fill="#FFFFFF" stroke="#FFFFFF" stroke-width="3.00"/>
<line shape-type="limitline" x1="442" y1="79" x2="442" y2="19" fill="#FFFFFF" stroke="#FFFFFF" stroke-width="3.00"/>
<line shape-type="limitline" x1="1286" y1="21" x2="443" y2="21" fill="#FFFFFF" stroke="#FFFFFF" stroke-width="3.00"/>
<line shape-type="limitline" x1="1286" y1="21" x2="1286" y2="157" fill="#FFFFFF" stroke="#FFFFFF" stroke-width="3.00"/>
<line shape-type="limitline" x1="1286" y1="159" x2="1107" y2="159" fill="#FFFFFF" stroke="#FFFFFF" stroke-width="3.00"/>
<line shape-type="limitline" x1="227" y1="101" x2="24" y2="101" fill="#FFFFFF" stroke="#FFFFFF" stroke-width="3.00"/>
<line shape-type="limitline" x1="227" y1="178" x2="227" y2="102" fill="#FFFFFF" stroke="#FFFFFF" stroke-width="3.00"/>
<line shape-type="limitline" x1="226" y1="255" x2="226" y2="184" fill="#FFFFFF" stroke="#FFFFFF" stroke-width="3.00"/>
<line shape-type="limitline" x1="140" y1="55" x2="27" y2="55" fill="#FFFFFF" stroke="#FFFFFF" stroke-width="3.00"/>
<line shape-type="limitline" x1="140" y1="101" x2="140" y2="55" fill="#FFFFFF" stroke="#FFFFFF" stroke-width="3.00"/>
<g shape-type="group">
<polygon shape-type="parallel" points="182,123 173,123 176,101 185,101 182,123" fill="#FFFFFF" stroke="#FFFFFF" stroke-width="3.00"/>
<rect shape-type="rectangle" x="164" y="98" width="37" height="7" fill="#FFFFFF" stroke="#FFFFFF" stroke-width="3.00"/>
</g>
<line shape-type="line" x1="170" y1="143" x2="178" y2="120" fill="#FFFFFF" stroke="#FFFFFF" stroke-width="3.00"/>
<line shape-type="limitline" x1="170" y1="143" x2="27" y2="143" fill="#FFFFFF" stroke="#FFFFFF" stroke-width="3.00"/>
<g shape-type="group">
<polygon shape-type="parallel" points="109,163 100,163 104,141 113,141 109,163" fill="#FFFFFF" stroke="#FFFFFF" stroke-width="3.00"/>
<rect shape-type="rectangle" x="91" y="138" width="37" height="7" fill="#FFFFFF" stroke="#FFFFFF" stroke-width="3.00"/>
</g>
<line shape-type="line" x1="104" y1="159" x2="96" y2="181" fill="#FFFFFF" stroke="#FFFFFF" stroke-width="3.00"/>
<line shape-type="limitline" x1="142" y1="121" x2="24" y2="121" fill="#FFFFFF" stroke="#FFFFFF" stroke-width="3.00"/>
<line shape-type="limitline" x1="142" y1="143" x2="142" y2="121" fill="#FFFFFF" stroke="#FFFFFF" stroke-width="3.00"/>
<line shape-type="limitline" x1="469" y1="681" x2="469" y2="730" fill="#FFFFFF" stroke="#FFFFFF" stroke-width="3.00"/>
<line shape-type="limitline" x1="468" y1="731" x2="196" y2="731" fill="#FFFFFF" stroke="#FFFFFF" stroke-width="3.00"/>
<line shape-type="limitline" x1="465" y1="582" x2="34" y2="582" fill="#FFFFFF" stroke="#FFFFFF" stroke-width="3.00"/>
<line shape-type="limitline" x1="465" y1="608" x2="465" y2="582" fill="#FFFFFF" stroke="#FFFFFF" stroke-width="3.00"/>
<line shape-type="limitline" x1="244" y1="361" x2="255" y2="361" fill="#FFFFFF" stroke="#FFFFFF" stroke-width="3.00"/>
<line shape-type="limitline" x1="245" y1="577" x2="245" y2="361" fill="#FFFFFF" stroke="#FFFFFF" stroke-width="3.00"/>
<line shape-type="limitline" x1="244" y1="731" x2="244" y2="588" fill="#FFFFFF" stroke="#FFFFFF" stroke-width="3.00"/>
<g shape-type="group">
<polygon shape-type="trapezium" points="205,749 169,749 187,729 187,729 205,749" fill="#FF0000" stroke="#FFFFFF" stroke-width="2.00"/>
<rect shape-type="rectangle" x="176" y="713" width="8" height="22" fill="#FF0000" stroke="#FFFFFF" stroke-width="2.00"/>
<ellipse shape-type="ellipse" cx="187" cy="734" rx="12" ry="11" fill="#FF0000" stroke="#FFFFFF" stroke-width="2.00"/>
</g>
<line shape-type="limitline" x1="180" y1="696" x2="26" y2="696" fill="#FFFFFF" stroke="#FFFFFF" stroke-width="3.00"/>
<line shape-type="limitline" x1="180" y1="715" x2="180" y2="696" fill="#FFFFFF" stroke="#FFFFFF" stroke-width="3.00"/>
<polygon shape-type="trapezium" points="567,453 555,453 561,437 561,437 567,453" fill="#FFFFFF" stroke="#FFFFFF" stroke-width="2.00"/>
<polygon shape-type="trapezium" points="357,220 345,220 351,204 351,204 357,220" fill="#FFFFFF" stroke="#FFFFFF" stroke-width="2.00"/>
<polygon shape-type="trapezium" points="356,58 344,58 350,42 350,42 356,58" fill="#FFFFFF" stroke="#FFFFFF" stroke-width="2.00"/>
<polygon shape-type="trapezium" points="815,453 803,453 809,437 809,437 815,453" fill="#FFFFFF" stroke="#FFFFFF" stroke-width="2.00"/>
<polygon shape-type="trapezium" points="1124,371 1112,371 1118,355 1118,355 1124,371" fill="#FFFFFF" stroke="#FFFFFF" stroke-width="2.00"/>
<polygon shape-type="trapezium" points="250,481 238,481 244,497 244,497 250,481" fill="#FFFFFF" stroke="#FFFFFF" stroke-width="2.00"/>
<polygon shape-type="trapezium" points="733,307 721,307 727,323 727,323 733,307" fill="#FFFFFF" stroke="#FFFFFF" stroke-width="2.00"/>
<polygon shape-type="trapezium" points="1111,233 1099,233 1105,217 1105,217 1111,233" fill="#FFFFFF" stroke="#FFFFFF" stroke-width="2.00"/>
<polygon shape-type="trapezium" points="1112,140 1100,140 1106,124 1106,124 1112,140" fill="#FFFFFF" stroke="#FFFFFF" stroke-width="2.00"/>
<polygon shape-type="trapezium" points="1166,153 1166,165 1180,159 1180,159 1166,153" fill="#FFFFFF" stroke="#FFFFFF" stroke-width="2.00"/>
<polygon shape-type="trapezium" points="863,573 863,585 849,579 849,579 863,573" fill="#FFFFFF" stroke="#FFFFFF" stroke-width="2.00"/>
<polygon shape-type="trapezium" points="1046,533 1034,533 1040,517 1040,517 1046,533" fill="#FFFFFF" stroke="#FFFFFF" stroke-width="2.00"/>
<polygon shape-type="trapezium" points="857,776 857,788 843,782 843,782 857,776" fill="#FFFFFF" stroke="#FFFFFF" stroke-width="2.00"/>
<polygon shape-type="trapezium" points="775,706 775,718 789,712 789,712 775,706" fill="#FFFFFF" stroke="#FFFFFF" stroke-width="2.00"/>
<polygon shape-type="trapezium" points="327,725 327,737 313,731 313,731 327,725" fill="#FFFFFF" stroke="#FFFFFF" stroke-width="2.00"/>
<g shape-type="group">
<line shape-type="limitline" x1="1240" y1="274" x2="1239" y2="303" fill="#FFFFFF" stroke="#FF0000" stroke-width="2.00"/>
<line shape-type="limitline" x1="1486" y1="274" x2="1240" y2="275" fill="#FFFFFF" stroke="#FF0000" stroke-width="2.00"/>
</g>
<g shape-type="group">
<line shape-type="limitline" x1="1166" y1="604" x2="1165" y2="633" fill="#FFFFFF" stroke="#FF0000" stroke-width="2.00"/>
<line shape-type="limitline" x1="1413" y1="604" x2="1166" y2="605" fill="#FFFFFF" stroke="#FF0000" stroke-width="2.00"/>
</g>
<g shape-type="group">
<line shape-type="limitline" x1="1242" y1="376" x2="1241" y2="347" fill="#FFFFFF" stroke="#00FF00" stroke-width="2.00"/>
<line shape-type="limitline" x1="1488" y1="377" x2="1242" y2="376" fill="#FFFFFF" stroke="#00FF00" stroke-width="2.00"/>
</g>
<g shape-type="group">
<line shape-type="limitline" x1="1168" y1="705" x2="1167" y2="676" fill="#FFFFFF" stroke="#00FF00" stroke-width="2.00"/>
<line shape-type="limitline" x1="1414" y1="706" x2="1168" y2="705" fill="#FFFFFF" stroke="#00FF00" stroke-width="2.00"/>
</g>
<line shape-type="limitline" x1="172" y1="281" x2="26" y2="281" fill="#FFFFFF" stroke="#FF0000" stroke-width="2.00"/>
<line shape-type="limitline" x1="173" y1="300" x2="27" y2="300" fill="#FFFFFF" stroke="#00FF00" stroke-width="2.00"/>
<g shape-type="group">
<polygon shape-type="trapezium" points="33,63 33,48 50,55 50,55 33,63" fill="#808080" stroke="#FFFFFF" stroke-width="2.00"/>
<rect shape-type="rectangle" x="10" y="52" width="23" height="6" fill="#808080" stroke="#FFFFFF" stroke-width="2.00"/>
</g>
<g shape-type="group">
<polygon shape-type="trapezium" points="34,108 34,94 51,101 51,101 34,108" fill="#808080" stroke="#FFFFFF" stroke-width="2.00"/>
<rect shape-type="rectangle" x="11" y="98" width="23" height="6" fill="#808080" stroke="#FFFFFF" stroke-width="2.00"/>
</g>
<g shape-type="group">
<polygon shape-type="trapezium" points="35,128 35,114 52,121 52,121 35,128" fill="#808080" stroke="#FFFFFF" stroke-width="2.00"/>
<rect shape-type="rectangle" x="13" y="118" width="22" height="6" fill="#808080" stroke="#FFFFFF" stroke-width="2.00"/>
</g>
<g shape-type="group">
<polygon shape-type="trapezium" points="35,149 35,135 52,142 52,142 35,149" fill="#808080" stroke="#FFFFFF" stroke-width="2.00"/>
<rect shape-type="rectangle" x="13" y="139" width="22" height="6" fill="#808080" stroke="#FFFFFF" stroke-width="2.00"/>
</g>
<g shape-type="group">
<polygon shape-type="trapezium" points="22,27 22,13 5,20 5,20 22,27" fill="#808080" stroke="#FFFFFF" stroke-width="2.00"/>
<rect shape-type="rectangle" x="22" y="17" width="23" height="6" fill="#808080" stroke="#FFFFFF" stroke-width="2.00"/>
</g>
<g shape-type="group">
<polygon shape-type="trapezium" points="38,288 38,274 55,281 55,281 38,288" fill="#808080" stroke="#FFFFFF" stroke-width="2.00"/>
<rect shape-type="rectangle" x="15" y="277" width="23" height="6" fill="#808080" stroke="#FFFFFF" stroke-width="2.00"/>
</g>
<g shape-type="group">
<polygon shape-type="trapezium" points="36,588 36,574 54,581 54,581 36,588" fill="#808080" stroke="#FFFFFF" stroke-width="2.00"/>
<rect shape-type="rectangle" x="14" y="577" width="22" height="6" fill="#808080" stroke="#FFFFFF" stroke-width="2.00"/>
</g>
<g shape-type="group">
<polygon shape-type="trapezium" points="27,309 27,295 10,302 10,302 27,309" fill="#808080" stroke="#FFFFFF" stroke-width="2.00"/>
<rect shape-type="rectangle" x="27" y="299" width="23" height="6" fill="#808080" stroke="#FFFFFF" stroke-width="2.00"/>
</g>
<g shape-type="group">
<polygon shape-type="trapezium" points="27,703 27,689 10,696 10,696 27,703" fill="#808080" stroke="#FFFFFF" stroke-width="2.00"/>
<rect shape-type="rectangle" x="27" y="693" width="23" height="6" fill="#808080" stroke="#FFFFFF" stroke-width="2.00"/>
</g>
<g shape-type="group">
<polygon shape-type="trapezium" points="1464,281 1464,267 1447,274 1447,274 1464,281" fill="#808080" stroke="#FFFFFF" stroke-width="2.00"/>
<rect shape-type="rectangle" x="1464" y="271" width="24" height="6" fill="#808080" stroke="#FFFFFF" stroke-width="2.00"/>
</g>
<g shape-type="group">
<polygon shape-type="trapezium" points="1426,611 1426,596 1409,603 1409,603 1426,611" fill="#808080" stroke="#FFFFFF" stroke-width="2.00"/>
<rect shape-type="rectangle" x="1426" y="600" width="23" height="6" fill="#808080" stroke="#FFFFFF" stroke-width="2.00"/>
</g>
<g shape-type="group">
<polygon shape-type="trapezium" points="1410,715 1410,701 1428,708 1428,708 1410,715" fill="#808080" stroke="#FFFFFF" stroke-width="2.00"/>
<rect shape-type="rectangle" x="1388" y="704" width="22" height="7" fill="#808080" stroke="#FFFFFF" stroke-width="2.00"/>
</g>
<g shape-type="group">
<polygon shape-type="trapezium" points="1444,788 1444,774 1427,781 1427,781 1444,788" fill="#808080" stroke="#FFFFFF" stroke-width="2.00"/>
<rect shape-type="rectangle" x="1444" y="777" width="23" height="6" fill="#808080" stroke="#FFFFFF" stroke-width="2.00"/>
</g>
<g shape-type="group">
<polygon shape-type="trapezium" points="1481,385 1481,370 1498,377 1498,377 1481,385" fill="#808080" stroke="#FFFFFF" stroke-width="2.00"/>
<rect shape-type="rectangle" x="1458" y="374" width="23" height="6" fill="#808080" stroke="#FFFFFF" stroke-width="2.00"/>
</g>
<line shape-type="limitline" x1="268" y1="426" x2="268" y2="382" fill="#FFFFFF" stroke="#00FF00" stroke-width="2.00"/>
<line shape-type="limitline" x1="896" y1="714" x2="896" y2="780" fill="#FFFFFF" stroke="#FFFFFF" stroke-width="3.00"/>
<polygon shape-type="trapezium" points="902,755 890,755 896,739 896,739 902,755" fill="#FFFFFF" stroke="#FFFFFF" stroke-width="2.00"/>
<rect shape-type="rectangle" x="229" y="224" width="46" height="12" fill="#FFFFFF" stroke="#FFFFFF" stroke-width="2.00"/>
<rect shape-type="rectangle" x="298" y="224" width="46" height="12" fill="#FFFFFF" stroke="#FFFFFF" stroke-width="2.00"/>
<text font-family="宋体" text-anchor="start" fill="#FFFFFF" shape-type="text" id="" font-size="12.500000" x="25" y="12">外部管廊</text>
<text font-family="宋体" text-anchor="start" fill="#FFFFFF" shape-type="text" id="" font-size="12.500000" x="46" y="116">产品气压缩</text>
<text font-family="宋体" text-anchor="start" fill="#FFFFFF" shape-type="text" id="" font-size="12.500000" x="20" y="48">原料欲处理</text>
<text font-family="宋体" text-anchor="start" fill="#FFFFFF" shape-type="text" id="" font-size="12.500000" x="23" y="163">丁烷异构</text>
<text font-family="宋体" text-anchor="start" fill="#FFFFFF" shape-type="text" id="" font-size="12.500000" x="23" y="267">蒸汽</text>
<text font-family="宋体" text-anchor="start" fill="#FFFFFF" shape-type="text" id="" font-size="12.500000" x="21" y="321">低压凝液</text>
<text font-family="宋体" text-anchor="start" fill="#FFFFFF" shape-type="text" id="" font-size="12.500000" x="13" y="681">冲洗油罐</text>
<text font-family="宋体" text-anchor="start" fill="#FFFFFF" shape-type="text" id="" font-size="12.500000" x="10" y="562">火炬总管</text>
<text font-family="宋体" text-anchor="start" fill="#FFFFFF" shape-type="text" id="" font-size="12.500000" x="180" y="710">30P9001</text>
<text font-family="宋体" text-anchor="start" fill="#FFFFFF" shape-type="text" id="" font-size="12.500000" x="259" y="657">30LI90003</text>
<rect shape-type="rectangle" x="269" y="660" width="51" height="15" fill="#FFFFFF" stroke="#FFFFFF" stroke-width="2.00"/>
<text font-family="宋体" text-anchor="start" fill="#FFFFFF" shape-type="text" id="" font-size="12.500000" x="745" y="666">E9001</text>
<rect shape-type="rectangle" x="426" y="549" width="51" height="15" fill="#FFFFFF" stroke="#FFFFFF" stroke-width="2.00"/>
<rect shape-type="rectangle" x="506" y="549" width="51" height="15" fill="#FFFFFF" stroke="#FFFFFF" stroke-width="2.00"/>
<rect shape-type="rectangle" x="298" y="367" width="51" height="15" fill="#FFFFFF" stroke="#FFFFFF" stroke-width="2.00"/>
<rect shape-type="rectangle" x="420" y="284" width="51" height="15" fill="#FFFFFF" stroke="#FFFFFF" stroke-width="2.00"/>
<text font-family="宋体" text-anchor="start" fill="#FFFFFF" shape-type="text" id="" font-size="12.500000" x="416" y="545">30TI90002</text>
<text font-family="宋体" text-anchor="start" fill="#FFFFFF" shape-type="text" id="" font-size="12.500000" x="490" y="545">30PI90002</text>
<text font-family="宋体" text-anchor="start" fill="#FFFFFF" shape-type="text" id="" font-size="12.500000" x="407" y="281">30LI90001</text>
<text font-family="宋体" text-anchor="start" fill="#FFFFFF" shape-type="text" id="" font-size="12.500000" x="287" y="363">30LDI90002</text>
<text font-family="宋体" text-anchor="start" fill="#FFFFFF" shape-type="text" id="" font-size="9.500000" x="224" y="217">30PI90001</text>
<text font-family="宋体" text-anchor="start" fill="#FFFFFF" shape-type="text" id="" font-size="9.500000" x="284" y="216">30TI90001</text>
<text font-family="宋体" text-anchor="start" fill="#FFFFFF" shape-type="text" id="" font-size="12.500000" x="949" y="123">30TI90002</text>
<rect shape-type="rectangle" x="960" y="126" width="51" height="15" fill="#FFFFFF" stroke="#FFFFFF" stroke-width="2.00"/>
<rect shape-type="rectangle" x="960" y="162" width="51" height="15" fill="#FFFFFF" stroke="#FFFFFF" stroke-width="2.00"/>
<text font-family="宋体" text-anchor="start" fill="#FFFFFF" shape-type="text" id="" font-size="12.500000" x="951" y="159">30PI90005</text>
<rect shape-type="rectangle" x="925" y="312" width="51" height="15" fill="#FFFFFF" stroke="#FFFFFF" stroke-width="2.00"/>
<text font-family="宋体" text-anchor="start" fill="#FFFFFF" shape-type="text" id="" font-size="12.500000" x="911" y="307">30LI90005</text>
<rect shape-type="rectangle" x="1126" y="123" width="51" height="15" fill="#FFFFFF" stroke="#FFFFFF" stroke-width="2.00"/>
<rect shape-type="rectangle" x="1123" y="205" width="59" height="24" stroke="#00FFFF" stroke-width="2.00"/>
<rect shape-type="rectangle" x="1126" y="210" width="51" height="15" fill="#FFFFFF" stroke="#FFFFFF" stroke-width="2.00"/>
<text font-family="宋体" text-anchor="start" fill="#FFFFFF" shape-type="text" id="" font-size="12.500000" x="1118" y="200">30TI90004</text>
<text font-family="宋体" text-anchor="start" fill="#FFFFFF" shape-type="text" id="" font-size="12.500000" x="1113" y="119">30PI90004</text>
<rect shape-type="rectangle" x="1100" y="594" width="51" height="15" fill="#FFFFFF" stroke="#FFFFFF" stroke-width="2.00"/>
<text font-family="宋体" text-anchor="start" fill="#FFFFFF" shape-type="text" id="" font-size="12.500000" x="1091" y="588">30TI90003</text>
<rect shape-type="rectangle" x="854" y="668" width="51" height="15" fill="#FFFFFF" stroke="#FFFFFF" stroke-width="2.00"/>
<rect shape-type="rectangle" x="940" y="753" width="51" height="15" fill="#FFFFFF" stroke="#FFFFFF" stroke-width="2.00"/>
<rect shape-type="rectangle" x="1098" y="750" width="51" height="15" fill="#FFFFFF" stroke="#FFFFFF" stroke-width="2.00"/>
<rect shape-type="rectangle" x="1213" y="760" width="51" height="15" fill="#FFFFFF" stroke="#FFFFFF" stroke-width="2.00"/>
<rect shape-type="rectangle" x="932" y="542" width="51" height="15" fill="#FFFFFF" stroke="#FFFFFF" stroke-width="2.00"/>
<text font-family="宋体" text-anchor="start" fill="#FFFFFF" shape-type="text" id="" font-size="12.500000" x="916" y="538">30PI90003</text>
<text font-family="宋体" text-anchor="start" fill="#FFFFFF" shape-type="text" id="" font-size="12.500000" x="841" y="664">30LI90004</text>
<text font-family="宋体" text-anchor="start" fill="#FFFFFF" shape-type="text" id="" font-size="12.500000" x="924" y="747">30TI31657</text>
<text font-family="宋体" text-anchor="start" fill="#FFFFFF" shape-type="text" id="" font-size="12.500000" x="1083" y="746">30FI31657</text>
<text font-family="宋体" text-anchor="start" fill="#FFFFFF" shape-type="text" id="" font-size="12.500000" x="1195" y="758">30FQI31657</text>
<text font-family="宋体" text-anchor="start" fill="#FFFFFF" shape-type="text" id="" font-size="12.500000" x="1463" y="258">LS</text>
<text font-family="宋体" text-anchor="start" fill="#FFFFFF" shape-type="text" id="" font-size="12.500000" x="1411" y="365">低压凝液</text>
<text font-family="宋体" text-anchor="start" fill="#FFFFFF" shape-type="text" id="" font-size="12.500000" x="1428" y="593">LS</text>
<text font-family="宋体" text-anchor="start" fill="#FFFFFF" shape-type="text" id="" font-size="12.500000" x="1352" y="696">低压凝液</text>
<text font-family="宋体" text-anchor="start" fill="#FFFFFF" shape-type="text" id="" font-size="12.500000" x="1429" y="768">甲醇</text>
<g shape-type="group">
<line shape-type="line" x1="267" y1="426" x2="254" y2="418" fill="#FFFFFF" stroke="#FFFFFF" stroke-width="3.00"/>
<line shape-type="line" x1="268" y1="426" x2="281" y2="418" fill="#FFFFFF" stroke="#FFFFFF" stroke-width="3.00"/>
<line shape-type="limitline" x1="268" y1="426" x2="267" y2="442" fill="#FFFFFF" stroke="#FFFFFF" stroke-width="3.00"/>
</g>
<text font-family="宋体" text-anchor="start" fill="#FFFFFF" shape-type="text" id="" font-size="12.500000" x="348" y="238">℃</text>
<text font-family="宋体" text-anchor="start" fill="#FFFFFF" shape-type="text" id="" font-size="12.500000" x="475" y="298">%</text>
<text font-family="宋体" text-anchor="start" fill="#FFFFFF" shape-type="text" id="" font-size="12.500000" x="352" y="381">%</text>
<text font-family="宋体" text-anchor="start" fill="#FFFFFF" shape-type="text" id="" font-size="12.500000" x="473" y="563">℃</text>
<text font-family="宋体" text-anchor="start" fill="#FFFFFF" shape-type="text" id="" font-size="11.750000" x="563" y="562">MPaG</text>
<text font-family="宋体" text-anchor="start" fill="#FFFFFF" shape-type="text" id="" font-size="11.750000" x="1008" y="176">MPaG</text>
<text font-family="宋体" text-anchor="start" fill="#FFFFFF" shape-type="text" id="" font-size="12.500000" x="1009" y="140">℃</text>
<text font-family="宋体" text-anchor="start" fill="#FFFFFF" shape-type="text" id="" font-size="12.500000" x="980" y="323">%</text>
<text font-family="宋体" text-anchor="start" fill="#FFFFFF" shape-type="text" id="" font-size="11.750000" x="1173" y="134">MPaG</text>
<text font-family="宋体" text-anchor="start" fill="#FFFFFF" shape-type="text" id="" font-size="12.500000" x="1180" y="224">℃</text>
<text font-family="宋体" text-anchor="start" fill="#FFFFFF" shape-type="text" id="" font-size="12.500000" x="1147" y="608">℃</text>
<text font-family="宋体" text-anchor="start" fill="#FFFFFF" shape-type="text" id="" font-size="11.750000" x="980" y="553">MPaG</text>
<text font-family="宋体" text-anchor="start" fill="#FFFFFF" shape-type="text" id="" font-size="12.500000" x="907" y="682">%</text>
<text font-family="宋体" text-anchor="start" fill="#FFFFFF" shape-type="text" id="" font-size="12.500000" x="987" y="767">℃</text>
<text font-family="宋体" text-anchor="start" fill="#FFFFFF" shape-type="text" id="" font-size="12.500000" x="1150" y="763">Kg/h</text>
<text font-family="宋体" text-anchor="start" fill="#FFFFFF" shape-type="text" id="" font-size="12.500000" x="1265" y="772">T</text>
<text font-family="宋体" text-anchor="start" fill="#FFFFFF" shape-type="text" id="" font-size="12.500000" x="321" y="673">%</text>
<text font-family="宋体" text-anchor="start" fill="#FFFFFF" shape-type="text" id="" font-size="11.750000" x="276" y="234">MPaG</text>
<line shape-type="limitline" x1="250" y1="254" x2="250" y2="235" fill="#FFFFFF" stroke="#FFFFFF" stroke-width="2.00" stroke-dasharray="5 10"/>
<line shape-type="limitline" x1="321" y1="256" x2="321" y2="236" fill="#FFFFFF" stroke="#FFFFFF" stroke-width="2.00" stroke-dasharray="5 10"/>
<line shape-type="limitline" x1="301" y1="373" x2="280" y2="373" fill="#FFFFFF" stroke="#FFFFFF" stroke-width="2.00" stroke-dasharray="5 10"/>
<line shape-type="limitline" x1="422" y1="293" x2="381" y2="293" fill="#FFFFFF" stroke="#FFFFFF" stroke-width="2.00" stroke-dasharray="5 10"/>
<line shape-type="limitline" x1="471" y1="604" x2="471" y2="562" fill="#FFFFFF" stroke="#FFFFFF" stroke-width="2.00" stroke-dasharray="5 10"/>
<line shape-type="limitline" x1="535" y1="606" x2="535" y2="563" fill="#FFFFFF" stroke="#FFFFFF" stroke-width="2.00" stroke-dasharray="5 10"/>
<line shape-type="limitline" x1="441" y1="670" x2="316" y2="670" fill="#FFFFFF" stroke="#FFFFFF" stroke-width="2.00" stroke-dasharray="5 10"/>
<line shape-type="limitline" x1="961" y1="577" x2="961" y2="556" fill="#FFFFFF" stroke="#FFFFFF" stroke-width="2.00" stroke-dasharray="5 10"/>
<line shape-type="limitline" x1="958" y1="671" x2="905" y2="671" fill="#FFFFFF" stroke="#FFFFFF" stroke-width="2.00" stroke-dasharray="5 10"/>
<line shape-type="limitline" x1="1033" y1="322" x2="976" y2="322" fill="#FFFFFF" stroke="#FFFFFF" stroke-width="2.00" stroke-dasharray="5 10"/>
<line shape-type="limitline" x1="961" y1="133" x2="902" y2="133" fill="#FFFFFF" stroke="#FFFFFF" stroke-width="2.00" stroke-dasharray="5 10"/>
<line shape-type="limitline" x1="963" y1="170" x2="902" y2="170" fill="#FFFFFF" stroke="#FFFFFF" stroke-width="2.00" stroke-dasharray="5 10"/>
<line shape-type="limitline" x1="1129" y1="128" x2="1107" y2="128" fill="#FFFFFF" stroke="#FFFFFF" stroke-width="2.00" stroke-dasharray="5 10"/>
<line shape-type="limitline" x1="1147" y1="283" x2="1147" y2="229" fill="#FFFFFF" stroke="#FFFFFF" stroke-width="2.00" stroke-dasharray="5 10"/>
<line shape-type="limitline" x1="967" y1="781" x2="967" y2="768" fill="#FFFFFF" stroke="#FFFFFF" stroke-width="2.00" stroke-dasharray="5 10"/>
<line shape-type="limitline" x1="1125" y1="782" x2="1125" y2="763" fill="#FFFFFF" stroke="#FFFFFF" stroke-width="2.00" stroke-dasharray="5 10"/>
<line shape-type="limitline" x1="1118" y1="636" x2="1118" y2="608" fill="#FFFFFF" stroke="#FFFFFF" stroke-width="2.00" stroke-dasharray="5 10"/>
<text font-family="宋体" text-anchor="start" fill="#000000" shape-type="text" id="" font-size="12.500000" x="253" y="296">V9001</text>
<text font-family="宋体" text-anchor="start" fill="#000000" shape-type="text" id="" font-size="12.500000" x="721" y="188">E9003</text>
<text font-family="宋体" text-anchor="start" fill="#000000" shape-type="text" id="" font-size="12.500000" x="1093" y="319">E9004</text>
<text font-family="宋体" text-anchor="start" fill="#000000" shape-type="text" id="" font-size="12.500000" x="499" y="647">V9002</text>
<text font-family="宋体" text-anchor="start" fill="#000000" shape-type="text" id="" font-size="12.500000" x="1023" y="652">E9002</text>
<text font-family="Arial" text-anchor="start" fill="#000000" shape-type="realdata" id="QH_TQ_30PI90001.DACA" font-size="12.500000" x="191" y="235">XXXXXXXXXX</text>
<text font-family="Arial" text-anchor="start" fill="#000000" shape-type="realdata" id="QH_TQ_30TI90001.DACA" font-size="12.500000" x="259" y="235">XXXXXXXXXX</text>
<text font-family="Arial" text-anchor="start" fill="#000000" shape-type="realdata" id="QH_TQ_30LI90001.DACA" font-size="12.500000" x="387" y="296">XXXXXXXXXX</text>
<text font-family="Arial" text-anchor="start" fill="#000000" shape-type="realdata" id="QH_TQ_30LDI90002.DACA" font-size="12.500000" x="265" y="380">XXXXXXXXXX</text>
<text font-family="Arial" text-anchor="start" fill="#000000" shape-type="realdata" id="QH_TQ_30LI90003.DACA" font-size="12.500000" x="238" y="673">XXXXXXXXXX</text>
<text font-family="Arial" text-anchor="start" fill="#000000" shape-type="realdata" id="QH_TQ_30TI90002.DACA" font-size="12.500000" x="402" y="561">XXXXXXXXXX</text>
<text font-family="Arial" text-anchor="start" fill="#000000" shape-type="realdata" id="QH_TQ_30PI90002.DACA" font-size="12.500000" x="473" y="562">XXXXXXXXXX</text>
<text font-family="Arial" text-anchor="start" fill="#000000" shape-type="realdata" id="QH_TQ_30TI90002.DACA" font-size="12.500000" x="934" y="139">XXXXXXXXXX</text>
<text font-family="Arial" text-anchor="start" fill="#000000" shape-type="realdata" id="QH_TQ_30PI90005.DACA" font-size="12.500000" x="923" y="175">XXXXXXXXXX</text>
<text font-family="Arial" text-anchor="start" fill="#000000" shape-type="realdata" id="QH_TQ_30PI90004.DACA" font-size="12.500000" x="1091" y="136">XXXXXXXXXX</text>
<text font-family="Arial" text-anchor="start" fill="#000000" shape-type="realdata" id="QH_TQ_30TI90004.DACA" font-size="12.500000" x="1102" y="222">XXXXXXXXXX</text>
<text font-family="Arial" text-anchor="start" fill="#000000" shape-type="realdata" id="QH_TQ_30LI90005.DACA" font-size="12.500000" x="894" y="325">XXXXXXXXXX</text>
<text font-family="Arial" text-anchor="start" fill="#000000" shape-type="realdata" id="QH_TQ_30PI90003.DACA" font-size="12.500000" x="895" y="555">XXXXXXXXXX</text>
<text font-family="Arial" text-anchor="start" fill="#000000" shape-type="realdata" id="QH_TQ_30LI90004.DACA" font-size="12.500000" x="823" y="681">XXXXXXXXXX</text>
<text font-family="Arial" text-anchor="start" fill="#000000" shape-type="realdata" id="QH_TQ_30TI90003.DACA" font-size="12.500000" x="1077" y="607">XXXXXXXXXX</text>
<text font-family="Arial" text-anchor="start" fill="#000000" shape-type="realdata" id="QH_TQ_30TI31657.DACA" font-size="12.500000" x="903" y="766">XXXXXXXXXX</text>
<text font-family="Arial" text-anchor="start" fill="#000000" shape-type="realdata" id="QH_TQ_30FI31657.DACA" font-size="12.500000" x="1085" y="763">XXXXXXXXXX</text>
<text font-family="Arial" text-anchor="start" fill="#000000" shape-type="realdata" id="QH_TQ_30FQI31657.PVAlgo" font-size="12.500000" x="1208" y="772">XXXXXXXXXX</text>
<a xlink:href="..\脱氢总图一.svg">
<g shape-type="button">
<rect fill="#C0C0C0" stroke-width="0.3" stroke="#FFFFFF" x="1356" y="788" width="51" height="29" shape-type="buttonrect"/>
<text font-family="宋体" text-anchor="middle" dominant-baseline="middle" fill="#000000" font-size="13.500000" x="1381" y="808" shape-type="buttontext">返回</text>
</g>
</a>
</svg>