<svg xmlns="http://www.w3.org/2000/svg" xmlns:xlink="http://www.w3.org/1999/xlink" version="1.1" style="background-color:#7DB6C1" width="1062" height="669" viewbox="0 0 1062 669"><defs>
<linearGradient x1="0.000000%" y1="50.000000%" x2="100.000000%" y2="50.000000%" id="lgradient1">
<stop offset="0" stop-color="#2C2C2C" stop-opacity="1"/>
<stop offset="0.5" stop-color="#FFFFFF" stop-opacity="1"/>
<stop offset="1" stop-color="#2C2C2C" stop-opacity="1"/>
</linearGradient>
<linearGradient x1="0.000000%" y1="50.000000%" x2="100.000000%" y2="50.000000%" id="lgradient2">
<stop offset="0" stop-color="#2C2C2C" stop-opacity="1"/>
<stop offset="0.5" stop-color="#FFFFFF" stop-opacity="1"/>
<stop offset="1" stop-color="#2C2C2C" stop-opacity="1"/>
</linearGradient>
<linearGradient x1="0.000000%" y1="50.000000%" x2="100.000000%" y2="50.000000%" id="lgradient3">
<stop offset="0" stop-color="#2C2C2C" stop-opacity="1"/>
<stop offset="0.5" stop-color="#FFFFFF" stop-opacity="1"/>
<stop offset="1" stop-color="#2C2C2C" stop-opacity="1"/>
</linearGradient>
</defs>
<rect shape-type="roundRectangle" rx="20" ry="20" x="561" y="247" width="73" height="127" fill="url(#lgradient1)" stroke="#FFFFFF" stroke-width="1.00"/>
<rect shape-type="roundRectangle" rx="20" ry="20" x="224" y="349" width="64" height="108" fill="url(#lgradient2)" stroke="#FFFFFF" stroke-width="1.00"/>
<rect shape-type="roundRectangle" rx="20" ry="20" x="1023" y="225" width="73" height="231" fill="url(#lgradient3)" stroke="#FFFFFF" stroke-width="1.00"/>
<g shape-type="group">
<polygon shape-type="trapezium" points="1135,633 1100,633 1118,616 1118,616 1135,633" fill="#00FF00" stroke="#FFFFFF" stroke-width="1.00"/>
<rect shape-type="rectangle" x="1117" y="605" width="22" height="9" fill="#00FF00" stroke="#FFFFFF" stroke-width="1.00"/>
<ellipse shape-type="ellipse" cx="1117" cy="617" rx="13" ry="13" fill="#00FF00" stroke="#FFFFFF" stroke-width="1.00"/>
</g>
<g shape-type="group">
<polygon shape-type="trapezium" points="1136,707 1101,707 1119,690 1119,690 1136,707" fill="#FF0000" stroke="#FFFFFF" stroke-width="1.00"/>
<rect shape-type="rectangle" x="1118" y="679" width="22" height="9" fill="#FF0000" stroke="#FFFFFF" stroke-width="1.00"/>
<ellipse shape-type="ellipse" cx="1118" cy="691" rx="13" ry="13" fill="#FF0000" stroke="#FFFFFF" stroke-width="1.00"/>
</g>
<rect shape-type="rectangle" x="672" y="600" width="49" height="43" stroke="#FFFF00" stroke-width="1.00"/>
<g shape-type="group">
<polygon shape-type="trapezium" points="711,635 676,635 694,617 694,617 711,635" fill="#00FF00" stroke="#FFFFFF" stroke-width="1.00"/>
<rect shape-type="rectangle" x="693" y="606" width="22" height="9" fill="#00FF00" stroke="#FFFFFF" stroke-width="1.00"/>
<ellipse shape-type="ellipse" cx="694" cy="618" rx="13" ry="13" fill="#00FF00" stroke="#FFFFFF" stroke-width="1.00"/>
</g>
<rect shape-type="rectangle" x="672" y="669" width="49" height="43" stroke="#FFFF00" stroke-width="1.00"/>
<g shape-type="group">
<polygon shape-type="trapezium" points="714,704 678,704 696,687 696,687 714,704" fill="#FF0000" stroke="#FFFFFF" stroke-width="1.00"/>
<rect shape-type="rectangle" x="695" y="676" width="22" height="9" fill="#FF0000" stroke="#FFFFFF" stroke-width="1.00"/>
<ellipse shape-type="ellipse" cx="696" cy="688" rx="13" ry="13" fill="#FF0000" stroke="#FFFFFF" stroke-width="1.00"/>
</g>
<g shape-type="group">
<polygon shape-type="trapezium" points="775,304 775,319 790,312 790,312 775,304" fill="#00FF00" stroke="#FFFFFF" stroke-width="1.00"/>
<polygon shape-type="trapezium" points="803,304 803,319 789,312 789,312 803,304" fill="#00FF00" stroke="#FFFFFF" stroke-width="1.00"/>
<line shape-type="limitline" x1="789" y1="311" x2="788" y2="295" fill="#00FF00" stroke="#FFFFFF" stroke-width="1.00"/>
<path shape-type="chord" d="M 807,300 A 21,19 0 0,0 773,300 z" fill="#FFFFFF" stroke="#FFFFFF" stroke-width="1.00"/>
</g>
<line shape-type="limitline" x1="253" y1="663" x2="253" y2="457" fill="#FFFFFF" stroke="#00FF00" stroke-width="1.00"/>
<line shape-type="limitline" x1="253" y1="662" x2="509" y2="662" fill="#FFFFFF" stroke="#00FF00" stroke-width="1.00"/>
<line shape-type="limitline" x1="509" y1="348" x2="509" y2="662" fill="#FFFFFF" stroke="#00FF00" stroke-width="1.00"/>
<line shape-type="limitline" x1="564" y1="347" x2="509" y2="347" fill="#FFFFFF" stroke="#00FF00" stroke-width="1.00"/>
<g shape-type="group">
<polygon shape-type="trapezium" points="382,654 382,669 397,662 397,662 382,654" fill="#FF0000" stroke="#FFFFFF" stroke-width="1.00"/>
<polygon shape-type="trapezium" points="410,654 410,669 396,662 396,662 410,654" fill="#FF0000" stroke="#FFFFFF" stroke-width="1.00"/>
<line shape-type="limitline" x1="396" y1="661" x2="395" y2="645" fill="#FFFFFF" stroke="#FFFFFF" stroke-width="1.00"/>
<path shape-type="chord" d="M 414,652 A 20,23 0 0,0 382,652 z" fill="#FFFFFF" stroke="#FFFFFF" stroke-width="1.00"/>
</g>
<line shape-type="limitline" x1="560" y1="316" x2="143" y2="316" fill="#FFFFFF" stroke="#00FF00" stroke-width="1.00"/>
<line shape-type="limitline" x1="561" y1="282" x2="144" y2="282" fill="#FFFFFF" stroke="#00FF00" stroke-width="1.00"/>
<line shape-type="limitline" x1="596" y1="699" x2="596" y2="374" fill="#FFFFFF" stroke="#00FF00" stroke-width="1.00"/>
<line shape-type="limitline" x1="673" y1="699" x2="595" y2="699" fill="#FFFFFF" stroke="#00FF00" stroke-width="1.00"/>
<line shape-type="limitline" x1="672" y1="620" x2="597" y2="620" fill="#FFFFFF" stroke="#00FF00" stroke-width="1.00"/>
<line shape-type="limitline" x1="749" y1="622" x2="721" y2="622" fill="#FFFFFF" stroke="#00FF00" stroke-width="1.00"/>
<line shape-type="limitline" x1="750" y1="621" x2="750" y2="551" fill="#FFFFFF" stroke="#00FF00" stroke-width="1.00"/>
<line shape-type="limitline" x1="1480" y1="550" x2="750" y2="550" fill="#FFFFFF" stroke="#00FF00" stroke-width="1.00"/>
<line shape-type="limitline" x1="786" y1="681" x2="720" y2="681" fill="#FFFFFF" stroke="#00FF00" stroke-width="1.00"/>
<line shape-type="limitline" x1="786" y1="550" x2="786" y2="681" fill="#FFFFFF" stroke="#00FF00" stroke-width="1.00"/>
<line shape-type="limitline" x1="1057" y1="695" x2="1057" y2="457" fill="#FFFFFF" stroke="#00FF00" stroke-width="1.00"/>
<line shape-type="limitline" x1="1106" y1="695" x2="1057" y2="695" fill="#FFFFFF" stroke="#00FF00" stroke-width="1.00"/>
<line shape-type="limitline" x1="1099" y1="612" x2="1058" y2="612" fill="#FFFFFF" stroke="#00FF00" stroke-width="1.00"/>
<line shape-type="limitline" x1="995" y1="311" x2="633" y2="311" fill="#FFFFFF" stroke="#00FF00" stroke-width="1.00"/>
<line shape-type="limitline" x1="996" y1="483" x2="996" y2="311" fill="#FFFFFF" stroke="#00FF00" stroke-width="1.00"/>
<line shape-type="limitline" x1="1054" y1="482" x2="996" y2="482" fill="#FFFFFF" stroke="#00FF00" stroke-width="1.00"/>
<line shape-type="limitline" x1="1062" y1="482" x2="1197" y2="482" fill="#FFFFFF" stroke="#00FF00" stroke-width="1.00"/>
<line shape-type="limitline" x1="1252" y1="608" x2="1140" y2="608" fill="#FFFFFF" stroke="#00FF00" stroke-width="1.00"/>
<line shape-type="limitline" x1="1252" y1="551" x2="1252" y2="608" fill="#FFFFFF" stroke="#00FF00" stroke-width="1.00"/>
<line shape-type="limitline" x1="1139" y1="682" x2="1180" y2="682" fill="#FFFFFF" stroke="#00FF00" stroke-width="1.00"/>
<line shape-type="limitline" x1="1180" y1="611" x2="1180" y2="681" fill="#FFFFFF" stroke="#00FF00" stroke-width="1.00"/>
<line shape-type="limitline" x1="1197" y1="608" x2="1197" y2="555" fill="#FFFFFF" stroke="#00FF00" stroke-width="1.00"/>
<line shape-type="limitline" x1="1197" y1="546" x2="1197" y2="482" fill="#FFFFFF" stroke="#00FF00" stroke-width="1.00"/>
<line shape-type="limitline" x1="1361" y1="400" x2="1096" y2="400" fill="#FFFFFF" stroke="#00FF00" stroke-width="1.00"/>
<line shape-type="limitline" x1="1362" y1="286" x2="1097" y2="286" fill="#FFFFFF" stroke="#00FF00" stroke-width="1.00"/>
<line shape-type="limitline" x1="845" y1="682" x2="845" y2="552" fill="#FFFFFF" stroke="#00FF00" stroke-width="1.00"/>
<line shape-type="limitline" x1="845" y1="685" x2="1004" y2="685" fill="#FFFFFF" stroke="#00FF00" stroke-width="1.00"/>
<line shape-type="limitline" x1="1003" y1="550" x2="1003" y2="685" fill="#FFFFFF" stroke="#00FF00" stroke-width="1.00"/>
<polygon shape-type="trapezium" points="550,342 550,352 563,347 563,347 550,342" fill="#00FF00" stroke="#00FF00" stroke-width="1.00"/>
<polygon shape-type="trapezium" points="547,310 547,320 560,315 560,315 547,310" fill="#00FF00" stroke="#00FF00" stroke-width="1.00"/>
<polygon shape-type="trapezium" points="547,276 547,286 560,281 560,281 547,276" fill="#00FF00" stroke="#00FF00" stroke-width="1.00"/>
<polygon shape-type="trapezium" points="1087,607 1087,617 1100,612 1100,612 1087,607" fill="#00FF00" stroke="#00FF00" stroke-width="1.00"/>
<polygon shape-type="trapezium" points="1091,690 1091,700 1104,695 1104,695 1091,690" fill="#00FF00" stroke="#00FF00" stroke-width="1.00"/>
<polygon shape-type="trapezium" points="840,673 850,673 845,685 845,685 840,673" fill="#00FF00" stroke="#00FF00" stroke-width="1.00"/>
<polygon shape-type="trapezium" points="1247,563 1257,563 1252,551 1252,551 1247,563" fill="#00FF00" stroke="#00FF00" stroke-width="1.00"/>
<line shape-type="limitline" x1="1139" y1="482" x2="1139" y2="400" fill="#FFFFFF" stroke="#00FF00" stroke-width="1.00"/>
<polygon shape-type="trapezium" points="1133,468 1143,468 1138,480 1138,480 1133,468" fill="#00FF00" stroke="#00FF00" stroke-width="1.00"/>
<polygon shape-type="trapezium" points="1108,405 1108,395 1095,400 1095,400 1108,405" fill="#00FF00" stroke="#00FF00" stroke-width="1.00"/>
<polygon shape-type="trapezium" points="1109,291 1109,281 1096,286 1096,286 1109,291" fill="#00FF00" stroke="#00FF00" stroke-width="1.00"/>
<polygon shape-type="trapezium" points="998,563 1008,563 1003,551 1003,551 998,563" fill="#00FF00" stroke="#00FF00" stroke-width="1.00"/>
<line shape-type="limitline" x1="210" y1="380" x2="172" y2="380" fill="#FFFFFF" stroke="#00FF00" stroke-width="1.00"/>
<line shape-type="limitline" x1="210" y1="405" x2="172" y2="405" fill="#FFFFFF" stroke="#00FF00" stroke-width="1.00"/>
<polygon shape-type="trapezium" points="199,386 199,376 212,381 212,381 199,386" fill="#00FF00" stroke="#00FF00" stroke-width="1.00"/>
<polygon shape-type="trapezium" points="197,410 197,400 210,405 210,405 197,410" fill="#00FF00" stroke="#00FF00" stroke-width="1.00"/>
<g shape-type="group">
<polygon shape-type="trapezium" points="370,273 370,288 384,281 384,281 370,273" fill="#00FF00" stroke="#FFFFFF" stroke-width="1.00"/>
<polygon shape-type="trapezium" points="398,273 398,288 383,281 383,281 398,273" fill="#00FF00" stroke="#FFFFFF" stroke-width="1.00"/>
<line shape-type="limitline" x1="383" y1="279" x2="382" y2="264" fill="#00FF00" stroke="#FFFFFF" stroke-width="1.00"/>
<path shape-type="chord" d="M 402,269 A 21,19 0 0,0 368,269 z" fill="#FFFFFF" stroke="#FFFFFF" stroke-width="1.00"/>
</g>
<line shape-type="limitline" x1="1055" y1="156" x2="1055" y2="225" fill="#FFFFFF" stroke="#FFFFFF" stroke-width="1.00"/>
<line shape-type="limitline" x1="1369" y1="155" x2="1055" y2="155" fill="#FFFFFF" stroke="#FFFFFF" stroke-width="1.00"/>
<line shape-type="limitline" x1="1369" y1="75" x2="1369" y2="154" fill="#FFFFFF" stroke="#FFFFFF" stroke-width="1.00"/>
<g shape-type="group">
<polygon shape-type="trapezium" points="140,273 140,288 154,281 154,281 140,273" fill="#808080" stroke="#FFFFFF" stroke-width="1.00"/>
<rect shape-type="rectangle" x="113" y="275" width="27" height="10" fill="#808080" stroke="#FFFFFF" stroke-width="1.00"/>
</g>
<g shape-type="group">
<polygon shape-type="trapezium" points="136,309 136,322 151,316 151,316 136,309" fill="#808080" stroke="#FFFFFF" stroke-width="1.00"/>
<rect shape-type="rectangle" x="110" y="311" width="26" height="9" fill="#808080" stroke="#FFFFFF" stroke-width="1.00"/>
</g>
<g shape-type="group">
<polygon shape-type="trapezium" points="158,372 158,387 173,380 173,380 158,372" fill="#808080" stroke="#FFFFFF" stroke-width="1.00"/>
<rect shape-type="rectangle" x="132" y="374" width="26" height="11" fill="#808080" stroke="#FFFFFF" stroke-width="1.00"/>
</g>
<g shape-type="group">
<polygon shape-type="trapezium" points="158,397 158,412 173,405 173,405 158,397" fill="#808080" stroke="#FFFFFF" stroke-width="1.00"/>
<rect shape-type="rectangle" x="132" y="399" width="26" height="11" fill="#808080" stroke="#FFFFFF" stroke-width="1.00"/>
</g>
<g shape-type="group">
<polygon shape-type="trapezium" points="1473,544 1473,559 1488,552 1488,552 1473,544" fill="#808080" stroke="#FFFFFF" stroke-width="1.00"/>
<rect shape-type="rectangle" x="1446" y="546" width="27" height="10" fill="#808080" stroke="#FFFFFF" stroke-width="1.00"/>
</g>
<g shape-type="group">
<polygon shape-type="trapezium" points="1371,393 1371,407 1357,400 1357,400 1371,393" fill="#808080" stroke="#FFFFFF" stroke-width="1.00"/>
<rect shape-type="rectangle" x="1371" y="395" width="27" height="10" fill="#808080" stroke="#FFFFFF" stroke-width="1.00"/>
</g>
<g shape-type="group">
<polygon shape-type="trapezium" points="1369,280 1369,294 1355,287 1355,287 1369,280" fill="#808080" stroke="#FFFFFF" stroke-width="1.00"/>
<rect shape-type="rectangle" x="1369" y="282" width="27" height="10" fill="#808080" stroke="#FFFFFF" stroke-width="1.00"/>
</g>
<line shape-type="limitline" x1="1368" y1="213" x2="1055" y2="213" fill="#FFFFFF" stroke="#FFFF00" stroke-width="1.00"/>
<g shape-type="group">
<polygon shape-type="trapezium" points="1370,207 1370,221 1356,214 1356,214 1370,207" fill="#808080" stroke="#FFFFFF" stroke-width="1.00"/>
<rect shape-type="rectangle" x="1370" y="210" width="27" height="9" fill="#808080" stroke="#FFFFFF" stroke-width="1.00"/>
</g>
<line shape-type="limitline" x1="595" y1="73" x2="595" y2="249" fill="#FFFFFF" stroke="#FF0000" stroke-width="1.00"/>
<line shape-type="limitline" x1="739" y1="73" x2="595" y2="73" fill="#FFFFFF" stroke="#FF0000" stroke-width="1.00"/>
<line shape-type="limitline" x1="259" y1="348" x2="259" y2="110" fill="#FFFFFF" stroke="#FF0000" stroke-width="1.00"/>
<line shape-type="limitline" x1="595" y1="109" x2="259" y2="109" fill="#FFFFFF" stroke="#FF0000" stroke-width="1.00"/>
<line shape-type="limitline" x1="609" y1="111" x2="609" y2="249" fill="#FFFFFF" stroke="#FF0000" stroke-width="1.00"/>
<line shape-type="limitline" x1="741" y1="110" x2="609" y2="110" fill="#FFFFFF" stroke="#FF0000" stroke-width="1.00"/>
<g shape-type="group">
<polygon shape-type="trapezium" points="755,67 755,81 770,74 770,74 755,67" fill="#808080" stroke="#FFFFFF" stroke-width="1.00"/>
<rect shape-type="rectangle" x="729" y="69" width="26" height="10" fill="#808080" stroke="#FFFFFF" stroke-width="1.00"/>
</g>
<g shape-type="group">
<polygon shape-type="trapezium" points="757,104 757,118 772,111 772,111 757,104" fill="#808080" stroke="#FFFFFF" stroke-width="1.00"/>
<rect shape-type="rectangle" x="731" y="106" width="26" height="10" fill="#808080" stroke="#FFFFFF" stroke-width="1.00"/>
</g>
<polygon shape-type="trapezium" points="584,101 584,116 594,109 594,109 584,101" fill="#FF0000" stroke="#FF0000" stroke-width="1.00"/>
<text font-family="宋体" text-anchor="start" fill="#FFFFFF" shape-type="text" id="" font-size="12.500000" x="25" y="284">备用脱盐水</text>
<text font-family="宋体" text-anchor="start" fill="#FFFFFF" shape-type="text" id="" font-size="12.500000" x="16" y="319">混合脱氢装置</text>
<text font-family="宋体" text-anchor="start" fill="#FFFFFF" shape-type="text" id="" font-size="12.500000" x="35" y="383">混合脱氢装置</text>
<text font-family="宋体" text-anchor="start" fill="#FFFFFF" shape-type="text" id="" font-size="12.500000" x="35" y="412">丁烯异构装置</text>
<text font-family="宋体" text-anchor="start" fill="#FFFFFF" shape-type="text" id="" font-size="12.500000" x="777" y="75">去低压蒸气管网</text>
<text font-family="宋体" text-anchor="start" fill="#FFFFFF" shape-type="text" id="" font-size="12.500000" x="771" y="118">蒸汽排空</text>
<text font-family="宋体" text-anchor="start" fill="#FFFFFF" shape-type="text" id="" font-size="12.500000" x="1384" y="292">来自凝液伴热回水</text>
<text font-family="宋体" text-anchor="start" fill="#FFFFFF" shape-type="text" id="" font-size="12.500000" x="1356" y="388">来自醚化及醚解装置</text>
<text font-family="宋体" text-anchor="start" fill="#FFFFFF" shape-type="text" id="" font-size="12.500000" x="1444" y="534">去界外</text>
<polygon shape-type="trapezium" points="1070,219 1070,208 1056,213 1056,213 1070,219" fill="#FFFF00" stroke="#FFFF00" stroke-width="1.00"/>
<g shape-type="group">
<polygon shape-type="trapezium" points="1250,146 1250,161 1265,154 1265,154 1250,146" fill="#FF0000" stroke="#FFFFFF" stroke-width="1.00"/>
<polygon shape-type="trapezium" points="1278,146 1278,161 1264,154 1264,154 1278,146" fill="#FF0000" stroke="#FFFFFF" stroke-width="1.00"/>
<line shape-type="limitline" x1="1264" y1="152" x2="1263" y2="137" fill="#FFFFFF" stroke="#FFFFFF" stroke-width="1.00"/>
<path shape-type="chord" d="M 1282,143 A 20,22 0 0,0 1250,143 z" fill="#FFFFFF" stroke="#FFFFFF" stroke-width="1.00"/>
</g>
<g shape-type="group">
<polygon shape-type="trapezium" points="1251,205 1251,220 1266,213 1266,213 1251,205" fill="#00FF00" stroke="#FFFFFF" stroke-width="1.00"/>
<polygon shape-type="trapezium" points="1279,205 1279,220 1265,213 1265,213 1279,205" fill="#00FF00" stroke="#FFFFFF" stroke-width="1.00"/>
<line shape-type="limitline" x1="1265" y1="212" x2="1264" y2="196" fill="#00FF00" stroke="#FFFFFF" stroke-width="1.00"/>
<path shape-type="chord" d="M 1284,201 A 22,20 0 0,0 1249,201 z" fill="#FFFFFF" stroke="#FFFFFF" stroke-width="1.00"/>
</g>
<g shape-type="group">
<rect shape-type="rectangle" x="443" y="162" width="52" height="14" fill="#FFFFFF" stroke="#FFFFFF" stroke-width="1.00"/>
<rect shape-type="rectangle" x="443" y="177" width="52" height="16" fill="#FFFFFF" stroke="#FFFFFF" stroke-width="1.00"/>
</g>
<g shape-type="group">
<rect shape-type="rectangle" x="653" y="343" width="52" height="16" fill="#FFFFFF" stroke="#FFFFFF" stroke-width="1.00"/>
<rect shape-type="rectangle" x="653" y="360" width="52" height="15" fill="#FFFFFF" stroke="#FFFFFF" stroke-width="1.00"/>
</g>
<g shape-type="group">
<rect shape-type="rectangle" x="853" y="461" width="52" height="14" fill="#FFFFFF" stroke="#FFFFFF" stroke-width="1.00"/>
<rect shape-type="rectangle" x="853" y="476" width="52" height="16" fill="#FFFFFF" stroke="#FFFFFF" stroke-width="1.00"/>
</g>
<g shape-type="group">
<rect shape-type="rectangle" x="1134" y="326" width="52" height="16" fill="#FFFFFF" stroke="#FFFFFF" stroke-width="1.00"/>
<rect shape-type="rectangle" x="1134" y="343" width="52" height="16" fill="#FFFFFF" stroke="#FFFFFF" stroke-width="1.00"/>
</g>
<g shape-type="group">
<rect shape-type="rectangle" x="983" y="167" width="52" height="16" fill="#FFFFFF" stroke="#FFFFFF" stroke-width="1.00"/>
<rect shape-type="rectangle" x="983" y="184" width="52" height="15" fill="#FFFFFF" stroke="#FFFFFF" stroke-width="1.00"/>
</g>
<g shape-type="group">
<polygon shape-type="trapezium" points="933,543 933,558 948,551 948,551 933,543" fill="#FF0000" stroke="#FFFFFF" stroke-width="1.00"/>
<polygon shape-type="trapezium" points="961,543 961,558 947,551 947,551 961,543" fill="#FF0000" stroke="#FFFFFF" stroke-width="1.00"/>
<line shape-type="limitline" x1="947" y1="549" x2="946" y2="534" fill="#FFFFFF" stroke="#FFFFFF" stroke-width="1.00"/>
<path shape-type="chord" d="M 965,540 A 20,23 0 0,0 933,540 z" fill="#FFFFFF" stroke="#FFFFFF" stroke-width="1.00"/>
</g>
<rect shape-type="rectangle" x="366" y="538" width="52" height="15" fill="#FFFFFF" stroke="#FFFFFF" stroke-width="1.00"/>
<rect shape-type="rectangle" x="366" y="554" width="52" height="16" fill="#FFFFFF" stroke="#FFFFFF" stroke-width="1.00"/>
<rect shape-type="rectangle" x="152" y="516" width="52" height="16" fill="#FFFFFF" stroke="#FFFFFF" stroke-width="1.00"/>
<rect shape-type="rectangle" x="663" y="487" width="52" height="16" fill="#FFFFFF" stroke="#FFFFFF" stroke-width="1.00"/>
<rect shape-type="rectangle" x="759" y="487" width="52" height="16" fill="#FFFFFF" stroke="#FFFFFF" stroke-width="1.00"/>
<rect shape-type="rectangle" x="939" y="281" width="52" height="16" fill="#FFFFFF" stroke="#FFFFFF" stroke-width="1.00"/>
<rect shape-type="rectangle" x="656" y="275" width="52" height="16" fill="#FFFFFF" stroke="#FFFFFF" stroke-width="1.00"/>
<rect shape-type="rectangle" x="1254" y="518" width="52" height="16" fill="#FFFFFF" stroke="#FFFFFF" stroke-width="1.00"/>
<rect shape-type="rectangle" x="1346" y="517" width="52" height="16" fill="#FFFFFF" stroke="#FFFFFF" stroke-width="1.00"/>
<rect shape-type="rectangle" x="1277" y="630" width="52" height="16" fill="#FFFFFF" stroke="#FFFFFF" stroke-width="1.00"/>
<rect shape-type="rectangle" x="1280" y="677" width="52" height="16" fill="#FFFFFF" stroke="#FFFFFF" stroke-width="1.00"/>
<text font-family="宋体" text-anchor="start" fill="#FFFFFF" shape-type="text" id="" font-size="12.500000" x="428" y="157">00PIC82002</text>
<text font-family="宋体" text-anchor="start" fill="#FFFFFF" shape-type="text" id="" font-size="12.500000" x="143" y="510">00TI82001</text>
<rect shape-type="rectangle" x="313" y="380" width="52" height="16" fill="#FFFFFF" stroke="#FFFFFF" stroke-width="1.00"/>
<text font-family="宋体" text-anchor="start" fill="#FFFFFF" shape-type="text" id="" font-size="12.500000" x="353" y="532">00LIC82001</text>
<text font-family="宋体" text-anchor="start" fill="#FFFFFF" shape-type="text" id="" font-size="12.500000" x="300" y="375">00PI82001</text>
<text font-family="宋体" text-anchor="start" fill="#FFFFFF" shape-type="text" id="" font-size="12.500000" x="644" y="270">00TI82002</text>
<text font-family="宋体" text-anchor="start" fill="#FFFFFF" shape-type="text" id="" font-size="12.500000" x="641" y="338">00LIC82002</text>
<text font-family="宋体" text-anchor="start" fill="#FFFFFF" shape-type="text" id="" font-size="12.500000" x="930" y="276">00TI81001</text>
<text font-family="宋体" text-anchor="start" fill="#FFFFFF" shape-type="text" id="" font-size="12.500000" x="966" y="161">00PIC81001</text>
<text font-family="宋体" text-anchor="start" fill="#FFFFFF" shape-type="text" id="" font-size="12.500000" x="1117" y="321">00LIC81001</text>
<text font-family="宋体" text-anchor="start" fill="#FFFFFF" shape-type="text" id="" font-size="12.500000" x="645" y="483">00P8201A_SC</text>
<text font-family="宋体" text-anchor="start" fill="#FFFFFF" shape-type="text" id="" font-size="12.500000" x="745" y="483">00P8201B_SC</text>
<text font-family="宋体" text-anchor="start" fill="#FFFFFF" shape-type="text" id="" font-size="12.500000" x="836" y="454">00FIC81001</text>
<text font-family="宋体" text-anchor="start" fill="#FFFFFF" shape-type="text" id="" font-size="12.500000" x="1241" y="513">00FI01103</text>
<text font-family="宋体" text-anchor="start" fill="#FFFFFF" shape-type="text" id="" font-size="12.500000" x="1329" y="509">00FQI01103</text>
<text font-family="宋体" text-anchor="start" fill="#FFFFFF" shape-type="text" id="" font-size="12.500000" x="1255" y="626">00P8101A_SC</text>
<text font-family="宋体" text-anchor="start" fill="#FFFFFF" shape-type="text" id="" font-size="12.500000" x="1265" y="671">00P8101B_SC</text>
<text font-family="宋体" text-anchor="start" fill="#FFFFFF" shape-type="text" id="" font-size="12.500000" x="347" y="258">00PV82002</text>
<text font-family="宋体" text-anchor="start" fill="#FFFFFF" shape-type="text" id="" font-size="12.500000" x="750" y="285">00HIC82002</text>
<text font-family="宋体" text-anchor="start" fill="#FFFFFF" shape-type="text" id="" font-size="12.500000" x="365" y="634">00LV82001</text>
<g shape-type="group">
<polygon shape-type="trapezium" points="893,678 893,693 907,686 907,686 893,678" fill="#00FF00" stroke="#FFFFFF" stroke-width="1.00"/>
<polygon shape-type="trapezium" points="921,678 921,693 906,686 906,686 921,678" fill="#00FF00" stroke="#FFFFFF" stroke-width="1.00"/>
<line shape-type="limitline" x1="906" y1="684" x2="905" y2="669" fill="#00FF00" stroke="#FFFFFF" stroke-width="1.00"/>
<path shape-type="chord" d="M 924,674 A 21,19 0 0,0 890,674 z" fill="#FFFFFF" stroke="#FFFFFF" stroke-width="1.00"/>
</g>
<text font-family="宋体" text-anchor="start" fill="#FFFFFF" shape-type="text" id="" font-size="12.500000" x="906" y="524">00FV81001A</text>
<text font-family="宋体" text-anchor="start" fill="#FFFFFF" shape-type="text" id="" font-size="12.500000" x="1227" y="189">00PV81001A</text>
<text font-family="宋体" text-anchor="start" fill="#FFFFFF" shape-type="text" id="" font-size="12.500000" x="1230" y="128">00PV81001B</text>
<text font-family="宋体" text-anchor="start" fill="#FFFFFF" shape-type="text" id="" font-size="12.500000" x="496" y="175">MPaG</text>
<text font-family="宋体" text-anchor="start" fill="#FFFFFF" shape-type="text" id="" font-size="12.500000" x="362" y="390">MPaG</text>
<text font-family="宋体" text-anchor="start" fill="#FFFFFF" shape-type="text" id="" font-size="12.500000" x="204" y="530">℃ </text>
<text font-family="宋体" text-anchor="start" fill="#FFFFFF" shape-type="text" id="" font-size="12.500000" x="707" y="289">℃ </text>
<text font-family="宋体" text-anchor="start" fill="#FFFFFF" shape-type="text" id="" font-size="12.500000" x="990" y="296">℃ </text>
<text font-family="宋体" text-anchor="start" fill="#FFFFFF" shape-type="text" id="" font-size="12.500000" x="1038" y="188">MPaG</text>
<text font-family="宋体" text-anchor="start" fill="#FFFFFF" shape-type="text" id="" font-size="12.500000" x="719" y="501">%</text>
<text font-family="宋体" text-anchor="start" fill="#FFFFFF" shape-type="text" id="" font-size="12.500000" x="817" y="500">%</text>
<text font-family="宋体" text-anchor="start" fill="#FFFFFF" shape-type="text" id="" font-size="12.500000" x="905" y="474">kg/h</text>
<text font-family="宋体" text-anchor="start" fill="#FFFFFF" shape-type="text" id="" font-size="12.500000" x="1190" y="341">%</text>
<text font-family="宋体" text-anchor="start" fill="#FFFFFF" shape-type="text" id="" font-size="16.250000" x="1331" y="646">%</text>
<text font-family="宋体" text-anchor="start" fill="#FFFFFF" shape-type="text" id="" font-size="16.250000" x="1336" y="693">%</text>
<text font-family="宋体" text-anchor="start" fill="#FFFFFF" shape-type="text" id="" font-size="12.500000" x="1304" y="532">Nm3/h</text>
<text font-family="宋体" text-anchor="start" fill="#FFFFFF" shape-type="text" id="" font-size="12.500000" x="1398" y="530">Nm3/h</text>
<text font-family="宋体" text-anchor="start" fill="#FFFFFF" shape-type="text" id="" font-size="12.500000" x="865" y="662">00FV81001B</text>
<text font-family="宋体" text-anchor="start" fill="#FFFFFF" shape-type="text" id="" font-size="12.500000" x="657" y="593">00P8201A</text>
<text font-family="宋体" text-anchor="start" fill="#FFFFFF" shape-type="text" id="" font-size="12.500000" x="668" y="662">00P8201B</text>
<text font-family="宋体" text-anchor="start" fill="#FFFFFF" shape-type="text" id="" font-size="12.500000" x="1091" y="598">00P8101A</text>
<text font-family="宋体" text-anchor="start" fill="#FFFFFF" shape-type="text" id="" font-size="12.500000" x="1089" y="668">00P8101B</text>
<line shape-type="limitline" x1="178" y1="431" x2="224" y2="431" fill="#FFFFFF" stroke="#FFFFFF" stroke-width="1.00" stroke-dasharray="5 10"/>
<line shape-type="limitline" x1="175" y1="513" x2="175" y2="431" fill="#FFFFFF" stroke="#FFFFFF" stroke-width="1.00" stroke-dasharray="5 10"/>
<line shape-type="limitline" x1="393" y1="438" x2="289" y2="438" fill="#FFFFFF" stroke="#FFFFFF" stroke-width="1.00" stroke-dasharray="5 10"/>
<line shape-type="limitline" x1="394" y1="641" x2="394" y2="438" fill="#FFFFFF" stroke="#FFFFFF" stroke-width="1.00" stroke-dasharray="5 10"/>
<line shape-type="limitline" x1="382" y1="188" x2="382" y2="259" fill="#FFFFFF" stroke="#FFFFFF" stroke-width="1.00" stroke-dasharray="5 10"/>
<line shape-type="limitline" x1="574" y1="186" x2="382" y2="186" fill="#FFFFFF" stroke="#FFFFFF" stroke-width="1.00" stroke-dasharray="5 10"/>
<line shape-type="limitline" x1="576" y1="254" x2="576" y2="186" fill="#FFFFFF" stroke="#FFFFFF" stroke-width="1.00" stroke-dasharray="5 10"/>
<line shape-type="limitline" x1="1030" y1="88" x2="1030" y2="239" fill="#FFFFFF" stroke="#FFFFFF" stroke-width="1.00" stroke-dasharray="5 10"/>
<line shape-type="limitline" x1="1264" y1="86" x2="1030" y2="86" fill="#FFFFFF" stroke="#FFFFFF" stroke-width="1.00" stroke-dasharray="5 10"/>
<line shape-type="limitline" x1="1264" y1="134" x2="1264" y2="86" fill="#FFFFFF" stroke="#FFFFFF" stroke-width="1.00" stroke-dasharray="5 10"/>
<line shape-type="limitline" x1="1269" y1="180" x2="1034" y2="180" fill="#FFFFFF" stroke="#FFFFFF" stroke-width="1.00" stroke-dasharray="5 10"/>
<line shape-type="limitline" x1="1269" y1="192" x2="1269" y2="180" fill="#FFFFFF" stroke="#FFFFFF" stroke-width="1.00" stroke-dasharray="5 10"/>
<line shape-type="limitline" x1="1150" y1="339" x2="1095" y2="339" fill="#FFFFFF" stroke="#FFFFFF" stroke-width="1.00" stroke-dasharray="5 10"/>
<line shape-type="limitline" x1="952" y1="481" x2="904" y2="481" fill="#FFFFFF" stroke="#FFFFFF" stroke-width="1.00" stroke-dasharray="5 10"/>
<line shape-type="limitline" x1="953" y1="530" x2="953" y2="481" fill="#FFFFFF" stroke="#FFFFFF" stroke-width="1.00" stroke-dasharray="5 10"/>
<line shape-type="limitline" x1="898" y1="669" x2="898" y2="490" fill="#FFFFFF" stroke="#FFFFFF" stroke-width="1.00" stroke-dasharray="5 10"/>
<line shape-type="limitline" x1="693" y1="602" x2="693" y2="376" fill="#FFFFFF" stroke="#FFFFFF" stroke-width="1.00" stroke-dasharray="5 10"/>
<line shape-type="limitline" x1="1281" y1="552" x2="1281" y2="534" fill="#FFFFFF" stroke="#FFFFFF" stroke-width="1.00" stroke-dasharray="5 10"/>
<line shape-type="limitline" x1="1022" y1="292" x2="991" y2="292" fill="#FFFFFF" stroke="#FFFFFF" stroke-width="1.00" stroke-dasharray="5 10"/>
<rect shape-type="rectangle" x="274" y="375" width="10" height="53" fill="#FFFFFF" stroke="#000000" stroke-width="1.00"/>
<rect shape-type="rectangle" x="618" y="282" width="10" height="58" fill="#FFFFFF" stroke="#000000" stroke-width="1.00"/>
<rect shape-type="rectangle" x="1083" y="309" width="10" height="97" fill="#FFFFFF" stroke="#000000" stroke-width="1.00"/>
<text font-family="宋体" text-anchor="start" fill="#000000" shape-type="text" id="" font-size="12.500000" x="230" y="405">V8201</text>
<text font-family="宋体" text-anchor="start" fill="#000000" shape-type="text" id="" font-size="12.500000" x="572" y="311">V8202</text>
<text font-family="宋体" text-anchor="start" fill="#000000" shape-type="text" id="" font-size="12.500000" x="1035" y="350">V8101</text>
<line shape-type="limitline" x1="289" y1="375" x2="224" y2="375" fill="#FFFFFF" stroke="#FFFFFF" stroke-width="1.00"/>
<line shape-type="limitline" x1="288" y1="431" x2="224" y2="431" fill="#FFFFFF" stroke="#FFFFFF" stroke-width="1.00"/>
<line shape-type="limitline" x1="633" y1="271" x2="560" y2="271" fill="#FFFFFF" stroke="#FFFFFF" stroke-width="1.00"/>
<line shape-type="limitline" x1="634" y1="351" x2="564" y2="351" fill="#FFFFFF" stroke="#FFFFFF" stroke-width="1.00"/>
<line shape-type="limitline" x1="1095" y1="246" x2="1024" y2="246" fill="#FFFFFF" stroke="#FFFFFF" stroke-width="1.00"/>
<line shape-type="limitline" x1="1096" y1="430" x2="1024" y2="430" fill="#FFFFFF" stroke="#FFFFFF" stroke-width="1.00"/>
<text font-family="Arial" text-anchor="start" fill="#000000" shape-type="realdata" id="QH_TQ_00PIC82002.DACA" font-size="12.500000" x="406" y="174">XXXXXXXXXX</text>
<text font-family="Arial" text-anchor="start" fill="#000000" shape-type="realdata" id="QH_TQ_00PIC82002.PIDA" font-size="12.500000" x="407" y="190">XXXXXXXXXX</text>
<text font-family="Arial" text-anchor="start" fill="#000000" shape-type="realdata" id="QH_TQ_00PI82001.DACA" font-size="12.500000" x="277" y="393">XXXXXXXXXX</text>
<text font-family="Arial" text-anchor="start" fill="#000000" shape-type="realdata" id="QH_TQ_00TI82001.DACA" font-size="12.500000" x="129" y="530">XXXXXXXXXX</text>
<text font-family="Arial" text-anchor="start" fill="#000000" shape-type="realdata" id="QH_TQ_00LIC82001.DACA" font-size="12.500000" x="334" y="552">XXXXXXXXXX</text>
<text font-family="Arial" text-anchor="start" fill="#000000" shape-type="realdata" id="QH_TQ_00LIC82001.PIDA" font-size="12.500000" x="333" y="567">XXXXXXXXXX</text>
<text font-family="Arial" text-anchor="start" fill="#000000" shape-type="realdata" id="QH_TQ_00TI82002.DACA" font-size="12.500000" x="626" y="288">XXXXXXXXXX</text>
<text font-family="Arial" text-anchor="start" fill="#000000" shape-type="realdata" id="QH_TQ_00LIC82002.DACA" font-size="12.500000" x="622" y="357">XXXXXXXXXX</text>
<text font-family="Arial" text-anchor="start" fill="#000000" shape-type="realdata" id="QH_TQ_00LIC82002.PIDA" font-size="12.500000" x="622" y="373">XXXXXXXXXX</text>
<text font-family="Arial" text-anchor="start" fill="#000000" shape-type="realdata" id="QH_TQ_00P8201A_SC.AUTOMANA" font-size="12.500000" x="632" y="502">XXXXXXXXXX</text>
<text font-family="Arial" text-anchor="start" fill="#000000" shape-type="realdata" id="QH_TQ_00P8201B_SC.AUTOMANA" font-size="12.500000" x="724" y="500">XXXXXXXXXX</text>
<text font-family="Arial" text-anchor="start" fill="#000000" shape-type="realdata" id="QH_TQ_00FIC81001.DACA" font-size="12.500000" x="816" y="473">XXXXXXXXXX</text>
<text font-family="Arial" text-anchor="start" fill="#000000" shape-type="realdata" id="QH_TQ_00FIC81001.PIDA" font-size="12.500000" x="817" y="489">XXXXXXXXXX</text>
<text font-family="Arial" text-anchor="start" fill="#000000" shape-type="realdata" id="QH_TQ_00TI81001.DACA" font-size="12.500000" x="906" y="294">XXXXXXXXXX</text>
<text font-family="Arial" text-anchor="start" fill="#000000" shape-type="realdata" id="QH_TQ_00PIC81001.DACA" font-size="12.500000" x="949" y="180">XXXXXXXXXX</text>
<text font-family="Arial" text-anchor="start" fill="#000000" shape-type="realdata" id="QH_TQ_00PIC81001.PIDA" font-size="12.500000" x="951" y="196">XXXXXXXXXX</text>
<text font-family="Arial" text-anchor="start" fill="#000000" shape-type="realdata" id="QH_TQ_00LIC81001.DACA" font-size="12.500000" x="1102" y="338">XXXXXXXXXX</text>
<text font-family="Arial" text-anchor="start" fill="#000000" shape-type="realdata" id="QH_TQ_00LIC81001.PIDA" font-size="12.500000" x="1101" y="357">XXXXXXXXXX</text>
<text font-family="Arial" text-anchor="start" fill="#000000" shape-type="realdata" id="QH_TQ_00FI01103.DACA" font-size="12.500000" x="1229" y="531">XXXXXXXXXX</text>
<text font-family="Arial" text-anchor="start" fill="#000000" shape-type="realdata" id="QH_TQ_00FQI01103.PVAlgo" font-size="12.500000" x="1322" y="530">XXXXXXXXXX</text>
<text font-family="Arial" text-anchor="start" fill="#000000" shape-type="realdata" id="QH_TQ_00P8101A_SC.AUTOMANA" font-size="12.500000" x="1245" y="643">XXXXXXXXXX</text>
<text font-family="Arial" text-anchor="start" fill="#000000" shape-type="realdata" id="QH_TQ_00P8101B_SC.AUTOMANA" font-size="12.500000" x="1249" y="690">XXXXXXXXXX</text>
<a xlink:href="..\脱氢总图二.svg">
<g shape-type="button">
<rect fill="#C0C0C0" stroke-width="0.3" stroke="#FFFFFF" x="1394" y="725" width="51" height="29" shape-type="buttonrect"/>
<text font-family="宋体" text-anchor="middle" dominant-baseline="middle" fill="#000000" font-size="13.500000" x="1419" y="745" shape-type="buttontext">返回</text>
</g>
</a>
</svg>