<svg xmlns="http://www.w3.org/2000/svg" xmlns:xlink="http://www.w3.org/1999/xlink" version="1.1" style="background-color:#7DB6C1" width="1062" height="669" viewbox="0 0 1062 669"><defs>
<linearGradient x1="50.000000%" y1="0.000000%" x2="50.000000%" y2="100.000000%" id="lgradient1">
<stop offset="0" stop-color="#2C2C2C" stop-opacity="1"/>
<stop offset="0.5" stop-color="#FFFFFF" stop-opacity="1"/>
<stop offset="1" stop-color="#2C2C2C" stop-opacity="1"/>
</linearGradient>
<linearGradient x1="0.000000%" y1="50.000000%" x2="100.000000%" y2="50.000000%" id="lgradient2">
<stop offset="0" stop-color="#2C2C2C" stop-opacity="1"/>
<stop offset="0.5" stop-color="#FFFFFF" stop-opacity="1"/>
<stop offset="1" stop-color="#2C2C2C" stop-opacity="1"/>
</linearGradient>
<linearGradient x1="0.000000%" y1="50.000000%" x2="100.000000%" y2="50.000000%" id="lgradient3">
<stop offset="0" stop-color="#2C2C2C" stop-opacity="1"/>
<stop offset="0.5" stop-color="#FFFFFF" stop-opacity="1"/>
<stop offset="1" stop-color="#2C2C2C" stop-opacity="1"/>
</linearGradient>
<linearGradient x1="0%" y1="60%" x2="100%" y2="40%" id="lgradient88_0">
<stop offset="0" stop-color="#2C2C2C" stop-opacity="1"/>
<stop offset="0.5" stop-color="#FFFFFF" stop-opacity="1"/>
<stop offset="1" stop-color="#2C2C2C" stop-opacity="1"/></linearGradient>
<linearGradient x1="0.000000%" y1="50.000000%" x2="100.000000%" y2="50.000000%" id="lgradient88_1">
<stop offset="0" stop-color="#2C2C2C" stop-opacity="1"/>
<stop offset="0.5" stop-color="#FFFFFF" stop-opacity="1"/>
<stop offset="1" stop-color="#2C2C2C" stop-opacity="1"/>
</linearGradient>
</defs>
<rect shape-type="roundRectangle" rx="20" ry="20" x="106" y="127" width="209" height="41" fill="url(#lgradient1)" stroke="#FFFFFF" stroke-width="1.00"/>
<rect shape-type="roundRectangle" rx="20" ry="20" x="226" y="264" width="32" height="90" fill="url(#lgradient2)" stroke="#FFFFFF" stroke-width="1.00"/>
<rect shape-type="roundRectangle" rx="20" ry="20" x="158" y="352" width="32" height="90" fill="url(#lgradient3)" stroke="#FFFFFF" stroke-width="1.00"/>
<rect shape-type="rectangle" x="720" y="177" width="103" height="85" fill="#808080" stroke="#FFFFFF" stroke-width="1.00"/>
<rect shape-type="rectangle" x="1104" y="171" width="103" height="85" fill="#808080" stroke="#FFFFFF" stroke-width="1.00"/>
<rect shape-type="rectangle" x="1058" y="377" width="76" height="57" fill="#808080" stroke="#FFFFFF" stroke-width="1.00"/>
<line shape-type="limitline" x1="118" y1="206" x2="118" y2="169" fill="#FFFFFF" stroke="#FFFFFF" stroke-width="1.00"/>
<line shape-type="limitline" x1="21" y1="206" x2="118" y2="206" fill="#FFFFFF" stroke="#FFFFFF" stroke-width="1.00"/>
<g shape-type="group">
<polygon shape-type="trapezium" points="497,630 461,630 479,611 479,611 497,630" fill="#FF0000" stroke="#FFFFFF" stroke-width="1.00"/>
<rect shape-type="rectangle" x="483" y="592" width="7" height="22" fill="#FF0000" stroke="#FFFFFF" stroke-width="1.00"/>
<ellipse shape-type="ellipse" cx="480" cy="614" rx="14" ry="13" fill="#FF0000" stroke="#FFFFFF" stroke-width="1.00"/>
</g>
<rect shape-type="rectangle" x="337" y="590" width="53" height="41" stroke="#FFFF00" stroke-width="1.00"/>
<g shape-type="group">
<polygon shape-type="trapezium" points="382,628 346,628 364,609 364,609 382,628" fill="#00FF00" stroke="#FFFFFF" stroke-width="1.00"/>
<rect shape-type="rectangle" x="369" y="590" width="6" height="21" fill="#00FF00" stroke="#FFFFFF" stroke-width="1.00"/>
<ellipse shape-type="ellipse" cx="365" cy="612" rx="14" ry="13" fill="#00FF00" stroke="#FFFFFF" stroke-width="1.00"/>
</g>
<line shape-type="limitline" x1="129" y1="378" x2="129" y2="167" fill="#FFFFFF" stroke="#00FF00" stroke-width="1.00"/>
<line shape-type="limitline" x1="160" y1="378" x2="129" y2="378" fill="#FFFFFF" stroke="#00FF00" stroke-width="1.00"/>
<line shape-type="limitline" x1="164" y1="290" x2="164" y2="167" fill="#FFFFFF" stroke="#00FF00" stroke-width="1.00"/>
<line shape-type="limitline" x1="226" y1="291" x2="164" y2="291" fill="#FFFFFF" stroke="#00FF00" stroke-width="1.00"/>
<line shape-type="limitline" x1="173" y1="521" x2="173" y2="441" fill="#FFFFFF" stroke="#00FF00" stroke-width="1.00"/>
<line shape-type="limitline" x1="18" y1="520" x2="173" y2="520" fill="#FFFFFF" stroke="#00FF00" stroke-width="1.00"/>
<line shape-type="limitline" x1="241" y1="350" x2="241" y2="561" fill="#FFFFFF" stroke="#00FF00" stroke-width="1.00"/>
<line shape-type="limitline" x1="14" y1="561" x2="240" y2="561" fill="#FFFFFF" stroke="#00FF00" stroke-width="1.00"/>
<line shape-type="limitline" x1="278" y1="665" x2="278" y2="167" fill="#FFFFFF" stroke="#00FF00" stroke-width="1.00"/>
<line shape-type="limitline" x1="278" y1="664" x2="423" y2="664" fill="#FFFFFF" stroke="#00FF00" stroke-width="1.00"/>
<line shape-type="limitline" x1="423" y1="664" x2="423" y2="610" fill="#FFFFFF" stroke="#00FF00" stroke-width="1.00"/>
<line shape-type="limitline" x1="466" y1="609" x2="423" y2="609" fill="#FFFFFF" stroke="#00FF00" stroke-width="1.00"/>
<line shape-type="limitline" x1="303" y1="664" x2="303" y2="609" fill="#FFFFFF" stroke="#00FF00" stroke-width="1.00"/>
<line shape-type="limitline" x1="336" y1="609" x2="303" y2="609" fill="#FFFFFF" stroke="#00FF00" stroke-width="1.00"/>
<line shape-type="limitline" x1="371" y1="568" x2="371" y2="591" fill="#FFFFFF" stroke="#00FF00" stroke-width="1.00"/>
<line shape-type="limitline" x1="485" y1="567" x2="372" y2="567" fill="#FFFFFF" stroke="#00FF00" stroke-width="1.00"/>
<line shape-type="limitline" x1="486" y1="591" x2="486" y2="567" fill="#FFFFFF" stroke="#00FF00" stroke-width="1.00"/>
<line shape-type="limitline" x1="428" y1="368" x2="428" y2="567" fill="#FFFFFF" stroke="#00FF00" stroke-width="1.00"/>
<line shape-type="limitline" x1="750" y1="368" x2="428" y2="368" fill="#FFFFFF" stroke="#00FF00" stroke-width="1.00"/>
<line shape-type="limitline" x1="749" y1="640" x2="749" y2="368" fill="#FFFFFF" stroke="#00FF00" stroke-width="1.00"/>
<line shape-type="limitline" x1="749" y1="639" x2="1247" y2="639" fill="#FFFFFF" stroke="#00FF00" stroke-width="1.00"/>
<line shape-type="limitline" x1="1247" y1="232" x2="1247" y2="639" fill="#FFFFFF" stroke="#00FF00" stroke-width="1.00"/>
<line shape-type="limitline" x1="1207" y1="232" x2="1247" y2="232" fill="#FFFFFF" stroke="#00FF00" stroke-width="1.00"/>
<line shape-type="limitline" x1="823" y1="196" x2="884" y2="196" fill="#FFFFFF" stroke="#00FF00" stroke-width="1.00"/>
<line shape-type="limitline" x1="885" y1="598" x2="885" y2="196" fill="#FFFFFF" stroke="#00FF00" stroke-width="1.00"/>
<line shape-type="limitline" x1="1206" y1="598" x2="885" y2="598" fill="#FFFFFF" stroke="#00FF00" stroke-width="1.00"/>
<line shape-type="limitline" x1="719" y1="252" x2="545" y2="252" fill="#FFFFFF" stroke="#00FF00" stroke-width="1.00"/>
<line shape-type="limitline" x1="545" y1="369" x2="545" y2="252" fill="#FFFFFF" stroke="#00FF00" stroke-width="1.00"/>
<line shape-type="limitline" x1="673" y1="346" x2="673" y2="252" fill="#FFFFFF" stroke="#00FF00" stroke-width="1.00"/>
<line shape-type="limitline" x1="885" y1="346" x2="673" y2="346" fill="#FFFFFF" stroke="#00FF00" stroke-width="1.00"/>
<line shape-type="limitline" x1="848" y1="208" x2="821" y2="208" fill="#FFFFFF" stroke="#00FF00" stroke-width="1.00"/>
<line shape-type="limitline" x1="848" y1="254" x2="848" y2="209" fill="#FFFFFF" stroke="#00FF00" stroke-width="1.00"/>
<line shape-type="limitline" x1="822" y1="255" x2="847" y2="255" fill="#FFFFFF" stroke="#00FF00" stroke-width="1.00"/>
<line shape-type="limitline" x1="886" y1="541" x2="965" y2="541" fill="#FFFFFF" stroke="#00FF00" stroke-width="1.00"/>
<line shape-type="limitline" x1="963" y1="414" x2="963" y2="541" fill="#FFFFFF" stroke="#00FF00" stroke-width="1.00"/>
<line shape-type="limitline" x1="1059" y1="414" x2="963" y2="414" fill="#FFFFFF" stroke="#00FF00" stroke-width="1.00"/>
<line shape-type="limitline" x1="958" y1="601" x2="958" y2="629" fill="#FFFFFF" stroke="#00FF00" stroke-width="1.00"/>
<line shape-type="limitline" x1="1410" y1="188" x2="1207" y2="188" fill="#FFFFFF" stroke="#00FF00" stroke-width="1.00"/>
<line shape-type="limitline" x1="1410" y1="705" x2="1410" y2="188" fill="#FFFFFF" stroke="#00FF00" stroke-width="1.00"/>
<line shape-type="limitline" x1="958" y1="706" x2="1410" y2="706" fill="#FFFFFF" stroke="#00FF00" stroke-width="1.00"/>
<line shape-type="limitline" x1="958" y1="643" x2="958" y2="706" fill="#FFFFFF" stroke="#00FF00" stroke-width="1.00"/>
<line shape-type="limitline" x1="134" y1="33" x2="134" y2="128" fill="#FFFFFF" stroke="#FF0000" stroke-width="1.00"/>
<line shape-type="limitline" x1="1053" y1="33" x2="134" y2="33" fill="#FFFFFF" stroke="#FF0000" stroke-width="1.00"/>
<line shape-type="limitline" x1="1052" y1="230" x2="1052" y2="33" fill="#FFFFFF" stroke="#FF0000" stroke-width="1.00"/>
<line shape-type="limitline" x1="1107" y1="231" x2="1052" y2="231" fill="#FFFFFF" stroke="#FF0000" stroke-width="1.00"/>
<line shape-type="limitline" x1="1107" y1="194" x2="1052" y2="194" fill="#FFFFFF" stroke="#FF0000" stroke-width="1.00"/>
<line shape-type="limitline" x1="1003" y1="306" x2="1003" y2="116" fill="#FFFFFF" stroke="#FF0000" stroke-width="1.00"/>
<line shape-type="limitline" x1="1095" y1="307" x2="1003" y2="307" fill="#FFFFFF" stroke="#FF0000" stroke-width="1.00"/>
<line shape-type="limitline" x1="1095" y1="382" x2="1095" y2="307" fill="#FFFFFF" stroke="#FF0000" stroke-width="1.00"/>
<line shape-type="limitline" x1="1004" y1="229" x2="823" y2="229" fill="#FFFFFF" stroke="#FF0000" stroke-width="1.00"/>
<line shape-type="limitline" x1="228" y1="93" x2="228" y2="126" fill="#FFFFFF" stroke="#FF0000" stroke-width="1.00"/>
<line shape-type="limitline" x1="467" y1="92" x2="228" y2="92" fill="#FFFFFF" stroke="#FF0000" stroke-width="1.00"/>
<line shape-type="limitline" x1="467" y1="215" x2="467" y2="92" fill="#FFFFFF" stroke="#FF0000" stroke-width="1.00"/>
<line shape-type="limitline" x1="721" y1="216" x2="467" y2="216" fill="#FFFFFF" stroke="#FF0000" stroke-width="1.00"/>
<line shape-type="limitline" x1="495" y1="32" x2="495" y2="198" fill="#FFFFFF" stroke="#FF0000" stroke-width="1.00"/>
<line shape-type="limitline" x1="721" y1="199" x2="495" y2="199" fill="#FFFFFF" stroke="#FF0000" stroke-width="1.00"/>
<line shape-type="limitline" x1="721" y1="181" x2="495" y2="181" fill="#FFFFFF" stroke="#FF0000" stroke-width="1.00"/>
<line shape-type="limitline" x1="174" y1="331" x2="19" y2="331" fill="#FFFFFF" stroke="#FF0000" stroke-width="1.00"/>
<line shape-type="limitline" x1="174" y1="355" x2="174" y2="331" fill="#FFFFFF" stroke="#FF0000" stroke-width="1.00"/>
<polygon shape-type="trapezium" points="233,111 222,111 228,99 228,99 233,111" fill="#FF0000" stroke="#FF0000" stroke-width="1.00"/>
<polygon shape-type="trapezium" points="139,94 128,94 134,106 134,106 139,94" fill="#FF0000" stroke="#FF0000" stroke-width="1.00"/>
<polygon shape-type="trapezium" points="472,201 461,201 467,213 467,213 472,201" fill="#FF0000" stroke="#FF0000" stroke-width="1.00"/>
<polygon shape-type="trapezium" points="510,194 510,204 497,199 497,199 510,194" fill="#FF0000" stroke="#FF0000" stroke-width="1.00"/>
<polygon shape-type="trapezium" points="510,176 510,186 497,181 497,181 510,176" fill="#FF0000" stroke="#FF0000" stroke-width="1.00"/>
<polygon shape-type="trapezium" points="941,224 941,234 953,229 953,229 941,224" fill="#FF0000" stroke="#FF0000" stroke-width="1.00"/>
<polygon shape-type="trapezium" points="1039,302 1039,312 1051,307 1051,307 1039,302" fill="#FF0000" stroke="#FF0000" stroke-width="1.00"/>
<polygon shape-type="trapezium" points="1066,226 1066,236 1053,231 1053,231 1066,226" fill="#FF0000" stroke="#FF0000" stroke-width="1.00"/>
<polygon shape-type="trapezium" points="1066,188 1066,198 1053,193 1053,193 1066,188" fill="#FF0000" stroke="#FF0000" stroke-width="1.00"/>
<line shape-type="limitline" x1="1096" y1="552" x2="1096" y2="434" fill="#FFFFFF" stroke="#FF0000" stroke-width="1.00"/>
<line shape-type="limitline" x1="1141" y1="552" x2="1096" y2="552" fill="#FFFFFF" stroke="#FF0000" stroke-width="1.00"/>
<g shape-type="group">
<rect shape-type="rectangle" x="2" y="201" width="24" height="7" fill="#808080" stroke="#FFFFFF" stroke-width="1.00"/>
<polygon shape-type="trapezium" points="26,198 26,213 38,206 38,206 26,198" fill="#808080" stroke="#FFFFFF" stroke-width="1.00"/>
</g>
<g shape-type="group">
<rect shape-type="rectangle" x="14" y="326" width="25" height="7" fill="#808080" stroke="#FFFFFF" stroke-width="1.00"/>
<polygon shape-type="trapezium" points="14,323 14,338 3,331 3,331 14,323" fill="#808080" stroke="#FFFFFF" stroke-width="1.00"/>
</g>
<g shape-type="group">
<rect shape-type="rectangle" x="15" y="516" width="25" height="7" fill="#808080" stroke="#FFFFFF" stroke-width="1.00"/>
<polygon shape-type="trapezium" points="15,513 15,527 4,520 4,520 15,513" fill="#808080" stroke="#FFFFFF" stroke-width="1.00"/>
</g>
<g shape-type="group">
<rect shape-type="rectangle" x="14" y="557" width="25" height="7" fill="#808080" stroke="#FFFFFF" stroke-width="1.00"/>
<polygon shape-type="trapezium" points="14,554 14,568 3,561 3,561 14,554" fill="#808080" stroke="#FFFFFF" stroke-width="1.00"/>
</g>
<g shape-type="group">
<rect shape-type="rectangle" x="1140" y="548" width="25" height="7" fill="#808080" stroke="#FFFFFF" stroke-width="1.00"/>
<polygon shape-type="trapezium" points="1165,545 1165,559 1176,552 1176,552 1165,545" fill="#808080" stroke="#FFFFFF" stroke-width="1.00"/>
</g>
<g shape-type="group">
<rect shape-type="rectangle" x="1182" y="595" width="26" height="7" fill="#808080" stroke="#FFFFFF" stroke-width="1.00"/>
<polygon shape-type="trapezium" points="1182,592 1182,606 1172,599 1172,599 1182,592" fill="#808080" stroke="#FFFFFF" stroke-width="1.00"/>
</g>
<g shape-type="group">
<polygon shape-type="parallel" points="998,113 1004,113 1001,92 995,92 998,113" fill="url(#lgradient88_0)" stroke="#FFFFFF" stroke-width="1.00"/>
<rect shape-type="rectangle" x="996" y="104" width="13" height="25" fill="url(#lgradient88_1)" stroke="#FFFFFF" stroke-width="1.00"/>
</g>
<g shape-type="group">
<polygon shape-type="trapezium" points="696,342 696,350 708,346 708,346 696,342" fill="#00FF00" stroke="#FFFFFF" stroke-width="1.00"/>
<polygon shape-type="trapezium" points="721,342 721,350 709,346 709,346 721,342" fill="#00FF00" stroke="#FFFFFF" stroke-width="1.00"/>
<line shape-type="limitline" x1="707" y1="346" x2="706" y2="332" fill="#FFFFFF" stroke="#FFFFFF" stroke-width="1.00"/>
<path shape-type="chord" d="M 723,337 A 17,19 0 0,0 695,337 z" fill="#FFFFFF" stroke="#FFFFFF" stroke-width="1.00"/>
</g>
<g shape-type="group">
<polygon shape-type="trapezium" points="79,516 79,524 92,520 92,520 79,516" fill="#00FF00" stroke="#FFFFFF" stroke-width="1.00"/>
<polygon shape-type="trapezium" points="104,516 104,524 93,520 93,520 104,516" fill="#00FF00" stroke="#FFFFFF" stroke-width="1.00"/>
<line shape-type="limitline" x1="91" y1="520" x2="90" y2="506" fill="#FFFFFF" stroke="#FFFFFF" stroke-width="1.00"/>
<path shape-type="chord" d="M 106,511 A 17,19 0 0,0 78,511 z" fill="#FFFFFF" stroke="#FFFFFF" stroke-width="1.00"/>
</g>
<g shape-type="group">
<polygon shape-type="trapezium" points="1251,482 1243,482 1247,470 1247,470 1251,482" fill="#00FF00" stroke="#FFFFFF" stroke-width="1.00"/>
<polygon shape-type="trapezium" points="1251,457 1243,457 1247,469 1247,469 1251,457" fill="#00FF00" stroke="#FFFFFF" stroke-width="1.00"/>
<line shape-type="limitline" x1="1247" y1="471" x2="1233" y2="472" fill="#FFFFFF" stroke="#FFFFFF" stroke-width="1.00"/>
<path shape-type="chord" d="M 1238,456 A 19,17 0 1,0 1238,484 z" fill="#FFFFFF" stroke="#FFFFFF" stroke-width="1.00"/>
</g>
<line shape-type="limitline" x1="1409" y1="385" x2="1248" y2="385" fill="#FFFFFF" stroke="#00FF00" stroke-width="1.00"/>
<g shape-type="group">
<polygon shape-type="trapezium" points="1313,381 1313,390 1325,386 1325,386 1313,381" fill="#00FF00" stroke="#FFFFFF" stroke-width="1.00"/>
<polygon shape-type="trapezium" points="1338,381 1338,390 1326,386 1326,386 1338,381" fill="#00FF00" stroke="#FFFFFF" stroke-width="1.00"/>
<line shape-type="limitline" x1="1324" y1="385" x2="1323" y2="372" fill="#FFFFFF" stroke="#FFFFFF" stroke-width="1.00"/>
<path shape-type="chord" d="M 1339,377 A 17,19 0 0,0 1311,377 z" fill="#FFFFFF" stroke="#FFFFFF" stroke-width="1.00"/>
</g>
<g shape-type="group">
<polygon shape-type="trapezium" points="593,248 593,256 605,252 605,252 593,248" fill="#00FF00" stroke="#FFFFFF" stroke-width="1.00"/>
<polygon shape-type="trapezium" points="618,248 618,256 606,252 606,252 618,248" fill="#00FF00" stroke="#FFFFFF" stroke-width="1.00"/>
<line shape-type="limitline" x1="604" y1="252" x2="603" y2="239" fill="#FFFFFF" stroke="#FFFFFF" stroke-width="1.00"/>
<path shape-type="chord" d="M 620,243 A 17,19 0 0,0 592,243 z" fill="#FFFFFF" stroke="#FFFFFF" stroke-width="1.00"/>
</g>
<g shape-type="group">
<polygon shape-type="trapezium" points="1006,188 999,188 1003,175 1003,175 1006,188" fill="#FF0000" stroke="#FFFFFF" stroke-width="1.00"/>
<polygon shape-type="trapezium" points="1006,163 999,163 1003,174 1003,174 1006,163" fill="#FF0000" stroke="#FFFFFF" stroke-width="1.00"/>
<line shape-type="limitline" x1="1003" y1="176" x2="990" y2="177" fill="#FFFFFF" stroke="#FFFFFF" stroke-width="1.00"/>
<path shape-type="chord" d="M 996,161 A 18,18 0 1,0 996,190 z" fill="#FFFFFF" stroke="#FFFFFF" stroke-width="1.00"/>
</g>
<g shape-type="group">
<polygon shape-type="trapezium" points="1414,484 1406,484 1410,472 1410,472 1414,484" fill="#FF0000" stroke="#FFFFFF" stroke-width="1.00"/>
<polygon shape-type="trapezium" points="1414,459 1406,459 1410,471 1410,471 1414,459" fill="#FF0000" stroke="#FFFFFF" stroke-width="1.00"/>
<line shape-type="limitline" x1="1410" y1="473" x2="1397" y2="474" fill="#FFFFFF" stroke="#FFFFFF" stroke-width="1.00"/>
<path shape-type="chord" d="M 1403,458 A 18,18 0 1,0 1403,487 z" fill="#FFFFFF" stroke="#FFFFFF" stroke-width="1.00"/>
</g>
<g shape-type="group">
<polygon shape-type="trapezium" points="889,492 881,492 885,479 885,479 889,492" fill="#FF0000" stroke="#FFFFFF" stroke-width="1.00"/>
<polygon shape-type="trapezium" points="889,467 881,467 885,478 885,478 889,467" fill="#FF0000" stroke="#FFFFFF" stroke-width="1.00"/>
<line shape-type="limitline" x1="885" y1="480" x2="872" y2="481" fill="#FFFFFF" stroke="#FFFFFF" stroke-width="1.00"/>
<path shape-type="chord" d="M 878,466 A 18,17 0 1,0 878,494 z" fill="#FFFFFF" stroke="#FFFFFF" stroke-width="1.00"/>
</g>
<g shape-type="group">
<polygon shape-type="trapezium" points="960,492 968,492 964,479 964,479 960,492" fill="#FF0000" stroke="#FFFFFF" stroke-width="1.00"/>
<polygon shape-type="trapezium" points="960,467 968,467 964,478 964,478 960,467" fill="#FF0000" stroke="#FFFFFF" stroke-width="1.00"/>
<line shape-type="limitline" x1="964" y1="480" x2="977" y2="481" fill="#FFFFFF" stroke="#FFFFFF" stroke-width="1.00"/>
<path shape-type="chord" d="M 971,495 A 18,18 0 1,0 971,466 z" fill="#FFFFFF" stroke="#FFFFFF" stroke-width="1.00"/>
</g>
<polygon shape-type="trapezium" points="551,264 539,264 545,252 545,252 551,264" fill="#00FF00" stroke="#00FF00" stroke-width="1.00"/>
<polygon shape-type="trapezium" points="739,361 739,374 749,368 749,368 739,361" fill="#00FF00" stroke="#00FF00" stroke-width="1.00"/>
<polygon shape-type="trapezium" points="1048,407 1048,420 1058,414 1058,414 1048,407" fill="#00FF00" stroke="#00FF00" stroke-width="1.00"/>
<polygon shape-type="trapezium" points="891,206 878,206 885,197 885,197 891,206" fill="#00FF00" stroke="#00FF00" stroke-width="1.00"/>
<polygon shape-type="trapezium" points="1254,626 1241,626 1248,617 1248,617 1254,626" fill="#00FF00" stroke="#00FF00" stroke-width="1.00"/>
<polygon shape-type="trapezium" points="966,694 950,694 958,704 958,704 966,694" fill="#00FF00" stroke="#00FF00" stroke-width="1.00"/>
<polygon shape-type="trapezium" points="895,591 895,604 885,598 885,598 895,591" fill="#00FF00" stroke="#00FF00" stroke-width="1.00"/>
<polygon shape-type="trapezium" points="286,652 270,652 278,662 278,662 286,652" fill="#00FF00" stroke="#00FF00" stroke-width="1.00"/>
<polygon shape-type="trapezium" points="436,546 420,546 428,536 428,536 436,546" fill="#00FF00" stroke="#00FF00" stroke-width="1.00"/>
<rect shape-type="rectangle" x="170" y="385" width="8" height="50" fill="#FFFFFF" stroke="#000000" stroke-width="1.00"/>
<rect shape-type="rectangle" x="294" y="128" width="8" height="38" fill="#FFFFFF" stroke="#000000" stroke-width="1.00"/>
<text font-family="宋体" text-anchor="start" fill="#000000" shape-type="text" id="" font-size="12.500000" x="174" y="153">30_V1013</text>
<text font-family="宋体" text-anchor="start" fill="#000000" shape-type="text" id="" font-size="12.500000" x="732" y="226">1#对流段</text>
<text font-family="宋体" text-anchor="start" fill="#000000" shape-type="text" id="" font-size="12.500000" x="1122" y="220">2#对流段</text>
<text font-family="宋体" text-anchor="start" fill="#000000" shape-type="text" id="" font-size="12.500000" x="1056" y="413">喷水减温器</text>
<rect shape-type="rectangle" x="156" y="81" width="50" height="16" fill="#FFFFFF" stroke="#FFFFFF" stroke-width="1.00"/>
<rect shape-type="rectangle" x="567" y="126" width="50" height="16" fill="#FFFFFF" stroke="#FFFFFF" stroke-width="1.00"/>
<rect shape-type="rectangle" x="814" y="129" width="50" height="16" fill="#FFFFFF" stroke="#FFFFFF" stroke-width="1.00"/>
<rect shape-type="rectangle" x="882" y="165" width="50" height="16" fill="#FFFFFF" stroke="#FFFFFF" stroke-width="1.00"/>
<rect shape-type="rectangle" x="926" y="114" width="50" height="16" fill="#FFFFFF" stroke="#FFFFFF" stroke-width="1.00"/>
<rect shape-type="rectangle" x="1063" y="115" width="50" height="16" fill="#FFFFFF" stroke="#FFFFFF" stroke-width="1.00"/>
<rect shape-type="rectangle" x="1219" y="113" width="50" height="16" fill="#FFFFFF" stroke="#FFFFFF" stroke-width="1.00"/>
<rect shape-type="rectangle" x="1027" y="542" width="50" height="16" fill="#FFFFFF" stroke="#FFFFFF" stroke-width="1.00"/>
<rect shape-type="rectangle" x="465" y="391" width="50" height="16" fill="#FFFFFF" stroke="#FFFFFF" stroke-width="1.00"/>
<rect shape-type="rectangle" x="465" y="428" width="50" height="16" fill="#FFFFFF" stroke="#FFFFFF" stroke-width="1.00"/>
<rect shape-type="rectangle" x="464" y="466" width="50" height="16" fill="#FFFFFF" stroke="#FFFFFF" stroke-width="1.00"/>
<rect shape-type="rectangle" x="450" y="517" width="50" height="16" fill="#FFFFFF" stroke="#FFFFFF" stroke-width="1.00"/>
<g shape-type="group">
<rect shape-type="rectangle" x="61" y="401" width="50" height="16" fill="#FFFFFF" stroke="#FFFFFF" stroke-width="1.00"/>
<rect shape-type="rectangle" x="61" y="418" width="50" height="16" fill="#FFFFFF" stroke="#FFFFFF" stroke-width="1.00"/>
</g>
<g shape-type="group">
<rect shape-type="rectangle" x="473" y="270" width="50" height="15" fill="#FFFFFF" stroke="#FFFFFF" stroke-width="1.00"/>
<rect shape-type="rectangle" x="473" y="286" width="50" height="17" fill="#FFFFFF" stroke="#FFFFFF" stroke-width="1.00"/>
</g>
<g shape-type="group">
<rect shape-type="rectangle" x="788" y="282" width="50" height="15" fill="#FFFFFF" stroke="#FFFFFF" stroke-width="1.00"/>
<rect shape-type="rectangle" x="788" y="298" width="50" height="17" fill="#FFFFFF" stroke="#FFFFFF" stroke-width="1.00"/>
</g>
<g shape-type="group">
<rect shape-type="rectangle" x="1180" y="502" width="50" height="16" fill="#FFFFFF" stroke="#FFFFFF" stroke-width="1.00"/>
<rect shape-type="rectangle" x="1180" y="519" width="50" height="16" fill="#FFFFFF" stroke="#FFFFFF" stroke-width="1.00"/>
</g>
<g shape-type="group">
<rect shape-type="rectangle" x="1325" y="504" width="50" height="16" fill="#FFFFFF" stroke="#FFFFFF" stroke-width="1.00"/>
<rect shape-type="rectangle" x="1325" y="521" width="50" height="17" fill="#FFFFFF" stroke="#FFFFFF" stroke-width="1.00"/>
</g>
<g shape-type="group">
<rect shape-type="rectangle" x="1293" y="297" width="50" height="16" fill="#FFFFFF" stroke="#FFFFFF" stroke-width="1.00"/>
<rect shape-type="rectangle" x="1293" y="314" width="50" height="16" fill="#FFFFFF" stroke="#FFFFFF" stroke-width="1.00"/>
</g>
<g shape-type="group">
<rect shape-type="rectangle" x="799" y="508" width="50" height="15" fill="#FFFFFF" stroke="#FFFFFF" stroke-width="1.00"/>
<rect shape-type="rectangle" x="799" y="524" width="50" height="17" fill="#FFFFFF" stroke="#FFFFFF" stroke-width="1.00"/>
</g>
<rect shape-type="rectangle" x="386" y="213" width="50" height="16" fill="#FFFFFF" stroke="#FFFFFF" stroke-width="1.00"/>
<rect shape-type="rectangle" x="376" y="320" width="50" height="16" fill="#FFFFFF" stroke="#FFFFFF" stroke-width="1.00"/>
<rect shape-type="rectangle" x="334" y="124" width="59" height="43" stroke="#FFFF00" stroke-width="1.00"/>
<g shape-type="group">
<rect shape-type="rectangle" x="338" y="128" width="50" height="16" fill="#FFFFFF" stroke="#FFFFFF" stroke-width="1.00"/>
<rect shape-type="rectangle" x="338" y="145" width="50" height="16" fill="#FFFFFF" stroke="#FFFFFF" stroke-width="1.00"/>
</g>
<g shape-type="group">
<rect shape-type="rectangle" x="1010" y="468" width="50" height="15" fill="#FFFFFF" stroke="#FFFFFF" stroke-width="1.00"/>
<rect shape-type="rectangle" x="1010" y="484" width="50" height="17" fill="#FFFFFF" stroke="#FFFFFF" stroke-width="1.00"/>
</g>
<text font-family="宋体" text-anchor="start" fill="#FFFFFF" shape-type="text" id="" font-size="12.500000" x="-2" y="190">加药系统</text>
<text font-family="宋体" text-anchor="start" fill="#FFFFFF" shape-type="text" id="" font-size="12.500000" x="-4" y="316">低压蒸气</text>
<text font-family="宋体" text-anchor="start" fill="#FFFFFF" shape-type="text" id="" font-size="12.500000" x="1" y="507">排污水池</text>
<text font-family="宋体" text-anchor="start" fill="#FFFFFF" shape-type="text" id="" font-size="12.500000" x="-1" y="548">排污降温池</text>
<text font-family="宋体" text-anchor="start" fill="#FFFFFF" shape-type="text" id="" font-size="12.500000" x="1107" y="541">蒸汽管网</text>
<text font-family="宋体" text-anchor="start" fill="#FFFFFF" shape-type="text" id="" font-size="12.500000" x="1156" y="584">除氧水</text>
<text font-family="宋体" text-anchor="start" fill="#FFFFFF" shape-type="text" id="" font-size="12.500000" x="147" y="78">30PI11064</text>
<text font-family="宋体" text-anchor="start" fill="#FFFFFF" shape-type="text" id="" font-size="12.500000" x="51" y="396">30LIC11703</text>
<text font-family="宋体" text-anchor="start" fill="#FFFFFF" shape-type="text" id="" font-size="12.500000" x="321" y="121">30LIC11033</text>
<text font-family="宋体" text-anchor="start" fill="#FFFFFF" shape-type="text" id="" font-size="12.500000" x="375" y="207">30FI11046</text>
<text font-family="宋体" text-anchor="start" fill="#FFFFFF" shape-type="text" id="" font-size="12.500000" x="362" y="316">30HIC11026</text>
<text font-family="宋体" text-anchor="start" fill="#FFFFFF" shape-type="text" id="" font-size="12.500000" x="460" y="266">30FIC11045</text>
<text font-family="宋体" text-anchor="start" fill="#FFFFFF" shape-type="text" id="" font-size="12.500000" x="554" y="121">30TI11086</text>
<text font-family="宋体" text-anchor="start" fill="#FFFFFF" shape-type="text" id="" font-size="12.500000" x="805" y="126">30TI11087</text>
<text font-family="宋体" text-anchor="start" fill="#FFFFFF" shape-type="text" id="" font-size="12.500000" x="861" y="160">30TI11089</text>
<text font-family="宋体" text-anchor="start" fill="#FFFFFF" shape-type="text" id="" font-size="12.500000" x="914" y="111">30HIC11025</text>
<text font-family="宋体" text-anchor="start" fill="#FFFFFF" shape-type="text" id="" font-size="12.500000" x="1051" y="110">30TI11094</text>
<text font-family="宋体" text-anchor="start" fill="#FFFFFF" shape-type="text" id="" font-size="12.500000" x="1207" y="109">30TI11093</text>
<text font-family="宋体" text-anchor="start" fill="#FFFFFF" shape-type="text" id="" font-size="12.500000" x="451" y="386">30FI_11044A</text>
<text font-family="宋体" text-anchor="start" fill="#FFFFFF" shape-type="text" id="" font-size="12.500000" x="455" y="423">30FI_11044B</text>
<text font-family="宋体" text-anchor="start" fill="#FFFFFF" shape-type="text" id="" font-size="12.500000" x="452" y="461">30FI_11044C</text>
<text font-family="宋体" text-anchor="start" fill="#FFFFFF" shape-type="text" id="" font-size="12.500000" x="444" y="510">30FI11043</text>
<text font-family="宋体" text-anchor="start" fill="#FFFFFF" shape-type="text" id="" font-size="12.500000" x="786" y="501">30FIC11047</text>
<text font-family="宋体" text-anchor="start" fill="#FFFFFF" shape-type="text" id="" font-size="12.500000" x="997" y="461">30TIC11091</text>
<text font-family="宋体" text-anchor="start" fill="#FFFFFF" shape-type="text" id="" font-size="12.500000" x="1014" y="538">30TI11090</text>
<text font-family="宋体" text-anchor="start" fill="#FFFFFF" shape-type="text" id="" font-size="12.500000" x="1167" y="495">30FIC11048</text>
<text font-family="宋体" text-anchor="start" fill="#FFFFFF" shape-type="text" id="" font-size="12.500000" x="1278" y="286">30TIC11092</text>
<text font-family="宋体" text-anchor="start" fill="#FFFFFF" shape-type="text" id="" font-size="12.500000" x="1315" y="499">30FIC11049</text>
<text font-family="宋体" text-anchor="start" fill="#FFFFFF" shape-type="text" id="" font-size="12.500000" x="204" y="93">MPaG</text>
<text font-family="宋体" text-anchor="start" fill="#FFFFFF" shape-type="text" id="" font-size="12.500000" x="437" y="223">kg/h</text>
<text font-family="宋体" text-anchor="start" fill="#FFFFFF" shape-type="text" id="" font-size="12.500000" x="116" y="414">%</text>
<text font-family="宋体" text-anchor="start" fill="#FFFFFF" shape-type="text" id="" font-size="12.500000" x="397" y="140">%</text>
<text font-family="宋体" text-anchor="start" fill="#FFFFFF" shape-type="text" id="" font-size="12.500000" x="614" y="137">℃ </text>
<text font-family="宋体" text-anchor="start" fill="#FFFFFF" shape-type="text" id="" font-size="12.500000" x="862" y="139">℃ </text>
<text font-family="宋体" text-anchor="start" fill="#FFFFFF" shape-type="text" id="" font-size="12.500000" x="932" y="179">℃ </text>
<text font-family="宋体" text-anchor="start" fill="#FFFFFF" shape-type="text" id="" font-size="12.500000" x="979" y="124">%</text>
<text font-family="宋体" text-anchor="start" fill="#FFFFFF" shape-type="text" id="" font-size="12.500000" x="1114" y="125">℃ </text>
<text font-family="宋体" text-anchor="start" fill="#FFFFFF" shape-type="text" id="" font-size="12.500000" x="1271" y="124">℃ </text>
<text font-family="宋体" text-anchor="start" fill="#FFFFFF" shape-type="text" id="" font-size="12.500000" x="1346" y="311">℃ </text>
<text font-family="宋体" text-anchor="start" fill="#FFFFFF" shape-type="text" id="" font-size="14.000000" x="1056" y="485">℃ </text>
<text font-family="宋体" text-anchor="start" fill="#FFFFFF" shape-type="text" id="" font-size="14.000000" x="1073" y="555">℃ </text>
<text font-family="宋体" text-anchor="start" fill="#FFFFFF" shape-type="text" id="" font-size="12.500000" x="432" y="333">%</text>
<text font-family="宋体" text-anchor="start" fill="#FFFFFF" shape-type="text" id="" font-size="12.500000" x="524" y="298">m3/h</text>
<text font-family="宋体" text-anchor="start" fill="#FFFFFF" shape-type="text" id="" font-size="12.500000" x="836" y="294">℃ </text>
<text font-family="宋体" text-anchor="start" fill="#FFFFFF" shape-type="text" id="" font-size="12.500000" x="514" y="402">m3/h</text>
<text font-family="宋体" text-anchor="start" fill="#FFFFFF" shape-type="text" id="" font-size="12.500000" x="517" y="441">m3/h</text>
<text font-family="宋体" text-anchor="start" fill="#FFFFFF" shape-type="text" id="" font-size="12.500000" x="517" y="480">m3/h</text>
<text font-family="宋体" text-anchor="start" fill="#FFFFFF" shape-type="text" id="" font-size="12.500000" x="502" y="528">m3/h</text>
<text font-family="宋体" text-anchor="start" fill="#FFFFFF" shape-type="text" id="" font-size="12.500000" x="1231" y="525">m3/h</text>
<text font-family="宋体" text-anchor="start" fill="#FFFFFF" shape-type="text" id="" font-size="12.500000" x="1373" y="534">m3/h</text>
<line shape-type="limitline" x1="243" y1="263" x2="243" y2="201" fill="#FFFFFF" stroke="#FFFFFF" stroke-width="1.00"/>
<path shape-type="chord" d="M 267,202 A 15,20 0 0,0 243,202 z" stroke="#FFFFFF" stroke-width="1.00"/>
<text font-family="宋体" text-anchor="start" fill="#FFFFFF" shape-type="text" id="" font-size="12.500000" x="177" y="226">30-V1504</text>
<text font-family="宋体" text-anchor="start" fill="#FFFFFF" shape-type="text" id="" font-size="12.500000" x="306" y="584">30P1001A</text>
<text font-family="宋体" text-anchor="start" fill="#FFFFFF" shape-type="text" id="" font-size="12.500000" x="417" y="587">30P1001B</text>
<text font-family="宋体" text-anchor="start" fill="#FFFFFF" shape-type="text" id="" font-size="12.500000" x="819" y="461">30FV11047</text>
<text font-family="宋体" text-anchor="start" fill="#FFFFFF" shape-type="text" id="" font-size="12.500000" x="1335" y="451">30FV11049</text>
<text font-family="宋体" text-anchor="start" fill="#FFFFFF" shape-type="text" id="" font-size="12.500000" x="1170" y="447">30FV11048</text>
<text font-family="宋体" text-anchor="start" fill="#FFFFFF" shape-type="text" id="" font-size="12.500000" x="961" y="447">30TV11091</text>
<text font-family="宋体" text-anchor="start" fill="#FFFFFF" shape-type="text" id="" font-size="12.500000" x="564" y="231">30FV11045</text>
<text font-family="宋体" text-anchor="start" fill="#FFFFFF" shape-type="text" id="" font-size="12.500000" x="675" y="323">30TV11088</text>
<text font-family="宋体" text-anchor="start" fill="#FFFFFF" shape-type="text" id="" font-size="12.500000" x="933" y="158">30HV11025</text>
<text font-family="宋体" text-anchor="start" fill="#FFFFFF" shape-type="text" id="" font-size="12.500000" x="850" y="520">m3/h</text>
<text font-family="宋体" text-anchor="start" fill="#FFFFFF" shape-type="text" id="" font-size="12.500000" x="1283" y="362">30TV11092</text>
<text font-family="宋体" text-anchor="start" fill="#FFFFFF" shape-type="text" id="" font-size="12.500000" x="60" y="497">30LV11703</text>
<text font-family="宋体" text-anchor="start" fill="#FFFFFF" shape-type="text" id="" font-size="12.500000" x="174" y="451">30-V1503</text>
<line shape-type="limitline" x1="178" y1="129" x2="178" y2="96" fill="#FFFFFF" stroke="#FFFFFF" stroke-width="1.00" stroke-dasharray="5 10"/>
<line shape-type="limitline" x1="382" y1="318" x2="382" y2="167" fill="#FFFFFF" stroke="#FFFFFF" stroke-width="1.00" stroke-dasharray="5 10"/>
<line shape-type="limitline" x1="405" y1="317" x2="405" y2="228" fill="#FFFFFF" stroke="#FFFFFF" stroke-width="1.00" stroke-dasharray="5 10"/>
<line shape-type="limitline" x1="93" y1="502" x2="93" y2="436" fill="#FFFFFF" stroke="#FFFFFF" stroke-width="1.00" stroke-dasharray="5 10"/>
<line shape-type="limitline" x1="158" y1="418" x2="111" y2="418" fill="#FFFFFF" stroke="#FFFFFF" stroke-width="1.00" stroke-dasharray="5 10"/>
<line shape-type="limitline" x1="465" y1="400" x2="428" y2="400" fill="#FFFFFF" stroke="#FFFFFF" stroke-width="1.00" stroke-dasharray="5 10"/>
<line shape-type="limitline" x1="467" y1="436" x2="428" y2="436" fill="#FFFFFF" stroke="#FFFFFF" stroke-width="1.00" stroke-dasharray="5 10"/>
<line shape-type="limitline" x1="466" y1="472" x2="427" y2="472" fill="#FFFFFF" stroke="#FFFFFF" stroke-width="1.00" stroke-dasharray="5 10"/>
<line shape-type="limitline" x1="452" y1="524" x2="429" y2="524" fill="#FFFFFF" stroke="#FFFFFF" stroke-width="1.00" stroke-dasharray="5 10"/>
<line shape-type="limitline" x1="479" y1="603" x2="479" y2="532" fill="#FFFFFF" stroke="#FFFFFF" stroke-width="1.00" stroke-dasharray="5 10"/>
<line shape-type="limitline" x1="360" y1="557" x2="360" y2="588" fill="#FFFFFF" stroke="#FFFFFF" stroke-width="1.00" stroke-dasharray="5 10"/>
<line shape-type="limitline" x1="480" y1="555" x2="360" y2="555" fill="#FFFFFF" stroke="#FFFFFF" stroke-width="1.00" stroke-dasharray="5 10"/>
<line shape-type="limitline" x1="576" y1="332" x2="425" y2="332" fill="#FFFFFF" stroke="#FFFFFF" stroke-width="1.00" stroke-dasharray="5 10"/>
<line shape-type="limitline" x1="576" y1="581" x2="576" y2="332" fill="#FFFFFF" stroke="#FFFFFF" stroke-width="1.00" stroke-dasharray="5 10"/>
<line shape-type="limitline" x1="1364" y1="585" x2="576" y2="585" fill="#FFFFFF" stroke="#FFFFFF" stroke-width="1.00" stroke-dasharray="5 10"/>
<line shape-type="limitline" x1="1359" y1="536" x2="1359" y2="585" fill="#FFFFFF" stroke="#FFFFFF" stroke-width="1.00" stroke-dasharray="5 10"/>
<line shape-type="limitline" x1="1357" y1="475" x2="1357" y2="500" fill="#FFFFFF" stroke="#FFFFFF" stroke-width="1.00" stroke-dasharray="5 10"/>
<line shape-type="limitline" x1="1396" y1="475" x2="1357" y2="475" fill="#FFFFFF" stroke="#FFFFFF" stroke-width="1.00" stroke-dasharray="5 10"/>
<line shape-type="limitline" x1="1323" y1="370" x2="1323" y2="327" fill="#FFFFFF" stroke="#FFFFFF" stroke-width="1.00" stroke-dasharray="5 10"/>
<line shape-type="limitline" x1="1094" y1="482" x2="1056" y2="482" fill="#FFFFFF" stroke="#FFFFFF" stroke-width="1.00" stroke-dasharray="5 10"/>
<line shape-type="limitline" x1="1009" y1="483" x2="975" y2="483" fill="#FFFFFF" stroke="#FFFFFF" stroke-width="1.00" stroke-dasharray="5 10"/>
<line shape-type="limitline" x1="885" y1="526" x2="849" y2="526" fill="#FFFFFF" stroke="#FFFFFF" stroke-width="1.00" stroke-dasharray="5 10"/>
<line shape-type="limitline" x1="830" y1="483" x2="830" y2="509" fill="#FFFFFF" stroke="#FFFFFF" stroke-width="1.00" stroke-dasharray="5 10"/>
<line shape-type="limitline" x1="867" y1="481" x2="830" y2="481" fill="#FFFFFF" stroke="#FFFFFF" stroke-width="1.00" stroke-dasharray="5 10"/>
<line shape-type="limitline" x1="711" y1="301" x2="791" y2="301" fill="#FFFFFF" stroke="#FFFFFF" stroke-width="1.00" stroke-dasharray="5 10"/>
<line shape-type="limitline" x1="711" y1="331" x2="711" y2="301" fill="#FFFFFF" stroke="#FFFFFF" stroke-width="1.00" stroke-dasharray="5 10"/>
<line shape-type="limitline" x1="883" y1="298" x2="842" y2="298" fill="#FFFFFF" stroke="#FFFFFF" stroke-width="1.00" stroke-dasharray="5 10"/>
<line shape-type="limitline" x1="592" y1="181" x2="592" y2="141" fill="#FFFFFF" stroke="#FFFFFF" stroke-width="1.00" stroke-dasharray="5 10"/>
<line shape-type="limitline" x1="842" y1="195" x2="842" y2="143" fill="#FFFFFF" stroke="#FFFFFF" stroke-width="1.00" stroke-dasharray="5 10"/>
<line shape-type="limitline" x1="913" y1="228" x2="913" y2="181" fill="#FFFFFF" stroke="#FFFFFF" stroke-width="1.00" stroke-dasharray="5 10"/>
<line shape-type="limitline" x1="957" y1="177" x2="957" y2="128" fill="#FFFFFF" stroke="#FFFFFF" stroke-width="1.00" stroke-dasharray="5 10"/>
<line shape-type="limitline" x1="990" y1="180" x2="957" y2="180" fill="#FFFFFF" stroke="#FFFFFF" stroke-width="1.00" stroke-dasharray="5 10"/>
<line shape-type="limitline" x1="1083" y1="197" x2="1083" y2="131" fill="#FFFFFF" stroke="#FFFFFF" stroke-width="1.00" stroke-dasharray="5 10"/>
<line shape-type="limitline" x1="1254" y1="185" x2="1254" y2="127" fill="#FFFFFF" stroke="#FFFFFF" stroke-width="1.00" stroke-dasharray="5 10"/>
<line shape-type="limitline" x1="1409" y1="316" x2="1347" y2="316" fill="#FFFFFF" stroke="#FFFFFF" stroke-width="1.00" stroke-dasharray="5 10"/>
<line shape-type="limitline" x1="1099" y1="549" x2="1078" y2="549" fill="#FFFFFF" stroke="#FFFFFF" stroke-width="1.00" stroke-dasharray="5 10"/>
<line shape-type="limitline" x1="1196" y1="471" x2="1196" y2="503" fill="#FFFFFF" stroke="#FFFFFF" stroke-width="1.00" stroke-dasharray="5 10"/>
<line shape-type="limitline" x1="1228" y1="471" x2="1196" y2="471" fill="#FFFFFF" stroke="#FFFFFF" stroke-width="1.00" stroke-dasharray="5 10"/>
<text font-family="Arial" text-anchor="start" fill="#000000" shape-type="realdata" id="QH_TQ_30LIC11703.DACA" font-size="12.500000" x="29" y="414">XXXXXXXXXX</text>
<text font-family="Arial" text-anchor="start" fill="#000000" shape-type="realdata" id="QH_TQ_30LIC11703.PIDA" font-size="12.500000" x="29" y="431">XXXXXXXXXX</text>
<text font-family="Arial" text-anchor="start" fill="#000000" shape-type="realdata" id="QH_TQ_30LIC11033.DACA" font-size="12.500000" x="306" y="140">XXXXXXXXXX</text>
<text font-family="Arial" text-anchor="start" fill="#000000" shape-type="realdata" id="QH_TQ_30LIC11033.PIDA" font-size="12.500000" x="306" y="158">XXXXXXXXXX</text>
<text font-family="Arial" text-anchor="start" fill="#000000" shape-type="realdata" id="QH_TQ_30TI11086.DACA" font-size="12.500000" x="542" y="138">XXXXXXXXXX</text>
<text font-family="Arial" text-anchor="start" fill="#000000" shape-type="realdata" id="QH_TQ_30FI11046.DACA" font-size="12.500000" x="379" y="227">XXXXXXXXXX</text>
<text font-family="Arial" text-anchor="start" fill="#000000" shape-type="realdata" id="QH_TQ_30HIC11026.AUTOMANA" font-size="12.500000" x="344" y="333">XXXXXXXXXX</text>
<text font-family="Arial" text-anchor="start" fill="#000000" shape-type="realdata" id="QH_TQ_30FIC11045.DACA" font-size="12.500000" x="449" y="283">XXXXXXXXXX</text>
<text font-family="Arial" text-anchor="start" fill="#000000" shape-type="realdata" id="QH_TQ_30FIC11045.PIDA" font-size="12.500000" x="440" y="299">XXXXXXXXXX</text>
<text font-family="Arial" text-anchor="start" fill="#000000" shape-type="realdata" id="QH_TQ_30FI11043.DACA" font-size="12.500000" x="426" y="530">XXXXXXXXXX</text>
<text font-family="Arial" text-anchor="start" fill="#000000" shape-type="realdata" id="QH_TQ_30TI11087.DACA" font-size="12.500000" x="789" y="142">XXXXXXXXXX</text>
<text font-family="Arial" text-anchor="start" fill="#000000" shape-type="realdata" id="QH_TQ_30TI11089.DACA" font-size="12.500000" x="849" y="179">XXXXXXXXXX</text>
<text font-family="Arial" text-anchor="start" fill="#000000" shape-type="realdata" id="QH_TQ_30HIC11025.AUTOMANA" font-size="12.500000" x="890" y="127">XXXXXXXXXX</text>
<text font-family="Arial" text-anchor="start" fill="#000000" shape-type="realdata" id="QH_TQ_30TI11094.DACA" font-size="12.500000" x="1040" y="129">XXXXXXXXXX</text>
<text font-family="Arial" text-anchor="start" fill="#000000" shape-type="realdata" id="QH_TQ_30TI11093.DACA" font-size="12.500000" x="1195" y="127">XXXXXXXXXX</text>
<text font-family="Arial" text-anchor="start" fill="#000000" shape-type="realdata" id="QH_TQ_30FIC11047.DACA" font-size="12.500000" x="766" y="521">XXXXXXXXXX</text>
<text font-family="Arial" text-anchor="start" fill="#000000" shape-type="realdata" id="QH_TQ_30FIC11047.PIDA" font-size="12.500000" x="766" y="537">XXXXXXXXXX</text>
<text font-family="Arial" text-anchor="start" fill="#000000" shape-type="realdata" id="QH_TQ_30TIC11091.DACA" font-size="12.500000" x="986" y="481">XXXXXXXXXX</text>
<text font-family="Arial" text-anchor="start" fill="#000000" shape-type="realdata" id="QH_TQ_30TIC11091.PIDA" font-size="12.500000" x="979" y="498">XXXXXXXXXX</text>
<text font-family="Arial" text-anchor="start" fill="#000000" shape-type="realdata" id="QH_TQ_30TI11090.DACA" font-size="12.500000" x="1002" y="556">XXXXXXXXXX</text>
<text font-family="Arial" text-anchor="start" fill="#000000" shape-type="realdata" id="QH_TQ_30TIC11092.DACA" font-size="12.500000" x="1269" y="310">XXXXXXXXXX</text>
<text font-family="Arial" text-anchor="start" fill="#000000" shape-type="realdata" id="QH_TQ_30TIC11092.PIDA" font-size="12.500000" x="1261" y="327">XXXXXXXXXX</text>
<text font-family="Arial" text-anchor="start" fill="#000000" shape-type="realdata" id="QH_TQ_30FIC11048.DACA" font-size="12.500000" x="1147" y="515">XXXXXXXXXX</text>
<text font-family="Arial" text-anchor="start" fill="#000000" shape-type="realdata" id="QH_TQ_30FIC11048.PIDA" font-size="12.500000" x="1148" y="532">XXXXXXXXXX</text>
<text font-family="Arial" text-anchor="start" fill="#000000" shape-type="realdata" id="QH_TQ_30FIC11049.DACA" font-size="12.500000" x="1289" y="517">XXXXXXXXXX</text>
<text font-family="Arial" text-anchor="start" fill="#000000" shape-type="realdata" id="QH_TQ_30FIC11049.PIDA" font-size="12.500000" x="1293" y="535">XXXXXXXXXX</text>
<a xlink:href="..\脱氢总图二.svg">
<g shape-type="button">
<rect fill="#C0C0C0" stroke-width="0.3" stroke="#FFFFFF" x="1390" y="740" width="51" height="29" shape-type="buttonrect"/>
<text font-family="宋体" text-anchor="middle" dominant-baseline="middle" fill="#000000" font-size="13.500000" x="1415" y="760" shape-type="buttontext">返回</text>
</g>
</a>
</svg>