<?xml version="1.0" encoding="UTF-8"?>
<svg height="100%" width="100%" viewBox="0 0 64000 32000" version="1.1" xmlns="http://www.w3.org/2000/svg" xmlns:xlink="http://www.w3.org/1999/xlink" xmlns:PB="urn:osisoft-com-pb" xmlns:PBI="urn:osisoft-com-interface" xmlns:PBD="urn:osisoft-com-data" style="background-color:#C0C0C0">
  <title>QDGSBXQJ6</title>
  <defs>
    <PBD:TagUses tag="\\\">
      <PBI:Symbol name="BARGRAPH1" PB:Type="12" />
    </PBD:TagUses>
    <PBD:TagUses tag="\\RTDBB\5400_PT_4452">
      <PBI:Symbol name="DATAPOINT16" PB:Type="7" />
    </PBD:TagUses>
    <PBD:TagUses tag="\\RTDBB\5400_FT_4151_BC">
      <PBI:Symbol name="DATAPOINT17" PB:Type="7" />
    </PBD:TagUses>
    <PBD:TagUses tag="\\RTDBB\5400_PT_4454">
      <PBI:Symbol name="DATAPOINT18" PB:Type="7" />
    </PBD:TagUses>
    <PBD:TagUses tag="\\RTDBB\5400_PT_4461">
      <PBI:Symbol name="DATAPOINT19" PB:Type="7" />
    </PBD:TagUses>
    <PBD:TagUses tag="\\RTDBB\5400_PT_4455">
      <PBI:Symbol name="DATAPOINT20" PB:Type="7" />
    </PBD:TagUses>
    <PBD:TagUses tag="\\RTDBB\5400_PT_4451">
      <PBI:Symbol name="DATAPOINT21" PB:Type="7" />
    </PBD:TagUses>
    <PBD:TagUses tag="\\RTDBB\5400_PT_4457">
      <PBI:Symbol name="DATAPOINT22" PB:Type="7" />
    </PBD:TagUses>
    <PBD:TagUses tag="\\RTDBB\5400_TT_4453">
      <PBI:Symbol name="DATAPOINT23" PB:Type="7" />
    </PBD:TagUses>
    <PBD:TagUses tag="\\RTDBB\5400_PT_4453B">
      <PBI:Symbol name="DATAPOINT24" PB:Type="7" />
    </PBD:TagUses>
    <PBD:TagUses tag="\\RTDBB\5400_PT_4453C">
      <PBI:Symbol name="DATAPOINT25" PB:Type="7" />
    </PBD:TagUses>
    <PBD:TagUses tag="\\RTDBB\5400_TT_4452">
      <PBI:Symbol name="DATAPOINT26" PB:Type="7" />
    </PBD:TagUses>
    <PBD:TagUses tag="\\RTDBB\5400_LT_4452">
      <PBI:Symbol name="DATAPOINT27" PB:Type="7" />
    </PBD:TagUses>
    <PBD:TagUses tag="\\RTDBB\5400_YIT_B0203">
      <PBI:Symbol name="DATAPOINT28" PB:Type="7" />
    </PBD:TagUses>
    <PBD:TagUses tag="\\RTDBB\5400_YIT_B0204">
      <PBI:Symbol name="DATAPOINT29" PB:Type="7" />
    </PBD:TagUses>
    <PBD:TagUses tag="\\RTDBB\5400_PT_4453A">
      <PBI:Symbol name="DATAPOINT30" PB:Type="7" />
    </PBD:TagUses>
  </defs>
  <g name="SoftwareAnalogPoint">
    <path d="M 62672 1874 l 704 844 -1408 1688 -704 -844 1408 -1688 0 0" stroke-width="0" fill="#FF0000" />
    <path d="M 62672 1874 l 704 844 -1408 1688 -704 -844 1408 -1688" stroke="#000000" stroke-width="20" fill="none" />
  </g>
  <path id="POLYGON28" d="M 33040 27420 l 17580 0" stroke="#00D200" stroke-width="40" stroke-dasharray="300,100" fill="none" />
  <g name="StraightArrow1">
    <path d="M 54486 27405 l -1500 774 0 -516 -2352 0 0 -526 2352 0 0 -516 1500 784 0 0" stroke-width="0" fill="#00D200" />
    <path d="M 54486 27405 l -1500 774 0 -516 -2352 0 0 -526 2352 0 0 -516 1500 784" stroke="#000000" stroke-width="20" fill="none" />
  </g>
  <g name="StraightArrow1">
    <path d="M 42784 19854 l 560 752 -374 0 0 1180 -380 0 0 -1180 -374 0 568 -752 0 0" stroke-width="0" fill="#00D200" />
    <path d="M 42784 19854 l 560 752 -374 0 0 1180 -380 0 0 -1180 -374 0 568 -752" stroke="#000000" stroke-width="20" fill="none" />
  </g>
  <g name="a3DGateValve">
    <path d="M 43721 16639 l 0 -758 1080 758 0 -758 -1080 758 0 0" stroke-width="0" fill="#808080" />
    <path d="M 43721 16600 l 0 -680 1080 680 0 -680 -1080 680 0 0" stroke-width="0" fill="#969696" />
    <path d="M 43721 16521 l 0 -525 1080 525 0 -525 -1080 525 0 0" stroke-width="0" fill="#B4B4B4" />
    <path d="M 43721 16445 l 0 -370 1080 370 0 -370 -1080 370 0 0" stroke-width="0" fill="#CCCCCC" />
    <path d="M 43721 16384 l 0 -251 1080 251 0 -251 -1080 251 0 0" stroke-width="0" fill="#DEDEDE" />
    <path d="M 43721 16309 l 0 -98 1080 98 0 -98 -1080 98 0 0" stroke-width="0" fill="#FFFFFF" />
    <path d="M 43721 16639 l 0 -758 1080 758 0 -758 -1080 758" stroke="#000000" stroke-width="20" fill="none" />
  </g>
  <g name="DownArrow">
    <path d="M 48845 12465 l -730 0 365 1238 365 -1238 0 0" stroke="#000000" stroke-width="20" fill="#00D200" />
  </g>
  <g name="VerySmoothTank2">
    <path d="M 42186 9616 l 0 4208 137 73 415 68 657 36 725 19 725 -19 657 -36 415 -68 137 -73 0 -4208 -137 -73 -415 -62 -657 -42 -725 -13 -725 13 -657 42 -415 62 -137 73 0 0" stroke-width="0" fill="#666666" />
    <path d="M 42304 9604 l 0 4232 130 67 391 62 613 36 682 13 682 -13 620 -36 384 -62 136 -67 0 -4232 -130 -67 -390 -62 -620 -36 -682 -19 -682 19 -613 36 -391 62 -130 67 0 0" stroke-width="0" fill="#666666" />
    <path d="M 42422 9592 l 0 4256 118 61 365 56 577 36 638 13 638 -13 577 -36 365 -56 124 -61 0 -4256 -124 -61 -365 -62 -577 -37 -638 -12 -638 12 -577 37 -365 62 -118 61 0 0" stroke-width="0" fill="#787878" />
    <path d="M 42533 9580 l 0 4280 118 56 335 55 539 30 595 13 595 -13 539 -30 341 -55 112 -56 0 -4280 -112 -62 -341 -49 -539 -37 -595 -12 -595 12 -539 37 -335 49 -118 62 0 0" stroke-width="0" fill="#7A7A7A" />
    <path d="M 42651 9567 l 0 4306 105 55 317 43 495 37 552 6 552 -6 502 -37 310 -43 105 -55 0 -4306 -105 -55 -310 -49 -502 -31 -552 -12 -552 12 -495 31 -317 49 -105 55 0 0" stroke-width="0" fill="#858585" />
    <path d="M 42769 9555 l 0 4330 93 49 291 43 459 31 508 6 508 -6 459 -31 291 -43 99 -49 0 -4330 -99 -49 -291 -43 -459 -31 -508 -12 -508 12 -459 31 -285 43 -99 49 0 0" stroke-width="0" fill="#969696" />
    <path d="M 42887 9543 l 0 4348 86 49 261 37 421 31 465 6 465 -6 421 -31 267 -37 87 -49 0 -4348 -87 -43 -267 -43 -421 -25 -465 -12 -465 12 -421 25 -261 43 -86 43 0 0" stroke-width="0" fill="#969696" />
    <path d="M 42998 9531 l 0 4372 81 43 241 37 379 25 421 6 421 -6 385 -25 235 -37 81 -43 0 -4372 -75 -37 -241 -37 -385 -25 -421 -12 -421 12 -379 25 -241 37 -81 37 0 0" stroke-width="0" fill="#A3A3A3" />
    <path d="M 43116 9518 l 0 4398 68 36 217 37 341 19 378 6 378 -6 341 -19 217 -37 74 -36 0 -4398 -74 -37 -217 -30 -341 -19 -378 -12 -378 12 -341 19 -217 30 -68 37 0 0" stroke-width="0" fill="#A3A3A3" />
    <path d="M 43228 9506 l 0 4422 68 31 192 30 297 19 335 6 335 -6 303 -19 193 -30 61 -31 0 -4422 -61 -31 -193 -24 -303 -19 -335 -12 -335 12 -297 19 -192 24 -68 31 0 0" stroke-width="0" fill="#ADADAD" />
    <path d="M 43345 9494 l 0 4446 56 25 167 30 261 13 291 6 291 -6 261 -13 167 -30 56 -25 0 -4446 -56 -25 -167 -24 -261 -19 -291 -6 -291 6 -261 19 -167 24 -56 25 0 0" stroke-width="0" fill="#B4B4B4" />
    <path d="M 43463 9481 l 0 4471 50 25 136 18 223 13 248 6 248 -6 223 -13 143 -18 49 -25 0 -4471 -49 -18 -143 -18 -223 -19 -248 -6 -248 6 -223 19 -136 18 -50 18 0 0" stroke-width="0" fill="#C0C0C0" />
    <path d="M 43581 9475 l 0 4490 37 18 118 18 179 7 205 6 205 -6 185 -7 112 -18 43 -18 0 -4490 -43 -18 -112 -18 -185 -13 -205 -6 -205 6 -179 13 -118 18 -37 18 0 0" stroke-width="0" fill="#C2C2C2" />
    <path d="M 43692 9463 l 0 4514 31 12 93 12 149 13 155 0 161 0 143 -13 93 -12 31 -12 0 -4514 -31 -18 -93 -13 -143 -6 -161 -6 -155 6 -149 6 -93 13 -31 18 0 0" stroke-width="0" fill="#D2D2D2" />
    <path d="M 43810 9451 l 0 4538 25 6 68 13 105 6 112 0 118 0 105 -6 68 -13 19 -6 0 -4538 -19 -12 -68 -7 -105 -6 -118 -6 -112 6 -105 6 -68 7 -25 12 0 0" stroke-width="0" fill="#D2D2D2" />
    <path d="M 43928 9439 l 0 4562 12 0 44 7 68 6 68 0 74 0 69 -6 37 -7 18 0 0 -4562 -18 -7 -37 -6 -69 0 -74 -6 -68 6 -68 0 -44 6 -12 7 0 0" stroke-width="0" fill="#DEDEDE" />
    <path d="M 44039 9426 l 0 4588 7 0 18 0 25 0 31 6 31 -6 25 0 18 0 7 0 0 -4588 -7 0 -18 0 -25 0 -31 0 -31 0 -25 0 -18 0 -7 0 0 0" stroke-width="0" fill="#DEDEDE" />
    <path d="M 42186 9616 l 0 4208 137 73 415 68 657 36 725 19 725 -19 657 -36 415 -68 137 -73 0 -4208 -137 -73 -415 -62 -657 -42 -725 -13 -725 13 -657 42 -415 62 -137 73" stroke="#000000" stroke-width="20" fill="none" />
  </g>
  <path id="ELLIPSE1" d="M 44740 10023 l -20 66 -20 41 -20 31 -20 26 -20 22 -20 20 -20 17 -20 15 -20 14 -20 12 -20 12 -20 10 -20 9 -20 8 -20 7 -20 7 -20 6 -20 5 -20 4 -20 3 -20 3 -20 3 -20 1 -20 1 -20 0 0 0 -20 0 -20 -1 -20 -1 -20 -3 -20 -3 -20 -3 -20 -4 -20 -5 -20 -6 -20 -7 -20 -7 -20 -8 -20 -9 -20 -10 -20 -12 -20 -12 -20 -14 -20 -15 -20 -17 -20 -20 -20 -22 -20 -26 -20 -31 -20 -41 -20 -66 0 -125 20 -66 20 -41 20 -31 20 -26 20 -22 20 -20 20 -17 20 -15 20 -14 20 -12 20 -12 20 -10 20 -9 20 -8 20 -7 20 -7 20 -6 20 -5 20 -4 20 -3 20 -3 20 -3 20 -1 20 -1 20 -1 0 0 20 1 20 1 20 1 20 3 20 3 20 3 20 4 20 5 20 6 20 7 20 7 20 8 20 9 20 10 20 12 20 12 20 14 20 15 20 17 20 20 20 22 20 26 20 31 20 41 20 66 0 125" stroke-width="0" fill="#000000" />
  <path id="ELLIPSE2" d="M 44760 10963 l -20 66 -20 41 -20 31 -20 26 -20 22 -20 20 -20 17 -20 15 -20 14 -20 12 -20 12 -20 10 -20 9 -20 8 -20 7 -20 7 -20 6 -20 5 -20 4 -20 3 -20 3 -20 3 -20 1 -20 1 -20 0 0 0 -20 0 -20 -1 -20 -1 -20 -3 -20 -3 -20 -3 -20 -4 -20 -5 -20 -6 -20 -7 -20 -7 -20 -8 -20 -9 -20 -10 -20 -12 -20 -12 -20 -14 -20 -15 -20 -17 -20 -20 -20 -22 -20 -26 -20 -31 -20 -41 -20 -66 0 -125 20 -66 20 -41 20 -31 20 -26 20 -22 20 -20 20 -17 20 -15 20 -14 20 -12 20 -12 20 -10 20 -9 20 -8 20 -7 20 -7 20 -6 20 -5 20 -4 20 -3 20 -3 20 -3 20 -1 20 -1 20 -1 0 0 20 1 20 1 20 1 20 3 20 3 20 3 20 4 20 5 20 6 20 7 20 7 20 8 20 9 20 10 20 12 20 12 20 14 20 15 20 17 20 20 20 22 20 26 20 31 20 41 20 66 0 125" stroke-width="0" fill="#000000" />
  <path id="ELLIPSE3" d="M 44760 13403 l -20 66 -20 41 -20 31 -20 26 -20 22 -20 20 -20 17 -20 15 -20 14 -20 12 -20 12 -20 10 -20 9 -20 8 -20 7 -20 7 -20 6 -20 5 -20 4 -20 3 -20 3 -20 3 -20 1 -20 1 -20 0 0 0 -20 0 -20 -1 -20 -1 -20 -3 -20 -3 -20 -3 -20 -4 -20 -5 -20 -6 -20 -7 -20 -7 -20 -8 -20 -9 -20 -10 -20 -12 -20 -12 -20 -14 -20 -15 -20 -17 -20 -20 -20 -22 -20 -26 -20 -31 -20 -41 -20 -66 0 -125 20 -66 20 -41 20 -31 20 -26 20 -22 20 -20 20 -17 20 -15 20 -14 20 -12 20 -12 20 -10 20 -9 20 -8 20 -7 20 -7 20 -6 20 -5 20 -4 20 -3 20 -3 20 -3 20 -1 20 -1 20 -1 0 0 20 1 20 1 20 1 20 3 20 3 20 3 20 4 20 5 20 6 20 7 20 7 20 8 20 9 20 10 20 12 20 12 20 14 20 15 20 17 20 20 20 22 20 26 20 31 20 41 20 66 0 125" stroke-width="0" fill="#000000" />
  <path id="ELLIPSE4" d="M 44820 12243 l -20 66 -20 41 -20 31 -20 26 -20 22 -20 20 -20 17 -20 15 -20 14 -20 12 -20 12 -20 10 -20 9 -20 8 -20 7 -20 7 -20 6 -20 5 -20 4 -20 3 -20 3 -20 3 -20 1 -20 1 -20 0 0 0 -20 0 -20 -1 -20 -1 -20 -3 -20 -3 -20 -3 -20 -4 -20 -5 -20 -6 -20 -7 -20 -7 -20 -8 -20 -9 -20 -10 -20 -12 -20 -12 -20 -14 -20 -15 -20 -17 -20 -20 -20 -22 -20 -26 -20 -31 -20 -41 -20 -66 0 -125 20 -66 20 -41 20 -31 20 -26 20 -22 20 -20 20 -17 20 -15 20 -14 20 -12 20 -12 20 -10 20 -9 20 -8 20 -7 20 -7 20 -6 20 -5 20 -4 20 -3 20 -3 20 -3 20 -1 20 -1 20 -1 0 0 20 1 20 1 20 1 20 3 20 3 20 3 20 4 20 5 20 6 20 7 20 7 20 8 20 9 20 10 20 12 20 12 20 14 20 15 20 17 20 20 20 22 20 26 20 31 20 41 20 66 0 125" stroke-width="0" fill="#000000" />
  <path id="POLYGON1" d="M 44260 11820 l -1480 -1920" stroke="#00D200" stroke-width="40" fill="none" />
  <path id="POLYGON2" d="M 42780 9940 l 0 9920" stroke="#00D200" stroke-width="40" fill="none" />
  <path id="POLYGON3" d="M 44320 11760 l 1340 -1780" stroke="#00D200" stroke-width="40" fill="none" />
  <path id="POLYGON4" d="M 45720 9940 l 0 9780" stroke="#00D200" stroke-width="40" fill="none" />
  <path id="POLYGON5" d="M 44800 16280 l 920 0" stroke="#00D200" stroke-width="40" fill="none" />
  <path id="POLYGON9" d="M 46880 13500 l 1040 0" stroke="#000000" stroke-width="20" fill="none" />
  <path id="POLYGON10" d="M 47920 13560 l 0 1240" stroke="#000000" stroke-width="20" fill="none" />
  <path id="POLYGON11" d="M 47920 14740 l 1180 0" stroke="#000000" stroke-width="20" fill="none" />
  <path id="POLYGON12" d="M 49100 14760 l 0 -1260" stroke="#000000" stroke-width="20" fill="none" />
  <path id="POLYGON13" d="M 49100 13560 l 1020 0" stroke="#000000" stroke-width="20" fill="none" />
  <path id="POLYGON14" d="M 43780 16280 l -940 0" stroke="#00D200" stroke-width="40" fill="none" />
  <path id="POLYGON15" d="M 46040 10120 l 2360 0" stroke="#00D200" stroke-width="40" fill="none" />
  <path id="POLYGON16" d="M 48440 12400 l 0 -2240" stroke="#00D200" stroke-width="40" fill="none" />
  <g name="DownArrow">
    <path d="M 40785 17065 l -730 0 365 1238 365 -1238 0 0" stroke="#000000" stroke-width="20" fill="#00D200" />
  </g>
  <path id="LINE16" d="M 38800 18120 l 1060 0" stroke="#000000" stroke-width="20" fill="none" />
  <path id="LINE17" d="M 39860 18160 l 0 1260" stroke="#000000" stroke-width="20" fill="none" />
  <path id="LINE18" d="M 39860 19360 l 1200 0" stroke="#000000" stroke-width="20" fill="none" />
  <path id="LINE19" d="M 41060 19360 l 0 -1240" stroke="#000000" stroke-width="20" fill="none" />
  <path id="LINE20" d="M 41060 18160 l 1000 0" stroke="#000000" stroke-width="20" fill="none" />
  <path id="POLYGON20" d="M 40400 17080 l 0 -2320" stroke="#00D200" stroke-width="40" fill="none" />
  <path id="POLYGON21" d="M 40400 14760 l 2400 0" stroke="#00D200" stroke-width="40" fill="none" />
  <g name="StraightArrow1">
    <path d="M 45678 21647 l -499 -800 333 0 0 -1254 337 0 -1 1254 333 -1 -503 801 0 0" stroke-width="0" fill="#00D200" />
    <path d="M 45678 21647 l -499 -800 333 0 0 -1254 337 0 -1 1254 333 -1 -503 801" stroke="#000000" stroke-width="20" fill="none" />
  </g>
  <path id="POLYGON31" d="M 37720 20980 l 0 -10220" stroke="#00D200" stroke-width="40" stroke-dasharray="300,100" fill="none" />
  <path id="POLYGON32" d="M 37720 10700 l 4500 0" stroke="#00D200" stroke-width="40" stroke-dasharray="300,100" fill="none" />
  <g name="SimpleFan1">
    <path d="M 55604 4760 l 0 49 -6 50 -6 49 -8 47 -14 49 -15 44 -17 47 -17 44 -22 42 -23 44 -25 39 -29 39 -28 39 -34 36 -31 37 -34 33 -37 31 -39 32 -40 28 -42 29 -43 23 -45 24 -45 23 -49 18 -48 18 -48 16 -51 13 -51 10 -51 8 -53 8 -54 2 -54 3 -57 -3 -53 -2 -51 -8 -54 -8 -51 -10 -48 -13 -51 -16 -48 -18 -45 -18 -48 -23 -43 -24 -42 -23 -43 -29 -39 -28 -40 -32 -37 -31 -34 -33 -34 -37 -31 -36 -31 -39 -28 -39 -26 -39 -22 -44 -20 -42 -20 -44 -17 -47 -14 -44 -12 -49 -11 -47 -6 -49 -5 -50 0 -49 0 -49 5 -50 6 -49 11 -47 12 -47 14 -46 17 -47 20 -44 20 -42 22 -41 26 -42 28 -39 31 -39 31 -36 34 -37 34 -33 37 -31 40 -32 39 -28 43 -26 42 -26 43 -24 48 -23 45 -18 48 -18 51 -16 48 -13 51 -10 54 -8 51 -8 53 -2 57 -3 1531 0 0 974 -472 0 0 0" stroke-width="0" fill="#98ADC9" />
    <path d="M 55604 4760 l 0 0 0 49 -6 50 -6 49 -8 47 -14 49 -15 44 -17 47 -17 44 -22 42 -23 44 -25 39 -29 39 -28 39 -34 36 -31 37 -34 33 -37 31 -39 32 -40 28 -42 29 -43 23 -45 24 -45 23 -49 18 -48 18 -48 16 -51 13 -51 10 -51 8 -53 8 -54 2 -54 3 0 0 -57 -3 -53 -2 -51 -8 -54 -8 -51 -10 -48 -13 -51 -16 -48 -18 -45 -18 -48 -23 -43 -24 -42 -23 -43 -29 -39 -28 -40 -32 -37 -31 -34 -33 -34 -37 -31 -36 -31 -39 -28 -39 -26 -39 -22 -44 -20 -42 -20 -44 -17 -47 -14 -44 -12 -49 -11 -47 -6 -49 -5 -50 0 -49 0 0 0 -49 5 -50 6 -49 11 -47 12 -47 14 -46 17 -47 20 -44 20 -42 22 -41 26 -42 28 -39 31 -39 31 -36 34 -37 34 -33 37 -31 40 -32 39 -28 43 -26 42 -26 43 -24 48 -23 45 -18 48 -18 51 -16 48 -13 51 -10 54 -8 51 -8 53 -2 57 -3 1531 0 0 974 -472 0" stroke="#000000" stroke-width="20" fill="none" />
    <path d="M 54545 4220 l 0 0 60 2 59 8 54 13 56 18 51 24 48 26 46 31 42 36 37 39 34 42 31 44 25 47 20 49 14 52 9 54 3 55 0 0 -3 55 -9 54 -14 52 -20 49 -25 47 -31 44 -34 42 -37 39 -42 36 -46 31 -48 26 -51 24 -56 18 -54 13 -59 8 -60 2 0 0 -62 -2 -57 -8 -56 -13 -54 -18 -51 -24 -48 -26 -45 -31 -43 -36 -40 -39 -34 -42 -28 -44 -25 -47 -20 -49 -14 -52 -9 -54 -3 -55 0 0 3 -55 9 -54 14 -52 20 -49 25 -47 28 -44 34 -42 40 -39 43 -36 45 -31 48 -26 51 -24 54 -18 56 -13 57 -8 62 -2" stroke="#000000" stroke-width="20" fill="none" />
  </g>
  <path d="M 53460 4760 l -2280 0" stroke="#FF0000" stroke-width="40" fill="none" />
  <path d="M 58220 4200 l -2080 0" stroke="#FF0000" stroke-width="40" fill="none" />
  <g name="SimpleFan1">
    <path d="M 55604 8820 l 0 49 -6 50 -6 49 -8 47 -14 49 -15 44 -17 47 -17 44 -22 42 -23 44 -25 39 -29 39 -28 39 -34 36 -31 37 -34 33 -37 31 -39 32 -40 28 -42 29 -43 23 -45 24 -45 23 -49 18 -48 18 -48 16 -51 13 -51 10 -51 8 -53 8 -54 2 -54 3 -57 -3 -53 -2 -51 -8 -54 -8 -51 -10 -48 -13 -51 -16 -48 -18 -45 -18 -48 -23 -43 -24 -42 -23 -43 -29 -39 -28 -40 -32 -37 -31 -34 -33 -34 -37 -31 -36 -31 -39 -28 -39 -26 -39 -22 -44 -20 -42 -20 -44 -17 -47 -14 -44 -12 -49 -11 -47 -6 -49 -5 -50 0 -49 0 -49 5 -50 6 -49 11 -47 12 -47 14 -46 17 -47 20 -44 20 -42 22 -41 26 -42 28 -39 31 -39 31 -36 34 -37 34 -33 37 -31 40 -32 39 -28 43 -26 42 -26 43 -24 48 -23 45 -18 48 -18 51 -16 48 -13 51 -10 54 -8 51 -8 53 -2 57 -3 1531 0 0 974 -472 0 0 0" stroke-width="0" fill="#98ADC9" />
    <path d="M 55604 8820 l 0 0 0 49 -6 50 -6 49 -8 47 -14 49 -15 44 -17 47 -17 44 -22 42 -23 44 -25 39 -29 39 -28 39 -34 36 -31 37 -34 33 -37 31 -39 32 -40 28 -42 29 -43 23 -45 24 -45 23 -49 18 -48 18 -48 16 -51 13 -51 10 -51 8 -53 8 -54 2 -54 3 0 0 -57 -3 -53 -2 -51 -8 -54 -8 -51 -10 -48 -13 -51 -16 -48 -18 -45 -18 -48 -23 -43 -24 -42 -23 -43 -29 -39 -28 -40 -32 -37 -31 -34 -33 -34 -37 -31 -36 -31 -39 -28 -39 -26 -39 -22 -44 -20 -42 -20 -44 -17 -47 -14 -44 -12 -49 -11 -47 -6 -49 -5 -50 0 -49 0 0 0 -49 5 -50 6 -49 11 -47 12 -47 14 -46 17 -47 20 -44 20 -42 22 -41 26 -42 28 -39 31 -39 31 -36 34 -37 34 -33 37 -31 40 -32 39 -28 43 -26 42 -26 43 -24 48 -23 45 -18 48 -18 51 -16 48 -13 51 -10 54 -8 51 -8 53 -2 57 -3 1531 0 0 974 -472 0" stroke="#000000" stroke-width="20" fill="none" />
    <path d="M 54545 8280 l 0 0 60 2 59 8 54 13 56 18 51 24 48 26 46 31 42 36 37 39 34 42 31 44 25 47 20 49 14 52 9 54 3 55 0 0 -3 55 -9 54 -14 52 -20 49 -25 47 -31 44 -34 42 -37 39 -42 36 -46 31 -48 26 -51 24 -56 18 -54 13 -59 8 -60 2 0 0 -62 -2 -57 -8 -56 -13 -54 -18 -51 -24 -48 -26 -45 -31 -43 -36 -40 -39 -34 -42 -28 -44 -25 -47 -20 -49 -14 -52 -9 -54 -3 -55 0 0 3 -55 9 -54 14 -52 20 -49 25 -47 28 -44 34 -42 40 -39 43 -36 45 -31 48 -26 51 -24 54 -18 56 -13 57 -8 62 -2" stroke="#000000" stroke-width="20" fill="none" />
  </g>
  <path d="M 53460 8820 l -2280 0" stroke="#FF0000" stroke-width="40" fill="none" />
  <path d="M 58220 8280 l -2080 0" stroke="#FF0000" stroke-width="40" fill="none" />
  <path d="M 51240 4680 l 0 4140" stroke="#FF0000" stroke-width="40" fill="none" />
  <path d="M 58220 4200 l 0 4100" stroke="#FF0000" stroke-width="40" fill="none" />
  <g name="TankWithRivets3">
    <path d="M 14815 30012 l 0 -5224 -5343 0 0 5224 0 15 14 15 14 8 29 15 29 8 35 15 43 8 43 15 57 7 57 8 64 15 72 8 78 8 78 7 86 8 86 7 92 16 100 0 100 7 100 8 114 7 107 8 114 8 122 0 121 7 121 0 129 8 128 0 136 0 128 0 135 8 143 0 136 0 135 -8 129 0 135 0 129 0 128 -8 121 0 122 -7 121 0 114 -8 107 -8 114 -7 100 -8 100 -7 100 0 92 -16 86 -7 86 -8 78 -7 79 -8 71 -8 64 -15 57 -8 57 -7 43 -15 43 -8 36 -15 28 -8 29 -15 14 -8 14 -15 0 -15 0 0" stroke-width="0" fill="#969696" />
    <path d="M 14444 30012 l 0 -160 0 -168 0 -159 0 -168 0 -160 0 -167 7 -160 0 -168 0 -160 0 -167 0 -160 0 -168 0 -160 0 -167 0 -160 0 -168 0 -160 0 -159 0 -168 0 -160 0 -167 0 -160 0 -168 0 -160 0 -160 -7 -167 0 -160 0 -168 0 -160 0 -167 0 -160 0 -167 -142 0 -143 0 -143 0 -142 0 -150 0 -143 0 -143 0 -142 0 -143 0 -143 0 -142 0 -150 0 -143 0 -143 0 -142 0 -143 0 -143 0 -142 0 -150 0 -143 0 -142 0 -143 0 -143 0 -150 0 -142 0 -143 0 -143 0 -142 0 -143 0 -143 0 -149 0 -143 0 0 167 0 160 0 167 0 160 0 168 0 160 0 167 0 160 0 160 0 168 0 160 0 167 0 160 0 168 0 159 0 160 0 168 0 160 0 167 0 160 0 168 0 160 0 167 0 160 0 168 0 160 0 167 0 160 0 168 0 159 0 168 0 160 7 15 7 8 14 15 22 8 21 15 36 7 36 16 42 7 43 15 50 8 57 8 57 15 64 8 72 7 71 8 79 7 78 8 86 8 85 7 93 8 93 7 93 8 99 0 100 8 107 0 107 7 107 0 114 8 115 0 114 0 114 0 121 0 114 0 122 0 114 0 114 0 107 -8 107 0 107 -7 107 0 100 -8 100 0 99 -8 93 -7 86 -8 93 -7 78 -8 86 -8 71 -7 71 -8 72 -7 64 -8 57 -15 57 -8 50 -8 50 -15 43 -7 35 -16 29 -7 28 -15 22 -8 14 -15 7 -8 0 -15 0 0" stroke-width="0" fill="#A3A3A3" />
    <path d="M 14073 30012 l 0 -160 0 -168 0 -159 0 -168 0 -160 0 -167 0 -160 0 -168 0 -160 0 -167 0 -160 0 -168 0 -160 0 -167 0 -160 0 -168 0 -160 0 -159 0 -168 0 -160 0 -167 0 -160 0 -168 0 -160 0 -160 0 -167 0 -160 0 -168 0 -160 0 -167 0 -160 0 -167 -121 0 -121 0 -122 0 -114 0 -121 0 -121 0 -122 0 -121 0 -121 0 -121 0 -122 0 -121 0 -114 0 -121 0 -122 0 -121 0 -121 0 -121 0 -122 0 -121 0 -121 0 -114 0 -122 0 -121 0 -121 0 -121 0 -122 0 -121 0 -121 0 -122 0 -121 0 -121 0 0 167 0 160 0 167 0 160 0 168 0 160 7 167 0 160 0 160 0 168 0 160 0 167 0 160 0 168 0 159 0 160 0 168 0 160 0 167 0 160 0 168 0 160 0 167 0 160 0 168 -7 160 0 167 0 160 0 168 0 159 0 168 0 160 7 15 7 8 14 15 15 8 21 15 29 7 28 16 36 7 35 15 43 8 50 8 50 15 50 8 57 7 64 8 65 7 64 8 71 8 71 7 79 8 78 7 79 8 85 0 86 8 86 0 85 7 93 0 93 8 100 0 92 0 100 0 100 0 100 0 93 0 100 0 92 0 93 -8 93 0 93 -7 85 0 86 -8 85 0 79 -8 78 -7 72 -8 78 -7 71 -8 65 -8 64 -7 57 -8 57 -7 57 -8 50 -15 43 -8 43 -8 42 -15 36 -7 29 -16 28 -7 22 -15 14 -8 14 -15 7 -8 0 -15 0 0" stroke-width="0" fill="#B4B4B4" />
    <path d="M 13702 30012 l 0 -160 0 -168 0 -159 0 -168 0 -160 0 -167 0 -160 0 -168 0 -160 0 -167 0 -160 0 -168 0 -160 0 -167 0 -160 0 -168 0 -160 0 -159 0 -168 0 -160 0 -167 0 -160 0 -168 0 -160 0 -160 0 -167 0 -160 0 -168 0 -160 0 -167 0 -160 0 -167 -100 0 -92 0 -100 0 -93 0 -100 0 -100 0 -92 0 -100 0 -100 0 -93 0 -100 0 -100 0 -92 0 -100 0 -100 0 -93 0 -100 0 -92 0 -100 0 -100 0 -93 0 -100 0 -100 0 -92 0 -100 0 -100 0 -93 0 -100 0 -100 0 -92 0 -100 0 -100 0 0 167 0 160 0 167 0 160 0 168 0 160 7 167 0 160 0 160 0 168 0 160 0 167 0 160 0 168 0 159 0 160 0 168 0 160 0 167 0 160 0 168 0 160 0 167 0 160 0 168 -7 160 0 167 0 160 0 168 0 159 0 168 0 160 7 15 7 8 7 15 14 8 15 15 21 7 29 16 28 7 29 15 35 8 36 8 43 15 43 8 43 7 49 8 50 7 57 8 58 8 57 7 64 8 64 7 64 8 64 0 72 8 71 0 71 7 72 0 78 8 79 0 78 0 79 0 78 0 79 0 78 0 79 0 78 0 71 -8 79 0 71 -7 72 0 64 -8 71 0 64 -8 64 -7 58 -8 64 -7 57 -8 50 -8 50 -7 50 -8 50 -7 42 -8 43 -15 36 -8 36 -8 28 -15 29 -7 21 -16 21 -7 22 -15 14 -8 7 -15 7 -8 0 -15 0 0" stroke-width="0" fill="#C2C2C2" />
    <path d="M 13331 30012 l 0 -160 0 -168 0 -159 0 -168 0 -160 0 -167 7 -160 0 -168 0 -160 0 -167 0 -160 0 -168 0 -160 0 -167 0 -160 0 -168 0 -160 0 -159 0 -168 0 -160 0 -167 0 -160 0 -168 0 -160 0 -160 -7 -167 0 -160 0 -168 0 -160 0 -167 0 -160 0 -167 -71 0 -71 0 -79 0 -71 0 -79 0 -71 0 -71 0 -79 0 -71 0 -79 0 -71 0 -78 0 -72 0 -71 0 -79 0 -71 0 -71 0 -79 0 -71 0 -78 0 -72 0 -71 0 -79 0 -71 0 -78 0 -72 0 -78 0 -72 0 -78 0 -71 0 -72 0 -78 0 0 167 0 160 0 167 0 160 0 168 0 160 0 167 0 160 0 160 0 168 0 160 0 167 0 160 0 168 0 159 0 160 0 168 0 160 0 167 0 160 0 168 0 160 0 167 0 160 0 168 0 160 0 167 0 160 0 168 0 159 0 168 0 160 0 15 7 8 7 15 14 8 7 15 22 7 14 16 22 7 28 15 21 8 29 8 36 15 28 8 36 7 43 8 35 7 43 8 43 8 43 7 50 8 50 7 50 8 49 0 50 8 58 0 49 7 58 0 57 8 64 0 57 0 57 0 64 0 57 0 64 0 57 0 58 0 57 -8 57 0 57 -7 50 0 57 -8 50 0 50 -8 50 -7 42 -8 50 -7 43 -8 36 -8 43 -7 35 -8 36 -7 36 -8 28 -15 29 -8 28 -8 22 -15 21 -7 21 -16 15 -7 14 -15 7 -8 14 -15 0 -8 0 -15 0 0" stroke-width="0" fill="#D2D2D2" />
    <path d="M 12960 30012 l 0 -160 0 -168 0 -159 0 -168 0 -160 0 -167 0 -160 0 -168 0 -160 0 -167 0 -160 0 -168 0 -160 0 -167 0 -160 0 -168 0 -160 0 -159 0 -168 0 -160 0 -167 0 -160 0 -168 0 -160 0 -160 0 -167 0 -160 0 -168 0 -160 0 -167 0 -160 0 -167 -50 0 -49 0 -50 0 -50 0 -57 0 -50 0 -50 0 -50 0 -50 0 -50 0 -57 0 -50 0 -50 0 -50 0 -50 0 -50 0 -50 0 -50 0 -50 0 -57 0 -50 0 -50 0 -50 0 -49 0 -50 0 -58 0 -49 0 -50 0 -50 0 -50 0 -50 0 -57 0 0 167 0 160 0 167 0 160 0 168 0 160 7 167 0 160 0 160 0 168 0 160 0 167 0 160 0 168 0 159 0 160 0 168 0 160 0 167 0 160 0 168 0 160 0 167 0 160 0 168 -7 160 0 167 0 160 0 168 0 159 0 168 0 160 7 23 14 23 22 22 21 23 36 23 42 23 50 15 50 15 57 16 65 15 64 15 71 8 79 7 78 8 79 0 85 0 79 0 85 0 79 -8 71 -7 71 -8 72 -15 57 -15 64 -16 50 -15 50 -15 36 -23 35 -23 29 -23 21 -22 14 -23 0 -23 0 0" stroke-width="0" fill="#DEDEDE" />
    <path d="M 12589 30012 l 0 -5224 -891 0 0 5224 0 30 7 23 14 23 14 23 22 15 21 23 22 15 28 15 36 16 35 15 36 15 36 8 43 7 42 8 43 0 50 8 43 -8 43 0 43 -8 42 -7 36 -8 36 -15 35 -15 36 -16 29 -15 21 -15 21 -23 22 -15 14 -23 14 -23 7 -23 0 -30 0 0" stroke-width="0" fill="#F0F0F0" />
    <path d="M 14815 30012 l 0 -5224 -5343 0 0 5224 0 0 0 15 14 15 14 8 29 15 29 8 35 15 43 8 43 15 57 7 57 8 64 15 72 8 78 8 78 7 86 8 86 7 92 16 100 0 100 7 100 8 114 7 107 8 114 8 122 0 121 7 121 0 129 8 128 0 136 0 128 0 135 8 143 0 0 0 136 0 135 -8 129 0 135 0 129 0 128 -8 121 0 122 -7 121 0 114 -8 107 -8 114 -7 100 -8 100 -7 100 0 92 -16 86 -7 86 -8 78 -7 79 -8 71 -8 64 -15 57 -8 57 -7 43 -15 43 -8 36 -15 28 -8 29 -15 14 -8 14 -15 0 -15" stroke="#000000" stroke-width="20" fill="none" />
    <path d="M 12147 24544 l 136 0 135 8 129 0 135 0 129 0 128 8 121 0 122 7 121 0 114 8 107 8 114 7 100 8 100 7 100 0 92 16 86 7 86 8 78 7 79 8 71 8 64 15 57 8 57 7 43 15 43 8 36 15 28 8 29 15 14 8 14 15 0 15 0 8 -14 15 -14 8 -29 15 -28 7 -36 16 -43 7 -43 15 -57 8 -57 15 -64 8 -71 8 -79 7 -78 8 -86 15 -86 8 -92 7 -100 8 -100 7 -100 8 -114 0 -107 8 -114 7 -121 0 -122 8 -121 0 -128 8 -129 0 -135 7 -129 0 -135 0 -136 0 -143 0 -135 0 -128 0 -136 -7 -128 0 -129 -8 -121 0 -121 -8 -122 0 -114 -7 -107 -8 -114 0 -100 -8 -100 -7 -100 -8 -92 -7 -86 -8 -86 -15 -78 -8 -78 -7 -72 -8 -64 -8 -57 -15 -57 -8 -43 -15 -43 -7 -35 -16 -29 -7 -29 -15 -14 -8 -14 -15 0 -8 0 -15 14 -15 14 -8 29 -15 29 -8 35 -15 43 -8 43 -15 57 -7 57 -8 64 -15 72 -8 78 -8 78 -7 86 -8 86 -7 92 -16 100 0 100 -7 100 -8 114 -7 107 -8 114 -8 122 0 121 -7 121 0 129 -8 128 0 136 0 128 0 135 -8 143 0 0 0" stroke-width="0" fill="#C0C0C0" />
    <path d="M 12147 24544 l 0 0 136 0 135 8 129 0 135 0 129 0 128 8 121 0 122 7 121 0 114 8 107 8 114 7 100 8 100 7 100 0 92 16 86 7 86 8 78 7 79 8 71 8 64 15 57 8 57 7 43 15 43 8 36 15 28 8 29 15 14 8 14 15 0 15 0 0 0 8 -14 15 -14 8 -29 15 -28 7 -36 16 -43 7 -43 15 -57 8 -57 15 -64 8 -71 8 -79 7 -78 8 -86 15 -86 8 -92 7 -100 8 -100 7 -100 8 -114 0 -107 8 -114 7 -121 0 -122 8 -121 0 -128 8 -129 0 -135 7 -129 0 -135 0 -136 0 0 0 -143 0 -135 0 -128 0 -136 -7 -128 0 -129 -8 -121 0 -121 -8 -122 0 -114 -7 -107 -8 -114 0 -100 -8 -100 -7 -100 -8 -92 -7 -86 -8 -86 -15 -78 -8 -78 -7 -72 -8 -64 -8 -57 -15 -57 -8 -43 -15 -43 -7 -35 -16 -29 -7 -29 -15 -14 -8 -14 -15 0 -8 0 0 0 -15 14 -15 14 -8 29 -15 29 -8 35 -15 43 -8 43 -15 57 -7 57 -8 64 -15 72 -8 78 -8 78 -7 86 -8 86 -7 92 -16 100 0 100 -7 100 -8 114 -7 107 -8 114 -8 122 0 121 -7 121 0 129 -8 128 0 136 0 128 0 135 -8 143 0" stroke="#000000" stroke-width="20" fill="none" />
    <path d="M 10806 24994 l 0 5231" stroke="#000000" stroke-width="20" fill="none" />
    <path d="M 10585 25138 l 114 0 0 122 -114 0 0 -122 0 0" stroke-width="0" fill="#808080" />
    <path d="M 10585 25618 l 114 0 0 122 -114 0 0 -122 0 0" stroke-width="0" fill="#808080" />
    <path d="M 10585 26090 l 114 0 0 122 -114 0 0 -122 0 0" stroke-width="0" fill="#808080" />
    <path d="M 10585 26570 l 114 0 0 114 -114 0 0 -114 0 0" stroke-width="0" fill="#808080" />
    <path d="M 10585 27042 l 114 0 0 122 -114 0 0 -122 0 0" stroke-width="0" fill="#808080" />
    <path d="M 10585 27514 l 114 0 0 122 -114 0 0 -122 0 0" stroke-width="0" fill="#808080" />
    <path d="M 10585 27994 l 114 0 0 122 -114 0 0 -122 0 0" stroke-width="0" fill="#808080" />
    <path d="M 10585 28466 l 114 0 0 122 -114 0 0 -122 0 0" stroke-width="0" fill="#808080" />
    <path d="M 10585 28946 l 114 0 0 114 -114 0 0 -114 0 0" stroke-width="0" fill="#808080" />
    <path d="M 10585 29418 l 114 0 0 122 -114 0 0 -122 0 0" stroke-width="0" fill="#808080" />
    <path d="M 10585 29898 l 114 0 0 114 -114 0 0 -114 0 0" stroke-width="0" fill="#808080" />
    <path d="M 13032 24994 l 0 5231" stroke="#000000" stroke-width="20" fill="none" />
    <path d="M 12811 25138 l 114 0 0 122 -114 0 0 -122 0 0" stroke-width="0" fill="#969696" />
    <path d="M 12811 25618 l 114 0 0 122 -114 0 0 -122 0 0" stroke-width="0" fill="#969696" />
    <path d="M 12811 26090 l 114 0 0 122 -114 0 0 -122 0 0" stroke-width="0" fill="#969696" />
    <path d="M 12811 26570 l 114 0 0 114 -114 0 0 -114 0 0" stroke-width="0" fill="#969696" />
    <path d="M 12811 27042 l 114 0 0 122 -114 0 0 -122 0 0" stroke-width="0" fill="#969696" />
    <path d="M 12811 27514 l 114 0 0 122 -114 0 0 -122 0 0" stroke-width="0" fill="#969696" />
    <path d="M 12811 27994 l 114 0 0 122 -114 0 0 -122 0 0" stroke-width="0" fill="#969696" />
    <path d="M 12811 28466 l 114 0 0 122 -114 0 0 -122 0 0" stroke-width="0" fill="#969696" />
    <path d="M 12811 28946 l 114 0 0 114 -114 0 0 -114 0 0" stroke-width="0" fill="#969696" />
    <path d="M 12811 29418 l 114 0 0 122 -114 0 0 -122 0 0" stroke-width="0" fill="#969696" />
    <path d="M 12811 29898 l 114 0 0 114 -114 0 0 -114 0 0" stroke-width="0" fill="#969696" />
  </g>
  <g name="Heating15">
    <path d="M 29854 29237 l -27 184 -60 176 -101 153 -123 131 -157 115 -171 78 -188 49 -203 18 -202 -25 -194 -56 -169 -84 -145 -120 -126 -135 -88 -157 -54 -178 -20 -183 27 -184 60 -176 93 -153 131 -131 149 -115 171 -78 196 -49 203 -18 202 25 186 55 169 84 153 121 118 135 96 157 54 178 20 183 0 0" stroke-width="0" fill="#00D200" />
    <path d="M 29854 29237 l 0 0 -27 184 -60 176 -101 153 -123 131 -157 115 -171 78 -188 49 -203 18 0 0 -202 -25 -194 -56 -169 -84 -145 -120 -126 -135 -88 -157 -54 -178 -20 -183 0 0 27 -184 60 -176 93 -153 131 -131 149 -115 171 -78 196 -49 203 -18 0 0 202 25 186 55 169 84 153 121 118 135 96 157 54 178 20 183" stroke="#000000" stroke-width="20" fill="none" />
    <path d="M 27946 29315 l 1394 24 -4 236 388 -340 -376 -353 -4 229 -1394 -24 -4 228 0 0" stroke-width="0" fill="#000000" />
    <path d="M 27946 29315 l 1394 24 -4 236 388 -340 -376 -353 -4 229 -1394 -24 -4 228" stroke="#000000" stroke-width="20" fill="none" />
  </g>
  <g id="BARGRAPH1" PB:IsMultiState="False" PB:Lower="0" PB:Orientation="0" PB:CanonicalNumberFormat="General" PBD:PtTagName="\\\" PB:Start="0" PB:Upper="100" PB:Type="12">
    <rect x="11180" y="25300" width="1580" height="4960" stroke-width="0" fill="#C0C0C0" id="BARGRAPH1_pbBarBoundingRectEl" />
    <rect x="11180" y="25300" width="1580" height="4960" stroke-width="0" fill="#00D200" id="BARGRAPH1_pbBarTagRectEl" stroke="none" PBD:Property="" />
  </g>
  <g name="Heating15">
    <path d="M 29794 25997 l -27 184 -60 176 -101 153 -123 131 -157 115 -171 78 -188 49 -203 18 -202 -25 -194 -56 -169 -84 -145 -120 -126 -135 -88 -157 -54 -178 -20 -183 27 -184 60 -176 93 -153 131 -131 149 -115 171 -78 196 -49 203 -18 202 25 186 55 169 84 153 121 118 135 96 157 54 178 20 183 0 0" stroke-width="0" fill="#00D200" />
    <path d="M 29794 25997 l 0 0 -27 184 -60 176 -101 153 -123 131 -157 115 -171 78 -188 49 -203 18 0 0 -202 -25 -194 -56 -169 -84 -145 -120 -126 -135 -88 -157 -54 -178 -20 -183 0 0 27 -184 60 -176 93 -153 131 -131 149 -115 171 -78 196 -49 203 -18 0 0 202 25 186 55 169 84 153 121 118 135 96 157 54 178 20 183" stroke="#000000" stroke-width="20" fill="none" />
    <path d="M 27886 26075 l 1394 24 -4 236 388 -340 -376 -353 -4 229 -1394 -24 -4 228 0 0" stroke-width="0" fill="#000000" />
    <path d="M 27886 26075 l 1394 24 -4 236 388 -340 -376 -353 -4 229 -1394 -24 -4 228" stroke="#000000" stroke-width="20" fill="none" />
  </g>
  <path id="POLYGON22" d="M 29700 25860 l 3120 0" stroke="#00D200" stroke-width="40" stroke-dasharray="300,100" fill="none" />
  <path id="POLYGON23" d="M 32820 25920 l 0 3360" stroke="#00D200" stroke-width="40" stroke-dasharray="300,100" fill="none" />
  <path id="POLYGON24" d="M 29800 29220 l 3020 0" stroke="#00D200" stroke-width="40" stroke-dasharray="300,100" fill="none" />
  <path id="LINE24" d="M 24520 25980 l 3120 0" stroke="#00D200" stroke-width="40" stroke-dasharray="300,100" fill="none" />
  <path id="LINE25" d="M 24400 29280 l 3380 0" stroke="#00D200" stroke-width="40" stroke-dasharray="300,100" fill="none" />
  <path id="LINE26" d="M 24480 25960 l 0 3300" stroke="#00D200" stroke-width="40" stroke-dasharray="300,100" fill="none" />
  <path id="POLYGON26" d="M 28460 25140 l 740 1640" stroke="#FF0000" stroke-width="40" fill="none" />
  <path id="POLYGON27" d="M 24440 27580 l -9740 0" stroke="#00D200" stroke-width="40" stroke-dasharray="300,100" fill="none" />
  <path id="POLYGON29" d="M 12860 24640 l 0 -3500" stroke="#00D200" stroke-width="40" stroke-dasharray="300,100" fill="none" />
  <path id="POLYGON30" d="M 8360 21020 l 29420 0" stroke="#00D200" stroke-width="40" stroke-dasharray="300,100" fill="none" />
  <path id="POLYGON43" d="M 58220 6080 l 3800 0" stroke="#FF0000" stroke-width="40" fill="none" />
  <path id="POLYGON44" d="M 62020 5960 l 0 -1720" stroke="#FF0000" stroke-width="40" fill="none" />
  <path id="POLYGON45" d="M 45080 9380 l 0 -2720" stroke="#FF0000" stroke-width="40" fill="none" />
  <path id="POLYGON46" d="M 51240 6660 l -6180 0" stroke="#FF0000" stroke-width="40" fill="none" />
  <g name="a3DGateValve">
    <path d="M 8619 11256 l 0 -1672 2367 1672 0 -1672 -2367 1672 0 0" stroke-width="0" fill="#808080" />
    <path d="M 8619 11169 l 0 -1498 2367 1498 0 -1498 -2367 1498 0 0" stroke-width="0" fill="#969696" />
    <path d="M 8619 10995 l 0 -1157 2367 1157 0 -1157 -2367 1157 0 0" stroke-width="0" fill="#B4B4B4" />
    <path d="M 8619 10828 l 0 -816 2367 816 0 -816 -2367 816 0 0" stroke-width="0" fill="#CCCCCC" />
    <path d="M 8619 10694 l 0 -555 2367 555 0 -555 -2367 555 0 0" stroke-width="0" fill="#DEDEDE" />
    <path d="M 8619 10527 l 0 -214 2367 214 0 -214 -2367 214 0 0" stroke-width="0" fill="#FFFFFF" />
    <path d="M 8619 11256 l 0 -1672 2367 1672 0 -1672 -2367 1672" stroke="#000000" stroke-width="20" fill="none" />
  </g>
  <path id="POLYGON54" d="M 9780 10300 l 0 -2960" stroke="#FFFFFF" stroke-width="40" fill="none" />
  <path id="POLYGON55" d="M 9020 9300 l 1580 0" stroke="#FFFFFF" stroke-width="40" fill="none" />
  <path id="LINE55" d="M 8920 8540 l 1580 0" stroke="#FFFFFF" stroke-width="40" fill="none" />
  <path id="LINE56" d="M 8980 7840 l 1580 0" stroke="#FFFFFF" stroke-width="40" fill="none" />
  <g name="Reducer1">
    <path d="M 28088 11320 l 70 4032 -9619 -591 -44 -2514 9593 -927 0 0" stroke-width="0" fill="#808080" />
    <path d="M 28093 11632 l 60 3408 -9617 -472 -37 -2128 9594 -808 0 0" stroke-width="0" fill="#969696" />
    <path d="M 28100 12014 l 46 2644 -9614 -321 -29 -1667 9597 -656 0 0" stroke-width="0" fill="#B4B4B4" />
    <path d="M 28108 12514 l 29 1645 -9611 -140 -18 -1031 9600 -474 0 0" stroke-width="0" fill="#CCCCCC" />
    <path d="M 28116 12961 l 13 751 -9608 22 -8 -461 9603 -312 0 0" stroke-width="0" fill="#DEDEDE" />
    <path d="M 28122 13272 l 2 130 -9606 144 -2 -86 9606 -188 0 0" stroke-width="0" fill="#FFFFFF" />
    <path d="M 28088 11320 l 70 4032 -9619 -591 -44 -2514 9593 -927" stroke="#000000" stroke-width="20" fill="none" />
  </g>
  <path id="POLYGON33" d="M 18460 13560 l -4420 0" stroke="#FFFFFF" stroke-width="80" fill="none" />
  <path id="LINE33" d="M 32580 13440 l -4420 0" stroke="#FFFFFF" stroke-width="80" fill="none" />
  <path id="POLYGON34" d="M 29560 11600 l 0 1700" stroke="#FF0000" stroke-width="40" fill="none" />
  <path id="POLYGON35" d="M 29480 11600 l 1220 0" stroke="#FF0000" stroke-width="40" fill="none" />
  <path id="POLYGON36" d="M 30780 11600 l 0 1700" stroke="#FF0000" stroke-width="40" fill="none" />
  <path id="LINE36" d="M 15160 11640 l 0 1700" stroke="#FF0000" stroke-width="40" fill="none" />
  <path id="LINE37" d="M 15080 11640 l 1220 0" stroke="#FF0000" stroke-width="40" fill="none" />
  <path id="LINE38" d="M 16380 11640 l 0 1700" stroke="#FF0000" stroke-width="40" fill="none" />
  <path id="POLYGON47" d="M 14400 17940 l 21460 0" stroke="#FF0000" stroke-width="40" fill="none" />
  <path id="POLYGON48" d="M 35860 17940 l 0 -12480" stroke="#FF0000" stroke-width="40" fill="none" />
  <path id="POLYGON49" d="M 19060 10520 l 0 1840" stroke="#000000" stroke-width="40" fill="none" />
  <path id="POLYGON50" d="M 20820 12360 l 0 -1840" stroke="#000000" stroke-width="40" fill="none" />
  <path id="ELLIPSE5" d="M 20900 10556 l -20 39 -20 24 -20 19 -20 16 -20 14 -20 12 -20 11 -20 11 -20 9 -20 9 -20 8 -20 8 -20 7 -20 7 -20 7 -20 6 -20 5 -20 6 -20 5 -20 5 -20 5 -20 4 -20 4 -20 4 -20 4 -20 4 -20 3 -20 3 -20 3 -20 3 -20 3 -20 3 -20 2 -20 2 -20 2 -20 2 -20 2 -20 1 -20 2 -20 1 -20 1 -20 1 -20 1 -20 1 -20 0 -20 1 -20 0 -20 0 -20 0 0 0 -20 0 -20 0 -20 0 -20 -1 -20 0 -20 -1 -20 -1 -20 -1 -20 -1 -20 -1 -20 -2 -20 -1 -20 -2 -20 -2 -20 -2 -20 -2 -20 -2 -20 -3 -20 -3 -20 -3 -20 -3 -20 -3 -20 -3 -20 -4 -20 -4 -20 -4 -20 -4 -20 -4 -20 -5 -20 -5 -20 -5 -20 -6 -20 -5 -20 -6 -20 -7 -20 -7 -20 -7 -20 -8 -20 -8 -20 -9 -20 -9 -20 -11 -20 -11 -20 -12 -20 -14 -20 -16 -20 -19 -20 -24 -20 -39 0 -71 20 -39 20 -24 20 -19 20 -16 20 -14 20 -12 20 -11 20 -11 20 -9 20 -9 20 -8 20 -8 20 -7 20 -7 20 -7 20 -6 20 -5 20 -6 20 -5 20 -5 20 -5 20 -4 20 -4 20 -4 20 -4 20 -4 20 -3 20 -3 20 -3 20 -3 20 -3 20 -3 20 -2 20 -2 20 -2 20 -2 20 -2 20 -1 20 -2 20 -1 20 -1 20 -1 20 -1 20 -1 20 0 20 -1 20 0 20 0 20 -1 0 0 20 1 20 0 20 0 20 1 20 0 20 1 20 1 20 1 20 1 20 1 20 2 20 1 20 2 20 2 20 2 20 2 20 2 20 3 20 3 20 3 20 3 20 3 20 3 20 4 20 4 20 4 20 4 20 4 20 5 20 5 20 5 20 6 20 5 20 6 20 7 20 7 20 7 20 8 20 8 20 9 20 9 20 11 20 11 20 12 20 14 20 16 20 19 20 24 20 39 0 71" stroke="#000000" stroke-width="40" fill="none" />
  <path id="POLYGON51" d="M 19000 10400 l 0 -2160" stroke="#000000" stroke-width="40" fill="none" />
  <path id="LINE51" d="M 20820 10320 l 0 -2160" stroke="#000000" stroke-width="40" fill="none" />
  <path id="POLYGON52" d="M 18380 9560 l 1140 60" stroke="#000000" stroke-width="40" fill="none" />
  <path id="POLYGON53" d="M 18380 8820 l 1080 -60" stroke="#000000" stroke-width="40" fill="none" />
  <path id="LINE53" d="M 20120 9440 l 1340 80" stroke="#000000" stroke-width="40" fill="none" />
  <path id="LINE54" d="M 20120 8680 l 1280 -60" stroke="#000000" stroke-width="40" fill="none" />
  <path id="POLYGON56" d="M 19060 10580 l -8140 0" stroke="#FF0000" stroke-width="40" fill="none" />
  <g name="StraightArrow1">
    <path d="M 4066 10665 l -1500 774 0 -516 -2352 0 0 -526 2352 0 0 -516 1500 784 0 0" stroke-width="0" fill="#FF0000" />
    <path d="M 4066 10665 l -1500 774 0 -516 -2352 0 0 -526 2352 0 0 -516 1500 784" stroke="#000000" stroke-width="20" fill="none" />
  </g>
  <path id="POLYGON6" d="M 4020 10660 l 4620 0" stroke="#FF0000" stroke-width="40" fill="none" />
  <path id="POLYGON7" d="M 21520 9500 l 12780 0" stroke="#FF0000" stroke-width="40" fill="none" />
  <path id="POLYGON8" d="M 34300 9500 l 0 8340" stroke="#FF0000" stroke-width="40" fill="none" />
  <path id="POLYGON17" d="M 18400 9600 l -1000 0" stroke="#FF0000" stroke-width="40" fill="none" />
  <path id="POLYGON18" d="M 17460 9620 l 0 -4220" stroke="#FF0000" stroke-width="40" fill="none" />
  <path id="POLYGON19" d="M 17460 5480 l 18360 0" stroke="#FF0000" stroke-width="40" fill="none" />
  <path id="POLYGON25" d="M 15680 11480 l 0 -740" stroke="#FF0000" stroke-width="40" fill="none" />
  <path id="POLYGON37" d="M 15680 10260 l 0 -3920" stroke="#FF0000" stroke-width="40" fill="none" />
  <path id="POLYGON39" d="M 15680 6400 l 1320 0" stroke="#FF0000" stroke-width="40" fill="none" />
  <path id="POLYGON40" d="M 17920 6400 l 17180 0" stroke="#FF0000" stroke-width="40" fill="none" />
  <path id="POLYGON57" d="M 36420 6340 l 6640 60" stroke="#FF0000" stroke-width="40" fill="none" />
  <path id="POLYGON58" d="M 43120 6340 l 0 3160" stroke="#FF0000" stroke-width="40" fill="none" />
  <path id="POLYGON59" d="M 18460 8700 l 0 -2300" stroke="#FF0000" stroke-width="20" fill="none" />
  <path id="POLYGON60" d="M 19500 8760 l 0 -2440" stroke="#FF0000" stroke-width="20" fill="none" />
  <path id="POLYGON61" d="M 20120 8700 l 0 -2300" stroke="#FF0000" stroke-width="20" fill="none" />
  <path id="POLYGON62" d="M 21380 8560 l 0 -2220" stroke="#FF0000" stroke-width="20" fill="none" />
  <path id="POLYGON63" d="M 30120 11480 l 0 -1740" stroke="#FF0000" stroke-width="40" fill="none" />
  <path id="POLYGON64" d="M 30060 9060 l 0 -2660" stroke="#FF0000" stroke-width="40" fill="none" />
  <path id="POLYGON65" d="M 29060 13580 l 0 4400" stroke="#FF0000" stroke-width="20" fill="none" />
  <path id="POLYGON66" d="M 27740 11620 l 0 -1260" stroke="#FF0000" stroke-width="40" fill="none" />
  <path id="POLYGON67" d="M 27740 10420 l -1000 0" stroke="#FF0000" stroke-width="40" fill="none" />
  <g name="a3DGateValve">
    <path d="M 25681 10739 l 0 -758 1080 758 0 -758 -1080 758 0 0" stroke-width="0" fill="#808080" />
    <path d="M 25681 10700 l 0 -680 1080 680 0 -680 -1080 680 0 0" stroke-width="0" fill="#969696" />
    <path d="M 25681 10621 l 0 -525 1080 525 0 -525 -1080 525 0 0" stroke-width="0" fill="#B4B4B4" />
    <path d="M 25681 10545 l 0 -370 1080 370 0 -370 -1080 370 0 0" stroke-width="0" fill="#CCCCCC" />
    <path d="M 25681 10484 l 0 -251 1080 251 0 -251 -1080 251 0 0" stroke-width="0" fill="#DEDEDE" />
    <path d="M 25681 10409 l 0 -98 1080 98 0 -98 -1080 98 0 0" stroke-width="0" fill="#FFFFFF" />
    <path d="M 25681 10739 l 0 -758 1080 758 0 -758 -1080 758" stroke="#000000" stroke-width="20" fill="none" />
  </g>
  <path id="POLYGON68" d="M 25680 10360 l -1080 0" stroke="#FF0000" stroke-width="40" fill="none" />
  <g name="StraightArrow1">
    <path d="M 22284 10317 l 916 -459 0 306 1436 0 0 312 -1436 0 0 306 -916 -465 0 0" stroke-width="0" fill="#FF0000" />
    <path d="M 22284 10317 l 916 -459 0 306 1436 0 0 312 -1436 0 0 306 -916 -465" stroke="#000000" stroke-width="20" fill="none" />
  </g>
  <path id="POLYGON69" d="M 10580 8560 l 1520 0" stroke="#FF0000" stroke-width="40" fill="none" />
  <path id="POLYGON70" d="M 12100 8560 l 0 -4260" stroke="#FF0000" stroke-width="40" fill="none" />
  <path id="POLYGON71" d="M 12100 4360 l 28300 0" stroke="#FF0000" stroke-width="40" fill="none" />
  <path id="POLYGON72" d="M 40400 4300 l 0 2100" stroke="#FF0000" stroke-width="40" fill="none" />
  <g name="StraightArrow1">
    <path d="M 10814 17855 l 1500 -774 0 516 2352 0 0 526 -2352 0 0 516 -1500 -784 0 0" stroke-width="0" fill="#FF0000" />
    <path d="M 10814 17855 l 1500 -774 0 516 2352 0 0 526 -2352 0 0 516 -1500 -784" stroke="#000000" stroke-width="20" fill="none" />
  </g>
  <g id="TEXT1">
    <rect x="-540" y="8460" width="8060" height="1960" stroke-width="0" fill="none" id="TEXT1_pbTextBoundingRectEl" />
    <text fill="#000000" font-family="Helvetica" font-size="800" text-anchor="middle" x="3490" y="9840" id="TEXT1_pbTextEl">高压蒸汽进汽</text>
  </g>
  <g id="TEXT3">
    <rect x="20760" y="7720" width="10060" height="1960" stroke-width="0" fill="none" id="TEXT3_pbTextBoundingRectEl" />
    <text fill="#000000" font-family="Helvetica" font-size="800" text-anchor="middle" x="25790" y="9100" id="TEXT3_pbTextEl">排汽至中压蒸汽母管</text>
  </g>
  <g id="TEXT4">
    <rect x="19720" y="12220" width="8060" height="1960" stroke-width="0" fill="none" id="TEXT4_pbTextBoundingRectEl" />
    <text fill="#000000" font-family="Helvetica" font-size="800" text-anchor="middle" x="23750" y="13600" id="TEXT4_pbTextEl">6#小汽机</text>
  </g>
  <g id="TEXT5">
    <rect x="9520" y="15400" width="8060" height="1960" stroke-width="0" fill="none" id="TEXT5_pbTextBoundingRectEl" />
    <text fill="#000000" font-family="Helvetica" font-size="800" text-anchor="middle" x="13550" y="16780" id="TEXT5_pbTextEl">至汽平衡母管</text>
  </g>
  <g id="TEXT6">
    <rect x="8120" y="30260" width="8060" height="1960" stroke-width="0" fill="none" id="TEXT6_pbTextBoundingRectEl" />
    <text fill="#000000" font-family="Helvetica" font-size="800" text-anchor="middle" x="12150" y="31640" id="TEXT6_pbTextEl">汽机疏水箱</text>
  </g>
  <g id="TEXT7">
    <rect x="24620" y="23380" width="8060" height="1720" stroke-width="0" fill="none" id="TEXT7_pbTextBoundingRectEl" />
    <text fill="#000000" font-family="Helvetica" font-size="800" text-anchor="middle" x="28650" y="24640" id="TEXT7_pbTextEl">1#小机1#疏水泵</text>
  </g>
  <g id="TEXT9">
    <rect x="24620" y="29980" width="8060" height="1720" stroke-width="0" fill="none" id="TEXT9_pbTextBoundingRectEl" />
    <text fill="#000000" font-family="Helvetica" font-size="800" text-anchor="middle" x="28650" y="31240" id="TEXT9_pbTextEl">1#小机2#疏水泵</text>
  </g>
  <g id="TEXT10">
    <rect x="46780" y="24660" width="8060" height="1720" stroke-width="0" fill="none" id="TEXT10_pbTextBoundingRectEl" />
    <text fill="#000000" font-family="Helvetica" font-size="800" text-anchor="middle" x="50810" y="25920" id="TEXT10_pbTextEl">至凝结水热母管</text>
  </g>
  <g id="TEXT11">
    <rect x="37480" y="21940" width="7060" height="1720" stroke-width="0" fill="none" id="TEXT11_pbTextBoundingRectEl" />
    <text fill="#000000" font-family="Helvetica" font-size="800" text-anchor="middle" x="41010" y="23200" id="TEXT11_pbTextEl">自凝结水冷母管</text>
  </g>
  <g id="TEXT12">
    <rect x="44800" y="21800" width="7060" height="1720" stroke-width="0" fill="none" id="TEXT12_pbTextBoundingRectEl" />
    <text fill="#000000" font-family="Helvetica" font-size="800" text-anchor="middle" x="48330" y="23060" id="TEXT12_pbTextEl">至凝结水热母管</text>
  </g>
  <g id="TEXT13">
    <rect x="50540" y="1380" width="8060" height="1720" stroke-width="0" fill="none" id="TEXT13_pbTextBoundingRectEl" />
    <text fill="#000000" font-family="Helvetica" font-size="800" text-anchor="middle" x="54570" y="2640" id="TEXT13_pbTextEl">1#小机1#轴流风机</text>
  </g>
  <g id="TEXT14">
    <rect x="51080" y="10320" width="8060" height="1720" stroke-width="0" fill="none" id="TEXT14_pbTextBoundingRectEl" />
    <text fill="#000000" font-family="Helvetica" font-size="800" text-anchor="middle" x="55110" y="11580" id="TEXT14_pbTextEl">1#小机2#轴流风机</text>
  </g>
  <g id="TEXT15">
    <rect x="19120" y="660" width="14420" height="1720" stroke-width="0" fill="none" id="TEXT15_pbTextBoundingRectEl" />
    <text fill="#000000" font-family="Helvetica" font-size="1280" text-anchor="middle" x="26330" y="2160" id="TEXT15_pbTextEl">6#汽动给水泵小汽机</text>
  </g>
  <path id="POLYGON73" d="M 8320 20960 l 0 -10300" stroke="#00D200" stroke-width="40" stroke-dasharray="300,100" fill="none" />
  <path id="POLYGON74" d="M 19440 14560 l 0 3980" stroke="#00D200" stroke-width="40" stroke-dasharray="300,100" fill="none" />
  <g name="a3DGateValve">
    <path d="M 19016 18312 l 813 -28 -778 1034 813 -28 -848 -978 0 0" stroke-width="0" fill="#808080" />
    <path d="M 19058 18311 l 729 -26 -694 1032 729 -26 -764 -980 0 0" stroke-width="0" fill="#969696" />
    <path d="M 19143 18308 l 562 -20 -527 1026 562 -20 -597 -986 0 0" stroke-width="0" fill="#B4B4B4" />
    <path d="M 19224 18305 l 397 -14 -362 1020 397 -14 -432 -992 0 0" stroke-width="0" fill="#CCCCCC" />
    <path d="M 19290 18302 l 269 -9 -234 1016 269 -10 -304 -997 0 0" stroke-width="0" fill="#DEDEDE" />
    <path d="M 19371 18300 l 103 -4 -68 1010 103 -4 -138 -1002 0 0" stroke-width="0" fill="#FFFFFF" />
    <path d="M 19016 18312 l 813 -28 -778 1034 813 -28 -848 -978" stroke="#000000" stroke-width="20" fill="none" />
  </g>
  <path id="POLYGON75" d="M 19440 19360 l 0 1640" stroke="#00D200" stroke-width="40" stroke-dasharray="300,100" fill="none" />
  <path id="POLYGON76" d="M 26420 14940 l 0 3520" stroke="#00D200" stroke-width="40" stroke-dasharray="300,100" fill="none" />
  <g name="a3DGateValve">
    <path d="M 25996 18552 l 813 -28 -778 1034 813 -28 -848 -978 0 0" stroke-width="0" fill="#808080" />
    <path d="M 26038 18551 l 729 -26 -694 1032 729 -26 -764 -980 0 0" stroke-width="0" fill="#969696" />
    <path d="M 26123 18548 l 562 -20 -527 1026 562 -20 -597 -986 0 0" stroke-width="0" fill="#B4B4B4" />
    <path d="M 26204 18545 l 397 -14 -362 1020 397 -14 -432 -992 0 0" stroke-width="0" fill="#CCCCCC" />
    <path d="M 26270 18542 l 269 -9 -234 1016 269 -10 -304 -997 0 0" stroke-width="0" fill="#DEDEDE" />
    <path d="M 26351 18540 l 103 -4 -68 1010 103 -4 -138 -1002 0 0" stroke-width="0" fill="#FFFFFF" />
    <path d="M 25996 18552 l 813 -28 -778 1034 813 -28 -848 -978" stroke="#000000" stroke-width="20" fill="none" />
  </g>
  <path id="POLYGON77" d="M 26480 19540 l 0 1460" stroke="#00D200" stroke-width="40" stroke-dasharray="300,100" fill="none" />
  <g id="DATAPOINT16" PB:IsMultiState="False" PBD:PtTagName="\\RTDBB\5400_PT_4452" PB:Type="7" PB:NumberFormat="0.00">
    <rect x="3740" y="7980" width="1500" height="480" stroke-width="0" fill="none" id="DATAPOINT16_pbTextBoundingRectEl" />
    <text fill="#000000" font-family="Helvetica" font-size="560" text-anchor="middle" x="4490" y="8500" id="DATAPOINT16_pbTextEl" PBD:Property="VAL">#.##</text>
  </g>
  <g id="DATAPOINT17" PB:IsMultiState="False" PBD:PtTagName="\\RTDBB\5400_FT_4151_BC" PB:Type="7" PB:NumberFormat="0.00">
    <rect x="3680" y="12320" width="1500" height="480" stroke-width="0" fill="none" id="DATAPOINT17_pbTextBoundingRectEl" />
    <text fill="#000000" font-family="Helvetica" font-size="560" text-anchor="middle" x="4430" y="12840" id="DATAPOINT17_pbTextEl" PBD:Property="VAL">#.##</text>
  </g>
  <g id="DATAPOINT18" PB:IsMultiState="False" PBD:PtTagName="\\RTDBB\5400_PT_4454" PB:Type="7" PB:NumberFormat="0.00">
    <rect x="6960" y="9160" width="1500" height="480" stroke-width="0" fill="none" id="DATAPOINT18_pbTextBoundingRectEl" />
    <text fill="#000000" font-family="Helvetica" font-size="560" text-anchor="middle" x="7710" y="9680" id="DATAPOINT18_pbTextEl" PBD:Property="VAL">#.##</text>
  </g>
  <g id="DATAPOINT19" PB:IsMultiState="False" PBD:PtTagName="\\RTDBB\5400_PT_4461" PB:Type="7" PB:NumberFormat="0.00">
    <rect x="12100" y="9560" width="1500" height="480" stroke-width="0" fill="none" id="DATAPOINT19_pbTextBoundingRectEl" />
    <text fill="#000000" font-family="Helvetica" font-size="560" text-anchor="middle" x="12850" y="10080" id="DATAPOINT19_pbTextEl" PBD:Property="VAL">#.##</text>
  </g>
  <g id="DATAPOINT20" PB:IsMultiState="False" PBD:PtTagName="\\RTDBB\5400_PT_4455" PB:Type="7" PB:NumberFormat="0.00">
    <rect x="16560" y="9860" width="1500" height="480" stroke-width="0" fill="none" id="DATAPOINT20_pbTextBoundingRectEl" />
    <text fill="#000000" font-family="Helvetica" font-size="560" text-anchor="middle" x="17310" y="10380" id="DATAPOINT20_pbTextEl" PBD:Property="VAL">#.##</text>
  </g>
  <g id="DATAPOINT21" PB:IsMultiState="False" PBD:PtTagName="\\RTDBB\5400_PT_4451" PB:Type="7" PB:NumberFormat="0.00">
    <rect x="16940" y="11400" width="1500" height="480" stroke-width="0" fill="none" id="DATAPOINT21_pbTextBoundingRectEl" />
    <text fill="#000000" font-family="Helvetica" font-size="560" text-anchor="middle" x="17690" y="11920" id="DATAPOINT21_pbTextEl" PBD:Property="VAL">#.##</text>
  </g>
  <g id="DATAPOINT22" PB:IsMultiState="False" PBD:PtTagName="\\RTDBB\5400_PT_4457" PB:Type="7" PB:NumberFormat="0.00">
    <rect x="21240" y="10840" width="1500" height="480" stroke-width="0" fill="none" id="DATAPOINT22_pbTextBoundingRectEl" />
    <text fill="#000000" font-family="Helvetica" font-size="560" text-anchor="middle" x="21990" y="11360" id="DATAPOINT22_pbTextEl" PBD:Property="VAL">#.##</text>
  </g>
  <g id="DATAPOINT23" PB:IsMultiState="False" PBD:PtTagName="\\RTDBB\5400_TT_4453" PB:Type="7" PB:NumberFormat="0.00">
    <rect x="21160" y="11480" width="1500" height="480" stroke-width="0" fill="none" id="DATAPOINT23_pbTextBoundingRectEl" />
    <text fill="#000000" font-family="Helvetica" font-size="560" text-anchor="middle" x="21910" y="12000" id="DATAPOINT23_pbTextEl" PBD:Property="VAL">#.##</text>
  </g>
  <g id="DATAPOINT24" PB:IsMultiState="False" PBD:PtTagName="\\RTDBB\5400_PT_4453B" PB:Type="7" PB:NumberFormat="0.00">
    <rect x="23740" y="11200" width="1500" height="480" stroke-width="0" fill="none" id="DATAPOINT24_pbTextBoundingRectEl" />
    <text fill="#000000" font-family="Helvetica" font-size="560" text-anchor="middle" x="24490" y="11720" id="DATAPOINT24_pbTextEl" PBD:Property="VAL">#.##</text>
  </g>
  <g id="DATAPOINT25" PB:IsMultiState="False" PBD:PtTagName="\\RTDBB\5400_PT_4453C" PB:Type="7" PB:NumberFormat="0.00">
    <rect x="23740" y="11820" width="1500" height="480" stroke-width="0" fill="none" id="DATAPOINT25_pbTextBoundingRectEl" />
    <text fill="#000000" font-family="Helvetica" font-size="560" text-anchor="middle" x="24490" y="12340" id="DATAPOINT25_pbTextEl" PBD:Property="VAL">#.##</text>
  </g>
  <g id="DATAPOINT26" PB:IsMultiState="False" PBD:PtTagName="\\RTDBB\5400_TT_4452" PB:Type="7" PB:NumberFormat="0.00">
    <rect x="28100" y="10080" width="1500" height="480" stroke-width="0" fill="none" id="DATAPOINT26_pbTextBoundingRectEl" />
    <text fill="#000000" font-family="Helvetica" font-size="560" text-anchor="middle" x="28850" y="10600" id="DATAPOINT26_pbTextEl" PBD:Property="VAL">#.##</text>
  </g>
  <g id="DATAPOINT27" PB:IsMultiState="False" PBD:PtTagName="\\RTDBB\5400_LT_4452" PB:Type="7" PB:NumberFormat="0.00">
    <rect x="8980" y="23380" width="1500" height="480" stroke-width="0" fill="none" id="DATAPOINT27_pbTextBoundingRectEl" />
    <text fill="#000000" font-family="Helvetica" font-size="560" text-anchor="middle" x="9730" y="23900" id="DATAPOINT27_pbTextEl" PBD:Property="VAL">#.##</text>
  </g>
  <g id="DATAPOINT28" PB:IsMultiState="False" PBD:PtTagName="\\RTDBB\5400_YIT_B0203" PB:Type="7" PB:NumberFormat="0.00">
    <rect x="57200" y="3320" width="1500" height="480" stroke-width="0" fill="none" id="DATAPOINT28_pbTextBoundingRectEl" />
    <text fill="#000000" font-family="Helvetica" font-size="560" text-anchor="middle" x="57950" y="3840" id="DATAPOINT28_pbTextEl" PBD:Property="VAL">#.##</text>
  </g>
  <g id="DATAPOINT29" PB:IsMultiState="False" PBD:PtTagName="\\RTDBB\5400_YIT_B0204" PB:Type="7" PB:NumberFormat="0.00">
    <rect x="57200" y="9060" width="1500" height="480" stroke-width="0" fill="none" id="DATAPOINT29_pbTextBoundingRectEl" />
    <text fill="#000000" font-family="Helvetica" font-size="560" text-anchor="middle" x="57950" y="9580" id="DATAPOINT29_pbTextEl" PBD:Property="VAL">#.##</text>
  </g>
  <g id="DATAPOINT30" PB:IsMultiState="False" PBD:PtTagName="\\RTDBB\5400_PT_4453A" PB:Type="7" PB:NumberFormat="0.00">
    <rect x="23760" y="10580" width="1500" height="480" stroke-width="0" fill="none" id="DATAPOINT30_pbTextBoundingRectEl" />
    <text fill="#000000" font-family="Helvetica" font-size="560" text-anchor="middle" x="24510" y="11100" id="DATAPOINT30_pbTextEl" PBD:Property="VAL">#.##</text>
  </g>
</svg>