<?xml version="1.0" encoding="UTF-8"?>
<svg height="100%" width="100%" viewBox="0 0 64000 32000" version="1.1" xmlns="http://www.w3.org/2000/svg" xmlns:xlink="http://www.w3.org/1999/xlink" xmlns:PB="urn:osisoft-com-pb" xmlns:PBI="urn:osisoft-com-interface" xmlns:PBD="urn:osisoft-com-data" style="background-color:#C0C0C0">
  <title>Graphic163</title>
  <defs>
    <PBD:TagUses tag="\\RTDBB\150_LT_5019">
      <PBI:Symbol name="BARGRAPH1" PB:Type="12" />
      <PBI:Symbol name="DATAPOINT408" PB:Type="7" />
    </PBD:TagUses>
    <PBD:TagUses tag="\\RTDBB\150_LT_5020">
      <PBI:Symbol name="BARGRAPH2" PB:Type="12" />
      <PBI:Symbol name="DATAPOINT409" PB:Type="7" />
    </PBD:TagUses>
    <PBD:TagUses tag="\\RTDBB\150_TIC_5053_PV">
      <PBI:Symbol name="DATAPOINT401" PB:Type="7" />
    </PBD:TagUses>
    <PBD:TagUses tag="\\RTDBB\150_TIC_5053_SP">
      <PBI:Symbol name="DATAPOINT402" PB:Type="7" />
    </PBD:TagUses>
    <PBD:TagUses tag="\\RTDBB\150_TIC_5053_OUT">
      <PBI:Symbol name="DATAPOINT403" PB:Type="7" />
    </PBD:TagUses>
    <PBD:TagUses tag="\\RTDBB\150_TT_5054X">
      <PBI:Symbol name="DATAPOINT404" PB:Type="7" />
    </PBD:TagUses>
    <PBD:TagUses tag="\\RTDBB\150_PIC_5008_PV">
      <PBI:Symbol name="DATAPOINT405" PB:Type="7" />
    </PBD:TagUses>
    <PBD:TagUses tag="\\RTDBB\150_FIC_5020A_PV">
      <PBI:Symbol name="DATAPOINT406" PB:Type="7" />
    </PBD:TagUses>
    <PBD:TagUses tag="\\RTDBB\150_FT_5020B">
      <PBI:Symbol name="DATAPOINT407" PB:Type="7" />
    </PBD:TagUses>
    <PBD:TagUses tag="\\RTDBB\150_PT_5022">
      <PBI:Symbol name="DATAPOINT410" PB:Type="7" />
    </PBD:TagUses>
    <PBD:TagUses tag="\\RTDBB\150_HIC_5070">
      <PBI:Symbol name="DATAPOINT411" PB:Type="7" />
    </PBD:TagUses>
    <PBD:TagUses tag="\\RTDBB\150_PIC_5021_PV">
      <PBI:Symbol name="DATAPOINT919" PB:Type="7" />
    </PBD:TagUses>
  </defs>
  <g id="TEXT217">
    <rect x="23340" y="-20" width="14520" height="1900" stroke-width="0" fill="none" id="TEXT217_pbTextBoundingRectEl" />
    <text fill="#000000" font-family="Helvetica" font-size="960" font-weight="bold" text-anchor="start" x="23340" y="1410" id="TEXT217_pbTextEl">吸附器再生、倒液罐系统</text>
  </g>
  <g name="SimpleTank4">
    <path d="M 13771 8070 l 10112 0 0 3820 -10112 0 -60 0 -60 -8 -45 -17 -61 -16 -60 -25 -60 -24 -45 -25 -60 -40 -46 -33 -60 -41 -45 -49 -45 -49 -45 -57 -45 -49 -45 -65 -46 -65 -30 -66 -45 -65 -30 -73 -30 -74 -30 -81 -30 -82 -30 -82 -15 -81 -30 -90 -15 -90 -15 -90 -16 -89 -15 -98 0 -90 -15 -98 0 -98 0 -98 15 -98 0 -90 15 -98 16 -89 15 -90 15 -90 30 -90 15 -81 30 -82 30 -82 30 -81 30 -74 30 -73 45 -65 30 -74 46 -57 45 -65 45 -57 45 -49 45 -49 45 -49 60 -41 46 -41 60 -32 45 -33 60 -25 60 -16 61 -16 45 -17 60 -8 60 0 0 0" stroke-width="0" fill="#969696" />
    <path d="M 13771 8070 l 10112 0 0 3820 -10112 0 0 0 -60 0 -60 -8 -45 -17 -61 -16 -60 -25 -60 -24 -45 -25 -60 -40 -46 -33 -60 -41 -45 -49 -45 -49 -45 -57 -45 -49 -45 -65 -46 -65 -30 -66 -45 -65 -30 -73 -30 -74 -30 -81 -30 -82 -30 -82 -15 -81 -30 -90 -15 -90 -15 -90 -16 -89 -15 -98 0 -90 -15 -98 0 -98 0 0 0 -98 15 -98 0 -90 15 -98 16 -89 15 -90 15 -90 30 -90 15 -81 30 -82 30 -82 30 -81 30 -74 30 -73 45 -65 30 -74 46 -57 45 -65 45 -57 45 -49 45 -49 45 -49 60 -41 46 -41 60 -32 45 -33 60 -25 60 -16 61 -16 45 -17 60 -8 60 0" stroke="#000000" stroke-width="20" fill="none" />
    <path d="M 14072 11890 l 0 -3820" stroke="#000000" stroke-width="20" fill="none" />
  </g>
  <path id="LINE137" d="M 26020 8740 l -11420 0 1500 1220 -1500 1080 11420 0" stroke="#000000" stroke-width="20" fill="none" />
  <rect x="26020" y="8160" width="1440" height="3460" stroke="#000000" stroke-width="20" fill="#969696" id="RECTANGLE2" />
  <g id="TEXT218">
    <rect x="26360" y="8320" width="1460" height="2800" stroke-width="0" fill="none" id="TEXT218_pbTextBoundingRectEl" />
    <text fill="#000000" font-family="Helvetica" font-size="640" font-weight="bold" text-anchor="start" x="26360" y="10040" id="TEXT218_pbTextEl">加热器</text>
  </g>
  <g id="TEXT219">
    <rect x="18000" y="9200" width="3120" height="1460" stroke-width="0" fill="none" id="TEXT219_pbTextBoundingRectEl" />
    <text fill="#000000" font-family="Helvetica" font-size="640" font-weight="bold" text-anchor="start" x="18000" y="10250" id="TEXT219_pbTextEl">E-5012</text>
  </g>
  <path id="POLYGON138" d="M 16860 8040 l 0 -4040" stroke="#FFFF00" stroke-width="40" fill="none" />
  <path id="POLYGON139" d="M 16860 4000 l -15940 0" stroke="#FFFF00" stroke-width="40" fill="none" />
  <g name="StraightArrow1">
    <path d="M 320 3924 l 779 529 0 -353 1221 0 0 -360 -1221 0 0 -353 -779 537 0 0" stroke-width="0" fill="#FFFF00" />
    <path d="M 320 3924 l 779 529 0 -353 1221 0 0 -360 -1221 0 0 -353 -779 537" stroke="#000000" stroke-width="20" fill="none" />
  </g>
  <g name="RightArrow">
    <path d="M 16620 4894 l 480 0 -240 -886 -240 886 0 0" stroke="#000000" stroke-width="20" fill="#FFFF00" />
  </g>
  <rect x="16940" y="15380" width="5580" height="2000" stroke="#000000" stroke-width="20" fill="#969696" id="RECTANGLE3" />
  <path id="ARC1" d="M 22480 16380 l 0 1000 10 -1 10 0 10 -1 10 -1 10 -1 10 -2 10 -2 10 -2 10 -3 10 -3 10 -3 10 -3 10 -4 10 -4 10 -5 9 -4 10 -5 10 -5 9 -6 10 -6 9 -6 10 -6 9 -7 9 -7 10 -7 9 -8 9 -7 9 -9 9 -8 9 -8 8 -9 9 -9 8 -10 9 -9 8 -10 8 -10 9 -11 8 -10 8 -11 7 -11 8 -12 8 -11 7 -12 7 -12 8 -12 7 -13 7 -13 7 -12 6 -13 7 -14 6 -13 7 -14 6 -14 6 -14 6 -14 5 -14 6 -15 5 -15 6 -14 5 -15 5 -16 5 -15 4 -16 5 -15 4 -16 4 -16 4 -16 4 -16 4 -16 4 -16 3 -17 3 -16 3 -17 3 -17 3 -17 2 -17 3 -17 2 -17 2 -17 2 -17 1 -17 2 -17 1 -18 1 -17 1 -17 1 -18 1 -17 0 -18 0 -17 1 -17 -1 -18 0 -17 0 -18 -1 -17 -1 -18 -1 -17 -1 -17 -1 -18 -2 -17 -1 -17 -2 -17 -2 -17 -2 -17 -3 -17 -2 -17 -3 -17 -3 -17 -3 -17 -3 -16 -3 -17 -4 -16 -4 -16 -4 -16 -4 -16 -4 -16 -4 -16 -5 -15 -4 -16 -5 -15 -5 -15 -5 -16 -6 -14 -5 -15 -6 -15 -5 -14 -6 -14 -6 -14 -6 -14 -7 -14 -6 -13 -7 -14 -6 -13 -7 -12 -7 -13 -7 -13 -8 -12 -7 -12 -7 -12 -8 -11 -8 -12 -7 -11 -8 -11 -8 -10 -9 -11 -8 -10 -8 -10 -9 -9 -8 -10 -9 -9 -8 -9 -9 -8 -9 -8 -9 -9 -9 -7 -9 -8 -10 -7 -9 -7 -9 -7 -10 -6 -9 -6 -10 -6 -9 -6 -10 -5 -10 -5 -9 -4 -10 -5 -10 -4 -10 -4 -10 -3 -10 -3 -10 -3 -10 -3 -10 -2 -10 -2 -10 -2 -10 -1 -10 -1 -10 -1 -10 0 -10 0 0 1000" stroke="#000000" stroke-width="20" fill="#969696" />
  <rect x="22060" y="15180" width="460" height="2420" stroke="#000000" stroke-width="20" fill="#969696" id="RECTANGLE4" />
  <rect x="18620" y="15180" width="460" height="2420" stroke="#000000" stroke-width="20" fill="#969696" id="RECTANGLE5" />
  <rect x="16820" y="15180" width="460" height="2420" stroke="#000000" stroke-width="20" fill="#969696" id="RECTANGLE6" />
  <path id="POLYGON144" d="M 21420 15380 l 0 -3460" stroke="#FFFF00" stroke-width="40" fill="none" />
  <g name="RightArrow">
    <path d="M 21120 12814 l 480 0 -240 -886 -240 886 0 0" stroke="#000000" stroke-width="20" fill="#FFFF00" />
  </g>
  <g id="TEXT220">
    <rect x="19400" y="15500" width="3120" height="1460" stroke-width="0" fill="none" id="TEXT220_pbTextBoundingRectEl" />
    <text fill="#000000" font-family="Helvetica" font-size="640" font-weight="bold" text-anchor="start" x="19400" y="16550" id="TEXT220_pbTextEl">E-5013A</text>
  </g>
  <rect x="16860" y="20780" width="5580" height="2000" stroke="#000000" stroke-width="20" fill="#969696" id="RECTANGLE7" />
  <path id="ARC2" d="M 22400 21780 l 0 1000 10 -1 10 0 10 -1 10 -1 10 -1 10 -2 10 -2 10 -2 10 -3 10 -3 10 -3 10 -3 10 -4 10 -4 10 -5 9 -4 10 -5 10 -5 9 -6 10 -6 9 -6 10 -6 9 -7 9 -7 10 -7 9 -8 9 -7 9 -9 9 -8 9 -8 8 -9 9 -9 8 -10 9 -9 8 -10 8 -10 9 -11 8 -10 8 -11 7 -11 8 -12 8 -11 7 -12 7 -12 8 -12 7 -13 7 -13 7 -12 6 -13 7 -14 6 -13 7 -14 6 -14 6 -14 6 -14 5 -14 6 -15 5 -15 6 -14 5 -15 5 -16 5 -15 4 -16 5 -15 4 -16 4 -16 4 -16 4 -16 4 -16 4 -16 3 -17 3 -16 3 -17 3 -17 3 -17 2 -17 3 -17 2 -17 2 -17 2 -17 1 -17 2 -17 1 -18 1 -17 1 -17 1 -18 1 -17 0 -18 0 -17 1 -17 -1 -18 0 -17 0 -18 -1 -17 -1 -18 -1 -17 -1 -17 -1 -18 -2 -17 -1 -17 -2 -17 -2 -17 -2 -17 -3 -17 -2 -17 -3 -17 -3 -17 -3 -17 -3 -16 -3 -17 -4 -16 -4 -16 -4 -16 -4 -16 -4 -16 -4 -16 -5 -15 -4 -16 -5 -15 -5 -15 -5 -16 -6 -14 -5 -15 -6 -15 -5 -14 -6 -14 -6 -14 -6 -14 -7 -14 -6 -13 -7 -14 -6 -13 -7 -12 -7 -13 -7 -13 -8 -12 -7 -12 -7 -12 -8 -11 -8 -12 -7 -11 -8 -11 -8 -10 -9 -11 -8 -10 -8 -10 -9 -9 -8 -10 -9 -9 -8 -9 -9 -8 -9 -8 -9 -9 -9 -7 -9 -8 -10 -7 -9 -7 -9 -7 -10 -6 -9 -6 -10 -6 -9 -6 -10 -5 -10 -5 -9 -4 -10 -5 -10 -4 -10 -4 -10 -3 -10 -3 -10 -3 -10 -3 -10 -2 -10 -2 -10 -2 -10 -1 -10 -1 -10 -1 -10 0 -10 0 0 1000" stroke="#000000" stroke-width="20" fill="#969696" />
  <rect x="21980" y="20580" width="460" height="2420" stroke="#000000" stroke-width="20" fill="#969696" id="RECTANGLE8" />
  <rect x="18540" y="20580" width="460" height="2420" stroke="#000000" stroke-width="20" fill="#969696" id="RECTANGLE9" />
  <rect x="16740" y="20580" width="460" height="2420" stroke="#000000" stroke-width="20" fill="#969696" id="RECTANGLE10" />
  <g id="TEXT221">
    <rect x="19320" y="20900" width="3120" height="1460" stroke-width="0" fill="none" id="TEXT221_pbTextBoundingRectEl" />
    <text fill="#000000" font-family="Helvetica" font-size="640" font-weight="bold" text-anchor="start" x="19320" y="21950" id="TEXT221_pbTextEl">E-5013B</text>
  </g>
  <path id="POLYGON150" d="M 17900 20800 l 0 -3340" stroke="#FFFF00" stroke-width="40" fill="none" />
  <path id="POLYGON151" d="M 20180 20880 l 0 -3400" stroke="#FFFF00" stroke-width="40" fill="none" />
  <g name="RightArrow">
    <path d="M 19940 18374 l 480 0 -240 -886 -240 886 0 0" stroke="#000000" stroke-width="20" fill="#FFFF00" />
  </g>
  <g name="RightArrow">
    <path d="M 17660 19906 l 480 0 -240 886 -240 -886 0 0" stroke="#000000" stroke-width="20" fill="#FFFF00" />
  </g>
  <path id="POLYGON152" d="M 17760 15380 l 0 -2100" stroke="#FFFF00" stroke-width="40" fill="none" />
  <path id="POLYGON153" d="M 17760 13280 l -16640 0" stroke="#FFFF00" stroke-width="40" fill="none" />
  <g name="StraightArrow1">
    <path d="M 2320 13224 l -779 529 0 -353 -1221 0 0 -360 1221 0 0 -353 779 537 0 0" stroke-width="0" fill="#FFFF00" />
    <path d="M 2320 13224 l -779 529 0 -353 -1221 0 0 -360 1221 0 0 -353 779 537" stroke="#000000" stroke-width="20" fill="none" />
  </g>
  <g name="RightArrow">
    <path d="M 17460 14286 l 480 0 -240 886 -240 -886 0 0" stroke="#000000" stroke-width="20" fill="#FFFF00" />
  </g>
  <path id="POLYGON154" d="M 17840 22760 l 0 1840" stroke="#FFFF00" stroke-width="40" fill="none" />
  <path id="POLYGON155" d="M 17840 24600 l -16900 0" stroke="#FFFF00" stroke-width="40" fill="none" />
  <g name="StraightArrow1">
    <path d="M 320 24524 l 779 529 0 -353 1221 0 0 -360 -1221 0 0 -353 -779 537 0 0" stroke-width="0" fill="#FFFF00" />
    <path d="M 320 24524 l 779 529 0 -353 1221 0 0 -360 -1221 0 0 -353 -779 537" stroke="#000000" stroke-width="20" fill="none" />
  </g>
  <path id="POLYGON156" d="M 21620 22840 l 0 5740" stroke="#FFFF00" stroke-width="40" fill="none" />
  <path id="POLYGON157" d="M 21620 28580 l -19460 0" stroke="#FFFF00" stroke-width="40" fill="none" />
  <g name="StraightArrow1">
    <path d="M 2320 28584 l -779 529 0 -353 -1221 0 0 -360 1221 0 0 -353 779 537 0 0" stroke-width="0" fill="#FFFF00" />
    <path d="M 2320 28584 l -779 529 0 -353 -1221 0 0 -360 1221 0 0 -353 779 537" stroke="#000000" stroke-width="20" fill="none" />
  </g>
  <g id="TEXT222">
    <rect x="11300" y="24780" width="3380" height="1460" stroke-width="0" fill="none" id="TEXT222_pbTextBoundingRectEl" />
    <text fill="#000000" font-family="Helvetica" font-size="560" text-anchor="start" x="11300" y="25790" id="TEXT222_pbTextEl">FIC5020A</text>
  </g>
  <g id="TEXT223">
    <rect x="7640" y="22280" width="1480" height="1460" stroke-width="0" fill="none" id="TEXT223_pbTextBoundingRectEl" />
    <text fill="#000000" font-family="Helvetica" font-size="560" text-anchor="start" x="7640" y="23290" id="TEXT223_pbTextEl">MPa</text>
  </g>
  <g id="TEXT224">
    <rect x="13540" y="25560" width="1600" height="1460" stroke-width="0" fill="none" id="TEXT224_pbTextBoundingRectEl" />
    <text fill="#000000" font-family="Helvetica" font-size="560" text-anchor="start" x="13540" y="26570" id="TEXT224_pbTextEl">kg/h</text>
  </g>
  <g name="a3DValve">
    <path d="M 14084 27787 l 0 729 -95 0 0 -729 95 0 0 0" stroke-width="0" fill="#808080" />
    <path d="M 14074 27787 l 0 729 -78 0 0 -729 78 0 0 0" stroke-width="0" fill="#B4B4B4" />
    <path d="M 14061 27787 l 0 729 -53 0 0 -729 53 0 0 0" stroke-width="0" fill="#DEDEDE" />
    <path d="M 14044 27787 l 0 729 -19 0 0 -729 19 0 0 0" stroke-width="0" fill="#FFFFFF" />
    <path d="M 13989 27787 l 0 729" stroke="#000000" stroke-width="20" fill="none" />
    <path d="M 14084 28516 l 0 -729" stroke="#000000" stroke-width="20" fill="none" />
    <path d="M 14034 27917 l -521 0 2 -51 10 -51 11 -47 17 -50 23 -41 26 -44 31 -40 34 -38 38 -30 39 -28 42 -27 46 -23 49 -17 47 -11 51 -8 55 -3 55 3 51 8 48 11 49 17 46 23 45 27 40 28 36 30 34 38 28 40 29 44 21 41 20 50 12 47 7 51 4 51 -525 0 0 0" stroke-width="0" fill="#808080" />
    <path d="M 14034 27917 l -473 0 3 -51 6 -51 11 -47 18 -46 20 -45 23 -44 29 -40 30 -34 32 -34 36 -28 40 -27 40 -23 45 -17 44 -11 47 -8 49 -3 50 3 47 8 44 11 45 17 40 23 40 27 36 28 34 34 28 34 29 40 22 44 21 45 17 46 12 47 5 51 2 51 -472 0 0 0" stroke-width="0" fill="#969696" />
    <path d="M 14034 27917 l -375 0 2 -51 6 -51 9 -47 12 -46 17 -45 19 -44 20 -40 25 -34 27 -34 28 -28 30 -27 34 -23 35 -17 34 -11 38 -8 39 -3 40 3 38 8 34 11 34 17 34 23 31 27 28 28 27 34 24 34 21 40 19 44 17 45 11 46 10 47 6 51 1 51 -375 0 0 0" stroke-width="0" fill="#B4B4B4" />
    <path d="M 14034 27917 l -276 0 0 -51 5 -51 6 -47 11 -50 12 -41 11 -44 17 -40 17 -38 21 -30 23 -28 23 -27 22 -23 25 -17 26 -11 29 -8 28 -3 29 3 28 8 27 11 24 17 27 23 23 27 19 28 20 30 19 38 15 40 14 44 11 41 11 50 6 47 4 51 2 51 -279 0 0 0" stroke-width="0" fill="#CCCCCC" />
    <path d="M 14034 27917 l -180 0 0 -51 4 -51 6 -47 5 -50 8 -41 10 -44 7 -40 11 -38 16 -30 13 -28 15 -27 13 -23 17 -17 17 -11 21 -8 17 -3 17 3 21 8 17 11 17 17 14 23 15 27 13 28 15 30 12 38 7 40 10 44 7 41 6 50 6 47 3 51 0 51 -180 0 0 0" stroke-width="0" fill="#DEDEDE" />
    <path d="M 14034 27917 l -521 0 0 0 2 -51 10 -51 11 -47 17 -50 23 -41 26 -44 31 -40 34 -38 38 -30 39 -28 42 -27 46 -23 49 -17 47 -11 51 -8 55 -3 0 0 55 3 51 8 48 11 49 17 46 23 45 27 40 28 36 30 34 38 28 40 29 44 21 41 20 50 12 47 7 51 4 51 -525 0" stroke="#000000" stroke-width="20" fill="none" />
    <path d="M 14034 27917 l -49 0 0 -51 0 -51 4 -47 0 -50 2 -41 4 -44 1 -40 4 -38 2 -30 6 -28 4 -27 5 -23 2 -17 6 -11 4 -8 5 -3 6 3 6 8 3 11 6 17 2 23 6 27 4 28 1 30 4 38 2 40 4 44 2 41 0 50 4 47 0 51 0 51 -50 0 0 0" stroke-width="0" fill="#FFFFFF" />
    <path d="M 13401 28829 l 0 -635 1278 635 0 -635 -1278 635 0 0" stroke-width="0" fill="#808080" />
    <path d="M 13401 28798 l 0 -570 1278 570 0 -570 -1278 570 0 0" stroke-width="0" fill="#969696" />
    <path d="M 13401 28732 l 0 -438 1278 438 0 -438 -1278 438 0 0" stroke-width="0" fill="#B4B4B4" />
    <path d="M 13401 28668 l 0 -311 1278 311 0 -311 -1278 311 0 0" stroke-width="0" fill="#CCCCCC" />
    <path d="M 13401 28618 l 0 -214 1278 214 0 -214 -1278 214 0 0" stroke-width="0" fill="#DEDEDE" />
    <path d="M 13401 28552 l 0 -81 1278 81 0 -81 -1278 81 0 0" stroke-width="0" fill="#FFFFFF" />
    <path d="M 13401 28829 l 0 -635 1278 635 0 -635 -1278 635" stroke="#000000" stroke-width="20" fill="none" />
  </g>
  <g id="TEXT225">
    <rect x="13100" y="28700" width="2660" height="1460" stroke-width="0" fill="none" id="TEXT225_pbTextBoundingRectEl" />
    <text fill="#000000" font-family="Helvetica" font-size="560" text-anchor="start" x="13100" y="29710" id="TEXT225_pbTextEl">FV5020</text>
  </g>
  <path id="POLYGON158" d="M 14020 27480 l 0 -860" stroke="#000000" stroke-width="20" stroke-dasharray="60,60" fill="none" />
  <path id="POLYGON159" d="M 12320 25780 l 0 4120" stroke="#000000" stroke-width="20" stroke-dasharray="60,60" fill="none" />
  <g id="TEXT226">
    <rect x="11320" y="29560" width="3380" height="1460" stroke-width="0" fill="none" id="TEXT226_pbTextBoundingRectEl" />
    <text fill="#000000" font-family="Helvetica" font-size="560" text-anchor="start" x="11320" y="30570" id="TEXT226_pbTextEl">FT5020B</text>
  </g>
  <g id="TEXT227">
    <rect x="13380" y="30280" width="1600" height="1460" stroke-width="0" fill="none" id="TEXT227_pbTextBoundingRectEl" />
    <text fill="#000000" font-family="Helvetica" font-size="560" text-anchor="start" x="13380" y="31290" id="TEXT227_pbTextEl">kg/h</text>
  </g>
  <path id="POLYGON160" d="M 11200 30280 l -3180 0" stroke="#000000" stroke-width="20" stroke-dasharray="60,60" fill="none" />
  <g id="TEXT228">
    <rect x="6580" y="29620" width="1480" height="1460" stroke-width="0" fill="none" id="TEXT228_pbTextBoundingRectEl" />
    <text fill="#000000" font-family="Helvetica" font-size="560" text-anchor="start" x="6580" y="30630" id="TEXT228_pbTextEl">I502</text>
  </g>
  <g name="RightArrow">
    <path d="M 8773 30520 l 1 -479 -886 239 885 240 0 0" stroke="#000000" stroke-width="20" fill="#000000" />
  </g>
  <path id="POLYGON161" d="M 20280 8120 l 0 -1820" stroke="#000000" stroke-width="20" stroke-dasharray="60,60" fill="none" />
  <g id="TEXT229">
    <rect x="19260" y="4320" width="2540" height="1460" stroke-width="0" fill="none" id="TEXT229_pbTextBoundingRectEl" />
    <text fill="#000000" font-family="Helvetica" font-size="560" text-anchor="start" x="19260" y="5330" id="TEXT229_pbTextEl">TI5054X</text>
  </g>
  <g id="TEXT230">
    <rect x="20540" y="5160" width="1100" height="1460" stroke-width="0" fill="none" id="TEXT230_pbTextBoundingRectEl" />
    <text fill="#000000" font-family="Helvetica" font-size="560" text-anchor="start" x="20540" y="6170" id="TEXT230_pbTextEl">℃</text>
  </g>
  <path id="POLYGON162" d="M 21380 4920 l 7000 0" stroke="#000000" stroke-width="20" stroke-dasharray="60,60" fill="none" />
  <path id="POLYGON163" d="M 28380 4920 l 0 20600" stroke="#000000" stroke-width="20" stroke-dasharray="60,60" fill="none" />
  <path id="POLYGON164" d="M 14600 25520 l 13780 0" stroke="#000000" stroke-width="20" stroke-dasharray="60,60" fill="none" />
  <g id="TEXT231">
    <rect x="11580" y="-60" width="2740" height="1460" stroke-width="0" fill="none" id="TEXT231_pbTextBoundingRectEl" />
    <text fill="#000000" font-family="Helvetica" font-size="560" text-anchor="start" x="11580" y="950" id="TEXT231_pbTextEl">TIC5053</text>
  </g>
  <g id="TEXT232">
    <rect x="10880" y="780" width="700" height="1460" stroke-width="0" fill="none" id="TEXT232_pbTextBoundingRectEl" />
    <text fill="#000000" font-family="Helvetica" font-size="560" text-anchor="start" x="10880" y="1790" id="TEXT232_pbTextEl">P</text>
  </g>
  <g id="TEXT233">
    <rect x="10880" y="1580" width="760" height="1460" stroke-width="0" fill="none" id="TEXT233_pbTextBoundingRectEl" />
    <text fill="#000000" font-family="Helvetica" font-size="560" text-anchor="start" x="10880" y="2590" id="TEXT233_pbTextEl">S</text>
  </g>
  <g id="TEXT234">
    <rect x="10860" y="2300" width="700" height="1460" stroke-width="0" fill="none" id="TEXT234_pbTextBoundingRectEl" />
    <text fill="#000000" font-family="Helvetica" font-size="560" text-anchor="start" x="10860" y="3310" id="TEXT234_pbTextEl">O</text>
  </g>
  <g id="TEXT235">
    <rect x="13620" y="780" width="700" height="1460" stroke-width="0" fill="none" id="TEXT235_pbTextBoundingRectEl" />
    <text fill="#000000" font-family="Helvetica" font-size="560" text-anchor="start" x="13620" y="1790" id="TEXT235_pbTextEl">℃</text>
  </g>
  <g id="TEXT236">
    <rect x="13620" y="1580" width="700" height="1460" stroke-width="0" fill="none" id="TEXT236_pbTextBoundingRectEl" />
    <text fill="#000000" font-family="Helvetica" font-size="560" text-anchor="start" x="13620" y="2590" id="TEXT236_pbTextEl">℃</text>
  </g>
  <g id="TEXT237">
    <rect x="13620" y="2300" width="700" height="1460" stroke-width="0" fill="none" id="TEXT237_pbTextBoundingRectEl" />
    <text fill="#000000" font-family="Helvetica" font-size="560" text-anchor="start" x="13620" y="3310" id="TEXT237_pbTextEl">%</text>
  </g>
  <path id="LINE164" d="M 12240 4000 l 0 -840" stroke="#000000" stroke-width="20" stroke-dasharray="60,60" fill="none" />
  <path id="POLYGON165" d="M 14180 2220 l 12660 0" stroke="#000000" stroke-width="20" stroke-dasharray="60,60" fill="none" />
  <path id="POLYGON166" d="M 26840 8180 l 0 -5960" stroke="#000000" stroke-width="20" stroke-dasharray="60,60" fill="none" />
  <g name="a3DValve">
    <path d="M 6844 23807 l 0 729 -95 0 0 -729 95 0 0 0" stroke-width="0" fill="#808080" />
    <path d="M 6834 23807 l 0 729 -78 0 0 -729 78 0 0 0" stroke-width="0" fill="#B4B4B4" />
    <path d="M 6821 23807 l 0 729 -53 0 0 -729 53 0 0 0" stroke-width="0" fill="#DEDEDE" />
    <path d="M 6804 23807 l 0 729 -19 0 0 -729 19 0 0 0" stroke-width="0" fill="#FFFFFF" />
    <path d="M 6749 23807 l 0 729" stroke="#000000" stroke-width="20" fill="none" />
    <path d="M 6844 24536 l 0 -729" stroke="#000000" stroke-width="20" fill="none" />
    <path d="M 6794 23937 l -521 0 2 -51 10 -51 11 -47 17 -50 23 -41 26 -44 31 -40 34 -38 38 -30 39 -28 42 -27 46 -23 49 -17 47 -11 51 -8 55 -3 55 3 51 8 48 11 49 17 46 23 45 27 40 28 36 30 34 38 28 40 29 44 21 41 20 50 12 47 7 51 4 51 -525 0 0 0" stroke-width="0" fill="#808080" />
    <path d="M 6794 23937 l -473 0 3 -51 6 -51 11 -47 18 -46 20 -45 23 -44 29 -40 30 -34 32 -34 36 -28 40 -27 40 -23 45 -17 44 -11 47 -8 49 -3 50 3 47 8 44 11 45 17 40 23 40 27 36 28 34 34 28 34 29 40 22 44 21 45 17 46 12 47 5 51 2 51 -472 0 0 0" stroke-width="0" fill="#969696" />
    <path d="M 6794 23937 l -375 0 2 -51 6 -51 9 -47 12 -46 17 -45 19 -44 20 -40 25 -34 27 -34 28 -28 30 -27 34 -23 35 -17 34 -11 38 -8 39 -3 40 3 38 8 34 11 34 17 34 23 31 27 28 28 27 34 24 34 21 40 19 44 17 45 11 46 10 47 6 51 1 51 -375 0 0 0" stroke-width="0" fill="#B4B4B4" />
    <path d="M 6794 23937 l -276 0 0 -51 5 -51 6 -47 11 -50 12 -41 11 -44 17 -40 17 -38 21 -30 23 -28 23 -27 22 -23 25 -17 26 -11 29 -8 28 -3 29 3 28 8 27 11 24 17 27 23 23 27 19 28 20 30 19 38 15 40 14 44 11 41 11 50 6 47 4 51 2 51 -279 0 0 0" stroke-width="0" fill="#CCCCCC" />
    <path d="M 6794 23937 l -180 0 0 -51 4 -51 6 -47 5 -50 8 -41 10 -44 7 -40 11 -38 16 -30 13 -28 15 -27 13 -23 17 -17 17 -11 21 -8 17 -3 17 3 21 8 17 11 17 17 14 23 15 27 13 28 15 30 12 38 7 40 10 44 7 41 6 50 6 47 3 51 0 51 -180 0 0 0" stroke-width="0" fill="#DEDEDE" />
    <path d="M 6794 23937 l -521 0 0 0 2 -51 10 -51 11 -47 17 -50 23 -41 26 -44 31 -40 34 -38 38 -30 39 -28 42 -27 46 -23 49 -17 47 -11 51 -8 55 -3 0 0 55 3 51 8 48 11 49 17 46 23 45 27 40 28 36 30 34 38 28 40 29 44 21 41 20 50 12 47 7 51 4 51 -525 0" stroke="#000000" stroke-width="20" fill="none" />
    <path d="M 6794 23937 l -49 0 0 -51 0 -51 4 -47 0 -50 2 -41 4 -44 1 -40 4 -38 2 -30 6 -28 4 -27 5 -23 2 -17 6 -11 4 -8 5 -3 6 3 6 8 3 11 6 17 2 23 6 27 4 28 1 30 4 38 2 40 4 44 2 41 0 50 4 47 0 51 0 51 -50 0 0 0" stroke-width="0" fill="#FFFFFF" />
    <path d="M 6161 24849 l 0 -635 1278 635 0 -635 -1278 635 0 0" stroke-width="0" fill="#808080" />
    <path d="M 6161 24818 l 0 -570 1278 570 0 -570 -1278 570 0 0" stroke-width="0" fill="#969696" />
    <path d="M 6161 24752 l 0 -438 1278 438 0 -438 -1278 438 0 0" stroke-width="0" fill="#B4B4B4" />
    <path d="M 6161 24688 l 0 -311 1278 311 0 -311 -1278 311 0 0" stroke-width="0" fill="#CCCCCC" />
    <path d="M 6161 24638 l 0 -214 1278 214 0 -214 -1278 214 0 0" stroke-width="0" fill="#DEDEDE" />
    <path d="M 6161 24572 l 0 -81 1278 81 0 -81 -1278 81 0 0" stroke-width="0" fill="#FFFFFF" />
    <path d="M 6161 24849 l 0 -635 1278 635 0 -635 -1278 635" stroke="#000000" stroke-width="20" fill="none" />
  </g>
  <g id="TEXT238">
    <rect x="5420" y="21640" width="3380" height="1460" stroke-width="0" fill="none" id="TEXT238_pbTextBoundingRectEl" />
    <text fill="#000000" font-family="Helvetica" font-size="560" text-anchor="start" x="5420" y="22650" id="TEXT238_pbTextEl">PIC5008</text>
  </g>
  <path id="POLYGON167" d="M 6740 23480 l 0 -840" stroke="#000000" stroke-width="20" stroke-dasharray="60,60" fill="none" />
  <path id="POLYGON168" d="M 8360 24600 l 0 -1440" stroke="#000000" stroke-width="20" stroke-dasharray="60,60" fill="none" />
  <g id="TEXT239">
    <rect x="560" y="26880" width="5280" height="1460" stroke-width="0" fill="none" id="TEXT239_pbTextBoundingRectEl" />
    <text fill="#000000" font-family="Helvetica" font-size="560" text-anchor="start" x="560" y="27890" id="TEXT239_pbTextEl">冷再生气自界区</text>
  </g>
  <g id="TEXT240">
    <rect x="400" y="22700" width="2740" height="1460" stroke-width="0" fill="none" id="TEXT240_pbTextBoundingRectEl" />
    <text fill="#000000" font-family="Helvetica" font-size="560" text-anchor="start" x="400" y="23710" id="TEXT240_pbTextEl">区火炬</text>
  </g>
  <g id="TEXT241">
    <rect x="360" y="11560" width="3520" height="1460" stroke-width="0" fill="none" id="TEXT241_pbTextBoundingRectEl" />
    <text fill="#000000" font-family="Helvetica" font-size="560" text-anchor="start" x="360" y="12570" id="TEXT241_pbTextEl">自DR-5001</text>
  </g>
  <g id="TEXT242">
    <rect x="6040" y="12040" width="2900" height="1000" stroke-width="0" fill="none" id="TEXT242_pbTextBoundingRectEl" />
    <text fill="#000000" font-family="Helvetica" font-size="560" text-anchor="start" x="6040" y="12820" id="TEXT242_pbTextEl">再生气</text>
  </g>
  <g id="TEXT243">
    <rect x="500" y="2020" width="4900" height="1460" stroke-width="0" fill="none" id="TEXT243_pbTextBoundingRectEl" />
    <text fill="#000000" font-family="Helvetica" font-size="560" text-anchor="start" x="500" y="3030" id="TEXT243_pbTextEl">去DR-5001A/B</text>
  </g>
  <g name="VerySmoothTank4">
    <path d="M 39762 10971 l 0 -52 -11 -60 -5 -52 -11 -52 -16 -52 -11 -52 -22 -52 -26 -52 -27 -43 -27 -52 -33 -44 -37 -43 -38 -43 -38 -35 -43 -43 -43 -35 -49 -43 -48 -26 -54 -35 -48 -35 -60 -26 -54 -26 -59 -26 -59 -17 -60 -17 -64 -18 -65 -17 -65 -9 -64 -17 -70 0 -65 -9 -70 0 -70 0 -65 9 -70 0 -64 17 -65 9 -65 17 -64 18 -60 17 -59 17 -59 26 -54 26 -60 26 -48 35 -54 35 -48 26 -49 43 -43 35 -43 43 -38 35 -38 43 -37 43 -33 44 -27 52 -27 43 -26 52 -22 52 -16 52 -16 52 -11 52 -6 52 -10 60 0 52 0 6489 0 61 10 52 6 52 11 60 16 52 16 44 22 52 26 51 27 52 27 44 33 43 37 43 38 44 38 43 43 35 43 43 49 35 48 34 54 26 48 35 60 26 54 26 59 26 59 26 60 17 64 18 65 8 65 18 64 8 70 9 65 0 70 0 70 0 65 0 70 -9 64 -8 65 -18 65 -8 64 -18 60 -17 59 -26 59 -26 54 -26 60 -26 48 -35 54 -26 48 -34 49 -35 43 -43 43 -35 38 -43 38 -44 37 -43 33 -43 27 -44 27 -52 26 -51 22 -52 11 -44 16 -52 11 -60 5 -52 11 -52 0 -61 0 -6489 0 0" stroke-width="0" fill="#666666" />
    <path d="M 39762 10971 l 0 0 0 -52 -11 -60 -5 -52 -11 -52 -16 -52 -11 -52 -22 -52 -26 -52 -27 -43 -27 -52 -33 -44 -37 -43 -38 -43 -38 -35 -43 -43 -43 -35 -49 -43 -48 -26 -54 -35 -48 -35 -60 -26 -54 -26 -59 -26 -59 -17 -60 -17 -64 -18 -65 -17 -65 -9 -64 -17 -70 0 -65 -9 -70 0 0 0 -70 0 -65 9 -70 0 -64 17 -65 9 -65 17 -64 18 -60 17 -59 17 -59 26 -54 26 -60 26 -48 35 -54 35 -48 26 -49 43 -43 35 -43 43 -38 35 -38 43 -37 43 -33 44 -27 52 -27 43 -26 52 -22 52 -16 52 -16 52 -11 52 -6 52 -10 60 0 52 0 6489 0 0 0 61 10 52 6 52 11 60 16 52 16 44 22 52 26 51 27 52 27 44 33 43 37 43 38 44 38 43 43 35 43 43 49 35 48 34 54 26 48 35 60 26 54 26 59 26 59 26 60 17 64 18 65 8 65 18 64 8 70 9 65 0 70 0 0 0 70 0 65 0 70 -9 64 -8 65 -18 65 -8 64 -18 60 -17 59 -26 59 -26 54 -26 60 -26 48 -35 54 -26 48 -34 49 -35 43 -43 43 -35 38 -43 38 -44 37 -43 33 -43 27 -44 27 -52 26 -51 22 -52 11 -44 16 -52 11 -60 5 -52 11 -52 0 -61 0 -6489" stroke="#000000" stroke-width="20" fill="none" />
    <path d="M 38420 18543 l -463 -78 -421 -234 -264 -364 -86 -407 0 -6489 86 -407 264 -372 421 -226 463 -78 463 78 415 226 265 372 91 407 0 6489 -91 407 -265 364 -415 234 -463 78 0 0" stroke-width="0" fill="#787878" />
    <path d="M 38420 18543 l -420 -78 -383 -234 -243 -364 -80 -407 0 -6489 80 -407 243 -372 383 -226 420 -78 420 78 383 226 237 372 81 407 0 6489 -81 407 -237 364 -383 234 -420 78 0 0" stroke-width="0" fill="#7A7A7A" />
    <path d="M 38420 18543 l -383 -78 -339 -234 -221 -364 -70 -407 0 -6489 70 -407 221 -372 339 -226 383 -78 377 78 345 226 216 372 70 407 0 6489 -70 407 -216 364 -345 234 -377 78 0 0" stroke-width="0" fill="#858585" />
    <path d="M 38420 18543 l -340 -78 -301 -234 -194 -364 -65 -407 0 -6489 65 -407 194 -372 301 -226 340 -78 334 78 307 226 189 372 65 407 0 6489 -65 407 -189 364 -307 234 -334 78 0 0" stroke-width="0" fill="#969696" />
    <path d="M 38420 18543 l -296 -78 -270 -234 -167 -364 -54 -407 0 -6489 54 -407 167 -372 270 -226 296 -78 291 78 269 226 168 372 59 407 0 6489 -59 407 -168 364 -269 234 -291 78 0 0" stroke-width="0" fill="#A3A3A3" />
    <path d="M 38420 18543 l -253 -78 -232 -234 -146 -364 -43 -407 0 -6497 43 -399 146 -372 232 -234 253 -70 253 70 227 234 145 372 49 407 0 6489 -49 407 -145 364 -227 234 -253 78 0 0" stroke-width="0" fill="#ADADAD" />
    <path d="M 38420 18543 l -210 -78 -194 -234 -119 -364 -43 -407 0 -6497 43 -399 119 -372 194 -234 210 -70 210 70 189 234 118 372 43 407 0 6489 -43 407 -118 364 -189 234 -210 78 0 0" stroke-width="0" fill="#B4B4B4" />
    <path d="M 38420 18543 l -172 -78 -151 -234 -97 -364 -33 -407 0 -6497 33 -399 97 -372 151 -234 172 -70 167 70 151 234 97 372 32 407 0 6489 -32 407 -97 364 -151 234 -167 78 0 0" stroke-width="0" fill="#C2C2C2" />
    <path d="M 38420 18543 l -129 -78 -114 -234 -75 -364 -22 -407 0 -6497 22 -399 75 -372 114 -234 129 -70 124 70 113 234 76 372 21 407 0 6489 -21 407 -76 364 -113 234 -124 78 0 0" stroke-width="0" fill="#D2D2D2" />
    <path d="M 38420 18543 l -86 -78 -76 -234 -48 -364 -16 -407 0 -6497 16 -399 48 -372 76 -234 86 -70 81 70 81 234 43 372 21 407 0 6489 -21 407 -43 364 -81 234 -81 78 0 0" stroke-width="0" fill="#DBDBDB" />
    <path d="M 38420 18543 l -43 -78 -38 -225 -27 -373 -5 -407 0 -6489 5 -407 27 -364 38 -234 43 -78 43 78 38 234 21 364 11 407 0 6489 -11 407 -21 373 -38 225 -43 78 0 0" stroke-width="0" fill="#DEDEDE" />
    <path d="M 39762 17460 l -2689 0" stroke="#000000" stroke-width="20" fill="none" />
    <path d="M 39762 10971 l -2689 0" stroke="#000000" stroke-width="20" fill="none" />
  </g>
  <g id="BARGRAPH1" PB:IsMultiState="False" PB:Lower="0" PB:Orientation="0" PB:CanonicalNumberFormat="General" PBD:PtTagName="\\RTDBB\150_LT_5019" PB:Start="0" PB:Upper="100" PB:Type="12">
    <rect x="35520" y="9940" width="780" height="2560" stroke-width="0" fill="#FFFFFF" id="BARGRAPH1_pbBarBoundingRectEl" />
    <rect x="35520" y="9940" width="780" height="2560" stroke-width="0" fill="#00FF80" id="BARGRAPH1_pbBarTagRectEl" stroke="none" PBD:Property="" />
  </g>
  <path id="POLYGON169" d="M 38200 9880 l -2040 0" stroke="#000000" stroke-width="20" stroke-dasharray="60,60" fill="none" />
  <path id="POLYGON170" d="M 36300 12440 l 780 0" stroke="#000000" stroke-width="20" stroke-dasharray="60,60" fill="none" />
  <g id="BARGRAPH2" PB:IsMultiState="False" PB:Lower="0" PB:Orientation="0" PB:CanonicalNumberFormat="General" PBD:PtTagName="\\RTDBB\150_LT_5020" PB:Start="0" PB:Upper="100" PB:Type="12">
    <rect x="35520" y="16700" width="780" height="2560" stroke-width="0" fill="#FFFFFF" id="BARGRAPH2_pbBarBoundingRectEl" />
    <rect x="35520" y="16700" width="780" height="2560" stroke-width="0" fill="#00FF00" id="BARGRAPH2_pbBarTagRectEl" stroke="none" PBD:Property="VAL" />
  </g>
  <path id="POLYGON171" d="M 38320 18640 l 0 10740" stroke="#000000" stroke-width="40" fill="none" />
  <path id="POLYGON172" d="M 38320 29380 l 24220 0" stroke="#000000" stroke-width="40" fill="none" />
  <g name="a3DValveWithActuator">
    <path d="M 45729 28313 l 1075 0 0 411 -1075 0 0 -411 0 0" stroke-width="0" fill="#000000" />
    <path d="M 45729 28313 l 1075 0 0 411 -1075 0 0 -411" stroke="#000000" stroke-width="20" fill="none" />
    <path d="M 46265 28679 l 0 699 -94 0 0 -699 94 0 0 0" stroke-width="0" fill="#808080" />
    <path d="M 46258 28679 l 0 699 -78 0 0 -699 78 0 0 0" stroke-width="0" fill="#B4B4B4" />
    <path d="M 46247 28679 l 0 699 -54 0 0 -699 54 0 0 0" stroke-width="0" fill="#DEDEDE" />
    <path d="M 46229 28679 l 0 699 -18 0 0 -699 18 0 0 0" stroke-width="0" fill="#FFFFFF" />
    <path d="M 46171 28679 l 0 699" stroke="#000000" stroke-width="20" fill="none" />
    <path d="M 46265 29378 l 0 -699" stroke="#000000" stroke-width="20" fill="none" />
    <path d="M 45574 29691 l 0 -656 1296 656 0 -656 -1296 656 0 0" stroke-width="0" fill="#808080" />
    <path d="M 45574 29656 l 0 -587 1296 587 0 -587 -1296 587 0 0" stroke-width="0" fill="#969696" />
    <path d="M 45574 29588 l 0 -453 1296 453 0 -453 -1296 453 0 0" stroke-width="0" fill="#B4B4B4" />
    <path d="M 45574 29522 l 0 -322 1296 322 0 -322 -1296 322 0 0" stroke-width="0" fill="#CCCCCC" />
    <path d="M 45574 29471 l 0 -218 1296 218 0 -218 -1296 218 0 0" stroke-width="0" fill="#DEDEDE" />
    <path d="M 45574 29404 l 0 -83 1296 83 0 -83 -1296 83 0 0" stroke-width="0" fill="#FFFFFF" />
    <path d="M 45574 29691 l 0 -656 1296 656 0 -656 -1296 656" stroke="#000000" stroke-width="20" fill="none" />
    <path d="M 45684 28269 l 1072 0 0 414 -1072 0 0 -414 0 0" stroke-width="0" fill="#808080" />
    <path d="M 45684 28269 l 1072 0 0 414 -1072 0 0 -414" stroke="#000000" stroke-width="20" fill="none" />
  </g>
  <path id="POLYGON173" d="M 36240 19180 l 2020 0" stroke="#000000" stroke-width="20" stroke-dasharray="60,60" fill="none" />
  <path id="POLYGON174" d="M 36160 16680 l 920 0" stroke="#000000" stroke-width="20" stroke-dasharray="60,60" fill="none" />
  <path id="POLYGON175" d="M 35520 11200 l -1380 0" stroke="#000000" stroke-width="20" stroke-dasharray="60,60" fill="none" />
  <g id="TEXT244">
    <rect x="32160" y="10600" width="2460" height="1460" stroke-width="0" fill="none" id="TEXT244_pbTextBoundingRectEl" />
    <text fill="#000000" font-family="Helvetica" font-size="560" text-anchor="start" x="32160" y="11610" id="TEXT244_pbTextEl">LI5019</text>
  </g>
  <g id="TEXT245">
    <rect x="33560" y="11380" width="1080" height="1460" stroke-width="0" fill="none" id="TEXT245_pbTextBoundingRectEl" />
    <text fill="#000000" font-family="Helvetica" font-size="560" text-anchor="start" x="33560" y="12390" id="TEXT245_pbTextEl">%</text>
  </g>
  <path id="LINE175" d="M 35480 18000 l -1380 0" stroke="#000000" stroke-width="20" stroke-dasharray="60,60" fill="none" />
  <g id="TEXT246">
    <rect x="32120" y="17400" width="2460" height="1460" stroke-width="0" fill="none" id="TEXT246_pbTextBoundingRectEl" />
    <text fill="#000000" font-family="Helvetica" font-size="560" text-anchor="start" x="32120" y="18410" id="TEXT246_pbTextEl">LI5020</text>
  </g>
  <g id="TEXT247">
    <rect x="33520" y="18180" width="1080" height="1460" stroke-width="0" fill="none" id="TEXT247_pbTextBoundingRectEl" />
    <text fill="#000000" font-family="Helvetica" font-size="560" text-anchor="start" x="33520" y="19190" id="TEXT247_pbTextEl">%</text>
  </g>
  <g name="OppositeArrows">
    <path d="M 60420 29086 l 2328 0 0 -461 893 618 -893 612 0 -461 -2328 0 0 461 -893 -612 893 -618 0 461 0 0" stroke-width="0" fill="#000000" />
    <path d="M 60420 29086 l 2328 0 0 -461 893 618 -893 612 0 -461 -2328 0 0 461 -893 -612 893 -618 0 461" stroke="#000000" stroke-width="20" fill="none" />
  </g>
  <path id="POLYGON176" d="M 38520 11580 l 17940 0" stroke="#000000" stroke-width="40" fill="none" />
  <g name="RightArrow">
    <path d="M 40593 11820 l 1 -479 -886 239 885 240 0 0" stroke="#000000" stroke-width="20" fill="#000000" />
  </g>
  <path id="ARC3" d="M 56500 11540 l 0 720 12 0 13 0 12 0 13 -1 12 -1 13 -1 12 -2 13 -2 12 -1 13 -2 12 -3 12 -2 12 -3 13 -3 12 -3 12 -3 12 -4 12 -4 12 -4 12 -4 12 -4 11 -5 12 -5 11 -5 12 -5 11 -5 11 -6 12 -6 11 -6 11 -6 10 -6 11 -7 11 -7 10 -7 10 -7 11 -7 10 -7 10 -8 10 -8 9 -8 10 -8 9 -8 10 -9 9 -9 9 -8 8 -9 9 -9 9 -10 8 -9 8 -10 8 -9 8 -10 8 -10 7 -10 7 -11 7 -10 7 -10 7 -11 7 -11 6 -11 6 -10 6 -11 6 -12 6 -11 5 -11 5 -12 5 -11 5 -12 5 -11 4 -12 4 -12 4 -12 4 -12 4 -12 3 -12 3 -12 3 -13 3 -12 2 -12 3 -12 2 -13 1 -12 2 -13 2 -12 1 -13 1 -12 1 -13 0 -12 0 -13 1 -13 -1 -12 0 -13 0 -12 -1 -13 -1 -12 -1 -13 -2 -12 -2 -13 -1 -12 -2 -13 -3 -12 -2 -12 -3 -12 -3 -13 -3 -12 -3 -12 -4 -12 -4 -12 -4 -12 -4 -12 -4 -12 -5 -11 -5 -12 -5 -11 -5 -12 -5 -11 -6 -11 -6 -12 -6 -11 -6 -11 -6 -10 -7 -11 -7 -11 -7 -10 -7 -10 -7 -11 -7 -10 -8 -10 -8 -10 -8 -9 -8 -10 -8 -9 -9 -10 -9 -9 -8 -9 -9 -8 -9 -9 -10 -9 -9 -8 -10 -8 -9 -8 -10 -8 -10 -8 -10 -7 -11 -7 -10 -7 -10 -7 -11 -7 -11 -7 -10 -6 -11 -6 -11 -6 -12 -6 -11 -6 -11 -5 -12 -5 -11 -5 -12 -5 -11 -5 -12 -4 -12 -4 -12 -4 -12 -4 -12 -4 -12 -3 -12 -3 -13 -3 -12 -3 -12 -2 -12 -3 -13 -2 -12 -1 -13 -2 -12 -2 -13 -1 -12 -1 -13 -1 -12 0 -13 0 -12 -1 0 720" stroke="#000000" stroke-width="20" fill="#000000" />
  <path id="POLYGON178" d="M 45500 11520 l 0 -7580" stroke="#000000" stroke-width="40" fill="none" />
  <path id="POLYGON179" d="M 45440 3940 l 16700 0" stroke="#000000" stroke-width="40" fill="none" />
  <g name="StraightArrow1">
    <path d="M 63340 3864 l -779 529 0 -353 -1221 0 0 -360 1221 0 0 -353 779 537 0 0" stroke-width="0" fill="#000000" />
    <path d="M 63340 3864 l -779 529 0 -353 -1221 0 0 -360 1221 0 0 -353 779 537" stroke="#000000" stroke-width="20" fill="none" />
  </g>
  <path id="POLYGON180" d="M 50060 11520 l 0 -3660" stroke="#000000" stroke-width="40" fill="none" />
  <path id="POLYGON181" d="M 50000 7860 l 12020 0" stroke="#000000" stroke-width="40" fill="none" />
  <g name="StraightArrow1">
    <path d="M 61340 7804 l 779 529 0 -353 1221 0 0 -360 -1221 0 0 -353 -779 537 0 0" stroke-width="0" fill="#000000" />
    <path d="M 61340 7804 l 779 529 0 -353 1221 0 0 -360 -1221 0 0 -353 -779 537" stroke="#000000" stroke-width="20" fill="none" />
  </g>
  <g name="RightArrow">
    <path d="M 44666 11820 l 0 -480 886 240 -886 240 0 0" stroke="#000000" stroke-width="20" fill="#000000" />
  </g>
  <g name="a3DValveWithActuator">
    <path d="M 46709 2813 l 1075 0 0 411 -1075 0 0 -411 0 0" stroke-width="0" fill="#000000" />
    <path d="M 46709 2813 l 1075 0 0 411 -1075 0 0 -411" stroke="#000000" stroke-width="20" fill="none" />
    <path d="M 47245 3179 l 0 699 -94 0 0 -699 94 0 0 0" stroke-width="0" fill="#808080" />
    <path d="M 47238 3179 l 0 699 -78 0 0 -699 78 0 0 0" stroke-width="0" fill="#B4B4B4" />
    <path d="M 47227 3179 l 0 699 -54 0 0 -699 54 0 0 0" stroke-width="0" fill="#DEDEDE" />
    <path d="M 47209 3179 l 0 699 -18 0 0 -699 18 0 0 0" stroke-width="0" fill="#FFFFFF" />
    <path d="M 47151 3179 l 0 699" stroke="#000000" stroke-width="20" fill="none" />
    <path d="M 47245 3878 l 0 -699" stroke="#000000" stroke-width="20" fill="none" />
    <path d="M 46554 4191 l 0 -656 1296 656 0 -656 -1296 656 0 0" stroke-width="0" fill="#808080" />
    <path d="M 46554 4156 l 0 -587 1296 587 0 -587 -1296 587 0 0" stroke-width="0" fill="#969696" />
    <path d="M 46554 4088 l 0 -453 1296 453 0 -453 -1296 453 0 0" stroke-width="0" fill="#B4B4B4" />
    <path d="M 46554 4022 l 0 -322 1296 322 0 -322 -1296 322 0 0" stroke-width="0" fill="#CCCCCC" />
    <path d="M 46554 3971 l 0 -218 1296 218 0 -218 -1296 218 0 0" stroke-width="0" fill="#DEDEDE" />
    <path d="M 46554 3904 l 0 -83 1296 83 0 -83 -1296 83 0 0" stroke-width="0" fill="#FFFFFF" />
    <path d="M 46554 4191 l 0 -656 1296 656 0 -656 -1296 656" stroke="#000000" stroke-width="20" fill="none" />
    <path d="M 46664 2769 l 1072 0 0 414 -1072 0 0 -414 0 0" stroke-width="0" fill="#808080" />
    <path d="M 46664 2769 l 1072 0 0 414 -1072 0 0 -414" stroke="#000000" stroke-width="20" fill="none" />
  </g>
  <g name="a3DValve">
    <path d="M 53244 7067 l 0 729 -95 0 0 -729 95 0 0 0" stroke-width="0" fill="#808080" />
    <path d="M 53234 7067 l 0 729 -78 0 0 -729 78 0 0 0" stroke-width="0" fill="#B4B4B4" />
    <path d="M 53221 7067 l 0 729 -53 0 0 -729 53 0 0 0" stroke-width="0" fill="#DEDEDE" />
    <path d="M 53204 7067 l 0 729 -19 0 0 -729 19 0 0 0" stroke-width="0" fill="#FFFFFF" />
    <path d="M 53149 7067 l 0 729" stroke="#000000" stroke-width="20" fill="none" />
    <path d="M 53244 7796 l 0 -729" stroke="#000000" stroke-width="20" fill="none" />
    <path d="M 53194 7197 l -521 0 2 -51 10 -51 11 -47 17 -50 23 -41 26 -44 31 -40 34 -38 38 -30 39 -28 42 -27 46 -23 49 -17 47 -11 51 -8 55 -3 55 3 51 8 48 11 49 17 46 23 45 27 40 28 36 30 34 38 28 40 29 44 21 41 20 50 12 47 7 51 4 51 -525 0 0 0" stroke-width="0" fill="#808080" />
    <path d="M 53194 7197 l -473 0 3 -51 6 -51 11 -47 18 -46 20 -45 23 -44 29 -40 30 -34 32 -34 36 -28 40 -27 40 -23 45 -17 44 -11 47 -8 49 -3 50 3 47 8 44 11 45 17 40 23 40 27 36 28 34 34 28 34 29 40 22 44 21 45 17 46 12 47 5 51 2 51 -472 0 0 0" stroke-width="0" fill="#969696" />
    <path d="M 53194 7197 l -375 0 2 -51 6 -51 9 -47 12 -46 17 -45 19 -44 20 -40 25 -34 27 -34 28 -28 30 -27 34 -23 35 -17 34 -11 38 -8 39 -3 40 3 38 8 34 11 34 17 34 23 31 27 28 28 27 34 24 34 21 40 19 44 17 45 11 46 10 47 6 51 1 51 -375 0 0 0" stroke-width="0" fill="#B4B4B4" />
    <path d="M 53194 7197 l -276 0 0 -51 5 -51 6 -47 11 -50 12 -41 11 -44 17 -40 17 -38 21 -30 23 -28 23 -27 22 -23 25 -17 26 -11 29 -8 28 -3 29 3 28 8 27 11 24 17 27 23 23 27 19 28 20 30 19 38 15 40 14 44 11 41 11 50 6 47 4 51 2 51 -279 0 0 0" stroke-width="0" fill="#CCCCCC" />
    <path d="M 53194 7197 l -180 0 0 -51 4 -51 6 -47 5 -50 8 -41 10 -44 7 -40 11 -38 16 -30 13 -28 15 -27 13 -23 17 -17 17 -11 21 -8 17 -3 17 3 21 8 17 11 17 17 14 23 15 27 13 28 15 30 12 38 7 40 10 44 7 41 6 50 6 47 3 51 0 51 -180 0 0 0" stroke-width="0" fill="#DEDEDE" />
    <path d="M 53194 7197 l -521 0 0 0 2 -51 10 -51 11 -47 17 -50 23 -41 26 -44 31 -40 34 -38 38 -30 39 -28 42 -27 46 -23 49 -17 47 -11 51 -8 55 -3 0 0 55 3 51 8 48 11 49 17 46 23 45 27 40 28 36 30 34 38 28 40 29 44 21 41 20 50 12 47 7 51 4 51 -525 0" stroke="#000000" stroke-width="20" fill="none" />
    <path d="M 53194 7197 l -49 0 0 -51 0 -51 4 -47 0 -50 2 -41 4 -44 1 -40 4 -38 2 -30 6 -28 4 -27 5 -23 2 -17 6 -11 4 -8 5 -3 6 3 6 8 3 11 6 17 2 23 6 27 4 28 1 30 4 38 2 40 4 44 2 41 0 50 4 47 0 51 0 51 -50 0 0 0" stroke-width="0" fill="#FFFFFF" />
    <path d="M 52561 8109 l 0 -635 1278 635 0 -635 -1278 635 0 0" stroke-width="0" fill="#808080" />
    <path d="M 52561 8078 l 0 -570 1278 570 0 -570 -1278 570 0 0" stroke-width="0" fill="#969696" />
    <path d="M 52561 8012 l 0 -438 1278 438 0 -438 -1278 438 0 0" stroke-width="0" fill="#B4B4B4" />
    <path d="M 52561 7948 l 0 -311 1278 311 0 -311 -1278 311 0 0" stroke-width="0" fill="#CCCCCC" />
    <path d="M 52561 7898 l 0 -214 1278 214 0 -214 -1278 214 0 0" stroke-width="0" fill="#DEDEDE" />
    <path d="M 52561 7832 l 0 -81 1278 81 0 -81 -1278 81 0 0" stroke-width="0" fill="#FFFFFF" />
    <path d="M 52561 8109 l 0 -635 1278 635 0 -635 -1278 635" stroke="#000000" stroke-width="20" fill="none" />
  </g>
  <g id="TEXT248">
    <rect x="52060" y="4840" width="2800" height="1460" stroke-width="0" fill="none" id="TEXT248_pbTextBoundingRectEl" />
    <text fill="#000000" font-family="Helvetica" font-size="560" text-anchor="start" x="52060" y="5850" id="TEXT248_pbTextEl">HIC5070</text>
  </g>
  <path id="POLYGON182" d="M 53200 6680 l 0 -720" stroke="#000000" stroke-width="20" stroke-dasharray="60,60" fill="none" />
  <g id="TEXT249">
    <rect x="53920" y="5500" width="1080" height="1460" stroke-width="0" fill="none" id="TEXT249_pbTextBoundingRectEl" />
    <text fill="#000000" font-family="Helvetica" font-size="560" text-anchor="start" x="53920" y="6510" id="TEXT249_pbTextEl">%</text>
  </g>
  <g id="TEXT250">
    <rect x="52100" y="7980" width="2800" height="1460" stroke-width="0" fill="none" id="TEXT250_pbTextBoundingRectEl" />
    <text fill="#000000" font-family="Helvetica" font-size="560" text-anchor="start" x="52100" y="8990" id="TEXT250_pbTextEl">HV5070</text>
  </g>
  <g id="TEXT251">
    <rect x="46340" y="4120" width="2800" height="1460" stroke-width="0" fill="none" id="TEXT251_pbTextBoundingRectEl" />
    <text fill="#000000" font-family="Helvetica" font-size="560" text-anchor="start" x="46340" y="5130" id="TEXT251_pbTextEl">XV5060</text>
  </g>
  <g id="TEXT252">
    <rect x="45360" y="29500" width="2800" height="1460" stroke-width="0" fill="none" id="TEXT252_pbTextBoundingRectEl" />
    <text fill="#000000" font-family="Helvetica" font-size="560" text-anchor="start" x="45360" y="30510" id="TEXT252_pbTextEl">XV5061</text>
  </g>
  <g name="a3DValve">
    <path d="M 53304 3207 l 0 729 -95 0 0 -729 95 0 0 0" stroke-width="0" fill="#808080" />
    <path d="M 53294 3207 l 0 729 -78 0 0 -729 78 0 0 0" stroke-width="0" fill="#B4B4B4" />
    <path d="M 53281 3207 l 0 729 -53 0 0 -729 53 0 0 0" stroke-width="0" fill="#DEDEDE" />
    <path d="M 53264 3207 l 0 729 -19 0 0 -729 19 0 0 0" stroke-width="0" fill="#FFFFFF" />
    <path d="M 53209 3207 l 0 729" stroke="#000000" stroke-width="20" fill="none" />
    <path d="M 53304 3936 l 0 -729" stroke="#000000" stroke-width="20" fill="none" />
    <path d="M 53254 3337 l -521 0 2 -51 10 -51 11 -47 17 -50 23 -41 26 -44 31 -40 34 -38 38 -30 39 -28 42 -27 46 -23 49 -17 47 -11 51 -8 55 -3 55 3 51 8 48 11 49 17 46 23 45 27 40 28 36 30 34 38 28 40 29 44 21 41 20 50 12 47 7 51 4 51 -525 0 0 0" stroke-width="0" fill="#808080" />
    <path d="M 53254 3337 l -473 0 3 -51 6 -51 11 -47 18 -46 20 -45 23 -44 29 -40 30 -34 32 -34 36 -28 40 -27 40 -23 45 -17 44 -11 47 -8 49 -3 50 3 47 8 44 11 45 17 40 23 40 27 36 28 34 34 28 34 29 40 22 44 21 45 17 46 12 47 5 51 2 51 -472 0 0 0" stroke-width="0" fill="#969696" />
    <path d="M 53254 3337 l -375 0 2 -51 6 -51 9 -47 12 -46 17 -45 19 -44 20 -40 25 -34 27 -34 28 -28 30 -27 34 -23 35 -17 34 -11 38 -8 39 -3 40 3 38 8 34 11 34 17 34 23 31 27 28 28 27 34 24 34 21 40 19 44 17 45 11 46 10 47 6 51 1 51 -375 0 0 0" stroke-width="0" fill="#B4B4B4" />
    <path d="M 53254 3337 l -276 0 0 -51 5 -51 6 -47 11 -50 12 -41 11 -44 17 -40 17 -38 21 -30 23 -28 23 -27 22 -23 25 -17 26 -11 29 -8 28 -3 29 3 28 8 27 11 24 17 27 23 23 27 19 28 20 30 19 38 15 40 14 44 11 41 11 50 6 47 4 51 2 51 -279 0 0 0" stroke-width="0" fill="#CCCCCC" />
    <path d="M 53254 3337 l -180 0 0 -51 4 -51 6 -47 5 -50 8 -41 10 -44 7 -40 11 -38 16 -30 13 -28 15 -27 13 -23 17 -17 17 -11 21 -8 17 -3 17 3 21 8 17 11 17 17 14 23 15 27 13 28 15 30 12 38 7 40 10 44 7 41 6 50 6 47 3 51 0 51 -180 0 0 0" stroke-width="0" fill="#DEDEDE" />
    <path d="M 53254 3337 l -521 0 0 0 2 -51 10 -51 11 -47 17 -50 23 -41 26 -44 31 -40 34 -38 38 -30 39 -28 42 -27 46 -23 49 -17 47 -11 51 -8 55 -3 0 0 55 3 51 8 48 11 49 17 46 23 45 27 40 28 36 30 34 38 28 40 29 44 21 41 20 50 12 47 7 51 4 51 -525 0" stroke="#000000" stroke-width="20" fill="none" />
    <path d="M 53254 3337 l -49 0 0 -51 0 -51 4 -47 0 -50 2 -41 4 -44 1 -40 4 -38 2 -30 6 -28 4 -27 5 -23 2 -17 6 -11 4 -8 5 -3 6 3 6 8 3 11 6 17 2 23 6 27 4 28 1 30 4 38 2 40 4 44 2 41 0 50 4 47 0 51 0 51 -50 0 0 0" stroke-width="0" fill="#FFFFFF" />
    <path d="M 52621 4249 l 0 -635 1278 635 0 -635 -1278 635 0 0" stroke-width="0" fill="#808080" />
    <path d="M 52621 4218 l 0 -570 1278 570 0 -570 -1278 570 0 0" stroke-width="0" fill="#969696" />
    <path d="M 52621 4152 l 0 -438 1278 438 0 -438 -1278 438 0 0" stroke-width="0" fill="#B4B4B4" />
    <path d="M 52621 4088 l 0 -311 1278 311 0 -311 -1278 311 0 0" stroke-width="0" fill="#CCCCCC" />
    <path d="M 52621 4038 l 0 -214 1278 214 0 -214 -1278 214 0 0" stroke-width="0" fill="#DEDEDE" />
    <path d="M 52621 3972 l 0 -81 1278 81 0 -81 -1278 81 0 0" stroke-width="0" fill="#FFFFFF" />
    <path d="M 52621 4249 l 0 -635 1278 635 0 -635 -1278 635" stroke="#000000" stroke-width="20" fill="none" />
  </g>
  <g id="TEXT253">
    <rect x="52280" y="3920" width="2800" height="1460" stroke-width="0" fill="none" id="TEXT253_pbTextBoundingRectEl" />
    <text fill="#000000" font-family="Helvetica" font-size="560" text-anchor="start" x="52280" y="4930" id="TEXT253_pbTextEl">PV5021</text>
  </g>
  <g id="TEXT254">
    <rect x="50920" y="840" width="3380" height="760" stroke-width="0" fill="none" id="TEXT254_pbTextBoundingRectEl" />
    <text fill="#000000" font-family="Helvetica" font-size="560" text-anchor="start" x="50920" y="1500" id="TEXT254_pbTextEl">PIC5021</text>
  </g>
  <g id="TEXT255">
    <rect x="52360" y="1180" width="1480" height="1460" stroke-width="0" fill="none" id="TEXT255_pbTextBoundingRectEl" />
    <text fill="#000000" font-family="Helvetica" font-size="560" text-anchor="start" x="52360" y="2190" id="TEXT255_pbTextEl">MPa</text>
  </g>
  <path id="POLYGON183" d="M 53140 2900 l 0 -1000" stroke="#000000" stroke-width="20" stroke-dasharray="60,60" fill="none" />
  <path id="POLYGON184" d="M 51500 1640 l 0 2160" stroke="#000000" stroke-width="20" stroke-dasharray="60,60" fill="none" />
  <g id="TEXT256">
    <rect x="60880" y="2220" width="2740" height="1460" stroke-width="0" fill="none" id="TEXT256_pbTextBoundingRectEl" />
    <text fill="#000000" font-family="Helvetica" font-size="560" text-anchor="start" x="60880" y="3230" id="TEXT256_pbTextEl">至E-5001</text>
  </g>
  <g id="TEXT257">
    <rect x="61580" y="6160" width="2480" height="1460" stroke-width="0" fill="none" id="TEXT257_pbTextBoundingRectEl" />
    <text fill="#000000" font-family="Helvetica" font-size="560" text-anchor="start" x="61580" y="7170" id="TEXT257_pbTextEl">C-5003</text>
  </g>
  <path id="POLYGON185" d="M 42700 11520 l 0 -1820" stroke="#000000" stroke-width="20" stroke-dasharray="60,60" fill="none" />
  <g id="TEXT258">
    <rect x="41260" y="8080" width="3380" height="660" stroke-width="0" fill="none" id="TEXT258_pbTextBoundingRectEl" />
    <text fill="#000000" font-family="Helvetica" font-size="560" text-anchor="start" x="41260" y="8690" id="TEXT258_pbTextEl">PI5022</text>
  </g>
  <g id="TEXT259">
    <rect x="42920" y="8760" width="1800" height="1000" stroke-width="0" fill="none" id="TEXT259_pbTextBoundingRectEl" />
    <text fill="#000000" font-family="Helvetica" font-size="560" text-anchor="start" x="42920" y="9540" id="TEXT259_pbTextEl">MPa</text>
  </g>
  <g id="TEXT260">
    <rect x="37340" y="13200" width="2920" height="1460" stroke-width="0" fill="none" id="TEXT260_pbTextBoundingRectEl" />
    <text fill="#000000" font-family="Helvetica" font-size="640" font-weight="bold" text-anchor="start" x="37340" y="14250" id="TEXT260_pbTextEl">D-5006</text>
  </g>
  <g id="TEXT261">
    <rect x="58380" y="27460" width="5740" height="1460" stroke-width="0" fill="none" id="TEXT261_pbTextBoundingRectEl" />
    <text fill="#000000" font-family="Helvetica" font-size="560" text-anchor="start" x="58380" y="28470" id="TEXT261_pbTextEl">自/至DR-5001A/B</text>
  </g>
  <g id="DATAPOINT401" PB:IsMultiState="False" PBD:PtTagName="\\RTDBB\150_TIC_5053_PV" PB:Type="7" PB:NumberFormat="0.00">
    <rect x="11940" y="1140" width="1480" height="460" stroke-width="0" fill="none" id="DATAPOINT401_pbTextBoundingRectEl" />
    <text fill="#000000" font-family="Helvetica" font-size="560" text-anchor="middle" x="12680" y="1650" id="DATAPOINT401_pbTextEl" PBD:Property="VAL">#.##</text>
  </g>
  <g id="DATAPOINT402" PB:IsMultiState="False" PBD:PtTagName="\\RTDBB\150_TIC_5053_SP" PB:Type="7" PB:NumberFormat="0.00">
    <rect x="11980" y="2000" width="1480" height="460" stroke-width="0" fill="none" id="DATAPOINT402_pbTextBoundingRectEl" />
    <text fill="#000000" font-family="Helvetica" font-size="560" text-anchor="middle" x="12720" y="2510" id="DATAPOINT402_pbTextEl" PBD:Property="VAL">#.##</text>
  </g>
  <g id="DATAPOINT403" PB:IsMultiState="False" PBD:PtTagName="\\RTDBB\150_TIC_5053_OUT" PB:Type="7" PB:NumberFormat="0.00">
    <rect x="11900" y="2840" width="1480" height="460" stroke-width="0" fill="none" id="DATAPOINT403_pbTextBoundingRectEl" />
    <text fill="#000000" font-family="Helvetica" font-size="560" text-anchor="middle" x="12640" y="3350" id="DATAPOINT403_pbTextEl" PBD:Property="VAL">#.##</text>
  </g>
  <g id="DATAPOINT404" PB:IsMultiState="False" PBD:PtTagName="\\RTDBB\150_TT_5054X" PB:Type="7" PB:NumberFormat="0.00">
    <rect x="19460" y="5600" width="1060" height="460" stroke-width="0" fill="none" id="DATAPOINT404_pbTextBoundingRectEl" />
    <text fill="#000000" font-family="Helvetica" font-size="560" text-anchor="middle" x="19990" y="6110" id="DATAPOINT404_pbTextEl" PBD:Property="VAL">#.##</text>
  </g>
  <g id="DATAPOINT405" PB:IsMultiState="False" PBD:PtTagName="\\RTDBB\150_PIC_5008_PV" PB:Type="7" PB:NumberFormat="0.00">
    <rect x="5440" y="22860" width="1960" height="460" stroke-width="0" fill="none" id="DATAPOINT405_pbTextBoundingRectEl" />
    <text fill="#000000" font-family="Helvetica" font-size="560" text-anchor="middle" x="6420" y="23370" id="DATAPOINT405_pbTextEl" PBD:Property="VAL">#.##</text>
  </g>
  <g id="DATAPOINT406" PB:IsMultiState="False" PBD:PtTagName="\\RTDBB\150_FIC_5020A_PV" PB:Type="7" PB:NumberFormat="0.00">
    <rect x="11480" y="26140" width="1920" height="460" stroke-width="0" fill="none" id="DATAPOINT406_pbTextBoundingRectEl" />
    <text fill="#000000" font-family="Helvetica" font-size="560" text-anchor="middle" x="12440" y="26650" id="DATAPOINT406_pbTextEl" PBD:Property="VAL">#.##</text>
  </g>
  <g id="DATAPOINT407" PB:IsMultiState="False" PBD:PtTagName="\\RTDBB\150_FT_5020B" PB:Type="7" PB:NumberFormat="0.00">
    <rect x="11260" y="30720" width="1840" height="460" stroke-width="0" fill="none" id="DATAPOINT407_pbTextBoundingRectEl" />
    <text fill="#000000" font-family="Helvetica" font-size="560" text-anchor="middle" x="12180" y="31230" id="DATAPOINT407_pbTextEl" PBD:Property="VAL">#.##</text>
  </g>
  <g id="DATAPOINT408" PB:IsMultiState="False" PBD:PtTagName="\\RTDBB\150_LT_5019" PB:Type="7" PB:NumberFormat="0.00">
    <rect x="31860" y="11880" width="1060" height="460" stroke-width="0" fill="none" id="DATAPOINT408_pbTextBoundingRectEl" />
    <text fill="#000000" font-family="Helvetica" font-size="560" text-anchor="middle" x="32390" y="12390" id="DATAPOINT408_pbTextEl" PBD:Property="VAL">#.##</text>
  </g>
  <g id="DATAPOINT409" PB:IsMultiState="False" PBD:PtTagName="\\RTDBB\150_LT_5020" PB:Type="7" PB:NumberFormat="0.00">
    <rect x="32180" y="18660" width="1060" height="460" stroke-width="0" fill="none" id="DATAPOINT409_pbTextBoundingRectEl" />
    <text fill="#000000" font-family="Helvetica" font-size="560" text-anchor="middle" x="32710" y="19170" id="DATAPOINT409_pbTextEl" PBD:Property="VAL">#.##</text>
  </g>
  <g id="DATAPOINT410" PB:IsMultiState="False" PBD:PtTagName="\\RTDBB\150_PT_5022" PB:Type="7" PB:NumberFormat="0.00">
    <rect x="41140" y="9000" width="1420" height="460" stroke-width="0" fill="none" id="DATAPOINT410_pbTextBoundingRectEl" />
    <text fill="#000000" font-family="Helvetica" font-size="560" text-anchor="middle" x="41850" y="9510" id="DATAPOINT410_pbTextEl" PBD:Property="VAL">#.##</text>
  </g>
  <g id="DATAPOINT411" PB:IsMultiState="False" PBD:PtTagName="\\RTDBB\150_HIC_5070" PB:Type="7" PB:NumberFormat="0.00">
    <rect x="52080" y="5920" width="1600" height="460" stroke-width="0" fill="none" id="DATAPOINT411_pbTextBoundingRectEl" />
    <text fill="#000000" font-family="Helvetica" font-size="560" text-anchor="middle" x="52880" y="6430" id="DATAPOINT411_pbTextEl" PBD:Property="VAL">#.##</text>
  </g>
  <g id="DATAPOINT919" PB:IsMultiState="False" PBD:PtTagName="\\RTDBB\150_PIC_5021_PV" PB:Type="7" PB:NumberFormat="0.00">
    <rect x="50820" y="1700" width="1440" height="460" stroke-width="0" fill="none" id="DATAPOINT919_pbTextBoundingRectEl" />
    <text fill="#000000" font-family="Helvetica" font-size="560" text-anchor="middle" x="51540" y="2210" id="DATAPOINT919_pbTextEl" PBD:Property="VAL">#.##</text>
  </g>
</svg>