<?xml version="1.0"?>
<?xml-stylesheet type='text/javascript'?>
<!--Draw SVG: 2019-11-25 09:41:01 47-Monday-->
<svg xmlns="http://www.w3.org/2000/svg" xmlns:xlink="http://www.w3.org/1999/xlink" version="1.1" style="background-color:#000000" width="1066" height="800" viewbox="0 0 1066 800">
<defs>
<linearGradient x1="0.000000%" y1="50.000000%" x2="100.000000%" y2="50.000000%" id="lgradient14">
<stop offset="0" stop-color="#2C2C2C" stop-opacity="1"/>
<stop offset="0.5" stop-color="#FFFFFF" stop-opacity="1"/>
<stop offset="1" stop-color="#2C2C2C" stop-opacity="1"/>
</linearGradient>
<linearGradient x1="0.000000%" y1="50.000000%" x2="100.000000%" y2="50.000000%" id="lgradient83">
<stop offset="0" stop-color="#111111" stop-opacity="1"/>
<stop offset="0.5" stop-color="#636563" stop-opacity="1"/>
<stop offset="1" stop-color="#111111" stop-opacity="1"/>
</linearGradient>
</defs>
<line shape-type="limitline" x1="1003" y1="327" x2="724" y2="327" fill="#00FFFF" stroke="#00FF00" stroke-width="3.00"/>
<line shape-type="limitline" x1="50" y1="411" x2="383" y2="411" fill="#00FFFF" stroke="#00FF00" stroke-width="3.00"/>
<line shape-type="limitline" x1="1010" y1="507" x2="975" y2="507" fill="#00FFFF" stroke="#FFFFFF" stroke-width="3.00" stroke-dasharray="5 10"/>
<rect shape-type="rectangle" x="0" y="0" width="1065" height="38" fill="#636563" stroke="#808080" stroke-width="1.00"/>
<rect shape-type="rectangle" x="282" y="2" width="500" height="33" stroke="#000000" stroke-width="1.00"/>
<text font-family="宋体" text-anchor="start" fill="#FFFFFF" shape-type="text" id="" font-size="26.000000" font-weight="bold" x="404" y="29">九循工艺流程图</text>
<a xlink:href="\动力部\供水装置\GS_ML.svg">
<g shape-type="button">
<rect fill="#C0C0C0" stroke-width="0.3" stroke="#FFFFFF" x="961" y="2" width="100" height="33" shape-type="buttonrect"/>
<text font-family="宋体" text-anchor="middle" dominant-baseline="middle" fill="#800000" font-size="13.500000" font-weight="bold" x="1011" y="25" shape-type="buttontext">返回上一级</text>
</g>
</a>
<line shape-type="limitline" x1="995" y1="258" x2="716" y2="258" fill="#00FFFF" stroke="#00FF00" stroke-width="3.00"/>
<line shape-type="limitline" x1="1016" y1="380" x2="746" y2="380" fill="#00FFFF" stroke="#00FF00" stroke-width="3.00"/>
<line shape-type="limitline" x1="1016" y1="622" x2="1016" y2="380" fill="#00FFFF" stroke="#00FF00" stroke-width="3.00"/>
<line shape-type="limitline" x1="50" y1="240" x2="381" y2="240" fill="#00FFFF" stroke="#00FF00" stroke-width="3.00"/>
<line shape-type="limitline" x1="50" y1="306" x2="399" y2="306" fill="#00FFFF" stroke="#00FF00" stroke-width="3.00"/>
<line shape-type="limitline" x1="50" y1="353" x2="383" y2="353" fill="#00FFFF" stroke="#00FF00" stroke-width="3.00"/>
<rect shape-type="rectangle" x="364" y="204" width="395" height="233" fill="url(#lgradient14)" stroke="#000000" stroke-width="1.00"/>
<g shape-type="group">
<rect shape-type="rectangle" x="42" y="235" width="21" height="10" fill="#00FF00" stroke="#00FF00" stroke-width="1.00"/>
<polygon shape-type="trapezium" points="60,230 60,250 74,240 74,240 60,230" fill="#00FF00" stroke="#00FF00" stroke-width="1.00"/>
</g>
<g shape-type="group">
<rect shape-type="rectangle" x="44" y="299" width="21" height="11" fill="#00FF00" stroke="#00FF00" stroke-width="1.00"/>
<polygon shape-type="trapezium" points="63,294 63,315 76,305 76,305 63,294" fill="#00FF00" stroke="#00FF00" stroke-width="1.00"/>
</g>
<g shape-type="group">
<rect shape-type="rectangle" x="44" y="347" width="21" height="10" fill="#00FF00" stroke="#00FF00" stroke-width="1.00"/>
<polygon shape-type="trapezium" points="63,341 63,362 76,352 76,352 63,341" fill="#00FF00" stroke="#00FF00" stroke-width="1.00"/>
</g>
<g shape-type="group">
<rect shape-type="rectangle" x="980" y="254" width="21" height="10" fill="#00FF00" stroke="#00FF00" stroke-width="1.00"/>
<polygon shape-type="trapezium" points="999,248 999,269 1013,259 1013,259 999,248" fill="#00FF00" stroke="#00FF00" stroke-width="1.00"/>
</g>
<g shape-type="group">
<rect shape-type="rectangle" x="1011" y="602" width="11" height="20" fill="#00FF00" stroke="#00FF00" stroke-width="1.00"/>
<polygon shape-type="trapezium" points="1007,621 1028,621 1017,633 1017,633 1007,621" fill="#00FF00" stroke="#00FF00" stroke-width="1.00"/>
</g>
<line shape-type="limitline" x1="652" y1="433" x2="652" y2="206" fill="#00FFFF" stroke="#000000" stroke-width="7.00"/>
<text font-family="宋体" text-anchor="start" fill="#000000" shape-type="text" id="" font-size="25.250000" font-weight="bold" x="447" y="337">九循循环水</text>
<rect shape-type="rectangle" x="793" y="201" width="63" height="26" fill="#4A494A" stroke="#C0C0C0" stroke-width="3.00"/>
<rect shape-type="rectangle" x="856" y="201" width="36" height="26" fill="#4A494A" stroke="#C0C0C0" stroke-width="3.00"/>
<text font-family="宋体" text-anchor="start" fill="#00FF42" shape-type="text" id="" font-size="10.250000" font-weight="bold" x="865" y="217">℃</text>
<line shape-type="limitline" x1="834" y1="255" x2="834" y2="228" fill="#00FFFF" stroke="#FFFFFF" stroke-width="3.00" stroke-dasharray="5 10"/>
<text font-family="宋体" text-anchor="start" fill="#FFFFFF" shape-type="text" id="" font-size="9.500000" font-weight="bold" x="48" y="220">回水温度TR-41101-2</text>
<text font-family="宋体" text-anchor="start" fill="#FFFFFF" shape-type="text" id="" font-size="9.500000" font-weight="bold" x="46" y="290">补水流量计FIRQ-41101-2</text>
<text font-family="宋体" text-anchor="start" fill="#FFFFFF" shape-type="text" id="" font-size="9.500000" font-weight="bold" x="44" y="336">补水流量计FIRQ-41101-4</text>
<text font-family="宋体" text-anchor="start" fill="#FFFFFF" shape-type="text" id="" font-size="9.500000" font-weight="bold" x="905" y="242">给水温度TR-41101-1</text>
<text font-family="宋体" text-anchor="start" fill="#FFFFFF" shape-type="text" id="" font-size="9.500000" font-weight="bold" x="917" y="577">供资源优化项目</text>
<text font-family="宋体" text-anchor="start" fill="#FFFFFF" shape-type="text" id="" font-size="9.500000" font-weight="bold" x="874" y="596">水流量计FIRQ-41101-1</text>
<line shape-type="limitline" x1="445" y1="441" x2="445" y2="606" fill="#00FFFF" stroke="#00FF00" stroke-width="3.00"/>
<g shape-type="group">
<rect shape-type="rectangle" x="436" y="515" width="19" height="29" fill="#808080" stroke="#FFFFFF" stroke-width="1.00"/>
<line shape-type="line" x1="446" y1="537" x2="453" y2="516" fill="#00FFFF" stroke="#FFFFFF" stroke-width="1.00"/>
<line shape-type="line" x1="446" y1="540" x2="436" y2="515" fill="#00FFFF" stroke="#FFFFFF" stroke-width="1.00"/>
</g>
<g shape-type="group">
<rect shape-type="rectangle" x="440" y="603" width="10" height="20" fill="#00FF00" stroke="#00FF00" stroke-width="1.00"/>
<polygon shape-type="trapezium" points="435,622 456,622 445,634 445,634 435,622" fill="#00FF00" stroke="#00FF00" stroke-width="1.00"/>
</g>
<text font-family="宋体" text-anchor="start" fill="#FFFFFF" shape-type="text" id="" font-size="9.500000" font-weight="bold" x="463" y="576">排污水流量计</text>
<text font-family="宋体" text-anchor="start" fill="#FFFFFF" shape-type="text" id="" font-size="9.500000" font-weight="bold" x="464" y="593">FIRQ-41101-3</text>
<rect shape-type="rectangle" x="285" y="518" width="63" height="26" fill="#4A494A" stroke="#C0C0C0" stroke-width="3.00"/>
<rect shape-type="rectangle" x="348" y="518" width="36" height="26" fill="#4A494A" stroke="#C0C0C0" stroke-width="3.00"/>
<text font-family="宋体" text-anchor="start" fill="#00FF42" shape-type="text" id="" font-size="10.250000" font-weight="bold" x="357" y="534">t/h</text>
<rect shape-type="rectangle" x="877" y="496" width="63" height="26" fill="#4A494A" stroke="#C0C0C0" stroke-width="3.00"/>
<rect shape-type="rectangle" x="940" y="496" width="36" height="26" fill="#4A494A" stroke="#C0C0C0" stroke-width="3.00"/>
<text font-family="宋体" text-anchor="start" fill="#00FF42" shape-type="text" id="" font-size="10.250000" font-weight="bold" x="949" y="512">t/h</text>
<rect shape-type="rectangle" x="234" y="371" width="63" height="26" fill="#4A494A" stroke="#C0C0C0" stroke-width="3.00"/>
<rect shape-type="rectangle" x="297" y="371" width="36" height="26" fill="#4A494A" stroke="#C0C0C0" stroke-width="3.00"/>
<text font-family="宋体" text-anchor="start" fill="#00FF42" shape-type="text" id="" font-size="10.250000" font-weight="bold" x="306" y="387">t/h</text>
<rect shape-type="rectangle" x="210" y="184" width="63" height="26" fill="#4A494A" stroke="#C0C0C0" stroke-width="3.00"/>
<rect shape-type="rectangle" x="273" y="184" width="36" height="26" fill="#4A494A" stroke="#C0C0C0" stroke-width="3.00"/>
<text font-family="宋体" text-anchor="start" fill="#00FF42" shape-type="text" id="" font-size="10.250000" font-weight="bold" x="287" y="201">℃</text>
<rect shape-type="rectangle" x="258" y="257" width="63" height="26" fill="#4A494A" stroke="#C0C0C0" stroke-width="3.00"/>
<rect shape-type="rectangle" x="321" y="257" width="36" height="26" fill="#4A494A" stroke="#C0C0C0" stroke-width="3.00"/>
<text font-family="宋体" text-anchor="start" fill="#00FF42" shape-type="text" id="" font-size="10.250000" font-weight="bold" x="330" y="273">t/h</text>
<line shape-type="limitline" x1="248" y1="235" x2="248" y2="213" fill="#00FFFF" stroke="#FFFFFF" stroke-width="3.00" stroke-dasharray="5 10"/>
<line shape-type="limitline" x1="303" y1="307" x2="303" y2="284" fill="#00FFFF" stroke="#FFFFFF" stroke-width="3.00" stroke-dasharray="5 10"/>
<line shape-type="limitline" x1="287" y1="370" x2="287" y2="350" fill="#00FFFF" stroke="#FFFFFF" stroke-width="3.00" stroke-dasharray="5 10"/>
<line shape-type="limitline" x1="431" y1="529" x2="381" y2="529" fill="#00FFFF" stroke="#FFFFFF" stroke-width="3.00" stroke-dasharray="5 10"/>
<g shape-type="group">
<rect shape-type="rectangle" x="44" y="405" width="21" height="10" fill="#00FF00" stroke="#00FF00" stroke-width="1.00"/>
<polygon shape-type="trapezium" points="63,400 63,421 76,411 76,411 63,400" fill="#00FF00" stroke="#00FF00" stroke-width="1.00"/>
</g>
<text font-family="宋体" text-anchor="start" fill="#FFFFFF" shape-type="text" id="" font-size="9.500000" font-weight="bold" x="45" y="394">回水压力PI-41102</text>
<rect shape-type="rectangle" x="72" y="438" width="63" height="26" fill="#4A494A" stroke="#C0C0C0" stroke-width="3.00"/>
<rect shape-type="rectangle" x="135" y="438" width="36" height="26" fill="#4A494A" stroke="#C0C0C0" stroke-width="3.00"/>
<text font-family="宋体" text-anchor="start" fill="#00FF42" shape-type="text" id="" font-size="10.250000" font-weight="bold" x="144" y="454">MPa</text>
<line shape-type="limitline" x1="142" y1="433" x2="142" y2="413" fill="#00FFFF" stroke="#FFFFFF" stroke-width="3.00" stroke-dasharray="5 10"/>
<g shape-type="group">
<rect shape-type="rectangle" x="1006" y="494" width="19" height="29" fill="#808080" stroke="#FFFFFF" stroke-width="1.00"/>
<line shape-type="line" x1="1016" y1="517" x2="1023" y2="495" fill="#00FFFF" stroke="#FFFFFF" stroke-width="1.00"/>
<line shape-type="line" x1="1016" y1="519" x2="1006" y2="494" fill="#00FFFF" stroke="#FFFFFF" stroke-width="1.00"/>
</g>
<rect shape-type="rectangle" x="479" y="149" width="63" height="26" fill="#4A494A" stroke="#C0C0C0" stroke-width="3.00"/>
<rect shape-type="rectangle" x="542" y="149" width="36" height="26" fill="#4A494A" stroke="#C0C0C0" stroke-width="3.00"/>
<text font-family="宋体" text-anchor="start" fill="#00FF42" shape-type="text" id="" font-size="11.000000" font-weight="bold" x="556" y="165">m</text>
<line shape-type="limitline" x1="517" y1="200" x2="517" y2="178" fill="#00FFFF" stroke="#FFFFFF" stroke-width="3.00" stroke-dasharray="5 10"/>
<g shape-type="group">
<rect shape-type="rectangle" x="988" y="322" width="20" height="10" fill="#00FF00" stroke="#00FF00" stroke-width="1.00"/>
<polygon shape-type="trapezium" points="1006,317 1006,337 1020,327 1020,327 1006,317" fill="#00FF00" stroke="#00FF00" stroke-width="1.00"/>
</g>
<rect shape-type="rectangle" x="801" y="270" width="63" height="26" fill="#4A494A" stroke="#C0C0C0" stroke-width="3.00"/>
<rect shape-type="rectangle" x="864" y="270" width="36" height="26" fill="#4A494A" stroke="#C0C0C0" stroke-width="3.00"/>
<text font-family="宋体" text-anchor="start" fill="#00FF42" shape-type="text" id="" font-size="9.500000" font-weight="bold" x="872" y="286">MPa</text>
<line shape-type="limitline" x1="842" y1="324" x2="842" y2="297" fill="#00FFFF" stroke="#FFFFFF" stroke-width="3.00" stroke-dasharray="5 10"/>
<text font-family="宋体" text-anchor="start" fill="#FFFFFF" shape-type="text" id="" font-size="9.500000" font-weight="bold" x="913" y="313">给水压力PI-41101</text>
<text font-family="Arial" text-anchor="start" fill="#00FFFF" shape-type="realdata" id="DLB_JX_PI_41102" font-size="12.500000" x="76" y="455">XXXX</text>
<text font-family="Arial" text-anchor="start" fill="#00FFFF" shape-type="realdata" id="DLB_JX_FI_41101_4" font-size="12.500000" x="238" y="388">XXXX</text>
<text font-family="Arial" text-anchor="start" fill="#00FFFF" shape-type="realdata" id="DLB_JX_FI_41101_2" font-size="12.500000" x="263" y="274">XXXX</text>
<text font-family="Arial" text-anchor="start" fill="#00FFFF" shape-type="realdata" id="DLB_JX_TI_41101_2" font-size="12.500000" x="215" y="200">XXXX</text>
<text font-family="Arial" text-anchor="start" fill="#00FFFF" shape-type="realdata" id="DLB_JX_FI_41101_3" font-size="12.500000" x="289" y="535">XXXX</text>
<text font-family="Arial" text-anchor="start" fill="#00FFFF" shape-type="realdata" id="DLB_JX_LI_41101" font-size="12.500000" x="483" y="166">XXXX</text>
<text font-family="Arial" text-anchor="start" fill="#00FFFF" shape-type="realdata" id="DLB_JX_TI_41101_1" font-size="12.500000" x="797" y="217">XXXX</text>
<text font-family="Arial" text-anchor="start" fill="#00FFFF" shape-type="realdata" id="DLB_JX_PT_41101" font-size="12.500000" x="805" y="286">XXXX</text>
<text font-family="Arial" text-anchor="start" fill="#00FFFF" shape-type="realdata" id="DLB_JX_FI_41101_1" font-size="12.500000" x="881" y="512">XXXX</text>
<text font-family="宋体" text-anchor="start" fill="#FFFFFF" shape-type="text" id="" font-size="9.500000" font-weight="bold" x="347" y="156">九循液位JX_LI_41101</text>
<rect shape-type="rectangle" x="-1" y="756" width="1066" height="45" fill="url(#lgradient83)" stroke="#636563" stroke-width="1.00"/>
<a xlink:href="\动力部\供水装置\七循\七循工艺流程图.svg">
<g shape-type="button">
<rect fill="#C0C0C0" stroke-width="0.3" stroke="#FFFFFF" x="21" y="765" width="158" height="28" shape-type="buttonrect"/>
<text font-family="宋体" text-anchor="middle" dominant-baseline="middle" fill="#000000" font-size="12.000000" x="100" y="785" shape-type="buttontext">七循工艺流程图</text>
</g>
</a>
<a xlink:href="\动力部\供水装置\八循\八循工艺流程图.svg">
<g shape-type="button">
<rect fill="#C0C0C0" stroke-width="0.3" stroke="#FFFFFF" x="198" y="765" width="158" height="28" shape-type="buttonrect"/>
<text font-family="宋体" text-anchor="middle" dominant-baseline="middle" fill="#000000" font-size="12.000000" x="277" y="785" shape-type="buttontext">八循工艺流程图</text>
</g>
</a>
<a xlink:href="\动力部\供水装置\九循\九循工艺流程图.svg">
<g shape-type="button">
<rect fill="#C0C0C0" stroke-width="0.3" stroke="#FFFFFF" x="377" y="765" width="157" height="30" shape-type="buttonrect"/>
<text font-family="宋体" text-anchor="middle" dominant-baseline="middle" fill="#000000" font-size="12.000000" x="456" y="786" shape-type="buttontext">九循工艺流程图</text>
</g>
</a>
</svg>
