<?xml version="1.0"?>
<?xml-stylesheet type='text/javascript'?>
<!--Draw SVG: 2019-11-25 09:41:09 47-Monday-->
<svg xmlns="http://www.w3.org/2000/svg" xmlns:xlink="http://www.w3.org/1999/xlink" version="1.1" style="background-color:#000000" width="1066" height="800" viewbox="0 0 1066 800">
<defs>
<linearGradient x1="0.000000%" y1="50.000000%" x2="100.000000%" y2="50.000000%" id="lgradient7">
<stop offset="0" stop-color="#2C2C2C" stop-opacity="1"/>
<stop offset="0.5" stop-color="#FFFFFF" stop-opacity="1"/>
<stop offset="1" stop-color="#2C2C2C" stop-opacity="1"/>
</linearGradient>
<linearGradient x1="0.000000%" y1="50.000000%" x2="100.000000%" y2="50.000000%" id="lgradient8">
<stop offset="0" stop-color="#2C2C2C" stop-opacity="1"/>
<stop offset="0.5" stop-color="#FFFFFF" stop-opacity="1"/>
<stop offset="1" stop-color="#2C2C2C" stop-opacity="1"/>
</linearGradient>
<linearGradient x1="50%" y1="0%" x2="50%" y2="100%" id="lgradient9">
<stop offset="0" stop-color="#2C2C2C" stop-opacity="1"/>
<stop offset="0.5" stop-color="#FFFFFF" stop-opacity="1"/>
<stop offset="1" stop-color="#2C2C2C" stop-opacity="1"/></linearGradient>
<linearGradient x1="50%" y1="0%" x2="50%" y2="100%" id="lgradient10">
<stop offset="0" stop-color="#2C2C2C" stop-opacity="1"/>
<stop offset="0.5" stop-color="#FFFFFF" stop-opacity="1"/>
<stop offset="1" stop-color="#2C2C2C" stop-opacity="1"/></linearGradient>
<linearGradient x1="0.000000%" y1="50.000000%" x2="100.000000%" y2="50.000000%" id="lgradient46">
<stop offset="0" stop-color="#2C2C2C" stop-opacity="1"/>
<stop offset="0.5" stop-color="#FFFFFF" stop-opacity="1"/>
<stop offset="1" stop-color="#2C2C2C" stop-opacity="1"/>
</linearGradient>
<linearGradient x1="0.000000%" y1="50.000000%" x2="100.000000%" y2="50.000000%" id="lgradient47">
<stop offset="0" stop-color="#2C2C2C" stop-opacity="1"/>
<stop offset="0.5" stop-color="#FFFFFF" stop-opacity="1"/>
<stop offset="1" stop-color="#2C2C2C" stop-opacity="1"/>
</linearGradient>
<linearGradient x1="0.000000%" y1="50.000000%" x2="100.000000%" y2="50.000000%" id="lgradient48">
<stop offset="0" stop-color="#2C2C2C" stop-opacity="1"/>
<stop offset="0.5" stop-color="#FFFFFF" stop-opacity="1"/>
<stop offset="1" stop-color="#2C2C2C" stop-opacity="1"/>
</linearGradient>
<linearGradient x1="0.000000%" y1="50.000000%" x2="100.000000%" y2="50.000000%" id="lgradient49">
<stop offset="0" stop-color="#2C2C2C" stop-opacity="1"/>
<stop offset="0.5" stop-color="#FFFFFF" stop-opacity="1"/>
<stop offset="1" stop-color="#2C2C2C" stop-opacity="1"/>
</linearGradient>
<linearGradient x1="0.000000%" y1="50.000000%" x2="100.000000%" y2="50.000000%" id="lgradient52">
<stop offset="0" stop-color="#2C2C2C" stop-opacity="1"/>
<stop offset="0.5" stop-color="#FFFFFF" stop-opacity="1"/>
<stop offset="1" stop-color="#2C2C2C" stop-opacity="1"/>
</linearGradient>
<linearGradient x1="0.000000%" y1="50.000000%" x2="100.000000%" y2="50.000000%" id="lgradient53_5">
<stop offset="0" stop-color="#2C2C2C" stop-opacity="1"/>
<stop offset="0.5" stop-color="#FFFFFF" stop-opacity="1"/>
<stop offset="1" stop-color="#2C2C2C" stop-opacity="1"/>
</linearGradient>
<linearGradient x1="0.000000%" y1="50.000000%" x2="100.000000%" y2="50.000000%" id="lgradient53_6">
<stop offset="0" stop-color="#2C2C2C" stop-opacity="1"/>
<stop offset="0.5" stop-color="#FFFFFF" stop-opacity="1"/>
<stop offset="1" stop-color="#2C2C2C" stop-opacity="1"/>
</linearGradient>
<linearGradient x1="0.000000%" y1="50.000000%" x2="100.000000%" y2="50.000000%" id="lgradient53_7">
<stop offset="0" stop-color="#2C2C2C" stop-opacity="1"/>
<stop offset="0.5" stop-color="#FFFFFF" stop-opacity="1"/>
<stop offset="1" stop-color="#2C2C2C" stop-opacity="1"/>
</linearGradient>
<linearGradient x1="0.000000%" y1="50.000000%" x2="100.000000%" y2="50.000000%" id="lgradient53_8">
<stop offset="0" stop-color="#2C2C2C" stop-opacity="1"/>
<stop offset="0.5" stop-color="#FFFFFF" stop-opacity="1"/>
<stop offset="1" stop-color="#2C2C2C" stop-opacity="1"/>
</linearGradient>
<linearGradient x1="0.000000%" y1="50.000000%" x2="100.000000%" y2="50.000000%" id="lgradient53_9">
<stop offset="0" stop-color="#2C2C2C" stop-opacity="1"/>
<stop offset="0.5" stop-color="#FFFFFF" stop-opacity="1"/>
<stop offset="1" stop-color="#2C2C2C" stop-opacity="1"/>
</linearGradient>
<linearGradient x1="0.000000%" y1="50.000000%" x2="100.000000%" y2="50.000000%" id="lgradient53_10">
<stop offset="0" stop-color="#2C2C2C" stop-opacity="1"/>
<stop offset="0.5" stop-color="#FFFFFF" stop-opacity="1"/>
<stop offset="1" stop-color="#2C2C2C" stop-opacity="1"/>
</linearGradient>
<linearGradient x1="0.000000%" y1="50.000000%" x2="100.000000%" y2="50.000000%" id="lgradient72">
<stop offset="0" stop-color="#2C2C2C" stop-opacity="1"/>
<stop offset="0.5" stop-color="#FFFFFF" stop-opacity="1"/>
<stop offset="1" stop-color="#2C2C2C" stop-opacity="1"/>
</linearGradient>
<linearGradient x1="0.000000%" y1="50.000000%" x2="100.000000%" y2="50.000000%" id="lgradient231">
<stop offset="0" stop-color="#111111" stop-opacity="1"/>
<stop offset="0.5" stop-color="#636563" stop-opacity="1"/>
<stop offset="1" stop-color="#111111" stop-opacity="1"/>
</linearGradient>
</defs>
<line shape-type="limitline" x1="105" y1="220" x2="194" y2="220" fill="#00FFFF" stroke="#FFFFFF" stroke-width="3.00" stroke-dasharray="5 10"/>
<line shape-type="limitline" x1="106" y1="260" x2="195" y2="260" fill="#00FFFF" stroke="#FFFFFF" stroke-width="3.00" stroke-dasharray="5 10"/>
<line shape-type="limitline" x1="106" y1="302" x2="195" y2="302" fill="#00FFFF" stroke="#FFFFFF" stroke-width="3.00" stroke-dasharray="5 10"/>
<line shape-type="limitline" x1="105" y1="344" x2="194" y2="344" fill="#00FFFF" stroke="#FFFFFF" stroke-width="3.00" stroke-dasharray="5 10"/>
<line shape-type="limitline" x1="105" y1="427" x2="194" y2="427" fill="#00FFFF" stroke="#FFFFFF" stroke-width="3.00" stroke-dasharray="5 10"/>
<line shape-type="limitline" x1="105" y1="385" x2="194" y2="385" fill="#00FFFF" stroke="#FFFFFF" stroke-width="3.00" stroke-dasharray="5 10"/>
<rect shape-type="rectangle" x="547" y="69" width="77" height="73" fill="url(#lgradient7)" stroke="#FFFFFF" stroke-width="2.00"/>
<rect shape-type="rectangle" x="352" y="191" width="60" height="144" fill="url(#lgradient8)" stroke="#FFFFFF" stroke-width="2.00"/>
<polygon shape-type="parallel" points="170,525 183,525 178,513 165,513 170,525" fill="url(#lgradient9)" stroke="#FFFFFF" stroke-width="2.00"/>
<polygon shape-type="parallel" points="122,525 109,525 114,513 127,513 122,525" fill="url(#lgradient10)" stroke="#FFFFFF" stroke-width="2.00"/>
<line shape-type="limitline" x1="147" y1="151" x2="147" y2="91" fill="#0075BD" stroke="#0075BD" stroke-width="3.00"/>
<line shape-type="limitline" x1="373" y1="92" x2="147" y2="92" fill="#0075BD" stroke="#0075BD" stroke-width="3.00"/>
<line shape-type="limitline" x1="374" y1="190" x2="374" y2="92" fill="#0075BD" stroke="#0075BD" stroke-width="3.00"/>
<line shape-type="limitline" x1="400" y1="190" x2="400" y2="91" fill="#0075BD" stroke="#0075BD" stroke-width="3.00"/>
<line shape-type="limitline" x1="549" y1="91" x2="401" y2="91" fill="#0075BD" stroke="#0075BD" stroke-width="3.00"/>
<line shape-type="limitline" x1="675" y1="133" x2="623" y2="133" fill="#0075BD" stroke="#0075BD" stroke-width="3.00"/>
<line shape-type="limitline" x1="675" y1="204" x2="675" y2="132" fill="#0075BD" stroke="#0075BD" stroke-width="3.00"/>
<line shape-type="limitline" x1="709" y1="207" x2="709" y2="184" fill="#0075BD" stroke="#0075BD" stroke-width="3.00"/>
<line shape-type="limitline" x1="989" y1="185" x2="709" y2="185" fill="#0075BD" stroke="#0075BD" stroke-width="3.00"/>
<line shape-type="limitline" x1="693" y1="421" x2="693" y2="348" fill="#0075BD" stroke="#0075BD" stroke-width="3.00"/>
<line shape-type="limitline" x1="694" y1="423" x2="381" y2="423" fill="#0075BD" stroke="#0075BD" stroke-width="3.00"/>
<line shape-type="limitline" x1="381" y1="424" x2="381" y2="335" fill="#0075BD" stroke="#0075BD" stroke-width="3.00"/>
<rect shape-type="rectangle" x="433" y="393" width="84" height="63" fill="none" stroke="#0075BD" stroke-width="3.00"/>
<line shape-type="limitline" x1="579" y1="424" x2="579" y2="628" fill="#31BE00" stroke="#31BE00" stroke-width="3.00"/>
<line shape-type="limitline" x1="1008" y1="629" x2="579" y2="629" fill="#31BE00" stroke="#31BE00" stroke-width="3.00"/>
<line shape-type="limitline" x1="527" y1="422" x2="527" y2="679" fill="#0075BD" stroke="#0075BD" stroke-width="3.00"/>
<line shape-type="limitline" x1="1008" y1="678" x2="527" y2="678" fill="#0075BD" stroke="#0075BD" stroke-width="3.00"/>
<line shape-type="limitline" x1="851" y1="593" x2="1009" y2="593" fill="#31BE00" stroke="#31BE00" stroke-width="3.00"/>
<line shape-type="limitline" x1="850" y1="629" x2="850" y2="592" fill="#31BE00" stroke="#31BE00" stroke-width="3.00"/>
<line shape-type="limitline" x1="295" y1="241" x2="353" y2="241" stroke="#FFFFFF" stroke-width="3.00"/>
<line shape-type="limitline" x1="295" y1="242" x2="295" y2="398" stroke="#FFFFFF" stroke-width="3.00"/>
<line shape-type="limitline" x1="411" y1="330" x2="466" y2="330" stroke="#FFFFFF" stroke-width="3.00"/>
<line shape-type="limitline" x1="466" y1="364" x2="466" y2="329" stroke="#FFFFFF" stroke-width="3.00"/>
<line shape-type="limitline" x1="148" y1="589" x2="148" y2="546" fill="#0075BD" stroke="#0075BD" stroke-width="3.00"/>
<line shape-type="limitline" x1="202" y1="588" x2="148" y2="588" fill="#0075BD" stroke="#0075BD" stroke-width="3.00"/>
<line shape-type="limitline" x1="201" y1="664" x2="39" y2="664" fill="#0075BD" stroke="#0075BD" stroke-width="3.00"/>
<line shape-type="limitline" x1="236" y1="685" x2="236" y2="667" fill="#0075BD" stroke="#0075BD" stroke-width="3.00"/>
<line shape-type="limitline" x1="237" y1="685" x2="346" y2="685" fill="#0075BD" stroke="#0075BD" stroke-width="3.00"/>
<line shape-type="limitline" x1="234" y1="572" x2="234" y2="585" fill="#0075BD" stroke="#0075BD" stroke-width="3.00"/>
<line shape-type="limitline" x1="343" y1="573" x2="234" y2="573" fill="#0075BD" stroke="#0075BD" stroke-width="3.00"/>
<rect shape-type="rectangle" x="2" y="1" width="1065" height="44" fill="#636563" stroke="#808080" stroke-width="1.00"/>
<rect shape-type="rectangle" x="294" y="6" width="500" height="33" stroke="#000000" stroke-width="1.00"/>
<rect shape-type="rectangle" x="9" y="7" width="67" height="29" stroke="#000000" stroke-width="1.00"/>
<text font-family="宋体" text-anchor="start" fill="#FFFFFF" shape-type="text" id="" font-size="11.750000" font-weight="bold" x="17" y="27">M3602B</text>
<text font-family="宋体" text-anchor="start" fill="#FFFFFF" shape-type="text" id="" font-size="26.000000" font-weight="bold" x="390" y="33">NA 混 合 反 应 B</text>
<rect shape-type="rectangle" x="118" y="156" width="57" height="372" fill="url(#lgradient46)" stroke="#FFFFFF" stroke-width="2.00"/>
<rect shape-type="rectangle" x="116" y="149" width="61" height="9" fill="url(#lgradient47)" stroke="#FFFFFF" stroke-width="2.00"/>
<polygon shape-type="trapezium" points="174,527 118,527 146,548 146,548 174,527" fill="url(#lgradient48)" stroke="#FFFFFF" stroke-width="2.00"/>
<rect shape-type="rectangle" x="661" y="204" width="60" height="144" fill="url(#lgradient49)" stroke="#FFFFFF" stroke-width="2.00"/>
<line shape-type="line" x1="113" y1="643" x2="115" y2="524" fill="#FFFFFF" stroke="#FFFFFF" stroke-width="3.00"/>
<line shape-type="line" x1="178" y1="644" x2="180" y2="525" fill="#FFFFFF" stroke="#FFFFFF" stroke-width="3.00"/>
<rect shape-type="rectangle" x="106" y="641" width="80" height="9" fill="url(#lgradient52)" stroke="#FFFFFF" stroke-width="2.00"/>
<g shape-type="group">
<path shape-type="arc" d="M 242,663 A 20,10 0 1,0 242,647" fill="none" stroke="#FFFFFF" stroke-width="3.00"/>
<path shape-type="arc" d="M 241,635 A 20,11 0 1,0 241,618" fill="none" stroke="#FFFFFF" stroke-width="3.00"/>
<path shape-type="arc" d="M 241,604 A 20,9 0 1,0 241,588" fill="none" stroke="#FFFFFF" stroke-width="3.00"/>
<path shape-type="arc" d="M 203,604 A 19,10 0 1,0 203,620" fill="none" stroke="#FFFFFF" stroke-width="3.00"/>
<path shape-type="arc" d="M 204,632 A 19,10 0 1,0 204,648" fill="none" stroke="#FFFFFF" stroke-width="3.00"/>
<rect shape-type="rectangle" x="201" y="586" width="42" height="7" fill="url(#lgradient53_5)" stroke="#FFFFFF" stroke-width="2.00"/>
<rect shape-type="rectangle" x="201" y="599" width="42" height="9" fill="url(#lgradient53_6)" stroke="#FFFFFF" stroke-width="2.00"/>
<rect shape-type="rectangle" x="201" y="614" width="42" height="8" fill="url(#lgradient53_7)" stroke="#FFFFFF" stroke-width="2.00"/>
<rect shape-type="rectangle" x="201" y="628" width="42" height="9" fill="url(#lgradient53_8)" stroke="#FFFFFF" stroke-width="2.00"/>
<rect shape-type="rectangle" x="201" y="644" width="42" height="8" fill="url(#lgradient53_9)" stroke="#FFFFFF" stroke-width="2.00"/>
<rect shape-type="rectangle" x="201" y="659" width="42" height="7" fill="url(#lgradient53_10)" stroke="#FFFFFF" stroke-width="2.00"/>
</g>
<line shape-type="limitline" x1="353" y1="280" x2="410" y2="280" fill="#00FFFF" stroke="#FFFFFF" stroke-width="3.00"/>
<line shape-type="limitline" x1="353" y1="301" x2="410" y2="301" fill="#00FFFF" stroke="#FFFFFF" stroke-width="3.00"/>
<line shape-type="limitline" x1="353" y1="318" x2="410" y2="318" fill="#00FFFF" stroke="#FFFFFF" stroke-width="3.00"/>
<path shape-type="arc" d="M 352,279 A 38,8 0 1,0 352,292" fill="none" stroke="#FFFFFF" stroke-width="3.00"/>
<path shape-type="arc" d="M 353,300 A 38,8 0 1,0 353,313" fill="none" stroke="#FFFFFF" stroke-width="3.00"/>
<path shape-type="arc" d="M 353,317 A 38,8 0 1,0 353,330" fill="none" stroke="#FFFFFF" stroke-width="3.00"/>
<path shape-type="arc" d="M 412,280 A 32,6 0 1,0 412,270" fill="none" stroke="#FFFFFF" stroke-width="3.00"/>
<path shape-type="arc" d="M 412,302 A 32,8 0 1,0 412,289" fill="none" stroke="#FFFFFF" stroke-width="3.00"/>
<path shape-type="arc" d="M 412,318 A 32,7 0 1,0 412,306" fill="none" stroke="#FFFFFF" stroke-width="3.00"/>
<line shape-type="limitline" x1="616" y1="91" x2="547" y2="91" fill="#00FFFF" stroke="#FFFFFF" stroke-width="3.00"/>
<line shape-type="limitline" x1="555" y1="102" x2="615" y2="102" fill="#00FFFF" stroke="#FFFFFF" stroke-width="3.00"/>
<line shape-type="limitline" x1="555" y1="111" x2="615" y2="111" fill="#00FFFF" stroke="#FFFFFF" stroke-width="3.00"/>
<line shape-type="limitline" x1="555" y1="123" x2="615" y2="123" fill="#00FFFF" stroke="#FFFFFF" stroke-width="3.00"/>
<line shape-type="limitline" x1="555" y1="133" x2="623" y2="133" fill="#00FFFF" stroke="#FFFFFF" stroke-width="3.00"/>
<path shape-type="arc" d="M 557,101 A 15,7 0 1,0 557,112" fill="none" stroke="#FFFFFF" stroke-width="3.00"/>
<path shape-type="arc" d="M 556,123 A 15,6 0 1,0 556,133" fill="none" stroke="#FFFFFF" stroke-width="3.00"/>
<path shape-type="arc" d="M 616,102 A 15,7 0 1,0 616,91" fill="none" stroke="#FFFFFF" stroke-width="3.00"/>
<path shape-type="arc" d="M 616,122 A 15,7 0 1,0 616,111" fill="none" stroke="#FFFFFF" stroke-width="3.00"/>
<rect shape-type="rectangle" x="544" y="141" width="82" height="11" fill="url(#lgradient72)" stroke="#FFFFFF" stroke-width="2.00"/>
<g shape-type="group">
<path shape-type="chord" d="M 297,565 A 12,18 0 0,0 278,565 z" fill="#C0C0C0" stroke="#C0C0C0" stroke-width="2.00"/>
<g shape-type="group">
<polygon shape-type="trapezium" points="277,569 277,578 286,574 286,574 277,569" fill="#C0C0C0" stroke="#C0C0C0" stroke-width="1.00"/>
<polygon shape-type="trapezium" points="296,569 296,578 285,574 285,574 296,569" fill="#C0C0C0" stroke="#C0C0C0" stroke-width="1.00"/>
</g>
<line shape-type="limitline" x1="286" y1="563" x2="285" y2="570" fill="#00FFFF" stroke="#C0C0C0" stroke-width="1.00"/>
<polygon shape-type="trapezium" points="290,566 283,566 287,574 287,574 290,566" fill="#C0C0C0" stroke="#C0C0C0" stroke-width="1.00"/>
</g>
<g shape-type="group">
<path shape-type="chord" d="M 630,414 A 12,18 0 0,0 611,414 z" fill="#C0C0C0" stroke="#C0C0C0" stroke-width="2.00"/>
<g shape-type="group">
<polygon shape-type="trapezium" points="610,419 610,428 620,424 620,424 610,419" fill="#C0C0C0" stroke="#C0C0C0" stroke-width="1.00"/>
<polygon shape-type="trapezium" points="629,419 629,428 619,424 619,424 629,419" fill="#C0C0C0" stroke="#C0C0C0" stroke-width="1.00"/>
</g>
<line shape-type="limitline" x1="620" y1="413" x2="619" y2="420" fill="#00FFFF" stroke="#C0C0C0" stroke-width="1.00"/>
<polygon shape-type="trapezium" points="623,416 617,416 620,424 620,424 623,416" fill="#C0C0C0" stroke="#C0C0C0" stroke-width="1.00"/>
</g>
<g shape-type="group">
<path shape-type="chord" d="M 325,231 A 12,19 0 0,0 306,231 z" fill="#C0C0C0" stroke="#C0C0C0" stroke-width="2.00"/>
<g shape-type="group">
<polygon shape-type="trapezium" points="305,237 305,245 315,241 315,241 305,237" fill="#C0C0C0" stroke="#C0C0C0" stroke-width="1.00"/>
<polygon shape-type="trapezium" points="324,237 324,245 314,241 314,241 324,237" fill="#C0C0C0" stroke="#C0C0C0" stroke-width="1.00"/>
</g>
<line shape-type="limitline" x1="315" y1="231" x2="314" y2="238" fill="#00FFFF" stroke="#C0C0C0" stroke-width="1.00"/>
<polygon shape-type="trapezium" points="318,233 311,233 315,241 315,241 318,233" fill="#C0C0C0" stroke="#C0C0C0" stroke-width="1.00"/>
</g>
<g shape-type="group">
<path shape-type="chord" d="M 497,384 A 12,18 0 0,0 478,384 z" fill="#C0C0C0" stroke="#C0C0C0" stroke-width="2.00"/>
<g shape-type="group">
<polygon shape-type="trapezium" points="477,389 477,398 486,394 486,394 477,389" fill="#C0C0C0" stroke="#C0C0C0" stroke-width="1.00"/>
<polygon shape-type="trapezium" points="496,389 496,398 485,394 485,394 496,389" fill="#C0C0C0" stroke="#C0C0C0" stroke-width="1.00"/>
</g>
<line shape-type="limitline" x1="486" y1="383" x2="485" y2="390" fill="#00FFFF" stroke="#C0C0C0" stroke-width="1.00"/>
<polygon shape-type="trapezium" points="490,386 483,386 487,394 487,394 490,386" fill="#C0C0C0" stroke="#C0C0C0" stroke-width="1.00"/>
</g>
<g shape-type="group">
<path shape-type="chord" d="M 459,464 A 12,18 0 0,0 478,464 z" fill="#C0C0C0" stroke="#C0C0C0" stroke-width="2.00"/>
<g shape-type="group">
<polygon shape-type="trapezium" points="458,460 458,449 468,454 468,454 458,460" fill="#C0C0C0" stroke="#C0C0C0" stroke-width="1.00"/>
<polygon shape-type="trapezium" points="477,460 477,449 467,454 467,454 477,460" fill="#C0C0C0" stroke="#C0C0C0" stroke-width="1.00"/>
</g>
<line shape-type="limitline" x1="468" y1="465" x2="467" y2="458" fill="#00FFFF" stroke="#C0C0C0" stroke-width="1.00"/>
<polygon shape-type="trapezium" points="471,462 465,462 468,453 468,453 471,462" fill="#C0C0C0" stroke="#C0C0C0" stroke-width="1.00"/>
</g>
<g shape-type="group">
<polygon shape-type="trapezium" points="21,671 21,654 35,662 35,662 21,671" fill="#808080" stroke="#808080" stroke-width="2.00"/>
<rect shape-type="rectangle" x="10" y="658" width="12" height="10" fill="#808080" stroke="#808080" stroke-width="2.00"/>
</g>
<g shape-type="group">
<polygon shape-type="trapezium" points="1020,642 1020,625 1034,633 1034,633 1020,642" fill="#808080" stroke="#808080" stroke-width="2.00"/>
<rect shape-type="rectangle" x="1009" y="629" width="12" height="10" fill="#808080" stroke="#808080" stroke-width="2.00"/>
</g>
<g shape-type="group">
<polygon shape-type="trapezium" points="1021,686 1021,668 1035,677 1035,677 1021,686" fill="#808080" stroke="#808080" stroke-width="2.00"/>
<rect shape-type="rectangle" x="1010" y="672" width="12" height="9" fill="#808080" stroke="#808080" stroke-width="2.00"/>
</g>
<g shape-type="group">
<polygon shape-type="trapezium" points="1004,193 1004,176 1019,184 1019,184 1004,193" fill="#808080" stroke="#808080" stroke-width="2.00"/>
<rect shape-type="rectangle" x="994" y="180" width="11" height="10" fill="#808080" stroke="#808080" stroke-width="2.00"/>
</g>
<polygon shape-type="trapezium" points="122,667 122,658 130,662 130,662 122,667" fill="#0075BD" stroke="#0075BD" stroke-width="2.00"/>
<polygon shape-type="trapezium" points="288,690 288,681 296,685 296,685 288,690" fill="#0075BD" stroke="#0075BD" stroke-width="2.00"/>
<polygon shape-type="trapezium" points="925,633 925,624 933,628 933,628 925,633" fill="#31BE00" stroke="#31BE00" stroke-width="2.00"/>
<polygon shape-type="trapezium" points="859,189 859,180 867,184 867,184 859,189" fill="#0075BD" stroke="#0075BD" stroke-width="2.00"/>
<polygon shape-type="trapezium" points="452,334 452,325 460,329 460,329 452,334" fill="#FFFFFF" stroke="#FFFFFF" stroke-width="2.00"/>
<polygon shape-type="trapezium" points="238,577 230,577 234,585 234,585 238,577" fill="#0075BD" stroke="#0075BD" stroke-width="2.00"/>
<polygon shape-type="trapezium" points="385,373 377,373 381,381 381,381 385,373" fill="#0075BD" stroke="#0075BD" stroke-width="2.00"/>
<polygon shape-type="trapezium" points="531,507 523,507 527,515 527,515 531,507" fill="#0075BD" stroke="#0075BD" stroke-width="2.00"/>
<polygon shape-type="trapezium" points="378,101 370,101 374,109 374,109 378,101" fill="#0075BD" stroke="#0075BD" stroke-width="2.00"/>
<polygon shape-type="trapezium" points="152,557 144,557 148,549 148,549 152,557" fill="#0075BD" stroke="#0075BD" stroke-width="2.00"/>
<polygon shape-type="trapezium" points="299,326 291,326 295,318 295,318 299,326" fill="#FFFFFF" stroke="#FFFFFF" stroke-width="2.00"/>
<line shape-type="limitline" x1="487" y1="90" x2="487" y2="75" fill="#00FFFF" stroke="#FFFFFF" stroke-width="3.00" stroke-dasharray="5 10"/>
<line shape-type="limitline" x1="709" y1="145" x2="675" y2="145" fill="#00FFFF" stroke="#000000" stroke-width="3.00" stroke-dasharray="5 10"/>
<line shape-type="limitline" x1="710" y1="170" x2="676" y2="170" fill="#00FFFF" stroke="#000000" stroke-width="3.00" stroke-dasharray="5 10"/>
<line shape-type="limitline" x1="650" y1="325" x2="662" y2="325" fill="#00FFFF" stroke="#FFFFFF" stroke-width="3.00" stroke-dasharray="5 10"/>
<line shape-type="limitline" x1="446" y1="285" x2="412" y2="285" fill="#00FFFF" stroke="#FFFFFF" stroke-width="3.00" stroke-dasharray="5 10"/>
<line shape-type="limitline" x1="487" y1="307" x2="487" y2="374" fill="#00FFFF" stroke="#FFFFFF" stroke-width="3.00" stroke-dasharray="5 10"/>
<line shape-type="limitline" x1="427" y1="286" x2="427" y2="493" fill="#00FFFF" stroke="#FFFFFF" stroke-width="3.00" stroke-dasharray="5 10"/>
<line shape-type="limitline" x1="468" y1="494" x2="468" y2="470" fill="#00FFFF" stroke="#FFFFFF" stroke-width="3.00" stroke-dasharray="5 10"/>
<line shape-type="limitline" x1="333" y1="315" x2="333" y2="342" fill="#00FFFF" stroke="#FFFFFF" stroke-width="3.00" stroke-dasharray="5 10"/>
<line shape-type="limitline" x1="333" y1="316" x2="353" y2="316" fill="#00FFFF" stroke="#FFFFFF" stroke-width="3.00" stroke-dasharray="5 10"/>
<line shape-type="limitline" x1="231" y1="528" x2="197" y2="528" fill="#00FFFF" stroke="#FFFFFF" stroke-width="3.00" stroke-dasharray="5 10"/>
<line shape-type="limitline" x1="197" y1="528" x2="197" y2="586" fill="#00FFFF" stroke="#FFFFFF" stroke-width="3.00" stroke-dasharray="5 10"/>
<line shape-type="limitline" x1="315" y1="193" x2="315" y2="221" fill="#00FFFF" stroke="#FFFFFF" stroke-width="3.00" stroke-dasharray="5 10"/>
<line shape-type="limitline" x1="330" y1="171" x2="345" y2="171" fill="#00FFFF" stroke="#FFFFFF" stroke-width="3.00" stroke-dasharray="5 10"/>
<line shape-type="limitline" x1="345" y1="171" x2="345" y2="239" fill="#00FFFF" stroke="#FFFFFF" stroke-width="3.00" stroke-dasharray="5 10"/>
<rect shape-type="rectangle" x="27" y="207" width="50" height="23" fill="#4A494A" stroke="#C0C0C0" stroke-width="3.00"/>
<rect shape-type="rectangle" x="77" y="207" width="32" height="23" fill="#4A494A" stroke="#C0C0C0" stroke-width="3.00"/>
<text font-family="宋体" text-anchor="start" fill="#00FF42" shape-type="text" id="" font-size="9.500000" font-weight="bold" x="79" y="222">℃</text>
<rect shape-type="rectangle" x="27" y="249" width="50" height="23" fill="#4A494A" stroke="#C0C0C0" stroke-width="3.00"/>
<rect shape-type="rectangle" x="77" y="249" width="32" height="23" fill="#4A494A" stroke="#C0C0C0" stroke-width="3.00"/>
<rect shape-type="rectangle" x="27" y="292" width="50" height="23" fill="#4A494A" stroke="#C0C0C0" stroke-width="3.00"/>
<rect shape-type="rectangle" x="77" y="292" width="32" height="23" fill="#4A494A" stroke="#C0C0C0" stroke-width="3.00"/>
<rect shape-type="rectangle" x="27" y="334" width="50" height="23" fill="#4A494A" stroke="#C0C0C0" stroke-width="3.00"/>
<rect shape-type="rectangle" x="77" y="334" width="32" height="23" fill="#4A494A" stroke="#C0C0C0" stroke-width="3.00"/>
<rect shape-type="rectangle" x="27" y="375" width="50" height="23" fill="#4A494A" stroke="#C0C0C0" stroke-width="3.00"/>
<rect shape-type="rectangle" x="77" y="375" width="32" height="23" fill="#4A494A" stroke="#C0C0C0" stroke-width="3.00"/>
<rect shape-type="rectangle" x="27" y="417" width="50" height="23" fill="#4A494A" stroke="#C0C0C0" stroke-width="3.00"/>
<rect shape-type="rectangle" x="77" y="417" width="32" height="23" fill="#4A494A" stroke="#C0C0C0" stroke-width="3.00"/>
<rect shape-type="rectangle" x="193" y="208" width="50" height="23" fill="#4A494A" stroke="#C0C0C0" stroke-width="3.00"/>
<rect shape-type="rectangle" x="243" y="208" width="32" height="23" fill="#4A494A" stroke="#C0C0C0" stroke-width="3.00"/>
<rect shape-type="rectangle" x="193" y="250" width="50" height="23" fill="#4A494A" stroke="#C0C0C0" stroke-width="3.00"/>
<rect shape-type="rectangle" x="243" y="250" width="32" height="23" fill="#4A494A" stroke="#C0C0C0" stroke-width="3.00"/>
<rect shape-type="rectangle" x="297" y="342" width="50" height="23" fill="#4A494A" stroke="#C0C0C0" stroke-width="3.00"/>
<rect shape-type="rectangle" x="347" y="342" width="32" height="23" fill="#4A494A" stroke="#C0C0C0" stroke-width="3.00"/>
<rect shape-type="rectangle" x="193" y="293" width="50" height="23" fill="#4A494A" stroke="#C0C0C0" stroke-width="3.00"/>
<rect shape-type="rectangle" x="243" y="293" width="32" height="23" fill="#4A494A" stroke="#C0C0C0" stroke-width="3.00"/>
<rect shape-type="rectangle" x="193" y="335" width="50" height="23" fill="#4A494A" stroke="#C0C0C0" stroke-width="3.00"/>
<rect shape-type="rectangle" x="243" y="335" width="32" height="23" fill="#4A494A" stroke="#C0C0C0" stroke-width="3.00"/>
<rect shape-type="rectangle" x="193" y="376" width="50" height="23" fill="#4A494A" stroke="#C0C0C0" stroke-width="3.00"/>
<rect shape-type="rectangle" x="243" y="376" width="32" height="23" fill="#4A494A" stroke="#C0C0C0" stroke-width="3.00"/>
<rect shape-type="rectangle" x="193" y="418" width="50" height="23" fill="#4A494A" stroke="#C0C0C0" stroke-width="3.00"/>
<rect shape-type="rectangle" x="243" y="418" width="32" height="23" fill="#4A494A" stroke="#C0C0C0" stroke-width="3.00"/>
<rect shape-type="rectangle" x="232" y="518" width="57" height="24" fill="#4A494A" stroke="#C0C0C0" stroke-width="3.00"/>
<rect shape-type="rectangle" x="289" y="518" width="36" height="24" fill="#4A494A" stroke="#C0C0C0" stroke-width="3.00"/>
<rect shape-type="rectangle" x="409" y="496" width="57" height="24" fill="#4A494A" stroke="#C0C0C0" stroke-width="3.00"/>
<rect shape-type="rectangle" x="466" y="496" width="36" height="24" fill="#4A494A" stroke="#C0C0C0" stroke-width="3.00"/>
<text font-family="宋体" text-anchor="start" fill="#00FF42" shape-type="text" id="" font-size="11.000000" font-weight="bold" x="479" y="512">%</text>
<rect shape-type="rectangle" x="560" y="327" width="57" height="24" fill="#4A494A" stroke="#C0C0C0" stroke-width="3.00"/>
<rect shape-type="rectangle" x="617" y="327" width="36" height="24" fill="#4A494A" stroke="#C0C0C0" stroke-width="3.00"/>
<rect shape-type="rectangle" x="444" y="284" width="57" height="24" fill="#4A494A" stroke="#C0C0C0" stroke-width="3.00"/>
<rect shape-type="rectangle" x="501" y="284" width="37" height="24" fill="#4A494A" stroke="#C0C0C0" stroke-width="3.00"/>
<rect shape-type="rectangle" x="708" y="128" width="50" height="23" fill="#4A494A" stroke="#C0C0C0" stroke-width="3.00"/>
<rect shape-type="rectangle" x="758" y="128" width="32" height="23" fill="#4A494A" stroke="#C0C0C0" stroke-width="3.00"/>
<rect shape-type="rectangle" x="709" y="156" width="50" height="23" fill="#4A494A" stroke="#C0C0C0" stroke-width="3.00"/>
<rect shape-type="rectangle" x="759" y="156" width="32" height="23" fill="#4A494A" stroke="#C0C0C0" stroke-width="3.00"/>
<rect shape-type="rectangle" x="457" y="56" width="50" height="23" fill="#4A494A" stroke="#C0C0C0" stroke-width="3.00"/>
<rect shape-type="rectangle" x="507" y="56" width="32" height="23" fill="#4A494A" stroke="#C0C0C0" stroke-width="3.00"/>
<text font-family="宋体" text-anchor="start" fill="#FFFF00" shape-type="text" id="" font-size="11.750000" font-weight="bold" x="517" y="71">MPa</text>
<rect shape-type="rectangle" x="370" y="56" width="50" height="22" fill="#4A494A" stroke="#C0C0C0" stroke-width="3.00"/>
<rect shape-type="rectangle" x="420" y="56" width="32" height="22" fill="#4A494A" stroke="#C0C0C0" stroke-width="3.00"/>
<rect shape-type="rectangle" x="238" y="170" width="57" height="24" fill="#4A494A" stroke="#C0C0C0" stroke-width="3.00"/>
<rect shape-type="rectangle" x="295" y="170" width="36" height="24" fill="#4A494A" stroke="#C0C0C0" stroke-width="3.00"/>
<text font-family="宋体" text-anchor="start" fill="#00FF42" shape-type="text" id="" font-size="11.000000" font-weight="bold" x="301" y="186">MPa</text>
<text font-family="宋体" text-anchor="start" fill="#00FF42" shape-type="text" id="" font-size="9.500000" font-weight="bold" x="79" y="264">℃</text>
<text font-family="宋体" text-anchor="start" fill="#00FF42" shape-type="text" id="" font-size="9.500000" font-weight="bold" x="80" y="307">℃</text>
<text font-family="宋体" text-anchor="start" fill="#00FF42" shape-type="text" id="" font-size="9.500000" font-weight="bold" x="79" y="350">℃</text>
<text font-family="宋体" text-anchor="start" fill="#00FF42" shape-type="text" id="" font-size="9.500000" font-weight="bold" x="79" y="390">℃</text>
<text font-family="宋体" text-anchor="start" fill="#00FF42" shape-type="text" id="" font-size="9.500000" font-weight="bold" x="80" y="432">℃</text>
<text font-family="宋体" text-anchor="start" fill="#00FF42" shape-type="text" id="" font-size="9.500000" font-weight="bold" x="246" y="223">℃</text>
<text font-family="宋体" text-anchor="start" fill="#00FF42" shape-type="text" id="" font-size="9.500000" font-weight="bold" x="246" y="265">℃</text>
<text font-family="宋体" text-anchor="start" fill="#00FF42" shape-type="text" id="" font-size="9.500000" font-weight="bold" x="246" y="308">℃</text>
<text font-family="宋体" text-anchor="start" fill="#00FF42" shape-type="text" id="" font-size="9.500000" font-weight="bold" x="246" y="351">℃</text>
<text font-family="宋体" text-anchor="start" fill="#00FF42" shape-type="text" id="" font-size="9.500000" font-weight="bold" x="246" y="391">℃</text>
<text font-family="宋体" text-anchor="start" fill="#00FF42" shape-type="text" id="" font-size="9.500000" font-weight="bold" x="246" y="433">℃</text>
<text font-family="宋体" text-anchor="start" fill="#00FF42" shape-type="text" id="" font-size="9.500000" font-weight="bold" x="350" y="357">℃</text>
<text font-family="宋体" text-anchor="start" fill="#00FF42" shape-type="text" id="" font-size="11.000000" font-weight="bold" x="291" y="534">℃</text>
<text font-family="宋体" text-anchor="start" fill="#00FF42" shape-type="text" id="" font-size="11.000000" font-weight="bold" x="516" y="301">%</text>
<text font-family="宋体" text-anchor="start" fill="#00FF42" shape-type="text" id="" font-size="11.000000" font-weight="bold" x="631" y="342">%</text>
<text font-family="宋体" text-anchor="start" fill="#00FF42" shape-type="text" id="" font-size="9.500000" font-weight="bold" x="423" y="71">℃</text>
<text font-family="宋体" text-anchor="start" fill="#FFFF00" shape-type="text" id="" font-size="11.750000" font-weight="bold" x="768" y="144">MPa</text>
<text font-family="宋体" text-anchor="start" fill="#00FF42" shape-type="text" id="" font-size="9.500000" font-weight="bold" x="761" y="171">℃</text>
<text font-family="宋体" text-anchor="start" fill="#FFFFFF" shape-type="text" id="" font-size="9.500000" font-weight="bold" x="36" y="656">反应混合物</text>
<text font-family="宋体" text-anchor="start" fill="#FFFFFF" shape-type="text" id="" font-size="9.500000" font-weight="bold" x="29" y="679">2#旋液混合器</text>
<text font-family="宋体" text-anchor="start" fill="#FFFFFF" shape-type="text" id="" font-size="9.500000" font-weight="bold" x="255" y="623">静态混合器</text>
<text font-family="宋体" text-anchor="start" fill="#FFFFFF" shape-type="text" id="" font-size="9.500000" font-weight="bold" x="263" y="638">E36101B</text>
<text font-family="宋体" text-anchor="start" fill="#FFFFFF" shape-type="text" id="" font-size="9.500000" font-weight="bold" x="304" y="676">冷凝水</text>
<text font-family="宋体" text-anchor="start" fill="#FFFFFF" shape-type="text" id="" font-size="9.500000" font-weight="bold" x="306" y="565">中压蒸汽</text>
<text font-family="宋体" text-anchor="start" fill="#FFFFFF" shape-type="text" id="" font-size="9.500000" font-weight="bold" x="279" y="412">中压蒸汽</text>
<text font-family="宋体" text-anchor="start" fill="#FFFFFF" shape-type="text" id="" font-size="9.500000" font-weight="bold" x="448" y="372">冷凝水</text>
<text font-family="宋体" text-anchor="start" fill="#FFFFFF" shape-type="text" id="" font-size="9.500000" font-weight="bold" x="495" y="373">LV36102B1</text>
<text font-family="宋体" text-anchor="start" fill="#FFFFFF" shape-type="text" id="" font-size="9.500000" font-weight="bold" x="474" y="478">LV36102B2</text>
<text font-family="宋体" text-anchor="start" fill="#FFFFFF" shape-type="text" id="" font-size="9.500000" font-weight="bold" x="937" y="206">2#循环氢油氢分离器</text>
<text font-family="宋体" text-anchor="start" fill="#FFFFFF" shape-type="text" id="" font-size="9.500000" font-weight="bold" x="943" y="512">异丙醇至E36102</text>
<text font-family="宋体" text-anchor="start" fill="#FFFFFF" shape-type="text" id="" font-size="9.500000" font-weight="bold" x="889" y="583">酮醇水至B#二中分分相器</text>
<text font-family="宋体" text-anchor="start" fill="#FFFFFF" shape-type="text" id="" font-size="9.500000" font-weight="bold" x="928" y="619">酮醇水至回收溶剂罐</text>
<text font-family="宋体" text-anchor="start" fill="#000000" shape-type="text" id="" font-size="11.000000" font-weight="bold" x="124" y="290">反应器</text>
<text font-family="宋体" text-anchor="start" fill="#000000" shape-type="text" id="" font-size="11.000000" font-weight="bold" x="121" y="334">R36101B</text>
<text font-family="宋体" text-anchor="start" fill="#000000" shape-type="text" id="" font-size="11.000000" font-weight="bold" x="352" y="226">一级中压</text>
<text font-family="宋体" text-anchor="start" fill="#000000" shape-type="text" id="" font-size="11.000000" font-weight="bold" x="361" y="242">分离器</text>
<text font-family="宋体" text-anchor="start" fill="#000000" shape-type="text" id="" font-size="11.000000" font-weight="bold" x="357" y="264">D36105B</text>
<text font-family="宋体" text-anchor="start" fill="#000000" shape-type="text" id="" font-size="11.000000" font-weight="bold" x="549" y="102">中压冷却器</text>
<text font-family="宋体" text-anchor="start" fill="#000000" shape-type="text" id="" font-size="11.000000" font-weight="bold" x="560" y="121">E36103B</text>
<text font-family="宋体" text-anchor="start" fill="#000000" shape-type="text" id="" font-size="11.000000" font-weight="bold" x="662" y="239">二级中压</text>
<text font-family="宋体" text-anchor="start" fill="#000000" shape-type="text" id="" font-size="11.000000" font-weight="bold" x="671" y="255">分离器</text>
<text font-family="宋体" text-anchor="start" fill="#000000" shape-type="text" id="" font-size="11.000000" font-weight="bold" x="667" y="277">D36106B</text>
<line shape-type="limitline" x1="619" y1="350" x2="619" y2="407" fill="#00FFFF" stroke="#FFFFFF" stroke-width="3.00" stroke-dasharray="5 10"/>
<polygon shape-type="trapezium" points="922,596 922,587 930,591 930,591 922,596" fill="#31BE00" stroke="#31BE00" stroke-width="2.00"/>
<line shape-type="limitline" x1="581" y1="524" x2="1000" y2="524" fill="#31BE00" stroke="#31BE00" stroke-width="3.00"/>
<polygon shape-type="trapezium" points="922,528 922,519 930,523 930,523 922,528" fill="#31BE00" stroke="#31BE00" stroke-width="2.00"/>
<g shape-type="group">
<polygon shape-type="trapezium" points="1022,598 1022,582 1036,590 1036,590 1022,598" fill="#808080" stroke="#808080" stroke-width="2.00"/>
<rect shape-type="rectangle" x="1011" y="586" width="12" height="9" fill="#808080" stroke="#808080" stroke-width="2.00"/>
</g>
<g shape-type="group">
<polygon shape-type="trapezium" points="1010,531 1010,513 1025,522 1025,522 1010,531" fill="#808080" stroke="#808080" stroke-width="2.00"/>
<rect shape-type="rectangle" x="1000" y="517" width="11" height="9" fill="#808080" stroke="#808080" stroke-width="2.00"/>
</g>
<line shape-type="limitline" x1="413" y1="91" x2="413" y2="76" fill="#00FFFF" stroke="#FFFFFF" stroke-width="3.00" stroke-dasharray="5 10"/>
<text font-family="宋体" text-anchor="start" fill="#FFFFFF" shape-type="text" id="" font-size="9.500000" font-weight="bold" x="983" y="172">氢气</text>
<text font-family="宋体" text-anchor="start" fill="#FFFFFF" shape-type="text" id="" font-size="9.500000" font-weight="bold" x="936" y="670">粗品4010NA</text>
<text font-family="宋体" text-anchor="start" fill="#FFFFFF" shape-type="text" id="" font-size="9.500000" font-weight="bold" x="906" y="696">至2#旋转薄膜蒸发器</text>
<text font-family="Arial" text-anchor="start" fill="#00FFFF" shape-type="realdata" id="XHB_6PPD_TE36102B" font-size="12.500000" x="197" y="433">XXXX</text>
<text font-family="Arial" text-anchor="start" fill="#00FFFF" shape-type="realdata" id="XHB_6PPD_TE36103B" font-size="12.500000" x="31" y="431">XXXX</text>
<text font-family="Arial" text-anchor="start" fill="#00FFFF" shape-type="realdata" id="XHB_6PPD_TE36104B" font-size="12.500000" x="196" y="391">XXXX</text>
<text font-family="Arial" text-anchor="start" fill="#00FFFF" shape-type="realdata" id="XHB_6PPD_TE36105B" font-size="12.500000" x="31" y="389">XXXX</text>
<text font-family="Arial" text-anchor="start" fill="#00FFFF" shape-type="realdata" id="XHB_6PPD_TE36106B" font-size="12.500000" x="197" y="350">XXXX</text>
<text font-family="Arial" text-anchor="start" fill="#00FFFF" shape-type="realdata" id="XHB_6PPD_TE36107B" font-size="12.500000" x="32" y="349">XXXX</text>
<text font-family="Arial" text-anchor="start" fill="#00FFFF" shape-type="realdata" id="XHB_6PPD_TE36108B" font-size="12.500000" x="198" y="308">XXXX</text>
<text font-family="Arial" text-anchor="start" fill="#00FFFF" shape-type="realdata" id="XHB_6PPD_TE36109B" font-size="12.500000" x="32" y="306">XXXX</text>
<text font-family="Arial" text-anchor="start" fill="#00FFFF" shape-type="realdata" id="XHB_6PPD_TE36110B" font-size="12.500000" x="198" y="265">XXXX</text>
<text font-family="Arial" text-anchor="start" fill="#00FFFF" shape-type="realdata" id="XHB_6PPD_TE36111B" font-size="12.500000" x="32" y="264">XXXX</text>
<text font-family="Arial" text-anchor="start" fill="#00FFFF" shape-type="realdata" id="XHB_6PPD_TE36112B" font-size="12.500000" x="198" y="223">XXXX</text>
<text font-family="Arial" text-anchor="start" fill="#00FFFF" shape-type="realdata" id="XHB_6PPD_TE36113B" font-size="12.500000" x="31" y="222">XXXX</text>
<text font-family="Arial" text-anchor="start" fill="#00FFFF" shape-type="realdata" id="XHB_6PPD_PT36120" font-size="12.500000" x="243" y="185">XXXX</text>
<text font-family="Arial" text-anchor="start" fill="#00FFFF" shape-type="realdata" id="XHB_6PPD_TE36115B" font-size="12.500000" x="375" y="70">XXXX</text>
<text font-family="Arial" text-anchor="start" fill="#00FFFF" shape-type="realdata" id="XHB_6PPD_TE36114B" font-size="12.500000" x="300" y="357">XXXX</text>
<text font-family="Arial" text-anchor="start" fill="#00FFFF" shape-type="realdata" id="XHB_6PPD_LT36102B" font-size="12.500000" x="447" y="300">XXXX</text>
<text font-family="Arial" text-anchor="start" fill="#00FFFF" shape-type="realdata" id="XHB_6PPD_LT36102B" font-size="12.500000" x="413" y="511">XXXX</text>
<text font-family="Arial" text-anchor="start" fill="#00FFFF" shape-type="realdata" id="XHB_6PPD_LT36103B" font-size="12.500000" x="565" y="343">XXXX</text>
<text font-family="Arial" text-anchor="start" fill="#00FFFF" shape-type="realdata" id="XHB_6PPD_PT36102B" font-size="12.500000" x="461" y="72">XXXX</text>
<text font-family="Arial" text-anchor="start" fill="#00FFFF" shape-type="realdata" id="XHB_6PPD_PT36103B" font-size="12.500000" x="712" y="143">XXXX</text>
<text font-family="Arial" text-anchor="start" fill="#00FFFF" shape-type="realdata" id="XHB_6PPD_TE36116B" font-size="12.500000" x="713" y="171">XXXX</text>
<text font-family="Arial" text-anchor="start" fill="#00FFFF" shape-type="realdata" id="XHB_6PPD_TT36101B" font-size="12.500000" x="237" y="535">XXXX</text>
<a xlink:href="\橡胶化学品部\6PPD\主反应系统\ZFY_ML.svg">
<g shape-type="button">
<rect fill="#C0C0C0" stroke-width="0.3" stroke="#FFFFFF" x="962" y="6" width="99" height="32" shape-type="buttonrect"/>
<text font-family="宋体" text-anchor="middle" dominant-baseline="middle" fill="#800000" font-size="13.500000" font-weight="bold" x="1011" y="28" shape-type="buttontext">返回上一级</text>
</g>
</a>
<rect shape-type="rectangle" x="1" y="756" width="1063" height="43" fill="url(#lgradient231)" stroke="#636563" stroke-width="1.00"/>
<a xlink:href="M3503AG.svg">
<g shape-type="button">
<rect fill="#C0C0C0" stroke-width="0.3" stroke="#FFFFFF" x="14" y="760" width="117" height="31" shape-type="buttonrect"/>
<text font-family="宋体" text-anchor="middle" dominant-baseline="middle" fill="#000000" font-size="12.000000" x="73" y="781" shape-type="buttontext">20 混合反应A</text>
</g>
</a>
<a xlink:href="M3503BG.svg">
<g shape-type="button">
<rect fill="#C0C0C0" stroke-width="0.3" stroke="#FFFFFF" x="146" y="760" width="118" height="31" shape-type="buttonrect"/>
<text font-family="宋体" text-anchor="middle" dominant-baseline="middle" fill="#000000" font-size="12.000000" x="205" y="781" shape-type="buttontext">20 混合反应B</text>
</g>
</a>
<a xlink:href="M3503C.svg">
<g shape-type="button">
<rect fill="#C0C0C0" stroke-width="0.3" stroke="#FFFFFF" x="278" y="760" width="120" height="31" shape-type="buttonrect"/>
<text font-family="宋体" text-anchor="middle" dominant-baseline="middle" fill="#000000" font-size="12.000000" x="338" y="781" shape-type="buttontext">20 搬迁混合反应</text>
</g>
</a>
<a xlink:href="M3602A.svg">
<g shape-type="button">
<rect fill="#C0C0C0" stroke-width="0.3" stroke="#FFFFFF" x="408" y="760" width="120" height="31" shape-type="buttonrect"/>
<text font-family="宋体" text-anchor="middle" dominant-baseline="middle" fill="#000000" font-size="12.000000" x="468" y="781" shape-type="buttontext">NA 混合反应A</text>
</g>
</a>
<a xlink:href="M3602B.svg">
<g shape-type="button">
<rect fill="#C0C0C0" stroke-width="0.3" stroke="#FFFFFF" x="542" y="760" width="116" height="31" shape-type="buttonrect"/>
<text font-family="宋体" text-anchor="middle" dominant-baseline="middle" fill="#000000" font-size="12.000000" x="600" y="781" shape-type="buttontext">NA 混合反应B</text>
</g>
</a>
<a xlink:href="M1515.svg">
<g shape-type="button">
<rect fill="#C0C0C0" stroke-width="0.3" stroke="#FFFFFF" x="670" y="761" width="116" height="31" shape-type="buttonrect"/>
<text font-family="宋体" text-anchor="middle" dominant-baseline="middle" fill="#000000" font-size="12.000000" x="728" y="782" shape-type="buttontext">6PPD闪蒸罐</text>
</g>
</a>
</svg>
