<svg xmlns="http://www.w3.org/2000/svg" xmlns:xlink="http://www.w3.org/1999/xlink" version="1.1" style="background-color:#7DB6C1" width="1062" height="669" viewbox="0 0 1062 669"><defs>
<marker id="Arrow1" markerUnits="strokeWidth" markerWidth="6" markerHeight="6" viewBox="0 0 6 6" refX="3" refY="3" orient="auto"><polygon points="1,1 5,3 1,5" style="fill: #000000;"/></marker>
<marker id="Arrow2" markerUnits="strokeWidth" markerWidth="6" markerHeight="6" viewBox="0 0 6 6" refX="3" refY="3" orient="auto"><polygon points="5,1 1,3 5,5" style="fill: #000000;"/></marker>
<radialGradient cx="50.000000%" cy="50.000000%" r="50.000000%" fx="50.000000%" fy="50.000000%" id="rgradient8_0">
<stop offset="0%" stop-color="#FFFFFF" stop-opacity="1"/>
<stop offset="100%" stop-color="#2C2C2C" stop-opacity="1"/>
</radialGradient>
<linearGradient x1="0.000000%" y1="50.000000%" x2="100.000000%" y2="50.000000%" id="lgradient8_1">
<stop offset="0" stop-color="#2C2C2C" stop-opacity="1"/>
<stop offset="0.5" stop-color="#FFFFFF" stop-opacity="1"/>
<stop offset="1" stop-color="#2C2C2C" stop-opacity="1"/>
</linearGradient>
</defs>
<line shape-type="line" x1="975" y1="404" x2="975" y2="333" marker-end="url(#Arrow1)" fill="#00FFFF" stroke="#FFFF00" stroke-width="1.00"/>
<line shape-type="line" x1="638" y1="648" x2="638" y2="219" marker-start="url(#Arrow2)" fill="#00FFFF" stroke="#FF8000" stroke-width="1.00"/>
<line shape-type="line" x1="285" y1="719" x2="286" y2="235" fill="#00FFFF" stroke="#FF8000" stroke-width="1.00"/>
<line shape-type="line" x1="544" y1="279" x2="543" y2="217" fill="#00FFFF" stroke="#FFFFFF" stroke-width="1.00" stroke-dasharray="10 2"/>
<line shape-type="line" x1="476" y1="224" x2="476" y2="62" marker-end="url(#Arrow1)" fill="#00FFFF" stroke="#FF8000" stroke-width="1.00"/>
<line shape-type="line" x1="567" y1="214" x2="567" y2="61" marker-end="url(#Arrow1)" fill="#00FFFF" stroke="#FF8000" stroke-width="1.00"/>
<line shape-type="line" x1="537" y1="200" x2="537" y2="85" marker-end="url(#Arrow1)" fill="#00FFFF" stroke="#FF8000" stroke-width="1.00"/>
<g shape-type="group">
<ellipse shape-type="ellipse" cx="459" cy="434" rx="86" ry="30" fill="url(#rgradient8_0)" stroke="#000000" stroke-width="1.00"/>
<rect shape-type="rectangle" x="372" y="434" width="174" height="93" fill="url(#lgradient8_1)" stroke="#000000" stroke-width="1.00"/>
</g>
<rect shape-type="rectangle" x="405" y="484" width="30" height="10" fill="#C0C0C0" stroke="#000000" stroke-width="1.00"/>
<ellipse shape-type="ellipse" cx="420" cy="475" rx="14" ry="14" fill="#C0C0C0" stroke="#000000" stroke-width="1.00"/>
<ellipse shape-type="ellipse" cx="421" cy="475" rx="11" ry="12" fill="#C0C0C0" stroke="#000000" stroke-width="1.00"/>
<rect shape-type="rectangle" x="500" y="484" width="30" height="10" fill="#C0C0C0" stroke="#000000" stroke-width="1.00"/>
<ellipse shape-type="ellipse" cx="515" cy="475" rx="14" ry="14" fill="#C0C0C0" stroke="#000000" stroke-width="1.00"/>
<ellipse shape-type="ellipse" cx="516" cy="475" rx="11" ry="12" fill="#C0C0C0" stroke="#000000" stroke-width="1.00"/>
<line shape-type="line" x1="403" y1="409" x2="403" y2="112" fill="#00FFFF" stroke="#FF8000" stroke-width="1.00"/>
<line shape-type="line" x1="397" y1="415" x2="397" y2="148" fill="#00FFFF" stroke="#FF8000" stroke-width="1.00"/>
<line shape-type="line" x1="390" y1="416" x2="390" y2="178" fill="#00FFFF" stroke="#FF8000" stroke-width="1.00"/>
<line shape-type="line" x1="380" y1="422" x2="380" y2="210" fill="#00FFFF" stroke="#FF8000" stroke-width="1.00"/>
<line shape-type="line" x1="379" y1="207" x2="176" y2="207" fill="#00FFFF" stroke="#FF8000" stroke-width="1.00"/>
<line shape-type="line" x1="172" y1="565" x2="172" y2="208" fill="#00FFFF" stroke="#FF8000" stroke-width="1.00"/>
<line shape-type="line" x1="403" y1="109" x2="136" y2="109" fill="#00FFFF" stroke="#FF8000" stroke-width="1.00"/>
<line shape-type="line" x1="136" y1="537" x2="136" y2="110" fill="#00FFFF" stroke="#FF8000" stroke-width="1.00"/>
<line shape-type="line" x1="211" y1="204" x2="211" y2="148" fill="#00FFFF" stroke="#FF8000" stroke-width="1.00"/>
<line shape-type="line" x1="398" y1="146" x2="215" y2="146" fill="#00FFFF" stroke="#FF8000" stroke-width="1.00"/>
<line shape-type="line" x1="229" y1="206" x2="229" y2="108" marker-end="url(#Arrow1)" fill="#00FFFF" stroke="#FF8000" stroke-width="1.00"/>
<line shape-type="line" x1="388" y1="175" x2="231" y2="175" fill="#00FFFF" stroke="#FF8000" stroke-width="1.00"/>
<line shape-type="line" x1="379" y1="423" x2="323" y2="423" fill="#00FFFF" stroke="#FF8000" stroke-width="1.00"/>
<line shape-type="line" x1="307" y1="431" x2="372" y2="431" fill="#00FFFF" stroke="#FF8000" stroke-width="1.00"/>
<line shape-type="line" x1="564" y1="61" x2="310" y2="61" fill="#00FFFF" stroke="#FF8000" stroke-width="1.00"/>
<line shape-type="line" x1="324" y1="422" x2="324" y2="85" fill="#00FFFF" stroke="#FF8000" stroke-width="1.00"/>
<line shape-type="line" x1="307" y1="427" x2="307" y2="65" fill="#00FFFF" stroke="#FF8000" stroke-width="1.00"/>
<line shape-type="line" x1="647" y1="83" x2="326" y2="83" fill="#00FFFF" stroke="#FF8000" stroke-width="1.00"/>
<line shape-type="line" x1="377" y1="236" x2="285" y2="236" marker-start="url(#Arrow2)" fill="#00FFFF" stroke="#FF8000" stroke-width="1.00"/>
<line shape-type="line" x1="333" y1="614" x2="334" y2="434" fill="#00FFFF" stroke="#FF8000" stroke-width="1.00"/>
<line shape-type="line" x1="378" y1="315" x2="331" y2="315" marker-start="url(#Arrow2)" fill="#00FFFF" stroke="#FF8000" stroke-width="1.00"/>
<line shape-type="line" x1="329" y1="400" x2="329" y2="314" fill="#00FFFF" stroke="#FF8000" stroke-width="1.00"/>
<g shape-type="group">
<rect shape-type="rectangle" x="66" y="74" width="58" height="15" fill="#FFFFFF" stroke="#000000" stroke-width="1.00"/>
<rect shape-type="rectangle" x="66" y="88" width="58" height="13" fill="#FFFFFF" stroke="#000000" stroke-width="1.00"/>
</g>
<g shape-type="group">
<line shape-type="line" x1="211" y1="163" x2="199" y2="163" fill="#00FFFF" stroke="#FFFFFF" stroke-width="1.00" stroke-dasharray="10 2"/>
<g shape-type="group">
<rect shape-type="rectangle" x="139" y="149" width="58" height="15" fill="#FFFFFF" stroke="#000000" stroke-width="1.00"/>
<rect shape-type="rectangle" x="139" y="163" width="58" height="13" fill="#FFFFFF" stroke="#000000" stroke-width="1.00"/>
</g>
</g>
<g shape-type="group">
<line shape-type="line" x1="177" y1="276" x2="188" y2="276" fill="#00FFFF" stroke="#FFFFFF" stroke-width="1.00" stroke-dasharray="10 2"/>
<g shape-type="group">
<rect shape-type="rectangle" x="190" y="275" width="58" height="15" fill="#FFFFFF" stroke="#000000" stroke-width="1.00"/>
<rect shape-type="rectangle" x="190" y="263" width="58" height="13" fill="#FFFFFF" stroke="#000000" stroke-width="1.00"/>
</g>
</g>
<g shape-type="group">
<line shape-type="line" x1="175" y1="335" x2="185" y2="335" fill="#00FFFF" stroke="#FFFFFF" stroke-width="1.00" stroke-dasharray="10 2"/>
<g shape-type="group">
<rect shape-type="rectangle" x="189" y="334" width="57" height="15" fill="#FFFFFF" stroke="#000000" stroke-width="1.00"/>
<rect shape-type="rectangle" x="189" y="322" width="57" height="13" fill="#FFFFFF" stroke="#000000" stroke-width="1.00"/>
</g>
</g>
<g shape-type="group">
<line shape-type="line" x1="174" y1="391" x2="184" y2="391" fill="#00FFFF" stroke="#FFFFFF" stroke-width="1.00" stroke-dasharray="10 2"/>
<g shape-type="group">
<rect shape-type="rectangle" x="186" y="390" width="59" height="14" fill="#FFFFFF" stroke="#000000" stroke-width="1.00"/>
<rect shape-type="rectangle" x="186" y="377" width="59" height="14" fill="#FFFFFF" stroke="#000000" stroke-width="1.00"/>
</g>
</g>
<g shape-type="group">
<line shape-type="line" x1="175" y1="446" x2="185" y2="446" fill="#00FFFF" stroke="#FFFFFF" stroke-width="1.00" stroke-dasharray="10 2"/>
<g shape-type="group">
<rect shape-type="rectangle" x="189" y="445" width="57" height="14" fill="#FFFFFF" stroke="#000000" stroke-width="1.00"/>
<rect shape-type="rectangle" x="189" y="432" width="57" height="14" fill="#FFFFFF" stroke="#000000" stroke-width="1.00"/>
</g>
</g>
<g shape-type="group">
<rect shape-type="rectangle" x="239" y="138" width="57" height="14" fill="#FFFFFF" stroke="#000000" stroke-width="1.00"/>
<rect shape-type="rectangle" x="239" y="125" width="57" height="14" fill="#FFFFFF" stroke="#000000" stroke-width="1.00"/>
</g>
<g shape-type="group">
<rect shape-type="rectangle" x="214" y="240" width="57" height="14" fill="#FFFFFF" stroke="#000000" stroke-width="1.00"/>
<rect shape-type="rectangle" x="214" y="227" width="57" height="14" fill="#FFFFFF" stroke="#000000" stroke-width="1.00"/>
</g>
<g shape-type="group">
<rect shape-type="rectangle" x="265" y="481" width="70" height="17" fill="#FFFFFF" stroke="#000000" stroke-width="1.00"/>
<rect shape-type="rectangle" x="265" y="469" width="70" height="14" fill="#FFFFFF" stroke="#000000" stroke-width="1.00"/>
</g>
<g shape-type="group">
<g shape-type="group">
<rect shape-type="rectangle" x="314" y="375" width="60" height="14" fill="#FFFFFF" stroke="#000000" stroke-width="1.00"/>
<rect shape-type="rectangle" x="314" y="365" width="60" height="11" fill="#FFFF00" stroke="#000000" stroke-width="1.00"/>
</g>
<text font-family="宋体" text-anchor="start" fill="#FF8000" shape-type="text" id="" font-size="10.250000" x="376" y="374">L</text>
</g>
<line shape-type="line" x1="379" y1="422" x2="365" y2="386" fill="#00FFFF" stroke="#FFFFFF" stroke-width="1.00" stroke-dasharray="10 2"/>
<g shape-type="group">
<rect shape-type="rectangle" x="414" y="315" width="69" height="16" fill="#FFFFFF" stroke="#000000" stroke-width="1.00"/>
<rect shape-type="rectangle" x="414" y="302" width="69" height="15" fill="#FFFFFF" stroke="#000000" stroke-width="1.00"/>
</g>
<g shape-type="group">
<rect shape-type="rectangle" x="414" y="271" width="69" height="17" fill="#FFFFFF" stroke="#000000" stroke-width="1.00"/>
<rect shape-type="rectangle" x="414" y="258" width="69" height="15" fill="#FFFFFF" stroke="#000000" stroke-width="1.00"/>
</g>
<g shape-type="group">
<rect shape-type="rectangle" x="528" y="288" width="70" height="16" fill="#FFFFFF" stroke="#000000" stroke-width="1.00"/>
<rect shape-type="rectangle" x="528" y="275" width="70" height="15" fill="#FFFFFF" stroke="#000000" stroke-width="1.00"/>
</g>
<g shape-type="group">
<rect shape-type="rectangle" x="527" y="255" width="70" height="17" fill="#FFFFFF" stroke="#000000" stroke-width="1.00"/>
<rect shape-type="rectangle" x="527" y="243" width="70" height="14" fill="#FFFFFF" stroke="#000000" stroke-width="1.00"/>
</g>
<line shape-type="line" x1="445" y1="210" x2="435" y2="210" fill="#00FFFF" stroke="#FF8000" stroke-width="1.00"/>
<line shape-type="line" x1="444" y1="208" x2="444" y2="82" marker-end="url(#Arrow1)" fill="#00FFFF" stroke="#FF8000" stroke-width="1.00"/>
<g shape-type="group">
<rect shape-type="rectangle" x="411" y="148" width="70" height="15" fill="#FFFF00" stroke="#000000" stroke-width="1.00"/>
<rect shape-type="rectangle" x="411" y="160" width="70" height="17" fill="#FFFFFF" stroke="#000000" stroke-width="1.00"/>
</g>
<line shape-type="line" x1="484" y1="224" x2="435" y2="224" fill="#00FFFF" stroke="#FF8000" stroke-width="1.00"/>
<rect shape-type="rectangle" x="411" y="198" width="21" height="264" fill="#FFFFFF" stroke="#C0C0C0" stroke-width="1.00"/>
<rect shape-type="rectangle" x="504" y="199" width="21" height="263" fill="#FFFFFF" stroke="#C0C0C0" stroke-width="1.00"/>
<rect shape-type="rectangle" x="409" y="190" width="26" height="10" fill="#FFFFFF" stroke="#C0C0C0" stroke-width="1.00"/>
<rect shape-type="rectangle" x="502" y="189" width="26" height="10" fill="#FFFFFF" stroke="#C0C0C0" stroke-width="1.00"/>
<line shape-type="line" x1="488" y1="225" x2="488" y2="149" fill="#00FFFF" stroke="#FF8000" stroke-width="1.00"/>
<line shape-type="line" x1="623" y1="147" x2="491" y2="147" fill="#00FFFF" stroke="#FF8000" stroke-width="1.00"/>
<line shape-type="line" x1="639" y1="217" x2="525" y2="217" fill="#00FFFF" stroke="#FF8000" stroke-width="1.00"/>
<g shape-type="group">
<g shape-type="group">
<polygon shape-type="trapezium" points="630,448 647,448 638,458 638,458 630,448" fill="#C0C0C0" stroke="#FFFFFF" stroke-width="1.00"/>
<polygon shape-type="trapezium" points="646,470 630,470 638,458 638,458 646,470" fill="#C0C0C0" stroke="#FFFFFF" stroke-width="1.00"/>
</g>
<line shape-type="line" x1="639" y1="458" x2="627" y2="458" fill="#C0C0C0" stroke="#FFFFFF" stroke-width="1.00"/>
<rect shape-type="rectangle" x="619" y="450" width="7" height="15" fill="#C0C0C0" stroke="#FFFFFF" stroke-width="1.00"/>
</g>
<g shape-type="group">
<g shape-type="group">
<polygon shape-type="trapezium" points="325,509 342,509 333,520 333,520 325,509" fill="#C0C0C0" stroke="#FFFFFF" stroke-width="1.00"/>
<polygon shape-type="trapezium" points="341,531 325,531 333,520 333,520 341,531" fill="#C0C0C0" stroke="#FFFFFF" stroke-width="1.00"/>
</g>
<line shape-type="line" x1="333" y1="520" x2="322" y2="520" fill="#C0C0C0" stroke="#FFFFFF" stroke-width="1.00"/>
<rect shape-type="rectangle" x="314" y="511" width="7" height="15" fill="#C0C0C0" stroke="#FFFFFF" stroke-width="1.00"/>
</g>
<g shape-type="group">
<g shape-type="group">
<polygon shape-type="trapezium" points="179,525 166,525 173,515 173,515 179,525" fill="#C0C0C0" stroke="#FFFFFF" stroke-width="1.00"/>
<polygon shape-type="trapezium" points="166,504 180,504 173,514 173,514 166,504" fill="#C0C0C0" stroke="#FFFFFF" stroke-width="1.00"/>
</g>
<line shape-type="line" x1="173" y1="515" x2="184" y2="515" fill="#C0C0C0" stroke="#FFFFFF" stroke-width="1.00"/>
<rect shape-type="rectangle" x="184" y="508" width="9" height="14" fill="#C0C0C0" stroke="#FFFFFF" stroke-width="1.00"/>
</g>
<g shape-type="group">
<g shape-type="group">
<polygon shape-type="trapezium" points="280,293 294,293 287,303 287,303 280,293" fill="#C0C0C0" stroke="#FFFFFF" stroke-width="1.00"/>
<polygon shape-type="trapezium" points="293,315 280,315 287,303 287,303 293,315" fill="#C0C0C0" stroke="#FFFFFF" stroke-width="1.00"/>
</g>
<line shape-type="line" x1="286" y1="303" x2="277" y2="303" fill="#C0C0C0" stroke="#FFFFFF" stroke-width="1.00"/>
<rect shape-type="rectangle" x="271" y="295" width="6" height="14" fill="#C0C0C0" stroke="#FFFFFF" stroke-width="1.00"/>
</g>
<g shape-type="group">
<rect shape-type="rectangle" x="504" y="153" width="70" height="15" fill="#FFFF00" stroke="#000000" stroke-width="1.00"/>
<rect shape-type="rectangle" x="504" y="166" width="70" height="16" fill="#FFFFFF" stroke="#000000" stroke-width="1.00"/>
</g>
<line shape-type="line" x1="538" y1="201" x2="524" y2="201" fill="#00FFFF" stroke="#FF8000" stroke-width="1.00"/>
<line shape-type="line" x1="626" y1="219" x2="626" y2="146" marker-start="url(#Arrow2)" fill="#00FFFF" stroke="#FF8000" stroke-width="1.00"/>
<g shape-type="group">
<g shape-type="group">
<polygon shape-type="trapezium" points="604,224 604,213 595,218 595,218 604,224" fill="#00FF40" stroke="#00FF40" stroke-width="1.00"/>
<polygon shape-type="trapezium" points="585,213 585,223 594,218 594,218 585,213" fill="#00FF40" stroke="#00FF40" stroke-width="1.00"/>
</g>
<line shape-type="line" x1="595" y1="218" x2="595" y2="210" fill="#00FF40" stroke="#00FF40" stroke-width="1.00"/>
<path shape-type="chord" d="M 603,210 A 9,13 0 0,0 588,210 z" fill="#00FF40" stroke="#00FF40" stroke-width="1.00"/>
</g>
<g shape-type="group">
<g shape-type="group">
<polygon shape-type="trapezium" points="622,152 632,152 627,161 627,161 622,152" fill="#00FF40" stroke="#00FF40" stroke-width="1.00"/>
<polygon shape-type="trapezium" points="631,171 622,171 627,161 627,161 631,171" fill="#00FF40" stroke="#00FF40" stroke-width="1.00"/>
</g>
<line shape-type="line" x1="626" y1="160" x2="619" y2="160" fill="#00FF40" stroke="#00FF40" stroke-width="1.00"/>
<path shape-type="chord" d="M 619,153 A 12,8 0 1,0 619,167 z" fill="#00FF40" stroke="#00FF40" stroke-width="1.00"/>
</g>
<g shape-type="group">
<rect shape-type="rectangle" x="664" y="158" width="70" height="17" fill="#FFFFFF" stroke="#000000" stroke-width="1.00"/>
<rect shape-type="rectangle" x="664" y="146" width="70" height="14" fill="#FFFFFF" stroke="#000000" stroke-width="1.00"/>
</g>
<g shape-type="group">
<rect shape-type="rectangle" x="664" y="200" width="70" height="17" fill="#FFFFFF" stroke="#000000" stroke-width="1.00"/>
<rect shape-type="rectangle" x="664" y="188" width="70" height="14" fill="#FFFFFF" stroke="#000000" stroke-width="1.00"/>
</g>
<line shape-type="line" x1="664" y1="161" x2="630" y2="161" fill="#00FFFF" stroke="#FFFFFF" stroke-width="1.00" stroke-dasharray="10 2"/>
<line shape-type="line" x1="664" y1="202" x2="598" y2="202" fill="#00FFFF" stroke="#FFFFFF" stroke-width="1.00" stroke-dasharray="10 2"/>
<g shape-type="group">
<rect shape-type="rectangle" x="528" y="374" width="70" height="15" fill="#FFFF00" stroke="#000000" stroke-width="1.00"/>
<rect shape-type="rectangle" x="528" y="386" width="70" height="17" fill="#FFFFFF" stroke="#000000" stroke-width="1.00"/>
</g>
<line shape-type="line" x1="446" y1="405" x2="446" y2="369" marker-start="url(#Arrow2)" fill="#00FFFF" stroke="#FF8000" stroke-width="1.00"/>
<g shape-type="group">
<path shape-type="arc" d="M 492,371 A 12,13 0 0,0 472,371" fill="none" stroke="#FFFFFF" stroke-width="1.00"/>
<line shape-type="line" x1="471" y1="403" x2="471" y2="372" fill="#00FFFF" stroke="#FFFFFF" stroke-width="1.00"/>
</g>
<line shape-type="line" x1="459" y1="222" x2="460" y2="180" fill="#00FFFF" stroke="#FFFFFF" stroke-width="1.00" stroke-dasharray="10 2"/>
<line shape-type="line" x1="448" y1="146" x2="448" y2="122" fill="#00FFFF" stroke="#FFFFFF" stroke-width="1.00" stroke-dasharray="10 2"/>
<line shape-type="line" x1="465" y1="121" x2="447" y2="121" fill="#00FFFF" stroke="#FFFFFF" stroke-width="1.00" stroke-dasharray="10 2"/>
<g shape-type="group">
<g shape-type="group">
<polygon shape-type="trapezium" points="472,110 482,110 477,120 477,120 472,110" fill="#FF8040" stroke="#FF8000" stroke-width="1.00"/>
<polygon shape-type="trapezium" points="481,129 472,129 477,120 477,120 481,129" fill="#FF8040" stroke="#FF8000" stroke-width="1.00"/>
</g>
<line shape-type="line" x1="476" y1="119" x2="469" y2="119" fill="#FF8040" stroke="#FF8000" stroke-width="1.00"/>
<path shape-type="chord" d="M 469,111 A 12,8 0 1,0 469,125 z" fill="#FFFFFF" stroke="#FFFFFF" stroke-width="1.00"/>
</g>
<g shape-type="group">
<g shape-type="group">
<polygon shape-type="trapezium" points="564,99 573,99 568,108 568,108 564,99" fill="#FF8040" stroke="#FF8000" stroke-width="1.00"/>
<polygon shape-type="trapezium" points="572,118 564,118 568,108 568,108 572,118" fill="#FF8040" stroke="#FF8000" stroke-width="1.00"/>
</g>
<line shape-type="line" x1="567" y1="107" x2="559" y2="107" fill="#FF8040" stroke="#FF8000" stroke-width="1.00"/>
<path shape-type="chord" d="M 559,100 A 12,8 0 1,0 559,114 z" fill="#FFFFFF" stroke="#FFFFFF" stroke-width="1.00"/>
</g>
<line shape-type="line" x1="555" y1="106" x2="542" y2="107" fill="#00FFFF" stroke="#FFFFFF" stroke-width="1.00" stroke-dasharray="10 2"/>
<line shape-type="line" x1="542" y1="154" x2="542" y2="108" fill="#00FFFF" stroke="#FFFFFF" stroke-width="1.00" stroke-dasharray="10 2"/>
<line shape-type="line" x1="560" y1="214" x2="559" y2="181" fill="#00FFFF" stroke="#FFFFFF" stroke-width="1.00" stroke-dasharray="10 2"/>
<text font-family="宋体" text-anchor="start" fill="#FFFFFF" shape-type="text" id="" font-size="8.000000" x="79" y="298">XV-201404</text>
<text font-family="宋体" text-anchor="start" fill="#FFFFFF" shape-type="text" id="" font-size="8.000000" x="12" y="89">大气压强</text>
<g shape-type="group">
<g shape-type="group">
<polygon shape-type="trapezium" points="129,304 142,304 135,316 135,316 129,304" fill="#C0C0C0" stroke="#FFFFFF" stroke-width="1.00"/>
<polygon shape-type="trapezium" points="141,327 129,327 135,316 135,316 141,327" fill="#C0C0C0" stroke="#FFFFFF" stroke-width="1.00"/>
</g>
<line shape-type="line" x1="134" y1="316" x2="126" y2="316" fill="#C0C0C0" stroke="#FFFFFF" stroke-width="1.00"/>
<rect shape-type="rectangle" x="121" y="307" width="5" height="16" fill="#FF0000" stroke="#FF0000" stroke-width="1.00"/>
</g>
<g shape-type="group">
<g shape-type="group">
<polygon shape-type="trapezium" points="273,181 273,171 264,176 264,176 273,181" fill="#FFFFFF" stroke="#FFFFFF" stroke-width="1.00"/>
<polygon shape-type="trapezium" points="254,171 254,180 263,176 263,176 254,171" fill="#FFFFFF" stroke="#FFFFFF" stroke-width="1.00"/>
</g>
<line shape-type="line" x1="265" y1="175" x2="265" y2="168" fill="#FFFFFF" stroke="#FFFFFF" stroke-width="1.00"/>
<path shape-type="chord" d="M 272,168 A 8,12 0 0,0 258,168 z" fill="#FFFFFF" stroke="#FFFFFF" stroke-width="1.00"/>
</g>
<g shape-type="group">
<g shape-type="group">
<polygon shape-type="trapezium" points="264,214 264,203 254,208 254,208 264,214" fill="#FFFFFF" stroke="#FFFFFF" stroke-width="1.00"/>
<polygon shape-type="trapezium" points="245,203 245,213 253,208 253,208 245,203" fill="#FFFFFF" stroke="#FFFFFF" stroke-width="1.00"/>
</g>
<line shape-type="line" x1="255" y1="207" x2="255" y2="200" fill="#FFFFFF" stroke="#FFFFFF" stroke-width="1.00"/>
<path shape-type="chord" d="M 263,200 A 8,12 0 0,0 249,200 z" fill="#FFFFFF" stroke="#FFFFFF" stroke-width="1.00"/>
</g>
<line shape-type="line" x1="253" y1="225" x2="253" y2="206" fill="#00FFFF" stroke="#FFFFFF" stroke-width="1.00" stroke-dasharray="10 2"/>
<line shape-type="line" x1="265" y1="160" x2="265" y2="150" fill="#00FFFF" stroke="#FFFFFF" stroke-width="1.00" stroke-dasharray="10 2"/>
<g shape-type="group">
<g shape-type="group">
<polygon shape-type="trapezium" points="329,440 340,440 334,449 334,449 329,440" fill="#FFFFFF" stroke="#FFFFFF" stroke-width="1.00"/>
<polygon shape-type="trapezium" points="339,459 329,459 334,449 334,449 339,459" fill="#FFFFFF" stroke="#FFFFFF" stroke-width="1.00"/>
</g>
<line shape-type="line" x1="333" y1="448" x2="326" y2="448" fill="#FFFFFF" stroke="#FFFFFF" stroke-width="1.00"/>
<path shape-type="chord" d="M 326,441 A 12,8 0 1,0 326,454 z" fill="#FFFFFF" stroke="#FFFFFF" stroke-width="1.00"/>
</g>
<line shape-type="line" x1="321" y1="471" x2="321" y2="452" fill="#00FFFF" stroke="#FFFFFF" stroke-width="1.00" stroke-dasharray="10 2"/>
<line shape-type="line" x1="537" y1="422" x2="537" y2="403" fill="#00FFFF" stroke="#FFFFFF" stroke-width="1.00" stroke-dasharray="10 2"/>
<text font-family="宋体" text-anchor="start" fill="#00FF00" shape-type="text" id="" font-size="12.500000" x="724" y="143">M</text>
<text font-family="宋体" text-anchor="start" fill="#00FF00" shape-type="text" id="" font-size="12.500000" x="726" y="187">M</text>
<g shape-type="group">
<rect shape-type="rectangle" x="433" y="421" width="70" height="17" fill="#FFFFFF" stroke="#000000" stroke-width="1.00"/>
<rect shape-type="rectangle" x="433" y="408" width="70" height="15" fill="#FFFFFF" stroke="#000000" stroke-width="1.00"/>
</g>
<g shape-type="group">
<rect shape-type="rectangle" x="432" y="439" width="70" height="14" fill="#FFFF00" stroke="#000000" stroke-width="1.00"/>
<rect shape-type="rectangle" x="432" y="451" width="70" height="17" fill="#FFFFFF" stroke="#000000" stroke-width="1.00"/>
</g>
<g shape-type="group">
<rect shape-type="rectangle" x="432" y="484" width="70" height="17" fill="#FFFFFF" stroke="#000000" stroke-width="1.00"/>
<rect shape-type="rectangle" x="432" y="472" width="70" height="14" fill="#FFFFFF" stroke="#000000" stroke-width="1.00"/>
</g>
<text font-family="宋体" text-anchor="start" fill="#000000" shape-type="text" id="" font-size="9.500000" x="390" y="513">P-2003A</text>
<text font-family="宋体" text-anchor="start" fill="#000000" shape-type="text" id="" font-size="9.500000" x="495" y="514">P-2003B</text>
<text font-family="宋体" text-anchor="start" fill="#000000" shape-type="text" id="" font-size="9.500000">
<tspan x="444" y="509">T-2003</tspan>
<tspan x="444" y="520">LNG储罐</tspan>
</text>
<text font-family="宋体" text-anchor="start" fill="#00FF00" shape-type="text" id="" font-size="12.500000" x="277" y="220">M</text>
<text font-family="宋体" text-anchor="start" fill="#00FF00" shape-type="text" id="" font-size="12.500000" x="284" y="114">M</text>
<text font-family="宋体" text-anchor="start" fill="#00FF00" shape-type="text" id="" font-size="12.500000" x="324" y="466">M</text>
<text font-family="宋体" text-anchor="start" fill="#00FF00" shape-type="text" id="" font-size="12.500000" x="473" y="145">M</text>
<text font-family="宋体" text-anchor="start" fill="#00FF00" shape-type="text" id="" font-size="12.500000" x="568" y="151">M</text>
<g shape-type="group">
<text font-family="宋体" text-anchor="start" fill="#C0C0C0" shape-type="text" id="" font-size="11.000000" x="374" y="208">N2</text>
<line shape-type="line" x1="408" y1="203" x2="389" y2="203" marker-start="url(#Arrow2)" fill="#00FFFF" stroke="#FFFF00" stroke-width="1.00"/>
</g>
<g shape-type="group">
<line shape-type="line" x1="450" y1="225" x2="450" y2="204" marker-start="url(#Arrow2)" fill="#00FFFF" stroke="#FFFF00" stroke-width="1.00"/>
<text font-family="宋体" text-anchor="start" fill="#C0C0C0" shape-type="text" id="" font-size="9.500000" x="444" y="201">N2</text>
</g>
<g shape-type="group">
<text font-family="宋体" text-anchor="start" fill="#C0C0C0" shape-type="text" id="" font-size="11.000000" x="468" y="207">N2</text>
<line shape-type="line" x1="502" y1="202" x2="482" y2="202" marker-start="url(#Arrow2)" fill="#00FFFF" stroke="#FFFF00" stroke-width="1.00"/>
</g>
<g shape-type="group">
<line shape-type="line" x1="546" y1="217" x2="546" y2="197" marker-start="url(#Arrow2)" fill="#00FFFF" stroke="#FFFF00" stroke-width="1.00"/>
<text font-family="宋体" text-anchor="start" fill="#C0C0C0" shape-type="text" id="" font-size="9.500000" x="540" y="193">N2</text>
</g>
<text font-family="宋体" text-anchor="start" fill="#FFFFFF" shape-type="text" id="" font-size="9.500000" x="434" y="355">氮气吹扫</text>
<text font-family="宋体" text-anchor="start" fill="#FF8000" shape-type="text" id="" font-size="10.250000" x="599" y="379">L</text>
<text font-family="宋体" text-anchor="start" fill="#FFFFFF" shape-type="text" id="" font-size="8.000000" x="592" y="483">XV-201401</text>
<text font-family="宋体" text-anchor="start" fill="#FFFFFF" shape-type="text" id="" font-size="8.000000" x="271" y="533">XV-201403</text>
<text font-family="宋体" text-anchor="start" fill="#FFFFFF" shape-type="text" id="" font-size="8.000000" x="194" y="523">XV-201401</text>
<text font-family="宋体" text-anchor="start" fill="#FFFFFF" shape-type="text" id="" font-size="8.000000" x="212" y="315">XV-201402</text>
<g shape-type="group">
<rect shape-type="rectangle" x="364" y="539" width="69" height="16" fill="#FFFFFF" stroke="#000000" stroke-width="1.00"/>
<rect shape-type="rectangle" x="364" y="526" width="69" height="15" fill="#FFFFFF" stroke="#000000" stroke-width="1.00"/>
</g>
<g shape-type="group">
<rect shape-type="rectangle" x="452" y="540" width="70" height="16" fill="#FFFFFF" stroke="#000000" stroke-width="1.00"/>
<rect shape-type="rectangle" x="452" y="527" width="70" height="15" fill="#FFFFFF" stroke="#000000" stroke-width="1.00"/>
</g>
<g shape-type="group">
<rect shape-type="rectangle" x="364" y="571" width="70" height="17" fill="#FFFFFF" stroke="#000000" stroke-width="1.00"/>
<rect shape-type="rectangle" x="364" y="558" width="70" height="15" fill="#FFFFFF" stroke="#000000" stroke-width="1.00"/>
</g>
<g shape-type="group">
<rect shape-type="rectangle" x="453" y="571" width="70" height="17" fill="#FFFFFF" stroke="#000000" stroke-width="1.00"/>
<rect shape-type="rectangle" x="453" y="558" width="70" height="15" fill="#FFFFFF" stroke="#000000" stroke-width="1.00"/>
</g>
<line shape-type="line" x1="647" y1="90" x2="647" y2="72" fill="#00FFFF" stroke="#FF8000" stroke-width="1.00"/>
<line shape-type="line" x1="654" y1="89" x2="654" y2="73" fill="#00FFFF" stroke="#FF8000" stroke-width="1.00"/>
<text font-family="宋体" text-anchor="start" fill="#FF8000" shape-type="text" id="" font-size="21.500000" x="130" y="51">储运单元二</text>
<line shape-type="line" x1="1052" y1="541" x2="5" y2="541" fill="#00FFFF" stroke="#FF8000" stroke-width="1.00"/>
<line shape-type="line" x1="1052" y1="569" x2="5" y2="569" fill="#00FFFF" stroke="#FF8000" stroke-width="1.00"/>
<line shape-type="line" x1="1057" y1="615" x2="10" y2="615" fill="#00FFFF" stroke="#FF8000" stroke-width="1.00"/>
<line shape-type="line" x1="1055" y1="654" x2="8" y2="654" fill="#00FFFF" stroke="#FF8000" stroke-width="1.00"/>
<line shape-type="line" x1="1053" y1="719" x2="6" y2="719" fill="#00FFFF" stroke="#FF8000" stroke-width="1.00"/>
<line shape-type="line" x1="449" y1="689" x2="449" y2="571" fill="#00FFFF" stroke="#FF8000" stroke-width="1.00"/>
<line shape-type="line" x1="572" y1="688" x2="448" y2="688" fill="#00FFFF" stroke="#FF8000" stroke-width="1.00"/>
<line shape-type="line" x1="574" y1="688" x2="574" y2="622" fill="#00FFFF" stroke="#FF8000" stroke-width="1.00"/>
<line shape-type="line" x1="636" y1="622" x2="576" y2="622" fill="#00FFFF" stroke="#FF8000" stroke-width="1.00"/>
<line shape-type="line" x1="751" y1="614" x2="751" y2="356" fill="#00FFFF" stroke="#FF8000" stroke-width="1.00"/>
<line shape-type="line" x1="778" y1="356" x2="751" y2="356" fill="#00FFFF" stroke="#FF8000" stroke-width="1.00"/>
<line shape-type="line" x1="780" y1="536" x2="780" y2="357" marker-start="url(#Arrow2)" fill="#00FFFF" stroke="#FF8000" stroke-width="1.00"/>
<line shape-type="line" x1="822" y1="563" x2="822" y2="356" fill="#00FFFF" stroke="#FF8000" stroke-width="1.00"/>
<line shape-type="line" x1="849" y1="356" x2="822" y2="356" fill="#00FFFF" stroke="#FF8000" stroke-width="1.00"/>
<line shape-type="line" x1="851" y1="536" x2="851" y2="357" marker-start="url(#Arrow2)" fill="#00FFFF" stroke="#FF8000" stroke-width="1.00"/>
<line shape-type="line" x1="882" y1="680" x2="882" y2="542" fill="#00FFFF" stroke="#FF8000" stroke-width="1.00"/>
<line shape-type="line" x1="946" y1="535" x2="946" y2="333" fill="#00FFFF" stroke="#FF8000" stroke-width="1.00"/>
<line shape-type="line" x1="1045" y1="331" x2="946" y2="331" fill="#00FFFF" stroke="#FF8000" stroke-width="1.00"/>
<line shape-type="line" x1="1043" y1="475" x2="946" y2="475" fill="#00FFFF" stroke="#FF8000" stroke-width="1.00"/>
<g shape-type="group">
<rect shape-type="rectangle" x="952" y="349" width="70" height="15" fill="#FFFF00" stroke="#000000" stroke-width="1.00"/>
<rect shape-type="rectangle" x="952" y="361" width="70" height="17" fill="#FFFFFF" stroke="#000000" stroke-width="1.00"/>
</g>
<line shape-type="line" x1="1038" y1="404" x2="975" y2="404" fill="#00FFFF" stroke="#FFFF00" stroke-width="1.00"/>
<g shape-type="group">
<rect shape-type="rectangle" x="967" y="246" width="71" height="14" fill="#FFFF00" stroke="#000000" stroke-width="1.00"/>
<rect shape-type="rectangle" x="967" y="258" width="71" height="17" fill="#FFFFFF" stroke="#000000" stroke-width="1.00"/>
</g>
<line shape-type="line" x1="1006" y1="328" x2="1006" y2="275" fill="#00FFFF" stroke="#FFFFFF" stroke-width="1.00" stroke-dasharray="10 2"/>
<line shape-type="line" x1="996" y1="404" x2="996" y2="371" fill="#00FFFF" stroke="#FFFFFF" stroke-width="1.00" stroke-dasharray="10 2"/>
<g shape-type="group">
<rect shape-type="rectangle" x="914" y="298" width="69" height="16" fill="#FFFFFF" stroke="#000000" stroke-width="1.00"/>
<rect shape-type="rectangle" x="914" y="285" width="69" height="14" fill="#FFFFFF" stroke="#000000" stroke-width="1.00"/>
</g>
<g shape-type="group">
<polygon shape-type="trapezium" points="1053,535 1053,546 1063,541 1063,541 1053,535" stroke="#FFFFFF" stroke-width="1.00"/>
<rect shape-type="rectangle" x="1044" y="538" width="9" height="5" stroke="#FFFFFF" stroke-width="1.00"/>
</g>
<g shape-type="group">
<polygon shape-type="trapezium" points="1052,575 1052,564 1044,569 1044,569 1052,575" stroke="#FFFFFF" stroke-width="1.00"/>
<rect shape-type="rectangle" x="1052" y="566" width="11" height="5" stroke="#FFFFFF" stroke-width="1.00"/>
</g>
<g shape-type="group">
<polygon shape-type="trapezium" points="1051,621 1051,610 1043,615 1043,615 1051,621" stroke="#FFFFFF" stroke-width="1.00"/>
<rect shape-type="rectangle" x="1051" y="613" width="10" height="5" stroke="#FFFFFF" stroke-width="1.00"/>
</g>
<g shape-type="group">
<polygon shape-type="trapezium" points="1047,723 1047,713 1039,718 1039,718 1047,723" stroke="#FFFFFF" stroke-width="1.00"/>
<rect shape-type="rectangle" x="1047" y="715" width="10" height="5" stroke="#FFFFFF" stroke-width="1.00"/>
</g>
<line shape-type="line" x1="906" y1="739" x2="906" y2="719" marker-end="url(#Arrow1)" fill="#00FFFF" stroke="#FF8000" stroke-width="1.00"/>
<line shape-type="line" x1="1041" y1="742" x2="909" y2="742" fill="#00FFFF" stroke="#FF8000" stroke-width="1.00"/>
<g shape-type="group">
<polygon shape-type="trapezium" points="1050,747 1050,736 1042,741 1042,741 1050,747" stroke="#FFFFFF" stroke-width="1.00"/>
<rect shape-type="rectangle" x="1050" y="739" width="10" height="5" stroke="#FFFFFF" stroke-width="1.00"/>
</g>
<g shape-type="group">
<polygon shape-type="trapezium" points="1053,649 1053,660 1063,655 1063,655 1053,649" stroke="#FFFFFF" stroke-width="1.00"/>
<rect shape-type="rectangle" x="1044" y="652" width="9" height="5" stroke="#FFFFFF" stroke-width="1.00"/>
</g>
<line shape-type="line" x1="782" y1="677" x2="782" y2="657" fill="#00FFFF" stroke="#FF8000" stroke-width="1.00"/>
<line shape-type="line" x1="1047" y1="680" x2="782" y2="680" fill="#00FFFF" stroke="#FF8000" stroke-width="1.00"/>
<g shape-type="group">
<polygon shape-type="trapezium" points="1055,675 1055,686 1064,681 1064,681 1055,675" stroke="#FFFFFF" stroke-width="1.00"/>
<rect shape-type="rectangle" x="1046" y="678" width="9" height="5" stroke="#FFFFFF" stroke-width="1.00"/>
</g>
<g shape-type="group">
<polygon shape-type="trapezium" points="1047,411 1047,400 1039,405 1039,405 1047,411" stroke="#FFFFFF" stroke-width="1.00"/>
<rect shape-type="rectangle" x="1047" y="402" width="10" height="5" stroke="#FFFFFF" stroke-width="1.00"/>
</g>
<g shape-type="group">
<polygon shape-type="trapezium" points="1050,481 1050,470 1042,475 1042,475 1050,481" stroke="#FFFFFF" stroke-width="1.00"/>
<rect shape-type="rectangle" x="1050" y="472" width="10" height="5" stroke="#FFFFFF" stroke-width="1.00"/>
</g>
<g shape-type="group">
<polygon shape-type="trapezium" points="1054,325 1054,336 1064,331 1064,331 1054,325" stroke="#FFFFFF" stroke-width="1.00"/>
<rect shape-type="rectangle" x="1045" y="328" width="9" height="5" stroke="#FFFFFF" stroke-width="1.00"/>
</g>
<g shape-type="group">
<polygon shape-type="trapezium" points="969,336 969,325 959,330 959,330 969,336" fill="#FF0000" stroke="#FF0000" stroke-width="1.00"/>
<polygon shape-type="trapezium" points="950,325 950,335 958,330 958,330 950,325" fill="#FF0000" stroke="#FF0000" stroke-width="1.00"/>
</g>
<line shape-type="line" x1="959" y1="330" x2="959" y2="323" fill="#00FF40" stroke="#FFFFFF" stroke-width="1.00"/>
<path shape-type="chord" d="M 968,323 A 9,13 0 0,0 953,323 z" fill="#C0C0C0" stroke="#C0C0C0" stroke-width="1.00"/>
<text font-family="宋体" text-anchor="start" fill="#00FF00" shape-type="text" id="" font-size="11.750000" x="949" y="345">0.0</text>
<text font-family="宋体" text-anchor="start" fill="#00FF00" shape-type="text" id="" font-size="11.750000" x="899" y="696">0.0</text>
<g shape-type="group">
<g shape-type="group">
<polygon shape-type="trapezium" points="918,688 918,676 908,682 908,682 918,688" fill="#FF0000" stroke="#FF0000" stroke-width="1.00"/>
<polygon shape-type="trapezium" points="899,676 899,686 907,681 907,681 899,676" fill="#FF0000" stroke="#FF0000" stroke-width="1.00"/>
</g>
<line shape-type="line" x1="909" y1="681" x2="909" y2="674" fill="#00FF40" stroke="#FFFFFF" stroke-width="1.00"/>
<path shape-type="chord" d="M 917,674 A 9,12 0 0,0 902,674 z" fill="#C0C0C0" stroke="#C0C0C0" stroke-width="1.00"/>
</g>
<line shape-type="line" x1="914" y1="294" x2="880" y2="294" fill="#00FFFF" stroke="#FFFFFF" stroke-width="1.00" stroke-dasharray="10 2"/>
<rect shape-type="rectangle" x="837" y="284" width="41" height="20" fill="#C0C0C0" stroke="#000000" stroke-width="1.00"/>
<line shape-type="line" x1="776" y1="274" x2="838" y2="290" fill="#00FFFF" stroke="#FF8000" stroke-width="1.00" stroke-dasharray="10 2"/>
<line shape-type="line" x1="777" y1="296" x2="834" y2="296" fill="#00FFFF" stroke="#FF8000" stroke-width="1.00" stroke-dasharray="10 2"/>
<line shape-type="line" x1="779" y1="318" x2="837" y2="302" fill="#00FFFF" stroke="#FF8000" stroke-width="1.00" stroke-dasharray="10 2"/>
<text font-family="宋体" text-anchor="start" fill="#FFFFFF" shape-type="text" id="" font-size="8.000000" x="731" y="319">PT_201501</text>
<text font-family="宋体" text-anchor="start" fill="#FFFFFF" shape-type="text" id="" font-size="8.000000" x="729" y="298">PT_200601</text>
<text font-family="宋体" text-anchor="start" fill="#FFFFFF" shape-type="text" id="" font-size="8.000000" x="725" y="280">PT_200301</text>
<g shape-type="group">
<rect shape-type="rectangle" x="903" y="629" width="70" height="15" fill="#FFFF00" stroke="#000000" stroke-width="1.00"/>
<rect shape-type="rectangle" x="903" y="642" width="70" height="16" fill="#FFFFFF" stroke="#000000" stroke-width="1.00"/>
</g>
<g shape-type="group">
<rect shape-type="rectangle" x="934" y="700" width="70" height="17" fill="#FFFFFF" stroke="#000000" stroke-width="1.00"/>
<rect shape-type="rectangle" x="934" y="688" width="70" height="14" fill="#FFFFFF" stroke="#000000" stroke-width="1.00"/>
</g>
<line shape-type="line" x1="940" y1="679" x2="939" y2="656" fill="#00FFFF" stroke="#FFFFFF" stroke-width="1.00" stroke-dasharray="10 2"/>
<line shape-type="line" x1="968" y1="689" x2="968" y2="679" fill="#00FFFF" stroke="#FFFFFF" stroke-width="1.00" stroke-dasharray="10 2"/>
<g shape-type="group">
<g shape-type="group">
<polygon shape-type="trapezium" points="514,696 514,680 502,688 502,688 514,696" fill="#C0C0C0" stroke="#FFFFFF" stroke-width="1.00"/>
<polygon shape-type="trapezium" points="492,680 492,695 502,688 502,688 492,680" fill="#C0C0C0" stroke="#FFFFFF" stroke-width="1.00"/>
</g>
<line shape-type="line" x1="502" y1="688" x2="502" y2="676" fill="#C0C0C0" stroke="#FFFFFF" stroke-width="1.00"/>
<rect shape-type="rectangle" x="496" y="669" width="14" height="7" fill="#C0C0C0" stroke="#FFFFFF" stroke-width="1.00"/>
</g>
<g shape-type="group">
<g shape-type="group">
<polygon shape-type="trapezium" points="814,685 814,676 803,680 803,680 814,685" fill="#C0C0C0" stroke="#FFFFFF" stroke-width="1.00"/>
<polygon shape-type="trapezium" points="793,676 793,684 802,680 802,680 793,676" fill="#C0C0C0" stroke="#FFFFFF" stroke-width="1.00"/>
</g>
<line shape-type="line" x1="802" y1="680" x2="802" y2="674" fill="#C0C0C0" stroke="#FFFFFF" stroke-width="1.00"/>
<rect shape-type="rectangle" x="796" y="670" width="13" height="4" fill="#C0C0C0" stroke="#FFFFFF" stroke-width="1.00"/>
</g>
<text font-family="宋体" text-anchor="start" fill="#FFFFFF" shape-type="text" id="" font-size="7.250000" x="959" y="736">自压缩机入口缓冲罐</text>
<text font-family="宋体" text-anchor="start" fill="#FFFFFF" shape-type="text" id="" font-size="7.250000" x="1008" y="708">自排净管线</text>
<text font-family="宋体" text-anchor="start" fill="#FFFFFF" shape-type="text" id="" font-size="7.250000" x="1008" y="672">去槽车装车</text>
<text font-family="宋体" text-anchor="start" fill="#FFFFFF" shape-type="text" id="" font-size="7.250000" x="987" y="640">去空温式气化器</text>
<text font-family="宋体" text-anchor="start" fill="#FFFFFF" shape-type="text" id="" font-size="7.250000" x="1015" y="604">自液化撬</text>
<text font-family="宋体" text-anchor="start" fill="#FFFFFF" shape-type="text" id="" font-size="7.250000" x="1004" y="561">自槽车卸车</text>
<text font-family="宋体" text-anchor="start" fill="#FFFFFF" shape-type="text" id="" font-size="7.250000" x="971" y="533">去汽化器（BOG总管）</text>
<text font-family="宋体" text-anchor="start" fill="#FFFFFF" shape-type="text" id="" font-size="7.250000" x="1002" y="471">自槽车站</text>
<text font-family="宋体" text-anchor="start" fill="#FFFFFF" shape-type="text" id="" font-size="7.250000" x="1040" y="396">N2</text>
<text font-family="宋体" text-anchor="start" fill="#FFFFFF" shape-type="text" id="" font-size="7.250000" x="1020" y="318">火炬总管</text>
<text font-family="宋体" text-anchor="start" fill="#00FF00" shape-type="text" id="" font-size="9.500000" x="971" y="284">M</text>
<text font-family="宋体" text-anchor="start" fill="#FF8000" shape-type="text" id="" font-size="10.250000" x="1039" y="253">L</text>
<text font-family="宋体" text-anchor="start" fill="#FF8000" shape-type="text" id="" font-size="10.250000" x="1023" y="359">L</text>
<text font-family="宋体" text-anchor="start" fill="#FF8000" shape-type="text" id="" font-size="10.250000" x="973" y="638">L</text>
<text font-family="宋体" text-anchor="start" fill="#00FF00" shape-type="text" id="" font-size="9.500000" x="963" y="626">M</text>
<text font-family="宋体" text-anchor="start" fill="#FFFFFF" shape-type="text" id="" font-size="8.000000" x="477" y="709">XV-200102</text>
<text font-family="宋体" text-anchor="start" fill="#FFFFFF" shape-type="text" id="" font-size="8.000000" x="782" y="701">XV-200101</text>
<text font-family="宋体" text-anchor="start" fill="#FFFFFF" shape-type="text" id="" font-size="7.250000" x="15" y="704">(接触运单一)自排净管线</text>
<text font-family="宋体" text-anchor="start" fill="#FFFFFF" shape-type="text" id="" font-size="7.250000" x="9" y="645">(接触运单一)去空温式气化器</text>
<text font-family="宋体" text-anchor="start" fill="#FFFFFF" shape-type="text" id="" font-size="7.250000" x="14" y="605">(接触运单一)自液化撬</text>
<text font-family="宋体" text-anchor="start" fill="#FFFFFF" shape-type="text" id="" font-size="7.250000" x="9" y="563">(接触运单一)自槽车卸车</text>
<text font-family="宋体" text-anchor="start" fill="#FFFFFF" shape-type="text" id="" font-size="7.250000" x="-18" y="532">(接触运单一)去汽化器（BOG总管）</text>
<g shape-type="group">
<polygon shape-type="trapezium" points="6,724 6,713 -1,718 -1,718 6,724" stroke="#FFFFFF" stroke-width="1.00"/>
<rect shape-type="rectangle" x="6" y="715" width="11" height="5" stroke="#FFFFFF" stroke-width="1.00"/>
</g>
<g shape-type="group">
<polygon shape-type="trapezium" points="6,575 6,564 -1,569 -1,569 6,575" stroke="#FFFFFF" stroke-width="1.00"/>
<rect shape-type="rectangle" x="6" y="566" width="11" height="5" stroke="#FFFFFF" stroke-width="1.00"/>
</g>
<g shape-type="group">
<polygon shape-type="trapezium" points="6,619 6,608 -1,613 -1,613 6,619" stroke="#FFFFFF" stroke-width="1.00"/>
<rect shape-type="rectangle" x="6" y="610" width="11" height="6" stroke="#FFFFFF" stroke-width="1.00"/>
</g>
<g shape-type="group">
<polygon shape-type="trapezium" points="10,648 10,659 19,654 19,654 10,648" stroke="#FFFFFF" stroke-width="1.00"/>
<rect shape-type="rectangle" x="1" y="651" width="9" height="5" stroke="#FFFFFF" stroke-width="1.00"/>
</g>
<g shape-type="group">
<polygon shape-type="trapezium" points="14,535 14,546 22,541 22,541 14,535" stroke="#FFFFFF" stroke-width="1.00"/>
<rect shape-type="rectangle" x="4" y="538" width="10" height="5" stroke="#FFFFFF" stroke-width="1.00"/>
</g>
<a xlink:href="..\LNG总貌.svg">
<g shape-type="button">
<rect fill="#C0C0C0" stroke-width="0.3" stroke="#FFFFFF" x="985" y="758" width="51" height="29" shape-type="buttonrect"/>
<text font-family="宋体" text-anchor="middle" dominant-baseline="middle" fill="#000000" font-size="13.500000" x="1010" y="778" shape-type="buttontext">返回</text>
</g>
</a>
</svg>