<?xml version="1.0"?>
<?xml-stylesheet type='text/javascript'?>
<!--Draw SVG: 2019-11-25 09:41:56 47-Monday-->
<svg xmlns="http://www.w3.org/2000/svg" xmlns:xlink="http://www.w3.org/1999/xlink" version="1.1" style="background-color:#000000" width="1066" height="800" viewbox="0 0 1066 800">
<defs>
<linearGradient x1="50.000000%" y1="0.000000%" x2="50.000000%" y2="100.000000%" id="lgradient9">
<stop offset="0" stop-color="#2C2C2C" stop-opacity="1"/>
<stop offset="0.5" stop-color="#FFFFFF" stop-opacity="1"/>
<stop offset="1" stop-color="#2C2C2C" stop-opacity="1"/>
</linearGradient>
<linearGradient x1="0.000000%" y1="50.000000%" x2="100.000000%" y2="50.000000%" id="lgradient14">
<stop offset="0" stop-color="#2C2C2C" stop-opacity="1"/>
<stop offset="0.5" stop-color="#FFFFFF" stop-opacity="1"/>
<stop offset="1" stop-color="#2C2C2C" stop-opacity="1"/>
</linearGradient>
<linearGradient x1="0.000000%" y1="50.000000%" x2="100.000000%" y2="50.000000%" id="lgradient15">
<stop offset="0" stop-color="#2C2C2C" stop-opacity="1"/>
<stop offset="0.5" stop-color="#FFFFFF" stop-opacity="1"/>
<stop offset="1" stop-color="#2C2C2C" stop-opacity="1"/>
</linearGradient>
<linearGradient x1="0.000000%" y1="50.000000%" x2="100.000000%" y2="50.000000%" id="lgradient16">
<stop offset="0" stop-color="#2C2C2C" stop-opacity="1"/>
<stop offset="0.5" stop-color="#FFFFFF" stop-opacity="1"/>
<stop offset="1" stop-color="#2C2C2C" stop-opacity="1"/>
</linearGradient>
<linearGradient x1="0.000000%" y1="50.000000%" x2="100.000000%" y2="50.000000%" id="lgradient17">
<stop offset="0" stop-color="#2C2C2C" stop-opacity="1"/>
<stop offset="0.5" stop-color="#FFFFFF" stop-opacity="1"/>
<stop offset="1" stop-color="#2C2C2C" stop-opacity="1"/>
</linearGradient>
<linearGradient x1="0.000000%" y1="50.000000%" x2="100.000000%" y2="50.000000%" id="lgradient18">
<stop offset="0" stop-color="#2C2C2C" stop-opacity="1"/>
<stop offset="0.5" stop-color="#FFFFFF" stop-opacity="1"/>
<stop offset="1" stop-color="#2C2C2C" stop-opacity="1"/>
</linearGradient>
<linearGradient x1="0.000000%" y1="50.000000%" x2="100.000000%" y2="50.000000%" id="lgradient19">
<stop offset="0" stop-color="#2C2C2C" stop-opacity="1"/>
<stop offset="0.5" stop-color="#FFFFFF" stop-opacity="1"/>
<stop offset="1" stop-color="#2C2C2C" stop-opacity="1"/>
</linearGradient>
<linearGradient x1="0.000000%" y1="50.000000%" x2="100.000000%" y2="50.000000%" id="lgradient20">
<stop offset="0" stop-color="#2C2C2C" stop-opacity="1"/>
<stop offset="0.5" stop-color="#FFFFFF" stop-opacity="1"/>
<stop offset="1" stop-color="#2C2C2C" stop-opacity="1"/>
</linearGradient>
<linearGradient x1="0.000000%" y1="50.000000%" x2="100.000000%" y2="50.000000%" id="lgradient21">
<stop offset="0" stop-color="#2C2C2C" stop-opacity="1"/>
<stop offset="0.5" stop-color="#FFFFFF" stop-opacity="1"/>
<stop offset="1" stop-color="#2C2C2C" stop-opacity="1"/>
</linearGradient>
<linearGradient x1="0.000000%" y1="50.000000%" x2="100.000000%" y2="50.000000%" id="lgradient22">
<stop offset="0" stop-color="#2C2C2C" stop-opacity="1"/>
<stop offset="0.5" stop-color="#FFFFFF" stop-opacity="1"/>
<stop offset="1" stop-color="#2C2C2C" stop-opacity="1"/>
</linearGradient>
<linearGradient x1="0.000000%" y1="50.000000%" x2="100.000000%" y2="50.000000%" id="lgradient23">
<stop offset="0" stop-color="#2C2C2C" stop-opacity="1"/>
<stop offset="0.5" stop-color="#FFFFFF" stop-opacity="1"/>
<stop offset="1" stop-color="#2C2C2C" stop-opacity="1"/>
</linearGradient>
<linearGradient x1="0.000000%" y1="50.000000%" x2="100.000000%" y2="50.000000%" id="lgradient24">
<stop offset="0" stop-color="#2C2C2C" stop-opacity="1"/>
<stop offset="0.5" stop-color="#FFFFFF" stop-opacity="1"/>
<stop offset="1" stop-color="#2C2C2C" stop-opacity="1"/>
</linearGradient>
<linearGradient x1="0.000000%" y1="50.000000%" x2="100.000000%" y2="50.000000%" id="lgradient25">
<stop offset="0" stop-color="#2C2C2C" stop-opacity="1"/>
<stop offset="0.5" stop-color="#FFFFFF" stop-opacity="1"/>
<stop offset="1" stop-color="#2C2C2C" stop-opacity="1"/>
</linearGradient>
<linearGradient x1="0.000000%" y1="50.000000%" x2="100.000000%" y2="50.000000%" id="lgradient26">
<stop offset="0" stop-color="#2C2C2C" stop-opacity="1"/>
<stop offset="0.5" stop-color="#FFFFFF" stop-opacity="1"/>
<stop offset="1" stop-color="#2C2C2C" stop-opacity="1"/>
</linearGradient>
<linearGradient x1="0.000000%" y1="50.000000%" x2="100.000000%" y2="50.000000%" id="lgradient27">
<stop offset="0" stop-color="#2C2C2C" stop-opacity="1"/>
<stop offset="0.5" stop-color="#FFFFFF" stop-opacity="1"/>
<stop offset="1" stop-color="#2C2C2C" stop-opacity="1"/>
</linearGradient>
<linearGradient x1="0.000000%" y1="50.000000%" x2="100.000000%" y2="50.000000%" id="lgradient28_0">
<stop offset="0" stop-color="#2C2C2C" stop-opacity="1"/>
<stop offset="0.5" stop-color="#FFFFFF" stop-opacity="1"/>
<stop offset="1" stop-color="#2C2C2C" stop-opacity="1"/>
</linearGradient>
<linearGradient x1="50.000000%" y1="0.000000%" x2="50.000000%" y2="100.000000%" id="lgradient28_1">
<stop offset="0" stop-color="#2C2C2C" stop-opacity="1"/>
<stop offset="0.5" stop-color="#FFFFFF" stop-opacity="1"/>
<stop offset="1" stop-color="#2C2C2C" stop-opacity="1"/>
</linearGradient>
<linearGradient x1="50.000000%" y1="0.000000%" x2="50.000000%" y2="100.000000%" id="lgradient28_2">
<stop offset="0" stop-color="#2C2C2C" stop-opacity="1"/>
<stop offset="0.5" stop-color="#FFFFFF" stop-opacity="1"/>
<stop offset="1" stop-color="#2C2C2C" stop-opacity="1"/>
</linearGradient>
<linearGradient x1="0.000000%" y1="50.000000%" x2="100.000000%" y2="50.000000%" id="lgradient29_0">
<stop offset="0" stop-color="#2C2C2C" stop-opacity="1"/>
<stop offset="0.5" stop-color="#FFFFFF" stop-opacity="1"/>
<stop offset="1" stop-color="#2C2C2C" stop-opacity="1"/>
</linearGradient>
<linearGradient x1="50.000000%" y1="0.000000%" x2="50.000000%" y2="100.000000%" id="lgradient29_1">
<stop offset="0" stop-color="#2C2C2C" stop-opacity="1"/>
<stop offset="0.5" stop-color="#FFFFFF" stop-opacity="1"/>
<stop offset="1" stop-color="#2C2C2C" stop-opacity="1"/>
</linearGradient>
<linearGradient x1="50.000000%" y1="0.000000%" x2="50.000000%" y2="100.000000%" id="lgradient29_2">
<stop offset="0" stop-color="#2C2C2C" stop-opacity="1"/>
<stop offset="0.5" stop-color="#FFFFFF" stop-opacity="1"/>
<stop offset="1" stop-color="#2C2C2C" stop-opacity="1"/>
</linearGradient>
<linearGradient x1="0.000000%" y1="50.000000%" x2="100.000000%" y2="50.000000%" id="lgradient30_0">
<stop offset="0" stop-color="#2C2C2C" stop-opacity="1"/>
<stop offset="0.5" stop-color="#FFFFFF" stop-opacity="1"/>
<stop offset="1" stop-color="#2C2C2C" stop-opacity="1"/>
</linearGradient>
<linearGradient x1="50.000000%" y1="0.000000%" x2="50.000000%" y2="100.000000%" id="lgradient30_1">
<stop offset="0" stop-color="#2C2C2C" stop-opacity="1"/>
<stop offset="0.5" stop-color="#FFFFFF" stop-opacity="1"/>
<stop offset="1" stop-color="#2C2C2C" stop-opacity="1"/>
</linearGradient>
<linearGradient x1="50.000000%" y1="0.000000%" x2="50.000000%" y2="100.000000%" id="lgradient30_2">
<stop offset="0" stop-color="#2C2C2C" stop-opacity="1"/>
<stop offset="0.5" stop-color="#FFFFFF" stop-opacity="1"/>
<stop offset="1" stop-color="#2C2C2C" stop-opacity="1"/>
</linearGradient>
<linearGradient x1="50.000000%" y1="0.000000%" x2="50.000000%" y2="100.000000%" id="lgradient31">
<stop offset="0" stop-color="#2C2C2C" stop-opacity="1"/>
<stop offset="0.5" stop-color="#FFFFFF" stop-opacity="1"/>
<stop offset="1" stop-color="#2C2C2C" stop-opacity="1"/>
</linearGradient>
<linearGradient x1="50.000000%" y1="0.000000%" x2="50.000000%" y2="100.000000%" id="lgradient32">
<stop offset="0" stop-color="#2C2C2C" stop-opacity="1"/>
<stop offset="0.5" stop-color="#FFFFFF" stop-opacity="1"/>
<stop offset="1" stop-color="#2C2C2C" stop-opacity="1"/>
</linearGradient>
<linearGradient x1="50.000000%" y1="0.000000%" x2="50.000000%" y2="100.000000%" id="lgradient33">
<stop offset="0" stop-color="#2C2C2C" stop-opacity="1"/>
<stop offset="0.5" stop-color="#FFFFFF" stop-opacity="1"/>
<stop offset="1" stop-color="#2C2C2C" stop-opacity="1"/>
</linearGradient>
<linearGradient x1="50.000000%" y1="0.000000%" x2="50.000000%" y2="100.000000%" id="lgradient34">
<stop offset="0" stop-color="#2C2C2C" stop-opacity="1"/>
<stop offset="0.5" stop-color="#FFFFFF" stop-opacity="1"/>
<stop offset="1" stop-color="#2C2C2C" stop-opacity="1"/>
</linearGradient>
<linearGradient x1="50.000000%" y1="0.000000%" x2="50.000000%" y2="100.000000%" id="lgradient35">
<stop offset="0" stop-color="#2C2C2C" stop-opacity="1"/>
<stop offset="0.5" stop-color="#FFFFFF" stop-opacity="1"/>
<stop offset="1" stop-color="#2C2C2C" stop-opacity="1"/>
</linearGradient>
<linearGradient x1="0.000000%" y1="50.000000%" x2="100.000000%" y2="50.000000%" id="lgradient36">
<stop offset="0" stop-color="#2C2C2C" stop-opacity="1"/>
<stop offset="0.5" stop-color="#FFFFFF" stop-opacity="1"/>
<stop offset="1" stop-color="#2C2C2C" stop-opacity="1"/>
</linearGradient>
<linearGradient x1="0.000000%" y1="50.000000%" x2="100.000000%" y2="50.000000%" id="lgradient37">
<stop offset="0" stop-color="#2C2C2C" stop-opacity="1"/>
<stop offset="0.5" stop-color="#FFFFFF" stop-opacity="1"/>
<stop offset="1" stop-color="#2C2C2C" stop-opacity="1"/>
</linearGradient>
<linearGradient x1="0.000000%" y1="50.000000%" x2="100.000000%" y2="50.000000%" id="lgradient38_2_0_2">
<stop offset="0" stop-color="#545454" stop-opacity="1"/>
<stop offset="0.5" stop-color="#D8D8D8" stop-opacity="1"/>
<stop offset="1" stop-color="#545454" stop-opacity="1"/>
</linearGradient>
<linearGradient x1="0.000000%" y1="50.000000%" x2="100.000000%" y2="50.000000%" id="lgradient38_2_0_3_0">
<stop offset="0" stop-color="#696969" stop-opacity="1"/>
<stop offset="0.5" stop-color="#D8D8D8" stop-opacity="1"/>
<stop offset="1" stop-color="#696969" stop-opacity="1"/>
</linearGradient>
<linearGradient x1="0.000000%" y1="50.000000%" x2="100.000000%" y2="50.000000%" id="lgradient120">
<stop offset="0" stop-color="#111111" stop-opacity="1"/>
<stop offset="0.5" stop-color="#636563" stop-opacity="1"/>
<stop offset="1" stop-color="#111111" stop-opacity="1"/>
</linearGradient>
</defs>
<line shape-type="limitline" x1="390" y1="508" x2="390" y2="480" fill="#00FFFF" stroke="#008CD8" stroke-width="3.00"/>
<line shape-type="limitline" x1="542" y1="613" x2="542" y2="593" fill="#00FFFF" stroke="#008CD8" stroke-width="3.00"/>
<line shape-type="limitline" x1="953" y1="525" x2="780" y2="525" fill="#00FFFF" stroke="#8C8C8C" stroke-width="3.00"/>
<line shape-type="limitline" x1="391" y1="194" x2="391" y2="324" fill="#00FFFF" stroke="#008CD8" stroke-width="3.00"/>
<line shape-type="limitline" x1="646" y1="638" x2="392" y2="638" fill="#00FFFF" stroke="#008CD8" stroke-width="3.00"/>
<line shape-type="limitline" x1="647" y1="467" x2="647" y2="589" fill="#00FFFF" stroke="#008CD8" stroke-width="3.00"/>
<line shape-type="limitline" x1="645" y1="320" x2="645" y2="123" fill="#00FFFF" stroke="#008CD8" stroke-width="3.00"/>
<line shape-type="limitline" x1="645" y1="124" x2="32" y2="124" fill="#00FFFF" stroke="#008CD8" stroke-width="3.00"/>
<rect shape-type="rectangle" x="93" y="393" width="724" height="12" fill="url(#lgradient9)" stroke="#000000" stroke-width="2.00"/>
<rect shape-type="rectangle" x="0" y="1" width="1065" height="38" fill="#636563" stroke="#808080" stroke-width="1.00"/>
<rect shape-type="rectangle" x="282" y="3" width="500" height="33" stroke="#000000" stroke-width="1.00"/>
<text font-family="宋体" text-anchor="start" fill="#FFFFFF" shape-type="text" id="" font-size="26.750000" font-weight="bold" x="412" y="29">氢气压缩机一</text>
<a xlink:href="\氯碱部\离子膜\LZM_ML.svg">
<g shape-type="button">
<rect fill="#C0C0C0" stroke-width="0.3" stroke="#FFFFFF" x="960" y="3" width="100" height="33" shape-type="buttonrect"/>
<text font-family="宋体" text-anchor="middle" dominant-baseline="middle" fill="#800000" font-size="13.500000" font-weight="bold" x="1010" y="26" shape-type="buttontext">返回上一级</text>
</g>
</a>
<rect shape-type="rectangle" x="490" y="99" width="50" height="40" fill="url(#lgradient14)" stroke="#000000" stroke-width="2.00"/>
<polygon shape-type="trapezium" points="539,137 490,137 514,173 516,173 539,137" fill="url(#lgradient15)" stroke="#000000" stroke-width="2.00"/>
<rect shape-type="rectangle" x="371" y="224" width="42" height="72" fill="url(#lgradient16)" stroke="#000000" stroke-width="2.00"/>
<rect shape-type="rectangle" x="368" y="292" width="49" height="14" fill="url(#lgradient17)" stroke="#000000" stroke-width="2.00"/>
<rect shape-type="rectangle" x="624" y="221" width="42" height="72" fill="url(#lgradient18)" stroke="#000000" stroke-width="2.00"/>
<rect shape-type="rectangle" x="621" y="289" width="49" height="14" fill="url(#lgradient19)" stroke="#000000" stroke-width="2.00"/>
<rect shape-type="rectangle" x="817" y="498" width="50" height="40" fill="url(#lgradient20)" stroke="#000000" stroke-width="2.00"/>
<polygon shape-type="trapezium" points="866,536 817,536 841,572 843,572 866,536" fill="url(#lgradient21)" stroke="#000000" stroke-width="2.00"/>
<rect shape-type="rectangle" x="520" y="609" width="50" height="40" fill="url(#lgradient22)" stroke="#000000" stroke-width="2.00"/>
<polygon shape-type="trapezium" points="569,647 520,647 544,683 546,683 569,647" fill="url(#lgradient23)" stroke="#000000" stroke-width="2.00"/>
<rect shape-type="rectangle" x="626" y="501" width="42" height="72" fill="url(#lgradient24)" stroke="#000000" stroke-width="2.00"/>
<rect shape-type="rectangle" x="623" y="569" width="49" height="14" fill="url(#lgradient25)" stroke="#000000" stroke-width="2.00"/>
<rect shape-type="rectangle" x="369" y="506" width="42" height="72" fill="url(#lgradient26)" stroke="#000000" stroke-width="2.00"/>
<rect shape-type="rectangle" x="366" y="574" width="49" height="14" fill="url(#lgradient27)" stroke="#000000" stroke-width="2.00"/>
<g shape-type="group">
<rect shape-type="rectangle" x="430" y="610" width="29" height="57" fill="url(#lgradient28_0)" stroke="#000000" stroke-width="2.00"/>
<rect shape-type="rectangle" x="422" y="605" width="11" height="62" fill="url(#lgradient28_1)" stroke="#000000" stroke-width="2.00"/>
<rect shape-type="rectangle" x="455" y="605" width="11" height="62" fill="url(#lgradient28_2)" stroke="#000000" stroke-width="2.00"/>
</g>
<g shape-type="group">
<rect shape-type="rectangle" x="892" y="495" width="29" height="57" fill="url(#lgradient29_0)" stroke="#000000" stroke-width="2.00"/>
<rect shape-type="rectangle" x="883" y="489" width="12" height="63" fill="url(#lgradient29_1)" stroke="#000000" stroke-width="2.00"/>
<rect shape-type="rectangle" x="917" y="489" width="10" height="63" fill="url(#lgradient29_2)" stroke="#000000" stroke-width="2.00"/>
</g>
<g shape-type="group">
<rect shape-type="rectangle" x="578" y="105" width="29" height="57" fill="url(#lgradient30_0)" stroke="#000000" stroke-width="2.00"/>
<rect shape-type="rectangle" x="570" y="98" width="11" height="64" fill="url(#lgradient30_1)" stroke="#000000" stroke-width="2.00"/>
<rect shape-type="rectangle" x="603" y="98" width="11" height="64" fill="url(#lgradient30_2)" stroke="#000000" stroke-width="2.00"/>
</g>
<rect shape-type="rectangle" x="152" y="378" width="83" height="44" fill="url(#lgradient31)" stroke="#000000" stroke-width="2.00"/>
<rect shape-type="rectangle" x="159" y="354" width="71" height="86" fill="url(#lgradient32)" stroke="#000000" stroke-width="2.00"/>
<rect shape-type="rectangle" x="322" y="382" width="11" height="34" fill="url(#lgradient33)" stroke="#000000" stroke-width="2.00"/>
<rect shape-type="rectangle" x="504" y="379" width="46" height="34" fill="url(#lgradient34)" stroke="#000000" stroke-width="2.00"/>
<rect shape-type="rectangle" x="749" y="383" width="11" height="34" fill="url(#lgradient35)" stroke="#000000" stroke-width="2.00"/>
<polygon shape-type="trapezium" points="366,308 366,497 448,438 448,368 366,308" fill="url(#lgradient36)" stroke="#000000" stroke-width="2.00"/>
<polygon shape-type="trapezium" points="614,302 614,491 699,432 699,362 614,302" fill="url(#lgradient37)" stroke="#000000" stroke-width="2.00"/>
<g shape-type="group">
<g shape-type="group">
<polygon shape-type="parallel" points="954,685 947,685 950,676 957,676 954,685" fill="#808080" stroke="#000000" stroke-width="1.00"/>
<rect shape-type="rectangle" x="943" y="685" width="12" height="4" fill="#808080" stroke="#000000" stroke-width="1.00"/>
</g>
<g shape-type="group">
<polygon shape-type="parallel" points="969,685 976,685 973,676 966,676 969,685" fill="#808080" stroke="#000000" stroke-width="1.00"/>
<rect shape-type="rectangle" x="968" y="685" width="13" height="4" fill="#808080" stroke="#000000" stroke-width="1.00"/>
</g>
<g shape-type="group">
<g shape-type="group">
<path shape-type="arc" d="M 944,670 A 8,7 0 0,0 957,672" fill="none" stroke="#000000" stroke-width="1.00"/>
<line shape-type="limitline" x1="956" y1="671" x2="955" y2="649" fill="#00FFFF" stroke="#000000" stroke-width="1.00"/>
<rect shape-type="roundRectangle" rx="20" ry="20" x="945" y="646" width="11" height="27" fill="url(#lgradient38_2_0_2)" stroke="#000000" stroke-width="1.00"/>
<g shape-type="group">
<rect shape-type="rectangle" x="943" y="645" width="15" height="4" fill="url(#lgradient38_2_0_3_0)" stroke="#000000" stroke-width="1.00"/>
<rect shape-type="rectangle" x="943" y="645" width="15" height="4" fill="none" stroke="#000000" stroke-width="1.00"/>
</g>
<line shape-type="limitline" x1="945" y1="671" x2="944" y2="649" fill="#00FFFF" stroke="#000000" stroke-width="1.00"/>
</g>
<g shape-type="group">
<ellipse shape-type="ellipse" cx="962" cy="670" rx="18" ry="18" stroke="#000000" stroke-width="1.00"/>
<ellipse shape-type="ellipse" cx="961" cy="669" rx="17" ry="17" fill="#D8D8D8" stroke="#000000" stroke-width="1.00"/>
<path shape-type="arc" d="M 976,676 A 15,16 0 1,0 947,665" fill="none" stroke="#000000" stroke-width="1.00"/>
</g>
<g shape-type="group">
<g shape-type="group">
<ellipse shape-type="ellipse" cx="961" cy="670" rx="7" ry="7" fill="#A2A2A2" stroke="#000000" stroke-width="1.00"/>
<ellipse shape-type="ellipse" cx="960" cy="670" rx="5" ry="5" stroke="#000000" stroke-width="1.00"/>
</g>
<line shape-type="line" x1="965" y1="672" x2="954" y2="666" fill="#00FFFF" stroke="#C0C0C0" stroke-width="1.00"/>
<line shape-type="line" x1="964" y1="666" x2="956" y2="673" fill="#00FFFF" stroke="#C0C0C0" stroke-width="1.00"/>
<line shape-type="line" x1="960" y1="664" x2="960" y2="675" fill="#00FFFF" stroke="#C0C0C0" stroke-width="1.00"/>
<ellipse shape-type="ellipse" cx="961" cy="669" rx="2" ry="1" fill="#FFFFFF" stroke="#000000" stroke-width="1.00"/>
</g>
</g>
</g>
<line shape-type="limitline" x1="514" y1="100" x2="514" y2="78" fill="#00FFFF" stroke="#008CD8" stroke-width="3.00"/>
<line shape-type="limitline" x1="788" y1="78" x2="514" y2="78" fill="#00FFFF" stroke="#008CD8" stroke-width="3.00"/>
<line shape-type="limitline" x1="753" y1="594" x2="543" y2="594" fill="#00FFFF" stroke="#008CD8" stroke-width="3.00"/>
<line shape-type="limitline" x1="393" y1="637" x2="393" y2="587" fill="#00FFFF" stroke="#008CD8" stroke-width="3.00"/>
<line shape-type="limitline" x1="390" y1="193" x2="31" y2="193" fill="#00FFFF" stroke="#008CD8" stroke-width="3.00"/>
<line shape-type="limitline" x1="391" y1="218" x2="53" y2="218" fill="#00FFFF" stroke="#008CD8" stroke-width="3.00"/>
<line shape-type="limitline" x1="53" y1="714" x2="53" y2="218" fill="#00FFFF" stroke="#008CD8" stroke-width="3.00"/>
<line shape-type="limitline" x1="584" y1="717" x2="23" y2="717" fill="#00FFFF" stroke="#008CD8" stroke-width="3.00"/>
<line shape-type="limitline" x1="584" y1="718" x2="584" y2="639" fill="#00FFFF" stroke="#008CD8" stroke-width="3.00"/>
<line shape-type="limitline" x1="489" y1="402" x2="489" y2="631" fill="#00FFFF" stroke="#8C8C8C" stroke-width="3.00"/>
<line shape-type="limitline" x1="780" y1="690" x2="594" y2="690" fill="#00FFFF" stroke="#8C8C8C" stroke-width="3.00"/>
<line shape-type="limitline" x1="607" y1="405" x2="607" y2="589" fill="#00FFFF" stroke="#8C8C8C" stroke-width="3.00"/>
<line shape-type="limitline" x1="780" y1="690" x2="780" y2="526" fill="#00FFFF" stroke="#8C8C8C" stroke-width="3.00"/>
<line shape-type="limitline" x1="953" y1="647" x2="953" y2="525" fill="#00FFFF" stroke="#8C8C8C" stroke-width="3.00"/>
<line shape-type="limitline" x1="461" y1="170" x2="32" y2="170" fill="#00FFFF" stroke="#F9FF00" stroke-width="3.00"/>
<line shape-type="limitline" x1="461" y1="393" x2="461" y2="171" fill="#00FFFF" stroke="#F9FF00" stroke-width="3.00"/>
<line shape-type="limitline" x1="567" y1="214" x2="463" y2="214" fill="#00FFFF" stroke="#F9FF00" stroke-width="3.00"/>
<line shape-type="limitline" x1="567" y1="395" x2="567" y2="213" fill="#00FFFF" stroke="#F9FF00" stroke-width="3.00"/>
<g shape-type="group">
<rect shape-type="rectangle" x="794" y="73" width="12" height="8" fill="#808080" stroke="#C0C0C0" stroke-width="2.00"/>
<polygon shape-type="trapezium" points="805,85 805,70 815,77 815,77 805,85" fill="#808080" stroke="#C0C0C0" stroke-width="2.00"/>
</g>
<rect shape-type="rectangle" x="409" y="55" width="49" height="26" fill="#4A494A" stroke="#C0C0C0" stroke-width="3.00"/>
<rect shape-type="rectangle" x="458" y="55" width="28" height="26" fill="#4A494A" stroke="#C0C0C0" stroke-width="3.00"/>
<rect shape-type="rectangle" x="109" y="278" width="49" height="26" fill="#4A494A" stroke="#C0C0C0" stroke-width="3.00"/>
<rect shape-type="rectangle" x="158" y="278" width="28" height="26" fill="#4A494A" stroke="#C0C0C0" stroke-width="3.00"/>
<rect shape-type="rectangle" x="197" y="278" width="49" height="26" fill="#4A494A" stroke="#C0C0C0" stroke-width="3.00"/>
<rect shape-type="rectangle" x="246" y="278" width="28" height="26" fill="#4A494A" stroke="#C0C0C0" stroke-width="3.00"/>
<rect shape-type="rectangle" x="87" y="324" width="49" height="26" fill="#4A494A" stroke="#C0C0C0" stroke-width="3.00"/>
<rect shape-type="rectangle" x="136" y="324" width="28" height="26" fill="#4A494A" stroke="#C0C0C0" stroke-width="3.00"/>
<rect shape-type="rectangle" x="226" y="324" width="49" height="26" fill="#4A494A" stroke="#C0C0C0" stroke-width="3.00"/>
<rect shape-type="rectangle" x="275" y="324" width="28" height="26" fill="#4A494A" stroke="#C0C0C0" stroke-width="3.00"/>
<rect shape-type="rectangle" x="160" y="469" width="49" height="26" fill="#4A494A" stroke="#C0C0C0" stroke-width="3.00"/>
<rect shape-type="rectangle" x="209" y="469" width="28" height="26" fill="#4A494A" stroke="#C0C0C0" stroke-width="3.00"/>
<rect shape-type="rectangle" x="160" y="505" width="49" height="26" fill="#4A494A" stroke="#C0C0C0" stroke-width="3.00"/>
<rect shape-type="rectangle" x="209" y="505" width="28" height="26" fill="#4A494A" stroke="#C0C0C0" stroke-width="3.00"/>
<rect shape-type="rectangle" x="478" y="344" width="49" height="26" fill="#4A494A" stroke="#C0C0C0" stroke-width="3.00"/>
<rect shape-type="rectangle" x="527" y="344" width="28" height="26" fill="#4A494A" stroke="#C0C0C0" stroke-width="3.00"/>
<rect shape-type="rectangle" x="497" y="423" width="49" height="26" fill="#4A494A" stroke="#C0C0C0" stroke-width="3.00"/>
<rect shape-type="rectangle" x="546" y="423" width="28" height="26" fill="#4A494A" stroke="#C0C0C0" stroke-width="3.00"/>
<rect shape-type="rectangle" x="527" y="460" width="49" height="26" fill="#4A494A" stroke="#C0C0C0" stroke-width="3.00"/>
<rect shape-type="rectangle" x="576" y="460" width="28" height="26" fill="#4A494A" stroke="#C0C0C0" stroke-width="3.00"/>
<rect shape-type="rectangle" x="405" y="476" width="49" height="26" fill="#4A494A" stroke="#C0C0C0" stroke-width="3.00"/>
<rect shape-type="rectangle" x="454" y="476" width="28" height="26" fill="#4A494A" stroke="#C0C0C0" stroke-width="3.00"/>
<rect shape-type="rectangle" x="523" y="561" width="49" height="26" fill="#4A494A" stroke="#C0C0C0" stroke-width="3.00"/>
<rect shape-type="rectangle" x="572" y="561" width="28" height="26" fill="#4A494A" stroke="#C0C0C0" stroke-width="3.00"/>
<rect shape-type="rectangle" x="698" y="518" width="49" height="26" fill="#4A494A" stroke="#C0C0C0" stroke-width="3.00"/>
<rect shape-type="rectangle" x="747" y="518" width="28" height="26" fill="#4A494A" stroke="#C0C0C0" stroke-width="3.00"/>
<g shape-type="group">
<rect shape-type="rectangle" x="7" y="163" width="13" height="9" fill="#808080" stroke="#C0C0C0" stroke-width="2.00"/>
<polygon shape-type="trapezium" points="19,175 19,160 28,167 28,167 19,175" fill="#808080" stroke="#C0C0C0" stroke-width="2.00"/>
</g>
<g shape-type="group">
<rect shape-type="rectangle" x="7" y="189" width="13" height="9" fill="#808080" stroke="#C0C0C0" stroke-width="2.00"/>
<polygon shape-type="trapezium" points="19,201 19,186 28,193 28,193 19,201" fill="#808080" stroke="#C0C0C0" stroke-width="2.00"/>
</g>
<g shape-type="group">
<rect shape-type="rectangle" x="16" y="120" width="13" height="8" fill="#808080" stroke="#C0C0C0" stroke-width="2.00"/>
<polygon shape-type="trapezium" points="17,132 17,117 8,124 8,124 17,132" fill="#808080" stroke="#C0C0C0" stroke-width="2.00"/>
</g>
<g shape-type="group">
<rect shape-type="rectangle" x="752" y="590" width="13" height="9" fill="#808080" stroke="#C0C0C0" stroke-width="2.00"/>
<polygon shape-type="trapezium" points="764,602 764,588 773,595 773,595 764,602" fill="#808080" stroke="#C0C0C0" stroke-width="2.00"/>
</g>
<line shape-type="limitline" x1="209" y1="356" x2="209" y2="302" fill="#00FFFF" stroke="#FFFFFF" stroke-width="3.00" stroke-dasharray="5 10"/>
<line shape-type="limitline" x1="178" y1="354" x2="178" y2="303" fill="#00FFFF" stroke="#FFFFFF" stroke-width="3.00" stroke-dasharray="5 10"/>
<line shape-type="limitline" x1="232" y1="383" x2="232" y2="349" fill="#00FFFF" stroke="#FFFFFF" stroke-width="3.00" stroke-dasharray="5 10"/>
<line shape-type="limitline" x1="156" y1="383" x2="156" y2="349" fill="#00FFFF" stroke="#FFFFFF" stroke-width="3.00" stroke-dasharray="5 10"/>
<line shape-type="limitline" x1="194" y1="469" x2="194" y2="435" fill="#00FFFF" stroke="#FFFFFF" stroke-width="3.00" stroke-dasharray="5 10"/>
<line shape-type="limitline" x1="454" y1="474" x2="454" y2="402" fill="#00FFFF" stroke="#FFFFFF" stroke-width="3.00" stroke-dasharray="5 10"/>
<line shape-type="limitline" x1="577" y1="459" x2="577" y2="402" fill="#00FFFF" stroke="#FFFFFF" stroke-width="3.00" stroke-dasharray="5 10"/>
<line shape-type="limitline" x1="544" y1="423" x2="544" y2="409" fill="#00FFFF" stroke="#FFFFFF" stroke-width="3.00" stroke-dasharray="5 10"/>
<line shape-type="limitline" x1="510" y1="381" x2="510" y2="367" fill="#00FFFF" stroke="#FFFFFF" stroke-width="3.00" stroke-dasharray="5 10"/>
<line shape-type="limitline" x1="698" y1="532" x2="666" y2="532" fill="#00FFFF" stroke="#FFFFFF" stroke-width="3.00" stroke-dasharray="5 10"/>
<text font-family="宋体" text-anchor="start" fill="#FFFFFF" shape-type="text" id="" font-size="9.500000" font-weight="bold" x="3" y="110">干氢气</text>
<text font-family="宋体" text-anchor="start" fill="#FFFFFF" shape-type="text" id="" font-size="9.500000" font-weight="bold" x="5" y="152">氮气</text>
<text font-family="宋体" text-anchor="start" fill="#FFFFFF" shape-type="text" id="" font-size="9.500000" font-weight="bold" x="3" y="222">干氢气</text>
<text font-family="宋体" text-anchor="start" fill="#FFFFFF" shape-type="text" id="" font-size="9.500000" font-weight="bold" x="14" y="704">氢气</text>
<text font-family="宋体" text-anchor="start" fill="#FFFFFF" shape-type="text" id="" font-size="9.500000" font-weight="bold" x="789" y="65">氢气</text>
<text font-family="宋体" text-anchor="start" fill="#FFFFFF" shape-type="text" id="" font-size="9.500000" font-weight="bold" x="748" y="617">氢气</text>
<text font-family="宋体" text-anchor="start" fill="#000000" shape-type="text" id="" font-size="12.500000" font-weight="bold" x="505" y="125">S2</text>
<text font-family="宋体" text-anchor="start" fill="#000000" shape-type="text" id="" font-size="12.500000" font-weight="bold" x="584" y="135">E2</text>
<text font-family="宋体" text-anchor="start" fill="#000000" shape-type="text" id="" font-size="12.500000" font-weight="bold" x="375" y="263">SVB1</text>
<text font-family="宋体" text-anchor="start" fill="#000000" shape-type="text" id="" font-size="12.500000" font-weight="bold" x="630" y="543">SVB2</text>
<text font-family="宋体" text-anchor="start" fill="#000000" shape-type="text" id="" font-size="12.500000" font-weight="bold" x="378" y="377">C551A</text>
<text font-family="宋体" text-anchor="start" fill="#000000" shape-type="text" id="" font-size="12.500000" font-weight="bold" x="629" y="376">C551A</text>
<text font-family="宋体" text-anchor="start" fill="#000000" shape-type="text" id="" font-size="12.500000" font-weight="bold" x="379" y="406">一段</text>
<text font-family="宋体" text-anchor="start" fill="#000000" shape-type="text" id="" font-size="12.500000" font-weight="bold" x="632" y="405">二段</text>
<text font-family="宋体" text-anchor="start" fill="#000000" shape-type="text" id="" font-size="12.500000" font-weight="bold" x="374" y="549">DVB1</text>
<text font-family="宋体" text-anchor="start" fill="#000000" shape-type="text" id="" font-size="12.500000" font-weight="bold" x="628" y="260">DVB2</text>
<text font-family="宋体" text-anchor="start" fill="#000000" shape-type="text" id="" font-size="12.500000" font-weight="bold" x="437" y="641">E1</text>
<text font-family="宋体" text-anchor="start" fill="#000000" shape-type="text" id="" font-size="12.500000" font-weight="bold" x="537" y="635">S1</text>
<text font-family="宋体" text-anchor="start" fill="#000000" shape-type="text" id="" font-size="12.500000" font-weight="bold" x="837" y="522">S</text>
<text font-family="宋体" text-anchor="start" fill="#000000" shape-type="text" id="" font-size="12.500000" font-weight="bold" x="902" y="524">E</text>
<ellipse shape-type="ellipse" cx="196" cy="395" rx="16" ry="16" fill="#00FF00" stroke="#000000" stroke-width="2.00"/>
<text font-family="宋体" text-anchor="start" fill="#000000" shape-type="text" id="" font-size="15.500000" font-weight="bold" x="190" y="401">M</text>
<rect shape-type="rectangle" x="0" y="758" width="1066" height="42" fill="url(#lgradient120)" stroke="#636563" stroke-width="1.00"/>
<a xlink:href="氢气处理.svg">
<g shape-type="button">
<rect fill="#C0C0C0" stroke-width="0.3" stroke="#FFFFFF" x="5" y="761" width="100" height="32" shape-type="buttonrect"/>
<text font-family="宋体" text-anchor="middle" dominant-baseline="middle" fill="#000000" font-size="12.000000" x="55" y="783" shape-type="buttontext">氢气处理</text>
</g>
</a>
<a xlink:href="氢气压缩机一.svg">
<g shape-type="button">
<rect fill="#C0C0C0" stroke-width="0.3" stroke="#FFFFFF" x="109" y="761" width="99" height="32" shape-type="buttonrect"/>
<text font-family="宋体" text-anchor="middle" dominant-baseline="middle" fill="#000000" font-size="12.000000" x="159" y="783" shape-type="buttontext">氢气压缩机一</text>
</g>
</a>
<a xlink:href="氢气压缩机二.svg">
<g shape-type="button">
<rect fill="#C0C0C0" stroke-width="0.3" stroke="#FFFFFF" x="219" y="761" width="98" height="32" shape-type="buttonrect"/>
<text font-family="宋体" text-anchor="middle" dominant-baseline="middle" fill="#000000" font-size="12.000000" x="268" y="783" shape-type="buttontext">氢气压缩机二</text>
</g>
</a>
<a xlink:href="循环电解槽.svg">
<g shape-type="button">
<rect fill="#C0C0C0" stroke-width="0.3" stroke="#FFFFFF" x="326" y="761" width="96" height="32" shape-type="buttonrect"/>
<text font-family="宋体" text-anchor="middle" dominant-baseline="middle" fill="#000000" font-size="12.000000" x="374" y="783" shape-type="buttontext">循环电解槽</text>
</g>
</a>
<a xlink:href="循环电解槽A.svg">
<g shape-type="button">
<rect fill="#C0C0C0" stroke-width="0.3" stroke="#FFFFFF" x="430" y="761" width="99" height="32" shape-type="buttonrect"/>
<text font-family="宋体" text-anchor="middle" dominant-baseline="middle" fill="#000000" font-size="12.000000" x="480" y="783" shape-type="buttontext">循环电解槽A</text>
</g>
</a>
<a xlink:href="循环电解槽B.svg">
<g shape-type="button">
<rect fill="#C0C0C0" stroke-width="0.3" stroke="#FFFFFF" x="538" y="761" width="95" height="32" shape-type="buttonrect"/>
<text font-family="宋体" text-anchor="middle" dominant-baseline="middle" fill="#000000" font-size="12.000000" x="585" y="783" shape-type="buttontext">循环电解槽B</text>
</g>
</a>
<a xlink:href="循环电解槽C.svg">
<g shape-type="button">
<rect fill="#C0C0C0" stroke-width="0.3" stroke="#FFFFFF" x="644" y="761" width="98" height="32" shape-type="buttonrect"/>
<text font-family="宋体" text-anchor="middle" dominant-baseline="middle" fill="#000000" font-size="12.000000" x="693" y="783" shape-type="buttontext">循环电解槽C</text>
</g>
</a>
<a xlink:href="循环电解槽D.svg">
<g shape-type="button">
<rect fill="#C0C0C0" stroke-width="0.3" stroke="#FFFFFF" x="751" y="761" width="98" height="32" shape-type="buttonrect"/>
<text font-family="宋体" text-anchor="middle" dominant-baseline="middle" fill="#000000" font-size="12.000000" x="800" y="783" shape-type="buttontext">循环电解槽D</text>
</g>
</a>
<a xlink:href="循环电解槽E.svg">
<g shape-type="button">
<rect fill="#C0C0C0" stroke-width="0.3" stroke="#FFFFFF" x="854" y="761" width="100" height="32" shape-type="buttonrect"/>
<text font-family="宋体" text-anchor="middle" dominant-baseline="middle" fill="#000000" font-size="12.000000" x="904" y="783" shape-type="buttontext">循环电解槽E</text>
</g>
</a>
<a xlink:href="污水和公用系统.svg">
<g shape-type="button">
<rect fill="#C0C0C0" stroke-width="0.3" stroke="#FFFFFF" x="960" y="761" width="103" height="32" shape-type="buttonrect"/>
<text font-family="宋体" text-anchor="middle" dominant-baseline="middle" fill="#000000" font-size="12.000000" x="1011" y="783" shape-type="buttontext">污水和公用系统</text>
</g>
</a>
<line shape-type="limitline" x1="488" y1="688" x2="488" y2="643" fill="#00FFFF" stroke="#8C8C8C" stroke-width="3.00"/>
<line shape-type="limitline" x1="607" y1="600" x2="607" y2="633" fill="#00FFFF" stroke="#8C8C8C" stroke-width="3.00"/>
<line shape-type="limitline" x1="607" y1="643" x2="607" y2="688" fill="#00FFFF" stroke="#8C8C8C" stroke-width="3.00"/>
<line shape-type="limitline" x1="647" y1="639" x2="647" y2="601" fill="#00FFFF" stroke="#008CD8" stroke-width="3.00"/>
<line shape-type="limitline" x1="488" y1="690" x2="577" y2="690" fill="#00FFFF" stroke="#8C8C8C" stroke-width="3.00"/>
<polygon shape-type="trapezium" points="645,73 645,83 659,78 659,78 645,73" fill="#008CD8" stroke="#008CD8" stroke-width="1.00"/>
<polygon shape-type="trapezium" points="321,118 321,128 307,123 307,123 321,118" fill="#008CD8" stroke="#008CD8" stroke-width="1.00"/>
<polygon shape-type="trapezium" points="560,118 560,128 546,123 546,123 560,118" fill="#008CD8" stroke="#008CD8" stroke-width="1.00"/>
<polygon shape-type="trapezium" points="649,186 641,186 645,171 645,171 649,186" fill="#008CD8" stroke="#008CD8" stroke-width="1.00"/>
<polygon shape-type="trapezium" points="302,187 302,197 316,192 316,192 302,187" fill="#008CD8" stroke="#008CD8" stroke-width="1.00"/>
<polygon shape-type="trapezium" points="301,212 301,222 315,217 315,217 301,212" fill="#008CD8" stroke="#008CD8" stroke-width="1.00"/>
<polygon shape-type="trapezium" points="396,310 385,310 391,325 391,325 396,310" fill="#008CD8" stroke="#008CD8" stroke-width="1.00"/>
<polygon shape-type="trapezium" points="395,493 384,493 390,508 390,508 395,493" fill="#008CD8" stroke="#008CD8" stroke-width="1.00"/>
<polygon shape-type="trapezium" points="35,712 35,722 21,717 21,717 35,712" fill="#008CD8" stroke="#008CD8" stroke-width="1.00"/>
<polygon shape-type="trapezium" points="688,588 688,598 702,593 702,593 688,588" fill="#008CD8" stroke="#008CD8" stroke-width="1.00"/>
<polygon shape-type="trapezium" points="652,484 641,484 647,469 647,469 652,484" fill="#008CD8" stroke="#008CD8" stroke-width="1.00"/>
<polygon shape-type="trapezium" points="650,315 639,315 645,300 645,300 650,315" fill="#008CD8" stroke="#008CD8" stroke-width="1.00"/>
<polygon shape-type="trapezium" points="493,553 482,553 488,538 488,538 493,553" fill="#8C8C8C" stroke="#8C8C8C" stroke-width="1.00"/>
<polygon shape-type="trapezium" points="493,667 482,667 488,652 488,652 493,667" fill="#8C8C8C" stroke="#8C8C8C" stroke-width="1.00"/>
<polygon shape-type="trapezium" points="612,667 601,667 607,652 607,652 612,667" fill="#8C8C8C" stroke="#8C8C8C" stroke-width="1.00"/>
<polygon shape-type="trapezium" points="807,530 807,519 793,524 793,524 807,530" fill="#8C8C8C" stroke="#8C8C8C" stroke-width="1.00"/>
<polygon shape-type="trapezium" points="946,530 946,519 932,524 932,524 946,530" fill="#8C8C8C" stroke="#8C8C8C" stroke-width="1.00"/>
<polygon shape-type="trapezium" points="611,527 600,527 606,512 606,512 611,527" fill="#8C8C8C" stroke="#8C8C8C" stroke-width="1.00"/>
<polygon shape-type="trapezium" points="340,164 340,174 354,169 354,169 340,164" fill="#F9FF00" stroke="#F9FF00" stroke-width="1.00"/>
<polygon shape-type="trapezium" points="561,277 571,277 566,292 566,292 561,277" fill="#F9FF00" stroke="#F9FF00" stroke-width="1.00"/>
<text font-family="Arial" text-anchor="start" fill="#00FF00" shape-type="realdata" id="LJB_LZM_TE85006A" font-size="12.500000" x="113" y="296">XXXX</text>
<text font-family="Arial" text-anchor="start" fill="#00FF00" shape-type="realdata" id="LJB_LZM_TE85008A" font-size="12.500000" x="202" y="293">XXXX</text>
<text font-family="Arial" text-anchor="start" fill="#00FF00" shape-type="realdata" id="LJB_LZM_TE85002A" font-size="12.500000" x="230" y="340">XXXX</text>
<text font-family="Arial" text-anchor="start" fill="#00FF00" shape-type="realdata" id="LJB_LZM_TE85001A" font-size="12.500000" x="92" y="341">XXXX</text>
<text font-family="Arial" text-anchor="start" fill="#00FF00" shape-type="realdata" id="LJB_LZM_TE85007A" font-size="12.500000" x="166" y="486">XXXX</text>
<text font-family="Arial" text-anchor="start" fill="#00FF00" shape-type="realdata" id="LJB_LZM_ITC551A" font-size="12.500000" x="165" y="519">XXXX</text>
<text font-family="Arial" text-anchor="start" fill="#00FF00" shape-type="realdata" id="LJB_LZM_TE84001A" font-size="12.500000" x="487" y="359">XXXX</text>
<text font-family="Arial" text-anchor="start" fill="#00FF00" shape-type="realdata" id="LJB_LZM_TE83006A" font-size="12.500000" x="411" y="493">XXXX</text>
<text font-family="Arial" text-anchor="start" fill="#00FF00" shape-type="realdata" id="LJB_LZM_TE84002A" font-size="12.500000" x="501" y="439">XXXX</text>
<text font-family="Arial" text-anchor="start" fill="#00FF00" shape-type="realdata" id="LJB_LZM_TE83007A" font-size="12.500000" x="532" y="475">XXXX</text>
<text font-family="Arial" text-anchor="start" fill="#00FF00" shape-type="realdata" id="LJB_LZM_LT89004A" font-size="12.500000" x="527" y="578">XXXX</text>
<text font-family="Arial" text-anchor="start" fill="#00FF00" shape-type="realdata" id="LJB_LZM_PT81203A" font-size="12.500000" x="705" y="535">XXXX</text>
<text font-family="Arial" text-anchor="start" fill="#00FF00" shape-type="realdata" id="LJB_LZM_LT89006A" font-size="12.500000" x="416" y="71">XXXX</text>
<line shape-type="limitline" x1="506" y1="97" x2="506" y2="67" fill="#00FFFF" stroke="#FFFFFF" stroke-width="3.00" stroke-dasharray="5 10"/>
<line shape-type="line" x1="486" y1="67" x2="507" y2="67" fill="#00FFFF" stroke="#FFFFFF" stroke-width="1.00" stroke-dasharray="5 10"/>
<text font-family="宋体" text-anchor="start" fill="#00FF00" shape-type="text" id="" font-size="12.500000" x="466" y="73">%</text>
<text font-family="宋体" text-anchor="start" fill="#00FF00" shape-type="text" id="" font-size="12.500000" x="166" y="297">℃</text>
<text font-family="宋体" text-anchor="start" fill="#00FF00" shape-type="text" id="" font-size="12.500000" x="252" y="295">℃</text>
<text font-family="宋体" text-anchor="start" fill="#00FF00" shape-type="text" id="" font-size="12.500000" x="278" y="340">℃</text>
<text font-family="宋体" text-anchor="start" fill="#00FF00" shape-type="text" id="" font-size="12.500000" x="143" y="343">℃</text>
<text font-family="宋体" text-anchor="start" fill="#00FF00" shape-type="text" id="" font-size="12.500000" x="218" y="486">℃</text>
<text font-family="宋体" text-anchor="start" fill="#00FF00" shape-type="text" id="" font-size="12.500000" x="535" y="361">℃</text>
<text font-family="宋体" text-anchor="start" fill="#00FF00" shape-type="text" id="" font-size="12.500000" x="548" y="440">℃</text>
<text font-family="宋体" text-anchor="start" fill="#00FF00" shape-type="text" id="" font-size="12.500000" x="580" y="476">℃</text>
<text font-family="宋体" text-anchor="start" fill="#00FF00" shape-type="text" id="" font-size="12.500000" x="463" y="495">℃</text>
<text font-family="宋体" text-anchor="start" fill="#00FF00" shape-type="text" id="" font-size="12.500000" x="218" y="522">A</text>
<text font-family="宋体" text-anchor="start" fill="#00FF00" shape-type="text" id="" font-size="12.500000" x="582" y="578">%</text>
<text font-family="宋体" text-anchor="start" fill="#00FF00" shape-type="text" id="" font-size="12.500000" x="748" y="535">kPa</text>
</svg>
