<svg xmlns="http://www.w3.org/2000/svg" xmlns:xlink="http://www.w3.org/1999/xlink" version="1.1" style="background-color:#7DB6C1" width="1062" height="669" viewbox="0 0 1062 669"><defs>
<linearGradient x1="50.000000%" y1="0.000000%" x2="50.000000%" y2="100.000000%" id="lgradient1_0">
<stop offset="0" stop-color="#2C2C2C" stop-opacity="1"/>
<stop offset="0.5" stop-color="#FFFFFF" stop-opacity="1"/>
<stop offset="1" stop-color="#2C2C2C" stop-opacity="1"/>
</linearGradient>
<radialGradient cx="50.000000%" cy="50.000000%" r="50.000000%" fx="50.000000%" fy="50.000000%" id="rgradient1_1">
<stop offset="0%" stop-color="#FFFFFF" stop-opacity="1"/>
<stop offset="100%" stop-color="#2C2C2C" stop-opacity="1"/>
</radialGradient>
<linearGradient x1="50.000000%" y1="0.000000%" x2="50.000000%" y2="100.000000%" id="lgradient2_0">
<stop offset="0" stop-color="#2C2C2C" stop-opacity="1"/>
<stop offset="0.5" stop-color="#FFFFFF" stop-opacity="1"/>
<stop offset="1" stop-color="#2C2C2C" stop-opacity="1"/>
</linearGradient>
<radialGradient cx="50.000000%" cy="50.000000%" r="50.000000%" fx="50.000000%" fy="50.000000%" id="rgradient2_1">
<stop offset="0%" stop-color="#FFFFFF" stop-opacity="1"/>
<stop offset="100%" stop-color="#2C2C2C" stop-opacity="1"/>
</radialGradient>
<linearGradient x1="50.000000%" y1="0.000000%" x2="50.000000%" y2="100.000000%" id="lgradient3_0">
<stop offset="0" stop-color="#2C2C2C" stop-opacity="1"/>
<stop offset="0.5" stop-color="#FFFFFF" stop-opacity="1"/>
<stop offset="1" stop-color="#2C2C2C" stop-opacity="1"/>
</linearGradient>
<radialGradient cx="50.000000%" cy="50.000000%" r="50.000000%" fx="50.000000%" fy="50.000000%" id="rgradient3_1">
<stop offset="0%" stop-color="#FFFFFF" stop-opacity="1"/>
<stop offset="100%" stop-color="#2C2C2C" stop-opacity="1"/>
</radialGradient>
<linearGradient x1="50.000000%" y1="0.000000%" x2="50.000000%" y2="100.000000%" id="lgradient4">
<stop offset="0" stop-color="#2C2C2C" stop-opacity="1"/>
<stop offset="0.5" stop-color="#FFFFFF" stop-opacity="1"/>
<stop offset="1" stop-color="#2C2C2C" stop-opacity="1"/>
</linearGradient>
<linearGradient x1="50.000000%" y1="0.000000%" x2="50.000000%" y2="100.000000%" id="lgradient5">
<stop offset="0" stop-color="#2C2C2C" stop-opacity="1"/>
<stop offset="0.5" stop-color="#FFFFFF" stop-opacity="1"/>
<stop offset="1" stop-color="#2C2C2C" stop-opacity="1"/>
</linearGradient>
</defs>
<g shape-type="group">
<rect shape-type="rectangle" x="842" y="239" width="137" height="41" fill="url(#lgradient1_0)" stroke="#000000" stroke-width="1.00"/>
<ellipse shape-type="ellipse" cx="968" cy="260" rx="24" ry="21" fill="url(#rgradient1_1)" stroke="#000000" stroke-width="1.00"/>
<line shape-type="line" x1="943" y1="257" x2="842" y2="241" fill="#FFFFFF" stroke="#000000" stroke-width="1.00"/>
<line shape-type="line" x1="943" y1="252" x2="941" y2="252" fill="#FFFFFF" stroke="#000000" stroke-width="1.00"/>
<line shape-type="line" x1="943" y1="263" x2="843" y2="276" fill="#FFFFFF" stroke="#000000" stroke-width="1.00"/>
<line shape-type="line" x1="952" y1="270" x2="967" y2="239" fill="#FFFFFF" stroke="#000000" stroke-width="1.00"/>
<line shape-type="line" x1="983" y1="270" x2="969" y2="239" fill="#FFFFFF" stroke="#000000" stroke-width="1.00"/>
</g>
<g shape-type="group">
<rect shape-type="rectangle" x="983" y="436" width="138" height="42" fill="url(#lgradient2_0)" stroke="#000000" stroke-width="1.00"/>
<ellipse shape-type="ellipse" cx="995" cy="457" rx="24" ry="22" fill="url(#rgradient2_1)" stroke="#000000" stroke-width="1.00"/>
<line shape-type="line" x1="1020" y1="455" x2="1121" y2="439" fill="#FFFFFF" stroke="#000000" stroke-width="1.00"/>
<line shape-type="line" x1="1020" y1="450" x2="1022" y2="450" fill="#FFFFFF" stroke="#000000" stroke-width="1.00"/>
<line shape-type="line" x1="1020" y1="460" x2="1120" y2="474" fill="#FFFFFF" stroke="#000000" stroke-width="1.00"/>
<line shape-type="line" x1="1010" y1="468" x2="996" y2="436" fill="#FFFFFF" stroke="#000000" stroke-width="1.00"/>
<line shape-type="line" x1="979" y1="468" x2="994" y2="436" fill="#FFFFFF" stroke="#000000" stroke-width="1.00"/>
</g>
<g shape-type="group">
<rect shape-type="rectangle" x="983" y="564" width="138" height="41" fill="url(#lgradient3_0)" stroke="#000000" stroke-width="1.00"/>
<ellipse shape-type="ellipse" cx="995" cy="584" rx="24" ry="21" fill="url(#rgradient3_1)" stroke="#000000" stroke-width="1.00"/>
<line shape-type="line" x1="1020" y1="582" x2="1121" y2="566" fill="#FFFFFF" stroke="#000000" stroke-width="1.00"/>
<line shape-type="line" x1="1020" y1="577" x2="1022" y2="577" fill="#FFFFFF" stroke="#000000" stroke-width="1.00"/>
<line shape-type="line" x1="1020" y1="588" x2="1120" y2="601" fill="#FFFFFF" stroke="#000000" stroke-width="1.00"/>
<line shape-type="line" x1="1010" y1="595" x2="996" y2="564" fill="#FFFFFF" stroke="#000000" stroke-width="1.00"/>
<line shape-type="line" x1="979" y1="595" x2="994" y2="564" fill="#FFFFFF" stroke="#000000" stroke-width="1.00"/>
</g>
<rect shape-type="rectangle" x="50" y="350" width="130" height="32" fill="url(#lgradient4)" stroke="#000000" stroke-width="1.00"/>
<rect shape-type="rectangle" x="352" y="350" width="130" height="32" fill="url(#lgradient5)" stroke="#000000" stroke-width="1.00"/>
<line shape-type="limitline" x1="842" y1="258" x2="34" y2="258" fill="#FFFFFF" stroke="#FF0000" stroke-width="1.00"/>
<line shape-type="limitline" x1="791" y1="455" x2="970" y2="455" fill="#FFFFFF" stroke="#FF0000" stroke-width="1.00"/>
<line shape-type="limitline" x1="791" y1="455" x2="791" y2="584" fill="#FFFFFF" stroke="#FF0000" stroke-width="1.00"/>
<line shape-type="limitline" x1="971" y1="584" x2="791" y2="584" fill="#FFFFFF" stroke="#FF0000" stroke-width="1.00"/>
<line shape-type="limitline" x1="791" y1="520" x2="69" y2="520" fill="#FFFFFF" stroke="#FF0000" stroke-width="1.00"/>
<line shape-type="limitline" x1="298" y1="368" x2="178" y2="368" fill="#FFFFFF" stroke="#FF0000" stroke-width="1.00"/>
<line shape-type="limitline" x1="298" y1="520" x2="298" y2="368" fill="#FFFFFF" stroke="#FF0000" stroke-width="1.00"/>
<line shape-type="limitline" x1="201" y1="341" x2="201" y2="368" fill="#FFFFFF" stroke="#FF0000" stroke-width="1.00"/>
<line shape-type="limitline" x1="242" y1="341" x2="201" y2="341" fill="#FFFFFF" stroke="#FF0000" stroke-width="1.00"/>
<line shape-type="limitline" x1="242" y1="341" x2="242" y2="368" fill="#FFFFFF" stroke="#FF0000" stroke-width="1.00"/>
<polygon shape-type="trapezium" points="304,507 293,507 299,520 299,520 304,507" fill="#FF0000" stroke="#FF0000" stroke-width="1.00"/>
<polygon shape-type="trapezium" points="88,525 88,515 100,520 100,520 88,525" fill="#FF0000" stroke="#FF0000" stroke-width="1.00"/>
<line shape-type="limitline" x1="602" y1="366" x2="482" y2="366" fill="#FFFFFF" stroke="#FF0000" stroke-width="1.00"/>
<line shape-type="limitline" x1="602" y1="518" x2="602" y2="366" fill="#FFFFFF" stroke="#FF0000" stroke-width="1.00"/>
<line shape-type="limitline" x1="505" y1="339" x2="505" y2="366" fill="#FFFFFF" stroke="#FF0000" stroke-width="1.00"/>
<line shape-type="limitline" x1="546" y1="339" x2="505" y2="339" fill="#FFFFFF" stroke="#FF0000" stroke-width="1.00"/>
<line shape-type="limitline" x1="546" y1="339" x2="546" y2="366" fill="#FFFFFF" stroke="#FF0000" stroke-width="1.00"/>
<polygon shape-type="trapezium" points="608,505 597,505 603,518 603,518 608,505" fill="#FF0000" stroke="#FF0000" stroke-width="1.00"/>
<line shape-type="limitline" x1="700" y1="695" x2="700" y2="521" fill="#FFFFFF" stroke="#FF0000" stroke-width="1.00"/>
<line shape-type="limitline" x1="400" y1="696" x2="700" y2="696" fill="#FFFFFF" stroke="#FF0000" stroke-width="1.00"/>
<line shape-type="limitline" x1="399" y1="696" x2="399" y2="644" fill="#FFFFFF" stroke="#FF0000" stroke-width="1.00"/>
<line shape-type="limitline" x1="700" y1="643" x2="399" y2="643" fill="#FFFFFF" stroke="#FF0000" stroke-width="1.00"/>
<line shape-type="limitline" x1="399" y1="667" x2="229" y2="667" fill="#FFFFFF" stroke="#FF0000" stroke-width="1.00"/>
<polygon shape-type="trapezium" points="558,648 558,638 546,643 546,643 558,648" fill="#FF0000" stroke="#FF0000" stroke-width="1.00"/>
<polygon shape-type="trapezium" points="559,701 559,691 547,696 547,696 559,701" fill="#FF0000" stroke="#FF0000" stroke-width="1.00"/>
<line shape-type="limitline" x1="1024" y1="523" x2="1024" y2="564" fill="#FFFFFF" stroke="#00FF00" stroke-width="1.00"/>
<line shape-type="limitline" x1="1186" y1="522" x2="1024" y2="522" fill="#FFFFFF" stroke="#00FF00" stroke-width="1.00"/>
<line shape-type="limitline" x1="1186" y1="522" x2="1186" y2="180" fill="#FFFFFF" stroke="#00FF00" stroke-width="1.00"/>
<line shape-type="limitline" x1="1186" y1="179" x2="35" y2="179" fill="#FFFFFF" stroke="#00FF00" stroke-width="1.00"/>
<polygon shape-type="trapezium" points="82,263 82,253 70,258 70,258 82,263" fill="#FF0000" stroke="#FF0000" stroke-width="1.00"/>
<line shape-type="limitline" x1="30" y1="103" x2="1407" y2="103" fill="#FFFFFF" stroke="#FF0000" stroke-width="1.00"/>
<polygon shape-type="trapezium" points="82,108 82,98 70,103 70,103 82,108" fill="#FF0000" stroke="#FF0000" stroke-width="1.00"/>
<line shape-type="limitline" x1="441" y1="47" x2="34" y2="47" fill="#FFFFFF" stroke="#FF0000" stroke-width="1.00"/>
<line shape-type="limitline" x1="442" y1="102" x2="442" y2="47" fill="#FFFFFF" stroke="#FF0000" stroke-width="1.00"/>
<polygon shape-type="trapezium" points="81,52 81,42 70,47 70,47 81,52" fill="#FF0000" stroke="#FF0000" stroke-width="1.00"/>
<polygon shape-type="trapezium" points="82,183 82,173 70,178 70,178 82,183" fill="#00FF00" stroke="#00FF00" stroke-width="1.00"/>
<polygon shape-type="trapezium" points="1336,108 1336,98 1324,103 1324,103 1336,108" fill="#FF0000" stroke="#FF0000" stroke-width="1.00"/>
<line shape-type="limitline" x1="1311" y1="585" x2="1120" y2="585" fill="#FFFFFF" stroke="#FF0000" stroke-width="1.00"/>
<line shape-type="limitline" x1="1310" y1="585" x2="1310" y2="453" fill="#FFFFFF" stroke="#FF0000" stroke-width="1.00"/>
<line shape-type="limitline" x1="1192" y1="452" x2="1310" y2="452" fill="#FFFFFF" stroke="#FF0000" stroke-width="1.00"/>
<line shape-type="limitline" x1="1182" y1="452" x2="1119" y2="452" fill="#FFFFFF" stroke="#FF0000" stroke-width="1.00"/>
<line shape-type="limitline" x1="1422" y1="514" x2="1310" y2="514" fill="#FFFFFF" stroke="#FF0000" stroke-width="1.00"/>
<line shape-type="limitline" x1="1181" y1="258" x2="990" y2="258" fill="#FFFFFF" stroke="#FF0000" stroke-width="1.00"/>
<line shape-type="limitline" x1="1415" y1="258" x2="1192" y2="258" fill="#FFFFFF" stroke="#FF0000" stroke-width="1.00"/>
<polygon shape-type="trapezium" points="1348,263 1348,253 1336,258 1336,258 1348,263" fill="#FF0000" stroke="#FF0000" stroke-width="1.00"/>
<line shape-type="limitline" x1="1024" y1="395" x2="1024" y2="436" fill="#FFFFFF" stroke="#00FF00" stroke-width="1.00"/>
<line shape-type="limitline" x1="1186" y1="394" x2="1024" y2="394" fill="#FFFFFF" stroke="#00FF00" stroke-width="1.00"/>
<rect shape-type="rectangle" x="1417" y="34" width="51" height="633" stroke="#FFFFFF" stroke-width="1.00" stroke-dasharray="10 2"/>
<g shape-type="group">
<ellipse shape-type="ellipse" cx="193" cy="668" rx="47" ry="46" stroke="#FFFFFF" stroke-width="1.00"/>
<ellipse shape-type="ellipse" cx="191" cy="666" rx="33" ry="33" stroke="#FFFFFF" stroke-width="1.00"/>
<line shape-type="line" x1="214" y1="690" x2="169" y2="644" fill="#FFFFFF" stroke="#FFFFFF" stroke-width="1.00"/>
<line shape-type="line" x1="169" y1="689" x2="214" y2="643" fill="#FFFFFF" stroke="#FFFFFF" stroke-width="1.00"/>
</g>
<g shape-type="group">
<g shape-type="group">
<polygon shape-type="trapezium" points="682,106 682,98 673,102 673,102 682,106" fill="#FF0000" stroke="#FFFFFF" stroke-width="2.00"/>
<polygon shape-type="trapezium" points="664,106 664,98 673,102 673,102 664,106" fill="#FF0000" stroke="#FFFFFF" stroke-width="2.00"/>
</g>
<line shape-type="limitline" x1="672" y1="102" x2="671" y2="90" fill="#FFFFFF" stroke="#FFFFFF" stroke-width="2.00"/>
<ellipse shape-type="ellipse" cx="672" cy="89" rx="7" ry="8" fill="#FFFFFF" stroke="#FFFFFF" stroke-width="2.00"/>
<text font-family="宋体" text-anchor="start" fill="#FF0000" shape-type="text" id="" font-size="13.250000" x="664" y="94">M</text>
</g>
<g shape-type="group">
<ellipse shape-type="ellipse" cx="1098" cy="237" rx="7" ry="8" fill="#FFFFFF" stroke="#FFFFFF" stroke-width="2.00"/>
<text font-family="宋体" text-anchor="start" fill="#FF0000" shape-type="text" id="" font-size="13.250000" x="1089" y="242">M</text>
<line shape-type="limitline" x1="1097" y1="254" x2="1096" y2="243" fill="#FFFFFF" stroke="#FFFFFF" stroke-width="2.00"/>
<g shape-type="group">
<rect shape-type="rectangle" x="1082" y="249" width="35" height="16" fill="#00FF00" stroke="#000000" stroke-width="1.00"/>
<line shape-type="line" x1="1116" y1="263" x2="1082" y2="251" fill="#FFFFFF" stroke="#FFFFFF" stroke-width="1.00"/>
<line shape-type="line" x1="1082" y1="264" x2="1115" y2="252" fill="#FFFFFF" stroke="#FFFFFF" stroke-width="1.00"/>
</g>
</g>
<g shape-type="group">
<ellipse shape-type="ellipse" cx="1106" cy="373" rx="7" ry="8" fill="#FFFFFF" stroke="#FFFFFF" stroke-width="2.00"/>
<text font-family="宋体" text-anchor="start" fill="#FF0000" shape-type="text" id="" font-size="13.250000" x="1097" y="378">M</text>
<line shape-type="limitline" x1="1105" y1="391" x2="1104" y2="379" fill="#FFFFFF" stroke="#FFFFFF" stroke-width="2.00"/>
<g shape-type="group">
<rect shape-type="rectangle" x="1091" y="385" width="34" height="16" fill="#00FF00" stroke="#000000" stroke-width="1.00"/>
<line shape-type="line" x1="1124" y1="399" x2="1091" y2="388" fill="#FFFFFF" stroke="#FFFFFF" stroke-width="1.00"/>
<line shape-type="line" x1="1090" y1="400" x2="1123" y2="389" fill="#FFFFFF" stroke="#FFFFFF" stroke-width="1.00"/>
</g>
</g>
<g shape-type="group">
<ellipse shape-type="ellipse" cx="1115" cy="501" rx="7" ry="8" fill="#FFFFFF" stroke="#FFFFFF" stroke-width="2.00"/>
<text font-family="宋体" text-anchor="start" fill="#FF0000" shape-type="text" id="" font-size="13.250000" x="1106" y="506">M</text>
<line shape-type="limitline" x1="1115" y1="519" x2="1114" y2="507" fill="#FFFFFF" stroke="#FFFFFF" stroke-width="2.00"/>
<g shape-type="group">
<rect shape-type="rectangle" x="1100" y="514" width="34" height="15" fill="#00FF00" stroke="#000000" stroke-width="1.00"/>
<line shape-type="line" x1="1133" y1="527" x2="1100" y2="516" fill="#FFFFFF" stroke="#FFFFFF" stroke-width="1.00"/>
<line shape-type="line" x1="1099" y1="528" x2="1132" y2="517" fill="#FFFFFF" stroke="#FFFFFF" stroke-width="1.00"/>
</g>
</g>
<g shape-type="group">
<g shape-type="group">
<polygon shape-type="trapezium" points="296,49 296,41 286,45 286,45 296,49" fill="#FF0000" stroke="#FFFFFF" stroke-width="2.00"/>
<polygon shape-type="trapezium" points="278,49 278,41 286,45 286,45 278,49" fill="#FF0000" stroke="#FFFFFF" stroke-width="2.00"/>
</g>
<line shape-type="limitline" x1="285" y1="45" x2="284" y2="32" fill="#FFFFFF" stroke="#FFFFFF" stroke-width="2.00"/>
<ellipse shape-type="ellipse" cx="286" cy="32" rx="7" ry="8" fill="#FFFFFF" stroke="#FFFFFF" stroke-width="2.00"/>
<text font-family="宋体" text-anchor="start" fill="#FF0000" shape-type="text" id="" font-size="13.250000" x="278" y="37">M</text>
</g>
<g shape-type="group">
<g shape-type="group">
<polygon shape-type="trapezium" points="1369,107 1369,99 1359,103 1359,103 1369,107" fill="#FF0000" stroke="#FFFFFF" stroke-width="2.00"/>
<polygon shape-type="trapezium" points="1351,107 1351,99 1359,103 1359,103 1351,107" fill="#FF0000" stroke="#FFFFFF" stroke-width="2.00"/>
</g>
<line shape-type="limitline" x1="1358" y1="103" x2="1357" y2="91" fill="#FFFFFF" stroke="#FFFFFF" stroke-width="2.00"/>
<ellipse shape-type="ellipse" cx="1358" cy="90" rx="7" ry="8" fill="#FFFFFF" stroke="#FFFFFF" stroke-width="2.00"/>
<text font-family="宋体" text-anchor="start" fill="#FF0000" shape-type="text" id="" font-size="13.250000" x="1351" y="95">M</text>
</g>
<g shape-type="group">
<g shape-type="group">
<polygon shape-type="trapezium" points="1279,455 1279,447 1270,451 1270,451 1279,455" fill="#FF0000" stroke="#FFFFFF" stroke-width="2.00"/>
<polygon shape-type="trapezium" points="1261,455 1261,447 1270,451 1270,451 1261,455" fill="#FF0000" stroke="#FFFFFF" stroke-width="2.00"/>
</g>
<line shape-type="limitline" x1="1269" y1="451" x2="1268" y2="439" fill="#FFFFFF" stroke="#FFFFFF" stroke-width="2.00"/>
<ellipse shape-type="ellipse" cx="1268" cy="438" rx="7" ry="8" fill="#FFFFFF" stroke="#FFFFFF" stroke-width="2.00"/>
<text font-family="宋体" text-anchor="start" fill="#FF0000" shape-type="text" id="" font-size="13.250000" x="1261" y="443">M</text>
</g>
<g shape-type="group">
<g shape-type="group">
<polygon shape-type="trapezium" points="1389,518 1389,509 1378,513 1378,513 1389,518" fill="#FF0000" stroke="#FFFFFF" stroke-width="2.00"/>
<polygon shape-type="trapezium" points="1369,518 1369,509 1378,513 1378,513 1369,518" fill="#FF0000" stroke="#FFFFFF" stroke-width="2.00"/>
</g>
<line shape-type="limitline" x1="1377" y1="514" x2="1376" y2="501" fill="#FFFFFF" stroke="#FFFFFF" stroke-width="2.00"/>
<ellipse shape-type="ellipse" cx="1377" cy="500" rx="7" ry="7" fill="#FFFFFF" stroke="#FFFFFF" stroke-width="2.00"/>
<text font-family="宋体" text-anchor="start" fill="#FF0000" shape-type="text" id="" font-size="12.500000" x="1369" y="505">M</text>
</g>
<g shape-type="group">
<g shape-type="group">
<polygon shape-type="trapezium" points="1289,590 1289,581 1278,585 1278,585 1289,590" fill="#FF0000" stroke="#FFFFFF" stroke-width="2.00"/>
<polygon shape-type="trapezium" points="1269,590 1269,581 1278,585 1278,585 1269,590" fill="#FF0000" stroke="#FFFFFF" stroke-width="2.00"/>
</g>
<line shape-type="limitline" x1="1277" y1="585" x2="1276" y2="573" fill="#FFFFFF" stroke="#FFFFFF" stroke-width="2.00"/>
<ellipse shape-type="ellipse" cx="1277" cy="572" rx="7" ry="7" fill="#FFFFFF" stroke="#FFFFFF" stroke-width="2.00"/>
<text font-family="宋体" text-anchor="start" fill="#FF0000" shape-type="text" id="" font-size="12.500000" x="1269" y="577">M</text>
</g>
<polygon shape-type="trapezium" points="1330,519 1330,509 1342,514 1342,514 1330,519" fill="#FF0000" stroke="#FF0000" stroke-width="1.00"/>
<g shape-type="group">
<g shape-type="group">
<polygon shape-type="trapezium" points="245,524 245,516 235,520 235,520 245,524" fill="#00FF00" stroke="#FFFFFF" stroke-width="2.00"/>
<polygon shape-type="trapezium" points="227,524 227,516 235,520 235,520 227,524" fill="#00FF00" stroke="#FFFFFF" stroke-width="2.00"/>
</g>
<line shape-type="limitline" x1="234" y1="520" x2="233" y2="507" fill="#FFFFFF" stroke="#FFFFFF" stroke-width="2.00"/>
<ellipse shape-type="ellipse" cx="235" cy="507" rx="7" ry="8" fill="#FFFFFF" stroke="#FFFFFF" stroke-width="2.00"/>
<text font-family="宋体" text-anchor="start" fill="#000000" shape-type="text" id="" font-size="13.250000" x="227" y="512">L</text>
</g>
<line shape-type="limitline" x1="1418" y1="50" x2="1124" y2="50" fill="#FFFFFF" stroke="#FF0000" stroke-width="1.00"/>
<polygon shape-type="trapezium" points="1145,55 1145,45 1157,50 1157,50 1145,55" fill="#FF0000" stroke="#FF0000" stroke-width="1.00"/>
<g shape-type="group">
<ellipse shape-type="ellipse" cx="927" cy="433" rx="7" ry="8" fill="#FFFFFF" stroke="#FFFFFF" stroke-width="2.00"/>
<text font-family="宋体" text-anchor="start" fill="#FF0000" shape-type="text" id="" font-size="14.000000" x="918" y="439">M</text>
<line shape-type="limitline" x1="926" y1="451" x2="925" y2="440" fill="#FFFFFF" stroke="#FFFFFF" stroke-width="2.00"/>
<g shape-type="group">
<rect shape-type="rectangle" x="911" y="446" width="35" height="15" fill="#FF0000" stroke="#000000" stroke-width="1.00"/>
<line shape-type="line" x1="945" y1="459" x2="911" y2="448" fill="#FF0000" stroke="#FFFFFF" stroke-width="1.00"/>
<line shape-type="line" x1="911" y1="460" x2="944" y2="449" fill="#FF0000" stroke="#FFFFFF" stroke-width="1.00"/>
</g>
</g>
<g shape-type="group">
<ellipse shape-type="ellipse" cx="930" cy="564" rx="7" ry="8" fill="#FFFFFF" stroke="#FFFFFF" stroke-width="2.00"/>
<text font-family="宋体" text-anchor="start" fill="#FF0000" shape-type="text" id="" font-size="13.250000" x="921" y="570">M</text>
<line shape-type="limitline" x1="929" y1="582" x2="928" y2="571" fill="#FFFFFF" stroke="#FFFFFF" stroke-width="2.00"/>
<g shape-type="group">
<rect shape-type="rectangle" x="916" y="577" width="34" height="16" fill="#FF0000" stroke="#000000" stroke-width="1.00"/>
<line shape-type="line" x1="949" y1="591" x2="916" y2="579" fill="#FF0000" stroke="#FFFFFF" stroke-width="1.00"/>
<line shape-type="line" x1="915" y1="592" x2="948" y2="580" fill="#FF0000" stroke="#FFFFFF" stroke-width="1.00"/>
</g>
</g>
<g shape-type="group">
<g shape-type="group">
<polygon shape-type="trapezium" points="824,459 824,451 815,455 815,455 824,459" fill="#FF0000" stroke="#FFFFFF" stroke-width="2.00"/>
<polygon shape-type="trapezium" points="806,459 806,451 815,455 815,455 806,459" fill="#FF0000" stroke="#FFFFFF" stroke-width="2.00"/>
</g>
<line shape-type="limitline" x1="814" y1="455" x2="813" y2="443" fill="#FFFFFF" stroke="#FFFFFF" stroke-width="2.00"/>
<ellipse shape-type="ellipse" cx="813" cy="442" rx="7" ry="8" fill="#FFFFFF" stroke="#FFFFFF" stroke-width="2.00"/>
<text font-family="宋体" text-anchor="start" fill="#FF0000" shape-type="text" id="" font-size="13.250000" x="806" y="447">M</text>
</g>
<g shape-type="group">
<g shape-type="group">
<polygon shape-type="trapezium" points="827,589 827,580 818,584 818,584 827,589" fill="#FF0000" stroke="#FFFFFF" stroke-width="2.00"/>
<polygon shape-type="trapezium" points="809,589 809,580 818,584 818,584 809,589" fill="#FF0000" stroke="#FFFFFF" stroke-width="2.00"/>
</g>
<line shape-type="limitline" x1="817" y1="584" x2="816" y2="572" fill="#FFFFFF" stroke="#FFFFFF" stroke-width="2.00"/>
<ellipse shape-type="ellipse" cx="816" cy="571" rx="7" ry="7" fill="#FFFFFF" stroke="#FFFFFF" stroke-width="2.00"/>
<text font-family="宋体" text-anchor="start" fill="#FF0000" shape-type="text" id="" font-size="12.500000" x="809" y="576">M</text>
</g>
<line shape-type="limitline" x1="911" y1="179" x2="911" y2="236" fill="#FFFFFF" stroke="#00FF00" stroke-width="1.00"/>
<text font-family="宋体" text-anchor="start" fill="#FFFFFF" shape-type="text" id="" font-size="1.250000" x="893" y="384"></text>
<g shape-type="group">
<ellipse shape-type="ellipse" cx="934" cy="211" rx="9" ry="7" fill="#FFFFFF" stroke="#FFFFFF" stroke-width="2.00"/>
<line shape-type="limitline" x1="916" y1="210" x2="927" y2="211" fill="#FFFFFF" stroke="#FFFFFF" stroke-width="2.00"/>
<g shape-type="group">
<rect shape-type="rectangle" x="905" y="196" width="16" height="33" fill="#00FF00" stroke="#000000" stroke-width="1.00"/>
<line shape-type="line" x1="907" y1="228" x2="919" y2="196" fill="#FFFFFF" stroke="#FFFFFF" stroke-width="1.00"/>
<line shape-type="line" x1="906" y1="196" x2="918" y2="227" fill="#FFFFFF" stroke="#FFFFFF" stroke-width="1.00"/>
</g>
<text font-family="宋体" text-anchor="start" fill="#FF0000" shape-type="text" id="" font-size="12.500000" x="925" y="215">M</text>
</g>
<g shape-type="group">
<rect shape-type="rectangle" x="282" y="414" width="35" height="16" fill="#C0C0C0" stroke="#000000" stroke-width="1.00"/>
<line shape-type="limitline" x1="291" y1="415" x2="290" y2="430" fill="#FFFFFF" stroke="#000000" stroke-width="1.00"/>
<line shape-type="limitline" x1="305" y1="415" x2="304" y2="429" fill="#FFFFFF" stroke="#000000" stroke-width="1.00"/>
</g>
<g shape-type="group">
<rect shape-type="rectangle" x="586" y="411" width="35" height="16" fill="#C0C0C0" stroke="#000000" stroke-width="1.00"/>
<line shape-type="limitline" x1="595" y1="411" x2="594" y2="427" fill="#FFFFFF" stroke="#000000" stroke-width="1.00"/>
<line shape-type="limitline" x1="609" y1="411" x2="608" y2="426" fill="#FFFFFF" stroke="#000000" stroke-width="1.00"/>
</g>
<text font-family="宋体" text-anchor="start" fill="#FF0000" shape-type="text" id="" font-size="12.500000" x="36" y="34">去润泽蒸汽</text>
<text font-family="宋体" text-anchor="start" fill="#FF0000" shape-type="text" id="" font-size="12.500000" x="30" y="90">去烯烃项目蒸汽</text>
<text font-family="宋体" text-anchor="start" fill="#FF0000" shape-type="text" id="" font-size="12.500000" x="24" y="248">接至除氧间低压蒸气管道</text>
<text font-family="宋体" text-anchor="start" fill="#FF0000" shape-type="text" id="" font-size="12.500000" x="64" y="510">主蒸汽母管扩建端阀门</text>
<text font-family="宋体" text-anchor="start" fill="#FF0000" shape-type="text" id="" font-size="12.500000" x="1141" y="37">来自1#汽机排汽管道</text>
<text font-family="宋体" text-anchor="start" fill="#00FF00" shape-type="text" id="" font-size="12.500000" x="40" y="166">减温水</text>
<text font-family="宋体" text-anchor="start" fill="#FFFFFF" shape-type="text" id="" font-size="12.500000" x="169" y="17">累计</text>
<text font-family="宋体" text-anchor="start" fill="#FFFFFF" shape-type="text" id="" font-size="12.500000" x="156" y="38">补偿后</text>
<text font-family="宋体" text-anchor="start" fill="#FFFFFF" shape-type="text" id="" font-size="12.500000" x="468" y="78">累计</text>
<text font-family="宋体" text-anchor="start" fill="#FFFFFF" shape-type="text" id="" font-size="12.500000" x="746" y="76">累计</text>
<text font-family="宋体" text-anchor="start" fill="#FFFFFF" shape-type="text" id="" font-size="32.000000" writing-mode="tb" glyph-orientation-vertical="0" x="1434" y="290">分汽缸</text>
<text font-family="宋体" text-anchor="start" fill="#00FF00" shape-type="text" id="" font-size="12.500000" x="238" y="40">t/h</text>
<text font-family="宋体" text-anchor="start" fill="#00FF00" shape-type="text" id="" font-size="12.500000" x="562" y="92">t/h</text>
<text font-family="宋体" text-anchor="start" fill="#00FF00" shape-type="text" id="" font-size="12.500000" x="832" y="94">t/h</text>
<text font-family="宋体" text-anchor="start" fill="#00FF00" shape-type="text" id="" font-size="12.500000" x="917" y="96">℃ </text>
<text font-family="宋体" text-anchor="start" fill="#00FF00" shape-type="text" id="" font-size="12.500000" x="757" y="282">℃ </text>
<text font-family="宋体" text-anchor="start" fill="#00FF00" shape-type="text" id="" font-size="12.500000" x="756" y="251">MPa</text>
<text font-family="宋体" text-anchor="start" fill="#00FF00" shape-type="text" id="" font-size="12.500000" x="1232" y="246">MPa</text>
<text font-family="宋体" text-anchor="start" fill="#00FF00" shape-type="text" id="" font-size="12.500000" x="1241" y="276">℃ </text>
<text font-family="宋体" text-anchor="start" fill="#00FF00" shape-type="text" id="" font-size="12.500000" x="889" y="211">%</text>
<text font-family="宋体" text-anchor="start" fill="#FF8000" shape-type="text" id="" font-size="12.500000" x="970" y="214">%</text>
<text font-family="宋体" text-anchor="start" fill="#00FF00" shape-type="text" id="" font-size="12.500000" x="1110" y="217">%</text>
<text font-family="宋体" text-anchor="start" fill="#FF8000" shape-type="text" id="" font-size="12.500000" x="1108" y="286">%</text>
<text font-family="宋体" text-anchor="start" fill="#FF8000" shape-type="text" id="" font-size="12.500000" x="1117" y="417">%</text>
<text font-family="宋体" text-anchor="start" fill="#00FF00" shape-type="text" id="" font-size="12.500000" x="1114" y="357">%</text>
<text font-family="宋体" text-anchor="start" fill="#00FF00" shape-type="text" id="" font-size="12.500000" x="1125" y="486">%</text>
<text font-family="宋体" text-anchor="start" fill="#FF8000" shape-type="text" id="" font-size="12.500000" x="1132" y="552">%</text>
<text font-family="宋体" text-anchor="start" fill="#FF8000" shape-type="text" id="" font-size="12.500000" x="941" y="617">%</text>
<text font-family="宋体" text-anchor="start" fill="#FF8000" shape-type="text" id="" font-size="12.500000" x="935" y="474">%</text>
<text font-family="宋体" text-anchor="start" fill="#00FF00" shape-type="text" id="" font-size="12.500000" x="885" y="606">℃ </text>
<text font-family="宋体" text-anchor="start" fill="#00FF00" shape-type="text" id="" font-size="12.500000" x="884" y="575">MPa</text>
<text font-family="宋体" text-anchor="start" fill="#00FF00" shape-type="text" id="" font-size="12.500000" x="938" y="544">%</text>
<text font-family="宋体" text-anchor="start" fill="#00FF00" shape-type="text" id="" font-size="12.500000" x="935" y="416">%</text>
<text font-family="宋体" text-anchor="start" fill="#00FF00" shape-type="text" id="" font-size="12.500000" x="402" y="508">MPa</text>
<text font-family="宋体" text-anchor="start" fill="#00FF00" shape-type="text" id="" font-size="12.500000" x="493" y="508">℃ </text>
<text font-family="宋体" text-anchor="start" fill="#FF0000" shape-type="text" id="" font-size="12.500000" x="1077" y="94">MPa</text>
<text font-family="宋体" text-anchor="start" fill="#00FF00" shape-type="text" id="" font-size="12.500000" x="1224" y="444">MPa</text>
<text font-family="宋体" text-anchor="start" fill="#00FF00" shape-type="text" id="" font-size="12.500000" x="1233" y="474">℃ </text>
<g shape-type="group">
<g shape-type="group">
<polygon shape-type="trapezium" points="1311,263 1311,254 1302,258 1302,258 1311,263" fill="#00FF00" stroke="#FFFFFF" stroke-width="2.00"/>
<polygon shape-type="trapezium" points="1293,263 1293,254 1302,258 1302,258 1293,263" fill="#00FF00" stroke="#FFFFFF" stroke-width="2.00"/>
</g>
<line shape-type="limitline" x1="1301" y1="258" x2="1300" y2="246" fill="#FFFFFF" stroke="#FFFFFF" stroke-width="2.00"/>
<ellipse shape-type="ellipse" cx="1301" cy="246" rx="7" ry="7" fill="#FFFFFF" stroke="#FFFFFF" stroke-width="2.00"/>
<text font-family="宋体" text-anchor="start" fill="#FF0000" shape-type="text" id="" font-size="13.250000" x="1293" y="250">M</text>
</g>
<text font-family="宋体" text-anchor="start" fill="#00FF00" shape-type="text" id="" font-size="12.500000" x="1368" y="321">℃ </text>
<text font-family="宋体" text-anchor="start" fill="#00FF00" shape-type="text" id="" font-size="12.500000" x="1364" y="348">MPa</text>
<text font-family="宋体" text-anchor="start" fill="#00FF00" shape-type="text" id="" font-size="12.500000" x="1382" y="546">t/h</text>
<text font-family="宋体" text-anchor="start" fill="#00FF00" shape-type="text" id="" font-size="12.500000" x="1220" y="575">MPa</text>
<text font-family="宋体" text-anchor="start" fill="#00FF00" shape-type="text" id="" font-size="12.500000" x="1229" y="605">℃ </text>
<text font-family="宋体" text-anchor="start" fill="#FFFF00" shape-type="text" id="" font-size="12.500000" x="862" y="444">MPa</text>
<text font-family="宋体" text-anchor="start" fill="#00FF00" shape-type="text" id="" font-size="12.500000" x="872" y="474">℃ </text>
<text font-family="宋体" text-anchor="start" fill="#FFFFFF" shape-type="text" id="" font-size="12.500000" x="134" y="608">1#汽机主汽门进汽口</text>
<text font-family="宋体" text-anchor="start" fill="#000000" shape-type="text" id="" font-size="12.500000" x="40" y="371">1号炉过热器出口集箱</text>
<text font-family="宋体" text-anchor="start" fill="#000000" shape-type="text" id="" font-size="12.500000" x="343" y="370">2号炉过热器出口集箱</text>
<text font-family="宋体" text-anchor="start" fill="#000000" shape-type="text" id="" font-size="12.500000" x="836" y="263">3#减温减压器</text>
<text font-family="宋体" text-anchor="start" fill="#000000" shape-type="text" id="" font-size="12.500000" x="1031" y="463">2#减温减压器</text>
<text font-family="宋体" text-anchor="start" fill="#000000" shape-type="text" id="" font-size="12.500000" x="1030" y="589">1#减温减压器</text>
<a xlink:href="..\热电总图.svg">
<g shape-type="button">
<rect fill="#C0C0C0" stroke-width="0.3" stroke="#FFFFFF" x="1198" y="658" width="83" height="29" shape-type="buttonrect"/>
<text font-family="宋体" text-anchor="middle" dominant-baseline="middle" fill="#000000" font-size="13.500000" x="1239" y="678" shape-type="buttontext">返回</text>
</g>
</a>
<text font-family="宋体" text-anchor="start" fill="#FFFFFF" shape-type="text" id="" font-size="18.500000" x="699" y="36">减温减压系统</text>
</svg>