<?xml version="1.0"?>
<?xml-stylesheet type='text/javascript'?>
<!--Draw SVG: 2019-11-25 09:41:33 47-Monday-->
<svg xmlns="http://www.w3.org/2000/svg" xmlns:xlink="http://www.w3.org/1999/xlink" version="1.1" style="background-color:#000000" width="1066" height="800" viewbox="0 0 1066 800">
<defs>
<marker id="Arrow2" markerUnits="strokeWidth" markerWidth="6" markerHeight="6" viewBox="0 0 6 6" refX="3" refY="3" orient="auto"><path d="M5,1 L1,3 L5,5 L3,3 L5,1" style="fill: #000000;"/></marker>
<marker id="Arrow1" markerUnits="strokeWidth" markerWidth="6" markerHeight="6" viewBox="0 0 6 6" refX="3" refY="3" orient="auto"><path d="M1,1 L5,3 L1,5 L3,3 L1,1" style="fill: #000000;"/></marker>
<linearGradient x1="0.000000%" y1="50.000000%" x2="100.000000%" y2="50.000000%" id="lgradient73_0">
<stop offset="0" stop-color="#2B2B2B" stop-opacity="1"/>
<stop offset="0.5" stop-color="#F9F9F9" stop-opacity="1"/>
<stop offset="1" stop-color="#2B2B2B" stop-opacity="1"/>
</linearGradient>
<linearGradient x1="0.000000%" y1="50.000000%" x2="100.000000%" y2="50.000000%" id="lgradient74_0">
<stop offset="0" stop-color="#2B2B2B" stop-opacity="1"/>
<stop offset="0.5" stop-color="#F9F9F9" stop-opacity="1"/>
<stop offset="1" stop-color="#2B2B2B" stop-opacity="1"/>
</linearGradient>
</defs>
<line shape-type="limitline" x1="122" y1="231" x2="122" y2="145" marker-start="url(#Arrow2)" fill="#00FFFF" stroke="#FFFFFF" stroke-width="3.00"/>
<line shape-type="limitline" x1="274" y1="230" x2="122" y2="231" fill="#00FFFF" stroke="#FFFFFF" stroke-width="3.00"/>
<line shape-type="limitline" x1="273" y1="393" x2="273" y2="219" fill="#00FFFF" stroke="#FFFFFF" stroke-width="3.00"/>
<line shape-type="limitline" x1="274" y1="394" x2="80" y2="394" fill="#00FFFF" stroke="#FFFFFF" stroke-width="3.00"/>
<line shape-type="limitline" x1="272" y1="274" x2="248" y2="274" marker-end="url(#Arrow1)" fill="#00FFFF" stroke="#FFFFFF" stroke-width="3.00"/>
<line shape-type="limitline" x1="273" y1="291" x2="248" y2="291" marker-end="url(#Arrow1)" fill="#00FFFF" stroke="#FFFFFF" stroke-width="3.00"/>
<line shape-type="limitline" x1="676" y1="440" x2="198" y2="440" fill="#00FFFF" stroke="#FFFFFF" stroke-width="3.00"/>
<line shape-type="limitline" x1="676" y1="351" x2="676" y2="440" fill="#00FFFF" stroke="#FFFFFF" stroke-width="3.00"/>
<line shape-type="limitline" x1="258" y1="480" x2="199" y2="480" marker-end="url(#Arrow1)" fill="#00FFFF" stroke="#FFFFFF" stroke-width="3.00"/>
<line shape-type="limitline" x1="259" y1="535" x2="259" y2="480" fill="#00FFFF" stroke="#FFFFFF" stroke-width="3.00"/>
<line shape-type="limitline" x1="242" y1="601" x2="212" y2="601" marker-start="url(#Arrow2)" fill="#00FFFF" stroke="#FFFFFF" stroke-width="3.00"/>
<line shape-type="limitline" x1="781" y1="571" x2="271" y2="571" fill="#00FFFF" stroke="#FFFFFF" stroke-width="3.00"/>
<line shape-type="limitline" x1="778" y1="497" x2="778" y2="571" marker-end="url(#Arrow1)" fill="#00FFFF" stroke="#FFFFFF" stroke-width="3.00"/>
<line shape-type="limitline" x1="396" y1="571" x2="396" y2="476" marker-start="url(#Arrow2)" fill="#00FFFF" stroke="#FFFFFF" stroke-width="3.00"/>
<line shape-type="limitline" x1="471" y1="473" x2="397" y2="473" fill="#00FFFF" stroke="#FFFFFF" stroke-width="3.00"/>
<line shape-type="limitline" x1="472" y1="441" x2="472" y2="473" marker-end="url(#Arrow1)" fill="#00FFFF" stroke="#FFFFFF" stroke-width="3.00"/>
<line shape-type="limitline" x1="480" y1="463" x2="480" y2="440" fill="#00FFFF" stroke="#FFFFFF" stroke-width="3.00"/>
<line shape-type="limitline" x1="769" y1="464" x2="480" y2="464" marker-start="url(#Arrow2)" fill="#00FFFF" stroke="#FFFFFF" stroke-width="3.00"/>
<line shape-type="limitline" x1="755" y1="358" x2="755" y2="457" fill="#00FFFF" stroke="#FFFFFF" stroke-width="3.00"/>
<line shape-type="limitline" x1="755" y1="187" x2="755" y2="343" fill="#00FFFF" stroke="#FFFFFF" stroke-width="3.00"/>
<line shape-type="limitline" x1="274" y1="351" x2="931" y2="351" fill="#00FFFF" stroke="#FFFFFF" stroke-width="3.00"/>
<line shape-type="limitline" x1="624" y1="351" x2="624" y2="139" marker-start="url(#Arrow2)" fill="#00FFFF" stroke="#FFFFFF" stroke-width="3.00"/>
<line shape-type="limitline" x1="755" y1="159" x2="755" y2="178" fill="#00FFFF" stroke="#FFFFFF" stroke-width="3.00"/>
<line shape-type="limitline" x1="907" y1="160" x2="755" y2="160" marker-start="url(#Arrow2)" fill="#00FFFF" stroke="#FFFFFF" stroke-width="3.00"/>
<line shape-type="limitline" x1="910" y1="277" x2="910" y2="160" marker-end="url(#Arrow1)" fill="#00FFFF" stroke="#FFFFFF" stroke-width="3.00"/>
<line shape-type="limitline" x1="909" y1="194" x2="769" y2="194" marker-start="url(#Arrow2)" fill="#00FFFF" stroke="#FFFFFF" stroke-width="3.00"/>
<line shape-type="limitline" x1="769" y1="343" x2="769" y2="195" fill="#00FFFF" stroke="#FFFFFF" stroke-width="3.00"/>
<line shape-type="limitline" x1="786" y1="278" x2="786" y2="349" fill="#00FFFF" stroke="#FFFFFF" stroke-width="3.00"/>
<line shape-type="limitline" x1="935" y1="278" x2="786" y2="278" fill="#00FFFF" stroke="#FFFFFF" stroke-width="3.00"/>
<line shape-type="limitline" x1="779" y1="408" x2="779" y2="354" marker-start="url(#Arrow2)" fill="#00FFFF" stroke="#FFFFFF" stroke-width="3.00"/>
<line shape-type="limitline" x1="958" y1="407" x2="781" y2="407" fill="#00FFFF" stroke="#FFFFFF" stroke-width="3.00"/>
<line shape-type="limitline" x1="955" y1="496" x2="955" y2="408" marker-start="url(#Arrow2)" fill="#00FFFF" stroke="#FFFFFF" stroke-width="3.00"/>
<line shape-type="limitline" x1="956" y1="496" x2="805" y2="496" fill="#00FFFF" stroke="#FFFFFF" stroke-width="3.00"/>
<line shape-type="limitline" x1="797" y1="497" x2="777" y2="497" fill="#00FFFF" stroke="#FFFFFF" stroke-width="3.00"/>
<line shape-type="limitline" x1="770" y1="464" x2="770" y2="357" fill="#00FFFF" stroke="#FFFFFF" stroke-width="3.00"/>
<line shape-type="limitline" x1="754" y1="571" x2="754" y2="471" fill="#00FFFF" stroke="#FFFFFF" stroke-width="3.00"/>
<line shape-type="limitline" x1="649" y1="617" x2="649" y2="573" fill="#00FFFF" stroke="#FFFFFF" stroke-width="3.00"/>
<line shape-type="limitline" x1="932" y1="616" x2="649" y2="616" fill="#00FFFF" stroke="#FFFFFF" stroke-width="3.00"/>
<line shape-type="limitline" x1="226" y1="304" x2="202" y2="304" fill="#00FFFF" stroke="#FFFFFF" stroke-width="3.00" stroke-dasharray="5 10"/>
<line shape-type="limitline" x1="225" y1="314" x2="225" y2="304" fill="#00FFFF" stroke="#FFFFFF" stroke-width="3.00" stroke-dasharray="5 10"/>
<line shape-type="limitline" x1="113" y1="389" x2="113" y2="307" fill="#00FFFF" stroke="#FFFFFF" stroke-width="3.00" stroke-dasharray="5 10"/>
<line shape-type="limitline" x1="189" y1="337" x2="117" y2="337" marker-end="url(#Arrow1)" fill="#00FFFF" stroke="#FFFFFF" stroke-width="3.00" stroke-dasharray="5 10"/>
<line shape-type="limitline" x1="122" y1="355" x2="114" y2="355" marker-end="url(#Arrow1)" fill="#00FFFF" stroke="#FFFFFF" stroke-width="3.00" stroke-dasharray="5 10"/>
<line shape-type="limitline" x1="147" y1="391" x2="147" y2="369" fill="#00FFFF" stroke="#FFFFFF" stroke-width="3.00" stroke-dasharray="5 10"/>
<line shape-type="limitline" x1="223" y1="391" x2="223" y2="364" fill="#00FFFF" stroke="#FFFFFF" stroke-width="3.00" stroke-dasharray="5 10"/>
<line shape-type="limitline" x1="232" y1="417" x2="232" y2="437" fill="#00FFFF" stroke="#FFFFFF" stroke-width="3.00" stroke-dasharray="5 10"/>
<line shape-type="limitline" x1="309" y1="418" x2="232" y2="418" fill="#00FFFF" stroke="#FFFFFF" stroke-width="3.00" stroke-dasharray="5 10"/>
<line shape-type="limitline" x1="309" y1="444" x2="309" y2="418" fill="#00FFFF" stroke="#FFFFFF" stroke-width="3.00" stroke-dasharray="5 10"/>
<line shape-type="limitline" x1="278" y1="458" x2="232" y2="458" fill="#00FFFF" stroke="#FFFFFF" stroke-width="3.00" stroke-dasharray="5 10"/>
<line shape-type="limitline" x1="230" y1="464" x2="230" y2="458" fill="#00FFFF" stroke="#FFFFFF" stroke-width="3.00" stroke-dasharray="5 10"/>
<line shape-type="limitline" x1="316" y1="573" x2="316" y2="556" fill="#00FFFF" stroke="#FFFFFF" stroke-width="3.00" stroke-dasharray="5 10"/>
<line shape-type="limitline" x1="405" y1="350" x2="405" y2="308" fill="#00FFFF" stroke="#FFFFFF" stroke-width="3.00" stroke-dasharray="5 10"/>
<line shape-type="limitline" x1="387" y1="362" x2="387" y2="352" fill="#00FFFF" stroke="#FFFFFF" stroke-width="3.00" stroke-dasharray="5 10"/>
<line shape-type="limitline" x1="444" y1="347" x2="444" y2="338" fill="#00FFFF" stroke="#FFFFFF" stroke-width="3.00" stroke-dasharray="5 10"/>
<line shape-type="limitline" x1="445" y1="305" x2="445" y2="313" fill="#00FFFF" stroke="#FFFFFF" stroke-width="3.00" stroke-dasharray="5 10"/>
<line shape-type="limitline" x1="475" y1="305" x2="445" y2="305" marker-start="url(#Arrow2)" fill="#00FFFF" stroke="#FFFFFF" stroke-width="3.00" stroke-dasharray="5 10"/>
<line shape-type="limitline" x1="475" y1="295" x2="434" y2="295" marker-start="url(#Arrow2)" fill="#00FFFF" stroke="#FFFFFF" stroke-width="3.00" stroke-dasharray="5 10"/>
<line shape-type="limitline" x1="504" y1="286" x2="499" y2="281" fill="#00FFFF" stroke="#FFFFFF" stroke-width="3.00" stroke-dasharray="5 10"/>
<line shape-type="limitline" x1="504" y1="315" x2="499" y2="310" fill="#00FFFF" stroke="#FFFFFF" stroke-width="3.00" stroke-dasharray="5 10"/>
<line shape-type="limitline" x1="504" y1="348" x2="504" y2="339" fill="#00FFFF" stroke="#FFFFFF" stroke-width="3.00" stroke-dasharray="5 10"/>
<line shape-type="limitline" x1="688" y1="313" x2="688" y2="350" fill="#00FFFF" stroke="#FFFFFF" stroke-width="3.00" stroke-dasharray="5 10"/>
<line shape-type="limitline" x1="657" y1="253" x2="627" y2="253" fill="#00FFFF" stroke="#FFFFFF" stroke-width="3.00" stroke-dasharray="5 10"/>
<line shape-type="limitline" x1="760" y1="109" x2="733" y2="109" fill="#00FFFF" stroke="#FFFFFF" stroke-width="3.00" stroke-dasharray="5 10"/>
<line shape-type="limitline" x1="733" y1="184" x2="733" y2="110" fill="#00FFFF" stroke="#FFFFFF" stroke-width="3.00" stroke-dasharray="5 10"/>
<line shape-type="limitline" x1="749" y1="184" x2="733" y2="184" fill="#00FFFF" stroke="#FFFFFF" stroke-width="3.00" stroke-dasharray="5 10"/>
<line shape-type="limitline" x1="787" y1="145" x2="787" y2="133" fill="#00FFFF" stroke="#FFFFFF" stroke-width="3.00" stroke-dasharray="5 10"/>
<line shape-type="limitline" x1="827" y1="227" x2="811" y2="227" fill="#00FFFF" stroke="#FFFFFF" stroke-width="3.00" stroke-dasharray="5 10"/>
<line shape-type="limitline" x1="811" y1="276" x2="811" y2="228" fill="#00FFFF" stroke="#FFFFFF" stroke-width="3.00" stroke-dasharray="5 10"/>
<line shape-type="limitline" x1="852" y1="263" x2="852" y2="252" fill="#00FFFF" stroke="#FFFFFF" stroke-width="3.00" stroke-dasharray="5 10"/>
<line shape-type="limitline" x1="815" y1="445" x2="799" y2="445" fill="#00FFFF" stroke="#FFFFFF" stroke-width="3.00" stroke-dasharray="5 10"/>
<line shape-type="limitline" x1="800" y1="488" x2="800" y2="447" fill="#00FFFF" stroke="#FFFFFF" stroke-width="3.00" stroke-dasharray="5 10"/>
<line shape-type="limitline" x1="841" y1="478" x2="841" y2="469" fill="#00FFFF" stroke="#FFFFFF" stroke-width="3.00" stroke-dasharray="5 10"/>
<g shape-type="group">
<rect shape-type="roundRectangle" rx="20" ry="20" x="168" y="418" width="29" height="82" fill="url(#lgradient73_0)" stroke="#000000" stroke-width="1.00"/>
<line shape-type="limitline" x1="168" y1="430" x2="196" y2="431" fill="#C0C0C0" stroke="#000000" stroke-width="2.00"/>
<line shape-type="limitline" x1="197" y1="487" x2="169" y2="488" fill="#C0C0C0" stroke="#000000" stroke-width="2.00"/>
</g>
<g shape-type="group">
<rect shape-type="roundRectangle" rx="20" ry="20" x="243" y="539" width="29" height="92" fill="url(#lgradient74_0)" stroke="#000000" stroke-width="1.00"/>
<line shape-type="limitline" x1="243" y1="553" x2="271" y2="554" fill="#C0C0C0" stroke="#000000" stroke-width="2.00"/>
<line shape-type="limitline" x1="272" y1="617" x2="244" y2="618" fill="#C0C0C0" stroke="#000000" stroke-width="2.00"/>
</g>
<g shape-type="group">
<line shape-type="limitline" x1="177" y1="66" x2="176" y2="68" fill="#00FFFF" stroke="#FFFFFF" stroke-width="3.00" stroke-dasharray="5 10"/>
<rect shape-type="rectangle" x="138" y="64" width="76" height="33" fill="none" stroke="#FFFFFF" stroke-width="3.00" stroke-dasharray="5 10"/>
<text font-family="宋体" text-anchor="start" fill="#FFFFFF" shape-type="text" id="" font-size="7.250000" font-weight="bold" x="151" y="79">反均压开关</text>
</g>
<text font-family="宋体" text-anchor="start" fill="#FFFFFF" shape-type="text" id="" font-size="6.500000" font-weight="bold" x="705" y="445">XV82112</text>
<g shape-type="group">
<g shape-type="group">
<polygon shape-type="trapezium" points="714,460 714,470 721,465 721,465 714,460" fill="#FF0000" stroke="#FF0000" stroke-width="1.00"/>
<polygon shape-type="trapezium" points="729,460 729,470 721,465 721,465 729,460" fill="#FF0000" stroke="#FF0000" stroke-width="1.00"/>
</g>
<line shape-type="limitline" x1="720" y1="454" x2="719" y2="461" fill="#FF0000" stroke="#FF0000" stroke-width="1.00"/>
<polygon shape-type="trapezium" points="723,457 718,457 721,466 721,466 723,457" fill="#FF0000" stroke="#FF0000" stroke-width="1.00"/>
<rect shape-type="rectangle" x="713" y="450" width="16" height="7" fill="#FF0000" stroke="#FF0000" stroke-width="2.00"/>
</g>
<text font-family="宋体" text-anchor="start" fill="#FFFFFF" shape-type="text" id="" font-size="6.500000" font-weight="bold" x="553" y="422">XV82111</text>
<g shape-type="group">
<g shape-type="group">
<polygon shape-type="trapezium" points="564,437 564,447 571,442 571,442 564,437" fill="#FF0000" stroke="#FF0000" stroke-width="1.00"/>
<polygon shape-type="trapezium" points="579,437 579,447 571,442 571,442 579,437" fill="#FF0000" stroke="#FF0000" stroke-width="1.00"/>
</g>
<line shape-type="limitline" x1="570" y1="431" x2="569" y2="439" fill="#FF0000" stroke="#FF0000" stroke-width="1.00"/>
<polygon shape-type="trapezium" points="573,434 568,434 571,443 571,443 573,434" fill="#FF0000" stroke="#FF0000" stroke-width="1.00"/>
<rect shape-type="rectangle" x="563" y="427" width="16" height="7" fill="#FF0000" stroke="#FF0000" stroke-width="2.00"/>
</g>
<text font-family="宋体" text-anchor="start" fill="#FFFFFF" shape-type="text" id="" font-size="6.500000" font-weight="bold" x="410" y="423">XV82110</text>
<g shape-type="group">
<g shape-type="group">
<polygon shape-type="trapezium" points="416,437 416,447 424,442 424,442 416,437" fill="#FF0000" stroke="#FF0000" stroke-width="1.00"/>
<polygon shape-type="trapezium" points="433,437 433,447 424,442 424,442 433,437" fill="#FF0000" stroke="#FF0000" stroke-width="1.00"/>
</g>
<line shape-type="limitline" x1="424" y1="431" x2="423" y2="439" fill="#FF0000" stroke="#FF0000" stroke-width="1.00"/>
<polygon shape-type="trapezium" points="427,434 422,434 425,443 425,443 427,434" fill="#FF0000" stroke="#FF0000" stroke-width="1.00"/>
<rect shape-type="rectangle" x="417" y="427" width="16" height="7" fill="#FF0000" stroke="#FF0000" stroke-width="2.00"/>
</g>
<text font-family="宋体" text-anchor="start" fill="#FFFFFF" shape-type="text" id="" font-size="6.500000" font-weight="bold" x="548" y="552">XV82116</text>
<g shape-type="group">
<g shape-type="group">
<polygon shape-type="trapezium" points="556,569 556,578 565,574 565,574 556,569" fill="#FF0000" stroke="#FF0000" stroke-width="1.00"/>
<polygon shape-type="trapezium" points="573,569 573,578 564,574 564,574 573,569" fill="#FF0000" stroke="#FF0000" stroke-width="1.00"/>
</g>
<line shape-type="limitline" x1="564" y1="563" x2="563" y2="570" fill="#FF0000" stroke="#FF0000" stroke-width="1.00"/>
<polygon shape-type="trapezium" points="567,566 561,566 564,574 564,574 567,566" fill="#FF0000" stroke="#FF0000" stroke-width="1.00"/>
<rect shape-type="rectangle" x="556" y="558" width="17" height="8" fill="#FF0000" stroke="#FF0000" stroke-width="2.00"/>
</g>
<text font-family="宋体" text-anchor="start" fill="#FFFFFF" shape-type="text" id="" font-size="6.500000" font-weight="bold" x="327" y="331">XV82106</text>
<g shape-type="group">
<g shape-type="group">
<polygon shape-type="trapezium" points="335,349 335,358 344,354 344,354 335,349" fill="#FF0000" stroke="#FF0000" stroke-width="1.00"/>
<polygon shape-type="trapezium" points="352,349 352,358 343,354 343,354 352,349" fill="#FF0000" stroke="#FF0000" stroke-width="1.00"/>
</g>
<line shape-type="limitline" x1="343" y1="343" x2="342" y2="350" fill="#FF0000" stroke="#FF0000" stroke-width="1.00"/>
<polygon shape-type="trapezium" points="346,346 341,346 344,354 344,354 346,346" fill="#FF0000" stroke="#FF0000" stroke-width="1.00"/>
<rect shape-type="rectangle" x="335" y="339" width="17" height="7" fill="#FF0000" stroke="#FF0000" stroke-width="2.00"/>
</g>
<g shape-type="group">
<g shape-type="group">
<polygon shape-type="trapezium" points="216,227 216,236 224,232 224,232 216,227" fill="#FF0000" stroke="#FF0000" stroke-width="1.00"/>
<polygon shape-type="trapezium" points="233,227 233,236 224,232 224,232 233,227" fill="#FF0000" stroke="#FF0000" stroke-width="1.00"/>
</g>
<line shape-type="limitline" x1="224" y1="221" x2="223" y2="228" fill="#FF0000" stroke="#FF0000" stroke-width="1.00"/>
<polygon shape-type="trapezium" points="227,224 222,224 225,232 225,232 227,224" fill="#FF0000" stroke="#FF0000" stroke-width="1.00"/>
<rect shape-type="rectangle" x="217" y="216" width="16" height="8" fill="#FF0000" stroke="#FF0000" stroke-width="2.00"/>
</g>
<text font-family="宋体" text-anchor="start" fill="#FFFFFF" shape-type="text" id="" font-size="6.500000" font-weight="bold" x="209" y="213">XV82118</text>
<g shape-type="group">
<g shape-type="group">
<polygon shape-type="trapezium" points="723,346 723,353 730,350 730,350 723,346" fill="#FF0000" stroke="#FF0000" stroke-width="1.00"/>
<polygon shape-type="trapezium" points="739,346 739,353 730,350 730,350 739,346" fill="#FF0000" stroke="#FF0000" stroke-width="1.00"/>
</g>
<line shape-type="limitline" x1="730" y1="342" x2="729" y2="347" fill="#FF0000" stroke="#FF0000" stroke-width="1.00"/>
<polygon shape-type="trapezium" points="732,344 728,344 730,350 730,350 732,344" fill="#FF0000" stroke="#FF0000" stroke-width="1.00"/>
<rect shape-type="rectangle" x="723" y="339" width="16" height="5" fill="#FF0000" stroke="#FF0000" stroke-width="2.00"/>
</g>
<g shape-type="group">
<g shape-type="group">
<polygon shape-type="trapezium" points="644,347 644,354 651,351 651,351 644,347" fill="#FF0000" stroke="#FF0000" stroke-width="1.00"/>
<polygon shape-type="trapezium" points="659,347 659,354 651,351 651,351 659,347" fill="#FF0000" stroke="#FF0000" stroke-width="1.00"/>
</g>
<line shape-type="limitline" x1="651" y1="342" x2="650" y2="348" fill="#FF0000" stroke="#FF0000" stroke-width="1.00"/>
<polygon shape-type="trapezium" points="653,345 649,345 651,351 651,351 653,345" fill="#FF0000" stroke="#FF0000" stroke-width="1.00"/>
<rect shape-type="rectangle" x="644" y="339" width="15" height="6" fill="#FF0000" stroke="#FF0000" stroke-width="2.00"/>
</g>
<text font-family="宋体" text-anchor="start" fill="#FFFFFF" shape-type="text" id="" font-size="6.500000" font-weight="bold" x="634" y="331">XV82108</text>
<text font-family="宋体" text-anchor="start" fill="#FFFFFF" shape-type="text" id="" font-size="6.500000" font-weight="bold" x="712" y="332">XV82109</text>
<text font-family="宋体" text-anchor="start" fill="#FFFFFF" shape-type="text" id="" font-size="6.500000" font-weight="bold" x="619" y="160">%</text>
<g shape-type="group">
<g shape-type="group">
<polygon shape-type="trapezium" points="845,155 845,164 852,160 852,160 845,155" fill="#FF0000" stroke="#FF0000" stroke-width="1.00"/>
<polygon shape-type="trapezium" points="860,155 860,164 852,160 852,160 860,155" fill="#FF0000" stroke="#FF0000" stroke-width="1.00"/>
</g>
<line shape-type="limitline" x1="852" y1="150" x2="851" y2="156" fill="#FF0000" stroke="#FF0000" stroke-width="1.00"/>
<polygon shape-type="trapezium" points="854,153 850,153 852,159 852,159 854,153" fill="#FF0000" stroke="#FF0000" stroke-width="1.00"/>
<rect shape-type="rectangle" x="845" y="147" width="15" height="6" fill="#FF0000" stroke="#FF0000" stroke-width="2.00"/>
</g>
<g shape-type="group">
<g shape-type="group">
<polygon shape-type="trapezium" points="906,493 906,500 914,497 914,497 906,493" fill="#FF0000" stroke="#FF0000" stroke-width="1.00"/>
<polygon shape-type="trapezium" points="921,493 921,500 912,497 912,497 921,493" fill="#FF0000" stroke="#FF0000" stroke-width="1.00"/>
</g>
<line shape-type="limitline" x1="912" y1="489" x2="911" y2="494" fill="#FF0000" stroke="#FF0000" stroke-width="1.00"/>
<polygon shape-type="trapezium" points="916,491 910,491 913,497 913,497 916,491" fill="#FF0000" stroke="#FF0000" stroke-width="1.00"/>
<rect shape-type="rectangle" x="906" y="485" width="15" height="6" fill="#FF0000" stroke="#FF0000" stroke-width="2.00"/>
</g>
<text font-family="宋体" text-anchor="start" fill="#FFFFFF" shape-type="text" id="" font-size="6.500000" font-weight="bold" x="836" y="143">XV82117</text>
<text font-family="宋体" text-anchor="start" fill="#FFFFFF" shape-type="text" id="" font-size="6.500000" font-weight="bold" x="897" y="478">XV82120</text>
<text font-family="宋体" text-anchor="start" fill="#FFFFFF" shape-type="text" id="" font-size="6.500000" font-weight="bold" x="390" y="514">%</text>
<text font-family="宋体" text-anchor="start" fill="#FFFFFF" shape-type="text" id="" font-size="6.500000" font-weight="bold" x="210" y="277">OX52202B</text>
<text font-family="宋体" text-anchor="start" fill="#FFFFFF" shape-type="text" id="" font-size="6.500000" font-weight="bold" x="212" y="295">OX52202C</text>
<text font-family="宋体" text-anchor="start" fill="#FFFFFF" shape-type="text" id="" font-size="6.500000" font-weight="bold" x="133" y="460">V5227a</text>
<g shape-type="group">
<line shape-type="limitline" x1="195" y1="590" x2="194" y2="591" fill="#00FFFF" stroke="#FFFFFF" stroke-width="2.00" stroke-dasharray="5 10"/>
<rect shape-type="rectangle" x="146" y="588" width="62" height="25" fill="none" stroke="#FFFFFF" stroke-width="2.00"/>
<text font-family="宋体" text-anchor="start" fill="#FFFFFF" shape-type="text" id="" font-size="5.750000" font-weight="bold">
<tspan x="150" y="597"> HPN2</tspan>
<tspan x="150" y="604">COMPRESSOR</tspan>
</text>
</g>
<text font-family="宋体" text-anchor="start" fill="#FFFFFF" shape-type="text" id="" font-size="6.500000" font-weight="bold" x="276" y="597">V5209</text>
<text font-family="宋体" text-anchor="start" fill="#FFFFFF" shape-type="text" id="" font-size="6.500000" font-weight="bold" x="417" y="519">HV82112</text>
<text font-family="宋体" text-anchor="start" fill="#FFFFFF" shape-type="text" id="" font-size="6.500000" font-weight="bold" x="464" y="53">O/C RATIO</text>
<text font-family="宋体" text-anchor="start" fill="#FFFFFF" shape-type="text" id="" font-size="6.500000" font-weight="bold" x="529" y="53">O/SLURRY RATIO</text>
<g shape-type="group">
<line shape-type="limitline" x1="488" y1="59" x2="486" y2="60" fill="#00FFFF" stroke="#FFFFFF" stroke-width="2.00" stroke-dasharray="5 10"/>
<rect shape-type="rectangle" x="448" y="64" width="61" height="18" fill="none" stroke="#FFFFFF" stroke-width="2.00"/>
<text font-family="宋体" text-anchor="start" fill="#0000FF" shape-type="text" id="" font-size="6.500000" font-weight="bold" x="454" y="73">XXXX</text>
</g>
<g shape-type="group">
<line shape-type="limitline" x1="571" y1="59" x2="570" y2="60" fill="#00FFFF" stroke="#FFFFFF" stroke-width="2.00" stroke-dasharray="5 10"/>
<rect shape-type="rectangle" x="532" y="64" width="61" height="18" fill="none" stroke="#FFFFFF" stroke-width="2.00"/>
<text font-family="宋体" text-anchor="start" fill="#0000FF" shape-type="text" id="" font-size="6.500000" font-weight="bold" x="539" y="73">XXXX</text>
</g>
<g shape-type="group">
<rect shape-type="rectangle" x="314" y="300" width="51" height="21" fill="#00FF00" stroke="#FFFFFF" stroke-width="2.00"/>
<text font-family="宋体" text-anchor="start" fill="#FFFFFF" shape-type="text" id="" font-size="5.750000" font-weight="bold" x="314" y="312">氧气界区阀</text>
</g>
<line shape-type="limitline" x1="748" y1="180" x2="759" y2="180" fill="#00FFFF" stroke="#FFFFFF" stroke-width="3.00"/>
<line shape-type="limitline" x1="760" y1="184" x2="751" y2="184" fill="#00FFFF" stroke="#FFFFFF" stroke-width="3.00"/>
<line shape-type="limitline" x1="749" y1="188" x2="760" y2="188" fill="#00FFFF" stroke="#FFFFFF" stroke-width="3.00"/>
<line shape-type="limitline" x1="797" y1="490" x2="797" y2="503" fill="#00FFFF" stroke="#FFFFFF" stroke-width="3.00"/>
<line shape-type="limitline" x1="800" y1="490" x2="800" y2="503" fill="#00FFFF" stroke="#FFFFFF" stroke-width="3.00"/>
<line shape-type="limitline" x1="804" y1="490" x2="804" y2="503" fill="#00FFFF" stroke="#FFFFFF" stroke-width="3.00"/>
<g shape-type="group">
<g shape-type="group">
<rect shape-type="rectangle" x="936" y="609" width="59" height="17" fill="#C0C0C0" stroke="#FFFFFF" stroke-width="1.00"/>
<polygon shape-type="trapezium" points="994,609 994,625 1006,617 1006,617 994,609" fill="#C0C0C0" stroke="#FFFFFF" stroke-width="1.00"/>
</g>
<text font-family="宋体" text-anchor="start" fill="#000000" shape-type="text" id="" font-size="7.250000" font-weight="bold" x="945" y="621">高压煤浆泵</text>
</g>
<g shape-type="group">
<g shape-type="group">
<rect shape-type="rectangle" x="934" y="271" width="59" height="18" fill="#C0C0C0" stroke="#FFFFFF" stroke-width="1.00"/>
<polygon shape-type="trapezium" points="992,271 992,286 1004,279 1004,279 992,271" fill="#C0C0C0" stroke="#FFFFFF" stroke-width="1.00"/>
</g>
<text font-family="宋体" text-anchor="start" fill="#000000" shape-type="text" id="" font-size="8.000000" font-weight="bold" x="943" y="283">中心氧</text>
</g>
<g shape-type="group">
<g shape-type="group">
<rect shape-type="rectangle" x="932" y="342" width="60" height="18" fill="#C0C0C0" stroke="#FFFFFF" stroke-width="1.00"/>
<polygon shape-type="trapezium" points="992,342 992,358 1004,350 1004,350 992,342" fill="#C0C0C0" stroke="#FFFFFF" stroke-width="1.00"/>
</g>
<text font-family="宋体" text-anchor="start" fill="#000000" shape-type="text" id="" font-size="6.500000" font-weight="bold" x="942" y="354">环氧</text>
</g>
<g shape-type="group">
<g shape-type="group">
<polygon shape-type="polygon" points="619,214 625,214 623,222" fill="#FF0000" stroke="#FF0000" stroke-width="2.00"/>
<polygon shape-type="polygon" points="623,222 620,230 627,230" fill="#FF0000" stroke="#FF0000" stroke-width="2.00"/>
</g>
<polygon shape-type="polygon" points="621,223 632,222 621,220" fill="#FF0000" stroke="#FF0000" stroke-width="2.00"/>
<rect shape-type="rectangle" x="631" y="214" width="7" height="14" fill="#FF0000" stroke="#FF0000" stroke-width="2.00"/>
</g>
<g shape-type="group">
<path shape-type="chord" d="M 630,167 A 10,9 0 1,0 630,159 z" fill="#FF0000" stroke="#FF0000" stroke-width="2.00"/>
<g shape-type="group">
<polygon shape-type="polygon" points="617,153 623,153 621,163" fill="#FF0000" stroke="#FF0000" stroke-width="2.00"/>
<polygon shape-type="polygon" points="621,161 618,171 625,171" fill="#FF0000" stroke="#FF0000" stroke-width="2.00"/>
</g>
<polygon shape-type="polygon" points="622,165 633,163 622,158" fill="#FF0000" stroke="#FF0000" stroke-width="2.00"/>
</g>
<g shape-type="group">
<path shape-type="chord" d="M 400,521 A 9,8 0 1,0 400,514 z" fill="#FF0000" stroke="#FF0000" stroke-width="2.00"/>
<g shape-type="group">
<polygon shape-type="polygon" points="390,509 396,509 395,517" fill="#FF0000" stroke="#FF0000" stroke-width="2.00"/>
<polygon shape-type="polygon" points="393,517 390,524 397,524" fill="#FF0000" stroke="#FF0000" stroke-width="2.00"/>
</g>
<polygon shape-type="polygon" points="394,519 404,517 395,514" fill="#FF0000" stroke="#FF0000" stroke-width="2.00"/>
</g>
<g shape-type="group">
<g shape-type="group">
<rect shape-type="rectangle" x="8" y="384" width="60" height="18" fill="#C0C0C0" stroke="#FFFFFF" stroke-width="1.00"/>
<polygon shape-type="trapezium" points="68,384 68,400 80,392 80,392 68,384" fill="#C0C0C0" stroke="#FFFFFF" stroke-width="1.00"/>
</g>
<text font-family="宋体" text-anchor="start" fill="#000000" shape-type="text" id="" font-size="6.500000" font-weight="bold" x="17" y="396">来自空分</text>
</g>
<text font-family="宋体" text-anchor="start" fill="#FFFFFF" shape-type="text" id="" font-size="6.500000" font-weight="bold" x="578" y="223">XV82107</text>
<rect shape-type="rectangle" x="1" y="-1" width="1065" height="38" fill="#636563" stroke="#808080" stroke-width="1.00"/>
<rect shape-type="rectangle" x="300" y="1" width="500" height="33" stroke="#000000" stroke-width="1.00"/>
<a xlink:href="QH_ML.svg">
<g shape-type="button">
<rect fill="#C0C0C0" stroke-width="0.3" stroke="#FFFFFF" x="961" y="1" width="100" height="33" shape-type="buttonrect"/>
<text font-family="宋体" text-anchor="middle" dominant-baseline="middle" fill="#800000" font-size="13.500000" font-weight="bold" x="1011" y="24" shape-type="buttontext">返回上一级</text>
</g>
</a>
<text font-family="宋体" text-anchor="start" fill="#FFFFFF" shape-type="text" id="" font-size="26.750000" font-weight="bold" x="450" y="26">A炉氧气系统</text>
<rect shape-type="rectangle" x="54" y="263" width="111" height="40" fill="none" stroke="#FFFFFF" stroke-width="2.00"/>
<text font-family="宋体" text-anchor="start" fill="#FFFFFF" shape-type="text" id="" font-size="8.000000" font-weight="bold" x="90" y="277">FIC82104</text>
<text font-family="宋体" text-anchor="start" fill="#00FF00" shape-type="text" id="" font-size="8.000000" font-weight="bold" x="130" y="296">Nm3/h</text>
<text font-family="Arial" text-anchor="start" fill="#00FFFF" shape-type="realdata" id="HCAB_ZQ_QH_FIC82104" font-size="11.000000" x="60" y="296">XXXX</text>
<rect shape-type="rectangle" x="127" y="341" width="52" height="26" fill="none" stroke="#FFFFFF" stroke-width="2.00"/>
<text font-family="宋体" text-anchor="start" fill="#FFFFFF" shape-type="text" id="" font-size="8.000000" font-weight="bold" x="133" y="351">TI82105</text>
<text font-family="宋体" text-anchor="start" fill="#00FF00" shape-type="text" id="" font-size="8.000000" font-weight="bold" x="169" y="365">℃</text>
<text font-family="Arial" text-anchor="start" fill="#00FFFF" shape-type="realdata" id="HCAB_ZQ_QH_TI82105" font-size="11.000000" x="128" y="363">XXXX</text>
<rect shape-type="rectangle" x="189" y="320" width="70" height="41" fill="none" stroke="#FFFFFF" stroke-width="2.00"/>
<text font-family="宋体" text-anchor="start" fill="#FFFFFF" shape-type="text" id="" font-size="8.000000" font-weight="bold" x="199" y="332">PIC82107</text>
<text font-family="宋体" text-anchor="start" fill="#00FF00" shape-type="text" id="" font-size="8.000000" font-weight="bold" x="237" y="350">MPa</text>
<text font-family="Arial" text-anchor="start" fill="#00FFFF" shape-type="realdata" id="HCAB_ZQ_QH_PIC82107" font-size="11.000000" x="193" y="350">XXXX</text>
<line shape-type="limitline" x1="407" y1="365" x2="406" y2="366" fill="#00FFFF" stroke="#FFFFFF" stroke-width="2.00" stroke-dasharray="5 10"/>
<rect shape-type="rectangle" x="367" y="363" width="68" height="35" fill="none" stroke="#FFFFFF" stroke-width="2.00"/>
<text font-family="宋体" text-anchor="start" fill="#FFFFFF" shape-type="text" id="" font-size="8.000000" font-weight="bold" x="376" y="375">PI_82120</text>
<text font-family="宋体" text-anchor="start" fill="#00FF00" shape-type="text" id="" font-size="8.000000" font-weight="bold" x="411" y="391">MPa</text>
<text font-family="Arial" text-anchor="start" fill="#00FFFF" shape-type="realdata" id="HCAB_ZQ_QH_PI_82120" font-size="11.000000" x="371" y="391">XXXX</text>
<line shape-type="limitline" x1="423" y1="286" x2="422" y2="288" fill="#00FFFF" stroke="#FFFFFF" stroke-width="2.00" stroke-dasharray="5 10"/>
<rect shape-type="rectangle" x="370" y="277" width="62" height="32" fill="none" stroke="#FFFFFF" stroke-width="2.00"/>
<text font-family="宋体" text-anchor="start" fill="#FFFFFF" shape-type="text" id="" font-size="8.000000" font-weight="bold" x="380" y="291">PI82106</text>
<text font-family="宋体" text-anchor="start" fill="#00FF00" shape-type="text" id="" font-size="8.000000" font-weight="bold" x="412" y="304">MPa</text>
<text font-family="Arial" text-anchor="start" fill="#00FFFF" shape-type="realdata" id="HCAB_ZQ_QH_PI82106" font-size="11.000000" x="375" y="299">XXXX</text>
<rect shape-type="rectangle" x="418" y="318" width="51" height="21" fill="none" stroke="#FFFFFF" stroke-width="2.00"/>
<text font-family="宋体" text-anchor="start" fill="#FFFFFF" shape-type="text" id="" font-size="5.000000" font-weight="bold" x="420" y="325"> </text>
<text font-family="宋体" text-anchor="start" fill="#FFFFFF" shape-type="text" id="" font-size="6.500000" font-weight="bold" x="458" y="333">℃</text>
<line shape-type="limitline" x1="515" y1="263" x2="514" y2="264" fill="#00FFFF" stroke="#FFFFFF" stroke-width="2.00" stroke-dasharray="5 10"/>
<rect shape-type="rectangle" x="455" y="252" width="80" height="32" fill="none" stroke="#FFFFFF" stroke-width="2.00"/>
<text font-family="宋体" text-anchor="start" fill="#FFFFFF" shape-type="text" id="" font-size="8.000000" font-weight="bold" x="474" y="266">FIC82105</text>
<text font-family="宋体" text-anchor="start" fill="#00FF00" shape-type="text" id="" font-size="8.000000" font-weight="bold" x="505" y="280">Nm3/h</text>
<text font-family="Arial" text-anchor="start" fill="#00FFFF" shape-type="realdata" id="HCAB_ZQ_QH_FIC82105" font-size="11.000000" x="459" y="276">XXXX</text>
<line shape-type="limitline" x1="514" y1="289" x2="513" y2="290" fill="#00FFFF" stroke="#FFFFFF" stroke-width="2.00" stroke-dasharray="5 10"/>
<rect shape-type="rectangle" x="473" y="285" width="61" height="25" fill="none" stroke="#FFFFFF" stroke-width="2.00"/>
<text font-family="宋体" text-anchor="start" fill="#FFFFFF" shape-type="text" id="" font-size="5.750000" font-weight="bold" x="477" y="294">FY82105-2</text>
<text font-family="宋体" text-anchor="start" fill="#FFFFFF" shape-type="text" id="" font-size="6.500000" font-weight="bold" x="505" y="304">Nm3/h</text>
<line shape-type="limitline" x1="466" y1="316" x2="465" y2="318" fill="#00FFFF" stroke="#FFFFFF" stroke-width="2.00" stroke-dasharray="5 10"/>
<line shape-type="limitline" x1="515" y1="319" x2="514" y2="320" fill="#00FFFF" stroke="#FFFFFF" stroke-width="2.00" stroke-dasharray="5 10"/>
<rect shape-type="rectangle" x="474" y="315" width="61" height="25" fill="none" stroke="#FFFFFF" stroke-width="2.00"/>
<text font-family="宋体" text-anchor="start" fill="#FFFFFF" shape-type="text" id="" font-size="5.750000" font-weight="bold" x="478" y="323">FY82105-1</text>
<text font-family="宋体" text-anchor="start" fill="#FFFFFF" shape-type="text" id="" font-size="6.500000" font-weight="bold" x="506" y="333">Nm3/h</text>
<line shape-type="limitline" x1="696" y1="152" x2="695" y2="154" fill="#00FFFF" stroke="#FFFFFF" stroke-width="2.00" stroke-dasharray="5 10"/>
<text font-family="宋体" text-anchor="start" fill="#FFFFFF" shape-type="text" id="" font-size="5.000000" font-weight="bold" x="646" y="163">HV82101</text>
<line shape-type="limitline" x1="697" y1="243" x2="696" y2="244" fill="#00FFFF" stroke="#FFFFFF" stroke-width="2.00" stroke-dasharray="5 10"/>
<rect shape-type="rectangle" x="657" y="233" width="64" height="33" fill="none" stroke="#FFFFFF" stroke-width="2.00"/>
<text font-family="宋体" text-anchor="start" fill="#FFFFFF" shape-type="text" id="" font-size="8.000000" font-weight="bold" x="666" y="249">PI_82108</text>
<text font-family="宋体" text-anchor="start" fill="#00FF00" shape-type="text" id="" font-size="8.000000" font-weight="bold" x="695" y="261">MPa</text>
<text font-family="Arial" text-anchor="start" fill="#00FFFF" shape-type="realdata" id="HCAB_ZQ_QH_PI_82108" font-size="11.000000" x="658" y="261">XXXX</text>
<rect shape-type="rectangle" x="761" y="89" width="108" height="40" fill="none" stroke="#FFFFFF" stroke-width="2.00"/>
<text font-family="宋体" text-anchor="start" fill="#FFFFFF" shape-type="text" id="" font-size="8.000000" font-weight="bold" x="778" y="101">FC82106</text>
<text font-family="宋体" text-anchor="start" fill="#00FF00" shape-type="text" id="" font-size="8.000000" font-weight="bold" x="829" y="119">Nm3/h</text>
<text font-family="Arial" text-anchor="start" fill="#00FFFF" shape-type="realdata" id="HCAB_ZQ_QH_FI_82106" font-size="11.000000" x="768" y="119">XXXX</text>
<rect shape-type="rectangle" x="818" y="425" width="90" height="41" fill="none" stroke="#FFFFFF" stroke-width="2.00"/>
<text font-family="宋体" text-anchor="start" fill="#FFFFFF" shape-type="text" id="" font-size="8.000000" font-weight="bold" x="836" y="438">FIC82109</text>
<text font-family="宋体" text-anchor="start" fill="#00FF00" shape-type="text" id="" font-size="8.000000" font-weight="bold" x="874" y="458">Nm3/h</text>
<text font-family="Arial" text-anchor="start" fill="#00FFFF" shape-type="realdata" id="HCAB_ZQ_QH_FIC82109" font-size="11.000000" x="822" y="457">XXXX</text>
<rect shape-type="rectangle" x="839" y="537" width="134" height="41" fill="none" stroke="#FFFFFF" stroke-width="2.00"/>
<text font-family="宋体" text-anchor="start" fill="#FFFFFF" shape-type="text" id="" font-size="8.000000" font-weight="bold" x="867" y="550">FIQ82109</text>
<text font-family="宋体" text-anchor="start" fill="#00FF00" shape-type="text" id="" font-size="8.000000" font-weight="bold" x="941" y="573">Nm3/h</text>
<text font-family="Arial" text-anchor="start" fill="#00FFFF" shape-type="realdata" id="HCAB_ZQ_LJ_FIQ82109" font-size="11.000000" x="856" y="571">XXXX</text>
<rect shape-type="rectangle" x="879" y="89" width="108" height="40" fill="none" stroke="#FFFFFF" stroke-width="2.00"/>
<text font-family="宋体" text-anchor="start" fill="#FFFFFF" shape-type="text" id="" font-size="8.000000" font-weight="bold" x="896" y="101">FIQ82106</text>
<text font-family="宋体" text-anchor="start" fill="#00FF00" shape-type="text" id="" font-size="8.000000" font-weight="bold" x="953" y="122">Nm3/h</text>
<text font-family="Arial" text-anchor="start" fill="#00FFFF" shape-type="realdata" id="HCAB_ZQ_LJ_FIQ82106" font-size="11.000000" x="887" y="120">XXXX</text>
<g shape-type="group">
<g shape-type="group">
<polygon shape-type="trapezium" points="569,350 569,359 576,355 576,355 569,350" fill="#FF0000" stroke="#FF0000" stroke-width="1.00"/>
<polygon shape-type="trapezium" points="583,350 583,359 575,355 575,355 583,350" fill="#FF0000" stroke="#FF0000" stroke-width="1.00"/>
</g>
<line shape-type="limitline" x1="575" y1="345" x2="574" y2="351" fill="#FF0000" stroke="#FF0000" stroke-width="1.00"/>
<polygon shape-type="trapezium" points="578,348 573,348 576,355 576,355 578,348" fill="#FF0000" stroke="#FF0000" stroke-width="1.00"/>
<rect shape-type="rectangle" x="569" y="341" width="14" height="7" fill="#FF0000" stroke="#FF0000" stroke-width="2.00"/>
</g>
<path shape-type="chord" d="M 587,349 A 12,25 0 0,0 568,349 z" fill="#FF0000" stroke="#FF0000" stroke-width="1.00"/>
<line shape-type="limitline" x1="703" y1="290" x2="702" y2="291" fill="#00FFFF" stroke="#FFFFFF" stroke-width="2.00" stroke-dasharray="5 10"/>
<rect shape-type="rectangle" x="664" y="281" width="68" height="32" fill="none" stroke="#FFFFFF" stroke-width="2.00"/>
<text font-family="宋体" text-anchor="start" fill="#FFFFFF" shape-type="text" id="" font-size="8.000000" font-weight="bold" x="677" y="294">PI_82109</text>
<text font-family="宋体" text-anchor="start" fill="#00FF00" shape-type="text" id="" font-size="8.000000" font-weight="bold" x="710" y="308">MPa</text>
<text font-family="Arial" text-anchor="start" fill="#00FFFF" shape-type="realdata" id="HCAB_ZQ_QH_PI_82109" font-size="11.000000" x="666" y="307">XXXX</text>
<rect shape-type="rectangle" x="279" y="446" width="71" height="41" fill="none" stroke="#FFFFFF" stroke-width="2.00"/>
<text font-family="宋体" text-anchor="start" fill="#FFFFFF" shape-type="text" id="" font-size="8.000000" font-weight="bold" x="291" y="458">PIC82117</text>
<text font-family="宋体" text-anchor="start" fill="#00FF00" shape-type="text" id="" font-size="8.000000" font-weight="bold" x="330" y="477">MPa</text>
<text font-family="Arial" text-anchor="start" fill="#00FFFF" shape-type="realdata" id="HCAB_ZQ_QH_PIC82117" font-size="11.000000" x="280" y="477">XXXX</text>
<line shape-type="limitline" x1="331" y1="535" x2="330" y2="536" fill="#00FFFF" stroke="#FFFFFF" stroke-width="2.00" stroke-dasharray="5 10"/>
<rect shape-type="rectangle" x="291" y="530" width="69" height="28" fill="none" stroke="#FFFFFF" stroke-width="2.00"/>
<text font-family="宋体" text-anchor="start" fill="#FFFFFF" shape-type="text" id="" font-size="8.000000" font-weight="bold" x="305" y="541">PI_82118</text>
<text font-family="宋体" text-anchor="start" fill="#00FF00" shape-type="text" id="" font-size="8.000000" font-weight="bold" x="336" y="554">MPa</text>
<text font-family="Arial" text-anchor="start" fill="#00FFFF" shape-type="realdata" id="HCAB_ZQ_QH_PI_82118" font-size="11.000000" x="295" y="551">XXXX</text>
<line shape-type="limitline" x1="60" y1="423" x2="59" y2="424" fill="#00FFFF" stroke="#FFFFFF" stroke-width="2.00" stroke-dasharray="5 10"/>
<rect shape-type="rectangle" x="20" y="415" width="66" height="31" fill="none" stroke="#FFFFFF" stroke-width="2.00"/>
<text font-family="宋体" text-anchor="start" fill="#FFFFFF" shape-type="text" id="" font-size="8.000000" font-weight="bold" x="27" y="427">PI_82104A</text>
<text font-family="宋体" text-anchor="start" fill="#00FF00" shape-type="text" id="" font-size="8.000000" font-weight="bold" x="60" y="441">MPa</text>
<text font-family="Arial" text-anchor="start" fill="#00FFFF" shape-type="realdata" id="HCAB_ZQ_QH_PI_82104A" font-size="11.000000" x="23" y="438">XXXX</text>
<line shape-type="limitline" x1="80" y1="443" x2="79" y2="444" fill="#00FFFF" stroke="#FFFFFF" stroke-width="2.00" stroke-dasharray="5 10"/>
<rect shape-type="rectangle" x="19" y="458" width="66" height="31" fill="none" stroke="#FFFFFF" stroke-width="2.00"/>
<text font-family="宋体" text-anchor="start" fill="#FFFFFF" shape-type="text" id="" font-size="8.000000" font-weight="bold" x="28" y="470">PI_82104B</text>
<text font-family="宋体" text-anchor="start" fill="#00FF00" shape-type="text" id="" font-size="8.000000" font-weight="bold" x="61" y="483">MPa</text>
<text font-family="Arial" text-anchor="start" fill="#00FFFF" shape-type="realdata" id="HCAB_ZQ_QH_PI_82104B" font-size="11.000000" x="21" y="483">XXXX</text>
<rect shape-type="rectangle" x="21" y="517" width="66" height="31" fill="none" stroke="#FFFFFF" stroke-width="2.00"/>
<text font-family="宋体" text-anchor="start" fill="#FFFFFF" shape-type="text" id="" font-size="8.000000" font-weight="bold" x="25" y="529">PI_82104C</text>
<text font-family="宋体" text-anchor="start" fill="#00FF00" shape-type="text" id="" font-size="8.000000" font-weight="bold" x="65" y="543">MPa</text>
<text font-family="Arial" text-anchor="start" fill="#00FFFF" shape-type="realdata" id="HCAB_ZQ_QH_PI_82104C" font-size="11.000000" x="27" y="542">XXXX</text>
<line shape-type="limitline" x1="865" y1="317" x2="864" y2="318" fill="#00FFFF" stroke="#FFFFFF" stroke-width="2.00" stroke-dasharray="5 10"/>
<rect shape-type="rectangle" x="825" y="309" width="68" height="30" fill="none" stroke="#FFFFFF" stroke-width="2.00"/>
<text font-family="宋体" text-anchor="start" fill="#FFFFFF" shape-type="text" id="" font-size="8.000000" font-weight="bold" x="836" y="321">PI82110</text>
<text font-family="宋体" text-anchor="start" fill="#00FF00" shape-type="text" id="" font-size="8.000000" font-weight="bold" x="870" y="333">MPa</text>
<text font-family="Arial" text-anchor="start" fill="#00FFFF" shape-type="realdata" id="HCAB_ZQ_QH_PI_82110" font-size="11.000000" x="827" y="334">XXXX</text>
<g shape-type="group">
<g shape-type="group">
<polygon shape-type="trapezium" points="844,276 844,285 851,281 851,281 844,276" fill="#FF0000" stroke="#FF0000" stroke-width="1.00"/>
<polygon shape-type="trapezium" points="858,276 858,285 850,281 850,281 858,276" fill="#FF0000" stroke="#FF0000" stroke-width="1.00"/>
</g>
<line shape-type="limitline" x1="850" y1="271" x2="849" y2="277" fill="#FF0000" stroke="#FF0000" stroke-width="1.00"/>
<polygon shape-type="trapezium" points="853,274 848,274 851,281 851,281 853,274" fill="#FF0000" stroke="#FF0000" stroke-width="1.00"/>
<rect shape-type="rectangle" x="844" y="267" width="14" height="7" fill="#FF0000" stroke="#FF0000" stroke-width="2.00"/>
</g>
<path shape-type="chord" d="M 862,275 A 12,25 0 0,0 843,275 z" fill="#FF0000" stroke="#FF0000" stroke-width="1.00"/>
<rect shape-type="rectangle" x="824" y="207" width="82" height="41" fill="none" stroke="#FFFFFF" stroke-width="2.00"/>
<text font-family="宋体" text-anchor="start" fill="#FFFFFF" shape-type="text" id="" font-size="8.000000" font-weight="bold" x="836" y="220">FIC82107</text>
<text font-family="宋体" text-anchor="start" fill="#00FF00" shape-type="text" id="" font-size="8.000000" font-weight="bold" x="875" y="239">Nm3/h</text>
<text font-family="Arial" text-anchor="start" fill="#00FFFF" shape-type="realdata" id="HCAB_ZQ_QH_FIC82107" font-size="11.000000" x="829" y="240">XXXX</text>
<g shape-type="group">
<g shape-type="group">
<polygon shape-type="trapezium" points="778,156 778,166 785,161 785,161 778,156" fill="#FF0000" stroke="#FF0000" stroke-width="1.00"/>
<polygon shape-type="trapezium" points="793,156 793,166 784,161 784,161 793,156" fill="#FF0000" stroke="#FF0000" stroke-width="1.00"/>
</g>
<line shape-type="limitline" x1="784" y1="151" x2="783" y2="157" fill="#FF0000" stroke="#FF0000" stroke-width="1.00"/>
<polygon shape-type="trapezium" points="788,154 782,154 785,161 785,161 788,154" fill="#FF0000" stroke="#FF0000" stroke-width="1.00"/>
<rect shape-type="rectangle" x="778" y="147" width="15" height="7" fill="#FF0000" stroke="#FF0000" stroke-width="2.00"/>
</g>
<path shape-type="chord" d="M 796,155 A 12,25 0 0,0 777,155 z" fill="#FF0000" stroke="#FF0000" stroke-width="1.00"/>
<g shape-type="group">
<g shape-type="group">
<polygon shape-type="trapezium" points="836,491 836,500 844,496 844,496 836,491" fill="#FF0000" stroke="#FF0000" stroke-width="1.00"/>
<polygon shape-type="trapezium" points="851,491 851,500 843,496 843,496 851,491" fill="#FF0000" stroke="#FF0000" stroke-width="1.00"/>
</g>
<line shape-type="limitline" x1="843" y1="485" x2="842" y2="492" fill="#FF0000" stroke="#FF0000" stroke-width="1.00"/>
<polygon shape-type="trapezium" points="846,489 841,489 844,496 844,496 846,489" fill="#FF0000" stroke="#FF0000" stroke-width="1.00"/>
<rect shape-type="rectangle" x="836" y="481" width="15" height="8" fill="#FF0000" stroke="#FF0000" stroke-width="2.00"/>
</g>
<path shape-type="chord" d="M 854,489 A 12,25 0 0,0 835,489 z" fill="#FF0000" stroke="#FF0000" stroke-width="1.00"/>
<g shape-type="group">
<g shape-type="group">
<polygon shape-type="trapezium" points="154,226 154,235 161,231 161,231 154,226" fill="#FF0000" stroke="#FF0000" stroke-width="1.00"/>
<polygon shape-type="trapezium" points="169,226 169,235 160,231 160,231 169,226" fill="#FF0000" stroke="#FF0000" stroke-width="1.00"/>
</g>
<line shape-type="limitline" x1="160" y1="221" x2="159" y2="227" fill="#FF0000" stroke="#FF0000" stroke-width="1.00"/>
<polygon shape-type="trapezium" points="164,224 158,224 161,231 161,231 164,224" fill="#FF0000" stroke="#FF0000" stroke-width="1.00"/>
<rect shape-type="rectangle" x="154" y="217" width="15" height="7" fill="#FF0000" stroke="#FF0000" stroke-width="2.00"/>
</g>
<path shape-type="chord" d="M 172,225 A 12,25 0 0,0 153,225 z" fill="#FF0000" stroke="#FF0000" stroke-width="1.00"/>
<g shape-type="group">
<g shape-type="group">
<polygon shape-type="trapezium" points="223,477 223,486 230,482 230,482 223,477" fill="#FF0000" stroke="#FF0000" stroke-width="1.00"/>
<polygon shape-type="trapezium" points="237,477 237,486 229,482 229,482 237,477" fill="#FF0000" stroke="#FF0000" stroke-width="1.00"/>
</g>
<line shape-type="limitline" x1="229" y1="472" x2="228" y2="478" fill="#FF0000" stroke="#FF0000" stroke-width="1.00"/>
<polygon shape-type="trapezium" points="232,475 227,475 230,482 230,482 232,475" fill="#FF0000" stroke="#FF0000" stroke-width="1.00"/>
<rect shape-type="rectangle" x="223" y="468" width="14" height="7" fill="#FF0000" stroke="#FF0000" stroke-width="2.00"/>
</g>
<path shape-type="chord" d="M 241,476 A 12,25 0 0,0 222,476 z" fill="#FF0000" stroke="#FF0000" stroke-width="1.00"/>
</svg>
