<svg xmlns="http://www.w3.org/2000/svg" xmlns:xlink="http://www.w3.org/1999/xlink" version="1.1" style="background-color:#7DB6C1" width="1062" height="669" viewbox="0 0 1062 669"><defs>
<radialGradient cx="50.000000%" cy="50.000000%" r="50.000000%" fx="50.000000%" fy="50.000000%" id="rgradient24_0_0">
<stop offset="0%" stop-color="#FFFFFF" stop-opacity="1"/>
<stop offset="100%" stop-color="#2C2C2C" stop-opacity="1"/>
</radialGradient>
<linearGradient x1="50.000000%" y1="0.000000%" x2="50.000000%" y2="100.000000%" id="lgradient24_0_2">
<stop offset="0" stop-color="#2C2C2C" stop-opacity="1"/>
<stop offset="0.5" stop-color="#FFFFFF" stop-opacity="1"/>
<stop offset="1" stop-color="#2C2C2C" stop-opacity="1"/>
</linearGradient>
<linearGradient x1="50.000000%" y1="0.000000%" x2="50.000000%" y2="100.000000%" id="lgradient24_1">
<stop offset="0" stop-color="#2C2C2C" stop-opacity="1"/>
<stop offset="0.5" stop-color="#FFFFFF" stop-opacity="1"/>
<stop offset="1" stop-color="#2C2C2C" stop-opacity="1"/>
</linearGradient>
<radialGradient cx="50.000000%" cy="50.000000%" r="50.000000%" fx="50.000000%" fy="50.000000%" id="rgradient25_0_0">
<stop offset="0%" stop-color="#808080" stop-opacity="1"/>
<stop offset="100%" stop-color="#161616" stop-opacity="1"/>
</radialGradient>
<radialGradient cx="50.000000%" cy="50.000000%" r="50.000000%" fx="50.000000%" fy="50.000000%" id="rgradient25_0_2">
<stop offset="0%" stop-color="#808080" stop-opacity="1"/>
<stop offset="100%" stop-color="#161616" stop-opacity="1"/>
</radialGradient>
<linearGradient x1="50.000000%" y1="0.000000%" x2="50.000000%" y2="100.000000%" id="lgradient25_0_3">
<stop offset="0" stop-color="#161616" stop-opacity="1"/>
<stop offset="0.5" stop-color="#808080" stop-opacity="1"/>
<stop offset="1" stop-color="#161616" stop-opacity="1"/>
</linearGradient>
<linearGradient x1="0.000000%" y1="50.000000%" x2="100.000000%" y2="50.000000%" id="lgradient25_1">
<stop offset="0" stop-color="#2C2C2C" stop-opacity="1"/>
<stop offset="0.5" stop-color="#FFFFFF" stop-opacity="1"/>
<stop offset="1" stop-color="#2C2C2C" stop-opacity="1"/>
</linearGradient>
<linearGradient x1="50.000000%" y1="0.000000%" x2="50.000000%" y2="100.000000%" id="lgradient27_0">
<stop offset="0" stop-color="#161616" stop-opacity="1"/>
<stop offset="0.5" stop-color="#808080" stop-opacity="1"/>
<stop offset="1" stop-color="#161616" stop-opacity="1"/>
</linearGradient>
<linearGradient x1="50.000000%" y1="0.000000%" x2="50.000000%" y2="100.000000%" id="lgradient27_1">
<stop offset="0" stop-color="#161616" stop-opacity="1"/>
<stop offset="0.5" stop-color="#808080" stop-opacity="1"/>
<stop offset="1" stop-color="#161616" stop-opacity="1"/>
</linearGradient>
<linearGradient x1="50.000000%" y1="0.000000%" x2="50.000000%" y2="100.000000%" id="lgradient27_3">
<stop offset="0" stop-color="#212121" stop-opacity="1"/>
<stop offset="0.5" stop-color="#C0C0C0" stop-opacity="1"/>
<stop offset="1" stop-color="#212121" stop-opacity="1"/>
</linearGradient>
<linearGradient x1="50.000000%" y1="0.000000%" x2="50.000000%" y2="100.000000%" id="lgradient27_4_0">
<stop offset="0" stop-color="#212121" stop-opacity="1"/>
<stop offset="0.5" stop-color="#C0C0C0" stop-opacity="1"/>
<stop offset="1" stop-color="#212121" stop-opacity="1"/>
</linearGradient>
<linearGradient x1="0.000000%" y1="50.000000%" x2="100.000000%" y2="50.000000%" id="lgradient30">
<stop offset="0" stop-color="#2C2C2C" stop-opacity="1"/>
<stop offset="0.5" stop-color="#FFFFFF" stop-opacity="1"/>
<stop offset="1" stop-color="#2C2C2C" stop-opacity="1"/>
</linearGradient>
<linearGradient x1="0.000000%" y1="50.000000%" x2="100.000000%" y2="50.000000%" id="lgradient31">
<stop offset="0" stop-color="#2C2C2C" stop-opacity="1"/>
<stop offset="0.5" stop-color="#FFFFFF" stop-opacity="1"/>
<stop offset="1" stop-color="#2C2C2C" stop-opacity="1"/>
</linearGradient>
<radialGradient cx="50.000000%" cy="50.000000%" r="50.000000%" fx="50.000000%" fy="50.000000%" id="rgradient32">
<stop offset="0%" stop-color="#FFFFFF" stop-opacity="1"/>
<stop offset="100%" stop-color="#2C2C2C" stop-opacity="1"/>
</radialGradient>
<radialGradient cx="50.000000%" cy="50.000000%" r="50.000000%" fx="50.000000%" fy="50.000000%" id="rgradient33">
<stop offset="0%" stop-color="#FFFFFF" stop-opacity="1"/>
<stop offset="100%" stop-color="#2C2C2C" stop-opacity="1"/>
</radialGradient>
<pattern id="BRH_HORIZONTAL34" patternUnits="userSpaceOnUse" x="0" y="0" width="10" height="10"><line x1="0" y1="5" x2="10" y2="5" stroke="#C0C0C0" stroke-width="0.5"/></pattern>
<pattern id="BRH_DIAGCROSS35" patternUnits="userSpaceOnUse" x="0" y="0" width="10" height="10"><line x1="0" y1="0" x2="10" y2="10" stroke="#C0C0C0" stroke-width="0.5"/><line x1="0" y1="10" x2="10" y2="0" stroke="#C0C0C0" stroke-width="0.5"/></pattern>
<linearGradient x1="50.000000%" y1="0.000000%" x2="50.000000%" y2="100.000000%" id="lgradient46_0">
<stop offset="0" stop-color="#161616" stop-opacity="1"/>
<stop offset="0.5" stop-color="#808080" stop-opacity="1"/>
<stop offset="1" stop-color="#161616" stop-opacity="1"/>
</linearGradient>
<linearGradient x1="50.000000%" y1="0.000000%" x2="50.000000%" y2="100.000000%" id="lgradient46_1">
<stop offset="0" stop-color="#161616" stop-opacity="1"/>
<stop offset="0.5" stop-color="#808080" stop-opacity="1"/>
<stop offset="1" stop-color="#161616" stop-opacity="1"/>
</linearGradient>
<linearGradient x1="50.000000%" y1="0.000000%" x2="50.000000%" y2="100.000000%" id="lgradient46_3">
<stop offset="0" stop-color="#212121" stop-opacity="1"/>
<stop offset="0.5" stop-color="#C0C0C0" stop-opacity="1"/>
<stop offset="1" stop-color="#212121" stop-opacity="1"/>
</linearGradient>
<linearGradient x1="50.000000%" y1="0.000000%" x2="50.000000%" y2="100.000000%" id="lgradient46_4_0">
<stop offset="0" stop-color="#212121" stop-opacity="1"/>
<stop offset="0.5" stop-color="#C0C0C0" stop-opacity="1"/>
<stop offset="1" stop-color="#212121" stop-opacity="1"/>
</linearGradient>
<radialGradient cx="50.000000%" cy="50.000000%" r="50.000000%" fx="50.000000%" fy="50.000000%" id="rgradient53_0">
<stop offset="0%" stop-color="#FFFFFF" stop-opacity="1"/>
<stop offset="100%" stop-color="#2C2C2C" stop-opacity="1"/>
</radialGradient>
<radialGradient cx="50.000000%" cy="50.000000%" r="50.000000%" fx="50.000000%" fy="50.000000%" id="rgradient53_2">
<stop offset="0%" stop-color="#FFFFFF" stop-opacity="1"/>
<stop offset="100%" stop-color="#2C2C2C" stop-opacity="1"/>
</radialGradient>
<linearGradient x1="0.000000%" y1="50.000000%" x2="100.000000%" y2="50.000000%" id="lgradient53_3">
<stop offset="0" stop-color="#2C2C2C" stop-opacity="1"/>
<stop offset="0.5" stop-color="#FFFFFF" stop-opacity="1"/>
<stop offset="1" stop-color="#2C2C2C" stop-opacity="1"/>
</linearGradient>
<linearGradient x1="0.000000%" y1="50.000000%" x2="100.000000%" y2="50.000000%" id="lgradient73_3">
<stop offset="0" stop-color="#2C2C2C" stop-opacity="1"/>
<stop offset="0.5" stop-color="#FFFFFF" stop-opacity="1"/>
<stop offset="1" stop-color="#2C2C2C" stop-opacity="1"/>
</linearGradient>
<linearGradient x1="0.000000%" y1="50.000000%" x2="100.000000%" y2="50.000000%" id="lgradient73_4">
<stop offset="0" stop-color="#2C2C2C" stop-opacity="1"/>
<stop offset="0.5" stop-color="#FFFFFF" stop-opacity="1"/>
<stop offset="1" stop-color="#2C2C2C" stop-opacity="1"/>
</linearGradient>
<linearGradient x1="0.000000%" y1="50.000000%" x2="100.000000%" y2="50.000000%" id="lgradient74_3">
<stop offset="0" stop-color="#2C2C2C" stop-opacity="1"/>
<stop offset="0.5" stop-color="#FFFFFF" stop-opacity="1"/>
<stop offset="1" stop-color="#2C2C2C" stop-opacity="1"/>
</linearGradient>
<linearGradient x1="0.000000%" y1="50.000000%" x2="100.000000%" y2="50.000000%" id="lgradient74_4">
<stop offset="0" stop-color="#2C2C2C" stop-opacity="1"/>
<stop offset="0.5" stop-color="#FFFFFF" stop-opacity="1"/>
<stop offset="1" stop-color="#2C2C2C" stop-opacity="1"/>
</linearGradient>
<linearGradient x1="0.000000%" y1="50.000000%" x2="100.000000%" y2="50.000000%" id="lgradient75_3">
<stop offset="0" stop-color="#2C2C2C" stop-opacity="1"/>
<stop offset="0.5" stop-color="#FFFFFF" stop-opacity="1"/>
<stop offset="1" stop-color="#2C2C2C" stop-opacity="1"/>
</linearGradient>
<linearGradient x1="0.000000%" y1="50.000000%" x2="100.000000%" y2="50.000000%" id="lgradient75_4">
<stop offset="0" stop-color="#2C2C2C" stop-opacity="1"/>
<stop offset="0.5" stop-color="#FFFFFF" stop-opacity="1"/>
<stop offset="1" stop-color="#2C2C2C" stop-opacity="1"/>
</linearGradient>
<linearGradient x1="0.000000%" y1="50.000000%" x2="100.000000%" y2="50.000000%" id="lgradient76_3">
<stop offset="0" stop-color="#2C2C2C" stop-opacity="1"/>
<stop offset="0.5" stop-color="#FFFFFF" stop-opacity="1"/>
<stop offset="1" stop-color="#2C2C2C" stop-opacity="1"/>
</linearGradient>
<linearGradient x1="0.000000%" y1="50.000000%" x2="100.000000%" y2="50.000000%" id="lgradient76_4">
<stop offset="0" stop-color="#2C2C2C" stop-opacity="1"/>
<stop offset="0.5" stop-color="#FFFFFF" stop-opacity="1"/>
<stop offset="1" stop-color="#2C2C2C" stop-opacity="1"/>
</linearGradient>
<linearGradient x1="0.000000%" y1="50.000000%" x2="100.000000%" y2="50.000000%" id="lgradient77_3">
<stop offset="0" stop-color="#2C2C2C" stop-opacity="1"/>
<stop offset="0.5" stop-color="#FFFFFF" stop-opacity="1"/>
<stop offset="1" stop-color="#2C2C2C" stop-opacity="1"/>
</linearGradient>
<linearGradient x1="0.000000%" y1="50.000000%" x2="100.000000%" y2="50.000000%" id="lgradient77_4">
<stop offset="0" stop-color="#2C2C2C" stop-opacity="1"/>
<stop offset="0.5" stop-color="#FFFFFF" stop-opacity="1"/>
<stop offset="1" stop-color="#2C2C2C" stop-opacity="1"/>
</linearGradient>
</defs>
<line shape-type="limitline" x1="137" y1="302" x2="153" y2="302" fill="none" stroke="#000000" stroke-width="3.00"/>
<line shape-type="limitline" x1="490" y1="432" x2="490" y2="452" fill="none" stroke="#80FFFF" stroke-width="2.00"/>
<line shape-type="limitline" x1="586" y1="422" x2="586" y2="371" fill="none" stroke="#0000A0" stroke-width="2.00"/>
<line shape-type="limitline" x1="605" y1="424" x2="605" y2="439" fill="none" stroke="#0000A0" stroke-width="2.00"/>
<line shape-type="limitline" x1="473" y1="425" x2="473" y2="440" fill="none" stroke="#0000A0" stroke-width="2.00"/>
<line shape-type="limitline" x1="35" y1="477" x2="143" y2="477" fill="none" stroke="#000000" stroke-width="3.00"/>
<line shape-type="limitline" x1="421" y1="313" x2="421" y2="343" fill="none" stroke="#000000" stroke-width="3.00"/>
<line shape-type="limitline" x1="271" y1="284" x2="271" y2="314" fill="none" stroke="#000000" stroke-width="3.00"/>
<line shape-type="limitline" x1="153" y1="226" x2="153" y2="436" fill="none" stroke="#000000" stroke-width="3.00"/>
<line shape-type="limitline" x1="243" y1="205" x2="243" y2="281" fill="none" stroke="#000000" stroke-width="3.00"/>
<line shape-type="limitline" x1="369" y1="201" x2="369" y2="277" fill="none" stroke="#000000" stroke-width="3.00"/>
<line shape-type="limitline" x1="459" y1="204" x2="459" y2="334" fill="none" stroke="#000000" stroke-width="3.00"/>
<line shape-type="limitline" x1="191" y1="204" x2="191" y2="253" fill="none" stroke="#808000" stroke-width="3.00"/>
<line shape-type="limitline" x1="235" y1="81" x2="235" y2="155" fill="none" stroke="#808000" stroke-width="3.00"/>
<line shape-type="limitline" x1="158" y1="80" x2="158" y2="154" fill="none" stroke="#808000" stroke-width="3.00"/>
<line shape-type="limitline" x1="408" y1="204" x2="408" y2="253" fill="none" stroke="#808000" stroke-width="3.00"/>
<line shape-type="limitline" x1="452" y1="80" x2="452" y2="168" fill="none" stroke="#808000" stroke-width="3.00"/>
<line shape-type="limitline" x1="377" y1="80" x2="377" y2="153" fill="none" stroke="#808000" stroke-width="3.00"/>
<line shape-type="limitline" x1="627" y1="81" x2="627" y2="134" fill="none" stroke="#808000" stroke-width="3.00"/>
<line shape-type="limitline" x1="670" y1="80" x2="670" y2="133" fill="none" stroke="#808000" stroke-width="3.00"/>
<line shape-type="limitline" x1="754" y1="332" x2="754" y2="80" fill="none" stroke="#808000" stroke-width="3.00"/>
<line shape-type="limitline" x1="739" y1="355" x2="739" y2="332" fill="none" stroke="#808000" stroke-width="3.00"/>
<line shape-type="limitline" x1="777" y1="357" x2="777" y2="334" fill="none" stroke="#808000" stroke-width="3.00"/>
<g shape-type="group">
<g shape-type="group">
<ellipse shape-type="ellipse" cx="283" cy="286" rx="8" ry="8" fill="url(#rgradient24_0_0)" stroke="#000000" stroke-width="1.00"/>
<rect shape-type="roundRectangle" rx="20" ry="20" x="203" y="286" width="1" height="1" fill="#FFFFFF" stroke="#000000" stroke-width="1.00"/>
<rect shape-type="rectangle" x="219" y="278" width="64" height="16" fill="url(#lgradient24_0_2)" stroke="#000000" stroke-width="1.00"/>
</g>
<rect shape-type="rectangle" x="218" y="272" width="3" height="29" fill="url(#lgradient24_1)" stroke="#000000" stroke-width="1.00"/>
</g>
<g shape-type="group">
<g shape-type="group">
<ellipse shape-type="ellipse" cx="382" cy="346" rx="11" ry="13" fill="url(#rgradient25_0_0)" stroke="#000000" stroke-width="1.00"/>
<rect shape-type="roundRectangle" rx="20" ry="20" x="489" y="347" width="1" height="1" fill="#808080" stroke="#000000" stroke-width="1.00"/>
<ellipse shape-type="ellipse" cx="469" cy="346" rx="10" ry="13" fill="url(#rgradient25_0_2)" stroke="#000000" stroke-width="1.00"/>
<rect shape-type="rectangle" x="382" y="333" width="87" height="27" fill="url(#lgradient25_0_3)" stroke="#000000" stroke-width="1.00"/>
</g>
<rect shape-type="rectangle" x="394" y="359" width="18" height="24" fill="url(#lgradient25_1)" stroke="#000000" stroke-width="3.00"/>
<rect shape-type="rectangle" x="448" y="333" width="15" height="27" fill="#FFFFFF" stroke="#C0C0C0" stroke-width="3.00"/>
</g>
<g shape-type="group">
<rect shape-type="rectangle" x="490" y="458" width="98" height="8" fill="#C0C0C0" stroke="#0000FF" stroke-width="1.00"/>
<g shape-type="group">
<rect shape-type="rectangle" x="486" y="446" width="6" height="35" fill="#C0C0C0" stroke="#0000FF" stroke-width="1.00"/>
<rect shape-type="rectangle" x="448" y="437" width="6" height="55" fill="#C0C0C0" stroke="#0000FF" stroke-width="1.00"/>
<rect shape-type="rectangle" x="470" y="437" width="5" height="55" fill="#C0C0C0" stroke="#0000FF" stroke-width="1.00"/>
<rect shape-type="rectangle" x="439" y="441" width="48" height="45" fill="#C0C0C0" stroke="#0000FF" stroke-width="1.00"/>
</g>
<g shape-type="group">
<rect shape-type="rectangle" x="585" y="446" width="4" height="33" fill="#C0C0C0" stroke="#0000FF" stroke-width="1.00"/>
<rect shape-type="rectangle" x="624" y="437" width="7" height="53" fill="#C0C0C0" stroke="#0000FF" stroke-width="1.00"/>
<rect shape-type="rectangle" x="601" y="437" width="6" height="53" fill="#C0C0C0" stroke="#0000FF" stroke-width="1.00"/>
<rect shape-type="rectangle" x="588" y="441" width="55" height="44" fill="#C0C0C0" stroke="#0000FF" stroke-width="1.00"/>
</g>
</g>
<g shape-type="group">
<rect shape-type="rectangle" x="554" y="138" width="137" height="8" fill="url(#lgradient27_0)" stroke="#000000" stroke-width="1.00"/>
<rect shape-type="rectangle" x="83" y="177" width="476" height="10" fill="url(#lgradient27_1)" stroke="#000000" stroke-width="1.00"/>
<polygon shape-type="trapezium" points="469,116 469,240 355,209 355,147 469,116" fill="#008000" stroke="#000000" stroke-width="1.00"/>
<rect shape-type="rectangle" x="535" y="121" width="24" height="71" fill="url(#lgradient27_3)" stroke="#000000" stroke-width="1.00"/>
<g shape-type="group">
<rect shape-type="rectangle" x="622" y="96" width="52" height="83" fill="url(#lgradient27_4_0)" stroke="#000000" stroke-width="1.00"/>
<rect shape-type="rectangle" x="616" y="96" width="4" height="83" fill="#808080" stroke="#000000" stroke-width="1.00"/>
<rect shape-type="rectangle" x="613" y="112" width="3" height="56" fill="#FFFFFF" stroke="#000000" stroke-width="1.00"/>
<rect shape-type="rectangle" x="609" y="122" width="4" height="35" fill="#FFFFFF" stroke="#000000" stroke-width="1.00"/>
<rect shape-type="rectangle" x="605" y="129" width="6" height="21" fill="#FFFFFF" stroke="#000000" stroke-width="1.00"/>
</g>
<path shape-type="chord" d="M 674,169 A 19,52 0 1,0 676,98 z" fill="#C0C0C0" stroke="#000000" stroke-width="1.00"/>
<g shape-type="group">
<rect shape-type="rectangle" x="692" y="116" width="4" height="48" fill="#808080" stroke="#000000" stroke-width="1.00"/>
<rect shape-type="rectangle" x="689" y="125" width="3" height="31" fill="#808080" stroke="#000000" stroke-width="1.00"/>
</g>
<polygon shape-type="trapezium" points="134,116 134,238 248,207 248,147 134,116" fill="#008000" stroke="#000000" stroke-width="1.00"/>
</g>
<rect shape-type="rectangle" x="43" y="21" width="90" height="60" fill="#408080" stroke="#000000" stroke-width="1.00"/>
<line shape-type="limitline" x1="813" y1="435" x2="695" y2="435" fill="#00FFFF" stroke="#000000" stroke-width="5.00"/>
<polygon shape-type="trapezium" points="747,374 726,374 732,344 742,344 747,374" fill="url(#lgradient30)" stroke="#000000" stroke-width="1.00"/>
<polygon shape-type="trapezium" points="786,374 765,374 771,344 781,344 786,374" fill="url(#lgradient31)" stroke="#000000" stroke-width="1.00"/>
<ellipse shape-type="ellipse" cx="776" cy="345" rx="6" ry="5" fill="url(#rgradient32)" stroke="#000000" stroke-width="1.00"/>
<ellipse shape-type="ellipse" cx="737" cy="346" rx="6" ry="5" fill="url(#rgradient33)" stroke="#000000" stroke-width="1.00"/>
<ellipse shape-type="ellipse" cx="754" cy="300" rx="13" ry="14" fill="url(#BRH_HORIZONTAL34)" stroke="#000000" stroke-width="1.00"/>
<ellipse shape-type="ellipse" cx="753" cy="260" rx="13" ry="14" fill="url(#BRH_DIAGCROSS35)" stroke="#0000FF" stroke-width="1.00"/>
<line shape-type="limitline" x1="688" y1="407" x2="821" y2="407" fill="none" stroke="#808000" stroke-width="3.00"/>
<line shape-type="limitline" x1="686" y1="254" x2="190" y2="254" fill="none" stroke="#808000" stroke-width="3.00"/>
<line shape-type="limitline" x1="687" y1="254" x2="687" y2="407" fill="none" stroke="#808000" stroke-width="3.00"/>
<line shape-type="limitline" x1="739" y1="333" x2="777" y2="333" fill="none" stroke="#808000" stroke-width="3.00"/>
<line shape-type="limitline" x1="754" y1="321" x2="811" y2="321" fill="none" stroke="#808000" stroke-width="3.00"/>
<line shape-type="limitline" x1="772" y1="388" x2="810" y2="388" fill="none" stroke="#808000" stroke-width="3.00"/>
<line shape-type="limitline" x1="812" y1="388" x2="812" y2="320" fill="none" stroke="#808000" stroke-width="3.00"/>
<line shape-type="limitline" x1="823" y1="407" x2="823" y2="52" fill="none" stroke="#808000" stroke-width="3.00"/>
<line shape-type="limitline" x1="823" y1="53" x2="134" y2="53" fill="none" stroke="#808000" stroke-width="3.00"/>
<line shape-type="limitline" x1="753" y1="80" x2="159" y2="80" fill="none" stroke="#808000" stroke-width="3.00"/>
<g shape-type="group">
<rect shape-type="rectangle" x="554" y="138" width="137" height="8" fill="url(#lgradient46_0)" stroke="#000000" stroke-width="1.00"/>
<rect shape-type="rectangle" x="83" y="177" width="476" height="10" fill="url(#lgradient46_1)" stroke="#000000" stroke-width="1.00"/>
<polygon shape-type="trapezium" points="469,116 469,240 355,209 355,147 469,116" fill="#008000" stroke="#000000" stroke-width="1.00"/>
<rect shape-type="rectangle" x="535" y="121" width="24" height="71" fill="url(#lgradient46_3)" stroke="#000000" stroke-width="1.00"/>
<g shape-type="group">
<rect shape-type="rectangle" x="622" y="96" width="52" height="83" fill="url(#lgradient46_4_0)" stroke="#000000" stroke-width="1.00"/>
<rect shape-type="rectangle" x="616" y="96" width="4" height="83" fill="#808080" stroke="#000000" stroke-width="1.00"/>
<rect shape-type="rectangle" x="613" y="112" width="3" height="56" fill="#FFFFFF" stroke="#000000" stroke-width="1.00"/>
<rect shape-type="rectangle" x="609" y="122" width="4" height="35" fill="#FFFFFF" stroke="#000000" stroke-width="1.00"/>
<rect shape-type="rectangle" x="605" y="129" width="6" height="21" fill="#FFFFFF" stroke="#000000" stroke-width="1.00"/>
</g>
<path shape-type="chord" d="M 674,169 A 19,52 0 1,0 676,98 z" fill="#C0C0C0" stroke="#000000" stroke-width="1.00"/>
<g shape-type="group">
<rect shape-type="rectangle" x="692" y="116" width="4" height="48" fill="#808080" stroke="#000000" stroke-width="1.00"/>
<rect shape-type="rectangle" x="689" y="125" width="3" height="31" fill="#808080" stroke="#000000" stroke-width="1.00"/>
</g>
<polygon shape-type="trapezium" points="134,116 134,238 248,207 248,147 134,116" fill="#008000" stroke="#000000" stroke-width="1.00"/>
</g>
<line shape-type="limitline" x1="753" y1="80" x2="159" y2="80" fill="none" stroke="#808000" stroke-width="3.00"/>
<line shape-type="limitline" x1="368" y1="277" x2="630" y2="277" fill="none" stroke="#000000" stroke-width="3.00"/>
<line shape-type="limitline" x1="269" y1="314" x2="421" y2="314" fill="none" stroke="#000000" stroke-width="3.00"/>
<line shape-type="limitline" x1="153" y1="269" x2="35" y2="269" fill="none" stroke="#000000" stroke-width="3.00"/>
<line shape-type="limitline" x1="369" y1="333" x2="37" y2="333" fill="none" stroke="#0080C0" stroke-width="2.00"/>
<line shape-type="limitline" x1="369" y1="277" x2="369" y2="333" fill="none" stroke="#0080C0" stroke-width="2.00"/>
<g shape-type="group">
<ellipse shape-type="ellipse" cx="152" cy="439" rx="17" ry="8" fill="url(#rgradient53_0)" stroke="#000000" stroke-width="1.00"/>
<rect shape-type="roundRectangle" rx="20" ry="20" x="151" y="521" width="1" height="2" fill="#00FFFF" stroke="#000000" stroke-width="1.00"/>
<ellipse shape-type="ellipse" cx="153" cy="506" rx="18" ry="8" fill="url(#rgradient53_2)" stroke="#000000" stroke-width="1.00"/>
<rect shape-type="rectangle" x="135" y="439" width="36" height="67" fill="url(#lgradient53_3)" stroke="#000000" stroke-width="1.00"/>
</g>
<line shape-type="limitline" x1="153" y1="407" x2="416" y2="407" fill="none" stroke="#0000A0" stroke-width="2.00"/>
<line shape-type="limitline" x1="290" y1="431" x2="367" y2="431" fill="none" stroke="#0000A0" stroke-width="2.00"/>
<line shape-type="limitline" x1="290" y1="407" x2="290" y2="431" fill="none" stroke="#0000A0" stroke-width="2.00"/>
<line shape-type="limitline" x1="367" y1="407" x2="367" y2="431" fill="none" stroke="#0000A0" stroke-width="2.00"/>
<line shape-type="limitline" x1="473" y1="424" x2="605" y2="424" fill="none" stroke="#0000A0" stroke-width="2.00"/>
<line shape-type="limitline" x1="454" y1="372" x2="586" y2="372" fill="none" stroke="#0000A0" stroke-width="2.00"/>
<line shape-type="limitline" x1="536" y1="372" x2="536" y2="424" fill="none" stroke="#0000A0" stroke-width="2.00"/>
<line shape-type="limitline" x1="586" y1="424" x2="586" y2="450" fill="none" stroke="#80FFFF" stroke-width="2.00"/>
<line shape-type="limitline" x1="568" y1="434" x2="568" y2="486" fill="none" stroke="#80FFFF" stroke-width="2.00"/>
<line shape-type="limitline" x1="508" y1="432" x2="508" y2="485" fill="none" stroke="#80FFFF" stroke-width="2.00"/>
<line shape-type="limitline" x1="490" y1="432" x2="507" y2="432" fill="none" stroke="#80FFFF" stroke-width="2.00"/>
<line shape-type="limitline" x1="570" y1="434" x2="587" y2="434" fill="none" stroke="#80FFFF" stroke-width="2.00"/>
<line shape-type="limitline" x1="569" y1="434" x2="586" y2="434" fill="none" stroke="#80FFFF" stroke-width="2.00"/>
<line shape-type="limitline" x1="509" y1="486" x2="567" y2="486" fill="none" stroke="#80FFFF" stroke-width="2.00"/>
<line shape-type="limitline" x1="538" y1="485" x2="538" y2="500" fill="none" stroke="#80FFFF" stroke-width="2.00"/>
<line shape-type="limitline" x1="539" y1="501" x2="377" y2="501" fill="none" stroke="#80FFFF" stroke-width="2.00"/>
<line shape-type="limitline" x1="452" y1="491" x2="452" y2="515" fill="none" stroke="#0000A0" stroke-width="2.00"/>
<line shape-type="limitline" x1="627" y1="515" x2="379" y2="515" fill="none" stroke="#0000A0" stroke-width="2.00"/>
<line shape-type="limitline" x1="627" y1="490" x2="627" y2="514" fill="none" stroke="#0000A0" stroke-width="2.00"/>
<g shape-type="group">
<path shape-type="pie" d="M 510,362 A 9,6 0 0,0 493,362 L 502,362 z" fill="#FF0000" stroke="#000000" stroke-width="1.00"/>
<line shape-type="limitline" x1="500" y1="363" x2="498" y2="368" fill="#00FF40" stroke="#000000" stroke-width="1.00"/>
<line shape-type="limitline" x1="505" y1="363" x2="502" y2="368" fill="#00FF40" stroke="#000000" stroke-width="1.00"/>
<polygon shape-type="trapezium" points="492,366 492,376 502,371 502,371 492,366" fill="url(#lgradient73_3)" stroke="#000000" stroke-width="1.00"/>
<polygon shape-type="trapezium" points="515,376 515,367 502,371 502,371 515,376" fill="url(#lgradient73_4)" stroke="#000000" stroke-width="1.00"/>
<rect shape-type="rectangle" x="493" y="362" width="18" height="2" fill="#FFFFFF" stroke="#000000" stroke-width="2.00"/>
</g>
<g shape-type="group">
<path shape-type="pie" d="M 333,398 A 8,6 0 0,0 317,398 L 326,397 z" fill="#FF0000" stroke="#000000" stroke-width="1.00"/>
<line shape-type="limitline" x1="324" y1="398" x2="322" y2="404" fill="#00FF40" stroke="#000000" stroke-width="1.00"/>
<line shape-type="limitline" x1="329" y1="398" x2="326" y2="404" fill="#00FF40" stroke="#000000" stroke-width="1.00"/>
<polygon shape-type="trapezium" points="316,401 316,412 326,407 326,407 316,401" fill="url(#lgradient74_3)" stroke="#000000" stroke-width="1.00"/>
<polygon shape-type="trapezium" points="339,412 339,402 326,407 326,407 339,412" fill="url(#lgradient74_4)" stroke="#000000" stroke-width="1.00"/>
<rect shape-type="rectangle" x="317" y="397" width="17" height="2" fill="#FFFFFF" stroke="#000000" stroke-width="2.00"/>
</g>
<g shape-type="group">
<path shape-type="pie" d="M 317,440 A 8,7 0 0,0 333,440 L 326,440 z" fill="#FF0000" stroke="#000000" stroke-width="1.00"/>
<line shape-type="limitline" x1="324" y1="439" x2="322" y2="433" fill="#00FF40" stroke="#000000" stroke-width="1.00"/>
<line shape-type="limitline" x1="329" y1="439" x2="326" y2="433" fill="#00FF40" stroke="#000000" stroke-width="1.00"/>
<polygon shape-type="trapezium" points="316,436 316,427 326,431 326,431 316,436" fill="url(#lgradient75_3)" stroke="#000000" stroke-width="1.00"/>
<polygon shape-type="trapezium" points="339,427 339,435 326,431 326,431 339,427" fill="url(#lgradient75_4)" stroke="#000000" stroke-width="1.00"/>
<rect shape-type="rectangle" x="317" y="439" width="17" height="1" fill="#FFFFFF" stroke="#000000" stroke-width="2.00"/>
</g>
<g shape-type="group">
<path shape-type="pie" d="M 797,312 A 9,6 0 0,0 780,312 L 789,311 z" fill="#FF0000" stroke="#000000" stroke-width="1.00"/>
<line shape-type="limitline" x1="787" y1="311" x2="785" y2="318" fill="#00FF40" stroke="#000000" stroke-width="1.00"/>
<line shape-type="limitline" x1="792" y1="311" x2="789" y2="318" fill="#00FF40" stroke="#000000" stroke-width="1.00"/>
<polygon shape-type="trapezium" points="779,316 779,326 789,321 789,321 779,316" fill="url(#lgradient76_3)" stroke="#000000" stroke-width="1.00"/>
<polygon shape-type="trapezium" points="802,326 802,316 789,321 789,321 802,326" fill="url(#lgradient76_4)" stroke="#000000" stroke-width="1.00"/>
<rect shape-type="rectangle" x="780" y="310" width="18" height="3" fill="#FFFFFF" stroke="#000000" stroke-width="2.00"/>
</g>
<g shape-type="group">
<path shape-type="pie" d="M 719,70 A 8,6 0 0,0 703,70 L 711,70 z" fill="#FF0000" stroke="#000000" stroke-width="1.00"/>
<line shape-type="limitline" x1="710" y1="70" x2="708" y2="76" fill="#00FF40" stroke="#000000" stroke-width="1.00"/>
<line shape-type="limitline" x1="715" y1="70" x2="712" y2="76" fill="#00FF40" stroke="#000000" stroke-width="1.00"/>
<polygon shape-type="trapezium" points="701,73 701,84 712,79 712,79 701,73" fill="url(#lgradient77_3)" stroke="#000000" stroke-width="1.00"/>
<polygon shape-type="trapezium" points="724,84 724,74 712,79 712,79 724,84" fill="url(#lgradient77_4)" stroke="#000000" stroke-width="1.00"/>
<rect shape-type="rectangle" x="703" y="69" width="17" height="3" fill="#FFFFFF" stroke="#000000" stroke-width="2.00"/>
</g>
<g shape-type="group">
<polygon shape-type="trapezium" points="158,290 145,290 152,301 152,301 158,290" fill="#804040" stroke="#000000" stroke-width="1.00"/>
<polygon shape-type="trapezium" points="145,314 158,314 151,302 151,302 145,314" fill="#804040" stroke="#000000" stroke-width="1.00"/>
</g>
<polygon shape-type="trapezium" points="65,340 65,326 52,333 52,333 65,340" stroke="#000000" stroke-width="1.00"/>
<polygon shape-type="trapezium" points="49,276 49,262 62,269 62,269 49,276" stroke="#000000" stroke-width="1.00"/>
<polygon shape-type="trapezium" points="50,483 50,469 63,476 63,476 50,483" stroke="#000000" stroke-width="1.00"/>
<polygon shape-type="trapezium" points="249,259 236,259 243,271 243,271 249,259" stroke="#000000" stroke-width="1.00"/>
<polygon shape-type="trapezium" points="426,319 413,319 420,331 420,331 426,319" stroke="#000000" stroke-width="1.00"/>
<polygon shape-type="trapezium" points="147,247 160,247 153,235 153,235 147,247" stroke="#000000" stroke-width="1.00"/>
<polygon shape-type="trapezium" points="600,283 600,269 613,276 613,276 600,283" stroke="#000000" stroke-width="1.00"/>
<rect shape-type="rectangle" x="129" y="297" width="15" height="9" fill="#800000" stroke="#000000" stroke-width="1.00"/>
<rect shape-type="rectangle" x="712" y="374" width="90" height="61" fill="#808000" stroke="#000000" stroke-width="1.00"/>
<text font-family="宋体" text-anchor="start" fill="#FF0000" shape-type="text" id="" font-size="12.500000" font-weight="bold" x="51" y="54">高位油箱</text>
<text font-family="宋体" text-anchor="start" fill="#FF0000" shape-type="text" id="" font-size="12.500000" font-weight="bold" x="158" y="185">压缩机</text>
<text font-family="宋体" text-anchor="start" fill="#FF0000" shape-type="text" id="" font-size="12.500000" font-weight="bold" x="34" y="257">氮气</text>
<text font-family="宋体" text-anchor="start" fill="#FF0000" shape-type="text" id="" font-size="12.500000" font-weight="bold" x="34" y="324">反喘振线</text>
<text font-family="宋体" text-anchor="start" fill="#FF0000" shape-type="text" id="" font-size="12.500000" font-weight="bold" x="22" y="429">低选开关</text>
<text font-family="宋体" text-anchor="start" fill="#FF0000" shape-type="text" id="" font-size="12.500000" font-weight="bold" x="221" y="401">切换开关</text>
<text font-family="宋体" text-anchor="start" fill="#FF0000" shape-type="text" id="" font-size="12.500000" font-weight="bold" x="367" y="443">至装置外</text>
<text font-family="宋体" text-anchor="start" fill="#FF0000" shape-type="text" id="" font-size="12.500000" font-weight="bold" x="364" y="424">放火炬气体</text>
<text font-family="宋体" text-anchor="start" fill="#FF0000" shape-type="text" id="" font-size="12.500000" font-weight="bold" x="381" y="495">氮气</text>
<text font-family="宋体" text-anchor="start" fill="#FF0000" shape-type="text" id="" font-size="12.500000" font-weight="bold" x="379" y="513">出油</text>
<text font-family="宋体" text-anchor="start" fill="#FF0000" shape-type="text" id="" font-size="12.500000" font-weight="bold" x="726" y="459">润滑油箱</text>
<text font-family="宋体" text-anchor="start" fill="#FF0000" shape-type="text" id="" font-size="9.500000" font-weight="bold" x="620" y="145">电机状态</text>
<text font-family="宋体" text-anchor="start" fill="#FF0000" shape-type="text" id="" font-size="25.250000" font-weight="bold" x="275" y="36">气　压　机　系　统</text>
<text font-family="Arial" text-anchor="start" fill="#000000" shape-type="realdata" id="ZYLJ_VIA5111A" font-size="12.500000" x="-16" y="104">XXXXXXXXX</text>
<text font-family="Arial" text-anchor="start" fill="#000000" shape-type="realdata" id="ZYLJ_VIA5111B" font-size="12.500000" x="-19" y="130">XXXXXXXXX</text>
<text font-family="Arial" text-anchor="start" fill="#000000" shape-type="realdata" id="ZYLJ_TIA5195" font-size="12.500000" x="37" y="105">XXXXXXXXX</text>
<text font-family="Arial" text-anchor="start" fill="#000000" shape-type="realdata" id="ZYLJ_TIA5194" font-size="12.500000" x="34" y="129">XXXXXXXXX</text>
<text font-family="Arial" text-anchor="start" fill="#000000" shape-type="realdata" id="ZYLJ_TIA5193" font-size="12.500000" x="33" y="154">XXXXXXXXX</text>
<text font-family="Arial" text-anchor="start" fill="#000000" shape-type="realdata" id="ZYLJ_TIA5191" font-size="12.500000" x="34" y="206">XXXXXXXXX</text>
<text font-family="Arial" text-anchor="start" fill="#000000" shape-type="realdata" id="ZYLJ_TIA5190" font-size="12.500000" x="33" y="242">XXXXXXXXX</text>
<text font-family="Arial" text-anchor="start" fill="#000000" shape-type="realdata" id="ZYLJ_TIA5192" font-size="12.500000" x="-19" y="224">XXXXXXXXX</text>
<text font-family="Arial" text-anchor="start" fill="#000000" shape-type="realdata" id="ZYLJ_XISA5111" font-size="12.500000" x="-25" y="154">XXXXXXXXX</text>
<text font-family="Arial" text-anchor="start" fill="#000000" shape-type="realdata" id="ZYLJ_TI1801" font-size="12.500000" x="49" y="328">XXXXXXXXX</text>
<text font-family="Arial" text-anchor="start" fill="#000000" shape-type="realdata" id="ZYLJ_ZI1801" font-size="12.500000" x="49" y="310">XXXXXXXXX</text>
<text font-family="Arial" text-anchor="start" fill="#000000" shape-type="realdata" id="ZYLJ_PRC1201" font-size="12.500000" x="39" y="376">XXXXXXXXX</text>
<text font-family="Arial" text-anchor="start" fill="#000000" shape-type="realdata" id="ZYLJ_FIC1801" font-size="12.500000" x="44" y="416">XXXXXXXXX</text>
<text font-family="宋体" text-anchor="start" fill="#FF0000" shape-type="text" id="" font-size="12.500000" font-weight="bold" x="28" y="469">富气自V302</text>
<text font-family="Arial" text-anchor="start" fill="#000000" shape-type="realdata" id="ZYLJ_PRC1201" font-size="12.500000" x="203" y="350">XXXXXXXXX</text>
<text font-family="Arial" text-anchor="start" fill="#000000" shape-type="realdata" id="ZYLJ_PRC1201" font-size="12.500000" x="203" y="350">XXXXXXXXX</text>
<text font-family="Arial" text-anchor="start" fill="#000000" shape-type="realdata" id="ZYLJ_ZI1201D" font-size="12.500000" x="264" y="377">XXXXXXXXX</text>
<text font-family="Arial" text-anchor="start" fill="#000000" shape-type="realdata" id="ZYLJ_PRCA1801" font-size="12.500000" x="140" y="379">XXXXXXXXX</text>
<text font-family="Arial" text-anchor="start" fill="#000000" shape-type="realdata" id="ZYLJ_PRC1201" font-size="12.500000" x="275" y="472">XXXXXXXXX</text>
<text font-family="Arial" text-anchor="start" fill="#000000" shape-type="realdata" id="ZYLJ_PIA1904" font-size="12.500000" x="356" y="476">XXXXXXXXX</text>
<text font-family="Arial" text-anchor="start" fill="#000000" shape-type="realdata" id="ZYLJ_PIA5905" font-size="12.500000" x="509" y="502">XXXXXXXXX</text>
<text font-family="Arial" text-anchor="start" fill="#000000" shape-type="realdata" id="ZYLJ_FIA5901" font-size="12.500000" x="454" y="395">XXXXXXXXX</text>
<text font-family="Arial" text-anchor="start" fill="#000000" shape-type="realdata" id="ZYLJ_FIA5902" font-size="12.500000" x="513" y="396">XXXXXXXXX</text>
<text font-family="Arial" text-anchor="start" fill="#000000" shape-type="realdata" id="ZYLJ_PdICA5904" font-size="12.500000" x="516" y="364">XXXXXXXXX</text>
<text font-family="Arial" text-anchor="start" fill="#000000" shape-type="realdata" id="ZYLJ_TIA5331" font-size="12.500000" x="654" y="296">XXXXXXXXX</text>
<text font-family="Arial" text-anchor="start" fill="#000000" shape-type="realdata" id="ZYLJ_TIA5196" font-size="12.500000" x="248" y="208">XXXXXXXXX</text>
<text font-family="Arial" text-anchor="start" fill="#000000" shape-type="realdata" id="ZYLJ_TIA5197" font-size="12.500000" x="246" y="237">XXXXXXXXX</text>
<text font-family="Arial" text-anchor="start" fill="#000000" shape-type="realdata" id="ZYLJ_VIA5112A" font-size="12.500000" x="255" y="108">XXXXXXXXX</text>
<text font-family="Arial" text-anchor="start" fill="#000000" shape-type="realdata" id="ZYLJ_VIA5112B" font-size="12.500000" x="253" y="141">XXXXXXXXX</text>
<text font-family="Arial" text-anchor="start" fill="#000000" shape-type="realdata" id="ZYLJ_TI1802" font-size="12.500000" x="239" y="275">XXXXXXXXX</text>
<text font-family="Arial" text-anchor="start" fill="#000000" shape-type="realdata" id="ZYLJ_TI1803" font-size="12.500000" x="370" y="271">XXXXXXXXX</text>
<text font-family="Arial" text-anchor="start" fill="#000000" shape-type="realdata" id="ZYLJ_TI1804" font-size="12.500000" x="456" y="298">XXXXXXXXX</text>
<text font-family="Arial" text-anchor="start" fill="#000000" shape-type="realdata" id="ZYLJ_PR1802" font-size="12.500000" x="451" y="268">XXXXXXXXX</text>
<text font-family="宋体" text-anchor="start" fill="#FF0000" shape-type="text" id="" font-size="9.500000" font-weight="bold" x="608" y="269">压缩氮气</text>
<text font-family="Arial" text-anchor="start" fill="#000000" shape-type="realdata" id="ZYLJ_TIA5180A" font-size="12.500000" x="457" y="204">XXXXXXXXX</text>
<text font-family="Arial" text-anchor="start" fill="#000000" shape-type="realdata" id="ZYLJ_TIA5180B" font-size="12.500000" x="455" y="229">XXXXXXXXX</text>
<text font-family="Arial" text-anchor="start" fill="#000000" shape-type="realdata" id="ZYLJ_TIA5181B" font-size="12.500000" x="520" y="231">XXXXXXXXX</text>
<text font-family="Arial" text-anchor="start" fill="#000000" shape-type="realdata" id="ZYLJ_TIA5181A" font-size="12.500000" x="521" y="206">XXXXXXXXX</text>
<text font-family="Arial" text-anchor="start" fill="#000000" shape-type="realdata" id="ZYLJ_TIA5160" font-size="12.500000" x="577" y="205">XXXXXXXXX</text>
<text font-family="Arial" text-anchor="start" fill="#000000" shape-type="realdata" id="ZYLJ_TIA5161" font-size="12.500000" x="637" y="205">XXXXXXXXX</text>
<text font-family="Arial" text-anchor="start" fill="#000000" shape-type="realdata" id="ZYLJ_TIA5182A" font-size="12.500000" x="443" y="93">XXXXXXXXX</text>
<text font-family="Arial" text-anchor="start" fill="#000000" shape-type="realdata" id="ZYLJ_TIA5183A" font-size="12.500000" x="503" y="92">XXXXXXXXX</text>
<text font-family="Arial" text-anchor="start" fill="#000000" shape-type="realdata" id="ZYLJ_TIA5182B" font-size="12.500000" x="441" y="113">XXXXXXXXX</text>
<text font-family="Arial" text-anchor="start" fill="#000000" shape-type="realdata" id="ZYLJ_TIA5183B" font-size="12.500000" x="502" y="112">XXXXXXXXX</text>
<text font-family="Arial" text-anchor="start" fill="#000000" shape-type="realdata" id="ZYLJ_PISA5351" font-size="12.500000" x="549" y="68">XXXXXXXXX</text>
<text font-family="Arial" text-anchor="start" fill="#000000" shape-type="realdata" id="ZYLJ_PIC5341" font-size="12.500000" x="616" y="66">XXXXXXXXX</text>
<text font-family="Arial" text-anchor="start" fill="#000000" shape-type="realdata" id="ZYLJ_PIC5323" font-size="12.500000" x="735" y="92">XXXXXXXXX</text>
<text font-family="Arial" text-anchor="start" fill="#000000" shape-type="realdata" id="ZYLJ_TIA5170" font-size="12.500000" x="678" y="107">XXXXXXXXX</text>
<text font-family="Arial" text-anchor="start" fill="#000000" shape-type="realdata" id="ZYLJ_TIA5171" font-size="12.500000" x="677" y="130">XXXXXXXXX</text>
<text font-family="Arial" text-anchor="start" fill="#000000" shape-type="realdata" id="ZYLJ_TIA5172" font-size="12.500000" x="678" y="155">XXXXXXXXX</text>
<text font-family="Arial" text-anchor="start" fill="#000000" shape-type="realdata" id="ZYLJ_TIA5173" font-size="12.500000" x="677" y="180">XXXXXXXXX</text>
<text font-family="Arial" text-anchor="start" fill="#000000" shape-type="realdata" id="ZYLJ_TIA5174" font-size="12.500000" x="675" y="218">XXXXXXXXX</text>
<text font-family="Arial" text-anchor="start" fill="#000000" shape-type="realdata" id="ZYLJ_TIA5175" font-size="12.500000" x="674" y="245">XXXXXXXXX</text>
<text font-family="Arial" text-anchor="start" fill="#000000" shape-type="realdata" id="ZYLJ_FR1802" font-size="12.500000" x="145" y="321">XXXXXXXXX</text>
<a xlink:href="1.svg">
<g shape-type="button">
<rect fill="#C0C0C0" stroke-width="0.3" stroke="#FFFFFF" x="9" y="532" width="62" height="22" shape-type="buttonrect"/>
<text font-family="宋体" text-anchor="middle" dominant-baseline="middle" fill="#000000" font-size="12.000000" x="40" y="549" shape-type="buttontext">反应再生</text>
</g>
</a>
<a xlink:href="2.svg">
<g shape-type="button">
<rect fill="#C0C0C0" stroke-width="0.3" stroke="#FFFFFF" x="78" y="532" width="62" height="22" shape-type="buttonrect"/>
<text font-family="宋体" text-anchor="middle" dominant-baseline="middle" fill="#000000" font-size="12.000000" x="109" y="549" shape-type="buttontext">反应系统</text>
</g>
</a>
<a xlink:href="3.svg">
<g shape-type="button">
<rect fill="#C0C0C0" stroke-width="0.3" stroke="#FFFFFF" x="146" y="532" width="63" height="22" shape-type="buttonrect"/>
<text font-family="宋体" text-anchor="middle" dominant-baseline="middle" fill="#000000" font-size="12.000000" x="178" y="549" shape-type="buttontext">再生系统</text>
</g>
</a>
<a xlink:href="4.svg">
<g shape-type="button">
<rect fill="#C0C0C0" stroke-width="0.3" stroke="#FFFFFF" x="215" y="532" width="63" height="22" shape-type="buttonrect"/>
<text font-family="宋体" text-anchor="middle" dominant-baseline="middle" fill="#000000" font-size="12.000000" x="247" y="549" shape-type="buttontext">主风系统</text>
</g>
</a>
<a xlink:href="5.svg">
<g shape-type="button">
<rect fill="#C0C0C0" stroke-width="0.3" stroke="#FFFFFF" x="284" y="532" width="62" height="22" shape-type="buttonrect"/>
<text font-family="宋体" text-anchor="middle" dominant-baseline="middle" fill="#000000" font-size="12.000000" x="315" y="549" shape-type="buttontext">主风机组</text>
</g>
</a>
<a xlink:href="6.svg">
<g shape-type="button">
<rect fill="#C0C0C0" stroke-width="0.3" stroke="#FFFFFF" x="353" y="532" width="62" height="22" shape-type="buttonrect"/>
<text font-family="宋体" text-anchor="middle" dominant-baseline="middle" fill="#000000" font-size="12.000000" x="384" y="549" shape-type="buttontext">气压机</text>
</g>
</a>
<a xlink:href="7.svg">
<g shape-type="button">
<rect fill="#C0C0C0" stroke-width="0.3" stroke="#FFFFFF" x="421" y="532" width="63" height="22" shape-type="buttonrect"/>
<text font-family="宋体" text-anchor="middle" dominant-baseline="middle" fill="#000000" font-size="12.000000" x="452" y="549" shape-type="buttontext">分馏系统</text>
</g>
</a>
<a xlink:href="8.svg">
<g shape-type="button">
<rect fill="#C0C0C0" stroke-width="0.3" stroke="#FFFFFF" x="490" y="532" width="63" height="22" shape-type="buttonrect"/>
<text font-family="宋体" text-anchor="middle" dominant-baseline="middle" fill="#000000" font-size="12.000000" x="521" y="549" shape-type="buttontext">吸收系统</text>
</g>
</a>
<a xlink:href="9.svg">
<g shape-type="button">
<rect fill="#C0C0C0" stroke-width="0.3" stroke="#FFFFFF" x="559" y="532" width="63" height="22" shape-type="buttonrect"/>
<text font-family="宋体" text-anchor="middle" dominant-baseline="middle" fill="#000000" font-size="12.000000" x="590" y="549" shape-type="buttontext">稳定塔</text>
</g>
</a>
<a xlink:href="..\shihua.svg">
<g shape-type="button">
<rect fill="#C0C0C0" stroke-width="0.3" stroke="#FFFFFF" x="766" y="532" width="62" height="22" shape-type="buttonrect"/>
<text font-family="宋体" text-anchor="middle" dominant-baseline="middle" fill="#000000" font-size="12.000000" x="797" y="549" shape-type="buttontext">返回</text>
</g>
</a>
<a xlink:href="10.svg">
<g shape-type="button">
<rect fill="#C0C0C0" stroke-width="0.3" stroke="#FFFFFF" x="629" y="532" width="62" height="22" shape-type="buttonrect"/>
<text font-family="宋体" text-anchor="middle" dominant-baseline="middle" fill="#000000" font-size="12.000000" x="660" y="549" shape-type="buttontext">解析塔</text>
</g>
</a>
<a xlink:href="11.svg">
<g shape-type="button">
<rect fill="#C0C0C0" stroke-width="0.3" stroke="#FFFFFF" x="697" y="532" width="63" height="22" shape-type="buttonrect"/>
<text font-family="宋体" text-anchor="middle" dominant-baseline="middle" fill="#000000" font-size="12.000000" x="728" y="549" shape-type="buttontext">公用部分</text>
</g>
</a>
</svg>