<?xml version="1.0" encoding="UTF-8"?>
<svg height="100%" width="100%" viewBox="0 0 64000 32000" version="1.1" xmlns="http://www.w3.org/2000/svg" xmlns:xlink="http://www.w3.org/1999/xlink" xmlns:PB="urn:osisoft-com-pb" xmlns:PBI="urn:osisoft-com-interface" xmlns:PBD="urn:osisoft-com-data" style="background-color:#C0C0C0">
  <title>A12</title>
  <defs>
    <PBD:TagUses tag="\\RTDBB\1902_LIC_3202">
      <PBI:Symbol name="BARGRAPH1" PB:Type="12" />
      <PBI:Symbol name="DATAPOINT67" PB:Type="7" />
    </PBD:TagUses>
    <PBD:TagUses tag="\\RTDBB\1902_FT_0004">
      <PBI:Symbol name="DATAPOINT56" PB:Type="7" />
    </PBD:TagUses>
    <PBD:TagUses tag="\\RTDBB\1902_TT_0007">
      <PBI:Symbol name="DATAPOINT57" PB:Type="7" />
    </PBD:TagUses>
    <PBD:TagUses tag="\\RTDBB\1902_PT_0005">
      <PBI:Symbol name="DATAPOINT58" PB:Type="7" />
    </PBD:TagUses>
    <PBD:TagUses tag="\\RTDBB\1902_PI_3206">
      <PBI:Symbol name="DATAPOINT59" PB:Type="7" />
    </PBD:TagUses>
    <PBD:TagUses tag="\\RTDBB\1902_PISA_3202">
      <PBI:Symbol name="DATAPOINT60" PB:Type="7" />
    </PBD:TagUses>
    <PBD:TagUses tag="\\RTDBB\1902_PISA_3203">
      <PBI:Symbol name="DATAPOINT61" PB:Type="7" />
    </PBD:TagUses>
    <PBD:TagUses tag="\\RTDBB\1902_PISA_3204">
      <PBI:Symbol name="DATAPOINT62" PB:Type="7" />
    </PBD:TagUses>
    <PBD:TagUses tag="\\RTDBB\1902_AT_0001">
      <PBI:Symbol name="DATAPOINT64" PB:Type="7" />
    </PBD:TagUses>
    <PBD:TagUses tag="\\RTDBB\1902_FT_0005">
      <PBI:Symbol name="DATAPOINT65" PB:Type="7" />
    </PBD:TagUses>
    <PBD:TagUses tag="\\RTDBB\1902_PT_0006">
      <PBI:Symbol name="DATAPOINT66" PB:Type="7" />
    </PBD:TagUses>
    <PBD:TagUses tag="\\RTDBB\1902_LIA_3201">
      <PBI:Symbol name="DATAPOINT68" PB:Type="7" />
      <PBI:Symbol name="BARGRAPH2" PB:Type="12" />
    </PBD:TagUses>
    <PBD:TagUses tag="\\RTDBB\1902_TE_0008">
      <PBI:Symbol name="DATAPOINT70" PB:Type="7" />
    </PBD:TagUses>
  </defs>
  <path id="LINE1322" d="M 61740 5440 l -28540 0" stroke="#FFFF00" stroke-width="40" fill="none" />
  <rect x="36540" y="5360" width="380" height="300" stroke-width="0" fill="#C0C0C0" id="RECTANGLE26" />
  <path id="LINE1303" d="M 37420 14140 l 0 -4920" stroke="#00FF00" stroke-width="20" fill="none" />
  <path id="LINE1304" d="M 38400 14140 l 0 -4920" stroke="#00FF00" stroke-width="20" fill="none" />
  <path id="LINE1305" d="M 39440 14140 l 0 -4920" stroke="#00FF00" stroke-width="20" fill="none" />
  <path id="LINE1306" d="M 40560 14140 l 0 -4920" stroke="#00FF00" stroke-width="20" fill="none" />
  <path id="LINE1307" d="M 41600 14140 l 0 -4920" stroke="#00FF00" stroke-width="20" fill="none" />
  <path id="LINE1308" d="M 42720 14140 l 0 -4920" stroke="#00FF00" stroke-width="20" fill="none" />
  <rect x="42520" y="11940" width="380" height="300" stroke-width="0" fill="#C0C0C0" id="RECTANGLE19" />
  <rect x="41460" y="11980" width="380" height="300" stroke-width="0" fill="#C0C0C0" id="RECTANGLE20" />
  <rect x="40320" y="11980" width="380" height="300" stroke-width="0" fill="#C0C0C0" id="RECTANGLE21" />
  <rect x="39260" y="11980" width="380" height="300" stroke-width="0" fill="#C0C0C0" id="RECTANGLE22" />
  <rect x="38200" y="11980" width="380" height="300" stroke-width="0" fill="#C0C0C0" id="RECTANGLE23" />
  <rect x="37220" y="11980" width="380" height="300" stroke-width="0" fill="#C0C0C0" id="RECTANGLE24" />
  <path id="LINE1310" d="M 33200 18400 l 0 -4260" stroke="#00FF00" stroke-width="20" fill="none" />
  <rect x="33000" y="14620" width="380" height="300" stroke-width="0" fill="#C0C0C0" id="RECTANGLE16" />
  <path id="LINE1330" d="M 45060 22620 l -22840 0" stroke="#000000" stroke-width="20" stroke-dasharray="60,60" fill="none" />
  <rect x="25840" y="22440" width="380" height="300" stroke-width="0" fill="#C0C0C0" id="RECTANGLE14" />
  <path id="LINE1317" d="M 25980 29200 l 0 -8280" stroke="#00FF00" stroke-width="20" fill="none" />
  <rect x="25840" y="25460" width="380" height="300" stroke-width="0" fill="#C0C0C0" id="RECTANGLE15" />
  <path id="LINE1754" d="M 22200 22620 l 0 5900" stroke="#000000" stroke-width="20" stroke-dasharray="60,60" fill="none" />
  <rect x="21940" y="25460" width="380" height="300" stroke-width="0" fill="#C0C0C0" id="RECTANGLE12" />
  <path id="LINE1331" d="M 22200 24160 l -6680 0" stroke="#000000" stroke-width="20" stroke-dasharray="60,60" fill="none" />
  <rect x="18320" y="24020" width="380" height="300" stroke-width="0" fill="#C0C0C0" id="RECTANGLE9" />
  <rect x="20140" y="23980" width="380" height="300" stroke-width="0" fill="#C0C0C0" id="RECTANGLE10" />
  <path id="LINE1276" d="M 17780 19240 l 0 -2720" stroke="#FF0000" stroke-width="40" fill="none" />
  <rect x="17640" y="18520" width="380" height="300" stroke-width="0" fill="#C0C0C0" id="RECTANGLE7" />
  <path id="LINE1126" d="M 26060 15940 l -3660 0" stroke="#FF0000" stroke-width="40" fill="none" />
  <rect x="23980" y="15720" width="380" height="300" stroke-width="0" fill="#C0C0C0" id="RECTANGLE5" />
  <path id="ELLIPSE176" d="M 46020 18192 l -40 265 -40 151 -40 116 -40 98 -40 85 -40 77 -40 69 -40 64 -40 59 -40 55 -40 52 -40 49 -40 46 -40 43 -40 42 -40 39 -40 38 -40 35 -40 35 -40 32 -40 32 -40 30 -40 28 -40 28 -40 26 -40 25 -40 25 -40 23 -40 22 -40 21 -40 21 -40 19 -40 19 -40 18 -40 17 -40 17 -40 15 -40 15 -40 14 -40 14 -40 12 -40 12 -40 12 -40 10 -40 10 -40 10 -40 9 -40 8 -40 8 -40 6 -40 7 -40 6 -40 5 -40 4 -40 4 -40 4 -40 3 -40 2 -40 2 -40 1 -40 0 -40 0 -40 0 -40 -1 -40 -2 -40 -2 -40 -3 -40 -4 -40 -4 -40 -4 -40 -5 -40 -6 -40 -7 -40 -6 -40 -8 -40 -8 -40 -9 -40 -10 -40 -10 -40 -10 -40 -12 -40 -12 -40 -12 -40 -14 -40 -14 -40 -15 -40 -15 -40 -17 -40 -17 -40 -18 -40 -19 -40 -19 -40 -21 -40 -21 -40 -22 -40 -23 -40 -25 -40 -25 -40 -26 -40 -28 -40 -28 -40 -30 -40 -32 -40 -32 -40 -35 -40 -35 -40 -38 -40 -39 -40 -42 -40 -43 -40 -46 -40 -49 -40 -52 -40 -55 -40 -59 -40 -64 -40 -69 -40 -77 -40 -85 -40 -98 -40 -116 -40 -151 -40 -265 0 -303 40 -265 40 -151 40 -116 40 -98 40 -85 40 -77 40 -69 40 -64 40 -59 40 -55 40 -52 40 -49 40 -46 40 -43 40 -42 40 -39 40 -38 40 -35 40 -35 40 -32 40 -32 40 -30 40 -28 40 -28 40 -26 40 -25 40 -25 40 -23 40 -22 40 -21 40 -21 40 -19 40 -19 40 -18 40 -17 40 -17 40 -15 40 -15 40 -14 40 -14 40 -12 40 -12 40 -12 40 -10 40 -10 40 -10 40 -9 40 -8 40 -8 40 -6 40 -7 40 -6 40 -5 40 -4 40 -4 40 -4 40 -3 40 -2 40 -2 40 -1 40 0 40 0 40 0 40 1 40 2 40 2 40 3 40 4 40 4 40 4 40 5 40 6 40 7 40 6 40 8 40 8 40 9 40 10 40 10 40 10 40 12 40 12 40 12 40 14 40 14 40 15 40 15 40 17 40 17 40 18 40 19 40 19 40 21 40 21 40 22 40 23 40 25 40 25 40 26 40 28 40 28 40 30 40 32 40 32 40 35 40 35 40 38 40 39 40 42 40 43 40 46 40 49 40 52 40 55 40 59 40 64 40 69 40 77 40 85 40 98 40 116 40 151 40 265 0 303" stroke="#000000" stroke-width="20" fill="#808080" />
  <path id="LINE1111" d="M 36780 3560 l -34420 0" stroke="#FF0000" stroke-width="40" fill="none" />
  <path id="LINE1113" d="M 46440 12120 l -44080 0" stroke="#FF0000" stroke-width="40" fill="none" />
  <path id="LINE1114" d="M 24220 14120 l -14120 0" stroke="#FF0000" stroke-width="40" fill="none" />
  <path id="LINE1121" d="M 47600 18440 l -7880 0" stroke="#FF0000" stroke-width="40" fill="none" />
  <path id="LINE1161" d="M 18760 18680 l -3360 0" stroke="#FF0000" stroke-width="40" fill="none" />
  <path id="LINE1162" d="M 24200 18660 l -2940 0" stroke="#FF0000" stroke-width="40" fill="none" />
  <path id="LINE1191" d="M 17100 19540 l -3480 0" stroke="#FF0000" stroke-width="40" fill="none" />
  <path id="LINE1192" d="M 20760 19240 l -2960 0" stroke="#FF0000" stroke-width="40" fill="none" />
  <path id="LINE1193" d="M 10120 18700 l -2260 0" stroke="#FF0000" stroke-width="40" fill="none" />
  <path id="LINE1194" d="M 11380 16620 l -1160 0" stroke="#FF0000" stroke-width="40" fill="none" />
  <path id="LINE1217" d="M 17780 16520 l -2280 0" stroke="#FF0000" stroke-width="40" fill="none" />
  <path id="LINE1218" d="M 20140 16620 l -1500 0" stroke="#FF0000" stroke-width="40" fill="none" />
  <path id="LINE1237" d="M 22400 16540 l -1180 0" stroke="#FF0000" stroke-width="40" fill="none" />
  <path id="LINE1238" d="M 26060 16500 l -1680 0" stroke="#FF0000" stroke-width="40" fill="none" />
  <path id="LINE1239" d="M 53960 12320 l -940 0" stroke="#FF0000" stroke-width="40" fill="none" />
  <path id="LINE1240" d="M 18400 20100 l -1880 0" stroke="#FF0000" stroke-width="40" fill="none" />
  <path id="LINE1241" d="M 22500 20100 l -1900 0" stroke="#FF0000" stroke-width="40" fill="none" />
  <path id="LINE1242" d="M 18400 21700 l -1880 0" stroke="#FF0000" stroke-width="40" fill="none" />
  <path id="LINE1243" d="M 22520 21700 l -1920 0" stroke="#FF0000" stroke-width="40" fill="none" />
  <path id="LINE1244" d="M 36780 7140 l 0 -3580" stroke="#FF0000" stroke-width="40" fill="none" />
  <path id="LINE1247" d="M 35380 12120 l 0 -2840" stroke="#FF0000" stroke-width="40" fill="none" />
  <path id="LINE1248" d="M 46440 12120 l 0 -2840" stroke="#FF0000" stroke-width="40" fill="none" />
  <path id="LINE1251" d="M 53020 12320 l 0 -2080" stroke="#FF0000" stroke-width="40" fill="none" />
  <path id="LINE1266" d="M 47600 18440 l 0 -3660" stroke="#FF0000" stroke-width="40" fill="none" />
  <path id="LINE1267" d="M 39720 18440 l 0 -3660" stroke="#FF0000" stroke-width="40" fill="none" />
  <path id="LINE1268" d="M 26080 16500 l 0 -1740" stroke="#FF0000" stroke-width="40" fill="none" />
  <path id="LINE1269" d="M 24220 18640 l 0 -4520" stroke="#FF0000" stroke-width="40" fill="none" />
  <path id="LINE1270" d="M 21240 18660 l 0 -4540" stroke="#FF0000" stroke-width="40" fill="none" />
  <path id="LINE1271" d="M 18760 18680 l 0 -4560" stroke="#FF0000" stroke-width="40" fill="none" />
  <path id="LINE1274" d="M 15420 18680 l 0 -4560" stroke="#FF0000" stroke-width="40" fill="none" />
  <path id="LINE1275" d="M 10120 18720 l 0 -6600" stroke="#FF0000" stroke-width="40" fill="none" />
  <path id="LINE1277" d="M 20140 19240 l 0 -2620" stroke="#FF0000" stroke-width="40" fill="none" />
  <path id="LINE1278" d="M 22180 20080 l 0 -1420" stroke="#FF0000" stroke-width="40" fill="none" />
  <path id="LINE1279" d="M 17520 20100 l 0 -1420" stroke="#FF0000" stroke-width="40" fill="none" />
  <path id="LINE1280" d="M 20760 20080 l 0 -840" stroke="#FF0000" stroke-width="40" fill="none" />
  <path id="LINE1281" d="M 17100 20100 l 0 -560" stroke="#FF0000" stroke-width="40" fill="none" />
  <path id="LINE1282" d="M 13620 19540 l 0 -840" stroke="#FF0000" stroke-width="40" fill="none" />
  <path id="LINE1283" d="M 7860 18700 l 0 -1360" stroke="#FF0000" stroke-width="40" fill="none" />
  <path id="LINE1284" d="M 16520 21660 l 0 -1560" stroke="#FF0000" stroke-width="40" fill="none" />
  <path id="LINE1287" d="M 22540 21700 l 0 -1600" stroke="#FF0000" stroke-width="40" fill="none" />
  <path id="LINE1288" d="M 38340 25640 l -35980 0" stroke="#00FF00" stroke-width="20" fill="none" />
  <path id="LINE1289" d="M 54180 14140 l -20980 0" stroke="#00FF00" stroke-width="20" fill="none" />
  <path id="LINE1290" d="M 41480 16840 l -5920 0" stroke="#00FF00" stroke-width="20" fill="none" />
  <path id="LINE1291" d="M 41040 20920 l -15060 0" stroke="#00FF00" stroke-width="20" fill="none" />
  <path id="LINE1292" d="M 41480 19960 l -5920 0" stroke="#00FF00" stroke-width="20" fill="none" />
  <path id="LINE1293" d="M 25980 29160 l -8220 0" stroke="#00FF00" stroke-width="20" fill="none" />
  <path id="LINE1294" d="M 57300 29180 l -28080 0" stroke="#00FF00" stroke-width="20" fill="none" />
  <path id="LINE1295" d="M 38140 27340 l -3940 0" stroke="#00FF00" stroke-width="20" fill="none" />
  <path id="LINE1296" d="M 43600 26120 l -3660 0" stroke="#00FF00" stroke-width="20" fill="none" />
  <path id="LINE1297" d="M 43600 27800 l -3660 0" stroke="#00FF00" stroke-width="20" fill="none" />
  <path id="LINE1298" d="M 22280 20380 l -5580 0" stroke="#00FF00" stroke-width="20" fill="none" />
  <path id="LINE1299" d="M 18620 21380 l -1920 0" stroke="#00FF00" stroke-width="20" fill="none" />
  <path id="LINE1300" d="M 22280 21400 l -1960 0" stroke="#00FF00" stroke-width="20" fill="none" />
  <path id="LINE1301" d="M 57300 12280 l -720 0" stroke="#00FF00" stroke-width="20" fill="none" />
  <path id="LINE1302" d="M 35200 18360 l -2000 0" stroke="#00FF00" stroke-width="20" fill="none" />
  <path id="LINE1311" d="M 35560 19940 l 0 -3100" stroke="#00FF00" stroke-width="20" fill="none" />
  <path id="LINE1312" d="M 54180 14140 l 0 -1400" stroke="#00FF00" stroke-width="20" fill="none" />
  <path id="LINE1313" d="M 57300 29200 l 0 -16920" stroke="#00FF00" stroke-width="20" fill="none" />
  <path id="LINE1314" d="M 43600 27800 l 0 -4060" stroke="#00FF00" stroke-width="20" fill="none" />
  <path id="LINE1315" d="M 29300 29080 l 0 -3440" stroke="#00FF00" stroke-width="20" fill="none" />
  <path id="LINE1316" d="M 34160 27300 l 0 -1660" stroke="#00FF00" stroke-width="20" fill="none" />
  <path id="LINE1318" d="M 17620 29080 l 0 -3440" stroke="#00FF00" stroke-width="20" fill="none" />
  <path id="LINE1319" d="M 18620 25640 l 0 -4260" stroke="#00FF00" stroke-width="20" fill="none" />
  <path id="LINE1320" d="M 20320 25620 l 0 -4220" stroke="#00FF00" stroke-width="20" fill="none" />
  <path id="LINE1321" d="M 56200 13860 l 0 -1200" stroke="#00FF00" stroke-width="20" fill="none" />
  <path id="LINE1323" d="M 33200 8000 l 0 -2560" stroke="#FFFF00" stroke-width="40" fill="none" />
  <path id="LINE1324" d="M 47380 7940 l 0 -2500" stroke="#FFFF00" stroke-width="40" fill="none" />
  <rect x="32900" y="8000" width="14640" height="460" stroke="#000000" stroke-width="20" fill="#808080" id="RECTANGLE112" />
  <rect x="42400" y="20120" width="2420" height="3620" stroke="#000000" stroke-width="20" fill="#808080" id="RECTANGLE113" />
  <path id="LINE1326" d="M 57920 6200 l -13700 0" stroke="#000000" stroke-width="40" stroke-dasharray="300,100" fill="none" />
  <path id="LINE1327" d="M 44160 6700 l 0 -520" stroke="#000000" stroke-width="40" stroke-dasharray="300,100" fill="none" />
  <path id="LINE1328" d="M 36480 12080 l 0 -1620" stroke="#000000" stroke-width="20" stroke-dasharray="60,60" fill="none" />
  <path id="LINE1329" d="M 36480 10460 l -11900 0" stroke="#000000" stroke-width="20" stroke-dasharray="60,60" fill="none" />
  <path id="LINE1333" d="M 56100 11940 l -1840 0" stroke="#000000" stroke-width="20" fill="none" />
  <path id="LINE1335" d="M 37420 4680 l -640 0" stroke="#000000" stroke-width="20" fill="none" />
  <path id="LINE1336" d="M 36780 6320 l -1300 0" stroke="#000000" stroke-width="20" fill="none" />
  <path id="LINE1337" d="M 14060 4000 l 0 -440" stroke="#000000" stroke-width="20" stroke-dasharray="60,60" fill="none" />
  <path id="LINE1338" d="M 18800 4000 l 0 -440" stroke="#000000" stroke-width="20" stroke-dasharray="60,60" fill="none" />
  <path id="LINE1339" d="M 23760 3980 l 0 -440" stroke="#000000" stroke-width="20" stroke-dasharray="60,60" fill="none" />
  <path id="LINE1342" d="M 57920 6640 l 0 -440" stroke="#000000" stroke-width="20" stroke-dasharray="60,60" fill="none" />
  <path id="LINE1343" d="M 4760 26100 l 0 -460" stroke="#000000" stroke-width="20" stroke-dasharray="60,60" fill="none" />
  <path id="LINE1344" d="M 9700 26100 l 0 -460" stroke="#000000" stroke-width="20" stroke-dasharray="60,60" fill="none" />
  <path id="LINE1345" d="M 7540 25640 l 0 -440" stroke="#000000" stroke-width="20" stroke-dasharray="60,60" fill="none" />
  <path id="LINE1348" d="M 11940 25640 l 0 -440" stroke="#000000" stroke-width="20" stroke-dasharray="60,60" fill="none" />
  <path d="M 7840 16560 l -600 820" stroke="#000000" stroke-width="20" fill="none" />
  <path d="M 7840 16560 l 620 820" stroke="#000000" stroke-width="20" fill="none" />
  <path d="M 13600 17960 l -600 820" stroke="#000000" stroke-width="20" fill="none" />
  <path d="M 13600 17960 l 620 820" stroke="#000000" stroke-width="20" fill="none" />
  <path d="M 53000 9520 l -620 800" stroke="#000000" stroke-width="20" fill="none" />
  <path d="M 53000 9520 l 600 800" stroke="#000000" stroke-width="20" fill="none" />
  <path d="M 17520 20860 l -820 -480" stroke="#00FF00" stroke-width="20" fill="none" />
  <path d="M 17520 20880 l -820 500" stroke="#00FF00" stroke-width="20" fill="none" />
  <path d="M 21460 20880 l 820 -500" stroke="#00FF00" stroke-width="20" fill="none" />
  <path d="M 21460 20880 l 820 520" stroke="#00FF00" stroke-width="20" fill="none" />
  <path d="M 35500 6320 l 660 -660" stroke="#000000" stroke-width="20" fill="none" />
  <path d="M 35500 6320 l 660 640" stroke="#000000" stroke-width="20" fill="none" />
  <path d="M 56160 14280 l -480 -360" stroke="#000000" stroke-width="20" fill="none" />
  <path d="M 56160 14280 l 500 -360" stroke="#000000" stroke-width="20" fill="none" />
  <path id="LINE1370" d="M 44120 6620 l 0 3080 -7380 -580 0 -1960 7380 -540" stroke="#000000" stroke-width="20" fill="#808080" />
  <g id="TEXT5589">
    <rect x="39380" y="7980" width="3620" height="700" stroke-width="0" fill="none" id="TEXT5589_pbTextBoundingRectEl" />
    <text fill="#000000" font-family="Helvetica" font-size="560" font-weight="bold" text-anchor="middle" x="41190" y="8610" id="TEXT5589_pbTextEl">1902KT2401</text>
  </g>
  <path d="M 9580 18460 l 920 0 -180 -1520 -580 0 -160 1520" stroke="#000000" stroke-width="20" fill="#808080" />
  <rect x="9840" y="16360" width="400" height="580" stroke="#000000" stroke-width="20" fill="#808080" />
  <path d="M 14880 18140 l 920 0 -180 -1240 -580 0 -160 1240" stroke="#000000" stroke-width="20" fill="#808080" />
  <rect x="15140" y="16420" width="400" height="480" stroke="#000000" stroke-width="20" fill="#808080" />
  <path d="M 18240 18140 l 920 0 -180 -1240 -580 0 -160 1240" stroke="#000000" stroke-width="20" fill="#808080" />
  <rect x="18500" y="16420" width="400" height="480" stroke="#000000" stroke-width="20" fill="#808080" />
  <path d="M 20720 18140 l 920 0 -180 -1240 -580 0 -160 1240" stroke="#000000" stroke-width="20" fill="#808080" />
  <rect x="20980" y="16420" width="400" height="480" stroke="#000000" stroke-width="20" fill="#808080" />
  <path d="M 23700 18140 l 920 0 -180 -1240 -580 0 -160 1240" stroke="#000000" stroke-width="20" fill="#808080" />
  <rect x="23960" y="16420" width="400" height="480" stroke="#000000" stroke-width="20" fill="#808080" />
  <path id="ELLIPSE175" d="M 46040 18732 l -40 265 -40 151 -40 116 -40 98 -40 85 -40 77 -40 69 -40 64 -40 59 -40 55 -40 52 -40 49 -40 46 -40 43 -40 42 -40 39 -40 38 -40 35 -40 35 -40 32 -40 32 -40 30 -40 28 -40 28 -40 26 -40 25 -40 25 -40 23 -40 22 -40 21 -40 21 -40 19 -40 19 -40 18 -40 17 -40 17 -40 15 -40 15 -40 14 -40 14 -40 12 -40 12 -40 12 -40 10 -40 10 -40 10 -40 9 -40 8 -40 8 -40 6 -40 7 -40 6 -40 5 -40 4 -40 4 -40 4 -40 3 -40 2 -40 2 -40 1 -40 0 -40 0 -40 0 -40 -1 -40 -2 -40 -2 -40 -3 -40 -4 -40 -4 -40 -4 -40 -5 -40 -6 -40 -7 -40 -6 -40 -8 -40 -8 -40 -9 -40 -10 -40 -10 -40 -10 -40 -12 -40 -12 -40 -12 -40 -14 -40 -14 -40 -15 -40 -15 -40 -17 -40 -17 -40 -18 -40 -19 -40 -19 -40 -21 -40 -21 -40 -22 -40 -23 -40 -25 -40 -25 -40 -26 -40 -28 -40 -28 -40 -30 -40 -32 -40 -32 -40 -35 -40 -35 -40 -38 -40 -39 -40 -42 -40 -43 -40 -46 -40 -49 -40 -52 -40 -55 -40 -59 -40 -64 -40 -69 -40 -77 -40 -85 -40 -98 -40 -116 -40 -151 -40 -265 0 -303 40 -265 40 -151 40 -116 40 -98 40 -85 40 -77 40 -69 40 -64 40 -59 40 -55 40 -52 40 -49 40 -46 40 -43 40 -42 40 -39 40 -38 40 -35 40 -35 40 -32 40 -32 40 -30 40 -28 40 -28 40 -26 40 -25 40 -25 40 -23 40 -22 40 -21 40 -21 40 -19 40 -19 40 -18 40 -17 40 -17 40 -15 40 -15 40 -14 40 -14 40 -12 40 -12 40 -12 40 -10 40 -10 40 -10 40 -9 40 -8 40 -8 40 -6 40 -7 40 -6 40 -5 40 -4 40 -4 40 -4 40 -3 40 -2 40 -2 40 -1 40 0 40 0 40 0 40 1 40 2 40 2 40 3 40 4 40 4 40 4 40 5 40 6 40 7 40 6 40 8 40 8 40 9 40 10 40 10 40 10 40 12 40 12 40 12 40 14 40 14 40 15 40 15 40 17 40 17 40 18 40 19 40 19 40 21 40 21 40 22 40 23 40 25 40 25 40 26 40 28 40 28 40 30 40 32 40 32 40 35 40 35 40 38 40 39 40 42 40 43 40 46 40 49 40 52 40 55 40 59 40 64 40 69 40 77 40 85 40 98 40 116 40 151 40 265 0 303" stroke="#000000" stroke-width="20" fill="#808080" />
  <path d="M 41620 18480 l 1240 -800" stroke="#000000" stroke-width="20" fill="none" />
  <path d="M 41620 18480 l 1240 800" stroke="#000000" stroke-width="20" fill="none" />
  <path id="LINE1432" d="M 40180 20940 l 2680 -1680" stroke="#000000" stroke-width="20" fill="none" />
  <path id="LINE1433" d="M 40220 16140 l 2640 1540" stroke="#000000" stroke-width="20" fill="none" />
  <path d="M 45440 18480 l -1260 -800" stroke="#000000" stroke-width="20" fill="none" />
  <path d="M 45440 18480 l -1260 800" stroke="#000000" stroke-width="20" fill="none" />
  <path id="LINE1422" d="M 46860 20940 l -2680 -1680" stroke="#000000" stroke-width="20" fill="none" />
  <path id="LINE1423" d="M 46840 16140 l -2660 1540" stroke="#000000" stroke-width="20" fill="none" />
  <path d="M 55100 11300 l -400 -260" stroke="#000000" stroke-width="20" fill="none" />
  <path d="M 55140 10280 l 420 260" stroke="#000000" stroke-width="20" fill="none" />
  <path d="M 55560 10540 l -860 500" stroke="#000000" stroke-width="20" fill="none" />
  <path id="LINE1466" d="M 55180 11280 l 0 1060" stroke="#000000" stroke-width="20" fill="none" />
  <path id="LINE1467" d="M 56160 14320 l 0 300" stroke="#000000" stroke-width="20" fill="none" />
  <g name="InLineMixer">
    <path d="M 37420 4739 l 1032 0" stroke="#000000" stroke-width="40" fill="none" />
    <rect x="37420" y="4538" width="1032" height="402" stroke="#000000" stroke-width="40" fill="#808080" />
    <path d="M 37420 4739 l 43 -134 86 268 86 -268 86 268 86 -268 86 268 86 -268 86 268 86 -268 86 268 86 -268 86 268 43 -134" stroke="#000000" stroke-width="40" fill="none" />
  </g>
  <path id="ELLIPSE177" d="M 36020 7205 l -46 -10 -25 -10 -18 -10 -14 -10 -13 -10 -10 -10 -10 -10 -8 -10 -7 -10 -6 -10 -6 -10 -5 -10 -4 -10 -3 -10 -4 -10 -2 -10 -2 -10 -1 -10 -1 -10 -1 -10 0 -10 1 -10 1 -10 1 -10 2 -10 2 -10 4 -10 3 -10 4 -10 5 -10 6 -10 6 -10 7 -10 8 -10 10 -10 10 -10 13 -10 14 -10 18 -10 25 -10 46 -10 40 0 46 10 25 10 18 10 14 10 13 10 10 10 10 10 8 10 7 10 6 10 6 10 5 10 4 10 3 10 4 10 2 10 2 10 1 10 1 10 1 10 0 10 -1 10 -1 10 -1 10 -2 10 -2 10 -4 10 -3 10 -4 10 -5 10 -6 10 -6 10 -7 10 -8 10 -10 10 -10 10 -13 10 -14 10 -18 10 -25 10 -46 10 -40 0" stroke="#000000" stroke-width="20" fill="#000000" />
  <path id="ELLIPSE178" d="M 36020 5985 l -46 -10 -25 -10 -18 -10 -14 -10 -13 -10 -10 -10 -10 -10 -8 -10 -7 -10 -6 -10 -6 -10 -5 -10 -4 -10 -3 -10 -4 -10 -2 -10 -2 -10 -1 -10 -1 -10 -1 -10 0 -10 1 -10 1 -10 1 -10 2 -10 2 -10 4 -10 3 -10 4 -10 5 -10 6 -10 6 -10 7 -10 8 -10 10 -10 10 -10 13 -10 14 -10 18 -10 25 -10 46 -10 40 0 46 10 25 10 18 10 14 10 13 10 10 10 10 10 8 10 7 10 6 10 6 10 5 10 4 10 3 10 4 10 2 10 2 10 1 10 1 10 1 10 0 10 -1 10 -1 10 -1 10 -2 10 -2 10 -4 10 -3 10 -4 10 -5 10 -6 10 -6 10 -7 10 -8 10 -10 10 -10 10 -13 10 -14 10 -18 10 -25 10 -46 10 -40 0" stroke="#000000" stroke-width="20" fill="#000000" />
  <g name="Vessel1">
    <path d="M 35182 17620 l 14 -77 10 -29 8 -21 10 -19 11 -19 7 -14 9 -11 9 -12 12 -10 8 -12 9 -9 10 -8 9 -7 9 -11 10 -6 8 -7 9 -5 10 -8 9 -3 9 -8 11 -6 10 -4 6 -5 11 -6 7 -2 11 -4 9 -4 10 -2 8 -5 10 -1 9 -5 9 -1 8 -2 11 -4 9 -2 9 -3 9 0 11 0 8 0 9 0 10 0 8 0 10 1 9 0 9 -1 9 0 25 0 9 1 10 0 9 -1 10 0 9 0 9 0 8 1 9 0 11 -1 9 0 9 2 10 3 8 4 9 2 9 1 10 5 9 1 10 5 8 2 9 5 9 3 10 2 10 6 8 5 10 4 10 6 9 8 10 4 10 7 7 5 10 7 8 6 10 11 9 7 10 8 8 9 10 13 8 9 12 12 6 11 11 15 10 18 9 19 9 21 9 29 4 77 -4 69 -9 30 -9 24 -9 19 -11 12 -10 19 -6 11 -12 10 -8 14 -10 8 -9 9 -9 12 -9 6 -11 9 -7 9 -10 4 -7 4 -10 9 -10 6 -9 6 -10 3 -10 7 -8 6 -10 2 -10 6 -9 1 -9 5 -8 2 -10 6 -9 2 -10 2 -9 2 -9 2 -8 1 -10 4 -9 5 -9 0 -11 2 -9 0 -8 4 -9 0 -9 8 -10 0 -9 1 -10 -1 -9 0 -25 0 -9 0 -9 0 -9 0 -10 0 -8 -8 -10 0 -9 -4 -8 0 -11 -2 -9 0 -9 -5 -9 -4 -10 -1 -9 -2 -9 -2 -9 -2 -10 -3 -8 -5 -10 -2 -9 -6 -11 -1 -7 -5 -11 -3 -6 -5 -10 -7 -11 -4 -9 -6 -9 -6 -10 -8 -10 -4 -7 -5 -10 -8 -10 -9 -8 -7 -11 -11 -9 -9 -8 -9 -12 -13 -8 -11 -9 -11 -7 -18 -11 -13 -10 -19 -8 -23 -10 -30 -14 -69 0 0" stroke="#000000" stroke-width="20" fill="#000000" />
    <path d="M 35231 17626 l 13 -79 11 -32 7 -21 9 -18 8 -17 9 -17 7 -10 9 -12 6 -12 11 -8 7 -12 7 -9 9 -6 9 -11 9 -7 6 -7 10 -5 9 -8 7 -3 8 -7 8 -7 7 -4 10 -3 8 -6 9 -4 8 -4 9 -4 8 -1 7 -6 7 -1 11 -5 6 -1 10 -2 9 -4 6 -3 9 0 8 -2 8 0 9 0 9 0 7 0 9 0 9 0 8 0 8 0 8 0 20 0 10 1 8 -1 10 0 7 0 7 0 9 0 8 0 9 0 9 1 7 1 9 1 7 2 10 4 8 2 10 1 5 5 8 1 8 5 8 2 10 4 8 4 7 4 10 6 8 4 6 4 10 6 10 7 6 3 10 8 8 5 10 7 5 7 10 11 7 6 7 9 9 12 8 8 9 12 9 13 8 10 7 17 8 17 9 18 8 20 9 33 3 79 -3 70 -9 31 -8 21 -9 20 -8 15 -7 15 -8 11 -9 14 -10 9 -7 12 -9 11 -8 8 -6 10 -10 7 -5 8 -10 9 -8 0 -10 10 -6 5 -10 7 -10 2 -6 10 -8 2 -10 4 -7 5 -8 1 -9 7 -9 1 -8 7 -8 0 -5 3 -10 4 -8 0 -10 2 -7 6 -9 -1 -7 4 -9 3 -9 0 -8 0 -9 0 -7 13 -7 -1 -10 0 -8 0 -10 1 -20 -1 -8 0 -8 0 -8 0 -9 1 -9 -13 -7 1 -9 -1 -9 0 -8 -3 -8 -4 -9 0 -6 -4 -9 -3 -10 0 -6 -3 -11 -4 -8 0 -6 -7 -8 -1 -9 -7 -8 -1 -9 -5 -8 -4 -10 -3 -7 -10 -8 -1 -8 -8 -7 -5 -9 -9 -10 -1 -6 -9 -10 -7 -9 -8 -8 -9 -7 -9 -8 -11 -10 -11 -6 -9 -9 -14 -7 -11 -10 -16 -7 -15 -10 -20 -6 -20 -11 -32 -13 -70 0 0" stroke="#3C3C3C" stroke-width="20" fill="#3C3C3C" />
    <path d="M 35279 17626 l 12 -79 8 -32 6 -21 8 -18 7 -17 7 -17 8 -10 8 -12 5 -12 8 -8 7 -12 9 -9 5 -6 10 -11 6 -7 6 -7 8 -5 8 -8 7 -3 7 -7 6 -7 8 -4 6 -3 10 -6 7 -4 9 -4 6 -4 5 -2 10 -4 6 -2 9 -5 7 -1 7 -2 6 -4 7 -2 7 -1 9 -2 8 0 6 0 7 0 6 0 8 0 9 0 6 0 9 0 6 0 19 0 8 1 8 -1 8 0 8 0 3 0 10 0 6 0 8 0 8 0 6 3 8 -1 7 3 7 4 7 2 8 1 7 5 8 1 7 5 6 2 8 5 8 3 7 4 9 6 6 4 7 3 6 7 9 7 7 3 9 8 6 5 6 7 7 7 7 11 9 6 8 9 5 13 8 7 9 13 5 11 9 10 7 17 6 18 7 17 10 22 5 31 3 80 -3 70 -5 31 -10 21 -7 19 -6 15 -7 16 -9 12 -5 13 -9 9 -8 11 -5 12 -8 9 -9 8 -7 8 -7 7 -6 10 -6 0 -9 10 -7 4 -9 9 -6 0 -7 10 -6 3 -9 5 -7 4 -8 1 -8 8 -6 0 -7 7 -8 0 -7 3 -8 4 -7 0 -7 2 -7 5 -8 0 -6 5 -8 2 -8 0 -6 0 -10 1 -3 11 -8 1 -8 -1 -8 0 -8 1 -19 -1 -6 0 -9 1 -6 -1 -9 0 -8 -12 -6 0 -7 1 -6 -1 -8 -3 -9 -4 -7 0 -7 -5 -6 -2 -7 1 -7 -5 -9 -3 -6 0 -11 -7 -4 -1 -6 -6 -9 -2 -7 -5 -10 -4 -6 -3 -8 -10 -5 -1 -8 -8 -7 -5 -8 -9 -8 -1 -6 -9 -6 -7 -9 -8 -6 -9 -9 -9 -7 -11 -8 -11 -5 -9 -8 -14 -7 -11 -8 -16 -7 -15 -8 -20 -6 -20 -9 -32 -11 -70 0 0" stroke="#5A5A5A" stroke-width="20" fill="#5A5A5A" />
    <path d="M 35321 17626 l 12 -79 5 -32 6 -21 7 -18 7 -17 6 -17 6 -10 8 -12 5 -12 9 -8 5 -12 5 -9 7 -6 6 -11 7 -7 5 -7 8 -5 6 -8 6 -3 6 -7 8 -7 5 -4 6 -3 7 -6 6 -4 7 -4 6 -4 6 -2 7 -5 7 -1 5 -5 8 -1 5 -2 7 -4 6 -3 5 0 8 -2 6 0 7 0 4 0 7 0 8 1 7 -1 5 0 8 0 5 0 16 0 7 0 8 0 5 0 7 0 5 0 5 0 9 0 6 0 6 0 6 2 7 0 8 3 6 4 6 2 5 2 6 4 8 2 5 4 7 2 8 4 5 4 5 4 8 7 6 2 8 4 5 7 6 7 6 3 6 8 9 5 4 8 7 6 7 11 6 7 8 8 6 13 4 7 7 12 6 13 5 9 8 17 6 17 8 19 6 21 5 31 2 80 -2 69 -5 32 -6 21 -8 19 -6 15 -8 17 -5 11 -6 13 -7 9 -4 11 -6 11 -8 10 -6 9 -7 7 -7 8 -4 8 -9 1 -6 9 -6 5 -6 8 -5 1 -8 10 -6 3 -8 4 -5 5 -5 1 -8 8 -7 0 -5 7 -8 0 -6 3 -5 4 -6 0 -6 2 -8 6 -7 -1 -6 4 -6 3 -6 0 -9 0 -5 0 -5 13 -7 -1 -5 0 -8 0 -7 0 -16 0 -5 0 -8 0 -5 0 -7 0 -8 -12 -7 1 -4 -1 -7 1 -6 -4 -8 -4 -5 0 -6 -5 -7 -2 -5 1 -8 -5 -5 -3 -7 0 -7 -7 -6 -1 -6 -7 -7 -1 -7 -5 -6 -4 -6 -3 -5 -10 -8 -1 -6 -8 -6 -5 -6 -9 -8 -1 -5 -9 -7 -7 -6 -8 -7 -8 -5 -10 -5 -11 -9 -11 -5 -9 -9 -14 -5 -11 -5 -16 -8 -15 -7 -20 -6 -20 -5 -32 -12 -70 0 0" stroke="#808080" stroke-width="20" fill="#808080" />
    <path d="M 35371 17626 l 10 -79 7 -32 5 -21 4 -18 5 -17 8 -17 4 -10 5 -12 6 -12 3 -8 7 -12 7 -9 5 -6 3 -11 5 -7 8 -7 5 -5 3 -8 8 -3 6 -7 3 -7 6 -4 4 -3 7 -6 6 -4 6 -4 3 -4 4 -2 6 -5 6 -1 5 -5 7 -1 6 -2 4 -4 6 -3 5 0 5 -2 6 0 5 1 4 -1 6 1 6 -1 5 0 7 0 6 0 3 0 15 0 4 0 8 0 4 0 4 0 7 1 6 -1 6 0 3 0 6 1 7 1 4 0 6 3 4 4 6 2 7 2 3 4 6 1 4 5 6 2 8 4 3 4 5 4 7 6 5 3 5 4 5 7 5 7 6 4 5 7 6 5 6 7 5 7 6 12 4 5 5 9 5 12 6 8 6 12 4 12 8 10 5 17 4 17 6 18 5 21 6 32 0 79 0 70 -6 32 -5 21 -6 19 -4 16 -5 15 -8 11 -4 14 -6 9 -6 11 -5 11 -5 9 -4 9 -6 8 -5 8 -6 8 -6 1 -5 9 -6 6 -5 7 -5 1 -5 10 -5 3 -7 4 -5 5 -3 1 -8 7 -6 2 -4 6 -6 0 -3 3 -7 5 -6 -1 -4 2 -6 5 -4 0 -7 5 -6 2 -3 0 -6 0 -6 0 -7 13 -4 -1 -4 0 -8 0 -4 1 -15 -1 -3 0 -6 0 -7 0 -5 0 -6 -12 -6 0 -4 0 -5 0 -6 -3 -5 -4 -5 0 -6 -5 -4 -2 -6 0 -7 -4 -5 -3 -6 0 -6 -7 -4 -1 -3 -7 -6 -1 -6 -5 -7 -4 -4 -3 -6 -10 -4 -1 -5 -8 -8 -5 -3 -9 -5 -1 -8 -9 -6 -7 -2 -8 -5 -9 -7 -9 -7 -11 -4 -11 -4 -9 -6 -14 -4 -11 -8 -16 -5 -15 -4 -20 -5 -20 -7 -32 -10 -70 0 0" stroke="#969696" stroke-width="20" fill="#969696" />
    <path d="M 35417 17626 l 10 -79 4 -32 5 -21 3 -18 5 -17 4 -17 6 -10 3 -12 5 -12 4 -8 3 -12 6 -9 1 -6 7 -11 5 -7 5 -7 3 -4 5 -9 5 -3 5 -7 3 -7 4 -4 5 -3 3 -6 5 -4 4 -4 5 -4 5 -2 4 -5 4 -1 5 -5 5 -1 4 -2 3 -3 4 -4 5 1 5 -3 3 0 5 0 5 0 4 0 4 0 5 0 4 0 5 0 3 0 12 0 4 0 6 0 3 1 5 -1 4 1 6 -1 3 0 5 0 3 0 5 2 3 1 5 2 4 4 6 2 4 1 4 5 4 1 6 5 3 2 4 4 5 4 4 4 4 6 4 3 4 5 6 6 4 7 5 3 3 8 6 5 4 7 5 7 2 11 5 6 4 9 5 12 3 9 7 11 3 12 5 10 4 17 6 17 2 18 6 21 3 32 0 79 0 70 -3 32 -6 21 -2 19 -6 15 -4 16 -5 11 -3 14 -7 9 -3 12 -5 10 -4 10 -5 8 -2 9 -5 6 -4 9 -6 1 -3 10 -5 4 -4 8 -6 1 -4 10 -4 3 -4 4 -4 5 -5 1 -4 7 -3 1 -6 7 -4 0 -4 4 -4 4 -6 -1 -4 3 -5 4 -3 0 -5 4 -3 3 -5 0 -3 1 -6 0 -4 11 -5 0 -3 0 -6 1 -4 -1 -12 0 -3 0 -5 0 -4 0 -5 0 -4 -12 -4 0 -5 0 -5 0 -3 -3 -5 -4 -5 0 -4 -5 -3 -2 -4 0 -5 -4 -5 -3 -4 0 -4 -7 -5 -1 -5 -7 -4 -1 -5 -5 -3 -4 -5 -3 -4 -10 -3 -1 -5 -8 -5 -5 -5 -9 -3 -1 -5 -9 -5 -7 -7 -8 -1 -9 -6 -9 -3 -11 -4 -11 -5 -9 -3 -14 -6 -11 -4 -16 -5 -15 -2 -20 -6 -20 -4 -32 -10 -70 0 0" stroke="#C0C0C0" stroke-width="20" fill="#C0C0C0" />
    <path d="M 35463 17626 l 8 -79 3 -32 3 -21 4 -18 5 -17 2 -17 3 -10 3 -12 4 -12 5 -8 3 -12 3 -9 3 -5 3 -12 2 -7 4 -7 4 -5 4 -8 2 -3 4 -7 3 -7 3 -3 5 -3 3 -7 3 -4 4 -4 5 -4 2 -2 4 -5 2 -1 4 -5 2 -1 4 -2 2 -4 3 -3 6 0 3 -2 3 0 3 0 3 0 5 0 4 0 3 0 3 0 2 0 3 0 10 0 2 0 3 0 4 0 5 1 4 -1 3 0 2 0 4 0 5 1 3 1 4 1 1 2 4 4 5 2 2 1 4 5 3 1 2 5 4 2 3 4 4 4 5 4 2 6 2 3 4 4 4 7 5 8 3 2 2 9 3 4 3 7 3 7 5 11 3 6 3 9 4 12 3 8 3 12 4 13 1 9 6 17 4 17 2 18 4 22 2 31 0 80 0 69 -2 32 -4 20 -2 20 -4 15 -6 16 -1 12 -4 13 -3 9 -3 11 -4 11 -3 9 -3 9 -5 9 -3 7 -3 8 -3 1 -2 9 -3 5 -5 8 -4 1 -4 10 -2 3 -2 4 -5 6 -4 0 -3 7 -4 1 -2 7 -3 0 -4 4 -2 3 -5 0 -4 2 -1 5 -4 0 -3 5 -5 2 -4 0 -2 0 -3 0 -4 12 -5 0 -4 1 -3 -1 -2 0 -10 0 -3 0 -2 0 -3 0 -3 0 -4 -12 -5 0 -3 0 -3 0 -3 -3 -3 -4 -6 0 -3 -5 -2 -2 -4 1 -2 -4 -4 -4 -2 0 -4 -7 -3 -1 -4 -7 -4 -1 -3 -5 -3 -4 -5 -3 -3 -10 -3 -1 -4 -8 -2 -5 -4 -9 -4 -1 -4 -9 -2 -7 -3 -8 -3 -9 -3 -9 -3 -11 -6 -11 -3 -9 -3 -14 -3 -11 -2 -16 -5 -15 -4 -20 -3 -20 -3 -32 -8 -70 0 0" stroke="#D2D2D2" stroke-width="20" fill="#D2D2D2" />
    <path d="M 35509 17626 l 8 -79 2 -32 2 -21 2 -18 2 -17 5 -17 1 -10 4 -12 1 -12 1 -8 3 -12 5 -9 2 -6 2 -11 1 -7 2 -7 3 -5 3 -8 5 -3 1 -6 3 -8 1 -4 1 -3 3 -6 2 -4 4 -4 2 -4 4 -2 0 -5 5 -1 0 -5 2 -1 3 -2 4 -4 1 -3 3 0 2 -2 3 0 2 0 2 0 3 0 3 0 2 0 2 1 2 -1 1 0 8 0 2 0 3 0 3 0 4 0 1 0 2 1 3 -1 2 0 1 0 4 2 3 0 2 3 4 5 1 1 3 1 1 5 4 2 2 5 2 1 3 4 1 4 3 4 1 7 3 3 3 3 3 7 3 7 3 3 1 8 1 5 4 7 3 7 3 11 1 6 2 9 3 12 2 8 4 13 2 11 3 10 1 18 3 17 2 17 3 21 0 32 0 79 0 70 0 32 -3 21 -2 19 -3 15 -1 17 -3 10 -2 14 -4 9 -2 12 -3 11 -2 8 -1 9 -3 9 -3 6 -4 9 -1 1 -1 9 -3 5 -3 8 -3 1 -3 10 -3 3 -1 4 -3 5 -1 1 -3 8 -2 0 -2 7 -4 0 -1 3 -3 4 -1 1 -4 2 -2 4 -3 0 -4 4 -1 3 -2 0 -3 0 -2 0 -1 12 -4 0 -3 1 -3 -1 -2 0 -8 0 -1 0 -2 0 -2 0 -2 0 -3 -12 -3 0 -2 0 -2 0 -3 -3 -2 -4 -3 0 -1 -5 -4 -2 -3 0 -2 -4 0 -2 -5 -1 0 -7 -4 -1 -2 -7 -4 -1 -2 -5 -3 -4 -1 -3 -1 -10 -3 -1 -1 -8 -5 -5 -3 -9 -3 -1 -2 -9 -1 -7 -2 -8 -2 -8 -5 -10 -3 -11 -1 -11 -1 -9 -4 -14 -1 -11 -5 -16 -2 -15 -2 -20 -2 -20 -2 -32 -8 -70 0 0" stroke="#DEDEDE" stroke-width="20" fill="#DEDEDE" />
    <path d="M 35553 17626 l 5 -79 3 -32 0 -21 1 -17 2 -18 3 -17 0 -10 2 -12 0 -12 1 -8 4 -12 1 -9 0 -5 4 -12 0 -7 2 -7 0 -5 3 -8 0 -3 3 -7 0 -7 4 -4 0 -3 3 -6 0 -4 2 -4 1 -4 2 -2 0 -5 3 -1 0 -5 3 -1 1 -2 3 -4 0 -3 3 0 0 -2 2 0 3 0 2 0 3 0 0 0 2 0 4 0 2 0 2 0 1 0 1 0 1 0 2 0 1 0 1 0 3 0 2 2 1 1 1 2 2 4 2 2 1 2 2 4 1 1 0 5 2 2 1 4 3 4 2 4 0 6 2 3 2 4 1 8 1 6 3 3 1 8 1 5 0 7 2 7 2 11 2 6 2 10 2 11 0 8 2 12 1 12 2 10 1 17 3 17 0 18 0 22 0 31 0 79 0 70 0 32 0 20 0 20 -3 15 -1 16 -2 11 -1 14 -2 9 0 11 -2 11 -2 9 -2 10 -2 7 -2 7 0 9 -1 1 -1 10 -3 4 -1 8 -1 1 -2 10 -2 3 0 4 -2 5 -3 1 -1 7 -2 2 0 6 -1 1 -2 2 -1 4 -2 1 -2 2 -1 4 -1 1 -2 3 -3 3 -1 0 -1 0 -2 0 -1 12 -1 0 -1 0 -2 0 -2 0 -4 0 -2 0 0 0 -3 0 -2 -12 -3 0 -2 -3 0 -4 -3 0 0 -4 -3 -3 -1 0 -3 -4 0 -3 -3 0 0 -7 -2 -1 -1 -7 -2 -1 0 -5 -3 -4 0 -3 -4 -9 0 -2 -3 -8 0 -5 -3 -8 0 -2 -2 -9 0 -7 -4 -8 0 -8 -1 -10 -4 -11 -1 -11 0 -9 -2 -14 0 -10 -3 -17 -2 -15 -1 -20 0 -19 -3 -33 -5 -70 0 0" stroke="#F0F0F0" stroke-width="20" fill="#F0F0F0" />
    <path d="M 35602 17626 l 5 -78 0 -33 0 -21 1 -18 0 -17 2 -17 0 -10 0 -12 0 -12 1 -8 0 -12 2 -9 0 -6 0 -11 1 -7 0 -7 0 -5 2 -8 0 -3 0 -7 1 -7 0 -4 1 -3 0 -6 0 -4 1 -4 0 -4 0 -1 0 -6 1 -1 0 -5 2 -1 0 -1 0 -5 1 -3 0 -2 3 0 1 0 0 0 1 0 4 0 0 0 3 0 0 2 0 3 2 4 0 2 0 2 0 4 0 1 2 5 0 2 0 4 0 4 2 5 0 5 1 3 1 4 0 8 0 6 0 3 2 8 0 5 0 7 0 7 0 11 1 6 2 9 0 12 0 9 0 11 0 12 0 10 0 17 0 17 0 18 0 21 0 32 0 79 0 71 0 31 0 20 0 20 0 16 0 15 0 11 0 14 0 9 0 11 0 11 -2 10 -1 8 0 9 0 6 0 9 0 1 -2 10 0 4 0 8 0 2 -1 9 -1 3 0 4 -2 5 0 1 0 7 0 1 -2 7 0 3 0 4 -2 2 0 5 0 4 0 3 -3 0 0 12 -4 0 -1 0 0 0 -1 0 0 -12 -3 1 0 -4 0 -4 -1 -5 0 -2 -2 -4 0 -3 -1 1 0 -8 0 -1 0 -6 -1 -2 0 -5 0 -3 -1 -4 0 -10 -1 -1 0 -8 0 -5 -2 -9 0 -1 0 -9 -1 -7 0 -8 0 -9 -2 -9 0 -11 -1 -11 0 -9 0 -13 0 -12 -2 -15 0 -16 -1 -20 0 -20 0 -32 -5 -70 0 0" stroke="#FFFFFF" stroke-width="20" fill="#FFFFFF" />
    <path d="M 35183 19299 l 12 -76 11 -30 8 -23 10 -20 10 -18 7 -16 9 -7 9 -14 12 -12 8 -8 9 -14 11 -8 9 -6 9 -11 10 -7 8 -6 9 -6 10 -5 8 -5 10 -8 11 -7 9 -4 6 -4 11 -7 8 -2 11 -5 9 -4 9 -2 8 -5 10 0 9 -6 9 -2 10 -1 10 -3 9 -3 9 0 9 -3 10 0 9 0 9 0 10 0 8 0 10 0 9 0 9 0 9 -1 25 1 9 -1 9 1 9 0 10 0 10 0 9 -1 8 0 9 1 10 0 9 3 9 0 11 2 8 3 8 3 10 1 10 5 9 2 10 3 8 2 9 5 8 5 11 2 9 7 8 4 11 3 9 8 10 8 10 4 10 5 7 6 10 7 8 6 9 11 10 6 10 9 8 14 10 9 7 11 13 14 6 7 11 16 10 17 9 20 9 23 9 30 4 76 -4 74 -9 28 -10 22 -9 23 -9 13 -12 15 -6 15 -11 7 -9 17 -9 10 -8 7 -10 10 -9 9 -11 8 -8 8 -9 8 -7 2 -10 7 -10 8 -9 7 -10 1 -11 8 -8 6 -9 4 -10 4 -10 1 -8 6 -9 2 -10 6 -9 3 -9 2 -10 1 -8 3 -9 1 -9 4 -9 4 -9 -1 -11 4 -9 0 -8 5 -9 0 -9 8 -11 0 -9 0 -9 0 -9 -1 -26 1 -8 0 -9 0 -9 0 -10 0 -8 -8 -11 0 -8 -5 -8 0 -11 -3 -10 -1 -8 -3 -9 -4 -10 -1 -10 -3 -9 -1 -8 -2 -10 -3 -8 -6 -10 -2 -10 -6 -11 -1 -7 -4 -10 -4 -6 -6 -11 -8 -11 -1 -8 -7 -10 -8 -9 -6 -10 -3 -8 -9 -10 -7 -8 -8 -10 -9 -10 -9 -9 -8 -7 -10 -13 -17 -8 -7 -10 -16 -7 -14 -11 -14 -9 -22 -8 -21 -11 -29 -12 -73 0 0" stroke="#000000" stroke-width="20" fill="#000000" />
    <path d="M 35230 19306 l 15 -79 9 -34 8 -22 9 -16 8 -20 9 -16 7 -10 9 -14 5 -10 12 -8 7 -13 6 -11 9 -6 10 -11 8 -7 6 -7 11 -5 9 -5 6 -6 9 -7 8 -7 7 -3 10 -4 8 -7 9 -3 7 -5 10 -4 8 -2 6 -5 8 0 11 -5 6 -2 10 -2 9 -3 5 -3 10 0 8 -3 8 0 9 0 9 0 7 0 9 0 8 0 8 0 8 0 9 0 20 0 10 0 7 0 10 0 8 -1 7 1 8 0 8 0 10 0 8 0 7 3 9 0 8 2 10 4 7 2 11 2 5 4 7 2 8 4 10 2 9 4 8 5 7 3 10 6 7 5 6 3 10 7 10 8 7 5 10 4 8 6 9 7 6 6 9 13 8 5 6 11 10 13 7 8 9 10 10 13 8 10 7 16 8 20 9 16 7 24 10 32 2 80 -2 72 -9 28 -8 25 -9 19 -8 14 -7 16 -9 13 -8 12 -9 13 -9 10 -8 8 -7 11 -7 8 -11 10 -4 9 -10 7 -9 2 -9 8 -6 5 -10 7 -11 4 -5 7 -8 5 -10 3 -7 6 -8 2 -9 6 -9 1 -8 7 -8 1 -5 3 -10 1 -8 1 -10 4 -7 1 -10 4 -6 4 -10 2 -8 0 -8 1 -10 0 -7 12 -6 0 -10 0 -8 -1 -10 1 -21 0 -7 0 -8 0 -8 0 -9 0 -10 -12 -6 0 -9 -1 -9 0 -9 -2 -7 -4 -10 -3 -6 -2 -8 -3 -10 -2 -6 -1 -11 -3 -8 -2 -6 -6 -8 -1 -10 -6 -8 -2 -8 -6 -8 -3 -10 -5 -8 -7 -7 -3 -8 -8 -7 -5 -10 -9 -9 -1 -6 -7 -9 -9 -10 -10 -8 -8 -8 -10 -7 -9 -10 -10 -6 -13 -9 -12 -7 -12 -9 -17 -8 -13 -9 -20 -8 -25 -10 -29 -14 -71 0 0" stroke="#3C3C3C" stroke-width="20" fill="#3C3C3C" />
    <path d="M 35279 19306 l 12 -79 7 -33 7 -23 8 -16 7 -20 8 -16 7 -10 8 -14 4 -10 8 -8 7 -13 10 -11 6 -5 9 -12 6 -7 6 -6 8 -6 7 -5 8 -5 7 -8 6 -7 8 -3 5 -4 10 -8 8 -2 8 -6 7 -3 5 -2 10 -4 5 -1 10 -5 6 -2 7 -3 7 -2 7 -3 7 0 9 -3 8 0 6 0 7 0 5 0 8 0 10 0 5 0 9 0 7 -1 19 1 8 -1 7 1 9 0 7 0 3 0 11 0 6 -1 8 0 8 1 5 3 8 0 8 2 7 3 6 3 8 2 8 5 7 1 8 3 6 2 8 5 8 4 6 4 10 6 6 4 7 4 6 6 9 9 7 5 9 4 6 6 6 7 7 6 6 13 9 5 9 11 4 13 9 7 9 11 5 13 9 10 7 16 6 21 7 16 9 23 6 33 3 78 -4 73 -4 29 -11 24 -7 20 -5 13 -8 17 -8 11 -5 12 -9 14 -8 9 -6 10 -8 10 -8 8 -8 10 -6 9 -6 7 -6 2 -9 8 -7 5 -9 8 -6 3 -8 7 -5 5 -9 3 -7 6 -9 2 -8 6 -5 0 -7 8 -8 0 -7 3 -9 2 -7 2 -7 3 -7 2 -8 3 -5 4 -8 2 -8 0 -6 1 -11 0 -2 12 -8 -1 -8 1 -9 0 -8 0 -18 0 -7 -1 -9 1 -6 0 -8 0 -9 -12 -6 0 -6 -1 -6 0 -9 -2 -8 -4 -7 -3 -8 -2 -6 -3 -6 -2 -7 -1 -9 -3 -7 -1 -10 -7 -5 -1 -5 -6 -9 -2 -7 -6 -11 -4 -5 -4 -8 -7 -5 -3 -8 -8 -7 -5 -8 -8 -8 -2 -7 -7 -5 -9 -9 -10 -6 -8 -10 -10 -7 -9 -7 -10 -5 -13 -9 -12 -7 -12 -8 -17 -6 -13 -8 -20 -6 -24 -8 -29 -12 -72 0 0" stroke="#5A5A5A" stroke-width="20" fill="#5A5A5A" />
    <path d="M 35321 19306 l 12 -79 5 -33 6 -23 7 -16 8 -20 4 -16 7 -10 8 -14 5 -10 9 -8 4 -13 5 -12 7 -5 6 -11 7 -7 6 -6 8 -6 5 -5 6 -5 6 -9 9 -6 4 -3 6 -4 7 -8 6 -3 8 -4 5 -5 7 -1 6 -5 8 0 5 -5 8 -2 4 -2 8 -3 5 -3 6 0 8 -3 6 0 7 0 3 0 8 0 8 0 6 0 5 0 9 -1 5 0 16 1 7 0 8 0 4 0 8 0 5 0 5 -1 9 0 6 1 6 -1 6 4 6 0 9 3 6 2 5 3 6 1 6 5 8 2 4 4 7 2 9 3 5 6 5 2 7 8 7 4 8 3 5 6 6 8 6 6 5 5 10 6 3 6 8 7 7 11 6 6 8 10 5 14 5 7 7 10 6 14 5 10 8 17 6 19 8 16 6 23 5 34 1 79 -2 72 -4 29 -7 24 -8 20 -6 13 -7 16 -6 13 -5 11 -7 13 -4 11 -6 8 -8 11 -6 7 -8 11 -6 9 -4 6 -10 3 -5 7 -6 5 -7 9 -4 3 -8 7 -6 5 -8 2 -5 7 -5 2 -8 6 -7 1 -5 7 -9 1 -6 3 -4 1 -6 2 -6 3 -9 2 -6 3 -6 4 -7 2 -5 0 -9 0 -6 1 -4 11 -7 1 -6 0 -7 0 -7 0 -16 0 -5 0 -9 0 -4 0 -8 -1 -7 -11 -7 0 -4 -1 -7 0 -6 -2 -8 -4 -5 -3 -6 -2 -7 -3 -5 -2 -9 -1 -5 -3 -6 -1 -8 -7 -5 -1 -6 -6 -7 -2 -6 -6 -7 -3 -6 -5 -5 -7 -8 -3 -6 -8 -6 -5 -6 -8 -8 -2 -6 -7 -7 -9 -5 -10 -8 -8 -4 -10 -5 -9 -9 -10 -5 -13 -9 -12 -5 -12 -5 -17 -9 -14 -7 -20 -5 -23 -5 -29 -12 -72 0 0" stroke="#808080" stroke-width="20" fill="#808080" />
    <path d="M 35370 19306 l 11 -79 7 -33 5 -23 4 -16 4 -21 8 -15 5 -11 6 -13 5 -10 3 -8 6 -13 7 -11 5 -6 3 -11 6 -7 8 -6 4 -6 4 -5 8 -5 6 -8 3 -7 6 -3 4 -4 7 -7 6 -3 6 -6 3 -3 4 -2 6 -4 6 -1 4 -5 7 -2 6 -2 5 -3 6 -3 4 0 5 -3 7 0 5 0 3 0 6 -1 6 1 5 0 7 0 7 -1 3 0 15 1 3 0 9 -1 3 1 5 0 6 0 6 0 6 0 4 0 6 0 7 3 4 -1 6 3 4 3 6 3 6 2 4 5 6 1 4 3 5 3 9 3 2 6 6 2 6 8 5 4 6 2 5 8 5 7 5 6 6 5 6 5 6 6 5 7 6 13 4 5 5 10 5 14 6 8 6 10 4 13 7 11 6 15 4 21 5 16 6 22 5 34 1 79 0 71 -6 30 -5 24 -7 19 -3 14 -5 16 -8 13 -4 11 -6 14 -6 9 -5 10 -5 10 -5 8 -5 10 -5 8 -6 8 -7 2 -4 8 -6 5 -6 8 -5 3 -4 7 -6 5 -6 2 -5 7 -3 1 -8 7 -6 1 -4 6 -6 2 -3 3 -7 1 -7 2 -3 3 -6 2 -4 3 -8 4 -5 2 -4 0 -5 1 -7 0 -7 12 -4 0 -3 0 -8 0 -4 0 -16 0 -2 0 -7 -1 -7 1 -4 0 -6 -12 -6 0 -5 -1 -5 0 -5 -2 -5 -4 -5 -3 -7 -2 -4 -3 -6 -2 -6 -1 -6 -3 -5 -1 -6 -7 -4 -1 -4 -6 -6 -2 -6 -6 -7 -3 -3 -5 -7 -7 -2 -3 -6 -8 -8 -5 -3 -8 -5 -2 -8 -7 -6 -9 -3 -10 -5 -8 -6 -10 -7 -9 -3 -10 -5 -13 -6 -12 -4 -12 -9 -17 -4 -13 -5 -20 -4 -24 -8 -30 -10 -71 0 0" stroke="#969696" stroke-width="20" fill="#969696" />
    <path d="M 35416 19305 l 10 -78 5 -33 5 -23 2 -17 6 -19 4 -16 6 -10 3 -14 5 -10 4 -8 2 -14 6 -10 2 -5 7 -12 4 -7 6 -6 3 -6 5 -5 4 -6 6 -7 2 -8 5 -2 4 -4 4 -7 5 -3 4 -5 5 -4 5 -2 3 -4 4 -1 5 -5 6 -2 3 -2 3 -3 5 -3 5 0 5 -3 3 0 5 -1 5 1 3 0 5 0 4 0 5 -1 5 0 3 0 12 1 4 0 5 0 4 0 5 0 3 0 7 0 2 0 5 0 3 0 6 3 3 0 4 3 4 3 7 1 4 3 4 5 3 1 7 4 3 1 3 5 5 5 5 2 3 7 4 5 5 3 5 7 4 8 6 5 3 5 6 6 4 5 4 8 3 11 5 6 3 11 6 12 3 9 6 10 4 13 4 11 4 16 7 20 2 15 6 23 2 34 0 79 1 72 -3 28 -6 24 -2 20 -6 13 -4 18 -6 12 -2 12 -7 13 -3 9 -5 10 -4 10 -6 8 -1 9 -5 9 -4 8 -7 2 -2 8 -6 5 -3 8 -6 3 -4 7 -4 5 -4 2 -5 7 -4 2 -4 6 -3 1 -6 7 -4 1 -5 3 -3 1 -6 2 -4 3 -5 2 -4 3 -5 4 -2 2 -6 0 -3 1 -5 0 -5 12 -4 -1 -3 1 -7 0 -4 0 -12 0 -2 0 -5 0 -5 0 -4 0 -4 -12 -5 0 -4 -1 -5 0 -3 -2 -5 -4 -6 -3 -3 -2 -4 -4 -3 -1 -5 -1 -6 -3 -4 -1 -3 -7 -5 -1 -5 -6 -4 -2 -5 -6 -4 -3 -5 -5 -4 -7 -2 -3 -5 -8 -5 -5 -5 -8 -4 -3 -5 -6 -4 -10 -8 -9 0 -8 -6 -10 -3 -9 -4 -11 -6 -12 -3 -12 -6 -13 -4 -16 -5 -13 -2 -20 -5 -24 -5 -29 -10 -73 0 0" stroke="#C0C0C0" stroke-width="20" fill="#C0C0C0" />
    <path d="M 35463 19306 l 7 -79 4 -33 3 -23 4 -16 5 -20 2 -16 3 -10 3 -14 3 -10 5 -8 3 -14 4 -10 3 -5 3 -12 2 -7 4 -6 3 -6 5 -5 1 -6 4 -7 3 -7 3 -3 5 -4 3 -7 4 -3 3 -5 5 -4 2 -2 4 -4 3 -1 4 -5 2 -2 4 -2 1 -3 4 -3 6 0 2 -3 4 0 2 0 4 0 4 0 5 0 3 -1 3 1 2 -1 3 0 10 1 2 0 3 0 3 0 6 -1 4 1 2 0 2 0 4 0 5 0 3 3 5 0 0 3 4 2 6 3 2 2 3 5 4 0 2 5 4 1 3 5 4 5 5 2 2 7 2 5 4 3 4 7 5 8 3 4 2 6 2 6 3 6 4 6 5 13 2 5 3 11 5 12 3 9 3 10 4 14 1 10 6 16 3 20 2 16 4 23 3 33 0 79 0 72 -2 29 -4 23 -2 20 -5 14 -5 16 -2 13 -4 12 -3 13 -2 10 -4 9 -3 10 -4 8 -4 9 -3 10 -4 7 -2 2 -3 8 -2 5 -5 8 -5 3 -4 7 -2 5 -1 3 -5 6 -4 1 -3 7 -5 1 -2 7 -3 1 -4 3 -2 1 -5 2 -3 3 -1 2 -4 3 -4 4 -4 2 -4 0 -3 1 -2 0 -5 12 -4 0 -4 0 -4 0 -2 0 -10 0 -2 0 -3 0 -2 0 -4 0 -3 -12 -5 0 -3 -1 -3 0 -3 -2 -4 -4 -5 -3 -4 -2 -1 -3 -4 -2 -2 -1 -4 -3 -2 -1 -5 -7 -1 -1 -6 -6 -4 -3 -3 -5 -2 -3 -6 -5 -2 -7 -3 -3 -4 -8 -3 -5 -3 -8 -4 -2 -5 -7 -2 -9 -3 -10 -3 -8 -3 -10 -2 -9 -6 -10 -4 -13 -2 -13 -3 -11 -2 -17 -6 -13 -3 -20 -4 -24 -2 -29 -8 -72 0 0" stroke="#D2D2D2" stroke-width="20" fill="#D2D2D2" />
    <path d="M 35509 19306 l 7 -79 3 -33 2 -23 1 -16 3 -20 5 -16 1 -10 3 -14 2 -10 1 -8 3 -13 5 -11 2 -5 2 -12 1 -7 2 -6 3 -6 2 -5 5 -6 2 -7 2 -7 2 -3 1 -4 2 -8 3 -2 4 -5 2 -4 4 -2 -1 -5 5 -1 1 -4 2 -2 2 -2 5 -3 0 -3 4 0 1 -3 3 0 2 0 3 0 3 -1 3 1 2 -1 1 1 2 0 2 0 8 0 2 0 3 0 3 0 3 0 1 0 3 0 3 0 2 0 0 0 5 2 3 1 2 3 3 3 1 2 3 2 2 5 4 1 1 4 3 1 3 5 1 5 3 2 1 8 3 3 3 3 2 8 4 7 3 5 1 6 1 5 3 7 4 7 3 11 1 6 1 11 3 13 2 8 5 10 2 14 3 10 1 15 3 21 2 16 3 23 0 33 0 79 -1 72 1 29 -4 24 -1 19 -3 14 -2 17 -2 11 -2 13 -5 13 -1 9 -4 10 -1 10 -1 8 -3 10 -3 9 -5 7 0 2 -1 8 -4 5 -2 8 -4 3 -2 7 -3 5 -1 3 -3 6 -2 2 -2 6 -2 1 -2 7 -4 1 -1 3 -3 1 -1 2 -4 3 -2 2 -3 3 -4 4 -2 2 -1 0 -3 1 -2 0 -1 12 -5 0 -2 0 -4 0 -2 0 -7 0 -2 0 -2 0 -1 0 -3 0 -2 -12 -3 0 -2 -1 -2 0 -3 -2 -3 -4 -2 -3 -2 -2 -3 -3 -3 -2 -2 -1 0 -3 -6 -1 1 -7 -4 -1 -2 -6 -4 -2 -3 -6 -2 -3 -1 -5 -2 -7 -2 -3 -2 -8 -4 -5 -4 -8 -2 -2 -2 -7 -2 -9 -1 -10 -3 -9 -4 -9 -3 -9 -1 -10 -1 -13 -4 -12 -2 -12 -4 -17 -3 -13 -1 -21 -3 -23 -2 -29 -7 -72 0 0" stroke="#DEDEDE" stroke-width="20" fill="#DEDEDE" />
    <path d="M 35552 19305 l 5 -78 4 -33 0 -23 0 -17 2 -19 3 -16 1 -10 2 -14 -1 -10 2 -8 3 -13 2 -11 0 -5 4 -12 0 -7 1 -6 1 -6 3 -5 0 -5 3 -8 -1 -7 4 -3 0 -4 4 -8 -1 -2 3 -5 1 -4 2 -2 -1 -4 4 -1 -1 -5 4 -2 1 -2 2 -3 1 -3 3 -1 0 -3 2 0 3 1 2 -1 3 0 0 0 2 1 4 0 2 0 2 0 1 0 1 0 1 0 2 0 1 0 0 0 4 0 1 3 2 0 1 2 2 4 1 2 2 2 2 4 1 2 -1 4 3 2 0 4 3 5 3 3 0 7 2 4 2 3 1 7 1 8 3 5 1 4 1 6 -1 7 3 7 1 12 3 5 1 11 3 12 0 8 2 11 1 14 2 10 1 16 3 20 -1 16 0 23 1 33 0 79 0 72 0 28 0 24 -1 21 -2 13 -2 17 -2 12 -1 12 -1 12 -1 10 -1 10 -2 10 -2 8 -2 10 -2 8 0 8 -1 2 -1 7 -4 6 0 8 -1 3 -2 7 -2 5 0 3 -2 6 -3 2 -1 6 -2 1 -1 7 0 1 -2 3 -1 1 -2 2 -2 3 -2 2 0 3 -2 4 -3 2 -2 0 -1 1 -1 0 -2 12 0 0 -2 0 -1 0 -2 -1 -4 1 -3 0 0 0 -2 0 -2 -12 -4 -1 -1 -2 -1 -4 -3 -3 1 -2 -3 -3 -1 -2 -4 -1 1 -3 -3 -1 -1 -7 -2 -1 -1 -6 -1 -2 0 -6 -4 -3 0 -5 -3 -7 0 -3 -3 -8 0 -5 -3 -8 0 -2 -2 -7 0 -9 -5 -10 0 -8 0 -10 -5 -9 -1 -10 1 -13 -2 -12 -1 -12 -2 -17 -2 -13 -1 -20 0 -24 -3 -29 -6 -73 0 0" stroke="#F0F0F0" stroke-width="20" fill="#F0F0F0" />
    <path d="M 35602 19306 l 5 -79 0 -33 0 -23 1 -16 0 -20 2 -16 -1 -10 0 -14 1 -10 1 -8 -1 -13 3 -11 0 -5 0 -12 0 -7 0 -6 1 -6 2 -5 -1 -5 1 -8 1 -7 0 -4 1 -3 0 -7 0 -3 0 -5 1 -4 -1 -2 1 -4 1 -1 0 -5 1 -2 1 -2 -1 -3 2 -3 -1 -3 4 0 1 -1 0 0 1 1 4 0 0 0 3 0 0 3 0 3 1 3 1 2 -1 2 0 5 0 0 3 5 0 2 0 4 -1 5 3 3 0 7 0 4 1 3 1 7 0 8 -1 5 2 5 0 6 0 6 0 7 0 12 2 5 2 11 0 13 0 8 0 9 -1 15 1 10 0 16 0 20 0 16 0 23 0 33 0 79 0 72 -1 28 1 25 0 19 0 14 -1 17 1 12 -1 12 1 13 0 10 0 9 -3 10 0 8 0 10 0 9 -1 7 0 2 -2 8 0 5 0 8 0 3 -1 7 0 5 0 3 -3 6 1 2 0 6 0 1 -2 7 -1 1 1 3 0 1 0 2 -2 2 -1 3 1 3 0 4 -1 2 -2 1 -1 12 -3 -1 -2 1 0 0 0 0 0 -12 0 -1 -3 0 0 -2 0 -5 0 -2 -1 -2 0 -3 0 -3 -2 0 0 -3 -1 -1 -1 -7 1 -1 0 -6 -1 -2 0 -6 0 -3 -2 -5 0 -7 -1 -4 0 -7 1 -5 -2 -8 -1 -2 0 -7 0 -9 0 -10 -1 -8 -2 -10 1 -9 -1 -10 0 -13 0 -12 0 -12 -2 -17 0 -13 -2 -20 0 -24 1 -29 -5 -72 0 0" stroke="#FFFFFF" stroke-width="20" fill="#FFFFFF" />
    <path d="M 35648 17626 l -46 0 -1 1676 47 0 0 -1676 0 0" stroke="#FFFFFF" stroke-width="20" fill="#FFFFFF" />
    <path d="M 36057 17626 l -44 1 0 1670 44 1 0 -1672 0 0" stroke="#000000" stroke-width="20" fill="#000000" />
    <path d="M 36013 17627 l -41 0 0 1670 41 0 0 -1670 0 0" stroke="#3C3C3C" stroke-width="20" fill="#3C3C3C" />
    <path d="M 35971 17626 l -44 1 0 1666 43 1 1 -1668 0 0" stroke="#5A5A5A" stroke-width="20" fill="#5A5A5A" />
    <path d="M 35924 17627 l -44 -1 -1 1672 44 0 1 -1671 0 0" stroke="#808080" stroke-width="20" fill="#808080" />
    <path d="M 35880 17626 l -47 0 0 1672 46 0 1 -1672 0 0" stroke="#969696" stroke-width="20" fill="#969696" />
    <path d="M 35833 17626 l -48 0 0 1672 48 0 0 -1672 0 0" stroke="#C0C0C0" stroke-width="20" fill="#C0C0C0" />
    <path d="M 35785 17626 l -42 0 -1 1672 43 0 0 -1672 0 0" stroke="#D2D2D2" stroke-width="20" fill="#D2D2D2" />
    <path d="M 35743 17626 l -47 1 -1 1671 47 0 1 -1672 0 0" stroke="#DEDEDE" stroke-width="20" fill="#DEDEDE" />
    <path d="M 35696 17627 l -48 -1 -1 1672 48 0 1 -1671 0 0" stroke="#F0F0F0" stroke-width="20" fill="#F0F0F0" />
    <path d="M 35182 17627 l 54 -1 0 1672 -54 0 0 -1671 0 0" stroke="#000000" stroke-width="20" fill="#000000" />
    <path d="M 35236 17626 l 44 0 0 1672 -44 0 0 -1672 0 0" stroke="#3C3C3C" stroke-width="20" fill="#3C3C3C" />
    <path d="M 35282 17626 l 42 0 0 1668 -42 0 0 -1668 0 0" stroke="#5A5A5A" stroke-width="20" fill="#5A5A5A" />
    <path d="M 35329 17626 l 44 0 -1 1672 -43 0 0 -1672 0 0" stroke="#808080" stroke-width="20" fill="#808080" />
    <path d="M 35373 17626 l 48 0 0 1672 -49 0 1 -1672 0 0" stroke="#969696" stroke-width="20" fill="#969696" />
    <path d="M 35421 17626 l 50 0 0 1672 -50 0 0 -1672 0 0" stroke="#C0C0C0" stroke-width="20" fill="#C0C0C0" />
    <path d="M 35471 17626 l 43 0 -1 1672 -42 0 0 -1672 0 0" stroke="#D2D2D2" stroke-width="20" fill="#D2D2D2" />
    <path d="M 35514 17626 l 49 0 0 1672 -50 0 1 -1672 0 0" stroke="#DEDEDE" stroke-width="20" fill="#DEDEDE" />
    <path d="M 35563 17626 l 39 0 -1 1672 -38 0 0 -1672 0 0" stroke="#F0F0F0" stroke-width="20" fill="#F0F0F0" />
  </g>
  <path id="LINE1634" d="M 22400 16540 l 0 -600" stroke="#FF0000" stroke-width="40" fill="none" />
  <path id="LINE1635" d="M 11380 16600 l 0 -1840" stroke="#FF0000" stroke-width="40" fill="none" />
  <path d="M 33540 7460 l 0 420 540 0 0 -460 520 0" stroke="#000000" stroke-width="20" fill="none" />
  <path d="M 34600 7460 l 0 420 540 0 0 -460 520 0" stroke="#000000" stroke-width="20" fill="none" />
  <path d="M 36200 7460 l 0 420 -540 0 0 -460 -520 0" stroke="#000000" stroke-width="20" fill="none" />
  <path d="M 34600 7420 l 0 340" stroke="#000000" stroke-width="20" fill="none" />
  <path d="M 33540 9040 l 0 -420 540 0 0 460 520 0" stroke="#000000" stroke-width="20" fill="none" />
  <path d="M 34600 9040 l 0 -420 540 0 0 460 520 0" stroke="#000000" stroke-width="20" fill="none" />
  <path d="M 36200 9040 l 0 -420 -540 0 0 460 -520 0" stroke="#000000" stroke-width="20" fill="none" />
  <path d="M 34600 9060 l 0 -320" stroke="#000000" stroke-width="20" fill="none" />
  <path d="M 44480 7460 l 0 420 540 0 0 -460 520 0" stroke="#000000" stroke-width="20" fill="none" />
  <path d="M 45540 7460 l 0 420 540 0 0 -460 520 0" stroke="#000000" stroke-width="20" fill="none" />
  <path d="M 47140 7460 l 0 420 -540 0 0 -460 -520 0" stroke="#000000" stroke-width="20" fill="none" />
  <path d="M 45540 7420 l 0 340" stroke="#000000" stroke-width="20" fill="none" />
  <path d="M 44480 9040 l 0 -420 540 0 0 460 520 0" stroke="#000000" stroke-width="20" fill="none" />
  <path d="M 45540 9040 l 0 -420 540 0 0 460 520 0" stroke="#000000" stroke-width="20" fill="none" />
  <path d="M 47140 9040 l 0 -420 -540 0 0 460 -520 0" stroke="#000000" stroke-width="20" fill="none" />
  <path d="M 45540 9060 l 0 -320" stroke="#000000" stroke-width="20" fill="none" />
  <g name="Valve3d5">
    <path d="M 56418 11849 l -1238 491 1238 497 0 -988 0 0" stroke-width="0" fill="#808080" />
    <path d="M 56418 11892 l -1238 448 1238 448 0 -896 0 0" stroke-width="0" fill="#969696" />
    <path d="M 56418 11998 l -1238 342 1238 342 0 -684 0 0" stroke-width="0" fill="#B4B4B4" />
    <path d="M 56418 12091 l -1238 249 1238 249 0 -498 0 0" stroke-width="0" fill="#D2D2D2" />
    <path d="M 56418 12172 l -1238 168 1238 174 0 -342 0 0" stroke-width="0" fill="#DEDEDE" />
    <path d="M 56418 12284 l -1238 56 1238 62 0 -118 0 0" stroke-width="0" fill="#FFFFFF" />
    <path d="M 56418 11849 l -1238 491 1238 497 0 -988" stroke="#000000" stroke-width="20" fill="none" />
    <path d="M 53942 11849 l 1238 491 -1238 497 0 -988 0 0" stroke-width="0" fill="#808080" />
    <path d="M 53942 11892 l 1238 448 -1238 448 0 -896 0 0" stroke-width="0" fill="#969696" />
    <path d="M 53942 11998 l 1238 342 -1238 342 0 -684 0 0" stroke-width="0" fill="#B4B4B4" />
    <path d="M 53942 12091 l 1238 249 -1238 249 0 -498 0 0" stroke-width="0" fill="#D2D2D2" />
    <path d="M 53942 12172 l 1238 168 -1238 174 0 -342 0 0" stroke-width="0" fill="#DEDEDE" />
    <path d="M 53942 12284 l 1238 56 -1238 62 0 -118 0 0" stroke-width="0" fill="#FFFFFF" />
    <path d="M 53942 11849 l 1238 491 -1238 497 0 -988" stroke="#000000" stroke-width="20" fill="none" />
  </g>
  <g name="Valve3d5">
    <path d="M 37036 5181 l -256 -521 -259 521 515 0 0 0" stroke-width="0" fill="#808080" />
    <path d="M 37013 5181 l -233 -521 -233 521 466 0 0 0" stroke-width="0" fill="#969696" />
    <path d="M 36958 5181 l -178 -521 -178 521 356 0 0 0" stroke-width="0" fill="#B4B4B4" />
    <path d="M 36909 5181 l -129 -521 -129 521 258 0 0 0" stroke-width="0" fill="#D2D2D2" />
    <path d="M 36867 5181 l -87 -521 -91 521 178 0 0 0" stroke-width="0" fill="#DEDEDE" />
    <path d="M 36809 5181 l -29 -521 -32 521 61 0 0 0" stroke-width="0" fill="#FFFFFF" />
    <path d="M 37036 5181 l -256 -521 -259 521 515 0" stroke="#000000" stroke-width="20" fill="none" />
    <path d="M 37036 4139 l -256 521 -259 -521 515 0 0 0" stroke-width="0" fill="#808080" />
    <path d="M 37013 4139 l -233 521 -233 -521 466 0 0 0" stroke-width="0" fill="#969696" />
    <path d="M 36958 4139 l -178 521 -178 -521 356 0 0 0" stroke-width="0" fill="#B4B4B4" />
    <path d="M 36909 4139 l -129 521 -129 -521 258 0 0 0" stroke-width="0" fill="#D2D2D2" />
    <path d="M 36867 4139 l -87 521 -91 -521 178 0 0 0" stroke-width="0" fill="#DEDEDE" />
    <path d="M 36809 4139 l -29 521 -32 -521 61 0 0 0" stroke-width="0" fill="#FFFFFF" />
    <path d="M 37036 4139 l -256 521 -259 -521 515 0" stroke="#000000" stroke-width="20" fill="none" />
  </g>
  <g name="Valve3d5">
    <path d="M 37036 6861 l -256 -521 -259 521 515 0 0 0" stroke-width="0" fill="#808080" />
    <path d="M 37013 6861 l -233 -521 -233 521 466 0 0 0" stroke-width="0" fill="#969696" />
    <path d="M 36958 6861 l -178 -521 -178 521 356 0 0 0" stroke-width="0" fill="#B4B4B4" />
    <path d="M 36909 6861 l -129 -521 -129 521 258 0 0 0" stroke-width="0" fill="#D2D2D2" />
    <path d="M 36867 6861 l -87 -521 -91 521 178 0 0 0" stroke-width="0" fill="#DEDEDE" />
    <path d="M 36809 6861 l -29 -521 -32 521 61 0 0 0" stroke-width="0" fill="#FFFFFF" />
    <path d="M 37036 6861 l -256 -521 -259 521 515 0" stroke="#000000" stroke-width="20" fill="none" />
    <path d="M 37036 5819 l -256 521 -259 -521 515 0 0 0" stroke-width="0" fill="#808080" />
    <path d="M 37013 5819 l -233 521 -233 -521 466 0 0 0" stroke-width="0" fill="#969696" />
    <path d="M 36958 5819 l -178 521 -178 -521 356 0 0 0" stroke-width="0" fill="#B4B4B4" />
    <path d="M 36909 5819 l -129 521 -129 -521 258 0 0 0" stroke-width="0" fill="#D2D2D2" />
    <path d="M 36867 5819 l -87 521 -91 -521 178 0 0 0" stroke-width="0" fill="#DEDEDE" />
    <path d="M 36809 5819 l -29 521 -32 -521 61 0 0 0" stroke-width="0" fill="#FFFFFF" />
    <path d="M 37036 5819 l -256 521 -259 -521 515 0" stroke="#000000" stroke-width="20" fill="none" />
  </g>
  <g name="Valve3d5">
    <path d="M 18959 25976 l 521 -256 -521 -259 0 515 0 0" stroke-width="0" fill="#808080" />
    <path d="M 18959 25953 l 521 -233 -521 -233 0 466 0 0" stroke-width="0" fill="#969696" />
    <path d="M 18960 25898 l 520 -178 -520 -178 0 356 0 0" stroke-width="0" fill="#B4B4B4" />
    <path d="M 18959 25849 l 521 -129 -521 -129 0 258 0 0" stroke-width="0" fill="#D2D2D2" />
    <path d="M 18959 25807 l 521 -87 -521 -91 0 178 0 0" stroke-width="0" fill="#DEDEDE" />
    <path d="M 18959 25748 l 521 -28 -521 -32 0 60 0 0" stroke-width="0" fill="#FFFFFF" />
    <path d="M 18959 25976 l 521 -256 -521 -259 0 515" stroke="#000000" stroke-width="20" fill="none" />
    <path d="M 20000 25976 l -520 -256 521 -259 -1 515 0 0" stroke-width="0" fill="#808080" />
    <path d="M 20001 25953 l -521 -233 521 -233 0 466 0 0" stroke-width="0" fill="#969696" />
    <path d="M 20000 25898 l -520 -178 521 -177 -1 355 0 0" stroke-width="0" fill="#B4B4B4" />
    <path d="M 20001 25848 l -521 -128 521 -128 0 256 0 0" stroke-width="0" fill="#D2D2D2" />
    <path d="M 20000 25807 l -520 -87 521 -90 -1 177 0 0" stroke-width="0" fill="#DEDEDE" />
    <path d="M 20001 25749 l -521 -29 521 -31 0 60 0 0" stroke-width="0" fill="#FFFFFF" />
    <path d="M 20000 25976 l -520 -256 521 -259 -1 515" stroke="#000000" stroke-width="20" fill="none" />
  </g>
  <path id="LINE1748" d="M 24600 10480 l 0 880" stroke="#000000" stroke-width="20" stroke-dasharray="60,60" fill="none" />
  <path id="POLYGON1748" d="M 24720 11000 l -260 0 140 260 120 -260 0 0" stroke-width="0" fill="#000000" />
  <path d="M 24600 11400 l 0 720" stroke="#000000" stroke-width="40" fill="none" />
  <path d="M 24200 12280 l 0 -360 800 360 0 -360 -800 360" stroke="#000000" stroke-width="20" fill="#787878" />
  <path d="M 24600 11640 l 299 6 1 -6 -1 -7 0 -7 0 -6 0 -7 -1 -7 0 -6 -1 -7 0 -6 -1 -7 -1 -6 -1 -7 -1 -7 -1 -6 -1 -6 -2 -7 -1 -6 -2 -7 -1 -6 -2 -6 -2 -6 -1 -7 -2 -6 -2 -6 -2 -6 -3 -6 -2 -6 -2 -6 -3 -6 -2 -6 -3 -5 -2 -6 -3 -6 -3 -5 -3 -6 -3 -5 -3 -6 -3 -5 -3 -5 -3 -6 -4 -5 -3 -5 -4 -5 -3 -5 -4 -4 -3 -5 -4 -5 -4 -4 -4 -5 -4 -4 -4 -5 -4 -4 -4 -4 -4 -4 -4 -4 -4 -4 -5 -4 -4 -3 -5 -4 -4 -3 -4 -4 -5 -3 -5 -3 -4 -3 -5 -3 -5 -3 -4 -3 -5 -2 -5 -3 -5 -2 -5 -3 -5 -2 -5 -2 -5 -2 -5 -2 -5 -2 -5 -1 -5 -2 -5 -1 -5 -2 -5 -1 -6 -1 -5 -1 -5 -1 -5 0 -5 -1 -6 -1 -5 0 -5 0 -5 0 -5 0 -6 0 -5 0 -5 0 -5 0 -6 1 -5 1 -5 0 -5 1 -5 1 -6 1 -5 1 -5 2 -5 1 -5 2 -5 1 -5 2 -5 2 -5 2 -5 2 -5 2 -5 3 -5 2 -5 3 -5 2 -4 3 -5 3 -5 3 -4 3 -5 3 -4 3 -5 4 -4 3 -5 4 -4 3 -5 4 -4 4 -4 4 -4 4 -4 4 -4 4 -4 5 -4 4 -4 5 -4 4 -4 5 -3 5 -4 4 -3 5 -4 5 -3 5 -4 5 -3 6 -3 5 -3 5 -3 6 -3 5 -3 6 -3 5 -3 6 -2 5 -3 6 -2 6 -3 6 -2 6 -2 6 -3 6 -2 6 -2 6 -2 6 -1 7 -2 6 -2 6 -1 6 -2 7 -1 6 -2 7 -1 6 -1 6 -1 7 -1 7 -1 6 -1 7 0 6 -1 7 0 6 -1 7 0 7 0 6 0 7 0 6 0 7 300 -6" stroke="#000000" stroke-width="20" fill="#969696" />
  <path d="M 24600 12100 l -60 -260 160 0 -100 260 0 0" stroke="#000000" stroke-width="20" fill="#969696" />
  <path id="LINE1751" d="M 15520 24160 l 0 820" stroke="#000000" stroke-width="20" stroke-dasharray="60,60" fill="none" />
  <path id="POLYGON1751" d="M 15640 24620 l -260 0 140 240 120 -240 0 0" stroke-width="0" fill="#000000" />
  <path d="M 15520 25000 l 0 660" stroke="#000000" stroke-width="40" fill="none" />
  <path d="M 15120 25820 l 0 -340 800 340 0 -340 -800 340" stroke="#000000" stroke-width="20" fill="#787878" />
  <path d="M 15520 25220 l 299 6 1 -6 -1 -7 0 -6 0 -6 0 -7 -1 -6 0 -6 -1 -6 0 -7 -1 -6 -1 -6 -1 -6 -1 -6 -1 -6 -1 -7 -2 -6 -1 -6 -2 -6 -1 -6 -2 -6 -2 -6 -1 -6 -2 -5 -2 -6 -2 -6 -3 -6 -2 -5 -2 -6 -3 -6 -2 -5 -3 -5 -2 -6 -3 -5 -3 -6 -3 -5 -3 -5 -3 -5 -3 -5 -3 -5 -3 -5 -4 -5 -3 -5 -4 -4 -3 -5 -4 -5 -3 -4 -4 -4 -4 -5 -4 -4 -4 -4 -4 -4 -4 -4 -4 -4 -4 -4 -4 -4 -4 -3 -5 -4 -4 -3 -5 -4 -4 -3 -4 -3 -5 -3 -5 -3 -4 -3 -5 -3 -5 -3 -4 -2 -5 -3 -5 -2 -5 -3 -5 -2 -5 -2 -5 -2 -5 -2 -5 -2 -5 -1 -5 -2 -5 -1 -5 -2 -5 -1 -5 -1 -6 -1 -5 -1 -5 -1 -5 -1 -5 0 -6 -1 -5 0 -5 0 -5 0 -5 0 -6 0 -5 0 -5 0 -5 0 -6 1 -5 0 -5 1 -5 1 -5 1 -6 1 -5 1 -5 1 -5 2 -5 1 -5 2 -5 1 -5 2 -5 2 -5 2 -5 2 -5 2 -5 3 -5 2 -5 3 -4 2 -5 3 -5 3 -4 3 -5 3 -4 3 -5 3 -4 3 -5 4 -4 3 -5 4 -4 3 -4 4 -4 4 -4 4 -4 4 -4 4 -4 4 -4 4 -4 5 -4 4 -3 4 -4 5 -3 5 -4 4 -3 5 -4 5 -3 5 -3 5 -3 5 -3 5 -3 5 -3 5 -3 6 -3 5 -2 5 -3 6 -2 5 -3 6 -2 6 -2 5 -3 6 -2 6 -2 6 -2 5 -1 6 -2 6 -2 6 -1 6 -2 6 -1 6 -2 6 -1 7 -1 6 -1 6 -1 6 -1 6 -1 6 0 7 -1 6 0 6 -1 6 0 7 0 6 0 6 0 6 0 7 300 -6" stroke="#000000" stroke-width="20" fill="#969696" />
  <path d="M 15520 25640 l -60 -240 160 0 -100 240 0 0" stroke="#000000" stroke-width="20" fill="#969696" />
  <path id="POLYGON1754" d="M 22320 28120 l -260 0 140 240 120 -240 0 0" stroke-width="0" fill="#000000" />
  <path d="M 22200 28500 l 0 660" stroke="#000000" stroke-width="40" fill="none" />
  <path d="M 21800 29320 l 0 -340 800 340 0 -340 -800 340" stroke="#000000" stroke-width="20" fill="#787878" />
  <path d="M 22200 28720 l 299 6 1 -6 -1 -7 0 -6 0 -6 0 -7 -1 -6 0 -6 -1 -6 0 -7 -1 -6 -1 -6 -1 -6 -1 -6 -1 -6 -1 -7 -2 -6 -1 -6 -2 -6 -1 -6 -2 -6 -2 -6 -1 -6 -2 -5 -2 -6 -2 -6 -3 -6 -2 -5 -2 -6 -3 -6 -2 -5 -3 -5 -2 -6 -3 -5 -3 -6 -3 -5 -3 -5 -3 -5 -3 -5 -3 -5 -3 -5 -4 -5 -3 -5 -4 -4 -3 -5 -4 -5 -3 -4 -4 -4 -4 -5 -4 -4 -4 -4 -4 -4 -4 -4 -4 -4 -4 -4 -4 -4 -4 -3 -5 -4 -4 -3 -5 -4 -4 -3 -4 -3 -5 -3 -5 -3 -4 -3 -5 -3 -5 -3 -4 -2 -5 -3 -5 -2 -5 -3 -5 -2 -5 -2 -5 -2 -5 -2 -5 -2 -5 -1 -5 -2 -5 -1 -5 -2 -5 -1 -5 -1 -6 -1 -5 -1 -5 -1 -5 -1 -5 0 -6 -1 -5 0 -5 0 -5 0 -5 0 -6 0 -5 0 -5 0 -5 0 -6 1 -5 0 -5 1 -5 1 -5 1 -6 1 -5 1 -5 1 -5 2 -5 1 -5 2 -5 1 -5 2 -5 2 -5 2 -5 2 -5 2 -5 3 -5 2 -5 3 -4 2 -5 3 -5 3 -4 3 -5 3 -4 3 -5 3 -4 3 -5 4 -4 3 -5 4 -4 3 -4 4 -4 4 -4 4 -4 4 -4 4 -4 4 -4 4 -4 5 -4 4 -3 4 -4 5 -3 5 -4 4 -3 5 -4 5 -3 5 -3 5 -3 5 -3 5 -3 5 -3 5 -3 6 -3 5 -2 5 -3 6 -2 5 -3 6 -2 6 -2 5 -3 6 -2 6 -2 6 -2 5 -1 6 -2 6 -2 6 -1 6 -2 6 -1 6 -2 6 -1 7 -1 6 -1 6 -1 6 -1 6 -1 6 0 7 -1 6 0 6 -1 6 0 7 0 6 0 6 0 6 0 7 300 -6" stroke="#000000" stroke-width="20" fill="#969696" />
  <path d="M 22200 29140 l -60 -240 160 0 -100 240 0 0" stroke="#000000" stroke-width="20" fill="#969696" />
  <path id="POLYGON1758" d="M 2340 3560 l -980 140 0 -80 -960 0 0 -120 0 0 960 0 0 -80 980 140 0 0" stroke="#FF0000" stroke-width="20" fill="#C0C0C0" />
  <path id="POLYGON1759" d="M 35500 9580 l -320 0 200 -300 120 300 0 0" stroke-width="0" fill="#FF0000" />
  <path id="POLYGON1760" d="M 46600 9480 l -320 0 200 -300 120 300 0 0" stroke-width="0" fill="#FF0000" />
  <path id="POLYGON1761" d="M 39840 15060 l -320 0 200 -300 120 300 0 0" stroke-width="0" fill="#FF0000" />
  <path id="POLYGON1762" d="M 47720 15060 l -320 0 200 -300 120 300 0 0" stroke-width="0" fill="#FF0000" />
  <path id="POLYGON1763" d="M 7980 17600 l -320 0 200 -300 120 300 0 0" stroke-width="0" fill="#FF0000" />
  <path id="POLYGON1764" d="M 10540 16480 l 0 320 -300 -200 300 -120 0 0" stroke-width="0" fill="#FF0000" />
  <path id="POLYGON1765" d="M 15860 16380 l 0 320 -300 -200 300 -120 0 0" stroke-width="0" fill="#FF0000" />
  <path id="POLYGON1766" d="M 19220 16480 l 0 320 -300 -200 300 -120 0 0" stroke-width="0" fill="#FF0000" />
  <path id="POLYGON1767" d="M 21700 16400 l 0 320 -300 -200 300 -120 0 0" stroke-width="0" fill="#FF0000" />
  <path id="POLYGON1786" d="M 24680 16360 l 0 320 -300 -200 300 -120 0 0" stroke-width="0" fill="#FF0000" />
  <path id="POLYGON1787" d="M 9980 16060 l 320 0 -200 300 -120 -300 0 0" stroke-width="0" fill="#FF0000" />
  <path id="POLYGON1792" d="M 15280 16140 l 320 0 -200 300 -120 -300 0 0" stroke-width="0" fill="#FF0000" />
  <path id="POLYGON1793" d="M 18640 16120 l 320 0 -200 300 -120 -300 0 0" stroke-width="0" fill="#FF0000" />
  <path id="POLYGON1794" d="M 21100 16140 l 320 0 -200 300 -120 -300 0 0" stroke-width="0" fill="#FF0000" />
  <path id="POLYGON1801" d="M 24080 16140 l 320 0 -200 300 -120 -300 0 0" stroke-width="0" fill="#FF0000" />
  <path id="POLYGON1" d="M 2340 12120 l -980 140 0 -80 -960 0 0 -120 0 0 960 0 0 -80 980 140 0 0" stroke="#FF0000" stroke-width="20" fill="#C0C0C0" />
  <path id="POLYGON2" d="M 400 25640 l 980 140 0 -80 960 0 0 -120 0 0 -960 0 0 -80 -980 140 0 0" stroke="#00FF00" stroke-width="20" fill="#C0C0C0" />
  <path id="POLYGON3" d="M 61660 5440 l 940 140 0 -80 920 0 0 -120 0 0 -920 0 0 -80 -940 140 0 0" stroke="#FFFF00" stroke-width="20" fill="#C0C0C0" />
  <path id="POLYGON4" d="M 56880 12140 l 0 320 -300 -200 300 -120 0 0" stroke-width="0" fill="#00FF00" />
  <path id="POLYGON5" d="M 56320 13580 l -320 0 200 300 120 -300 0 0" stroke-width="0" fill="#00FF00" />
  <path id="POLYGON6" d="M 43800 15560 l -320 0 200 300 120 -300 0 0" stroke-width="0" fill="#00FF00" />
  <path id="POLYGON7" d="M 18740 25340 l -320 0 200 300 120 -300 0 0" stroke-width="0" fill="#00FF00" />
  <path id="POLYGON8" d="M 20440 21680 l -320 0 200 -300 120 300 0 0" stroke-width="0" fill="#00FF00" />
  <path id="LINE1285" d="M 18400 21700 l 0 -1600" stroke="#FF0000" stroke-width="40" fill="none" />
  <path id="LINE1286" d="M 20600 21680 l 0 -1580" stroke="#FF0000" stroke-width="40" fill="none" />
  <path id="LINE8" d="M 41640 20140 l -620 800" stroke="#00FF00" stroke-width="20" fill="none" />
  <path id="POLYGON9" d="M 41380 20300 l 260 180 20 -360 -280 180 0 0" stroke-width="0" fill="#00FF00" />
  <g id="TEXT4">
    <rect x="56200" y="10940" width="3620" height="700" stroke-width="0" fill="none" id="TEXT4_pbTextBoundingRectEl" />
    <text fill="#000000" font-family="Helvetica" font-size="560" font-weight="bold" text-anchor="middle" x="58010" y="11570" id="TEXT4_pbTextEl">1902X2431</text>
  </g>
  <g id="TEXT5">
    <rect x="36160" y="18160" width="3620" height="700" stroke-width="0" fill="none" id="TEXT5_pbTextBoundingRectEl" />
    <text fill="#000000" font-family="Helvetica" font-size="560" font-weight="bold" text-anchor="middle" x="37970" y="18790" id="TEXT5_pbTextEl">1902X2436</text>
  </g>
  <g id="TEXT6">
    <rect x="47040" y="19640" width="3620" height="700" stroke-width="0" fill="none" id="TEXT6_pbTextBoundingRectEl" />
    <text fill="#000000" font-family="Helvetica" font-size="560" font-weight="bold" text-anchor="middle" x="48850" y="20270" id="TEXT6_pbTextEl">1902E2404</text>
  </g>
  <g id="BARGRAPH1" PB:IsMultiState="False" PB:Lower="0" PB:Orientation="0" PB:CanonicalNumberFormat="General" PBD:PtTagName="\\RTDBB\1902_LIC_3202" PB:Start="0" PB:Upper="100" PB:Type="12">
    <rect x="42740" y="21760" width="380" height="1980" stroke-width="0" fill="#FFFFFF" id="BARGRAPH1_pbBarBoundingRectEl" />
    <rect x="42740" y="21760" width="380" height="1980" stroke-width="0" fill="#00FF00" id="BARGRAPH1_pbBarTagRectEl" stroke="none" PBD:Property="VAL" />
  </g>
  <path d="M 39300 26240 l -540 680 1420 0 -480 -620 -400 -60" stroke="#000000" stroke-width="20" fill="#FFFF00" />
  <path d="M 39399 26560 l -138 -40 -75 -40 -55 -40 -43 -40 -35 -40 -29 -40 -24 -40 -20 -40 -15 -40 -13 -40 -9 -40 -6 -40 -3 -40 0 -40 3 -40 6 -40 9 -40 13 -40 15 -40 20 -40 24 -40 29 -40 35 -40 43 -40 55 -40 75 -40 138 -40 162 0 138 40 75 40 55 40 43 40 35 40 29 40 24 40 20 40 15 40 13 40 9 40 6 40 3 40 0 40 -3 40 -6 40 -9 40 -13 40 -15 40 -20 40 -24 40 -29 40 -35 40 -43 40 -55 40 -75 40 -138 40 -162 0" stroke="#000000" stroke-width="20" fill="#FFFF00" />
  <path id="POLYGON11" d="M 38740 25620 l 0 40 0 60 0 0 0 20 0 0 0 60 0 0 0 80 0 0 0 100 0 40 40 100 0 80 60 40 20 0 60 40 40 60 40 20 60 100 80 0 40 40 40 0 100 0 40 0 100 0 20 0 100 0 40 -40 60 0 80 -100 40 -20 60 -60 20 -40 60 0 0 -40 40 -80 0 -100 40 -40 0 -100 0 0 0 -140 0 -20 -40 -60 0 -80 -40 -40 0 -60 -60 -40 -20 -40 -60 -60 -40 -20 -80 -100 -60 0 -40 0 -100 0 -20 0 -100 0 -1160 0 0 400 100 120 440 -120 0 0" stroke-width="0" fill="#FFFF00" />
  <path id="LINE18" d="M 38740 25620 l 0 0 0 40 0 60 0 0 0 20 0 0 0 60 0 0 0 80 0 0 0 0 0 100 0 40 40 100 0 80 60 40 20 0 60 40 40 60 40 20 60 100 80 0 40 40 40 0 100 0 40 0 0 0 100 0 20 0 100 0 40 -40 60 0 80 -100 40 -20 60 -60 20 -40 60 0 0 -40 40 -80 0 -100 40 -40 0 -100 0 0 0 0 0 -140 0 -20 -40 -60 0 -80 -40 -40 0 -60 -60 -40 -20 -40 -60 -60 -40 -20 -80 -100 -60 0 -40 0 -100 0 -20 0 -100 0 -1160 0 0 400 100 120 440 -120" stroke="#000000" stroke-width="20" fill="#FFFF00" />
  <path id="POLYGON18" d="M 38860 25740 l 0 0 0 60 -20 0 0 80 0 0 0 0 0 60 0 0 0 80 0 40 20 140 0 40 60 0 40 40 0 80 40 100 60 40 80 0 40 40 40 60 40 0 100 0 40 0 80 0 60 0 80 0 60 0 80 0 40 -60 60 -40 20 0 60 -40 40 -100 40 -80 60 -40 0 0 40 -40 0 -140 0 -40 40 -80 -40 -60 0 -80 0 -60 -40 -20 0 -60 -60 -80 -40 -40 -40 -60 -60 -40 -20 -40 -60 0 -40 -60 -80 0 -60 -20 -80 0 -60 0 -1180 0 0 420 560 0 0 0" stroke-width="0" fill="#FFFF00" />
  <path id="LINE19" d="M 38860 25740 l 0 0 0 0 0 60 -20 0 0 80 0 0 0 0 0 60 0 0 0 0 0 80 0 40 20 140 0 40 60 0 40 40 0 80 40 100 60 40 80 0 40 40 40 60 40 0 100 0 40 0 80 0 0 0 60 0 80 0 60 0 80 0 40 -60 60 -40 20 0 60 -40 40 -100 40 -80 60 -40 0 0 40 -40 0 -140 0 -40 40 -80 0 0 -40 -60 0 -80 0 -60 -40 -20 0 -60 -60 -80 -40 -40 -40 -60 -60 -40 -20 -40 -60 0 -40 -60 -80 0 -60 -20 -80 0 -60 0 -1180 0 0 420 560 0" stroke="#000000" stroke-width="20" fill="#FFFF00" />
  <path id="LINE20" d="M 38300 25320 l -100 -100" stroke="#000000" stroke-width="20" fill="#FFFF00" />
  <path id="ELLIPSE2" d="M 39404 26480 l -81 -20 -49 -20 -39 -20 -31 -20 -27 -20 -23 -20 -21 -20 -19 -20 -16 -20 -15 -20 -14 -20 -12 -20 -10 -20 -10 -20 -8 -20 -8 -20 -6 -20 -6 -20 -5 -20 -3 -20 -3 -20 -2 -20 -2 -20 0 -20 0 0 0 -20 2 -20 2 -20 3 -20 3 -20 5 -20 6 -20 6 -20 8 -20 8 -20 10 -20 10 -20 12 -20 14 -20 15 -20 16 -20 19 -20 21 -20 23 -20 27 -20 31 -20 39 -20 49 -20 81 -20 152 0 81 20 49 20 39 20 31 20 27 20 23 20 21 20 19 20 16 20 15 20 14 20 12 20 10 20 10 20 8 20 8 20 6 20 6 20 5 20 3 20 3 20 2 20 2 20 0 20 0 0 0 20 -2 20 -2 20 -3 20 -3 20 -5 20 -6 20 -6 20 -8 20 -8 20 -10 20 -10 20 -12 20 -14 20 -15 20 -16 20 -19 20 -21 20 -23 20 -27 20 -31 20 -39 20 -49 20 -81 20 -152 0" stroke="#000000" stroke-width="20" fill="#FFFF00" />
  <path d="M 40240 25992 l -40 158 -40 87 -40 66 -40 53 -40 45 -40 40 -40 34 -40 30 -40 26 -40 24 -40 20 -40 19 -40 16 -40 13 -40 12 -40 10 -40 8 -40 6 -40 4 -40 3 -40 0 0 0 -40 0 -40 -3 -40 -4 -40 -6 -40 -8 -40 -10 -40 -12 -40 -13 -40 -16 -40 -19 -40 -20 -40 -24 -40 -26 -40 -30 -40 -34 -40 -40 -40 -45 -40 -53 -40 -66 -40 -87 -40 -158 0 -183 40 -158 40 -87 40 -66 40 -53 40 -45 40 -40 40 -34 40 -30 40 -26 40 -24 40 -20 40 -19 40 -16 40 -13 40 -12 40 -10 40 -8 40 -6 40 -4 40 -3 40 -1 0 0 40 1 40 3 40 4 40 6 40 8 40 10 40 12 40 13 40 16 40 19 40 20 40 24 40 26 40 30 40 34 40 40 40 45 40 53 40 66 40 87 40 158 0 183" stroke="#FFFFFF" stroke-width="20" fill="none" />
  <path d="M 40120 25460 l -1440 920" stroke="#FFFFFF" stroke-width="20" fill="none" />
  <g id="TEXT263">
    <rect x="39680" y="26080" width="4480" height="1220" stroke-width="0" fill="none" id="TEXT263_pbTextBoundingRectEl" />
    <text fill="#000000" font-family="Helvetica" font-size="560" font-weight="bold" text-anchor="middle" x="41920" y="26970" id="TEXT263_pbTextEl">1202P2403A</text>
  </g>
  <path d="M 39300 28100 l -540 680 1420 0 -480 -620 -400 -60" stroke="#000000" stroke-width="20" fill="#FFFF00" />
  <path d="M 39399 28420 l -138 -40 -75 -40 -55 -40 -43 -40 -35 -40 -29 -40 -24 -40 -20 -40 -15 -40 -13 -40 -9 -40 -6 -40 -3 -40 0 -40 3 -40 6 -40 9 -40 13 -40 15 -40 20 -40 24 -40 29 -40 35 -40 43 -40 55 -40 75 -40 138 -40 162 0 138 40 75 40 55 40 43 40 35 40 29 40 24 40 20 40 15 40 13 40 9 40 6 40 3 40 0 40 -3 40 -6 40 -9 40 -13 40 -15 40 -20 40 -24 40 -29 40 -35 40 -43 40 -55 40 -75 40 -138 40 -162 0" stroke="#000000" stroke-width="20" fill="#FFFF00" />
  <path id="POLYGON22" d="M 38740 27480 l 0 40 0 60 0 0 0 20 0 0 0 60 0 0 0 80 0 0 0 100 0 40 40 100 0 80 60 40 20 0 60 40 40 60 40 20 60 100 80 0 40 40 40 0 100 0 40 0 100 0 20 0 100 0 40 -40 60 0 80 -100 40 -20 60 -60 20 -40 60 0 0 -40 40 -80 0 -100 40 -40 0 -100 0 0 0 -140 0 -20 -40 -60 0 -80 -40 -40 0 -60 -60 -40 -20 -40 -60 -60 -40 -20 -80 -100 -60 0 -40 0 -100 0 -20 0 -100 0 -1160 0 0 400 100 120 440 -120 0 0" stroke-width="0" fill="#FFFF00" />
  <path id="LINE22" d="M 38740 27480 l 0 0 0 40 0 60 0 0 0 20 0 0 0 60 0 0 0 80 0 0 0 0 0 100 0 40 40 100 0 80 60 40 20 0 60 40 40 60 40 20 60 100 80 0 40 40 40 0 100 0 40 0 0 0 100 0 20 0 100 0 40 -40 60 0 80 -100 40 -20 60 -60 20 -40 60 0 0 -40 40 -80 0 -100 40 -40 0 -100 0 0 0 0 0 -140 0 -20 -40 -60 0 -80 -40 -40 0 -60 -60 -40 -20 -40 -60 -60 -40 -20 -80 -100 -60 0 -40 0 -100 0 -20 0 -100 0 -1160 0 0 400 100 120 440 -120" stroke="#000000" stroke-width="20" fill="#FFFF00" />
  <path id="POLYGON23" d="M 38860 27600 l 0 0 0 60 -20 0 0 80 0 0 0 0 0 60 0 0 0 80 0 40 20 140 0 40 60 0 40 40 0 80 40 100 60 40 80 0 40 40 40 60 40 0 100 0 40 0 80 0 60 0 80 0 60 0 80 0 40 -60 60 -40 20 0 60 -40 40 -100 40 -80 60 -40 0 0 40 -40 0 -140 0 -40 40 -80 -40 -60 0 -80 0 -60 -40 -20 0 -60 -60 -80 -40 -40 -40 -60 -60 -40 -20 -40 -60 0 -40 -60 -80 0 -60 -20 -80 0 -60 0 -1180 0 0 420 560 0 0 0" stroke-width="0" fill="#FFFF00" />
  <path id="LINE23" d="M 38860 27600 l 0 0 0 0 0 60 -20 0 0 80 0 0 0 0 0 60 0 0 0 0 0 80 0 40 20 140 0 40 60 0 40 40 0 80 40 100 60 40 80 0 40 40 40 60 40 0 100 0 40 0 80 0 0 0 60 0 80 0 60 0 80 0 40 -60 60 -40 20 0 60 -40 40 -100 40 -80 60 -40 0 0 40 -40 0 -140 0 -40 40 -80 0 0 -40 -60 0 -80 0 -60 -40 -20 0 -60 -60 -80 -40 -40 -40 -60 -60 -40 -20 -40 -60 0 -40 -60 -80 0 -60 -20 -80 0 -60 0 -1180 0 0 420 560 0" stroke="#000000" stroke-width="20" fill="#FFFF00" />
  <path id="LINE24" d="M 38300 27180 l -100 -100" stroke="#000000" stroke-width="20" fill="#FFFF00" />
  <path id="ELLIPSE5" d="M 39404 28340 l -81 -20 -49 -20 -39 -20 -31 -20 -27 -20 -23 -20 -21 -20 -19 -20 -16 -20 -15 -20 -14 -20 -12 -20 -10 -20 -10 -20 -8 -20 -8 -20 -6 -20 -6 -20 -5 -20 -3 -20 -3 -20 -2 -20 -2 -20 0 -20 0 0 0 -20 2 -20 2 -20 3 -20 3 -20 5 -20 6 -20 6 -20 8 -20 8 -20 10 -20 10 -20 12 -20 14 -20 15 -20 16 -20 19 -20 21 -20 23 -20 27 -20 31 -20 39 -20 49 -20 81 -20 152 0 81 20 49 20 39 20 31 20 27 20 23 20 21 20 19 20 16 20 15 20 14 20 12 20 10 20 10 20 8 20 8 20 6 20 6 20 5 20 3 20 3 20 2 20 2 20 0 20 0 0 0 20 -2 20 -2 20 -3 20 -3 20 -5 20 -6 20 -6 20 -8 20 -8 20 -10 20 -10 20 -12 20 -14 20 -15 20 -16 20 -19 20 -21 20 -23 20 -27 20 -31 20 -39 20 -49 20 -81 20 -152 0" stroke="#000000" stroke-width="20" fill="#FFFF00" />
  <path d="M 40240 27872 l -40 158 -40 87 -40 66 -40 53 -40 45 -40 40 -40 34 -40 30 -40 26 -40 24 -40 20 -40 19 -40 16 -40 13 -40 12 -40 10 -40 8 -40 6 -40 4 -40 3 -40 0 0 0 -40 0 -40 -3 -40 -4 -40 -6 -40 -8 -40 -10 -40 -12 -40 -13 -40 -16 -40 -19 -40 -20 -40 -24 -40 -26 -40 -30 -40 -34 -40 -40 -40 -45 -40 -53 -40 -66 -40 -87 -40 -158 0 -183 40 -158 40 -87 40 -66 40 -53 40 -45 40 -40 40 -34 40 -30 40 -26 40 -24 40 -20 40 -19 40 -16 40 -13 40 -12 40 -10 40 -8 40 -6 40 -4 40 -3 40 -1 0 0 40 1 40 3 40 4 40 6 40 8 40 10 40 12 40 13 40 16 40 19 40 20 40 24 40 26 40 30 40 34 40 40 40 45 40 53 40 66 40 87 40 158 0 183" stroke="#FFFFFF" stroke-width="20" fill="none" />
  <path d="M 40120 27340 l -1440 920" stroke="#FFFFFF" stroke-width="20" fill="none" />
  <g id="TEXT264">
    <rect x="39700" y="27660" width="4440" height="1220" stroke-width="0" fill="none" id="TEXT264_pbTextBoundingRectEl" />
    <text fill="#000000" font-family="Helvetica" font-size="560" font-weight="bold" text-anchor="middle" x="41920" y="28550" id="TEXT264_pbTextEl">1202P2403B</text>
  </g>
  <g id="TEXT346">
    <rect x="1000" y="2560" width="2580" height="700" stroke-width="0" fill="none" id="TEXT346_pbTextBoundingRectEl" />
    <text fill="#000000" font-family="Helvetica" font-size="560" text-anchor="middle" x="2290" y="3190" id="TEXT346_pbTextEl">高压蒸汽</text>
  </g>
  <g id="TEXT348">
    <rect x="23640" y="220" width="13520" height="1900" stroke-width="0" fill="none" id="TEXT348_pbTextBoundingRectEl" />
    <text fill="#000000" font-family="Helvetica" font-size="800" text-anchor="middle" x="30400" y="1570" id="TEXT348_pbTextEl">丙烯机组蒸汽疏水系统（1902）</text>
  </g>
  <g id="TEXT352">
    <rect x="16780" y="3860" width="3840" height="880" stroke-width="0" fill="none" id="TEXT352_pbTextBoundingRectEl" />
    <text fill="#000000" font-family="Helvetica" font-size="560" text-anchor="middle" x="18700" y="4580" id="TEXT352_pbTextEl">1902TI0007</text>
  </g>
  <g id="TEXT354">
    <rect x="18920" y="4520" width="660" height="880" stroke-width="0" fill="none" id="TEXT354_pbTextBoundingRectEl" />
    <text fill="#000000" font-family="Helvetica" font-size="560" text-anchor="middle" x="19250" y="5240" id="TEXT354_pbTextEl">℃</text>
  </g>
  <g id="TEXT355">
    <rect x="9880" y="23880" width="3840" height="880" stroke-width="0" fill="none" id="TEXT355_pbTextBoundingRectEl" />
    <text fill="#000000" font-family="Helvetica" font-size="560" text-anchor="middle" x="11800" y="24600" id="TEXT355_pbTextEl">1902TI0008</text>
  </g>
  <g id="TEXT357">
    <rect x="12020" y="24540" width="660" height="880" stroke-width="0" fill="none" id="TEXT357_pbTextBoundingRectEl" />
    <text fill="#000000" font-family="Helvetica" font-size="560" text-anchor="middle" x="12350" y="25260" id="TEXT357_pbTextEl">℃</text>
  </g>
  <g id="TEXT437">
    <rect x="47360" y="6860" width="3840" height="940" stroke-width="0" fill="none" id="TEXT437_pbTextBoundingRectEl" />
    <text fill="#000000" font-family="Helvetica" font-size="560" text-anchor="middle" x="49280" y="7610" id="TEXT437_pbTextEl">1902PIS3202</text>
  </g>
  <g id="TEXT439">
    <rect x="49280" y="7620" width="1600" height="720" stroke-width="0" fill="none" id="TEXT439_pbTextBoundingRectEl" />
    <text fill="#000000" font-family="Helvetica" font-size="560" text-anchor="middle" x="50080" y="8260" id="TEXT439_pbTextEl">MPaA</text>
  </g>
  <g id="TEXT441">
    <rect x="53720" y="7620" width="1600" height="720" stroke-width="0" fill="none" id="TEXT441_pbTextBoundingRectEl" />
    <text fill="#000000" font-family="Helvetica" font-size="560" text-anchor="middle" x="54520" y="8260" id="TEXT441_pbTextEl">MPaA</text>
  </g>
  <g id="TEXT442">
    <rect x="51700" y="6860" width="3840" height="940" stroke-width="0" fill="none" id="TEXT442_pbTextBoundingRectEl" />
    <text fill="#000000" font-family="Helvetica" font-size="560" text-anchor="middle" x="53620" y="7610" id="TEXT442_pbTextEl">1902PIS3203</text>
  </g>
  <g id="TEXT444">
    <rect x="9680" y="26600" width="1600" height="720" stroke-width="0" fill="none" id="TEXT444_pbTextBoundingRectEl" />
    <text fill="#000000" font-family="Helvetica" font-size="560" text-anchor="middle" x="10480" y="27240" id="TEXT444_pbTextEl">Mpa</text>
  </g>
  <g id="TEXT445">
    <rect x="7760" y="25840" width="3840" height="940" stroke-width="0" fill="none" id="TEXT445_pbTextBoundingRectEl" />
    <text fill="#000000" font-family="Helvetica" font-size="560" text-anchor="middle" x="9680" y="26590" id="TEXT445_pbTextEl">1902PI0006</text>
  </g>
  <g id="TEXT447">
    <rect x="29720" y="10460" width="1600" height="720" stroke-width="0" fill="none" id="TEXT447_pbTextBoundingRectEl" />
    <text fill="#000000" font-family="Helvetica" font-size="560" text-anchor="middle" x="30520" y="11100" id="TEXT447_pbTextEl">Mpa</text>
  </g>
  <g id="TEXT448">
    <rect x="27800" y="9700" width="3840" height="940" stroke-width="0" fill="none" id="TEXT448_pbTextBoundingRectEl" />
    <text fill="#000000" font-family="Helvetica" font-size="560" text-anchor="middle" x="29720" y="10450" id="TEXT448_pbTextEl">1902PIC3206</text>
  </g>
  <g id="TEXT450">
    <rect x="23560" y="4560" width="1600" height="720" stroke-width="0" fill="none" id="TEXT450_pbTextBoundingRectEl" />
    <text fill="#000000" font-family="Helvetica" font-size="560" text-anchor="middle" x="24360" y="5200" id="TEXT450_pbTextEl">Mpa</text>
  </g>
  <g id="TEXT451">
    <rect x="21640" y="3800" width="3840" height="940" stroke-width="0" fill="none" id="TEXT451_pbTextBoundingRectEl" />
    <text fill="#000000" font-family="Helvetica" font-size="560" text-anchor="middle" x="23560" y="4550" id="TEXT451_pbTextEl">1902PI0005</text>
  </g>
  <g id="TEXT453">
    <rect x="58160" y="7620" width="1600" height="720" stroke-width="0" fill="none" id="TEXT453_pbTextBoundingRectEl" />
    <text fill="#000000" font-family="Helvetica" font-size="560" text-anchor="middle" x="58960" y="8260" id="TEXT453_pbTextEl">Mpa</text>
  </g>
  <g id="TEXT454">
    <rect x="56060" y="6860" width="3840" height="940" stroke-width="0" fill="none" id="TEXT454_pbTextBoundingRectEl" />
    <text fill="#000000" font-family="Helvetica" font-size="560" text-anchor="middle" x="57980" y="7610" id="TEXT454_pbTextEl">1902PI3204</text>
  </g>
  <g id="TEXT744">
    <rect x="39220" y="22540" width="1160" height="880" stroke-width="0" fill="#C0C0C0" id="TEXT744_pbTextBoundingRectEl" />
    <text fill="#000000" font-family="Helvetica" font-size="560" text-anchor="middle" x="39800" y="23260" id="TEXT744_pbTextEl">%</text>
  </g>
  <g id="TEXT746">
    <rect x="37640" y="22040" width="3580" height="700" stroke-width="0" fill="#C0C0C0" id="TEXT746_pbTextBoundingRectEl" />
    <text fill="#000000" font-family="Helvetica" font-size="560" text-anchor="middle" x="39430" y="22670" id="TEXT746_pbTextEl">1202LIC3202</text>
  </g>
  <g id="TEXT747">
    <rect x="47160" y="22640" width="1160" height="880" stroke-width="0" fill="#C0C0C0" id="TEXT747_pbTextBoundingRectEl" />
    <text fill="#000000" font-family="Helvetica" font-size="560" text-anchor="middle" x="47740" y="23360" id="TEXT747_pbTextEl">%</text>
  </g>
  <g id="TEXT749">
    <rect x="45200" y="22040" width="3580" height="700" stroke-width="0" fill="#C0C0C0" id="TEXT749_pbTextBoundingRectEl" />
    <text fill="#000000" font-family="Helvetica" font-size="560" text-anchor="middle" x="46990" y="22670" id="TEXT749_pbTextEl">1202LI3201</text>
  </g>
  <g id="TEXT750">
    <rect x="7220" y="24100" width="1500" height="880" stroke-width="0" fill="#C0C0C0" id="TEXT750_pbTextBoundingRectEl" />
    <text fill="#000000" font-family="Helvetica" font-size="560" text-anchor="middle" x="7970" y="24820" id="TEXT750_pbTextEl">kg/h</text>
  </g>
  <g id="TEXT752">
    <rect x="5640" y="23600" width="3580" height="700" stroke-width="0" fill="#C0C0C0" id="TEXT752_pbTextBoundingRectEl" />
    <text fill="#000000" font-family="Helvetica" font-size="560" text-anchor="middle" x="7430" y="24230" id="TEXT752_pbTextEl">1902FIQ0005</text>
  </g>
  <g id="TEXT755">
    <rect x="2620" y="26240" width="3580" height="700" stroke-width="0" fill="#C0C0C0" id="TEXT755_pbTextBoundingRectEl" />
    <text fill="#000000" font-family="Helvetica" font-size="560" text-anchor="middle" x="4410" y="26870" id="TEXT755_pbTextEl">1902AI0001</text>
  </g>
  <g id="TEXT757">
    <rect x="13840" y="4480" width="1500" height="880" stroke-width="0" fill="#C0C0C0" id="TEXT757_pbTextBoundingRectEl" />
    <text fill="#000000" font-family="Helvetica" font-size="560" text-anchor="middle" x="14590" y="5200" id="TEXT757_pbTextEl">kg/h</text>
  </g>
  <g id="TEXT759">
    <rect x="12260" y="3980" width="3580" height="700" stroke-width="0" fill="#C0C0C0" id="TEXT759_pbTextBoundingRectEl" />
    <text fill="#000000" font-family="Helvetica" font-size="560" text-anchor="middle" x="14050" y="4610" id="TEXT759_pbTextEl">1902FIQ0004</text>
  </g>
  <g id="TEXT911">
    <rect x="4380" y="26660" width="1560" height="1000" stroke-width="0" fill="none" id="TEXT911_pbTextBoundingRectEl" />
    <text fill="#000000" font-family="Helvetica" font-size="560" text-anchor="middle" x="5160" y="27440" id="TEXT911_pbTextEl">μs/cm</text>
  </g>
  <path id="POLYGON28" d="M 33320 7700 l -320 0 200 300 120 -300 0 0" stroke-width="0" fill="#FFFF00" />
  <path id="POLYGON30" d="M 47520 7700 l -320 0 200 300 120 -300 0 0" stroke-width="0" fill="#FFFF00" />
  <path id="POLYGON31" d="M 13740 18960 l -320 0 200 -300 120 300 0 0" stroke-width="0" fill="#FF0000" />
  <path id="POLYGON32" d="M 17400 19780 l 320 0 -200 300 -120 -300 0 0" stroke-width="0" fill="#FF0000" />
  <path id="POLYGON33" d="M 22060 19760 l 320 0 -200 300 -120 -300 0 0" stroke-width="0" fill="#FF0000" />
  <g id="TEXT912">
    <rect x="1000" y="11280" width="2580" height="700" stroke-width="0" fill="none" id="TEXT912_pbTextBoundingRectEl" />
    <text fill="#000000" font-family="Helvetica" font-size="560" text-anchor="middle" x="2290" y="11910" id="TEXT912_pbTextEl">中压蒸汽</text>
  </g>
  <g id="TEXT913">
    <rect x="1000" y="24620" width="2580" height="700" stroke-width="0" fill="none" id="TEXT913_pbTextBoundingRectEl" />
    <text fill="#000000" font-family="Helvetica" font-size="560" text-anchor="middle" x="2290" y="25250" id="TEXT913_pbTextEl">蒸汽凝液</text>
  </g>
  <g id="TEXT914">
    <rect x="13560" y="26280" width="3840" height="880" stroke-width="0" fill="none" id="TEXT914_pbTextBoundingRectEl" />
    <text fill="#000000" font-family="Helvetica" font-size="560" text-anchor="middle" x="15480" y="27000" id="TEXT914_pbTextEl">1902X2437B</text>
  </g>
  <g id="TEXT915">
    <rect x="20360" y="29820" width="3840" height="880" stroke-width="0" fill="none" id="TEXT915_pbTextBoundingRectEl" />
    <text fill="#000000" font-family="Helvetica" font-size="560" text-anchor="middle" x="22280" y="30540" id="TEXT915_pbTextEl">1902X2437A</text>
  </g>
  <g id="TEXT916">
    <rect x="17820" y="13100" width="3620" height="700" stroke-width="0" fill="none" id="TEXT916_pbTextBoundingRectEl" />
    <text fill="#000000" font-family="Helvetica" font-size="560" font-weight="bold" text-anchor="middle" x="19630" y="13730" id="TEXT916_pbTextEl">1902X2405</text>
  </g>
  <rect x="15180" y="14620" width="380" height="300" stroke-width="0" fill="#C0C0C0" id="RECTANGLE1" />
  <rect x="18520" y="14580" width="380" height="300" stroke-width="0" fill="#C0C0C0" id="RECTANGLE2" />
  <rect x="20960" y="14620" width="380" height="300" stroke-width="0" fill="#C0C0C0" id="RECTANGLE3" />
  <rect x="23980" y="14620" width="380" height="300" stroke-width="0" fill="#C0C0C0" id="RECTANGLE4" />
  <path id="LINE1115" d="M 47600 14760 l -36220 0" stroke="#FF0000" stroke-width="40" fill="none" />
  <rect x="43420" y="14580" width="380" height="300" stroke-width="0" fill="#C0C0C0" id="RECTANGLE17" />
  <rect x="43460" y="11980" width="380" height="300" stroke-width="0" fill="#C0C0C0" id="RECTANGLE18" />
  <rect x="43460" y="14020" width="380" height="300" stroke-width="0" fill="#C0C0C0" id="RECTANGLE25" />
  <path id="LINE1309" d="M 43680 15780 l 0 -6260" stroke="#00FF00" stroke-width="40" fill="none" />
  <g id="DATAPOINT56" PB:IsMultiState="False" PBD:PtTagName="\\RTDBB\1902_FT_0004" PB:Type="7" PB:NumberFormat="0.00">
    <rect x="12760" y="4720" width="1060" height="460" stroke-width="0" fill="none" id="DATAPOINT56_pbTextBoundingRectEl" />
    <text fill="#000000" font-family="Helvetica" font-size="560" text-anchor="middle" x="13290" y="5230" id="DATAPOINT56_pbTextEl" PBD:Property="VAL">#.##</text>
  </g>
  <g id="DATAPOINT57" PB:IsMultiState="False" PBD:PtTagName="\\RTDBB\1902_TT_0007" PB:Type="7" PB:NumberFormat="0.00">
    <rect x="17680" y="4720" width="1060" height="460" stroke-width="0" fill="none" id="DATAPOINT57_pbTextBoundingRectEl" />
    <text fill="#000000" font-family="Helvetica" font-size="560" text-anchor="middle" x="18210" y="5230" id="DATAPOINT57_pbTextEl" PBD:Property="VAL">#.##</text>
  </g>
  <g id="DATAPOINT58" PB:IsMultiState="False" PBD:PtTagName="\\RTDBB\1902_PT_0005" PB:Type="7" PB:NumberFormat="0.00">
    <rect x="22300" y="4720" width="1060" height="460" stroke-width="0" fill="none" id="DATAPOINT58_pbTextBoundingRectEl" />
    <text fill="#000000" font-family="Helvetica" font-size="560" text-anchor="middle" x="22830" y="5230" id="DATAPOINT58_pbTextEl" PBD:Property="VAL">#.##</text>
  </g>
  <g id="DATAPOINT59" PB:IsMultiState="False" PBD:PtTagName="\\RTDBB\1902_PI_3206" PB:Type="7" PB:NumberFormat="0.00">
    <rect x="28440" y="10800" width="1060" height="460" stroke-width="0" fill="none" id="DATAPOINT59_pbTextBoundingRectEl" />
    <text fill="#000000" font-family="Helvetica" font-size="560" text-anchor="middle" x="28970" y="11310" id="DATAPOINT59_pbTextEl" PBD:Property="VAL">#.##</text>
  </g>
  <g id="DATAPOINT60" PB:IsMultiState="False" PBD:PtTagName="\\RTDBB\1902_PISA_3202" PB:Type="7" PB:NumberFormat="0.00">
    <rect x="47680" y="7780" width="1060" height="460" stroke-width="0" fill="none" id="DATAPOINT60_pbTextBoundingRectEl" />
    <text fill="#000000" font-family="Helvetica" font-size="560" text-anchor="middle" x="48210" y="8290" id="DATAPOINT60_pbTextEl" PBD:Property="VAL">#.##</text>
  </g>
  <g id="DATAPOINT61" PB:IsMultiState="False" PBD:PtTagName="\\RTDBB\1902_PISA_3203" PB:Type="7" PB:NumberFormat="0.00">
    <rect x="52200" y="7760" width="1060" height="460" stroke-width="0" fill="none" id="DATAPOINT61_pbTextBoundingRectEl" />
    <text fill="#000000" font-family="Helvetica" font-size="560" text-anchor="middle" x="52730" y="8270" id="DATAPOINT61_pbTextEl" PBD:Property="VAL">#.##</text>
  </g>
  <g id="DATAPOINT62" PB:IsMultiState="False" PBD:PtTagName="\\RTDBB\1902_PISA_3204" PB:Type="7" PB:NumberFormat="0.00">
    <rect x="56740" y="7720" width="1060" height="460" stroke-width="0" fill="none" id="DATAPOINT62_pbTextBoundingRectEl" />
    <text fill="#000000" font-family="Helvetica" font-size="560" text-anchor="middle" x="57270" y="8230" id="DATAPOINT62_pbTextEl" PBD:Property="VAL">#.##</text>
  </g>
  <g id="DATAPOINT64" PB:IsMultiState="False" PBD:PtTagName="\\RTDBB\1902_AT_0001" PB:Type="7" PB:NumberFormat="0.00">
    <rect x="3040" y="26980" width="1060" height="460" stroke-width="0" fill="none" id="DATAPOINT64_pbTextBoundingRectEl" />
    <text fill="#000000" font-family="Helvetica" font-size="560" text-anchor="middle" x="3570" y="27490" id="DATAPOINT64_pbTextEl" PBD:Property="VAL">#.##</text>
  </g>
  <g id="DATAPOINT65" PB:IsMultiState="False" PBD:PtTagName="\\RTDBB\1902_FT_0005" PB:Type="7" PB:NumberFormat="0.00">
    <rect x="5800" y="24420" width="1060" height="460" stroke-width="0" fill="none" id="DATAPOINT65_pbTextBoundingRectEl" />
    <text fill="#000000" font-family="Helvetica" font-size="560" text-anchor="middle" x="6330" y="24930" id="DATAPOINT65_pbTextEl" PBD:Property="VAL">#.##</text>
  </g>
  <g id="DATAPOINT66" PB:IsMultiState="False" PBD:PtTagName="\\RTDBB\1902_PT_0006" PB:Type="7" PB:NumberFormat="0.00">
    <rect x="8680" y="26840" width="1060" height="460" stroke-width="0" fill="none" id="DATAPOINT66_pbTextBoundingRectEl" />
    <text fill="#000000" font-family="Helvetica" font-size="560" text-anchor="middle" x="9210" y="27350" id="DATAPOINT66_pbTextEl" PBD:Property="VAL">#.##</text>
  </g>
  <g id="DATAPOINT67" PB:IsMultiState="False" PBD:PtTagName="\\RTDBB\1902_LIC_3202" PB:Type="7" PB:NumberFormat="0.00">
    <rect x="38160" y="22760" width="1060" height="460" stroke-width="0" fill="none" id="DATAPOINT67_pbTextBoundingRectEl" />
    <text fill="#000000" font-family="Helvetica" font-size="560" text-anchor="middle" x="38690" y="23270" id="DATAPOINT67_pbTextEl" PBD:Property="VAL">#.##</text>
  </g>
  <g id="DATAPOINT68" PB:IsMultiState="False" PBD:PtTagName="\\RTDBB\1902_LIA_3201" PB:Type="7" PB:NumberFormat="0.00">
    <rect x="45900" y="22760" width="1060" height="460" stroke-width="0" fill="none" id="DATAPOINT68_pbTextBoundingRectEl" />
    <text fill="#000000" font-family="Helvetica" font-size="560" text-anchor="middle" x="46430" y="23270" id="DATAPOINT68_pbTextEl" PBD:Property="VAL">#.##</text>
  </g>
  <g id="DATAPOINT70" PB:IsMultiState="False" PBD:PtTagName="\\RTDBB\1902_TE_0008" PB:Type="7" PB:NumberFormat="0.00">
    <rect x="10560" y="24680" width="1060" height="460" stroke-width="0" fill="none" id="DATAPOINT70_pbTextBoundingRectEl" />
    <text fill="#000000" font-family="Helvetica" font-size="560" text-anchor="middle" x="11090" y="25190" id="DATAPOINT70_pbTextEl" PBD:Property="VAL">#.##</text>
  </g>
  <g id="BARGRAPH2" PB:IsMultiState="False" PB:Lower="0" PB:Orientation="0" PB:CanonicalNumberFormat="General" PBD:PtTagName="\\RTDBB\1902_LIA_3201" PB:Start="0" PB:Upper="100" PB:Type="12">
    <rect x="44240" y="21780" width="380" height="1980" stroke-width="0" fill="#FFFFFF" id="BARGRAPH2_pbBarBoundingRectEl" />
    <rect x="44240" y="21780" width="380" height="1980" stroke-width="0" fill="#00FF00" id="BARGRAPH2_pbBarTagRectEl" stroke="none" PBD:Property="VAL" />
  </g>
</svg>