<svg xmlns="http://www.w3.org/2000/svg" xmlns:xlink="http://www.w3.org/1999/xlink" version="1.1" style="background-color:#7DB6C1" width="1062" height="669" viewbox="0 0 1062 669"><defs>
<linearGradient x1="0.000000%" y1="50.000000%" x2="100.000000%" y2="50.000000%" id="lgradient26">
<stop offset="0" stop-color="#2C2C2C" stop-opacity="1"/>
<stop offset="0.5" stop-color="#FFFFFF" stop-opacity="1"/>
<stop offset="1" stop-color="#2C2C2C" stop-opacity="1"/>
</linearGradient>
<linearGradient x1="0.000000%" y1="50.000000%" x2="100.000000%" y2="50.000000%" id="lgradient27">
<stop offset="0" stop-color="#2C2C2C" stop-opacity="1"/>
<stop offset="0.5" stop-color="#FFFFFF" stop-opacity="1"/>
<stop offset="1" stop-color="#2C2C2C" stop-opacity="1"/>
</linearGradient>
<linearGradient x1="50.000000%" y1="0.000000%" x2="50.000000%" y2="100.000000%" id="lgradient28_2_2">
<stop offset="0" stop-color="#545454" stop-opacity="1"/>
<stop offset="0.5" stop-color="#D8D8D8" stop-opacity="1"/>
<stop offset="1" stop-color="#545454" stop-opacity="1"/>
</linearGradient>
<linearGradient x1="50.000000%" y1="0.000000%" x2="50.000000%" y2="100.000000%" id="lgradient28_2_3_0">
<stop offset="0" stop-color="#696969" stop-opacity="1"/>
<stop offset="0.5" stop-color="#D8D8D8" stop-opacity="1"/>
<stop offset="1" stop-color="#696969" stop-opacity="1"/>
</linearGradient>
<linearGradient x1="50.000000%" y1="0.000000%" x2="50.000000%" y2="100.000000%" id="lgradient29_2_2">
<stop offset="0" stop-color="#545454" stop-opacity="1"/>
<stop offset="0.5" stop-color="#D8D8D8" stop-opacity="1"/>
<stop offset="1" stop-color="#545454" stop-opacity="1"/>
</linearGradient>
<linearGradient x1="50.000000%" y1="0.000000%" x2="50.000000%" y2="100.000000%" id="lgradient29_2_3_0">
<stop offset="0" stop-color="#696969" stop-opacity="1"/>
<stop offset="0.5" stop-color="#D8D8D8" stop-opacity="1"/>
<stop offset="1" stop-color="#696969" stop-opacity="1"/>
</linearGradient>
<linearGradient x1="0.000000%" y1="50.000000%" x2="100.000000%" y2="50.000000%" id="lgradient93">
<stop offset="0" stop-color="#2C2C2C" stop-opacity="1"/>
<stop offset="0.5" stop-color="#FFFFFF" stop-opacity="1"/>
<stop offset="1" stop-color="#2C2C2C" stop-opacity="1"/>
</linearGradient>
<linearGradient x1="0.000000%" y1="50.000000%" x2="100.000000%" y2="50.000000%" id="lgradient94">
<stop offset="0" stop-color="#2C2C2C" stop-opacity="1"/>
<stop offset="0.5" stop-color="#FFFFFF" stop-opacity="1"/>
<stop offset="1" stop-color="#2C2C2C" stop-opacity="1"/>
</linearGradient>
</defs>
<line shape-type="limitline" x1="659" y1="227" x2="1105" y2="227" fill="#FFFFFF" stroke="#FFFFFF" stroke-width="3.00"/>
<line shape-type="limitline" x1="381" y1="124" x2="563" y2="124" fill="#FFFFFF" stroke="#FFFFFF" stroke-width="3.00"/>
<line shape-type="limitline" x1="125" y1="344" x2="383" y2="344" fill="#FFFFFF" stroke="#FFFFFF" stroke-width="3.00"/>
<line shape-type="limitline" x1="412" y1="635" x2="128" y2="635" fill="#FFFFFF" stroke="#FFFFFF" stroke-width="3.00"/>
<line shape-type="limitline" x1="743" y1="625" x2="465" y2="625" fill="#FFFFFF" stroke="#FFFFFF" stroke-width="3.00"/>
<line shape-type="limitline" x1="751" y1="580" x2="948" y2="580" fill="#FFFFFF" stroke="#FFFFFF" stroke-width="3.00"/>
<line shape-type="limitline" x1="948" y1="580" x2="746" y2="580" fill="#FFFFFF" stroke="#FFFFFF" stroke-width="3.00"/>
<line shape-type="limitline" x1="967" y1="565" x2="1102" y2="565" fill="#FFFFFF" stroke="#FFFFFF" stroke-width="3.00"/>
<line shape-type="limitline" x1="539" y1="217" x2="462" y2="217" fill="#FFFFFF" stroke="#FFFFFF" stroke-width="3.00"/>
<line shape-type="limitline" x1="461" y1="340" x2="552" y2="340" fill="#FFFFFF" stroke="#FFFFFF" stroke-width="3.00"/>
<line shape-type="limitline" x1="412" y1="435" x2="575" y2="435" fill="#FFFFFF" stroke="#FFFFFF" stroke-width="3.00"/>
<line shape-type="limitline" x1="652" y1="315" x2="744" y2="315" fill="#FFFFFF" stroke="#FFFFFF" stroke-width="3.00"/>
<line shape-type="limitline" x1="567" y1="515" x2="466" y2="515" fill="#FFFFFF" stroke="#FFFFFF" stroke-width="3.00"/>
<line shape-type="limitline" x1="1330" y1="415" x2="1107" y2="415" fill="#FFFFFF" stroke="#FFFFFF" stroke-width="3.00"/>
<line shape-type="limitline" x1="972" y1="324" x2="1335" y2="324" fill="#FFFFFF" stroke="#FFFFFF" stroke-width="3.00"/>
<line shape-type="limitline" x1="1105" y1="564" x2="1105" y2="227" fill="#FFFFFF" stroke="#FFFFFF" stroke-width="3.00"/>
<line shape-type="limitline" x1="745" y1="342" x2="953" y2="342" fill="#FFFFFF" stroke="#FFFFFF" stroke-width="3.00"/>
<line shape-type="limitline" x1="744" y1="624" x2="744" y2="314" fill="#FFFFFF" stroke="#FFFFFF" stroke-width="3.00"/>
<line shape-type="limitline" x1="1197" y1="322" x2="1197" y2="411" fill="#FFFFFF" stroke="#FFFFFF" stroke-width="3.00"/>
<line shape-type="limitline" x1="576" y1="505" x2="576" y2="434" fill="#FFFFFF" stroke="#FFFFFF" stroke-width="3.00"/>
<line shape-type="limitline" x1="412" y1="436" x2="412" y2="634" fill="#FFFFFF" stroke="#FFFFFF" stroke-width="3.00"/>
<line shape-type="limitline" x1="461" y1="216" x2="461" y2="689" fill="#FFFFFF" stroke="#FFFFFF" stroke-width="3.00"/>
<line shape-type="limitline" x1="463" y1="688" x2="1307" y2="688" fill="#FFFFFF" stroke="#FFFFFF" stroke-width="3.00"/>
<line shape-type="limitline" x1="383" y1="123" x2="383" y2="344" fill="#FFFFFF" stroke="#FFFFFF" stroke-width="3.00"/>
<line shape-type="limitline" x1="563" y1="123" x2="563" y2="203" fill="#FFFFFF" stroke="#FFFFFF" stroke-width="3.00"/>
<rect shape-type="rectangle" x="558" y="502" width="112" height="134" fill="url(#lgradient26)" stroke="#000000" stroke-width="1.00"/>
<rect shape-type="rectangle" x="544" y="205" width="112" height="144" fill="url(#lgradient27)" stroke="#000000" stroke-width="1.00"/>
<g shape-type="group">
<g shape-type="group">
<polygon shape-type="parallel" points="960,360 956,360 958,350 962,350 960,360" fill="#808080" stroke="#000000" stroke-width="1.00"/>
<rect shape-type="rectangle" x="954" y="360" width="7" height="4" fill="#808080" stroke="#000000" stroke-width="1.00"/>
</g>
<g shape-type="group">
<polygon shape-type="parallel" points="970,360 974,360 972,350 968,350 970,360" fill="#808080" stroke="#000000" stroke-width="1.00"/>
<rect shape-type="rectangle" x="969" y="359" width="8" height="5" fill="#808080" stroke="#000000" stroke-width="1.00"/>
</g>
<g shape-type="group">
<path shape-type="arc" d="M 965,322 A 4,8 0 1,0 964,336" fill="none" stroke="#000000" stroke-width="1.00"/>
<line shape-type="limitline" x1="964" y1="334" x2="978" y2="335" fill="#00FFFF" stroke="#000000" stroke-width="1.00"/>
<rect shape-type="roundRectangle" rx="20" ry="20" x="963" y="322" width="17" height="12" fill="url(#lgradient28_2_2)" stroke="#000000" stroke-width="1.00"/>
<g shape-type="group">
<rect shape-type="rectangle" x="978" y="320" width="3" height="17" fill="url(#lgradient28_2_3_0)" stroke="#000000" stroke-width="1.00"/>
<rect shape-type="rectangle" x="978" y="320" width="3" height="17" fill="none" stroke="#000000" stroke-width="1.00"/>
</g>
<line shape-type="limitline" x1="964" y1="322" x2="978" y2="323" fill="#00FFFF" stroke="#000000" stroke-width="1.00"/>
</g>
<g shape-type="group">
<ellipse shape-type="ellipse" cx="965" cy="340" rx="11" ry="18" stroke="#000000" stroke-width="1.00"/>
<ellipse shape-type="ellipse" cx="965" cy="340" rx="11" ry="17" fill="#D8D8D8" stroke="#000000" stroke-width="1.00"/>
<path shape-type="arc" d="M 961,354 A 10,15 0 1,0 968,325" fill="none" stroke="#000000" stroke-width="1.00"/>
</g>
<g shape-type="group">
<g shape-type="group">
<ellipse shape-type="ellipse" cx="965" cy="340" rx="4" ry="6" fill="#A2A2A2" stroke="#000000" stroke-width="1.00"/>
<ellipse shape-type="ellipse" cx="964" cy="340" rx="3" ry="4" stroke="#000000" stroke-width="1.00"/>
</g>
<line shape-type="line" x1="963" y1="343" x2="966" y2="333" fill="#00FFFF" stroke="#C0C0C0" stroke-width="1.00"/>
<line shape-type="line" x1="966" y1="342" x2="962" y2="335" fill="#00FFFF" stroke="#C0C0C0" stroke-width="1.00"/>
<line shape-type="line" x1="969" y1="339" x2="961" y2="339" fill="#00FFFF" stroke="#C0C0C0" stroke-width="1.00"/>
<ellipse shape-type="ellipse" cx="964" cy="340" rx="1" ry="1" fill="#FFFFFF" stroke="#000000" stroke-width="1.00"/>
</g>
</g>
<g shape-type="group">
<g shape-type="group">
<polygon shape-type="parallel" points="959,598 955,598 957,590 961,590 959,598" fill="#808080" stroke="#000000" stroke-width="1.00"/>
<rect shape-type="rectangle" x="953" y="598" width="7" height="4" fill="#808080" stroke="#000000" stroke-width="1.00"/>
</g>
<g shape-type="group">
<polygon shape-type="parallel" points="969,599 973,599 971,591 967,591 969,599" fill="#808080" stroke="#000000" stroke-width="1.00"/>
<rect shape-type="rectangle" x="968" y="598" width="8" height="4" fill="#808080" stroke="#000000" stroke-width="1.00"/>
</g>
<g shape-type="group">
<path shape-type="arc" d="M 964,563 A 4,7 0 1,0 963,575" fill="none" stroke="#000000" stroke-width="1.00"/>
<line shape-type="limitline" x1="964" y1="573" x2="977" y2="574" fill="#00FFFF" stroke="#000000" stroke-width="1.00"/>
<rect shape-type="roundRectangle" rx="20" ry="20" x="962" y="564" width="17" height="10" fill="url(#lgradient29_2_2)" stroke="#000000" stroke-width="1.00"/>
<g shape-type="group">
<rect shape-type="rectangle" x="977" y="563" width="3" height="13" fill="url(#lgradient29_2_3_0)" stroke="#000000" stroke-width="1.00"/>
<rect shape-type="rectangle" x="977" y="563" width="3" height="13" fill="none" stroke="#000000" stroke-width="1.00"/>
</g>
<line shape-type="limitline" x1="964" y1="563" x2="977" y2="564" fill="#00FFFF" stroke="#000000" stroke-width="1.00"/>
</g>
<g shape-type="group">
<ellipse shape-type="ellipse" cx="964" cy="580" rx="11" ry="17" stroke="#000000" stroke-width="1.00"/>
<ellipse shape-type="ellipse" cx="964" cy="579" rx="11" ry="16" fill="#D8D8D8" stroke="#000000" stroke-width="1.00"/>
<path shape-type="arc" d="M 960,594 A 10,15 0 1,0 967,565" fill="none" stroke="#000000" stroke-width="1.00"/>
</g>
<g shape-type="group">
<g shape-type="group">
<ellipse shape-type="ellipse" cx="964" cy="580" rx="4" ry="8" fill="#A2A2A2" stroke="#000000" stroke-width="1.00"/>
<ellipse shape-type="ellipse" cx="963" cy="579" rx="3" ry="6" stroke="#000000" stroke-width="1.00"/>
</g>
<line shape-type="line" x1="962" y1="583" x2="966" y2="573" fill="#00FFFF" stroke="#C0C0C0" stroke-width="1.00"/>
<line shape-type="line" x1="966" y1="583" x2="961" y2="574" fill="#00FFFF" stroke="#C0C0C0" stroke-width="1.00"/>
<line shape-type="line" x1="968" y1="578" x2="960" y2="578" fill="#00FFFF" stroke="#C0C0C0" stroke-width="1.00"/>
<ellipse shape-type="ellipse" cx="964" cy="579" rx="2" ry="2" fill="#FFFFFF" stroke="#000000" stroke-width="1.00"/>
</g>
</g>
<rect shape-type="rectangle" x="595" y="165" width="100" height="20" fill="#FFFFFF" stroke="#FFFFFF" stroke-width="2.00"/>
<rect shape-type="rectangle" x="595" y="145" width="100" height="19" fill="#FFFFFF" stroke="#FFFFFF" stroke-width="2.00"/>
<rect shape-type="rectangle" x="595" y="165" width="100" height="20" fill="#FFFFFF" stroke="#FFFFFF" stroke-width="2.00"/>
<text font-family="宋体" text-anchor="start" fill="#000000" shape-type="text" id="" font-size="9.500000" x="600" y="157">00LISA_14001</text>
<text font-family="宋体" text-anchor="start" fill="#000000" shape-type="text" id="" font-size="9.500000" x="671" y="178">%</text>
<rect shape-type="rectangle" x="924" y="287" width="100" height="20" fill="#FFFFFF" stroke="#FFFFFF" stroke-width="2.00"/>
<rect shape-type="rectangle" x="924" y="267" width="100" height="19" fill="#FFFFFF" stroke="#FFFFFF" stroke-width="2.00"/>
<rect shape-type="rectangle" x="924" y="287" width="100" height="20" fill="#FFFFFF" stroke="#FFFFFF" stroke-width="2.00"/>
<text font-family="宋体" text-anchor="start" fill="#000000" shape-type="text" id="" font-size="9.500000" x="927" y="280">BP_P1401</text>
<text font-family="宋体" text-anchor="start" fill="#000000" shape-type="text" id="" font-size="9.500000" x="1000" y="300">%</text>
<rect shape-type="rectangle" x="996" y="361" width="100" height="20" fill="#FFFFFF" stroke="#FFFFFF" stroke-width="2.00"/>
<rect shape-type="rectangle" x="996" y="341" width="100" height="19" fill="#FFFFFF" stroke="#FFFFFF" stroke-width="2.00"/>
<rect shape-type="rectangle" x="996" y="361" width="100" height="20" fill="#FFFFFF" stroke="#FFFFFF" stroke-width="2.00"/>
<text font-family="宋体" text-anchor="start" fill="#000000" shape-type="text" id="" font-size="9.500000" x="999" y="354">00II_P1401</text>
<text font-family="宋体" text-anchor="start" fill="#000000" shape-type="text" id="" font-size="9.500000" x="1072" y="374">%</text>
<rect shape-type="rectangle" x="899" y="531" width="100" height="20" fill="#FFFFFF" stroke="#FFFFFF" stroke-width="2.00"/>
<rect shape-type="rectangle" x="899" y="511" width="100" height="19" fill="#FFFFFF" stroke="#FFFFFF" stroke-width="2.00"/>
<rect shape-type="rectangle" x="899" y="531" width="100" height="20" fill="#FFFFFF" stroke="#FFFFFF" stroke-width="2.00"/>
<text font-family="宋体" text-anchor="start" fill="#000000" shape-type="text" id="" font-size="9.500000" x="902" y="524">BP__1402</text>
<text font-family="宋体" text-anchor="start" fill="#000000" shape-type="text" id="" font-size="9.500000" x="975" y="544">%</text>
<rect shape-type="rectangle" x="1014" y="609" width="100" height="20" fill="#FFFFFF" stroke="#FFFFFF" stroke-width="2.00"/>
<rect shape-type="rectangle" x="1014" y="589" width="100" height="19" fill="#FFFFFF" stroke="#FFFFFF" stroke-width="2.00"/>
<rect shape-type="rectangle" x="1014" y="609" width="100" height="20" fill="#FFFFFF" stroke="#FFFFFF" stroke-width="2.00"/>
<text font-family="宋体" text-anchor="start" fill="#000000" shape-type="text" id="" font-size="9.500000" x="1017" y="602">00II_P1402</text>
<text font-family="宋体" text-anchor="start" fill="#000000" shape-type="text" id="" font-size="9.500000" x="1090" y="622">%</text>
<rect shape-type="rectangle" x="610" y="463" width="100" height="20" fill="#FFFFFF" stroke="#FFFFFF" stroke-width="2.00"/>
<rect shape-type="rectangle" x="610" y="443" width="100" height="19" fill="#FFFFFF" stroke="#FFFFFF" stroke-width="2.00"/>
<rect shape-type="rectangle" x="610" y="463" width="100" height="20" fill="#FFFFFF" stroke="#FFFFFF" stroke-width="2.00"/>
<text font-family="宋体" text-anchor="start" fill="#000000" shape-type="text" id="" font-size="9.500000" x="614" y="456">00LISA_14002</text>
<text font-family="宋体" text-anchor="start" fill="#000000" shape-type="text" id="" font-size="9.500000" x="686" y="476">%</text>
<g shape-type="group">
<rect shape-type="rectangle" x="89" y="341" width="20" height="8" stroke="#FFFFFF" stroke-width="1.00"/>
<polygon shape-type="trapezium" points="103,353 103,337 119,345 119,345 103,353" stroke="#FFFFFF" stroke-width="1.00"/>
</g>
<g shape-type="group">
<rect shape-type="rectangle" x="86" y="631" width="21" height="8" stroke="#FFFFFF" stroke-width="1.00"/>
<polygon shape-type="trapezium" points="101,643 101,626 117,634 117,634 101,643" stroke="#FFFFFF" stroke-width="1.00"/>
</g>
<g shape-type="group">
<rect shape-type="rectangle" x="1346" y="309" width="22" height="8" stroke="#FFFFFF" stroke-width="1.00"/>
<polygon shape-type="trapezium" points="1362,321 1362,304 1378,312 1378,312 1362,321" stroke="#FFFFFF" stroke-width="1.00"/>
</g>
<g shape-type="group">
<rect shape-type="rectangle" x="1348" y="405" width="22" height="8" stroke="#FFFFFF" stroke-width="1.00"/>
<polygon shape-type="trapezium" points="1364,417 1364,400 1380,408 1380,408 1364,417" stroke="#FFFFFF" stroke-width="1.00"/>
</g>
<text font-family="宋体" text-anchor="start" fill="#FFFFFF" shape-type="text" id="" font-size="11.750000" font-weight="bold" x="1275" y="304">送至厂区生产水管网</text>
<text font-family="宋体" text-anchor="start" fill="#FFFFFF" shape-type="text" id="" font-size="11.750000" font-weight="bold" x="1241" y="388">送至前海热力化水原水罐</text>
<g shape-type="group">
<rect shape-type="rectangle" x="1321" y="683" width="22" height="8" stroke="#FFFFFF" stroke-width="1.00"/>
<polygon shape-type="trapezium" points="1337,695 1337,678 1353,686 1353,686 1337,695" stroke="#FFFFFF" stroke-width="1.00"/>
</g>
<text font-family="宋体" text-anchor="start" fill="#FFFFFF" shape-type="text" id="" font-size="11.750000" font-weight="bold" x="1242" y="669">排至界区外RW雨水管网</text>
<text font-family="宋体" text-anchor="start" fill="#FFFFFF" shape-type="text" id="" font-size="11.750000" font-weight="bold" x="298" y="152">00XV14001</text>
<text font-family="宋体" text-anchor="start" fill="#FFFFFF" shape-type="text" id="" font-size="11.750000" font-weight="bold" x="331" y="467">00XV14002</text>
<text font-family="宋体" text-anchor="start" fill="#FFFFFF" shape-type="text" id="" font-size="11.750000" font-weight="bold" x="928" y="374">P-1401</text>
<text font-family="宋体" text-anchor="start" fill="#FFFFFF" shape-type="text" id="" font-size="11.750000" font-weight="bold" x="933" y="624">P-1402</text>
<text font-family="宋体" text-anchor="start" fill="#000000" shape-type="text" id="" font-size="11.750000" font-weight="bold" x="592" y="555">V-1401B</text>
<text font-family="宋体" text-anchor="start" fill="#000000" shape-type="text" id="" font-size="11.750000" font-weight="bold" x="572" y="259">V-1401A</text>
<text font-family="宋体" text-anchor="start" fill="#FFFFFF" shape-type="text" id="" font-size="11.750000" font-weight="bold" x="74" y="328">至站外管道</text>
<text font-family="宋体" text-anchor="start" fill="#FFFFFF" shape-type="text" id="" font-size="11.750000" font-weight="bold" x="112" y="617">至站外管道</text>
<polygon shape-type="trapezium" points="936,344 936,338 945,341 945,341 936,344" stroke="#FFFFFF" stroke-width="1.00"/>
<polygon shape-type="trapezium" points="427,431 427,438 419,435 419,435 427,431" stroke="#FFFFFF" stroke-width="1.00"/>
<polygon shape-type="trapezium" points="389,138 380,138 385,129 385,129 389,138" stroke="#FFFFFF" stroke-width="1.00"/>
<polygon shape-type="trapezium" points="402,120 402,127 394,124 394,124 402,120" stroke="#FFFFFF" stroke-width="1.00"/>
<polygon shape-type="trapezium" points="567,191 560,191 564,199 564,199 567,191" stroke="#FFFFFF" stroke-width="1.00"/>
<polygon shape-type="trapezium" points="579,491 572,491 576,499 576,499 579,491" stroke="#FFFFFF" stroke-width="1.00"/>
<polygon shape-type="trapezium" points="473,511 473,518 465,515 465,515 473,511" stroke="#FFFFFF" stroke-width="1.00"/>
<polygon shape-type="trapezium" points="472,621 472,628 464,625 464,625 472,621" stroke="#FFFFFF" stroke-width="1.00"/>
<polygon shape-type="trapezium" points="475,213 475,220 467,217 467,217 475,213" stroke="#FFFFFF" stroke-width="1.00"/>
<polygon shape-type="trapezium" points="663,222 663,229 655,226 655,226 663,222" stroke="#FFFFFF" stroke-width="1.00"/>
<polygon shape-type="trapezium" points="1094,326 1094,320 1103,323 1103,323 1094,326" stroke="#FFFFFF" stroke-width="1.00"/>
<polygon shape-type="trapezium" points="1090,567 1090,561 1099,564 1099,564 1090,567" stroke="#FFFFFF" stroke-width="1.00"/>
<polygon shape-type="trapezium" points="416,448 407,448 412,439 412,439 416,448" stroke="#FFFFFF" stroke-width="1.00"/>
<line shape-type="limitline" x1="642" y1="185" x2="642" y2="207" fill="#FFFFFF" stroke="#FFFFFF" stroke-width="3.00" stroke-dasharray="5 10"/>
<line shape-type="limitline" x1="655" y1="481" x2="655" y2="503" fill="#FFFFFF" stroke="#FFFFFF" stroke-width="3.00" stroke-dasharray="5 10"/>
<polygon shape-type="trapezium" points="936,582 936,576 945,579 945,579 936,582" stroke="#FFFFFF" stroke-width="1.00"/>
<text font-family="宋体" text-anchor="start" fill="#FFFFFF" shape-type="text" id="" font-size="22.250000" font-weight="bold" x="585" y="49">生产水系统</text>
<rect shape-type="rectangle" x="642" y="229" width="12" height="117" fill="url(#lgradient93)" stroke="#000000" stroke-width="1.00"/>
<rect shape-type="rectangle" x="655" y="516" width="12" height="117" fill="url(#lgradient94)" stroke="#000000" stroke-width="1.00"/>
<text font-family="Arial" text-anchor="start" fill="#000000" shape-type="realdata" id="QH_DL_00LISA_14001" font-size="12.500000" x="576" y="180">XXXXXXXXXX</text>
<text font-family="Arial" text-anchor="start" fill="#000000" shape-type="realdata" id="QH_DL_00II_P1401" font-size="12.500000" x="984" y="374">XXXXXXXXXX</text>
<text font-family="Arial" text-anchor="start" fill="#000000" shape-type="realdata" id="QH_DL_00LISA_14002" font-size="12.500000" x="587" y="478">XXXXXXXXXX</text>
<text font-family="Arial" text-anchor="start" fill="#000000" shape-type="realdata" id="QH_DL_00II_P1402" font-size="12.500000" x="993" y="623">XXXXXXXXXX</text>
<a xlink:href="..\动力车间.svg">
<g shape-type="button">
<rect fill="#C0C0C0" stroke-width="0.3" stroke="#FFFFFF" x="1227" y="731" width="69" height="29" shape-type="buttonrect"/>
<text font-family="宋体" text-anchor="middle" dominant-baseline="middle" fill="#000000" font-size="13.500000" x="1261" y="751" shape-type="buttontext">返回</text>
</g>
</a>
</svg>