<svg xmlns="http://www.w3.org/2000/svg" xmlns:xlink="http://www.w3.org/1999/xlink" version="1.1" style="background-color:#7DB6C1" width="1062" height="669" viewbox="0 0 1062 669"><defs>
<linearGradient x1="0.000000%" y1="50.000000%" x2="100.000000%" y2="50.000000%" id="lgradient2_0_0">
<stop offset="0" stop-color="#575757" stop-opacity="1"/>
<stop offset="0.5" stop-color="#FFFFFF" stop-opacity="1"/>
<stop offset="1" stop-color="#575757" stop-opacity="1"/>
</linearGradient>
<linearGradient x1="0.000000%" y1="50.000000%" x2="100.000000%" y2="50.000000%" id="lgradient2_0_1">
<stop offset="0" stop-color="#575757" stop-opacity="1"/>
<stop offset="0.5" stop-color="#FFFFFF" stop-opacity="1"/>
<stop offset="1" stop-color="#575757" stop-opacity="1"/>
</linearGradient>
<linearGradient x1="0.000000%" y1="50.000000%" x2="100.000000%" y2="50.000000%" id="lgradient3_0_0">
<stop offset="0" stop-color="#575757" stop-opacity="1"/>
<stop offset="0.5" stop-color="#FFFFFF" stop-opacity="1"/>
<stop offset="1" stop-color="#575757" stop-opacity="1"/>
</linearGradient>
<linearGradient x1="0.000000%" y1="50.000000%" x2="100.000000%" y2="50.000000%" id="lgradient3_0_1">
<stop offset="0" stop-color="#575757" stop-opacity="1"/>
<stop offset="0.5" stop-color="#FFFFFF" stop-opacity="1"/>
<stop offset="1" stop-color="#575757" stop-opacity="1"/>
</linearGradient>
<linearGradient x1="0.000000%" y1="50.000000%" x2="100.000000%" y2="50.000000%" id="lgradient4_0_0">
<stop offset="0" stop-color="#575757" stop-opacity="1"/>
<stop offset="0.5" stop-color="#FFFFFF" stop-opacity="1"/>
<stop offset="1" stop-color="#575757" stop-opacity="1"/>
</linearGradient>
<linearGradient x1="0.000000%" y1="50.000000%" x2="100.000000%" y2="50.000000%" id="lgradient4_0_1">
<stop offset="0" stop-color="#575757" stop-opacity="1"/>
<stop offset="0.5" stop-color="#FFFFFF" stop-opacity="1"/>
<stop offset="1" stop-color="#575757" stop-opacity="1"/>
</linearGradient>
<linearGradient x1="0.000000%" y1="50.000000%" x2="100.000000%" y2="50.000000%" id="lgradient17">
<stop offset="0" stop-color="#575757" stop-opacity="1"/>
<stop offset="0.5" stop-color="#FFFFFF" stop-opacity="1"/>
<stop offset="1" stop-color="#575757" stop-opacity="1"/>
</linearGradient>
<linearGradient x1="0.000000%" y1="50.000000%" x2="100.000000%" y2="50.000000%" id="lgradient18_0">
<stop offset="0" stop-color="#575757" stop-opacity="1"/>
<stop offset="0.5" stop-color="#FFFFFF" stop-opacity="1"/>
<stop offset="1" stop-color="#575757" stop-opacity="1"/>
</linearGradient>
<linearGradient x1="0.000000%" y1="50.000000%" x2="100.000000%" y2="50.000000%" id="lgradient18_1">
<stop offset="0" stop-color="#575757" stop-opacity="1"/>
<stop offset="0.5" stop-color="#FFFFFF" stop-opacity="1"/>
<stop offset="1" stop-color="#575757" stop-opacity="1"/>
</linearGradient>
<marker id="Arrow2" markerUnits="strokeWidth" markerWidth="6" markerHeight="6" viewBox="0 0 6 6" refX="3" refY="3" orient="auto"><polygon points="5,1 1,3 5,5" style="fill: #000000;"/></marker>
<linearGradient x1="0.000000%" y1="50.000000%" x2="100.000000%" y2="50.000000%" id="lgradient35_0">
<stop offset="0" stop-color="#828282" stop-opacity="1"/>
<stop offset="0.5" stop-color="#FFFFFF" stop-opacity="1"/>
<stop offset="1" stop-color="#828282" stop-opacity="1"/>
</linearGradient>
<linearGradient x1="0.000000%" y1="50.000000%" x2="100.000000%" y2="50.000000%" id="lgradient35_1">
<stop offset="0" stop-color="#4C4C4C" stop-opacity="1"/>
<stop offset="0.5" stop-color="#C0C0C0" stop-opacity="1"/>
<stop offset="1" stop-color="#4C4C4C" stop-opacity="1"/>
</linearGradient>
<linearGradient x1="0.000000%" y1="50.000000%" x2="100.000000%" y2="50.000000%" id="lgradient35_2">
<stop offset="0" stop-color="#353535" stop-opacity="1"/>
<stop offset="0.5" stop-color="#FFFFFF" stop-opacity="1"/>
<stop offset="1" stop-color="#353535" stop-opacity="1"/>
</linearGradient>
<linearGradient x1="0.000000%" y1="50.000000%" x2="100.000000%" y2="50.000000%" id="lgradient36_0">
<stop offset="0" stop-color="#828282" stop-opacity="1"/>
<stop offset="0.5" stop-color="#FFFFFF" stop-opacity="1"/>
<stop offset="1" stop-color="#828282" stop-opacity="1"/>
</linearGradient>
<linearGradient x1="0.000000%" y1="50.000000%" x2="100.000000%" y2="50.000000%" id="lgradient36_1">
<stop offset="0" stop-color="#4C4C4C" stop-opacity="1"/>
<stop offset="0.5" stop-color="#C0C0C0" stop-opacity="1"/>
<stop offset="1" stop-color="#4C4C4C" stop-opacity="1"/>
</linearGradient>
<linearGradient x1="0.000000%" y1="50.000000%" x2="100.000000%" y2="50.000000%" id="lgradient36_2">
<stop offset="0" stop-color="#353535" stop-opacity="1"/>
<stop offset="0.5" stop-color="#FFFFFF" stop-opacity="1"/>
<stop offset="1" stop-color="#353535" stop-opacity="1"/>
</linearGradient>
<linearGradient x1="0.000000%" y1="50.000000%" x2="100.000000%" y2="50.000000%" id="lgradient37_0">
<stop offset="0" stop-color="#828282" stop-opacity="1"/>
<stop offset="0.5" stop-color="#FFFFFF" stop-opacity="1"/>
<stop offset="1" stop-color="#828282" stop-opacity="1"/>
</linearGradient>
<linearGradient x1="0.000000%" y1="50.000000%" x2="100.000000%" y2="50.000000%" id="lgradient37_1">
<stop offset="0" stop-color="#4C4C4C" stop-opacity="1"/>
<stop offset="0.5" stop-color="#C0C0C0" stop-opacity="1"/>
<stop offset="1" stop-color="#4C4C4C" stop-opacity="1"/>
</linearGradient>
<linearGradient x1="0.000000%" y1="50.000000%" x2="100.000000%" y2="50.000000%" id="lgradient37_2">
<stop offset="0" stop-color="#353535" stop-opacity="1"/>
<stop offset="0.5" stop-color="#FFFFFF" stop-opacity="1"/>
<stop offset="1" stop-color="#353535" stop-opacity="1"/>
</linearGradient>
<linearGradient x1="0.000000%" y1="50.000000%" x2="100.000000%" y2="50.000000%" id="lgradient38_0">
<stop offset="0" stop-color="#828282" stop-opacity="1"/>
<stop offset="0.5" stop-color="#FFFFFF" stop-opacity="1"/>
<stop offset="1" stop-color="#828282" stop-opacity="1"/>
</linearGradient>
<linearGradient x1="0.000000%" y1="50.000000%" x2="100.000000%" y2="50.000000%" id="lgradient38_1">
<stop offset="0" stop-color="#4C4C4C" stop-opacity="1"/>
<stop offset="0.5" stop-color="#C0C0C0" stop-opacity="1"/>
<stop offset="1" stop-color="#4C4C4C" stop-opacity="1"/>
</linearGradient>
<linearGradient x1="0.000000%" y1="50.000000%" x2="100.000000%" y2="50.000000%" id="lgradient38_2">
<stop offset="0" stop-color="#353535" stop-opacity="1"/>
<stop offset="0.5" stop-color="#FFFFFF" stop-opacity="1"/>
<stop offset="1" stop-color="#353535" stop-opacity="1"/>
</linearGradient>
<linearGradient x1="0.000000%" y1="50.000000%" x2="100.000000%" y2="50.000000%" id="lgradient39_0">
<stop offset="0" stop-color="#828282" stop-opacity="1"/>
<stop offset="0.5" stop-color="#FFFFFF" stop-opacity="1"/>
<stop offset="1" stop-color="#828282" stop-opacity="1"/>
</linearGradient>
<linearGradient x1="0.000000%" y1="50.000000%" x2="100.000000%" y2="50.000000%" id="lgradient39_1">
<stop offset="0" stop-color="#4C4C4C" stop-opacity="1"/>
<stop offset="0.5" stop-color="#C0C0C0" stop-opacity="1"/>
<stop offset="1" stop-color="#4C4C4C" stop-opacity="1"/>
</linearGradient>
<linearGradient x1="0.000000%" y1="50.000000%" x2="100.000000%" y2="50.000000%" id="lgradient39_2">
<stop offset="0" stop-color="#353535" stop-opacity="1"/>
<stop offset="0.5" stop-color="#FFFFFF" stop-opacity="1"/>
<stop offset="1" stop-color="#353535" stop-opacity="1"/>
</linearGradient>
</defs>
<line shape-type="line" x1="452" y1="253" x2="24" y2="253" fill="#00FFFF" stroke="#0080FF" stroke-width="1.00"/>
<g shape-type="group">
<g shape-type="group">
<rect shape-type="rectangle" x="478" y="468" width="96" height="95" fill="url(#lgradient2_0_0)" stroke="#000000" stroke-width="1.00"/>
<polygon shape-type="trapezium" points="574,470 475,470 525,431 525,431 574,470" fill="url(#lgradient2_0_1)" stroke="#000000" stroke-width="1.00"/>
</g>
<rect shape-type="rectangle" x="559" y="502" width="12" height="59" fill="#FFFFFF" stroke="#000000" stroke-width="1.00"/>
<rect shape-type="rectangle" x="559" y="516" width="12" height="45" fill="#00FF40" stroke="#000000" stroke-width="1.00"/>
</g>
<g shape-type="group">
<g shape-type="group">
<rect shape-type="rectangle" x="313" y="468" width="95" height="95" fill="url(#lgradient3_0_0)" stroke="#000000" stroke-width="1.00"/>
<polygon shape-type="trapezium" points="408,470 309,470 359,432 359,432 408,470" fill="url(#lgradient3_0_1)" stroke="#000000" stroke-width="1.00"/>
</g>
<rect shape-type="rectangle" x="315" y="500" width="12" height="59" fill="#FFFFFF" stroke="#000000" stroke-width="1.00"/>
<rect shape-type="rectangle" x="315" y="539" width="12" height="20" fill="#00FF40" stroke="#000000" stroke-width="1.00"/>
</g>
<g shape-type="group">
<g shape-type="group">
<rect shape-type="rectangle" x="484" y="185" width="96" height="95" fill="url(#lgradient4_0_0)" stroke="#000000" stroke-width="1.00"/>
<polygon shape-type="trapezium" points="580,188 481,188 531,149 531,149 580,188" fill="url(#lgradient4_0_1)" stroke="#000000" stroke-width="1.00"/>
</g>
<g shape-type="group">
<rect shape-type="rectangle" x="566" y="218" width="12" height="59" fill="#FFFFFF" stroke="#000000" stroke-width="1.00"/>
<rect shape-type="rectangle" x="566" y="238" width="12" height="39" fill="#00FF40" stroke="#000000" stroke-width="1.00"/>
</g>
</g>
<line shape-type="line" x1="453" y1="288" x2="453" y2="106" fill="#00FFFF" stroke="#0080FF" stroke-width="1.00"/>
<line shape-type="line" x1="679" y1="102" x2="454" y2="102" fill="#00FFFF" stroke="#0080FF" stroke-width="1.00"/>
<line shape-type="line" x1="679" y1="385" x2="680" y2="102" fill="#00FFFF" stroke="#0080FF" stroke-width="1.00"/>
<line shape-type="line" x1="483" y1="264" x2="454" y2="264" fill="#00FFFF" stroke="#0080FF" stroke-width="1.00"/>
<line shape-type="line" x1="453" y1="289" x2="227" y2="289" fill="#00FFFF" stroke="#0080FF" stroke-width="1.00"/>
<line shape-type="line" x1="225" y1="539" x2="225" y2="289" fill="#00FFFF" stroke="#0080FF" stroke-width="1.00"/>
<line shape-type="line" x1="308" y1="538" x2="228" y2="538" fill="#00FFFF" stroke="#0080FF" stroke-width="1.00"/>
<line shape-type="line" x1="288" y1="607" x2="289" y2="542" fill="#00FFFF" stroke="#0080FF" stroke-width="1.00"/>
<line shape-type="line" x1="453" y1="607" x2="291" y2="607" fill="#00FFFF" stroke="#0080FF" stroke-width="1.00"/>
<line shape-type="line" x1="498" y1="590" x2="498" y2="564" fill="#00FFFF" stroke="#0080FF" stroke-width="1.00"/>
<line shape-type="line" x1="393" y1="590" x2="393" y2="564" fill="#00FFFF" stroke="#0080FF" stroke-width="1.00"/>
<line shape-type="line" x1="496" y1="592" x2="394" y2="592" fill="#00FFFF" stroke="#0080FF" stroke-width="1.00"/>
<rect shape-type="rectangle" x="22" y="399" width="121" height="86" fill="url(#lgradient17)" stroke="#FFFFFF" stroke-width="1.00"/>
<g shape-type="group">
<rect shape-type="rectangle" x="315" y="183" width="95" height="95" fill="url(#lgradient18_0)" stroke="#000000" stroke-width="1.00"/>
<polygon shape-type="trapezium" points="410,185 311,185 361,147 361,147 410,185" fill="url(#lgradient18_1)" stroke="#000000" stroke-width="1.00"/>
</g>
<g shape-type="group">
<rect shape-type="rectangle" x="317" y="215" width="12" height="59" fill="#FFFFFF" stroke="#000000" stroke-width="1.00"/>
<rect shape-type="rectangle" x="317" y="234" width="12" height="40" fill="#00FF40" stroke="#000000" stroke-width="1.00"/>
</g>
<g shape-type="group">
<rect shape-type="rectangle" x="113" y="399" width="14" height="84" fill="#FFFFFF" stroke="#000000" stroke-width="1.00"/>
<rect shape-type="rectangle" x="113" y="427" width="14" height="56" fill="#00FF40" stroke="#000000" stroke-width="1.00"/>
</g>
<line shape-type="line" x1="86" y1="553" x2="86" y2="487" fill="#00FFFF" stroke="#0080FF" stroke-width="1.00"/>
<line shape-type="line" x1="156" y1="551" x2="90" y2="551" fill="#00FFFF" stroke="#0080FF" stroke-width="1.00"/>
<line shape-type="line" x1="118" y1="552" x2="118" y2="526" fill="#00FFFF" stroke="#0080FF" stroke-width="1.00"/>
<line shape-type="line" x1="154" y1="551" x2="154" y2="525" fill="#00FFFF" stroke="#0080FF" stroke-width="1.00"/>
<line shape-type="line" x1="225" y1="522" x2="116" y2="522" fill="#00FFFF" stroke="#0080FF" stroke-width="1.00"/>
<g shape-type="group">
<polygon shape-type="trapezium" points="163,557 146,557 151,552 159,552 163,557" stroke="#FFFFFF" stroke-width="1.00"/>
<ellipse shape-type="ellipse" cx="154" cy="548" rx="6" ry="6" fill="#FF0000" stroke="#FFFFFF" stroke-width="1.00"/>
</g>
<g shape-type="group">
<polygon shape-type="trapezium" points="127,555 110,555 115,550 123,550 127,555" stroke="#FFFFFF" stroke-width="1.00"/>
<ellipse shape-type="ellipse" cx="118" cy="546" rx="7" ry="6" fill="#FF0000" stroke="#FFFFFF" stroke-width="1.00"/>
</g>
<line shape-type="line" x1="451" y1="605" x2="451" y2="592" fill="#00FFFF" stroke="#0080FF" stroke-width="1.00"/>
<line shape-type="line" x1="1177" y1="373" x2="1124" y2="373" fill="#00FFFF" stroke="#0080FF" stroke-width="1.00"/>
<line shape-type="line" x1="1211" y1="479" x2="1119" y2="479" marker-start="url(#Arrow2)" fill="#00FFFF" stroke="#0080FF" stroke-width="1.00"/>
<line shape-type="line" x1="1173" y1="591" x2="1120" y2="591" fill="#00FFFF" stroke="#0080FF" stroke-width="1.00"/>
<line shape-type="line" x1="1173" y1="595" x2="1173" y2="375" fill="#00FFFF" stroke="#0080FF" stroke-width="1.00"/>
<line shape-type="line" x1="1215" y1="222" x2="1176" y2="222" marker-start="url(#Arrow2)" fill="#00FFFF" stroke="#0080FF" stroke-width="1.00"/>
<line shape-type="line" x1="1141" y1="659" x2="1141" y2="202" marker-start="url(#Arrow2)" fill="#00FFFF" stroke="#808080" stroke-width="1.00"/>
<g shape-type="group">
<rect shape-type="rectangle" x="793" y="144" width="327" height="48" fill="url(#lgradient35_0)" stroke="#FFFFFF" stroke-width="1.00"/>
<rect shape-type="rectangle" x="793" y="156" width="21" height="35" fill="url(#lgradient35_1)" stroke="#FFFFFF" stroke-width="1.00"/>
<polygon shape-type="trapezium" points="828,191 875,191 851,203 851,203 828,191" fill="url(#lgradient35_2)" stroke="#FFFFFF" stroke-width="1.00"/>
<ellipse shape-type="ellipse" cx="862" cy="153" rx="15" ry="5" fill="#FFFFFF" stroke="#0080FF" stroke-width="1.00"/>
<ellipse shape-type="ellipse" cx="884" cy="182" rx="15" ry="6" fill="#FFFFFF" stroke="#000000" stroke-width="1.00"/>
<ellipse shape-type="ellipse" cx="1070" cy="150" rx="15" ry="6" fill="#FFFFFF" stroke="#000000" stroke-width="1.00"/>
<ellipse shape-type="ellipse" cx="1074" cy="179" rx="16" ry="5" fill="#FFFFFF" stroke="#000000" stroke-width="1.00"/>
<line shape-type="line" x1="870" y1="178" x2="847" y2="152" fill="#00FFFF" stroke="#000000" stroke-width="1.00"/>
<ellipse shape-type="ellipse" cx="862" cy="153" rx="15" ry="5" fill="#FFFFFF" stroke="#000000" stroke-width="1.00"/>
<line shape-type="line" x1="1102" y1="184" x2="1102" y2="148" fill="#00FFFF" stroke="#000000" stroke-width="1.00"/>
<line shape-type="line" x1="1101" y1="180" x2="1088" y2="180" fill="#00FFFF" stroke="#000000" stroke-width="1.00"/>
<line shape-type="line" x1="1101" y1="150" x2="1089" y2="150" fill="#00FFFF" stroke="#000000" stroke-width="1.00"/>
<line shape-type="line" x1="1039" y1="205" x2="1039" y2="154" fill="#808080" stroke="#C0C0C0" stroke-width="1.00"/>
<line shape-type="line" x1="1141" y1="205" x2="1039" y2="205" fill="#00FFFF" stroke="#0080FF" stroke-width="1.00"/>
<line shape-type="line" x1="1141" y1="205" x2="1039" y2="205" fill="#00FFFF" stroke="#808080" stroke-width="1.00"/>
</g>
<g shape-type="group">
<rect shape-type="rectangle" x="793" y="246" width="327" height="49" fill="url(#lgradient36_0)" stroke="#FFFFFF" stroke-width="1.00"/>
<rect shape-type="rectangle" x="793" y="259" width="21" height="35" fill="url(#lgradient36_1)" stroke="#FFFFFF" stroke-width="1.00"/>
<polygon shape-type="trapezium" points="828,294 875,294 851,307 851,307 828,294" fill="url(#lgradient36_2)" stroke="#FFFFFF" stroke-width="1.00"/>
<ellipse shape-type="ellipse" cx="862" cy="255" rx="15" ry="6" fill="#FFFFFF" stroke="#0080FF" stroke-width="1.00"/>
<ellipse shape-type="ellipse" cx="884" cy="286" rx="15" ry="6" fill="#FFFFFF" stroke="#000000" stroke-width="1.00"/>
<ellipse shape-type="ellipse" cx="1070" cy="253" rx="15" ry="6" fill="#FFFFFF" stroke="#000000" stroke-width="1.00"/>
<ellipse shape-type="ellipse" cx="1074" cy="283" rx="16" ry="6" fill="#FFFFFF" stroke="#000000" stroke-width="1.00"/>
<line shape-type="line" x1="870" y1="281" x2="847" y2="254" fill="#00FFFF" stroke="#000000" stroke-width="1.00"/>
<ellipse shape-type="ellipse" cx="862" cy="255" rx="15" ry="6" fill="#FFFFFF" stroke="#000000" stroke-width="1.00"/>
<line shape-type="line" x1="1102" y1="288" x2="1102" y2="250" fill="#00FFFF" stroke="#000000" stroke-width="1.00"/>
<line shape-type="line" x1="1101" y1="283" x2="1088" y2="283" fill="#00FFFF" stroke="#000000" stroke-width="1.00"/>
<line shape-type="line" x1="1101" y1="252" x2="1089" y2="252" fill="#00FFFF" stroke="#000000" stroke-width="1.00"/>
<line shape-type="line" x1="1039" y1="309" x2="1039" y2="257" fill="#808080" stroke="#C0C0C0" stroke-width="1.00"/>
<line shape-type="line" x1="1141" y1="309" x2="1039" y2="309" fill="#00FFFF" stroke="#0080FF" stroke-width="1.00"/>
<line shape-type="line" x1="1141" y1="309" x2="1039" y2="309" fill="#00FFFF" stroke="#808080" stroke-width="1.00"/>
</g>
<g shape-type="group">
<rect shape-type="rectangle" x="793" y="351" width="327" height="49" fill="url(#lgradient37_0)" stroke="#FFFFFF" stroke-width="1.00"/>
<rect shape-type="rectangle" x="793" y="364" width="21" height="35" fill="url(#lgradient37_1)" stroke="#FFFFFF" stroke-width="1.00"/>
<polygon shape-type="trapezium" points="828,399 875,399 851,411 851,411 828,399" fill="url(#lgradient37_2)" stroke="#FFFFFF" stroke-width="1.00"/>
<ellipse shape-type="ellipse" cx="862" cy="360" rx="15" ry="6" fill="#FFFFFF" stroke="#0080FF" stroke-width="1.00"/>
<ellipse shape-type="ellipse" cx="884" cy="390" rx="15" ry="6" fill="#FFFFFF" stroke="#000000" stroke-width="1.00"/>
<ellipse shape-type="ellipse" cx="1070" cy="358" rx="15" ry="6" fill="#FFFFFF" stroke="#000000" stroke-width="1.00"/>
<ellipse shape-type="ellipse" cx="1074" cy="387" rx="16" ry="6" fill="#FFFFFF" stroke="#000000" stroke-width="1.00"/>
<line shape-type="line" x1="870" y1="386" x2="847" y2="359" fill="#00FFFF" stroke="#000000" stroke-width="1.00"/>
<ellipse shape-type="ellipse" cx="862" cy="360" rx="15" ry="6" fill="#FFFFFF" stroke="#000000" stroke-width="1.00"/>
<line shape-type="line" x1="1102" y1="392" x2="1102" y2="355" fill="#00FFFF" stroke="#000000" stroke-width="1.00"/>
<line shape-type="line" x1="1101" y1="389" x2="1088" y2="389" fill="#00FFFF" stroke="#000000" stroke-width="1.00"/>
<line shape-type="line" x1="1101" y1="357" x2="1089" y2="357" fill="#00FFFF" stroke="#000000" stroke-width="1.00"/>
<line shape-type="line" x1="1039" y1="414" x2="1039" y2="363" fill="#808080" stroke="#C0C0C0" stroke-width="1.00"/>
<line shape-type="line" x1="1141" y1="414" x2="1039" y2="414" fill="#00FFFF" stroke="#0080FF" stroke-width="1.00"/>
<line shape-type="line" x1="1141" y1="414" x2="1039" y2="414" fill="#00FFFF" stroke="#808080" stroke-width="1.00"/>
</g>
<g shape-type="group">
<rect shape-type="rectangle" x="793" y="454" width="327" height="49" fill="url(#lgradient38_0)" stroke="#FFFFFF" stroke-width="1.00"/>
<rect shape-type="rectangle" x="793" y="468" width="21" height="34" fill="url(#lgradient38_1)" stroke="#FFFFFF" stroke-width="1.00"/>
<polygon shape-type="trapezium" points="828,502 875,502 851,516 851,516 828,502" fill="url(#lgradient38_2)" stroke="#FFFFFF" stroke-width="1.00"/>
<ellipse shape-type="ellipse" cx="862" cy="463" rx="15" ry="6" fill="#FFFFFF" stroke="#0080FF" stroke-width="1.00"/>
<ellipse shape-type="ellipse" cx="884" cy="494" rx="15" ry="6" fill="#FFFFFF" stroke="#000000" stroke-width="1.00"/>
<ellipse shape-type="ellipse" cx="1070" cy="461" rx="15" ry="7" fill="#FFFFFF" stroke="#000000" stroke-width="1.00"/>
<ellipse shape-type="ellipse" cx="1074" cy="491" rx="16" ry="6" fill="#FFFFFF" stroke="#000000" stroke-width="1.00"/>
<line shape-type="line" x1="870" y1="490" x2="847" y2="463" fill="#00FFFF" stroke="#000000" stroke-width="1.00"/>
<ellipse shape-type="ellipse" cx="862" cy="463" rx="15" ry="6" fill="#FFFFFF" stroke="#000000" stroke-width="1.00"/>
<line shape-type="line" x1="1102" y1="496" x2="1102" y2="458" fill="#00FFFF" stroke="#000000" stroke-width="1.00"/>
<line shape-type="line" x1="1101" y1="492" x2="1088" y2="492" fill="#00FFFF" stroke="#000000" stroke-width="1.00"/>
<line shape-type="line" x1="1101" y1="460" x2="1089" y2="460" fill="#00FFFF" stroke="#000000" stroke-width="1.00"/>
<line shape-type="line" x1="1039" y1="518" x2="1039" y2="466" fill="#808080" stroke="#C0C0C0" stroke-width="1.00"/>
<line shape-type="line" x1="1141" y1="518" x2="1039" y2="518" fill="#00FFFF" stroke="#0080FF" stroke-width="1.00"/>
<line shape-type="line" x1="1141" y1="518" x2="1039" y2="518" fill="#00FFFF" stroke="#808080" stroke-width="1.00"/>
</g>
<g shape-type="group">
<rect shape-type="rectangle" x="793" y="559" width="327" height="49" fill="url(#lgradient39_0)" stroke="#FFFFFF" stroke-width="1.00"/>
<rect shape-type="rectangle" x="793" y="572" width="21" height="35" fill="url(#lgradient39_1)" stroke="#FFFFFF" stroke-width="1.00"/>
<polygon shape-type="trapezium" points="828,607 875,607 851,620 851,620 828,607" fill="url(#lgradient39_2)" stroke="#FFFFFF" stroke-width="1.00"/>
<ellipse shape-type="ellipse" cx="862" cy="568" rx="15" ry="5" fill="#FFFFFF" stroke="#0080FF" stroke-width="1.00"/>
<ellipse shape-type="ellipse" cx="884" cy="598" rx="15" ry="5" fill="#FFFFFF" stroke="#000000" stroke-width="1.00"/>
<ellipse shape-type="ellipse" cx="1070" cy="565" rx="15" ry="6" fill="#FFFFFF" stroke="#000000" stroke-width="1.00"/>
<ellipse shape-type="ellipse" cx="1074" cy="595" rx="16" ry="5" fill="#FFFFFF" stroke="#000000" stroke-width="1.00"/>
<line shape-type="line" x1="870" y1="595" x2="847" y2="568" fill="#00FFFF" stroke="#000000" stroke-width="1.00"/>
<ellipse shape-type="ellipse" cx="862" cy="568" rx="15" ry="5" fill="#FFFFFF" stroke="#000000" stroke-width="1.00"/>
<line shape-type="line" x1="1102" y1="600" x2="1102" y2="564" fill="#00FFFF" stroke="#000000" stroke-width="1.00"/>
<line shape-type="line" x1="1101" y1="597" x2="1088" y2="597" fill="#00FFFF" stroke="#000000" stroke-width="1.00"/>
<line shape-type="line" x1="1101" y1="566" x2="1089" y2="566" fill="#00FFFF" stroke="#000000" stroke-width="1.00"/>
<line shape-type="line" x1="1039" y1="622" x2="1039" y2="571" fill="#808080" stroke="#C0C0C0" stroke-width="1.00"/>
<line shape-type="line" x1="1141" y1="622" x2="1039" y2="622" fill="#00FFFF" stroke="#0080FF" stroke-width="1.00"/>
<line shape-type="line" x1="1141" y1="622" x2="1039" y2="622" fill="#00FFFF" stroke="#808080" stroke-width="1.00"/>
</g>
<g shape-type="group">
<line shape-type="line" x1="1172" y1="167" x2="1119" y2="167" fill="#00FFFF" stroke="#0080FF" stroke-width="1.00"/>
<line shape-type="line" x1="1174" y1="279" x2="1174" y2="165" fill="#00FFFF" stroke="#0080FF" stroke-width="1.00"/>
<line shape-type="line" x1="1173" y1="278" x2="1120" y2="278" fill="#00FFFF" stroke="#0080FF" stroke-width="1.00"/>
</g>
<g shape-type="group">
<line shape-type="line" x1="740" y1="155" x2="793" y2="155" fill="#00FFFF" stroke="#0080FF" stroke-width="1.00"/>
<line shape-type="line" x1="738" y1="268" x2="738" y2="154" fill="#00FFFF" stroke="#0080FF" stroke-width="1.00"/>
<line shape-type="line" x1="739" y1="267" x2="792" y2="267" fill="#00FFFF" stroke="#0080FF" stroke-width="1.00"/>
</g>
<g shape-type="group">
<line shape-type="line" x1="734" y1="378" x2="788" y2="378" fill="#00FFFF" stroke="#0080FF" stroke-width="1.00"/>
<line shape-type="line" x1="733" y1="577" x2="733" y2="375" fill="#00FFFF" stroke="#0080FF" stroke-width="1.00"/>
<line shape-type="line" x1="733" y1="575" x2="786" y2="575" fill="#00FFFF" stroke="#0080FF" stroke-width="1.00"/>
</g>
<line shape-type="line" x1="741" y1="236" x2="583" y2="236" fill="#00FFFF" stroke="#0080FF" stroke-width="1.00"/>
<line shape-type="line" x1="735" y1="518" x2="577" y2="518" fill="#00FFFF" stroke="#0080FF" stroke-width="1.00"/>
<line shape-type="line" x1="707" y1="384" x2="678" y2="384" fill="#00FFFF" stroke="#0080FF" stroke-width="1.00"/>
<line shape-type="line" x1="709" y1="516" x2="709" y2="239" fill="#00FFFF" stroke="#0080FF" stroke-width="1.00"/>
<line shape-type="line" x1="669" y1="600" x2="669" y2="189" fill="#00FFFF" stroke="#FF0000" stroke-width="1.00"/>
<line shape-type="line" x1="670" y1="192" x2="583" y2="192" fill="#00FFFF" stroke="#FF0000" stroke-width="1.00"/>
<line shape-type="line" x1="595" y1="254" x2="581" y2="254" fill="#00FFFF" stroke="#FFFF00" stroke-width="1.00"/>
<line shape-type="line" x1="595" y1="666" x2="595" y2="255" fill="#00FFFF" stroke="#FFFF00" stroke-width="1.00"/>
<rect shape-type="rectangle" x="173" y="655" width="103" height="26" fill="#FFFFFF" stroke="#0080FF" stroke-width="1.00"/>
<rect shape-type="rectangle" x="303" y="654" width="103" height="26" fill="#FFFFFF" stroke="#0080FF" stroke-width="1.00"/>
<rect shape-type="rectangle" x="521" y="566" width="66" height="33" fill="#FFFFFF" stroke="#0080FF" stroke-width="1.00"/>
<rect shape-type="rectangle" x="535" y="600" width="38" height="21" fill="#FFFFFF" stroke="#0080FF" stroke-width="1.00"/>
<rect shape-type="rectangle" x="598" y="464" width="66" height="33" fill="#FFFFFF" stroke="#0080FF" stroke-width="1.00"/>
<rect shape-type="rectangle" x="236" y="461" width="66" height="33" fill="#FFFFFF" stroke="#0080FF" stroke-width="1.00"/>
<rect shape-type="rectangle" x="143" y="415" width="66" height="33" fill="#FFFFFF" stroke="#0080FF" stroke-width="1.00"/>
<rect shape-type="rectangle" x="143" y="448" width="66" height="33" fill="#FFFFFF" stroke="#0080FF" stroke-width="1.00"/>
<rect shape-type="rectangle" x="238" y="174" width="66" height="33" fill="#FFFFFF" stroke="#0080FF" stroke-width="1.00"/>
<rect shape-type="rectangle" x="589" y="200" width="66" height="33" fill="#FFFFFF" stroke="#0080FF" stroke-width="1.00"/>
<rect shape-type="rectangle" x="721" y="341" width="66" height="33" fill="#FFFFFF" stroke="#0080FF" stroke-width="1.00"/>
<rect shape-type="rectangle" x="712" y="121" width="66" height="33" fill="#FFFFFF" stroke="#0080FF" stroke-width="1.00"/>
<line shape-type="line" x1="550" y1="646" x2="550" y2="620" marker-start="url(#Arrow2)" fill="#FFFF80" stroke="#FFFF00" stroke-width="1.00" stroke-dasharray="10 2"/>
<a xlink:href="..\洁源环保总图.svg">
<g shape-type="button">
<rect fill="#C0C0C0" stroke-width="0.3" stroke="#FFFFFF" x="1044" y="712" width="51" height="29" shape-type="buttonrect"/>
<text font-family="宋体" text-anchor="middle" dominant-baseline="middle" fill="#000000" font-size="13.500000" x="1069" y="732" shape-type="buttontext">返回</text>
</g>
</a>
</svg>