<svg xmlns="http://www.w3.org/2000/svg" xmlns:xlink="http://www.w3.org/1999/xlink" version="1.1" style="background-color:#7DB6C1" width="1062" height="669" viewbox="0 0 1062 669"><defs>
<radialGradient cx="50.000000%" cy="50.000000%" r="50.000000%" fx="50.000000%" fy="50.000000%" id="rgradient4_0">
<stop offset="0%" stop-color="#FFFFFF" stop-opacity="1"/>
<stop offset="100%" stop-color="#2C2C2C" stop-opacity="1"/>
</radialGradient>
<linearGradient x1="0.000000%" y1="50.000000%" x2="100.000000%" y2="50.000000%" id="lgradient4_1">
<stop offset="0" stop-color="#2C2C2C" stop-opacity="1"/>
<stop offset="0.5" stop-color="#FFFFFF" stop-opacity="1"/>
<stop offset="1" stop-color="#2C2C2C" stop-opacity="1"/>
</linearGradient>
<marker id="Arrow2" markerUnits="strokeWidth" markerWidth="6" markerHeight="6" viewBox="0 0 6 6" refX="3" refY="3" orient="auto"><polygon points="5,1 1,3 5,5" style="fill: #000000;"/></marker>
<radialGradient cx="50.000000%" cy="50.000000%" r="50.000000%" fx="50.000000%" fy="50.000000%" id="rgradient19_0">
<stop offset="0%" stop-color="#FFFFFF" stop-opacity="1"/>
<stop offset="100%" stop-color="#2C2C2C" stop-opacity="1"/>
</radialGradient>
<linearGradient x1="0.000000%" y1="50.000000%" x2="100.000000%" y2="50.000000%" id="lgradient19_1">
<stop offset="0" stop-color="#2C2C2C" stop-opacity="1"/>
<stop offset="0.5" stop-color="#FFFFFF" stop-opacity="1"/>
<stop offset="1" stop-color="#2C2C2C" stop-opacity="1"/>
</linearGradient>
<radialGradient cx="50.000000%" cy="50.000000%" r="50.000000%" fx="50.000000%" fy="50.000000%" id="rgradient34_0">
<stop offset="0%" stop-color="#FFFFFF" stop-opacity="1"/>
<stop offset="100%" stop-color="#2C2C2C" stop-opacity="1"/>
</radialGradient>
<linearGradient x1="0.000000%" y1="50.000000%" x2="100.000000%" y2="50.000000%" id="lgradient34_1">
<stop offset="0" stop-color="#2C2C2C" stop-opacity="1"/>
<stop offset="0.5" stop-color="#FFFFFF" stop-opacity="1"/>
<stop offset="1" stop-color="#2C2C2C" stop-opacity="1"/>
</linearGradient>
<radialGradient cx="50.000000%" cy="50.000000%" r="50.000000%" fx="50.000000%" fy="50.000000%" id="rgradient49_0">
<stop offset="0%" stop-color="#FFFFFF" stop-opacity="1"/>
<stop offset="100%" stop-color="#2C2C2C" stop-opacity="1"/>
</radialGradient>
<linearGradient x1="0.000000%" y1="50.000000%" x2="100.000000%" y2="50.000000%" id="lgradient49_1">
<stop offset="0" stop-color="#2C2C2C" stop-opacity="1"/>
<stop offset="0.5" stop-color="#FFFFFF" stop-opacity="1"/>
<stop offset="1" stop-color="#2C2C2C" stop-opacity="1"/>
</linearGradient>
<linearGradient x1="0.000000%" y1="50.000000%" x2="100.000000%" y2="50.000000%" id="lgradient71_0">
<stop offset="0" stop-color="#2C2C2C" stop-opacity="1"/>
<stop offset="0.5" stop-color="#FFFFFF" stop-opacity="1"/>
<stop offset="1" stop-color="#2C2C2C" stop-opacity="1"/>
</linearGradient>
<linearGradient x1="0.000000%" y1="50.000000%" x2="100.000000%" y2="50.000000%" id="lgradient72_0">
<stop offset="0" stop-color="#2C2C2C" stop-opacity="1"/>
<stop offset="0.5" stop-color="#FFFFFF" stop-opacity="1"/>
<stop offset="1" stop-color="#2C2C2C" stop-opacity="1"/>
</linearGradient>
<linearGradient x1="0.000000%" y1="50.000000%" x2="100.000000%" y2="50.000000%" id="lgradient85">
<stop offset="0" stop-color="#2C2C2C" stop-opacity="1"/>
<stop offset="0.5" stop-color="#FFFFFF" stop-opacity="1"/>
<stop offset="1" stop-color="#2C2C2C" stop-opacity="1"/>
</linearGradient>
<linearGradient x1="0.000000%" y1="50.000000%" x2="100.000000%" y2="50.000000%" id="lgradient89">
<stop offset="0" stop-color="#2C2C2C" stop-opacity="1"/>
<stop offset="0.5" stop-color="#FFFFFF" stop-opacity="1"/>
<stop offset="1" stop-color="#2C2C2C" stop-opacity="1"/>
</linearGradient>
</defs>
<line shape-type="line" x1="444" y1="649" x2="283" y2="649" fill="#00FFFF" stroke="#0080FF" stroke-width="1.00"/>
<line shape-type="line" x1="1160" y1="69" x2="105" y2="69" fill="#00FFFF" stroke="#FF0000" stroke-width="1.00"/>
<line shape-type="line" x1="977" y1="470" x2="209" y2="470" fill="#00FFFF" stroke="#0080FF" stroke-width="1.00"/>
<g shape-type="group">
<ellipse shape-type="ellipse" cx="1065" cy="259" rx="60" ry="40" fill="url(#rgradient4_0)" stroke="#000000" stroke-width="1.00"/>
<rect shape-type="rectangle" x="1004" y="252" width="122" height="126" fill="url(#lgradient4_1)" stroke="#000000" stroke-width="1.00"/>
</g>
<line shape-type="line" x1="1160" y1="277" x2="1160" y2="69" fill="#00FFFF" stroke="#FF0000" stroke-width="1.00"/>
<line shape-type="line" x1="1161" y1="275" x2="1030" y2="275" fill="#00FFFF" stroke="#FF0000" stroke-width="1.00"/>
<line shape-type="line" x1="1144" y1="339" x2="1035" y2="339" fill="#00FFFF" stroke="#FF0000" stroke-width="1.00"/>
<line shape-type="line" x1="1145" y1="447" x2="1145" y2="341" marker-start="url(#Arrow2)" fill="#00FFFF" stroke="#FF0000" stroke-width="1.00"/>
<line shape-type="line" x1="1007" y1="345" x2="977" y2="345" fill="#00FFFF" stroke="#0080FF" stroke-width="1.00"/>
<line shape-type="line" x1="977" y1="472" x2="977" y2="343" fill="#00FFFF" stroke="#0080FF" stroke-width="1.00"/>
<line shape-type="line" x1="1004" y1="367" x2="949" y2="367" fill="#00FFFF" stroke="#0080FF" stroke-width="1.00"/>
<line shape-type="line" x1="947" y1="496" x2="947" y2="369" fill="#00FFFF" stroke="#0080FF" stroke-width="1.00"/>
<text font-family="宋体" text-anchor="start" fill="#000000" shape-type="text" id="" font-size="9.500000" x="1039" y="268">汽油组水煤</text>
<text font-family="宋体" text-anchor="start" fill="#00FF00" shape-type="text" id="" font-size="8.750000" x="1051" y="359">XXXXXX</text>
<rect shape-type="rectangle" x="1006" y="253" width="11" height="124" fill="#FFFFFF" stroke="#000000" stroke-width="1.00"/>
<rect shape-type="rectangle" x="1006" y="316" width="11" height="61" fill="#00FF00" stroke="#000000" stroke-width="1.00"/>
<g shape-type="group">
<rect shape-type="rectangle" x="929" y="246" width="59" height="32" fill="#C0C0C0" stroke="#C0C0C0" stroke-width="1.00"/>
<text font-family="宋体" text-anchor="start" fill="#0080FF" shape-type="text" id="" font-size="11.000000">
<tspan x="934" y="260">XXXXXX</tspan>
<tspan x="934" y="272">XXXXXX</tspan>
</text>
</g>
<g shape-type="group">
<rect shape-type="rectangle" x="931" y="288" width="59" height="33" fill="#C0C0C0" stroke="#C0C0C0" stroke-width="1.00"/>
<text font-family="宋体" text-anchor="start" fill="#0080FF" shape-type="text" id="" font-size="11.000000">
<tspan x="936" y="302">XXXXXX</tspan>
<tspan x="936" y="314">XXXXXX</tspan>
</text>
</g>
<g shape-type="group">
<ellipse shape-type="ellipse" cx="360" cy="242" rx="60" ry="40" fill="url(#rgradient19_0)" stroke="#000000" stroke-width="1.00"/>
<rect shape-type="rectangle" x="299" y="235" width="122" height="126" fill="url(#lgradient19_1)" stroke="#000000" stroke-width="1.00"/>
</g>
<line shape-type="line" x1="455" y1="260" x2="455" y2="69" fill="#00FFFF" stroke="#FF0000" stroke-width="1.00"/>
<line shape-type="line" x1="456" y1="258" x2="325" y2="258" fill="#00FFFF" stroke="#FF0000" stroke-width="1.00"/>
<line shape-type="line" x1="439" y1="322" x2="330" y2="322" fill="#00FFFF" stroke="#FF0000" stroke-width="1.00"/>
<line shape-type="line" x1="440" y1="430" x2="440" y2="323" marker-start="url(#Arrow2)" fill="#00FFFF" stroke="#FF0000" stroke-width="1.00"/>
<line shape-type="line" x1="302" y1="327" x2="272" y2="327" fill="#00FFFF" stroke="#0080FF" stroke-width="1.00"/>
<line shape-type="line" x1="272" y1="468" x2="272" y2="325" fill="#00FFFF" stroke="#0080FF" stroke-width="1.00"/>
<line shape-type="line" x1="299" y1="350" x2="244" y2="350" fill="#00FFFF" stroke="#0080FF" stroke-width="1.00"/>
<line shape-type="line" x1="242" y1="500" x2="242" y2="352" fill="#00FFFF" stroke="#0080FF" stroke-width="1.00"/>
<text font-family="宋体" text-anchor="start" fill="#000000" shape-type="text" id="" font-size="9.500000" x="333" y="251">汽油组水煤</text>
<text font-family="宋体" text-anchor="start" fill="#00FF00" shape-type="text" id="" font-size="10.250000" x="346" y="343">XXXXXX</text>
<rect shape-type="rectangle" x="301" y="236" width="10" height="124" fill="#FFFFFF" stroke="#000000" stroke-width="1.00"/>
<rect shape-type="rectangle" x="301" y="299" width="10" height="61" fill="#00FF00" stroke="#000000" stroke-width="1.00"/>
<g shape-type="group">
<rect shape-type="rectangle" x="224" y="228" width="58" height="33" fill="#C0C0C0" stroke="#C0C0C0" stroke-width="1.00"/>
<text font-family="宋体" text-anchor="start" fill="#0080FF" shape-type="text" id="" font-size="11.000000">
<tspan x="229" y="242">XXXXXX</tspan>
<tspan x="229" y="254">XXXXXX</tspan>
</text>
</g>
<g shape-type="group">
<rect shape-type="rectangle" x="226" y="271" width="58" height="32" fill="#C0C0C0" stroke="#C0C0C0" stroke-width="1.00"/>
<text font-family="宋体" text-anchor="start" fill="#0080FF" shape-type="text" id="" font-size="11.000000">
<tspan x="231" y="285">XXXXXX</tspan>
<tspan x="231" y="297">XXXXXX</tspan>
</text>
</g>
<g shape-type="group">
<ellipse shape-type="ellipse" cx="596" cy="245" rx="59" ry="40" fill="url(#rgradient34_0)" stroke="#000000" stroke-width="1.00"/>
<rect shape-type="rectangle" x="535" y="239" width="121" height="126" fill="url(#lgradient34_1)" stroke="#000000" stroke-width="1.00"/>
</g>
<line shape-type="line" x1="691" y1="264" x2="691" y2="72" fill="#00FFFF" stroke="#FF0000" stroke-width="1.00"/>
<line shape-type="line" x1="692" y1="261" x2="561" y2="261" fill="#00FFFF" stroke="#FF0000" stroke-width="1.00"/>
<line shape-type="line" x1="674" y1="325" x2="566" y2="325" fill="#00FFFF" stroke="#FF0000" stroke-width="1.00"/>
<line shape-type="line" x1="675" y1="433" x2="675" y2="326" marker-start="url(#Arrow2)" fill="#00FFFF" stroke="#FF0000" stroke-width="1.00"/>
<line shape-type="line" x1="538" y1="330" x2="508" y2="330" fill="#00FFFF" stroke="#0080FF" stroke-width="1.00"/>
<line shape-type="line" x1="508" y1="458" x2="508" y2="328" fill="#00FFFF" stroke="#0080FF" stroke-width="1.00"/>
<line shape-type="line" x1="535" y1="353" x2="480" y2="353" fill="#00FFFF" stroke="#0080FF" stroke-width="1.00"/>
<line shape-type="line" x1="478" y1="500" x2="478" y2="355" fill="#00FFFF" stroke="#0080FF" stroke-width="1.00"/>
<text font-family="宋体" text-anchor="start" fill="#000000" shape-type="text" id="" font-size="9.500000" x="569" y="254">汽油组水煤</text>
<text font-family="宋体" text-anchor="start" fill="#00FF00" shape-type="text" id="" font-size="10.250000" x="582" y="346">XXXXXX</text>
<rect shape-type="rectangle" x="538" y="240" width="10" height="124" fill="#FFFFFF" stroke="#000000" stroke-width="1.00"/>
<rect shape-type="rectangle" x="538" y="302" width="10" height="62" fill="#00FF00" stroke="#000000" stroke-width="1.00"/>
<g shape-type="group">
<rect shape-type="rectangle" x="460" y="231" width="59" height="34" fill="#C0C0C0" stroke="#C0C0C0" stroke-width="1.00"/>
<text font-family="宋体" text-anchor="start" fill="#0080FF" shape-type="text" id="" font-size="11.750000">
<tspan x="466" y="245">XXXXXX</tspan>
<tspan x="466" y="258">XXXXXX</tspan>
</text>
</g>
<g shape-type="group">
<rect shape-type="rectangle" x="463" y="274" width="58" height="32" fill="#C0C0C0" stroke="#C0C0C0" stroke-width="1.00"/>
<text font-family="宋体" text-anchor="start" fill="#0080FF" shape-type="text" id="" font-size="11.000000">
<tspan x="468" y="288">XXXXXX</tspan>
<tspan x="468" y="300">XXXXXX</tspan>
</text>
</g>
<g shape-type="group">
<ellipse shape-type="ellipse" cx="833" cy="245" rx="60" ry="40" fill="url(#rgradient49_0)" stroke="#000000" stroke-width="1.00"/>
<rect shape-type="rectangle" x="772" y="239" width="122" height="126" fill="url(#lgradient49_1)" stroke="#000000" stroke-width="1.00"/>
</g>
<line shape-type="line" x1="928" y1="264" x2="928" y2="72" fill="#00FFFF" stroke="#FF0000" stroke-width="1.00"/>
<line shape-type="line" x1="929" y1="261" x2="798" y2="261" fill="#00FFFF" stroke="#FF0000" stroke-width="1.00"/>
<line shape-type="line" x1="911" y1="325" x2="803" y2="325" fill="#00FFFF" stroke="#FF0000" stroke-width="1.00"/>
<line shape-type="line" x1="913" y1="433" x2="913" y2="326" marker-start="url(#Arrow2)" fill="#00FFFF" stroke="#FF0000" stroke-width="1.00"/>
<line shape-type="line" x1="775" y1="330" x2="745" y2="330" fill="#00FFFF" stroke="#0080FF" stroke-width="1.00"/>
<line shape-type="line" x1="745" y1="458" x2="745" y2="328" fill="#00FFFF" stroke="#0080FF" stroke-width="1.00"/>
<line shape-type="line" x1="772" y1="353" x2="717" y2="353" fill="#00FFFF" stroke="#0080FF" stroke-width="1.00"/>
<line shape-type="line" x1="715" y1="498" x2="715" y2="355" fill="#00FFFF" stroke="#0080FF" stroke-width="1.00"/>
<text font-family="宋体" text-anchor="start" fill="#000000" shape-type="text" id="" font-size="9.500000" x="806" y="254">汽油组水煤</text>
<text font-family="宋体" text-anchor="start" fill="#00FF00" shape-type="text" id="" font-size="10.250000" x="819" y="346">XXXXXX</text>
<rect shape-type="rectangle" x="774" y="240" width="10" height="124" fill="#FFFFFF" stroke="#000000" stroke-width="1.00"/>
<rect shape-type="rectangle" x="774" y="302" width="10" height="62" fill="#00FF00" stroke="#000000" stroke-width="1.00"/>
<g shape-type="group">
<rect shape-type="rectangle" x="697" y="231" width="58" height="34" fill="#C0C0C0" stroke="#C0C0C0" stroke-width="1.00"/>
<text font-family="宋体" text-anchor="start" fill="#0080FF" shape-type="text" id="" font-size="11.750000">
<tspan x="702" y="245">XXXXXX</tspan>
<tspan x="702" y="258">XXXXXX</tspan>
</text>
</g>
<g shape-type="group">
<rect shape-type="rectangle" x="699" y="274" width="58" height="32" fill="#C0C0C0" stroke="#C0C0C0" stroke-width="1.00"/>
<text font-family="宋体" text-anchor="start" fill="#0080FF" shape-type="text" id="" font-size="11.000000">
<tspan x="704" y="288">XXXXXX</tspan>
<tspan x="704" y="300">XXXXXX</tspan>
</text>
</g>
<line shape-type="line" x1="946" y1="498" x2="148" y2="496" fill="#00FFFF" stroke="#0080FF" stroke-width="1.00"/>
<line shape-type="line" x1="1196" y1="532" x2="216" y2="532" fill="#00FFFF" stroke="#0080FF" stroke-width="1.00"/>
<line shape-type="line" x1="149" y1="652" x2="149" y2="495" fill="#00FFFF" stroke="#0080FF" stroke-width="1.00"/>
<g shape-type="group">
<polygon shape-type="trapezium" points="220,658 204,658 208,651 216,651 220,658" stroke="#FFFFFF" stroke-width="1.00"/>
<ellipse shape-type="ellipse" cx="212" cy="650" rx="6" ry="3" fill="#FF0000" stroke="#FF0000" stroke-width="1.00"/>
</g>
<g shape-type="group">
<polygon shape-type="trapezium" points="180,657 164,657 168,650 176,650 180,657" stroke="#FFFFFF" stroke-width="1.00"/>
<ellipse shape-type="ellipse" cx="173" cy="649" rx="5" ry="3" fill="#FF0000" stroke="#FF0000" stroke-width="1.00"/>
</g>
<g shape-type="group">
<rect shape-type="rectangle" x="7" y="611" width="61" height="31" fill="#FFFFFF" stroke="#000000" stroke-width="1.00"/>
<text font-family="宋体" text-anchor="start" fill="#000000" shape-type="text" id="" font-size="10.250000">
<tspan x="17" y="624">XXXXXX</tspan>
<tspan x="17" y="635">XXXXXX</tspan>
</text>
</g>
<g shape-type="group">
<rect shape-type="rectangle" x="225" y="599" width="61" height="31" fill="#FFFFFF" stroke="#000000" stroke-width="1.00"/>
<text font-family="宋体" text-anchor="start" fill="#000000" shape-type="text" id="" font-size="10.250000">
<tspan x="234" y="612">XXXXXX</tspan>
<tspan x="234" y="623">XXXXXX</tspan>
</text>
</g>
<g shape-type="group">
<rect shape-type="rectangle" x="71" y="619" width="64" height="55" fill="url(#lgradient71_0)" stroke="#000000" stroke-width="1.00"/>
<rect shape-type="rectangle" x="73" y="620" width="9" height="49" fill="#FFFFFF" stroke="#000000" stroke-width="1.00"/>
<rect shape-type="rectangle" x="73" y="636" width="9" height="32" fill="#00FF00" stroke="#000000" stroke-width="1.00"/>
<text font-family="宋体" text-anchor="start" fill="#000000" shape-type="text" id="" font-size="10.250000" x="85" y="640">XXXXXX</text>
</g>
<g shape-type="group">
<rect shape-type="rectangle" x="288" y="611" width="63" height="55" fill="url(#lgradient72_0)" stroke="#000000" stroke-width="1.00"/>
<rect shape-type="rectangle" x="289" y="611" width="9" height="49" fill="#FFFFFF" stroke="#000000" stroke-width="1.00"/>
<rect shape-type="rectangle" x="289" y="628" width="9" height="31" fill="#00FF00" stroke="#000000" stroke-width="1.00"/>
<text font-family="宋体" text-anchor="start" fill="#000000" shape-type="text" id="" font-size="9.500000" x="301" y="631">XXXXXX</text>
</g>
<line shape-type="line" x1="280" y1="701" x2="280" y2="649" fill="#00FFFF" stroke="#0080FF" stroke-width="1.00"/>
<line shape-type="line" x1="279" y1="703" x2="36" y2="703" fill="#00FFFF" stroke="#0080FF" stroke-width="1.00"/>
<line shape-type="line" x1="35" y1="705" x2="35" y2="653" fill="#00FFFF" stroke="#0080FF" stroke-width="1.00"/>
<line shape-type="line" x1="442" y1="648" x2="442" y2="565" fill="#00FFFF" stroke="#0080FF" stroke-width="1.00"/>
<line shape-type="line" x1="442" y1="607" x2="398" y2="607" fill="#00FFFF" stroke="#0080FF" stroke-width="1.00"/>
<line shape-type="line" x1="400" y1="649" x2="400" y2="608" fill="#00FFFF" stroke="#0080FF" stroke-width="1.00"/>
<line shape-type="line" x1="1180" y1="564" x2="444" y2="563" fill="#00FFFF" stroke="#0080FF" stroke-width="1.00"/>
<g shape-type="group">
<polygon shape-type="trapezium" points="448,655 432,655 436,648 444,648 448,655" stroke="#FFFFFF" stroke-width="1.00"/>
<ellipse shape-type="ellipse" cx="440" cy="647" rx="6" ry="3" fill="#FF0000" stroke="#FF0000" stroke-width="1.00"/>
</g>
<g shape-type="group">
<polygon shape-type="trapezium" points="407,654 391,654 395,647 403,647 407,654" stroke="#FFFFFF" stroke-width="1.00"/>
<ellipse shape-type="ellipse" cx="400" cy="646" rx="5" ry="3" fill="#FF0000" stroke="#FF0000" stroke-width="1.00"/>
</g>
<text font-family="宋体" text-anchor="start" fill="#00FF00" shape-type="text" id="" font-size="10.250000" x="179" y="673">V-301AB</text>
<text font-family="宋体" text-anchor="start" fill="#00FF00" shape-type="text" id="" font-size="10.250000" x="398" y="667">V-301AB</text>
<g shape-type="group">
<rect shape-type="rectangle" x="538" y="627" width="60" height="31" fill="#FFFFFF" stroke="#000000" stroke-width="1.00"/>
<text font-family="宋体" text-anchor="start" fill="#000000" shape-type="text" id="" font-size="10.250000">
<tspan x="547" y="640">XXXXXX</tspan>
<tspan x="547" y="651">XXXXXX</tspan>
</text>
</g>
<rect shape-type="rectangle" x="609" y="611" width="67" height="57" fill="url(#lgradient85)" stroke="#000000" stroke-width="1.00"/>
<rect shape-type="rectangle" x="611" y="613" width="10" height="48" fill="#FFFFFF" stroke="#000000" stroke-width="1.00"/>
<rect shape-type="rectangle" x="611" y="644" width="10" height="16" fill="#00FF00" stroke="#000000" stroke-width="1.00"/>
<text font-family="宋体" text-anchor="start" fill="#000000" shape-type="text" id="" font-size="9.500000" x="624" y="632">XXXXXX</text>
<rect shape-type="rectangle" x="674" y="611" width="67" height="57" fill="url(#lgradient89)" stroke="#000000" stroke-width="1.00"/>
<text font-family="宋体" text-anchor="start" fill="#000000" shape-type="text" id="" font-size="9.500000" x="686" y="632">XXXXXX</text>
<line shape-type="line" x1="660" y1="682" x2="660" y2="667" fill="#00FFFF" stroke="#0080FF" stroke-width="1.00"/>
<line shape-type="line" x1="763" y1="684" x2="660" y2="684" fill="#00FFFF" stroke="#0080FF" stroke-width="1.00"/>
<line shape-type="line" x1="766" y1="683" x2="766" y2="668" fill="#00FFFF" stroke="#0080FF" stroke-width="1.00"/>
<line shape-type="line" x1="921" y1="666" x2="766" y2="665" fill="#00FFFF" stroke="#0080FF" stroke-width="1.00"/>
<line shape-type="line" x1="757" y1="651" x2="740" y2="651" fill="#00FFFF" stroke="#0080FF" stroke-width="1.00"/>
<line shape-type="line" x1="756" y1="649" x2="756" y2="617" fill="#00FFFF" stroke="#0080FF" stroke-width="1.00"/>
<line shape-type="line" x1="868" y1="616" x2="758" y2="616" fill="#00FFFF" stroke="#0080FF" stroke-width="1.00"/>
<line shape-type="line" x1="800" y1="614" x2="800" y2="594" fill="#00FFFF" stroke="#0080FF" stroke-width="1.00"/>
<line shape-type="line" x1="867" y1="614" x2="867" y2="594" fill="#00FFFF" stroke="#0080FF" stroke-width="1.00"/>
<line shape-type="line" x1="919" y1="593" x2="800" y2="593" fill="#00FFFF" stroke="#0080FF" stroke-width="1.00"/>
<g shape-type="group">
<polygon shape-type="trapezium" points="876,622 860,622 864,616 872,616 876,622" stroke="#FFFFFF" stroke-width="1.00"/>
<ellipse shape-type="ellipse" cx="868" cy="614" rx="5" ry="3" fill="#FF0000" stroke="#FF0000" stroke-width="1.00"/>
</g>
<g shape-type="group">
<polygon shape-type="trapezium" points="809,621 793,621 797,615 805,615 809,621" stroke="#FFFFFF" stroke-width="1.00"/>
<ellipse shape-type="ellipse" cx="801" cy="613" rx="5" ry="3" fill="#FF0000" stroke="#FF0000" stroke-width="1.00"/>
</g>
<line shape-type="line" x1="811" y1="668" x2="811" y2="653" fill="#00FFFF" stroke="#0080FF" stroke-width="1.00"/>
<g shape-type="group">
<polygon shape-type="trapezium" points="819,674 803,674 807,667 815,667 819,674" stroke="#FFFFFF" stroke-width="1.00"/>
<ellipse shape-type="ellipse" cx="811" cy="666" rx="6" ry="3" fill="#FF0000" stroke="#FF0000" stroke-width="1.00"/>
</g>
<g shape-type="group">
<polygon shape-type="trapezium" points="858,674 842,674 846,667 854,667 858,674" stroke="#FFFFFF" stroke-width="1.00"/>
<ellipse shape-type="ellipse" cx="850" cy="666" rx="5" ry="3" fill="#FF0000" stroke="#FF0000" stroke-width="1.00"/>
</g>
<g shape-type="group">
<polygon shape-type="trapezium" points="897,674 881,674 885,667 893,667 897,674" stroke="#FFFFFF" stroke-width="1.00"/>
<ellipse shape-type="ellipse" cx="889" cy="666" rx="6" ry="3" fill="#FF0000" stroke="#FF0000" stroke-width="1.00"/>
</g>
<line shape-type="line" x1="851" y1="667" x2="851" y2="652" fill="#00FFFF" stroke="#0080FF" stroke-width="1.00"/>
<line shape-type="line" x1="890" y1="668" x2="890" y2="653" fill="#00FFFF" stroke="#0080FF" stroke-width="1.00"/>
<line shape-type="line" x1="931" y1="651" x2="812" y2="651" fill="#00FFFF" stroke="#0080FF" stroke-width="1.00"/>
<line shape-type="line" x1="922" y1="668" x2="922" y2="653" fill="#00FFFF" stroke="#0080FF" stroke-width="1.00"/>
<polygon shape-type="trapezium" points="930,676 914,676 918,669 926,669 930,676" stroke="#FFFFFF" stroke-width="1.00"/>
<ellipse shape-type="ellipse" cx="922" cy="668" rx="5" ry="3" fill="#00FF00" stroke="#00FF40" stroke-width="1.00"/>
<text font-family="宋体" text-anchor="start" fill="#00FF00" shape-type="text" id="" font-size="10.250000" x="779" y="637">V-301AB</text>
<text font-family="宋体" text-anchor="start" fill="#00FF00" shape-type="text" id="" font-size="10.250000" x="851" y="636">V-301AB</text>
<text font-family="宋体" text-anchor="start" fill="#00FF00" shape-type="text" id="" font-size="10.250000" x="793" y="689">V-301AB</text>
<text font-family="宋体" text-anchor="start" fill="#00FF00" shape-type="text" id="" font-size="10.250000" x="912" y="688">P-003</text>
<text font-family="宋体" text-anchor="start" fill="#00FF00" shape-type="text" id="" font-size="10.250000" x="865" y="690">P-002</text>
<line shape-type="line" x1="213" y1="652" x2="213" y2="470" fill="#00FFFF" stroke="#0080FF" stroke-width="1.00"/>
<line shape-type="line" x1="213" y1="611" x2="170" y2="611" fill="#00FFFF" stroke="#0080FF" stroke-width="1.00"/>
<line shape-type="line" x1="172" y1="653" x2="172" y2="613" fill="#00FFFF" stroke="#0080FF" stroke-width="1.00"/>
<line shape-type="line" x1="213" y1="653" x2="9" y2="653" fill="#00FFFF" stroke="#0080FF" stroke-width="1.00"/>
<g shape-type="group">
<rect shape-type="rectangle" x="5" y="759" width="73" height="35" fill="#808080" stroke="#000000" stroke-width="1.00"/>
<text font-family="宋体" text-anchor="start" fill="#000000" shape-type="text" id="" font-size="11.000000" x="13" y="781">污水处理1</text>
</g>
<rect shape-type="rectangle" x="79" y="759" width="73" height="35" fill="#808080" stroke="#000000" stroke-width="1.00"/>
<text font-family="宋体" text-anchor="start" fill="#000000" shape-type="text" id="" font-size="11.000000" x="86" y="781">污水处理2</text>
<rect shape-type="rectangle" x="153" y="759" width="72" height="35" fill="#808080" stroke="#000000" stroke-width="1.00"/>
<text font-family="宋体" text-anchor="start" fill="#000000" shape-type="text" id="" font-size="11.000000" x="160" y="781">污水处理3</text>
<rect shape-type="rectangle" x="227" y="759" width="72" height="35" fill="#808080" stroke="#000000" stroke-width="1.00"/>
<text font-family="宋体" text-anchor="start" fill="#000000" shape-type="text" id="" font-size="11.000000" x="234" y="781">污水处理4</text>
<rect shape-type="rectangle" x="300" y="759" width="73" height="35" fill="#808080" stroke="#000000" stroke-width="1.00"/>
<text font-family="宋体" text-anchor="start" fill="#000000" shape-type="text" id="" font-size="11.000000" x="308" y="781">污水处理5</text>
<rect shape-type="rectangle" x="374" y="759" width="73" height="35" fill="#00FF40" stroke="#000000" stroke-width="1.00"/>
<text font-family="宋体" text-anchor="start" fill="#000000" shape-type="text" id="" font-size="11.000000" x="382" y="781">污水处理6</text>
<rect shape-type="rectangle" x="448" y="759" width="73" height="35" fill="#808080" stroke="#000000" stroke-width="1.00"/>
<text font-family="宋体" text-anchor="start" fill="#000000" shape-type="text" id="" font-size="11.000000" x="456" y="781">污水处理7</text>
<a xlink:href="..\洁源环保总图.svg">
<g shape-type="button">
<rect fill="#C0C0C0" stroke-width="0.3" stroke="#FFFFFF" x="1099" y="769" width="51" height="29" shape-type="buttonrect"/>
<text font-family="宋体" text-anchor="middle" dominant-baseline="middle" fill="#000000" font-size="13.500000" x="1124" y="789" shape-type="buttontext">返回</text>
</g>
</a>
</svg>