<svg xmlns="http://www.w3.org/2000/svg" xmlns:xlink="http://www.w3.org/1999/xlink" version="1.1" style="background-color:#7DB6C1" width="1062" height="669" viewbox="0 0 1062 669"><defs>
</defs>
<rect shape-type="roundRectangle" rx="20" ry="20" x="304" y="508" width="28" height="59" fill="#00AAAA" stroke="#000000" stroke-width="1.00"/>
<rect shape-type="roundRectangle" rx="20" ry="20" x="210" y="538" width="153" height="42" fill="#00AAAA" stroke="#000000" stroke-width="1.00"/>
<rect shape-type="roundRectangle" rx="20" ry="20" x="567" y="239" width="93" height="90" fill="#00AAAA" stroke="#000000" stroke-width="1.00"/>
<rect shape-type="roundRectangle" rx="20" ry="20" x="581" y="313" width="62" height="249" fill="#00AAAA" stroke="#000000" stroke-width="1.00"/>
<polygon shape-type="trapezium" points="659,303 567,303 582,333 644,333 659,303" fill="#00AAAA" stroke="#000000" stroke-width="1.00"/>
<rect shape-type="roundRectangle" rx="20" ry="20" x="393" y="328" width="52" height="222" fill="#00AAAA" stroke="#000000" stroke-width="1.00"/>
<rect shape-type="roundRectangle" rx="20" ry="20" x="288" y="263" width="40" height="116" fill="#00AAAA" stroke="#000000" stroke-width="1.00"/>
<rect shape-type="roundRectangle" rx="20" ry="20" x="155" y="347" width="21" height="59" fill="#00AAAA" stroke="#000000" stroke-width="1.00"/>
<rect shape-type="roundRectangle" rx="20" ry="20" x="73" y="333" width="146" height="42" fill="#00AAAA" stroke="#000000" stroke-width="1.00"/>
<rect shape-type="roundRectangle" rx="20" ry="20" x="870" y="277" width="28" height="59" fill="#00AAAA" stroke="#000000" stroke-width="1.00"/>
<rect shape-type="roundRectangle" rx="20" ry="20" x="779" y="300" width="146" height="43" fill="#00AAAA" stroke="#000000" stroke-width="1.00"/>
<text font-family="Arial" text-anchor="start" fill="#FFFFFF" shape-type="realdata" id="CJY_FIQ001" font-size="12.500000" x="36" y="314">XXXXXXXX</text>
<text font-family="Arial" text-anchor="start" fill="#FFFFFF" shape-type="realdata" id="CJY_PIC001_PV" font-size="12.500000" x="122" y="301">XXXXXXXX</text>
<text font-family="Arial" text-anchor="start" fill="#FFFFFF" shape-type="realdata" id="CJY_LIC001_PV" font-size="12.500000" x="203" y="367">XXXXXXXX</text>
<text font-family="Arial" text-anchor="start" fill="#FFFFFF" shape-type="realdata" id="CJY_FIC002_PV" font-size="12.500000" x="98" y="564">XXXXXXXX</text>
<text font-family="Arial" text-anchor="start" fill="#FFFFFF" shape-type="realdata" id="CJY_TE001" font-size="12.500000" x="379" y="587">XXXXXXXX</text>
<text font-family="Arial" text-anchor="start" fill="#FFFFFF" shape-type="realdata" id="CJY_LIC003_PV" font-size="12.500000" x="432" y="507">XXXXXXXX</text>
<text font-family="Arial" text-anchor="start" fill="#FFFFFF" shape-type="realdata" id="CJY_LT005" font-size="12.500000" x="502" y="535">XXXXXXXX</text>
<text font-family="Arial" text-anchor="start" fill="#FFFFFF" shape-type="realdata" id="CJY_TE003" font-size="12.500000" x="620" y="541">XXXXXXXX</text>
<text font-family="Arial" text-anchor="start" fill="#FFFFFF" shape-type="realdata" id="CJY_FIC004_PV" font-size="12.500000" x="494" y="431">XXXXXXXX</text>
<text font-family="Arial" text-anchor="start" fill="#FFFFFF" shape-type="realdata" id="CJY_PT003" font-size="12.500000" x="421" y="333">XXXXXXXX</text>
<text font-family="Arial" text-anchor="start" fill="#FFFFFF" shape-type="realdata" id="CJY_PIC002_PV" font-size="12.500000" x="338" y="238">XXXXXXXX</text>
<text font-family="Arial" text-anchor="start" fill="#FFFFFF" shape-type="realdata" id="CJY_FIC003_PV" font-size="12.500000" x="428" y="240">XXXXXXXX</text>
<text font-family="Arial" text-anchor="start" fill="#FFFFFF" shape-type="realdata" id="CJY_TE002" font-size="12.500000" x="675" y="391">XXXXXXXX</text>
<text font-family="Arial" text-anchor="start" fill="#FFFFFF" shape-type="realdata" id="CJY_FIC005_PV" font-size="12.500000" x="678" y="462">XXXXXXXX</text>
<text font-family="Arial" text-anchor="start" fill="#FFFFFF" shape-type="realdata" id="CJY_PIC004_PV" font-size="12.500000" x="886" y="279">XXXXXXXX</text>
<text font-family="Arial" text-anchor="start" fill="#FFFFFF" shape-type="realdata" id="CJY_LIC006_PV" font-size="12.500000" x="912" y="340">XXXXXXXX</text>
<rect shape-type="rectangle" x="192" y="336" width="13" height="38" stroke="#000000" stroke-width="1.00"/>
<rect shape-type="rectangle" x="428" y="482" width="13" height="49" stroke="#000000" stroke-width="1.00"/>
<rect shape-type="rectangle" x="583" y="489" width="15" height="49" stroke="#000000" stroke-width="1.00"/>
<rect shape-type="rectangle" x="897" y="299" width="12" height="43" stroke="#000000" stroke-width="1.00"/>
<text font-family="宋体" text-anchor="start" fill="#000000" shape-type="text" id="" font-size="22.250000" font-weight="bold" x="390" y="136">气分脱硫工艺流程图一</text>
<line shape-type="limitline" x1="201" y1="198" x2="23" y2="198" fill="#FFFFFF" stroke="#0000FF" stroke-width="1.00"/>
<line shape-type="limitline" x1="201" y1="331" x2="201" y2="198" fill="#FFFFFF" stroke="#0000FF" stroke-width="1.00"/>
<line shape-type="limitline" x1="106" y1="255" x2="23" y2="255" fill="#FFFFFF" stroke="#0000FF" stroke-width="1.00"/>
<line shape-type="limitline" x1="107" y1="210" x2="107" y2="333" fill="#FFFFFF" stroke="#0000FF" stroke-width="1.00"/>
<line shape-type="limitline" x1="257" y1="210" x2="107" y2="210" fill="#FFFFFF" stroke="#0000FF" stroke-width="1.00"/>
<line shape-type="limitline" x1="255" y1="243" x2="255" y2="210" fill="#FFFFFF" stroke="#0000FF" stroke-width="1.00"/>
<line shape-type="limitline" x1="558" y1="242" x2="254" y2="242" fill="#FFFFFF" stroke="#0000FF" stroke-width="1.00"/>
<line shape-type="limitline" x1="416" y1="295" x2="328" y2="295" fill="#FFFFFF" stroke="#0000FF" stroke-width="1.00"/>
<line shape-type="limitline" x1="415" y1="324" x2="415" y2="295" fill="#FFFFFF" stroke="#0000FF" stroke-width="1.00"/>
<line shape-type="limitline" x1="88" y1="720" x2="88" y2="372" fill="#FFFFFF" stroke="#0000FF" stroke-width="1.00"/>
<line shape-type="limitline" x1="125" y1="719" x2="88" y2="719" fill="#FFFFFF" stroke="#0000FF" stroke-width="1.00"/>
<line shape-type="limitline" x1="172" y1="678" x2="87" y2="678" fill="#FFFFFF" stroke="#0000FF" stroke-width="1.00"/>
<line shape-type="limitline" x1="172" y1="717" x2="172" y2="677" fill="#FFFFFF" stroke="#0000FF" stroke-width="1.00"/>
<line shape-type="limitline" x1="192" y1="718" x2="172" y2="718" fill="#FFFFFF" stroke="#0000FF" stroke-width="1.00"/>
<line shape-type="limitline" x1="212" y1="653" x2="212" y2="699" fill="#FFFFFF" stroke="#0000FF" stroke-width="1.00"/>
<line shape-type="limitline" x1="212" y1="653" x2="149" y2="653" fill="#FFFFFF" stroke="#0000FF" stroke-width="1.00"/>
<line shape-type="limitline" x1="150" y1="593" x2="150" y2="701" fill="#FFFFFF" stroke="#0000FF" stroke-width="1.00"/>
<line shape-type="limitline" x1="514" y1="593" x2="150" y2="593" fill="#FFFFFF" stroke="#0000FF" stroke-width="1.00"/>
<line shape-type="limitline" x1="513" y1="440" x2="513" y2="593" fill="#FFFFFF" stroke="#0000FF" stroke-width="1.00"/>
<line shape-type="limitline" x1="583" y1="439" x2="513" y2="439" fill="#FFFFFF" stroke="#0000FF" stroke-width="1.00"/>
<line shape-type="limitline" x1="495" y1="635" x2="495" y2="363" fill="#FFFFFF" stroke="#0000FF" stroke-width="1.00"/>
<line shape-type="limitline" x1="497" y1="363" x2="447" y2="363" fill="#FFFFFF" stroke="#0000FF" stroke-width="1.00"/>
<line shape-type="limitline" x1="319" y1="486" x2="319" y2="508" fill="#FFFFFF" stroke="#0000FF" stroke-width="1.00"/>
<line shape-type="limitline" x1="392" y1="485" x2="319" y2="485" fill="#FFFFFF" stroke="#0000FF" stroke-width="1.00"/>
<line shape-type="limitline" x1="687" y1="638" x2="65" y2="638" fill="#FFFFFF" stroke="#0000FF" stroke-width="1.00"/>
<line shape-type="limitline" x1="684" y1="364" x2="684" y2="638" fill="#FFFFFF" stroke="#0000FF" stroke-width="1.00"/>
<line shape-type="limitline" x1="684" y1="363" x2="643" y2="363" fill="#FFFFFF" stroke="#0000FF" stroke-width="1.00"/>
<line shape-type="limitline" x1="455" y1="514" x2="446" y2="514" fill="#FFFFFF" stroke="#0000FF" stroke-width="1.00"/>
<line shape-type="limitline" x1="456" y1="567" x2="456" y2="514" fill="#FFFFFF" stroke="#0000FF" stroke-width="1.00"/>
<line shape-type="limitline" x1="744" y1="567" x2="454" y2="567" fill="#FFFFFF" stroke="#0000FF" stroke-width="1.00"/>
<line shape-type="limitline" x1="744" y1="500" x2="744" y2="567" fill="#FFFFFF" stroke="#0000FF" stroke-width="1.00"/>
<line shape-type="limitline" x1="768" y1="500" x2="644" y2="500" fill="#FFFFFF" stroke="#0000FF" stroke-width="1.00"/>
<line shape-type="limitline" x1="770" y1="452" x2="770" y2="501" fill="#FFFFFF" stroke="#0000FF" stroke-width="1.00"/>
<line shape-type="limitline" x1="771" y1="281" x2="771" y2="365" fill="#FFFFFF" stroke="#0000FF" stroke-width="1.00"/>
<line shape-type="limitline" x1="799" y1="281" x2="771" y2="281" fill="#FFFFFF" stroke="#0000FF" stroke-width="1.00"/>
<line shape-type="limitline" x1="798" y1="300" x2="798" y2="281" fill="#FFFFFF" stroke="#0000FF" stroke-width="1.00"/>
<line shape-type="limitline" x1="829" y1="531" x2="829" y2="451" fill="#FFFFFF" stroke="#0000FF" stroke-width="1.00"/>
<line shape-type="limitline" x1="830" y1="592" x2="830" y2="566" fill="#FFFFFF" stroke="#0000FF" stroke-width="1.00"/>
<line shape-type="limitline" x1="1047" y1="592" x2="830" y2="592" fill="#FFFFFF" stroke="#0000FF" stroke-width="1.00"/>
<line shape-type="limitline" x1="828" y1="351" x2="828" y2="368" fill="#FFFFFF" stroke="#0000FF" stroke-width="1.00"/>
<line shape-type="limitline" x1="876" y1="351" x2="828" y2="351" fill="#FFFFFF" stroke="#0000FF" stroke-width="1.00"/>
<line shape-type="limitline" x1="875" y1="507" x2="875" y2="351" fill="#FFFFFF" stroke="#0000FF" stroke-width="1.00"/>
<line shape-type="limitline" x1="1048" y1="505" x2="875" y2="505" fill="#FFFFFF" stroke="#0000FF" stroke-width="1.00"/>
<line shape-type="limitline" x1="896" y1="397" x2="896" y2="341" fill="#FFFFFF" stroke="#0000FF" stroke-width="1.00"/>
<line shape-type="limitline" x1="1044" y1="401" x2="896" y2="401" fill="#FFFFFF" stroke="#0000FF" stroke-width="1.00"/>
<line shape-type="limitline" x1="882" y1="232" x2="882" y2="276" fill="#FFFFFF" stroke="#0000FF" stroke-width="1.00"/>
<line shape-type="limitline" x1="959" y1="231" x2="883" y2="231" fill="#FFFFFF" stroke="#0000FF" stroke-width="1.00"/>
<line shape-type="limitline" x1="959" y1="170" x2="959" y2="231" fill="#FFFFFF" stroke="#0000FF" stroke-width="1.00"/>
<line shape-type="limitline" x1="1041" y1="170" x2="959" y2="170" fill="#FFFFFF" stroke="#0000FF" stroke-width="1.00"/>
<line shape-type="limitline" x1="557" y1="211" x2="557" y2="241" fill="#FFFFFF" stroke="#0000FF" stroke-width="1.00"/>
<line shape-type="limitline" x1="1040" y1="210" x2="557" y2="210" fill="#FFFFFF" stroke="#0000FF" stroke-width="1.00"/>
<line shape-type="limitline" x1="611" y1="209" x2="611" y2="239" fill="#FFFFFF" stroke="#0000FF" stroke-width="1.00"/>
<line shape-type="limitline" x1="1046" y1="192" x2="310" y2="192" fill="#FFFFFF" stroke="#0000FF" stroke-width="1.00"/>
<line shape-type="limitline" x1="309" y1="193" x2="309" y2="261" fill="#FFFFFF" stroke="#0000FF" stroke-width="1.00"/>
<text font-family="宋体" text-anchor="start" fill="#000000" shape-type="text" id="" font-size="12.500000" x="53" y="295">FIQ001</text>
<text font-family="宋体" text-anchor="start" fill="#000000" shape-type="text" id="" font-size="12.500000" x="138" y="282">PIC001</text>
<text font-family="宋体" text-anchor="start" fill="#000000" shape-type="text" id="" font-size="12.500000" x="223" y="347">LIC001</text>
<text font-family="宋体" text-anchor="start" fill="#000000" shape-type="text" id="" font-size="12.500000" x="351" y="221">PIC002</text>
<text font-family="宋体" text-anchor="start" fill="#000000" shape-type="text" id="" font-size="12.500000" x="444" y="223">PIC003</text>
<text font-family="宋体" text-anchor="start" fill="#000000" shape-type="text" id="" font-size="12.500000" x="444" y="314">PT003</text>
<text font-family="宋体" text-anchor="start" fill="#000000" shape-type="text" id="" font-size="12.500000" x="509" y="413">FIC004</text>
<text font-family="宋体" text-anchor="start" fill="#000000" shape-type="text" id="" font-size="12.500000" x="525" y="517">LT005</text>
<text font-family="宋体" text-anchor="start" fill="#000000" shape-type="text" id="" font-size="12.500000" x="446" y="488">LIC003</text>
<text font-family="宋体" text-anchor="start" fill="#000000" shape-type="text" id="" font-size="12.500000" x="400" y="570">TE001</text>
<text font-family="宋体" text-anchor="start" fill="#000000" shape-type="text" id="" font-size="12.500000" x="112" y="546">FIC002</text>
<text font-family="宋体" text-anchor="start" fill="#000000" shape-type="text" id="" font-size="12.500000" x="643" y="525">TE003</text>
<text font-family="宋体" text-anchor="start" fill="#000000" shape-type="text" id="" font-size="12.500000" x="691" y="444">FIC005</text>
<text font-family="宋体" text-anchor="start" fill="#000000" shape-type="text" id="" font-size="12.500000" x="699" y="372">TE002</text>
<text font-family="宋体" text-anchor="start" fill="#000000" shape-type="text" id="" font-size="12.500000" x="901" y="261">PIC004</text>
<text font-family="宋体" text-anchor="start" fill="#000000" shape-type="text" id="" font-size="12.500000" x="927" y="319">LIC006</text>
<text font-family="Arial" text-anchor="start" fill="#FFFFFF" shape-type="realdata" id="CJY_TE005" font-size="12.500000" x="756" y="603">XXXXXXXX</text>
<text font-family="宋体" text-anchor="start" fill="#000000" shape-type="text" id="" font-size="12.500000" x="782" y="587">TE005</text>
<g shape-type="group">
<rect shape-type="roundRectangle" rx="20" ry="20" x="780" y="368" width="59" height="17" fill="#00AAAA" stroke="#000000" stroke-width="1.00"/>
<rect shape-type="roundRectangle" rx="20" ry="20" x="756" y="368" width="70" height="17" fill="#00AAAA" stroke="#000000" stroke-width="1.00"/>
</g>
<g shape-type="group">
<rect shape-type="roundRectangle" rx="20" ry="20" x="781" y="390" width="59" height="18" fill="#00AAAA" stroke="#000000" stroke-width="1.00"/>
<rect shape-type="roundRectangle" rx="20" ry="20" x="756" y="390" width="71" height="18" fill="#00AAAA" stroke="#000000" stroke-width="1.00"/>
</g>
<g shape-type="group">
<rect shape-type="roundRectangle" rx="20" ry="20" x="780" y="414" width="59" height="17" fill="#00AAAA" stroke="#000000" stroke-width="1.00"/>
<rect shape-type="roundRectangle" rx="20" ry="20" x="756" y="414" width="70" height="17" fill="#00AAAA" stroke="#000000" stroke-width="1.00"/>
</g>
<g shape-type="group">
<rect shape-type="roundRectangle" rx="20" ry="20" x="781" y="436" width="59" height="18" fill="#00AAAA" stroke="#000000" stroke-width="1.00"/>
<rect shape-type="roundRectangle" rx="20" ry="20" x="756" y="436" width="71" height="18" fill="#00AAAA" stroke="#000000" stroke-width="1.00"/>
</g>
<g shape-type="group">
<g shape-type="group">
<polygon shape-type="trapezium" points="204,262 195,262 200,252 200,252 204,262" stroke="#000000" stroke-width="1.00"/>
<polygon shape-type="trapezium" points="204,243 195,243 200,252 200,252 204,243" stroke="#000000" stroke-width="1.00"/>
</g>
<line shape-type="limitline" x1="198" y1="252" x2="189" y2="253" fill="none" stroke="#000000" stroke-width="2.00"/>
<path shape-type="chord" d="M 189,243 A 14,11 0 1,0 189,260 z" fill="none" stroke="#000000" stroke-width="1.00"/>
</g>
<g shape-type="group">
<g shape-type="group">
<polygon shape-type="trapezium" points="480,196 480,187 469,191 469,191 480,196" stroke="#000000" stroke-width="1.00"/>
<polygon shape-type="trapezium" points="461,196 461,187 470,191 470,191 461,196" stroke="#000000" stroke-width="1.00"/>
</g>
<line shape-type="limitline" x1="470" y1="193" x2="471" y2="202" fill="none" stroke="#000000" stroke-width="2.00"/>
<path shape-type="chord" d="M 462,203 A 11,15 0 0,0 479,203 z" fill="none" stroke="#000000" stroke-width="1.00"/>
</g>
<g shape-type="group">
<g shape-type="group">
<polygon shape-type="trapezium" points="491,379 501,379 496,389 496,389 491,379" stroke="#000000" stroke-width="1.00"/>
<polygon shape-type="trapezium" points="491,398 501,398 496,388 496,388 491,398" stroke="#000000" stroke-width="1.00"/>
</g>
<line shape-type="limitline" x1="497" y1="388" x2="507" y2="389" fill="none" stroke="#000000" stroke-width="2.00"/>
<path shape-type="chord" d="M 507,398 A 14,11 0 1,0 507,381 z" fill="none" stroke="#000000" stroke-width="1.00"/>
</g>
<g shape-type="group">
<g shape-type="group">
<polygon shape-type="trapezium" points="679,401 689,401 684,410 684,410 679,401" stroke="#000000" stroke-width="1.00"/>
<polygon shape-type="trapezium" points="679,420 689,420 684,410 684,410 679,420" stroke="#000000" stroke-width="1.00"/>
</g>
<line shape-type="limitline" x1="684" y1="410" x2="694" y2="411" fill="none" stroke="#000000" stroke-width="2.00"/>
<path shape-type="chord" d="M 694,420 A 14,11 0 1,0 694,403 z" fill="none" stroke="#000000" stroke-width="1.00"/>
</g>
<g shape-type="group">
<g shape-type="group">
<polygon shape-type="trapezium" points="891,367 902,367 896,376 896,376 891,367" stroke="#000000" stroke-width="1.00"/>
<polygon shape-type="trapezium" points="891,386 902,386 896,376 896,376 891,386" stroke="#000000" stroke-width="1.00"/>
</g>
<line shape-type="limitline" x1="898" y1="376" x2="907" y2="377" fill="none" stroke="#000000" stroke-width="2.00"/>
<path shape-type="chord" d="M 908,386 A 14,11 0 1,0 908,369 z" fill="none" stroke="#000000" stroke-width="1.00"/>
</g>
<g shape-type="group">
<g shape-type="group">
<polygon shape-type="trapezium" points="937,236 937,226 927,231 927,231 937,236" stroke="#000000" stroke-width="1.00"/>
<polygon shape-type="trapezium" points="918,236 918,226 928,231 928,231 918,236" stroke="#000000" stroke-width="1.00"/>
</g>
<line shape-type="limitline" x1="928" y1="232" x2="927" y2="241" fill="none" stroke="#000000" stroke-width="2.00"/>
<path shape-type="chord" d="M 920,242 A 10,14 0 0,0 936,242 z" fill="none" stroke="#000000" stroke-width="1.00"/>
</g>
<g shape-type="group">
<g shape-type="group">
<polygon shape-type="trapezium" points="702,496 702,505 712,501 712,501 702,496" stroke="#000000" stroke-width="1.00"/>
<polygon shape-type="trapezium" points="721,496 721,505 711,501 711,501 721,496" stroke="#000000" stroke-width="1.00"/>
</g>
<line shape-type="limitline" x1="713" y1="500" x2="712" y2="490" fill="none" stroke="#000000" stroke-width="2.00"/>
<path shape-type="chord" d="M 722,490 A 11,14 0 0,0 705,490 z" fill="none" stroke="#000000" stroke-width="1.00"/>
</g>
<g shape-type="group">
<g shape-type="group">
<polygon shape-type="trapezium" points="469,566 469,575 478,571 478,571 469,566" stroke="#000000" stroke-width="1.00"/>
<polygon shape-type="trapezium" points="488,566 488,575 478,571 478,571 488,566" stroke="#000000" stroke-width="1.00"/>
</g>
<line shape-type="limitline" x1="478" y1="570" x2="477" y2="560" fill="none" stroke="#000000" stroke-width="2.00"/>
<path shape-type="chord" d="M 488,560 A 11,14 0 0,0 471,560 z" fill="none" stroke="#000000" stroke-width="1.00"/>
</g>
<g shape-type="group">
<g shape-type="group">
<polygon shape-type="trapezium" points="169,589 169,599 179,594 179,594 169,589" stroke="#000000" stroke-width="1.00"/>
<polygon shape-type="trapezium" points="188,589 188,599 178,594 178,594 188,589" stroke="#000000" stroke-width="1.00"/>
</g>
<line shape-type="limitline" x1="178" y1="594" x2="177" y2="584" fill="none" stroke="#000000" stroke-width="2.00"/>
<path shape-type="chord" d="M 188,584 A 11,14 0 0,0 171,584 z" fill="none" stroke="#000000" stroke-width="1.00"/>
</g>
<g shape-type="group">
<polygon shape-type="trapezium" points="219,740 195,740 201,719 213,719 219,740" fill="none" stroke="#FFFFFF" stroke-width="1.00"/>
<ellipse shape-type="ellipse" cx="208" cy="716" rx="14" ry="13" fill="#008080" stroke="#FFFFFF" stroke-width="1.00"/>
<ellipse shape-type="ellipse" cx="208" cy="715" rx="7" ry="8" fill="#FF0000" stroke="#000000" stroke-width="1.00"/>
</g>
<g shape-type="group">
<polygon shape-type="trapezium" points="152,740 128,740 134,719 146,719 152,740" fill="none" stroke="#FFFFFF" stroke-width="1.00"/>
<ellipse shape-type="ellipse" cx="141" cy="716" rx="14" ry="13" fill="#008080" stroke="#FFFFFF" stroke-width="1.00"/>
<ellipse shape-type="ellipse" cx="141" cy="715" rx="8" ry="8" fill="#FF0000" stroke="#000000" stroke-width="1.00"/>
</g>
<g shape-type="group">
<rect shape-type="roundRectangle" rx="20" ry="20" x="788" y="528" width="59" height="17" fill="#00AAAA" stroke="#000000" stroke-width="1.00"/>
<rect shape-type="roundRectangle" rx="20" ry="20" x="764" y="528" width="70" height="17" fill="#00AAAA" stroke="#000000" stroke-width="1.00"/>
</g>
<g shape-type="group">
<rect shape-type="roundRectangle" rx="20" ry="20" x="788" y="552" width="59" height="17" fill="#00AAAA" stroke="#000000" stroke-width="1.00"/>
<rect shape-type="roundRectangle" rx="20" ry="20" x="764" y="552" width="70" height="17" fill="#00AAAA" stroke="#000000" stroke-width="1.00"/>
</g>
<text font-family="宋体" text-anchor="start" fill="#000000" shape-type="text" id="" font-size="11.000000" x="992" y="611">至V-004</text>
<text font-family="宋体" text-anchor="start" fill="#000000" shape-type="text" id="" font-size="11.000000" x="989" y="523">自C-002</text>
<text font-family="宋体" text-anchor="start" fill="#000000" shape-type="text" id="" font-size="11.000000" x="986" y="419">至C-002</text>
<text font-family="宋体" text-anchor="start" fill="#000000" shape-type="text" id="" font-size="11.000000" x="975" y="233">脱硫醇部分</text>
<text font-family="宋体" text-anchor="start" fill="#000000" shape-type="text" id="" font-size="11.000000" x="976" y="189">出装置</text>
<text font-family="宋体" text-anchor="start" fill="#000000" shape-type="text" id="" font-size="11.000000" x="976" y="166">至火炬</text>
<text font-family="宋体" text-anchor="start" fill="#000000" shape-type="text" id="" font-size="11.000000" x="30" y="191">高压瓦斯去管线</text>
<text font-family="宋体" text-anchor="start" fill="#000000" shape-type="text" id="" font-size="11.000000" x="24" y="248">催化装置</text>
<text font-family="宋体" text-anchor="start" fill="#000000" shape-type="text" id="" font-size="11.000000" x="20" y="630">自泵P-002</text>
<text font-family="宋体" text-anchor="start" fill="#000000" shape-type="text" id="" font-size="11.000000" x="30" y="740">液态烃进料泵</text>
<polygon shape-type="trapezium" points="1033,588 1033,596 1047,592 1047,592 1033,588" stroke="#FFFFFF" stroke-width="1.00"/>
<polygon shape-type="trapezium" points="1048,500 1048,508 1034,504 1034,504 1048,500" stroke="#FFFFFF" stroke-width="1.00"/>
<polygon shape-type="trapezium" points="1035,397 1035,405 1049,401 1049,401 1035,397" stroke="#FFFFFF" stroke-width="1.00"/>
<polygon shape-type="trapezium" points="1032,206 1032,214 1046,210 1046,210 1032,206" stroke="#FFFFFF" stroke-width="1.00"/>
<polygon shape-type="trapezium" points="1033,188 1033,196 1047,192 1047,192 1033,188" stroke="#FFFFFF" stroke-width="1.00"/>
<polygon shape-type="trapezium" points="1032,165 1032,173 1046,169 1046,169 1032,165" stroke="#FFFFFF" stroke-width="1.00"/>
<polygon shape-type="trapezium" points="36,195 36,203 22,199 22,199 36,195" stroke="#FFFFFF" stroke-width="1.00"/>
<polygon shape-type="trapezium" points="24,251 24,259 38,255 38,255 24,251" stroke="#FFFFFF" stroke-width="1.00"/>
<polygon shape-type="trapezium" points="58,634 58,642 72,638 72,638 58,634" stroke="#FFFFFF" stroke-width="1.00"/>
<text font-family="宋体" text-anchor="start" fill="#000000" shape-type="text" id="" font-size="12.500000" x="124" y="357">V-001</text>
<text font-family="宋体" text-anchor="start" fill="#000000" shape-type="text" id="" font-size="12.500000" x="288" y="343">V-010</text>
<text font-family="宋体" text-anchor="start" fill="#000000" shape-type="text" id="" font-size="12.500000" x="400" y="425">C-003</text>
<text font-family="宋体" text-anchor="start" fill="#000000" shape-type="text" id="" font-size="12.500000" x="265" y="565">V-009</text>
<text font-family="宋体" text-anchor="start" fill="#000000" shape-type="text" id="" font-size="12.500000" x="594" y="478">C-001</text>
<text font-family="宋体" text-anchor="start" fill="#000000" shape-type="text" id="" font-size="12.500000" x="829" y="329">V-002</text>
<line shape-type="limitline" x1="87" y1="334" x2="87" y2="374" fill="#FFFFFF" stroke="#000000" stroke-width="1.00"/>
<line shape-type="limitline" x1="207" y1="334" x2="207" y2="374" fill="#FFFFFF" stroke="#000000" stroke-width="1.00"/>
<line shape-type="limitline" x1="328" y1="364" x2="288" y2="364" fill="#FFFFFF" stroke="#000000" stroke-width="1.00"/>
<line shape-type="limitline" x1="328" y1="277" x2="288" y2="277" fill="#FFFFFF" stroke="#000000" stroke-width="1.00"/>
<line shape-type="limitline" x1="155" y1="395" x2="175" y2="395" fill="#FFFFFF" stroke="#000000" stroke-width="1.00"/>
<line shape-type="limitline" x1="393" y1="343" x2="443" y2="343" fill="#FFFFFF" stroke="#000000" stroke-width="1.00"/>
<line shape-type="limitline" x1="393" y1="537" x2="443" y2="537" fill="#FFFFFF" stroke="#000000" stroke-width="1.00"/>
<line shape-type="limitline" x1="350" y1="538" x2="350" y2="578" fill="#FFFFFF" stroke="#000000" stroke-width="1.00"/>
<line shape-type="limitline" x1="222" y1="538" x2="222" y2="578" fill="#FFFFFF" stroke="#000000" stroke-width="1.00"/>
<line shape-type="limitline" x1="304" y1="519" x2="331" y2="519" fill="#FFFFFF" stroke="#000000" stroke-width="1.00"/>
<line shape-type="limitline" x1="581" y1="545" x2="642" y2="545" fill="#FFFFFF" stroke="#000000" stroke-width="1.00"/>
<line shape-type="limitline" x1="793" y1="342" x2="793" y2="301" fill="#FFFFFF" stroke="#000000" stroke-width="1.00"/>
<line shape-type="limitline" x1="910" y1="341" x2="910" y2="300" fill="#FFFFFF" stroke="#000000" stroke-width="1.00"/>
<line shape-type="limitline" x1="897" y1="286" x2="871" y2="286" fill="#FFFFFF" stroke="#000000" stroke-width="1.00"/>
<polygon shape-type="trapezium" points="205,323 197,323 201,310 201,310 205,323" stroke="#FFFFFF" stroke-width="1.00"/>
<polygon shape-type="trapezium" points="419,316 411,316 415,303 415,303 419,316" stroke="#FFFFFF" stroke-width="1.00"/>
<polygon shape-type="trapezium" points="422,238 422,246 435,242 435,242 422,238" stroke="#FFFFFF" stroke-width="1.00"/>
<polygon shape-type="trapezium" points="615,231 607,231 611,218 611,218 615,231" stroke="#FFFFFF" stroke-width="1.00"/>
<polygon shape-type="trapezium" points="365,480 365,487 377,484 377,484 365,480" stroke="#FFFFFF" stroke-width="1.00"/>
<polygon shape-type="trapezium" points="366,588 366,595 378,592 378,592 366,588" stroke="#FFFFFF" stroke-width="1.00"/>
<polygon shape-type="trapezium" points="452,539 460,539 456,551 456,551 452,539" stroke="#FFFFFF" stroke-width="1.00"/>
<polygon shape-type="trapezium" points="498,542 490,542 494,529 494,529 498,542" stroke="#FFFFFF" stroke-width="1.00"/>
<polygon shape-type="trapezium" points="517,542 509,542 513,529 513,529 517,542" stroke="#FFFFFF" stroke-width="1.00"/>
<a xlink:href="气分总图.svg">
<g shape-type="button">
<rect fill="#C0C0C0" stroke-width="0.3" stroke="#FFFFFF" x="937" y="697" width="51" height="29" shape-type="buttonrect"/>
<text font-family="宋体" text-anchor="middle" dominant-baseline="middle" fill="#000000" font-size="13.500000" x="962" y="717" shape-type="buttontext">返回</text>
</g>
</a>
</svg>