<svg xmlns="http://www.w3.org/2000/svg" xmlns:xlink="http://www.w3.org/1999/xlink" version="1.1" style="background-color:#7DB6C1" width="1062" height="669" viewbox="0 0 1062 669"><defs>
</defs>
<rect shape-type="roundRectangle" rx="20" ry="20" x="663" y="294" width="38" height="102" fill="#00AAAA" stroke="#000000" stroke-width="1.00"/>
<rect shape-type="roundRectangle" rx="20" ry="20" x="794" y="348" width="118" height="38" fill="#00AAAA" stroke="#000000" stroke-width="1.00"/>
<polygon shape-type="trapezium" points="879,474 822,474 851,459 851,459 879,474" fill="#00AAAA" stroke="#000000" stroke-width="1.00"/>
<rect shape-type="roundRectangle" rx="20" ry="20" x="823" y="473" width="56" height="69" fill="#00AAAA" stroke="#000000" stroke-width="1.00"/>
<rect shape-type="roundRectangle" rx="20" ry="20" x="346" y="372" width="36" height="69" fill="#00AAAA" stroke="#000000" stroke-width="1.00"/>
<rect shape-type="roundRectangle" rx="20" ry="20" x="524" y="378" width="20" height="46" fill="#00AAAA" stroke="#000000" stroke-width="1.00"/>
<rect shape-type="roundRectangle" rx="20" ry="20" x="451" y="407" width="119" height="39" fill="#00AAAA" stroke="#000000" stroke-width="1.00"/>
<rect shape-type="roundRectangle" rx="20" ry="20" x="616" y="456" width="27" height="66" fill="#00AAAA" stroke="#000000" stroke-width="1.00"/>
<rect shape-type="roundRectangle" rx="20" ry="20" x="173" y="297" width="53" height="260" fill="#00AAAA" stroke="#000000" stroke-width="1.00"/>
<text font-family="Arial" text-anchor="start" fill="#FFFFFF" shape-type="realdata" id="CJY_TE006" font-size="12.500000" x="106" y="323">XXXXXXXX</text>
<text font-family="Arial" text-anchor="start" fill="#FFFFFF" shape-type="realdata" id="CJY_TE007" font-size="12.500000" x="105" y="393">XXXXXXXX</text>
<text font-family="Arial" text-anchor="start" fill="#FFFFFF" shape-type="realdata" id="CJY_PDT005" font-size="12.500000" x="107" y="431">XXXXXXXX</text>
<text font-family="Arial" text-anchor="start" fill="#FFFFFF" shape-type="realdata" id="CJY_TE008" font-size="12.500000" x="208" y="533">XXXXXXXX</text>
<text font-family="Arial" text-anchor="start" fill="#FFFFFF" shape-type="realdata" id="CJY_LIC007_PV" font-size="12.500000" x="65" y="529">XXXXXXXX</text>
<text font-family="Arial" text-anchor="start" fill="#FFFFFF" shape-type="realdata" id="CJY_FIC008_PV" font-size="12.500000" x="330" y="585">XXXXXXXX</text>
<text font-family="Arial" text-anchor="start" fill="#FFFFFF" shape-type="realdata" id="CJY_FIC007_PV" font-size="12.500000" x="260" y="393">XXXXXXXX</text>
<text font-family="Arial" text-anchor="start" fill="#FFFFFF" shape-type="realdata" id="CJY_TIC009_PV" font-size="12.500000" x="413" y="378">XXXXXXXX</text>
<text font-family="Arial" text-anchor="start" fill="#FFFFFF" shape-type="realdata" id="CJY_PIC006_PV" font-size="12.500000" x="550" y="226">XXXXXXXX</text>
<text font-family="Arial" text-anchor="start" fill="#FFFFFF" shape-type="realdata" id="CJY_FIC010_PV" font-size="12.500000" x="526" y="545">XXXXXXXX</text>
<text font-family="Arial" text-anchor="start" fill="#FFFFFF" shape-type="realdata" id="CJY_LT008" font-size="12.500000" x="556" y="431">XXXXXXXX</text>
<text font-family="Arial" text-anchor="start" fill="#FFFFFF" shape-type="realdata" id="CJY_LT009" font-size="12.500000" x="877" y="528">XXXXXXXX</text>
<rect shape-type="rectangle" x="175" y="473" width="13" height="63" stroke="#000000" stroke-width="1.00"/>
<rect shape-type="rectangle" x="546" y="409" width="13" height="33" stroke="#000000" stroke-width="1.00"/>
<rect shape-type="rectangle" x="864" y="476" width="13" height="61" stroke="#000000" stroke-width="1.00"/>
<text font-family="宋体" text-anchor="start" fill="#000000" shape-type="text" id="" font-size="22.250000" font-weight="bold" x="399" y="135">脱硫工艺流程图二</text>
<line shape-type="limitline" x1="198" y1="186" x2="198" y2="297" fill="#FFFFFF" stroke="#0000FF" stroke-width="1.00"/>
<line shape-type="limitline" x1="433" y1="186" x2="198" y2="186" fill="#FFFFFF" stroke="#0000FF" stroke-width="1.00"/>
<line shape-type="limitline" x1="431" y1="238" x2="431" y2="186" fill="#FFFFFF" stroke="#0000FF" stroke-width="1.00"/>
<line shape-type="limitline" x1="441" y1="329" x2="441" y2="289" fill="#FFFFFF" stroke="#0000FF" stroke-width="1.00"/>
<line shape-type="limitline" x1="480" y1="328" x2="441" y2="328" fill="#FFFFFF" stroke="#0000FF" stroke-width="1.00"/>
<line shape-type="limitline" x1="481" y1="408" x2="481" y2="328" fill="#FFFFFF" stroke="#0000FF" stroke-width="1.00"/>
<line shape-type="limitline" x1="225" y1="317" x2="257" y2="317" fill="#FFFFFF" stroke="#0000FF" stroke-width="1.00"/>
<line shape-type="limitline" x1="257" y1="465" x2="257" y2="317" fill="#FFFFFF" stroke="#0000FF" stroke-width="1.00"/>
<line shape-type="limitline" x1="446" y1="463" x2="257" y2="463" fill="#FFFFFF" stroke="#0000FF" stroke-width="1.00"/>
<line shape-type="limitline" x1="328" y1="329" x2="257" y2="329" fill="#FFFFFF" stroke="#0000FF" stroke-width="1.00"/>
<line shape-type="limitline" x1="328" y1="452" x2="328" y2="329" fill="#FFFFFF" stroke="#0000FF" stroke-width="1.00"/>
<line shape-type="limitline" x1="366" y1="451" x2="327" y2="451" fill="#FFFFFF" stroke="#0000FF" stroke-width="1.00"/>
<line shape-type="limitline" x1="365" y1="442" x2="365" y2="451" fill="#FFFFFF" stroke="#0000FF" stroke-width="1.00"/>
<line shape-type="limitline" x1="407" y1="401" x2="381" y2="401" fill="#FFFFFF" stroke="#0000FF" stroke-width="1.00"/>
<line shape-type="limitline" x1="406" y1="463" x2="406" y2="401" fill="#FFFFFF" stroke="#0000FF" stroke-width="1.00"/>
<line shape-type="limitline" x1="120" y1="355" x2="171" y2="355" fill="#FFFFFF" stroke="#0000FF" stroke-width="1.00"/>
<line shape-type="limitline" x1="121" y1="497" x2="121" y2="355" fill="#FFFFFF" stroke="#0000FF" stroke-width="1.00"/>
<line shape-type="limitline" x1="121" y1="497" x2="23" y2="497" fill="#FFFFFF" stroke="#0000FF" stroke-width="1.00"/>
<line shape-type="limitline" x1="174" y1="465" x2="145" y2="465" fill="#FFFFFF" stroke="#0000FF" stroke-width="1.00"/>
<line shape-type="limitline" x1="146" y1="590" x2="146" y2="465" fill="#FFFFFF" stroke="#0000FF" stroke-width="1.00"/>
<line shape-type="limitline" x1="279" y1="594" x2="146" y2="594" fill="#FFFFFF" stroke="#0000FF" stroke-width="1.00"/>
<line shape-type="limitline" x1="279" y1="499" x2="279" y2="594" fill="#FFFFFF" stroke="#0000FF" stroke-width="1.00"/>
<line shape-type="limitline" x1="225" y1="499" x2="279" y2="499" fill="#FFFFFF" stroke="#0000FF" stroke-width="1.00"/>
<line shape-type="limitline" x1="173" y1="536" x2="23" y2="536" fill="#FFFFFF" stroke="#0000FF" stroke-width="1.00"/>
<line shape-type="limitline" x1="794" y1="606" x2="24" y2="606" fill="#FFFFFF" stroke="#0000FF" stroke-width="1.00"/>
<line shape-type="limitline" x1="792" y1="488" x2="792" y2="606" fill="#FFFFFF" stroke="#0000FF" stroke-width="1.00"/>
<line shape-type="limitline" x1="824" y1="490" x2="792" y2="490" fill="#FFFFFF" stroke="#0000FF" stroke-width="1.00"/>
<line shape-type="limitline" x1="772" y1="623" x2="24" y2="623" fill="#FFFFFF" stroke="#0000FF" stroke-width="1.00"/>
<line shape-type="limitline" x1="769" y1="293" x2="769" y2="623" fill="#FFFFFF" stroke="#0000FF" stroke-width="1.00"/>
<line shape-type="limitline" x1="449" y1="682" x2="449" y2="464" fill="#FFFFFF" stroke="#0000FF" stroke-width="1.00"/>
<line shape-type="limitline" x1="533" y1="701" x2="467" y2="701" fill="#FFFFFF" stroke="#0000FF" stroke-width="1.00"/>
<line shape-type="limitline" x1="532" y1="444" x2="532" y2="701" fill="#FFFFFF" stroke="#0000FF" stroke-width="1.00"/>
<line shape-type="limitline" x1="533" y1="232" x2="533" y2="380" fill="#FFFFFF" stroke="#0000FF" stroke-width="1.00"/>
<line shape-type="limitline" x1="561" y1="663" x2="450" y2="663" fill="#FFFFFF" stroke="#0000FF" stroke-width="1.00"/>
<line shape-type="limitline" x1="561" y1="663" x2="561" y2="689" fill="#FFFFFF" stroke="#0000FF" stroke-width="1.00"/>
<line shape-type="limitline" x1="604" y1="705" x2="578" y2="705" fill="#FFFFFF" stroke="#0000FF" stroke-width="1.00"/>
<line shape-type="limitline" x1="604" y1="652" x2="604" y2="705" fill="#FFFFFF" stroke="#0000FF" stroke-width="1.00"/>
<line shape-type="limitline" x1="532" y1="652" x2="604" y2="652" fill="#FFFFFF" stroke="#0000FF" stroke-width="1.00"/>
<line shape-type="limitline" x1="842" y1="643" x2="601" y2="643" fill="#FFFFFF" stroke="#0000FF" stroke-width="1.00"/>
<line shape-type="limitline" x1="843" y1="593" x2="843" y2="686" fill="#FFFFFF" stroke="#0000FF" stroke-width="1.00"/>
<line shape-type="limitline" x1="825" y1="529" x2="807" y2="529" fill="#FFFFFF" stroke="#0000FF" stroke-width="1.00"/>
<line shape-type="limitline" x1="807" y1="529" x2="807" y2="702" fill="#FFFFFF" stroke="#0000FF" stroke-width="1.00"/>
<line shape-type="limitline" x1="826" y1="702" x2="806" y2="702" fill="#FFFFFF" stroke="#0000FF" stroke-width="1.00"/>
<line shape-type="limitline" x1="763" y1="652" x2="763" y2="678" fill="#FFFFFF" stroke="#0000FF" stroke-width="1.00"/>
<line shape-type="limitline" x1="841" y1="651" x2="763" y2="651" fill="#FFFFFF" stroke="#0000FF" stroke-width="1.00"/>
<line shape-type="limitline" x1="807" y1="668" x2="729" y2="668" fill="#FFFFFF" stroke="#0000FF" stroke-width="1.00"/>
<line shape-type="limitline" x1="727" y1="701" x2="727" y2="667" fill="#FFFFFF" stroke="#0000FF" stroke-width="1.00"/>
<line shape-type="limitline" x1="743" y1="701" x2="727" y2="701" fill="#FFFFFF" stroke="#0000FF" stroke-width="1.00"/>
<line shape-type="limitline" x1="317" y1="508" x2="317" y2="558" fill="#FFFFFF" stroke="#FF0000" stroke-width="1.00"/>
<line shape-type="limitline" x1="406" y1="509" x2="317" y2="509" fill="#FFFFFF" stroke="#FF0000" stroke-width="1.00"/>
<line shape-type="limitline" x1="407" y1="598" x2="407" y2="509" fill="#FFFFFF" stroke="#FF0000" stroke-width="1.00"/>
<line shape-type="limitline" x1="1046" y1="592" x2="844" y2="592" fill="#FFFFFF" stroke="#0000FF" stroke-width="1.00"/>
<line shape-type="limitline" x1="871" y1="400" x2="871" y2="469" fill="#FFFFFF" stroke="#0000FF" stroke-width="1.00"/>
<line shape-type="limitline" x1="916" y1="400" x2="871" y2="400" fill="#FFFFFF" stroke="#0000FF" stroke-width="1.00"/>
<line shape-type="limitline" x1="916" y1="400" x2="916" y2="417" fill="#FFFFFF" stroke="#0000FF" stroke-width="1.00"/>
<line shape-type="limitline" x1="1050" y1="429" x2="934" y2="429" fill="#FFFFFF" stroke="#0000FF" stroke-width="1.00"/>
<line shape-type="limitline" x1="815" y1="293" x2="770" y2="293" fill="#FFFFFF" stroke="#0000FF" stroke-width="1.00"/>
<line shape-type="limitline" x1="815" y1="349" x2="815" y2="293" fill="#FFFFFF" stroke="#0000FF" stroke-width="1.00"/>
<line shape-type="limitline" x1="848" y1="308" x2="848" y2="347" fill="#FFFFFF" stroke="#0000FF" stroke-width="1.00"/>
<line shape-type="limitline" x1="869" y1="308" x2="848" y2="308" fill="#FFFFFF" stroke="#0000FF" stroke-width="1.00"/>
<line shape-type="limitline" x1="873" y1="204" x2="873" y2="286" fill="#FFFFFF" stroke="#0000FF" stroke-width="1.00"/>
<line shape-type="limitline" x1="1043" y1="202" x2="872" y2="202" fill="#FFFFFF" stroke="#0000FF" stroke-width="1.00"/>
<line shape-type="limitline" x1="1045" y1="236" x2="534" y2="236" fill="#FFFFFF" stroke="#0000FF" stroke-width="1.00"/>
<line shape-type="limitline" x1="599" y1="439" x2="599" y2="641" fill="#FFFFFF" stroke="#0000FF" stroke-width="1.00"/>
<line shape-type="limitline" x1="651" y1="441" x2="599" y2="441" fill="#FFFFFF" stroke="#0000FF" stroke-width="1.00"/>
<line shape-type="limitline" x1="651" y1="502" x2="651" y2="316" fill="#FFFFFF" stroke="#0000FF" stroke-width="1.00"/>
<line shape-type="limitline" x1="663" y1="315" x2="651" y2="315" fill="#FFFFFF" stroke="#0000FF" stroke-width="1.00"/>
<line shape-type="limitline" x1="682" y1="540" x2="682" y2="396" fill="#FFFFFF" stroke="#0000FF" stroke-width="1.00"/>
<line shape-type="limitline" x1="752" y1="542" x2="682" y2="542" fill="#FFFFFF" stroke="#0000FF" stroke-width="1.00"/>
<line shape-type="limitline" x1="713" y1="494" x2="679" y2="494" fill="#FFFFFF" stroke="#0000FF" stroke-width="1.00"/>
<line shape-type="limitline" x1="661" y1="501" x2="644" y2="501" fill="#FFFFFF" stroke="#0000FF" stroke-width="1.00"/>
<line shape-type="limitline" x1="662" y1="624" x2="662" y2="501" fill="#FFFFFF" stroke="#0000FF" stroke-width="1.00"/>
<line shape-type="limitline" x1="743" y1="520" x2="743" y2="622" fill="#FFFFFF" stroke="#0000FF" stroke-width="1.00"/>
<line shape-type="limitline" x1="749" y1="520" x2="734" y2="520" fill="#FFFFFF" stroke="#0000FF" stroke-width="1.00"/>
<line shape-type="limitline" x1="750" y1="586" x2="750" y2="520" fill="#FFFFFF" stroke="#0000FF" stroke-width="1.00"/>
<line shape-type="limitline" x1="750" y1="585" x2="791" y2="585" fill="#FFFFFF" stroke="#0000FF" stroke-width="1.00"/>
<text font-family="宋体" text-anchor="start" fill="#000000" shape-type="text" id="" font-size="12.500000" x="127" y="304">TE006</text>
<text font-family="宋体" text-anchor="start" fill="#000000" shape-type="text" id="" font-size="12.500000" x="131" y="373">TE007</text>
<text font-family="宋体" text-anchor="start" fill="#000000" shape-type="text" id="" font-size="12.500000" x="125" y="414">PDT005</text>
<text font-family="宋体" text-anchor="start" fill="#000000" shape-type="text" id="" font-size="12.500000" x="84" y="513">LT007</text>
<text font-family="宋体" text-anchor="start" fill="#000000" shape-type="text" id="" font-size="12.500000" x="231" y="516">TE008</text>
<text font-family="宋体" text-anchor="start" fill="#000000" shape-type="text" id="" font-size="12.500000" x="342" y="567">FIC008</text>
<text font-family="宋体" text-anchor="start" fill="#000000" shape-type="text" id="" font-size="12.500000" x="275" y="374">FIC007</text>
<text font-family="宋体" text-anchor="start" fill="#000000" shape-type="text" id="" font-size="12.500000" x="428" y="360">TIC009</text>
<text font-family="宋体" text-anchor="start" fill="#000000" shape-type="text" id="" font-size="12.500000" x="576" y="413">LT008</text>
<text font-family="宋体" text-anchor="start" fill="#000000" shape-type="text" id="" font-size="12.500000" x="544" y="525">FIC010</text>
<text font-family="宋体" text-anchor="start" fill="#000000" shape-type="text" id="" font-size="12.500000" x="897" y="509">LT009</text>
<text font-family="宋体" text-anchor="start" fill="#000000" shape-type="text" id="" font-size="12.500000" x="564" y="207">PIC006</text>
<line shape-type="limitline" x1="407" y1="221" x2="407" y2="380" fill="#FFFFFF" stroke="#0000FF" stroke-width="1.00"/>
<line shape-type="limitline" x1="376" y1="221" x2="407" y2="221" fill="#FFFFFF" stroke="#0000FF" stroke-width="1.00"/>
<line shape-type="limitline" x1="376" y1="313" x2="376" y2="221" fill="#FFFFFF" stroke="#0000FF" stroke-width="1.00"/>
<g shape-type="group">
<polygon shape-type="trapezium" points="464,722 441,722 448,701 458,701 464,722" fill="none" stroke="#FFFFFF" stroke-width="1.00"/>
<ellipse shape-type="ellipse" cx="454" cy="699" rx="13" ry="13" fill="#008080" stroke="#FFFFFF" stroke-width="1.00"/>
<ellipse shape-type="ellipse" cx="453" cy="697" rx="8" ry="8" fill="#FF0000" stroke="#000000" stroke-width="1.00"/>
</g>
<g shape-type="group">
<polygon shape-type="trapezium" points="579,724 556,724 563,704 573,704 579,724" fill="none" stroke="#FFFFFF" stroke-width="1.00"/>
<ellipse shape-type="ellipse" cx="568" cy="701" rx="13" ry="13" fill="#008080" stroke="#FFFFFF" stroke-width="1.00"/>
<ellipse shape-type="ellipse" cx="568" cy="700" rx="8" ry="8" fill="#FF0000" stroke="#000000" stroke-width="1.00"/>
</g>
<g shape-type="group">
<polygon shape-type="trapezium" points="770,719 748,719 754,698 764,698 770,719" fill="none" stroke="#FFFFFF" stroke-width="1.00"/>
<ellipse shape-type="ellipse" cx="759" cy="696" rx="13" ry="13" fill="#008080" stroke="#FFFFFF" stroke-width="1.00"/>
<ellipse shape-type="ellipse" cx="759" cy="695" rx="8" ry="8" fill="#FF0000" stroke="#000000" stroke-width="1.00"/>
</g>
<g shape-type="group">
<polygon shape-type="trapezium" points="849,721 826,721 833,701 843,701 849,721" fill="none" stroke="#FFFFFF" stroke-width="1.00"/>
<ellipse shape-type="ellipse" cx="838" cy="698" rx="13" ry="13" fill="#008080" stroke="#FFFFFF" stroke-width="1.00"/>
<ellipse shape-type="ellipse" cx="838" cy="697" rx="8" ry="8" fill="#FF0000" stroke="#000000" stroke-width="1.00"/>
</g>
<g shape-type="group">
<polygon shape-type="trapezium" points="929,452 907,452 913,432 923,432 929,452" fill="none" stroke="#FFFFFF" stroke-width="1.00"/>
<ellipse shape-type="ellipse" cx="918" cy="430" rx="13" ry="13" fill="#008080" stroke="#FFFFFF" stroke-width="1.00"/>
<ellipse shape-type="ellipse" cx="918" cy="428" rx="8" ry="8" fill="#FF0000" stroke="#000000" stroke-width="1.00"/>
</g>
<g shape-type="group">
<polygon shape-type="trapezium" points="886,326 864,326 870,305 880,305 886,326" fill="none" stroke="#FFFFFF" stroke-width="1.00"/>
<ellipse shape-type="ellipse" cx="875" cy="303" rx="13" ry="13" fill="#008080" stroke="#FFFFFF" stroke-width="1.00"/>
<ellipse shape-type="ellipse" cx="875" cy="303" rx="8" ry="8" fill="#FF0000" stroke="#000000" stroke-width="1.00"/>
</g>
<g shape-type="group">
<g shape-type="group">
<polygon shape-type="trapezium" points="101,604 101,612 109,608 109,608 101,604" stroke="#000000" stroke-width="1.00"/>
<polygon shape-type="trapezium" points="116,604 116,612 108,608 108,608 116,604" stroke="#000000" stroke-width="1.00"/>
</g>
<line shape-type="limitline" x1="108" y1="607" x2="107" y2="599" fill="none" stroke="#000000" stroke-width="2.00"/>
<path shape-type="chord" d="M 117,599 A 9,13 0 0,0 102,599 z" fill="none" stroke="#000000" stroke-width="1.00"/>
</g>
<g shape-type="group">
<g shape-type="group">
<polygon shape-type="trapezium" points="313,526 321,526 317,533 317,533 313,526" stroke="#000000" stroke-width="1.00"/>
<polygon shape-type="trapezium" points="313,541 321,541 317,532 317,532 313,541" stroke="#000000" stroke-width="1.00"/>
</g>
<line shape-type="limitline" x1="318" y1="534" x2="326" y2="535" fill="none" stroke="#000000" stroke-width="2.00"/>
<path shape-type="chord" d="M 326,542 A 13,8 0 1,0 326,528 z" fill="none" stroke="#000000" stroke-width="1.00"/>
</g>
<g shape-type="group">
<g shape-type="group">
<polygon shape-type="trapezium" points="604,487 595,487 600,494 600,494 604,487" stroke="#000000" stroke-width="1.00"/>
<polygon shape-type="trapezium" points="604,502 595,502 600,494 600,494 604,502" stroke="#000000" stroke-width="1.00"/>
</g>
<line shape-type="limitline" x1="599" y1="494" x2="590" y2="495" fill="none" stroke="#000000" stroke-width="2.00"/>
<path shape-type="chord" d="M 591,488 A 13,8 0 1,0 591,502 z" fill="none" stroke="#000000" stroke-width="1.00"/>
</g>
<g shape-type="group">
<g shape-type="group">
<polygon shape-type="trapezium" points="252,353 260,353 256,360 256,360 252,353" stroke="#000000" stroke-width="1.00"/>
<polygon shape-type="trapezium" points="252,368 260,368 256,360 256,360 252,368" stroke="#000000" stroke-width="1.00"/>
</g>
<line shape-type="limitline" x1="257" y1="360" x2="265" y2="361" fill="none" stroke="#000000" stroke-width="2.00"/>
<path shape-type="chord" d="M 265,368 A 13,8 0 1,0 265,354 z" fill="none" stroke="#000000" stroke-width="1.00"/>
</g>
<g shape-type="group">
<g shape-type="group">
<polygon shape-type="trapezium" points="403,339 412,339 407,345 407,345 403,339" stroke="#000000" stroke-width="1.00"/>
<polygon shape-type="trapezium" points="403,352 412,352 407,344 407,344 403,352" stroke="#000000" stroke-width="1.00"/>
</g>
<line shape-type="limitline" x1="408" y1="345" x2="417" y2="346" fill="none" stroke="#000000" stroke-width="2.00"/>
<path shape-type="chord" d="M 417,353 A 13,8 0 1,0 417,339 z" fill="none" stroke="#000000" stroke-width="1.00"/>
</g>
<g shape-type="group">
<g shape-type="group">
<polygon shape-type="trapezium" points="700,233 700,243 710,238 710,238 700,233" stroke="#000000" stroke-width="1.00"/>
<polygon shape-type="trapezium" points="719,233 719,243 709,238 709,238 719,233" stroke="#000000" stroke-width="1.00"/>
</g>
<line shape-type="limitline" x1="710" y1="237" x2="709" y2="227" fill="none" stroke="#000000" stroke-width="2.00"/>
<path shape-type="chord" d="M 719,228 A 10,14 0 0,0 703,228 z" fill="none" stroke="#000000" stroke-width="1.00"/>
</g>
<rect shape-type="roundRectangle" rx="20" ry="20" x="709" y="469" width="27" height="66" fill="#00AAAA" stroke="#000000" stroke-width="1.00"/>
<rect shape-type="roundRectangle" rx="20" ry="20" x="424" y="265" width="65" height="21" fill="#00AAAA" stroke="#000000" stroke-width="1.00"/>
<rect shape-type="roundRectangle" rx="20" ry="20" x="396" y="265" width="84" height="21" fill="#00AAAA" stroke="#000000" stroke-width="1.00"/>
<rect shape-type="roundRectangle" rx="20" ry="20" x="424" y="235" width="65" height="21" fill="#00AAAA" stroke="#000000" stroke-width="1.00"/>
<rect shape-type="roundRectangle" rx="20" ry="20" x="396" y="235" width="84" height="21" fill="#00AAAA" stroke="#000000" stroke-width="1.00"/>
<g shape-type="group">
<rect shape-type="roundRectangle" rx="20" ry="20" x="233" y="560" width="65" height="22" fill="#00AAAA" stroke="#000000" stroke-width="1.00"/>
<rect shape-type="roundRectangle" rx="20" ry="20" x="242" y="560" width="84" height="22" fill="#00AAAA" stroke="#000000" stroke-width="1.00"/>
</g>
<line shape-type="limitline" x1="171" y1="312" x2="225" y2="312" fill="#FFFFFF" stroke="#000000" stroke-width="1.00"/>
<line shape-type="limitline" x1="172" y1="544" x2="226" y2="544" fill="#FFFFFF" stroke="#000000" stroke-width="1.00"/>
<line shape-type="limitline" x1="346" y1="431" x2="381" y2="431" fill="#FFFFFF" stroke="#000000" stroke-width="1.00"/>
<line shape-type="limitline" x1="346" y1="381" x2="381" y2="381" fill="#FFFFFF" stroke="#000000" stroke-width="1.00"/>
<line shape-type="limitline" x1="461" y1="444" x2="461" y2="407" fill="#FFFFFF" stroke="#000000" stroke-width="1.00"/>
<line shape-type="limitline" x1="560" y1="444" x2="560" y2="407" fill="#FFFFFF" stroke="#000000" stroke-width="1.00"/>
<line shape-type="limitline" x1="664" y1="303" x2="700" y2="303" fill="#FFFFFF" stroke="#000000" stroke-width="1.00"/>
<line shape-type="limitline" x1="663" y1="388" x2="699" y2="388" fill="#FFFFFF" stroke="#000000" stroke-width="1.00"/>
<line shape-type="limitline" x1="804" y1="385" x2="804" y2="347" fill="#FFFFFF" stroke="#000000" stroke-width="1.00"/>
<line shape-type="limitline" x1="901" y1="385" x2="901" y2="348" fill="#FFFFFF" stroke="#000000" stroke-width="1.00"/>
<line shape-type="limitline" x1="710" y1="476" x2="735" y2="476" fill="#FFFFFF" stroke="#000000" stroke-width="1.00"/>
<line shape-type="limitline" x1="710" y1="527" x2="735" y2="527" fill="#FFFFFF" stroke="#000000" stroke-width="1.00"/>
<line shape-type="limitline" x1="618" y1="514" x2="643" y2="514" fill="#FFFFFF" stroke="#000000" stroke-width="1.00"/>
<line shape-type="limitline" x1="617" y1="464" x2="642" y2="464" fill="#FFFFFF" stroke="#000000" stroke-width="1.00"/>
<text font-family="宋体" text-anchor="start" fill="#000000" shape-type="text" id="" font-size="11.000000" x="11" y="489">自E-001</text>
<polygon shape-type="trapezium" points="20,492 20,499 34,496 34,496 20,492" stroke="#FFFFFF" stroke-width="1.00"/>
<polygon shape-type="trapezium" points="35,532 35,539 21,536 21,536 35,532" stroke="#FFFFFF" stroke-width="1.00"/>
<text font-family="宋体" text-anchor="start" fill="#000000" shape-type="text" id="" font-size="11.000000" x="14" y="556">至E-001</text>
<text font-family="宋体" text-anchor="start" fill="#000000" shape-type="text" id="" font-size="11.000000" x="8" y="596">自E-002</text>
<polygon shape-type="trapezium" points="23,601 23,608 37,605 37,605 23,601" stroke="#FFFFFF" stroke-width="1.00"/>
<polygon shape-type="trapezium" points="24,618 24,625 38,622 38,622 24,618" stroke="#FFFFFF" stroke-width="1.00"/>
<text font-family="宋体" text-anchor="start" fill="#000000" shape-type="text" id="" font-size="11.000000" x="11" y="645">自E-002/1</text>
<text font-family="宋体" text-anchor="start" fill="#000000" shape-type="text" id="" font-size="11.000000" x="359" y="740">酸性水回流泵</text>
<text font-family="宋体" text-anchor="start" fill="#000000" shape-type="text" id="" font-size="11.000000" x="479" y="739">P-003/1，2</text>
<text font-family="宋体" text-anchor="start" fill="#000000" shape-type="text" id="" font-size="11.000000" x="768" y="739">P-002/1，2</text>
<text font-family="宋体" text-anchor="start" fill="#000000" shape-type="text" id="" font-size="11.000000" x="678" y="740">溶剂循环泵</text>
<text font-family="宋体" text-anchor="start" fill="#000000" shape-type="text" id="" font-size="11.000000" x="1001" y="612">至C-001</text>
<polygon shape-type="trapezium" points="1036,589 1036,596 1050,593 1050,593 1036,589" stroke="#FFFFFF" stroke-width="1.00"/>
<polygon shape-type="trapezium" points="1050,424 1050,431 1036,428 1036,428 1050,424" stroke="#FFFFFF" stroke-width="1.00"/>
<text font-family="宋体" text-anchor="start" fill="#000000" shape-type="text" id="" font-size="11.000000" x="998" y="448">进装置</text>
<polygon shape-type="trapezium" points="1035,232 1035,239 1049,236 1049,236 1035,232" stroke="#FFFFFF" stroke-width="1.00"/>
<text font-family="宋体" text-anchor="start" fill="#000000" shape-type="text" id="" font-size="11.000000" x="926" y="257">酸性气出装置去火炬</text>
<text font-family="宋体" text-anchor="start" fill="#000000" shape-type="text" id="" font-size="11.000000" x="979" y="218">至V-002</text>
<polygon shape-type="trapezium" points="1034,198 1034,205 1048,202 1048,202 1034,198" stroke="#FFFFFF" stroke-width="1.00"/>
<text font-family="宋体" text-anchor="start" fill="#000000" shape-type="text" id="" font-size="11.000000" x="853" y="342">溶剂泵</text>
<text font-family="宋体" text-anchor="start" fill="#000000" shape-type="text" id="" font-size="11.000000" x="883" y="467">溶剂加入泵</text>
<text font-family="宋体" text-anchor="start" fill="#000000" shape-type="text" id="" font-size="12.500000" x="830" y="557">V-004</text>
<text font-family="宋体" text-anchor="start" fill="#000000" shape-type="text" id="" font-size="12.500000" x="832" y="372">V-005</text>
<text font-family="宋体" text-anchor="start" fill="#000000" shape-type="text" id="" font-size="12.500000" x="685" y="411">SR-002</text>
<text font-family="宋体" text-anchor="start" fill="#000000" shape-type="text" id="" font-size="12.500000" x="488" y="432">V-003</text>
<text font-family="宋体" text-anchor="start" fill="#000000" shape-type="text" id="" font-size="12.500000" x="346" y="365">V-002</text>
<text font-family="宋体" text-anchor="start" fill="#000000" shape-type="text" id="" font-size="12.500000" x="179" y="573">C-002</text>
<polygon shape-type="trapezium" points="310,183 310,190 324,187 324,187 310,183" stroke="#FFFFFF" stroke-width="1.00"/>
<polygon shape-type="trapezium" points="410,559 404,559 407,544 407,544 410,559" stroke="#FFFFFF" stroke-width="1.00"/>
<polygon shape-type="trapezium" points="452,560 446,560 449,545 449,545 452,560" stroke="#FFFFFF" stroke-width="1.00"/>
<polygon shape-type="trapezium" points="602,587 596,587 599,572 599,572 602,587" stroke="#FFFFFF" stroke-width="1.00"/>
<polygon shape-type="trapezium" points="535,571 529,571 532,586 532,586 535,571" stroke="#FFFFFF" stroke-width="1.00"/>
<polygon shape-type="trapezium" points="655,421 649,421 652,406 652,406 655,421" stroke="#FFFFFF" stroke-width="1.00"/>
<polygon shape-type="trapezium" points="665,575 659,575 662,590 662,590 665,575" stroke="#FFFFFF" stroke-width="1.00"/>
<polygon shape-type="trapezium" points="794,558 788,558 791,543 791,543 794,558" stroke="#FFFFFF" stroke-width="1.00"/>
<polygon shape-type="trapezium" points="809,586 803,586 806,601 806,601 809,586" stroke="#FFFFFF" stroke-width="1.00"/>
<polygon shape-type="trapezium" points="772,558 766,558 769,543 769,543 772,558" stroke="#FFFFFF" stroke-width="1.00"/>
<polygon shape-type="trapezium" points="685,445 679,445 682,460 682,460 685,445" stroke="#FFFFFF" stroke-width="1.00"/>
<a xlink:href="气分总图.svg">
<g shape-type="button">
<rect fill="#C0C0C0" stroke-width="0.3" stroke="#FFFFFF" x="922" y="732" width="51" height="29" shape-type="buttonrect"/>
<text font-family="宋体" text-anchor="middle" dominant-baseline="middle" fill="#000000" font-size="13.500000" x="947" y="752" shape-type="buttontext">返回</text>
</g>
</a>
</svg>