<?xml version="1.0"?>
<?xml-stylesheet type='text/javascript'?>
<!--Draw SVG: 2019-11-25 09:41:45 47-Monday-->
<svg xmlns="http://www.w3.org/2000/svg" xmlns:xlink="http://www.w3.org/1999/xlink" version="1.1" style="background-color:#000000" width="1066" height="800" viewbox="0 0 1066 800">
<defs>
<linearGradient x1="50.000000%" y1="0.000000%" x2="50.000000%" y2="100.000000%" id="lgradient30_0">
<stop offset="0" stop-color="#2C2C2C" stop-opacity="1"/>
<stop offset="0.5" stop-color="#FFFFFF" stop-opacity="1"/>
<stop offset="1" stop-color="#2C2C2C" stop-opacity="1"/>
</linearGradient>
<linearGradient x1="50.000000%" y1="0.000000%" x2="50.000000%" y2="100.000000%" id="lgradient30_1">
<stop offset="0" stop-color="#2C2C2C" stop-opacity="1"/>
<stop offset="0.5" stop-color="#FFFFFF" stop-opacity="1"/>
<stop offset="1" stop-color="#2C2C2C" stop-opacity="1"/>
</linearGradient>
<linearGradient x1="50.000000%" y1="0.000000%" x2="50.000000%" y2="100.000000%" id="lgradient31_0">
<stop offset="0" stop-color="#2C2C2C" stop-opacity="1"/>
<stop offset="0.5" stop-color="#FFFFFF" stop-opacity="1"/>
<stop offset="1" stop-color="#2C2C2C" stop-opacity="1"/>
</linearGradient>
<linearGradient x1="50.000000%" y1="0.000000%" x2="50.000000%" y2="100.000000%" id="lgradient31_1">
<stop offset="0" stop-color="#2C2C2C" stop-opacity="1"/>
<stop offset="0.5" stop-color="#FFFFFF" stop-opacity="1"/>
<stop offset="1" stop-color="#2C2C2C" stop-opacity="1"/>
</linearGradient>
<linearGradient x1="0.000000%" y1="50.000000%" x2="100.000000%" y2="50.000000%" id="lgradient32_0">
<stop offset="0" stop-color="#2C2C2C" stop-opacity="1"/>
<stop offset="0.5" stop-color="#FFFFFF" stop-opacity="1"/>
<stop offset="1" stop-color="#2C2C2C" stop-opacity="1"/>
</linearGradient>
<linearGradient x1="0.000000%" y1="50.000000%" x2="100.000000%" y2="50.000000%" id="lgradient32_1">
<stop offset="0" stop-color="#2C2C2C" stop-opacity="1"/>
<stop offset="0.5" stop-color="#FFFFFF" stop-opacity="1"/>
<stop offset="1" stop-color="#2C2C2C" stop-opacity="1"/>
</linearGradient>
<linearGradient x1="50.000000%" y1="0.000000%" x2="50.000000%" y2="100.000000%" id="lgradient33_0">
<stop offset="0" stop-color="#2C2C2C" stop-opacity="1"/>
<stop offset="0.5" stop-color="#FFFFFF" stop-opacity="1"/>
<stop offset="1" stop-color="#2C2C2C" stop-opacity="1"/>
</linearGradient>
<linearGradient x1="50.000000%" y1="0.000000%" x2="50.000000%" y2="100.000000%" id="lgradient33_1">
<stop offset="0" stop-color="#2C2C2C" stop-opacity="1"/>
<stop offset="0.5" stop-color="#FFFFFF" stop-opacity="1"/>
<stop offset="1" stop-color="#2C2C2C" stop-opacity="1"/>
</linearGradient>
<linearGradient x1="0.000000%" y1="50.000000%" x2="100.000000%" y2="50.000000%" id="lgradient34_0">
<stop offset="0" stop-color="#2C2C2C" stop-opacity="1"/>
<stop offset="0.5" stop-color="#FFFFFF" stop-opacity="1"/>
<stop offset="1" stop-color="#2C2C2C" stop-opacity="1"/>
</linearGradient>
<linearGradient x1="0.000000%" y1="50.000000%" x2="100.000000%" y2="50.000000%" id="lgradient34_1">
<stop offset="0" stop-color="#2C2C2C" stop-opacity="1"/>
<stop offset="0.5" stop-color="#FFFFFF" stop-opacity="1"/>
<stop offset="1" stop-color="#2C2C2C" stop-opacity="1"/>
</linearGradient>
<linearGradient x1="0.000000%" y1="50.000000%" x2="100.000000%" y2="50.000000%" id="lgradient35_0">
<stop offset="0" stop-color="#2C2C2C" stop-opacity="1"/>
<stop offset="0.5" stop-color="#FFFFFF" stop-opacity="1"/>
<stop offset="1" stop-color="#2C2C2C" stop-opacity="1"/>
</linearGradient>
<linearGradient x1="0.000000%" y1="50.000000%" x2="100.000000%" y2="50.000000%" id="lgradient35_1">
<stop offset="0" stop-color="#2C2C2C" stop-opacity="1"/>
<stop offset="0.5" stop-color="#FFFFFF" stop-opacity="1"/>
<stop offset="1" stop-color="#2C2C2C" stop-opacity="1"/>
</linearGradient>
<linearGradient x1="50.000000%" y1="0.000000%" x2="50.000000%" y2="100.000000%" id="lgradient36_0">
<stop offset="0" stop-color="#2C2C2C" stop-opacity="1"/>
<stop offset="0.5" stop-color="#FFFFFF" stop-opacity="1"/>
<stop offset="1" stop-color="#2C2C2C" stop-opacity="1"/>
</linearGradient>
<linearGradient x1="50.000000%" y1="0.000000%" x2="50.000000%" y2="100.000000%" id="lgradient36_1">
<stop offset="0" stop-color="#2C2C2C" stop-opacity="1"/>
<stop offset="0.5" stop-color="#FFFFFF" stop-opacity="1"/>
<stop offset="1" stop-color="#2C2C2C" stop-opacity="1"/>
</linearGradient>
<linearGradient x1="50.000000%" y1="0.000000%" x2="50.000000%" y2="100.000000%" id="lgradient37_0">
<stop offset="0" stop-color="#2C2C2C" stop-opacity="1"/>
<stop offset="0.5" stop-color="#FFFFFF" stop-opacity="1"/>
<stop offset="1" stop-color="#2C2C2C" stop-opacity="1"/>
</linearGradient>
<linearGradient x1="50.000000%" y1="0.000000%" x2="50.000000%" y2="100.000000%" id="lgradient37_1">
<stop offset="0" stop-color="#2C2C2C" stop-opacity="1"/>
<stop offset="0.5" stop-color="#FFFFFF" stop-opacity="1"/>
<stop offset="1" stop-color="#2C2C2C" stop-opacity="1"/>
</linearGradient>
<linearGradient x1="50.000000%" y1="0.000000%" x2="50.000000%" y2="100.000000%" id="lgradient38_0">
<stop offset="0" stop-color="#2C2C2C" stop-opacity="1"/>
<stop offset="0.5" stop-color="#FFFFFF" stop-opacity="1"/>
<stop offset="1" stop-color="#2C2C2C" stop-opacity="1"/>
</linearGradient>
<linearGradient x1="50.000000%" y1="0.000000%" x2="50.000000%" y2="100.000000%" id="lgradient38_1">
<stop offset="0" stop-color="#2C2C2C" stop-opacity="1"/>
<stop offset="0.5" stop-color="#FFFFFF" stop-opacity="1"/>
<stop offset="1" stop-color="#2C2C2C" stop-opacity="1"/>
</linearGradient>
<linearGradient x1="50.000000%" y1="0.000000%" x2="50.000000%" y2="100.000000%" id="lgradient68_0">
<stop offset="0" stop-color="#2C2C2C" stop-opacity="1"/>
<stop offset="0.5" stop-color="#FFFFFF" stop-opacity="1"/>
<stop offset="1" stop-color="#2C2C2C" stop-opacity="1"/>
</linearGradient>
<linearGradient x1="50.000000%" y1="0.000000%" x2="50.000000%" y2="100.000000%" id="lgradient68_1">
<stop offset="0" stop-color="#2C2C2C" stop-opacity="1"/>
<stop offset="0.5" stop-color="#FFFFFF" stop-opacity="1"/>
<stop offset="1" stop-color="#2C2C2C" stop-opacity="1"/>
</linearGradient>
<linearGradient x1="0.000000%" y1="50.000000%" x2="100.000000%" y2="50.000000%" id="lgradient74_0">
<stop offset="0" stop-color="#2C2C2C" stop-opacity="1"/>
<stop offset="0.5" stop-color="#FFFFFF" stop-opacity="1"/>
<stop offset="1" stop-color="#2C2C2C" stop-opacity="1"/>
</linearGradient>
<linearGradient x1="0.000000%" y1="50.000000%" x2="100.000000%" y2="50.000000%" id="lgradient74_1">
<stop offset="0" stop-color="#2C2C2C" stop-opacity="1"/>
<stop offset="0.5" stop-color="#FFFFFF" stop-opacity="1"/>
<stop offset="1" stop-color="#2C2C2C" stop-opacity="1"/>
</linearGradient>
<linearGradient x1="50.000000%" y1="0.000000%" x2="50.000000%" y2="100.000000%" id="lgradient76_0">
<stop offset="0" stop-color="#2C2C2C" stop-opacity="1"/>
<stop offset="0.5" stop-color="#FFFFFF" stop-opacity="1"/>
<stop offset="1" stop-color="#2C2C2C" stop-opacity="1"/>
</linearGradient>
<linearGradient x1="50.000000%" y1="0.000000%" x2="50.000000%" y2="100.000000%" id="lgradient76_1">
<stop offset="0" stop-color="#2C2C2C" stop-opacity="1"/>
<stop offset="0.5" stop-color="#FFFFFF" stop-opacity="1"/>
<stop offset="1" stop-color="#2C2C2C" stop-opacity="1"/>
</linearGradient>
<linearGradient x1="0.000000%" y1="50.000000%" x2="100.000000%" y2="50.000000%" id="lgradient110">
<stop offset="0" stop-color="#111111" stop-opacity="1"/>
<stop offset="0.5" stop-color="#636563" stop-opacity="1"/>
<stop offset="1" stop-color="#111111" stop-opacity="1"/>
</linearGradient>
</defs>
<line shape-type="limitline" x1="664" y1="629" x2="635" y2="629" fill="#00FFFF" stroke="#FFFFFF" stroke-width="3.00" stroke-dasharray="5 10"/>
<line shape-type="limitline" x1="441" y1="165" x2="441" y2="79" fill="#00FFFF" stroke="#FFFFFF" stroke-width="3.00" stroke-dasharray="5 10"/>
<line shape-type="limitline" x1="695" y1="213" x2="695" y2="129" fill="#00FFFF" stroke="#FFFFFF" stroke-width="3.00"/>
<line shape-type="limitline" x1="812" y1="600" x2="812" y2="315" fill="#00FFFF" stroke="#FFFFFF" stroke-width="3.00"/>
<line shape-type="limitline" x1="531" y1="601" x2="531" y2="671" fill="#00FFFF" stroke="#FFFFFF" stroke-width="3.00"/>
<rect shape-type="rectangle" x="0" y="1" width="1065" height="38" fill="#636563" stroke="#808080" stroke-width="1.00"/>
<rect shape-type="rectangle" x="282" y="3" width="500" height="33" stroke="#000000" stroke-width="1.00"/>
<text font-family="宋体" text-anchor="start" fill="#FFFFFF" shape-type="text" id="" font-size="26.750000" font-weight="bold" x="368" y="30">氮肥区中压蒸汽管网</text>
<a xlink:href="\管网\GW_ML.svg">
<g shape-type="button">
<rect fill="#C0C0C0" stroke-width="0.3" stroke="#FFFFFF" x="960" y="3" width="100" height="33" shape-type="buttonrect"/>
<text font-family="宋体" text-anchor="middle" dominant-baseline="middle" fill="#800000" font-size="13.500000" font-weight="bold" x="1010" y="26" shape-type="buttontext">返回上一级</text>
</g>
</a>
<rect shape-type="rectangle" x="124" y="245" width="37" height="115" fill="#808080" stroke="#FFFFFF" stroke-width="2.00"/>
<rect shape-type="rectangle" x="214" y="195" width="92" height="35" fill="#808080" stroke="#FFFFFF" stroke-width="2.00"/>
<rect shape-type="rectangle" x="75" y="506" width="43" height="184" fill="#808080" stroke="#FFFFFF" stroke-width="2.00"/>
<line shape-type="limitline" x1="259" y1="347" x2="259" y2="230" fill="#00FFFF" stroke="#FFFFFF" stroke-width="3.00"/>
<line shape-type="limitline" x1="323" y1="349" x2="258" y2="349" fill="#00FFFF" stroke="#FFFFFF" stroke-width="3.00"/>
<line shape-type="limitline" x1="324" y1="598" x2="324" y2="348" fill="#00FFFF" stroke="#FFFFFF" stroke-width="3.00"/>
<line shape-type="limitline" x1="118" y1="600" x2="812" y2="600" fill="#00FFFF" stroke="#FFFFFF" stroke-width="3.00"/>
<rect shape-type="rectangle" x="532" y="338" width="39" height="151" fill="#808080" stroke="#FFFFFF" stroke-width="2.00"/>
<rect shape-type="rectangle" x="636" y="337" width="67" height="29" fill="#808080" stroke="#FFFFFF" stroke-width="2.00"/>
<rect shape-type="rectangle" x="636" y="456" width="67" height="29" fill="#808080" stroke="#FFFFFF" stroke-width="2.00"/>
<line shape-type="limitline" x1="572" y1="351" x2="634" y2="351" fill="#00FFFF" stroke="#FFFFFF" stroke-width="3.00"/>
<line shape-type="limitline" x1="704" y1="350" x2="810" y2="350" fill="#00FFFF" stroke="#FFFFFF" stroke-width="3.00"/>
<line shape-type="limitline" x1="636" y1="472" x2="571" y2="472" fill="#00FFFF" stroke="#FFFFFF" stroke-width="3.00"/>
<line shape-type="limitline" x1="702" y1="471" x2="809" y2="471" fill="#00FFFF" stroke="#FFFFFF" stroke-width="3.00"/>
<line shape-type="limitline" x1="855" y1="314" x2="811" y2="314" fill="#00FFFF" stroke="#FFFFFF" stroke-width="3.00"/>
<line shape-type="limitline" x1="855" y1="215" x2="855" y2="312" fill="#00FFFF" stroke="#FFFFFF" stroke-width="3.00"/>
<line shape-type="limitline" x1="981" y1="213" x2="351" y2="213" fill="#00FFFF" stroke="#FFFFFF" stroke-width="3.00"/>
<rect shape-type="rectangle" x="981" y="198" width="67" height="29" fill="#808080" stroke="#FFFFFF" stroke-width="2.00"/>
<rect shape-type="rectangle" x="670" y="96" width="143" height="29" fill="#808080" stroke="#FFFFFF" stroke-width="2.00"/>
<line shape-type="limitline" x1="350" y1="213" x2="350" y2="114" fill="#00FFFF" stroke="#FFFFFF" stroke-width="3.00"/>
<g shape-type="group">
<polygon shape-type="trapezium" points="316,516 332,516 324,527 324,527 316,516" fill="url(#lgradient30_0)" stroke="#808080" stroke-width="1.00"/>
<polygon shape-type="trapezium" points="316,540 332,540 324,527 324,527 316,540" fill="url(#lgradient30_1)" stroke="#808080" stroke-width="1.00"/>
</g>
<g shape-type="group">
<polygon shape-type="trapezium" points="686,156 702,156 694,167 694,167 686,156" fill="url(#lgradient31_0)" stroke="#808080" stroke-width="1.00"/>
<polygon shape-type="trapezium" points="686,180 702,180 694,167 694,167 686,180" fill="url(#lgradient31_1)" stroke="#808080" stroke-width="1.00"/>
</g>
<g shape-type="group">
<polygon shape-type="trapezium" points="925,220 925,206 915,213 915,213 925,220" fill="url(#lgradient32_0)" stroke="#808080" stroke-width="1.00"/>
<polygon shape-type="trapezium" points="902,220 902,206 915,213 915,213 902,220" fill="url(#lgradient32_1)" stroke="#808080" stroke-width="1.00"/>
</g>
<g shape-type="group">
<polygon shape-type="trapezium" points="847,259 863,259 855,269 855,269 847,259" fill="url(#lgradient33_0)" stroke="#808080" stroke-width="1.00"/>
<polygon shape-type="trapezium" points="847,283 863,283 855,269 855,269 847,283" fill="url(#lgradient33_1)" stroke="#808080" stroke-width="1.00"/>
</g>
<g shape-type="group">
<polygon shape-type="trapezium" points="770,359 770,342 759,350 759,350 770,359" fill="url(#lgradient34_0)" stroke="#808080" stroke-width="1.00"/>
<polygon shape-type="trapezium" points="747,359 747,342 759,350 759,350 747,359" fill="url(#lgradient34_1)" stroke="#808080" stroke-width="1.00"/>
</g>
<g shape-type="group">
<polygon shape-type="trapezium" points="770,479 770,463 759,471 759,471 770,479" fill="url(#lgradient35_0)" stroke="#808080" stroke-width="1.00"/>
<polygon shape-type="trapezium" points="747,479 747,463 759,471 759,471 747,479" fill="url(#lgradient35_1)" stroke="#808080" stroke-width="1.00"/>
</g>
<g shape-type="group">
<polygon shape-type="trapezium" points="803,393 819,393 811,404 811,404 803,393" fill="url(#lgradient36_0)" stroke="#808080" stroke-width="1.00"/>
<polygon shape-type="trapezium" points="803,417 819,417 811,404 811,404 803,417" fill="url(#lgradient36_1)" stroke="#808080" stroke-width="1.00"/>
</g>
<g shape-type="group">
<polygon shape-type="trapezium" points="803,521 819,521 811,532 811,532 803,521" fill="url(#lgradient37_0)" stroke="#808080" stroke-width="1.00"/>
<polygon shape-type="trapezium" points="803,545 819,545 811,532 811,532 803,545" fill="url(#lgradient37_1)" stroke="#808080" stroke-width="1.00"/>
</g>
<g shape-type="group">
<polygon shape-type="trapezium" points="522,626 538,626 530,636 530,636 522,626" fill="url(#lgradient38_0)" stroke="#808080" stroke-width="1.00"/>
<polygon shape-type="trapezium" points="522,650 538,650 530,636 530,636 522,650" fill="url(#lgradient38_1)" stroke="#808080" stroke-width="1.00"/>
</g>
<line shape-type="limitline" x1="160" y1="297" x2="259" y2="297" fill="#00FFFF" stroke="#FFFFFF" stroke-width="3.00"/>
<rect shape-type="rectangle" x="454" y="674" width="156" height="29" fill="#808080" stroke="#FFFFFF" stroke-width="2.00"/>
<line shape-type="limitline" x1="343" y1="114" x2="356" y2="114" fill="#00FFFF" stroke="#FFFFFF" stroke-width="3.00"/>
<text font-family="宋体" text-anchor="start" fill="#FFFFFF" shape-type="text" id="" font-size="12.500000" font-weight="bold" writing-mode="tb" glyph-orientation-vertical="0" x="88" y="547">苯胺及环己酮装置</text>
<text font-family="宋体" text-anchor="start" fill="#FFFFFF" shape-type="text" id="" font-size="12.500000" font-weight="bold" writing-mode="tb" glyph-orientation-vertical="0" x="134" y="267">资源优化项目</text>
<text font-family="宋体" text-anchor="start" fill="#FFFFFF" shape-type="text" id="" font-size="12.500000" font-weight="bold" x="228" y="217">硫酸装置</text>
<text font-family="宋体" text-anchor="start" fill="#FFFFFF" shape-type="text" id="" font-size="11.750000" font-weight="bold" x="507" y="693">合成氨</text>
<text font-family="宋体" text-anchor="start" fill="#FFFFFF" shape-type="text" id="" font-size="12.500000" font-weight="bold" x="645" y="475">前置机</text>
<text font-family="宋体" text-anchor="start" fill="#FFFFFF" shape-type="text" id="" font-size="12.500000" font-weight="bold" x="645" y="356">高补中</text>
<text font-family="宋体" text-anchor="start" fill="#FFFFFF" shape-type="text" id="" font-size="12.500000" font-weight="bold" writing-mode="tb" glyph-orientation-vertical="0" x="543" y="394">动力站区</text>
<text font-family="宋体" text-anchor="start" fill="#FFFFFF" shape-type="text" id="" font-size="12.500000" font-weight="bold" x="706" y="116">稀硝装置</text>
<text font-family="宋体" text-anchor="start" fill="#FFFFFF" shape-type="text" id="" font-size="12.500000" font-weight="bold" x="990" y="217">帝斯曼</text>
<polygon shape-type="trapezium" points="169,290 169,301 160,296 160,296 169,290" fill="#FFFFFF" stroke="#FFFFFF" stroke-width="1.00"/>
<polygon shape-type="trapezium" points="264,339 254,339 259,347 259,347 264,339" fill="#FFFFFF" stroke="#FFFFFF" stroke-width="1.00"/>
<polygon shape-type="trapezium" points="128,594 128,605 119,600 119,600 128,594" fill="#FFFFFF" stroke="#FFFFFF" stroke-width="1.00"/>
<polygon shape-type="trapezium" points="329,590 319,590 324,598 324,598 329,590" fill="#FFFFFF" stroke="#FFFFFF" stroke-width="1.00"/>
<polygon shape-type="trapezium" points="536,608 526,608 531,600 531,600 536,608" fill="#FFFFFF" stroke="#FFFFFF" stroke-width="1.00"/>
<polygon shape-type="trapezium" points="817,590 807,590 812,598 812,598 817,590" fill="#FFFFFF" stroke="#FFFFFF" stroke-width="1.00"/>
<polygon shape-type="trapezium" points="801,465 801,476 810,471 810,471 801,465" fill="#FFFFFF" stroke="#FFFFFF" stroke-width="1.00"/>
<polygon shape-type="trapezium" points="802,344 802,355 811,350 811,350 802,344" fill="#FFFFFF" stroke="#FFFFFF" stroke-width="1.00"/>
<polygon shape-type="trapezium" points="860,304 850,304 855,312 855,312 860,304" fill="#FFFFFF" stroke="#FFFFFF" stroke-width="1.00"/>
<polygon shape-type="trapezium" points="972,208 972,219 981,214 981,214 972,208" fill="#FFFFFF" stroke="#FFFFFF" stroke-width="1.00"/>
<polygon shape-type="trapezium" points="699,136 689,136 694,128 694,128 699,136" fill="#FFFFFF" stroke="#FFFFFF" stroke-width="1.00"/>
<rect shape-type="rectangle" x="630" y="372" width="63" height="27" fill="#4A494A" stroke="#C0C0C0" stroke-width="3.00"/>
<rect shape-type="rectangle" x="693" y="372" width="36" height="27" fill="#4A494A" stroke="#C0C0C0" stroke-width="3.00"/>
<text font-family="宋体" text-anchor="start" fill="#00FF42" shape-type="text" id="" font-size="9.500000" font-weight="bold" x="706" y="388">℃</text>
<rect shape-type="rectangle" x="630" y="408" width="63" height="27" fill="#4A494A" stroke="#C0C0C0" stroke-width="3.00"/>
<rect shape-type="rectangle" x="693" y="408" width="36" height="27" fill="#4A494A" stroke="#C0C0C0" stroke-width="3.00"/>
<line shape-type="limitline" x1="784" y1="212" x2="784" y2="126" fill="#00FFFF" stroke="#FFFFFF" stroke-width="3.00"/>
<g shape-type="group">
<polygon shape-type="trapezium" points="776,155 792,155 784,166 784,166 776,155" fill="url(#lgradient68_0)" stroke="#808080" stroke-width="1.00"/>
<polygon shape-type="trapezium" points="776,179 792,179 784,166 784,166 776,179" fill="url(#lgradient68_1)" stroke="#808080" stroke-width="1.00"/>
</g>
<polygon shape-type="trapezium" points="790,132 778,132 784,142 784,142 790,132" fill="#FFFFFF" stroke="#FFFFFF" stroke-width="1.00"/>
<line shape-type="limitline" x1="349" y1="167" x2="498" y2="167" fill="#00FFFF" stroke="#FFFFFF" stroke-width="3.00"/>
<rect shape-type="rectangle" x="498" y="157" width="66" height="23" fill="#808080" stroke="#FFFFFF" stroke-width="2.00"/>
<text font-family="宋体" text-anchor="start" fill="#FFFFFF" shape-type="text" id="" font-size="12.500000" font-weight="bold" x="506" y="173">新硝镁</text>
<polygon shape-type="trapezium" points="488,161 488,172 497,167 497,167 488,161" fill="#FFFFFF" stroke="#FFFFFF" stroke-width="1.00"/>
<g shape-type="group">
<polygon shape-type="trapezium" points="425,174 425,159 415,166 415,166 425,174" fill="url(#lgradient74_0)" stroke="#808080" stroke-width="1.00"/>
<polygon shape-type="trapezium" points="402,174 402,159 415,166 415,166 402,174" fill="url(#lgradient74_1)" stroke="#808080" stroke-width="1.00"/>
</g>
<line shape-type="limitline" x1="479" y1="214" x2="478" y2="279" fill="#00FFFF" stroke="#FFFFFF" stroke-width="3.00"/>
<g shape-type="group">
<polygon shape-type="trapezium" points="470,256 488,256 479,244 479,244 470,256" fill="url(#lgradient76_0)" stroke="#808080" stroke-width="1.00"/>
<polygon shape-type="trapezium" points="470,232 488,232 479,244 479,244 470,232" fill="url(#lgradient76_1)" stroke="#808080" stroke-width="1.00"/>
</g>
<rect shape-type="rectangle" x="445" y="279" width="66" height="24" fill="#808080" stroke="#FFFFFF" stroke-width="2.00"/>
<text font-family="宋体" text-anchor="start" fill="#FFFFFF" shape-type="text" id="" font-size="12.500000" font-weight="bold" x="453" y="296">老硝镁</text>
<polygon shape-type="trapezium" points="484,272 474,272 479,280 479,280 484,272" fill="#FFFFFF" stroke="#FFFFFF" stroke-width="1.00"/>
<g shape-type="group">
<rect shape-type="rectangle" x="630" y="288" width="63" height="27" fill="#4A494A" stroke="#C0C0C0" stroke-width="3.00"/>
<rect shape-type="rectangle" x="693" y="288" width="36" height="27" fill="#4A494A" stroke="#C0C0C0" stroke-width="3.00"/>
</g>
<g shape-type="group">
<rect shape-type="rectangle" x="398" y="53" width="62" height="27" fill="#4A494A" stroke="#C0C0C0" stroke-width="3.00"/>
<rect shape-type="rectangle" x="460" y="53" width="37" height="27" fill="#4A494A" stroke="#C0C0C0" stroke-width="3.00"/>
</g>
<g shape-type="group">
<rect shape-type="rectangle" x="398" y="88" width="62" height="26" fill="#4A494A" stroke="#C0C0C0" stroke-width="3.00"/>
<rect shape-type="rectangle" x="460" y="88" width="37" height="26" fill="#4A494A" stroke="#C0C0C0" stroke-width="3.00"/>
</g>
<g shape-type="group">
<rect shape-type="rectangle" x="398" y="122" width="62" height="27" fill="#4A494A" stroke="#C0C0C0" stroke-width="3.00"/>
<rect shape-type="rectangle" x="460" y="122" width="37" height="27" fill="#4A494A" stroke="#C0C0C0" stroke-width="3.00"/>
</g>
<g shape-type="group">
<rect shape-type="rectangle" x="313" y="235" width="62" height="28" fill="#4A494A" stroke="#C0C0C0" stroke-width="3.00"/>
<rect shape-type="rectangle" x="375" y="235" width="38" height="28" fill="#4A494A" stroke="#C0C0C0" stroke-width="3.00"/>
</g>
<g shape-type="group">
<rect shape-type="rectangle" x="313" y="269" width="62" height="27" fill="#4A494A" stroke="#C0C0C0" stroke-width="3.00"/>
<rect shape-type="rectangle" x="375" y="269" width="38" height="27" fill="#4A494A" stroke="#C0C0C0" stroke-width="3.00"/>
</g>
<g shape-type="group">
<rect shape-type="rectangle" x="313" y="304" width="62" height="27" fill="#4A494A" stroke="#C0C0C0" stroke-width="3.00"/>
<rect shape-type="rectangle" x="375" y="304" width="38" height="27" fill="#4A494A" stroke="#C0C0C0" stroke-width="3.00"/>
</g>
<line shape-type="limitline" x1="436" y1="265" x2="479" y2="265" fill="#00FFFF" stroke="#FFFFFF" stroke-width="3.00" stroke-dasharray="5 10"/>
<line shape-type="limitline" x1="432" y1="322" x2="432" y2="243" fill="#00FFFF" stroke="#FFFFFF" stroke-width="3.00" stroke-dasharray="5 10"/>
<line shape-type="limitline" x1="416" y1="322" x2="430" y2="322" fill="#00FFFF" stroke="#FFFFFF" stroke-width="3.00" stroke-dasharray="5 10"/>
<line shape-type="limitline" x1="415" y1="283" x2="430" y2="283" fill="#00FFFF" stroke="#FFFFFF" stroke-width="3.00" stroke-dasharray="5 10"/>
<line shape-type="limitline" x1="417" y1="245" x2="431" y2="245" fill="#00FFFF" stroke="#FFFFFF" stroke-width="3.00" stroke-dasharray="5 10"/>
<g shape-type="group">
<rect shape-type="rectangle" x="661" y="615" width="63" height="27" fill="#4A494A" stroke="#C0C0C0" stroke-width="3.00"/>
<rect shape-type="rectangle" x="724" y="615" width="36" height="27" fill="#4A494A" stroke="#C0C0C0" stroke-width="3.00"/>
</g>
<g shape-type="group">
<rect shape-type="rectangle" x="661" y="649" width="63" height="27" fill="#4A494A" stroke="#C0C0C0" stroke-width="3.00"/>
<rect shape-type="rectangle" x="724" y="649" width="36" height="27" fill="#4A494A" stroke="#C0C0C0" stroke-width="3.00"/>
</g>
<g shape-type="group">
<rect shape-type="rectangle" x="661" y="684" width="63" height="27" fill="#4A494A" stroke="#C0C0C0" stroke-width="3.00"/>
<rect shape-type="rectangle" x="724" y="684" width="36" height="27" fill="#4A494A" stroke="#C0C0C0" stroke-width="3.00"/>
</g>
<line shape-type="limitline" x1="532" y1="664" x2="657" y2="664" fill="#00FFFF" stroke="#FFFFFF" stroke-width="3.00" stroke-dasharray="5 10"/>
<line shape-type="limitline" x1="634" y1="698" x2="634" y2="628" fill="#00FFFF" stroke="#FFFFFF" stroke-width="3.00" stroke-dasharray="5 10"/>
<line shape-type="limitline" x1="636" y1="697" x2="659" y2="697" fill="#00FFFF" stroke="#FFFFFF" stroke-width="3.00" stroke-dasharray="5 10"/>
<text font-family="Arial" text-anchor="start" fill="#00FFFF" shape-type="realdata" id="XSB_XM1_FT_31619" font-size="12.500000" x="403" y="71">XXXX</text>
<text font-family="宋体" text-anchor="start" fill="#00FF42" shape-type="text" id="" font-size="9.500000" font-weight="bold" x="469" y="69">t/h</text>
<text font-family="宋体" text-anchor="start" fill="#00FF42" shape-type="text" id="" font-size="9.500000" font-weight="bold" x="471" y="104">MPa</text>
<text font-family="宋体" text-anchor="start" fill="#00FF42" shape-type="text" id="" font-size="9.500000" font-weight="bold" x="473" y="139">℃</text>
<text font-family="Arial" text-anchor="start" fill="#00FFFF" shape-type="realdata" id="XSB_XM1_PT_31619" font-size="12.500000" x="404" y="106">XXXX</text>
<text font-family="Arial" text-anchor="start" fill="#00FFFF" shape-type="realdata" id="XSB_XM1_TI_31619" font-size="12.500000" x="403" y="140">XXXX</text>
<text font-family="Arial" text-anchor="start" fill="#00FFFF" shape-type="realdata" id="HCAB_HC_FI29007" font-size="12.500000" x="669" y="633">XXXX</text>
<text font-family="宋体" text-anchor="start" fill="#00FF42" shape-type="text" id="" font-size="9.500000" font-weight="bold" x="732" y="631">t/h</text>
<text font-family="宋体" text-anchor="start" fill="#00FF42" shape-type="text" id="" font-size="9.500000" font-weight="bold" x="735" y="666">MPa</text>
<text font-family="宋体" text-anchor="start" fill="#00FF42" shape-type="text" id="" font-size="9.500000" font-weight="bold" x="738" y="702">℃</text>
<text font-family="Arial" text-anchor="start" fill="#00FFFF" shape-type="realdata" id="HCAB_HC_PT29010" font-size="12.500000" x="668" y="667">XXXX</text>
<text font-family="Arial" text-anchor="start" fill="#00FFFF" shape-type="realdata" id="HCAB_HC_TC29007" font-size="12.500000" x="667" y="702">XXXX</text>
<rect shape-type="rectangle" x="0" y="756" width="1066" height="44" fill="url(#lgradient110)" stroke="#636563" stroke-width="1.00"/>
<a xlink:href="氮肥区低压蒸汽管网.svg">
<g shape-type="button">
<rect fill="#C0C0C0" stroke-width="0.3" stroke="#FFFFFF" x="15" y="761" width="134" height="33" shape-type="buttonrect"/>
<text font-family="宋体" text-anchor="middle" dominant-baseline="middle" fill="#000000" font-size="12.000000" x="82" y="783" shape-type="buttontext">氮肥区低压蒸汽管网</text>
</g>
</a>
<a xlink:href="氮肥区中压蒸汽管网.svg">
<g shape-type="button">
<rect fill="#C0C0C0" stroke-width="0.3" stroke="#FFFFFF" x="167" y="761" width="132" height="33" shape-type="buttonrect"/>
<text font-family="宋体" text-anchor="middle" dominant-baseline="middle" fill="#000000" font-size="12.000000" x="233" y="783" shape-type="buttontext">氮肥区中压蒸汽管网</text>
</g>
</a>
<a xlink:href="磷肥区低压蒸汽管网.svg">
<g shape-type="button">
<rect fill="#C0C0C0" stroke-width="0.3" stroke="#FFFFFF" x="317" y="761" width="134" height="33" shape-type="buttonrect"/>
<text font-family="宋体" text-anchor="middle" dominant-baseline="middle" fill="#000000" font-size="12.000000" x="384" y="783" shape-type="buttontext">磷肥区低压蒸汽管网</text>
</g>
</a>
<a xlink:href="磷肥区中压蒸汽管网.svg">
<g shape-type="button">
<rect fill="#C0C0C0" stroke-width="0.3" stroke="#FFFFFF" x="469" y="761" width="134" height="33" shape-type="buttonrect"/>
<text font-family="宋体" text-anchor="middle" dominant-baseline="middle" fill="#000000" font-size="12.000000" x="536" y="783" shape-type="buttontext">磷肥区中压蒸汽管网</text>
</g>
</a>
<a xlink:href="氢气管网.svg">
<g shape-type="button">
<rect fill="#C0C0C0" stroke-width="0.3" stroke="#FFFFFF" x="619" y="761" width="134" height="33" shape-type="buttonrect"/>
<text font-family="宋体" text-anchor="middle" dominant-baseline="middle" fill="#000000" font-size="12.000000" x="686" y="783" shape-type="buttontext">氢气管网</text>
</g>
</a>
<a xlink:href="氮气管网.svg">
<g shape-type="button">
<rect fill="#C0C0C0" stroke-width="0.3" stroke="#FFFFFF" x="771" y="761" width="134" height="33" shape-type="buttonrect"/>
<text font-family="宋体" text-anchor="middle" dominant-baseline="middle" fill="#000000" font-size="12.000000" x="838" y="783" shape-type="buttontext">氮气管网</text>
</g>
</a>
<text font-family="Arial" text-anchor="start" fill="#00FFFF" shape-type="realdata" id="XSB_XM2_FI32605" font-size="12.500000" x="320" y="253">XXXX</text>
<text font-family="Arial" text-anchor="start" fill="#00FFFF" shape-type="realdata" id="XSB_XM2_PI32619" font-size="12.500000" x="320" y="287">XXXX</text>
<text font-family="Arial" text-anchor="start" fill="#00FFFF" shape-type="realdata" id="XSB_XM2_TI32626" font-size="12.500000" x="319" y="322">XXXX</text>
<text font-family="宋体" text-anchor="start" fill="#00FF42" shape-type="text" id="" font-size="9.500000" font-weight="bold" x="385" y="252">t/h</text>
<text font-family="宋体" text-anchor="start" fill="#00FF42" shape-type="text" id="" font-size="9.500000" font-weight="bold" x="385" y="285">MPa</text>
<text font-family="宋体" text-anchor="start" fill="#00FF42" shape-type="text" id="" font-size="9.500000" font-weight="bold" x="390" y="322">℃</text>
<text font-family="Arial" text-anchor="start" fill="#00FFFF" shape-type="realdata" id="DLB_QJ_PT-103A" font-size="12.500000" x="636" y="306">XXXX</text>
<text font-family="Arial" text-anchor="start" fill="#00FFFF" shape-type="realdata" id="DLB_QJ_TE-104" font-size="12.500000" x="636" y="390">XXXX</text>
<text font-family="Arial" text-anchor="start" fill="#00FFFF" shape-type="realdata" id="DLB_QJ_FIRQ-102" font-size="12.500000" x="635" y="426">XXXX</text>
<text font-family="宋体" text-anchor="start" fill="#00FF42" shape-type="text" id="" font-size="9.500000" font-weight="bold" x="702" y="423">t/h</text>
<text font-family="宋体" text-anchor="start" fill="#00FF42" shape-type="text" id="" font-size="9.500000" font-weight="bold" x="702" y="303">MPa</text>
<rect shape-type="rectangle" x="890" y="267" width="63" height="27" fill="#4A494A" stroke="#C0C0C0" stroke-width="3.00"/>
<rect shape-type="rectangle" x="953" y="267" width="36" height="27" fill="#4A494A" stroke="#C0C0C0" stroke-width="3.00"/>
<text font-family="Arial" text-anchor="start" fill="#00FFFF" shape-type="realdata" id="DLB_LX_FT-110" font-size="12.500000" x="896" y="286">XXXX</text>
<text font-family="宋体" text-anchor="start" fill="#00FF42" shape-type="text" id="" font-size="9.500000" font-weight="bold" x="962" y="282">t/h</text>
<line shape-type="limitline" x1="942" y1="266" x2="942" y2="215" fill="#00FFFF" stroke="#FFFFFF" stroke-width="3.00" stroke-dasharray="5 10"/>
</svg>
