<?xml version="1.0"?>
<?xml-stylesheet type='text/javascript'?>
<!--Draw SVG: 2019-11-25 09:41:45 47-Monday-->
<svg xmlns="http://www.w3.org/2000/svg" xmlns:xlink="http://www.w3.org/1999/xlink" version="1.1" style="background-color:#000000" width="1066" height="800" viewbox="0 0 1066 800">
<defs>
<linearGradient x1="50.000000%" y1="0.000000%" x2="50.000000%" y2="100.000000%" id="lgradient166_0">
<stop offset="0" stop-color="#2C2C2C" stop-opacity="1"/>
<stop offset="0.5" stop-color="#FFFFFF" stop-opacity="1"/>
<stop offset="1" stop-color="#2C2C2C" stop-opacity="1"/>
</linearGradient>
<linearGradient x1="50.000000%" y1="0.000000%" x2="50.000000%" y2="100.000000%" id="lgradient166_1">
<stop offset="0" stop-color="#2C2C2C" stop-opacity="1"/>
<stop offset="0.5" stop-color="#FFFFFF" stop-opacity="1"/>
<stop offset="1" stop-color="#2C2C2C" stop-opacity="1"/>
</linearGradient>
<linearGradient x1="50.000000%" y1="0.000000%" x2="50.000000%" y2="100.000000%" id="lgradient167_0">
<stop offset="0" stop-color="#2C2C2C" stop-opacity="1"/>
<stop offset="0.5" stop-color="#FFFFFF" stop-opacity="1"/>
<stop offset="1" stop-color="#2C2C2C" stop-opacity="1"/>
</linearGradient>
<linearGradient x1="50.000000%" y1="0.000000%" x2="50.000000%" y2="100.000000%" id="lgradient167_1">
<stop offset="0" stop-color="#2C2C2C" stop-opacity="1"/>
<stop offset="0.5" stop-color="#FFFFFF" stop-opacity="1"/>
<stop offset="1" stop-color="#2C2C2C" stop-opacity="1"/>
</linearGradient>
<linearGradient x1="50.000000%" y1="0.000000%" x2="50.000000%" y2="100.000000%" id="lgradient168_0">
<stop offset="0" stop-color="#2C2C2C" stop-opacity="1"/>
<stop offset="0.5" stop-color="#FFFFFF" stop-opacity="1"/>
<stop offset="1" stop-color="#2C2C2C" stop-opacity="1"/>
</linearGradient>
<linearGradient x1="50.000000%" y1="0.000000%" x2="50.000000%" y2="100.000000%" id="lgradient168_1">
<stop offset="0" stop-color="#2C2C2C" stop-opacity="1"/>
<stop offset="0.5" stop-color="#FFFFFF" stop-opacity="1"/>
<stop offset="1" stop-color="#2C2C2C" stop-opacity="1"/>
</linearGradient>
<linearGradient x1="50.000000%" y1="0.000000%" x2="50.000000%" y2="100.000000%" id="lgradient169_0">
<stop offset="0" stop-color="#2C2C2C" stop-opacity="1"/>
<stop offset="0.5" stop-color="#FFFFFF" stop-opacity="1"/>
<stop offset="1" stop-color="#2C2C2C" stop-opacity="1"/>
</linearGradient>
<linearGradient x1="50.000000%" y1="0.000000%" x2="50.000000%" y2="100.000000%" id="lgradient169_1">
<stop offset="0" stop-color="#2C2C2C" stop-opacity="1"/>
<stop offset="0.5" stop-color="#FFFFFF" stop-opacity="1"/>
<stop offset="1" stop-color="#2C2C2C" stop-opacity="1"/>
</linearGradient>
<linearGradient x1="0.000000%" y1="50.000000%" x2="100.000000%" y2="50.000000%" id="lgradient170_0">
<stop offset="0" stop-color="#2C2C2C" stop-opacity="1"/>
<stop offset="0.5" stop-color="#FFFFFF" stop-opacity="1"/>
<stop offset="1" stop-color="#2C2C2C" stop-opacity="1"/>
</linearGradient>
<linearGradient x1="0.000000%" y1="50.000000%" x2="100.000000%" y2="50.000000%" id="lgradient170_1">
<stop offset="0" stop-color="#2C2C2C" stop-opacity="1"/>
<stop offset="0.5" stop-color="#FFFFFF" stop-opacity="1"/>
<stop offset="1" stop-color="#2C2C2C" stop-opacity="1"/>
</linearGradient>
<linearGradient x1="50.000000%" y1="0.000000%" x2="50.000000%" y2="100.000000%" id="lgradient171_0">
<stop offset="0" stop-color="#2C2C2C" stop-opacity="1"/>
<stop offset="0.5" stop-color="#FFFFFF" stop-opacity="1"/>
<stop offset="1" stop-color="#2C2C2C" stop-opacity="1"/>
</linearGradient>
<linearGradient x1="50.000000%" y1="0.000000%" x2="50.000000%" y2="100.000000%" id="lgradient171_1">
<stop offset="0" stop-color="#2C2C2C" stop-opacity="1"/>
<stop offset="0.5" stop-color="#FFFFFF" stop-opacity="1"/>
<stop offset="1" stop-color="#2C2C2C" stop-opacity="1"/>
</linearGradient>
<linearGradient x1="50.000000%" y1="0.000000%" x2="50.000000%" y2="100.000000%" id="lgradient172_0">
<stop offset="0" stop-color="#2C2C2C" stop-opacity="1"/>
<stop offset="0.5" stop-color="#FFFFFF" stop-opacity="1"/>
<stop offset="1" stop-color="#2C2C2C" stop-opacity="1"/>
</linearGradient>
<linearGradient x1="50.000000%" y1="0.000000%" x2="50.000000%" y2="100.000000%" id="lgradient172_1">
<stop offset="0" stop-color="#2C2C2C" stop-opacity="1"/>
<stop offset="0.5" stop-color="#FFFFFF" stop-opacity="1"/>
<stop offset="1" stop-color="#2C2C2C" stop-opacity="1"/>
</linearGradient>
<linearGradient x1="50.000000%" y1="0.000000%" x2="50.000000%" y2="100.000000%" id="lgradient173_0">
<stop offset="0" stop-color="#2C2C2C" stop-opacity="1"/>
<stop offset="0.5" stop-color="#FFFFFF" stop-opacity="1"/>
<stop offset="1" stop-color="#2C2C2C" stop-opacity="1"/>
</linearGradient>
<linearGradient x1="50.000000%" y1="0.000000%" x2="50.000000%" y2="100.000000%" id="lgradient173_1">
<stop offset="0" stop-color="#2C2C2C" stop-opacity="1"/>
<stop offset="0.5" stop-color="#FFFFFF" stop-opacity="1"/>
<stop offset="1" stop-color="#2C2C2C" stop-opacity="1"/>
</linearGradient>
<linearGradient x1="50.000000%" y1="0.000000%" x2="50.000000%" y2="100.000000%" id="lgradient174_0">
<stop offset="0" stop-color="#2C2C2C" stop-opacity="1"/>
<stop offset="0.5" stop-color="#FFFFFF" stop-opacity="1"/>
<stop offset="1" stop-color="#2C2C2C" stop-opacity="1"/>
</linearGradient>
<linearGradient x1="50.000000%" y1="0.000000%" x2="50.000000%" y2="100.000000%" id="lgradient174_1">
<stop offset="0" stop-color="#2C2C2C" stop-opacity="1"/>
<stop offset="0.5" stop-color="#FFFFFF" stop-opacity="1"/>
<stop offset="1" stop-color="#2C2C2C" stop-opacity="1"/>
</linearGradient>
<linearGradient x1="50.000000%" y1="0.000000%" x2="50.000000%" y2="100.000000%" id="lgradient175_0">
<stop offset="0" stop-color="#2C2C2C" stop-opacity="1"/>
<stop offset="0.5" stop-color="#FFFFFF" stop-opacity="1"/>
<stop offset="1" stop-color="#2C2C2C" stop-opacity="1"/>
</linearGradient>
<linearGradient x1="50.000000%" y1="0.000000%" x2="50.000000%" y2="100.000000%" id="lgradient175_1">
<stop offset="0" stop-color="#2C2C2C" stop-opacity="1"/>
<stop offset="0.5" stop-color="#FFFFFF" stop-opacity="1"/>
<stop offset="1" stop-color="#2C2C2C" stop-opacity="1"/>
</linearGradient>
<linearGradient x1="50.000000%" y1="0.000000%" x2="50.000000%" y2="100.000000%" id="lgradient176_0">
<stop offset="0" stop-color="#2C2C2C" stop-opacity="1"/>
<stop offset="0.5" stop-color="#FFFFFF" stop-opacity="1"/>
<stop offset="1" stop-color="#2C2C2C" stop-opacity="1"/>
</linearGradient>
<linearGradient x1="50.000000%" y1="0.000000%" x2="50.000000%" y2="100.000000%" id="lgradient176_1">
<stop offset="0" stop-color="#2C2C2C" stop-opacity="1"/>
<stop offset="0.5" stop-color="#FFFFFF" stop-opacity="1"/>
<stop offset="1" stop-color="#2C2C2C" stop-opacity="1"/>
</linearGradient>
<linearGradient x1="50.000000%" y1="0.000000%" x2="50.000000%" y2="100.000000%" id="lgradient177_0">
<stop offset="0" stop-color="#2C2C2C" stop-opacity="1"/>
<stop offset="0.5" stop-color="#FFFFFF" stop-opacity="1"/>
<stop offset="1" stop-color="#2C2C2C" stop-opacity="1"/>
</linearGradient>
<linearGradient x1="50.000000%" y1="0.000000%" x2="50.000000%" y2="100.000000%" id="lgradient177_1">
<stop offset="0" stop-color="#2C2C2C" stop-opacity="1"/>
<stop offset="0.5" stop-color="#FFFFFF" stop-opacity="1"/>
<stop offset="1" stop-color="#2C2C2C" stop-opacity="1"/>
</linearGradient>
<linearGradient x1="0.000000%" y1="50.000000%" x2="100.000000%" y2="50.000000%" id="lgradient178">
<stop offset="0" stop-color="#111111" stop-opacity="1"/>
<stop offset="0.5" stop-color="#636563" stop-opacity="1"/>
<stop offset="1" stop-color="#111111" stop-opacity="1"/>
</linearGradient>
</defs>
<rect shape-type="rectangle" x="0" y="1" width="1065" height="38" fill="#636563" stroke="#808080" stroke-width="1.00"/>
<rect shape-type="rectangle" x="282" y="3" width="500" height="33" stroke="#000000" stroke-width="1.00"/>
<text font-family="宋体" text-anchor="start" fill="#FFFFFF" shape-type="text" id="" font-size="27.500000" font-weight="bold" x="369" y="30">磷肥区低压蒸汽管网</text>
<a xlink:href="\管网\GW_ML.svg">
<g shape-type="button">
<rect fill="#C0C0C0" stroke-width="0.3" stroke="#FFFFFF" x="960" y="3" width="100" height="33" shape-type="buttonrect"/>
<text font-family="宋体" text-anchor="middle" dominant-baseline="middle" fill="#800000" font-size="13.500000" font-weight="bold" x="1010" y="26" shape-type="buttontext">返回上一级</text>
</g>
</a>
<line shape-type="limitline" x1="8" y1="85" x2="140" y2="85" fill="#00FFFF" stroke="#FFFFFF" stroke-width="3.00"/>
<line shape-type="limitline" x1="170" y1="338" x2="295" y2="338" fill="#00FFFF" stroke="#FFFFFF" stroke-width="3.00"/>
<line shape-type="limitline" x1="338" y1="338" x2="338" y2="619" fill="#00FFFF" stroke="#FFFFFF" stroke-width="3.00"/>
<line shape-type="limitline" x1="340" y1="367" x2="575" y2="367" fill="#00FFFF" stroke="#FFFFFF" stroke-width="3.00"/>
<line shape-type="limitline" x1="647" y1="543" x2="381" y2="543" fill="#00FFFF" stroke="#FFFFFF" stroke-width="3.00"/>
<line shape-type="limitline" x1="650" y1="178" x2="650" y2="627" fill="#00FFFF" stroke="#FFFFFF" stroke-width="3.00"/>
<line shape-type="line" x1="1050" y1="698" x2="649" y2="628" fill="#00FFFF" stroke="#FFFFFF" stroke-width="3.00"/>
<line shape-type="limitline" x1="1026" y1="176" x2="308" y2="176" fill="#00FFFF" stroke="#FFFFFF" stroke-width="3.00"/>
<line shape-type="line" x1="170" y1="336" x2="141" y2="86" fill="#00FFFF" stroke="#FFFFFF" stroke-width="3.00"/>
<line shape-type="limitline" x1="8" y1="106" x2="122" y2="106" fill="#00FFFF" stroke="#FFFFFF" stroke-width="3.00"/>
<line shape-type="limitline" x1="108" y1="132" x2="108" y2="108" fill="#00FFFF" stroke="#FFFFFF" stroke-width="3.00"/>
<line shape-type="limitline" x1="108" y1="132" x2="140" y2="132" fill="#00FFFF" stroke="#FFFFFF" stroke-width="3.00"/>
<line shape-type="limitline" x1="163" y1="131" x2="149" y2="131" fill="#00FFFF" stroke="#FFFFFF" stroke-width="3.00"/>
<line shape-type="limitline" x1="164" y1="131" x2="164" y2="150" fill="#00FFFF" stroke="#FFFFFF" stroke-width="3.00"/>
<line shape-type="limitline" x1="164" y1="151" x2="238" y2="151" fill="#00FFFF" stroke="#FFFFFF" stroke-width="3.00"/>
<line shape-type="limitline" x1="239" y1="176" x2="239" y2="151" fill="#00FFFF" stroke="#FFFFFF" stroke-width="3.00"/>
<line shape-type="limitline" x1="202" y1="176" x2="333" y2="176" fill="#00FFFF" stroke="#FFFFFF" stroke-width="3.00"/>
<line shape-type="limitline" x1="202" y1="171" x2="202" y2="182" fill="#00FFFF" stroke="#FFFFFF" stroke-width="3.00"/>
<line shape-type="limitline" x1="381" y1="542" x2="381" y2="698" fill="#00FFFF" stroke="#FFFFFF" stroke-width="3.00"/>
<line shape-type="limitline" x1="507" y1="368" x2="507" y2="541" fill="#00FFFF" stroke="#FFFFFF" stroke-width="3.00"/>
<line shape-type="limitline" x1="532" y1="595" x2="532" y2="543" fill="#00FFFF" stroke="#FFFFFF" stroke-width="3.00"/>
<line shape-type="limitline" x1="420" y1="366" x2="420" y2="268" fill="#00FFFF" stroke="#FFFFFF" stroke-width="3.00"/>
<line shape-type="limitline" x1="470" y1="364" x2="470" y2="176" fill="#00FFFF" stroke="#FFFFFF" stroke-width="3.00"/>
<line shape-type="limitline" x1="269" y1="416" x2="297" y2="416" fill="#00FFFF" stroke="#FFFFFF" stroke-width="3.00"/>
<line shape-type="limitline" x1="730" y1="584" x2="651" y2="584" fill="#00FFFF" stroke="#FFFFFF" stroke-width="2.00"/>
<line shape-type="limitline" x1="651" y1="454" x2="704" y2="454" fill="#00FFFF" stroke="#FFFFFF" stroke-width="2.00"/>
<line shape-type="limitline" x1="649" y1="383" x2="807" y2="383" fill="#00FFFF" stroke="#FFFFFF" stroke-width="3.00"/>
<line shape-type="limitline" x1="808" y1="406" x2="808" y2="382" fill="#00FFFF" stroke="#FFFFFF" stroke-width="3.00"/>
<line shape-type="limitline" x1="211" y1="177" x2="211" y2="324" fill="#00FFFF" stroke="#FFFFFF" stroke-width="3.00"/>
<line shape-type="limitline" x1="210" y1="324" x2="300" y2="324" fill="#00FFFF" stroke="#FFFFFF" stroke-width="3.00"/>
<line shape-type="limitline" x1="301" y1="323" x2="301" y2="470" fill="#00FFFF" stroke="#FFFFFF" stroke-width="3.00"/>
<line shape-type="limitline" x1="274" y1="323" x2="274" y2="278" fill="#00FFFF" stroke="#FFFFFF" stroke-width="3.00"/>
<line shape-type="limitline" x1="183" y1="303" x2="183" y2="433" fill="#00FFFF" stroke="#FFFFFF" stroke-width="2.00"/>
<line shape-type="limitline" x1="209" y1="302" x2="183" y2="302" fill="#00FFFF" stroke="#FFFFFF" stroke-width="2.00"/>
<line shape-type="limitline" x1="650" y1="348" x2="738" y2="348" fill="#00FFFF" stroke="#FFFFFF" stroke-width="3.00"/>
<line shape-type="limitline" x1="740" y1="347" x2="740" y2="360" fill="#00FFFF" stroke="#FFFFFF" stroke-width="3.00"/>
<line shape-type="limitline" x1="739" y1="361" x2="779" y2="361" fill="#00FFFF" stroke="#FFFFFF" stroke-width="3.00"/>
<line shape-type="limitline" x1="650" y1="319" x2="738" y2="319" fill="#00FFFF" stroke="#FFFFFF" stroke-width="3.00"/>
<line shape-type="limitline" x1="650" y1="289" x2="740" y2="289" fill="#00FFFF" stroke="#FFFFFF" stroke-width="3.00"/>
<line shape-type="limitline" x1="817" y1="177" x2="817" y2="218" fill="#00FFFF" stroke="#FFFFFF" stroke-width="3.00"/>
<line shape-type="limitline" x1="33" y1="106" x2="33" y2="141" fill="#00FFFF" stroke="#FFFFFF" stroke-width="3.00"/>
<line shape-type="limitline" x1="56" y1="106" x2="56" y2="141" fill="#00FFFF" stroke="#FFFFFF" stroke-width="3.00"/>
<line shape-type="limitline" x1="23" y1="84" x2="23" y2="106" fill="#00FFFF" stroke="#FFFFFF" stroke-width="3.00"/>
<line shape-type="limitline" x1="73" y1="103" x2="73" y2="61" fill="#00FFFF" stroke="#FFFFFF" stroke-width="3.00"/>
<line shape-type="limitline" x1="91" y1="61" x2="91" y2="83" fill="#00FFFF" stroke="#FFFFFF" stroke-width="3.00"/>
<line shape-type="limitline" x1="72" y1="60" x2="148" y2="60" fill="#00FFFF" stroke="#FFFFFF" stroke-width="3.00"/>
<line shape-type="limitline" x1="350" y1="172" x2="350" y2="137" fill="#00FFFF" stroke="#FFFFFF" stroke-width="3.00"/>
<line shape-type="limitline" x1="414" y1="175" x2="414" y2="118" fill="#00FFFF" stroke="#FFFFFF" stroke-width="3.00"/>
<polygon shape-type="trapezium" points="355,141 344,141 350,135 350,135 355,141" fill="#FFFFFF" stroke="#FFFFFF" stroke-width="1.00"/>
<polygon shape-type="trapezium" points="279,279 268,279 274,273 274,273 279,279" fill="#FFFFFF" stroke="#FFFFFF" stroke-width="1.00"/>
<polygon shape-type="trapezium" points="189,427 178,427 184,434 184,434 189,427" fill="#FFFFFF" stroke="#FFFFFF" stroke-width="1.00"/>
<text font-family="宋体" text-anchor="start" fill="#FFFFFF" shape-type="text" id="" font-size="9.500000" font-weight="bold" x="14" y="153">动力部站区</text>
<text font-family="宋体" text-anchor="start" fill="#FFFFFF" shape-type="text" id="" font-size="9.500000" font-weight="bold" x="156" y="66">大化肥</text>
<text font-family="宋体" text-anchor="start" fill="#FFFFFF" shape-type="text" id="" font-size="9.500000" font-weight="bold" x="337" y="128">浴室</text>
<text font-family="宋体" text-anchor="start" fill="#FFFFFF" shape-type="text" id="" font-size="9.500000" font-weight="bold" x="392" y="112">环己酮</text>
<text font-family="宋体" text-anchor="start" fill="#FFFFFF" shape-type="text" id="" font-size="9.500000" font-weight="bold" x="776" y="237">苯胺成品罐区</text>
<text font-family="宋体" text-anchor="start" fill="#FFFFFF" shape-type="text" id="" font-size="9.500000" font-weight="bold" x="747" y="290">苯胺污水处理</text>
<text font-family="宋体" text-anchor="start" fill="#FFFFFF" shape-type="text" id="" font-size="9.500000" font-weight="bold" x="745" y="330">环己酮污水处理</text>
<text font-family="宋体" text-anchor="start" fill="#FFFFFF" shape-type="text" id="" font-size="9.500000" font-weight="bold" x="786" y="363">废碱中和</text>
<text font-family="宋体" text-anchor="start" fill="#FFFFFF" shape-type="text" id="" font-size="9.500000" font-weight="bold" x="782" y="434">燃油加热炉</text>
<polygon shape-type="trapezium" points="732,283 732,293 739,288 739,288 732,283" fill="#FFFFFF" stroke="#FFFFFF" stroke-width="1.00"/>
<polygon shape-type="trapezium" points="822,216 811,216 817,222 817,222 822,216" fill="#FFFFFF" stroke="#FFFFFF" stroke-width="1.00"/>
<polygon shape-type="trapezium" points="732,314 732,324 739,319 739,319 732,314" fill="#FFFFFF" stroke="#FFFFFF" stroke-width="1.00"/>
<polygon shape-type="trapezium" points="773,356 773,366 780,361 780,361 773,356" fill="#FFFFFF" stroke="#FFFFFF" stroke-width="1.00"/>
<polygon shape-type="trapezium" points="813,400 802,400 808,406 808,406 813,400" fill="#FFFFFF" stroke="#FFFFFF" stroke-width="1.00"/>
<polygon shape-type="trapezium" points="699,450 699,460 706,455 706,455 699,450" fill="#FFFFFF" stroke="#FFFFFF" stroke-width="1.00"/>
<text font-family="宋体" text-anchor="start" fill="#FFFFFF" shape-type="text" id="" font-size="9.500000" font-weight="bold" x="717" y="450">污水</text>
<text font-family="宋体" text-anchor="start" fill="#FFFFFF" shape-type="text" id="" font-size="9.500000" font-weight="bold" x="717" y="467">预处</text>
<text font-family="宋体" text-anchor="start" fill="#FFFFFF" shape-type="text" id="" font-size="9.500000" font-weight="bold" x="719" y="486">理站</text>
<polygon shape-type="trapezium" points="725,579 725,589 732,584 732,584 725,579" fill="#FFFFFF" stroke="#FFFFFF" stroke-width="1.00"/>
<text font-family="宋体" text-anchor="start" fill="#FFFFFF" shape-type="text" id="" font-size="9.500000" font-weight="bold" x="741" y="586">无机罐区</text>
<text font-family="宋体" text-anchor="start" fill="#FFFFFF" shape-type="text" id="" font-size="9.500000" font-weight="bold" x="761" y="693">有机</text>
<text font-family="宋体" text-anchor="start" fill="#FFFFFF" shape-type="text" id="" font-size="9.500000" font-weight="bold" x="697" y="689">罐区一</text>
<text font-family="宋体" text-anchor="start" fill="#FFFFFF" shape-type="text" id="" font-size="9.500000" font-weight="bold" x="757" y="712">罐区二</text>
<text font-family="宋体" text-anchor="start" fill="#FFFFFF" shape-type="text" id="" font-size="9.500000" font-weight="bold" x="823" y="708">有机</text>
<text font-family="宋体" text-anchor="start" fill="#FFFFFF" shape-type="text" id="" font-size="9.500000" font-weight="bold" x="819" y="726">罐区三</text>
<text font-family="宋体" text-anchor="start" fill="#FFFFFF" shape-type="text" id="" font-size="9.500000" font-weight="bold" x="876" y="708">汽车</text>
<text font-family="宋体" text-anchor="start" fill="#FFFFFF" shape-type="text" id="" font-size="9.500000" font-weight="bold" x="871" y="725">装卸台</text>
<text font-family="宋体" text-anchor="start" fill="#FFFFFF" shape-type="text" id="" font-size="9.500000" font-weight="bold" x="948" y="706">一次盐</text>
<text font-family="宋体" text-anchor="start" fill="#FFFFFF" shape-type="text" id="" font-size="9.500000" font-weight="bold" x="948" y="720">水及原</text>
<text font-family="宋体" text-anchor="start" fill="#FFFFFF" shape-type="text" id="" font-size="9.500000" font-weight="bold" x="949" y="738">盐储运</text>
<text font-family="宋体" text-anchor="start" fill="#FFFFFF" shape-type="text" id="" font-size="9.500000" font-weight="bold" x="1013" y="726">综合污</text>
<text font-family="宋体" text-anchor="start" fill="#FFFFFF" shape-type="text" id="" font-size="9.500000" font-weight="bold" x="1013" y="741">水处理</text>
<text font-family="宋体" text-anchor="start" fill="#FFFFFF" shape-type="text" id="" font-size="9.500000" font-weight="bold" x="510" y="618">造粒厂房</text>
<text font-family="宋体" text-anchor="start" fill="#FFFFFF" shape-type="text" id="" font-size="9.500000" font-weight="bold" x="419" y="614">桶装空桶</text>
<text font-family="宋体" text-anchor="start" fill="#FFFFFF" shape-type="text" id="" font-size="9.500000" font-weight="bold" x="425" y="630">堆放区</text>
<text font-family="宋体" text-anchor="start" fill="#FFFFFF" shape-type="text" id="" font-size="9.500000" font-weight="bold" writing-mode="tb" glyph-orientation-vertical="0" x="315" y="476">磷区电厂</text>
<text font-family="宋体" text-anchor="start" fill="#FFFFFF" shape-type="text" id="" font-size="9.500000" font-weight="bold" x="532" y="523">TMQ</text>
<text font-family="宋体" text-anchor="start" fill="#FFFFFF" shape-type="text" id="" font-size="9.500000" font-weight="bold" x="529" y="449">6PPD/NA</text>
<text font-family="宋体" text-anchor="start" fill="#FFFFFF" shape-type="text" id="" font-size="9.500000" font-weight="bold" x="530" y="349">RT培司</text>
<text font-family="宋体" text-anchor="start" fill="#FFFFFF" shape-type="text" id="" font-size="9.500000" font-weight="bold" writing-mode="tb" glyph-orientation-vertical="0" x="179" y="447">硫酸装置</text>
<text font-family="宋体" text-anchor="start" fill="#FFFFFF" shape-type="text" id="" font-size="9.500000" font-weight="bold" x="221" y="417">离子膜</text>
<text font-family="宋体" text-anchor="start" fill="#FFFFFF" shape-type="text" id="" font-size="9.500000" font-weight="bold" x="225" y="438">烧碱</text>
<text font-family="宋体" text-anchor="start" fill="#FFFFFF" shape-type="text" id="" font-size="9.500000" font-weight="bold" x="346" y="392">氯化苯</text>
<text font-family="宋体" text-anchor="start" fill="#FFFFFF" shape-type="text" id="" font-size="9.500000" font-weight="bold" x="434" y="286">硝基</text>
<text font-family="宋体" text-anchor="start" fill="#FFFFFF" shape-type="text" id="" font-size="9.500000" font-weight="bold" x="434" y="306">氯苯</text>
<text font-family="宋体" text-anchor="start" fill="#FFFFFF" shape-type="text" id="" font-size="9.500000" font-weight="bold" x="238" y="264">硫基肥装置</text>
<text font-family="宋体" text-anchor="start" fill="#FFFFFF" shape-type="text" id="" font-size="9.500000" font-weight="bold" x="514" y="210">5W吨苯胺</text>
<text font-family="宋体" text-anchor="start" fill="#FFFFFF" shape-type="text" id="" font-size="9.500000" font-weight="bold" x="588" y="210">10W吨苯胺</text>
<line shape-type="limitline" x1="540" y1="177" x2="540" y2="191" fill="#00FFFF" stroke="#FFFFFF" stroke-width="3.00"/>
<line shape-type="limitline" x1="617" y1="178" x2="617" y2="192" fill="#00FFFF" stroke="#FFFFFF" stroke-width="3.00"/>
<g shape-type="group">
<rect shape-type="rectangle" x="534" y="295" width="52" height="26" fill="#4A494A" stroke="#C0C0C0" stroke-width="3.00"/>
<rect shape-type="rectangle" x="588" y="295" width="35" height="26" fill="#4A494A" stroke="#C0C0C0" stroke-width="3.00"/>
</g>
<line shape-type="limitline" x1="573" y1="321" x2="573" y2="364" fill="#00FFFF" stroke="#FFFFFF" stroke-width="3.00" stroke-dasharray="5 10"/>
<g shape-type="group">
<rect shape-type="rectangle" x="397" y="413" width="52" height="25" fill="#4A494A" stroke="#C0C0C0" stroke-width="3.00"/>
<rect shape-type="rectangle" x="450" y="413" width="36" height="25" fill="#4A494A" stroke="#C0C0C0" stroke-width="3.00"/>
</g>
<g shape-type="group">
<rect shape-type="rectangle" x="397" y="444" width="52" height="26" fill="#4A494A" stroke="#C0C0C0" stroke-width="3.00"/>
<rect shape-type="rectangle" x="450" y="444" width="36" height="26" fill="#4A494A" stroke="#C0C0C0" stroke-width="3.00"/>
</g>
<line shape-type="limitline" x1="501" y1="445" x2="522" y2="445" fill="#00FFFF" stroke="#FFFFFF" stroke-width="3.00" stroke-dasharray="5 10"/>
<line shape-type="limitline" x1="497" y1="427" x2="484" y2="427" fill="#00FFFF" stroke="#FFFFFF" stroke-width="3.00" stroke-dasharray="5 10"/>
<line shape-type="limitline" x1="499" y1="464" x2="499" y2="427" fill="#00FFFF" stroke="#FFFFFF" stroke-width="3.00" stroke-dasharray="5 10"/>
<line shape-type="limitline" x1="484" y1="463" x2="499" y2="463" fill="#00FFFF" stroke="#FFFFFF" stroke-width="3.00" stroke-dasharray="5 10"/>
<g shape-type="group">
<rect shape-type="rectangle" x="500" y="471" width="52" height="26" fill="#4A494A" stroke="#C0C0C0" stroke-width="3.00"/>
<rect shape-type="rectangle" x="553" y="471" width="36" height="26" fill="#4A494A" stroke="#C0C0C0" stroke-width="3.00"/>
</g>
<line shape-type="limitline" x1="538" y1="513" x2="538" y2="497" fill="#00FFFF" stroke="#FFFFFF" stroke-width="3.00" stroke-dasharray="5 10"/>
<g shape-type="group">
<rect shape-type="rectangle" x="941" y="591" width="52" height="26" fill="#4A494A" stroke="#C0C0C0" stroke-width="3.00"/>
<rect shape-type="rectangle" x="994" y="591" width="36" height="26" fill="#4A494A" stroke="#C0C0C0" stroke-width="3.00"/>
</g>
<line shape-type="limitline" x1="965" y1="691" x2="965" y2="620" fill="#00FFFF" stroke="#FFFFFF" stroke-width="3.00" stroke-dasharray="5 10"/>
<g shape-type="group">
<rect shape-type="rectangle" x="397" y="377" width="52" height="26" fill="#4A494A" stroke="#C0C0C0" stroke-width="3.00"/>
<rect shape-type="rectangle" x="450" y="377" width="36" height="26" fill="#4A494A" stroke="#C0C0C0" stroke-width="3.00"/>
</g>
<line shape-type="limitline" x1="381" y1="389" x2="397" y2="389" fill="#00FFFF" stroke="#FFFFFF" stroke-width="3.00" stroke-dasharray="5 10"/>
<line shape-type="limitline" x1="528" y1="518" x2="506" y2="518" fill="#00FFFF" stroke="#FFFFFF" stroke-width="2.00"/>
<polygon shape-type="trapezium" points="523,513 523,523 529,518 529,518 523,513" fill="#FFFFFF" stroke="#FFFFFF" stroke-width="1.00"/>
<polygon shape-type="trapezium" points="418,128 407,128 413,134 413,134 418,128" fill="#FFFFFF" stroke="#FFFFFF" stroke-width="1.00"/>
<g shape-type="group">
<rect shape-type="rectangle" x="496" y="126" width="52" height="26" fill="#4A494A" stroke="#C0C0C0" stroke-width="3.00"/>
<rect shape-type="rectangle" x="549" y="126" width="36" height="26" fill="#4A494A" stroke="#C0C0C0" stroke-width="3.00"/>
</g>
<line shape-type="limitline" x1="418" y1="138" x2="491" y2="138" fill="#00FFFF" stroke="#FFFFFF" stroke-width="3.00" stroke-dasharray="5 10"/>
<g shape-type="group">
<rect shape-type="rectangle" x="61" y="342" width="53" height="28" fill="#4A494A" stroke="#C0C0C0" stroke-width="3.00"/>
<rect shape-type="rectangle" x="115" y="342" width="35" height="28" fill="#4A494A" stroke="#C0C0C0" stroke-width="3.00"/>
</g>
<g shape-type="group">
<rect shape-type="rectangle" x="61" y="377" width="53" height="26" fill="#4A494A" stroke="#C0C0C0" stroke-width="3.00"/>
<rect shape-type="rectangle" x="115" y="377" width="35" height="26" fill="#4A494A" stroke="#C0C0C0" stroke-width="3.00"/>
</g>
<g shape-type="group">
<rect shape-type="rectangle" x="61" y="409" width="53" height="26" fill="#4A494A" stroke="#C0C0C0" stroke-width="3.00"/>
<rect shape-type="rectangle" x="115" y="409" width="35" height="26" fill="#4A494A" stroke="#C0C0C0" stroke-width="3.00"/>
</g>
<line shape-type="limitline" x1="184" y1="355" x2="150" y2="355" fill="#00FFFF" stroke="#FFFFFF" stroke-width="3.00" stroke-dasharray="5 10"/>
<line shape-type="limitline" x1="152" y1="388" x2="182" y2="388" fill="#00FFFF" stroke="#FFFFFF" stroke-width="3.00" stroke-dasharray="5 10"/>
<line shape-type="limitline" x1="182" y1="419" x2="150" y2="419" fill="#00FFFF" stroke="#FFFFFF" stroke-width="3.00" stroke-dasharray="5 10"/>
<line shape-type="limitline" x1="714" y1="642" x2="714" y2="675" fill="#00FFFF" stroke="#FFFFFF" stroke-width="2.00"/>
<polygon shape-type="trapezium" points="719,670 708,670 714,676 714,676 719,670" fill="#FFFFFF" stroke="#FFFFFF" stroke-width="1.00"/>
<line shape-type="limitline" x1="772" y1="648" x2="772" y2="681" fill="#00FFFF" stroke="#FFFFFF" stroke-width="2.00"/>
<polygon shape-type="trapezium" points="777,676 766,676 772,682 772,682 777,676" fill="#FFFFFF" stroke="#FFFFFF" stroke-width="1.00"/>
<line shape-type="limitline" x1="833" y1="660" x2="833" y2="693" fill="#00FFFF" stroke="#FFFFFF" stroke-width="2.00"/>
<polygon shape-type="trapezium" points="838,689 827,689 833,695 833,695 838,689" fill="#FFFFFF" stroke="#FFFFFF" stroke-width="1.00"/>
<line shape-type="limitline" x1="886" y1="670" x2="886" y2="695" fill="#00FFFF" stroke="#FFFFFF" stroke-width="2.00"/>
<polygon shape-type="trapezium" points="892,691 881,691 887,697 887,697 892,691" fill="#FFFFFF" stroke="#FFFFFF" stroke-width="1.00"/>
<line shape-type="limitline" x1="916" y1="647" x2="916" y2="672" fill="#00FFFF" stroke="#FFFFFF" stroke-width="2.00"/>
<polygon shape-type="trapezium" points="921,652 910,652 916,646 916,646 921,652" fill="#FFFFFF" stroke="#FFFFFF" stroke-width="1.00"/>
<text font-family="宋体" text-anchor="start" fill="#FFFFFF" shape-type="text" id="" font-size="9.500000" font-weight="bold" x="308" y="702">5#码头</text>
<line shape-type="limitline" x1="351" y1="698" x2="379" y2="698" fill="#00FFFF" stroke="#FFFFFF" stroke-width="2.00"/>
<polygon shape-type="trapezium" points="357,693 357,703 351,698 351,698 357,693" fill="#FFFFFF" stroke="#FFFFFF" stroke-width="1.00"/>
<g shape-type="group">
<line shape-type="limitline" x1="413" y1="615" x2="384" y2="616" fill="#00FFFF" stroke="#FFFFFF" stroke-width="2.00"/>
<polygon shape-type="trapezium" points="407,610 407,620 413,615 413,615 407,610" fill="#FFFFFF" stroke="#FFFFFF" stroke-width="1.00"/>
</g>
<polygon shape-type="trapezium" points="305,473 294,473 300,464 300,464 305,473" fill="#FFFFFF" stroke="#FFFFFF" stroke-width="1.00"/>
<line shape-type="limitline" x1="337" y1="416" x2="305" y2="416" fill="#00FFFF" stroke="#FFFFFF" stroke-width="3.00"/>
<polygon shape-type="trapezium" points="272,411 272,421 265,416 265,416 272,411" fill="#FFFFFF" stroke="#FFFFFF" stroke-width="1.00"/>
<line shape-type="limitline" x1="338" y1="339" x2="305" y2="339" fill="#00FFFF" stroke="#FFFFFF" stroke-width="3.00"/>
<line shape-type="limitline" x1="301" y1="356" x2="259" y2="356" fill="#00FFFF" stroke="#FFFFFF" stroke-width="3.00"/>
<line shape-type="limitline" x1="258" y1="337" x2="258" y2="356" fill="#00FFFF" stroke="#FFFFFF" stroke-width="3.00"/>
<line shape-type="limitline" x1="1024" y1="712" x2="1024" y2="696" fill="#00FFFF" stroke="#FFFFFF" stroke-width="2.00"/>
<polygon shape-type="trapezium" points="1029,709 1018,709 1024,715 1024,715 1029,709" fill="#FFFFFF" stroke="#FFFFFF" stroke-width="1.00"/>
<g shape-type="group">
<rect shape-type="rectangle" x="210" y="492" width="53" height="26" fill="#4A494A" stroke="#C0C0C0" stroke-width="3.00"/>
<rect shape-type="rectangle" x="264" y="492" width="35" height="26" fill="#4A494A" stroke="#C0C0C0" stroke-width="3.00"/>
</g>
<line shape-type="limitline" x1="280" y1="488" x2="280" y2="416" fill="#00FFFF" stroke="#FFFFFF" stroke-width="3.00" stroke-dasharray="5 10"/>
<text font-family="宋体" text-anchor="start" fill="#FFFFFF" shape-type="text" id="" font-size="9.500000" font-weight="bold" x="888" y="641">-10#码头</text>
<text font-family="Arial" text-anchor="start" fill="#00FFFF" shape-type="realdata" id="XHB_RT_ft311043" font-size="12.500000" x="541" y="312">XXXX</text>
<text font-family="Arial" text-anchor="start" fill="#00FFFF" shape-type="realdata" id="LLB_LS1_FI102" font-size="12.500000" x="68" y="361">XXXX</text>
<text font-family="宋体" text-anchor="start" fill="#00FF42" shape-type="text" id="" font-size="9.500000" font-weight="bold" x="122" y="359">t/h</text>
<text font-family="宋体" text-anchor="start" fill="#00FF42" shape-type="text" id="" font-size="9.500000" font-weight="bold" x="122" y="394">MPa</text>
<text font-family="宋体" text-anchor="start" fill="#00FF42" shape-type="text" id="" font-size="9.500000" font-weight="bold" x="125" y="426">℃</text>
<text font-family="Arial" text-anchor="start" fill="#00FFFF" shape-type="realdata" id="LLB_LS1_PI101" font-size="12.500000" x="67" y="393">XXXX</text>
<text font-family="Arial" text-anchor="start" fill="#00FFFF" shape-type="realdata" id="LLB_LS1_TI281" font-size="12.500000" x="68" y="426">XXXX</text>
<text font-family="Arial" text-anchor="start" fill="#00FFFF" shape-type="realdata" id="XHB_6PPD_PT35134" font-size="12.500000" x="403" y="463">XXXX</text>
<text font-family="宋体" text-anchor="start" fill="#00FF42" shape-type="text" id="" font-size="9.500000" font-weight="bold" x="122" y="394">MPa</text>
<text font-family="宋体" text-anchor="start" fill="#00FF42" shape-type="text" id="" font-size="9.500000" font-weight="bold" x="458" y="461">MPa</text>
<g shape-type="group">
<polygon shape-type="trapezium" points="811,189 821,189 816,194 816,194 811,189" fill="url(#lgradient166_0)" stroke="#808080" stroke-width="1.00"/>
<polygon shape-type="trapezium" points="811,202 821,202 816,194 816,194 811,202" fill="url(#lgradient166_1)" stroke="#808080" stroke-width="1.00"/>
</g>
<g shape-type="group">
<polygon shape-type="trapezium" points="408,152 418,152 413,157 413,157 408,152" fill="url(#lgradient167_0)" stroke="#808080" stroke-width="1.00"/>
<polygon shape-type="trapezium" points="408,164 418,164 413,157 413,157 408,164" fill="url(#lgradient167_1)" stroke="#808080" stroke-width="1.00"/>
</g>
<g shape-type="group">
<polygon shape-type="trapezium" points="345,151 355,151 350,156 350,156 345,151" fill="url(#lgradient168_0)" stroke="#808080" stroke-width="1.00"/>
<polygon shape-type="trapezium" points="345,163 355,163 350,156 350,156 345,163" fill="url(#lgradient168_1)" stroke="#808080" stroke-width="1.00"/>
</g>
<g shape-type="group">
<polygon shape-type="trapezium" points="295,434 305,434 300,438 300,438 295,434" fill="url(#lgradient169_0)" stroke="#808080" stroke-width="1.00"/>
<polygon shape-type="trapezium" points="295,445 305,445 300,438 300,438 295,445" fill="url(#lgradient169_1)" stroke="#808080" stroke-width="1.00"/>
</g>
<g shape-type="group">
<polygon shape-type="trapezium" points="270,350 270,361 276,356 276,356 270,350" fill="url(#lgradient170_0)" stroke="#808080" stroke-width="1.00"/>
<polygon shape-type="trapezium" points="285,350 285,361 276,356 276,356 285,350" fill="url(#lgradient170_1)" stroke="#808080" stroke-width="1.00"/>
</g>
<g shape-type="group">
<polygon shape-type="trapezium" points="269,294 279,294 274,300 274,300 269,294" fill="url(#lgradient171_0)" stroke="#808080" stroke-width="1.00"/>
<polygon shape-type="trapezium" points="269,307 279,307 274,300 274,300 269,307" fill="url(#lgradient171_1)" stroke="#808080" stroke-width="1.00"/>
</g>
<g shape-type="group">
<polygon shape-type="trapezium" points="103,113 113,113 108,118 108,118 103,113" fill="url(#lgradient172_0)" stroke="#808080" stroke-width="1.00"/>
<polygon shape-type="trapezium" points="103,125 113,125 108,118 108,118 103,125" fill="url(#lgradient172_1)" stroke="#808080" stroke-width="1.00"/>
</g>
<g shape-type="group">
<polygon shape-type="trapezium" points="50,119 60,119 55,124 55,124 50,119" fill="url(#lgradient173_0)" stroke="#808080" stroke-width="1.00"/>
<polygon shape-type="trapezium" points="50,131 60,131 55,124 55,124 50,131" fill="url(#lgradient173_1)" stroke="#808080" stroke-width="1.00"/>
</g>
<g shape-type="group">
<polygon shape-type="trapezium" points="27,119 38,119 32,124 32,124 27,119" fill="url(#lgradient174_0)" stroke="#808080" stroke-width="1.00"/>
<polygon shape-type="trapezium" points="27,131 38,131 32,124 32,124 27,131" fill="url(#lgradient174_1)" stroke="#808080" stroke-width="1.00"/>
</g>
<g shape-type="group">
<polygon shape-type="trapezium" points="18,89 28,89 23,94 23,94 18,89" fill="url(#lgradient175_0)" stroke="#808080" stroke-width="1.00"/>
<polygon shape-type="trapezium" points="18,101 28,101 23,94 23,94 18,101" fill="url(#lgradient175_1)" stroke="#808080" stroke-width="1.00"/>
</g>
<g shape-type="group">
<polygon shape-type="trapezium" points="67,89 77,89 72,94 72,94 67,89" fill="url(#lgradient176_0)" stroke="#808080" stroke-width="1.00"/>
<polygon shape-type="trapezium" points="67,101 77,101 72,94 72,94 67,101" fill="url(#lgradient176_1)" stroke="#808080" stroke-width="1.00"/>
</g>
<g shape-type="group">
<polygon shape-type="trapezium" points="85,67 95,67 90,72 90,72 85,67" fill="url(#lgradient177_0)" stroke="#808080" stroke-width="1.00"/>
<polygon shape-type="trapezium" points="85,79 95,79 90,72 90,72 85,79" fill="url(#lgradient177_1)" stroke="#808080" stroke-width="1.00"/>
</g>
<rect shape-type="rectangle" x="0" y="756" width="1066" height="44" fill="url(#lgradient178)" stroke="#636563" stroke-width="1.00"/>
<a xlink:href="氮肥区低压蒸汽管网.svg">
<g shape-type="button">
<rect fill="#C0C0C0" stroke-width="0.3" stroke="#FFFFFF" x="15" y="761" width="134" height="33" shape-type="buttonrect"/>
<text font-family="宋体" text-anchor="middle" dominant-baseline="middle" fill="#000000" font-size="12.000000" x="82" y="783" shape-type="buttontext">氮肥区低压蒸汽管网</text>
</g>
</a>
<a xlink:href="氮肥区中压蒸汽管网.svg">
<g shape-type="button">
<rect fill="#C0C0C0" stroke-width="0.3" stroke="#FFFFFF" x="167" y="761" width="132" height="33" shape-type="buttonrect"/>
<text font-family="宋体" text-anchor="middle" dominant-baseline="middle" fill="#000000" font-size="12.000000" x="233" y="783" shape-type="buttontext">氮肥区中压蒸汽管网</text>
</g>
</a>
<a xlink:href="磷肥区低压蒸汽管网.svg">
<g shape-type="button">
<rect fill="#C0C0C0" stroke-width="0.3" stroke="#FFFFFF" x="317" y="761" width="134" height="33" shape-type="buttonrect"/>
<text font-family="宋体" text-anchor="middle" dominant-baseline="middle" fill="#000000" font-size="12.000000" x="384" y="783" shape-type="buttontext">磷肥区低压蒸汽管网</text>
</g>
</a>
<a xlink:href="磷肥区中压蒸汽管网.svg">
<g shape-type="button">
<rect fill="#C0C0C0" stroke-width="0.3" stroke="#FFFFFF" x="469" y="761" width="134" height="33" shape-type="buttonrect"/>
<text font-family="宋体" text-anchor="middle" dominant-baseline="middle" fill="#000000" font-size="12.000000" x="536" y="783" shape-type="buttontext">磷肥区中压蒸汽管网</text>
</g>
</a>
<a xlink:href="氢气管网.svg">
<g shape-type="button">
<rect fill="#C0C0C0" stroke-width="0.3" stroke="#FFFFFF" x="619" y="761" width="134" height="33" shape-type="buttonrect"/>
<text font-family="宋体" text-anchor="middle" dominant-baseline="middle" fill="#000000" font-size="12.000000" x="686" y="783" shape-type="buttontext">氢气管网</text>
</g>
</a>
<a xlink:href="氮气管网.svg">
<g shape-type="button">
<rect fill="#C0C0C0" stroke-width="0.3" stroke="#FFFFFF" x="771" y="761" width="134" height="33" shape-type="buttonrect"/>
<text font-family="宋体" text-anchor="middle" dominant-baseline="middle" fill="#000000" font-size="12.000000" x="838" y="783" shape-type="buttontext">氮气管网</text>
</g>
</a>
<g shape-type="group">
<rect shape-type="rectangle" x="479" y="216" width="52" height="26" fill="#4A494A" stroke="#C0C0C0" stroke-width="3.00"/>
<rect shape-type="rectangle" x="532" y="216" width="36" height="26" fill="#4A494A" stroke="#C0C0C0" stroke-width="3.00"/>
</g>
<g shape-type="group">
<rect shape-type="rectangle" x="576" y="215" width="52" height="26" fill="#4A494A" stroke="#C0C0C0" stroke-width="3.00"/>
<rect shape-type="rectangle" x="629" y="215" width="36" height="26" fill="#4A494A" stroke="#C0C0C0" stroke-width="3.00"/>
</g>
<text font-family="宋体" text-anchor="start" fill="#00FF42" shape-type="text" id="" font-size="9.500000" font-weight="bold" x="637" y="231">t/h</text>
<text font-family="宋体" text-anchor="start" fill="#00FF42" shape-type="text" id="" font-size="9.500000" font-weight="bold" x="537" y="233">kg/h</text>
<text font-family="Arial" text-anchor="start" fill="#00FFFF" shape-type="realdata" id="BHGB_BA1_FT_1214" font-size="12.500000" x="485" y="233">XXXX</text>
<text font-family="Arial" text-anchor="start" fill="#00FFFF" shape-type="realdata" id="BHGB_BA2_FIQ_0621" font-size="12.500000" x="581" y="231">XXXX</text>
<text font-family="Arial" text-anchor="start" fill="#00FFFF" shape-type="realdata" id="LJB_LHB_FT55202" font-size="12.500000" x="403" y="395">XXXX</text>
<text font-family="宋体" text-anchor="start" fill="#00FF42" shape-type="text" id="" font-size="9.500000" font-weight="bold" x="458" y="393">t/h</text>
<text font-family="宋体" text-anchor="start" fill="#00FF42" shape-type="text" id="" font-size="9.500000" font-weight="bold" x="458" y="429">t/h</text>
<text font-family="Arial" text-anchor="start" fill="#00FFFF" shape-type="realdata" id="XHB_6PPD_FT35114" font-size="12.500000" x="404" y="432">XXXX</text>
<text font-family="Arial" text-anchor="start" fill="#00FFFF" shape-type="realdata" id="XHB_RD_FT33122" font-size="12.500000" x="506" y="488">XXXX</text>
<text font-family="宋体" text-anchor="start" fill="#00FF42" shape-type="text" id="" font-size="9.500000" font-weight="bold" x="564" y="486">t/h</text>
<text font-family="宋体" text-anchor="start" fill="#00FF42" shape-type="text" id="" font-size="9.500000" font-weight="bold" x="558" y="143">t/h</text>
<text font-family="Arial" text-anchor="start" fill="#00FFFF" shape-type="realdata" id="BHGB_HJT1_FT_00002" font-size="12.500000" x="503" y="142">XXXX</text>
<text font-family="Arial" text-anchor="start" fill="#00FFFF" shape-type="realdata" id="LJB_YCYS_FT_85109" font-size="12.500000" x="948" y="608">XXXX</text>
<text font-family="宋体" text-anchor="start" fill="#00FF42" shape-type="text" id="" font-size="9.500000" font-weight="bold" x="1000" y="606">t/h</text>
<text font-family="Arial" text-anchor="start" fill="#00FFFF" shape-type="realdata" id="LJB_LZM_FT55111" font-size="12.500000" x="217" y="509">XXXX</text>
<text font-family="宋体" text-anchor="start" fill="#00FF42" shape-type="text" id="" font-size="9.500000" font-weight="bold" x="272" y="510">t/h</text>
<line shape-type="limitline" x1="339" y1="620" x2="277" y2="620" fill="#00FFFF" stroke="#FFFFFF" stroke-width="3.00"/>
<polygon shape-type="trapezium" points="277,614 277,624 271,619 271,619 277,614" fill="#FFFFFF" stroke="#FFFFFF" stroke-width="1.00"/>
<text font-family="宋体" text-anchor="start" fill="#FFFFFF" shape-type="text" id="" font-size="9.500000" font-weight="bold" x="185" y="623">10万吨环己酮</text>
<g shape-type="group">
<rect shape-type="rectangle" x="225" y="571" width="52" height="26" fill="#4A494A" stroke="#C0C0C0" stroke-width="3.00"/>
<rect shape-type="rectangle" x="278" y="571" width="36" height="26" fill="#4A494A" stroke="#C0C0C0" stroke-width="3.00"/>
</g>
<text font-family="宋体" text-anchor="start" fill="#00FF42" shape-type="text" id="" font-size="9.500000" font-weight="bold" x="284" y="586">t/h</text>
<text font-family="Arial" text-anchor="start" fill="#00FFFF" shape-type="realdata" id="BHG_HJT2_FI12015" font-size="12.500000" x="232" y="588">XXXX</text>
<line shape-type="limitline" x1="293" y1="614" x2="293" y2="598" fill="#00FFFF" stroke="#FFFFFF" stroke-width="3.00" stroke-dasharray="5 10"/>
<line shape-type="limitline" x1="437" y1="294" x2="421" y2="294" fill="#00FFFF" stroke="#FFFFFF" stroke-width="3.00" stroke-dasharray="5 10"/>
<text font-family="宋体" text-anchor="start" fill="#00FF42" shape-type="text" id="" font-size="9.500000" font-weight="bold" x="595" y="312">t/h</text>
</svg>
