<?xml version="1.0"?>
<?xml-stylesheet type='text/javascript'?>
<!--Draw SVG: 2019-11-25 09:41:26 47-Monday-->
<svg xmlns="http://www.w3.org/2000/svg" xmlns:xlink="http://www.w3.org/1999/xlink" version="1.1" style="background-color:#000000" width="1065" height="800" viewbox="0 0 1065 800">
<defs>
<linearGradient x1="0.000000%" y1="50.000000%" x2="100.000000%" y2="50.000000%" id="lgradient7_0_0_0">
<stop offset="0" stop-color="#4D4D4D" stop-opacity="1"/>
<stop offset="0.5" stop-color="#FFFFFF" stop-opacity="1"/>
<stop offset="1" stop-color="#4D4D4D" stop-opacity="1"/>
</linearGradient>
<linearGradient x1="0.000000%" y1="50.000000%" x2="100.000000%" y2="50.000000%" id="lgradient7_0_0_1">
<stop offset="0" stop-color="#4C4C4C" stop-opacity="1"/>
<stop offset="0.5" stop-color="#FFFFFF" stop-opacity="1"/>
<stop offset="1" stop-color="#4C4C4C" stop-opacity="1"/>
</linearGradient>
<linearGradient x1="0.000000%" y1="50.000000%" x2="100.000000%" y2="50.000000%" id="lgradient7_0_1">
<stop offset="0" stop-color="#626262" stop-opacity="1"/>
<stop offset="0.5" stop-color="#C0C0C0" stop-opacity="1"/>
<stop offset="1" stop-color="#626262" stop-opacity="1"/>
</linearGradient>
<linearGradient x1="0.000000%" y1="50.000000%" x2="100.000000%" y2="50.000000%" id="lgradient8_0_0_0">
<stop offset="0" stop-color="#4D4D4D" stop-opacity="1"/>
<stop offset="0.5" stop-color="#FFFFFF" stop-opacity="1"/>
<stop offset="1" stop-color="#4D4D4D" stop-opacity="1"/>
</linearGradient>
<linearGradient x1="0.000000%" y1="50.000000%" x2="100.000000%" y2="50.000000%" id="lgradient8_0_0_1">
<stop offset="0" stop-color="#4C4C4C" stop-opacity="1"/>
<stop offset="0.5" stop-color="#FFFFFF" stop-opacity="1"/>
<stop offset="1" stop-color="#4C4C4C" stop-opacity="1"/>
</linearGradient>
<linearGradient x1="0.000000%" y1="50.000000%" x2="100.000000%" y2="50.000000%" id="lgradient8_0_1">
<stop offset="0" stop-color="#626262" stop-opacity="1"/>
<stop offset="0.5" stop-color="#C0C0C0" stop-opacity="1"/>
<stop offset="1" stop-color="#626262" stop-opacity="1"/>
</linearGradient>
<linearGradient x1="0.000000%" y1="50.000000%" x2="100.000000%" y2="50.000000%" id="lgradient9_0_0_0">
<stop offset="0" stop-color="#4D4D4D" stop-opacity="1"/>
<stop offset="0.5" stop-color="#FFFFFF" stop-opacity="1"/>
<stop offset="1" stop-color="#4D4D4D" stop-opacity="1"/>
</linearGradient>
<linearGradient x1="0.000000%" y1="50.000000%" x2="100.000000%" y2="50.000000%" id="lgradient9_0_0_1">
<stop offset="0" stop-color="#4C4C4C" stop-opacity="1"/>
<stop offset="0.5" stop-color="#FFFFFF" stop-opacity="1"/>
<stop offset="1" stop-color="#4C4C4C" stop-opacity="1"/>
</linearGradient>
<linearGradient x1="0.000000%" y1="50.000000%" x2="100.000000%" y2="50.000000%" id="lgradient9_0_1">
<stop offset="0" stop-color="#626262" stop-opacity="1"/>
<stop offset="0.5" stop-color="#C0C0C0" stop-opacity="1"/>
<stop offset="1" stop-color="#626262" stop-opacity="1"/>
</linearGradient>
<linearGradient x1="0.000000%" y1="50.000000%" x2="100.000000%" y2="50.000000%" id="lgradient10_0_0_0">
<stop offset="0" stop-color="#4D4D4D" stop-opacity="1"/>
<stop offset="0.5" stop-color="#FFFFFF" stop-opacity="1"/>
<stop offset="1" stop-color="#4D4D4D" stop-opacity="1"/>
</linearGradient>
<linearGradient x1="0.000000%" y1="50.000000%" x2="100.000000%" y2="50.000000%" id="lgradient10_0_0_1">
<stop offset="0" stop-color="#4C4C4C" stop-opacity="1"/>
<stop offset="0.5" stop-color="#FFFFFF" stop-opacity="1"/>
<stop offset="1" stop-color="#4C4C4C" stop-opacity="1"/>
</linearGradient>
<linearGradient x1="0.000000%" y1="50.000000%" x2="100.000000%" y2="50.000000%" id="lgradient10_0_1">
<stop offset="0" stop-color="#626262" stop-opacity="1"/>
<stop offset="0.5" stop-color="#C0C0C0" stop-opacity="1"/>
<stop offset="1" stop-color="#626262" stop-opacity="1"/>
</linearGradient>
<linearGradient x1="0.000000%" y1="50.000000%" x2="100.000000%" y2="50.000000%" id="lgradient11_0_0_0">
<stop offset="0" stop-color="#4D4D4D" stop-opacity="1"/>
<stop offset="0.5" stop-color="#FFFFFF" stop-opacity="1"/>
<stop offset="1" stop-color="#4D4D4D" stop-opacity="1"/>
</linearGradient>
<linearGradient x1="0.000000%" y1="50.000000%" x2="100.000000%" y2="50.000000%" id="lgradient11_0_0_1">
<stop offset="0" stop-color="#4C4C4C" stop-opacity="1"/>
<stop offset="0.5" stop-color="#FFFFFF" stop-opacity="1"/>
<stop offset="1" stop-color="#4C4C4C" stop-opacity="1"/>
</linearGradient>
<linearGradient x1="0.000000%" y1="50.000000%" x2="100.000000%" y2="50.000000%" id="lgradient11_0_1">
<stop offset="0" stop-color="#626262" stop-opacity="1"/>
<stop offset="0.5" stop-color="#C0C0C0" stop-opacity="1"/>
<stop offset="1" stop-color="#626262" stop-opacity="1"/>
</linearGradient>
<linearGradient x1="0.000000%" y1="50.000000%" x2="100.000000%" y2="50.000000%" id="lgradient12_0">
<stop offset="0" stop-color="#2C2C2C" stop-opacity="1"/>
<stop offset="0.5" stop-color="#FFFFFF" stop-opacity="1"/>
<stop offset="1" stop-color="#2C2C2C" stop-opacity="1"/>
</linearGradient>
<linearGradient x1="0.000000%" y1="50.000000%" x2="100.000000%" y2="50.000000%" id="lgradient12_1">
<stop offset="0" stop-color="#2C2C2C" stop-opacity="1"/>
<stop offset="0.5" stop-color="#FFFFFF" stop-opacity="1"/>
<stop offset="1" stop-color="#2C2C2C" stop-opacity="1"/>
</linearGradient>
<linearGradient x1="0.000000%" y1="50.000000%" x2="100.000000%" y2="50.000000%" id="lgradient44_0">
<stop offset="0" stop-color="#2C2C2C" stop-opacity="1"/>
<stop offset="0.5" stop-color="#FFFFFF" stop-opacity="1"/>
<stop offset="1" stop-color="#2C2C2C" stop-opacity="1"/>
</linearGradient>
<linearGradient x1="0.000000%" y1="50.000000%" x2="100.000000%" y2="50.000000%" id="lgradient44_1">
<stop offset="0" stop-color="#2C2C2C" stop-opacity="1"/>
<stop offset="0.5" stop-color="#FFFFFF" stop-opacity="1"/>
<stop offset="1" stop-color="#2C2C2C" stop-opacity="1"/>
</linearGradient>
<linearGradient x1="0.000000%" y1="50.000000%" x2="100.000000%" y2="50.000000%" id="lgradient72">
<stop offset="0" stop-color="#111111" stop-opacity="1"/>
<stop offset="0.5" stop-color="#636563" stop-opacity="1"/>
<stop offset="1" stop-color="#111111" stop-opacity="1"/>
</linearGradient>
</defs>
<line shape-type="limitline" x1="269" y1="297" x2="974" y2="297" fill="#00FFFF" stroke="#0000FF" stroke-width="3.00"/>
<line shape-type="limitline" x1="269" y1="541" x2="757" y2="541" fill="#00FFFF" stroke="#0000FF" stroke-width="3.00"/>
<line shape-type="limitline" x1="270" y1="419" x2="43" y2="419" fill="#00FFFF" stroke="#0000FF" stroke-width="3.00"/>
<rect shape-type="rectangle" x="-1" y="0" width="1065" height="38" fill="#636563" stroke="#808080" stroke-width="1.00"/>
<rect shape-type="rectangle" x="281" y="2" width="500" height="33" stroke="#000000" stroke-width="1.00"/>
<text font-family="宋体" text-anchor="start" fill="#FFFFFF" shape-type="text" id="" font-size="26.750000" font-weight="bold" x="403" y="28">天然气调压撬站</text>
<g shape-type="group">
<g shape-type="group">
<g shape-type="group">
<polygon shape-type="trapezium" points="72,428 72,410 91,419 91,419 72,428" fill="url(#lgradient7_0_0_0)" stroke="#000000" stroke-width="2.00"/>
<polygon shape-type="trapezium" points="108,428 108,410 91,419 91,419 108,428" fill="url(#lgradient7_0_0_1)" stroke="#000000" stroke-width="2.00"/>
</g>
<rect shape-type="rectangle" x="86" y="402" width="9" height="16" fill="url(#lgradient7_0_1)" stroke-width="1.00"/>
</g>
<path shape-type="chord" d="M 112,405 A 23,40 0 0,0 74,405 z" fill="#C0C0C0" stroke="#808080" stroke-width="1.00"/>
</g>
<g shape-type="group">
<g shape-type="group">
<g shape-type="group">
<polygon shape-type="trapezium" points="542,549 542,531 560,540 560,540 542,549" fill="url(#lgradient8_0_0_0)" stroke="#000000" stroke-width="2.00"/>
<polygon shape-type="trapezium" points="578,549 578,531 560,540 560,540 578,549" fill="url(#lgradient8_0_0_1)" stroke="#000000" stroke-width="2.00"/>
</g>
<rect shape-type="rectangle" x="556" y="523" width="9" height="16" fill="url(#lgradient8_0_1)" stroke-width="1.00"/>
</g>
<path shape-type="chord" d="M 581,525 A 23,41 0 0,0 544,525 z" fill="#C0C0C0" stroke="#808080" stroke-width="1.00"/>
</g>
<g shape-type="group">
<g shape-type="group">
<g shape-type="group">
<polygon shape-type="trapezium" points="656,550 656,532 675,541 675,541 656,550" fill="url(#lgradient9_0_0_0)" stroke="#000000" stroke-width="2.00"/>
<polygon shape-type="trapezium" points="693,550 693,532 675,541 675,541 693,550" fill="url(#lgradient9_0_0_1)" stroke="#000000" stroke-width="2.00"/>
</g>
<rect shape-type="rectangle" x="671" y="524" width="8" height="16" fill="url(#lgradient9_0_1)" stroke-width="1.00"/>
</g>
<path shape-type="chord" d="M 696,526 A 23,41 0 0,0 658,526 z" fill="#C0C0C0" stroke="#808080" stroke-width="1.00"/>
</g>
<g shape-type="group">
<g shape-type="group">
<g shape-type="group">
<polygon shape-type="trapezium" points="543,306 543,289 563,297 563,297 543,306" fill="url(#lgradient10_0_0_0)" stroke="#000000" stroke-width="2.00"/>
<polygon shape-type="trapezium" points="580,306 580,289 563,297 563,297 580,306" fill="url(#lgradient10_0_0_1)" stroke="#000000" stroke-width="2.00"/>
</g>
<rect shape-type="rectangle" x="557" y="279" width="9" height="17" fill="url(#lgradient10_0_1)" stroke-width="1.00"/>
</g>
<path shape-type="chord" d="M 584,282 A 24,41 0 0,0 545,282 z" fill="#C0C0C0" stroke="#808080" stroke-width="1.00"/>
</g>
<g shape-type="group">
<g shape-type="group">
<g shape-type="group">
<polygon shape-type="trapezium" points="659,305 659,288 678,296 678,296 659,305" fill="url(#lgradient11_0_0_0)" stroke="#000000" stroke-width="2.00"/>
<polygon shape-type="trapezium" points="696,305 696,288 678,296 678,296 696,305" fill="url(#lgradient11_0_0_1)" stroke="#000000" stroke-width="2.00"/>
</g>
<rect shape-type="rectangle" x="674" y="278" width="8" height="17" fill="url(#lgradient11_0_1)" stroke-width="1.00"/>
</g>
<path shape-type="chord" d="M 699,281 A 23,41 0 0,0 661,281 z" fill="#C0C0C0" stroke="#808080" stroke-width="1.00"/>
</g>
<g shape-type="group">
<rect shape-type="roundRectangle" rx="20" ry="20" x="422" y="269" width="58" height="63" fill="url(#lgradient12_0)" stroke="#000000" stroke-width="1.00"/>
<rect shape-type="rectangle" x="422" y="231" width="58" height="86" fill="url(#lgradient12_1)" stroke="#000000" stroke-width="1.00"/>
</g>
<line shape-type="limitline" x1="270" y1="540" x2="270" y2="297" fill="#00FFFF" stroke="#0000FF" stroke-width="3.00"/>
<line shape-type="limitline" x1="759" y1="541" x2="759" y2="298" fill="#00FFFF" stroke="#0000FF" stroke-width="3.00"/>
<line shape-type="limitline" x1="921" y1="251" x2="921" y2="295" fill="#00FFFF" stroke="#0000FF" stroke-width="3.00"/>
<line shape-type="limitline" x1="972" y1="251" x2="921" y2="251" fill="#00FFFF" stroke="#0000FF" stroke-width="3.00"/>
<g shape-type="group">
<rect shape-type="rectangle" x="967" y="246" width="11" height="7" fill="#0000FF" stroke="#0000FF" stroke-width="1.00"/>
<polygon shape-type="trapezium" points="977,243 977,256 985,250 985,250 977,243" fill="#0000FF" stroke="#0000FF" stroke-width="1.00"/>
</g>
<g shape-type="group">
<rect shape-type="rectangle" x="967" y="293" width="11" height="7" fill="#0000FF" stroke="#0000FF" stroke-width="1.00"/>
<polygon shape-type="trapezium" points="977,290 977,303 985,297 985,297 977,290" fill="#0000FF" stroke="#0000FF" stroke-width="1.00"/>
</g>
<rect shape-type="rectangle" x="144" y="364" width="62" height="26" fill="#4A494A" stroke="#C0C0C0" stroke-width="3.00"/>
<rect shape-type="rectangle" x="206" y="364" width="37" height="26" fill="#4A494A" stroke="#C0C0C0" stroke-width="3.00"/>
<text font-family="宋体" text-anchor="start" fill="#00FF42" shape-type="text" id="" font-size="9.500000" font-weight="bold" x="214" y="379">MPa</text>
<rect shape-type="rectangle" x="406" y="448" width="62" height="26" fill="#4A494A" stroke="#C0C0C0" stroke-width="3.00"/>
<rect shape-type="rectangle" x="468" y="448" width="37" height="26" fill="#4A494A" stroke="#C0C0C0" stroke-width="3.00"/>
<text font-family="宋体" text-anchor="start" fill="#00FF42" shape-type="text" id="" font-size="9.500000" font-weight="bold" x="476" y="463">KPa</text>
<rect shape-type="rectangle" x="298" y="570" width="62" height="26" fill="#4A494A" stroke="#C0C0C0" stroke-width="3.00"/>
<rect shape-type="rectangle" x="360" y="570" width="37" height="26" fill="#4A494A" stroke="#C0C0C0" stroke-width="3.00"/>
<text font-family="宋体" text-anchor="start" fill="#00FF42" shape-type="text" id="" font-size="9.500000" font-weight="bold" x="374" y="585">%</text>
<rect shape-type="rectangle" x="143" y="445" width="62" height="26" fill="#4A494A" stroke="#C0C0C0" stroke-width="3.00"/>
<rect shape-type="rectangle" x="205" y="445" width="37" height="26" fill="#4A494A" stroke="#C0C0C0" stroke-width="3.00"/>
<text font-family="宋体" text-anchor="start" fill="#00FF42" shape-type="text" id="" font-size="9.500000" font-weight="bold" x="216" y="461">℃</text>
<rect shape-type="rectangle" x="683" y="207" width="62" height="26" fill="#4A494A" stroke="#C0C0C0" stroke-width="3.00"/>
<rect shape-type="rectangle" x="745" y="207" width="37" height="26" fill="#4A494A" stroke="#C0C0C0" stroke-width="3.00"/>
<text font-family="宋体" text-anchor="start" fill="#00FF42" shape-type="text" id="" font-size="9.500000" font-weight="bold" x="759" y="222">%</text>
<g shape-type="group">
<rect shape-type="rectangle" x="818" y="284" width="27" height="19" fill="#808080" stroke="#FFFFFF" stroke-width="1.00"/>
<line shape-type="line" x1="840" y1="294" x2="819" y2="285" fill="#00FFFF" stroke="#FFFFFF" stroke-width="1.00"/>
<line shape-type="line" x1="841" y1="294" x2="818" y2="303" fill="#00FFFF" stroke="#FFFFFF" stroke-width="1.00"/>
</g>
<rect shape-type="rectangle" x="406" y="191" width="62" height="26" fill="#4A494A" stroke="#C0C0C0" stroke-width="3.00"/>
<rect shape-type="rectangle" x="468" y="191" width="37" height="26" fill="#4A494A" stroke="#C0C0C0" stroke-width="3.00"/>
<text font-family="宋体" text-anchor="start" fill="#00FF42" shape-type="text" id="" font-size="9.500000" font-weight="bold" x="476" y="206">KPa</text>
<rect shape-type="rectangle" x="772" y="331" width="62" height="26" fill="#4A494A" stroke="#C0C0C0" stroke-width="3.00"/>
<rect shape-type="rectangle" x="834" y="331" width="37" height="26" fill="#4A494A" stroke="#C0C0C0" stroke-width="3.00"/>
<text font-family="宋体" text-anchor="start" fill="#00FF42" shape-type="text" id="" font-size="9.500000" font-weight="bold" x="842" y="346">MPa</text>
<rect shape-type="rectangle" x="886" y="330" width="62" height="26" fill="#4A494A" stroke="#C0C0C0" stroke-width="3.00"/>
<rect shape-type="rectangle" x="948" y="330" width="37" height="26" fill="#4A494A" stroke="#C0C0C0" stroke-width="3.00"/>
<text font-family="宋体" text-anchor="start" fill="#00FF42" shape-type="text" id="" font-size="9.500000" font-weight="bold" x="959" y="346">℃</text>
<g shape-type="group">
<rect shape-type="roundRectangle" rx="20" ry="20" x="422" y="526" width="58" height="64" fill="url(#lgradient44_0)" stroke="#000000" stroke-width="1.00"/>
<rect shape-type="rectangle" x="422" y="489" width="58" height="85" fill="url(#lgradient44_1)" stroke="#000000" stroke-width="1.00"/>
</g>
<line shape-type="limitline" x1="177" y1="390" x2="177" y2="418" fill="#00FFFF" stroke="#FFFFFF" stroke-width="3.00" stroke-dasharray="5 10"/>
<line shape-type="limitline" x1="213" y1="441" x2="213" y2="420" fill="#00FFFF" stroke="#FFFFFF" stroke-width="3.00" stroke-dasharray="5 10"/>
<line shape-type="limitline" x1="410" y1="542" x2="410" y2="473" fill="#00FFFF" stroke="#FFFFFF" stroke-width="3.00" stroke-dasharray="5 10"/>
<line shape-type="limitline" x1="492" y1="541" x2="492" y2="476" fill="#00FFFF" stroke="#FFFFFF" stroke-width="3.00" stroke-dasharray="5 10"/>
<line shape-type="limitline" x1="408" y1="217" x2="408" y2="295" fill="#00FFFF" stroke="#FFFFFF" stroke-width="3.00" stroke-dasharray="5 10"/>
<line shape-type="limitline" x1="491" y1="296" x2="491" y2="219" fill="#00FFFF" stroke="#FFFFFF" stroke-width="3.00" stroke-dasharray="5 10"/>
<line shape-type="limitline" x1="327" y1="564" x2="327" y2="542" fill="#00FFFF" stroke="#FFFFFF" stroke-width="3.00" stroke-dasharray="5 10"/>
<line shape-type="limitline" x1="726" y1="299" x2="726" y2="233" fill="#00FFFF" stroke="#FFFFFF" stroke-width="3.00" stroke-dasharray="5 10"/>
<rect shape-type="rectangle" x="815" y="206" width="62" height="26" fill="#4A494A" stroke="#C0C0C0" stroke-width="3.00"/>
<rect shape-type="rectangle" x="877" y="206" width="37" height="26" fill="#4A494A" stroke="#C0C0C0" stroke-width="3.00"/>
<text font-family="宋体" text-anchor="start" fill="#00FF42" shape-type="text" id="" font-size="9.500000" font-weight="bold" x="879" y="222">Nm3/h</text>
<line shape-type="limitline" x1="834" y1="280" x2="834" y2="234" fill="#00FFFF" stroke="#FFFFFF" stroke-width="3.00" stroke-dasharray="5 10"/>
<line shape-type="limitline" x1="863" y1="331" x2="863" y2="298" fill="#00FFFF" stroke="#FFFFFF" stroke-width="3.00" stroke-dasharray="5 10"/>
<line shape-type="limitline" x1="907" y1="330" x2="907" y2="300" fill="#00FFFF" stroke="#FFFFFF" stroke-width="3.00" stroke-dasharray="5 10"/>
<text font-family="宋体" text-anchor="start" fill="#FFFFFF" shape-type="text" id="" font-size="10.250000" font-weight="bold" x="15" y="449">FROM天然气总管</text>
<text font-family="宋体" text-anchor="start" fill="#FFFFFF" shape-type="text" id="" font-size="10.250000" font-weight="bold" x="952" y="286">TO长明等</text>
<text font-family="宋体" text-anchor="start" fill="#FFFFFF" shape-type="text" id="" font-size="10.250000" font-weight="bold" x="951" y="236">TO各运行部用户</text>
<g shape-type="group">
<rect shape-type="rectangle" x="28" y="416" width="12" height="6" fill="#0000FF" stroke="#0000FF" stroke-width="1.00"/>
<polygon shape-type="trapezium" points="39,413 39,425 46,419 46,419 39,413" fill="#0000FF" stroke="#0000FF" stroke-width="1.00"/>
</g>
<text font-family="Arial" text-anchor="start" fill="#00FFFF" shape-type="realdata" id="HCAB_PSA_PIA_93001" font-size="12.500000" x="148" y="382">XXXX</text>
<text font-family="Arial" text-anchor="start" fill="#00FFFF" shape-type="realdata" id="HCAB_PSA_TIA_93001" font-size="12.500000" x="147" y="461">XXXX</text>
<text font-family="Arial" text-anchor="start" fill="#00FFFF" shape-type="realdata" id="HCAB_PSA_PDT_93014" font-size="12.500000" x="410" y="208">XXXX</text>
<text font-family="Arial" text-anchor="start" fill="#00FFFF" shape-type="realdata" id="HCAB_PSA_PDT_93015" font-size="12.500000" x="410" y="464">XXXX</text>
<text font-family="Arial" text-anchor="start" fill="#00FFFF" shape-type="realdata" id="HCAB_PSA_GT_93001" font-size="12.500000" x="302" y="587">XXXX</text>
<text font-family="Arial" text-anchor="start" fill="#00FFFF" shape-type="realdata" id="HCAB_PSA_GT_93002" font-size="13.250000" x="687" y="224">XXXX</text>
<text font-family="Arial" text-anchor="start" fill="#00FFFF" shape-type="realdata" id="HCAB_PSA_FT_93001" font-size="12.500000" x="819" y="223">XXXX</text>
<text font-family="Arial" text-anchor="start" fill="#00FFFF" shape-type="realdata" id="HCAB_PSA_PIA_93002" font-size="12.500000" x="776" y="348">XXXX</text>
<text font-family="Arial" text-anchor="start" fill="#00FFFF" shape-type="realdata" id="HCAB_PSA_TIA_93002" font-size="12.500000" x="891" y="346">XXXX</text>
<rect shape-type="rectangle" x="0" y="756" width="1066" height="44" fill="url(#lgradient72)" stroke="#636563" stroke-width="1.00"/>
<a xlink:href="PSA1.svg">
<g shape-type="button">
<rect fill="#C0C0C0" stroke-width="0.3" stroke="#FFFFFF" x="15" y="760" width="118" height="31" shape-type="buttonrect"/>
<text font-family="宋体" text-anchor="middle" dominant-baseline="middle" fill="#000000" font-size="12.000000" x="74" y="781" shape-type="buttontext">PSA1</text>
</g>
</a>
<a xlink:href="PSA2.svg">
<g shape-type="button">
<rect fill="#C0C0C0" stroke-width="0.3" stroke="#FFFFFF" x="148" y="760" width="117" height="31" shape-type="buttonrect"/>
<text font-family="宋体" text-anchor="middle" dominant-baseline="middle" fill="#000000" font-size="12.000000" x="207" y="781" shape-type="buttontext">PSA2</text>
</g>
</a>
<a xlink:href="新PSA.svg">
<g shape-type="button">
<rect fill="#C0C0C0" stroke-width="0.3" stroke="#FFFFFF" x="279" y="760" width="120" height="31" shape-type="buttonrect"/>
<text font-family="宋体" text-anchor="middle" dominant-baseline="middle" fill="#000000" font-size="12.000000" x="339" y="781" shape-type="buttontext">新PSA</text>
</g>
</a>
<a xlink:href="天然气调压撬站.svg">
<g shape-type="button">
<rect fill="#C0C0C0" stroke-width="0.3" stroke="#FFFFFF" x="409" y="760" width="120" height="31" shape-type="buttonrect"/>
<text font-family="宋体" text-anchor="middle" dominant-baseline="middle" fill="#000000" font-size="12.000000" x="469" y="781" shape-type="buttontext">天然气调压撬站</text>
</g>
</a>
<rect shape-type="rectangle" x="794" y="170" width="81" height="26" fill="#4A494A" stroke="#C0C0C0" stroke-width="3.00"/>
<rect shape-type="rectangle" x="875" y="170" width="37" height="26" fill="#4A494A" stroke="#C0C0C0" stroke-width="3.00"/>
<text font-family="宋体" text-anchor="start" fill="#00FF42" shape-type="text" id="" font-size="9.500000" font-weight="bold" x="882" y="185">Nm3</text>
<text font-family="Arial" text-anchor="start" fill="#00FFFF" shape-type="realdata" id="HCAB_PSA_FIQ93001" font-size="12.500000" x="799" y="187">XXXX</text>
<a xlink:href="PSA_ML.svg">
<g shape-type="button">
<rect fill="#C0C0C0" stroke-width="0.3" stroke="#FFFFFF" x="960" y="0" width="100" height="33" shape-type="buttonrect"/>
<text font-family="宋体" text-anchor="middle" dominant-baseline="middle" fill="#800000" font-size="13.500000" font-weight="bold" x="1010" y="23" shape-type="buttontext">返回上一级</text>
</g>
</a>
</svg>
