<svg xmlns="http://www.w3.org/2000/svg" xmlns:xlink="http://www.w3.org/1999/xlink" version="1.1" style="background-color:#7DB6C1" width="1062" height="669" viewbox="0 0 1062 669"><defs>
<linearGradient x1="0.000000%" y1="50.000000%" x2="100.000000%" y2="50.000000%" id="lgradient5_2">
<stop offset="0" stop-color="#2C2C2C" stop-opacity="1"/>
<stop offset="0.5" stop-color="#FFFFFF" stop-opacity="1"/>
<stop offset="1" stop-color="#2C2C2C" stop-opacity="1"/>
</linearGradient>
<linearGradient x1="50.000000%" y1="0.000000%" x2="50.000000%" y2="100.000000%" id="lgradient5_3">
<stop offset="0" stop-color="#2C2C2C" stop-opacity="1"/>
<stop offset="0.5" stop-color="#FFFFFF" stop-opacity="1"/>
<stop offset="1" stop-color="#2C2C2C" stop-opacity="1"/>
</linearGradient>
<linearGradient x1="0.000000%" y1="50.000000%" x2="100.000000%" y2="50.000000%" id="lgradient6_2">
<stop offset="0" stop-color="#2C2C2C" stop-opacity="1"/>
<stop offset="0.5" stop-color="#FFFFFF" stop-opacity="1"/>
<stop offset="1" stop-color="#2C2C2C" stop-opacity="1"/>
</linearGradient>
<linearGradient x1="50.000000%" y1="0.000000%" x2="50.000000%" y2="100.000000%" id="lgradient6_3">
<stop offset="0" stop-color="#2C2C2C" stop-opacity="1"/>
<stop offset="0.5" stop-color="#FFFFFF" stop-opacity="1"/>
<stop offset="1" stop-color="#2C2C2C" stop-opacity="1"/>
</linearGradient>
<marker id="Arrow1" markerUnits="strokeWidth" markerWidth="6" markerHeight="6" viewBox="0 0 6 6" refX="3" refY="3" orient="auto"><path d="M1,1 L5,3 L1,5 L3,3 L1,1" style="fill: #000000;"/></marker>
<marker id="Arrow2" markerUnits="strokeWidth" markerWidth="6" markerHeight="6" viewBox="0 0 6 6" refX="3" refY="3" orient="auto"><path d="M5,1 L1,3 L5,5 L3,3 L5,1" style="fill: #000000;"/></marker>
<linearGradient x1="0.000000%" y1="50.000000%" x2="100.000000%" y2="50.000000%" id="lgradient125">
<stop offset="0" stop-color="#2C2C2C" stop-opacity="1"/>
<stop offset="0.5" stop-color="#FFFFFF" stop-opacity="1"/>
<stop offset="1" stop-color="#2C2C2C" stop-opacity="1"/>
</linearGradient>
<linearGradient x1="50.000000%" y1="0.000000%" x2="50.000000%" y2="100.000000%" id="lgradient126">
<stop offset="0" stop-color="#2C2C2C" stop-opacity="1"/>
<stop offset="0.5" stop-color="#FFFFFF" stop-opacity="1"/>
<stop offset="1" stop-color="#2C2C2C" stop-opacity="1"/>
</linearGradient>
</defs>
<g shape-type="group">
<polygon shape-type="trapezium" points="875,634 844,634 857,613 863,613 875,634" fill="#C0C0C0" stroke="#000000" stroke-width="2.00"/>
<ellipse shape-type="ellipse" cx="859" cy="616" rx="11" ry="11" fill="#C0C0C0" stroke="#000000" stroke-width="2.00"/>
<ellipse shape-type="ellipse" cx="859" cy="615" rx="9" ry="8" fill="#FF0000" stroke="#000000" stroke-width="2.00"/>
</g>
<g shape-type="group">
<polygon shape-type="trapezium" points="941,635 911,635 924,614 928,614 941,635" fill="#C0C0C0" stroke="#000000" stroke-width="2.00"/>
<ellipse shape-type="ellipse" cx="926" cy="617" rx="11" ry="11" fill="#C0C0C0" stroke="#000000" stroke-width="2.00"/>
<ellipse shape-type="ellipse" cx="926" cy="616" rx="9" ry="8" fill="#FF0000" stroke="#000000" stroke-width="2.00"/>
</g>
<g shape-type="group">
<polygon shape-type="trapezium" points="1309,638 1278,638 1291,616 1297,616 1309,638" fill="#C0C0C0" stroke="#000000" stroke-width="2.00"/>
<ellipse shape-type="ellipse" cx="1293" cy="619" rx="11" ry="11" fill="#C0C0C0" stroke="#000000" stroke-width="2.00"/>
<ellipse shape-type="ellipse" cx="1293" cy="618" rx="9" ry="8" fill="#FF0000" stroke="#000000" stroke-width="2.00"/>
</g>
<g shape-type="group">
<polygon shape-type="trapezium" points="1375,638 1345,638 1358,617 1362,617 1375,638" fill="#C0C0C0" stroke="#000000" stroke-width="2.00"/>
<ellipse shape-type="ellipse" cx="1360" cy="620" rx="11" ry="11" fill="#C0C0C0" stroke="#000000" stroke-width="2.00"/>
<ellipse shape-type="ellipse" cx="1360" cy="619" rx="9" ry="8" fill="#FF0000" stroke="#000000" stroke-width="2.00"/>
</g>
<g shape-type="group">
<line shape-type="limitline" x1="776" y1="323" x2="775" y2="257" fill="#FFFFFF" stroke="#FF0000" stroke-width="1.00"/>
<g shape-type="group">
<polygon shape-type="trapezium" points="770,275 782,275 776,288 776,288 770,275" fill="#FF0000" stroke="#FFFFFF" stroke-width="1.00"/>
<polygon shape-type="trapezium" points="770,299 782,299 776,289 776,289 770,299" fill="#FF0000" stroke="#FFFFFF" stroke-width="1.00"/>
<line shape-type="limitline" x1="775" y1="289" x2="792" y2="290" fill="#FFFFFF" stroke="#FFFFFF" stroke-width="1.00"/>
<path shape-type="chord" d="M 787,300 A 19,17 0 1,0 787,273 z" fill="#C0C0C0" stroke="#FFFFFF" stroke-width="1.00"/>
</g>
<rect shape-type="roundRectangle" rx="20" ry="20" x="767" y="323" width="22" height="51" fill="url(#lgradient5_2)" stroke="#FFFFFF" stroke-width="1.00"/>
<rect shape-type="roundRectangle" rx="20" ry="20" x="710" y="350" width="110" height="32" fill="url(#lgradient5_3)" stroke="#FFFFFF" stroke-width="1.00"/>
<rect shape-type="rectangle" x="795" y="350" width="10" height="31" fill="#FFFFFF" stroke="#000000" stroke-width="1.00"/>
<line shape-type="limitline" x1="724" y1="380" x2="723" y2="351" fill="#FFFFFF" stroke="#000000" stroke-width="1.00"/>
</g>
<g shape-type="group">
<line shape-type="limitline" x1="1285" y1="323" x2="1284" y2="257" fill="#FFFFFF" stroke="#FF0000" stroke-width="1.00"/>
<g shape-type="group">
<polygon shape-type="trapezium" points="1279,277 1292,277 1285,290 1285,290 1279,277" fill="#FF0000" stroke="#FFFFFF" stroke-width="1.00"/>
<polygon shape-type="trapezium" points="1279,301 1292,301 1285,291 1285,291 1279,301" fill="#FF0000" stroke="#FFFFFF" stroke-width="1.00"/>
<line shape-type="limitline" x1="1284" y1="291" x2="1301" y2="292" fill="#FFFFFF" stroke="#FFFFFF" stroke-width="1.00"/>
<path shape-type="chord" d="M 1297,302 A 19,17 0 1,0 1297,275 z" fill="#C0C0C0" stroke="#FFFFFF" stroke-width="1.00"/>
</g>
<rect shape-type="roundRectangle" rx="20" ry="20" x="1275" y="323" width="21" height="52" fill="url(#lgradient6_2)" stroke="#FFFFFF" stroke-width="1.00"/>
<rect shape-type="roundRectangle" rx="20" ry="20" x="1221" y="351" width="110" height="32" fill="url(#lgradient6_3)" stroke="#FFFFFF" stroke-width="1.00"/>
<rect shape-type="rectangle" x="1306" y="351" width="11" height="31" fill="#FFFFFF" stroke="#000000" stroke-width="1.00"/>
<line shape-type="limitline" x1="1235" y1="381" x2="1234" y2="352" fill="#FFFFFF" stroke="#000000" stroke-width="1.00"/>
</g>
<line shape-type="limitline" x1="751" y1="349" x2="751" y2="177" marker-end="url(#Arrow1)" fill="#FFFFFF" stroke="#00FF00" stroke-width="1.00"/>
<line shape-type="limitline" x1="751" y1="177" x2="455" y2="177" fill="#FFFFFF" stroke="#00FF00" stroke-width="1.00"/>
<line shape-type="limitline" x1="454" y1="214" x2="59" y2="214" fill="#FFFFFF" stroke="#00FF00" stroke-width="1.00"/>
<line shape-type="limitline" x1="455" y1="213" x2="455" y2="97" fill="#FFFFFF" stroke="#00FF00" stroke-width="1.00"/>
<line shape-type="limitline" x1="455" y1="95" x2="60" y2="95" fill="#FFFFFF" stroke="#00FF00" stroke-width="1.00"/>
<line shape-type="limitline" x1="455" y1="139" x2="60" y2="139" fill="#FFFFFF" stroke="#00FF00" stroke-width="1.00"/>
<line shape-type="limitline" x1="232" y1="211" x2="232" y2="178" fill="#FFFFFF" stroke="#00FF00" stroke-width="1.00"/>
<line shape-type="limitline" x1="232" y1="178" x2="57" y2="178" fill="#FFFFFF" stroke="#00FF00" stroke-width="1.00"/>
<line shape-type="limitline" x1="741" y1="264" x2="741" y2="349" marker-start="url(#Arrow2)" fill="#FFFFFF" stroke="#00FF00" stroke-width="1.00"/>
<line shape-type="limitline" x1="515" y1="263" x2="741" y2="263" fill="#FFFFFF" stroke="#00FF00" stroke-width="1.00"/>
<line shape-type="limitline" x1="514" y1="263" x2="514" y2="460" fill="#FFFFFF" stroke="#00FF00" stroke-width="1.00"/>
<line shape-type="limitline" x1="282" y1="460" x2="514" y2="460" fill="#FFFFFF" stroke="#00FF00" stroke-width="1.00"/>
<line shape-type="limitline" x1="281" y1="382" x2="281" y2="460" fill="#FFFFFF" stroke="#00FF00" stroke-width="1.00"/>
<line shape-type="limitline" x1="214" y1="349" x2="214" y2="320" marker-end="url(#Arrow1)" fill="#FFFFFF" stroke="#00FF00" stroke-width="1.00"/>
<line shape-type="limitline" x1="29" y1="318" x2="214" y2="318" fill="#FFFFFF" stroke="#00FF00" stroke-width="1.00"/>
<line shape-type="limitline" x1="127" y1="357" x2="127" y2="319" fill="#FFFFFF" stroke="#00FF00" stroke-width="1.00"/>
<line shape-type="limitline" x1="27" y1="359" x2="127" y2="359" fill="#FFFFFF" stroke="#00FF00" stroke-width="1.00"/>
<line shape-type="limitline" x1="727" y1="309" x2="727" y2="351" marker-start="url(#Arrow2)" fill="#FFFFFF" stroke="#00FF00" stroke-width="1.00"/>
<line shape-type="limitline" x1="727" y1="309" x2="676" y2="309" fill="#FFFFFF" stroke="#00FF00" stroke-width="1.00"/>
<line shape-type="limitline" x1="676" y1="309" x2="676" y2="509" fill="#FFFFFF" stroke="#00FF00" stroke-width="1.00"/>
<line shape-type="limitline" x1="676" y1="511" x2="1371" y2="511" fill="#FFFFFF" stroke="#00FF00" stroke-width="1.00"/>
<line shape-type="limitline" x1="792" y1="506" x2="792" y2="382" fill="#FFFFFF" stroke="#00FF00" stroke-width="1.00"/>
<line shape-type="limitline" x1="793" y1="656" x2="793" y2="519" fill="#FFFFFF" stroke="#00FF00" stroke-width="1.00"/>
<line shape-type="limitline" x1="897" y1="658" x2="793" y2="658" fill="#FFFFFF" stroke="#00FF00" stroke-width="1.00"/>
<line shape-type="limitline" x1="898" y1="657" x2="898" y2="617" fill="#FFFFFF" stroke="#00FF00" stroke-width="1.00"/>
<line shape-type="limitline" x1="915" y1="617" x2="899" y2="617" marker-start="url(#Arrow2)" fill="#FFFFFF" stroke="#00FF00" stroke-width="1.00"/>
<line shape-type="limitline" x1="832" y1="656" x2="832" y2="616" fill="#FFFFFF" stroke="#00FF00" stroke-width="1.00"/>
<line shape-type="limitline" x1="849" y1="616" x2="833" y2="616" marker-start="url(#Arrow2)" fill="#FFFFFF" stroke="#00FF00" stroke-width="1.00"/>
<line shape-type="limitline" x1="1371" y1="617" x2="1371" y2="465" fill="#FFFFFF" stroke="#00FF00" stroke-width="1.00"/>
<line shape-type="limitline" x1="1566" y1="465" x2="1372" y2="465" fill="#FFFFFF" stroke="#00FF00" stroke-width="1.00"/>
<line shape-type="limitline" x1="1241" y1="508" x2="1241" y2="381" fill="#FFFFFF" stroke="#00FF00" stroke-width="1.00"/>
<line shape-type="limitline" x1="1241" y1="656" x2="1241" y2="517" fill="#FFFFFF" stroke="#00FF00" stroke-width="1.00"/>
<line shape-type="limitline" x1="1241" y1="658" x2="1325" y2="658" fill="#FFFFFF" stroke="#00FF00" stroke-width="1.00"/>
<line shape-type="limitline" x1="1259" y1="617" x2="1259" y2="657" fill="#FFFFFF" stroke="#00FF00" stroke-width="1.00"/>
<line shape-type="limitline" x1="1282" y1="617" x2="1259" y2="617" marker-start="url(#Arrow2)" fill="#FFFFFF" stroke="#00FF00" stroke-width="1.00"/>
<line shape-type="limitline" x1="1325" y1="616" x2="1325" y2="656" fill="#FFFFFF" stroke="#00FF00" stroke-width="1.00"/>
<line shape-type="limitline" x1="1348" y1="616" x2="1325" y2="616" marker-start="url(#Arrow2)" fill="#FFFFFF" stroke="#00FF00" stroke-width="1.00"/>
<line shape-type="limitline" x1="1407" y1="465" x2="1407" y2="400" fill="#FFFFFF" stroke="#00FF00" stroke-width="1.00"/>
<line shape-type="limitline" x1="1565" y1="399" x2="1407" y2="399" fill="#FFFFFF" stroke="#00FF00" stroke-width="1.00"/>
<line shape-type="limitline" x1="936" y1="613" x2="936" y2="517" fill="#FFFFFF" stroke="#00FF00" stroke-width="1.00"/>
<line shape-type="limitline" x1="936" y1="504" x2="936" y2="279" fill="#FFFFFF" stroke="#00FF00" stroke-width="1.00"/>
<line shape-type="limitline" x1="936" y1="278" x2="1252" y2="278" fill="#FFFFFF" stroke="#00FF00" stroke-width="1.00"/>
<line shape-type="limitline" x1="1252" y1="350" x2="1252" y2="278" marker-end="url(#Arrow1)" fill="#FFFFFF" stroke="#00FF00" stroke-width="1.00"/>
<line shape-type="limitline" x1="1260" y1="351" x2="1260" y2="100" marker-end="url(#Arrow1)" fill="#FFFFFF" stroke="#00FF00" stroke-width="1.00"/>
<line shape-type="limitline" x1="1243" y1="302" x2="1243" y2="349" marker-start="url(#Arrow2)" fill="#FFFFFF" stroke="#00FF00" stroke-width="1.00"/>
<line shape-type="limitline" x1="1243" y1="302" x2="1011" y2="302" fill="#FFFFFF" stroke="#00FF00" stroke-width="1.00"/>
<line shape-type="limitline" x1="1010" y1="302" x2="1010" y2="509" fill="#FFFFFF" stroke="#00FF00" stroke-width="1.00"/>
<line shape-type="limitline" x1="869" y1="574" x2="869" y2="616" fill="#FFFFFF" stroke="#00FF00" stroke-width="1.00"/>
<line shape-type="limitline" x1="870" y1="573" x2="936" y2="573" marker-end="url(#Arrow1)" fill="#FFFFFF" stroke="#00FF00" stroke-width="1.00"/>
<line shape-type="limitline" x1="1053" y1="564" x2="937" y2="564" fill="#FFFFFF" stroke="#00FF00" stroke-width="1.00"/>
<line shape-type="limitline" x1="1054" y1="661" x2="1054" y2="564" fill="#FFFFFF" stroke="#00FF00" stroke-width="1.00"/>
<line shape-type="limitline" x1="1128" y1="547" x2="936" y2="547" fill="#FFFFFF" stroke="#00FF00" stroke-width="1.00"/>
<line shape-type="limitline" x1="1128" y1="664" x2="1128" y2="547" fill="#FFFFFF" stroke="#00FF00" stroke-width="1.00"/>
<g shape-type="group">
<polygon shape-type="trapezium" points="1375,458 1375,471 1389,465 1389,465 1375,458" fill="#FF0000" stroke="#FFFFFF" stroke-width="1.00"/>
<polygon shape-type="trapezium" points="1400,458 1400,471 1389,465 1389,465 1400,458" fill="#FF0000" stroke="#FFFFFF" stroke-width="1.00"/>
<line shape-type="limitline" x1="1389" y1="466" x2="1388" y2="449" fill="#FFFFFF" stroke="#FFFFFF" stroke-width="1.00"/>
<path shape-type="chord" d="M 1403,454 A 17,19 0 0,0 1375,454 z" fill="#C0C0C0" stroke="#FFFFFF" stroke-width="1.00"/>
</g>
<g shape-type="group">
<polygon shape-type="trapezium" points="1064,505 1064,518 1077,512 1077,512 1064,505" fill="#FF0000" stroke="#FFFFFF" stroke-width="1.00"/>
<polygon shape-type="trapezium" points="1089,505 1089,518 1077,512 1077,512 1089,505" fill="#FF0000" stroke="#FFFFFF" stroke-width="1.00"/>
<line shape-type="limitline" x1="1077" y1="513" x2="1076" y2="496" fill="#FFFFFF" stroke="#FFFFFF" stroke-width="1.00"/>
<path shape-type="chord" d="M 1092,501 A 17,19 0 0,0 1064,501 z" fill="#C0C0C0" stroke="#FFFFFF" stroke-width="1.00"/>
</g>
<line shape-type="limitline" x1="1517" y1="98" x2="1037" y2="98" fill="#FFFFFF" stroke="#00FF00" stroke-width="1.00"/>
<line shape-type="limitline" x1="761" y1="217" x2="761" y2="349" fill="#FFFFFF" stroke="#FF0000" stroke-width="1.00"/>
<line shape-type="limitline" x1="1113" y1="217" x2="761" y2="217" fill="#FFFFFF" stroke="#FF0000" stroke-width="1.00"/>
<line shape-type="limitline" x1="1270" y1="209" x2="1270" y2="350" fill="#FFFFFF" stroke="#FF0000" stroke-width="1.00"/>
<line shape-type="limitline" x1="1270" y1="209" x2="1544" y2="209" fill="#FFFFFF" stroke="#FF0000" stroke-width="1.00"/>
<g shape-type="group">
<polygon shape-type="trapezium" points="886,209 886,222 900,216 900,216 886,209" fill="#FF0000" stroke="#FFFFFF" stroke-width="1.00"/>
<polygon shape-type="trapezium" points="911,209 911,222 900,216 900,216 911,209" fill="#FF0000" stroke="#FFFFFF" stroke-width="1.00"/>
<line shape-type="limitline" x1="900" y1="217" x2="899" y2="200" fill="#FFFFFF" stroke="#FFFFFF" stroke-width="1.00"/>
<path shape-type="chord" d="M 915,205 A 17,19 0 0,0 887,205 z" fill="#C0C0C0" stroke="#FFFFFF" stroke-width="1.00"/>
</g>
<g shape-type="group">
<polygon shape-type="trapezium" points="1338,202 1338,215 1351,209 1351,209 1338,202" fill="#FF0000" stroke="#FFFFFF" stroke-width="1.00"/>
<polygon shape-type="trapezium" points="1363,202 1363,215 1351,209 1351,209 1363,202" fill="#FF0000" stroke="#FFFFFF" stroke-width="1.00"/>
<line shape-type="limitline" x1="1351" y1="209" x2="1350" y2="193" fill="#FFFFFF" stroke="#FFFFFF" stroke-width="1.00"/>
<path shape-type="chord" d="M 1366,198 A 17,19 0 0,0 1338,198 z" fill="#C0C0C0" stroke="#FFFFFF" stroke-width="1.00"/>
</g>
<g shape-type="group">
<polygon shape-type="trapezium" points="1520,202 1520,215 1509,209 1509,209 1520,202" fill="#808080" stroke="#FFFFFF" stroke-width="1.00"/>
<rect shape-type="rectangle" x="1519" y="204" width="28" height="9" fill="#808080" stroke="#FFFFFF" stroke-width="1.00"/>
</g>
<g shape-type="group">
<polygon shape-type="trapezium" points="1536,392 1536,405 1526,399 1526,399 1536,392" fill="#808080" stroke="#FFFFFF" stroke-width="1.00"/>
<rect shape-type="rectangle" x="1535" y="394" width="29" height="8" fill="#808080" stroke="#FFFFFF" stroke-width="1.00"/>
</g>
<g shape-type="group">
<polygon shape-type="trapezium" points="1552,460 1552,473 1564,467 1564,467 1552,460" fill="#808080" stroke="#FFFFFF" stroke-width="1.00"/>
<rect shape-type="rectangle" x="1526" y="463" width="27" height="8" fill="#808080" stroke="#FFFFFF" stroke-width="1.00"/>
</g>
<g shape-type="group">
<polygon shape-type="trapezium" points="942,442 929,442 936,428 936,428 942,442" fill="#FF0000" stroke="#FFFFFF" stroke-width="1.00"/>
<polygon shape-type="trapezium" points="942,417 929,417 936,428 936,428 942,417" fill="#FF0000" stroke="#FFFFFF" stroke-width="1.00"/>
<line shape-type="limitline" x1="936" y1="428" x2="920" y2="429" fill="#FFFFFF" stroke="#FFFFFF" stroke-width="1.00"/>
<path shape-type="chord" d="M 926,413 A 18,18 0 1,0 926,442 z" fill="#C0C0C0" stroke="#FFFFFF" stroke-width="1.00"/>
</g>
<g shape-type="group">
<polygon shape-type="trapezium" points="379,453 379,466 393,460 393,460 379,453" fill="#FF0000" stroke="#FFFFFF" stroke-width="1.00"/>
<polygon shape-type="trapezium" points="404,453 404,466 393,460 393,460 404,453" fill="#FF0000" stroke="#FFFFFF" stroke-width="1.00"/>
<line shape-type="limitline" x1="393" y1="460" x2="392" y2="444" fill="#FFFFFF" stroke="#FFFFFF" stroke-width="1.00"/>
<path shape-type="chord" d="M 407,449 A 17,19 0 0,0 379,449 z" fill="#C0C0C0" stroke="#FFFFFF" stroke-width="1.00"/>
</g>
<g shape-type="group">
<polygon shape-type="trapezium" points="52,88 52,100 64,94 64,94 52,88" fill="#808080" stroke="#FFFFFF" stroke-width="1.00"/>
<rect shape-type="rectangle" x="25" y="90" width="28" height="8" fill="#808080" stroke="#FFFFFF" stroke-width="1.00"/>
</g>
<g shape-type="group">
<polygon shape-type="trapezium" points="54,132 54,145 66,139 66,139 54,132" fill="#808080" stroke="#FFFFFF" stroke-width="1.00"/>
<rect shape-type="rectangle" x="28" y="134" width="27" height="9" fill="#808080" stroke="#FFFFFF" stroke-width="1.00"/>
</g>
<g shape-type="group">
<polygon shape-type="trapezium" points="55,171 55,184 67,178 67,178 55,171" fill="#808080" stroke="#FFFFFF" stroke-width="1.00"/>
<rect shape-type="rectangle" x="29" y="173" width="27" height="8" fill="#808080" stroke="#FFFFFF" stroke-width="1.00"/>
</g>
<g shape-type="group">
<polygon shape-type="trapezium" points="55,207 55,220 67,214 67,214 55,207" fill="#808080" stroke="#FFFFFF" stroke-width="1.00"/>
<rect shape-type="rectangle" x="29" y="209" width="27" height="9" fill="#808080" stroke="#FFFFFF" stroke-width="1.00"/>
</g>
<line shape-type="limitline" x1="264" y1="241" x2="43" y2="241" fill="#FFFFFF" stroke="#FF0000" stroke-width="1.00"/>
<g shape-type="group">
<polygon shape-type="trapezium" points="45,311 45,324 56,318 56,318 45,311" fill="#808080" stroke="#FFFFFF" stroke-width="1.00"/>
<rect shape-type="rectangle" x="18" y="314" width="28" height="8" fill="#808080" stroke="#FFFFFF" stroke-width="1.00"/>
</g>
<g shape-type="group">
<polygon shape-type="trapezium" points="49,354 49,367 60,361 60,361 49,354" fill="#808080" stroke="#FFFFFF" stroke-width="1.00"/>
<rect shape-type="rectangle" x="22" y="356" width="28" height="9" fill="#808080" stroke="#FFFFFF" stroke-width="1.00"/>
</g>
<g shape-type="group">
<polygon shape-type="trapezium" points="45,235 45,248 34,242 34,242 45,235" stroke="#FF0000" stroke-width="1.00"/>
<rect shape-type="rectangle" x="44" y="238" width="28" height="8" stroke="#FF0000" stroke-width="1.00"/>
</g>
<g shape-type="group">
<polygon shape-type="trapezium" points="1121,210 1121,223 1110,217 1110,217 1121,210" fill="#808080" stroke="#FFFFFF" stroke-width="1.00"/>
<rect shape-type="rectangle" x="1120" y="213" width="28" height="8" fill="#808080" stroke="#FFFFFF" stroke-width="1.00"/>
</g>
<polygon shape-type="trapezium" points="767,338 757,338 762,349 762,349 767,338" fill="#FF0000" stroke="#FF0000" stroke-width="1.00"/>
<line shape-type="limitline" x1="1371" y1="572" x2="1302" y2="572" marker-start="url(#Arrow2)" fill="#FFFFFF" stroke="#00FF00" stroke-width="1.00"/>
<line shape-type="limitline" x1="1302" y1="573" x2="1302" y2="615" fill="#FFFFFF" stroke="#00FF00" stroke-width="1.00"/>
<polygon shape-type="trapezium" points="1274,340 1264,340 1269,351 1269,351 1274,340" fill="#FF0000" stroke="#FF0000" stroke-width="1.00"/>
<g shape-type="group">
<line shape-type="limitline" x1="1169" y1="98" x2="1168" y2="45" fill="#FFFFFF" stroke="#00FF00" stroke-width="1.00"/>
<polygon shape-type="trapezium" points="1174,39 1164,39 1169,50 1169,50 1174,39" fill="#00FF00" stroke="#00FF00" stroke-width="1.00"/>
</g>
<g shape-type="group">
<line shape-type="limitline" x1="1079" y1="98" x2="1078" y2="45" fill="#FFFFFF" stroke="#00FF00" stroke-width="1.00"/>
<polygon shape-type="trapezium" points="1084,39 1074,39 1079,50 1079,50 1084,39" fill="#00FF00" stroke="#00FF00" stroke-width="1.00"/>
</g>
<g shape-type="group">
<line shape-type="limitline" x1="1258" y1="98" x2="1257" y2="45" fill="#FFFFFF" stroke="#00FF00" stroke-width="1.00"/>
<polygon shape-type="trapezium" points="1264,39 1253,39 1259,50 1259,50 1264,39" fill="#00FF00" stroke="#00FF00" stroke-width="1.00"/>
</g>
<g shape-type="group">
<line shape-type="limitline" x1="1347" y1="97" x2="1346" y2="44" fill="#FFFFFF" stroke="#00FF00" stroke-width="1.00"/>
<polygon shape-type="trapezium" points="1352,39 1343,39 1348,49 1348,49 1352,39" fill="#00FF00" stroke="#00FF00" stroke-width="1.00"/>
</g>
<g shape-type="group">
<line shape-type="limitline" x1="1435" y1="97" x2="1434" y2="44" fill="#FFFFFF" stroke="#00FF00" stroke-width="1.00"/>
<polygon shape-type="trapezium" points="1441,39 1431,39 1436,49 1436,49 1441,39" fill="#00FF00" stroke="#00FF00" stroke-width="1.00"/>
</g>
<g shape-type="group">
<polygon shape-type="trapezium" points="1049,663 1061,663 1055,674 1055,674 1049,663" fill="#808080" stroke="#FFFFFF" stroke-width="1.00"/>
<rect shape-type="rectangle" x="1051" y="638" width="8" height="26" fill="#808080" stroke="#FFFFFF" stroke-width="1.00"/>
</g>
<g shape-type="group">
<polygon shape-type="trapezium" points="1122,660 1134,660 1128,672 1128,672 1122,660" fill="#808080" stroke="#FFFFFF" stroke-width="1.00"/>
<rect shape-type="rectangle" x="1124" y="635" width="8" height="26" fill="#808080" stroke="#FFFFFF" stroke-width="1.00"/>
</g>
<text font-family="宋体" text-anchor="start" fill="#FFFFFF" shape-type="text" id="" font-size="12.500000" x="20" y="83">自E_2209</text>
<text font-family="宋体" text-anchor="start" fill="#FFFFFF" shape-type="text" id="" font-size="12.500000" x="18" y="125">自E_2202</text>
<text font-family="宋体" text-anchor="start" fill="#FFFFFF" shape-type="text" id="" font-size="12.500000" x="21" y="164">自E_2113</text>
<text font-family="宋体" text-anchor="start" fill="#FFFFFF" shape-type="text" id="" font-size="12.500000" x="22" y="200">自E_2108</text>
<text font-family="宋体" text-anchor="start" fill="#FFFFFF" shape-type="text" id="" font-size="12.500000" x="45" y="259">MS</text>
<text font-family="宋体" text-anchor="start" fill="#FFFFFF" shape-type="text" id="" font-size="12.500000" x="11" y="291">3.5MPa蒸汽凝液</text>
<text font-family="宋体" text-anchor="start" fill="#FFFFFF" shape-type="text" id="" font-size="12.500000" x="29" y="307">自R_2201</text>
<text font-family="宋体" text-anchor="start" fill="#FFFFFF" shape-type="text" id="" font-size="12.500000" x="9" y="338">3.5MPa蒸汽凝液</text>
<text font-family="宋体" text-anchor="start" fill="#FFFFFF" shape-type="text" id="" font-size="12.500000" x="30" y="350">自E_2204</text>
<text font-family="宋体" text-anchor="start" fill="#FFFFFF" shape-type="text" id="" font-size="12.500000" x="1018" y="692">去E_2215</text>
<text font-family="宋体" text-anchor="start" fill="#FFFFFF" shape-type="text" id="" font-size="12.500000" x="1091" y="690">去E_2218</text>
<text font-family="宋体" text-anchor="start" fill="#FFFFFF" shape-type="text" id="" font-size="12.500000" x="1254" y="654">去P_2122A</text>
<text font-family="宋体" text-anchor="start" fill="#FFFFFF" shape-type="text" id="" font-size="12.500000" x="1328" y="655">去P_2122B</text>
<text font-family="宋体" text-anchor="start" fill="#FFFFFF" shape-type="text" id="" font-size="12.500000" x="1506" y="188">LS</text>
<text font-family="宋体" text-anchor="start" fill="#FFFFFF" shape-type="text" id="" font-size="12.500000" x="1471" y="394">来自E_2106A</text>
<text font-family="宋体" text-anchor="start" fill="#FFFFFF" shape-type="text" id="" font-size="12.500000" x="1417" y="458">低压蒸气凝液去界外</text>
<text font-family="宋体" text-anchor="start" fill="#FFFFFF" shape-type="text" id="" font-size="12.500000" x="1050" y="34">E_2205</text>
<text font-family="宋体" text-anchor="start" fill="#FFFFFF" shape-type="text" id="" font-size="12.500000" x="1145" y="32">E_2106A</text>
<text font-family="宋体" text-anchor="start" fill="#FFFFFF" shape-type="text" id="" font-size="12.500000" x="1229" y="33">E_2101A</text>
<text font-family="宋体" text-anchor="start" fill="#FFFFFF" shape-type="text" id="" font-size="12.500000" x="1314" y="33">E_2101B</text>
<text font-family="宋体" text-anchor="start" fill="#FFFFFF" shape-type="text" id="" font-size="14.000000" x="1405" y="33">伴热系统</text>
<text font-family="宋体" text-anchor="start" fill="#FFFFFF" shape-type="text" id="" font-size="12.500000" x="276" y="295">PV_21131</text>
<text font-family="宋体" text-anchor="start" fill="#FFFFFF" shape-type="text" id="" font-size="12.500000" x="709" y="290">PV_21132</text>
<text font-family="宋体" text-anchor="start" fill="#FFFFFF" shape-type="text" id="" font-size="12.500000" x="360" y="486">LV_21131</text>
<text font-family="宋体" text-anchor="start" fill="#FFFFFF" shape-type="text" id="" font-size="12.500000" x="942" y="431">LV_21132</text>
<text font-family="宋体" text-anchor="start" fill="#FFFFFF" shape-type="text" id="" font-size="12.500000" x="1044" y="533">FV_21133</text>
<text font-family="宋体" text-anchor="start" fill="#FFFFFF" shape-type="text" id="" font-size="12.500000" x="1306" y="457">LV_21133</text>
<rect shape-type="rectangle" x="142" y="243" width="75" height="17" fill="#FFFFFF" stroke="#000000" stroke-width="1.00"/>
<rect shape-type="rectangle" x="142" y="259" width="75" height="17" fill="#FFFFFF" stroke="#000000" stroke-width="1.00"/>
<line shape-type="limitline" x1="264" y1="325" x2="264" y2="242" fill="#FFFFFF" stroke="#FF0000" stroke-width="1.00"/>
<g shape-type="group">
<polygon shape-type="trapezium" points="269,279 256,279 263,292 263,292 269,279" fill="#FF0000" stroke="#FFFFFF" stroke-width="1.00"/>
<polygon shape-type="trapezium" points="269,303 256,303 263,293 263,293 269,303" fill="#FF0000" stroke="#FFFFFF" stroke-width="1.00"/>
<line shape-type="limitline" x1="264" y1="293" x2="247" y2="294" fill="#FFFFFF" stroke="#FFFFFF" stroke-width="1.00"/>
<path shape-type="chord" d="M 252,277 A 19,17 0 1,0 252,304 z" fill="#C0C0C0" stroke="#FFFFFF" stroke-width="1.00"/>
</g>
<rect shape-type="roundRectangle" rx="20" ry="20" x="253" y="323" width="21" height="51" fill="url(#lgradient125)" stroke="#FFFFFF" stroke-width="1.00"/>
<rect shape-type="roundRectangle" rx="20" ry="20" x="199" y="350" width="110" height="32" fill="url(#lgradient126)" stroke="#FFFFFF" stroke-width="1.00"/>
<rect shape-type="rectangle" x="284" y="350" width="11" height="31" fill="#FFFFFF" stroke="#000000" stroke-width="1.00"/>
<line shape-type="limitline" x1="214" y1="380" x2="213" y2="351" fill="#FFFFFF" stroke="#000000" stroke-width="1.00"/>
<rect shape-type="rectangle" x="181" y="394" width="75" height="17" fill="#FFFFFF" stroke="#000000" stroke-width="1.00"/>
<rect shape-type="rectangle" x="181" y="410" width="75" height="17" fill="#FFFFFF" stroke="#000000" stroke-width="1.00"/>
<rect shape-type="rectangle" x="142" y="275" width="75" height="17" fill="#FFFFFF" stroke="#000000" stroke-width="1.00"/>
<rect shape-type="rectangle" x="142" y="291" width="75" height="17" fill="#FFFFFF" stroke="#000000" stroke-width="1.00"/>
<rect shape-type="rectangle" x="348" y="334" width="75" height="17" fill="#FFFFFF" stroke="#000000" stroke-width="1.00"/>
<rect shape-type="rectangle" x="348" y="350" width="75" height="17" fill="#FFFFFF" stroke="#000000" stroke-width="1.00"/>
<rect shape-type="rectangle" x="348" y="366" width="75" height="17" fill="#FFFFFF" stroke="#000000" stroke-width="1.00"/>
<rect shape-type="rectangle" x="348" y="382" width="75" height="17" fill="#FFFFFF" stroke="#000000" stroke-width="1.00"/>
<rect shape-type="rectangle" x="696" y="401" width="75" height="17" fill="#FFFFFF" stroke="#000000" stroke-width="1.00"/>
<rect shape-type="rectangle" x="696" y="417" width="75" height="17" fill="#FFFFFF" stroke="#000000" stroke-width="1.00"/>
<rect shape-type="rectangle" x="825" y="461" width="75" height="17" fill="#FFFFFF" stroke="#000000" stroke-width="1.00"/>
<rect shape-type="rectangle" x="825" y="477" width="75" height="17" fill="#FFFFFF" stroke="#000000" stroke-width="1.00"/>
<rect shape-type="rectangle" x="835" y="334" width="75" height="17" fill="#FFFFFF" stroke="#000000" stroke-width="1.00"/>
<rect shape-type="rectangle" x="835" y="350" width="75" height="17" fill="#FFFFFF" stroke="#000000" stroke-width="1.00"/>
<rect shape-type="rectangle" x="835" y="366" width="75" height="17" fill="#FFFFFF" stroke="#000000" stroke-width="1.00"/>
<rect shape-type="rectangle" x="835" y="382" width="75" height="17" fill="#FFFFFF" stroke="#000000" stroke-width="1.00"/>
<rect shape-type="rectangle" x="808" y="244" width="75" height="17" fill="#FFFFFF" stroke="#000000" stroke-width="1.00"/>
<rect shape-type="rectangle" x="808" y="260" width="75" height="17" fill="#FFFFFF" stroke="#000000" stroke-width="1.00"/>
<rect shape-type="rectangle" x="808" y="276" width="75" height="17" fill="#FFFFFF" stroke="#000000" stroke-width="1.00"/>
<rect shape-type="rectangle" x="808" y="292" width="75" height="17" fill="#FFFFFF" stroke="#000000" stroke-width="1.00"/>
<rect shape-type="rectangle" x="934" y="132" width="75" height="17" fill="#FFFFFF" stroke="#000000" stroke-width="1.00"/>
<rect shape-type="rectangle" x="934" y="148" width="75" height="17" fill="#FFFFFF" stroke="#000000" stroke-width="1.00"/>
<rect shape-type="rectangle" x="934" y="164" width="75" height="17" fill="#FFFFFF" stroke="#000000" stroke-width="1.00"/>
<rect shape-type="rectangle" x="934" y="180" width="75" height="17" fill="#FFFFFF" stroke="#000000" stroke-width="1.00"/>
<rect shape-type="rectangle" x="1396" y="123" width="75" height="17" fill="#FFFFFF" stroke="#000000" stroke-width="1.00"/>
<rect shape-type="rectangle" x="1396" y="139" width="75" height="17" fill="#FFFFFF" stroke="#000000" stroke-width="1.00"/>
<rect shape-type="rectangle" x="1396" y="155" width="75" height="17" fill="#FFFFFF" stroke="#000000" stroke-width="1.00"/>
<rect shape-type="rectangle" x="1396" y="171" width="75" height="17" fill="#FFFFFF" stroke="#000000" stroke-width="1.00"/>
<rect shape-type="rectangle" x="1325" y="245" width="75" height="17" fill="#FFFFFF" stroke="#000000" stroke-width="1.00"/>
<rect shape-type="rectangle" x="1325" y="261" width="75" height="17" fill="#FFFFFF" stroke="#000000" stroke-width="1.00"/>
<rect shape-type="rectangle" x="1325" y="277" width="75" height="17" fill="#FFFFFF" stroke="#000000" stroke-width="1.00"/>
<rect shape-type="rectangle" x="1325" y="293" width="75" height="17" fill="#FFFFFF" stroke="#000000" stroke-width="1.00"/>
<rect shape-type="rectangle" x="1355" y="325" width="75" height="17" fill="#FFFFFF" stroke="#000000" stroke-width="1.00"/>
<rect shape-type="rectangle" x="1355" y="341" width="75" height="17" fill="#FFFFFF" stroke="#000000" stroke-width="1.00"/>
<rect shape-type="rectangle" x="1355" y="357" width="75" height="17" fill="#FFFFFF" stroke="#000000" stroke-width="1.00"/>
<rect shape-type="rectangle" x="1355" y="373" width="75" height="17" fill="#FFFFFF" stroke="#000000" stroke-width="1.00"/>
<rect shape-type="rectangle" x="1147" y="429" width="75" height="17" fill="#FFFFFF" stroke="#000000" stroke-width="1.00"/>
<rect shape-type="rectangle" x="1147" y="445" width="75" height="17" fill="#FFFFFF" stroke="#000000" stroke-width="1.00"/>
<rect shape-type="rectangle" x="1147" y="461" width="75" height="17" fill="#FFFFFF" stroke="#000000" stroke-width="1.00"/>
<rect shape-type="rectangle" x="1147" y="477" width="75" height="17" fill="#FFFFFF" stroke="#000000" stroke-width="1.00"/>
<rect shape-type="rectangle" x="1256" y="400" width="75" height="17" fill="#FFFFFF" stroke="#000000" stroke-width="1.00"/>
<rect shape-type="rectangle" x="1256" y="416" width="75" height="17" fill="#FFFFFF" stroke="#000000" stroke-width="1.00"/>
<rect shape-type="rectangle" x="1439" y="407" width="75" height="17" fill="#FFFFFF" stroke="#000000" stroke-width="1.00"/>
<rect shape-type="rectangle" x="1439" y="423" width="75" height="17" fill="#FFFFFF" stroke="#000000" stroke-width="1.00"/>
<rect shape-type="rectangle" x="1380" y="487" width="75" height="17" fill="#FFFFFF" stroke="#000000" stroke-width="1.00"/>
<rect shape-type="rectangle" x="1380" y="503" width="75" height="17" fill="#FFFFFF" stroke="#000000" stroke-width="1.00"/>
<rect shape-type="rectangle" x="1477" y="487" width="75" height="17" fill="#FFFFFF" stroke="#000000" stroke-width="1.00"/>
<rect shape-type="rectangle" x="1477" y="503" width="75" height="17" fill="#FFFFFF" stroke="#000000" stroke-width="1.00"/>
<text font-family="宋体" text-anchor="start" fill="#FFFFFF" shape-type="text" id="" font-size="12.500000" x="1112" y="194">LS</text>
<text font-family="宋体" text-anchor="start" fill="#FFFFFF" shape-type="text" id="" font-size="12.500000" x="828" y="651">去P_2121A</text>
<text font-family="宋体" text-anchor="start" fill="#FFFFFF" shape-type="text" id="" font-size="12.500000" x="897" y="652">去P_2121B</text>
<text font-family="宋体" text-anchor="start" fill="#000000" shape-type="text" id="" font-size="12.500000" x="149" y="256">PIC21131</text>
<text font-family="宋体" text-anchor="start" fill="#000000" shape-type="text" id="" font-size="12.500000" x="352" y="346">LIC21131</text>
<text font-family="宋体" text-anchor="start" fill="#000000" shape-type="text" id="" font-size="12.500000" x="187" y="407">TI_21131</text>
<text font-family="宋体" text-anchor="start" fill="#000000" shape-type="text" id="" font-size="12.500000" x="811" y="257">PIC21132</text>
<text font-family="宋体" text-anchor="start" fill="#000000" shape-type="text" id="" font-size="12.500000" x="699" y="413">TI_21132</text>
<text font-family="宋体" text-anchor="start" fill="#000000" shape-type="text" id="" font-size="12.500000" x="841" y="347">LIC21132</text>
<text font-family="宋体" text-anchor="start" fill="#000000" shape-type="text" id="" font-size="12.500000" x="937" y="144">FIC21131</text>
<text font-family="宋体" text-anchor="start" fill="#000000" shape-type="text" id="" font-size="12.500000" x="830" y="473">FI_21132</text>
<text font-family="宋体" text-anchor="start" fill="#000000" shape-type="text" id="" font-size="12.500000" x="1152" y="441">FIC21133</text>
<text font-family="宋体" text-anchor="start" fill="#000000" shape-type="text" id="" font-size="12.500000" x="1262" y="412">TI_21133</text>
<text font-family="宋体" text-anchor="start" fill="#000000" shape-type="text" id="" font-size="12.500000" x="1386" y="499">TI_21134</text>
<text font-family="宋体" text-anchor="start" fill="#000000" shape-type="text" id="" font-size="12.500000" x="1442" y="419">PI_21134</text>
<text font-family="宋体" text-anchor="start" fill="#000000" shape-type="text" id="" font-size="12.500000" x="1361" y="337">LIC21133</text>
<text font-family="宋体" text-anchor="start" fill="#000000" shape-type="text" id="" font-size="12.500000" x="1328" y="257">PIC21133</text>
<text font-family="宋体" text-anchor="start" fill="#000000" shape-type="text" id="" font-size="12.500000" x="1399" y="135">FIC21136</text>
<text font-family="宋体" text-anchor="start" fill="#000000" shape-type="text" id="" font-size="12.500000" x="1482" y="499">FI_21134</text>
<text font-family="宋体" text-anchor="start" fill="#000000" shape-type="text" id="" font-size="12.500000" x="1518" y="515">m3/h</text>
<text font-family="宋体" text-anchor="start" fill="#000000" shape-type="text" id="" font-size="12.500000" x="1480" y="434">Mpa</text>
<text font-family="宋体" text-anchor="start" fill="#000000" shape-type="text" id="" font-size="12.500000" x="1366" y="272">Mpa</text>
<text font-family="宋体" text-anchor="start" fill="#000000" shape-type="text" id="" font-size="12.500000" x="1366" y="289">Mpa</text>
<text font-family="宋体" text-anchor="start" fill="#000000" shape-type="text" id="" font-size="12.500000" x="1375" y="307">%</text>
<text font-family="宋体" text-anchor="start" fill="#000000" shape-type="text" id="" font-size="12.500000" x="1411" y="354">%</text>
<text font-family="宋体" text-anchor="start" fill="#000000" shape-type="text" id="" font-size="12.500000" x="1410" y="370">%</text>
<text font-family="宋体" text-anchor="start" fill="#000000" shape-type="text" id="" font-size="12.500000" x="1410" y="386">%</text>
<text font-family="宋体" text-anchor="start" fill="#000000" shape-type="text" id="" font-size="12.500000" x="1307" y="431">℃ </text>
<text font-family="宋体" text-anchor="start" fill="#000000" shape-type="text" id="" font-size="12.500000" x="1429" y="517">℃ </text>
<text font-family="宋体" text-anchor="start" fill="#000000" shape-type="text" id="" font-size="12.500000" x="1185" y="456">m3/h</text>
<text font-family="宋体" text-anchor="start" fill="#000000" shape-type="text" id="" font-size="12.500000" x="1185" y="473">m3/h</text>
<text font-family="宋体" text-anchor="start" fill="#000000" shape-type="text" id="" font-size="12.500000" x="1198" y="490">%</text>
<text font-family="宋体" text-anchor="start" fill="#000000" shape-type="text" id="" font-size="12.500000" x="867" y="489">m3/h</text>
<text font-family="宋体" text-anchor="start" fill="#000000" shape-type="text" id="" font-size="12.500000" x="742" y="432">℃ </text>
<text font-family="宋体" text-anchor="start" fill="#000000" shape-type="text" id="" font-size="12.500000" x="891" y="363">%</text>
<text font-family="宋体" text-anchor="start" fill="#000000" shape-type="text" id="" font-size="12.500000" x="891" y="380">%</text>
<text font-family="宋体" text-anchor="start" fill="#000000" shape-type="text" id="" font-size="12.500000" x="891" y="396">%</text>
<text font-family="宋体" text-anchor="start" fill="#000000" shape-type="text" id="" font-size="12.500000" x="851" y="272">Mpa</text>
<text font-family="宋体" text-anchor="start" fill="#000000" shape-type="text" id="" font-size="12.500000" x="851" y="289">Mpa</text>
<text font-family="宋体" text-anchor="start" fill="#000000" shape-type="text" id="" font-size="12.500000" x="861" y="306">%</text>
<text font-family="宋体" text-anchor="start" fill="#000000" shape-type="text" id="" font-size="12.500000" x="973" y="160">kg/h</text>
<text font-family="宋体" text-anchor="start" fill="#000000" shape-type="text" id="" font-size="12.500000" x="972" y="175">kg/h</text>
<text font-family="宋体" text-anchor="start" fill="#000000" shape-type="text" id="" font-size="12.500000" x="991" y="193">%</text>
<text font-family="宋体" text-anchor="start" fill="#000000" shape-type="text" id="" font-size="12.500000" x="1434" y="151">kg/h</text>
<text font-family="宋体" text-anchor="start" fill="#000000" shape-type="text" id="" font-size="12.500000" x="1435" y="168">kg/h</text>
<text font-family="宋体" text-anchor="start" fill="#000000" shape-type="text" id="" font-size="12.500000" x="1451" y="184">%</text>
<text font-family="宋体" text-anchor="start" fill="#000000" shape-type="text" id="" font-size="12.500000" x="401" y="363">%</text>
<text font-family="宋体" text-anchor="start" fill="#000000" shape-type="text" id="" font-size="12.500000" x="400" y="380">%</text>
<text font-family="宋体" text-anchor="start" fill="#000000" shape-type="text" id="" font-size="12.500000" x="399" y="395">%</text>
<text font-family="宋体" text-anchor="start" fill="#000000" shape-type="text" id="" font-size="12.500000" x="232" y="424">℃ </text>
<text font-family="宋体" text-anchor="start" fill="#000000" shape-type="text" id="" font-size="12.500000" x="179" y="270">Mpa</text>
<text font-family="宋体" text-anchor="start" fill="#000000" shape-type="text" id="" font-size="12.500000" x="180" y="286">Mpa</text>
<text font-family="宋体" text-anchor="start" fill="#000000" shape-type="text" id="" font-size="12.500000" x="190" y="304">%</text>
<text font-family="宋体" text-anchor="start" fill="#FF8000" shape-type="text" id="" font-size="22.250000" x="725" y="58">公共工程五</text>
<text font-family="宋体" text-anchor="start" fill="#000000" shape-type="text" id="" font-size="12.500000" x="223" y="373">V_2120</text>
<text font-family="宋体" text-anchor="start" fill="#000000" shape-type="text" id="" font-size="12.500000" x="735" y="368">V_2121</text>
<text font-family="宋体" text-anchor="start" fill="#000000" shape-type="text" id="" font-size="12.500000" x="1249" y="371">V_2122</text>
<line shape-type="limitline" x1="244" y1="291" x2="216" y2="291" fill="#FFFFFF" stroke="#FFFFFF" stroke-width="1.00" stroke-dasharray="5 10"/>
<line shape-type="limitline" x1="243" y1="307" x2="215" y2="307" fill="#FFFFFF" stroke="#FFFFFF" stroke-width="1.00" stroke-dasharray="5 10"/>
<line shape-type="limitline" x1="243" y1="349" x2="243" y2="307" fill="#FFFFFF" stroke="#FFFFFF" stroke-width="1.00" stroke-dasharray="5 10"/>
<line shape-type="limitline" x1="217" y1="393" x2="217" y2="380" fill="#FFFFFF" stroke="#FFFFFF" stroke-width="1.00" stroke-dasharray="5 10"/>
<line shape-type="limitline" x1="809" y1="291" x2="792" y2="291" fill="#FFFFFF" stroke="#FFFFFF" stroke-width="1.00" stroke-dasharray="5 10"/>
<line shape-type="limitline" x1="733" y1="402" x2="733" y2="379" fill="#FFFFFF" stroke="#FFFFFF" stroke-width="1.00" stroke-dasharray="5 10"/>
<line shape-type="limitline" x1="877" y1="428" x2="877" y2="399" fill="#FFFFFF" stroke="#FFFFFF" stroke-width="1.00" stroke-dasharray="5 10"/>
<line shape-type="limitline" x1="918" y1="428" x2="877" y2="428" fill="#FFFFFF" stroke="#FFFFFF" stroke-width="1.00" stroke-dasharray="5 10"/>
<line shape-type="limitline" x1="938" y1="480" x2="896" y2="480" fill="#FFFFFF" stroke="#FFFFFF" stroke-width="1.00" stroke-dasharray="5 10"/>
<line shape-type="limitline" x1="899" y1="149" x2="899" y2="198" fill="#FFFFFF" stroke="#FFFFFF" stroke-width="1.00" stroke-dasharray="5 10"/>
<line shape-type="limitline" x1="932" y1="148" x2="899" y2="148" fill="#FFFFFF" stroke="#FFFFFF" stroke-width="1.00" stroke-dasharray="5 10"/>
<line shape-type="limitline" x1="970" y1="217" x2="970" y2="194" fill="#FFFFFF" stroke="#FFFFFF" stroke-width="1.00" stroke-dasharray="5 10"/>
<line shape-type="limitline" x1="1351" y1="154" x2="1351" y2="189" fill="#FFFFFF" stroke="#FFFFFF" stroke-width="1.00" stroke-dasharray="5 10"/>
<line shape-type="limitline" x1="1401" y1="153" x2="1351" y2="153" fill="#FFFFFF" stroke="#FFFFFF" stroke-width="1.00" stroke-dasharray="5 10"/>
<line shape-type="limitline" x1="1331" y1="289" x2="1303" y2="289" fill="#FFFFFF" stroke="#FFFFFF" stroke-width="1.00" stroke-dasharray="5 10"/>
<line shape-type="limitline" x1="1392" y1="441" x2="1392" y2="388" fill="#FFFFFF" stroke="#FFFFFF" stroke-width="1.00" stroke-dasharray="5 10"/>
<line shape-type="limitline" x1="1360" y1="364" x2="1331" y2="364" fill="#FFFFFF" stroke="#FFFFFF" stroke-width="1.00" stroke-dasharray="5 10"/>
<line shape-type="limitline" x1="1323" y1="355" x2="1323" y2="304" fill="#FFFFFF" stroke="#FFFFFF" stroke-width="1.00" stroke-dasharray="5 10"/>
<line shape-type="limitline" x1="1077" y1="459" x2="1077" y2="494" fill="#FFFFFF" stroke="#FFFFFF" stroke-width="1.00" stroke-dasharray="5 10"/>
<line shape-type="limitline" x1="1149" y1="459" x2="1077" y2="459" fill="#FFFFFF" stroke="#FFFFFF" stroke-width="1.00" stroke-dasharray="5 10"/>
<line shape-type="limitline" x1="1502" y1="486" x2="1502" y2="466" fill="#FFFFFF" stroke="#FFFFFF" stroke-width="1.00" stroke-dasharray="5 10"/>
<line shape-type="limitline" x1="1421" y1="490" x2="1421" y2="466" fill="#FFFFFF" stroke="#FFFFFF" stroke-width="1.00" stroke-dasharray="5 10"/>
<line shape-type="limitline" x1="394" y1="440" x2="394" y2="397" fill="#FFFFFF" stroke="#FFFFFF" stroke-width="1.00" stroke-dasharray="5 10"/>
<text font-family="Arial" text-anchor="start" fill="#000000" shape-type="realdata" id="QH_MH_40TI_21131" font-size="12.500000" x="156" y="423">XXXXXXXXXX</text>
<text font-family="Arial" text-anchor="start" fill="#000000" shape-type="realdata" id="QH_MH_40TI_21132" font-size="12.500000" x="672" y="430">XXXXXXXXXX</text>
<text font-family="Arial" text-anchor="start" fill="#000000" shape-type="realdata" id="QH_MH_40FI_21132" font-size="12.500000" x="794" y="490">XXXXXXXXXX</text>
<text font-family="Arial" text-anchor="start" fill="#000000" shape-type="realdata" id="QH_MH_40TI_21133" font-size="12.500000" x="1231" y="430">XXXXXXXXXX</text>
<text font-family="Arial" text-anchor="start" fill="#000000" shape-type="realdata" id="QH_MH_40PI_21134" font-size="12.500000" x="1401" y="436">XXXXXXXXXX</text>
<text font-family="Arial" text-anchor="start" fill="#000000" shape-type="realdata" id="QH_MH_40TI_21134" font-size="12.500000" x="1349" y="517">XXXXXXXXXX</text>
<text font-family="Arial" text-anchor="start" fill="#000000" shape-type="realdata" id="QH_MH_40FI_21134" font-size="12.500000" x="1436" y="516">XXXXXXXXXX</text>
<a xlink:href="..\醚化醚解总图.svg">
<g shape-type="button">
<rect fill="#C0C0C0" stroke-width="0.3" stroke="#FFFFFF" x="1477" y="687" width="51" height="29" shape-type="buttonrect"/>
<text font-family="宋体" text-anchor="middle" dominant-baseline="middle" fill="#000000" font-size="13.500000" x="1502" y="707" shape-type="buttontext">返回</text>
</g>
</a>
</svg>