<?xml version="1.0" encoding="UTF-8"?>
<svg height="100%" width="100%" viewBox="0 0 64000 32000" version="1.1" xmlns="http://www.w3.org/2000/svg" xmlns:xlink="http://www.w3.org/1999/xlink" xmlns:PB="urn:osisoft-com-pb" xmlns:PBI="urn:osisoft-com-interface" xmlns:PBD="urn:osisoft-com-data" style="background-color:#B4B4B4">
  <title>SLSH_61</title>
  <defs>
    <PBD:TagUses tag="\\RTDBB\160_PT_40051">
      <PBI:Symbol name="DATAPOINT98" PB:Type="7" />
    </PBD:TagUses>
    <PBD:TagUses tag="\\RTDBB\160_FT_40055">
      <PBI:Symbol name="DATAPOINT99" PB:Type="7" />
    </PBD:TagUses>
  </defs>
  <path id="POLYGON137" d="M 54060 14080 l 0 -9320" stroke="#000000" stroke-width="40" fill="none" />
  <g id="TEXT224">
    <rect x="55640" y="21880" width="4000" height="1180" stroke-width="0" fill="#B4B4B4" id="TEXT224_pbTextBoundingRectEl" />
    <text fill="#000000" font-family="Helvetica" font-size="560" text-anchor="middle" x="57640" y="22750" id="TEXT224_pbTextEl">kg/h</text>
  </g>
  <g id="TEXT223">
    <rect x="54260" y="21000" width="4000" height="1180" stroke-width="0" fill="#B4B4B4" id="TEXT223_pbTextBoundingRectEl" />
    <text fill="#000000" font-family="Helvetica" font-size="560" text-anchor="middle" x="56260" y="21870" id="TEXT223_pbTextEl">LI40055</text>
  </g>
  <g id="TEXT8">
    <rect x="40900" y="23620" width="4000" height="1180" stroke-width="0" fill="#B4B4B4" id="TEXT8_pbTextBoundingRectEl" />
    <text fill="#000000" font-family="Helvetica" font-size="560" text-anchor="middle" x="42900" y="24490" id="TEXT8_pbTextEl">XZV40051D</text>
  </g>
  <g id="TEXT9">
    <rect x="34180" y="19200" width="3700" height="1600" stroke-width="0" fill="#B4B4B4" id="TEXT9_pbTextBoundingRectEl" />
    <text fill="#000000" font-family="Helvetica" font-size="560" text-anchor="middle" x="36030" y="20280" id="TEXT9_pbTextEl">PCV40056</text>
  </g>
  <g id="TEXT12">
    <rect x="24860" y="13980" width="4080" height="1680" stroke-width="0" fill="#B4B4B4" id="TEXT12_pbTextBoundingRectEl" />
    <text fill="#000000" font-family="Helvetica" font-size="560" text-anchor="middle" x="26900" y="15100" id="TEXT12_pbTextEl">XZV40051A</text>
  </g>
  <path d="M 9520 8640 l -80 300 0 60 -80 80 0 80 0 0 -20 0 -40 0 0 240 0 0 -100 0 -20 160 0 0 -80 0 0 0 0 0 -20 80 0 0 -40 0 0 140 -100 0 0 0 -60 0 0 0 0 0 -40 0 0 0 -20 0 -100 0 0 80 0 0 -40 0 -60 0 0 100 0 0 -20 0 0 0 0 0 -40 0 -100 0 0 0 0 0 -20 0 0 0 0 0 -100 0 0 0 -80 0 0 0 -60 0 -60 0 0 0 0 0 -40 0 0 0 0 0 -20 0 -100 0 0 0 0 0 -40 0 -60 -100 0 0 -20 0 0 0 -80 -80 0 0 0 0 -60 0 0 0 -60 0 0 0 -40 0 0 0 0 0 -20 -140 -100 0 0 0 -40 -80 0 0 0 0 -60 0 0 0 -40 -160 0 0 -60 0 0 -240 0 0 -60 0 -60 0 0 -80 0 -80 -40 -60 0 -300 0 -260 40 -140 0 -80 0 0 60 -140 60 -80 0 -180 0 0 60 0 0 0 40 -80 0 0 60 0 0 -60 0 0 40 0 0 0 100 0 20 0 0 -80 0 0 40 0 0 0 60 -220 0 0 60 0 0 0 0 0 80 0 0 0 20 -80 0 0 60 0 40 0 0 0 0 0 100 0 20 0 0 0 0 0 40 0 0 0 0 0 60 0 60 0 0 0 80 0 0 0 100 0 0 0 0 0 20 0 0 0 0 0 100 0 40 0 0 0 0 0 20 0 0 0 0 0 60 0 40 80 0 0 0 0 100 0 20 0 0 0 40 0 0 220 0 0 60 0 0 0 100 80 0 0 40 0 0 0 20 0 0 0 0 60 80 0 0 0 20 80 100 0 0 0 0 0 40 180 20 80 0 140 0 0 80 80 0 140 80 260 0 0" stroke="#000000" stroke-width="20" fill="#000000" />
  <path d="M 9360 8560 l -20 380 0 60 0 80 -40 80 -100 0 0 0 -20 0 0 240 0 0 -80 0 -20 160 0 0 0 0 -40 0 0 0 0 80 0 0 -100 0 -60 140 0 0 0 0 -40 0 0 0 0 0 -120 0 0 0 0 0 -40 0 0 80 0 0 -60 0 0 0 -20 100 0 0 0 0 -40 0 0 0 0 0 -100 0 0 0 -20 0 0 0 0 0 -80 0 0 0 -20 0 -80 0 0 0 -60 0 0 0 0 0 -60 0 -40 0 0 0 0 0 -20 0 0 0 0 0 0 0 -100 0 -40 -100 -60 0 0 0 0 0 0 -80 -20 0 -80 0 0 0 0 0 -60 0 0 0 0 0 -60 0 0 0 -40 -140 0 0 0 0 -20 -80 0 0 -100 0 -40 0 0 0 0 -160 0 0 -60 0 0 -240 -40 0 0 0 -60 0 0 -80 0 -80 -60 -60 0 -380 0 -180 60 -140 0 -80 0 -140 60 0 0 -80 40 -180 0 0 60 0 0 0 0 -80 0 0 40 -60 100 0 0 0 20 0 0 0 0 -80 40 0 0 0 60 0 0 -220 0 0 60 0 0 0 0 0 80 0 20 0 0 -80 0 0 0 0 60 0 40 0 100 0 0 0 0 0 0 0 20 0 0 0 0 0 40 0 60 -80 0 0 0 0 60 0 0 0 80 0 20 0 0 0 80 0 0 0 0 80 20 0 0 0 100 0 0 0 0 0 40 0 0 0 0 0 20 0 0 0 60 0 0 0 0 80 40 0 0 0 0 0 120 0 0 0 0 0 40 220 0 0 0 0 60 0 100 80 0 0 0 0 0 0 40 0 0 60 0 0 20 80 80 0 0 0 0 0 20 180 0 80 100 0 40 140 0 80 0 140 20 180 0 0" stroke="#3C3C3C" stroke-width="20" fill="#3C3C3C" />
  <path d="M 9200 8560 l -20 380 0 60 0 80 0 80 -80 0 -20 0 0 0 0 240 0 0 -40 0 0 160 0 0 0 0 -100 0 -60 0 0 80 0 0 0 0 -40 140 0 0 0 0 -120 0 0 0 0 0 0 0 -40 0 0 0 0 0 -60 80 0 0 -20 0 0 0 0 100 0 0 -40 0 0 0 0 0 -100 0 0 0 -20 0 0 0 0 0 -80 0 0 0 -20 0 0 0 -80 0 0 0 -60 0 0 0 0 0 -60 0 0 0 -40 0 0 0 0 0 0 0 -20 0 0 0 0 0 -100 -100 0 0 -40 0 0 0 -60 -80 0 0 0 0 -20 0 0 0 -80 0 0 0 0 0 -60 0 0 0 0 -140 0 0 -60 0 0 -80 -40 0 0 0 0 0 -20 0 0 -160 -100 0 0 0 -40 -240 0 0 0 0 -60 0 0 -80 0 -80 0 -60 -40 -380 40 -180 0 -140 0 -80 0 -140 60 0 0 -80 0 -180 40 0 0 0 100 0 0 -80 20 0 0 -60 0 0 40 0 0 0 60 0 0 -80 0 0 0 0 60 0 0 -220 0 0 80 0 0 0 20 0 0 0 0 0 60 -80 0 0 40 0 0 0 100 0 0 0 0 0 20 0 0 0 0 0 0 0 40 0 0 0 60 -80 0 0 0 0 60 0 0 0 80 0 0 0 20 0 0 0 80 0 0 80 0 0 20 0 0 0 100 0 0 0 0 0 40 0 0 0 0 0 0 0 20 0 0 0 60 80 0 0 0 0 40 0 0 0 0 0 0 0 120 220 0 0 0 0 40 0 0 80 0 0 0 0 60 0 100 0 0 60 0 0 0 80 40 0 0 0 0 0 0 180 20 80 80 0 0 140 0 80 0 140 20 180 0 0" stroke="#5A5A5A" stroke-width="20" fill="#5A5A5A" />
  <path d="M 9100 8560 l -20 380 0 60 0 80 0 80 -40 0 0 0 0 0 0 240 -100 0 -60 0 0 160 0 0 0 0 0 0 -40 0 0 80 0 0 0 0 -120 140 0 0 0 0 0 0 -40 0 0 0 0 0 0 0 -60 0 0 0 -20 80 0 0 0 0 0 0 -40 100 0 0 0 0 0 0 -100 0 0 0 -20 0 0 0 0 0 0 0 -80 0 0 0 -20 0 0 0 -80 0 0 0 -60 0 0 0 0 0 0 0 0 0 -60 0 -40 0 0 0 0 0 0 0 -20 0 0 0 0 -100 0 0 0 0 -100 0 -40 -80 0 0 -60 0 0 0 0 0 0 0 -20 0 0 0 -80 0 0 0 0 -140 0 0 -60 0 0 -80 0 0 0 0 -60 0 0 0 -40 -160 0 0 0 0 0 -240 0 0 -20 0 0 0 -100 -80 0 -80 -40 -60 0 -380 0 -180 40 -140 0 -80 100 -140 0 0 20 -80 0 -180 0 0 0 0 0 0 40 -80 0 0 60 -60 0 0 0 0 0 0 60 0 0 -80 0 0 0 0 80 0 0 -220 20 0 0 0 0 0 0 0 60 0 0 0 40 -80 100 0 0 0 0 0 0 0 0 0 20 0 0 0 0 0 0 0 40 0 60 0 0 0 0 -80 0 0 0 0 60 0 0 0 80 0 0 0 20 0 0 0 80 0 0 80 0 0 0 0 20 0 0 0 100 0 0 0 0 0 0 0 40 0 0 0 0 0 0 0 20 80 0 0 60 0 0 0 0 0 0 0 40 0 0 220 0 0 0 0 120 0 0 80 0 0 0 0 40 0 0 0 0 60 0 0 0 80 60 0 100 0 0 0 0 180 0 80 40 0 0 140 0 80 0 140 20 180 0 0" stroke="#808080" stroke-width="20" fill="#808080" />
  <path d="M 9040 8560 l -100 380 0 60 -60 80 0 80 0 0 0 0 0 0 -40 240 0 0 0 0 0 160 0 0 -120 0 0 0 0 0 0 80 0 0 -40 0 0 140 0 0 0 0 -60 0 0 0 0 0 -20 0 0 0 0 0 0 0 0 80 -40 0 0 0 0 0 0 100 0 0 -100 0 0 0 -20 0 0 0 0 0 0 0 0 0 -80 0 0 0 -20 0 0 0 -80 0 0 0 0 0 -60 0 0 0 0 0 0 0 0 0 -60 0 0 0 0 0 -40 0 0 0 0 0 0 0 -20 -100 0 0 0 0 0 0 0 -80 -100 0 0 0 0 0 -40 0 0 0 -60 0 0 0 0 0 0 0 0 -140 -20 0 0 0 -80 -80 0 0 0 0 0 0 0 0 -60 -160 0 0 0 0 0 -240 0 0 -60 0 0 0 -40 -80 0 -80 0 -60 0 -380 0 -180 0 -140 0 -80 40 -140 0 0 60 -80 0 -180 0 0 0 0 0 0 60 -80 0 0 0 -60 0 0 0 0 80 0 0 0 20 -80 0 0 0 0 0 0 0 -220 60 0 0 0 40 0 0 0 0 0 100 0 0 -80 0 0 0 0 0 0 20 0 0 0 0 0 0 0 40 0 0 0 0 0 60 0 0 0 0 -80 0 0 0 0 60 0 0 0 0 0 80 0 0 0 20 0 0 0 80 80 0 0 0 0 0 0 0 0 20 0 0 0 100 0 0 0 0 0 0 0 0 0 40 0 0 80 0 0 0 0 0 0 20 0 0 0 0 0 60 220 0 0 0 0 0 0 40 80 0 0 0 0 0 0 0 0 120 60 0 0 0 80 0 0 0 0 40 0 0 180 0 80 0 0 0 140 60 80 0 140 100 180 0 0" stroke="#969696" stroke-width="20" fill="#969696" />
  <path d="M 8840 8560 l 0 380 0 60 0 80 0 80 -120 0 0 0 0 0 0 240 0 0 0 0 -40 160 0 0 0 0 0 0 0 0 0 80 -60 0 0 0 0 140 -20 0 0 0 0 0 0 0 0 0 0 0 -40 0 0 0 0 0 0 80 0 0 0 0 -100 0 0 100 0 0 -20 0 0 0 0 0 0 0 0 0 -80 0 0 0 0 0 -20 0 0 0 0 0 -80 0 0 0 0 0 0 0 0 0 -60 0 0 0 0 0 0 0 0 0 -60 0 0 0 0 0 -40 0 0 0 0 -100 0 0 0 0 0 0 -20 -80 0 0 0 0 0 0 0 0 0 0 -100 0 0 0 0 0 -40 0 0 -140 0 0 -60 0 0 -80 0 0 0 0 0 0 0 0 -20 -160 0 0 0 0 -80 -240 0 0 0 0 0 0 0 -80 -60 -80 0 -60 0 -380 0 -180 0 -140 60 -80 0 -140 0 0 0 -80 0 -180 80 0 0 0 0 0 20 -80 0 0 0 -60 0 0 0 0 0 0 60 0 0 -80 0 0 40 0 0 0 0 -220 100 0 0 0 0 0 0 0 0 0 0 0 20 -80 0 0 0 0 0 0 0 0 0 0 40 0 0 0 0 0 60 0 0 0 0 0 0 0 0 -80 60 0 0 0 0 0 0 0 0 0 80 0 0 0 0 0 20 0 0 80 0 0 80 0 0 0 0 0 0 0 0 0 20 0 0 0 0 0 100 0 0 0 0 0 0 80 0 0 0 0 40 0 0 0 0 0 0 0 0 220 0 0 20 0 0 0 0 80 60 0 0 0 0 0 0 0 0 60 0 0 40 80 0 0 0 0 0 0 0 180 0 80 120 0 0 140 0 80 0 140 0 180 0 0" stroke="#C0C0C0" stroke-width="20" fill="#C0C0C0" />
  <path d="M 8720 8560 l -40 380 0 60 0 80 0 80 0 0 0 0 0 0 -60 240 0 0 0 0 0 160 -20 0 0 0 0 0 0 0 0 80 0 0 0 0 0 140 -40 0 0 0 0 0 0 0 0 0 0 0 0 0 -100 0 0 0 0 80 0 0 -20 0 0 0 0 100 0 0 0 0 0 0 0 0 0 0 -80 0 0 0 0 0 -20 0 0 0 0 0 0 0 -80 0 0 0 0 0 0 0 0 0 0 0 -60 0 0 0 0 0 0 0 0 0 0 0 0 0 0 0 -60 0 0 -100 0 0 -40 0 0 0 0 -80 0 0 0 0 0 0 0 0 0 0 -20 0 0 0 0 0 0 0 0 -140 0 0 0 0 0 -80 -100 0 0 0 0 0 -40 0 0 -160 0 0 0 0 -60 -240 0 0 0 0 0 0 0 -80 0 -80 0 -60 0 -380 0 -180 0 -140 0 -80 0 -140 0 0 0 -80 0 -180 60 0 0 0 0 0 0 -80 40 0 0 -60 0 0 100 0 0 0 0 0 0 -80 0 0 0 0 0 0 0 -220 20 0 0 0 0 0 0 0 0 0 0 0 0 -80 0 0 40 0 0 0 0 0 60 0 0 0 0 0 0 0 0 0 0 0 0 0 0 0 60 -80 0 0 0 0 0 0 0 0 0 0 80 0 0 0 0 0 0 0 20 80 0 0 0 0 80 0 0 0 0 0 0 0 0 0 0 0 0 0 0 0 20 0 0 0 0 80 0 0 100 0 0 0 0 0 0 0 0 0 0 220 0 0 40 0 0 0 0 80 0 0 0 0 0 0 0 0 0 60 20 0 0 80 0 0 0 0 60 0 0 180 0 80 0 0 0 140 0 80 0 140 40 180 0 0" stroke="#D2D2D2" stroke-width="20" fill="#D2D2D2" />
  <path d="M 8600 8560 l 0 380 0 60 0 80 0 80 0 0 0 0 0 0 -40 240 0 0 0 0 0 160 0 0 0 0 0 0 0 0 0 80 0 0 0 0 -100 140 0 0 0 0 0 0 0 0 -20 0 0 0 0 0 0 0 0 0 0 80 0 0 0 0 0 0 0 100 -80 0 0 0 0 0 0 0 0 0 0 0 -20 0 0 0 0 0 0 0 0 0 -80 0 0 0 0 0 0 0 0 0 0 0 0 0 0 0 0 0 -60 0 0 0 0 0 0 0 0 0 0 0 0 0 0 -100 0 0 0 0 -60 0 0 -80 0 0 0 0 0 0 -40 0 0 0 0 0 0 0 0 0 0 0 0 -140 0 0 0 0 0 -80 0 0 -20 0 0 0 0 0 0 -160 0 0 0 0 0 -240 0 0 0 0 0 0 0 -80 -100 -80 0 -60 0 -380 0 -180 0 -140 100 -80 0 -140 0 0 0 -80 0 -180 0 0 0 0 0 0 0 -80 0 0 0 -60 20 0 0 0 0 0 0 0 0 -80 0 0 0 0 0 0 0 -220 0 0 0 0 40 0 0 0 0 0 0 0 0 -80 60 0 0 0 0 0 0 0 0 0 0 0 0 0 0 0 0 0 0 0 60 0 0 0 0 -80 0 0 0 0 0 0 0 0 0 0 0 0 80 0 0 0 0 0 0 80 0 0 20 0 0 0 0 0 0 0 0 0 0 0 80 0 0 0 0 0 0 0 0 0 0 80 0 0 0 0 0 0 0 0 20 0 0 0 0 220 0 0 0 0 100 0 0 80 0 0 0 0 0 0 0 0 0 60 0 0 0 80 0 0 0 0 40 0 0 180 0 80 0 0 0 140 0 80 0 140 0 180 0 0" stroke="#DEDEDE" stroke-width="20" fill="#DEDEDE" />
  <path d="M 8560 8560 l 0 380 -100 60 0 80 0 80 0 0 0 0 0 0 0 240 0 0 0 0 -20 160 0 0 0 0 0 0 0 0 0 80 0 0 0 0 0 140 0 0 0 0 0 0 0 0 0 0 0 0 0 0 -80 0 0 0 0 80 0 0 0 0 0 0 0 100 0 0 0 0 -20 0 0 0 0 0 0 0 0 0 -80 0 0 0 0 0 0 0 0 0 0 0 0 0 0 0 0 0 0 0 0 0 0 0 0 0 0 0 0 0 0 0 -60 0 0 -100 0 0 0 0 0 0 0 -80 0 0 0 0 0 0 0 0 0 0 0 0 0 0 0 0 0 0 0 -140 0 0 -60 0 0 -80 0 0 0 0 0 0 0 0 0 -160 0 0 0 0 -40 -240 0 0 0 0 0 0 0 -80 0 -80 0 -60 0 -380 0 -180 0 -140 0 -80 0 -140 0 0 0 -80 0 -180 40 0 0 0 0 0 0 -80 0 0 0 -60 0 0 0 0 0 0 60 0 0 -80 0 0 0 0 0 0 0 -220 0 0 0 0 0 0 0 0 0 0 0 0 0 -80 0 0 0 0 0 0 0 0 60 0 0 0 0 0 0 0 0 0 0 0 0 0 0 0 0 -80 0 0 0 0 0 0 0 0 0 0 0 0 0 0 80 0 0 80 0 0 0 0 0 0 20 0 0 0 0 0 0 0 0 0 0 0 0 0 0 80 0 0 80 0 0 0 0 0 0 0 0 0 0 220 0 0 0 0 0 0 0 80 0 0 0 0 0 0 0 0 0 60 0 0 20 80 0 0 0 0 0 0 0 180 0 80 0 0 0 140 0 80 100 140 0 180 0 0" stroke="#F0F0F0" stroke-width="20" fill="#F0F0F0" />
  <path d="M 8360 8560 l 0 380 0 60 0 80 0 80 0 0 -20 0 0 0 0 240 0 0 0 0 0 160 0 0 0 0 0 0 0 0 0 80 0 0 0 0 0 140 0 0 0 0 0 0 0 0 0 0 0 0 0 0 0 0 0 0 0 80 0 0 0 0 -80 0 0 100 0 0 0 0 0 0 0 0 0 0 0 0 0 0 0 0 0 0 0 0 0 0 0 0 0 0 0 -100 0 0 0 0 0 0 0 -80 0 0 0 0 0 0 0 0 0 0 0 0 0 0 0 0 0 0 0 -140 0 0 0 0 0 -80 0 0 0 0 0 0 -60 0 0 -160 0 0 0 0 0 -240 0 0 0 0 0 0 0 -80 0 -80 0 -60 0 -380 0 -180 0 -140 0 -80 0 -140 0 0 0 -80 0 -180 0 0 0 0 0 0 0 -80 60 0 0 -60 0 0 0 0 0 0 0 0 0 -80 0 0 0 0 0 0 0 -220 0 0 0 0 0 0 0 0 0 0 0 0 0 -80 0 0 0 0 0 0 0 0 0 0 0 0 0 0 0 0 0 0 0 0 0 -80 0 0 0 0 0 0 0 0 0 80 0 0 0 0 0 0 0 0 0 0 0 0 0 0 0 0 80 0 0 0 0 0 0 80 0 0 0 0 0 0 0 0 0 0 0 0 0 220 0 0 0 0 0 0 0 80 0 0 0 0 0 0 0 0 0 60 0 0 0 80 0 0 0 0 0 0 0 180 20 80 0 0 0 140 0 80 0 140 0 180 0 0" stroke="#FFFFFF" stroke-width="20" fill="#FFFFFF" />
  <path d="M 8340 8380 l 0 0 0 4440 0 0 0 -4440 0 0" stroke="#FFFFFF" stroke-width="20" fill="#FFFFFF" />
  <path d="M 7140 8380 l 160 0 0 4440 -160 0 0 -4440 0 0" stroke="#000000" stroke-width="20" fill="#000000" />
  <path d="M 7300 8380 l 0 0 0 4440 0 0 0 -4440 0 0" stroke="#3C3C3C" stroke-width="20" fill="#3C3C3C" />
  <path d="M 7300 8380 l 160 0 0 4440 -160 0 0 -4440 0 0" stroke="#5A5A5A" stroke-width="20" fill="#5A5A5A" />
  <path d="M 7460 8380 l 160 0 0 4440 -160 0 0 -4440 0 0" stroke="#808080" stroke-width="20" fill="#808080" />
  <path d="M 7620 8380 l 160 0 0 4440 -160 0 0 -4440 0 0" stroke="#969696" stroke-width="20" fill="#969696" />
  <path d="M 7780 8380 l 0 0 0 4440 0 0 0 -4440 0 0" stroke="#C0C0C0" stroke-width="20" fill="#C0C0C0" />
  <path d="M 7780 8380 l 200 0 0 4440 -200 0 0 -4440 0 0" stroke="#D2D2D2" stroke-width="20" fill="#D2D2D2" />
  <path d="M 7980 8380 l 160 0 0 4440 -160 0 0 -4440 0 0" stroke="#DEDEDE" stroke-width="20" fill="#DEDEDE" />
  <path d="M 8140 8380 l 200 0 0 4440 -200 0 0 -4440 0 0" stroke="#F0F0F0" stroke-width="20" fill="#F0F0F0" />
  <path d="M 9520 8380 l -180 0 0 4440 180 0 0 -4440 0 0" stroke="#000000" stroke-width="20" fill="#000000" />
  <path d="M 9340 8380 l -160 0 0 4440 160 0 0 -4440 0 0" stroke="#3C3C3C" stroke-width="20" fill="#3C3C3C" />
  <path d="M 9180 8380 l 0 0 0 4440 0 0 0 -4440 0 0" stroke="#5A5A5A" stroke-width="20" fill="#5A5A5A" />
  <path d="M 9180 8380 l -140 0 0 4440 140 0 0 -4440 0 0" stroke="#808080" stroke-width="20" fill="#808080" />
  <path d="M 9040 8380 l -200 0 0 4440 200 0 0 -4440 0 0" stroke="#969696" stroke-width="20" fill="#969696" />
  <path d="M 8840 8380 l -220 0 0 4440 220 0 0 -4440 0 0" stroke="#C0C0C0" stroke-width="20" fill="#C0C0C0" />
  <path d="M 8620 8380 l 0 0 0 4440 0 0 0 -4440 0 0" stroke="#D2D2D2" stroke-width="20" fill="#D2D2D2" />
  <path d="M 8620 8380 l -160 0 0 4440 160 0 0 -4440 0 0" stroke="#DEDEDE" stroke-width="20" fill="#DEDEDE" />
  <path d="M 8460 8380 l -120 0 0 4440 120 0 0 -4440 0 0" stroke="#F0F0F0" stroke-width="20" fill="#F0F0F0" />
  <path d="M 7140 8380 l 2380 0" stroke="#000000" stroke-width="20" fill="none" />
  <path d="M 7140 12820 l 2380 0" stroke="#000000" stroke-width="20" fill="none" />
  <path d="M 14740 8560 l -100 300 0 80 -60 60 0 80 0 0 -20 0 -40 0 0 260 0 0 -100 0 -20 140 0 0 -80 0 0 0 0 0 -20 80 0 0 -40 0 0 160 -100 0 0 0 -60 0 0 0 0 0 -40 0 0 0 -20 0 -100 0 0 80 0 0 -40 0 -60 0 0 100 0 0 -20 0 0 0 0 0 -40 0 -100 0 0 0 0 0 -20 0 0 0 0 0 -100 0 0 0 -80 0 0 0 -60 0 -60 0 0 0 0 0 -40 0 0 0 0 0 -20 0 -100 0 0 0 0 0 -40 0 -60 -100 0 0 -40 0 0 0 -60 -80 0 0 0 0 -60 0 0 0 -60 0 0 0 -40 0 0 0 0 0 -20 -160 -100 0 0 0 -40 -80 0 0 0 0 -60 0 0 0 -40 -140 0 0 -60 0 0 -260 0 0 -60 0 -60 0 0 -80 0 -60 -40 -80 0 -300 0 -260 40 -160 0 -60 0 0 60 -160 60 -80 0 -180 0 0 60 0 0 0 40 -60 0 0 60 0 0 -80 0 0 40 0 0 0 100 0 20 0 0 -80 0 0 40 0 0 0 60 -220 0 0 60 0 0 0 0 0 60 0 0 0 40 -80 0 0 60 0 40 0 0 0 0 0 100 0 20 0 0 0 0 0 40 0 0 0 0 0 60 0 60 0 0 0 80 0 0 0 100 0 0 0 0 0 20 0 0 0 0 0 100 0 40 0 0 0 0 0 20 0 0 0 0 0 60 0 40 80 0 0 0 0 100 0 20 0 0 0 40 0 0 220 0 0 60 0 0 0 100 80 0 0 40 0 0 0 20 0 0 0 0 80 80 0 0 0 20 60 100 0 0 0 0 0 40 180 20 80 0 160 0 0 60 60 0 160 100 260 0 0" stroke="#000000" stroke-width="20" fill="#000000" />
  <path d="M 14580 8480 l -20 380 0 80 0 60 -40 80 -100 0 0 0 -20 0 0 260 0 0 -80 0 -20 140 0 0 0 0 -40 0 0 0 0 80 0 0 -100 0 -60 160 0 0 0 0 -40 0 0 0 0 0 -120 0 0 0 0 0 -40 0 0 80 0 0 -60 0 0 0 -20 100 0 0 0 0 -40 0 0 0 0 0 -100 0 0 0 -20 0 0 0 0 0 -80 0 0 0 -20 0 -80 0 0 0 -60 0 0 0 0 0 -60 0 -40 0 0 0 0 0 -20 0 0 0 0 0 0 0 -100 0 -40 -100 -60 0 0 0 0 0 0 -80 -40 0 -60 0 0 0 0 0 -60 0 0 0 0 0 -60 0 0 0 -40 -160 0 0 0 0 -20 -80 0 0 -100 0 -40 0 0 0 0 -140 0 0 -60 0 0 -260 -40 0 0 0 -60 0 0 -80 0 -60 -60 -80 0 -380 0 -180 60 -160 0 -60 0 -160 60 0 0 -80 40 -180 0 0 60 0 0 0 0 -60 0 0 40 -80 100 0 0 0 20 0 0 0 0 -80 40 0 0 0 60 0 0 -220 0 0 60 0 0 0 0 0 60 0 40 0 0 -80 0 0 0 0 60 0 40 0 100 0 0 0 0 0 0 0 20 0 0 0 0 0 40 0 60 -80 0 0 0 0 60 0 0 0 80 0 20 0 0 0 80 0 0 0 0 80 20 0 0 0 100 0 0 0 0 0 40 0 0 0 0 0 20 0 0 0 60 0 0 0 0 80 40 0 0 0 0 0 120 0 0 0 0 0 40 220 0 0 0 0 60 0 100 80 0 0 0 0 0 0 40 0 0 80 0 0 20 60 80 0 0 0 0 0 20 180 0 80 100 0 40 160 0 60 0 160 20 180 0 0" stroke="#3C3C3C" stroke-width="20" fill="#3C3C3C" />
  <path d="M 14420 8480 l -20 380 0 80 0 60 0 80 -80 0 -20 0 0 0 0 260 0 0 -40 0 0 140 0 0 0 0 -100 0 -60 0 0 80 0 0 0 0 -40 160 0 0 0 0 -120 0 0 0 0 0 0 0 -40 0 0 0 0 0 -60 80 0 0 -20 0 0 0 0 100 0 0 -40 0 0 0 0 0 -100 0 0 0 -20 0 0 0 0 0 -80 0 0 0 -20 0 0 0 -80 0 0 0 -60 0 0 0 0 0 -60 0 0 0 -40 0 0 0 0 0 0 0 -20 0 0 0 0 0 -100 -100 0 0 -40 0 0 0 -60 -80 0 0 0 0 -40 0 0 0 -60 0 0 0 0 0 -60 0 0 0 0 -160 0 0 -60 0 0 -80 -40 0 0 0 0 0 -20 0 0 -140 -100 0 0 0 -40 -260 0 0 0 0 -60 0 0 -80 0 -60 0 -80 -40 -380 40 -180 0 -160 0 -60 0 -160 60 0 0 -80 0 -180 40 0 0 0 100 0 0 -60 20 0 0 -80 0 0 40 0 0 0 60 0 0 -80 0 0 0 0 60 0 0 -220 0 0 60 0 0 0 40 0 0 0 0 0 60 -80 0 0 40 0 0 0 100 0 0 0 0 0 20 0 0 0 0 0 0 0 40 0 0 0 60 -80 0 0 0 0 60 0 0 0 80 0 0 0 20 0 0 0 80 0 0 80 0 0 20 0 0 0 100 0 0 0 0 0 40 0 0 0 0 0 0 0 20 0 0 0 60 80 0 0 0 0 40 0 0 0 0 0 0 0 120 220 0 0 0 0 40 0 0 80 0 0 0 0 60 0 100 0 0 80 0 0 0 60 40 0 0 0 0 0 0 180 20 80 80 0 0 160 0 60 0 160 20 180 0 0" stroke="#5A5A5A" stroke-width="20" fill="#5A5A5A" />
  <path d="M 14320 8480 l -20 380 0 80 0 60 0 80 -40 0 0 0 0 0 0 260 -100 0 -60 0 0 140 0 0 0 0 0 0 -40 0 0 80 0 0 0 0 -120 160 0 0 0 0 0 0 -40 0 0 0 0 0 0 0 -60 0 0 0 -20 80 0 0 0 0 0 0 -40 100 0 0 0 0 0 0 -100 0 0 0 -20 0 0 0 0 0 0 0 -80 0 0 0 -20 0 0 0 -80 0 0 0 -60 0 0 0 0 0 0 0 0 0 -60 0 -40 0 0 0 0 0 0 0 -20 0 0 0 0 -100 0 0 0 0 -100 0 -40 -80 0 0 -60 0 0 0 0 0 0 0 -40 0 0 0 -60 0 0 0 0 -160 0 0 -60 0 0 -80 0 0 0 0 -60 0 0 0 -40 -140 0 0 0 0 0 -260 0 0 -20 0 0 0 -100 -80 0 -60 -40 -80 0 -380 0 -180 40 -160 0 -60 100 -160 0 0 20 -80 0 -180 0 0 0 0 0 0 40 -60 0 0 60 -80 0 0 0 0 0 0 60 0 0 -80 0 0 0 0 60 0 0 -220 40 0 0 0 0 0 0 0 60 0 0 0 40 -80 100 0 0 0 0 0 0 0 0 0 20 0 0 0 0 0 0 0 40 0 60 0 0 0 0 -80 0 0 0 0 60 0 0 0 80 0 0 0 20 0 0 0 80 0 0 80 0 0 0 0 20 0 0 0 100 0 0 0 0 0 0 0 40 0 0 0 0 0 0 0 20 80 0 0 60 0 0 0 0 0 0 0 40 0 0 220 0 0 0 0 120 0 0 80 0 0 0 0 40 0 0 0 0 80 0 0 0 60 60 0 100 0 0 0 0 180 0 80 40 0 0 160 0 60 0 160 20 180 0 0" stroke="#808080" stroke-width="20" fill="#808080" />
  <path d="M 14260 8480 l -100 380 0 80 -60 60 0 80 0 0 0 0 0 0 -40 260 0 0 0 0 0 140 0 0 -120 0 0 0 0 0 0 80 0 0 -40 0 0 160 0 0 0 0 -60 0 0 0 0 0 -20 0 0 0 0 0 0 0 0 80 -40 0 0 0 0 0 0 100 0 0 -100 0 0 0 -20 0 0 0 0 0 0 0 0 0 -80 0 0 0 -20 0 0 0 -80 0 0 0 0 0 -60 0 0 0 0 0 0 0 0 0 -60 0 0 0 0 0 -40 0 0 0 0 0 0 0 -20 -100 0 0 0 0 0 0 0 -80 -100 0 0 0 0 0 -40 0 0 0 -60 0 0 0 0 0 0 0 0 -160 -40 0 0 0 -60 -80 0 0 0 0 0 0 0 0 -60 -140 0 0 0 0 0 -260 0 0 -60 0 0 0 -40 -80 0 -60 0 -80 0 -380 0 -180 0 -160 0 -60 40 -160 0 0 60 -80 0 -180 0 0 0 0 0 0 60 -60 0 0 0 -80 0 0 0 0 60 0 0 0 40 -80 0 0 0 0 0 0 0 -220 60 0 0 0 40 0 0 0 0 0 100 0 0 -80 0 0 0 0 0 0 20 0 0 0 0 0 0 0 40 0 0 0 0 0 60 0 0 0 0 -80 0 0 0 0 60 0 0 0 0 0 80 0 0 0 20 0 0 0 80 80 0 0 0 0 0 0 0 0 20 0 0 0 100 0 0 0 0 0 0 0 0 0 40 0 0 80 0 0 0 0 0 0 20 0 0 0 0 0 60 220 0 0 0 0 0 0 40 80 0 0 0 0 0 0 0 0 120 80 0 0 0 60 0 0 0 0 40 0 0 180 0 80 0 0 0 160 60 60 0 160 100 180 0 0" stroke="#969696" stroke-width="20" fill="#969696" />
  <path d="M 14060 8480 l 0 380 0 80 0 60 0 80 -120 0 0 0 0 0 0 260 0 0 0 0 -40 140 0 0 0 0 0 0 0 0 0 80 -60 0 0 0 0 160 -20 0 0 0 0 0 0 0 0 0 0 0 -40 0 0 0 0 0 0 80 0 0 0 0 -100 0 0 100 0 0 -20 0 0 0 0 0 0 0 0 0 -80 0 0 0 0 0 -20 0 0 0 0 0 -80 0 0 0 0 0 0 0 0 0 -60 0 0 0 0 0 0 0 0 0 -60 0 0 0 0 0 -40 0 0 0 0 -100 0 0 0 0 0 0 -20 -80 0 0 0 0 0 0 0 0 0 0 -100 0 0 0 0 0 -40 0 0 -160 0 0 -60 0 0 -80 0 0 0 0 0 0 0 0 -40 -140 0 0 0 0 -60 -260 0 0 0 0 0 0 0 -80 -60 -60 0 -80 0 -380 0 -180 0 -160 60 -60 0 -160 0 0 0 -80 0 -180 60 0 0 0 0 0 40 -60 0 0 0 -80 0 0 0 0 0 0 60 0 0 -80 0 0 40 0 0 0 0 -220 100 0 0 0 0 0 0 0 0 0 0 0 20 -80 0 0 0 0 0 0 0 0 0 0 40 0 0 0 0 0 60 0 0 0 0 0 0 0 0 -80 60 0 0 0 0 0 0 0 0 0 80 0 0 0 0 0 20 0 0 80 0 0 80 0 0 0 0 0 0 0 0 0 20 0 0 0 0 0 100 0 0 0 0 0 0 80 0 0 0 0 40 0 0 0 0 0 0 0 0 220 0 0 20 0 0 0 0 80 60 0 0 0 0 0 0 0 0 80 0 0 40 60 0 0 0 0 0 0 0 180 0 80 120 0 0 160 0 60 0 160 0 180 0 0" stroke="#C0C0C0" stroke-width="20" fill="#C0C0C0" />
  <path d="M 13940 8480 l -40 380 0 80 0 60 0 80 0 0 0 0 0 0 -60 260 0 0 0 0 0 140 -20 0 0 0 0 0 0 0 0 80 0 0 0 0 0 160 -40 0 0 0 0 0 0 0 0 0 0 0 0 0 -100 0 0 0 0 80 0 0 -20 0 0 0 0 100 0 0 0 0 0 0 0 0 0 0 -80 0 0 0 0 0 -20 0 0 0 0 0 0 0 -80 0 0 0 0 0 0 0 0 0 0 0 -60 0 0 0 0 0 0 0 0 0 0 0 0 0 0 0 -60 0 0 -100 0 0 -40 0 0 0 0 -80 0 0 0 0 0 0 0 0 0 0 -20 0 0 0 0 0 0 0 0 -160 0 0 0 0 0 -80 -100 0 0 0 0 0 -40 0 0 -140 0 0 0 0 -60 -260 0 0 0 0 0 0 0 -80 0 -60 0 -80 0 -380 0 -180 0 -160 0 -60 0 -160 0 0 0 -80 0 -180 60 0 0 0 0 0 0 -60 40 0 0 -80 0 0 100 0 0 0 0 0 0 -80 0 0 0 0 0 0 0 -220 20 0 0 0 0 0 0 0 0 0 0 0 0 -80 0 0 40 0 0 0 0 0 60 0 0 0 0 0 0 0 0 0 0 0 0 0 0 0 60 -80 0 0 0 0 0 0 0 0 0 0 80 0 0 0 0 0 0 0 20 80 0 0 0 0 80 0 0 0 0 0 0 0 0 0 0 0 0 0 0 0 20 0 0 0 0 80 0 0 100 0 0 0 0 0 0 0 0 0 0 220 0 0 40 0 0 0 0 80 0 0 0 0 0 0 0 0 0 80 20 0 0 60 0 0 0 0 60 0 0 180 0 80 0 0 0 160 0 60 0 160 40 180 0 0" stroke="#D2D2D2" stroke-width="20" fill="#D2D2D2" />
  <path d="M 13820 8480 l 0 380 0 80 0 60 0 80 0 0 0 0 0 0 -40 260 0 0 0 0 0 140 0 0 0 0 0 0 0 0 0 80 0 0 0 0 -100 160 0 0 0 0 0 0 0 0 -20 0 0 0 0 0 0 0 0 0 0 80 0 0 0 0 0 0 0 100 -80 0 0 0 0 0 0 0 0 0 0 0 -20 0 0 0 0 0 0 0 0 0 -80 0 0 0 0 0 0 0 0 0 0 0 0 0 0 0 0 0 -60 0 0 0 0 0 0 0 0 0 0 0 0 0 0 -100 0 0 0 0 -60 0 0 -80 0 0 0 0 0 0 -40 0 0 0 0 0 0 0 0 0 0 0 0 -160 0 0 0 0 0 -80 0 0 -20 0 0 0 0 0 0 -140 0 0 0 0 0 -260 0 0 0 0 0 0 0 -80 -100 -60 0 -80 0 -380 0 -180 0 -160 100 -60 0 -160 0 0 0 -80 0 -180 0 0 0 0 0 0 0 -60 0 0 0 -80 20 0 0 0 0 0 0 0 0 -80 0 0 0 0 0 0 0 -220 0 0 0 0 40 0 0 0 0 0 0 0 0 -80 60 0 0 0 0 0 0 0 0 0 0 0 0 0 0 0 0 0 0 0 60 0 0 0 0 -80 0 0 0 0 0 0 0 0 0 0 0 0 80 0 0 0 0 0 0 80 0 0 20 0 0 0 0 0 0 0 0 0 0 0 80 0 0 0 0 0 0 0 0 0 0 80 0 0 0 0 0 0 0 0 20 0 0 0 0 220 0 0 0 0 100 0 0 80 0 0 0 0 0 0 0 0 0 80 0 0 0 60 0 0 0 0 40 0 0 180 0 80 0 0 0 160 0 60 0 160 0 180 0 0" stroke="#DEDEDE" stroke-width="20" fill="#DEDEDE" />
  <path d="M 13780 8480 l 0 380 -100 80 0 60 0 80 0 0 0 0 0 0 0 260 0 0 0 0 -20 140 0 0 0 0 0 0 0 0 0 80 0 0 0 0 0 160 0 0 0 0 0 0 0 0 0 0 0 0 0 0 -80 0 0 0 0 80 0 0 0 0 0 0 0 100 0 0 0 0 -20 0 0 0 0 0 0 0 0 0 -80 0 0 0 0 0 0 0 0 0 0 0 0 0 0 0 0 0 0 0 0 0 0 0 0 0 0 0 0 0 0 0 -60 0 0 -100 0 0 0 0 0 0 0 -80 0 0 0 0 0 0 0 0 0 0 0 0 0 0 0 0 0 0 0 -160 0 0 -60 0 0 -80 0 0 0 0 0 0 0 0 0 -140 0 0 0 0 -40 -260 0 0 0 0 0 0 0 -80 0 -60 0 -80 0 -380 0 -180 0 -160 0 -60 0 -160 0 0 0 -80 0 -180 40 0 0 0 0 0 0 -60 0 0 0 -80 0 0 0 0 0 0 60 0 0 -80 0 0 0 0 0 0 0 -220 0 0 0 0 0 0 0 0 0 0 0 0 0 -80 0 0 0 0 0 0 0 0 60 0 0 0 0 0 0 0 0 0 0 0 0 0 0 0 0 -80 0 0 0 0 0 0 0 0 0 0 0 0 0 0 80 0 0 80 0 0 0 0 0 0 20 0 0 0 0 0 0 0 0 0 0 0 0 0 0 80 0 0 80 0 0 0 0 0 0 0 0 0 0 220 0 0 0 0 0 0 0 80 0 0 0 0 0 0 0 0 0 80 0 0 20 60 0 0 0 0 0 0 0 180 0 80 0 0 0 160 0 60 100 160 0 180 0 0" stroke="#F0F0F0" stroke-width="20" fill="#F0F0F0" />
  <path d="M 13580 8480 l 0 380 0 80 0 60 0 80 0 0 -20 0 0 0 0 260 0 0 0 0 0 140 0 0 0 0 0 0 0 0 0 80 0 0 0 0 0 160 0 0 0 0 0 0 0 0 0 0 0 0 0 0 0 0 0 0 0 80 0 0 0 0 -80 0 0 100 0 0 0 0 0 0 0 0 0 0 0 0 0 0 0 0 0 0 0 0 0 0 0 0 0 0 0 -100 0 0 0 0 0 0 0 -80 0 0 0 0 0 0 0 0 0 0 0 0 0 0 0 0 0 0 0 -160 0 0 0 0 0 -80 0 0 0 0 0 0 -60 0 0 -140 0 0 0 0 0 -260 0 0 0 0 0 0 0 -80 0 -60 0 -80 0 -380 0 -180 0 -160 0 -60 0 -160 0 0 0 -80 0 -180 0 0 0 0 0 0 0 -60 60 0 0 -80 0 0 0 0 0 0 0 0 0 -80 0 0 0 0 0 0 0 -220 0 0 0 0 0 0 0 0 0 0 0 0 0 -80 0 0 0 0 0 0 0 0 0 0 0 0 0 0 0 0 0 0 0 0 0 -80 0 0 0 0 0 0 0 0 0 80 0 0 0 0 0 0 0 0 0 0 0 0 0 0 0 0 80 0 0 0 0 0 0 80 0 0 0 0 0 0 0 0 0 0 0 0 0 220 0 0 0 0 0 0 0 80 0 0 0 0 0 0 0 0 0 80 0 0 0 60 0 0 0 0 0 0 0 180 20 80 0 0 0 160 0 60 0 160 0 180 0 0" stroke="#FFFFFF" stroke-width="20" fill="#FFFFFF" />
  <path d="M 13560 8300 l 0 0 0 4500 0 0 0 -4500 0 0" stroke="#FFFFFF" stroke-width="20" fill="#FFFFFF" />
  <path d="M 12360 8300 l 160 0 0 4500 -160 0 0 -4500 0 0" stroke="#000000" stroke-width="20" fill="#000000" />
  <path d="M 12520 8300 l 0 0 0 4500 0 0 0 -4500 0 0" stroke="#3C3C3C" stroke-width="20" fill="#3C3C3C" />
  <path d="M 12520 8300 l 160 0 0 4500 -160 0 0 -4500 0 0" stroke="#5A5A5A" stroke-width="20" fill="#5A5A5A" />
  <path d="M 12680 8300 l 160 0 0 4500 -160 0 0 -4500 0 0" stroke="#808080" stroke-width="20" fill="#808080" />
  <path d="M 12840 8300 l 160 0 0 4500 -160 0 0 -4500 0 0" stroke="#969696" stroke-width="20" fill="#969696" />
  <path d="M 13000 8300 l 0 0 0 4500 0 0 0 -4500 0 0" stroke="#C0C0C0" stroke-width="20" fill="#C0C0C0" />
  <path d="M 13000 8300 l 200 0 0 4500 -200 0 0 -4500 0 0" stroke="#D2D2D2" stroke-width="20" fill="#D2D2D2" />
  <path d="M 13200 8300 l 160 0 0 4500 -160 0 0 -4500 0 0" stroke="#DEDEDE" stroke-width="20" fill="#DEDEDE" />
  <path d="M 13360 8300 l 200 0 0 4500 -200 0 0 -4500 0 0" stroke="#F0F0F0" stroke-width="20" fill="#F0F0F0" />
  <path d="M 14740 8300 l -180 0 0 4500 180 0 0 -4500 0 0" stroke="#000000" stroke-width="20" fill="#000000" />
  <path d="M 14560 8300 l -160 0 0 4500 160 0 0 -4500 0 0" stroke="#3C3C3C" stroke-width="20" fill="#3C3C3C" />
  <path d="M 14400 8300 l 0 0 0 4500 0 0 0 -4500 0 0" stroke="#5A5A5A" stroke-width="20" fill="#5A5A5A" />
  <path d="M 14400 8300 l -140 0 0 4500 140 0 0 -4500 0 0" stroke="#808080" stroke-width="20" fill="#808080" />
  <path d="M 14260 8300 l -200 0 0 4500 200 0 0 -4500 0 0" stroke="#969696" stroke-width="20" fill="#969696" />
  <path d="M 14060 8300 l -220 0 0 4500 220 0 0 -4500 0 0" stroke="#C0C0C0" stroke-width="20" fill="#C0C0C0" />
  <path d="M 13840 8300 l 0 0 0 4500 0 0 0 -4500 0 0" stroke="#D2D2D2" stroke-width="20" fill="#D2D2D2" />
  <path d="M 13840 8300 l -160 0 0 4500 160 0 0 -4500 0 0" stroke="#DEDEDE" stroke-width="20" fill="#DEDEDE" />
  <path d="M 13680 8300 l -120 0 0 4500 120 0 0 -4500 0 0" stroke="#F0F0F0" stroke-width="20" fill="#F0F0F0" />
  <path d="M 12360 8300 l 2380 0" stroke="#000000" stroke-width="20" fill="none" />
  <path d="M 12360 12800 l 2380 0" stroke="#000000" stroke-width="20" fill="none" />
  <path d="M 9500 20120 l -80 300 0 80 -80 80 0 80 0 0 -20 0 -40 0 0 260 0 0 -100 0 -20 140 0 0 -80 0 0 0 0 0 -20 80 0 0 -40 0 0 160 -100 0 0 0 -60 0 0 0 0 0 -40 0 0 0 -20 0 -100 0 0 80 0 0 -40 0 -60 0 0 60 0 0 -20 0 0 0 0 0 -40 0 -100 0 0 0 0 0 -20 0 0 0 0 0 -100 0 0 0 -80 0 0 0 -60 0 -60 0 0 0 0 0 -40 0 0 0 0 0 -20 0 -100 0 0 0 0 0 -40 0 -60 -60 0 0 -20 0 0 0 -80 -80 0 0 0 0 -60 0 0 0 -60 0 0 0 -40 0 0 0 0 0 -20 -160 -100 0 0 0 -40 -80 0 0 0 0 -60 0 0 0 -40 -140 0 0 -60 0 0 -260 0 0 -60 0 -60 0 0 -80 0 -80 -40 -80 0 -300 0 -260 40 -140 0 -80 0 0 60 -160 60 -80 0 -180 0 0 60 0 0 0 40 -60 0 0 60 0 0 -80 0 0 40 0 0 0 100 0 20 0 0 -80 0 0 40 0 0 0 60 -240 0 0 60 0 0 0 0 0 80 0 0 0 20 -60 0 0 60 0 40 0 0 0 0 0 100 0 20 0 0 0 0 0 40 0 0 0 0 0 60 0 60 0 0 0 80 0 0 0 100 0 0 0 0 0 20 0 0 0 0 0 100 0 40 0 0 0 0 0 20 0 0 0 0 0 60 0 40 60 0 0 0 0 100 0 20 0 0 0 40 0 0 240 0 0 60 0 0 0 100 80 0 0 40 0 0 0 20 0 0 0 0 80 80 0 0 0 20 60 100 0 0 0 0 0 40 180 20 80 0 160 0 0 80 80 0 140 80 260 0 0" stroke="#000000" stroke-width="20" fill="#000000" />
  <path d="M 9340 20020 l -20 400 0 80 0 80 -40 80 -100 0 0 0 -20 0 0 260 0 0 -80 0 -20 140 0 0 0 0 -40 0 0 0 0 80 0 0 -100 0 -60 160 0 0 0 0 -40 0 0 0 0 0 -120 0 0 0 0 0 -40 0 0 80 0 0 -60 0 0 0 -20 60 0 0 0 0 -40 0 0 0 0 0 -100 0 0 0 -20 0 0 0 0 0 -80 0 0 0 -20 0 -80 0 0 0 -60 0 0 0 0 0 -60 0 -40 0 0 0 0 0 -20 0 0 0 0 0 0 0 -100 0 -40 -60 -60 0 0 0 0 0 0 -80 -20 0 -80 0 0 0 0 0 -60 0 0 0 0 0 -60 0 0 0 -40 -160 0 0 0 0 -20 -80 0 0 -100 0 -40 0 0 0 0 -140 0 0 -60 0 0 -260 -40 0 0 0 -60 0 0 -80 0 -80 -60 -80 0 -400 0 -160 60 -140 0 -80 0 -160 60 0 0 -80 40 -180 0 0 60 0 0 0 0 -60 0 0 40 -80 100 0 0 0 20 0 0 0 0 -80 40 0 0 0 60 0 0 -240 0 0 60 0 0 0 0 0 80 0 20 0 0 -60 0 0 0 0 60 0 40 0 100 0 0 0 0 0 0 0 20 0 0 0 0 0 40 0 60 -100 0 0 0 0 60 0 0 0 80 0 20 0 0 0 80 0 0 0 0 100 20 0 0 0 100 0 0 0 0 0 40 0 0 0 0 0 20 0 0 0 60 0 0 0 0 60 40 0 0 0 0 0 120 0 0 0 0 0 40 240 0 0 0 0 60 0 100 80 0 0 0 0 0 0 40 0 0 80 0 0 20 60 80 0 0 0 0 0 20 180 0 80 100 0 40 160 0 80 0 140 20 160 0 0" stroke="#3C3C3C" stroke-width="20" fill="#3C3C3C" />
  <path d="M 9180 20020 l -20 400 0 80 0 80 0 80 -80 0 -20 0 0 0 0 260 0 0 -40 0 0 140 0 0 0 0 -100 0 -60 0 0 80 0 0 0 0 -40 160 0 0 0 0 -120 0 0 0 0 0 0 0 -40 0 0 0 0 0 -60 80 0 0 -20 0 0 0 0 60 0 0 -40 0 0 0 0 0 -100 0 0 0 -20 0 0 0 0 0 -80 0 0 0 -20 0 0 0 -80 0 0 0 -60 0 0 0 0 0 -60 0 0 0 -40 0 0 0 0 0 0 0 -20 0 0 0 0 0 -100 -60 0 0 -40 0 0 0 -60 -80 0 0 0 0 -20 0 0 0 -80 0 0 0 0 0 -60 0 0 0 0 -160 0 0 -60 0 0 -80 -40 0 0 0 0 0 -20 0 0 -140 -100 0 0 0 -40 -260 0 0 0 0 -60 0 0 -80 0 -80 0 -80 -40 -400 40 -160 0 -140 0 -80 0 -160 60 0 0 -80 0 -180 40 0 0 0 100 0 0 -60 20 0 0 -80 0 0 40 0 0 0 60 0 0 -80 0 0 0 0 60 0 0 -240 0 0 80 0 0 0 20 0 0 0 0 0 60 -60 0 0 40 0 0 0 100 0 0 0 0 0 20 0 0 0 0 0 0 0 40 0 0 0 60 -100 0 0 0 0 60 0 0 0 80 0 0 0 20 0 0 0 80 0 0 100 0 0 20 0 0 0 100 0 0 0 0 0 40 0 0 0 0 0 0 0 20 0 0 0 60 60 0 0 0 0 40 0 0 0 0 0 0 0 120 240 0 0 0 0 40 0 0 80 0 0 0 0 60 0 100 0 0 80 0 0 0 60 40 0 0 0 0 0 0 180 20 80 80 0 0 160 0 80 0 140 20 160 0 0" stroke="#5A5A5A" stroke-width="20" fill="#5A5A5A" />
  <path d="M 9080 20020 l -20 400 0 80 0 80 0 80 -40 0 0 0 0 0 0 260 -100 0 -60 0 0 140 0 0 0 0 0 0 -40 0 0 80 0 0 0 0 -120 160 0 0 0 0 0 0 -40 0 0 0 0 0 0 0 -60 0 0 0 -20 80 0 0 0 0 0 0 -40 60 0 0 0 0 0 0 -100 0 0 0 -20 0 0 0 0 0 0 0 -80 0 0 0 -20 0 0 0 -80 0 0 0 -60 0 0 0 0 0 0 0 0 0 -60 0 -40 0 0 0 0 0 0 0 -20 0 0 0 0 -60 0 0 0 0 -100 0 -40 -80 0 0 -60 0 0 0 0 0 0 0 -20 0 0 0 -80 0 0 0 0 -160 0 0 -60 0 0 -80 0 0 0 0 -60 0 0 0 -40 -140 0 0 0 0 0 -260 0 0 -20 0 0 0 -100 -80 0 -80 -40 -80 0 -400 0 -160 40 -140 0 -80 100 -160 0 0 20 -80 0 -180 0 0 0 0 0 0 40 -60 0 0 60 -80 0 0 0 0 0 0 60 0 0 -80 0 0 0 0 80 0 0 -240 20 0 0 0 0 0 0 0 60 0 0 0 40 -60 100 0 0 0 0 0 0 0 0 0 20 0 0 0 0 0 0 0 40 0 60 0 0 0 0 -100 0 0 0 0 60 0 0 0 80 0 0 0 20 0 0 0 80 0 0 100 0 0 0 0 20 0 0 0 100 0 0 0 0 0 0 0 40 0 0 0 0 0 0 0 20 60 0 0 60 0 0 0 0 0 0 0 40 0 0 240 0 0 0 0 120 0 0 80 0 0 0 0 40 0 0 0 0 80 0 0 0 60 60 0 100 0 0 0 0 180 0 80 40 0 0 160 0 80 0 140 20 160 0 0" stroke="#808080" stroke-width="20" fill="#808080" />
  <path d="M 9020 20020 l -100 400 0 80 -60 80 0 80 0 0 0 0 0 0 -40 260 0 0 0 0 0 140 0 0 -120 0 0 0 0 0 0 80 0 0 -40 0 0 160 0 0 0 0 -60 0 0 0 0 0 -20 0 0 0 0 0 0 0 0 80 -40 0 0 0 0 0 0 60 0 0 -100 0 0 0 -20 0 0 0 0 0 0 0 0 0 -80 0 0 0 -20 0 0 0 -80 0 0 0 0 0 -60 0 0 0 0 0 0 0 0 0 -60 0 0 0 0 0 -40 0 0 0 0 0 0 0 -20 -60 0 0 0 0 0 0 0 -80 -100 0 0 0 0 0 -40 0 0 0 -60 0 0 0 0 0 0 0 0 -160 -20 0 0 0 -80 -80 0 0 0 0 0 0 0 0 -60 -140 0 0 0 0 0 -260 0 0 -60 0 0 0 -40 -80 0 -80 0 -80 0 -400 0 -160 0 -140 0 -80 40 -160 0 0 60 -80 0 -180 0 0 0 0 0 0 60 -60 0 0 0 -80 0 0 0 0 80 0 0 0 20 -80 0 0 0 0 0 0 0 -240 60 0 0 0 40 0 0 0 0 0 100 0 0 -60 0 0 0 0 0 0 20 0 0 0 0 0 0 0 40 0 0 0 0 0 60 0 0 0 0 -100 0 0 0 0 60 0 0 0 0 0 80 0 0 0 20 0 0 0 80 100 0 0 0 0 0 0 0 0 20 0 0 0 100 0 0 0 0 0 0 0 0 0 40 0 0 60 0 0 0 0 0 0 20 0 0 0 0 0 60 240 0 0 0 0 0 0 40 80 0 0 0 0 0 0 0 0 120 80 0 0 0 60 0 0 0 0 40 0 0 180 0 80 0 0 0 160 60 80 0 140 100 160 0 0" stroke="#969696" stroke-width="20" fill="#969696" />
  <path d="M 8820 20020 l 0 400 0 80 0 80 0 80 -120 0 0 0 0 0 0 260 0 0 0 0 -40 140 0 0 0 0 0 0 0 0 0 80 -60 0 0 0 0 160 -20 0 0 0 0 0 0 0 0 0 0 0 -40 0 0 0 0 0 0 80 0 0 0 0 -100 0 0 60 0 0 -20 0 0 0 0 0 0 0 0 0 -80 0 0 0 0 0 -20 0 0 0 0 0 -80 0 0 0 0 0 0 0 0 0 -60 0 0 0 0 0 0 0 0 0 -60 0 0 0 0 0 -40 0 0 0 0 -60 0 0 0 0 0 0 -20 -80 0 0 0 0 0 0 0 0 0 0 -100 0 0 0 0 0 -40 0 0 -160 0 0 -60 0 0 -80 0 0 0 0 0 0 0 0 -20 -140 0 0 0 0 -80 -260 0 0 0 0 0 0 0 -80 -60 -80 0 -80 0 -400 0 -160 0 -140 60 -80 0 -160 0 0 0 -80 0 -180 80 0 0 0 0 0 20 -60 0 0 0 -80 0 0 0 0 0 0 60 0 0 -80 0 0 40 0 0 0 0 -240 100 0 0 0 0 0 0 0 0 0 0 0 20 -60 0 0 0 0 0 0 0 0 0 0 40 0 0 0 0 0 60 0 0 0 0 0 0 0 0 -100 60 0 0 0 0 0 0 0 0 0 80 0 0 0 0 0 20 0 0 100 0 0 80 0 0 0 0 0 0 0 0 0 20 0 0 0 0 0 100 0 0 0 0 0 0 60 0 0 0 0 40 0 0 0 0 0 0 0 0 240 0 0 20 0 0 0 0 80 60 0 0 0 0 0 0 0 0 80 0 0 40 60 0 0 0 0 0 0 0 180 0 80 120 0 0 160 0 80 0 140 0 160 0 0" stroke="#C0C0C0" stroke-width="20" fill="#C0C0C0" />
  <path d="M 8700 20020 l -40 400 0 80 0 80 0 80 0 0 0 0 0 0 -60 260 0 0 0 0 0 140 -20 0 0 0 0 0 0 0 0 80 0 0 0 0 0 160 -40 0 0 0 0 0 0 0 0 0 0 0 0 0 -100 0 0 0 0 80 0 0 -20 0 0 0 0 60 0 0 0 0 0 0 0 0 0 0 -80 0 0 0 0 0 -20 0 0 0 0 0 0 0 -80 0 0 0 0 0 0 0 0 0 0 0 -60 0 0 0 0 0 0 0 0 0 0 0 0 0 0 0 -60 0 0 -60 0 0 -40 0 0 0 0 -80 0 0 0 0 0 0 0 0 0 0 -20 0 0 0 0 0 0 0 0 -160 0 0 0 0 0 -80 -100 0 0 0 0 0 -40 0 0 -140 0 0 0 0 -60 -260 0 0 0 0 0 0 0 -80 0 -80 0 -80 0 -400 0 -160 0 -140 0 -80 0 -160 0 0 0 -80 0 -180 60 0 0 0 0 0 0 -60 40 0 0 -80 0 0 100 0 0 0 0 0 0 -80 0 0 0 0 0 0 0 -240 20 0 0 0 0 0 0 0 0 0 0 0 0 -60 0 0 40 0 0 0 0 0 60 0 0 0 0 0 0 0 0 0 0 0 0 0 0 0 60 -100 0 0 0 0 0 0 0 0 0 0 80 0 0 0 0 0 0 0 20 100 0 0 0 0 80 0 0 0 0 0 0 0 0 0 0 0 0 0 0 0 20 0 0 0 0 60 0 0 100 0 0 0 0 0 0 0 0 0 0 240 0 0 40 0 0 0 0 80 0 0 0 0 0 0 0 0 0 80 20 0 0 60 0 0 0 0 60 0 0 180 0 80 0 0 0 160 0 80 0 140 40 160 0 0" stroke="#D2D2D2" stroke-width="20" fill="#D2D2D2" />
  <path d="M 8580 20020 l 0 400 0 80 0 80 0 80 0 0 0 0 0 0 -40 260 0 0 0 0 0 140 0 0 0 0 0 0 0 0 0 80 0 0 0 0 -100 160 0 0 0 0 0 0 0 0 -20 0 0 0 0 0 0 0 0 0 0 80 0 0 0 0 0 0 0 60 -80 0 0 0 0 0 0 0 0 0 0 0 -20 0 0 0 0 0 0 0 0 0 -80 0 0 0 0 0 0 0 0 0 0 0 0 0 0 0 0 0 -60 0 0 0 0 0 0 0 0 0 0 0 0 0 0 -60 0 0 0 0 -60 0 0 -80 0 0 0 0 0 0 -40 0 0 0 0 0 0 0 0 0 0 0 0 -160 0 0 0 0 0 -80 0 0 -20 0 0 0 0 0 0 -140 0 0 0 0 0 -260 0 0 0 0 0 0 0 -80 -100 -80 0 -80 0 -400 0 -160 0 -140 100 -80 0 -160 0 0 0 -80 0 -180 0 0 0 0 0 0 0 -60 0 0 0 -80 20 0 0 0 0 0 0 0 0 -80 0 0 0 0 0 0 0 -240 0 0 0 0 40 0 0 0 0 0 0 0 0 -60 60 0 0 0 0 0 0 0 0 0 0 0 0 0 0 0 0 0 0 0 60 0 0 0 0 -100 0 0 0 0 0 0 0 0 0 0 0 0 80 0 0 0 0 0 0 100 0 0 20 0 0 0 0 0 0 0 0 0 0 0 80 0 0 0 0 0 0 0 0 0 0 60 0 0 0 0 0 0 0 0 20 0 0 0 0 240 0 0 0 0 100 0 0 80 0 0 0 0 0 0 0 0 0 80 0 0 0 60 0 0 0 0 40 0 0 180 0 80 0 0 0 160 0 80 0 140 0 160 0 0" stroke="#DEDEDE" stroke-width="20" fill="#DEDEDE" />
  <path d="M 8540 20020 l 0 400 -100 80 0 80 0 80 0 0 0 0 0 0 0 260 0 0 0 0 -20 140 0 0 0 0 0 0 0 0 0 80 0 0 0 0 0 160 0 0 0 0 0 0 0 0 0 0 0 0 0 0 -80 0 0 0 0 80 0 0 0 0 0 0 0 60 0 0 0 0 -20 0 0 0 0 0 0 0 0 0 -80 0 0 0 0 0 0 0 0 0 0 0 0 0 0 0 0 0 0 0 0 0 0 0 0 0 0 0 0 0 0 0 -60 0 0 -60 0 0 0 0 0 0 0 -80 0 0 0 0 0 0 0 0 0 0 0 0 0 0 0 0 0 0 0 -160 0 0 -60 0 0 -80 0 0 0 0 0 0 0 0 0 -140 0 0 0 0 -40 -260 0 0 0 0 0 0 0 -80 0 -80 0 -80 0 -400 0 -160 0 -140 0 -80 0 -160 0 0 0 -80 0 -180 40 0 0 0 0 0 0 -60 0 0 0 -80 0 0 0 0 0 0 60 0 0 -80 0 0 0 0 0 0 0 -240 0 0 0 0 0 0 0 0 0 0 0 0 0 -60 0 0 0 0 0 0 0 0 60 0 0 0 0 0 0 0 0 0 0 0 0 0 0 0 0 -100 0 0 0 0 0 0 0 0 0 0 0 0 0 0 80 0 0 100 0 0 0 0 0 0 20 0 0 0 0 0 0 0 0 0 0 0 0 0 0 60 0 0 80 0 0 0 0 0 0 0 0 0 0 240 0 0 0 0 0 0 0 80 0 0 0 0 0 0 0 0 0 80 0 0 20 60 0 0 0 0 0 0 0 180 0 80 0 0 0 160 0 80 100 140 0 160 0 0" stroke="#F0F0F0" stroke-width="20" fill="#F0F0F0" />
  <path d="M 8340 20020 l 0 400 0 80 0 80 0 80 0 0 -20 0 0 0 0 260 0 0 0 0 0 140 0 0 0 0 0 0 0 0 0 80 0 0 0 0 0 160 0 0 0 0 0 0 0 0 0 0 0 0 0 0 0 0 0 0 0 80 0 0 0 0 -80 0 0 60 0 0 0 0 0 0 0 0 0 0 0 0 0 0 0 0 0 0 0 0 0 0 0 0 0 0 0 -60 0 0 0 0 0 0 0 -80 0 0 0 0 0 0 0 0 0 0 0 0 0 0 0 0 0 0 0 -160 0 0 0 0 0 -80 0 0 0 0 0 0 -60 0 0 -140 0 0 0 0 0 -260 0 0 0 0 0 0 0 -80 0 -80 0 -80 0 -400 0 -160 0 -140 0 -80 0 -160 0 0 0 -80 0 -180 0 0 0 0 0 0 0 -60 60 0 0 -80 0 0 0 0 0 0 0 0 0 -80 0 0 0 0 0 0 0 -240 0 0 0 0 0 0 0 0 0 0 0 0 0 -60 0 0 0 0 0 0 0 0 0 0 0 0 0 0 0 0 0 0 0 0 0 -100 0 0 0 0 0 0 0 0 0 100 0 0 0 0 0 0 0 0 0 0 0 0 0 0 0 0 80 0 0 0 0 0 0 60 0 0 0 0 0 0 0 0 0 0 0 0 0 240 0 0 0 0 0 0 0 80 0 0 0 0 0 0 0 0 0 80 0 0 0 60 0 0 0 0 0 0 0 180 20 80 0 0 0 160 0 80 0 140 0 160 0 0" stroke="#FFFFFF" stroke-width="20" fill="#FFFFFF" />
  <path d="M 8320 19860 l 0 0 0 4540 0 0 0 -4540 0 0" stroke="#FFFFFF" stroke-width="20" fill="#FFFFFF" />
  <path d="M 7120 19860 l 160 0 0 4540 -160 0 0 -4540 0 0" stroke="#000000" stroke-width="20" fill="#000000" />
  <path d="M 7280 19860 l 0 0 0 4540 0 0 0 -4540 0 0" stroke="#3C3C3C" stroke-width="20" fill="#3C3C3C" />
  <path d="M 7280 19860 l 160 0 0 4540 -160 0 0 -4540 0 0" stroke="#5A5A5A" stroke-width="20" fill="#5A5A5A" />
  <path d="M 7440 19860 l 160 0 0 4540 -160 0 0 -4540 0 0" stroke="#808080" stroke-width="20" fill="#808080" />
  <path d="M 7600 19860 l 160 0 0 4540 -160 0 0 -4540 0 0" stroke="#969696" stroke-width="20" fill="#969696" />
  <path d="M 7760 19860 l 0 0 0 4540 0 0 0 -4540 0 0" stroke="#C0C0C0" stroke-width="20" fill="#C0C0C0" />
  <path d="M 7760 19860 l 200 0 0 4540 -200 0 0 -4540 0 0" stroke="#D2D2D2" stroke-width="20" fill="#D2D2D2" />
  <path d="M 7960 19860 l 160 0 0 4540 -160 0 0 -4540 0 0" stroke="#DEDEDE" stroke-width="20" fill="#DEDEDE" />
  <path d="M 8120 19860 l 200 0 0 4540 -200 0 0 -4540 0 0" stroke="#F0F0F0" stroke-width="20" fill="#F0F0F0" />
  <path d="M 9500 19860 l -180 0 0 4540 180 0 0 -4540 0 0" stroke="#000000" stroke-width="20" fill="#000000" />
  <path d="M 9320 19860 l -160 0 0 4540 160 0 0 -4540 0 0" stroke="#3C3C3C" stroke-width="20" fill="#3C3C3C" />
  <path d="M 9160 19860 l 0 0 0 4540 0 0 0 -4540 0 0" stroke="#5A5A5A" stroke-width="20" fill="#5A5A5A" />
  <path d="M 9160 19860 l -140 0 0 4540 140 0 0 -4540 0 0" stroke="#808080" stroke-width="20" fill="#808080" />
  <path d="M 9020 19860 l -200 0 0 4540 200 0 0 -4540 0 0" stroke="#969696" stroke-width="20" fill="#969696" />
  <path d="M 8820 19860 l -220 0 0 4540 220 0 0 -4540 0 0" stroke="#C0C0C0" stroke-width="20" fill="#C0C0C0" />
  <path d="M 8600 19860 l 0 0 0 4540 0 0 0 -4540 0 0" stroke="#D2D2D2" stroke-width="20" fill="#D2D2D2" />
  <path d="M 8600 19860 l -160 0 0 4540 160 0 0 -4540 0 0" stroke="#DEDEDE" stroke-width="20" fill="#DEDEDE" />
  <path d="M 8440 19860 l -120 0 0 4540 120 0 0 -4540 0 0" stroke="#F0F0F0" stroke-width="20" fill="#F0F0F0" />
  <path d="M 7120 19860 l 2380 0" stroke="#000000" stroke-width="20" fill="none" />
  <path d="M 7120 24400 l 2380 0" stroke="#000000" stroke-width="20" fill="none" />
  <path d="M 14680 20180 l -100 300 0 80 -60 60 0 80 0 0 -20 0 -40 0 0 260 0 0 -100 0 -20 140 0 0 -80 0 0 0 0 0 -20 80 0 0 -40 0 0 160 -100 0 0 0 -60 0 0 0 0 0 -40 0 0 0 -20 0 -100 0 0 60 0 0 -40 0 -60 0 0 80 0 0 -20 0 0 0 0 0 -40 0 -100 0 0 0 0 0 -20 0 0 0 0 0 -100 0 0 0 -80 0 0 0 -60 0 -60 0 0 0 0 0 -40 0 0 0 0 0 -20 0 -100 0 0 0 0 0 -40 0 -60 -80 0 0 -40 0 0 0 -60 -60 0 0 0 0 -60 0 0 0 -60 0 0 0 -40 0 0 0 0 0 -20 -160 -100 0 0 0 -40 -80 0 0 0 0 -60 0 0 0 -40 -140 0 0 -60 0 0 -260 0 0 -60 0 -60 0 0 -80 0 -60 -40 -80 0 -300 0 -260 40 -160 0 -60 0 0 60 -160 60 -80 0 -160 0 0 60 0 0 0 40 -80 0 0 60 0 0 -80 0 0 40 0 0 0 100 0 20 0 0 -80 0 0 40 0 0 0 60 -220 0 0 60 0 0 0 0 0 60 0 0 0 40 -80 0 0 60 0 40 0 0 0 0 0 100 0 20 0 0 0 0 0 40 0 0 0 0 0 60 0 60 0 0 0 80 0 0 0 100 0 0 0 0 0 20 0 0 0 0 0 100 0 40 0 0 0 0 0 20 0 0 0 0 0 60 0 40 80 0 0 0 0 100 0 20 0 0 0 40 0 0 220 0 0 60 0 0 0 100 80 0 0 40 0 0 0 20 0 0 0 0 80 80 0 0 0 20 80 100 0 0 0 0 0 40 160 20 80 0 160 0 0 60 60 0 160 100 260 0 0" stroke="#000000" stroke-width="20" fill="#000000" />
  <path d="M 14520 20080 l -20 400 0 80 0 60 -40 80 -100 0 0 0 -20 0 0 260 0 0 -80 0 -20 140 0 0 0 0 -40 0 0 0 0 80 0 0 -100 0 -60 160 0 0 0 0 -40 0 0 0 0 0 -120 0 0 0 0 0 -40 0 0 60 0 0 -60 0 0 0 -20 80 0 0 0 0 -40 0 0 0 0 0 -100 0 0 0 -20 0 0 0 0 0 -80 0 0 0 -20 0 -80 0 0 0 -60 0 0 0 0 0 -60 0 -40 0 0 0 0 0 -20 0 0 0 0 0 0 0 -100 0 -40 -80 -60 0 0 0 0 0 0 -60 -40 0 -60 0 0 0 0 0 -60 0 0 0 0 0 -60 0 0 0 -40 -160 0 0 0 0 -20 -80 0 0 -100 0 -40 0 0 0 0 -140 0 0 -60 0 0 -260 -40 0 0 0 -60 0 0 -80 0 -60 -60 -80 0 -400 0 -160 60 -160 0 -60 0 -160 60 0 0 -80 40 -160 0 0 60 0 0 0 0 -80 0 0 40 -80 100 0 0 0 20 0 0 0 0 -80 40 0 0 0 60 0 0 -220 0 0 60 0 0 0 0 0 60 0 40 0 0 -80 0 0 0 0 60 0 40 0 100 0 0 0 0 0 0 0 20 0 0 0 0 0 40 0 60 -100 0 0 0 0 60 0 0 0 80 0 20 0 0 0 80 0 0 0 0 100 20 0 0 0 100 0 0 0 0 0 40 0 0 0 0 0 20 0 0 0 60 0 0 0 0 80 40 0 0 0 0 0 120 0 0 0 0 0 40 220 0 0 0 0 60 0 100 80 0 0 0 0 0 0 40 0 0 80 0 0 20 80 80 0 0 0 0 0 20 160 0 80 100 0 40 160 0 60 0 160 20 160 0 0" stroke="#3C3C3C" stroke-width="20" fill="#3C3C3C" />
  <path d="M 14360 20080 l -20 400 0 80 0 60 0 80 -80 0 -20 0 0 0 0 260 0 0 -40 0 0 140 0 0 0 0 -100 0 -60 0 0 80 0 0 0 0 -40 160 0 0 0 0 -120 0 0 0 0 0 0 0 -40 0 0 0 0 0 -60 60 0 0 -20 0 0 0 0 80 0 0 -40 0 0 0 0 0 -100 0 0 0 -20 0 0 0 0 0 -80 0 0 0 -20 0 0 0 -80 0 0 0 -60 0 0 0 0 0 -60 0 0 0 -40 0 0 0 0 0 0 0 -20 0 0 0 0 0 -100 -80 0 0 -40 0 0 0 -60 -60 0 0 0 0 -40 0 0 0 -60 0 0 0 0 0 -60 0 0 0 0 -160 0 0 -60 0 0 -80 -40 0 0 0 0 0 -20 0 0 -140 -100 0 0 0 -40 -260 0 0 0 0 -60 0 0 -80 0 -60 0 -80 -40 -400 40 -160 0 -160 0 -60 0 -160 60 0 0 -80 0 -160 40 0 0 0 100 0 0 -80 20 0 0 -80 0 0 40 0 0 0 60 0 0 -80 0 0 0 0 60 0 0 -220 0 0 60 0 0 0 40 0 0 0 0 0 60 -80 0 0 40 0 0 0 100 0 0 0 0 0 20 0 0 0 0 0 0 0 40 0 0 0 60 -100 0 0 0 0 60 0 0 0 80 0 0 0 20 0 0 0 80 0 0 100 0 0 20 0 0 0 100 0 0 0 0 0 40 0 0 0 0 0 0 0 20 0 0 0 60 80 0 0 0 0 40 0 0 0 0 0 0 0 120 220 0 0 0 0 40 0 0 80 0 0 0 0 60 0 100 0 0 80 0 0 0 80 40 0 0 0 0 0 0 160 20 80 80 0 0 160 0 60 0 160 20 160 0 0" stroke="#5A5A5A" stroke-width="20" fill="#5A5A5A" />
  <path d="M 14260 20080 l -20 400 0 80 0 60 0 80 -40 0 0 0 0 0 0 260 -100 0 -60 0 0 140 0 0 0 0 0 0 -40 0 0 80 0 0 0 0 -120 160 0 0 0 0 0 0 -40 0 0 0 0 0 0 0 -60 0 0 0 -20 60 0 0 0 0 0 0 -40 80 0 0 0 0 0 0 -100 0 0 0 -20 0 0 0 0 0 0 0 -80 0 0 0 -20 0 0 0 -80 0 0 0 -60 0 0 0 0 0 0 0 0 0 -60 0 -40 0 0 0 0 0 0 0 -20 0 0 0 0 -80 0 0 0 0 -100 0 -40 -60 0 0 -60 0 0 0 0 0 0 0 -40 0 0 0 -60 0 0 0 0 -160 0 0 -60 0 0 -80 0 0 0 0 -60 0 0 0 -40 -140 0 0 0 0 0 -260 0 0 -20 0 0 0 -100 -80 0 -60 -40 -80 0 -400 0 -160 40 -160 0 -60 100 -160 0 0 20 -80 0 -160 0 0 0 0 0 0 40 -80 0 0 60 -80 0 0 0 0 0 0 60 0 0 -80 0 0 0 0 60 0 0 -220 40 0 0 0 0 0 0 0 60 0 0 0 40 -80 100 0 0 0 0 0 0 0 0 0 20 0 0 0 0 0 0 0 40 0 60 0 0 0 0 -100 0 0 0 0 60 0 0 0 80 0 0 0 20 0 0 0 80 0 0 100 0 0 0 0 20 0 0 0 100 0 0 0 0 0 0 0 40 0 0 0 0 0 0 0 20 80 0 0 60 0 0 0 0 0 0 0 40 0 0 220 0 0 0 0 120 0 0 80 0 0 0 0 40 0 0 0 0 80 0 0 0 80 60 0 100 0 0 0 0 160 0 80 40 0 0 160 0 60 0 160 20 160 0 0" stroke="#808080" stroke-width="20" fill="#808080" />
  <path d="M 14200 20080 l -100 400 0 80 -60 60 0 80 0 0 0 0 0 0 -40 260 0 0 0 0 0 140 0 0 -120 0 0 0 0 0 0 80 0 0 -40 0 0 160 0 0 0 0 -60 0 0 0 0 0 -20 0 0 0 0 0 0 0 0 60 -40 0 0 0 0 0 0 80 0 0 -100 0 0 0 -20 0 0 0 0 0 0 0 0 0 -80 0 0 0 -20 0 0 0 -80 0 0 0 0 0 -60 0 0 0 0 0 0 0 0 0 -60 0 0 0 0 0 -40 0 0 0 0 0 0 0 -20 -80 0 0 0 0 0 0 0 -60 -100 0 0 0 0 0 -40 0 0 0 -60 0 0 0 0 0 0 0 0 -160 -40 0 0 0 -60 -80 0 0 0 0 0 0 0 0 -60 -140 0 0 0 0 0 -260 0 0 -60 0 0 0 -40 -80 0 -60 0 -80 0 -400 0 -160 0 -160 0 -60 40 -160 0 0 60 -80 0 -160 0 0 0 0 0 0 60 -80 0 0 0 -80 0 0 0 0 60 0 0 0 40 -80 0 0 0 0 0 0 0 -220 60 0 0 0 40 0 0 0 0 0 100 0 0 -80 0 0 0 0 0 0 20 0 0 0 0 0 0 0 40 0 0 0 0 0 60 0 0 0 0 -100 0 0 0 0 60 0 0 0 0 0 80 0 0 0 20 0 0 0 80 100 0 0 0 0 0 0 0 0 20 0 0 0 100 0 0 0 0 0 0 0 0 0 40 0 0 80 0 0 0 0 0 0 20 0 0 0 0 0 60 220 0 0 0 0 0 0 40 80 0 0 0 0 0 0 0 0 120 80 0 0 0 80 0 0 0 0 40 0 0 160 0 80 0 0 0 160 60 60 0 160 100 160 0 0" stroke="#969696" stroke-width="20" fill="#969696" />
  <path d="M 14000 20080 l 0 400 0 80 0 60 0 80 -120 0 0 0 0 0 0 260 0 0 0 0 -40 140 0 0 0 0 0 0 0 0 0 80 -60 0 0 0 0 160 -20 0 0 0 0 0 0 0 0 0 0 0 -40 0 0 0 0 0 0 60 0 0 0 0 -100 0 0 80 0 0 -20 0 0 0 0 0 0 0 0 0 -80 0 0 0 0 0 -20 0 0 0 0 0 -80 0 0 0 0 0 0 0 0 0 -60 0 0 0 0 0 0 0 0 0 -60 0 0 0 0 0 -40 0 0 0 0 -80 0 0 0 0 0 0 -20 -60 0 0 0 0 0 0 0 0 0 0 -100 0 0 0 0 0 -40 0 0 -160 0 0 -60 0 0 -80 0 0 0 0 0 0 0 0 -40 -140 0 0 0 0 -60 -260 0 0 0 0 0 0 0 -80 -60 -60 0 -80 0 -400 0 -160 0 -160 60 -60 0 -160 0 0 0 -80 0 -160 60 0 0 0 0 0 40 -80 0 0 0 -80 0 0 0 0 0 0 60 0 0 -80 0 0 40 0 0 0 0 -220 100 0 0 0 0 0 0 0 0 0 0 0 20 -80 0 0 0 0 0 0 0 0 0 0 40 0 0 0 0 0 60 0 0 0 0 0 0 0 0 -100 60 0 0 0 0 0 0 0 0 0 80 0 0 0 0 0 20 0 0 100 0 0 80 0 0 0 0 0 0 0 0 0 20 0 0 0 0 0 100 0 0 0 0 0 0 80 0 0 0 0 40 0 0 0 0 0 0 0 0 220 0 0 20 0 0 0 0 80 60 0 0 0 0 0 0 0 0 80 0 0 40 80 0 0 0 0 0 0 0 160 0 80 120 0 0 160 0 60 0 160 0 160 0 0" stroke="#C0C0C0" stroke-width="20" fill="#C0C0C0" />
  <path d="M 13880 20080 l -40 400 0 80 0 60 0 80 0 0 0 0 0 0 -60 260 0 0 0 0 0 140 -20 0 0 0 0 0 0 0 0 80 0 0 0 0 0 160 -40 0 0 0 0 0 0 0 0 0 0 0 0 0 -100 0 0 0 0 60 0 0 -20 0 0 0 0 80 0 0 0 0 0 0 0 0 0 0 -80 0 0 0 0 0 -20 0 0 0 0 0 0 0 -80 0 0 0 0 0 0 0 0 0 0 0 -60 0 0 0 0 0 0 0 0 0 0 0 0 0 0 0 -60 0 0 -80 0 0 -40 0 0 0 0 -60 0 0 0 0 0 0 0 0 0 0 -20 0 0 0 0 0 0 0 0 -160 0 0 0 0 0 -80 -100 0 0 0 0 0 -40 0 0 -140 0 0 0 0 -60 -260 0 0 0 0 0 0 0 -80 0 -60 0 -80 0 -400 0 -160 0 -160 0 -60 0 -160 0 0 0 -80 0 -160 60 0 0 0 0 0 0 -80 40 0 0 -80 0 0 100 0 0 0 0 0 0 -80 0 0 0 0 0 0 0 -220 20 0 0 0 0 0 0 0 0 0 0 0 0 -80 0 0 40 0 0 0 0 0 60 0 0 0 0 0 0 0 0 0 0 0 0 0 0 0 60 -100 0 0 0 0 0 0 0 0 0 0 80 0 0 0 0 0 0 0 20 100 0 0 0 0 80 0 0 0 0 0 0 0 0 0 0 0 0 0 0 0 20 0 0 0 0 80 0 0 100 0 0 0 0 0 0 0 0 0 0 220 0 0 40 0 0 0 0 80 0 0 0 0 0 0 0 0 0 80 20 0 0 80 0 0 0 0 60 0 0 160 0 80 0 0 0 160 0 60 0 160 40 160 0 0" stroke="#D2D2D2" stroke-width="20" fill="#D2D2D2" />
  <path d="M 13760 20080 l 0 400 0 80 0 60 0 80 0 0 0 0 0 0 -40 260 0 0 0 0 0 140 0 0 0 0 0 0 0 0 0 80 0 0 0 0 -100 160 0 0 0 0 0 0 0 0 -20 0 0 0 0 0 0 0 0 0 0 60 0 0 0 0 0 0 0 80 -80 0 0 0 0 0 0 0 0 0 0 0 -20 0 0 0 0 0 0 0 0 0 -80 0 0 0 0 0 0 0 0 0 0 0 0 0 0 0 0 0 -60 0 0 0 0 0 0 0 0 0 0 0 0 0 0 -80 0 0 0 0 -60 0 0 -60 0 0 0 0 0 0 -40 0 0 0 0 0 0 0 0 0 0 0 0 -160 0 0 0 0 0 -80 0 0 -20 0 0 0 0 0 0 -140 0 0 0 0 0 -260 0 0 0 0 0 0 0 -80 -100 -60 0 -80 0 -400 0 -160 0 -160 100 -60 0 -160 0 0 0 -80 0 -160 0 0 0 0 0 0 0 -80 0 0 0 -80 20 0 0 0 0 0 0 0 0 -80 0 0 0 0 0 0 0 -220 0 0 0 0 40 0 0 0 0 0 0 0 0 -80 60 0 0 0 0 0 0 0 0 0 0 0 0 0 0 0 0 0 0 0 60 0 0 0 0 -100 0 0 0 0 0 0 0 0 0 0 0 0 80 0 0 0 0 0 0 100 0 0 20 0 0 0 0 0 0 0 0 0 0 0 80 0 0 0 0 0 0 0 0 0 0 80 0 0 0 0 0 0 0 0 20 0 0 0 0 220 0 0 0 0 100 0 0 80 0 0 0 0 0 0 0 0 0 80 0 0 0 80 0 0 0 0 40 0 0 160 0 80 0 0 0 160 0 60 0 160 0 160 0 0" stroke="#DEDEDE" stroke-width="20" fill="#DEDEDE" />
  <path d="M 13720 20080 l 0 400 -100 80 0 60 0 80 0 0 0 0 0 0 0 260 0 0 0 0 -20 140 0 0 0 0 0 0 0 0 0 80 0 0 0 0 0 160 0 0 0 0 0 0 0 0 0 0 0 0 0 0 -80 0 0 0 0 60 0 0 0 0 0 0 0 80 0 0 0 0 -20 0 0 0 0 0 0 0 0 0 -80 0 0 0 0 0 0 0 0 0 0 0 0 0 0 0 0 0 0 0 0 0 0 0 0 0 0 0 0 0 0 0 -60 0 0 -80 0 0 0 0 0 0 0 -60 0 0 0 0 0 0 0 0 0 0 0 0 0 0 0 0 0 0 0 -160 0 0 -60 0 0 -80 0 0 0 0 0 0 0 0 0 -140 0 0 0 0 -40 -260 0 0 0 0 0 0 0 -80 0 -60 0 -80 0 -400 0 -160 0 -160 0 -60 0 -160 0 0 0 -80 0 -160 40 0 0 0 0 0 0 -80 0 0 0 -80 0 0 0 0 0 0 60 0 0 -80 0 0 0 0 0 0 0 -220 0 0 0 0 0 0 0 0 0 0 0 0 0 -80 0 0 0 0 0 0 0 0 60 0 0 0 0 0 0 0 0 0 0 0 0 0 0 0 0 -100 0 0 0 0 0 0 0 0 0 0 0 0 0 0 80 0 0 100 0 0 0 0 0 0 20 0 0 0 0 0 0 0 0 0 0 0 0 0 0 80 0 0 80 0 0 0 0 0 0 0 0 0 0 220 0 0 0 0 0 0 0 80 0 0 0 0 0 0 0 0 0 80 0 0 20 80 0 0 0 0 0 0 0 160 0 80 0 0 0 160 0 60 100 160 0 160 0 0" stroke="#F0F0F0" stroke-width="20" fill="#F0F0F0" />
  <path d="M 13520 20080 l 0 400 0 80 0 60 0 80 0 0 -20 0 0 0 0 260 0 0 0 0 0 140 0 0 0 0 0 0 0 0 0 80 0 0 0 0 0 160 0 0 0 0 0 0 0 0 0 0 0 0 0 0 0 0 0 0 0 60 0 0 0 0 -80 0 0 80 0 0 0 0 0 0 0 0 0 0 0 0 0 0 0 0 0 0 0 0 0 0 0 0 0 0 0 -80 0 0 0 0 0 0 0 -60 0 0 0 0 0 0 0 0 0 0 0 0 0 0 0 0 0 0 0 -160 0 0 0 0 0 -80 0 0 0 0 0 0 -60 0 0 -140 0 0 0 0 0 -260 0 0 0 0 0 0 0 -80 0 -60 0 -80 0 -400 0 -160 0 -160 0 -60 0 -160 0 0 0 -80 0 -160 0 0 0 0 0 0 0 -80 60 0 0 -80 0 0 0 0 0 0 0 0 0 -80 0 0 0 0 0 0 0 -220 0 0 0 0 0 0 0 0 0 0 0 0 0 -80 0 0 0 0 0 0 0 0 0 0 0 0 0 0 0 0 0 0 0 0 0 -100 0 0 0 0 0 0 0 0 0 100 0 0 0 0 0 0 0 0 0 0 0 0 0 0 0 0 80 0 0 0 0 0 0 80 0 0 0 0 0 0 0 0 0 0 0 0 0 220 0 0 0 0 0 0 0 80 0 0 0 0 0 0 0 0 0 80 0 0 0 80 0 0 0 0 0 0 0 160 20 80 0 0 0 160 0 60 0 160 0 160 0 0" stroke="#FFFFFF" stroke-width="20" fill="#FFFFFF" />
  <path d="M 13500 19920 l 0 0 0 4480 0 0 0 -4480 0 0" stroke="#FFFFFF" stroke-width="20" fill="#FFFFFF" />
  <path d="M 12300 19920 l 160 0 0 4480 -160 0 0 -4480 0 0" stroke="#000000" stroke-width="20" fill="#000000" />
  <path d="M 12460 19920 l 0 0 0 4480 0 0 0 -4480 0 0" stroke="#3C3C3C" stroke-width="20" fill="#3C3C3C" />
  <path d="M 12460 19920 l 160 0 0 4480 -160 0 0 -4480 0 0" stroke="#5A5A5A" stroke-width="20" fill="#5A5A5A" />
  <path d="M 12620 19920 l 160 0 0 4480 -160 0 0 -4480 0 0" stroke="#808080" stroke-width="20" fill="#808080" />
  <path d="M 12780 19920 l 160 0 0 4480 -160 0 0 -4480 0 0" stroke="#969696" stroke-width="20" fill="#969696" />
  <path d="M 12940 19920 l 0 0 0 4480 0 0 0 -4480 0 0" stroke="#C0C0C0" stroke-width="20" fill="#C0C0C0" />
  <path d="M 12940 19920 l 200 0 0 4480 -200 0 0 -4480 0 0" stroke="#D2D2D2" stroke-width="20" fill="#D2D2D2" />
  <path d="M 13140 19920 l 160 0 0 4480 -160 0 0 -4480 0 0" stroke="#DEDEDE" stroke-width="20" fill="#DEDEDE" />
  <path d="M 13300 19920 l 200 0 0 4480 -200 0 0 -4480 0 0" stroke="#F0F0F0" stroke-width="20" fill="#F0F0F0" />
  <path d="M 14680 19920 l -180 0 0 4480 180 0 0 -4480 0 0" stroke="#000000" stroke-width="20" fill="#000000" />
  <path d="M 14500 19920 l -160 0 0 4480 160 0 0 -4480 0 0" stroke="#3C3C3C" stroke-width="20" fill="#3C3C3C" />
  <path d="M 14340 19920 l 0 0 0 4480 0 0 0 -4480 0 0" stroke="#5A5A5A" stroke-width="20" fill="#5A5A5A" />
  <path d="M 14340 19920 l -140 0 0 4480 140 0 0 -4480 0 0" stroke="#808080" stroke-width="20" fill="#808080" />
  <path d="M 14200 19920 l -200 0 0 4480 200 0 0 -4480 0 0" stroke="#969696" stroke-width="20" fill="#969696" />
  <path d="M 14000 19920 l -220 0 0 4480 220 0 0 -4480 0 0" stroke="#C0C0C0" stroke-width="20" fill="#C0C0C0" />
  <path d="M 13780 19920 l 0 0 0 4480 0 0 0 -4480 0 0" stroke="#D2D2D2" stroke-width="20" fill="#D2D2D2" />
  <path d="M 13780 19920 l -160 0 0 4480 160 0 0 -4480 0 0" stroke="#DEDEDE" stroke-width="20" fill="#DEDEDE" />
  <path d="M 13620 19920 l -120 0 0 4480 120 0 0 -4480 0 0" stroke="#F0F0F0" stroke-width="20" fill="#F0F0F0" />
  <path d="M 12300 19920 l 2380 0" stroke="#000000" stroke-width="20" fill="none" />
  <path d="M 12300 24400 l 2380 0" stroke="#000000" stroke-width="20" fill="none" />
  <path d="M 54260 6920 l -480 0 480 -1420 -480 0 480 1420 0 0" stroke-width="0" fill="#5A5A5A" />
  <path d="M 54180 6920 l -400 0 400 -1420 -400 0 400 1420 0 0" stroke-width="0" fill="#5A5A5A" />
  <path d="M 54140 6920 l -360 0 360 -1420 -360 0 360 1420 0 0" stroke-width="0" fill="#5A5A5A" />
  <path d="M 54100 6920 l -220 0 220 -1420 -220 0 220 1420 0 0" stroke-width="0" fill="#5A5A5A" />
  <path d="M 54040 6920 l -120 0 120 -1420 -120 0 120 1420 0 0" stroke-width="0" fill="#5A5A5A" />
  <path d="M 54040 6920 l -80 0 80 -1420 -80 0 80 1420 0 0" stroke-width="0" fill="#5A5A5A" />
  <path d="M 54260 6920 l -480 0 480 -1420 -480 0 480 1420" stroke="#000000" stroke-width="20" fill="#5A5A5A" />
  <path d="M 54280 8920 l -500 0 500 -1440 -500 0 500 1440 0 0" stroke-width="0" fill="#5A5A5A" />
  <path d="M 54180 8920 l -400 0 400 -1440 -400 0 400 1440 0 0" stroke-width="0" fill="#5A5A5A" />
  <path d="M 54140 8920 l -360 0 360 -1440 -360 0 360 1440 0 0" stroke-width="0" fill="#5A5A5A" />
  <path d="M 54100 8920 l -220 0 220 -1440 -220 0 220 1440 0 0" stroke-width="0" fill="#5A5A5A" />
  <path d="M 54060 8920 l -140 0 140 -1440 -140 0 140 1440 0 0" stroke-width="0" fill="#5A5A5A" />
  <path d="M 54060 8920 l -100 0 100 -1440 -100 0 100 1440 0 0" stroke-width="0" fill="#5A5A5A" />
  <path d="M 54280 8920 l -500 0 500 -1440 -500 0 500 1440" stroke="#000000" stroke-width="20" fill="#5A5A5A" />
  <path d="M 54320 11380 l -480 0 480 -1440 -480 0 480 1440 0 0" stroke-width="0" fill="#5A5A5A" />
  <path d="M 54220 11380 l -380 0 380 -1440 -380 0 380 1440 0 0" stroke-width="0" fill="#5A5A5A" />
  <path d="M 54180 11380 l -340 0 340 -1440 -340 0 340 1440 0 0" stroke-width="0" fill="#5A5A5A" />
  <path d="M 54140 11380 l -220 0 220 -1440 -220 0 220 1440 0 0" stroke-width="0" fill="#5A5A5A" />
  <path d="M 54100 11380 l -140 0 140 -1440 -140 0 140 1440 0 0" stroke-width="0" fill="#5A5A5A" />
  <path d="M 54100 11380 l -100 0 100 -1440 -100 0 100 1440 0 0" stroke-width="0" fill="#5A5A5A" />
  <path d="M 54320 11380 l -480 0 480 -1440 -480 0 480 1440" stroke="#000000" stroke-width="20" fill="#5A5A5A" />
  <path d="M 51640 9240 l 0 480 -1440 -480 0 480 1440 -480 0 0" stroke-width="0" fill="#5A5A5A" />
  <path d="M 51640 9340 l 0 380 -1440 -380 0 380 1440 -380 0 0" stroke-width="0" fill="#5A5A5A" />
  <path d="M 51640 9380 l 0 340 -1440 -340 0 340 1440 -340 0 0" stroke-width="0" fill="#5A5A5A" />
  <path d="M 51640 9420 l 0 220 -1440 -220 0 220 1440 -220 0 0" stroke-width="0" fill="#5A5A5A" />
  <path d="M 51640 9460 l 0 140 -1440 -140 0 140 1440 -140 0 0" stroke-width="0" fill="#5A5A5A" />
  <path d="M 51640 9460 l 0 100 -1440 -100 0 100 1440 -100 0 0" stroke-width="0" fill="#5A5A5A" />
  <path d="M 51640 9240 l 0 480 -1440 -480 0 480 1440 -480" stroke="#000000" stroke-width="20" fill="#5A5A5A" />
  <path id="POLYGON255" d="M 62340 14060 l -1240 -340 0 180 -1180 0 0 340 0 0 1180 0 0 180 1240 -360 0 0" stroke="#000000" stroke-width="20" fill="#808080" />
  <path id="POLYGON256" d="M 62400 29300 l -1280 -320 0 120 -1200 0 0 320 0 0 1200 0 0 140 1280 -260 0 0" stroke="#0000FF" stroke-width="20" fill="#C0C0C0" />
  <path id="POLYGON257" d="M 3580 29300 l -1280 -320 0 120 -1200 0 0 320 0 0 1200 0 0 120 1280 -240 0 0" stroke="#0000FF" stroke-width="20" fill="#B4B4B4" />
  <path id="POLYGON258" d="M 1060 26960 l 1280 320 0 -140 1200 0 0 -300 0 0 -1200 0 0 -140 -1280 260 0 0" stroke="#FF8000" stroke-width="20" fill="#B4B4B4" />
  <g id="TEXT1376">
    <rect x="27120" y="660" width="5980" height="1580" stroke-width="0" fill="none" id="TEXT1376_pbTextBoundingRectEl" />
    <text fill="#000000" font-family="Helvetica" font-size="800" font-weight="bold" text-anchor="middle" x="30110" y="1850" id="TEXT1376_pbTextEl">终止系统</text>
  </g>
  <path id="POLYGON79" d="M 8240 7140 l 0 -2420" stroke="#000000" stroke-width="40" fill="none" />
  <path id="POLYGON121" d="M 8020 4740 l 46040 0" stroke="#000000" stroke-width="40" fill="none" />
  <path id="POLYGON123" d="M 59940 29280 l -56420 0" stroke="#0000FF" stroke-width="20" fill="none" />
  <path id="POLYGON131" d="M 24400 4740 l 0 9360" stroke="#000000" stroke-width="40" fill="none" />
  <path id="POLYGON132" d="M 24280 14180 l 0 -40" stroke="#000000" stroke-width="20" fill="none" />
  <path id="POLYGON136" d="M 24420 14100 l 35600 0" stroke="#000000" stroke-width="40" fill="none" />
  <path id="LINE1" d="M 13480 7040 l 0 -2320" stroke="#000000" stroke-width="40" fill="none" />
  <path id="LINE2" d="M 16180 16020 l 0 -11340" stroke="#000000" stroke-width="40" fill="none" />
  <path id="LINE3" d="M 8320 16000 l 7860 0" stroke="#000000" stroke-width="40" fill="none" />
  <path id="LINE4" d="M 8260 18520 l 0 -2580" stroke="#000000" stroke-width="40" fill="none" />
  <path id="LINE5" d="M 13420 18600 l 0 -2600" stroke="#000000" stroke-width="40" fill="none" />
  <path id="LINE6" d="M 31960 13960 l 0 9160" stroke="#000000" stroke-width="20" fill="none" />
  <path id="POLYGON7" d="M 32100 23040 l -120 340 -160 -340 280 0 0 0" stroke="#000000" stroke-width="20" fill="#000000" />
  <path id="LINE7" d="M 29400 23520 l 12940 0" stroke="#000000" stroke-width="20" fill="none" />
  <path id="LINE8" d="M 24360 23520 l 3520 0" stroke="#000000" stroke-width="20" fill="none" />
  <path id="LINE9" d="M 21020 23540 l 1860 0" stroke="#000000" stroke-width="20" fill="none" />
  <path id="LINE10" d="M 21020 23460 l 0 3540" stroke="#000000" stroke-width="20" fill="none" />
  <path id="LINE12" d="M 29460 19200 l 5660 0" stroke="#000000" stroke-width="20" fill="none" />
  <path id="LINE13" d="M 29440 13980 l 0 5220" stroke="#000000" stroke-width="20" fill="none" />
  <path id="POLYGON80" d="M 29560 18940 l -120 300 -160 -300 280 0 0 0" stroke="#000000" stroke-width="20" fill="#000000" />
  <path id="LINE126" d="M 36620 19200 l 4940 0" stroke="#000000" stroke-width="20" fill="none" />
  <path id="LINE127" d="M 43860 23520 l 1800 0" stroke="#000000" stroke-width="20" fill="none" />
  <path id="POLYGON127" d="M 52940 14420 l 120 -320 160 320 -280 0 0 0" stroke="#000000" stroke-width="20" fill="#0000FF" />
  <path id="LINE128" d="M 43120 19160 l 10060 0" stroke="#000000" stroke-width="20" fill="none" />
  <path id="LINE129" d="M 54000 9520 l -2340 0" stroke="#FF8000" stroke-width="20" fill="none" />
  <path id="LINE130" d="M 49160 9460 l 1040 0" stroke="#FF8000" stroke-width="20" fill="none" />
  <path id="POLYGON130" d="M 54200 13780 l -120 280 -160 -280 280 0 0 0" stroke="#000000" stroke-width="20" fill="#000000" />
  <path id="LINE131" d="M 49140 26880 l 0 -17500" stroke="#FF8000" stroke-width="20" fill="none" />
  <path id="LINE133" d="M 3600 26960 l 45600 0" stroke="#FF8000" stroke-width="20" fill="none" />
  <path id="LINE134" d="M 45660 23460 l 0 3560" stroke="#000000" stroke-width="20" fill="none" />
  <path id="POLYGON134" d="M 45780 26620 l -120 340 -160 -340 280 0 0 0" stroke="#000000" stroke-width="20" fill="#000000" />
  <g id="TEXT1">
    <rect x="580" y="28080" width="4160" height="960" stroke-width="0" fill="#B4B4B4" id="TEXT1_pbTextBoundingRectEl" />
    <text fill="#000000" font-family="Helvetica" font-size="560" text-anchor="middle" x="2660" y="28840" id="TEXT1_pbTextEl">PH自反吹总管</text>
  </g>
  <g id="TEXT3">
    <rect x="520" y="25660" width="2520" height="1020" stroke-width="0" fill="#B4B4B4" id="TEXT3_pbTextBoundingRectEl" />
    <text fill="#000000" font-family="Helvetica" font-size="560" text-anchor="middle" x="1780" y="26450" id="TEXT3_pbTextEl">BDH</text>
  </g>
  <g id="TEXT4">
    <rect x="22020" y="23720" width="3600" height="1180" stroke-width="0" fill="#B4B4B4" id="TEXT4_pbTextBoundingRectEl" />
    <text fill="#000000" font-family="Helvetica" font-size="560" text-anchor="middle" x="23820" y="24590" id="TEXT4_pbTextEl">PCV40052</text>
  </g>
  <g id="TEXT7">
    <rect x="26780" y="23700" width="4080" height="1260" stroke-width="0" fill="#B4B4B4" id="TEXT7_pbTextBoundingRectEl" />
    <text fill="#000000" font-family="Helvetica" font-size="560" text-anchor="middle" x="28820" y="24610" id="TEXT7_pbTextEl">XZV40051C</text>
  </g>
  <g id="TEXT11">
    <rect x="40320" y="19380" width="4140" height="1460" stroke-width="0" fill="#B4B4B4" id="TEXT11_pbTextBoundingRectEl" />
    <text fill="#000000" font-family="Helvetica" font-size="560" text-anchor="middle" x="42390" y="20390" id="TEXT11_pbTextEl">XZV40056</text>
  </g>
  <g id="TEXT14">
    <rect x="37180" y="14600" width="4820" height="1540" stroke-width="0" fill="#B4B4B4" id="TEXT14_pbTextBoundingRectEl" />
    <text fill="#000000" font-family="Helvetica" font-size="560" text-anchor="middle" x="39590" y="15650" id="TEXT14_pbTextEl">XZV40051B</text>
  </g>
  <path id="LINE14" d="M 18140 4660 l 0 -540" stroke="#000000" stroke-width="20" stroke-dasharray="60,60" fill="none" />
  <g id="TEXT15">
    <rect x="16080" y="2360" width="4140" height="1260" stroke-width="0" fill="#B4B4B4" id="TEXT15_pbTextBoundingRectEl" />
    <text fill="#000000" font-family="Helvetica" font-size="560" text-anchor="middle" x="18150" y="3270" id="TEXT15_pbTextEl">PI40056</text>
  </g>
  <g id="TEXT16">
    <rect x="18260" y="3340" width="2860" height="1040" stroke-width="0" fill="#B4B4B4" id="TEXT16_pbTextBoundingRectEl" />
    <text fill="#000000" font-family="Helvetica" font-size="560" text-anchor="middle" x="19690" y="4140" id="TEXT16_pbTextEl">MPaG</text>
  </g>
  <g id="TEXT17">
    <rect x="54540" y="5860" width="2400" height="1040" stroke-width="0" fill="#B4B4B4" id="TEXT17_pbTextBoundingRectEl" />
    <text fill="#000000" font-family="Helvetica" font-size="560" text-anchor="middle" x="55740" y="6660" id="TEXT17_pbTextEl">AA</text>
  </g>
  <g id="TEXT18">
    <rect x="54420" y="7820" width="2580" height="1120" stroke-width="0" fill="#B4B4B4" id="TEXT18_pbTextBoundingRectEl" />
    <text fill="#000000" font-family="Helvetica" font-size="560" text-anchor="middle" x="55710" y="8660" id="TEXT18_pbTextEl">DD</text>
  </g>
  <g id="TEXT19">
    <rect x="54540" y="10060" width="2300" height="900" stroke-width="0" fill="#B4B4B4" id="TEXT19_pbTextBoundingRectEl" />
    <text fill="#000000" font-family="Helvetica" font-size="560" text-anchor="middle" x="55690" y="10790" id="TEXT19_pbTextEl">BB</text>
  </g>
  <g id="TEXT20">
    <rect x="50000" y="9920" width="1900" height="1120" stroke-width="0" fill="#B4B4B4" id="TEXT20_pbTextBoundingRectEl" />
    <text fill="#000000" font-family="Helvetica" font-size="560" text-anchor="middle" x="50950" y="10760" id="TEXT20_pbTextEl">CC</text>
  </g>
  <path id="LINE168" d="M 54740 21540 l -1540 0" stroke="#000000" stroke-width="20" stroke-dasharray="60,60" fill="none" />
  <path id="LINE137" d="M 53080 29220 l 0 -14800" stroke="#0000FF" stroke-width="20" fill="none" />
  <g id="TEXT5">
    <rect x="58240" y="27640" width="4480" height="1180" stroke-width="0" fill="#B4B4B4" id="TEXT5_pbTextBoundingRectEl" />
    <text fill="#000000" font-family="Helvetica" font-size="560" text-anchor="middle" x="60480" y="28510" id="TEXT5_pbTextEl">PH至各反吹</text>
  </g>
  <g id="TEXT6">
    <rect x="59340" y="12220" width="2920" height="1260" stroke-width="0" fill="#B4B4B4" id="TEXT6_pbTextBoundingRectEl" />
    <text fill="#000000" font-family="Helvetica" font-size="560" text-anchor="middle" x="60800" y="13130" id="TEXT6_pbTextEl">R-4001</text>
  </g>
  <path id="LINE122" d="M 26180 14380 l 0 -700 1500 700 0 -700 -1500 700" stroke="#000000" stroke-width="20" fill="#FFFF00" />
  <path id="POLYGON122" d="M 26900 14020 l 80 -80 0 -520 -180 0 0 520 100 80 0 0" stroke="#787878" stroke-width="20" fill="#5A5A5A" />
  <rect x="26520" y="12920" width="740" height="500" stroke="#787878" stroke-width="20" fill="#5A5A5A" id="RECTANGLE2" />
  <path id="LINE56" d="M 38740 14400 l 0 -700 1500 700 0 -700 -1500 700" stroke="#000000" stroke-width="20" fill="#FFFF00" />
  <path id="POLYGON125" d="M 39460 14040 l 80 -80 0 -520 -180 0 0 520 100 80 0 0" stroke="#787878" stroke-width="20" fill="#5A5A5A" />
  <rect x="39080" y="12940" width="740" height="500" stroke="#787878" stroke-width="20" fill="#5A5A5A" id="RECTANGLE17" />
  <path id="LINE145" d="M 41520 19500 l 0 -700 1500 700 0 -700 -1500 700" stroke="#000000" stroke-width="20" fill="#FF0000" />
  <path id="POLYGON145" d="M 42240 19140 l 80 -80 0 -520 -180 0 0 520 100 80 0 0" stroke="#787878" stroke-width="20" fill="#787878" />
  <rect x="41860" y="18040" width="740" height="500" stroke="#787878" stroke-width="20" fill="#808080" id="RECTANGLE22" />
  <path d="M 35140 19540 l 0 -700 1500 700 0 -700 -1500 700" stroke="#000000" stroke-width="20" fill="#5A5A5A" />
  <path d="M 35820 19180 l 0 -80 0 -520 0 0 0 520 0 80 0 0" stroke="#787878" stroke-width="20" fill="#787878" />
  <rect x="35480" y="18080" width="740" height="500" stroke="#787878" stroke-width="20" fill="#5A5A5A" />
  <path id="LINE149" d="M 22800 23840 l 0 -700 1500 700 0 -700 -1500 700" stroke="#000000" stroke-width="20" fill="#5A5A5A" />
  <path id="POLYGON149" d="M 23480 23480 l 0 -80 0 -520 0 0 0 520 0 80 0 0" stroke="#787878" stroke-width="20" fill="#5A5A5A" />
  <rect x="23140" y="22380" width="740" height="500" stroke="#787878" stroke-width="20" fill="#5A5A5A" id="RECTANGLE23" />
  <path d="M 27840 23900 l 0 -700 1500 700 0 -700 -1500 700" stroke="#000000" stroke-width="20" fill="#FFFF00" />
  <path d="M 28560 23540 l -40 -80 0 -520 60 0 0 520 -20 80 0 0" stroke="#787878" stroke-width="20" fill="#5A5A5A" />
  <rect x="28180" y="22440" width="740" height="500" stroke="#787878" stroke-width="20" fill="#5A5A5A" />
  <path d="M 42260 23820 l 0 -700 1500 700 0 -700 -1500 700" stroke="#000000" stroke-width="20" fill="#FFFF00" />
  <path d="M 42960 23460 l -20 -80 0 -520 60 0 0 520 -40 80 0 0" stroke="#787878" stroke-width="20" fill="#5A5A5A" />
  <rect x="42600" y="22360" width="740" height="500" stroke="#787878" stroke-width="20" fill="#5A5A5A" />
  <g id="DATAPOINT98" PB:IsMultiState="False" PBD:PtTagName="\\RTDBB\160_PT_40051" PB:Type="7" PB:NumberFormat="0.00">
    <rect x="17220" y="3600" width="1140" height="520" stroke-width="0" fill="none" id="DATAPOINT98_pbTextBoundingRectEl" />
    <text fill="#000000" font-family="Helvetica" font-size="560" text-anchor="middle" x="17790" y="4140" id="DATAPOINT98_pbTextEl" PBD:Property="VAL">#.##</text>
  </g>
  <g id="DATAPOINT99" PB:IsMultiState="False" PBD:PtTagName="\\RTDBB\160_FT_40055" PB:Type="7" PB:NumberFormat="0.00">
    <rect x="55420" y="22140" width="1140" height="520" stroke-width="0" fill="none" id="DATAPOINT99_pbTextBoundingRectEl" />
    <text fill="#000000" font-family="Helvetica" font-size="560" text-anchor="middle" x="55990" y="22680" id="DATAPOINT99_pbTextEl" PBD:Property="VAL">#.##</text>
  </g>
</svg>