<?xml version="1.0" encoding="UTF-8"?>
<svg height="100%" width="100%" viewBox="0 0 64000 32000" version="1.1" xmlns="http://www.w3.org/2000/svg" xmlns:xlink="http://www.w3.org/1999/xlink" xmlns:PB="urn:osisoft-com-pb" xmlns:PBI="urn:osisoft-com-interface" xmlns:PBD="urn:osisoft-com-data" style="background-color:#C0C0C0">
  <title>YTPZJYXT_83</title>
  <defs>
    <PBD:TagUses tag="\\RTDBB\TT_83_3422_22_T41">
      <PBI:Symbol name="DATAPOINT169" PB:Type="7" />
    </PBD:TagUses>
    <PBD:TagUses tag="\\RTDBB\TT_83_3422_22_T31">
      <PBI:Symbol name="DATAPOINT170" PB:Type="7" />
    </PBD:TagUses>
    <PBD:TagUses tag="\\RTDBB\TT_83_3405_50_T05">
      <PBI:Symbol name="DATAPOINT171" PB:Type="7" />
    </PBD:TagUses>
    <PBD:TagUses tag="\\RTDBB\TT_83_3421_12_T41">
      <PBI:Symbol name="DATAPOINT172" PB:Type="7" />
    </PBD:TagUses>
    <PBD:TagUses tag="\\RTDBB\TT_83_3421_12_T31">
      <PBI:Symbol name="DATAPOINT173" PB:Type="7" />
    </PBD:TagUses>
    <PBD:TagUses tag="\\RTDBB\VE_83_3421_12_V31">
      <PBI:Symbol name="DATAPOINT174" PB:Type="7" />
    </PBD:TagUses>
    <PBD:TagUses tag="\\RTDBB\VE_83_3421_12_V35">
      <PBI:Symbol name="DATAPOINT175" PB:Type="7" />
    </PBD:TagUses>
    <PBD:TagUses tag="\\RTDBB\PDT_83_3423_15_P02">
      <PBI:Symbol name="DATAPOINT176" PB:Type="7" />
    </PBD:TagUses>
    <PBD:TagUses tag="\\RTDBB\TT_83_3423_16_T01">
      <PBI:Symbol name="DATAPOINT177" PB:Type="7" />
    </PBD:TagUses>
    <PBD:TagUses tag="\\RTDBB\PT_83_3423_16_P01">
      <PBI:Symbol name="DATAPOINT178" PB:Type="7" />
    </PBD:TagUses>
    <PBD:TagUses tag="\\RTDBB\PDT_83_3423_10_P01">
      <PBI:Symbol name="DATAPOINT179" PB:Type="7" />
    </PBD:TagUses>
  </defs>
  <path id="ELLIPSE8" d="M 25320 11457 l -40 240 -40 136 -40 103 -40 87 -40 75 -40 66 -40 60 -40 54 -40 50 -40 47 -40 42 -40 40 -40 37 -40 35 -40 33 -40 30 -40 28 -40 27 -40 25 -40 24 -40 22 -40 20 -40 19 -40 18 -40 17 -40 15 -40 14 -40 13 -40 12 -40 11 -40 9 -40 9 -40 7 -40 7 -40 5 -40 5 -40 3 -40 3 -40 1 -40 0 0 0 -40 0 -40 -1 -40 -3 -40 -3 -40 -5 -40 -5 -40 -7 -40 -7 -40 -9 -40 -9 -40 -11 -40 -12 -40 -13 -40 -14 -40 -15 -40 -17 -40 -18 -40 -19 -40 -20 -40 -22 -40 -24 -40 -25 -40 -27 -40 -28 -40 -30 -40 -33 -40 -35 -40 -37 -40 -40 -40 -42 -40 -47 -40 -50 -40 -54 -40 -60 -40 -66 -40 -75 -40 -87 -40 -103 -40 -136 -40 -240 0 -273 40 -240 40 -136 40 -103 40 -87 40 -75 40 -66 40 -60 40 -54 40 -50 40 -47 40 -42 40 -40 40 -37 40 -35 40 -33 40 -30 40 -28 40 -27 40 -25 40 -24 40 -22 40 -20 40 -19 40 -18 40 -17 40 -15 40 -14 40 -13 40 -12 40 -11 40 -9 40 -9 40 -7 40 -7 40 -5 40 -5 40 -3 40 -3 40 -1 40 -1 0 0 40 1 40 1 40 3 40 3 40 5 40 5 40 7 40 7 40 9 40 9 40 11 40 12 40 13 40 14 40 15 40 17 40 18 40 19 40 20 40 22 40 24 40 25 40 27 40 28 40 30 40 33 40 35 40 37 40 40 40 42 40 47 40 50 40 54 40 60 40 66 40 75 40 87 40 103 40 136 40 240 0 273" stroke="#000000" stroke-width="20" fill="#808080" />
  <g id="TEXT30">
    <rect x="22320" y="10060" width="2800" height="2340" stroke-width="0" fill="none" id="TEXT30_pbTextBoundingRectEl" />
    <text fill="#000000" font-family="Helvetica" font-size="960" text-anchor="middle" x="23720" y="11710" id="TEXT30_pbTextEl">G</text>
  </g>
  <rect x="26780" y="10480" width="480" height="1800" stroke="#000000" stroke-width="20" fill="#808080" id="RECTANGLE30" />
  <rect x="27240" y="10920" width="480" height="1800" stroke="#000000" stroke-width="20" fill="#808080" id="RECTANGLE31" />
  <path id="POLYGON90" d="M 26940 13200 l 1080 0 0 -480 -1080 0 0 480 0 0" stroke="#000000" stroke-width="20" fill="#808080" />
  <path d="M 25300 11120 l 1480 0" stroke="#000000" stroke-width="40" fill="none" />
  <path d="M 25300 11520 l 1480 0" stroke="#000000" stroke-width="40" fill="none" />
  <path d="M 27760 11440 l 22720 0" stroke="#000000" stroke-width="40" fill="none" />
  <path d="M 27760 12320 l 22720 0" stroke="#000000" stroke-width="40" fill="none" />
  <path id="POLYGON93" d="M 54240 9820 l -3740 420 0 3220 3740 540 0 -4220 0 40" stroke="#000000" stroke-width="20" fill="#808080" />
  <path id="LINE94" d="M 52300 11100 l 0 -2400" stroke="#000000" stroke-width="80" fill="none" />
  <path id="ELLIPSE9" d="M 52240 8720 l -47 -13 -31 -14 -23 -13 -20 -13 -17 -14 -15 -13 -13 -13 -11 -14 -10 -13 -10 -13 -8 -14 -7 -13 -7 -13 -5 -14 -5 -13 -4 -13 -4 -14 -3 -13 -2 -13 -2 -14 -1 -13 -1 -13 0 -14 1 -13 1 -13 2 -14 2 -13 3 -13 4 -14 4 -13 5 -13 5 -14 7 -13 7 -13 8 -14 10 -13 10 -13 11 -14 13 -13 15 -13 17 -14 20 -13 23 -13 31 -14 47 -13 120 0 47 13 31 14 23 13 20 13 17 14 15 13 13 13 11 14 10 13 10 13 8 14 7 13 7 13 5 14 5 13 4 13 4 14 3 13 2 13 2 14 1 13 1 13 0 14 -1 13 -1 13 -2 14 -2 13 -3 13 -4 14 -4 13 -5 13 -5 14 -7 13 -7 13 -8 14 -10 13 -10 13 -11 14 -13 13 -15 13 -17 14 -20 13 -23 13 -31 14 -47 13 -120 0" stroke="#000000" stroke-width="40" fill="none" />
  <path id="LINE95" d="M 52160 10000 l 220 -280" stroke="#000000" stroke-width="40" fill="none" />
  <path id="LINE96" d="M 52160 10220 l 220 -260" stroke="#000000" stroke-width="40" fill="none" />
  <path id="LINE97" d="M 52160 10480 l 220 -260" stroke="#000000" stroke-width="40" fill="none" />
  <rect x="50520" y="11260" width="620" height="1280" stroke="#000000" stroke-width="20" fill="#FFFFFF" />
  <path d="M 51020 11340 l -360 600" stroke="#000000" stroke-width="20" fill="none" />
  <path d="M 51020 11840 l -360 600" stroke="#000000" stroke-width="20" fill="none" />
  <path d="M 51020 11820 l -360 120" stroke="#000000" stroke-width="20" fill="none" />
  <path d="M 50800 12340 l -140 100" stroke="#000000" stroke-width="20" fill="none" />
  <path d="M 50660 12300 l 0 140" stroke="#000000" stroke-width="20" fill="none" />
  <rect x="780" y="29840" width="5320" height="920" stroke="#000000" stroke-width="20" fill="none" id="RECTANGLE33" />
  <rect x="7000" y="26400" width="18880" height="4720" stroke="#000000" stroke-width="40" fill="none" id="RECTANGLE34" />
  <path id="ARC1" d="M 11140 30680 l 11 0 12 0 12 0 12 0 12 -1 12 0 11 -1 12 0 12 -1 12 -1 11 -1 12 -1 11 -1 12 -1 11 -1 12 -1 11 -2 12 -1 11 -2 11 -1 11 -2 11 -2 11 -2 11 -2 11 -2 11 -2 10 -2 11 -2 10 -3 11 -2 10 -2 10 -3 10 -3 10 -2 10 -3 9 -3 10 -3 9 -3 9 -3 10 -3 9 -3 9 -3 8 -4 9 -3 8 -4 9 -3 8 -4 8 -3 8 -4 7 -4 8 -3 7 -4 8 -4 7 -4 7 -4 6 -4 7 -4 6 -4 6 -4 6 -5 6 -4 6 -4 5 -4 6 -5 5 -4 5 -5 4 -4 5 -5 4 -4 4 -5 4 -4 4 -5 4 -5 3 -4 3 -5 3 -5 3 -5 3 -4 2 -5 2 -5 2 -5 2 -5 1 -4 2 -5 1 -5 1 -5 1 -5 0 -5 0 -5 1 -5 -1 -4 0 -5 0 -5 -1 -5 -1 -5 -1 -5 -2 -5 -1 -4 -2 -5 -2 -5 -2 -5 -2 -5 -3 -4 -3 -5 -3 -5 -3 -5 -3 -4 -4 -5 -4 -5 -4 -4 -4 -5 -4 -4 -5 -5 -4 -4 -5 -5 -5 -4 -6 -5 -5 -4 -6 -4 -6 -5 -6 -4 -6 -4 -6 -4 -7 -4 -6 -4 -7 -4 -7 -4 -8 -4 -7 -4 -8 -3 -7 -4 -8 -4 -8 -3 -8 -4 -9 -3 -8 -4 -9 -3 -8 -4 -9 -3 -9 -3 -10 -3 -9 -3 -9 -3 -10 -3 -9 -3 -10 -3 -10 -2 -10 -3 -10 -3 -11 -2 -10 -2 -10 -3 -11 -2 -10 -2 -11 -2 -11 -2 -11 -2 -11 -2 -11 -2 -11 -2 -11 -1 -11 -2 -12 -1 -11 -2 -12 -1 -11 -1 -12 -1 -11 -1 -12 -1 -11 -1 -12 -1 -12 -1 -12 0 -11 -1 -12 0 -12 -1 -12 0 -12 0 -12 0 -12 -1 -11 1" stroke="#000000" stroke-width="20" fill="none" />
  <path id="LINE104" d="M 11140 30120 l -4600 0" stroke="#000000" stroke-width="20" fill="none" />
  <path id="LINE105" d="M 11140 30700 l -4600 0" stroke="#000000" stroke-width="20" fill="none" />
  <path id="LINE106" d="M 6540 30120 l 0 580" stroke="#000000" stroke-width="20" fill="none" />
  <path d="M 8980 30240 l 1320 340" stroke="#000000" stroke-width="20" fill="none" />
  <path d="M 10080 30240 l 1340 340" stroke="#000000" stroke-width="20" fill="none" />
  <path d="M 10060 30240 l 240 340" stroke="#000000" stroke-width="20" fill="none" />
  <path d="M 11220 30440 l 160 140" stroke="#000000" stroke-width="20" fill="none" />
  <path d="M 11120 30580 l 240 0" stroke="#000000" stroke-width="20" fill="none" />
  <g id="TEXT38">
    <rect x="7580" y="29280" width="4520" height="640" stroke-width="0" fill="none" id="TEXT38_pbTextBoundingRectEl" />
    <text fill="#000000" font-family="Helvetica" font-size="560" text-anchor="middle" x="9840" y="29880" id="TEXT38_pbTextEl">83-3423.10.CH1</text>
  </g>
  <path id="LINE117" d="M 8460 25600 l 0 740" stroke="#000000" stroke-width="40" fill="none" />
  <g id="TEXT40">
    <rect x="920" y="29980" width="5180" height="640" stroke-width="0" fill="none" id="TEXT40_pbTextBoundingRectEl" />
    <text fill="#000000" font-family="Helvetica" font-size="560" text-anchor="middle" x="3510" y="30580" id="TEXT40_pbTextEl">83-3423.10.H07.HS</text>
  </g>
  <g id="TEXT44">
    <rect x="1400" y="28800" width="4160" height="660" stroke-width="0" fill="none" id="TEXT44_pbTextBoundingRectEl" />
    <text fill="#000000" font-family="Helvetica" font-size="560" text-anchor="middle" x="3480" y="29410" id="TEXT44_pbTextEl">油箱液位低报警</text>
  </g>
  <path id="ELLIPSE19" d="M 6002 29460 l -45 -13 -30 -14 -23 -13 -18 -13 -16 -14 -14 -13 -13 -13 -10 -14 -10 -13 -9 -13 -7 -14 -7 -13 -5 -13 -5 -14 -5 -13 -3 -13 -3 -14 -2 -13 -2 -13 -1 -14 0 -13 0 0 0 -13 1 -14 2 -13 2 -13 3 -14 3 -13 5 -13 5 -14 5 -13 7 -13 7 -14 9 -13 10 -13 10 -14 13 -13 14 -13 16 -14 18 -13 23 -13 30 -14 45 -13 116 0 45 13 30 14 23 13 18 13 16 14 14 13 13 13 10 14 10 13 9 13 7 14 7 13 5 13 5 14 5 13 3 13 3 14 2 13 2 13 1 14 0 13 0 0 0 13 -1 14 -2 13 -2 13 -3 14 -3 13 -5 13 -5 14 -5 13 -7 13 -7 14 -9 13 -10 13 -10 14 -13 13 -14 13 -16 14 -18 13 -23 13 -30 14 -45 13 -116 0" stroke="#FF0000" stroke-width="20" fill="#FF0000" />
  <g id="TEXT45">
    <rect x="1660" y="25800" width="4580" height="660" stroke-width="0" fill="none" id="TEXT45_pbTextBoundingRectEl" />
    <text fill="#000000" font-family="Helvetica" font-size="560" text-anchor="middle" x="3950" y="26410" id="TEXT45_pbTextEl">83-3423.10.P01</text>
  </g>
  <g id="TEXT46">
    <rect x="6200" y="22180" width="4120" height="660" stroke-width="0" fill="none" id="TEXT46_pbTextBoundingRectEl" />
    <text fill="#000000" font-family="Helvetica" font-size="560" text-anchor="middle" x="8260" y="22790" id="TEXT46_pbTextEl">83-3423.11.DS</text>
  </g>
  <path id="LINE118" d="M 16360 26220 l 0 -7920" stroke="#000000" stroke-width="40" fill="none" />
  <path id="LINE119" d="M 16360 18280 l 10740 0" stroke="#000000" stroke-width="40" fill="none" />
  <path id="LINE120" d="M 27100 18280 l 0 1740" stroke="#000000" stroke-width="40" fill="none" />
  <path id="LINE121" d="M 18700 26220 l 0 -5500" stroke="#000000" stroke-width="40" fill="none" />
  <path id="LINE122" d="M 18700 20720 l 4080 0" stroke="#000000" stroke-width="40" fill="none" />
  <path id="LINE123" d="M 20400 23460 l 2580 0" stroke="#000000" stroke-width="40" fill="none" />
  <path id="LINE126" d="M 20400 23460 l 0 2840" stroke="#000000" stroke-width="40" fill="none" />
  <path id="LINE127" d="M 24520 20040 l 5240 0" stroke="#000000" stroke-width="40" fill="none" />
  <path id="LINE128" d="M 24460 22860 l 5300 0" stroke="#000000" stroke-width="40" fill="none" />
  <path id="LINE129" d="M 29760 20040 l 0 2820" stroke="#000000" stroke-width="40" fill="none" />
  <g id="TEXT47">
    <rect x="21220" y="24460" width="4200" height="640" stroke-width="0" fill="none" id="TEXT47_pbTextBoundingRectEl" />
    <text fill="#000000" font-family="Helvetica" font-size="560" text-anchor="middle" x="23320" y="25060" id="TEXT47_pbTextEl">83-3423.13.BP1</text>
  </g>
  <g id="TEXT48">
    <rect x="21220" y="18960" width="4200" height="640" stroke-width="0" fill="none" id="TEXT48_pbTextBoundingRectEl" />
    <text fill="#000000" font-family="Helvetica" font-size="560" text-anchor="middle" x="23320" y="19560" id="TEXT48_pbTextEl">83-3423.12.BP1</text>
  </g>
  <path id="POLYGON1" d="M 38080 23180 l -2940 0 0 -3500 2940 0 0 3500 0 0" stroke="#000000" stroke-width="40" fill="none" />
  <g name="Valve4">
    <path d="M 37828 21871 l 507 0 -507 -1008 507 0 -507 1008" stroke="#000000" stroke-width="20" fill="#000000" />
  </g>
  <g name="DownArrow">
    <path d="M 38632 21127 l 0 546 -530 -273 530 -273 0 0" stroke="#000000" stroke-width="20" fill="#000000" />
  </g>
  <g name="Valve4">
    <path d="M 35372 21927 l -507 0 507 -1008 -507 0 507 1008" stroke="#000000" stroke-width="20" fill="#000000" />
  </g>
  <g name="DownArrow">
    <path d="M 34528 21127 l 0 546 530 -273 -530 -273 0 0" stroke="#000000" stroke-width="20" fill="#000000" />
  </g>
  <path d="M 37520 23323 l -40 180 -40 99 -40 75 -40 61 -40 52 -40 45 -40 40 -40 36 -40 31 -40 28 -40 25 -40 23 -40 20 -40 17 -40 16 -40 13 -40 12 -40 9 -40 8 -40 6 -40 4 -40 3 -40 0 0 0 -40 0 -40 -3 -40 -4 -40 -6 -40 -8 -40 -9 -40 -12 -40 -13 -40 -16 -40 -17 -40 -20 -40 -23 -40 -25 -40 -28 -40 -31 -40 -36 -40 -40 -40 -45 -40 -52 -40 -61 -40 -75 -40 -99 -40 -180 0 -205 40 -180 40 -99 40 -75 40 -61 40 -52 40 -45 40 -40 40 -36 40 -31 40 -28 40 -25 40 -23 40 -20 40 -17 40 -16 40 -13 40 -12 40 -9 40 -8 40 -6 40 -4 40 -3 40 -1 0 0 40 1 40 3 40 4 40 6 40 8 40 9 40 12 40 13 40 16 40 17 40 20 40 23 40 25 40 28 40 31 40 36 40 40 40 45 40 52 40 61 40 75 40 99 40 180 0 205" stroke="#000000" stroke-width="20" fill="#C0C0C0" />
  <path d="M 36180 22820 l 420 1100" stroke="#000000" stroke-width="20" fill="none" />
  <path d="M 36600 23920 l 440 -1100" stroke="#000000" stroke-width="20" fill="none" />
  <path d="M 36180 22820 l 0 1840" stroke="#000000" stroke-width="20" fill="none" />
  <path d="M 37040 22820 l 0 1840" stroke="#000000" stroke-width="20" fill="none" />
  <path d="M 37520 19583 l -40 180 -40 99 -40 75 -40 61 -40 52 -40 45 -40 40 -40 36 -40 31 -40 28 -40 25 -40 23 -40 20 -40 17 -40 16 -40 13 -40 12 -40 9 -40 8 -40 6 -40 4 -40 3 -40 0 0 0 -40 0 -40 -3 -40 -4 -40 -6 -40 -8 -40 -9 -40 -12 -40 -13 -40 -16 -40 -17 -40 -20 -40 -23 -40 -25 -40 -28 -40 -31 -40 -36 -40 -40 -40 -45 -40 -52 -40 -61 -40 -75 -40 -99 -40 -180 0 -205 40 -180 40 -99 40 -75 40 -61 40 -52 40 -45 40 -40 40 -36 40 -31 40 -28 40 -25 40 -23 40 -20 40 -17 40 -16 40 -13 40 -12 40 -9 40 -8 40 -6 40 -4 40 -3 40 -1 0 0 40 1 40 3 40 4 40 6 40 8 40 9 40 12 40 13 40 16 40 17 40 20 40 23 40 25 40 28 40 31 40 36 40 40 40 45 40 52 40 61 40 75 40 99 40 180 0 205" stroke="#000000" stroke-width="20" fill="#C0C0C0" />
  <path d="M 36180 19080 l 420 1100" stroke="#000000" stroke-width="20" fill="none" />
  <path d="M 36600 20180 l 440 -1100" stroke="#000000" stroke-width="20" fill="none" />
  <path d="M 36180 19080 l 0 1840" stroke="#000000" stroke-width="20" fill="none" />
  <path d="M 37040 19080 l 0 1840" stroke="#000000" stroke-width="20" fill="none" />
  <path id="LINE10" d="M 29720 21360 l 4700 0" stroke="#000000" stroke-width="40" fill="none" />
  <path id="LINE11" d="M 38680 21420 l 6400 0" stroke="#000000" stroke-width="40" fill="none" />
  <path id="LINE12" d="M 32120 21340 l 0 4920" stroke="#000000" stroke-width="40" fill="none" />
  <path id="LINE13" d="M 32120 26260 l 9740 0" stroke="#000000" stroke-width="40" fill="none" />
  <g name="Valve1">
    <path d="M 41938 21068 l -324 0 0 0 2 -27 6 -27 6 -26 10 -27 14 -23 16 -23 20 -21 22 -19 22 -17 26 -15 26 -13 28 -14 30 -9 30 -6 32 -4 34 -2 0 0 34 2 32 4 30 6 30 9 28 14 28 13 24 15 24 17 22 19 16 21 18 23 12 23 14 27 6 26 6 27 2 27 -326 0" stroke="#000000" stroke-width="20" fill="#000000" />
    <path d="M 41544 21557 l 0 -341 794 341 0 -341 -794 341" stroke="#000000" stroke-width="20" fill="#000000" />
    <path d="M 41938 21386 l 46 -19 0 -297 -88 0 0 297 46 19 -4 0" stroke="#000000" stroke-width="20" fill="#000000" />
  </g>
  <path id="LINE14" d="M 41980 21320 l 0 4920" stroke="#000000" stroke-width="40" fill="none" />
  <path id="POLYGON14" d="M 49800 23180 l -3920 0 0 -3500 3920 0 0 3500 0 0" stroke="#000000" stroke-width="40" fill="none" />
  <g name="Valve4">
    <path d="M 46175 21937 l -674 0 674 -1008 -674 0 674 1008" stroke="#000000" stroke-width="20" fill="#000000" />
  </g>
  <g name="DownArrow">
    <path d="M 45078 21127 l 0 546 706 -273 -706 -273 0 0" stroke="#000000" stroke-width="20" fill="#000000" />
  </g>
  <path d="M 47200 19880 l 1280 0 0 -600 -1280 0 0 600 0 0" stroke="#000000" stroke-width="20" fill="#C0C0C0" />
  <path d="M 48480 19560 l -1280 320" stroke="#000000" stroke-width="20" stroke-dasharray="60,60" fill="none" />
  <path d="M 48500 19600 l -1280 -320" stroke="#000000" stroke-width="20" stroke-dasharray="60,60" fill="none" />
  <path d="M 47200 23420 l 1280 0 0 -600 -1280 0 0 600 0 0" stroke="#000000" stroke-width="20" fill="#C0C0C0" />
  <path d="M 48480 23100 l -1280 320" stroke="#000000" stroke-width="20" stroke-dasharray="60,60" fill="none" />
  <path d="M 48500 23120 l -1280 -300" stroke="#000000" stroke-width="20" stroke-dasharray="60,60" fill="none" />
  <g name="Valve4">
    <path d="M 49465 21861 l 674 0 -674 -1008 674 0 -674 1008" stroke="#000000" stroke-width="20" fill="#000000" />
  </g>
  <g name="DownArrow">
    <path d="M 50582 21127 l 0 546 -706 -273 706 -273 0 0" stroke="#000000" stroke-width="20" fill="#000000" />
  </g>
  <g id="TEXT1">
    <rect x="45560" y="17040" width="4100" height="640" stroke-width="0" fill="none" id="TEXT1_pbTextBoundingRectEl" />
    <text fill="#000000" font-family="Helvetica" font-size="560" text-anchor="middle" x="47610" y="17640" id="TEXT1_pbTextEl">83-3423.15.P02</text>
  </g>
  <path id="LINE19" d="M 46040 17820 l -1480 0" stroke="#000000" stroke-width="20" stroke-dasharray="60,60" fill="none" />
  <path id="LINE20" d="M 51240 17820 l -1500 0" stroke="#000000" stroke-width="20" stroke-dasharray="60,60" fill="none" />
  <path id="LINE21" d="M 44480 17900 l 0 3280" stroke="#000000" stroke-width="20" stroke-dasharray="60,60" fill="none" />
  <path id="LINE22" d="M 51240 17820 l 0 3360" stroke="#000000" stroke-width="20" stroke-dasharray="60,60" fill="none" />
  <g id="TEXT2">
    <rect x="39200" y="19860" width="4480" height="640" stroke-width="0" fill="none" id="TEXT2_pbTextBoundingRectEl" />
    <text fill="#000000" font-family="Helvetica" font-size="560" text-anchor="middle" x="41440" y="20460" id="TEXT2_pbTextEl">83-3423.14.T20</text>
  </g>
  <g id="TEXT3">
    <rect x="19360" y="13120" width="3660" height="640" stroke-width="0" fill="none" id="TEXT3_pbTextBoundingRectEl" />
    <text fill="#000000" font-family="Helvetica" font-size="560" text-anchor="middle" x="21190" y="13720" id="TEXT3_pbTextEl">83-3422.81.CG1</text>
  </g>
  <g id="TEXT4">
    <rect x="29280" y="13520" width="4300" height="640" stroke-width="0" fill="none" id="TEXT4_pbTextBoundingRectEl" />
    <text fill="#000000" font-family="Helvetica" font-size="560" text-anchor="middle" x="31430" y="14120" id="TEXT4_pbTextEl">83-3405.50.T05</text>
  </g>
  <g id="TEXT5">
    <rect x="29280" y="8760" width="4300" height="640" stroke-width="0" fill="none" id="TEXT5_pbTextBoundingRectEl" />
    <text fill="#000000" font-family="Helvetica" font-size="560" text-anchor="middle" x="31430" y="9360" id="TEXT5_pbTextEl">83-3422.22.T31</text>
  </g>
  <g id="TEXT6">
    <rect x="29280" y="6800" width="4300" height="640" stroke-width="0" fill="none" id="TEXT6_pbTextBoundingRectEl" />
    <text fill="#000000" font-family="Helvetica" font-size="560" text-anchor="middle" x="31430" y="7400" id="TEXT6_pbTextEl">83-3422.22.T41</text>
  </g>
  <g id="TEXT7">
    <rect x="39620" y="6700" width="4480" height="640" stroke-width="0" fill="none" id="TEXT7_pbTextBoundingRectEl" />
    <text fill="#000000" font-family="Helvetica" font-size="560" text-anchor="middle" x="41860" y="7300" id="TEXT7_pbTextEl">83-3421.12.T41</text>
  </g>
  <g id="TEXT8">
    <rect x="39620" y="8660" width="4480" height="640" stroke-width="0" fill="none" id="TEXT8_pbTextBoundingRectEl" />
    <text fill="#000000" font-family="Helvetica" font-size="560" text-anchor="middle" x="41860" y="9260" id="TEXT8_pbTextEl">83-3421.12.T31</text>
  </g>
  <g id="TEXT9">
    <rect x="39620" y="13520" width="4480" height="640" stroke-width="0" fill="none" id="TEXT9_pbTextBoundingRectEl" />
    <text fill="#000000" font-family="Helvetica" font-size="560" text-anchor="middle" x="41860" y="14120" id="TEXT9_pbTextEl">83-3421.12.V31</text>
  </g>
  <g id="TEXT10">
    <rect x="50000" y="14200" width="5580" height="760" stroke-width="0" fill="none" id="TEXT10_pbTextBoundingRectEl" />
    <text fill="#000000" font-family="Helvetica" font-size="512" text-anchor="middle" x="52790" y="14836" id="TEXT10_pbTextEl">83-3421.71.BX1</text>
  </g>
  <path id="LINE23" d="M 28940 4660 l 0 6660" stroke="#000000" stroke-width="40" fill="none" />
  <path id="LINE24" d="M 28940 12440 l 0 3620" stroke="#000000" stroke-width="40" fill="none" />
  <path id="LINE25" d="M 39040 12340 l 0 3640" stroke="#000000" stroke-width="40" fill="none" />
  <path id="LINE26" d="M 11660 16060 l 27360 0" stroke="#000000" stroke-width="40" fill="none" />
  <path id="LINE27" d="M 39040 4660 l 0 6660" stroke="#000000" stroke-width="40" fill="none" />
  <path id="LINE28" d="M 62700 4700 l -33800 0" stroke="#000000" stroke-width="40" fill="none" />
  <g id="TEXT11">
    <rect x="54060" y="16060" width="4760" height="640" stroke-width="0" fill="none" id="TEXT11_pbTextBoundingRectEl" />
    <text fill="#000000" font-family="Helvetica" font-size="560" text-anchor="middle" x="56440" y="16660" id="TEXT11_pbTextEl">83-3423.16.T01</text>
  </g>
  <g id="TEXT12">
    <rect x="54060" y="17940" width="4760" height="640" stroke-width="0" fill="none" id="TEXT12_pbTextBoundingRectEl" />
    <text fill="#000000" font-family="Helvetica" font-size="560" text-anchor="middle" x="56440" y="18540" id="TEXT12_pbTextEl">83-3423.16.P10</text>
  </g>
  <g id="TEXT13">
    <rect x="54060" y="19500" width="4760" height="640" stroke-width="0" fill="none" id="TEXT13_pbTextBoundingRectEl" />
    <text fill="#000000" font-family="Helvetica" font-size="560" text-anchor="middle" x="56440" y="20100" id="TEXT13_pbTextEl">83-3423.16.P01</text>
  </g>
  <path id="ELLIPSE3" d="M 53842 18500 l -45 -13 -30 -14 -23 -13 -18 -13 -16 -14 -14 -13 -13 -13 -10 -14 -10 -13 -9 -13 -7 -14 -7 -13 -5 -13 -5 -14 -5 -13 -3 -13 -3 -14 -2 -13 -2 -13 -1 -14 0 -13 0 0 0 -13 1 -14 2 -13 2 -13 3 -14 3 -13 5 -13 5 -14 5 -13 7 -13 7 -14 9 -13 10 -13 10 -14 13 -13 14 -13 16 -14 18 -13 23 -13 30 -14 45 -13 116 0 45 13 30 14 23 13 18 13 16 14 14 13 13 13 10 14 10 13 9 13 7 14 7 13 5 13 5 14 5 13 3 13 3 14 2 13 2 13 1 14 0 13 0 0 0 13 -1 14 -2 13 -2 13 -3 14 -3 13 -5 13 -5 14 -5 13 -7 13 -7 14 -9 13 -10 13 -10 14 -13 13 -14 13 -16 14 -18 13 -23 13 -30 14 -45 13 -116 0" stroke="#FF0000" stroke-width="20" fill="#FF0000" />
  <path id="LINE29" d="M 58940 20260 l 3720 0" stroke="#000000" stroke-width="20" stroke-dasharray="60,60" fill="none" />
  <path id="LINE30" d="M 58940 18280 l 3720 0" stroke="#000000" stroke-width="20" stroke-dasharray="60,60" fill="none" />
  <path id="LINE31" d="M 58940 16880 l 3720 0" stroke="#000000" stroke-width="20" stroke-dasharray="60,60" fill="none" />
  <path id="LINE32" d="M 62700 30880 l 0 -26180" stroke="#000000" stroke-width="40" fill="none" />
  <path id="LINE33" d="M 50600 21420 l 11980 0" stroke="#000000" stroke-width="40" fill="none" />
  <path id="POLYGON33" d="M 62700 30880 l -36720 0" stroke="#000000" stroke-width="40" fill="none" />
  <g name="Valve1">
    <path d="M 42658 30528 l -324 0 0 0 2 -27 6 -27 6 -26 10 -27 14 -23 16 -23 20 -21 22 -19 22 -17 26 -15 26 -13 28 -14 30 -9 30 -6 32 -4 34 -2 0 0 34 2 32 4 30 6 30 9 28 14 28 13 24 15 24 17 22 19 16 21 18 23 12 23 14 27 6 26 6 27 2 27 -326 0" stroke="#000000" stroke-width="20" fill="#000000" />
    <path d="M 42264 31017 l 0 -341 794 341 0 -341 -794 341" stroke="#000000" stroke-width="20" fill="#000000" />
    <path d="M 42658 30846 l 46 -19 0 -297 -88 0 0 297 46 19 -4 0" stroke="#000000" stroke-width="20" fill="#000000" />
  </g>
  <g id="TEXT14">
    <rect x="40860" y="29240" width="4380" height="640" stroke-width="0" fill="none" id="TEXT14_pbTextBoundingRectEl" />
    <text fill="#000000" font-family="Helvetica" font-size="560" text-anchor="middle" x="43050" y="29840" id="TEXT14_pbTextEl">83-3423.17.P01</text>
  </g>
  <path id="LINE34" d="M 11660 26300 l 0 -10240" stroke="#000000" stroke-width="40" fill="none" />
  <g name="DistillationTrays">
    <rect x="7960" y="23711" width="936" height="1396" stroke="#000000" stroke-width="40" fill="#000000" />
    <path d="M 8428 23711 l 468 0 -3 -3 0 -4 0 -5 0 -3 0 -5 -2 -3 0 -5 0 -3 -2 -5 -3 -3 0 -5 -2 -4 -3 -3 0 -5 -2 -3 -2 -5 -3 -3 -2 -4 -2 -5 -5 -3 -2 -4 -3 -3 -2 -5 -5 -3 -2 -4 -5 -3 -2 -4 -5 -3 -4 -4 -3 -4 -4 -4 -5 -2 -5 -4 -4 -3 -5 -4 -5 -3 -4 -4 -5 -3 -5 -2 -4 -4 -7 -3 -5 -3 -5 -3 -7 -2 -5 -4 -7 -2 -4 -4 -7 -2 -5 -2 -7 -4 -7 -2 -5 -3 -7 -2 -7 -2 -7 -3 -7 -2 -7 -2 -7 -3 -4 -2 -10 -2 -7 -1 -7 -3 -7 -2 -7 -1 -7 -2 -7 -2 -7 -2 -9 -1 -7 -1 -7 -1 -7 -3 -10 -1 -7 -1 -7 -1 -9 -1 -7 -2 -9 0 -7 -1 -7 -1 -10 0 -7 -1 -9 -1 -7 0 -10 0 -7 -1 -9 0 -7 0 -9 0 -10 0 -7 -2 -9 2 -5 0 -9 0 -7 0 -10 0 -7 1 -11 0 -5 0 -9 1 -7 1 -10 0 -7 1 -7 1 -9 0 -7 2 -9 1 -7 1 -7 1 -10 1 -7 3 -9 1 -5 1 -9 1 -7 2 -10 2 -7 2 -4 1 -10 2 -4 3 -10 1 -7 2 -7 2 -4 3 -7 2 -10 2 -7 3 -7 2 -5 2 -7 3 -4 2 -7 4 -7 2 -5 2 -5 4 -7 2 -7 4 -4 2 -5 3 -7 3 -5 3 -4 4 -7 2 -3 3 -4 4 -5 3 -5 4 -4 3 -7 4 -3 2 -4 4 -3 4 -7 4 -2 3 -3 4 -7 3 0 4 -4 3 -3 5 -2 3 -2 4 -7 3 0 5 -5 4 0 3 -2 5 -3 3 0 5 -2 3 -2 4 0 5 -3 3 -2 5 0 3 0 5 -2 3 0 5 0 3 0 5 0 4 0 3 468 0" stroke="#000000" stroke-width="40" fill="#000000" />
    <path d="M 8428 25107 l -468 0 0 6 0 2 0 5 0 4 0 4 2 5 0 4 0 3 2 5 3 3 0 4 2 4 2 3 0 5 0 3 5 6 2 3 3 3 2 5 5 4 2 4 2 3 3 5 4 2 0 4 7 4 3 3 4 4 5 3 3 3 4 6 5 1 5 5 4 2 5 4 2 3 7 5 5 3 5 1 4 4 7 3 5 4 5 2 7 3 4 3 7 4 3 2 9 2 5 4 7 2 4 2 7 4 8 1 4 2 10 3 4 2 10 2 4 3 7 2 7 3 10 0 7 3 7 2 7 1 4 3 7 1 7 2 12 1 7 1 7 2 7 2 10 1 7 1 7 1 9 2 5 1 11 0 5 1 9 1 10 0 7 1 9 1 7 0 9 0 5 2 12 0 7 0 9 0 7 0 7 0 10 0 7 0 9 0 7 0 9 0 7 -2 10 0 7 0 9 -1 7 -1 10 0 7 -1 7 -1 9 0 7 -1 9 -2 7 0 7 -2 10 -1 7 -2 7 -2 7 -1 9 0 7 -3 7 -1 7 -3 7 -1 7 -1 7 -4 7 -1 10 -2 4 -2 7 -3 7 -2 7 -2 7 -3 7 -2 7 -2 5 -3 7 -2 7 -3 5 -3 7 -2 4 -2 7 -4 5 -3 7 -3 5 -3 5 -3 7 -3 4 -4 5 -2 5 -3 4 -4 5 -3 5 -4 4 -3 5 -4 5 -2 4 -4 3 -3 4 -5 5 -3 2 -4 5 -2 2 -5 5 -3 2 -5 3 -3 2 -4 5 -3 2 -5 2 -3 3 -4 2 -5 2 -3 0 -5 3 -3 2 -4 0 -4 3 -4 2 -4 0 -4 0 -5 2 -3 0 -5 0 -3 0 -5 0 -3 3 -4 -468 -1" stroke="#000000" stroke-width="40" fill="#000000" />
    <path d="M 7960 23944 l 957 0" stroke="#000000" stroke-width="40" stroke-dasharray="300,100" fill="none" />
    <path d="M 7960 24403 l 936 0" stroke="#000000" stroke-width="40" stroke-dasharray="300,100" fill="none" />
    <path d="M 7960 24874 l 936 0" stroke="#000000" stroke-width="40" stroke-dasharray="300,100" fill="none" />
  </g>
  <rect x="1880" y="9720" width="6460" height="4520" stroke="#000000" stroke-width="20" stroke-dasharray="60,60" fill="none" id="RECTANGLE2" />
  <g id="TEXT15">
    <rect x="2240" y="12220" width="4920" height="660" stroke-width="0" fill="none" id="TEXT15_pbTextBoundingRectEl" />
    <text fill="#000000" font-family="Helvetica" font-size="560" text-anchor="middle" x="4700" y="12830" id="TEXT15_pbTextEl">油系统预润滑时间</text>
  </g>
  <g id="TEXT16">
    <rect x="2240" y="13160" width="4920" height="660" stroke-width="0" fill="none" id="TEXT16_pbTextBoundingRectEl" />
    <text fill="#000000" font-family="Helvetica" font-size="560" text-anchor="middle" x="4700" y="13770" id="TEXT16_pbTextEl">停车后油润滑时间</text>
  </g>
  <path id="ELLIPSE4" d="M 7702 12840 l -45 -13 -30 -14 -23 -13 -18 -13 -16 -14 -14 -13 -13 -13 -10 -14 -10 -13 -9 -13 -7 -14 -7 -13 -5 -13 -5 -14 -5 -13 -3 -13 -3 -14 -2 -13 -2 -13 -1 -14 0 -13 0 0 0 -13 1 -14 2 -13 2 -13 3 -14 3 -13 5 -13 5 -14 5 -13 7 -13 7 -14 9 -13 10 -13 10 -14 13 -13 14 -13 16 -14 18 -13 23 -13 30 -14 45 -13 116 0 45 13 30 14 23 13 18 13 16 14 14 13 13 13 10 14 10 13 9 13 7 14 7 13 5 13 5 14 5 13 3 13 3 14 2 13 2 13 1 14 0 13 0 0 0 13 -1 14 -2 13 -2 13 -3 14 -3 13 -5 13 -5 14 -5 13 -7 13 -7 14 -9 13 -10 13 -10 14 -13 13 -14 13 -16 14 -18 13 -23 13 -30 14 -45 13 -116 0" stroke="#FF0000" stroke-width="20" fill="#FF0000" />
  <path id="ELLIPSE5" d="M 7702 13800 l -45 -13 -30 -14 -23 -13 -18 -13 -16 -14 -14 -13 -13 -13 -10 -14 -10 -13 -9 -13 -7 -14 -7 -13 -5 -13 -5 -14 -5 -13 -3 -13 -3 -14 -2 -13 -2 -13 -1 -14 0 -13 0 0 0 -13 1 -14 2 -13 2 -13 3 -14 3 -13 5 -13 5 -14 5 -13 7 -13 7 -14 9 -13 10 -13 10 -14 13 -13 14 -13 16 -14 18 -13 23 -13 30 -14 45 -13 116 0 45 13 30 14 23 13 18 13 16 14 14 13 13 13 10 14 10 13 9 13 7 14 7 13 5 13 5 14 5 13 3 13 3 14 2 13 2 13 1 14 0 13 0 0 0 13 -1 14 -2 13 -2 13 -3 14 -3 13 -5 13 -5 14 -5 13 -7 13 -7 14 -9 13 -10 13 -10 14 -13 13 -14 13 -16 14 -18 13 -23 13 -30 14 -45 13 -116 0" stroke="#FF0000" stroke-width="20" fill="#FF0000" />
  <g id="TEXT17">
    <rect x="2240" y="9940" width="5260" height="640" stroke-width="0" fill="none" id="TEXT17_pbTextBoundingRectEl" />
    <text fill="#000000" font-family="Helvetica" font-size="560" text-anchor="middle" x="4870" y="10540" id="TEXT17_pbTextEl">油系统联锁状态</text>
  </g>
  <g id="TEXT20">
    <rect x="2240" y="10980" width="5260" height="640" stroke-width="0" fill="none" id="TEXT20_pbTextBoundingRectEl" />
    <text fill="#000000" font-family="Helvetica" font-size="560" text-anchor="middle" x="4870" y="11580" id="TEXT20_pbTextEl">油系统容许时间</text>
  </g>
  <path id="LINE9" d="M 34000 12340 l 0 3640" stroke="#000000" stroke-width="40" fill="none" />
  <path id="LINE35" d="M 34000 4660 l 0 6660" stroke="#000000" stroke-width="40" fill="none" />
  <g id="TEXT18">
    <rect x="39620" y="14880" width="4480" height="640" stroke-width="0" fill="none" id="TEXT18_pbTextBoundingRectEl" />
    <text fill="#000000" font-family="Helvetica" font-size="560" text-anchor="middle" x="41860" y="15480" id="TEXT18_pbTextEl">83-3421.12.V35</text>
  </g>
  <g id="TEXT19">
    <rect x="54060" y="17340" width="4760" height="640" stroke-width="0" fill="none" id="TEXT19_pbTextBoundingRectEl" />
    <text fill="#000000" font-family="Helvetica" font-size="560" text-anchor="middle" x="56440" y="17940" id="TEXT19_pbTextEl">润滑油压力低低</text>
  </g>
  <g id="TEXT21">
    <rect x="28040" y="780" width="9960" height="2120" stroke-width="0" fill="none" id="TEXT21_pbTextBoundingRectEl" />
    <text fill="#000000" font-family="Helvetica" font-size="800" text-anchor="middle" x="33020" y="2240" id="TEXT21_pbTextEl">83-液体膨胀机油系统</text>
  </g>
  <g id="DATAPOINT169" PB:IsMultiState="False" PBD:PtTagName="\\RTDBB\TT_83_3422_22_T41" PB:Type="7" PB:NumberFormat="0.00">
    <rect x="30480" y="7520" width="1220" height="420" stroke-width="0" fill="none" id="DATAPOINT169_pbTextBoundingRectEl" />
    <text fill="#000000" font-family="Helvetica" font-size="560" text-anchor="middle" x="31090" y="8010" id="DATAPOINT169_pbTextEl" PBD:Property="VAL">#.##</text>
  </g>
  <g id="DATAPOINT170" PB:IsMultiState="False" PBD:PtTagName="\\RTDBB\TT_83_3422_22_T31" PB:Type="7" PB:NumberFormat="0.00">
    <rect x="30620" y="9540" width="1220" height="420" stroke-width="0" fill="none" id="DATAPOINT170_pbTextBoundingRectEl" />
    <text fill="#000000" font-family="Helvetica" font-size="560" text-anchor="middle" x="31230" y="10030" id="DATAPOINT170_pbTextEl" PBD:Property="VAL">#.##</text>
  </g>
  <g id="DATAPOINT171" PB:IsMultiState="False" PBD:PtTagName="\\RTDBB\TT_83_3405_50_T05" PB:Type="7" PB:NumberFormat="0.00">
    <rect x="30520" y="14180" width="1220" height="420" stroke-width="0" fill="none" id="DATAPOINT171_pbTextBoundingRectEl" />
    <text fill="#000000" font-family="Helvetica" font-size="560" text-anchor="middle" x="31130" y="14670" id="DATAPOINT171_pbTextEl" PBD:Property="VAL">#.##</text>
  </g>
  <g id="DATAPOINT172" PB:IsMultiState="False" PBD:PtTagName="\\RTDBB\TT_83_3421_12_T41" PB:Type="7" PB:NumberFormat="0.00">
    <rect x="41500" y="7520" width="1220" height="420" stroke-width="0" fill="none" id="DATAPOINT172_pbTextBoundingRectEl" />
    <text fill="#000000" font-family="Helvetica" font-size="560" text-anchor="middle" x="42110" y="8010" id="DATAPOINT172_pbTextEl" PBD:Property="VAL">#.##</text>
  </g>
  <g id="DATAPOINT173" PB:IsMultiState="False" PBD:PtTagName="\\RTDBB\TT_83_3421_12_T31" PB:Type="7" PB:NumberFormat="0.00">
    <rect x="41560" y="9400" width="1220" height="420" stroke-width="0" fill="none" id="DATAPOINT173_pbTextBoundingRectEl" />
    <text fill="#000000" font-family="Helvetica" font-size="560" text-anchor="middle" x="42170" y="9890" id="DATAPOINT173_pbTextEl" PBD:Property="VAL">#.##</text>
  </g>
  <g id="DATAPOINT174" PB:IsMultiState="False" PBD:PtTagName="\\RTDBB\VE_83_3421_12_V31" PB:Type="7" PB:NumberFormat="0.00">
    <rect x="41680" y="14200" width="1220" height="420" stroke-width="0" fill="none" id="DATAPOINT174_pbTextBoundingRectEl" />
    <text fill="#000000" font-family="Helvetica" font-size="560" text-anchor="middle" x="42290" y="14690" id="DATAPOINT174_pbTextEl" PBD:Property="VAL">#.##</text>
  </g>
  <g id="DATAPOINT175" PB:IsMultiState="False" PBD:PtTagName="\\RTDBB\VE_83_3421_12_V35" PB:Type="7" PB:NumberFormat="0.00">
    <rect x="41740" y="15860" width="1220" height="420" stroke-width="0" fill="none" id="DATAPOINT175_pbTextBoundingRectEl" />
    <text fill="#000000" font-family="Helvetica" font-size="560" text-anchor="middle" x="42350" y="16350" id="DATAPOINT175_pbTextEl" PBD:Property="VAL">#.##</text>
  </g>
  <g id="DATAPOINT176" PB:IsMultiState="False" PBD:PtTagName="\\RTDBB\PDT_83_3423_15_P02" PB:Type="7" PB:NumberFormat="0.00">
    <rect x="47200" y="17740" width="1220" height="420" stroke-width="0" fill="none" id="DATAPOINT176_pbTextBoundingRectEl" />
    <text fill="#000000" font-family="Helvetica" font-size="560" text-anchor="middle" x="47810" y="18230" id="DATAPOINT176_pbTextEl" PBD:Property="VAL">#.##</text>
  </g>
  <g id="DATAPOINT177" PB:IsMultiState="False" PBD:PtTagName="\\RTDBB\TT_83_3423_16_T01" PB:Type="7" PB:NumberFormat="0.00">
    <rect x="56260" y="16800" width="1220" height="420" stroke-width="0" fill="none" id="DATAPOINT177_pbTextBoundingRectEl" />
    <text fill="#000000" font-family="Helvetica" font-size="560" text-anchor="middle" x="56870" y="17290" id="DATAPOINT177_pbTextEl" PBD:Property="VAL">#.##</text>
  </g>
  <g id="DATAPOINT178" PB:IsMultiState="False" PBD:PtTagName="\\RTDBB\PT_83_3423_16_P01" PB:Type="7" PB:NumberFormat="0.00">
    <rect x="56360" y="20260" width="1220" height="420" stroke-width="0" fill="none" id="DATAPOINT178_pbTextBoundingRectEl" />
    <text fill="#000000" font-family="Helvetica" font-size="560" text-anchor="middle" x="56970" y="20750" id="DATAPOINT178_pbTextEl" PBD:Property="VAL">#.##</text>
  </g>
  <g id="DATAPOINT179" PB:IsMultiState="False" PBD:PtTagName="\\RTDBB\PDT_83_3423_10_P01" PB:Type="7" PB:NumberFormat="0.00">
    <rect x="3180" y="26580" width="1220" height="420" stroke-width="0" fill="none" id="DATAPOINT179_pbTextBoundingRectEl" />
    <text fill="#000000" font-family="Helvetica" font-size="560" text-anchor="middle" x="3790" y="27070" id="DATAPOINT179_pbTextEl" PBD:Property="VAL">#.##</text>
  </g>
  <g name="SingleStageCompressor">
    <path d="M 22852 20614 l 11 151 41 146 67 134 91 118 108 98 126 70 134 45 140 12 139 -10 136 -47 123 -70 110 -98 89 -116 67 -136 41 -144 13 -153 -13 -149 -41 -146 -80 -153 214 17 0 36 63 0 0 -450 -63 0 0 26 -798 44 -140 13 -137 47 -123 70 -110 98 -89 116 -67 136 -39 144 -13 151 0 0" stroke-width="0" fill="#98C4C9" />
    <path d="M 23897 19865 l -41 -6 -39 -5 -37 -6 -39 -2 -39 -2 -37 -2 -39 0 -34 2 -37 4 -37 2 -34 6 -35 7 -34 6 -33 9 -32 10 -33 11 -32 13 -30 12 -31 15 -28 17 -28 17 -28 17 -26 19 -26 21 -26 24 -24 21 -24 25 -21 26 -22 28 -19 27 -20 30 -17 30 -17 31 -15 34 -13 36 -11 34 -11 38 -7 37 -6 38 -4 38 -2 38 0 38 2 41 2 38 6 38 7 40 8 39 11 38 13 38 15 36 16 36 17 36 21 34 22 34 22 32 26 32 28 27 28 30 30 25 33 26 34 23 35 21 39 17 39 17 -35 -25 -32 -30 -33 -27 -30 -30 -28 -30 -26 -29 -24 -30 -24 -30 -21 -32 -20 -32 -19 -31 -15 -32 -16 -32 -13 -32 -13 -34 -8 -32 -9 -34 -6 -31 -7 -34 -2 -32 -2 -32 0 -32 2 -32 2 -31 5 -32 6 -32 9 -32 8 -30 11 -29 13 -30 15 -30 15 -29 16 -24 12 -21 13 -21 16 -21 15 -20 15 -21 15 -17 17 -19 18 -17 17 -17 19 -17 20 -15 19 -17 22 -12 24 -15 24 -15 25 -13 29 -12 28 -13 30 -11 32 -10 33 -11 37 -11 36 -10 39 -9 41 -10 44 -9 47 -8 48 -7 50 -8 54 -7 56 -8 0 0" stroke-width="0" fill="#729AA1" />
    <path d="M 24236 20631 l 0 -32 -2 -30 -4 -29 -7 -30 -6 -30 -7 -29 -10 -28 -11 -28 -13 -25 -13 -28 -15 -25 -18 -23 -17 -24 -17 -23 -20 -23 -19 -20 -22 -21 -24 -19 -21 -17 -26 -17 -24 -17 -26 -15 -26 -12 -28 -13 -28 -11 -28 -8 -30 -9 -29 -6 -30 -6 -32 -5 -31 -2 -32 0 -30 0 -33 2 -30 5 -30 6 -31 6 -28 9 -30 8 -28 11 -26 13 -26 12 -26 15 -26 17 -24 17 -23 17 -22 19 -22 21 -21 20 -18 23 -19 23 -17 24 -15 23 -16 25 -15 28 -11 25 -13 28 -8 28 -9 29 -6 30 -7 30 -2 29 -4 30 0 32 0 32 4 29 2 30 7 30 6 30 9 27 8 30 13 27 11 26 15 27 16 26 15 23 17 24 19 23 18 21 21 21 22 22 22 19 23 17 24 17 26 17 26 12 26 15 26 11 28 13 30 8 28 9 31 6 30 6 30 2 33 5 30 0 32 0 31 -5 32 -2 30 -6 29 -6 30 -9 28 -8 28 -13 28 -11 26 -15 26 -12 24 -17 26 -17 21 -17 24 -19 22 -22 19 -21 20 -21 17 -23 17 -24 18 -23 15 -26 13 -27 13 -26 11 -27 10 -30 7 -27 6 -30 7 -30 4 -30 2 -29 0 -32 0 0" stroke-width="0" fill="#ACE0E3" />
    <path d="M 23553 19848 l -13 74 826 9 0 -128 -813 45 0 0" stroke-width="0" fill="#729AA1" />
    <path d="M 24366 20090 l -13 -2 -13 0 -13 -2 -13 -3 -13 0 -13 -2 -13 0 -13 -2 -11 0 -13 -2 -10 -2 -13 0 -11 -2 -13 0 -11 -2 -13 -2 -11 0 -11 -2 -12 0 -11 -3 -13 -2 -11 0 -13 -2 -11 0 -13 -2 -13 -2 -13 0 -13 -2 -13 0 -13 -2 -13 0 -15 -2 -6 -7 -11 -8 -9 -7 -11 -6 -10 -6 -13 -7 -13 -6 -13 -4 -15 -7 -16 -4 -15 -6 -17 -5 -15 -4 -17 -4 -18 -4 -17 -2 -20 -5 -17 -2 -19 -2 -20 -2 -19 -2 -20 -2 -19 -2 -20 0 -19 -3 -20 0 -19 0 -19 0 -22 0 -20 0 -19 3 -17 0 21 -7 22 -4 24 -6 23 -3 26 -4 26 -4 29 -2 25 0 29 -2 28 -2 30 0 28 0 30 0 31 2 30 0 30 2 33 0 30 2 32 2 31 0 32 2 30 2 33 2 30 0 32 3 31 0 30 2 30 0 31 0 30 0 28 0 28 0 0 159 0 0" stroke-width="0" fill="#ACE0E3" />
    <path d="M 23110 20631 l 8 100 31 97 47 87 65 79 80 63 89 47 97 28 102 10 99 -8 102 -30 88 -47 80 -63 65 -79 48 -87 28 -97 11 -100 -11 -98 -28 -97 -48 -87 -65 -79 -80 -63 -90 -47 -96 -30 -103 -10 -102 8 -97 32 -89 47 -80 63 -65 79 -47 87 -31 95 -8 100 0 0" stroke-width="0" fill="#DBDBDB" />
    <path d="M 23110 20631 l 8 100 31 97 47 87 65 79 80 63 89 47 97 28 102 10 99 -8 102 -30 88 -47 80 -63 65 -79 48 -87 28 -97 11 -100 -11 -98 -28 -97 -48 -87 -65 -79 -80 -63 -90 -47 -96 -30 -103 -10 -102 8 -97 32 -89 47 -80 63 -65 79 -47 87 -31 95 -8 100" stroke="#000000" stroke-width="20" fill="none" />
    <path d="M 24089 20860 l -899 -509 -33 55 900 511 32 -57 0 0" stroke-width="0" fill="#808080" />
    <path d="M 23910 21060 l -519 -883 -56 32 519 882 56 -31 0 0" stroke-width="0" fill="#808080" />
    <path d="M 23655 21142 l 0 -1018 -65 0 0 1018 65 0 0 0" stroke-width="0" fill="#808080" />
    <path d="M 23854 20177 l -519 883 58 31 519 -882 -58 -32 0 0" stroke-width="0" fill="#808080" />
    <path d="M 24057 20351 l -900 509 33 57 899 -511 -32 -55 0 0" stroke-width="0" fill="#808080" />
    <path d="M 24141 20601 l -1038 0 0 64 1038 0 0 -64 0 0" stroke-width="0" fill="#808080" />
    <path d="M 23144 20631 l 9 91 30 89 43 83 61 72 73 60 85 44 88 28 96 8 95 -8 91 -28 84 -42 73 -62 61 -70 43 -85 28 -87 9 -93 -9 -91 -28 -89 -43 -83 -61 -72 -73 -60 -84 -44 -91 -28 -95 -8 -93 8 -93 28 -83 42 -73 62 -61 70 -43 85 -28 87 -11 93 0 0" stroke-width="0" fill="#595959" />
    <path d="M 23252 20631 l 7 72 21 70 35 64 48 55 58 47 65 34 69 21 74 6 73 -6 72 -21 64 -34 59 -47 45 -55 37 -64 19 -70 9 -72 -6 -72 -22 -70 -37 -64 -47 -55 -57 -47 -64 -34 -72 -21 -73 -6 -72 6 -71 21 -65 34 -58 47 -48 55 -35 64 -21 70 -7 72 0 0" stroke-width="0" fill="#A3A3A3" />
    <path d="M 23252 20631 l 7 72 21 70 35 64 48 55 58 47 65 34 69 21 74 6 73 -6 72 -21 64 -34 59 -47 45 -55 37 -64 19 -70 9 -72 -6 -72 -22 -70 -37 -64 -47 -55 -57 -47 -64 -34 -72 -21 -73 -6 -72 6 -71 21 -65 34 -58 47 -48 55 -35 64 -21 70 -7 72" stroke="#000000" stroke-width="20" fill="none" />
    <path d="M 23916 20837 l 33 -55 -619 -351 -32 54 618 352 0 0" stroke-width="0" fill="#3C3C3C" />
    <path d="M 23683 20979 l 62 -15 -183 -679 -63 17 184 677 0 0" stroke-width="0" fill="#3C3C3C" />
    <path d="M 23417 20919 l 56 32 357 -607 -56 -31 -357 606 0 0" stroke-width="0" fill="#3C3C3C" />
    <path d="M 23977 20574 l -17 -62 -690 180 17 62 690 -180 0 0" stroke-width="0" fill="#3C3C3C" />
    <path d="M 23469 20631 l 2 30 8 31 18 28 17 23 24 19 28 15 32 9 31 4 32 -4 30 -9 28 -12 24 -22 20 -23 15 -28 11 -31 2 -30 -2 -30 -11 -32 -15 -27 -20 -24 -24 -19 -28 -14 -30 -9 -32 -4 -31 4 -32 9 -28 14 -24 19 -17 24 -18 27 -8 32 -2 30 0 0" stroke-width="0" fill="#666666" />
    <path d="M 23469 20631 l 2 30 8 31 18 28 17 23 24 19 28 15 32 9 31 4 32 -4 30 -9 28 -12 24 -22 20 -23 15 -28 11 -31 2 -30 -2 -30 -11 -32 -15 -27 -20 -24 -24 -19 -28 -14 -30 -9 -32 -4 -31 4 -32 9 -28 14 -24 19 -17 24 -18 27 -8 32 -2 30" stroke="#000000" stroke-width="20" fill="none" />
    <path d="M 23704 20771 l -162 -276" stroke="#000000" stroke-width="20" fill="none" />
    <path d="M 23581 20788 l 84 -308" stroke="#000000" stroke-width="20" fill="none" />
    <path d="M 23482 20714 l 281 -159" stroke="#000000" stroke-width="20" fill="none" />
    <path d="M 23780 20675 l -314 -82" stroke="#000000" stroke-width="20" fill="none" />
    <path d="M 24431 20217 l 0 -445 -65 0 0 445 65 0 0 0" stroke-width="0" fill="#729AA1" />
    <path d="M 24431 20154 l 0 -319 -65 0 0 319 65 0 0 0" stroke-width="0" fill="#98C4C9" />
    <path d="M 24431 20058 l 0 -127 -65 0 0 127 65 0 0 0" stroke-width="0" fill="#ACE0E3" />
    <path d="M 22852 20614 l 11 151 41 146 67 134 91 118 108 98 126 70 134 45 140 12 139 -10 136 -47 123 -70 110 -98 89 -116 67 -136 41 -144 13 -153 -13 -149 -41 -146 -80 -153 214 17 0 34 63 0 0 -448 -63 0 2 26 -800 44 -140 13 -137 47 -123 70 -110 98 -89 116 -67 136 -39 144 -13 151" stroke="#000000" stroke-width="20" fill="none" />
    <path d="M 24368 20183 l 0 -388" stroke="#000000" stroke-width="20" fill="none" />
    <path d="M 22906 20981 l 0 -764 -97 0 0 764 97 0 0 0" stroke-width="0" fill="#595959" />
    <path d="M 22906 20981 l 0 -764 -97 0 0 764 97 0" stroke="#000000" stroke-width="20" fill="none" />
  </g>
  <g name="SingleStageCompressor">
    <path d="M 22852 23494 l 11 151 41 146 67 134 91 118 108 98 126 70 134 45 140 12 139 -10 136 -47 123 -70 110 -98 89 -116 67 -136 41 -144 13 -153 -13 -149 -41 -146 -80 -153 214 17 0 36 63 0 0 -450 -63 0 0 26 -798 44 -140 13 -137 47 -123 70 -110 98 -89 116 -67 136 -39 144 -13 151 0 0" stroke-width="0" fill="#98C4C9" />
    <path d="M 23897 22745 l -41 -6 -39 -5 -37 -6 -39 -2 -39 -2 -37 -2 -39 0 -34 2 -37 4 -37 2 -34 6 -35 7 -34 6 -33 9 -32 10 -33 11 -32 13 -30 12 -31 15 -28 17 -28 17 -28 17 -26 19 -26 21 -26 24 -24 21 -24 25 -21 26 -22 28 -19 27 -20 30 -17 30 -17 31 -15 34 -13 36 -11 34 -11 38 -7 37 -6 38 -4 38 -2 38 0 38 2 41 2 38 6 38 7 40 8 39 11 38 13 38 15 36 16 36 17 36 21 34 22 34 22 32 26 32 28 27 28 30 30 25 33 26 34 23 35 21 39 17 39 17 -35 -25 -32 -30 -33 -27 -30 -30 -28 -30 -26 -29 -24 -30 -24 -30 -21 -32 -20 -32 -19 -31 -15 -32 -16 -32 -13 -32 -13 -34 -8 -32 -9 -34 -6 -31 -7 -34 -2 -32 -2 -32 0 -32 2 -32 2 -31 5 -32 6 -32 9 -32 8 -30 11 -29 13 -30 15 -30 15 -29 16 -24 12 -21 13 -21 16 -21 15 -20 15 -21 15 -17 17 -19 18 -17 17 -17 19 -17 20 -15 19 -17 22 -12 24 -15 24 -15 25 -13 29 -12 28 -13 30 -11 32 -10 33 -11 37 -11 36 -10 39 -9 41 -10 44 -9 47 -8 48 -7 50 -8 54 -7 56 -8 0 0" stroke-width="0" fill="#729AA1" />
    <path d="M 24236 23511 l 0 -32 -2 -30 -4 -29 -7 -30 -6 -30 -7 -29 -10 -28 -11 -28 -13 -25 -13 -28 -15 -25 -18 -23 -17 -24 -17 -23 -20 -23 -19 -20 -22 -21 -24 -19 -21 -17 -26 -17 -24 -17 -26 -15 -26 -12 -28 -13 -28 -11 -28 -8 -30 -9 -29 -6 -30 -6 -32 -5 -31 -2 -32 0 -30 0 -33 2 -30 5 -30 6 -31 6 -28 9 -30 8 -28 11 -26 13 -26 12 -26 15 -26 17 -24 17 -23 17 -22 19 -22 21 -21 20 -18 23 -19 23 -17 24 -15 23 -16 25 -15 28 -11 25 -13 28 -8 28 -9 29 -6 30 -7 30 -2 29 -4 30 0 32 0 32 4 29 2 30 7 30 6 30 9 27 8 30 13 27 11 26 15 27 16 26 15 23 17 24 19 23 18 21 21 21 22 22 22 19 23 17 24 17 26 17 26 12 26 15 26 11 28 13 30 8 28 9 31 6 30 6 30 2 33 5 30 0 32 0 31 -5 32 -2 30 -6 29 -6 30 -9 28 -8 28 -13 28 -11 26 -15 26 -12 24 -17 26 -17 21 -17 24 -19 22 -22 19 -21 20 -21 17 -23 17 -24 18 -23 15 -26 13 -27 13 -26 11 -27 10 -30 7 -27 6 -30 7 -30 4 -30 2 -29 0 -32 0 0" stroke-width="0" fill="#ACE0E3" />
    <path d="M 23553 22728 l -13 74 826 9 0 -128 -813 45 0 0" stroke-width="0" fill="#729AA1" />
    <path d="M 24366 22970 l -13 -2 -13 0 -13 -2 -13 -3 -13 0 -13 -2 -13 0 -13 -2 -11 0 -13 -2 -10 -2 -13 0 -11 -2 -13 0 -11 -2 -13 -2 -11 0 -11 -2 -12 0 -11 -3 -13 -2 -11 0 -13 -2 -11 0 -13 -2 -13 -2 -13 0 -13 -2 -13 0 -13 -2 -13 0 -15 -2 -6 -7 -11 -8 -9 -7 -11 -6 -10 -6 -13 -7 -13 -6 -13 -4 -15 -7 -16 -4 -15 -6 -17 -5 -15 -4 -17 -4 -18 -4 -17 -2 -20 -5 -17 -2 -19 -2 -20 -2 -19 -2 -20 -2 -19 -2 -20 0 -19 -3 -20 0 -19 0 -19 0 -22 0 -20 0 -19 3 -17 0 21 -7 22 -4 24 -6 23 -3 26 -4 26 -4 29 -2 25 0 29 -2 28 -2 30 0 28 0 30 0 31 2 30 0 30 2 33 0 30 2 32 2 31 0 32 2 30 2 33 2 30 0 32 3 31 0 30 2 30 0 31 0 30 0 28 0 28 0 0 159 0 0" stroke-width="0" fill="#ACE0E3" />
    <path d="M 23110 23511 l 8 100 31 97 47 87 65 79 80 63 89 47 97 28 102 10 99 -8 102 -30 88 -47 80 -63 65 -79 48 -87 28 -97 11 -100 -11 -98 -28 -97 -48 -87 -65 -79 -80 -63 -90 -47 -96 -30 -103 -10 -102 8 -97 32 -89 47 -80 63 -65 79 -47 87 -31 95 -8 100 0 0" stroke-width="0" fill="#DBDBDB" />
    <path d="M 23110 23511 l 8 100 31 97 47 87 65 79 80 63 89 47 97 28 102 10 99 -8 102 -30 88 -47 80 -63 65 -79 48 -87 28 -97 11 -100 -11 -98 -28 -97 -48 -87 -65 -79 -80 -63 -90 -47 -96 -30 -103 -10 -102 8 -97 32 -89 47 -80 63 -65 79 -47 87 -31 95 -8 100" stroke="#000000" stroke-width="20" fill="none" />
    <path d="M 24089 23740 l -899 -509 -33 55 900 511 32 -57 0 0" stroke-width="0" fill="#808080" />
    <path d="M 23910 23940 l -519 -883 -56 32 519 882 56 -31 0 0" stroke-width="0" fill="#808080" />
    <path d="M 23655 24022 l 0 -1018 -65 0 0 1018 65 0 0 0" stroke-width="0" fill="#808080" />
    <path d="M 23854 23057 l -519 883 58 31 519 -882 -58 -32 0 0" stroke-width="0" fill="#808080" />
    <path d="M 24057 23231 l -900 509 33 57 899 -511 -32 -55 0 0" stroke-width="0" fill="#808080" />
    <path d="M 24141 23481 l -1038 0 0 64 1038 0 0 -64 0 0" stroke-width="0" fill="#808080" />
    <path d="M 23144 23511 l 9 91 30 89 43 83 61 72 73 60 85 44 88 28 96 8 95 -8 91 -28 84 -42 73 -62 61 -70 43 -85 28 -87 9 -93 -9 -91 -28 -89 -43 -83 -61 -72 -73 -60 -84 -44 -91 -28 -95 -8 -93 8 -93 28 -83 42 -73 62 -61 70 -43 85 -28 87 -11 93 0 0" stroke-width="0" fill="#595959" />
    <path d="M 23252 23511 l 7 72 21 70 35 64 48 55 58 47 65 34 69 21 74 6 73 -6 72 -21 64 -34 59 -47 45 -55 37 -64 19 -70 9 -72 -6 -72 -22 -70 -37 -64 -47 -55 -57 -47 -64 -34 -72 -21 -73 -6 -72 6 -71 21 -65 34 -58 47 -48 55 -35 64 -21 70 -7 72 0 0" stroke-width="0" fill="#A3A3A3" />
    <path d="M 23252 23511 l 7 72 21 70 35 64 48 55 58 47 65 34 69 21 74 6 73 -6 72 -21 64 -34 59 -47 45 -55 37 -64 19 -70 9 -72 -6 -72 -22 -70 -37 -64 -47 -55 -57 -47 -64 -34 -72 -21 -73 -6 -72 6 -71 21 -65 34 -58 47 -48 55 -35 64 -21 70 -7 72" stroke="#000000" stroke-width="20" fill="none" />
    <path d="M 23916 23717 l 33 -55 -619 -351 -32 54 618 352 0 0" stroke-width="0" fill="#3C3C3C" />
    <path d="M 23683 23859 l 62 -15 -183 -679 -63 17 184 677 0 0" stroke-width="0" fill="#3C3C3C" />
    <path d="M 23417 23799 l 56 32 357 -607 -56 -31 -357 606 0 0" stroke-width="0" fill="#3C3C3C" />
    <path d="M 23977 23454 l -17 -62 -690 180 17 62 690 -180 0 0" stroke-width="0" fill="#3C3C3C" />
    <path d="M 23469 23511 l 2 30 8 31 18 28 17 23 24 19 28 15 32 9 31 4 32 -4 30 -9 28 -12 24 -22 20 -23 15 -28 11 -31 2 -30 -2 -30 -11 -32 -15 -27 -20 -24 -24 -19 -28 -14 -30 -9 -32 -4 -31 4 -32 9 -28 14 -24 19 -17 24 -18 27 -8 32 -2 30 0 0" stroke-width="0" fill="#666666" />
    <path d="M 23469 23511 l 2 30 8 31 18 28 17 23 24 19 28 15 32 9 31 4 32 -4 30 -9 28 -12 24 -22 20 -23 15 -28 11 -31 2 -30 -2 -30 -11 -32 -15 -27 -20 -24 -24 -19 -28 -14 -30 -9 -32 -4 -31 4 -32 9 -28 14 -24 19 -17 24 -18 27 -8 32 -2 30" stroke="#000000" stroke-width="20" fill="none" />
    <path d="M 23704 23651 l -162 -276" stroke="#000000" stroke-width="20" fill="none" />
    <path d="M 23581 23668 l 84 -308" stroke="#000000" stroke-width="20" fill="none" />
    <path d="M 23482 23594 l 281 -159" stroke="#000000" stroke-width="20" fill="none" />
    <path d="M 23780 23555 l -314 -82" stroke="#000000" stroke-width="20" fill="none" />
    <path d="M 24431 23097 l 0 -445 -65 0 0 445 65 0 0 0" stroke-width="0" fill="#729AA1" />
    <path d="M 24431 23034 l 0 -319 -65 0 0 319 65 0 0 0" stroke-width="0" fill="#98C4C9" />
    <path d="M 24431 22938 l 0 -127 -65 0 0 127 65 0 0 0" stroke-width="0" fill="#ACE0E3" />
    <path d="M 22852 23494 l 11 151 41 146 67 134 91 118 108 98 126 70 134 45 140 12 139 -10 136 -47 123 -70 110 -98 89 -116 67 -136 41 -144 13 -153 -13 -149 -41 -146 -80 -153 214 17 0 34 63 0 0 -448 -63 0 2 26 -800 44 -140 13 -137 47 -123 70 -110 98 -89 116 -67 136 -39 144 -13 151" stroke="#000000" stroke-width="20" fill="none" />
    <path d="M 24368 23063 l 0 -388" stroke="#000000" stroke-width="20" fill="none" />
    <path d="M 22906 23861 l 0 -764 -97 0 0 764 97 0 0 0" stroke-width="0" fill="#595959" />
    <path d="M 22906 23861 l 0 -764 -97 0 0 764 97 0" stroke="#000000" stroke-width="20" fill="none" />
  </g>
  <g id="TEXT319">
    <rect x="32080" y="7460" width="660" height="680" stroke-width="0" fill="none" id="TEXT319_pbTextBoundingRectEl" />
    <text fill="#000000" font-family="Helvetica" font-size="560" text-anchor="middle" x="32410" y="8080" id="TEXT319_pbTextEl">℃</text>
  </g>
  <g id="TEXT320">
    <rect x="32120" y="9460" width="660" height="680" stroke-width="0" fill="none" id="TEXT320_pbTextBoundingRectEl" />
    <text fill="#000000" font-family="Helvetica" font-size="560" text-anchor="middle" x="32450" y="10080" id="TEXT320_pbTextEl">℃</text>
  </g>
  <g id="TEXT321">
    <rect x="43080" y="7460" width="660" height="680" stroke-width="0" fill="none" id="TEXT321_pbTextBoundingRectEl" />
    <text fill="#000000" font-family="Helvetica" font-size="560" text-anchor="middle" x="43410" y="8080" id="TEXT321_pbTextEl">℃</text>
  </g>
  <g id="TEXT322">
    <rect x="43040" y="9520" width="660" height="680" stroke-width="0" fill="none" id="TEXT322_pbTextBoundingRectEl" />
    <text fill="#000000" font-family="Helvetica" font-size="560" text-anchor="middle" x="43370" y="10140" id="TEXT322_pbTextEl">℃</text>
  </g>
  <g id="TEXT323">
    <rect x="32080" y="14080" width="660" height="680" stroke-width="0" fill="none" id="TEXT323_pbTextBoundingRectEl" />
    <text fill="#000000" font-family="Helvetica" font-size="560" text-anchor="middle" x="32410" y="14700" id="TEXT323_pbTextEl">℃</text>
  </g>
  <g id="TEXT324">
    <rect x="57520" y="16600" width="660" height="680" stroke-width="0" fill="none" id="TEXT324_pbTextBoundingRectEl" />
    <text fill="#000000" font-family="Helvetica" font-size="560" text-anchor="middle" x="57850" y="17220" id="TEXT324_pbTextEl">℃</text>
  </g>
  <g id="TEXT325">
    <rect x="43040" y="14220" width="1300" height="560" stroke-width="0" fill="none" id="TEXT325_pbTextBoundingRectEl" />
    <text fill="#000000" font-family="Helvetica" font-size="560" text-anchor="middle" x="43690" y="14780" id="TEXT325_pbTextEl">μm</text>
  </g>
  <g id="TEXT326">
    <rect x="43040" y="15760" width="1300" height="560" stroke-width="0" fill="none" id="TEXT326_pbTextBoundingRectEl" />
    <text fill="#000000" font-family="Helvetica" font-size="560" text-anchor="middle" x="43690" y="16320" id="TEXT326_pbTextEl">μm</text>
  </g>
  <g id="TEXT327">
    <rect x="48460" y="17660" width="1300" height="560" stroke-width="0" fill="none" id="TEXT327_pbTextBoundingRectEl" />
    <text fill="#000000" font-family="Helvetica" font-size="560" text-anchor="middle" x="49110" y="18220" id="TEXT327_pbTextEl">MPa</text>
  </g>
  <g id="TEXT328">
    <rect x="57580" y="20200" width="1300" height="560" stroke-width="0" fill="none" id="TEXT328_pbTextBoundingRectEl" />
    <text fill="#000000" font-family="Helvetica" font-size="560" text-anchor="middle" x="58230" y="20760" id="TEXT328_pbTextEl">MPa</text>
  </g>
  <g id="TEXT34">
    <rect x="4420" y="26540" width="1300" height="560" stroke-width="0" fill="none" id="TEXT34_pbTextBoundingRectEl" />
    <text fill="#000000" font-family="Helvetica" font-size="560" text-anchor="middle" x="5070" y="27100" id="TEXT34_pbTextEl">KPa</text>
  </g>
  <path id="POLYGON83" d="M 31380 10080 l 0 1260" stroke="#000000" stroke-width="20" stroke-dasharray="60,60" fill="none" />
  <path id="POLYGON83" d="M 29000 14460 l 1120 0" stroke="#000000" stroke-width="20" stroke-dasharray="60,60" fill="none" />
  <path id="POLYGON84" d="M 23700 12880 l 0 6460" stroke="#000000" stroke-width="20" stroke-dasharray="300,100" fill="none" />
  <path id="LINE160" d="M 42200 10060 l 0 1260" stroke="#000000" stroke-width="20" stroke-dasharray="60,60" fill="none" />
  <path id="LINE169" d="M 42160 12440 l 0 980" stroke="#000000" stroke-width="20" stroke-dasharray="60,60" fill="none" />
</svg>