<?xml version="1.0"?>
<?xml-stylesheet type='text/javascript'?>
<!--Draw SVG: 2019-11-25 09:41:39 47-Monday-->
<svg xmlns="http://www.w3.org/2000/svg" xmlns:xlink="http://www.w3.org/1999/xlink" version="1.1" style="background-color:#000000" width="1066" height="800" viewbox="0 0 1066 800">
<defs>
<linearGradient x1="0.000000%" y1="50.000000%" x2="100.000000%" y2="50.000000%" id="lgradient5">
<stop offset="0" stop-color="#2C2C2C" stop-opacity="1"/>
<stop offset="0.5" stop-color="#FFFFFF" stop-opacity="1"/>
<stop offset="1" stop-color="#2C2C2C" stop-opacity="1"/>
</linearGradient>
<linearGradient x1="0.000000%" y1="50.000000%" x2="100.000000%" y2="50.000000%" id="lgradient6">
<stop offset="0" stop-color="#2C2C2C" stop-opacity="1"/>
<stop offset="0.5" stop-color="#FFFFFF" stop-opacity="1"/>
<stop offset="1" stop-color="#2C2C2C" stop-opacity="1"/>
</linearGradient>
<linearGradient x1="0.000000%" y1="50.000000%" x2="100.000000%" y2="50.000000%" id="lgradient7">
<stop offset="0" stop-color="#2C2C2C" stop-opacity="1"/>
<stop offset="0.5" stop-color="#FFFFFF" stop-opacity="1"/>
<stop offset="1" stop-color="#2C2C2C" stop-opacity="1"/>
</linearGradient>
<linearGradient x1="0.000000%" y1="50.000000%" x2="100.000000%" y2="50.000000%" id="lgradient8">
<stop offset="0" stop-color="#2C2C2C" stop-opacity="1"/>
<stop offset="0.5" stop-color="#FFFFFF" stop-opacity="1"/>
<stop offset="1" stop-color="#2C2C2C" stop-opacity="1"/>
</linearGradient>
<linearGradient x1="0.000000%" y1="50.000000%" x2="100.000000%" y2="50.000000%" id="lgradient9">
<stop offset="0" stop-color="#2C2C2C" stop-opacity="1"/>
<stop offset="0.5" stop-color="#FFFFFF" stop-opacity="1"/>
<stop offset="1" stop-color="#2C2C2C" stop-opacity="1"/>
</linearGradient>
<linearGradient x1="50.000000%" y1="0.000000%" x2="50.000000%" y2="100.000000%" id="lgradient10">
<stop offset="0" stop-color="#2C2C2C" stop-opacity="1"/>
<stop offset="0.5" stop-color="#FFFFFF" stop-opacity="1"/>
<stop offset="1" stop-color="#2C2C2C" stop-opacity="1"/>
</linearGradient>
<linearGradient x1="50.000000%" y1="0.000000%" x2="50.000000%" y2="100.000000%" id="lgradient11">
<stop offset="0" stop-color="#2C2C2C" stop-opacity="1"/>
<stop offset="0.5" stop-color="#FFFFFF" stop-opacity="1"/>
<stop offset="1" stop-color="#2C2C2C" stop-opacity="1"/>
</linearGradient>
<linearGradient x1="50.000000%" y1="0.000000%" x2="50.000000%" y2="100.000000%" id="lgradient12">
<stop offset="0" stop-color="#2C2C2C" stop-opacity="1"/>
<stop offset="0.5" stop-color="#FFFFFF" stop-opacity="1"/>
<stop offset="1" stop-color="#2C2C2C" stop-opacity="1"/>
</linearGradient>
<linearGradient x1="0.000000%" y1="50.000000%" x2="100.000000%" y2="50.000000%" id="lgradient13">
<stop offset="0" stop-color="#2C2C2C" stop-opacity="1"/>
<stop offset="0.5" stop-color="#FFFFFF" stop-opacity="1"/>
<stop offset="1" stop-color="#2C2C2C" stop-opacity="1"/>
</linearGradient>
<linearGradient x1="0.000000%" y1="50.000000%" x2="100.000000%" y2="50.000000%" id="lgradient14">
<stop offset="0" stop-color="#2C2C2C" stop-opacity="1"/>
<stop offset="0.5" stop-color="#FFFFFF" stop-opacity="1"/>
<stop offset="1" stop-color="#2C2C2C" stop-opacity="1"/>
</linearGradient>
<linearGradient x1="0.000000%" y1="50.000000%" x2="100.000000%" y2="50.000000%" id="lgradient15">
<stop offset="0" stop-color="#2C2C2C" stop-opacity="1"/>
<stop offset="0.5" stop-color="#FFFFFF" stop-opacity="1"/>
<stop offset="1" stop-color="#2C2C2C" stop-opacity="1"/>
</linearGradient>
<linearGradient x1="50.000000%" y1="0.000000%" x2="50.000000%" y2="100.000000%" id="lgradient16">
<stop offset="0" stop-color="#2C2C2C" stop-opacity="1"/>
<stop offset="0.5" stop-color="#FFFFFF" stop-opacity="1"/>
<stop offset="1" stop-color="#2C2C2C" stop-opacity="1"/>
</linearGradient>
<linearGradient x1="0.000000%" y1="50.000000%" x2="100.000000%" y2="50.000000%" id="lgradient17">
<stop offset="0" stop-color="#2C2C2C" stop-opacity="1"/>
<stop offset="0.5" stop-color="#FFFFFF" stop-opacity="1"/>
<stop offset="1" stop-color="#2C2C2C" stop-opacity="1"/>
</linearGradient>
<pattern id="BRH_DIAGCROSS60" patternUnits="userSpaceOnUse" x="0" y="0" width="10" height="10"><line x1="0" y1="0" x2="10" y2="10" stroke="#FFFFFF" stroke-width="0.5"/><line x1="0" y1="10" x2="10" y2="0" stroke="#FFFFFF" stroke-width="0.5"/></pattern>
<linearGradient x1="0.000000%" y1="50.000000%" x2="100.000000%" y2="50.000000%" id="lgradient66">
<stop offset="0" stop-color="#2C2C2C" stop-opacity="1"/>
<stop offset="0.5" stop-color="#FFFFFF" stop-opacity="1"/>
<stop offset="1" stop-color="#2C2C2C" stop-opacity="1"/>
</linearGradient>
<linearGradient x1="50.000000%" y1="0.000000%" x2="50.000000%" y2="100.000000%" id="lgradient67">
<stop offset="0" stop-color="#2C2C2C" stop-opacity="1"/>
<stop offset="0.5" stop-color="#FFFFFF" stop-opacity="1"/>
<stop offset="1" stop-color="#2C2C2C" stop-opacity="1"/>
</linearGradient>
<linearGradient x1="50.000000%" y1="0.000000%" x2="50.000000%" y2="100.000000%" id="lgradient68">
<stop offset="0" stop-color="#2C2C2C" stop-opacity="1"/>
<stop offset="0.5" stop-color="#FFFFFF" stop-opacity="1"/>
<stop offset="1" stop-color="#2C2C2C" stop-opacity="1"/>
</linearGradient>
<linearGradient x1="0.000000%" y1="50.000000%" x2="100.000000%" y2="50.000000%" id="lgradient69">
<stop offset="0" stop-color="#2C2C2C" stop-opacity="1"/>
<stop offset="0.5" stop-color="#FFFFFF" stop-opacity="1"/>
<stop offset="1" stop-color="#2C2C2C" stop-opacity="1"/>
</linearGradient>
<linearGradient x1="0.000000%" y1="50.000000%" x2="100.000000%" y2="50.000000%" id="lgradient70">
<stop offset="0" stop-color="#2C2C2C" stop-opacity="1"/>
<stop offset="0.5" stop-color="#FFFFFF" stop-opacity="1"/>
<stop offset="1" stop-color="#2C2C2C" stop-opacity="1"/>
</linearGradient>
<linearGradient x1="0.000000%" y1="50.000000%" x2="100.000000%" y2="50.000000%" id="lgradient71">
<stop offset="0" stop-color="#2C2C2C" stop-opacity="1"/>
<stop offset="0.5" stop-color="#FFFFFF" stop-opacity="1"/>
<stop offset="1" stop-color="#2C2C2C" stop-opacity="1"/>
</linearGradient>
<linearGradient x1="0.000000%" y1="50.000000%" x2="100.000000%" y2="50.000000%" id="lgradient72">
<stop offset="0" stop-color="#2C2C2C" stop-opacity="1"/>
<stop offset="0.5" stop-color="#FFFFFF" stop-opacity="1"/>
<stop offset="1" stop-color="#2C2C2C" stop-opacity="1"/>
</linearGradient>
<linearGradient x1="0.000000%" y1="50.000000%" x2="100.000000%" y2="50.000000%" id="lgradient73">
<stop offset="0" stop-color="#2C2C2C" stop-opacity="1"/>
<stop offset="0.5" stop-color="#FFFFFF" stop-opacity="1"/>
<stop offset="1" stop-color="#2C2C2C" stop-opacity="1"/>
</linearGradient>
<linearGradient x1="0.000000%" y1="50.000000%" x2="100.000000%" y2="50.000000%" id="lgradient74">
<stop offset="0" stop-color="#2C2C2C" stop-opacity="1"/>
<stop offset="0.5" stop-color="#FFFFFF" stop-opacity="1"/>
<stop offset="1" stop-color="#2C2C2C" stop-opacity="1"/>
</linearGradient>
<linearGradient x1="50.000000%" y1="0.000000%" x2="50.000000%" y2="100.000000%" id="lgradient75">
<stop offset="0" stop-color="#2C2C2C" stop-opacity="1"/>
<stop offset="0.5" stop-color="#FFFFFF" stop-opacity="1"/>
<stop offset="1" stop-color="#2C2C2C" stop-opacity="1"/>
</linearGradient>
<linearGradient x1="0.000000%" y1="50.000000%" x2="100.000000%" y2="50.000000%" id="lgradient108">
<stop offset="0" stop-color="#111111" stop-opacity="1"/>
<stop offset="0.5" stop-color="#636563" stop-opacity="1"/>
<stop offset="1" stop-color="#111111" stop-opacity="1"/>
</linearGradient>
</defs>
<rect shape-type="rectangle" x="556" y="340" width="62" height="26" fill="#4A494A" stroke="#C0C0C0" stroke-width="3.00"/>
<rect shape-type="rectangle" x="450" y="344" width="62" height="26" fill="#4A494A" stroke="#C0C0C0" stroke-width="3.00"/>
<rect shape-type="rectangle" x="175" y="631" width="62" height="26" fill="#4A494A" stroke="#C0C0C0" stroke-width="3.00"/>
<line shape-type="limitline" x1="413" y1="467" x2="302" y2="467" fill="#00FFFF" stroke="#FFFFFF" stroke-width="1.00"/>
<rect shape-type="rectangle" x="167" y="285" width="5" height="92" fill="url(#lgradient5)" stroke="#000000" stroke-width="1.00"/>
<rect shape-type="rectangle" x="214" y="284" width="5" height="94" fill="url(#lgradient6)" stroke="#000000" stroke-width="1.00"/>
<rect shape-type="rectangle" x="755" y="586" width="5" height="78" fill="url(#lgradient7)" stroke="#000000" stroke-width="1.00"/>
<rect shape-type="rectangle" x="518" y="531" width="5" height="127" fill="url(#lgradient8)" stroke="#000000" stroke-width="1.00"/>
<rect shape-type="rectangle" x="435" y="260" width="5" height="160" fill="url(#lgradient9)" stroke="#000000" stroke-width="1.00"/>
<rect shape-type="rectangle" x="436" y="260" width="501" height="5" fill="url(#lgradient10)" stroke="#000000" stroke-width="1.00"/>
<rect shape-type="rectangle" x="796" y="307" width="109" height="5" fill="url(#lgradient11)" stroke="#000000" stroke-width="1.00"/>
<rect shape-type="rectangle" x="574" y="455" width="409" height="26" fill="url(#lgradient12)" stroke="#808080" stroke-width="1.00"/>
<polygon shape-type="trapezium" points="734,548 734,380 840,406 840,522 734,548" fill="url(#lgradient13)" stroke="#808080" stroke-width="1.00"/>
<polygon shape-type="trapezium" points="947,549 947,381 841,407 841,523 947,549" fill="url(#lgradient14)" stroke="#808080" stroke-width="1.00"/>
<polygon shape-type="trapezium" points="573,538 573,401 411,424 411,514 573,538" fill="url(#lgradient15)" stroke="#808080" stroke-width="1.00"/>
<rect shape-type="rectangle" x="143" y="457" width="160" height="20" fill="url(#lgradient16)" stroke="#808080" stroke-width="1.00"/>
<polygon shape-type="trapezium" points="265,524 265,410 178,431 178,503 265,524" fill="url(#lgradient17)" stroke="#808080" stroke-width="1.00"/>
<g shape-type="group">
<rect shape-type="rectangle" x="420" y="477" width="16" height="2" fill="#808080" stroke="#808080" stroke-width="2.00"/>
<line shape-type="limitline" x1="435" y1="494" x2="434" y2="479" fill="#00FFFF" stroke="#808080" stroke-width="1.00"/>
<line shape-type="limitline" x1="420" y1="492" x2="419" y2="479" fill="#00FFFF" stroke="#808080" stroke-width="1.00"/>
</g>
<rect shape-type="rectangle" x="551" y="429" width="6" height="73" fill="#808080" stroke="#808080" stroke-width="1.00"/>
<rect shape-type="rectangle" x="545" y="485" width="3" height="16" fill="#808080" stroke="#808080" stroke-width="2.00"/>
<line shape-type="limitline" x1="545" y1="486" x2="535" y2="486" fill="#00FFFF" stroke="#808080" stroke-width="1.00"/>
<line shape-type="limitline" x1="546" y1="500" x2="535" y2="500" fill="#00FFFF" stroke="#808080" stroke-width="1.00"/>
<rect shape-type="rectangle" x="559" y="485" width="3" height="16" fill="#808080" stroke="#808080" stroke-width="2.00"/>
<line shape-type="limitline" x1="562" y1="486" x2="572" y2="486" fill="#00FFFF" stroke="#808080" stroke-width="1.00"/>
<line shape-type="limitline" x1="561" y1="500" x2="572" y2="500" fill="#00FFFF" stroke="#808080" stroke-width="1.00"/>
<rect shape-type="rectangle" x="558" y="429" width="3" height="16" fill="#808080" stroke="#808080" stroke-width="2.00"/>
<line shape-type="limitline" x1="575" y1="430" x2="561" y2="431" fill="#00FFFF" stroke="#808080" stroke-width="1.00"/>
<line shape-type="limitline" x1="573" y1="444" x2="560" y2="444" fill="#00FFFF" stroke="#808080" stroke-width="1.00"/>
<rect shape-type="rectangle" x="546" y="429" width="3" height="16" fill="#808080" stroke="#808080" stroke-width="2.00"/>
<line shape-type="limitline" x1="546" y1="430" x2="534" y2="430" fill="#00FFFF" stroke="#808080" stroke-width="1.00"/>
<line shape-type="limitline" x1="547" y1="444" x2="535" y2="444" fill="#00FFFF" stroke="#808080" stroke-width="1.00"/>
<rect shape-type="rectangle" x="517" y="454" width="16" height="3" fill="#808080" stroke="#808080" stroke-width="2.00"/>
<line shape-type="limitline" x1="532" y1="440" x2="531" y2="454" fill="#00FFFF" stroke="#808080" stroke-width="1.00"/>
<line shape-type="limitline" x1="517" y1="441" x2="516" y2="454" fill="#00FFFF" stroke="#808080" stroke-width="1.00"/>
<rect shape-type="rectangle" x="517" y="477" width="16" height="3" fill="#808080" stroke="#808080" stroke-width="2.00"/>
<line shape-type="limitline" x1="532" y1="480" x2="532" y2="491" fill="#00FFFF" stroke="#808080" stroke-width="1.00"/>
<line shape-type="limitline" x1="518" y1="479" x2="518" y2="491" fill="#00FFFF" stroke="#808080" stroke-width="1.00"/>
<g shape-type="group">
<rect shape-type="rectangle" x="420" y="452" width="16" height="4" fill="#808080" stroke="#808080" stroke-width="2.00"/>
<line shape-type="limitline" x1="420" y1="453" x2="419" y2="439" fill="#00FFFF" stroke="#808080" stroke-width="1.00"/>
<line shape-type="limitline" x1="435" y1="453" x2="434" y2="439" fill="#00FFFF" stroke="#808080" stroke-width="1.00"/>
</g>
<g shape-type="group">
<rect shape-type="rectangle" x="744" y="451" width="16" height="4" fill="#808080" stroke="#808080" stroke-width="2.00"/>
<line shape-type="limitline" x1="744" y1="452" x2="743" y2="438" fill="#00FFFF" stroke="#808080" stroke-width="1.00"/>
<line shape-type="limitline" x1="759" y1="452" x2="758" y2="438" fill="#00FFFF" stroke="#808080" stroke-width="1.00"/>
</g>
<rect shape-type="rectangle" x="915" y="431" width="6" height="73" fill="#808080" stroke="#808080" stroke-width="1.00"/>
<rect shape-type="rectangle" x="910" y="486" width="3" height="16" fill="#808080" stroke="#808080" stroke-width="2.00"/>
<line shape-type="limitline" x1="910" y1="486" x2="900" y2="486" fill="#00FFFF" stroke="#808080" stroke-width="1.00"/>
<line shape-type="limitline" x1="911" y1="501" x2="900" y2="501" fill="#00FFFF" stroke="#808080" stroke-width="1.00"/>
<rect shape-type="rectangle" x="924" y="487" width="3" height="16" fill="#808080" stroke="#808080" stroke-width="2.00"/>
<line shape-type="limitline" x1="928" y1="487" x2="938" y2="487" fill="#00FFFF" stroke="#808080" stroke-width="1.00"/>
<line shape-type="limitline" x1="927" y1="502" x2="938" y2="502" fill="#00FFFF" stroke="#808080" stroke-width="1.00"/>
<rect shape-type="rectangle" x="924" y="432" width="3" height="16" fill="#808080" stroke="#808080" stroke-width="2.00"/>
<line shape-type="limitline" x1="939" y1="431" x2="925" y2="431" fill="#00FFFF" stroke="#808080" stroke-width="1.00"/>
<line shape-type="limitline" x1="939" y1="446" x2="926" y2="446" fill="#00FFFF" stroke="#808080" stroke-width="1.00"/>
<rect shape-type="rectangle" x="910" y="430" width="3" height="16" fill="#808080" stroke="#808080" stroke-width="2.00"/>
<line shape-type="limitline" x1="910" y1="430" x2="898" y2="430" fill="#00FFFF" stroke="#808080" stroke-width="1.00"/>
<line shape-type="limitline" x1="910" y1="445" x2="898" y2="445" fill="#00FFFF" stroke="#808080" stroke-width="1.00"/>
<rect shape-type="rectangle" x="872" y="453" width="16" height="3" fill="#808080" stroke="#808080" stroke-width="2.00"/>
<line shape-type="limitline" x1="887" y1="440" x2="886" y2="454" fill="#00FFFF" stroke="#808080" stroke-width="1.00"/>
<line shape-type="limitline" x1="872" y1="441" x2="871" y2="454" fill="#00FFFF" stroke="#808080" stroke-width="1.00"/>
<rect shape-type="rectangle" x="871" y="477" width="16" height="3" fill="#808080" stroke="#808080" stroke-width="2.00"/>
<line shape-type="limitline" x1="886" y1="480" x2="886" y2="491" fill="#00FFFF" stroke="#808080" stroke-width="1.00"/>
<line shape-type="limitline" x1="871" y1="479" x2="871" y2="491" fill="#00FFFF" stroke="#808080" stroke-width="1.00"/>
<g shape-type="group">
<rect shape-type="rectangle" x="745" y="477" width="16" height="3" fill="#808080" stroke="#808080" stroke-width="2.00"/>
<line shape-type="limitline" x1="745" y1="479" x2="744" y2="494" fill="#00FFFF" stroke="#808080" stroke-width="1.00"/>
<line shape-type="limitline" x1="760" y1="479" x2="759" y2="494" fill="#00FFFF" stroke="#808080" stroke-width="1.00"/>
</g>
<ellipse shape-type="ellipse" cx="522" cy="607" rx="14" ry="13" fill="url(#BRH_DIAGCROSS60)" stroke="#FFFFFF" stroke-width="1.00"/>
<g shape-type="group">
<ellipse shape-type="ellipse" cx="741" cy="262" rx="14" ry="14" fill="#FFFFFF" stroke="#FFFFFF" stroke-width="1.00"/>
<line shape-type="line" x1="751" y1="269" x2="731" y2="254" fill="#00FFFF" stroke="#000000" stroke-width="1.00"/>
<line shape-type="line" x1="730" y1="271" x2="750" y2="251" fill="#00FFFF" stroke="#000000" stroke-width="1.00"/>
</g>
<g shape-type="group">
<ellipse shape-type="ellipse" cx="848" cy="309" rx="14" ry="14" fill="#FFFFFF" stroke="#FFFFFF" stroke-width="1.00"/>
<line shape-type="line" x1="857" y1="316" x2="838" y2="301" fill="#00FFFF" stroke="#000000" stroke-width="1.00"/>
<line shape-type="line" x1="836" y1="318" x2="856" y2="298" fill="#00FFFF" stroke="#000000" stroke-width="1.00"/>
</g>
<g shape-type="group">
<polygon shape-type="trapezium" points="178,345 158,345 168,333 168,333 178,345" fill="#808080" stroke="#C0C0C0" stroke-width="1.00"/>
<polygon shape-type="trapezium" points="178,324 158,324 168,334 168,334 178,324" fill="#808080" stroke="#C0C0C0" stroke-width="1.00"/>
<rect shape-type="rectangle" x="163" y="332" width="11" height="3" fill="#808080" stroke="#C0C0C0" stroke-width="1.00"/>
</g>
<g shape-type="group">
<polygon shape-type="trapezium" points="227,346 207,346 217,334 217,334 227,346" fill="#808080" stroke="#C0C0C0" stroke-width="1.00"/>
<polygon shape-type="trapezium" points="227,325 207,325 217,335 217,335 227,325" fill="#808080" stroke="#C0C0C0" stroke-width="1.00"/>
<rect shape-type="rectangle" x="211" y="333" width="12" height="3" fill="#808080" stroke="#C0C0C0" stroke-width="1.00"/>
</g>
<g shape-type="group">
<g shape-type="group">
<polygon shape-type="trapezium" points="764,634 750,634 757,622 757,622 764,634" fill="#C0C0C0" stroke="#C0C0C0" stroke-width="1.00"/>
<polygon shape-type="trapezium" points="764,613 750,613 757,623 757,623 764,613" fill="#C0C0C0" stroke="#C0C0C0" stroke-width="1.00"/>
</g>
<line shape-type="limitline" x1="746" y1="624" x2="758" y2="625" fill="#00FFFF" stroke="#C0C0C0" stroke-width="1.00"/>
<path shape-type="chord" d="M 745,612 A 29,14 0 1,0 745,635 z" fill="#C0C0C0" stroke="#C0C0C0" stroke-width="2.00"/>
</g>
<rect shape-type="rectangle" x="190" y="377" width="5" height="51" fill="url(#lgradient66)" stroke="#000000" stroke-width="1.00"/>
<rect shape-type="rectangle" x="168" y="373" width="51" height="5" fill="url(#lgradient67)" stroke="#000000" stroke-width="1.00"/>
<rect shape-type="rectangle" x="168" y="284" width="51" height="5" fill="url(#lgradient68)" stroke="#000000" stroke-width="1.00"/>
<rect shape-type="rectangle" x="188" y="211" width="5" height="74" fill="url(#lgradient69)" stroke="#000000" stroke-width="1.00"/>
<rect shape-type="rectangle" x="233" y="518" width="5" height="76" fill="url(#lgradient70)" stroke="#000000" stroke-width="1.00"/>
<rect shape-type="rectangle" x="794" y="307" width="5" height="89" fill="url(#lgradient71)" stroke="#000000" stroke-width="1.00"/>
<rect shape-type="rectangle" x="900" y="309" width="5" height="83" fill="url(#lgradient72)" stroke="#000000" stroke-width="1.00"/>
<rect shape-type="rectangle" x="934" y="261" width="5" height="123" fill="url(#lgradient73)" stroke="#000000" stroke-width="1.00"/>
<rect shape-type="rectangle" x="802" y="531" width="5" height="136" fill="url(#lgradient74)" stroke="#000000" stroke-width="1.00"/>
<rect shape-type="rectangle" x="755" y="585" width="51" height="5" fill="url(#lgradient75)" stroke="#000000" stroke-width="1.00"/>
<rect shape-type="rectangle" x="232" y="594" width="8" height="20" fill="#00FF00" stroke="#008080" stroke-width="1.00"/>
<polygon shape-type="trapezium" points="231,613 241,613 236,625 236,625 231,613" fill="#00FF00" stroke="#008080" stroke-width="1.00"/>
<rect shape-type="rectangle" x="517" y="668" width="6" height="20" fill="#00FF00" stroke="#008080" stroke-width="1.00"/>
<polygon shape-type="trapezium" points="516,669 524,669 520,657 520,657 516,669" fill="#00FF00" stroke="#008080" stroke-width="1.00"/>
<rect shape-type="rectangle" x="755" y="663" width="6" height="19" fill="#00FF00" stroke="#008080" stroke-width="1.00"/>
<polygon shape-type="trapezium" points="754,681 763,681 758,694 758,694 754,681" fill="#00FF00" stroke="#008080" stroke-width="1.00"/>
<rect shape-type="rectangle" x="801" y="666" width="6" height="19" fill="#00FF00" stroke="#008080" stroke-width="1.00"/>
<polygon shape-type="trapezium" points="800,684 808,684 804,697 804,697 800,684" fill="#00FF00" stroke="#008080" stroke-width="1.00"/>
<rect shape-type="rectangle" x="433" y="328" width="8" height="21" fill="#00FF00" stroke="#008080" stroke-width="1.00"/>
<polygon shape-type="trapezium" points="432,329 442,329 437,318 437,318 432,329" fill="#00FF00" stroke="#008080" stroke-width="1.00"/>
<rect shape-type="rectangle" x="186" y="181" width="8" height="20" fill="#00FF00" stroke="#008080" stroke-width="1.00"/>
<polygon shape-type="trapezium" points="185,200 195,200 190,213 190,213 185,200" fill="#00FF00" stroke="#008080" stroke-width="1.00"/>
<line shape-type="limitline" x1="143" y1="467" x2="303" y2="467" fill="#00FFFF" stroke="#000000" stroke-width="1.00" stroke-dasharray="10 2"/>
<line shape-type="limitline" x1="414" y1="467" x2="983" y2="467" fill="#00FFFF" stroke="#000000" stroke-width="1.00" stroke-dasharray="10 2"/>
<line shape-type="line" x1="433" y1="449" x2="385" y2="419" fill="#00FFFF" stroke="#FFFFFF" stroke-width="3.00" stroke-dasharray="5 10"/>
<line shape-type="line" x1="426" y1="480" x2="386" y2="502" fill="#00FFFF" stroke="#FFFFFF" stroke-width="3.00" stroke-dasharray="5 10"/>
<line shape-type="line" x1="391" y1="536" x2="426" y2="480" fill="#00FFFF" stroke="#FFFFFF" stroke-width="3.00" stroke-dasharray="5 10"/>
<line shape-type="line" x1="580" y1="365" x2="519" y2="444" fill="#00FFFF" stroke="#FFFFFF" stroke-width="3.00" stroke-dasharray="5 10"/>
<line shape-type="line" x1="583" y1="402" x2="552" y2="463" fill="#00FFFF" stroke="#FFFFFF" stroke-width="3.00" stroke-dasharray="5 10"/>
<line shape-type="line" x1="581" y1="442" x2="555" y2="461" fill="#00FFFF" stroke="#FFFFFF" stroke-width="3.00" stroke-dasharray="5 10"/>
<line shape-type="line" x1="582" y1="549" x2="524" y2="478" fill="#00FFFF" stroke="#FFFFFF" stroke-width="3.00" stroke-dasharray="5 10"/>
<line shape-type="line" x1="582" y1="508" x2="526" y2="481" fill="#00FFFF" stroke="#FFFFFF" stroke-width="3.00" stroke-dasharray="5 10"/>
<line shape-type="line" x1="964" y1="259" x2="874" y2="442" fill="#00FFFF" stroke="#FFFFFF" stroke-width="3.00" stroke-dasharray="5 10"/>
<line shape-type="line" x1="963" y1="311" x2="874" y2="442" fill="#00FFFF" stroke="#FFFFFF" stroke-width="3.00" stroke-dasharray="5 10"/>
<line shape-type="line" x1="965" y1="353" x2="907" y2="430" fill="#00FFFF" stroke="#FFFFFF" stroke-width="3.00" stroke-dasharray="5 10"/>
<line shape-type="line" x1="961" y1="403" x2="925" y2="440" fill="#00FFFF" stroke="#FFFFFF" stroke-width="3.00" stroke-dasharray="5 10"/>
<line shape-type="line" x1="966" y1="440" x2="938" y2="468" fill="#00FFFF" stroke="#FFFFFF" stroke-width="3.00" stroke-dasharray="5 10"/>
<line shape-type="line" x1="960" y1="503" x2="936" y2="470" fill="#00FFFF" stroke="#FFFFFF" stroke-width="3.00" stroke-dasharray="5 10"/>
<line shape-type="line" x1="960" y1="550" x2="876" y2="480" fill="#00FFFF" stroke="#FFFFFF" stroke-width="3.00" stroke-dasharray="5 10"/>
<rect shape-type="rectangle" x="1" y="2" width="1064" height="38" fill="#636563" stroke="#808080" stroke-width="1.00"/>
<rect shape-type="rectangle" x="282" y="4" width="500" height="34" stroke="#000000" stroke-width="1.00"/>
<text font-family="宋体" text-anchor="start" fill="#FFFFFF" shape-type="text" id="" font-size="26.750000" font-weight="bold" x="459" y="31">气路系统</text>
<rect shape-type="rectangle" x="1" y="751" width="1064" height="48" fill="url(#lgradient108)" stroke="#636563" stroke-width="1.00"/>
<a xlink:href="氮气系统.svg">
<g shape-type="button">
<rect fill="#C0C0C0" stroke-width="0.3" stroke="#FFFFFF" x="209" y="760" width="88" height="31" shape-type="buttonrect"/>
<text font-family="宋体" text-anchor="middle" dominant-baseline="middle" fill="#000000" font-size="12.000000" x="253" y="781" shape-type="buttontext">氮气系统</text>
</g>
</a>
<a xlink:href="蒸汽系统2.svg">
<g shape-type="button">
<rect fill="#C0C0C0" stroke-width="0.3" stroke="#FFFFFF" x="106" y="760" width="87" height="31" shape-type="buttonrect"/>
<text font-family="宋体" text-anchor="middle" dominant-baseline="middle" fill="#000000" font-size="12.000000" x="150" y="781" shape-type="buttontext">蒸汽系统2</text>
</g>
</a>
<a xlink:href="蒸汽系统1.svg">
<g shape-type="button">
<rect fill="#C0C0C0" stroke-width="0.3" stroke="#FFFFFF" x="5" y="760" width="87" height="31" shape-type="buttonrect"/>
<text font-family="宋体" text-anchor="middle" dominant-baseline="middle" fill="#000000" font-size="12.000000" x="49" y="781" shape-type="buttontext">蒸汽系统1</text>
</g>
</a>
<text font-family="Arial" text-anchor="start" fill="#00FFFF" shape-type="realdata" id="BHGB_HJT1_VIA11A" font-size="12.500000" x="458" y="359">XXXX</text>
<a xlink:href="\环己酮\6万吨环己酮\公用工程\GYGC_ML.svg">
<g shape-type="button">
<rect fill="#C0C0C0" stroke-width="0.3" stroke="#FFFFFF" x="964" y="5" width="97" height="30" shape-type="buttonrect"/>
<text font-family="宋体" text-anchor="middle" dominant-baseline="middle" fill="#800000" font-size="13.500000" font-weight="bold" x="1012" y="26" shape-type="buttontext">返回上一级</text>
</g>
</a>
<rect shape-type="rectangle" x="14" y="253" width="62" height="26" fill="#4A494A" stroke="#C0C0C0" stroke-width="3.00"/>
<rect shape-type="rectangle" x="76" y="253" width="37" height="26" fill="#4A494A" stroke="#C0C0C0" stroke-width="3.00"/>
<text font-family="宋体" text-anchor="start" fill="#00FF42" shape-type="text" id="" font-size="9.500000" font-weight="bold" x="86" y="268">μm</text>
<rect shape-type="rectangle" x="14" y="289" width="62" height="26" fill="#4A494A" stroke="#C0C0C0" stroke-width="3.00"/>
<rect shape-type="rectangle" x="76" y="289" width="37" height="26" fill="#4A494A" stroke="#C0C0C0" stroke-width="3.00"/>
<rect shape-type="rectangle" x="14" y="328" width="62" height="26" fill="#4A494A" stroke="#C0C0C0" stroke-width="3.00"/>
<rect shape-type="rectangle" x="76" y="328" width="37" height="26" fill="#4A494A" stroke="#C0C0C0" stroke-width="3.00"/>
<text font-family="宋体" text-anchor="start" fill="#00FF42" shape-type="text" id="" font-size="9.500000" font-weight="bold" x="88" y="344">℃</text>
<rect shape-type="rectangle" x="14" y="364" width="62" height="25" fill="#4A494A" stroke="#C0C0C0" stroke-width="3.00"/>
<rect shape-type="rectangle" x="76" y="364" width="37" height="25" fill="#4A494A" stroke="#C0C0C0" stroke-width="3.00"/>
<rect shape-type="rectangle" x="14" y="402" width="62" height="26" fill="#4A494A" stroke="#C0C0C0" stroke-width="3.00"/>
<rect shape-type="rectangle" x="76" y="402" width="37" height="26" fill="#4A494A" stroke="#C0C0C0" stroke-width="3.00"/>
<rect shape-type="rectangle" x="14" y="438" width="62" height="25" fill="#4A494A" stroke="#C0C0C0" stroke-width="3.00"/>
<rect shape-type="rectangle" x="76" y="438" width="37" height="25" fill="#4A494A" stroke="#C0C0C0" stroke-width="3.00"/>
<rect shape-type="rectangle" x="14" y="476" width="62" height="26" fill="#4A494A" stroke="#C0C0C0" stroke-width="3.00"/>
<rect shape-type="rectangle" x="76" y="476" width="37" height="26" fill="#4A494A" stroke="#C0C0C0" stroke-width="3.00"/>
<rect shape-type="rectangle" x="14" y="512" width="62" height="25" fill="#4A494A" stroke="#C0C0C0" stroke-width="3.00"/>
<rect shape-type="rectangle" x="76" y="512" width="37" height="25" fill="#4A494A" stroke="#C0C0C0" stroke-width="3.00"/>
<rect shape-type="rectangle" x="14" y="550" width="62" height="26" fill="#4A494A" stroke="#C0C0C0" stroke-width="3.00"/>
<rect shape-type="rectangle" x="76" y="550" width="37" height="26" fill="#4A494A" stroke="#C0C0C0" stroke-width="3.00"/>
<text font-family="宋体" text-anchor="start" fill="#00FF42" shape-type="text" id="" font-size="9.500000" font-weight="bold" x="86" y="305">μm</text>
<text font-family="宋体" text-anchor="start" fill="#00FF42" shape-type="text" id="" font-size="9.500000" font-weight="bold" x="88" y="379">℃</text>
<text font-family="宋体" text-anchor="start" fill="#00FF42" shape-type="text" id="" font-size="9.500000" font-weight="bold" x="88" y="418">℃</text>
<text font-family="宋体" text-anchor="start" fill="#00FF42" shape-type="text" id="" font-size="9.500000" font-weight="bold" x="89" y="455">℃</text>
<text font-family="宋体" text-anchor="start" fill="#00FF42" shape-type="text" id="" font-size="9.500000" font-weight="bold" x="89" y="492">℃</text>
<text font-family="宋体" text-anchor="start" fill="#00FF42" shape-type="text" id="" font-size="9.500000" font-weight="bold" x="84" y="529">μm</text>
<text font-family="宋体" text-anchor="start" fill="#00FF42" shape-type="text" id="" font-size="9.500000" font-weight="bold" x="84" y="566">μm</text>
<text font-family="Arial" text-anchor="start" fill="#00FFFF" shape-type="realdata" id="BHGB_HJT1_VIA737B" font-size="12.500000" x="21" y="568">XXXX</text>
<text font-family="Arial" text-anchor="start" fill="#00FFFF" shape-type="realdata" id="BHGB_HJT1_VIA737A" font-size="12.500000" x="20" y="530">XXXX</text>
<text font-family="Arial" text-anchor="start" fill="#00FFFF" shape-type="realdata" id="BHGB_HJT1_TISA389BA" font-size="12.500000" x="20" y="493">XXXX</text>
<text font-family="Arial" text-anchor="start" fill="#00FFFF" shape-type="realdata" id="BHGB_HJT1_TISA387BA" font-size="12.500000" x="21" y="455">XXXX</text>
<text font-family="Arial" text-anchor="start" fill="#00FFFF" shape-type="realdata" id="BHGB_HJT1_TISA383A" font-size="12.500000" x="21" y="419">XXXX</text>
<text font-family="Arial" text-anchor="start" fill="#00FFFF" shape-type="realdata" id="BHGB_HJT1_TISA387AA" font-size="12.500000" x="21" y="380">XXXX</text>
<text font-family="Arial" text-anchor="start" fill="#00FFFF" shape-type="realdata" id="BHGB_HJT1_TISA389AA" font-size="12.500000" x="21" y="345">XXXX</text>
<text font-family="Arial" text-anchor="start" fill="#00FFFF" shape-type="realdata" id="BHGB_HJT1_VIA733A" font-size="12.500000" x="21" y="306">XXXX</text>
<text font-family="Arial" text-anchor="start" fill="#00FFFF" shape-type="realdata" id="BHGB_HJT1_VIA733B" font-size="12.500000" x="21" y="269">XXXX</text>
<rect shape-type="rectangle" x="129" y="535" width="62" height="26" fill="#4A494A" stroke="#C0C0C0" stroke-width="3.00"/>
<rect shape-type="rectangle" x="191" y="535" width="37" height="26" fill="#4A494A" stroke="#C0C0C0" stroke-width="3.00"/>
<text font-family="宋体" text-anchor="start" fill="#00FF42" shape-type="text" id="" font-size="9.500000" font-weight="bold" x="200" y="550">rpm</text>
<text font-family="Arial" text-anchor="start" fill="#00FFFF" shape-type="realdata" id="BHGB_HJT1_SIA715A" font-size="12.500000" x="136" y="552">XXXX</text>
<rect shape-type="rectangle" x="237" y="631" width="37" height="26" fill="#4A494A" stroke="#C0C0C0" stroke-width="3.00"/>
<text font-family="宋体" text-anchor="start" fill="#00FF42" shape-type="text" id="" font-size="9.500000" font-weight="bold" x="247" y="647">MPa</text>
<text font-family="Arial" text-anchor="start" fill="#00FFFF" shape-type="realdata" id="BHGB_HJT1_PI113" font-size="12.500000" x="181" y="648">XXXX</text>
<rect shape-type="rectangle" x="399" y="600" width="62" height="26" fill="#4A494A" stroke="#C0C0C0" stroke-width="3.00"/>
<rect shape-type="rectangle" x="461" y="600" width="37" height="26" fill="#4A494A" stroke="#C0C0C0" stroke-width="3.00"/>
<text font-family="宋体" text-anchor="start" fill="#00FF42" shape-type="text" id="" font-size="9.500000" font-weight="bold" x="469" y="616">KPa</text>
<rect shape-type="rectangle" x="399" y="631" width="62" height="26" fill="#4A494A" stroke="#C0C0C0" stroke-width="3.00"/>
<rect shape-type="rectangle" x="461" y="631" width="37" height="26" fill="#4A494A" stroke="#C0C0C0" stroke-width="3.00"/>
<text font-family="宋体" text-anchor="start" fill="#00FF42" shape-type="text" id="" font-size="9.500000" font-weight="bold" x="474" y="648">℃</text>
<text font-family="Arial" text-anchor="start" fill="#00FFFF" shape-type="realdata" id="BHGB_HJT1_PI110" font-size="12.500000" x="405" y="617">XXXX</text>
<text font-family="Arial" text-anchor="start" fill="#00FFFF" shape-type="realdata" id="BHGB_HJT1_TI110" font-size="12.500000" x="405" y="649">XXXX</text>
<rect shape-type="rectangle" x="291" y="491" width="62" height="26" fill="#4A494A" stroke="#C0C0C0" stroke-width="3.00"/>
<rect shape-type="rectangle" x="353" y="491" width="37" height="26" fill="#4A494A" stroke="#C0C0C0" stroke-width="3.00"/>
<text font-family="宋体" text-anchor="start" fill="#00FF42" shape-type="text" id="" font-size="9.500000" font-weight="bold" x="365" y="507">℃</text>
<rect shape-type="rectangle" x="306" y="528" width="62" height="26" fill="#4A494A" stroke="#C0C0C0" stroke-width="3.00"/>
<rect shape-type="rectangle" x="368" y="528" width="37" height="26" fill="#4A494A" stroke="#C0C0C0" stroke-width="3.00"/>
<text font-family="宋体" text-anchor="start" fill="#00FF42" shape-type="text" id="" font-size="9.500000" font-weight="bold" x="376" y="544">μm</text>
<text font-family="Arial" text-anchor="start" fill="#00FFFF" shape-type="realdata" id="BHGB_HJT1_TISA196A" font-size="12.500000" x="298" y="507">XXXX</text>
<text font-family="Arial" text-anchor="start" fill="#00FFFF" shape-type="realdata" id="BHGB_HJT1_VIA12B" font-size="12.500000" x="312" y="545">XXXX</text>
<rect shape-type="rectangle" x="302" y="416" width="62" height="26" fill="#4A494A" stroke="#C0C0C0" stroke-width="3.00"/>
<rect shape-type="rectangle" x="364" y="416" width="37" height="26" fill="#4A494A" stroke="#C0C0C0" stroke-width="3.00"/>
<text font-family="宋体" text-anchor="start" fill="#00FF42" shape-type="text" id="" font-size="9.500000" font-weight="bold" x="372" y="432">μm</text>
<rect shape-type="rectangle" x="269" y="382" width="62" height="26" fill="#4A494A" stroke="#C0C0C0" stroke-width="3.00"/>
<rect shape-type="rectangle" x="331" y="382" width="37" height="26" fill="#4A494A" stroke="#C0C0C0" stroke-width="3.00"/>
<text font-family="宋体" text-anchor="start" fill="#00FF42" shape-type="text" id="" font-size="9.500000" font-weight="bold" x="343" y="398">℃</text>
<text font-family="Arial" text-anchor="start" fill="#00FFFF" shape-type="realdata" id="BHGB_HJT1_VIA12A" font-size="12.500000" x="309" y="433">XXXX</text>
<text font-family="Arial" text-anchor="start" fill="#00FFFF" shape-type="realdata" id="BHGB_HJT1_TISA385A" font-size="12.500000" x="275" y="398">XXXX</text>
<rect shape-type="rectangle" x="813" y="654" width="62" height="26" fill="#4A494A" stroke="#C0C0C0" stroke-width="3.00"/>
<rect shape-type="rectangle" x="875" y="654" width="37" height="26" fill="#4A494A" stroke="#C0C0C0" stroke-width="3.00"/>
<text font-family="宋体" text-anchor="start" fill="#00FF42" shape-type="text" id="" font-size="9.500000" font-weight="bold" x="885" y="670">MPa</text>
<rect shape-type="rectangle" x="813" y="623" width="62" height="26" fill="#4A494A" stroke="#C0C0C0" stroke-width="3.00"/>
<rect shape-type="rectangle" x="875" y="623" width="37" height="26" fill="#4A494A" stroke="#C0C0C0" stroke-width="3.00"/>
<text font-family="宋体" text-anchor="start" fill="#00FF42" shape-type="text" id="" font-size="9.500000" font-weight="bold" x="881" y="639">m3/h</text>
<rect shape-type="rectangle" x="813" y="592" width="62" height="26" fill="#4A494A" stroke="#C0C0C0" stroke-width="3.00"/>
<rect shape-type="rectangle" x="875" y="592" width="37" height="26" fill="#4A494A" stroke="#C0C0C0" stroke-width="3.00"/>
<text font-family="宋体" text-anchor="start" fill="#00FF42" shape-type="text" id="" font-size="9.500000" font-weight="bold" x="886" y="609">℃</text>
<text font-family="Arial" text-anchor="start" fill="#00FFFF" shape-type="realdata" id="BHGB_HJT1_TI11" font-size="12.500000" x="820" y="609">XXXX</text>
<text font-family="Arial" text-anchor="start" fill="#00FFFF" shape-type="realdata" id="BHGB_HJT1_FIC11" font-size="12.500000" x="820" y="640">XXXX</text>
<text font-family="Arial" text-anchor="start" fill="#00FFFF" shape-type="realdata" id="BHGB_HJT1_PI11" font-size="12.500000" x="819" y="671">XXXX</text>
<rect shape-type="rectangle" x="581" y="501" width="62" height="26" fill="#4A494A" stroke="#C0C0C0" stroke-width="3.00"/>
<rect shape-type="rectangle" x="643" y="501" width="37" height="26" fill="#4A494A" stroke="#C0C0C0" stroke-width="3.00"/>
<text font-family="宋体" text-anchor="start" fill="#00FF42" shape-type="text" id="" font-size="9.500000" font-weight="bold" x="656" y="518">℃</text>
<rect shape-type="rectangle" x="582" y="541" width="62" height="26" fill="#4A494A" stroke="#C0C0C0" stroke-width="3.00"/>
<rect shape-type="rectangle" x="644" y="541" width="37" height="26" fill="#4A494A" stroke="#C0C0C0" stroke-width="3.00"/>
<rect shape-type="rectangle" x="582" y="575" width="62" height="26" fill="#4A494A" stroke="#C0C0C0" stroke-width="3.00"/>
<rect shape-type="rectangle" x="644" y="575" width="37" height="26" fill="#4A494A" stroke="#C0C0C0" stroke-width="3.00"/>
<text font-family="宋体" text-anchor="start" fill="#00FF42" shape-type="text" id="" font-size="9.500000" font-weight="bold" x="657" y="590">mm</text>
<rect shape-type="rectangle" x="692" y="554" width="62" height="26" fill="#4A494A" stroke="#C0C0C0" stroke-width="3.00"/>
<rect shape-type="rectangle" x="754" y="554" width="37" height="26" fill="#4A494A" stroke="#C0C0C0" stroke-width="3.00"/>
<text font-family="Arial" text-anchor="start" fill="#00FFFF" shape-type="realdata" id="BHGB_HJT1_VIA14B" font-size="12.500000" x="698" y="571">XXXX</text>
<text font-family="宋体" text-anchor="start" fill="#00FF42" shape-type="text" id="" font-size="9.500000" font-weight="bold" x="653" y="558">μm</text>
<text font-family="宋体" text-anchor="start" fill="#00FF42" shape-type="text" id="" font-size="9.500000" font-weight="bold" x="765" y="569">μm</text>
<text font-family="Arial" text-anchor="start" fill="#00FFFF" shape-type="realdata" id="BHGB_HJT1_TISA194A" font-size="12.500000" x="588" y="517">XXXX</text>
<text font-family="Arial" text-anchor="start" fill="#00FFFF" shape-type="realdata" id="BHGB_HJT1_VIA11B" font-size="12.500000" x="588" y="557">XXXX</text>
<text font-family="Arial" text-anchor="start" fill="#00FFFF" shape-type="realdata" id="BHGB_HJT1_XIA11B" font-size="12.500000" x="588" y="592">XXXX</text>
<rect shape-type="rectangle" x="618" y="340" width="37" height="26" fill="#4A494A" stroke="#C0C0C0" stroke-width="3.00"/>
<text font-family="宋体" text-anchor="start" fill="#00FF42" shape-type="text" id="" font-size="9.500000" font-weight="bold" x="631" y="355">mm</text>
<rect shape-type="rectangle" x="512" y="344" width="37" height="26" fill="#4A494A" stroke="#C0C0C0" stroke-width="3.00"/>
<text font-family="宋体" text-anchor="start" fill="#00FF42" shape-type="text" id="" font-size="9.500000" font-weight="bold" x="523" y="359">μm</text>
<text font-family="Arial" text-anchor="start" fill="#00FFFF" shape-type="realdata" id="BHGB_HJT1_XIA11A" font-size="12.500000" x="562" y="356">XXXX</text>
<rect shape-type="rectangle" x="573" y="381" width="52" height="26" fill="#4A494A" stroke="#C0C0C0" stroke-width="3.00"/>
<rect shape-type="rectangle" x="625" y="381" width="30" height="26" fill="#4A494A" stroke="#C0C0C0" stroke-width="3.00"/>
<text font-family="宋体" text-anchor="start" fill="#00FF42" shape-type="text" id="" font-size="9.500000" font-weight="bold" x="635" y="398">℃</text>
<rect shape-type="rectangle" x="658" y="381" width="52" height="26" fill="#4A494A" stroke="#C0C0C0" stroke-width="3.00"/>
<rect shape-type="rectangle" x="710" y="381" width="30" height="26" fill="#4A494A" stroke="#C0C0C0" stroke-width="3.00"/>
<text font-family="宋体" text-anchor="start" fill="#00FF42" shape-type="text" id="" font-size="9.500000" font-weight="bold" x="720" y="398">℃</text>
<text font-family="Arial" text-anchor="start" fill="#00FFFF" shape-type="realdata" id="BHGB_HJT1_TISA192A" font-size="12.500000" x="579" y="398">XXXX</text>
<text font-family="Arial" text-anchor="start" fill="#00FFFF" shape-type="realdata" id="BHGB_HJT1_TISA196B" font-size="12.500000" x="664" y="398">XXXX</text>
<rect shape-type="rectangle" x="658" y="421" width="52" height="26" fill="#4A494A" stroke="#C0C0C0" stroke-width="3.00"/>
<rect shape-type="rectangle" x="710" y="421" width="30" height="26" fill="#4A494A" stroke="#C0C0C0" stroke-width="3.00"/>
<rect shape-type="rectangle" x="573" y="421" width="52" height="26" fill="#4A494A" stroke="#C0C0C0" stroke-width="3.00"/>
<rect shape-type="rectangle" x="625" y="421" width="30" height="26" fill="#4A494A" stroke="#C0C0C0" stroke-width="3.00"/>
<text font-family="宋体" text-anchor="start" fill="#00FF42" shape-type="text" id="" font-size="9.500000" font-weight="bold" x="635" y="438">℃</text>
<text font-family="宋体" text-anchor="start" fill="#00FF42" shape-type="text" id="" font-size="9.500000" font-weight="bold" x="715" y="436">μm</text>
<text font-family="Arial" text-anchor="start" fill="#00FFFF" shape-type="realdata" id="BHGB_HJT1_TISA190A" font-size="12.500000" x="580" y="438">XXXX</text>
<text font-family="Arial" text-anchor="start" fill="#00FFFF" shape-type="realdata" id="BHGB_HJT1_VIA14A" font-size="12.500000" x="664" y="437">XXXX</text>
<rect shape-type="rectangle" x="961" y="541" width="62" height="26" fill="#4A494A" stroke="#C0C0C0" stroke-width="3.00"/>
<rect shape-type="rectangle" x="1023" y="541" width="37" height="26" fill="#4A494A" stroke="#C0C0C0" stroke-width="3.00"/>
<text font-family="宋体" text-anchor="start" fill="#00FF42" shape-type="text" id="" font-size="9.500000" font-weight="bold" x="1033" y="556">μm</text>
<rect shape-type="rectangle" x="960" y="499" width="62" height="26" fill="#4A494A" stroke="#C0C0C0" stroke-width="3.00"/>
<rect shape-type="rectangle" x="1022" y="499" width="37" height="26" fill="#4A494A" stroke="#C0C0C0" stroke-width="3.00"/>
<text font-family="宋体" text-anchor="start" fill="#00FF42" shape-type="text" id="" font-size="9.500000" font-weight="bold" x="1038" y="514">mm</text>
<rect shape-type="rectangle" x="962" y="424" width="62" height="26" fill="#4A494A" stroke="#C0C0C0" stroke-width="3.00"/>
<rect shape-type="rectangle" x="1024" y="424" width="37" height="26" fill="#4A494A" stroke="#C0C0C0" stroke-width="3.00"/>
<text font-family="宋体" text-anchor="start" fill="#00FF42" shape-type="text" id="" font-size="9.500000" font-weight="bold" x="1037" y="439">mm</text>
<rect shape-type="rectangle" x="961" y="390" width="62" height="26" fill="#4A494A" stroke="#C0C0C0" stroke-width="3.00"/>
<rect shape-type="rectangle" x="1023" y="390" width="37" height="26" fill="#4A494A" stroke="#C0C0C0" stroke-width="3.00"/>
<text font-family="宋体" text-anchor="start" fill="#00FF42" shape-type="text" id="" font-size="9.500000" font-weight="bold" x="1034" y="407">℃</text>
<rect shape-type="rectangle" x="960" y="343" width="62" height="26" fill="#4A494A" stroke="#C0C0C0" stroke-width="3.00"/>
<rect shape-type="rectangle" x="1022" y="343" width="37" height="26" fill="#4A494A" stroke="#C0C0C0" stroke-width="3.00"/>
<text font-family="宋体" text-anchor="start" fill="#00FF42" shape-type="text" id="" font-size="9.500000" font-weight="bold" x="1033" y="360">℃</text>
<rect shape-type="rectangle" x="959" y="299" width="62" height="26" fill="#4A494A" stroke="#C0C0C0" stroke-width="3.00"/>
<rect shape-type="rectangle" x="1021" y="299" width="37" height="26" fill="#4A494A" stroke="#C0C0C0" stroke-width="3.00"/>
<text font-family="宋体" text-anchor="start" fill="#00FF42" shape-type="text" id="" font-size="9.500000" font-weight="bold" x="1032" y="316">℃</text>
<rect shape-type="rectangle" x="958" y="257" width="62" height="26" fill="#4A494A" stroke="#C0C0C0" stroke-width="3.00"/>
<rect shape-type="rectangle" x="1020" y="257" width="37" height="26" fill="#4A494A" stroke="#C0C0C0" stroke-width="3.00"/>
<text font-family="宋体" text-anchor="start" fill="#00FF42" shape-type="text" id="" font-size="9.500000" font-weight="bold" x="1030" y="272">μm</text>
<text font-family="Arial" text-anchor="start" fill="#00FFFF" shape-type="realdata" id="BHGB_HJT1_VIA13B" font-size="12.500000" x="968" y="558">XXXX</text>
<text font-family="Arial" text-anchor="start" fill="#00FFFF" shape-type="realdata" id="BHGB_HJT1_XIA12B" font-size="12.500000" x="966" y="516">XXXX</text>
<text font-family="Arial" text-anchor="start" fill="#00FFFF" shape-type="realdata" id="BHGB_HJT1_XIA12A" font-size="12.500000" x="969" y="441">XXXX</text>
<text font-family="Arial" text-anchor="start" fill="#00FFFF" shape-type="realdata" id="BHGB_HJT1_TISA190B" font-size="12.500000" x="967" y="407">XXXX</text>
<text font-family="Arial" text-anchor="start" fill="#00FFFF" shape-type="realdata" id="BHGB_HJT1_TISA192B" font-size="12.500000" x="967" y="359">XXXX</text>
<text font-family="Arial" text-anchor="start" fill="#00FFFF" shape-type="realdata" id="BHGB_HJT1_TISA194B" font-size="12.500000" x="965" y="316">XXXX</text>
<text font-family="Arial" text-anchor="start" fill="#00FFFF" shape-type="realdata" id="BHGB_HJT1_VIA13A" font-size="12.500000" x="965" y="275">XXXX</text>
</svg>
